# Blender 5.2.2 LTS
# www.blender.org
o BassKey
v 0.192262 0.002672 0.003365
v 0.195454 2.068725 0.036004
v 0.093212 0.001287 0.168200
v 0.096405 2.067342 0.200839
v -0.099043 -0.001385 0.164836
v -0.095850 2.064671 0.197474
v -0.192255 -0.002669 -0.003365
v -0.189075 2.063378 0.029275
v -0.093217 -0.001290 -0.168200
v -0.090026 2.064765 -0.135561
v 0.099038 0.001382 -0.164835
v 0.102232 2.067437 -0.132197
v 0.003192 2.066051 0.032639
v -0.000000 0.000002 -0.000000
v 0.020749 1.488110 -0.069797
v 0.017164 1.488053 0.135300
v -1.046448 2.380052 -0.088212
v -1.050040 2.379992 0.116884
v -0.314201 2.623711 -0.075332
v -0.317788 2.623653 0.129764
v 0.070617 2.452744 -0.068649
v 0.067031 2.452686 0.136447
v 0.495280 2.587886 -0.061181
v 0.491697 2.587828 0.143916
v 1.066171 2.378085 -0.051252
v 1.062586 2.378028 0.153843
v 0.058030 2.214617 0.136222
v 0.061618 2.214675 -0.068875
vn 0.6600 -0.7512 0.0113
vn 0.4230 -0.5079 0.7504
vn 0.0139 -0.9999 -0.0000
vn 0.8648 0.5019 0.0152
vn -0.0139 0.9999 -0.0000
vn 0.3103 0.7542 0.5787
vn -0.3258 -0.7621 0.5596
vn -0.4540 0.4901 0.7441
vn -0.8648 -0.5019 -0.0152
vn -0.6600 0.7511 -0.0113
vn -0.3119 -0.7542 -0.5778
vn -0.4230 0.5079 -0.7504
vn 0.4540 -0.4901 -0.7441
vn 0.3257 0.7621 -0.5596
vn 0.0166 -0.6072 -0.7944
vn -0.6730 0.1303 -0.7281
vn 0.0175 0.0003 -0.9998
vn -0.0058 -0.8370 0.5471
vn -0.0175 -0.0003 0.9998
vn -0.4458 0.0813 0.8914
vn 0.0458 0.6815 -0.7304
vn 0.0344 0.8801 0.4736
vn 0.0567 0.8806 -0.4705
vn 0.0247 0.6816 0.7313
vn 0.0278 0.6873 -0.7259
vn 0.0113 0.8837 0.4679
vn 0.7114 0.1249 -0.6916
vn 0.4277 0.0788 0.9005
vt 0.880304 0.049136
vt 0.872807 0.049397
vt 0.858930 0.048980
vt 0.892260 0.348443
vt 0.870886 0.348287
vt 0.884764 0.348704
vt 0.879797 0.165658
vt 0.872301 0.165919
vt 0.851434 0.049241
vt 0.863390 0.348548
vt 0.850928 0.165763
vt 0.837556 0.048824
vt 0.849511 0.348131
vt 0.837048 0.165346
vt 0.845051 0.048563
vt 0.857008 0.347870
vt 0.850019 0.231609
vt 0.857514 0.231348
vt 0.866425 0.048719
vt 0.878381 0.348026
vt 0.878887 0.231504
vt 0.892766 0.231921
vt 0.871103 0.315500
vt 0.751787 0.365748
vt 0.875107 0.356455
vt 0.862571 0.133133
vt 0.866575 0.174088
vt 0.743254 0.183380
vt 0.858640 0.132715
vt 0.739324 0.182963
vt 0.833018 0.379501
vt 0.824486 0.197134
vt 0.820555 0.196716
vt 0.875930 0.369874
vt 0.867398 0.187507
vt 0.836949 0.379919
vt 0.879861 0.370292
vt 0.923044 0.377503
vt 0.914513 0.195136
vt 0.863468 0.187090
vt 0.910582 0.194718
vt 0.986673 0.365693
vt 0.978141 0.183326
vt 0.926975 0.377921
vt 0.990604 0.366110
vt 0.875034 0.315918
s 1
f 1/1/1 3/2/2 14/3/3
f 2/4/4 13/5/5 4/6/6
f 1/1/1 2/7/4 3/2/2
f 2/7/4 4/8/6 3/2/2
f 3/2/2 5/9/7 14/3/3
f 4/6/6 13/5/5 6/10/8
f 3/2/2 4/8/6 6/11/8
f 3/2/2 6/11/8 5/9/7
f 5/9/7 7/12/9 14/3/3
f 6/10/8 13/5/5 8/13/10
f 5/9/7 6/11/8 7/12/9
f 6/11/8 8/14/10 7/12/9
f 7/12/9 9/15/11 14/3/3
f 8/13/10 13/5/5 10/16/12
f 7/17/9 8/13/10 10/16/12
f 7/17/9 10/16/12 9/18/11
f 9/15/11 11/19/13 14/3/3
f 10/16/12 13/5/5 12/20/14
f 9/18/11 10/16/12 11/21/13
f 10/16/12 12/20/14 11/21/13
f 11/19/13 1/1/1 14/3/3
f 12/20/14 13/5/5 2/4/4
f 11/21/13 12/20/14 2/4/4
f 11/21/13 2/4/4 1/22/1
f 15/23/15 17/24/16 28/25/17
f 16/26/18 27/27/19 18/28/20
f 15/29/15 16/26/18 17/30/16
f 16/26/18 18/28/20 17/30/16
f 17/24/16 19/31/21 28/25/17
f 18/28/20 27/27/19 20/32/22
f 17/30/16 18/28/20 20/32/22
f 17/30/16 20/32/22 19/33/21
f 19/31/21 21/34/23 28/25/17
f 20/32/22 27/27/19 22/35/24
f 19/31/21 20/36/22 21/34/23
f 20/36/22 22/37/24 21/34/23
f 21/34/23 23/38/25 28/25/17
f 22/35/24 27/27/19 24/39/26
f 21/40/23 22/35/24 24/39/26
f 21/40/23 24/39/26 23/41/25
f 23/38/25 25/42/27 28/25/17
f 24/39/26 27/27/19 26/43/28
f 23/38/25 24/44/26 25/42/27
f 24/44/26 26/45/28 25/42/27
f 25/42/27 15/23/15 28/25/17
f 26/43/28 27/27/19 16/26/18
f 25/42/27 26/45/28 16/46/18
f 25/42/27 16/46/18 15/23/15
