# Blender 5.2.2 LTS
# www.blender.org
o Bass
v 1.843478 -14.363636 0.000001
v 1.005931 20.029324 -0.000002
v -1.936388 -14.363636 0.000001
v -1.098841 20.029324 -0.000002
v -1.683185 -14.363636 -0.944965
v -0.957848 20.029324 -0.526195
v -0.991422 -14.363636 -1.636729
v -0.572648 20.029324 -0.911394
v -0.046455 -14.363636 -1.889932
v -0.046455 20.029324 -1.052388
v 0.898511 -14.363636 -1.636729
v 0.479738 20.029324 -0.911394
v 1.590275 -14.363636 -0.944965
v 0.864938 20.029324 -0.526195
v -0.046455 -14.363636 0.000001
v 1.061688 21.026714 -0.109929
v -2.366705 21.026714 -0.109929
v -2.137045 20.846863 -1.129908
v -1.509607 20.846863 -1.129908
v -0.652508 20.846863 -1.129908
v 0.204590 20.846863 -1.129908
v 0.832028 20.846863 -1.129908
v 2.262583 22.578556 -0.383561
v -2.113027 22.578556 -0.383561
v -1.819896 22.398706 -1.403540
v -1.019104 22.398706 -1.403540
v 0.074740 22.398706 -1.403540
v 1.168662 22.398706 -1.403540
v 1.969453 22.398706 -1.403540
v 2.093141 24.846584 -0.783475
v -1.658398 24.846584 -0.783475
v -1.407057 24.666735 -1.803455
v -0.720487 24.666735 -1.803455
v 0.217372 24.666735 -1.803455
v 1.155230 24.666735 -1.803455
v 1.841853 24.666735 -1.803455
v 1.147057 27.897507 -1.321436
v -0.986811 27.897507 -1.321436
v -0.843848 27.717657 -2.341415
v -0.453318 27.717657 -2.341415
v 0.080105 27.717657 -2.341415
v 0.613564 27.717657 -2.341415
v 1.004128 27.717657 -2.341415
v 2.539174 28.978849 -1.512105
v -0.771127 28.978849 -1.512105
v -0.549373 28.799000 -2.532084
v 0.056519 28.799000 -2.532084
v 0.883976 28.799000 -2.532084
v 1.711622 28.799000 -2.532084
v 2.317515 28.799000 -2.532084
v 2.593682 30.098808 -1.709584
v -0.551105 30.098808 -1.709584
v -0.340452 29.918959 -2.729564
v 0.235149 29.918959 -2.729564
v 1.021230 29.918959 -2.729564
v 1.807485 29.918959 -2.729564
v 2.383086 29.918959 -2.729564
v 1.788113 31.141500 -1.893439
v 1.021269 31.141500 -1.893439
v 0.254485 31.141500 -1.893439
v 0.357205 31.074917 -2.271050
v 0.637922 30.961651 -2.913418
v 1.021269 30.961651 -2.913418
v 1.404706 30.961651 -2.913418
v 1.685393 31.074917 -2.271050
v -1.098070 19.554157 0.398989
v -1.104507 19.308342 0.398989
v 0.968738 19.554157 0.398989
v 0.975175 19.308340 0.398989
v 0.968738 19.554157 -0.000001
v 0.975175 19.308340 -0.000001
v -1.098070 19.554157 -0.000001
v -1.104507 19.308342 -0.000001
v -1.169306 16.833778 0.249999
v -1.172310 16.719065 0.249999
v 1.039974 16.833778 0.249999
v 1.042978 16.719065 0.249999
v 1.039974 16.833778 -0.000001
v 1.042978 16.719065 -0.000001
v -1.169306 16.833778 -0.000001
v -1.172310 16.719065 -0.000001
v -1.234104 14.359217 0.249999
v -1.237108 14.244502 0.249999
v 1.104772 14.359217 0.249999
v 1.107776 14.244502 0.249999
v 1.104772 14.359217 -0.000001
v 1.107776 14.244502 -0.000001
v -1.234104 14.359217 -0.000001
v -1.237108 14.244502 -0.000001
v -1.292895 12.114085 0.249999
v -1.296328 11.982983 0.249999
v 1.163563 12.114085 0.249999
v 1.166996 11.982983 0.249999
v 1.163563 12.114085 -0.000001
v 1.166996 11.982983 -0.000001
v -1.292895 12.114085 -0.000001
v -1.296328 11.982983 -0.000001
v -1.350828 9.901728 0.249999
v -1.353832 9.787013 0.249999
v 1.221496 9.901728 0.249999
v 1.224500 9.787013 0.249999
v 1.221496 9.901728 -0.000001
v 1.224500 9.787013 -0.000001
v -1.350828 9.901728 -0.000001
v -1.353832 9.787013 -0.000001
v -1.404898 7.836862 0.249999
v -1.408331 7.705759 0.249999
v 1.275566 7.836862 0.249999
v 1.278999 7.705759 0.249999
v 1.275566 7.836862 -0.000001
v 1.278999 7.705759 -0.000001
v -1.404898 7.836862 -0.000001
v -1.408331 7.705759 -0.000001
v -1.455106 5.919487 0.250000
v -1.458110 5.804771 0.250000
v 1.325774 5.919487 0.250000
v 1.328778 5.804771 0.250000
v 1.325774 5.919487 -0.000000
v 1.328778 5.804771 -0.000000
v -1.455106 5.919487 -0.000000
v -1.458110 5.804771 -0.000000
v -1.503598 4.067662 0.250000
v -1.507031 3.936559 0.250000
v 1.374266 4.067662 0.250000
v 1.377699 3.936559 0.250000
v 1.374266 4.067662 -0.000000
v 1.377699 3.936559 -0.000000
v -1.503598 4.067662 -0.000000
v -1.507031 3.936559 -0.000000
v -1.549086 2.330553 0.250000
v -1.552519 2.199450 0.250000
v 1.419754 2.330553 0.250000
v 1.423187 2.199450 0.250000
v 1.419754 2.330553 -0.000000
v 1.423187 2.199450 -0.000000
v -1.549086 2.330553 -0.000000
v -1.552519 2.199450 -0.000000
v -1.591999 0.691770 0.250000
v -1.595003 0.577056 0.250000
v 1.462667 0.691770 0.250000
v 1.465671 0.577056 0.250000
v 1.462667 0.691770 -0.000000
v 1.465671 0.577056 -0.000000
v -1.591999 0.691770 -0.000000
v -1.595003 0.577056 -0.000000
v -1.632337 -0.848685 0.250000
v -1.635770 -0.979788 0.250000
v 1.503005 -0.848685 0.250000
v 1.506438 -0.979788 0.250000
v 1.503005 -0.848685 0.000000
v 1.506438 -0.979788 0.000000
v -1.632337 -0.848685 0.000000
v -1.635770 -0.979788 0.000000
v -1.669672 -2.274426 0.250000
v -1.673534 -2.421916 0.250000
v 1.540340 -2.274426 0.250000
v 1.544202 -2.421916 0.250000
v 1.540340 -2.274426 0.000000
v 1.544202 -2.421916 0.000000
v -1.669672 -2.274426 0.000000
v -1.673534 -2.421916 0.000000
v -1.705289 -3.634616 0.250000
v -1.709581 -3.798494 0.250000
v 1.575957 -3.634616 0.250000
v 1.580249 -3.798494 0.250000
v 1.575957 -3.634616 0.000000
v 1.580249 -3.798494 0.000000
v -1.705289 -3.634616 0.000000
v -1.709581 -3.798494 0.000000
v -1.739191 -4.929254 0.250000
v -1.742195 -5.043969 0.250000
v 1.609859 -4.929254 0.250000
v 1.612863 -5.043969 0.250000
v 1.609859 -4.929254 0.000000
v 1.612863 -5.043969 0.000000
v -1.739191 -4.929254 0.000000
v -1.742195 -5.043969 0.000000
v -1.771805 -6.174728 0.250000
v -1.775238 -6.305831 0.250000
v 1.642473 -6.174728 0.250000
v 1.645906 -6.305831 0.250000
v 1.642473 -6.174728 0.000000
v 1.645906 -6.305831 0.000000
v -1.771805 -6.174728 0.000000
v -1.775238 -6.305831 0.000000
v -1.801844 -7.321876 0.250001
v -1.805706 -7.469367 0.250001
v 1.672512 -7.321876 0.250001
v 1.676374 -7.469367 0.250001
v 1.672512 -7.321876 0.000001
v 1.676374 -7.469367 0.000001
v -1.801844 -7.321876 0.000001
v -1.805706 -7.469367 0.000001
v -1.830595 -8.419860 0.250001
v -1.834028 -8.550962 0.250001
v 1.701263 -8.419860 0.250001
v 1.704697 -8.550962 0.250001
v 1.701263 -8.419860 0.000001
v 1.704697 -8.550962 0.000001
v -1.830595 -8.419860 0.000001
v -1.834028 -8.550962 0.000001
v -1.857631 -9.452293 0.250001
v -1.861064 -9.583396 0.250001
v 1.728299 -9.452293 0.250001
v 1.731732 -9.583396 0.250001
v 1.728299 -9.452293 0.000001
v 1.731732 -9.583396 0.000001
v -1.857631 -9.452293 0.000001
v -1.861064 -9.583396 0.000001
v -1.883379 -10.435563 0.250001
v -1.885953 -10.533891 0.250001
v 1.754046 -10.435563 0.250001
v 1.756621 -10.533891 0.250001
v 1.754046 -10.435563 0.000001
v 1.756621 -10.533891 0.000001
v -1.883379 -10.435563 0.000001
v -1.885953 -10.533891 0.000001
v -1.907410 -11.353281 0.250001
v -1.910414 -11.467997 0.250001
v 1.778078 -11.353281 0.250001
v 1.781082 -11.467997 0.250001
v 1.778078 -11.353281 0.000001
v 1.781082 -11.467997 0.000001
v -1.907410 -11.353281 0.000001
v -1.910414 -11.467997 0.000001
v -1.929295 -12.189060 0.250001
v -1.932729 -12.320164 0.250001
v 1.799963 -12.189060 0.250001
v 1.803396 -12.320164 0.250001
v 1.799963 -12.189060 0.000001
v 1.803396 -12.320164 0.000001
v -1.929295 -12.189060 0.000001
v -1.932729 -12.320164 0.000001
v -1.949894 -12.975676 0.250001
v -1.953327 -13.106779 0.250001
v 1.820562 -12.975676 0.250001
v 1.823995 -13.106779 0.250001
v 1.820562 -12.975676 0.000001
v 1.823995 -13.106779 0.000001
v -1.949894 -12.975676 0.000001
v -1.953327 -13.106779 0.000001
v -1.970921 -13.778679 0.250001
v -1.974354 -13.909781 0.250001
v 1.841589 -13.778679 0.250001
v 1.845022 -13.909781 0.250001
v 1.841589 -13.778679 0.000001
v 1.845022 -13.909781 0.000001
v -1.970921 -13.778679 0.000001
v -1.974354 -13.909781 0.000001
v 7.127055 -12.251929 -2.509137
v 7.127055 -12.251929 -0.259137
v 6.246784 -16.809120 -2.509137
v 6.246784 -16.809120 -0.259137
v 6.309051 -19.894030 -2.509137
v 6.309051 -19.894030 -0.259136
v 8.230137 -23.324314 -2.509136
v 8.230137 -23.324314 -0.259136
v 8.586045 -25.733490 -2.509136
v 8.586045 -25.733490 -0.259136
v 8.108136 -28.075684 -2.509136
v 8.108136 -28.075684 -0.259136
v 6.401617 -29.746218 -2.509136
v 6.401617 -29.746218 -0.259136
v 4.051503 -30.662176 -2.509136
v 4.051503 -30.662176 -0.259136
v 0.343404 -31.008991 -2.509136
v 0.343404 -31.008991 -0.259136
v -2.827961 -30.471104 -2.509136
v -2.827961 -30.471104 -0.259136
v -5.201765 -29.528549 -2.509136
v -5.201765 -29.528549 -0.259136
v -6.615139 -28.267982 -2.509136
v -6.615139 -28.267982 -0.259136
v -7.733585 -26.744493 -2.509136
v -7.733585 -26.744493 -0.259136
v -8.508221 -25.024658 -2.509136
v -8.508221 -25.024658 -0.259136
v -8.905191 -23.183655 -2.509136
v -8.905191 -23.183655 -0.259136
v -8.631963 -21.551929 -2.509136
v -8.631963 -21.551929 -0.259136
v -6.859378 -17.914059 -2.509137
v -6.859378 -17.914059 -0.259137
v -6.049169 -15.824633 -2.509137
v -6.049169 -15.824633 -0.259137
v -6.056968 -14.028529 -2.509137
v -6.056968 -14.028529 -0.259137
v -7.485524 -9.263627 -2.509137
v -7.485524 -9.263627 -0.259137
v -7.316450 -6.791035 -2.509138
v -7.316450 -6.791035 -0.259137
v -6.141457 -4.859087 -2.509138
v -6.141457 -4.859087 -0.259138
v -4.659804 -4.901233 -2.509138
v -4.659804 -4.901233 -0.259138
v -2.665523 -9.701233 -2.509137
v -2.665523 -9.701233 -0.259137
v -1.602904 -9.736866 -2.509137
v -1.602904 -9.736866 -0.259137
v 1.327054 -12.657701 -2.509137
v 1.327054 -12.657701 -0.259137
v 2.582564 -13.663627 -2.509137
v 2.582564 -13.663627 -0.259137
v 3.508208 -13.595197 -2.509137
v 3.508208 -13.595197 -0.259137
v 4.982296 -11.591299 -2.509137
v 4.982296 -11.591299 -0.259137
v 6.163716 -10.980724 -2.509137
v 6.163716 -10.980724 -0.259137
v -0.006279 -19.518597 -0.259137
v -0.006279 -19.518597 -2.509137
v -2.674232 -18.030497 0.000001
v -2.674232 -19.057524 0.000001
v 2.217660 -18.030497 0.000001
v 2.217660 -19.057524 0.000001
v 2.217660 -18.030497 -0.249999
v 2.217660 -19.057524 -0.249999
v -2.674232 -18.030497 -0.249999
v -2.674232 -19.057524 -0.249999
v -2.674232 -22.814280 0.000002
v -2.674232 -23.841307 0.000002
v 2.217660 -22.814280 0.000002
v 2.217660 -23.841307 0.000002
v 2.217660 -22.814280 -0.249998
v 2.217660 -23.841307 -0.249998
v -2.674232 -22.814280 -0.249998
v -2.674232 -23.841307 -0.249998
v -2.205233 -26.493288 0.510103
v -2.205233 -26.689365 0.510103
v 1.637904 -26.493288 0.510103
v 1.637904 -26.689365 0.510103
v 1.637904 -26.493288 -0.249998
v 1.637904 -26.689365 -0.249998
v -2.205233 -26.493288 -0.249998
v -2.205233 -26.689365 -0.249998
v -2.342488 -26.306065 -0.129901
v -2.342488 -28.982534 -0.129901
v 1.814375 -26.306065 -0.129901
v 1.814375 -28.982534 -0.129901
v 1.814375 -26.306065 -0.249998
v 1.814375 -28.982534 -0.249998
v -2.342488 -26.306065 -0.249998
v -2.342488 -28.982534 -0.249998
v 7.877221 -24.957586 -0.269226
v 7.598615 -24.957586 -0.084750
v 7.557509 -24.957586 0.246750
v 7.737657 -25.387121 -0.269226
v 7.512259 -25.223362 -0.084750
v 7.479004 -25.199200 0.246750
v 7.372272 -25.652590 -0.269226
v 7.286178 -25.387619 -0.084750
v 7.273476 -25.348526 0.246750
v 6.920632 -25.652590 -0.269226
v 7.006726 -25.387619 -0.084750
v 7.019428 -25.348526 0.246750
v 6.555247 -25.387121 -0.269226
v 6.780643 -25.223362 -0.084750
v 6.813899 -25.199200 0.246750
v 6.415683 -24.957586 -0.269226
v 6.694288 -24.957586 -0.084750
v 6.735394 -24.957586 0.246750
v 6.555247 -24.528051 -0.269226
v 6.780643 -24.691811 -0.084750
v 6.813899 -24.715973 0.246750
v 6.920632 -24.262583 -0.269226
v 7.006726 -24.527554 -0.084750
v 7.019428 -24.566647 0.246750
v 7.372272 -24.262583 -0.269226
v 7.286178 -24.527554 -0.084750
v 7.273476 -24.566647 0.246750
v 7.737657 -24.528051 -0.269226
v 7.512259 -24.691811 -0.084750
v 7.479004 -24.715973 0.246750
v 7.146452 -24.957586 0.246750
v 7.288987 -27.222294 -0.269226
v 7.010381 -27.222294 -0.084750
v 6.969275 -27.222294 0.246750
v 7.149422 -27.651829 -0.269226
v 6.924025 -27.488070 -0.084750
v 6.890770 -27.463907 0.246750
v 6.784038 -27.917297 -0.269226
v 6.697944 -27.652327 -0.084750
v 6.685241 -27.613234 0.246750
v 6.332397 -27.917297 -0.269226
v 6.418491 -27.652327 -0.084750
v 6.431193 -27.613234 0.246750
v 5.967013 -27.651829 -0.269226
v 6.192409 -27.488070 -0.084750
v 6.225665 -27.463907 0.246750
v 5.827448 -27.222294 -0.269226
v 6.106054 -27.222294 -0.084750
v 6.147160 -27.222294 0.246750
v 5.967013 -26.792759 -0.269226
v 6.192409 -26.956518 -0.084750
v 6.225665 -26.980680 0.246750
v 6.332397 -26.527290 -0.269226
v 6.418491 -26.792261 -0.084750
v 6.431193 -26.831354 0.246750
v 6.784038 -26.527290 -0.269226
v 6.697944 -26.792261 -0.084750
v 6.685241 -26.831354 0.246750
v 7.149422 -26.792759 -0.269226
v 6.924025 -26.956518 -0.084750
v 6.890770 -26.980680 0.246750
v 6.558218 -27.222294 0.246750
v 5.788987 -28.869352 -0.269226
v 5.510381 -28.869352 -0.084750
v 5.469275 -28.869352 0.246750
v 5.649422 -29.298887 -0.269226
v 5.424025 -29.135128 -0.084750
v 5.390770 -29.110966 0.246750
v 5.284038 -29.564356 -0.269226
v 5.197944 -29.299385 -0.084750
v 5.185241 -29.260292 0.246750
v 4.832397 -29.564356 -0.269226
v 4.918491 -29.299385 -0.084750
v 4.931193 -29.260292 0.246750
v 4.467013 -29.298887 -0.269226
v 4.692409 -29.135128 -0.084750
v 4.725665 -29.110966 0.246750
v 4.327448 -28.869352 -0.269226
v 4.606054 -28.869352 -0.084750
v 4.647160 -28.869352 0.246750
v 4.467013 -28.439817 -0.269226
v 4.692409 -28.603577 -0.084750
v 4.725665 -28.627739 0.246750
v 4.832397 -28.174349 -0.269226
v 4.918491 -28.439320 -0.084750
v 4.931193 -28.478413 0.246750
v 5.284038 -28.174349 -0.269226
v 5.197944 -28.439320 -0.084750
v 5.185241 -28.478413 0.246750
v 5.649422 -28.439817 -0.269226
v 5.424025 -28.603577 -0.084750
v 5.390770 -28.627739 0.246750
v 5.058218 -28.869352 0.246750
v 0.665456 29.192156 -2.863119
v 0.665456 29.555847 -1.000183
v 0.494404 28.900387 -2.811671
v 0.494404 29.264076 -0.948736
v 0.152298 28.900387 -2.811671
v 0.152298 29.264076 -0.948736
v -0.018754 29.192156 -2.863119
v -0.018754 29.555847 -1.000183
v 0.152298 29.483931 -2.914566
v 0.152298 29.847620 -1.051631
v 0.494404 29.483931 -2.914566
v 0.494404 29.847620 -1.051631
v 0.323351 29.555847 -1.000183
v 0.323351 29.192156 -2.863119
v 0.139140 26.756054 -2.433568
v 0.139140 27.119743 -0.570633
v -0.031912 26.464279 -2.382121
v -0.031912 26.827965 -0.519186
v -0.374017 26.464279 -2.382121
v -0.374017 26.827965 -0.519186
v -0.545070 26.756054 -2.433568
v -0.545070 27.119743 -0.570633
v -0.374017 27.047825 -2.485015
v -0.374017 27.411514 -0.622080
v -0.031912 27.047825 -2.485015
v -0.031912 27.411514 -0.622080
v -0.202965 27.119743 -0.570633
v -0.202965 26.756054 -2.433568
v -0.387175 24.345867 -2.008586
v -0.387175 24.709558 -0.145651
v -0.558228 24.054092 -1.957140
v -0.558228 24.417782 -0.094205
v -0.900333 24.054092 -1.957140
v -0.900333 24.417782 -0.094205
v -1.071386 24.345867 -2.008586
v -1.071386 24.709558 -0.145651
v -0.900333 24.637638 -2.060034
v -0.900333 25.001326 -0.197099
v -0.558228 24.637638 -2.060034
v -0.558228 25.001326 -0.197099
v -0.729281 24.709558 -0.145651
v -0.729281 24.345867 -2.008586
v -0.834544 21.832012 -1.565327
v -0.834544 22.195702 0.297608
v -1.005596 21.540241 -1.513879
v -1.005596 21.903934 0.349056
v -1.347702 21.540241 -1.513879
v -1.347702 21.903934 0.349056
v -1.518754 21.832012 -1.565327
v -1.518754 22.195702 0.297608
v -1.347702 22.123781 -1.616774
v -1.347702 22.487471 0.246161
v -1.005596 22.123781 -1.616774
v -1.005596 22.487471 0.246161
v -1.176649 22.195702 0.297608
v -1.176649 21.832012 -1.565327
v -0.717013 19.495726 0.546637
v -0.659636 21.969158 0.096900
v -0.784891 19.506580 0.660330
v -0.696164 22.030033 0.212629
v -0.920646 19.506540 0.659923
v -0.796350 22.121645 0.212444
v -0.988524 19.495649 0.545825
v -0.860017 22.152378 0.096530
v -0.920646 19.484793 0.432130
v -0.823495 22.091497 -0.019201
v -0.784891 19.484833 0.432536
v -0.723304 21.999889 -0.019015
v -0.759826 22.060768 0.096714
v -0.852769 19.495686 0.546230
v -0.166554 19.496698 0.558070
v -0.193858 24.479330 -0.346251
v -0.234442 19.507570 0.671969
v -0.225322 24.542816 -0.230429
v -0.370217 19.507570 0.671966
v -0.317921 24.642115 -0.230429
v -0.438105 19.496698 0.558070
v -0.379057 24.677931 -0.346251
v -0.370217 19.485825 0.444172
v -0.347589 24.614449 -0.462074
v -0.234442 19.485825 0.444174
v -0.254990 24.515150 -0.462074
v -0.286457 24.578630 -0.346251
v -0.302330 19.496696 0.558071
v 0.361464 19.496738 0.555335
v 0.331424 26.855606 -0.765662
v 0.283877 19.509165 0.685503
v 0.303243 26.931513 -0.633295
v 0.128705 19.509165 0.685503
v 0.209858 27.055443 -0.633294
v 0.051119 19.496738 0.555335
v 0.144649 27.103447 -0.765662
v 0.128705 19.484314 0.425166
v 0.172826 27.027538 -0.898031
v 0.283877 19.484314 0.425166
v 0.266214 26.903608 -0.898031
v 0.238036 26.979527 -0.765662
v 0.206291 19.496738 0.555333
v 0.838730 19.496159 0.543068
v 0.848512 29.382305 -1.187425
v 0.770842 19.507030 0.656933
v 0.820466 29.447392 -1.071617
v 0.635067 19.507025 0.656871
v 0.733317 29.551504 -1.071644
v 0.567179 19.496149 0.542947
v 0.674199 29.590523 -1.187481
v 0.635067 19.485279 0.429079
v 0.702231 29.525423 -1.303291
v 0.770842 19.485283 0.429141
v 0.789393 29.421322 -1.303261
v 0.761352 29.486410 -1.187453
v 0.702955 19.496155 0.543006
v -1.725062 -28.396248 -0.180683
v -1.725062 -26.570309 0.585179
v -1.793724 -28.442719 -0.071210
v -1.793724 -26.616777 0.694650
v -1.931048 -28.442719 -0.071210
v -1.931048 -26.616777 0.694650
v -1.999710 -28.396248 -0.180683
v -1.999710 -26.570309 0.585179
v -1.931048 -28.349775 -0.290156
v -1.931048 -26.523834 0.475704
v -1.793724 -28.349775 -0.290156
v -1.793724 -26.523834 0.475704
v -1.862386 -26.570309 0.585179
v -1.862386 -28.396248 -0.180683
v -0.712867 -28.396248 -0.180683
v -0.712867 -26.570309 0.585179
v -0.781529 -28.442719 -0.071210
v -0.781529 -26.616777 0.694650
v -0.918853 -28.442719 -0.071210
v -0.918853 -26.616777 0.694650
v -0.987515 -28.396248 -0.180683
v -0.987515 -26.570309 0.585179
v -0.918853 -28.349775 -0.290156
v -0.918853 -26.523834 0.475704
v -0.781529 -28.349775 -0.290156
v -0.781529 -26.523834 0.475704
v -0.850191 -26.570309 0.585179
v -0.850191 -28.396248 -0.180683
v 0.482255 -28.396248 -0.180683
v 0.482255 -26.570309 0.585179
v 0.413593 -28.442719 -0.071210
v 0.413593 -26.616777 0.694650
v 0.276269 -28.442719 -0.071210
v 0.276269 -26.616777 0.694650
v 0.207607 -28.396248 -0.180683
v 0.207607 -26.570309 0.585179
v 0.276269 -28.349775 -0.290156
v 0.276269 -26.523834 0.475704
v 0.413593 -28.349775 -0.290156
v 0.413593 -26.523834 0.475704
v 0.344931 -26.570309 0.585179
v 0.344931 -28.396248 -0.180683
v 1.506646 -28.396248 -0.180683
v 1.506646 -26.570309 0.585179
v 1.437983 -28.442719 -0.071210
v 1.437983 -26.616777 0.694650
v 1.300659 -28.442719 -0.071210
v 1.300659 -26.616777 0.694650
v 1.231997 -28.396248 -0.180683
v 1.231997 -26.570309 0.585179
v 1.300659 -28.349775 -0.290156
v 1.300659 -26.523834 0.475704
v 1.437983 -28.349775 -0.290156
v 1.437983 -26.523834 0.475704
v 1.369321 -26.570309 0.585179
v 1.369321 -28.396248 -0.180683
vn -0.0001 -0.4474 0.8944
vn -0.0000 -1.0000 -0.0000
vn -0.0000 0.9848 -0.1737
vn -0.9657 0.0235 -0.2587
vn -0.8658 0.0243 -0.4999
vn -0.0000 0.9848 -0.1736
vn -0.4999 0.0243 -0.8658
vn -0.0000 0.0243 -0.9997
vn 0.4999 0.0243 -0.8658
vn 0.8658 0.0243 -0.4999
vn -0.0000 -0.7070 0.7072
vn 0.9657 0.0235 -0.2587
vn -0.4247 -0.8336 -0.3532
vn -0.3656 -0.7725 -0.5191
vn -0.5693 -0.8192 -0.0697
vn -0.6183 -0.7860 -0.0006
vn -0.1785 -0.5569 -0.8111
vn -0.2677 -0.4423 -0.8560
vn -0.0839 -0.2107 -0.9740
vn 0.0021 -0.1831 -0.9831
vn 0.0859 -0.1753 -0.9808
vn 0.3132 -0.3063 -0.8989
vn 0.6315 -0.3180 -0.7071
vn 0.8976 -0.2212 -0.3814
vn 0.9687 -0.0955 -0.2291
vn 0.9627 -0.0822 -0.2579
vn -0.9528 0.1260 -0.2761
vn -0.9580 0.1530 -0.2427
vn -0.9550 0.1286 -0.2673
vn -0.9514 0.1234 -0.2822
vn -0.0000 -0.1736 -0.9848
vn 0.8919 -0.4210 -0.1649
vn 0.7833 -0.6180 -0.0674
vn 0.7871 -0.6096 -0.0943
vn 0.9539 -0.1987 -0.2252
vn -0.9534 0.1324 -0.2712
vn -0.9611 0.1535 -0.2296
vn 0.9596 0.0924 -0.2659
vn 0.9593 0.1627 -0.2309
vn -0.9626 0.1818 -0.2009
vn -0.9630 0.1880 -0.1929
vn 0.9804 -0.1224 -0.1545
vn 0.8566 -0.5138 -0.0484
vn -0.9612 0.1730 -0.2148
vn -0.9618 0.1461 -0.2315
vn 0.8045 -0.5916 -0.0533
vn 0.9306 -0.3392 -0.1374
vn -0.8802 0.3739 -0.2922
vn -0.8595 0.4331 -0.2713
vn 0.9642 0.1366 -0.2272
vn 0.8488 0.4305 -0.3068
vn -0.7539 0.5697 -0.3272
vn -0.7783 0.5470 -0.3082
vn -0.7003 0.5849 -0.4092
vn 0.7293 0.5825 -0.3589
vn 0.7003 0.5850 -0.4091
vn 0.7710 0.5698 -0.2844
vn -0.0000 0.1736 0.9848
vn -0.0000 0.1417 0.9899
vn -0.0000 0.0732 0.9973
vn -0.0000 0.0366 0.9993
vn -0.0000 -0.4472 0.8944
vn -0.0000 -0.7072 0.7070
vn -0.6588 0.6762 0.3297
vn -0.4100 -0.3994 0.8200
vn 0.4064 0.4172 0.8129
vn 0.6743 -0.6569 0.3374
vn 0.6978 0.7163 -0.0000
vn 0.7163 -0.6978 -0.0000
vn -0.6978 0.7163 -0.0000
vn -0.7163 -0.6978 -0.0000
vn -0.6588 0.6763 0.3297
vn 0.4064 0.4173 0.8128
vn 0.6743 -0.6569 0.3375
vn 0.6743 -0.6568 0.3375
vn -0.0000 -0.0000 -1.0000
vn -0.0000 -0.0000 1.0000
vn 0.9739 0.2268 -0.0000
vn 0.9739 0.2269 -0.0000
vn 0.9964 -0.0852 -0.0000
vn 0.9650 0.2622 -0.0000
vn 0.9465 0.3227 -0.0000
vn 0.9996 -0.0273 -0.0000
vn 0.8782 -0.4783 -0.0000
vn 0.5423 -0.8402 -0.0000
vn 0.2304 -0.9731 -0.0000
vn -0.0374 -0.9993 -0.0000
vn -0.2696 -0.9630 -0.0000
vn -0.5254 -0.8509 -0.0000
vn -0.7399 -0.6727 -0.0000
vn -0.8637 -0.5040 -0.0000
vn -0.9499 -0.3125 -0.0000
vn -0.9997 -0.0232 -0.0000
vn -0.9524 0.3047 -0.0000
vn -0.9165 0.4001 -0.0000
vn -0.9833 0.1818 -0.0000
vn -0.9891 -0.1473 -0.0000
vn -0.9938 -0.1113 -0.0000
vn -0.9531 0.3025 -0.0000
vn -0.4777 0.8785 -0.0000
vn -0.4776 0.8786 -0.0000
vn 0.5669 0.8238 -0.0000
vn 0.5690 0.8223 -0.0000
vn 0.3974 0.9176 -0.0000
vn 0.6666 0.7454 -0.0000
vn 0.2963 0.9551 -0.0000
vn -0.4840 0.8751 -0.0000
vn -0.6494 0.7604 -0.0000
vn -0.6494 0.7605 -0.0000
vn 0.2208 0.9753 -0.0000
vn -0.6666 0.6666 0.3335
vn -0.4084 -0.4084 0.8164
vn 0.4083 0.4084 0.8164
vn 0.6666 -0.6666 0.3335
vn 0.7071 0.7071 -0.0000
vn 0.7071 -0.7071 -0.0000
vn -0.7071 0.7071 -0.0000
vn -0.7071 -0.7071 -0.0000
vn -0.4084 -0.4083 0.8164
vn 0.4084 0.4084 0.8164
vn 0.8371 0.0001 0.5471
vn 0.5224 -0.3795 0.7636
vn 0.5521 -0.0000 0.8338
vn 0.8460 -0.0000 0.5332
vn 0.6844 -0.4973 0.5332
vn 0.4466 -0.3245 0.8338
vn 0.2587 -0.7961 0.5471
vn 0.1706 -0.5251 0.8338
vn 0.2614 -0.8046 0.5332
vn -0.1995 -0.6141 0.7636
vn -0.2614 -0.8046 0.5332
vn -0.1706 -0.5251 0.8338
vn -0.6772 -0.4920 0.5471
vn -0.4466 -0.3245 0.8338
vn -0.6844 -0.4972 0.5332
vn -0.6457 -0.0000 0.7636
vn -0.8460 -0.0000 0.5332
vn -0.5521 -0.0000 0.8338
vn -0.6772 0.4920 0.5471
vn -0.4466 0.3245 0.8338
vn -0.6844 0.4972 0.5332
vn -0.1995 0.6141 0.7636
vn -0.2614 0.8046 0.5332
vn -0.1706 0.5251 0.8338
vn 0.2587 0.7961 0.5471
vn 0.1706 0.5251 0.8338
vn 0.2614 0.8046 0.5332
vn 0.5224 0.3795 0.7636
vn 0.6844 0.4973 0.5332
vn 0.4466 0.3245 0.8338
vn -0.6844 -0.4973 0.5332
vn -0.6844 0.4973 0.5332
vn 0.6547 -0.1313 -0.7444
vn 0.4360 -0.8286 -0.3511
vn 0.8660 0.0868 0.4924
vn 0.3249 -0.4220 0.8464
vn -0.3300 -0.6933 -0.6407
vn -0.4300 -0.6449 0.6318
vn -0.8660 -0.0868 -0.4924
vn -0.6547 0.1313 0.7444
vn -0.3249 0.4221 -0.8464
vn -0.4360 0.8286 0.3511
vn 0.4301 0.6449 -0.6318
vn 0.3300 0.6932 0.6407
vn -0.3300 -0.6932 -0.6407
vn 0.6548 -0.1313 -0.7444
vn 0.4360 -0.8286 -0.3512
vn 0.3249 -0.4221 0.8464
vn -0.0000 0.1737 0.9848
vn -0.6548 0.1313 0.7444
vn 0.6445 -0.7611 0.0735
vn 0.5070 -0.4041 0.7613
vn -0.0000 -0.9955 0.0950
vn 0.9593 0.2608 -0.1081
vn 0.6649 0.7268 -0.1725
vn 0.7917 0.5325 0.2995
vn -0.3398 -0.6692 0.6608
vn -0.0705 0.6140 0.7862
vn -0.8866 -0.4524 0.0967
vn -0.2903 0.9532 -0.0851
vn -0.3161 -0.8179 -0.4808
vn -0.1901 0.3147 -0.9300
vn 0.3837 -0.6261 -0.6788
vn 0.6848 0.3945 -0.6127
vn 0.6536 -0.7534 0.0719
vn 0.5260 -0.3939 0.7538
vn 0.9611 0.2519 -0.1136
vn 0.7204 0.6718 -0.1725
vn 0.8246 0.4949 0.2743
vn -0.3366 -0.6741 0.6575
vn -0.0314 0.5866 0.8093
vn -0.8753 -0.4719 0.1059
vn -0.2705 0.9601 -0.0705
vn -0.3141 -0.8222 -0.4747
vn -0.1785 0.2725 -0.9454
vn 0.3826 -0.6229 -0.6824
vn 0.7111 0.3633 -0.6019
vn 0.6531 -0.7538 0.0719
vn 0.5407 -0.3991 0.7405
vn 0.9696 0.2150 -0.1164
vn 0.7866 0.5928 -0.1725
vn 0.8662 0.4321 0.2511
vn -0.3365 -0.6743 0.6573
vn 0.0194 0.5557 0.8312
vn -0.8768 -0.4675 0.1125
vn -0.2225 0.9732 -0.0577
vn -0.3144 -0.8218 -0.4753
vn -0.1585 0.2361 -0.9587
vn 0.3790 -0.6265 -0.6811
vn 0.7443 0.3118 -0.5906
vn 0.6516 -0.7552 0.0722
vn 0.5305 -0.4004 0.7471
vn 0.9663 0.2304 -0.1146
vn 0.7553 0.6323 -0.1725
vn 0.8466 0.4618 0.2645
vn -0.3363 -0.6751 0.6566
vn -0.0077 0.5686 0.8226
vn -0.8759 -0.4700 0.1091
vn -0.2467 0.9669 -0.0646
vn -0.3147 -0.8211 -0.4762
vn -0.1650 0.2578 -0.9520
vn 0.3823 -0.6232 -0.6822
vn 0.7289 0.3375 -0.5956
vn 0.6548 -0.6957 -0.2953
vn 0.4337 -0.7516 0.4970
vn -0.0000 -0.9205 -0.3908
vn 0.8660 0.4603 0.1954
vn -0.0000 0.9205 0.3908
vn 0.3268 0.4755 0.8167
vn -0.3274 -0.9169 0.2283
vn -0.4323 0.1699 0.8856
vn -0.8660 -0.4603 -0.1954
vn -0.6548 0.6957 0.2954
vn -0.3274 -0.4756 -0.8164
vn -0.4337 0.7516 -0.4970
vn 0.4323 -0.1699 -0.8856
vn 0.3280 0.9168 -0.2280
vn -0.0000 -0.9205 -0.3907
vt 0.622373 0.732646
vt 0.630440 0.732646
vt 0.682583 0.732646
vt 0.692170 0.007791
vt 0.716598 0.007791
vt 0.695442 0.008852
vt 0.649055 0.184798
vt 0.653547 0.184798
vt 0.652478 0.732646
vt 0.702745 0.013931
vt 0.668035 0.170658
vt 0.713737 0.013931
vt 0.683123 0.170658
vt 0.712688 0.732646
vt 0.724731 0.013931
vt 0.698210 0.170658
vt 0.734726 0.732646
vt 0.737756 0.008852
vt 0.711618 0.184798
vt 0.742792 0.732646
vt 0.741029 0.007791
vt 0.716110 0.184798
vt 0.623180 0.158938
vt 0.608664 0.168910
vt 0.641171 0.158938
vt 0.665746 0.158938
vt 0.690321 0.158938
vt 0.708311 0.158938
vt 0.717886 0.168910
vt 0.632274 0.136690
vt 0.616745 0.144191
vt 0.655234 0.136690
vt 0.686597 0.136690
vt 0.717963 0.136690
vt 0.740923 0.136690
vt 0.756144 0.144191
vt 0.644111 0.104176
vt 0.631229 0.108063
vt 0.663796 0.104176
vt 0.690687 0.104176
vt 0.717578 0.104176
vt 0.737265 0.104176
vt 0.750746 0.108063
vt 0.660259 0.060437
vt 0.652624 0.059465
vt 0.671457 0.060437
vt 0.686751 0.060437
vt 0.702047 0.060437
vt 0.713245 0.060437
vt 0.720606 0.059465
vt 0.668703 0.044935
vt 0.659496 0.042240
vt 0.686075 0.044935
vt 0.709800 0.044935
vt 0.733531 0.044935
vt 0.750903 0.044935
vt 0.383880 0.960565
vt 0.339529 0.943340
vt 0.334976 0.940475
vt 0.764956 0.042240
vt 0.674693 0.028879
vt 0.666505 0.024400
vt 0.691197 0.028879
vt 0.713736 0.028879
vt 0.736279 0.028879
vt 0.752783 0.028879
vt 0.766693 0.024400
vt 0.335522 0.995014
vt 0.311094 0.995014
vt 0.285429 0.978405
vt 0.385616 0.978405
vt 0.359952 0.995014
vt 0.278420 0.960565
vt 0.271548 0.943340
vt 0.250153 0.894742
vt 0.369670 0.894742
vt 0.235669 0.858614
vt 0.375068 0.858614
vt 0.227588 0.833895
vt 0.336810 0.833895
vt 0.267979 0.818007
vt 0.335033 0.818007
vt 0.241297 0.270159
vt 0.361716 0.270159
vt 0.268004 0.810438
vt 0.267799 0.806523
vt 0.333849 0.810438
vt 0.334054 0.806523
vt 0.265734 0.767105
vt 0.265639 0.765278
vt 0.336118 0.767105
vt 0.336214 0.765278
vt 0.263670 0.727688
vt 0.263574 0.725860
vt 0.338182 0.727688
vt 0.338278 0.725860
vt 0.261797 0.691925
vt 0.261688 0.689837
vt 0.340055 0.691925
vt 0.340165 0.689837
vt 0.259951 0.656684
vt 0.259856 0.654857
vt 0.341901 0.656684
vt 0.341997 0.654857
vt 0.258229 0.623793
vt 0.258120 0.621704
vt 0.343624 0.623793
vt 0.343733 0.621704
vt 0.256629 0.593251
vt 0.256534 0.591423
vt 0.345223 0.593251
vt 0.345319 0.591423
vt 0.255084 0.563753
vt 0.254975 0.561664
vt 0.346768 0.563753
vt 0.346877 0.561664
vt 0.253635 0.536082
vt 0.253526 0.533994
vt 0.348217 0.536082
vt 0.348326 0.533994
vt 0.252268 0.509978
vt 0.252173 0.508151
vt 0.349584 0.509978
vt 0.349680 0.508151
vt 0.250983 0.485440
vt 0.250874 0.483352
vt 0.350869 0.485440
vt 0.350979 0.483352
vt 0.249794 0.462729
vt 0.249671 0.460380
vt 0.352059 0.462729
vt 0.352182 0.460380
vt 0.248659 0.441063
vt 0.248522 0.438452
vt 0.353193 0.441063
vt 0.353330 0.438452
vt 0.247579 0.420440
vt 0.247483 0.418613
vt 0.354273 0.420440
vt 0.354369 0.418613
vt 0.246540 0.400601
vt 0.246431 0.398513
vt 0.355312 0.400601
vt 0.355422 0.398513
vt 0.245583 0.382328
vt 0.245460 0.379978
vt 0.356269 0.382328
vt 0.356393 0.379978
vt 0.244667 0.364838
vt 0.244558 0.362750
vt 0.357185 0.364838
vt 0.357295 0.362750
vt 0.243806 0.348392
vt 0.243696 0.346304
vt 0.358047 0.348392
vt 0.358156 0.346304
vt 0.242985 0.332730
vt 0.242903 0.331163
vt 0.358867 0.332730
vt 0.358949 0.331163
vt 0.242220 0.318111
vt 0.242124 0.316284
vt 0.359633 0.318111
vt 0.359728 0.316284
vt 0.241523 0.304798
vt 0.241413 0.302710
vt 0.360330 0.304798
vt 0.360439 0.302710
vt 0.240866 0.292268
vt 0.240757 0.290180
vt 0.360986 0.292268
vt 0.361095 0.290180
vt 0.240196 0.279477
vt 0.240087 0.277389
vt 0.361656 0.279477
vt 0.361765 0.277389
vt 0.867011 0.734047
vt 0.844296 0.792846
vt 0.682935 0.827805
vt 0.530041 0.303797
vt 0.302786 0.188045
vt 0.501997 0.231205
vt 0.911118 0.699008
vt 0.883074 0.771600
vt 0.845903 0.832649
vt 0.503981 0.182065
vt 0.885057 0.820740
vt 0.895476 0.876909
vt 0.565183 0.127424
vt 0.946260 0.875381
vt 0.904661 0.907993
vt 0.576522 0.089048
vt 0.957598 0.913757
vt 0.892328 0.938213
vt 0.561297 0.051739
vt 0.942373 0.951066
vt 0.848291 0.959768
vt 0.506930 0.025129
vt 0.888007 0.977676
vt 0.787646 0.971586
vt 0.432060 0.010538
vt 0.813136 0.992267
vt 0.691958 0.976061
vt 0.313927 0.005014
vt 0.695003 0.997791
vt 0.610121 0.969121
vt 0.212893 0.013582
vt 0.593969 0.989223
vt 0.548865 0.956959
vt 0.137268 0.028596
vt 0.518344 0.974209
vt 0.512392 0.940695
vt 0.092240 0.048676
vt 0.473316 0.954129
vt 0.483531 0.921038
vt 0.056609 0.072943
vt 0.437685 0.929861
vt 0.463541 0.898848
vt 0.031930 0.100339
vt 0.413006 0.902466
vt 0.453297 0.875094
vt 0.019283 0.129664
vt 0.400360 0.873141
vt 0.460348 0.854040
vt 0.027988 0.155656
vt 0.409064 0.847149
vt 0.506090 0.807103
vt 0.084459 0.213604
vt 0.465535 0.789201
vt 0.526997 0.780144
vt 0.110271 0.246887
vt 0.491347 0.755918
vt 0.526796 0.756969
vt 0.110023 0.275497
vt 0.491099 0.727308
vt 0.489932 0.695490
vt 0.064511 0.351398
vt 0.445588 0.651407
vt 0.494295 0.663587
vt 0.069898 0.390784
vt 0.450974 0.612021
vt 0.524616 0.638660
vt 0.107331 0.421558
vt 0.488407 0.581247
vt 0.562850 0.639204
vt 0.154534 0.420887
vt 0.535610 0.581919
vt 0.614313 0.701136
vt 0.218068 0.344427
vt 0.599144 0.658378
vt 0.641734 0.701596
vt 0.251921 0.343859
vt 0.632997 0.658946
vt 0.717342 0.739282
vt 0.345264 0.297333
vt 0.726340 0.705472
vt 0.749740 0.752261
vt 0.385262 0.281310
vt 0.766338 0.721495
vt 0.773626 0.751378
vt 0.414751 0.282400
vt 0.795828 0.720405
vt 0.811665 0.725523
vt 0.461713 0.314320
vt 0.842789 0.688485
vt 0.842152 0.717645
vt 0.499351 0.324046
vt 0.880427 0.678759
vt 0.217790 0.211749
vt 0.217790 0.195390
vt 0.373637 0.211749
vt 0.373637 0.195390
vt 0.217790 0.135548
vt 0.217790 0.119189
vt 0.373637 0.135548
vt 0.373637 0.119189
vt 0.232732 0.076945
vt 0.232732 0.073822
vt 0.355167 0.076945
vt 0.355167 0.073822
vt 0.228359 0.079927
vt 0.228359 0.037294
vt 0.360789 0.079927
vt 0.360789 0.037294
vt 0.187932 0.756436
vt 0.125759 0.756436
vt 0.176058 0.738164
vt 0.236290 0.756436
vt 0.194150 0.756436
vt 0.181089 0.736336
vt 0.215180 0.723952
vt 0.144972 0.726871
vt 0.159915 0.703875
vt 0.146893 0.723914
vt 0.106547 0.726871
vt 0.104625 0.723914
vt 0.091604 0.703875
vt 0.075460 0.738164
vt 0.036338 0.723952
vt 0.070430 0.736336
vt 0.063586 0.756436
vt 0.057369 0.756436
vt 0.015229 0.756436
vt 0.075460 0.774708
vt 0.036338 0.788919
vt 0.070430 0.776535
vt 0.106547 0.786000
vt 0.104625 0.788957
vt 0.091604 0.808995
vt 0.144972 0.786000
vt 0.159915 0.808995
vt 0.146893 0.788957
vt 0.176058 0.774708
vt 0.181089 0.776535
vt 0.215180 0.788919
vt 0.188586 0.756462
vt 0.126413 0.756462
vt 0.176712 0.738190
vt 0.236943 0.756462
vt 0.194803 0.756462
vt 0.181742 0.736362
vt 0.215833 0.723978
vt 0.145625 0.726897
vt 0.160568 0.703902
vt 0.147546 0.723940
vt 0.107200 0.726897
vt 0.105279 0.723940
vt 0.092257 0.703902
vt 0.076113 0.738190
vt 0.036992 0.723978
vt 0.071083 0.736362
vt 0.064239 0.756462
vt 0.058022 0.756462
vt 0.015883 0.756462
vt 0.076113 0.774734
vt 0.036992 0.788945
vt 0.071083 0.776561
vt 0.107200 0.786027
vt 0.105279 0.788983
vt 0.092257 0.809022
vt 0.145625 0.786027
vt 0.160568 0.809022
vt 0.147546 0.788983
vt 0.176712 0.774734
vt 0.181742 0.776561
vt 0.215833 0.788945
vt 0.188077 0.756768
vt 0.125903 0.756768
vt 0.176203 0.738496
vt 0.236434 0.756768
vt 0.194294 0.756768
vt 0.181232 0.736668
vt 0.215324 0.724284
vt 0.145116 0.727203
vt 0.160059 0.704208
vt 0.147037 0.724246
vt 0.106691 0.727203
vt 0.104769 0.724246
vt 0.091748 0.704208
vt 0.075604 0.738496
vt 0.036482 0.724284
vt 0.070574 0.736668
vt 0.063730 0.756768
vt 0.057513 0.756768
vt 0.015373 0.756768
vt 0.075604 0.775040
vt 0.036482 0.789252
vt 0.070574 0.776867
vt 0.106691 0.786333
vt 0.104769 0.789289
vt 0.091748 0.809328
vt 0.145116 0.786333
vt 0.160059 0.809328
vt 0.147037 0.789289
vt 0.176203 0.775040
vt 0.181232 0.776867
vt 0.215324 0.789252
vt 0.895371 0.622224
vt 0.874780 0.604663
vt 0.854190 0.622224
vt 0.895371 0.644113
vt 0.854190 0.644113
vt 0.874780 0.626552
vt 0.833600 0.604663
vt 0.833600 0.626552
vt 0.813009 0.622224
vt 0.813009 0.644113
vt 0.833600 0.639785
vt 0.833600 0.661675
vt 0.874780 0.639785
vt 0.874780 0.661675
vt 0.898128 0.559786
vt 0.877538 0.542224
vt 0.856947 0.559786
vt 0.898128 0.581675
vt 0.856947 0.581675
vt 0.877538 0.564114
vt 0.836357 0.542224
vt 0.836357 0.564114
vt 0.815766 0.559786
vt 0.815766 0.581675
vt 0.836357 0.577346
vt 0.836357 0.599236
vt 0.877538 0.577346
vt 0.877538 0.599236
vt 0.903015 0.497830
vt 0.882425 0.480269
vt 0.861834 0.497830
vt 0.903015 0.519720
vt 0.861834 0.519720
vt 0.882425 0.502159
vt 0.841243 0.480269
vt 0.841243 0.502159
vt 0.820653 0.497830
vt 0.820653 0.519720
vt 0.841243 0.515391
vt 0.841243 0.537281
vt 0.882425 0.515391
vt 0.882425 0.537281
vt 0.904526 0.435893
vt 0.883936 0.418333
vt 0.863345 0.435893
vt 0.904526 0.457783
vt 0.863345 0.457783
vt 0.883936 0.440222
vt 0.842754 0.418333
vt 0.842754 0.440222
vt 0.822164 0.435893
vt 0.822164 0.457783
vt 0.842754 0.453454
vt 0.842754 0.475344
vt 0.883936 0.453454
vt 0.883936 0.475344
vt 0.442917 0.442571
vt 0.440826 0.442571
vt 0.438736 0.442571
vt 0.446024 0.464511
vt 0.441842 0.464520
vt 0.443933 0.464594
vt 0.436645 0.442571
vt 0.439751 0.464603
vt 0.434555 0.442571
vt 0.437661 0.464529
vt 0.439751 0.464446
vt 0.443933 0.464437
vt 0.479119 0.442571
vt 0.477028 0.442571
vt 0.474937 0.442571
vt 0.479119 0.485995
vt 0.474937 0.485995
vt 0.477028 0.486074
vt 0.472847 0.442571
vt 0.472847 0.486074
vt 0.470756 0.442571
vt 0.470756 0.485995
vt 0.472847 0.485917
vt 0.477028 0.485917
vt 0.514962 0.442571
vt 0.512572 0.442571
vt 0.510183 0.442571
vt 0.514962 0.506586
vt 0.510183 0.506586
vt 0.512572 0.506676
vt 0.507793 0.442571
vt 0.507793 0.506676
vt 0.505404 0.442571
vt 0.505404 0.506586
vt 0.507793 0.506496
vt 0.512572 0.506496
vt 0.549905 0.442571
vt 0.547815 0.442571
vt 0.545723 0.442571
vt 0.551704 0.527470
vt 0.547522 0.527471
vt 0.549613 0.527549
vt 0.543633 0.442571
vt 0.545431 0.527550
vt 0.541541 0.442571
vt 0.543340 0.527472
vt 0.545431 0.527393
vt 0.549613 0.527392
vt 0.442654 0.374621
vt 0.440539 0.373905
vt 0.438425 0.374621
vt 0.442654 0.437135
vt 0.438425 0.437135
vt 0.440539 0.436419
vt 0.436310 0.373905
vt 0.436310 0.436419
vt 0.434195 0.374621
vt 0.434195 0.437135
vt 0.436310 0.375336
vt 0.436310 0.437850
vt 0.440539 0.375336
vt 0.440539 0.437850
vt 0.485431 0.374621
vt 0.483316 0.373905
vt 0.481201 0.374621
vt 0.485431 0.437135
vt 0.481201 0.437135
vt 0.483316 0.436419
vt 0.479087 0.373905
vt 0.479087 0.436419
vt 0.476972 0.374621
vt 0.476972 0.437135
vt 0.479087 0.375336
vt 0.479087 0.437850
vt 0.483316 0.375336
vt 0.483316 0.437850
vt 0.518078 0.374621
vt 0.515963 0.373905
vt 0.513849 0.374621
vt 0.518078 0.437135
vt 0.513849 0.437135
vt 0.515963 0.436419
vt 0.511734 0.373905
vt 0.511734 0.436419
vt 0.509620 0.374621
vt 0.509620 0.437135
vt 0.511734 0.375336
vt 0.511734 0.437850
vt 0.515963 0.375336
vt 0.515963 0.437850
vt 0.552013 0.374621
vt 0.549898 0.373905
vt 0.547783 0.374621
vt 0.552013 0.437135
vt 0.547783 0.437135
vt 0.549898 0.436419
vt 0.545669 0.373905
vt 0.545669 0.436419
vt 0.543554 0.374621
vt 0.543554 0.437135
vt 0.545669 0.375336
vt 0.545669 0.437850
vt 0.549898 0.375336
vt 0.549898 0.437850
s 1
f 3/1/1 5/2/2 15/3/2
f 60/4/3 59/5/3 61/6/3
f 3/1/4 4/7/4 5/2/5
f 4/7/4 6/8/5 5/2/5
f 5/2/2 7/9/2 15/3/2
f 61/6/3 59/5/3 62/10/6
f 5/2/5 6/8/5 8/11/7
f 5/2/5 8/11/7 7/9/7
f 7/9/2 9/3/2 15/3/2
f 62/10/6 59/5/3 63/12/6
f 7/9/7 8/11/7 9/3/8
f 8/11/7 10/13/8 9/3/8
f 9/3/2 11/14/2 15/3/2
f 63/12/6 59/5/3 64/15/6
f 9/3/8 10/13/8 12/16/9
f 9/3/8 12/16/9 11/14/9
f 11/14/2 13/17/2 15/3/2
f 64/15/6 59/5/3 65/18/3
f 11/14/9 12/16/9 13/17/10
f 12/16/9 14/19/10 13/17/10
f 13/17/2 1/20/11 15/3/2
f 65/18/3 59/5/3 58/21/3
f 13/17/10 14/19/10 2/22/12
f 13/17/10 2/22/12 1/20/12
f 18/23/13 6/8/14 4/7/15
f 18/23/13 4/7/15 17/24/16
f 19/25/17 8/11/18 6/8/14
f 19/25/17 6/8/14 18/23/13
f 20/26/19 10/13/20 8/11/18
f 20/26/19 8/11/18 19/25/17
f 21/27/21 12/16/22 10/13/20
f 21/27/21 10/13/20 20/26/19
f 22/28/23 14/19/24 12/16/22
f 22/28/23 12/16/22 21/27/21
f 16/29/25 2/22/26 14/19/24
f 16/29/25 14/19/24 22/28/23
f 25/30/27 18/23/28 17/24/29
f 25/30/27 17/24/29 24/31/30
f 26/32/31 19/25/31 18/23/31
f 26/32/31 18/23/31 25/30/31
f 27/33/31 20/26/31 19/25/31
f 27/33/31 19/25/31 26/32/31
f 28/34/31 21/27/31 20/26/31
f 28/34/31 20/26/31 27/33/31
f 29/35/31 22/28/31 21/27/31
f 29/35/31 21/27/31 28/34/31
f 23/36/32 16/29/33 22/28/34
f 23/36/32 22/28/34 29/35/35
f 32/37/36 25/30/27 24/31/30
f 32/37/36 24/31/30 31/38/37
f 33/39/31 26/32/31 25/30/31
f 33/39/31 25/30/31 32/37/31
f 34/40/31 27/33/31 26/32/31
f 34/40/31 26/32/31 33/39/31
f 35/41/31 28/34/31 27/33/31
f 35/41/31 27/33/31 34/40/31
f 36/42/31 29/35/31 28/34/31
f 36/42/31 28/34/31 35/41/31
f 30/43/38 23/36/32 29/35/35
f 30/43/38 29/35/35 36/42/39
f 39/44/40 32/37/36 31/38/37
f 39/44/40 31/38/37 38/45/41
f 40/46/31 33/39/31 32/37/31
f 40/46/31 32/37/31 39/44/31
f 41/47/31 34/40/31 33/39/31
f 41/47/31 33/39/31 40/46/31
f 42/48/31 35/41/31 34/40/31
f 42/48/31 34/40/31 41/47/31
f 43/49/31 36/42/31 35/41/31
f 43/49/31 35/41/31 42/48/31
f 37/50/42 30/43/38 36/42/39
f 37/50/42 36/42/39 43/49/43
f 46/51/44 39/44/40 38/45/41
f 46/51/44 38/45/41 45/52/45
f 47/53/31 40/46/31 39/44/31
f 47/53/31 39/44/31 46/51/31
f 48/54/31 41/47/31 40/46/31
f 48/54/31 40/46/31 47/53/31
f 49/55/31 42/48/31 41/47/31
f 49/55/31 41/47/31 48/54/31
f 50/56/31 43/49/31 42/48/31
f 50/56/31 42/48/31 49/55/31
f 44/57/46 37/58/42 43/59/43
f 44/60/46 43/49/43 50/56/47
f 53/61/48 46/51/44 45/52/45
f 53/61/48 45/52/45 52/62/49
f 54/63/31 47/53/31 46/51/31
f 54/63/31 46/51/31 53/61/31
f 55/64/31 48/54/31 47/53/31
f 55/64/31 47/53/31 54/63/31
f 56/65/31 49/55/31 48/54/31
f 56/65/31 48/54/31 55/64/31
f 57/66/31 50/56/31 49/55/31
f 57/66/31 49/55/31 56/65/31
f 51/67/50 44/60/46 50/56/47
f 51/67/50 50/56/47 57/66/51
f 61/6/52 53/61/48 52/62/49
f 61/6/52 52/62/49 60/4/53
f 62/10/31 54/63/31 53/61/31
f 62/10/54 53/61/48 61/6/52
f 63/12/31 55/64/31 54/63/31
f 63/12/31 54/63/31 62/10/31
f 64/15/31 56/65/31 55/64/31
f 64/15/31 55/64/31 63/12/31
f 64/15/31 57/66/31 56/65/31
f 65/18/55 57/66/51 64/15/56
f 58/21/57 51/67/50 57/66/51
f 58/21/57 57/66/51 65/18/55
f 59/68/58 60/69/58 52/70/58
f 51/71/58 58/72/58 59/68/58
f 52/70/58 51/71/58 59/68/58
f 51/71/58 52/70/58 44/57/58
f 44/57/58 52/70/58 45/73/58
f 45/73/58 38/74/58 44/57/58
f 44/57/58 38/74/58 37/58/58
f 38/74/58 31/75/58 37/58/58
f 37/58/58 31/75/58 30/76/58
f 30/76/58 31/75/58 24/77/58
f 30/76/58 24/77/58 23/78/58
f 24/77/58 17/79/59 16/80/59
f 16/80/59 23/78/58 24/77/58
f 17/79/59 4/81/60 16/80/59
f 16/80/59 4/81/60 2/82/61
f 4/81/60 3/83/62 2/82/61
f 2/82/61 3/83/62 1/84/63
f 66/85/64 67/86/65 68/87/66
f 67/86/65 69/88/67 68/87/66
f 68/87/66 69/88/67 70/87/68
f 69/88/67 71/88/69 70/87/68
f 72/85/70 73/86/71 66/85/64
f 73/86/71 67/86/65 66/85/64
f 72/85/70 66/85/64 70/87/68
f 66/85/64 68/87/66 70/87/68
f 67/86/65 73/86/71 69/88/67
f 73/86/71 71/88/69 69/88/67
f 74/89/72 75/90/65 76/91/73
f 75/90/65 77/92/74 76/91/73
f 76/91/73 77/92/74 78/91/68
f 77/92/74 79/92/69 78/91/68
f 80/89/70 81/90/71 74/89/72
f 81/90/71 75/90/65 74/89/72
f 80/89/70 74/89/72 78/91/68
f 74/89/72 76/91/73 78/91/68
f 75/90/65 81/90/71 77/92/74
f 81/90/71 79/92/69 77/92/74
f 82/93/72 83/94/65 84/95/73
f 83/94/65 85/96/67 84/95/73
f 84/95/73 85/96/67 86/95/68
f 85/96/67 87/96/69 86/95/68
f 88/93/70 89/94/71 82/93/72
f 89/94/71 83/94/65 82/93/72
f 88/93/70 82/93/72 86/95/68
f 82/93/72 84/95/73 86/95/68
f 83/94/65 89/94/71 85/96/67
f 89/94/71 87/96/69 85/96/67
f 90/97/72 91/98/65 92/99/66
f 91/98/65 93/100/67 92/99/66
f 92/99/66 93/100/67 94/99/68
f 93/100/67 95/100/69 94/99/68
f 96/97/70 97/98/71 90/97/72
f 97/98/71 91/98/65 90/97/72
f 96/97/70 90/97/72 94/99/68
f 90/97/72 92/99/66 94/99/68
f 91/98/65 97/98/71 93/100/67
f 97/98/71 95/100/69 93/100/67
f 98/101/72 99/102/65 100/103/73
f 99/102/65 101/104/67 100/103/73
f 100/103/73 101/104/67 102/103/68
f 101/104/67 103/104/69 102/103/68
f 104/101/70 105/102/71 98/101/72
f 105/102/71 99/102/65 98/101/72
f 104/101/70 98/101/72 102/103/68
f 98/101/72 100/103/73 102/103/68
f 99/102/65 105/102/71 101/104/67
f 105/102/71 103/104/69 101/104/67
f 106/105/72 107/106/65 108/107/66
f 107/106/65 109/108/67 108/107/66
f 108/107/66 109/108/67 110/107/68
f 109/108/67 111/108/69 110/107/68
f 112/105/70 113/106/71 106/105/72
f 113/106/71 107/106/65 106/105/72
f 112/105/70 106/105/72 110/107/68
f 106/105/72 108/107/66 110/107/68
f 107/106/65 113/106/71 109/108/67
f 113/106/71 111/108/69 109/108/67
f 114/109/72 115/110/65 116/111/66
f 115/110/65 117/112/75 116/111/66
f 116/111/66 117/112/75 118/111/68
f 117/112/75 119/112/69 118/111/68
f 120/109/70 121/110/71 114/109/72
f 121/110/71 115/110/65 114/109/72
f 120/109/70 114/109/72 118/111/68
f 114/109/72 116/111/66 118/111/68
f 115/110/65 121/110/71 117/112/75
f 121/110/71 119/112/69 117/112/75
f 122/113/72 123/114/65 124/115/66
f 123/114/65 125/116/74 124/115/66
f 124/115/66 125/116/74 126/115/68
f 125/116/74 127/116/69 126/115/68
f 128/113/70 129/114/71 122/113/72
f 129/114/71 123/114/65 122/113/72
f 128/113/70 122/113/72 126/115/68
f 122/113/72 124/115/66 126/115/68
f 123/114/65 129/114/71 125/116/74
f 129/114/71 127/116/69 125/116/74
f 130/117/72 131/118/65 132/119/73
f 131/118/65 133/120/67 132/119/73
f 132/119/73 133/120/67 134/119/68
f 133/120/67 135/120/69 134/119/68
f 136/117/70 137/118/71 130/117/72
f 137/118/71 131/118/65 130/117/72
f 136/117/70 130/117/72 134/119/68
f 130/117/72 132/119/73 134/119/68
f 131/118/65 137/118/71 133/120/67
f 137/118/71 135/120/69 133/120/67
f 138/121/72 139/122/65 140/123/66
f 139/122/65 141/124/74 140/123/66
f 140/123/66 141/124/74 142/123/68
f 141/124/74 143/124/69 142/123/68
f 144/121/70 145/122/71 138/121/72
f 145/122/71 139/122/65 138/121/72
f 144/121/70 138/121/72 142/123/68
f 138/121/72 140/123/66 142/123/68
f 139/122/65 145/122/71 141/124/74
f 145/122/71 143/124/69 141/124/74
f 146/125/72 147/126/65 148/127/73
f 147/126/65 149/128/67 148/127/73
f 148/127/73 149/128/67 150/127/68
f 149/128/67 151/128/69 150/127/68
f 152/125/70 153/126/71 146/125/72
f 153/126/71 147/126/65 146/125/72
f 152/125/70 146/125/72 150/127/68
f 146/125/72 148/127/73 150/127/68
f 147/126/65 153/126/71 149/128/67
f 153/126/71 151/128/69 149/128/67
f 154/129/72 155/130/65 156/131/66
f 155/130/65 157/132/67 156/131/66
f 156/131/66 157/132/67 158/131/68
f 157/132/67 159/132/69 158/131/68
f 160/129/70 161/130/71 154/129/72
f 161/130/71 155/130/65 154/129/72
f 160/129/70 154/129/72 158/131/68
f 154/129/72 156/131/66 158/131/68
f 155/130/65 161/130/71 157/132/67
f 161/130/71 159/132/69 157/132/67
f 162/133/72 163/134/65 164/135/66
f 163/134/65 165/136/67 164/135/66
f 164/135/66 165/136/67 166/135/68
f 165/136/67 167/136/69 166/135/68
f 168/133/70 169/134/71 162/133/72
f 169/134/71 163/134/65 162/133/72
f 168/133/70 162/133/72 166/135/68
f 162/133/72 164/135/66 166/135/68
f 163/134/65 169/134/71 165/136/67
f 169/134/71 167/136/69 165/136/67
f 170/137/72 171/138/65 172/139/73
f 171/138/65 173/140/67 172/139/73
f 172/139/73 173/140/67 174/139/68
f 173/140/67 175/140/69 174/139/68
f 176/137/70 177/138/71 170/137/72
f 177/138/71 171/138/65 170/137/72
f 176/137/70 170/137/72 174/139/68
f 170/137/72 172/139/73 174/139/68
f 171/138/65 177/138/71 173/140/67
f 177/138/71 175/140/69 173/140/67
f 178/141/72 179/142/65 180/143/66
f 179/142/65 181/144/75 180/143/66
f 180/143/66 181/144/75 182/143/68
f 181/144/75 183/144/69 182/143/68
f 184/141/70 185/142/71 178/141/72
f 185/142/71 179/142/65 178/141/72
f 184/141/70 178/141/72 182/143/68
f 178/141/72 180/143/66 182/143/68
f 179/142/65 185/142/71 181/144/75
f 185/142/71 183/144/69 181/144/75
f 186/145/72 187/146/65 188/147/66
f 187/146/65 189/148/75 188/147/66
f 188/147/66 189/148/75 190/147/68
f 189/148/75 191/148/69 190/147/68
f 192/145/70 193/146/71 186/145/72
f 193/146/71 187/146/65 186/145/72
f 192/145/70 186/145/72 190/147/68
f 186/145/72 188/147/66 190/147/68
f 187/146/65 193/146/71 189/148/75
f 193/146/71 191/148/69 189/148/75
f 194/149/72 195/150/65 196/151/73
f 195/150/65 197/152/67 196/151/73
f 196/151/73 197/152/67 198/151/68
f 197/152/67 199/152/69 198/151/68
f 200/149/70 201/150/71 194/149/72
f 201/150/71 195/150/65 194/149/72
f 200/149/70 194/149/72 198/151/68
f 194/149/72 196/151/73 198/151/68
f 195/150/65 201/150/71 197/152/67
f 201/150/71 199/152/69 197/152/67
f 202/153/72 203/154/65 204/155/73
f 203/154/65 205/156/74 204/155/73
f 204/155/73 205/156/74 206/155/68
f 205/156/74 207/156/69 206/155/68
f 208/153/70 209/154/71 202/153/72
f 209/154/71 203/154/65 202/153/72
f 208/153/70 202/153/72 206/155/68
f 202/153/72 204/155/73 206/155/68
f 203/154/65 209/154/71 205/156/74
f 209/154/71 207/156/69 205/156/74
f 210/157/72 211/158/65 212/159/73
f 211/158/65 213/160/67 212/159/73
f 212/159/73 213/160/67 214/159/68
f 213/160/67 215/160/69 214/159/68
f 216/157/70 217/158/71 210/157/72
f 217/158/71 211/158/65 210/157/72
f 216/157/70 210/157/72 214/159/68
f 210/157/72 212/159/73 214/159/68
f 211/158/65 217/158/71 213/160/67
f 217/158/71 215/160/69 213/160/67
f 218/161/72 219/162/65 220/163/66
f 219/162/65 221/164/67 220/163/66
f 220/163/66 221/164/67 222/163/68
f 221/164/67 223/164/69 222/163/68
f 224/161/70 225/162/71 218/161/72
f 225/162/71 219/162/65 218/161/72
f 224/161/70 218/161/72 222/163/68
f 218/161/72 220/163/66 222/163/68
f 219/162/65 225/162/71 221/164/67
f 225/162/71 223/164/69 221/164/67
f 226/165/72 227/166/65 228/167/66
f 227/166/65 229/168/67 228/167/66
f 228/167/66 229/168/67 230/167/68
f 229/168/67 231/168/69 230/167/68
f 232/165/70 233/166/71 226/165/72
f 233/166/71 227/166/65 226/165/72
f 232/165/70 226/165/72 230/167/68
f 226/165/72 228/167/66 230/167/68
f 227/166/65 233/166/71 229/168/67
f 233/166/71 231/168/69 229/168/67
f 234/169/72 235/170/65 236/171/66
f 235/170/65 237/172/74 236/171/66
f 236/171/66 237/172/74 238/171/68
f 237/172/74 239/172/69 238/171/68
f 240/169/70 241/170/71 234/169/72
f 241/170/71 235/170/65 234/169/72
f 240/169/70 234/169/72 238/171/68
f 234/169/72 236/171/66 238/171/68
f 235/170/65 241/170/71 237/172/74
f 241/170/71 239/172/69 237/172/74
f 242/173/72 243/174/65 244/175/73
f 243/174/65 245/176/74 244/175/73
f 244/175/73 245/176/74 246/175/68
f 245/176/74 247/176/69 246/175/68
f 248/173/70 249/174/71 242/173/72
f 249/174/71 243/174/65 242/173/72
f 248/173/70 242/173/72 246/175/68
f 242/173/72 244/175/73 246/175/68
f 243/174/65 249/174/71 245/176/74
f 249/174/71 247/176/69 245/176/74
f 250/177/76 252/178/76 311/179/76
f 251/180/77 310/181/77 253/182/77
f 250/177/78 251/183/79 252/178/80
f 251/183/79 253/184/80 252/178/80
f 252/178/76 254/185/76 311/179/76
f 253/182/77 310/181/77 255/186/77
f 252/178/80 253/184/80 255/187/81
f 252/178/80 255/187/81 254/185/81
f 254/185/76 256/188/76 311/179/76
f 255/186/77 310/181/77 257/189/77
f 254/185/81 255/187/81 256/188/82
f 255/187/81 257/190/82 256/188/82
f 256/188/76 258/191/76 311/179/76
f 257/189/77 310/181/77 259/192/77
f 256/188/82 257/190/82 259/193/83
f 256/188/82 259/193/83 258/191/83
f 258/191/76 260/194/76 311/179/76
f 259/192/77 310/181/77 261/195/77
f 258/191/83 259/193/83 260/194/84
f 259/193/83 261/196/84 260/194/84
f 260/194/76 262/197/76 311/179/76
f 261/195/77 310/181/77 263/198/77
f 260/194/84 261/196/84 263/199/85
f 260/194/84 263/199/85 262/197/85
f 262/197/76 264/200/76 311/179/76
f 263/198/77 310/181/77 265/201/77
f 262/197/85 263/199/85 264/200/86
f 263/199/85 265/202/86 264/200/86
f 264/200/76 266/203/76 311/179/76
f 265/201/77 310/181/77 267/204/77
f 264/200/86 265/202/86 267/205/87
f 264/200/86 267/205/87 266/203/87
f 266/203/76 268/206/76 311/179/76
f 267/204/77 310/181/77 269/207/77
f 266/203/87 267/205/87 268/206/88
f 267/205/87 269/208/88 268/206/88
f 268/206/76 270/209/76 311/179/76
f 269/207/77 310/181/77 271/210/77
f 268/206/88 269/208/88 271/211/89
f 268/206/88 271/211/89 270/209/89
f 270/209/76 272/212/76 311/179/76
f 271/210/77 310/181/77 273/213/77
f 270/209/89 271/211/89 272/212/90
f 271/211/89 273/214/90 272/212/90
f 272/212/76 274/215/76 311/179/76
f 273/213/77 310/181/77 275/216/77
f 272/212/90 273/214/90 275/217/91
f 272/212/90 275/217/91 274/215/91
f 274/215/76 276/218/76 311/179/76
f 275/216/77 310/181/77 277/219/77
f 274/215/91 275/217/91 276/218/92
f 275/217/91 277/220/92 276/218/92
f 276/218/76 278/221/76 311/179/76
f 277/219/77 310/181/77 279/222/77
f 276/218/92 277/220/92 279/223/93
f 276/218/92 279/223/93 278/221/93
f 278/221/76 280/224/76 311/179/76
f 279/222/77 310/181/77 281/225/77
f 278/221/93 279/223/93 280/224/94
f 279/223/93 281/226/94 280/224/94
f 280/224/76 282/227/76 311/179/76
f 281/225/77 310/181/77 283/228/77
f 280/224/94 281/226/94 283/229/95
f 280/224/94 283/229/95 282/227/95
f 282/227/76 284/230/76 311/179/76
f 283/228/77 310/181/77 285/231/77
f 282/227/95 283/229/95 284/230/96
f 283/229/95 285/232/96 284/230/96
f 284/230/76 286/233/76 311/179/76
f 285/231/77 310/181/77 287/234/77
f 284/230/96 285/232/96 287/235/97
f 284/230/96 287/235/97 286/233/97
f 286/233/76 288/236/76 311/179/76
f 287/234/77 310/181/77 289/237/77
f 286/233/97 287/235/97 288/236/98
f 287/235/97 289/238/98 288/236/98
f 288/236/76 290/239/76 311/179/76
f 289/237/77 310/181/77 291/240/77
f 288/236/98 289/238/98 291/241/99
f 288/236/98 291/241/99 290/239/99
f 290/239/76 292/242/76 311/179/76
f 291/240/77 310/181/77 293/243/77
f 290/239/99 291/241/99 292/242/100
f 291/241/99 293/244/101 292/242/100
f 292/242/76 294/245/76 311/179/76
f 293/243/77 310/181/77 295/246/77
f 292/242/100 293/244/101 295/247/102
f 292/242/100 295/247/102 294/245/102
f 294/245/76 296/248/76 311/179/76
f 295/246/77 310/181/77 297/249/77
f 294/245/102 295/247/102 296/248/103
f 295/247/102 297/250/103 296/248/103
f 296/248/76 298/251/76 311/179/76
f 297/249/77 310/181/77 299/252/77
f 296/248/103 297/250/103 299/253/104
f 296/248/103 299/253/104 298/251/104
f 298/251/76 300/254/76 311/179/76
f 299/252/77 310/181/77 301/255/77
f 298/251/104 299/253/104 300/254/105
f 299/253/104 301/256/105 300/254/105
f 300/254/76 302/257/76 311/179/76
f 301/255/77 310/181/77 303/258/77
f 300/254/105 301/256/105 303/259/106
f 300/254/105 303/259/106 302/257/106
f 302/257/76 304/260/76 311/179/76
f 303/258/77 310/181/77 305/261/77
f 302/257/106 303/259/106 304/260/107
f 303/259/106 305/262/107 304/260/107
f 304/260/76 306/263/76 311/179/76
f 305/261/77 310/181/77 307/264/77
f 304/260/107 305/262/107 307/265/108
f 304/260/107 307/265/108 306/263/109
f 306/263/76 308/266/76 311/179/76
f 307/264/77 310/181/77 309/267/77
f 306/263/109 307/265/108 308/266/110
f 307/265/108 309/268/110 308/266/110
f 308/266/76 250/177/76 311/179/76
f 309/267/77 310/181/77 251/180/77
f 308/266/110 309/268/110 251/183/79
f 308/266/110 251/183/79 250/177/78
f 312/269/111 313/270/112 314/271/113
f 313/270/112 315/272/114 314/271/113
f 314/271/113 315/272/114 316/271/115
f 315/272/114 317/272/116 316/271/115
f 318/269/117 319/270/118 312/269/111
f 319/270/118 313/270/112 312/269/111
f 318/269/117 312/269/111 316/271/115
f 312/269/111 314/271/113 316/271/115
f 313/270/112 319/270/118 315/272/114
f 319/270/118 317/272/116 315/272/114
f 320/273/111 321/274/112 322/275/113
f 321/274/112 323/276/114 322/275/113
f 322/275/113 323/276/114 324/275/115
f 323/276/114 325/276/116 324/275/115
f 326/273/117 327/274/118 320/273/111
f 327/274/118 321/274/112 320/273/111
f 326/273/117 320/273/111 324/275/115
f 320/273/111 322/275/113 324/275/115
f 321/274/112 327/274/118 323/276/114
f 327/274/118 325/276/116 323/276/114
f 328/277/111 329/278/119 330/279/113
f 329/278/119 331/280/114 330/279/113
f 330/279/113 331/280/114 332/279/115
f 331/280/114 333/280/116 332/279/115
f 334/277/117 335/278/118 328/277/111
f 335/278/118 329/278/119 328/277/111
f 334/277/117 328/277/111 332/279/115
f 328/277/111 330/279/113 332/279/115
f 329/278/119 335/278/118 331/280/114
f 335/278/118 333/280/116 331/280/114
f 336/281/111 337/282/112 338/283/120
f 337/282/112 339/284/114 338/283/120
f 338/283/120 339/284/114 340/283/115
f 339/284/114 341/284/116 340/283/115
f 342/281/117 343/282/118 336/281/111
f 343/282/118 337/282/112 336/281/111
f 342/281/117 336/281/111 340/283/115
f 336/281/111 338/283/120 340/283/115
f 337/282/112 343/282/118 339/284/114
f 343/282/118 341/284/116 339/284/114
f 346/285/121 374/286/77 349/287/122
f 344/288/123 345/289/124 348/290/125
f 344/288/123 348/290/125 347/291/126
f 345/289/124 346/285/121 348/290/125
f 346/285/121 349/287/122 348/290/125
f 349/287/122 374/286/77 352/292/127
f 347/291/126 348/290/125 350/293/128
f 348/290/125 351/294/129 350/293/128
f 348/290/125 349/287/122 352/292/127
f 348/290/125 352/292/127 351/294/129
f 352/292/127 374/286/77 355/295/130
f 350/293/128 351/294/129 354/296/131
f 350/293/128 354/296/131 353/297/132
f 351/294/129 352/292/127 354/296/131
f 352/292/127 355/295/130 354/296/131
f 355/295/130 374/286/77 358/298/133
f 353/297/132 354/296/131 356/299/134
f 354/296/131 357/300/135 356/299/134
f 354/296/131 355/295/130 358/298/133
f 354/296/131 358/298/133 357/300/135
f 358/298/133 374/286/77 361/301/136
f 356/299/134 357/300/135 360/302/137
f 356/299/134 360/302/137 359/303/138
f 357/300/135 358/298/133 360/302/137
f 358/298/133 361/301/136 360/302/137
f 361/301/136 374/286/77 364/304/139
f 359/303/138 360/302/137 362/305/140
f 360/302/137 363/306/141 362/305/140
f 360/302/137 361/301/136 364/304/139
f 360/302/137 364/304/139 363/306/141
f 364/304/139 374/286/77 367/307/142
f 362/305/140 363/306/141 366/308/143
f 362/305/140 366/308/143 365/309/144
f 363/306/141 364/304/139 366/308/143
f 364/304/139 367/307/142 366/308/143
f 367/307/142 374/286/77 370/310/145
f 365/309/144 366/308/143 368/311/146
f 366/308/143 369/312/147 368/311/146
f 366/308/143 367/307/142 370/310/145
f 366/308/143 370/310/145 369/312/147
f 370/310/145 374/286/77 373/313/148
f 368/311/146 369/312/147 372/314/149
f 368/311/146 372/314/149 371/315/150
f 369/312/147 370/310/145 372/314/149
f 370/310/145 373/313/148 372/314/149
f 373/313/148 374/286/77 346/285/121
f 371/315/150 372/314/149 344/288/123
f 372/314/149 345/289/124 344/288/123
f 372/314/149 373/313/148 346/285/121
f 372/314/149 346/285/121 345/289/124
f 377/316/121 405/317/77 380/318/122
f 375/319/123 376/320/124 379/321/125
f 375/319/123 379/321/125 378/322/126
f 376/320/124 377/316/121 379/321/125
f 377/316/121 380/318/122 379/321/125
f 380/318/122 405/317/77 383/323/127
f 378/322/126 379/321/125 381/324/128
f 379/321/125 382/325/129 381/324/128
f 379/321/125 380/318/122 383/323/127
f 379/321/125 383/323/127 382/325/129
f 383/323/127 405/317/77 386/326/130
f 381/324/128 382/325/129 385/327/131
f 381/324/128 385/327/131 384/328/132
f 382/325/129 383/323/127 385/327/131
f 383/323/127 386/326/130 385/327/131
f 386/326/130 405/317/77 389/329/133
f 384/328/132 385/327/131 387/330/134
f 385/327/131 388/331/151 387/330/134
f 385/327/131 386/326/130 389/329/133
f 385/327/131 389/329/133 388/331/151
f 389/329/133 405/317/77 392/332/136
f 387/330/134 388/331/151 391/333/137
f 387/330/134 391/333/137 390/334/138
f 388/331/151 389/329/133 391/333/137
f 389/329/133 392/332/136 391/333/137
f 392/332/136 405/317/77 395/335/139
f 390/334/138 391/333/137 393/336/140
f 391/333/137 394/337/152 393/336/140
f 391/333/137 392/332/136 395/335/139
f 391/333/137 395/335/139 394/337/152
f 395/335/139 405/317/77 398/338/142
f 393/336/140 394/337/152 397/339/143
f 393/336/140 397/339/143 396/340/144
f 394/337/152 395/335/139 397/339/143
f 395/335/139 398/338/142 397/339/143
f 398/338/142 405/317/77 401/341/145
f 396/340/144 397/339/143 399/342/146
f 397/339/143 400/343/147 399/342/146
f 397/339/143 398/338/142 401/341/145
f 397/339/143 401/341/145 400/343/147
f 401/341/145 405/317/77 404/344/148
f 399/342/146 400/343/147 403/345/149
f 399/342/146 403/345/149 402/346/150
f 400/343/147 401/341/145 403/345/149
f 401/341/145 404/344/148 403/345/149
f 404/344/148 405/317/77 377/316/121
f 402/346/150 403/345/149 375/319/123
f 403/345/149 376/320/124 375/319/123
f 403/345/149 404/344/148 377/316/121
f 403/345/149 377/316/121 376/320/124
f 408/347/121 436/348/77 411/349/122
f 406/350/123 407/351/124 410/352/125
f 406/350/123 410/352/125 409/353/126
f 407/351/124 408/347/121 410/352/125
f 408/347/121 411/349/122 410/352/125
f 411/349/122 436/348/77 414/354/127
f 409/353/126 410/352/125 412/355/128
f 410/352/125 413/356/129 412/355/128
f 410/352/125 411/349/122 414/354/127
f 410/352/125 414/354/127 413/356/129
f 414/354/127 436/348/77 417/357/130
f 412/355/128 413/356/129 416/358/131
f 412/355/128 416/358/131 415/359/132
f 413/356/129 414/354/127 416/358/131
f 414/354/127 417/357/130 416/358/131
f 417/357/130 436/348/77 420/360/133
f 415/359/132 416/358/131 418/361/134
f 416/358/131 419/362/135 418/361/134
f 416/358/131 417/357/130 420/360/133
f 416/358/131 420/360/133 419/362/135
f 420/360/133 436/348/77 423/363/136
f 418/361/134 419/362/135 422/364/137
f 418/361/134 422/364/137 421/365/138
f 419/362/135 420/360/133 422/364/137
f 420/360/133 423/363/136 422/364/137
f 423/363/136 436/348/77 426/366/139
f 421/365/138 422/364/137 424/367/140
f 422/364/137 425/368/141 424/367/140
f 422/364/137 423/363/136 426/366/139
f 422/364/137 426/366/139 425/368/141
f 426/366/139 436/348/77 429/369/142
f 424/367/140 425/368/141 428/370/143
f 424/367/140 428/370/143 427/371/144
f 425/368/141 426/366/139 428/370/143
f 426/366/139 429/369/142 428/370/143
f 429/369/142 436/348/77 432/372/145
f 427/371/144 428/370/143 430/373/146
f 428/370/143 431/374/147 430/373/146
f 428/370/143 429/369/142 432/372/145
f 428/370/143 432/372/145 431/374/147
f 432/372/145 436/348/77 435/375/148
f 430/373/146 431/374/147 434/376/149
f 430/373/146 434/376/149 433/377/150
f 431/374/147 432/372/145 434/376/149
f 432/372/145 435/375/148 434/376/149
f 435/375/148 436/348/77 408/347/121
f 433/377/150 434/376/149 406/350/123
f 434/376/149 407/351/124 406/350/123
f 434/376/149 435/375/148 408/347/121
f 434/376/149 408/347/121 407/351/124
f 437/378/153 439/379/154 450/380/31
f 438/381/155 449/382/58 440/383/156
f 437/378/153 438/381/155 439/379/154
f 438/381/155 440/383/156 439/379/154
f 439/379/154 441/384/157 450/380/31
f 440/383/156 449/382/58 442/385/158
f 439/379/154 440/383/156 442/385/158
f 439/379/154 442/385/158 441/384/157
f 441/384/157 443/386/159 450/380/31
f 442/385/158 449/382/58 444/387/160
f 441/384/157 442/385/158 443/386/159
f 442/385/158 444/387/160 443/386/159
f 443/386/159 445/388/161 450/380/31
f 444/387/160 449/382/58 446/389/162
f 443/386/159 444/387/160 446/389/162
f 443/386/159 446/389/162 445/388/161
f 445/388/161 447/390/163 450/380/31
f 446/389/162 449/382/58 448/391/164
f 445/388/161 446/389/162 447/390/163
f 446/389/162 448/391/164 447/390/163
f 447/390/163 437/378/153 450/380/31
f 448/391/164 449/382/58 438/381/155
f 447/390/163 448/391/164 438/381/155
f 447/390/163 438/381/155 437/378/153
f 451/392/153 453/393/154 464/394/31
f 452/395/155 463/396/58 454/397/156
f 451/392/153 452/395/155 453/393/154
f 452/395/155 454/397/156 453/393/154
f 453/393/154 455/398/165 464/394/31
f 454/397/156 463/396/58 456/399/158
f 453/393/154 454/397/156 456/399/158
f 453/393/154 456/399/158 455/398/165
f 455/398/165 457/400/159 464/394/31
f 456/399/158 463/396/58 458/401/160
f 455/398/165 456/399/158 457/400/159
f 456/399/158 458/401/160 457/400/159
f 457/400/159 459/402/161 464/394/31
f 458/401/160 463/396/58 460/403/162
f 457/400/159 458/401/160 460/403/162
f 457/400/159 460/403/162 459/402/161
f 459/402/161 461/404/163 464/394/31
f 460/403/162 463/396/58 462/405/164
f 459/402/161 460/403/162 461/404/163
f 460/403/162 462/405/164 461/404/163
f 461/404/163 451/392/153 464/394/31
f 462/405/164 463/396/58 452/395/155
f 461/404/163 462/405/164 452/395/155
f 461/404/163 452/395/155 451/392/153
f 465/406/166 467/407/167 478/408/31
f 466/409/155 477/410/58 468/411/168
f 465/406/166 466/409/155 467/407/167
f 466/409/155 468/411/168 467/407/167
f 467/407/167 469/412/165 478/408/31
f 468/411/168 477/410/58 470/413/158
f 467/407/167 468/411/168 470/413/158
f 467/407/167 470/413/158 469/412/165
f 469/412/165 471/414/159 478/408/31
f 470/413/158 477/410/58 472/415/160
f 469/412/165 470/413/158 471/414/159
f 470/413/158 472/415/160 471/414/159
f 471/414/159 473/416/161 478/408/31
f 472/415/160 477/410/58 474/417/162
f 471/414/159 472/415/160 474/417/162
f 471/414/159 474/417/162 473/416/161
f 473/416/161 475/418/163 478/408/31
f 474/417/162 477/410/58 476/419/164
f 473/416/161 474/417/162 475/418/163
f 474/417/162 476/419/164 475/418/163
f 475/418/163 465/406/166 478/408/31
f 476/419/164 477/410/58 466/409/155
f 475/418/163 476/419/164 466/409/155
f 475/418/163 466/409/155 465/406/166
f 479/420/153 481/421/154 492/422/31
f 480/423/155 491/424/169 482/425/156
f 479/420/153 480/423/155 481/421/154
f 480/423/155 482/425/156 481/421/154
f 481/421/154 483/426/157 492/422/31
f 482/425/156 491/424/169 484/427/158
f 481/421/154 482/425/156 484/427/158
f 481/421/154 484/427/158 483/426/157
f 483/426/157 485/428/159 492/422/31
f 484/427/158 491/424/169 486/429/170
f 483/426/157 484/427/158 485/428/159
f 484/427/158 486/429/170 485/428/159
f 485/428/159 487/430/161 492/422/31
f 486/429/170 491/424/169 488/431/162
f 485/428/159 486/429/170 488/431/162
f 485/428/159 488/431/162 487/430/161
f 487/430/161 489/432/163 492/422/31
f 488/431/162 491/424/169 490/433/164
f 487/430/161 488/431/162 489/432/163
f 488/431/162 490/433/164 489/432/163
f 489/432/163 479/420/153 492/422/31
f 490/433/164 491/424/169 480/423/155
f 489/432/163 490/433/164 480/423/155
f 489/432/163 480/423/155 479/420/153
f 493/434/171 495/435/172 506/436/173
f 494/437/174 505/438/175 496/439/176
f 493/434/171 494/437/174 495/435/172
f 494/437/174 496/439/176 495/435/172
f 495/435/172 497/440/177 506/436/173
f 496/439/176 505/438/175 498/441/178
f 495/435/172 496/439/176 498/441/178
f 495/435/172 498/441/178 497/440/177
f 497/440/177 499/442/179 506/436/173
f 498/441/178 505/438/175 500/443/180
f 497/440/177 498/441/178 499/442/179
f 498/441/178 500/443/180 499/442/179
f 499/442/179 501/440/181 506/436/173
f 500/443/180 505/438/175 502/444/182
f 499/442/179 500/443/180 502/444/182
f 499/442/179 502/444/182 501/440/181
f 501/440/181 503/435/183 506/436/173
f 502/444/182 505/438/175 504/445/184
f 501/440/181 502/444/182 503/435/183
f 502/444/182 504/445/184 503/435/183
f 503/435/183 493/434/171 506/436/173
f 504/445/184 505/438/175 494/437/174
f 503/435/183 504/445/184 494/437/174
f 503/435/183 494/437/174 493/434/171
f 507/446/185 509/447/186 520/448/173
f 508/449/187 519/450/188 510/451/189
f 507/446/185 508/449/187 509/447/186
f 508/449/187 510/451/189 509/447/186
f 509/447/186 511/452/190 520/448/173
f 510/451/189 519/450/188 512/453/191
f 509/447/186 510/451/189 512/453/191
f 509/447/186 512/453/191 511/452/190
f 511/452/190 513/454/192 520/448/173
f 512/453/191 519/450/188 514/455/193
f 511/452/190 512/453/191 513/454/192
f 512/453/191 514/455/193 513/454/192
f 513/454/192 515/452/194 520/448/173
f 514/455/193 519/450/188 516/456/195
f 513/454/192 514/455/193 516/456/195
f 513/454/192 516/456/195 515/452/194
f 515/452/194 517/447/196 520/448/173
f 516/456/195 519/450/188 518/457/197
f 515/452/194 516/456/195 517/447/196
f 516/456/195 518/457/197 517/447/196
f 517/447/196 507/446/185 520/448/173
f 518/457/197 519/450/188 508/449/187
f 517/447/196 518/457/197 508/449/187
f 517/447/196 508/449/187 507/446/185
f 521/458/198 523/459/199 534/460/173
f 522/461/200 533/462/201 524/463/202
f 521/458/198 522/461/200 523/459/199
f 522/461/200 524/463/202 523/459/199
f 523/459/199 525/464/203 534/460/173
f 524/463/202 533/462/201 526/465/204
f 523/459/199 524/463/202 526/465/204
f 523/459/199 526/465/204 525/464/203
f 525/464/203 527/466/205 534/460/173
f 526/465/204 533/462/201 528/467/206
f 525/464/203 526/465/204 527/466/205
f 526/465/204 528/467/206 527/466/205
f 527/466/205 529/464/207 534/460/173
f 528/467/206 533/462/201 530/468/208
f 527/466/205 528/467/206 530/468/208
f 527/466/205 530/468/208 529/464/207
f 529/464/207 531/459/209 534/460/173
f 530/468/208 533/462/201 532/469/210
f 529/464/207 530/468/208 531/459/209
f 530/468/208 532/469/210 531/459/209
f 531/459/209 521/458/198 534/460/173
f 532/469/210 533/462/201 522/461/200
f 531/459/209 532/469/210 522/461/200
f 531/459/209 522/461/200 521/458/198
f 535/470/211 537/471/212 548/472/173
f 536/473/213 547/474/214 538/475/215
f 535/470/211 536/473/213 537/471/212
f 536/473/213 538/475/215 537/471/212
f 537/471/212 539/476/216 548/472/173
f 538/475/215 547/474/214 540/477/217
f 537/471/212 538/475/215 540/477/217
f 537/471/212 540/477/217 539/476/216
f 539/476/216 541/478/218 548/472/173
f 540/477/217 547/474/214 542/479/219
f 539/476/216 540/477/217 541/478/218
f 540/477/217 542/479/219 541/478/218
f 541/478/218 543/476/220 548/472/173
f 542/479/219 547/474/214 544/480/221
f 541/478/218 542/479/219 544/480/221
f 541/478/218 544/480/221 543/476/220
f 543/476/220 545/471/222 548/472/173
f 544/480/221 547/474/214 546/481/223
f 543/476/220 544/480/221 545/471/222
f 544/480/221 546/481/223 545/471/222
f 545/471/222 535/470/211 548/472/173
f 546/481/223 547/474/214 536/473/213
f 545/471/222 546/481/223 536/473/213
f 545/471/222 536/473/213 535/470/211
f 549/482/224 551/483/225 562/484/226
f 550/485/227 561/486/228 552/487/229
f 549/482/224 550/485/227 551/483/225
f 550/485/227 552/487/229 551/483/225
f 551/483/225 553/488/230 562/484/226
f 552/487/229 561/486/228 554/489/231
f 551/483/225 552/487/229 554/489/231
f 551/483/225 554/489/231 553/488/230
f 553/488/230 555/490/232 562/484/226
f 554/489/231 561/486/228 556/491/233
f 553/488/230 554/489/231 555/490/232
f 554/489/231 556/491/233 555/490/232
f 555/490/232 557/492/234 562/484/226
f 556/491/233 561/486/228 558/493/235
f 555/490/232 556/491/233 558/493/235
f 555/490/232 558/493/235 557/492/234
f 557/492/234 559/494/236 562/484/226
f 558/493/235 561/486/228 560/495/237
f 557/492/234 558/493/235 559/494/236
f 558/493/235 560/495/237 559/494/236
f 559/494/236 549/482/224 562/484/226
f 560/495/237 561/486/228 550/485/227
f 559/494/236 560/495/237 550/485/227
f 559/494/236 550/485/227 549/482/224
f 563/496/224 565/497/225 576/498/238
f 564/499/227 575/500/228 566/501/229
f 563/496/224 564/499/227 565/497/225
f 564/499/227 566/501/229 565/497/225
f 565/497/225 567/502/230 576/498/238
f 566/501/229 575/500/228 568/503/231
f 565/497/225 566/501/229 568/503/231
f 565/497/225 568/503/231 567/502/230
f 567/502/230 569/504/232 576/498/238
f 568/503/231 575/500/228 570/505/233
f 567/502/230 568/503/231 569/504/232
f 568/503/231 570/505/233 569/504/232
f 569/504/232 571/506/234 576/498/238
f 570/505/233 575/500/228 572/507/235
f 569/504/232 570/505/233 572/507/235
f 569/504/232 572/507/235 571/506/234
f 571/506/234 573/508/236 576/498/238
f 572/507/235 575/500/228 574/509/237
f 571/506/234 572/507/235 573/508/236
f 572/507/235 574/509/237 573/508/236
f 573/508/236 563/496/224 576/498/238
f 574/509/237 575/500/228 564/499/227
f 573/508/236 574/509/237 564/499/227
f 573/508/236 564/499/227 563/496/224
f 577/510/224 579/511/225 590/512/238
f 578/513/227 589/514/228 580/515/229
f 577/510/224 578/513/227 579/511/225
f 578/513/227 580/515/229 579/511/225
f 579/511/225 581/516/230 590/512/238
f 580/515/229 589/514/228 582/517/231
f 579/511/225 580/515/229 582/517/231
f 579/511/225 582/517/231 581/516/230
f 581/516/230 583/518/232 590/512/238
f 582/517/231 589/514/228 584/519/233
f 581/516/230 582/517/231 583/518/232
f 582/517/231 584/519/233 583/518/232
f 583/518/232 585/520/234 590/512/238
f 584/519/233 589/514/228 586/521/235
f 583/518/232 584/519/233 586/521/235
f 583/518/232 586/521/235 585/520/234
f 585/520/234 587/522/236 590/512/238
f 586/521/235 589/514/228 588/523/237
f 585/520/234 586/521/235 587/522/236
f 586/521/235 588/523/237 587/522/236
f 587/522/236 577/510/224 590/512/238
f 588/523/237 589/514/228 578/513/227
f 587/522/236 588/523/237 578/513/227
f 587/522/236 578/513/227 577/510/224
f 591/524/224 593/525/225 604/526/226
f 592/527/227 603/528/228 594/529/229
f 591/524/224 592/527/227 593/525/225
f 592/527/227 594/529/229 593/525/225
f 593/525/225 595/530/230 604/526/226
f 594/529/229 603/528/228 596/531/231
f 593/525/225 594/529/229 596/531/231
f 593/525/225 596/531/231 595/530/230
f 595/530/230 597/532/232 604/526/226
f 596/531/231 603/528/228 598/533/233
f 595/530/230 596/531/231 597/532/232
f 596/531/231 598/533/233 597/532/232
f 597/532/232 599/534/234 604/526/226
f 598/533/233 603/528/228 600/535/235
f 597/532/232 598/533/233 600/535/235
f 597/532/232 600/535/235 599/534/234
f 599/534/234 601/536/236 604/526/226
f 600/535/235 603/528/228 602/537/237
f 599/534/234 600/535/235 601/536/236
f 600/535/235 602/537/237 601/536/236
f 601/536/236 591/524/224 604/526/226
f 602/537/237 603/528/228 592/527/227
f 601/536/236 602/537/237 592/527/227
f 601/536/236 592/527/227 591/524/224
