0, 0, Header, 1, 17, 96
1, 0, Start_track
1, 0, Time_signature, 4, 2, 24, 8
1, 0, End_track
2, 0, Start_track
2, 0, Tempo, 405405
2, 0, End_track
3, 0, Start_track
3, 0, Control_c, 0, 10, 64
3, 0, Control_c, 0, 7, 100
3, 0, Pitch_bend_c, 0, 8192
3, 0, Control_c, 0, 101, 0
3, 0, Control_c, 0, 100, 0
3, 0, Control_c, 0, 6, 12
3, 0, Control_c, 0, 10, 64
3, 0, Control_c, 0, 7, 100
3, 0, Pitch_bend_c, 0, 8192
3, 0, Program_c, 0, 65
3, 0, Control_c, 0, 101, 0
3, 0, Control_c, 0, 100, 0
3, 0, Control_c, 0, 6, 12
3, 0, Control_c, 0, 10, 64
3, 0, Control_c, 0, 7, 100
3, 0, Pitch_bend_c, 0, 8192
3, 0, Program_c, 0, 65
3, 0, Note_on_c, 0, 58, 96
3, 0, Note_on_c, 0, 58, 96
3, 47, Note_off_c, 0, 58, 0
3, 47, Note_off_c, 0, 58, 0
3, 48, Note_on_c, 0, 56, 80
3, 48, Note_on_c, 0, 56, 80
3, 95, Note_off_c, 0, 56, 0
3, 95, Note_off_c, 0, 56, 0
3, 96, Note_on_c, 0, 58, 80
3, 96, Note_on_c, 0, 58, 80
3, 143, Note_off_c, 0, 58, 0
3, 143, Note_off_c, 0, 58, 0
3, 144, Note_on_c, 0, 67, 96
3, 144, Note_on_c, 0, 67, 96
3, 239, Note_off_c, 0, 67, 0
3, 239, Note_off_c, 0, 67, 0
3, 240, Note_on_c, 0, 63, 80
3, 240, Note_on_c, 0, 63, 80
3, 335, Note_off_c, 0, 63, 0
3, 335, Note_off_c, 0, 63, 0
3, 336, Note_on_c, 0, 70, 96
3, 336, Note_on_c, 0, 65, 96
3, 367, Note_off_c, 0, 70, 0
3, 367, Note_off_c, 0, 65, 0
3, 432, Note_on_c, 0, 65, 96
3, 432, Note_on_c, 0, 70, 96
3, 463, Note_off_c, 0, 65, 0
3, 463, Note_off_c, 0, 70, 0
3, 528, Note_on_c, 0, 70, 80
3, 528, Note_on_c, 0, 63, 80
3, 575, Note_off_c, 0, 70, 0
3, 575, Note_off_c, 0, 63, 0
3, 576, Note_on_c, 0, 70, 96
3, 576, Note_on_c, 0, 63, 96
3, 719, Note_off_c, 0, 63, 0
3, 719, Note_off_c, 0, 70, 0
3, 768, Note_on_c, 0, 58, 96
3, 768, Note_on_c, 0, 58, 96
3, 815, Note_off_c, 0, 58, 0
3, 815, Note_off_c, 0, 58, 0
3, 816, Note_on_c, 0, 56, 80
3, 816, Note_on_c, 0, 56, 80
3, 863, Note_off_c, 0, 56, 0
3, 863, Note_off_c, 0, 56, 0
3, 864, Note_on_c, 0, 58, 80
3, 864, Note_on_c, 0, 58, 80
3, 911, Note_off_c, 0, 58, 0
3, 911, Note_off_c, 0, 58, 0
3, 912, Note_on_c, 0, 67, 96
3, 912, Note_on_c, 0, 67, 96
3, 1007, Note_off_c, 0, 67, 0
3, 1007, Note_off_c, 0, 67, 0
3, 1008, Note_on_c, 0, 63, 80
3, 1008, Note_on_c, 0, 63, 80
3, 1103, Note_off_c, 0, 63, 0
3, 1103, Note_off_c, 0, 63, 0
3, 1104, Note_on_c, 0, 70, 96
3, 1104, Note_on_c, 0, 65, 96
3, 1135, Note_off_c, 0, 70, 0
3, 1135, Note_off_c, 0, 65, 0
3, 1200, Note_on_c, 0, 70, 96
3, 1200, Note_on_c, 0, 65, 96
3, 1231, Note_off_c, 0, 70, 0
3, 1231, Note_off_c, 0, 65, 0
3, 1296, Note_on_c, 0, 70, 80
3, 1296, Note_on_c, 0, 63, 80
3, 1343, Note_off_c, 0, 70, 0
3, 1343, Note_off_c, 0, 63, 0
3, 1344, Note_on_c, 0, 70, 96
3, 1344, Note_on_c, 0, 63, 96
3, 1535, Note_off_c, 0, 63, 0
3, 1535, Note_off_c, 0, 70, 0
3, 1632, Note_on_c, 0, 67, 80
3, 1632, Note_on_c, 0, 67, 80
3, 1727, Note_off_c, 0, 67, 0
3, 1727, Note_off_c, 0, 67, 0
3, 1728, Note_on_c, 0, 65, 80
3, 1728, Note_on_c, 0, 65, 80
3, 1775, Note_off_c, 0, 65, 0
3, 1775, Note_off_c, 0, 65, 0
3, 1776, Note_on_c, 0, 63, 80
3, 1776, Note_on_c, 0, 63, 80
3, 1871, Note_off_c, 0, 63, 0
3, 1871, Note_off_c, 0, 63, 0
3, 1872, Note_on_c, 0, 62, 80
3, 1872, Note_on_c, 0, 62, 80
3, 1967, Note_off_c, 0, 62, 0
3, 1967, Note_off_c, 0, 62, 0
3, 1968, Note_on_c, 0, 63, 80
3, 1968, Note_on_c, 0, 63, 80
3, 2063, Note_off_c, 0, 63, 0
3, 2063, Note_off_c, 0, 63, 0
3, 2064, Note_on_c, 0, 63, 80
3, 2064, Note_on_c, 0, 63, 80
3, 2303, Note_off_c, 0, 63, 0
3, 2303, Note_off_c, 0, 63, 0
3, 2400, Note_on_c, 0, 67, 80
3, 2400, Note_on_c, 0, 67, 80
3, 2495, Note_off_c, 0, 67, 0
3, 2495, Note_off_c, 0, 67, 0
3, 2496, Note_on_c, 0, 65, 80
3, 2496, Note_on_c, 0, 65, 80
3, 2543, Note_off_c, 0, 65, 0
3, 2543, Note_off_c, 0, 65, 0
3, 2544, Note_on_c, 0, 63, 80
3, 2544, Note_on_c, 0, 63, 80
3, 2639, Note_off_c, 0, 63, 0
3, 2639, Note_off_c, 0, 63, 0
3, 2640, Note_on_c, 0, 62, 80
3, 2640, Note_on_c, 0, 62, 80
3, 2735, Note_off_c, 0, 62, 0
3, 2735, Note_off_c, 0, 62, 0
3, 2736, Note_on_c, 0, 63, 80
3, 2736, Note_on_c, 0, 63, 80
3, 2831, Note_off_c, 0, 63, 0
3, 2831, Note_off_c, 0, 63, 0
3, 2832, Note_on_c, 0, 60, 80
3, 2832, Note_on_c, 0, 60, 80
3, 2927, Note_off_c, 0, 60, 0
3, 2927, Note_off_c, 0, 60, 0
3, 2928, Note_on_c, 0, 58, 80
3, 2928, Note_on_c, 0, 58, 80
3, 3071, Note_off_c, 0, 58, 0
3, 3071, Note_off_c, 0, 58, 0
3, 3168, Note_on_c, 0, 70, 80
3, 3168, Note_on_c, 0, 67, 80
3, 3263, Note_off_c, 0, 67, 0
3, 3263, Note_off_c, 0, 70, 0
3, 3264, Note_on_c, 0, 70, 80
3, 3264, Note_on_c, 0, 65, 80
3, 3311, Note_off_c, 0, 65, 0
3, 3311, Note_off_c, 0, 70, 0
3, 3312, Note_on_c, 0, 70, 80
3, 3312, Note_on_c, 0, 63, 80
3, 3407, Note_off_c, 0, 70, 0
3, 3407, Note_off_c, 0, 63, 0
3, 3408, Note_on_c, 0, 62, 80
3, 3408, Note_on_c, 0, 70, 80
3, 3503, Note_off_c, 0, 70, 0
3, 3503, Note_off_c, 0, 62, 0
3, 3504, Note_on_c, 0, 70, 80
3, 3504, Note_on_c, 0, 63, 80
3, 3599, Note_off_c, 0, 63, 0
3, 3599, Note_off_c, 0, 70, 0
3, 3600, Note_on_c, 0, 70, 80
3, 3600, Note_on_c, 0, 63, 80
3, 3839, Note_off_c, 0, 63, 0
3, 3839, Note_off_c, 0, 70, 0
3, 3936, Note_on_c, 0, 67, 80
3, 3936, Note_on_c, 0, 70, 80
3, 4031, Note_off_c, 0, 67, 0
3, 4031, Note_off_c, 0, 70, 0
3, 4032, Note_on_c, 0, 70, 80
3, 4032, Note_on_c, 0, 65, 80
3, 4079, Note_off_c, 0, 65, 0
3, 4079, Note_off_c, 0, 70, 0
3, 4080, Note_on_c, 0, 70, 80
3, 4080, Note_on_c, 0, 63, 80
3, 4175, Note_off_c, 0, 70, 0
3, 4175, Note_off_c, 0, 63, 0
3, 4176, Note_on_c, 0, 70, 80
3, 4176, Note_on_c, 0, 65, 80
3, 4271, Note_off_c, 0, 70, 0
3, 4271, Note_off_c, 0, 65, 0
3, 4272, Note_on_c, 0, 67, 80
3, 4272, Note_on_c, 0, 70, 80
3, 4319, Note_off_c, 0, 67, 0
3, 4319, Note_off_c, 0, 70, 0
3, 4368, Note_on_c, 0, 68, 80
3, 4368, Note_on_c, 0, 70, 80
3, 4415, Note_off_c, 0, 68, 0
3, 4415, Note_off_c, 0, 70, 0
3, 4464, Note_on_c, 0, 67, 80
3, 4464, Note_on_c, 0, 70, 80
3, 4559, Note_off_c, 0, 70, 0
3, 4559, Note_off_c, 0, 67, 0
3, 4608, Note_on_c, 0, 65, 80
3, 4608, Note_on_c, 0, 70, 80
3, 4655, Note_off_c, 0, 65, 0
3, 4656, Note_on_c, 0, 67, 80
3, 5039, Note_off_c, 0, 67, 0
3, 5039, Note_off_c, 0, 70, 0
3, 5088, Note_on_c, 0, 70, 80
3, 5088, Note_on_c, 0, 67, 80
3, 5135, Note_off_c, 0, 70, 0
3, 5135, Note_off_c, 0, 67, 0
3, 5136, Note_on_c, 0, 70, 80
3, 5136, Note_on_c, 0, 67, 80
3, 5183, Note_off_c, 0, 70, 0
3, 5183, Note_off_c, 0, 67, 0
3, 5184, Note_on_c, 0, 67, 80
3, 5184, Note_on_c, 0, 70, 80
3, 5231, Note_off_c, 0, 67, 0
3, 5231, Note_off_c, 0, 70, 0
3, 5232, Note_on_c, 0, 72, 80
3, 5232, Note_on_c, 0, 65, 80
3, 5279, Note_off_c, 0, 72, 0
3, 5279, Note_off_c, 0, 65, 0
3, 5280, Note_on_c, 0, 70, 80
3, 5280, Note_on_c, 0, 63, 80
3, 5327, Note_off_c, 0, 70, 0
3, 5327, Note_off_c, 0, 63, 0
3, 5328, Note_on_c, 0, 70, 80
3, 5328, Note_on_c, 0, 65, 80
3, 5807, Note_off_c, 0, 65, 0
3, 5807, Note_off_c, 0, 70, 0
3, 5856, Note_on_c, 0, 67, 80
3, 5856, Note_on_c, 0, 67, 80
3, 5903, Note_off_c, 0, 67, 0
3, 5903, Note_off_c, 0, 67, 0
3, 5904, Note_on_c, 0, 67, 80
3, 5904, Note_on_c, 0, 67, 80
3, 5951, Note_off_c, 0, 67, 0
3, 5951, Note_off_c, 0, 67, 0
3, 5952, Note_on_c, 0, 67, 80
3, 5952, Note_on_c, 0, 67, 80
3, 5999, Note_off_c, 0, 67, 0
3, 5999, Note_off_c, 0, 67, 0
3, 6000, Note_on_c, 0, 65, 80
3, 6000, Note_on_c, 0, 65, 80
3, 6047, Note_off_c, 0, 65, 0
3, 6047, Note_off_c, 0, 65, 0
3, 6048, Note_on_c, 0, 63, 80
3, 6048, Note_on_c, 0, 63, 80
3, 6095, Note_off_c, 0, 63, 0
3, 6095, Note_off_c, 0, 63, 0
3, 6096, Note_on_c, 0, 65, 80
3, 6096, Note_on_c, 0, 65, 80
3, 6335, Note_off_c, 0, 65, 0
3, 6335, Note_off_c, 0, 65, 0
3, 6336, Note_on_c, 0, 67, 80
3, 6336, Note_on_c, 0, 67, 80
3, 6527, Note_off_c, 0, 67, 0
3, 6527, Note_off_c, 0, 67, 0
3, 6528, Note_on_c, 0, 63, 80
3, 6528, Note_on_c, 0, 63, 80
3, 6719, Note_off_c, 0, 63, 0
3, 6719, Note_off_c, 0, 63, 0
3, 6720, Note_on_c, 0, 60, 80
3, 6720, Note_on_c, 0, 60, 80
3, 6863, Note_off_c, 0, 60, 0
3, 6863, Note_off_c, 0, 60, 0
3, 6864, Note_on_c, 0, 58, 80
3, 6864, Note_on_c, 0, 58, 80
3, 6911, Note_off_c, 0, 58, 0
3, 6911, Note_off_c, 0, 58, 0
3, 6912, Note_on_c, 0, 60, 80
3, 6912, Note_on_c, 0, 60, 80
3, 6959, Note_off_c, 0, 60, 0
3, 6959, Note_off_c, 0, 60, 0
3, 6960, Note_on_c, 0, 58, 80
3, 6960, Note_on_c, 0, 58, 80
3, 7103, Note_off_c, 0, 58, 0
3, 7103, Note_off_c, 0, 58, 0
3, 7104, Note_on_c, 0, 68, 80
3, 7104, Note_on_c, 0, 68, 80
3, 7151, Note_off_c, 0, 68, 0
3, 7151, Note_off_c, 0, 68, 0
3, 7152, Note_on_c, 0, 67, 80
3, 7152, Note_on_c, 0, 67, 80
3, 7199, Note_off_c, 0, 67, 0
3, 7199, Note_off_c, 0, 67, 0
3, 7248, Note_on_c, 0, 65, 80
3, 7248, Note_on_c, 0, 65, 80
3, 7631, Note_off_c, 0, 65, 0
3, 7631, Note_off_c, 0, 65, 0
3, 7680, Note_on_c, 0, 63, 80
3, 7680, Note_on_c, 0, 63, 80
3, 7727, Note_off_c, 0, 63, 0
3, 7727, Note_off_c, 0, 63, 0
3, 7728, Note_on_c, 0, 61, 80
3, 7728, Note_on_c, 0, 61, 80
3, 7775, Note_off_c, 0, 61, 0
3, 7775, Note_off_c, 0, 61, 0
3, 7776, Note_on_c, 0, 63, 80
3, 7776, Note_on_c, 0, 63, 80
3, 7823, Note_off_c, 0, 63, 0
3, 7823, Note_off_c, 0, 63, 0
3, 8016, Note_on_c, 0, 58, 80
3, 8016, Note_on_c, 0, 53, 80
3, 8063, Note_off_c, 0, 58, 0
3, 8063, Note_off_c, 0, 53, 0
3, 8112, Note_on_c, 0, 58, 80
3, 8112, Note_on_c, 0, 53, 80
3, 8159, Note_off_c, 0, 58, 0
3, 8159, Note_off_c, 0, 53, 0
3, 8208, Note_on_c, 0, 58, 80
3, 8208, Note_on_c, 0, 51, 80
3, 8255, Note_off_c, 0, 58, 0
3, 8255, Note_off_c, 0, 51, 0
3, 8256, Note_on_c, 0, 58, 80
3, 8256, Note_on_c, 0, 51, 80
3, 8447, Note_off_c, 0, 51, 0
3, 8447, Note_off_c, 0, 58, 0
3, 8784, Note_on_c, 0, 58, 80
3, 8784, Note_on_c, 0, 53, 80
3, 8831, Note_off_c, 0, 58, 0
3, 8831, Note_off_c, 0, 53, 0
3, 8880, Note_on_c, 0, 58, 80
3, 8880, Note_on_c, 0, 53, 80
3, 8927, Note_off_c, 0, 58, 0
3, 8927, Note_off_c, 0, 53, 0
3, 8976, Note_on_c, 0, 58, 80
3, 8976, Note_on_c, 0, 51, 80
3, 9023, Note_off_c, 0, 58, 0
3, 9023, Note_off_c, 0, 51, 0
3, 9024, Note_on_c, 0, 58, 80
3, 9024, Note_on_c, 0, 51, 80
3, 9215, Note_off_c, 0, 51, 0
3, 9215, Note_off_c, 0, 58, 0
3, 9216, Note_on_c, 0, 63, 80
3, 9216, Note_on_c, 0, 63, 80
3, 9263, Note_off_c, 0, 63, 0
3, 9263, Note_off_c, 0, 63, 0
3, 9264, Note_on_c, 0, 61, 80
3, 9264, Note_on_c, 0, 61, 80
3, 9311, Note_off_c, 0, 61, 0
3, 9311, Note_off_c, 0, 61, 0
3, 9312, Note_on_c, 0, 63, 80
3, 9312, Note_on_c, 0, 63, 80
3, 9359, Note_off_c, 0, 63, 0
3, 9359, Note_off_c, 0, 63, 0
3, 9552, Note_on_c, 0, 62, 80
3, 9552, Note_on_c, 0, 58, 80
3, 9599, Note_off_c, 0, 62, 0
3, 9599, Note_off_c, 0, 58, 0
3, 9648, Note_on_c, 0, 62, 80
3, 9648, Note_on_c, 0, 58, 80
3, 9695, Note_off_c, 0, 62, 0
3, 9695, Note_off_c, 0, 58, 0
3, 9744, Note_on_c, 0, 63, 80
3, 9744, Note_on_c, 0, 58, 80
3, 9791, Note_off_c, 0, 63, 0
3, 9791, Note_off_c, 0, 58, 0
3, 9792, Note_on_c, 0, 63, 80
3, 9792, Note_on_c, 0, 58, 80
3, 9983, Note_off_c, 0, 58, 0
3, 9983, Note_off_c, 0, 63, 0
3, 9984, Note_on_c, 0, 63, 80
3, 9984, Note_on_c, 0, 63, 80
3, 10031, Note_off_c, 0, 63, 0
3, 10031, Note_off_c, 0, 63, 0
3, 10032, Note_on_c, 0, 61, 80
3, 10032, Note_on_c, 0, 61, 80
3, 10079, Note_off_c, 0, 61, 0
3, 10079, Note_off_c, 0, 61, 0
3, 10080, Note_on_c, 0, 63, 80
3, 10080, Note_on_c, 0, 63, 80
3, 10127, Note_off_c, 0, 63, 0
3, 10127, Note_off_c, 0, 63, 0
3, 10320, Note_on_c, 0, 62, 80
3, 10320, Note_on_c, 0, 58, 80
3, 10367, Note_off_c, 0, 62, 0
3, 10367, Note_off_c, 0, 58, 0
3, 10416, Note_on_c, 0, 58, 80
3, 10416, Note_on_c, 0, 62, 80
3, 10463, Note_off_c, 0, 58, 0
3, 10463, Note_off_c, 0, 62, 0
3, 10512, Note_on_c, 0, 60, 80
3, 10512, Note_on_c, 0, 58, 80
3, 10559, Note_off_c, 0, 58, 0
3, 10559, Note_off_c, 0, 60, 0
3, 10560, Note_on_c, 0, 58, 80
3, 10560, Note_on_c, 0, 60, 80
3, 10703, Note_off_c, 0, 60, 0
3, 10703, Note_off_c, 0, 58, 0
3, 10752, Note_on_c, 0, 67, 80
3, 10752, Note_on_c, 0, 63, 80
3, 10943, Note_off_c, 0, 63, 0
3, 10943, Note_off_c, 0, 67, 0
3, 10944, Note_on_c, 0, 65, 80
3, 10944, Note_on_c, 0, 63, 80
3, 11135, Note_off_c, 0, 63, 0
3, 11135, Note_off_c, 0, 65, 0
3, 11136, Note_on_c, 0, 65, 80
3, 11136, Note_on_c, 0, 63, 80
3, 11327, Note_off_c, 0, 63, 0
3, 11327, Note_off_c, 0, 65, 0
3, 11328, Note_on_c, 0, 65, 80
3, 11328, Note_on_c, 0, 63, 80
3, 11375, Note_off_c, 0, 65, 0
3, 11375, Note_off_c, 0, 63, 0
3, 11376, Note_on_c, 0, 65, 80
3, 11376, Note_on_c, 0, 63, 80
3, 11423, Note_off_c, 0, 63, 0
3, 11423, Note_off_c, 0, 65, 0
3, 11424, Note_on_c, 0, 65, 80
3, 11424, Note_on_c, 0, 63, 80
3, 11471, Note_off_c, 0, 63, 0
3, 11471, Note_off_c, 0, 65, 0
3, 11520, Note_on_c, 0, 63, 80
3, 11520, Note_on_c, 0, 67, 80
3, 11711, Note_off_c, 0, 67, 0
3, 11711, Note_off_c, 0, 63, 0
3, 11712, Note_on_c, 0, 63, 80
3, 11712, Note_on_c, 0, 65, 80
3, 11855, Note_off_c, 0, 65, 0
3, 11855, Note_off_c, 0, 63, 0
3, 11856, Note_on_c, 0, 61, 80
3, 11856, Note_on_c, 0, 58, 80
3, 12095, Note_off_c, 0, 58, 0
3, 12095, Note_off_c, 0, 61, 0
3, 12096, Note_on_c, 0, 60, 80
3, 12096, Note_on_c, 0, 63, 80
3, 12239, Note_off_c, 0, 63, 0
3, 12239, Note_off_c, 0, 60, 0
3, 12240, Note_on_c, 0, 61, 80
3, 12240, Note_on_c, 0, 70, 80
3, 12335, Note_off_c, 0, 70, 0
3, 12335, Note_off_c, 0, 61, 0
3, 12336, Note_on_c, 0, 61, 80
3, 12336, Note_on_c, 0, 68, 80
3, 12383, Note_off_c, 0, 61, 0
3, 12383, Note_off_c, 0, 68, 0
3, 12384, Note_on_c, 0, 61, 80
3, 12384, Note_on_c, 0, 70, 80
3, 12431, Note_off_c, 0, 61, 0
3, 12431, Note_off_c, 0, 70, 0
3, 12432, Note_on_c, 0, 61, 80
3, 12432, Note_on_c, 0, 68, 80
3, 12479, Note_off_c, 0, 61, 0
3, 12479, Note_off_c, 0, 68, 0
3, 12480, Note_on_c, 0, 63, 80
3, 12480, Note_on_c, 0, 70, 80
3, 12527, Note_off_c, 0, 63, 0
3, 12527, Note_off_c, 0, 70, 0
3, 12528, Note_on_c, 0, 63, 80
3, 12528, Note_on_c, 0, 68, 80
3, 12575, Note_off_c, 0, 63, 0
3, 12575, Note_off_c, 0, 68, 0
3, 12576, Note_on_c, 0, 63, 80
3, 12576, Note_on_c, 0, 72, 80
3, 12623, Note_off_c, 0, 72, 0
3, 12623, Note_off_c, 0, 63, 0
3, 12768, Note_on_c, 0, 65, 80
3, 12768, Note_on_c, 0, 70, 80
3, 12815, Note_off_c, 0, 65, 0
3, 12816, Note_on_c, 0, 67, 80
3, 13103, Note_off_c, 0, 67, 0
3, 13151, Note_off_c, 0, 70, 0
3, 13152, Note_on_c, 0, 70, 80
3, 13152, Note_on_c, 0, 67, 80
3, 13199, Note_off_c, 0, 70, 0
3, 13199, Note_off_c, 0, 67, 0
3, 13200, Note_on_c, 0, 70, 80
3, 13200, Note_on_c, 0, 67, 80
3, 13247, Note_off_c, 0, 70, 0
3, 13247, Note_off_c, 0, 67, 0
3, 13248, Note_on_c, 0, 67, 80
3, 13248, Note_on_c, 0, 70, 80
3, 13295, Note_off_c, 0, 67, 0
3, 13295, Note_off_c, 0, 70, 0
3, 13296, Note_on_c, 0, 72, 80
3, 13296, Note_on_c, 0, 65, 80
3, 13343, Note_off_c, 0, 72, 0
3, 13343, Note_off_c, 0, 65, 0
3, 13344, Note_on_c, 0, 70, 80
3, 13344, Note_on_c, 0, 63, 80
3, 13391, Note_off_c, 0, 70, 0
3, 13391, Note_off_c, 0, 63, 0
3, 13392, Note_on_c, 0, 70, 80
3, 13392, Note_on_c, 0, 65, 80
3, 13871, Note_off_c, 0, 65, 0
3, 13871, Note_off_c, 0, 70, 0
3, 13920, Note_on_c, 0, 67, 80
3, 13920, Note_on_c, 0, 67, 80
3, 13967, Note_off_c, 0, 67, 0
3, 13967, Note_off_c, 0, 67, 0
3, 13968, Note_on_c, 0, 67, 80
3, 13968, Note_on_c, 0, 67, 80
3, 14015, Note_off_c, 0, 67, 0
3, 14015, Note_off_c, 0, 67, 0
3, 14016, Note_on_c, 0, 67, 80
3, 14016, Note_on_c, 0, 67, 80
3, 14063, Note_off_c, 0, 67, 0
3, 14063, Note_off_c, 0, 67, 0
3, 14064, Note_on_c, 0, 65, 80
3, 14064, Note_on_c, 0, 65, 80
3, 14111, Note_off_c, 0, 65, 0
3, 14111, Note_off_c, 0, 65, 0
3, 14112, Note_on_c, 0, 63, 80
3, 14112, Note_on_c, 0, 63, 80
3, 14159, Note_off_c, 0, 63, 0
3, 14159, Note_off_c, 0, 63, 0
3, 14160, Note_on_c, 0, 65, 80
3, 14160, Note_on_c, 0, 65, 80
3, 14399, Note_off_c, 0, 65, 0
3, 14399, Note_off_c, 0, 65, 0
3, 14400, Note_on_c, 0, 67, 80
3, 14400, Note_on_c, 0, 67, 80
3, 14591, Note_off_c, 0, 67, 0
3, 14591, Note_off_c, 0, 67, 0
3, 14592, Note_on_c, 0, 63, 80
3, 14592, Note_on_c, 0, 63, 80
3, 14783, Note_off_c, 0, 63, 0
3, 14783, Note_off_c, 0, 63, 0
3, 14784, Note_on_c, 0, 60, 80
3, 14784, Note_on_c, 0, 60, 80
3, 14927, Note_off_c, 0, 60, 0
3, 14927, Note_off_c, 0, 60, 0
3, 14928, Note_on_c, 0, 58, 80
3, 14928, Note_on_c, 0, 58, 80
3, 14975, Note_off_c, 0, 58, 0
3, 14975, Note_off_c, 0, 58, 0
3, 14976, Note_on_c, 0, 60, 80
3, 14976, Note_on_c, 0, 60, 80
3, 15023, Note_off_c, 0, 60, 0
3, 15023, Note_off_c, 0, 60, 0
3, 15024, Note_on_c, 0, 58, 80
3, 15024, Note_on_c, 0, 58, 80
3, 15167, Note_off_c, 0, 58, 0
3, 15167, Note_off_c, 0, 58, 0
3, 15168, Note_on_c, 0, 68, 80
3, 15168, Note_on_c, 0, 68, 80
3, 15215, Note_off_c, 0, 68, 0
3, 15215, Note_off_c, 0, 68, 0
3, 15216, Note_on_c, 0, 67, 80
3, 15216, Note_on_c, 0, 67, 80
3, 15263, Note_off_c, 0, 67, 0
3, 15263, Note_off_c, 0, 67, 0
3, 15312, Note_on_c, 0, 65, 80
3, 15312, Note_on_c, 0, 65, 80
3, 15695, Note_off_c, 0, 65, 0
3, 15695, Note_off_c, 0, 65, 0
3, 15744, Note_on_c, 0, 70, 80
3, 15744, Note_on_c, 0, 70, 80
3, 15983, Note_off_c, 0, 70, 0
3, 15983, Note_off_c, 0, 70, 0
3, 15984, Note_on_c, 0, 72, 80
3, 15984, Note_on_c, 0, 72, 80
3, 16079, Note_off_c, 0, 72, 0
3, 16079, Note_off_c, 0, 72, 0
3, 16080, Note_on_c, 0, 67, 80
3, 16080, Note_on_c, 0, 67, 80
3, 16415, Note_off_c, 0, 67, 0
3, 16415, Note_off_c, 0, 67, 0
3, 16464, Note_on_c, 0, 70, 80
3, 16464, Note_on_c, 0, 70, 80
3, 16751, Note_off_c, 0, 70, 0
3, 16751, Note_off_c, 0, 70, 0
3, 16752, Note_on_c, 0, 72, 80
3, 16752, Note_on_c, 0, 72, 80
3, 16847, Note_off_c, 0, 72, 0
3, 16847, Note_off_c, 0, 72, 0
3, 16848, Note_on_c, 0, 65, 80
3, 16848, Note_on_c, 0, 65, 80
3, 17183, Note_off_c, 0, 65, 0
3, 17183, Note_off_c, 0, 65, 0
3, 17280, Note_on_c, 0, 65, 80
3, 17280, Note_on_c, 0, 65, 80
3, 17471, Note_off_c, 0, 65, 0
3, 17471, Note_off_c, 0, 65, 0
3, 17472, Note_on_c, 0, 67, 80
3, 17472, Note_on_c, 0, 67, 80
3, 17663, Note_off_c, 0, 67, 0
3, 17663, Note_off_c, 0, 67, 0
3, 17664, Note_on_c, 0, 68, 80
3, 17664, Note_on_c, 0, 68, 80
3, 17759, Note_off_c, 0, 68, 0
3, 17760, Note_on_c, 0, 67, 80
3, 17855, Note_off_c, 0, 68, 0
3, 17855, Note_off_c, 0, 67, 0
3, 17856, Note_on_c, 0, 65, 80
3, 17856, Note_on_c, 0, 72, 80
3, 17951, Note_off_c, 0, 65, 0
3, 17952, Note_on_c, 0, 63, 80
3, 17999, Note_off_c, 0, 72, 0
3, 18000, Note_on_c, 0, 70, 80
3, 18047, Note_off_c, 0, 63, 0
3, 18047, Note_off_c, 0, 70, 0
3, 18048, Note_on_c, 0, 72, 80
3, 18048, Note_on_c, 0, 65, 80
3, 18095, Note_off_c, 0, 72, 0
3, 18096, Note_on_c, 0, 70, 80
3, 18479, Note_off_c, 0, 65, 0
3, 18479, Note_off_c, 0, 70, 0
3, 18528, Note_on_c, 0, 68, 80
3, 18528, Note_on_c, 0, 68, 80
3, 18575, Note_off_c, 0, 68, 0
3, 18575, Note_off_c, 0, 68, 0
3, 18576, Note_on_c, 0, 67, 80
3, 18576, Note_on_c, 0, 67, 80
3, 18623, Note_off_c, 0, 67, 0
3, 18623, Note_off_c, 0, 67, 0
3, 18624, Note_on_c, 0, 68, 80
3, 18624, Note_on_c, 0, 68, 80
3, 18671, Note_off_c, 0, 68, 0
3, 18671, Note_off_c, 0, 68, 0
3, 18672, Note_on_c, 0, 67, 80
3, 18672, Note_on_c, 0, 67, 80
3, 18719, Note_off_c, 0, 67, 0
3, 18719, Note_off_c, 0, 67, 0
3, 18720, Note_on_c, 0, 63, 80
3, 18720, Note_on_c, 0, 63, 80
3, 18767, Note_off_c, 0, 63, 0
3, 18767, Note_off_c, 0, 63, 0
3, 18768, Note_on_c, 0, 65, 80
3, 18768, Note_on_c, 0, 65, 80
3, 18911, Note_off_c, 0, 65, 0
3, 18911, Note_off_c, 0, 65, 0
3, 18912, Note_on_c, 0, 70, 80
3, 18912, Note_on_c, 0, 70, 80
3, 19007, Note_off_c, 0, 70, 0
3, 19007, Note_off_c, 0, 70, 0
3, 19008, Note_on_c, 0, 68, 80
3, 19008, Note_on_c, 0, 68, 80
3, 19055, Note_off_c, 0, 68, 0
3, 19055, Note_off_c, 0, 68, 0
3, 19056, Note_on_c, 0, 67, 80
3, 19056, Note_on_c, 0, 67, 80
3, 19103, Note_off_c, 0, 67, 0
3, 19103, Note_off_c, 0, 67, 0
3, 19152, Note_on_c, 0, 65, 80
3, 19152, Note_on_c, 0, 65, 80
3, 19535, Note_off_c, 0, 65, 0
3, 19535, Note_off_c, 0, 65, 0
3, 19584, Note_on_c, 0, 58, 96
3, 19584, Note_on_c, 0, 58, 96
3, 19631, Note_off_c, 0, 58, 0
3, 19631, Note_off_c, 0, 58, 0
3, 19632, Note_on_c, 0, 56, 80
3, 19632, Note_on_c, 0, 56, 80
3, 19679, Note_off_c, 0, 56, 0
3, 19679, Note_off_c, 0, 56, 0
3, 19680, Note_on_c, 0, 58, 80
3, 19680, Note_on_c, 0, 58, 80
3, 19727, Note_off_c, 0, 58, 0
3, 19727, Note_off_c, 0, 58, 0
3, 19728, Note_on_c, 0, 67, 96
3, 19728, Note_on_c, 0, 67, 96
3, 19823, Note_off_c, 0, 67, 0
3, 19823, Note_off_c, 0, 67, 0
3, 19824, Note_on_c, 0, 63, 80
3, 19824, Note_on_c, 0, 63, 80
3, 19919, Note_off_c, 0, 63, 0
3, 19919, Note_off_c, 0, 63, 0
3, 19920, Note_on_c, 0, 65, 96
3, 19920, Note_on_c, 0, 65, 96
3, 19951, Note_off_c, 0, 65, 0
3, 19951, Note_off_c, 0, 65, 0
3, 20016, Note_on_c, 0, 65, 96
3, 20016, Note_on_c, 0, 65, 96
3, 20047, Note_off_c, 0, 65, 0
3, 20047, Note_off_c, 0, 65, 0
3, 20112, Note_on_c, 0, 63, 80
3, 20112, Note_on_c, 0, 63, 80
3, 20159, Note_off_c, 0, 63, 0
3, 20159, Note_off_c, 0, 63, 0
3, 20160, Note_on_c, 0, 63, 96
3, 20160, Note_on_c, 0, 63, 96
3, 20255, Note_off_c, 0, 63, 0
3, 20255, Note_off_c, 0, 63, 0
3, 20256, Note_on_c, 0, 58, 80
3, 20256, Note_on_c, 0, 58, 80
3, 20279, Note_off_c, 0, 58, 0
3, 20279, Note_off_c, 0, 58, 0
3, 20280, Note_on_c, 0, 61, 80
3, 20280, Note_on_c, 0, 61, 80
3, 20303, Note_off_c, 0, 61, 0
3, 20303, Note_off_c, 0, 61, 0
3, 20304, Note_on_c, 0, 63, 80
3, 20304, Note_on_c, 0, 63, 80
3, 20327, Note_off_c, 0, 63, 0
3, 20327, Note_off_c, 0, 63, 0
3, 20328, Note_on_c, 0, 61, 80
3, 20328, Note_on_c, 0, 61, 80
3, 20351, Note_off_c, 0, 61, 0
3, 20351, Note_off_c, 0, 61, 0
3, 20352, Note_on_c, 0, 63, 80
3, 20352, Note_on_c, 0, 63, 80
3, 20399, Note_off_c, 0, 63, 0
3, 20399, Note_off_c, 0, 63, 0
3, 20400, Note_on_c, 0, 61, 80
3, 20400, Note_on_c, 0, 61, 80
3, 20447, Note_off_c, 0, 61, 0
3, 20447, Note_off_c, 0, 61, 0
3, 20448, Note_on_c, 0, 63, 80
3, 20448, Note_on_c, 0, 63, 80
3, 20495, Note_off_c, 0, 63, 0
3, 20495, Note_off_c, 0, 63, 0
3, 20736, Control_c, 0, 101, 0
3, 20736, Control_c, 0, 100, 0
3, 20736, Control_c, 0, 6, 12
3, 20736, Control_c, 0, 10, 64
3, 20736, Control_c, 0, 7, 100
3, 20736, Pitch_bend_c, 0, 8192
3, 20736, Program_c, 0, 65
3, 20736, Control_c, 0, 101, 0
3, 20736, Control_c, 0, 100, 0
3, 20736, Control_c, 0, 6, 12
3, 20736, Control_c, 0, 10, 64
3, 20736, Control_c, 0, 7, 100
3, 20736, Pitch_bend_c, 0, 8192
3, 20736, Program_c, 0, 65
3, 20736, Control_c, 0, 101, 0
3, 20736, Control_c, 0, 100, 0
3, 20736, Control_c, 0, 6, 12
3, 20736, Control_c, 0, 10, 64
3, 20736, Control_c, 0, 7, 100
3, 20736, Pitch_bend_c, 0, 8192
3, 20736, Program_c, 0, 65
3, 20736, End_track
4, 0, Start_track
4, 0, Control_c, 1, 10, 64
4, 0, Control_c, 1, 7, 100
4, 0, Pitch_bend_c, 1, 8192
4, 0, Control_c, 1, 101, 0
4, 0, Control_c, 1, 100, 0
4, 0, Control_c, 1, 6, 12
4, 0, Control_c, 1, 10, 64
4, 0, Control_c, 1, 7, 100
4, 0, Pitch_bend_c, 1, 8192
4, 0, Program_c, 1, 71
4, 0, Control_c, 1, 101, 0
4, 0, Control_c, 1, 100, 0
4, 0, Control_c, 1, 6, 12
4, 0, Control_c, 1, 10, 64
4, 0, Control_c, 1, 7, 100
4, 0, Pitch_bend_c, 1, 8192
4, 0, Program_c, 1, 71
4, 0, Note_on_c, 1, 58, 80
4, 0, Note_on_c, 1, 51, 80
4, 335, Note_off_c, 1, 51, 0
4, 335, Note_off_c, 1, 58, 0
4, 336, Note_on_c, 1, 58, 80
4, 336, Note_on_c, 1, 53, 80
4, 383, Note_off_c, 1, 53, 0
4, 383, Note_off_c, 1, 58, 0
4, 432, Note_on_c, 1, 53, 80
4, 432, Note_on_c, 1, 58, 80
4, 479, Note_off_c, 1, 53, 0
4, 479, Note_off_c, 1, 58, 0
4, 528, Note_on_c, 1, 58, 80
4, 528, Note_on_c, 1, 51, 80
4, 575, Note_off_c, 1, 58, 0
4, 575, Note_off_c, 1, 51, 0
4, 576, Note_on_c, 1, 58, 80
4, 576, Note_on_c, 1, 51, 80
4, 719, Note_off_c, 1, 51, 0
4, 719, Note_off_c, 1, 58, 0
4, 768, Note_on_c, 1, 70, 96
4, 768, Note_on_c, 1, 70, 96
4, 815, Note_off_c, 1, 70, 0
4, 815, Note_off_c, 1, 70, 0
4, 816, Note_on_c, 1, 68, 80
4, 816, Note_on_c, 1, 68, 80
4, 863, Note_off_c, 1, 68, 0
4, 863, Note_off_c, 1, 68, 0
4, 864, Note_on_c, 1, 70, 80
4, 864, Note_on_c, 1, 70, 80
4, 911, Note_off_c, 1, 70, 0
4, 911, Note_off_c, 1, 70, 0
4, 912, Note_on_c, 1, 79, 96
4, 912, Note_on_c, 1, 79, 96
4, 1007, Note_off_c, 1, 79, 0
4, 1007, Note_off_c, 1, 79, 0
4, 1008, Note_on_c, 1, 75, 80
4, 1008, Note_on_c, 1, 75, 80
4, 1103, Note_off_c, 1, 75, 0
4, 1103, Note_off_c, 1, 75, 0
4, 1104, Note_on_c, 1, 77, 96
4, 1104, Note_on_c, 1, 77, 96
4, 1135, Note_off_c, 1, 77, 0
4, 1135, Note_off_c, 1, 77, 0
4, 1200, Note_on_c, 1, 77, 96
4, 1200, Note_on_c, 1, 77, 96
4, 1231, Note_off_c, 1, 77, 0
4, 1231, Note_off_c, 1, 77, 0
4, 1296, Note_on_c, 1, 75, 80
4, 1296, Note_on_c, 1, 75, 80
4, 1343, Note_off_c, 1, 75, 0
4, 1343, Note_off_c, 1, 75, 0
4, 1344, Note_on_c, 1, 75, 96
4, 1344, Note_on_c, 1, 75, 96
4, 1535, Note_off_c, 1, 75, 0
4, 1535, Note_off_c, 1, 75, 0
4, 1632, Note_on_c, 1, 79, 80
4, 1632, Note_on_c, 1, 67, 80
4, 1727, Note_off_c, 1, 79, 0
4, 1727, Note_off_c, 1, 67, 0
4, 1728, Note_on_c, 1, 77, 80
4, 1728, Note_on_c, 1, 65, 80
4, 1775, Note_off_c, 1, 77, 0
4, 1775, Note_off_c, 1, 65, 0
4, 1776, Note_on_c, 1, 75, 80
4, 1776, Note_on_c, 1, 63, 80
4, 1871, Note_off_c, 1, 75, 0
4, 1871, Note_off_c, 1, 63, 0
4, 1872, Note_on_c, 1, 62, 80
4, 1872, Note_on_c, 1, 74, 80
4, 1967, Note_off_c, 1, 74, 0
4, 1967, Note_off_c, 1, 62, 0
4, 1968, Note_on_c, 1, 75, 80
4, 1968, Note_on_c, 1, 63, 80
4, 2063, Note_off_c, 1, 63, 0
4, 2063, Note_off_c, 1, 75, 0
4, 2064, Note_on_c, 1, 75, 80
4, 2064, Note_on_c, 1, 63, 80
4, 2303, Note_off_c, 1, 63, 0
4, 2303, Note_off_c, 1, 75, 0
4, 2400, Note_on_c, 1, 79, 80
4, 2400, Note_on_c, 1, 67, 80
4, 2495, Note_off_c, 1, 79, 0
4, 2495, Note_off_c, 1, 67, 0
4, 2496, Note_on_c, 1, 65, 80
4, 2496, Note_on_c, 1, 77, 80
4, 2543, Note_off_c, 1, 65, 0
4, 2543, Note_off_c, 1, 77, 0
4, 2544, Note_on_c, 1, 63, 80
4, 2544, Note_on_c, 1, 75, 80
4, 2639, Note_off_c, 1, 63, 0
4, 2639, Note_off_c, 1, 75, 0
4, 2640, Note_on_c, 1, 74, 80
4, 2640, Note_on_c, 1, 62, 80
4, 2735, Note_off_c, 1, 62, 0
4, 2735, Note_off_c, 1, 74, 0
4, 2736, Note_on_c, 1, 63, 80
4, 2736, Note_on_c, 1, 75, 80
4, 2831, Note_off_c, 1, 75, 0
4, 2831, Note_off_c, 1, 63, 0
4, 2832, Note_on_c, 1, 60, 80
4, 2832, Note_on_c, 1, 72, 80
4, 2927, Note_off_c, 1, 72, 0
4, 2927, Note_off_c, 1, 60, 0
4, 2928, Note_on_c, 1, 70, 80
4, 2928, Note_on_c, 1, 58, 80
4, 3071, Note_off_c, 1, 70, 0
4, 3071, Note_off_c, 1, 58, 0
4, 3168, Note_on_c, 1, 79, 80
4, 3168, Note_on_c, 1, 70, 80
4, 3263, Note_off_c, 1, 79, 0
4, 3263, Note_off_c, 1, 70, 0
4, 3264, Note_on_c, 1, 77, 80
4, 3264, Note_on_c, 1, 70, 80
4, 3311, Note_off_c, 1, 77, 0
4, 3311, Note_off_c, 1, 70, 0
4, 3312, Note_on_c, 1, 75, 80
4, 3312, Note_on_c, 1, 70, 80
4, 3407, Note_off_c, 1, 75, 0
4, 3407, Note_off_c, 1, 70, 0
4, 3408, Note_on_c, 1, 70, 80
4, 3408, Note_on_c, 1, 74, 80
4, 3503, Note_off_c, 1, 74, 0
4, 3503, Note_off_c, 1, 70, 0
4, 3504, Note_on_c, 1, 75, 80
4, 3504, Note_on_c, 1, 70, 80
4, 3599, Note_off_c, 1, 70, 0
4, 3599, Note_off_c, 1, 75, 0
4, 3600, Note_on_c, 1, 75, 80
4, 3600, Note_on_c, 1, 70, 80
4, 3839, Note_off_c, 1, 70, 0
4, 3839, Note_off_c, 1, 75, 0
4, 3936, Note_on_c, 1, 70, 80
4, 3936, Note_on_c, 1, 79, 80
4, 4031, Note_off_c, 1, 70, 0
4, 4031, Note_off_c, 1, 79, 0
4, 4032, Note_on_c, 1, 77, 80
4, 4032, Note_on_c, 1, 70, 80
4, 4079, Note_off_c, 1, 77, 0
4, 4079, Note_off_c, 1, 70, 0
4, 4080, Note_on_c, 1, 75, 80
4, 4080, Note_on_c, 1, 70, 80
4, 4175, Note_off_c, 1, 75, 0
4, 4175, Note_off_c, 1, 70, 0
4, 4176, Note_on_c, 1, 77, 80
4, 4176, Note_on_c, 1, 75, 80
4, 4271, Note_off_c, 1, 75, 0
4, 4271, Note_off_c, 1, 77, 0
4, 4272, Note_on_c, 1, 75, 80
4, 4272, Note_on_c, 1, 79, 80
4, 4319, Note_off_c, 1, 75, 0
4, 4319, Note_off_c, 1, 79, 0
4, 4368, Note_on_c, 1, 75, 80
4, 4368, Note_on_c, 1, 80, 80
4, 4415, Note_off_c, 1, 75, 0
4, 4415, Note_off_c, 1, 80, 0
4, 4464, Note_on_c, 1, 75, 80
4, 4464, Note_on_c, 1, 79, 80
4, 4559, Note_off_c, 1, 79, 0
4, 4559, Note_off_c, 1, 75, 0
4, 4608, Note_on_c, 1, 79, 80
4, 4608, Note_on_c, 1, 82, 80
4, 5039, Note_off_c, 1, 82, 0
4, 5039, Note_off_c, 1, 79, 0
4, 5088, Note_on_c, 1, 79, 80
4, 5088, Note_on_c, 1, 75, 80
4, 5135, Note_off_c, 1, 79, 0
4, 5135, Note_off_c, 1, 75, 0
4, 5136, Note_on_c, 1, 79, 80
4, 5136, Note_on_c, 1, 75, 80
4, 5183, Note_off_c, 1, 79, 0
4, 5183, Note_off_c, 1, 75, 0
4, 5184, Note_on_c, 1, 75, 80
4, 5184, Note_on_c, 1, 79, 80
4, 5231, Note_off_c, 1, 75, 0
4, 5231, Note_off_c, 1, 79, 0
4, 5232, Note_on_c, 1, 77, 80
4, 5232, Note_on_c, 1, 72, 80
4, 5279, Note_off_c, 1, 77, 0
4, 5279, Note_off_c, 1, 72, 0
4, 5280, Note_on_c, 1, 75, 80
4, 5280, Note_on_c, 1, 70, 80
4, 5327, Note_off_c, 1, 75, 0
4, 5327, Note_off_c, 1, 70, 0
4, 5328, Note_on_c, 1, 77, 80
4, 5328, Note_on_c, 1, 74, 80
4, 5807, Note_off_c, 1, 77, 0
4, 5807, Note_off_c, 1, 74, 0
4, 6144, Note_on_c, 1, 56, 80
4, 6144, Note_on_c, 1, 53, 80
4, 6335, Note_off_c, 1, 53, 0
4, 6335, Note_off_c, 1, 56, 0
4, 6336, Note_on_c, 1, 58, 80
4, 6336, Note_on_c, 1, 51, 80
4, 6527, Note_off_c, 1, 51, 0
4, 6527, Note_off_c, 1, 58, 0
4, 6528, Note_on_c, 1, 51, 80
4, 6528, Note_on_c, 1, 56, 80
4, 6719, Note_off_c, 1, 56, 0
4, 6719, Note_off_c, 1, 51, 0
4, 6720, Note_on_c, 1, 51, 80
4, 6720, Note_on_c, 1, 51, 80
4, 6911, Note_off_c, 1, 51, 0
4, 6911, Note_off_c, 1, 51, 0
4, 6912, Note_on_c, 1, 53, 80
4, 6912, Note_on_c, 1, 53, 80
4, 7103, Note_off_c, 1, 53, 0
4, 7103, Note_off_c, 1, 53, 0
4, 7344, Note_on_c, 1, 58, 80
4, 7344, Note_on_c, 1, 70, 80
4, 7391, Note_off_c, 1, 58, 0
4, 7391, Note_off_c, 1, 70, 0
4, 7392, Note_on_c, 1, 80, 80
4, 7392, Note_on_c, 1, 68, 80
4, 7439, Note_off_c, 1, 80, 0
4, 7439, Note_off_c, 1, 68, 0
4, 7440, Note_on_c, 1, 79, 80
4, 7440, Note_on_c, 1, 67, 80
4, 7487, Note_off_c, 1, 67, 0
4, 7487, Note_off_c, 1, 79, 0
4, 7488, Note_on_c, 1, 80, 80
4, 7488, Note_on_c, 1, 68, 80
4, 7535, Note_off_c, 1, 68, 0
4, 7535, Note_off_c, 1, 80, 0
4, 7536, Note_on_c, 1, 67, 80
4, 7536, Note_on_c, 1, 79, 80
4, 7583, Note_off_c, 1, 67, 0
4, 7583, Note_off_c, 1, 79, 0
4, 7584, Note_on_c, 1, 75, 80
4, 7584, Note_on_c, 1, 75, 80
4, 7631, Note_off_c, 1, 75, 0
4, 7631, Note_off_c, 1, 75, 0
4, 7632, Note_on_c, 1, 75, 80
4, 7632, Note_on_c, 1, 75, 80
4, 7679, Note_off_c, 1, 75, 0
4, 7679, Note_off_c, 1, 75, 0
4, 8016, Note_on_c, 1, 58, 80
4, 8016, Note_on_c, 1, 53, 80
4, 8063, Note_off_c, 1, 58, 0
4, 8063, Note_off_c, 1, 53, 0
4, 8112, Note_on_c, 1, 58, 80
4, 8112, Note_on_c, 1, 53, 80
4, 8159, Note_off_c, 1, 58, 0
4, 8159, Note_off_c, 1, 53, 0
4, 8208, Note_on_c, 1, 58, 80
4, 8208, Note_on_c, 1, 51, 80
4, 8255, Note_off_c, 1, 58, 0
4, 8255, Note_off_c, 1, 51, 0
4, 8256, Note_on_c, 1, 58, 80
4, 8256, Note_on_c, 1, 51, 80
4, 8447, Note_off_c, 1, 51, 0
4, 8447, Note_off_c, 1, 58, 0
4, 8784, Note_on_c, 1, 58, 80
4, 8784, Note_on_c, 1, 53, 80
4, 8831, Note_off_c, 1, 58, 0
4, 8831, Note_off_c, 1, 53, 0
4, 8880, Note_on_c, 1, 58, 80
4, 8880, Note_on_c, 1, 53, 80
4, 8927, Note_off_c, 1, 58, 0
4, 8927, Note_off_c, 1, 53, 0
4, 8976, Note_on_c, 1, 58, 80
4, 8976, Note_on_c, 1, 51, 80
4, 9023, Note_off_c, 1, 58, 0
4, 9023, Note_off_c, 1, 51, 0
4, 9024, Note_on_c, 1, 58, 80
4, 9024, Note_on_c, 1, 51, 80
4, 9215, Note_off_c, 1, 51, 0
4, 9215, Note_off_c, 1, 58, 0
4, 9552, Note_on_c, 1, 58, 80
4, 9552, Note_on_c, 1, 53, 80
4, 9599, Note_off_c, 1, 58, 0
4, 9599, Note_off_c, 1, 53, 0
4, 9648, Note_on_c, 1, 58, 80
4, 9648, Note_on_c, 1, 53, 80
4, 9695, Note_off_c, 1, 58, 0
4, 9695, Note_off_c, 1, 53, 0
4, 9744, Note_on_c, 1, 58, 80
4, 9744, Note_on_c, 1, 51, 80
4, 9791, Note_off_c, 1, 58, 0
4, 9791, Note_off_c, 1, 51, 0
4, 9792, Note_on_c, 1, 58, 80
4, 9792, Note_on_c, 1, 51, 80
4, 9983, Note_off_c, 1, 51, 0
4, 9983, Note_off_c, 1, 58, 0
4, 10320, Note_on_c, 1, 58, 80
4, 10320, Note_on_c, 1, 53, 80
4, 10367, Note_off_c, 1, 58, 0
4, 10367, Note_off_c, 1, 53, 0
4, 10416, Note_on_c, 1, 53, 80
4, 10416, Note_on_c, 1, 58, 80
4, 10463, Note_off_c, 1, 53, 0
4, 10463, Note_off_c, 1, 58, 0
4, 10512, Note_on_c, 1, 58, 80
4, 10512, Note_on_c, 1, 51, 80
4, 10559, Note_off_c, 1, 58, 0
4, 10559, Note_off_c, 1, 51, 0
4, 10560, Note_on_c, 1, 51, 80
4, 10560, Note_on_c, 1, 58, 80
4, 10703, Note_off_c, 1, 58, 0
4, 10703, Note_off_c, 1, 51, 0
4, 10752, Note_on_c, 1, 82, 80
4, 10752, Note_on_c, 1, 70, 80
4, 10799, Note_off_c, 1, 82, 0
4, 10800, Note_on_c, 1, 79, 80
4, 10847, Note_off_c, 1, 79, 0
4, 10848, Note_on_c, 1, 82, 80
4, 10895, Note_off_c, 1, 82, 0
4, 10896, Note_on_c, 1, 79, 80
4, 10943, Note_off_c, 1, 70, 0
4, 10943, Note_off_c, 1, 79, 0
4, 10944, Note_on_c, 1, 82, 80
4, 10944, Note_on_c, 1, 70, 80
4, 10991, Note_off_c, 1, 82, 0
4, 10992, Note_on_c, 1, 79, 80
4, 11039, Note_off_c, 1, 79, 0
4, 11040, Note_on_c, 1, 82, 80
4, 11087, Note_off_c, 1, 82, 0
4, 11088, Note_on_c, 1, 79, 80
4, 11135, Note_off_c, 1, 70, 0
4, 11135, Note_off_c, 1, 79, 0
4, 11136, Note_on_c, 1, 80, 80
4, 11136, Note_on_c, 1, 68, 80
4, 11183, Note_off_c, 1, 80, 0
4, 11184, Note_on_c, 1, 77, 80
4, 11231, Note_off_c, 1, 77, 0
4, 11232, Note_on_c, 1, 80, 80
4, 11279, Note_off_c, 1, 80, 0
4, 11280, Note_on_c, 1, 77, 80
4, 11327, Note_off_c, 1, 68, 0
4, 11327, Note_off_c, 1, 77, 0
4, 11328, Note_on_c, 1, 80, 80
4, 11328, Note_on_c, 1, 68, 80
4, 11375, Note_off_c, 1, 80, 0
4, 11375, Note_off_c, 1, 68, 0
4, 11376, Note_on_c, 1, 77, 80
4, 11376, Note_on_c, 1, 68, 80
4, 11423, Note_off_c, 1, 77, 0
4, 11423, Note_off_c, 1, 68, 0
4, 11424, Note_on_c, 1, 80, 80
4, 11424, Note_on_c, 1, 68, 80
4, 11471, Note_off_c, 1, 80, 0
4, 11471, Note_off_c, 1, 68, 0
4, 11520, Note_on_c, 1, 70, 80
4, 11520, Note_on_c, 1, 82, 80
4, 11567, Note_off_c, 1, 82, 0
4, 11568, Note_on_c, 1, 79, 80
4, 11615, Note_off_c, 1, 79, 0
4, 11616, Note_on_c, 1, 82, 80
4, 11663, Note_off_c, 1, 82, 0
4, 11664, Note_on_c, 1, 79, 80
4, 11711, Note_off_c, 1, 70, 0
4, 11711, Note_off_c, 1, 79, 0
4, 11712, Note_on_c, 1, 70, 80
4, 11712, Note_on_c, 1, 82, 80
4, 11759, Note_off_c, 1, 82, 0
4, 11760, Note_on_c, 1, 79, 80
4, 11807, Note_off_c, 1, 79, 0
4, 11808, Note_on_c, 1, 82, 80
4, 11855, Note_off_c, 1, 70, 0
4, 11855, Note_off_c, 1, 82, 0
4, 11856, Note_on_c, 1, 82, 80
4, 11856, Note_on_c, 1, 70, 80
4, 11903, Note_off_c, 1, 82, 0
4, 11904, Note_on_c, 1, 82, 80
4, 11951, Note_off_c, 1, 82, 0
4, 11951, Note_off_c, 1, 70, 0
4, 11952, Note_on_c, 1, 80, 80
4, 11952, Note_on_c, 1, 68, 80
4, 11999, Note_off_c, 1, 68, 0
4, 11999, Note_off_c, 1, 80, 0
4, 12000, Note_on_c, 1, 70, 80
4, 12000, Note_on_c, 1, 82, 80
4, 12047, Note_off_c, 1, 70, 0
4, 12047, Note_off_c, 1, 82, 0
4, 12048, Note_on_c, 1, 68, 80
4, 12048, Note_on_c, 1, 80, 80
4, 12095, Note_off_c, 1, 80, 0
4, 12095, Note_off_c, 1, 68, 0
4, 12096, Note_on_c, 1, 70, 80
4, 12096, Note_on_c, 1, 82, 80
4, 12143, Note_off_c, 1, 70, 0
4, 12143, Note_off_c, 1, 82, 0
4, 12144, Note_on_c, 1, 68, 80
4, 12144, Note_on_c, 1, 80, 80
4, 12191, Note_off_c, 1, 68, 0
4, 12191, Note_off_c, 1, 80, 0
4, 12192, Note_on_c, 1, 82, 80
4, 12192, Note_on_c, 1, 70, 80
4, 12239, Note_off_c, 1, 82, 0
4, 12239, Note_off_c, 1, 70, 0
4, 12240, Note_on_c, 1, 75, 80
4, 12240, Note_on_c, 1, 82, 80
4, 12335, Note_off_c, 1, 82, 0
4, 12335, Note_off_c, 1, 75, 0
4, 12336, Note_on_c, 1, 73, 80
4, 12336, Note_on_c, 1, 80, 80
4, 12383, Note_off_c, 1, 73, 0
4, 12383, Note_off_c, 1, 80, 0
4, 12384, Note_on_c, 1, 75, 80
4, 12384, Note_on_c, 1, 82, 80
4, 12431, Note_off_c, 1, 75, 0
4, 12431, Note_off_c, 1, 82, 0
4, 12432, Note_on_c, 1, 73, 80
4, 12432, Note_on_c, 1, 80, 80
4, 12479, Note_off_c, 1, 73, 0
4, 12479, Note_off_c, 1, 80, 0
4, 12480, Note_on_c, 1, 75, 80
4, 12480, Note_on_c, 1, 82, 80
4, 12527, Note_off_c, 1, 82, 0
4, 12527, Note_off_c, 1, 75, 0
4, 12528, Note_on_c, 1, 73, 80
4, 12528, Note_on_c, 1, 80, 80
4, 12575, Note_off_c, 1, 73, 0
4, 12575, Note_off_c, 1, 80, 0
4, 12576, Note_on_c, 1, 75, 80
4, 12576, Note_on_c, 1, 80, 80
4, 12623, Note_off_c, 1, 80, 0
4, 12623, Note_off_c, 1, 75, 0
4, 12768, Note_on_c, 1, 79, 80
4, 12768, Note_on_c, 1, 82, 80
4, 13151, Note_off_c, 1, 82, 0
4, 13151, Note_off_c, 1, 79, 0
4, 13152, Note_on_c, 1, 79, 80
4, 13152, Note_on_c, 1, 75, 80
4, 13199, Note_off_c, 1, 79, 0
4, 13199, Note_off_c, 1, 75, 0
4, 13200, Note_on_c, 1, 79, 80
4, 13200, Note_on_c, 1, 75, 80
4, 13247, Note_off_c, 1, 79, 0
4, 13247, Note_off_c, 1, 75, 0
4, 13248, Note_on_c, 1, 75, 80
4, 13248, Note_on_c, 1, 79, 80
4, 13295, Note_off_c, 1, 75, 0
4, 13295, Note_off_c, 1, 79, 0
4, 13296, Note_on_c, 1, 77, 80
4, 13296, Note_on_c, 1, 72, 80
4, 13343, Note_off_c, 1, 77, 0
4, 13343, Note_off_c, 1, 72, 0
4, 13344, Note_on_c, 1, 75, 80
4, 13344, Note_on_c, 1, 70, 80
4, 13391, Note_off_c, 1, 75, 0
4, 13391, Note_off_c, 1, 70, 0
4, 13392, Note_on_c, 1, 77, 80
4, 13392, Note_on_c, 1, 74, 80
4, 13871, Note_off_c, 1, 77, 0
4, 13871, Note_off_c, 1, 74, 0
4, 14208, Note_on_c, 1, 56, 80
4, 14208, Note_on_c, 1, 53, 80
4, 14399, Note_off_c, 1, 53, 0
4, 14399, Note_off_c, 1, 56, 0
4, 14400, Note_on_c, 1, 58, 80
4, 14400, Note_on_c, 1, 51, 80
4, 14591, Note_off_c, 1, 51, 0
4, 14591, Note_off_c, 1, 58, 0
4, 14592, Note_on_c, 1, 51, 80
4, 14592, Note_on_c, 1, 56, 80
4, 14783, Note_off_c, 1, 56, 0
4, 14783, Note_off_c, 1, 51, 0
4, 14784, Note_on_c, 1, 51, 80
4, 14784, Note_on_c, 1, 51, 80
4, 14975, Note_off_c, 1, 51, 0
4, 14975, Note_off_c, 1, 51, 0
4, 14976, Note_on_c, 1, 53, 80
4, 14976, Note_on_c, 1, 53, 80
4, 15167, Note_off_c, 1, 53, 0
4, 15167, Note_off_c, 1, 53, 0
4, 15408, Note_on_c, 1, 70, 80
4, 15408, Note_on_c, 1, 70, 80
4, 15455, Note_off_c, 1, 70, 0
4, 15455, Note_off_c, 1, 70, 0
4, 15456, Note_on_c, 1, 80, 80
4, 15456, Note_on_c, 1, 80, 80
4, 15503, Note_off_c, 1, 80, 0
4, 15503, Note_off_c, 1, 80, 0
4, 15504, Note_on_c, 1, 79, 80
4, 15504, Note_on_c, 1, 79, 80
4, 15551, Note_off_c, 1, 79, 0
4, 15551, Note_off_c, 1, 79, 0
4, 15552, Note_on_c, 1, 80, 80
4, 15552, Note_on_c, 1, 80, 80
4, 15599, Note_off_c, 1, 80, 0
4, 15599, Note_off_c, 1, 80, 0
4, 15600, Note_on_c, 1, 79, 80
4, 15600, Note_on_c, 1, 79, 80
4, 15647, Note_off_c, 1, 79, 0
4, 15647, Note_off_c, 1, 79, 0
4, 15648, Note_on_c, 1, 75, 80
4, 15648, Note_on_c, 1, 75, 80
4, 15743, Note_off_c, 1, 75, 0
4, 15743, Note_off_c, 1, 75, 0
4, 15744, Note_on_c, 1, 75, 80
4, 15744, Note_on_c, 1, 75, 80
4, 15887, Note_off_c, 1, 75, 0
4, 15887, Note_off_c, 1, 75, 0
4, 15888, Note_on_c, 1, 72, 80
4, 15888, Note_on_c, 1, 72, 80
4, 15983, Note_off_c, 1, 72, 0
4, 15983, Note_off_c, 1, 72, 0
4, 15984, Note_on_c, 1, 70, 80
4, 15984, Note_on_c, 1, 70, 80
4, 16031, Note_off_c, 1, 70, 0
4, 16031, Note_off_c, 1, 70, 0
4, 16032, Note_on_c, 1, 72, 80
4, 16032, Note_on_c, 1, 72, 80
4, 16079, Note_off_c, 1, 72, 0
4, 16079, Note_off_c, 1, 72, 0
4, 16080, Note_on_c, 1, 75, 80
4, 16080, Note_on_c, 1, 75, 80
4, 16415, Note_off_c, 1, 75, 0
4, 16415, Note_off_c, 1, 75, 0
4, 16464, Note_on_c, 1, 72, 80
4, 16464, Note_on_c, 1, 72, 80
4, 16559, Note_off_c, 1, 72, 0
4, 16559, Note_off_c, 1, 72, 0
4, 16560, Note_on_c, 1, 74, 80
4, 16560, Note_on_c, 1, 74, 80
4, 16655, Note_off_c, 1, 74, 0
4, 16655, Note_off_c, 1, 74, 0
4, 16656, Note_on_c, 1, 75, 80
4, 16656, Note_on_c, 1, 75, 80
4, 16751, Note_off_c, 1, 75, 0
4, 16751, Note_off_c, 1, 75, 0
4, 16752, Note_on_c, 1, 74, 80
4, 16752, Note_on_c, 1, 74, 80
4, 16943, Note_off_c, 1, 74, 0
4, 16943, Note_off_c, 1, 74, 0
4, 16992, Note_on_c, 1, 67, 80
4, 16992, Note_on_c, 1, 79, 80
4, 17039, Note_off_c, 1, 67, 0
4, 17039, Note_off_c, 1, 79, 0
4, 17040, Note_on_c, 1, 79, 80
4, 17040, Note_on_c, 1, 67, 80
4, 17087, Note_off_c, 1, 67, 0
4, 17087, Note_off_c, 1, 79, 0
4, 17088, Note_on_c, 1, 67, 80
4, 17088, Note_on_c, 1, 79, 80
4, 17135, Note_off_c, 1, 67, 0
4, 17135, Note_off_c, 1, 79, 0
4, 17136, Note_on_c, 1, 65, 80
4, 17136, Note_on_c, 1, 77, 80
4, 17183, Note_off_c, 1, 65, 0
4, 17183, Note_off_c, 1, 77, 0
4, 17184, Note_on_c, 1, 75, 80
4, 17184, Note_on_c, 1, 63, 80
4, 17279, Note_off_c, 1, 63, 0
4, 17279, Note_off_c, 1, 75, 0
4, 17280, Note_on_c, 1, 68, 80
4, 17280, Note_on_c, 1, 72, 80
4, 17471, Note_off_c, 1, 68, 0
4, 17471, Note_off_c, 1, 72, 0
4, 17472, Note_on_c, 1, 70, 80
4, 17472, Note_on_c, 1, 75, 80
4, 17663, Note_off_c, 1, 70, 0
4, 17663, Note_off_c, 1, 75, 0
4, 17664, Note_on_c, 1, 75, 80
4, 17664, Note_on_c, 1, 72, 80
4, 17855, Note_off_c, 1, 72, 0
4, 17855, Note_off_c, 1, 75, 0
4, 17856, Note_on_c, 1, 75, 80
4, 17856, Note_on_c, 1, 80, 80
4, 18047, Note_off_c, 1, 80, 0
4, 18047, Note_off_c, 1, 75, 0
4, 18048, Note_on_c, 1, 77, 80
4, 18048, Note_on_c, 1, 77, 80
4, 18719, Note_off_c, 1, 77, 0
4, 18719, Note_off_c, 1, 77, 0
4, 18912, Note_on_c, 1, 82, 80
4, 18912, Note_on_c, 1, 70, 80
4, 19007, Note_off_c, 1, 70, 0
4, 19007, Note_off_c, 1, 82, 0
4, 19008, Note_on_c, 1, 80, 80
4, 19008, Note_on_c, 1, 80, 80
4, 19055, Note_off_c, 1, 80, 0
4, 19055, Note_off_c, 1, 80, 0
4, 19056, Note_on_c, 1, 79, 80
4, 19056, Note_on_c, 1, 79, 80
4, 19103, Note_off_c, 1, 79, 0
4, 19103, Note_off_c, 1, 79, 0
4, 19152, Note_on_c, 1, 77, 80
4, 19152, Note_on_c, 1, 77, 80
4, 19535, Note_off_c, 1, 77, 0
4, 19535, Note_off_c, 1, 77, 0
4, 19584, Note_on_c, 1, 70, 96
4, 19584, Note_on_c, 1, 70, 96
4, 19631, Note_off_c, 1, 70, 0
4, 19631, Note_off_c, 1, 70, 0
4, 19632, Note_on_c, 1, 68, 80
4, 19632, Note_on_c, 1, 68, 80
4, 19679, Note_off_c, 1, 68, 0
4, 19679, Note_off_c, 1, 68, 0
4, 19680, Note_on_c, 1, 70, 80
4, 19680, Note_on_c, 1, 70, 80
4, 19727, Note_off_c, 1, 70, 0
4, 19727, Note_off_c, 1, 70, 0
4, 19728, Note_on_c, 1, 79, 96
4, 19728, Note_on_c, 1, 79, 96
4, 19823, Note_off_c, 1, 79, 0
4, 19823, Note_off_c, 1, 79, 0
4, 19824, Note_on_c, 1, 75, 80
4, 19824, Note_on_c, 1, 75, 80
4, 19919, Note_off_c, 1, 75, 0
4, 19919, Note_off_c, 1, 75, 0
4, 19920, Note_on_c, 1, 77, 96
4, 19920, Note_on_c, 1, 77, 96
4, 19951, Note_off_c, 1, 77, 0
4, 19951, Note_off_c, 1, 77, 0
4, 20016, Note_on_c, 1, 77, 96
4, 20016, Note_on_c, 1, 77, 96
4, 20047, Note_off_c, 1, 77, 0
4, 20047, Note_off_c, 1, 77, 0
4, 20112, Note_on_c, 1, 75, 80
4, 20112, Note_on_c, 1, 75, 80
4, 20159, Note_off_c, 1, 75, 0
4, 20159, Note_off_c, 1, 75, 0
4, 20160, Note_on_c, 1, 75, 96
4, 20160, Note_on_c, 1, 75, 96
4, 20255, Note_off_c, 1, 75, 0
4, 20255, Note_off_c, 1, 75, 0
4, 20256, Note_on_c, 1, 70, 80
4, 20256, Note_on_c, 1, 70, 80
4, 20279, Note_off_c, 1, 70, 0
4, 20279, Note_off_c, 1, 70, 0
4, 20280, Note_on_c, 1, 73, 80
4, 20280, Note_on_c, 1, 73, 80
4, 20303, Note_off_c, 1, 73, 0
4, 20303, Note_off_c, 1, 73, 0
4, 20304, Note_on_c, 1, 75, 80
4, 20304, Note_on_c, 1, 75, 80
4, 20327, Note_off_c, 1, 75, 0
4, 20327, Note_off_c, 1, 75, 0
4, 20328, Note_on_c, 1, 73, 80
4, 20328, Note_on_c, 1, 73, 80
4, 20351, Note_off_c, 1, 73, 0
4, 20351, Note_off_c, 1, 73, 0
4, 20352, Note_on_c, 1, 75, 80
4, 20352, Note_on_c, 1, 75, 80
4, 20399, Note_off_c, 1, 75, 0
4, 20399, Note_off_c, 1, 75, 0
4, 20400, Note_on_c, 1, 73, 80
4, 20400, Note_on_c, 1, 73, 80
4, 20447, Note_off_c, 1, 73, 0
4, 20447, Note_off_c, 1, 73, 0
4, 20448, Note_on_c, 1, 75, 80
4, 20448, Note_on_c, 1, 75, 80
4, 20495, Note_off_c, 1, 75, 0
4, 20495, Note_off_c, 1, 75, 0
4, 20736, Control_c, 1, 101, 0
4, 20736, Control_c, 1, 100, 0
4, 20736, Control_c, 1, 6, 12
4, 20736, Control_c, 1, 10, 64
4, 20736, Control_c, 1, 7, 100
4, 20736, Pitch_bend_c, 1, 8192
4, 20736, Program_c, 1, 71
4, 20736, Control_c, 1, 101, 0
4, 20736, Control_c, 1, 100, 0
4, 20736, Control_c, 1, 6, 12
4, 20736, Control_c, 1, 10, 64
4, 20736, Control_c, 1, 7, 100
4, 20736, Pitch_bend_c, 1, 8192
4, 20736, Program_c, 1, 71
4, 20736, Control_c, 1, 101, 0
4, 20736, Control_c, 1, 100, 0
4, 20736, Control_c, 1, 6, 12
4, 20736, Control_c, 1, 10, 64
4, 20736, Control_c, 1, 7, 100
4, 20736, Pitch_bend_c, 1, 8192
4, 20736, Program_c, 1, 71
4, 20736, End_track
5, 0, Start_track
5, 0, Control_c, 2, 10, 64
5, 0, Control_c, 2, 7, 100
5, 0, Pitch_bend_c, 2, 8192
5, 0, Control_c, 2, 101, 0
5, 0, Control_c, 2, 100, 0
5, 0, Control_c, 2, 6, 12
5, 0, Control_c, 2, 10, 64
5, 0, Control_c, 2, 7, 100
5, 0, Pitch_bend_c, 2, 8192
5, 0, Program_c, 2, 56
5, 0, Control_c, 2, 101, 0
5, 0, Control_c, 2, 100, 0
5, 0, Control_c, 2, 6, 12
5, 0, Control_c, 2, 10, 64
5, 0, Control_c, 2, 7, 100
5, 0, Pitch_bend_c, 2, 8192
5, 0, Program_c, 2, 56
5, 0, Note_on_c, 2, 70, 96
5, 0, Note_on_c, 2, 63, 80
5, 47, Note_off_c, 2, 70, 0
5, 48, Note_on_c, 2, 68, 80
5, 95, Note_off_c, 2, 68, 0
5, 96, Note_on_c, 2, 70, 80
5, 335, Note_off_c, 2, 63, 0
5, 335, Note_off_c, 2, 70, 0
5, 336, Note_on_c, 2, 70, 96
5, 336, Note_on_c, 2, 65, 80
5, 367, Note_off_c, 2, 70, 0
5, 383, Note_off_c, 2, 65, 0
5, 432, Note_on_c, 2, 65, 80
5, 432, Note_on_c, 2, 70, 80
5, 479, Note_off_c, 2, 70, 0
5, 479, Note_off_c, 2, 65, 0
5, 528, Note_on_c, 2, 70, 80
5, 528, Note_on_c, 2, 63, 80
5, 575, Note_off_c, 2, 70, 0
5, 575, Note_off_c, 2, 63, 0
5, 576, Note_on_c, 2, 70, 80
5, 576, Note_on_c, 2, 63, 80
5, 719, Note_off_c, 2, 70, 0
5, 719, Note_off_c, 2, 63, 0
5, 768, Note_on_c, 2, 63, 80
5, 768, Note_on_c, 2, 70, 96
5, 815, Note_off_c, 2, 70, 0
5, 816, Note_on_c, 2, 68, 80
5, 863, Note_off_c, 2, 68, 0
5, 864, Note_on_c, 2, 70, 80
5, 1103, Note_off_c, 2, 63, 0
5, 1103, Note_off_c, 2, 70, 0
5, 1104, Note_on_c, 2, 70, 96
5, 1104, Note_on_c, 2, 65, 80
5, 1135, Note_off_c, 2, 70, 0
5, 1151, Note_off_c, 2, 65, 0
5, 1200, Note_on_c, 2, 70, 80
5, 1200, Note_on_c, 2, 65, 80
5, 1247, Note_off_c, 2, 70, 0
5, 1247, Note_off_c, 2, 65, 0
5, 1296, Note_on_c, 2, 70, 80
5, 1296, Note_on_c, 2, 63, 80
5, 1343, Note_off_c, 2, 70, 0
5, 1343, Note_off_c, 2, 63, 0
5, 1344, Note_on_c, 2, 70, 80
5, 1344, Note_on_c, 2, 63, 80
5, 1535, Note_off_c, 2, 63, 0
5, 1535, Note_off_c, 2, 70, 0
5, 1536, Note_on_c, 2, 63, 80
5, 1536, Note_on_c, 2, 70, 80
5, 1583, Note_off_c, 2, 63, 0
5, 1583, Note_off_c, 2, 70, 0
5, 1584, Note_on_c, 2, 68, 80
5, 1584, Note_on_c, 2, 61, 80
5, 1631, Note_off_c, 2, 68, 0
5, 1631, Note_off_c, 2, 61, 0
5, 1632, Note_on_c, 2, 67, 80
5, 1632, Note_on_c, 2, 70, 80
5, 1632, Note_on_c, 2, 63, 80
5, 1679, Note_off_c, 2, 70, 0
5, 1679, Note_off_c, 2, 63, 0
5, 1727, Note_off_c, 2, 67, 0
5, 1728, Note_on_c, 2, 65, 80
5, 1775, Note_off_c, 2, 65, 0
5, 1776, Note_on_c, 2, 63, 80
5, 1871, Note_off_c, 2, 63, 0
5, 1872, Note_on_c, 2, 62, 80
5, 1967, Note_off_c, 2, 62, 0
5, 1968, Note_on_c, 2, 63, 80
5, 2063, Note_off_c, 2, 63, 0
5, 2064, Note_on_c, 2, 63, 80
5, 2303, Note_off_c, 2, 63, 0
5, 2400, Note_on_c, 2, 67, 80
5, 2495, Note_off_c, 2, 67, 0
5, 2496, Note_on_c, 2, 65, 80
5, 2543, Note_off_c, 2, 65, 0
5, 2544, Note_on_c, 2, 63, 80
5, 2639, Note_off_c, 2, 63, 0
5, 2640, Note_on_c, 2, 62, 80
5, 2735, Note_off_c, 2, 62, 0
5, 2736, Note_on_c, 2, 63, 80
5, 2831, Note_off_c, 2, 63, 0
5, 2832, Note_on_c, 2, 60, 80
5, 2927, Note_off_c, 2, 60, 0
5, 2928, Note_on_c, 2, 58, 80
5, 3071, Note_off_c, 2, 58, 0
5, 3168, Note_on_c, 2, 70, 80
5, 3168, Note_on_c, 2, 67, 80
5, 3263, Note_off_c, 2, 67, 0
5, 3263, Note_off_c, 2, 70, 0
5, 3264, Note_on_c, 2, 70, 80
5, 3264, Note_on_c, 2, 65, 80
5, 3311, Note_off_c, 2, 70, 0
5, 3311, Note_off_c, 2, 65, 0
5, 3312, Note_on_c, 2, 70, 80
5, 3312, Note_on_c, 2, 63, 80
5, 3407, Note_off_c, 2, 70, 0
5, 3407, Note_off_c, 2, 63, 0
5, 3408, Note_on_c, 2, 62, 80
5, 3408, Note_on_c, 2, 70, 80
5, 3503, Note_off_c, 2, 70, 0
5, 3503, Note_off_c, 2, 62, 0
5, 3504, Note_on_c, 2, 70, 80
5, 3504, Note_on_c, 2, 63, 80
5, 3599, Note_off_c, 2, 63, 0
5, 3599, Note_off_c, 2, 70, 0
5, 3600, Note_on_c, 2, 70, 80
5, 3600, Note_on_c, 2, 63, 80
5, 3839, Note_off_c, 2, 63, 0
5, 3839, Note_off_c, 2, 70, 0
5, 3936, Note_on_c, 2, 67, 80
5, 3936, Note_on_c, 2, 70, 80
5, 4031, Note_off_c, 2, 70, 0
5, 4031, Note_off_c, 2, 67, 0
5, 4032, Note_on_c, 2, 70, 80
5, 4032, Note_on_c, 2, 65, 80
5, 4079, Note_off_c, 2, 70, 0
5, 4079, Note_off_c, 2, 65, 0
5, 4080, Note_on_c, 2, 70, 80
5, 4080, Note_on_c, 2, 63, 80
5, 4175, Note_off_c, 2, 70, 0
5, 4175, Note_off_c, 2, 63, 0
5, 4176, Note_on_c, 2, 70, 80
5, 4176, Note_on_c, 2, 63, 80
5, 4271, Note_off_c, 2, 63, 0
5, 4271, Note_off_c, 2, 70, 0
5, 4272, Note_on_c, 2, 63, 80
5, 4272, Note_on_c, 2, 70, 80
5, 4319, Note_off_c, 2, 63, 0
5, 4319, Note_off_c, 2, 70, 0
5, 4368, Note_on_c, 2, 63, 80
5, 4368, Note_on_c, 2, 70, 80
5, 4415, Note_off_c, 2, 63, 0
5, 4415, Note_off_c, 2, 70, 0
5, 4464, Note_on_c, 2, 63, 80
5, 4464, Note_on_c, 2, 70, 80
5, 4559, Note_off_c, 2, 70, 0
5, 4559, Note_off_c, 2, 63, 0
5, 4608, Note_on_c, 2, 67, 80
5, 4608, Note_on_c, 2, 70, 80
5, 5039, Note_off_c, 2, 67, 0
5, 5039, Note_off_c, 2, 70, 0
5, 5088, Note_on_c, 2, 70, 80
5, 5088, Note_on_c, 2, 67, 80
5, 5135, Note_off_c, 2, 70, 0
5, 5135, Note_off_c, 2, 67, 0
5, 5136, Note_on_c, 2, 70, 80
5, 5136, Note_on_c, 2, 67, 80
5, 5183, Note_off_c, 2, 70, 0
5, 5183, Note_off_c, 2, 67, 0
5, 5184, Note_on_c, 2, 67, 80
5, 5184, Note_on_c, 2, 70, 80
5, 5231, Note_off_c, 2, 67, 0
5, 5231, Note_off_c, 2, 70, 0
5, 5232, Note_on_c, 2, 72, 80
5, 5232, Note_on_c, 2, 65, 80
5, 5279, Note_off_c, 2, 72, 0
5, 5279, Note_off_c, 2, 65, 0
5, 5280, Note_on_c, 2, 70, 80
5, 5280, Note_on_c, 2, 63, 80
5, 5327, Note_off_c, 2, 70, 0
5, 5327, Note_off_c, 2, 63, 0
5, 5328, Note_on_c, 2, 70, 80
5, 5328, Note_on_c, 2, 65, 80
5, 5807, Note_off_c, 2, 65, 0
5, 5807, Note_off_c, 2, 70, 0
5, 5856, Note_on_c, 2, 67, 80
5, 5903, Note_off_c, 2, 67, 0
5, 5904, Note_on_c, 2, 67, 80
5, 5951, Note_off_c, 2, 67, 0
5, 5952, Note_on_c, 2, 67, 80
5, 5999, Note_off_c, 2, 67, 0
5, 6000, Note_on_c, 2, 65, 80
5, 6047, Note_off_c, 2, 65, 0
5, 6048, Note_on_c, 2, 63, 80
5, 6095, Note_off_c, 2, 63, 0
5, 6096, Note_on_c, 2, 65, 80
5, 6335, Note_off_c, 2, 65, 0
5, 6336, Note_on_c, 2, 67, 80
5, 6527, Note_off_c, 2, 67, 0
5, 6528, Note_on_c, 2, 68, 80
5, 6719, Note_off_c, 2, 68, 0
5, 6720, Note_on_c, 2, 68, 80
5, 6720, Note_on_c, 2, 63, 80
5, 6911, Note_off_c, 2, 68, 0
5, 6911, Note_off_c, 2, 63, 0
5, 6912, Note_on_c, 2, 65, 80
5, 7295, Note_off_c, 2, 65, 0
5, 7344, Note_on_c, 2, 58, 80
5, 7391, Note_off_c, 2, 58, 0
5, 7392, Note_on_c, 2, 68, 80
5, 7439, Note_off_c, 2, 68, 0
5, 7440, Note_on_c, 2, 67, 80
5, 7487, Note_off_c, 2, 67, 0
5, 7488, Note_on_c, 2, 68, 80
5, 7535, Note_off_c, 2, 68, 0
5, 7536, Note_on_c, 2, 67, 80
5, 7583, Note_off_c, 2, 67, 0
5, 7584, Note_on_c, 2, 63, 80
5, 7631, Note_off_c, 2, 63, 0
5, 7632, Note_on_c, 2, 63, 80
5, 7679, Note_off_c, 2, 63, 0
5, 9216, Note_on_c, 2, 63, 80
5, 9263, Note_off_c, 2, 63, 0
5, 9264, Note_on_c, 2, 61, 80
5, 9311, Note_off_c, 2, 61, 0
5, 9312, Note_on_c, 2, 63, 80
5, 9359, Note_off_c, 2, 63, 0
5, 9984, Note_on_c, 2, 63, 80
5, 10031, Note_off_c, 2, 63, 0
5, 10032, Note_on_c, 2, 61, 80
5, 10079, Note_off_c, 2, 61, 0
5, 10080, Note_on_c, 2, 63, 80
5, 10127, Note_off_c, 2, 63, 0
5, 10752, Note_on_c, 2, 70, 80
5, 10752, Note_on_c, 2, 67, 80
5, 10943, Note_off_c, 2, 67, 0
5, 10943, Note_off_c, 2, 70, 0
5, 10944, Note_on_c, 2, 70, 80
5, 10944, Note_on_c, 2, 65, 80
5, 11135, Note_off_c, 2, 70, 0
5, 11135, Note_off_c, 2, 65, 0
5, 11136, Note_on_c, 2, 68, 80
5, 11136, Note_on_c, 2, 65, 80
5, 11327, Note_off_c, 2, 68, 0
5, 11327, Note_off_c, 2, 65, 0
5, 11328, Note_on_c, 2, 68, 80
5, 11328, Note_on_c, 2, 65, 80
5, 11375, Note_off_c, 2, 68, 0
5, 11375, Note_off_c, 2, 65, 0
5, 11376, Note_on_c, 2, 68, 80
5, 11376, Note_on_c, 2, 65, 80
5, 11423, Note_off_c, 2, 68, 0
5, 11423, Note_off_c, 2, 65, 0
5, 11424, Note_on_c, 2, 68, 80
5, 11424, Note_on_c, 2, 65, 80
5, 11471, Note_off_c, 2, 68, 0
5, 11471, Note_off_c, 2, 65, 0
5, 11520, Note_on_c, 2, 67, 80
5, 11520, Note_on_c, 2, 70, 80
5, 11711, Note_off_c, 2, 67, 0
5, 11711, Note_off_c, 2, 70, 0
5, 11712, Note_on_c, 2, 65, 80
5, 11712, Note_on_c, 2, 70, 80
5, 11855, Note_off_c, 2, 70, 0
5, 11855, Note_off_c, 2, 65, 0
5, 11856, Note_on_c, 2, 70, 80
5, 11951, Note_off_c, 2, 70, 0
5, 11952, Note_on_c, 2, 68, 80
5, 11999, Note_off_c, 2, 68, 0
5, 12000, Note_on_c, 2, 70, 80
5, 12047, Note_off_c, 2, 70, 0
5, 12048, Note_on_c, 2, 68, 80
5, 12095, Note_off_c, 2, 68, 0
5, 12096, Note_on_c, 2, 70, 80
5, 12143, Note_off_c, 2, 70, 0
5, 12144, Note_on_c, 2, 68, 80
5, 12191, Note_off_c, 2, 68, 0
5, 12192, Note_on_c, 2, 70, 80
5, 12239, Note_off_c, 2, 70, 0
5, 12240, Note_on_c, 2, 70, 80
5, 12335, Note_off_c, 2, 70, 0
5, 12336, Note_on_c, 2, 68, 80
5, 12336, Note_on_c, 2, 70, 80
5, 12383, Note_off_c, 2, 70, 0
5, 12383, Note_off_c, 2, 68, 0
5, 12384, Note_on_c, 2, 70, 80
5, 12431, Note_off_c, 2, 70, 0
5, 12432, Note_on_c, 2, 68, 80
5, 12432, Note_on_c, 2, 70, 80
5, 12479, Note_off_c, 2, 70, 0
5, 12479, Note_off_c, 2, 68, 0
5, 12480, Note_on_c, 2, 70, 80
5, 12527, Note_off_c, 2, 70, 0
5, 12528, Note_on_c, 2, 68, 80
5, 12528, Note_on_c, 2, 70, 80
5, 12575, Note_off_c, 2, 68, 0
5, 12575, Note_off_c, 2, 70, 0
5, 12576, Note_on_c, 2, 68, 80
5, 12576, Note_on_c, 2, 72, 80
5, 12623, Note_off_c, 2, 72, 0
5, 12623, Note_off_c, 2, 68, 0
5, 12768, Note_on_c, 2, 67, 80
5, 12768, Note_on_c, 2, 70, 80
5, 13151, Note_off_c, 2, 70, 0
5, 13151, Note_off_c, 2, 67, 0
5, 13152, Note_on_c, 2, 70, 80
5, 13152, Note_on_c, 2, 67, 80
5, 13199, Note_off_c, 2, 70, 0
5, 13199, Note_off_c, 2, 67, 0
5, 13200, Note_on_c, 2, 70, 80
5, 13200, Note_on_c, 2, 67, 80
5, 13247, Note_off_c, 2, 70, 0
5, 13247, Note_off_c, 2, 67, 0
5, 13248, Note_on_c, 2, 67, 80
5, 13248, Note_on_c, 2, 70, 80
5, 13295, Note_off_c, 2, 67, 0
5, 13295, Note_off_c, 2, 70, 0
5, 13296, Note_on_c, 2, 72, 80
5, 13296, Note_on_c, 2, 65, 80
5, 13343, Note_off_c, 2, 72, 0
5, 13343, Note_off_c, 2, 65, 0
5, 13344, Note_on_c, 2, 70, 80
5, 13344, Note_on_c, 2, 63, 80
5, 13391, Note_off_c, 2, 70, 0
5, 13391, Note_off_c, 2, 63, 0
5, 13392, Note_on_c, 2, 70, 80
5, 13392, Note_on_c, 2, 65, 80
5, 13871, Note_off_c, 2, 65, 0
5, 13871, Note_off_c, 2, 70, 0
5, 13920, Note_on_c, 2, 67, 80
5, 13967, Note_off_c, 2, 67, 0
5, 13968, Note_on_c, 2, 67, 80
5, 14015, Note_off_c, 2, 67, 0
5, 14016, Note_on_c, 2, 67, 80
5, 14063, Note_off_c, 2, 67, 0
5, 14064, Note_on_c, 2, 65, 80
5, 14111, Note_off_c, 2, 65, 0
5, 14112, Note_on_c, 2, 63, 80
5, 14159, Note_off_c, 2, 63, 0
5, 14160, Note_on_c, 2, 65, 80
5, 14399, Note_off_c, 2, 65, 0
5, 14400, Note_on_c, 2, 67, 80
5, 14591, Note_off_c, 2, 67, 0
5, 14592, Note_on_c, 2, 68, 80
5, 14783, Note_off_c, 2, 68, 0
5, 14784, Note_on_c, 2, 68, 80
5, 14784, Note_on_c, 2, 63, 80
5, 14975, Note_off_c, 2, 68, 0
5, 14975, Note_off_c, 2, 63, 0
5, 14976, Note_on_c, 2, 65, 80
5, 15359, Note_off_c, 2, 65, 0
5, 15408, Note_on_c, 2, 70, 80
5, 15455, Note_off_c, 2, 70, 0
5, 15456, Note_on_c, 2, 68, 80
5, 15503, Note_off_c, 2, 68, 0
5, 15504, Note_on_c, 2, 68, 80
5, 15504, Note_on_c, 2, 67, 80
5, 15551, Note_off_c, 2, 68, 0
5, 15551, Note_off_c, 2, 67, 0
5, 15552, Note_on_c, 2, 68, 80
5, 15599, Note_off_c, 2, 68, 0
5, 15600, Note_on_c, 2, 67, 80
5, 15600, Note_on_c, 2, 68, 80
5, 15647, Note_off_c, 2, 67, 0
5, 15647, Note_off_c, 2, 68, 0
5, 15648, Note_on_c, 2, 68, 80
5, 15648, Note_on_c, 2, 72, 80
5, 15743, Note_off_c, 2, 72, 0
5, 15743, Note_off_c, 2, 68, 0
5, 15744, Note_on_c, 2, 75, 80
5, 15744, Note_on_c, 2, 65, 80
5, 15791, Note_off_c, 2, 65, 0
5, 15792, Note_on_c, 2, 67, 80
5, 16223, Note_off_c, 2, 75, 0
5, 16223, Note_off_c, 2, 67, 0
5, 16224, Note_on_c, 2, 67, 80
5, 16224, Note_on_c, 2, 75, 80
5, 16271, Note_off_c, 2, 67, 0
5, 16271, Note_off_c, 2, 75, 0
5, 16272, Note_on_c, 2, 75, 80
5, 16272, Note_on_c, 2, 67, 80
5, 16319, Note_off_c, 2, 75, 0
5, 16319, Note_off_c, 2, 67, 0
5, 16320, Note_on_c, 2, 67, 80
5, 16320, Note_on_c, 2, 75, 80
5, 16367, Note_off_c, 2, 67, 0
5, 16367, Note_off_c, 2, 75, 0
5, 16368, Note_on_c, 2, 65, 80
5, 16368, Note_on_c, 2, 72, 80
5, 16415, Note_off_c, 2, 72, 0
5, 16415, Note_off_c, 2, 65, 0
5, 16416, Note_on_c, 2, 63, 80
5, 16416, Note_on_c, 2, 70, 80
5, 16463, Note_off_c, 2, 63, 0
5, 16463, Note_off_c, 2, 70, 0
5, 16464, Note_on_c, 2, 65, 80
5, 16464, Note_on_c, 2, 74, 80
5, 16943, Note_off_c, 2, 74, 0
5, 16943, Note_off_c, 2, 65, 0
5, 16992, Note_on_c, 2, 67, 80
5, 17039, Note_off_c, 2, 67, 0
5, 17040, Note_on_c, 2, 67, 80
5, 17087, Note_off_c, 2, 67, 0
5, 17088, Note_on_c, 2, 67, 80
5, 17135, Note_off_c, 2, 67, 0
5, 17136, Note_on_c, 2, 65, 80
5, 17183, Note_off_c, 2, 65, 0
5, 17184, Note_on_c, 2, 63, 80
5, 17279, Note_off_c, 2, 63, 0
5, 17280, Note_on_c, 2, 65, 80
5, 17471, Note_off_c, 2, 65, 0
5, 17472, Note_on_c, 2, 67, 80
5, 17663, Note_off_c, 2, 67, 0
5, 17664, Note_on_c, 2, 68, 80
5, 17760, Note_on_c, 2, 67, 80
5, 17855, Note_off_c, 2, 68, 0
5, 17855, Note_off_c, 2, 67, 0
5, 17856, Note_on_c, 2, 65, 80
5, 17856, Note_on_c, 2, 68, 80
5, 17951, Note_off_c, 2, 65, 0
5, 17952, Note_on_c, 2, 63, 80
5, 18047, Note_off_c, 2, 68, 0
5, 18047, Note_off_c, 2, 63, 0
5, 18048, Note_on_c, 2, 72, 80
5, 18048, Note_on_c, 2, 65, 80
5, 18095, Note_off_c, 2, 72, 0
5, 18096, Note_on_c, 2, 70, 80
5, 18479, Note_off_c, 2, 65, 0
5, 18528, Note_on_c, 2, 68, 80
5, 18575, Note_off_c, 2, 68, 0
5, 18576, Note_on_c, 2, 67, 80
5, 18623, Note_off_c, 2, 67, 0
5, 18624, Note_on_c, 2, 68, 80
5, 18671, Note_off_c, 2, 68, 0
5, 18672, Note_on_c, 2, 67, 80
5, 18719, Note_off_c, 2, 67, 0
5, 18719, Note_off_c, 2, 70, 0
5, 18720, Note_on_c, 2, 63, 80
5, 18767, Note_off_c, 2, 63, 0
5, 18768, Note_on_c, 2, 70, 80
5, 18768, Note_on_c, 2, 65, 80
5, 19151, Note_off_c, 2, 65, 0
5, 19151, Note_off_c, 2, 70, 0
5, 19296, Note_on_c, 2, 68, 80
5, 19343, Note_off_c, 2, 68, 0
5, 19344, Note_on_c, 2, 67, 80
5, 19391, Note_off_c, 2, 67, 0
5, 19392, Note_on_c, 2, 68, 80
5, 19439, Note_off_c, 2, 68, 0
5, 19440, Note_on_c, 2, 67, 80
5, 19487, Note_off_c, 2, 67, 0
5, 19488, Note_on_c, 2, 63, 80
5, 19535, Note_off_c, 2, 63, 0
5, 19536, Note_on_c, 2, 70, 80
5, 19536, Note_on_c, 2, 63, 80
5, 20351, Note_off_c, 2, 63, 0
5, 20351, Note_off_c, 2, 70, 0
5, 20352, Note_on_c, 2, 75, 80
5, 20352, Note_on_c, 2, 63, 80
5, 20399, Note_off_c, 2, 75, 0
5, 20399, Note_off_c, 2, 63, 0
5, 20400, Note_on_c, 2, 73, 80
5, 20400, Note_on_c, 2, 61, 80
5, 20447, Note_off_c, 2, 73, 0
5, 20447, Note_off_c, 2, 61, 0
5, 20448, Note_on_c, 2, 63, 80
5, 20448, Note_on_c, 2, 75, 80
5, 20495, Note_off_c, 2, 63, 0
5, 20495, Note_off_c, 2, 75, 0
5, 20736, Control_c, 2, 101, 0
5, 20736, Control_c, 2, 100, 0
5, 20736, Control_c, 2, 6, 12
5, 20736, Control_c, 2, 10, 64
5, 20736, Control_c, 2, 7, 100
5, 20736, Pitch_bend_c, 2, 8192
5, 20736, Program_c, 2, 56
5, 20736, Control_c, 2, 101, 0
5, 20736, Control_c, 2, 100, 0
5, 20736, Control_c, 2, 6, 12
5, 20736, Control_c, 2, 10, 64
5, 20736, Control_c, 2, 7, 100
5, 20736, Pitch_bend_c, 2, 8192
5, 20736, Program_c, 2, 56
5, 20736, Control_c, 2, 101, 0
5, 20736, Control_c, 2, 100, 0
5, 20736, Control_c, 2, 6, 12
5, 20736, Control_c, 2, 10, 64
5, 20736, Control_c, 2, 7, 100
5, 20736, Pitch_bend_c, 2, 8192
5, 20736, Program_c, 2, 56
5, 20736, End_track
6, 0, Start_track
6, 0, Control_c, 3, 10, 64
6, 0, Control_c, 3, 7, 100
6, 0, Pitch_bend_c, 3, 8192
6, 0, Control_c, 3, 101, 0
6, 0, Control_c, 3, 100, 0
6, 0, Control_c, 3, 6, 12
6, 0, Control_c, 3, 10, 64
6, 0, Control_c, 3, 7, 100
6, 0, Pitch_bend_c, 3, 8192
6, 0, Program_c, 3, 58
6, 0, Control_c, 3, 101, 0
6, 0, Control_c, 3, 100, 0
6, 0, Control_c, 3, 6, 12
6, 0, Control_c, 3, 10, 64
6, 0, Control_c, 3, 7, 100
6, 0, Pitch_bend_c, 3, 8192
6, 0, Program_c, 3, 58
6, 768, Note_on_c, 3, 39, 80
6, 1103, Note_off_c, 3, 39, 0
6, 1104, Note_on_c, 3, 34, 80
6, 1151, Note_off_c, 3, 34, 0
6, 1200, Note_on_c, 3, 34, 80
6, 1247, Note_off_c, 3, 34, 0
6, 1296, Note_on_c, 3, 32, 80
6, 1343, Note_off_c, 3, 32, 0
6, 1344, Note_on_c, 3, 32, 80
6, 1535, Note_off_c, 3, 32, 0
6, 1536, Note_on_c, 3, 39, 80
6, 1583, Note_off_c, 3, 39, 0
6, 1584, Note_on_c, 3, 37, 80
6, 1631, Note_off_c, 3, 37, 0
6, 1632, Note_on_c, 3, 39, 80
6, 1679, Note_off_c, 3, 39, 0
6, 1872, Note_on_c, 3, 34, 80
6, 1872, Note_on_c, 3, 46, 80
6, 1919, Note_off_c, 3, 34, 0
6, 1919, Note_off_c, 3, 46, 0
6, 1968, Note_on_c, 3, 46, 80
6, 1968, Note_on_c, 3, 34, 80
6, 2015, Note_off_c, 3, 46, 0
6, 2015, Note_off_c, 3, 34, 0
6, 2064, Note_on_c, 3, 44, 80
6, 2064, Note_on_c, 3, 32, 80
6, 2111, Note_off_c, 3, 44, 0
6, 2111, Note_off_c, 3, 32, 0
6, 2112, Note_on_c, 3, 32, 80
6, 2112, Note_on_c, 3, 44, 80
6, 2303, Note_off_c, 3, 44, 0
6, 2303, Note_off_c, 3, 32, 0
6, 2304, Note_on_c, 3, 39, 80
6, 2351, Note_off_c, 3, 39, 0
6, 2352, Note_on_c, 3, 37, 80
6, 2399, Note_off_c, 3, 37, 0
6, 2400, Note_on_c, 3, 39, 80
6, 2447, Note_off_c, 3, 39, 0
6, 2640, Note_on_c, 3, 46, 80
6, 2640, Note_on_c, 3, 34, 80
6, 2687, Note_off_c, 3, 46, 0
6, 2687, Note_off_c, 3, 34, 0
6, 2736, Note_on_c, 3, 34, 80
6, 2736, Note_on_c, 3, 46, 80
6, 2783, Note_off_c, 3, 34, 0
6, 2783, Note_off_c, 3, 46, 0
6, 2832, Note_on_c, 3, 32, 80
6, 2832, Note_on_c, 3, 44, 80
6, 2879, Note_off_c, 3, 32, 0
6, 2879, Note_off_c, 3, 44, 0
6, 2880, Note_on_c, 3, 44, 80
6, 2880, Note_on_c, 3, 32, 80
6, 3071, Note_off_c, 3, 32, 0
6, 3071, Note_off_c, 3, 44, 0
6, 3072, Note_on_c, 3, 39, 80
6, 3119, Note_off_c, 3, 39, 0
6, 3120, Note_on_c, 3, 37, 80
6, 3167, Note_off_c, 3, 37, 0
6, 3168, Note_on_c, 3, 39, 80
6, 3215, Note_off_c, 3, 39, 0
6, 3408, Note_on_c, 3, 34, 80
6, 3408, Note_on_c, 3, 46, 80
6, 3455, Note_off_c, 3, 34, 0
6, 3455, Note_off_c, 3, 46, 0
6, 3504, Note_on_c, 3, 46, 80
6, 3504, Note_on_c, 3, 34, 80
6, 3551, Note_off_c, 3, 46, 0
6, 3551, Note_off_c, 3, 34, 0
6, 3600, Note_on_c, 3, 44, 80
6, 3600, Note_on_c, 3, 32, 80
6, 3647, Note_off_c, 3, 44, 0
6, 3647, Note_off_c, 3, 32, 0
6, 3648, Note_on_c, 3, 32, 80
6, 3648, Note_on_c, 3, 44, 80
6, 3839, Note_off_c, 3, 44, 0
6, 3839, Note_off_c, 3, 32, 0
6, 3840, Note_on_c, 3, 39, 80
6, 3887, Note_off_c, 3, 39, 0
6, 3888, Note_on_c, 3, 37, 80
6, 3935, Note_off_c, 3, 37, 0
6, 3936, Note_on_c, 3, 39, 80
6, 3983, Note_off_c, 3, 39, 0
6, 4176, Note_on_c, 3, 46, 80
6, 4176, Note_on_c, 3, 34, 80
6, 4223, Note_off_c, 3, 46, 0
6, 4223, Note_off_c, 3, 34, 0
6, 4272, Note_on_c, 3, 34, 80
6, 4272, Note_on_c, 3, 46, 80
6, 4319, Note_off_c, 3, 34, 0
6, 4319, Note_off_c, 3, 46, 0
6, 4368, Note_on_c, 3, 32, 80
6, 4368, Note_on_c, 3, 44, 80
6, 4415, Note_off_c, 3, 32, 0
6, 4415, Note_off_c, 3, 44, 0
6, 4464, Note_on_c, 3, 48, 80
6, 4511, Note_off_c, 3, 48, 0
6, 4512, Note_on_c, 3, 46, 80
6, 4559, Note_off_c, 3, 46, 0
6, 4560, Note_on_c, 3, 43, 80
6, 4607, Note_off_c, 3, 43, 0
6, 4608, Note_on_c, 3, 39, 80
6, 4703, Note_off_c, 3, 39, 0
6, 4704, Note_on_c, 3, 39, 80
6, 4799, Note_off_c, 3, 39, 0
6, 4800, Note_on_c, 3, 39, 80
6, 4847, Note_off_c, 3, 39, 0
6, 4848, Note_on_c, 3, 39, 80
6, 4895, Note_off_c, 3, 39, 0
6, 4944, Note_on_c, 3, 39, 80
6, 5039, Note_off_c, 3, 39, 0
6, 5040, Note_on_c, 3, 39, 80
6, 5087, Note_off_c, 3, 39, 0
6, 5088, Note_on_c, 3, 39, 80
6, 5183, Note_off_c, 3, 39, 0
6, 5184, Note_on_c, 3, 39, 80
6, 5231, Note_off_c, 3, 39, 0
6, 5232, Note_on_c, 3, 41, 80
6, 5279, Note_off_c, 3, 41, 0
6, 5280, Note_on_c, 3, 39, 80
6, 5327, Note_off_c, 3, 39, 0
6, 5328, Note_on_c, 3, 36, 80
6, 5375, Note_off_c, 3, 36, 0
6, 5376, Note_on_c, 3, 34, 80
6, 5471, Note_off_c, 3, 34, 0
6, 5472, Note_on_c, 3, 34, 80
6, 5567, Note_off_c, 3, 34, 0
6, 5568, Note_on_c, 3, 32, 80
6, 5615, Note_off_c, 3, 32, 0
6, 5616, Note_on_c, 3, 34, 80
6, 5663, Note_off_c, 3, 34, 0
6, 5712, Note_on_c, 3, 34, 80
6, 5807, Note_off_c, 3, 34, 0
6, 5808, Note_on_c, 3, 32, 80
6, 5855, Note_off_c, 3, 32, 0
6, 5856, Note_on_c, 3, 34, 80
6, 5951, Note_off_c, 3, 34, 0
6, 5952, Note_on_c, 3, 46, 80
6, 5999, Note_off_c, 3, 46, 0
6, 6000, Note_on_c, 3, 48, 80
6, 6047, Note_off_c, 3, 48, 0
6, 6048, Note_on_c, 3, 46, 80
6, 6095, Note_off_c, 3, 46, 0
6, 6096, Note_on_c, 3, 44, 80
6, 6143, Note_off_c, 3, 44, 0
6, 6144, Note_on_c, 3, 41, 80
6, 6191, Note_off_c, 3, 41, 0
6, 6192, Note_on_c, 3, 41, 80
6, 6239, Note_off_c, 3, 41, 0
6, 6288, Note_on_c, 3, 41, 80
6, 6335, Note_off_c, 3, 41, 0
6, 6336, Note_on_c, 3, 43, 80
6, 6383, Note_off_c, 3, 43, 0
6, 6384, Note_on_c, 3, 43, 80
6, 6431, Note_off_c, 3, 43, 0
6, 6480, Note_on_c, 3, 43, 80
6, 6527, Note_off_c, 3, 43, 0
6, 6528, Note_on_c, 3, 44, 80
6, 6575, Note_off_c, 3, 44, 0
6, 6576, Note_on_c, 3, 44, 80
6, 6623, Note_off_c, 3, 44, 0
6, 6672, Note_on_c, 3, 44, 80
6, 6719, Note_off_c, 3, 44, 0
6, 6720, Note_on_c, 3, 44, 80
6, 6767, Note_off_c, 3, 44, 0
6, 6768, Note_on_c, 3, 44, 80
6, 6815, Note_off_c, 3, 44, 0
6, 6864, Note_on_c, 3, 32, 80
6, 6911, Note_off_c, 3, 32, 0
6, 6912, Note_on_c, 3, 34, 80
6, 7007, Note_off_c, 3, 34, 0
6, 7008, Note_on_c, 3, 34, 80
6, 7103, Note_off_c, 3, 34, 0
6, 7104, Note_on_c, 3, 32, 80
6, 7151, Note_off_c, 3, 32, 0
6, 7152, Note_on_c, 3, 34, 80
6, 7199, Note_off_c, 3, 34, 0
6, 7248, Note_on_c, 3, 34, 80
6, 7343, Note_off_c, 3, 34, 0
6, 7344, Note_on_c, 3, 32, 80
6, 7391, Note_off_c, 3, 32, 0
6, 7392, Note_on_c, 3, 34, 80
6, 7487, Note_off_c, 3, 34, 0
6, 7488, Note_on_c, 3, 46, 80
6, 7535, Note_off_c, 3, 46, 0
6, 7536, Note_on_c, 3, 48, 80
6, 7583, Note_off_c, 3, 48, 0
6, 7584, Note_on_c, 3, 46, 80
6, 7631, Note_off_c, 3, 46, 0
6, 7632, Note_on_c, 3, 43, 80
6, 7679, Note_off_c, 3, 43, 0
6, 7680, Note_on_c, 3, 39, 80
6, 7727, Note_off_c, 3, 39, 0
6, 7728, Note_on_c, 3, 37, 80
6, 7775, Note_off_c, 3, 37, 0
6, 7776, Note_on_c, 3, 39, 80
6, 7823, Note_off_c, 3, 39, 0
6, 8016, Note_on_c, 3, 34, 80
6, 8063, Note_off_c, 3, 34, 0
6, 8112, Note_on_c, 3, 34, 80
6, 8159, Note_off_c, 3, 34, 0
6, 8208, Note_on_c, 3, 32, 80
6, 8255, Note_off_c, 3, 32, 0
6, 8256, Note_on_c, 3, 32, 80
6, 8447, Note_off_c, 3, 32, 0
6, 8448, Note_on_c, 3, 39, 80
6, 8495, Note_off_c, 3, 39, 0
6, 8496, Note_on_c, 3, 37, 80
6, 8543, Note_off_c, 3, 37, 0
6, 8544, Note_on_c, 3, 39, 80
6, 8591, Note_off_c, 3, 39, 0
6, 8784, Note_on_c, 3, 34, 80
6, 8831, Note_off_c, 3, 34, 0
6, 8880, Note_on_c, 3, 34, 80
6, 8927, Note_off_c, 3, 34, 0
6, 8976, Note_on_c, 3, 32, 80
6, 9023, Note_off_c, 3, 32, 0
6, 9024, Note_on_c, 3, 32, 80
6, 9215, Note_off_c, 3, 32, 0
6, 9216, Note_on_c, 3, 39, 80
6, 9263, Note_off_c, 3, 39, 0
6, 9264, Note_on_c, 3, 37, 80
6, 9311, Note_off_c, 3, 37, 0
6, 9312, Note_on_c, 3, 39, 80
6, 9359, Note_off_c, 3, 39, 0
6, 9552, Note_on_c, 3, 46, 80
6, 9552, Note_on_c, 3, 34, 80
6, 9599, Note_off_c, 3, 46, 0
6, 9599, Note_off_c, 3, 34, 0
6, 9648, Note_on_c, 3, 46, 80
6, 9648, Note_on_c, 3, 34, 80
6, 9695, Note_off_c, 3, 46, 0
6, 9695, Note_off_c, 3, 34, 0
6, 9744, Note_on_c, 3, 44, 80
6, 9744, Note_on_c, 3, 32, 80
6, 9791, Note_off_c, 3, 44, 0
6, 9791, Note_off_c, 3, 32, 0
6, 9792, Note_on_c, 3, 44, 80
6, 9792, Note_on_c, 3, 32, 80
6, 9983, Note_off_c, 3, 32, 0
6, 9983, Note_off_c, 3, 44, 0
6, 9984, Note_on_c, 3, 39, 80
6, 10031, Note_off_c, 3, 39, 0
6, 10032, Note_on_c, 3, 37, 80
6, 10079, Note_off_c, 3, 37, 0
6, 10080, Note_on_c, 3, 39, 80
6, 10127, Note_off_c, 3, 39, 0
6, 10320, Note_on_c, 3, 46, 80
6, 10320, Note_on_c, 3, 34, 80
6, 10367, Note_off_c, 3, 46, 0
6, 10367, Note_off_c, 3, 34, 0
6, 10416, Note_on_c, 3, 34, 80
6, 10416, Note_on_c, 3, 46, 80
6, 10463, Note_off_c, 3, 46, 0
6, 10463, Note_off_c, 3, 34, 0
6, 10512, Note_on_c, 3, 44, 80
6, 10512, Note_on_c, 3, 32, 80
6, 10559, Note_off_c, 3, 44, 0
6, 10559, Note_off_c, 3, 32, 0
6, 10560, Note_on_c, 3, 32, 80
6, 10560, Note_on_c, 3, 44, 80
6, 10703, Note_off_c, 3, 44, 0
6, 10703, Note_off_c, 3, 32, 0
6, 11520, Note_on_c, 3, 39, 80
6, 11711, Note_off_c, 3, 39, 0
6, 11712, Note_on_c, 3, 38, 80
6, 11855, Note_off_c, 3, 38, 0
6, 11856, Note_on_c, 3, 42, 80
6, 11856, Note_on_c, 3, 30, 80
6, 12095, Note_off_c, 3, 42, 0
6, 12095, Note_off_c, 3, 30, 0
6, 12096, Note_on_c, 3, 32, 80
6, 12096, Note_on_c, 3, 44, 80
6, 12239, Note_off_c, 3, 32, 0
6, 12239, Note_off_c, 3, 44, 0
6, 12240, Note_on_c, 3, 30, 80
6, 12240, Note_on_c, 3, 42, 80
6, 12383, Note_off_c, 3, 42, 0
6, 12383, Note_off_c, 3, 30, 0
6, 12384, Note_on_c, 3, 30, 80
6, 12384, Note_on_c, 3, 42, 80
6, 12479, Note_off_c, 3, 30, 0
6, 12479, Note_off_c, 3, 42, 0
6, 12480, Note_on_c, 3, 32, 80
6, 12480, Note_on_c, 3, 44, 80
6, 12527, Note_off_c, 3, 44, 0
6, 12527, Note_off_c, 3, 32, 0
6, 12528, Note_on_c, 3, 32, 80
6, 12528, Note_on_c, 3, 44, 80
6, 12575, Note_off_c, 3, 44, 0
6, 12575, Note_off_c, 3, 32, 0
6, 12576, Note_on_c, 3, 32, 80
6, 12576, Note_on_c, 3, 44, 80
6, 12623, Note_off_c, 3, 44, 0
6, 12623, Note_off_c, 3, 32, 0
6, 12768, Note_on_c, 3, 39, 80
6, 12863, Note_off_c, 3, 39, 0
6, 12864, Note_on_c, 3, 39, 80
6, 12911, Note_off_c, 3, 39, 0
6, 12912, Note_on_c, 3, 39, 80
6, 12959, Note_off_c, 3, 39, 0
6, 13008, Note_on_c, 3, 39, 80
6, 13103, Note_off_c, 3, 39, 0
6, 13104, Note_on_c, 3, 39, 80
6, 13151, Note_off_c, 3, 39, 0
6, 13152, Note_on_c, 3, 39, 80
6, 13247, Note_off_c, 3, 39, 0
6, 13248, Note_on_c, 3, 39, 80
6, 13295, Note_off_c, 3, 39, 0
6, 13296, Note_on_c, 3, 41, 80
6, 13343, Note_off_c, 3, 41, 0
6, 13344, Note_on_c, 3, 39, 80
6, 13391, Note_off_c, 3, 39, 0
6, 13392, Note_on_c, 3, 36, 80
6, 13439, Note_off_c, 3, 36, 0
6, 13440, Note_on_c, 3, 34, 80
6, 13535, Note_off_c, 3, 34, 0
6, 13536, Note_on_c, 3, 34, 80
6, 13631, Note_off_c, 3, 34, 0
6, 13632, Note_on_c, 3, 32, 80
6, 13679, Note_off_c, 3, 32, 0
6, 13680, Note_on_c, 3, 34, 80
6, 13727, Note_off_c, 3, 34, 0
6, 13776, Note_on_c, 3, 34, 80
6, 13871, Note_off_c, 3, 34, 0
6, 13872, Note_on_c, 3, 32, 80
6, 13919, Note_off_c, 3, 32, 0
6, 13920, Note_on_c, 3, 34, 80
6, 14015, Note_off_c, 3, 34, 0
6, 14016, Note_on_c, 3, 46, 80
6, 14063, Note_off_c, 3, 46, 0
6, 14064, Note_on_c, 3, 48, 80
6, 14111, Note_off_c, 3, 48, 0
6, 14112, Note_on_c, 3, 46, 80
6, 14159, Note_off_c, 3, 46, 0
6, 14160, Note_on_c, 3, 44, 80
6, 14207, Note_off_c, 3, 44, 0
6, 14208, Note_on_c, 3, 41, 80
6, 14255, Note_off_c, 3, 41, 0
6, 14256, Note_on_c, 3, 41, 80
6, 14303, Note_off_c, 3, 41, 0
6, 14352, Note_on_c, 3, 41, 80
6, 14399, Note_off_c, 3, 41, 0
6, 14400, Note_on_c, 3, 43, 80
6, 14447, Note_off_c, 3, 43, 0
6, 14448, Note_on_c, 3, 43, 80
6, 14495, Note_off_c, 3, 43, 0
6, 14544, Note_on_c, 3, 43, 80
6, 14591, Note_off_c, 3, 43, 0
6, 14592, Note_on_c, 3, 44, 80
6, 14639, Note_off_c, 3, 44, 0
6, 14640, Note_on_c, 3, 44, 80
6, 14687, Note_off_c, 3, 44, 0
6, 14736, Note_on_c, 3, 44, 80
6, 14783, Note_off_c, 3, 44, 0
6, 14784, Note_on_c, 3, 44, 80
6, 14831, Note_off_c, 3, 44, 0
6, 14832, Note_on_c, 3, 44, 80
6, 14879, Note_off_c, 3, 44, 0
6, 14928, Note_on_c, 3, 32, 80
6, 14975, Note_off_c, 3, 32, 0
6, 14976, Note_on_c, 3, 34, 80
6, 15071, Note_off_c, 3, 34, 0
6, 15072, Note_on_c, 3, 34, 80
6, 15167, Note_off_c, 3, 34, 0
6, 15168, Note_on_c, 3, 32, 80
6, 15215, Note_off_c, 3, 32, 0
6, 15216, Note_on_c, 3, 34, 80
6, 15263, Note_off_c, 3, 34, 0
6, 15312, Note_on_c, 3, 34, 80
6, 15407, Note_off_c, 3, 34, 0
6, 15408, Note_on_c, 3, 32, 80
6, 15455, Note_off_c, 3, 32, 0
6, 15456, Note_on_c, 3, 34, 80
6, 15551, Note_off_c, 3, 34, 0
6, 15552, Note_on_c, 3, 46, 80
6, 15599, Note_off_c, 3, 46, 0
6, 15600, Note_on_c, 3, 48, 80
6, 15647, Note_off_c, 3, 48, 0
6, 15648, Note_on_c, 3, 46, 80
6, 15695, Note_off_c, 3, 46, 0
6, 15696, Note_on_c, 3, 43, 80
6, 15743, Note_off_c, 3, 43, 0
6, 15744, Note_on_c, 3, 39, 80
6, 15839, Note_off_c, 3, 39, 0
6, 15840, Note_on_c, 3, 39, 80
6, 15935, Note_off_c, 3, 39, 0
6, 15936, Note_on_c, 3, 39, 80
6, 15983, Note_off_c, 3, 39, 0
6, 15984, Note_on_c, 3, 39, 80
6, 16031, Note_off_c, 3, 39, 0
6, 16032, Note_on_c, 3, 39, 80
6, 16079, Note_off_c, 3, 39, 0
6, 16080, Note_on_c, 3, 39, 80
6, 16175, Note_off_c, 3, 39, 0
6, 16176, Note_on_c, 3, 39, 80
6, 16223, Note_off_c, 3, 39, 0
6, 16224, Note_on_c, 3, 39, 80
6, 16319, Note_off_c, 3, 39, 0
6, 16320, Note_on_c, 3, 39, 80
6, 16367, Note_off_c, 3, 39, 0
6, 16368, Note_on_c, 3, 41, 80
6, 16415, Note_off_c, 3, 41, 0
6, 16416, Note_on_c, 3, 39, 80
6, 16463, Note_off_c, 3, 39, 0
6, 16464, Note_on_c, 3, 36, 80
6, 16511, Note_off_c, 3, 36, 0
6, 16512, Note_on_c, 3, 34, 80
6, 16607, Note_off_c, 3, 34, 0
6, 16608, Note_on_c, 3, 34, 80
6, 16703, Note_off_c, 3, 34, 0
6, 16704, Note_on_c, 3, 32, 80
6, 16751, Note_off_c, 3, 32, 0
6, 16752, Note_on_c, 3, 34, 80
6, 16799, Note_off_c, 3, 34, 0
6, 16848, Note_on_c, 3, 34, 80
6, 16943, Note_off_c, 3, 34, 0
6, 16944, Note_on_c, 3, 32, 80
6, 16991, Note_off_c, 3, 32, 0
6, 16992, Note_on_c, 3, 34, 80
6, 17087, Note_off_c, 3, 34, 0
6, 17088, Note_on_c, 3, 46, 80
6, 17135, Note_off_c, 3, 46, 0
6, 17136, Note_on_c, 3, 48, 80
6, 17183, Note_off_c, 3, 48, 0
6, 17184, Note_on_c, 3, 46, 80
6, 17231, Note_off_c, 3, 46, 0
6, 17232, Note_on_c, 3, 44, 80
6, 17279, Note_off_c, 3, 44, 0
6, 17280, Note_on_c, 3, 41, 80
6, 17327, Note_off_c, 3, 41, 0
6, 17328, Note_on_c, 3, 41, 80
6, 17375, Note_off_c, 3, 41, 0
6, 17424, Note_on_c, 3, 41, 80
6, 17471, Note_off_c, 3, 41, 0
6, 17472, Note_on_c, 3, 43, 80
6, 17519, Note_off_c, 3, 43, 0
6, 17520, Note_on_c, 3, 43, 80
6, 17567, Note_off_c, 3, 43, 0
6, 17616, Note_on_c, 3, 43, 80
6, 17663, Note_off_c, 3, 43, 0
6, 17664, Note_on_c, 3, 44, 80
6, 17711, Note_off_c, 3, 44, 0
6, 17712, Note_on_c, 3, 44, 80
6, 17759, Note_off_c, 3, 44, 0
6, 17808, Note_on_c, 3, 44, 80
6, 17855, Note_off_c, 3, 44, 0
6, 17856, Note_on_c, 3, 44, 80
6, 17903, Note_off_c, 3, 44, 0
6, 17904, Note_on_c, 3, 44, 80
6, 17951, Note_off_c, 3, 44, 0
6, 18000, Note_on_c, 3, 34, 80
6, 18000, Note_on_c, 3, 46, 80
6, 18047, Note_off_c, 3, 46, 0
6, 18047, Note_off_c, 3, 34, 0
6, 18048, Note_on_c, 3, 46, 80
6, 18048, Note_on_c, 3, 34, 80
6, 18143, Note_off_c, 3, 34, 0
6, 18143, Note_off_c, 3, 46, 0
6, 18144, Note_on_c, 3, 34, 80
6, 18144, Note_on_c, 3, 46, 80
6, 18239, Note_off_c, 3, 34, 0
6, 18239, Note_off_c, 3, 46, 0
6, 18240, Note_on_c, 3, 46, 80
6, 18240, Note_on_c, 3, 34, 80
6, 18335, Note_off_c, 3, 46, 0
6, 18335, Note_off_c, 3, 34, 0
6, 18336, Note_on_c, 3, 34, 80
6, 18336, Note_on_c, 3, 46, 80
6, 18383, Note_off_c, 3, 34, 0
6, 18383, Note_off_c, 3, 46, 0
6, 18384, Note_on_c, 3, 46, 80
6, 18384, Note_on_c, 3, 34, 80
6, 18527, Note_off_c, 3, 46, 0
6, 18527, Note_off_c, 3, 34, 0
6, 18528, Note_on_c, 3, 34, 80
6, 18528, Note_on_c, 3, 46, 80
6, 18623, Note_off_c, 3, 46, 0
6, 18623, Note_off_c, 3, 34, 0
6, 18624, Note_on_c, 3, 34, 80
6, 18624, Note_on_c, 3, 46, 80
6, 18719, Note_off_c, 3, 34, 0
6, 18719, Note_off_c, 3, 46, 0
6, 18720, Note_on_c, 3, 46, 80
6, 18720, Note_on_c, 3, 34, 80
6, 18767, Note_off_c, 3, 46, 0
6, 18767, Note_off_c, 3, 34, 0
6, 18768, Note_on_c, 3, 46, 80
6, 18768, Note_on_c, 3, 34, 80
6, 18815, Note_off_c, 3, 46, 0
6, 18816, Note_on_c, 3, 46, 80
6, 18863, Note_off_c, 3, 46, 0
6, 18863, Note_off_c, 3, 34, 0
6, 18864, Note_on_c, 3, 46, 80
6, 18864, Note_on_c, 3, 34, 80
6, 18911, Note_off_c, 3, 46, 0
6, 18911, Note_off_c, 3, 34, 0
6, 18912, Note_on_c, 3, 46, 80
6, 18912, Note_on_c, 3, 34, 80
6, 19007, Note_off_c, 3, 34, 0
6, 19007, Note_off_c, 3, 46, 0
6, 19008, Note_on_c, 3, 46, 80
6, 19008, Note_on_c, 3, 34, 80
6, 19055, Note_off_c, 3, 46, 0
6, 19055, Note_off_c, 3, 34, 0
6, 19056, Note_on_c, 3, 46, 80
6, 19056, Note_on_c, 3, 34, 80
6, 19103, Note_off_c, 3, 46, 0
6, 19103, Note_off_c, 3, 34, 0
6, 19104, Note_on_c, 3, 34, 80
6, 19104, Note_on_c, 3, 46, 80
6, 19151, Note_off_c, 3, 34, 0
6, 19151, Note_off_c, 3, 46, 0
6, 19152, Note_on_c, 3, 34, 80
6, 19152, Note_on_c, 3, 46, 80
6, 19487, Note_off_c, 3, 46, 0
6, 19487, Note_off_c, 3, 34, 0
6, 19488, Note_on_c, 3, 37, 80
6, 19535, Note_off_c, 3, 37, 0
6, 19536, Note_on_c, 3, 39, 80
6, 19583, Note_off_c, 3, 39, 0
6, 19920, Note_on_c, 3, 34, 80
6, 19920, Note_on_c, 3, 46, 80
6, 19967, Note_off_c, 3, 46, 0
6, 19967, Note_off_c, 3, 34, 0
6, 20016, Note_on_c, 3, 46, 80
6, 20016, Note_on_c, 3, 34, 80
6, 20063, Note_off_c, 3, 34, 0
6, 20063, Note_off_c, 3, 46, 0
6, 20112, Note_on_c, 3, 44, 80
6, 20112, Note_on_c, 3, 32, 80
6, 20159, Note_off_c, 3, 44, 0
6, 20159, Note_off_c, 3, 32, 0
6, 20160, Note_on_c, 3, 32, 80
6, 20160, Note_on_c, 3, 44, 80
6, 20351, Note_off_c, 3, 32, 0
6, 20351, Note_off_c, 3, 44, 0
6, 20352, Note_on_c, 3, 39, 80
6, 20399, Note_off_c, 3, 39, 0
6, 20400, Note_on_c, 3, 37, 80
6, 20447, Note_off_c, 3, 37, 0
6, 20448, Note_on_c, 3, 39, 80
6, 20495, Note_off_c, 3, 39, 0
6, 20736, Control_c, 3, 101, 0
6, 20736, Control_c, 3, 100, 0
6, 20736, Control_c, 3, 6, 12
6, 20736, Control_c, 3, 10, 64
6, 20736, Control_c, 3, 7, 100
6, 20736, Pitch_bend_c, 3, 8192
6, 20736, Program_c, 3, 58
6, 20736, Control_c, 3, 101, 0
6, 20736, Control_c, 3, 100, 0
6, 20736, Control_c, 3, 6, 12
6, 20736, Control_c, 3, 10, 64
6, 20736, Control_c, 3, 7, 100
6, 20736, Pitch_bend_c, 3, 8192
6, 20736, Program_c, 3, 58
6, 20736, Control_c, 3, 101, 0
6, 20736, Control_c, 3, 100, 0
6, 20736, Control_c, 3, 6, 12
6, 20736, Control_c, 3, 10, 64
6, 20736, Control_c, 3, 7, 100
6, 20736, Pitch_bend_c, 3, 8192
6, 20736, Program_c, 3, 58
6, 20736, End_track
7, 0, Start_track
7, 0, Control_c, 4, 10, 64
7, 0, Control_c, 4, 7, 100
7, 0, Pitch_bend_c, 4, 8192
7, 0, Control_c, 4, 101, 0
7, 0, Control_c, 4, 100, 0
7, 0, Control_c, 4, 6, 12
7, 0, Control_c, 4, 10, 64
7, 0, Control_c, 4, 7, 100
7, 0, Pitch_bend_c, 4, 8192
7, 0, Program_c, 4, 58
7, 0, Control_c, 4, 101, 0
7, 0, Control_c, 4, 100, 0
7, 0, Control_c, 4, 6, 12
7, 0, Control_c, 4, 10, 64
7, 0, Control_c, 4, 7, 100
7, 0, Pitch_bend_c, 4, 8192
7, 0, Program_c, 4, 58
7, 0, Note_on_c, 4, 58, 80
7, 335, Note_off_c, 4, 58, 0
7, 336, Note_on_c, 4, 53, 80
7, 383, Note_off_c, 4, 53, 0
7, 432, Note_on_c, 4, 53, 80
7, 479, Note_off_c, 4, 53, 0
7, 528, Note_on_c, 4, 51, 80
7, 575, Note_off_c, 4, 51, 0
7, 576, Note_on_c, 4, 51, 80
7, 719, Note_off_c, 4, 51, 0
7, 768, Note_on_c, 4, 58, 80
7, 1103, Note_off_c, 4, 58, 0
7, 1104, Note_on_c, 4, 53, 80
7, 1151, Note_off_c, 4, 53, 0
7, 1200, Note_on_c, 4, 53, 80
7, 1247, Note_off_c, 4, 53, 0
7, 1296, Note_on_c, 4, 51, 80
7, 1343, Note_off_c, 4, 51, 0
7, 1344, Note_on_c, 4, 51, 80
7, 1535, Note_off_c, 4, 51, 0
7, 1536, Note_on_c, 4, 51, 80
7, 1583, Note_off_c, 4, 51, 0
7, 1584, Note_on_c, 4, 49, 80
7, 1631, Note_off_c, 4, 49, 0
7, 1632, Note_on_c, 4, 51, 80
7, 1679, Note_off_c, 4, 51, 0
7, 1872, Note_on_c, 4, 53, 80
7, 1919, Note_off_c, 4, 53, 0
7, 1968, Note_on_c, 4, 53, 80
7, 2015, Note_off_c, 4, 53, 0
7, 2064, Note_on_c, 4, 51, 80
7, 2111, Note_off_c, 4, 51, 0
7, 2112, Note_on_c, 4, 51, 80
7, 2303, Note_off_c, 4, 51, 0
7, 2304, Note_on_c, 4, 51, 80
7, 2351, Note_off_c, 4, 51, 0
7, 2352, Note_on_c, 4, 49, 80
7, 2399, Note_off_c, 4, 49, 0
7, 2400, Note_on_c, 4, 51, 80
7, 2447, Note_off_c, 4, 51, 0
7, 2640, Note_on_c, 4, 53, 80
7, 2687, Note_off_c, 4, 53, 0
7, 2736, Note_on_c, 4, 53, 80
7, 2783, Note_off_c, 4, 53, 0
7, 2832, Note_on_c, 4, 51, 80
7, 2879, Note_off_c, 4, 51, 0
7, 2880, Note_on_c, 4, 51, 80
7, 3071, Note_off_c, 4, 51, 0
7, 3072, Note_on_c, 4, 51, 80
7, 3119, Note_off_c, 4, 51, 0
7, 3120, Note_on_c, 4, 49, 80
7, 3167, Note_off_c, 4, 49, 0
7, 3168, Note_on_c, 4, 51, 80
7, 3215, Note_off_c, 4, 51, 0
7, 3408, Note_on_c, 4, 53, 80
7, 3455, Note_off_c, 4, 53, 0
7, 3504, Note_on_c, 4, 53, 80
7, 3551, Note_off_c, 4, 53, 0
7, 3600, Note_on_c, 4, 51, 80
7, 3647, Note_off_c, 4, 51, 0
7, 3648, Note_on_c, 4, 51, 80
7, 3839, Note_off_c, 4, 51, 0
7, 3840, Note_on_c, 4, 51, 80
7, 3887, Note_off_c, 4, 51, 0
7, 3888, Note_on_c, 4, 49, 80
7, 3935, Note_off_c, 4, 49, 0
7, 3936, Note_on_c, 4, 51, 80
7, 3983, Note_off_c, 4, 51, 0
7, 4176, Note_on_c, 4, 53, 80
7, 4223, Note_off_c, 4, 53, 0
7, 4272, Note_on_c, 4, 53, 80
7, 4319, Note_off_c, 4, 53, 0
7, 4368, Note_on_c, 4, 51, 80
7, 4415, Note_off_c, 4, 51, 0
7, 4464, Note_on_c, 4, 51, 80
7, 4559, Note_off_c, 4, 51, 0
7, 4608, Note_on_c, 4, 55, 80
7, 4799, Note_off_c, 4, 55, 0
7, 4800, Note_on_c, 4, 55, 80
7, 4847, Note_off_c, 4, 55, 0
7, 4848, Note_on_c, 4, 55, 80
7, 4895, Note_off_c, 4, 55, 0
7, 4944, Note_on_c, 4, 55, 80
7, 5183, Note_off_c, 4, 55, 0
7, 5184, Note_on_c, 4, 55, 80
7, 5279, Note_off_c, 4, 55, 0
7, 5280, Note_on_c, 4, 55, 80
7, 5327, Note_off_c, 4, 55, 0
7, 5328, Note_on_c, 4, 53, 80
7, 5567, Note_off_c, 4, 53, 0
7, 5568, Note_on_c, 4, 53, 80
7, 5615, Note_off_c, 4, 53, 0
7, 5616, Note_on_c, 4, 53, 80
7, 5663, Note_off_c, 4, 53, 0
7, 5712, Note_on_c, 4, 53, 80
7, 5951, Note_off_c, 4, 53, 0
7, 6144, Note_on_c, 4, 53, 80
7, 6335, Note_off_c, 4, 53, 0
7, 6336, Note_on_c, 4, 51, 80
7, 6527, Note_off_c, 4, 51, 0
7, 6528, Note_on_c, 4, 51, 80
7, 6719, Note_off_c, 4, 51, 0
7, 6720, Note_on_c, 4, 51, 80
7, 6911, Note_off_c, 4, 51, 0
7, 6912, Note_on_c, 4, 46, 80
7, 7103, Note_off_c, 4, 46, 0
7, 7104, Note_on_c, 4, 44, 80
7, 7151, Note_off_c, 4, 44, 0
7, 7152, Note_on_c, 4, 46, 80
7, 7199, Note_off_c, 4, 46, 0
7, 7248, Note_on_c, 4, 46, 80
7, 7343, Note_off_c, 4, 46, 0
7, 7344, Note_on_c, 4, 44, 80
7, 7391, Note_off_c, 4, 44, 0
7, 7392, Note_on_c, 4, 46, 80
7, 7631, Note_off_c, 4, 46, 0
7, 7680, Note_on_c, 4, 51, 80
7, 7727, Note_off_c, 4, 51, 0
7, 7728, Note_on_c, 4, 49, 80
7, 7775, Note_off_c, 4, 49, 0
7, 7776, Note_on_c, 4, 51, 80
7, 7823, Note_off_c, 4, 51, 0
7, 8016, Note_on_c, 4, 46, 80
7, 8063, Note_off_c, 4, 46, 0
7, 8112, Note_on_c, 4, 46, 80
7, 8159, Note_off_c, 4, 46, 0
7, 8208, Note_on_c, 4, 44, 80
7, 8255, Note_off_c, 4, 44, 0
7, 8256, Note_on_c, 4, 44, 80
7, 8447, Note_off_c, 4, 44, 0
7, 8448, Note_on_c, 4, 51, 80
7, 8495, Note_off_c, 4, 51, 0
7, 8496, Note_on_c, 4, 49, 80
7, 8543, Note_off_c, 4, 49, 0
7, 8544, Note_on_c, 4, 51, 80
7, 8591, Note_off_c, 4, 51, 0
7, 8784, Note_on_c, 4, 46, 80
7, 8831, Note_off_c, 4, 46, 0
7, 8880, Note_on_c, 4, 46, 80
7, 8927, Note_off_c, 4, 46, 0
7, 8976, Note_on_c, 4, 44, 80
7, 9023, Note_off_c, 4, 44, 0
7, 9024, Note_on_c, 4, 44, 80
7, 9215, Note_off_c, 4, 44, 0
7, 9216, Note_on_c, 4, 51, 80
7, 9263, Note_off_c, 4, 51, 0
7, 9264, Note_on_c, 4, 49, 80
7, 9311, Note_off_c, 4, 49, 0
7, 9312, Note_on_c, 4, 51, 80
7, 9359, Note_off_c, 4, 51, 0
7, 9552, Note_on_c, 4, 53, 80
7, 9599, Note_off_c, 4, 53, 0
7, 9648, Note_on_c, 4, 53, 80
7, 9695, Note_off_c, 4, 53, 0
7, 9744, Note_on_c, 4, 51, 80
7, 9791, Note_off_c, 4, 51, 0
7, 9792, Note_on_c, 4, 51, 80
7, 9983, Note_off_c, 4, 51, 0
7, 9984, Note_on_c, 4, 51, 80
7, 10031, Note_off_c, 4, 51, 0
7, 10032, Note_on_c, 4, 49, 80
7, 10079, Note_off_c, 4, 49, 0
7, 10080, Note_on_c, 4, 51, 80
7, 10127, Note_off_c, 4, 51, 0
7, 10320, Note_on_c, 4, 53, 80
7, 10367, Note_off_c, 4, 53, 0
7, 10416, Note_on_c, 4, 53, 80
7, 10463, Note_off_c, 4, 53, 0
7, 10512, Note_on_c, 4, 51, 80
7, 10559, Note_off_c, 4, 51, 0
7, 10560, Note_on_c, 4, 51, 80
7, 10703, Note_off_c, 4, 51, 0
7, 10752, Note_on_c, 4, 63, 80
7, 10943, Note_off_c, 4, 63, 0
7, 10944, Note_on_c, 4, 62, 80
7, 11135, Note_off_c, 4, 62, 0
7, 11136, Note_on_c, 4, 61, 80
7, 11327, Note_off_c, 4, 61, 0
7, 11328, Note_on_c, 4, 60, 80
7, 11375, Note_off_c, 4, 60, 0
7, 11376, Note_on_c, 4, 60, 80
7, 11423, Note_off_c, 4, 60, 0
7, 11424, Note_on_c, 4, 60, 80
7, 11471, Note_off_c, 4, 60, 0
7, 11520, Note_on_c, 4, 51, 80
7, 11711, Note_off_c, 4, 51, 0
7, 11712, Note_on_c, 4, 50, 80
7, 11855, Note_off_c, 4, 50, 0
7, 11856, Note_on_c, 4, 49, 80
7, 12095, Note_off_c, 4, 49, 0
7, 12096, Note_on_c, 4, 51, 80
7, 12239, Note_off_c, 4, 51, 0
7, 12240, Note_on_c, 4, 54, 80
7, 12335, Note_off_c, 4, 54, 0
7, 12336, Note_on_c, 4, 54, 80
7, 12383, Note_off_c, 4, 54, 0
7, 12384, Note_on_c, 4, 54, 80
7, 12431, Note_off_c, 4, 54, 0
7, 12432, Note_on_c, 4, 54, 80
7, 12479, Note_off_c, 4, 54, 0
7, 12480, Note_on_c, 4, 56, 80
7, 12527, Note_off_c, 4, 56, 0
7, 12528, Note_on_c, 4, 56, 80
7, 12575, Note_off_c, 4, 56, 0
7, 12576, Note_on_c, 4, 56, 80
7, 12623, Note_off_c, 4, 56, 0
7, 12768, Note_on_c, 4, 55, 80
7, 12863, Note_off_c, 4, 55, 0
7, 12864, Note_on_c, 4, 55, 80
7, 12911, Note_off_c, 4, 55, 0
7, 12912, Note_on_c, 4, 55, 80
7, 12959, Note_off_c, 4, 55, 0
7, 13008, Note_on_c, 4, 55, 80
7, 13247, Note_off_c, 4, 55, 0
7, 13248, Note_on_c, 4, 55, 80
7, 13343, Note_off_c, 4, 55, 0
7, 13344, Note_on_c, 4, 55, 80
7, 13391, Note_off_c, 4, 55, 0
7, 13392, Note_on_c, 4, 53, 80
7, 13631, Note_off_c, 4, 53, 0
7, 13632, Note_on_c, 4, 53, 80
7, 13679, Note_off_c, 4, 53, 0
7, 13680, Note_on_c, 4, 53, 80
7, 13727, Note_off_c, 4, 53, 0
7, 13776, Note_on_c, 4, 53, 80
7, 14015, Note_off_c, 4, 53, 0
7, 14208, Note_on_c, 4, 53, 80
7, 14399, Note_off_c, 4, 53, 0
7, 14400, Note_on_c, 4, 51, 80
7, 14591, Note_off_c, 4, 51, 0
7, 14592, Note_on_c, 4, 51, 80
7, 14783, Note_off_c, 4, 51, 0
7, 14784, Note_on_c, 4, 51, 80
7, 14975, Note_off_c, 4, 51, 0
7, 14976, Note_on_c, 4, 46, 80
7, 15167, Note_off_c, 4, 46, 0
7, 15168, Note_on_c, 4, 44, 80
7, 15215, Note_off_c, 4, 44, 0
7, 15216, Note_on_c, 4, 46, 80
7, 15263, Note_off_c, 4, 46, 0
7, 15312, Note_on_c, 4, 46, 80
7, 15407, Note_off_c, 4, 46, 0
7, 15408, Note_on_c, 4, 44, 80
7, 15455, Note_off_c, 4, 44, 0
7, 15456, Note_on_c, 4, 46, 80
7, 15551, Note_off_c, 4, 46, 0
7, 15552, Note_on_c, 4, 58, 80
7, 15599, Note_off_c, 4, 58, 0
7, 15600, Note_on_c, 4, 60, 80
7, 15647, Note_off_c, 4, 60, 0
7, 15648, Note_on_c, 4, 58, 80
7, 15695, Note_off_c, 4, 58, 0
7, 15696, Note_on_c, 4, 55, 80
7, 15743, Note_off_c, 4, 55, 0
7, 15744, Note_on_c, 4, 55, 80
7, 15935, Note_off_c, 4, 55, 0
7, 15936, Note_on_c, 4, 55, 80
7, 15983, Note_off_c, 4, 55, 0
7, 15984, Note_on_c, 4, 55, 80
7, 16079, Note_off_c, 4, 55, 0
7, 16080, Note_on_c, 4, 55, 80
7, 16175, Note_off_c, 4, 55, 0
7, 16176, Note_on_c, 4, 55, 80
7, 16223, Note_off_c, 4, 55, 0
7, 16224, Note_on_c, 4, 55, 80
7, 16415, Note_off_c, 4, 55, 0
7, 16416, Note_on_c, 4, 55, 80
7, 16463, Note_off_c, 4, 55, 0
7, 16464, Note_on_c, 4, 53, 80
7, 16607, Note_off_c, 4, 53, 0
7, 16608, Note_on_c, 4, 53, 80
7, 16703, Note_off_c, 4, 53, 0
7, 16704, Note_on_c, 4, 53, 80
7, 16751, Note_off_c, 4, 53, 0
7, 16752, Note_on_c, 4, 53, 80
7, 16847, Note_off_c, 4, 53, 0
7, 16848, Note_on_c, 4, 53, 80
7, 17087, Note_off_c, 4, 53, 0
7, 17280, Note_on_c, 4, 53, 80
7, 17471, Note_off_c, 4, 53, 0
7, 17472, Note_on_c, 4, 51, 80
7, 17663, Note_off_c, 4, 51, 0
7, 17664, Note_on_c, 4, 51, 80
7, 17855, Note_off_c, 4, 51, 0
7, 17856, Note_on_c, 4, 51, 80
7, 18047, Note_off_c, 4, 51, 0
7, 18048, Note_on_c, 4, 53, 80
7, 18335, Note_off_c, 4, 53, 0
7, 18384, Note_on_c, 4, 53, 80
7, 18719, Note_off_c, 4, 53, 0
7, 18768, Note_on_c, 4, 53, 80
7, 19103, Note_off_c, 4, 53, 0
7, 19152, Note_on_c, 4, 58, 80
7, 19487, Note_off_c, 4, 58, 0
7, 19488, Note_on_c, 4, 49, 80
7, 19535, Note_off_c, 4, 49, 0
7, 19536, Note_on_c, 4, 51, 80
7, 19583, Note_off_c, 4, 51, 0
7, 19920, Note_on_c, 4, 53, 96
7, 19951, Note_off_c, 4, 53, 0
7, 20016, Note_on_c, 4, 53, 96
7, 20047, Note_off_c, 4, 53, 0
7, 20112, Note_on_c, 4, 51, 80
7, 20159, Note_off_c, 4, 51, 0
7, 20160, Note_on_c, 4, 51, 96
7, 20351, Note_off_c, 4, 51, 0
7, 20352, Note_on_c, 4, 63, 80
7, 20399, Note_off_c, 4, 63, 0
7, 20400, Note_on_c, 4, 61, 80
7, 20447, Note_off_c, 4, 61, 0
7, 20448, Note_on_c, 4, 63, 80
7, 20495, Note_off_c, 4, 63, 0
7, 20736, Control_c, 4, 101, 0
7, 20736, Control_c, 4, 100, 0
7, 20736, Control_c, 4, 6, 12
7, 20736, Control_c, 4, 10, 64
7, 20736, Control_c, 4, 7, 100
7, 20736, Pitch_bend_c, 4, 8192
7, 20736, Program_c, 4, 58
7, 20736, Control_c, 4, 101, 0
7, 20736, Control_c, 4, 100, 0
7, 20736, Control_c, 4, 6, 12
7, 20736, Control_c, 4, 10, 64
7, 20736, Control_c, 4, 7, 100
7, 20736, Pitch_bend_c, 4, 8192
7, 20736, Program_c, 4, 58
7, 20736, Control_c, 4, 101, 0
7, 20736, Control_c, 4, 100, 0
7, 20736, Control_c, 4, 6, 12
7, 20736, Control_c, 4, 10, 64
7, 20736, Control_c, 4, 7, 100
7, 20736, Pitch_bend_c, 4, 8192
7, 20736, Program_c, 4, 58
7, 20736, End_track
8, 0, Start_track
8, 0, Control_c, 5, 10, 64
8, 0, Control_c, 5, 7, 100
8, 0, Pitch_bend_c, 5, 8192
8, 0, Control_c, 5, 101, 0
8, 0, Control_c, 5, 100, 0
8, 0, Control_c, 5, 6, 12
8, 0, Control_c, 5, 10, 64
8, 0, Control_c, 5, 7, 100
8, 0, Pitch_bend_c, 5, 8192
8, 0, Program_c, 5, 73
8, 0, Control_c, 5, 101, 0
8, 0, Control_c, 5, 100, 0
8, 0, Control_c, 5, 6, 12
8, 0, Control_c, 5, 10, 64
8, 0, Control_c, 5, 7, 100
8, 0, Pitch_bend_c, 5, 8192
8, 0, Program_c, 5, 73
8, 768, Note_on_c, 5, 82, 127
8, 768, Note_on_c, 5, 82, 127
8, 815, Note_off_c, 5, 82, 0
8, 815, Note_off_c, 5, 82, 0
8, 816, Note_on_c, 5, 80, 112
8, 816, Note_on_c, 5, 80, 112
8, 861, Note_off_c, 5, 80, 0
8, 861, Note_off_c, 5, 80, 0
8, 864, Note_on_c, 5, 82, 112
8, 864, Note_on_c, 5, 82, 112
8, 909, Note_off_c, 5, 82, 0
8, 909, Note_off_c, 5, 82, 0
8, 912, Note_on_c, 5, 91, 127
8, 912, Note_on_c, 5, 91, 127
8, 1005, Note_off_c, 5, 91, 0
8, 1005, Note_off_c, 5, 91, 0
8, 1008, Note_on_c, 5, 87, 112
8, 1008, Note_on_c, 5, 87, 112
8, 1099, Note_off_c, 5, 87, 0
8, 1099, Note_off_c, 5, 87, 0
8, 1104, Note_on_c, 5, 89, 127
8, 1104, Note_on_c, 5, 82, 127
8, 1135, Note_off_c, 5, 89, 0
8, 1135, Note_off_c, 5, 82, 0
8, 1200, Note_on_c, 5, 89, 127
8, 1200, Note_on_c, 5, 82, 127
8, 1231, Note_off_c, 5, 89, 0
8, 1231, Note_off_c, 5, 82, 0
8, 1296, Note_on_c, 5, 82, 112
8, 1296, Note_on_c, 5, 87, 112
8, 1343, Note_off_c, 5, 82, 0
8, 1343, Note_off_c, 5, 87, 0
8, 1344, Note_on_c, 5, 87, 127
8, 1344, Note_on_c, 5, 82, 127
8, 1535, Note_off_c, 5, 82, 0
8, 1535, Note_off_c, 5, 87, 0
8, 1632, Note_on_c, 5, 79, 112
8, 1632, Note_on_c, 5, 79, 112
8, 1723, Note_off_c, 5, 79, 0
8, 1723, Note_off_c, 5, 79, 0
8, 1728, Note_on_c, 5, 77, 112
8, 1728, Note_on_c, 5, 77, 112
8, 1773, Note_off_c, 5, 77, 0
8, 1773, Note_off_c, 5, 77, 0
8, 1776, Note_on_c, 5, 75, 112
8, 1776, Note_on_c, 5, 75, 112
8, 1867, Note_off_c, 5, 75, 0
8, 1867, Note_off_c, 5, 75, 0
8, 1872, Note_on_c, 5, 74, 112
8, 1872, Note_on_c, 5, 74, 112
8, 1963, Note_off_c, 5, 74, 0
8, 1963, Note_off_c, 5, 74, 0
8, 1968, Note_on_c, 5, 75, 112
8, 1968, Note_on_c, 5, 75, 112
8, 2059, Note_off_c, 5, 75, 0
8, 2059, Note_off_c, 5, 75, 0
8, 2064, Note_on_c, 5, 75, 112
8, 2064, Note_on_c, 5, 75, 112
8, 2291, Note_off_c, 5, 75, 0
8, 2291, Note_off_c, 5, 75, 0
8, 2400, Note_on_c, 5, 79, 112
8, 2400, Note_on_c, 5, 79, 112
8, 2491, Note_off_c, 5, 79, 0
8, 2491, Note_off_c, 5, 79, 0
8, 2496, Note_on_c, 5, 77, 112
8, 2496, Note_on_c, 5, 77, 112
8, 2541, Note_off_c, 5, 77, 0
8, 2541, Note_off_c, 5, 77, 0
8, 2544, Note_on_c, 5, 75, 112
8, 2544, Note_on_c, 5, 75, 112
8, 2635, Note_off_c, 5, 75, 0
8, 2635, Note_off_c, 5, 75, 0
8, 2640, Note_on_c, 5, 74, 112
8, 2640, Note_on_c, 5, 74, 112
8, 2731, Note_off_c, 5, 74, 0
8, 2731, Note_off_c, 5, 74, 0
8, 2736, Note_on_c, 5, 75, 112
8, 2736, Note_on_c, 5, 75, 112
8, 2827, Note_off_c, 5, 75, 0
8, 2827, Note_off_c, 5, 75, 0
8, 2832, Note_on_c, 5, 72, 112
8, 2832, Note_on_c, 5, 72, 112
8, 2923, Note_off_c, 5, 72, 0
8, 2923, Note_off_c, 5, 72, 0
8, 2928, Note_on_c, 5, 70, 112
8, 2928, Note_on_c, 5, 70, 112
8, 3064, Note_off_c, 5, 70, 0
8, 3064, Note_off_c, 5, 70, 0
8, 3168, Note_on_c, 5, 82, 112
8, 3168, Note_on_c, 5, 82, 112
8, 3259, Note_off_c, 5, 82, 0
8, 3259, Note_off_c, 5, 82, 0
8, 3264, Note_on_c, 5, 82, 112
8, 3264, Note_on_c, 5, 82, 112
8, 3309, Note_off_c, 5, 82, 0
8, 3309, Note_off_c, 5, 82, 0
8, 3312, Note_on_c, 5, 82, 112
8, 3312, Note_on_c, 5, 82, 112
8, 3403, Note_off_c, 5, 82, 0
8, 3403, Note_off_c, 5, 82, 0
8, 3408, Note_on_c, 5, 82, 112
8, 3408, Note_on_c, 5, 82, 112
8, 3499, Note_off_c, 5, 82, 0
8, 3499, Note_off_c, 5, 82, 0
8, 3504, Note_on_c, 5, 82, 112
8, 3504, Note_on_c, 5, 82, 112
8, 3595, Note_off_c, 5, 82, 0
8, 3595, Note_off_c, 5, 82, 0
8, 3600, Note_on_c, 5, 82, 112
8, 3600, Note_on_c, 5, 82, 112
8, 3827, Note_off_c, 5, 82, 0
8, 3827, Note_off_c, 5, 82, 0
8, 3936, Note_on_c, 5, 82, 112
8, 3936, Note_on_c, 5, 82, 112
8, 4027, Note_off_c, 5, 82, 0
8, 4027, Note_off_c, 5, 82, 0
8, 4032, Note_on_c, 5, 82, 112
8, 4032, Note_on_c, 5, 82, 112
8, 4077, Note_off_c, 5, 82, 0
8, 4077, Note_off_c, 5, 82, 0
8, 4080, Note_on_c, 5, 82, 112
8, 4080, Note_on_c, 5, 82, 112
8, 4171, Note_off_c, 5, 82, 0
8, 4171, Note_off_c, 5, 82, 0
8, 4176, Note_on_c, 5, 82, 112
8, 4176, Note_on_c, 5, 82, 112
8, 4267, Note_off_c, 5, 82, 0
8, 4267, Note_off_c, 5, 82, 0
8, 4272, Note_on_c, 5, 82, 112
8, 4272, Note_on_c, 5, 82, 112
8, 4317, Note_off_c, 5, 82, 0
8, 4317, Note_off_c, 5, 82, 0
8, 4368, Note_on_c, 5, 82, 112
8, 4368, Note_on_c, 5, 82, 112
8, 4413, Note_off_c, 5, 82, 0
8, 4413, Note_off_c, 5, 82, 0
8, 4464, Note_on_c, 5, 82, 112
8, 4464, Note_on_c, 5, 82, 112
8, 4555, Note_off_c, 5, 82, 0
8, 4555, Note_off_c, 5, 82, 0
8, 4608, Note_on_c, 5, 87, 112
8, 4608, Note_on_c, 5, 91, 112
8, 5018, Note_off_c, 5, 91, 0
8, 5018, Note_off_c, 5, 87, 0
8, 5088, Note_on_c, 5, 91, 112
8, 5088, Note_on_c, 5, 82, 112
8, 5133, Note_off_c, 5, 91, 0
8, 5133, Note_off_c, 5, 82, 0
8, 5136, Note_on_c, 5, 82, 112
8, 5136, Note_on_c, 5, 91, 112
8, 5181, Note_off_c, 5, 82, 0
8, 5181, Note_off_c, 5, 91, 0
8, 5184, Note_on_c, 5, 91, 112
8, 5184, Note_on_c, 5, 82, 112
8, 5229, Note_off_c, 5, 82, 0
8, 5229, Note_off_c, 5, 91, 0
8, 5232, Note_on_c, 5, 84, 112
8, 5232, Note_on_c, 5, 89, 112
8, 5277, Note_off_c, 5, 84, 0
8, 5277, Note_off_c, 5, 89, 0
8, 5280, Note_on_c, 5, 87, 112
8, 5280, Note_on_c, 5, 82, 112
8, 5325, Note_off_c, 5, 87, 0
8, 5325, Note_off_c, 5, 82, 0
8, 5328, Note_on_c, 5, 82, 112
8, 5328, Note_on_c, 5, 89, 112
8, 5783, Note_off_c, 5, 82, 0
8, 5783, Note_off_c, 5, 89, 0
8, 5856, Note_on_c, 5, 79, 112
8, 5856, Note_on_c, 5, 79, 112
8, 5901, Note_off_c, 5, 79, 0
8, 5901, Note_off_c, 5, 79, 0
8, 5904, Note_on_c, 5, 79, 112
8, 5904, Note_on_c, 5, 79, 112
8, 5949, Note_off_c, 5, 79, 0
8, 5949, Note_off_c, 5, 79, 0
8, 5952, Note_on_c, 5, 79, 112
8, 5952, Note_on_c, 5, 79, 112
8, 5997, Note_off_c, 5, 79, 0
8, 5997, Note_off_c, 5, 79, 0
8, 6000, Note_on_c, 5, 77, 112
8, 6000, Note_on_c, 5, 77, 112
8, 6045, Note_off_c, 5, 77, 0
8, 6045, Note_off_c, 5, 77, 0
8, 6048, Note_on_c, 5, 75, 112
8, 6048, Note_on_c, 5, 75, 112
8, 6093, Note_off_c, 5, 75, 0
8, 6093, Note_off_c, 5, 75, 0
8, 6096, Note_on_c, 5, 77, 112
8, 6096, Note_on_c, 5, 77, 112
8, 6323, Note_off_c, 5, 77, 0
8, 6323, Note_off_c, 5, 77, 0
8, 6336, Note_on_c, 5, 79, 112
8, 6336, Note_on_c, 5, 79, 112
8, 6518, Note_off_c, 5, 79, 0
8, 6518, Note_off_c, 5, 79, 0
8, 6528, Note_on_c, 5, 75, 112
8, 6528, Note_on_c, 5, 75, 112
8, 6710, Note_off_c, 5, 75, 0
8, 6710, Note_off_c, 5, 75, 0
8, 6720, Note_on_c, 5, 84, 112
8, 6720, Note_on_c, 5, 84, 112
8, 6856, Note_off_c, 5, 84, 0
8, 6856, Note_off_c, 5, 84, 0
8, 6864, Note_on_c, 5, 82, 112
8, 6864, Note_on_c, 5, 82, 112
8, 6909, Note_off_c, 5, 82, 0
8, 6909, Note_off_c, 5, 82, 0
8, 6912, Note_on_c, 5, 84, 112
8, 6912, Note_on_c, 5, 84, 112
8, 6957, Note_off_c, 5, 84, 0
8, 6957, Note_off_c, 5, 84, 0
8, 6960, Note_on_c, 5, 82, 112
8, 6960, Note_on_c, 5, 82, 112
8, 7279, Note_off_c, 5, 82, 0
8, 7279, Note_off_c, 5, 82, 0
8, 7344, Note_on_c, 5, 82, 112
8, 7344, Note_on_c, 5, 82, 112
8, 7389, Note_off_c, 5, 82, 0
8, 7389, Note_off_c, 5, 82, 0
8, 7392, Note_on_c, 5, 80, 112
8, 7392, Note_on_c, 5, 92, 112
8, 7437, Note_off_c, 5, 80, 0
8, 7437, Note_off_c, 5, 92, 0
8, 7440, Note_on_c, 5, 91, 112
8, 7440, Note_on_c, 5, 79, 112
8, 7485, Note_off_c, 5, 91, 0
8, 7485, Note_off_c, 5, 79, 0
8, 7488, Note_on_c, 5, 80, 112
8, 7488, Note_on_c, 5, 92, 112
8, 7533, Note_off_c, 5, 92, 0
8, 7533, Note_off_c, 5, 80, 0
8, 7536, Note_on_c, 5, 91, 112
8, 7536, Note_on_c, 5, 79, 112
8, 7581, Note_off_c, 5, 79, 0
8, 7581, Note_off_c, 5, 91, 0
8, 7584, Note_on_c, 5, 75, 112
8, 7584, Note_on_c, 5, 87, 112
8, 7629, Note_off_c, 5, 87, 0
8, 7629, Note_off_c, 5, 75, 0
8, 7632, Note_on_c, 5, 87, 112
8, 7632, Note_on_c, 5, 75, 112
8, 7677, Note_off_c, 5, 87, 0
8, 7677, Note_off_c, 5, 75, 0
8, 9216, Note_on_c, 5, 75, 112
8, 9216, Note_on_c, 5, 75, 112
8, 9261, Note_off_c, 5, 75, 0
8, 9261, Note_off_c, 5, 75, 0
8, 9264, Note_on_c, 5, 73, 112
8, 9264, Note_on_c, 5, 73, 112
8, 9309, Note_off_c, 5, 73, 0
8, 9309, Note_off_c, 5, 73, 0
8, 9312, Note_on_c, 5, 75, 112
8, 9312, Note_on_c, 5, 75, 112
8, 9357, Note_off_c, 5, 75, 0
8, 9357, Note_off_c, 5, 75, 0
8, 9984, Note_on_c, 5, 87, 112
8, 9984, Note_on_c, 5, 87, 112
8, 10029, Note_off_c, 5, 87, 0
8, 10029, Note_off_c, 5, 87, 0
8, 10032, Note_on_c, 5, 85, 112
8, 10032, Note_on_c, 5, 85, 112
8, 10077, Note_off_c, 5, 85, 0
8, 10077, Note_off_c, 5, 85, 0
8, 10080, Note_on_c, 5, 87, 112
8, 10080, Note_on_c, 5, 87, 112
8, 10125, Note_off_c, 5, 87, 0
8, 10125, Note_off_c, 5, 87, 0
8, 10752, Note_on_c, 5, 82, 112
8, 10752, Note_on_c, 5, 82, 112
8, 10797, Note_off_c, 5, 82, 0
8, 10797, Note_off_c, 5, 82, 0
8, 10800, Note_on_c, 5, 79, 112
8, 10800, Note_on_c, 5, 79, 112
8, 10845, Note_off_c, 5, 79, 0
8, 10845, Note_off_c, 5, 79, 0
8, 10848, Note_on_c, 5, 82, 112
8, 10848, Note_on_c, 5, 82, 112
8, 10893, Note_off_c, 5, 82, 0
8, 10893, Note_off_c, 5, 82, 0
8, 10896, Note_on_c, 5, 79, 112
8, 10896, Note_on_c, 5, 79, 112
8, 10941, Note_off_c, 5, 79, 0
8, 10941, Note_off_c, 5, 79, 0
8, 10944, Note_on_c, 5, 82, 112
8, 10944, Note_on_c, 5, 82, 112
8, 10989, Note_off_c, 5, 82, 0
8, 10989, Note_off_c, 5, 82, 0
8, 10992, Note_on_c, 5, 79, 112
8, 10992, Note_on_c, 5, 79, 112
8, 11037, Note_off_c, 5, 79, 0
8, 11037, Note_off_c, 5, 79, 0
8, 11040, Note_on_c, 5, 82, 112
8, 11040, Note_on_c, 5, 82, 112
8, 11085, Note_off_c, 5, 82, 0
8, 11085, Note_off_c, 5, 82, 0
8, 11088, Note_on_c, 5, 79, 112
8, 11088, Note_on_c, 5, 79, 112
8, 11133, Note_off_c, 5, 79, 0
8, 11133, Note_off_c, 5, 79, 0
8, 11136, Note_on_c, 5, 80, 112
8, 11136, Note_on_c, 5, 80, 112
8, 11181, Note_off_c, 5, 80, 0
8, 11181, Note_off_c, 5, 80, 0
8, 11184, Note_on_c, 5, 77, 112
8, 11184, Note_on_c, 5, 77, 112
8, 11229, Note_off_c, 5, 77, 0
8, 11229, Note_off_c, 5, 77, 0
8, 11232, Note_on_c, 5, 80, 112
8, 11232, Note_on_c, 5, 80, 112
8, 11277, Note_off_c, 5, 80, 0
8, 11277, Note_off_c, 5, 80, 0
8, 11280, Note_on_c, 5, 77, 112
8, 11280, Note_on_c, 5, 77, 112
8, 11325, Note_off_c, 5, 77, 0
8, 11325, Note_off_c, 5, 77, 0
8, 11328, Note_on_c, 5, 80, 112
8, 11328, Note_on_c, 5, 80, 112
8, 11373, Note_off_c, 5, 80, 0
8, 11373, Note_off_c, 5, 80, 0
8, 11376, Note_on_c, 5, 77, 112
8, 11376, Note_on_c, 5, 77, 112
8, 11421, Note_off_c, 5, 77, 0
8, 11421, Note_off_c, 5, 77, 0
8, 11424, Note_on_c, 5, 80, 112
8, 11424, Note_on_c, 5, 80, 112
8, 11469, Note_off_c, 5, 80, 0
8, 11469, Note_off_c, 5, 80, 0
8, 11520, Note_on_c, 5, 82, 112
8, 11520, Note_on_c, 5, 82, 112
8, 11565, Note_off_c, 5, 82, 0
8, 11565, Note_off_c, 5, 82, 0
8, 11568, Note_on_c, 5, 79, 112
8, 11568, Note_on_c, 5, 79, 112
8, 11613, Note_off_c, 5, 79, 0
8, 11613, Note_off_c, 5, 79, 0
8, 11616, Note_on_c, 5, 82, 112
8, 11616, Note_on_c, 5, 82, 112
8, 11661, Note_off_c, 5, 82, 0
8, 11661, Note_off_c, 5, 82, 0
8, 11664, Note_on_c, 5, 79, 112
8, 11664, Note_on_c, 5, 79, 112
8, 11709, Note_off_c, 5, 79, 0
8, 11709, Note_off_c, 5, 79, 0
8, 11712, Note_on_c, 5, 82, 112
8, 11712, Note_on_c, 5, 82, 112
8, 11757, Note_off_c, 5, 82, 0
8, 11757, Note_off_c, 5, 82, 0
8, 11760, Note_on_c, 5, 79, 112
8, 11760, Note_on_c, 5, 79, 112
8, 11805, Note_off_c, 5, 79, 0
8, 11805, Note_off_c, 5, 79, 0
8, 11808, Note_on_c, 5, 82, 112
8, 11808, Note_on_c, 5, 82, 112
8, 11853, Note_off_c, 5, 82, 0
8, 11853, Note_off_c, 5, 82, 0
8, 11856, Note_on_c, 5, 82, 112
8, 11856, Note_on_c, 5, 82, 112
8, 11901, Note_off_c, 5, 82, 0
8, 11901, Note_off_c, 5, 82, 0
8, 11904, Note_on_c, 5, 82, 112
8, 11904, Note_on_c, 5, 82, 112
8, 11949, Note_off_c, 5, 82, 0
8, 11949, Note_off_c, 5, 82, 0
8, 11952, Note_on_c, 5, 80, 112
8, 11952, Note_on_c, 5, 80, 112
8, 11997, Note_off_c, 5, 80, 0
8, 11997, Note_off_c, 5, 80, 0
8, 12000, Note_on_c, 5, 82, 112
8, 12000, Note_on_c, 5, 82, 112
8, 12045, Note_off_c, 5, 82, 0
8, 12045, Note_off_c, 5, 82, 0
8, 12048, Note_on_c, 5, 80, 112
8, 12048, Note_on_c, 5, 80, 112
8, 12093, Note_off_c, 5, 80, 0
8, 12093, Note_off_c, 5, 80, 0
8, 12096, Note_on_c, 5, 82, 112
8, 12096, Note_on_c, 5, 82, 112
8, 12141, Note_off_c, 5, 82, 0
8, 12141, Note_off_c, 5, 82, 0
8, 12144, Note_on_c, 5, 80, 112
8, 12144, Note_on_c, 5, 80, 112
8, 12189, Note_off_c, 5, 80, 0
8, 12189, Note_off_c, 5, 80, 0
8, 12192, Note_on_c, 5, 82, 112
8, 12192, Note_on_c, 5, 82, 112
8, 12237, Note_off_c, 5, 82, 0
8, 12237, Note_off_c, 5, 82, 0
8, 12240, Note_on_c, 5, 87, 112
8, 12240, Note_on_c, 5, 87, 112
8, 12331, Note_off_c, 5, 87, 0
8, 12331, Note_off_c, 5, 87, 0
8, 12336, Note_on_c, 5, 85, 112
8, 12336, Note_on_c, 5, 85, 112
8, 12381, Note_off_c, 5, 85, 0
8, 12381, Note_off_c, 5, 85, 0
8, 12384, Note_on_c, 5, 87, 112
8, 12384, Note_on_c, 5, 87, 112
8, 12429, Note_off_c, 5, 87, 0
8, 12429, Note_off_c, 5, 87, 0
8, 12432, Note_on_c, 5, 85, 112
8, 12432, Note_on_c, 5, 85, 112
8, 12477, Note_off_c, 5, 85, 0
8, 12477, Note_off_c, 5, 85, 0
8, 12480, Note_on_c, 5, 87, 112
8, 12480, Note_on_c, 5, 87, 112
8, 12525, Note_off_c, 5, 87, 0
8, 12525, Note_off_c, 5, 87, 0
8, 12528, Note_on_c, 5, 85, 112
8, 12528, Note_on_c, 5, 85, 112
8, 12573, Note_off_c, 5, 85, 0
8, 12573, Note_off_c, 5, 85, 0
8, 12576, Note_on_c, 5, 87, 112
8, 12576, Note_on_c, 5, 87, 112
8, 12621, Note_off_c, 5, 87, 0
8, 12621, Note_off_c, 5, 87, 0
8, 12768, Note_on_c, 5, 87, 112
8, 12768, Note_on_c, 5, 91, 112
8, 13087, Note_off_c, 5, 87, 0
8, 13087, Note_off_c, 5, 91, 0
8, 13152, Note_on_c, 5, 91, 112
8, 13152, Note_on_c, 5, 87, 112
8, 13197, Note_off_c, 5, 91, 0
8, 13197, Note_off_c, 5, 87, 0
8, 13200, Note_on_c, 5, 87, 112
8, 13200, Note_on_c, 5, 91, 112
8, 13245, Note_off_c, 5, 87, 0
8, 13245, Note_off_c, 5, 91, 0
8, 13248, Note_on_c, 5, 91, 112
8, 13248, Note_on_c, 5, 87, 112
8, 13293, Note_off_c, 5, 87, 0
8, 13293, Note_off_c, 5, 91, 0
8, 13296, Note_on_c, 5, 84, 112
8, 13296, Note_on_c, 5, 89, 112
8, 13341, Note_off_c, 5, 84, 0
8, 13341, Note_off_c, 5, 89, 0
8, 13344, Note_on_c, 5, 87, 112
8, 13344, Note_on_c, 5, 82, 112
8, 13389, Note_off_c, 5, 87, 0
8, 13389, Note_off_c, 5, 82, 0
8, 13392, Note_on_c, 5, 86, 112
8, 13392, Note_on_c, 5, 89, 112
8, 13847, Note_off_c, 5, 86, 0
8, 13847, Note_off_c, 5, 89, 0
8, 13920, Note_on_c, 5, 79, 112
8, 13920, Note_on_c, 5, 79, 112
8, 13965, Note_off_c, 5, 79, 0
8, 13965, Note_off_c, 5, 79, 0
8, 13968, Note_on_c, 5, 79, 112
8, 13968, Note_on_c, 5, 79, 112
8, 14013, Note_off_c, 5, 79, 0
8, 14013, Note_off_c, 5, 79, 0
8, 14016, Note_on_c, 5, 79, 112
8, 14016, Note_on_c, 5, 79, 112
8, 14061, Note_off_c, 5, 79, 0
8, 14061, Note_off_c, 5, 79, 0
8, 14064, Note_on_c, 5, 77, 112
8, 14064, Note_on_c, 5, 77, 112
8, 14109, Note_off_c, 5, 77, 0
8, 14109, Note_off_c, 5, 77, 0
8, 14112, Note_on_c, 5, 75, 112
8, 14112, Note_on_c, 5, 75, 112
8, 14157, Note_off_c, 5, 75, 0
8, 14157, Note_off_c, 5, 75, 0
8, 14160, Note_on_c, 5, 77, 112
8, 14160, Note_on_c, 5, 77, 112
8, 14387, Note_off_c, 5, 77, 0
8, 14387, Note_off_c, 5, 77, 0
8, 14400, Note_on_c, 5, 79, 112
8, 14400, Note_on_c, 5, 79, 112
8, 14582, Note_off_c, 5, 79, 0
8, 14582, Note_off_c, 5, 79, 0
8, 14592, Note_on_c, 5, 75, 112
8, 14592, Note_on_c, 5, 75, 112
8, 14774, Note_off_c, 5, 75, 0
8, 14774, Note_off_c, 5, 75, 0
8, 14784, Note_on_c, 5, 84, 112
8, 14784, Note_on_c, 5, 84, 112
8, 14920, Note_off_c, 5, 84, 0
8, 14920, Note_off_c, 5, 84, 0
8, 14928, Note_on_c, 5, 82, 112
8, 14928, Note_on_c, 5, 82, 112
8, 14973, Note_off_c, 5, 82, 0
8, 14973, Note_off_c, 5, 82, 0
8, 14976, Note_on_c, 5, 84, 112
8, 14976, Note_on_c, 5, 84, 112
8, 15021, Note_off_c, 5, 84, 0
8, 15021, Note_off_c, 5, 84, 0
8, 15024, Note_on_c, 5, 82, 112
8, 15024, Note_on_c, 5, 82, 112
8, 15343, Note_off_c, 5, 82, 0
8, 15343, Note_off_c, 5, 82, 0
8, 15408, Note_on_c, 5, 70, 112
8, 15408, Note_on_c, 5, 70, 112
8, 15453, Note_off_c, 5, 70, 0
8, 15453, Note_off_c, 5, 70, 0
8, 15456, Note_on_c, 5, 80, 112
8, 15456, Note_on_c, 5, 80, 112
8, 15501, Note_off_c, 5, 80, 0
8, 15501, Note_off_c, 5, 80, 0
8, 15504, Note_on_c, 5, 79, 112
8, 15504, Note_on_c, 5, 79, 112
8, 15549, Note_off_c, 5, 79, 0
8, 15549, Note_off_c, 5, 79, 0
8, 15552, Note_on_c, 5, 80, 112
8, 15552, Note_on_c, 5, 80, 112
8, 15597, Note_off_c, 5, 80, 0
8, 15597, Note_off_c, 5, 80, 0
8, 15600, Note_on_c, 5, 79, 112
8, 15600, Note_on_c, 5, 79, 112
8, 15645, Note_off_c, 5, 79, 0
8, 15645, Note_off_c, 5, 79, 0
8, 15648, Note_on_c, 5, 75, 112
8, 15648, Note_on_c, 5, 75, 112
8, 15739, Note_off_c, 5, 75, 0
8, 15739, Note_off_c, 5, 75, 0
8, 15744, Note_on_c, 5, 87, 112
8, 15744, Note_on_c, 5, 87, 112
8, 15880, Note_off_c, 5, 87, 0
8, 15880, Note_off_c, 5, 87, 0
8, 15888, Note_on_c, 5, 84, 112
8, 15888, Note_on_c, 5, 84, 112
8, 15979, Note_off_c, 5, 84, 0
8, 15979, Note_off_c, 5, 84, 0
8, 15984, Note_on_c, 5, 82, 112
8, 15984, Note_on_c, 5, 82, 112
8, 16029, Note_off_c, 5, 82, 0
8, 16029, Note_off_c, 5, 82, 0
8, 16032, Note_on_c, 5, 84, 112
8, 16032, Note_on_c, 5, 84, 112
8, 16077, Note_off_c, 5, 84, 0
8, 16077, Note_off_c, 5, 84, 0
8, 16080, Note_on_c, 5, 87, 112
8, 16080, Note_on_c, 5, 87, 112
8, 16399, Note_off_c, 5, 87, 0
8, 16399, Note_off_c, 5, 87, 0
8, 16464, Note_on_c, 5, 84, 112
8, 16464, Note_on_c, 5, 84, 112
8, 16555, Note_off_c, 5, 84, 0
8, 16555, Note_off_c, 5, 84, 0
8, 16560, Note_on_c, 5, 86, 112
8, 16560, Note_on_c, 5, 86, 112
8, 16651, Note_off_c, 5, 86, 0
8, 16651, Note_off_c, 5, 86, 0
8, 16656, Note_on_c, 5, 87, 112
8, 16656, Note_on_c, 5, 87, 112
8, 16747, Note_off_c, 5, 87, 0
8, 16747, Note_off_c, 5, 87, 0
8, 16752, Note_on_c, 5, 86, 112
8, 16752, Note_on_c, 5, 86, 112
8, 16934, Note_off_c, 5, 86, 0
8, 16934, Note_off_c, 5, 86, 0
8, 16992, Note_on_c, 5, 79, 112
8, 16992, Note_on_c, 5, 79, 112
8, 17037, Note_off_c, 5, 79, 0
8, 17037, Note_off_c, 5, 79, 0
8, 17040, Note_on_c, 5, 79, 112
8, 17040, Note_on_c, 5, 79, 112
8, 17085, Note_off_c, 5, 79, 0
8, 17085, Note_off_c, 5, 79, 0
8, 17088, Note_on_c, 5, 79, 112
8, 17088, Note_on_c, 5, 79, 112
8, 17133, Note_off_c, 5, 79, 0
8, 17133, Note_off_c, 5, 79, 0
8, 17136, Note_on_c, 5, 77, 112
8, 17136, Note_on_c, 5, 77, 112
8, 17181, Note_off_c, 5, 77, 0
8, 17181, Note_off_c, 5, 77, 0
8, 17184, Note_on_c, 5, 75, 112
8, 17184, Note_on_c, 5, 75, 112
8, 17275, Note_off_c, 5, 75, 0
8, 17275, Note_off_c, 5, 75, 0
8, 17280, Note_on_c, 5, 77, 112
8, 17280, Note_on_c, 5, 77, 112
8, 17462, Note_off_c, 5, 77, 0
8, 17462, Note_off_c, 5, 77, 0
8, 17472, Note_on_c, 5, 79, 112
8, 17472, Note_on_c, 5, 79, 112
8, 17654, Note_off_c, 5, 79, 0
8, 17654, Note_off_c, 5, 79, 0
8, 17664, Note_on_c, 5, 80, 112
8, 17664, Note_on_c, 5, 80, 112
8, 17846, Note_off_c, 5, 80, 0
8, 17846, Note_off_c, 5, 80, 0
8, 17856, Note_on_c, 5, 84, 112
8, 17856, Note_on_c, 5, 84, 112
8, 17992, Note_off_c, 5, 84, 0
8, 17992, Note_off_c, 5, 84, 0
8, 18000, Note_on_c, 5, 82, 112
8, 18000, Note_on_c, 5, 82, 112
8, 18045, Note_off_c, 5, 82, 0
8, 18045, Note_off_c, 5, 82, 0
8, 18048, Note_on_c, 5, 84, 112
8, 18048, Note_on_c, 5, 84, 112
8, 18093, Note_off_c, 5, 84, 0
8, 18093, Note_off_c, 5, 84, 0
8, 18096, Note_on_c, 5, 82, 112
8, 18096, Note_on_c, 5, 82, 112
8, 18688, Note_off_c, 5, 82, 0
8, 18688, Note_off_c, 5, 82, 0
8, 18912, Note_on_c, 5, 82, 112
8, 18912, Note_on_c, 5, 82, 112
8, 19003, Note_off_c, 5, 82, 0
8, 19003, Note_off_c, 5, 82, 0
8, 19008, Note_on_c, 5, 80, 112
8, 19008, Note_on_c, 5, 80, 112
8, 19053, Note_off_c, 5, 80, 0
8, 19053, Note_off_c, 5, 80, 0
8, 19056, Note_on_c, 5, 79, 112
8, 19056, Note_on_c, 5, 79, 112
8, 19101, Note_off_c, 5, 79, 0
8, 19101, Note_off_c, 5, 79, 0
8, 19152, Note_on_c, 5, 89, 112
8, 19152, Note_on_c, 5, 89, 112
8, 19516, Note_off_c, 5, 89, 0
8, 19516, Note_off_c, 5, 89, 0
8, 19584, Note_on_c, 5, 82, 127
8, 19584, Note_on_c, 5, 82, 127
8, 19631, Note_off_c, 5, 82, 0
8, 19631, Note_off_c, 5, 82, 0
8, 19632, Note_on_c, 5, 80, 112
8, 19632, Note_on_c, 5, 80, 112
8, 19677, Note_off_c, 5, 80, 0
8, 19677, Note_off_c, 5, 80, 0
8, 19680, Note_on_c, 5, 82, 112
8, 19680, Note_on_c, 5, 82, 112
8, 19725, Note_off_c, 5, 82, 0
8, 19725, Note_off_c, 5, 82, 0
8, 19728, Note_on_c, 5, 91, 127
8, 19728, Note_on_c, 5, 91, 127
8, 19821, Note_off_c, 5, 91, 0
8, 19821, Note_off_c, 5, 91, 0
8, 19824, Note_on_c, 5, 87, 112
8, 19824, Note_on_c, 5, 87, 112
8, 19915, Note_off_c, 5, 87, 0
8, 19915, Note_off_c, 5, 87, 0
8, 19920, Note_on_c, 5, 89, 127
8, 19920, Note_on_c, 5, 82, 127
8, 19951, Note_off_c, 5, 82, 0
8, 19951, Note_off_c, 5, 89, 0
8, 20016, Note_on_c, 5, 89, 127
8, 20016, Note_on_c, 5, 82, 127
8, 20047, Note_off_c, 5, 89, 0
8, 20047, Note_off_c, 5, 82, 0
8, 20112, Note_on_c, 5, 82, 112
8, 20112, Note_on_c, 5, 87, 112
8, 20159, Note_off_c, 5, 87, 0
8, 20159, Note_off_c, 5, 82, 0
8, 20160, Note_on_c, 5, 87, 127
8, 20160, Note_on_c, 5, 82, 127
8, 20255, Note_off_c, 5, 82, 0
8, 20255, Note_off_c, 5, 87, 0
8, 20256, Note_on_c, 5, 82, 112
8, 20256, Note_on_c, 5, 82, 112
8, 20278, Note_off_c, 5, 82, 0
8, 20278, Note_off_c, 5, 82, 0
8, 20280, Note_on_c, 5, 85, 112
8, 20280, Note_on_c, 5, 85, 112
8, 20302, Note_off_c, 5, 85, 0
8, 20302, Note_off_c, 5, 85, 0
8, 20304, Note_on_c, 5, 87, 112
8, 20304, Note_on_c, 5, 87, 112
8, 20326, Note_off_c, 5, 87, 0
8, 20326, Note_off_c, 5, 87, 0
8, 20328, Note_on_c, 5, 85, 112
8, 20328, Note_on_c, 5, 85, 112
8, 20350, Note_off_c, 5, 85, 0
8, 20350, Note_off_c, 5, 85, 0
8, 20352, Note_on_c, 5, 87, 112
8, 20352, Note_on_c, 5, 87, 112
8, 20397, Note_off_c, 5, 87, 0
8, 20397, Note_off_c, 5, 87, 0
8, 20400, Note_on_c, 5, 85, 112
8, 20400, Note_on_c, 5, 85, 112
8, 20445, Note_off_c, 5, 85, 0
8, 20445, Note_off_c, 5, 85, 0
8, 20448, Note_on_c, 5, 87, 112
8, 20448, Note_on_c, 5, 87, 112
8, 20493, Note_off_c, 5, 87, 0
8, 20493, Note_off_c, 5, 87, 0
8, 20736, Control_c, 5, 101, 0
8, 20736, Control_c, 5, 100, 0
8, 20736, Control_c, 5, 6, 12
8, 20736, Control_c, 5, 10, 64
8, 20736, Control_c, 5, 7, 100
8, 20736, Pitch_bend_c, 5, 8192
8, 20736, Program_c, 5, 73
8, 20736, Control_c, 5, 101, 0
8, 20736, Control_c, 5, 100, 0
8, 20736, Control_c, 5, 6, 12
8, 20736, Control_c, 5, 10, 64
8, 20736, Control_c, 5, 7, 100
8, 20736, Pitch_bend_c, 5, 8192
8, 20736, Program_c, 5, 73
8, 20736, Control_c, 5, 101, 0
8, 20736, Control_c, 5, 100, 0
8, 20736, Control_c, 5, 6, 12
8, 20736, Control_c, 5, 10, 64
8, 20736, Control_c, 5, 7, 100
8, 20736, Pitch_bend_c, 5, 8192
8, 20736, Program_c, 5, 73
8, 20736, End_track
9, 0, Start_track
9, 0, Control_c, 6, 10, 64
9, 0, Control_c, 6, 7, 100
9, 0, Pitch_bend_c, 6, 8192
9, 0, Control_c, 6, 101, 0
9, 0, Control_c, 6, 100, 0
9, 0, Control_c, 6, 6, 12
9, 0, Control_c, 6, 10, 64
9, 0, Control_c, 6, 7, 100
9, 0, Pitch_bend_c, 6, 8192
9, 0, Program_c, 6, 60
9, 0, Control_c, 6, 101, 0
9, 0, Control_c, 6, 100, 0
9, 0, Control_c, 6, 6, 12
9, 0, Control_c, 6, 10, 64
9, 0, Control_c, 6, 7, 100
9, 0, Pitch_bend_c, 6, 8192
9, 0, Program_c, 6, 60
9, 0, Note_on_c, 6, 58, 96
9, 47, Note_off_c, 6, 58, 0
9, 48, Note_on_c, 6, 56, 80
9, 95, Note_off_c, 6, 56, 0
9, 96, Note_on_c, 6, 58, 80
9, 143, Note_off_c, 6, 58, 0
9, 144, Note_on_c, 6, 67, 96
9, 239, Note_off_c, 6, 67, 0
9, 240, Note_on_c, 6, 63, 80
9, 335, Note_off_c, 6, 63, 0
9, 336, Note_on_c, 6, 65, 96
9, 367, Note_off_c, 6, 65, 0
9, 432, Note_on_c, 6, 65, 96
9, 463, Note_off_c, 6, 65, 0
9, 528, Note_on_c, 6, 63, 80
9, 575, Note_off_c, 6, 63, 0
9, 576, Note_on_c, 6, 63, 96
9, 719, Note_off_c, 6, 63, 0
9, 768, Note_on_c, 6, 70, 80
9, 768, Note_on_c, 6, 63, 80
9, 1103, Note_off_c, 6, 63, 0
9, 1103, Note_off_c, 6, 70, 0
9, 1104, Note_on_c, 6, 65, 80
9, 1151, Note_off_c, 6, 65, 0
9, 1200, Note_on_c, 6, 65, 80
9, 1247, Note_off_c, 6, 65, 0
9, 1296, Note_on_c, 6, 63, 80
9, 1343, Note_off_c, 6, 63, 0
9, 1344, Note_on_c, 6, 63, 80
9, 1535, Note_off_c, 6, 63, 0
9, 1632, Note_on_c, 6, 67, 80
9, 1727, Note_off_c, 6, 67, 0
9, 1728, Note_on_c, 6, 65, 80
9, 1775, Note_off_c, 6, 65, 0
9, 1776, Note_on_c, 6, 63, 80
9, 1871, Note_off_c, 6, 63, 0
9, 1872, Note_on_c, 6, 62, 80
9, 1967, Note_off_c, 6, 62, 0
9, 1968, Note_on_c, 6, 63, 80
9, 2063, Note_off_c, 6, 63, 0
9, 2064, Note_on_c, 6, 63, 80
9, 2303, Note_off_c, 6, 63, 0
9, 2400, Note_on_c, 6, 67, 80
9, 2495, Note_off_c, 6, 67, 0
9, 2496, Note_on_c, 6, 65, 80
9, 2543, Note_off_c, 6, 65, 0
9, 2544, Note_on_c, 6, 63, 80
9, 2639, Note_off_c, 6, 63, 0
9, 2640, Note_on_c, 6, 62, 80
9, 2735, Note_off_c, 6, 62, 0
9, 2736, Note_on_c, 6, 63, 80
9, 2831, Note_off_c, 6, 63, 0
9, 2832, Note_on_c, 6, 60, 80
9, 2927, Note_off_c, 6, 60, 0
9, 2928, Note_on_c, 6, 58, 80
9, 3071, Note_off_c, 6, 58, 0
9, 3168, Note_on_c, 6, 67, 80
9, 3263, Note_off_c, 6, 67, 0
9, 3264, Note_on_c, 6, 65, 80
9, 3311, Note_off_c, 6, 65, 0
9, 3312, Note_on_c, 6, 63, 80
9, 3407, Note_off_c, 6, 63, 0
9, 3408, Note_on_c, 6, 62, 80
9, 3503, Note_off_c, 6, 62, 0
9, 3504, Note_on_c, 6, 63, 80
9, 3599, Note_off_c, 6, 63, 0
9, 3600, Note_on_c, 6, 63, 80
9, 3839, Note_off_c, 6, 63, 0
9, 3936, Note_on_c, 6, 67, 80
9, 4031, Note_off_c, 6, 67, 0
9, 4032, Note_on_c, 6, 65, 80
9, 4079, Note_off_c, 6, 65, 0
9, 4080, Note_on_c, 6, 63, 80
9, 4175, Note_off_c, 6, 63, 0
9, 4176, Note_on_c, 6, 65, 80
9, 4271, Note_off_c, 6, 65, 0
9, 4272, Note_on_c, 6, 67, 80
9, 4319, Note_off_c, 6, 67, 0
9, 4368, Note_on_c, 6, 68, 80
9, 4415, Note_off_c, 6, 68, 0
9, 4464, Note_on_c, 6, 67, 80
9, 4559, Note_off_c, 6, 67, 0
9, 4608, Note_on_c, 6, 65, 80
9, 4655, Note_off_c, 6, 65, 0
9, 4656, Note_on_c, 6, 67, 80
9, 5039, Note_off_c, 6, 67, 0
9, 5088, Note_on_c, 6, 67, 80
9, 5135, Note_off_c, 6, 67, 0
9, 5136, Note_on_c, 6, 67, 80
9, 5183, Note_off_c, 6, 67, 0
9, 5184, Note_on_c, 6, 67, 80
9, 5231, Note_off_c, 6, 67, 0
9, 5232, Note_on_c, 6, 65, 80
9, 5279, Note_off_c, 6, 65, 0
9, 5280, Note_on_c, 6, 63, 80
9, 5327, Note_off_c, 6, 63, 0
9, 5328, Note_on_c, 6, 65, 80
9, 5807, Note_off_c, 6, 65, 0
9, 5856, Note_on_c, 6, 67, 80
9, 5903, Note_off_c, 6, 67, 0
9, 5904, Note_on_c, 6, 67, 80
9, 5951, Note_off_c, 6, 67, 0
9, 5952, Note_on_c, 6, 67, 80
9, 5999, Note_off_c, 6, 67, 0
9, 6000, Note_on_c, 6, 65, 80
9, 6047, Note_off_c, 6, 65, 0
9, 6048, Note_on_c, 6, 63, 80
9, 6095, Note_off_c, 6, 63, 0
9, 6096, Note_on_c, 6, 65, 80
9, 6335, Note_off_c, 6, 65, 0
9, 6336, Note_on_c, 6, 67, 80
9, 6527, Note_off_c, 6, 67, 0
9, 6528, Note_on_c, 6, 63, 80
9, 6719, Note_off_c, 6, 63, 0
9, 6720, Note_on_c, 6, 60, 80
9, 6863, Note_off_c, 6, 60, 0
9, 6864, Note_on_c, 6, 58, 80
9, 6911, Note_off_c, 6, 58, 0
9, 6912, Note_on_c, 6, 60, 80
9, 6959, Note_off_c, 6, 60, 0
9, 6960, Note_on_c, 6, 58, 80
9, 7103, Note_off_c, 6, 58, 0
9, 7104, Note_on_c, 6, 68, 80
9, 7151, Note_off_c, 6, 68, 0
9, 7152, Note_on_c, 6, 67, 80
9, 7199, Note_off_c, 6, 67, 0
9, 7248, Note_on_c, 6, 65, 80
9, 7631, Note_off_c, 6, 65, 0
9, 7680, Note_on_c, 6, 63, 80
9, 7727, Note_off_c, 6, 63, 0
9, 7728, Note_on_c, 6, 61, 80
9, 7775, Note_off_c, 6, 61, 0
9, 7776, Note_on_c, 6, 63, 80
9, 7823, Note_off_c, 6, 63, 0
9, 9216, Note_on_c, 6, 63, 80
9, 9263, Note_off_c, 6, 63, 0
9, 9264, Note_on_c, 6, 61, 80
9, 9311, Note_off_c, 6, 61, 0
9, 9312, Note_on_c, 6, 63, 80
9, 9359, Note_off_c, 6, 63, 0
9, 9984, Note_on_c, 6, 63, 80
9, 10031, Note_off_c, 6, 63, 0
9, 10032, Note_on_c, 6, 61, 80
9, 10079, Note_off_c, 6, 61, 0
9, 10080, Note_on_c, 6, 63, 80
9, 10127, Note_off_c, 6, 63, 0
9, 10752, Note_on_c, 6, 63, 80
9, 10943, Note_off_c, 6, 63, 0
9, 10944, Note_on_c, 6, 63, 80
9, 11135, Note_off_c, 6, 63, 0
9, 11136, Note_on_c, 6, 63, 80
9, 11327, Note_off_c, 6, 63, 0
9, 11328, Note_on_c, 6, 63, 80
9, 11375, Note_off_c, 6, 63, 0
9, 11376, Note_on_c, 6, 63, 80
9, 11423, Note_off_c, 6, 63, 0
9, 11424, Note_on_c, 6, 63, 80
9, 11471, Note_off_c, 6, 63, 0
9, 11520, Note_on_c, 6, 63, 80
9, 11711, Note_off_c, 6, 63, 0
9, 11712, Note_on_c, 6, 63, 80
9, 11855, Note_off_c, 6, 63, 0
9, 11856, Note_on_c, 6, 61, 80
9, 12095, Note_off_c, 6, 61, 0
9, 12096, Note_on_c, 6, 63, 80
9, 12239, Note_off_c, 6, 63, 0
9, 12240, Note_on_c, 6, 70, 80
9, 12335, Note_off_c, 6, 70, 0
9, 12336, Note_on_c, 6, 68, 80
9, 12383, Note_off_c, 6, 68, 0
9, 12384, Note_on_c, 6, 70, 80
9, 12431, Note_off_c, 6, 70, 0
9, 12432, Note_on_c, 6, 68, 80
9, 12479, Note_off_c, 6, 68, 0
9, 12480, Note_on_c, 6, 70, 80
9, 12527, Note_off_c, 6, 70, 0
9, 12528, Note_on_c, 6, 68, 80
9, 12575, Note_off_c, 6, 68, 0
9, 12576, Note_on_c, 6, 72, 80
9, 12623, Note_off_c, 6, 72, 0
9, 12768, Note_on_c, 6, 65, 80
9, 12815, Note_off_c, 6, 65, 0
9, 12816, Note_on_c, 6, 67, 80
9, 13103, Note_off_c, 6, 67, 0
9, 13152, Note_on_c, 6, 67, 80
9, 13199, Note_off_c, 6, 67, 0
9, 13200, Note_on_c, 6, 67, 80
9, 13247, Note_off_c, 6, 67, 0
9, 13248, Note_on_c, 6, 67, 80
9, 13295, Note_off_c, 6, 67, 0
9, 13296, Note_on_c, 6, 65, 80
9, 13343, Note_off_c, 6, 65, 0
9, 13344, Note_on_c, 6, 63, 80
9, 13391, Note_off_c, 6, 63, 0
9, 13392, Note_on_c, 6, 65, 80
9, 13871, Note_off_c, 6, 65, 0
9, 13920, Note_on_c, 6, 67, 80
9, 13967, Note_off_c, 6, 67, 0
9, 13968, Note_on_c, 6, 67, 80
9, 14015, Note_off_c, 6, 67, 0
9, 14016, Note_on_c, 6, 67, 80
9, 14063, Note_off_c, 6, 67, 0
9, 14064, Note_on_c, 6, 65, 80
9, 14111, Note_off_c, 6, 65, 0
9, 14112, Note_on_c, 6, 63, 80
9, 14159, Note_off_c, 6, 63, 0
9, 14160, Note_on_c, 6, 65, 80
9, 14399, Note_off_c, 6, 65, 0
9, 14400, Note_on_c, 6, 67, 80
9, 14591, Note_off_c, 6, 67, 0
9, 14592, Note_on_c, 6, 63, 80
9, 14783, Note_off_c, 6, 63, 0
9, 14784, Note_on_c, 6, 60, 80
9, 14927, Note_off_c, 6, 60, 0
9, 14928, Note_on_c, 6, 58, 80
9, 14975, Note_off_c, 6, 58, 0
9, 14976, Note_on_c, 6, 60, 80
9, 15023, Note_off_c, 6, 60, 0
9, 15024, Note_on_c, 6, 58, 80
9, 15167, Note_off_c, 6, 58, 0
9, 15168, Note_on_c, 6, 68, 80
9, 15215, Note_off_c, 6, 68, 0
9, 15216, Note_on_c, 6, 67, 80
9, 15263, Note_off_c, 6, 67, 0
9, 15312, Note_on_c, 6, 65, 80
9, 15695, Note_off_c, 6, 65, 0
9, 15744, Note_on_c, 6, 70, 80
9, 15983, Note_off_c, 6, 70, 0
9, 15984, Note_on_c, 6, 72, 80
9, 16079, Note_off_c, 6, 72, 0
9, 16080, Note_on_c, 6, 67, 80
9, 16415, Note_off_c, 6, 67, 0
9, 16464, Note_on_c, 6, 70, 80
9, 16751, Note_off_c, 6, 70, 0
9, 16752, Note_on_c, 6, 72, 80
9, 16847, Note_off_c, 6, 72, 0
9, 16848, Note_on_c, 6, 65, 80
9, 17183, Note_off_c, 6, 65, 0
9, 17280, Note_on_c, 6, 65, 80
9, 17471, Note_off_c, 6, 65, 0
9, 17472, Note_on_c, 6, 67, 80
9, 17663, Note_off_c, 6, 67, 0
9, 17664, Note_on_c, 6, 68, 80
9, 17759, Note_off_c, 6, 68, 0
9, 17760, Note_on_c, 6, 67, 80
9, 17855, Note_off_c, 6, 67, 0
9, 17856, Note_on_c, 6, 65, 80
9, 17951, Note_off_c, 6, 65, 0
9, 17952, Note_on_c, 6, 63, 80
9, 18047, Note_off_c, 6, 63, 0
9, 18048, Note_on_c, 6, 65, 80
9, 18479, Note_off_c, 6, 65, 0
9, 18528, Note_on_c, 6, 68, 80
9, 18575, Note_off_c, 6, 68, 0
9, 18576, Note_on_c, 6, 67, 80
9, 18623, Note_off_c, 6, 67, 0
9, 18624, Note_on_c, 6, 68, 80
9, 18671, Note_off_c, 6, 68, 0
9, 18672, Note_on_c, 6, 67, 80
9, 18719, Note_off_c, 6, 67, 0
9, 18720, Note_on_c, 6, 63, 80
9, 18767, Note_off_c, 6, 63, 0
9, 18768, Note_on_c, 6, 65, 80
9, 18911, Note_off_c, 6, 65, 0
9, 18912, Note_on_c, 6, 70, 80
9, 19007, Note_off_c, 6, 70, 0
9, 19008, Note_on_c, 6, 68, 80
9, 19055, Note_off_c, 6, 68, 0
9, 19056, Note_on_c, 6, 67, 80
9, 19103, Note_off_c, 6, 67, 0
9, 19152, Note_on_c, 6, 70, 80
9, 19487, Note_off_c, 6, 70, 0
9, 19536, Note_on_c, 6, 70, 80
9, 19536, Note_on_c, 6, 63, 80
9, 20351, Note_off_c, 6, 70, 0
9, 20351, Note_off_c, 6, 63, 0
9, 20352, Note_on_c, 6, 75, 80
9, 20352, Note_on_c, 6, 63, 80
9, 20399, Note_off_c, 6, 75, 0
9, 20399, Note_off_c, 6, 63, 0
9, 20400, Note_on_c, 6, 73, 80
9, 20400, Note_on_c, 6, 61, 80
9, 20447, Note_off_c, 6, 73, 0
9, 20447, Note_off_c, 6, 61, 0
9, 20448, Note_on_c, 6, 75, 80
9, 20448, Note_on_c, 6, 63, 80
9, 20495, Note_off_c, 6, 75, 0
9, 20495, Note_off_c, 6, 63, 0
9, 20736, Control_c, 6, 101, 0
9, 20736, Control_c, 6, 100, 0
9, 20736, Control_c, 6, 6, 12
9, 20736, Control_c, 6, 10, 64
9, 20736, Control_c, 6, 7, 100
9, 20736, Pitch_bend_c, 6, 8192
9, 20736, Program_c, 6, 60
9, 20736, Control_c, 6, 101, 0
9, 20736, Control_c, 6, 100, 0
9, 20736, Control_c, 6, 6, 12
9, 20736, Control_c, 6, 10, 64
9, 20736, Control_c, 6, 7, 100
9, 20736, Pitch_bend_c, 6, 8192
9, 20736, Program_c, 6, 60
9, 20736, Control_c, 6, 101, 0
9, 20736, Control_c, 6, 100, 0
9, 20736, Control_c, 6, 6, 12
9, 20736, Control_c, 6, 10, 64
9, 20736, Control_c, 6, 7, 100
9, 20736, Pitch_bend_c, 6, 8192
9, 20736, Program_c, 6, 60
9, 20736, End_track
10, 0, Start_track
10, 0, Control_c, 7, 10, 64
10, 0, Control_c, 7, 7, 100
10, 0, Pitch_bend_c, 7, 8192
10, 0, Control_c, 7, 101, 0
10, 0, Control_c, 7, 100, 0
10, 0, Control_c, 7, 6, 12
10, 0, Control_c, 7, 10, 64
10, 0, Control_c, 7, 7, 100
10, 0, Pitch_bend_c, 7, 8192
10, 0, Program_c, 7, 116
10, 0, Control_c, 7, 101, 0
10, 0, Control_c, 7, 100, 0
10, 0, Control_c, 7, 6, 12
10, 0, Control_c, 7, 10, 64
10, 0, Control_c, 7, 7, 100
10, 0, Pitch_bend_c, 7, 8192
10, 0, Program_c, 7, 116
10, 0, Note_on_c, 7, 48, 96
10, 0, Note_on_c, 7, 43, 96
10, 0, Note_on_c, 7, 40, 96
10, 0, Note_on_c, 7, 36, 96
10, 95, Note_off_c, 7, 48, 0
10, 95, Note_off_c, 7, 43, 0
10, 95, Note_off_c, 7, 40, 0
10, 95, Note_off_c, 7, 36, 0
10, 336, Note_on_c, 7, 48, 96
10, 383, Note_off_c, 7, 48, 0
10, 432, Note_on_c, 7, 48, 96
10, 479, Note_off_c, 7, 48, 0
10, 528, Note_on_c, 7, 43, 96
10, 575, Note_off_c, 7, 43, 0
10, 576, Note_on_c, 7, 48, 96
10, 623, Note_off_c, 7, 48, 0
10, 624, Note_on_c, 7, 43, 96
10, 671, Note_off_c, 7, 43, 0
10, 672, Note_on_c, 7, 40, 96
10, 719, Note_off_c, 7, 40, 0
10, 720, Note_on_c, 7, 36, 96
10, 767, Note_off_c, 7, 36, 0
10, 768, Note_on_c, 7, 48, 96
10, 768, Note_on_c, 7, 43, 96
10, 768, Note_on_c, 7, 40, 96
10, 768, Note_on_c, 7, 36, 96
10, 863, Note_off_c, 7, 48, 0
10, 863, Note_off_c, 7, 43, 0
10, 863, Note_off_c, 7, 40, 0
10, 863, Note_off_c, 7, 36, 0
10, 1104, Note_on_c, 7, 48, 96
10, 1104, Note_on_c, 7, 43, 96
10, 1104, Note_on_c, 7, 40, 96
10, 1104, Note_on_c, 7, 36, 96
10, 1199, Note_off_c, 7, 40, 0
10, 1199, Note_off_c, 7, 43, 0
10, 1199, Note_off_c, 7, 36, 0
10, 1199, Note_off_c, 7, 48, 0
10, 1200, Note_on_c, 7, 48, 96
10, 1200, Note_on_c, 7, 43, 96
10, 1200, Note_on_c, 7, 40, 96
10, 1200, Note_on_c, 7, 36, 96
10, 1295, Note_off_c, 7, 40, 0
10, 1295, Note_off_c, 7, 43, 0
10, 1295, Note_off_c, 7, 36, 0
10, 1295, Note_off_c, 7, 48, 0
10, 1344, Note_on_c, 7, 48, 96
10, 1344, Note_on_c, 7, 43, 96
10, 1344, Note_on_c, 7, 40, 96
10, 1344, Note_on_c, 7, 36, 96
10, 1439, Note_off_c, 7, 48, 0
10, 1439, Note_off_c, 7, 43, 0
10, 1439, Note_off_c, 7, 40, 0
10, 1439, Note_off_c, 7, 36, 0
10, 1440, Note_on_c, 7, 48, 96
10, 1463, Note_off_c, 7, 48, 0
10, 1464, Note_on_c, 7, 48, 96
10, 1487, Note_off_c, 7, 48, 0
10, 1488, Note_on_c, 7, 48, 96
10, 1511, Note_off_c, 7, 48, 0
10, 1512, Note_on_c, 7, 48, 96
10, 1535, Note_off_c, 7, 48, 0
10, 1536, Note_on_c, 7, 48, 96
10, 1536, Note_on_c, 7, 43, 96
10, 1536, Note_on_c, 7, 40, 96
10, 1536, Note_on_c, 7, 36, 96
10, 1583, Note_off_c, 7, 48, 0
10, 1583, Note_off_c, 7, 43, 0
10, 1583, Note_off_c, 7, 40, 0
10, 1583, Note_off_c, 7, 36, 0
10, 1584, Note_on_c, 7, 48, 96
10, 1584, Note_on_c, 7, 43, 96
10, 1584, Note_on_c, 7, 40, 96
10, 1584, Note_on_c, 7, 36, 96
10, 1631, Note_off_c, 7, 48, 0
10, 1631, Note_off_c, 7, 43, 0
10, 1631, Note_off_c, 7, 40, 0
10, 1631, Note_off_c, 7, 36, 0
10, 1632, Note_on_c, 7, 48, 96
10, 1632, Note_on_c, 7, 43, 96
10, 1632, Note_on_c, 7, 40, 96
10, 1632, Note_on_c, 7, 36, 96
10, 1727, Note_off_c, 7, 48, 0
10, 1727, Note_off_c, 7, 43, 0
10, 1727, Note_off_c, 7, 40, 0
10, 1727, Note_off_c, 7, 36, 0
10, 1728, Note_on_c, 7, 43, 96
10, 1775, Note_off_c, 7, 43, 0
10, 1776, Note_on_c, 7, 43, 96
10, 1823, Note_off_c, 7, 43, 0
10, 1872, Note_on_c, 7, 40, 96
10, 1919, Note_off_c, 7, 40, 0
10, 1968, Note_on_c, 7, 40, 96
10, 2015, Note_off_c, 7, 40, 0
10, 2064, Note_on_c, 7, 36, 96
10, 2111, Note_off_c, 7, 36, 0
10, 2112, Note_on_c, 7, 36, 96
10, 2207, Note_off_c, 7, 36, 0
10, 2208, Note_on_c, 7, 40, 96
10, 2255, Note_off_c, 7, 40, 0
10, 2256, Note_on_c, 7, 43, 96
10, 2303, Note_off_c, 7, 43, 0
10, 2304, Note_on_c, 7, 48, 96
10, 2304, Note_on_c, 7, 40, 96
10, 2351, Note_off_c, 7, 48, 0
10, 2351, Note_off_c, 7, 40, 0
10, 2352, Note_on_c, 7, 48, 96
10, 2352, Note_on_c, 7, 40, 96
10, 2399, Note_off_c, 7, 48, 0
10, 2399, Note_off_c, 7, 40, 0
10, 2400, Note_on_c, 7, 48, 96
10, 2400, Note_on_c, 7, 40, 96
10, 2495, Note_off_c, 7, 48, 0
10, 2495, Note_off_c, 7, 40, 0
10, 2496, Note_on_c, 7, 43, 96
10, 2543, Note_off_c, 7, 43, 0
10, 2544, Note_on_c, 7, 43, 96
10, 2591, Note_off_c, 7, 43, 0
10, 2640, Note_on_c, 7, 40, 96
10, 2687, Note_off_c, 7, 40, 0
10, 2736, Note_on_c, 7, 40, 96
10, 2783, Note_off_c, 7, 40, 0
10, 2832, Note_on_c, 7, 36, 96
10, 2879, Note_off_c, 7, 36, 0
10, 2880, Note_on_c, 7, 36, 96
10, 2975, Note_off_c, 7, 36, 0
10, 2976, Note_on_c, 7, 40, 96
10, 3023, Note_off_c, 7, 40, 0
10, 3024, Note_on_c, 7, 43, 96
10, 3071, Note_off_c, 7, 43, 0
10, 3072, Note_on_c, 7, 48, 96
10, 3072, Note_on_c, 7, 40, 96
10, 3119, Note_off_c, 7, 48, 0
10, 3119, Note_off_c, 7, 40, 0
10, 3120, Note_on_c, 7, 48, 96
10, 3120, Note_on_c, 7, 40, 96
10, 3167, Note_off_c, 7, 48, 0
10, 3167, Note_off_c, 7, 40, 0
10, 3168, Note_on_c, 7, 48, 96
10, 3168, Note_on_c, 7, 40, 96
10, 3263, Note_off_c, 7, 48, 0
10, 3263, Note_off_c, 7, 40, 0
10, 3264, Note_on_c, 7, 43, 96
10, 3311, Note_off_c, 7, 43, 0
10, 3312, Note_on_c, 7, 43, 96
10, 3359, Note_off_c, 7, 43, 0
10, 3408, Note_on_c, 7, 40, 96
10, 3455, Note_off_c, 7, 40, 0
10, 3504, Note_on_c, 7, 40, 96
10, 3551, Note_off_c, 7, 40, 0
10, 3600, Note_on_c, 7, 36, 96
10, 3647, Note_off_c, 7, 36, 0
10, 3648, Note_on_c, 7, 36, 96
10, 3743, Note_off_c, 7, 36, 0
10, 3744, Note_on_c, 7, 40, 96
10, 3791, Note_off_c, 7, 40, 0
10, 3792, Note_on_c, 7, 43, 96
10, 3839, Note_off_c, 7, 43, 0
10, 3840, Note_on_c, 7, 48, 96
10, 3840, Note_on_c, 7, 40, 96
10, 3887, Note_off_c, 7, 48, 0
10, 3887, Note_off_c, 7, 40, 0
10, 3888, Note_on_c, 7, 48, 96
10, 3888, Note_on_c, 7, 40, 96
10, 3935, Note_off_c, 7, 48, 0
10, 3935, Note_off_c, 7, 40, 0
10, 3936, Note_on_c, 7, 48, 96
10, 3936, Note_on_c, 7, 40, 96
10, 4031, Note_off_c, 7, 48, 0
10, 4031, Note_off_c, 7, 40, 0
10, 4032, Note_on_c, 7, 43, 96
10, 4079, Note_off_c, 7, 43, 0
10, 4080, Note_on_c, 7, 43, 96
10, 4127, Note_off_c, 7, 43, 0
10, 4176, Note_on_c, 7, 48, 96
10, 4176, Note_on_c, 7, 43, 96
10, 4176, Note_on_c, 7, 40, 96
10, 4176, Note_on_c, 7, 36, 96
10, 4223, Note_off_c, 7, 48, 0
10, 4223, Note_off_c, 7, 43, 0
10, 4223, Note_off_c, 7, 40, 0
10, 4223, Note_off_c, 7, 36, 0
10, 4272, Note_on_c, 7, 48, 96
10, 4272, Note_on_c, 7, 43, 96
10, 4272, Note_on_c, 7, 40, 96
10, 4272, Note_on_c, 7, 36, 96
10, 4319, Note_off_c, 7, 48, 0
10, 4319, Note_off_c, 7, 43, 0
10, 4319, Note_off_c, 7, 40, 0
10, 4319, Note_off_c, 7, 36, 0
10, 4368, Note_on_c, 7, 48, 96
10, 4368, Note_on_c, 7, 43, 96
10, 4368, Note_on_c, 7, 40, 96
10, 4368, Note_on_c, 7, 36, 96
10, 4415, Note_off_c, 7, 48, 0
10, 4415, Note_off_c, 7, 43, 0
10, 4415, Note_off_c, 7, 40, 0
10, 4415, Note_off_c, 7, 36, 0
10, 4464, Note_on_c, 7, 48, 96
10, 4464, Note_on_c, 7, 43, 96
10, 4464, Note_on_c, 7, 40, 96
10, 4464, Note_on_c, 7, 36, 96
10, 4511, Note_off_c, 7, 48, 0
10, 4511, Note_off_c, 7, 43, 0
10, 4511, Note_off_c, 7, 40, 0
10, 4511, Note_off_c, 7, 36, 0
10, 4512, Note_on_c, 7, 48, 96
10, 4512, Note_on_c, 7, 43, 96
10, 4535, Note_off_c, 7, 48, 0
10, 4535, Note_off_c, 7, 43, 0
10, 4536, Note_on_c, 7, 48, 96
10, 4536, Note_on_c, 7, 43, 96
10, 4559, Note_off_c, 7, 48, 0
10, 4559, Note_off_c, 7, 43, 0
10, 4560, Note_on_c, 7, 48, 96
10, 4560, Note_on_c, 7, 43, 96
10, 4583, Note_off_c, 7, 48, 0
10, 4583, Note_off_c, 7, 43, 0
10, 4584, Note_on_c, 7, 48, 96
10, 4584, Note_on_c, 7, 43, 96
10, 4607, Note_off_c, 7, 48, 0
10, 4607, Note_off_c, 7, 43, 0
10, 4608, Note_on_c, 7, 48, 96
10, 4608, Note_on_c, 7, 43, 96
10, 4608, Note_on_c, 7, 40, 96
10, 4608, Note_on_c, 7, 36, 96
10, 4703, Note_off_c, 7, 48, 0
10, 4703, Note_off_c, 7, 43, 0
10, 4703, Note_off_c, 7, 40, 0
10, 4703, Note_off_c, 7, 36, 0
10, 4752, Note_on_c, 7, 36, 96
10, 4799, Note_off_c, 7, 36, 0
10, 4800, Note_on_c, 7, 40, 96
10, 4847, Note_off_c, 7, 40, 0
10, 4848, Note_on_c, 7, 40, 96
10, 4895, Note_off_c, 7, 40, 0
10, 4944, Note_on_c, 7, 43, 96
10, 4991, Note_off_c, 7, 43, 0
10, 5040, Note_on_c, 7, 43, 96
10, 5087, Note_off_c, 7, 43, 0
10, 5088, Note_on_c, 7, 43, 96
10, 5183, Note_off_c, 7, 43, 0
10, 5184, Note_on_c, 7, 48, 96
10, 5231, Note_off_c, 7, 48, 0
10, 5232, Note_on_c, 7, 48, 96
10, 5279, Note_off_c, 7, 48, 0
10, 5280, Note_on_c, 7, 43, 96
10, 5327, Note_off_c, 7, 43, 0
10, 5328, Note_on_c, 7, 40, 96
10, 5375, Note_off_c, 7, 40, 0
10, 5376, Note_on_c, 7, 36, 96
10, 5471, Note_off_c, 7, 36, 0
10, 5520, Note_on_c, 7, 36, 96
10, 5567, Note_off_c, 7, 36, 0
10, 5568, Note_on_c, 7, 40, 96
10, 5615, Note_off_c, 7, 40, 0
10, 5616, Note_on_c, 7, 40, 96
10, 5663, Note_off_c, 7, 40, 0
10, 5712, Note_on_c, 7, 43, 96
10, 5759, Note_off_c, 7, 43, 0
10, 5808, Note_on_c, 7, 43, 96
10, 5855, Note_off_c, 7, 43, 0
10, 5856, Note_on_c, 7, 43, 96
10, 5951, Note_off_c, 7, 43, 0
10, 5952, Note_on_c, 7, 48, 96
10, 5999, Note_off_c, 7, 48, 0
10, 6000, Note_on_c, 7, 48, 96
10, 6047, Note_off_c, 7, 48, 0
10, 6048, Note_on_c, 7, 43, 96
10, 6095, Note_off_c, 7, 43, 0
10, 6096, Note_on_c, 7, 40, 96
10, 6143, Note_off_c, 7, 40, 0
10, 6144, Note_on_c, 7, 36, 96
10, 6191, Note_off_c, 7, 36, 0
10, 6192, Note_on_c, 7, 36, 96
10, 6239, Note_off_c, 7, 36, 0
10, 6240, Note_on_c, 7, 36, 96
10, 6287, Note_off_c, 7, 36, 0
10, 6288, Note_on_c, 7, 36, 96
10, 6335, Note_off_c, 7, 36, 0
10, 6336, Note_on_c, 7, 40, 96
10, 6336, Note_on_c, 7, 36, 96
10, 6383, Note_off_c, 7, 40, 0
10, 6383, Note_off_c, 7, 36, 0
10, 6384, Note_on_c, 7, 40, 96
10, 6384, Note_on_c, 7, 36, 96
10, 6431, Note_off_c, 7, 40, 0
10, 6431, Note_off_c, 7, 36, 0
10, 6432, Note_on_c, 7, 40, 96
10, 6432, Note_on_c, 7, 36, 96
10, 6479, Note_off_c, 7, 40, 0
10, 6479, Note_off_c, 7, 36, 0
10, 6480, Note_on_c, 7, 40, 96
10, 6480, Note_on_c, 7, 36, 96
10, 6527, Note_off_c, 7, 40, 0
10, 6527, Note_off_c, 7, 36, 0
10, 6528, Note_on_c, 7, 43, 96
10, 6528, Note_on_c, 7, 40, 96
10, 6528, Note_on_c, 7, 36, 96
10, 6575, Note_off_c, 7, 43, 0
10, 6575, Note_off_c, 7, 40, 0
10, 6575, Note_off_c, 7, 36, 0
10, 6576, Note_on_c, 7, 43, 96
10, 6576, Note_on_c, 7, 40, 96
10, 6576, Note_on_c, 7, 36, 96
10, 6623, Note_off_c, 7, 43, 0
10, 6623, Note_off_c, 7, 40, 0
10, 6623, Note_off_c, 7, 36, 0
10, 6624, Note_on_c, 7, 43, 96
10, 6624, Note_on_c, 7, 40, 96
10, 6624, Note_on_c, 7, 36, 96
10, 6671, Note_off_c, 7, 43, 0
10, 6671, Note_off_c, 7, 40, 0
10, 6671, Note_off_c, 7, 36, 0
10, 6672, Note_on_c, 7, 43, 96
10, 6672, Note_on_c, 7, 40, 96
10, 6672, Note_on_c, 7, 36, 96
10, 6719, Note_off_c, 7, 43, 0
10, 6719, Note_off_c, 7, 40, 0
10, 6719, Note_off_c, 7, 36, 0
10, 6720, Note_on_c, 7, 48, 96
10, 6720, Note_on_c, 7, 43, 96
10, 6720, Note_on_c, 7, 40, 96
10, 6720, Note_on_c, 7, 36, 96
10, 6767, Note_off_c, 7, 48, 0
10, 6767, Note_off_c, 7, 43, 0
10, 6767, Note_off_c, 7, 40, 0
10, 6767, Note_off_c, 7, 36, 0
10, 6768, Note_on_c, 7, 48, 96
10, 6768, Note_on_c, 7, 43, 96
10, 6768, Note_on_c, 7, 40, 96
10, 6768, Note_on_c, 7, 36, 96
10, 6815, Note_off_c, 7, 48, 0
10, 6815, Note_off_c, 7, 43, 0
10, 6815, Note_off_c, 7, 40, 0
10, 6815, Note_off_c, 7, 36, 0
10, 6816, Note_on_c, 7, 48, 96
10, 6816, Note_on_c, 7, 43, 96
10, 6816, Note_on_c, 7, 40, 96
10, 6816, Note_on_c, 7, 36, 96
10, 6863, Note_off_c, 7, 48, 0
10, 6863, Note_off_c, 7, 43, 0
10, 6863, Note_off_c, 7, 40, 0
10, 6863, Note_off_c, 7, 36, 0
10, 6864, Note_on_c, 7, 48, 96
10, 6864, Note_on_c, 7, 43, 96
10, 6864, Note_on_c, 7, 40, 96
10, 6864, Note_on_c, 7, 36, 96
10, 6911, Note_off_c, 7, 48, 0
10, 6911, Note_off_c, 7, 43, 0
10, 6911, Note_off_c, 7, 40, 0
10, 6911, Note_off_c, 7, 36, 0
10, 6912, Note_on_c, 7, 48, 96
10, 6912, Note_on_c, 7, 43, 96
10, 6912, Note_on_c, 7, 40, 96
10, 6912, Note_on_c, 7, 36, 96
10, 7007, Note_off_c, 7, 48, 0
10, 7007, Note_off_c, 7, 43, 0
10, 7007, Note_off_c, 7, 40, 0
10, 7007, Note_off_c, 7, 36, 0
10, 7152, Note_on_c, 7, 48, 96
10, 7152, Note_on_c, 7, 43, 96
10, 7152, Note_on_c, 7, 40, 96
10, 7152, Note_on_c, 7, 36, 96
10, 7199, Note_off_c, 7, 48, 0
10, 7199, Note_off_c, 7, 43, 0
10, 7199, Note_off_c, 7, 40, 0
10, 7199, Note_off_c, 7, 36, 0
10, 7248, Note_on_c, 7, 48, 96
10, 7248, Note_on_c, 7, 43, 96
10, 7248, Note_on_c, 7, 40, 96
10, 7248, Note_on_c, 7, 36, 96
10, 7295, Note_off_c, 7, 48, 0
10, 7295, Note_off_c, 7, 43, 0
10, 7295, Note_off_c, 7, 40, 0
10, 7295, Note_off_c, 7, 36, 0
10, 7344, Note_on_c, 7, 48, 96
10, 7344, Note_on_c, 7, 43, 96
10, 7344, Note_on_c, 7, 40, 96
10, 7344, Note_on_c, 7, 36, 96
10, 7391, Note_off_c, 7, 48, 0
10, 7391, Note_off_c, 7, 43, 0
10, 7391, Note_off_c, 7, 40, 0
10, 7391, Note_off_c, 7, 36, 0
10, 7488, Note_on_c, 7, 43, 96
10, 7535, Note_off_c, 7, 43, 0
10, 7536, Note_on_c, 7, 48, 96
10, 7583, Note_off_c, 7, 48, 0
10, 7584, Note_on_c, 7, 43, 96
10, 7631, Note_off_c, 7, 43, 0
10, 7632, Note_on_c, 7, 40, 96
10, 7679, Note_off_c, 7, 40, 0
10, 7680, Note_on_c, 7, 48, 96
10, 7680, Note_on_c, 7, 43, 96
10, 7680, Note_on_c, 7, 40, 96
10, 7680, Note_on_c, 7, 36, 96
10, 7775, Note_off_c, 7, 36, 0
10, 7775, Note_off_c, 7, 40, 0
10, 7775, Note_off_c, 7, 48, 0
10, 7775, Note_off_c, 7, 43, 0
10, 7824, Note_on_c, 7, 48, 96
10, 7824, Note_on_c, 7, 43, 96
10, 7824, Note_on_c, 7, 40, 96
10, 7824, Note_on_c, 7, 36, 96
10, 7871, Note_off_c, 7, 48, 0
10, 7871, Note_off_c, 7, 43, 0
10, 7871, Note_off_c, 7, 40, 0
10, 7871, Note_off_c, 7, 36, 0
10, 7872, Note_on_c, 7, 48, 96
10, 7872, Note_on_c, 7, 43, 96
10, 7872, Note_on_c, 7, 40, 96
10, 7872, Note_on_c, 7, 36, 96
10, 7919, Note_off_c, 7, 48, 0
10, 7919, Note_off_c, 7, 43, 0
10, 7919, Note_off_c, 7, 40, 0
10, 7919, Note_off_c, 7, 36, 0
10, 7920, Note_on_c, 7, 48, 96
10, 7920, Note_on_c, 7, 43, 96
10, 7920, Note_on_c, 7, 40, 96
10, 7920, Note_on_c, 7, 36, 96
10, 7967, Note_off_c, 7, 48, 0
10, 7967, Note_off_c, 7, 43, 0
10, 7967, Note_off_c, 7, 40, 0
10, 7967, Note_off_c, 7, 36, 0
10, 8016, Note_on_c, 7, 48, 96
10, 8016, Note_on_c, 7, 43, 96
10, 8016, Note_on_c, 7, 40, 96
10, 8016, Note_on_c, 7, 36, 96
10, 8063, Note_off_c, 7, 48, 0
10, 8063, Note_off_c, 7, 43, 0
10, 8063, Note_off_c, 7, 40, 0
10, 8063, Note_off_c, 7, 36, 0
10, 8112, Note_on_c, 7, 48, 96
10, 8112, Note_on_c, 7, 43, 96
10, 8112, Note_on_c, 7, 40, 96
10, 8112, Note_on_c, 7, 36, 96
10, 8159, Note_off_c, 7, 48, 0
10, 8159, Note_off_c, 7, 43, 0
10, 8159, Note_off_c, 7, 40, 0
10, 8159, Note_off_c, 7, 36, 0
10, 8208, Note_on_c, 7, 48, 96
10, 8208, Note_on_c, 7, 43, 96
10, 8208, Note_on_c, 7, 40, 96
10, 8208, Note_on_c, 7, 36, 96
10, 8255, Note_off_c, 7, 48, 0
10, 8255, Note_off_c, 7, 43, 0
10, 8255, Note_off_c, 7, 40, 0
10, 8255, Note_off_c, 7, 36, 0
10, 8256, Note_on_c, 7, 48, 96
10, 8256, Note_on_c, 7, 43, 96
10, 8256, Note_on_c, 7, 40, 96
10, 8256, Note_on_c, 7, 36, 96
10, 8351, Note_off_c, 7, 48, 0
10, 8351, Note_off_c, 7, 43, 0
10, 8351, Note_off_c, 7, 40, 0
10, 8351, Note_off_c, 7, 36, 0
10, 8448, Note_on_c, 7, 48, 96
10, 8448, Note_on_c, 7, 43, 96
10, 8448, Note_on_c, 7, 40, 96
10, 8448, Note_on_c, 7, 36, 96
10, 8543, Note_off_c, 7, 36, 0
10, 8543, Note_off_c, 7, 40, 0
10, 8543, Note_off_c, 7, 43, 0
10, 8543, Note_off_c, 7, 48, 0
10, 8592, Note_on_c, 7, 48, 96
10, 8592, Note_on_c, 7, 43, 96
10, 8592, Note_on_c, 7, 40, 96
10, 8592, Note_on_c, 7, 36, 96
10, 8639, Note_off_c, 7, 48, 0
10, 8639, Note_off_c, 7, 43, 0
10, 8639, Note_off_c, 7, 40, 0
10, 8639, Note_off_c, 7, 36, 0
10, 8640, Note_on_c, 7, 48, 96
10, 8640, Note_on_c, 7, 43, 96
10, 8640, Note_on_c, 7, 40, 96
10, 8640, Note_on_c, 7, 36, 96
10, 8687, Note_off_c, 7, 48, 0
10, 8687, Note_off_c, 7, 43, 0
10, 8687, Note_off_c, 7, 40, 0
10, 8687, Note_off_c, 7, 36, 0
10, 8688, Note_on_c, 7, 48, 96
10, 8688, Note_on_c, 7, 43, 96
10, 8688, Note_on_c, 7, 40, 96
10, 8688, Note_on_c, 7, 36, 96
10, 8735, Note_off_c, 7, 48, 0
10, 8735, Note_off_c, 7, 43, 0
10, 8735, Note_off_c, 7, 40, 0
10, 8735, Note_off_c, 7, 36, 0
10, 8784, Note_on_c, 7, 48, 96
10, 8784, Note_on_c, 7, 43, 96
10, 8784, Note_on_c, 7, 40, 96
10, 8784, Note_on_c, 7, 36, 96
10, 8831, Note_off_c, 7, 48, 0
10, 8831, Note_off_c, 7, 43, 0
10, 8831, Note_off_c, 7, 40, 0
10, 8831, Note_off_c, 7, 36, 0
10, 8880, Note_on_c, 7, 48, 96
10, 8880, Note_on_c, 7, 43, 96
10, 8880, Note_on_c, 7, 40, 96
10, 8880, Note_on_c, 7, 36, 96
10, 8927, Note_off_c, 7, 48, 0
10, 8927, Note_off_c, 7, 43, 0
10, 8927, Note_off_c, 7, 40, 0
10, 8927, Note_off_c, 7, 36, 0
10, 8976, Note_on_c, 7, 48, 96
10, 8976, Note_on_c, 7, 43, 96
10, 8976, Note_on_c, 7, 40, 96
10, 8976, Note_on_c, 7, 36, 96
10, 9023, Note_off_c, 7, 48, 0
10, 9023, Note_off_c, 7, 43, 0
10, 9023, Note_off_c, 7, 40, 0
10, 9023, Note_off_c, 7, 36, 0
10, 9024, Note_on_c, 7, 48, 96
10, 9024, Note_on_c, 7, 43, 96
10, 9024, Note_on_c, 7, 40, 96
10, 9024, Note_on_c, 7, 36, 96
10, 9071, Note_off_c, 7, 48, 0
10, 9071, Note_off_c, 7, 43, 0
10, 9071, Note_off_c, 7, 40, 0
10, 9071, Note_off_c, 7, 36, 0
10, 9072, Note_on_c, 7, 48, 96
10, 9119, Note_off_c, 7, 48, 0
10, 9120, Note_on_c, 7, 48, 96
10, 9143, Note_off_c, 7, 48, 0
10, 9144, Note_on_c, 7, 48, 96
10, 9167, Note_off_c, 7, 48, 0
10, 9168, Note_on_c, 7, 48, 96
10, 9168, Note_on_c, 7, 43, 96
10, 9168, Note_on_c, 7, 40, 96
10, 9168, Note_on_c, 7, 36, 96
10, 9191, Note_off_c, 7, 48, 0
10, 9191, Note_off_c, 7, 43, 0
10, 9191, Note_off_c, 7, 40, 0
10, 9191, Note_off_c, 7, 36, 0
10, 9192, Note_on_c, 7, 48, 96
10, 9215, Note_off_c, 7, 48, 0
10, 9216, Note_on_c, 7, 48, 96
10, 9216, Note_on_c, 7, 43, 96
10, 9216, Note_on_c, 7, 40, 96
10, 9216, Note_on_c, 7, 36, 96
10, 9311, Note_off_c, 7, 36, 0
10, 9311, Note_off_c, 7, 40, 0
10, 9311, Note_off_c, 7, 43, 0
10, 9311, Note_off_c, 7, 48, 0
10, 9360, Note_on_c, 7, 48, 96
10, 9360, Note_on_c, 7, 43, 96
10, 9360, Note_on_c, 7, 40, 96
10, 9360, Note_on_c, 7, 36, 96
10, 9407, Note_off_c, 7, 48, 0
10, 9407, Note_off_c, 7, 43, 0
10, 9407, Note_off_c, 7, 40, 0
10, 9407, Note_off_c, 7, 36, 0
10, 9408, Note_on_c, 7, 48, 96
10, 9408, Note_on_c, 7, 43, 96
10, 9408, Note_on_c, 7, 40, 96
10, 9408, Note_on_c, 7, 36, 96
10, 9455, Note_off_c, 7, 48, 0
10, 9455, Note_off_c, 7, 43, 0
10, 9455, Note_off_c, 7, 40, 0
10, 9455, Note_off_c, 7, 36, 0
10, 9456, Note_on_c, 7, 48, 96
10, 9456, Note_on_c, 7, 43, 96
10, 9456, Note_on_c, 7, 40, 96
10, 9456, Note_on_c, 7, 36, 96
10, 9503, Note_off_c, 7, 48, 0
10, 9503, Note_off_c, 7, 43, 0
10, 9503, Note_off_c, 7, 40, 0
10, 9503, Note_off_c, 7, 36, 0
10, 9552, Note_on_c, 7, 48, 96
10, 9552, Note_on_c, 7, 43, 96
10, 9552, Note_on_c, 7, 40, 96
10, 9552, Note_on_c, 7, 36, 96
10, 9599, Note_off_c, 7, 48, 0
10, 9599, Note_off_c, 7, 43, 0
10, 9599, Note_off_c, 7, 40, 0
10, 9599, Note_off_c, 7, 36, 0
10, 9648, Note_on_c, 7, 48, 96
10, 9648, Note_on_c, 7, 43, 96
10, 9648, Note_on_c, 7, 40, 96
10, 9648, Note_on_c, 7, 36, 96
10, 9695, Note_off_c, 7, 48, 0
10, 9695, Note_off_c, 7, 43, 0
10, 9695, Note_off_c, 7, 40, 0
10, 9695, Note_off_c, 7, 36, 0
10, 9744, Note_on_c, 7, 48, 96
10, 9744, Note_on_c, 7, 43, 96
10, 9744, Note_on_c, 7, 40, 96
10, 9744, Note_on_c, 7, 36, 96
10, 9791, Note_off_c, 7, 48, 0
10, 9791, Note_off_c, 7, 43, 0
10, 9791, Note_off_c, 7, 40, 0
10, 9791, Note_off_c, 7, 36, 0
10, 9792, Note_on_c, 7, 48, 96
10, 9792, Note_on_c, 7, 43, 96
10, 9792, Note_on_c, 7, 40, 96
10, 9792, Note_on_c, 7, 36, 96
10, 9887, Note_off_c, 7, 48, 0
10, 9887, Note_off_c, 7, 43, 0
10, 9887, Note_off_c, 7, 40, 0
10, 9887, Note_off_c, 7, 36, 0
10, 9984, Note_on_c, 7, 48, 96
10, 9984, Note_on_c, 7, 43, 96
10, 9984, Note_on_c, 7, 40, 96
10, 9984, Note_on_c, 7, 36, 96
10, 10079, Note_off_c, 7, 36, 0
10, 10079, Note_off_c, 7, 40, 0
10, 10079, Note_off_c, 7, 43, 0
10, 10079, Note_off_c, 7, 48, 0
10, 10128, Note_on_c, 7, 48, 96
10, 10128, Note_on_c, 7, 43, 96
10, 10128, Note_on_c, 7, 40, 96
10, 10128, Note_on_c, 7, 36, 96
10, 10175, Note_off_c, 7, 48, 0
10, 10175, Note_off_c, 7, 43, 0
10, 10175, Note_off_c, 7, 40, 0
10, 10175, Note_off_c, 7, 36, 0
10, 10176, Note_on_c, 7, 48, 96
10, 10176, Note_on_c, 7, 43, 96
10, 10176, Note_on_c, 7, 40, 96
10, 10176, Note_on_c, 7, 36, 96
10, 10223, Note_off_c, 7, 48, 0
10, 10223, Note_off_c, 7, 43, 0
10, 10223, Note_off_c, 7, 40, 0
10, 10223, Note_off_c, 7, 36, 0
10, 10224, Note_on_c, 7, 48, 96
10, 10224, Note_on_c, 7, 43, 96
10, 10224, Note_on_c, 7, 40, 96
10, 10224, Note_on_c, 7, 36, 96
10, 10271, Note_off_c, 7, 48, 0
10, 10271, Note_off_c, 7, 43, 0
10, 10271, Note_off_c, 7, 40, 0
10, 10271, Note_off_c, 7, 36, 0
10, 10320, Note_on_c, 7, 48, 96
10, 10320, Note_on_c, 7, 43, 96
10, 10320, Note_on_c, 7, 40, 96
10, 10320, Note_on_c, 7, 36, 96
10, 10367, Note_off_c, 7, 48, 0
10, 10367, Note_off_c, 7, 43, 0
10, 10367, Note_off_c, 7, 40, 0
10, 10367, Note_off_c, 7, 36, 0
10, 10416, Note_on_c, 7, 48, 96
10, 10416, Note_on_c, 7, 43, 96
10, 10416, Note_on_c, 7, 40, 96
10, 10416, Note_on_c, 7, 36, 96
10, 10463, Note_off_c, 7, 48, 0
10, 10463, Note_off_c, 7, 43, 0
10, 10463, Note_off_c, 7, 40, 0
10, 10463, Note_off_c, 7, 36, 0
10, 10512, Note_on_c, 7, 48, 96
10, 10512, Note_on_c, 7, 43, 96
10, 10512, Note_on_c, 7, 40, 96
10, 10512, Note_on_c, 7, 36, 96
10, 10559, Note_off_c, 7, 48, 0
10, 10559, Note_off_c, 7, 43, 0
10, 10559, Note_off_c, 7, 40, 0
10, 10559, Note_off_c, 7, 36, 0
10, 10560, Note_on_c, 7, 48, 96
10, 10560, Note_on_c, 7, 43, 96
10, 10560, Note_on_c, 7, 40, 96
10, 10560, Note_on_c, 7, 36, 96
10, 10583, Note_off_c, 7, 48, 0
10, 10583, Note_off_c, 7, 43, 0
10, 10583, Note_off_c, 7, 40, 0
10, 10583, Note_off_c, 7, 36, 0
10, 10584, Note_on_c, 7, 48, 96
10, 10607, Note_off_c, 7, 48, 0
10, 10608, Note_on_c, 7, 48, 96
10, 10631, Note_off_c, 7, 48, 0
10, 10632, Note_on_c, 7, 48, 96
10, 10655, Note_off_c, 7, 48, 0
10, 10656, Note_on_c, 7, 48, 96
10, 10703, Note_off_c, 7, 48, 0
10, 10704, Note_on_c, 7, 48, 96
10, 10704, Note_on_c, 7, 43, 96
10, 10704, Note_on_c, 7, 40, 96
10, 10704, Note_on_c, 7, 36, 96
10, 10751, Note_off_c, 7, 48, 0
10, 10751, Note_off_c, 7, 43, 0
10, 10751, Note_off_c, 7, 40, 0
10, 10751, Note_off_c, 7, 36, 0
10, 10752, Note_on_c, 7, 48, 96
10, 10752, Note_on_c, 7, 43, 96
10, 10752, Note_on_c, 7, 40, 96
10, 10752, Note_on_c, 7, 36, 96
10, 10847, Note_off_c, 7, 48, 0
10, 10847, Note_off_c, 7, 43, 0
10, 10847, Note_off_c, 7, 40, 0
10, 10847, Note_off_c, 7, 36, 0
10, 10944, Note_on_c, 7, 48, 96
10, 11039, Note_off_c, 7, 48, 0
10, 11136, Note_on_c, 7, 40, 96
10, 11231, Note_off_c, 7, 40, 0
10, 11328, Note_on_c, 7, 36, 96
10, 11375, Note_off_c, 7, 36, 0
10, 11376, Note_on_c, 7, 36, 96
10, 11423, Note_off_c, 7, 36, 0
10, 11424, Note_on_c, 7, 36, 96
10, 11519, Note_off_c, 7, 36, 0
10, 11520, Note_on_c, 7, 48, 96
10, 11520, Note_on_c, 7, 43, 96
10, 11520, Note_on_c, 7, 40, 96
10, 11520, Note_on_c, 7, 36, 96
10, 11567, Note_off_c, 7, 48, 0
10, 11567, Note_off_c, 7, 43, 0
10, 11567, Note_off_c, 7, 40, 0
10, 11567, Note_off_c, 7, 36, 0
10, 11568, Note_on_c, 7, 48, 96
10, 11615, Note_off_c, 7, 48, 0
10, 11616, Note_on_c, 7, 43, 96
10, 11663, Note_off_c, 7, 43, 0
10, 11664, Note_on_c, 7, 43, 96
10, 11711, Note_off_c, 7, 43, 0
10, 11712, Note_on_c, 7, 48, 96
10, 11712, Note_on_c, 7, 43, 96
10, 11712, Note_on_c, 7, 40, 96
10, 11712, Note_on_c, 7, 36, 96
10, 11759, Note_off_c, 7, 48, 0
10, 11759, Note_off_c, 7, 43, 0
10, 11759, Note_off_c, 7, 40, 0
10, 11759, Note_off_c, 7, 36, 0
10, 11760, Note_on_c, 7, 40, 96
10, 11807, Note_off_c, 7, 40, 0
10, 11808, Note_on_c, 7, 36, 96
10, 11855, Note_off_c, 7, 36, 0
10, 11856, Note_on_c, 7, 48, 96
10, 11856, Note_on_c, 7, 43, 96
10, 11856, Note_on_c, 7, 40, 96
10, 11856, Note_on_c, 7, 36, 96
10, 11903, Note_off_c, 7, 48, 0
10, 11903, Note_off_c, 7, 43, 0
10, 11903, Note_off_c, 7, 40, 0
10, 11903, Note_off_c, 7, 36, 0
10, 11952, Note_on_c, 7, 48, 96
10, 11999, Note_off_c, 7, 48, 0
10, 12000, Note_on_c, 7, 43, 96
10, 12047, Note_off_c, 7, 43, 0
10, 12048, Note_on_c, 7, 43, 96
10, 12095, Note_off_c, 7, 43, 0
10, 12096, Note_on_c, 7, 48, 96
10, 12096, Note_on_c, 7, 43, 96
10, 12096, Note_on_c, 7, 40, 96
10, 12096, Note_on_c, 7, 36, 96
10, 12143, Note_off_c, 7, 48, 0
10, 12143, Note_off_c, 7, 43, 0
10, 12143, Note_off_c, 7, 40, 0
10, 12143, Note_off_c, 7, 36, 0
10, 12144, Note_on_c, 7, 40, 96
10, 12191, Note_off_c, 7, 40, 0
10, 12192, Note_on_c, 7, 36, 96
10, 12239, Note_off_c, 7, 36, 0
10, 12240, Note_on_c, 7, 48, 96
10, 12240, Note_on_c, 7, 43, 96
10, 12240, Note_on_c, 7, 40, 96
10, 12240, Note_on_c, 7, 36, 96
10, 12287, Note_off_c, 7, 48, 0
10, 12287, Note_off_c, 7, 43, 0
10, 12287, Note_off_c, 7, 40, 0
10, 12287, Note_off_c, 7, 36, 0
10, 12336, Note_on_c, 7, 48, 96
10, 12383, Note_off_c, 7, 48, 0
10, 12384, Note_on_c, 7, 48, 96
10, 12384, Note_on_c, 7, 43, 96
10, 12431, Note_off_c, 7, 48, 0
10, 12431, Note_off_c, 7, 43, 0
10, 12432, Note_on_c, 7, 48, 96
10, 12432, Note_on_c, 7, 43, 96
10, 12432, Note_on_c, 7, 40, 96
10, 12479, Note_off_c, 7, 48, 0
10, 12479, Note_off_c, 7, 43, 0
10, 12479, Note_off_c, 7, 40, 0
10, 12480, Note_on_c, 7, 48, 96
10, 12480, Note_on_c, 7, 43, 96
10, 12480, Note_on_c, 7, 40, 96
10, 12480, Note_on_c, 7, 36, 96
10, 12527, Note_off_c, 7, 48, 0
10, 12527, Note_off_c, 7, 43, 0
10, 12527, Note_off_c, 7, 40, 0
10, 12527, Note_off_c, 7, 36, 0
10, 12528, Note_on_c, 7, 48, 96
10, 12528, Note_on_c, 7, 43, 96
10, 12528, Note_on_c, 7, 40, 96
10, 12528, Note_on_c, 7, 36, 96
10, 12575, Note_off_c, 7, 48, 0
10, 12575, Note_off_c, 7, 43, 0
10, 12575, Note_off_c, 7, 40, 0
10, 12575, Note_off_c, 7, 36, 0
10, 12576, Note_on_c, 7, 48, 96
10, 12576, Note_on_c, 7, 43, 96
10, 12576, Note_on_c, 7, 40, 96
10, 12576, Note_on_c, 7, 36, 96
10, 12599, Note_off_c, 7, 48, 0
10, 12599, Note_off_c, 7, 43, 0
10, 12599, Note_off_c, 7, 40, 0
10, 12599, Note_off_c, 7, 36, 0
10, 12600, Note_on_c, 7, 48, 96
10, 12623, Note_off_c, 7, 48, 0
10, 12624, Note_on_c, 7, 48, 96
10, 12647, Note_off_c, 7, 48, 0
10, 12648, Note_on_c, 7, 48, 96
10, 12671, Note_off_c, 7, 48, 0
10, 12768, Note_on_c, 7, 48, 96
10, 12768, Note_on_c, 7, 43, 96
10, 12768, Note_on_c, 7, 40, 96
10, 12768, Note_on_c, 7, 36, 96
10, 12863, Note_off_c, 7, 48, 0
10, 12863, Note_off_c, 7, 43, 0
10, 12863, Note_off_c, 7, 40, 0
10, 12863, Note_off_c, 7, 36, 0
10, 12864, Note_on_c, 7, 40, 96
10, 12911, Note_off_c, 7, 40, 0
10, 12912, Note_on_c, 7, 40, 96
10, 12959, Note_off_c, 7, 40, 0
10, 13008, Note_on_c, 7, 43, 96
10, 13055, Note_off_c, 7, 43, 0
10, 13104, Note_on_c, 7, 43, 96
10, 13151, Note_off_c, 7, 43, 0
10, 13152, Note_on_c, 7, 43, 96
10, 13247, Note_off_c, 7, 43, 0
10, 13248, Note_on_c, 7, 48, 96
10, 13295, Note_off_c, 7, 48, 0
10, 13296, Note_on_c, 7, 48, 96
10, 13343, Note_off_c, 7, 48, 0
10, 13344, Note_on_c, 7, 43, 96
10, 13391, Note_off_c, 7, 43, 0
10, 13392, Note_on_c, 7, 40, 96
10, 13439, Note_off_c, 7, 40, 0
10, 13440, Note_on_c, 7, 36, 96
10, 13535, Note_off_c, 7, 36, 0
10, 13584, Note_on_c, 7, 36, 96
10, 13631, Note_off_c, 7, 36, 0
10, 13632, Note_on_c, 7, 40, 96
10, 13679, Note_off_c, 7, 40, 0
10, 13680, Note_on_c, 7, 40, 96
10, 13727, Note_off_c, 7, 40, 0
10, 13776, Note_on_c, 7, 43, 96
10, 13823, Note_off_c, 7, 43, 0
10, 13872, Note_on_c, 7, 43, 96
10, 13919, Note_off_c, 7, 43, 0
10, 13920, Note_on_c, 7, 43, 96
10, 14015, Note_off_c, 7, 43, 0
10, 14016, Note_on_c, 7, 48, 96
10, 14063, Note_off_c, 7, 48, 0
10, 14064, Note_on_c, 7, 48, 96
10, 14111, Note_off_c, 7, 48, 0
10, 14112, Note_on_c, 7, 43, 96
10, 14159, Note_off_c, 7, 43, 0
10, 14160, Note_on_c, 7, 40, 96
10, 14207, Note_off_c, 7, 40, 0
10, 14208, Note_on_c, 7, 36, 96
10, 14255, Note_off_c, 7, 36, 0
10, 14256, Note_on_c, 7, 36, 96
10, 14303, Note_off_c, 7, 36, 0
10, 14304, Note_on_c, 7, 36, 96
10, 14351, Note_off_c, 7, 36, 0
10, 14352, Note_on_c, 7, 36, 96
10, 14399, Note_off_c, 7, 36, 0
10, 14400, Note_on_c, 7, 40, 96
10, 14400, Note_on_c, 7, 36, 96
10, 14447, Note_off_c, 7, 40, 0
10, 14447, Note_off_c, 7, 36, 0
10, 14448, Note_on_c, 7, 40, 96
10, 14448, Note_on_c, 7, 36, 96
10, 14495, Note_off_c, 7, 40, 0
10, 14495, Note_off_c, 7, 36, 0
10, 14496, Note_on_c, 7, 40, 96
10, 14496, Note_on_c, 7, 36, 96
10, 14543, Note_off_c, 7, 40, 0
10, 14543, Note_off_c, 7, 36, 0
10, 14544, Note_on_c, 7, 40, 96
10, 14544, Note_on_c, 7, 36, 96
10, 14591, Note_off_c, 7, 40, 0
10, 14591, Note_off_c, 7, 36, 0
10, 14592, Note_on_c, 7, 43, 96
10, 14592, Note_on_c, 7, 40, 96
10, 14592, Note_on_c, 7, 36, 96
10, 14639, Note_off_c, 7, 43, 0
10, 14639, Note_off_c, 7, 40, 0
10, 14639, Note_off_c, 7, 36, 0
10, 14640, Note_on_c, 7, 43, 96
10, 14640, Note_on_c, 7, 40, 96
10, 14640, Note_on_c, 7, 36, 96
10, 14687, Note_off_c, 7, 43, 0
10, 14687, Note_off_c, 7, 40, 0
10, 14687, Note_off_c, 7, 36, 0
10, 14688, Note_on_c, 7, 43, 96
10, 14688, Note_on_c, 7, 40, 96
10, 14688, Note_on_c, 7, 36, 96
10, 14735, Note_off_c, 7, 43, 0
10, 14735, Note_off_c, 7, 40, 0
10, 14735, Note_off_c, 7, 36, 0
10, 14736, Note_on_c, 7, 43, 96
10, 14736, Note_on_c, 7, 40, 96
10, 14736, Note_on_c, 7, 36, 96
10, 14783, Note_off_c, 7, 43, 0
10, 14783, Note_off_c, 7, 40, 0
10, 14783, Note_off_c, 7, 36, 0
10, 14784, Note_on_c, 7, 48, 96
10, 14784, Note_on_c, 7, 43, 96
10, 14784, Note_on_c, 7, 40, 96
10, 14784, Note_on_c, 7, 36, 96
10, 14831, Note_off_c, 7, 48, 0
10, 14831, Note_off_c, 7, 43, 0
10, 14831, Note_off_c, 7, 40, 0
10, 14831, Note_off_c, 7, 36, 0
10, 14832, Note_on_c, 7, 48, 96
10, 14832, Note_on_c, 7, 43, 96
10, 14832, Note_on_c, 7, 40, 96
10, 14832, Note_on_c, 7, 36, 96
10, 14879, Note_off_c, 7, 48, 0
10, 14879, Note_off_c, 7, 43, 0
10, 14879, Note_off_c, 7, 40, 0
10, 14879, Note_off_c, 7, 36, 0
10, 14880, Note_on_c, 7, 48, 96
10, 14880, Note_on_c, 7, 43, 96
10, 14880, Note_on_c, 7, 40, 96
10, 14880, Note_on_c, 7, 36, 96
10, 14927, Note_off_c, 7, 48, 0
10, 14927, Note_off_c, 7, 43, 0
10, 14927, Note_off_c, 7, 40, 0
10, 14927, Note_off_c, 7, 36, 0
10, 14928, Note_on_c, 7, 48, 96
10, 14928, Note_on_c, 7, 43, 96
10, 14928, Note_on_c, 7, 40, 96
10, 14928, Note_on_c, 7, 36, 96
10, 14975, Note_off_c, 7, 48, 0
10, 14975, Note_off_c, 7, 43, 0
10, 14975, Note_off_c, 7, 40, 0
10, 14975, Note_off_c, 7, 36, 0
10, 14976, Note_on_c, 7, 48, 96
10, 14976, Note_on_c, 7, 43, 96
10, 14976, Note_on_c, 7, 40, 96
10, 14976, Note_on_c, 7, 36, 96
10, 15071, Note_off_c, 7, 48, 0
10, 15071, Note_off_c, 7, 43, 0
10, 15071, Note_off_c, 7, 40, 0
10, 15071, Note_off_c, 7, 36, 0
10, 15216, Note_on_c, 7, 48, 96
10, 15216, Note_on_c, 7, 43, 96
10, 15216, Note_on_c, 7, 40, 96
10, 15216, Note_on_c, 7, 36, 96
10, 15263, Note_off_c, 7, 48, 0
10, 15263, Note_off_c, 7, 43, 0
10, 15263, Note_off_c, 7, 40, 0
10, 15263, Note_off_c, 7, 36, 0
10, 15312, Note_on_c, 7, 48, 96
10, 15312, Note_on_c, 7, 43, 96
10, 15312, Note_on_c, 7, 40, 96
10, 15312, Note_on_c, 7, 36, 96
10, 15359, Note_off_c, 7, 48, 0
10, 15359, Note_off_c, 7, 43, 0
10, 15359, Note_off_c, 7, 40, 0
10, 15359, Note_off_c, 7, 36, 0
10, 15408, Note_on_c, 7, 48, 96
10, 15408, Note_on_c, 7, 43, 96
10, 15408, Note_on_c, 7, 40, 96
10, 15408, Note_on_c, 7, 36, 96
10, 15455, Note_off_c, 7, 48, 0
10, 15455, Note_off_c, 7, 43, 0
10, 15455, Note_off_c, 7, 40, 0
10, 15455, Note_off_c, 7, 36, 0
10, 15552, Note_on_c, 7, 43, 96
10, 15599, Note_off_c, 7, 43, 0
10, 15600, Note_on_c, 7, 48, 96
10, 15647, Note_off_c, 7, 48, 0
10, 15648, Note_on_c, 7, 43, 96
10, 15671, Note_off_c, 7, 43, 0
10, 15672, Note_on_c, 7, 43, 96
10, 15695, Note_off_c, 7, 43, 0
10, 15696, Note_on_c, 7, 40, 96
10, 15719, Note_off_c, 7, 40, 0
10, 15720, Note_on_c, 7, 40, 96
10, 15743, Note_off_c, 7, 40, 0
10, 15744, Note_on_c, 7, 48, 96
10, 15744, Note_on_c, 7, 43, 96
10, 15744, Note_on_c, 7, 40, 96
10, 15744, Note_on_c, 7, 36, 96
10, 15839, Note_off_c, 7, 48, 0
10, 15839, Note_off_c, 7, 43, 0
10, 15839, Note_off_c, 7, 40, 0
10, 15839, Note_off_c, 7, 36, 0
10, 15888, Note_on_c, 7, 36, 96
10, 15935, Note_off_c, 7, 36, 0
10, 15936, Note_on_c, 7, 48, 96
10, 15936, Note_on_c, 7, 43, 96
10, 15936, Note_on_c, 7, 40, 96
10, 15936, Note_on_c, 7, 36, 96
10, 15983, Note_off_c, 7, 48, 0
10, 15983, Note_off_c, 7, 43, 0
10, 15983, Note_off_c, 7, 40, 0
10, 15983, Note_off_c, 7, 36, 0
10, 15984, Note_on_c, 7, 48, 96
10, 15984, Note_on_c, 7, 43, 96
10, 15984, Note_on_c, 7, 40, 96
10, 15984, Note_on_c, 7, 36, 96
10, 16031, Note_off_c, 7, 48, 0
10, 16031, Note_off_c, 7, 43, 0
10, 16031, Note_off_c, 7, 40, 0
10, 16031, Note_off_c, 7, 36, 0
10, 16080, Note_on_c, 7, 48, 96
10, 16080, Note_on_c, 7, 43, 96
10, 16080, Note_on_c, 7, 40, 96
10, 16080, Note_on_c, 7, 36, 96
10, 16127, Note_off_c, 7, 48, 0
10, 16127, Note_off_c, 7, 43, 0
10, 16127, Note_off_c, 7, 40, 0
10, 16127, Note_off_c, 7, 36, 0
10, 16176, Note_on_c, 7, 48, 96
10, 16176, Note_on_c, 7, 43, 96
10, 16176, Note_on_c, 7, 40, 96
10, 16176, Note_on_c, 7, 36, 96
10, 16223, Note_off_c, 7, 48, 0
10, 16223, Note_off_c, 7, 43, 0
10, 16223, Note_off_c, 7, 40, 0
10, 16223, Note_off_c, 7, 36, 0
10, 16224, Note_on_c, 7, 48, 96
10, 16224, Note_on_c, 7, 43, 96
10, 16224, Note_on_c, 7, 40, 96
10, 16224, Note_on_c, 7, 36, 96
10, 16319, Note_off_c, 7, 48, 0
10, 16319, Note_off_c, 7, 43, 0
10, 16319, Note_off_c, 7, 40, 0
10, 16319, Note_off_c, 7, 36, 0
10, 16320, Note_on_c, 7, 48, 96
10, 16367, Note_off_c, 7, 48, 0
10, 16368, Note_on_c, 7, 48, 96
10, 16415, Note_off_c, 7, 48, 0
10, 16416, Note_on_c, 7, 43, 96
10, 16463, Note_off_c, 7, 43, 0
10, 16464, Note_on_c, 7, 40, 96
10, 16511, Note_off_c, 7, 40, 0
10, 16512, Note_on_c, 7, 48, 96
10, 16512, Note_on_c, 7, 43, 96
10, 16512, Note_on_c, 7, 40, 96
10, 16512, Note_on_c, 7, 36, 96
10, 16607, Note_off_c, 7, 36, 0
10, 16607, Note_off_c, 7, 40, 0
10, 16607, Note_off_c, 7, 43, 0
10, 16607, Note_off_c, 7, 48, 0
10, 16656, Note_on_c, 7, 36, 96
10, 16703, Note_off_c, 7, 36, 0
10, 16704, Note_on_c, 7, 48, 96
10, 16704, Note_on_c, 7, 43, 96
10, 16704, Note_on_c, 7, 40, 96
10, 16704, Note_on_c, 7, 36, 96
10, 16751, Note_off_c, 7, 48, 0
10, 16751, Note_off_c, 7, 43, 0
10, 16751, Note_off_c, 7, 40, 0
10, 16751, Note_off_c, 7, 36, 0
10, 16752, Note_on_c, 7, 48, 96
10, 16752, Note_on_c, 7, 43, 96
10, 16752, Note_on_c, 7, 40, 96
10, 16752, Note_on_c, 7, 36, 96
10, 16799, Note_off_c, 7, 48, 0
10, 16799, Note_off_c, 7, 43, 0
10, 16799, Note_off_c, 7, 40, 0
10, 16799, Note_off_c, 7, 36, 0
10, 16848, Note_on_c, 7, 48, 96
10, 16848, Note_on_c, 7, 43, 96
10, 16848, Note_on_c, 7, 40, 96
10, 16848, Note_on_c, 7, 36, 96
10, 16895, Note_off_c, 7, 48, 0
10, 16895, Note_off_c, 7, 43, 0
10, 16895, Note_off_c, 7, 40, 0
10, 16895, Note_off_c, 7, 36, 0
10, 16944, Note_on_c, 7, 48, 96
10, 16944, Note_on_c, 7, 43, 96
10, 16944, Note_on_c, 7, 40, 96
10, 16944, Note_on_c, 7, 36, 96
10, 16991, Note_off_c, 7, 48, 0
10, 16991, Note_off_c, 7, 43, 0
10, 16991, Note_off_c, 7, 40, 0
10, 16991, Note_off_c, 7, 36, 0
10, 16992, Note_on_c, 7, 48, 96
10, 16992, Note_on_c, 7, 43, 96
10, 16992, Note_on_c, 7, 40, 96
10, 16992, Note_on_c, 7, 36, 96
10, 17087, Note_off_c, 7, 48, 0
10, 17087, Note_off_c, 7, 43, 0
10, 17087, Note_off_c, 7, 40, 0
10, 17087, Note_off_c, 7, 36, 0
10, 17088, Note_on_c, 7, 48, 96
10, 17135, Note_off_c, 7, 48, 0
10, 17136, Note_on_c, 7, 48, 96
10, 17183, Note_off_c, 7, 48, 0
10, 17184, Note_on_c, 7, 48, 96
10, 17184, Note_on_c, 7, 43, 96
10, 17231, Note_off_c, 7, 48, 0
10, 17231, Note_off_c, 7, 43, 0
10, 17232, Note_on_c, 7, 40, 96
10, 17279, Note_off_c, 7, 40, 0
10, 17280, Note_on_c, 7, 36, 96
10, 17375, Note_off_c, 7, 36, 0
10, 17472, Note_on_c, 7, 40, 96
10, 17567, Note_off_c, 7, 40, 0
10, 17664, Note_on_c, 7, 48, 96
10, 17664, Note_on_c, 7, 43, 96
10, 17664, Note_on_c, 7, 40, 96
10, 17664, Note_on_c, 7, 36, 96
10, 17711, Note_off_c, 7, 48, 0
10, 17711, Note_off_c, 7, 43, 0
10, 17711, Note_off_c, 7, 40, 0
10, 17711, Note_off_c, 7, 36, 0
10, 17712, Note_on_c, 7, 48, 96
10, 17759, Note_off_c, 7, 48, 0
10, 17760, Note_on_c, 7, 48, 96
10, 17760, Note_on_c, 7, 43, 96
10, 17807, Note_off_c, 7, 48, 0
10, 17807, Note_off_c, 7, 43, 0
10, 17808, Note_on_c, 7, 48, 96
10, 17855, Note_off_c, 7, 48, 0
10, 17856, Note_on_c, 7, 48, 96
10, 17856, Note_on_c, 7, 43, 96
10, 17856, Note_on_c, 7, 40, 96
10, 17903, Note_off_c, 7, 48, 0
10, 17903, Note_off_c, 7, 43, 0
10, 17903, Note_off_c, 7, 40, 0
10, 17904, Note_on_c, 7, 48, 96
10, 17951, Note_off_c, 7, 48, 0
10, 17952, Note_on_c, 7, 48, 96
10, 17952, Note_on_c, 7, 43, 96
10, 17952, Note_on_c, 7, 40, 96
10, 17952, Note_on_c, 7, 36, 96
10, 17999, Note_off_c, 7, 48, 0
10, 17999, Note_off_c, 7, 43, 0
10, 17999, Note_off_c, 7, 40, 0
10, 17999, Note_off_c, 7, 36, 0
10, 18000, Note_on_c, 7, 48, 96
10, 18047, Note_off_c, 7, 48, 0
10, 18048, Note_on_c, 7, 48, 96
10, 18048, Note_on_c, 7, 43, 96
10, 18048, Note_on_c, 7, 40, 96
10, 18048, Note_on_c, 7, 36, 96
10, 18095, Note_off_c, 7, 48, 0
10, 18095, Note_off_c, 7, 43, 0
10, 18095, Note_off_c, 7, 40, 0
10, 18095, Note_off_c, 7, 36, 0
10, 18096, Note_on_c, 7, 48, 96
10, 18143, Note_off_c, 7, 48, 0
10, 18144, Note_on_c, 7, 43, 96
10, 18191, Note_off_c, 7, 43, 0
10, 18192, Note_on_c, 7, 43, 96
10, 18239, Note_off_c, 7, 43, 0
10, 18240, Note_on_c, 7, 40, 96
10, 18287, Note_off_c, 7, 40, 0
10, 18288, Note_on_c, 7, 40, 96
10, 18335, Note_off_c, 7, 40, 0
10, 18336, Note_on_c, 7, 36, 96
10, 18383, Note_off_c, 7, 36, 0
10, 18384, Note_on_c, 7, 48, 96
10, 18384, Note_on_c, 7, 43, 96
10, 18384, Note_on_c, 7, 40, 96
10, 18384, Note_on_c, 7, 36, 96
10, 18431, Note_off_c, 7, 48, 0
10, 18431, Note_off_c, 7, 43, 0
10, 18431, Note_off_c, 7, 40, 0
10, 18431, Note_off_c, 7, 36, 0
10, 18432, Note_on_c, 7, 48, 96
10, 18479, Note_off_c, 7, 48, 0
10, 18480, Note_on_c, 7, 48, 96
10, 18527, Note_off_c, 7, 48, 0
10, 18528, Note_on_c, 7, 43, 96
10, 18575, Note_off_c, 7, 43, 0
10, 18576, Note_on_c, 7, 43, 96
10, 18623, Note_off_c, 7, 43, 0
10, 18624, Note_on_c, 7, 40, 96
10, 18671, Note_off_c, 7, 40, 0
10, 18672, Note_on_c, 7, 40, 96
10, 18719, Note_off_c, 7, 40, 0
10, 18720, Note_on_c, 7, 36, 96
10, 18767, Note_off_c, 7, 36, 0
10, 18768, Note_on_c, 7, 48, 96
10, 18768, Note_on_c, 7, 43, 96
10, 18768, Note_on_c, 7, 40, 96
10, 18768, Note_on_c, 7, 36, 96
10, 18815, Note_off_c, 7, 48, 0
10, 18815, Note_off_c, 7, 43, 0
10, 18815, Note_off_c, 7, 40, 0
10, 18815, Note_off_c, 7, 36, 0
10, 18816, Note_on_c, 7, 48, 96
10, 18863, Note_off_c, 7, 48, 0
10, 18864, Note_on_c, 7, 48, 96
10, 18911, Note_off_c, 7, 48, 0
10, 18912, Note_on_c, 7, 43, 96
10, 18959, Note_off_c, 7, 43, 0
10, 18960, Note_on_c, 7, 43, 96
10, 19007, Note_off_c, 7, 43, 0
10, 19008, Note_on_c, 7, 40, 96
10, 19055, Note_off_c, 7, 40, 0
10, 19056, Note_on_c, 7, 40, 96
10, 19103, Note_off_c, 7, 40, 0
10, 19104, Note_on_c, 7, 36, 96
10, 19151, Note_off_c, 7, 36, 0
10, 19152, Note_on_c, 7, 48, 96
10, 19152, Note_on_c, 7, 43, 96
10, 19152, Note_on_c, 7, 40, 96
10, 19152, Note_on_c, 7, 36, 96
10, 19199, Note_off_c, 7, 48, 0
10, 19199, Note_off_c, 7, 43, 0
10, 19199, Note_off_c, 7, 40, 0
10, 19199, Note_off_c, 7, 36, 0
10, 19200, Note_on_c, 7, 48, 96
10, 19200, Note_on_c, 7, 43, 96
10, 19200, Note_on_c, 7, 40, 96
10, 19200, Note_on_c, 7, 36, 96
10, 19295, Note_off_c, 7, 48, 0
10, 19295, Note_off_c, 7, 43, 0
10, 19295, Note_off_c, 7, 40, 0
10, 19295, Note_off_c, 7, 36, 0
10, 19296, Note_on_c, 7, 48, 96
10, 19319, Note_off_c, 7, 48, 0
10, 19320, Note_on_c, 7, 48, 96
10, 19343, Note_off_c, 7, 48, 0
10, 19344, Note_on_c, 7, 48, 96
10, 19367, Note_off_c, 7, 48, 0
10, 19368, Note_on_c, 7, 48, 96
10, 19391, Note_off_c, 7, 48, 0
10, 19392, Note_on_c, 7, 43, 96
10, 19415, Note_off_c, 7, 43, 0
10, 19416, Note_on_c, 7, 43, 96
10, 19439, Note_off_c, 7, 43, 0
10, 19440, Note_on_c, 7, 43, 96
10, 19463, Note_off_c, 7, 43, 0
10, 19464, Note_on_c, 7, 43, 96
10, 19487, Note_off_c, 7, 43, 0
10, 19488, Note_on_c, 7, 40, 96
10, 19535, Note_off_c, 7, 40, 0
10, 19536, Note_on_c, 7, 36, 96
10, 19583, Note_off_c, 7, 36, 0
10, 19584, Note_on_c, 7, 48, 96
10, 19584, Note_on_c, 7, 43, 96
10, 19584, Note_on_c, 7, 40, 96
10, 19584, Note_on_c, 7, 36, 96
10, 19679, Note_off_c, 7, 36, 0
10, 19679, Note_off_c, 7, 40, 0
10, 19679, Note_off_c, 7, 43, 0
10, 19679, Note_off_c, 7, 48, 0
10, 19680, Note_on_c, 7, 48, 96
10, 19727, Note_off_c, 7, 48, 0
10, 19728, Note_on_c, 7, 48, 96
10, 19775, Note_off_c, 7, 48, 0
10, 19824, Note_on_c, 7, 43, 96
10, 19871, Note_off_c, 7, 43, 0
10, 19920, Note_on_c, 7, 48, 96
10, 19920, Note_on_c, 7, 43, 96
10, 19920, Note_on_c, 7, 40, 96
10, 19920, Note_on_c, 7, 36, 96
10, 19967, Note_off_c, 7, 48, 0
10, 19967, Note_off_c, 7, 43, 0
10, 19967, Note_off_c, 7, 40, 0
10, 19967, Note_off_c, 7, 36, 0
10, 20016, Note_on_c, 7, 48, 96
10, 20016, Note_on_c, 7, 43, 96
10, 20016, Note_on_c, 7, 40, 96
10, 20016, Note_on_c, 7, 36, 96
10, 20063, Note_off_c, 7, 48, 0
10, 20063, Note_off_c, 7, 43, 0
10, 20063, Note_off_c, 7, 40, 0
10, 20063, Note_off_c, 7, 36, 0
10, 20112, Note_on_c, 7, 48, 96
10, 20112, Note_on_c, 7, 43, 96
10, 20112, Note_on_c, 7, 40, 96
10, 20112, Note_on_c, 7, 36, 96
10, 20159, Note_off_c, 7, 48, 0
10, 20159, Note_off_c, 7, 43, 0
10, 20159, Note_off_c, 7, 40, 0
10, 20159, Note_off_c, 7, 36, 0
10, 20160, Note_on_c, 7, 48, 96
10, 20160, Note_on_c, 7, 43, 96
10, 20160, Note_on_c, 7, 40, 96
10, 20160, Note_on_c, 7, 36, 96
10, 20207, Note_off_c, 7, 48, 0
10, 20207, Note_off_c, 7, 43, 0
10, 20207, Note_off_c, 7, 40, 0
10, 20207, Note_off_c, 7, 36, 0
10, 20208, Note_on_c, 7, 48, 96
10, 20231, Note_off_c, 7, 48, 0
10, 20232, Note_on_c, 7, 48, 96
10, 20255, Note_off_c, 7, 48, 0
10, 20256, Note_on_c, 7, 48, 96
10, 20279, Note_off_c, 7, 48, 0
10, 20280, Note_on_c, 7, 48, 96
10, 20303, Note_off_c, 7, 48, 0
10, 20304, Note_on_c, 7, 48, 96
10, 20327, Note_off_c, 7, 48, 0
10, 20328, Note_on_c, 7, 48, 96
10, 20351, Note_off_c, 7, 48, 0
10, 20352, Note_on_c, 7, 48, 96
10, 20352, Note_on_c, 7, 43, 96
10, 20352, Note_on_c, 7, 40, 96
10, 20352, Note_on_c, 7, 36, 96
10, 20399, Note_off_c, 7, 48, 0
10, 20399, Note_off_c, 7, 43, 0
10, 20399, Note_off_c, 7, 40, 0
10, 20399, Note_off_c, 7, 36, 0
10, 20400, Note_on_c, 7, 48, 96
10, 20400, Note_on_c, 7, 43, 96
10, 20400, Note_on_c, 7, 40, 96
10, 20400, Note_on_c, 7, 36, 96
10, 20447, Note_off_c, 7, 48, 0
10, 20447, Note_off_c, 7, 43, 0
10, 20447, Note_off_c, 7, 40, 0
10, 20447, Note_off_c, 7, 36, 0
10, 20448, Note_on_c, 7, 48, 96
10, 20448, Note_on_c, 7, 43, 96
10, 20448, Note_on_c, 7, 40, 96
10, 20448, Note_on_c, 7, 36, 96
10, 20495, Note_off_c, 7, 48, 0
10, 20495, Note_off_c, 7, 43, 0
10, 20495, Note_off_c, 7, 40, 0
10, 20495, Note_off_c, 7, 36, 0
10, 20736, Control_c, 7, 101, 0
10, 20736, Control_c, 7, 100, 0
10, 20736, Control_c, 7, 6, 12
10, 20736, Control_c, 7, 10, 64
10, 20736, Control_c, 7, 7, 100
10, 20736, Pitch_bend_c, 7, 8192
10, 20736, Program_c, 7, 116
10, 20736, Control_c, 7, 101, 0
10, 20736, Control_c, 7, 100, 0
10, 20736, Control_c, 7, 6, 12
10, 20736, Control_c, 7, 10, 64
10, 20736, Control_c, 7, 7, 100
10, 20736, Pitch_bend_c, 7, 8192
10, 20736, Program_c, 7, 116
10, 20736, Control_c, 7, 101, 0
10, 20736, Control_c, 7, 100, 0
10, 20736, Control_c, 7, 6, 12
10, 20736, Control_c, 7, 10, 64
10, 20736, Control_c, 7, 7, 100
10, 20736, Pitch_bend_c, 7, 8192
10, 20736, Program_c, 7, 116
10, 20736, End_track
11, 0, Start_track
11, 0, Control_c, 8, 10, 64
11, 0, Control_c, 8, 7, 100
11, 0, Pitch_bend_c, 8, 8192
11, 0, Control_c, 8, 101, 0
11, 0, Control_c, 8, 100, 0
11, 0, Control_c, 8, 6, 12
11, 0, Control_c, 8, 10, 64
11, 0, Control_c, 8, 7, 100
11, 0, Pitch_bend_c, 8, 8192
11, 0, Program_c, 8, 66
11, 0, Control_c, 8, 101, 0
11, 0, Control_c, 8, 100, 0
11, 0, Control_c, 8, 6, 12
11, 0, Control_c, 8, 10, 64
11, 0, Control_c, 8, 7, 100
11, 0, Pitch_bend_c, 8, 8192
11, 0, Program_c, 8, 66
11, 0, Note_on_c, 8, 51, 80
11, 335, Note_off_c, 8, 51, 0
11, 336, Note_on_c, 8, 46, 80
11, 383, Note_off_c, 8, 46, 0
11, 432, Note_on_c, 8, 46, 80
11, 479, Note_off_c, 8, 46, 0
11, 528, Note_on_c, 8, 44, 80
11, 575, Note_off_c, 8, 44, 0
11, 576, Note_on_c, 8, 44, 80
11, 719, Note_off_c, 8, 44, 0
11, 768, Note_on_c, 8, 51, 80
11, 1103, Note_off_c, 8, 51, 0
11, 1104, Note_on_c, 8, 58, 80
11, 1151, Note_off_c, 8, 58, 0
11, 1200, Note_on_c, 8, 58, 80
11, 1247, Note_off_c, 8, 58, 0
11, 1296, Note_on_c, 8, 58, 80
11, 1343, Note_off_c, 8, 58, 0
11, 1344, Note_on_c, 8, 58, 80
11, 1535, Note_off_c, 8, 58, 0
11, 1536, Note_on_c, 8, 63, 80
11, 1583, Note_off_c, 8, 63, 0
11, 1584, Note_on_c, 8, 61, 80
11, 1631, Note_off_c, 8, 61, 0
11, 1632, Note_on_c, 8, 63, 80
11, 1679, Note_off_c, 8, 63, 0
11, 1872, Note_on_c, 8, 58, 80
11, 1919, Note_off_c, 8, 58, 0
11, 1968, Note_on_c, 8, 58, 80
11, 2015, Note_off_c, 8, 58, 0
11, 2064, Note_on_c, 8, 58, 80
11, 2111, Note_off_c, 8, 58, 0
11, 2112, Note_on_c, 8, 58, 80
11, 2303, Note_off_c, 8, 58, 0
11, 2304, Note_on_c, 8, 51, 80
11, 2351, Note_off_c, 8, 51, 0
11, 2352, Note_on_c, 8, 49, 80
11, 2399, Note_off_c, 8, 49, 0
11, 2400, Note_on_c, 8, 51, 80
11, 2447, Note_off_c, 8, 51, 0
11, 2640, Note_on_c, 8, 58, 80
11, 2687, Note_off_c, 8, 58, 0
11, 2736, Note_on_c, 8, 58, 80
11, 2783, Note_off_c, 8, 58, 0
11, 2832, Note_on_c, 8, 56, 80
11, 2879, Note_off_c, 8, 56, 0
11, 2880, Note_on_c, 8, 56, 80
11, 3071, Note_off_c, 8, 56, 0
11, 3072, Note_on_c, 8, 63, 80
11, 3119, Note_off_c, 8, 63, 0
11, 3120, Note_on_c, 8, 61, 80
11, 3167, Note_off_c, 8, 61, 0
11, 3168, Note_on_c, 8, 63, 80
11, 3215, Note_off_c, 8, 63, 0
11, 3408, Note_on_c, 8, 58, 80
11, 3455, Note_off_c, 8, 58, 0
11, 3504, Note_on_c, 8, 58, 80
11, 3551, Note_off_c, 8, 58, 0
11, 3600, Note_on_c, 8, 58, 80
11, 3647, Note_off_c, 8, 58, 0
11, 3648, Note_on_c, 8, 58, 80
11, 3839, Note_off_c, 8, 58, 0
11, 3840, Note_on_c, 8, 63, 80
11, 3887, Note_off_c, 8, 63, 0
11, 3888, Note_on_c, 8, 61, 80
11, 3935, Note_off_c, 8, 61, 0
11, 3936, Note_on_c, 8, 63, 80
11, 3983, Note_off_c, 8, 63, 0
11, 4176, Note_on_c, 8, 58, 80
11, 4223, Note_off_c, 8, 58, 0
11, 4272, Note_on_c, 8, 58, 80
11, 4319, Note_off_c, 8, 58, 0
11, 4368, Note_on_c, 8, 58, 80
11, 4415, Note_off_c, 8, 58, 0
11, 4464, Note_on_c, 8, 58, 80
11, 4559, Note_off_c, 8, 58, 0
11, 4608, Note_on_c, 8, 63, 80
11, 4799, Note_off_c, 8, 63, 0
11, 4800, Note_on_c, 8, 63, 80
11, 4847, Note_off_c, 8, 63, 0
11, 4848, Note_on_c, 8, 63, 80
11, 4895, Note_off_c, 8, 63, 0
11, 4944, Note_on_c, 8, 63, 80
11, 5183, Note_off_c, 8, 63, 0
11, 5184, Note_on_c, 8, 63, 80
11, 5279, Note_off_c, 8, 63, 0
11, 5280, Note_on_c, 8, 63, 80
11, 5327, Note_off_c, 8, 63, 0
11, 5328, Note_on_c, 8, 62, 80
11, 5567, Note_off_c, 8, 62, 0
11, 5568, Note_on_c, 8, 60, 80
11, 5615, Note_off_c, 8, 60, 0
11, 5616, Note_on_c, 8, 62, 80
11, 5663, Note_off_c, 8, 62, 0
11, 5712, Note_on_c, 8, 62, 80
11, 5951, Note_off_c, 8, 62, 0
11, 5952, Note_on_c, 8, 62, 80
11, 5999, Note_off_c, 8, 62, 0
11, 6000, Note_on_c, 8, 60, 80
11, 6047, Note_off_c, 8, 60, 0
11, 6048, Note_on_c, 8, 58, 80
11, 6095, Note_off_c, 8, 58, 0
11, 6096, Note_on_c, 8, 60, 80
11, 6335, Note_off_c, 8, 60, 0
11, 6336, Note_on_c, 8, 63, 80
11, 6527, Note_off_c, 8, 63, 0
11, 6528, Note_on_c, 8, 60, 80
11, 6719, Note_off_c, 8, 60, 0
11, 6720, Note_on_c, 8, 56, 80
11, 6911, Note_off_c, 8, 56, 0
11, 6912, Note_on_c, 8, 53, 80
11, 7103, Note_off_c, 8, 53, 0
11, 7104, Note_on_c, 8, 56, 80
11, 7151, Note_off_c, 8, 56, 0
11, 7152, Note_on_c, 8, 58, 80
11, 7199, Note_off_c, 8, 58, 0
11, 7248, Note_on_c, 8, 58, 80
11, 7343, Note_off_c, 8, 58, 0
11, 7344, Note_on_c, 8, 56, 80
11, 7391, Note_off_c, 8, 56, 0
11, 7392, Note_on_c, 8, 58, 80
11, 7631, Note_off_c, 8, 58, 0
11, 7680, Note_on_c, 8, 51, 80
11, 7727, Note_off_c, 8, 51, 0
11, 7728, Note_on_c, 8, 49, 80
11, 7775, Note_off_c, 8, 49, 0
11, 7776, Note_on_c, 8, 51, 80
11, 7823, Note_off_c, 8, 51, 0
11, 8016, Note_on_c, 8, 46, 80
11, 8063, Note_off_c, 8, 46, 0
11, 8112, Note_on_c, 8, 46, 80
11, 8159, Note_off_c, 8, 46, 0
11, 8208, Note_on_c, 8, 44, 80
11, 8255, Note_off_c, 8, 44, 0
11, 8256, Note_on_c, 8, 44, 80
11, 8447, Note_off_c, 8, 44, 0
11, 8448, Note_on_c, 8, 51, 80
11, 8495, Note_off_c, 8, 51, 0
11, 8496, Note_on_c, 8, 49, 80
11, 8543, Note_off_c, 8, 49, 0
11, 8544, Note_on_c, 8, 51, 80
11, 8591, Note_off_c, 8, 51, 0
11, 8784, Note_on_c, 8, 46, 80
11, 8831, Note_off_c, 8, 46, 0
11, 8880, Note_on_c, 8, 46, 80
11, 8927, Note_off_c, 8, 46, 0
11, 8976, Note_on_c, 8, 44, 80
11, 9023, Note_off_c, 8, 44, 0
11, 9024, Note_on_c, 8, 44, 80
11, 9215, Note_off_c, 8, 44, 0
11, 9216, Note_on_c, 8, 51, 80
11, 9263, Note_off_c, 8, 51, 0
11, 9264, Note_on_c, 8, 49, 80
11, 9311, Note_off_c, 8, 49, 0
11, 9312, Note_on_c, 8, 51, 80
11, 9359, Note_off_c, 8, 51, 0
11, 9552, Note_on_c, 8, 53, 80
11, 9599, Note_off_c, 8, 53, 0
11, 9648, Note_on_c, 8, 53, 80
11, 9695, Note_off_c, 8, 53, 0
11, 9744, Note_on_c, 8, 51, 80
11, 9791, Note_off_c, 8, 51, 0
11, 9792, Note_on_c, 8, 51, 80
11, 9983, Note_off_c, 8, 51, 0
11, 9984, Note_on_c, 8, 51, 80
11, 10031, Note_off_c, 8, 51, 0
11, 10032, Note_on_c, 8, 49, 80
11, 10079, Note_off_c, 8, 49, 0
11, 10080, Note_on_c, 8, 51, 80
11, 10127, Note_off_c, 8, 51, 0
11, 10320, Note_on_c, 8, 53, 80
11, 10367, Note_off_c, 8, 53, 0
11, 10416, Note_on_c, 8, 53, 80
11, 10463, Note_off_c, 8, 53, 0
11, 10512, Note_on_c, 8, 51, 80
11, 10559, Note_off_c, 8, 51, 0
11, 10560, Note_on_c, 8, 51, 80
11, 10703, Note_off_c, 8, 51, 0
11, 10752, Note_on_c, 8, 63, 80
11, 10943, Note_off_c, 8, 63, 0
11, 10944, Note_on_c, 8, 62, 80
11, 11135, Note_off_c, 8, 62, 0
11, 11136, Note_on_c, 8, 61, 80
11, 11327, Note_off_c, 8, 61, 0
11, 11328, Note_on_c, 8, 60, 80
11, 11375, Note_off_c, 8, 60, 0
11, 11376, Note_on_c, 8, 60, 80
11, 11423, Note_off_c, 8, 60, 0
11, 11424, Note_on_c, 8, 60, 80
11, 11471, Note_off_c, 8, 60, 0
11, 11520, Note_on_c, 8, 51, 80
11, 11711, Note_off_c, 8, 51, 0
11, 11712, Note_on_c, 8, 50, 80
11, 11855, Note_off_c, 8, 50, 0
11, 11856, Note_on_c, 8, 54, 80
11, 12095, Note_off_c, 8, 54, 0
11, 12096, Note_on_c, 8, 56, 80
11, 12239, Note_off_c, 8, 56, 0
11, 12240, Note_on_c, 8, 54, 80
11, 12335, Note_off_c, 8, 54, 0
11, 12336, Note_on_c, 8, 54, 80
11, 12383, Note_off_c, 8, 54, 0
11, 12384, Note_on_c, 8, 54, 80
11, 12431, Note_off_c, 8, 54, 0
11, 12432, Note_on_c, 8, 54, 80
11, 12479, Note_off_c, 8, 54, 0
11, 12480, Note_on_c, 8, 56, 80
11, 12527, Note_off_c, 8, 56, 0
11, 12528, Note_on_c, 8, 56, 80
11, 12575, Note_off_c, 8, 56, 0
11, 12576, Note_on_c, 8, 56, 80
11, 12623, Note_off_c, 8, 56, 0
11, 12768, Note_on_c, 8, 63, 80
11, 12863, Note_off_c, 8, 63, 0
11, 12864, Note_on_c, 8, 63, 80
11, 12911, Note_off_c, 8, 63, 0
11, 12912, Note_on_c, 8, 63, 80
11, 12959, Note_off_c, 8, 63, 0
11, 13008, Note_on_c, 8, 63, 80
11, 13247, Note_off_c, 8, 63, 0
11, 13248, Note_on_c, 8, 63, 80
11, 13343, Note_off_c, 8, 63, 0
11, 13344, Note_on_c, 8, 63, 80
11, 13391, Note_off_c, 8, 63, 0
11, 13392, Note_on_c, 8, 62, 80
11, 13631, Note_off_c, 8, 62, 0
11, 13632, Note_on_c, 8, 60, 80
11, 13679, Note_off_c, 8, 60, 0
11, 13680, Note_on_c, 8, 62, 80
11, 13727, Note_off_c, 8, 62, 0
11, 13776, Note_on_c, 8, 62, 80
11, 14015, Note_off_c, 8, 62, 0
11, 14016, Note_on_c, 8, 62, 80
11, 14063, Note_off_c, 8, 62, 0
11, 14064, Note_on_c, 8, 60, 80
11, 14111, Note_off_c, 8, 60, 0
11, 14112, Note_on_c, 8, 58, 80
11, 14159, Note_off_c, 8, 58, 0
11, 14160, Note_on_c, 8, 60, 80
11, 14399, Note_off_c, 8, 60, 0
11, 14400, Note_on_c, 8, 63, 80
11, 14591, Note_off_c, 8, 63, 0
11, 14592, Note_on_c, 8, 60, 80
11, 14783, Note_off_c, 8, 60, 0
11, 14784, Note_on_c, 8, 56, 80
11, 14975, Note_off_c, 8, 56, 0
11, 14976, Note_on_c, 8, 53, 80
11, 15167, Note_off_c, 8, 53, 0
11, 15168, Note_on_c, 8, 56, 80
11, 15215, Note_off_c, 8, 56, 0
11, 15216, Note_on_c, 8, 58, 80
11, 15263, Note_off_c, 8, 58, 0
11, 15312, Note_on_c, 8, 58, 80
11, 15407, Note_off_c, 8, 58, 0
11, 15408, Note_on_c, 8, 56, 80
11, 15455, Note_off_c, 8, 56, 0
11, 15456, Note_on_c, 8, 58, 80
11, 15551, Note_off_c, 8, 58, 0
11, 15552, Note_on_c, 8, 58, 80
11, 15599, Note_off_c, 8, 58, 0
11, 15600, Note_on_c, 8, 60, 80
11, 15647, Note_off_c, 8, 60, 0
11, 15648, Note_on_c, 8, 58, 80
11, 15695, Note_off_c, 8, 58, 0
11, 15696, Note_on_c, 8, 55, 80
11, 15743, Note_off_c, 8, 55, 0
11, 15744, Note_on_c, 8, 63, 80
11, 15935, Note_off_c, 8, 63, 0
11, 15936, Note_on_c, 8, 63, 80
11, 15983, Note_off_c, 8, 63, 0
11, 15984, Note_on_c, 8, 63, 80
11, 16079, Note_off_c, 8, 63, 0
11, 16080, Note_on_c, 8, 63, 80
11, 16175, Note_off_c, 8, 63, 0
11, 16176, Note_on_c, 8, 63, 80
11, 16223, Note_off_c, 8, 63, 0
11, 16224, Note_on_c, 8, 63, 80
11, 16415, Note_off_c, 8, 63, 0
11, 16416, Note_on_c, 8, 63, 80
11, 16463, Note_off_c, 8, 63, 0
11, 16464, Note_on_c, 8, 62, 80
11, 16607, Note_off_c, 8, 62, 0
11, 16608, Note_on_c, 8, 62, 80
11, 16703, Note_off_c, 8, 62, 0
11, 16704, Note_on_c, 8, 60, 80
11, 16751, Note_off_c, 8, 60, 0
11, 16752, Note_on_c, 8, 62, 80
11, 16847, Note_off_c, 8, 62, 0
11, 16848, Note_on_c, 8, 62, 80
11, 17087, Note_off_c, 8, 62, 0
11, 17088, Note_on_c, 8, 62, 80
11, 17135, Note_off_c, 8, 62, 0
11, 17136, Note_on_c, 8, 60, 80
11, 17183, Note_off_c, 8, 60, 0
11, 17184, Note_on_c, 8, 58, 80
11, 17279, Note_off_c, 8, 58, 0
11, 17280, Note_on_c, 8, 60, 80
11, 17471, Note_off_c, 8, 60, 0
11, 17472, Note_on_c, 8, 63, 80
11, 17663, Note_off_c, 8, 63, 0
11, 17664, Note_on_c, 8, 60, 80
11, 17855, Note_off_c, 8, 60, 0
11, 17856, Note_on_c, 8, 60, 80
11, 18047, Note_off_c, 8, 60, 0
11, 18048, Note_on_c, 8, 63, 80
11, 18335, Note_off_c, 8, 63, 0
11, 18384, Note_on_c, 8, 62, 80
11, 18719, Note_off_c, 8, 62, 0
11, 18768, Note_on_c, 8, 60, 80
11, 19103, Note_off_c, 8, 60, 0
11, 19152, Note_on_c, 8, 62, 80
11, 19487, Note_off_c, 8, 62, 0
11, 19584, Note_on_c, 8, 58, 96
11, 19631, Note_off_c, 8, 58, 0
11, 19632, Note_on_c, 8, 56, 80
11, 19679, Note_off_c, 8, 56, 0
11, 19680, Note_on_c, 8, 58, 80
11, 19727, Note_off_c, 8, 58, 0
11, 19728, Note_on_c, 8, 67, 96
11, 19823, Note_off_c, 8, 67, 0
11, 19824, Note_on_c, 8, 63, 80
11, 19919, Note_off_c, 8, 63, 0
11, 19920, Note_on_c, 8, 58, 96
11, 19951, Note_off_c, 8, 58, 0
11, 20016, Note_on_c, 8, 58, 96
11, 20047, Note_off_c, 8, 58, 0
11, 20112, Note_on_c, 8, 58, 80
11, 20159, Note_off_c, 8, 58, 0
11, 20160, Note_on_c, 8, 58, 96
11, 20255, Note_off_c, 8, 58, 0
11, 20256, Note_on_c, 8, 58, 80
11, 20279, Note_off_c, 8, 58, 0
11, 20280, Note_on_c, 8, 61, 80
11, 20303, Note_off_c, 8, 61, 0
11, 20304, Note_on_c, 8, 63, 80
11, 20327, Note_off_c, 8, 63, 0
11, 20328, Note_on_c, 8, 61, 80
11, 20351, Note_off_c, 8, 61, 0
11, 20352, Note_on_c, 8, 63, 80
11, 20399, Note_off_c, 8, 63, 0
11, 20400, Note_on_c, 8, 61, 80
11, 20447, Note_off_c, 8, 61, 0
11, 20448, Note_on_c, 8, 63, 80
11, 20495, Note_off_c, 8, 63, 0
11, 20736, Control_c, 8, 101, 0
11, 20736, Control_c, 8, 100, 0
11, 20736, Control_c, 8, 6, 12
11, 20736, Control_c, 8, 10, 64
11, 20736, Control_c, 8, 7, 100
11, 20736, Pitch_bend_c, 8, 8192
11, 20736, Program_c, 8, 66
11, 20736, Control_c, 8, 101, 0
11, 20736, Control_c, 8, 100, 0
11, 20736, Control_c, 8, 6, 12
11, 20736, Control_c, 8, 10, 64
11, 20736, Control_c, 8, 7, 100
11, 20736, Pitch_bend_c, 8, 8192
11, 20736, Program_c, 8, 66
11, 20736, Control_c, 8, 101, 0
11, 20736, Control_c, 8, 100, 0
11, 20736, Control_c, 8, 6, 12
11, 20736, Control_c, 8, 10, 64
11, 20736, Control_c, 8, 7, 100
11, 20736, Pitch_bend_c, 8, 8192
11, 20736, Program_c, 8, 66
11, 20736, End_track
12, 0, Start_track
12, 0, Control_c, 10, 10, 64
12, 0, Control_c, 10, 7, 100
12, 0, Pitch_bend_c, 10, 8192
12, 0, Control_c, 10, 101, 0
12, 0, Control_c, 10, 100, 0
12, 0, Control_c, 10, 6, 12
12, 0, Control_c, 10, 10, 64
12, 0, Control_c, 10, 7, 100
12, 0, Pitch_bend_c, 10, 8192
12, 0, Program_c, 10, 57
12, 0, Control_c, 10, 101, 0
12, 0, Control_c, 10, 100, 0
12, 0, Control_c, 10, 6, 12
12, 0, Control_c, 10, 10, 64
12, 0, Control_c, 10, 7, 100
12, 0, Pitch_bend_c, 10, 8192
12, 0, Program_c, 10, 57
12, 0, Note_on_c, 10, 63, 80
12, 0, Note_on_c, 10, 51, 80
12, 335, Note_off_c, 10, 63, 0
12, 335, Note_off_c, 10, 51, 0
12, 336, Note_on_c, 10, 58, 80
12, 336, Note_on_c, 10, 46, 80
12, 383, Note_off_c, 10, 58, 0
12, 383, Note_off_c, 10, 46, 0
12, 432, Note_on_c, 10, 58, 80
12, 432, Note_on_c, 10, 46, 80
12, 479, Note_off_c, 10, 58, 0
12, 479, Note_off_c, 10, 46, 0
12, 528, Note_on_c, 10, 58, 80
12, 528, Note_on_c, 10, 44, 80
12, 575, Note_off_c, 10, 58, 0
12, 575, Note_off_c, 10, 44, 0
12, 576, Note_on_c, 10, 58, 80
12, 576, Note_on_c, 10, 44, 80
12, 719, Note_off_c, 10, 58, 0
12, 719, Note_off_c, 10, 44, 0
12, 768, Note_on_c, 10, 63, 80
12, 768, Note_on_c, 10, 51, 80
12, 1103, Note_off_c, 10, 63, 0
12, 1103, Note_off_c, 10, 51, 0
12, 1104, Note_on_c, 10, 58, 80
12, 1104, Note_on_c, 10, 46, 80
12, 1151, Note_off_c, 10, 58, 0
12, 1151, Note_off_c, 10, 46, 0
12, 1200, Note_on_c, 10, 58, 80
12, 1200, Note_on_c, 10, 46, 80
12, 1247, Note_off_c, 10, 58, 0
12, 1247, Note_off_c, 10, 46, 0
12, 1296, Note_on_c, 10, 58, 80
12, 1296, Note_on_c, 10, 44, 80
12, 1343, Note_off_c, 10, 58, 0
12, 1343, Note_off_c, 10, 44, 0
12, 1344, Note_on_c, 10, 58, 80
12, 1344, Note_on_c, 10, 44, 80
12, 1535, Note_off_c, 10, 58, 0
12, 1535, Note_off_c, 10, 44, 0
12, 1536, Note_on_c, 10, 63, 80
12, 1536, Note_on_c, 10, 51, 80
12, 1583, Note_off_c, 10, 63, 0
12, 1583, Note_off_c, 10, 51, 0
12, 1584, Note_on_c, 10, 61, 80
12, 1584, Note_on_c, 10, 49, 80
12, 1631, Note_off_c, 10, 61, 0
12, 1631, Note_off_c, 10, 49, 0
12, 1632, Note_on_c, 10, 63, 80
12, 1632, Note_on_c, 10, 51, 80
12, 1679, Note_off_c, 10, 63, 0
12, 1679, Note_off_c, 10, 51, 0
12, 1872, Note_on_c, 10, 58, 80
12, 1872, Note_on_c, 10, 53, 80
12, 1919, Note_off_c, 10, 58, 0
12, 1919, Note_off_c, 10, 53, 0
12, 1968, Note_on_c, 10, 58, 80
12, 1968, Note_on_c, 10, 53, 80
12, 2015, Note_off_c, 10, 58, 0
12, 2015, Note_off_c, 10, 53, 0
12, 2064, Note_on_c, 10, 58, 80
12, 2064, Note_on_c, 10, 51, 80
12, 2111, Note_off_c, 10, 58, 0
12, 2111, Note_off_c, 10, 51, 0
12, 2112, Note_on_c, 10, 58, 80
12, 2112, Note_on_c, 10, 51, 80
12, 2303, Note_off_c, 10, 58, 0
12, 2303, Note_off_c, 10, 51, 0
12, 2304, Note_on_c, 10, 51, 80
12, 2304, Note_on_c, 10, 51, 80
12, 2351, Note_off_c, 10, 51, 0
12, 2351, Note_off_c, 10, 51, 0
12, 2352, Note_on_c, 10, 49, 80
12, 2352, Note_on_c, 10, 49, 80
12, 2399, Note_off_c, 10, 49, 0
12, 2399, Note_off_c, 10, 49, 0
12, 2400, Note_on_c, 10, 51, 80
12, 2400, Note_on_c, 10, 51, 80
12, 2447, Note_off_c, 10, 51, 0
12, 2447, Note_off_c, 10, 51, 0
12, 2640, Note_on_c, 10, 58, 80
12, 2640, Note_on_c, 10, 53, 80
12, 2687, Note_off_c, 10, 58, 0
12, 2687, Note_off_c, 10, 53, 0
12, 2736, Note_on_c, 10, 58, 80
12, 2736, Note_on_c, 10, 53, 80
12, 2783, Note_off_c, 10, 58, 0
12, 2783, Note_off_c, 10, 53, 0
12, 2832, Note_on_c, 10, 56, 80
12, 2832, Note_on_c, 10, 51, 80
12, 2879, Note_off_c, 10, 56, 0
12, 2879, Note_off_c, 10, 51, 0
12, 2880, Note_on_c, 10, 56, 80
12, 2880, Note_on_c, 10, 51, 80
12, 3071, Note_off_c, 10, 51, 0
12, 3071, Note_off_c, 10, 56, 0
12, 3072, Note_on_c, 10, 63, 80
12, 3072, Note_on_c, 10, 51, 80
12, 3119, Note_off_c, 10, 63, 0
12, 3119, Note_off_c, 10, 51, 0
12, 3120, Note_on_c, 10, 61, 80
12, 3120, Note_on_c, 10, 49, 80
12, 3167, Note_off_c, 10, 61, 0
12, 3167, Note_off_c, 10, 49, 0
12, 3168, Note_on_c, 10, 63, 80
12, 3168, Note_on_c, 10, 51, 80
12, 3215, Note_off_c, 10, 63, 0
12, 3215, Note_off_c, 10, 51, 0
12, 3408, Note_on_c, 10, 58, 80
12, 3408, Note_on_c, 10, 53, 80
12, 3455, Note_off_c, 10, 58, 0
12, 3455, Note_off_c, 10, 53, 0
12, 3504, Note_on_c, 10, 58, 80
12, 3504, Note_on_c, 10, 53, 80
12, 3551, Note_off_c, 10, 58, 0
12, 3551, Note_off_c, 10, 53, 0
12, 3600, Note_on_c, 10, 58, 80
12, 3600, Note_on_c, 10, 51, 80
12, 3647, Note_off_c, 10, 58, 0
12, 3647, Note_off_c, 10, 51, 0
12, 3648, Note_on_c, 10, 58, 80
12, 3648, Note_on_c, 10, 51, 80
12, 3839, Note_off_c, 10, 58, 0
12, 3839, Note_off_c, 10, 51, 0
12, 3840, Note_on_c, 10, 63, 80
12, 3840, Note_on_c, 10, 51, 80
12, 3887, Note_off_c, 10, 63, 0
12, 3887, Note_off_c, 10, 51, 0
12, 3888, Note_on_c, 10, 61, 80
12, 3888, Note_on_c, 10, 49, 80
12, 3935, Note_off_c, 10, 61, 0
12, 3935, Note_off_c, 10, 49, 0
12, 3936, Note_on_c, 10, 63, 80
12, 3936, Note_on_c, 10, 51, 80
12, 3983, Note_off_c, 10, 63, 0
12, 3983, Note_off_c, 10, 51, 0
12, 4176, Note_on_c, 10, 58, 80
12, 4176, Note_on_c, 10, 53, 80
12, 4223, Note_off_c, 10, 58, 0
12, 4223, Note_off_c, 10, 53, 0
12, 4272, Note_on_c, 10, 58, 80
12, 4272, Note_on_c, 10, 53, 80
12, 4319, Note_off_c, 10, 58, 0
12, 4319, Note_off_c, 10, 53, 0
12, 4368, Note_on_c, 10, 58, 80
12, 4368, Note_on_c, 10, 51, 80
12, 4415, Note_off_c, 10, 58, 0
12, 4415, Note_off_c, 10, 51, 0
12, 4464, Note_on_c, 10, 58, 80
12, 4464, Note_on_c, 10, 51, 80
12, 4559, Note_off_c, 10, 58, 0
12, 4559, Note_off_c, 10, 51, 0
12, 4608, Note_on_c, 10, 63, 80
12, 4608, Note_on_c, 10, 58, 80
12, 4799, Note_off_c, 10, 63, 0
12, 4799, Note_off_c, 10, 58, 0
12, 4800, Note_on_c, 10, 63, 80
12, 4800, Note_on_c, 10, 58, 80
12, 4847, Note_off_c, 10, 63, 0
12, 4847, Note_off_c, 10, 58, 0
12, 4848, Note_on_c, 10, 63, 80
12, 4848, Note_on_c, 10, 58, 80
12, 4895, Note_off_c, 10, 63, 0
12, 4895, Note_off_c, 10, 58, 0
12, 4944, Note_on_c, 10, 63, 80
12, 4944, Note_on_c, 10, 58, 80
12, 5183, Note_off_c, 10, 58, 0
12, 5183, Note_off_c, 10, 63, 0
12, 5184, Note_on_c, 10, 63, 80
12, 5184, Note_on_c, 10, 58, 80
12, 5279, Note_off_c, 10, 63, 0
12, 5279, Note_off_c, 10, 58, 0
12, 5280, Note_on_c, 10, 63, 80
12, 5280, Note_on_c, 10, 58, 80
12, 5327, Note_off_c, 10, 63, 0
12, 5327, Note_off_c, 10, 58, 0
12, 5328, Note_on_c, 10, 62, 80
12, 5328, Note_on_c, 10, 58, 80
12, 5567, Note_off_c, 10, 62, 0
12, 5567, Note_off_c, 10, 58, 0
12, 5568, Note_on_c, 10, 60, 80
12, 5568, Note_on_c, 10, 58, 80
12, 5615, Note_off_c, 10, 60, 0
12, 5615, Note_off_c, 10, 58, 0
12, 5616, Note_on_c, 10, 62, 80
12, 5616, Note_on_c, 10, 58, 80
12, 5663, Note_off_c, 10, 62, 0
12, 5663, Note_off_c, 10, 58, 0
12, 5712, Note_on_c, 10, 62, 80
12, 5712, Note_on_c, 10, 58, 80
12, 5951, Note_off_c, 10, 58, 0
12, 5951, Note_off_c, 10, 62, 0
12, 5952, Note_on_c, 10, 62, 80
12, 5999, Note_off_c, 10, 62, 0
12, 6000, Note_on_c, 10, 60, 80
12, 6047, Note_off_c, 10, 60, 0
12, 6048, Note_on_c, 10, 58, 80
12, 6095, Note_off_c, 10, 58, 0
12, 6096, Note_on_c, 10, 60, 80
12, 6144, Note_on_c, 10, 56, 80
12, 6335, Note_off_c, 10, 60, 0
12, 6335, Note_off_c, 10, 56, 0
12, 6336, Note_on_c, 10, 63, 80
12, 6336, Note_on_c, 10, 58, 80
12, 6527, Note_off_c, 10, 63, 0
12, 6527, Note_off_c, 10, 58, 0
12, 6528, Note_on_c, 10, 60, 80
12, 6528, Note_on_c, 10, 56, 80
12, 6719, Note_off_c, 10, 60, 0
12, 6719, Note_off_c, 10, 56, 0
12, 6720, Note_on_c, 10, 56, 80
12, 6720, Note_on_c, 10, 56, 80
12, 6911, Note_off_c, 10, 56, 0
12, 6911, Note_off_c, 10, 56, 0
12, 6912, Note_on_c, 10, 53, 80
12, 6912, Note_on_c, 10, 53, 80
12, 7103, Note_off_c, 10, 53, 0
12, 7103, Note_off_c, 10, 53, 0
12, 7104, Note_on_c, 10, 56, 80
12, 7104, Note_on_c, 10, 51, 80
12, 7151, Note_off_c, 10, 56, 0
12, 7151, Note_off_c, 10, 51, 0
12, 7152, Note_on_c, 10, 58, 80
12, 7152, Note_on_c, 10, 53, 80
12, 7199, Note_off_c, 10, 58, 0
12, 7199, Note_off_c, 10, 53, 0
12, 7248, Note_on_c, 10, 58, 80
12, 7248, Note_on_c, 10, 53, 80
12, 7343, Note_off_c, 10, 58, 0
12, 7343, Note_off_c, 10, 53, 0
12, 7344, Note_on_c, 10, 56, 80
12, 7344, Note_on_c, 10, 51, 80
12, 7391, Note_off_c, 10, 56, 0
12, 7391, Note_off_c, 10, 51, 0
12, 7392, Note_on_c, 10, 58, 80
12, 7392, Note_on_c, 10, 53, 80
12, 7631, Note_off_c, 10, 58, 0
12, 7631, Note_off_c, 10, 53, 0
12, 7680, Note_on_c, 10, 51, 80
12, 7680, Note_on_c, 10, 51, 80
12, 7727, Note_off_c, 10, 51, 0
12, 7727, Note_off_c, 10, 51, 0
12, 7728, Note_on_c, 10, 49, 80
12, 7728, Note_on_c, 10, 49, 80
12, 7775, Note_off_c, 10, 49, 0
12, 7775, Note_off_c, 10, 49, 0
12, 7776, Note_on_c, 10, 51, 80
12, 7776, Note_on_c, 10, 51, 80
12, 7823, Note_off_c, 10, 51, 0
12, 7823, Note_off_c, 10, 51, 0
12, 8016, Note_on_c, 10, 58, 80
12, 8016, Note_on_c, 10, 53, 80
12, 8063, Note_off_c, 10, 58, 0
12, 8063, Note_off_c, 10, 53, 0
12, 8112, Note_on_c, 10, 58, 80
12, 8112, Note_on_c, 10, 53, 80
12, 8159, Note_off_c, 10, 58, 0
12, 8159, Note_off_c, 10, 53, 0
12, 8208, Note_on_c, 10, 56, 80
12, 8208, Note_on_c, 10, 51, 80
12, 8255, Note_off_c, 10, 56, 0
12, 8255, Note_off_c, 10, 51, 0
12, 8256, Note_on_c, 10, 56, 80
12, 8256, Note_on_c, 10, 51, 80
12, 8447, Note_off_c, 10, 56, 0
12, 8447, Note_off_c, 10, 51, 0
12, 8448, Note_on_c, 10, 51, 80
12, 8448, Note_on_c, 10, 51, 80
12, 8495, Note_off_c, 10, 51, 0
12, 8495, Note_off_c, 10, 51, 0
12, 8496, Note_on_c, 10, 49, 80
12, 8496, Note_on_c, 10, 49, 80
12, 8543, Note_off_c, 10, 49, 0
12, 8543, Note_off_c, 10, 49, 0
12, 8544, Note_on_c, 10, 51, 80
12, 8544, Note_on_c, 10, 51, 80
12, 8591, Note_off_c, 10, 51, 0
12, 8591, Note_off_c, 10, 51, 0
12, 8784, Note_on_c, 10, 58, 80
12, 8784, Note_on_c, 10, 53, 80
12, 8831, Note_off_c, 10, 58, 0
12, 8831, Note_off_c, 10, 53, 0
12, 8880, Note_on_c, 10, 58, 80
12, 8880, Note_on_c, 10, 53, 80
12, 8927, Note_off_c, 10, 58, 0
12, 8927, Note_off_c, 10, 53, 0
12, 8976, Note_on_c, 10, 58, 80
12, 8976, Note_on_c, 10, 51, 80
12, 9023, Note_off_c, 10, 58, 0
12, 9023, Note_off_c, 10, 51, 0
12, 9024, Note_on_c, 10, 58, 80
12, 9024, Note_on_c, 10, 51, 80
12, 9215, Note_off_c, 10, 58, 0
12, 9215, Note_off_c, 10, 51, 0
12, 9216, Note_on_c, 10, 51, 80
12, 9216, Note_on_c, 10, 51, 80
12, 9263, Note_off_c, 10, 51, 0
12, 9263, Note_off_c, 10, 51, 0
12, 9264, Note_on_c, 10, 49, 80
12, 9264, Note_on_c, 10, 49, 80
12, 9311, Note_off_c, 10, 49, 0
12, 9311, Note_off_c, 10, 49, 0
12, 9312, Note_on_c, 10, 51, 80
12, 9312, Note_on_c, 10, 51, 80
12, 9359, Note_off_c, 10, 51, 0
12, 9359, Note_off_c, 10, 51, 0
12, 9552, Note_on_c, 10, 62, 80
12, 9552, Note_on_c, 10, 58, 80
12, 9599, Note_off_c, 10, 62, 0
12, 9599, Note_off_c, 10, 58, 0
12, 9648, Note_on_c, 10, 62, 80
12, 9648, Note_on_c, 10, 58, 80
12, 9695, Note_off_c, 10, 62, 0
12, 9695, Note_off_c, 10, 58, 0
12, 9744, Note_on_c, 10, 63, 80
12, 9744, Note_on_c, 10, 58, 80
12, 9791, Note_off_c, 10, 63, 0
12, 9791, Note_off_c, 10, 58, 0
12, 9792, Note_on_c, 10, 63, 80
12, 9792, Note_on_c, 10, 58, 80
12, 9983, Note_off_c, 10, 63, 0
12, 9983, Note_off_c, 10, 58, 0
12, 9984, Note_on_c, 10, 63, 80
12, 9984, Note_on_c, 10, 51, 80
12, 10031, Note_off_c, 10, 63, 0
12, 10031, Note_off_c, 10, 51, 0
12, 10032, Note_on_c, 10, 61, 80
12, 10032, Note_on_c, 10, 49, 80
12, 10079, Note_off_c, 10, 61, 0
12, 10079, Note_off_c, 10, 49, 0
12, 10080, Note_on_c, 10, 63, 80
12, 10080, Note_on_c, 10, 51, 80
12, 10127, Note_off_c, 10, 63, 0
12, 10127, Note_off_c, 10, 51, 0
12, 10320, Note_on_c, 10, 62, 80
12, 10320, Note_on_c, 10, 58, 80
12, 10367, Note_off_c, 10, 62, 0
12, 10367, Note_off_c, 10, 58, 0
12, 10416, Note_on_c, 10, 62, 80
12, 10416, Note_on_c, 10, 58, 80
12, 10463, Note_off_c, 10, 62, 0
12, 10463, Note_off_c, 10, 58, 0
12, 10512, Note_on_c, 10, 60, 80
12, 10512, Note_on_c, 10, 58, 80
12, 10559, Note_off_c, 10, 60, 0
12, 10559, Note_off_c, 10, 58, 0
12, 10560, Note_on_c, 10, 60, 80
12, 10560, Note_on_c, 10, 58, 80
12, 10703, Note_off_c, 10, 60, 0
12, 10703, Note_off_c, 10, 58, 0
12, 10752, Note_on_c, 10, 63, 80
12, 10752, Note_on_c, 10, 63, 80
12, 10943, Note_off_c, 10, 63, 0
12, 10943, Note_off_c, 10, 63, 0
12, 10944, Note_on_c, 10, 62, 80
12, 10944, Note_on_c, 10, 62, 80
12, 11135, Note_off_c, 10, 62, 0
12, 11135, Note_off_c, 10, 62, 0
12, 11136, Note_on_c, 10, 61, 80
12, 11136, Note_on_c, 10, 61, 80
12, 11327, Note_off_c, 10, 61, 0
12, 11327, Note_off_c, 10, 61, 0
12, 11328, Note_on_c, 10, 60, 80
12, 11328, Note_on_c, 10, 60, 80
12, 11375, Note_off_c, 10, 60, 0
12, 11375, Note_off_c, 10, 60, 0
12, 11376, Note_on_c, 10, 60, 80
12, 11376, Note_on_c, 10, 60, 80
12, 11423, Note_off_c, 10, 60, 0
12, 11423, Note_off_c, 10, 60, 0
12, 11424, Note_on_c, 10, 60, 80
12, 11424, Note_on_c, 10, 60, 80
12, 11471, Note_off_c, 10, 60, 0
12, 11471, Note_off_c, 10, 60, 0
12, 11520, Note_on_c, 10, 63, 80
12, 11520, Note_on_c, 10, 51, 80
12, 11711, Note_off_c, 10, 63, 0
12, 11711, Note_off_c, 10, 51, 0
12, 11712, Note_on_c, 10, 62, 80
12, 11712, Note_on_c, 10, 50, 80
12, 11855, Note_off_c, 10, 62, 0
12, 11855, Note_off_c, 10, 50, 0
12, 11856, Note_on_c, 10, 58, 80
12, 11856, Note_on_c, 10, 54, 80
12, 12095, Note_off_c, 10, 58, 0
12, 12095, Note_off_c, 10, 54, 0
12, 12096, Note_on_c, 10, 60, 80
12, 12096, Note_on_c, 10, 56, 80
12, 12239, Note_off_c, 10, 60, 0
12, 12239, Note_off_c, 10, 56, 0
12, 12240, Note_on_c, 10, 61, 80
12, 12240, Note_on_c, 10, 58, 80
12, 12335, Note_off_c, 10, 61, 0
12, 12335, Note_off_c, 10, 58, 0
12, 12336, Note_on_c, 10, 61, 80
12, 12336, Note_on_c, 10, 58, 80
12, 12383, Note_off_c, 10, 61, 0
12, 12383, Note_off_c, 10, 58, 0
12, 12384, Note_on_c, 10, 61, 80
12, 12384, Note_on_c, 10, 58, 80
12, 12431, Note_off_c, 10, 61, 0
12, 12431, Note_off_c, 10, 58, 0
12, 12432, Note_on_c, 10, 61, 80
12, 12432, Note_on_c, 10, 58, 80
12, 12479, Note_off_c, 10, 61, 0
12, 12479, Note_off_c, 10, 58, 0
12, 12480, Note_on_c, 10, 63, 80
12, 12480, Note_on_c, 10, 60, 80
12, 12527, Note_off_c, 10, 63, 0
12, 12527, Note_off_c, 10, 60, 0
12, 12528, Note_on_c, 10, 63, 80
12, 12528, Note_on_c, 10, 58, 80
12, 12575, Note_off_c, 10, 63, 0
12, 12575, Note_off_c, 10, 58, 0
12, 12576, Note_on_c, 10, 63, 80
12, 12576, Note_on_c, 10, 60, 80
12, 12623, Note_off_c, 10, 63, 0
12, 12623, Note_off_c, 10, 60, 0
12, 12768, Note_on_c, 10, 63, 80
12, 12768, Note_on_c, 10, 58, 80
12, 12863, Note_off_c, 10, 63, 0
12, 12863, Note_off_c, 10, 58, 0
12, 12864, Note_on_c, 10, 63, 80
12, 12864, Note_on_c, 10, 58, 80
12, 12911, Note_off_c, 10, 63, 0
12, 12911, Note_off_c, 10, 58, 0
12, 12912, Note_on_c, 10, 63, 80
12, 12912, Note_on_c, 10, 58, 80
12, 12959, Note_off_c, 10, 63, 0
12, 12959, Note_off_c, 10, 58, 0
12, 13008, Note_on_c, 10, 63, 80
12, 13008, Note_on_c, 10, 58, 80
12, 13247, Note_off_c, 10, 58, 0
12, 13247, Note_off_c, 10, 63, 0
12, 13248, Note_on_c, 10, 63, 80
12, 13248, Note_on_c, 10, 58, 80
12, 13343, Note_off_c, 10, 63, 0
12, 13343, Note_off_c, 10, 58, 0
12, 13344, Note_on_c, 10, 63, 80
12, 13344, Note_on_c, 10, 58, 80
12, 13391, Note_off_c, 10, 63, 0
12, 13391, Note_off_c, 10, 58, 0
12, 13392, Note_on_c, 10, 62, 80
12, 13392, Note_on_c, 10, 58, 80
12, 13631, Note_off_c, 10, 62, 0
12, 13631, Note_off_c, 10, 58, 0
12, 13632, Note_on_c, 10, 60, 80
12, 13632, Note_on_c, 10, 58, 80
12, 13679, Note_off_c, 10, 60, 0
12, 13679, Note_off_c, 10, 58, 0
12, 13680, Note_on_c, 10, 62, 80
12, 13680, Note_on_c, 10, 58, 80
12, 13727, Note_off_c, 10, 62, 0
12, 13727, Note_off_c, 10, 58, 0
12, 13776, Note_on_c, 10, 62, 80
12, 13776, Note_on_c, 10, 58, 80
12, 14015, Note_off_c, 10, 58, 0
12, 14015, Note_off_c, 10, 62, 0
12, 14016, Note_on_c, 10, 62, 80
12, 14063, Note_off_c, 10, 62, 0
12, 14064, Note_on_c, 10, 60, 80
12, 14111, Note_off_c, 10, 60, 0
12, 14112, Note_on_c, 10, 58, 80
12, 14159, Note_off_c, 10, 58, 0
12, 14160, Note_on_c, 10, 60, 80
12, 14208, Note_on_c, 10, 56, 80
12, 14399, Note_off_c, 10, 60, 0
12, 14399, Note_off_c, 10, 56, 0
12, 14400, Note_on_c, 10, 63, 80
12, 14400, Note_on_c, 10, 58, 80
12, 14591, Note_off_c, 10, 63, 0
12, 14591, Note_off_c, 10, 58, 0
12, 14592, Note_on_c, 10, 60, 80
12, 14592, Note_on_c, 10, 56, 80
12, 14783, Note_off_c, 10, 60, 0
12, 14783, Note_off_c, 10, 56, 0
12, 14784, Note_on_c, 10, 56, 80
12, 14784, Note_on_c, 10, 56, 80
12, 14975, Note_off_c, 10, 56, 0
12, 14975, Note_off_c, 10, 56, 0
12, 14976, Note_on_c, 10, 53, 80
12, 14976, Note_on_c, 10, 53, 80
12, 15167, Note_off_c, 10, 53, 0
12, 15167, Note_off_c, 10, 53, 0
12, 15168, Note_on_c, 10, 56, 80
12, 15168, Note_on_c, 10, 51, 80
12, 15215, Note_off_c, 10, 56, 0
12, 15215, Note_off_c, 10, 51, 0
12, 15216, Note_on_c, 10, 58, 80
12, 15216, Note_on_c, 10, 53, 80
12, 15263, Note_off_c, 10, 58, 0
12, 15263, Note_off_c, 10, 53, 0
12, 15312, Note_on_c, 10, 58, 80
12, 15312, Note_on_c, 10, 53, 80
12, 15407, Note_off_c, 10, 58, 0
12, 15407, Note_off_c, 10, 53, 0
12, 15408, Note_on_c, 10, 56, 80
12, 15408, Note_on_c, 10, 53, 80
12, 15455, Note_off_c, 10, 56, 0
12, 15455, Note_off_c, 10, 53, 0
12, 15456, Note_on_c, 10, 58, 80
12, 15456, Note_on_c, 10, 53, 80
12, 15551, Note_off_c, 10, 58, 0
12, 15551, Note_off_c, 10, 53, 0
12, 15552, Note_on_c, 10, 58, 80
12, 15552, Note_on_c, 10, 58, 80
12, 15599, Note_off_c, 10, 58, 0
12, 15599, Note_off_c, 10, 58, 0
12, 15600, Note_on_c, 10, 60, 80
12, 15600, Note_on_c, 10, 60, 80
12, 15647, Note_off_c, 10, 60, 0
12, 15647, Note_off_c, 10, 60, 0
12, 15648, Note_on_c, 10, 58, 80
12, 15648, Note_on_c, 10, 58, 80
12, 15695, Note_off_c, 10, 58, 0
12, 15695, Note_off_c, 10, 58, 0
12, 15696, Note_on_c, 10, 55, 80
12, 15696, Note_on_c, 10, 55, 80
12, 15743, Note_off_c, 10, 55, 0
12, 15743, Note_off_c, 10, 55, 0
12, 15744, Note_on_c, 10, 63, 80
12, 15744, Note_on_c, 10, 58, 80
12, 15935, Note_off_c, 10, 63, 0
12, 15935, Note_off_c, 10, 58, 0
12, 15936, Note_on_c, 10, 63, 80
12, 15936, Note_on_c, 10, 58, 80
12, 15983, Note_off_c, 10, 63, 0
12, 15983, Note_off_c, 10, 58, 0
12, 15984, Note_on_c, 10, 63, 80
12, 15984, Note_on_c, 10, 58, 80
12, 16079, Note_off_c, 10, 63, 0
12, 16079, Note_off_c, 10, 58, 0
12, 16080, Note_on_c, 10, 63, 80
12, 16080, Note_on_c, 10, 58, 80
12, 16175, Note_off_c, 10, 63, 0
12, 16175, Note_off_c, 10, 58, 0
12, 16176, Note_on_c, 10, 63, 80
12, 16176, Note_on_c, 10, 58, 80
12, 16223, Note_off_c, 10, 63, 0
12, 16223, Note_off_c, 10, 58, 0
12, 16224, Note_on_c, 10, 63, 80
12, 16224, Note_on_c, 10, 58, 80
12, 16415, Note_off_c, 10, 63, 0
12, 16415, Note_off_c, 10, 58, 0
12, 16416, Note_on_c, 10, 63, 80
12, 16416, Note_on_c, 10, 58, 80
12, 16463, Note_off_c, 10, 63, 0
12, 16463, Note_off_c, 10, 58, 0
12, 16464, Note_on_c, 10, 62, 80
12, 16464, Note_on_c, 10, 58, 80
12, 16607, Note_off_c, 10, 62, 0
12, 16607, Note_off_c, 10, 58, 0
12, 16608, Note_on_c, 10, 62, 80
12, 16608, Note_on_c, 10, 58, 80
12, 16703, Note_off_c, 10, 62, 0
12, 16703, Note_off_c, 10, 58, 0
12, 16704, Note_on_c, 10, 60, 80
12, 16704, Note_on_c, 10, 58, 80
12, 16751, Note_off_c, 10, 60, 0
12, 16751, Note_off_c, 10, 58, 0
12, 16752, Note_on_c, 10, 62, 80
12, 16752, Note_on_c, 10, 58, 80
12, 16847, Note_off_c, 10, 62, 0
12, 16847, Note_off_c, 10, 58, 0
12, 16848, Note_on_c, 10, 62, 80
12, 16848, Note_on_c, 10, 58, 80
12, 17087, Note_off_c, 10, 62, 0
12, 17088, Note_on_c, 10, 62, 80
12, 17135, Note_off_c, 10, 62, 0
12, 17136, Note_on_c, 10, 60, 80
12, 17183, Note_off_c, 10, 58, 0
12, 17183, Note_off_c, 10, 60, 0
12, 17184, Note_on_c, 10, 58, 80
12, 17279, Note_off_c, 10, 58, 0
12, 17280, Note_on_c, 10, 60, 80
12, 17280, Note_on_c, 10, 56, 80
12, 17471, Note_off_c, 10, 60, 0
12, 17471, Note_off_c, 10, 56, 0
12, 17472, Note_on_c, 10, 63, 80
12, 17472, Note_on_c, 10, 58, 80
12, 17663, Note_off_c, 10, 63, 0
12, 17663, Note_off_c, 10, 58, 0
12, 17664, Note_on_c, 10, 60, 80
12, 17664, Note_on_c, 10, 56, 80
12, 17855, Note_off_c, 10, 60, 0
12, 17855, Note_off_c, 10, 56, 0
12, 17856, Note_on_c, 10, 60, 80
12, 17856, Note_on_c, 10, 56, 80
12, 18047, Note_off_c, 10, 60, 0
12, 18047, Note_off_c, 10, 56, 0
12, 18048, Note_on_c, 10, 63, 80
12, 18048, Note_on_c, 10, 58, 80
12, 18335, Note_off_c, 10, 63, 0
12, 18335, Note_off_c, 10, 58, 0
12, 18384, Note_on_c, 10, 62, 80
12, 18384, Note_on_c, 10, 58, 80
12, 18719, Note_off_c, 10, 58, 0
12, 18719, Note_off_c, 10, 62, 0
12, 18768, Note_on_c, 10, 60, 80
12, 18768, Note_on_c, 10, 58, 80
12, 19103, Note_off_c, 10, 60, 0
12, 19103, Note_off_c, 10, 58, 0
12, 19152, Note_on_c, 10, 65, 80
12, 19152, Note_on_c, 10, 62, 80
12, 19487, Note_off_c, 10, 65, 0
12, 19487, Note_off_c, 10, 62, 0
12, 19488, Note_on_c, 10, 63, 80
12, 19488, Note_on_c, 10, 56, 80
12, 19535, Note_off_c, 10, 63, 0
12, 19535, Note_off_c, 10, 56, 0
12, 19536, Note_on_c, 10, 63, 80
12, 19536, Note_on_c, 10, 58, 80
12, 19583, Note_off_c, 10, 63, 0
12, 19583, Note_off_c, 10, 58, 0
12, 19920, Note_on_c, 10, 65, 96
12, 19920, Note_on_c, 10, 58, 96
12, 19951, Note_off_c, 10, 65, 0
12, 19951, Note_off_c, 10, 58, 0
12, 20016, Note_on_c, 10, 65, 96
12, 20016, Note_on_c, 10, 58, 96
12, 20047, Note_off_c, 10, 65, 0
12, 20047, Note_off_c, 10, 58, 0
12, 20112, Note_on_c, 10, 63, 80
12, 20112, Note_on_c, 10, 58, 80
12, 20159, Note_off_c, 10, 63, 0
12, 20159, Note_off_c, 10, 58, 0
12, 20160, Note_on_c, 10, 63, 96
12, 20160, Note_on_c, 10, 58, 96
12, 20351, Note_off_c, 10, 63, 0
12, 20351, Note_off_c, 10, 58, 0
12, 20352, Note_on_c, 10, 63, 80
12, 20352, Note_on_c, 10, 51, 80
12, 20399, Note_off_c, 10, 63, 0
12, 20399, Note_off_c, 10, 51, 0
12, 20400, Note_on_c, 10, 61, 80
12, 20400, Note_on_c, 10, 49, 80
12, 20447, Note_off_c, 10, 61, 0
12, 20447, Note_off_c, 10, 49, 0
12, 20448, Note_on_c, 10, 63, 80
12, 20448, Note_on_c, 10, 51, 80
12, 20495, Note_off_c, 10, 63, 0
12, 20495, Note_off_c, 10, 51, 0
12, 20736, Control_c, 10, 101, 0
12, 20736, Control_c, 10, 100, 0
12, 20736, Control_c, 10, 6, 12
12, 20736, Control_c, 10, 10, 64
12, 20736, Control_c, 10, 7, 100
12, 20736, Pitch_bend_c, 10, 8192
12, 20736, Program_c, 10, 57
12, 20736, Control_c, 10, 101, 0
12, 20736, Control_c, 10, 100, 0
12, 20736, Control_c, 10, 6, 12
12, 20736, Control_c, 10, 10, 64
12, 20736, Control_c, 10, 7, 100
12, 20736, Pitch_bend_c, 10, 8192
12, 20736, Program_c, 10, 57
12, 20736, Control_c, 10, 101, 0
12, 20736, Control_c, 10, 100, 0
12, 20736, Control_c, 10, 6, 12
12, 20736, Control_c, 10, 10, 64
12, 20736, Control_c, 10, 7, 100
12, 20736, Pitch_bend_c, 10, 8192
12, 20736, Program_c, 10, 57
12, 20736, End_track
13, 0, Start_track
13, 0, Control_c, 9, 10, 64
13, 0, Control_c, 9, 7, 100
13, 0, Pitch_bend_c, 9, 8192
13, 0, Control_c, 9, 101, 0
13, 0, Control_c, 9, 100, 0
13, 0, Control_c, 9, 6, 12
13, 0, Control_c, 9, 10, 64
13, 0, Control_c, 9, 7, 100
13, 0, Pitch_bend_c, 9, 8192
13, 0, Program_c, 9, 0
13, 0, Control_c, 9, 101, 0
13, 0, Control_c, 9, 100, 0
13, 0, Control_c, 9, 6, 12
13, 0, Control_c, 9, 10, 64
13, 0, Control_c, 9, 7, 100
13, 0, Pitch_bend_c, 9, 8192
13, 0, Program_c, 9, 0
13, 1536, Note_on_c, 9, 56, 126
13, 1631, Note_off_c, 9, 56, 0
13, 1632, Note_on_c, 9, 56, 126
13, 1727, Note_off_c, 9, 56, 0
13, 1728, Note_on_c, 9, 56, 126
13, 1823, Note_off_c, 9, 56, 0
13, 1824, Note_on_c, 9, 56, 126
13, 1919, Note_off_c, 9, 56, 0
13, 1920, Note_on_c, 9, 56, 126
13, 2015, Note_off_c, 9, 56, 0
13, 2016, Note_on_c, 9, 56, 126
13, 2111, Note_off_c, 9, 56, 0
13, 2112, Note_on_c, 9, 56, 126
13, 2207, Note_off_c, 9, 56, 0
13, 2208, Note_on_c, 9, 56, 126
13, 2303, Note_off_c, 9, 56, 0
13, 2304, Note_on_c, 9, 56, 126
13, 2399, Note_off_c, 9, 56, 0
13, 2400, Note_on_c, 9, 56, 126
13, 2495, Note_off_c, 9, 56, 0
13, 2496, Note_on_c, 9, 56, 126
13, 2591, Note_off_c, 9, 56, 0
13, 2592, Note_on_c, 9, 56, 126
13, 2687, Note_off_c, 9, 56, 0
13, 2688, Note_on_c, 9, 56, 126
13, 2783, Note_off_c, 9, 56, 0
13, 2784, Note_on_c, 9, 56, 126
13, 2879, Note_off_c, 9, 56, 0
13, 2880, Note_on_c, 9, 56, 126
13, 2975, Note_off_c, 9, 56, 0
13, 2976, Note_on_c, 9, 56, 126
13, 3071, Note_off_c, 9, 56, 0
13, 3072, Note_on_c, 9, 56, 126
13, 3167, Note_off_c, 9, 56, 0
13, 3168, Note_on_c, 9, 56, 126
13, 3263, Note_off_c, 9, 56, 0
13, 3264, Note_on_c, 9, 56, 126
13, 3359, Note_off_c, 9, 56, 0
13, 3360, Note_on_c, 9, 56, 126
13, 3455, Note_off_c, 9, 56, 0
13, 3456, Note_on_c, 9, 56, 126
13, 3551, Note_off_c, 9, 56, 0
13, 3552, Note_on_c, 9, 56, 126
13, 3647, Note_off_c, 9, 56, 0
13, 3648, Note_on_c, 9, 56, 126
13, 3743, Note_off_c, 9, 56, 0
13, 3744, Note_on_c, 9, 56, 126
13, 3839, Note_off_c, 9, 56, 0
13, 3840, Note_on_c, 9, 56, 126
13, 3935, Note_off_c, 9, 56, 0
13, 3936, Note_on_c, 9, 56, 126
13, 4031, Note_off_c, 9, 56, 0
13, 4032, Note_on_c, 9, 56, 126
13, 4127, Note_off_c, 9, 56, 0
13, 4128, Note_on_c, 9, 56, 126
13, 4223, Note_off_c, 9, 56, 0
13, 4224, Note_on_c, 9, 56, 126
13, 4319, Note_off_c, 9, 56, 0
13, 4320, Note_on_c, 9, 56, 126
13, 4415, Note_off_c, 9, 56, 0
13, 4416, Note_on_c, 9, 56, 126
13, 4511, Note_off_c, 9, 56, 0
13, 4512, Note_on_c, 9, 56, 126
13, 4607, Note_off_c, 9, 56, 0
13, 7680, Note_on_c, 9, 56, 126
13, 7775, Note_off_c, 9, 56, 0
13, 7776, Note_on_c, 9, 56, 126
13, 7871, Note_off_c, 9, 56, 0
13, 7872, Note_on_c, 9, 56, 126
13, 7967, Note_off_c, 9, 56, 0
13, 7968, Note_on_c, 9, 56, 126
13, 8063, Note_off_c, 9, 56, 0
13, 8064, Note_on_c, 9, 56, 126
13, 8159, Note_off_c, 9, 56, 0
13, 8160, Note_on_c, 9, 56, 126
13, 8255, Note_off_c, 9, 56, 0
13, 8256, Note_on_c, 9, 56, 126
13, 8351, Note_off_c, 9, 56, 0
13, 8352, Note_on_c, 9, 56, 126
13, 8447, Note_off_c, 9, 56, 0
13, 8448, Note_on_c, 9, 56, 126
13, 8543, Note_off_c, 9, 56, 0
13, 8544, Note_on_c, 9, 56, 126
13, 8639, Note_off_c, 9, 56, 0
13, 8640, Note_on_c, 9, 56, 126
13, 8735, Note_off_c, 9, 56, 0
13, 8736, Note_on_c, 9, 56, 126
13, 8831, Note_off_c, 9, 56, 0
13, 8832, Note_on_c, 9, 56, 126
13, 8927, Note_off_c, 9, 56, 0
13, 8928, Note_on_c, 9, 56, 126
13, 9023, Note_off_c, 9, 56, 0
13, 9024, Note_on_c, 9, 56, 126
13, 9119, Note_off_c, 9, 56, 0
13, 9120, Note_on_c, 9, 56, 126
13, 9215, Note_off_c, 9, 56, 0
13, 9216, Note_on_c, 9, 56, 126
13, 9311, Note_off_c, 9, 56, 0
13, 9312, Note_on_c, 9, 56, 126
13, 9407, Note_off_c, 9, 56, 0
13, 9408, Note_on_c, 9, 56, 126
13, 9503, Note_off_c, 9, 56, 0
13, 9504, Note_on_c, 9, 56, 126
13, 9599, Note_off_c, 9, 56, 0
13, 9600, Note_on_c, 9, 56, 126
13, 9695, Note_off_c, 9, 56, 0
13, 9696, Note_on_c, 9, 56, 126
13, 9791, Note_off_c, 9, 56, 0
13, 9792, Note_on_c, 9, 56, 126
13, 9887, Note_off_c, 9, 56, 0
13, 9888, Note_on_c, 9, 56, 126
13, 9983, Note_off_c, 9, 56, 0
13, 9984, Note_on_c, 9, 56, 126
13, 10079, Note_off_c, 9, 56, 0
13, 10080, Note_on_c, 9, 56, 126
13, 10175, Note_off_c, 9, 56, 0
13, 10176, Note_on_c, 9, 56, 126
13, 10271, Note_off_c, 9, 56, 0
13, 10272, Note_on_c, 9, 56, 126
13, 10367, Note_off_c, 9, 56, 0
13, 10368, Note_on_c, 9, 56, 126
13, 10463, Note_off_c, 9, 56, 0
13, 10464, Note_on_c, 9, 56, 126
13, 10559, Note_off_c, 9, 56, 0
13, 10560, Note_on_c, 9, 56, 126
13, 10655, Note_off_c, 9, 56, 0
13, 10656, Note_on_c, 9, 56, 126
13, 10751, Note_off_c, 9, 56, 0
13, 15744, Note_on_c, 9, 56, 126
13, 15839, Note_off_c, 9, 56, 0
13, 15840, Note_on_c, 9, 56, 126
13, 15935, Note_off_c, 9, 56, 0
13, 15936, Note_on_c, 9, 56, 126
13, 16031, Note_off_c, 9, 56, 0
13, 16032, Note_on_c, 9, 56, 126
13, 16127, Note_off_c, 9, 56, 0
13, 16128, Note_on_c, 9, 56, 126
13, 16223, Note_off_c, 9, 56, 0
13, 16224, Note_on_c, 9, 56, 126
13, 16319, Note_off_c, 9, 56, 0
13, 16320, Note_on_c, 9, 56, 126
13, 16415, Note_off_c, 9, 56, 0
13, 16416, Note_on_c, 9, 56, 126
13, 16511, Note_off_c, 9, 56, 0
13, 16512, Note_on_c, 9, 56, 126
13, 16607, Note_off_c, 9, 56, 0
13, 16608, Note_on_c, 9, 56, 126
13, 16703, Note_off_c, 9, 56, 0
13, 16704, Note_on_c, 9, 56, 126
13, 16799, Note_off_c, 9, 56, 0
13, 16800, Note_on_c, 9, 56, 126
13, 16895, Note_off_c, 9, 56, 0
13, 16896, Note_on_c, 9, 56, 126
13, 16991, Note_off_c, 9, 56, 0
13, 16992, Note_on_c, 9, 56, 126
13, 17087, Note_off_c, 9, 56, 0
13, 17088, Note_on_c, 9, 56, 126
13, 17183, Note_off_c, 9, 56, 0
13, 17184, Note_on_c, 9, 56, 126
13, 17279, Note_off_c, 9, 56, 0
13, 17280, Note_on_c, 9, 56, 126
13, 17375, Note_off_c, 9, 56, 0
13, 17376, Note_on_c, 9, 56, 126
13, 17471, Note_off_c, 9, 56, 0
13, 17472, Note_on_c, 9, 56, 126
13, 17567, Note_off_c, 9, 56, 0
13, 17568, Note_on_c, 9, 56, 126
13, 17663, Note_off_c, 9, 56, 0
13, 17664, Note_on_c, 9, 56, 126
13, 17759, Note_off_c, 9, 56, 0
13, 17760, Note_on_c, 9, 56, 126
13, 17855, Note_off_c, 9, 56, 0
13, 17856, Note_on_c, 9, 56, 126
13, 17951, Note_off_c, 9, 56, 0
13, 17952, Note_on_c, 9, 56, 126
13, 18047, Note_off_c, 9, 56, 0
13, 18048, Note_on_c, 9, 56, 126
13, 18143, Note_off_c, 9, 56, 0
13, 18144, Note_on_c, 9, 56, 126
13, 18239, Note_off_c, 9, 56, 0
13, 18240, Note_on_c, 9, 56, 126
13, 18335, Note_off_c, 9, 56, 0
13, 18336, Note_on_c, 9, 56, 126
13, 18431, Note_off_c, 9, 56, 0
13, 18432, Note_on_c, 9, 56, 126
13, 18527, Note_off_c, 9, 56, 0
13, 18528, Note_on_c, 9, 56, 126
13, 18623, Note_off_c, 9, 56, 0
13, 18624, Note_on_c, 9, 56, 126
13, 18719, Note_off_c, 9, 56, 0
13, 18720, Note_on_c, 9, 56, 126
13, 18815, Note_off_c, 9, 56, 0
13, 18816, Note_on_c, 9, 56, 126
13, 18911, Note_off_c, 9, 56, 0
13, 18912, Note_on_c, 9, 56, 126
13, 19007, Note_off_c, 9, 56, 0
13, 19008, Note_on_c, 9, 56, 126
13, 19103, Note_off_c, 9, 56, 0
13, 19104, Note_on_c, 9, 56, 126
13, 19199, Note_off_c, 9, 56, 0
13, 19200, Note_on_c, 9, 56, 126
13, 19295, Note_off_c, 9, 56, 0
13, 19296, Note_on_c, 9, 56, 126
13, 19391, Note_off_c, 9, 56, 0
13, 19392, Note_on_c, 9, 56, 126
13, 19487, Note_off_c, 9, 56, 0
13, 19488, Note_on_c, 9, 56, 126
13, 19535, Note_off_c, 9, 56, 0
13, 19536, Note_on_c, 9, 56, 126
13, 19583, Note_off_c, 9, 56, 0
13, 20352, Note_on_c, 9, 56, 126
13, 20399, Note_off_c, 9, 56, 0
13, 20400, Note_on_c, 9, 56, 126
13, 20447, Note_off_c, 9, 56, 0
13, 20448, Note_on_c, 9, 56, 126
13, 20495, Note_off_c, 9, 56, 0
13, 20736, Control_c, 9, 101, 0
13, 20736, Control_c, 9, 100, 0
13, 20736, Control_c, 9, 6, 12
13, 20736, Control_c, 9, 10, 64
13, 20736, Control_c, 9, 7, 100
13, 20736, Pitch_bend_c, 9, 8192
13, 20736, Program_c, 9, 0
13, 20736, Control_c, 9, 101, 0
13, 20736, Control_c, 9, 100, 0
13, 20736, Control_c, 9, 6, 12
13, 20736, Control_c, 9, 10, 64
13, 20736, Control_c, 9, 7, 100
13, 20736, Pitch_bend_c, 9, 8192
13, 20736, Program_c, 9, 0
13, 20736, Control_c, 9, 101, 0
13, 20736, Control_c, 9, 100, 0
13, 20736, Control_c, 9, 6, 12
13, 20736, Control_c, 9, 10, 64
13, 20736, Control_c, 9, 7, 100
13, 20736, Pitch_bend_c, 9, 8192
13, 20736, Program_c, 9, 0
13, 20736, End_track
14, 0, Start_track
14, 0, Control_c, 9, 10, 64
14, 0, Control_c, 9, 7, 100
14, 0, Pitch_bend_c, 9, 8192
14, 0, Control_c, 9, 101, 0
14, 0, Control_c, 9, 100, 0
14, 0, Control_c, 9, 6, 12
14, 0, Control_c, 9, 10, 64
14, 0, Control_c, 9, 7, 100
14, 0, Pitch_bend_c, 9, 8192
14, 0, Program_c, 9, 0
14, 0, Control_c, 9, 101, 0
14, 0, Control_c, 9, 100, 0
14, 0, Control_c, 9, 6, 12
14, 0, Control_c, 9, 10, 64
14, 0, Control_c, 9, 7, 100
14, 0, Pitch_bend_c, 9, 8192
14, 0, Program_c, 9, 0
14, 0, Note_on_c, 9, 49, 92
14, 0, Note_on_c, 9, 57, 92
14, 48, Note_off_c, 9, 57, 64
14, 384, Note_off_c, 9, 49, 0
14, 768, Note_on_c, 9, 57, 92
14, 768, Note_on_c, 9, 49, 92
14, 816, Note_off_c, 9, 57, 64
14, 1056, Note_off_c, 9, 49, 0
14, 1104, Note_on_c, 9, 49, 92
14, 1104, Note_on_c, 9, 57, 92
14, 1152, Note_off_c, 9, 57, 64
14, 1152, Note_off_c, 9, 49, 0
14, 1200, Note_on_c, 9, 49, 92
14, 1200, Note_on_c, 9, 57, 92
14, 1248, Note_off_c, 9, 57, 64
14, 1248, Note_off_c, 9, 49, 0
14, 1344, Note_on_c, 9, 49, 92
14, 1344, Note_on_c, 9, 57, 92
14, 1440, Note_off_c, 9, 57, 64
14, 1536, Note_off_c, 9, 49, 0
14, 1536, Note_on_c, 9, 49, 92
14, 1680, Note_off_c, 9, 49, 0
14, 1824, Note_on_c, 9, 49, 92
14, 1920, Note_off_c, 9, 49, 0
14, 2016, Note_on_c, 9, 49, 92
14, 2112, Note_off_c, 9, 49, 0
14, 2208, Note_on_c, 9, 49, 92
14, 2304, Note_off_c, 9, 49, 0
14, 2400, Note_on_c, 9, 49, 92
14, 2496, Note_off_c, 9, 49, 0
14, 2592, Note_on_c, 9, 49, 92
14, 2688, Note_off_c, 9, 49, 0
14, 2784, Note_on_c, 9, 49, 92
14, 2880, Note_off_c, 9, 49, 0
14, 2976, Note_on_c, 9, 49, 92
14, 3072, Note_off_c, 9, 49, 0
14, 3072, Note_on_c, 9, 49, 92
14, 3216, Note_off_c, 9, 49, 0
14, 3360, Note_on_c, 9, 49, 92
14, 3456, Note_off_c, 9, 49, 0
14, 3552, Note_on_c, 9, 49, 92
14, 3648, Note_off_c, 9, 49, 0
14, 3744, Note_on_c, 9, 49, 92
14, 3840, Note_off_c, 9, 49, 0
14, 3840, Note_on_c, 9, 49, 92
14, 3984, Note_off_c, 9, 49, 0
14, 4128, Note_on_c, 9, 49, 92
14, 4224, Note_off_c, 9, 49, 0
14, 4320, Note_on_c, 9, 49, 92
14, 4416, Note_off_c, 9, 49, 0
14, 4512, Note_on_c, 9, 49, 92
14, 4608, Note_off_c, 9, 49, 0
14, 4608, Note_on_c, 9, 49, 92
14, 4704, Note_off_c, 9, 49, 0
14, 5088, Note_on_c, 9, 49, 92
14, 5184, Note_off_c, 9, 49, 0
14, 5280, Note_on_c, 9, 49, 92
14, 5376, Note_off_c, 9, 49, 0
14, 5472, Note_on_c, 9, 49, 92
14, 5568, Note_off_c, 9, 49, 0
14, 5664, Note_on_c, 9, 49, 92
14, 5760, Note_off_c, 9, 49, 0
14, 5856, Note_on_c, 9, 49, 92
14, 5952, Note_off_c, 9, 49, 0
14, 6144, Note_on_c, 9, 49, 92
14, 6336, Note_off_c, 9, 49, 0
14, 6336, Note_on_c, 9, 49, 92
14, 6528, Note_off_c, 9, 49, 0
14, 6528, Note_on_c, 9, 49, 92
14, 6720, Note_off_c, 9, 49, 0
14, 6720, Note_on_c, 9, 49, 92
14, 6912, Note_off_c, 9, 49, 0
14, 6912, Note_on_c, 9, 49, 92
14, 6912, Note_on_c, 9, 57, 92
14, 7008, Note_off_c, 9, 57, 64
14, 7200, Note_off_c, 9, 49, 0
14, 7248, Note_on_c, 9, 57, 92
14, 7248, Note_on_c, 9, 49, 92
14, 7296, Note_off_c, 9, 57, 64
14, 7296, Note_off_c, 9, 49, 0
14, 7392, Note_on_c, 9, 49, 92
14, 7392, Note_on_c, 9, 57, 92
14, 7488, Note_off_c, 9, 57, 64
14, 7488, Note_off_c, 9, 49, 0
14, 7776, Note_on_c, 9, 49, 92
14, 7776, Note_on_c, 9, 57, 92
14, 7872, Note_off_c, 9, 57, 0
14, 7872, Note_off_c, 9, 49, 0
14, 7968, Note_on_c, 9, 49, 92
14, 7968, Note_on_c, 9, 57, 92
14, 8064, Note_off_c, 9, 57, 0
14, 8064, Note_off_c, 9, 49, 0
14, 8160, Note_on_c, 9, 49, 92
14, 8160, Note_on_c, 9, 57, 92
14, 8256, Note_off_c, 9, 57, 0
14, 8256, Note_off_c, 9, 49, 0
14, 8352, Note_on_c, 9, 49, 92
14, 8352, Note_on_c, 9, 57, 92
14, 8448, Note_off_c, 9, 49, 0
14, 8448, Note_off_c, 9, 57, 0
14, 8544, Note_on_c, 9, 49, 92
14, 8544, Note_on_c, 9, 57, 92
14, 8640, Note_off_c, 9, 57, 0
14, 8640, Note_off_c, 9, 49, 0
14, 8736, Note_on_c, 9, 49, 92
14, 8736, Note_on_c, 9, 57, 92
14, 8832, Note_off_c, 9, 57, 0
14, 8832, Note_off_c, 9, 49, 0
14, 8928, Note_on_c, 9, 49, 92
14, 8928, Note_on_c, 9, 57, 92
14, 9024, Note_off_c, 9, 57, 0
14, 9024, Note_off_c, 9, 49, 0
14, 9120, Note_on_c, 9, 49, 92
14, 9120, Note_on_c, 9, 57, 92
14, 9216, Note_off_c, 9, 49, 0
14, 9216, Note_off_c, 9, 57, 0
14, 9312, Note_on_c, 9, 49, 92
14, 9312, Note_on_c, 9, 57, 92
14, 9408, Note_off_c, 9, 49, 0
14, 9408, Note_off_c, 9, 57, 0
14, 9504, Note_on_c, 9, 57, 92
14, 9504, Note_on_c, 9, 49, 92
14, 9600, Note_off_c, 9, 49, 0
14, 9600, Note_off_c, 9, 57, 0
14, 9696, Note_on_c, 9, 49, 92
14, 9696, Note_on_c, 9, 57, 92
14, 9792, Note_off_c, 9, 57, 0
14, 9792, Note_off_c, 9, 49, 0
14, 9888, Note_on_c, 9, 49, 92
14, 9888, Note_on_c, 9, 57, 92
14, 9984, Note_off_c, 9, 49, 0
14, 9984, Note_off_c, 9, 57, 0
14, 10080, Note_on_c, 9, 49, 92
14, 10080, Note_on_c, 9, 57, 92
14, 10176, Note_off_c, 9, 49, 0
14, 10176, Note_off_c, 9, 57, 0
14, 10272, Note_on_c, 9, 49, 92
14, 10272, Note_on_c, 9, 57, 92
14, 10368, Note_off_c, 9, 57, 0
14, 10368, Note_off_c, 9, 49, 0
14, 10752, Note_on_c, 9, 49, 92
14, 10944, Note_off_c, 9, 49, 0
14, 10944, Note_on_c, 9, 49, 92
14, 11136, Note_off_c, 9, 49, 0
14, 11136, Note_on_c, 9, 49, 92
14, 11328, Note_off_c, 9, 49, 0
14, 11328, Note_on_c, 9, 49, 92
14, 11520, Note_off_c, 9, 49, 0
14, 11520, Note_on_c, 9, 57, 92
14, 11520, Note_on_c, 9, 49, 92
14, 11712, Note_off_c, 9, 49, 0
14, 11712, Note_off_c, 9, 57, 0
14, 11712, Note_on_c, 9, 57, 92
14, 11712, Note_on_c, 9, 49, 92
14, 11856, Note_off_c, 9, 57, 0
14, 11856, Note_off_c, 9, 49, 0
14, 11856, Note_on_c, 9, 49, 92
14, 11856, Note_on_c, 9, 57, 92
14, 11904, Note_off_c, 9, 57, 0
14, 11904, Note_off_c, 9, 49, 0
14, 12096, Note_on_c, 9, 57, 92
14, 12096, Note_on_c, 9, 49, 92
14, 12240, Note_off_c, 9, 57, 0
14, 12240, Note_off_c, 9, 49, 0
14, 12240, Note_on_c, 9, 57, 92
14, 12240, Note_on_c, 9, 49, 92
14, 12288, Note_off_c, 9, 49, 0
14, 12288, Note_off_c, 9, 57, 0
14, 12384, Note_on_c, 9, 57, 92
14, 12384, Note_on_c, 9, 49, 92
14, 12480, Note_off_c, 9, 49, 0
14, 12480, Note_off_c, 9, 57, 0
14, 12480, Note_on_c, 9, 57, 92
14, 12480, Note_on_c, 9, 49, 92
14, 12576, Note_off_c, 9, 49, 0
14, 12576, Note_off_c, 9, 57, 0
14, 12576, Note_on_c, 9, 57, 92
14, 12576, Note_on_c, 9, 49, 92
14, 12672, Note_off_c, 9, 49, 0
14, 12672, Note_off_c, 9, 57, 0
14, 12768, Note_on_c, 9, 57, 92
14, 12768, Note_on_c, 9, 49, 92
14, 13056, Note_off_c, 9, 49, 0
14, 13056, Note_off_c, 9, 57, 0
14, 13152, Note_on_c, 9, 49, 92
14, 13248, Note_off_c, 9, 49, 0
14, 13344, Note_on_c, 9, 49, 92
14, 13440, Note_off_c, 9, 49, 0
14, 13536, Note_on_c, 9, 49, 92
14, 13632, Note_off_c, 9, 49, 0
14, 13728, Note_on_c, 9, 49, 92
14, 13824, Note_off_c, 9, 49, 0
14, 13920, Note_on_c, 9, 49, 92
14, 14208, Note_off_c, 9, 49, 0
14, 14208, Note_on_c, 9, 49, 92
14, 14400, Note_off_c, 9, 49, 0
14, 14400, Note_on_c, 9, 49, 92
14, 14592, Note_off_c, 9, 49, 0
14, 14592, Note_on_c, 9, 49, 92
14, 14784, Note_off_c, 9, 49, 0
14, 14784, Note_on_c, 9, 49, 92
14, 14976, Note_off_c, 9, 49, 0
14, 14976, Note_on_c, 9, 57, 92
14, 14976, Note_on_c, 9, 49, 92
14, 15264, Note_off_c, 9, 49, 0
14, 15264, Note_off_c, 9, 57, 0
14, 15312, Note_on_c, 9, 57, 92
14, 15312, Note_on_c, 9, 49, 92
14, 15360, Note_off_c, 9, 57, 0
14, 15360, Note_off_c, 9, 49, 0
14, 15456, Note_on_c, 9, 49, 92
14, 15456, Note_on_c, 9, 57, 92
14, 15744, Note_off_c, 9, 49, 0
14, 15744, Note_off_c, 9, 57, 0
14, 15744, Note_on_c, 9, 49, 92
14, 15936, Note_off_c, 9, 49, 0
14, 16032, Note_on_c, 9, 49, 92
14, 16128, Note_off_c, 9, 49, 0
14, 16224, Note_on_c, 9, 49, 92
14, 16320, Note_off_c, 9, 49, 0
14, 16416, Note_on_c, 9, 49, 92
14, 16512, Note_off_c, 9, 49, 0
14, 16608, Note_on_c, 9, 49, 92
14, 16704, Note_off_c, 9, 49, 0
14, 16800, Note_on_c, 9, 49, 92
14, 16896, Note_off_c, 9, 49, 0
14, 16992, Note_on_c, 9, 49, 92
14, 17088, Note_off_c, 9, 49, 0
14, 17280, Note_on_c, 9, 57, 92
14, 17472, Note_off_c, 9, 57, 0
14, 17472, Note_on_c, 9, 49, 92
14, 17664, Note_off_c, 9, 49, 0
14, 17664, Note_on_c, 9, 57, 92
14, 17760, Note_off_c, 9, 57, 0
14, 17760, Note_on_c, 9, 49, 92
14, 17856, Note_off_c, 9, 49, 0
14, 17856, Note_on_c, 9, 57, 92
14, 17952, Note_off_c, 9, 57, 0
14, 17952, Note_on_c, 9, 49, 92
14, 18048, Note_off_c, 9, 49, 0
14, 18048, Note_on_c, 9, 49, 92
14, 18144, Note_off_c, 9, 49, 0
14, 18384, Note_on_c, 9, 49, 92
14, 18384, Note_on_c, 9, 57, 92
14, 18432, Note_off_c, 9, 57, 0
14, 18432, Note_off_c, 9, 49, 0
14, 18768, Note_on_c, 9, 49, 92
14, 18768, Note_on_c, 9, 57, 92
14, 18816, Note_off_c, 9, 57, 0
14, 18816, Note_off_c, 9, 49, 0
14, 19152, Note_on_c, 9, 57, 92
14, 19152, Note_on_c, 9, 49, 92
14, 19200, Note_off_c, 9, 49, 0
14, 19200, Note_off_c, 9, 57, 0
14, 19536, Note_on_c, 9, 49, 92
14, 19536, Note_on_c, 9, 57, 92
14, 19584, Note_off_c, 9, 57, 0
14, 19584, Note_off_c, 9, 49, 0
14, 20352, Note_on_c, 9, 49, 92
14, 20352, Note_on_c, 9, 57, 92
14, 20400, Note_off_c, 9, 57, 0
14, 20400, Note_off_c, 9, 49, 0
14, 20448, Note_on_c, 9, 57, 92
14, 20448, Note_on_c, 9, 49, 92
14, 20496, Note_off_c, 9, 49, 0
14, 20496, Note_off_c, 9, 57, 0
14, 20736, Control_c, 9, 101, 0
14, 20736, Control_c, 9, 100, 0
14, 20736, Control_c, 9, 6, 12
14, 20736, Control_c, 9, 10, 64
14, 20736, Control_c, 9, 7, 100
14, 20736, Pitch_bend_c, 9, 8192
14, 20736, Program_c, 9, 0
14, 20736, Control_c, 9, 101, 0
14, 20736, Control_c, 9, 100, 0
14, 20736, Control_c, 9, 6, 12
14, 20736, Control_c, 9, 10, 64
14, 20736, Control_c, 9, 7, 100
14, 20736, Pitch_bend_c, 9, 8192
14, 20736, Program_c, 9, 0
14, 20736, Control_c, 9, 101, 0
14, 20736, Control_c, 9, 100, 0
14, 20736, Control_c, 9, 6, 12
14, 20736, Control_c, 9, 10, 64
14, 20736, Control_c, 9, 7, 100
14, 20736, Pitch_bend_c, 9, 8192
14, 20736, Program_c, 9, 0
14, 20736, End_track
15, 0, Start_track
15, 0, Control_c, 9, 10, 64
15, 0, Control_c, 9, 7, 100
15, 0, Pitch_bend_c, 9, 8192
15, 0, Control_c, 9, 101, 0
15, 0, Control_c, 9, 100, 0
15, 0, Control_c, 9, 6, 12
15, 0, Control_c, 9, 10, 64
15, 0, Control_c, 9, 7, 100
15, 0, Pitch_bend_c, 9, 8192
15, 0, Program_c, 9, 0
15, 0, Control_c, 9, 101, 0
15, 0, Control_c, 9, 100, 0
15, 0, Control_c, 9, 6, 12
15, 0, Control_c, 9, 10, 64
15, 0, Control_c, 9, 7, 100
15, 0, Pitch_bend_c, 9, 8192
15, 0, Program_c, 9, 0
15, 0, Note_on_c, 9, 40, 127
15, 95, Note_off_c, 9, 40, 0
15, 576, Note_on_c, 9, 38, 104
15, 623, Note_off_c, 9, 38, 0
15, 624, Note_on_c, 9, 38, 80
15, 647, Note_off_c, 9, 38, 0
15, 648, Note_on_c, 9, 38, 80
15, 671, Note_off_c, 9, 38, 0
15, 672, Note_on_c, 9, 38, 80
15, 695, Note_off_c, 9, 38, 0
15, 696, Note_on_c, 9, 38, 80
15, 719, Note_off_c, 9, 38, 0
15, 720, Note_on_c, 9, 38, 80
15, 743, Note_off_c, 9, 38, 0
15, 744, Note_on_c, 9, 38, 80
15, 767, Note_off_c, 9, 38, 0
15, 768, Note_on_c, 9, 40, 127
15, 863, Note_off_c, 9, 40, 0
15, 1344, Note_on_c, 9, 40, 127
15, 1391, Note_off_c, 9, 40, 0
15, 1392, Note_on_c, 9, 38, 104
15, 1415, Note_off_c, 9, 38, 0
15, 1416, Note_on_c, 9, 38, 104
15, 1439, Note_off_c, 9, 38, 0
15, 1440, Note_on_c, 9, 38, 104
15, 1463, Note_off_c, 9, 38, 0
15, 1464, Note_on_c, 9, 38, 104
15, 1487, Note_off_c, 9, 38, 0
15, 1488, Note_on_c, 9, 38, 104
15, 1511, Note_off_c, 9, 38, 0
15, 1512, Note_on_c, 9, 38, 104
15, 1535, Note_off_c, 9, 38, 0
15, 1536, Note_on_c, 9, 42, 80
15, 1559, Note_off_c, 9, 42, 0
15, 1560, Note_on_c, 9, 42, 104
15, 1583, Note_off_c, 9, 42, 0
15, 1584, Note_on_c, 9, 42, 80
15, 1631, Note_off_c, 9, 42, 0
15, 1632, Note_on_c, 9, 42, 104
15, 1679, Note_off_c, 9, 42, 0
15, 1680, Note_on_c, 9, 42, 80
15, 1703, Note_off_c, 9, 42, 0
15, 1704, Note_on_c, 9, 42, 104
15, 1727, Note_off_c, 9, 42, 0
15, 1728, Note_on_c, 9, 42, 80
15, 1751, Note_off_c, 9, 42, 0
15, 1752, Note_on_c, 9, 42, 104
15, 1775, Note_off_c, 9, 42, 0
15, 1776, Note_on_c, 9, 42, 104
15, 1823, Note_off_c, 9, 42, 0
15, 1824, Note_on_c, 9, 42, 104
15, 1847, Note_off_c, 9, 42, 0
15, 1848, Note_on_c, 9, 42, 80
15, 1871, Note_off_c, 9, 42, 0
15, 1872, Note_on_c, 9, 42, 80
15, 1895, Note_off_c, 9, 42, 0
15, 1896, Note_on_c, 9, 46, 104
15, 1919, Note_off_c, 9, 46, 0
15, 1920, Note_on_c, 9, 42, 80
15, 1943, Note_off_c, 9, 42, 0
15, 1944, Note_on_c, 9, 42, 104
15, 1967, Note_off_c, 9, 42, 0
15, 1968, Note_on_c, 9, 42, 80
15, 2015, Note_off_c, 9, 42, 0
15, 2016, Note_on_c, 9, 42, 104
15, 2063, Note_off_c, 9, 42, 0
15, 2064, Note_on_c, 9, 42, 80
15, 2087, Note_off_c, 9, 42, 0
15, 2088, Note_on_c, 9, 42, 104
15, 2111, Note_off_c, 9, 42, 0
15, 2112, Note_on_c, 9, 42, 80
15, 2135, Note_off_c, 9, 42, 0
15, 2136, Note_on_c, 9, 42, 104
15, 2159, Note_off_c, 9, 42, 0
15, 2160, Note_on_c, 9, 42, 104
15, 2207, Note_off_c, 9, 42, 0
15, 2208, Note_on_c, 9, 42, 104
15, 2231, Note_off_c, 9, 42, 0
15, 2232, Note_on_c, 9, 42, 80
15, 2255, Note_off_c, 9, 42, 0
15, 2256, Note_on_c, 9, 42, 80
15, 2279, Note_off_c, 9, 42, 0
15, 2280, Note_on_c, 9, 46, 104
15, 2303, Note_off_c, 9, 46, 0
15, 2304, Note_on_c, 9, 42, 80
15, 2327, Note_off_c, 9, 42, 0
15, 2328, Note_on_c, 9, 42, 104
15, 2351, Note_off_c, 9, 42, 0
15, 2352, Note_on_c, 9, 42, 80
15, 2399, Note_off_c, 9, 42, 0
15, 2400, Note_on_c, 9, 42, 104
15, 2447, Note_off_c, 9, 42, 0
15, 2448, Note_on_c, 9, 42, 80
15, 2471, Note_off_c, 9, 42, 0
15, 2472, Note_on_c, 9, 42, 104
15, 2495, Note_off_c, 9, 42, 0
15, 2496, Note_on_c, 9, 42, 80
15, 2519, Note_off_c, 9, 42, 0
15, 2520, Note_on_c, 9, 42, 104
15, 2543, Note_off_c, 9, 42, 0
15, 2544, Note_on_c, 9, 42, 104
15, 2591, Note_off_c, 9, 42, 0
15, 2592, Note_on_c, 9, 42, 104
15, 2615, Note_off_c, 9, 42, 0
15, 2616, Note_on_c, 9, 42, 80
15, 2639, Note_off_c, 9, 42, 0
15, 2640, Note_on_c, 9, 42, 80
15, 2663, Note_off_c, 9, 42, 0
15, 2664, Note_on_c, 9, 46, 104
15, 2687, Note_off_c, 9, 46, 0
15, 2688, Note_on_c, 9, 42, 80
15, 2711, Note_off_c, 9, 42, 0
15, 2712, Note_on_c, 9, 42, 104
15, 2735, Note_off_c, 9, 42, 0
15, 2736, Note_on_c, 9, 42, 80
15, 2783, Note_off_c, 9, 42, 0
15, 2784, Note_on_c, 9, 42, 104
15, 2831, Note_off_c, 9, 42, 0
15, 2832, Note_on_c, 9, 42, 80
15, 2855, Note_off_c, 9, 42, 0
15, 2856, Note_on_c, 9, 42, 104
15, 2879, Note_off_c, 9, 42, 0
15, 2880, Note_on_c, 9, 42, 80
15, 2903, Note_off_c, 9, 42, 0
15, 2904, Note_on_c, 9, 42, 104
15, 2927, Note_off_c, 9, 42, 0
15, 2928, Note_on_c, 9, 42, 104
15, 2975, Note_off_c, 9, 42, 0
15, 2976, Note_on_c, 9, 42, 104
15, 2999, Note_off_c, 9, 42, 0
15, 3000, Note_on_c, 9, 42, 80
15, 3023, Note_off_c, 9, 42, 0
15, 3024, Note_on_c, 9, 42, 80
15, 3047, Note_off_c, 9, 42, 0
15, 3048, Note_on_c, 9, 46, 104
15, 3071, Note_off_c, 9, 46, 0
15, 3072, Note_on_c, 9, 42, 80
15, 3095, Note_off_c, 9, 42, 0
15, 3096, Note_on_c, 9, 42, 104
15, 3119, Note_off_c, 9, 42, 0
15, 3120, Note_on_c, 9, 42, 80
15, 3167, Note_off_c, 9, 42, 0
15, 3168, Note_on_c, 9, 42, 104
15, 3215, Note_off_c, 9, 42, 0
15, 3216, Note_on_c, 9, 42, 80
15, 3239, Note_off_c, 9, 42, 0
15, 3240, Note_on_c, 9, 42, 104
15, 3263, Note_off_c, 9, 42, 0
15, 3264, Note_on_c, 9, 42, 80
15, 3287, Note_off_c, 9, 42, 0
15, 3288, Note_on_c, 9, 42, 104
15, 3311, Note_off_c, 9, 42, 0
15, 3312, Note_on_c, 9, 42, 104
15, 3359, Note_off_c, 9, 42, 0
15, 3360, Note_on_c, 9, 42, 104
15, 3383, Note_off_c, 9, 42, 0
15, 3384, Note_on_c, 9, 42, 80
15, 3407, Note_off_c, 9, 42, 0
15, 3408, Note_on_c, 9, 42, 80
15, 3431, Note_off_c, 9, 42, 0
15, 3432, Note_on_c, 9, 46, 104
15, 3455, Note_off_c, 9, 46, 0
15, 3456, Note_on_c, 9, 42, 80
15, 3479, Note_off_c, 9, 42, 0
15, 3480, Note_on_c, 9, 42, 104
15, 3503, Note_off_c, 9, 42, 0
15, 3504, Note_on_c, 9, 42, 80
15, 3551, Note_off_c, 9, 42, 0
15, 3552, Note_on_c, 9, 42, 104
15, 3599, Note_off_c, 9, 42, 0
15, 3600, Note_on_c, 9, 42, 80
15, 3623, Note_off_c, 9, 42, 0
15, 3624, Note_on_c, 9, 42, 104
15, 3647, Note_off_c, 9, 42, 0
15, 3648, Note_on_c, 9, 42, 80
15, 3671, Note_off_c, 9, 42, 0
15, 3672, Note_on_c, 9, 42, 104
15, 3695, Note_off_c, 9, 42, 0
15, 3696, Note_on_c, 9, 42, 104
15, 3743, Note_off_c, 9, 42, 0
15, 3744, Note_on_c, 9, 42, 104
15, 3767, Note_off_c, 9, 42, 0
15, 3768, Note_on_c, 9, 42, 80
15, 3791, Note_off_c, 9, 42, 0
15, 3792, Note_on_c, 9, 42, 80
15, 3815, Note_off_c, 9, 42, 0
15, 3816, Note_on_c, 9, 46, 104
15, 3839, Note_off_c, 9, 46, 0
15, 3840, Note_on_c, 9, 42, 80
15, 3863, Note_off_c, 9, 42, 0
15, 3864, Note_on_c, 9, 42, 104
15, 3887, Note_off_c, 9, 42, 0
15, 3888, Note_on_c, 9, 42, 80
15, 3935, Note_off_c, 9, 42, 0
15, 3936, Note_on_c, 9, 42, 104
15, 3983, Note_off_c, 9, 42, 0
15, 3984, Note_on_c, 9, 42, 80
15, 4007, Note_off_c, 9, 42, 0
15, 4008, Note_on_c, 9, 42, 104
15, 4031, Note_off_c, 9, 42, 0
15, 4032, Note_on_c, 9, 42, 80
15, 4055, Note_off_c, 9, 42, 0
15, 4056, Note_on_c, 9, 42, 104
15, 4079, Note_off_c, 9, 42, 0
15, 4080, Note_on_c, 9, 42, 104
15, 4127, Note_off_c, 9, 42, 0
15, 4128, Note_on_c, 9, 42, 104
15, 4151, Note_off_c, 9, 42, 0
15, 4152, Note_on_c, 9, 42, 80
15, 4175, Note_off_c, 9, 42, 0
15, 4176, Note_on_c, 9, 42, 80
15, 4199, Note_off_c, 9, 42, 0
15, 4200, Note_on_c, 9, 42, 80
15, 4223, Note_off_c, 9, 42, 0
15, 4224, Note_on_c, 9, 40, 127
15, 4319, Note_off_c, 9, 40, 0
15, 4320, Note_on_c, 9, 40, 127
15, 4415, Note_off_c, 9, 40, 0
15, 4416, Note_on_c, 9, 40, 127
15, 4511, Note_off_c, 9, 40, 0
15, 4512, Note_on_c, 9, 38, 104
15, 4535, Note_off_c, 9, 38, 0
15, 4536, Note_on_c, 9, 38, 104
15, 4559, Note_off_c, 9, 38, 0
15, 4560, Note_on_c, 9, 38, 104
15, 4583, Note_off_c, 9, 38, 0
15, 4584, Note_on_c, 9, 38, 104
15, 4607, Note_off_c, 9, 38, 0
15, 4608, Note_on_c, 9, 51, 104
15, 4655, Note_off_c, 9, 51, 0
15, 4656, Note_on_c, 9, 51, 80
15, 4703, Note_off_c, 9, 51, 0
15, 4704, Note_on_c, 9, 38, 104
15, 4704, Note_on_c, 9, 51, 104
15, 4751, Note_off_c, 9, 51, 0
15, 4752, Note_on_c, 9, 51, 80
15, 4799, Note_off_c, 9, 38, 0
15, 4799, Note_off_c, 9, 51, 0
15, 4800, Note_on_c, 9, 51, 104
15, 4847, Note_off_c, 9, 51, 0
15, 4848, Note_on_c, 9, 51, 80
15, 4895, Note_off_c, 9, 51, 0
15, 4896, Note_on_c, 9, 51, 104
15, 4896, Note_on_c, 9, 38, 104
15, 4943, Note_off_c, 9, 51, 0
15, 4944, Note_on_c, 9, 51, 80
15, 4991, Note_off_c, 9, 38, 0
15, 4991, Note_off_c, 9, 51, 0
15, 4992, Note_on_c, 9, 51, 104
15, 5039, Note_off_c, 9, 51, 0
15, 5040, Note_on_c, 9, 51, 80
15, 5087, Note_off_c, 9, 51, 0
15, 5088, Note_on_c, 9, 51, 104
15, 5088, Note_on_c, 9, 38, 104
15, 5135, Note_off_c, 9, 51, 0
15, 5136, Note_on_c, 9, 51, 80
15, 5183, Note_off_c, 9, 38, 0
15, 5183, Note_off_c, 9, 51, 0
15, 5184, Note_on_c, 9, 51, 104
15, 5231, Note_off_c, 9, 51, 0
15, 5232, Note_on_c, 9, 51, 80
15, 5279, Note_off_c, 9, 51, 0
15, 5280, Note_on_c, 9, 51, 104
15, 5280, Note_on_c, 9, 38, 104
15, 5327, Note_off_c, 9, 51, 0
15, 5328, Note_on_c, 9, 51, 80
15, 5375, Note_off_c, 9, 38, 0
15, 5375, Note_off_c, 9, 51, 0
15, 5376, Note_on_c, 9, 51, 104
15, 5423, Note_off_c, 9, 51, 0
15, 5424, Note_on_c, 9, 51, 80
15, 5471, Note_off_c, 9, 51, 0
15, 5472, Note_on_c, 9, 38, 104
15, 5472, Note_on_c, 9, 51, 104
15, 5519, Note_off_c, 9, 51, 0
15, 5520, Note_on_c, 9, 51, 80
15, 5567, Note_off_c, 9, 38, 0
15, 5567, Note_off_c, 9, 51, 0
15, 5568, Note_on_c, 9, 51, 104
15, 5615, Note_off_c, 9, 51, 0
15, 5616, Note_on_c, 9, 51, 80
15, 5663, Note_off_c, 9, 51, 0
15, 5664, Note_on_c, 9, 51, 104
15, 5664, Note_on_c, 9, 38, 104
15, 5711, Note_off_c, 9, 51, 0
15, 5712, Note_on_c, 9, 51, 80
15, 5759, Note_off_c, 9, 38, 0
15, 5759, Note_off_c, 9, 51, 0
15, 5760, Note_on_c, 9, 51, 104
15, 5807, Note_off_c, 9, 51, 0
15, 5808, Note_on_c, 9, 51, 80
15, 5855, Note_off_c, 9, 51, 0
15, 5856, Note_on_c, 9, 51, 104
15, 5856, Note_on_c, 9, 38, 104
15, 5903, Note_off_c, 9, 51, 0
15, 5904, Note_on_c, 9, 51, 80
15, 5951, Note_off_c, 9, 38, 0
15, 5951, Note_off_c, 9, 51, 0
15, 5952, Note_on_c, 9, 51, 80
15, 5952, Note_on_c, 9, 38, 80
15, 5999, Note_off_c, 9, 51, 0
15, 5999, Note_off_c, 9, 38, 0
15, 6000, Note_on_c, 9, 38, 80
15, 6023, Note_off_c, 9, 38, 0
15, 6024, Note_on_c, 9, 38, 80
15, 6047, Note_off_c, 9, 38, 0
15, 6048, Note_on_c, 9, 38, 80
15, 6095, Note_off_c, 9, 38, 0
15, 6096, Note_on_c, 9, 38, 80
15, 6143, Note_off_c, 9, 38, 0
15, 6144, Note_on_c, 9, 46, 104
15, 6144, Note_on_c, 9, 38, 104
15, 6191, Note_off_c, 9, 46, 0
15, 6191, Note_off_c, 9, 38, 0
15, 6192, Note_on_c, 9, 46, 80
15, 6192, Note_on_c, 9, 38, 80
15, 6239, Note_off_c, 9, 46, 0
15, 6239, Note_off_c, 9, 38, 0
15, 6240, Note_on_c, 9, 46, 80
15, 6240, Note_on_c, 9, 38, 80
15, 6287, Note_off_c, 9, 46, 0
15, 6287, Note_off_c, 9, 38, 0
15, 6288, Note_on_c, 9, 46, 104
15, 6288, Note_on_c, 9, 38, 104
15, 6335, Note_off_c, 9, 38, 0
15, 6335, Note_off_c, 9, 46, 0
15, 6336, Note_on_c, 9, 46, 80
15, 6336, Note_on_c, 9, 38, 80
15, 6383, Note_off_c, 9, 38, 0
15, 6383, Note_off_c, 9, 46, 0
15, 6384, Note_on_c, 9, 46, 80
15, 6384, Note_on_c, 9, 38, 80
15, 6431, Note_off_c, 9, 46, 0
15, 6431, Note_off_c, 9, 38, 0
15, 6432, Note_on_c, 9, 46, 104
15, 6432, Note_on_c, 9, 38, 104
15, 6479, Note_off_c, 9, 46, 0
15, 6479, Note_off_c, 9, 38, 0
15, 6480, Note_on_c, 9, 46, 80
15, 6480, Note_on_c, 9, 38, 80
15, 6527, Note_off_c, 9, 38, 0
15, 6527, Note_off_c, 9, 46, 0
15, 6528, Note_on_c, 9, 46, 80
15, 6528, Note_on_c, 9, 38, 80
15, 6575, Note_off_c, 9, 38, 0
15, 6575, Note_off_c, 9, 46, 0
15, 6576, Note_on_c, 9, 46, 104
15, 6576, Note_on_c, 9, 38, 104
15, 6623, Note_off_c, 9, 46, 0
15, 6623, Note_off_c, 9, 38, 0
15, 6624, Note_on_c, 9, 46, 80
15, 6624, Note_on_c, 9, 38, 80
15, 6671, Note_off_c, 9, 46, 0
15, 6671, Note_off_c, 9, 38, 0
15, 6672, Note_on_c, 9, 46, 80
15, 6672, Note_on_c, 9, 38, 80
15, 6719, Note_off_c, 9, 38, 0
15, 6719, Note_off_c, 9, 46, 0
15, 6720, Note_on_c, 9, 46, 104
15, 6720, Note_on_c, 9, 38, 104
15, 6767, Note_off_c, 9, 38, 0
15, 6767, Note_off_c, 9, 46, 0
15, 6768, Note_on_c, 9, 46, 80
15, 6768, Note_on_c, 9, 38, 80
15, 6815, Note_off_c, 9, 46, 0
15, 6815, Note_off_c, 9, 38, 0
15, 6816, Note_on_c, 9, 46, 104
15, 6816, Note_on_c, 9, 38, 104
15, 6863, Note_off_c, 9, 38, 0
15, 6863, Note_off_c, 9, 46, 0
15, 6864, Note_on_c, 9, 38, 80
15, 6864, Note_on_c, 9, 46, 80
15, 6911, Note_off_c, 9, 46, 0
15, 6911, Note_off_c, 9, 38, 0
15, 6912, Note_on_c, 9, 38, 104
15, 6935, Note_off_c, 9, 38, 0
15, 6936, Note_on_c, 9, 38, 80
15, 6959, Note_off_c, 9, 38, 0
15, 6960, Note_on_c, 9, 38, 80
15, 6983, Note_off_c, 9, 38, 0
15, 6984, Note_on_c, 9, 38, 80
15, 7007, Note_off_c, 9, 38, 0
15, 7008, Note_on_c, 9, 38, 104
15, 7031, Note_off_c, 9, 38, 0
15, 7032, Note_on_c, 9, 38, 80
15, 7055, Note_off_c, 9, 38, 0
15, 7056, Note_on_c, 9, 38, 80
15, 7079, Note_off_c, 9, 38, 0
15, 7080, Note_on_c, 9, 38, 80
15, 7103, Note_off_c, 9, 38, 0
15, 7104, Note_on_c, 9, 40, 127
15, 7127, Note_off_c, 9, 40, 0
15, 7128, Note_on_c, 9, 38, 80
15, 7151, Note_off_c, 9, 38, 0
15, 7152, Note_on_c, 9, 38, 80
15, 7175, Note_off_c, 9, 38, 0
15, 7176, Note_on_c, 9, 38, 80
15, 7199, Note_off_c, 9, 38, 0
15, 7200, Note_on_c, 9, 38, 104
15, 7223, Note_off_c, 9, 38, 0
15, 7224, Note_on_c, 9, 38, 80
15, 7247, Note_off_c, 9, 38, 0
15, 7248, Note_on_c, 9, 38, 80
15, 7271, Note_off_c, 9, 38, 0
15, 7272, Note_on_c, 9, 38, 80
15, 7295, Note_off_c, 9, 38, 0
15, 7296, Note_on_c, 9, 40, 127
15, 7391, Note_off_c, 9, 40, 0
15, 7392, Note_on_c, 9, 40, 127
15, 7487, Note_off_c, 9, 40, 0
15, 7488, Note_on_c, 9, 38, 80
15, 7511, Note_off_c, 9, 38, 0
15, 7512, Note_on_c, 9, 38, 80
15, 7535, Note_off_c, 9, 38, 0
15, 7536, Note_on_c, 9, 38, 80
15, 7559, Note_off_c, 9, 38, 0
15, 7560, Note_on_c, 9, 38, 80
15, 7583, Note_off_c, 9, 38, 0
15, 7584, Note_on_c, 9, 40, 127
15, 7607, Note_off_c, 9, 40, 0
15, 7608, Note_on_c, 9, 38, 80
15, 7631, Note_off_c, 9, 38, 0
15, 7632, Note_on_c, 9, 38, 80
15, 7655, Note_off_c, 9, 38, 0
15, 7656, Note_on_c, 9, 38, 80
15, 7679, Note_off_c, 9, 38, 0
15, 7776, Note_on_c, 9, 38, 127
15, 7779, Note_off_c, 9, 38, 0
15, 7779, Note_on_c, 9, 40, 127
15, 7871, Note_off_c, 9, 40, 0
15, 7968, Note_on_c, 9, 38, 127
15, 7971, Note_off_c, 9, 38, 0
15, 7971, Note_on_c, 9, 40, 127
15, 8063, Note_off_c, 9, 40, 0
15, 8160, Note_on_c, 9, 38, 127
15, 8163, Note_off_c, 9, 38, 0
15, 8163, Note_on_c, 9, 40, 127
15, 8255, Note_off_c, 9, 40, 0
15, 8304, Note_on_c, 9, 38, 104
15, 8351, Note_off_c, 9, 38, 0
15, 8352, Note_on_c, 9, 38, 104
15, 8375, Note_off_c, 9, 38, 0
15, 8376, Note_on_c, 9, 38, 104
15, 8399, Note_off_c, 9, 38, 0
15, 8400, Note_on_c, 9, 38, 104
15, 8423, Note_off_c, 9, 38, 0
15, 8424, Note_on_c, 9, 38, 104
15, 8447, Note_off_c, 9, 38, 0
15, 8544, Note_on_c, 9, 38, 127
15, 8547, Note_off_c, 9, 38, 0
15, 8547, Note_on_c, 9, 40, 127
15, 8639, Note_off_c, 9, 40, 0
15, 8736, Note_on_c, 9, 38, 127
15, 8739, Note_off_c, 9, 38, 0
15, 8739, Note_on_c, 9, 40, 127
15, 8831, Note_off_c, 9, 40, 0
15, 8928, Note_on_c, 9, 38, 127
15, 8931, Note_off_c, 9, 38, 0
15, 8931, Note_on_c, 9, 40, 127
15, 9023, Note_off_c, 9, 40, 0
15, 9072, Note_on_c, 9, 38, 104
15, 9119, Note_off_c, 9, 38, 0
15, 9120, Note_on_c, 9, 38, 104
15, 9143, Note_off_c, 9, 38, 0
15, 9144, Note_on_c, 9, 38, 104
15, 9167, Note_off_c, 9, 38, 0
15, 9168, Note_on_c, 9, 38, 104
15, 9191, Note_off_c, 9, 38, 0
15, 9192, Note_on_c, 9, 38, 104
15, 9215, Note_off_c, 9, 38, 0
15, 9312, Note_on_c, 9, 38, 127
15, 9315, Note_off_c, 9, 38, 0
15, 9315, Note_on_c, 9, 40, 127
15, 9407, Note_off_c, 9, 40, 0
15, 9504, Note_on_c, 9, 38, 127
15, 9507, Note_off_c, 9, 38, 0
15, 9507, Note_on_c, 9, 40, 127
15, 9599, Note_off_c, 9, 40, 0
15, 9696, Note_on_c, 9, 38, 127
15, 9699, Note_off_c, 9, 38, 0
15, 9699, Note_on_c, 9, 40, 127
15, 9791, Note_off_c, 9, 40, 0
15, 9840, Note_on_c, 9, 38, 104
15, 9887, Note_off_c, 9, 38, 0
15, 9888, Note_on_c, 9, 38, 104
15, 9911, Note_off_c, 9, 38, 0
15, 9912, Note_on_c, 9, 38, 104
15, 9935, Note_off_c, 9, 38, 0
15, 9936, Note_on_c, 9, 38, 104
15, 9959, Note_off_c, 9, 38, 0
15, 9960, Note_on_c, 9, 38, 104
15, 9983, Note_off_c, 9, 38, 0
15, 10080, Note_on_c, 9, 38, 127
15, 10083, Note_off_c, 9, 38, 0
15, 10083, Note_on_c, 9, 40, 127
15, 10175, Note_off_c, 9, 40, 0
15, 10272, Note_on_c, 9, 38, 127
15, 10275, Note_off_c, 9, 38, 0
15, 10275, Note_on_c, 9, 40, 127
15, 10367, Note_off_c, 9, 40, 0
15, 10368, Note_on_c, 9, 40, 127
15, 10391, Note_off_c, 9, 40, 0
15, 10392, Note_on_c, 9, 38, 80
15, 10415, Note_off_c, 9, 38, 0
15, 10416, Note_on_c, 9, 38, 80
15, 10439, Note_off_c, 9, 38, 0
15, 10440, Note_on_c, 9, 38, 80
15, 10463, Note_off_c, 9, 38, 0
15, 10464, Note_on_c, 9, 38, 80
15, 10487, Note_off_c, 9, 38, 0
15, 10488, Note_on_c, 9, 38, 80
15, 10511, Note_off_c, 9, 38, 0
15, 10512, Note_on_c, 9, 40, 127
15, 10535, Note_off_c, 9, 40, 0
15, 10536, Note_on_c, 9, 38, 80
15, 10559, Note_off_c, 9, 38, 0
15, 10560, Note_on_c, 9, 38, 80
15, 10583, Note_off_c, 9, 38, 0
15, 10584, Note_on_c, 9, 38, 80
15, 10607, Note_off_c, 9, 38, 0
15, 10608, Note_on_c, 9, 38, 80
15, 10631, Note_off_c, 9, 38, 0
15, 10632, Note_on_c, 9, 38, 80
15, 10655, Note_off_c, 9, 38, 0
15, 10656, Note_on_c, 9, 38, 104
15, 10703, Note_off_c, 9, 38, 0
15, 10704, Note_on_c, 9, 38, 104
15, 10751, Note_off_c, 9, 38, 0
15, 10752, Note_on_c, 9, 42, 104
15, 10799, Note_off_c, 9, 42, 0
15, 10800, Note_on_c, 9, 42, 80
15, 10823, Note_off_c, 9, 42, 0
15, 10824, Note_on_c, 9, 42, 80
15, 10847, Note_off_c, 9, 42, 0
15, 10848, Note_on_c, 9, 42, 104
15, 10895, Note_off_c, 9, 42, 0
15, 10896, Note_on_c, 9, 42, 80
15, 10919, Note_off_c, 9, 42, 0
15, 10920, Note_on_c, 9, 42, 80
15, 10943, Note_off_c, 9, 42, 0
15, 10944, Note_on_c, 9, 42, 104
15, 10991, Note_off_c, 9, 42, 0
15, 10992, Note_on_c, 9, 42, 80
15, 11015, Note_off_c, 9, 42, 0
15, 11016, Note_on_c, 9, 42, 80
15, 11039, Note_off_c, 9, 42, 0
15, 11040, Note_on_c, 9, 42, 104
15, 11087, Note_off_c, 9, 42, 0
15, 11088, Note_on_c, 9, 42, 80
15, 11111, Note_off_c, 9, 42, 0
15, 11112, Note_on_c, 9, 42, 80
15, 11135, Note_off_c, 9, 42, 0
15, 11136, Note_on_c, 9, 42, 104
15, 11183, Note_off_c, 9, 42, 0
15, 11184, Note_on_c, 9, 42, 80
15, 11207, Note_off_c, 9, 42, 0
15, 11208, Note_on_c, 9, 42, 80
15, 11231, Note_off_c, 9, 42, 0
15, 11232, Note_on_c, 9, 42, 104
15, 11279, Note_off_c, 9, 42, 0
15, 11280, Note_on_c, 9, 42, 80
15, 11303, Note_off_c, 9, 42, 0
15, 11304, Note_on_c, 9, 42, 80
15, 11327, Note_off_c, 9, 42, 0
15, 11328, Note_on_c, 9, 38, 104
15, 11375, Note_off_c, 9, 38, 0
15, 11376, Note_on_c, 9, 38, 104
15, 11423, Note_off_c, 9, 38, 0
15, 11424, Note_on_c, 9, 38, 104
15, 11447, Note_off_c, 9, 38, 0
15, 11448, Note_on_c, 9, 38, 80
15, 11471, Note_off_c, 9, 38, 0
15, 11472, Note_on_c, 9, 38, 80
15, 11495, Note_off_c, 9, 38, 0
15, 11496, Note_on_c, 9, 38, 80
15, 11519, Note_off_c, 9, 38, 0
15, 11520, Note_on_c, 9, 40, 127
15, 11567, Note_off_c, 9, 40, 0
15, 11568, Note_on_c, 9, 38, 80
15, 11591, Note_off_c, 9, 38, 0
15, 11592, Note_on_c, 9, 38, 80
15, 11615, Note_off_c, 9, 38, 0
15, 11616, Note_on_c, 9, 38, 80
15, 11639, Note_off_c, 9, 38, 0
15, 11640, Note_on_c, 9, 38, 80
15, 11663, Note_off_c, 9, 38, 0
15, 11664, Note_on_c, 9, 38, 80
15, 11687, Note_off_c, 9, 38, 0
15, 11688, Note_on_c, 9, 38, 80
15, 11711, Note_off_c, 9, 38, 0
15, 11712, Note_on_c, 9, 40, 127
15, 11759, Note_off_c, 9, 40, 0
15, 11760, Note_on_c, 9, 38, 80
15, 11783, Note_off_c, 9, 38, 0
15, 11784, Note_on_c, 9, 38, 80
15, 11807, Note_off_c, 9, 38, 0
15, 11808, Note_on_c, 9, 38, 80
15, 11855, Note_off_c, 9, 38, 0
15, 11856, Note_on_c, 9, 40, 127
15, 11903, Note_off_c, 9, 40, 0
15, 11952, Note_on_c, 9, 38, 80
15, 11975, Note_off_c, 9, 38, 0
15, 11976, Note_on_c, 9, 38, 80
15, 11999, Note_off_c, 9, 38, 0
15, 12000, Note_on_c, 9, 38, 80
15, 12023, Note_off_c, 9, 38, 0
15, 12024, Note_on_c, 9, 38, 80
15, 12047, Note_off_c, 9, 38, 0
15, 12048, Note_on_c, 9, 38, 80
15, 12071, Note_off_c, 9, 38, 0
15, 12072, Note_on_c, 9, 38, 80
15, 12095, Note_off_c, 9, 38, 0
15, 12096, Note_on_c, 9, 40, 127
15, 12143, Note_off_c, 9, 40, 0
15, 12144, Note_on_c, 9, 38, 80
15, 12167, Note_off_c, 9, 38, 0
15, 12168, Note_on_c, 9, 38, 80
15, 12191, Note_off_c, 9, 38, 0
15, 12192, Note_on_c, 9, 38, 80
15, 12239, Note_off_c, 9, 38, 0
15, 12240, Note_on_c, 9, 40, 127
15, 12287, Note_off_c, 9, 40, 0
15, 12336, Note_on_c, 9, 38, 80
15, 12359, Note_off_c, 9, 38, 0
15, 12360, Note_on_c, 9, 38, 80
15, 12383, Note_off_c, 9, 38, 0
15, 12384, Note_on_c, 9, 38, 80
15, 12407, Note_off_c, 9, 38, 0
15, 12408, Note_on_c, 9, 38, 80
15, 12431, Note_off_c, 9, 38, 0
15, 12432, Note_on_c, 9, 38, 80
15, 12455, Note_off_c, 9, 38, 0
15, 12456, Note_on_c, 9, 38, 80
15, 12479, Note_off_c, 9, 38, 0
15, 12480, Note_on_c, 9, 40, 127
15, 12527, Note_off_c, 9, 40, 0
15, 12528, Note_on_c, 9, 40, 127
15, 12575, Note_off_c, 9, 40, 0
15, 12576, Note_on_c, 9, 40, 127
15, 12599, Note_off_c, 9, 40, 0
15, 12600, Note_on_c, 9, 38, 104
15, 12623, Note_off_c, 9, 38, 0
15, 12624, Note_on_c, 9, 38, 104
15, 12647, Note_off_c, 9, 38, 0
15, 12648, Note_on_c, 9, 38, 104
15, 12671, Note_off_c, 9, 38, 0
15, 12768, Note_on_c, 9, 51, 104
15, 12768, Note_on_c, 9, 38, 104
15, 12815, Note_off_c, 9, 51, 0
15, 12816, Note_on_c, 9, 51, 80
15, 12863, Note_off_c, 9, 38, 0
15, 12863, Note_off_c, 9, 51, 0
15, 12864, Note_on_c, 9, 51, 104
15, 12911, Note_off_c, 9, 51, 0
15, 12912, Note_on_c, 9, 51, 80
15, 12959, Note_off_c, 9, 51, 0
15, 12960, Note_on_c, 9, 51, 104
15, 12960, Note_on_c, 9, 38, 104
15, 13007, Note_off_c, 9, 51, 0
15, 13008, Note_on_c, 9, 51, 104
15, 13055, Note_off_c, 9, 38, 0
15, 13055, Note_off_c, 9, 51, 0
15, 13056, Note_on_c, 9, 51, 104
15, 13103, Note_off_c, 9, 51, 0
15, 13104, Note_on_c, 9, 51, 80
15, 13151, Note_off_c, 9, 51, 0
15, 13152, Note_on_c, 9, 51, 104
15, 13152, Note_on_c, 9, 38, 104
15, 13199, Note_off_c, 9, 51, 0
15, 13200, Note_on_c, 9, 51, 80
15, 13247, Note_off_c, 9, 38, 0
15, 13247, Note_off_c, 9, 51, 0
15, 13248, Note_on_c, 9, 51, 104
15, 13295, Note_off_c, 9, 51, 0
15, 13296, Note_on_c, 9, 51, 80
15, 13343, Note_off_c, 9, 51, 0
15, 13344, Note_on_c, 9, 51, 104
15, 13344, Note_on_c, 9, 38, 104
15, 13391, Note_off_c, 9, 51, 0
15, 13392, Note_on_c, 9, 51, 80
15, 13439, Note_off_c, 9, 38, 0
15, 13439, Note_off_c, 9, 51, 0
15, 13440, Note_on_c, 9, 51, 104
15, 13487, Note_off_c, 9, 51, 0
15, 13488, Note_on_c, 9, 51, 80
15, 13535, Note_off_c, 9, 51, 0
15, 13536, Note_on_c, 9, 38, 104
15, 13536, Note_on_c, 9, 51, 104
15, 13583, Note_off_c, 9, 51, 0
15, 13584, Note_on_c, 9, 51, 80
15, 13631, Note_off_c, 9, 38, 0
15, 13631, Note_off_c, 9, 51, 0
15, 13632, Note_on_c, 9, 51, 104
15, 13679, Note_off_c, 9, 51, 0
15, 13680, Note_on_c, 9, 51, 80
15, 13727, Note_off_c, 9, 51, 0
15, 13728, Note_on_c, 9, 51, 104
15, 13728, Note_on_c, 9, 38, 104
15, 13775, Note_off_c, 9, 51, 0
15, 13776, Note_on_c, 9, 51, 80
15, 13823, Note_off_c, 9, 38, 0
15, 13823, Note_off_c, 9, 51, 0
15, 13824, Note_on_c, 9, 51, 104
15, 13871, Note_off_c, 9, 51, 0
15, 13872, Note_on_c, 9, 51, 80
15, 13919, Note_off_c, 9, 51, 0
15, 13920, Note_on_c, 9, 51, 104
15, 13920, Note_on_c, 9, 38, 104
15, 13967, Note_off_c, 9, 51, 0
15, 13968, Note_on_c, 9, 51, 80
15, 14015, Note_off_c, 9, 38, 0
15, 14015, Note_off_c, 9, 51, 0
15, 14016, Note_on_c, 9, 51, 80
15, 14016, Note_on_c, 9, 38, 80
15, 14063, Note_off_c, 9, 51, 0
15, 14063, Note_off_c, 9, 38, 0
15, 14064, Note_on_c, 9, 38, 80
15, 14087, Note_off_c, 9, 38, 0
15, 14088, Note_on_c, 9, 38, 80
15, 14111, Note_off_c, 9, 38, 0
15, 14112, Note_on_c, 9, 38, 80
15, 14159, Note_off_c, 9, 38, 0
15, 14160, Note_on_c, 9, 38, 80
15, 14207, Note_off_c, 9, 38, 0
15, 14208, Note_on_c, 9, 46, 104
15, 14208, Note_on_c, 9, 38, 104
15, 14255, Note_off_c, 9, 38, 0
15, 14255, Note_off_c, 9, 46, 0
15, 14256, Note_on_c, 9, 46, 80
15, 14256, Note_on_c, 9, 38, 80
15, 14303, Note_off_c, 9, 46, 0
15, 14303, Note_off_c, 9, 38, 0
15, 14304, Note_on_c, 9, 46, 80
15, 14304, Note_on_c, 9, 38, 80
15, 14351, Note_off_c, 9, 46, 0
15, 14351, Note_off_c, 9, 38, 0
15, 14352, Note_on_c, 9, 46, 104
15, 14352, Note_on_c, 9, 38, 104
15, 14399, Note_off_c, 9, 38, 0
15, 14399, Note_off_c, 9, 46, 0
15, 14400, Note_on_c, 9, 46, 80
15, 14400, Note_on_c, 9, 38, 80
15, 14447, Note_off_c, 9, 38, 0
15, 14447, Note_off_c, 9, 46, 0
15, 14448, Note_on_c, 9, 46, 80
15, 14448, Note_on_c, 9, 38, 80
15, 14495, Note_off_c, 9, 46, 0
15, 14495, Note_off_c, 9, 38, 0
15, 14496, Note_on_c, 9, 46, 104
15, 14496, Note_on_c, 9, 38, 104
15, 14543, Note_off_c, 9, 46, 0
15, 14543, Note_off_c, 9, 38, 0
15, 14544, Note_on_c, 9, 46, 80
15, 14544, Note_on_c, 9, 38, 80
15, 14591, Note_off_c, 9, 38, 0
15, 14591, Note_off_c, 9, 46, 0
15, 14592, Note_on_c, 9, 46, 80
15, 14592, Note_on_c, 9, 38, 80
15, 14639, Note_off_c, 9, 38, 0
15, 14639, Note_off_c, 9, 46, 0
15, 14640, Note_on_c, 9, 46, 104
15, 14640, Note_on_c, 9, 38, 104
15, 14687, Note_off_c, 9, 46, 0
15, 14687, Note_off_c, 9, 38, 0
15, 14688, Note_on_c, 9, 46, 80
15, 14688, Note_on_c, 9, 38, 80
15, 14735, Note_off_c, 9, 46, 0
15, 14735, Note_off_c, 9, 38, 0
15, 14736, Note_on_c, 9, 46, 80
15, 14736, Note_on_c, 9, 38, 80
15, 14783, Note_off_c, 9, 38, 0
15, 14783, Note_off_c, 9, 46, 0
15, 14784, Note_on_c, 9, 46, 104
15, 14784, Note_on_c, 9, 38, 104
15, 14831, Note_off_c, 9, 38, 0
15, 14831, Note_off_c, 9, 46, 0
15, 14832, Note_on_c, 9, 46, 80
15, 14832, Note_on_c, 9, 38, 80
15, 14879, Note_off_c, 9, 46, 0
15, 14879, Note_off_c, 9, 38, 0
15, 14880, Note_on_c, 9, 46, 104
15, 14880, Note_on_c, 9, 38, 104
15, 14927, Note_off_c, 9, 38, 0
15, 14927, Note_off_c, 9, 46, 0
15, 14928, Note_on_c, 9, 38, 80
15, 14928, Note_on_c, 9, 46, 80
15, 14975, Note_off_c, 9, 46, 0
15, 14975, Note_off_c, 9, 38, 0
15, 14976, Note_on_c, 9, 38, 104
15, 14999, Note_off_c, 9, 38, 0
15, 15000, Note_on_c, 9, 38, 80
15, 15023, Note_off_c, 9, 38, 0
15, 15024, Note_on_c, 9, 38, 80
15, 15047, Note_off_c, 9, 38, 0
15, 15048, Note_on_c, 9, 38, 80
15, 15071, Note_off_c, 9, 38, 0
15, 15072, Note_on_c, 9, 38, 104
15, 15095, Note_off_c, 9, 38, 0
15, 15096, Note_on_c, 9, 38, 80
15, 15119, Note_off_c, 9, 38, 0
15, 15120, Note_on_c, 9, 38, 80
15, 15143, Note_off_c, 9, 38, 0
15, 15144, Note_on_c, 9, 38, 80
15, 15167, Note_off_c, 9, 38, 0
15, 15168, Note_on_c, 9, 40, 127
15, 15191, Note_off_c, 9, 40, 0
15, 15192, Note_on_c, 9, 38, 80
15, 15215, Note_off_c, 9, 38, 0
15, 15216, Note_on_c, 9, 38, 80
15, 15239, Note_off_c, 9, 38, 0
15, 15240, Note_on_c, 9, 38, 80
15, 15263, Note_off_c, 9, 38, 0
15, 15264, Note_on_c, 9, 38, 104
15, 15287, Note_off_c, 9, 38, 0
15, 15288, Note_on_c, 9, 38, 80
15, 15311, Note_off_c, 9, 38, 0
15, 15312, Note_on_c, 9, 38, 80
15, 15335, Note_off_c, 9, 38, 0
15, 15336, Note_on_c, 9, 38, 80
15, 15359, Note_off_c, 9, 38, 0
15, 15360, Note_on_c, 9, 40, 127
15, 15455, Note_off_c, 9, 40, 0
15, 15456, Note_on_c, 9, 40, 127
15, 15551, Note_off_c, 9, 40, 0
15, 15552, Note_on_c, 9, 38, 80
15, 15575, Note_off_c, 9, 38, 0
15, 15576, Note_on_c, 9, 38, 80
15, 15599, Note_off_c, 9, 38, 0
15, 15600, Note_on_c, 9, 38, 80
15, 15623, Note_off_c, 9, 38, 0
15, 15624, Note_on_c, 9, 38, 80
15, 15647, Note_off_c, 9, 38, 0
15, 15648, Note_on_c, 9, 40, 127
15, 15671, Note_off_c, 9, 40, 0
15, 15672, Note_on_c, 9, 38, 80
15, 15695, Note_off_c, 9, 38, 0
15, 15696, Note_on_c, 9, 38, 80
15, 15719, Note_off_c, 9, 38, 0
15, 15720, Note_on_c, 9, 38, 80
15, 15743, Note_off_c, 9, 38, 0
15, 15744, Note_on_c, 9, 51, 104
15, 15791, Note_off_c, 9, 51, 0
15, 15792, Note_on_c, 9, 51, 80
15, 15839, Note_off_c, 9, 51, 0
15, 15840, Note_on_c, 9, 51, 104
15, 15840, Note_on_c, 9, 38, 104
15, 15887, Note_off_c, 9, 51, 0
15, 15888, Note_on_c, 9, 51, 80
15, 15935, Note_off_c, 9, 38, 0
15, 15935, Note_off_c, 9, 51, 0
15, 15936, Note_on_c, 9, 51, 104
15, 15983, Note_off_c, 9, 51, 0
15, 15984, Note_on_c, 9, 51, 80
15, 16031, Note_off_c, 9, 51, 0
15, 16032, Note_on_c, 9, 51, 104
15, 16032, Note_on_c, 9, 38, 104
15, 16079, Note_off_c, 9, 51, 0
15, 16080, Note_on_c, 9, 51, 80
15, 16127, Note_off_c, 9, 38, 0
15, 16127, Note_off_c, 9, 51, 0
15, 16128, Note_on_c, 9, 51, 104
15, 16175, Note_off_c, 9, 51, 0
15, 16176, Note_on_c, 9, 51, 80
15, 16223, Note_off_c, 9, 51, 0
15, 16224, Note_on_c, 9, 51, 104
15, 16224, Note_on_c, 9, 38, 104
15, 16271, Note_off_c, 9, 51, 0
15, 16272, Note_on_c, 9, 51, 80
15, 16319, Note_off_c, 9, 38, 0
15, 16319, Note_off_c, 9, 51, 0
15, 16320, Note_on_c, 9, 51, 104
15, 16367, Note_off_c, 9, 51, 0
15, 16368, Note_on_c, 9, 51, 80
15, 16415, Note_off_c, 9, 51, 0
15, 16416, Note_on_c, 9, 51, 104
15, 16416, Note_on_c, 9, 38, 104
15, 16463, Note_off_c, 9, 51, 0
15, 16464, Note_on_c, 9, 51, 80
15, 16511, Note_off_c, 9, 38, 0
15, 16511, Note_off_c, 9, 51, 0
15, 16512, Note_on_c, 9, 51, 104
15, 16559, Note_off_c, 9, 51, 0
15, 16560, Note_on_c, 9, 51, 80
15, 16607, Note_off_c, 9, 51, 0
15, 16608, Note_on_c, 9, 51, 104
15, 16608, Note_on_c, 9, 38, 104
15, 16655, Note_off_c, 9, 51, 0
15, 16656, Note_on_c, 9, 51, 80
15, 16703, Note_off_c, 9, 38, 0
15, 16703, Note_off_c, 9, 51, 0
15, 16704, Note_on_c, 9, 51, 104
15, 16751, Note_off_c, 9, 51, 0
15, 16752, Note_on_c, 9, 51, 80
15, 16799, Note_off_c, 9, 51, 0
15, 16800, Note_on_c, 9, 51, 104
15, 16800, Note_on_c, 9, 38, 104
15, 16847, Note_off_c, 9, 51, 0
15, 16848, Note_on_c, 9, 51, 80
15, 16895, Note_off_c, 9, 38, 0
15, 16895, Note_off_c, 9, 51, 0
15, 16896, Note_on_c, 9, 51, 104
15, 16943, Note_off_c, 9, 51, 0
15, 16944, Note_on_c, 9, 51, 80
15, 16991, Note_off_c, 9, 51, 0
15, 16992, Note_on_c, 9, 51, 104
15, 16992, Note_on_c, 9, 38, 104
15, 17039, Note_off_c, 9, 51, 0
15, 17040, Note_on_c, 9, 51, 80
15, 17087, Note_off_c, 9, 38, 0
15, 17087, Note_off_c, 9, 51, 0
15, 17088, Note_on_c, 9, 51, 80
15, 17088, Note_on_c, 9, 38, 80
15, 17135, Note_off_c, 9, 51, 0
15, 17135, Note_off_c, 9, 38, 0
15, 17136, Note_on_c, 9, 38, 80
15, 17159, Note_off_c, 9, 38, 0
15, 17160, Note_on_c, 9, 38, 80
15, 17183, Note_off_c, 9, 38, 0
15, 17184, Note_on_c, 9, 40, 127
15, 17279, Note_off_c, 9, 40, 0
15, 17280, Note_on_c, 9, 38, 104
15, 17303, Note_off_c, 9, 38, 0
15, 17304, Note_on_c, 9, 38, 80
15, 17327, Note_off_c, 9, 38, 0
15, 17328, Note_on_c, 9, 38, 80
15, 17351, Note_off_c, 9, 38, 0
15, 17352, Note_on_c, 9, 38, 80
15, 17375, Note_off_c, 9, 38, 0
15, 17376, Note_on_c, 9, 38, 80
15, 17423, Note_off_c, 9, 38, 0
15, 17424, Note_on_c, 9, 40, 127
15, 17471, Note_off_c, 9, 40, 0
15, 17472, Note_on_c, 9, 38, 104
15, 17495, Note_off_c, 9, 38, 0
15, 17496, Note_on_c, 9, 38, 80
15, 17519, Note_off_c, 9, 38, 0
15, 17520, Note_on_c, 9, 38, 80
15, 17543, Note_off_c, 9, 38, 0
15, 17544, Note_on_c, 9, 38, 80
15, 17567, Note_off_c, 9, 38, 0
15, 17568, Note_on_c, 9, 38, 80
15, 17615, Note_off_c, 9, 38, 0
15, 17616, Note_on_c, 9, 40, 127
15, 17663, Note_off_c, 9, 40, 0
15, 17664, Note_on_c, 9, 38, 80
15, 17687, Note_off_c, 9, 38, 0
15, 17688, Note_on_c, 9, 38, 80
15, 17711, Note_off_c, 9, 38, 0
15, 17712, Note_on_c, 9, 38, 80
15, 17735, Note_off_c, 9, 38, 0
15, 17736, Note_on_c, 9, 38, 80
15, 17759, Note_off_c, 9, 38, 0
15, 17760, Note_on_c, 9, 40, 127
15, 17783, Note_off_c, 9, 40, 0
15, 17784, Note_on_c, 9, 38, 80
15, 17807, Note_off_c, 9, 38, 0
15, 17808, Note_on_c, 9, 38, 80
15, 17831, Note_off_c, 9, 38, 0
15, 17832, Note_on_c, 9, 38, 80
15, 17855, Note_off_c, 9, 38, 0
15, 17856, Note_on_c, 9, 40, 127
15, 17879, Note_off_c, 9, 40, 0
15, 17880, Note_on_c, 9, 38, 80
15, 17903, Note_off_c, 9, 38, 0
15, 17904, Note_on_c, 9, 38, 80
15, 17927, Note_off_c, 9, 38, 0
15, 17928, Note_on_c, 9, 38, 80
15, 17951, Note_off_c, 9, 38, 0
15, 17952, Note_on_c, 9, 40, 127
15, 17975, Note_off_c, 9, 40, 0
15, 17976, Note_on_c, 9, 38, 80
15, 17999, Note_off_c, 9, 38, 0
15, 18000, Note_on_c, 9, 38, 80
15, 18023, Note_off_c, 9, 38, 0
15, 18024, Note_on_c, 9, 38, 80
15, 18047, Note_off_c, 9, 38, 0
15, 18048, Note_on_c, 9, 38, 104
15, 18071, Note_off_c, 9, 38, 0
15, 18072, Note_on_c, 9, 38, 80
15, 18095, Note_off_c, 9, 38, 0
15, 18096, Note_on_c, 9, 38, 80
15, 18119, Note_off_c, 9, 38, 0
15, 18120, Note_on_c, 9, 38, 80
15, 18143, Note_off_c, 9, 38, 0
15, 18144, Note_on_c, 9, 38, 80
15, 18167, Note_off_c, 9, 38, 0
15, 18168, Note_on_c, 9, 38, 80
15, 18191, Note_off_c, 9, 38, 0
15, 18192, Note_on_c, 9, 38, 104
15, 18215, Note_off_c, 9, 38, 0
15, 18216, Note_on_c, 9, 38, 80
15, 18239, Note_off_c, 9, 38, 0
15, 18240, Note_on_c, 9, 38, 80
15, 18263, Note_off_c, 9, 38, 0
15, 18264, Note_on_c, 9, 38, 80
15, 18287, Note_off_c, 9, 38, 0
15, 18288, Note_on_c, 9, 38, 80
15, 18311, Note_off_c, 9, 38, 0
15, 18312, Note_on_c, 9, 38, 80
15, 18335, Note_off_c, 9, 38, 0
15, 18336, Note_on_c, 9, 40, 127
15, 18359, Note_off_c, 9, 40, 0
15, 18360, Note_on_c, 9, 38, 80
15, 18383, Note_off_c, 9, 38, 0
15, 18384, Note_on_c, 9, 38, 80
15, 18407, Note_off_c, 9, 38, 0
15, 18408, Note_on_c, 9, 38, 80
15, 18431, Note_off_c, 9, 38, 0
15, 18432, Note_on_c, 9, 38, 80
15, 18455, Note_off_c, 9, 38, 0
15, 18456, Note_on_c, 9, 38, 80
15, 18479, Note_off_c, 9, 38, 0
15, 18480, Note_on_c, 9, 38, 104
15, 18503, Note_off_c, 9, 38, 0
15, 18504, Note_on_c, 9, 38, 80
15, 18527, Note_off_c, 9, 38, 0
15, 18528, Note_on_c, 9, 38, 80
15, 18551, Note_off_c, 9, 38, 0
15, 18552, Note_on_c, 9, 38, 80
15, 18575, Note_off_c, 9, 38, 0
15, 18576, Note_on_c, 9, 38, 80
15, 18599, Note_off_c, 9, 38, 0
15, 18600, Note_on_c, 9, 38, 80
15, 18623, Note_off_c, 9, 38, 0
15, 18624, Note_on_c, 9, 40, 127
15, 18647, Note_off_c, 9, 40, 0
15, 18648, Note_on_c, 9, 38, 80
15, 18671, Note_off_c, 9, 38, 0
15, 18672, Note_on_c, 9, 38, 80
15, 18695, Note_off_c, 9, 38, 0
15, 18696, Note_on_c, 9, 38, 80
15, 18719, Note_off_c, 9, 38, 0
15, 18720, Note_on_c, 9, 40, 127
15, 18815, Note_off_c, 9, 40, 0
15, 18816, Note_on_c, 9, 38, 80
15, 18863, Note_off_c, 9, 38, 0
15, 18864, Note_on_c, 9, 38, 80
15, 18911, Note_off_c, 9, 38, 0
15, 18912, Note_on_c, 9, 38, 80
15, 18959, Note_off_c, 9, 38, 0
15, 18960, Note_on_c, 9, 38, 80
15, 19007, Note_off_c, 9, 38, 0
15, 19008, Note_on_c, 9, 38, 80
15, 19055, Note_off_c, 9, 38, 0
15, 19056, Note_on_c, 9, 38, 80
15, 19103, Note_off_c, 9, 38, 0
15, 19104, Note_on_c, 9, 38, 80
15, 19151, Note_off_c, 9, 38, 0
15, 19152, Note_on_c, 9, 38, 80
15, 19199, Note_off_c, 9, 38, 0
15, 19200, Note_on_c, 9, 38, 127
15, 19203, Note_off_c, 9, 38, 0
15, 19203, Note_on_c, 9, 40, 127
15, 19295, Note_off_c, 9, 40, 0
15, 19392, Note_on_c, 9, 38, 104
15, 19415, Note_off_c, 9, 38, 0
15, 19416, Note_on_c, 9, 38, 80
15, 19439, Note_off_c, 9, 38, 0
15, 19440, Note_on_c, 9, 38, 80
15, 19463, Note_off_c, 9, 38, 0
15, 19464, Note_on_c, 9, 38, 80
15, 19487, Note_off_c, 9, 38, 0
15, 19488, Note_on_c, 9, 38, 104
15, 19535, Note_off_c, 9, 38, 0
15, 19536, Note_on_c, 9, 38, 104
15, 19583, Note_off_c, 9, 38, 0
15, 19584, Note_on_c, 9, 38, 104
15, 19607, Note_off_c, 9, 38, 0
15, 19608, Note_on_c, 9, 38, 80
15, 19631, Note_off_c, 9, 38, 0
15, 19632, Note_on_c, 9, 38, 80
15, 19655, Note_off_c, 9, 38, 0
15, 19656, Note_on_c, 9, 38, 80
15, 19679, Note_off_c, 9, 38, 0
15, 19680, Note_on_c, 9, 38, 104
15, 19703, Note_off_c, 9, 38, 0
15, 19704, Note_on_c, 9, 38, 80
15, 19727, Note_off_c, 9, 38, 0
15, 19728, Note_on_c, 9, 38, 104
15, 19751, Note_off_c, 9, 38, 0
15, 19752, Note_on_c, 9, 38, 80
15, 19775, Note_off_c, 9, 38, 0
15, 19776, Note_on_c, 9, 38, 80
15, 19799, Note_off_c, 9, 38, 0
15, 19800, Note_on_c, 9, 38, 80
15, 19823, Note_off_c, 9, 38, 0
15, 19824, Note_on_c, 9, 38, 104
15, 19847, Note_off_c, 9, 38, 0
15, 19848, Note_on_c, 9, 38, 80
15, 19871, Note_off_c, 9, 38, 0
15, 19872, Note_on_c, 9, 38, 80
15, 19895, Note_off_c, 9, 38, 0
15, 19896, Note_on_c, 9, 38, 80
15, 19919, Note_off_c, 9, 38, 0
15, 19920, Note_on_c, 9, 38, 104
15, 19943, Note_off_c, 9, 38, 0
15, 19944, Note_on_c, 9, 38, 80
15, 19967, Note_off_c, 9, 38, 0
15, 19968, Note_on_c, 9, 38, 80
15, 19991, Note_off_c, 9, 38, 0
15, 19992, Note_on_c, 9, 38, 80
15, 20015, Note_off_c, 9, 38, 0
15, 20016, Note_on_c, 9, 38, 104
15, 20039, Note_off_c, 9, 38, 0
15, 20040, Note_on_c, 9, 38, 80
15, 20063, Note_off_c, 9, 38, 0
15, 20064, Note_on_c, 9, 38, 80
15, 20087, Note_off_c, 9, 38, 0
15, 20088, Note_on_c, 9, 38, 80
15, 20111, Note_off_c, 9, 38, 0
15, 20112, Note_on_c, 9, 38, 104
15, 20135, Note_off_c, 9, 38, 0
15, 20136, Note_on_c, 9, 38, 80
15, 20159, Note_off_c, 9, 38, 0
15, 20160, Note_on_c, 9, 38, 104
15, 20207, Note_off_c, 9, 38, 0
15, 20208, Note_on_c, 9, 38, 104
15, 20231, Note_off_c, 9, 38, 0
15, 20232, Note_on_c, 9, 38, 104
15, 20255, Note_off_c, 9, 38, 0
15, 20256, Note_on_c, 9, 38, 104
15, 20279, Note_off_c, 9, 38, 0
15, 20280, Note_on_c, 9, 38, 104
15, 20303, Note_off_c, 9, 38, 0
15, 20304, Note_on_c, 9, 38, 104
15, 20327, Note_off_c, 9, 38, 0
15, 20328, Note_on_c, 9, 38, 104
15, 20351, Note_off_c, 9, 38, 0
15, 20352, Note_on_c, 9, 40, 127
15, 20399, Note_off_c, 9, 40, 0
15, 20400, Note_on_c, 9, 40, 127
15, 20447, Note_off_c, 9, 40, 0
15, 20448, Note_on_c, 9, 40, 127
15, 20543, Note_off_c, 9, 40, 0
15, 20736, Control_c, 9, 101, 0
15, 20736, Control_c, 9, 100, 0
15, 20736, Control_c, 9, 6, 12
15, 20736, Control_c, 9, 10, 64
15, 20736, Control_c, 9, 7, 100
15, 20736, Pitch_bend_c, 9, 8192
15, 20736, Program_c, 9, 0
15, 20736, Control_c, 9, 101, 0
15, 20736, Control_c, 9, 100, 0
15, 20736, Control_c, 9, 6, 12
15, 20736, Control_c, 9, 10, 64
15, 20736, Control_c, 9, 7, 100
15, 20736, Pitch_bend_c, 9, 8192
15, 20736, Program_c, 9, 0
15, 20736, Control_c, 9, 101, 0
15, 20736, Control_c, 9, 100, 0
15, 20736, Control_c, 9, 6, 12
15, 20736, Control_c, 9, 10, 64
15, 20736, Control_c, 9, 7, 100
15, 20736, Pitch_bend_c, 9, 8192
15, 20736, Program_c, 9, 0
15, 20736, End_track
16, 0, Start_track
16, 0, Control_c, 9, 10, 64
16, 0, Control_c, 9, 7, 100
16, 0, Pitch_bend_c, 9, 8192
16, 0, Control_c, 9, 101, 0
16, 0, Control_c, 9, 100, 0
16, 0, Control_c, 9, 6, 12
16, 0, Control_c, 9, 10, 64
16, 0, Control_c, 9, 7, 100
16, 0, Pitch_bend_c, 9, 8192
16, 0, Program_c, 9, 0
16, 0, Control_c, 9, 101, 0
16, 0, Control_c, 9, 100, 0
16, 0, Control_c, 9, 6, 12
16, 0, Control_c, 9, 10, 64
16, 0, Control_c, 9, 7, 100
16, 0, Pitch_bend_c, 9, 8192
16, 0, Program_c, 9, 0
16, 4608, Note_on_c, 9, 54, 96
16, 4655, Note_off_c, 9, 54, 0
16, 4656, Note_on_c, 9, 54, 80
16, 4703, Note_off_c, 9, 54, 0
16, 4704, Note_on_c, 9, 54, 96
16, 4735, Note_off_c, 9, 54, 0
16, 4752, Note_on_c, 9, 54, 80
16, 4799, Note_off_c, 9, 54, 0
16, 4800, Note_on_c, 9, 54, 96
16, 4847, Note_off_c, 9, 54, 0
16, 4848, Note_on_c, 9, 54, 80
16, 4895, Note_off_c, 9, 54, 0
16, 4896, Note_on_c, 9, 54, 96
16, 4927, Note_off_c, 9, 54, 0
16, 4944, Note_on_c, 9, 54, 80
16, 4991, Note_off_c, 9, 54, 0
16, 4992, Note_on_c, 9, 54, 96
16, 5039, Note_off_c, 9, 54, 0
16, 5040, Note_on_c, 9, 54, 80
16, 5087, Note_off_c, 9, 54, 0
16, 5088, Note_on_c, 9, 54, 96
16, 5119, Note_off_c, 9, 54, 0
16, 5136, Note_on_c, 9, 54, 80
16, 5183, Note_off_c, 9, 54, 0
16, 5184, Note_on_c, 9, 54, 96
16, 5231, Note_off_c, 9, 54, 0
16, 5232, Note_on_c, 9, 54, 80
16, 5279, Note_off_c, 9, 54, 0
16, 5280, Note_on_c, 9, 54, 96
16, 5311, Note_off_c, 9, 54, 0
16, 5328, Note_on_c, 9, 54, 80
16, 5375, Note_off_c, 9, 54, 0
16, 5376, Note_on_c, 9, 54, 96
16, 5423, Note_off_c, 9, 54, 0
16, 5424, Note_on_c, 9, 54, 80
16, 5471, Note_off_c, 9, 54, 0
16, 5472, Note_on_c, 9, 54, 96
16, 5503, Note_off_c, 9, 54, 0
16, 5520, Note_on_c, 9, 54, 80
16, 5567, Note_off_c, 9, 54, 0
16, 5568, Note_on_c, 9, 54, 96
16, 5615, Note_off_c, 9, 54, 0
16, 5616, Note_on_c, 9, 54, 80
16, 5663, Note_off_c, 9, 54, 0
16, 5664, Note_on_c, 9, 54, 96
16, 5695, Note_off_c, 9, 54, 0
16, 5712, Note_on_c, 9, 54, 80
16, 5759, Note_off_c, 9, 54, 0
16, 5760, Note_on_c, 9, 54, 96
16, 5807, Note_off_c, 9, 54, 0
16, 5808, Note_on_c, 9, 54, 80
16, 5855, Note_off_c, 9, 54, 0
16, 5856, Note_on_c, 9, 54, 96
16, 5887, Note_off_c, 9, 54, 0
16, 5904, Note_on_c, 9, 54, 80
16, 5951, Note_off_c, 9, 54, 0
16, 5952, Note_on_c, 9, 54, 96
16, 5999, Note_off_c, 9, 54, 0
16, 6000, Note_on_c, 9, 54, 80
16, 6047, Note_off_c, 9, 54, 0
16, 6048, Note_on_c, 9, 54, 96
16, 6079, Note_off_c, 9, 54, 0
16, 6096, Note_on_c, 9, 54, 80
16, 6143, Note_off_c, 9, 54, 0
16, 6144, Note_on_c, 9, 54, 96
16, 6191, Note_off_c, 9, 54, 0
16, 6192, Note_on_c, 9, 54, 80
16, 6239, Note_off_c, 9, 54, 0
16, 6240, Note_on_c, 9, 54, 80
16, 6287, Note_off_c, 9, 54, 0
16, 6288, Note_on_c, 9, 54, 80
16, 6335, Note_off_c, 9, 54, 0
16, 6336, Note_on_c, 9, 54, 80
16, 6383, Note_off_c, 9, 54, 0
16, 6384, Note_on_c, 9, 54, 80
16, 6431, Note_off_c, 9, 54, 0
16, 6432, Note_on_c, 9, 54, 80
16, 6479, Note_off_c, 9, 54, 0
16, 6480, Note_on_c, 9, 54, 80
16, 6527, Note_off_c, 9, 54, 0
16, 6528, Note_on_c, 9, 54, 80
16, 6575, Note_off_c, 9, 54, 0
16, 6576, Note_on_c, 9, 54, 80
16, 6623, Note_off_c, 9, 54, 0
16, 6624, Note_on_c, 9, 54, 80
16, 6671, Note_off_c, 9, 54, 0
16, 6672, Note_on_c, 9, 54, 80
16, 6719, Note_off_c, 9, 54, 0
16, 6720, Note_on_c, 9, 54, 80
16, 6767, Note_off_c, 9, 54, 0
16, 6768, Note_on_c, 9, 54, 80
16, 6815, Note_off_c, 9, 54, 0
16, 6816, Note_on_c, 9, 54, 80
16, 6863, Note_off_c, 9, 54, 0
16, 6864, Note_on_c, 9, 54, 80
16, 6911, Note_off_c, 9, 54, 0
16, 6912, Note_on_c, 9, 54, 96
16, 6959, Note_off_c, 9, 54, 0
16, 6960, Note_on_c, 9, 54, 80
16, 7007, Note_off_c, 9, 54, 0
16, 7008, Note_on_c, 9, 54, 96
16, 7055, Note_off_c, 9, 54, 0
16, 7056, Note_on_c, 9, 54, 80
16, 7103, Note_off_c, 9, 54, 0
16, 7104, Note_on_c, 9, 54, 96
16, 7151, Note_off_c, 9, 54, 0
16, 7152, Note_on_c, 9, 54, 80
16, 7199, Note_off_c, 9, 54, 0
16, 7200, Note_on_c, 9, 54, 96
16, 7247, Note_off_c, 9, 54, 0
16, 7248, Note_on_c, 9, 54, 80
16, 7295, Note_off_c, 9, 54, 0
16, 7296, Note_on_c, 9, 54, 96
16, 7343, Note_off_c, 9, 54, 0
16, 7344, Note_on_c, 9, 54, 80
16, 7391, Note_off_c, 9, 54, 0
16, 7392, Note_on_c, 9, 54, 96
16, 7439, Note_off_c, 9, 54, 0
16, 7440, Note_on_c, 9, 54, 80
16, 7487, Note_off_c, 9, 54, 0
16, 7488, Note_on_c, 9, 54, 96
16, 7535, Note_off_c, 9, 54, 0
16, 7536, Note_on_c, 9, 54, 96
16, 7583, Note_off_c, 9, 54, 0
16, 7584, Note_on_c, 9, 54, 96
16, 7631, Note_off_c, 9, 54, 0
16, 7632, Note_on_c, 9, 54, 96
16, 7663, Note_off_c, 9, 54, 0
16, 12768, Note_on_c, 9, 54, 80
16, 12815, Note_off_c, 9, 54, 0
16, 12816, Note_on_c, 9, 54, 80
16, 12863, Note_off_c, 9, 54, 0
16, 12864, Note_on_c, 9, 54, 80
16, 12911, Note_off_c, 9, 54, 0
16, 12912, Note_on_c, 9, 54, 80
16, 12959, Note_off_c, 9, 54, 0
16, 12960, Note_on_c, 9, 54, 80
16, 13007, Note_off_c, 9, 54, 0
16, 13008, Note_on_c, 9, 54, 80
16, 13055, Note_off_c, 9, 54, 0
16, 13056, Note_on_c, 9, 54, 80
16, 13103, Note_off_c, 9, 54, 0
16, 13104, Note_on_c, 9, 54, 80
16, 13151, Note_off_c, 9, 54, 0
16, 13152, Note_on_c, 9, 54, 80
16, 13199, Note_off_c, 9, 54, 0
16, 13200, Note_on_c, 9, 54, 80
16, 13247, Note_off_c, 9, 54, 0
16, 13248, Note_on_c, 9, 54, 80
16, 13295, Note_off_c, 9, 54, 0
16, 13296, Note_on_c, 9, 54, 80
16, 13343, Note_off_c, 9, 54, 0
16, 13344, Note_on_c, 9, 54, 80
16, 13391, Note_off_c, 9, 54, 0
16, 13392, Note_on_c, 9, 54, 80
16, 13439, Note_off_c, 9, 54, 0
16, 13440, Note_on_c, 9, 54, 80
16, 13487, Note_off_c, 9, 54, 0
16, 13488, Note_on_c, 9, 54, 80
16, 13535, Note_off_c, 9, 54, 0
16, 13536, Note_on_c, 9, 54, 80
16, 13583, Note_off_c, 9, 54, 0
16, 13584, Note_on_c, 9, 54, 80
16, 13631, Note_off_c, 9, 54, 0
16, 13632, Note_on_c, 9, 54, 80
16, 13679, Note_off_c, 9, 54, 0
16, 13680, Note_on_c, 9, 54, 80
16, 13727, Note_off_c, 9, 54, 0
16, 13728, Note_on_c, 9, 54, 80
16, 13775, Note_off_c, 9, 54, 0
16, 13776, Note_on_c, 9, 54, 80
16, 13823, Note_off_c, 9, 54, 0
16, 13824, Note_on_c, 9, 54, 80
16, 13871, Note_off_c, 9, 54, 0
16, 13872, Note_on_c, 9, 54, 80
16, 13919, Note_off_c, 9, 54, 0
16, 13920, Note_on_c, 9, 54, 80
16, 13967, Note_off_c, 9, 54, 0
16, 13968, Note_on_c, 9, 54, 80
16, 14015, Note_off_c, 9, 54, 0
16, 14016, Note_on_c, 9, 54, 80
16, 14063, Note_off_c, 9, 54, 0
16, 14064, Note_on_c, 9, 54, 80
16, 14111, Note_off_c, 9, 54, 0
16, 14112, Note_on_c, 9, 54, 80
16, 14159, Note_off_c, 9, 54, 0
16, 14160, Note_on_c, 9, 54, 80
16, 14207, Note_off_c, 9, 54, 0
16, 14208, Note_on_c, 9, 54, 80
16, 14255, Note_off_c, 9, 54, 0
16, 14256, Note_on_c, 9, 54, 80
16, 14303, Note_off_c, 9, 54, 0
16, 14304, Note_on_c, 9, 54, 80
16, 14351, Note_off_c, 9, 54, 0
16, 14352, Note_on_c, 9, 54, 80
16, 14399, Note_off_c, 9, 54, 0
16, 14400, Note_on_c, 9, 54, 80
16, 14447, Note_off_c, 9, 54, 0
16, 14448, Note_on_c, 9, 54, 80
16, 14495, Note_off_c, 9, 54, 0
16, 14496, Note_on_c, 9, 54, 80
16, 14543, Note_off_c, 9, 54, 0
16, 14544, Note_on_c, 9, 54, 80
16, 14591, Note_off_c, 9, 54, 0
16, 14592, Note_on_c, 9, 54, 80
16, 14639, Note_off_c, 9, 54, 0
16, 14640, Note_on_c, 9, 54, 80
16, 14687, Note_off_c, 9, 54, 0
16, 14688, Note_on_c, 9, 54, 80
16, 14735, Note_off_c, 9, 54, 0
16, 14736, Note_on_c, 9, 54, 80
16, 14783, Note_off_c, 9, 54, 0
16, 14784, Note_on_c, 9, 54, 80
16, 14831, Note_off_c, 9, 54, 0
16, 14832, Note_on_c, 9, 54, 80
16, 14879, Note_off_c, 9, 54, 0
16, 14880, Note_on_c, 9, 54, 80
16, 14927, Note_off_c, 9, 54, 0
16, 14928, Note_on_c, 9, 54, 80
16, 14975, Note_off_c, 9, 54, 0
16, 14976, Note_on_c, 9, 54, 80
16, 15023, Note_off_c, 9, 54, 0
16, 15024, Note_on_c, 9, 54, 80
16, 15071, Note_off_c, 9, 54, 0
16, 15072, Note_on_c, 9, 54, 80
16, 15119, Note_off_c, 9, 54, 0
16, 15120, Note_on_c, 9, 54, 80
16, 15167, Note_off_c, 9, 54, 0
16, 15168, Note_on_c, 9, 54, 80
16, 15215, Note_off_c, 9, 54, 0
16, 15216, Note_on_c, 9, 54, 80
16, 15263, Note_off_c, 9, 54, 0
16, 15264, Note_on_c, 9, 54, 80
16, 15311, Note_off_c, 9, 54, 0
16, 15312, Note_on_c, 9, 54, 80
16, 15359, Note_off_c, 9, 54, 0
16, 15360, Note_on_c, 9, 54, 80
16, 15407, Note_off_c, 9, 54, 0
16, 15408, Note_on_c, 9, 54, 80
16, 15455, Note_off_c, 9, 54, 0
16, 15456, Note_on_c, 9, 54, 80
16, 15503, Note_off_c, 9, 54, 0
16, 15504, Note_on_c, 9, 54, 80
16, 15551, Note_off_c, 9, 54, 0
16, 15552, Note_on_c, 9, 54, 80
16, 15599, Note_off_c, 9, 54, 0
16, 15600, Note_on_c, 9, 54, 80
16, 15647, Note_off_c, 9, 54, 0
16, 15648, Note_on_c, 9, 54, 80
16, 15695, Note_off_c, 9, 54, 0
16, 15696, Note_on_c, 9, 54, 80
16, 15743, Note_off_c, 9, 54, 0
16, 15744, Note_on_c, 9, 54, 80
16, 15791, Note_off_c, 9, 54, 0
16, 15792, Note_on_c, 9, 54, 80
16, 15839, Note_off_c, 9, 54, 0
16, 15840, Note_on_c, 9, 54, 80
16, 15887, Note_off_c, 9, 54, 0
16, 15888, Note_on_c, 9, 54, 80
16, 15935, Note_off_c, 9, 54, 0
16, 15936, Note_on_c, 9, 54, 80
16, 15983, Note_off_c, 9, 54, 0
16, 15984, Note_on_c, 9, 54, 80
16, 16031, Note_off_c, 9, 54, 0
16, 16032, Note_on_c, 9, 54, 80
16, 16079, Note_off_c, 9, 54, 0
16, 16080, Note_on_c, 9, 54, 80
16, 16127, Note_off_c, 9, 54, 0
16, 16128, Note_on_c, 9, 54, 80
16, 16175, Note_off_c, 9, 54, 0
16, 16176, Note_on_c, 9, 54, 80
16, 16223, Note_off_c, 9, 54, 0
16, 16224, Note_on_c, 9, 54, 80
16, 16271, Note_off_c, 9, 54, 0
16, 16272, Note_on_c, 9, 54, 80
16, 16319, Note_off_c, 9, 54, 0
16, 16320, Note_on_c, 9, 54, 80
16, 16367, Note_off_c, 9, 54, 0
16, 16368, Note_on_c, 9, 54, 80
16, 16415, Note_off_c, 9, 54, 0
16, 16416, Note_on_c, 9, 54, 80
16, 16463, Note_off_c, 9, 54, 0
16, 16464, Note_on_c, 9, 54, 80
16, 16511, Note_off_c, 9, 54, 0
16, 16512, Note_on_c, 9, 54, 80
16, 16559, Note_off_c, 9, 54, 0
16, 16560, Note_on_c, 9, 54, 80
16, 16607, Note_off_c, 9, 54, 0
16, 16608, Note_on_c, 9, 54, 80
16, 16655, Note_off_c, 9, 54, 0
16, 16656, Note_on_c, 9, 54, 80
16, 16703, Note_off_c, 9, 54, 0
16, 16704, Note_on_c, 9, 54, 80
16, 16751, Note_off_c, 9, 54, 0
16, 16752, Note_on_c, 9, 54, 80
16, 16799, Note_off_c, 9, 54, 0
16, 16800, Note_on_c, 9, 54, 80
16, 16847, Note_off_c, 9, 54, 0
16, 16848, Note_on_c, 9, 54, 80
16, 16895, Note_off_c, 9, 54, 0
16, 16896, Note_on_c, 9, 54, 80
16, 16943, Note_off_c, 9, 54, 0
16, 16944, Note_on_c, 9, 54, 80
16, 16991, Note_off_c, 9, 54, 0
16, 16992, Note_on_c, 9, 54, 80
16, 17039, Note_off_c, 9, 54, 0
16, 17040, Note_on_c, 9, 54, 80
16, 17087, Note_off_c, 9, 54, 0
16, 17088, Note_on_c, 9, 54, 80
16, 17135, Note_off_c, 9, 54, 0
16, 17136, Note_on_c, 9, 54, 80
16, 17183, Note_off_c, 9, 54, 0
16, 17184, Note_on_c, 9, 54, 80
16, 17279, Note_off_c, 9, 54, 0
16, 17280, Note_on_c, 9, 54, 80
16, 17327, Note_off_c, 9, 54, 0
16, 17328, Note_on_c, 9, 54, 80
16, 17375, Note_off_c, 9, 54, 0
16, 17376, Note_on_c, 9, 54, 80
16, 17423, Note_off_c, 9, 54, 0
16, 17424, Note_on_c, 9, 54, 80
16, 17471, Note_off_c, 9, 54, 0
16, 17472, Note_on_c, 9, 54, 80
16, 17519, Note_off_c, 9, 54, 0
16, 17520, Note_on_c, 9, 54, 80
16, 17567, Note_off_c, 9, 54, 0
16, 17568, Note_on_c, 9, 54, 80
16, 17615, Note_off_c, 9, 54, 0
16, 17616, Note_on_c, 9, 54, 80
16, 17663, Note_off_c, 9, 54, 0
16, 17664, Note_on_c, 9, 54, 80
16, 17711, Note_off_c, 9, 54, 0
16, 17712, Note_on_c, 9, 54, 80
16, 17759, Note_off_c, 9, 54, 0
16, 17760, Note_on_c, 9, 54, 80
16, 17807, Note_off_c, 9, 54, 0
16, 17808, Note_on_c, 9, 54, 80
16, 17855, Note_off_c, 9, 54, 0
16, 17856, Note_on_c, 9, 54, 80
16, 17903, Note_off_c, 9, 54, 0
16, 17904, Note_on_c, 9, 54, 80
16, 17951, Note_off_c, 9, 54, 0
16, 17952, Note_on_c, 9, 54, 80
16, 17999, Note_off_c, 9, 54, 0
16, 18000, Note_on_c, 9, 54, 80
16, 18047, Note_off_c, 9, 54, 0
16, 18048, Note_on_c, 9, 54, 80
16, 18095, Note_off_c, 9, 54, 0
16, 18096, Note_on_c, 9, 54, 80
16, 18143, Note_off_c, 9, 54, 0
16, 18144, Note_on_c, 9, 54, 80
16, 18191, Note_off_c, 9, 54, 0
16, 18192, Note_on_c, 9, 54, 80
16, 18239, Note_off_c, 9, 54, 0
16, 18240, Note_on_c, 9, 54, 80
16, 18287, Note_off_c, 9, 54, 0
16, 18288, Note_on_c, 9, 54, 80
16, 18335, Note_off_c, 9, 54, 0
16, 18336, Note_on_c, 9, 54, 80
16, 18383, Note_off_c, 9, 54, 0
16, 18384, Note_on_c, 9, 54, 80
16, 18431, Note_off_c, 9, 54, 0
16, 18432, Note_on_c, 9, 54, 80
16, 18479, Note_off_c, 9, 54, 0
16, 18480, Note_on_c, 9, 54, 80
16, 18527, Note_off_c, 9, 54, 0
16, 18528, Note_on_c, 9, 54, 80
16, 18575, Note_off_c, 9, 54, 0
16, 18576, Note_on_c, 9, 54, 80
16, 18623, Note_off_c, 9, 54, 0
16, 18624, Note_on_c, 9, 54, 80
16, 18671, Note_off_c, 9, 54, 0
16, 18672, Note_on_c, 9, 54, 80
16, 18719, Note_off_c, 9, 54, 0
16, 18720, Note_on_c, 9, 54, 80
16, 18767, Note_off_c, 9, 54, 0
16, 18768, Note_on_c, 9, 54, 80
16, 18815, Note_off_c, 9, 54, 0
16, 18816, Note_on_c, 9, 54, 80
16, 18863, Note_off_c, 9, 54, 0
16, 18864, Note_on_c, 9, 54, 80
16, 18911, Note_off_c, 9, 54, 0
16, 18912, Note_on_c, 9, 54, 80
16, 18959, Note_off_c, 9, 54, 0
16, 18960, Note_on_c, 9, 54, 80
16, 19007, Note_off_c, 9, 54, 0
16, 19008, Note_on_c, 9, 54, 80
16, 19055, Note_off_c, 9, 54, 0
16, 19056, Note_on_c, 9, 54, 80
16, 19103, Note_off_c, 9, 54, 0
16, 19104, Note_on_c, 9, 54, 80
16, 19151, Note_off_c, 9, 54, 0
16, 19152, Note_on_c, 9, 54, 80
16, 19199, Note_off_c, 9, 54, 0
16, 19200, Note_on_c, 9, 54, 80
16, 19247, Note_off_c, 9, 54, 0
16, 19248, Note_on_c, 9, 54, 80
16, 19295, Note_off_c, 9, 54, 0
16, 19296, Note_on_c, 9, 54, 80
16, 19343, Note_off_c, 9, 54, 0
16, 19344, Note_on_c, 9, 54, 80
16, 19391, Note_off_c, 9, 54, 0
16, 19392, Note_on_c, 9, 54, 80
16, 19439, Note_off_c, 9, 54, 0
16, 19440, Note_on_c, 9, 54, 80
16, 19487, Note_off_c, 9, 54, 0
16, 19488, Note_on_c, 9, 54, 80
16, 19535, Note_off_c, 9, 54, 0
16, 19536, Note_on_c, 9, 54, 80
16, 19583, Note_off_c, 9, 54, 0
16, 20352, Note_on_c, 9, 54, 80
16, 20399, Note_off_c, 9, 54, 0
16, 20400, Note_on_c, 9, 54, 80
16, 20447, Note_off_c, 9, 54, 0
16, 20448, Note_on_c, 9, 54, 80
16, 20495, Note_off_c, 9, 54, 0
16, 20736, Control_c, 9, 101, 0
16, 20736, Control_c, 9, 100, 0
16, 20736, Control_c, 9, 6, 12
16, 20736, Control_c, 9, 10, 64
16, 20736, Control_c, 9, 7, 100
16, 20736, Pitch_bend_c, 9, 8192
16, 20736, Program_c, 9, 0
16, 20736, Control_c, 9, 101, 0
16, 20736, Control_c, 9, 100, 0
16, 20736, Control_c, 9, 6, 12
16, 20736, Control_c, 9, 10, 64
16, 20736, Control_c, 9, 7, 100
16, 20736, Pitch_bend_c, 9, 8192
16, 20736, Program_c, 9, 0
16, 20736, Control_c, 9, 101, 0
16, 20736, Control_c, 9, 100, 0
16, 20736, Control_c, 9, 6, 12
16, 20736, Control_c, 9, 10, 64
16, 20736, Control_c, 9, 7, 100
16, 20736, Pitch_bend_c, 9, 8192
16, 20736, Program_c, 9, 0
16, 20736, End_track
17, 0, Start_track
17, 0, Control_c, 9, 10, 64
17, 0, Control_c, 9, 7, 100
17, 0, Pitch_bend_c, 9, 8192
17, 0, Control_c, 9, 101, 0
17, 0, Control_c, 9, 100, 0
17, 0, Control_c, 9, 6, 12
17, 0, Control_c, 9, 10, 64
17, 0, Control_c, 9, 7, 100
17, 0, Pitch_bend_c, 9, 8192
17, 0, Program_c, 9, 0
17, 0, Control_c, 9, 101, 0
17, 0, Control_c, 9, 100, 0
17, 0, Control_c, 9, 6, 12
17, 0, Control_c, 9, 10, 64
17, 0, Control_c, 9, 7, 100
17, 0, Pitch_bend_c, 9, 8192
17, 0, Program_c, 9, 0
17, 0, Note_on_c, 9, 47, 80
17, 0, Note_on_c, 9, 45, 80
17, 95, Note_off_c, 9, 47, 0
17, 95, Note_off_c, 9, 45, 0
17, 576, Note_on_c, 9, 50, 80
17, 623, Note_off_c, 9, 50, 0
17, 624, Note_on_c, 9, 50, 80
17, 647, Note_off_c, 9, 50, 0
17, 648, Note_on_c, 9, 50, 80
17, 671, Note_off_c, 9, 50, 0
17, 672, Note_on_c, 9, 50, 80
17, 695, Note_off_c, 9, 50, 0
17, 696, Note_on_c, 9, 48, 80
17, 719, Note_off_c, 9, 48, 0
17, 720, Note_on_c, 9, 47, 80
17, 743, Note_off_c, 9, 47, 0
17, 744, Note_on_c, 9, 47, 80
17, 767, Note_off_c, 9, 47, 0
17, 768, Note_on_c, 9, 45, 80
17, 863, Note_off_c, 9, 45, 0
17, 1104, Note_on_c, 9, 47, 80
17, 1104, Note_on_c, 9, 45, 80
17, 1151, Note_off_c, 9, 47, 0
17, 1151, Note_off_c, 9, 45, 0
17, 1200, Note_on_c, 9, 47, 80
17, 1200, Note_on_c, 9, 45, 80
17, 1247, Note_off_c, 9, 47, 0
17, 1247, Note_off_c, 9, 45, 0
17, 1296, Note_on_c, 9, 47, 80
17, 1296, Note_on_c, 9, 45, 80
17, 1343, Note_off_c, 9, 47, 0
17, 1343, Note_off_c, 9, 45, 0
17, 1344, Note_on_c, 9, 47, 80
17, 1344, Note_on_c, 9, 45, 80
17, 1439, Note_off_c, 9, 47, 0
17, 1439, Note_off_c, 9, 45, 0
17, 1440, Note_on_c, 9, 48, 80
17, 1463, Note_off_c, 9, 48, 0
17, 1464, Note_on_c, 9, 48, 80
17, 1487, Note_off_c, 9, 48, 0
17, 1488, Note_on_c, 9, 48, 80
17, 1511, Note_off_c, 9, 48, 0
17, 1512, Note_on_c, 9, 48, 80
17, 1535, Note_off_c, 9, 48, 0
17, 1632, Note_on_c, 9, 50, 80
17, 1632, Note_on_c, 9, 48, 80
17, 1727, Note_off_c, 9, 50, 0
17, 1727, Note_off_c, 9, 48, 0
17, 1824, Note_on_c, 9, 50, 80
17, 1824, Note_on_c, 9, 48, 80
17, 1919, Note_off_c, 9, 48, 0
17, 1919, Note_off_c, 9, 50, 0
17, 2016, Note_on_c, 9, 50, 80
17, 2016, Note_on_c, 9, 48, 80
17, 2111, Note_off_c, 9, 48, 0
17, 2111, Note_off_c, 9, 50, 0
17, 2160, Note_on_c, 9, 45, 80
17, 2207, Note_off_c, 9, 45, 0
17, 2208, Note_on_c, 9, 47, 80
17, 2231, Note_off_c, 9, 47, 0
17, 2232, Note_on_c, 9, 47, 80
17, 2255, Note_off_c, 9, 47, 0
17, 2256, Note_on_c, 9, 45, 80
17, 2303, Note_off_c, 9, 45, 0
17, 2400, Note_on_c, 9, 50, 80
17, 2400, Note_on_c, 9, 48, 80
17, 2495, Note_off_c, 9, 50, 0
17, 2495, Note_off_c, 9, 48, 0
17, 2592, Note_on_c, 9, 50, 80
17, 2592, Note_on_c, 9, 48, 80
17, 2687, Note_off_c, 9, 48, 0
17, 2687, Note_off_c, 9, 50, 0
17, 2784, Note_on_c, 9, 50, 80
17, 2784, Note_on_c, 9, 48, 80
17, 2879, Note_off_c, 9, 48, 0
17, 2879, Note_off_c, 9, 50, 0
17, 2928, Note_on_c, 9, 45, 80
17, 2975, Note_off_c, 9, 45, 0
17, 2976, Note_on_c, 9, 47, 80
17, 2999, Note_off_c, 9, 47, 0
17, 3000, Note_on_c, 9, 47, 80
17, 3023, Note_off_c, 9, 47, 0
17, 3024, Note_on_c, 9, 45, 80
17, 3071, Note_off_c, 9, 45, 0
17, 3168, Note_on_c, 9, 50, 80
17, 3168, Note_on_c, 9, 48, 80
17, 3263, Note_off_c, 9, 50, 0
17, 3263, Note_off_c, 9, 48, 0
17, 3360, Note_on_c, 9, 50, 80
17, 3360, Note_on_c, 9, 48, 80
17, 3455, Note_off_c, 9, 48, 0
17, 3455, Note_off_c, 9, 50, 0
17, 3552, Note_on_c, 9, 50, 80
17, 3552, Note_on_c, 9, 48, 80
17, 3647, Note_off_c, 9, 48, 0
17, 3647, Note_off_c, 9, 50, 0
17, 3696, Note_on_c, 9, 45, 80
17, 3743, Note_off_c, 9, 45, 0
17, 3744, Note_on_c, 9, 47, 80
17, 3767, Note_off_c, 9, 47, 0
17, 3768, Note_on_c, 9, 47, 80
17, 3791, Note_off_c, 9, 47, 0
17, 3792, Note_on_c, 9, 45, 80
17, 3839, Note_off_c, 9, 45, 0
17, 3936, Note_on_c, 9, 50, 80
17, 3936, Note_on_c, 9, 48, 80
17, 4031, Note_off_c, 9, 50, 0
17, 4031, Note_off_c, 9, 48, 0
17, 4128, Note_on_c, 9, 50, 80
17, 4128, Note_on_c, 9, 48, 80
17, 4175, Note_off_c, 9, 50, 0
17, 4175, Note_off_c, 9, 48, 0
17, 4176, Note_on_c, 9, 47, 80
17, 4176, Note_on_c, 9, 45, 80
17, 4223, Note_off_c, 9, 47, 0
17, 4223, Note_off_c, 9, 45, 0
17, 4272, Note_on_c, 9, 47, 80
17, 4272, Note_on_c, 9, 45, 80
17, 4319, Note_off_c, 9, 47, 0
17, 4319, Note_off_c, 9, 45, 0
17, 4368, Note_on_c, 9, 47, 80
17, 4368, Note_on_c, 9, 45, 80
17, 4415, Note_off_c, 9, 47, 0
17, 4415, Note_off_c, 9, 45, 0
17, 4464, Note_on_c, 9, 47, 80
17, 4464, Note_on_c, 9, 45, 80
17, 4511, Note_off_c, 9, 47, 0
17, 4511, Note_off_c, 9, 45, 0
17, 4512, Note_on_c, 9, 48, 80
17, 4535, Note_off_c, 9, 48, 0
17, 4536, Note_on_c, 9, 48, 80
17, 4559, Note_off_c, 9, 48, 0
17, 4560, Note_on_c, 9, 48, 80
17, 4583, Note_off_c, 9, 48, 0
17, 4584, Note_on_c, 9, 48, 80
17, 4607, Note_off_c, 9, 48, 0
17, 4608, Note_on_c, 9, 47, 80
17, 4655, Note_off_c, 9, 47, 0
17, 4656, Note_on_c, 9, 48, 80
17, 4679, Note_off_c, 9, 48, 0
17, 4680, Note_on_c, 9, 48, 80
17, 4703, Note_off_c, 9, 48, 0
17, 4704, Note_on_c, 9, 50, 80
17, 4751, Note_off_c, 9, 50, 0
17, 4752, Note_on_c, 9, 48, 80
17, 4799, Note_off_c, 9, 48, 0
17, 4800, Note_on_c, 9, 47, 80
17, 4847, Note_off_c, 9, 47, 0
17, 4848, Note_on_c, 9, 48, 80
17, 4871, Note_off_c, 9, 48, 0
17, 4872, Note_on_c, 9, 48, 80
17, 4895, Note_off_c, 9, 48, 0
17, 4896, Note_on_c, 9, 50, 80
17, 4943, Note_off_c, 9, 50, 0
17, 4944, Note_on_c, 9, 48, 80
17, 4991, Note_off_c, 9, 48, 0
17, 4992, Note_on_c, 9, 47, 80
17, 5039, Note_off_c, 9, 47, 0
17, 5040, Note_on_c, 9, 48, 80
17, 5063, Note_off_c, 9, 48, 0
17, 5064, Note_on_c, 9, 48, 80
17, 5087, Note_off_c, 9, 48, 0
17, 5088, Note_on_c, 9, 50, 80
17, 5135, Note_off_c, 9, 50, 0
17, 5136, Note_on_c, 9, 48, 80
17, 5183, Note_off_c, 9, 48, 0
17, 5184, Note_on_c, 9, 50, 80
17, 5207, Note_off_c, 9, 50, 0
17, 5208, Note_on_c, 9, 50, 80
17, 5231, Note_off_c, 9, 50, 0
17, 5232, Note_on_c, 9, 48, 80
17, 5279, Note_off_c, 9, 48, 0
17, 5280, Note_on_c, 9, 47, 80
17, 5327, Note_off_c, 9, 47, 0
17, 5328, Note_on_c, 9, 45, 80
17, 5375, Note_off_c, 9, 45, 0
17, 5376, Note_on_c, 9, 47, 80
17, 5423, Note_off_c, 9, 47, 0
17, 5424, Note_on_c, 9, 48, 80
17, 5447, Note_off_c, 9, 48, 0
17, 5448, Note_on_c, 9, 48, 80
17, 5471, Note_off_c, 9, 48, 0
17, 5472, Note_on_c, 9, 50, 80
17, 5519, Note_off_c, 9, 50, 0
17, 5520, Note_on_c, 9, 48, 80
17, 5567, Note_off_c, 9, 48, 0
17, 5568, Note_on_c, 9, 47, 80
17, 5615, Note_off_c, 9, 47, 0
17, 5616, Note_on_c, 9, 48, 80
17, 5639, Note_off_c, 9, 48, 0
17, 5640, Note_on_c, 9, 48, 80
17, 5663, Note_off_c, 9, 48, 0
17, 5664, Note_on_c, 9, 50, 80
17, 5711, Note_off_c, 9, 50, 0
17, 5712, Note_on_c, 9, 48, 80
17, 5759, Note_off_c, 9, 48, 0
17, 5760, Note_on_c, 9, 47, 80
17, 5807, Note_off_c, 9, 47, 0
17, 5808, Note_on_c, 9, 48, 80
17, 5831, Note_off_c, 9, 48, 0
17, 5832, Note_on_c, 9, 48, 80
17, 5855, Note_off_c, 9, 48, 0
17, 5856, Note_on_c, 9, 50, 80
17, 5903, Note_off_c, 9, 50, 0
17, 5904, Note_on_c, 9, 48, 80
17, 5951, Note_off_c, 9, 48, 0
17, 5952, Note_on_c, 9, 50, 80
17, 5975, Note_off_c, 9, 50, 0
17, 5976, Note_on_c, 9, 50, 80
17, 5999, Note_off_c, 9, 50, 0
17, 6000, Note_on_c, 9, 48, 80
17, 6047, Note_off_c, 9, 48, 0
17, 6048, Note_on_c, 9, 47, 80
17, 6095, Note_off_c, 9, 47, 0
17, 6096, Note_on_c, 9, 45, 80
17, 6143, Note_off_c, 9, 45, 0
17, 6144, Note_on_c, 9, 47, 80
17, 6144, Note_on_c, 9, 45, 80
17, 6191, Note_off_c, 9, 47, 0
17, 6191, Note_off_c, 9, 45, 0
17, 6192, Note_on_c, 9, 47, 80
17, 6192, Note_on_c, 9, 45, 80
17, 6239, Note_off_c, 9, 47, 0
17, 6239, Note_off_c, 9, 45, 0
17, 6240, Note_on_c, 9, 47, 80
17, 6240, Note_on_c, 9, 45, 80
17, 6287, Note_off_c, 9, 47, 0
17, 6287, Note_off_c, 9, 45, 0
17, 6288, Note_on_c, 9, 47, 80
17, 6288, Note_on_c, 9, 45, 80
17, 6335, Note_off_c, 9, 47, 0
17, 6335, Note_off_c, 9, 45, 0
17, 6336, Note_on_c, 9, 47, 80
17, 6336, Note_on_c, 9, 45, 80
17, 6383, Note_off_c, 9, 47, 0
17, 6383, Note_off_c, 9, 45, 0
17, 6384, Note_on_c, 9, 47, 80
17, 6384, Note_on_c, 9, 45, 80
17, 6431, Note_off_c, 9, 47, 0
17, 6431, Note_off_c, 9, 45, 0
17, 6432, Note_on_c, 9, 47, 80
17, 6432, Note_on_c, 9, 45, 80
17, 6479, Note_off_c, 9, 47, 0
17, 6479, Note_off_c, 9, 45, 0
17, 6480, Note_on_c, 9, 47, 80
17, 6480, Note_on_c, 9, 45, 80
17, 6527, Note_off_c, 9, 47, 0
17, 6527, Note_off_c, 9, 45, 0
17, 6528, Note_on_c, 9, 47, 80
17, 6528, Note_on_c, 9, 45, 80
17, 6575, Note_off_c, 9, 47, 0
17, 6575, Note_off_c, 9, 45, 0
17, 6576, Note_on_c, 9, 47, 80
17, 6576, Note_on_c, 9, 45, 80
17, 6623, Note_off_c, 9, 47, 0
17, 6623, Note_off_c, 9, 45, 0
17, 6624, Note_on_c, 9, 47, 80
17, 6624, Note_on_c, 9, 45, 80
17, 6671, Note_off_c, 9, 47, 0
17, 6671, Note_off_c, 9, 45, 0
17, 6672, Note_on_c, 9, 47, 80
17, 6672, Note_on_c, 9, 45, 80
17, 6719, Note_off_c, 9, 47, 0
17, 6719, Note_off_c, 9, 45, 0
17, 6720, Note_on_c, 9, 47, 80
17, 6720, Note_on_c, 9, 45, 80
17, 6767, Note_off_c, 9, 47, 0
17, 6767, Note_off_c, 9, 45, 0
17, 6768, Note_on_c, 9, 47, 80
17, 6768, Note_on_c, 9, 45, 80
17, 6815, Note_off_c, 9, 47, 0
17, 6815, Note_off_c, 9, 45, 0
17, 6816, Note_on_c, 9, 47, 80
17, 6816, Note_on_c, 9, 45, 80
17, 6863, Note_off_c, 9, 47, 0
17, 6863, Note_off_c, 9, 45, 0
17, 6864, Note_on_c, 9, 47, 80
17, 6864, Note_on_c, 9, 45, 80
17, 6911, Note_off_c, 9, 47, 0
17, 6911, Note_off_c, 9, 45, 0
17, 6912, Note_on_c, 9, 50, 80
17, 6935, Note_off_c, 9, 50, 0
17, 6936, Note_on_c, 9, 50, 80
17, 6959, Note_off_c, 9, 50, 0
17, 6960, Note_on_c, 9, 50, 80
17, 6983, Note_off_c, 9, 50, 0
17, 6984, Note_on_c, 9, 50, 80
17, 7007, Note_off_c, 9, 50, 0
17, 7008, Note_on_c, 9, 48, 80
17, 7031, Note_off_c, 9, 48, 0
17, 7032, Note_on_c, 9, 48, 80
17, 7055, Note_off_c, 9, 48, 0
17, 7056, Note_on_c, 9, 48, 80
17, 7079, Note_off_c, 9, 48, 0
17, 7080, Note_on_c, 9, 48, 80
17, 7103, Note_off_c, 9, 48, 0
17, 7104, Note_on_c, 9, 47, 80
17, 7127, Note_off_c, 9, 47, 0
17, 7128, Note_on_c, 9, 47, 80
17, 7151, Note_off_c, 9, 47, 0
17, 7152, Note_on_c, 9, 47, 80
17, 7175, Note_off_c, 9, 47, 0
17, 7176, Note_on_c, 9, 47, 80
17, 7199, Note_off_c, 9, 47, 0
17, 7200, Note_on_c, 9, 45, 80
17, 7223, Note_off_c, 9, 45, 0
17, 7224, Note_on_c, 9, 45, 80
17, 7247, Note_off_c, 9, 45, 0
17, 7248, Note_on_c, 9, 45, 80
17, 7271, Note_off_c, 9, 45, 0
17, 7272, Note_on_c, 9, 45, 80
17, 7295, Note_off_c, 9, 45, 0
17, 7296, Note_on_c, 9, 50, 80
17, 7343, Note_off_c, 9, 50, 0
17, 7344, Note_on_c, 9, 45, 80
17, 7391, Note_off_c, 9, 45, 0
17, 7392, Note_on_c, 9, 50, 80
17, 7487, Note_off_c, 9, 50, 0
17, 7488, Note_on_c, 9, 48, 80
17, 7511, Note_off_c, 9, 48, 0
17, 7512, Note_on_c, 9, 48, 80
17, 7535, Note_off_c, 9, 48, 0
17, 7536, Note_on_c, 9, 48, 80
17, 7559, Note_off_c, 9, 48, 0
17, 7560, Note_on_c, 9, 48, 80
17, 7583, Note_off_c, 9, 48, 0
17, 7584, Note_on_c, 9, 50, 80
17, 7607, Note_off_c, 9, 50, 0
17, 7608, Note_on_c, 9, 48, 80
17, 7631, Note_off_c, 9, 48, 0
17, 7632, Note_on_c, 9, 47, 80
17, 7655, Note_off_c, 9, 47, 0
17, 7656, Note_on_c, 9, 45, 80
17, 7679, Note_off_c, 9, 45, 0
17, 7776, Note_on_c, 9, 50, 80
17, 7776, Note_on_c, 9, 48, 80
17, 7823, Note_off_c, 9, 50, 0
17, 7823, Note_off_c, 9, 48, 0
17, 7824, Note_on_c, 9, 47, 80
17, 7824, Note_on_c, 9, 45, 80
17, 7871, Note_off_c, 9, 47, 0
17, 7871, Note_off_c, 9, 45, 0
17, 7872, Note_on_c, 9, 47, 80
17, 7872, Note_on_c, 9, 45, 80
17, 7919, Note_off_c, 9, 45, 0
17, 7919, Note_off_c, 9, 47, 0
17, 7920, Note_on_c, 9, 47, 80
17, 7920, Note_on_c, 9, 45, 80
17, 7967, Note_off_c, 9, 47, 0
17, 7967, Note_off_c, 9, 45, 0
17, 7968, Note_on_c, 9, 50, 80
17, 7968, Note_on_c, 9, 48, 80
17, 8015, Note_off_c, 9, 50, 0
17, 8015, Note_off_c, 9, 48, 0
17, 8016, Note_on_c, 9, 47, 80
17, 8016, Note_on_c, 9, 45, 80
17, 8063, Note_off_c, 9, 47, 0
17, 8063, Note_off_c, 9, 45, 0
17, 8112, Note_on_c, 9, 47, 80
17, 8112, Note_on_c, 9, 45, 80
17, 8159, Note_off_c, 9, 47, 0
17, 8159, Note_off_c, 9, 45, 0
17, 8160, Note_on_c, 9, 50, 80
17, 8160, Note_on_c, 9, 48, 80
17, 8207, Note_off_c, 9, 50, 0
17, 8207, Note_off_c, 9, 48, 0
17, 8208, Note_on_c, 9, 47, 80
17, 8208, Note_on_c, 9, 45, 80
17, 8255, Note_off_c, 9, 47, 0
17, 8255, Note_off_c, 9, 45, 0
17, 8304, Note_on_c, 9, 48, 80
17, 8351, Note_off_c, 9, 48, 0
17, 8352, Note_on_c, 9, 50, 80
17, 8375, Note_off_c, 9, 50, 0
17, 8376, Note_on_c, 9, 50, 80
17, 8399, Note_off_c, 9, 50, 0
17, 8400, Note_on_c, 9, 50, 80
17, 8423, Note_off_c, 9, 50, 0
17, 8424, Note_on_c, 9, 50, 80
17, 8447, Note_off_c, 9, 50, 0
17, 8544, Note_on_c, 9, 50, 80
17, 8544, Note_on_c, 9, 48, 80
17, 8591, Note_off_c, 9, 50, 0
17, 8591, Note_off_c, 9, 48, 0
17, 8592, Note_on_c, 9, 47, 80
17, 8592, Note_on_c, 9, 45, 80
17, 8639, Note_off_c, 9, 47, 0
17, 8639, Note_off_c, 9, 45, 0
17, 8640, Note_on_c, 9, 47, 80
17, 8640, Note_on_c, 9, 45, 80
17, 8687, Note_off_c, 9, 45, 0
17, 8687, Note_off_c, 9, 47, 0
17, 8688, Note_on_c, 9, 47, 80
17, 8688, Note_on_c, 9, 45, 80
17, 8735, Note_off_c, 9, 47, 0
17, 8735, Note_off_c, 9, 45, 0
17, 8736, Note_on_c, 9, 50, 80
17, 8736, Note_on_c, 9, 48, 80
17, 8783, Note_off_c, 9, 50, 0
17, 8783, Note_off_c, 9, 48, 0
17, 8784, Note_on_c, 9, 47, 80
17, 8784, Note_on_c, 9, 45, 80
17, 8831, Note_off_c, 9, 47, 0
17, 8831, Note_off_c, 9, 45, 0
17, 8880, Note_on_c, 9, 47, 80
17, 8880, Note_on_c, 9, 45, 80
17, 8927, Note_off_c, 9, 47, 0
17, 8927, Note_off_c, 9, 45, 0
17, 8928, Note_on_c, 9, 50, 80
17, 8928, Note_on_c, 9, 48, 80
17, 8975, Note_off_c, 9, 50, 0
17, 8975, Note_off_c, 9, 48, 0
17, 8976, Note_on_c, 9, 47, 80
17, 8976, Note_on_c, 9, 45, 80
17, 9023, Note_off_c, 9, 47, 0
17, 9023, Note_off_c, 9, 45, 0
17, 9072, Note_on_c, 9, 48, 80
17, 9119, Note_off_c, 9, 48, 0
17, 9120, Note_on_c, 9, 50, 80
17, 9143, Note_off_c, 9, 50, 0
17, 9144, Note_on_c, 9, 50, 80
17, 9167, Note_off_c, 9, 50, 0
17, 9168, Note_on_c, 9, 50, 80
17, 9191, Note_off_c, 9, 50, 0
17, 9192, Note_on_c, 9, 50, 80
17, 9215, Note_off_c, 9, 50, 0
17, 9312, Note_on_c, 9, 50, 80
17, 9312, Note_on_c, 9, 48, 80
17, 9359, Note_off_c, 9, 50, 0
17, 9359, Note_off_c, 9, 48, 0
17, 9360, Note_on_c, 9, 47, 80
17, 9360, Note_on_c, 9, 45, 80
17, 9407, Note_off_c, 9, 47, 0
17, 9407, Note_off_c, 9, 45, 0
17, 9408, Note_on_c, 9, 47, 80
17, 9408, Note_on_c, 9, 45, 80
17, 9455, Note_off_c, 9, 45, 0
17, 9455, Note_off_c, 9, 47, 0
17, 9456, Note_on_c, 9, 47, 80
17, 9456, Note_on_c, 9, 45, 80
17, 9503, Note_off_c, 9, 47, 0
17, 9503, Note_off_c, 9, 45, 0
17, 9504, Note_on_c, 9, 50, 80
17, 9504, Note_on_c, 9, 48, 80
17, 9551, Note_off_c, 9, 50, 0
17, 9551, Note_off_c, 9, 48, 0
17, 9552, Note_on_c, 9, 47, 80
17, 9552, Note_on_c, 9, 45, 80
17, 9599, Note_off_c, 9, 47, 0
17, 9599, Note_off_c, 9, 45, 0
17, 9648, Note_on_c, 9, 47, 80
17, 9648, Note_on_c, 9, 45, 80
17, 9695, Note_off_c, 9, 47, 0
17, 9695, Note_off_c, 9, 45, 0
17, 9696, Note_on_c, 9, 50, 80
17, 9696, Note_on_c, 9, 48, 80
17, 9743, Note_off_c, 9, 50, 0
17, 9743, Note_off_c, 9, 48, 0
17, 9744, Note_on_c, 9, 47, 80
17, 9744, Note_on_c, 9, 45, 80
17, 9791, Note_off_c, 9, 47, 0
17, 9791, Note_off_c, 9, 45, 0
17, 9840, Note_on_c, 9, 48, 80
17, 9887, Note_off_c, 9, 48, 0
17, 9888, Note_on_c, 9, 50, 80
17, 9911, Note_off_c, 9, 50, 0
17, 9912, Note_on_c, 9, 50, 80
17, 9935, Note_off_c, 9, 50, 0
17, 9936, Note_on_c, 9, 50, 80
17, 9959, Note_off_c, 9, 50, 0
17, 9960, Note_on_c, 9, 50, 80
17, 9983, Note_off_c, 9, 50, 0
17, 10080, Note_on_c, 9, 50, 80
17, 10080, Note_on_c, 9, 48, 80
17, 10127, Note_off_c, 9, 50, 0
17, 10127, Note_off_c, 9, 48, 0
17, 10128, Note_on_c, 9, 47, 80
17, 10128, Note_on_c, 9, 45, 80
17, 10175, Note_off_c, 9, 47, 0
17, 10175, Note_off_c, 9, 45, 0
17, 10176, Note_on_c, 9, 47, 80
17, 10176, Note_on_c, 9, 45, 80
17, 10223, Note_off_c, 9, 45, 0
17, 10223, Note_off_c, 9, 47, 0
17, 10224, Note_on_c, 9, 47, 80
17, 10224, Note_on_c, 9, 45, 80
17, 10271, Note_off_c, 9, 47, 0
17, 10271, Note_off_c, 9, 45, 0
17, 10272, Note_on_c, 9, 50, 80
17, 10272, Note_on_c, 9, 48, 80
17, 10367, Note_off_c, 9, 50, 0
17, 10367, Note_off_c, 9, 48, 0
17, 10368, Note_on_c, 9, 50, 80
17, 10391, Note_off_c, 9, 50, 0
17, 10392, Note_on_c, 9, 48, 80
17, 10415, Note_off_c, 9, 48, 0
17, 10416, Note_on_c, 9, 48, 80
17, 10439, Note_off_c, 9, 48, 0
17, 10440, Note_on_c, 9, 48, 80
17, 10463, Note_off_c, 9, 48, 0
17, 10464, Note_on_c, 9, 48, 80
17, 10487, Note_off_c, 9, 48, 0
17, 10488, Note_on_c, 9, 48, 80
17, 10511, Note_off_c, 9, 48, 0
17, 10512, Note_on_c, 9, 50, 80
17, 10535, Note_off_c, 9, 50, 0
17, 10536, Note_on_c, 9, 48, 80
17, 10559, Note_off_c, 9, 48, 0
17, 10560, Note_on_c, 9, 48, 80
17, 10583, Note_off_c, 9, 48, 0
17, 10584, Note_on_c, 9, 48, 80
17, 10607, Note_off_c, 9, 48, 0
17, 10608, Note_on_c, 9, 48, 80
17, 10631, Note_off_c, 9, 48, 0
17, 10632, Note_on_c, 9, 48, 80
17, 10655, Note_off_c, 9, 48, 0
17, 10656, Note_on_c, 9, 47, 80
17, 10703, Note_off_c, 9, 47, 0
17, 10704, Note_on_c, 9, 45, 80
17, 10751, Note_off_c, 9, 45, 0
17, 10752, Note_on_c, 9, 47, 80
17, 10752, Note_on_c, 9, 45, 80
17, 10752, Note_on_c, 9, 37, 80
17, 10847, Note_off_c, 9, 47, 0
17, 10847, Note_off_c, 9, 45, 0
17, 10847, Note_off_c, 9, 37, 0
17, 10848, Note_on_c, 9, 47, 80
17, 10848, Note_on_c, 9, 37, 80
17, 10848, Note_on_c, 9, 45, 80
17, 10943, Note_off_c, 9, 47, 0
17, 10943, Note_off_c, 9, 37, 0
17, 10943, Note_off_c, 9, 45, 0
17, 10944, Note_on_c, 9, 47, 80
17, 10944, Note_on_c, 9, 37, 80
17, 10944, Note_on_c, 9, 45, 80
17, 11039, Note_off_c, 9, 47, 0
17, 11039, Note_off_c, 9, 37, 0
17, 11039, Note_off_c, 9, 45, 0
17, 11040, Note_on_c, 9, 47, 80
17, 11040, Note_on_c, 9, 37, 80
17, 11040, Note_on_c, 9, 45, 80
17, 11135, Note_off_c, 9, 47, 0
17, 11135, Note_off_c, 9, 37, 0
17, 11135, Note_off_c, 9, 45, 0
17, 11136, Note_on_c, 9, 47, 80
17, 11136, Note_on_c, 9, 37, 80
17, 11136, Note_on_c, 9, 45, 80
17, 11231, Note_off_c, 9, 47, 0
17, 11231, Note_off_c, 9, 37, 0
17, 11231, Note_off_c, 9, 45, 0
17, 11232, Note_on_c, 9, 47, 80
17, 11232, Note_on_c, 9, 37, 80
17, 11232, Note_on_c, 9, 45, 80
17, 11327, Note_off_c, 9, 47, 0
17, 11327, Note_off_c, 9, 37, 0
17, 11327, Note_off_c, 9, 45, 0
17, 11328, Note_on_c, 9, 50, 80
17, 11375, Note_off_c, 9, 50, 0
17, 11376, Note_on_c, 9, 48, 80
17, 11423, Note_off_c, 9, 48, 0
17, 11424, Note_on_c, 9, 50, 80
17, 11447, Note_off_c, 9, 50, 0
17, 11448, Note_on_c, 9, 48, 80
17, 11471, Note_off_c, 9, 48, 0
17, 11472, Note_on_c, 9, 48, 80
17, 11495, Note_off_c, 9, 48, 0
17, 11496, Note_on_c, 9, 48, 80
17, 11519, Note_off_c, 9, 48, 0
17, 11520, Note_on_c, 9, 50, 80
17, 11615, Note_off_c, 9, 50, 0
17, 11712, Note_on_c, 9, 50, 80
17, 11759, Note_off_c, 9, 50, 0
17, 11760, Note_on_c, 9, 48, 80
17, 11783, Note_off_c, 9, 48, 0
17, 11784, Note_on_c, 9, 47, 80
17, 11807, Note_off_c, 9, 47, 0
17, 11808, Note_on_c, 9, 45, 80
17, 11855, Note_off_c, 9, 45, 0
17, 11856, Note_on_c, 9, 50, 80
17, 11903, Note_off_c, 9, 50, 0
17, 12096, Note_on_c, 9, 50, 80
17, 12143, Note_off_c, 9, 50, 0
17, 12144, Note_on_c, 9, 48, 80
17, 12167, Note_off_c, 9, 48, 0
17, 12168, Note_on_c, 9, 47, 80
17, 12191, Note_off_c, 9, 47, 0
17, 12192, Note_on_c, 9, 45, 80
17, 12239, Note_off_c, 9, 45, 0
17, 12240, Note_on_c, 9, 50, 80
17, 12287, Note_off_c, 9, 50, 0
17, 12288, Note_on_c, 9, 45, 80
17, 12335, Note_off_c, 9, 45, 0
17, 12336, Note_on_c, 9, 47, 80
17, 12336, Note_on_c, 9, 45, 80
17, 12383, Note_off_c, 9, 47, 0
17, 12383, Note_off_c, 9, 45, 0
17, 12384, Note_on_c, 9, 47, 80
17, 12384, Note_on_c, 9, 45, 80
17, 12431, Note_off_c, 9, 47, 0
17, 12431, Note_off_c, 9, 45, 0
17, 12432, Note_on_c, 9, 47, 80
17, 12432, Note_on_c, 9, 45, 80
17, 12479, Note_off_c, 9, 47, 0
17, 12479, Note_off_c, 9, 45, 0
17, 12480, Note_on_c, 9, 48, 80
17, 12527, Note_off_c, 9, 48, 0
17, 12528, Note_on_c, 9, 48, 80
17, 12575, Note_off_c, 9, 48, 0
17, 12576, Note_on_c, 9, 50, 80
17, 12599, Note_off_c, 9, 50, 0
17, 12600, Note_on_c, 9, 48, 80
17, 12623, Note_off_c, 9, 48, 0
17, 12624, Note_on_c, 9, 48, 80
17, 12647, Note_off_c, 9, 48, 0
17, 12648, Note_on_c, 9, 48, 80
17, 12671, Note_off_c, 9, 48, 0
17, 12768, Note_on_c, 9, 47, 80
17, 12768, Note_on_c, 9, 45, 80
17, 12863, Note_off_c, 9, 47, 0
17, 12863, Note_off_c, 9, 45, 0
17, 12864, Note_on_c, 9, 47, 80
17, 12911, Note_off_c, 9, 47, 0
17, 12912, Note_on_c, 9, 48, 80
17, 12935, Note_off_c, 9, 48, 0
17, 12936, Note_on_c, 9, 48, 80
17, 12959, Note_off_c, 9, 48, 0
17, 12960, Note_on_c, 9, 50, 80
17, 13007, Note_off_c, 9, 50, 0
17, 13008, Note_on_c, 9, 48, 80
17, 13055, Note_off_c, 9, 48, 0
17, 13056, Note_on_c, 9, 47, 80
17, 13103, Note_off_c, 9, 47, 0
17, 13104, Note_on_c, 9, 48, 80
17, 13127, Note_off_c, 9, 48, 0
17, 13128, Note_on_c, 9, 48, 80
17, 13151, Note_off_c, 9, 48, 0
17, 13152, Note_on_c, 9, 50, 80
17, 13199, Note_off_c, 9, 50, 0
17, 13200, Note_on_c, 9, 48, 80
17, 13247, Note_off_c, 9, 48, 0
17, 13248, Note_on_c, 9, 50, 80
17, 13271, Note_off_c, 9, 50, 0
17, 13272, Note_on_c, 9, 50, 80
17, 13295, Note_off_c, 9, 50, 0
17, 13296, Note_on_c, 9, 48, 80
17, 13343, Note_off_c, 9, 48, 0
17, 13344, Note_on_c, 9, 47, 80
17, 13391, Note_off_c, 9, 47, 0
17, 13392, Note_on_c, 9, 45, 80
17, 13439, Note_off_c, 9, 45, 0
17, 13440, Note_on_c, 9, 47, 80
17, 13487, Note_off_c, 9, 47, 0
17, 13488, Note_on_c, 9, 48, 80
17, 13511, Note_off_c, 9, 48, 0
17, 13512, Note_on_c, 9, 48, 80
17, 13535, Note_off_c, 9, 48, 0
17, 13536, Note_on_c, 9, 50, 80
17, 13583, Note_off_c, 9, 50, 0
17, 13584, Note_on_c, 9, 48, 80
17, 13631, Note_off_c, 9, 48, 0
17, 13632, Note_on_c, 9, 47, 80
17, 13679, Note_off_c, 9, 47, 0
17, 13680, Note_on_c, 9, 48, 80
17, 13703, Note_off_c, 9, 48, 0
17, 13704, Note_on_c, 9, 48, 80
17, 13727, Note_off_c, 9, 48, 0
17, 13728, Note_on_c, 9, 50, 80
17, 13775, Note_off_c, 9, 50, 0
17, 13776, Note_on_c, 9, 48, 80
17, 13823, Note_off_c, 9, 48, 0
17, 13824, Note_on_c, 9, 47, 80
17, 13871, Note_off_c, 9, 47, 0
17, 13872, Note_on_c, 9, 48, 80
17, 13895, Note_off_c, 9, 48, 0
17, 13896, Note_on_c, 9, 48, 80
17, 13919, Note_off_c, 9, 48, 0
17, 13920, Note_on_c, 9, 50, 80
17, 13967, Note_off_c, 9, 50, 0
17, 13968, Note_on_c, 9, 48, 80
17, 14015, Note_off_c, 9, 48, 0
17, 14016, Note_on_c, 9, 50, 80
17, 14039, Note_off_c, 9, 50, 0
17, 14040, Note_on_c, 9, 50, 80
17, 14063, Note_off_c, 9, 50, 0
17, 14064, Note_on_c, 9, 48, 80
17, 14111, Note_off_c, 9, 48, 0
17, 14112, Note_on_c, 9, 47, 80
17, 14159, Note_off_c, 9, 47, 0
17, 14160, Note_on_c, 9, 45, 80
17, 14207, Note_off_c, 9, 45, 0
17, 14208, Note_on_c, 9, 47, 80
17, 14208, Note_on_c, 9, 45, 80
17, 14255, Note_off_c, 9, 47, 0
17, 14255, Note_off_c, 9, 45, 0
17, 14256, Note_on_c, 9, 47, 80
17, 14256, Note_on_c, 9, 45, 80
17, 14303, Note_off_c, 9, 47, 0
17, 14303, Note_off_c, 9, 45, 0
17, 14304, Note_on_c, 9, 47, 80
17, 14304, Note_on_c, 9, 45, 80
17, 14351, Note_off_c, 9, 47, 0
17, 14351, Note_off_c, 9, 45, 0
17, 14352, Note_on_c, 9, 47, 80
17, 14352, Note_on_c, 9, 45, 80
17, 14399, Note_off_c, 9, 47, 0
17, 14399, Note_off_c, 9, 45, 0
17, 14400, Note_on_c, 9, 47, 80
17, 14400, Note_on_c, 9, 45, 80
17, 14447, Note_off_c, 9, 47, 0
17, 14447, Note_off_c, 9, 45, 0
17, 14448, Note_on_c, 9, 47, 80
17, 14448, Note_on_c, 9, 45, 80
17, 14495, Note_off_c, 9, 47, 0
17, 14495, Note_off_c, 9, 45, 0
17, 14496, Note_on_c, 9, 47, 80
17, 14496, Note_on_c, 9, 45, 80
17, 14543, Note_off_c, 9, 47, 0
17, 14543, Note_off_c, 9, 45, 0
17, 14544, Note_on_c, 9, 47, 80
17, 14544, Note_on_c, 9, 45, 80
17, 14591, Note_off_c, 9, 47, 0
17, 14591, Note_off_c, 9, 45, 0
17, 14592, Note_on_c, 9, 47, 80
17, 14592, Note_on_c, 9, 45, 80
17, 14639, Note_off_c, 9, 47, 0
17, 14639, Note_off_c, 9, 45, 0
17, 14640, Note_on_c, 9, 47, 80
17, 14640, Note_on_c, 9, 45, 80
17, 14687, Note_off_c, 9, 47, 0
17, 14687, Note_off_c, 9, 45, 0
17, 14688, Note_on_c, 9, 47, 80
17, 14688, Note_on_c, 9, 45, 80
17, 14735, Note_off_c, 9, 47, 0
17, 14735, Note_off_c, 9, 45, 0
17, 14736, Note_on_c, 9, 47, 80
17, 14736, Note_on_c, 9, 45, 80
17, 14783, Note_off_c, 9, 47, 0
17, 14783, Note_off_c, 9, 45, 0
17, 14784, Note_on_c, 9, 47, 80
17, 14784, Note_on_c, 9, 45, 80
17, 14831, Note_off_c, 9, 47, 0
17, 14831, Note_off_c, 9, 45, 0
17, 14832, Note_on_c, 9, 47, 80
17, 14832, Note_on_c, 9, 45, 80
17, 14879, Note_off_c, 9, 47, 0
17, 14879, Note_off_c, 9, 45, 0
17, 14880, Note_on_c, 9, 47, 80
17, 14880, Note_on_c, 9, 45, 80
17, 14927, Note_off_c, 9, 47, 0
17, 14927, Note_off_c, 9, 45, 0
17, 14928, Note_on_c, 9, 47, 80
17, 14928, Note_on_c, 9, 45, 80
17, 14975, Note_off_c, 9, 47, 0
17, 14975, Note_off_c, 9, 45, 0
17, 14976, Note_on_c, 9, 50, 80
17, 14999, Note_off_c, 9, 50, 0
17, 15000, Note_on_c, 9, 50, 80
17, 15023, Note_off_c, 9, 50, 0
17, 15024, Note_on_c, 9, 50, 80
17, 15047, Note_off_c, 9, 50, 0
17, 15048, Note_on_c, 9, 50, 80
17, 15071, Note_off_c, 9, 50, 0
17, 15072, Note_on_c, 9, 48, 80
17, 15095, Note_off_c, 9, 48, 0
17, 15096, Note_on_c, 9, 48, 80
17, 15119, Note_off_c, 9, 48, 0
17, 15120, Note_on_c, 9, 48, 80
17, 15143, Note_off_c, 9, 48, 0
17, 15144, Note_on_c, 9, 48, 80
17, 15167, Note_off_c, 9, 48, 0
17, 15168, Note_on_c, 9, 47, 80
17, 15191, Note_off_c, 9, 47, 0
17, 15192, Note_on_c, 9, 47, 80
17, 15215, Note_off_c, 9, 47, 0
17, 15216, Note_on_c, 9, 47, 80
17, 15239, Note_off_c, 9, 47, 0
17, 15240, Note_on_c, 9, 47, 80
17, 15263, Note_off_c, 9, 47, 0
17, 15264, Note_on_c, 9, 45, 80
17, 15287, Note_off_c, 9, 45, 0
17, 15288, Note_on_c, 9, 45, 80
17, 15311, Note_off_c, 9, 45, 0
17, 15312, Note_on_c, 9, 45, 80
17, 15335, Note_off_c, 9, 45, 0
17, 15336, Note_on_c, 9, 45, 80
17, 15359, Note_off_c, 9, 45, 0
17, 15360, Note_on_c, 9, 50, 80
17, 15407, Note_off_c, 9, 50, 0
17, 15408, Note_on_c, 9, 45, 80
17, 15455, Note_off_c, 9, 45, 0
17, 15456, Note_on_c, 9, 50, 80
17, 15551, Note_off_c, 9, 50, 0
17, 15552, Note_on_c, 9, 48, 80
17, 15575, Note_off_c, 9, 48, 0
17, 15576, Note_on_c, 9, 48, 80
17, 15599, Note_off_c, 9, 48, 0
17, 15600, Note_on_c, 9, 48, 80
17, 15623, Note_off_c, 9, 48, 0
17, 15624, Note_on_c, 9, 48, 80
17, 15647, Note_off_c, 9, 48, 0
17, 15648, Note_on_c, 9, 50, 80
17, 15671, Note_off_c, 9, 50, 0
17, 15672, Note_on_c, 9, 48, 80
17, 15695, Note_off_c, 9, 48, 0
17, 15696, Note_on_c, 9, 47, 80
17, 15719, Note_off_c, 9, 47, 0
17, 15720, Note_on_c, 9, 45, 80
17, 15743, Note_off_c, 9, 45, 0
17, 15744, Note_on_c, 9, 47, 80
17, 15791, Note_off_c, 9, 47, 0
17, 15792, Note_on_c, 9, 48, 80
17, 15815, Note_off_c, 9, 48, 0
17, 15816, Note_on_c, 9, 48, 80
17, 15839, Note_off_c, 9, 48, 0
17, 15840, Note_on_c, 9, 50, 80
17, 15887, Note_off_c, 9, 50, 0
17, 15888, Note_on_c, 9, 48, 80
17, 15935, Note_off_c, 9, 48, 0
17, 15936, Note_on_c, 9, 47, 80
17, 15983, Note_off_c, 9, 47, 0
17, 15984, Note_on_c, 9, 48, 80
17, 16007, Note_off_c, 9, 48, 0
17, 16008, Note_on_c, 9, 48, 80
17, 16031, Note_off_c, 9, 48, 0
17, 16032, Note_on_c, 9, 50, 80
17, 16079, Note_off_c, 9, 50, 0
17, 16080, Note_on_c, 9, 48, 80
17, 16127, Note_off_c, 9, 48, 0
17, 16128, Note_on_c, 9, 47, 80
17, 16175, Note_off_c, 9, 47, 0
17, 16176, Note_on_c, 9, 48, 80
17, 16199, Note_off_c, 9, 48, 0
17, 16200, Note_on_c, 9, 48, 80
17, 16223, Note_off_c, 9, 48, 0
17, 16224, Note_on_c, 9, 50, 80
17, 16271, Note_off_c, 9, 50, 0
17, 16272, Note_on_c, 9, 48, 80
17, 16319, Note_off_c, 9, 48, 0
17, 16320, Note_on_c, 9, 50, 80
17, 16343, Note_off_c, 9, 50, 0
17, 16344, Note_on_c, 9, 50, 80
17, 16367, Note_off_c, 9, 50, 0
17, 16368, Note_on_c, 9, 48, 80
17, 16415, Note_off_c, 9, 48, 0
17, 16416, Note_on_c, 9, 47, 80
17, 16463, Note_off_c, 9, 47, 0
17, 16464, Note_on_c, 9, 45, 80
17, 16511, Note_off_c, 9, 45, 0
17, 16512, Note_on_c, 9, 47, 80
17, 16559, Note_off_c, 9, 47, 0
17, 16560, Note_on_c, 9, 48, 80
17, 16583, Note_off_c, 9, 48, 0
17, 16584, Note_on_c, 9, 48, 80
17, 16607, Note_off_c, 9, 48, 0
17, 16608, Note_on_c, 9, 50, 80
17, 16655, Note_off_c, 9, 50, 0
17, 16656, Note_on_c, 9, 48, 80
17, 16703, Note_off_c, 9, 48, 0
17, 16704, Note_on_c, 9, 47, 80
17, 16751, Note_off_c, 9, 47, 0
17, 16752, Note_on_c, 9, 48, 80
17, 16775, Note_off_c, 9, 48, 0
17, 16776, Note_on_c, 9, 48, 80
17, 16799, Note_off_c, 9, 48, 0
17, 16800, Note_on_c, 9, 50, 80
17, 16847, Note_off_c, 9, 50, 0
17, 16848, Note_on_c, 9, 48, 80
17, 16895, Note_off_c, 9, 48, 0
17, 16896, Note_on_c, 9, 47, 80
17, 16943, Note_off_c, 9, 47, 0
17, 16944, Note_on_c, 9, 48, 80
17, 16967, Note_off_c, 9, 48, 0
17, 16968, Note_on_c, 9, 48, 80
17, 16991, Note_off_c, 9, 48, 0
17, 16992, Note_on_c, 9, 50, 80
17, 17039, Note_off_c, 9, 50, 0
17, 17040, Note_on_c, 9, 48, 80
17, 17087, Note_off_c, 9, 48, 0
17, 17088, Note_on_c, 9, 50, 80
17, 17111, Note_off_c, 9, 50, 0
17, 17112, Note_on_c, 9, 50, 80
17, 17135, Note_off_c, 9, 50, 0
17, 17136, Note_on_c, 9, 48, 80
17, 17183, Note_off_c, 9, 48, 0
17, 17184, Note_on_c, 9, 47, 80
17, 17184, Note_on_c, 9, 45, 80
17, 17279, Note_off_c, 9, 47, 0
17, 17279, Note_off_c, 9, 45, 0
17, 17280, Note_on_c, 9, 45, 80
17, 17303, Note_off_c, 9, 45, 0
17, 17304, Note_on_c, 9, 45, 80
17, 17327, Note_off_c, 9, 45, 0
17, 17328, Note_on_c, 9, 47, 80
17, 17351, Note_off_c, 9, 47, 0
17, 17352, Note_on_c, 9, 47, 80
17, 17375, Note_off_c, 9, 47, 0
17, 17376, Note_on_c, 9, 48, 80
17, 17423, Note_off_c, 9, 48, 0
17, 17424, Note_on_c, 9, 50, 80
17, 17471, Note_off_c, 9, 50, 0
17, 17472, Note_on_c, 9, 45, 80
17, 17495, Note_off_c, 9, 45, 0
17, 17496, Note_on_c, 9, 45, 80
17, 17519, Note_off_c, 9, 45, 0
17, 17520, Note_on_c, 9, 47, 80
17, 17543, Note_off_c, 9, 47, 0
17, 17544, Note_on_c, 9, 47, 80
17, 17567, Note_off_c, 9, 47, 0
17, 17568, Note_on_c, 9, 48, 80
17, 17615, Note_off_c, 9, 48, 0
17, 17616, Note_on_c, 9, 50, 80
17, 17663, Note_off_c, 9, 50, 0
17, 17664, Note_on_c, 9, 45, 80
17, 17687, Note_off_c, 9, 45, 0
17, 17688, Note_on_c, 9, 45, 80
17, 17711, Note_off_c, 9, 45, 0
17, 17712, Note_on_c, 9, 45, 80
17, 17735, Note_off_c, 9, 45, 0
17, 17736, Note_on_c, 9, 45, 80
17, 17759, Note_off_c, 9, 45, 0
17, 17760, Note_on_c, 9, 47, 80
17, 17783, Note_off_c, 9, 47, 0
17, 17784, Note_on_c, 9, 47, 80
17, 17807, Note_off_c, 9, 47, 0
17, 17808, Note_on_c, 9, 47, 80
17, 17831, Note_off_c, 9, 47, 0
17, 17832, Note_on_c, 9, 47, 80
17, 17855, Note_off_c, 9, 47, 0
17, 17856, Note_on_c, 9, 48, 80
17, 17879, Note_off_c, 9, 48, 0
17, 17880, Note_on_c, 9, 48, 80
17, 17903, Note_off_c, 9, 48, 0
17, 17904, Note_on_c, 9, 48, 80
17, 17927, Note_off_c, 9, 48, 0
17, 17928, Note_on_c, 9, 48, 80
17, 17951, Note_off_c, 9, 48, 0
17, 17952, Note_on_c, 9, 50, 80
17, 17975, Note_off_c, 9, 50, 0
17, 17976, Note_on_c, 9, 50, 80
17, 17999, Note_off_c, 9, 50, 0
17, 18000, Note_on_c, 9, 50, 80
17, 18023, Note_off_c, 9, 50, 0
17, 18024, Note_on_c, 9, 50, 80
17, 18047, Note_off_c, 9, 50, 0
17, 18048, Note_on_c, 9, 50, 80
17, 18095, Note_off_c, 9, 50, 0
17, 18096, Note_on_c, 9, 45, 80
17, 18143, Note_off_c, 9, 45, 0
17, 18144, Note_on_c, 9, 47, 80
17, 18144, Note_on_c, 9, 45, 80
17, 18191, Note_off_c, 9, 47, 0
17, 18191, Note_off_c, 9, 45, 0
17, 18192, Note_on_c, 9, 47, 80
17, 18192, Note_on_c, 9, 45, 80
17, 18239, Note_off_c, 9, 47, 0
17, 18239, Note_off_c, 9, 45, 0
17, 18240, Note_on_c, 9, 47, 80
17, 18240, Note_on_c, 9, 45, 80
17, 18287, Note_off_c, 9, 47, 0
17, 18287, Note_off_c, 9, 45, 0
17, 18288, Note_on_c, 9, 47, 80
17, 18288, Note_on_c, 9, 45, 80
17, 18335, Note_off_c, 9, 47, 0
17, 18335, Note_off_c, 9, 45, 0
17, 18336, Note_on_c, 9, 47, 80
17, 18336, Note_on_c, 9, 45, 80
17, 18383, Note_off_c, 9, 47, 0
17, 18383, Note_off_c, 9, 45, 0
17, 18384, Note_on_c, 9, 47, 80
17, 18384, Note_on_c, 9, 45, 80
17, 18431, Note_off_c, 9, 47, 0
17, 18431, Note_off_c, 9, 45, 0
17, 18432, Note_on_c, 9, 47, 80
17, 18432, Note_on_c, 9, 45, 80
17, 18479, Note_off_c, 9, 47, 0
17, 18479, Note_off_c, 9, 45, 0
17, 18480, Note_on_c, 9, 47, 80
17, 18480, Note_on_c, 9, 45, 80
17, 18527, Note_off_c, 9, 47, 0
17, 18527, Note_off_c, 9, 45, 0
17, 18528, Note_on_c, 9, 47, 80
17, 18528, Note_on_c, 9, 45, 80
17, 18575, Note_off_c, 9, 47, 0
17, 18575, Note_off_c, 9, 45, 0
17, 18576, Note_on_c, 9, 47, 80
17, 18576, Note_on_c, 9, 45, 80
17, 18623, Note_off_c, 9, 47, 0
17, 18623, Note_off_c, 9, 45, 0
17, 18624, Note_on_c, 9, 50, 80
17, 18647, Note_off_c, 9, 50, 0
17, 18648, Note_on_c, 9, 48, 80
17, 18671, Note_off_c, 9, 48, 0
17, 18672, Note_on_c, 9, 48, 80
17, 18695, Note_off_c, 9, 48, 0
17, 18696, Note_on_c, 9, 48, 80
17, 18719, Note_off_c, 9, 48, 0
17, 18720, Note_on_c, 9, 50, 80
17, 18815, Note_off_c, 9, 50, 0
17, 18816, Note_on_c, 9, 47, 80
17, 18816, Note_on_c, 9, 45, 80
17, 18863, Note_off_c, 9, 47, 0
17, 18863, Note_off_c, 9, 45, 0
17, 18864, Note_on_c, 9, 47, 80
17, 18864, Note_on_c, 9, 45, 80
17, 18911, Note_off_c, 9, 47, 0
17, 18911, Note_off_c, 9, 45, 0
17, 18912, Note_on_c, 9, 47, 80
17, 18912, Note_on_c, 9, 45, 80
17, 18959, Note_off_c, 9, 47, 0
17, 18959, Note_off_c, 9, 45, 0
17, 18960, Note_on_c, 9, 47, 80
17, 18960, Note_on_c, 9, 45, 80
17, 19007, Note_off_c, 9, 47, 0
17, 19007, Note_off_c, 9, 45, 0
17, 19008, Note_on_c, 9, 47, 80
17, 19008, Note_on_c, 9, 45, 80
17, 19055, Note_off_c, 9, 47, 0
17, 19055, Note_off_c, 9, 45, 0
17, 19056, Note_on_c, 9, 47, 80
17, 19056, Note_on_c, 9, 45, 80
17, 19103, Note_off_c, 9, 47, 0
17, 19103, Note_off_c, 9, 45, 0
17, 19104, Note_on_c, 9, 47, 80
17, 19104, Note_on_c, 9, 45, 80
17, 19151, Note_off_c, 9, 47, 0
17, 19151, Note_off_c, 9, 45, 0
17, 19152, Note_on_c, 9, 47, 80
17, 19152, Note_on_c, 9, 45, 80
17, 19199, Note_off_c, 9, 47, 0
17, 19199, Note_off_c, 9, 45, 0
17, 19200, Note_on_c, 9, 50, 80
17, 19223, Note_off_c, 9, 50, 0
17, 19224, Note_on_c, 9, 50, 80
17, 19247, Note_off_c, 9, 50, 0
17, 19248, Note_on_c, 9, 50, 80
17, 19271, Note_off_c, 9, 50, 0
17, 19272, Note_on_c, 9, 50, 80
17, 19295, Note_off_c, 9, 50, 0
17, 19296, Note_on_c, 9, 48, 80
17, 19319, Note_off_c, 9, 48, 0
17, 19320, Note_on_c, 9, 48, 80
17, 19343, Note_off_c, 9, 48, 0
17, 19344, Note_on_c, 9, 48, 80
17, 19367, Note_off_c, 9, 48, 0
17, 19368, Note_on_c, 9, 48, 80
17, 19391, Note_off_c, 9, 48, 0
17, 19392, Note_on_c, 9, 47, 80
17, 19415, Note_off_c, 9, 47, 0
17, 19416, Note_on_c, 9, 47, 80
17, 19439, Note_off_c, 9, 47, 0
17, 19440, Note_on_c, 9, 47, 80
17, 19463, Note_off_c, 9, 47, 0
17, 19464, Note_on_c, 9, 47, 80
17, 19487, Note_off_c, 9, 47, 0
17, 19488, Note_on_c, 9, 45, 80
17, 19535, Note_off_c, 9, 45, 0
17, 19536, Note_on_c, 9, 45, 80
17, 19583, Note_off_c, 9, 45, 0
17, 19584, Note_on_c, 9, 47, 80
17, 19584, Note_on_c, 9, 45, 80
17, 19631, Note_off_c, 9, 47, 0
17, 19631, Note_off_c, 9, 45, 0
17, 19632, Note_on_c, 9, 47, 80
17, 19632, Note_on_c, 9, 45, 80
17, 19679, Note_off_c, 9, 47, 0
17, 19679, Note_off_c, 9, 45, 0
17, 19680, Note_on_c, 9, 47, 80
17, 19680, Note_on_c, 9, 45, 80
17, 19727, Note_off_c, 9, 47, 0
17, 19727, Note_off_c, 9, 45, 0
17, 19728, Note_on_c, 9, 47, 80
17, 19728, Note_on_c, 9, 45, 80
17, 19775, Note_off_c, 9, 47, 0
17, 19775, Note_off_c, 9, 45, 0
17, 19776, Note_on_c, 9, 47, 80
17, 19776, Note_on_c, 9, 45, 80
17, 19823, Note_off_c, 9, 45, 0
17, 19823, Note_off_c, 9, 47, 0
17, 19824, Note_on_c, 9, 47, 80
17, 19824, Note_on_c, 9, 45, 80
17, 19871, Note_off_c, 9, 47, 0
17, 19871, Note_off_c, 9, 45, 0
17, 19872, Note_on_c, 9, 47, 80
17, 19872, Note_on_c, 9, 45, 80
17, 19919, Note_off_c, 9, 45, 0
17, 19919, Note_off_c, 9, 47, 0
17, 19920, Note_on_c, 9, 47, 80
17, 19920, Note_on_c, 9, 45, 80
17, 19967, Note_off_c, 9, 47, 0
17, 19967, Note_off_c, 9, 45, 0
17, 19968, Note_on_c, 9, 47, 80
17, 19968, Note_on_c, 9, 45, 80
17, 20015, Note_off_c, 9, 47, 0
17, 20015, Note_off_c, 9, 45, 0
17, 20016, Note_on_c, 9, 47, 80
17, 20016, Note_on_c, 9, 45, 80
17, 20063, Note_off_c, 9, 47, 0
17, 20063, Note_off_c, 9, 45, 0
17, 20064, Note_on_c, 9, 47, 80
17, 20064, Note_on_c, 9, 45, 80
17, 20111, Note_off_c, 9, 47, 0
17, 20111, Note_off_c, 9, 45, 0
17, 20112, Note_on_c, 9, 47, 80
17, 20112, Note_on_c, 9, 45, 80
17, 20159, Note_off_c, 9, 47, 0
17, 20159, Note_off_c, 9, 45, 0
17, 20160, Note_on_c, 9, 47, 80
17, 20160, Note_on_c, 9, 45, 80
17, 20207, Note_off_c, 9, 47, 0
17, 20207, Note_off_c, 9, 45, 0
17, 20208, Note_on_c, 9, 48, 80
17, 20231, Note_off_c, 9, 48, 0
17, 20232, Note_on_c, 9, 48, 80
17, 20255, Note_off_c, 9, 48, 0
17, 20256, Note_on_c, 9, 48, 80
17, 20279, Note_off_c, 9, 48, 0
17, 20280, Note_on_c, 9, 48, 80
17, 20303, Note_off_c, 9, 48, 0
17, 20304, Note_on_c, 9, 48, 80
17, 20327, Note_off_c, 9, 48, 0
17, 20328, Note_on_c, 9, 48, 80
17, 20351, Note_off_c, 9, 48, 0
17, 20352, Note_on_c, 9, 50, 80
17, 20399, Note_off_c, 9, 50, 0
17, 20400, Note_on_c, 9, 50, 80
17, 20400, Note_on_c, 9, 48, 80
17, 20447, Note_off_c, 9, 50, 0
17, 20447, Note_off_c, 9, 48, 0
17, 20448, Note_on_c, 9, 47, 80
17, 20448, Note_on_c, 9, 45, 80
17, 20495, Note_off_c, 9, 47, 0
17, 20495, Note_off_c, 9, 45, 0
17, 20736, Control_c, 9, 101, 0
17, 20736, Control_c, 9, 100, 0
17, 20736, Control_c, 9, 6, 12
17, 20736, Control_c, 9, 10, 64
17, 20736, Control_c, 9, 7, 100
17, 20736, Pitch_bend_c, 9, 8192
17, 20736, Program_c, 9, 0
17, 20736, Control_c, 9, 101, 0
17, 20736, Control_c, 9, 100, 0
17, 20736, Control_c, 9, 6, 12
17, 20736, Control_c, 9, 10, 64
17, 20736, Control_c, 9, 7, 100
17, 20736, Pitch_bend_c, 9, 8192
17, 20736, Program_c, 9, 0
17, 20736, Control_c, 9, 101, 0
17, 20736, Control_c, 9, 100, 0
17, 20736, Control_c, 9, 6, 12
17, 20736, Control_c, 9, 10, 64
17, 20736, Control_c, 9, 7, 100
17, 20736, Pitch_bend_c, 9, 8192
17, 20736, Program_c, 9, 0
17, 20736, End_track
0, 0, End_of_file
