0, 0, Header, 1, 16, 96
1, 0, Start_track
1, 0, Time_signature, 4, 2, 24, 8
1, 0, End_track
2, 0, Start_track
2, 0, Tempo, 314136
2, 0, End_track
3, 0, Start_track
3, 0, Title_t, "light bass"
3, 0, Control_c, 0, 10, 64
3, 0, Control_c, 0, 7, 86
3, 0, Pitch_bend_c, 0, 8192
3, 0, Control_c, 0, 101, 0
3, 0, Control_c, 0, 100, 0
3, 0, Control_c, 0, 6, 12
3, 0, Control_c, 0, 10, 64
3, 0, Control_c, 0, 7, 86
3, 0, Pitch_bend_c, 0, 8192
3, 0, Program_c, 0, 87
3, 0, Control_c, 0, 7, 92
3, 0, Control_c, 0, 7, 34
3, 0, Control_c, 0, 101, 0
3, 0, Control_c, 0, 100, 0
3, 0, Control_c, 0, 6, 12
3, 0, Control_c, 0, 10, 64
3, 0, Control_c, 0, 7, 34
3, 0, Pitch_bend_c, 0, 8192
3, 0, Program_c, 0, 87
3, 0, Note_on_c, 0, 29, 100
3, 0, Control_c, 0, 7, 34
3, 0, Control_c, 0, 101, 0
3, 0, Control_c, 0, 100, 0
3, 0, Control_c, 0, 6, 12
3, 0, Control_c, 0, 10, 64
3, 0, Control_c, 0, 7, 34
3, 0, Pitch_bend_c, 0, 8192
3, 0, Program_c, 0, 87
3, 1, Control_c, 0, 7, 34
3, 2, Control_c, 0, 7, 34
3, 3, Control_c, 0, 7, 34
3, 4, Control_c, 0, 7, 34
3, 5, Control_c, 0, 7, 34
3, 6, Control_c, 0, 7, 34
3, 7, Control_c, 0, 7, 34
3, 8, Control_c, 0, 7, 34
3, 9, Control_c, 0, 7, 34
3, 10, Control_c, 0, 7, 34
3, 11, Control_c, 0, 7, 34
3, 12, Control_c, 0, 7, 34
3, 13, Control_c, 0, 7, 34
3, 14, Control_c, 0, 7, 34
3, 15, Control_c, 0, 7, 34
3, 16, Control_c, 0, 7, 34
3, 17, Control_c, 0, 7, 34
3, 18, Control_c, 0, 7, 34
3, 19, Control_c, 0, 7, 34
3, 20, Control_c, 0, 7, 34
3, 21, Control_c, 0, 7, 34
3, 22, Control_c, 0, 7, 34
3, 23, Control_c, 0, 7, 34
3, 24, Control_c, 0, 7, 34
3, 25, Control_c, 0, 7, 34
3, 26, Control_c, 0, 7, 34
3, 27, Control_c, 0, 7, 34
3, 28, Control_c, 0, 7, 34
3, 29, Control_c, 0, 7, 34
3, 30, Control_c, 0, 7, 34
3, 31, Control_c, 0, 7, 34
3, 32, Control_c, 0, 7, 34
3, 33, Control_c, 0, 7, 34
3, 34, Control_c, 0, 7, 34
3, 35, Control_c, 0, 7, 34
3, 36, Control_c, 0, 7, 34
3, 37, Control_c, 0, 7, 34
3, 38, Control_c, 0, 7, 34
3, 39, Control_c, 0, 7, 34
3, 40, Control_c, 0, 7, 34
3, 41, Control_c, 0, 7, 34
3, 42, Control_c, 0, 7, 34
3, 43, Control_c, 0, 7, 34
3, 44, Control_c, 0, 7, 34
3, 45, Control_c, 0, 7, 34
3, 46, Control_c, 0, 7, 34
3, 47, Control_c, 0, 7, 34
3, 48, Control_c, 0, 7, 34
3, 49, Control_c, 0, 7, 34
3, 50, Control_c, 0, 7, 34
3, 51, Control_c, 0, 7, 34
3, 52, Control_c, 0, 7, 34
3, 53, Control_c, 0, 7, 34
3, 54, Control_c, 0, 7, 34
3, 55, Control_c, 0, 7, 34
3, 56, Control_c, 0, 7, 34
3, 57, Control_c, 0, 7, 34
3, 58, Control_c, 0, 7, 34
3, 59, Control_c, 0, 7, 34
3, 60, Control_c, 0, 7, 34
3, 61, Control_c, 0, 7, 34
3, 62, Control_c, 0, 7, 34
3, 63, Control_c, 0, 7, 34
3, 64, Control_c, 0, 7, 34
3, 65, Control_c, 0, 7, 34
3, 66, Control_c, 0, 7, 34
3, 67, Control_c, 0, 7, 34
3, 68, Control_c, 0, 7, 34
3, 69, Control_c, 0, 7, 34
3, 70, Control_c, 0, 7, 34
3, 71, Control_c, 0, 7, 34
3, 72, Control_c, 0, 7, 34
3, 73, Control_c, 0, 7, 34
3, 74, Control_c, 0, 7, 34
3, 75, Control_c, 0, 7, 34
3, 76, Control_c, 0, 7, 34
3, 77, Control_c, 0, 7, 34
3, 78, Control_c, 0, 7, 34
3, 79, Control_c, 0, 7, 34
3, 80, Control_c, 0, 7, 34
3, 81, Control_c, 0, 7, 34
3, 82, Control_c, 0, 7, 34
3, 83, Control_c, 0, 7, 34
3, 84, Control_c, 0, 7, 34
3, 85, Control_c, 0, 7, 34
3, 86, Control_c, 0, 7, 34
3, 87, Control_c, 0, 7, 34
3, 88, Control_c, 0, 7, 35
3, 89, Control_c, 0, 7, 35
3, 90, Control_c, 0, 7, 35
3, 91, Control_c, 0, 7, 35
3, 92, Control_c, 0, 7, 35
3, 93, Control_c, 0, 7, 35
3, 94, Control_c, 0, 7, 35
3, 95, Control_c, 0, 7, 35
3, 96, Control_c, 0, 7, 35
3, 97, Control_c, 0, 7, 35
3, 98, Control_c, 0, 7, 35
3, 99, Control_c, 0, 7, 35
3, 100, Control_c, 0, 7, 35
3, 101, Control_c, 0, 7, 35
3, 102, Control_c, 0, 7, 35
3, 103, Control_c, 0, 7, 35
3, 104, Control_c, 0, 7, 35
3, 105, Control_c, 0, 7, 35
3, 106, Control_c, 0, 7, 35
3, 107, Control_c, 0, 7, 35
3, 108, Control_c, 0, 7, 35
3, 109, Control_c, 0, 7, 35
3, 110, Control_c, 0, 7, 35
3, 111, Control_c, 0, 7, 35
3, 112, Control_c, 0, 7, 35
3, 113, Control_c, 0, 7, 35
3, 114, Control_c, 0, 7, 35
3, 115, Control_c, 0, 7, 35
3, 116, Control_c, 0, 7, 35
3, 117, Control_c, 0, 7, 35
3, 118, Control_c, 0, 7, 35
3, 119, Control_c, 0, 7, 35
3, 120, Control_c, 0, 7, 35
3, 121, Control_c, 0, 7, 35
3, 122, Control_c, 0, 7, 35
3, 123, Control_c, 0, 7, 35
3, 124, Control_c, 0, 7, 35
3, 125, Control_c, 0, 7, 35
3, 126, Control_c, 0, 7, 35
3, 127, Control_c, 0, 7, 35
3, 128, Control_c, 0, 7, 35
3, 129, Control_c, 0, 7, 35
3, 130, Control_c, 0, 7, 35
3, 131, Control_c, 0, 7, 35
3, 132, Control_c, 0, 7, 35
3, 133, Control_c, 0, 7, 35
3, 134, Control_c, 0, 7, 35
3, 135, Control_c, 0, 7, 35
3, 136, Control_c, 0, 7, 35
3, 137, Control_c, 0, 7, 35
3, 138, Control_c, 0, 7, 35
3, 139, Control_c, 0, 7, 35
3, 140, Control_c, 0, 7, 35
3, 141, Control_c, 0, 7, 35
3, 142, Control_c, 0, 7, 35
3, 143, Control_c, 0, 7, 35
3, 144, Note_off_c, 0, 29, 64
3, 144, Note_on_c, 0, 31, 100
3, 144, Control_c, 0, 7, 35
3, 145, Control_c, 0, 7, 35
3, 146, Control_c, 0, 7, 35
3, 147, Control_c, 0, 7, 35
3, 148, Control_c, 0, 7, 35
3, 149, Control_c, 0, 7, 35
3, 150, Control_c, 0, 7, 35
3, 151, Control_c, 0, 7, 35
3, 152, Control_c, 0, 7, 35
3, 153, Control_c, 0, 7, 35
3, 154, Control_c, 0, 7, 35
3, 155, Control_c, 0, 7, 35
3, 156, Control_c, 0, 7, 35
3, 157, Control_c, 0, 7, 35
3, 158, Control_c, 0, 7, 35
3, 159, Control_c, 0, 7, 35
3, 160, Control_c, 0, 7, 35
3, 161, Control_c, 0, 7, 35
3, 162, Control_c, 0, 7, 35
3, 163, Control_c, 0, 7, 35
3, 164, Control_c, 0, 7, 35
3, 165, Control_c, 0, 7, 35
3, 166, Control_c, 0, 7, 35
3, 167, Control_c, 0, 7, 35
3, 168, Control_c, 0, 7, 35
3, 169, Control_c, 0, 7, 35
3, 170, Control_c, 0, 7, 35
3, 171, Control_c, 0, 7, 35
3, 172, Control_c, 0, 7, 35
3, 173, Control_c, 0, 7, 35
3, 174, Control_c, 0, 7, 35
3, 175, Control_c, 0, 7, 35
3, 176, Control_c, 0, 7, 35
3, 177, Control_c, 0, 7, 35
3, 178, Control_c, 0, 7, 35
3, 179, Control_c, 0, 7, 35
3, 180, Control_c, 0, 7, 35
3, 181, Control_c, 0, 7, 35
3, 182, Control_c, 0, 7, 35
3, 183, Control_c, 0, 7, 35
3, 184, Control_c, 0, 7, 35
3, 185, Control_c, 0, 7, 35
3, 186, Control_c, 0, 7, 35
3, 187, Control_c, 0, 7, 36
3, 188, Control_c, 0, 7, 36
3, 189, Control_c, 0, 7, 36
3, 190, Control_c, 0, 7, 36
3, 191, Control_c, 0, 7, 36
3, 192, Control_c, 0, 7, 36
3, 193, Control_c, 0, 7, 36
3, 194, Control_c, 0, 7, 36
3, 195, Control_c, 0, 7, 36
3, 196, Control_c, 0, 7, 36
3, 197, Control_c, 0, 7, 36
3, 198, Control_c, 0, 7, 36
3, 199, Control_c, 0, 7, 36
3, 200, Control_c, 0, 7, 36
3, 201, Control_c, 0, 7, 36
3, 202, Control_c, 0, 7, 36
3, 203, Control_c, 0, 7, 36
3, 204, Control_c, 0, 7, 36
3, 205, Control_c, 0, 7, 36
3, 206, Control_c, 0, 7, 36
3, 207, Control_c, 0, 7, 36
3, 208, Control_c, 0, 7, 36
3, 209, Control_c, 0, 7, 36
3, 210, Control_c, 0, 7, 36
3, 211, Control_c, 0, 7, 36
3, 212, Control_c, 0, 7, 36
3, 213, Control_c, 0, 7, 36
3, 214, Control_c, 0, 7, 36
3, 215, Control_c, 0, 7, 36
3, 216, Control_c, 0, 7, 36
3, 217, Control_c, 0, 7, 36
3, 218, Control_c, 0, 7, 36
3, 219, Control_c, 0, 7, 36
3, 220, Control_c, 0, 7, 36
3, 221, Control_c, 0, 7, 36
3, 222, Control_c, 0, 7, 36
3, 223, Control_c, 0, 7, 36
3, 224, Control_c, 0, 7, 36
3, 225, Control_c, 0, 7, 36
3, 226, Control_c, 0, 7, 36
3, 227, Control_c, 0, 7, 36
3, 228, Control_c, 0, 7, 36
3, 229, Control_c, 0, 7, 36
3, 230, Control_c, 0, 7, 36
3, 231, Control_c, 0, 7, 36
3, 232, Control_c, 0, 7, 36
3, 233, Control_c, 0, 7, 36
3, 234, Control_c, 0, 7, 36
3, 235, Control_c, 0, 7, 36
3, 236, Control_c, 0, 7, 36
3, 237, Control_c, 0, 7, 36
3, 238, Control_c, 0, 7, 36
3, 239, Control_c, 0, 7, 36
3, 240, Control_c, 0, 7, 36
3, 241, Control_c, 0, 7, 36
3, 242, Control_c, 0, 7, 36
3, 243, Control_c, 0, 7, 36
3, 244, Control_c, 0, 7, 36
3, 245, Control_c, 0, 7, 36
3, 246, Control_c, 0, 7, 36
3, 247, Control_c, 0, 7, 36
3, 248, Control_c, 0, 7, 36
3, 249, Control_c, 0, 7, 36
3, 250, Control_c, 0, 7, 36
3, 251, Control_c, 0, 7, 36
3, 252, Control_c, 0, 7, 36
3, 253, Control_c, 0, 7, 36
3, 254, Control_c, 0, 7, 36
3, 255, Control_c, 0, 7, 36
3, 256, Control_c, 0, 7, 36
3, 257, Control_c, 0, 7, 36
3, 258, Control_c, 0, 7, 36
3, 259, Control_c, 0, 7, 36
3, 260, Control_c, 0, 7, 36
3, 261, Control_c, 0, 7, 36
3, 262, Control_c, 0, 7, 36
3, 263, Control_c, 0, 7, 36
3, 264, Control_c, 0, 7, 36
3, 265, Control_c, 0, 7, 36
3, 266, Control_c, 0, 7, 36
3, 267, Control_c, 0, 7, 36
3, 268, Control_c, 0, 7, 36
3, 269, Control_c, 0, 7, 36
3, 270, Control_c, 0, 7, 37
3, 271, Control_c, 0, 7, 37
3, 272, Control_c, 0, 7, 37
3, 273, Control_c, 0, 7, 37
3, 274, Control_c, 0, 7, 37
3, 275, Control_c, 0, 7, 37
3, 276, Control_c, 0, 7, 37
3, 277, Control_c, 0, 7, 37
3, 278, Control_c, 0, 7, 37
3, 279, Control_c, 0, 7, 37
3, 280, Control_c, 0, 7, 37
3, 281, Control_c, 0, 7, 37
3, 282, Control_c, 0, 7, 37
3, 283, Control_c, 0, 7, 37
3, 284, Control_c, 0, 7, 37
3, 285, Control_c, 0, 7, 37
3, 286, Control_c, 0, 7, 37
3, 287, Control_c, 0, 7, 37
3, 288, Note_off_c, 0, 31, 64
3, 288, Note_on_c, 0, 27, 100
3, 288, Control_c, 0, 7, 37
3, 289, Control_c, 0, 7, 37
3, 290, Control_c, 0, 7, 37
3, 291, Control_c, 0, 7, 37
3, 292, Control_c, 0, 7, 37
3, 293, Control_c, 0, 7, 37
3, 294, Control_c, 0, 7, 37
3, 295, Control_c, 0, 7, 37
3, 296, Control_c, 0, 7, 37
3, 297, Control_c, 0, 7, 37
3, 298, Control_c, 0, 7, 37
3, 299, Control_c, 0, 7, 37
3, 300, Control_c, 0, 7, 37
3, 301, Control_c, 0, 7, 37
3, 302, Control_c, 0, 7, 37
3, 303, Control_c, 0, 7, 37
3, 304, Control_c, 0, 7, 37
3, 305, Control_c, 0, 7, 37
3, 306, Control_c, 0, 7, 37
3, 307, Control_c, 0, 7, 37
3, 308, Control_c, 0, 7, 37
3, 309, Control_c, 0, 7, 37
3, 310, Control_c, 0, 7, 37
3, 311, Control_c, 0, 7, 37
3, 312, Control_c, 0, 7, 37
3, 313, Control_c, 0, 7, 37
3, 314, Control_c, 0, 7, 37
3, 315, Control_c, 0, 7, 37
3, 316, Control_c, 0, 7, 37
3, 317, Control_c, 0, 7, 37
3, 318, Control_c, 0, 7, 37
3, 319, Control_c, 0, 7, 37
3, 320, Control_c, 0, 7, 37
3, 321, Control_c, 0, 7, 37
3, 322, Control_c, 0, 7, 37
3, 323, Control_c, 0, 7, 37
3, 324, Control_c, 0, 7, 37
3, 325, Control_c, 0, 7, 37
3, 326, Control_c, 0, 7, 37
3, 327, Control_c, 0, 7, 37
3, 328, Control_c, 0, 7, 37
3, 329, Control_c, 0, 7, 37
3, 330, Control_c, 0, 7, 37
3, 331, Control_c, 0, 7, 37
3, 332, Control_c, 0, 7, 37
3, 333, Control_c, 0, 7, 37
3, 334, Control_c, 0, 7, 37
3, 335, Control_c, 0, 7, 37
3, 336, Control_c, 0, 7, 37
3, 337, Control_c, 0, 7, 37
3, 338, Control_c, 0, 7, 37
3, 339, Control_c, 0, 7, 37
3, 340, Control_c, 0, 7, 37
3, 341, Control_c, 0, 7, 37
3, 342, Control_c, 0, 7, 37
3, 343, Control_c, 0, 7, 37
3, 344, Control_c, 0, 7, 38
3, 345, Control_c, 0, 7, 38
3, 346, Control_c, 0, 7, 38
3, 347, Control_c, 0, 7, 38
3, 348, Control_c, 0, 7, 38
3, 349, Control_c, 0, 7, 38
3, 350, Control_c, 0, 7, 38
3, 351, Control_c, 0, 7, 38
3, 352, Control_c, 0, 7, 38
3, 353, Control_c, 0, 7, 38
3, 354, Control_c, 0, 7, 38
3, 355, Control_c, 0, 7, 38
3, 356, Control_c, 0, 7, 38
3, 357, Control_c, 0, 7, 38
3, 358, Control_c, 0, 7, 38
3, 359, Control_c, 0, 7, 38
3, 360, Control_c, 0, 7, 38
3, 361, Control_c, 0, 7, 38
3, 362, Control_c, 0, 7, 38
3, 363, Control_c, 0, 7, 38
3, 364, Control_c, 0, 7, 38
3, 365, Control_c, 0, 7, 38
3, 366, Control_c, 0, 7, 38
3, 367, Control_c, 0, 7, 38
3, 368, Control_c, 0, 7, 38
3, 369, Control_c, 0, 7, 38
3, 370, Control_c, 0, 7, 38
3, 371, Control_c, 0, 7, 38
3, 372, Control_c, 0, 7, 38
3, 373, Control_c, 0, 7, 38
3, 374, Control_c, 0, 7, 38
3, 375, Control_c, 0, 7, 38
3, 376, Control_c, 0, 7, 38
3, 377, Control_c, 0, 7, 38
3, 378, Control_c, 0, 7, 38
3, 379, Control_c, 0, 7, 38
3, 380, Control_c, 0, 7, 38
3, 381, Control_c, 0, 7, 38
3, 382, Control_c, 0, 7, 38
3, 383, Control_c, 0, 7, 38
3, 384, Control_c, 0, 7, 38
3, 385, Control_c, 0, 7, 38
3, 386, Control_c, 0, 7, 38
3, 387, Control_c, 0, 7, 38
3, 388, Control_c, 0, 7, 38
3, 389, Control_c, 0, 7, 38
3, 390, Control_c, 0, 7, 38
3, 391, Control_c, 0, 7, 38
3, 392, Control_c, 0, 7, 38
3, 393, Control_c, 0, 7, 38
3, 394, Control_c, 0, 7, 38
3, 395, Control_c, 0, 7, 38
3, 396, Control_c, 0, 7, 38
3, 397, Control_c, 0, 7, 38
3, 398, Control_c, 0, 7, 38
3, 399, Control_c, 0, 7, 38
3, 400, Control_c, 0, 7, 38
3, 401, Control_c, 0, 7, 38
3, 402, Control_c, 0, 7, 38
3, 403, Control_c, 0, 7, 38
3, 404, Control_c, 0, 7, 38
3, 405, Control_c, 0, 7, 38
3, 406, Control_c, 0, 7, 38
3, 407, Control_c, 0, 7, 38
3, 408, Control_c, 0, 7, 38
3, 409, Control_c, 0, 7, 38
3, 410, Control_c, 0, 7, 38
3, 411, Control_c, 0, 7, 38
3, 412, Control_c, 0, 7, 39
3, 413, Control_c, 0, 7, 39
3, 414, Control_c, 0, 7, 39
3, 415, Control_c, 0, 7, 39
3, 416, Control_c, 0, 7, 39
3, 417, Control_c, 0, 7, 39
3, 418, Control_c, 0, 7, 39
3, 419, Control_c, 0, 7, 39
3, 420, Control_c, 0, 7, 39
3, 421, Control_c, 0, 7, 39
3, 422, Control_c, 0, 7, 39
3, 423, Control_c, 0, 7, 39
3, 424, Control_c, 0, 7, 39
3, 425, Control_c, 0, 7, 39
3, 426, Control_c, 0, 7, 39
3, 427, Control_c, 0, 7, 39
3, 428, Control_c, 0, 7, 39
3, 429, Control_c, 0, 7, 39
3, 430, Control_c, 0, 7, 39
3, 431, Control_c, 0, 7, 39
3, 432, Note_off_c, 0, 27, 64
3, 432, Note_on_c, 0, 27, 100
3, 432, Control_c, 0, 7, 39
3, 433, Control_c, 0, 7, 39
3, 434, Control_c, 0, 7, 39
3, 435, Control_c, 0, 7, 39
3, 436, Control_c, 0, 7, 39
3, 437, Control_c, 0, 7, 39
3, 438, Control_c, 0, 7, 39
3, 439, Control_c, 0, 7, 39
3, 440, Control_c, 0, 7, 39
3, 441, Control_c, 0, 7, 39
3, 442, Control_c, 0, 7, 39
3, 443, Control_c, 0, 7, 39
3, 444, Control_c, 0, 7, 39
3, 445, Control_c, 0, 7, 39
3, 446, Control_c, 0, 7, 39
3, 447, Control_c, 0, 7, 39
3, 448, Control_c, 0, 7, 39
3, 449, Control_c, 0, 7, 39
3, 450, Control_c, 0, 7, 39
3, 451, Control_c, 0, 7, 39
3, 452, Control_c, 0, 7, 39
3, 453, Control_c, 0, 7, 39
3, 454, Control_c, 0, 7, 39
3, 455, Control_c, 0, 7, 39
3, 456, Control_c, 0, 7, 39
3, 457, Control_c, 0, 7, 39
3, 458, Control_c, 0, 7, 39
3, 459, Control_c, 0, 7, 39
3, 460, Control_c, 0, 7, 39
3, 461, Control_c, 0, 7, 39
3, 462, Control_c, 0, 7, 39
3, 463, Control_c, 0, 7, 39
3, 464, Control_c, 0, 7, 39
3, 465, Control_c, 0, 7, 39
3, 466, Control_c, 0, 7, 39
3, 467, Control_c, 0, 7, 39
3, 468, Control_c, 0, 7, 39
3, 469, Control_c, 0, 7, 39
3, 470, Control_c, 0, 7, 39
3, 471, Control_c, 0, 7, 39
3, 472, Control_c, 0, 7, 39
3, 473, Control_c, 0, 7, 39
3, 474, Control_c, 0, 7, 39
3, 475, Control_c, 0, 7, 40
3, 476, Control_c, 0, 7, 40
3, 477, Control_c, 0, 7, 40
3, 478, Control_c, 0, 7, 40
3, 479, Control_c, 0, 7, 40
3, 480, Note_off_c, 0, 27, 64
3, 480, Note_on_c, 0, 27, 100
3, 480, Control_c, 0, 7, 40
3, 481, Control_c, 0, 7, 40
3, 482, Control_c, 0, 7, 40
3, 483, Control_c, 0, 7, 40
3, 484, Control_c, 0, 7, 40
3, 485, Control_c, 0, 7, 40
3, 486, Control_c, 0, 7, 40
3, 487, Control_c, 0, 7, 40
3, 488, Control_c, 0, 7, 40
3, 489, Control_c, 0, 7, 40
3, 490, Control_c, 0, 7, 40
3, 491, Control_c, 0, 7, 40
3, 492, Control_c, 0, 7, 40
3, 493, Control_c, 0, 7, 40
3, 494, Control_c, 0, 7, 40
3, 495, Control_c, 0, 7, 40
3, 496, Control_c, 0, 7, 40
3, 497, Control_c, 0, 7, 40
3, 498, Control_c, 0, 7, 40
3, 499, Control_c, 0, 7, 40
3, 500, Control_c, 0, 7, 40
3, 501, Control_c, 0, 7, 40
3, 502, Control_c, 0, 7, 40
3, 503, Control_c, 0, 7, 40
3, 504, Control_c, 0, 7, 40
3, 505, Control_c, 0, 7, 40
3, 506, Control_c, 0, 7, 40
3, 507, Control_c, 0, 7, 40
3, 508, Control_c, 0, 7, 40
3, 509, Control_c, 0, 7, 40
3, 510, Control_c, 0, 7, 40
3, 511, Control_c, 0, 7, 40
3, 512, Control_c, 0, 7, 40
3, 513, Control_c, 0, 7, 40
3, 514, Control_c, 0, 7, 40
3, 515, Control_c, 0, 7, 40
3, 516, Control_c, 0, 7, 40
3, 517, Control_c, 0, 7, 40
3, 518, Control_c, 0, 7, 40
3, 519, Control_c, 0, 7, 40
3, 520, Control_c, 0, 7, 40
3, 521, Control_c, 0, 7, 40
3, 522, Control_c, 0, 7, 40
3, 523, Control_c, 0, 7, 40
3, 524, Control_c, 0, 7, 40
3, 525, Control_c, 0, 7, 40
3, 526, Control_c, 0, 7, 40
3, 527, Control_c, 0, 7, 40
3, 528, Note_off_c, 0, 27, 64
3, 528, Note_on_c, 0, 27, 100
3, 528, Control_c, 0, 7, 40
3, 529, Control_c, 0, 7, 40
3, 530, Control_c, 0, 7, 40
3, 531, Control_c, 0, 7, 40
3, 532, Control_c, 0, 7, 40
3, 533, Control_c, 0, 7, 40
3, 534, Control_c, 0, 7, 41
3, 535, Control_c, 0, 7, 41
3, 536, Control_c, 0, 7, 41
3, 537, Control_c, 0, 7, 41
3, 538, Control_c, 0, 7, 41
3, 539, Control_c, 0, 7, 41
3, 540, Control_c, 0, 7, 41
3, 541, Control_c, 0, 7, 41
3, 542, Control_c, 0, 7, 41
3, 543, Control_c, 0, 7, 41
3, 544, Control_c, 0, 7, 41
3, 545, Control_c, 0, 7, 41
3, 546, Control_c, 0, 7, 41
3, 547, Control_c, 0, 7, 41
3, 548, Control_c, 0, 7, 41
3, 549, Control_c, 0, 7, 41
3, 550, Control_c, 0, 7, 41
3, 551, Control_c, 0, 7, 41
3, 552, Control_c, 0, 7, 41
3, 553, Control_c, 0, 7, 41
3, 554, Control_c, 0, 7, 41
3, 555, Control_c, 0, 7, 41
3, 556, Control_c, 0, 7, 41
3, 557, Control_c, 0, 7, 41
3, 558, Control_c, 0, 7, 41
3, 559, Control_c, 0, 7, 41
3, 560, Control_c, 0, 7, 41
3, 561, Control_c, 0, 7, 41
3, 562, Control_c, 0, 7, 41
3, 563, Control_c, 0, 7, 41
3, 564, Control_c, 0, 7, 41
3, 565, Control_c, 0, 7, 41
3, 566, Control_c, 0, 7, 41
3, 567, Control_c, 0, 7, 41
3, 568, Control_c, 0, 7, 41
3, 569, Control_c, 0, 7, 41
3, 570, Control_c, 0, 7, 41
3, 571, Control_c, 0, 7, 41
3, 572, Control_c, 0, 7, 41
3, 573, Control_c, 0, 7, 41
3, 574, Control_c, 0, 7, 41
3, 575, Control_c, 0, 7, 41
3, 576, Note_off_c, 0, 27, 64
3, 576, Note_on_c, 0, 27, 100
3, 576, Control_c, 0, 7, 41
3, 577, Control_c, 0, 7, 41
3, 578, Control_c, 0, 7, 41
3, 579, Control_c, 0, 7, 41
3, 580, Control_c, 0, 7, 41
3, 581, Control_c, 0, 7, 41
3, 582, Control_c, 0, 7, 41
3, 583, Control_c, 0, 7, 41
3, 584, Control_c, 0, 7, 41
3, 585, Control_c, 0, 7, 41
3, 586, Control_c, 0, 7, 41
3, 587, Control_c, 0, 7, 41
3, 588, Control_c, 0, 7, 41
3, 589, Control_c, 0, 7, 41
3, 590, Control_c, 0, 7, 42
3, 591, Control_c, 0, 7, 42
3, 592, Control_c, 0, 7, 42
3, 593, Control_c, 0, 7, 42
3, 594, Control_c, 0, 7, 42
3, 595, Control_c, 0, 7, 42
3, 596, Control_c, 0, 7, 42
3, 597, Control_c, 0, 7, 42
3, 598, Control_c, 0, 7, 42
3, 599, Control_c, 0, 7, 42
3, 600, Control_c, 0, 7, 42
3, 601, Control_c, 0, 7, 42
3, 602, Control_c, 0, 7, 42
3, 603, Control_c, 0, 7, 42
3, 604, Control_c, 0, 7, 42
3, 605, Control_c, 0, 7, 42
3, 606, Control_c, 0, 7, 42
3, 607, Control_c, 0, 7, 42
3, 608, Control_c, 0, 7, 42
3, 609, Control_c, 0, 7, 42
3, 610, Control_c, 0, 7, 42
3, 611, Control_c, 0, 7, 42
3, 612, Control_c, 0, 7, 42
3, 613, Control_c, 0, 7, 42
3, 614, Control_c, 0, 7, 42
3, 615, Control_c, 0, 7, 42
3, 616, Control_c, 0, 7, 42
3, 617, Control_c, 0, 7, 42
3, 618, Control_c, 0, 7, 42
3, 619, Control_c, 0, 7, 42
3, 620, Control_c, 0, 7, 42
3, 621, Control_c, 0, 7, 42
3, 622, Control_c, 0, 7, 42
3, 623, Control_c, 0, 7, 42
3, 624, Note_off_c, 0, 27, 64
3, 624, Note_on_c, 0, 27, 100
3, 624, Control_c, 0, 7, 42
3, 625, Control_c, 0, 7, 42
3, 626, Control_c, 0, 7, 42
3, 627, Control_c, 0, 7, 42
3, 628, Control_c, 0, 7, 42
3, 629, Control_c, 0, 7, 42
3, 630, Control_c, 0, 7, 42
3, 631, Control_c, 0, 7, 42
3, 632, Control_c, 0, 7, 42
3, 633, Control_c, 0, 7, 42
3, 634, Control_c, 0, 7, 42
3, 635, Control_c, 0, 7, 42
3, 636, Control_c, 0, 7, 42
3, 637, Control_c, 0, 7, 42
3, 638, Control_c, 0, 7, 42
3, 639, Control_c, 0, 7, 42
3, 640, Control_c, 0, 7, 42
3, 641, Control_c, 0, 7, 42
3, 642, Control_c, 0, 7, 42
3, 643, Control_c, 0, 7, 42
3, 644, Control_c, 0, 7, 43
3, 645, Control_c, 0, 7, 43
3, 646, Control_c, 0, 7, 43
3, 647, Control_c, 0, 7, 43
3, 648, Control_c, 0, 7, 43
3, 649, Control_c, 0, 7, 43
3, 650, Control_c, 0, 7, 43
3, 651, Control_c, 0, 7, 43
3, 652, Control_c, 0, 7, 43
3, 653, Control_c, 0, 7, 43
3, 654, Control_c, 0, 7, 43
3, 655, Control_c, 0, 7, 43
3, 656, Control_c, 0, 7, 43
3, 657, Control_c, 0, 7, 43
3, 658, Control_c, 0, 7, 43
3, 659, Control_c, 0, 7, 43
3, 660, Control_c, 0, 7, 43
3, 661, Control_c, 0, 7, 43
3, 662, Control_c, 0, 7, 43
3, 663, Control_c, 0, 7, 43
3, 664, Control_c, 0, 7, 43
3, 665, Control_c, 0, 7, 43
3, 666, Control_c, 0, 7, 43
3, 667, Control_c, 0, 7, 43
3, 668, Control_c, 0, 7, 43
3, 669, Control_c, 0, 7, 43
3, 670, Control_c, 0, 7, 43
3, 671, Control_c, 0, 7, 43
3, 672, Note_off_c, 0, 27, 64
3, 672, Note_on_c, 0, 27, 100
3, 672, Control_c, 0, 7, 43
3, 673, Control_c, 0, 7, 43
3, 674, Control_c, 0, 7, 43
3, 675, Control_c, 0, 7, 43
3, 676, Control_c, 0, 7, 43
3, 677, Control_c, 0, 7, 43
3, 678, Control_c, 0, 7, 43
3, 679, Control_c, 0, 7, 43
3, 680, Control_c, 0, 7, 43
3, 681, Control_c, 0, 7, 43
3, 682, Control_c, 0, 7, 43
3, 683, Control_c, 0, 7, 43
3, 684, Control_c, 0, 7, 43
3, 685, Control_c, 0, 7, 43
3, 686, Control_c, 0, 7, 43
3, 687, Control_c, 0, 7, 43
3, 688, Control_c, 0, 7, 43
3, 689, Control_c, 0, 7, 43
3, 690, Control_c, 0, 7, 43
3, 691, Control_c, 0, 7, 43
3, 692, Control_c, 0, 7, 43
3, 693, Control_c, 0, 7, 43
3, 694, Control_c, 0, 7, 43
3, 695, Control_c, 0, 7, 43
3, 696, Control_c, 0, 7, 44
3, 697, Control_c, 0, 7, 44
3, 698, Control_c, 0, 7, 44
3, 699, Control_c, 0, 7, 44
3, 700, Control_c, 0, 7, 44
3, 701, Control_c, 0, 7, 44
3, 702, Control_c, 0, 7, 44
3, 703, Control_c, 0, 7, 44
3, 704, Control_c, 0, 7, 44
3, 705, Control_c, 0, 7, 44
3, 706, Control_c, 0, 7, 44
3, 707, Control_c, 0, 7, 44
3, 708, Control_c, 0, 7, 44
3, 709, Control_c, 0, 7, 44
3, 710, Control_c, 0, 7, 44
3, 711, Control_c, 0, 7, 44
3, 712, Control_c, 0, 7, 44
3, 713, Control_c, 0, 7, 44
3, 714, Control_c, 0, 7, 44
3, 715, Control_c, 0, 7, 44
3, 716, Control_c, 0, 7, 44
3, 717, Control_c, 0, 7, 44
3, 718, Control_c, 0, 7, 44
3, 719, Control_c, 0, 7, 44
3, 720, Note_off_c, 0, 27, 64
3, 720, Note_on_c, 0, 27, 100
3, 720, Control_c, 0, 7, 44
3, 721, Control_c, 0, 7, 44
3, 722, Control_c, 0, 7, 44
3, 723, Control_c, 0, 7, 44
3, 724, Control_c, 0, 7, 44
3, 725, Control_c, 0, 7, 44
3, 726, Control_c, 0, 7, 44
3, 727, Control_c, 0, 7, 44
3, 728, Control_c, 0, 7, 44
3, 729, Control_c, 0, 7, 44
3, 730, Control_c, 0, 7, 44
3, 731, Control_c, 0, 7, 44
3, 732, Control_c, 0, 7, 44
3, 733, Control_c, 0, 7, 44
3, 734, Control_c, 0, 7, 44
3, 735, Control_c, 0, 7, 44
3, 736, Control_c, 0, 7, 44
3, 737, Control_c, 0, 7, 44
3, 738, Control_c, 0, 7, 44
3, 739, Control_c, 0, 7, 44
3, 740, Control_c, 0, 7, 44
3, 741, Control_c, 0, 7, 44
3, 742, Control_c, 0, 7, 44
3, 743, Control_c, 0, 7, 44
3, 744, Control_c, 0, 7, 44
3, 745, Control_c, 0, 7, 44
3, 746, Control_c, 0, 7, 44
3, 747, Control_c, 0, 7, 45
3, 748, Control_c, 0, 7, 45
3, 749, Control_c, 0, 7, 45
3, 750, Control_c, 0, 7, 45
3, 751, Control_c, 0, 7, 45
3, 752, Control_c, 0, 7, 45
3, 753, Control_c, 0, 7, 45
3, 754, Control_c, 0, 7, 45
3, 755, Control_c, 0, 7, 45
3, 756, Control_c, 0, 7, 45
3, 757, Control_c, 0, 7, 45
3, 758, Control_c, 0, 7, 45
3, 759, Control_c, 0, 7, 45
3, 760, Control_c, 0, 7, 45
3, 761, Control_c, 0, 7, 45
3, 762, Control_c, 0, 7, 45
3, 763, Control_c, 0, 7, 45
3, 764, Control_c, 0, 7, 45
3, 765, Control_c, 0, 7, 45
3, 766, Control_c, 0, 7, 45
3, 767, Control_c, 0, 7, 45
3, 768, Note_off_c, 0, 27, 64
3, 768, Note_on_c, 0, 29, 100
3, 768, Control_c, 0, 7, 45
3, 769, Control_c, 0, 7, 45
3, 770, Control_c, 0, 7, 45
3, 771, Control_c, 0, 7, 45
3, 772, Control_c, 0, 7, 45
3, 773, Control_c, 0, 7, 45
3, 774, Control_c, 0, 7, 45
3, 775, Control_c, 0, 7, 45
3, 776, Control_c, 0, 7, 45
3, 777, Control_c, 0, 7, 45
3, 778, Control_c, 0, 7, 45
3, 779, Control_c, 0, 7, 45
3, 780, Control_c, 0, 7, 45
3, 781, Control_c, 0, 7, 45
3, 782, Control_c, 0, 7, 45
3, 783, Control_c, 0, 7, 45
3, 784, Control_c, 0, 7, 45
3, 785, Control_c, 0, 7, 45
3, 786, Control_c, 0, 7, 45
3, 787, Control_c, 0, 7, 45
3, 788, Control_c, 0, 7, 45
3, 789, Control_c, 0, 7, 45
3, 790, Control_c, 0, 7, 45
3, 791, Control_c, 0, 7, 45
3, 792, Control_c, 0, 7, 45
3, 793, Control_c, 0, 7, 45
3, 794, Control_c, 0, 7, 45
3, 795, Control_c, 0, 7, 46
3, 796, Control_c, 0, 7, 46
3, 797, Control_c, 0, 7, 46
3, 798, Control_c, 0, 7, 46
3, 799, Control_c, 0, 7, 46
3, 800, Control_c, 0, 7, 46
3, 801, Control_c, 0, 7, 46
3, 802, Control_c, 0, 7, 46
3, 803, Control_c, 0, 7, 46
3, 804, Control_c, 0, 7, 46
3, 805, Control_c, 0, 7, 46
3, 806, Control_c, 0, 7, 46
3, 807, Control_c, 0, 7, 46
3, 808, Control_c, 0, 7, 46
3, 809, Control_c, 0, 7, 46
3, 810, Control_c, 0, 7, 46
3, 811, Control_c, 0, 7, 46
3, 812, Control_c, 0, 7, 46
3, 813, Control_c, 0, 7, 46
3, 814, Control_c, 0, 7, 46
3, 815, Control_c, 0, 7, 46
3, 816, Control_c, 0, 7, 46
3, 817, Control_c, 0, 7, 46
3, 818, Control_c, 0, 7, 46
3, 819, Control_c, 0, 7, 46
3, 820, Control_c, 0, 7, 46
3, 821, Control_c, 0, 7, 46
3, 822, Control_c, 0, 7, 46
3, 823, Control_c, 0, 7, 46
3, 824, Control_c, 0, 7, 46
3, 825, Control_c, 0, 7, 46
3, 826, Control_c, 0, 7, 46
3, 827, Control_c, 0, 7, 46
3, 828, Control_c, 0, 7, 46
3, 829, Control_c, 0, 7, 46
3, 830, Control_c, 0, 7, 46
3, 831, Control_c, 0, 7, 46
3, 832, Control_c, 0, 7, 46
3, 833, Control_c, 0, 7, 46
3, 834, Control_c, 0, 7, 46
3, 835, Control_c, 0, 7, 46
3, 836, Control_c, 0, 7, 46
3, 837, Control_c, 0, 7, 46
3, 838, Control_c, 0, 7, 46
3, 839, Control_c, 0, 7, 46
3, 840, Control_c, 0, 7, 46
3, 841, Control_c, 0, 7, 46
3, 842, Control_c, 0, 7, 46
3, 843, Control_c, 0, 7, 47
3, 844, Control_c, 0, 7, 47
3, 845, Control_c, 0, 7, 47
3, 846, Control_c, 0, 7, 47
3, 847, Control_c, 0, 7, 47
3, 848, Control_c, 0, 7, 47
3, 849, Control_c, 0, 7, 47
3, 850, Control_c, 0, 7, 47
3, 851, Control_c, 0, 7, 47
3, 852, Control_c, 0, 7, 47
3, 853, Control_c, 0, 7, 47
3, 854, Control_c, 0, 7, 47
3, 855, Control_c, 0, 7, 47
3, 856, Control_c, 0, 7, 47
3, 857, Control_c, 0, 7, 47
3, 858, Control_c, 0, 7, 47
3, 859, Control_c, 0, 7, 47
3, 860, Control_c, 0, 7, 47
3, 861, Control_c, 0, 7, 47
3, 862, Control_c, 0, 7, 47
3, 863, Control_c, 0, 7, 47
3, 864, Control_c, 0, 7, 47
3, 865, Control_c, 0, 7, 47
3, 866, Control_c, 0, 7, 47
3, 867, Control_c, 0, 7, 47
3, 868, Control_c, 0, 7, 47
3, 869, Control_c, 0, 7, 47
3, 870, Control_c, 0, 7, 47
3, 871, Control_c, 0, 7, 47
3, 872, Control_c, 0, 7, 47
3, 873, Control_c, 0, 7, 47
3, 874, Control_c, 0, 7, 47
3, 875, Control_c, 0, 7, 47
3, 876, Control_c, 0, 7, 47
3, 877, Control_c, 0, 7, 47
3, 878, Control_c, 0, 7, 47
3, 879, Control_c, 0, 7, 47
3, 880, Control_c, 0, 7, 47
3, 881, Control_c, 0, 7, 47
3, 882, Control_c, 0, 7, 47
3, 883, Control_c, 0, 7, 47
3, 884, Control_c, 0, 7, 47
3, 885, Control_c, 0, 7, 47
3, 886, Control_c, 0, 7, 47
3, 887, Control_c, 0, 7, 47
3, 888, Control_c, 0, 7, 47
3, 889, Control_c, 0, 7, 48
3, 890, Control_c, 0, 7, 48
3, 891, Control_c, 0, 7, 48
3, 892, Control_c, 0, 7, 48
3, 893, Control_c, 0, 7, 48
3, 894, Control_c, 0, 7, 48
3, 895, Control_c, 0, 7, 48
3, 896, Control_c, 0, 7, 48
3, 897, Control_c, 0, 7, 48
3, 898, Control_c, 0, 7, 48
3, 899, Control_c, 0, 7, 48
3, 900, Control_c, 0, 7, 48
3, 901, Control_c, 0, 7, 48
3, 902, Control_c, 0, 7, 48
3, 903, Control_c, 0, 7, 48
3, 904, Control_c, 0, 7, 48
3, 905, Control_c, 0, 7, 48
3, 906, Control_c, 0, 7, 48
3, 907, Control_c, 0, 7, 48
3, 908, Control_c, 0, 7, 48
3, 909, Control_c, 0, 7, 48
3, 910, Control_c, 0, 7, 48
3, 911, Control_c, 0, 7, 48
3, 912, Note_off_c, 0, 29, 64
3, 912, Note_on_c, 0, 31, 100
3, 912, Control_c, 0, 7, 48
3, 913, Control_c, 0, 7, 48
3, 914, Control_c, 0, 7, 48
3, 915, Control_c, 0, 7, 48
3, 916, Control_c, 0, 7, 48
3, 917, Control_c, 0, 7, 48
3, 918, Control_c, 0, 7, 48
3, 919, Control_c, 0, 7, 48
3, 920, Control_c, 0, 7, 48
3, 921, Control_c, 0, 7, 48
3, 922, Control_c, 0, 7, 48
3, 923, Control_c, 0, 7, 48
3, 924, Control_c, 0, 7, 48
3, 925, Control_c, 0, 7, 48
3, 926, Control_c, 0, 7, 48
3, 927, Control_c, 0, 7, 48
3, 928, Control_c, 0, 7, 48
3, 929, Control_c, 0, 7, 48
3, 930, Control_c, 0, 7, 48
3, 931, Control_c, 0, 7, 48
3, 932, Control_c, 0, 7, 48
3, 933, Control_c, 0, 7, 48
3, 934, Control_c, 0, 7, 48
3, 935, Control_c, 0, 7, 49
3, 936, Control_c, 0, 7, 49
3, 937, Control_c, 0, 7, 49
3, 938, Control_c, 0, 7, 49
3, 939, Control_c, 0, 7, 49
3, 940, Control_c, 0, 7, 49
3, 941, Control_c, 0, 7, 49
3, 942, Control_c, 0, 7, 49
3, 943, Control_c, 0, 7, 49
3, 944, Control_c, 0, 7, 49
3, 945, Control_c, 0, 7, 49
3, 946, Control_c, 0, 7, 49
3, 947, Control_c, 0, 7, 49
3, 948, Control_c, 0, 7, 49
3, 949, Control_c, 0, 7, 49
3, 950, Control_c, 0, 7, 49
3, 951, Control_c, 0, 7, 49
3, 952, Control_c, 0, 7, 49
3, 953, Control_c, 0, 7, 49
3, 954, Control_c, 0, 7, 49
3, 955, Control_c, 0, 7, 49
3, 956, Control_c, 0, 7, 49
3, 957, Control_c, 0, 7, 49
3, 958, Control_c, 0, 7, 49
3, 959, Control_c, 0, 7, 49
3, 960, Control_c, 0, 7, 49
3, 961, Control_c, 0, 7, 49
3, 962, Control_c, 0, 7, 49
3, 963, Control_c, 0, 7, 49
3, 964, Control_c, 0, 7, 49
3, 965, Control_c, 0, 7, 49
3, 966, Control_c, 0, 7, 49
3, 967, Control_c, 0, 7, 49
3, 968, Control_c, 0, 7, 49
3, 969, Control_c, 0, 7, 49
3, 970, Control_c, 0, 7, 49
3, 971, Control_c, 0, 7, 49
3, 972, Control_c, 0, 7, 49
3, 973, Control_c, 0, 7, 49
3, 974, Control_c, 0, 7, 49
3, 975, Control_c, 0, 7, 49
3, 976, Control_c, 0, 7, 49
3, 977, Control_c, 0, 7, 49
3, 978, Control_c, 0, 7, 49
3, 979, Control_c, 0, 7, 50
3, 980, Control_c, 0, 7, 50
3, 981, Control_c, 0, 7, 50
3, 982, Control_c, 0, 7, 50
3, 983, Control_c, 0, 7, 50
3, 984, Control_c, 0, 7, 50
3, 985, Control_c, 0, 7, 50
3, 986, Control_c, 0, 7, 50
3, 987, Control_c, 0, 7, 50
3, 988, Control_c, 0, 7, 50
3, 989, Control_c, 0, 7, 50
3, 990, Control_c, 0, 7, 50
3, 991, Control_c, 0, 7, 50
3, 992, Control_c, 0, 7, 50
3, 993, Control_c, 0, 7, 50
3, 994, Control_c, 0, 7, 50
3, 995, Control_c, 0, 7, 50
3, 996, Control_c, 0, 7, 50
3, 997, Control_c, 0, 7, 50
3, 998, Control_c, 0, 7, 50
3, 999, Control_c, 0, 7, 50
3, 1000, Control_c, 0, 7, 50
3, 1001, Control_c, 0, 7, 50
3, 1002, Control_c, 0, 7, 50
3, 1003, Control_c, 0, 7, 50
3, 1004, Control_c, 0, 7, 50
3, 1005, Control_c, 0, 7, 50
3, 1006, Control_c, 0, 7, 50
3, 1007, Control_c, 0, 7, 50
3, 1008, Control_c, 0, 7, 50
3, 1009, Control_c, 0, 7, 50
3, 1010, Control_c, 0, 7, 50
3, 1011, Control_c, 0, 7, 50
3, 1012, Control_c, 0, 7, 50
3, 1013, Control_c, 0, 7, 50
3, 1014, Control_c, 0, 7, 50
3, 1015, Control_c, 0, 7, 50
3, 1016, Control_c, 0, 7, 50
3, 1017, Control_c, 0, 7, 50
3, 1018, Control_c, 0, 7, 50
3, 1019, Control_c, 0, 7, 50
3, 1020, Control_c, 0, 7, 50
3, 1021, Control_c, 0, 7, 50
3, 1022, Control_c, 0, 7, 50
3, 1023, Control_c, 0, 7, 51
3, 1024, Control_c, 0, 7, 51
3, 1025, Control_c, 0, 7, 51
3, 1026, Control_c, 0, 7, 51
3, 1027, Control_c, 0, 7, 51
3, 1028, Control_c, 0, 7, 51
3, 1029, Control_c, 0, 7, 51
3, 1030, Control_c, 0, 7, 51
3, 1031, Control_c, 0, 7, 51
3, 1032, Control_c, 0, 7, 51
3, 1033, Control_c, 0, 7, 51
3, 1034, Control_c, 0, 7, 51
3, 1035, Control_c, 0, 7, 51
3, 1036, Control_c, 0, 7, 51
3, 1037, Control_c, 0, 7, 51
3, 1038, Control_c, 0, 7, 51
3, 1039, Control_c, 0, 7, 51
3, 1040, Control_c, 0, 7, 51
3, 1041, Control_c, 0, 7, 51
3, 1042, Control_c, 0, 7, 51
3, 1043, Control_c, 0, 7, 51
3, 1044, Control_c, 0, 7, 51
3, 1045, Control_c, 0, 7, 51
3, 1046, Control_c, 0, 7, 51
3, 1047, Control_c, 0, 7, 51
3, 1048, Control_c, 0, 7, 51
3, 1049, Control_c, 0, 7, 51
3, 1050, Control_c, 0, 7, 51
3, 1051, Control_c, 0, 7, 51
3, 1052, Control_c, 0, 7, 51
3, 1053, Control_c, 0, 7, 51
3, 1054, Control_c, 0, 7, 51
3, 1055, Control_c, 0, 7, 51
3, 1056, Note_off_c, 0, 31, 64
3, 1056, Note_on_c, 0, 27, 100
3, 1056, Control_c, 0, 7, 51
3, 1057, Control_c, 0, 7, 51
3, 1058, Control_c, 0, 7, 51
3, 1059, Control_c, 0, 7, 51
3, 1060, Control_c, 0, 7, 51
3, 1061, Control_c, 0, 7, 51
3, 1062, Control_c, 0, 7, 51
3, 1063, Control_c, 0, 7, 51
3, 1064, Control_c, 0, 7, 51
3, 1065, Control_c, 0, 7, 51
3, 1066, Control_c, 0, 7, 51
3, 1067, Control_c, 0, 7, 52
3, 1068, Control_c, 0, 7, 52
3, 1069, Control_c, 0, 7, 52
3, 1070, Control_c, 0, 7, 52
3, 1071, Control_c, 0, 7, 52
3, 1072, Control_c, 0, 7, 52
3, 1073, Control_c, 0, 7, 52
3, 1074, Control_c, 0, 7, 52
3, 1075, Control_c, 0, 7, 52
3, 1076, Control_c, 0, 7, 52
3, 1077, Control_c, 0, 7, 52
3, 1078, Control_c, 0, 7, 52
3, 1079, Control_c, 0, 7, 52
3, 1080, Control_c, 0, 7, 52
3, 1081, Control_c, 0, 7, 52
3, 1082, Control_c, 0, 7, 52
3, 1083, Control_c, 0, 7, 52
3, 1084, Control_c, 0, 7, 52
3, 1085, Control_c, 0, 7, 52
3, 1086, Control_c, 0, 7, 52
3, 1087, Control_c, 0, 7, 52
3, 1088, Control_c, 0, 7, 52
3, 1089, Control_c, 0, 7, 52
3, 1090, Control_c, 0, 7, 52
3, 1091, Control_c, 0, 7, 52
3, 1092, Control_c, 0, 7, 52
3, 1093, Control_c, 0, 7, 52
3, 1094, Control_c, 0, 7, 52
3, 1095, Control_c, 0, 7, 52
3, 1096, Control_c, 0, 7, 52
3, 1097, Control_c, 0, 7, 52
3, 1098, Control_c, 0, 7, 52
3, 1099, Control_c, 0, 7, 52
3, 1100, Control_c, 0, 7, 52
3, 1101, Control_c, 0, 7, 52
3, 1102, Control_c, 0, 7, 52
3, 1103, Control_c, 0, 7, 52
3, 1104, Control_c, 0, 7, 52
3, 1105, Control_c, 0, 7, 52
3, 1106, Control_c, 0, 7, 52
3, 1107, Control_c, 0, 7, 52
3, 1108, Control_c, 0, 7, 52
3, 1109, Control_c, 0, 7, 53
3, 1110, Control_c, 0, 7, 53
3, 1111, Control_c, 0, 7, 53
3, 1112, Control_c, 0, 7, 53
3, 1113, Control_c, 0, 7, 53
3, 1114, Control_c, 0, 7, 53
3, 1115, Control_c, 0, 7, 53
3, 1116, Control_c, 0, 7, 53
3, 1117, Control_c, 0, 7, 53
3, 1118, Control_c, 0, 7, 53
3, 1119, Control_c, 0, 7, 53
3, 1120, Control_c, 0, 7, 53
3, 1121, Control_c, 0, 7, 53
3, 1122, Control_c, 0, 7, 53
3, 1123, Control_c, 0, 7, 53
3, 1124, Control_c, 0, 7, 53
3, 1125, Control_c, 0, 7, 53
3, 1126, Control_c, 0, 7, 53
3, 1127, Control_c, 0, 7, 53
3, 1128, Control_c, 0, 7, 53
3, 1129, Control_c, 0, 7, 53
3, 1130, Control_c, 0, 7, 53
3, 1131, Control_c, 0, 7, 53
3, 1132, Control_c, 0, 7, 53
3, 1133, Control_c, 0, 7, 53
3, 1134, Control_c, 0, 7, 53
3, 1135, Control_c, 0, 7, 53
3, 1136, Control_c, 0, 7, 53
3, 1137, Control_c, 0, 7, 53
3, 1138, Control_c, 0, 7, 53
3, 1139, Control_c, 0, 7, 53
3, 1140, Control_c, 0, 7, 53
3, 1141, Control_c, 0, 7, 53
3, 1142, Control_c, 0, 7, 53
3, 1143, Control_c, 0, 7, 53
3, 1144, Control_c, 0, 7, 53
3, 1145, Control_c, 0, 7, 53
3, 1146, Control_c, 0, 7, 53
3, 1147, Control_c, 0, 7, 53
3, 1148, Control_c, 0, 7, 53
3, 1149, Control_c, 0, 7, 53
3, 1150, Control_c, 0, 7, 53
3, 1151, Control_c, 0, 7, 54
3, 1152, Control_c, 0, 7, 54
3, 1153, Control_c, 0, 7, 54
3, 1154, Control_c, 0, 7, 54
3, 1155, Control_c, 0, 7, 54
3, 1156, Control_c, 0, 7, 54
3, 1157, Control_c, 0, 7, 54
3, 1158, Control_c, 0, 7, 54
3, 1159, Control_c, 0, 7, 54
3, 1160, Control_c, 0, 7, 54
3, 1161, Control_c, 0, 7, 54
3, 1162, Control_c, 0, 7, 54
3, 1163, Control_c, 0, 7, 54
3, 1164, Control_c, 0, 7, 54
3, 1165, Control_c, 0, 7, 54
3, 1166, Control_c, 0, 7, 54
3, 1167, Control_c, 0, 7, 54
3, 1168, Control_c, 0, 7, 54
3, 1169, Control_c, 0, 7, 54
3, 1170, Control_c, 0, 7, 54
3, 1171, Control_c, 0, 7, 54
3, 1172, Control_c, 0, 7, 54
3, 1173, Control_c, 0, 7, 54
3, 1174, Control_c, 0, 7, 54
3, 1175, Control_c, 0, 7, 54
3, 1176, Control_c, 0, 7, 54
3, 1177, Control_c, 0, 7, 54
3, 1178, Control_c, 0, 7, 54
3, 1179, Control_c, 0, 7, 54
3, 1180, Control_c, 0, 7, 54
3, 1181, Control_c, 0, 7, 54
3, 1182, Control_c, 0, 7, 54
3, 1183, Control_c, 0, 7, 54
3, 1184, Control_c, 0, 7, 54
3, 1185, Control_c, 0, 7, 54
3, 1186, Control_c, 0, 7, 54
3, 1187, Control_c, 0, 7, 54
3, 1188, Control_c, 0, 7, 54
3, 1189, Control_c, 0, 7, 54
3, 1190, Control_c, 0, 7, 54
3, 1191, Control_c, 0, 7, 54
3, 1192, Control_c, 0, 7, 54
3, 1193, Control_c, 0, 7, 55
3, 1194, Control_c, 0, 7, 55
3, 1195, Control_c, 0, 7, 55
3, 1196, Control_c, 0, 7, 55
3, 1197, Control_c, 0, 7, 55
3, 1198, Control_c, 0, 7, 55
3, 1199, Control_c, 0, 7, 55
3, 1200, Note_off_c, 0, 27, 64
3, 1200, Note_on_c, 0, 27, 100
3, 1200, Control_c, 0, 7, 55
3, 1201, Control_c, 0, 7, 55
3, 1202, Control_c, 0, 7, 55
3, 1203, Control_c, 0, 7, 55
3, 1204, Control_c, 0, 7, 55
3, 1205, Control_c, 0, 7, 55
3, 1206, Control_c, 0, 7, 55
3, 1207, Control_c, 0, 7, 55
3, 1208, Control_c, 0, 7, 55
3, 1209, Control_c, 0, 7, 55
3, 1210, Control_c, 0, 7, 55
3, 1211, Control_c, 0, 7, 55
3, 1212, Control_c, 0, 7, 55
3, 1213, Control_c, 0, 7, 55
3, 1214, Control_c, 0, 7, 55
3, 1215, Control_c, 0, 7, 55
3, 1216, Control_c, 0, 7, 55
3, 1217, Control_c, 0, 7, 55
3, 1218, Control_c, 0, 7, 55
3, 1219, Control_c, 0, 7, 55
3, 1220, Control_c, 0, 7, 55
3, 1221, Control_c, 0, 7, 55
3, 1222, Control_c, 0, 7, 55
3, 1223, Control_c, 0, 7, 55
3, 1224, Control_c, 0, 7, 55
3, 1225, Control_c, 0, 7, 55
3, 1226, Control_c, 0, 7, 55
3, 1227, Control_c, 0, 7, 55
3, 1228, Control_c, 0, 7, 55
3, 1229, Control_c, 0, 7, 55
3, 1230, Control_c, 0, 7, 55
3, 1231, Control_c, 0, 7, 55
3, 1232, Control_c, 0, 7, 55
3, 1233, Control_c, 0, 7, 55
3, 1234, Control_c, 0, 7, 55
3, 1235, Control_c, 0, 7, 56
3, 1236, Control_c, 0, 7, 56
3, 1237, Control_c, 0, 7, 56
3, 1238, Control_c, 0, 7, 56
3, 1239, Control_c, 0, 7, 56
3, 1240, Control_c, 0, 7, 56
3, 1241, Control_c, 0, 7, 56
3, 1242, Control_c, 0, 7, 56
3, 1243, Control_c, 0, 7, 56
3, 1244, Control_c, 0, 7, 56
3, 1245, Control_c, 0, 7, 56
3, 1246, Control_c, 0, 7, 56
3, 1247, Control_c, 0, 7, 56
3, 1248, Note_off_c, 0, 27, 64
3, 1248, Note_on_c, 0, 27, 100
3, 1248, Control_c, 0, 7, 56
3, 1249, Control_c, 0, 7, 56
3, 1250, Control_c, 0, 7, 56
3, 1251, Control_c, 0, 7, 56
3, 1252, Control_c, 0, 7, 56
3, 1253, Control_c, 0, 7, 56
3, 1254, Control_c, 0, 7, 56
3, 1255, Control_c, 0, 7, 56
3, 1256, Control_c, 0, 7, 56
3, 1257, Control_c, 0, 7, 56
3, 1258, Control_c, 0, 7, 56
3, 1259, Control_c, 0, 7, 56
3, 1260, Control_c, 0, 7, 56
3, 1261, Control_c, 0, 7, 56
3, 1262, Control_c, 0, 7, 56
3, 1263, Control_c, 0, 7, 56
3, 1264, Control_c, 0, 7, 56
3, 1265, Control_c, 0, 7, 56
3, 1266, Control_c, 0, 7, 56
3, 1267, Control_c, 0, 7, 56
3, 1268, Control_c, 0, 7, 56
3, 1269, Control_c, 0, 7, 56
3, 1270, Control_c, 0, 7, 56
3, 1271, Control_c, 0, 7, 56
3, 1272, Control_c, 0, 7, 56
3, 1273, Control_c, 0, 7, 56
3, 1274, Control_c, 0, 7, 56
3, 1275, Control_c, 0, 7, 56
3, 1276, Control_c, 0, 7, 57
3, 1277, Control_c, 0, 7, 57
3, 1278, Control_c, 0, 7, 57
3, 1279, Control_c, 0, 7, 57
3, 1280, Control_c, 0, 7, 57
3, 1281, Control_c, 0, 7, 57
3, 1282, Control_c, 0, 7, 57
3, 1283, Control_c, 0, 7, 57
3, 1284, Control_c, 0, 7, 57
3, 1285, Control_c, 0, 7, 57
3, 1286, Control_c, 0, 7, 57
3, 1287, Control_c, 0, 7, 57
3, 1288, Control_c, 0, 7, 57
3, 1289, Control_c, 0, 7, 57
3, 1290, Control_c, 0, 7, 57
3, 1291, Control_c, 0, 7, 57
3, 1292, Control_c, 0, 7, 57
3, 1293, Control_c, 0, 7, 57
3, 1294, Control_c, 0, 7, 57
3, 1295, Control_c, 0, 7, 57
3, 1296, Note_off_c, 0, 27, 64
3, 1296, Note_on_c, 0, 27, 100
3, 1296, Control_c, 0, 7, 57
3, 1297, Control_c, 0, 7, 57
3, 1298, Control_c, 0, 7, 57
3, 1299, Control_c, 0, 7, 57
3, 1300, Control_c, 0, 7, 57
3, 1301, Control_c, 0, 7, 57
3, 1302, Control_c, 0, 7, 57
3, 1303, Control_c, 0, 7, 57
3, 1304, Control_c, 0, 7, 57
3, 1305, Control_c, 0, 7, 57
3, 1306, Control_c, 0, 7, 57
3, 1307, Control_c, 0, 7, 57
3, 1308, Control_c, 0, 7, 57
3, 1309, Control_c, 0, 7, 57
3, 1310, Control_c, 0, 7, 57
3, 1311, Control_c, 0, 7, 57
3, 1312, Control_c, 0, 7, 57
3, 1313, Control_c, 0, 7, 57
3, 1314, Control_c, 0, 7, 57
3, 1315, Control_c, 0, 7, 57
3, 1316, Control_c, 0, 7, 57
3, 1317, Control_c, 0, 7, 58
3, 1318, Control_c, 0, 7, 58
3, 1319, Control_c, 0, 7, 58
3, 1320, Control_c, 0, 7, 58
3, 1321, Control_c, 0, 7, 58
3, 1322, Control_c, 0, 7, 58
3, 1323, Control_c, 0, 7, 58
3, 1324, Control_c, 0, 7, 58
3, 1325, Control_c, 0, 7, 58
3, 1326, Control_c, 0, 7, 58
3, 1327, Control_c, 0, 7, 58
3, 1328, Control_c, 0, 7, 58
3, 1329, Control_c, 0, 7, 58
3, 1330, Control_c, 0, 7, 58
3, 1331, Control_c, 0, 7, 58
3, 1332, Control_c, 0, 7, 58
3, 1333, Control_c, 0, 7, 58
3, 1334, Control_c, 0, 7, 58
3, 1335, Control_c, 0, 7, 58
3, 1336, Control_c, 0, 7, 58
3, 1337, Control_c, 0, 7, 58
3, 1338, Control_c, 0, 7, 58
3, 1339, Control_c, 0, 7, 58
3, 1340, Control_c, 0, 7, 58
3, 1341, Control_c, 0, 7, 58
3, 1342, Control_c, 0, 7, 58
3, 1343, Control_c, 0, 7, 58
3, 1344, Note_off_c, 0, 27, 64
3, 1344, Note_on_c, 0, 27, 100
3, 1344, Control_c, 0, 7, 58
3, 1345, Control_c, 0, 7, 58
3, 1346, Control_c, 0, 7, 58
3, 1347, Control_c, 0, 7, 58
3, 1348, Control_c, 0, 7, 58
3, 1349, Control_c, 0, 7, 58
3, 1350, Control_c, 0, 7, 58
3, 1351, Control_c, 0, 7, 58
3, 1352, Control_c, 0, 7, 58
3, 1353, Control_c, 0, 7, 58
3, 1354, Control_c, 0, 7, 58
3, 1355, Control_c, 0, 7, 58
3, 1356, Control_c, 0, 7, 58
3, 1357, Control_c, 0, 7, 59
3, 1358, Control_c, 0, 7, 59
3, 1359, Control_c, 0, 7, 59
3, 1360, Control_c, 0, 7, 59
3, 1361, Control_c, 0, 7, 59
3, 1362, Control_c, 0, 7, 59
3, 1363, Control_c, 0, 7, 59
3, 1364, Control_c, 0, 7, 59
3, 1365, Control_c, 0, 7, 59
3, 1366, Control_c, 0, 7, 59
3, 1367, Control_c, 0, 7, 59
3, 1368, Control_c, 0, 7, 59
3, 1369, Control_c, 0, 7, 59
3, 1370, Control_c, 0, 7, 59
3, 1371, Control_c, 0, 7, 59
3, 1372, Control_c, 0, 7, 59
3, 1373, Control_c, 0, 7, 59
3, 1374, Control_c, 0, 7, 59
3, 1375, Control_c, 0, 7, 59
3, 1376, Control_c, 0, 7, 59
3, 1377, Control_c, 0, 7, 59
3, 1378, Control_c, 0, 7, 59
3, 1379, Control_c, 0, 7, 59
3, 1380, Control_c, 0, 7, 59
3, 1381, Control_c, 0, 7, 59
3, 1382, Control_c, 0, 7, 59
3, 1383, Control_c, 0, 7, 59
3, 1384, Control_c, 0, 7, 59
3, 1385, Control_c, 0, 7, 59
3, 1386, Control_c, 0, 7, 59
3, 1387, Control_c, 0, 7, 59
3, 1388, Control_c, 0, 7, 59
3, 1389, Control_c, 0, 7, 59
3, 1390, Control_c, 0, 7, 59
3, 1391, Control_c, 0, 7, 59
3, 1392, Note_off_c, 0, 27, 64
3, 1392, Note_on_c, 0, 27, 100
3, 1392, Control_c, 0, 7, 59
3, 1393, Control_c, 0, 7, 59
3, 1394, Control_c, 0, 7, 59
3, 1395, Control_c, 0, 7, 59
3, 1396, Control_c, 0, 7, 59
3, 1397, Control_c, 0, 7, 59
3, 1398, Control_c, 0, 7, 60
3, 1399, Control_c, 0, 7, 60
3, 1400, Control_c, 0, 7, 60
3, 1401, Control_c, 0, 7, 60
3, 1402, Control_c, 0, 7, 60
3, 1403, Control_c, 0, 7, 60
3, 1404, Control_c, 0, 7, 60
3, 1405, Control_c, 0, 7, 60
3, 1406, Control_c, 0, 7, 60
3, 1407, Control_c, 0, 7, 60
3, 1408, Control_c, 0, 7, 60
3, 1409, Control_c, 0, 7, 60
3, 1410, Control_c, 0, 7, 60
3, 1411, Control_c, 0, 7, 60
3, 1412, Control_c, 0, 7, 60
3, 1413, Control_c, 0, 7, 60
3, 1414, Control_c, 0, 7, 60
3, 1415, Control_c, 0, 7, 60
3, 1416, Control_c, 0, 7, 60
3, 1417, Control_c, 0, 7, 60
3, 1418, Control_c, 0, 7, 60
3, 1419, Control_c, 0, 7, 60
3, 1420, Control_c, 0, 7, 60
3, 1421, Control_c, 0, 7, 60
3, 1422, Control_c, 0, 7, 60
3, 1423, Control_c, 0, 7, 60
3, 1424, Control_c, 0, 7, 60
3, 1425, Control_c, 0, 7, 60
3, 1426, Control_c, 0, 7, 60
3, 1427, Control_c, 0, 7, 60
3, 1428, Control_c, 0, 7, 60
3, 1429, Control_c, 0, 7, 60
3, 1430, Control_c, 0, 7, 60
3, 1431, Control_c, 0, 7, 60
3, 1432, Control_c, 0, 7, 60
3, 1433, Control_c, 0, 7, 60
3, 1434, Control_c, 0, 7, 60
3, 1435, Control_c, 0, 7, 60
3, 1436, Control_c, 0, 7, 60
3, 1437, Control_c, 0, 7, 60
3, 1438, Control_c, 0, 7, 61
3, 1439, Control_c, 0, 7, 61
3, 1440, Note_off_c, 0, 27, 64
3, 1440, Note_on_c, 0, 27, 100
3, 1440, Control_c, 0, 7, 61
3, 1441, Control_c, 0, 7, 61
3, 1442, Control_c, 0, 7, 61
3, 1443, Control_c, 0, 7, 61
3, 1444, Control_c, 0, 7, 61
3, 1445, Control_c, 0, 7, 61
3, 1446, Control_c, 0, 7, 61
3, 1447, Control_c, 0, 7, 61
3, 1448, Control_c, 0, 7, 61
3, 1449, Control_c, 0, 7, 61
3, 1450, Control_c, 0, 7, 61
3, 1451, Control_c, 0, 7, 61
3, 1452, Control_c, 0, 7, 61
3, 1453, Control_c, 0, 7, 61
3, 1454, Control_c, 0, 7, 61
3, 1455, Control_c, 0, 7, 61
3, 1456, Control_c, 0, 7, 61
3, 1457, Control_c, 0, 7, 61
3, 1458, Control_c, 0, 7, 61
3, 1459, Control_c, 0, 7, 61
3, 1460, Control_c, 0, 7, 61
3, 1461, Control_c, 0, 7, 61
3, 1462, Control_c, 0, 7, 61
3, 1463, Control_c, 0, 7, 61
3, 1464, Control_c, 0, 7, 61
3, 1465, Control_c, 0, 7, 61
3, 1466, Control_c, 0, 7, 61
3, 1467, Control_c, 0, 7, 61
3, 1468, Control_c, 0, 7, 61
3, 1469, Control_c, 0, 7, 61
3, 1470, Control_c, 0, 7, 61
3, 1471, Control_c, 0, 7, 61
3, 1472, Control_c, 0, 7, 61
3, 1473, Control_c, 0, 7, 61
3, 1474, Control_c, 0, 7, 61
3, 1475, Control_c, 0, 7, 61
3, 1476, Control_c, 0, 7, 61
3, 1477, Control_c, 0, 7, 61
3, 1478, Control_c, 0, 7, 62
3, 1479, Control_c, 0, 7, 62
3, 1480, Control_c, 0, 7, 62
3, 1481, Control_c, 0, 7, 62
3, 1482, Control_c, 0, 7, 62
3, 1483, Control_c, 0, 7, 62
3, 1484, Control_c, 0, 7, 62
3, 1485, Control_c, 0, 7, 62
3, 1486, Control_c, 0, 7, 62
3, 1487, Control_c, 0, 7, 62
3, 1488, Note_off_c, 0, 27, 64
3, 1488, Note_on_c, 0, 27, 100
3, 1488, Control_c, 0, 7, 62
3, 1489, Control_c, 0, 7, 62
3, 1490, Control_c, 0, 7, 62
3, 1491, Control_c, 0, 7, 62
3, 1492, Control_c, 0, 7, 62
3, 1493, Control_c, 0, 7, 62
3, 1494, Control_c, 0, 7, 62
3, 1495, Control_c, 0, 7, 62
3, 1496, Control_c, 0, 7, 62
3, 1497, Control_c, 0, 7, 62
3, 1498, Control_c, 0, 7, 62
3, 1499, Control_c, 0, 7, 62
3, 1500, Control_c, 0, 7, 62
3, 1501, Control_c, 0, 7, 62
3, 1502, Control_c, 0, 7, 62
3, 1503, Control_c, 0, 7, 62
3, 1504, Control_c, 0, 7, 62
3, 1505, Control_c, 0, 7, 62
3, 1506, Control_c, 0, 7, 62
3, 1507, Control_c, 0, 7, 62
3, 1508, Control_c, 0, 7, 62
3, 1509, Control_c, 0, 7, 62
3, 1510, Control_c, 0, 7, 62
3, 1511, Control_c, 0, 7, 62
3, 1512, Control_c, 0, 7, 62
3, 1513, Control_c, 0, 7, 62
3, 1514, Control_c, 0, 7, 62
3, 1515, Control_c, 0, 7, 62
3, 1516, Control_c, 0, 7, 62
3, 1517, Control_c, 0, 7, 62
3, 1518, Control_c, 0, 7, 63
3, 1519, Control_c, 0, 7, 63
3, 1520, Control_c, 0, 7, 63
3, 1521, Control_c, 0, 7, 63
3, 1522, Control_c, 0, 7, 63
3, 1523, Control_c, 0, 7, 63
3, 1524, Control_c, 0, 7, 63
3, 1525, Control_c, 0, 7, 63
3, 1526, Control_c, 0, 7, 63
3, 1527, Control_c, 0, 7, 63
3, 1528, Control_c, 0, 7, 63
3, 1529, Control_c, 0, 7, 63
3, 1530, Control_c, 0, 7, 63
3, 1531, Control_c, 0, 7, 63
3, 1532, Control_c, 0, 7, 63
3, 1533, Control_c, 0, 7, 63
3, 1534, Control_c, 0, 7, 63
3, 1535, Control_c, 0, 7, 63
3, 1536, Note_off_c, 0, 27, 64
3, 1536, Note_on_c, 0, 29, 100
3, 1536, Control_c, 0, 7, 63
3, 1537, Control_c, 0, 7, 63
3, 1538, Control_c, 0, 7, 63
3, 1539, Control_c, 0, 7, 63
3, 1540, Control_c, 0, 7, 63
3, 1541, Control_c, 0, 7, 63
3, 1542, Control_c, 0, 7, 63
3, 1543, Control_c, 0, 7, 63
3, 1544, Control_c, 0, 7, 63
3, 1545, Control_c, 0, 7, 63
3, 1546, Control_c, 0, 7, 63
3, 1547, Control_c, 0, 7, 63
3, 1548, Control_c, 0, 7, 63
3, 1549, Control_c, 0, 7, 63
3, 1550, Control_c, 0, 7, 63
3, 1551, Control_c, 0, 7, 63
3, 1552, Control_c, 0, 7, 63
3, 1553, Control_c, 0, 7, 63
3, 1554, Control_c, 0, 7, 63
3, 1555, Control_c, 0, 7, 63
3, 1556, Control_c, 0, 7, 63
3, 1557, Control_c, 0, 7, 63
3, 1558, Control_c, 0, 7, 64
3, 1559, Control_c, 0, 7, 64
3, 1560, Control_c, 0, 7, 64
3, 1561, Control_c, 0, 7, 64
3, 1562, Control_c, 0, 7, 64
3, 1563, Control_c, 0, 7, 64
3, 1564, Control_c, 0, 7, 64
3, 1565, Control_c, 0, 7, 64
3, 1566, Control_c, 0, 7, 64
3, 1567, Control_c, 0, 7, 64
3, 1568, Control_c, 0, 7, 64
3, 1569, Control_c, 0, 7, 64
3, 1570, Control_c, 0, 7, 64
3, 1571, Control_c, 0, 7, 64
3, 1572, Control_c, 0, 7, 64
3, 1573, Control_c, 0, 7, 64
3, 1574, Control_c, 0, 7, 64
3, 1575, Control_c, 0, 7, 64
3, 1576, Control_c, 0, 7, 64
3, 1577, Control_c, 0, 7, 64
3, 1578, Control_c, 0, 7, 64
3, 1579, Control_c, 0, 7, 64
3, 1580, Control_c, 0, 7, 64
3, 1581, Control_c, 0, 7, 64
3, 1582, Control_c, 0, 7, 64
3, 1583, Control_c, 0, 7, 64
3, 1584, Control_c, 0, 7, 64
3, 1585, Control_c, 0, 7, 64
3, 1586, Control_c, 0, 7, 64
3, 1587, Control_c, 0, 7, 64
3, 1588, Control_c, 0, 7, 64
3, 1589, Control_c, 0, 7, 64
3, 1590, Control_c, 0, 7, 64
3, 1591, Control_c, 0, 7, 64
3, 1592, Control_c, 0, 7, 64
3, 1593, Control_c, 0, 7, 64
3, 1594, Control_c, 0, 7, 64
3, 1595, Control_c, 0, 7, 64
3, 1596, Control_c, 0, 7, 64
3, 1597, Control_c, 0, 7, 64
3, 1598, Control_c, 0, 7, 65
3, 1599, Control_c, 0, 7, 65
3, 1600, Control_c, 0, 7, 65
3, 1601, Control_c, 0, 7, 65
3, 1602, Control_c, 0, 7, 65
3, 1603, Control_c, 0, 7, 65
3, 1604, Control_c, 0, 7, 65
3, 1605, Control_c, 0, 7, 65
3, 1606, Control_c, 0, 7, 65
3, 1607, Control_c, 0, 7, 65
3, 1608, Control_c, 0, 7, 65
3, 1609, Control_c, 0, 7, 65
3, 1610, Control_c, 0, 7, 65
3, 1611, Control_c, 0, 7, 65
3, 1612, Control_c, 0, 7, 65
3, 1613, Control_c, 0, 7, 65
3, 1614, Control_c, 0, 7, 65
3, 1615, Control_c, 0, 7, 65
3, 1616, Control_c, 0, 7, 65
3, 1617, Control_c, 0, 7, 65
3, 1618, Control_c, 0, 7, 65
3, 1619, Control_c, 0, 7, 65
3, 1620, Control_c, 0, 7, 65
3, 1621, Control_c, 0, 7, 65
3, 1622, Control_c, 0, 7, 65
3, 1623, Control_c, 0, 7, 65
3, 1624, Control_c, 0, 7, 65
3, 1625, Control_c, 0, 7, 65
3, 1626, Control_c, 0, 7, 65
3, 1627, Control_c, 0, 7, 65
3, 1628, Control_c, 0, 7, 65
3, 1629, Control_c, 0, 7, 65
3, 1630, Control_c, 0, 7, 65
3, 1631, Control_c, 0, 7, 65
3, 1632, Control_c, 0, 7, 65
3, 1633, Control_c, 0, 7, 65
3, 1634, Control_c, 0, 7, 65
3, 1635, Control_c, 0, 7, 65
3, 1636, Control_c, 0, 7, 65
3, 1637, Control_c, 0, 7, 65
3, 1638, Control_c, 0, 7, 65
3, 1639, Control_c, 0, 7, 66
3, 1640, Control_c, 0, 7, 66
3, 1641, Control_c, 0, 7, 66
3, 1642, Control_c, 0, 7, 66
3, 1643, Control_c, 0, 7, 66
3, 1644, Control_c, 0, 7, 66
3, 1645, Control_c, 0, 7, 66
3, 1646, Control_c, 0, 7, 66
3, 1647, Control_c, 0, 7, 66
3, 1648, Control_c, 0, 7, 66
3, 1649, Control_c, 0, 7, 66
3, 1650, Control_c, 0, 7, 66
3, 1651, Control_c, 0, 7, 66
3, 1652, Control_c, 0, 7, 66
3, 1653, Control_c, 0, 7, 66
3, 1654, Control_c, 0, 7, 66
3, 1655, Control_c, 0, 7, 66
3, 1656, Control_c, 0, 7, 66
3, 1657, Control_c, 0, 7, 66
3, 1658, Control_c, 0, 7, 66
3, 1659, Control_c, 0, 7, 66
3, 1660, Control_c, 0, 7, 66
3, 1661, Control_c, 0, 7, 66
3, 1662, Control_c, 0, 7, 66
3, 1663, Control_c, 0, 7, 66
3, 1664, Control_c, 0, 7, 66
3, 1665, Control_c, 0, 7, 66
3, 1666, Control_c, 0, 7, 66
3, 1667, Control_c, 0, 7, 66
3, 1668, Control_c, 0, 7, 66
3, 1669, Control_c, 0, 7, 66
3, 1670, Control_c, 0, 7, 66
3, 1671, Control_c, 0, 7, 66
3, 1672, Control_c, 0, 7, 66
3, 1673, Control_c, 0, 7, 66
3, 1674, Control_c, 0, 7, 66
3, 1675, Control_c, 0, 7, 66
3, 1676, Control_c, 0, 7, 66
3, 1677, Control_c, 0, 7, 66
3, 1678, Control_c, 0, 7, 66
3, 1679, Control_c, 0, 7, 67
3, 1680, Note_off_c, 0, 29, 64
3, 1680, Note_on_c, 0, 31, 100
3, 1680, Control_c, 0, 7, 67
3, 1681, Control_c, 0, 7, 67
3, 1682, Control_c, 0, 7, 67
3, 1683, Control_c, 0, 7, 67
3, 1684, Control_c, 0, 7, 67
3, 1685, Control_c, 0, 7, 67
3, 1686, Control_c, 0, 7, 67
3, 1687, Control_c, 0, 7, 67
3, 1688, Control_c, 0, 7, 67
3, 1689, Control_c, 0, 7, 67
3, 1690, Control_c, 0, 7, 67
3, 1691, Control_c, 0, 7, 67
3, 1692, Control_c, 0, 7, 67
3, 1693, Control_c, 0, 7, 67
3, 1694, Control_c, 0, 7, 67
3, 1695, Control_c, 0, 7, 67
3, 1696, Control_c, 0, 7, 67
3, 1697, Control_c, 0, 7, 67
3, 1698, Control_c, 0, 7, 67
3, 1699, Control_c, 0, 7, 67
3, 1700, Control_c, 0, 7, 67
3, 1701, Control_c, 0, 7, 67
3, 1702, Control_c, 0, 7, 67
3, 1703, Control_c, 0, 7, 67
3, 1704, Control_c, 0, 7, 67
3, 1705, Control_c, 0, 7, 67
3, 1706, Control_c, 0, 7, 67
3, 1707, Control_c, 0, 7, 67
3, 1708, Control_c, 0, 7, 67
3, 1709, Control_c, 0, 7, 67
3, 1710, Control_c, 0, 7, 67
3, 1711, Control_c, 0, 7, 67
3, 1712, Control_c, 0, 7, 67
3, 1713, Control_c, 0, 7, 67
3, 1714, Control_c, 0, 7, 67
3, 1715, Control_c, 0, 7, 67
3, 1716, Control_c, 0, 7, 67
3, 1717, Control_c, 0, 7, 67
3, 1718, Control_c, 0, 7, 67
3, 1719, Control_c, 0, 7, 68
3, 1720, Control_c, 0, 7, 68
3, 1721, Control_c, 0, 7, 68
3, 1722, Control_c, 0, 7, 68
3, 1723, Control_c, 0, 7, 68
3, 1724, Control_c, 0, 7, 68
3, 1725, Control_c, 0, 7, 68
3, 1726, Control_c, 0, 7, 68
3, 1727, Control_c, 0, 7, 68
3, 1728, Control_c, 0, 7, 68
3, 1729, Control_c, 0, 7, 68
3, 1730, Control_c, 0, 7, 68
3, 1731, Control_c, 0, 7, 68
3, 1732, Control_c, 0, 7, 68
3, 1733, Control_c, 0, 7, 68
3, 1734, Control_c, 0, 7, 68
3, 1735, Control_c, 0, 7, 68
3, 1736, Control_c, 0, 7, 68
3, 1737, Control_c, 0, 7, 68
3, 1738, Control_c, 0, 7, 68
3, 1739, Control_c, 0, 7, 68
3, 1740, Control_c, 0, 7, 68
3, 1741, Control_c, 0, 7, 68
3, 1742, Control_c, 0, 7, 68
3, 1743, Control_c, 0, 7, 68
3, 1744, Control_c, 0, 7, 68
3, 1745, Control_c, 0, 7, 68
3, 1746, Control_c, 0, 7, 68
3, 1747, Control_c, 0, 7, 68
3, 1748, Control_c, 0, 7, 68
3, 1749, Control_c, 0, 7, 68
3, 1750, Control_c, 0, 7, 68
3, 1751, Control_c, 0, 7, 68
3, 1752, Control_c, 0, 7, 68
3, 1753, Control_c, 0, 7, 68
3, 1754, Control_c, 0, 7, 68
3, 1755, Control_c, 0, 7, 68
3, 1756, Control_c, 0, 7, 68
3, 1757, Control_c, 0, 7, 68
3, 1758, Control_c, 0, 7, 68
3, 1759, Control_c, 0, 7, 68
3, 1760, Control_c, 0, 7, 69
3, 1761, Control_c, 0, 7, 69
3, 1762, Control_c, 0, 7, 69
3, 1763, Control_c, 0, 7, 69
3, 1764, Control_c, 0, 7, 69
3, 1765, Control_c, 0, 7, 69
3, 1766, Control_c, 0, 7, 69
3, 1767, Control_c, 0, 7, 69
3, 1768, Control_c, 0, 7, 69
3, 1769, Control_c, 0, 7, 69
3, 1770, Control_c, 0, 7, 69
3, 1771, Control_c, 0, 7, 69
3, 1772, Control_c, 0, 7, 69
3, 1773, Control_c, 0, 7, 69
3, 1774, Control_c, 0, 7, 69
3, 1775, Control_c, 0, 7, 69
3, 1776, Control_c, 0, 7, 69
3, 1777, Control_c, 0, 7, 69
3, 1778, Control_c, 0, 7, 69
3, 1779, Control_c, 0, 7, 69
3, 1780, Control_c, 0, 7, 69
3, 1781, Control_c, 0, 7, 69
3, 1782, Control_c, 0, 7, 69
3, 1783, Control_c, 0, 7, 69
3, 1784, Control_c, 0, 7, 69
3, 1785, Control_c, 0, 7, 69
3, 1786, Control_c, 0, 7, 69
3, 1787, Control_c, 0, 7, 69
3, 1788, Control_c, 0, 7, 69
3, 1789, Control_c, 0, 7, 69
3, 1790, Control_c, 0, 7, 69
3, 1791, Control_c, 0, 7, 69
3, 1792, Control_c, 0, 7, 69
3, 1793, Control_c, 0, 7, 69
3, 1794, Control_c, 0, 7, 69
3, 1795, Control_c, 0, 7, 69
3, 1796, Control_c, 0, 7, 69
3, 1797, Control_c, 0, 7, 69
3, 1798, Control_c, 0, 7, 69
3, 1799, Control_c, 0, 7, 69
3, 1800, Control_c, 0, 7, 69
3, 1801, Control_c, 0, 7, 70
3, 1802, Control_c, 0, 7, 70
3, 1803, Control_c, 0, 7, 70
3, 1804, Control_c, 0, 7, 70
3, 1805, Control_c, 0, 7, 70
3, 1806, Control_c, 0, 7, 70
3, 1807, Control_c, 0, 7, 70
3, 1808, Control_c, 0, 7, 70
3, 1809, Control_c, 0, 7, 70
3, 1810, Control_c, 0, 7, 70
3, 1811, Control_c, 0, 7, 70
3, 1812, Control_c, 0, 7, 70
3, 1813, Control_c, 0, 7, 70
3, 1814, Control_c, 0, 7, 70
3, 1815, Control_c, 0, 7, 70
3, 1816, Control_c, 0, 7, 70
3, 1817, Control_c, 0, 7, 70
3, 1818, Control_c, 0, 7, 70
3, 1819, Control_c, 0, 7, 70
3, 1820, Control_c, 0, 7, 70
3, 1821, Control_c, 0, 7, 70
3, 1822, Control_c, 0, 7, 70
3, 1823, Control_c, 0, 7, 70
3, 1824, Note_off_c, 0, 31, 64
3, 1824, Note_on_c, 0, 27, 100
3, 1824, Control_c, 0, 7, 70
3, 1825, Control_c, 0, 7, 70
3, 1826, Control_c, 0, 7, 70
3, 1827, Control_c, 0, 7, 70
3, 1828, Control_c, 0, 7, 70
3, 1829, Control_c, 0, 7, 70
3, 1830, Control_c, 0, 7, 70
3, 1831, Control_c, 0, 7, 70
3, 1832, Control_c, 0, 7, 70
3, 1833, Control_c, 0, 7, 70
3, 1834, Control_c, 0, 7, 70
3, 1835, Control_c, 0, 7, 70
3, 1836, Control_c, 0, 7, 70
3, 1837, Control_c, 0, 7, 70
3, 1838, Control_c, 0, 7, 70
3, 1839, Control_c, 0, 7, 70
3, 1840, Control_c, 0, 7, 70
3, 1841, Control_c, 0, 7, 70
3, 1842, Control_c, 0, 7, 71
3, 1843, Control_c, 0, 7, 71
3, 1844, Control_c, 0, 7, 71
3, 1845, Control_c, 0, 7, 71
3, 1846, Control_c, 0, 7, 71
3, 1847, Control_c, 0, 7, 71
3, 1848, Control_c, 0, 7, 71
3, 1849, Control_c, 0, 7, 71
3, 1850, Control_c, 0, 7, 71
3, 1851, Control_c, 0, 7, 71
3, 1852, Control_c, 0, 7, 71
3, 1853, Control_c, 0, 7, 71
3, 1854, Control_c, 0, 7, 71
3, 1855, Control_c, 0, 7, 71
3, 1856, Control_c, 0, 7, 71
3, 1857, Control_c, 0, 7, 71
3, 1858, Control_c, 0, 7, 71
3, 1859, Control_c, 0, 7, 71
3, 1860, Control_c, 0, 7, 71
3, 1861, Control_c, 0, 7, 71
3, 1862, Control_c, 0, 7, 71
3, 1863, Control_c, 0, 7, 71
3, 1864, Control_c, 0, 7, 71
3, 1865, Control_c, 0, 7, 71
3, 1866, Control_c, 0, 7, 71
3, 1867, Control_c, 0, 7, 71
3, 1868, Control_c, 0, 7, 71
3, 1869, Control_c, 0, 7, 71
3, 1870, Control_c, 0, 7, 71
3, 1871, Control_c, 0, 7, 71
3, 1872, Control_c, 0, 7, 71
3, 1873, Control_c, 0, 7, 71
3, 1874, Control_c, 0, 7, 71
3, 1875, Control_c, 0, 7, 71
3, 1876, Control_c, 0, 7, 71
3, 1877, Control_c, 0, 7, 71
3, 1878, Control_c, 0, 7, 71
3, 1879, Control_c, 0, 7, 71
3, 1880, Control_c, 0, 7, 71
3, 1881, Control_c, 0, 7, 71
3, 1882, Control_c, 0, 7, 71
3, 1883, Control_c, 0, 7, 72
3, 1884, Control_c, 0, 7, 72
3, 1885, Control_c, 0, 7, 72
3, 1886, Control_c, 0, 7, 72
3, 1887, Control_c, 0, 7, 72
3, 1888, Control_c, 0, 7, 72
3, 1889, Control_c, 0, 7, 72
3, 1890, Control_c, 0, 7, 72
3, 1891, Control_c, 0, 7, 72
3, 1892, Control_c, 0, 7, 72
3, 1893, Control_c, 0, 7, 72
3, 1894, Control_c, 0, 7, 72
3, 1895, Control_c, 0, 7, 72
3, 1896, Control_c, 0, 7, 72
3, 1897, Control_c, 0, 7, 72
3, 1898, Control_c, 0, 7, 72
3, 1899, Control_c, 0, 7, 72
3, 1900, Control_c, 0, 7, 72
3, 1901, Control_c, 0, 7, 72
3, 1902, Control_c, 0, 7, 72
3, 1903, Control_c, 0, 7, 72
3, 1904, Control_c, 0, 7, 72
3, 1905, Control_c, 0, 7, 72
3, 1906, Control_c, 0, 7, 72
3, 1907, Control_c, 0, 7, 72
3, 1908, Control_c, 0, 7, 72
3, 1909, Control_c, 0, 7, 72
3, 1910, Control_c, 0, 7, 72
3, 1911, Control_c, 0, 7, 72
3, 1912, Control_c, 0, 7, 72
3, 1913, Control_c, 0, 7, 72
3, 1914, Control_c, 0, 7, 72
3, 1915, Control_c, 0, 7, 72
3, 1916, Control_c, 0, 7, 72
3, 1917, Control_c, 0, 7, 72
3, 1918, Control_c, 0, 7, 72
3, 1919, Control_c, 0, 7, 72
3, 1920, Control_c, 0, 7, 72
3, 1921, Control_c, 0, 7, 72
3, 1922, Control_c, 0, 7, 72
3, 1923, Control_c, 0, 7, 72
3, 1924, Control_c, 0, 7, 72
3, 1925, Control_c, 0, 7, 73
3, 1926, Control_c, 0, 7, 73
3, 1927, Control_c, 0, 7, 73
3, 1928, Control_c, 0, 7, 73
3, 1929, Control_c, 0, 7, 73
3, 1930, Control_c, 0, 7, 73
3, 1931, Control_c, 0, 7, 73
3, 1932, Control_c, 0, 7, 73
3, 1933, Control_c, 0, 7, 73
3, 1934, Control_c, 0, 7, 73
3, 1935, Control_c, 0, 7, 73
3, 1936, Control_c, 0, 7, 73
3, 1937, Control_c, 0, 7, 73
3, 1938, Control_c, 0, 7, 73
3, 1939, Control_c, 0, 7, 73
3, 1940, Control_c, 0, 7, 73
3, 1941, Control_c, 0, 7, 73
3, 1942, Control_c, 0, 7, 73
3, 1943, Control_c, 0, 7, 73
3, 1944, Control_c, 0, 7, 73
3, 1945, Control_c, 0, 7, 73
3, 1946, Control_c, 0, 7, 73
3, 1947, Control_c, 0, 7, 73
3, 1948, Control_c, 0, 7, 73
3, 1949, Control_c, 0, 7, 73
3, 1950, Control_c, 0, 7, 73
3, 1951, Control_c, 0, 7, 73
3, 1952, Control_c, 0, 7, 73
3, 1953, Control_c, 0, 7, 73
3, 1954, Control_c, 0, 7, 73
3, 1955, Control_c, 0, 7, 73
3, 1956, Control_c, 0, 7, 73
3, 1957, Control_c, 0, 7, 73
3, 1958, Control_c, 0, 7, 73
3, 1959, Control_c, 0, 7, 73
3, 1960, Control_c, 0, 7, 73
3, 1961, Control_c, 0, 7, 73
3, 1962, Control_c, 0, 7, 73
3, 1963, Control_c, 0, 7, 73
3, 1964, Control_c, 0, 7, 73
3, 1965, Control_c, 0, 7, 73
3, 1966, Control_c, 0, 7, 73
3, 1967, Control_c, 0, 7, 74
3, 1968, Note_off_c, 0, 27, 64
3, 1968, Note_on_c, 0, 27, 100
3, 1968, Control_c, 0, 7, 74
3, 1969, Control_c, 0, 7, 74
3, 1970, Control_c, 0, 7, 74
3, 1971, Control_c, 0, 7, 74
3, 1972, Control_c, 0, 7, 74
3, 1973, Control_c, 0, 7, 74
3, 1974, Control_c, 0, 7, 74
3, 1975, Control_c, 0, 7, 74
3, 1976, Control_c, 0, 7, 74
3, 1977, Control_c, 0, 7, 74
3, 1978, Control_c, 0, 7, 74
3, 1979, Control_c, 0, 7, 74
3, 1980, Control_c, 0, 7, 74
3, 1981, Control_c, 0, 7, 74
3, 1982, Control_c, 0, 7, 74
3, 1983, Control_c, 0, 7, 74
3, 1984, Control_c, 0, 7, 74
3, 1985, Control_c, 0, 7, 74
3, 1986, Control_c, 0, 7, 74
3, 1987, Control_c, 0, 7, 74
3, 1988, Control_c, 0, 7, 74
3, 1989, Control_c, 0, 7, 74
3, 1990, Control_c, 0, 7, 74
3, 1991, Control_c, 0, 7, 74
3, 1992, Control_c, 0, 7, 74
3, 1993, Control_c, 0, 7, 74
3, 1994, Control_c, 0, 7, 74
3, 1995, Control_c, 0, 7, 74
3, 1996, Control_c, 0, 7, 74
3, 1997, Control_c, 0, 7, 74
3, 1998, Control_c, 0, 7, 74
3, 1999, Control_c, 0, 7, 74
3, 2000, Control_c, 0, 7, 74
3, 2001, Control_c, 0, 7, 74
3, 2002, Control_c, 0, 7, 74
3, 2003, Control_c, 0, 7, 74
3, 2004, Control_c, 0, 7, 74
3, 2005, Control_c, 0, 7, 74
3, 2006, Control_c, 0, 7, 74
3, 2007, Control_c, 0, 7, 74
3, 2008, Control_c, 0, 7, 74
3, 2009, Control_c, 0, 7, 74
3, 2010, Control_c, 0, 7, 75
3, 2011, Control_c, 0, 7, 75
3, 2012, Control_c, 0, 7, 75
3, 2013, Control_c, 0, 7, 75
3, 2014, Control_c, 0, 7, 75
3, 2015, Control_c, 0, 7, 75
3, 2016, Note_off_c, 0, 27, 64
3, 2016, Note_on_c, 0, 27, 100
3, 2016, Control_c, 0, 7, 75
3, 2017, Control_c, 0, 7, 75
3, 2018, Control_c, 0, 7, 75
3, 2019, Control_c, 0, 7, 75
3, 2020, Control_c, 0, 7, 75
3, 2021, Control_c, 0, 7, 75
3, 2022, Control_c, 0, 7, 75
3, 2023, Control_c, 0, 7, 75
3, 2024, Control_c, 0, 7, 75
3, 2025, Control_c, 0, 7, 75
3, 2026, Control_c, 0, 7, 75
3, 2027, Control_c, 0, 7, 75
3, 2028, Control_c, 0, 7, 75
3, 2029, Control_c, 0, 7, 75
3, 2030, Control_c, 0, 7, 75
3, 2031, Control_c, 0, 7, 75
3, 2032, Control_c, 0, 7, 75
3, 2033, Control_c, 0, 7, 75
3, 2034, Control_c, 0, 7, 75
3, 2035, Control_c, 0, 7, 75
3, 2036, Control_c, 0, 7, 75
3, 2037, Control_c, 0, 7, 75
3, 2038, Control_c, 0, 7, 75
3, 2039, Control_c, 0, 7, 75
3, 2040, Control_c, 0, 7, 75
3, 2041, Control_c, 0, 7, 75
3, 2042, Control_c, 0, 7, 75
3, 2043, Control_c, 0, 7, 75
3, 2044, Control_c, 0, 7, 75
3, 2045, Control_c, 0, 7, 75
3, 2046, Control_c, 0, 7, 75
3, 2047, Control_c, 0, 7, 75
3, 2048, Control_c, 0, 7, 75
3, 2049, Control_c, 0, 7, 75
3, 2050, Control_c, 0, 7, 75
3, 2051, Control_c, 0, 7, 75
3, 2052, Control_c, 0, 7, 75
3, 2053, Control_c, 0, 7, 75
3, 2054, Control_c, 0, 7, 76
3, 2055, Control_c, 0, 7, 76
3, 2056, Control_c, 0, 7, 76
3, 2057, Control_c, 0, 7, 76
3, 2058, Control_c, 0, 7, 76
3, 2059, Control_c, 0, 7, 76
3, 2060, Control_c, 0, 7, 76
3, 2061, Control_c, 0, 7, 76
3, 2062, Control_c, 0, 7, 76
3, 2063, Control_c, 0, 7, 76
3, 2064, Note_off_c, 0, 27, 64
3, 2064, Note_on_c, 0, 27, 100
3, 2064, Control_c, 0, 7, 76
3, 2065, Control_c, 0, 7, 76
3, 2066, Control_c, 0, 7, 76
3, 2067, Control_c, 0, 7, 76
3, 2068, Control_c, 0, 7, 76
3, 2069, Control_c, 0, 7, 76
3, 2070, Control_c, 0, 7, 76
3, 2071, Control_c, 0, 7, 76
3, 2072, Control_c, 0, 7, 76
3, 2073, Control_c, 0, 7, 76
3, 2074, Control_c, 0, 7, 76
3, 2075, Control_c, 0, 7, 76
3, 2076, Control_c, 0, 7, 76
3, 2077, Control_c, 0, 7, 76
3, 2078, Control_c, 0, 7, 76
3, 2079, Control_c, 0, 7, 76
3, 2080, Control_c, 0, 7, 76
3, 2081, Control_c, 0, 7, 76
3, 2082, Control_c, 0, 7, 76
3, 2083, Control_c, 0, 7, 76
3, 2084, Control_c, 0, 7, 76
3, 2085, Control_c, 0, 7, 76
3, 2086, Control_c, 0, 7, 76
3, 2087, Control_c, 0, 7, 76
3, 2088, Control_c, 0, 7, 76
3, 2089, Control_c, 0, 7, 76
3, 2090, Control_c, 0, 7, 76
3, 2091, Control_c, 0, 7, 76
3, 2092, Control_c, 0, 7, 76
3, 2093, Control_c, 0, 7, 76
3, 2094, Control_c, 0, 7, 76
3, 2095, Control_c, 0, 7, 76
3, 2096, Control_c, 0, 7, 76
3, 2097, Control_c, 0, 7, 76
3, 2098, Control_c, 0, 7, 77
3, 2099, Control_c, 0, 7, 77
3, 2100, Control_c, 0, 7, 77
3, 2101, Control_c, 0, 7, 77
3, 2102, Control_c, 0, 7, 77
3, 2103, Control_c, 0, 7, 77
3, 2104, Control_c, 0, 7, 77
3, 2105, Control_c, 0, 7, 77
3, 2106, Control_c, 0, 7, 77
3, 2107, Control_c, 0, 7, 77
3, 2108, Control_c, 0, 7, 77
3, 2109, Control_c, 0, 7, 77
3, 2110, Control_c, 0, 7, 77
3, 2111, Control_c, 0, 7, 77
3, 2112, Note_off_c, 0, 27, 64
3, 2112, Note_on_c, 0, 27, 100
3, 2112, Control_c, 0, 7, 77
3, 2113, Control_c, 0, 7, 77
3, 2114, Control_c, 0, 7, 77
3, 2115, Control_c, 0, 7, 77
3, 2116, Control_c, 0, 7, 77
3, 2117, Control_c, 0, 7, 77
3, 2118, Control_c, 0, 7, 77
3, 2119, Control_c, 0, 7, 77
3, 2120, Control_c, 0, 7, 77
3, 2121, Control_c, 0, 7, 77
3, 2122, Control_c, 0, 7, 77
3, 2123, Control_c, 0, 7, 77
3, 2124, Control_c, 0, 7, 77
3, 2125, Control_c, 0, 7, 77
3, 2126, Control_c, 0, 7, 77
3, 2127, Control_c, 0, 7, 77
3, 2128, Control_c, 0, 7, 77
3, 2129, Control_c, 0, 7, 77
3, 2130, Control_c, 0, 7, 77
3, 2131, Control_c, 0, 7, 77
3, 2132, Control_c, 0, 7, 77
3, 2133, Control_c, 0, 7, 77
3, 2134, Control_c, 0, 7, 77
3, 2135, Control_c, 0, 7, 77
3, 2136, Control_c, 0, 7, 77
3, 2137, Control_c, 0, 7, 77
3, 2138, Control_c, 0, 7, 77
3, 2139, Control_c, 0, 7, 77
3, 2140, Control_c, 0, 7, 77
3, 2141, Control_c, 0, 7, 77
3, 2142, Control_c, 0, 7, 78
3, 2143, Control_c, 0, 7, 78
3, 2144, Control_c, 0, 7, 78
3, 2145, Control_c, 0, 7, 78
3, 2146, Control_c, 0, 7, 78
3, 2147, Control_c, 0, 7, 78
3, 2148, Control_c, 0, 7, 78
3, 2149, Control_c, 0, 7, 78
3, 2150, Control_c, 0, 7, 78
3, 2151, Control_c, 0, 7, 78
3, 2152, Control_c, 0, 7, 78
3, 2153, Control_c, 0, 7, 78
3, 2154, Control_c, 0, 7, 78
3, 2155, Control_c, 0, 7, 78
3, 2156, Control_c, 0, 7, 78
3, 2157, Control_c, 0, 7, 78
3, 2158, Control_c, 0, 7, 78
3, 2159, Control_c, 0, 7, 78
3, 2160, Note_off_c, 0, 27, 64
3, 2160, Note_on_c, 0, 27, 100
3, 2160, Control_c, 0, 7, 78
3, 2161, Control_c, 0, 7, 78
3, 2162, Control_c, 0, 7, 78
3, 2163, Control_c, 0, 7, 78
3, 2164, Control_c, 0, 7, 78
3, 2165, Control_c, 0, 7, 78
3, 2166, Control_c, 0, 7, 78
3, 2167, Control_c, 0, 7, 78
3, 2168, Control_c, 0, 7, 78
3, 2169, Control_c, 0, 7, 78
3, 2170, Control_c, 0, 7, 78
3, 2171, Control_c, 0, 7, 78
3, 2172, Control_c, 0, 7, 78
3, 2173, Control_c, 0, 7, 78
3, 2174, Control_c, 0, 7, 78
3, 2175, Control_c, 0, 7, 78
3, 2176, Control_c, 0, 7, 78
3, 2177, Control_c, 0, 7, 78
3, 2178, Control_c, 0, 7, 78
3, 2179, Control_c, 0, 7, 78
3, 2180, Control_c, 0, 7, 78
3, 2181, Control_c, 0, 7, 78
3, 2182, Control_c, 0, 7, 78
3, 2183, Control_c, 0, 7, 78
3, 2184, Control_c, 0, 7, 78
3, 2185, Control_c, 0, 7, 78
3, 2186, Control_c, 0, 7, 78
3, 2187, Control_c, 0, 7, 78
3, 2188, Control_c, 0, 7, 79
3, 2189, Control_c, 0, 7, 79
3, 2190, Control_c, 0, 7, 79
3, 2191, Control_c, 0, 7, 79
3, 2192, Control_c, 0, 7, 79
3, 2193, Control_c, 0, 7, 79
3, 2194, Control_c, 0, 7, 79
3, 2195, Control_c, 0, 7, 79
3, 2196, Control_c, 0, 7, 79
3, 2197, Control_c, 0, 7, 79
3, 2198, Control_c, 0, 7, 79
3, 2199, Control_c, 0, 7, 79
3, 2200, Control_c, 0, 7, 79
3, 2201, Control_c, 0, 7, 79
3, 2202, Control_c, 0, 7, 79
3, 2203, Control_c, 0, 7, 79
3, 2204, Control_c, 0, 7, 79
3, 2205, Control_c, 0, 7, 79
3, 2206, Control_c, 0, 7, 79
3, 2207, Control_c, 0, 7, 79
3, 2208, Note_off_c, 0, 27, 64
3, 2208, Note_on_c, 0, 27, 100
3, 2208, Control_c, 0, 7, 79
3, 2209, Control_c, 0, 7, 79
3, 2210, Control_c, 0, 7, 79
3, 2211, Control_c, 0, 7, 79
3, 2212, Control_c, 0, 7, 79
3, 2213, Control_c, 0, 7, 79
3, 2214, Control_c, 0, 7, 79
3, 2215, Control_c, 0, 7, 79
3, 2216, Control_c, 0, 7, 79
3, 2217, Control_c, 0, 7, 79
3, 2218, Control_c, 0, 7, 79
3, 2219, Control_c, 0, 7, 79
3, 2220, Control_c, 0, 7, 79
3, 2221, Control_c, 0, 7, 79
3, 2222, Control_c, 0, 7, 79
3, 2223, Control_c, 0, 7, 79
3, 2224, Control_c, 0, 7, 79
3, 2225, Control_c, 0, 7, 79
3, 2226, Control_c, 0, 7, 79
3, 2227, Control_c, 0, 7, 79
3, 2228, Control_c, 0, 7, 79
3, 2229, Control_c, 0, 7, 79
3, 2230, Control_c, 0, 7, 79
3, 2231, Control_c, 0, 7, 79
3, 2232, Control_c, 0, 7, 79
3, 2233, Control_c, 0, 7, 79
3, 2234, Control_c, 0, 7, 80
3, 2235, Control_c, 0, 7, 80
3, 2236, Control_c, 0, 7, 80
3, 2237, Control_c, 0, 7, 80
3, 2238, Control_c, 0, 7, 80
3, 2239, Control_c, 0, 7, 80
3, 2240, Control_c, 0, 7, 80
3, 2241, Control_c, 0, 7, 80
3, 2242, Control_c, 0, 7, 80
3, 2243, Control_c, 0, 7, 80
3, 2244, Control_c, 0, 7, 80
3, 2245, Control_c, 0, 7, 80
3, 2246, Control_c, 0, 7, 80
3, 2247, Control_c, 0, 7, 80
3, 2248, Control_c, 0, 7, 80
3, 2249, Control_c, 0, 7, 80
3, 2250, Control_c, 0, 7, 80
3, 2251, Control_c, 0, 7, 80
3, 2252, Control_c, 0, 7, 80
3, 2253, Control_c, 0, 7, 80
3, 2254, Control_c, 0, 7, 80
3, 2255, Control_c, 0, 7, 80
3, 2256, Note_off_c, 0, 27, 64
3, 2256, Note_on_c, 0, 27, 100
3, 2256, Control_c, 0, 7, 80
3, 2257, Control_c, 0, 7, 80
3, 2258, Control_c, 0, 7, 80
3, 2259, Control_c, 0, 7, 80
3, 2260, Control_c, 0, 7, 80
3, 2261, Control_c, 0, 7, 80
3, 2262, Control_c, 0, 7, 80
3, 2263, Control_c, 0, 7, 80
3, 2264, Control_c, 0, 7, 80
3, 2265, Control_c, 0, 7, 80
3, 2266, Control_c, 0, 7, 80
3, 2267, Control_c, 0, 7, 80
3, 2268, Control_c, 0, 7, 80
3, 2269, Control_c, 0, 7, 80
3, 2270, Control_c, 0, 7, 80
3, 2271, Control_c, 0, 7, 80
3, 2272, Control_c, 0, 7, 80
3, 2273, Control_c, 0, 7, 80
3, 2274, Control_c, 0, 7, 80
3, 2275, Control_c, 0, 7, 80
3, 2276, Control_c, 0, 7, 80
3, 2277, Control_c, 0, 7, 80
3, 2278, Control_c, 0, 7, 80
3, 2279, Control_c, 0, 7, 80
3, 2280, Control_c, 0, 7, 80
3, 2281, Control_c, 0, 7, 80
3, 2282, Control_c, 0, 7, 81
3, 2283, Control_c, 0, 7, 81
3, 2284, Control_c, 0, 7, 81
3, 2285, Control_c, 0, 7, 81
3, 2286, Control_c, 0, 7, 81
3, 2287, Control_c, 0, 7, 81
3, 2288, Control_c, 0, 7, 81
3, 2289, Control_c, 0, 7, 81
3, 2290, Control_c, 0, 7, 81
3, 2291, Control_c, 0, 7, 81
3, 2292, Control_c, 0, 7, 81
3, 2293, Control_c, 0, 7, 81
3, 2294, Control_c, 0, 7, 81
3, 2295, Control_c, 0, 7, 81
3, 2296, Control_c, 0, 7, 81
3, 2297, Control_c, 0, 7, 81
3, 2298, Control_c, 0, 7, 81
3, 2299, Control_c, 0, 7, 81
3, 2300, Control_c, 0, 7, 81
3, 2301, Control_c, 0, 7, 81
3, 2302, Control_c, 0, 7, 81
3, 2303, Control_c, 0, 7, 81
3, 2304, Note_off_c, 0, 27, 64
3, 2304, Note_on_c, 0, 29, 100
3, 2304, Control_c, 0, 7, 81
3, 2305, Control_c, 0, 7, 81
3, 2306, Control_c, 0, 7, 81
3, 2307, Control_c, 0, 7, 81
3, 2308, Control_c, 0, 7, 81
3, 2309, Control_c, 0, 7, 81
3, 2310, Control_c, 0, 7, 81
3, 2311, Control_c, 0, 7, 81
3, 2312, Control_c, 0, 7, 81
3, 2313, Control_c, 0, 7, 81
3, 2314, Control_c, 0, 7, 81
3, 2315, Control_c, 0, 7, 81
3, 2316, Control_c, 0, 7, 81
3, 2317, Control_c, 0, 7, 81
3, 2318, Control_c, 0, 7, 81
3, 2319, Control_c, 0, 7, 81
3, 2320, Control_c, 0, 7, 81
3, 2321, Control_c, 0, 7, 81
3, 2322, Control_c, 0, 7, 81
3, 2323, Control_c, 0, 7, 81
3, 2324, Control_c, 0, 7, 81
3, 2325, Control_c, 0, 7, 81
3, 2326, Control_c, 0, 7, 81
3, 2327, Control_c, 0, 7, 81
3, 2328, Control_c, 0, 7, 81
3, 2329, Control_c, 0, 7, 81
3, 2330, Control_c, 0, 7, 81
3, 2331, Control_c, 0, 7, 82
3, 2332, Control_c, 0, 7, 82
3, 2333, Control_c, 0, 7, 82
3, 2334, Control_c, 0, 7, 82
3, 2335, Control_c, 0, 7, 82
3, 2336, Control_c, 0, 7, 82
3, 2337, Control_c, 0, 7, 82
3, 2338, Control_c, 0, 7, 82
3, 2339, Control_c, 0, 7, 82
3, 2340, Control_c, 0, 7, 82
3, 2341, Control_c, 0, 7, 82
3, 2342, Control_c, 0, 7, 82
3, 2343, Control_c, 0, 7, 82
3, 2344, Control_c, 0, 7, 82
3, 2345, Control_c, 0, 7, 82
3, 2346, Control_c, 0, 7, 82
3, 2347, Control_c, 0, 7, 82
3, 2348, Control_c, 0, 7, 82
3, 2349, Control_c, 0, 7, 82
3, 2350, Control_c, 0, 7, 82
3, 2351, Control_c, 0, 7, 82
3, 2352, Control_c, 0, 7, 82
3, 2353, Control_c, 0, 7, 82
3, 2354, Control_c, 0, 7, 82
3, 2355, Control_c, 0, 7, 82
3, 2356, Control_c, 0, 7, 82
3, 2357, Control_c, 0, 7, 82
3, 2358, Control_c, 0, 7, 82
3, 2359, Control_c, 0, 7, 82
3, 2360, Control_c, 0, 7, 82
3, 2361, Control_c, 0, 7, 82
3, 2362, Control_c, 0, 7, 82
3, 2363, Control_c, 0, 7, 82
3, 2364, Control_c, 0, 7, 82
3, 2365, Control_c, 0, 7, 82
3, 2366, Control_c, 0, 7, 82
3, 2367, Control_c, 0, 7, 82
3, 2368, Control_c, 0, 7, 82
3, 2369, Control_c, 0, 7, 82
3, 2370, Control_c, 0, 7, 82
3, 2371, Control_c, 0, 7, 82
3, 2372, Control_c, 0, 7, 82
3, 2373, Control_c, 0, 7, 82
3, 2374, Control_c, 0, 7, 82
3, 2375, Control_c, 0, 7, 82
3, 2376, Control_c, 0, 7, 82
3, 2377, Control_c, 0, 7, 82
3, 2378, Control_c, 0, 7, 82
3, 2379, Control_c, 0, 7, 82
3, 2380, Control_c, 0, 7, 82
3, 2381, Control_c, 0, 7, 83
3, 2382, Control_c, 0, 7, 83
3, 2383, Control_c, 0, 7, 83
3, 2384, Control_c, 0, 7, 83
3, 2385, Control_c, 0, 7, 83
3, 2386, Control_c, 0, 7, 83
3, 2387, Control_c, 0, 7, 83
3, 2388, Control_c, 0, 7, 83
3, 2389, Control_c, 0, 7, 83
3, 2390, Control_c, 0, 7, 83
3, 2391, Control_c, 0, 7, 83
3, 2392, Control_c, 0, 7, 83
3, 2393, Control_c, 0, 7, 83
3, 2394, Control_c, 0, 7, 83
3, 2395, Control_c, 0, 7, 83
3, 2396, Control_c, 0, 7, 83
3, 2397, Control_c, 0, 7, 83
3, 2398, Control_c, 0, 7, 83
3, 2399, Control_c, 0, 7, 83
3, 2400, Control_c, 0, 7, 83
3, 2401, Control_c, 0, 7, 83
3, 2402, Control_c, 0, 7, 83
3, 2403, Control_c, 0, 7, 83
3, 2404, Control_c, 0, 7, 83
3, 2405, Control_c, 0, 7, 83
3, 2406, Control_c, 0, 7, 83
3, 2407, Control_c, 0, 7, 83
3, 2408, Control_c, 0, 7, 83
3, 2409, Control_c, 0, 7, 83
3, 2410, Control_c, 0, 7, 83
3, 2411, Control_c, 0, 7, 83
3, 2412, Control_c, 0, 7, 83
3, 2413, Control_c, 0, 7, 83
3, 2414, Control_c, 0, 7, 83
3, 2415, Control_c, 0, 7, 83
3, 2416, Control_c, 0, 7, 83
3, 2417, Control_c, 0, 7, 83
3, 2418, Control_c, 0, 7, 83
3, 2419, Control_c, 0, 7, 83
3, 2420, Control_c, 0, 7, 83
3, 2421, Control_c, 0, 7, 83
3, 2422, Control_c, 0, 7, 83
3, 2423, Control_c, 0, 7, 83
3, 2424, Control_c, 0, 7, 83
3, 2425, Control_c, 0, 7, 83
3, 2426, Control_c, 0, 7, 83
3, 2427, Control_c, 0, 7, 83
3, 2428, Control_c, 0, 7, 83
3, 2429, Control_c, 0, 7, 83
3, 2430, Control_c, 0, 7, 83
3, 2431, Control_c, 0, 7, 83
3, 2432, Control_c, 0, 7, 83
3, 2433, Control_c, 0, 7, 83
3, 2434, Control_c, 0, 7, 84
3, 2435, Control_c, 0, 7, 84
3, 2436, Control_c, 0, 7, 84
3, 2437, Control_c, 0, 7, 84
3, 2438, Control_c, 0, 7, 84
3, 2439, Control_c, 0, 7, 84
3, 2440, Control_c, 0, 7, 84
3, 2441, Control_c, 0, 7, 84
3, 2442, Control_c, 0, 7, 84
3, 2443, Control_c, 0, 7, 84
3, 2444, Control_c, 0, 7, 84
3, 2445, Control_c, 0, 7, 84
3, 2446, Control_c, 0, 7, 84
3, 2447, Control_c, 0, 7, 84
3, 2448, Note_off_c, 0, 29, 64
3, 2448, Note_on_c, 0, 31, 100
3, 2448, Control_c, 0, 7, 84
3, 2449, Control_c, 0, 7, 84
3, 2450, Control_c, 0, 7, 84
3, 2451, Control_c, 0, 7, 84
3, 2452, Control_c, 0, 7, 84
3, 2453, Control_c, 0, 7, 84
3, 2454, Control_c, 0, 7, 84
3, 2455, Control_c, 0, 7, 84
3, 2456, Control_c, 0, 7, 84
3, 2457, Control_c, 0, 7, 84
3, 2458, Control_c, 0, 7, 84
3, 2459, Control_c, 0, 7, 84
3, 2460, Control_c, 0, 7, 84
3, 2461, Control_c, 0, 7, 84
3, 2462, Control_c, 0, 7, 84
3, 2463, Control_c, 0, 7, 84
3, 2464, Control_c, 0, 7, 84
3, 2465, Control_c, 0, 7, 84
3, 2466, Control_c, 0, 7, 84
3, 2467, Control_c, 0, 7, 84
3, 2468, Control_c, 0, 7, 84
3, 2469, Control_c, 0, 7, 84
3, 2470, Control_c, 0, 7, 84
3, 2471, Control_c, 0, 7, 84
3, 2472, Control_c, 0, 7, 84
3, 2473, Control_c, 0, 7, 84
3, 2474, Control_c, 0, 7, 84
3, 2475, Control_c, 0, 7, 84
3, 2476, Control_c, 0, 7, 84
3, 2477, Control_c, 0, 7, 84
3, 2478, Control_c, 0, 7, 84
3, 2479, Control_c, 0, 7, 84
3, 2480, Control_c, 0, 7, 84
3, 2481, Control_c, 0, 7, 84
3, 2482, Control_c, 0, 7, 84
3, 2483, Control_c, 0, 7, 84
3, 2484, Control_c, 0, 7, 84
3, 2485, Control_c, 0, 7, 84
3, 2486, Control_c, 0, 7, 84
3, 2487, Control_c, 0, 7, 84
3, 2488, Control_c, 0, 7, 85
3, 2489, Control_c, 0, 7, 85
3, 2490, Control_c, 0, 7, 85
3, 2491, Control_c, 0, 7, 85
3, 2492, Control_c, 0, 7, 85
3, 2493, Control_c, 0, 7, 85
3, 2494, Control_c, 0, 7, 85
3, 2495, Control_c, 0, 7, 85
3, 2496, Control_c, 0, 7, 85
3, 2497, Control_c, 0, 7, 85
3, 2498, Control_c, 0, 7, 85
3, 2499, Control_c, 0, 7, 85
3, 2500, Control_c, 0, 7, 85
3, 2501, Control_c, 0, 7, 85
3, 2502, Control_c, 0, 7, 85
3, 2503, Control_c, 0, 7, 85
3, 2504, Control_c, 0, 7, 85
3, 2505, Control_c, 0, 7, 85
3, 2506, Control_c, 0, 7, 85
3, 2507, Control_c, 0, 7, 85
3, 2508, Control_c, 0, 7, 85
3, 2509, Control_c, 0, 7, 85
3, 2510, Control_c, 0, 7, 85
3, 2511, Control_c, 0, 7, 85
3, 2512, Control_c, 0, 7, 85
3, 2513, Control_c, 0, 7, 85
3, 2514, Control_c, 0, 7, 85
3, 2515, Control_c, 0, 7, 85
3, 2516, Control_c, 0, 7, 85
3, 2517, Control_c, 0, 7, 85
3, 2518, Control_c, 0, 7, 85
3, 2519, Control_c, 0, 7, 85
3, 2520, Control_c, 0, 7, 85
3, 2521, Control_c, 0, 7, 85
3, 2522, Control_c, 0, 7, 85
3, 2523, Control_c, 0, 7, 85
3, 2524, Control_c, 0, 7, 85
3, 2525, Control_c, 0, 7, 85
3, 2526, Control_c, 0, 7, 85
3, 2527, Control_c, 0, 7, 85
3, 2528, Control_c, 0, 7, 85
3, 2529, Control_c, 0, 7, 85
3, 2530, Control_c, 0, 7, 85
3, 2531, Control_c, 0, 7, 85
3, 2532, Control_c, 0, 7, 85
3, 2533, Control_c, 0, 7, 85
3, 2534, Control_c, 0, 7, 85
3, 2535, Control_c, 0, 7, 85
3, 2536, Control_c, 0, 7, 85
3, 2537, Control_c, 0, 7, 85
3, 2538, Control_c, 0, 7, 85
3, 2539, Control_c, 0, 7, 85
3, 2540, Control_c, 0, 7, 85
3, 2541, Control_c, 0, 7, 85
3, 2542, Control_c, 0, 7, 85
3, 2543, Control_c, 0, 7, 85
3, 2544, Control_c, 0, 7, 85
3, 2545, Control_c, 0, 7, 86
3, 2546, Control_c, 0, 7, 86
3, 2547, Control_c, 0, 7, 86
3, 2548, Control_c, 0, 7, 86
3, 2549, Control_c, 0, 7, 86
3, 2550, Control_c, 0, 7, 86
3, 2551, Control_c, 0, 7, 86
3, 2552, Control_c, 0, 7, 86
3, 2553, Control_c, 0, 7, 86
3, 2554, Control_c, 0, 7, 86
3, 2555, Control_c, 0, 7, 86
3, 2556, Control_c, 0, 7, 86
3, 2557, Control_c, 0, 7, 86
3, 2558, Control_c, 0, 7, 86
3, 2559, Control_c, 0, 7, 86
3, 2560, Control_c, 0, 7, 86
3, 2561, Control_c, 0, 7, 86
3, 2562, Control_c, 0, 7, 86
3, 2563, Control_c, 0, 7, 86
3, 2564, Control_c, 0, 7, 86
3, 2565, Control_c, 0, 7, 86
3, 2566, Control_c, 0, 7, 86
3, 2567, Control_c, 0, 7, 86
3, 2568, Control_c, 0, 7, 86
3, 2569, Control_c, 0, 7, 86
3, 2570, Control_c, 0, 7, 86
3, 2571, Control_c, 0, 7, 86
3, 2572, Control_c, 0, 7, 86
3, 2573, Control_c, 0, 7, 86
3, 2574, Control_c, 0, 7, 86
3, 2575, Control_c, 0, 7, 86
3, 2576, Control_c, 0, 7, 86
3, 2577, Control_c, 0, 7, 86
3, 2578, Control_c, 0, 7, 86
3, 2579, Control_c, 0, 7, 86
3, 2580, Control_c, 0, 7, 86
3, 2581, Control_c, 0, 7, 86
3, 2582, Control_c, 0, 7, 86
3, 2583, Control_c, 0, 7, 86
3, 2584, Control_c, 0, 7, 86
3, 2585, Control_c, 0, 7, 86
3, 2586, Control_c, 0, 7, 86
3, 2587, Control_c, 0, 7, 86
3, 2588, Control_c, 0, 7, 86
3, 2589, Control_c, 0, 7, 86
3, 2590, Control_c, 0, 7, 86
3, 2591, Control_c, 0, 7, 86
3, 2592, Note_off_c, 0, 31, 64
3, 2592, Note_on_c, 0, 27, 100
3, 2592, Control_c, 0, 7, 86
3, 2593, Control_c, 0, 7, 86
3, 2594, Control_c, 0, 7, 86
3, 2595, Control_c, 0, 7, 86
3, 2596, Control_c, 0, 7, 86
3, 2597, Control_c, 0, 7, 86
3, 2598, Control_c, 0, 7, 86
3, 2599, Control_c, 0, 7, 86
3, 2600, Control_c, 0, 7, 86
3, 2601, Control_c, 0, 7, 86
3, 2602, Control_c, 0, 7, 86
3, 2603, Control_c, 0, 7, 86
3, 2604, Control_c, 0, 7, 87
3, 2605, Control_c, 0, 7, 87
3, 2606, Control_c, 0, 7, 87
3, 2607, Control_c, 0, 7, 87
3, 2608, Control_c, 0, 7, 87
3, 2609, Control_c, 0, 7, 87
3, 2610, Control_c, 0, 7, 87
3, 2611, Control_c, 0, 7, 87
3, 2612, Control_c, 0, 7, 87
3, 2613, Control_c, 0, 7, 87
3, 2614, Control_c, 0, 7, 87
3, 2615, Control_c, 0, 7, 87
3, 2616, Control_c, 0, 7, 87
3, 2617, Control_c, 0, 7, 87
3, 2618, Control_c, 0, 7, 87
3, 2619, Control_c, 0, 7, 87
3, 2620, Control_c, 0, 7, 87
3, 2621, Control_c, 0, 7, 87
3, 2622, Control_c, 0, 7, 87
3, 2623, Control_c, 0, 7, 87
3, 2624, Control_c, 0, 7, 87
3, 2625, Control_c, 0, 7, 87
3, 2626, Control_c, 0, 7, 87
3, 2627, Control_c, 0, 7, 87
3, 2628, Control_c, 0, 7, 87
3, 2629, Control_c, 0, 7, 87
3, 2630, Control_c, 0, 7, 87
3, 2631, Control_c, 0, 7, 87
3, 2632, Control_c, 0, 7, 87
3, 2633, Control_c, 0, 7, 87
3, 2634, Control_c, 0, 7, 87
3, 2635, Control_c, 0, 7, 87
3, 2636, Control_c, 0, 7, 87
3, 2637, Control_c, 0, 7, 87
3, 2638, Control_c, 0, 7, 87
3, 2639, Control_c, 0, 7, 87
3, 2640, Control_c, 0, 7, 87
3, 2641, Control_c, 0, 7, 87
3, 2642, Control_c, 0, 7, 87
3, 2643, Control_c, 0, 7, 87
3, 2644, Control_c, 0, 7, 87
3, 2645, Control_c, 0, 7, 87
3, 2646, Control_c, 0, 7, 87
3, 2647, Control_c, 0, 7, 87
3, 2648, Control_c, 0, 7, 87
3, 2649, Control_c, 0, 7, 87
3, 2650, Control_c, 0, 7, 87
3, 2651, Control_c, 0, 7, 87
3, 2652, Control_c, 0, 7, 87
3, 2653, Control_c, 0, 7, 87
3, 2654, Control_c, 0, 7, 87
3, 2655, Control_c, 0, 7, 87
3, 2656, Control_c, 0, 7, 87
3, 2657, Control_c, 0, 7, 87
3, 2658, Control_c, 0, 7, 87
3, 2659, Control_c, 0, 7, 87
3, 2660, Control_c, 0, 7, 87
3, 2661, Control_c, 0, 7, 87
3, 2662, Control_c, 0, 7, 87
3, 2663, Control_c, 0, 7, 87
3, 2664, Control_c, 0, 7, 87
3, 2665, Control_c, 0, 7, 87
3, 2666, Control_c, 0, 7, 87
3, 2667, Control_c, 0, 7, 87
3, 2668, Control_c, 0, 7, 88
3, 2669, Control_c, 0, 7, 88
3, 2670, Control_c, 0, 7, 88
3, 2671, Control_c, 0, 7, 88
3, 2672, Control_c, 0, 7, 88
3, 2673, Control_c, 0, 7, 88
3, 2674, Control_c, 0, 7, 88
3, 2675, Control_c, 0, 7, 88
3, 2676, Control_c, 0, 7, 88
3, 2677, Control_c, 0, 7, 88
3, 2678, Control_c, 0, 7, 88
3, 2679, Control_c, 0, 7, 88
3, 2680, Control_c, 0, 7, 88
3, 2681, Control_c, 0, 7, 88
3, 2682, Control_c, 0, 7, 88
3, 2683, Control_c, 0, 7, 88
3, 2684, Control_c, 0, 7, 88
3, 2685, Control_c, 0, 7, 88
3, 2686, Control_c, 0, 7, 88
3, 2687, Control_c, 0, 7, 88
3, 2688, Control_c, 0, 7, 88
3, 2689, Control_c, 0, 7, 88
3, 2690, Control_c, 0, 7, 88
3, 2691, Control_c, 0, 7, 88
3, 2692, Control_c, 0, 7, 88
3, 2693, Control_c, 0, 7, 88
3, 2694, Control_c, 0, 7, 88
3, 2695, Control_c, 0, 7, 88
3, 2696, Control_c, 0, 7, 88
3, 2697, Control_c, 0, 7, 88
3, 2698, Control_c, 0, 7, 88
3, 2699, Control_c, 0, 7, 88
3, 2700, Control_c, 0, 7, 88
3, 2701, Control_c, 0, 7, 88
3, 2702, Control_c, 0, 7, 88
3, 2703, Control_c, 0, 7, 88
3, 2704, Control_c, 0, 7, 88
3, 2705, Control_c, 0, 7, 88
3, 2706, Control_c, 0, 7, 88
3, 2707, Control_c, 0, 7, 88
3, 2708, Control_c, 0, 7, 88
3, 2709, Control_c, 0, 7, 88
3, 2710, Control_c, 0, 7, 88
3, 2711, Control_c, 0, 7, 88
3, 2712, Control_c, 0, 7, 88
3, 2713, Control_c, 0, 7, 88
3, 2714, Control_c, 0, 7, 88
3, 2715, Control_c, 0, 7, 88
3, 2716, Control_c, 0, 7, 88
3, 2717, Control_c, 0, 7, 88
3, 2718, Control_c, 0, 7, 88
3, 2719, Control_c, 0, 7, 88
3, 2720, Control_c, 0, 7, 88
3, 2721, Control_c, 0, 7, 88
3, 2722, Control_c, 0, 7, 88
3, 2723, Control_c, 0, 7, 88
3, 2724, Control_c, 0, 7, 88
3, 2725, Control_c, 0, 7, 88
3, 2726, Control_c, 0, 7, 88
3, 2727, Control_c, 0, 7, 88
3, 2728, Control_c, 0, 7, 88
3, 2729, Control_c, 0, 7, 88
3, 2730, Control_c, 0, 7, 88
3, 2731, Control_c, 0, 7, 88
3, 2732, Control_c, 0, 7, 88
3, 2733, Control_c, 0, 7, 88
3, 2734, Control_c, 0, 7, 88
3, 2735, Control_c, 0, 7, 88
3, 2736, Note_off_c, 0, 27, 64
3, 2736, Note_on_c, 0, 27, 100
3, 2736, Control_c, 0, 7, 89
3, 2737, Control_c, 0, 7, 89
3, 2738, Control_c, 0, 7, 89
3, 2739, Control_c, 0, 7, 89
3, 2740, Control_c, 0, 7, 89
3, 2741, Control_c, 0, 7, 89
3, 2742, Control_c, 0, 7, 89
3, 2743, Control_c, 0, 7, 89
3, 2744, Control_c, 0, 7, 89
3, 2745, Control_c, 0, 7, 89
3, 2746, Control_c, 0, 7, 89
3, 2747, Control_c, 0, 7, 89
3, 2748, Control_c, 0, 7, 89
3, 2749, Control_c, 0, 7, 89
3, 2750, Control_c, 0, 7, 89
3, 2751, Control_c, 0, 7, 89
3, 2752, Control_c, 0, 7, 89
3, 2753, Control_c, 0, 7, 89
3, 2754, Control_c, 0, 7, 89
3, 2755, Control_c, 0, 7, 89
3, 2756, Control_c, 0, 7, 89
3, 2757, Control_c, 0, 7, 89
3, 2758, Control_c, 0, 7, 89
3, 2759, Control_c, 0, 7, 89
3, 2760, Control_c, 0, 7, 89
3, 2761, Control_c, 0, 7, 89
3, 2762, Control_c, 0, 7, 89
3, 2763, Control_c, 0, 7, 89
3, 2764, Control_c, 0, 7, 89
3, 2765, Control_c, 0, 7, 89
3, 2766, Control_c, 0, 7, 89
3, 2767, Control_c, 0, 7, 89
3, 2768, Control_c, 0, 7, 89
3, 2769, Control_c, 0, 7, 89
3, 2770, Control_c, 0, 7, 89
3, 2771, Control_c, 0, 7, 89
3, 2772, Control_c, 0, 7, 89
3, 2773, Control_c, 0, 7, 89
3, 2774, Control_c, 0, 7, 89
3, 2775, Control_c, 0, 7, 89
3, 2776, Control_c, 0, 7, 89
3, 2777, Control_c, 0, 7, 89
3, 2778, Control_c, 0, 7, 89
3, 2779, Control_c, 0, 7, 89
3, 2780, Control_c, 0, 7, 89
3, 2781, Control_c, 0, 7, 89
3, 2782, Control_c, 0, 7, 89
3, 2783, Control_c, 0, 7, 89
3, 2784, Note_off_c, 0, 27, 64
3, 2784, Note_on_c, 0, 27, 100
3, 2784, Control_c, 0, 7, 89
3, 2785, Control_c, 0, 7, 89
3, 2786, Control_c, 0, 7, 89
3, 2787, Control_c, 0, 7, 89
3, 2788, Control_c, 0, 7, 89
3, 2789, Control_c, 0, 7, 89
3, 2790, Control_c, 0, 7, 89
3, 2791, Control_c, 0, 7, 89
3, 2792, Control_c, 0, 7, 89
3, 2793, Control_c, 0, 7, 89
3, 2794, Control_c, 0, 7, 89
3, 2795, Control_c, 0, 7, 89
3, 2796, Control_c, 0, 7, 89
3, 2797, Control_c, 0, 7, 89
3, 2798, Control_c, 0, 7, 89
3, 2799, Control_c, 0, 7, 89
3, 2800, Control_c, 0, 7, 89
3, 2801, Control_c, 0, 7, 89
3, 2802, Control_c, 0, 7, 89
3, 2803, Control_c, 0, 7, 89
3, 2804, Control_c, 0, 7, 89
3, 2805, Control_c, 0, 7, 89
3, 2806, Control_c, 0, 7, 89
3, 2807, Control_c, 0, 7, 89
3, 2808, Control_c, 0, 7, 89
3, 2809, Control_c, 0, 7, 89
3, 2810, Control_c, 0, 7, 89
3, 2811, Control_c, 0, 7, 90
3, 2812, Control_c, 0, 7, 90
3, 2813, Control_c, 0, 7, 90
3, 2814, Control_c, 0, 7, 90
3, 2815, Control_c, 0, 7, 90
3, 2816, Control_c, 0, 7, 90
3, 2817, Control_c, 0, 7, 90
3, 2818, Control_c, 0, 7, 90
3, 2819, Control_c, 0, 7, 90
3, 2820, Control_c, 0, 7, 90
3, 2821, Control_c, 0, 7, 90
3, 2822, Control_c, 0, 7, 90
3, 2823, Control_c, 0, 7, 90
3, 2824, Control_c, 0, 7, 90
3, 2825, Control_c, 0, 7, 90
3, 2826, Control_c, 0, 7, 90
3, 2827, Control_c, 0, 7, 90
3, 2828, Control_c, 0, 7, 90
3, 2829, Control_c, 0, 7, 90
3, 2830, Control_c, 0, 7, 90
3, 2831, Control_c, 0, 7, 90
3, 2832, Note_off_c, 0, 27, 64
3, 2832, Note_on_c, 0, 27, 100
3, 2832, Control_c, 0, 7, 90
3, 2833, Control_c, 0, 7, 90
3, 2834, Control_c, 0, 7, 90
3, 2835, Control_c, 0, 7, 90
3, 2836, Control_c, 0, 7, 90
3, 2837, Control_c, 0, 7, 90
3, 2838, Control_c, 0, 7, 90
3, 2839, Control_c, 0, 7, 90
3, 2840, Control_c, 0, 7, 90
3, 2841, Control_c, 0, 7, 90
3, 2842, Control_c, 0, 7, 90
3, 2843, Control_c, 0, 7, 90
3, 2844, Control_c, 0, 7, 90
3, 2845, Control_c, 0, 7, 90
3, 2846, Control_c, 0, 7, 90
3, 2847, Control_c, 0, 7, 90
3, 2848, Control_c, 0, 7, 90
3, 2849, Control_c, 0, 7, 90
3, 2850, Control_c, 0, 7, 90
3, 2851, Control_c, 0, 7, 90
3, 2852, Control_c, 0, 7, 90
3, 2853, Control_c, 0, 7, 90
3, 2854, Control_c, 0, 7, 90
3, 2855, Control_c, 0, 7, 90
3, 2856, Control_c, 0, 7, 90
3, 2857, Control_c, 0, 7, 90
3, 2858, Control_c, 0, 7, 90
3, 2859, Control_c, 0, 7, 90
3, 2860, Control_c, 0, 7, 90
3, 2861, Control_c, 0, 7, 90
3, 2862, Control_c, 0, 7, 90
3, 2863, Control_c, 0, 7, 90
3, 2864, Control_c, 0, 7, 90
3, 2865, Control_c, 0, 7, 90
3, 2866, Control_c, 0, 7, 90
3, 2867, Control_c, 0, 7, 90
3, 2868, Control_c, 0, 7, 90
3, 2869, Control_c, 0, 7, 90
3, 2870, Control_c, 0, 7, 90
3, 2871, Control_c, 0, 7, 90
3, 2872, Control_c, 0, 7, 90
3, 2873, Control_c, 0, 7, 90
3, 2874, Control_c, 0, 7, 90
3, 2875, Control_c, 0, 7, 90
3, 2876, Control_c, 0, 7, 90
3, 2877, Control_c, 0, 7, 90
3, 2878, Control_c, 0, 7, 90
3, 2879, Control_c, 0, 7, 90
3, 2880, Note_off_c, 0, 27, 64
3, 2880, Note_on_c, 0, 27, 100
3, 2880, Control_c, 0, 7, 90
3, 2881, Control_c, 0, 7, 90
3, 2882, Control_c, 0, 7, 90
3, 2883, Control_c, 0, 7, 90
3, 2884, Control_c, 0, 7, 90
3, 2885, Control_c, 0, 7, 90
3, 2886, Control_c, 0, 7, 90
3, 2887, Control_c, 0, 7, 90
3, 2888, Control_c, 0, 7, 90
3, 2889, Control_c, 0, 7, 90
3, 2890, Control_c, 0, 7, 90
3, 2891, Control_c, 0, 7, 90
3, 2892, Control_c, 0, 7, 90
3, 2893, Control_c, 0, 7, 90
3, 2894, Control_c, 0, 7, 90
3, 2895, Control_c, 0, 7, 90
3, 2896, Control_c, 0, 7, 91
3, 2897, Control_c, 0, 7, 91
3, 2898, Control_c, 0, 7, 91
3, 2899, Control_c, 0, 7, 91
3, 2900, Control_c, 0, 7, 91
3, 2901, Control_c, 0, 7, 91
3, 2902, Control_c, 0, 7, 91
3, 2903, Control_c, 0, 7, 91
3, 2904, Control_c, 0, 7, 91
3, 2905, Control_c, 0, 7, 91
3, 2906, Control_c, 0, 7, 91
3, 2907, Control_c, 0, 7, 91
3, 2908, Control_c, 0, 7, 91
3, 2909, Control_c, 0, 7, 91
3, 2910, Control_c, 0, 7, 91
3, 2911, Control_c, 0, 7, 91
3, 2912, Control_c, 0, 7, 91
3, 2913, Control_c, 0, 7, 91
3, 2914, Control_c, 0, 7, 91
3, 2915, Control_c, 0, 7, 91
3, 2916, Control_c, 0, 7, 91
3, 2917, Control_c, 0, 7, 91
3, 2918, Control_c, 0, 7, 91
3, 2919, Control_c, 0, 7, 91
3, 2920, Control_c, 0, 7, 91
3, 2921, Control_c, 0, 7, 91
3, 2922, Control_c, 0, 7, 91
3, 2923, Control_c, 0, 7, 91
3, 2924, Control_c, 0, 7, 91
3, 2925, Control_c, 0, 7, 91
3, 2926, Control_c, 0, 7, 91
3, 2927, Control_c, 0, 7, 91
3, 2928, Note_off_c, 0, 27, 64
3, 2928, Note_on_c, 0, 27, 100
3, 2928, Control_c, 0, 7, 91
3, 2929, Control_c, 0, 7, 91
3, 2930, Control_c, 0, 7, 91
3, 2931, Control_c, 0, 7, 91
3, 2932, Control_c, 0, 7, 91
3, 2933, Control_c, 0, 7, 91
3, 2934, Control_c, 0, 7, 91
3, 2935, Control_c, 0, 7, 91
3, 2936, Control_c, 0, 7, 91
3, 2937, Control_c, 0, 7, 91
3, 2938, Control_c, 0, 7, 91
3, 2939, Control_c, 0, 7, 91
3, 2940, Control_c, 0, 7, 91
3, 2941, Control_c, 0, 7, 91
3, 2942, Control_c, 0, 7, 91
3, 2943, Control_c, 0, 7, 91
3, 2944, Control_c, 0, 7, 91
3, 2945, Control_c, 0, 7, 91
3, 2946, Control_c, 0, 7, 91
3, 2947, Control_c, 0, 7, 91
3, 2948, Control_c, 0, 7, 91
3, 2949, Control_c, 0, 7, 91
3, 2950, Control_c, 0, 7, 91
3, 2951, Control_c, 0, 7, 91
3, 2952, Control_c, 0, 7, 91
3, 2953, Control_c, 0, 7, 91
3, 2954, Control_c, 0, 7, 91
3, 2955, Control_c, 0, 7, 91
3, 2956, Control_c, 0, 7, 91
3, 2957, Control_c, 0, 7, 91
3, 2958, Control_c, 0, 7, 91
3, 2959, Control_c, 0, 7, 91
3, 2960, Control_c, 0, 7, 91
3, 2961, Control_c, 0, 7, 91
3, 2962, Control_c, 0, 7, 91
3, 2963, Control_c, 0, 7, 91
3, 2964, Control_c, 0, 7, 91
3, 2965, Control_c, 0, 7, 91
3, 2966, Control_c, 0, 7, 91
3, 2967, Control_c, 0, 7, 91
3, 2968, Control_c, 0, 7, 91
3, 2969, Control_c, 0, 7, 91
3, 2970, Control_c, 0, 7, 91
3, 2971, Control_c, 0, 7, 91
3, 2972, Control_c, 0, 7, 91
3, 2973, Control_c, 0, 7, 91
3, 2974, Control_c, 0, 7, 91
3, 2975, Control_c, 0, 7, 91
3, 2976, Note_off_c, 0, 27, 64
3, 2976, Note_on_c, 0, 27, 100
3, 2976, Control_c, 0, 7, 91
3, 2977, Control_c, 0, 7, 91
3, 2978, Control_c, 0, 7, 91
3, 2979, Control_c, 0, 7, 91
3, 2980, Control_c, 0, 7, 91
3, 2981, Control_c, 0, 7, 91
3, 2982, Control_c, 0, 7, 91
3, 2983, Control_c, 0, 7, 91
3, 2984, Control_c, 0, 7, 91
3, 2985, Control_c, 0, 7, 91
3, 2986, Control_c, 0, 7, 91
3, 2987, Control_c, 0, 7, 91
3, 2988, Control_c, 0, 7, 91
3, 2989, Control_c, 0, 7, 91
3, 2990, Control_c, 0, 7, 91
3, 2991, Control_c, 0, 7, 91
3, 2992, Control_c, 0, 7, 91
3, 2993, Control_c, 0, 7, 91
3, 2994, Control_c, 0, 7, 91
3, 2995, Control_c, 0, 7, 91
3, 2996, Control_c, 0, 7, 91
3, 2997, Control_c, 0, 7, 91
3, 2998, Control_c, 0, 7, 92
3, 2999, Control_c, 0, 7, 92
3, 3000, Control_c, 0, 7, 92
3, 3001, Control_c, 0, 7, 92
3, 3002, Control_c, 0, 7, 92
3, 3003, Control_c, 0, 7, 92
3, 3004, Control_c, 0, 7, 92
3, 3005, Control_c, 0, 7, 92
3, 3006, Control_c, 0, 7, 92
3, 3007, Control_c, 0, 7, 92
3, 3008, Control_c, 0, 7, 92
3, 3009, Control_c, 0, 7, 92
3, 3010, Control_c, 0, 7, 92
3, 3011, Control_c, 0, 7, 92
3, 3012, Control_c, 0, 7, 92
3, 3013, Control_c, 0, 7, 92
3, 3014, Control_c, 0, 7, 92
3, 3015, Control_c, 0, 7, 92
3, 3016, Control_c, 0, 7, 92
3, 3017, Control_c, 0, 7, 92
3, 3018, Control_c, 0, 7, 92
3, 3019, Control_c, 0, 7, 92
3, 3020, Control_c, 0, 7, 92
3, 3021, Control_c, 0, 7, 92
3, 3022, Control_c, 0, 7, 92
3, 3023, Control_c, 0, 7, 92
3, 3024, Note_off_c, 0, 27, 64
3, 3024, Note_on_c, 0, 27, 100
3, 3024, Control_c, 0, 7, 92
3, 3025, Control_c, 0, 7, 92
3, 3026, Control_c, 0, 7, 92
3, 3027, Control_c, 0, 7, 92
3, 3028, Control_c, 0, 7, 92
3, 3029, Control_c, 0, 7, 92
3, 3030, Control_c, 0, 7, 92
3, 3031, Control_c, 0, 7, 92
3, 3032, Control_c, 0, 7, 92
3, 3033, Control_c, 0, 7, 92
3, 3034, Control_c, 0, 7, 92
3, 3035, Control_c, 0, 7, 92
3, 3036, Control_c, 0, 7, 92
3, 3037, Control_c, 0, 7, 92
3, 3038, Control_c, 0, 7, 92
3, 3039, Control_c, 0, 7, 92
3, 3040, Control_c, 0, 7, 92
3, 3041, Control_c, 0, 7, 92
3, 3042, Control_c, 0, 7, 92
3, 3043, Control_c, 0, 7, 92
3, 3044, Control_c, 0, 7, 92
3, 3045, Control_c, 0, 7, 92
3, 3046, Control_c, 0, 7, 92
3, 3047, Control_c, 0, 7, 92
3, 3048, Control_c, 0, 7, 92
3, 3049, Control_c, 0, 7, 92
3, 3050, Control_c, 0, 7, 92
3, 3051, Control_c, 0, 7, 92
3, 3052, Control_c, 0, 7, 92
3, 3053, Control_c, 0, 7, 92
3, 3054, Control_c, 0, 7, 92
3, 3055, Control_c, 0, 7, 92
3, 3056, Control_c, 0, 7, 92
3, 3057, Control_c, 0, 7, 92
3, 3058, Control_c, 0, 7, 92
3, 3059, Control_c, 0, 7, 92
3, 3060, Control_c, 0, 7, 92
3, 3061, Control_c, 0, 7, 92
3, 3062, Control_c, 0, 7, 92
3, 3063, Control_c, 0, 7, 92
3, 3064, Control_c, 0, 7, 92
3, 3065, Control_c, 0, 7, 92
3, 3066, Control_c, 0, 7, 92
3, 3067, Control_c, 0, 7, 92
3, 3068, Control_c, 0, 7, 92
3, 3069, Control_c, 0, 7, 92
3, 3070, Control_c, 0, 7, 92
3, 3071, Control_c, 0, 7, 92
3, 3072, Note_off_c, 0, 27, 64
3, 3072, Note_on_c, 0, 29, 100
3, 3184, Control_c, 0, 7, 92
3, 3216, Note_off_c, 0, 29, 64
3, 3216, Note_on_c, 0, 31, 100
3, 3360, Note_off_c, 0, 31, 64
3, 3360, Note_on_c, 0, 27, 100
3, 3504, Note_off_c, 0, 27, 64
3, 3504, Note_on_c, 0, 27, 100
3, 3552, Note_off_c, 0, 27, 64
3, 3552, Note_on_c, 0, 27, 100
3, 3600, Note_off_c, 0, 27, 64
3, 3600, Note_on_c, 0, 27, 100
3, 3648, Note_off_c, 0, 27, 64
3, 3648, Note_on_c, 0, 27, 100
3, 3696, Note_off_c, 0, 27, 64
3, 3696, Note_on_c, 0, 27, 100
3, 3744, Note_off_c, 0, 27, 64
3, 3744, Note_on_c, 0, 27, 100
3, 3792, Note_off_c, 0, 27, 64
3, 3792, Note_on_c, 0, 27, 100
3, 3840, Note_off_c, 0, 27, 64
3, 3840, Note_on_c, 0, 29, 100
3, 3984, Note_off_c, 0, 29, 64
3, 3984, Note_on_c, 0, 31, 100
3, 4128, Note_off_c, 0, 31, 64
3, 4128, Note_on_c, 0, 27, 100
3, 4272, Note_off_c, 0, 27, 64
3, 4272, Note_on_c, 0, 27, 100
3, 4320, Note_off_c, 0, 27, 64
3, 4320, Note_on_c, 0, 27, 100
3, 4368, Note_off_c, 0, 27, 64
3, 4368, Note_on_c, 0, 27, 100
3, 4416, Note_off_c, 0, 27, 64
3, 4416, Note_on_c, 0, 27, 100
3, 4464, Note_off_c, 0, 27, 64
3, 4464, Note_on_c, 0, 27, 100
3, 4512, Note_off_c, 0, 27, 64
3, 4512, Note_on_c, 0, 27, 100
3, 4560, Note_off_c, 0, 27, 64
3, 4560, Note_on_c, 0, 27, 100
3, 4608, Note_off_c, 0, 27, 64
3, 4608, Note_on_c, 0, 29, 100
3, 4752, Note_off_c, 0, 29, 64
3, 4752, Note_on_c, 0, 31, 100
3, 4840, Control_c, 0, 7, 92
3, 4896, Note_off_c, 0, 31, 64
3, 4896, Note_on_c, 0, 27, 100
3, 5040, Note_off_c, 0, 27, 64
3, 5040, Note_on_c, 0, 27, 100
3, 5088, Note_off_c, 0, 27, 64
3, 5088, Note_on_c, 0, 27, 100
3, 5136, Note_off_c, 0, 27, 64
3, 5136, Note_on_c, 0, 27, 100
3, 5184, Note_off_c, 0, 27, 64
3, 5184, Note_on_c, 0, 27, 100
3, 5232, Note_off_c, 0, 27, 64
3, 5232, Note_on_c, 0, 27, 100
3, 5280, Note_off_c, 0, 27, 64
3, 5280, Note_on_c, 0, 27, 100
3, 5328, Note_off_c, 0, 27, 64
3, 5328, Note_on_c, 0, 27, 100
3, 5376, Note_off_c, 0, 27, 64
3, 5376, Note_on_c, 0, 29, 100
3, 5520, Note_off_c, 0, 29, 64
3, 5520, Note_on_c, 0, 31, 100
3, 5664, Note_off_c, 0, 31, 64
3, 5664, Note_on_c, 0, 27, 100
3, 5808, Note_off_c, 0, 27, 64
3, 5808, Note_on_c, 0, 27, 100
3, 5856, Note_off_c, 0, 27, 64
3, 5856, Note_on_c, 0, 27, 100
3, 5904, Note_off_c, 0, 27, 64
3, 5904, Note_on_c, 0, 27, 100
3, 5952, Note_off_c, 0, 27, 64
3, 5952, Note_on_c, 0, 27, 100
3, 6000, Note_off_c, 0, 27, 64
3, 6000, Note_on_c, 0, 27, 100
3, 6048, Note_off_c, 0, 27, 64
3, 6048, Note_on_c, 0, 27, 100
3, 6096, Note_off_c, 0, 27, 64
3, 6096, Note_on_c, 0, 27, 100
3, 6144, Note_off_c, 0, 27, 64
3, 6144, Note_on_c, 0, 29, 100
3, 6288, Note_off_c, 0, 29, 64
3, 6288, Note_on_c, 0, 31, 100
3, 6432, Note_off_c, 0, 31, 64
3, 6432, Note_on_c, 0, 27, 100
3, 6483, Control_c, 0, 7, 92
3, 6576, Note_off_c, 0, 27, 64
3, 6576, Note_on_c, 0, 27, 100
3, 6624, Note_off_c, 0, 27, 64
3, 6624, Note_on_c, 0, 27, 100
3, 6672, Note_off_c, 0, 27, 64
3, 6672, Note_on_c, 0, 27, 100
3, 6720, Note_off_c, 0, 27, 64
3, 6720, Note_on_c, 0, 27, 100
3, 6768, Note_off_c, 0, 27, 64
3, 6768, Note_on_c, 0, 27, 100
3, 6816, Note_off_c, 0, 27, 64
3, 6816, Note_on_c, 0, 27, 100
3, 6864, Note_off_c, 0, 27, 64
3, 6864, Note_on_c, 0, 27, 100
3, 6912, Note_off_c, 0, 27, 64
3, 6912, Note_on_c, 0, 29, 100
3, 7056, Note_off_c, 0, 29, 64
3, 7056, Note_on_c, 0, 31, 100
3, 7200, Note_off_c, 0, 31, 64
3, 7200, Note_on_c, 0, 27, 100
3, 7344, Note_off_c, 0, 27, 64
3, 7344, Note_on_c, 0, 27, 100
3, 7392, Note_off_c, 0, 27, 64
3, 7392, Note_on_c, 0, 27, 100
3, 7440, Note_off_c, 0, 27, 64
3, 7440, Note_on_c, 0, 27, 100
3, 7488, Note_off_c, 0, 27, 64
3, 7488, Note_on_c, 0, 27, 100
3, 7536, Note_off_c, 0, 27, 64
3, 7536, Note_on_c, 0, 27, 100
3, 7584, Note_off_c, 0, 27, 64
3, 7584, Note_on_c, 0, 27, 100
3, 7632, Note_off_c, 0, 27, 64
3, 7632, Note_on_c, 0, 27, 100
3, 7680, Note_off_c, 0, 27, 64
3, 7680, Note_on_c, 0, 29, 100
3, 7824, Note_off_c, 0, 29, 64
3, 7824, Note_on_c, 0, 31, 100
3, 7968, Note_off_c, 0, 31, 64
3, 7968, Note_on_c, 0, 27, 100
3, 8112, Note_off_c, 0, 27, 64
3, 8112, Note_on_c, 0, 27, 100
3, 8139, Control_c, 0, 7, 92
3, 8160, Note_off_c, 0, 27, 64
3, 8160, Note_on_c, 0, 27, 100
3, 8208, Note_off_c, 0, 27, 64
3, 8208, Note_on_c, 0, 27, 100
3, 8256, Note_off_c, 0, 27, 64
3, 8256, Note_on_c, 0, 27, 100
3, 8304, Note_off_c, 0, 27, 64
3, 8304, Note_on_c, 0, 27, 100
3, 8352, Note_off_c, 0, 27, 64
3, 8352, Note_on_c, 0, 27, 100
3, 8400, Note_off_c, 0, 27, 64
3, 8400, Note_on_c, 0, 27, 100
3, 8448, Note_off_c, 0, 27, 64
3, 8448, Note_on_c, 0, 29, 100
3, 8592, Note_off_c, 0, 29, 64
3, 8592, Note_on_c, 0, 31, 100
3, 8736, Note_off_c, 0, 31, 64
3, 8736, Note_on_c, 0, 27, 100
3, 8880, Note_off_c, 0, 27, 64
3, 8880, Note_on_c, 0, 27, 100
3, 8928, Note_off_c, 0, 27, 64
3, 8928, Note_on_c, 0, 27, 100
3, 8976, Note_off_c, 0, 27, 64
3, 8976, Note_on_c, 0, 27, 100
3, 9024, Note_off_c, 0, 27, 64
3, 9024, Note_on_c, 0, 27, 100
3, 9072, Note_off_c, 0, 27, 64
3, 9072, Note_on_c, 0, 27, 100
3, 9120, Note_off_c, 0, 27, 64
3, 9120, Note_on_c, 0, 27, 100
3, 9168, Note_off_c, 0, 27, 64
3, 9168, Note_on_c, 0, 27, 100
3, 9216, Note_off_c, 0, 27, 64
3, 9216, Note_on_c, 0, 29, 127
3, 9360, Note_off_c, 0, 29, 64
3, 9360, Note_on_c, 0, 31, 127
3, 9504, Note_off_c, 0, 31, 64
3, 9504, Note_on_c, 0, 27, 127
3, 9648, Note_off_c, 0, 27, 64
3, 9648, Note_on_c, 0, 27, 127
3, 9696, Note_off_c, 0, 27, 64
3, 9696, Note_on_c, 0, 27, 127
3, 9744, Note_off_c, 0, 27, 64
3, 9744, Note_on_c, 0, 27, 127
3, 9782, Control_c, 0, 7, 92
3, 9792, Note_off_c, 0, 27, 64
3, 9792, Note_on_c, 0, 27, 127
3, 9840, Note_off_c, 0, 27, 64
3, 9840, Note_on_c, 0, 27, 127
3, 9888, Note_off_c, 0, 27, 64
3, 9888, Note_on_c, 0, 27, 127
3, 9936, Note_off_c, 0, 27, 64
3, 9936, Note_on_c, 0, 27, 127
3, 9984, Note_off_c, 0, 27, 64
3, 9984, Note_on_c, 0, 27, 127
3, 10128, Note_off_c, 0, 27, 64
3, 10128, Note_on_c, 0, 27, 127
3, 10272, Note_off_c, 0, 27, 64
3, 10272, Note_on_c, 0, 27, 127
3, 10416, Note_off_c, 0, 27, 64
3, 10416, Note_on_c, 0, 27, 127
3, 10464, Note_off_c, 0, 27, 64
3, 10464, Note_on_c, 0, 27, 127
3, 10512, Note_off_c, 0, 27, 64
3, 10512, Note_on_c, 0, 27, 127
3, 10560, Note_off_c, 0, 27, 64
3, 10560, Note_on_c, 0, 27, 127
3, 10608, Note_off_c, 0, 27, 64
3, 10608, Note_on_c, 0, 27, 127
3, 10656, Note_off_c, 0, 27, 64
3, 10656, Note_on_c, 0, 27, 127
3, 10704, Note_off_c, 0, 27, 64
3, 10704, Note_on_c, 0, 27, 127
3, 10752, Note_off_c, 0, 27, 64
3, 10752, Note_on_c, 0, 29, 127
3, 10896, Note_off_c, 0, 29, 64
3, 10896, Note_on_c, 0, 31, 127
3, 11040, Note_off_c, 0, 31, 64
3, 11040, Note_on_c, 0, 27, 127
3, 11184, Note_off_c, 0, 27, 64
3, 11184, Note_on_c, 0, 27, 127
3, 11232, Note_off_c, 0, 27, 64
3, 11232, Note_on_c, 0, 27, 127
3, 11280, Note_off_c, 0, 27, 64
3, 11280, Note_on_c, 0, 27, 127
3, 11328, Note_off_c, 0, 27, 64
3, 11328, Note_on_c, 0, 27, 127
3, 11376, Note_off_c, 0, 27, 64
3, 11376, Note_on_c, 0, 27, 127
3, 11424, Note_off_c, 0, 27, 64
3, 11424, Note_on_c, 0, 27, 127
3, 11438, Control_c, 0, 7, 92
3, 11472, Note_off_c, 0, 27, 64
3, 11472, Note_on_c, 0, 27, 127
3, 11520, Note_off_c, 0, 27, 64
3, 11520, Note_on_c, 0, 27, 127
3, 11664, Note_off_c, 0, 27, 64
3, 11664, Note_on_c, 0, 27, 127
3, 11808, Note_off_c, 0, 27, 64
3, 11808, Note_on_c, 0, 27, 127
3, 11952, Note_off_c, 0, 27, 64
3, 11952, Note_on_c, 0, 27, 127
3, 12000, Note_off_c, 0, 27, 64
3, 12000, Note_on_c, 0, 27, 127
3, 12048, Note_off_c, 0, 27, 64
3, 12048, Note_on_c, 0, 27, 127
3, 12096, Note_off_c, 0, 27, 64
3, 12096, Note_on_c, 0, 27, 127
3, 12144, Note_off_c, 0, 27, 64
3, 12144, Note_on_c, 0, 27, 127
3, 12192, Note_off_c, 0, 27, 64
3, 12192, Note_on_c, 0, 27, 127
3, 12240, Note_off_c, 0, 27, 64
3, 12240, Note_on_c, 0, 27, 127
3, 12288, Note_off_c, 0, 27, 64
3, 12288, Note_on_c, 0, 29, 127
3, 12432, Note_off_c, 0, 29, 64
3, 12432, Note_on_c, 0, 31, 127
3, 12576, Note_off_c, 0, 31, 64
3, 12576, Note_on_c, 0, 27, 127
3, 12720, Note_off_c, 0, 27, 64
3, 12720, Note_on_c, 0, 27, 127
3, 12768, Note_off_c, 0, 27, 64
3, 12768, Note_on_c, 0, 27, 127
3, 12816, Note_off_c, 0, 27, 64
3, 12816, Note_on_c, 0, 27, 127
3, 12864, Note_off_c, 0, 27, 64
3, 12864, Note_on_c, 0, 27, 127
3, 12912, Note_off_c, 0, 27, 64
3, 12912, Note_on_c, 0, 27, 127
3, 12960, Note_off_c, 0, 27, 64
3, 12960, Note_on_c, 0, 27, 127
3, 13008, Note_off_c, 0, 27, 64
3, 13008, Note_on_c, 0, 27, 127
3, 13056, Note_off_c, 0, 27, 64
3, 13056, Note_on_c, 0, 27, 127
3, 13081, Control_c, 0, 7, 92
3, 13200, Note_off_c, 0, 27, 64
3, 13200, Note_on_c, 0, 27, 127
3, 13344, Note_off_c, 0, 27, 64
3, 13344, Note_on_c, 0, 27, 127
3, 13488, Note_off_c, 0, 27, 64
3, 13488, Note_on_c, 0, 27, 127
3, 13536, Note_off_c, 0, 27, 64
3, 13536, Note_on_c, 0, 27, 127
3, 13584, Note_off_c, 0, 27, 64
3, 13584, Note_on_c, 0, 27, 127
3, 13632, Note_off_c, 0, 27, 64
3, 13632, Note_on_c, 0, 27, 127
3, 13680, Note_off_c, 0, 27, 64
3, 13680, Note_on_c, 0, 27, 127
3, 13728, Note_off_c, 0, 27, 64
3, 13728, Note_on_c, 0, 27, 127
3, 13776, Note_off_c, 0, 27, 64
3, 13776, Note_on_c, 0, 27, 127
3, 13824, Note_off_c, 0, 27, 64
3, 13824, Note_on_c, 0, 29, 127
3, 13968, Note_off_c, 0, 29, 64
3, 13968, Note_on_c, 0, 31, 127
3, 14112, Note_off_c, 0, 31, 64
3, 14112, Note_on_c, 0, 27, 127
3, 14256, Note_off_c, 0, 27, 64
3, 14256, Note_on_c, 0, 27, 127
3, 14304, Note_off_c, 0, 27, 64
3, 14304, Note_on_c, 0, 27, 127
3, 14352, Note_off_c, 0, 27, 64
3, 14352, Note_on_c, 0, 27, 127
3, 14400, Note_off_c, 0, 27, 64
3, 14400, Note_on_c, 0, 27, 127
3, 14448, Note_off_c, 0, 27, 64
3, 14448, Note_on_c, 0, 27, 127
3, 14496, Note_off_c, 0, 27, 64
3, 14496, Note_on_c, 0, 27, 127
3, 14544, Note_off_c, 0, 27, 64
3, 14544, Note_on_c, 0, 27, 127
3, 14592, Note_off_c, 0, 27, 64
3, 14737, Control_c, 0, 7, 92
3, 15360, Note_on_c, 0, 29, 127
3, 15504, Note_off_c, 0, 29, 64
3, 15504, Note_on_c, 0, 31, 127
3, 15648, Note_off_c, 0, 31, 64
3, 15648, Note_on_c, 0, 27, 127
3, 15792, Note_off_c, 0, 27, 64
3, 15792, Note_on_c, 0, 27, 127
3, 15840, Note_off_c, 0, 27, 64
3, 15840, Note_on_c, 0, 27, 127
3, 15888, Note_off_c, 0, 27, 64
3, 15888, Note_on_c, 0, 27, 127
3, 15936, Note_off_c, 0, 27, 64
3, 15936, Note_on_c, 0, 27, 127
3, 15984, Note_off_c, 0, 27, 64
3, 15984, Note_on_c, 0, 27, 127
3, 16032, Note_off_c, 0, 27, 64
3, 16032, Note_on_c, 0, 27, 127
3, 16080, Note_off_c, 0, 27, 64
3, 16080, Note_on_c, 0, 27, 127
3, 16128, Note_off_c, 0, 27, 64
3, 16128, Note_on_c, 0, 27, 127
3, 16272, Note_off_c, 0, 27, 64
3, 16272, Note_on_c, 0, 27, 127
3, 16381, Control_c, 0, 7, 92
3, 16416, Note_off_c, 0, 27, 64
3, 16416, Note_on_c, 0, 27, 127
3, 16560, Note_off_c, 0, 27, 64
3, 16560, Note_on_c, 0, 27, 127
3, 16608, Note_off_c, 0, 27, 64
3, 16608, Note_on_c, 0, 27, 127
3, 16656, Note_off_c, 0, 27, 64
3, 16656, Note_on_c, 0, 27, 127
3, 16704, Note_off_c, 0, 27, 64
3, 16704, Note_on_c, 0, 27, 127
3, 16752, Note_off_c, 0, 27, 64
3, 16752, Note_on_c, 0, 27, 127
3, 16800, Note_off_c, 0, 27, 64
3, 16800, Note_on_c, 0, 27, 127
3, 16848, Note_off_c, 0, 27, 64
3, 16848, Note_on_c, 0, 27, 127
3, 16896, Note_off_c, 0, 27, 64
3, 16896, Note_on_c, 0, 29, 127
3, 17040, Note_off_c, 0, 29, 64
3, 17040, Note_on_c, 0, 31, 127
3, 17184, Note_off_c, 0, 31, 64
3, 17184, Note_on_c, 0, 27, 127
3, 17328, Note_off_c, 0, 27, 64
3, 17328, Note_on_c, 0, 27, 127
3, 17376, Note_off_c, 0, 27, 64
3, 17376, Note_on_c, 0, 27, 127
3, 17424, Note_off_c, 0, 27, 64
3, 17424, Note_on_c, 0, 27, 127
3, 17472, Note_off_c, 0, 27, 64
3, 17472, Note_on_c, 0, 27, 127
3, 17520, Note_off_c, 0, 27, 64
3, 17520, Note_on_c, 0, 27, 127
3, 17568, Note_off_c, 0, 27, 64
3, 17568, Note_on_c, 0, 27, 127
3, 17616, Note_off_c, 0, 27, 64
3, 17616, Note_on_c, 0, 27, 127
3, 17664, Note_off_c, 0, 27, 64
3, 17664, Note_on_c, 0, 27, 127
3, 17808, Note_off_c, 0, 27, 64
3, 17808, Note_on_c, 0, 27, 127
3, 17952, Note_off_c, 0, 27, 64
3, 17952, Note_on_c, 0, 27, 127
3, 18037, Control_c, 0, 7, 92
3, 18096, Note_off_c, 0, 27, 64
3, 18096, Note_on_c, 0, 27, 127
3, 18144, Note_off_c, 0, 27, 64
3, 18144, Note_on_c, 0, 27, 127
3, 18192, Note_off_c, 0, 27, 64
3, 18192, Note_on_c, 0, 27, 127
3, 18240, Note_off_c, 0, 27, 64
3, 18240, Note_on_c, 0, 27, 127
3, 18288, Note_off_c, 0, 27, 64
3, 18288, Note_on_c, 0, 27, 127
3, 18336, Note_off_c, 0, 27, 64
3, 18336, Note_on_c, 0, 27, 127
3, 18384, Note_off_c, 0, 27, 64
3, 18384, Note_on_c, 0, 27, 127
3, 18432, Note_off_c, 0, 27, 64
3, 19680, Control_c, 0, 7, 92
3, 21336, Control_c, 0, 7, 92
3, 21504, Note_on_c, 0, 29, 100
3, 21648, Note_off_c, 0, 29, 64
3, 21648, Note_on_c, 0, 31, 100
3, 21792, Note_off_c, 0, 31, 64
3, 21792, Note_on_c, 0, 27, 100
3, 21936, Note_off_c, 0, 27, 64
3, 21936, Note_on_c, 0, 27, 100
3, 21984, Note_off_c, 0, 27, 64
3, 21984, Note_on_c, 0, 27, 100
3, 22032, Note_off_c, 0, 27, 64
3, 22032, Note_on_c, 0, 27, 100
3, 22080, Note_off_c, 0, 27, 64
3, 22080, Note_on_c, 0, 27, 100
3, 22128, Note_off_c, 0, 27, 64
3, 22128, Note_on_c, 0, 27, 100
3, 22176, Note_off_c, 0, 27, 64
3, 22176, Note_on_c, 0, 27, 100
3, 22224, Note_off_c, 0, 27, 64
3, 22224, Note_on_c, 0, 27, 100
3, 22272, Note_off_c, 0, 27, 64
3, 22272, Note_on_c, 0, 29, 100
3, 22416, Note_off_c, 0, 29, 64
3, 22416, Note_on_c, 0, 31, 100
3, 22560, Note_off_c, 0, 31, 64
3, 22560, Note_on_c, 0, 27, 100
3, 22704, Note_off_c, 0, 27, 64
3, 22704, Note_on_c, 0, 27, 100
3, 22752, Note_off_c, 0, 27, 64
3, 22752, Note_on_c, 0, 27, 100
3, 22800, Note_off_c, 0, 27, 64
3, 22800, Note_on_c, 0, 27, 100
3, 22848, Note_off_c, 0, 27, 64
3, 22848, Note_on_c, 0, 27, 100
3, 22896, Note_off_c, 0, 27, 64
3, 22896, Note_on_c, 0, 27, 100
3, 22944, Note_off_c, 0, 27, 64
3, 22944, Note_on_c, 0, 27, 100
3, 22979, Control_c, 0, 7, 92
3, 22992, Note_off_c, 0, 27, 64
3, 22992, Note_on_c, 0, 27, 100
3, 23040, Note_off_c, 0, 27, 64
3, 23040, Note_on_c, 0, 29, 100
3, 23184, Note_off_c, 0, 29, 64
3, 23184, Note_on_c, 0, 31, 100
3, 23328, Note_off_c, 0, 31, 64
3, 23328, Note_on_c, 0, 27, 100
3, 23472, Note_off_c, 0, 27, 64
3, 23472, Note_on_c, 0, 27, 100
3, 23520, Note_off_c, 0, 27, 64
3, 23520, Note_on_c, 0, 27, 100
3, 23568, Note_off_c, 0, 27, 64
3, 23568, Note_on_c, 0, 27, 100
3, 23616, Note_off_c, 0, 27, 64
3, 23616, Note_on_c, 0, 27, 100
3, 23664, Note_off_c, 0, 27, 64
3, 23664, Note_on_c, 0, 27, 100
3, 23712, Note_off_c, 0, 27, 64
3, 23712, Note_on_c, 0, 27, 100
3, 23760, Note_off_c, 0, 27, 64
3, 23760, Note_on_c, 0, 27, 100
3, 23808, Note_off_c, 0, 27, 64
3, 23808, Note_on_c, 0, 29, 100
3, 23952, Note_off_c, 0, 29, 64
3, 23952, Note_on_c, 0, 31, 100
3, 24096, Note_off_c, 0, 31, 64
3, 24096, Note_on_c, 0, 27, 100
3, 24240, Note_off_c, 0, 27, 64
3, 24240, Note_on_c, 0, 27, 100
3, 24288, Note_off_c, 0, 27, 64
3, 24288, Note_on_c, 0, 27, 100
3, 24336, Note_off_c, 0, 27, 64
3, 24336, Note_on_c, 0, 27, 100
3, 24384, Note_off_c, 0, 27, 64
3, 24384, Note_on_c, 0, 27, 100
3, 24432, Note_off_c, 0, 27, 64
3, 24432, Note_on_c, 0, 27, 100
3, 24480, Note_off_c, 0, 27, 64
3, 24480, Note_on_c, 0, 27, 100
3, 24528, Note_off_c, 0, 27, 64
3, 24528, Note_on_c, 0, 27, 100
3, 24576, Note_off_c, 0, 27, 64
3, 24576, Note_on_c, 0, 29, 127
3, 24635, Control_c, 0, 7, 92
3, 24720, Note_off_c, 0, 29, 64
3, 24720, Note_on_c, 0, 31, 127
3, 24864, Note_off_c, 0, 31, 64
3, 24864, Note_on_c, 0, 27, 127
3, 25008, Note_off_c, 0, 27, 64
3, 25008, Note_on_c, 0, 27, 127
3, 25056, Note_off_c, 0, 27, 64
3, 25056, Note_on_c, 0, 27, 127
3, 25104, Note_off_c, 0, 27, 64
3, 25104, Note_on_c, 0, 27, 127
3, 25152, Note_off_c, 0, 27, 64
3, 25152, Note_on_c, 0, 27, 127
3, 25200, Note_off_c, 0, 27, 64
3, 25200, Note_on_c, 0, 27, 127
3, 25248, Note_off_c, 0, 27, 64
3, 25248, Note_on_c, 0, 27, 127
3, 25296, Note_off_c, 0, 27, 64
3, 25296, Note_on_c, 0, 27, 127
3, 25344, Note_off_c, 0, 27, 64
3, 25344, Note_on_c, 0, 27, 127
3, 25488, Note_off_c, 0, 27, 64
3, 25488, Note_on_c, 0, 27, 127
3, 25632, Note_off_c, 0, 27, 64
3, 25632, Note_on_c, 0, 27, 127
3, 25776, Note_off_c, 0, 27, 64
3, 25776, Note_on_c, 0, 27, 127
3, 25824, Note_off_c, 0, 27, 64
3, 25824, Note_on_c, 0, 27, 127
3, 25872, Note_off_c, 0, 27, 64
3, 25872, Note_on_c, 0, 27, 127
3, 25920, Note_off_c, 0, 27, 64
3, 25920, Note_on_c, 0, 27, 127
3, 25968, Note_off_c, 0, 27, 64
3, 25968, Note_on_c, 0, 27, 127
3, 26016, Note_off_c, 0, 27, 64
3, 26016, Note_on_c, 0, 27, 127
3, 26064, Note_off_c, 0, 27, 64
3, 26064, Note_on_c, 0, 27, 127
3, 26112, Note_off_c, 0, 27, 64
3, 26112, Note_on_c, 0, 29, 127
3, 26256, Note_off_c, 0, 29, 64
3, 26256, Note_on_c, 0, 31, 127
3, 26278, Control_c, 0, 7, 92
3, 26400, Note_off_c, 0, 31, 64
3, 26400, Note_on_c, 0, 27, 127
3, 26544, Note_off_c, 0, 27, 64
3, 26544, Note_on_c, 0, 27, 127
3, 26592, Note_off_c, 0, 27, 64
3, 26592, Note_on_c, 0, 27, 127
3, 26640, Note_off_c, 0, 27, 64
3, 26640, Note_on_c, 0, 27, 127
3, 26688, Note_off_c, 0, 27, 64
3, 26688, Note_on_c, 0, 27, 127
3, 26736, Note_off_c, 0, 27, 64
3, 26736, Note_on_c, 0, 27, 127
3, 26784, Note_off_c, 0, 27, 64
3, 26784, Note_on_c, 0, 27, 127
3, 26832, Note_off_c, 0, 27, 64
3, 26832, Note_on_c, 0, 27, 127
3, 26880, Note_off_c, 0, 27, 64
3, 26880, Note_on_c, 0, 27, 127
3, 27024, Note_off_c, 0, 27, 64
3, 27024, Note_on_c, 0, 27, 127
3, 27168, Note_off_c, 0, 27, 64
3, 27168, Note_on_c, 0, 27, 127
3, 27312, Note_off_c, 0, 27, 64
3, 27312, Note_on_c, 0, 27, 127
3, 27360, Note_off_c, 0, 27, 64
3, 27360, Note_on_c, 0, 27, 127
3, 27408, Note_off_c, 0, 27, 64
3, 27408, Note_on_c, 0, 27, 127
3, 27456, Note_off_c, 0, 27, 64
3, 27456, Note_on_c, 0, 27, 127
3, 27504, Note_off_c, 0, 27, 64
3, 27504, Note_on_c, 0, 27, 127
3, 27552, Note_off_c, 0, 27, 64
3, 27552, Note_on_c, 0, 27, 127
3, 27600, Note_off_c, 0, 27, 64
3, 27600, Note_on_c, 0, 27, 127
3, 27648, Note_off_c, 0, 27, 64
3, 27648, Note_on_c, 0, 29, 127
3, 27792, Note_off_c, 0, 29, 64
3, 27792, Note_on_c, 0, 31, 127
3, 27934, Control_c, 0, 7, 92
3, 27936, Note_off_c, 0, 31, 64
3, 27936, Note_on_c, 0, 27, 127
3, 28080, Note_off_c, 0, 27, 64
3, 28080, Note_on_c, 0, 27, 127
3, 28128, Note_off_c, 0, 27, 64
3, 28128, Note_on_c, 0, 27, 127
3, 28176, Note_off_c, 0, 27, 64
3, 28176, Note_on_c, 0, 27, 127
3, 28224, Note_off_c, 0, 27, 64
3, 28224, Note_on_c, 0, 27, 127
3, 28272, Note_off_c, 0, 27, 64
3, 28272, Note_on_c, 0, 27, 127
3, 28320, Note_off_c, 0, 27, 64
3, 28320, Note_on_c, 0, 27, 127
3, 28368, Note_off_c, 0, 27, 64
3, 28368, Note_on_c, 0, 27, 127
3, 28416, Note_off_c, 0, 27, 64
3, 28416, Note_on_c, 0, 27, 127
3, 28560, Note_off_c, 0, 27, 64
3, 28560, Note_on_c, 0, 27, 127
3, 28704, Note_off_c, 0, 27, 64
3, 28704, Note_on_c, 0, 27, 127
3, 28848, Note_off_c, 0, 27, 64
3, 28848, Note_on_c, 0, 27, 127
3, 28896, Note_off_c, 0, 27, 64
3, 28896, Note_on_c, 0, 27, 127
3, 28944, Note_off_c, 0, 27, 64
3, 28944, Note_on_c, 0, 27, 127
3, 28992, Note_off_c, 0, 27, 64
3, 28992, Note_on_c, 0, 27, 127
3, 29040, Note_off_c, 0, 27, 64
3, 29040, Note_on_c, 0, 27, 127
3, 29088, Note_off_c, 0, 27, 64
3, 29088, Note_on_c, 0, 27, 127
3, 29136, Note_off_c, 0, 27, 64
3, 29136, Note_on_c, 0, 27, 127
3, 29184, Note_off_c, 0, 27, 64
3, 29184, Note_on_c, 0, 29, 127
3, 29328, Note_off_c, 0, 29, 64
3, 29328, Note_on_c, 0, 31, 127
3, 29472, Note_off_c, 0, 31, 64
3, 29472, Note_on_c, 0, 27, 127
3, 29577, Control_c, 0, 7, 92
3, 29616, Note_off_c, 0, 27, 64
3, 29616, Note_on_c, 0, 27, 127
3, 29664, Note_off_c, 0, 27, 64
3, 29664, Note_on_c, 0, 27, 127
3, 29712, Note_off_c, 0, 27, 64
3, 29712, Note_on_c, 0, 27, 127
3, 29760, Note_off_c, 0, 27, 64
3, 29760, Note_on_c, 0, 27, 127
3, 29808, Note_off_c, 0, 27, 64
3, 29808, Note_on_c, 0, 27, 127
3, 29856, Note_off_c, 0, 27, 64
3, 29856, Note_on_c, 0, 27, 127
3, 29904, Note_off_c, 0, 27, 64
3, 29904, Note_on_c, 0, 27, 127
3, 29952, Note_off_c, 0, 27, 64
3, 30720, Note_on_c, 0, 29, 127
3, 30864, Note_off_c, 0, 29, 64
3, 30864, Note_on_c, 0, 31, 127
3, 31008, Note_off_c, 0, 31, 64
3, 31008, Note_on_c, 0, 27, 127
3, 31152, Note_off_c, 0, 27, 64
3, 31152, Note_on_c, 0, 27, 127
3, 31200, Note_off_c, 0, 27, 64
3, 31200, Note_on_c, 0, 27, 127
3, 31233, Control_c, 0, 7, 92
3, 31248, Note_off_c, 0, 27, 64
3, 31248, Note_on_c, 0, 27, 127
3, 31296, Note_off_c, 0, 27, 64
3, 31296, Note_on_c, 0, 27, 127
3, 31344, Note_off_c, 0, 27, 64
3, 31344, Note_on_c, 0, 27, 127
3, 31392, Note_off_c, 0, 27, 64
3, 31392, Note_on_c, 0, 27, 127
3, 31440, Note_off_c, 0, 27, 64
3, 31440, Note_on_c, 0, 27, 127
3, 31488, Note_off_c, 0, 27, 64
3, 31488, Note_on_c, 0, 27, 127
3, 31632, Note_off_c, 0, 27, 64
3, 31632, Note_on_c, 0, 27, 127
3, 31776, Note_off_c, 0, 27, 64
3, 31776, Note_on_c, 0, 27, 127
3, 31920, Note_off_c, 0, 27, 64
3, 31920, Note_on_c, 0, 27, 127
3, 31968, Note_off_c, 0, 27, 64
3, 31968, Note_on_c, 0, 27, 127
3, 32016, Note_off_c, 0, 27, 64
3, 32016, Note_on_c, 0, 27, 127
3, 32064, Note_off_c, 0, 27, 64
3, 32064, Note_on_c, 0, 27, 127
3, 32112, Note_off_c, 0, 27, 64
3, 32112, Note_on_c, 0, 27, 127
3, 32160, Note_off_c, 0, 27, 64
3, 32160, Note_on_c, 0, 27, 127
3, 32208, Note_off_c, 0, 27, 64
3, 32208, Note_on_c, 0, 27, 127
3, 32256, Note_off_c, 0, 27, 64
3, 32256, Note_on_c, 0, 29, 127
3, 32400, Note_off_c, 0, 29, 64
3, 32400, Note_on_c, 0, 31, 127
3, 32544, Note_off_c, 0, 31, 64
3, 32544, Note_on_c, 0, 27, 127
3, 32688, Note_off_c, 0, 27, 64
3, 32688, Note_on_c, 0, 27, 127
3, 32736, Note_off_c, 0, 27, 64
3, 32736, Note_on_c, 0, 27, 127
3, 32784, Note_off_c, 0, 27, 64
3, 32784, Note_on_c, 0, 27, 127
3, 32832, Note_off_c, 0, 27, 64
3, 32832, Note_on_c, 0, 27, 127
3, 32876, Control_c, 0, 7, 92
3, 32880, Note_off_c, 0, 27, 64
3, 32880, Note_on_c, 0, 27, 127
3, 32928, Note_off_c, 0, 27, 64
3, 32928, Note_on_c, 0, 27, 127
3, 32976, Note_off_c, 0, 27, 64
3, 32976, Note_on_c, 0, 27, 127
3, 33024, Note_off_c, 0, 27, 64
3, 33024, Note_on_c, 0, 27, 127
3, 33168, Note_off_c, 0, 27, 64
3, 33168, Note_on_c, 0, 27, 127
3, 33312, Note_off_c, 0, 27, 64
3, 33312, Note_on_c, 0, 27, 127
3, 33456, Note_off_c, 0, 27, 64
3, 33456, Note_on_c, 0, 27, 127
3, 33504, Note_off_c, 0, 27, 64
3, 33504, Note_on_c, 0, 27, 127
3, 33552, Note_off_c, 0, 27, 64
3, 33552, Note_on_c, 0, 27, 127
3, 33600, Note_off_c, 0, 27, 64
3, 33600, Note_on_c, 0, 27, 127
3, 33648, Note_off_c, 0, 27, 64
3, 33648, Note_on_c, 0, 27, 127
3, 33696, Note_off_c, 0, 27, 64
3, 33696, Note_on_c, 0, 27, 127
3, 33744, Note_off_c, 0, 27, 64
3, 33744, Note_on_c, 0, 27, 127
3, 33792, Note_off_c, 0, 27, 64
3, 33792, Note_on_c, 0, 29, 127
3, 33936, Note_off_c, 0, 29, 64
3, 33936, Note_on_c, 0, 31, 127
3, 34080, Note_off_c, 0, 31, 64
3, 34080, Note_on_c, 0, 27, 127
3, 34224, Note_off_c, 0, 27, 64
3, 34224, Note_on_c, 0, 27, 127
3, 34272, Note_off_c, 0, 27, 64
3, 34272, Note_on_c, 0, 27, 127
3, 34320, Note_off_c, 0, 27, 64
3, 34320, Note_on_c, 0, 27, 127
3, 34368, Note_off_c, 0, 27, 64
3, 34368, Note_on_c, 0, 27, 127
3, 34416, Note_off_c, 0, 27, 64
3, 34416, Note_on_c, 0, 27, 127
3, 34464, Note_off_c, 0, 27, 64
3, 34464, Note_on_c, 0, 27, 127
3, 34512, Note_off_c, 0, 27, 64
3, 34512, Note_on_c, 0, 27, 127
3, 34532, Control_c, 0, 7, 92
3, 34560, Note_off_c, 0, 27, 64
3, 34560, Note_on_c, 0, 27, 127
3, 34704, Note_off_c, 0, 27, 64
3, 34704, Note_on_c, 0, 27, 127
3, 34848, Note_off_c, 0, 27, 64
3, 34848, Note_on_c, 0, 27, 127
3, 34992, Note_off_c, 0, 27, 64
3, 34992, Note_on_c, 0, 27, 127
3, 35040, Note_off_c, 0, 27, 64
3, 35040, Note_on_c, 0, 27, 127
3, 35088, Note_off_c, 0, 27, 64
3, 35088, Note_on_c, 0, 27, 127
3, 35136, Note_off_c, 0, 27, 64
3, 35136, Note_on_c, 0, 27, 127
3, 35184, Note_off_c, 0, 27, 64
3, 35184, Note_on_c, 0, 27, 127
3, 35232, Note_off_c, 0, 27, 64
3, 35232, Note_on_c, 0, 27, 127
3, 35280, Note_off_c, 0, 27, 64
3, 35280, Note_on_c, 0, 27, 127
3, 35328, Note_off_c, 0, 27, 64
3, 35328, Note_on_c, 0, 29, 127
3, 35472, Note_off_c, 0, 29, 64
3, 35472, Note_on_c, 0, 31, 127
3, 35616, Note_off_c, 0, 31, 64
3, 35616, Note_on_c, 0, 27, 127
3, 35760, Note_off_c, 0, 27, 64
3, 35760, Note_on_c, 0, 27, 127
3, 35808, Note_off_c, 0, 27, 64
3, 35808, Note_on_c, 0, 27, 127
3, 35856, Note_off_c, 0, 27, 64
3, 35856, Note_on_c, 0, 27, 127
3, 35904, Note_off_c, 0, 27, 64
3, 35904, Note_on_c, 0, 27, 127
3, 35952, Note_off_c, 0, 27, 64
3, 35952, Note_on_c, 0, 27, 127
3, 36000, Note_off_c, 0, 27, 64
3, 36000, Note_on_c, 0, 27, 127
3, 36048, Note_off_c, 0, 27, 64
3, 36048, Note_on_c, 0, 27, 127
3, 36096, Note_off_c, 0, 27, 64
3, 36096, Note_on_c, 0, 27, 127
3, 36175, Control_c, 0, 7, 92
3, 36240, Note_off_c, 0, 27, 64
3, 36240, Note_on_c, 0, 27, 127
3, 36384, Note_off_c, 0, 27, 64
3, 36384, Note_on_c, 0, 27, 127
3, 36528, Note_off_c, 0, 27, 64
3, 36528, Note_on_c, 0, 27, 127
3, 36576, Note_off_c, 0, 27, 64
3, 36576, Note_on_c, 0, 27, 127
3, 36624, Note_off_c, 0, 27, 64
3, 36624, Note_on_c, 0, 27, 127
3, 36672, Note_off_c, 0, 27, 64
3, 36672, Note_on_c, 0, 27, 127
3, 36720, Note_off_c, 0, 27, 64
3, 36720, Note_on_c, 0, 27, 127
3, 36768, Note_off_c, 0, 27, 64
3, 36768, Note_on_c, 0, 27, 127
3, 36816, Note_off_c, 0, 27, 64
3, 36816, Note_on_c, 0, 27, 127
3, 36864, Note_off_c, 0, 27, 64
3, 36864, Note_on_c, 0, 29, 100
3, 37008, Note_off_c, 0, 29, 64
3, 37008, Note_on_c, 0, 31, 100
3, 37152, Note_off_c, 0, 31, 64
3, 37152, Note_on_c, 0, 27, 100
3, 37296, Note_off_c, 0, 27, 64
3, 37296, Note_on_c, 0, 27, 100
3, 37344, Note_off_c, 0, 27, 64
3, 37344, Note_on_c, 0, 27, 100
3, 37392, Note_off_c, 0, 27, 64
3, 37392, Note_on_c, 0, 27, 100
3, 37440, Note_off_c, 0, 27, 64
3, 37440, Note_on_c, 0, 27, 100
3, 37488, Note_off_c, 0, 27, 64
3, 37488, Note_on_c, 0, 27, 100
3, 37536, Note_off_c, 0, 27, 64
3, 37536, Note_on_c, 0, 27, 100
3, 37584, Note_off_c, 0, 27, 64
3, 37584, Note_on_c, 0, 27, 100
3, 37632, Note_off_c, 0, 27, 64
3, 37632, Note_on_c, 0, 29, 100
3, 37776, Note_off_c, 0, 29, 64
3, 37776, Note_on_c, 0, 31, 100
3, 37831, Control_c, 0, 7, 92
3, 37920, Note_off_c, 0, 31, 64
3, 37920, Note_on_c, 0, 27, 100
3, 38064, Note_off_c, 0, 27, 64
3, 38064, Note_on_c, 0, 27, 100
3, 38112, Note_off_c, 0, 27, 64
3, 38112, Note_on_c, 0, 27, 100
3, 38160, Note_off_c, 0, 27, 64
3, 38160, Note_on_c, 0, 27, 100
3, 38208, Note_off_c, 0, 27, 64
3, 38208, Note_on_c, 0, 27, 100
3, 38256, Note_off_c, 0, 27, 64
3, 38256, Note_on_c, 0, 27, 100
3, 38304, Note_off_c, 0, 27, 64
3, 38304, Note_on_c, 0, 27, 100
3, 38352, Note_off_c, 0, 27, 64
3, 38352, Note_on_c, 0, 27, 100
3, 38400, Note_off_c, 0, 27, 64
3, 38400, Note_on_c, 0, 29, 100
3, 38544, Note_off_c, 0, 29, 64
3, 38544, Note_on_c, 0, 31, 100
3, 38688, Note_off_c, 0, 31, 64
3, 38688, Note_on_c, 0, 27, 100
3, 38832, Note_off_c, 0, 27, 64
3, 38832, Note_on_c, 0, 27, 100
3, 38880, Note_off_c, 0, 27, 64
3, 38880, Note_on_c, 0, 27, 100
3, 38928, Note_off_c, 0, 27, 64
3, 38928, Note_on_c, 0, 27, 100
3, 38976, Note_off_c, 0, 27, 64
3, 38976, Note_on_c, 0, 27, 100
3, 39024, Note_off_c, 0, 27, 64
3, 39024, Note_on_c, 0, 27, 100
3, 39072, Note_off_c, 0, 27, 64
3, 39072, Note_on_c, 0, 27, 100
3, 39120, Note_off_c, 0, 27, 64
3, 39120, Note_on_c, 0, 27, 100
3, 39168, Note_off_c, 0, 27, 64
3, 39168, Note_on_c, 0, 29, 100
3, 39312, Note_off_c, 0, 29, 64
3, 39312, Note_on_c, 0, 31, 100
3, 39456, Note_off_c, 0, 31, 64
3, 39456, Note_on_c, 0, 27, 100
3, 39474, Control_c, 0, 7, 92
3, 39600, Note_off_c, 0, 27, 64
3, 39600, Note_on_c, 0, 27, 100
3, 39648, Note_off_c, 0, 27, 64
3, 39648, Note_on_c, 0, 27, 100
3, 39696, Note_off_c, 0, 27, 64
3, 39696, Note_on_c, 0, 27, 100
3, 39744, Note_off_c, 0, 27, 64
3, 39744, Note_on_c, 0, 27, 100
3, 39792, Note_off_c, 0, 27, 64
3, 39792, Note_on_c, 0, 27, 100
3, 39840, Note_off_c, 0, 27, 64
3, 39840, Note_on_c, 0, 27, 100
3, 39888, Note_off_c, 0, 27, 64
3, 39888, Note_on_c, 0, 27, 100
3, 39936, Note_off_c, 0, 27, 64
3, 39936, Note_on_c, 0, 29, 100
3, 40080, Note_off_c, 0, 29, 64
3, 40080, Note_on_c, 0, 31, 100
3, 40224, Note_off_c, 0, 31, 64
3, 40224, Note_on_c, 0, 27, 100
3, 40368, Note_off_c, 0, 27, 64
3, 40368, Note_on_c, 0, 27, 100
3, 40416, Note_off_c, 0, 27, 64
3, 40416, Note_on_c, 0, 27, 100
3, 40464, Note_off_c, 0, 27, 64
3, 40464, Note_on_c, 0, 27, 100
3, 40512, Note_off_c, 0, 27, 64
3, 40512, Note_on_c, 0, 27, 100
3, 40560, Note_off_c, 0, 27, 64
3, 40560, Note_on_c, 0, 27, 100
3, 40608, Note_off_c, 0, 27, 64
3, 40608, Note_on_c, 0, 27, 100
3, 40656, Note_off_c, 0, 27, 64
3, 40656, Note_on_c, 0, 27, 100
3, 40704, Note_off_c, 0, 27, 64
3, 40704, Note_on_c, 0, 29, 100
3, 40848, Note_off_c, 0, 29, 64
3, 40848, Note_on_c, 0, 31, 100
3, 40992, Note_off_c, 0, 31, 64
3, 40992, Note_on_c, 0, 27, 100
3, 41130, Control_c, 0, 7, 92
3, 41136, Note_off_c, 0, 27, 64
3, 41136, Note_on_c, 0, 27, 100
3, 41184, Note_off_c, 0, 27, 64
3, 41184, Note_on_c, 0, 27, 100
3, 41232, Note_off_c, 0, 27, 64
3, 41232, Note_on_c, 0, 27, 100
3, 41280, Note_off_c, 0, 27, 64
3, 41280, Note_on_c, 0, 27, 100
3, 41328, Note_off_c, 0, 27, 64
3, 41328, Note_on_c, 0, 27, 100
3, 41376, Note_off_c, 0, 27, 64
3, 41376, Note_on_c, 0, 27, 100
3, 41424, Note_off_c, 0, 27, 64
3, 41424, Note_on_c, 0, 27, 100
3, 41472, Note_off_c, 0, 27, 64
3, 41472, Note_on_c, 0, 29, 100
3, 41616, Note_off_c, 0, 29, 64
3, 41616, Note_on_c, 0, 31, 100
3, 41760, Note_off_c, 0, 31, 64
3, 41760, Note_on_c, 0, 27, 100
3, 41904, Note_off_c, 0, 27, 64
3, 41904, Note_on_c, 0, 27, 100
3, 41952, Note_off_c, 0, 27, 64
3, 41952, Note_on_c, 0, 27, 100
3, 42000, Note_off_c, 0, 27, 64
3, 42000, Note_on_c, 0, 27, 100
3, 42048, Note_off_c, 0, 27, 64
3, 42048, Note_on_c, 0, 27, 100
3, 42096, Note_off_c, 0, 27, 64
3, 42096, Note_on_c, 0, 27, 100
3, 42144, Note_off_c, 0, 27, 64
3, 42144, Note_on_c, 0, 27, 100
3, 42192, Note_off_c, 0, 27, 64
3, 42192, Note_on_c, 0, 27, 100
3, 42240, Note_off_c, 0, 27, 64
3, 42773, Control_c, 0, 7, 92
3, 43392, Note_on_c, 0, 29, 127
3, 43536, Note_off_c, 0, 29, 64
3, 43536, Note_on_c, 0, 31, 127
3, 43680, Note_off_c, 0, 31, 64
3, 43680, Note_on_c, 0, 27, 127
3, 43824, Note_off_c, 0, 27, 64
3, 43824, Note_on_c, 0, 27, 127
3, 43872, Note_off_c, 0, 27, 64
3, 43872, Note_on_c, 0, 27, 127
3, 43920, Note_off_c, 0, 27, 64
3, 43920, Note_on_c, 0, 27, 127
3, 43968, Note_off_c, 0, 27, 64
3, 43968, Note_on_c, 0, 27, 127
3, 44016, Note_off_c, 0, 27, 64
3, 44016, Note_on_c, 0, 27, 127
3, 44064, Note_off_c, 0, 27, 64
3, 44064, Note_on_c, 0, 27, 127
3, 44112, Note_off_c, 0, 27, 64
3, 44112, Note_on_c, 0, 27, 127
3, 44160, Note_off_c, 0, 27, 64
3, 44160, Note_on_c, 0, 27, 127
3, 44304, Note_off_c, 0, 27, 64
3, 44304, Note_on_c, 0, 27, 127
3, 44429, Control_c, 0, 7, 92
3, 44448, Note_off_c, 0, 27, 64
3, 44448, Note_on_c, 0, 27, 127
3, 44592, Note_off_c, 0, 27, 64
3, 44592, Note_on_c, 0, 27, 127
3, 44640, Note_off_c, 0, 27, 64
3, 44640, Note_on_c, 0, 27, 127
3, 44688, Note_off_c, 0, 27, 64
3, 44688, Note_on_c, 0, 27, 127
3, 44736, Note_off_c, 0, 27, 64
3, 44736, Note_on_c, 0, 27, 127
3, 44784, Note_off_c, 0, 27, 64
3, 44784, Note_on_c, 0, 27, 127
3, 44832, Note_off_c, 0, 27, 64
3, 44832, Note_on_c, 0, 27, 127
3, 44880, Note_off_c, 0, 27, 64
3, 44880, Note_on_c, 0, 27, 127
3, 44928, Note_off_c, 0, 27, 64
3, 44928, Note_on_c, 0, 29, 127
3, 45072, Note_off_c, 0, 29, 64
3, 45072, Note_on_c, 0, 31, 127
3, 45216, Note_off_c, 0, 31, 64
3, 45216, Note_on_c, 0, 27, 127
3, 45360, Note_off_c, 0, 27, 64
3, 45360, Note_on_c, 0, 27, 127
3, 45408, Note_off_c, 0, 27, 64
3, 45408, Note_on_c, 0, 27, 127
3, 45456, Note_off_c, 0, 27, 64
3, 45456, Note_on_c, 0, 27, 127
3, 45504, Note_off_c, 0, 27, 64
3, 45504, Note_on_c, 0, 27, 127
3, 45552, Note_off_c, 0, 27, 64
3, 45552, Note_on_c, 0, 27, 127
3, 45600, Note_off_c, 0, 27, 64
3, 45600, Note_on_c, 0, 27, 127
3, 45648, Note_off_c, 0, 27, 64
3, 45648, Note_on_c, 0, 27, 127
3, 45696, Note_off_c, 0, 27, 64
3, 45696, Note_on_c, 0, 27, 127
3, 45840, Note_off_c, 0, 27, 64
3, 45840, Note_on_c, 0, 27, 127
3, 45984, Note_off_c, 0, 27, 64
3, 45984, Note_on_c, 0, 27, 127
3, 46072, Control_c, 0, 7, 92
3, 46128, Note_off_c, 0, 27, 64
3, 46128, Note_on_c, 0, 27, 127
3, 46176, Note_off_c, 0, 27, 64
3, 46176, Note_on_c, 0, 27, 127
3, 46224, Note_off_c, 0, 27, 64
3, 46224, Note_on_c, 0, 27, 127
3, 46272, Note_off_c, 0, 27, 64
3, 46272, Note_on_c, 0, 27, 127
3, 46320, Note_off_c, 0, 27, 64
3, 46320, Note_on_c, 0, 27, 127
3, 46368, Note_off_c, 0, 27, 64
3, 46368, Note_on_c, 0, 27, 127
3, 46416, Note_off_c, 0, 27, 64
3, 46416, Note_on_c, 0, 27, 127
3, 46464, Note_off_c, 0, 27, 64
3, 46464, Note_on_c, 0, 29, 127
3, 46608, Note_off_c, 0, 29, 64
3, 46608, Note_on_c, 0, 31, 127
3, 46752, Note_off_c, 0, 31, 64
3, 46752, Note_on_c, 0, 27, 127
3, 46896, Note_off_c, 0, 27, 64
3, 46896, Note_on_c, 0, 27, 127
3, 46944, Note_off_c, 0, 27, 64
3, 46944, Note_on_c, 0, 27, 127
3, 46992, Note_off_c, 0, 27, 64
3, 46992, Note_on_c, 0, 27, 127
3, 47040, Note_off_c, 0, 27, 64
3, 47040, Note_on_c, 0, 27, 127
3, 47088, Note_off_c, 0, 27, 64
3, 47088, Note_on_c, 0, 27, 127
3, 47136, Note_off_c, 0, 27, 64
3, 47136, Note_on_c, 0, 27, 127
3, 47184, Note_off_c, 0, 27, 64
3, 47184, Note_on_c, 0, 27, 127
3, 47232, Note_off_c, 0, 27, 64
3, 47232, Note_on_c, 0, 27, 127
3, 47376, Note_off_c, 0, 27, 64
3, 47376, Note_on_c, 0, 27, 127
3, 47520, Note_off_c, 0, 27, 64
3, 47520, Note_on_c, 0, 27, 127
3, 47664, Note_off_c, 0, 27, 64
3, 47664, Note_on_c, 0, 27, 127
3, 47712, Note_off_c, 0, 27, 64
3, 47712, Note_on_c, 0, 27, 127
3, 47728, Control_c, 0, 7, 92
3, 47760, Note_off_c, 0, 27, 64
3, 47760, Note_on_c, 0, 27, 127
3, 47808, Note_off_c, 0, 27, 64
3, 47808, Note_on_c, 0, 27, 127
3, 47856, Note_off_c, 0, 27, 64
3, 47856, Note_on_c, 0, 27, 127
3, 47904, Note_off_c, 0, 27, 64
3, 47904, Note_on_c, 0, 27, 127
3, 47952, Note_off_c, 0, 27, 64
3, 47952, Note_on_c, 0, 27, 127
3, 48000, Note_off_c, 0, 27, 64
3, 48000, Note_on_c, 0, 29, 127
3, 48144, Note_off_c, 0, 29, 64
3, 48144, Note_on_c, 0, 31, 127
3, 48288, Note_off_c, 0, 31, 64
3, 48288, Note_on_c, 0, 27, 127
3, 48432, Note_off_c, 0, 27, 64
3, 48432, Note_on_c, 0, 27, 127
3, 48480, Note_off_c, 0, 27, 64
3, 48480, Note_on_c, 0, 27, 127
3, 48528, Note_off_c, 0, 27, 64
3, 48528, Note_on_c, 0, 27, 127
3, 48576, Note_off_c, 0, 27, 64
3, 48576, Note_on_c, 0, 27, 127
3, 48624, Note_off_c, 0, 27, 64
3, 48624, Note_on_c, 0, 27, 127
3, 48672, Note_off_c, 0, 27, 64
3, 48672, Note_on_c, 0, 27, 127
3, 48720, Note_off_c, 0, 27, 64
3, 48720, Note_on_c, 0, 27, 127
3, 48768, Note_off_c, 0, 27, 64
3, 48768, Note_on_c, 0, 29, 127
3, 48912, Note_off_c, 0, 29, 64
3, 48912, Note_on_c, 0, 29, 127
3, 49056, Note_off_c, 0, 29, 64
3, 49056, Note_on_c, 0, 31, 127
3, 49200, Note_off_c, 0, 31, 64
3, 49200, Note_on_c, 0, 31, 127
3, 49248, Note_off_c, 0, 31, 64
3, 49248, Note_on_c, 0, 31, 127
3, 49296, Note_off_c, 0, 31, 64
3, 49296, Note_on_c, 0, 31, 127
3, 49344, Note_off_c, 0, 31, 64
3, 49344, Note_on_c, 0, 31, 127
3, 49371, Control_c, 0, 7, 92
3, 49392, Note_off_c, 0, 31, 64
3, 49392, Note_on_c, 0, 31, 127
3, 49440, Note_off_c, 0, 31, 64
3, 49440, Note_on_c, 0, 31, 127
3, 49488, Note_off_c, 0, 31, 64
3, 49488, Note_on_c, 0, 31, 127
3, 49536, Note_off_c, 0, 31, 64
3, 49536, Note_on_c, 0, 29, 127
3, 49680, Note_off_c, 0, 29, 64
3, 49680, Note_on_c, 0, 31, 127
3, 49824, Note_off_c, 0, 31, 64
3, 49824, Note_on_c, 0, 27, 127
3, 49968, Note_off_c, 0, 27, 64
3, 49968, Note_on_c, 0, 27, 127
3, 50016, Note_off_c, 0, 27, 64
3, 50016, Note_on_c, 0, 27, 127
3, 50064, Note_off_c, 0, 27, 64
3, 50064, Note_on_c, 0, 27, 127
3, 50112, Note_off_c, 0, 27, 64
3, 50112, Note_on_c, 0, 27, 127
3, 50160, Note_off_c, 0, 27, 64
3, 50160, Note_on_c, 0, 27, 127
3, 50208, Note_off_c, 0, 27, 64
3, 50208, Note_on_c, 0, 27, 127
3, 50256, Note_off_c, 0, 27, 64
3, 50256, Note_on_c, 0, 27, 127
3, 50304, Note_off_c, 0, 27, 64
3, 50304, Note_on_c, 0, 27, 127
3, 50448, Note_off_c, 0, 27, 64
3, 50448, Note_on_c, 0, 27, 127
3, 50592, Note_off_c, 0, 27, 64
3, 50592, Note_on_c, 0, 27, 127
3, 50736, Note_off_c, 0, 27, 64
3, 50736, Note_on_c, 0, 27, 127
3, 50784, Note_off_c, 0, 27, 64
3, 50784, Note_on_c, 0, 27, 127
3, 50832, Note_off_c, 0, 27, 64
3, 50832, Note_on_c, 0, 27, 127
3, 50880, Note_off_c, 0, 27, 64
3, 50880, Note_on_c, 0, 27, 127
3, 50928, Note_off_c, 0, 27, 64
3, 50928, Note_on_c, 0, 27, 127
3, 50976, Note_off_c, 0, 27, 64
3, 50976, Note_on_c, 0, 27, 127
3, 51024, Note_off_c, 0, 27, 64
3, 51024, Note_on_c, 0, 27, 127
3, 51027, Control_c, 0, 7, 92
3, 51072, Note_off_c, 0, 27, 64
3, 51072, Note_on_c, 0, 29, 127
3, 51216, Note_off_c, 0, 29, 64
3, 51216, Note_on_c, 0, 31, 127
3, 51360, Note_off_c, 0, 31, 64
3, 51360, Note_on_c, 0, 27, 127
3, 51504, Note_off_c, 0, 27, 64
3, 51504, Note_on_c, 0, 27, 127
3, 51552, Note_off_c, 0, 27, 64
3, 51552, Note_on_c, 0, 27, 127
3, 51600, Note_off_c, 0, 27, 64
3, 51600, Note_on_c, 0, 27, 127
3, 51648, Note_off_c, 0, 27, 64
3, 51648, Note_on_c, 0, 27, 127
3, 51696, Note_off_c, 0, 27, 64
3, 51696, Note_on_c, 0, 27, 127
3, 51744, Note_off_c, 0, 27, 64
3, 51744, Note_on_c, 0, 27, 127
3, 51792, Note_off_c, 0, 27, 64
3, 51792, Note_on_c, 0, 27, 127
3, 51840, Note_off_c, 0, 27, 64
3, 51840, Note_on_c, 0, 27, 127
3, 51984, Note_off_c, 0, 27, 64
3, 51984, Note_on_c, 0, 27, 127
3, 52128, Note_off_c, 0, 27, 64
3, 52128, Note_on_c, 0, 27, 127
3, 52272, Note_off_c, 0, 27, 64
3, 52272, Note_on_c, 0, 27, 127
3, 52320, Note_off_c, 0, 27, 64
3, 52320, Note_on_c, 0, 27, 127
3, 52368, Note_off_c, 0, 27, 64
3, 52368, Note_on_c, 0, 27, 127
3, 52416, Note_off_c, 0, 27, 64
3, 52416, Note_on_c, 0, 27, 127
3, 52464, Note_off_c, 0, 27, 64
3, 52464, Note_on_c, 0, 27, 127
3, 52512, Note_off_c, 0, 27, 64
3, 52512, Note_on_c, 0, 27, 127
3, 52560, Note_off_c, 0, 27, 64
3, 52560, Note_on_c, 0, 27, 127
3, 52608, Note_off_c, 0, 27, 64
3, 52608, Note_on_c, 0, 29, 127
3, 52670, Control_c, 0, 7, 92
3, 52752, Note_off_c, 0, 29, 64
3, 52752, Note_on_c, 0, 31, 127
3, 52896, Note_off_c, 0, 31, 64
3, 52896, Note_on_c, 0, 27, 127
3, 53040, Note_off_c, 0, 27, 64
3, 53040, Note_on_c, 0, 27, 127
3, 53088, Note_off_c, 0, 27, 64
3, 53088, Note_on_c, 0, 27, 127
3, 53136, Note_off_c, 0, 27, 64
3, 53136, Note_on_c, 0, 27, 127
3, 53184, Note_off_c, 0, 27, 64
3, 53184, Note_on_c, 0, 27, 127
3, 53232, Note_off_c, 0, 27, 64
3, 53232, Note_on_c, 0, 27, 127
3, 53280, Note_off_c, 0, 27, 64
3, 53280, Note_on_c, 0, 27, 127
3, 53328, Note_off_c, 0, 27, 64
3, 53328, Note_on_c, 0, 27, 127
3, 53376, Note_off_c, 0, 27, 64
3, 53376, Note_on_c, 0, 27, 127
3, 53520, Note_off_c, 0, 27, 64
3, 53520, Note_on_c, 0, 27, 127
3, 53664, Note_off_c, 0, 27, 64
3, 53664, Note_on_c, 0, 27, 127
3, 53808, Note_off_c, 0, 27, 64
3, 53808, Note_on_c, 0, 27, 127
3, 53856, Note_off_c, 0, 27, 64
3, 53856, Note_on_c, 0, 27, 127
3, 53904, Note_off_c, 0, 27, 64
3, 53904, Note_on_c, 0, 27, 127
3, 53952, Note_off_c, 0, 27, 64
3, 53952, Note_on_c, 0, 27, 127
3, 54000, Note_off_c, 0, 27, 64
3, 54000, Note_on_c, 0, 27, 127
3, 54048, Note_off_c, 0, 27, 64
3, 54048, Note_on_c, 0, 27, 127
3, 54096, Note_off_c, 0, 27, 64
3, 54096, Note_on_c, 0, 27, 127
3, 54144, Note_off_c, 0, 27, 64
3, 54144, Note_on_c, 0, 29, 127
3, 54288, Note_off_c, 0, 29, 64
3, 54288, Note_on_c, 0, 31, 127
3, 54326, Control_c, 0, 7, 92
3, 54432, Note_off_c, 0, 31, 64
3, 54432, Note_on_c, 0, 27, 127
3, 54576, Note_off_c, 0, 27, 64
3, 54576, Note_on_c, 0, 27, 127
3, 54624, Note_off_c, 0, 27, 64
3, 54624, Note_on_c, 0, 27, 127
3, 54672, Note_off_c, 0, 27, 64
3, 54672, Note_on_c, 0, 27, 127
3, 54720, Note_off_c, 0, 27, 64
3, 54720, Note_on_c, 0, 27, 127
3, 54768, Note_off_c, 0, 27, 64
3, 54768, Note_on_c, 0, 27, 127
3, 54816, Note_off_c, 0, 27, 64
3, 54816, Note_on_c, 0, 27, 127
3, 54864, Note_off_c, 0, 27, 64
3, 54864, Note_on_c, 0, 27, 127
3, 54912, Note_off_c, 0, 27, 64
3, 55680, Note_on_c, 0, 29, 127
3, 55824, Note_off_c, 0, 29, 64
3, 55824, Note_on_c, 0, 31, 127
3, 55968, Note_off_c, 0, 31, 64
3, 55968, Note_on_c, 0, 27, 127
3, 55969, Control_c, 0, 7, 92
3, 56112, Note_off_c, 0, 27, 64
3, 56112, Note_on_c, 0, 27, 127
3, 56160, Note_off_c, 0, 27, 64
3, 56160, Note_on_c, 0, 27, 127
3, 56208, Note_off_c, 0, 27, 64
3, 56208, Note_on_c, 0, 27, 127
3, 56256, Note_off_c, 0, 27, 64
3, 56256, Note_on_c, 0, 27, 127
3, 56304, Note_off_c, 0, 27, 64
3, 56304, Note_on_c, 0, 27, 127
3, 56352, Note_off_c, 0, 27, 64
3, 56352, Note_on_c, 0, 27, 127
3, 56400, Note_off_c, 0, 27, 64
3, 56400, Note_on_c, 0, 27, 127
3, 56448, Note_off_c, 0, 27, 64
3, 56448, Note_on_c, 0, 27, 127
3, 56592, Note_off_c, 0, 27, 64
3, 56592, Note_on_c, 0, 27, 127
3, 56736, Note_off_c, 0, 27, 64
3, 56736, Note_on_c, 0, 27, 127
3, 56880, Note_off_c, 0, 27, 64
3, 56880, Note_on_c, 0, 27, 127
3, 56928, Note_off_c, 0, 27, 64
3, 56928, Note_on_c, 0, 27, 127
3, 56976, Note_off_c, 0, 27, 64
3, 56976, Note_on_c, 0, 27, 127
3, 57024, Note_off_c, 0, 27, 64
3, 57024, Note_on_c, 0, 27, 127
3, 57072, Note_off_c, 0, 27, 64
3, 57072, Note_on_c, 0, 27, 127
3, 57120, Note_off_c, 0, 27, 64
3, 57120, Note_on_c, 0, 27, 127
3, 57168, Note_off_c, 0, 27, 64
3, 57168, Note_on_c, 0, 27, 127
3, 57216, Note_off_c, 0, 27, 64
3, 57216, Note_on_c, 0, 29, 127
3, 57360, Note_off_c, 0, 29, 64
3, 57360, Note_on_c, 0, 31, 127
3, 57504, Note_off_c, 0, 31, 64
3, 57504, Note_on_c, 0, 27, 127
3, 57625, Control_c, 0, 7, 92
3, 57648, Note_off_c, 0, 27, 64
3, 57648, Note_on_c, 0, 27, 127
3, 57696, Note_off_c, 0, 27, 64
3, 57696, Note_on_c, 0, 27, 127
3, 57744, Note_off_c, 0, 27, 64
3, 57744, Note_on_c, 0, 27, 127
3, 57792, Note_off_c, 0, 27, 64
3, 57792, Note_on_c, 0, 27, 127
3, 57840, Note_off_c, 0, 27, 64
3, 57840, Note_on_c, 0, 27, 127
3, 57888, Note_off_c, 0, 27, 64
3, 57888, Note_on_c, 0, 27, 127
3, 57936, Note_off_c, 0, 27, 64
3, 57936, Note_on_c, 0, 27, 127
3, 57984, Note_off_c, 0, 27, 64
3, 57984, Note_on_c, 0, 27, 127
3, 58128, Note_off_c, 0, 27, 64
3, 58128, Note_on_c, 0, 27, 127
3, 58272, Note_off_c, 0, 27, 64
3, 58272, Note_on_c, 0, 27, 127
3, 58416, Note_off_c, 0, 27, 64
3, 58416, Note_on_c, 0, 27, 127
3, 58464, Note_off_c, 0, 27, 64
3, 58464, Note_on_c, 0, 27, 127
3, 58512, Note_off_c, 0, 27, 64
3, 58512, Note_on_c, 0, 27, 127
3, 58560, Note_off_c, 0, 27, 64
3, 58560, Note_on_c, 0, 27, 127
3, 58608, Note_off_c, 0, 27, 64
3, 58608, Note_on_c, 0, 27, 127
3, 58656, Note_off_c, 0, 27, 64
3, 58656, Note_on_c, 0, 27, 127
3, 58704, Note_off_c, 0, 27, 64
3, 58704, Note_on_c, 0, 27, 127
3, 58752, Note_off_c, 0, 27, 64
3, 58752, Note_on_c, 0, 29, 127
3, 58896, Note_off_c, 0, 29, 64
3, 58896, Note_on_c, 0, 31, 127
3, 59040, Note_off_c, 0, 31, 64
3, 59040, Note_on_c, 0, 27, 127
3, 59184, Note_off_c, 0, 27, 64
3, 59184, Note_on_c, 0, 27, 127
3, 59232, Note_off_c, 0, 27, 64
3, 59232, Note_on_c, 0, 27, 127
3, 59268, Control_c, 0, 7, 92
3, 59280, Note_off_c, 0, 27, 64
3, 59280, Note_on_c, 0, 27, 127
3, 59328, Note_off_c, 0, 27, 64
3, 59328, Note_on_c, 0, 27, 127
3, 59376, Note_off_c, 0, 27, 64
3, 59376, Note_on_c, 0, 27, 127
3, 59424, Note_off_c, 0, 27, 64
3, 59424, Note_on_c, 0, 27, 127
3, 59472, Note_off_c, 0, 27, 64
3, 59472, Note_on_c, 0, 27, 127
3, 59520, Note_off_c, 0, 27, 64
3, 59520, Note_on_c, 0, 27, 127
3, 59664, Note_off_c, 0, 27, 64
3, 59664, Note_on_c, 0, 27, 127
3, 59808, Note_off_c, 0, 27, 64
3, 59808, Note_on_c, 0, 27, 127
3, 59952, Note_off_c, 0, 27, 64
3, 59952, Note_on_c, 0, 27, 127
3, 60000, Note_off_c, 0, 27, 64
3, 60000, Note_on_c, 0, 27, 127
3, 60048, Note_off_c, 0, 27, 64
3, 60048, Note_on_c, 0, 27, 127
3, 60096, Note_off_c, 0, 27, 64
3, 60096, Note_on_c, 0, 27, 127
3, 60144, Note_off_c, 0, 27, 64
3, 60144, Note_on_c, 0, 27, 127
3, 60192, Note_off_c, 0, 27, 64
3, 60192, Note_on_c, 0, 27, 127
3, 60240, Note_off_c, 0, 27, 64
3, 60240, Note_on_c, 0, 27, 127
3, 60288, Note_off_c, 0, 27, 64
3, 60288, Note_on_c, 0, 29, 127
3, 60432, Note_off_c, 0, 29, 64
3, 60432, Note_on_c, 0, 31, 127
3, 60576, Note_off_c, 0, 31, 64
3, 60576, Note_on_c, 0, 27, 127
3, 60720, Note_off_c, 0, 27, 64
3, 60720, Note_on_c, 0, 27, 127
3, 60768, Note_off_c, 0, 27, 64
3, 60768, Note_on_c, 0, 27, 127
3, 60816, Note_off_c, 0, 27, 64
3, 60816, Note_on_c, 0, 27, 127
3, 60864, Note_off_c, 0, 27, 64
3, 60864, Note_on_c, 0, 27, 127
3, 60912, Note_off_c, 0, 27, 64
3, 60912, Note_on_c, 0, 27, 127
3, 60924, Control_c, 0, 7, 92
3, 60960, Note_off_c, 0, 27, 64
3, 60960, Note_on_c, 0, 27, 127
3, 61008, Note_off_c, 0, 27, 64
3, 61008, Note_on_c, 0, 27, 127
3, 61056, Note_off_c, 0, 27, 64
3, 61056, Note_on_c, 0, 27, 127
3, 61200, Note_off_c, 0, 27, 64
3, 61200, Note_on_c, 0, 27, 127
3, 61344, Note_off_c, 0, 27, 64
3, 61344, Note_on_c, 0, 27, 127
3, 61488, Note_off_c, 0, 27, 64
3, 61488, Note_on_c, 0, 27, 127
3, 61536, Note_off_c, 0, 27, 64
3, 61536, Note_on_c, 0, 27, 127
3, 61584, Note_off_c, 0, 27, 64
3, 61584, Note_on_c, 0, 27, 127
3, 61632, Note_off_c, 0, 27, 64
3, 61632, Note_on_c, 0, 27, 127
3, 61680, Note_off_c, 0, 27, 64
3, 61680, Note_on_c, 0, 27, 127
3, 61728, Note_off_c, 0, 27, 64
3, 61728, Note_on_c, 0, 27, 127
3, 61776, Note_off_c, 0, 27, 64
3, 61776, Note_on_c, 0, 27, 127
3, 61824, Note_off_c, 0, 27, 64
3, 62568, Control_c, 0, 7, 92
3, 63396, Control_c, 0, 101, 0
3, 63396, Control_c, 0, 100, 0
3, 63396, Control_c, 0, 6, 12
3, 63396, Control_c, 0, 10, 64
3, 63396, Control_c, 0, 7, 92
3, 63396, Pitch_bend_c, 0, 8192
3, 63396, Program_c, 0, 87
3, 63396, Control_c, 0, 7, 92
3, 63396, Control_c, 0, 7, 34
3, 63397, Control_c, 0, 101, 0
3, 63397, Control_c, 0, 100, 0
3, 63397, Control_c, 0, 6, 12
3, 63397, Control_c, 0, 10, 64
3, 63397, Control_c, 0, 7, 92
3, 63397, Pitch_bend_c, 0, 8192
3, 63397, Program_c, 0, 87
3, 63397, End_track
4, 0, Start_track
4, 0, Title_t, "heavy drums"
4, 0, Control_c, 9, 10, 64
4, 0, Control_c, 9, 7, 83
4, 0, Pitch_bend_c, 9, 8192
4, 0, Control_c, 9, 101, 0
4, 0, Control_c, 9, 100, 0
4, 0, Control_c, 9, 6, 12
4, 0, Control_c, 9, 10, 64
4, 0, Control_c, 9, 7, 83
4, 0, Pitch_bend_c, 9, 8192
4, 0, Program_c, 9, 16
4, 0, Control_c, 9, 7, 90
4, 0, Control_c, 9, 7, 37
4, 0, Control_c, 9, 101, 0
4, 0, Control_c, 9, 100, 0
4, 0, Control_c, 9, 6, 12
4, 0, Control_c, 9, 10, 64
4, 0, Control_c, 9, 7, 37
4, 0, Pitch_bend_c, 9, 8192
4, 0, Program_c, 9, 16
4, 0, Note_on_c, 9, 46, 100
4, 0, Note_on_c, 9, 36, 127
4, 0, Control_c, 9, 7, 37
4, 0, Control_c, 9, 101, 0
4, 0, Control_c, 9, 100, 0
4, 0, Control_c, 9, 6, 12
4, 0, Control_c, 9, 10, 64
4, 0, Control_c, 9, 7, 37
4, 0, Pitch_bend_c, 9, 8192
4, 0, Program_c, 9, 16
4, 1, Control_c, 9, 7, 37
4, 2, Control_c, 9, 7, 37
4, 3, Control_c, 9, 7, 37
4, 4, Control_c, 9, 7, 37
4, 5, Control_c, 9, 7, 37
4, 6, Control_c, 9, 7, 37
4, 7, Control_c, 9, 7, 37
4, 8, Control_c, 9, 7, 37
4, 9, Control_c, 9, 7, 37
4, 10, Control_c, 9, 7, 37
4, 11, Control_c, 9, 7, 37
4, 12, Control_c, 9, 7, 37
4, 13, Control_c, 9, 7, 37
4, 14, Control_c, 9, 7, 37
4, 15, Control_c, 9, 7, 37
4, 16, Control_c, 9, 7, 37
4, 17, Control_c, 9, 7, 37
4, 18, Control_c, 9, 7, 37
4, 19, Control_c, 9, 7, 37
4, 20, Control_c, 9, 7, 37
4, 21, Control_c, 9, 7, 37
4, 22, Control_c, 9, 7, 37
4, 23, Control_c, 9, 7, 37
4, 24, Note_off_c, 9, 46, 64
4, 24, Control_c, 9, 7, 37
4, 25, Control_c, 9, 7, 37
4, 26, Control_c, 9, 7, 37
4, 27, Control_c, 9, 7, 37
4, 28, Control_c, 9, 7, 37
4, 29, Control_c, 9, 7, 37
4, 30, Control_c, 9, 7, 37
4, 31, Control_c, 9, 7, 37
4, 32, Control_c, 9, 7, 37
4, 33, Control_c, 9, 7, 37
4, 34, Control_c, 9, 7, 37
4, 35, Control_c, 9, 7, 37
4, 36, Control_c, 9, 7, 37
4, 37, Control_c, 9, 7, 37
4, 38, Control_c, 9, 7, 37
4, 39, Control_c, 9, 7, 37
4, 40, Control_c, 9, 7, 37
4, 41, Control_c, 9, 7, 37
4, 42, Control_c, 9, 7, 37
4, 43, Control_c, 9, 7, 37
4, 44, Control_c, 9, 7, 37
4, 45, Control_c, 9, 7, 37
4, 46, Control_c, 9, 7, 37
4, 47, Control_c, 9, 7, 37
4, 48, Note_off_c, 9, 36, 64
4, 48, Control_c, 9, 7, 37
4, 49, Control_c, 9, 7, 37
4, 50, Control_c, 9, 7, 37
4, 51, Control_c, 9, 7, 37
4, 52, Control_c, 9, 7, 37
4, 53, Control_c, 9, 7, 37
4, 54, Control_c, 9, 7, 37
4, 55, Control_c, 9, 7, 37
4, 56, Control_c, 9, 7, 37
4, 57, Control_c, 9, 7, 37
4, 58, Control_c, 9, 7, 37
4, 59, Control_c, 9, 7, 37
4, 60, Control_c, 9, 7, 37
4, 61, Control_c, 9, 7, 37
4, 62, Control_c, 9, 7, 37
4, 63, Control_c, 9, 7, 37
4, 64, Control_c, 9, 7, 37
4, 65, Control_c, 9, 7, 37
4, 66, Control_c, 9, 7, 37
4, 67, Control_c, 9, 7, 37
4, 68, Control_c, 9, 7, 37
4, 69, Control_c, 9, 7, 37
4, 70, Control_c, 9, 7, 37
4, 71, Control_c, 9, 7, 37
4, 72, Control_c, 9, 7, 37
4, 73, Control_c, 9, 7, 37
4, 74, Control_c, 9, 7, 37
4, 75, Control_c, 9, 7, 37
4, 76, Control_c, 9, 7, 37
4, 77, Control_c, 9, 7, 37
4, 78, Control_c, 9, 7, 37
4, 79, Control_c, 9, 7, 37
4, 80, Control_c, 9, 7, 37
4, 81, Control_c, 9, 7, 37
4, 82, Control_c, 9, 7, 37
4, 83, Control_c, 9, 7, 37
4, 84, Control_c, 9, 7, 37
4, 85, Control_c, 9, 7, 37
4, 86, Control_c, 9, 7, 37
4, 87, Control_c, 9, 7, 37
4, 88, Control_c, 9, 7, 37
4, 89, Control_c, 9, 7, 37
4, 90, Control_c, 9, 7, 37
4, 91, Control_c, 9, 7, 37
4, 92, Control_c, 9, 7, 37
4, 93, Control_c, 9, 7, 37
4, 94, Control_c, 9, 7, 37
4, 95, Control_c, 9, 7, 37
4, 96, Note_on_c, 9, 44, 100
4, 96, Control_c, 9, 7, 37
4, 97, Control_c, 9, 7, 37
4, 98, Control_c, 9, 7, 37
4, 99, Control_c, 9, 7, 37
4, 100, Control_c, 9, 7, 37
4, 101, Control_c, 9, 7, 37
4, 102, Control_c, 9, 7, 37
4, 103, Control_c, 9, 7, 37
4, 104, Control_c, 9, 7, 37
4, 105, Control_c, 9, 7, 37
4, 106, Control_c, 9, 7, 37
4, 107, Control_c, 9, 7, 37
4, 108, Control_c, 9, 7, 37
4, 109, Control_c, 9, 7, 37
4, 110, Control_c, 9, 7, 37
4, 111, Control_c, 9, 7, 37
4, 112, Control_c, 9, 7, 37
4, 113, Control_c, 9, 7, 37
4, 114, Control_c, 9, 7, 37
4, 115, Control_c, 9, 7, 37
4, 116, Control_c, 9, 7, 37
4, 117, Control_c, 9, 7, 37
4, 118, Control_c, 9, 7, 37
4, 119, Control_c, 9, 7, 38
4, 120, Note_off_c, 9, 44, 64
4, 120, Control_c, 9, 7, 38
4, 121, Control_c, 9, 7, 38
4, 122, Control_c, 9, 7, 38
4, 123, Control_c, 9, 7, 38
4, 124, Control_c, 9, 7, 38
4, 125, Control_c, 9, 7, 38
4, 126, Control_c, 9, 7, 38
4, 127, Control_c, 9, 7, 38
4, 128, Control_c, 9, 7, 38
4, 129, Control_c, 9, 7, 38
4, 130, Control_c, 9, 7, 38
4, 131, Control_c, 9, 7, 38
4, 132, Control_c, 9, 7, 38
4, 133, Control_c, 9, 7, 38
4, 134, Control_c, 9, 7, 38
4, 135, Control_c, 9, 7, 38
4, 136, Control_c, 9, 7, 38
4, 137, Control_c, 9, 7, 38
4, 138, Control_c, 9, 7, 38
4, 139, Control_c, 9, 7, 38
4, 140, Control_c, 9, 7, 38
4, 141, Control_c, 9, 7, 38
4, 142, Control_c, 9, 7, 38
4, 143, Control_c, 9, 7, 38
4, 144, Note_on_c, 9, 42, 100
4, 144, Note_on_c, 9, 36, 127
4, 144, Control_c, 9, 7, 38
4, 145, Control_c, 9, 7, 38
4, 146, Control_c, 9, 7, 38
4, 147, Control_c, 9, 7, 38
4, 148, Control_c, 9, 7, 38
4, 149, Control_c, 9, 7, 38
4, 150, Control_c, 9, 7, 38
4, 151, Control_c, 9, 7, 38
4, 152, Control_c, 9, 7, 38
4, 153, Control_c, 9, 7, 38
4, 154, Control_c, 9, 7, 38
4, 155, Control_c, 9, 7, 38
4, 156, Control_c, 9, 7, 38
4, 157, Control_c, 9, 7, 38
4, 158, Control_c, 9, 7, 38
4, 159, Control_c, 9, 7, 38
4, 160, Control_c, 9, 7, 38
4, 161, Control_c, 9, 7, 38
4, 162, Control_c, 9, 7, 38
4, 163, Control_c, 9, 7, 38
4, 164, Control_c, 9, 7, 38
4, 165, Control_c, 9, 7, 38
4, 166, Control_c, 9, 7, 38
4, 167, Control_c, 9, 7, 38
4, 168, Note_off_c, 9, 42, 64
4, 168, Control_c, 9, 7, 38
4, 169, Control_c, 9, 7, 38
4, 170, Control_c, 9, 7, 38
4, 171, Control_c, 9, 7, 38
4, 172, Control_c, 9, 7, 38
4, 173, Control_c, 9, 7, 38
4, 174, Control_c, 9, 7, 38
4, 175, Control_c, 9, 7, 38
4, 176, Control_c, 9, 7, 38
4, 177, Control_c, 9, 7, 38
4, 178, Control_c, 9, 7, 38
4, 179, Control_c, 9, 7, 38
4, 180, Control_c, 9, 7, 38
4, 181, Control_c, 9, 7, 38
4, 182, Control_c, 9, 7, 38
4, 183, Control_c, 9, 7, 38
4, 184, Control_c, 9, 7, 38
4, 185, Control_c, 9, 7, 38
4, 186, Control_c, 9, 7, 38
4, 187, Control_c, 9, 7, 38
4, 188, Control_c, 9, 7, 38
4, 189, Control_c, 9, 7, 38
4, 190, Control_c, 9, 7, 38
4, 191, Control_c, 9, 7, 38
4, 192, Note_off_c, 9, 36, 64
4, 192, Note_on_c, 9, 42, 100
4, 192, Note_on_c, 9, 38, 127
4, 192, Control_c, 9, 7, 38
4, 193, Control_c, 9, 7, 38
4, 194, Control_c, 9, 7, 38
4, 195, Control_c, 9, 7, 38
4, 196, Control_c, 9, 7, 38
4, 197, Control_c, 9, 7, 38
4, 198, Control_c, 9, 7, 38
4, 199, Control_c, 9, 7, 38
4, 200, Control_c, 9, 7, 38
4, 201, Control_c, 9, 7, 38
4, 202, Control_c, 9, 7, 38
4, 203, Control_c, 9, 7, 38
4, 204, Control_c, 9, 7, 38
4, 205, Control_c, 9, 7, 38
4, 206, Control_c, 9, 7, 38
4, 207, Control_c, 9, 7, 38
4, 208, Control_c, 9, 7, 38
4, 209, Control_c, 9, 7, 38
4, 210, Control_c, 9, 7, 38
4, 211, Control_c, 9, 7, 38
4, 212, Control_c, 9, 7, 38
4, 213, Control_c, 9, 7, 38
4, 214, Control_c, 9, 7, 38
4, 215, Control_c, 9, 7, 38
4, 216, Note_off_c, 9, 42, 64
4, 216, Control_c, 9, 7, 38
4, 217, Control_c, 9, 7, 38
4, 218, Control_c, 9, 7, 38
4, 219, Control_c, 9, 7, 38
4, 220, Control_c, 9, 7, 38
4, 221, Control_c, 9, 7, 38
4, 222, Control_c, 9, 7, 38
4, 223, Control_c, 9, 7, 39
4, 224, Control_c, 9, 7, 39
4, 225, Control_c, 9, 7, 39
4, 226, Control_c, 9, 7, 39
4, 227, Control_c, 9, 7, 39
4, 228, Control_c, 9, 7, 39
4, 229, Control_c, 9, 7, 39
4, 230, Control_c, 9, 7, 39
4, 231, Control_c, 9, 7, 39
4, 232, Control_c, 9, 7, 39
4, 233, Control_c, 9, 7, 39
4, 234, Control_c, 9, 7, 39
4, 235, Control_c, 9, 7, 39
4, 236, Control_c, 9, 7, 39
4, 237, Control_c, 9, 7, 39
4, 238, Control_c, 9, 7, 39
4, 239, Control_c, 9, 7, 39
4, 240, Note_off_c, 9, 38, 64
4, 240, Note_on_c, 9, 42, 100
4, 240, Control_c, 9, 7, 39
4, 241, Control_c, 9, 7, 39
4, 242, Control_c, 9, 7, 39
4, 243, Control_c, 9, 7, 39
4, 244, Control_c, 9, 7, 39
4, 245, Control_c, 9, 7, 39
4, 246, Control_c, 9, 7, 39
4, 247, Control_c, 9, 7, 39
4, 248, Control_c, 9, 7, 39
4, 249, Control_c, 9, 7, 39
4, 250, Control_c, 9, 7, 39
4, 251, Control_c, 9, 7, 39
4, 252, Control_c, 9, 7, 39
4, 253, Control_c, 9, 7, 39
4, 254, Control_c, 9, 7, 39
4, 255, Control_c, 9, 7, 39
4, 256, Control_c, 9, 7, 39
4, 257, Control_c, 9, 7, 39
4, 258, Control_c, 9, 7, 39
4, 259, Control_c, 9, 7, 39
4, 260, Control_c, 9, 7, 39
4, 261, Control_c, 9, 7, 39
4, 262, Control_c, 9, 7, 39
4, 263, Control_c, 9, 7, 39
4, 264, Note_off_c, 9, 42, 64
4, 264, Control_c, 9, 7, 39
4, 265, Control_c, 9, 7, 39
4, 266, Control_c, 9, 7, 39
4, 267, Control_c, 9, 7, 39
4, 268, Control_c, 9, 7, 39
4, 269, Control_c, 9, 7, 39
4, 270, Control_c, 9, 7, 39
4, 271, Control_c, 9, 7, 39
4, 272, Control_c, 9, 7, 39
4, 273, Control_c, 9, 7, 39
4, 274, Control_c, 9, 7, 39
4, 275, Control_c, 9, 7, 39
4, 276, Control_c, 9, 7, 39
4, 277, Control_c, 9, 7, 39
4, 278, Control_c, 9, 7, 39
4, 279, Control_c, 9, 7, 39
4, 280, Control_c, 9, 7, 39
4, 281, Control_c, 9, 7, 39
4, 282, Control_c, 9, 7, 39
4, 283, Control_c, 9, 7, 39
4, 284, Control_c, 9, 7, 39
4, 285, Control_c, 9, 7, 39
4, 286, Control_c, 9, 7, 39
4, 287, Control_c, 9, 7, 39
4, 288, Note_on_c, 9, 42, 100
4, 288, Note_on_c, 9, 36, 127
4, 288, Control_c, 9, 7, 39
4, 289, Control_c, 9, 7, 39
4, 290, Control_c, 9, 7, 39
4, 291, Control_c, 9, 7, 39
4, 292, Control_c, 9, 7, 39
4, 293, Control_c, 9, 7, 39
4, 294, Control_c, 9, 7, 39
4, 295, Control_c, 9, 7, 39
4, 296, Control_c, 9, 7, 39
4, 297, Control_c, 9, 7, 39
4, 298, Control_c, 9, 7, 39
4, 299, Control_c, 9, 7, 39
4, 300, Control_c, 9, 7, 39
4, 301, Control_c, 9, 7, 39
4, 302, Control_c, 9, 7, 39
4, 303, Control_c, 9, 7, 39
4, 304, Control_c, 9, 7, 39
4, 305, Control_c, 9, 7, 39
4, 306, Control_c, 9, 7, 39
4, 307, Control_c, 9, 7, 39
4, 308, Control_c, 9, 7, 39
4, 309, Control_c, 9, 7, 39
4, 310, Control_c, 9, 7, 39
4, 311, Control_c, 9, 7, 40
4, 312, Note_off_c, 9, 42, 64
4, 312, Control_c, 9, 7, 40
4, 313, Control_c, 9, 7, 40
4, 314, Control_c, 9, 7, 40
4, 315, Control_c, 9, 7, 40
4, 316, Control_c, 9, 7, 40
4, 317, Control_c, 9, 7, 40
4, 318, Control_c, 9, 7, 40
4, 319, Control_c, 9, 7, 40
4, 320, Control_c, 9, 7, 40
4, 321, Control_c, 9, 7, 40
4, 322, Control_c, 9, 7, 40
4, 323, Control_c, 9, 7, 40
4, 324, Control_c, 9, 7, 40
4, 325, Control_c, 9, 7, 40
4, 326, Control_c, 9, 7, 40
4, 327, Control_c, 9, 7, 40
4, 328, Control_c, 9, 7, 40
4, 329, Control_c, 9, 7, 40
4, 330, Control_c, 9, 7, 40
4, 331, Control_c, 9, 7, 40
4, 332, Control_c, 9, 7, 40
4, 333, Control_c, 9, 7, 40
4, 334, Control_c, 9, 7, 40
4, 335, Control_c, 9, 7, 40
4, 336, Note_off_c, 9, 36, 64
4, 336, Note_on_c, 9, 42, 100
4, 336, Control_c, 9, 7, 40
4, 337, Control_c, 9, 7, 40
4, 338, Control_c, 9, 7, 40
4, 339, Control_c, 9, 7, 40
4, 340, Control_c, 9, 7, 40
4, 341, Control_c, 9, 7, 40
4, 342, Control_c, 9, 7, 40
4, 343, Control_c, 9, 7, 40
4, 344, Control_c, 9, 7, 40
4, 345, Control_c, 9, 7, 40
4, 346, Control_c, 9, 7, 40
4, 347, Control_c, 9, 7, 40
4, 348, Control_c, 9, 7, 40
4, 349, Control_c, 9, 7, 40
4, 350, Control_c, 9, 7, 40
4, 351, Control_c, 9, 7, 40
4, 352, Control_c, 9, 7, 40
4, 353, Control_c, 9, 7, 40
4, 354, Control_c, 9, 7, 40
4, 355, Control_c, 9, 7, 40
4, 356, Control_c, 9, 7, 40
4, 357, Control_c, 9, 7, 40
4, 358, Control_c, 9, 7, 40
4, 359, Control_c, 9, 7, 40
4, 360, Note_off_c, 9, 42, 64
4, 360, Control_c, 9, 7, 40
4, 361, Control_c, 9, 7, 40
4, 362, Control_c, 9, 7, 40
4, 363, Control_c, 9, 7, 40
4, 364, Control_c, 9, 7, 40
4, 365, Control_c, 9, 7, 40
4, 366, Control_c, 9, 7, 40
4, 367, Control_c, 9, 7, 40
4, 368, Control_c, 9, 7, 40
4, 369, Control_c, 9, 7, 40
4, 370, Control_c, 9, 7, 40
4, 371, Control_c, 9, 7, 40
4, 372, Control_c, 9, 7, 40
4, 373, Control_c, 9, 7, 40
4, 374, Control_c, 9, 7, 40
4, 375, Control_c, 9, 7, 40
4, 376, Control_c, 9, 7, 40
4, 377, Control_c, 9, 7, 40
4, 378, Control_c, 9, 7, 40
4, 379, Control_c, 9, 7, 40
4, 380, Control_c, 9, 7, 40
4, 381, Control_c, 9, 7, 40
4, 382, Control_c, 9, 7, 40
4, 383, Control_c, 9, 7, 40
4, 384, Note_on_c, 9, 42, 100
4, 384, Note_on_c, 9, 36, 127
4, 384, Control_c, 9, 7, 40
4, 385, Control_c, 9, 7, 40
4, 386, Control_c, 9, 7, 40
4, 387, Control_c, 9, 7, 40
4, 388, Control_c, 9, 7, 40
4, 389, Control_c, 9, 7, 40
4, 390, Control_c, 9, 7, 41
4, 391, Control_c, 9, 7, 41
4, 392, Control_c, 9, 7, 41
4, 393, Control_c, 9, 7, 41
4, 394, Control_c, 9, 7, 41
4, 395, Control_c, 9, 7, 41
4, 396, Control_c, 9, 7, 41
4, 397, Control_c, 9, 7, 41
4, 398, Control_c, 9, 7, 41
4, 399, Control_c, 9, 7, 41
4, 400, Control_c, 9, 7, 41
4, 401, Control_c, 9, 7, 41
4, 402, Control_c, 9, 7, 41
4, 403, Control_c, 9, 7, 41
4, 404, Control_c, 9, 7, 41
4, 405, Control_c, 9, 7, 41
4, 406, Control_c, 9, 7, 41
4, 407, Control_c, 9, 7, 41
4, 408, Note_off_c, 9, 42, 64
4, 408, Control_c, 9, 7, 41
4, 409, Control_c, 9, 7, 41
4, 410, Control_c, 9, 7, 41
4, 411, Control_c, 9, 7, 41
4, 412, Control_c, 9, 7, 41
4, 413, Control_c, 9, 7, 41
4, 414, Control_c, 9, 7, 41
4, 415, Control_c, 9, 7, 41
4, 416, Control_c, 9, 7, 41
4, 417, Control_c, 9, 7, 41
4, 418, Control_c, 9, 7, 41
4, 419, Control_c, 9, 7, 41
4, 420, Control_c, 9, 7, 41
4, 421, Control_c, 9, 7, 41
4, 422, Control_c, 9, 7, 41
4, 423, Control_c, 9, 7, 41
4, 424, Control_c, 9, 7, 41
4, 425, Control_c, 9, 7, 41
4, 426, Control_c, 9, 7, 41
4, 427, Control_c, 9, 7, 41
4, 428, Control_c, 9, 7, 41
4, 429, Control_c, 9, 7, 41
4, 430, Control_c, 9, 7, 41
4, 431, Control_c, 9, 7, 41
4, 432, Note_off_c, 9, 36, 64
4, 432, Control_c, 9, 7, 41
4, 433, Control_c, 9, 7, 41
4, 434, Control_c, 9, 7, 41
4, 435, Control_c, 9, 7, 41
4, 436, Control_c, 9, 7, 41
4, 437, Control_c, 9, 7, 41
4, 438, Control_c, 9, 7, 41
4, 439, Control_c, 9, 7, 41
4, 440, Control_c, 9, 7, 41
4, 441, Control_c, 9, 7, 41
4, 442, Control_c, 9, 7, 41
4, 443, Control_c, 9, 7, 41
4, 444, Control_c, 9, 7, 41
4, 445, Control_c, 9, 7, 41
4, 446, Control_c, 9, 7, 41
4, 447, Control_c, 9, 7, 41
4, 448, Control_c, 9, 7, 41
4, 449, Control_c, 9, 7, 41
4, 450, Control_c, 9, 7, 41
4, 451, Control_c, 9, 7, 41
4, 452, Control_c, 9, 7, 41
4, 453, Control_c, 9, 7, 41
4, 454, Control_c, 9, 7, 41
4, 455, Control_c, 9, 7, 41
4, 456, Control_c, 9, 7, 41
4, 457, Control_c, 9, 7, 41
4, 458, Control_c, 9, 7, 41
4, 459, Control_c, 9, 7, 41
4, 460, Control_c, 9, 7, 41
4, 461, Control_c, 9, 7, 42
4, 462, Control_c, 9, 7, 42
4, 463, Control_c, 9, 7, 42
4, 464, Control_c, 9, 7, 42
4, 465, Control_c, 9, 7, 42
4, 466, Control_c, 9, 7, 42
4, 467, Control_c, 9, 7, 42
4, 468, Control_c, 9, 7, 42
4, 469, Control_c, 9, 7, 42
4, 470, Control_c, 9, 7, 42
4, 471, Control_c, 9, 7, 42
4, 472, Control_c, 9, 7, 42
4, 473, Control_c, 9, 7, 42
4, 474, Control_c, 9, 7, 42
4, 475, Control_c, 9, 7, 42
4, 476, Control_c, 9, 7, 42
4, 477, Control_c, 9, 7, 42
4, 478, Control_c, 9, 7, 42
4, 479, Control_c, 9, 7, 42
4, 480, Note_on_c, 9, 42, 100
4, 480, Control_c, 9, 7, 42
4, 481, Control_c, 9, 7, 42
4, 482, Control_c, 9, 7, 42
4, 483, Control_c, 9, 7, 42
4, 484, Control_c, 9, 7, 42
4, 485, Control_c, 9, 7, 42
4, 486, Control_c, 9, 7, 42
4, 487, Control_c, 9, 7, 42
4, 488, Control_c, 9, 7, 42
4, 489, Control_c, 9, 7, 42
4, 490, Control_c, 9, 7, 42
4, 491, Control_c, 9, 7, 42
4, 492, Control_c, 9, 7, 42
4, 493, Control_c, 9, 7, 42
4, 494, Control_c, 9, 7, 42
4, 495, Control_c, 9, 7, 42
4, 496, Control_c, 9, 7, 42
4, 497, Control_c, 9, 7, 42
4, 498, Control_c, 9, 7, 42
4, 499, Control_c, 9, 7, 42
4, 500, Control_c, 9, 7, 42
4, 501, Control_c, 9, 7, 42
4, 502, Control_c, 9, 7, 42
4, 503, Control_c, 9, 7, 42
4, 504, Note_off_c, 9, 42, 64
4, 504, Control_c, 9, 7, 42
4, 505, Control_c, 9, 7, 42
4, 506, Control_c, 9, 7, 42
4, 507, Control_c, 9, 7, 42
4, 508, Control_c, 9, 7, 42
4, 509, Control_c, 9, 7, 42
4, 510, Control_c, 9, 7, 42
4, 511, Control_c, 9, 7, 42
4, 512, Control_c, 9, 7, 42
4, 513, Control_c, 9, 7, 42
4, 514, Control_c, 9, 7, 42
4, 515, Control_c, 9, 7, 42
4, 516, Control_c, 9, 7, 42
4, 517, Control_c, 9, 7, 42
4, 518, Control_c, 9, 7, 42
4, 519, Control_c, 9, 7, 42
4, 520, Control_c, 9, 7, 42
4, 521, Control_c, 9, 7, 42
4, 522, Control_c, 9, 7, 42
4, 523, Control_c, 9, 7, 42
4, 524, Control_c, 9, 7, 42
4, 525, Control_c, 9, 7, 42
4, 526, Control_c, 9, 7, 42
4, 527, Control_c, 9, 7, 42
4, 528, Note_on_c, 9, 42, 100
4, 528, Note_on_c, 9, 38, 127
4, 528, Control_c, 9, 7, 42
4, 529, Control_c, 9, 7, 43
4, 530, Control_c, 9, 7, 43
4, 531, Control_c, 9, 7, 43
4, 532, Control_c, 9, 7, 43
4, 533, Control_c, 9, 7, 43
4, 534, Control_c, 9, 7, 43
4, 535, Control_c, 9, 7, 43
4, 536, Control_c, 9, 7, 43
4, 537, Control_c, 9, 7, 43
4, 538, Control_c, 9, 7, 43
4, 539, Control_c, 9, 7, 43
4, 540, Control_c, 9, 7, 43
4, 541, Control_c, 9, 7, 43
4, 542, Control_c, 9, 7, 43
4, 543, Control_c, 9, 7, 43
4, 544, Control_c, 9, 7, 43
4, 545, Control_c, 9, 7, 43
4, 546, Control_c, 9, 7, 43
4, 547, Control_c, 9, 7, 43
4, 548, Control_c, 9, 7, 43
4, 549, Control_c, 9, 7, 43
4, 550, Control_c, 9, 7, 43
4, 551, Control_c, 9, 7, 43
4, 552, Note_off_c, 9, 42, 64
4, 552, Control_c, 9, 7, 43
4, 553, Control_c, 9, 7, 43
4, 554, Control_c, 9, 7, 43
4, 555, Control_c, 9, 7, 43
4, 556, Control_c, 9, 7, 43
4, 557, Control_c, 9, 7, 43
4, 558, Control_c, 9, 7, 43
4, 559, Control_c, 9, 7, 43
4, 560, Control_c, 9, 7, 43
4, 561, Control_c, 9, 7, 43
4, 562, Control_c, 9, 7, 43
4, 563, Control_c, 9, 7, 43
4, 564, Control_c, 9, 7, 43
4, 565, Control_c, 9, 7, 43
4, 566, Control_c, 9, 7, 43
4, 567, Control_c, 9, 7, 43
4, 568, Control_c, 9, 7, 43
4, 569, Control_c, 9, 7, 43
4, 570, Control_c, 9, 7, 43
4, 571, Control_c, 9, 7, 43
4, 572, Control_c, 9, 7, 43
4, 573, Control_c, 9, 7, 43
4, 574, Control_c, 9, 7, 43
4, 575, Control_c, 9, 7, 43
4, 576, Note_off_c, 9, 38, 64
4, 576, Control_c, 9, 7, 43
4, 577, Control_c, 9, 7, 43
4, 578, Control_c, 9, 7, 43
4, 579, Control_c, 9, 7, 43
4, 580, Control_c, 9, 7, 43
4, 581, Control_c, 9, 7, 43
4, 582, Control_c, 9, 7, 43
4, 583, Control_c, 9, 7, 43
4, 584, Control_c, 9, 7, 43
4, 585, Control_c, 9, 7, 43
4, 586, Control_c, 9, 7, 43
4, 587, Control_c, 9, 7, 43
4, 588, Control_c, 9, 7, 43
4, 589, Control_c, 9, 7, 43
4, 590, Control_c, 9, 7, 43
4, 591, Control_c, 9, 7, 43
4, 592, Control_c, 9, 7, 44
4, 593, Control_c, 9, 7, 44
4, 594, Control_c, 9, 7, 44
4, 595, Control_c, 9, 7, 44
4, 596, Control_c, 9, 7, 44
4, 597, Control_c, 9, 7, 44
4, 598, Control_c, 9, 7, 44
4, 599, Control_c, 9, 7, 44
4, 600, Control_c, 9, 7, 44
4, 601, Control_c, 9, 7, 44
4, 602, Control_c, 9, 7, 44
4, 603, Control_c, 9, 7, 44
4, 604, Control_c, 9, 7, 44
4, 605, Control_c, 9, 7, 44
4, 606, Control_c, 9, 7, 44
4, 607, Control_c, 9, 7, 44
4, 608, Control_c, 9, 7, 44
4, 609, Control_c, 9, 7, 44
4, 610, Control_c, 9, 7, 44
4, 611, Control_c, 9, 7, 44
4, 612, Control_c, 9, 7, 44
4, 613, Control_c, 9, 7, 44
4, 614, Control_c, 9, 7, 44
4, 615, Control_c, 9, 7, 44
4, 616, Control_c, 9, 7, 44
4, 617, Control_c, 9, 7, 44
4, 618, Control_c, 9, 7, 44
4, 619, Control_c, 9, 7, 44
4, 620, Control_c, 9, 7, 44
4, 621, Control_c, 9, 7, 44
4, 622, Control_c, 9, 7, 44
4, 623, Control_c, 9, 7, 44
4, 624, Note_on_c, 9, 38, 127
4, 624, Control_c, 9, 7, 44
4, 625, Control_c, 9, 7, 44
4, 626, Control_c, 9, 7, 44
4, 627, Control_c, 9, 7, 44
4, 628, Control_c, 9, 7, 44
4, 629, Control_c, 9, 7, 44
4, 630, Control_c, 9, 7, 44
4, 631, Control_c, 9, 7, 44
4, 632, Control_c, 9, 7, 44
4, 633, Control_c, 9, 7, 44
4, 634, Control_c, 9, 7, 44
4, 635, Control_c, 9, 7, 44
4, 636, Control_c, 9, 7, 44
4, 637, Control_c, 9, 7, 44
4, 638, Control_c, 9, 7, 44
4, 639, Control_c, 9, 7, 44
4, 640, Control_c, 9, 7, 44
4, 641, Control_c, 9, 7, 44
4, 642, Control_c, 9, 7, 44
4, 643, Control_c, 9, 7, 44
4, 644, Control_c, 9, 7, 44
4, 645, Control_c, 9, 7, 44
4, 646, Control_c, 9, 7, 44
4, 647, Control_c, 9, 7, 44
4, 648, Control_c, 9, 7, 44
4, 649, Control_c, 9, 7, 44
4, 650, Control_c, 9, 7, 44
4, 651, Control_c, 9, 7, 44
4, 652, Control_c, 9, 7, 45
4, 653, Control_c, 9, 7, 45
4, 654, Control_c, 9, 7, 45
4, 655, Control_c, 9, 7, 45
4, 656, Control_c, 9, 7, 45
4, 657, Control_c, 9, 7, 45
4, 658, Control_c, 9, 7, 45
4, 659, Control_c, 9, 7, 45
4, 660, Control_c, 9, 7, 45
4, 661, Control_c, 9, 7, 45
4, 662, Control_c, 9, 7, 45
4, 663, Control_c, 9, 7, 45
4, 664, Control_c, 9, 7, 45
4, 665, Control_c, 9, 7, 45
4, 666, Control_c, 9, 7, 45
4, 667, Control_c, 9, 7, 45
4, 668, Control_c, 9, 7, 45
4, 669, Control_c, 9, 7, 45
4, 670, Control_c, 9, 7, 45
4, 671, Control_c, 9, 7, 45
4, 672, Note_off_c, 9, 38, 64
4, 672, Control_c, 9, 7, 45
4, 673, Control_c, 9, 7, 45
4, 674, Control_c, 9, 7, 45
4, 675, Control_c, 9, 7, 45
4, 676, Control_c, 9, 7, 45
4, 677, Control_c, 9, 7, 45
4, 678, Control_c, 9, 7, 45
4, 679, Control_c, 9, 7, 45
4, 680, Control_c, 9, 7, 45
4, 681, Control_c, 9, 7, 45
4, 682, Control_c, 9, 7, 45
4, 683, Control_c, 9, 7, 45
4, 684, Control_c, 9, 7, 45
4, 685, Control_c, 9, 7, 45
4, 686, Control_c, 9, 7, 45
4, 687, Control_c, 9, 7, 45
4, 688, Control_c, 9, 7, 45
4, 689, Control_c, 9, 7, 45
4, 690, Control_c, 9, 7, 45
4, 691, Control_c, 9, 7, 45
4, 692, Control_c, 9, 7, 45
4, 693, Control_c, 9, 7, 45
4, 694, Control_c, 9, 7, 45
4, 695, Control_c, 9, 7, 45
4, 696, Control_c, 9, 7, 45
4, 697, Control_c, 9, 7, 45
4, 698, Control_c, 9, 7, 45
4, 699, Control_c, 9, 7, 45
4, 700, Control_c, 9, 7, 45
4, 701, Control_c, 9, 7, 45
4, 702, Control_c, 9, 7, 45
4, 703, Control_c, 9, 7, 45
4, 704, Control_c, 9, 7, 45
4, 705, Control_c, 9, 7, 45
4, 706, Control_c, 9, 7, 45
4, 707, Control_c, 9, 7, 45
4, 708, Control_c, 9, 7, 45
4, 709, Control_c, 9, 7, 45
4, 710, Control_c, 9, 7, 46
4, 711, Control_c, 9, 7, 46
4, 712, Control_c, 9, 7, 46
4, 713, Control_c, 9, 7, 46
4, 714, Control_c, 9, 7, 46
4, 715, Control_c, 9, 7, 46
4, 716, Control_c, 9, 7, 46
4, 717, Control_c, 9, 7, 46
4, 718, Control_c, 9, 7, 46
4, 719, Control_c, 9, 7, 46
4, 720, Note_on_c, 9, 46, 100
4, 720, Note_on_c, 9, 36, 127
4, 720, Control_c, 9, 7, 46
4, 721, Control_c, 9, 7, 46
4, 722, Control_c, 9, 7, 46
4, 723, Control_c, 9, 7, 46
4, 724, Control_c, 9, 7, 46
4, 725, Control_c, 9, 7, 46
4, 726, Control_c, 9, 7, 46
4, 727, Control_c, 9, 7, 46
4, 728, Control_c, 9, 7, 46
4, 729, Control_c, 9, 7, 46
4, 730, Control_c, 9, 7, 46
4, 731, Control_c, 9, 7, 46
4, 732, Control_c, 9, 7, 46
4, 733, Control_c, 9, 7, 46
4, 734, Control_c, 9, 7, 46
4, 735, Control_c, 9, 7, 46
4, 736, Control_c, 9, 7, 46
4, 737, Control_c, 9, 7, 46
4, 738, Control_c, 9, 7, 46
4, 739, Control_c, 9, 7, 46
4, 740, Control_c, 9, 7, 46
4, 741, Control_c, 9, 7, 46
4, 742, Control_c, 9, 7, 46
4, 743, Control_c, 9, 7, 46
4, 744, Note_off_c, 9, 46, 64
4, 744, Control_c, 9, 7, 46
4, 745, Control_c, 9, 7, 46
4, 746, Control_c, 9, 7, 46
4, 747, Control_c, 9, 7, 46
4, 748, Control_c, 9, 7, 46
4, 749, Control_c, 9, 7, 46
4, 750, Control_c, 9, 7, 46
4, 751, Control_c, 9, 7, 46
4, 752, Control_c, 9, 7, 46
4, 753, Control_c, 9, 7, 46
4, 754, Control_c, 9, 7, 46
4, 755, Control_c, 9, 7, 46
4, 756, Control_c, 9, 7, 46
4, 757, Control_c, 9, 7, 46
4, 758, Control_c, 9, 7, 46
4, 759, Control_c, 9, 7, 46
4, 760, Control_c, 9, 7, 46
4, 761, Control_c, 9, 7, 46
4, 762, Control_c, 9, 7, 46
4, 763, Control_c, 9, 7, 46
4, 764, Control_c, 9, 7, 46
4, 765, Control_c, 9, 7, 46
4, 766, Control_c, 9, 7, 47
4, 767, Control_c, 9, 7, 47
4, 768, Note_off_c, 9, 36, 64
4, 768, Note_on_c, 9, 44, 100
4, 768, Note_on_c, 9, 36, 127
4, 768, Control_c, 9, 7, 47
4, 769, Control_c, 9, 7, 47
4, 770, Control_c, 9, 7, 47
4, 771, Control_c, 9, 7, 47
4, 772, Control_c, 9, 7, 47
4, 773, Control_c, 9, 7, 47
4, 774, Control_c, 9, 7, 47
4, 775, Control_c, 9, 7, 47
4, 776, Control_c, 9, 7, 47
4, 777, Control_c, 9, 7, 47
4, 778, Control_c, 9, 7, 47
4, 779, Control_c, 9, 7, 47
4, 780, Control_c, 9, 7, 47
4, 781, Control_c, 9, 7, 47
4, 782, Control_c, 9, 7, 47
4, 783, Control_c, 9, 7, 47
4, 784, Control_c, 9, 7, 47
4, 785, Control_c, 9, 7, 47
4, 786, Control_c, 9, 7, 47
4, 787, Control_c, 9, 7, 47
4, 788, Control_c, 9, 7, 47
4, 789, Control_c, 9, 7, 47
4, 790, Control_c, 9, 7, 47
4, 791, Control_c, 9, 7, 47
4, 792, Note_off_c, 9, 44, 64
4, 792, Control_c, 9, 7, 47
4, 793, Control_c, 9, 7, 47
4, 794, Control_c, 9, 7, 47
4, 795, Control_c, 9, 7, 47
4, 796, Control_c, 9, 7, 47
4, 797, Control_c, 9, 7, 47
4, 798, Control_c, 9, 7, 47
4, 799, Control_c, 9, 7, 47
4, 800, Control_c, 9, 7, 47
4, 801, Control_c, 9, 7, 47
4, 802, Control_c, 9, 7, 47
4, 803, Control_c, 9, 7, 47
4, 804, Control_c, 9, 7, 47
4, 805, Control_c, 9, 7, 47
4, 806, Control_c, 9, 7, 47
4, 807, Control_c, 9, 7, 47
4, 808, Control_c, 9, 7, 47
4, 809, Control_c, 9, 7, 47
4, 810, Control_c, 9, 7, 47
4, 811, Control_c, 9, 7, 47
4, 812, Control_c, 9, 7, 47
4, 813, Control_c, 9, 7, 47
4, 814, Control_c, 9, 7, 47
4, 815, Control_c, 9, 7, 47
4, 816, Note_off_c, 9, 36, 64
4, 816, Control_c, 9, 7, 47
4, 817, Control_c, 9, 7, 47
4, 818, Control_c, 9, 7, 47
4, 819, Control_c, 9, 7, 47
4, 820, Control_c, 9, 7, 48
4, 821, Control_c, 9, 7, 48
4, 822, Control_c, 9, 7, 48
4, 823, Control_c, 9, 7, 48
4, 824, Control_c, 9, 7, 48
4, 825, Control_c, 9, 7, 48
4, 826, Control_c, 9, 7, 48
4, 827, Control_c, 9, 7, 48
4, 828, Control_c, 9, 7, 48
4, 829, Control_c, 9, 7, 48
4, 830, Control_c, 9, 7, 48
4, 831, Control_c, 9, 7, 48
4, 832, Control_c, 9, 7, 48
4, 833, Control_c, 9, 7, 48
4, 834, Control_c, 9, 7, 48
4, 835, Control_c, 9, 7, 48
4, 836, Control_c, 9, 7, 48
4, 837, Control_c, 9, 7, 48
4, 838, Control_c, 9, 7, 48
4, 839, Control_c, 9, 7, 48
4, 840, Control_c, 9, 7, 48
4, 841, Control_c, 9, 7, 48
4, 842, Control_c, 9, 7, 48
4, 843, Control_c, 9, 7, 48
4, 844, Control_c, 9, 7, 48
4, 845, Control_c, 9, 7, 48
4, 846, Control_c, 9, 7, 48
4, 847, Control_c, 9, 7, 48
4, 848, Control_c, 9, 7, 48
4, 849, Control_c, 9, 7, 48
4, 850, Control_c, 9, 7, 48
4, 851, Control_c, 9, 7, 48
4, 852, Control_c, 9, 7, 48
4, 853, Control_c, 9, 7, 48
4, 854, Control_c, 9, 7, 48
4, 855, Control_c, 9, 7, 48
4, 856, Control_c, 9, 7, 48
4, 857, Control_c, 9, 7, 48
4, 858, Control_c, 9, 7, 48
4, 859, Control_c, 9, 7, 48
4, 860, Control_c, 9, 7, 48
4, 861, Control_c, 9, 7, 48
4, 862, Control_c, 9, 7, 48
4, 863, Control_c, 9, 7, 48
4, 864, Note_on_c, 9, 42, 100
4, 864, Control_c, 9, 7, 48
4, 865, Control_c, 9, 7, 48
4, 866, Control_c, 9, 7, 48
4, 867, Control_c, 9, 7, 48
4, 868, Control_c, 9, 7, 48
4, 869, Control_c, 9, 7, 48
4, 870, Control_c, 9, 7, 48
4, 871, Control_c, 9, 7, 48
4, 872, Control_c, 9, 7, 48
4, 873, Control_c, 9, 7, 49
4, 874, Control_c, 9, 7, 49
4, 875, Control_c, 9, 7, 49
4, 876, Control_c, 9, 7, 49
4, 877, Control_c, 9, 7, 49
4, 878, Control_c, 9, 7, 49
4, 879, Control_c, 9, 7, 49
4, 880, Control_c, 9, 7, 49
4, 881, Control_c, 9, 7, 49
4, 882, Control_c, 9, 7, 49
4, 883, Control_c, 9, 7, 49
4, 884, Control_c, 9, 7, 49
4, 885, Control_c, 9, 7, 49
4, 886, Control_c, 9, 7, 49
4, 887, Control_c, 9, 7, 49
4, 888, Note_off_c, 9, 42, 64
4, 888, Control_c, 9, 7, 49
4, 889, Control_c, 9, 7, 49
4, 890, Control_c, 9, 7, 49
4, 891, Control_c, 9, 7, 49
4, 892, Control_c, 9, 7, 49
4, 893, Control_c, 9, 7, 49
4, 894, Control_c, 9, 7, 49
4, 895, Control_c, 9, 7, 49
4, 896, Control_c, 9, 7, 49
4, 897, Control_c, 9, 7, 49
4, 898, Control_c, 9, 7, 49
4, 899, Control_c, 9, 7, 49
4, 900, Control_c, 9, 7, 49
4, 901, Control_c, 9, 7, 49
4, 902, Control_c, 9, 7, 49
4, 903, Control_c, 9, 7, 49
4, 904, Control_c, 9, 7, 49
4, 905, Control_c, 9, 7, 49
4, 906, Control_c, 9, 7, 49
4, 907, Control_c, 9, 7, 49
4, 908, Control_c, 9, 7, 49
4, 909, Control_c, 9, 7, 49
4, 910, Control_c, 9, 7, 49
4, 911, Control_c, 9, 7, 49
4, 912, Note_on_c, 9, 42, 100
4, 912, Note_on_c, 9, 36, 127
4, 912, Control_c, 9, 7, 49
4, 913, Control_c, 9, 7, 49
4, 914, Control_c, 9, 7, 49
4, 915, Control_c, 9, 7, 49
4, 916, Control_c, 9, 7, 49
4, 917, Control_c, 9, 7, 49
4, 918, Control_c, 9, 7, 49
4, 919, Control_c, 9, 7, 49
4, 920, Control_c, 9, 7, 49
4, 921, Control_c, 9, 7, 49
4, 922, Control_c, 9, 7, 49
4, 923, Control_c, 9, 7, 49
4, 924, Control_c, 9, 7, 50
4, 925, Control_c, 9, 7, 50
4, 926, Control_c, 9, 7, 50
4, 927, Control_c, 9, 7, 50
4, 928, Control_c, 9, 7, 50
4, 929, Control_c, 9, 7, 50
4, 930, Control_c, 9, 7, 50
4, 931, Control_c, 9, 7, 50
4, 932, Control_c, 9, 7, 50
4, 933, Control_c, 9, 7, 50
4, 934, Control_c, 9, 7, 50
4, 935, Control_c, 9, 7, 50
4, 936, Note_off_c, 9, 42, 64
4, 936, Control_c, 9, 7, 50
4, 937, Control_c, 9, 7, 50
4, 938, Control_c, 9, 7, 50
4, 939, Control_c, 9, 7, 50
4, 940, Control_c, 9, 7, 50
4, 941, Control_c, 9, 7, 50
4, 942, Control_c, 9, 7, 50
4, 943, Control_c, 9, 7, 50
4, 944, Control_c, 9, 7, 50
4, 945, Control_c, 9, 7, 50
4, 946, Control_c, 9, 7, 50
4, 947, Control_c, 9, 7, 50
4, 948, Control_c, 9, 7, 50
4, 949, Control_c, 9, 7, 50
4, 950, Control_c, 9, 7, 50
4, 951, Control_c, 9, 7, 50
4, 952, Control_c, 9, 7, 50
4, 953, Control_c, 9, 7, 50
4, 954, Control_c, 9, 7, 50
4, 955, Control_c, 9, 7, 50
4, 956, Control_c, 9, 7, 50
4, 957, Control_c, 9, 7, 50
4, 958, Control_c, 9, 7, 50
4, 959, Control_c, 9, 7, 50
4, 960, Note_off_c, 9, 36, 64
4, 960, Note_on_c, 9, 42, 100
4, 960, Note_on_c, 9, 38, 127
4, 960, Control_c, 9, 7, 50
4, 961, Control_c, 9, 7, 50
4, 962, Control_c, 9, 7, 50
4, 963, Control_c, 9, 7, 50
4, 964, Control_c, 9, 7, 50
4, 965, Control_c, 9, 7, 50
4, 966, Control_c, 9, 7, 50
4, 967, Control_c, 9, 7, 50
4, 968, Control_c, 9, 7, 50
4, 969, Control_c, 9, 7, 50
4, 970, Control_c, 9, 7, 50
4, 971, Control_c, 9, 7, 50
4, 972, Control_c, 9, 7, 50
4, 973, Control_c, 9, 7, 50
4, 974, Control_c, 9, 7, 51
4, 975, Control_c, 9, 7, 51
4, 976, Control_c, 9, 7, 51
4, 977, Control_c, 9, 7, 51
4, 978, Control_c, 9, 7, 51
4, 979, Control_c, 9, 7, 51
4, 980, Control_c, 9, 7, 51
4, 981, Control_c, 9, 7, 51
4, 982, Control_c, 9, 7, 51
4, 983, Control_c, 9, 7, 51
4, 984, Note_off_c, 9, 42, 64
4, 984, Control_c, 9, 7, 51
4, 985, Control_c, 9, 7, 51
4, 986, Control_c, 9, 7, 51
4, 987, Control_c, 9, 7, 51
4, 988, Control_c, 9, 7, 51
4, 989, Control_c, 9, 7, 51
4, 990, Control_c, 9, 7, 51
4, 991, Control_c, 9, 7, 51
4, 992, Control_c, 9, 7, 51
4, 993, Control_c, 9, 7, 51
4, 994, Control_c, 9, 7, 51
4, 995, Control_c, 9, 7, 51
4, 996, Control_c, 9, 7, 51
4, 997, Control_c, 9, 7, 51
4, 998, Control_c, 9, 7, 51
4, 999, Control_c, 9, 7, 51
4, 1000, Control_c, 9, 7, 51
4, 1001, Control_c, 9, 7, 51
4, 1002, Control_c, 9, 7, 51
4, 1003, Control_c, 9, 7, 51
4, 1004, Control_c, 9, 7, 51
4, 1005, Control_c, 9, 7, 51
4, 1006, Control_c, 9, 7, 51
4, 1007, Control_c, 9, 7, 51
4, 1008, Note_off_c, 9, 38, 64
4, 1008, Note_on_c, 9, 42, 100
4, 1008, Control_c, 9, 7, 51
4, 1009, Control_c, 9, 7, 51
4, 1010, Control_c, 9, 7, 51
4, 1011, Control_c, 9, 7, 51
4, 1012, Control_c, 9, 7, 51
4, 1013, Control_c, 9, 7, 51
4, 1014, Control_c, 9, 7, 51
4, 1015, Control_c, 9, 7, 51
4, 1016, Control_c, 9, 7, 51
4, 1017, Control_c, 9, 7, 51
4, 1018, Control_c, 9, 7, 51
4, 1019, Control_c, 9, 7, 51
4, 1020, Control_c, 9, 7, 51
4, 1021, Control_c, 9, 7, 51
4, 1022, Control_c, 9, 7, 51
4, 1023, Control_c, 9, 7, 52
4, 1024, Control_c, 9, 7, 52
4, 1025, Control_c, 9, 7, 52
4, 1026, Control_c, 9, 7, 52
4, 1027, Control_c, 9, 7, 52
4, 1028, Control_c, 9, 7, 52
4, 1029, Control_c, 9, 7, 52
4, 1030, Control_c, 9, 7, 52
4, 1031, Control_c, 9, 7, 52
4, 1032, Note_off_c, 9, 42, 64
4, 1032, Control_c, 9, 7, 52
4, 1033, Control_c, 9, 7, 52
4, 1034, Control_c, 9, 7, 52
4, 1035, Control_c, 9, 7, 52
4, 1036, Control_c, 9, 7, 52
4, 1037, Control_c, 9, 7, 52
4, 1038, Control_c, 9, 7, 52
4, 1039, Control_c, 9, 7, 52
4, 1040, Control_c, 9, 7, 52
4, 1041, Control_c, 9, 7, 52
4, 1042, Control_c, 9, 7, 52
4, 1043, Control_c, 9, 7, 52
4, 1044, Control_c, 9, 7, 52
4, 1045, Control_c, 9, 7, 52
4, 1046, Control_c, 9, 7, 52
4, 1047, Control_c, 9, 7, 52
4, 1048, Control_c, 9, 7, 52
4, 1049, Control_c, 9, 7, 52
4, 1050, Control_c, 9, 7, 52
4, 1051, Control_c, 9, 7, 52
4, 1052, Control_c, 9, 7, 52
4, 1053, Control_c, 9, 7, 52
4, 1054, Control_c, 9, 7, 52
4, 1055, Control_c, 9, 7, 52
4, 1056, Note_on_c, 9, 42, 100
4, 1056, Note_on_c, 9, 36, 127
4, 1056, Control_c, 9, 7, 52
4, 1057, Control_c, 9, 7, 52
4, 1058, Control_c, 9, 7, 52
4, 1059, Control_c, 9, 7, 52
4, 1060, Control_c, 9, 7, 52
4, 1061, Control_c, 9, 7, 52
4, 1062, Control_c, 9, 7, 52
4, 1063, Control_c, 9, 7, 52
4, 1064, Control_c, 9, 7, 52
4, 1065, Control_c, 9, 7, 52
4, 1066, Control_c, 9, 7, 52
4, 1067, Control_c, 9, 7, 52
4, 1068, Control_c, 9, 7, 52
4, 1069, Control_c, 9, 7, 52
4, 1070, Control_c, 9, 7, 52
4, 1071, Control_c, 9, 7, 52
4, 1072, Control_c, 9, 7, 53
4, 1073, Control_c, 9, 7, 53
4, 1074, Control_c, 9, 7, 53
4, 1075, Control_c, 9, 7, 53
4, 1076, Control_c, 9, 7, 53
4, 1077, Control_c, 9, 7, 53
4, 1078, Control_c, 9, 7, 53
4, 1079, Control_c, 9, 7, 53
4, 1080, Note_off_c, 9, 42, 64
4, 1080, Control_c, 9, 7, 53
4, 1081, Control_c, 9, 7, 53
4, 1082, Control_c, 9, 7, 53
4, 1083, Control_c, 9, 7, 53
4, 1084, Control_c, 9, 7, 53
4, 1085, Control_c, 9, 7, 53
4, 1086, Control_c, 9, 7, 53
4, 1087, Control_c, 9, 7, 53
4, 1088, Control_c, 9, 7, 53
4, 1089, Control_c, 9, 7, 53
4, 1090, Control_c, 9, 7, 53
4, 1091, Control_c, 9, 7, 53
4, 1092, Control_c, 9, 7, 53
4, 1093, Control_c, 9, 7, 53
4, 1094, Control_c, 9, 7, 53
4, 1095, Control_c, 9, 7, 53
4, 1096, Control_c, 9, 7, 53
4, 1097, Control_c, 9, 7, 53
4, 1098, Control_c, 9, 7, 53
4, 1099, Control_c, 9, 7, 53
4, 1100, Control_c, 9, 7, 53
4, 1101, Control_c, 9, 7, 53
4, 1102, Control_c, 9, 7, 53
4, 1103, Control_c, 9, 7, 53
4, 1104, Note_off_c, 9, 36, 64
4, 1104, Note_on_c, 9, 42, 100
4, 1104, Control_c, 9, 7, 53
4, 1105, Control_c, 9, 7, 53
4, 1106, Control_c, 9, 7, 53
4, 1107, Control_c, 9, 7, 53
4, 1108, Control_c, 9, 7, 53
4, 1109, Control_c, 9, 7, 53
4, 1110, Control_c, 9, 7, 53
4, 1111, Control_c, 9, 7, 53
4, 1112, Control_c, 9, 7, 53
4, 1113, Control_c, 9, 7, 53
4, 1114, Control_c, 9, 7, 53
4, 1115, Control_c, 9, 7, 53
4, 1116, Control_c, 9, 7, 53
4, 1117, Control_c, 9, 7, 53
4, 1118, Control_c, 9, 7, 53
4, 1119, Control_c, 9, 7, 53
4, 1120, Control_c, 9, 7, 54
4, 1121, Control_c, 9, 7, 54
4, 1122, Control_c, 9, 7, 54
4, 1123, Control_c, 9, 7, 54
4, 1124, Control_c, 9, 7, 54
4, 1125, Control_c, 9, 7, 54
4, 1126, Control_c, 9, 7, 54
4, 1127, Control_c, 9, 7, 54
4, 1128, Note_off_c, 9, 42, 64
4, 1128, Control_c, 9, 7, 54
4, 1129, Control_c, 9, 7, 54
4, 1130, Control_c, 9, 7, 54
4, 1131, Control_c, 9, 7, 54
4, 1132, Control_c, 9, 7, 54
4, 1133, Control_c, 9, 7, 54
4, 1134, Control_c, 9, 7, 54
4, 1135, Control_c, 9, 7, 54
4, 1136, Control_c, 9, 7, 54
4, 1137, Control_c, 9, 7, 54
4, 1138, Control_c, 9, 7, 54
4, 1139, Control_c, 9, 7, 54
4, 1140, Control_c, 9, 7, 54
4, 1141, Control_c, 9, 7, 54
4, 1142, Control_c, 9, 7, 54
4, 1143, Control_c, 9, 7, 54
4, 1144, Control_c, 9, 7, 54
4, 1145, Control_c, 9, 7, 54
4, 1146, Control_c, 9, 7, 54
4, 1147, Control_c, 9, 7, 54
4, 1148, Control_c, 9, 7, 54
4, 1149, Control_c, 9, 7, 54
4, 1150, Control_c, 9, 7, 54
4, 1151, Control_c, 9, 7, 54
4, 1152, Note_on_c, 9, 42, 100
4, 1152, Note_on_c, 9, 36, 127
4, 1152, Control_c, 9, 7, 54
4, 1153, Control_c, 9, 7, 54
4, 1154, Control_c, 9, 7, 54
4, 1155, Control_c, 9, 7, 54
4, 1156, Control_c, 9, 7, 54
4, 1157, Control_c, 9, 7, 54
4, 1158, Control_c, 9, 7, 54
4, 1159, Control_c, 9, 7, 54
4, 1160, Control_c, 9, 7, 54
4, 1161, Control_c, 9, 7, 54
4, 1162, Control_c, 9, 7, 54
4, 1163, Control_c, 9, 7, 54
4, 1164, Control_c, 9, 7, 54
4, 1165, Control_c, 9, 7, 54
4, 1166, Control_c, 9, 7, 54
4, 1167, Control_c, 9, 7, 55
4, 1168, Control_c, 9, 7, 55
4, 1169, Control_c, 9, 7, 55
4, 1170, Control_c, 9, 7, 55
4, 1171, Control_c, 9, 7, 55
4, 1172, Control_c, 9, 7, 55
4, 1173, Control_c, 9, 7, 55
4, 1174, Control_c, 9, 7, 55
4, 1175, Control_c, 9, 7, 55
4, 1176, Note_off_c, 9, 42, 64
4, 1176, Control_c, 9, 7, 55
4, 1177, Control_c, 9, 7, 55
4, 1178, Control_c, 9, 7, 55
4, 1179, Control_c, 9, 7, 55
4, 1180, Control_c, 9, 7, 55
4, 1181, Control_c, 9, 7, 55
4, 1182, Control_c, 9, 7, 55
4, 1183, Control_c, 9, 7, 55
4, 1184, Control_c, 9, 7, 55
4, 1185, Control_c, 9, 7, 55
4, 1186, Control_c, 9, 7, 55
4, 1187, Control_c, 9, 7, 55
4, 1188, Control_c, 9, 7, 55
4, 1189, Control_c, 9, 7, 55
4, 1190, Control_c, 9, 7, 55
4, 1191, Control_c, 9, 7, 55
4, 1192, Control_c, 9, 7, 55
4, 1193, Control_c, 9, 7, 55
4, 1194, Control_c, 9, 7, 55
4, 1195, Control_c, 9, 7, 55
4, 1196, Control_c, 9, 7, 55
4, 1197, Control_c, 9, 7, 55
4, 1198, Control_c, 9, 7, 55
4, 1199, Control_c, 9, 7, 55
4, 1200, Note_off_c, 9, 36, 64
4, 1200, Note_on_c, 9, 42, 100
4, 1200, Control_c, 9, 7, 55
4, 1201, Control_c, 9, 7, 55
4, 1202, Control_c, 9, 7, 55
4, 1203, Control_c, 9, 7, 55
4, 1204, Control_c, 9, 7, 55
4, 1205, Control_c, 9, 7, 55
4, 1206, Control_c, 9, 7, 55
4, 1207, Control_c, 9, 7, 55
4, 1208, Control_c, 9, 7, 55
4, 1209, Control_c, 9, 7, 55
4, 1210, Control_c, 9, 7, 55
4, 1211, Control_c, 9, 7, 55
4, 1212, Control_c, 9, 7, 55
4, 1213, Control_c, 9, 7, 55
4, 1214, Control_c, 9, 7, 56
4, 1215, Control_c, 9, 7, 56
4, 1216, Control_c, 9, 7, 56
4, 1217, Control_c, 9, 7, 56
4, 1218, Control_c, 9, 7, 56
4, 1219, Control_c, 9, 7, 56
4, 1220, Control_c, 9, 7, 56
4, 1221, Control_c, 9, 7, 56
4, 1222, Control_c, 9, 7, 56
4, 1223, Control_c, 9, 7, 56
4, 1224, Note_off_c, 9, 42, 64
4, 1224, Control_c, 9, 7, 56
4, 1225, Control_c, 9, 7, 56
4, 1226, Control_c, 9, 7, 56
4, 1227, Control_c, 9, 7, 56
4, 1228, Control_c, 9, 7, 56
4, 1229, Control_c, 9, 7, 56
4, 1230, Control_c, 9, 7, 56
4, 1231, Control_c, 9, 7, 56
4, 1232, Control_c, 9, 7, 56
4, 1233, Control_c, 9, 7, 56
4, 1234, Control_c, 9, 7, 56
4, 1235, Control_c, 9, 7, 56
4, 1236, Control_c, 9, 7, 56
4, 1237, Control_c, 9, 7, 56
4, 1238, Control_c, 9, 7, 56
4, 1239, Control_c, 9, 7, 56
4, 1240, Control_c, 9, 7, 56
4, 1241, Control_c, 9, 7, 56
4, 1242, Control_c, 9, 7, 56
4, 1243, Control_c, 9, 7, 56
4, 1244, Control_c, 9, 7, 56
4, 1245, Control_c, 9, 7, 56
4, 1246, Control_c, 9, 7, 56
4, 1247, Control_c, 9, 7, 56
4, 1248, Note_on_c, 9, 42, 100
4, 1248, Control_c, 9, 7, 56
4, 1249, Control_c, 9, 7, 56
4, 1250, Control_c, 9, 7, 56
4, 1251, Control_c, 9, 7, 56
4, 1252, Control_c, 9, 7, 56
4, 1253, Control_c, 9, 7, 56
4, 1254, Control_c, 9, 7, 56
4, 1255, Control_c, 9, 7, 56
4, 1256, Control_c, 9, 7, 56
4, 1257, Control_c, 9, 7, 56
4, 1258, Control_c, 9, 7, 56
4, 1259, Control_c, 9, 7, 56
4, 1260, Control_c, 9, 7, 57
4, 1261, Control_c, 9, 7, 57
4, 1262, Control_c, 9, 7, 57
4, 1263, Control_c, 9, 7, 57
4, 1264, Control_c, 9, 7, 57
4, 1265, Control_c, 9, 7, 57
4, 1266, Control_c, 9, 7, 57
4, 1267, Control_c, 9, 7, 57
4, 1268, Control_c, 9, 7, 57
4, 1269, Control_c, 9, 7, 57
4, 1270, Control_c, 9, 7, 57
4, 1271, Control_c, 9, 7, 57
4, 1272, Note_off_c, 9, 42, 64
4, 1272, Control_c, 9, 7, 57
4, 1273, Control_c, 9, 7, 57
4, 1274, Control_c, 9, 7, 57
4, 1275, Control_c, 9, 7, 57
4, 1276, Control_c, 9, 7, 57
4, 1277, Control_c, 9, 7, 57
4, 1278, Control_c, 9, 7, 57
4, 1279, Control_c, 9, 7, 57
4, 1280, Control_c, 9, 7, 57
4, 1281, Control_c, 9, 7, 57
4, 1282, Control_c, 9, 7, 57
4, 1283, Control_c, 9, 7, 57
4, 1284, Control_c, 9, 7, 57
4, 1285, Control_c, 9, 7, 57
4, 1286, Control_c, 9, 7, 57
4, 1287, Control_c, 9, 7, 57
4, 1288, Control_c, 9, 7, 57
4, 1289, Control_c, 9, 7, 57
4, 1290, Control_c, 9, 7, 57
4, 1291, Control_c, 9, 7, 57
4, 1292, Control_c, 9, 7, 57
4, 1293, Control_c, 9, 7, 57
4, 1294, Control_c, 9, 7, 57
4, 1295, Control_c, 9, 7, 57
4, 1296, Note_on_c, 9, 46, 100
4, 1296, Note_on_c, 9, 38, 127
4, 1296, Control_c, 9, 7, 57
4, 1297, Control_c, 9, 7, 57
4, 1298, Control_c, 9, 7, 57
4, 1299, Control_c, 9, 7, 57
4, 1300, Control_c, 9, 7, 57
4, 1301, Control_c, 9, 7, 57
4, 1302, Control_c, 9, 7, 57
4, 1303, Control_c, 9, 7, 57
4, 1304, Control_c, 9, 7, 57
4, 1305, Control_c, 9, 7, 57
4, 1306, Control_c, 9, 7, 58
4, 1307, Control_c, 9, 7, 58
4, 1308, Control_c, 9, 7, 58
4, 1309, Control_c, 9, 7, 58
4, 1310, Control_c, 9, 7, 58
4, 1311, Control_c, 9, 7, 58
4, 1312, Control_c, 9, 7, 58
4, 1313, Control_c, 9, 7, 58
4, 1314, Control_c, 9, 7, 58
4, 1315, Control_c, 9, 7, 58
4, 1316, Control_c, 9, 7, 58
4, 1317, Control_c, 9, 7, 58
4, 1318, Control_c, 9, 7, 58
4, 1319, Control_c, 9, 7, 58
4, 1320, Note_off_c, 9, 46, 64
4, 1320, Control_c, 9, 7, 58
4, 1321, Control_c, 9, 7, 58
4, 1322, Control_c, 9, 7, 58
4, 1323, Control_c, 9, 7, 58
4, 1324, Control_c, 9, 7, 58
4, 1325, Control_c, 9, 7, 58
4, 1326, Control_c, 9, 7, 58
4, 1327, Control_c, 9, 7, 58
4, 1328, Control_c, 9, 7, 58
4, 1329, Control_c, 9, 7, 58
4, 1330, Control_c, 9, 7, 58
4, 1331, Control_c, 9, 7, 58
4, 1332, Control_c, 9, 7, 58
4, 1333, Control_c, 9, 7, 58
4, 1334, Control_c, 9, 7, 58
4, 1335, Control_c, 9, 7, 58
4, 1336, Control_c, 9, 7, 58
4, 1337, Control_c, 9, 7, 58
4, 1338, Control_c, 9, 7, 58
4, 1339, Control_c, 9, 7, 58
4, 1340, Control_c, 9, 7, 58
4, 1341, Control_c, 9, 7, 58
4, 1342, Control_c, 9, 7, 58
4, 1343, Control_c, 9, 7, 58
4, 1344, Note_off_c, 9, 38, 64
4, 1344, Note_on_c, 9, 44, 100
4, 1344, Control_c, 9, 7, 58
4, 1345, Control_c, 9, 7, 58
4, 1346, Control_c, 9, 7, 58
4, 1347, Control_c, 9, 7, 58
4, 1348, Control_c, 9, 7, 58
4, 1349, Control_c, 9, 7, 58
4, 1350, Control_c, 9, 7, 58
4, 1351, Control_c, 9, 7, 59
4, 1352, Control_c, 9, 7, 59
4, 1353, Control_c, 9, 7, 59
4, 1354, Control_c, 9, 7, 59
4, 1355, Control_c, 9, 7, 59
4, 1356, Control_c, 9, 7, 59
4, 1357, Control_c, 9, 7, 59
4, 1358, Control_c, 9, 7, 59
4, 1359, Control_c, 9, 7, 59
4, 1360, Control_c, 9, 7, 59
4, 1361, Control_c, 9, 7, 59
4, 1362, Control_c, 9, 7, 59
4, 1363, Control_c, 9, 7, 59
4, 1364, Control_c, 9, 7, 59
4, 1365, Control_c, 9, 7, 59
4, 1366, Control_c, 9, 7, 59
4, 1367, Control_c, 9, 7, 59
4, 1368, Note_off_c, 9, 44, 64
4, 1368, Control_c, 9, 7, 59
4, 1369, Control_c, 9, 7, 59
4, 1370, Control_c, 9, 7, 59
4, 1371, Control_c, 9, 7, 59
4, 1372, Control_c, 9, 7, 59
4, 1373, Control_c, 9, 7, 59
4, 1374, Control_c, 9, 7, 59
4, 1375, Control_c, 9, 7, 59
4, 1376, Control_c, 9, 7, 59
4, 1377, Control_c, 9, 7, 59
4, 1378, Control_c, 9, 7, 59
4, 1379, Control_c, 9, 7, 59
4, 1380, Control_c, 9, 7, 59
4, 1381, Control_c, 9, 7, 59
4, 1382, Control_c, 9, 7, 59
4, 1383, Control_c, 9, 7, 59
4, 1384, Control_c, 9, 7, 59
4, 1385, Control_c, 9, 7, 59
4, 1386, Control_c, 9, 7, 59
4, 1387, Control_c, 9, 7, 59
4, 1388, Control_c, 9, 7, 59
4, 1389, Control_c, 9, 7, 59
4, 1390, Control_c, 9, 7, 59
4, 1391, Control_c, 9, 7, 59
4, 1392, Note_on_c, 9, 42, 100
4, 1392, Control_c, 9, 7, 59
4, 1393, Control_c, 9, 7, 59
4, 1394, Control_c, 9, 7, 59
4, 1395, Control_c, 9, 7, 59
4, 1396, Control_c, 9, 7, 59
4, 1397, Control_c, 9, 7, 60
4, 1398, Control_c, 9, 7, 60
4, 1399, Control_c, 9, 7, 60
4, 1400, Control_c, 9, 7, 60
4, 1401, Control_c, 9, 7, 60
4, 1402, Control_c, 9, 7, 60
4, 1403, Control_c, 9, 7, 60
4, 1404, Control_c, 9, 7, 60
4, 1405, Control_c, 9, 7, 60
4, 1406, Control_c, 9, 7, 60
4, 1407, Control_c, 9, 7, 60
4, 1408, Control_c, 9, 7, 60
4, 1409, Control_c, 9, 7, 60
4, 1410, Control_c, 9, 7, 60
4, 1411, Control_c, 9, 7, 60
4, 1412, Control_c, 9, 7, 60
4, 1413, Control_c, 9, 7, 60
4, 1414, Control_c, 9, 7, 60
4, 1415, Control_c, 9, 7, 60
4, 1416, Note_off_c, 9, 42, 64
4, 1416, Control_c, 9, 7, 60
4, 1417, Control_c, 9, 7, 60
4, 1418, Control_c, 9, 7, 60
4, 1419, Control_c, 9, 7, 60
4, 1420, Control_c, 9, 7, 60
4, 1421, Control_c, 9, 7, 60
4, 1422, Control_c, 9, 7, 60
4, 1423, Control_c, 9, 7, 60
4, 1424, Control_c, 9, 7, 60
4, 1425, Control_c, 9, 7, 60
4, 1426, Control_c, 9, 7, 60
4, 1427, Control_c, 9, 7, 60
4, 1428, Control_c, 9, 7, 60
4, 1429, Control_c, 9, 7, 60
4, 1430, Control_c, 9, 7, 60
4, 1431, Control_c, 9, 7, 60
4, 1432, Control_c, 9, 7, 60
4, 1433, Control_c, 9, 7, 60
4, 1434, Control_c, 9, 7, 60
4, 1435, Control_c, 9, 7, 60
4, 1436, Control_c, 9, 7, 60
4, 1437, Control_c, 9, 7, 60
4, 1438, Control_c, 9, 7, 60
4, 1439, Control_c, 9, 7, 60
4, 1440, Note_on_c, 9, 42, 100
4, 1440, Note_on_c, 9, 36, 127
4, 1440, Control_c, 9, 7, 60
4, 1441, Control_c, 9, 7, 60
4, 1442, Control_c, 9, 7, 61
4, 1443, Control_c, 9, 7, 61
4, 1444, Control_c, 9, 7, 61
4, 1445, Control_c, 9, 7, 61
4, 1446, Control_c, 9, 7, 61
4, 1447, Control_c, 9, 7, 61
4, 1448, Control_c, 9, 7, 61
4, 1449, Control_c, 9, 7, 61
4, 1450, Control_c, 9, 7, 61
4, 1451, Control_c, 9, 7, 61
4, 1452, Control_c, 9, 7, 61
4, 1453, Control_c, 9, 7, 61
4, 1454, Control_c, 9, 7, 61
4, 1455, Control_c, 9, 7, 61
4, 1456, Control_c, 9, 7, 61
4, 1457, Control_c, 9, 7, 61
4, 1458, Control_c, 9, 7, 61
4, 1459, Control_c, 9, 7, 61
4, 1460, Control_c, 9, 7, 61
4, 1461, Control_c, 9, 7, 61
4, 1462, Control_c, 9, 7, 61
4, 1463, Control_c, 9, 7, 61
4, 1464, Note_off_c, 9, 42, 64
4, 1464, Control_c, 9, 7, 61
4, 1465, Control_c, 9, 7, 61
4, 1466, Control_c, 9, 7, 61
4, 1467, Control_c, 9, 7, 61
4, 1468, Control_c, 9, 7, 61
4, 1469, Control_c, 9, 7, 61
4, 1470, Control_c, 9, 7, 61
4, 1471, Control_c, 9, 7, 61
4, 1472, Control_c, 9, 7, 61
4, 1473, Control_c, 9, 7, 61
4, 1474, Control_c, 9, 7, 61
4, 1475, Control_c, 9, 7, 61
4, 1476, Control_c, 9, 7, 61
4, 1477, Control_c, 9, 7, 61
4, 1478, Control_c, 9, 7, 61
4, 1479, Control_c, 9, 7, 61
4, 1480, Control_c, 9, 7, 61
4, 1481, Control_c, 9, 7, 61
4, 1482, Control_c, 9, 7, 61
4, 1483, Control_c, 9, 7, 61
4, 1484, Control_c, 9, 7, 61
4, 1485, Control_c, 9, 7, 61
4, 1486, Control_c, 9, 7, 61
4, 1487, Control_c, 9, 7, 62
4, 1488, Note_off_c, 9, 36, 64
4, 1488, Note_on_c, 9, 42, 100
4, 1488, Note_on_c, 9, 38, 127
4, 1488, Control_c, 9, 7, 62
4, 1489, Control_c, 9, 7, 62
4, 1490, Control_c, 9, 7, 62
4, 1491, Control_c, 9, 7, 62
4, 1492, Control_c, 9, 7, 62
4, 1493, Control_c, 9, 7, 62
4, 1494, Control_c, 9, 7, 62
4, 1495, Control_c, 9, 7, 62
4, 1496, Control_c, 9, 7, 62
4, 1497, Control_c, 9, 7, 62
4, 1498, Control_c, 9, 7, 62
4, 1499, Control_c, 9, 7, 62
4, 1500, Control_c, 9, 7, 62
4, 1501, Control_c, 9, 7, 62
4, 1502, Control_c, 9, 7, 62
4, 1503, Control_c, 9, 7, 62
4, 1504, Control_c, 9, 7, 62
4, 1505, Control_c, 9, 7, 62
4, 1506, Control_c, 9, 7, 62
4, 1507, Control_c, 9, 7, 62
4, 1508, Control_c, 9, 7, 62
4, 1509, Control_c, 9, 7, 62
4, 1510, Control_c, 9, 7, 62
4, 1511, Control_c, 9, 7, 62
4, 1512, Note_off_c, 9, 42, 64
4, 1512, Control_c, 9, 7, 62
4, 1513, Control_c, 9, 7, 62
4, 1514, Control_c, 9, 7, 62
4, 1515, Control_c, 9, 7, 62
4, 1516, Control_c, 9, 7, 62
4, 1517, Control_c, 9, 7, 62
4, 1518, Control_c, 9, 7, 62
4, 1519, Control_c, 9, 7, 62
4, 1520, Control_c, 9, 7, 62
4, 1521, Control_c, 9, 7, 62
4, 1522, Control_c, 9, 7, 62
4, 1523, Control_c, 9, 7, 62
4, 1524, Control_c, 9, 7, 62
4, 1525, Control_c, 9, 7, 62
4, 1526, Control_c, 9, 7, 62
4, 1527, Control_c, 9, 7, 62
4, 1528, Control_c, 9, 7, 62
4, 1529, Control_c, 9, 7, 62
4, 1530, Control_c, 9, 7, 62
4, 1531, Control_c, 9, 7, 62
4, 1532, Control_c, 9, 7, 63
4, 1533, Control_c, 9, 7, 63
4, 1534, Control_c, 9, 7, 63
4, 1535, Control_c, 9, 7, 63
4, 1536, Note_off_c, 9, 38, 64
4, 1536, Note_on_c, 9, 46, 100
4, 1536, Note_on_c, 9, 36, 127
4, 1536, Control_c, 9, 7, 63
4, 1537, Control_c, 9, 7, 63
4, 1538, Control_c, 9, 7, 63
4, 1539, Control_c, 9, 7, 63
4, 1540, Control_c, 9, 7, 63
4, 1541, Control_c, 9, 7, 63
4, 1542, Control_c, 9, 7, 63
4, 1543, Control_c, 9, 7, 63
4, 1544, Control_c, 9, 7, 63
4, 1545, Control_c, 9, 7, 63
4, 1546, Control_c, 9, 7, 63
4, 1547, Control_c, 9, 7, 63
4, 1548, Control_c, 9, 7, 63
4, 1549, Control_c, 9, 7, 63
4, 1550, Control_c, 9, 7, 63
4, 1551, Control_c, 9, 7, 63
4, 1552, Control_c, 9, 7, 63
4, 1553, Control_c, 9, 7, 63
4, 1554, Control_c, 9, 7, 63
4, 1555, Control_c, 9, 7, 63
4, 1556, Control_c, 9, 7, 63
4, 1557, Control_c, 9, 7, 63
4, 1558, Control_c, 9, 7, 63
4, 1559, Control_c, 9, 7, 63
4, 1560, Note_off_c, 9, 46, 64
4, 1560, Control_c, 9, 7, 63
4, 1561, Control_c, 9, 7, 63
4, 1562, Control_c, 9, 7, 63
4, 1563, Control_c, 9, 7, 63
4, 1564, Control_c, 9, 7, 63
4, 1565, Control_c, 9, 7, 63
4, 1566, Control_c, 9, 7, 63
4, 1567, Control_c, 9, 7, 63
4, 1568, Control_c, 9, 7, 63
4, 1569, Control_c, 9, 7, 63
4, 1570, Control_c, 9, 7, 63
4, 1571, Control_c, 9, 7, 63
4, 1572, Control_c, 9, 7, 63
4, 1573, Control_c, 9, 7, 63
4, 1574, Control_c, 9, 7, 63
4, 1575, Control_c, 9, 7, 63
4, 1576, Control_c, 9, 7, 63
4, 1577, Control_c, 9, 7, 64
4, 1578, Control_c, 9, 7, 64
4, 1579, Control_c, 9, 7, 64
4, 1580, Control_c, 9, 7, 64
4, 1581, Control_c, 9, 7, 64
4, 1582, Control_c, 9, 7, 64
4, 1583, Control_c, 9, 7, 64
4, 1584, Note_off_c, 9, 36, 64
4, 1584, Control_c, 9, 7, 64
4, 1585, Control_c, 9, 7, 64
4, 1586, Control_c, 9, 7, 64
4, 1587, Control_c, 9, 7, 64
4, 1588, Control_c, 9, 7, 64
4, 1589, Control_c, 9, 7, 64
4, 1590, Control_c, 9, 7, 64
4, 1591, Control_c, 9, 7, 64
4, 1592, Control_c, 9, 7, 64
4, 1593, Control_c, 9, 7, 64
4, 1594, Control_c, 9, 7, 64
4, 1595, Control_c, 9, 7, 64
4, 1596, Control_c, 9, 7, 64
4, 1597, Control_c, 9, 7, 64
4, 1598, Control_c, 9, 7, 64
4, 1599, Control_c, 9, 7, 64
4, 1600, Control_c, 9, 7, 64
4, 1601, Control_c, 9, 7, 64
4, 1602, Control_c, 9, 7, 64
4, 1603, Control_c, 9, 7, 64
4, 1604, Control_c, 9, 7, 64
4, 1605, Control_c, 9, 7, 64
4, 1606, Control_c, 9, 7, 64
4, 1607, Control_c, 9, 7, 64
4, 1608, Control_c, 9, 7, 64
4, 1609, Control_c, 9, 7, 64
4, 1610, Control_c, 9, 7, 64
4, 1611, Control_c, 9, 7, 64
4, 1612, Control_c, 9, 7, 64
4, 1613, Control_c, 9, 7, 64
4, 1614, Control_c, 9, 7, 64
4, 1615, Control_c, 9, 7, 64
4, 1616, Control_c, 9, 7, 64
4, 1617, Control_c, 9, 7, 64
4, 1618, Control_c, 9, 7, 64
4, 1619, Control_c, 9, 7, 64
4, 1620, Control_c, 9, 7, 64
4, 1621, Control_c, 9, 7, 64
4, 1622, Control_c, 9, 7, 65
4, 1623, Control_c, 9, 7, 65
4, 1624, Control_c, 9, 7, 65
4, 1625, Control_c, 9, 7, 65
4, 1626, Control_c, 9, 7, 65
4, 1627, Control_c, 9, 7, 65
4, 1628, Control_c, 9, 7, 65
4, 1629, Control_c, 9, 7, 65
4, 1630, Control_c, 9, 7, 65
4, 1631, Control_c, 9, 7, 65
4, 1632, Note_on_c, 9, 44, 100
4, 1632, Control_c, 9, 7, 65
4, 1633, Control_c, 9, 7, 65
4, 1634, Control_c, 9, 7, 65
4, 1635, Control_c, 9, 7, 65
4, 1636, Control_c, 9, 7, 65
4, 1637, Control_c, 9, 7, 65
4, 1638, Control_c, 9, 7, 65
4, 1639, Control_c, 9, 7, 65
4, 1640, Control_c, 9, 7, 65
4, 1641, Control_c, 9, 7, 65
4, 1642, Control_c, 9, 7, 65
4, 1643, Control_c, 9, 7, 65
4, 1644, Control_c, 9, 7, 65
4, 1645, Control_c, 9, 7, 65
4, 1646, Control_c, 9, 7, 65
4, 1647, Control_c, 9, 7, 65
4, 1648, Control_c, 9, 7, 65
4, 1649, Control_c, 9, 7, 65
4, 1650, Control_c, 9, 7, 65
4, 1651, Control_c, 9, 7, 65
4, 1652, Control_c, 9, 7, 65
4, 1653, Control_c, 9, 7, 65
4, 1654, Control_c, 9, 7, 65
4, 1655, Control_c, 9, 7, 65
4, 1656, Note_off_c, 9, 44, 64
4, 1656, Control_c, 9, 7, 65
4, 1657, Control_c, 9, 7, 65
4, 1658, Control_c, 9, 7, 65
4, 1659, Control_c, 9, 7, 65
4, 1660, Control_c, 9, 7, 65
4, 1661, Control_c, 9, 7, 65
4, 1662, Control_c, 9, 7, 65
4, 1663, Control_c, 9, 7, 65
4, 1664, Control_c, 9, 7, 65
4, 1665, Control_c, 9, 7, 65
4, 1666, Control_c, 9, 7, 65
4, 1667, Control_c, 9, 7, 66
4, 1668, Control_c, 9, 7, 66
4, 1669, Control_c, 9, 7, 66
4, 1670, Control_c, 9, 7, 66
4, 1671, Control_c, 9, 7, 66
4, 1672, Control_c, 9, 7, 66
4, 1673, Control_c, 9, 7, 66
4, 1674, Control_c, 9, 7, 66
4, 1675, Control_c, 9, 7, 66
4, 1676, Control_c, 9, 7, 66
4, 1677, Control_c, 9, 7, 66
4, 1678, Control_c, 9, 7, 66
4, 1679, Control_c, 9, 7, 66
4, 1680, Note_on_c, 9, 42, 100
4, 1680, Note_on_c, 9, 36, 127
4, 1680, Control_c, 9, 7, 66
4, 1681, Control_c, 9, 7, 66
4, 1682, Control_c, 9, 7, 66
4, 1683, Control_c, 9, 7, 66
4, 1684, Control_c, 9, 7, 66
4, 1685, Control_c, 9, 7, 66
4, 1686, Control_c, 9, 7, 66
4, 1687, Control_c, 9, 7, 66
4, 1688, Control_c, 9, 7, 66
4, 1689, Control_c, 9, 7, 66
4, 1690, Control_c, 9, 7, 66
4, 1691, Control_c, 9, 7, 66
4, 1692, Control_c, 9, 7, 66
4, 1693, Control_c, 9, 7, 66
4, 1694, Control_c, 9, 7, 66
4, 1695, Control_c, 9, 7, 66
4, 1696, Control_c, 9, 7, 66
4, 1697, Control_c, 9, 7, 66
4, 1698, Control_c, 9, 7, 66
4, 1699, Control_c, 9, 7, 66
4, 1700, Control_c, 9, 7, 66
4, 1701, Control_c, 9, 7, 66
4, 1702, Control_c, 9, 7, 66
4, 1703, Control_c, 9, 7, 66
4, 1704, Note_off_c, 9, 42, 64
4, 1704, Control_c, 9, 7, 66
4, 1705, Control_c, 9, 7, 66
4, 1706, Control_c, 9, 7, 66
4, 1707, Control_c, 9, 7, 66
4, 1708, Control_c, 9, 7, 66
4, 1709, Control_c, 9, 7, 66
4, 1710, Control_c, 9, 7, 66
4, 1711, Control_c, 9, 7, 66
4, 1712, Control_c, 9, 7, 66
4, 1713, Control_c, 9, 7, 67
4, 1714, Control_c, 9, 7, 67
4, 1715, Control_c, 9, 7, 67
4, 1716, Control_c, 9, 7, 67
4, 1717, Control_c, 9, 7, 67
4, 1718, Control_c, 9, 7, 67
4, 1719, Control_c, 9, 7, 67
4, 1720, Control_c, 9, 7, 67
4, 1721, Control_c, 9, 7, 67
4, 1722, Control_c, 9, 7, 67
4, 1723, Control_c, 9, 7, 67
4, 1724, Control_c, 9, 7, 67
4, 1725, Control_c, 9, 7, 67
4, 1726, Control_c, 9, 7, 67
4, 1727, Control_c, 9, 7, 67
4, 1728, Note_off_c, 9, 36, 64
4, 1728, Note_on_c, 9, 42, 100
4, 1728, Note_on_c, 9, 38, 127
4, 1728, Control_c, 9, 7, 67
4, 1729, Control_c, 9, 7, 67
4, 1730, Control_c, 9, 7, 67
4, 1731, Control_c, 9, 7, 67
4, 1732, Control_c, 9, 7, 67
4, 1733, Control_c, 9, 7, 67
4, 1734, Control_c, 9, 7, 67
4, 1735, Control_c, 9, 7, 67
4, 1736, Control_c, 9, 7, 67
4, 1737, Control_c, 9, 7, 67
4, 1738, Control_c, 9, 7, 67
4, 1739, Control_c, 9, 7, 67
4, 1740, Control_c, 9, 7, 67
4, 1741, Control_c, 9, 7, 67
4, 1742, Control_c, 9, 7, 67
4, 1743, Control_c, 9, 7, 67
4, 1744, Control_c, 9, 7, 67
4, 1745, Control_c, 9, 7, 67
4, 1746, Control_c, 9, 7, 67
4, 1747, Control_c, 9, 7, 67
4, 1748, Control_c, 9, 7, 67
4, 1749, Control_c, 9, 7, 67
4, 1750, Control_c, 9, 7, 67
4, 1751, Control_c, 9, 7, 67
4, 1752, Note_off_c, 9, 42, 64
4, 1752, Control_c, 9, 7, 67
4, 1753, Control_c, 9, 7, 67
4, 1754, Control_c, 9, 7, 67
4, 1755, Control_c, 9, 7, 67
4, 1756, Control_c, 9, 7, 67
4, 1757, Control_c, 9, 7, 67
4, 1758, Control_c, 9, 7, 68
4, 1759, Control_c, 9, 7, 68
4, 1760, Control_c, 9, 7, 68
4, 1761, Control_c, 9, 7, 68
4, 1762, Control_c, 9, 7, 68
4, 1763, Control_c, 9, 7, 68
4, 1764, Control_c, 9, 7, 68
4, 1765, Control_c, 9, 7, 68
4, 1766, Control_c, 9, 7, 68
4, 1767, Control_c, 9, 7, 68
4, 1768, Control_c, 9, 7, 68
4, 1769, Control_c, 9, 7, 68
4, 1770, Control_c, 9, 7, 68
4, 1771, Control_c, 9, 7, 68
4, 1772, Control_c, 9, 7, 68
4, 1773, Control_c, 9, 7, 68
4, 1774, Control_c, 9, 7, 68
4, 1775, Control_c, 9, 7, 68
4, 1776, Note_off_c, 9, 38, 64
4, 1776, Note_on_c, 9, 42, 100
4, 1776, Control_c, 9, 7, 68
4, 1777, Control_c, 9, 7, 68
4, 1778, Control_c, 9, 7, 68
4, 1779, Control_c, 9, 7, 68
4, 1780, Control_c, 9, 7, 68
4, 1781, Control_c, 9, 7, 68
4, 1782, Control_c, 9, 7, 68
4, 1783, Control_c, 9, 7, 68
4, 1784, Control_c, 9, 7, 68
4, 1785, Control_c, 9, 7, 68
4, 1786, Control_c, 9, 7, 68
4, 1787, Control_c, 9, 7, 68
4, 1788, Control_c, 9, 7, 68
4, 1789, Control_c, 9, 7, 68
4, 1790, Control_c, 9, 7, 68
4, 1791, Control_c, 9, 7, 68
4, 1792, Control_c, 9, 7, 68
4, 1793, Control_c, 9, 7, 68
4, 1794, Control_c, 9, 7, 68
4, 1795, Control_c, 9, 7, 68
4, 1796, Control_c, 9, 7, 68
4, 1797, Control_c, 9, 7, 68
4, 1798, Control_c, 9, 7, 68
4, 1799, Control_c, 9, 7, 68
4, 1800, Note_off_c, 9, 42, 64
4, 1800, Control_c, 9, 7, 68
4, 1801, Control_c, 9, 7, 68
4, 1802, Control_c, 9, 7, 68
4, 1803, Control_c, 9, 7, 68
4, 1804, Control_c, 9, 7, 69
4, 1805, Control_c, 9, 7, 69
4, 1806, Control_c, 9, 7, 69
4, 1807, Control_c, 9, 7, 69
4, 1808, Control_c, 9, 7, 69
4, 1809, Control_c, 9, 7, 69
4, 1810, Control_c, 9, 7, 69
4, 1811, Control_c, 9, 7, 69
4, 1812, Control_c, 9, 7, 69
4, 1813, Control_c, 9, 7, 69
4, 1814, Control_c, 9, 7, 69
4, 1815, Control_c, 9, 7, 69
4, 1816, Control_c, 9, 7, 69
4, 1817, Control_c, 9, 7, 69
4, 1818, Control_c, 9, 7, 69
4, 1819, Control_c, 9, 7, 69
4, 1820, Control_c, 9, 7, 69
4, 1821, Control_c, 9, 7, 69
4, 1822, Control_c, 9, 7, 69
4, 1823, Control_c, 9, 7, 69
4, 1824, Note_on_c, 9, 42, 100
4, 1824, Note_on_c, 9, 36, 127
4, 1824, Control_c, 9, 7, 69
4, 1825, Control_c, 9, 7, 69
4, 1826, Control_c, 9, 7, 69
4, 1827, Control_c, 9, 7, 69
4, 1828, Control_c, 9, 7, 69
4, 1829, Control_c, 9, 7, 69
4, 1830, Control_c, 9, 7, 69
4, 1831, Control_c, 9, 7, 69
4, 1832, Control_c, 9, 7, 69
4, 1833, Control_c, 9, 7, 69
4, 1834, Control_c, 9, 7, 69
4, 1835, Control_c, 9, 7, 69
4, 1836, Control_c, 9, 7, 69
4, 1837, Control_c, 9, 7, 69
4, 1838, Control_c, 9, 7, 69
4, 1839, Control_c, 9, 7, 69
4, 1840, Control_c, 9, 7, 69
4, 1841, Control_c, 9, 7, 69
4, 1842, Control_c, 9, 7, 69
4, 1843, Control_c, 9, 7, 69
4, 1844, Control_c, 9, 7, 69
4, 1845, Control_c, 9, 7, 69
4, 1846, Control_c, 9, 7, 69
4, 1847, Control_c, 9, 7, 69
4, 1848, Note_off_c, 9, 42, 64
4, 1848, Control_c, 9, 7, 69
4, 1849, Control_c, 9, 7, 69
4, 1850, Control_c, 9, 7, 70
4, 1851, Control_c, 9, 7, 70
4, 1852, Control_c, 9, 7, 70
4, 1853, Control_c, 9, 7, 70
4, 1854, Control_c, 9, 7, 70
4, 1855, Control_c, 9, 7, 70
4, 1856, Control_c, 9, 7, 70
4, 1857, Control_c, 9, 7, 70
4, 1858, Control_c, 9, 7, 70
4, 1859, Control_c, 9, 7, 70
4, 1860, Control_c, 9, 7, 70
4, 1861, Control_c, 9, 7, 70
4, 1862, Control_c, 9, 7, 70
4, 1863, Control_c, 9, 7, 70
4, 1864, Control_c, 9, 7, 70
4, 1865, Control_c, 9, 7, 70
4, 1866, Control_c, 9, 7, 70
4, 1867, Control_c, 9, 7, 70
4, 1868, Control_c, 9, 7, 70
4, 1869, Control_c, 9, 7, 70
4, 1870, Control_c, 9, 7, 70
4, 1871, Control_c, 9, 7, 70
4, 1872, Note_off_c, 9, 36, 64
4, 1872, Note_on_c, 9, 42, 100
4, 1872, Control_c, 9, 7, 70
4, 1873, Control_c, 9, 7, 70
4, 1874, Control_c, 9, 7, 70
4, 1875, Control_c, 9, 7, 70
4, 1876, Control_c, 9, 7, 70
4, 1877, Control_c, 9, 7, 70
4, 1878, Control_c, 9, 7, 70
4, 1879, Control_c, 9, 7, 70
4, 1880, Control_c, 9, 7, 70
4, 1881, Control_c, 9, 7, 70
4, 1882, Control_c, 9, 7, 70
4, 1883, Control_c, 9, 7, 70
4, 1884, Control_c, 9, 7, 70
4, 1885, Control_c, 9, 7, 70
4, 1886, Control_c, 9, 7, 70
4, 1887, Control_c, 9, 7, 70
4, 1888, Control_c, 9, 7, 70
4, 1889, Control_c, 9, 7, 70
4, 1890, Control_c, 9, 7, 70
4, 1891, Control_c, 9, 7, 70
4, 1892, Control_c, 9, 7, 70
4, 1893, Control_c, 9, 7, 70
4, 1894, Control_c, 9, 7, 70
4, 1895, Control_c, 9, 7, 70
4, 1896, Note_off_c, 9, 42, 64
4, 1896, Control_c, 9, 7, 70
4, 1897, Control_c, 9, 7, 71
4, 1898, Control_c, 9, 7, 71
4, 1899, Control_c, 9, 7, 71
4, 1900, Control_c, 9, 7, 71
4, 1901, Control_c, 9, 7, 71
4, 1902, Control_c, 9, 7, 71
4, 1903, Control_c, 9, 7, 71
4, 1904, Control_c, 9, 7, 71
4, 1905, Control_c, 9, 7, 71
4, 1906, Control_c, 9, 7, 71
4, 1907, Control_c, 9, 7, 71
4, 1908, Control_c, 9, 7, 71
4, 1909, Control_c, 9, 7, 71
4, 1910, Control_c, 9, 7, 71
4, 1911, Control_c, 9, 7, 71
4, 1912, Control_c, 9, 7, 71
4, 1913, Control_c, 9, 7, 71
4, 1914, Control_c, 9, 7, 71
4, 1915, Control_c, 9, 7, 71
4, 1916, Control_c, 9, 7, 71
4, 1917, Control_c, 9, 7, 71
4, 1918, Control_c, 9, 7, 71
4, 1919, Control_c, 9, 7, 71
4, 1920, Note_on_c, 9, 42, 100
4, 1920, Note_on_c, 9, 36, 127
4, 1920, Control_c, 9, 7, 71
4, 1921, Control_c, 9, 7, 71
4, 1922, Control_c, 9, 7, 71
4, 1923, Control_c, 9, 7, 71
4, 1924, Control_c, 9, 7, 71
4, 1925, Control_c, 9, 7, 71
4, 1926, Control_c, 9, 7, 71
4, 1927, Control_c, 9, 7, 71
4, 1928, Control_c, 9, 7, 71
4, 1929, Control_c, 9, 7, 71
4, 1930, Control_c, 9, 7, 71
4, 1931, Control_c, 9, 7, 71
4, 1932, Control_c, 9, 7, 71
4, 1933, Control_c, 9, 7, 71
4, 1934, Control_c, 9, 7, 71
4, 1935, Control_c, 9, 7, 71
4, 1936, Control_c, 9, 7, 71
4, 1937, Control_c, 9, 7, 71
4, 1938, Control_c, 9, 7, 71
4, 1939, Control_c, 9, 7, 71
4, 1940, Control_c, 9, 7, 71
4, 1941, Control_c, 9, 7, 71
4, 1942, Control_c, 9, 7, 71
4, 1943, Control_c, 9, 7, 71
4, 1944, Note_off_c, 9, 42, 64
4, 1944, Control_c, 9, 7, 72
4, 1945, Control_c, 9, 7, 72
4, 1946, Control_c, 9, 7, 72
4, 1947, Control_c, 9, 7, 72
4, 1948, Control_c, 9, 7, 72
4, 1949, Control_c, 9, 7, 72
4, 1950, Control_c, 9, 7, 72
4, 1951, Control_c, 9, 7, 72
4, 1952, Control_c, 9, 7, 72
4, 1953, Control_c, 9, 7, 72
4, 1954, Control_c, 9, 7, 72
4, 1955, Control_c, 9, 7, 72
4, 1956, Control_c, 9, 7, 72
4, 1957, Control_c, 9, 7, 72
4, 1958, Control_c, 9, 7, 72
4, 1959, Control_c, 9, 7, 72
4, 1960, Control_c, 9, 7, 72
4, 1961, Control_c, 9, 7, 72
4, 1962, Control_c, 9, 7, 72
4, 1963, Control_c, 9, 7, 72
4, 1964, Control_c, 9, 7, 72
4, 1965, Control_c, 9, 7, 72
4, 1966, Control_c, 9, 7, 72
4, 1967, Control_c, 9, 7, 72
4, 1968, Note_off_c, 9, 36, 64
4, 1968, Control_c, 9, 7, 72
4, 1969, Control_c, 9, 7, 72
4, 1970, Control_c, 9, 7, 72
4, 1971, Control_c, 9, 7, 72
4, 1972, Control_c, 9, 7, 72
4, 1973, Control_c, 9, 7, 72
4, 1974, Control_c, 9, 7, 72
4, 1975, Control_c, 9, 7, 72
4, 1976, Control_c, 9, 7, 72
4, 1977, Control_c, 9, 7, 72
4, 1978, Control_c, 9, 7, 72
4, 1979, Control_c, 9, 7, 72
4, 1980, Control_c, 9, 7, 72
4, 1981, Control_c, 9, 7, 72
4, 1982, Control_c, 9, 7, 72
4, 1983, Control_c, 9, 7, 72
4, 1984, Control_c, 9, 7, 72
4, 1985, Control_c, 9, 7, 72
4, 1986, Control_c, 9, 7, 72
4, 1987, Control_c, 9, 7, 72
4, 1988, Control_c, 9, 7, 72
4, 1989, Control_c, 9, 7, 72
4, 1990, Control_c, 9, 7, 72
4, 1991, Control_c, 9, 7, 72
4, 1992, Control_c, 9, 7, 73
4, 1993, Control_c, 9, 7, 73
4, 1994, Control_c, 9, 7, 73
4, 1995, Control_c, 9, 7, 73
4, 1996, Control_c, 9, 7, 73
4, 1997, Control_c, 9, 7, 73
4, 1998, Control_c, 9, 7, 73
4, 1999, Control_c, 9, 7, 73
4, 2000, Control_c, 9, 7, 73
4, 2001, Control_c, 9, 7, 73
4, 2002, Control_c, 9, 7, 73
4, 2003, Control_c, 9, 7, 73
4, 2004, Control_c, 9, 7, 73
4, 2005, Control_c, 9, 7, 73
4, 2006, Control_c, 9, 7, 73
4, 2007, Control_c, 9, 7, 73
4, 2008, Control_c, 9, 7, 73
4, 2009, Control_c, 9, 7, 73
4, 2010, Control_c, 9, 7, 73
4, 2011, Control_c, 9, 7, 73
4, 2012, Control_c, 9, 7, 73
4, 2013, Control_c, 9, 7, 73
4, 2014, Control_c, 9, 7, 73
4, 2015, Control_c, 9, 7, 73
4, 2016, Note_on_c, 9, 42, 100
4, 2016, Control_c, 9, 7, 73
4, 2017, Control_c, 9, 7, 73
4, 2018, Control_c, 9, 7, 73
4, 2019, Control_c, 9, 7, 73
4, 2020, Control_c, 9, 7, 73
4, 2021, Control_c, 9, 7, 73
4, 2022, Control_c, 9, 7, 73
4, 2023, Control_c, 9, 7, 73
4, 2024, Control_c, 9, 7, 73
4, 2025, Control_c, 9, 7, 73
4, 2026, Control_c, 9, 7, 73
4, 2027, Control_c, 9, 7, 73
4, 2028, Control_c, 9, 7, 73
4, 2029, Control_c, 9, 7, 73
4, 2030, Control_c, 9, 7, 73
4, 2031, Control_c, 9, 7, 73
4, 2032, Control_c, 9, 7, 73
4, 2033, Control_c, 9, 7, 73
4, 2034, Control_c, 9, 7, 73
4, 2035, Control_c, 9, 7, 73
4, 2036, Control_c, 9, 7, 73
4, 2037, Control_c, 9, 7, 73
4, 2038, Control_c, 9, 7, 73
4, 2039, Control_c, 9, 7, 73
4, 2040, Note_off_c, 9, 42, 64
4, 2040, Control_c, 9, 7, 74
4, 2041, Control_c, 9, 7, 74
4, 2042, Control_c, 9, 7, 74
4, 2043, Control_c, 9, 7, 74
4, 2044, Control_c, 9, 7, 74
4, 2045, Control_c, 9, 7, 74
4, 2046, Control_c, 9, 7, 74
4, 2047, Control_c, 9, 7, 74
4, 2048, Control_c, 9, 7, 74
4, 2049, Control_c, 9, 7, 74
4, 2050, Control_c, 9, 7, 74
4, 2051, Control_c, 9, 7, 74
4, 2052, Control_c, 9, 7, 74
4, 2053, Control_c, 9, 7, 74
4, 2054, Control_c, 9, 7, 74
4, 2055, Control_c, 9, 7, 74
4, 2056, Control_c, 9, 7, 74
4, 2057, Control_c, 9, 7, 74
4, 2058, Control_c, 9, 7, 74
4, 2059, Control_c, 9, 7, 74
4, 2060, Control_c, 9, 7, 74
4, 2061, Control_c, 9, 7, 74
4, 2062, Control_c, 9, 7, 74
4, 2063, Control_c, 9, 7, 74
4, 2064, Note_on_c, 9, 42, 100
4, 2064, Note_on_c, 9, 38, 127
4, 2064, Control_c, 9, 7, 74
4, 2065, Control_c, 9, 7, 74
4, 2066, Control_c, 9, 7, 74
4, 2067, Control_c, 9, 7, 74
4, 2068, Control_c, 9, 7, 74
4, 2069, Control_c, 9, 7, 74
4, 2070, Control_c, 9, 7, 74
4, 2071, Control_c, 9, 7, 74
4, 2072, Control_c, 9, 7, 74
4, 2073, Control_c, 9, 7, 74
4, 2074, Control_c, 9, 7, 74
4, 2075, Control_c, 9, 7, 74
4, 2076, Control_c, 9, 7, 74
4, 2077, Control_c, 9, 7, 74
4, 2078, Control_c, 9, 7, 74
4, 2079, Control_c, 9, 7, 74
4, 2080, Control_c, 9, 7, 74
4, 2081, Control_c, 9, 7, 74
4, 2082, Control_c, 9, 7, 74
4, 2083, Control_c, 9, 7, 74
4, 2084, Control_c, 9, 7, 74
4, 2085, Control_c, 9, 7, 74
4, 2086, Control_c, 9, 7, 74
4, 2087, Control_c, 9, 7, 74
4, 2088, Note_off_c, 9, 42, 64
4, 2088, Control_c, 9, 7, 74
4, 2089, Control_c, 9, 7, 75
4, 2090, Control_c, 9, 7, 75
4, 2091, Control_c, 9, 7, 75
4, 2092, Control_c, 9, 7, 75
4, 2093, Control_c, 9, 7, 75
4, 2094, Control_c, 9, 7, 75
4, 2095, Control_c, 9, 7, 75
4, 2096, Control_c, 9, 7, 75
4, 2097, Control_c, 9, 7, 75
4, 2098, Control_c, 9, 7, 75
4, 2099, Control_c, 9, 7, 75
4, 2100, Control_c, 9, 7, 75
4, 2101, Control_c, 9, 7, 75
4, 2102, Control_c, 9, 7, 75
4, 2103, Control_c, 9, 7, 75
4, 2104, Control_c, 9, 7, 75
4, 2105, Control_c, 9, 7, 75
4, 2106, Control_c, 9, 7, 75
4, 2107, Control_c, 9, 7, 75
4, 2108, Control_c, 9, 7, 75
4, 2109, Control_c, 9, 7, 75
4, 2110, Control_c, 9, 7, 75
4, 2111, Control_c, 9, 7, 75
4, 2112, Note_off_c, 9, 38, 64
4, 2112, Control_c, 9, 7, 75
4, 2113, Control_c, 9, 7, 75
4, 2114, Control_c, 9, 7, 75
4, 2115, Control_c, 9, 7, 75
4, 2116, Control_c, 9, 7, 75
4, 2117, Control_c, 9, 7, 75
4, 2118, Control_c, 9, 7, 75
4, 2119, Control_c, 9, 7, 75
4, 2120, Control_c, 9, 7, 75
4, 2121, Control_c, 9, 7, 75
4, 2122, Control_c, 9, 7, 75
4, 2123, Control_c, 9, 7, 75
4, 2124, Control_c, 9, 7, 75
4, 2125, Control_c, 9, 7, 75
4, 2126, Control_c, 9, 7, 75
4, 2127, Control_c, 9, 7, 75
4, 2128, Control_c, 9, 7, 75
4, 2129, Control_c, 9, 7, 75
4, 2130, Control_c, 9, 7, 75
4, 2131, Control_c, 9, 7, 75
4, 2132, Control_c, 9, 7, 75
4, 2133, Control_c, 9, 7, 75
4, 2134, Control_c, 9, 7, 75
4, 2135, Control_c, 9, 7, 75
4, 2136, Control_c, 9, 7, 75
4, 2137, Control_c, 9, 7, 75
4, 2138, Control_c, 9, 7, 75
4, 2139, Control_c, 9, 7, 76
4, 2140, Control_c, 9, 7, 76
4, 2141, Control_c, 9, 7, 76
4, 2142, Control_c, 9, 7, 76
4, 2143, Control_c, 9, 7, 76
4, 2144, Control_c, 9, 7, 76
4, 2145, Control_c, 9, 7, 76
4, 2146, Control_c, 9, 7, 76
4, 2147, Control_c, 9, 7, 76
4, 2148, Control_c, 9, 7, 76
4, 2149, Control_c, 9, 7, 76
4, 2150, Control_c, 9, 7, 76
4, 2151, Control_c, 9, 7, 76
4, 2152, Control_c, 9, 7, 76
4, 2153, Control_c, 9, 7, 76
4, 2154, Control_c, 9, 7, 76
4, 2155, Control_c, 9, 7, 76
4, 2156, Control_c, 9, 7, 76
4, 2157, Control_c, 9, 7, 76
4, 2158, Control_c, 9, 7, 76
4, 2159, Control_c, 9, 7, 76
4, 2160, Note_on_c, 9, 38, 127
4, 2160, Control_c, 9, 7, 76
4, 2161, Control_c, 9, 7, 76
4, 2162, Control_c, 9, 7, 76
4, 2163, Control_c, 9, 7, 76
4, 2164, Control_c, 9, 7, 76
4, 2165, Control_c, 9, 7, 76
4, 2166, Control_c, 9, 7, 76
4, 2167, Control_c, 9, 7, 76
4, 2168, Control_c, 9, 7, 76
4, 2169, Control_c, 9, 7, 76
4, 2170, Control_c, 9, 7, 76
4, 2171, Control_c, 9, 7, 76
4, 2172, Control_c, 9, 7, 76
4, 2173, Control_c, 9, 7, 76
4, 2174, Control_c, 9, 7, 76
4, 2175, Control_c, 9, 7, 76
4, 2176, Control_c, 9, 7, 76
4, 2177, Control_c, 9, 7, 76
4, 2178, Control_c, 9, 7, 76
4, 2179, Control_c, 9, 7, 76
4, 2180, Control_c, 9, 7, 76
4, 2181, Control_c, 9, 7, 76
4, 2182, Control_c, 9, 7, 76
4, 2183, Control_c, 9, 7, 76
4, 2184, Control_c, 9, 7, 76
4, 2185, Control_c, 9, 7, 76
4, 2186, Control_c, 9, 7, 76
4, 2187, Control_c, 9, 7, 76
4, 2188, Control_c, 9, 7, 76
4, 2189, Control_c, 9, 7, 76
4, 2190, Control_c, 9, 7, 77
4, 2191, Control_c, 9, 7, 77
4, 2192, Control_c, 9, 7, 77
4, 2193, Control_c, 9, 7, 77
4, 2194, Control_c, 9, 7, 77
4, 2195, Control_c, 9, 7, 77
4, 2196, Control_c, 9, 7, 77
4, 2197, Control_c, 9, 7, 77
4, 2198, Control_c, 9, 7, 77
4, 2199, Control_c, 9, 7, 77
4, 2200, Control_c, 9, 7, 77
4, 2201, Control_c, 9, 7, 77
4, 2202, Control_c, 9, 7, 77
4, 2203, Control_c, 9, 7, 77
4, 2204, Control_c, 9, 7, 77
4, 2205, Control_c, 9, 7, 77
4, 2206, Control_c, 9, 7, 77
4, 2207, Control_c, 9, 7, 77
4, 2208, Note_off_c, 9, 38, 64
4, 2208, Control_c, 9, 7, 77
4, 2209, Control_c, 9, 7, 77
4, 2210, Control_c, 9, 7, 77
4, 2211, Control_c, 9, 7, 77
4, 2212, Control_c, 9, 7, 77
4, 2213, Control_c, 9, 7, 77
4, 2214, Control_c, 9, 7, 77
4, 2215, Control_c, 9, 7, 77
4, 2216, Control_c, 9, 7, 77
4, 2217, Control_c, 9, 7, 77
4, 2218, Control_c, 9, 7, 77
4, 2219, Control_c, 9, 7, 77
4, 2220, Control_c, 9, 7, 77
4, 2221, Control_c, 9, 7, 77
4, 2222, Control_c, 9, 7, 77
4, 2223, Control_c, 9, 7, 77
4, 2224, Control_c, 9, 7, 77
4, 2225, Control_c, 9, 7, 77
4, 2226, Control_c, 9, 7, 77
4, 2227, Control_c, 9, 7, 77
4, 2228, Control_c, 9, 7, 77
4, 2229, Control_c, 9, 7, 77
4, 2230, Control_c, 9, 7, 77
4, 2231, Control_c, 9, 7, 77
4, 2232, Control_c, 9, 7, 77
4, 2233, Control_c, 9, 7, 77
4, 2234, Control_c, 9, 7, 77
4, 2235, Control_c, 9, 7, 77
4, 2236, Control_c, 9, 7, 77
4, 2237, Control_c, 9, 7, 77
4, 2238, Control_c, 9, 7, 77
4, 2239, Control_c, 9, 7, 77
4, 2240, Control_c, 9, 7, 77
4, 2241, Control_c, 9, 7, 77
4, 2242, Control_c, 9, 7, 77
4, 2243, Control_c, 9, 7, 78
4, 2244, Control_c, 9, 7, 78
4, 2245, Control_c, 9, 7, 78
4, 2246, Control_c, 9, 7, 78
4, 2247, Control_c, 9, 7, 78
4, 2248, Control_c, 9, 7, 78
4, 2249, Control_c, 9, 7, 78
4, 2250, Control_c, 9, 7, 78
4, 2251, Control_c, 9, 7, 78
4, 2252, Control_c, 9, 7, 78
4, 2253, Control_c, 9, 7, 78
4, 2254, Control_c, 9, 7, 78
4, 2255, Control_c, 9, 7, 78
4, 2256, Note_on_c, 9, 46, 100
4, 2256, Note_on_c, 9, 36, 127
4, 2256, Control_c, 9, 7, 78
4, 2257, Control_c, 9, 7, 78
4, 2258, Control_c, 9, 7, 78
4, 2259, Control_c, 9, 7, 78
4, 2260, Control_c, 9, 7, 78
4, 2261, Control_c, 9, 7, 78
4, 2262, Control_c, 9, 7, 78
4, 2263, Control_c, 9, 7, 78
4, 2264, Control_c, 9, 7, 78
4, 2265, Control_c, 9, 7, 78
4, 2266, Control_c, 9, 7, 78
4, 2267, Control_c, 9, 7, 78
4, 2268, Control_c, 9, 7, 78
4, 2269, Control_c, 9, 7, 78
4, 2270, Control_c, 9, 7, 78
4, 2271, Control_c, 9, 7, 78
4, 2272, Control_c, 9, 7, 78
4, 2273, Control_c, 9, 7, 78
4, 2274, Control_c, 9, 7, 78
4, 2275, Control_c, 9, 7, 78
4, 2276, Control_c, 9, 7, 78
4, 2277, Control_c, 9, 7, 78
4, 2278, Control_c, 9, 7, 78
4, 2279, Control_c, 9, 7, 78
4, 2280, Note_off_c, 9, 46, 64
4, 2280, Control_c, 9, 7, 78
4, 2281, Control_c, 9, 7, 78
4, 2282, Control_c, 9, 7, 78
4, 2283, Control_c, 9, 7, 78
4, 2284, Control_c, 9, 7, 78
4, 2285, Control_c, 9, 7, 78
4, 2286, Control_c, 9, 7, 78
4, 2287, Control_c, 9, 7, 78
4, 2288, Control_c, 9, 7, 78
4, 2289, Control_c, 9, 7, 78
4, 2290, Control_c, 9, 7, 78
4, 2291, Control_c, 9, 7, 78
4, 2292, Control_c, 9, 7, 78
4, 2293, Control_c, 9, 7, 78
4, 2294, Control_c, 9, 7, 78
4, 2295, Control_c, 9, 7, 78
4, 2296, Control_c, 9, 7, 78
4, 2297, Control_c, 9, 7, 79
4, 2298, Control_c, 9, 7, 79
4, 2299, Control_c, 9, 7, 79
4, 2300, Control_c, 9, 7, 79
4, 2301, Control_c, 9, 7, 79
4, 2302, Control_c, 9, 7, 79
4, 2303, Control_c, 9, 7, 79
4, 2304, Note_off_c, 9, 36, 64
4, 2304, Note_on_c, 9, 44, 100
4, 2304, Note_on_c, 9, 36, 127
4, 2304, Control_c, 9, 7, 79
4, 2305, Control_c, 9, 7, 79
4, 2306, Control_c, 9, 7, 79
4, 2307, Control_c, 9, 7, 79
4, 2308, Control_c, 9, 7, 79
4, 2309, Control_c, 9, 7, 79
4, 2310, Control_c, 9, 7, 79
4, 2311, Control_c, 9, 7, 79
4, 2312, Control_c, 9, 7, 79
4, 2313, Control_c, 9, 7, 79
4, 2314, Control_c, 9, 7, 79
4, 2315, Control_c, 9, 7, 79
4, 2316, Control_c, 9, 7, 79
4, 2317, Control_c, 9, 7, 79
4, 2318, Control_c, 9, 7, 79
4, 2319, Control_c, 9, 7, 79
4, 2320, Control_c, 9, 7, 79
4, 2321, Control_c, 9, 7, 79
4, 2322, Control_c, 9, 7, 79
4, 2323, Control_c, 9, 7, 79
4, 2324, Control_c, 9, 7, 79
4, 2325, Control_c, 9, 7, 79
4, 2326, Control_c, 9, 7, 79
4, 2327, Control_c, 9, 7, 79
4, 2328, Note_off_c, 9, 44, 64
4, 2328, Control_c, 9, 7, 79
4, 2329, Control_c, 9, 7, 79
4, 2330, Control_c, 9, 7, 79
4, 2331, Control_c, 9, 7, 79
4, 2332, Control_c, 9, 7, 79
4, 2333, Control_c, 9, 7, 79
4, 2334, Control_c, 9, 7, 79
4, 2335, Control_c, 9, 7, 79
4, 2336, Control_c, 9, 7, 79
4, 2337, Control_c, 9, 7, 79
4, 2338, Control_c, 9, 7, 79
4, 2339, Control_c, 9, 7, 79
4, 2340, Control_c, 9, 7, 79
4, 2341, Control_c, 9, 7, 79
4, 2342, Control_c, 9, 7, 79
4, 2343, Control_c, 9, 7, 79
4, 2344, Control_c, 9, 7, 79
4, 2345, Control_c, 9, 7, 79
4, 2346, Control_c, 9, 7, 79
4, 2347, Control_c, 9, 7, 79
4, 2348, Control_c, 9, 7, 79
4, 2349, Control_c, 9, 7, 79
4, 2350, Control_c, 9, 7, 79
4, 2351, Control_c, 9, 7, 79
4, 2352, Note_off_c, 9, 36, 64
4, 2352, Control_c, 9, 7, 80
4, 2353, Control_c, 9, 7, 80
4, 2354, Control_c, 9, 7, 80
4, 2355, Control_c, 9, 7, 80
4, 2356, Control_c, 9, 7, 80
4, 2357, Control_c, 9, 7, 80
4, 2358, Control_c, 9, 7, 80
4, 2359, Control_c, 9, 7, 80
4, 2360, Control_c, 9, 7, 80
4, 2361, Control_c, 9, 7, 80
4, 2362, Control_c, 9, 7, 80
4, 2363, Control_c, 9, 7, 80
4, 2364, Control_c, 9, 7, 80
4, 2365, Control_c, 9, 7, 80
4, 2366, Control_c, 9, 7, 80
4, 2367, Control_c, 9, 7, 80
4, 2368, Control_c, 9, 7, 80
4, 2369, Control_c, 9, 7, 80
4, 2370, Control_c, 9, 7, 80
4, 2371, Control_c, 9, 7, 80
4, 2372, Control_c, 9, 7, 80
4, 2373, Control_c, 9, 7, 80
4, 2374, Control_c, 9, 7, 80
4, 2375, Control_c, 9, 7, 80
4, 2376, Control_c, 9, 7, 80
4, 2377, Control_c, 9, 7, 80
4, 2378, Control_c, 9, 7, 80
4, 2379, Control_c, 9, 7, 80
4, 2380, Control_c, 9, 7, 80
4, 2381, Control_c, 9, 7, 80
4, 2382, Control_c, 9, 7, 80
4, 2383, Control_c, 9, 7, 80
4, 2384, Control_c, 9, 7, 80
4, 2385, Control_c, 9, 7, 80
4, 2386, Control_c, 9, 7, 80
4, 2387, Control_c, 9, 7, 80
4, 2388, Control_c, 9, 7, 80
4, 2389, Control_c, 9, 7, 80
4, 2390, Control_c, 9, 7, 80
4, 2391, Control_c, 9, 7, 80
4, 2392, Control_c, 9, 7, 80
4, 2393, Control_c, 9, 7, 80
4, 2394, Control_c, 9, 7, 80
4, 2395, Control_c, 9, 7, 80
4, 2396, Control_c, 9, 7, 80
4, 2397, Control_c, 9, 7, 80
4, 2398, Control_c, 9, 7, 80
4, 2399, Control_c, 9, 7, 80
4, 2400, Note_on_c, 9, 42, 100
4, 2400, Control_c, 9, 7, 80
4, 2401, Control_c, 9, 7, 80
4, 2402, Control_c, 9, 7, 80
4, 2403, Control_c, 9, 7, 80
4, 2404, Control_c, 9, 7, 80
4, 2405, Control_c, 9, 7, 80
4, 2406, Control_c, 9, 7, 80
4, 2407, Control_c, 9, 7, 80
4, 2408, Control_c, 9, 7, 80
4, 2409, Control_c, 9, 7, 80
4, 2410, Control_c, 9, 7, 81
4, 2411, Control_c, 9, 7, 81
4, 2412, Control_c, 9, 7, 81
4, 2413, Control_c, 9, 7, 81
4, 2414, Control_c, 9, 7, 81
4, 2415, Control_c, 9, 7, 81
4, 2416, Control_c, 9, 7, 81
4, 2417, Control_c, 9, 7, 81
4, 2418, Control_c, 9, 7, 81
4, 2419, Control_c, 9, 7, 81
4, 2420, Control_c, 9, 7, 81
4, 2421, Control_c, 9, 7, 81
4, 2422, Control_c, 9, 7, 81
4, 2423, Control_c, 9, 7, 81
4, 2424, Note_off_c, 9, 42, 64
4, 2424, Control_c, 9, 7, 81
4, 2425, Control_c, 9, 7, 81
4, 2426, Control_c, 9, 7, 81
4, 2427, Control_c, 9, 7, 81
4, 2428, Control_c, 9, 7, 81
4, 2429, Control_c, 9, 7, 81
4, 2430, Control_c, 9, 7, 81
4, 2431, Control_c, 9, 7, 81
4, 2432, Control_c, 9, 7, 81
4, 2433, Control_c, 9, 7, 81
4, 2434, Control_c, 9, 7, 81
4, 2435, Control_c, 9, 7, 81
4, 2436, Control_c, 9, 7, 81
4, 2437, Control_c, 9, 7, 81
4, 2438, Control_c, 9, 7, 81
4, 2439, Control_c, 9, 7, 81
4, 2440, Control_c, 9, 7, 81
4, 2441, Control_c, 9, 7, 81
4, 2442, Control_c, 9, 7, 81
4, 2443, Control_c, 9, 7, 81
4, 2444, Control_c, 9, 7, 81
4, 2445, Control_c, 9, 7, 81
4, 2446, Control_c, 9, 7, 81
4, 2447, Control_c, 9, 7, 81
4, 2448, Note_on_c, 9, 36, 127
4, 2448, Note_on_c, 9, 42, 100
4, 2448, Control_c, 9, 7, 81
4, 2449, Control_c, 9, 7, 81
4, 2450, Control_c, 9, 7, 81
4, 2451, Control_c, 9, 7, 81
4, 2452, Control_c, 9, 7, 81
4, 2453, Control_c, 9, 7, 81
4, 2454, Control_c, 9, 7, 81
4, 2455, Control_c, 9, 7, 81
4, 2456, Control_c, 9, 7, 81
4, 2457, Control_c, 9, 7, 81
4, 2458, Control_c, 9, 7, 81
4, 2459, Control_c, 9, 7, 81
4, 2460, Control_c, 9, 7, 81
4, 2461, Control_c, 9, 7, 81
4, 2462, Control_c, 9, 7, 81
4, 2463, Control_c, 9, 7, 81
4, 2464, Control_c, 9, 7, 81
4, 2465, Control_c, 9, 7, 81
4, 2466, Control_c, 9, 7, 81
4, 2467, Control_c, 9, 7, 81
4, 2468, Control_c, 9, 7, 81
4, 2469, Control_c, 9, 7, 81
4, 2470, Control_c, 9, 7, 82
4, 2471, Control_c, 9, 7, 82
4, 2472, Note_off_c, 9, 36, 64
4, 2472, Note_off_c, 9, 42, 64
4, 2472, Control_c, 9, 7, 82
4, 2473, Control_c, 9, 7, 82
4, 2474, Control_c, 9, 7, 82
4, 2475, Control_c, 9, 7, 82
4, 2476, Control_c, 9, 7, 82
4, 2477, Control_c, 9, 7, 82
4, 2478, Control_c, 9, 7, 82
4, 2479, Control_c, 9, 7, 82
4, 2480, Control_c, 9, 7, 82
4, 2481, Control_c, 9, 7, 82
4, 2482, Control_c, 9, 7, 82
4, 2483, Control_c, 9, 7, 82
4, 2484, Control_c, 9, 7, 82
4, 2485, Control_c, 9, 7, 82
4, 2486, Control_c, 9, 7, 82
4, 2487, Control_c, 9, 7, 82
4, 2488, Control_c, 9, 7, 82
4, 2489, Control_c, 9, 7, 82
4, 2490, Control_c, 9, 7, 82
4, 2491, Control_c, 9, 7, 82
4, 2492, Control_c, 9, 7, 82
4, 2493, Control_c, 9, 7, 82
4, 2494, Control_c, 9, 7, 82
4, 2495, Control_c, 9, 7, 82
4, 2496, Note_on_c, 9, 42, 100
4, 2496, Control_c, 9, 7, 82
4, 2497, Control_c, 9, 7, 82
4, 2498, Control_c, 9, 7, 82
4, 2499, Control_c, 9, 7, 82
4, 2500, Control_c, 9, 7, 82
4, 2501, Control_c, 9, 7, 82
4, 2502, Control_c, 9, 7, 82
4, 2503, Control_c, 9, 7, 82
4, 2504, Control_c, 9, 7, 82
4, 2505, Control_c, 9, 7, 82
4, 2506, Control_c, 9, 7, 82
4, 2507, Control_c, 9, 7, 82
4, 2508, Control_c, 9, 7, 82
4, 2509, Control_c, 9, 7, 82
4, 2510, Control_c, 9, 7, 82
4, 2511, Control_c, 9, 7, 82
4, 2512, Control_c, 9, 7, 82
4, 2513, Control_c, 9, 7, 82
4, 2514, Control_c, 9, 7, 82
4, 2515, Control_c, 9, 7, 82
4, 2516, Control_c, 9, 7, 82
4, 2517, Control_c, 9, 7, 82
4, 2518, Control_c, 9, 7, 82
4, 2519, Control_c, 9, 7, 82
4, 2520, Note_off_c, 9, 42, 64
4, 2520, Control_c, 9, 7, 82
4, 2521, Control_c, 9, 7, 82
4, 2522, Control_c, 9, 7, 82
4, 2523, Control_c, 9, 7, 82
4, 2524, Control_c, 9, 7, 82
4, 2525, Control_c, 9, 7, 82
4, 2526, Control_c, 9, 7, 82
4, 2527, Control_c, 9, 7, 82
4, 2528, Control_c, 9, 7, 82
4, 2529, Control_c, 9, 7, 82
4, 2530, Control_c, 9, 7, 82
4, 2531, Control_c, 9, 7, 82
4, 2532, Control_c, 9, 7, 83
4, 2533, Control_c, 9, 7, 83
4, 2534, Control_c, 9, 7, 83
4, 2535, Control_c, 9, 7, 83
4, 2536, Control_c, 9, 7, 83
4, 2537, Control_c, 9, 7, 83
4, 2538, Control_c, 9, 7, 83
4, 2539, Control_c, 9, 7, 83
4, 2540, Control_c, 9, 7, 83
4, 2541, Control_c, 9, 7, 83
4, 2542, Control_c, 9, 7, 83
4, 2543, Control_c, 9, 7, 83
4, 2544, Note_on_c, 9, 42, 100
4, 2544, Control_c, 9, 7, 83
4, 2545, Control_c, 9, 7, 83
4, 2546, Control_c, 9, 7, 83
4, 2547, Control_c, 9, 7, 83
4, 2548, Control_c, 9, 7, 83
4, 2549, Control_c, 9, 7, 83
4, 2550, Control_c, 9, 7, 83
4, 2551, Control_c, 9, 7, 83
4, 2552, Control_c, 9, 7, 83
4, 2553, Control_c, 9, 7, 83
4, 2554, Control_c, 9, 7, 83
4, 2555, Control_c, 9, 7, 83
4, 2556, Control_c, 9, 7, 83
4, 2557, Control_c, 9, 7, 83
4, 2558, Control_c, 9, 7, 83
4, 2559, Control_c, 9, 7, 83
4, 2560, Control_c, 9, 7, 83
4, 2561, Control_c, 9, 7, 83
4, 2562, Control_c, 9, 7, 83
4, 2563, Control_c, 9, 7, 83
4, 2564, Control_c, 9, 7, 83
4, 2565, Control_c, 9, 7, 83
4, 2566, Control_c, 9, 7, 83
4, 2567, Control_c, 9, 7, 83
4, 2568, Note_off_c, 9, 42, 64
4, 2568, Control_c, 9, 7, 83
4, 2569, Control_c, 9, 7, 83
4, 2570, Control_c, 9, 7, 83
4, 2571, Control_c, 9, 7, 83
4, 2572, Control_c, 9, 7, 83
4, 2573, Control_c, 9, 7, 83
4, 2574, Control_c, 9, 7, 83
4, 2575, Control_c, 9, 7, 83
4, 2576, Control_c, 9, 7, 83
4, 2577, Control_c, 9, 7, 83
4, 2578, Control_c, 9, 7, 83
4, 2579, Control_c, 9, 7, 83
4, 2580, Control_c, 9, 7, 83
4, 2581, Control_c, 9, 7, 83
4, 2582, Control_c, 9, 7, 83
4, 2583, Control_c, 9, 7, 83
4, 2584, Control_c, 9, 7, 83
4, 2585, Control_c, 9, 7, 83
4, 2586, Control_c, 9, 7, 83
4, 2587, Control_c, 9, 7, 83
4, 2588, Control_c, 9, 7, 83
4, 2589, Control_c, 9, 7, 83
4, 2590, Control_c, 9, 7, 83
4, 2591, Control_c, 9, 7, 83
4, 2592, Note_on_c, 9, 36, 127
4, 2592, Note_on_c, 9, 42, 100
4, 2592, Control_c, 9, 7, 83
4, 2593, Control_c, 9, 7, 83
4, 2594, Control_c, 9, 7, 83
4, 2595, Control_c, 9, 7, 83
4, 2596, Control_c, 9, 7, 83
4, 2597, Control_c, 9, 7, 83
4, 2598, Control_c, 9, 7, 83
4, 2599, Control_c, 9, 7, 84
4, 2600, Control_c, 9, 7, 84
4, 2601, Control_c, 9, 7, 84
4, 2602, Control_c, 9, 7, 84
4, 2603, Control_c, 9, 7, 84
4, 2604, Control_c, 9, 7, 84
4, 2605, Control_c, 9, 7, 84
4, 2606, Control_c, 9, 7, 84
4, 2607, Control_c, 9, 7, 84
4, 2608, Control_c, 9, 7, 84
4, 2609, Control_c, 9, 7, 84
4, 2610, Control_c, 9, 7, 84
4, 2611, Control_c, 9, 7, 84
4, 2612, Control_c, 9, 7, 84
4, 2613, Control_c, 9, 7, 84
4, 2614, Control_c, 9, 7, 84
4, 2615, Control_c, 9, 7, 84
4, 2616, Note_off_c, 9, 36, 64
4, 2616, Note_off_c, 9, 42, 64
4, 2616, Control_c, 9, 7, 84
4, 2617, Control_c, 9, 7, 84
4, 2618, Control_c, 9, 7, 84
4, 2619, Control_c, 9, 7, 84
4, 2620, Control_c, 9, 7, 84
4, 2621, Control_c, 9, 7, 84
4, 2622, Control_c, 9, 7, 84
4, 2623, Control_c, 9, 7, 84
4, 2624, Control_c, 9, 7, 84
4, 2625, Control_c, 9, 7, 84
4, 2626, Control_c, 9, 7, 84
4, 2627, Control_c, 9, 7, 84
4, 2628, Control_c, 9, 7, 84
4, 2629, Control_c, 9, 7, 84
4, 2630, Control_c, 9, 7, 84
4, 2631, Control_c, 9, 7, 84
4, 2632, Control_c, 9, 7, 84
4, 2633, Control_c, 9, 7, 84
4, 2634, Control_c, 9, 7, 84
4, 2635, Control_c, 9, 7, 84
4, 2636, Control_c, 9, 7, 84
4, 2637, Control_c, 9, 7, 84
4, 2638, Control_c, 9, 7, 84
4, 2639, Control_c, 9, 7, 84
4, 2640, Note_on_c, 9, 42, 100
4, 2640, Control_c, 9, 7, 84
4, 2641, Control_c, 9, 7, 84
4, 2642, Control_c, 9, 7, 84
4, 2643, Control_c, 9, 7, 84
4, 2644, Control_c, 9, 7, 84
4, 2645, Control_c, 9, 7, 84
4, 2646, Control_c, 9, 7, 84
4, 2647, Control_c, 9, 7, 84
4, 2648, Control_c, 9, 7, 84
4, 2649, Control_c, 9, 7, 84
4, 2650, Control_c, 9, 7, 84
4, 2651, Control_c, 9, 7, 84
4, 2652, Control_c, 9, 7, 84
4, 2653, Control_c, 9, 7, 84
4, 2654, Control_c, 9, 7, 84
4, 2655, Control_c, 9, 7, 84
4, 2656, Control_c, 9, 7, 84
4, 2657, Control_c, 9, 7, 84
4, 2658, Control_c, 9, 7, 84
4, 2659, Control_c, 9, 7, 84
4, 2660, Control_c, 9, 7, 84
4, 2661, Control_c, 9, 7, 84
4, 2662, Control_c, 9, 7, 84
4, 2663, Control_c, 9, 7, 84
4, 2664, Note_off_c, 9, 42, 64
4, 2664, Control_c, 9, 7, 84
4, 2665, Control_c, 9, 7, 84
4, 2666, Control_c, 9, 7, 84
4, 2667, Control_c, 9, 7, 84
4, 2668, Control_c, 9, 7, 84
4, 2669, Control_c, 9, 7, 84
4, 2670, Control_c, 9, 7, 85
4, 2671, Control_c, 9, 7, 85
4, 2672, Control_c, 9, 7, 85
4, 2673, Control_c, 9, 7, 85
4, 2674, Control_c, 9, 7, 85
4, 2675, Control_c, 9, 7, 85
4, 2676, Control_c, 9, 7, 85
4, 2677, Control_c, 9, 7, 85
4, 2678, Control_c, 9, 7, 85
4, 2679, Control_c, 9, 7, 85
4, 2680, Control_c, 9, 7, 85
4, 2681, Control_c, 9, 7, 85
4, 2682, Control_c, 9, 7, 85
4, 2683, Control_c, 9, 7, 85
4, 2684, Control_c, 9, 7, 85
4, 2685, Control_c, 9, 7, 85
4, 2686, Control_c, 9, 7, 85
4, 2687, Control_c, 9, 7, 85
4, 2688, Control_c, 9, 7, 85
4, 2689, Control_c, 9, 7, 85
4, 2690, Control_c, 9, 7, 85
4, 2691, Control_c, 9, 7, 85
4, 2692, Control_c, 9, 7, 85
4, 2693, Control_c, 9, 7, 85
4, 2694, Control_c, 9, 7, 85
4, 2695, Control_c, 9, 7, 85
4, 2696, Control_c, 9, 7, 85
4, 2697, Control_c, 9, 7, 85
4, 2698, Control_c, 9, 7, 85
4, 2699, Control_c, 9, 7, 85
4, 2700, Control_c, 9, 7, 85
4, 2701, Control_c, 9, 7, 85
4, 2702, Control_c, 9, 7, 85
4, 2703, Control_c, 9, 7, 85
4, 2704, Control_c, 9, 7, 85
4, 2705, Control_c, 9, 7, 85
4, 2706, Control_c, 9, 7, 85
4, 2707, Control_c, 9, 7, 85
4, 2708, Control_c, 9, 7, 85
4, 2709, Control_c, 9, 7, 85
4, 2710, Control_c, 9, 7, 85
4, 2711, Control_c, 9, 7, 85
4, 2712, Control_c, 9, 7, 85
4, 2713, Control_c, 9, 7, 85
4, 2714, Control_c, 9, 7, 85
4, 2715, Control_c, 9, 7, 85
4, 2716, Control_c, 9, 7, 85
4, 2717, Control_c, 9, 7, 85
4, 2718, Control_c, 9, 7, 85
4, 2719, Control_c, 9, 7, 85
4, 2720, Control_c, 9, 7, 85
4, 2721, Control_c, 9, 7, 85
4, 2722, Control_c, 9, 7, 85
4, 2723, Control_c, 9, 7, 85
4, 2724, Control_c, 9, 7, 85
4, 2725, Control_c, 9, 7, 85
4, 2726, Control_c, 9, 7, 85
4, 2727, Control_c, 9, 7, 85
4, 2728, Control_c, 9, 7, 85
4, 2729, Control_c, 9, 7, 85
4, 2730, Control_c, 9, 7, 85
4, 2731, Control_c, 9, 7, 85
4, 2732, Control_c, 9, 7, 85
4, 2733, Control_c, 9, 7, 85
4, 2734, Control_c, 9, 7, 85
4, 2735, Control_c, 9, 7, 85
4, 2736, Note_on_c, 9, 42, 96
4, 2736, Note_on_c, 9, 35, 127
4, 2736, Control_c, 9, 7, 85
4, 2737, Control_c, 9, 7, 85
4, 2738, Control_c, 9, 7, 85
4, 2739, Control_c, 9, 7, 85
4, 2740, Control_c, 9, 7, 85
4, 2741, Control_c, 9, 7, 85
4, 2742, Control_c, 9, 7, 85
4, 2743, Control_c, 9, 7, 85
4, 2744, Control_c, 9, 7, 85
4, 2745, Control_c, 9, 7, 85
4, 2746, Control_c, 9, 7, 85
4, 2747, Control_c, 9, 7, 86
4, 2748, Control_c, 9, 7, 86
4, 2749, Control_c, 9, 7, 86
4, 2750, Control_c, 9, 7, 86
4, 2751, Control_c, 9, 7, 86
4, 2752, Control_c, 9, 7, 86
4, 2753, Control_c, 9, 7, 86
4, 2754, Control_c, 9, 7, 86
4, 2755, Control_c, 9, 7, 86
4, 2756, Control_c, 9, 7, 86
4, 2757, Control_c, 9, 7, 86
4, 2758, Control_c, 9, 7, 86
4, 2759, Control_c, 9, 7, 86
4, 2760, Note_off_c, 9, 42, 64
4, 2760, Note_off_c, 9, 35, 64
4, 2760, Control_c, 9, 7, 86
4, 2761, Control_c, 9, 7, 86
4, 2762, Control_c, 9, 7, 86
4, 2763, Control_c, 9, 7, 86
4, 2764, Control_c, 9, 7, 86
4, 2765, Control_c, 9, 7, 86
4, 2766, Control_c, 9, 7, 86
4, 2767, Control_c, 9, 7, 86
4, 2768, Control_c, 9, 7, 86
4, 2769, Control_c, 9, 7, 86
4, 2770, Control_c, 9, 7, 86
4, 2771, Control_c, 9, 7, 86
4, 2772, Control_c, 9, 7, 86
4, 2773, Control_c, 9, 7, 86
4, 2774, Control_c, 9, 7, 86
4, 2775, Control_c, 9, 7, 86
4, 2776, Control_c, 9, 7, 86
4, 2777, Control_c, 9, 7, 86
4, 2778, Control_c, 9, 7, 86
4, 2779, Control_c, 9, 7, 86
4, 2780, Control_c, 9, 7, 86
4, 2781, Control_c, 9, 7, 86
4, 2782, Control_c, 9, 7, 86
4, 2783, Control_c, 9, 7, 86
4, 2784, Note_on_c, 9, 40, 127
4, 2784, Note_on_c, 9, 42, 96
4, 2784, Note_on_c, 9, 39, 127
4, 2784, Control_c, 9, 7, 86
4, 2785, Control_c, 9, 7, 86
4, 2786, Control_c, 9, 7, 86
4, 2787, Control_c, 9, 7, 86
4, 2788, Control_c, 9, 7, 86
4, 2789, Control_c, 9, 7, 86
4, 2790, Control_c, 9, 7, 86
4, 2791, Control_c, 9, 7, 86
4, 2792, Control_c, 9, 7, 86
4, 2793, Control_c, 9, 7, 86
4, 2794, Control_c, 9, 7, 86
4, 2795, Control_c, 9, 7, 86
4, 2796, Control_c, 9, 7, 86
4, 2797, Control_c, 9, 7, 86
4, 2798, Control_c, 9, 7, 86
4, 2799, Control_c, 9, 7, 86
4, 2800, Control_c, 9, 7, 86
4, 2801, Control_c, 9, 7, 86
4, 2802, Control_c, 9, 7, 86
4, 2803, Control_c, 9, 7, 86
4, 2804, Control_c, 9, 7, 86
4, 2805, Control_c, 9, 7, 86
4, 2806, Control_c, 9, 7, 86
4, 2807, Control_c, 9, 7, 86
4, 2808, Note_off_c, 9, 40, 64
4, 2808, Note_off_c, 9, 42, 64
4, 2808, Note_off_c, 9, 39, 64
4, 2808, Control_c, 9, 7, 86
4, 2809, Control_c, 9, 7, 86
4, 2810, Control_c, 9, 7, 86
4, 2811, Control_c, 9, 7, 86
4, 2812, Control_c, 9, 7, 86
4, 2813, Control_c, 9, 7, 86
4, 2814, Control_c, 9, 7, 86
4, 2815, Control_c, 9, 7, 86
4, 2816, Control_c, 9, 7, 86
4, 2817, Control_c, 9, 7, 86
4, 2818, Control_c, 9, 7, 86
4, 2819, Control_c, 9, 7, 86
4, 2820, Control_c, 9, 7, 86
4, 2821, Control_c, 9, 7, 86
4, 2822, Control_c, 9, 7, 86
4, 2823, Control_c, 9, 7, 86
4, 2824, Control_c, 9, 7, 86
4, 2825, Control_c, 9, 7, 86
4, 2826, Control_c, 9, 7, 86
4, 2827, Control_c, 9, 7, 86
4, 2828, Control_c, 9, 7, 86
4, 2829, Control_c, 9, 7, 86
4, 2830, Control_c, 9, 7, 86
4, 2831, Control_c, 9, 7, 86
4, 2832, Note_on_c, 9, 40, 127
4, 2832, Note_on_c, 9, 42, 96
4, 2832, Note_on_c, 9, 35, 127
4, 2832, Note_on_c, 9, 39, 127
4, 2832, Control_c, 9, 7, 86
4, 2833, Control_c, 9, 7, 86
4, 2834, Control_c, 9, 7, 87
4, 2835, Control_c, 9, 7, 87
4, 2836, Control_c, 9, 7, 87
4, 2837, Control_c, 9, 7, 87
4, 2838, Control_c, 9, 7, 87
4, 2839, Control_c, 9, 7, 87
4, 2840, Control_c, 9, 7, 87
4, 2841, Control_c, 9, 7, 87
4, 2842, Control_c, 9, 7, 87
4, 2843, Control_c, 9, 7, 87
4, 2844, Control_c, 9, 7, 87
4, 2845, Control_c, 9, 7, 87
4, 2846, Control_c, 9, 7, 87
4, 2847, Control_c, 9, 7, 87
4, 2848, Control_c, 9, 7, 87
4, 2849, Control_c, 9, 7, 87
4, 2850, Control_c, 9, 7, 87
4, 2851, Control_c, 9, 7, 87
4, 2852, Control_c, 9, 7, 87
4, 2853, Control_c, 9, 7, 87
4, 2854, Control_c, 9, 7, 87
4, 2855, Control_c, 9, 7, 87
4, 2856, Note_off_c, 9, 40, 64
4, 2856, Note_off_c, 9, 42, 64
4, 2856, Note_off_c, 9, 35, 64
4, 2856, Note_off_c, 9, 39, 64
4, 2856, Control_c, 9, 7, 87
4, 2857, Control_c, 9, 7, 87
4, 2858, Control_c, 9, 7, 87
4, 2859, Control_c, 9, 7, 87
4, 2860, Control_c, 9, 7, 87
4, 2861, Control_c, 9, 7, 87
4, 2862, Control_c, 9, 7, 87
4, 2863, Control_c, 9, 7, 87
4, 2864, Control_c, 9, 7, 87
4, 2865, Control_c, 9, 7, 87
4, 2866, Control_c, 9, 7, 87
4, 2867, Control_c, 9, 7, 87
4, 2868, Control_c, 9, 7, 87
4, 2869, Control_c, 9, 7, 87
4, 2870, Control_c, 9, 7, 87
4, 2871, Control_c, 9, 7, 87
4, 2872, Control_c, 9, 7, 87
4, 2873, Control_c, 9, 7, 87
4, 2874, Control_c, 9, 7, 87
4, 2875, Control_c, 9, 7, 87
4, 2876, Control_c, 9, 7, 87
4, 2877, Control_c, 9, 7, 87
4, 2878, Control_c, 9, 7, 87
4, 2879, Control_c, 9, 7, 87
4, 2880, Note_on_c, 9, 42, 96
4, 2880, Control_c, 9, 7, 87
4, 2881, Control_c, 9, 7, 87
4, 2882, Control_c, 9, 7, 87
4, 2883, Control_c, 9, 7, 87
4, 2884, Control_c, 9, 7, 87
4, 2885, Control_c, 9, 7, 87
4, 2886, Control_c, 9, 7, 87
4, 2887, Control_c, 9, 7, 87
4, 2888, Control_c, 9, 7, 87
4, 2889, Control_c, 9, 7, 87
4, 2890, Control_c, 9, 7, 87
4, 2891, Control_c, 9, 7, 87
4, 2892, Control_c, 9, 7, 87
4, 2893, Control_c, 9, 7, 87
4, 2894, Control_c, 9, 7, 87
4, 2895, Control_c, 9, 7, 87
4, 2896, Control_c, 9, 7, 87
4, 2897, Control_c, 9, 7, 87
4, 2898, Control_c, 9, 7, 87
4, 2899, Control_c, 9, 7, 87
4, 2900, Control_c, 9, 7, 87
4, 2901, Control_c, 9, 7, 87
4, 2902, Control_c, 9, 7, 87
4, 2903, Control_c, 9, 7, 87
4, 2904, Note_off_c, 9, 42, 64
4, 2904, Control_c, 9, 7, 87
4, 2905, Control_c, 9, 7, 87
4, 2906, Control_c, 9, 7, 87
4, 2907, Control_c, 9, 7, 87
4, 2908, Control_c, 9, 7, 87
4, 2909, Control_c, 9, 7, 87
4, 2910, Control_c, 9, 7, 87
4, 2911, Control_c, 9, 7, 87
4, 2912, Control_c, 9, 7, 87
4, 2913, Control_c, 9, 7, 87
4, 2914, Control_c, 9, 7, 87
4, 2915, Control_c, 9, 7, 87
4, 2916, Control_c, 9, 7, 87
4, 2917, Control_c, 9, 7, 87
4, 2918, Control_c, 9, 7, 87
4, 2919, Control_c, 9, 7, 87
4, 2920, Control_c, 9, 7, 87
4, 2921, Control_c, 9, 7, 87
4, 2922, Control_c, 9, 7, 87
4, 2923, Control_c, 9, 7, 87
4, 2924, Control_c, 9, 7, 87
4, 2925, Control_c, 9, 7, 87
4, 2926, Control_c, 9, 7, 87
4, 2927, Control_c, 9, 7, 87
4, 2928, Note_on_c, 9, 42, 96
4, 2928, Note_on_c, 9, 35, 127
4, 2928, Control_c, 9, 7, 87
4, 2929, Control_c, 9, 7, 87
4, 2930, Control_c, 9, 7, 87
4, 2931, Control_c, 9, 7, 87
4, 2932, Control_c, 9, 7, 87
4, 2933, Control_c, 9, 7, 87
4, 2934, Control_c, 9, 7, 87
4, 2935, Control_c, 9, 7, 88
4, 2936, Control_c, 9, 7, 88
4, 2937, Control_c, 9, 7, 88
4, 2938, Control_c, 9, 7, 88
4, 2939, Control_c, 9, 7, 88
4, 2940, Control_c, 9, 7, 88
4, 2941, Control_c, 9, 7, 88
4, 2942, Control_c, 9, 7, 88
4, 2943, Control_c, 9, 7, 88
4, 2944, Control_c, 9, 7, 88
4, 2945, Control_c, 9, 7, 88
4, 2946, Control_c, 9, 7, 88
4, 2947, Control_c, 9, 7, 88
4, 2948, Control_c, 9, 7, 88
4, 2949, Control_c, 9, 7, 88
4, 2950, Control_c, 9, 7, 88
4, 2951, Control_c, 9, 7, 88
4, 2952, Note_off_c, 9, 42, 64
4, 2952, Note_off_c, 9, 35, 64
4, 2952, Control_c, 9, 7, 88
4, 2953, Control_c, 9, 7, 88
4, 2954, Control_c, 9, 7, 88
4, 2955, Control_c, 9, 7, 88
4, 2956, Control_c, 9, 7, 88
4, 2957, Control_c, 9, 7, 88
4, 2958, Control_c, 9, 7, 88
4, 2959, Control_c, 9, 7, 88
4, 2960, Control_c, 9, 7, 88
4, 2961, Control_c, 9, 7, 88
4, 2962, Control_c, 9, 7, 88
4, 2963, Control_c, 9, 7, 88
4, 2964, Control_c, 9, 7, 88
4, 2965, Control_c, 9, 7, 88
4, 2966, Control_c, 9, 7, 88
4, 2967, Control_c, 9, 7, 88
4, 2968, Control_c, 9, 7, 88
4, 2969, Control_c, 9, 7, 88
4, 2970, Control_c, 9, 7, 88
4, 2971, Control_c, 9, 7, 88
4, 2972, Control_c, 9, 7, 88
4, 2973, Control_c, 9, 7, 88
4, 2974, Control_c, 9, 7, 88
4, 2975, Control_c, 9, 7, 88
4, 2976, Note_on_c, 9, 42, 96
4, 2976, Note_on_c, 9, 38, 127
4, 2976, Control_c, 9, 7, 88
4, 2977, Control_c, 9, 7, 88
4, 2978, Control_c, 9, 7, 88
4, 2979, Control_c, 9, 7, 88
4, 2980, Control_c, 9, 7, 88
4, 2981, Control_c, 9, 7, 88
4, 2982, Control_c, 9, 7, 88
4, 2983, Control_c, 9, 7, 88
4, 2984, Control_c, 9, 7, 88
4, 2985, Control_c, 9, 7, 88
4, 2986, Control_c, 9, 7, 88
4, 2987, Control_c, 9, 7, 88
4, 2988, Control_c, 9, 7, 88
4, 2989, Control_c, 9, 7, 88
4, 2990, Control_c, 9, 7, 88
4, 2991, Control_c, 9, 7, 88
4, 2992, Control_c, 9, 7, 88
4, 2993, Control_c, 9, 7, 88
4, 2994, Control_c, 9, 7, 88
4, 2995, Control_c, 9, 7, 88
4, 2996, Control_c, 9, 7, 88
4, 2997, Control_c, 9, 7, 88
4, 2998, Control_c, 9, 7, 88
4, 2999, Control_c, 9, 7, 88
4, 3000, Note_off_c, 9, 42, 64
4, 3000, Note_off_c, 9, 38, 64
4, 3000, Control_c, 9, 7, 88
4, 3001, Control_c, 9, 7, 88
4, 3002, Control_c, 9, 7, 88
4, 3003, Control_c, 9, 7, 88
4, 3004, Control_c, 9, 7, 88
4, 3005, Control_c, 9, 7, 88
4, 3006, Control_c, 9, 7, 88
4, 3007, Control_c, 9, 7, 88
4, 3008, Control_c, 9, 7, 88
4, 3009, Control_c, 9, 7, 88
4, 3010, Control_c, 9, 7, 88
4, 3011, Control_c, 9, 7, 88
4, 3012, Control_c, 9, 7, 88
4, 3013, Control_c, 9, 7, 88
4, 3014, Control_c, 9, 7, 88
4, 3015, Control_c, 9, 7, 88
4, 3016, Control_c, 9, 7, 88
4, 3017, Control_c, 9, 7, 88
4, 3018, Control_c, 9, 7, 88
4, 3019, Control_c, 9, 7, 88
4, 3020, Control_c, 9, 7, 88
4, 3021, Control_c, 9, 7, 88
4, 3022, Control_c, 9, 7, 88
4, 3023, Control_c, 9, 7, 88
4, 3024, Note_on_c, 9, 42, 96
4, 3024, Note_on_c, 9, 35, 127
4, 3024, Note_on_c, 9, 38, 127
4, 3024, Control_c, 9, 7, 88
4, 3025, Control_c, 9, 7, 88
4, 3026, Control_c, 9, 7, 88
4, 3027, Control_c, 9, 7, 88
4, 3028, Control_c, 9, 7, 88
4, 3029, Control_c, 9, 7, 88
4, 3030, Control_c, 9, 7, 88
4, 3031, Control_c, 9, 7, 88
4, 3032, Control_c, 9, 7, 88
4, 3033, Control_c, 9, 7, 88
4, 3034, Control_c, 9, 7, 88
4, 3035, Control_c, 9, 7, 88
4, 3036, Control_c, 9, 7, 88
4, 3037, Control_c, 9, 7, 88
4, 3038, Control_c, 9, 7, 88
4, 3039, Control_c, 9, 7, 88
4, 3040, Control_c, 9, 7, 88
4, 3041, Control_c, 9, 7, 88
4, 3042, Control_c, 9, 7, 88
4, 3043, Control_c, 9, 7, 88
4, 3044, Control_c, 9, 7, 88
4, 3045, Control_c, 9, 7, 88
4, 3046, Control_c, 9, 7, 88
4, 3047, Control_c, 9, 7, 88
4, 3048, Note_off_c, 9, 42, 64
4, 3048, Note_off_c, 9, 35, 64
4, 3048, Note_off_c, 9, 38, 64
4, 3048, Control_c, 9, 7, 88
4, 3049, Control_c, 9, 7, 88
4, 3050, Control_c, 9, 7, 88
4, 3051, Control_c, 9, 7, 88
4, 3052, Control_c, 9, 7, 88
4, 3053, Control_c, 9, 7, 88
4, 3054, Control_c, 9, 7, 88
4, 3055, Control_c, 9, 7, 88
4, 3056, Control_c, 9, 7, 88
4, 3057, Control_c, 9, 7, 88
4, 3058, Control_c, 9, 7, 88
4, 3059, Control_c, 9, 7, 88
4, 3060, Control_c, 9, 7, 88
4, 3061, Control_c, 9, 7, 88
4, 3062, Control_c, 9, 7, 88
4, 3063, Control_c, 9, 7, 88
4, 3064, Control_c, 9, 7, 89
4, 3065, Control_c, 9, 7, 89
4, 3066, Control_c, 9, 7, 89
4, 3067, Control_c, 9, 7, 89
4, 3068, Control_c, 9, 7, 89
4, 3069, Control_c, 9, 7, 89
4, 3070, Control_c, 9, 7, 89
4, 3071, Control_c, 9, 7, 89
4, 3072, Note_on_c, 9, 46, 100
4, 3072, Note_on_c, 9, 36, 127
4, 3095, Control_c, 9, 7, 89
4, 3096, Note_off_c, 9, 46, 64
4, 3120, Note_off_c, 9, 36, 64
4, 3168, Note_on_c, 9, 44, 100
4, 3192, Note_off_c, 9, 44, 64
4, 3192, Control_c, 9, 7, 89
4, 3216, Note_on_c, 9, 42, 100
4, 3216, Note_on_c, 9, 36, 127
4, 3240, Note_off_c, 9, 42, 64
4, 3264, Note_off_c, 9, 36, 64
4, 3264, Note_on_c, 9, 42, 100
4, 3264, Note_on_c, 9, 38, 127
4, 3288, Note_off_c, 9, 42, 64
4, 3290, Control_c, 9, 7, 89
4, 3312, Note_off_c, 9, 38, 64
4, 3312, Note_on_c, 9, 42, 100
4, 3336, Note_off_c, 9, 42, 64
4, 3360, Note_on_c, 9, 42, 100
4, 3360, Note_on_c, 9, 36, 127
4, 3384, Note_off_c, 9, 42, 64
4, 3388, Control_c, 9, 7, 89
4, 3408, Note_off_c, 9, 36, 64
4, 3408, Note_on_c, 9, 42, 100
4, 3432, Note_off_c, 9, 42, 64
4, 3456, Note_on_c, 9, 42, 100
4, 3456, Note_on_c, 9, 36, 127
4, 3480, Note_off_c, 9, 42, 64
4, 3486, Control_c, 9, 7, 89
4, 3504, Note_off_c, 9, 36, 64
4, 3552, Note_on_c, 9, 42, 100
4, 3576, Note_off_c, 9, 42, 64
4, 3583, Control_c, 9, 7, 89
4, 3600, Note_on_c, 9, 42, 100
4, 3600, Note_on_c, 9, 38, 127
4, 3624, Note_off_c, 9, 42, 64
4, 3648, Note_off_c, 9, 38, 64
4, 3681, Control_c, 9, 7, 89
4, 3696, Note_on_c, 9, 38, 127
4, 3744, Note_off_c, 9, 38, 64
4, 3778, Control_c, 9, 7, 89
4, 3792, Note_on_c, 9, 46, 100
4, 3792, Note_on_c, 9, 36, 127
4, 3816, Note_off_c, 9, 46, 64
4, 3840, Note_off_c, 9, 36, 64
4, 3840, Note_on_c, 9, 44, 100
4, 3840, Note_on_c, 9, 36, 127
4, 3864, Note_off_c, 9, 44, 64
4, 3876, Control_c, 9, 7, 89
4, 3888, Note_off_c, 9, 36, 64
4, 3936, Note_on_c, 9, 42, 100
4, 3960, Note_off_c, 9, 42, 64
4, 3973, Control_c, 9, 7, 89
4, 3984, Note_on_c, 9, 42, 100
4, 3984, Note_on_c, 9, 36, 127
4, 4008, Note_off_c, 9, 42, 64
4, 4032, Note_off_c, 9, 36, 64
4, 4032, Note_on_c, 9, 42, 100
4, 4032, Note_on_c, 9, 38, 127
4, 4056, Note_off_c, 9, 42, 64
4, 4071, Control_c, 9, 7, 89
4, 4080, Note_off_c, 9, 38, 64
4, 4080, Note_on_c, 9, 42, 100
4, 4104, Note_off_c, 9, 42, 64
4, 4128, Note_on_c, 9, 42, 100
4, 4128, Note_on_c, 9, 36, 127
4, 4152, Note_off_c, 9, 42, 64
4, 4169, Control_c, 9, 7, 89
4, 4176, Note_off_c, 9, 36, 64
4, 4176, Note_on_c, 9, 42, 100
4, 4200, Note_off_c, 9, 42, 64
4, 4224, Note_on_c, 9, 42, 100
4, 4224, Note_on_c, 9, 36, 127
4, 4248, Note_off_c, 9, 42, 64
4, 4267, Control_c, 9, 7, 89
4, 4272, Note_off_c, 9, 36, 64
4, 4272, Note_on_c, 9, 42, 100
4, 4296, Note_off_c, 9, 42, 64
4, 4320, Note_on_c, 9, 42, 100
4, 4344, Note_off_c, 9, 42, 64
4, 4364, Control_c, 9, 7, 89
4, 4368, Note_on_c, 9, 46, 100
4, 4368, Note_on_c, 9, 38, 127
4, 4392, Note_off_c, 9, 46, 64
4, 4416, Note_off_c, 9, 38, 64
4, 4416, Note_on_c, 9, 44, 100
4, 4440, Note_off_c, 9, 44, 64
4, 4462, Control_c, 9, 7, 89
4, 4464, Note_on_c, 9, 42, 100
4, 4488, Note_off_c, 9, 42, 64
4, 4512, Note_on_c, 9, 42, 100
4, 4512, Note_on_c, 9, 36, 127
4, 4536, Note_off_c, 9, 42, 64
4, 4559, Control_c, 9, 7, 89
4, 4560, Note_off_c, 9, 36, 64
4, 4560, Note_on_c, 9, 42, 100
4, 4560, Note_on_c, 9, 38, 127
4, 4584, Note_off_c, 9, 42, 64
4, 4608, Note_off_c, 9, 38, 64
4, 4608, Note_on_c, 9, 46, 100
4, 4608, Note_on_c, 9, 36, 127
4, 4632, Note_off_c, 9, 46, 64
4, 4656, Note_off_c, 9, 36, 64
4, 4657, Control_c, 9, 7, 89
4, 4704, Note_on_c, 9, 44, 100
4, 4728, Note_off_c, 9, 44, 64
4, 4752, Note_on_c, 9, 42, 100
4, 4752, Note_on_c, 9, 36, 127
4, 4755, Control_c, 9, 7, 89
4, 4776, Note_off_c, 9, 42, 64
4, 4800, Note_off_c, 9, 36, 64
4, 4800, Note_on_c, 9, 42, 100
4, 4800, Note_on_c, 9, 38, 127
4, 4824, Note_off_c, 9, 42, 64
4, 4848, Note_off_c, 9, 38, 64
4, 4848, Note_on_c, 9, 42, 100
4, 4853, Control_c, 9, 7, 89
4, 4872, Note_off_c, 9, 42, 64
4, 4896, Note_on_c, 9, 42, 100
4, 4896, Note_on_c, 9, 36, 127
4, 4920, Note_off_c, 9, 42, 64
4, 4944, Note_off_c, 9, 36, 64
4, 4944, Note_on_c, 9, 42, 100
4, 4950, Control_c, 9, 7, 89
4, 4968, Note_off_c, 9, 42, 64
4, 4992, Note_on_c, 9, 42, 100
4, 4992, Note_on_c, 9, 36, 127
4, 5016, Note_off_c, 9, 42, 64
4, 5040, Note_off_c, 9, 36, 64
4, 5048, Control_c, 9, 7, 89
4, 5088, Note_on_c, 9, 42, 100
4, 5112, Note_off_c, 9, 42, 64
4, 5136, Note_on_c, 9, 42, 100
4, 5136, Note_on_c, 9, 38, 127
4, 5145, Control_c, 9, 7, 89
4, 5160, Note_off_c, 9, 42, 64
4, 5184, Note_off_c, 9, 38, 64
4, 5232, Note_on_c, 9, 38, 127
4, 5243, Control_c, 9, 7, 89
4, 5280, Note_off_c, 9, 38, 64
4, 5328, Note_on_c, 9, 46, 100
4, 5328, Note_on_c, 9, 36, 127
4, 5341, Control_c, 9, 7, 89
4, 5352, Note_off_c, 9, 46, 64
4, 5376, Note_off_c, 9, 36, 64
4, 5376, Note_on_c, 9, 44, 100
4, 5376, Note_on_c, 9, 36, 127
4, 5400, Note_off_c, 9, 44, 64
4, 5424, Note_off_c, 9, 36, 64
4, 5439, Control_c, 9, 7, 89
4, 5472, Note_on_c, 9, 42, 100
4, 5496, Note_off_c, 9, 42, 64
4, 5520, Note_on_c, 9, 42, 100
4, 5520, Note_on_c, 9, 36, 127
4, 5536, Control_c, 9, 7, 89
4, 5544, Note_off_c, 9, 42, 64
4, 5568, Note_off_c, 9, 36, 64
4, 5568, Note_on_c, 9, 42, 100
4, 5568, Note_on_c, 9, 38, 127
4, 5592, Note_off_c, 9, 42, 64
4, 5616, Note_off_c, 9, 38, 64
4, 5616, Note_on_c, 9, 42, 100
4, 5634, Control_c, 9, 7, 89
4, 5640, Note_off_c, 9, 42, 64
4, 5664, Note_on_c, 9, 42, 100
4, 5664, Note_on_c, 9, 36, 127
4, 5688, Note_off_c, 9, 42, 64
4, 5712, Note_off_c, 9, 36, 64
4, 5712, Note_on_c, 9, 42, 100
4, 5731, Control_c, 9, 7, 89
4, 5736, Note_off_c, 9, 42, 64
4, 5760, Note_on_c, 9, 42, 100
4, 5760, Note_on_c, 9, 36, 127
4, 5784, Note_off_c, 9, 42, 64
4, 5808, Note_off_c, 9, 36, 64
4, 5808, Note_on_c, 9, 42, 100
4, 5829, Control_c, 9, 7, 89
4, 5832, Note_off_c, 9, 42, 64
4, 5856, Note_on_c, 9, 42, 100
4, 5880, Note_off_c, 9, 42, 64
4, 5904, Note_on_c, 9, 46, 100
4, 5904, Note_on_c, 9, 38, 127
4, 5927, Control_c, 9, 7, 89
4, 5928, Note_off_c, 9, 46, 64
4, 5952, Note_off_c, 9, 38, 64
4, 5952, Note_on_c, 9, 44, 100
4, 5976, Note_off_c, 9, 44, 64
4, 6000, Note_on_c, 9, 42, 100
4, 6024, Note_off_c, 9, 42, 64
4, 6025, Control_c, 9, 7, 89
4, 6048, Note_on_c, 9, 42, 100
4, 6048, Note_on_c, 9, 36, 127
4, 6072, Note_off_c, 9, 42, 64
4, 6096, Note_off_c, 9, 36, 64
4, 6096, Note_on_c, 9, 42, 100
4, 6096, Note_on_c, 9, 38, 127
4, 6120, Note_off_c, 9, 42, 64
4, 6122, Control_c, 9, 7, 89
4, 6144, Note_off_c, 9, 38, 64
4, 6144, Note_on_c, 9, 46, 100
4, 6144, Note_on_c, 9, 36, 127
4, 6168, Note_off_c, 9, 46, 64
4, 6192, Note_off_c, 9, 36, 64
4, 6220, Control_c, 9, 7, 89
4, 6240, Note_on_c, 9, 44, 100
4, 6264, Note_off_c, 9, 44, 64
4, 6288, Note_on_c, 9, 42, 100
4, 6288, Note_on_c, 9, 36, 127
4, 6312, Note_off_c, 9, 42, 64
4, 6317, Control_c, 9, 7, 89
4, 6336, Note_off_c, 9, 36, 64
4, 6336, Note_on_c, 9, 42, 100
4, 6336, Note_on_c, 9, 38, 127
4, 6360, Note_off_c, 9, 42, 64
4, 6384, Note_off_c, 9, 38, 64
4, 6384, Note_on_c, 9, 42, 100
4, 6408, Note_off_c, 9, 42, 64
4, 6415, Control_c, 9, 7, 89
4, 6432, Note_on_c, 9, 42, 100
4, 6432, Note_on_c, 9, 36, 127
4, 6456, Note_off_c, 9, 42, 64
4, 6480, Note_off_c, 9, 36, 64
4, 6480, Note_on_c, 9, 42, 100
4, 6504, Note_off_c, 9, 42, 64
4, 6512, Control_c, 9, 7, 89
4, 6528, Note_on_c, 9, 42, 100
4, 6528, Note_on_c, 9, 36, 127
4, 6552, Note_off_c, 9, 42, 64
4, 6576, Note_off_c, 9, 36, 64
4, 6610, Control_c, 9, 7, 89
4, 6624, Note_on_c, 9, 42, 100
4, 6648, Note_off_c, 9, 42, 64
4, 6672, Note_on_c, 9, 42, 100
4, 6672, Note_on_c, 9, 38, 127
4, 6696, Note_off_c, 9, 42, 64
4, 6708, Control_c, 9, 7, 89
4, 6720, Note_off_c, 9, 38, 64
4, 6768, Note_on_c, 9, 38, 127
4, 6806, Control_c, 9, 7, 89
4, 6816, Note_off_c, 9, 38, 64
4, 6864, Note_on_c, 9, 46, 100
4, 6864, Note_on_c, 9, 36, 127
4, 6888, Note_off_c, 9, 46, 64
4, 6903, Control_c, 9, 7, 89
4, 6912, Note_off_c, 9, 36, 64
4, 6912, Note_on_c, 9, 44, 100
4, 6912, Note_on_c, 9, 36, 127
4, 6936, Note_off_c, 9, 44, 64
4, 6960, Note_off_c, 9, 36, 64
4, 7001, Control_c, 9, 7, 89
4, 7008, Note_on_c, 9, 42, 100
4, 7032, Note_off_c, 9, 42, 64
4, 7056, Note_on_c, 9, 42, 100
4, 7056, Note_on_c, 9, 36, 127
4, 7080, Note_off_c, 9, 42, 64
4, 7098, Control_c, 9, 7, 89
4, 7104, Note_off_c, 9, 36, 64
4, 7104, Note_on_c, 9, 42, 100
4, 7104, Note_on_c, 9, 38, 127
4, 7128, Note_off_c, 9, 42, 64
4, 7152, Note_off_c, 9, 38, 64
4, 7152, Note_on_c, 9, 42, 100
4, 7176, Note_off_c, 9, 42, 64
4, 7196, Control_c, 9, 7, 89
4, 7200, Note_on_c, 9, 42, 100
4, 7200, Note_on_c, 9, 36, 127
4, 7224, Note_off_c, 9, 42, 64
4, 7248, Note_off_c, 9, 36, 64
4, 7248, Note_on_c, 9, 42, 100
4, 7272, Note_off_c, 9, 42, 64
4, 7294, Control_c, 9, 7, 89
4, 7296, Note_on_c, 9, 42, 100
4, 7296, Note_on_c, 9, 36, 127
4, 7320, Note_off_c, 9, 42, 64
4, 7344, Note_off_c, 9, 36, 64
4, 7344, Note_on_c, 9, 42, 100
4, 7368, Note_off_c, 9, 42, 64
4, 7392, Note_on_c, 9, 42, 100
4, 7392, Control_c, 9, 7, 89
4, 7416, Note_off_c, 9, 42, 64
4, 7440, Note_on_c, 9, 46, 100
4, 7440, Note_on_c, 9, 38, 127
4, 7464, Note_off_c, 9, 46, 64
4, 7488, Note_off_c, 9, 38, 64
4, 7488, Note_on_c, 9, 44, 100
4, 7489, Control_c, 9, 7, 89
4, 7512, Note_off_c, 9, 44, 64
4, 7536, Note_on_c, 9, 42, 100
4, 7560, Note_off_c, 9, 42, 64
4, 7584, Note_on_c, 9, 42, 100
4, 7584, Note_on_c, 9, 36, 127
4, 7587, Control_c, 9, 7, 89
4, 7608, Note_off_c, 9, 42, 64
4, 7632, Note_off_c, 9, 36, 64
4, 7632, Note_on_c, 9, 42, 100
4, 7632, Note_on_c, 9, 38, 127
4, 7656, Note_off_c, 9, 42, 64
4, 7680, Note_off_c, 9, 38, 64
4, 7680, Note_on_c, 9, 46, 100
4, 7680, Note_on_c, 9, 36, 127
4, 7684, Control_c, 9, 7, 89
4, 7704, Note_off_c, 9, 46, 64
4, 7728, Note_off_c, 9, 36, 64
4, 7776, Note_on_c, 9, 44, 100
4, 7782, Control_c, 9, 7, 89
4, 7800, Note_off_c, 9, 44, 64
4, 7824, Note_on_c, 9, 42, 100
4, 7824, Note_on_c, 9, 36, 127
4, 7848, Note_off_c, 9, 42, 64
4, 7872, Note_off_c, 9, 36, 64
4, 7872, Note_on_c, 9, 42, 100
4, 7872, Note_on_c, 9, 38, 127
4, 7880, Control_c, 9, 7, 89
4, 7896, Note_off_c, 9, 42, 64
4, 7920, Note_off_c, 9, 38, 64
4, 7920, Note_on_c, 9, 42, 100
4, 7944, Note_off_c, 9, 42, 64
4, 7968, Note_on_c, 9, 42, 100
4, 7968, Note_on_c, 9, 36, 127
4, 7978, Control_c, 9, 7, 89
4, 7992, Note_off_c, 9, 42, 64
4, 8016, Note_off_c, 9, 36, 64
4, 8016, Note_on_c, 9, 42, 100
4, 8040, Note_off_c, 9, 42, 64
4, 8064, Note_on_c, 9, 42, 100
4, 8064, Note_on_c, 9, 36, 127
4, 8075, Control_c, 9, 7, 89
4, 8088, Note_off_c, 9, 42, 64
4, 8112, Note_off_c, 9, 36, 64
4, 8160, Note_on_c, 9, 42, 100
4, 8173, Control_c, 9, 7, 89
4, 8184, Note_off_c, 9, 42, 64
4, 8208, Note_on_c, 9, 42, 100
4, 8208, Note_on_c, 9, 38, 127
4, 8232, Note_off_c, 9, 42, 64
4, 8256, Note_off_c, 9, 38, 64
4, 8270, Control_c, 9, 7, 89
4, 8304, Note_on_c, 9, 38, 127
4, 8352, Note_off_c, 9, 38, 64
4, 8368, Control_c, 9, 7, 89
4, 8400, Note_on_c, 9, 46, 100
4, 8400, Note_on_c, 9, 36, 127
4, 8424, Note_off_c, 9, 46, 64
4, 8448, Note_off_c, 9, 36, 64
4, 8448, Note_on_c, 9, 44, 100
4, 8448, Note_on_c, 9, 36, 127
4, 8465, Control_c, 9, 7, 89
4, 8472, Note_off_c, 9, 44, 64
4, 8496, Note_off_c, 9, 36, 64
4, 8544, Note_on_c, 9, 42, 100
4, 8564, Control_c, 9, 7, 89
4, 8568, Note_off_c, 9, 42, 64
4, 8592, Note_on_c, 9, 42, 100
4, 8592, Note_on_c, 9, 36, 127
4, 8616, Note_off_c, 9, 42, 64
4, 8640, Note_off_c, 9, 36, 64
4, 8640, Note_on_c, 9, 42, 100
4, 8640, Note_on_c, 9, 38, 127
4, 8661, Control_c, 9, 7, 89
4, 8664, Note_off_c, 9, 42, 64
4, 8688, Note_off_c, 9, 38, 64
4, 8688, Note_on_c, 9, 42, 100
4, 8712, Note_off_c, 9, 42, 64
4, 8736, Note_on_c, 9, 42, 100
4, 8736, Note_on_c, 9, 36, 127
4, 8759, Control_c, 9, 7, 89
4, 8760, Note_off_c, 9, 42, 64
4, 8784, Note_off_c, 9, 36, 64
4, 8784, Note_on_c, 9, 42, 100
4, 8784, Note_on_c, 9, 36, 127
4, 8808, Note_off_c, 9, 42, 64
4, 8832, Note_off_c, 9, 36, 64
4, 8832, Note_on_c, 9, 42, 100
4, 8832, Note_on_c, 9, 38, 127
4, 8856, Note_off_c, 9, 42, 64
4, 8856, Control_c, 9, 7, 89
4, 8880, Note_off_c, 9, 38, 64
4, 8880, Note_on_c, 9, 42, 100
4, 8880, Note_on_c, 9, 36, 127
4, 8904, Note_off_c, 9, 42, 64
4, 8928, Note_off_c, 9, 36, 64
4, 8928, Note_on_c, 9, 42, 100
4, 8952, Note_off_c, 9, 42, 64
4, 8954, Control_c, 9, 7, 89
4, 8976, Note_on_c, 9, 46, 100
4, 8976, Note_on_c, 9, 38, 127
4, 9000, Note_off_c, 9, 46, 64
4, 9024, Note_off_c, 9, 38, 64
4, 9024, Note_on_c, 9, 44, 100
4, 9048, Note_off_c, 9, 44, 64
4, 9051, Control_c, 9, 7, 89
4, 9072, Note_on_c, 9, 42, 100
4, 9072, Note_on_c, 9, 38, 127
4, 9096, Note_off_c, 9, 42, 64
4, 9120, Note_off_c, 9, 38, 64
4, 9120, Note_on_c, 9, 42, 100
4, 9120, Note_on_c, 9, 36, 127
4, 9144, Note_off_c, 9, 42, 64
4, 9149, Control_c, 9, 7, 89
4, 9168, Note_off_c, 9, 36, 64
4, 9168, Note_on_c, 9, 42, 100
4, 9168, Note_on_c, 9, 36, 127
4, 9192, Note_off_c, 9, 42, 64
4, 9216, Note_off_c, 9, 36, 64
4, 9216, Note_on_c, 9, 46, 100
4, 9216, Note_on_c, 9, 36, 127
4, 9240, Note_off_c, 9, 46, 64
4, 9247, Control_c, 9, 7, 89
4, 9264, Note_off_c, 9, 36, 64
4, 9312, Note_on_c, 9, 44, 100
4, 9336, Note_off_c, 9, 44, 64
4, 9345, Control_c, 9, 7, 89
4, 9360, Note_on_c, 9, 42, 100
4, 9360, Note_on_c, 9, 36, 127
4, 9384, Note_off_c, 9, 42, 64
4, 9408, Note_off_c, 9, 36, 64
4, 9408, Note_on_c, 9, 42, 100
4, 9408, Note_on_c, 9, 38, 127
4, 9432, Note_off_c, 9, 42, 64
4, 9442, Control_c, 9, 7, 89
4, 9456, Note_off_c, 9, 38, 64
4, 9456, Note_on_c, 9, 42, 100
4, 9480, Note_off_c, 9, 42, 64
4, 9504, Note_on_c, 9, 42, 100
4, 9504, Note_on_c, 9, 36, 127
4, 9528, Note_off_c, 9, 42, 64
4, 9540, Control_c, 9, 7, 89
4, 9552, Note_off_c, 9, 36, 64
4, 9552, Note_on_c, 9, 42, 100
4, 9576, Note_off_c, 9, 42, 64
4, 9600, Note_on_c, 9, 42, 100
4, 9600, Note_on_c, 9, 36, 127
4, 9624, Note_off_c, 9, 42, 64
4, 9637, Control_c, 9, 7, 89
4, 9648, Note_off_c, 9, 36, 64
4, 9696, Note_on_c, 9, 42, 100
4, 9720, Note_off_c, 9, 42, 64
4, 9735, Control_c, 9, 7, 89
4, 9744, Note_on_c, 9, 42, 100
4, 9744, Note_on_c, 9, 38, 127
4, 9768, Note_off_c, 9, 42, 64
4, 9792, Note_off_c, 9, 38, 64
4, 9833, Control_c, 9, 7, 89
4, 9840, Note_on_c, 9, 38, 127
4, 9888, Note_off_c, 9, 38, 64
4, 9931, Control_c, 9, 7, 89
4, 9936, Note_on_c, 9, 46, 100
4, 9936, Note_on_c, 9, 36, 127
4, 9960, Note_off_c, 9, 46, 64
4, 9984, Note_off_c, 9, 36, 64
4, 9984, Note_on_c, 9, 44, 100
4, 9984, Note_on_c, 9, 36, 127
4, 10008, Note_off_c, 9, 44, 64
4, 10028, Control_c, 9, 7, 89
4, 10032, Note_off_c, 9, 36, 64
4, 10080, Note_on_c, 9, 42, 100
4, 10104, Note_off_c, 9, 42, 64
4, 10126, Control_c, 9, 7, 89
4, 10128, Note_on_c, 9, 42, 100
4, 10128, Note_on_c, 9, 36, 127
4, 10152, Note_off_c, 9, 42, 64
4, 10176, Note_off_c, 9, 36, 64
4, 10176, Note_on_c, 9, 42, 100
4, 10176, Note_on_c, 9, 38, 127
4, 10200, Note_off_c, 9, 42, 64
4, 10223, Control_c, 9, 7, 89
4, 10224, Note_off_c, 9, 38, 64
4, 10224, Note_on_c, 9, 42, 100
4, 10248, Note_off_c, 9, 42, 64
4, 10272, Note_on_c, 9, 42, 100
4, 10272, Note_on_c, 9, 36, 127
4, 10296, Note_off_c, 9, 42, 64
4, 10320, Note_off_c, 9, 36, 64
4, 10320, Note_on_c, 9, 42, 100
4, 10321, Control_c, 9, 7, 89
4, 10344, Note_off_c, 9, 42, 64
4, 10368, Note_on_c, 9, 42, 100
4, 10368, Note_on_c, 9, 36, 127
4, 10392, Note_off_c, 9, 42, 64
4, 10416, Note_off_c, 9, 36, 64
4, 10416, Note_on_c, 9, 42, 100
4, 10419, Control_c, 9, 7, 89
4, 10440, Note_off_c, 9, 42, 64
4, 10464, Note_on_c, 9, 42, 100
4, 10488, Note_off_c, 9, 42, 64
4, 10512, Note_on_c, 9, 46, 100
4, 10512, Note_on_c, 9, 38, 127
4, 10517, Control_c, 9, 7, 89
4, 10536, Note_off_c, 9, 46, 64
4, 10560, Note_off_c, 9, 38, 64
4, 10560, Note_on_c, 9, 44, 100
4, 10584, Note_off_c, 9, 44, 64
4, 10608, Note_on_c, 9, 42, 100
4, 10614, Control_c, 9, 7, 89
4, 10632, Note_off_c, 9, 42, 64
4, 10656, Note_on_c, 9, 42, 100
4, 10656, Note_on_c, 9, 36, 127
4, 10680, Note_off_c, 9, 42, 64
4, 10704, Note_off_c, 9, 36, 64
4, 10704, Note_on_c, 9, 42, 100
4, 10704, Note_on_c, 9, 38, 127
4, 10712, Control_c, 9, 7, 89
4, 10728, Note_off_c, 9, 42, 64
4, 10752, Note_off_c, 9, 38, 64
4, 10752, Note_on_c, 9, 46, 100
4, 10752, Note_on_c, 9, 36, 127
4, 10776, Note_off_c, 9, 46, 64
4, 10800, Note_off_c, 9, 36, 64
4, 10809, Control_c, 9, 7, 89
4, 10848, Note_on_c, 9, 44, 100
4, 10872, Note_off_c, 9, 44, 64
4, 10896, Note_on_c, 9, 42, 100
4, 10896, Note_on_c, 9, 36, 127
4, 10907, Control_c, 9, 7, 89
4, 10920, Note_off_c, 9, 42, 64
4, 10944, Note_off_c, 9, 36, 64
4, 10944, Note_on_c, 9, 42, 100
4, 10944, Note_on_c, 9, 38, 127
4, 10968, Note_off_c, 9, 42, 64
4, 10992, Note_off_c, 9, 38, 64
4, 10992, Note_on_c, 9, 42, 100
4, 11004, Control_c, 9, 7, 89
4, 11016, Note_off_c, 9, 42, 64
4, 11040, Note_on_c, 9, 42, 100
4, 11040, Note_on_c, 9, 36, 127
4, 11064, Note_off_c, 9, 42, 64
4, 11088, Note_off_c, 9, 36, 64
4, 11088, Note_on_c, 9, 42, 100
4, 11103, Control_c, 9, 7, 89
4, 11112, Note_off_c, 9, 42, 64
4, 11136, Note_on_c, 9, 42, 100
4, 11136, Note_on_c, 9, 36, 127
4, 11160, Note_off_c, 9, 42, 64
4, 11184, Note_off_c, 9, 36, 64
4, 11200, Control_c, 9, 7, 89
4, 11232, Note_on_c, 9, 42, 100
4, 11256, Note_off_c, 9, 42, 64
4, 11280, Note_on_c, 9, 42, 100
4, 11280, Note_on_c, 9, 38, 127
4, 11298, Control_c, 9, 7, 89
4, 11304, Note_off_c, 9, 42, 64
4, 11328, Note_off_c, 9, 38, 64
4, 11376, Note_on_c, 9, 38, 127
4, 11395, Control_c, 9, 7, 89
4, 11424, Note_off_c, 9, 38, 64
4, 11472, Note_on_c, 9, 46, 100
4, 11472, Note_on_c, 9, 36, 127
4, 11493, Control_c, 9, 7, 89
4, 11496, Note_off_c, 9, 46, 64
4, 11520, Note_off_c, 9, 36, 64
4, 11520, Note_on_c, 9, 44, 100
4, 11520, Note_on_c, 9, 36, 127
4, 11544, Note_off_c, 9, 44, 64
4, 11568, Note_off_c, 9, 36, 64
4, 11590, Control_c, 9, 7, 89
4, 11616, Note_on_c, 9, 42, 100
4, 11640, Note_off_c, 9, 42, 64
4, 11664, Note_on_c, 9, 42, 100
4, 11664, Note_on_c, 9, 36, 127
4, 11688, Note_off_c, 9, 42, 64
4, 11688, Control_c, 9, 7, 89
4, 11712, Note_off_c, 9, 36, 64
4, 11712, Note_on_c, 9, 42, 100
4, 11712, Note_on_c, 9, 38, 127
4, 11736, Note_off_c, 9, 42, 64
4, 11760, Note_off_c, 9, 38, 64
4, 11760, Note_on_c, 9, 42, 100
4, 11784, Note_off_c, 9, 42, 64
4, 11786, Control_c, 9, 7, 89
4, 11808, Note_on_c, 9, 42, 100
4, 11808, Note_on_c, 9, 36, 127
4, 11832, Note_off_c, 9, 42, 64
4, 11856, Note_off_c, 9, 36, 64
4, 11856, Note_on_c, 9, 42, 100
4, 11880, Note_off_c, 9, 42, 64
4, 11884, Control_c, 9, 7, 89
4, 11904, Note_on_c, 9, 42, 100
4, 11904, Note_on_c, 9, 36, 127
4, 11928, Note_off_c, 9, 42, 64
4, 11952, Note_off_c, 9, 36, 64
4, 11952, Note_on_c, 9, 42, 100
4, 11976, Note_off_c, 9, 42, 64
4, 11981, Control_c, 9, 7, 89
4, 12000, Note_on_c, 9, 42, 100
4, 12024, Note_off_c, 9, 42, 64
4, 12048, Note_on_c, 9, 46, 100
4, 12048, Note_on_c, 9, 38, 127
4, 12072, Note_off_c, 9, 46, 64
4, 12079, Control_c, 9, 7, 89
4, 12096, Note_off_c, 9, 38, 64
4, 12096, Note_on_c, 9, 44, 100
4, 12120, Note_off_c, 9, 44, 64
4, 12144, Note_on_c, 9, 42, 100
4, 12168, Note_off_c, 9, 42, 64
4, 12176, Control_c, 9, 7, 89
4, 12192, Note_on_c, 9, 42, 100
4, 12192, Note_on_c, 9, 36, 127
4, 12216, Note_off_c, 9, 42, 64
4, 12240, Note_off_c, 9, 36, 64
4, 12240, Note_on_c, 9, 42, 100
4, 12240, Note_on_c, 9, 38, 127
4, 12264, Note_off_c, 9, 42, 64
4, 12274, Control_c, 9, 7, 89
4, 12288, Note_off_c, 9, 38, 64
4, 12288, Note_on_c, 9, 46, 100
4, 12288, Note_on_c, 9, 36, 127
4, 12312, Note_off_c, 9, 46, 64
4, 12336, Note_off_c, 9, 36, 64
4, 12372, Control_c, 9, 7, 89
4, 12384, Note_on_c, 9, 44, 100
4, 12408, Note_off_c, 9, 44, 64
4, 12432, Note_on_c, 9, 42, 100
4, 12432, Note_on_c, 9, 36, 127
4, 12456, Note_off_c, 9, 42, 64
4, 12470, Control_c, 9, 7, 89
4, 12480, Note_off_c, 9, 36, 64
4, 12480, Note_on_c, 9, 42, 100
4, 12480, Note_on_c, 9, 38, 127
4, 12504, Note_off_c, 9, 42, 64
4, 12528, Note_off_c, 9, 38, 64
4, 12528, Note_on_c, 9, 42, 100
4, 12552, Note_off_c, 9, 42, 64
4, 12567, Control_c, 9, 7, 89
4, 12576, Note_on_c, 9, 42, 100
4, 12576, Note_on_c, 9, 36, 127
4, 12600, Note_off_c, 9, 42, 64
4, 12624, Note_off_c, 9, 36, 64
4, 12624, Note_on_c, 9, 42, 100
4, 12648, Note_off_c, 9, 42, 64
4, 12665, Control_c, 9, 7, 89
4, 12672, Note_on_c, 9, 42, 100
4, 12672, Note_on_c, 9, 36, 127
4, 12696, Note_off_c, 9, 42, 64
4, 12720, Note_off_c, 9, 36, 64
4, 12762, Control_c, 9, 7, 89
4, 12768, Note_on_c, 9, 42, 100
4, 12792, Note_off_c, 9, 42, 64
4, 12816, Note_on_c, 9, 42, 100
4, 12816, Note_on_c, 9, 38, 127
4, 12840, Note_off_c, 9, 42, 64
4, 12860, Control_c, 9, 7, 89
4, 12864, Note_off_c, 9, 38, 64
4, 12912, Note_on_c, 9, 38, 127
4, 12958, Control_c, 9, 7, 89
4, 12960, Note_off_c, 9, 38, 64
4, 13008, Note_on_c, 9, 46, 100
4, 13008, Note_on_c, 9, 36, 127
4, 13032, Note_off_c, 9, 46, 64
4, 13056, Note_off_c, 9, 36, 64
4, 13056, Note_on_c, 9, 44, 100
4, 13056, Note_on_c, 9, 36, 127
4, 13056, Control_c, 9, 7, 89
4, 13080, Note_off_c, 9, 44, 64
4, 13104, Note_off_c, 9, 36, 64
4, 13152, Note_on_c, 9, 42, 100
4, 13153, Control_c, 9, 7, 89
4, 13176, Note_off_c, 9, 42, 64
4, 13200, Note_on_c, 9, 42, 100
4, 13200, Note_on_c, 9, 36, 127
4, 13224, Note_off_c, 9, 42, 64
4, 13248, Note_off_c, 9, 36, 64
4, 13248, Note_on_c, 9, 42, 100
4, 13248, Note_on_c, 9, 38, 127
4, 13251, Control_c, 9, 7, 89
4, 13272, Note_off_c, 9, 42, 64
4, 13296, Note_off_c, 9, 38, 64
4, 13296, Note_on_c, 9, 42, 100
4, 13320, Note_off_c, 9, 42, 64
4, 13344, Note_on_c, 9, 42, 100
4, 13344, Note_on_c, 9, 36, 127
4, 13348, Control_c, 9, 7, 89
4, 13368, Note_off_c, 9, 42, 64
4, 13392, Note_off_c, 9, 36, 64
4, 13392, Note_on_c, 9, 42, 100
4, 13416, Note_off_c, 9, 42, 64
4, 13440, Note_on_c, 9, 42, 100
4, 13440, Note_on_c, 9, 36, 127
4, 13446, Control_c, 9, 7, 89
4, 13464, Note_off_c, 9, 42, 64
4, 13488, Note_off_c, 9, 36, 64
4, 13488, Note_on_c, 9, 42, 100
4, 13512, Note_off_c, 9, 42, 64
4, 13536, Note_on_c, 9, 42, 100
4, 13543, Control_c, 9, 7, 89
4, 13560, Note_off_c, 9, 42, 64
4, 13584, Note_on_c, 9, 46, 100
4, 13584, Note_on_c, 9, 38, 127
4, 13608, Note_off_c, 9, 46, 64
4, 13632, Note_off_c, 9, 38, 64
4, 13632, Note_on_c, 9, 44, 100
4, 13641, Control_c, 9, 7, 89
4, 13656, Note_off_c, 9, 44, 64
4, 13680, Note_on_c, 9, 42, 100
4, 13704, Note_off_c, 9, 42, 64
4, 13728, Note_on_c, 9, 42, 100
4, 13728, Note_on_c, 9, 36, 127
4, 13739, Control_c, 9, 7, 89
4, 13752, Note_off_c, 9, 42, 64
4, 13776, Note_off_c, 9, 36, 64
4, 13776, Note_on_c, 9, 42, 100
4, 13776, Note_on_c, 9, 38, 127
4, 13800, Note_off_c, 9, 42, 64
4, 13824, Note_off_c, 9, 38, 64
4, 13824, Note_on_c, 9, 46, 100
4, 13824, Note_on_c, 9, 36, 127
4, 13837, Control_c, 9, 7, 89
4, 13848, Note_off_c, 9, 46, 64
4, 13872, Note_off_c, 9, 36, 64
4, 13920, Note_on_c, 9, 44, 100
4, 13934, Control_c, 9, 7, 89
4, 13944, Note_off_c, 9, 44, 64
4, 13968, Note_on_c, 9, 42, 100
4, 13968, Note_on_c, 9, 36, 127
4, 13992, Note_off_c, 9, 42, 64
4, 14016, Note_off_c, 9, 36, 64
4, 14016, Note_on_c, 9, 42, 100
4, 14016, Note_on_c, 9, 38, 127
4, 14032, Control_c, 9, 7, 89
4, 14040, Note_off_c, 9, 42, 64
4, 14064, Note_off_c, 9, 38, 64
4, 14064, Note_on_c, 9, 42, 100
4, 14088, Note_off_c, 9, 42, 64
4, 14112, Note_on_c, 9, 42, 100
4, 14112, Note_on_c, 9, 36, 127
4, 14129, Control_c, 9, 7, 89
4, 14136, Note_off_c, 9, 42, 64
4, 14160, Note_off_c, 9, 36, 64
4, 14160, Note_on_c, 9, 42, 100
4, 14184, Note_off_c, 9, 42, 64
4, 14208, Note_on_c, 9, 42, 100
4, 14208, Note_on_c, 9, 36, 127
4, 14227, Control_c, 9, 7, 89
4, 14232, Note_off_c, 9, 42, 64
4, 14256, Note_off_c, 9, 36, 64
4, 14304, Note_on_c, 9, 42, 100
4, 14325, Control_c, 9, 7, 89
4, 14328, Note_off_c, 9, 42, 64
4, 14352, Note_on_c, 9, 42, 100
4, 14352, Note_on_c, 9, 38, 127
4, 14376, Note_off_c, 9, 42, 64
4, 14400, Note_off_c, 9, 38, 64
4, 14423, Control_c, 9, 7, 89
4, 14448, Note_on_c, 9, 38, 127
4, 14496, Note_off_c, 9, 38, 64
4, 14520, Control_c, 9, 7, 89
4, 14544, Note_on_c, 9, 46, 100
4, 14544, Note_on_c, 9, 36, 127
4, 14568, Note_off_c, 9, 46, 64
4, 14592, Note_off_c, 9, 36, 64
4, 14592, Note_on_c, 9, 35, 127
4, 14616, Note_off_c, 9, 35, 64
4, 14618, Control_c, 9, 7, 89
4, 14715, Control_c, 9, 7, 89
4, 14736, Note_on_c, 9, 35, 127
4, 14760, Note_off_c, 9, 35, 64
4, 14784, Note_on_c, 9, 40, 127
4, 14808, Note_off_c, 9, 40, 64
4, 14813, Control_c, 9, 7, 89
4, 14880, Note_on_c, 9, 35, 127
4, 14904, Note_off_c, 9, 35, 64
4, 14911, Control_c, 9, 7, 89
4, 14976, Note_on_c, 9, 35, 127
4, 15000, Note_off_c, 9, 35, 64
4, 15009, Control_c, 9, 7, 89
4, 15106, Control_c, 9, 7, 89
4, 15204, Control_c, 9, 7, 89
4, 15264, Note_on_c, 9, 36, 127
4, 15264, Note_on_c, 9, 38, 127
4, 15288, Note_off_c, 9, 36, 64
4, 15288, Note_off_c, 9, 38, 64
4, 15301, Control_c, 9, 7, 89
4, 15360, Note_on_c, 9, 49, 127
4, 15360, Note_on_c, 9, 46, 100
4, 15360, Note_on_c, 9, 36, 127
4, 15384, Note_off_c, 9, 46, 64
4, 15399, Control_c, 9, 7, 89
4, 15408, Note_off_c, 9, 36, 64
4, 15456, Note_on_c, 9, 44, 100
4, 15480, Note_off_c, 9, 44, 64
4, 15497, Control_c, 9, 7, 89
4, 15504, Note_on_c, 9, 42, 100
4, 15504, Note_on_c, 9, 36, 127
4, 15528, Note_off_c, 9, 42, 64
4, 15552, Note_off_c, 9, 36, 64
4, 15552, Note_on_c, 9, 42, 100
4, 15552, Note_on_c, 9, 38, 127
4, 15576, Note_off_c, 9, 42, 64
4, 15595, Control_c, 9, 7, 89
4, 15600, Note_off_c, 9, 38, 64
4, 15600, Note_on_c, 9, 42, 100
4, 15624, Note_off_c, 9, 42, 64
4, 15648, Note_on_c, 9, 42, 100
4, 15648, Note_on_c, 9, 36, 127
4, 15672, Note_off_c, 9, 42, 64
4, 15692, Control_c, 9, 7, 89
4, 15696, Note_off_c, 9, 36, 64
4, 15696, Note_on_c, 9, 42, 100
4, 15720, Note_off_c, 9, 42, 64
4, 15744, Note_on_c, 9, 42, 100
4, 15744, Note_on_c, 9, 36, 127
4, 15768, Note_off_c, 9, 42, 64
4, 15790, Control_c, 9, 7, 89
4, 15792, Note_off_c, 9, 36, 64
4, 15840, Note_on_c, 9, 42, 100
4, 15864, Note_off_c, 9, 42, 64
4, 15887, Control_c, 9, 7, 89
4, 15888, Note_on_c, 9, 42, 100
4, 15888, Note_on_c, 9, 38, 127
4, 15912, Note_off_c, 9, 42, 64
4, 15936, Note_off_c, 9, 38, 64
4, 15984, Note_on_c, 9, 38, 127
4, 15985, Control_c, 9, 7, 89
4, 16032, Note_off_c, 9, 38, 64
4, 16080, Note_on_c, 9, 46, 100
4, 16080, Note_on_c, 9, 36, 127
4, 16082, Control_c, 9, 7, 89
4, 16104, Note_off_c, 9, 46, 64
4, 16128, Note_off_c, 9, 36, 64
4, 16128, Note_on_c, 9, 44, 100
4, 16128, Note_on_c, 9, 36, 127
4, 16152, Note_off_c, 9, 44, 64
4, 16176, Note_off_c, 9, 36, 64
4, 16180, Control_c, 9, 7, 89
4, 16224, Note_on_c, 9, 42, 100
4, 16248, Note_off_c, 9, 42, 64
4, 16272, Note_on_c, 9, 42, 100
4, 16272, Note_on_c, 9, 36, 127
4, 16278, Control_c, 9, 7, 89
4, 16296, Note_off_c, 9, 42, 64
4, 16320, Note_off_c, 9, 36, 64
4, 16320, Note_on_c, 9, 42, 100
4, 16320, Note_on_c, 9, 38, 127
4, 16344, Note_off_c, 9, 42, 64
4, 16368, Note_off_c, 9, 38, 64
4, 16368, Note_on_c, 9, 42, 100
4, 16376, Control_c, 9, 7, 89
4, 16392, Note_off_c, 9, 42, 64
4, 16416, Note_on_c, 9, 42, 100
4, 16416, Note_on_c, 9, 36, 127
4, 16440, Note_off_c, 9, 42, 64
4, 16464, Note_off_c, 9, 36, 64
4, 16464, Note_on_c, 9, 42, 100
4, 16473, Control_c, 9, 7, 89
4, 16488, Note_off_c, 9, 42, 64
4, 16512, Note_on_c, 9, 42, 100
4, 16512, Note_on_c, 9, 36, 127
4, 16536, Note_off_c, 9, 42, 64
4, 16560, Note_off_c, 9, 36, 64
4, 16560, Note_on_c, 9, 42, 100
4, 16571, Control_c, 9, 7, 89
4, 16584, Note_off_c, 9, 42, 64
4, 16608, Note_off_c, 9, 49, 64
4, 16608, Note_on_c, 9, 42, 100
4, 16632, Note_off_c, 9, 42, 64
4, 16656, Note_on_c, 9, 46, 100
4, 16656, Note_on_c, 9, 38, 127
4, 16668, Control_c, 9, 7, 89
4, 16680, Note_off_c, 9, 46, 64
4, 16704, Note_off_c, 9, 38, 64
4, 16704, Note_on_c, 9, 44, 100
4, 16728, Note_off_c, 9, 44, 64
4, 16752, Note_on_c, 9, 42, 100
4, 16766, Control_c, 9, 7, 89
4, 16776, Note_off_c, 9, 42, 64
4, 16800, Note_on_c, 9, 42, 100
4, 16800, Note_on_c, 9, 36, 127
4, 16824, Note_off_c, 9, 42, 64
4, 16848, Note_off_c, 9, 36, 64
4, 16848, Note_on_c, 9, 42, 100
4, 16864, Control_c, 9, 7, 89
4, 16872, Note_off_c, 9, 42, 64
4, 16896, Note_on_c, 9, 46, 100
4, 16896, Note_on_c, 9, 36, 127
4, 16920, Note_off_c, 9, 46, 64
4, 16944, Note_off_c, 9, 36, 64
4, 16962, Control_c, 9, 7, 89
4, 16992, Note_on_c, 9, 44, 100
4, 17016, Note_off_c, 9, 44, 64
4, 17040, Note_on_c, 9, 42, 100
4, 17040, Note_on_c, 9, 36, 127
4, 17059, Control_c, 9, 7, 89
4, 17064, Note_off_c, 9, 42, 64
4, 17088, Note_off_c, 9, 36, 64
4, 17088, Note_on_c, 9, 42, 100
4, 17088, Note_on_c, 9, 38, 127
4, 17112, Note_off_c, 9, 42, 64
4, 17136, Note_off_c, 9, 38, 64
4, 17136, Note_on_c, 9, 42, 100
4, 17157, Control_c, 9, 7, 89
4, 17160, Note_off_c, 9, 42, 64
4, 17184, Note_on_c, 9, 42, 100
4, 17184, Note_on_c, 9, 36, 127
4, 17208, Note_off_c, 9, 42, 64
4, 17232, Note_off_c, 9, 36, 64
4, 17232, Note_on_c, 9, 42, 100
4, 17254, Control_c, 9, 7, 89
4, 17256, Note_off_c, 9, 42, 64
4, 17280, Note_on_c, 9, 42, 100
4, 17280, Note_on_c, 9, 36, 127
4, 17304, Note_off_c, 9, 42, 64
4, 17328, Note_off_c, 9, 36, 64
4, 17352, Control_c, 9, 7, 89
4, 17376, Note_on_c, 9, 42, 100
4, 17400, Note_off_c, 9, 42, 64
4, 17424, Note_on_c, 9, 42, 100
4, 17424, Note_on_c, 9, 38, 127
4, 17448, Note_off_c, 9, 42, 64
4, 17450, Control_c, 9, 7, 89
4, 17472, Note_off_c, 9, 38, 64
4, 17520, Note_on_c, 9, 38, 127
4, 17548, Control_c, 9, 7, 89
4, 17568, Note_off_c, 9, 38, 64
4, 17616, Note_on_c, 9, 46, 100
4, 17616, Note_on_c, 9, 36, 127
4, 17640, Note_off_c, 9, 46, 64
4, 17645, Control_c, 9, 7, 89
4, 17664, Note_off_c, 9, 36, 64
4, 17664, Note_on_c, 9, 44, 100
4, 17664, Note_on_c, 9, 36, 127
4, 17688, Note_off_c, 9, 44, 64
4, 17712, Note_off_c, 9, 36, 64
4, 17743, Control_c, 9, 7, 89
4, 17760, Note_on_c, 9, 42, 100
4, 17784, Note_off_c, 9, 42, 64
4, 17808, Note_on_c, 9, 42, 100
4, 17808, Note_on_c, 9, 36, 127
4, 17832, Note_off_c, 9, 42, 64
4, 17840, Control_c, 9, 7, 89
4, 17856, Note_off_c, 9, 36, 64
4, 17856, Note_on_c, 9, 42, 100
4, 17880, Note_off_c, 9, 42, 64
4, 17904, Note_on_c, 9, 42, 100
4, 17928, Note_off_c, 9, 42, 64
4, 17938, Control_c, 9, 7, 89
4, 17952, Note_on_c, 9, 42, 100
4, 17952, Note_on_c, 9, 36, 127
4, 17976, Note_off_c, 9, 42, 64
4, 18000, Note_off_c, 9, 36, 64
4, 18000, Note_on_c, 9, 42, 100
4, 18024, Note_off_c, 9, 42, 64
4, 18035, Control_c, 9, 7, 89
4, 18048, Note_on_c, 9, 42, 100
4, 18048, Note_on_c, 9, 36, 127
4, 18072, Note_off_c, 9, 42, 64
4, 18096, Note_off_c, 9, 36, 64
4, 18096, Note_on_c, 9, 42, 100
4, 18120, Note_off_c, 9, 42, 64
4, 18134, Control_c, 9, 7, 89
4, 18144, Note_on_c, 9, 42, 100
4, 18168, Note_off_c, 9, 42, 64
4, 18192, Note_on_c, 9, 36, 127
4, 18192, Note_on_c, 9, 46, 100
4, 18216, Note_off_c, 9, 46, 64
4, 18216, Note_off_c, 9, 36, 64
4, 18231, Control_c, 9, 7, 89
4, 18240, Note_on_c, 9, 38, 127
4, 18240, Note_on_c, 9, 44, 100
4, 18264, Note_off_c, 9, 44, 64
4, 18264, Note_off_c, 9, 38, 64
4, 18288, Note_on_c, 9, 36, 127
4, 18288, Note_on_c, 9, 42, 100
4, 18312, Note_off_c, 9, 42, 64
4, 18312, Note_off_c, 9, 36, 64
4, 18329, Control_c, 9, 7, 89
4, 18336, Note_on_c, 9, 38, 127
4, 18336, Note_on_c, 9, 42, 100
4, 18360, Note_off_c, 9, 42, 64
4, 18360, Note_off_c, 9, 38, 64
4, 18384, Note_on_c, 9, 36, 127
4, 18384, Note_on_c, 9, 38, 127
4, 18384, Note_on_c, 9, 42, 100
4, 18408, Note_off_c, 9, 42, 64
4, 18408, Note_off_c, 9, 38, 64
4, 18408, Note_off_c, 9, 36, 64
4, 18426, Control_c, 9, 7, 89
4, 18524, Control_c, 9, 7, 89
4, 18621, Control_c, 9, 7, 89
4, 18719, Control_c, 9, 7, 89
4, 18817, Control_c, 9, 7, 89
4, 18915, Control_c, 9, 7, 89
4, 19012, Control_c, 9, 7, 89
4, 19110, Control_c, 9, 7, 89
4, 19207, Control_c, 9, 7, 89
4, 19305, Control_c, 9, 7, 89
4, 19403, Control_c, 9, 7, 89
4, 19501, Control_c, 9, 7, 89
4, 19598, Control_c, 9, 7, 89
4, 19696, Control_c, 9, 7, 89
4, 19793, Control_c, 9, 7, 89
4, 19891, Control_c, 9, 7, 89
4, 19989, Control_c, 9, 7, 89
4, 20087, Control_c, 9, 7, 89
4, 20184, Control_c, 9, 7, 89
4, 20282, Control_c, 9, 7, 89
4, 20379, Control_c, 9, 7, 89
4, 20477, Control_c, 9, 7, 89
4, 20574, Control_c, 9, 7, 89
4, 20673, Control_c, 9, 7, 89
4, 20736, Note_on_c, 9, 39, 108
4, 20736, Note_on_c, 9, 40, 108
4, 20760, Note_off_c, 9, 40, 64
4, 20760, Note_off_c, 9, 39, 64
4, 20770, Control_c, 9, 7, 89
4, 20868, Control_c, 9, 7, 89
4, 20880, Note_on_c, 9, 39, 108
4, 20880, Note_on_c, 9, 40, 108
4, 20904, Note_off_c, 9, 40, 64
4, 20904, Note_off_c, 9, 39, 64
4, 20965, Control_c, 9, 7, 89
4, 21024, Note_on_c, 9, 39, 108
4, 21024, Note_on_c, 9, 40, 108
4, 21048, Note_off_c, 9, 40, 64
4, 21048, Note_off_c, 9, 39, 64
4, 21063, Control_c, 9, 7, 89
4, 21160, Control_c, 9, 7, 89
4, 21168, Note_on_c, 9, 39, 108
4, 21168, Note_on_c, 9, 40, 108
4, 21192, Note_off_c, 9, 40, 64
4, 21192, Note_off_c, 9, 39, 64
4, 21258, Control_c, 9, 7, 89
4, 21264, Note_on_c, 9, 39, 108
4, 21264, Note_on_c, 9, 40, 108
4, 21288, Note_off_c, 9, 40, 64
4, 21288, Note_off_c, 9, 39, 64
4, 21356, Control_c, 9, 7, 89
4, 21360, Note_on_c, 9, 39, 108
4, 21360, Note_on_c, 9, 40, 108
4, 21384, Note_off_c, 9, 40, 64
4, 21384, Note_off_c, 9, 39, 64
4, 21408, Note_on_c, 9, 39, 108
4, 21408, Note_on_c, 9, 40, 108
4, 21432, Note_off_c, 9, 40, 64
4, 21432, Note_off_c, 9, 39, 64
4, 21454, Control_c, 9, 7, 89
4, 21504, Note_on_c, 9, 46, 100
4, 21504, Note_on_c, 9, 36, 127
4, 21528, Note_off_c, 9, 46, 64
4, 21551, Control_c, 9, 7, 89
4, 21552, Note_off_c, 9, 36, 64
4, 21600, Note_on_c, 9, 44, 100
4, 21624, Note_off_c, 9, 44, 64
4, 21648, Note_on_c, 9, 42, 100
4, 21648, Note_on_c, 9, 36, 127
4, 21649, Control_c, 9, 7, 89
4, 21672, Note_off_c, 9, 42, 64
4, 21696, Note_off_c, 9, 36, 64
4, 21696, Note_on_c, 9, 42, 100
4, 21696, Note_on_c, 9, 38, 127
4, 21720, Note_off_c, 9, 42, 64
4, 21744, Note_off_c, 9, 38, 64
4, 21744, Note_on_c, 9, 42, 100
4, 21746, Control_c, 9, 7, 89
4, 21768, Note_off_c, 9, 42, 64
4, 21792, Note_on_c, 9, 42, 100
4, 21792, Note_on_c, 9, 36, 127
4, 21816, Note_off_c, 9, 42, 64
4, 21840, Note_off_c, 9, 36, 64
4, 21840, Note_on_c, 9, 42, 100
4, 21844, Control_c, 9, 7, 89
4, 21864, Note_off_c, 9, 42, 64
4, 21888, Note_on_c, 9, 42, 100
4, 21888, Note_on_c, 9, 36, 127
4, 21912, Note_off_c, 9, 42, 64
4, 21936, Note_off_c, 9, 36, 64
4, 21942, Control_c, 9, 7, 89
4, 21984, Note_on_c, 9, 42, 100
4, 22008, Note_off_c, 9, 42, 64
4, 22032, Note_on_c, 9, 42, 100
4, 22032, Note_on_c, 9, 38, 127
4, 22040, Control_c, 9, 7, 89
4, 22056, Note_off_c, 9, 42, 64
4, 22080, Note_off_c, 9, 38, 64
4, 22128, Note_on_c, 9, 38, 127
4, 22137, Control_c, 9, 7, 89
4, 22176, Note_off_c, 9, 38, 64
4, 22224, Note_on_c, 9, 46, 100
4, 22224, Note_on_c, 9, 36, 127
4, 22235, Control_c, 9, 7, 89
4, 22248, Note_off_c, 9, 46, 64
4, 22272, Note_off_c, 9, 36, 64
4, 22272, Note_on_c, 9, 44, 100
4, 22272, Note_on_c, 9, 36, 127
4, 22296, Note_off_c, 9, 44, 64
4, 22320, Note_off_c, 9, 36, 64
4, 22332, Control_c, 9, 7, 89
4, 22368, Note_on_c, 9, 42, 100
4, 22392, Note_off_c, 9, 42, 64
4, 22416, Note_on_c, 9, 42, 100
4, 22416, Note_on_c, 9, 36, 127
4, 22430, Control_c, 9, 7, 89
4, 22440, Note_off_c, 9, 42, 64
4, 22464, Note_off_c, 9, 36, 64
4, 22464, Note_on_c, 9, 42, 100
4, 22464, Note_on_c, 9, 38, 127
4, 22488, Note_off_c, 9, 42, 64
4, 22512, Note_off_c, 9, 38, 64
4, 22512, Note_on_c, 9, 42, 100
4, 22528, Control_c, 9, 7, 89
4, 22536, Note_off_c, 9, 42, 64
4, 22560, Note_on_c, 9, 42, 100
4, 22560, Note_on_c, 9, 36, 127
4, 22584, Note_off_c, 9, 42, 64
4, 22608, Note_off_c, 9, 36, 64
4, 22608, Note_on_c, 9, 42, 100
4, 22626, Control_c, 9, 7, 89
4, 22632, Note_off_c, 9, 42, 64
4, 22656, Note_on_c, 9, 42, 100
4, 22656, Note_on_c, 9, 36, 127
4, 22680, Note_off_c, 9, 42, 64
4, 22704, Note_off_c, 9, 36, 64
4, 22704, Note_on_c, 9, 42, 100
4, 22723, Control_c, 9, 7, 89
4, 22728, Note_off_c, 9, 42, 64
4, 22752, Note_on_c, 9, 42, 100
4, 22776, Note_off_c, 9, 42, 64
4, 22800, Note_on_c, 9, 46, 100
4, 22800, Note_on_c, 9, 38, 127
4, 22821, Control_c, 9, 7, 89
4, 22824, Note_off_c, 9, 46, 64
4, 22848, Note_off_c, 9, 38, 64
4, 22848, Note_on_c, 9, 44, 100
4, 22872, Note_off_c, 9, 44, 64
4, 22896, Note_on_c, 9, 42, 100
4, 22918, Control_c, 9, 7, 89
4, 22920, Note_off_c, 9, 42, 64
4, 22944, Note_on_c, 9, 42, 100
4, 22944, Note_on_c, 9, 36, 127
4, 22968, Note_off_c, 9, 42, 64
4, 22992, Note_off_c, 9, 36, 64
4, 22992, Note_on_c, 9, 42, 100
4, 23016, Note_off_c, 9, 42, 64
4, 23016, Control_c, 9, 7, 89
4, 23040, Note_on_c, 9, 46, 100
4, 23040, Note_on_c, 9, 36, 127
4, 23064, Note_off_c, 9, 46, 64
4, 23088, Note_off_c, 9, 36, 64
4, 23113, Control_c, 9, 7, 89
4, 23136, Note_on_c, 9, 44, 100
4, 23160, Note_off_c, 9, 44, 64
4, 23184, Note_on_c, 9, 42, 100
4, 23184, Note_on_c, 9, 36, 127
4, 23208, Note_off_c, 9, 42, 64
4, 23211, Control_c, 9, 7, 89
4, 23232, Note_off_c, 9, 36, 64
4, 23232, Note_on_c, 9, 42, 100
4, 23232, Note_on_c, 9, 38, 127
4, 23256, Note_off_c, 9, 42, 64
4, 23280, Note_off_c, 9, 38, 64
4, 23280, Note_on_c, 9, 42, 100
4, 23304, Note_off_c, 9, 42, 64
4, 23309, Control_c, 9, 7, 89
4, 23328, Note_on_c, 9, 42, 100
4, 23328, Note_on_c, 9, 36, 127
4, 23352, Note_off_c, 9, 42, 64
4, 23376, Note_off_c, 9, 36, 64
4, 23376, Note_on_c, 9, 42, 100
4, 23400, Note_off_c, 9, 42, 64
4, 23407, Control_c, 9, 7, 89
4, 23424, Note_on_c, 9, 42, 100
4, 23424, Note_on_c, 9, 36, 127
4, 23448, Note_off_c, 9, 42, 64
4, 23472, Note_off_c, 9, 36, 64
4, 23504, Control_c, 9, 7, 89
4, 23520, Note_on_c, 9, 42, 100
4, 23544, Note_off_c, 9, 42, 64
4, 23568, Note_on_c, 9, 42, 100
4, 23568, Note_on_c, 9, 38, 127
4, 23592, Note_off_c, 9, 42, 64
4, 23602, Control_c, 9, 7, 89
4, 23616, Note_off_c, 9, 38, 64
4, 23664, Note_on_c, 9, 38, 127
4, 23699, Control_c, 9, 7, 89
4, 23712, Note_off_c, 9, 38, 64
4, 23760, Note_on_c, 9, 46, 100
4, 23760, Note_on_c, 9, 36, 127
4, 23784, Note_off_c, 9, 46, 64
4, 23797, Control_c, 9, 7, 89
4, 23808, Note_off_c, 9, 36, 64
4, 23808, Note_on_c, 9, 44, 100
4, 23808, Note_on_c, 9, 36, 127
4, 23832, Note_off_c, 9, 44, 64
4, 23856, Note_off_c, 9, 36, 64
4, 23895, Control_c, 9, 7, 89
4, 23904, Note_on_c, 9, 42, 100
4, 23928, Note_off_c, 9, 42, 64
4, 23952, Note_on_c, 9, 42, 100
4, 23952, Note_on_c, 9, 36, 127
4, 23976, Note_off_c, 9, 42, 64
4, 23993, Control_c, 9, 7, 89
4, 24000, Note_off_c, 9, 36, 64
4, 24000, Note_on_c, 9, 42, 100
4, 24024, Note_off_c, 9, 42, 64
4, 24048, Note_on_c, 9, 42, 100
4, 24072, Note_off_c, 9, 42, 64
4, 24090, Control_c, 9, 7, 89
4, 24096, Note_on_c, 9, 42, 100
4, 24096, Note_on_c, 9, 36, 127
4, 24120, Note_off_c, 9, 42, 64
4, 24144, Note_off_c, 9, 36, 64
4, 24144, Note_on_c, 9, 42, 100
4, 24168, Note_off_c, 9, 42, 64
4, 24188, Control_c, 9, 7, 89
4, 24192, Note_on_c, 9, 42, 100
4, 24192, Note_on_c, 9, 36, 127
4, 24216, Note_off_c, 9, 42, 64
4, 24240, Note_off_c, 9, 36, 64
4, 24240, Note_on_c, 9, 42, 100
4, 24264, Note_off_c, 9, 42, 64
4, 24285, Control_c, 9, 7, 89
4, 24288, Note_on_c, 9, 42, 100
4, 24312, Note_off_c, 9, 42, 64
4, 24336, Note_on_c, 9, 36, 127
4, 24336, Note_on_c, 9, 46, 100
4, 24360, Note_off_c, 9, 46, 64
4, 24360, Note_off_c, 9, 36, 64
4, 24383, Control_c, 9, 7, 89
4, 24384, Note_on_c, 9, 38, 127
4, 24384, Note_on_c, 9, 44, 100
4, 24408, Note_off_c, 9, 44, 64
4, 24408, Note_off_c, 9, 38, 64
4, 24432, Note_on_c, 9, 36, 127
4, 24432, Note_on_c, 9, 42, 100
4, 24456, Note_off_c, 9, 42, 64
4, 24456, Note_off_c, 9, 36, 64
4, 24480, Note_on_c, 9, 38, 127
4, 24480, Note_on_c, 9, 42, 100
4, 24481, Control_c, 9, 7, 89
4, 24504, Note_off_c, 9, 42, 64
4, 24504, Note_off_c, 9, 38, 64
4, 24528, Note_on_c, 9, 36, 127
4, 24528, Note_on_c, 9, 38, 127
4, 24528, Note_on_c, 9, 42, 100
4, 24552, Note_off_c, 9, 42, 64
4, 24552, Note_off_c, 9, 38, 64
4, 24552, Note_off_c, 9, 36, 64
4, 24576, Note_on_c, 9, 49, 127
4, 24576, Note_on_c, 9, 46, 100
4, 24576, Note_on_c, 9, 36, 127
4, 24579, Control_c, 9, 7, 89
4, 24600, Note_off_c, 9, 46, 64
4, 24624, Note_off_c, 9, 36, 64
4, 24672, Note_on_c, 9, 44, 100
4, 24676, Control_c, 9, 7, 89
4, 24696, Note_off_c, 9, 44, 64
4, 24720, Note_on_c, 9, 42, 100
4, 24720, Note_on_c, 9, 36, 127
4, 24744, Note_off_c, 9, 42, 64
4, 24768, Note_off_c, 9, 36, 64
4, 24768, Note_on_c, 9, 42, 100
4, 24768, Note_on_c, 9, 38, 127
4, 24774, Control_c, 9, 7, 89
4, 24792, Note_off_c, 9, 42, 64
4, 24816, Note_off_c, 9, 38, 64
4, 24816, Note_on_c, 9, 42, 100
4, 24840, Note_off_c, 9, 42, 64
4, 24864, Note_on_c, 9, 42, 100
4, 24864, Note_on_c, 9, 36, 127
4, 24871, Control_c, 9, 7, 89
4, 24888, Note_off_c, 9, 42, 64
4, 24912, Note_off_c, 9, 36, 64
4, 24912, Note_on_c, 9, 42, 100
4, 24936, Note_off_c, 9, 42, 64
4, 24960, Note_on_c, 9, 42, 100
4, 24960, Note_on_c, 9, 36, 127
4, 24969, Control_c, 9, 7, 89
4, 24984, Note_off_c, 9, 42, 64
4, 25008, Note_off_c, 9, 36, 64
4, 25056, Note_on_c, 9, 42, 100
4, 25067, Control_c, 9, 7, 89
4, 25080, Note_off_c, 9, 42, 64
4, 25104, Note_on_c, 9, 42, 100
4, 25104, Note_on_c, 9, 38, 127
4, 25128, Note_off_c, 9, 42, 64
4, 25152, Note_off_c, 9, 38, 64
4, 25165, Control_c, 9, 7, 89
4, 25200, Note_on_c, 9, 38, 127
4, 25248, Note_off_c, 9, 38, 64
4, 25262, Control_c, 9, 7, 89
4, 25296, Note_on_c, 9, 46, 100
4, 25296, Note_on_c, 9, 36, 127
4, 25320, Note_off_c, 9, 46, 64
4, 25344, Note_off_c, 9, 36, 64
4, 25344, Note_on_c, 9, 44, 100
4, 25344, Note_on_c, 9, 36, 127
4, 25360, Control_c, 9, 7, 89
4, 25368, Note_off_c, 9, 44, 64
4, 25392, Note_off_c, 9, 36, 64
4, 25440, Note_on_c, 9, 42, 100
4, 25457, Control_c, 9, 7, 89
4, 25464, Note_off_c, 9, 42, 64
4, 25488, Note_on_c, 9, 42, 100
4, 25488, Note_on_c, 9, 36, 127
4, 25512, Note_off_c, 9, 42, 64
4, 25536, Note_off_c, 9, 36, 64
4, 25536, Note_on_c, 9, 42, 100
4, 25536, Note_on_c, 9, 38, 127
4, 25555, Control_c, 9, 7, 89
4, 25560, Note_off_c, 9, 42, 64
4, 25584, Note_off_c, 9, 38, 64
4, 25584, Note_on_c, 9, 42, 100
4, 25608, Note_off_c, 9, 42, 64
4, 25632, Note_on_c, 9, 42, 100
4, 25632, Note_on_c, 9, 36, 127
4, 25652, Control_c, 9, 7, 89
4, 25656, Note_off_c, 9, 42, 64
4, 25680, Note_off_c, 9, 36, 64
4, 25680, Note_on_c, 9, 42, 100
4, 25704, Note_off_c, 9, 42, 64
4, 25728, Note_on_c, 9, 42, 100
4, 25728, Note_on_c, 9, 36, 127
4, 25750, Control_c, 9, 7, 89
4, 25752, Note_off_c, 9, 42, 64
4, 25776, Note_off_c, 9, 36, 64
4, 25776, Note_on_c, 9, 42, 100
4, 25800, Note_off_c, 9, 42, 64
4, 25824, Note_off_c, 9, 49, 64
4, 25824, Note_on_c, 9, 42, 100
4, 25848, Note_off_c, 9, 42, 64
4, 25848, Control_c, 9, 7, 89
4, 25872, Note_on_c, 9, 46, 100
4, 25872, Note_on_c, 9, 38, 127
4, 25896, Note_off_c, 9, 46, 64
4, 25920, Note_off_c, 9, 38, 64
4, 25920, Note_on_c, 9, 44, 100
4, 25944, Note_off_c, 9, 44, 64
4, 25946, Control_c, 9, 7, 89
4, 25968, Note_on_c, 9, 42, 100
4, 25992, Note_off_c, 9, 42, 64
4, 26016, Note_on_c, 9, 42, 100
4, 26016, Note_on_c, 9, 36, 127
4, 26040, Note_off_c, 9, 42, 64
4, 26043, Control_c, 9, 7, 89
4, 26064, Note_off_c, 9, 36, 64
4, 26064, Note_on_c, 9, 42, 100
4, 26064, Note_on_c, 9, 38, 127
4, 26088, Note_off_c, 9, 42, 64
4, 26112, Note_off_c, 9, 38, 64
4, 26112, Note_on_c, 9, 46, 100
4, 26112, Note_on_c, 9, 36, 127
4, 26136, Note_off_c, 9, 46, 64
4, 26141, Control_c, 9, 7, 89
4, 26160, Note_off_c, 9, 36, 64
4, 26208, Note_on_c, 9, 44, 100
4, 26232, Note_off_c, 9, 44, 64
4, 26238, Control_c, 9, 7, 89
4, 26256, Note_on_c, 9, 42, 100
4, 26256, Note_on_c, 9, 36, 127
4, 26280, Note_off_c, 9, 42, 64
4, 26304, Note_off_c, 9, 36, 64
4, 26304, Note_on_c, 9, 42, 100
4, 26304, Note_on_c, 9, 38, 127
4, 26328, Note_off_c, 9, 42, 64
4, 26336, Control_c, 9, 7, 89
4, 26352, Note_off_c, 9, 38, 64
4, 26352, Note_on_c, 9, 42, 100
4, 26376, Note_off_c, 9, 42, 64
4, 26400, Note_on_c, 9, 42, 100
4, 26400, Note_on_c, 9, 36, 127
4, 26424, Note_off_c, 9, 42, 64
4, 26434, Control_c, 9, 7, 89
4, 26448, Note_off_c, 9, 36, 64
4, 26448, Note_on_c, 9, 42, 100
4, 26472, Note_off_c, 9, 42, 64
4, 26496, Note_on_c, 9, 42, 100
4, 26496, Note_on_c, 9, 36, 127
4, 26520, Note_off_c, 9, 42, 64
4, 26532, Control_c, 9, 7, 89
4, 26544, Note_off_c, 9, 36, 64
4, 26592, Note_on_c, 9, 42, 100
4, 26616, Note_off_c, 9, 42, 64
4, 26629, Control_c, 9, 7, 89
4, 26640, Note_on_c, 9, 42, 100
4, 26640, Note_on_c, 9, 38, 127
4, 26664, Note_off_c, 9, 42, 64
4, 26688, Note_off_c, 9, 38, 64
4, 26727, Control_c, 9, 7, 89
4, 26736, Note_on_c, 9, 38, 127
4, 26784, Note_off_c, 9, 38, 64
4, 26824, Control_c, 9, 7, 89
4, 26832, Note_on_c, 9, 46, 100
4, 26832, Note_on_c, 9, 36, 127
4, 26856, Note_off_c, 9, 46, 64
4, 26880, Note_off_c, 9, 36, 64
4, 26880, Note_on_c, 9, 44, 100
4, 26880, Note_on_c, 9, 36, 127
4, 26904, Note_off_c, 9, 44, 64
4, 26922, Control_c, 9, 7, 89
4, 26928, Note_off_c, 9, 36, 64
4, 26976, Note_on_c, 9, 42, 100
4, 27000, Note_off_c, 9, 42, 64
4, 27020, Control_c, 9, 7, 89
4, 27024, Note_on_c, 9, 42, 100
4, 27024, Note_on_c, 9, 36, 127
4, 27048, Note_off_c, 9, 42, 64
4, 27072, Note_off_c, 9, 36, 64
4, 27072, Note_on_c, 9, 42, 100
4, 27072, Note_on_c, 9, 38, 127
4, 27096, Note_off_c, 9, 42, 64
4, 27118, Control_c, 9, 7, 89
4, 27120, Note_off_c, 9, 38, 64
4, 27120, Note_on_c, 9, 42, 100
4, 27144, Note_off_c, 9, 42, 64
4, 27168, Note_on_c, 9, 42, 100
4, 27168, Note_on_c, 9, 36, 127
4, 27192, Note_off_c, 9, 42, 64
4, 27215, Control_c, 9, 7, 89
4, 27216, Note_off_c, 9, 36, 64
4, 27216, Note_on_c, 9, 42, 100
4, 27240, Note_off_c, 9, 42, 64
4, 27264, Note_on_c, 9, 42, 100
4, 27264, Note_on_c, 9, 36, 127
4, 27288, Note_off_c, 9, 42, 64
4, 27312, Note_off_c, 9, 36, 64
4, 27312, Note_on_c, 9, 42, 100
4, 27313, Control_c, 9, 7, 89
4, 27336, Note_off_c, 9, 42, 64
4, 27360, Note_on_c, 9, 42, 100
4, 27384, Note_off_c, 9, 42, 64
4, 27408, Note_on_c, 9, 46, 100
4, 27408, Note_on_c, 9, 38, 127
4, 27410, Control_c, 9, 7, 89
4, 27432, Note_off_c, 9, 46, 64
4, 27456, Note_off_c, 9, 38, 64
4, 27456, Note_on_c, 9, 44, 100
4, 27480, Note_off_c, 9, 44, 64
4, 27504, Note_on_c, 9, 42, 100
4, 27508, Control_c, 9, 7, 89
4, 27528, Note_off_c, 9, 42, 64
4, 27552, Note_on_c, 9, 42, 100
4, 27552, Note_on_c, 9, 36, 127
4, 27576, Note_off_c, 9, 42, 64
4, 27600, Note_off_c, 9, 36, 64
4, 27600, Note_on_c, 9, 42, 100
4, 27600, Note_on_c, 9, 38, 127
4, 27605, Control_c, 9, 7, 89
4, 27624, Note_off_c, 9, 42, 64
4, 27648, Note_off_c, 9, 38, 64
4, 27648, Note_on_c, 9, 46, 100
4, 27648, Note_on_c, 9, 36, 127
4, 27672, Note_off_c, 9, 46, 64
4, 27696, Note_off_c, 9, 36, 64
4, 27704, Control_c, 9, 7, 89
4, 27744, Note_on_c, 9, 44, 100
4, 27768, Note_off_c, 9, 44, 64
4, 27792, Note_on_c, 9, 42, 100
4, 27792, Note_on_c, 9, 36, 127
4, 27801, Control_c, 9, 7, 89
4, 27816, Note_off_c, 9, 42, 64
4, 27840, Note_off_c, 9, 36, 64
4, 27840, Note_on_c, 9, 42, 100
4, 27840, Note_on_c, 9, 38, 127
4, 27864, Note_off_c, 9, 42, 64
4, 27888, Note_off_c, 9, 38, 64
4, 27888, Note_on_c, 9, 42, 100
4, 27899, Control_c, 9, 7, 89
4, 27912, Note_off_c, 9, 42, 64
4, 27936, Note_on_c, 9, 42, 100
4, 27936, Note_on_c, 9, 36, 127
4, 27960, Note_off_c, 9, 42, 64
4, 27984, Note_off_c, 9, 36, 64
4, 27984, Note_on_c, 9, 42, 100
4, 27996, Control_c, 9, 7, 89
4, 28008, Note_off_c, 9, 42, 64
4, 28032, Note_on_c, 9, 42, 100
4, 28032, Note_on_c, 9, 36, 127
4, 28056, Note_off_c, 9, 42, 64
4, 28080, Note_off_c, 9, 36, 64
4, 28094, Control_c, 9, 7, 89
4, 28128, Note_on_c, 9, 42, 100
4, 28152, Note_off_c, 9, 42, 64
4, 28176, Note_on_c, 9, 42, 100
4, 28176, Note_on_c, 9, 38, 127
4, 28191, Control_c, 9, 7, 89
4, 28200, Note_off_c, 9, 42, 64
4, 28224, Note_off_c, 9, 38, 64
4, 28272, Note_on_c, 9, 38, 127
4, 28289, Control_c, 9, 7, 89
4, 28320, Note_off_c, 9, 38, 64
4, 28368, Note_on_c, 9, 46, 100
4, 28368, Note_on_c, 9, 36, 127
4, 28387, Control_c, 9, 7, 89
4, 28392, Note_off_c, 9, 46, 64
4, 28416, Note_off_c, 9, 36, 64
4, 28416, Note_on_c, 9, 44, 100
4, 28416, Note_on_c, 9, 36, 127
4, 28440, Note_off_c, 9, 44, 64
4, 28464, Note_off_c, 9, 36, 64
4, 28485, Control_c, 9, 7, 89
4, 28512, Note_on_c, 9, 42, 100
4, 28536, Note_off_c, 9, 42, 64
4, 28560, Note_on_c, 9, 42, 100
4, 28560, Note_on_c, 9, 36, 127
4, 28582, Control_c, 9, 7, 89
4, 28584, Note_off_c, 9, 42, 64
4, 28608, Note_off_c, 9, 36, 64
4, 28608, Note_on_c, 9, 42, 100
4, 28608, Note_on_c, 9, 38, 127
4, 28632, Note_off_c, 9, 42, 64
4, 28656, Note_off_c, 9, 38, 64
4, 28656, Note_on_c, 9, 42, 100
4, 28680, Note_off_c, 9, 42, 64
4, 28680, Control_c, 9, 7, 89
4, 28704, Note_on_c, 9, 42, 100
4, 28704, Note_on_c, 9, 36, 127
4, 28728, Note_off_c, 9, 42, 64
4, 28752, Note_off_c, 9, 36, 64
4, 28752, Note_on_c, 9, 42, 100
4, 28776, Note_off_c, 9, 42, 64
4, 28777, Control_c, 9, 7, 89
4, 28800, Note_on_c, 9, 42, 100
4, 28800, Note_on_c, 9, 36, 127
4, 28824, Note_off_c, 9, 42, 64
4, 28848, Note_off_c, 9, 36, 64
4, 28848, Note_on_c, 9, 42, 100
4, 28872, Note_off_c, 9, 42, 64
4, 28875, Control_c, 9, 7, 89
4, 28896, Note_on_c, 9, 42, 100
4, 28920, Note_off_c, 9, 42, 64
4, 28944, Note_on_c, 9, 46, 100
4, 28944, Note_on_c, 9, 38, 127
4, 28968, Note_off_c, 9, 46, 64
4, 28973, Control_c, 9, 7, 89
4, 28992, Note_off_c, 9, 38, 64
4, 28992, Note_on_c, 9, 44, 100
4, 29016, Note_off_c, 9, 44, 64
4, 29040, Note_on_c, 9, 42, 100
4, 29064, Note_off_c, 9, 42, 64
4, 29071, Control_c, 9, 7, 89
4, 29088, Note_on_c, 9, 42, 100
4, 29088, Note_on_c, 9, 36, 127
4, 29112, Note_off_c, 9, 42, 64
4, 29136, Note_off_c, 9, 36, 64
4, 29136, Note_on_c, 9, 42, 100
4, 29136, Note_on_c, 9, 38, 127
4, 29160, Note_off_c, 9, 42, 64
4, 29168, Control_c, 9, 7, 89
4, 29184, Note_off_c, 9, 38, 64
4, 29184, Note_on_c, 9, 46, 100
4, 29184, Note_on_c, 9, 36, 127
4, 29208, Note_off_c, 9, 46, 64
4, 29232, Note_off_c, 9, 36, 64
4, 29266, Control_c, 9, 7, 89
4, 29280, Note_on_c, 9, 44, 100
4, 29304, Note_off_c, 9, 44, 64
4, 29328, Note_on_c, 9, 42, 100
4, 29328, Note_on_c, 9, 36, 127
4, 29352, Note_off_c, 9, 42, 64
4, 29363, Control_c, 9, 7, 89
4, 29376, Note_off_c, 9, 36, 64
4, 29376, Note_on_c, 9, 42, 100
4, 29376, Note_on_c, 9, 38, 127
4, 29400, Note_off_c, 9, 42, 64
4, 29424, Note_off_c, 9, 38, 64
4, 29424, Note_on_c, 9, 42, 100
4, 29448, Note_off_c, 9, 42, 64
4, 29461, Control_c, 9, 7, 89
4, 29472, Note_on_c, 9, 42, 100
4, 29472, Note_on_c, 9, 36, 127
4, 29496, Note_off_c, 9, 42, 64
4, 29520, Note_off_c, 9, 36, 64
4, 29520, Note_on_c, 9, 42, 100
4, 29544, Note_off_c, 9, 42, 64
4, 29559, Control_c, 9, 7, 89
4, 29568, Note_on_c, 9, 42, 100
4, 29568, Note_on_c, 9, 36, 127
4, 29592, Note_off_c, 9, 42, 64
4, 29616, Note_off_c, 9, 36, 64
4, 29657, Control_c, 9, 7, 89
4, 29664, Note_on_c, 9, 42, 100
4, 29688, Note_off_c, 9, 42, 64
4, 29712, Note_on_c, 9, 42, 100
4, 29712, Note_on_c, 9, 38, 127
4, 29736, Note_off_c, 9, 42, 64
4, 29754, Control_c, 9, 7, 89
4, 29760, Note_off_c, 9, 38, 64
4, 29808, Note_on_c, 9, 38, 127
4, 29852, Control_c, 9, 7, 89
4, 29856, Note_off_c, 9, 38, 64
4, 29904, Note_on_c, 9, 46, 100
4, 29904, Note_on_c, 9, 36, 127
4, 29928, Note_off_c, 9, 46, 64
4, 29949, Control_c, 9, 7, 89
4, 29952, Note_off_c, 9, 36, 64
4, 29952, Note_on_c, 9, 35, 127
4, 29976, Note_off_c, 9, 35, 64
4, 30047, Control_c, 9, 7, 89
4, 30096, Note_on_c, 9, 35, 127
4, 30120, Note_off_c, 9, 35, 64
4, 30144, Note_on_c, 9, 40, 127
4, 30144, Control_c, 9, 7, 89
4, 30168, Note_off_c, 9, 40, 64
4, 30240, Note_on_c, 9, 35, 127
4, 30242, Control_c, 9, 7, 89
4, 30264, Note_off_c, 9, 35, 64
4, 30336, Note_on_c, 9, 35, 127
4, 30340, Control_c, 9, 7, 89
4, 30360, Note_off_c, 9, 35, 64
4, 30384, Note_on_c, 9, 35, 92
4, 30408, Note_off_c, 9, 35, 64
4, 30438, Control_c, 9, 7, 89
4, 30480, Note_on_c, 9, 40, 92
4, 30504, Note_off_c, 9, 40, 64
4, 30528, Note_on_c, 9, 35, 92
4, 30535, Control_c, 9, 7, 89
4, 30552, Note_off_c, 9, 35, 64
4, 30576, Note_on_c, 9, 38, 127
4, 30576, Note_on_c, 9, 36, 127
4, 30600, Note_off_c, 9, 38, 64
4, 30600, Note_off_c, 9, 36, 64
4, 30624, Note_on_c, 9, 38, 127
4, 30624, Note_on_c, 9, 36, 127
4, 30633, Control_c, 9, 7, 89
4, 30648, Note_off_c, 9, 38, 64
4, 30648, Note_off_c, 9, 36, 64
4, 30672, Note_on_c, 9, 38, 127
4, 30672, Note_on_c, 9, 36, 127
4, 30696, Note_off_c, 9, 38, 64
4, 30696, Note_off_c, 9, 36, 64
4, 30720, Note_on_c, 9, 49, 127
4, 30720, Note_on_c, 9, 46, 100
4, 30720, Note_on_c, 9, 36, 127
4, 30730, Control_c, 9, 7, 89
4, 30744, Note_off_c, 9, 46, 64
4, 30768, Note_off_c, 9, 36, 64
4, 30816, Note_on_c, 9, 44, 100
4, 30828, Control_c, 9, 7, 89
4, 30840, Note_off_c, 9, 44, 64
4, 30864, Note_on_c, 9, 42, 100
4, 30864, Note_on_c, 9, 36, 127
4, 30888, Note_off_c, 9, 42, 64
4, 30912, Note_off_c, 9, 36, 64
4, 30912, Note_on_c, 9, 42, 100
4, 30912, Note_on_c, 9, 38, 127
4, 30926, Control_c, 9, 7, 89
4, 30936, Note_off_c, 9, 42, 64
4, 30960, Note_off_c, 9, 38, 64
4, 30960, Note_on_c, 9, 42, 100
4, 30984, Note_off_c, 9, 42, 64
4, 31008, Note_on_c, 9, 42, 100
4, 31008, Note_on_c, 9, 36, 127
4, 31024, Control_c, 9, 7, 89
4, 31032, Note_off_c, 9, 42, 64
4, 31056, Note_off_c, 9, 36, 64
4, 31056, Note_on_c, 9, 42, 100
4, 31080, Note_off_c, 9, 42, 64
4, 31104, Note_on_c, 9, 42, 100
4, 31104, Note_on_c, 9, 36, 127
4, 31121, Control_c, 9, 7, 89
4, 31128, Note_off_c, 9, 42, 64
4, 31152, Note_off_c, 9, 36, 64
4, 31200, Note_on_c, 9, 42, 100
4, 31219, Control_c, 9, 7, 89
4, 31224, Note_off_c, 9, 42, 64
4, 31248, Note_on_c, 9, 42, 100
4, 31248, Note_on_c, 9, 38, 127
4, 31272, Note_off_c, 9, 42, 64
4, 31296, Note_off_c, 9, 38, 64
4, 31316, Control_c, 9, 7, 89
4, 31344, Note_on_c, 9, 38, 127
4, 31392, Note_off_c, 9, 38, 64
4, 31414, Control_c, 9, 7, 89
4, 31440, Note_on_c, 9, 46, 100
4, 31440, Note_on_c, 9, 36, 127
4, 31464, Note_off_c, 9, 46, 64
4, 31488, Note_off_c, 9, 36, 64
4, 31488, Note_on_c, 9, 44, 100
4, 31488, Note_on_c, 9, 36, 127
4, 31512, Note_off_c, 9, 44, 64
4, 31512, Control_c, 9, 7, 89
4, 31536, Note_off_c, 9, 36, 64
4, 31584, Note_on_c, 9, 42, 100
4, 31608, Note_off_c, 9, 42, 64
4, 31610, Control_c, 9, 7, 89
4, 31632, Note_on_c, 9, 42, 100
4, 31632, Note_on_c, 9, 36, 127
4, 31656, Note_off_c, 9, 42, 64
4, 31680, Note_off_c, 9, 36, 64
4, 31680, Note_on_c, 9, 42, 100
4, 31680, Note_on_c, 9, 38, 127
4, 31704, Note_off_c, 9, 42, 64
4, 31707, Control_c, 9, 7, 89
4, 31728, Note_off_c, 9, 38, 64
4, 31728, Note_on_c, 9, 42, 100
4, 31752, Note_off_c, 9, 42, 64
4, 31776, Note_on_c, 9, 42, 100
4, 31776, Note_on_c, 9, 36, 127
4, 31800, Note_off_c, 9, 42, 64
4, 31805, Control_c, 9, 7, 89
4, 31824, Note_off_c, 9, 36, 64
4, 31824, Note_on_c, 9, 42, 100
4, 31848, Note_off_c, 9, 42, 64
4, 31872, Note_on_c, 9, 42, 100
4, 31872, Note_on_c, 9, 36, 127
4, 31896, Note_off_c, 9, 42, 64
4, 31902, Control_c, 9, 7, 89
4, 31920, Note_off_c, 9, 36, 64
4, 31920, Note_on_c, 9, 42, 100
4, 31944, Note_off_c, 9, 42, 64
4, 31968, Note_off_c, 9, 49, 64
4, 31968, Note_on_c, 9, 42, 100
4, 31992, Note_off_c, 9, 42, 64
4, 32000, Control_c, 9, 7, 89
4, 32016, Note_on_c, 9, 46, 100
4, 32016, Note_on_c, 9, 38, 127
4, 32040, Note_off_c, 9, 46, 64
4, 32064, Note_off_c, 9, 38, 64
4, 32064, Note_on_c, 9, 44, 100
4, 32088, Note_off_c, 9, 44, 64
4, 32098, Control_c, 9, 7, 89
4, 32112, Note_on_c, 9, 42, 100
4, 32136, Note_off_c, 9, 42, 64
4, 32160, Note_on_c, 9, 42, 100
4, 32160, Note_on_c, 9, 36, 127
4, 32184, Note_off_c, 9, 42, 64
4, 32196, Control_c, 9, 7, 89
4, 32208, Note_off_c, 9, 36, 64
4, 32208, Note_on_c, 9, 42, 100
4, 32232, Note_off_c, 9, 42, 64
4, 32256, Note_on_c, 9, 46, 100
4, 32256, Note_on_c, 9, 36, 127
4, 32280, Note_off_c, 9, 46, 64
4, 32293, Control_c, 9, 7, 89
4, 32304, Note_off_c, 9, 36, 64
4, 32352, Note_on_c, 9, 44, 100
4, 32376, Note_off_c, 9, 44, 64
4, 32391, Control_c, 9, 7, 89
4, 32400, Note_on_c, 9, 42, 100
4, 32400, Note_on_c, 9, 36, 127
4, 32424, Note_off_c, 9, 42, 64
4, 32448, Note_off_c, 9, 36, 64
4, 32448, Note_on_c, 9, 42, 100
4, 32448, Note_on_c, 9, 38, 127
4, 32472, Note_off_c, 9, 42, 64
4, 32488, Control_c, 9, 7, 89
4, 32496, Note_off_c, 9, 38, 64
4, 32496, Note_on_c, 9, 42, 100
4, 32520, Note_off_c, 9, 42, 64
4, 32544, Note_on_c, 9, 42, 100
4, 32544, Note_on_c, 9, 36, 127
4, 32568, Note_off_c, 9, 42, 64
4, 32586, Control_c, 9, 7, 89
4, 32592, Note_off_c, 9, 36, 64
4, 32592, Note_on_c, 9, 42, 100
4, 32616, Note_off_c, 9, 42, 64
4, 32640, Note_on_c, 9, 42, 100
4, 32640, Note_on_c, 9, 36, 127
4, 32664, Note_off_c, 9, 42, 64
4, 32683, Control_c, 9, 7, 89
4, 32688, Note_off_c, 9, 36, 64
4, 32736, Note_on_c, 9, 42, 100
4, 32760, Note_off_c, 9, 42, 64
4, 32781, Control_c, 9, 7, 89
4, 32784, Note_on_c, 9, 42, 100
4, 32784, Note_on_c, 9, 38, 127
4, 32808, Note_off_c, 9, 42, 64
4, 32832, Note_off_c, 9, 38, 64
4, 32879, Control_c, 9, 7, 89
4, 32880, Note_on_c, 9, 38, 127
4, 32928, Note_off_c, 9, 38, 64
4, 32976, Note_on_c, 9, 46, 100
4, 32976, Note_on_c, 9, 36, 127
4, 32977, Control_c, 9, 7, 89
4, 33000, Note_off_c, 9, 46, 64
4, 33024, Note_off_c, 9, 36, 64
4, 33024, Note_on_c, 9, 44, 100
4, 33024, Note_on_c, 9, 36, 127
4, 33048, Note_off_c, 9, 44, 64
4, 33072, Note_off_c, 9, 36, 64
4, 33074, Control_c, 9, 7, 89
4, 33120, Note_on_c, 9, 42, 100
4, 33144, Note_off_c, 9, 42, 64
4, 33168, Note_on_c, 9, 42, 100
4, 33168, Note_on_c, 9, 36, 127
4, 33172, Control_c, 9, 7, 89
4, 33192, Note_off_c, 9, 42, 64
4, 33216, Note_off_c, 9, 36, 64
4, 33216, Note_on_c, 9, 42, 100
4, 33240, Note_off_c, 9, 42, 64
4, 33264, Note_on_c, 9, 42, 100
4, 33269, Control_c, 9, 7, 89
4, 33288, Note_off_c, 9, 42, 64
4, 33312, Note_on_c, 9, 42, 100
4, 33312, Note_on_c, 9, 36, 127
4, 33336, Note_off_c, 9, 42, 64
4, 33360, Note_off_c, 9, 36, 64
4, 33360, Note_on_c, 9, 42, 100
4, 33367, Control_c, 9, 7, 89
4, 33384, Note_off_c, 9, 42, 64
4, 33408, Note_on_c, 9, 42, 100
4, 33408, Note_on_c, 9, 36, 127
4, 33432, Note_off_c, 9, 42, 64
4, 33456, Note_off_c, 9, 36, 64
4, 33456, Note_on_c, 9, 42, 100
4, 33465, Control_c, 9, 7, 89
4, 33480, Note_off_c, 9, 42, 64
4, 33504, Note_on_c, 9, 42, 100
4, 33528, Note_off_c, 9, 42, 64
4, 33552, Note_on_c, 9, 38, 92
4, 33552, Note_on_c, 9, 36, 127
4, 33552, Note_on_c, 9, 46, 100
4, 33563, Control_c, 9, 7, 89
4, 33576, Note_off_c, 9, 46, 64
4, 33576, Note_off_c, 9, 36, 64
4, 33576, Note_off_c, 9, 38, 64
4, 33600, Note_on_c, 9, 44, 100
4, 33624, Note_off_c, 9, 44, 64
4, 33648, Note_on_c, 9, 38, 92
4, 33648, Note_on_c, 9, 36, 127
4, 33648, Note_on_c, 9, 42, 100
4, 33660, Control_c, 9, 7, 89
4, 33672, Note_off_c, 9, 42, 64
4, 33672, Note_off_c, 9, 36, 64
4, 33672, Note_off_c, 9, 38, 64
4, 33696, Note_on_c, 9, 38, 92
4, 33696, Note_on_c, 9, 42, 100
4, 33720, Note_off_c, 9, 42, 64
4, 33720, Note_off_c, 9, 38, 64
4, 33744, Note_on_c, 9, 36, 127
4, 33744, Note_on_c, 9, 42, 100
4, 33758, Control_c, 9, 7, 89
4, 33768, Note_off_c, 9, 42, 64
4, 33768, Note_off_c, 9, 36, 64
4, 33792, Note_on_c, 9, 46, 100
4, 33792, Note_on_c, 9, 36, 127
4, 33816, Note_off_c, 9, 46, 64
4, 33840, Note_off_c, 9, 36, 64
4, 33855, Control_c, 9, 7, 89
4, 33888, Note_on_c, 9, 44, 100
4, 33912, Note_off_c, 9, 44, 64
4, 33936, Note_on_c, 9, 42, 100
4, 33936, Note_on_c, 9, 36, 127
4, 33953, Control_c, 9, 7, 89
4, 33960, Note_off_c, 9, 42, 64
4, 33984, Note_off_c, 9, 36, 64
4, 33984, Note_on_c, 9, 42, 100
4, 33984, Note_on_c, 9, 38, 127
4, 34008, Note_off_c, 9, 42, 64
4, 34032, Note_off_c, 9, 38, 64
4, 34032, Note_on_c, 9, 42, 100
4, 34051, Control_c, 9, 7, 89
4, 34056, Note_off_c, 9, 42, 64
4, 34080, Note_on_c, 9, 42, 100
4, 34080, Note_on_c, 9, 36, 127
4, 34104, Note_off_c, 9, 42, 64
4, 34128, Note_off_c, 9, 36, 64
4, 34128, Note_on_c, 9, 42, 100
4, 34149, Control_c, 9, 7, 89
4, 34152, Note_off_c, 9, 42, 64
4, 34176, Note_on_c, 9, 42, 100
4, 34176, Note_on_c, 9, 36, 127
4, 34200, Note_off_c, 9, 42, 64
4, 34224, Note_off_c, 9, 36, 64
4, 34246, Control_c, 9, 7, 89
4, 34272, Note_on_c, 9, 42, 100
4, 34296, Note_off_c, 9, 42, 64
4, 34320, Note_on_c, 9, 42, 100
4, 34320, Note_on_c, 9, 38, 127
4, 34344, Note_off_c, 9, 42, 64
4, 34344, Control_c, 9, 7, 89
4, 34368, Note_off_c, 9, 38, 64
4, 34416, Note_on_c, 9, 38, 127
4, 34441, Control_c, 9, 7, 89
4, 34464, Note_off_c, 9, 38, 64
4, 34512, Note_on_c, 9, 46, 100
4, 34512, Note_on_c, 9, 36, 127
4, 34536, Note_off_c, 9, 46, 64
4, 34539, Control_c, 9, 7, 89
4, 34560, Note_off_c, 9, 36, 64
4, 34560, Note_on_c, 9, 44, 100
4, 34560, Note_on_c, 9, 36, 127
4, 34584, Note_off_c, 9, 44, 64
4, 34608, Note_off_c, 9, 36, 64
4, 34636, Control_c, 9, 7, 89
4, 34656, Note_on_c, 9, 42, 100
4, 34680, Note_off_c, 9, 42, 64
4, 34704, Note_on_c, 9, 42, 100
4, 34704, Note_on_c, 9, 36, 127
4, 34728, Note_off_c, 9, 42, 64
4, 34735, Control_c, 9, 7, 89
4, 34752, Note_off_c, 9, 36, 64
4, 34752, Note_on_c, 9, 42, 100
4, 34752, Note_on_c, 9, 38, 127
4, 34776, Note_off_c, 9, 42, 64
4, 34800, Note_off_c, 9, 38, 64
4, 34800, Note_on_c, 9, 42, 100
4, 34824, Note_off_c, 9, 42, 64
4, 34832, Control_c, 9, 7, 89
4, 34848, Note_on_c, 9, 42, 100
4, 34848, Note_on_c, 9, 36, 127
4, 34872, Note_off_c, 9, 42, 64
4, 34896, Note_off_c, 9, 36, 64
4, 34896, Note_on_c, 9, 42, 100
4, 34920, Note_off_c, 9, 42, 64
4, 34930, Control_c, 9, 7, 89
4, 34944, Note_on_c, 9, 42, 100
4, 34944, Note_on_c, 9, 36, 127
4, 34968, Note_off_c, 9, 42, 64
4, 34992, Note_off_c, 9, 36, 64
4, 34992, Note_on_c, 9, 42, 100
4, 35016, Note_off_c, 9, 42, 64
4, 35027, Control_c, 9, 7, 89
4, 35040, Note_on_c, 9, 42, 100
4, 35064, Note_off_c, 9, 42, 64
4, 35088, Note_on_c, 9, 46, 100
4, 35088, Note_on_c, 9, 38, 127
4, 35112, Note_off_c, 9, 46, 64
4, 35125, Control_c, 9, 7, 89
4, 35136, Note_off_c, 9, 38, 64
4, 35136, Note_on_c, 9, 44, 100
4, 35160, Note_off_c, 9, 44, 64
4, 35184, Note_on_c, 9, 42, 100
4, 35208, Note_off_c, 9, 42, 64
4, 35222, Control_c, 9, 7, 89
4, 35232, Note_on_c, 9, 42, 100
4, 35232, Note_on_c, 9, 36, 127
4, 35256, Note_off_c, 9, 42, 64
4, 35280, Note_off_c, 9, 36, 64
4, 35280, Note_on_c, 9, 42, 100
4, 35304, Note_off_c, 9, 42, 64
4, 35320, Control_c, 9, 7, 89
4, 35328, Note_on_c, 9, 46, 100
4, 35328, Note_on_c, 9, 36, 127
4, 35352, Note_off_c, 9, 46, 64
4, 35376, Note_off_c, 9, 36, 64
4, 35418, Control_c, 9, 7, 89
4, 35424, Note_on_c, 9, 44, 100
4, 35448, Note_off_c, 9, 44, 64
4, 35472, Note_on_c, 9, 42, 100
4, 35472, Note_on_c, 9, 36, 127
4, 35496, Note_off_c, 9, 42, 64
4, 35516, Control_c, 9, 7, 89
4, 35520, Note_off_c, 9, 36, 64
4, 35520, Note_on_c, 9, 42, 100
4, 35520, Note_on_c, 9, 38, 127
4, 35544, Note_off_c, 9, 42, 64
4, 35568, Note_off_c, 9, 38, 64
4, 35568, Note_on_c, 9, 42, 100
4, 35592, Note_off_c, 9, 42, 64
4, 35613, Control_c, 9, 7, 89
4, 35616, Note_on_c, 9, 42, 100
4, 35616, Note_on_c, 9, 36, 127
4, 35640, Note_off_c, 9, 42, 64
4, 35664, Note_off_c, 9, 36, 64
4, 35664, Note_on_c, 9, 42, 100
4, 35688, Note_off_c, 9, 42, 64
4, 35711, Control_c, 9, 7, 89
4, 35712, Note_on_c, 9, 42, 100
4, 35712, Note_on_c, 9, 36, 127
4, 35736, Note_off_c, 9, 42, 64
4, 35760, Note_off_c, 9, 36, 64
4, 35808, Note_on_c, 9, 42, 100
4, 35808, Control_c, 9, 7, 89
4, 35832, Note_off_c, 9, 42, 64
4, 35856, Note_on_c, 9, 42, 100
4, 35856, Note_on_c, 9, 38, 127
4, 35880, Note_off_c, 9, 42, 64
4, 35904, Note_off_c, 9, 38, 64
4, 35906, Control_c, 9, 7, 89
4, 35952, Note_on_c, 9, 38, 127
4, 36000, Note_off_c, 9, 38, 64
4, 36004, Control_c, 9, 7, 89
4, 36048, Note_on_c, 9, 46, 100
4, 36048, Note_on_c, 9, 36, 127
4, 36072, Note_off_c, 9, 46, 64
4, 36096, Note_off_c, 9, 36, 64
4, 36096, Note_on_c, 9, 44, 100
4, 36096, Note_on_c, 9, 36, 127
4, 36102, Control_c, 9, 7, 89
4, 36120, Note_off_c, 9, 44, 64
4, 36144, Note_off_c, 9, 36, 64
4, 36192, Note_on_c, 9, 42, 100
4, 36199, Control_c, 9, 7, 89
4, 36216, Note_off_c, 9, 42, 64
4, 36240, Note_on_c, 9, 42, 100
4, 36240, Note_on_c, 9, 36, 127
4, 36264, Note_off_c, 9, 42, 64
4, 36288, Note_off_c, 9, 36, 64
4, 36288, Note_on_c, 9, 38, 127
4, 36288, Note_on_c, 9, 42, 100
4, 36297, Control_c, 9, 7, 89
4, 36312, Note_off_c, 9, 42, 64
4, 36312, Note_off_c, 9, 38, 64
4, 36336, Note_on_c, 9, 42, 100
4, 36360, Note_off_c, 9, 42, 64
4, 36384, Note_on_c, 9, 42, 100
4, 36384, Note_on_c, 9, 36, 127
4, 36394, Control_c, 9, 7, 89
4, 36408, Note_off_c, 9, 42, 64
4, 36432, Note_off_c, 9, 36, 64
4, 36432, Note_on_c, 9, 42, 100
4, 36456, Note_off_c, 9, 42, 64
4, 36480, Note_on_c, 9, 42, 100
4, 36480, Note_on_c, 9, 36, 127
4, 36492, Control_c, 9, 7, 89
4, 36504, Note_off_c, 9, 42, 64
4, 36528, Note_off_c, 9, 36, 64
4, 36528, Note_on_c, 9, 42, 100
4, 36552, Note_off_c, 9, 42, 64
4, 36576, Note_on_c, 9, 42, 100
4, 36590, Control_c, 9, 7, 89
4, 36600, Note_off_c, 9, 42, 64
4, 36624, Note_on_c, 9, 36, 127
4, 36624, Note_on_c, 9, 46, 100
4, 36648, Note_off_c, 9, 46, 64
4, 36648, Note_off_c, 9, 36, 64
4, 36672, Note_on_c, 9, 44, 100
4, 36688, Control_c, 9, 7, 89
4, 36696, Note_off_c, 9, 44, 64
4, 36720, Note_on_c, 9, 40, 92
4, 36720, Note_on_c, 9, 39, 92
4, 36720, Note_on_c, 9, 36, 127
4, 36720, Note_on_c, 9, 42, 100
4, 36744, Note_off_c, 9, 42, 64
4, 36744, Note_off_c, 9, 36, 64
4, 36744, Note_off_c, 9, 39, 64
4, 36744, Note_off_c, 9, 40, 64
4, 36768, Note_on_c, 9, 40, 92
4, 36768, Note_on_c, 9, 39, 92
4, 36768, Note_on_c, 9, 42, 100
4, 36785, Control_c, 9, 7, 89
4, 36792, Note_off_c, 9, 42, 64
4, 36792, Note_off_c, 9, 39, 64
4, 36792, Note_off_c, 9, 40, 64
4, 36816, Note_on_c, 9, 40, 92
4, 36816, Note_on_c, 9, 39, 92
4, 36816, Note_on_c, 9, 36, 127
4, 36816, Note_on_c, 9, 42, 100
4, 36840, Note_off_c, 9, 42, 64
4, 36840, Note_off_c, 9, 36, 64
4, 36840, Note_off_c, 9, 39, 64
4, 36840, Note_off_c, 9, 40, 64
4, 36864, Note_on_c, 9, 46, 100
4, 36864, Note_on_c, 9, 36, 127
4, 36883, Control_c, 9, 7, 89
4, 36888, Note_off_c, 9, 46, 64
4, 36912, Note_off_c, 9, 36, 64
4, 36960, Note_on_c, 9, 44, 100
4, 36980, Control_c, 9, 7, 89
4, 36984, Note_off_c, 9, 44, 64
4, 37008, Note_on_c, 9, 42, 100
4, 37008, Note_on_c, 9, 36, 127
4, 37032, Note_off_c, 9, 42, 64
4, 37056, Note_off_c, 9, 36, 64
4, 37056, Note_on_c, 9, 42, 100
4, 37056, Note_on_c, 9, 38, 127
4, 37078, Control_c, 9, 7, 89
4, 37080, Note_off_c, 9, 42, 64
4, 37104, Note_off_c, 9, 38, 64
4, 37104, Note_on_c, 9, 42, 100
4, 37128, Note_off_c, 9, 42, 64
4, 37152, Note_on_c, 9, 42, 100
4, 37152, Note_on_c, 9, 36, 127
4, 37175, Control_c, 9, 7, 89
4, 37176, Note_off_c, 9, 42, 64
4, 37200, Note_off_c, 9, 36, 64
4, 37200, Note_on_c, 9, 42, 100
4, 37224, Note_off_c, 9, 42, 64
4, 37248, Note_on_c, 9, 42, 100
4, 37248, Note_on_c, 9, 36, 127
4, 37272, Note_off_c, 9, 42, 64
4, 37274, Control_c, 9, 7, 89
4, 37296, Note_off_c, 9, 36, 64
4, 37344, Note_on_c, 9, 42, 100
4, 37368, Note_off_c, 9, 42, 64
4, 37371, Control_c, 9, 7, 89
4, 37392, Note_on_c, 9, 42, 100
4, 37392, Note_on_c, 9, 38, 127
4, 37416, Note_off_c, 9, 42, 64
4, 37440, Note_off_c, 9, 38, 64
4, 37469, Control_c, 9, 7, 89
4, 37488, Note_on_c, 9, 38, 127
4, 37536, Note_off_c, 9, 38, 64
4, 37566, Control_c, 9, 7, 89
4, 37584, Note_on_c, 9, 46, 100
4, 37584, Note_on_c, 9, 36, 127
4, 37608, Note_off_c, 9, 46, 64
4, 37632, Note_off_c, 9, 36, 64
4, 37632, Note_on_c, 9, 44, 100
4, 37632, Note_on_c, 9, 36, 127
4, 37656, Note_off_c, 9, 44, 64
4, 37664, Control_c, 9, 7, 89
4, 37680, Note_off_c, 9, 36, 64
4, 37728, Note_on_c, 9, 42, 100
4, 37752, Note_off_c, 9, 42, 64
4, 37761, Control_c, 9, 7, 89
4, 37776, Note_on_c, 9, 42, 100
4, 37776, Note_on_c, 9, 36, 127
4, 37800, Note_off_c, 9, 42, 64
4, 37824, Note_off_c, 9, 36, 64
4, 37824, Note_on_c, 9, 42, 100
4, 37824, Note_on_c, 9, 38, 127
4, 37848, Note_off_c, 9, 42, 64
4, 37859, Control_c, 9, 7, 89
4, 37872, Note_off_c, 9, 38, 64
4, 37872, Note_on_c, 9, 42, 100
4, 37896, Note_off_c, 9, 42, 64
4, 37920, Note_on_c, 9, 42, 100
4, 37920, Note_on_c, 9, 36, 127
4, 37944, Note_off_c, 9, 42, 64
4, 37957, Control_c, 9, 7, 89
4, 37968, Note_off_c, 9, 36, 64
4, 37968, Note_on_c, 9, 42, 100
4, 37992, Note_off_c, 9, 42, 64
4, 38016, Note_on_c, 9, 42, 100
4, 38016, Note_on_c, 9, 36, 127
4, 38040, Note_off_c, 9, 42, 64
4, 38055, Control_c, 9, 7, 89
4, 38064, Note_off_c, 9, 36, 64
4, 38064, Note_on_c, 9, 42, 100
4, 38088, Note_off_c, 9, 42, 64
4, 38112, Note_on_c, 9, 42, 100
4, 38136, Note_off_c, 9, 42, 64
4, 38152, Control_c, 9, 7, 89
4, 38160, Note_on_c, 9, 46, 100
4, 38160, Note_on_c, 9, 38, 127
4, 38184, Note_off_c, 9, 46, 64
4, 38208, Note_off_c, 9, 38, 64
4, 38208, Note_on_c, 9, 44, 100
4, 38232, Note_off_c, 9, 44, 64
4, 38250, Control_c, 9, 7, 89
4, 38256, Note_on_c, 9, 42, 100
4, 38280, Note_off_c, 9, 42, 64
4, 38304, Note_on_c, 9, 42, 100
4, 38304, Note_on_c, 9, 36, 127
4, 38328, Note_off_c, 9, 42, 64
4, 38347, Control_c, 9, 7, 89
4, 38352, Note_off_c, 9, 36, 64
4, 38352, Note_on_c, 9, 42, 100
4, 38352, Note_on_c, 9, 38, 127
4, 38376, Note_off_c, 9, 42, 64
4, 38400, Note_off_c, 9, 38, 64
4, 38400, Note_on_c, 9, 46, 100
4, 38400, Note_on_c, 9, 36, 127
4, 38424, Note_off_c, 9, 46, 64
4, 38445, Control_c, 9, 7, 89
4, 38448, Note_off_c, 9, 36, 64
4, 38496, Note_on_c, 9, 44, 100
4, 38520, Note_off_c, 9, 44, 64
4, 38543, Control_c, 9, 7, 89
4, 38544, Note_on_c, 9, 42, 100
4, 38544, Note_on_c, 9, 36, 127
4, 38568, Note_off_c, 9, 42, 64
4, 38592, Note_off_c, 9, 36, 64
4, 38592, Note_on_c, 9, 42, 100
4, 38592, Note_on_c, 9, 38, 127
4, 38616, Note_off_c, 9, 42, 64
4, 38640, Note_off_c, 9, 38, 64
4, 38640, Note_on_c, 9, 42, 100
4, 38641, Control_c, 9, 7, 89
4, 38664, Note_off_c, 9, 42, 64
4, 38688, Note_on_c, 9, 42, 100
4, 38688, Note_on_c, 9, 36, 127
4, 38712, Note_off_c, 9, 42, 64
4, 38736, Note_off_c, 9, 36, 64
4, 38736, Note_on_c, 9, 42, 100
4, 38738, Control_c, 9, 7, 89
4, 38760, Note_off_c, 9, 42, 64
4, 38784, Note_on_c, 9, 42, 100
4, 38784, Note_on_c, 9, 36, 127
4, 38808, Note_off_c, 9, 42, 64
4, 38832, Note_off_c, 9, 36, 64
4, 38836, Control_c, 9, 7, 89
4, 38880, Note_on_c, 9, 42, 100
4, 38904, Note_off_c, 9, 42, 64
4, 38928, Note_on_c, 9, 42, 100
4, 38928, Note_on_c, 9, 38, 127
4, 38933, Control_c, 9, 7, 89
4, 38952, Note_off_c, 9, 42, 64
4, 38976, Note_off_c, 9, 38, 64
4, 39024, Note_on_c, 9, 38, 127
4, 39031, Control_c, 9, 7, 89
4, 39072, Note_off_c, 9, 38, 64
4, 39120, Note_on_c, 9, 46, 100
4, 39120, Note_on_c, 9, 36, 127
4, 39129, Control_c, 9, 7, 89
4, 39144, Note_off_c, 9, 46, 64
4, 39168, Note_off_c, 9, 36, 64
4, 39168, Note_on_c, 9, 44, 100
4, 39168, Note_on_c, 9, 36, 127
4, 39192, Note_off_c, 9, 44, 64
4, 39216, Note_off_c, 9, 36, 64
4, 39227, Control_c, 9, 7, 89
4, 39264, Note_on_c, 9, 42, 100
4, 39288, Note_off_c, 9, 42, 64
4, 39312, Note_on_c, 9, 42, 100
4, 39312, Note_on_c, 9, 36, 127
4, 39324, Control_c, 9, 7, 89
4, 39336, Note_off_c, 9, 42, 64
4, 39360, Note_off_c, 9, 36, 64
4, 39360, Note_on_c, 9, 42, 100
4, 39360, Note_on_c, 9, 38, 127
4, 39384, Note_off_c, 9, 42, 64
4, 39408, Note_off_c, 9, 38, 64
4, 39408, Note_on_c, 9, 42, 100
4, 39422, Control_c, 9, 7, 89
4, 39432, Note_off_c, 9, 42, 64
4, 39456, Note_on_c, 9, 42, 100
4, 39456, Note_on_c, 9, 36, 127
4, 39480, Note_off_c, 9, 42, 64
4, 39504, Note_off_c, 9, 36, 64
4, 39504, Note_on_c, 9, 42, 100
4, 39519, Control_c, 9, 7, 89
4, 39528, Note_off_c, 9, 42, 64
4, 39552, Note_on_c, 9, 42, 100
4, 39552, Note_on_c, 9, 36, 127
4, 39576, Note_off_c, 9, 42, 64
4, 39600, Note_off_c, 9, 36, 64
4, 39600, Note_on_c, 9, 42, 100
4, 39617, Control_c, 9, 7, 89
4, 39624, Note_off_c, 9, 42, 64
4, 39648, Note_on_c, 9, 42, 100
4, 39672, Note_off_c, 9, 42, 64
4, 39696, Note_on_c, 9, 46, 100
4, 39696, Note_on_c, 9, 38, 127
4, 39714, Control_c, 9, 7, 89
4, 39720, Note_off_c, 9, 46, 64
4, 39744, Note_off_c, 9, 38, 64
4, 39744, Note_on_c, 9, 44, 100
4, 39768, Note_off_c, 9, 44, 64
4, 39792, Note_on_c, 9, 42, 100
4, 39812, Control_c, 9, 7, 89
4, 39816, Note_off_c, 9, 42, 64
4, 39840, Note_on_c, 9, 42, 100
4, 39840, Note_on_c, 9, 36, 127
4, 39864, Note_off_c, 9, 42, 64
4, 39888, Note_off_c, 9, 36, 64
4, 39888, Note_on_c, 9, 42, 100
4, 39888, Note_on_c, 9, 38, 127
4, 39910, Control_c, 9, 7, 89
4, 39912, Note_off_c, 9, 42, 64
4, 39936, Note_off_c, 9, 38, 64
4, 39936, Note_on_c, 9, 46, 100
4, 39936, Note_on_c, 9, 36, 127
4, 39960, Note_off_c, 9, 46, 64
4, 39984, Note_off_c, 9, 36, 64
4, 40008, Control_c, 9, 7, 89
4, 40032, Note_on_c, 9, 44, 100
4, 40056, Note_off_c, 9, 44, 64
4, 40080, Note_on_c, 9, 42, 100
4, 40080, Note_on_c, 9, 36, 127
4, 40104, Note_off_c, 9, 42, 64
4, 40105, Control_c, 9, 7, 89
4, 40128, Note_off_c, 9, 36, 64
4, 40128, Note_on_c, 9, 42, 100
4, 40128, Note_on_c, 9, 38, 127
4, 40152, Note_off_c, 9, 42, 64
4, 40176, Note_off_c, 9, 38, 64
4, 40176, Note_on_c, 9, 42, 100
4, 40200, Note_off_c, 9, 42, 64
4, 40203, Control_c, 9, 7, 89
4, 40224, Note_on_c, 9, 42, 100
4, 40224, Note_on_c, 9, 36, 127
4, 40248, Note_off_c, 9, 42, 64
4, 40272, Note_off_c, 9, 36, 64
4, 40272, Note_on_c, 9, 42, 100
4, 40296, Note_off_c, 9, 42, 64
4, 40300, Control_c, 9, 7, 89
4, 40320, Note_on_c, 9, 42, 100
4, 40320, Note_on_c, 9, 36, 127
4, 40344, Note_off_c, 9, 42, 64
4, 40368, Note_off_c, 9, 36, 64
4, 40398, Control_c, 9, 7, 89
4, 40416, Note_on_c, 9, 42, 100
4, 40440, Note_off_c, 9, 42, 64
4, 40464, Note_on_c, 9, 42, 100
4, 40464, Note_on_c, 9, 38, 127
4, 40488, Note_off_c, 9, 42, 64
4, 40496, Control_c, 9, 7, 89
4, 40512, Note_off_c, 9, 38, 64
4, 40560, Note_on_c, 9, 38, 127
4, 40594, Control_c, 9, 7, 89
4, 40608, Note_off_c, 9, 38, 64
4, 40656, Note_on_c, 9, 46, 100
4, 40656, Note_on_c, 9, 36, 127
4, 40680, Note_off_c, 9, 46, 64
4, 40691, Control_c, 9, 7, 89
4, 40704, Note_off_c, 9, 36, 64
4, 40704, Note_on_c, 9, 44, 100
4, 40704, Note_on_c, 9, 36, 127
4, 40728, Note_off_c, 9, 44, 64
4, 40752, Note_off_c, 9, 36, 64
4, 40789, Control_c, 9, 7, 89
4, 40800, Note_on_c, 9, 42, 100
4, 40824, Note_off_c, 9, 42, 64
4, 40848, Note_on_c, 9, 42, 100
4, 40848, Note_on_c, 9, 36, 127
4, 40872, Note_off_c, 9, 42, 64
4, 40886, Control_c, 9, 7, 89
4, 40896, Note_off_c, 9, 36, 64
4, 40896, Note_on_c, 9, 42, 100
4, 40896, Note_on_c, 9, 38, 127
4, 40920, Note_off_c, 9, 42, 64
4, 40944, Note_off_c, 9, 38, 64
4, 40944, Note_on_c, 9, 42, 100
4, 40968, Note_off_c, 9, 42, 64
4, 40984, Control_c, 9, 7, 89
4, 40992, Note_on_c, 9, 42, 100
4, 40992, Note_on_c, 9, 36, 127
4, 41016, Note_off_c, 9, 42, 64
4, 41040, Note_off_c, 9, 36, 64
4, 41040, Note_on_c, 9, 42, 100
4, 41064, Note_off_c, 9, 42, 64
4, 41082, Control_c, 9, 7, 89
4, 41088, Note_on_c, 9, 42, 100
4, 41088, Note_on_c, 9, 36, 127
4, 41112, Note_off_c, 9, 42, 64
4, 41136, Note_off_c, 9, 36, 64
4, 41136, Note_on_c, 9, 42, 100
4, 41160, Note_off_c, 9, 42, 64
4, 41180, Control_c, 9, 7, 89
4, 41184, Note_on_c, 9, 42, 100
4, 41208, Note_off_c, 9, 42, 64
4, 41232, Note_on_c, 9, 46, 100
4, 41232, Note_on_c, 9, 38, 127
4, 41256, Note_off_c, 9, 46, 64
4, 41277, Control_c, 9, 7, 89
4, 41280, Note_off_c, 9, 38, 64
4, 41280, Note_on_c, 9, 44, 100
4, 41304, Note_off_c, 9, 44, 64
4, 41328, Note_on_c, 9, 42, 100
4, 41352, Note_off_c, 9, 42, 64
4, 41375, Control_c, 9, 7, 89
4, 41376, Note_on_c, 9, 42, 100
4, 41376, Note_on_c, 9, 36, 127
4, 41400, Note_off_c, 9, 42, 64
4, 41424, Note_off_c, 9, 36, 64
4, 41424, Note_on_c, 9, 42, 100
4, 41424, Note_on_c, 9, 38, 127
4, 41448, Note_off_c, 9, 42, 64
4, 41472, Note_off_c, 9, 38, 64
4, 41472, Note_on_c, 9, 46, 100
4, 41472, Note_on_c, 9, 36, 127
4, 41472, Control_c, 9, 7, 89
4, 41496, Note_off_c, 9, 46, 64
4, 41520, Note_off_c, 9, 36, 64
4, 41568, Note_on_c, 9, 44, 100
4, 41570, Control_c, 9, 7, 89
4, 41592, Note_off_c, 9, 44, 64
4, 41616, Note_on_c, 9, 42, 100
4, 41616, Note_on_c, 9, 36, 127
4, 41640, Note_off_c, 9, 42, 64
4, 41664, Note_off_c, 9, 36, 64
4, 41664, Note_on_c, 9, 42, 100
4, 41664, Note_on_c, 9, 38, 127
4, 41668, Control_c, 9, 7, 89
4, 41688, Note_off_c, 9, 42, 64
4, 41712, Note_off_c, 9, 38, 64
4, 41712, Note_on_c, 9, 42, 100
4, 41736, Note_off_c, 9, 42, 64
4, 41760, Note_on_c, 9, 42, 100
4, 41760, Note_on_c, 9, 36, 127
4, 41766, Control_c, 9, 7, 89
4, 41784, Note_off_c, 9, 42, 64
4, 41808, Note_off_c, 9, 36, 64
4, 41808, Note_on_c, 9, 42, 100
4, 41832, Note_off_c, 9, 42, 64
4, 41856, Note_on_c, 9, 42, 100
4, 41856, Note_on_c, 9, 36, 127
4, 41863, Control_c, 9, 7, 89
4, 41880, Note_off_c, 9, 42, 64
4, 41904, Note_off_c, 9, 36, 64
4, 41952, Note_on_c, 9, 42, 100
4, 41961, Control_c, 9, 7, 89
4, 41976, Note_off_c, 9, 42, 64
4, 42000, Note_on_c, 9, 42, 100
4, 42000, Note_on_c, 9, 38, 127
4, 42024, Note_off_c, 9, 42, 64
4, 42048, Note_off_c, 9, 38, 64
4, 42058, Control_c, 9, 7, 89
4, 42096, Note_on_c, 9, 38, 127
4, 42144, Note_off_c, 9, 38, 64
4, 42156, Control_c, 9, 7, 89
4, 42192, Note_on_c, 9, 46, 100
4, 42192, Note_on_c, 9, 36, 127
4, 42216, Note_off_c, 9, 46, 64
4, 42240, Note_off_c, 9, 36, 64
4, 42240, Note_on_c, 9, 39, 80
4, 42240, Note_on_c, 9, 40, 80
4, 42253, Control_c, 9, 7, 89
4, 42264, Note_off_c, 9, 40, 64
4, 42264, Note_off_c, 9, 39, 64
4, 42336, Note_on_c, 9, 39, 80
4, 42336, Note_on_c, 9, 40, 80
4, 42351, Control_c, 9, 7, 89
4, 42360, Note_off_c, 9, 40, 64
4, 42360, Note_off_c, 9, 39, 64
4, 42432, Note_on_c, 9, 39, 80
4, 42432, Note_on_c, 9, 40, 80
4, 42449, Control_c, 9, 7, 89
4, 42456, Note_off_c, 9, 39, 64
4, 42456, Note_off_c, 9, 40, 64
4, 42480, Note_on_c, 9, 39, 80
4, 42480, Note_on_c, 9, 40, 80
4, 42504, Note_off_c, 9, 39, 64
4, 42504, Note_off_c, 9, 40, 64
4, 42528, Note_on_c, 9, 39, 80
4, 42528, Note_on_c, 9, 40, 80
4, 42547, Control_c, 9, 7, 89
4, 42552, Note_off_c, 9, 39, 64
4, 42552, Note_off_c, 9, 40, 64
4, 42576, Note_on_c, 9, 39, 80
4, 42576, Note_on_c, 9, 40, 80
4, 42600, Note_off_c, 9, 39, 64
4, 42600, Note_off_c, 9, 40, 64
4, 42644, Control_c, 9, 7, 89
4, 42672, Note_on_c, 9, 39, 80
4, 42672, Note_on_c, 9, 40, 80
4, 42696, Note_off_c, 9, 39, 64
4, 42696, Note_off_c, 9, 40, 64
4, 42742, Control_c, 9, 7, 89
4, 42768, Note_on_c, 9, 39, 80
4, 42768, Note_on_c, 9, 40, 80
4, 42792, Note_off_c, 9, 39, 64
4, 42792, Note_off_c, 9, 40, 64
4, 42816, Note_on_c, 9, 39, 80
4, 42816, Note_on_c, 9, 40, 80
4, 42839, Control_c, 9, 7, 89
4, 42840, Note_off_c, 9, 39, 64
4, 42840, Note_off_c, 9, 40, 64
4, 42864, Note_on_c, 9, 39, 80
4, 42864, Note_on_c, 9, 40, 80
4, 42888, Note_off_c, 9, 39, 64
4, 42888, Note_off_c, 9, 40, 64
4, 42912, Note_on_c, 9, 39, 80
4, 42912, Note_on_c, 9, 40, 80
4, 42936, Note_off_c, 9, 39, 64
4, 42936, Note_off_c, 9, 40, 64
4, 42937, Control_c, 9, 7, 89
4, 42960, Note_on_c, 9, 39, 80
4, 42960, Note_on_c, 9, 40, 80
4, 42984, Note_off_c, 9, 39, 64
4, 42984, Note_off_c, 9, 40, 64
4, 43035, Control_c, 9, 7, 89
4, 43133, Control_c, 9, 7, 89
4, 43230, Control_c, 9, 7, 89
4, 43296, Note_on_c, 9, 38, 127
4, 43320, Note_off_c, 9, 38, 64
4, 43328, Control_c, 9, 7, 89
4, 43344, Note_on_c, 9, 38, 127
4, 43368, Note_off_c, 9, 38, 64
4, 43392, Note_on_c, 9, 49, 127
4, 43392, Note_on_c, 9, 46, 100
4, 43392, Note_on_c, 9, 36, 127
4, 43416, Note_off_c, 9, 46, 64
4, 43425, Control_c, 9, 7, 89
4, 43440, Note_off_c, 9, 36, 64
4, 43488, Note_on_c, 9, 44, 100
4, 43512, Note_off_c, 9, 44, 64
4, 43523, Control_c, 9, 7, 89
4, 43536, Note_on_c, 9, 42, 100
4, 43536, Note_on_c, 9, 36, 127
4, 43560, Note_off_c, 9, 42, 64
4, 43584, Note_off_c, 9, 36, 64
4, 43584, Note_on_c, 9, 42, 100
4, 43584, Note_on_c, 9, 38, 127
4, 43608, Note_off_c, 9, 42, 64
4, 43621, Control_c, 9, 7, 89
4, 43632, Note_off_c, 9, 38, 64
4, 43632, Note_on_c, 9, 42, 100
4, 43656, Note_off_c, 9, 42, 64
4, 43680, Note_on_c, 9, 42, 100
4, 43680, Note_on_c, 9, 36, 127
4, 43704, Note_off_c, 9, 42, 64
4, 43719, Control_c, 9, 7, 89
4, 43728, Note_off_c, 9, 36, 64
4, 43728, Note_on_c, 9, 42, 100
4, 43752, Note_off_c, 9, 42, 64
4, 43776, Note_on_c, 9, 42, 100
4, 43776, Note_on_c, 9, 36, 127
4, 43800, Note_off_c, 9, 42, 64
4, 43816, Control_c, 9, 7, 89
4, 43824, Note_off_c, 9, 36, 64
4, 43872, Note_on_c, 9, 42, 100
4, 43896, Note_off_c, 9, 42, 64
4, 43914, Control_c, 9, 7, 89
4, 43920, Note_on_c, 9, 42, 100
4, 43920, Note_on_c, 9, 38, 127
4, 43944, Note_off_c, 9, 42, 64
4, 43968, Note_off_c, 9, 38, 64
4, 44011, Control_c, 9, 7, 89
4, 44016, Note_on_c, 9, 38, 127
4, 44064, Note_off_c, 9, 38, 64
4, 44109, Control_c, 9, 7, 89
4, 44112, Note_on_c, 9, 46, 100
4, 44112, Note_on_c, 9, 36, 127
4, 44136, Note_off_c, 9, 46, 64
4, 44160, Note_off_c, 9, 36, 64
4, 44160, Note_on_c, 9, 44, 100
4, 44160, Note_on_c, 9, 36, 127
4, 44184, Note_off_c, 9, 44, 64
4, 44206, Control_c, 9, 7, 89
4, 44208, Note_off_c, 9, 36, 64
4, 44256, Note_on_c, 9, 42, 100
4, 44280, Note_off_c, 9, 42, 64
4, 44304, Note_on_c, 9, 42, 100
4, 44304, Note_on_c, 9, 36, 127
4, 44305, Control_c, 9, 7, 89
4, 44328, Note_off_c, 9, 42, 64
4, 44352, Note_off_c, 9, 36, 64
4, 44352, Note_on_c, 9, 42, 100
4, 44352, Note_on_c, 9, 38, 127
4, 44376, Note_off_c, 9, 42, 64
4, 44400, Note_off_c, 9, 38, 64
4, 44400, Note_on_c, 9, 42, 100
4, 44402, Control_c, 9, 7, 89
4, 44424, Note_off_c, 9, 42, 64
4, 44448, Note_on_c, 9, 42, 100
4, 44448, Note_on_c, 9, 36, 127
4, 44472, Note_off_c, 9, 42, 64
4, 44496, Note_off_c, 9, 36, 64
4, 44496, Note_on_c, 9, 42, 100
4, 44500, Control_c, 9, 7, 89
4, 44520, Note_off_c, 9, 42, 64
4, 44544, Note_on_c, 9, 42, 100
4, 44544, Note_on_c, 9, 36, 127
4, 44568, Note_off_c, 9, 42, 64
4, 44592, Note_off_c, 9, 36, 64
4, 44592, Note_on_c, 9, 42, 100
4, 44597, Control_c, 9, 7, 89
4, 44616, Note_off_c, 9, 42, 64
4, 44640, Note_off_c, 9, 49, 64
4, 44640, Note_on_c, 9, 42, 100
4, 44664, Note_off_c, 9, 42, 64
4, 44688, Note_on_c, 9, 46, 100
4, 44688, Note_on_c, 9, 38, 127
4, 44695, Control_c, 9, 7, 89
4, 44712, Note_off_c, 9, 46, 64
4, 44736, Note_off_c, 9, 38, 64
4, 44736, Note_on_c, 9, 44, 100
4, 44760, Note_off_c, 9, 44, 64
4, 44784, Note_on_c, 9, 42, 100
4, 44792, Control_c, 9, 7, 89
4, 44808, Note_off_c, 9, 42, 64
4, 44832, Note_on_c, 9, 42, 100
4, 44832, Note_on_c, 9, 36, 127
4, 44856, Note_off_c, 9, 42, 64
4, 44880, Note_off_c, 9, 36, 64
4, 44880, Note_on_c, 9, 42, 100
4, 44880, Note_on_c, 9, 38, 127
4, 44890, Control_c, 9, 7, 89
4, 44904, Note_off_c, 9, 42, 64
4, 44928, Note_off_c, 9, 38, 64
4, 44928, Note_on_c, 9, 46, 100
4, 44928, Note_on_c, 9, 36, 127
4, 44952, Note_off_c, 9, 46, 64
4, 44976, Note_off_c, 9, 36, 64
4, 44988, Control_c, 9, 7, 89
4, 45024, Note_on_c, 9, 44, 100
4, 45048, Note_off_c, 9, 44, 64
4, 45072, Note_on_c, 9, 42, 100
4, 45072, Note_on_c, 9, 36, 127
4, 45086, Control_c, 9, 7, 89
4, 45096, Note_off_c, 9, 42, 64
4, 45120, Note_off_c, 9, 36, 64
4, 45120, Note_on_c, 9, 42, 100
4, 45120, Note_on_c, 9, 38, 127
4, 45144, Note_off_c, 9, 42, 64
4, 45168, Note_off_c, 9, 38, 64
4, 45168, Note_on_c, 9, 42, 100
4, 45183, Control_c, 9, 7, 89
4, 45192, Note_off_c, 9, 42, 64
4, 45216, Note_on_c, 9, 42, 100
4, 45216, Note_on_c, 9, 36, 127
4, 45240, Note_off_c, 9, 42, 64
4, 45264, Note_off_c, 9, 36, 64
4, 45264, Note_on_c, 9, 42, 100
4, 45281, Control_c, 9, 7, 89
4, 45288, Note_off_c, 9, 42, 64
4, 45312, Note_on_c, 9, 42, 100
4, 45312, Note_on_c, 9, 36, 127
4, 45336, Note_off_c, 9, 42, 64
4, 45360, Note_off_c, 9, 36, 64
4, 45378, Control_c, 9, 7, 89
4, 45408, Note_on_c, 9, 42, 100
4, 45432, Note_off_c, 9, 42, 64
4, 45456, Note_on_c, 9, 42, 100
4, 45456, Note_on_c, 9, 38, 127
4, 45476, Control_c, 9, 7, 89
4, 45480, Note_off_c, 9, 42, 64
4, 45504, Note_off_c, 9, 38, 64
4, 45552, Note_on_c, 9, 38, 127
4, 45574, Control_c, 9, 7, 89
4, 45600, Note_off_c, 9, 38, 64
4, 45648, Note_on_c, 9, 46, 100
4, 45648, Note_on_c, 9, 36, 127
4, 45672, Note_off_c, 9, 46, 64
4, 45672, Control_c, 9, 7, 89
4, 45696, Note_off_c, 9, 36, 64
4, 45696, Note_on_c, 9, 44, 100
4, 45696, Note_on_c, 9, 36, 127
4, 45720, Note_off_c, 9, 44, 64
4, 45744, Note_off_c, 9, 36, 64
4, 45769, Control_c, 9, 7, 89
4, 45792, Note_on_c, 9, 42, 100
4, 45816, Note_off_c, 9, 42, 64
4, 45840, Note_on_c, 9, 42, 100
4, 45840, Note_on_c, 9, 36, 127
4, 45864, Note_off_c, 9, 42, 64
4, 45867, Control_c, 9, 7, 89
4, 45888, Note_off_c, 9, 36, 64
4, 45888, Note_on_c, 9, 42, 100
4, 45888, Note_on_c, 9, 38, 127
4, 45912, Note_off_c, 9, 42, 64
4, 45936, Note_off_c, 9, 38, 64
4, 45936, Note_on_c, 9, 42, 100
4, 45960, Note_off_c, 9, 42, 64
4, 45964, Control_c, 9, 7, 89
4, 45984, Note_on_c, 9, 42, 100
4, 45984, Note_on_c, 9, 36, 127
4, 46008, Note_off_c, 9, 42, 64
4, 46032, Note_off_c, 9, 36, 64
4, 46032, Note_on_c, 9, 42, 100
4, 46056, Note_off_c, 9, 42, 64
4, 46062, Control_c, 9, 7, 89
4, 46080, Note_on_c, 9, 42, 100
4, 46080, Note_on_c, 9, 36, 127
4, 46104, Note_off_c, 9, 42, 64
4, 46128, Note_off_c, 9, 36, 64
4, 46128, Note_on_c, 9, 42, 100
4, 46152, Note_off_c, 9, 42, 64
4, 46160, Control_c, 9, 7, 89
4, 46176, Note_on_c, 9, 42, 100
4, 46200, Note_off_c, 9, 42, 64
4, 46224, Note_on_c, 9, 46, 100
4, 46224, Note_on_c, 9, 38, 127
4, 46248, Note_off_c, 9, 46, 64
4, 46258, Control_c, 9, 7, 89
4, 46272, Note_off_c, 9, 38, 64
4, 46272, Note_on_c, 9, 44, 100
4, 46296, Note_off_c, 9, 44, 64
4, 46320, Note_on_c, 9, 42, 100
4, 46344, Note_off_c, 9, 42, 64
4, 46355, Control_c, 9, 7, 89
4, 46368, Note_on_c, 9, 42, 100
4, 46368, Note_on_c, 9, 36, 127
4, 46392, Note_off_c, 9, 42, 64
4, 46416, Note_off_c, 9, 36, 64
4, 46416, Note_on_c, 9, 42, 100
4, 46416, Note_on_c, 9, 38, 127
4, 46440, Note_off_c, 9, 42, 64
4, 46453, Control_c, 9, 7, 89
4, 46464, Note_off_c, 9, 38, 64
4, 46464, Note_on_c, 9, 46, 100
4, 46464, Note_on_c, 9, 36, 127
4, 46488, Note_off_c, 9, 46, 64
4, 46512, Note_off_c, 9, 36, 64
4, 46550, Control_c, 9, 7, 89
4, 46560, Note_on_c, 9, 44, 100
4, 46584, Note_off_c, 9, 44, 64
4, 46608, Note_on_c, 9, 42, 100
4, 46608, Note_on_c, 9, 36, 127
4, 46632, Note_off_c, 9, 42, 64
4, 46648, Control_c, 9, 7, 89
4, 46656, Note_off_c, 9, 36, 64
4, 46656, Note_on_c, 9, 42, 100
4, 46656, Note_on_c, 9, 38, 127
4, 46680, Note_off_c, 9, 42, 64
4, 46704, Note_off_c, 9, 38, 64
4, 46704, Note_on_c, 9, 42, 100
4, 46728, Note_off_c, 9, 42, 64
4, 46745, Control_c, 9, 7, 89
4, 46752, Note_on_c, 9, 42, 100
4, 46752, Note_on_c, 9, 36, 127
4, 46776, Note_off_c, 9, 42, 64
4, 46800, Note_off_c, 9, 36, 64
4, 46800, Note_on_c, 9, 42, 100
4, 46824, Note_off_c, 9, 42, 64
4, 46844, Control_c, 9, 7, 89
4, 46848, Note_on_c, 9, 42, 100
4, 46848, Note_on_c, 9, 36, 127
4, 46872, Note_off_c, 9, 42, 64
4, 46896, Note_off_c, 9, 36, 64
4, 46941, Control_c, 9, 7, 89
4, 46944, Note_on_c, 9, 42, 100
4, 46968, Note_off_c, 9, 42, 64
4, 46992, Note_on_c, 9, 42, 100
4, 46992, Note_on_c, 9, 38, 127
4, 47016, Note_off_c, 9, 42, 64
4, 47039, Control_c, 9, 7, 89
4, 47040, Note_off_c, 9, 38, 64
4, 47088, Note_on_c, 9, 38, 127
4, 47136, Note_off_c, 9, 38, 64
4, 47136, Control_c, 9, 7, 89
4, 47184, Note_on_c, 9, 46, 100
4, 47184, Note_on_c, 9, 36, 127
4, 47208, Note_off_c, 9, 46, 64
4, 47232, Note_off_c, 9, 36, 64
4, 47232, Note_on_c, 9, 44, 100
4, 47232, Note_on_c, 9, 36, 127
4, 47234, Control_c, 9, 7, 89
4, 47256, Note_off_c, 9, 44, 64
4, 47280, Note_off_c, 9, 36, 64
4, 47328, Note_on_c, 9, 42, 100
4, 47331, Control_c, 9, 7, 89
4, 47352, Note_off_c, 9, 42, 64
4, 47376, Note_on_c, 9, 42, 100
4, 47376, Note_on_c, 9, 36, 127
4, 47400, Note_off_c, 9, 42, 64
4, 47424, Note_off_c, 9, 36, 64
4, 47424, Note_on_c, 9, 42, 100
4, 47424, Note_on_c, 9, 38, 127
4, 47429, Control_c, 9, 7, 89
4, 47448, Note_off_c, 9, 42, 64
4, 47472, Note_off_c, 9, 38, 64
4, 47472, Note_on_c, 9, 42, 100
4, 47496, Note_off_c, 9, 42, 64
4, 47520, Note_on_c, 9, 42, 100
4, 47520, Note_on_c, 9, 36, 127
4, 47527, Control_c, 9, 7, 89
4, 47544, Note_off_c, 9, 42, 64
4, 47568, Note_off_c, 9, 36, 64
4, 47568, Note_on_c, 9, 42, 100
4, 47592, Note_off_c, 9, 42, 64
4, 47616, Note_on_c, 9, 42, 100
4, 47616, Note_on_c, 9, 36, 127
4, 47625, Control_c, 9, 7, 89
4, 47640, Note_off_c, 9, 42, 64
4, 47664, Note_off_c, 9, 36, 64
4, 47664, Note_on_c, 9, 42, 100
4, 47688, Note_off_c, 9, 42, 64
4, 47712, Note_on_c, 9, 42, 100
4, 47722, Control_c, 9, 7, 89
4, 47736, Note_off_c, 9, 42, 64
4, 47760, Note_on_c, 9, 46, 100
4, 47760, Note_on_c, 9, 38, 127
4, 47784, Note_off_c, 9, 46, 64
4, 47808, Note_off_c, 9, 38, 64
4, 47808, Note_on_c, 9, 44, 100
4, 47820, Control_c, 9, 7, 89
4, 47832, Note_off_c, 9, 44, 64
4, 47856, Note_on_c, 9, 42, 100
4, 47880, Note_off_c, 9, 42, 64
4, 47904, Note_on_c, 9, 42, 100
4, 47904, Note_on_c, 9, 36, 127
4, 47917, Control_c, 9, 7, 89
4, 47928, Note_off_c, 9, 42, 64
4, 47952, Note_off_c, 9, 36, 64
4, 47952, Note_on_c, 9, 42, 100
4, 47952, Note_on_c, 9, 38, 127
4, 47976, Note_off_c, 9, 42, 64
4, 48000, Note_off_c, 9, 38, 64
4, 48000, Note_on_c, 9, 46, 100
4, 48000, Note_on_c, 9, 36, 127
4, 48015, Control_c, 9, 7, 89
4, 48024, Note_off_c, 9, 46, 64
4, 48048, Note_off_c, 9, 36, 64
4, 48096, Note_on_c, 9, 44, 100
4, 48113, Control_c, 9, 7, 89
4, 48120, Note_off_c, 9, 44, 64
4, 48144, Note_on_c, 9, 42, 100
4, 48144, Note_on_c, 9, 36, 127
4, 48168, Note_off_c, 9, 42, 64
4, 48192, Note_off_c, 9, 36, 64
4, 48192, Note_on_c, 9, 42, 100
4, 48192, Note_on_c, 9, 38, 127
4, 48211, Control_c, 9, 7, 89
4, 48216, Note_off_c, 9, 42, 64
4, 48240, Note_off_c, 9, 38, 64
4, 48240, Note_on_c, 9, 42, 100
4, 48264, Note_off_c, 9, 42, 64
4, 48288, Note_on_c, 9, 42, 100
4, 48288, Note_on_c, 9, 36, 127
4, 48308, Control_c, 9, 7, 89
4, 48312, Note_off_c, 9, 42, 64
4, 48336, Note_off_c, 9, 36, 64
4, 48336, Note_on_c, 9, 42, 100
4, 48360, Note_off_c, 9, 42, 64
4, 48384, Note_on_c, 9, 42, 100
4, 48384, Note_on_c, 9, 36, 127
4, 48406, Control_c, 9, 7, 89
4, 48408, Note_off_c, 9, 42, 64
4, 48432, Note_off_c, 9, 36, 64
4, 48480, Note_on_c, 9, 42, 100
4, 48503, Control_c, 9, 7, 89
4, 48504, Note_off_c, 9, 42, 64
4, 48528, Note_on_c, 9, 42, 100
4, 48528, Note_on_c, 9, 38, 127
4, 48552, Note_off_c, 9, 42, 64
4, 48576, Note_off_c, 9, 38, 64
4, 48601, Control_c, 9, 7, 89
4, 48624, Note_on_c, 9, 38, 127
4, 48672, Note_off_c, 9, 38, 64
4, 48699, Control_c, 9, 7, 89
4, 48720, Note_on_c, 9, 46, 100
4, 48720, Note_on_c, 9, 36, 127
4, 48744, Note_off_c, 9, 46, 64
4, 48768, Note_off_c, 9, 36, 64
4, 48768, Note_on_c, 9, 46, 127
4, 48768, Note_on_c, 9, 36, 127
4, 48792, Note_off_c, 9, 36, 64
4, 48792, Note_off_c, 9, 46, 64
4, 48797, Control_c, 9, 7, 89
4, 48816, Note_on_c, 9, 44, 127
4, 48840, Note_off_c, 9, 44, 64
4, 48864, Note_on_c, 9, 42, 127
4, 48888, Note_off_c, 9, 42, 64
4, 48894, Control_c, 9, 7, 89
4, 48912, Note_on_c, 9, 42, 127
4, 48912, Note_on_c, 9, 36, 127
4, 48936, Note_off_c, 9, 36, 64
4, 48936, Note_off_c, 9, 42, 64
4, 48960, Note_on_c, 9, 42, 127
4, 48960, Note_on_c, 9, 38, 127
4, 48984, Note_off_c, 9, 38, 64
4, 48984, Note_off_c, 9, 42, 64
4, 48992, Control_c, 9, 7, 89
4, 49008, Note_on_c, 9, 42, 127
4, 49032, Note_off_c, 9, 42, 64
4, 49056, Note_on_c, 9, 42, 127
4, 49080, Note_off_c, 9, 42, 64
4, 49089, Control_c, 9, 7, 89
4, 49104, Note_on_c, 9, 42, 127
4, 49128, Note_off_c, 9, 42, 64
4, 49152, Note_on_c, 9, 42, 127
4, 49176, Note_off_c, 9, 42, 64
4, 49187, Control_c, 9, 7, 89
4, 49200, Note_on_c, 9, 42, 127
4, 49224, Note_off_c, 9, 42, 64
4, 49248, Note_on_c, 9, 42, 127
4, 49272, Note_off_c, 9, 42, 64
4, 49284, Control_c, 9, 7, 89
4, 49296, Note_on_c, 9, 42, 127
4, 49320, Note_off_c, 9, 42, 64
4, 49344, Note_on_c, 9, 42, 127
4, 49344, Note_on_c, 9, 38, 127
4, 49368, Note_off_c, 9, 38, 64
4, 49368, Note_off_c, 9, 42, 64
4, 49382, Control_c, 9, 7, 89
4, 49392, Note_on_c, 9, 35, 127
4, 49416, Note_off_c, 9, 35, 64
4, 49440, Note_on_c, 9, 42, 127
4, 49440, Note_on_c, 9, 38, 127
4, 49464, Note_off_c, 9, 38, 64
4, 49464, Note_off_c, 9, 42, 64
4, 49480, Control_c, 9, 7, 89
4, 49488, Note_on_c, 9, 42, 127
4, 49488, Note_on_c, 9, 35, 127
4, 49488, Note_on_c, 9, 38, 127
4, 49512, Note_off_c, 9, 38, 64
4, 49512, Note_off_c, 9, 35, 64
4, 49512, Note_off_c, 9, 42, 64
4, 49536, Note_on_c, 9, 49, 127
4, 49536, Note_on_c, 9, 46, 100
4, 49536, Note_on_c, 9, 36, 127
4, 49560, Note_off_c, 9, 46, 64
4, 49578, Control_c, 9, 7, 89
4, 49584, Note_off_c, 9, 36, 64
4, 49632, Note_on_c, 9, 44, 100
4, 49656, Note_off_c, 9, 44, 64
4, 49675, Control_c, 9, 7, 89
4, 49680, Note_on_c, 9, 42, 100
4, 49680, Note_on_c, 9, 36, 127
4, 49704, Note_off_c, 9, 42, 64
4, 49728, Note_off_c, 9, 36, 64
4, 49728, Note_on_c, 9, 42, 100
4, 49752, Note_off_c, 9, 42, 64
4, 49773, Control_c, 9, 7, 89
4, 49776, Note_on_c, 9, 42, 100
4, 49800, Note_off_c, 9, 42, 64
4, 49824, Note_on_c, 9, 42, 100
4, 49824, Note_on_c, 9, 36, 127
4, 49848, Note_off_c, 9, 42, 64
4, 49870, Control_c, 9, 7, 89
4, 49872, Note_off_c, 9, 36, 64
4, 49872, Note_on_c, 9, 42, 100
4, 49896, Note_off_c, 9, 42, 64
4, 49920, Note_on_c, 9, 38, 127
4, 49920, Note_on_c, 9, 42, 100
4, 49944, Note_off_c, 9, 42, 64
4, 49968, Note_off_c, 9, 38, 64
4, 49968, Control_c, 9, 7, 89
4, 50016, Note_on_c, 9, 42, 100
4, 50040, Note_off_c, 9, 42, 64
4, 50064, Note_on_c, 9, 42, 100
4, 50066, Control_c, 9, 7, 89
4, 50088, Note_off_c, 9, 42, 64
4, 50164, Control_c, 9, 7, 89
4, 50208, Note_on_c, 9, 38, 127
4, 50256, Note_off_c, 9, 38, 64
4, 50256, Note_on_c, 9, 36, 127
4, 50256, Note_on_c, 9, 46, 100
4, 50261, Control_c, 9, 7, 89
4, 50280, Note_off_c, 9, 46, 64
4, 50304, Note_off_c, 9, 36, 64
4, 50304, Note_on_c, 9, 36, 127
4, 50304, Note_on_c, 9, 44, 100
4, 50328, Note_off_c, 9, 44, 64
4, 50352, Note_off_c, 9, 36, 64
4, 50359, Control_c, 9, 7, 89
4, 50400, Note_on_c, 9, 42, 100
4, 50424, Note_off_c, 9, 42, 64
4, 50448, Note_on_c, 9, 42, 100
4, 50448, Note_on_c, 9, 36, 127
4, 50456, Control_c, 9, 7, 89
4, 50472, Note_off_c, 9, 42, 64
4, 50496, Note_off_c, 9, 36, 64
4, 50496, Note_on_c, 9, 42, 100
4, 50520, Note_off_c, 9, 42, 64
4, 50544, Note_on_c, 9, 42, 100
4, 50554, Control_c, 9, 7, 89
4, 50568, Note_off_c, 9, 42, 64
4, 50592, Note_on_c, 9, 42, 100
4, 50592, Note_on_c, 9, 36, 127
4, 50616, Note_off_c, 9, 42, 64
4, 50640, Note_off_c, 9, 36, 64
4, 50640, Note_on_c, 9, 42, 100
4, 50652, Control_c, 9, 7, 90
4, 50664, Note_off_c, 9, 42, 64
4, 50688, Note_on_c, 9, 38, 127
4, 50688, Note_on_c, 9, 42, 100
4, 50712, Note_off_c, 9, 42, 64
4, 50736, Note_off_c, 9, 38, 64
4, 50736, Note_on_c, 9, 42, 100
4, 50750, Control_c, 9, 7, 90
4, 50760, Note_off_c, 9, 42, 64
4, 50784, Note_off_c, 9, 49, 64
4, 50784, Note_on_c, 9, 36, 127
4, 50784, Note_on_c, 9, 42, 100
4, 50808, Note_off_c, 9, 42, 64
4, 50832, Note_off_c, 9, 36, 64
4, 50832, Note_on_c, 9, 46, 100
4, 50832, Note_on_c, 9, 38, 127
4, 50847, Control_c, 9, 7, 90
4, 50856, Note_off_c, 9, 46, 64
4, 50880, Note_off_c, 9, 38, 64
4, 50880, Note_on_c, 9, 44, 100
4, 50904, Note_off_c, 9, 44, 64
4, 50928, Note_on_c, 9, 36, 127
4, 50928, Note_on_c, 9, 42, 100
4, 50945, Control_c, 9, 7, 90
4, 50952, Note_off_c, 9, 42, 64
4, 50976, Note_off_c, 9, 36, 64
4, 50976, Note_on_c, 9, 38, 127
4, 50976, Note_on_c, 9, 42, 100
4, 51000, Note_off_c, 9, 42, 64
4, 51024, Note_off_c, 9, 38, 64
4, 51024, Note_on_c, 9, 42, 100
4, 51042, Control_c, 9, 7, 90
4, 51048, Note_off_c, 9, 42, 64
4, 51072, Note_on_c, 9, 46, 100
4, 51072, Note_on_c, 9, 36, 127
4, 51096, Note_off_c, 9, 46, 64
4, 51120, Note_off_c, 9, 36, 64
4, 51140, Control_c, 9, 7, 90
4, 51168, Note_on_c, 9, 44, 100
4, 51192, Note_off_c, 9, 44, 64
4, 51216, Note_on_c, 9, 42, 100
4, 51216, Note_on_c, 9, 36, 127
4, 51238, Control_c, 9, 7, 90
4, 51240, Note_off_c, 9, 42, 64
4, 51264, Note_off_c, 9, 36, 64
4, 51264, Note_on_c, 9, 42, 100
4, 51288, Note_off_c, 9, 42, 64
4, 51312, Note_on_c, 9, 42, 100
4, 51336, Note_off_c, 9, 42, 64
4, 51336, Control_c, 9, 7, 90
4, 51360, Note_on_c, 9, 42, 100
4, 51360, Note_on_c, 9, 36, 127
4, 51384, Note_off_c, 9, 42, 64
4, 51408, Note_off_c, 9, 36, 64
4, 51408, Note_on_c, 9, 42, 100
4, 51432, Note_off_c, 9, 42, 64
4, 51433, Control_c, 9, 7, 90
4, 51456, Note_on_c, 9, 38, 127
4, 51456, Note_on_c, 9, 42, 100
4, 51480, Note_off_c, 9, 42, 64
4, 51504, Note_off_c, 9, 38, 64
4, 51531, Control_c, 9, 7, 90
4, 51552, Note_on_c, 9, 42, 100
4, 51576, Note_off_c, 9, 42, 64
4, 51600, Note_on_c, 9, 42, 100
4, 51624, Note_off_c, 9, 42, 64
4, 51628, Control_c, 9, 7, 90
4, 51648, Note_on_c, 9, 36, 127
4, 51696, Note_off_c, 9, 36, 64
4, 51696, Note_on_c, 9, 38, 127
4, 51726, Control_c, 9, 7, 90
4, 51744, Note_off_c, 9, 38, 64
4, 51792, Note_on_c, 9, 36, 127
4, 51792, Note_on_c, 9, 46, 100
4, 51816, Note_off_c, 9, 46, 64
4, 51823, Control_c, 9, 7, 90
4, 51840, Note_off_c, 9, 36, 64
4, 51840, Note_on_c, 9, 44, 100
4, 51840, Note_on_c, 9, 36, 127
4, 51864, Note_off_c, 9, 44, 64
4, 51888, Note_off_c, 9, 36, 64
4, 51921, Control_c, 9, 7, 90
4, 51936, Note_on_c, 9, 42, 100
4, 51960, Note_off_c, 9, 42, 64
4, 51984, Note_on_c, 9, 36, 127
4, 51984, Note_on_c, 9, 42, 100
4, 52008, Note_off_c, 9, 42, 64
4, 52019, Control_c, 9, 7, 90
4, 52032, Note_off_c, 9, 36, 64
4, 52032, Note_on_c, 9, 42, 100
4, 52056, Note_off_c, 9, 42, 64
4, 52080, Note_on_c, 9, 42, 100
4, 52104, Note_off_c, 9, 42, 64
4, 52117, Control_c, 9, 7, 90
4, 52128, Note_on_c, 9, 42, 100
4, 52128, Note_on_c, 9, 36, 127
4, 52152, Note_off_c, 9, 42, 64
4, 52176, Note_off_c, 9, 36, 64
4, 52176, Note_on_c, 9, 42, 100
4, 52200, Note_off_c, 9, 42, 64
4, 52214, Control_c, 9, 7, 90
4, 52224, Note_on_c, 9, 38, 127
4, 52224, Note_on_c, 9, 42, 100
4, 52248, Note_off_c, 9, 42, 64
4, 52272, Note_off_c, 9, 38, 64
4, 52272, Note_on_c, 9, 42, 100
4, 52296, Note_off_c, 9, 42, 64
4, 52312, Control_c, 9, 7, 90
4, 52320, Note_on_c, 9, 42, 100
4, 52344, Note_off_c, 9, 42, 64
4, 52368, Note_on_c, 9, 46, 100
4, 52368, Note_on_c, 9, 38, 127
4, 52392, Note_off_c, 9, 46, 64
4, 52409, Control_c, 9, 7, 90
4, 52416, Note_off_c, 9, 38, 64
4, 52416, Note_on_c, 9, 44, 100
4, 52440, Note_off_c, 9, 44, 64
4, 52464, Note_on_c, 9, 38, 127
4, 52464, Note_on_c, 9, 42, 100
4, 52488, Note_off_c, 9, 42, 64
4, 52507, Control_c, 9, 7, 90
4, 52512, Note_off_c, 9, 38, 64
4, 52512, Note_on_c, 9, 42, 100
4, 52512, Note_on_c, 9, 36, 127
4, 52536, Note_off_c, 9, 42, 64
4, 52560, Note_off_c, 9, 36, 64
4, 52560, Note_on_c, 9, 42, 100
4, 52584, Note_off_c, 9, 42, 64
4, 52605, Control_c, 9, 7, 90
4, 52608, Note_on_c, 9, 46, 100
4, 52608, Note_on_c, 9, 36, 127
4, 52632, Note_off_c, 9, 46, 64
4, 52656, Note_off_c, 9, 36, 64
4, 52703, Control_c, 9, 7, 90
4, 52704, Note_on_c, 9, 44, 100
4, 52728, Note_off_c, 9, 44, 64
4, 52752, Note_on_c, 9, 42, 100
4, 52752, Note_on_c, 9, 36, 127
4, 52776, Note_off_c, 9, 42, 64
4, 52800, Note_off_c, 9, 36, 64
4, 52800, Note_on_c, 9, 42, 100
4, 52800, Control_c, 9, 7, 90
4, 52824, Note_off_c, 9, 42, 64
4, 52848, Note_on_c, 9, 42, 100
4, 52872, Note_off_c, 9, 42, 64
4, 52896, Note_on_c, 9, 42, 100
4, 52896, Note_on_c, 9, 36, 127
4, 52898, Control_c, 9, 7, 90
4, 52920, Note_off_c, 9, 42, 64
4, 52944, Note_off_c, 9, 36, 64
4, 52944, Note_on_c, 9, 42, 100
4, 52968, Note_off_c, 9, 42, 64
4, 52992, Note_on_c, 9, 38, 127
4, 52992, Note_on_c, 9, 42, 100
4, 52995, Control_c, 9, 7, 90
4, 53016, Note_off_c, 9, 42, 64
4, 53040, Note_off_c, 9, 38, 64
4, 53088, Note_on_c, 9, 42, 100
4, 53093, Control_c, 9, 7, 90
4, 53112, Note_off_c, 9, 42, 64
4, 53136, Note_on_c, 9, 42, 100
4, 53160, Note_off_c, 9, 42, 64
4, 53191, Control_c, 9, 7, 90
4, 53280, Note_on_c, 9, 38, 127
4, 53289, Control_c, 9, 7, 90
4, 53328, Note_off_c, 9, 38, 64
4, 53328, Note_on_c, 9, 36, 127
4, 53328, Note_on_c, 9, 46, 100
4, 53352, Note_off_c, 9, 46, 64
4, 53376, Note_off_c, 9, 36, 64
4, 53376, Note_on_c, 9, 44, 100
4, 53376, Note_on_c, 9, 36, 127
4, 53386, Control_c, 9, 7, 90
4, 53400, Note_off_c, 9, 44, 64
4, 53424, Note_off_c, 9, 36, 64
4, 53472, Note_on_c, 9, 42, 100
4, 53484, Control_c, 9, 7, 90
4, 53496, Note_off_c, 9, 42, 64
4, 53520, Note_on_c, 9, 42, 100
4, 53520, Note_on_c, 9, 36, 127
4, 53544, Note_off_c, 9, 42, 64
4, 53568, Note_off_c, 9, 36, 64
4, 53568, Note_on_c, 9, 42, 100
4, 53581, Control_c, 9, 7, 90
4, 53592, Note_off_c, 9, 42, 64
4, 53616, Note_on_c, 9, 42, 100
4, 53640, Note_off_c, 9, 42, 64
4, 53664, Note_on_c, 9, 42, 100
4, 53664, Note_on_c, 9, 36, 127
4, 53679, Control_c, 9, 7, 90
4, 53688, Note_off_c, 9, 42, 64
4, 53712, Note_off_c, 9, 36, 64
4, 53712, Note_on_c, 9, 42, 100
4, 53736, Note_off_c, 9, 42, 64
4, 53760, Note_on_c, 9, 38, 127
4, 53760, Note_on_c, 9, 42, 100
4, 53776, Control_c, 9, 7, 90
4, 53784, Note_off_c, 9, 42, 64
4, 53808, Note_off_c, 9, 38, 64
4, 53808, Note_on_c, 9, 42, 100
4, 53832, Note_off_c, 9, 42, 64
4, 53856, Note_on_c, 9, 36, 127
4, 53856, Note_on_c, 9, 42, 100
4, 53875, Control_c, 9, 7, 90
4, 53880, Note_off_c, 9, 42, 64
4, 53904, Note_off_c, 9, 36, 64
4, 53904, Note_on_c, 9, 46, 100
4, 53904, Note_on_c, 9, 38, 127
4, 53928, Note_off_c, 9, 46, 64
4, 53952, Note_off_c, 9, 38, 64
4, 53952, Note_on_c, 9, 44, 100
4, 53972, Control_c, 9, 7, 90
4, 53976, Note_off_c, 9, 44, 64
4, 54000, Note_on_c, 9, 36, 127
4, 54000, Note_on_c, 9, 42, 100
4, 54024, Note_off_c, 9, 42, 64
4, 54048, Note_off_c, 9, 36, 64
4, 54048, Note_on_c, 9, 38, 127
4, 54048, Note_on_c, 9, 42, 100
4, 54070, Control_c, 9, 7, 90
4, 54072, Note_off_c, 9, 42, 64
4, 54096, Note_off_c, 9, 38, 64
4, 54096, Note_on_c, 9, 42, 100
4, 54120, Note_off_c, 9, 42, 64
4, 54144, Note_on_c, 9, 46, 100
4, 54144, Note_on_c, 9, 36, 127
4, 54167, Control_c, 9, 7, 90
4, 54168, Note_off_c, 9, 46, 64
4, 54192, Note_off_c, 9, 36, 64
4, 54240, Note_on_c, 9, 44, 100
4, 54264, Note_off_c, 9, 44, 64
4, 54265, Control_c, 9, 7, 90
4, 54288, Note_on_c, 9, 42, 100
4, 54288, Note_on_c, 9, 36, 127
4, 54312, Note_off_c, 9, 42, 64
4, 54336, Note_off_c, 9, 36, 64
4, 54336, Note_on_c, 9, 42, 100
4, 54360, Note_off_c, 9, 42, 64
4, 54362, Control_c, 9, 7, 90
4, 54384, Note_on_c, 9, 42, 100
4, 54408, Note_off_c, 9, 42, 64
4, 54432, Note_on_c, 9, 42, 100
4, 54432, Note_on_c, 9, 36, 127
4, 54456, Note_off_c, 9, 42, 64
4, 54460, Control_c, 9, 7, 90
4, 54480, Note_off_c, 9, 36, 64
4, 54480, Note_on_c, 9, 42, 100
4, 54504, Note_off_c, 9, 42, 64
4, 54528, Note_on_c, 9, 38, 127
4, 54528, Note_on_c, 9, 42, 100
4, 54552, Note_off_c, 9, 42, 64
4, 54558, Control_c, 9, 7, 90
4, 54576, Note_off_c, 9, 38, 64
4, 54624, Note_on_c, 9, 42, 100
4, 54648, Note_off_c, 9, 42, 64
4, 54656, Control_c, 9, 7, 90
4, 54672, Note_on_c, 9, 42, 100
4, 54696, Note_off_c, 9, 42, 64
4, 54720, Note_on_c, 9, 36, 127
4, 54753, Control_c, 9, 7, 90
4, 54768, Note_off_c, 9, 36, 64
4, 54768, Note_on_c, 9, 38, 127
4, 54816, Note_off_c, 9, 38, 64
4, 54851, Control_c, 9, 7, 90
4, 54864, Note_on_c, 9, 42, 100
4, 54888, Note_off_c, 9, 42, 64
4, 54912, Note_on_c, 9, 42, 127
4, 54912, Note_on_c, 9, 39, 80
4, 54912, Note_on_c, 9, 40, 80
4, 54936, Note_off_c, 9, 40, 64
4, 54936, Note_off_c, 9, 39, 64
4, 54936, Note_off_c, 9, 42, 64
4, 54948, Control_c, 9, 7, 90
4, 54960, Note_on_c, 9, 42, 127
4, 54984, Note_off_c, 9, 42, 64
4, 55008, Note_on_c, 9, 42, 127
4, 55008, Note_on_c, 9, 39, 80
4, 55008, Note_on_c, 9, 40, 80
4, 55032, Note_off_c, 9, 40, 64
4, 55032, Note_off_c, 9, 42, 64
4, 55032, Note_off_c, 9, 39, 64
4, 55046, Control_c, 9, 7, 90
4, 55056, Note_on_c, 9, 42, 127
4, 55080, Note_off_c, 9, 42, 64
4, 55104, Note_on_c, 9, 46, 127
4, 55104, Note_on_c, 9, 39, 80
4, 55104, Note_on_c, 9, 40, 80
4, 55128, Note_off_c, 9, 46, 64
4, 55128, Note_off_c, 9, 39, 64
4, 55128, Note_off_c, 9, 40, 64
4, 55144, Control_c, 9, 7, 90
4, 55152, Note_on_c, 9, 42, 127
4, 55152, Note_on_c, 9, 39, 80
4, 55152, Note_on_c, 9, 40, 80
4, 55176, Note_off_c, 9, 42, 64
4, 55176, Note_off_c, 9, 39, 64
4, 55176, Note_off_c, 9, 40, 64
4, 55200, Note_on_c, 9, 42, 127
4, 55200, Note_on_c, 9, 39, 80
4, 55200, Note_on_c, 9, 40, 80
4, 55224, Note_off_c, 9, 40, 64
4, 55224, Note_off_c, 9, 39, 64
4, 55224, Note_off_c, 9, 42, 64
4, 55242, Control_c, 9, 7, 90
4, 55248, Note_on_c, 9, 42, 127
4, 55248, Note_on_c, 9, 39, 80
4, 55248, Note_on_c, 9, 40, 80
4, 55272, Note_off_c, 9, 42, 64
4, 55272, Note_off_c, 9, 39, 64
4, 55272, Note_off_c, 9, 40, 64
4, 55339, Control_c, 9, 7, 90
4, 55344, Note_on_c, 9, 42, 127
4, 55344, Note_on_c, 9, 39, 80
4, 55344, Note_on_c, 9, 40, 80
4, 55368, Note_off_c, 9, 40, 64
4, 55368, Note_off_c, 9, 39, 64
4, 55368, Note_off_c, 9, 42, 64
4, 55392, Note_on_c, 9, 42, 127
4, 55416, Note_off_c, 9, 42, 64
4, 55437, Control_c, 9, 7, 90
4, 55440, Note_on_c, 9, 42, 127
4, 55440, Note_on_c, 9, 39, 80
4, 55440, Note_on_c, 9, 40, 80
4, 55464, Note_off_c, 9, 42, 64
4, 55464, Note_off_c, 9, 39, 64
4, 55464, Note_off_c, 9, 40, 64
4, 55488, Note_on_c, 9, 42, 127
4, 55488, Note_on_c, 9, 39, 80
4, 55488, Note_on_c, 9, 40, 80
4, 55512, Note_off_c, 9, 42, 64
4, 55512, Note_off_c, 9, 39, 64
4, 55512, Note_off_c, 9, 40, 64
4, 55534, Control_c, 9, 7, 90
4, 55536, Note_on_c, 9, 42, 127
4, 55536, Note_on_c, 9, 39, 80
4, 55536, Note_on_c, 9, 40, 80
4, 55560, Note_off_c, 9, 42, 64
4, 55560, Note_off_c, 9, 39, 64
4, 55560, Note_off_c, 9, 40, 64
4, 55584, Note_on_c, 9, 42, 127
4, 55584, Note_on_c, 9, 39, 80
4, 55584, Note_on_c, 9, 40, 80
4, 55608, Note_off_c, 9, 42, 64
4, 55608, Note_off_c, 9, 39, 64
4, 55608, Note_off_c, 9, 40, 64
4, 55632, Note_on_c, 9, 42, 127
4, 55632, Note_on_c, 9, 39, 80
4, 55632, Note_on_c, 9, 40, 80
4, 55632, Control_c, 9, 7, 90
4, 55656, Note_off_c, 9, 40, 64
4, 55656, Note_off_c, 9, 39, 64
4, 55656, Note_off_c, 9, 42, 64
4, 55680, Note_on_c, 9, 49, 127
4, 55680, Note_on_c, 9, 46, 100
4, 55680, Note_on_c, 9, 36, 127
4, 55704, Note_off_c, 9, 46, 64
4, 55728, Note_off_c, 9, 36, 64
4, 55730, Control_c, 9, 7, 90
4, 55776, Note_on_c, 9, 44, 100
4, 55800, Note_off_c, 9, 44, 64
4, 55824, Note_on_c, 9, 42, 100
4, 55824, Note_on_c, 9, 36, 127
4, 55828, Control_c, 9, 7, 90
4, 55848, Note_off_c, 9, 42, 64
4, 55872, Note_off_c, 9, 36, 64
4, 55872, Note_on_c, 9, 42, 100
4, 55872, Note_on_c, 9, 38, 127
4, 55896, Note_off_c, 9, 42, 64
4, 55920, Note_off_c, 9, 38, 64
4, 55920, Note_on_c, 9, 42, 100
4, 55925, Control_c, 9, 7, 90
4, 55944, Note_off_c, 9, 42, 64
4, 55968, Note_on_c, 9, 42, 100
4, 55968, Note_on_c, 9, 36, 127
4, 55992, Note_off_c, 9, 42, 64
4, 56016, Note_off_c, 9, 36, 64
4, 56016, Note_on_c, 9, 42, 100
4, 56023, Control_c, 9, 7, 90
4, 56040, Note_off_c, 9, 42, 64
4, 56064, Note_on_c, 9, 42, 100
4, 56064, Note_on_c, 9, 36, 127
4, 56088, Note_off_c, 9, 42, 64
4, 56112, Note_off_c, 9, 36, 64
4, 56120, Control_c, 9, 7, 90
4, 56160, Note_on_c, 9, 42, 100
4, 56184, Note_off_c, 9, 42, 64
4, 56208, Note_on_c, 9, 42, 100
4, 56208, Note_on_c, 9, 38, 127
4, 56218, Control_c, 9, 7, 90
4, 56232, Note_off_c, 9, 42, 64
4, 56256, Note_off_c, 9, 38, 64
4, 56304, Note_on_c, 9, 38, 127
4, 56315, Control_c, 9, 7, 90
4, 56352, Note_off_c, 9, 38, 64
4, 56400, Note_on_c, 9, 46, 100
4, 56400, Note_on_c, 9, 36, 127
4, 56413, Control_c, 9, 7, 90
4, 56424, Note_off_c, 9, 46, 64
4, 56448, Note_off_c, 9, 36, 64
4, 56448, Note_on_c, 9, 44, 100
4, 56448, Note_on_c, 9, 36, 127
4, 56472, Note_off_c, 9, 44, 64
4, 56496, Note_off_c, 9, 36, 64
4, 56511, Control_c, 9, 7, 90
4, 56544, Note_on_c, 9, 42, 100
4, 56568, Note_off_c, 9, 42, 64
4, 56592, Note_on_c, 9, 42, 100
4, 56592, Note_on_c, 9, 36, 127
4, 56609, Control_c, 9, 7, 90
4, 56616, Note_off_c, 9, 42, 64
4, 56640, Note_off_c, 9, 36, 64
4, 56640, Note_on_c, 9, 42, 100
4, 56640, Note_on_c, 9, 38, 127
4, 56664, Note_off_c, 9, 42, 64
4, 56688, Note_off_c, 9, 38, 64
4, 56688, Note_on_c, 9, 42, 100
4, 56706, Control_c, 9, 7, 90
4, 56712, Note_off_c, 9, 42, 64
4, 56736, Note_on_c, 9, 42, 100
4, 56736, Note_on_c, 9, 36, 127
4, 56760, Note_off_c, 9, 42, 64
4, 56784, Note_off_c, 9, 36, 64
4, 56784, Note_on_c, 9, 42, 100
4, 56804, Control_c, 9, 7, 90
4, 56808, Note_off_c, 9, 42, 64
4, 56832, Note_on_c, 9, 42, 100
4, 56832, Note_on_c, 9, 36, 127
4, 56856, Note_off_c, 9, 42, 64
4, 56880, Note_off_c, 9, 36, 64
4, 56880, Note_on_c, 9, 42, 100
4, 56901, Control_c, 9, 7, 90
4, 56904, Note_off_c, 9, 42, 64
4, 56928, Note_off_c, 9, 49, 64
4, 56928, Note_on_c, 9, 42, 100
4, 56952, Note_off_c, 9, 42, 64
4, 56976, Note_on_c, 9, 46, 100
4, 56976, Note_on_c, 9, 38, 127
4, 56999, Control_c, 9, 7, 90
4, 57000, Note_off_c, 9, 46, 64
4, 57024, Note_off_c, 9, 38, 64
4, 57024, Note_on_c, 9, 44, 100
4, 57048, Note_off_c, 9, 44, 64
4, 57072, Note_on_c, 9, 42, 100
4, 57096, Note_off_c, 9, 42, 64
4, 57097, Control_c, 9, 7, 90
4, 57120, Note_on_c, 9, 42, 100
4, 57120, Note_on_c, 9, 36, 127
4, 57144, Note_off_c, 9, 42, 64
4, 57168, Note_off_c, 9, 36, 64
4, 57168, Note_on_c, 9, 42, 100
4, 57192, Note_off_c, 9, 42, 64
4, 57195, Control_c, 9, 7, 90
4, 57216, Note_on_c, 9, 46, 100
4, 57216, Note_on_c, 9, 36, 127
4, 57240, Note_off_c, 9, 46, 64
4, 57264, Note_off_c, 9, 36, 64
4, 57292, Control_c, 9, 7, 90
4, 57312, Note_on_c, 9, 44, 100
4, 57336, Note_off_c, 9, 44, 64
4, 57360, Note_on_c, 9, 42, 100
4, 57360, Note_on_c, 9, 36, 127
4, 57384, Note_off_c, 9, 42, 64
4, 57390, Control_c, 9, 7, 90
4, 57408, Note_off_c, 9, 36, 64
4, 57408, Note_on_c, 9, 42, 100
4, 57408, Note_on_c, 9, 38, 127
4, 57432, Note_off_c, 9, 42, 64
4, 57456, Note_off_c, 9, 38, 64
4, 57456, Note_on_c, 9, 42, 100
4, 57480, Note_off_c, 9, 42, 64
4, 57487, Control_c, 9, 7, 90
4, 57504, Note_on_c, 9, 42, 100
4, 57504, Note_on_c, 9, 36, 127
4, 57528, Note_off_c, 9, 42, 64
4, 57552, Note_off_c, 9, 36, 64
4, 57552, Note_on_c, 9, 42, 100
4, 57576, Note_off_c, 9, 42, 64
4, 57585, Control_c, 9, 7, 90
4, 57600, Note_on_c, 9, 42, 100
4, 57600, Note_on_c, 9, 36, 127
4, 57624, Note_off_c, 9, 42, 64
4, 57648, Note_off_c, 9, 36, 64
4, 57683, Control_c, 9, 7, 90
4, 57696, Note_on_c, 9, 42, 100
4, 57720, Note_off_c, 9, 42, 64
4, 57744, Note_on_c, 9, 42, 100
4, 57744, Note_on_c, 9, 38, 127
4, 57768, Note_off_c, 9, 42, 64
4, 57781, Control_c, 9, 7, 90
4, 57792, Note_off_c, 9, 38, 64
4, 57840, Note_on_c, 9, 38, 127
4, 57878, Control_c, 9, 7, 90
4, 57888, Note_off_c, 9, 38, 64
4, 57936, Note_on_c, 9, 46, 100
4, 57936, Note_on_c, 9, 36, 127
4, 57960, Note_off_c, 9, 46, 64
4, 57976, Control_c, 9, 7, 90
4, 57984, Note_off_c, 9, 36, 64
4, 57984, Note_on_c, 9, 44, 100
4, 57984, Note_on_c, 9, 36, 127
4, 58008, Note_off_c, 9, 44, 64
4, 58032, Note_off_c, 9, 36, 64
4, 58073, Control_c, 9, 7, 90
4, 58080, Note_on_c, 9, 42, 100
4, 58104, Note_off_c, 9, 42, 64
4, 58128, Note_on_c, 9, 42, 100
4, 58128, Note_on_c, 9, 36, 127
4, 58152, Note_off_c, 9, 42, 64
4, 58171, Control_c, 9, 7, 90
4, 58176, Note_off_c, 9, 36, 64
4, 58176, Note_on_c, 9, 42, 100
4, 58200, Note_off_c, 9, 42, 64
4, 58224, Note_on_c, 9, 42, 100
4, 58248, Note_off_c, 9, 42, 64
4, 58269, Control_c, 9, 7, 90
4, 58272, Note_on_c, 9, 42, 100
4, 58272, Note_on_c, 9, 36, 127
4, 58296, Note_off_c, 9, 42, 64
4, 58320, Note_off_c, 9, 36, 64
4, 58320, Note_on_c, 9, 42, 100
4, 58344, Note_off_c, 9, 42, 64
4, 58367, Control_c, 9, 7, 90
4, 58368, Note_on_c, 9, 42, 100
4, 58368, Note_on_c, 9, 36, 127
4, 58392, Note_off_c, 9, 42, 64
4, 58416, Note_off_c, 9, 36, 64
4, 58416, Note_on_c, 9, 42, 100
4, 58440, Note_off_c, 9, 42, 64
4, 58464, Note_on_c, 9, 42, 100
4, 58464, Control_c, 9, 7, 90
4, 58488, Note_off_c, 9, 42, 64
4, 58512, Note_on_c, 9, 38, 92
4, 58512, Note_on_c, 9, 36, 127
4, 58512, Note_on_c, 9, 46, 100
4, 58536, Note_off_c, 9, 38, 64
4, 58536, Note_off_c, 9, 36, 64
4, 58536, Note_off_c, 9, 46, 64
4, 58560, Note_on_c, 9, 44, 100
4, 58562, Control_c, 9, 7, 90
4, 58584, Note_off_c, 9, 44, 64
4, 58608, Note_on_c, 9, 38, 92
4, 58608, Note_on_c, 9, 36, 127
4, 58608, Note_on_c, 9, 42, 100
4, 58632, Note_off_c, 9, 38, 64
4, 58632, Note_off_c, 9, 36, 64
4, 58632, Note_off_c, 9, 42, 64
4, 58656, Note_on_c, 9, 38, 92
4, 58656, Note_on_c, 9, 42, 100
4, 58659, Control_c, 9, 7, 90
4, 58680, Note_off_c, 9, 38, 64
4, 58680, Note_off_c, 9, 42, 64
4, 58704, Note_on_c, 9, 36, 127
4, 58704, Note_on_c, 9, 42, 100
4, 58728, Note_off_c, 9, 36, 64
4, 58728, Note_off_c, 9, 42, 64
4, 58752, Note_on_c, 9, 46, 100
4, 58752, Note_on_c, 9, 36, 127
4, 58757, Control_c, 9, 7, 90
4, 58776, Note_off_c, 9, 46, 64
4, 58800, Note_off_c, 9, 36, 64
4, 58848, Note_on_c, 9, 44, 100
4, 58854, Control_c, 9, 7, 90
4, 58872, Note_off_c, 9, 44, 64
4, 58896, Note_on_c, 9, 42, 100
4, 58896, Note_on_c, 9, 36, 127
4, 58920, Note_off_c, 9, 42, 64
4, 58944, Note_off_c, 9, 36, 64
4, 58944, Note_on_c, 9, 42, 100
4, 58944, Note_on_c, 9, 38, 127
4, 58952, Control_c, 9, 7, 90
4, 58968, Note_off_c, 9, 42, 64
4, 58992, Note_off_c, 9, 38, 64
4, 58992, Note_on_c, 9, 42, 100
4, 59016, Note_off_c, 9, 42, 64
4, 59040, Note_on_c, 9, 42, 100
4, 59040, Note_on_c, 9, 36, 127
4, 59050, Control_c, 9, 7, 90
4, 59064, Note_off_c, 9, 42, 64
4, 59088, Note_off_c, 9, 36, 64
4, 59088, Note_on_c, 9, 42, 100
4, 59112, Note_off_c, 9, 42, 64
4, 59136, Note_on_c, 9, 42, 100
4, 59136, Note_on_c, 9, 36, 127
4, 59148, Control_c, 9, 7, 90
4, 59160, Note_off_c, 9, 42, 64
4, 59184, Note_off_c, 9, 36, 64
4, 59232, Note_on_c, 9, 42, 100
4, 59245, Control_c, 9, 7, 90
4, 59256, Note_off_c, 9, 42, 64
4, 59280, Note_on_c, 9, 42, 100
4, 59280, Note_on_c, 9, 38, 127
4, 59304, Note_off_c, 9, 42, 64
4, 59328, Note_off_c, 9, 38, 64
4, 59343, Control_c, 9, 7, 90
4, 59376, Note_on_c, 9, 38, 127
4, 59424, Note_off_c, 9, 38, 64
4, 59440, Control_c, 9, 7, 90
4, 59472, Note_on_c, 9, 46, 100
4, 59472, Note_on_c, 9, 36, 127
4, 59496, Note_off_c, 9, 46, 64
4, 59520, Note_off_c, 9, 36, 64
4, 59520, Note_on_c, 9, 44, 100
4, 59520, Note_on_c, 9, 36, 127
4, 59538, Control_c, 9, 7, 90
4, 59544, Note_off_c, 9, 44, 64
4, 59568, Note_off_c, 9, 36, 64
4, 59616, Note_on_c, 9, 42, 100
4, 59636, Control_c, 9, 7, 90
4, 59640, Note_off_c, 9, 42, 64
4, 59664, Note_on_c, 9, 42, 100
4, 59664, Note_on_c, 9, 36, 127
4, 59688, Note_off_c, 9, 42, 64
4, 59712, Note_off_c, 9, 36, 64
4, 59712, Note_on_c, 9, 42, 100
4, 59712, Note_on_c, 9, 38, 127
4, 59734, Control_c, 9, 7, 90
4, 59736, Note_off_c, 9, 42, 64
4, 59760, Note_off_c, 9, 38, 64
4, 59760, Note_on_c, 9, 42, 100
4, 59784, Note_off_c, 9, 42, 64
4, 59808, Note_on_c, 9, 42, 100
4, 59808, Note_on_c, 9, 36, 127
4, 59831, Control_c, 9, 7, 90
4, 59832, Note_off_c, 9, 42, 64
4, 59856, Note_off_c, 9, 36, 64
4, 59856, Note_on_c, 9, 42, 100
4, 59880, Note_off_c, 9, 42, 64
4, 59904, Note_on_c, 9, 42, 100
4, 59904, Note_on_c, 9, 36, 127
4, 59928, Note_off_c, 9, 42, 64
4, 59929, Control_c, 9, 7, 90
4, 59952, Note_off_c, 9, 36, 64
4, 59952, Note_on_c, 9, 42, 100
4, 59976, Note_off_c, 9, 42, 64
4, 60000, Note_on_c, 9, 42, 100
4, 60024, Note_off_c, 9, 42, 64
4, 60026, Control_c, 9, 7, 90
4, 60048, Note_on_c, 9, 46, 100
4, 60048, Note_on_c, 9, 38, 127
4, 60072, Note_off_c, 9, 46, 64
4, 60096, Note_off_c, 9, 38, 64
4, 60096, Note_on_c, 9, 44, 100
4, 60120, Note_off_c, 9, 44, 64
4, 60124, Control_c, 9, 7, 90
4, 60144, Note_on_c, 9, 42, 100
4, 60168, Note_off_c, 9, 42, 64
4, 60192, Note_on_c, 9, 42, 100
4, 60192, Note_on_c, 9, 36, 127
4, 60216, Note_off_c, 9, 42, 64
4, 60222, Control_c, 9, 7, 90
4, 60240, Note_off_c, 9, 36, 64
4, 60240, Note_on_c, 9, 42, 100
4, 60264, Note_off_c, 9, 42, 64
4, 60288, Note_on_c, 9, 46, 100
4, 60288, Note_on_c, 9, 36, 127
4, 60312, Note_off_c, 9, 46, 64
4, 60320, Control_c, 9, 7, 90
4, 60336, Note_off_c, 9, 36, 64
4, 60384, Note_on_c, 9, 44, 100
4, 60408, Note_off_c, 9, 44, 64
4, 60417, Control_c, 9, 7, 90
4, 60432, Note_on_c, 9, 42, 100
4, 60432, Note_on_c, 9, 36, 127
4, 60456, Note_off_c, 9, 42, 64
4, 60480, Note_off_c, 9, 36, 64
4, 60480, Note_on_c, 9, 42, 100
4, 60480, Note_on_c, 9, 38, 127
4, 60504, Note_off_c, 9, 42, 64
4, 60515, Control_c, 9, 7, 90
4, 60528, Note_off_c, 9, 38, 64
4, 60528, Note_on_c, 9, 42, 100
4, 60552, Note_off_c, 9, 42, 64
4, 60576, Note_on_c, 9, 42, 100
4, 60576, Note_on_c, 9, 36, 127
4, 60600, Note_off_c, 9, 42, 64
4, 60612, Control_c, 9, 7, 90
4, 60624, Note_off_c, 9, 36, 64
4, 60624, Note_on_c, 9, 42, 100
4, 60648, Note_off_c, 9, 42, 64
4, 60672, Note_on_c, 9, 42, 100
4, 60672, Note_on_c, 9, 36, 127
4, 60696, Note_off_c, 9, 42, 64
4, 60710, Control_c, 9, 7, 90
4, 60720, Note_off_c, 9, 36, 64
4, 60768, Note_on_c, 9, 42, 100
4, 60792, Note_off_c, 9, 42, 64
4, 60808, Control_c, 9, 7, 90
4, 60816, Note_on_c, 9, 42, 100
4, 60816, Note_on_c, 9, 38, 127
4, 60840, Note_off_c, 9, 42, 64
4, 60864, Note_off_c, 9, 38, 64
4, 60906, Control_c, 9, 7, 90
4, 60912, Note_on_c, 9, 38, 127
4, 60960, Note_off_c, 9, 38, 64
4, 61003, Control_c, 9, 7, 90
4, 61008, Note_on_c, 9, 46, 100
4, 61008, Note_on_c, 9, 36, 127
4, 61032, Note_off_c, 9, 46, 64
4, 61056, Note_off_c, 9, 36, 64
4, 61056, Note_on_c, 9, 44, 100
4, 61056, Note_on_c, 9, 36, 127
4, 61080, Note_off_c, 9, 44, 64
4, 61101, Control_c, 9, 7, 90
4, 61104, Note_off_c, 9, 36, 64
4, 61152, Note_on_c, 9, 42, 100
4, 61176, Note_off_c, 9, 42, 64
4, 61198, Control_c, 9, 7, 90
4, 61200, Note_on_c, 9, 42, 100
4, 61200, Note_on_c, 9, 36, 127
4, 61224, Note_off_c, 9, 42, 64
4, 61248, Note_off_c, 9, 36, 64
4, 61248, Note_on_c, 9, 38, 127
4, 61248, Note_on_c, 9, 42, 100
4, 61272, Note_off_c, 9, 42, 64
4, 61272, Note_off_c, 9, 38, 64
4, 61296, Note_on_c, 9, 42, 100
4, 61296, Control_c, 9, 7, 90
4, 61320, Note_off_c, 9, 42, 64
4, 61344, Note_on_c, 9, 42, 100
4, 61344, Note_on_c, 9, 36, 127
4, 61368, Note_off_c, 9, 42, 64
4, 61392, Note_off_c, 9, 36, 64
4, 61392, Note_on_c, 9, 42, 100
4, 61393, Control_c, 9, 7, 90
4, 61416, Note_off_c, 9, 42, 64
4, 61440, Note_on_c, 9, 42, 100
4, 61440, Note_on_c, 9, 36, 127
4, 61464, Note_off_c, 9, 42, 64
4, 61488, Note_off_c, 9, 36, 64
4, 61488, Note_on_c, 9, 42, 100
4, 61491, Control_c, 9, 7, 90
4, 61512, Note_off_c, 9, 42, 64
4, 61536, Note_on_c, 9, 42, 100
4, 61560, Note_off_c, 9, 42, 64
4, 61584, Note_on_c, 9, 36, 127
4, 61584, Note_on_c, 9, 46, 100
4, 61589, Control_c, 9, 7, 90
4, 61608, Note_off_c, 9, 36, 64
4, 61608, Note_off_c, 9, 46, 64
4, 61632, Note_on_c, 9, 44, 100
4, 61656, Note_off_c, 9, 44, 64
4, 61680, Note_on_c, 9, 40, 92
4, 61680, Note_on_c, 9, 39, 92
4, 61680, Note_on_c, 9, 36, 127
4, 61680, Note_on_c, 9, 42, 100
4, 61687, Control_c, 9, 7, 90
4, 61704, Note_off_c, 9, 40, 64
4, 61704, Note_off_c, 9, 39, 64
4, 61704, Note_off_c, 9, 36, 64
4, 61704, Note_off_c, 9, 42, 64
4, 61728, Note_on_c, 9, 40, 92
4, 61728, Note_on_c, 9, 39, 92
4, 61728, Note_on_c, 9, 42, 100
4, 61752, Note_off_c, 9, 40, 64
4, 61752, Note_off_c, 9, 39, 64
4, 61752, Note_off_c, 9, 42, 64
4, 61776, Note_on_c, 9, 40, 92
4, 61776, Note_on_c, 9, 39, 92
4, 61776, Note_on_c, 9, 36, 127
4, 61776, Note_on_c, 9, 42, 100
4, 61784, Control_c, 9, 7, 90
4, 61800, Note_off_c, 9, 40, 64
4, 61800, Note_off_c, 9, 39, 64
4, 61800, Note_off_c, 9, 36, 64
4, 61800, Note_off_c, 9, 42, 64
4, 61882, Control_c, 9, 7, 90
4, 61979, Control_c, 9, 7, 90
4, 62077, Control_c, 9, 7, 90
4, 62175, Control_c, 9, 7, 90
4, 62273, Control_c, 9, 7, 90
4, 62370, Control_c, 9, 7, 90
4, 62468, Control_c, 9, 7, 90
4, 62565, Control_c, 9, 7, 90
4, 62663, Control_c, 9, 7, 90
4, 62761, Control_c, 9, 7, 90
4, 62859, Control_c, 9, 7, 90
4, 62956, Control_c, 9, 7, 90
4, 63054, Control_c, 9, 7, 90
4, 63151, Control_c, 9, 7, 90
4, 63249, Control_c, 9, 7, 90
4, 63346, Control_c, 9, 7, 90
4, 63396, Control_c, 9, 101, 0
4, 63396, Control_c, 9, 100, 0
4, 63396, Control_c, 9, 6, 12
4, 63396, Control_c, 9, 10, 64
4, 63396, Control_c, 9, 7, 90
4, 63396, Pitch_bend_c, 9, 8192
4, 63396, Program_c, 9, 16
4, 63396, Control_c, 9, 7, 90
4, 63396, Control_c, 9, 7, 37
4, 63397, Control_c, 9, 101, 0
4, 63397, Control_c, 9, 100, 0
4, 63397, Control_c, 9, 6, 12
4, 63397, Control_c, 9, 10, 64
4, 63397, Control_c, 9, 7, 90
4, 63397, Pitch_bend_c, 9, 8192
4, 63397, Program_c, 9, 16
4, 63397, End_track
5, 0, Start_track
5, 0, Title_t, "sample"
5, 0, Control_c, 1, 10, 64
5, 0, Control_c, 1, 7, 96
5, 0, Pitch_bend_c, 1, 8192
5, 0, Control_c, 1, 101, 0
5, 0, Control_c, 1, 100, 0
5, 0, Control_c, 1, 6, 12
5, 0, Control_c, 1, 10, 64
5, 0, Control_c, 1, 7, 96
5, 0, Pitch_bend_c, 1, 8192
5, 0, Program_c, 1, 90
5, 0, Control_c, 1, 7, 104
5, 0, Control_c, 1, 7, 36
5, 0, Control_c, 1, 101, 0
5, 0, Control_c, 1, 100, 0
5, 0, Control_c, 1, 6, 12
5, 0, Control_c, 1, 10, 64
5, 0, Control_c, 1, 7, 36
5, 0, Pitch_bend_c, 1, 8192
5, 0, Program_c, 1, 90
5, 0, Note_on_c, 1, 57, 100
5, 0, Note_on_c, 1, 53, 100
5, 0, Note_on_c, 1, 41, 100
5, 0, Note_on_c, 1, 48, 100
5, 0, Control_c, 1, 7, 36
5, 0, Control_c, 1, 101, 0
5, 0, Control_c, 1, 100, 0
5, 0, Control_c, 1, 6, 12
5, 0, Control_c, 1, 10, 64
5, 0, Control_c, 1, 7, 36
5, 0, Pitch_bend_c, 1, 8192
5, 0, Program_c, 1, 90
5, 1, Control_c, 1, 7, 36
5, 2, Control_c, 1, 7, 36
5, 3, Control_c, 1, 7, 36
5, 4, Control_c, 1, 7, 36
5, 5, Control_c, 1, 7, 36
5, 6, Control_c, 1, 7, 36
5, 7, Control_c, 1, 7, 36
5, 8, Control_c, 1, 7, 36
5, 9, Control_c, 1, 7, 36
5, 10, Control_c, 1, 7, 36
5, 11, Control_c, 1, 7, 36
5, 12, Control_c, 1, 7, 36
5, 13, Control_c, 1, 7, 36
5, 14, Control_c, 1, 7, 36
5, 15, Control_c, 1, 7, 36
5, 16, Control_c, 1, 7, 36
5, 17, Control_c, 1, 7, 36
5, 18, Control_c, 1, 7, 36
5, 19, Control_c, 1, 7, 36
5, 20, Control_c, 1, 7, 36
5, 21, Control_c, 1, 7, 36
5, 22, Control_c, 1, 7, 36
5, 23, Control_c, 1, 7, 36
5, 24, Control_c, 1, 7, 36
5, 25, Control_c, 1, 7, 36
5, 26, Control_c, 1, 7, 36
5, 27, Control_c, 1, 7, 36
5, 28, Control_c, 1, 7, 36
5, 29, Control_c, 1, 7, 36
5, 30, Control_c, 1, 7, 36
5, 31, Control_c, 1, 7, 36
5, 32, Control_c, 1, 7, 36
5, 33, Control_c, 1, 7, 36
5, 34, Control_c, 1, 7, 36
5, 35, Control_c, 1, 7, 36
5, 36, Control_c, 1, 7, 36
5, 37, Control_c, 1, 7, 36
5, 38, Control_c, 1, 7, 36
5, 39, Control_c, 1, 7, 36
5, 40, Control_c, 1, 7, 36
5, 41, Control_c, 1, 7, 36
5, 42, Control_c, 1, 7, 36
5, 43, Control_c, 1, 7, 36
5, 44, Control_c, 1, 7, 36
5, 45, Control_c, 1, 7, 36
5, 46, Control_c, 1, 7, 36
5, 47, Control_c, 1, 7, 36
5, 48, Control_c, 1, 7, 37
5, 49, Control_c, 1, 7, 37
5, 50, Control_c, 1, 7, 37
5, 51, Control_c, 1, 7, 37
5, 52, Control_c, 1, 7, 37
5, 53, Control_c, 1, 7, 37
5, 54, Control_c, 1, 7, 37
5, 55, Control_c, 1, 7, 37
5, 56, Control_c, 1, 7, 37
5, 57, Control_c, 1, 7, 37
5, 58, Control_c, 1, 7, 37
5, 59, Control_c, 1, 7, 37
5, 60, Control_c, 1, 7, 37
5, 61, Control_c, 1, 7, 37
5, 62, Control_c, 1, 7, 37
5, 63, Control_c, 1, 7, 37
5, 64, Control_c, 1, 7, 37
5, 65, Control_c, 1, 7, 37
5, 66, Control_c, 1, 7, 37
5, 67, Control_c, 1, 7, 37
5, 68, Control_c, 1, 7, 37
5, 69, Control_c, 1, 7, 37
5, 70, Control_c, 1, 7, 37
5, 71, Control_c, 1, 7, 37
5, 72, Control_c, 1, 7, 37
5, 73, Control_c, 1, 7, 37
5, 74, Control_c, 1, 7, 37
5, 75, Control_c, 1, 7, 37
5, 76, Control_c, 1, 7, 37
5, 77, Control_c, 1, 7, 37
5, 78, Control_c, 1, 7, 37
5, 79, Control_c, 1, 7, 37
5, 80, Control_c, 1, 7, 37
5, 81, Control_c, 1, 7, 37
5, 82, Control_c, 1, 7, 37
5, 83, Control_c, 1, 7, 37
5, 84, Control_c, 1, 7, 37
5, 85, Control_c, 1, 7, 37
5, 86, Control_c, 1, 7, 37
5, 87, Control_c, 1, 7, 37
5, 88, Control_c, 1, 7, 37
5, 89, Control_c, 1, 7, 37
5, 90, Control_c, 1, 7, 37
5, 91, Control_c, 1, 7, 37
5, 92, Control_c, 1, 7, 37
5, 93, Control_c, 1, 7, 37
5, 94, Control_c, 1, 7, 37
5, 95, Control_c, 1, 7, 37
5, 96, Control_c, 1, 7, 37
5, 97, Control_c, 1, 7, 37
5, 98, Control_c, 1, 7, 37
5, 99, Control_c, 1, 7, 37
5, 100, Control_c, 1, 7, 37
5, 101, Control_c, 1, 7, 37
5, 102, Control_c, 1, 7, 37
5, 103, Control_c, 1, 7, 37
5, 104, Control_c, 1, 7, 37
5, 105, Control_c, 1, 7, 37
5, 106, Control_c, 1, 7, 37
5, 107, Control_c, 1, 7, 37
5, 108, Control_c, 1, 7, 37
5, 109, Control_c, 1, 7, 37
5, 110, Control_c, 1, 7, 37
5, 111, Control_c, 1, 7, 37
5, 112, Control_c, 1, 7, 37
5, 113, Control_c, 1, 7, 37
5, 114, Control_c, 1, 7, 37
5, 115, Control_c, 1, 7, 37
5, 116, Control_c, 1, 7, 37
5, 117, Control_c, 1, 7, 37
5, 118, Control_c, 1, 7, 37
5, 119, Control_c, 1, 7, 37
5, 120, Control_c, 1, 7, 37
5, 121, Control_c, 1, 7, 37
5, 122, Control_c, 1, 7, 37
5, 123, Control_c, 1, 7, 37
5, 124, Control_c, 1, 7, 37
5, 125, Control_c, 1, 7, 37
5, 126, Control_c, 1, 7, 37
5, 127, Control_c, 1, 7, 37
5, 128, Control_c, 1, 7, 37
5, 129, Control_c, 1, 7, 37
5, 130, Control_c, 1, 7, 37
5, 131, Control_c, 1, 7, 37
5, 132, Control_c, 1, 7, 37
5, 133, Control_c, 1, 7, 37
5, 134, Control_c, 1, 7, 37
5, 135, Control_c, 1, 7, 37
5, 136, Control_c, 1, 7, 37
5, 137, Control_c, 1, 7, 37
5, 138, Control_c, 1, 7, 37
5, 139, Control_c, 1, 7, 37
5, 140, Control_c, 1, 7, 37
5, 141, Control_c, 1, 7, 37
5, 142, Control_c, 1, 7, 37
5, 143, Control_c, 1, 7, 37
5, 144, Note_off_c, 1, 48, 64
5, 144, Note_off_c, 1, 57, 64
5, 144, Note_off_c, 1, 53, 64
5, 144, Note_off_c, 1, 41, 64
5, 144, Note_on_c, 1, 58, 100
5, 144, Note_on_c, 1, 55, 100
5, 144, Note_on_c, 1, 43, 100
5, 144, Note_on_c, 1, 50, 100
5, 144, Control_c, 1, 7, 38
5, 145, Control_c, 1, 7, 38
5, 146, Control_c, 1, 7, 38
5, 147, Control_c, 1, 7, 38
5, 148, Control_c, 1, 7, 38
5, 149, Control_c, 1, 7, 38
5, 150, Control_c, 1, 7, 38
5, 151, Control_c, 1, 7, 38
5, 152, Control_c, 1, 7, 38
5, 153, Control_c, 1, 7, 38
5, 154, Control_c, 1, 7, 38
5, 155, Control_c, 1, 7, 38
5, 156, Control_c, 1, 7, 38
5, 157, Control_c, 1, 7, 38
5, 158, Control_c, 1, 7, 38
5, 159, Control_c, 1, 7, 38
5, 160, Control_c, 1, 7, 38
5, 161, Control_c, 1, 7, 38
5, 162, Control_c, 1, 7, 38
5, 163, Control_c, 1, 7, 38
5, 164, Control_c, 1, 7, 38
5, 165, Control_c, 1, 7, 38
5, 166, Control_c, 1, 7, 38
5, 167, Control_c, 1, 7, 38
5, 168, Control_c, 1, 7, 38
5, 169, Control_c, 1, 7, 38
5, 170, Control_c, 1, 7, 38
5, 171, Control_c, 1, 7, 38
5, 172, Control_c, 1, 7, 38
5, 173, Control_c, 1, 7, 38
5, 174, Control_c, 1, 7, 38
5, 175, Control_c, 1, 7, 38
5, 176, Control_c, 1, 7, 38
5, 177, Control_c, 1, 7, 38
5, 178, Control_c, 1, 7, 38
5, 179, Control_c, 1, 7, 38
5, 180, Control_c, 1, 7, 38
5, 181, Control_c, 1, 7, 38
5, 182, Control_c, 1, 7, 38
5, 183, Control_c, 1, 7, 38
5, 184, Control_c, 1, 7, 38
5, 185, Control_c, 1, 7, 38
5, 186, Control_c, 1, 7, 38
5, 187, Control_c, 1, 7, 38
5, 188, Control_c, 1, 7, 38
5, 189, Control_c, 1, 7, 38
5, 190, Control_c, 1, 7, 38
5, 191, Control_c, 1, 7, 38
5, 192, Control_c, 1, 7, 38
5, 193, Control_c, 1, 7, 38
5, 194, Control_c, 1, 7, 38
5, 195, Control_c, 1, 7, 38
5, 196, Control_c, 1, 7, 38
5, 197, Control_c, 1, 7, 38
5, 198, Control_c, 1, 7, 38
5, 199, Control_c, 1, 7, 38
5, 200, Control_c, 1, 7, 38
5, 201, Control_c, 1, 7, 38
5, 202, Control_c, 1, 7, 38
5, 203, Control_c, 1, 7, 38
5, 204, Control_c, 1, 7, 38
5, 205, Control_c, 1, 7, 38
5, 206, Control_c, 1, 7, 38
5, 207, Control_c, 1, 7, 38
5, 208, Control_c, 1, 7, 38
5, 209, Control_c, 1, 7, 38
5, 210, Control_c, 1, 7, 38
5, 211, Control_c, 1, 7, 38
5, 212, Control_c, 1, 7, 38
5, 213, Control_c, 1, 7, 38
5, 214, Control_c, 1, 7, 38
5, 215, Control_c, 1, 7, 38
5, 216, Control_c, 1, 7, 38
5, 217, Control_c, 1, 7, 38
5, 218, Control_c, 1, 7, 38
5, 219, Control_c, 1, 7, 38
5, 220, Control_c, 1, 7, 38
5, 221, Control_c, 1, 7, 38
5, 222, Control_c, 1, 7, 38
5, 223, Control_c, 1, 7, 39
5, 224, Control_c, 1, 7, 39
5, 225, Control_c, 1, 7, 39
5, 226, Control_c, 1, 7, 39
5, 227, Control_c, 1, 7, 39
5, 228, Control_c, 1, 7, 39
5, 229, Control_c, 1, 7, 39
5, 230, Control_c, 1, 7, 39
5, 231, Control_c, 1, 7, 39
5, 232, Control_c, 1, 7, 39
5, 233, Control_c, 1, 7, 39
5, 234, Control_c, 1, 7, 39
5, 235, Control_c, 1, 7, 39
5, 236, Control_c, 1, 7, 39
5, 237, Control_c, 1, 7, 39
5, 238, Control_c, 1, 7, 39
5, 239, Control_c, 1, 7, 39
5, 240, Control_c, 1, 7, 39
5, 241, Control_c, 1, 7, 39
5, 242, Control_c, 1, 7, 39
5, 243, Control_c, 1, 7, 39
5, 244, Control_c, 1, 7, 39
5, 245, Control_c, 1, 7, 39
5, 246, Control_c, 1, 7, 39
5, 247, Control_c, 1, 7, 39
5, 248, Control_c, 1, 7, 39
5, 249, Control_c, 1, 7, 39
5, 250, Control_c, 1, 7, 39
5, 251, Control_c, 1, 7, 39
5, 252, Control_c, 1, 7, 39
5, 253, Control_c, 1, 7, 39
5, 254, Control_c, 1, 7, 39
5, 255, Control_c, 1, 7, 39
5, 256, Control_c, 1, 7, 39
5, 257, Control_c, 1, 7, 39
5, 258, Control_c, 1, 7, 39
5, 259, Control_c, 1, 7, 39
5, 260, Control_c, 1, 7, 39
5, 261, Control_c, 1, 7, 39
5, 262, Control_c, 1, 7, 39
5, 263, Control_c, 1, 7, 39
5, 264, Control_c, 1, 7, 39
5, 265, Control_c, 1, 7, 39
5, 266, Control_c, 1, 7, 39
5, 267, Control_c, 1, 7, 39
5, 268, Control_c, 1, 7, 39
5, 269, Control_c, 1, 7, 39
5, 270, Control_c, 1, 7, 39
5, 271, Control_c, 1, 7, 39
5, 272, Control_c, 1, 7, 39
5, 273, Control_c, 1, 7, 39
5, 274, Control_c, 1, 7, 39
5, 275, Control_c, 1, 7, 39
5, 276, Control_c, 1, 7, 39
5, 277, Control_c, 1, 7, 39
5, 278, Control_c, 1, 7, 39
5, 279, Control_c, 1, 7, 39
5, 280, Control_c, 1, 7, 39
5, 281, Control_c, 1, 7, 39
5, 282, Control_c, 1, 7, 39
5, 283, Control_c, 1, 7, 39
5, 284, Control_c, 1, 7, 39
5, 285, Control_c, 1, 7, 39
5, 286, Control_c, 1, 7, 39
5, 287, Control_c, 1, 7, 39
5, 288, Note_off_c, 1, 58, 64
5, 288, Note_off_c, 1, 50, 64
5, 288, Note_off_c, 1, 43, 64
5, 288, Note_off_c, 1, 55, 64
5, 288, Note_on_c, 1, 55, 100
5, 288, Note_on_c, 1, 51, 100
5, 288, Note_on_c, 1, 39, 100
5, 288, Note_on_c, 1, 62, 100
5, 288, Note_on_c, 1, 46, 100
5, 288, Control_c, 1, 7, 39
5, 289, Control_c, 1, 7, 39
5, 290, Control_c, 1, 7, 39
5, 291, Control_c, 1, 7, 39
5, 292, Control_c, 1, 7, 39
5, 293, Control_c, 1, 7, 40
5, 294, Control_c, 1, 7, 40
5, 295, Control_c, 1, 7, 40
5, 296, Control_c, 1, 7, 40
5, 297, Control_c, 1, 7, 40
5, 298, Control_c, 1, 7, 40
5, 299, Control_c, 1, 7, 40
5, 300, Control_c, 1, 7, 40
5, 301, Control_c, 1, 7, 40
5, 302, Control_c, 1, 7, 40
5, 303, Control_c, 1, 7, 40
5, 304, Control_c, 1, 7, 40
5, 305, Control_c, 1, 7, 40
5, 306, Control_c, 1, 7, 40
5, 307, Control_c, 1, 7, 40
5, 308, Control_c, 1, 7, 40
5, 309, Control_c, 1, 7, 40
5, 310, Control_c, 1, 7, 40
5, 311, Control_c, 1, 7, 40
5, 312, Control_c, 1, 7, 40
5, 313, Control_c, 1, 7, 40
5, 314, Control_c, 1, 7, 40
5, 315, Control_c, 1, 7, 40
5, 316, Control_c, 1, 7, 40
5, 317, Control_c, 1, 7, 40
5, 318, Control_c, 1, 7, 40
5, 319, Control_c, 1, 7, 40
5, 320, Control_c, 1, 7, 40
5, 321, Control_c, 1, 7, 40
5, 322, Control_c, 1, 7, 40
5, 323, Control_c, 1, 7, 40
5, 324, Control_c, 1, 7, 40
5, 325, Control_c, 1, 7, 40
5, 326, Control_c, 1, 7, 40
5, 327, Control_c, 1, 7, 40
5, 328, Control_c, 1, 7, 40
5, 329, Control_c, 1, 7, 40
5, 330, Control_c, 1, 7, 40
5, 331, Control_c, 1, 7, 40
5, 332, Control_c, 1, 7, 40
5, 333, Control_c, 1, 7, 40
5, 334, Control_c, 1, 7, 40
5, 335, Control_c, 1, 7, 40
5, 336, Control_c, 1, 7, 40
5, 337, Control_c, 1, 7, 40
5, 338, Control_c, 1, 7, 40
5, 339, Control_c, 1, 7, 40
5, 340, Control_c, 1, 7, 40
5, 341, Control_c, 1, 7, 40
5, 342, Control_c, 1, 7, 40
5, 343, Control_c, 1, 7, 40
5, 344, Control_c, 1, 7, 40
5, 345, Control_c, 1, 7, 40
5, 346, Control_c, 1, 7, 40
5, 347, Control_c, 1, 7, 40
5, 348, Control_c, 1, 7, 40
5, 349, Control_c, 1, 7, 40
5, 350, Control_c, 1, 7, 40
5, 351, Control_c, 1, 7, 40
5, 352, Control_c, 1, 7, 40
5, 353, Control_c, 1, 7, 40
5, 354, Control_c, 1, 7, 40
5, 355, Control_c, 1, 7, 40
5, 356, Control_c, 1, 7, 40
5, 357, Control_c, 1, 7, 41
5, 358, Control_c, 1, 7, 41
5, 359, Control_c, 1, 7, 41
5, 360, Control_c, 1, 7, 41
5, 361, Control_c, 1, 7, 41
5, 362, Control_c, 1, 7, 41
5, 363, Control_c, 1, 7, 41
5, 364, Control_c, 1, 7, 41
5, 365, Control_c, 1, 7, 41
5, 366, Control_c, 1, 7, 41
5, 367, Control_c, 1, 7, 41
5, 368, Control_c, 1, 7, 41
5, 369, Control_c, 1, 7, 41
5, 370, Control_c, 1, 7, 41
5, 371, Control_c, 1, 7, 41
5, 372, Control_c, 1, 7, 41
5, 373, Control_c, 1, 7, 41
5, 374, Control_c, 1, 7, 41
5, 375, Control_c, 1, 7, 41
5, 376, Control_c, 1, 7, 41
5, 377, Control_c, 1, 7, 41
5, 378, Control_c, 1, 7, 41
5, 379, Control_c, 1, 7, 41
5, 380, Control_c, 1, 7, 41
5, 381, Control_c, 1, 7, 41
5, 382, Control_c, 1, 7, 41
5, 383, Control_c, 1, 7, 41
5, 384, Control_c, 1, 7, 41
5, 385, Control_c, 1, 7, 41
5, 386, Control_c, 1, 7, 41
5, 387, Control_c, 1, 7, 41
5, 388, Control_c, 1, 7, 41
5, 389, Control_c, 1, 7, 41
5, 390, Control_c, 1, 7, 41
5, 391, Control_c, 1, 7, 41
5, 392, Control_c, 1, 7, 41
5, 393, Control_c, 1, 7, 41
5, 394, Control_c, 1, 7, 41
5, 395, Control_c, 1, 7, 41
5, 396, Control_c, 1, 7, 41
5, 397, Control_c, 1, 7, 41
5, 398, Control_c, 1, 7, 41
5, 399, Control_c, 1, 7, 41
5, 400, Control_c, 1, 7, 41
5, 401, Control_c, 1, 7, 41
5, 402, Control_c, 1, 7, 41
5, 403, Control_c, 1, 7, 41
5, 404, Control_c, 1, 7, 41
5, 405, Control_c, 1, 7, 41
5, 406, Control_c, 1, 7, 41
5, 407, Control_c, 1, 7, 41
5, 408, Control_c, 1, 7, 41
5, 409, Control_c, 1, 7, 41
5, 410, Control_c, 1, 7, 41
5, 411, Control_c, 1, 7, 41
5, 412, Control_c, 1, 7, 41
5, 413, Control_c, 1, 7, 41
5, 414, Control_c, 1, 7, 41
5, 415, Control_c, 1, 7, 41
5, 416, Control_c, 1, 7, 42
5, 417, Control_c, 1, 7, 42
5, 418, Control_c, 1, 7, 42
5, 419, Control_c, 1, 7, 42
5, 420, Control_c, 1, 7, 42
5, 421, Control_c, 1, 7, 42
5, 422, Control_c, 1, 7, 42
5, 423, Control_c, 1, 7, 42
5, 424, Control_c, 1, 7, 42
5, 425, Control_c, 1, 7, 42
5, 426, Control_c, 1, 7, 42
5, 427, Control_c, 1, 7, 42
5, 428, Control_c, 1, 7, 42
5, 429, Control_c, 1, 7, 42
5, 430, Control_c, 1, 7, 42
5, 431, Control_c, 1, 7, 42
5, 432, Note_off_c, 1, 51, 64
5, 432, Note_off_c, 1, 46, 64
5, 432, Note_off_c, 1, 62, 64
5, 432, Note_off_c, 1, 39, 64
5, 432, Note_off_c, 1, 55, 64
5, 432, Note_on_c, 1, 55, 100
5, 432, Note_on_c, 1, 62, 100
5, 432, Note_on_c, 1, 51, 100
5, 432, Note_on_c, 1, 39, 100
5, 432, Note_on_c, 1, 46, 100
5, 432, Control_c, 1, 7, 42
5, 433, Control_c, 1, 7, 42
5, 434, Control_c, 1, 7, 42
5, 435, Control_c, 1, 7, 42
5, 436, Control_c, 1, 7, 42
5, 437, Control_c, 1, 7, 42
5, 438, Control_c, 1, 7, 42
5, 439, Control_c, 1, 7, 42
5, 440, Control_c, 1, 7, 42
5, 441, Control_c, 1, 7, 42
5, 442, Control_c, 1, 7, 42
5, 443, Control_c, 1, 7, 42
5, 444, Control_c, 1, 7, 42
5, 445, Control_c, 1, 7, 42
5, 446, Control_c, 1, 7, 42
5, 447, Control_c, 1, 7, 42
5, 448, Control_c, 1, 7, 42
5, 449, Control_c, 1, 7, 42
5, 450, Control_c, 1, 7, 42
5, 451, Control_c, 1, 7, 42
5, 452, Control_c, 1, 7, 42
5, 453, Control_c, 1, 7, 42
5, 454, Control_c, 1, 7, 42
5, 455, Control_c, 1, 7, 42
5, 456, Control_c, 1, 7, 42
5, 457, Control_c, 1, 7, 42
5, 458, Control_c, 1, 7, 42
5, 459, Control_c, 1, 7, 42
5, 460, Control_c, 1, 7, 42
5, 461, Control_c, 1, 7, 42
5, 462, Control_c, 1, 7, 42
5, 463, Control_c, 1, 7, 42
5, 464, Control_c, 1, 7, 42
5, 465, Control_c, 1, 7, 42
5, 466, Control_c, 1, 7, 42
5, 467, Control_c, 1, 7, 42
5, 468, Control_c, 1, 7, 42
5, 469, Control_c, 1, 7, 42
5, 470, Control_c, 1, 7, 42
5, 471, Control_c, 1, 7, 43
5, 472, Control_c, 1, 7, 43
5, 473, Control_c, 1, 7, 43
5, 474, Control_c, 1, 7, 43
5, 475, Control_c, 1, 7, 43
5, 476, Control_c, 1, 7, 43
5, 477, Control_c, 1, 7, 43
5, 478, Control_c, 1, 7, 43
5, 479, Control_c, 1, 7, 43
5, 480, Note_off_c, 1, 55, 64
5, 480, Note_off_c, 1, 46, 64
5, 480, Note_off_c, 1, 39, 64
5, 480, Note_off_c, 1, 51, 64
5, 480, Note_off_c, 1, 62, 64
5, 480, Note_on_c, 1, 55, 100
5, 480, Note_on_c, 1, 62, 100
5, 480, Note_on_c, 1, 51, 100
5, 480, Note_on_c, 1, 39, 100
5, 480, Note_on_c, 1, 46, 100
5, 480, Control_c, 1, 7, 43
5, 481, Control_c, 1, 7, 43
5, 482, Control_c, 1, 7, 43
5, 483, Control_c, 1, 7, 43
5, 484, Control_c, 1, 7, 43
5, 485, Control_c, 1, 7, 43
5, 486, Control_c, 1, 7, 43
5, 487, Control_c, 1, 7, 43
5, 488, Control_c, 1, 7, 43
5, 489, Control_c, 1, 7, 43
5, 490, Control_c, 1, 7, 43
5, 491, Control_c, 1, 7, 43
5, 492, Control_c, 1, 7, 43
5, 493, Control_c, 1, 7, 43
5, 494, Control_c, 1, 7, 43
5, 495, Control_c, 1, 7, 43
5, 496, Control_c, 1, 7, 43
5, 497, Control_c, 1, 7, 43
5, 498, Control_c, 1, 7, 43
5, 499, Control_c, 1, 7, 43
5, 500, Control_c, 1, 7, 43
5, 501, Control_c, 1, 7, 43
5, 502, Control_c, 1, 7, 43
5, 503, Control_c, 1, 7, 43
5, 504, Control_c, 1, 7, 43
5, 505, Control_c, 1, 7, 43
5, 506, Control_c, 1, 7, 43
5, 507, Control_c, 1, 7, 43
5, 508, Control_c, 1, 7, 43
5, 509, Control_c, 1, 7, 43
5, 510, Control_c, 1, 7, 43
5, 511, Control_c, 1, 7, 43
5, 512, Control_c, 1, 7, 43
5, 513, Control_c, 1, 7, 43
5, 514, Control_c, 1, 7, 43
5, 515, Control_c, 1, 7, 43
5, 516, Control_c, 1, 7, 43
5, 517, Control_c, 1, 7, 43
5, 518, Control_c, 1, 7, 43
5, 519, Control_c, 1, 7, 43
5, 520, Control_c, 1, 7, 43
5, 521, Control_c, 1, 7, 43
5, 522, Control_c, 1, 7, 43
5, 523, Control_c, 1, 7, 43
5, 524, Control_c, 1, 7, 44
5, 525, Control_c, 1, 7, 44
5, 526, Control_c, 1, 7, 44
5, 527, Control_c, 1, 7, 44
5, 528, Note_off_c, 1, 62, 64
5, 528, Note_off_c, 1, 55, 64
5, 528, Note_off_c, 1, 46, 64
5, 528, Note_off_c, 1, 39, 64
5, 528, Note_off_c, 1, 51, 64
5, 528, Note_on_c, 1, 55, 100
5, 528, Note_on_c, 1, 62, 100
5, 528, Note_on_c, 1, 51, 100
5, 528, Note_on_c, 1, 39, 100
5, 528, Note_on_c, 1, 46, 100
5, 528, Control_c, 1, 7, 44
5, 529, Control_c, 1, 7, 44
5, 530, Control_c, 1, 7, 44
5, 531, Control_c, 1, 7, 44
5, 532, Control_c, 1, 7, 44
5, 533, Control_c, 1, 7, 44
5, 534, Control_c, 1, 7, 44
5, 535, Control_c, 1, 7, 44
5, 536, Control_c, 1, 7, 44
5, 537, Control_c, 1, 7, 44
5, 538, Control_c, 1, 7, 44
5, 539, Control_c, 1, 7, 44
5, 540, Control_c, 1, 7, 44
5, 541, Control_c, 1, 7, 44
5, 542, Control_c, 1, 7, 44
5, 543, Control_c, 1, 7, 44
5, 544, Control_c, 1, 7, 44
5, 545, Control_c, 1, 7, 44
5, 546, Control_c, 1, 7, 44
5, 547, Control_c, 1, 7, 44
5, 548, Control_c, 1, 7, 44
5, 549, Control_c, 1, 7, 44
5, 550, Control_c, 1, 7, 44
5, 551, Control_c, 1, 7, 44
5, 552, Control_c, 1, 7, 44
5, 553, Control_c, 1, 7, 44
5, 554, Control_c, 1, 7, 44
5, 555, Control_c, 1, 7, 44
5, 556, Control_c, 1, 7, 44
5, 557, Control_c, 1, 7, 44
5, 558, Control_c, 1, 7, 44
5, 559, Control_c, 1, 7, 44
5, 560, Control_c, 1, 7, 44
5, 561, Control_c, 1, 7, 44
5, 562, Control_c, 1, 7, 44
5, 563, Control_c, 1, 7, 44
5, 564, Control_c, 1, 7, 44
5, 565, Control_c, 1, 7, 44
5, 566, Control_c, 1, 7, 44
5, 567, Control_c, 1, 7, 44
5, 568, Control_c, 1, 7, 44
5, 569, Control_c, 1, 7, 44
5, 570, Control_c, 1, 7, 44
5, 571, Control_c, 1, 7, 44
5, 572, Control_c, 1, 7, 44
5, 573, Control_c, 1, 7, 44
5, 574, Control_c, 1, 7, 45
5, 575, Control_c, 1, 7, 45
5, 576, Note_off_c, 1, 62, 64
5, 576, Note_off_c, 1, 55, 64
5, 576, Note_off_c, 1, 46, 64
5, 576, Note_off_c, 1, 39, 64
5, 576, Note_off_c, 1, 51, 64
5, 576, Note_on_c, 1, 55, 100
5, 576, Note_on_c, 1, 62, 100
5, 576, Note_on_c, 1, 51, 100
5, 576, Note_on_c, 1, 39, 100
5, 576, Note_on_c, 1, 46, 100
5, 576, Control_c, 1, 7, 45
5, 577, Control_c, 1, 7, 45
5, 578, Control_c, 1, 7, 45
5, 579, Control_c, 1, 7, 45
5, 580, Control_c, 1, 7, 45
5, 581, Control_c, 1, 7, 45
5, 582, Control_c, 1, 7, 45
5, 583, Control_c, 1, 7, 45
5, 584, Control_c, 1, 7, 45
5, 585, Control_c, 1, 7, 45
5, 586, Control_c, 1, 7, 45
5, 587, Control_c, 1, 7, 45
5, 588, Control_c, 1, 7, 45
5, 589, Control_c, 1, 7, 45
5, 590, Control_c, 1, 7, 45
5, 591, Control_c, 1, 7, 45
5, 592, Control_c, 1, 7, 45
5, 593, Control_c, 1, 7, 45
5, 594, Control_c, 1, 7, 45
5, 595, Control_c, 1, 7, 45
5, 596, Control_c, 1, 7, 45
5, 597, Control_c, 1, 7, 45
5, 598, Control_c, 1, 7, 45
5, 599, Control_c, 1, 7, 45
5, 600, Control_c, 1, 7, 45
5, 601, Control_c, 1, 7, 45
5, 602, Control_c, 1, 7, 45
5, 603, Control_c, 1, 7, 45
5, 604, Control_c, 1, 7, 45
5, 605, Control_c, 1, 7, 45
5, 606, Control_c, 1, 7, 45
5, 607, Control_c, 1, 7, 45
5, 608, Control_c, 1, 7, 45
5, 609, Control_c, 1, 7, 45
5, 610, Control_c, 1, 7, 45
5, 611, Control_c, 1, 7, 45
5, 612, Control_c, 1, 7, 45
5, 613, Control_c, 1, 7, 45
5, 614, Control_c, 1, 7, 45
5, 615, Control_c, 1, 7, 45
5, 616, Control_c, 1, 7, 45
5, 617, Control_c, 1, 7, 45
5, 618, Control_c, 1, 7, 45
5, 619, Control_c, 1, 7, 45
5, 620, Control_c, 1, 7, 45
5, 621, Control_c, 1, 7, 45
5, 622, Control_c, 1, 7, 46
5, 623, Control_c, 1, 7, 46
5, 624, Note_off_c, 1, 55, 64
5, 624, Note_off_c, 1, 46, 64
5, 624, Note_off_c, 1, 39, 64
5, 624, Note_off_c, 1, 51, 64
5, 624, Note_off_c, 1, 62, 64
5, 624, Note_on_c, 1, 55, 100
5, 624, Note_on_c, 1, 62, 100
5, 624, Note_on_c, 1, 51, 100
5, 624, Note_on_c, 1, 39, 100
5, 624, Note_on_c, 1, 46, 100
5, 624, Control_c, 1, 7, 46
5, 625, Control_c, 1, 7, 46
5, 626, Control_c, 1, 7, 46
5, 627, Control_c, 1, 7, 46
5, 628, Control_c, 1, 7, 46
5, 629, Control_c, 1, 7, 46
5, 630, Control_c, 1, 7, 46
5, 631, Control_c, 1, 7, 46
5, 632, Control_c, 1, 7, 46
5, 633, Control_c, 1, 7, 46
5, 634, Control_c, 1, 7, 46
5, 635, Control_c, 1, 7, 46
5, 636, Control_c, 1, 7, 46
5, 637, Control_c, 1, 7, 46
5, 638, Control_c, 1, 7, 46
5, 639, Control_c, 1, 7, 46
5, 640, Control_c, 1, 7, 46
5, 641, Control_c, 1, 7, 46
5, 642, Control_c, 1, 7, 46
5, 643, Control_c, 1, 7, 46
5, 644, Control_c, 1, 7, 46
5, 645, Control_c, 1, 7, 46
5, 646, Control_c, 1, 7, 46
5, 647, Control_c, 1, 7, 46
5, 648, Control_c, 1, 7, 46
5, 649, Control_c, 1, 7, 46
5, 650, Control_c, 1, 7, 46
5, 651, Control_c, 1, 7, 46
5, 652, Control_c, 1, 7, 46
5, 653, Control_c, 1, 7, 46
5, 654, Control_c, 1, 7, 46
5, 655, Control_c, 1, 7, 46
5, 656, Control_c, 1, 7, 46
5, 657, Control_c, 1, 7, 46
5, 658, Control_c, 1, 7, 46
5, 659, Control_c, 1, 7, 46
5, 660, Control_c, 1, 7, 46
5, 661, Control_c, 1, 7, 46
5, 662, Control_c, 1, 7, 46
5, 663, Control_c, 1, 7, 46
5, 664, Control_c, 1, 7, 46
5, 665, Control_c, 1, 7, 46
5, 666, Control_c, 1, 7, 46
5, 667, Control_c, 1, 7, 46
5, 668, Control_c, 1, 7, 47
5, 669, Control_c, 1, 7, 47
5, 670, Control_c, 1, 7, 47
5, 671, Control_c, 1, 7, 47
5, 672, Note_off_c, 1, 62, 64
5, 672, Note_off_c, 1, 55, 64
5, 672, Note_off_c, 1, 46, 64
5, 672, Note_off_c, 1, 39, 64
5, 672, Note_off_c, 1, 51, 64
5, 672, Note_on_c, 1, 55, 100
5, 672, Note_on_c, 1, 62, 100
5, 672, Note_on_c, 1, 51, 100
5, 672, Note_on_c, 1, 39, 100
5, 672, Note_on_c, 1, 46, 100
5, 672, Control_c, 1, 7, 47
5, 673, Control_c, 1, 7, 47
5, 674, Control_c, 1, 7, 47
5, 675, Control_c, 1, 7, 47
5, 676, Control_c, 1, 7, 47
5, 677, Control_c, 1, 7, 47
5, 678, Control_c, 1, 7, 47
5, 679, Control_c, 1, 7, 47
5, 680, Control_c, 1, 7, 47
5, 681, Control_c, 1, 7, 47
5, 682, Control_c, 1, 7, 47
5, 683, Control_c, 1, 7, 47
5, 684, Control_c, 1, 7, 47
5, 685, Control_c, 1, 7, 47
5, 686, Control_c, 1, 7, 47
5, 687, Control_c, 1, 7, 47
5, 688, Control_c, 1, 7, 47
5, 689, Control_c, 1, 7, 47
5, 690, Control_c, 1, 7, 47
5, 691, Control_c, 1, 7, 47
5, 692, Control_c, 1, 7, 47
5, 693, Control_c, 1, 7, 47
5, 694, Control_c, 1, 7, 47
5, 695, Control_c, 1, 7, 47
5, 696, Control_c, 1, 7, 47
5, 697, Control_c, 1, 7, 47
5, 698, Control_c, 1, 7, 47
5, 699, Control_c, 1, 7, 47
5, 700, Control_c, 1, 7, 47
5, 701, Control_c, 1, 7, 47
5, 702, Control_c, 1, 7, 47
5, 703, Control_c, 1, 7, 47
5, 704, Control_c, 1, 7, 47
5, 705, Control_c, 1, 7, 47
5, 706, Control_c, 1, 7, 47
5, 707, Control_c, 1, 7, 47
5, 708, Control_c, 1, 7, 47
5, 709, Control_c, 1, 7, 47
5, 710, Control_c, 1, 7, 47
5, 711, Control_c, 1, 7, 47
5, 712, Control_c, 1, 7, 47
5, 713, Control_c, 1, 7, 48
5, 714, Control_c, 1, 7, 48
5, 715, Control_c, 1, 7, 48
5, 716, Control_c, 1, 7, 48
5, 717, Control_c, 1, 7, 48
5, 718, Control_c, 1, 7, 48
5, 719, Control_c, 1, 7, 48
5, 720, Note_off_c, 1, 55, 64
5, 720, Note_off_c, 1, 46, 64
5, 720, Note_off_c, 1, 39, 64
5, 720, Note_off_c, 1, 51, 64
5, 720, Note_off_c, 1, 62, 64
5, 720, Note_on_c, 1, 55, 100
5, 720, Note_on_c, 1, 62, 100
5, 720, Note_on_c, 1, 51, 100
5, 720, Note_on_c, 1, 39, 100
5, 720, Note_on_c, 1, 46, 100
5, 720, Control_c, 1, 7, 48
5, 721, Control_c, 1, 7, 48
5, 722, Control_c, 1, 7, 48
5, 723, Control_c, 1, 7, 48
5, 724, Control_c, 1, 7, 48
5, 725, Control_c, 1, 7, 48
5, 726, Control_c, 1, 7, 48
5, 727, Control_c, 1, 7, 48
5, 728, Control_c, 1, 7, 48
5, 729, Control_c, 1, 7, 48
5, 730, Control_c, 1, 7, 48
5, 731, Control_c, 1, 7, 48
5, 732, Control_c, 1, 7, 48
5, 733, Control_c, 1, 7, 48
5, 734, Control_c, 1, 7, 48
5, 735, Control_c, 1, 7, 48
5, 736, Control_c, 1, 7, 48
5, 737, Control_c, 1, 7, 48
5, 738, Control_c, 1, 7, 48
5, 739, Control_c, 1, 7, 48
5, 740, Control_c, 1, 7, 48
5, 741, Control_c, 1, 7, 48
5, 742, Control_c, 1, 7, 48
5, 743, Control_c, 1, 7, 48
5, 744, Control_c, 1, 7, 48
5, 745, Control_c, 1, 7, 48
5, 746, Control_c, 1, 7, 48
5, 747, Control_c, 1, 7, 48
5, 748, Control_c, 1, 7, 48
5, 749, Control_c, 1, 7, 48
5, 750, Control_c, 1, 7, 48
5, 751, Control_c, 1, 7, 48
5, 752, Control_c, 1, 7, 48
5, 753, Control_c, 1, 7, 48
5, 754, Control_c, 1, 7, 48
5, 755, Control_c, 1, 7, 48
5, 756, Control_c, 1, 7, 48
5, 757, Control_c, 1, 7, 49
5, 758, Control_c, 1, 7, 49
5, 759, Control_c, 1, 7, 49
5, 760, Control_c, 1, 7, 49
5, 761, Control_c, 1, 7, 49
5, 762, Control_c, 1, 7, 49
5, 763, Control_c, 1, 7, 49
5, 764, Control_c, 1, 7, 49
5, 765, Control_c, 1, 7, 49
5, 766, Control_c, 1, 7, 49
5, 767, Control_c, 1, 7, 49
5, 768, Note_off_c, 1, 55, 64
5, 768, Note_off_c, 1, 46, 64
5, 768, Note_off_c, 1, 39, 64
5, 768, Note_off_c, 1, 51, 64
5, 768, Note_off_c, 1, 62, 64
5, 768, Note_on_c, 1, 57, 100
5, 768, Note_on_c, 1, 53, 100
5, 768, Note_on_c, 1, 41, 100
5, 768, Note_on_c, 1, 48, 100
5, 768, Control_c, 1, 7, 49
5, 769, Control_c, 1, 7, 49
5, 770, Control_c, 1, 7, 49
5, 771, Control_c, 1, 7, 49
5, 772, Control_c, 1, 7, 49
5, 773, Control_c, 1, 7, 49
5, 774, Control_c, 1, 7, 49
5, 775, Control_c, 1, 7, 49
5, 776, Control_c, 1, 7, 49
5, 777, Control_c, 1, 7, 49
5, 778, Control_c, 1, 7, 49
5, 779, Control_c, 1, 7, 49
5, 780, Control_c, 1, 7, 49
5, 781, Control_c, 1, 7, 49
5, 782, Control_c, 1, 7, 49
5, 783, Control_c, 1, 7, 49
5, 784, Control_c, 1, 7, 49
5, 785, Control_c, 1, 7, 49
5, 786, Control_c, 1, 7, 49
5, 787, Control_c, 1, 7, 49
5, 788, Control_c, 1, 7, 49
5, 789, Control_c, 1, 7, 49
5, 790, Control_c, 1, 7, 49
5, 791, Control_c, 1, 7, 49
5, 792, Control_c, 1, 7, 49
5, 793, Control_c, 1, 7, 49
5, 794, Control_c, 1, 7, 49
5, 795, Control_c, 1, 7, 49
5, 796, Control_c, 1, 7, 49
5, 797, Control_c, 1, 7, 49
5, 798, Control_c, 1, 7, 49
5, 799, Control_c, 1, 7, 49
5, 800, Control_c, 1, 7, 50
5, 801, Control_c, 1, 7, 50
5, 802, Control_c, 1, 7, 50
5, 803, Control_c, 1, 7, 50
5, 804, Control_c, 1, 7, 50
5, 805, Control_c, 1, 7, 50
5, 806, Control_c, 1, 7, 50
5, 807, Control_c, 1, 7, 50
5, 808, Control_c, 1, 7, 50
5, 809, Control_c, 1, 7, 50
5, 810, Control_c, 1, 7, 50
5, 811, Control_c, 1, 7, 50
5, 812, Control_c, 1, 7, 50
5, 813, Control_c, 1, 7, 50
5, 814, Control_c, 1, 7, 50
5, 815, Control_c, 1, 7, 50
5, 816, Control_c, 1, 7, 50
5, 817, Control_c, 1, 7, 50
5, 818, Control_c, 1, 7, 50
5, 819, Control_c, 1, 7, 50
5, 820, Control_c, 1, 7, 50
5, 821, Control_c, 1, 7, 50
5, 822, Control_c, 1, 7, 50
5, 823, Control_c, 1, 7, 50
5, 824, Control_c, 1, 7, 50
5, 825, Control_c, 1, 7, 50
5, 826, Control_c, 1, 7, 50
5, 827, Control_c, 1, 7, 50
5, 828, Control_c, 1, 7, 50
5, 829, Control_c, 1, 7, 50
5, 830, Control_c, 1, 7, 50
5, 831, Control_c, 1, 7, 50
5, 832, Control_c, 1, 7, 50
5, 833, Control_c, 1, 7, 50
5, 834, Control_c, 1, 7, 50
5, 835, Control_c, 1, 7, 50
5, 836, Control_c, 1, 7, 50
5, 837, Control_c, 1, 7, 50
5, 838, Control_c, 1, 7, 50
5, 839, Control_c, 1, 7, 50
5, 840, Control_c, 1, 7, 50
5, 841, Control_c, 1, 7, 50
5, 842, Control_c, 1, 7, 51
5, 843, Control_c, 1, 7, 51
5, 844, Control_c, 1, 7, 51
5, 845, Control_c, 1, 7, 51
5, 846, Control_c, 1, 7, 51
5, 847, Control_c, 1, 7, 51
5, 848, Control_c, 1, 7, 51
5, 849, Control_c, 1, 7, 51
5, 850, Control_c, 1, 7, 51
5, 851, Control_c, 1, 7, 51
5, 852, Control_c, 1, 7, 51
5, 853, Control_c, 1, 7, 51
5, 854, Control_c, 1, 7, 51
5, 855, Control_c, 1, 7, 51
5, 856, Control_c, 1, 7, 51
5, 857, Control_c, 1, 7, 51
5, 858, Control_c, 1, 7, 51
5, 859, Control_c, 1, 7, 51
5, 860, Control_c, 1, 7, 51
5, 861, Control_c, 1, 7, 51
5, 862, Control_c, 1, 7, 51
5, 863, Control_c, 1, 7, 51
5, 864, Control_c, 1, 7, 51
5, 865, Control_c, 1, 7, 51
5, 866, Control_c, 1, 7, 51
5, 867, Control_c, 1, 7, 51
5, 868, Control_c, 1, 7, 51
5, 869, Control_c, 1, 7, 51
5, 870, Control_c, 1, 7, 51
5, 871, Control_c, 1, 7, 51
5, 872, Control_c, 1, 7, 51
5, 873, Control_c, 1, 7, 51
5, 874, Control_c, 1, 7, 51
5, 875, Control_c, 1, 7, 51
5, 876, Control_c, 1, 7, 51
5, 877, Control_c, 1, 7, 51
5, 878, Control_c, 1, 7, 51
5, 879, Control_c, 1, 7, 51
5, 880, Control_c, 1, 7, 51
5, 881, Control_c, 1, 7, 51
5, 882, Control_c, 1, 7, 52
5, 883, Control_c, 1, 7, 52
5, 884, Control_c, 1, 7, 52
5, 885, Control_c, 1, 7, 52
5, 886, Control_c, 1, 7, 52
5, 887, Control_c, 1, 7, 52
5, 888, Control_c, 1, 7, 52
5, 889, Control_c, 1, 7, 52
5, 890, Control_c, 1, 7, 52
5, 891, Control_c, 1, 7, 52
5, 892, Control_c, 1, 7, 52
5, 893, Control_c, 1, 7, 52
5, 894, Control_c, 1, 7, 52
5, 895, Control_c, 1, 7, 52
5, 896, Control_c, 1, 7, 52
5, 897, Control_c, 1, 7, 52
5, 898, Control_c, 1, 7, 52
5, 899, Control_c, 1, 7, 52
5, 900, Control_c, 1, 7, 52
5, 901, Control_c, 1, 7, 52
5, 902, Control_c, 1, 7, 52
5, 903, Control_c, 1, 7, 52
5, 904, Control_c, 1, 7, 52
5, 905, Control_c, 1, 7, 52
5, 906, Control_c, 1, 7, 52
5, 907, Control_c, 1, 7, 52
5, 908, Control_c, 1, 7, 52
5, 909, Control_c, 1, 7, 52
5, 910, Control_c, 1, 7, 52
5, 911, Control_c, 1, 7, 52
5, 912, Note_off_c, 1, 48, 64
5, 912, Note_off_c, 1, 41, 64
5, 912, Note_off_c, 1, 53, 64
5, 912, Note_off_c, 1, 57, 64
5, 912, Note_on_c, 1, 58, 100
5, 912, Note_on_c, 1, 55, 100
5, 912, Note_on_c, 1, 43, 100
5, 912, Note_on_c, 1, 50, 100
5, 912, Control_c, 1, 7, 52
5, 913, Control_c, 1, 7, 52
5, 914, Control_c, 1, 7, 52
5, 915, Control_c, 1, 7, 52
5, 916, Control_c, 1, 7, 52
5, 917, Control_c, 1, 7, 52
5, 918, Control_c, 1, 7, 52
5, 919, Control_c, 1, 7, 52
5, 920, Control_c, 1, 7, 52
5, 921, Control_c, 1, 7, 52
5, 922, Control_c, 1, 7, 52
5, 923, Control_c, 1, 7, 53
5, 924, Control_c, 1, 7, 53
5, 925, Control_c, 1, 7, 53
5, 926, Control_c, 1, 7, 53
5, 927, Control_c, 1, 7, 53
5, 928, Control_c, 1, 7, 53
5, 929, Control_c, 1, 7, 53
5, 930, Control_c, 1, 7, 53
5, 931, Control_c, 1, 7, 53
5, 932, Control_c, 1, 7, 53
5, 933, Control_c, 1, 7, 53
5, 934, Control_c, 1, 7, 53
5, 935, Control_c, 1, 7, 53
5, 936, Control_c, 1, 7, 53
5, 937, Control_c, 1, 7, 53
5, 938, Control_c, 1, 7, 53
5, 939, Control_c, 1, 7, 53
5, 940, Control_c, 1, 7, 53
5, 941, Control_c, 1, 7, 53
5, 942, Control_c, 1, 7, 53
5, 943, Control_c, 1, 7, 53
5, 944, Control_c, 1, 7, 53
5, 945, Control_c, 1, 7, 53
5, 946, Control_c, 1, 7, 53
5, 947, Control_c, 1, 7, 53
5, 948, Control_c, 1, 7, 53
5, 949, Control_c, 1, 7, 53
5, 950, Control_c, 1, 7, 53
5, 951, Control_c, 1, 7, 53
5, 952, Control_c, 1, 7, 53
5, 953, Control_c, 1, 7, 53
5, 954, Control_c, 1, 7, 53
5, 955, Control_c, 1, 7, 53
5, 956, Control_c, 1, 7, 53
5, 957, Control_c, 1, 7, 53
5, 958, Control_c, 1, 7, 53
5, 959, Control_c, 1, 7, 53
5, 960, Control_c, 1, 7, 53
5, 961, Control_c, 1, 7, 53
5, 962, Control_c, 1, 7, 54
5, 963, Control_c, 1, 7, 54
5, 964, Control_c, 1, 7, 54
5, 965, Control_c, 1, 7, 54
5, 966, Control_c, 1, 7, 54
5, 967, Control_c, 1, 7, 54
5, 968, Control_c, 1, 7, 54
5, 969, Control_c, 1, 7, 54
5, 970, Control_c, 1, 7, 54
5, 971, Control_c, 1, 7, 54
5, 972, Control_c, 1, 7, 54
5, 973, Control_c, 1, 7, 54
5, 974, Control_c, 1, 7, 54
5, 975, Control_c, 1, 7, 54
5, 976, Control_c, 1, 7, 54
5, 977, Control_c, 1, 7, 54
5, 978, Control_c, 1, 7, 54
5, 979, Control_c, 1, 7, 54
5, 980, Control_c, 1, 7, 54
5, 981, Control_c, 1, 7, 54
5, 982, Control_c, 1, 7, 54
5, 983, Control_c, 1, 7, 54
5, 984, Control_c, 1, 7, 54
5, 985, Control_c, 1, 7, 54
5, 986, Control_c, 1, 7, 54
5, 987, Control_c, 1, 7, 54
5, 988, Control_c, 1, 7, 54
5, 989, Control_c, 1, 7, 54
5, 990, Control_c, 1, 7, 54
5, 991, Control_c, 1, 7, 54
5, 992, Control_c, 1, 7, 54
5, 993, Control_c, 1, 7, 54
5, 994, Control_c, 1, 7, 54
5, 995, Control_c, 1, 7, 54
5, 996, Control_c, 1, 7, 54
5, 997, Control_c, 1, 7, 54
5, 998, Control_c, 1, 7, 54
5, 999, Control_c, 1, 7, 54
5, 1000, Control_c, 1, 7, 54
5, 1001, Control_c, 1, 7, 55
5, 1002, Control_c, 1, 7, 55
5, 1003, Control_c, 1, 7, 55
5, 1004, Control_c, 1, 7, 55
5, 1005, Control_c, 1, 7, 55
5, 1006, Control_c, 1, 7, 55
5, 1007, Control_c, 1, 7, 55
5, 1008, Control_c, 1, 7, 55
5, 1009, Control_c, 1, 7, 55
5, 1010, Control_c, 1, 7, 55
5, 1011, Control_c, 1, 7, 55
5, 1012, Control_c, 1, 7, 55
5, 1013, Control_c, 1, 7, 55
5, 1014, Control_c, 1, 7, 55
5, 1015, Control_c, 1, 7, 55
5, 1016, Control_c, 1, 7, 55
5, 1017, Control_c, 1, 7, 55
5, 1018, Control_c, 1, 7, 55
5, 1019, Control_c, 1, 7, 55
5, 1020, Control_c, 1, 7, 55
5, 1021, Control_c, 1, 7, 55
5, 1022, Control_c, 1, 7, 55
5, 1023, Control_c, 1, 7, 55
5, 1024, Control_c, 1, 7, 55
5, 1025, Control_c, 1, 7, 55
5, 1026, Control_c, 1, 7, 55
5, 1027, Control_c, 1, 7, 55
5, 1028, Control_c, 1, 7, 55
5, 1029, Control_c, 1, 7, 55
5, 1030, Control_c, 1, 7, 55
5, 1031, Control_c, 1, 7, 55
5, 1032, Control_c, 1, 7, 55
5, 1033, Control_c, 1, 7, 55
5, 1034, Control_c, 1, 7, 55
5, 1035, Control_c, 1, 7, 55
5, 1036, Control_c, 1, 7, 55
5, 1037, Control_c, 1, 7, 55
5, 1038, Control_c, 1, 7, 55
5, 1039, Control_c, 1, 7, 56
5, 1040, Control_c, 1, 7, 56
5, 1041, Control_c, 1, 7, 56
5, 1042, Control_c, 1, 7, 56
5, 1043, Control_c, 1, 7, 56
5, 1044, Control_c, 1, 7, 56
5, 1045, Control_c, 1, 7, 56
5, 1046, Control_c, 1, 7, 56
5, 1047, Control_c, 1, 7, 56
5, 1048, Control_c, 1, 7, 56
5, 1049, Control_c, 1, 7, 56
5, 1050, Control_c, 1, 7, 56
5, 1051, Control_c, 1, 7, 56
5, 1052, Control_c, 1, 7, 56
5, 1053, Control_c, 1, 7, 56
5, 1054, Control_c, 1, 7, 56
5, 1055, Control_c, 1, 7, 56
5, 1056, Note_off_c, 1, 58, 64
5, 1056, Note_off_c, 1, 50, 64
5, 1056, Note_off_c, 1, 43, 64
5, 1056, Note_off_c, 1, 55, 64
5, 1056, Note_on_c, 1, 55, 100
5, 1056, Note_on_c, 1, 51, 100
5, 1056, Note_on_c, 1, 39, 100
5, 1056, Note_on_c, 1, 62, 100
5, 1056, Note_on_c, 1, 46, 100
5, 1056, Control_c, 1, 7, 56
5, 1057, Control_c, 1, 7, 56
5, 1058, Control_c, 1, 7, 56
5, 1059, Control_c, 1, 7, 56
5, 1060, Control_c, 1, 7, 56
5, 1061, Control_c, 1, 7, 56
5, 1062, Control_c, 1, 7, 56
5, 1063, Control_c, 1, 7, 56
5, 1064, Control_c, 1, 7, 56
5, 1065, Control_c, 1, 7, 56
5, 1066, Control_c, 1, 7, 56
5, 1067, Control_c, 1, 7, 56
5, 1068, Control_c, 1, 7, 56
5, 1069, Control_c, 1, 7, 56
5, 1070, Control_c, 1, 7, 56
5, 1071, Control_c, 1, 7, 56
5, 1072, Control_c, 1, 7, 56
5, 1073, Control_c, 1, 7, 56
5, 1074, Control_c, 1, 7, 56
5, 1075, Control_c, 1, 7, 56
5, 1076, Control_c, 1, 7, 56
5, 1077, Control_c, 1, 7, 57
5, 1078, Control_c, 1, 7, 57
5, 1079, Control_c, 1, 7, 57
5, 1080, Control_c, 1, 7, 57
5, 1081, Control_c, 1, 7, 57
5, 1082, Control_c, 1, 7, 57
5, 1083, Control_c, 1, 7, 57
5, 1084, Control_c, 1, 7, 57
5, 1085, Control_c, 1, 7, 57
5, 1086, Control_c, 1, 7, 57
5, 1087, Control_c, 1, 7, 57
5, 1088, Control_c, 1, 7, 57
5, 1089, Control_c, 1, 7, 57
5, 1090, Control_c, 1, 7, 57
5, 1091, Control_c, 1, 7, 57
5, 1092, Control_c, 1, 7, 57
5, 1093, Control_c, 1, 7, 57
5, 1094, Control_c, 1, 7, 57
5, 1095, Control_c, 1, 7, 57
5, 1096, Control_c, 1, 7, 57
5, 1097, Control_c, 1, 7, 57
5, 1098, Control_c, 1, 7, 57
5, 1099, Control_c, 1, 7, 57
5, 1100, Control_c, 1, 7, 57
5, 1101, Control_c, 1, 7, 57
5, 1102, Control_c, 1, 7, 57
5, 1103, Control_c, 1, 7, 57
5, 1104, Control_c, 1, 7, 57
5, 1105, Control_c, 1, 7, 57
5, 1106, Control_c, 1, 7, 57
5, 1107, Control_c, 1, 7, 57
5, 1108, Control_c, 1, 7, 57
5, 1109, Control_c, 1, 7, 57
5, 1110, Control_c, 1, 7, 57
5, 1111, Control_c, 1, 7, 57
5, 1112, Control_c, 1, 7, 57
5, 1113, Control_c, 1, 7, 57
5, 1114, Control_c, 1, 7, 57
5, 1115, Control_c, 1, 7, 58
5, 1116, Control_c, 1, 7, 58
5, 1117, Control_c, 1, 7, 58
5, 1118, Control_c, 1, 7, 58
5, 1119, Control_c, 1, 7, 58
5, 1120, Control_c, 1, 7, 58
5, 1121, Control_c, 1, 7, 58
5, 1122, Control_c, 1, 7, 58
5, 1123, Control_c, 1, 7, 58
5, 1124, Control_c, 1, 7, 58
5, 1125, Control_c, 1, 7, 58
5, 1126, Control_c, 1, 7, 58
5, 1127, Control_c, 1, 7, 58
5, 1128, Control_c, 1, 7, 58
5, 1129, Control_c, 1, 7, 58
5, 1130, Control_c, 1, 7, 58
5, 1131, Control_c, 1, 7, 58
5, 1132, Control_c, 1, 7, 58
5, 1133, Control_c, 1, 7, 58
5, 1134, Control_c, 1, 7, 58
5, 1135, Control_c, 1, 7, 58
5, 1136, Control_c, 1, 7, 58
5, 1137, Control_c, 1, 7, 58
5, 1138, Control_c, 1, 7, 58
5, 1139, Control_c, 1, 7, 58
5, 1140, Control_c, 1, 7, 58
5, 1141, Control_c, 1, 7, 58
5, 1142, Control_c, 1, 7, 58
5, 1143, Control_c, 1, 7, 58
5, 1144, Control_c, 1, 7, 58
5, 1145, Control_c, 1, 7, 58
5, 1146, Control_c, 1, 7, 58
5, 1147, Control_c, 1, 7, 58
5, 1148, Control_c, 1, 7, 58
5, 1149, Control_c, 1, 7, 58
5, 1150, Control_c, 1, 7, 58
5, 1151, Control_c, 1, 7, 58
5, 1152, Control_c, 1, 7, 59
5, 1153, Control_c, 1, 7, 59
5, 1154, Control_c, 1, 7, 59
5, 1155, Control_c, 1, 7, 59
5, 1156, Control_c, 1, 7, 59
5, 1157, Control_c, 1, 7, 59
5, 1158, Control_c, 1, 7, 59
5, 1159, Control_c, 1, 7, 59
5, 1160, Control_c, 1, 7, 59
5, 1161, Control_c, 1, 7, 59
5, 1162, Control_c, 1, 7, 59
5, 1163, Control_c, 1, 7, 59
5, 1164, Control_c, 1, 7, 59
5, 1165, Control_c, 1, 7, 59
5, 1166, Control_c, 1, 7, 59
5, 1167, Control_c, 1, 7, 59
5, 1168, Control_c, 1, 7, 59
5, 1169, Control_c, 1, 7, 59
5, 1170, Control_c, 1, 7, 59
5, 1171, Control_c, 1, 7, 59
5, 1172, Control_c, 1, 7, 59
5, 1173, Control_c, 1, 7, 59
5, 1174, Control_c, 1, 7, 59
5, 1175, Control_c, 1, 7, 59
5, 1176, Control_c, 1, 7, 59
5, 1177, Control_c, 1, 7, 59
5, 1178, Control_c, 1, 7, 59
5, 1179, Control_c, 1, 7, 59
5, 1180, Control_c, 1, 7, 59
5, 1181, Control_c, 1, 7, 59
5, 1182, Control_c, 1, 7, 59
5, 1183, Control_c, 1, 7, 59
5, 1184, Control_c, 1, 7, 59
5, 1185, Control_c, 1, 7, 59
5, 1186, Control_c, 1, 7, 59
5, 1187, Control_c, 1, 7, 59
5, 1188, Control_c, 1, 7, 59
5, 1189, Control_c, 1, 7, 60
5, 1190, Control_c, 1, 7, 60
5, 1191, Control_c, 1, 7, 60
5, 1192, Control_c, 1, 7, 60
5, 1193, Control_c, 1, 7, 60
5, 1194, Control_c, 1, 7, 60
5, 1195, Control_c, 1, 7, 60
5, 1196, Control_c, 1, 7, 60
5, 1197, Control_c, 1, 7, 60
5, 1198, Control_c, 1, 7, 60
5, 1199, Control_c, 1, 7, 60
5, 1200, Note_off_c, 1, 51, 64
5, 1200, Note_off_c, 1, 46, 64
5, 1200, Note_off_c, 1, 62, 64
5, 1200, Note_off_c, 1, 39, 64
5, 1200, Note_off_c, 1, 55, 64
5, 1200, Note_on_c, 1, 55, 100
5, 1200, Note_on_c, 1, 62, 100
5, 1200, Note_on_c, 1, 51, 100
5, 1200, Note_on_c, 1, 39, 100
5, 1200, Note_on_c, 1, 46, 100
5, 1200, Control_c, 1, 7, 60
5, 1201, Control_c, 1, 7, 60
5, 1202, Control_c, 1, 7, 60
5, 1203, Control_c, 1, 7, 60
5, 1204, Control_c, 1, 7, 60
5, 1205, Control_c, 1, 7, 60
5, 1206, Control_c, 1, 7, 60
5, 1207, Control_c, 1, 7, 60
5, 1208, Control_c, 1, 7, 60
5, 1209, Control_c, 1, 7, 60
5, 1210, Control_c, 1, 7, 60
5, 1211, Control_c, 1, 7, 60
5, 1212, Control_c, 1, 7, 60
5, 1213, Control_c, 1, 7, 60
5, 1214, Control_c, 1, 7, 60
5, 1215, Control_c, 1, 7, 60
5, 1216, Control_c, 1, 7, 60
5, 1217, Control_c, 1, 7, 60
5, 1218, Control_c, 1, 7, 60
5, 1219, Control_c, 1, 7, 60
5, 1220, Control_c, 1, 7, 60
5, 1221, Control_c, 1, 7, 60
5, 1222, Control_c, 1, 7, 60
5, 1223, Control_c, 1, 7, 60
5, 1224, Control_c, 1, 7, 60
5, 1225, Control_c, 1, 7, 61
5, 1226, Control_c, 1, 7, 61
5, 1227, Control_c, 1, 7, 61
5, 1228, Control_c, 1, 7, 61
5, 1229, Control_c, 1, 7, 61
5, 1230, Control_c, 1, 7, 61
5, 1231, Control_c, 1, 7, 61
5, 1232, Control_c, 1, 7, 61
5, 1233, Control_c, 1, 7, 61
5, 1234, Control_c, 1, 7, 61
5, 1235, Control_c, 1, 7, 61
5, 1236, Control_c, 1, 7, 61
5, 1237, Control_c, 1, 7, 61
5, 1238, Control_c, 1, 7, 61
5, 1239, Control_c, 1, 7, 61
5, 1240, Control_c, 1, 7, 61
5, 1241, Control_c, 1, 7, 61
5, 1242, Control_c, 1, 7, 61
5, 1243, Control_c, 1, 7, 61
5, 1244, Control_c, 1, 7, 61
5, 1245, Control_c, 1, 7, 61
5, 1246, Control_c, 1, 7, 61
5, 1247, Control_c, 1, 7, 61
5, 1248, Note_off_c, 1, 55, 64
5, 1248, Note_off_c, 1, 46, 64
5, 1248, Note_off_c, 1, 39, 64
5, 1248, Note_off_c, 1, 51, 64
5, 1248, Note_off_c, 1, 62, 64
5, 1248, Note_on_c, 1, 55, 100
5, 1248, Note_on_c, 1, 62, 100
5, 1248, Note_on_c, 1, 51, 100
5, 1248, Note_on_c, 1, 39, 100
5, 1248, Note_on_c, 1, 46, 100
5, 1248, Control_c, 1, 7, 61
5, 1249, Control_c, 1, 7, 61
5, 1250, Control_c, 1, 7, 61
5, 1251, Control_c, 1, 7, 61
5, 1252, Control_c, 1, 7, 61
5, 1253, Control_c, 1, 7, 61
5, 1254, Control_c, 1, 7, 61
5, 1255, Control_c, 1, 7, 61
5, 1256, Control_c, 1, 7, 61
5, 1257, Control_c, 1, 7, 61
5, 1258, Control_c, 1, 7, 61
5, 1259, Control_c, 1, 7, 61
5, 1260, Control_c, 1, 7, 61
5, 1261, Control_c, 1, 7, 62
5, 1262, Control_c, 1, 7, 62
5, 1263, Control_c, 1, 7, 62
5, 1264, Control_c, 1, 7, 62
5, 1265, Control_c, 1, 7, 62
5, 1266, Control_c, 1, 7, 62
5, 1267, Control_c, 1, 7, 62
5, 1268, Control_c, 1, 7, 62
5, 1269, Control_c, 1, 7, 62
5, 1270, Control_c, 1, 7, 62
5, 1271, Control_c, 1, 7, 62
5, 1272, Control_c, 1, 7, 62
5, 1273, Control_c, 1, 7, 62
5, 1274, Control_c, 1, 7, 62
5, 1275, Control_c, 1, 7, 62
5, 1276, Control_c, 1, 7, 62
5, 1277, Control_c, 1, 7, 62
5, 1278, Control_c, 1, 7, 62
5, 1279, Control_c, 1, 7, 62
5, 1280, Control_c, 1, 7, 62
5, 1281, Control_c, 1, 7, 62
5, 1282, Control_c, 1, 7, 62
5, 1283, Control_c, 1, 7, 62
5, 1284, Control_c, 1, 7, 62
5, 1285, Control_c, 1, 7, 62
5, 1286, Control_c, 1, 7, 62
5, 1287, Control_c, 1, 7, 62
5, 1288, Control_c, 1, 7, 62
5, 1289, Control_c, 1, 7, 62
5, 1290, Control_c, 1, 7, 62
5, 1291, Control_c, 1, 7, 62
5, 1292, Control_c, 1, 7, 62
5, 1293, Control_c, 1, 7, 62
5, 1294, Control_c, 1, 7, 62
5, 1295, Control_c, 1, 7, 62
5, 1296, Note_off_c, 1, 55, 64
5, 1296, Note_off_c, 1, 46, 64
5, 1296, Note_off_c, 1, 39, 64
5, 1296, Note_off_c, 1, 51, 64
5, 1296, Note_off_c, 1, 62, 64
5, 1296, Note_on_c, 1, 55, 100
5, 1296, Note_on_c, 1, 62, 100
5, 1296, Note_on_c, 1, 51, 100
5, 1296, Note_on_c, 1, 39, 100
5, 1296, Note_on_c, 1, 46, 100
5, 1296, Control_c, 1, 7, 62
5, 1297, Control_c, 1, 7, 63
5, 1298, Control_c, 1, 7, 63
5, 1299, Control_c, 1, 7, 63
5, 1300, Control_c, 1, 7, 63
5, 1301, Control_c, 1, 7, 63
5, 1302, Control_c, 1, 7, 63
5, 1303, Control_c, 1, 7, 63
5, 1304, Control_c, 1, 7, 63
5, 1305, Control_c, 1, 7, 63
5, 1306, Control_c, 1, 7, 63
5, 1307, Control_c, 1, 7, 63
5, 1308, Control_c, 1, 7, 63
5, 1309, Control_c, 1, 7, 63
5, 1310, Control_c, 1, 7, 63
5, 1311, Control_c, 1, 7, 63
5, 1312, Control_c, 1, 7, 63
5, 1313, Control_c, 1, 7, 63
5, 1314, Control_c, 1, 7, 63
5, 1315, Control_c, 1, 7, 63
5, 1316, Control_c, 1, 7, 63
5, 1317, Control_c, 1, 7, 63
5, 1318, Control_c, 1, 7, 63
5, 1319, Control_c, 1, 7, 63
5, 1320, Control_c, 1, 7, 63
5, 1321, Control_c, 1, 7, 63
5, 1322, Control_c, 1, 7, 63
5, 1323, Control_c, 1, 7, 63
5, 1324, Control_c, 1, 7, 63
5, 1325, Control_c, 1, 7, 63
5, 1326, Control_c, 1, 7, 63
5, 1327, Control_c, 1, 7, 63
5, 1328, Control_c, 1, 7, 63
5, 1329, Control_c, 1, 7, 63
5, 1330, Control_c, 1, 7, 63
5, 1331, Control_c, 1, 7, 63
5, 1332, Control_c, 1, 7, 63
5, 1333, Control_c, 1, 7, 64
5, 1334, Control_c, 1, 7, 64
5, 1335, Control_c, 1, 7, 64
5, 1336, Control_c, 1, 7, 64
5, 1337, Control_c, 1, 7, 64
5, 1338, Control_c, 1, 7, 64
5, 1339, Control_c, 1, 7, 64
5, 1340, Control_c, 1, 7, 64
5, 1341, Control_c, 1, 7, 64
5, 1342, Control_c, 1, 7, 64
5, 1343, Control_c, 1, 7, 64
5, 1344, Note_off_c, 1, 55, 64
5, 1344, Note_off_c, 1, 46, 64
5, 1344, Note_off_c, 1, 39, 64
5, 1344, Note_off_c, 1, 51, 64
5, 1344, Note_off_c, 1, 62, 64
5, 1344, Note_on_c, 1, 55, 100
5, 1344, Note_on_c, 1, 62, 100
5, 1344, Note_on_c, 1, 51, 100
5, 1344, Note_on_c, 1, 39, 100
5, 1344, Note_on_c, 1, 46, 100
5, 1344, Control_c, 1, 7, 64
5, 1345, Control_c, 1, 7, 64
5, 1346, Control_c, 1, 7, 64
5, 1347, Control_c, 1, 7, 64
5, 1348, Control_c, 1, 7, 64
5, 1349, Control_c, 1, 7, 64
5, 1350, Control_c, 1, 7, 64
5, 1351, Control_c, 1, 7, 64
5, 1352, Control_c, 1, 7, 64
5, 1353, Control_c, 1, 7, 64
5, 1354, Control_c, 1, 7, 64
5, 1355, Control_c, 1, 7, 64
5, 1356, Control_c, 1, 7, 64
5, 1357, Control_c, 1, 7, 64
5, 1358, Control_c, 1, 7, 64
5, 1359, Control_c, 1, 7, 64
5, 1360, Control_c, 1, 7, 64
5, 1361, Control_c, 1, 7, 64
5, 1362, Control_c, 1, 7, 64
5, 1363, Control_c, 1, 7, 64
5, 1364, Control_c, 1, 7, 64
5, 1365, Control_c, 1, 7, 64
5, 1366, Control_c, 1, 7, 64
5, 1367, Control_c, 1, 7, 64
5, 1368, Control_c, 1, 7, 64
5, 1369, Control_c, 1, 7, 65
5, 1370, Control_c, 1, 7, 65
5, 1371, Control_c, 1, 7, 65
5, 1372, Control_c, 1, 7, 65
5, 1373, Control_c, 1, 7, 65
5, 1374, Control_c, 1, 7, 65
5, 1375, Control_c, 1, 7, 65
5, 1376, Control_c, 1, 7, 65
5, 1377, Control_c, 1, 7, 65
5, 1378, Control_c, 1, 7, 65
5, 1379, Control_c, 1, 7, 65
5, 1380, Control_c, 1, 7, 65
5, 1381, Control_c, 1, 7, 65
5, 1382, Control_c, 1, 7, 65
5, 1383, Control_c, 1, 7, 65
5, 1384, Control_c, 1, 7, 65
5, 1385, Control_c, 1, 7, 65
5, 1386, Control_c, 1, 7, 65
5, 1387, Control_c, 1, 7, 65
5, 1388, Control_c, 1, 7, 65
5, 1389, Control_c, 1, 7, 65
5, 1390, Control_c, 1, 7, 65
5, 1391, Control_c, 1, 7, 65
5, 1392, Note_off_c, 1, 55, 64
5, 1392, Note_off_c, 1, 46, 64
5, 1392, Note_off_c, 1, 39, 64
5, 1392, Note_off_c, 1, 51, 64
5, 1392, Note_off_c, 1, 62, 64
5, 1392, Note_on_c, 1, 55, 100
5, 1392, Note_on_c, 1, 62, 100
5, 1392, Note_on_c, 1, 51, 100
5, 1392, Note_on_c, 1, 39, 100
5, 1392, Note_on_c, 1, 46, 100
5, 1392, Control_c, 1, 7, 65
5, 1393, Control_c, 1, 7, 65
5, 1394, Control_c, 1, 7, 65
5, 1395, Control_c, 1, 7, 65
5, 1396, Control_c, 1, 7, 65
5, 1397, Control_c, 1, 7, 65
5, 1398, Control_c, 1, 7, 65
5, 1399, Control_c, 1, 7, 65
5, 1400, Control_c, 1, 7, 65
5, 1401, Control_c, 1, 7, 65
5, 1402, Control_c, 1, 7, 65
5, 1403, Control_c, 1, 7, 65
5, 1404, Control_c, 1, 7, 66
5, 1405, Control_c, 1, 7, 66
5, 1406, Control_c, 1, 7, 66
5, 1407, Control_c, 1, 7, 66
5, 1408, Control_c, 1, 7, 66
5, 1409, Control_c, 1, 7, 66
5, 1410, Control_c, 1, 7, 66
5, 1411, Control_c, 1, 7, 66
5, 1412, Control_c, 1, 7, 66
5, 1413, Control_c, 1, 7, 66
5, 1414, Control_c, 1, 7, 66
5, 1415, Control_c, 1, 7, 66
5, 1416, Control_c, 1, 7, 66
5, 1417, Control_c, 1, 7, 66
5, 1418, Control_c, 1, 7, 66
5, 1419, Control_c, 1, 7, 66
5, 1420, Control_c, 1, 7, 66
5, 1421, Control_c, 1, 7, 66
5, 1422, Control_c, 1, 7, 66
5, 1423, Control_c, 1, 7, 66
5, 1424, Control_c, 1, 7, 66
5, 1425, Control_c, 1, 7, 66
5, 1426, Control_c, 1, 7, 66
5, 1427, Control_c, 1, 7, 66
5, 1428, Control_c, 1, 7, 66
5, 1429, Control_c, 1, 7, 66
5, 1430, Control_c, 1, 7, 66
5, 1431, Control_c, 1, 7, 66
5, 1432, Control_c, 1, 7, 66
5, 1433, Control_c, 1, 7, 66
5, 1434, Control_c, 1, 7, 66
5, 1435, Control_c, 1, 7, 66
5, 1436, Control_c, 1, 7, 66
5, 1437, Control_c, 1, 7, 66
5, 1438, Control_c, 1, 7, 66
5, 1439, Control_c, 1, 7, 66
5, 1440, Note_off_c, 1, 55, 64
5, 1440, Note_off_c, 1, 46, 64
5, 1440, Note_off_c, 1, 39, 64
5, 1440, Note_off_c, 1, 51, 64
5, 1440, Note_off_c, 1, 62, 64
5, 1440, Note_on_c, 1, 55, 100
5, 1440, Note_on_c, 1, 62, 100
5, 1440, Note_on_c, 1, 51, 100
5, 1440, Note_on_c, 1, 39, 100
5, 1440, Note_on_c, 1, 46, 100
5, 1440, Control_c, 1, 7, 67
5, 1441, Control_c, 1, 7, 67
5, 1442, Control_c, 1, 7, 67
5, 1443, Control_c, 1, 7, 67
5, 1444, Control_c, 1, 7, 67
5, 1445, Control_c, 1, 7, 67
5, 1446, Control_c, 1, 7, 67
5, 1447, Control_c, 1, 7, 67
5, 1448, Control_c, 1, 7, 67
5, 1449, Control_c, 1, 7, 67
5, 1450, Control_c, 1, 7, 67
5, 1451, Control_c, 1, 7, 67
5, 1452, Control_c, 1, 7, 67
5, 1453, Control_c, 1, 7, 67
5, 1454, Control_c, 1, 7, 67
5, 1455, Control_c, 1, 7, 67
5, 1456, Control_c, 1, 7, 67
5, 1457, Control_c, 1, 7, 67
5, 1458, Control_c, 1, 7, 67
5, 1459, Control_c, 1, 7, 67
5, 1460, Control_c, 1, 7, 67
5, 1461, Control_c, 1, 7, 67
5, 1462, Control_c, 1, 7, 67
5, 1463, Control_c, 1, 7, 67
5, 1464, Control_c, 1, 7, 67
5, 1465, Control_c, 1, 7, 67
5, 1466, Control_c, 1, 7, 67
5, 1467, Control_c, 1, 7, 67
5, 1468, Control_c, 1, 7, 67
5, 1469, Control_c, 1, 7, 67
5, 1470, Control_c, 1, 7, 67
5, 1471, Control_c, 1, 7, 67
5, 1472, Control_c, 1, 7, 67
5, 1473, Control_c, 1, 7, 67
5, 1474, Control_c, 1, 7, 67
5, 1475, Control_c, 1, 7, 68
5, 1476, Control_c, 1, 7, 68
5, 1477, Control_c, 1, 7, 68
5, 1478, Control_c, 1, 7, 68
5, 1479, Control_c, 1, 7, 68
5, 1480, Control_c, 1, 7, 68
5, 1481, Control_c, 1, 7, 68
5, 1482, Control_c, 1, 7, 68
5, 1483, Control_c, 1, 7, 68
5, 1484, Control_c, 1, 7, 68
5, 1485, Control_c, 1, 7, 68
5, 1486, Control_c, 1, 7, 68
5, 1487, Control_c, 1, 7, 68
5, 1488, Note_off_c, 1, 55, 64
5, 1488, Note_off_c, 1, 46, 64
5, 1488, Note_off_c, 1, 39, 64
5, 1488, Note_off_c, 1, 51, 64
5, 1488, Note_off_c, 1, 62, 64
5, 1488, Note_on_c, 1, 55, 100
5, 1488, Note_on_c, 1, 62, 100
5, 1488, Note_on_c, 1, 51, 100
5, 1488, Note_on_c, 1, 39, 100
5, 1488, Note_on_c, 1, 46, 100
5, 1488, Control_c, 1, 7, 68
5, 1489, Control_c, 1, 7, 68
5, 1490, Control_c, 1, 7, 68
5, 1491, Control_c, 1, 7, 68
5, 1492, Control_c, 1, 7, 68
5, 1493, Control_c, 1, 7, 68
5, 1494, Control_c, 1, 7, 68
5, 1495, Control_c, 1, 7, 68
5, 1496, Control_c, 1, 7, 68
5, 1497, Control_c, 1, 7, 68
5, 1498, Control_c, 1, 7, 68
5, 1499, Control_c, 1, 7, 68
5, 1500, Control_c, 1, 7, 68
5, 1501, Control_c, 1, 7, 68
5, 1502, Control_c, 1, 7, 68
5, 1503, Control_c, 1, 7, 68
5, 1504, Control_c, 1, 7, 68
5, 1505, Control_c, 1, 7, 68
5, 1506, Control_c, 1, 7, 68
5, 1507, Control_c, 1, 7, 68
5, 1508, Control_c, 1, 7, 68
5, 1509, Control_c, 1, 7, 68
5, 1510, Control_c, 1, 7, 69
5, 1511, Control_c, 1, 7, 69
5, 1512, Control_c, 1, 7, 69
5, 1513, Control_c, 1, 7, 69
5, 1514, Control_c, 1, 7, 69
5, 1515, Control_c, 1, 7, 69
5, 1516, Control_c, 1, 7, 69
5, 1517, Control_c, 1, 7, 69
5, 1518, Control_c, 1, 7, 69
5, 1519, Control_c, 1, 7, 69
5, 1520, Control_c, 1, 7, 69
5, 1521, Control_c, 1, 7, 69
5, 1522, Control_c, 1, 7, 69
5, 1523, Control_c, 1, 7, 69
5, 1524, Control_c, 1, 7, 69
5, 1525, Control_c, 1, 7, 69
5, 1526, Control_c, 1, 7, 69
5, 1527, Control_c, 1, 7, 69
5, 1528, Control_c, 1, 7, 69
5, 1529, Control_c, 1, 7, 69
5, 1530, Control_c, 1, 7, 69
5, 1531, Control_c, 1, 7, 69
5, 1532, Control_c, 1, 7, 69
5, 1533, Control_c, 1, 7, 69
5, 1534, Control_c, 1, 7, 69
5, 1535, Control_c, 1, 7, 69
5, 1536, Note_off_c, 1, 46, 64
5, 1536, Note_off_c, 1, 39, 64
5, 1536, Note_off_c, 1, 51, 64
5, 1536, Note_off_c, 1, 62, 64
5, 1536, Note_off_c, 1, 55, 64
5, 1536, Note_on_c, 1, 57, 100
5, 1536, Note_on_c, 1, 53, 100
5, 1536, Note_on_c, 1, 41, 100
5, 1536, Note_on_c, 1, 48, 100
5, 1536, Control_c, 1, 7, 69
5, 1537, Control_c, 1, 7, 69
5, 1538, Control_c, 1, 7, 69
5, 1539, Control_c, 1, 7, 69
5, 1540, Control_c, 1, 7, 69
5, 1541, Control_c, 1, 7, 69
5, 1542, Control_c, 1, 7, 69
5, 1543, Control_c, 1, 7, 69
5, 1544, Control_c, 1, 7, 69
5, 1545, Control_c, 1, 7, 70
5, 1546, Control_c, 1, 7, 70
5, 1547, Control_c, 1, 7, 70
5, 1548, Control_c, 1, 7, 70
5, 1549, Control_c, 1, 7, 70
5, 1550, Control_c, 1, 7, 70
5, 1551, Control_c, 1, 7, 70
5, 1552, Control_c, 1, 7, 70
5, 1553, Control_c, 1, 7, 70
5, 1554, Control_c, 1, 7, 70
5, 1555, Control_c, 1, 7, 70
5, 1556, Control_c, 1, 7, 70
5, 1557, Control_c, 1, 7, 70
5, 1558, Control_c, 1, 7, 70
5, 1559, Control_c, 1, 7, 70
5, 1560, Control_c, 1, 7, 70
5, 1561, Control_c, 1, 7, 70
5, 1562, Control_c, 1, 7, 70
5, 1563, Control_c, 1, 7, 70
5, 1564, Control_c, 1, 7, 70
5, 1565, Control_c, 1, 7, 70
5, 1566, Control_c, 1, 7, 70
5, 1567, Control_c, 1, 7, 70
5, 1568, Control_c, 1, 7, 70
5, 1569, Control_c, 1, 7, 70
5, 1570, Control_c, 1, 7, 70
5, 1571, Control_c, 1, 7, 70
5, 1572, Control_c, 1, 7, 70
5, 1573, Control_c, 1, 7, 70
5, 1574, Control_c, 1, 7, 70
5, 1575, Control_c, 1, 7, 70
5, 1576, Control_c, 1, 7, 70
5, 1577, Control_c, 1, 7, 70
5, 1578, Control_c, 1, 7, 70
5, 1579, Control_c, 1, 7, 70
5, 1580, Control_c, 1, 7, 70
5, 1581, Control_c, 1, 7, 71
5, 1582, Control_c, 1, 7, 71
5, 1583, Control_c, 1, 7, 71
5, 1584, Control_c, 1, 7, 71
5, 1585, Control_c, 1, 7, 71
5, 1586, Control_c, 1, 7, 71
5, 1587, Control_c, 1, 7, 71
5, 1588, Control_c, 1, 7, 71
5, 1589, Control_c, 1, 7, 71
5, 1590, Control_c, 1, 7, 71
5, 1591, Control_c, 1, 7, 71
5, 1592, Control_c, 1, 7, 71
5, 1593, Control_c, 1, 7, 71
5, 1594, Control_c, 1, 7, 71
5, 1595, Control_c, 1, 7, 71
5, 1596, Control_c, 1, 7, 71
5, 1597, Control_c, 1, 7, 71
5, 1598, Control_c, 1, 7, 71
5, 1599, Control_c, 1, 7, 71
5, 1600, Control_c, 1, 7, 71
5, 1601, Control_c, 1, 7, 71
5, 1602, Control_c, 1, 7, 71
5, 1603, Control_c, 1, 7, 71
5, 1604, Control_c, 1, 7, 71
5, 1605, Control_c, 1, 7, 71
5, 1606, Control_c, 1, 7, 71
5, 1607, Control_c, 1, 7, 71
5, 1608, Control_c, 1, 7, 71
5, 1609, Control_c, 1, 7, 71
5, 1610, Control_c, 1, 7, 71
5, 1611, Control_c, 1, 7, 71
5, 1612, Control_c, 1, 7, 71
5, 1613, Control_c, 1, 7, 71
5, 1614, Control_c, 1, 7, 71
5, 1615, Control_c, 1, 7, 71
5, 1616, Control_c, 1, 7, 72
5, 1617, Control_c, 1, 7, 72
5, 1618, Control_c, 1, 7, 72
5, 1619, Control_c, 1, 7, 72
5, 1620, Control_c, 1, 7, 72
5, 1621, Control_c, 1, 7, 72
5, 1622, Control_c, 1, 7, 72
5, 1623, Control_c, 1, 7, 72
5, 1624, Control_c, 1, 7, 72
5, 1625, Control_c, 1, 7, 72
5, 1626, Control_c, 1, 7, 72
5, 1627, Control_c, 1, 7, 72
5, 1628, Control_c, 1, 7, 72
5, 1629, Control_c, 1, 7, 72
5, 1630, Control_c, 1, 7, 72
5, 1631, Control_c, 1, 7, 72
5, 1632, Control_c, 1, 7, 72
5, 1633, Control_c, 1, 7, 72
5, 1634, Control_c, 1, 7, 72
5, 1635, Control_c, 1, 7, 72
5, 1636, Control_c, 1, 7, 72
5, 1637, Control_c, 1, 7, 72
5, 1638, Control_c, 1, 7, 72
5, 1639, Control_c, 1, 7, 72
5, 1640, Control_c, 1, 7, 72
5, 1641, Control_c, 1, 7, 72
5, 1642, Control_c, 1, 7, 72
5, 1643, Control_c, 1, 7, 72
5, 1644, Control_c, 1, 7, 72
5, 1645, Control_c, 1, 7, 72
5, 1646, Control_c, 1, 7, 72
5, 1647, Control_c, 1, 7, 72
5, 1648, Control_c, 1, 7, 72
5, 1649, Control_c, 1, 7, 72
5, 1650, Control_c, 1, 7, 72
5, 1651, Control_c, 1, 7, 73
5, 1652, Control_c, 1, 7, 73
5, 1653, Control_c, 1, 7, 73
5, 1654, Control_c, 1, 7, 73
5, 1655, Control_c, 1, 7, 73
5, 1656, Control_c, 1, 7, 73
5, 1657, Control_c, 1, 7, 73
5, 1658, Control_c, 1, 7, 73
5, 1659, Control_c, 1, 7, 73
5, 1660, Control_c, 1, 7, 73
5, 1661, Control_c, 1, 7, 73
5, 1662, Control_c, 1, 7, 73
5, 1663, Control_c, 1, 7, 73
5, 1664, Control_c, 1, 7, 73
5, 1665, Control_c, 1, 7, 73
5, 1666, Control_c, 1, 7, 73
5, 1667, Control_c, 1, 7, 73
5, 1668, Control_c, 1, 7, 73
5, 1669, Control_c, 1, 7, 73
5, 1670, Control_c, 1, 7, 73
5, 1671, Control_c, 1, 7, 73
5, 1672, Control_c, 1, 7, 73
5, 1673, Control_c, 1, 7, 73
5, 1674, Control_c, 1, 7, 73
5, 1675, Control_c, 1, 7, 73
5, 1676, Control_c, 1, 7, 73
5, 1677, Control_c, 1, 7, 73
5, 1678, Control_c, 1, 7, 73
5, 1679, Control_c, 1, 7, 73
5, 1680, Note_off_c, 1, 48, 64
5, 1680, Note_off_c, 1, 41, 64
5, 1680, Note_off_c, 1, 53, 64
5, 1680, Note_off_c, 1, 57, 64
5, 1680, Note_on_c, 1, 58, 100
5, 1680, Note_on_c, 1, 55, 100
5, 1680, Note_on_c, 1, 43, 100
5, 1680, Note_on_c, 1, 50, 100
5, 1680, Control_c, 1, 7, 73
5, 1681, Control_c, 1, 7, 73
5, 1682, Control_c, 1, 7, 73
5, 1683, Control_c, 1, 7, 73
5, 1684, Control_c, 1, 7, 73
5, 1685, Control_c, 1, 7, 73
5, 1686, Control_c, 1, 7, 73
5, 1687, Control_c, 1, 7, 74
5, 1688, Control_c, 1, 7, 74
5, 1689, Control_c, 1, 7, 74
5, 1690, Control_c, 1, 7, 74
5, 1691, Control_c, 1, 7, 74
5, 1692, Control_c, 1, 7, 74
5, 1693, Control_c, 1, 7, 74
5, 1694, Control_c, 1, 7, 74
5, 1695, Control_c, 1, 7, 74
5, 1696, Control_c, 1, 7, 74
5, 1697, Control_c, 1, 7, 74
5, 1698, Control_c, 1, 7, 74
5, 1699, Control_c, 1, 7, 74
5, 1700, Control_c, 1, 7, 74
5, 1701, Control_c, 1, 7, 74
5, 1702, Control_c, 1, 7, 74
5, 1703, Control_c, 1, 7, 74
5, 1704, Control_c, 1, 7, 74
5, 1705, Control_c, 1, 7, 74
5, 1706, Control_c, 1, 7, 74
5, 1707, Control_c, 1, 7, 74
5, 1708, Control_c, 1, 7, 74
5, 1709, Control_c, 1, 7, 74
5, 1710, Control_c, 1, 7, 74
5, 1711, Control_c, 1, 7, 74
5, 1712, Control_c, 1, 7, 74
5, 1713, Control_c, 1, 7, 74
5, 1714, Control_c, 1, 7, 74
5, 1715, Control_c, 1, 7, 74
5, 1716, Control_c, 1, 7, 74
5, 1717, Control_c, 1, 7, 74
5, 1718, Control_c, 1, 7, 74
5, 1719, Control_c, 1, 7, 74
5, 1720, Control_c, 1, 7, 74
5, 1721, Control_c, 1, 7, 74
5, 1722, Control_c, 1, 7, 75
5, 1723, Control_c, 1, 7, 75
5, 1724, Control_c, 1, 7, 75
5, 1725, Control_c, 1, 7, 75
5, 1726, Control_c, 1, 7, 75
5, 1727, Control_c, 1, 7, 75
5, 1728, Control_c, 1, 7, 75
5, 1729, Control_c, 1, 7, 75
5, 1730, Control_c, 1, 7, 75
5, 1731, Control_c, 1, 7, 75
5, 1732, Control_c, 1, 7, 75
5, 1733, Control_c, 1, 7, 75
5, 1734, Control_c, 1, 7, 75
5, 1735, Control_c, 1, 7, 75
5, 1736, Control_c, 1, 7, 75
5, 1737, Control_c, 1, 7, 75
5, 1738, Control_c, 1, 7, 75
5, 1739, Control_c, 1, 7, 75
5, 1740, Control_c, 1, 7, 75
5, 1741, Control_c, 1, 7, 75
5, 1742, Control_c, 1, 7, 75
5, 1743, Control_c, 1, 7, 75
5, 1744, Control_c, 1, 7, 75
5, 1745, Control_c, 1, 7, 75
5, 1746, Control_c, 1, 7, 75
5, 1747, Control_c, 1, 7, 75
5, 1748, Control_c, 1, 7, 75
5, 1749, Control_c, 1, 7, 75
5, 1750, Control_c, 1, 7, 75
5, 1751, Control_c, 1, 7, 75
5, 1752, Control_c, 1, 7, 75
5, 1753, Control_c, 1, 7, 75
5, 1754, Control_c, 1, 7, 75
5, 1755, Control_c, 1, 7, 75
5, 1756, Control_c, 1, 7, 75
5, 1757, Control_c, 1, 7, 75
5, 1758, Control_c, 1, 7, 76
5, 1759, Control_c, 1, 7, 76
5, 1760, Control_c, 1, 7, 76
5, 1761, Control_c, 1, 7, 76
5, 1762, Control_c, 1, 7, 76
5, 1763, Control_c, 1, 7, 76
5, 1764, Control_c, 1, 7, 76
5, 1765, Control_c, 1, 7, 76
5, 1766, Control_c, 1, 7, 76
5, 1767, Control_c, 1, 7, 76
5, 1768, Control_c, 1, 7, 76
5, 1769, Control_c, 1, 7, 76
5, 1770, Control_c, 1, 7, 76
5, 1771, Control_c, 1, 7, 76
5, 1772, Control_c, 1, 7, 76
5, 1773, Control_c, 1, 7, 76
5, 1774, Control_c, 1, 7, 76
5, 1775, Control_c, 1, 7, 76
5, 1776, Control_c, 1, 7, 76
5, 1777, Control_c, 1, 7, 76
5, 1778, Control_c, 1, 7, 76
5, 1779, Control_c, 1, 7, 76
5, 1780, Control_c, 1, 7, 76
5, 1781, Control_c, 1, 7, 76
5, 1782, Control_c, 1, 7, 76
5, 1783, Control_c, 1, 7, 76
5, 1784, Control_c, 1, 7, 76
5, 1785, Control_c, 1, 7, 76
5, 1786, Control_c, 1, 7, 76
5, 1787, Control_c, 1, 7, 76
5, 1788, Control_c, 1, 7, 76
5, 1789, Control_c, 1, 7, 76
5, 1790, Control_c, 1, 7, 76
5, 1791, Control_c, 1, 7, 76
5, 1792, Control_c, 1, 7, 76
5, 1793, Control_c, 1, 7, 76
5, 1794, Control_c, 1, 7, 77
5, 1795, Control_c, 1, 7, 77
5, 1796, Control_c, 1, 7, 77
5, 1797, Control_c, 1, 7, 77
5, 1798, Control_c, 1, 7, 77
5, 1799, Control_c, 1, 7, 77
5, 1800, Control_c, 1, 7, 77
5, 1801, Control_c, 1, 7, 77
5, 1802, Control_c, 1, 7, 77
5, 1803, Control_c, 1, 7, 77
5, 1804, Control_c, 1, 7, 77
5, 1805, Control_c, 1, 7, 77
5, 1806, Control_c, 1, 7, 77
5, 1807, Control_c, 1, 7, 77
5, 1808, Control_c, 1, 7, 77
5, 1809, Control_c, 1, 7, 77
5, 1810, Control_c, 1, 7, 77
5, 1811, Control_c, 1, 7, 77
5, 1812, Control_c, 1, 7, 77
5, 1813, Control_c, 1, 7, 77
5, 1814, Control_c, 1, 7, 77
5, 1815, Control_c, 1, 7, 77
5, 1816, Control_c, 1, 7, 77
5, 1817, Control_c, 1, 7, 77
5, 1818, Control_c, 1, 7, 77
5, 1819, Control_c, 1, 7, 77
5, 1820, Control_c, 1, 7, 77
5, 1821, Control_c, 1, 7, 77
5, 1822, Control_c, 1, 7, 77
5, 1823, Control_c, 1, 7, 77
5, 1824, Note_off_c, 1, 58, 64
5, 1824, Note_off_c, 1, 50, 64
5, 1824, Note_off_c, 1, 43, 64
5, 1824, Note_off_c, 1, 55, 64
5, 1824, Note_on_c, 1, 55, 100
5, 1824, Note_on_c, 1, 51, 100
5, 1824, Note_on_c, 1, 39, 100
5, 1824, Note_on_c, 1, 62, 100
5, 1824, Note_on_c, 1, 46, 100
5, 1824, Control_c, 1, 7, 77
5, 1825, Control_c, 1, 7, 77
5, 1826, Control_c, 1, 7, 77
5, 1827, Control_c, 1, 7, 77
5, 1828, Control_c, 1, 7, 77
5, 1829, Control_c, 1, 7, 77
5, 1830, Control_c, 1, 7, 78
5, 1831, Control_c, 1, 7, 78
5, 1832, Control_c, 1, 7, 78
5, 1833, Control_c, 1, 7, 78
5, 1834, Control_c, 1, 7, 78
5, 1835, Control_c, 1, 7, 78
5, 1836, Control_c, 1, 7, 78
5, 1837, Control_c, 1, 7, 78
5, 1838, Control_c, 1, 7, 78
5, 1839, Control_c, 1, 7, 78
5, 1840, Control_c, 1, 7, 78
5, 1841, Control_c, 1, 7, 78
5, 1842, Control_c, 1, 7, 78
5, 1843, Control_c, 1, 7, 78
5, 1844, Control_c, 1, 7, 78
5, 1845, Control_c, 1, 7, 78
5, 1846, Control_c, 1, 7, 78
5, 1847, Control_c, 1, 7, 78
5, 1848, Control_c, 1, 7, 78
5, 1849, Control_c, 1, 7, 78
5, 1850, Control_c, 1, 7, 78
5, 1851, Control_c, 1, 7, 78
5, 1852, Control_c, 1, 7, 78
5, 1853, Control_c, 1, 7, 78
5, 1854, Control_c, 1, 7, 78
5, 1855, Control_c, 1, 7, 78
5, 1856, Control_c, 1, 7, 78
5, 1857, Control_c, 1, 7, 78
5, 1858, Control_c, 1, 7, 78
5, 1859, Control_c, 1, 7, 78
5, 1860, Control_c, 1, 7, 78
5, 1861, Control_c, 1, 7, 78
5, 1862, Control_c, 1, 7, 78
5, 1863, Control_c, 1, 7, 78
5, 1864, Control_c, 1, 7, 78
5, 1865, Control_c, 1, 7, 78
5, 1866, Control_c, 1, 7, 79
5, 1867, Control_c, 1, 7, 79
5, 1868, Control_c, 1, 7, 79
5, 1869, Control_c, 1, 7, 79
5, 1870, Control_c, 1, 7, 79
5, 1871, Control_c, 1, 7, 79
5, 1872, Control_c, 1, 7, 79
5, 1873, Control_c, 1, 7, 79
5, 1874, Control_c, 1, 7, 79
5, 1875, Control_c, 1, 7, 79
5, 1876, Control_c, 1, 7, 79
5, 1877, Control_c, 1, 7, 79
5, 1878, Control_c, 1, 7, 79
5, 1879, Control_c, 1, 7, 79
5, 1880, Control_c, 1, 7, 79
5, 1881, Control_c, 1, 7, 79
5, 1882, Control_c, 1, 7, 79
5, 1883, Control_c, 1, 7, 79
5, 1884, Control_c, 1, 7, 79
5, 1885, Control_c, 1, 7, 79
5, 1886, Control_c, 1, 7, 79
5, 1887, Control_c, 1, 7, 79
5, 1888, Control_c, 1, 7, 79
5, 1889, Control_c, 1, 7, 79
5, 1890, Control_c, 1, 7, 79
5, 1891, Control_c, 1, 7, 79
5, 1892, Control_c, 1, 7, 79
5, 1893, Control_c, 1, 7, 79
5, 1894, Control_c, 1, 7, 79
5, 1895, Control_c, 1, 7, 79
5, 1896, Control_c, 1, 7, 79
5, 1897, Control_c, 1, 7, 79
5, 1898, Control_c, 1, 7, 79
5, 1899, Control_c, 1, 7, 79
5, 1900, Control_c, 1, 7, 79
5, 1901, Control_c, 1, 7, 79
5, 1902, Control_c, 1, 7, 79
5, 1903, Control_c, 1, 7, 80
5, 1904, Control_c, 1, 7, 80
5, 1905, Control_c, 1, 7, 80
5, 1906, Control_c, 1, 7, 80
5, 1907, Control_c, 1, 7, 80
5, 1908, Control_c, 1, 7, 80
5, 1909, Control_c, 1, 7, 80
5, 1910, Control_c, 1, 7, 80
5, 1911, Control_c, 1, 7, 80
5, 1912, Control_c, 1, 7, 80
5, 1913, Control_c, 1, 7, 80
5, 1914, Control_c, 1, 7, 80
5, 1915, Control_c, 1, 7, 80
5, 1916, Control_c, 1, 7, 80
5, 1917, Control_c, 1, 7, 80
5, 1918, Control_c, 1, 7, 80
5, 1919, Control_c, 1, 7, 80
5, 1920, Control_c, 1, 7, 80
5, 1921, Control_c, 1, 7, 80
5, 1922, Control_c, 1, 7, 80
5, 1923, Control_c, 1, 7, 80
5, 1924, Control_c, 1, 7, 80
5, 1925, Control_c, 1, 7, 80
5, 1926, Control_c, 1, 7, 80
5, 1927, Control_c, 1, 7, 80
5, 1928, Control_c, 1, 7, 80
5, 1929, Control_c, 1, 7, 80
5, 1930, Control_c, 1, 7, 80
5, 1931, Control_c, 1, 7, 80
5, 1932, Control_c, 1, 7, 80
5, 1933, Control_c, 1, 7, 80
5, 1934, Control_c, 1, 7, 80
5, 1935, Control_c, 1, 7, 80
5, 1936, Control_c, 1, 7, 80
5, 1937, Control_c, 1, 7, 80
5, 1938, Control_c, 1, 7, 80
5, 1939, Control_c, 1, 7, 80
5, 1940, Control_c, 1, 7, 81
5, 1941, Control_c, 1, 7, 81
5, 1942, Control_c, 1, 7, 81
5, 1943, Control_c, 1, 7, 81
5, 1944, Control_c, 1, 7, 81
5, 1945, Control_c, 1, 7, 81
5, 1946, Control_c, 1, 7, 81
5, 1947, Control_c, 1, 7, 81
5, 1948, Control_c, 1, 7, 81
5, 1949, Control_c, 1, 7, 81
5, 1950, Control_c, 1, 7, 81
5, 1951, Control_c, 1, 7, 81
5, 1952, Control_c, 1, 7, 81
5, 1953, Control_c, 1, 7, 81
5, 1954, Control_c, 1, 7, 81
5, 1955, Control_c, 1, 7, 81
5, 1956, Control_c, 1, 7, 81
5, 1957, Control_c, 1, 7, 81
5, 1958, Control_c, 1, 7, 81
5, 1959, Control_c, 1, 7, 81
5, 1960, Control_c, 1, 7, 81
5, 1961, Control_c, 1, 7, 81
5, 1962, Control_c, 1, 7, 81
5, 1963, Control_c, 1, 7, 81
5, 1964, Control_c, 1, 7, 81
5, 1965, Control_c, 1, 7, 81
5, 1966, Control_c, 1, 7, 81
5, 1967, Control_c, 1, 7, 81
5, 1968, Note_off_c, 1, 51, 64
5, 1968, Note_off_c, 1, 46, 64
5, 1968, Note_off_c, 1, 62, 64
5, 1968, Note_off_c, 1, 39, 64
5, 1968, Note_off_c, 1, 55, 64
5, 1968, Note_on_c, 1, 55, 100
5, 1968, Note_on_c, 1, 62, 100
5, 1968, Note_on_c, 1, 51, 100
5, 1968, Note_on_c, 1, 39, 100
5, 1968, Note_on_c, 1, 46, 100
5, 1968, Control_c, 1, 7, 81
5, 1969, Control_c, 1, 7, 81
5, 1970, Control_c, 1, 7, 81
5, 1971, Control_c, 1, 7, 81
5, 1972, Control_c, 1, 7, 81
5, 1973, Control_c, 1, 7, 81
5, 1974, Control_c, 1, 7, 81
5, 1975, Control_c, 1, 7, 81
5, 1976, Control_c, 1, 7, 81
5, 1977, Control_c, 1, 7, 82
5, 1978, Control_c, 1, 7, 82
5, 1979, Control_c, 1, 7, 82
5, 1980, Control_c, 1, 7, 82
5, 1981, Control_c, 1, 7, 82
5, 1982, Control_c, 1, 7, 82
5, 1983, Control_c, 1, 7, 82
5, 1984, Control_c, 1, 7, 82
5, 1985, Control_c, 1, 7, 82
5, 1986, Control_c, 1, 7, 82
5, 1987, Control_c, 1, 7, 82
5, 1988, Control_c, 1, 7, 82
5, 1989, Control_c, 1, 7, 82
5, 1990, Control_c, 1, 7, 82
5, 1991, Control_c, 1, 7, 82
5, 1992, Control_c, 1, 7, 82
5, 1993, Control_c, 1, 7, 82
5, 1994, Control_c, 1, 7, 82
5, 1995, Control_c, 1, 7, 82
5, 1996, Control_c, 1, 7, 82
5, 1997, Control_c, 1, 7, 82
5, 1998, Control_c, 1, 7, 82
5, 1999, Control_c, 1, 7, 82
5, 2000, Control_c, 1, 7, 82
5, 2001, Control_c, 1, 7, 82
5, 2002, Control_c, 1, 7, 82
5, 2003, Control_c, 1, 7, 82
5, 2004, Control_c, 1, 7, 82
5, 2005, Control_c, 1, 7, 82
5, 2006, Control_c, 1, 7, 82
5, 2007, Control_c, 1, 7, 82
5, 2008, Control_c, 1, 7, 82
5, 2009, Control_c, 1, 7, 82
5, 2010, Control_c, 1, 7, 82
5, 2011, Control_c, 1, 7, 82
5, 2012, Control_c, 1, 7, 82
5, 2013, Control_c, 1, 7, 82
5, 2014, Control_c, 1, 7, 82
5, 2015, Control_c, 1, 7, 83
5, 2016, Note_off_c, 1, 55, 64
5, 2016, Note_off_c, 1, 46, 64
5, 2016, Note_off_c, 1, 39, 64
5, 2016, Note_off_c, 1, 51, 64
5, 2016, Note_off_c, 1, 62, 64
5, 2016, Note_on_c, 1, 55, 100
5, 2016, Note_on_c, 1, 62, 100
5, 2016, Note_on_c, 1, 51, 100
5, 2016, Note_on_c, 1, 39, 100
5, 2016, Note_on_c, 1, 46, 100
5, 2016, Control_c, 1, 7, 83
5, 2017, Control_c, 1, 7, 83
5, 2018, Control_c, 1, 7, 83
5, 2019, Control_c, 1, 7, 83
5, 2020, Control_c, 1, 7, 83
5, 2021, Control_c, 1, 7, 83
5, 2022, Control_c, 1, 7, 83
5, 2023, Control_c, 1, 7, 83
5, 2024, Control_c, 1, 7, 83
5, 2025, Control_c, 1, 7, 83
5, 2026, Control_c, 1, 7, 83
5, 2027, Control_c, 1, 7, 83
5, 2028, Control_c, 1, 7, 83
5, 2029, Control_c, 1, 7, 83
5, 2030, Control_c, 1, 7, 83
5, 2031, Control_c, 1, 7, 83
5, 2032, Control_c, 1, 7, 83
5, 2033, Control_c, 1, 7, 83
5, 2034, Control_c, 1, 7, 83
5, 2035, Control_c, 1, 7, 83
5, 2036, Control_c, 1, 7, 83
5, 2037, Control_c, 1, 7, 83
5, 2038, Control_c, 1, 7, 83
5, 2039, Control_c, 1, 7, 83
5, 2040, Control_c, 1, 7, 83
5, 2041, Control_c, 1, 7, 83
5, 2042, Control_c, 1, 7, 83
5, 2043, Control_c, 1, 7, 83
5, 2044, Control_c, 1, 7, 83
5, 2045, Control_c, 1, 7, 83
5, 2046, Control_c, 1, 7, 83
5, 2047, Control_c, 1, 7, 83
5, 2048, Control_c, 1, 7, 83
5, 2049, Control_c, 1, 7, 83
5, 2050, Control_c, 1, 7, 83
5, 2051, Control_c, 1, 7, 83
5, 2052, Control_c, 1, 7, 83
5, 2053, Control_c, 1, 7, 84
5, 2054, Control_c, 1, 7, 84
5, 2055, Control_c, 1, 7, 84
5, 2056, Control_c, 1, 7, 84
5, 2057, Control_c, 1, 7, 84
5, 2058, Control_c, 1, 7, 84
5, 2059, Control_c, 1, 7, 84
5, 2060, Control_c, 1, 7, 84
5, 2061, Control_c, 1, 7, 84
5, 2062, Control_c, 1, 7, 84
5, 2063, Control_c, 1, 7, 84
5, 2064, Note_off_c, 1, 62, 64
5, 2064, Note_off_c, 1, 55, 64
5, 2064, Note_off_c, 1, 46, 64
5, 2064, Note_off_c, 1, 39, 64
5, 2064, Note_off_c, 1, 51, 64
5, 2064, Note_on_c, 1, 55, 100
5, 2064, Note_on_c, 1, 62, 100
5, 2064, Note_on_c, 1, 51, 100
5, 2064, Note_on_c, 1, 39, 100
5, 2064, Note_on_c, 1, 46, 100
5, 2064, Control_c, 1, 7, 84
5, 2065, Control_c, 1, 7, 84
5, 2066, Control_c, 1, 7, 84
5, 2067, Control_c, 1, 7, 84
5, 2068, Control_c, 1, 7, 84
5, 2069, Control_c, 1, 7, 84
5, 2070, Control_c, 1, 7, 84
5, 2071, Control_c, 1, 7, 84
5, 2072, Control_c, 1, 7, 84
5, 2073, Control_c, 1, 7, 84
5, 2074, Control_c, 1, 7, 84
5, 2075, Control_c, 1, 7, 84
5, 2076, Control_c, 1, 7, 84
5, 2077, Control_c, 1, 7, 84
5, 2078, Control_c, 1, 7, 84
5, 2079, Control_c, 1, 7, 84
5, 2080, Control_c, 1, 7, 84
5, 2081, Control_c, 1, 7, 84
5, 2082, Control_c, 1, 7, 84
5, 2083, Control_c, 1, 7, 84
5, 2084, Control_c, 1, 7, 84
5, 2085, Control_c, 1, 7, 84
5, 2086, Control_c, 1, 7, 84
5, 2087, Control_c, 1, 7, 84
5, 2088, Control_c, 1, 7, 84
5, 2089, Control_c, 1, 7, 84
5, 2090, Control_c, 1, 7, 84
5, 2091, Control_c, 1, 7, 84
5, 2092, Control_c, 1, 7, 85
5, 2093, Control_c, 1, 7, 85
5, 2094, Control_c, 1, 7, 85
5, 2095, Control_c, 1, 7, 85
5, 2096, Control_c, 1, 7, 85
5, 2097, Control_c, 1, 7, 85
5, 2098, Control_c, 1, 7, 85
5, 2099, Control_c, 1, 7, 85
5, 2100, Control_c, 1, 7, 85
5, 2101, Control_c, 1, 7, 85
5, 2102, Control_c, 1, 7, 85
5, 2103, Control_c, 1, 7, 85
5, 2104, Control_c, 1, 7, 85
5, 2105, Control_c, 1, 7, 85
5, 2106, Control_c, 1, 7, 85
5, 2107, Control_c, 1, 7, 85
5, 2108, Control_c, 1, 7, 85
5, 2109, Control_c, 1, 7, 85
5, 2110, Control_c, 1, 7, 85
5, 2111, Control_c, 1, 7, 85
5, 2112, Note_off_c, 1, 62, 64
5, 2112, Note_off_c, 1, 55, 64
5, 2112, Note_off_c, 1, 46, 64
5, 2112, Note_off_c, 1, 39, 64
5, 2112, Note_off_c, 1, 51, 64
5, 2112, Note_on_c, 1, 55, 100
5, 2112, Note_on_c, 1, 62, 100
5, 2112, Note_on_c, 1, 51, 100
5, 2112, Note_on_c, 1, 39, 100
5, 2112, Note_on_c, 1, 46, 100
5, 2112, Control_c, 1, 7, 85
5, 2113, Control_c, 1, 7, 85
5, 2114, Control_c, 1, 7, 85
5, 2115, Control_c, 1, 7, 85
5, 2116, Control_c, 1, 7, 85
5, 2117, Control_c, 1, 7, 85
5, 2118, Control_c, 1, 7, 85
5, 2119, Control_c, 1, 7, 85
5, 2120, Control_c, 1, 7, 85
5, 2121, Control_c, 1, 7, 85
5, 2122, Control_c, 1, 7, 85
5, 2123, Control_c, 1, 7, 85
5, 2124, Control_c, 1, 7, 85
5, 2125, Control_c, 1, 7, 85
5, 2126, Control_c, 1, 7, 85
5, 2127, Control_c, 1, 7, 85
5, 2128, Control_c, 1, 7, 85
5, 2129, Control_c, 1, 7, 85
5, 2130, Control_c, 1, 7, 85
5, 2131, Control_c, 1, 7, 86
5, 2132, Control_c, 1, 7, 86
5, 2133, Control_c, 1, 7, 86
5, 2134, Control_c, 1, 7, 86
5, 2135, Control_c, 1, 7, 86
5, 2136, Control_c, 1, 7, 86
5, 2137, Control_c, 1, 7, 86
5, 2138, Control_c, 1, 7, 86
5, 2139, Control_c, 1, 7, 86
5, 2140, Control_c, 1, 7, 86
5, 2141, Control_c, 1, 7, 86
5, 2142, Control_c, 1, 7, 86
5, 2143, Control_c, 1, 7, 86
5, 2144, Control_c, 1, 7, 86
5, 2145, Control_c, 1, 7, 86
5, 2146, Control_c, 1, 7, 86
5, 2147, Control_c, 1, 7, 86
5, 2148, Control_c, 1, 7, 86
5, 2149, Control_c, 1, 7, 86
5, 2150, Control_c, 1, 7, 86
5, 2151, Control_c, 1, 7, 86
5, 2152, Control_c, 1, 7, 86
5, 2153, Control_c, 1, 7, 86
5, 2154, Control_c, 1, 7, 86
5, 2155, Control_c, 1, 7, 86
5, 2156, Control_c, 1, 7, 86
5, 2157, Control_c, 1, 7, 86
5, 2158, Control_c, 1, 7, 86
5, 2159, Control_c, 1, 7, 86
5, 2160, Note_off_c, 1, 55, 64
5, 2160, Note_off_c, 1, 46, 64
5, 2160, Note_off_c, 1, 39, 64
5, 2160, Note_off_c, 1, 51, 64
5, 2160, Note_off_c, 1, 62, 64
5, 2160, Note_on_c, 1, 55, 100
5, 2160, Note_on_c, 1, 62, 100
5, 2160, Note_on_c, 1, 51, 100
5, 2160, Note_on_c, 1, 39, 100
5, 2160, Note_on_c, 1, 46, 100
5, 2160, Control_c, 1, 7, 86
5, 2161, Control_c, 1, 7, 86
5, 2162, Control_c, 1, 7, 86
5, 2163, Control_c, 1, 7, 86
5, 2164, Control_c, 1, 7, 86
5, 2165, Control_c, 1, 7, 86
5, 2166, Control_c, 1, 7, 86
5, 2167, Control_c, 1, 7, 86
5, 2168, Control_c, 1, 7, 86
5, 2169, Control_c, 1, 7, 86
5, 2170, Control_c, 1, 7, 86
5, 2171, Control_c, 1, 7, 87
5, 2172, Control_c, 1, 7, 87
5, 2173, Control_c, 1, 7, 87
5, 2174, Control_c, 1, 7, 87
5, 2175, Control_c, 1, 7, 87
5, 2176, Control_c, 1, 7, 87
5, 2177, Control_c, 1, 7, 87
5, 2178, Control_c, 1, 7, 87
5, 2179, Control_c, 1, 7, 87
5, 2180, Control_c, 1, 7, 87
5, 2181, Control_c, 1, 7, 87
5, 2182, Control_c, 1, 7, 87
5, 2183, Control_c, 1, 7, 87
5, 2184, Control_c, 1, 7, 87
5, 2185, Control_c, 1, 7, 87
5, 2186, Control_c, 1, 7, 87
5, 2187, Control_c, 1, 7, 87
5, 2188, Control_c, 1, 7, 87
5, 2189, Control_c, 1, 7, 87
5, 2190, Control_c, 1, 7, 87
5, 2191, Control_c, 1, 7, 87
5, 2192, Control_c, 1, 7, 87
5, 2193, Control_c, 1, 7, 87
5, 2194, Control_c, 1, 7, 87
5, 2195, Control_c, 1, 7, 87
5, 2196, Control_c, 1, 7, 87
5, 2197, Control_c, 1, 7, 87
5, 2198, Control_c, 1, 7, 87
5, 2199, Control_c, 1, 7, 87
5, 2200, Control_c, 1, 7, 87
5, 2201, Control_c, 1, 7, 87
5, 2202, Control_c, 1, 7, 87
5, 2203, Control_c, 1, 7, 87
5, 2204, Control_c, 1, 7, 87
5, 2205, Control_c, 1, 7, 87
5, 2206, Control_c, 1, 7, 87
5, 2207, Control_c, 1, 7, 87
5, 2208, Note_off_c, 1, 62, 64
5, 2208, Note_off_c, 1, 55, 64
5, 2208, Note_off_c, 1, 46, 64
5, 2208, Note_off_c, 1, 39, 64
5, 2208, Note_off_c, 1, 51, 64
5, 2208, Note_on_c, 1, 55, 100
5, 2208, Note_on_c, 1, 62, 100
5, 2208, Note_on_c, 1, 51, 100
5, 2208, Note_on_c, 1, 39, 100
5, 2208, Note_on_c, 1, 46, 100
5, 2208, Control_c, 1, 7, 87
5, 2209, Control_c, 1, 7, 87
5, 2210, Control_c, 1, 7, 87
5, 2211, Control_c, 1, 7, 88
5, 2212, Control_c, 1, 7, 88
5, 2213, Control_c, 1, 7, 88
5, 2214, Control_c, 1, 7, 88
5, 2215, Control_c, 1, 7, 88
5, 2216, Control_c, 1, 7, 88
5, 2217, Control_c, 1, 7, 88
5, 2218, Control_c, 1, 7, 88
5, 2219, Control_c, 1, 7, 88
5, 2220, Control_c, 1, 7, 88
5, 2221, Control_c, 1, 7, 88
5, 2222, Control_c, 1, 7, 88
5, 2223, Control_c, 1, 7, 88
5, 2224, Control_c, 1, 7, 88
5, 2225, Control_c, 1, 7, 88
5, 2226, Control_c, 1, 7, 88
5, 2227, Control_c, 1, 7, 88
5, 2228, Control_c, 1, 7, 88
5, 2229, Control_c, 1, 7, 88
5, 2230, Control_c, 1, 7, 88
5, 2231, Control_c, 1, 7, 88
5, 2232, Control_c, 1, 7, 88
5, 2233, Control_c, 1, 7, 88
5, 2234, Control_c, 1, 7, 88
5, 2235, Control_c, 1, 7, 88
5, 2236, Control_c, 1, 7, 88
5, 2237, Control_c, 1, 7, 88
5, 2238, Control_c, 1, 7, 88
5, 2239, Control_c, 1, 7, 88
5, 2240, Control_c, 1, 7, 88
5, 2241, Control_c, 1, 7, 88
5, 2242, Control_c, 1, 7, 88
5, 2243, Control_c, 1, 7, 88
5, 2244, Control_c, 1, 7, 88
5, 2245, Control_c, 1, 7, 88
5, 2246, Control_c, 1, 7, 88
5, 2247, Control_c, 1, 7, 88
5, 2248, Control_c, 1, 7, 88
5, 2249, Control_c, 1, 7, 88
5, 2250, Control_c, 1, 7, 88
5, 2251, Control_c, 1, 7, 88
5, 2252, Control_c, 1, 7, 88
5, 2253, Control_c, 1, 7, 89
5, 2254, Control_c, 1, 7, 89
5, 2255, Control_c, 1, 7, 89
5, 2256, Note_off_c, 1, 55, 64
5, 2256, Note_off_c, 1, 46, 64
5, 2256, Note_off_c, 1, 39, 64
5, 2256, Note_off_c, 1, 51, 64
5, 2256, Note_off_c, 1, 62, 64
5, 2256, Note_on_c, 1, 55, 100
5, 2256, Note_on_c, 1, 62, 100
5, 2256, Note_on_c, 1, 51, 100
5, 2256, Note_on_c, 1, 39, 100
5, 2256, Note_on_c, 1, 46, 100
5, 2256, Control_c, 1, 7, 89
5, 2257, Control_c, 1, 7, 89
5, 2258, Control_c, 1, 7, 89
5, 2259, Control_c, 1, 7, 89
5, 2260, Control_c, 1, 7, 89
5, 2261, Control_c, 1, 7, 89
5, 2262, Control_c, 1, 7, 89
5, 2263, Control_c, 1, 7, 89
5, 2264, Control_c, 1, 7, 89
5, 2265, Control_c, 1, 7, 89
5, 2266, Control_c, 1, 7, 89
5, 2267, Control_c, 1, 7, 89
5, 2268, Control_c, 1, 7, 89
5, 2269, Control_c, 1, 7, 89
5, 2270, Control_c, 1, 7, 89
5, 2271, Control_c, 1, 7, 89
5, 2272, Control_c, 1, 7, 89
5, 2273, Control_c, 1, 7, 89
5, 2274, Control_c, 1, 7, 89
5, 2275, Control_c, 1, 7, 89
5, 2276, Control_c, 1, 7, 89
5, 2277, Control_c, 1, 7, 89
5, 2278, Control_c, 1, 7, 89
5, 2279, Control_c, 1, 7, 89
5, 2280, Control_c, 1, 7, 89
5, 2281, Control_c, 1, 7, 89
5, 2282, Control_c, 1, 7, 89
5, 2283, Control_c, 1, 7, 89
5, 2284, Control_c, 1, 7, 89
5, 2285, Control_c, 1, 7, 89
5, 2286, Control_c, 1, 7, 89
5, 2287, Control_c, 1, 7, 89
5, 2288, Control_c, 1, 7, 89
5, 2289, Control_c, 1, 7, 89
5, 2290, Control_c, 1, 7, 89
5, 2291, Control_c, 1, 7, 89
5, 2292, Control_c, 1, 7, 89
5, 2293, Control_c, 1, 7, 89
5, 2294, Control_c, 1, 7, 89
5, 2295, Control_c, 1, 7, 90
5, 2296, Control_c, 1, 7, 90
5, 2297, Control_c, 1, 7, 90
5, 2298, Control_c, 1, 7, 90
5, 2299, Control_c, 1, 7, 90
5, 2300, Control_c, 1, 7, 90
5, 2301, Control_c, 1, 7, 90
5, 2302, Control_c, 1, 7, 90
5, 2303, Control_c, 1, 7, 90
5, 2304, Note_off_c, 1, 55, 64
5, 2304, Note_off_c, 1, 46, 64
5, 2304, Note_off_c, 1, 39, 64
5, 2304, Note_off_c, 1, 51, 64
5, 2304, Note_off_c, 1, 62, 64
5, 2304, Note_on_c, 1, 57, 100
5, 2304, Note_on_c, 1, 53, 100
5, 2304, Note_on_c, 1, 41, 100
5, 2304, Note_on_c, 1, 48, 100
5, 2304, Control_c, 1, 7, 90
5, 2305, Control_c, 1, 7, 90
5, 2306, Control_c, 1, 7, 90
5, 2307, Control_c, 1, 7, 90
5, 2308, Control_c, 1, 7, 90
5, 2309, Control_c, 1, 7, 90
5, 2310, Control_c, 1, 7, 90
5, 2311, Control_c, 1, 7, 90
5, 2312, Control_c, 1, 7, 90
5, 2313, Control_c, 1, 7, 90
5, 2314, Control_c, 1, 7, 90
5, 2315, Control_c, 1, 7, 90
5, 2316, Control_c, 1, 7, 90
5, 2317, Control_c, 1, 7, 90
5, 2318, Control_c, 1, 7, 90
5, 2319, Control_c, 1, 7, 90
5, 2320, Control_c, 1, 7, 90
5, 2321, Control_c, 1, 7, 90
5, 2322, Control_c, 1, 7, 90
5, 2323, Control_c, 1, 7, 90
5, 2324, Control_c, 1, 7, 90
5, 2325, Control_c, 1, 7, 90
5, 2326, Control_c, 1, 7, 90
5, 2327, Control_c, 1, 7, 90
5, 2328, Control_c, 1, 7, 90
5, 2329, Control_c, 1, 7, 90
5, 2330, Control_c, 1, 7, 90
5, 2331, Control_c, 1, 7, 90
5, 2332, Control_c, 1, 7, 90
5, 2333, Control_c, 1, 7, 90
5, 2334, Control_c, 1, 7, 90
5, 2335, Control_c, 1, 7, 90
5, 2336, Control_c, 1, 7, 90
5, 2337, Control_c, 1, 7, 90
5, 2338, Control_c, 1, 7, 91
5, 2339, Control_c, 1, 7, 91
5, 2340, Control_c, 1, 7, 91
5, 2341, Control_c, 1, 7, 91
5, 2342, Control_c, 1, 7, 91
5, 2343, Control_c, 1, 7, 91
5, 2344, Control_c, 1, 7, 91
5, 2345, Control_c, 1, 7, 91
5, 2346, Control_c, 1, 7, 91
5, 2347, Control_c, 1, 7, 91
5, 2348, Control_c, 1, 7, 91
5, 2349, Control_c, 1, 7, 91
5, 2350, Control_c, 1, 7, 91
5, 2351, Control_c, 1, 7, 91
5, 2352, Control_c, 1, 7, 91
5, 2353, Control_c, 1, 7, 91
5, 2354, Control_c, 1, 7, 91
5, 2355, Control_c, 1, 7, 91
5, 2356, Control_c, 1, 7, 91
5, 2357, Control_c, 1, 7, 91
5, 2358, Control_c, 1, 7, 91
5, 2359, Control_c, 1, 7, 91
5, 2360, Control_c, 1, 7, 91
5, 2361, Control_c, 1, 7, 91
5, 2362, Control_c, 1, 7, 91
5, 2363, Control_c, 1, 7, 91
5, 2364, Control_c, 1, 7, 91
5, 2365, Control_c, 1, 7, 91
5, 2366, Control_c, 1, 7, 91
5, 2367, Control_c, 1, 7, 91
5, 2368, Control_c, 1, 7, 91
5, 2369, Control_c, 1, 7, 91
5, 2370, Control_c, 1, 7, 91
5, 2371, Control_c, 1, 7, 91
5, 2372, Control_c, 1, 7, 91
5, 2373, Control_c, 1, 7, 91
5, 2374, Control_c, 1, 7, 91
5, 2375, Control_c, 1, 7, 91
5, 2376, Control_c, 1, 7, 91
5, 2377, Control_c, 1, 7, 91
5, 2378, Control_c, 1, 7, 91
5, 2379, Control_c, 1, 7, 91
5, 2380, Control_c, 1, 7, 91
5, 2381, Control_c, 1, 7, 91
5, 2382, Control_c, 1, 7, 91
5, 2383, Control_c, 1, 7, 92
5, 2384, Control_c, 1, 7, 92
5, 2385, Control_c, 1, 7, 92
5, 2386, Control_c, 1, 7, 92
5, 2387, Control_c, 1, 7, 92
5, 2388, Control_c, 1, 7, 92
5, 2389, Control_c, 1, 7, 92
5, 2390, Control_c, 1, 7, 92
5, 2391, Control_c, 1, 7, 92
5, 2392, Control_c, 1, 7, 92
5, 2393, Control_c, 1, 7, 92
5, 2394, Control_c, 1, 7, 92
5, 2395, Control_c, 1, 7, 92
5, 2396, Control_c, 1, 7, 92
5, 2397, Control_c, 1, 7, 92
5, 2398, Control_c, 1, 7, 92
5, 2399, Control_c, 1, 7, 92
5, 2400, Control_c, 1, 7, 92
5, 2401, Control_c, 1, 7, 92
5, 2402, Control_c, 1, 7, 92
5, 2403, Control_c, 1, 7, 92
5, 2404, Control_c, 1, 7, 92
5, 2405, Control_c, 1, 7, 92
5, 2406, Control_c, 1, 7, 92
5, 2407, Control_c, 1, 7, 92
5, 2408, Control_c, 1, 7, 92
5, 2409, Control_c, 1, 7, 92
5, 2410, Control_c, 1, 7, 92
5, 2411, Control_c, 1, 7, 92
5, 2412, Control_c, 1, 7, 92
5, 2413, Control_c, 1, 7, 92
5, 2414, Control_c, 1, 7, 92
5, 2415, Control_c, 1, 7, 92
5, 2416, Control_c, 1, 7, 92
5, 2417, Control_c, 1, 7, 92
5, 2418, Control_c, 1, 7, 92
5, 2419, Control_c, 1, 7, 92
5, 2420, Control_c, 1, 7, 92
5, 2421, Control_c, 1, 7, 92
5, 2422, Control_c, 1, 7, 92
5, 2423, Control_c, 1, 7, 92
5, 2424, Control_c, 1, 7, 92
5, 2425, Control_c, 1, 7, 92
5, 2426, Control_c, 1, 7, 92
5, 2427, Control_c, 1, 7, 92
5, 2428, Control_c, 1, 7, 92
5, 2429, Control_c, 1, 7, 93
5, 2430, Control_c, 1, 7, 93
5, 2431, Control_c, 1, 7, 93
5, 2432, Control_c, 1, 7, 93
5, 2433, Control_c, 1, 7, 93
5, 2434, Control_c, 1, 7, 93
5, 2435, Control_c, 1, 7, 93
5, 2436, Control_c, 1, 7, 93
5, 2437, Control_c, 1, 7, 93
5, 2438, Control_c, 1, 7, 93
5, 2439, Control_c, 1, 7, 93
5, 2440, Control_c, 1, 7, 93
5, 2441, Control_c, 1, 7, 93
5, 2442, Control_c, 1, 7, 93
5, 2443, Control_c, 1, 7, 93
5, 2444, Control_c, 1, 7, 93
5, 2445, Control_c, 1, 7, 93
5, 2446, Control_c, 1, 7, 93
5, 2447, Control_c, 1, 7, 93
5, 2448, Note_off_c, 1, 48, 64
5, 2448, Note_off_c, 1, 41, 64
5, 2448, Note_off_c, 1, 53, 64
5, 2448, Note_off_c, 1, 57, 64
5, 2448, Note_on_c, 1, 58, 100
5, 2448, Note_on_c, 1, 55, 100
5, 2448, Note_on_c, 1, 43, 100
5, 2448, Note_on_c, 1, 50, 100
5, 2448, Control_c, 1, 7, 93
5, 2449, Control_c, 1, 7, 93
5, 2450, Control_c, 1, 7, 93
5, 2451, Control_c, 1, 7, 93
5, 2452, Control_c, 1, 7, 93
5, 2453, Control_c, 1, 7, 93
5, 2454, Control_c, 1, 7, 93
5, 2455, Control_c, 1, 7, 93
5, 2456, Control_c, 1, 7, 93
5, 2457, Control_c, 1, 7, 93
5, 2458, Control_c, 1, 7, 93
5, 2459, Control_c, 1, 7, 93
5, 2460, Control_c, 1, 7, 93
5, 2461, Control_c, 1, 7, 93
5, 2462, Control_c, 1, 7, 93
5, 2463, Control_c, 1, 7, 93
5, 2464, Control_c, 1, 7, 93
5, 2465, Control_c, 1, 7, 93
5, 2466, Control_c, 1, 7, 93
5, 2467, Control_c, 1, 7, 93
5, 2468, Control_c, 1, 7, 93
5, 2469, Control_c, 1, 7, 93
5, 2470, Control_c, 1, 7, 93
5, 2471, Control_c, 1, 7, 93
5, 2472, Control_c, 1, 7, 93
5, 2473, Control_c, 1, 7, 93
5, 2474, Control_c, 1, 7, 93
5, 2475, Control_c, 1, 7, 93
5, 2476, Control_c, 1, 7, 94
5, 2477, Control_c, 1, 7, 94
5, 2478, Control_c, 1, 7, 94
5, 2479, Control_c, 1, 7, 94
5, 2480, Control_c, 1, 7, 94
5, 2481, Control_c, 1, 7, 94
5, 2482, Control_c, 1, 7, 94
5, 2483, Control_c, 1, 7, 94
5, 2484, Control_c, 1, 7, 94
5, 2485, Control_c, 1, 7, 94
5, 2486, Control_c, 1, 7, 94
5, 2487, Control_c, 1, 7, 94
5, 2488, Control_c, 1, 7, 94
5, 2489, Control_c, 1, 7, 94
5, 2490, Control_c, 1, 7, 94
5, 2491, Control_c, 1, 7, 94
5, 2492, Control_c, 1, 7, 94
5, 2493, Control_c, 1, 7, 94
5, 2494, Control_c, 1, 7, 94
5, 2495, Control_c, 1, 7, 94
5, 2496, Control_c, 1, 7, 94
5, 2497, Control_c, 1, 7, 94
5, 2498, Control_c, 1, 7, 94
5, 2499, Control_c, 1, 7, 94
5, 2500, Control_c, 1, 7, 94
5, 2501, Control_c, 1, 7, 94
5, 2502, Control_c, 1, 7, 94
5, 2503, Control_c, 1, 7, 94
5, 2504, Control_c, 1, 7, 94
5, 2505, Control_c, 1, 7, 94
5, 2506, Control_c, 1, 7, 94
5, 2507, Control_c, 1, 7, 94
5, 2508, Control_c, 1, 7, 94
5, 2509, Control_c, 1, 7, 94
5, 2510, Control_c, 1, 7, 94
5, 2511, Control_c, 1, 7, 94
5, 2512, Control_c, 1, 7, 94
5, 2513, Control_c, 1, 7, 94
5, 2514, Control_c, 1, 7, 94
5, 2515, Control_c, 1, 7, 94
5, 2516, Control_c, 1, 7, 94
5, 2517, Control_c, 1, 7, 94
5, 2518, Control_c, 1, 7, 94
5, 2519, Control_c, 1, 7, 94
5, 2520, Control_c, 1, 7, 94
5, 2521, Control_c, 1, 7, 94
5, 2522, Control_c, 1, 7, 94
5, 2523, Control_c, 1, 7, 94
5, 2524, Control_c, 1, 7, 94
5, 2525, Control_c, 1, 7, 95
5, 2526, Control_c, 1, 7, 95
5, 2527, Control_c, 1, 7, 95
5, 2528, Control_c, 1, 7, 95
5, 2529, Control_c, 1, 7, 95
5, 2530, Control_c, 1, 7, 95
5, 2531, Control_c, 1, 7, 95
5, 2532, Control_c, 1, 7, 95
5, 2533, Control_c, 1, 7, 95
5, 2534, Control_c, 1, 7, 95
5, 2535, Control_c, 1, 7, 95
5, 2536, Control_c, 1, 7, 95
5, 2537, Control_c, 1, 7, 95
5, 2538, Control_c, 1, 7, 95
5, 2539, Control_c, 1, 7, 95
5, 2540, Control_c, 1, 7, 95
5, 2541, Control_c, 1, 7, 95
5, 2542, Control_c, 1, 7, 95
5, 2543, Control_c, 1, 7, 95
5, 2544, Control_c, 1, 7, 95
5, 2545, Control_c, 1, 7, 95
5, 2546, Control_c, 1, 7, 95
5, 2547, Control_c, 1, 7, 95
5, 2548, Control_c, 1, 7, 95
5, 2549, Control_c, 1, 7, 95
5, 2550, Control_c, 1, 7, 95
5, 2551, Control_c, 1, 7, 95
5, 2552, Control_c, 1, 7, 95
5, 2553, Control_c, 1, 7, 95
5, 2554, Control_c, 1, 7, 95
5, 2555, Control_c, 1, 7, 95
5, 2556, Control_c, 1, 7, 95
5, 2557, Control_c, 1, 7, 95
5, 2558, Control_c, 1, 7, 95
5, 2559, Control_c, 1, 7, 95
5, 2560, Control_c, 1, 7, 95
5, 2561, Control_c, 1, 7, 95
5, 2562, Control_c, 1, 7, 95
5, 2563, Control_c, 1, 7, 95
5, 2564, Control_c, 1, 7, 95
5, 2565, Control_c, 1, 7, 95
5, 2566, Control_c, 1, 7, 95
5, 2567, Control_c, 1, 7, 95
5, 2568, Control_c, 1, 7, 95
5, 2569, Control_c, 1, 7, 95
5, 2570, Control_c, 1, 7, 95
5, 2571, Control_c, 1, 7, 95
5, 2572, Control_c, 1, 7, 95
5, 2573, Control_c, 1, 7, 95
5, 2574, Control_c, 1, 7, 95
5, 2575, Control_c, 1, 7, 95
5, 2576, Control_c, 1, 7, 95
5, 2577, Control_c, 1, 7, 96
5, 2578, Control_c, 1, 7, 96
5, 2579, Control_c, 1, 7, 96
5, 2580, Control_c, 1, 7, 96
5, 2581, Control_c, 1, 7, 96
5, 2582, Control_c, 1, 7, 96
5, 2583, Control_c, 1, 7, 96
5, 2584, Control_c, 1, 7, 96
5, 2585, Control_c, 1, 7, 96
5, 2586, Control_c, 1, 7, 96
5, 2587, Control_c, 1, 7, 96
5, 2588, Control_c, 1, 7, 96
5, 2589, Control_c, 1, 7, 96
5, 2590, Control_c, 1, 7, 96
5, 2591, Control_c, 1, 7, 96
5, 2592, Note_off_c, 1, 50, 64
5, 2592, Note_off_c, 1, 43, 64
5, 2592, Note_off_c, 1, 55, 64
5, 2592, Note_off_c, 1, 58, 64
5, 2592, Note_on_c, 1, 55, 100
5, 2592, Note_on_c, 1, 51, 100
5, 2592, Note_on_c, 1, 39, 100
5, 2592, Note_on_c, 1, 62, 100
5, 2592, Note_on_c, 1, 46, 100
5, 2592, Control_c, 1, 7, 96
5, 2593, Control_c, 1, 7, 96
5, 2594, Control_c, 1, 7, 96
5, 2595, Control_c, 1, 7, 96
5, 2596, Control_c, 1, 7, 96
5, 2597, Control_c, 1, 7, 96
5, 2598, Control_c, 1, 7, 96
5, 2599, Control_c, 1, 7, 96
5, 2600, Control_c, 1, 7, 96
5, 2601, Control_c, 1, 7, 96
5, 2602, Control_c, 1, 7, 96
5, 2603, Control_c, 1, 7, 96
5, 2604, Control_c, 1, 7, 96
5, 2605, Control_c, 1, 7, 96
5, 2606, Control_c, 1, 7, 96
5, 2607, Control_c, 1, 7, 96
5, 2608, Control_c, 1, 7, 96
5, 2609, Control_c, 1, 7, 96
5, 2610, Control_c, 1, 7, 96
5, 2611, Control_c, 1, 7, 96
5, 2612, Control_c, 1, 7, 96
5, 2613, Control_c, 1, 7, 96
5, 2614, Control_c, 1, 7, 96
5, 2615, Control_c, 1, 7, 96
5, 2616, Control_c, 1, 7, 96
5, 2617, Control_c, 1, 7, 96
5, 2618, Control_c, 1, 7, 96
5, 2619, Control_c, 1, 7, 96
5, 2620, Control_c, 1, 7, 96
5, 2621, Control_c, 1, 7, 96
5, 2622, Control_c, 1, 7, 96
5, 2623, Control_c, 1, 7, 96
5, 2624, Control_c, 1, 7, 96
5, 2625, Control_c, 1, 7, 96
5, 2626, Control_c, 1, 7, 96
5, 2627, Control_c, 1, 7, 96
5, 2628, Control_c, 1, 7, 96
5, 2629, Control_c, 1, 7, 96
5, 2630, Control_c, 1, 7, 96
5, 2631, Control_c, 1, 7, 97
5, 2632, Control_c, 1, 7, 97
5, 2633, Control_c, 1, 7, 97
5, 2634, Control_c, 1, 7, 97
5, 2635, Control_c, 1, 7, 97
5, 2636, Control_c, 1, 7, 97
5, 2637, Control_c, 1, 7, 97
5, 2638, Control_c, 1, 7, 97
5, 2639, Control_c, 1, 7, 97
5, 2640, Control_c, 1, 7, 97
5, 2641, Control_c, 1, 7, 97
5, 2642, Control_c, 1, 7, 97
5, 2643, Control_c, 1, 7, 97
5, 2644, Control_c, 1, 7, 97
5, 2645, Control_c, 1, 7, 97
5, 2646, Control_c, 1, 7, 97
5, 2647, Control_c, 1, 7, 97
5, 2648, Control_c, 1, 7, 97
5, 2649, Control_c, 1, 7, 97
5, 2650, Control_c, 1, 7, 97
5, 2651, Control_c, 1, 7, 97
5, 2652, Control_c, 1, 7, 97
5, 2653, Control_c, 1, 7, 97
5, 2654, Control_c, 1, 7, 97
5, 2655, Control_c, 1, 7, 97
5, 2656, Control_c, 1, 7, 97
5, 2657, Control_c, 1, 7, 97
5, 2658, Control_c, 1, 7, 97
5, 2659, Control_c, 1, 7, 97
5, 2660, Control_c, 1, 7, 97
5, 2661, Control_c, 1, 7, 97
5, 2662, Control_c, 1, 7, 97
5, 2663, Control_c, 1, 7, 97
5, 2664, Control_c, 1, 7, 97
5, 2665, Control_c, 1, 7, 97
5, 2666, Control_c, 1, 7, 97
5, 2667, Control_c, 1, 7, 97
5, 2668, Control_c, 1, 7, 97
5, 2669, Control_c, 1, 7, 97
5, 2670, Control_c, 1, 7, 97
5, 2671, Control_c, 1, 7, 97
5, 2672, Control_c, 1, 7, 97
5, 2673, Control_c, 1, 7, 97
5, 2674, Control_c, 1, 7, 97
5, 2675, Control_c, 1, 7, 97
5, 2676, Control_c, 1, 7, 97
5, 2677, Control_c, 1, 7, 97
5, 2678, Control_c, 1, 7, 97
5, 2679, Control_c, 1, 7, 97
5, 2680, Control_c, 1, 7, 97
5, 2681, Control_c, 1, 7, 97
5, 2682, Control_c, 1, 7, 97
5, 2683, Control_c, 1, 7, 97
5, 2684, Control_c, 1, 7, 97
5, 2685, Control_c, 1, 7, 97
5, 2686, Control_c, 1, 7, 97
5, 2687, Control_c, 1, 7, 97
5, 2688, Control_c, 1, 7, 98
5, 2689, Control_c, 1, 7, 98
5, 2690, Control_c, 1, 7, 98
5, 2691, Control_c, 1, 7, 98
5, 2692, Control_c, 1, 7, 98
5, 2693, Control_c, 1, 7, 98
5, 2694, Control_c, 1, 7, 98
5, 2695, Control_c, 1, 7, 98
5, 2696, Control_c, 1, 7, 98
5, 2697, Control_c, 1, 7, 98
5, 2698, Control_c, 1, 7, 98
5, 2699, Control_c, 1, 7, 98
5, 2700, Control_c, 1, 7, 98
5, 2701, Control_c, 1, 7, 98
5, 2702, Control_c, 1, 7, 98
5, 2703, Control_c, 1, 7, 98
5, 2704, Control_c, 1, 7, 98
5, 2705, Control_c, 1, 7, 98
5, 2706, Control_c, 1, 7, 98
5, 2707, Control_c, 1, 7, 98
5, 2708, Control_c, 1, 7, 98
5, 2709, Control_c, 1, 7, 98
5, 2710, Control_c, 1, 7, 98
5, 2711, Control_c, 1, 7, 98
5, 2712, Control_c, 1, 7, 98
5, 2713, Control_c, 1, 7, 98
5, 2714, Control_c, 1, 7, 98
5, 2715, Control_c, 1, 7, 98
5, 2716, Control_c, 1, 7, 98
5, 2717, Control_c, 1, 7, 98
5, 2718, Control_c, 1, 7, 98
5, 2719, Control_c, 1, 7, 98
5, 2720, Control_c, 1, 7, 98
5, 2721, Control_c, 1, 7, 98
5, 2722, Control_c, 1, 7, 98
5, 2723, Control_c, 1, 7, 98
5, 2724, Control_c, 1, 7, 98
5, 2725, Control_c, 1, 7, 98
5, 2726, Control_c, 1, 7, 98
5, 2727, Control_c, 1, 7, 98
5, 2728, Control_c, 1, 7, 98
5, 2729, Control_c, 1, 7, 98
5, 2730, Control_c, 1, 7, 98
5, 2731, Control_c, 1, 7, 98
5, 2732, Control_c, 1, 7, 98
5, 2733, Control_c, 1, 7, 98
5, 2734, Control_c, 1, 7, 98
5, 2735, Control_c, 1, 7, 98
5, 2736, Note_off_c, 1, 55, 64
5, 2736, Note_off_c, 1, 46, 64
5, 2736, Note_off_c, 1, 62, 64
5, 2736, Note_off_c, 1, 39, 64
5, 2736, Note_off_c, 1, 51, 64
5, 2736, Note_on_c, 1, 55, 100
5, 2736, Note_on_c, 1, 62, 100
5, 2736, Note_on_c, 1, 51, 100
5, 2736, Note_on_c, 1, 39, 100
5, 2736, Note_on_c, 1, 46, 100
5, 2736, Control_c, 1, 7, 98
5, 2737, Control_c, 1, 7, 98
5, 2738, Control_c, 1, 7, 98
5, 2739, Control_c, 1, 7, 98
5, 2740, Control_c, 1, 7, 98
5, 2741, Control_c, 1, 7, 98
5, 2742, Control_c, 1, 7, 98
5, 2743, Control_c, 1, 7, 98
5, 2744, Control_c, 1, 7, 98
5, 2745, Control_c, 1, 7, 98
5, 2746, Control_c, 1, 7, 98
5, 2747, Control_c, 1, 7, 98
5, 2748, Control_c, 1, 7, 98
5, 2749, Control_c, 1, 7, 99
5, 2750, Control_c, 1, 7, 99
5, 2751, Control_c, 1, 7, 99
5, 2752, Control_c, 1, 7, 99
5, 2753, Control_c, 1, 7, 99
5, 2754, Control_c, 1, 7, 99
5, 2755, Control_c, 1, 7, 99
5, 2756, Control_c, 1, 7, 99
5, 2757, Control_c, 1, 7, 99
5, 2758, Control_c, 1, 7, 99
5, 2759, Control_c, 1, 7, 99
5, 2760, Control_c, 1, 7, 99
5, 2761, Control_c, 1, 7, 99
5, 2762, Control_c, 1, 7, 99
5, 2763, Control_c, 1, 7, 99
5, 2764, Control_c, 1, 7, 99
5, 2765, Control_c, 1, 7, 99
5, 2766, Control_c, 1, 7, 99
5, 2767, Control_c, 1, 7, 99
5, 2768, Control_c, 1, 7, 99
5, 2769, Control_c, 1, 7, 99
5, 2770, Control_c, 1, 7, 99
5, 2771, Control_c, 1, 7, 99
5, 2772, Control_c, 1, 7, 99
5, 2773, Control_c, 1, 7, 99
5, 2774, Control_c, 1, 7, 99
5, 2775, Control_c, 1, 7, 99
5, 2776, Control_c, 1, 7, 99
5, 2777, Control_c, 1, 7, 99
5, 2778, Control_c, 1, 7, 99
5, 2779, Control_c, 1, 7, 99
5, 2780, Control_c, 1, 7, 99
5, 2781, Control_c, 1, 7, 99
5, 2782, Control_c, 1, 7, 99
5, 2783, Control_c, 1, 7, 99
5, 2784, Note_off_c, 1, 46, 64
5, 2784, Note_off_c, 1, 39, 64
5, 2784, Note_off_c, 1, 51, 64
5, 2784, Note_off_c, 1, 62, 64
5, 2784, Note_off_c, 1, 55, 64
5, 2784, Note_on_c, 1, 55, 100
5, 2784, Note_on_c, 1, 62, 100
5, 2784, Note_on_c, 1, 51, 100
5, 2784, Note_on_c, 1, 39, 100
5, 2784, Note_on_c, 1, 46, 100
5, 2784, Control_c, 1, 7, 99
5, 2785, Control_c, 1, 7, 99
5, 2786, Control_c, 1, 7, 99
5, 2787, Control_c, 1, 7, 99
5, 2788, Control_c, 1, 7, 99
5, 2789, Control_c, 1, 7, 99
5, 2790, Control_c, 1, 7, 99
5, 2791, Control_c, 1, 7, 99
5, 2792, Control_c, 1, 7, 99
5, 2793, Control_c, 1, 7, 99
5, 2794, Control_c, 1, 7, 99
5, 2795, Control_c, 1, 7, 99
5, 2796, Control_c, 1, 7, 99
5, 2797, Control_c, 1, 7, 99
5, 2798, Control_c, 1, 7, 99
5, 2799, Control_c, 1, 7, 99
5, 2800, Control_c, 1, 7, 99
5, 2801, Control_c, 1, 7, 99
5, 2802, Control_c, 1, 7, 99
5, 2803, Control_c, 1, 7, 99
5, 2804, Control_c, 1, 7, 99
5, 2805, Control_c, 1, 7, 99
5, 2806, Control_c, 1, 7, 99
5, 2807, Control_c, 1, 7, 99
5, 2808, Control_c, 1, 7, 99
5, 2809, Control_c, 1, 7, 99
5, 2810, Control_c, 1, 7, 99
5, 2811, Control_c, 1, 7, 99
5, 2812, Control_c, 1, 7, 99
5, 2813, Control_c, 1, 7, 99
5, 2814, Control_c, 1, 7, 99
5, 2815, Control_c, 1, 7, 99
5, 2816, Control_c, 1, 7, 100
5, 2817, Control_c, 1, 7, 100
5, 2818, Control_c, 1, 7, 100
5, 2819, Control_c, 1, 7, 100
5, 2820, Control_c, 1, 7, 100
5, 2821, Control_c, 1, 7, 100
5, 2822, Control_c, 1, 7, 100
5, 2823, Control_c, 1, 7, 100
5, 2824, Control_c, 1, 7, 100
5, 2825, Control_c, 1, 7, 100
5, 2826, Control_c, 1, 7, 100
5, 2827, Control_c, 1, 7, 100
5, 2828, Control_c, 1, 7, 100
5, 2829, Control_c, 1, 7, 100
5, 2830, Control_c, 1, 7, 100
5, 2831, Control_c, 1, 7, 100
5, 2832, Note_off_c, 1, 46, 64
5, 2832, Note_off_c, 1, 39, 64
5, 2832, Note_off_c, 1, 51, 64
5, 2832, Note_off_c, 1, 62, 64
5, 2832, Note_off_c, 1, 55, 64
5, 2832, Note_on_c, 1, 55, 100
5, 2832, Note_on_c, 1, 62, 100
5, 2832, Note_on_c, 1, 51, 100
5, 2832, Note_on_c, 1, 39, 100
5, 2832, Note_on_c, 1, 46, 100
5, 2832, Control_c, 1, 7, 100
5, 2833, Control_c, 1, 7, 100
5, 2834, Control_c, 1, 7, 100
5, 2835, Control_c, 1, 7, 100
5, 2836, Control_c, 1, 7, 100
5, 2837, Control_c, 1, 7, 100
5, 2838, Control_c, 1, 7, 100
5, 2839, Control_c, 1, 7, 100
5, 2840, Control_c, 1, 7, 100
5, 2841, Control_c, 1, 7, 100
5, 2842, Control_c, 1, 7, 100
5, 2843, Control_c, 1, 7, 100
5, 2844, Control_c, 1, 7, 100
5, 2845, Control_c, 1, 7, 100
5, 2846, Control_c, 1, 7, 100
5, 2847, Control_c, 1, 7, 100
5, 2848, Control_c, 1, 7, 100
5, 2849, Control_c, 1, 7, 100
5, 2850, Control_c, 1, 7, 100
5, 2851, Control_c, 1, 7, 100
5, 2852, Control_c, 1, 7, 100
5, 2853, Control_c, 1, 7, 100
5, 2854, Control_c, 1, 7, 100
5, 2855, Control_c, 1, 7, 100
5, 2856, Control_c, 1, 7, 100
5, 2857, Control_c, 1, 7, 100
5, 2858, Control_c, 1, 7, 100
5, 2859, Control_c, 1, 7, 100
5, 2860, Control_c, 1, 7, 100
5, 2861, Control_c, 1, 7, 100
5, 2862, Control_c, 1, 7, 100
5, 2863, Control_c, 1, 7, 100
5, 2864, Control_c, 1, 7, 100
5, 2865, Control_c, 1, 7, 100
5, 2866, Control_c, 1, 7, 100
5, 2867, Control_c, 1, 7, 100
5, 2868, Control_c, 1, 7, 100
5, 2869, Control_c, 1, 7, 100
5, 2870, Control_c, 1, 7, 100
5, 2871, Control_c, 1, 7, 100
5, 2872, Control_c, 1, 7, 100
5, 2873, Control_c, 1, 7, 100
5, 2874, Control_c, 1, 7, 100
5, 2875, Control_c, 1, 7, 100
5, 2876, Control_c, 1, 7, 100
5, 2877, Control_c, 1, 7, 100
5, 2878, Control_c, 1, 7, 100
5, 2879, Control_c, 1, 7, 100
5, 2880, Note_off_c, 1, 55, 64
5, 2880, Note_off_c, 1, 46, 64
5, 2880, Note_off_c, 1, 39, 64
5, 2880, Note_off_c, 1, 51, 64
5, 2880, Note_off_c, 1, 62, 64
5, 2880, Note_on_c, 1, 55, 100
5, 2880, Note_on_c, 1, 62, 100
5, 2880, Note_on_c, 1, 51, 100
5, 2880, Note_on_c, 1, 39, 100
5, 2880, Note_on_c, 1, 46, 100
5, 2880, Control_c, 1, 7, 100
5, 2881, Control_c, 1, 7, 100
5, 2882, Control_c, 1, 7, 100
5, 2883, Control_c, 1, 7, 100
5, 2884, Control_c, 1, 7, 100
5, 2885, Control_c, 1, 7, 100
5, 2886, Control_c, 1, 7, 100
5, 2887, Control_c, 1, 7, 100
5, 2888, Control_c, 1, 7, 100
5, 2889, Control_c, 1, 7, 100
5, 2890, Control_c, 1, 7, 100
5, 2891, Control_c, 1, 7, 101
5, 2892, Control_c, 1, 7, 101
5, 2893, Control_c, 1, 7, 101
5, 2894, Control_c, 1, 7, 101
5, 2895, Control_c, 1, 7, 101
5, 2896, Control_c, 1, 7, 101
5, 2897, Control_c, 1, 7, 101
5, 2898, Control_c, 1, 7, 101
5, 2899, Control_c, 1, 7, 101
5, 2900, Control_c, 1, 7, 101
5, 2901, Control_c, 1, 7, 101
5, 2902, Control_c, 1, 7, 101
5, 2903, Control_c, 1, 7, 101
5, 2904, Control_c, 1, 7, 101
5, 2905, Control_c, 1, 7, 101
5, 2906, Control_c, 1, 7, 101
5, 2907, Control_c, 1, 7, 101
5, 2908, Control_c, 1, 7, 101
5, 2909, Control_c, 1, 7, 101
5, 2910, Control_c, 1, 7, 101
5, 2911, Control_c, 1, 7, 101
5, 2912, Control_c, 1, 7, 101
5, 2913, Control_c, 1, 7, 101
5, 2914, Control_c, 1, 7, 101
5, 2915, Control_c, 1, 7, 101
5, 2916, Control_c, 1, 7, 101
5, 2917, Control_c, 1, 7, 101
5, 2918, Control_c, 1, 7, 101
5, 2919, Control_c, 1, 7, 101
5, 2920, Control_c, 1, 7, 101
5, 2921, Control_c, 1, 7, 101
5, 2922, Control_c, 1, 7, 101
5, 2923, Control_c, 1, 7, 101
5, 2924, Control_c, 1, 7, 101
5, 2925, Control_c, 1, 7, 101
5, 2926, Control_c, 1, 7, 101
5, 2927, Control_c, 1, 7, 101
5, 2928, Note_off_c, 1, 46, 64
5, 2928, Note_off_c, 1, 39, 64
5, 2928, Note_off_c, 1, 51, 64
5, 2928, Note_off_c, 1, 62, 64
5, 2928, Note_off_c, 1, 55, 64
5, 2928, Note_on_c, 1, 55, 100
5, 2928, Note_on_c, 1, 62, 100
5, 2928, Note_on_c, 1, 51, 100
5, 2928, Note_on_c, 1, 39, 100
5, 2928, Note_on_c, 1, 46, 100
5, 2928, Control_c, 1, 7, 101
5, 2929, Control_c, 1, 7, 101
5, 2930, Control_c, 1, 7, 101
5, 2931, Control_c, 1, 7, 101
5, 2932, Control_c, 1, 7, 101
5, 2933, Control_c, 1, 7, 101
5, 2934, Control_c, 1, 7, 101
5, 2935, Control_c, 1, 7, 101
5, 2936, Control_c, 1, 7, 101
5, 2937, Control_c, 1, 7, 101
5, 2938, Control_c, 1, 7, 101
5, 2939, Control_c, 1, 7, 101
5, 2940, Control_c, 1, 7, 101
5, 2941, Control_c, 1, 7, 101
5, 2942, Control_c, 1, 7, 101
5, 2943, Control_c, 1, 7, 101
5, 2944, Control_c, 1, 7, 101
5, 2945, Control_c, 1, 7, 101
5, 2946, Control_c, 1, 7, 101
5, 2947, Control_c, 1, 7, 101
5, 2948, Control_c, 1, 7, 101
5, 2949, Control_c, 1, 7, 101
5, 2950, Control_c, 1, 7, 101
5, 2951, Control_c, 1, 7, 101
5, 2952, Control_c, 1, 7, 101
5, 2953, Control_c, 1, 7, 101
5, 2954, Control_c, 1, 7, 101
5, 2955, Control_c, 1, 7, 101
5, 2956, Control_c, 1, 7, 101
5, 2957, Control_c, 1, 7, 101
5, 2958, Control_c, 1, 7, 101
5, 2959, Control_c, 1, 7, 101
5, 2960, Control_c, 1, 7, 101
5, 2961, Control_c, 1, 7, 101
5, 2962, Control_c, 1, 7, 101
5, 2963, Control_c, 1, 7, 101
5, 2964, Control_c, 1, 7, 101
5, 2965, Control_c, 1, 7, 101
5, 2966, Control_c, 1, 7, 101
5, 2967, Control_c, 1, 7, 101
5, 2968, Control_c, 1, 7, 101
5, 2969, Control_c, 1, 7, 101
5, 2970, Control_c, 1, 7, 101
5, 2971, Control_c, 1, 7, 101
5, 2972, Control_c, 1, 7, 101
5, 2973, Control_c, 1, 7, 101
5, 2974, Control_c, 1, 7, 101
5, 2975, Control_c, 1, 7, 101
5, 2976, Note_off_c, 1, 55, 64
5, 2976, Note_off_c, 1, 46, 64
5, 2976, Note_off_c, 1, 39, 64
5, 2976, Note_off_c, 1, 51, 64
5, 2976, Note_off_c, 1, 62, 64
5, 2976, Note_on_c, 1, 55, 100
5, 2976, Note_on_c, 1, 62, 100
5, 2976, Note_on_c, 1, 51, 100
5, 2976, Note_on_c, 1, 39, 100
5, 2976, Note_on_c, 1, 46, 100
5, 2976, Control_c, 1, 7, 101
5, 2977, Control_c, 1, 7, 101
5, 2978, Control_c, 1, 7, 102
5, 2979, Control_c, 1, 7, 102
5, 2980, Control_c, 1, 7, 102
5, 2981, Control_c, 1, 7, 102
5, 2982, Control_c, 1, 7, 102
5, 2983, Control_c, 1, 7, 102
5, 2984, Control_c, 1, 7, 102
5, 2985, Control_c, 1, 7, 102
5, 2986, Control_c, 1, 7, 102
5, 2987, Control_c, 1, 7, 102
5, 2988, Control_c, 1, 7, 102
5, 2989, Control_c, 1, 7, 102
5, 2990, Control_c, 1, 7, 102
5, 2991, Control_c, 1, 7, 102
5, 2992, Control_c, 1, 7, 102
5, 2993, Control_c, 1, 7, 102
5, 2994, Control_c, 1, 7, 102
5, 2995, Control_c, 1, 7, 102
5, 2996, Control_c, 1, 7, 102
5, 2997, Control_c, 1, 7, 102
5, 2998, Control_c, 1, 7, 102
5, 2999, Control_c, 1, 7, 102
5, 3000, Control_c, 1, 7, 102
5, 3001, Control_c, 1, 7, 102
5, 3002, Control_c, 1, 7, 102
5, 3003, Control_c, 1, 7, 102
5, 3004, Control_c, 1, 7, 102
5, 3005, Control_c, 1, 7, 102
5, 3006, Control_c, 1, 7, 102
5, 3007, Control_c, 1, 7, 102
5, 3008, Control_c, 1, 7, 102
5, 3009, Control_c, 1, 7, 102
5, 3010, Control_c, 1, 7, 102
5, 3011, Control_c, 1, 7, 102
5, 3012, Control_c, 1, 7, 102
5, 3013, Control_c, 1, 7, 102
5, 3014, Control_c, 1, 7, 102
5, 3015, Control_c, 1, 7, 102
5, 3016, Control_c, 1, 7, 102
5, 3017, Control_c, 1, 7, 102
5, 3018, Control_c, 1, 7, 102
5, 3019, Control_c, 1, 7, 102
5, 3020, Control_c, 1, 7, 102
5, 3021, Control_c, 1, 7, 102
5, 3022, Control_c, 1, 7, 102
5, 3023, Control_c, 1, 7, 102
5, 3024, Note_off_c, 1, 46, 64
5, 3024, Note_off_c, 1, 39, 64
5, 3024, Note_off_c, 1, 51, 64
5, 3024, Note_off_c, 1, 62, 64
5, 3024, Note_off_c, 1, 55, 64
5, 3024, Note_on_c, 1, 55, 100
5, 3024, Note_on_c, 1, 62, 100
5, 3024, Note_on_c, 1, 51, 100
5, 3024, Note_on_c, 1, 39, 100
5, 3024, Note_on_c, 1, 46, 100
5, 3024, Control_c, 1, 7, 102
5, 3025, Control_c, 1, 7, 102
5, 3026, Control_c, 1, 7, 102
5, 3027, Control_c, 1, 7, 102
5, 3028, Control_c, 1, 7, 102
5, 3029, Control_c, 1, 7, 102
5, 3030, Control_c, 1, 7, 102
5, 3031, Control_c, 1, 7, 102
5, 3032, Control_c, 1, 7, 102
5, 3033, Control_c, 1, 7, 102
5, 3034, Control_c, 1, 7, 102
5, 3035, Control_c, 1, 7, 102
5, 3036, Control_c, 1, 7, 102
5, 3037, Control_c, 1, 7, 102
5, 3038, Control_c, 1, 7, 102
5, 3039, Control_c, 1, 7, 102
5, 3040, Control_c, 1, 7, 102
5, 3041, Control_c, 1, 7, 102
5, 3042, Control_c, 1, 7, 102
5, 3043, Control_c, 1, 7, 102
5, 3044, Control_c, 1, 7, 102
5, 3045, Control_c, 1, 7, 102
5, 3046, Control_c, 1, 7, 102
5, 3047, Control_c, 1, 7, 102
5, 3048, Control_c, 1, 7, 102
5, 3049, Control_c, 1, 7, 102
5, 3050, Control_c, 1, 7, 102
5, 3051, Control_c, 1, 7, 102
5, 3052, Control_c, 1, 7, 102
5, 3053, Control_c, 1, 7, 102
5, 3054, Control_c, 1, 7, 102
5, 3055, Control_c, 1, 7, 102
5, 3056, Control_c, 1, 7, 102
5, 3057, Control_c, 1, 7, 102
5, 3058, Control_c, 1, 7, 102
5, 3059, Control_c, 1, 7, 102
5, 3060, Control_c, 1, 7, 102
5, 3061, Control_c, 1, 7, 102
5, 3062, Control_c, 1, 7, 102
5, 3063, Control_c, 1, 7, 102
5, 3064, Control_c, 1, 7, 102
5, 3065, Control_c, 1, 7, 102
5, 3066, Control_c, 1, 7, 102
5, 3067, Control_c, 1, 7, 102
5, 3068, Control_c, 1, 7, 102
5, 3069, Control_c, 1, 7, 102
5, 3070, Control_c, 1, 7, 102
5, 3071, Control_c, 1, 7, 102
5, 3072, Note_off_c, 1, 46, 64
5, 3072, Note_off_c, 1, 39, 64
5, 3072, Note_off_c, 1, 51, 64
5, 3072, Note_off_c, 1, 62, 64
5, 3072, Note_off_c, 1, 55, 64
5, 3072, Note_on_c, 1, 57, 100
5, 3072, Note_on_c, 1, 53, 100
5, 3072, Note_on_c, 1, 41, 100
5, 3072, Note_on_c, 1, 48, 100
5, 3138, Control_c, 1, 7, 102
5, 3216, Note_off_c, 1, 57, 64
5, 3216, Note_off_c, 1, 48, 64
5, 3216, Note_off_c, 1, 41, 64
5, 3216, Note_off_c, 1, 53, 64
5, 3216, Note_on_c, 1, 58, 100
5, 3216, Note_on_c, 1, 55, 100
5, 3216, Note_on_c, 1, 43, 100
5, 3216, Note_on_c, 1, 50, 100
5, 3241, Control_c, 1, 7, 102
5, 3344, Control_c, 1, 7, 102
5, 3360, Note_off_c, 1, 55, 64
5, 3360, Note_off_c, 1, 58, 64
5, 3360, Note_off_c, 1, 50, 64
5, 3360, Note_off_c, 1, 43, 64
5, 3360, Note_on_c, 1, 55, 100
5, 3360, Note_on_c, 1, 51, 100
5, 3360, Note_on_c, 1, 39, 100
5, 3360, Note_on_c, 1, 62, 100
5, 3360, Note_on_c, 1, 46, 100
5, 3447, Control_c, 1, 7, 102
5, 3504, Note_off_c, 1, 39, 64
5, 3504, Note_off_c, 1, 51, 64
5, 3504, Note_off_c, 1, 46, 64
5, 3504, Note_off_c, 1, 62, 64
5, 3504, Note_off_c, 1, 55, 64
5, 3504, Note_on_c, 1, 55, 100
5, 3504, Note_on_c, 1, 62, 100
5, 3504, Note_on_c, 1, 51, 100
5, 3504, Note_on_c, 1, 39, 100
5, 3504, Note_on_c, 1, 46, 100
5, 3550, Control_c, 1, 7, 102
5, 3552, Note_off_c, 1, 46, 64
5, 3552, Note_off_c, 1, 39, 64
5, 3552, Note_off_c, 1, 51, 64
5, 3552, Note_off_c, 1, 62, 64
5, 3552, Note_off_c, 1, 55, 64
5, 3552, Note_on_c, 1, 55, 100
5, 3552, Note_on_c, 1, 62, 100
5, 3552, Note_on_c, 1, 51, 100
5, 3552, Note_on_c, 1, 39, 100
5, 3552, Note_on_c, 1, 46, 100
5, 3600, Note_off_c, 1, 62, 64
5, 3600, Note_off_c, 1, 55, 64
5, 3600, Note_off_c, 1, 46, 64
5, 3600, Note_off_c, 1, 39, 64
5, 3600, Note_off_c, 1, 51, 64
5, 3600, Note_on_c, 1, 55, 100
5, 3600, Note_on_c, 1, 62, 100
5, 3600, Note_on_c, 1, 51, 100
5, 3600, Note_on_c, 1, 39, 100
5, 3600, Note_on_c, 1, 46, 100
5, 3648, Note_off_c, 1, 51, 64
5, 3648, Note_off_c, 1, 62, 64
5, 3648, Note_off_c, 1, 55, 64
5, 3648, Note_off_c, 1, 46, 64
5, 3648, Note_off_c, 1, 39, 64
5, 3648, Note_on_c, 1, 55, 100
5, 3648, Note_on_c, 1, 62, 100
5, 3648, Note_on_c, 1, 51, 100
5, 3648, Note_on_c, 1, 39, 100
5, 3648, Note_on_c, 1, 46, 100
5, 3654, Control_c, 1, 7, 102
5, 3696, Note_off_c, 1, 46, 64
5, 3696, Note_off_c, 1, 39, 64
5, 3696, Note_off_c, 1, 51, 64
5, 3696, Note_off_c, 1, 62, 64
5, 3696, Note_off_c, 1, 55, 64
5, 3696, Note_on_c, 1, 55, 100
5, 3696, Note_on_c, 1, 62, 100
5, 3696, Note_on_c, 1, 51, 100
5, 3696, Note_on_c, 1, 39, 100
5, 3696, Note_on_c, 1, 46, 100
5, 3744, Note_off_c, 1, 62, 64
5, 3744, Note_off_c, 1, 55, 64
5, 3744, Note_off_c, 1, 46, 64
5, 3744, Note_off_c, 1, 39, 64
5, 3744, Note_off_c, 1, 51, 64
5, 3744, Note_on_c, 1, 55, 100
5, 3744, Note_on_c, 1, 62, 100
5, 3744, Note_on_c, 1, 51, 100
5, 3744, Note_on_c, 1, 39, 100
5, 3744, Note_on_c, 1, 46, 100
5, 3756, Control_c, 1, 7, 102
5, 3792, Note_off_c, 1, 46, 64
5, 3792, Note_off_c, 1, 39, 64
5, 3792, Note_off_c, 1, 51, 64
5, 3792, Note_off_c, 1, 62, 64
5, 3792, Note_off_c, 1, 55, 64
5, 3792, Note_on_c, 1, 55, 100
5, 3792, Note_on_c, 1, 62, 100
5, 3792, Note_on_c, 1, 51, 100
5, 3792, Note_on_c, 1, 39, 100
5, 3792, Note_on_c, 1, 46, 100
5, 3840, Note_off_c, 1, 62, 64
5, 3840, Note_off_c, 1, 55, 64
5, 3840, Note_off_c, 1, 46, 64
5, 3840, Note_off_c, 1, 39, 64
5, 3840, Note_off_c, 1, 51, 64
5, 3840, Note_on_c, 1, 57, 100
5, 3840, Note_on_c, 1, 53, 100
5, 3840, Note_on_c, 1, 41, 100
5, 3840, Note_on_c, 1, 48, 100
5, 3860, Control_c, 1, 7, 102
5, 3962, Control_c, 1, 7, 102
5, 3984, Note_off_c, 1, 57, 64
5, 3984, Note_off_c, 1, 48, 64
5, 3984, Note_off_c, 1, 41, 64
5, 3984, Note_off_c, 1, 53, 64
5, 3984, Note_on_c, 1, 58, 100
5, 3984, Note_on_c, 1, 55, 100
5, 3984, Note_on_c, 1, 43, 100
5, 3984, Note_on_c, 1, 50, 100
5, 4066, Control_c, 1, 7, 102
5, 4128, Note_off_c, 1, 50, 64
5, 4128, Note_off_c, 1, 58, 64
5, 4128, Note_off_c, 1, 43, 64
5, 4128, Note_off_c, 1, 55, 64
5, 4128, Note_on_c, 1, 55, 100
5, 4128, Note_on_c, 1, 51, 100
5, 4128, Note_on_c, 1, 39, 100
5, 4128, Note_on_c, 1, 62, 100
5, 4128, Note_on_c, 1, 46, 100
5, 4169, Control_c, 1, 7, 102
5, 4272, Note_off_c, 1, 51, 64
5, 4272, Note_off_c, 1, 62, 64
5, 4272, Note_off_c, 1, 39, 64
5, 4272, Note_off_c, 1, 46, 64
5, 4272, Note_off_c, 1, 55, 64
5, 4272, Note_on_c, 1, 55, 100
5, 4272, Note_on_c, 1, 62, 100
5, 4272, Note_on_c, 1, 51, 100
5, 4272, Note_on_c, 1, 39, 100
5, 4272, Note_on_c, 1, 46, 100
5, 4272, Control_c, 1, 7, 102
5, 4320, Note_off_c, 1, 55, 64
5, 4320, Note_off_c, 1, 46, 64
5, 4320, Note_off_c, 1, 39, 64
5, 4320, Note_off_c, 1, 51, 64
5, 4320, Note_off_c, 1, 62, 64
5, 4320, Note_on_c, 1, 55, 100
5, 4320, Note_on_c, 1, 62, 100
5, 4320, Note_on_c, 1, 51, 100
5, 4320, Note_on_c, 1, 39, 100
5, 4320, Note_on_c, 1, 46, 100
5, 4368, Note_off_c, 1, 55, 64
5, 4368, Note_off_c, 1, 46, 64
5, 4368, Note_off_c, 1, 39, 64
5, 4368, Note_off_c, 1, 51, 64
5, 4368, Note_off_c, 1, 62, 64
5, 4368, Note_on_c, 1, 55, 100
5, 4368, Note_on_c, 1, 62, 100
5, 4368, Note_on_c, 1, 51, 100
5, 4368, Note_on_c, 1, 39, 100
5, 4368, Note_on_c, 1, 46, 100
5, 4375, Control_c, 1, 7, 102
5, 4416, Note_off_c, 1, 51, 64
5, 4416, Note_off_c, 1, 62, 64
5, 4416, Note_off_c, 1, 46, 64
5, 4416, Note_off_c, 1, 39, 64
5, 4416, Note_off_c, 1, 55, 64
5, 4416, Note_on_c, 1, 55, 100
5, 4416, Note_on_c, 1, 62, 100
5, 4416, Note_on_c, 1, 51, 100
5, 4416, Note_on_c, 1, 39, 100
5, 4416, Note_on_c, 1, 46, 100
5, 4464, Note_off_c, 1, 55, 64
5, 4464, Note_off_c, 1, 46, 64
5, 4464, Note_off_c, 1, 39, 64
5, 4464, Note_off_c, 1, 51, 64
5, 4464, Note_off_c, 1, 62, 64
5, 4464, Note_on_c, 1, 55, 100
5, 4464, Note_on_c, 1, 62, 100
5, 4464, Note_on_c, 1, 51, 100
5, 4464, Note_on_c, 1, 39, 100
5, 4464, Note_on_c, 1, 46, 100
5, 4478, Control_c, 1, 7, 102
5, 4512, Note_off_c, 1, 62, 64
5, 4512, Note_off_c, 1, 55, 64
5, 4512, Note_off_c, 1, 46, 64
5, 4512, Note_off_c, 1, 39, 64
5, 4512, Note_off_c, 1, 51, 64
5, 4512, Note_on_c, 1, 55, 100
5, 4512, Note_on_c, 1, 62, 100
5, 4512, Note_on_c, 1, 51, 100
5, 4512, Note_on_c, 1, 39, 100
5, 4512, Note_on_c, 1, 46, 100
5, 4560, Note_off_c, 1, 62, 64
5, 4560, Note_off_c, 1, 55, 64
5, 4560, Note_off_c, 1, 46, 64
5, 4560, Note_off_c, 1, 39, 64
5, 4560, Note_off_c, 1, 51, 64
5, 4560, Note_on_c, 1, 55, 100
5, 4560, Note_on_c, 1, 62, 100
5, 4560, Note_on_c, 1, 51, 100
5, 4560, Note_on_c, 1, 39, 100
5, 4560, Note_on_c, 1, 46, 100
5, 4581, Control_c, 1, 7, 102
5, 4608, Note_off_c, 1, 55, 64
5, 4608, Note_off_c, 1, 46, 64
5, 4608, Note_off_c, 1, 39, 64
5, 4608, Note_off_c, 1, 51, 64
5, 4608, Note_off_c, 1, 62, 64
5, 4608, Note_on_c, 1, 57, 100
5, 4608, Note_on_c, 1, 53, 100
5, 4608, Note_on_c, 1, 41, 100
5, 4608, Note_on_c, 1, 48, 100
5, 4685, Control_c, 1, 7, 102
5, 4752, Note_off_c, 1, 53, 64
5, 4752, Note_off_c, 1, 57, 64
5, 4752, Note_off_c, 1, 48, 64
5, 4752, Note_off_c, 1, 41, 64
5, 4752, Note_on_c, 1, 58, 100
5, 4752, Note_on_c, 1, 55, 100
5, 4752, Note_on_c, 1, 43, 100
5, 4752, Note_on_c, 1, 50, 100
5, 4787, Control_c, 1, 7, 102
5, 4891, Control_c, 1, 7, 102
5, 4896, Note_off_c, 1, 58, 64
5, 4896, Note_off_c, 1, 43, 64
5, 4896, Note_off_c, 1, 55, 64
5, 4896, Note_off_c, 1, 50, 64
5, 4896, Note_on_c, 1, 55, 100
5, 4896, Note_on_c, 1, 51, 100
5, 4896, Note_on_c, 1, 39, 100
5, 4896, Note_on_c, 1, 62, 100
5, 4896, Note_on_c, 1, 46, 100
5, 4993, Control_c, 1, 7, 102
5, 5040, Note_off_c, 1, 51, 64
5, 5040, Note_off_c, 1, 62, 64
5, 5040, Note_off_c, 1, 39, 64
5, 5040, Note_off_c, 1, 46, 64
5, 5040, Note_off_c, 1, 55, 64
5, 5040, Note_on_c, 1, 55, 100
5, 5040, Note_on_c, 1, 62, 100
5, 5040, Note_on_c, 1, 51, 100
5, 5040, Note_on_c, 1, 39, 100
5, 5040, Note_on_c, 1, 46, 100
5, 5088, Note_off_c, 1, 55, 64
5, 5088, Note_off_c, 1, 46, 64
5, 5088, Note_off_c, 1, 39, 64
5, 5088, Note_off_c, 1, 51, 64
5, 5088, Note_off_c, 1, 62, 64
5, 5088, Note_on_c, 1, 55, 100
5, 5088, Note_on_c, 1, 62, 100
5, 5088, Note_on_c, 1, 51, 100
5, 5088, Note_on_c, 1, 39, 100
5, 5088, Note_on_c, 1, 46, 100
5, 5097, Control_c, 1, 7, 102
5, 5136, Note_off_c, 1, 51, 64
5, 5136, Note_off_c, 1, 62, 64
5, 5136, Note_off_c, 1, 55, 64
5, 5136, Note_off_c, 1, 46, 64
5, 5136, Note_off_c, 1, 39, 64
5, 5136, Note_on_c, 1, 55, 100
5, 5136, Note_on_c, 1, 62, 100
5, 5136, Note_on_c, 1, 51, 100
5, 5136, Note_on_c, 1, 39, 100
5, 5136, Note_on_c, 1, 46, 100
5, 5184, Note_off_c, 1, 39, 64
5, 5184, Note_off_c, 1, 51, 64
5, 5184, Note_off_c, 1, 62, 64
5, 5184, Note_off_c, 1, 46, 64
5, 5184, Note_off_c, 1, 55, 64
5, 5184, Note_on_c, 1, 55, 100
5, 5184, Note_on_c, 1, 62, 100
5, 5184, Note_on_c, 1, 51, 100
5, 5184, Note_on_c, 1, 39, 100
5, 5184, Note_on_c, 1, 46, 100
5, 5200, Control_c, 1, 7, 102
5, 5232, Note_off_c, 1, 46, 64
5, 5232, Note_off_c, 1, 39, 64
5, 5232, Note_off_c, 1, 51, 64
5, 5232, Note_off_c, 1, 62, 64
5, 5232, Note_off_c, 1, 55, 64
5, 5232, Note_on_c, 1, 55, 100
5, 5232, Note_on_c, 1, 62, 100
5, 5232, Note_on_c, 1, 51, 100
5, 5232, Note_on_c, 1, 39, 100
5, 5232, Note_on_c, 1, 46, 100
5, 5280, Note_off_c, 1, 51, 64
5, 5280, Note_off_c, 1, 62, 64
5, 5280, Note_off_c, 1, 46, 64
5, 5280, Note_off_c, 1, 39, 64
5, 5280, Note_off_c, 1, 55, 64
5, 5280, Note_on_c, 1, 55, 100
5, 5280, Note_on_c, 1, 62, 100
5, 5280, Note_on_c, 1, 51, 100
5, 5280, Note_on_c, 1, 39, 100
5, 5280, Note_on_c, 1, 46, 100
5, 5303, Control_c, 1, 7, 102
5, 5328, Note_off_c, 1, 55, 64
5, 5328, Note_off_c, 1, 46, 64
5, 5328, Note_off_c, 1, 39, 64
5, 5328, Note_off_c, 1, 51, 64
5, 5328, Note_off_c, 1, 62, 64
5, 5328, Note_on_c, 1, 55, 100
5, 5328, Note_on_c, 1, 62, 100
5, 5328, Note_on_c, 1, 51, 100
5, 5328, Note_on_c, 1, 39, 100
5, 5328, Note_on_c, 1, 46, 100
5, 5376, Note_off_c, 1, 51, 64
5, 5376, Note_off_c, 1, 62, 64
5, 5376, Note_off_c, 1, 46, 64
5, 5376, Note_off_c, 1, 39, 64
5, 5376, Note_off_c, 1, 55, 64
5, 5376, Note_on_c, 1, 57, 100
5, 5376, Note_on_c, 1, 53, 100
5, 5376, Note_on_c, 1, 41, 100
5, 5376, Note_on_c, 1, 48, 100
5, 5406, Control_c, 1, 7, 102
5, 5509, Control_c, 1, 7, 102
5, 5520, Note_off_c, 1, 53, 64
5, 5520, Note_off_c, 1, 57, 64
5, 5520, Note_off_c, 1, 48, 64
5, 5520, Note_off_c, 1, 41, 64
5, 5520, Note_on_c, 1, 58, 100
5, 5520, Note_on_c, 1, 55, 100
5, 5520, Note_on_c, 1, 43, 100
5, 5520, Note_on_c, 1, 50, 100
5, 5612, Control_c, 1, 7, 102
5, 5664, Note_off_c, 1, 58, 64
5, 5664, Note_off_c, 1, 43, 64
5, 5664, Note_off_c, 1, 55, 64
5, 5664, Note_off_c, 1, 50, 64
5, 5664, Note_on_c, 1, 55, 100
5, 5664, Note_on_c, 1, 51, 100
5, 5664, Note_on_c, 1, 39, 100
5, 5664, Note_on_c, 1, 62, 100
5, 5664, Note_on_c, 1, 46, 100
5, 5715, Control_c, 1, 7, 102
5, 5808, Note_off_c, 1, 51, 64
5, 5808, Note_off_c, 1, 62, 64
5, 5808, Note_off_c, 1, 39, 64
5, 5808, Note_off_c, 1, 46, 64
5, 5808, Note_off_c, 1, 55, 64
5, 5808, Note_on_c, 1, 55, 100
5, 5808, Note_on_c, 1, 62, 100
5, 5808, Note_on_c, 1, 51, 100
5, 5808, Note_on_c, 1, 39, 100
5, 5808, Note_on_c, 1, 46, 100
5, 5818, Control_c, 1, 7, 102
5, 5856, Note_off_c, 1, 55, 64
5, 5856, Note_off_c, 1, 62, 64
5, 5856, Note_off_c, 1, 46, 64
5, 5856, Note_off_c, 1, 39, 64
5, 5856, Note_off_c, 1, 51, 64
5, 5856, Note_on_c, 1, 55, 100
5, 5856, Note_on_c, 1, 62, 100
5, 5856, Note_on_c, 1, 51, 100
5, 5856, Note_on_c, 1, 39, 100
5, 5856, Note_on_c, 1, 46, 100
5, 5904, Note_off_c, 1, 62, 64
5, 5904, Note_off_c, 1, 55, 64
5, 5904, Note_off_c, 1, 46, 64
5, 5904, Note_off_c, 1, 39, 64
5, 5904, Note_off_c, 1, 51, 64
5, 5904, Note_on_c, 1, 55, 100
5, 5904, Note_on_c, 1, 62, 100
5, 5904, Note_on_c, 1, 51, 100
5, 5904, Note_on_c, 1, 39, 100
5, 5904, Note_on_c, 1, 46, 100
5, 5922, Control_c, 1, 7, 102
5, 5952, Note_off_c, 1, 51, 64
5, 5952, Note_off_c, 1, 62, 64
5, 5952, Note_off_c, 1, 46, 64
5, 5952, Note_off_c, 1, 39, 64
5, 5952, Note_off_c, 1, 55, 64
5, 5952, Note_on_c, 1, 55, 100
5, 5952, Note_on_c, 1, 62, 100
5, 5952, Note_on_c, 1, 51, 100
5, 5952, Note_on_c, 1, 39, 100
5, 5952, Note_on_c, 1, 46, 100
5, 6000, Note_off_c, 1, 55, 64
5, 6000, Note_off_c, 1, 62, 64
5, 6000, Note_off_c, 1, 46, 64
5, 6000, Note_off_c, 1, 39, 64
5, 6000, Note_off_c, 1, 51, 64
5, 6000, Note_on_c, 1, 55, 100
5, 6000, Note_on_c, 1, 62, 100
5, 6000, Note_on_c, 1, 51, 100
5, 6000, Note_on_c, 1, 39, 100
5, 6000, Note_on_c, 1, 46, 100
5, 6024, Control_c, 1, 7, 102
5, 6048, Note_off_c, 1, 62, 64
5, 6048, Note_off_c, 1, 55, 64
5, 6048, Note_off_c, 1, 46, 64
5, 6048, Note_off_c, 1, 39, 64
5, 6048, Note_off_c, 1, 51, 64
5, 6048, Note_on_c, 1, 55, 100
5, 6048, Note_on_c, 1, 62, 100
5, 6048, Note_on_c, 1, 51, 100
5, 6048, Note_on_c, 1, 39, 100
5, 6048, Note_on_c, 1, 46, 100
5, 6096, Note_off_c, 1, 51, 64
5, 6096, Note_off_c, 1, 62, 64
5, 6096, Note_off_c, 1, 46, 64
5, 6096, Note_off_c, 1, 39, 64
5, 6096, Note_off_c, 1, 55, 64
5, 6096, Note_on_c, 1, 55, 100
5, 6096, Note_on_c, 1, 62, 100
5, 6096, Note_on_c, 1, 51, 100
5, 6096, Note_on_c, 1, 39, 100
5, 6096, Note_on_c, 1, 46, 100
5, 6128, Control_c, 1, 7, 102
5, 6144, Note_off_c, 1, 55, 64
5, 6144, Note_off_c, 1, 62, 64
5, 6144, Note_off_c, 1, 46, 64
5, 6144, Note_off_c, 1, 39, 64
5, 6144, Note_off_c, 1, 51, 64
5, 6144, Note_on_c, 1, 57, 100
5, 6144, Note_on_c, 1, 53, 100
5, 6144, Note_on_c, 1, 41, 100
5, 6144, Note_on_c, 1, 48, 100
5, 6231, Control_c, 1, 7, 102
5, 6288, Note_off_c, 1, 57, 64
5, 6288, Note_off_c, 1, 48, 64
5, 6288, Note_off_c, 1, 41, 64
5, 6288, Note_off_c, 1, 53, 64
5, 6288, Note_on_c, 1, 58, 100
5, 6288, Note_on_c, 1, 55, 100
5, 6288, Note_on_c, 1, 43, 100
5, 6288, Note_on_c, 1, 50, 100
5, 6334, Control_c, 1, 7, 102
5, 6432, Note_off_c, 1, 58, 64
5, 6432, Note_off_c, 1, 43, 64
5, 6432, Note_off_c, 1, 55, 64
5, 6432, Note_off_c, 1, 50, 64
5, 6432, Note_on_c, 1, 55, 100
5, 6432, Note_on_c, 1, 51, 100
5, 6432, Note_on_c, 1, 39, 100
5, 6432, Note_on_c, 1, 62, 100
5, 6432, Note_on_c, 1, 46, 100
5, 6437, Control_c, 1, 7, 102
5, 6540, Control_c, 1, 7, 102
5, 6576, Note_off_c, 1, 39, 64
5, 6576, Note_off_c, 1, 51, 64
5, 6576, Note_off_c, 1, 46, 64
5, 6576, Note_off_c, 1, 62, 64
5, 6576, Note_off_c, 1, 55, 64
5, 6576, Note_on_c, 1, 55, 100
5, 6576, Note_on_c, 1, 62, 100
5, 6576, Note_on_c, 1, 51, 100
5, 6576, Note_on_c, 1, 39, 100
5, 6576, Note_on_c, 1, 46, 100
5, 6624, Note_off_c, 1, 55, 64
5, 6624, Note_off_c, 1, 46, 64
5, 6624, Note_off_c, 1, 39, 64
5, 6624, Note_off_c, 1, 51, 64
5, 6624, Note_off_c, 1, 62, 64
5, 6624, Note_on_c, 1, 55, 100
5, 6624, Note_on_c, 1, 62, 100
5, 6624, Note_on_c, 1, 51, 100
5, 6624, Note_on_c, 1, 39, 100
5, 6624, Note_on_c, 1, 46, 100
5, 6643, Control_c, 1, 7, 102
5, 6672, Note_off_c, 1, 62, 64
5, 6672, Note_off_c, 1, 55, 64
5, 6672, Note_off_c, 1, 46, 64
5, 6672, Note_off_c, 1, 39, 64
5, 6672, Note_off_c, 1, 51, 64
5, 6672, Note_on_c, 1, 55, 100
5, 6672, Note_on_c, 1, 62, 100
5, 6672, Note_on_c, 1, 51, 100
5, 6672, Note_on_c, 1, 39, 100
5, 6672, Note_on_c, 1, 46, 100
5, 6720, Note_off_c, 1, 51, 64
5, 6720, Note_off_c, 1, 62, 64
5, 6720, Note_off_c, 1, 55, 64
5, 6720, Note_off_c, 1, 46, 64
5, 6720, Note_off_c, 1, 39, 64
5, 6720, Note_on_c, 1, 55, 100
5, 6720, Note_on_c, 1, 62, 100
5, 6720, Note_on_c, 1, 51, 100
5, 6720, Note_on_c, 1, 39, 100
5, 6720, Note_on_c, 1, 46, 100
5, 6746, Control_c, 1, 7, 102
5, 6768, Note_off_c, 1, 46, 64
5, 6768, Note_off_c, 1, 39, 64
5, 6768, Note_off_c, 1, 51, 64
5, 6768, Note_off_c, 1, 62, 64
5, 6768, Note_off_c, 1, 55, 64
5, 6768, Note_on_c, 1, 55, 100
5, 6768, Note_on_c, 1, 62, 100
5, 6768, Note_on_c, 1, 51, 100
5, 6768, Note_on_c, 1, 39, 100
5, 6768, Note_on_c, 1, 46, 100
5, 6816, Note_off_c, 1, 51, 64
5, 6816, Note_off_c, 1, 62, 64
5, 6816, Note_off_c, 1, 46, 64
5, 6816, Note_off_c, 1, 39, 64
5, 6816, Note_off_c, 1, 55, 64
5, 6816, Note_on_c, 1, 55, 100
5, 6816, Note_on_c, 1, 62, 100
5, 6816, Note_on_c, 1, 51, 100
5, 6816, Note_on_c, 1, 39, 100
5, 6816, Note_on_c, 1, 46, 100
5, 6849, Control_c, 1, 7, 102
5, 6864, Note_off_c, 1, 46, 64
5, 6864, Note_off_c, 1, 39, 64
5, 6864, Note_off_c, 1, 51, 64
5, 6864, Note_off_c, 1, 62, 64
5, 6864, Note_off_c, 1, 55, 64
5, 6864, Note_on_c, 1, 55, 100
5, 6864, Note_on_c, 1, 62, 100
5, 6864, Note_on_c, 1, 51, 100
5, 6864, Note_on_c, 1, 39, 100
5, 6864, Note_on_c, 1, 46, 100
5, 6912, Note_off_c, 1, 62, 64
5, 6912, Note_off_c, 1, 55, 64
5, 6912, Note_off_c, 1, 46, 64
5, 6912, Note_off_c, 1, 39, 64
5, 6912, Note_off_c, 1, 51, 64
5, 6912, Note_on_c, 1, 57, 100
5, 6912, Note_on_c, 1, 53, 100
5, 6912, Note_on_c, 1, 41, 100
5, 6912, Note_on_c, 1, 48, 100
5, 6953, Control_c, 1, 7, 102
5, 7055, Control_c, 1, 7, 102
5, 7056, Note_off_c, 1, 57, 64
5, 7056, Note_off_c, 1, 48, 64
5, 7056, Note_off_c, 1, 41, 64
5, 7056, Note_off_c, 1, 53, 64
5, 7056, Note_on_c, 1, 58, 100
5, 7056, Note_on_c, 1, 55, 100
5, 7056, Note_on_c, 1, 43, 100
5, 7056, Note_on_c, 1, 50, 100
5, 7159, Control_c, 1, 7, 102
5, 7200, Note_off_c, 1, 50, 64
5, 7200, Note_off_c, 1, 58, 64
5, 7200, Note_off_c, 1, 43, 64
5, 7200, Note_off_c, 1, 55, 64
5, 7200, Note_on_c, 1, 55, 100
5, 7200, Note_on_c, 1, 51, 100
5, 7200, Note_on_c, 1, 39, 100
5, 7200, Note_on_c, 1, 62, 100
5, 7200, Note_on_c, 1, 46, 100
5, 7261, Control_c, 1, 7, 102
5, 7344, Note_off_c, 1, 51, 64
5, 7344, Note_off_c, 1, 62, 64
5, 7344, Note_off_c, 1, 39, 64
5, 7344, Note_off_c, 1, 46, 64
5, 7344, Note_off_c, 1, 55, 64
5, 7344, Note_on_c, 1, 55, 100
5, 7344, Note_on_c, 1, 62, 100
5, 7344, Note_on_c, 1, 51, 100
5, 7344, Note_on_c, 1, 39, 100
5, 7344, Note_on_c, 1, 46, 100
5, 7365, Control_c, 1, 7, 102
5, 7392, Note_off_c, 1, 55, 64
5, 7392, Note_off_c, 1, 46, 64
5, 7392, Note_off_c, 1, 39, 64
5, 7392, Note_off_c, 1, 51, 64
5, 7392, Note_off_c, 1, 62, 64
5, 7392, Note_on_c, 1, 55, 100
5, 7392, Note_on_c, 1, 62, 100
5, 7392, Note_on_c, 1, 51, 100
5, 7392, Note_on_c, 1, 39, 100
5, 7392, Note_on_c, 1, 46, 100
5, 7440, Note_off_c, 1, 55, 64
5, 7440, Note_off_c, 1, 46, 64
5, 7440, Note_off_c, 1, 39, 64
5, 7440, Note_off_c, 1, 51, 64
5, 7440, Note_off_c, 1, 62, 64
5, 7440, Note_on_c, 1, 55, 100
5, 7440, Note_on_c, 1, 62, 100
5, 7440, Note_on_c, 1, 51, 100
5, 7440, Note_on_c, 1, 39, 100
5, 7440, Note_on_c, 1, 46, 100
5, 7468, Control_c, 1, 7, 102
5, 7488, Note_off_c, 1, 51, 64
5, 7488, Note_off_c, 1, 62, 64
5, 7488, Note_off_c, 1, 46, 64
5, 7488, Note_off_c, 1, 39, 64
5, 7488, Note_off_c, 1, 55, 64
5, 7488, Note_on_c, 1, 55, 100
5, 7488, Note_on_c, 1, 62, 100
5, 7488, Note_on_c, 1, 51, 100
5, 7488, Note_on_c, 1, 39, 100
5, 7488, Note_on_c, 1, 46, 100
5, 7536, Note_off_c, 1, 55, 64
5, 7536, Note_off_c, 1, 46, 64
5, 7536, Note_off_c, 1, 39, 64
5, 7536, Note_off_c, 1, 51, 64
5, 7536, Note_off_c, 1, 62, 64
5, 7536, Note_on_c, 1, 55, 100
5, 7536, Note_on_c, 1, 62, 100
5, 7536, Note_on_c, 1, 51, 100
5, 7536, Note_on_c, 1, 39, 100
5, 7536, Note_on_c, 1, 46, 100
5, 7571, Control_c, 1, 7, 102
5, 7584, Note_off_c, 1, 62, 64
5, 7584, Note_off_c, 1, 55, 64
5, 7584, Note_off_c, 1, 46, 64
5, 7584, Note_off_c, 1, 39, 64
5, 7584, Note_off_c, 1, 51, 64
5, 7584, Note_on_c, 1, 55, 100
5, 7584, Note_on_c, 1, 62, 100
5, 7584, Note_on_c, 1, 51, 100
5, 7584, Note_on_c, 1, 39, 100
5, 7584, Note_on_c, 1, 46, 100
5, 7632, Note_off_c, 1, 62, 64
5, 7632, Note_off_c, 1, 55, 64
5, 7632, Note_off_c, 1, 46, 64
5, 7632, Note_off_c, 1, 39, 64
5, 7632, Note_off_c, 1, 51, 64
5, 7632, Note_on_c, 1, 55, 100
5, 7632, Note_on_c, 1, 62, 100
5, 7632, Note_on_c, 1, 51, 100
5, 7632, Note_on_c, 1, 39, 100
5, 7632, Note_on_c, 1, 46, 100
5, 7674, Control_c, 1, 7, 102
5, 7680, Note_off_c, 1, 55, 64
5, 7680, Note_off_c, 1, 46, 64
5, 7680, Note_off_c, 1, 39, 64
5, 7680, Note_off_c, 1, 51, 64
5, 7680, Note_off_c, 1, 62, 64
5, 7680, Note_on_c, 1, 57, 100
5, 7680, Note_on_c, 1, 53, 100
5, 7680, Note_on_c, 1, 41, 100
5, 7680, Note_on_c, 1, 48, 100
5, 7777, Control_c, 1, 7, 102
5, 7824, Note_off_c, 1, 53, 64
5, 7824, Note_off_c, 1, 57, 64
5, 7824, Note_off_c, 1, 48, 64
5, 7824, Note_off_c, 1, 41, 64
5, 7824, Note_on_c, 1, 58, 100
5, 7824, Note_on_c, 1, 55, 100
5, 7824, Note_on_c, 1, 43, 100
5, 7824, Note_on_c, 1, 50, 100
5, 7880, Control_c, 1, 7, 102
5, 7968, Note_off_c, 1, 58, 64
5, 7968, Note_off_c, 1, 43, 64
5, 7968, Note_off_c, 1, 55, 64
5, 7968, Note_off_c, 1, 50, 64
5, 7968, Note_on_c, 1, 55, 100
5, 7968, Note_on_c, 1, 51, 100
5, 7968, Note_on_c, 1, 39, 100
5, 7968, Note_on_c, 1, 62, 100
5, 7968, Note_on_c, 1, 46, 100
5, 7983, Control_c, 1, 7, 102
5, 8086, Control_c, 1, 7, 102
5, 8112, Note_off_c, 1, 51, 64
5, 8112, Note_off_c, 1, 62, 64
5, 8112, Note_off_c, 1, 39, 64
5, 8112, Note_off_c, 1, 46, 64
5, 8112, Note_off_c, 1, 55, 64
5, 8112, Note_on_c, 1, 55, 100
5, 8112, Note_on_c, 1, 62, 100
5, 8112, Note_on_c, 1, 51, 100
5, 8112, Note_on_c, 1, 39, 100
5, 8112, Note_on_c, 1, 46, 100
5, 8160, Note_off_c, 1, 55, 64
5, 8160, Note_off_c, 1, 46, 64
5, 8160, Note_off_c, 1, 39, 64
5, 8160, Note_off_c, 1, 51, 64
5, 8160, Note_off_c, 1, 62, 64
5, 8160, Note_on_c, 1, 55, 100
5, 8160, Note_on_c, 1, 62, 100
5, 8160, Note_on_c, 1, 51, 100
5, 8160, Note_on_c, 1, 39, 100
5, 8160, Note_on_c, 1, 46, 100
5, 8190, Control_c, 1, 7, 102
5, 8208, Note_off_c, 1, 51, 64
5, 8208, Note_off_c, 1, 62, 64
5, 8208, Note_off_c, 1, 55, 64
5, 8208, Note_off_c, 1, 46, 64
5, 8208, Note_off_c, 1, 39, 64
5, 8208, Note_on_c, 1, 55, 100
5, 8208, Note_on_c, 1, 62, 100
5, 8208, Note_on_c, 1, 51, 100
5, 8208, Note_on_c, 1, 39, 100
5, 8208, Note_on_c, 1, 46, 100
5, 8256, Note_off_c, 1, 39, 64
5, 8256, Note_off_c, 1, 51, 64
5, 8256, Note_off_c, 1, 62, 64
5, 8256, Note_off_c, 1, 46, 64
5, 8256, Note_off_c, 1, 55, 64
5, 8256, Note_on_c, 1, 55, 100
5, 8256, Note_on_c, 1, 62, 100
5, 8256, Note_on_c, 1, 51, 100
5, 8256, Note_on_c, 1, 39, 100
5, 8256, Note_on_c, 1, 46, 100
5, 8292, Control_c, 1, 7, 102
5, 8304, Note_off_c, 1, 46, 64
5, 8304, Note_off_c, 1, 39, 64
5, 8304, Note_off_c, 1, 51, 64
5, 8304, Note_off_c, 1, 62, 64
5, 8304, Note_off_c, 1, 55, 64
5, 8304, Note_on_c, 1, 55, 100
5, 8304, Note_on_c, 1, 62, 100
5, 8304, Note_on_c, 1, 51, 100
5, 8304, Note_on_c, 1, 39, 100
5, 8304, Note_on_c, 1, 46, 100
5, 8352, Note_off_c, 1, 51, 64
5, 8352, Note_off_c, 1, 62, 64
5, 8352, Note_off_c, 1, 46, 64
5, 8352, Note_off_c, 1, 39, 64
5, 8352, Note_off_c, 1, 55, 64
5, 8352, Note_on_c, 1, 55, 100
5, 8352, Note_on_c, 1, 62, 100
5, 8352, Note_on_c, 1, 51, 100
5, 8352, Note_on_c, 1, 39, 100
5, 8352, Note_on_c, 1, 46, 100
5, 8396, Control_c, 1, 7, 102
5, 8400, Note_off_c, 1, 55, 64
5, 8400, Note_off_c, 1, 46, 64
5, 8400, Note_off_c, 1, 39, 64
5, 8400, Note_off_c, 1, 51, 64
5, 8400, Note_off_c, 1, 62, 64
5, 8400, Note_on_c, 1, 55, 100
5, 8400, Note_on_c, 1, 62, 100
5, 8400, Note_on_c, 1, 51, 100
5, 8400, Note_on_c, 1, 39, 100
5, 8400, Note_on_c, 1, 46, 100
5, 8448, Note_off_c, 1, 51, 64
5, 8448, Note_off_c, 1, 62, 64
5, 8448, Note_off_c, 1, 46, 64
5, 8448, Note_off_c, 1, 39, 64
5, 8448, Note_off_c, 1, 55, 64
5, 8448, Note_on_c, 1, 57, 100
5, 8448, Note_on_c, 1, 53, 100
5, 8448, Note_on_c, 1, 41, 100
5, 8448, Note_on_c, 1, 48, 100
5, 8499, Control_c, 1, 7, 102
5, 8592, Note_off_c, 1, 53, 64
5, 8592, Note_off_c, 1, 57, 64
5, 8592, Note_off_c, 1, 48, 64
5, 8592, Note_off_c, 1, 41, 64
5, 8592, Note_on_c, 1, 58, 100
5, 8592, Note_on_c, 1, 55, 100
5, 8592, Note_on_c, 1, 43, 100
5, 8592, Note_on_c, 1, 50, 100
5, 8602, Control_c, 1, 7, 102
5, 8705, Control_c, 1, 7, 102
5, 8736, Note_off_c, 1, 58, 64
5, 8736, Note_off_c, 1, 43, 64
5, 8736, Note_off_c, 1, 55, 64
5, 8736, Note_off_c, 1, 50, 64
5, 8736, Note_on_c, 1, 55, 100
5, 8736, Note_on_c, 1, 51, 100
5, 8736, Note_on_c, 1, 39, 100
5, 8736, Note_on_c, 1, 62, 100
5, 8736, Note_on_c, 1, 46, 100
5, 8808, Control_c, 1, 7, 102
5, 8880, Note_off_c, 1, 55, 64
5, 8880, Note_off_c, 1, 62, 64
5, 8880, Note_off_c, 1, 51, 64
5, 8880, Note_off_c, 1, 39, 64
5, 8880, Note_off_c, 1, 46, 64
5, 8880, Note_on_c, 1, 55, 100
5, 8880, Note_on_c, 1, 62, 100
5, 8880, Note_on_c, 1, 51, 100
5, 8880, Note_on_c, 1, 39, 100
5, 8880, Note_on_c, 1, 46, 100
5, 8911, Control_c, 1, 7, 102
5, 8928, Note_off_c, 1, 55, 64
5, 8928, Note_off_c, 1, 46, 64
5, 8928, Note_off_c, 1, 39, 64
5, 8928, Note_off_c, 1, 51, 64
5, 8928, Note_off_c, 1, 62, 64
5, 8928, Note_on_c, 1, 55, 100
5, 8928, Note_on_c, 1, 62, 100
5, 8928, Note_on_c, 1, 51, 100
5, 8928, Note_on_c, 1, 39, 100
5, 8928, Note_on_c, 1, 46, 100
5, 8976, Note_off_c, 1, 46, 64
5, 8976, Note_off_c, 1, 39, 64
5, 8976, Note_off_c, 1, 51, 64
5, 8976, Note_off_c, 1, 62, 64
5, 8976, Note_off_c, 1, 55, 64
5, 8976, Note_on_c, 1, 55, 100
5, 8976, Note_on_c, 1, 62, 100
5, 8976, Note_on_c, 1, 51, 100
5, 8976, Note_on_c, 1, 39, 100
5, 8976, Note_on_c, 1, 46, 100
5, 9014, Control_c, 1, 7, 102
5, 9024, Note_off_c, 1, 62, 64
5, 9024, Note_off_c, 1, 55, 64
5, 9024, Note_off_c, 1, 46, 64
5, 9024, Note_off_c, 1, 39, 64
5, 9024, Note_off_c, 1, 51, 64
5, 9024, Note_on_c, 1, 55, 100
5, 9024, Note_on_c, 1, 62, 100
5, 9024, Note_on_c, 1, 51, 100
5, 9024, Note_on_c, 1, 39, 100
5, 9024, Note_on_c, 1, 46, 100
5, 9072, Note_off_c, 1, 55, 64
5, 9072, Note_off_c, 1, 46, 64
5, 9072, Note_off_c, 1, 39, 64
5, 9072, Note_off_c, 1, 51, 64
5, 9072, Note_off_c, 1, 62, 64
5, 9072, Note_on_c, 1, 55, 100
5, 9072, Note_on_c, 1, 62, 100
5, 9072, Note_on_c, 1, 51, 100
5, 9072, Note_on_c, 1, 39, 100
5, 9072, Note_on_c, 1, 46, 100
5, 9117, Control_c, 1, 7, 102
5, 9120, Note_off_c, 1, 62, 64
5, 9120, Note_off_c, 1, 55, 64
5, 9120, Note_off_c, 1, 46, 64
5, 9120, Note_off_c, 1, 39, 64
5, 9120, Note_off_c, 1, 51, 64
5, 9120, Note_on_c, 1, 55, 100
5, 9120, Note_on_c, 1, 62, 100
5, 9120, Note_on_c, 1, 51, 100
5, 9120, Note_on_c, 1, 39, 100
5, 9120, Note_on_c, 1, 46, 100
5, 9168, Note_off_c, 1, 55, 64
5, 9168, Note_off_c, 1, 46, 64
5, 9168, Note_off_c, 1, 39, 64
5, 9168, Note_off_c, 1, 51, 64
5, 9168, Note_off_c, 1, 62, 64
5, 9168, Note_on_c, 1, 55, 100
5, 9168, Note_on_c, 1, 62, 100
5, 9168, Note_on_c, 1, 51, 100
5, 9168, Note_on_c, 1, 39, 100
5, 9168, Note_on_c, 1, 46, 100
5, 9216, Note_off_c, 1, 62, 64
5, 9216, Note_off_c, 1, 55, 64
5, 9216, Note_off_c, 1, 46, 64
5, 9216, Note_off_c, 1, 39, 64
5, 9216, Note_off_c, 1, 51, 64
5, 9216, Note_on_c, 1, 57, 100
5, 9216, Note_on_c, 1, 53, 100
5, 9216, Note_on_c, 1, 41, 100
5, 9216, Note_on_c, 1, 48, 100
5, 9221, Control_c, 1, 7, 102
5, 9323, Control_c, 1, 7, 102
5, 9360, Note_off_c, 1, 48, 64
5, 9360, Note_off_c, 1, 41, 64
5, 9360, Note_off_c, 1, 53, 64
5, 9360, Note_off_c, 1, 57, 64
5, 9360, Note_on_c, 1, 58, 100
5, 9360, Note_on_c, 1, 55, 100
5, 9360, Note_on_c, 1, 43, 100
5, 9360, Note_on_c, 1, 50, 100
5, 9427, Control_c, 1, 7, 102
5, 9504, Note_off_c, 1, 50, 64
5, 9504, Note_off_c, 1, 43, 64
5, 9504, Note_off_c, 1, 55, 64
5, 9504, Note_off_c, 1, 58, 64
5, 9504, Note_on_c, 1, 55, 100
5, 9504, Note_on_c, 1, 51, 100
5, 9504, Note_on_c, 1, 39, 100
5, 9504, Note_on_c, 1, 62, 100
5, 9504, Note_on_c, 1, 46, 100
5, 9529, Control_c, 1, 7, 102
5, 9633, Control_c, 1, 7, 102
5, 9648, Note_off_c, 1, 46, 64
5, 9648, Note_off_c, 1, 62, 64
5, 9648, Note_off_c, 1, 39, 64
5, 9648, Note_off_c, 1, 51, 64
5, 9648, Note_off_c, 1, 55, 64
5, 9648, Note_on_c, 1, 46, 100
5, 9648, Note_on_c, 1, 39, 100
5, 9648, Note_on_c, 1, 51, 100
5, 9648, Note_on_c, 1, 62, 100
5, 9648, Note_on_c, 1, 55, 100
5, 9696, Note_off_c, 1, 55, 64
5, 9696, Note_off_c, 1, 62, 64
5, 9696, Note_off_c, 1, 51, 64
5, 9696, Note_off_c, 1, 39, 64
5, 9696, Note_off_c, 1, 46, 64
5, 9696, Note_on_c, 1, 55, 100
5, 9696, Note_on_c, 1, 62, 100
5, 9696, Note_on_c, 1, 51, 100
5, 9696, Note_on_c, 1, 39, 100
5, 9696, Note_on_c, 1, 46, 100
5, 9736, Control_c, 1, 7, 102
5, 9744, Note_off_c, 1, 51, 64
5, 9744, Note_off_c, 1, 62, 64
5, 9744, Note_off_c, 1, 55, 64
5, 9744, Note_off_c, 1, 46, 64
5, 9744, Note_off_c, 1, 39, 64
5, 9744, Note_on_c, 1, 46, 100
5, 9744, Note_on_c, 1, 39, 100
5, 9744, Note_on_c, 1, 51, 100
5, 9744, Note_on_c, 1, 62, 100
5, 9744, Note_on_c, 1, 55, 100
5, 9792, Note_off_c, 1, 62, 64
5, 9792, Note_off_c, 1, 51, 64
5, 9792, Note_off_c, 1, 39, 64
5, 9792, Note_off_c, 1, 55, 64
5, 9792, Note_off_c, 1, 46, 64
5, 9792, Note_on_c, 1, 55, 100
5, 9792, Note_on_c, 1, 62, 100
5, 9792, Note_on_c, 1, 51, 100
5, 9792, Note_on_c, 1, 39, 100
5, 9792, Note_on_c, 1, 46, 100
5, 9839, Control_c, 1, 7, 102
5, 9840, Note_off_c, 1, 55, 64
5, 9840, Note_off_c, 1, 46, 64
5, 9840, Note_off_c, 1, 39, 64
5, 9840, Note_off_c, 1, 51, 64
5, 9840, Note_off_c, 1, 62, 64
5, 9840, Note_on_c, 1, 46, 100
5, 9840, Note_on_c, 1, 39, 100
5, 9840, Note_on_c, 1, 51, 100
5, 9840, Note_on_c, 1, 62, 100
5, 9840, Note_on_c, 1, 55, 100
5, 9888, Note_off_c, 1, 51, 64
5, 9888, Note_off_c, 1, 39, 64
5, 9888, Note_off_c, 1, 55, 64
5, 9888, Note_off_c, 1, 62, 64
5, 9888, Note_off_c, 1, 46, 64
5, 9888, Note_on_c, 1, 55, 100
5, 9888, Note_on_c, 1, 62, 100
5, 9888, Note_on_c, 1, 51, 100
5, 9888, Note_on_c, 1, 39, 100
5, 9888, Note_on_c, 1, 46, 100
5, 9936, Note_off_c, 1, 55, 64
5, 9936, Note_off_c, 1, 46, 64
5, 9936, Note_off_c, 1, 39, 64
5, 9936, Note_off_c, 1, 51, 64
5, 9936, Note_off_c, 1, 62, 64
5, 9936, Note_on_c, 1, 55, 100
5, 9936, Note_on_c, 1, 62, 100
5, 9936, Note_on_c, 1, 51, 100
5, 9936, Note_on_c, 1, 39, 100
5, 9936, Note_on_c, 1, 46, 100
5, 9942, Control_c, 1, 7, 102
5, 9984, Note_off_c, 1, 51, 64
5, 9984, Note_off_c, 1, 62, 64
5, 9984, Note_off_c, 1, 46, 64
5, 9984, Note_off_c, 1, 39, 64
5, 9984, Note_off_c, 1, 55, 64
5, 9984, Note_on_c, 1, 46, 100
5, 9984, Note_on_c, 1, 62, 100
5, 9984, Note_on_c, 1, 39, 100
5, 9984, Note_on_c, 1, 51, 100
5, 9984, Note_on_c, 1, 55, 100
5, 10045, Control_c, 1, 7, 102
5, 10128, Note_off_c, 1, 62, 64
5, 10128, Note_off_c, 1, 46, 64
5, 10128, Note_off_c, 1, 55, 64
5, 10128, Note_off_c, 1, 51, 64
5, 10128, Note_off_c, 1, 39, 64
5, 10128, Note_on_c, 1, 46, 100
5, 10128, Note_on_c, 1, 62, 100
5, 10128, Note_on_c, 1, 39, 100
5, 10128, Note_on_c, 1, 51, 100
5, 10128, Note_on_c, 1, 55, 100
5, 10148, Control_c, 1, 7, 102
5, 10252, Control_c, 1, 7, 102
5, 10272, Note_off_c, 1, 39, 64
5, 10272, Note_off_c, 1, 62, 64
5, 10272, Note_off_c, 1, 46, 64
5, 10272, Note_off_c, 1, 55, 64
5, 10272, Note_off_c, 1, 51, 64
5, 10272, Note_on_c, 1, 55, 100
5, 10272, Note_on_c, 1, 51, 100
5, 10272, Note_on_c, 1, 39, 100
5, 10272, Note_on_c, 1, 62, 100
5, 10272, Note_on_c, 1, 46, 100
5, 10354, Control_c, 1, 7, 103
5, 10416, Note_off_c, 1, 55, 64
5, 10416, Note_off_c, 1, 39, 64
5, 10416, Note_off_c, 1, 51, 64
5, 10416, Note_off_c, 1, 46, 64
5, 10416, Note_off_c, 1, 62, 64
5, 10416, Note_on_c, 1, 55, 100
5, 10416, Note_on_c, 1, 62, 100
5, 10416, Note_on_c, 1, 51, 100
5, 10416, Note_on_c, 1, 39, 100
5, 10416, Note_on_c, 1, 46, 100
5, 10458, Control_c, 1, 7, 103
5, 10464, Note_off_c, 1, 55, 64
5, 10464, Note_off_c, 1, 62, 64
5, 10464, Note_off_c, 1, 46, 64
5, 10464, Note_off_c, 1, 39, 64
5, 10464, Note_off_c, 1, 51, 64
5, 10464, Note_on_c, 1, 55, 100
5, 10464, Note_on_c, 1, 62, 100
5, 10464, Note_on_c, 1, 51, 100
5, 10464, Note_on_c, 1, 39, 100
5, 10464, Note_on_c, 1, 46, 100
5, 10512, Note_off_c, 1, 62, 64
5, 10512, Note_off_c, 1, 55, 64
5, 10512, Note_off_c, 1, 46, 64
5, 10512, Note_off_c, 1, 39, 64
5, 10512, Note_off_c, 1, 51, 64
5, 10512, Note_on_c, 1, 55, 100
5, 10512, Note_on_c, 1, 62, 100
5, 10512, Note_on_c, 1, 51, 100
5, 10512, Note_on_c, 1, 39, 100
5, 10512, Note_on_c, 1, 46, 100
5, 10560, Note_off_c, 1, 51, 64
5, 10560, Note_off_c, 1, 62, 64
5, 10560, Note_off_c, 1, 46, 64
5, 10560, Note_off_c, 1, 39, 64
5, 10560, Note_off_c, 1, 55, 64
5, 10560, Note_on_c, 1, 55, 100
5, 10560, Note_on_c, 1, 62, 100
5, 10560, Note_on_c, 1, 51, 100
5, 10560, Note_on_c, 1, 39, 100
5, 10560, Note_on_c, 1, 46, 100
5, 10560, Control_c, 1, 7, 103
5, 10608, Note_off_c, 1, 55, 64
5, 10608, Note_off_c, 1, 62, 64
5, 10608, Note_off_c, 1, 46, 64
5, 10608, Note_off_c, 1, 39, 64
5, 10608, Note_off_c, 1, 51, 64
5, 10608, Note_on_c, 1, 55, 100
5, 10608, Note_on_c, 1, 62, 100
5, 10608, Note_on_c, 1, 51, 100
5, 10608, Note_on_c, 1, 39, 100
5, 10608, Note_on_c, 1, 46, 100
5, 10656, Note_off_c, 1, 62, 64
5, 10656, Note_off_c, 1, 55, 64
5, 10656, Note_off_c, 1, 46, 64
5, 10656, Note_off_c, 1, 39, 64
5, 10656, Note_off_c, 1, 51, 64
5, 10656, Note_on_c, 1, 55, 100
5, 10656, Note_on_c, 1, 62, 100
5, 10656, Note_on_c, 1, 51, 100
5, 10656, Note_on_c, 1, 39, 100
5, 10656, Note_on_c, 1, 46, 100
5, 10664, Control_c, 1, 7, 103
5, 10704, Note_off_c, 1, 51, 64
5, 10704, Note_off_c, 1, 62, 64
5, 10704, Note_off_c, 1, 46, 64
5, 10704, Note_off_c, 1, 39, 64
5, 10704, Note_off_c, 1, 55, 64
5, 10704, Note_on_c, 1, 55, 100
5, 10704, Note_on_c, 1, 62, 100
5, 10704, Note_on_c, 1, 51, 100
5, 10704, Note_on_c, 1, 39, 100
5, 10704, Note_on_c, 1, 46, 100
5, 10752, Note_off_c, 1, 62, 64
5, 10752, Note_off_c, 1, 55, 64
5, 10752, Note_off_c, 1, 46, 64
5, 10752, Note_off_c, 1, 39, 64
5, 10752, Note_off_c, 1, 51, 64
5, 10752, Note_on_c, 1, 57, 100
5, 10752, Note_on_c, 1, 53, 100
5, 10752, Note_on_c, 1, 41, 100
5, 10752, Note_on_c, 1, 48, 100
5, 10767, Control_c, 1, 7, 103
5, 10870, Control_c, 1, 7, 103
5, 10896, Note_off_c, 1, 57, 64
5, 10896, Note_off_c, 1, 48, 64
5, 10896, Note_off_c, 1, 41, 64
5, 10896, Note_off_c, 1, 53, 64
5, 10896, Note_on_c, 1, 58, 100
5, 10896, Note_on_c, 1, 55, 100
5, 10896, Note_on_c, 1, 43, 100
5, 10896, Note_on_c, 1, 50, 100
5, 10973, Control_c, 1, 7, 103
5, 11040, Note_off_c, 1, 55, 64
5, 11040, Note_off_c, 1, 58, 64
5, 11040, Note_off_c, 1, 50, 64
5, 11040, Note_off_c, 1, 43, 64
5, 11040, Note_on_c, 1, 55, 100
5, 11040, Note_on_c, 1, 51, 100
5, 11040, Note_on_c, 1, 39, 100
5, 11040, Note_on_c, 1, 62, 100
5, 11040, Note_on_c, 1, 46, 100
5, 11076, Control_c, 1, 7, 103
5, 11179, Control_c, 1, 7, 103
5, 11184, Note_off_c, 1, 51, 64
5, 11184, Note_off_c, 1, 62, 64
5, 11184, Note_off_c, 1, 39, 64
5, 11184, Note_off_c, 1, 46, 64
5, 11184, Note_off_c, 1, 55, 64
5, 11184, Note_on_c, 1, 46, 100
5, 11184, Note_on_c, 1, 39, 100
5, 11184, Note_on_c, 1, 51, 100
5, 11184, Note_on_c, 1, 62, 100
5, 11184, Note_on_c, 1, 55, 100
5, 11232, Note_off_c, 1, 55, 64
5, 11232, Note_off_c, 1, 62, 64
5, 11232, Note_off_c, 1, 51, 64
5, 11232, Note_off_c, 1, 39, 64
5, 11232, Note_off_c, 1, 46, 64
5, 11232, Note_on_c, 1, 55, 100
5, 11232, Note_on_c, 1, 62, 100
5, 11232, Note_on_c, 1, 51, 100
5, 11232, Note_on_c, 1, 39, 100
5, 11232, Note_on_c, 1, 46, 100
5, 11280, Note_off_c, 1, 51, 64
5, 11280, Note_off_c, 1, 62, 64
5, 11280, Note_off_c, 1, 55, 64
5, 11280, Note_off_c, 1, 46, 64
5, 11280, Note_off_c, 1, 39, 64
5, 11280, Note_on_c, 1, 46, 100
5, 11280, Note_on_c, 1, 39, 100
5, 11280, Note_on_c, 1, 51, 100
5, 11280, Note_on_c, 1, 62, 100
5, 11280, Note_on_c, 1, 55, 100
5, 11282, Control_c, 1, 7, 103
5, 11328, Note_off_c, 1, 62, 64
5, 11328, Note_off_c, 1, 51, 64
5, 11328, Note_off_c, 1, 39, 64
5, 11328, Note_off_c, 1, 55, 64
5, 11328, Note_off_c, 1, 46, 64
5, 11328, Note_on_c, 1, 55, 100
5, 11328, Note_on_c, 1, 62, 100
5, 11328, Note_on_c, 1, 51, 100
5, 11328, Note_on_c, 1, 39, 100
5, 11328, Note_on_c, 1, 46, 100
5, 11376, Note_off_c, 1, 55, 64
5, 11376, Note_off_c, 1, 46, 64
5, 11376, Note_off_c, 1, 39, 64
5, 11376, Note_off_c, 1, 51, 64
5, 11376, Note_off_c, 1, 62, 64
5, 11376, Note_on_c, 1, 46, 100
5, 11376, Note_on_c, 1, 39, 100
5, 11376, Note_on_c, 1, 51, 100
5, 11376, Note_on_c, 1, 62, 100
5, 11376, Note_on_c, 1, 55, 100
5, 11385, Control_c, 1, 7, 103
5, 11424, Note_off_c, 1, 51, 64
5, 11424, Note_off_c, 1, 39, 64
5, 11424, Note_off_c, 1, 55, 64
5, 11424, Note_off_c, 1, 62, 64
5, 11424, Note_off_c, 1, 46, 64
5, 11424, Note_on_c, 1, 55, 100
5, 11424, Note_on_c, 1, 62, 100
5, 11424, Note_on_c, 1, 51, 100
5, 11424, Note_on_c, 1, 39, 100
5, 11424, Note_on_c, 1, 46, 100
5, 11472, Note_off_c, 1, 55, 64
5, 11472, Note_off_c, 1, 46, 64
5, 11472, Note_off_c, 1, 39, 64
5, 11472, Note_off_c, 1, 51, 64
5, 11472, Note_off_c, 1, 62, 64
5, 11472, Note_on_c, 1, 55, 100
5, 11472, Note_on_c, 1, 62, 100
5, 11472, Note_on_c, 1, 51, 100
5, 11472, Note_on_c, 1, 39, 100
5, 11472, Note_on_c, 1, 46, 100
5, 11489, Control_c, 1, 7, 103
5, 11520, Note_off_c, 1, 51, 64
5, 11520, Note_off_c, 1, 62, 64
5, 11520, Note_off_c, 1, 46, 64
5, 11520, Note_off_c, 1, 39, 64
5, 11520, Note_off_c, 1, 55, 64
5, 11520, Note_on_c, 1, 46, 100
5, 11520, Note_on_c, 1, 62, 100
5, 11520, Note_on_c, 1, 39, 100
5, 11520, Note_on_c, 1, 51, 100
5, 11520, Note_on_c, 1, 55, 100
5, 11591, Control_c, 1, 7, 103
5, 11664, Note_off_c, 1, 62, 64
5, 11664, Note_off_c, 1, 46, 64
5, 11664, Note_off_c, 1, 55, 64
5, 11664, Note_off_c, 1, 51, 64
5, 11664, Note_off_c, 1, 39, 64
5, 11664, Note_on_c, 1, 46, 100
5, 11664, Note_on_c, 1, 62, 100
5, 11664, Note_on_c, 1, 39, 100
5, 11664, Note_on_c, 1, 51, 100
5, 11664, Note_on_c, 1, 55, 100
5, 11695, Control_c, 1, 7, 103
5, 11798, Control_c, 1, 7, 103
5, 11808, Note_off_c, 1, 39, 64
5, 11808, Note_off_c, 1, 62, 64
5, 11808, Note_off_c, 1, 46, 64
5, 11808, Note_off_c, 1, 55, 64
5, 11808, Note_off_c, 1, 51, 64
5, 11808, Note_on_c, 1, 55, 100
5, 11808, Note_on_c, 1, 51, 100
5, 11808, Note_on_c, 1, 39, 100
5, 11808, Note_on_c, 1, 62, 100
5, 11808, Note_on_c, 1, 46, 100
5, 11901, Control_c, 1, 7, 103
5, 11952, Note_off_c, 1, 55, 64
5, 11952, Note_off_c, 1, 39, 64
5, 11952, Note_off_c, 1, 51, 64
5, 11952, Note_off_c, 1, 46, 64
5, 11952, Note_off_c, 1, 62, 64
5, 11952, Note_on_c, 1, 55, 100
5, 11952, Note_on_c, 1, 62, 100
5, 11952, Note_on_c, 1, 51, 100
5, 11952, Note_on_c, 1, 39, 100
5, 11952, Note_on_c, 1, 46, 100
5, 12000, Note_off_c, 1, 55, 64
5, 12000, Note_off_c, 1, 46, 64
5, 12000, Note_off_c, 1, 39, 64
5, 12000, Note_off_c, 1, 51, 64
5, 12000, Note_off_c, 1, 62, 64
5, 12000, Note_on_c, 1, 55, 100
5, 12000, Note_on_c, 1, 62, 100
5, 12000, Note_on_c, 1, 51, 100
5, 12000, Note_on_c, 1, 39, 100
5, 12000, Note_on_c, 1, 46, 100
5, 12004, Control_c, 1, 7, 103
5, 12048, Note_off_c, 1, 55, 64
5, 12048, Note_off_c, 1, 62, 64
5, 12048, Note_off_c, 1, 46, 64
5, 12048, Note_off_c, 1, 39, 64
5, 12048, Note_off_c, 1, 51, 64
5, 12048, Note_on_c, 1, 55, 100
5, 12048, Note_on_c, 1, 62, 100
5, 12048, Note_on_c, 1, 51, 100
5, 12048, Note_on_c, 1, 39, 100
5, 12048, Note_on_c, 1, 46, 100
5, 12096, Note_off_c, 1, 51, 64
5, 12096, Note_off_c, 1, 62, 64
5, 12096, Note_off_c, 1, 46, 64
5, 12096, Note_off_c, 1, 39, 64
5, 12096, Note_off_c, 1, 55, 64
5, 12096, Note_on_c, 1, 55, 100
5, 12096, Note_on_c, 1, 62, 100
5, 12096, Note_on_c, 1, 51, 100
5, 12096, Note_on_c, 1, 39, 100
5, 12096, Note_on_c, 1, 46, 100
5, 12107, Control_c, 1, 7, 103
5, 12144, Note_off_c, 1, 55, 64
5, 12144, Note_off_c, 1, 62, 64
5, 12144, Note_off_c, 1, 46, 64
5, 12144, Note_off_c, 1, 39, 64
5, 12144, Note_off_c, 1, 51, 64
5, 12144, Note_on_c, 1, 55, 100
5, 12144, Note_on_c, 1, 62, 100
5, 12144, Note_on_c, 1, 51, 100
5, 12144, Note_on_c, 1, 39, 100
5, 12144, Note_on_c, 1, 46, 100
5, 12192, Note_off_c, 1, 62, 64
5, 12192, Note_off_c, 1, 55, 64
5, 12192, Note_off_c, 1, 46, 64
5, 12192, Note_off_c, 1, 39, 64
5, 12192, Note_off_c, 1, 51, 64
5, 12192, Note_on_c, 1, 55, 100
5, 12192, Note_on_c, 1, 62, 100
5, 12192, Note_on_c, 1, 51, 100
5, 12192, Note_on_c, 1, 39, 100
5, 12192, Note_on_c, 1, 46, 100
5, 12210, Control_c, 1, 7, 103
5, 12240, Note_off_c, 1, 51, 64
5, 12240, Note_off_c, 1, 62, 64
5, 12240, Note_off_c, 1, 46, 64
5, 12240, Note_off_c, 1, 39, 64
5, 12240, Note_off_c, 1, 55, 64
5, 12240, Note_on_c, 1, 55, 100
5, 12240, Note_on_c, 1, 62, 100
5, 12240, Note_on_c, 1, 51, 100
5, 12240, Note_on_c, 1, 39, 100
5, 12240, Note_on_c, 1, 46, 100
5, 12288, Note_off_c, 1, 62, 64
5, 12288, Note_off_c, 1, 55, 64
5, 12288, Note_off_c, 1, 46, 64
5, 12288, Note_off_c, 1, 39, 64
5, 12288, Note_off_c, 1, 51, 64
5, 12288, Note_on_c, 1, 57, 100
5, 12288, Note_on_c, 1, 53, 100
5, 12288, Note_on_c, 1, 41, 100
5, 12288, Note_on_c, 1, 48, 100
5, 12313, Control_c, 1, 7, 103
5, 12416, Control_c, 1, 7, 103
5, 12432, Note_off_c, 1, 57, 64
5, 12432, Note_off_c, 1, 48, 64
5, 12432, Note_off_c, 1, 41, 64
5, 12432, Note_off_c, 1, 53, 64
5, 12432, Note_on_c, 1, 58, 100
5, 12432, Note_on_c, 1, 55, 100
5, 12432, Note_on_c, 1, 43, 100
5, 12432, Note_on_c, 1, 50, 100
5, 12520, Control_c, 1, 7, 103
5, 12576, Note_off_c, 1, 58, 64
5, 12576, Note_off_c, 1, 43, 64
5, 12576, Note_off_c, 1, 55, 64
5, 12576, Note_off_c, 1, 50, 64
5, 12576, Note_on_c, 1, 55, 100
5, 12576, Note_on_c, 1, 51, 100
5, 12576, Note_on_c, 1, 39, 100
5, 12576, Note_on_c, 1, 62, 100
5, 12576, Note_on_c, 1, 46, 100
5, 12622, Control_c, 1, 7, 103
5, 12720, Note_off_c, 1, 55, 64
5, 12720, Note_off_c, 1, 39, 64
5, 12720, Note_off_c, 1, 51, 64
5, 12720, Note_off_c, 1, 46, 64
5, 12720, Note_off_c, 1, 62, 64
5, 12720, Note_on_c, 1, 46, 100
5, 12720, Note_on_c, 1, 39, 100
5, 12720, Note_on_c, 1, 51, 100
5, 12720, Note_on_c, 1, 62, 100
5, 12720, Note_on_c, 1, 55, 100
5, 12726, Control_c, 1, 7, 103
5, 12768, Note_off_c, 1, 55, 64
5, 12768, Note_off_c, 1, 62, 64
5, 12768, Note_off_c, 1, 51, 64
5, 12768, Note_off_c, 1, 39, 64
5, 12768, Note_off_c, 1, 46, 64
5, 12768, Note_on_c, 1, 55, 100
5, 12768, Note_on_c, 1, 62, 100
5, 12768, Note_on_c, 1, 51, 100
5, 12768, Note_on_c, 1, 39, 100
5, 12768, Note_on_c, 1, 46, 100
5, 12816, Note_off_c, 1, 51, 64
5, 12816, Note_off_c, 1, 62, 64
5, 12816, Note_off_c, 1, 55, 64
5, 12816, Note_off_c, 1, 46, 64
5, 12816, Note_off_c, 1, 39, 64
5, 12816, Note_on_c, 1, 46, 100
5, 12816, Note_on_c, 1, 39, 100
5, 12816, Note_on_c, 1, 51, 100
5, 12816, Note_on_c, 1, 62, 100
5, 12816, Note_on_c, 1, 55, 100
5, 12828, Control_c, 1, 7, 103
5, 12864, Note_off_c, 1, 62, 64
5, 12864, Note_off_c, 1, 51, 64
5, 12864, Note_off_c, 1, 39, 64
5, 12864, Note_off_c, 1, 55, 64
5, 12864, Note_off_c, 1, 46, 64
5, 12864, Note_on_c, 1, 55, 100
5, 12864, Note_on_c, 1, 62, 100
5, 12864, Note_on_c, 1, 51, 100
5, 12864, Note_on_c, 1, 39, 100
5, 12864, Note_on_c, 1, 46, 100
5, 12912, Note_off_c, 1, 55, 64
5, 12912, Note_off_c, 1, 46, 64
5, 12912, Note_off_c, 1, 39, 64
5, 12912, Note_off_c, 1, 51, 64
5, 12912, Note_off_c, 1, 62, 64
5, 12912, Note_on_c, 1, 46, 100
5, 12912, Note_on_c, 1, 39, 100
5, 12912, Note_on_c, 1, 51, 100
5, 12912, Note_on_c, 1, 62, 100
5, 12912, Note_on_c, 1, 55, 100
5, 12932, Control_c, 1, 7, 103
5, 12960, Note_off_c, 1, 51, 64
5, 12960, Note_off_c, 1, 39, 64
5, 12960, Note_off_c, 1, 55, 64
5, 12960, Note_off_c, 1, 62, 64
5, 12960, Note_off_c, 1, 46, 64
5, 12960, Note_on_c, 1, 55, 100
5, 12960, Note_on_c, 1, 62, 100
5, 12960, Note_on_c, 1, 51, 100
5, 12960, Note_on_c, 1, 39, 100
5, 12960, Note_on_c, 1, 46, 100
5, 13008, Note_off_c, 1, 55, 64
5, 13008, Note_off_c, 1, 46, 64
5, 13008, Note_off_c, 1, 39, 64
5, 13008, Note_off_c, 1, 51, 64
5, 13008, Note_off_c, 1, 62, 64
5, 13008, Note_on_c, 1, 55, 100
5, 13008, Note_on_c, 1, 62, 100
5, 13008, Note_on_c, 1, 51, 100
5, 13008, Note_on_c, 1, 39, 100
5, 13008, Note_on_c, 1, 46, 100
5, 13035, Control_c, 1, 7, 103
5, 13056, Note_off_c, 1, 51, 64
5, 13056, Note_off_c, 1, 62, 64
5, 13056, Note_off_c, 1, 46, 64
5, 13056, Note_off_c, 1, 39, 64
5, 13056, Note_off_c, 1, 55, 64
5, 13056, Note_on_c, 1, 46, 100
5, 13056, Note_on_c, 1, 62, 100
5, 13056, Note_on_c, 1, 39, 100
5, 13056, Note_on_c, 1, 51, 100
5, 13056, Note_on_c, 1, 55, 100
5, 13138, Control_c, 1, 7, 103
5, 13200, Note_off_c, 1, 62, 64
5, 13200, Note_off_c, 1, 46, 64
5, 13200, Note_off_c, 1, 55, 64
5, 13200, Note_off_c, 1, 51, 64
5, 13200, Note_off_c, 1, 39, 64
5, 13200, Note_on_c, 1, 46, 100
5, 13200, Note_on_c, 1, 62, 100
5, 13200, Note_on_c, 1, 39, 100
5, 13200, Note_on_c, 1, 51, 100
5, 13200, Note_on_c, 1, 55, 100
5, 13241, Control_c, 1, 7, 103
5, 13344, Note_off_c, 1, 39, 64
5, 13344, Note_off_c, 1, 62, 64
5, 13344, Note_off_c, 1, 46, 64
5, 13344, Note_off_c, 1, 55, 64
5, 13344, Note_off_c, 1, 51, 64
5, 13344, Note_on_c, 1, 55, 100
5, 13344, Note_on_c, 1, 51, 100
5, 13344, Note_on_c, 1, 39, 100
5, 13344, Note_on_c, 1, 62, 100
5, 13344, Note_on_c, 1, 46, 100
5, 13344, Control_c, 1, 7, 103
5, 13447, Control_c, 1, 7, 103
5, 13488, Note_off_c, 1, 55, 64
5, 13488, Note_off_c, 1, 39, 64
5, 13488, Note_off_c, 1, 51, 64
5, 13488, Note_off_c, 1, 46, 64
5, 13488, Note_off_c, 1, 62, 64
5, 13488, Note_on_c, 1, 55, 100
5, 13488, Note_on_c, 1, 62, 100
5, 13488, Note_on_c, 1, 51, 100
5, 13488, Note_on_c, 1, 39, 100
5, 13488, Note_on_c, 1, 46, 100
5, 13536, Note_off_c, 1, 55, 64
5, 13536, Note_off_c, 1, 62, 64
5, 13536, Note_off_c, 1, 46, 64
5, 13536, Note_off_c, 1, 39, 64
5, 13536, Note_off_c, 1, 51, 64
5, 13536, Note_on_c, 1, 55, 100
5, 13536, Note_on_c, 1, 62, 100
5, 13536, Note_on_c, 1, 51, 100
5, 13536, Note_on_c, 1, 39, 100
5, 13536, Note_on_c, 1, 46, 100
5, 13550, Control_c, 1, 7, 103
5, 13584, Note_off_c, 1, 62, 64
5, 13584, Note_off_c, 1, 55, 64
5, 13584, Note_off_c, 1, 46, 64
5, 13584, Note_off_c, 1, 39, 64
5, 13584, Note_off_c, 1, 51, 64
5, 13584, Note_on_c, 1, 55, 100
5, 13584, Note_on_c, 1, 62, 100
5, 13584, Note_on_c, 1, 51, 100
5, 13584, Note_on_c, 1, 39, 100
5, 13584, Note_on_c, 1, 46, 100
5, 13632, Note_off_c, 1, 51, 64
5, 13632, Note_off_c, 1, 62, 64
5, 13632, Note_off_c, 1, 46, 64
5, 13632, Note_off_c, 1, 39, 64
5, 13632, Note_off_c, 1, 55, 64
5, 13632, Note_on_c, 1, 55, 100
5, 13632, Note_on_c, 1, 62, 100
5, 13632, Note_on_c, 1, 51, 100
5, 13632, Note_on_c, 1, 39, 100
5, 13632, Note_on_c, 1, 46, 100
5, 13653, Control_c, 1, 7, 103
5, 13680, Note_off_c, 1, 55, 64
5, 13680, Note_off_c, 1, 62, 64
5, 13680, Note_off_c, 1, 46, 64
5, 13680, Note_off_c, 1, 39, 64
5, 13680, Note_off_c, 1, 51, 64
5, 13680, Note_on_c, 1, 55, 100
5, 13680, Note_on_c, 1, 62, 100
5, 13680, Note_on_c, 1, 51, 100
5, 13680, Note_on_c, 1, 39, 100
5, 13680, Note_on_c, 1, 46, 100
5, 13728, Note_off_c, 1, 62, 64
5, 13728, Note_off_c, 1, 55, 64
5, 13728, Note_off_c, 1, 46, 64
5, 13728, Note_off_c, 1, 39, 64
5, 13728, Note_off_c, 1, 51, 64
5, 13728, Note_on_c, 1, 55, 100
5, 13728, Note_on_c, 1, 62, 100
5, 13728, Note_on_c, 1, 51, 100
5, 13728, Note_on_c, 1, 39, 100
5, 13728, Note_on_c, 1, 46, 100
5, 13757, Control_c, 1, 7, 103
5, 13776, Note_off_c, 1, 51, 64
5, 13776, Note_off_c, 1, 62, 64
5, 13776, Note_off_c, 1, 46, 64
5, 13776, Note_off_c, 1, 39, 64
5, 13776, Note_off_c, 1, 55, 64
5, 13776, Note_on_c, 1, 55, 100
5, 13776, Note_on_c, 1, 62, 100
5, 13776, Note_on_c, 1, 51, 100
5, 13776, Note_on_c, 1, 39, 100
5, 13776, Note_on_c, 1, 46, 100
5, 13824, Note_off_c, 1, 62, 64
5, 13824, Note_off_c, 1, 55, 64
5, 13824, Note_off_c, 1, 46, 64
5, 13824, Note_off_c, 1, 39, 64
5, 13824, Note_off_c, 1, 51, 64
5, 13824, Note_on_c, 1, 57, 100
5, 13824, Note_on_c, 1, 53, 100
5, 13824, Note_on_c, 1, 41, 100
5, 13824, Note_on_c, 1, 48, 100
5, 13859, Control_c, 1, 7, 103
5, 13963, Control_c, 1, 7, 103
5, 13968, Note_off_c, 1, 57, 64
5, 13968, Note_off_c, 1, 48, 64
5, 13968, Note_off_c, 1, 41, 64
5, 13968, Note_off_c, 1, 53, 64
5, 13968, Note_on_c, 1, 58, 100
5, 13968, Note_on_c, 1, 55, 100
5, 13968, Note_on_c, 1, 43, 100
5, 13968, Note_on_c, 1, 50, 100
5, 14066, Control_c, 1, 7, 103
5, 14112, Note_off_c, 1, 58, 64
5, 14112, Note_off_c, 1, 43, 64
5, 14112, Note_off_c, 1, 55, 64
5, 14112, Note_off_c, 1, 50, 64
5, 14112, Note_on_c, 1, 55, 100
5, 14112, Note_on_c, 1, 51, 100
5, 14112, Note_on_c, 1, 39, 100
5, 14112, Note_on_c, 1, 62, 100
5, 14112, Note_on_c, 1, 46, 100
5, 14169, Control_c, 1, 7, 103
5, 14256, Note_off_c, 1, 51, 64
5, 14256, Note_off_c, 1, 62, 64
5, 14256, Note_off_c, 1, 39, 64
5, 14256, Note_off_c, 1, 46, 64
5, 14256, Note_off_c, 1, 55, 64
5, 14256, Note_on_c, 1, 46, 100
5, 14256, Note_on_c, 1, 39, 100
5, 14256, Note_on_c, 1, 51, 100
5, 14256, Note_on_c, 1, 62, 100
5, 14256, Note_on_c, 1, 55, 100
5, 14272, Control_c, 1, 7, 103
5, 14304, Note_off_c, 1, 55, 64
5, 14304, Note_off_c, 1, 62, 64
5, 14304, Note_off_c, 1, 51, 64
5, 14304, Note_off_c, 1, 39, 64
5, 14304, Note_off_c, 1, 46, 64
5, 14304, Note_on_c, 1, 55, 100
5, 14304, Note_on_c, 1, 62, 100
5, 14304, Note_on_c, 1, 51, 100
5, 14304, Note_on_c, 1, 39, 100
5, 14304, Note_on_c, 1, 46, 100
5, 14352, Note_off_c, 1, 51, 64
5, 14352, Note_off_c, 1, 62, 64
5, 14352, Note_off_c, 1, 55, 64
5, 14352, Note_off_c, 1, 46, 64
5, 14352, Note_off_c, 1, 39, 64
5, 14352, Note_on_c, 1, 46, 100
5, 14352, Note_on_c, 1, 39, 100
5, 14352, Note_on_c, 1, 51, 100
5, 14352, Note_on_c, 1, 62, 100
5, 14352, Note_on_c, 1, 55, 100
5, 14375, Control_c, 1, 7, 103
5, 14400, Note_off_c, 1, 62, 64
5, 14400, Note_off_c, 1, 51, 64
5, 14400, Note_off_c, 1, 39, 64
5, 14400, Note_off_c, 1, 55, 64
5, 14400, Note_off_c, 1, 46, 64
5, 14400, Note_on_c, 1, 55, 100
5, 14400, Note_on_c, 1, 62, 100
5, 14400, Note_on_c, 1, 51, 100
5, 14400, Note_on_c, 1, 39, 100
5, 14400, Note_on_c, 1, 46, 100
5, 14448, Note_off_c, 1, 55, 64
5, 14448, Note_off_c, 1, 46, 64
5, 14448, Note_off_c, 1, 39, 64
5, 14448, Note_off_c, 1, 51, 64
5, 14448, Note_off_c, 1, 62, 64
5, 14448, Note_on_c, 1, 46, 100
5, 14448, Note_on_c, 1, 39, 100
5, 14448, Note_on_c, 1, 51, 100
5, 14448, Note_on_c, 1, 62, 100
5, 14448, Note_on_c, 1, 55, 100
5, 14478, Control_c, 1, 7, 103
5, 14496, Note_off_c, 1, 51, 64
5, 14496, Note_off_c, 1, 39, 64
5, 14496, Note_off_c, 1, 55, 64
5, 14496, Note_off_c, 1, 62, 64
5, 14496, Note_off_c, 1, 46, 64
5, 14496, Note_on_c, 1, 55, 100
5, 14496, Note_on_c, 1, 62, 100
5, 14496, Note_on_c, 1, 51, 100
5, 14496, Note_on_c, 1, 39, 100
5, 14496, Note_on_c, 1, 46, 100
5, 14544, Note_off_c, 1, 55, 64
5, 14544, Note_off_c, 1, 46, 64
5, 14544, Note_off_c, 1, 39, 64
5, 14544, Note_off_c, 1, 51, 64
5, 14544, Note_off_c, 1, 62, 64
5, 14544, Note_on_c, 1, 55, 100
5, 14544, Note_on_c, 1, 62, 100
5, 14544, Note_on_c, 1, 51, 100
5, 14544, Note_on_c, 1, 39, 100
5, 14544, Note_on_c, 1, 46, 100
5, 14581, Control_c, 1, 7, 103
5, 14592, Note_off_c, 1, 51, 64
5, 14592, Note_off_c, 1, 62, 64
5, 14592, Note_off_c, 1, 46, 64
5, 14592, Note_off_c, 1, 39, 64
5, 14592, Note_off_c, 1, 55, 64
5, 14684, Control_c, 1, 7, 103
5, 14788, Control_c, 1, 7, 103
5, 14890, Control_c, 1, 7, 103
5, 14994, Control_c, 1, 7, 103
5, 15096, Control_c, 1, 7, 103
5, 15200, Control_c, 1, 7, 103
5, 15303, Control_c, 1, 7, 103
5, 15360, Note_on_c, 1, 57, 100
5, 15360, Note_on_c, 1, 53, 100
5, 15360, Note_on_c, 1, 41, 100
5, 15360, Note_on_c, 1, 48, 100
5, 15406, Control_c, 1, 7, 103
5, 15504, Note_off_c, 1, 48, 64
5, 15504, Note_off_c, 1, 41, 64
5, 15504, Note_off_c, 1, 53, 64
5, 15504, Note_off_c, 1, 57, 64
5, 15504, Note_on_c, 1, 58, 100
5, 15504, Note_on_c, 1, 55, 100
5, 15504, Note_on_c, 1, 43, 100
5, 15504, Note_on_c, 1, 50, 100
5, 15509, Control_c, 1, 7, 103
5, 15612, Control_c, 1, 7, 103
5, 15648, Note_off_c, 1, 50, 64
5, 15648, Note_off_c, 1, 43, 64
5, 15648, Note_off_c, 1, 55, 64
5, 15648, Note_off_c, 1, 58, 64
5, 15648, Note_on_c, 1, 55, 100
5, 15648, Note_on_c, 1, 51, 100
5, 15648, Note_on_c, 1, 39, 100
5, 15648, Note_on_c, 1, 62, 100
5, 15648, Note_on_c, 1, 46, 100
5, 15715, Control_c, 1, 7, 103
5, 15792, Note_off_c, 1, 46, 64
5, 15792, Note_off_c, 1, 62, 64
5, 15792, Note_off_c, 1, 39, 64
5, 15792, Note_off_c, 1, 51, 64
5, 15792, Note_off_c, 1, 55, 64
5, 15792, Note_on_c, 1, 46, 100
5, 15792, Note_on_c, 1, 39, 100
5, 15792, Note_on_c, 1, 51, 100
5, 15792, Note_on_c, 1, 62, 100
5, 15792, Note_on_c, 1, 55, 100
5, 15819, Control_c, 1, 7, 103
5, 15840, Note_off_c, 1, 55, 64
5, 15840, Note_off_c, 1, 62, 64
5, 15840, Note_off_c, 1, 51, 64
5, 15840, Note_off_c, 1, 39, 64
5, 15840, Note_off_c, 1, 46, 64
5, 15840, Note_on_c, 1, 55, 100
5, 15840, Note_on_c, 1, 62, 100
5, 15840, Note_on_c, 1, 51, 100
5, 15840, Note_on_c, 1, 39, 100
5, 15840, Note_on_c, 1, 46, 100
5, 15888, Note_off_c, 1, 46, 64
5, 15888, Note_off_c, 1, 39, 64
5, 15888, Note_off_c, 1, 51, 64
5, 15888, Note_off_c, 1, 62, 64
5, 15888, Note_off_c, 1, 55, 64
5, 15888, Note_on_c, 1, 46, 100
5, 15888, Note_on_c, 1, 39, 100
5, 15888, Note_on_c, 1, 51, 100
5, 15888, Note_on_c, 1, 62, 100
5, 15888, Note_on_c, 1, 55, 100
5, 15921, Control_c, 1, 7, 103
5, 15936, Note_off_c, 1, 55, 64
5, 15936, Note_off_c, 1, 62, 64
5, 15936, Note_off_c, 1, 51, 64
5, 15936, Note_off_c, 1, 39, 64
5, 15936, Note_off_c, 1, 46, 64
5, 15936, Note_on_c, 1, 55, 100
5, 15936, Note_on_c, 1, 62, 100
5, 15936, Note_on_c, 1, 51, 100
5, 15936, Note_on_c, 1, 39, 100
5, 15936, Note_on_c, 1, 46, 100
5, 15984, Note_off_c, 1, 46, 64
5, 15984, Note_off_c, 1, 39, 64
5, 15984, Note_off_c, 1, 51, 64
5, 15984, Note_off_c, 1, 62, 64
5, 15984, Note_off_c, 1, 55, 64
5, 15984, Note_on_c, 1, 46, 100
5, 15984, Note_on_c, 1, 39, 100
5, 15984, Note_on_c, 1, 51, 100
5, 15984, Note_on_c, 1, 62, 100
5, 15984, Note_on_c, 1, 55, 100
5, 16025, Control_c, 1, 7, 103
5, 16032, Note_off_c, 1, 55, 64
5, 16032, Note_off_c, 1, 62, 64
5, 16032, Note_off_c, 1, 51, 64
5, 16032, Note_off_c, 1, 39, 64
5, 16032, Note_off_c, 1, 46, 64
5, 16032, Note_on_c, 1, 55, 100
5, 16032, Note_on_c, 1, 62, 100
5, 16032, Note_on_c, 1, 51, 100
5, 16032, Note_on_c, 1, 39, 100
5, 16032, Note_on_c, 1, 46, 100
5, 16080, Note_off_c, 1, 46, 64
5, 16080, Note_off_c, 1, 39, 64
5, 16080, Note_off_c, 1, 51, 64
5, 16080, Note_off_c, 1, 62, 64
5, 16080, Note_off_c, 1, 55, 64
5, 16080, Note_on_c, 1, 55, 100
5, 16080, Note_on_c, 1, 62, 100
5, 16080, Note_on_c, 1, 51, 100
5, 16080, Note_on_c, 1, 39, 100
5, 16080, Note_on_c, 1, 46, 100
5, 16127, Control_c, 1, 7, 103
5, 16128, Note_off_c, 1, 46, 64
5, 16128, Note_off_c, 1, 39, 64
5, 16128, Note_off_c, 1, 51, 64
5, 16128, Note_off_c, 1, 62, 64
5, 16128, Note_off_c, 1, 55, 64
5, 16128, Note_on_c, 1, 46, 100
5, 16128, Note_on_c, 1, 62, 100
5, 16128, Note_on_c, 1, 39, 100
5, 16128, Note_on_c, 1, 51, 100
5, 16128, Note_on_c, 1, 55, 100
5, 16231, Control_c, 1, 7, 103
5, 16272, Note_off_c, 1, 55, 64
5, 16272, Note_off_c, 1, 51, 64
5, 16272, Note_off_c, 1, 39, 64
5, 16272, Note_off_c, 1, 62, 64
5, 16272, Note_off_c, 1, 46, 64
5, 16272, Note_on_c, 1, 46, 100
5, 16272, Note_on_c, 1, 62, 100
5, 16272, Note_on_c, 1, 39, 100
5, 16272, Note_on_c, 1, 51, 100
5, 16272, Note_on_c, 1, 55, 100
5, 16334, Control_c, 1, 7, 103
5, 16416, Note_off_c, 1, 55, 64
5, 16416, Note_off_c, 1, 51, 64
5, 16416, Note_off_c, 1, 39, 64
5, 16416, Note_off_c, 1, 62, 64
5, 16416, Note_off_c, 1, 46, 64
5, 16416, Note_on_c, 1, 55, 100
5, 16416, Note_on_c, 1, 51, 100
5, 16416, Note_on_c, 1, 39, 100
5, 16416, Note_on_c, 1, 62, 100
5, 16416, Note_on_c, 1, 46, 100
5, 16437, Control_c, 1, 7, 103
5, 16540, Control_c, 1, 7, 103
5, 16560, Note_off_c, 1, 46, 64
5, 16560, Note_off_c, 1, 62, 64
5, 16560, Note_off_c, 1, 39, 64
5, 16560, Note_off_c, 1, 51, 64
5, 16560, Note_off_c, 1, 55, 64
5, 16560, Note_on_c, 1, 55, 100
5, 16560, Note_on_c, 1, 62, 100
5, 16560, Note_on_c, 1, 51, 100
5, 16560, Note_on_c, 1, 39, 100
5, 16560, Note_on_c, 1, 46, 100
5, 16608, Note_off_c, 1, 46, 64
5, 16608, Note_off_c, 1, 39, 64
5, 16608, Note_off_c, 1, 51, 64
5, 16608, Note_off_c, 1, 62, 64
5, 16608, Note_off_c, 1, 55, 64
5, 16608, Note_on_c, 1, 55, 100
5, 16608, Note_on_c, 1, 62, 100
5, 16608, Note_on_c, 1, 51, 100
5, 16608, Note_on_c, 1, 39, 100
5, 16608, Note_on_c, 1, 46, 100
5, 16643, Control_c, 1, 7, 103
5, 16656, Note_off_c, 1, 46, 64
5, 16656, Note_off_c, 1, 39, 64
5, 16656, Note_off_c, 1, 51, 64
5, 16656, Note_off_c, 1, 62, 64
5, 16656, Note_off_c, 1, 55, 64
5, 16656, Note_on_c, 1, 55, 100
5, 16656, Note_on_c, 1, 62, 100
5, 16656, Note_on_c, 1, 51, 100
5, 16656, Note_on_c, 1, 39, 100
5, 16656, Note_on_c, 1, 46, 100
5, 16704, Note_off_c, 1, 46, 64
5, 16704, Note_off_c, 1, 39, 64
5, 16704, Note_off_c, 1, 51, 64
5, 16704, Note_off_c, 1, 62, 64
5, 16704, Note_off_c, 1, 55, 64
5, 16704, Note_on_c, 1, 55, 100
5, 16704, Note_on_c, 1, 62, 100
5, 16704, Note_on_c, 1, 51, 100
5, 16704, Note_on_c, 1, 39, 100
5, 16704, Note_on_c, 1, 46, 100
5, 16746, Control_c, 1, 7, 103
5, 16752, Note_off_c, 1, 55, 64
5, 16752, Note_off_c, 1, 46, 64
5, 16752, Note_off_c, 1, 39, 64
5, 16752, Note_off_c, 1, 51, 64
5, 16752, Note_off_c, 1, 62, 64
5, 16752, Note_on_c, 1, 55, 100
5, 16752, Note_on_c, 1, 62, 100
5, 16752, Note_on_c, 1, 51, 100
5, 16752, Note_on_c, 1, 39, 100
5, 16752, Note_on_c, 1, 46, 100
5, 16800, Note_off_c, 1, 46, 64
5, 16800, Note_off_c, 1, 39, 64
5, 16800, Note_off_c, 1, 51, 64
5, 16800, Note_off_c, 1, 62, 64
5, 16800, Note_off_c, 1, 55, 64
5, 16800, Note_on_c, 1, 55, 100
5, 16800, Note_on_c, 1, 62, 100
5, 16800, Note_on_c, 1, 51, 100
5, 16800, Note_on_c, 1, 39, 100
5, 16800, Note_on_c, 1, 46, 100
5, 16848, Note_off_c, 1, 46, 64
5, 16848, Note_off_c, 1, 39, 64
5, 16848, Note_off_c, 1, 51, 64
5, 16848, Note_off_c, 1, 62, 64
5, 16848, Note_off_c, 1, 55, 64
5, 16848, Note_on_c, 1, 55, 100
5, 16848, Note_on_c, 1, 62, 100
5, 16848, Note_on_c, 1, 51, 100
5, 16848, Note_on_c, 1, 39, 100
5, 16848, Note_on_c, 1, 46, 100
5, 16849, Control_c, 1, 7, 103
5, 16896, Note_off_c, 1, 46, 64
5, 16896, Note_off_c, 1, 39, 64
5, 16896, Note_off_c, 1, 51, 64
5, 16896, Note_off_c, 1, 62, 64
5, 16896, Note_off_c, 1, 55, 64
5, 16896, Note_on_c, 1, 57, 100
5, 16896, Note_on_c, 1, 53, 100
5, 16896, Note_on_c, 1, 41, 100
5, 16896, Note_on_c, 1, 48, 100
5, 16952, Control_c, 1, 7, 103
5, 17040, Note_off_c, 1, 48, 64
5, 17040, Note_off_c, 1, 41, 64
5, 17040, Note_off_c, 1, 53, 64
5, 17040, Note_off_c, 1, 57, 64
5, 17040, Note_on_c, 1, 58, 100
5, 17040, Note_on_c, 1, 55, 100
5, 17040, Note_on_c, 1, 43, 100
5, 17040, Note_on_c, 1, 50, 100
5, 17056, Control_c, 1, 7, 103
5, 17158, Control_c, 1, 7, 103
5, 17184, Note_off_c, 1, 50, 64
5, 17184, Note_off_c, 1, 43, 64
5, 17184, Note_off_c, 1, 55, 64
5, 17184, Note_off_c, 1, 58, 64
5, 17184, Note_on_c, 1, 55, 100
5, 17184, Note_on_c, 1, 51, 100
5, 17184, Note_on_c, 1, 39, 100
5, 17184, Note_on_c, 1, 62, 100
5, 17184, Note_on_c, 1, 46, 100
5, 17262, Control_c, 1, 7, 103
5, 17328, Note_off_c, 1, 46, 64
5, 17328, Note_off_c, 1, 62, 64
5, 17328, Note_off_c, 1, 39, 64
5, 17328, Note_off_c, 1, 51, 64
5, 17328, Note_off_c, 1, 55, 64
5, 17328, Note_on_c, 1, 46, 100
5, 17328, Note_on_c, 1, 39, 100
5, 17328, Note_on_c, 1, 51, 100
5, 17328, Note_on_c, 1, 62, 100
5, 17328, Note_on_c, 1, 55, 100
5, 17365, Control_c, 1, 7, 103
5, 17376, Note_off_c, 1, 55, 64
5, 17376, Note_off_c, 1, 62, 64
5, 17376, Note_off_c, 1, 51, 64
5, 17376, Note_off_c, 1, 39, 64
5, 17376, Note_off_c, 1, 46, 64
5, 17376, Note_on_c, 1, 55, 100
5, 17376, Note_on_c, 1, 62, 100
5, 17376, Note_on_c, 1, 51, 100
5, 17376, Note_on_c, 1, 39, 100
5, 17376, Note_on_c, 1, 46, 100
5, 17424, Note_off_c, 1, 46, 64
5, 17424, Note_off_c, 1, 39, 64
5, 17424, Note_off_c, 1, 51, 64
5, 17424, Note_off_c, 1, 62, 64
5, 17424, Note_off_c, 1, 55, 64
5, 17424, Note_on_c, 1, 46, 100
5, 17424, Note_on_c, 1, 39, 100
5, 17424, Note_on_c, 1, 51, 100
5, 17424, Note_on_c, 1, 62, 100
5, 17424, Note_on_c, 1, 55, 100
5, 17468, Control_c, 1, 7, 103
5, 17472, Note_off_c, 1, 55, 64
5, 17472, Note_off_c, 1, 62, 64
5, 17472, Note_off_c, 1, 51, 64
5, 17472, Note_off_c, 1, 39, 64
5, 17472, Note_off_c, 1, 46, 64
5, 17472, Note_on_c, 1, 55, 100
5, 17472, Note_on_c, 1, 62, 100
5, 17472, Note_on_c, 1, 51, 100
5, 17472, Note_on_c, 1, 39, 100
5, 17472, Note_on_c, 1, 46, 100
5, 17520, Note_off_c, 1, 46, 64
5, 17520, Note_off_c, 1, 39, 64
5, 17520, Note_off_c, 1, 51, 64
5, 17520, Note_off_c, 1, 62, 64
5, 17520, Note_off_c, 1, 55, 64
5, 17520, Note_on_c, 1, 46, 100
5, 17520, Note_on_c, 1, 39, 100
5, 17520, Note_on_c, 1, 51, 100
5, 17520, Note_on_c, 1, 62, 100
5, 17520, Note_on_c, 1, 55, 100
5, 17568, Note_off_c, 1, 55, 64
5, 17568, Note_off_c, 1, 62, 64
5, 17568, Note_off_c, 1, 51, 64
5, 17568, Note_off_c, 1, 39, 64
5, 17568, Note_off_c, 1, 46, 64
5, 17568, Note_on_c, 1, 55, 100
5, 17568, Note_on_c, 1, 62, 100
5, 17568, Note_on_c, 1, 51, 100
5, 17568, Note_on_c, 1, 39, 100
5, 17568, Note_on_c, 1, 46, 100
5, 17571, Control_c, 1, 7, 103
5, 17616, Note_off_c, 1, 46, 64
5, 17616, Note_off_c, 1, 39, 64
5, 17616, Note_off_c, 1, 51, 64
5, 17616, Note_off_c, 1, 62, 64
5, 17616, Note_off_c, 1, 55, 64
5, 17616, Note_on_c, 1, 55, 100
5, 17616, Note_on_c, 1, 62, 100
5, 17616, Note_on_c, 1, 51, 100
5, 17616, Note_on_c, 1, 39, 100
5, 17616, Note_on_c, 1, 46, 100
5, 17664, Note_off_c, 1, 46, 64
5, 17664, Note_off_c, 1, 39, 64
5, 17664, Note_off_c, 1, 51, 64
5, 17664, Note_off_c, 1, 62, 64
5, 17664, Note_off_c, 1, 55, 64
5, 17664, Note_on_c, 1, 46, 100
5, 17664, Note_on_c, 1, 62, 100
5, 17664, Note_on_c, 1, 39, 100
5, 17664, Note_on_c, 1, 51, 100
5, 17664, Note_on_c, 1, 55, 100
5, 17674, Control_c, 1, 7, 103
5, 17777, Control_c, 1, 7, 103
5, 17808, Note_off_c, 1, 55, 64
5, 17808, Note_off_c, 1, 51, 64
5, 17808, Note_off_c, 1, 39, 64
5, 17808, Note_off_c, 1, 62, 64
5, 17808, Note_off_c, 1, 46, 64
5, 17808, Note_on_c, 1, 46, 100
5, 17808, Note_on_c, 1, 62, 100
5, 17808, Note_on_c, 1, 39, 100
5, 17808, Note_on_c, 1, 51, 100
5, 17808, Note_on_c, 1, 55, 100
5, 17880, Control_c, 1, 7, 103
5, 17952, Note_off_c, 1, 55, 64
5, 17952, Note_off_c, 1, 51, 64
5, 17952, Note_off_c, 1, 39, 64
5, 17952, Note_off_c, 1, 62, 64
5, 17952, Note_off_c, 1, 46, 64
5, 17952, Note_on_c, 1, 55, 100
5, 17952, Note_on_c, 1, 51, 100
5, 17952, Note_on_c, 1, 39, 100
5, 17952, Note_on_c, 1, 62, 100
5, 17952, Note_on_c, 1, 46, 100
5, 17983, Control_c, 1, 7, 103
5, 18087, Control_c, 1, 7, 103
5, 18096, Note_off_c, 1, 46, 64
5, 18096, Note_off_c, 1, 62, 64
5, 18096, Note_off_c, 1, 39, 64
5, 18096, Note_off_c, 1, 51, 64
5, 18096, Note_off_c, 1, 55, 64
5, 18096, Note_on_c, 1, 55, 100
5, 18096, Note_on_c, 1, 62, 100
5, 18096, Note_on_c, 1, 51, 100
5, 18096, Note_on_c, 1, 39, 100
5, 18096, Note_on_c, 1, 46, 100
5, 18144, Note_off_c, 1, 46, 64
5, 18144, Note_off_c, 1, 39, 64
5, 18144, Note_off_c, 1, 51, 64
5, 18144, Note_off_c, 1, 62, 64
5, 18144, Note_off_c, 1, 55, 64
5, 18144, Note_on_c, 1, 55, 100
5, 18144, Note_on_c, 1, 62, 100
5, 18144, Note_on_c, 1, 51, 100
5, 18144, Note_on_c, 1, 39, 100
5, 18144, Note_on_c, 1, 46, 100
5, 18189, Control_c, 1, 7, 103
5, 18192, Note_off_c, 1, 46, 64
5, 18192, Note_off_c, 1, 39, 64
5, 18192, Note_off_c, 1, 51, 64
5, 18192, Note_off_c, 1, 62, 64
5, 18192, Note_off_c, 1, 55, 64
5, 18192, Note_on_c, 1, 55, 100
5, 18192, Note_on_c, 1, 62, 100
5, 18192, Note_on_c, 1, 51, 100
5, 18192, Note_on_c, 1, 39, 100
5, 18192, Note_on_c, 1, 46, 100
5, 18240, Note_off_c, 1, 46, 64
5, 18240, Note_off_c, 1, 39, 64
5, 18240, Note_off_c, 1, 51, 64
5, 18240, Note_off_c, 1, 62, 64
5, 18240, Note_off_c, 1, 55, 64
5, 18240, Note_on_c, 1, 55, 100
5, 18240, Note_on_c, 1, 62, 100
5, 18240, Note_on_c, 1, 51, 100
5, 18240, Note_on_c, 1, 39, 100
5, 18240, Note_on_c, 1, 46, 100
5, 18288, Note_off_c, 1, 46, 64
5, 18288, Note_off_c, 1, 39, 64
5, 18288, Note_off_c, 1, 51, 64
5, 18288, Note_off_c, 1, 62, 64
5, 18288, Note_off_c, 1, 55, 64
5, 18288, Note_on_c, 1, 55, 100
5, 18288, Note_on_c, 1, 62, 100
5, 18288, Note_on_c, 1, 51, 100
5, 18288, Note_on_c, 1, 39, 100
5, 18288, Note_on_c, 1, 46, 100
5, 18293, Control_c, 1, 7, 103
5, 18336, Note_off_c, 1, 46, 64
5, 18336, Note_off_c, 1, 39, 64
5, 18336, Note_off_c, 1, 51, 64
5, 18336, Note_off_c, 1, 62, 64
5, 18336, Note_off_c, 1, 55, 64
5, 18336, Note_on_c, 1, 55, 100
5, 18336, Note_on_c, 1, 62, 100
5, 18336, Note_on_c, 1, 51, 100
5, 18336, Note_on_c, 1, 39, 100
5, 18336, Note_on_c, 1, 46, 100
5, 18384, Note_off_c, 1, 46, 64
5, 18384, Note_off_c, 1, 39, 64
5, 18384, Note_off_c, 1, 51, 64
5, 18384, Note_off_c, 1, 62, 64
5, 18384, Note_off_c, 1, 55, 64
5, 18384, Note_on_c, 1, 55, 100
5, 18384, Note_on_c, 1, 62, 100
5, 18384, Note_on_c, 1, 51, 100
5, 18384, Note_on_c, 1, 39, 100
5, 18384, Note_on_c, 1, 46, 100
5, 18395, Control_c, 1, 7, 103
5, 18432, Note_off_c, 1, 46, 64
5, 18432, Note_off_c, 1, 39, 64
5, 18432, Note_off_c, 1, 51, 64
5, 18432, Note_off_c, 1, 62, 64
5, 18432, Note_off_c, 1, 55, 64
5, 18432, Note_on_c, 1, 57, 100
5, 18432, Note_on_c, 1, 53, 100
5, 18432, Note_on_c, 1, 41, 100
5, 18432, Note_on_c, 1, 48, 100
5, 18499, Control_c, 1, 7, 103
5, 18576, Note_off_c, 1, 48, 64
5, 18576, Note_off_c, 1, 41, 64
5, 18576, Note_off_c, 1, 53, 64
5, 18576, Note_off_c, 1, 57, 64
5, 18576, Note_on_c, 1, 58, 100
5, 18576, Note_on_c, 1, 55, 100
5, 18576, Note_on_c, 1, 43, 100
5, 18576, Note_on_c, 1, 50, 100
5, 18602, Control_c, 1, 7, 103
5, 18705, Control_c, 1, 7, 103
5, 18720, Note_off_c, 1, 50, 64
5, 18720, Note_off_c, 1, 43, 64
5, 18720, Note_off_c, 1, 55, 64
5, 18720, Note_off_c, 1, 58, 64
5, 18720, Note_on_c, 1, 55, 100
5, 18720, Note_on_c, 1, 51, 100
5, 18720, Note_on_c, 1, 39, 100
5, 18720, Note_on_c, 1, 62, 100
5, 18720, Note_on_c, 1, 46, 100
5, 18808, Control_c, 1, 7, 103
5, 18864, Note_off_c, 1, 46, 64
5, 18864, Note_off_c, 1, 62, 64
5, 18864, Note_off_c, 1, 39, 64
5, 18864, Note_off_c, 1, 51, 64
5, 18864, Note_off_c, 1, 55, 64
5, 18864, Note_on_c, 1, 55, 100
5, 18864, Note_on_c, 1, 62, 100
5, 18864, Note_on_c, 1, 51, 100
5, 18864, Note_on_c, 1, 39, 100
5, 18864, Note_on_c, 1, 46, 100
5, 18911, Control_c, 1, 7, 103
5, 18912, Note_off_c, 1, 46, 64
5, 18912, Note_off_c, 1, 39, 64
5, 18912, Note_off_c, 1, 51, 64
5, 18912, Note_off_c, 1, 62, 64
5, 18912, Note_off_c, 1, 55, 64
5, 18912, Note_on_c, 1, 55, 100
5, 18912, Note_on_c, 1, 62, 100
5, 18912, Note_on_c, 1, 51, 100
5, 18912, Note_on_c, 1, 39, 100
5, 18912, Note_on_c, 1, 46, 100
5, 18960, Note_off_c, 1, 46, 64
5, 18960, Note_off_c, 1, 39, 64
5, 18960, Note_off_c, 1, 51, 64
5, 18960, Note_off_c, 1, 62, 64
5, 18960, Note_off_c, 1, 55, 64
5, 18960, Note_on_c, 1, 55, 100
5, 18960, Note_on_c, 1, 62, 100
5, 18960, Note_on_c, 1, 51, 100
5, 18960, Note_on_c, 1, 39, 100
5, 18960, Note_on_c, 1, 46, 100
5, 19008, Note_off_c, 1, 46, 64
5, 19008, Note_off_c, 1, 39, 64
5, 19008, Note_off_c, 1, 51, 64
5, 19008, Note_off_c, 1, 62, 64
5, 19008, Note_off_c, 1, 55, 64
5, 19008, Note_on_c, 1, 55, 100
5, 19008, Note_on_c, 1, 62, 100
5, 19008, Note_on_c, 1, 51, 100
5, 19008, Note_on_c, 1, 39, 100
5, 19008, Note_on_c, 1, 46, 100
5, 19014, Control_c, 1, 7, 103
5, 19056, Note_off_c, 1, 46, 64
5, 19056, Note_off_c, 1, 39, 64
5, 19056, Note_off_c, 1, 51, 64
5, 19056, Note_off_c, 1, 62, 64
5, 19056, Note_off_c, 1, 55, 64
5, 19056, Note_on_c, 1, 55, 100
5, 19056, Note_on_c, 1, 62, 100
5, 19056, Note_on_c, 1, 51, 100
5, 19056, Note_on_c, 1, 39, 100
5, 19056, Note_on_c, 1, 46, 100
5, 19104, Note_off_c, 1, 46, 64
5, 19104, Note_off_c, 1, 39, 64
5, 19104, Note_off_c, 1, 51, 64
5, 19104, Note_off_c, 1, 62, 64
5, 19104, Note_off_c, 1, 55, 64
5, 19104, Note_on_c, 1, 55, 100
5, 19104, Note_on_c, 1, 62, 100
5, 19104, Note_on_c, 1, 51, 100
5, 19104, Note_on_c, 1, 39, 100
5, 19104, Note_on_c, 1, 46, 100
5, 19117, Control_c, 1, 7, 103
5, 19152, Note_off_c, 1, 46, 64
5, 19152, Note_off_c, 1, 39, 64
5, 19152, Note_off_c, 1, 51, 64
5, 19152, Note_off_c, 1, 62, 64
5, 19152, Note_off_c, 1, 55, 64
5, 19152, Note_on_c, 1, 55, 100
5, 19152, Note_on_c, 1, 62, 100
5, 19152, Note_on_c, 1, 51, 100
5, 19152, Note_on_c, 1, 39, 100
5, 19152, Note_on_c, 1, 46, 100
5, 19200, Note_off_c, 1, 46, 64
5, 19200, Note_off_c, 1, 39, 64
5, 19200, Note_off_c, 1, 51, 64
5, 19200, Note_off_c, 1, 62, 64
5, 19200, Note_off_c, 1, 55, 64
5, 19200, Note_on_c, 1, 57, 100
5, 19200, Note_on_c, 1, 53, 100
5, 19200, Note_on_c, 1, 41, 100
5, 19200, Note_on_c, 1, 48, 100
5, 19220, Control_c, 1, 7, 103
5, 19324, Control_c, 1, 7, 103
5, 19344, Note_off_c, 1, 48, 64
5, 19344, Note_off_c, 1, 41, 64
5, 19344, Note_off_c, 1, 53, 64
5, 19344, Note_off_c, 1, 57, 64
5, 19344, Note_on_c, 1, 58, 100
5, 19344, Note_on_c, 1, 55, 100
5, 19344, Note_on_c, 1, 43, 100
5, 19344, Note_on_c, 1, 50, 100
5, 19426, Control_c, 1, 7, 103
5, 19488, Note_off_c, 1, 58, 64
5, 19488, Note_off_c, 1, 50, 64
5, 19488, Note_off_c, 1, 43, 64
5, 19488, Note_off_c, 1, 55, 64
5, 19488, Note_on_c, 1, 55, 100
5, 19488, Note_on_c, 1, 51, 100
5, 19488, Note_on_c, 1, 39, 100
5, 19488, Note_on_c, 1, 62, 100
5, 19488, Note_on_c, 1, 46, 100
5, 19530, Control_c, 1, 7, 103
5, 19632, Note_off_c, 1, 46, 64
5, 19632, Note_off_c, 1, 62, 64
5, 19632, Note_off_c, 1, 39, 64
5, 19632, Note_off_c, 1, 51, 64
5, 19632, Note_off_c, 1, 55, 64
5, 19632, Note_on_c, 1, 55, 100
5, 19632, Note_on_c, 1, 62, 100
5, 19632, Note_on_c, 1, 51, 100
5, 19632, Note_on_c, 1, 39, 100
5, 19632, Note_on_c, 1, 46, 100
5, 19633, Control_c, 1, 7, 103
5, 19680, Note_off_c, 1, 46, 64
5, 19680, Note_off_c, 1, 39, 64
5, 19680, Note_off_c, 1, 51, 64
5, 19680, Note_off_c, 1, 62, 64
5, 19680, Note_off_c, 1, 55, 64
5, 19680, Note_on_c, 1, 55, 100
5, 19680, Note_on_c, 1, 62, 100
5, 19680, Note_on_c, 1, 51, 100
5, 19680, Note_on_c, 1, 39, 100
5, 19680, Note_on_c, 1, 46, 100
5, 19728, Note_off_c, 1, 46, 64
5, 19728, Note_off_c, 1, 39, 64
5, 19728, Note_off_c, 1, 51, 64
5, 19728, Note_off_c, 1, 62, 64
5, 19728, Note_off_c, 1, 55, 64
5, 19728, Note_on_c, 1, 55, 100
5, 19728, Note_on_c, 1, 62, 100
5, 19728, Note_on_c, 1, 51, 100
5, 19728, Note_on_c, 1, 39, 100
5, 19728, Note_on_c, 1, 46, 100
5, 19736, Control_c, 1, 7, 103
5, 19776, Note_off_c, 1, 46, 64
5, 19776, Note_off_c, 1, 39, 64
5, 19776, Note_off_c, 1, 51, 64
5, 19776, Note_off_c, 1, 62, 64
5, 19776, Note_off_c, 1, 55, 64
5, 19776, Note_on_c, 1, 55, 100
5, 19776, Note_on_c, 1, 62, 100
5, 19776, Note_on_c, 1, 51, 100
5, 19776, Note_on_c, 1, 39, 100
5, 19776, Note_on_c, 1, 46, 100
5, 19824, Note_off_c, 1, 46, 64
5, 19824, Note_off_c, 1, 39, 64
5, 19824, Note_off_c, 1, 51, 64
5, 19824, Note_off_c, 1, 62, 64
5, 19824, Note_off_c, 1, 55, 64
5, 19824, Note_on_c, 1, 55, 100
5, 19824, Note_on_c, 1, 62, 100
5, 19824, Note_on_c, 1, 51, 100
5, 19824, Note_on_c, 1, 39, 100
5, 19824, Note_on_c, 1, 46, 100
5, 19839, Control_c, 1, 7, 103
5, 19872, Note_off_c, 1, 46, 64
5, 19872, Note_off_c, 1, 39, 64
5, 19872, Note_off_c, 1, 51, 64
5, 19872, Note_off_c, 1, 62, 64
5, 19872, Note_off_c, 1, 55, 64
5, 19872, Note_on_c, 1, 55, 100
5, 19872, Note_on_c, 1, 62, 100
5, 19872, Note_on_c, 1, 51, 100
5, 19872, Note_on_c, 1, 39, 100
5, 19872, Note_on_c, 1, 46, 100
5, 19920, Note_off_c, 1, 46, 64
5, 19920, Note_off_c, 1, 39, 64
5, 19920, Note_off_c, 1, 51, 64
5, 19920, Note_off_c, 1, 62, 64
5, 19920, Note_off_c, 1, 55, 64
5, 19920, Note_on_c, 1, 55, 100
5, 19920, Note_on_c, 1, 62, 100
5, 19920, Note_on_c, 1, 51, 100
5, 19920, Note_on_c, 1, 39, 100
5, 19920, Note_on_c, 1, 46, 100
5, 19942, Control_c, 1, 7, 103
5, 19968, Note_off_c, 1, 46, 64
5, 19968, Note_off_c, 1, 39, 64
5, 19968, Note_off_c, 1, 51, 64
5, 19968, Note_off_c, 1, 62, 64
5, 19968, Note_off_c, 1, 55, 64
5, 19968, Note_on_c, 1, 57, 100
5, 19968, Note_on_c, 1, 53, 100
5, 19968, Note_on_c, 1, 41, 100
5, 19968, Note_on_c, 1, 48, 100
5, 20045, Control_c, 1, 7, 103
5, 20112, Note_off_c, 1, 48, 64
5, 20112, Note_off_c, 1, 41, 64
5, 20112, Note_off_c, 1, 53, 64
5, 20112, Note_off_c, 1, 57, 64
5, 20112, Note_on_c, 1, 58, 100
5, 20112, Note_on_c, 1, 55, 100
5, 20112, Note_on_c, 1, 43, 100
5, 20112, Note_on_c, 1, 50, 100
5, 20148, Control_c, 1, 7, 103
5, 20251, Control_c, 1, 7, 103
5, 20256, Note_off_c, 1, 50, 64
5, 20256, Note_off_c, 1, 43, 64
5, 20256, Note_off_c, 1, 55, 64
5, 20256, Note_off_c, 1, 58, 64
5, 20256, Note_on_c, 1, 55, 100
5, 20256, Note_on_c, 1, 51, 100
5, 20256, Note_on_c, 1, 39, 100
5, 20256, Note_on_c, 1, 62, 100
5, 20256, Note_on_c, 1, 46, 100
5, 20355, Control_c, 1, 7, 103
5, 20400, Note_off_c, 1, 46, 64
5, 20400, Note_off_c, 1, 62, 64
5, 20400, Note_off_c, 1, 39, 64
5, 20400, Note_off_c, 1, 51, 64
5, 20400, Note_off_c, 1, 55, 64
5, 20400, Note_on_c, 1, 55, 100
5, 20400, Note_on_c, 1, 62, 100
5, 20400, Note_on_c, 1, 51, 100
5, 20400, Note_on_c, 1, 39, 100
5, 20400, Note_on_c, 1, 46, 100
5, 20448, Note_off_c, 1, 46, 64
5, 20448, Note_off_c, 1, 39, 64
5, 20448, Note_off_c, 1, 51, 64
5, 20448, Note_off_c, 1, 62, 64
5, 20448, Note_off_c, 1, 55, 64
5, 20448, Note_on_c, 1, 55, 100
5, 20448, Note_on_c, 1, 62, 100
5, 20448, Note_on_c, 1, 51, 100
5, 20448, Note_on_c, 1, 39, 100
5, 20448, Note_on_c, 1, 46, 100
5, 20457, Control_c, 1, 7, 103
5, 20496, Note_off_c, 1, 46, 64
5, 20496, Note_off_c, 1, 39, 64
5, 20496, Note_off_c, 1, 51, 64
5, 20496, Note_off_c, 1, 62, 64
5, 20496, Note_off_c, 1, 55, 64
5, 20496, Note_on_c, 1, 55, 100
5, 20496, Note_on_c, 1, 62, 100
5, 20496, Note_on_c, 1, 51, 100
5, 20496, Note_on_c, 1, 39, 100
5, 20496, Note_on_c, 1, 46, 100
5, 20544, Note_off_c, 1, 46, 64
5, 20544, Note_off_c, 1, 39, 64
5, 20544, Note_off_c, 1, 51, 64
5, 20544, Note_off_c, 1, 62, 64
5, 20544, Note_off_c, 1, 55, 64
5, 20544, Note_on_c, 1, 55, 100
5, 20544, Note_on_c, 1, 62, 100
5, 20544, Note_on_c, 1, 51, 100
5, 20544, Note_on_c, 1, 39, 100
5, 20544, Note_on_c, 1, 46, 100
5, 20561, Control_c, 1, 7, 103
5, 20592, Note_off_c, 1, 46, 64
5, 20592, Note_off_c, 1, 39, 64
5, 20592, Note_off_c, 1, 51, 64
5, 20592, Note_off_c, 1, 62, 64
5, 20592, Note_off_c, 1, 55, 64
5, 20592, Note_on_c, 1, 55, 100
5, 20592, Note_on_c, 1, 62, 100
5, 20592, Note_on_c, 1, 51, 100
5, 20592, Note_on_c, 1, 39, 100
5, 20592, Note_on_c, 1, 46, 100
5, 20640, Note_off_c, 1, 46, 64
5, 20640, Note_off_c, 1, 39, 64
5, 20640, Note_off_c, 1, 51, 64
5, 20640, Note_off_c, 1, 62, 64
5, 20640, Note_off_c, 1, 55, 64
5, 20640, Note_on_c, 1, 55, 100
5, 20640, Note_on_c, 1, 62, 100
5, 20640, Note_on_c, 1, 51, 100
5, 20640, Note_on_c, 1, 39, 100
5, 20640, Note_on_c, 1, 46, 100
5, 20663, Control_c, 1, 7, 103
5, 20688, Note_off_c, 1, 46, 64
5, 20688, Note_off_c, 1, 39, 64
5, 20688, Note_off_c, 1, 51, 64
5, 20688, Note_off_c, 1, 62, 64
5, 20688, Note_off_c, 1, 55, 64
5, 20688, Note_on_c, 1, 55, 100
5, 20688, Note_on_c, 1, 62, 100
5, 20688, Note_on_c, 1, 51, 100
5, 20688, Note_on_c, 1, 39, 100
5, 20688, Note_on_c, 1, 46, 100
5, 20736, Note_off_c, 1, 46, 64
5, 20736, Note_off_c, 1, 39, 64
5, 20736, Note_off_c, 1, 51, 64
5, 20736, Note_off_c, 1, 62, 64
5, 20736, Note_off_c, 1, 55, 64
5, 20736, Note_on_c, 1, 57, 100
5, 20736, Note_on_c, 1, 53, 100
5, 20736, Note_on_c, 1, 41, 100
5, 20736, Note_on_c, 1, 48, 100
5, 20767, Control_c, 1, 7, 103
5, 20870, Control_c, 1, 7, 103
5, 20880, Note_off_c, 1, 53, 64
5, 20880, Note_off_c, 1, 57, 64
5, 20880, Note_off_c, 1, 48, 64
5, 20880, Note_off_c, 1, 41, 64
5, 20880, Note_on_c, 1, 58, 100
5, 20880, Note_on_c, 1, 55, 100
5, 20880, Note_on_c, 1, 43, 100
5, 20880, Note_on_c, 1, 50, 100
5, 20973, Control_c, 1, 7, 103
5, 21024, Note_off_c, 1, 58, 64
5, 21024, Note_off_c, 1, 50, 64
5, 21024, Note_off_c, 1, 43, 64
5, 21024, Note_off_c, 1, 55, 64
5, 21024, Note_on_c, 1, 55, 100
5, 21024, Note_on_c, 1, 51, 100
5, 21024, Note_on_c, 1, 39, 100
5, 21024, Note_on_c, 1, 62, 100
5, 21024, Note_on_c, 1, 46, 100
5, 21076, Control_c, 1, 7, 103
5, 21168, Note_off_c, 1, 51, 64
5, 21168, Note_off_c, 1, 55, 64
5, 21168, Note_off_c, 1, 46, 64
5, 21168, Note_off_c, 1, 62, 64
5, 21168, Note_off_c, 1, 39, 64
5, 21168, Note_on_c, 1, 55, 100
5, 21168, Note_on_c, 1, 62, 100
5, 21168, Note_on_c, 1, 51, 100
5, 21168, Note_on_c, 1, 39, 100
5, 21168, Note_on_c, 1, 46, 100
5, 21179, Control_c, 1, 7, 103
5, 21216, Note_off_c, 1, 55, 64
5, 21216, Note_off_c, 1, 46, 64
5, 21216, Note_off_c, 1, 39, 64
5, 21216, Note_off_c, 1, 51, 64
5, 21216, Note_off_c, 1, 62, 64
5, 21216, Note_on_c, 1, 55, 100
5, 21216, Note_on_c, 1, 62, 100
5, 21216, Note_on_c, 1, 51, 100
5, 21216, Note_on_c, 1, 39, 100
5, 21216, Note_on_c, 1, 46, 100
5, 21264, Note_off_c, 1, 46, 64
5, 21264, Note_off_c, 1, 39, 64
5, 21264, Note_off_c, 1, 51, 64
5, 21264, Note_off_c, 1, 62, 64
5, 21264, Note_off_c, 1, 55, 64
5, 21264, Note_on_c, 1, 55, 100
5, 21264, Note_on_c, 1, 62, 100
5, 21264, Note_on_c, 1, 51, 100
5, 21264, Note_on_c, 1, 39, 100
5, 21264, Note_on_c, 1, 46, 100
5, 21282, Control_c, 1, 7, 103
5, 21312, Note_off_c, 1, 62, 64
5, 21312, Note_off_c, 1, 55, 64
5, 21312, Note_off_c, 1, 46, 64
5, 21312, Note_off_c, 1, 39, 64
5, 21312, Note_off_c, 1, 51, 64
5, 21312, Note_on_c, 1, 55, 100
5, 21312, Note_on_c, 1, 62, 100
5, 21312, Note_on_c, 1, 51, 100
5, 21312, Note_on_c, 1, 39, 100
5, 21312, Note_on_c, 1, 46, 100
5, 21360, Note_off_c, 1, 46, 64
5, 21360, Note_off_c, 1, 39, 64
5, 21360, Note_off_c, 1, 51, 64
5, 21360, Note_off_c, 1, 62, 64
5, 21360, Note_off_c, 1, 55, 64
5, 21360, Note_on_c, 1, 55, 100
5, 21360, Note_on_c, 1, 62, 100
5, 21360, Note_on_c, 1, 51, 100
5, 21360, Note_on_c, 1, 39, 100
5, 21360, Note_on_c, 1, 46, 100
5, 21386, Control_c, 1, 7, 103
5, 21408, Note_off_c, 1, 62, 64
5, 21408, Note_off_c, 1, 55, 64
5, 21408, Note_off_c, 1, 46, 64
5, 21408, Note_off_c, 1, 39, 64
5, 21408, Note_off_c, 1, 51, 64
5, 21408, Note_on_c, 1, 55, 100
5, 21408, Note_on_c, 1, 62, 100
5, 21408, Note_on_c, 1, 51, 100
5, 21408, Note_on_c, 1, 39, 100
5, 21408, Note_on_c, 1, 46, 100
5, 21456, Note_off_c, 1, 62, 64
5, 21456, Note_off_c, 1, 55, 64
5, 21456, Note_off_c, 1, 46, 64
5, 21456, Note_off_c, 1, 39, 64
5, 21456, Note_off_c, 1, 51, 64
5, 21456, Note_on_c, 1, 55, 100
5, 21456, Note_on_c, 1, 62, 100
5, 21456, Note_on_c, 1, 51, 100
5, 21456, Note_on_c, 1, 39, 100
5, 21456, Note_on_c, 1, 46, 100
5, 21488, Control_c, 1, 7, 103
5, 21504, Note_off_c, 1, 46, 64
5, 21504, Note_off_c, 1, 39, 64
5, 21504, Note_off_c, 1, 51, 64
5, 21504, Note_off_c, 1, 62, 64
5, 21504, Note_off_c, 1, 55, 64
5, 21504, Note_on_c, 1, 57, 100
5, 21504, Note_on_c, 1, 53, 100
5, 21504, Note_on_c, 1, 41, 100
5, 21504, Note_on_c, 1, 48, 100
5, 21592, Control_c, 1, 7, 103
5, 21648, Note_off_c, 1, 57, 64
5, 21648, Note_off_c, 1, 53, 64
5, 21648, Note_off_c, 1, 48, 64
5, 21648, Note_off_c, 1, 41, 64
5, 21648, Note_on_c, 1, 58, 100
5, 21648, Note_on_c, 1, 55, 100
5, 21648, Note_on_c, 1, 43, 100
5, 21648, Note_on_c, 1, 50, 100
5, 21694, Control_c, 1, 7, 103
5, 21792, Note_off_c, 1, 43, 64
5, 21792, Note_off_c, 1, 58, 64
5, 21792, Note_off_c, 1, 55, 64
5, 21792, Note_off_c, 1, 50, 64
5, 21792, Note_on_c, 1, 55, 100
5, 21792, Note_on_c, 1, 51, 100
5, 21792, Note_on_c, 1, 39, 100
5, 21792, Note_on_c, 1, 62, 100
5, 21792, Note_on_c, 1, 46, 100
5, 21798, Control_c, 1, 7, 103
5, 21901, Control_c, 1, 7, 103
5, 21936, Note_off_c, 1, 62, 64
5, 21936, Note_off_c, 1, 39, 64
5, 21936, Note_off_c, 1, 51, 64
5, 21936, Note_off_c, 1, 46, 64
5, 21936, Note_off_c, 1, 55, 64
5, 21936, Note_on_c, 1, 55, 100
5, 21936, Note_on_c, 1, 62, 100
5, 21936, Note_on_c, 1, 51, 100
5, 21936, Note_on_c, 1, 39, 100
5, 21936, Note_on_c, 1, 46, 100
5, 21984, Note_off_c, 1, 46, 64
5, 21984, Note_off_c, 1, 39, 64
5, 21984, Note_off_c, 1, 51, 64
5, 21984, Note_off_c, 1, 62, 64
5, 21984, Note_off_c, 1, 55, 64
5, 21984, Note_on_c, 1, 55, 100
5, 21984, Note_on_c, 1, 62, 100
5, 21984, Note_on_c, 1, 51, 100
5, 21984, Note_on_c, 1, 39, 100
5, 21984, Note_on_c, 1, 46, 100
5, 22004, Control_c, 1, 7, 103
5, 22032, Note_off_c, 1, 51, 64
5, 22032, Note_off_c, 1, 62, 64
5, 22032, Note_off_c, 1, 55, 64
5, 22032, Note_off_c, 1, 46, 64
5, 22032, Note_off_c, 1, 39, 64
5, 22032, Note_on_c, 1, 55, 100
5, 22032, Note_on_c, 1, 62, 100
5, 22032, Note_on_c, 1, 51, 100
5, 22032, Note_on_c, 1, 39, 100
5, 22032, Note_on_c, 1, 46, 100
5, 22080, Note_off_c, 1, 39, 64
5, 22080, Note_off_c, 1, 51, 64
5, 22080, Note_off_c, 1, 62, 64
5, 22080, Note_off_c, 1, 46, 64
5, 22080, Note_off_c, 1, 55, 64
5, 22080, Note_on_c, 1, 55, 100
5, 22080, Note_on_c, 1, 62, 100
5, 22080, Note_on_c, 1, 51, 100
5, 22080, Note_on_c, 1, 39, 100
5, 22080, Note_on_c, 1, 46, 100
5, 22107, Control_c, 1, 7, 103
5, 22128, Note_off_c, 1, 55, 64
5, 22128, Note_off_c, 1, 46, 64
5, 22128, Note_off_c, 1, 39, 64
5, 22128, Note_off_c, 1, 51, 64
5, 22128, Note_off_c, 1, 62, 64
5, 22128, Note_on_c, 1, 55, 100
5, 22128, Note_on_c, 1, 62, 100
5, 22128, Note_on_c, 1, 51, 100
5, 22128, Note_on_c, 1, 39, 100
5, 22128, Note_on_c, 1, 46, 100
5, 22176, Note_off_c, 1, 51, 64
5, 22176, Note_off_c, 1, 62, 64
5, 22176, Note_off_c, 1, 46, 64
5, 22176, Note_off_c, 1, 39, 64
5, 22176, Note_off_c, 1, 55, 64
5, 22176, Note_on_c, 1, 55, 100
5, 22176, Note_on_c, 1, 62, 100
5, 22176, Note_on_c, 1, 51, 100
5, 22176, Note_on_c, 1, 39, 100
5, 22176, Note_on_c, 1, 46, 100
5, 22210, Control_c, 1, 7, 103
5, 22224, Note_off_c, 1, 55, 64
5, 22224, Note_off_c, 1, 46, 64
5, 22224, Note_off_c, 1, 39, 64
5, 22224, Note_off_c, 1, 51, 64
5, 22224, Note_off_c, 1, 62, 64
5, 22224, Note_on_c, 1, 55, 100
5, 22224, Note_on_c, 1, 62, 100
5, 22224, Note_on_c, 1, 51, 100
5, 22224, Note_on_c, 1, 39, 100
5, 22224, Note_on_c, 1, 46, 100
5, 22272, Note_off_c, 1, 51, 64
5, 22272, Note_off_c, 1, 62, 64
5, 22272, Note_off_c, 1, 46, 64
5, 22272, Note_off_c, 1, 39, 64
5, 22272, Note_off_c, 1, 55, 64
5, 22272, Note_on_c, 1, 57, 100
5, 22272, Note_on_c, 1, 53, 100
5, 22272, Note_on_c, 1, 41, 100
5, 22272, Note_on_c, 1, 48, 100
5, 22313, Control_c, 1, 7, 103
5, 22416, Note_off_c, 1, 53, 64
5, 22416, Note_off_c, 1, 57, 64
5, 22416, Note_off_c, 1, 48, 64
5, 22416, Note_off_c, 1, 41, 64
5, 22416, Note_on_c, 1, 58, 100
5, 22416, Note_on_c, 1, 55, 100
5, 22416, Note_on_c, 1, 43, 100
5, 22416, Note_on_c, 1, 50, 100
5, 22416, Control_c, 1, 7, 103
5, 22519, Control_c, 1, 7, 103
5, 22560, Note_off_c, 1, 43, 64
5, 22560, Note_off_c, 1, 50, 64
5, 22560, Note_off_c, 1, 55, 64
5, 22560, Note_off_c, 1, 58, 64
5, 22560, Note_on_c, 1, 55, 100
5, 22560, Note_on_c, 1, 51, 100
5, 22560, Note_on_c, 1, 39, 100
5, 22560, Note_on_c, 1, 62, 100
5, 22560, Note_on_c, 1, 46, 100
5, 22623, Control_c, 1, 7, 103
5, 22704, Note_off_c, 1, 62, 64
5, 22704, Note_off_c, 1, 39, 64
5, 22704, Note_off_c, 1, 46, 64
5, 22704, Note_off_c, 1, 55, 64
5, 22704, Note_off_c, 1, 51, 64
5, 22704, Note_on_c, 1, 55, 100
5, 22704, Note_on_c, 1, 62, 100
5, 22704, Note_on_c, 1, 51, 100
5, 22704, Note_on_c, 1, 39, 100
5, 22704, Note_on_c, 1, 46, 100
5, 22725, Control_c, 1, 7, 103
5, 22752, Note_off_c, 1, 55, 64
5, 22752, Note_off_c, 1, 62, 64
5, 22752, Note_off_c, 1, 46, 64
5, 22752, Note_off_c, 1, 39, 64
5, 22752, Note_off_c, 1, 51, 64
5, 22752, Note_on_c, 1, 55, 100
5, 22752, Note_on_c, 1, 62, 100
5, 22752, Note_on_c, 1, 51, 100
5, 22752, Note_on_c, 1, 39, 100
5, 22752, Note_on_c, 1, 46, 100
5, 22800, Note_off_c, 1, 62, 64
5, 22800, Note_off_c, 1, 55, 64
5, 22800, Note_off_c, 1, 46, 64
5, 22800, Note_off_c, 1, 39, 64
5, 22800, Note_off_c, 1, 51, 64
5, 22800, Note_on_c, 1, 55, 100
5, 22800, Note_on_c, 1, 62, 100
5, 22800, Note_on_c, 1, 51, 100
5, 22800, Note_on_c, 1, 39, 100
5, 22800, Note_on_c, 1, 46, 100
5, 22829, Control_c, 1, 7, 103
5, 22848, Note_off_c, 1, 51, 64
5, 22848, Note_off_c, 1, 62, 64
5, 22848, Note_off_c, 1, 46, 64
5, 22848, Note_off_c, 1, 39, 64
5, 22848, Note_off_c, 1, 55, 64
5, 22848, Note_on_c, 1, 55, 100
5, 22848, Note_on_c, 1, 62, 100
5, 22848, Note_on_c, 1, 51, 100
5, 22848, Note_on_c, 1, 39, 100
5, 22848, Note_on_c, 1, 46, 100
5, 22896, Note_off_c, 1, 55, 64
5, 22896, Note_off_c, 1, 62, 64
5, 22896, Note_off_c, 1, 46, 64
5, 22896, Note_off_c, 1, 39, 64
5, 22896, Note_off_c, 1, 51, 64
5, 22896, Note_on_c, 1, 55, 100
5, 22896, Note_on_c, 1, 62, 100
5, 22896, Note_on_c, 1, 51, 100
5, 22896, Note_on_c, 1, 39, 100
5, 22896, Note_on_c, 1, 46, 100
5, 22932, Control_c, 1, 7, 103
5, 22944, Note_off_c, 1, 62, 64
5, 22944, Note_off_c, 1, 55, 64
5, 22944, Note_off_c, 1, 46, 64
5, 22944, Note_off_c, 1, 39, 64
5, 22944, Note_off_c, 1, 51, 64
5, 22944, Note_on_c, 1, 55, 100
5, 22944, Note_on_c, 1, 62, 100
5, 22944, Note_on_c, 1, 51, 100
5, 22944, Note_on_c, 1, 39, 100
5, 22944, Note_on_c, 1, 46, 100
5, 22992, Note_off_c, 1, 51, 64
5, 22992, Note_off_c, 1, 62, 64
5, 22992, Note_off_c, 1, 46, 64
5, 22992, Note_off_c, 1, 39, 64
5, 22992, Note_off_c, 1, 55, 64
5, 22992, Note_on_c, 1, 55, 100
5, 22992, Note_on_c, 1, 62, 100
5, 22992, Note_on_c, 1, 51, 100
5, 22992, Note_on_c, 1, 39, 100
5, 22992, Note_on_c, 1, 46, 100
5, 23035, Control_c, 1, 7, 103
5, 23040, Note_off_c, 1, 55, 64
5, 23040, Note_off_c, 1, 62, 64
5, 23040, Note_off_c, 1, 46, 64
5, 23040, Note_off_c, 1, 39, 64
5, 23040, Note_off_c, 1, 51, 64
5, 23040, Note_on_c, 1, 57, 100
5, 23040, Note_on_c, 1, 53, 100
5, 23040, Note_on_c, 1, 41, 100
5, 23040, Note_on_c, 1, 48, 100
5, 23138, Control_c, 1, 7, 103
5, 23184, Note_off_c, 1, 53, 64
5, 23184, Note_off_c, 1, 57, 64
5, 23184, Note_off_c, 1, 48, 64
5, 23184, Note_off_c, 1, 41, 64
5, 23184, Note_on_c, 1, 58, 100
5, 23184, Note_on_c, 1, 55, 100
5, 23184, Note_on_c, 1, 43, 100
5, 23184, Note_on_c, 1, 50, 100
5, 23241, Control_c, 1, 7, 103
5, 23328, Note_off_c, 1, 43, 64
5, 23328, Note_off_c, 1, 58, 64
5, 23328, Note_off_c, 1, 55, 64
5, 23328, Note_off_c, 1, 50, 64
5, 23328, Note_on_c, 1, 55, 100
5, 23328, Note_on_c, 1, 51, 100
5, 23328, Note_on_c, 1, 39, 100
5, 23328, Note_on_c, 1, 62, 100
5, 23328, Note_on_c, 1, 46, 100
5, 23344, Control_c, 1, 7, 103
5, 23447, Control_c, 1, 7, 103
5, 23472, Note_off_c, 1, 62, 64
5, 23472, Note_off_c, 1, 51, 64
5, 23472, Note_off_c, 1, 39, 64
5, 23472, Note_off_c, 1, 46, 64
5, 23472, Note_off_c, 1, 55, 64
5, 23472, Note_on_c, 1, 55, 100
5, 23472, Note_on_c, 1, 62, 100
5, 23472, Note_on_c, 1, 51, 100
5, 23472, Note_on_c, 1, 39, 100
5, 23472, Note_on_c, 1, 46, 100
5, 23520, Note_off_c, 1, 55, 64
5, 23520, Note_off_c, 1, 46, 64
5, 23520, Note_off_c, 1, 39, 64
5, 23520, Note_off_c, 1, 51, 64
5, 23520, Note_off_c, 1, 62, 64
5, 23520, Note_on_c, 1, 55, 100
5, 23520, Note_on_c, 1, 62, 100
5, 23520, Note_on_c, 1, 51, 100
5, 23520, Note_on_c, 1, 39, 100
5, 23520, Note_on_c, 1, 46, 100
5, 23550, Control_c, 1, 7, 103
5, 23568, Note_off_c, 1, 51, 64
5, 23568, Note_off_c, 1, 62, 64
5, 23568, Note_off_c, 1, 55, 64
5, 23568, Note_off_c, 1, 46, 64
5, 23568, Note_off_c, 1, 39, 64
5, 23568, Note_on_c, 1, 55, 100
5, 23568, Note_on_c, 1, 62, 100
5, 23568, Note_on_c, 1, 51, 100
5, 23568, Note_on_c, 1, 39, 100
5, 23568, Note_on_c, 1, 46, 100
5, 23616, Note_off_c, 1, 39, 64
5, 23616, Note_off_c, 1, 51, 64
5, 23616, Note_off_c, 1, 62, 64
5, 23616, Note_off_c, 1, 46, 64
5, 23616, Note_off_c, 1, 55, 64
5, 23616, Note_on_c, 1, 55, 100
5, 23616, Note_on_c, 1, 62, 100
5, 23616, Note_on_c, 1, 51, 100
5, 23616, Note_on_c, 1, 39, 100
5, 23616, Note_on_c, 1, 46, 100
5, 23654, Control_c, 1, 7, 103
5, 23664, Note_off_c, 1, 46, 64
5, 23664, Note_off_c, 1, 39, 64
5, 23664, Note_off_c, 1, 51, 64
5, 23664, Note_off_c, 1, 62, 64
5, 23664, Note_off_c, 1, 55, 64
5, 23664, Note_on_c, 1, 55, 100
5, 23664, Note_on_c, 1, 62, 100
5, 23664, Note_on_c, 1, 51, 100
5, 23664, Note_on_c, 1, 39, 100
5, 23664, Note_on_c, 1, 46, 100
5, 23712, Note_off_c, 1, 51, 64
5, 23712, Note_off_c, 1, 62, 64
5, 23712, Note_off_c, 1, 46, 64
5, 23712, Note_off_c, 1, 39, 64
5, 23712, Note_off_c, 1, 55, 64
5, 23712, Note_on_c, 1, 55, 100
5, 23712, Note_on_c, 1, 62, 100
5, 23712, Note_on_c, 1, 51, 100
5, 23712, Note_on_c, 1, 39, 100
5, 23712, Note_on_c, 1, 46, 100
5, 23756, Control_c, 1, 7, 103
5, 23760, Note_off_c, 1, 55, 64
5, 23760, Note_off_c, 1, 46, 64
5, 23760, Note_off_c, 1, 39, 64
5, 23760, Note_off_c, 1, 51, 64
5, 23760, Note_off_c, 1, 62, 64
5, 23760, Note_on_c, 1, 55, 100
5, 23760, Note_on_c, 1, 62, 100
5, 23760, Note_on_c, 1, 51, 100
5, 23760, Note_on_c, 1, 39, 100
5, 23760, Note_on_c, 1, 46, 100
5, 23808, Note_off_c, 1, 51, 64
5, 23808, Note_off_c, 1, 62, 64
5, 23808, Note_off_c, 1, 46, 64
5, 23808, Note_off_c, 1, 39, 64
5, 23808, Note_off_c, 1, 55, 64
5, 23808, Note_on_c, 1, 57, 100
5, 23808, Note_on_c, 1, 53, 100
5, 23808, Note_on_c, 1, 41, 100
5, 23808, Note_on_c, 1, 48, 100
5, 23860, Control_c, 1, 7, 103
5, 23952, Note_off_c, 1, 57, 64
5, 23952, Note_off_c, 1, 48, 64
5, 23952, Note_off_c, 1, 41, 64
5, 23952, Note_off_c, 1, 53, 64
5, 23952, Note_on_c, 1, 58, 100
5, 23952, Note_on_c, 1, 55, 100
5, 23952, Note_on_c, 1, 43, 100
5, 23952, Note_on_c, 1, 50, 100
5, 23962, Control_c, 1, 7, 103
5, 24066, Control_c, 1, 7, 103
5, 24096, Note_off_c, 1, 43, 64
5, 24096, Note_off_c, 1, 58, 64
5, 24096, Note_off_c, 1, 55, 64
5, 24096, Note_off_c, 1, 50, 64
5, 24096, Note_on_c, 1, 55, 100
5, 24096, Note_on_c, 1, 51, 100
5, 24096, Note_on_c, 1, 39, 100
5, 24096, Note_on_c, 1, 62, 100
5, 24096, Note_on_c, 1, 46, 100
5, 24169, Control_c, 1, 7, 103
5, 24240, Note_off_c, 1, 62, 64
5, 24240, Note_off_c, 1, 51, 64
5, 24240, Note_off_c, 1, 39, 64
5, 24240, Note_off_c, 1, 46, 64
5, 24240, Note_off_c, 1, 55, 64
5, 24240, Note_on_c, 1, 55, 100
5, 24240, Note_on_c, 1, 62, 100
5, 24240, Note_on_c, 1, 51, 100
5, 24240, Note_on_c, 1, 39, 100
5, 24240, Note_on_c, 1, 46, 100
5, 24272, Control_c, 1, 7, 103
5, 24288, Note_off_c, 1, 55, 64
5, 24288, Note_off_c, 1, 62, 64
5, 24288, Note_off_c, 1, 46, 64
5, 24288, Note_off_c, 1, 39, 64
5, 24288, Note_off_c, 1, 51, 64
5, 24288, Note_on_c, 1, 55, 100
5, 24288, Note_on_c, 1, 62, 100
5, 24288, Note_on_c, 1, 51, 100
5, 24288, Note_on_c, 1, 39, 100
5, 24288, Note_on_c, 1, 46, 100
5, 24336, Note_off_c, 1, 62, 64
5, 24336, Note_off_c, 1, 55, 64
5, 24336, Note_off_c, 1, 46, 64
5, 24336, Note_off_c, 1, 39, 64
5, 24336, Note_off_c, 1, 51, 64
5, 24336, Note_on_c, 1, 55, 100
5, 24336, Note_on_c, 1, 62, 100
5, 24336, Note_on_c, 1, 51, 100
5, 24336, Note_on_c, 1, 39, 100
5, 24336, Note_on_c, 1, 46, 100
5, 24375, Control_c, 1, 7, 103
5, 24384, Note_off_c, 1, 51, 64
5, 24384, Note_off_c, 1, 62, 64
5, 24384, Note_off_c, 1, 55, 64
5, 24384, Note_off_c, 1, 46, 64
5, 24384, Note_off_c, 1, 39, 64
5, 24384, Note_on_c, 1, 55, 100
5, 24384, Note_on_c, 1, 62, 100
5, 24384, Note_on_c, 1, 51, 100
5, 24384, Note_on_c, 1, 39, 100
5, 24384, Note_on_c, 1, 46, 100
5, 24432, Note_off_c, 1, 55, 64
5, 24432, Note_off_c, 1, 62, 64
5, 24432, Note_off_c, 1, 51, 64
5, 24432, Note_off_c, 1, 46, 64
5, 24432, Note_off_c, 1, 39, 64
5, 24432, Note_on_c, 1, 55, 100
5, 24432, Note_on_c, 1, 62, 100
5, 24432, Note_on_c, 1, 51, 100
5, 24432, Note_on_c, 1, 39, 100
5, 24432, Note_on_c, 1, 46, 100
5, 24478, Control_c, 1, 7, 103
5, 24480, Note_off_c, 1, 51, 64
5, 24480, Note_off_c, 1, 62, 64
5, 24480, Note_off_c, 1, 55, 64
5, 24480, Note_off_c, 1, 46, 64
5, 24480, Note_off_c, 1, 39, 64
5, 24480, Note_on_c, 1, 55, 100
5, 24480, Note_on_c, 1, 62, 100
5, 24480, Note_on_c, 1, 51, 100
5, 24480, Note_on_c, 1, 39, 100
5, 24480, Note_on_c, 1, 46, 100
5, 24528, Note_off_c, 1, 51, 64
5, 24528, Note_off_c, 1, 62, 64
5, 24528, Note_off_c, 1, 55, 64
5, 24528, Note_off_c, 1, 46, 64
5, 24528, Note_off_c, 1, 39, 64
5, 24528, Note_on_c, 1, 55, 100
5, 24528, Note_on_c, 1, 62, 100
5, 24528, Note_on_c, 1, 51, 100
5, 24528, Note_on_c, 1, 39, 100
5, 24528, Note_on_c, 1, 46, 100
5, 24576, Note_off_c, 1, 39, 64
5, 24576, Note_off_c, 1, 51, 64
5, 24576, Note_off_c, 1, 62, 64
5, 24576, Note_off_c, 1, 55, 64
5, 24576, Note_off_c, 1, 46, 64
5, 24576, Note_on_c, 1, 57, 100
5, 24576, Note_on_c, 1, 53, 100
5, 24576, Note_on_c, 1, 41, 100
5, 24576, Note_on_c, 1, 48, 100
5, 24581, Control_c, 1, 7, 103
5, 24684, Control_c, 1, 7, 103
5, 24720, Note_off_c, 1, 48, 64
5, 24720, Note_off_c, 1, 41, 64
5, 24720, Note_off_c, 1, 53, 64
5, 24720, Note_off_c, 1, 57, 64
5, 24720, Note_on_c, 1, 58, 100
5, 24720, Note_on_c, 1, 55, 100
5, 24720, Note_on_c, 1, 43, 100
5, 24720, Note_on_c, 1, 50, 100
5, 24787, Control_c, 1, 7, 103
5, 24864, Note_off_c, 1, 50, 64
5, 24864, Note_off_c, 1, 43, 64
5, 24864, Note_off_c, 1, 55, 64
5, 24864, Note_off_c, 1, 58, 64
5, 24864, Note_on_c, 1, 55, 100
5, 24864, Note_on_c, 1, 51, 100
5, 24864, Note_on_c, 1, 39, 100
5, 24864, Note_on_c, 1, 62, 100
5, 24864, Note_on_c, 1, 46, 100
5, 24891, Control_c, 1, 7, 103
5, 24993, Control_c, 1, 7, 103
5, 25008, Note_off_c, 1, 46, 64
5, 25008, Note_off_c, 1, 62, 64
5, 25008, Note_off_c, 1, 39, 64
5, 25008, Note_off_c, 1, 51, 64
5, 25008, Note_off_c, 1, 55, 64
5, 25008, Note_on_c, 1, 46, 100
5, 25008, Note_on_c, 1, 39, 100
5, 25008, Note_on_c, 1, 51, 100
5, 25008, Note_on_c, 1, 62, 100
5, 25008, Note_on_c, 1, 55, 100
5, 25056, Note_off_c, 1, 55, 64
5, 25056, Note_off_c, 1, 62, 64
5, 25056, Note_off_c, 1, 51, 64
5, 25056, Note_off_c, 1, 39, 64
5, 25056, Note_off_c, 1, 46, 64
5, 25056, Note_on_c, 1, 55, 100
5, 25056, Note_on_c, 1, 62, 100
5, 25056, Note_on_c, 1, 51, 100
5, 25056, Note_on_c, 1, 39, 100
5, 25056, Note_on_c, 1, 46, 100
5, 25097, Control_c, 1, 7, 103
5, 25104, Note_off_c, 1, 46, 64
5, 25104, Note_off_c, 1, 39, 64
5, 25104, Note_off_c, 1, 51, 64
5, 25104, Note_off_c, 1, 62, 64
5, 25104, Note_off_c, 1, 55, 64
5, 25104, Note_on_c, 1, 46, 100
5, 25104, Note_on_c, 1, 39, 100
5, 25104, Note_on_c, 1, 51, 100
5, 25104, Note_on_c, 1, 62, 100
5, 25104, Note_on_c, 1, 55, 100
5, 25152, Note_off_c, 1, 55, 64
5, 25152, Note_off_c, 1, 62, 64
5, 25152, Note_off_c, 1, 51, 64
5, 25152, Note_off_c, 1, 39, 64
5, 25152, Note_off_c, 1, 46, 64
5, 25152, Note_on_c, 1, 55, 100
5, 25152, Note_on_c, 1, 62, 100
5, 25152, Note_on_c, 1, 51, 100
5, 25152, Note_on_c, 1, 39, 100
5, 25152, Note_on_c, 1, 46, 100
5, 25200, Note_off_c, 1, 46, 64
5, 25200, Note_off_c, 1, 39, 64
5, 25200, Note_off_c, 1, 51, 64
5, 25200, Note_off_c, 1, 62, 64
5, 25200, Note_off_c, 1, 55, 64
5, 25200, Note_on_c, 1, 46, 100
5, 25200, Note_on_c, 1, 39, 100
5, 25200, Note_on_c, 1, 51, 100
5, 25200, Note_on_c, 1, 62, 100
5, 25200, Note_on_c, 1, 55, 100
5, 25200, Control_c, 1, 7, 103
5, 25248, Note_off_c, 1, 55, 64
5, 25248, Note_off_c, 1, 62, 64
5, 25248, Note_off_c, 1, 51, 64
5, 25248, Note_off_c, 1, 39, 64
5, 25248, Note_off_c, 1, 46, 64
5, 25248, Note_on_c, 1, 55, 100
5, 25248, Note_on_c, 1, 62, 100
5, 25248, Note_on_c, 1, 51, 100
5, 25248, Note_on_c, 1, 39, 100
5, 25248, Note_on_c, 1, 46, 100
5, 25296, Note_off_c, 1, 46, 64
5, 25296, Note_off_c, 1, 39, 64
5, 25296, Note_off_c, 1, 51, 64
5, 25296, Note_off_c, 1, 62, 64
5, 25296, Note_off_c, 1, 55, 64
5, 25296, Note_on_c, 1, 55, 100
5, 25296, Note_on_c, 1, 62, 100
5, 25296, Note_on_c, 1, 51, 100
5, 25296, Note_on_c, 1, 39, 100
5, 25296, Note_on_c, 1, 46, 100
5, 25303, Control_c, 1, 7, 103
5, 25344, Note_off_c, 1, 46, 64
5, 25344, Note_off_c, 1, 39, 64
5, 25344, Note_off_c, 1, 51, 64
5, 25344, Note_off_c, 1, 62, 64
5, 25344, Note_off_c, 1, 55, 64
5, 25344, Note_on_c, 1, 46, 100
5, 25344, Note_on_c, 1, 62, 100
5, 25344, Note_on_c, 1, 39, 100
5, 25344, Note_on_c, 1, 51, 100
5, 25344, Note_on_c, 1, 55, 100
5, 25406, Control_c, 1, 7, 103
5, 25488, Note_off_c, 1, 55, 64
5, 25488, Note_off_c, 1, 51, 64
5, 25488, Note_off_c, 1, 39, 64
5, 25488, Note_off_c, 1, 62, 64
5, 25488, Note_off_c, 1, 46, 64
5, 25488, Note_on_c, 1, 46, 100
5, 25488, Note_on_c, 1, 62, 100
5, 25488, Note_on_c, 1, 39, 100
5, 25488, Note_on_c, 1, 51, 100
5, 25488, Note_on_c, 1, 55, 100
5, 25509, Control_c, 1, 7, 103
5, 25612, Control_c, 1, 7, 103
5, 25632, Note_off_c, 1, 55, 64
5, 25632, Note_off_c, 1, 51, 64
5, 25632, Note_off_c, 1, 39, 64
5, 25632, Note_off_c, 1, 62, 64
5, 25632, Note_off_c, 1, 46, 64
5, 25632, Note_on_c, 1, 55, 100
5, 25632, Note_on_c, 1, 51, 100
5, 25632, Note_on_c, 1, 39, 100
5, 25632, Note_on_c, 1, 62, 100
5, 25632, Note_on_c, 1, 46, 100
5, 25715, Control_c, 1, 7, 103
5, 25776, Note_off_c, 1, 46, 64
5, 25776, Note_off_c, 1, 62, 64
5, 25776, Note_off_c, 1, 39, 64
5, 25776, Note_off_c, 1, 51, 64
5, 25776, Note_off_c, 1, 55, 64
5, 25776, Note_on_c, 1, 55, 100
5, 25776, Note_on_c, 1, 62, 100
5, 25776, Note_on_c, 1, 51, 100
5, 25776, Note_on_c, 1, 39, 100
5, 25776, Note_on_c, 1, 46, 100
5, 25818, Control_c, 1, 7, 103
5, 25824, Note_off_c, 1, 46, 64
5, 25824, Note_off_c, 1, 39, 64
5, 25824, Note_off_c, 1, 51, 64
5, 25824, Note_off_c, 1, 62, 64
5, 25824, Note_off_c, 1, 55, 64
5, 25824, Note_on_c, 1, 55, 100
5, 25824, Note_on_c, 1, 62, 100
5, 25824, Note_on_c, 1, 51, 100
5, 25824, Note_on_c, 1, 39, 100
5, 25824, Note_on_c, 1, 46, 100
5, 25872, Note_off_c, 1, 46, 64
5, 25872, Note_off_c, 1, 39, 64
5, 25872, Note_off_c, 1, 51, 64
5, 25872, Note_off_c, 1, 62, 64
5, 25872, Note_off_c, 1, 55, 64
5, 25872, Note_on_c, 1, 55, 100
5, 25872, Note_on_c, 1, 62, 100
5, 25872, Note_on_c, 1, 51, 100
5, 25872, Note_on_c, 1, 39, 100
5, 25872, Note_on_c, 1, 46, 100
5, 25920, Note_off_c, 1, 46, 64
5, 25920, Note_off_c, 1, 39, 64
5, 25920, Note_off_c, 1, 51, 64
5, 25920, Note_off_c, 1, 62, 64
5, 25920, Note_off_c, 1, 55, 64
5, 25920, Note_on_c, 1, 55, 100
5, 25920, Note_on_c, 1, 62, 100
5, 25920, Note_on_c, 1, 51, 100
5, 25920, Note_on_c, 1, 39, 100
5, 25920, Note_on_c, 1, 46, 100
5, 25922, Control_c, 1, 7, 103
5, 25968, Note_off_c, 1, 46, 64
5, 25968, Note_off_c, 1, 39, 64
5, 25968, Note_off_c, 1, 51, 64
5, 25968, Note_off_c, 1, 62, 64
5, 25968, Note_off_c, 1, 55, 64
5, 25968, Note_on_c, 1, 55, 100
5, 25968, Note_on_c, 1, 62, 100
5, 25968, Note_on_c, 1, 51, 100
5, 25968, Note_on_c, 1, 39, 100
5, 25968, Note_on_c, 1, 46, 100
5, 26016, Note_off_c, 1, 46, 64
5, 26016, Note_off_c, 1, 39, 64
5, 26016, Note_off_c, 1, 51, 64
5, 26016, Note_off_c, 1, 62, 64
5, 26016, Note_off_c, 1, 55, 64
5, 26016, Note_on_c, 1, 55, 100
5, 26016, Note_on_c, 1, 62, 100
5, 26016, Note_on_c, 1, 51, 100
5, 26016, Note_on_c, 1, 39, 100
5, 26016, Note_on_c, 1, 46, 100
5, 26024, Control_c, 1, 7, 103
5, 26064, Note_off_c, 1, 46, 64
5, 26064, Note_off_c, 1, 39, 64
5, 26064, Note_off_c, 1, 51, 64
5, 26064, Note_off_c, 1, 62, 64
5, 26064, Note_off_c, 1, 55, 64
5, 26064, Note_on_c, 1, 55, 100
5, 26064, Note_on_c, 1, 62, 100
5, 26064, Note_on_c, 1, 51, 100
5, 26064, Note_on_c, 1, 39, 100
5, 26064, Note_on_c, 1, 46, 100
5, 26112, Note_off_c, 1, 46, 64
5, 26112, Note_off_c, 1, 39, 64
5, 26112, Note_off_c, 1, 51, 64
5, 26112, Note_off_c, 1, 62, 64
5, 26112, Note_off_c, 1, 55, 64
5, 26112, Note_on_c, 1, 57, 100
5, 26112, Note_on_c, 1, 53, 100
5, 26112, Note_on_c, 1, 41, 100
5, 26112, Note_on_c, 1, 48, 100
5, 26128, Control_c, 1, 7, 103
5, 26230, Control_c, 1, 7, 103
5, 26256, Note_off_c, 1, 48, 64
5, 26256, Note_off_c, 1, 41, 64
5, 26256, Note_off_c, 1, 53, 64
5, 26256, Note_off_c, 1, 57, 64
5, 26256, Note_on_c, 1, 58, 100
5, 26256, Note_on_c, 1, 55, 100
5, 26256, Note_on_c, 1, 43, 100
5, 26256, Note_on_c, 1, 50, 100
5, 26334, Control_c, 1, 7, 103
5, 26400, Note_off_c, 1, 50, 64
5, 26400, Note_off_c, 1, 43, 64
5, 26400, Note_off_c, 1, 55, 64
5, 26400, Note_off_c, 1, 58, 64
5, 26400, Note_on_c, 1, 55, 100
5, 26400, Note_on_c, 1, 51, 100
5, 26400, Note_on_c, 1, 39, 100
5, 26400, Note_on_c, 1, 62, 100
5, 26400, Note_on_c, 1, 46, 100
5, 26437, Control_c, 1, 7, 103
5, 26540, Control_c, 1, 7, 103
5, 26544, Note_off_c, 1, 46, 64
5, 26544, Note_off_c, 1, 62, 64
5, 26544, Note_off_c, 1, 39, 64
5, 26544, Note_off_c, 1, 51, 64
5, 26544, Note_off_c, 1, 55, 64
5, 26544, Note_on_c, 1, 46, 100
5, 26544, Note_on_c, 1, 39, 100
5, 26544, Note_on_c, 1, 51, 100
5, 26544, Note_on_c, 1, 62, 100
5, 26544, Note_on_c, 1, 55, 100
5, 26592, Note_off_c, 1, 55, 64
5, 26592, Note_off_c, 1, 62, 64
5, 26592, Note_off_c, 1, 51, 64
5, 26592, Note_off_c, 1, 39, 64
5, 26592, Note_off_c, 1, 46, 64
5, 26592, Note_on_c, 1, 55, 100
5, 26592, Note_on_c, 1, 62, 100
5, 26592, Note_on_c, 1, 51, 100
5, 26592, Note_on_c, 1, 39, 100
5, 26592, Note_on_c, 1, 46, 100
5, 26640, Note_off_c, 1, 46, 64
5, 26640, Note_off_c, 1, 39, 64
5, 26640, Note_off_c, 1, 51, 64
5, 26640, Note_off_c, 1, 62, 64
5, 26640, Note_off_c, 1, 55, 64
5, 26640, Note_on_c, 1, 46, 100
5, 26640, Note_on_c, 1, 39, 100
5, 26640, Note_on_c, 1, 51, 100
5, 26640, Note_on_c, 1, 62, 100
5, 26640, Note_on_c, 1, 55, 100
5, 26643, Control_c, 1, 7, 103
5, 26688, Note_off_c, 1, 55, 64
5, 26688, Note_off_c, 1, 62, 64
5, 26688, Note_off_c, 1, 51, 64
5, 26688, Note_off_c, 1, 39, 64
5, 26688, Note_off_c, 1, 46, 64
5, 26688, Note_on_c, 1, 55, 100
5, 26688, Note_on_c, 1, 62, 100
5, 26688, Note_on_c, 1, 51, 100
5, 26688, Note_on_c, 1, 39, 100
5, 26688, Note_on_c, 1, 46, 100
5, 26736, Note_off_c, 1, 46, 64
5, 26736, Note_off_c, 1, 39, 64
5, 26736, Note_off_c, 1, 51, 64
5, 26736, Note_off_c, 1, 62, 64
5, 26736, Note_off_c, 1, 55, 64
5, 26736, Note_on_c, 1, 46, 100
5, 26736, Note_on_c, 1, 39, 100
5, 26736, Note_on_c, 1, 51, 100
5, 26736, Note_on_c, 1, 62, 100
5, 26736, Note_on_c, 1, 55, 100
5, 26746, Control_c, 1, 7, 103
5, 26784, Note_off_c, 1, 55, 64
5, 26784, Note_off_c, 1, 62, 64
5, 26784, Note_off_c, 1, 51, 64
5, 26784, Note_off_c, 1, 39, 64
5, 26784, Note_off_c, 1, 46, 64
5, 26784, Note_on_c, 1, 55, 100
5, 26784, Note_on_c, 1, 62, 100
5, 26784, Note_on_c, 1, 51, 100
5, 26784, Note_on_c, 1, 39, 100
5, 26784, Note_on_c, 1, 46, 100
5, 26832, Note_off_c, 1, 46, 64
5, 26832, Note_off_c, 1, 39, 64
5, 26832, Note_off_c, 1, 51, 64
5, 26832, Note_off_c, 1, 62, 64
5, 26832, Note_off_c, 1, 55, 64
5, 26832, Note_on_c, 1, 55, 100
5, 26832, Note_on_c, 1, 62, 100
5, 26832, Note_on_c, 1, 51, 100
5, 26832, Note_on_c, 1, 39, 100
5, 26832, Note_on_c, 1, 46, 100
5, 26849, Control_c, 1, 7, 103
5, 26880, Note_off_c, 1, 46, 64
5, 26880, Note_off_c, 1, 39, 64
5, 26880, Note_off_c, 1, 51, 64
5, 26880, Note_off_c, 1, 62, 64
5, 26880, Note_off_c, 1, 55, 64
5, 26880, Note_on_c, 1, 46, 100
5, 26880, Note_on_c, 1, 62, 100
5, 26880, Note_on_c, 1, 39, 100
5, 26880, Note_on_c, 1, 51, 100
5, 26880, Note_on_c, 1, 55, 100
5, 26953, Control_c, 1, 7, 103
5, 27024, Note_off_c, 1, 55, 64
5, 27024, Note_off_c, 1, 51, 64
5, 27024, Note_off_c, 1, 39, 64
5, 27024, Note_off_c, 1, 62, 64
5, 27024, Note_off_c, 1, 46, 64
5, 27024, Note_on_c, 1, 46, 100
5, 27024, Note_on_c, 1, 62, 100
5, 27024, Note_on_c, 1, 39, 100
5, 27024, Note_on_c, 1, 51, 100
5, 27024, Note_on_c, 1, 55, 100
5, 27055, Control_c, 1, 7, 103
5, 27159, Control_c, 1, 7, 103
5, 27168, Note_off_c, 1, 55, 64
5, 27168, Note_off_c, 1, 51, 64
5, 27168, Note_off_c, 1, 39, 64
5, 27168, Note_off_c, 1, 62, 64
5, 27168, Note_off_c, 1, 46, 64
5, 27168, Note_on_c, 1, 55, 100
5, 27168, Note_on_c, 1, 51, 100
5, 27168, Note_on_c, 1, 39, 100
5, 27168, Note_on_c, 1, 62, 100
5, 27168, Note_on_c, 1, 46, 100
5, 27261, Control_c, 1, 7, 103
5, 27312, Note_off_c, 1, 46, 64
5, 27312, Note_off_c, 1, 62, 64
5, 27312, Note_off_c, 1, 39, 64
5, 27312, Note_off_c, 1, 51, 64
5, 27312, Note_off_c, 1, 55, 64
5, 27312, Note_on_c, 1, 55, 100
5, 27312, Note_on_c, 1, 62, 100
5, 27312, Note_on_c, 1, 51, 100
5, 27312, Note_on_c, 1, 39, 100
5, 27312, Note_on_c, 1, 46, 100
5, 27360, Note_off_c, 1, 46, 64
5, 27360, Note_off_c, 1, 39, 64
5, 27360, Note_off_c, 1, 51, 64
5, 27360, Note_off_c, 1, 62, 64
5, 27360, Note_off_c, 1, 55, 64
5, 27360, Note_on_c, 1, 55, 100
5, 27360, Note_on_c, 1, 62, 100
5, 27360, Note_on_c, 1, 51, 100
5, 27360, Note_on_c, 1, 39, 100
5, 27360, Note_on_c, 1, 46, 100
5, 27365, Control_c, 1, 7, 103
5, 27408, Note_off_c, 1, 46, 64
5, 27408, Note_off_c, 1, 39, 64
5, 27408, Note_off_c, 1, 51, 64
5, 27408, Note_off_c, 1, 62, 64
5, 27408, Note_off_c, 1, 55, 64
5, 27408, Note_on_c, 1, 55, 100
5, 27408, Note_on_c, 1, 62, 100
5, 27408, Note_on_c, 1, 51, 100
5, 27408, Note_on_c, 1, 39, 100
5, 27408, Note_on_c, 1, 46, 100
5, 27456, Note_off_c, 1, 46, 64
5, 27456, Note_off_c, 1, 39, 64
5, 27456, Note_off_c, 1, 51, 64
5, 27456, Note_off_c, 1, 62, 64
5, 27456, Note_off_c, 1, 55, 64
5, 27456, Note_on_c, 1, 55, 100
5, 27456, Note_on_c, 1, 62, 100
5, 27456, Note_on_c, 1, 51, 100
5, 27456, Note_on_c, 1, 39, 100
5, 27456, Note_on_c, 1, 46, 100
5, 27468, Control_c, 1, 7, 103
5, 27504, Note_off_c, 1, 46, 64
5, 27504, Note_off_c, 1, 39, 64
5, 27504, Note_off_c, 1, 51, 64
5, 27504, Note_off_c, 1, 62, 64
5, 27504, Note_off_c, 1, 55, 64
5, 27504, Note_on_c, 1, 55, 100
5, 27504, Note_on_c, 1, 62, 100
5, 27504, Note_on_c, 1, 51, 100
5, 27504, Note_on_c, 1, 39, 100
5, 27504, Note_on_c, 1, 46, 100
5, 27552, Note_off_c, 1, 46, 64
5, 27552, Note_off_c, 1, 39, 64
5, 27552, Note_off_c, 1, 51, 64
5, 27552, Note_off_c, 1, 62, 64
5, 27552, Note_off_c, 1, 55, 64
5, 27552, Note_on_c, 1, 55, 100
5, 27552, Note_on_c, 1, 62, 100
5, 27552, Note_on_c, 1, 51, 100
5, 27552, Note_on_c, 1, 39, 100
5, 27552, Note_on_c, 1, 46, 100
5, 27571, Control_c, 1, 7, 103
5, 27600, Note_off_c, 1, 46, 64
5, 27600, Note_off_c, 1, 39, 64
5, 27600, Note_off_c, 1, 51, 64
5, 27600, Note_off_c, 1, 62, 64
5, 27600, Note_off_c, 1, 55, 64
5, 27600, Note_on_c, 1, 55, 100
5, 27600, Note_on_c, 1, 62, 100
5, 27600, Note_on_c, 1, 51, 100
5, 27600, Note_on_c, 1, 39, 100
5, 27600, Note_on_c, 1, 46, 100
5, 27648, Note_off_c, 1, 46, 64
5, 27648, Note_off_c, 1, 39, 64
5, 27648, Note_off_c, 1, 51, 64
5, 27648, Note_off_c, 1, 62, 64
5, 27648, Note_off_c, 1, 55, 64
5, 27648, Note_on_c, 1, 57, 100
5, 27648, Note_on_c, 1, 53, 100
5, 27648, Note_on_c, 1, 41, 100
5, 27648, Note_on_c, 1, 48, 100
5, 27674, Control_c, 1, 7, 103
5, 27777, Control_c, 1, 7, 103
5, 27792, Note_off_c, 1, 48, 64
5, 27792, Note_off_c, 1, 41, 64
5, 27792, Note_off_c, 1, 53, 64
5, 27792, Note_off_c, 1, 57, 64
5, 27792, Note_on_c, 1, 58, 100
5, 27792, Note_on_c, 1, 55, 100
5, 27792, Note_on_c, 1, 43, 100
5, 27792, Note_on_c, 1, 50, 100
5, 27880, Control_c, 1, 7, 103
5, 27936, Note_off_c, 1, 50, 64
5, 27936, Note_off_c, 1, 43, 64
5, 27936, Note_off_c, 1, 55, 64
5, 27936, Note_off_c, 1, 58, 64
5, 27936, Note_on_c, 1, 55, 100
5, 27936, Note_on_c, 1, 51, 100
5, 27936, Note_on_c, 1, 39, 100
5, 27936, Note_on_c, 1, 62, 100
5, 27936, Note_on_c, 1, 46, 100
5, 27983, Control_c, 1, 7, 103
5, 28080, Note_off_c, 1, 46, 64
5, 28080, Note_off_c, 1, 62, 64
5, 28080, Note_off_c, 1, 39, 64
5, 28080, Note_off_c, 1, 51, 64
5, 28080, Note_off_c, 1, 55, 64
5, 28080, Note_on_c, 1, 46, 100
5, 28080, Note_on_c, 1, 39, 100
5, 28080, Note_on_c, 1, 51, 100
5, 28080, Note_on_c, 1, 62, 100
5, 28080, Note_on_c, 1, 55, 100
5, 28086, Control_c, 1, 7, 103
5, 28128, Note_off_c, 1, 55, 64
5, 28128, Note_off_c, 1, 62, 64
5, 28128, Note_off_c, 1, 51, 64
5, 28128, Note_off_c, 1, 39, 64
5, 28128, Note_off_c, 1, 46, 64
5, 28128, Note_on_c, 1, 55, 100
5, 28128, Note_on_c, 1, 62, 100
5, 28128, Note_on_c, 1, 51, 100
5, 28128, Note_on_c, 1, 39, 100
5, 28128, Note_on_c, 1, 46, 100
5, 28176, Note_off_c, 1, 46, 64
5, 28176, Note_off_c, 1, 39, 64
5, 28176, Note_off_c, 1, 51, 64
5, 28176, Note_off_c, 1, 62, 64
5, 28176, Note_off_c, 1, 55, 64
5, 28176, Note_on_c, 1, 46, 100
5, 28176, Note_on_c, 1, 39, 100
5, 28176, Note_on_c, 1, 51, 100
5, 28176, Note_on_c, 1, 62, 100
5, 28176, Note_on_c, 1, 55, 100
5, 28190, Control_c, 1, 7, 103
5, 28224, Note_off_c, 1, 55, 64
5, 28224, Note_off_c, 1, 62, 64
5, 28224, Note_off_c, 1, 51, 64
5, 28224, Note_off_c, 1, 39, 64
5, 28224, Note_off_c, 1, 46, 64
5, 28224, Note_on_c, 1, 55, 100
5, 28224, Note_on_c, 1, 62, 100
5, 28224, Note_on_c, 1, 51, 100
5, 28224, Note_on_c, 1, 39, 100
5, 28224, Note_on_c, 1, 46, 100
5, 28272, Note_off_c, 1, 46, 64
5, 28272, Note_off_c, 1, 39, 64
5, 28272, Note_off_c, 1, 51, 64
5, 28272, Note_off_c, 1, 62, 64
5, 28272, Note_off_c, 1, 55, 64
5, 28272, Note_on_c, 1, 46, 100
5, 28272, Note_on_c, 1, 39, 100
5, 28272, Note_on_c, 1, 51, 100
5, 28272, Note_on_c, 1, 62, 100
5, 28272, Note_on_c, 1, 55, 100
5, 28292, Control_c, 1, 7, 103
5, 28320, Note_off_c, 1, 55, 64
5, 28320, Note_off_c, 1, 62, 64
5, 28320, Note_off_c, 1, 51, 64
5, 28320, Note_off_c, 1, 39, 64
5, 28320, Note_off_c, 1, 46, 64
5, 28320, Note_on_c, 1, 55, 100
5, 28320, Note_on_c, 1, 62, 100
5, 28320, Note_on_c, 1, 51, 100
5, 28320, Note_on_c, 1, 39, 100
5, 28320, Note_on_c, 1, 46, 100
5, 28368, Note_off_c, 1, 46, 64
5, 28368, Note_off_c, 1, 39, 64
5, 28368, Note_off_c, 1, 51, 64
5, 28368, Note_off_c, 1, 62, 64
5, 28368, Note_off_c, 1, 55, 64
5, 28368, Note_on_c, 1, 55, 100
5, 28368, Note_on_c, 1, 62, 100
5, 28368, Note_on_c, 1, 51, 100
5, 28368, Note_on_c, 1, 39, 100
5, 28368, Note_on_c, 1, 46, 100
5, 28396, Control_c, 1, 7, 103
5, 28416, Note_off_c, 1, 46, 64
5, 28416, Note_off_c, 1, 39, 64
5, 28416, Note_off_c, 1, 51, 64
5, 28416, Note_off_c, 1, 62, 64
5, 28416, Note_off_c, 1, 55, 64
5, 28416, Note_on_c, 1, 46, 100
5, 28416, Note_on_c, 1, 62, 100
5, 28416, Note_on_c, 1, 39, 100
5, 28416, Note_on_c, 1, 51, 100
5, 28416, Note_on_c, 1, 55, 100
5, 28498, Control_c, 1, 7, 103
5, 28560, Note_off_c, 1, 55, 64
5, 28560, Note_off_c, 1, 51, 64
5, 28560, Note_off_c, 1, 39, 64
5, 28560, Note_off_c, 1, 62, 64
5, 28560, Note_off_c, 1, 46, 64
5, 28560, Note_on_c, 1, 46, 100
5, 28560, Note_on_c, 1, 62, 100
5, 28560, Note_on_c, 1, 39, 100
5, 28560, Note_on_c, 1, 51, 100
5, 28560, Note_on_c, 1, 55, 100
5, 28602, Control_c, 1, 7, 103
5, 28704, Note_off_c, 1, 55, 64
5, 28704, Note_off_c, 1, 51, 64
5, 28704, Note_off_c, 1, 39, 64
5, 28704, Note_off_c, 1, 62, 64
5, 28704, Note_off_c, 1, 46, 64
5, 28704, Note_on_c, 1, 55, 100
5, 28704, Note_on_c, 1, 51, 100
5, 28704, Note_on_c, 1, 39, 100
5, 28704, Note_on_c, 1, 62, 100
5, 28704, Note_on_c, 1, 46, 100
5, 28705, Control_c, 1, 7, 103
5, 28808, Control_c, 1, 7, 103
5, 28848, Note_off_c, 1, 46, 64
5, 28848, Note_off_c, 1, 62, 64
5, 28848, Note_off_c, 1, 39, 64
5, 28848, Note_off_c, 1, 51, 64
5, 28848, Note_off_c, 1, 55, 64
5, 28848, Note_on_c, 1, 55, 100
5, 28848, Note_on_c, 1, 62, 100
5, 28848, Note_on_c, 1, 51, 100
5, 28848, Note_on_c, 1, 39, 100
5, 28848, Note_on_c, 1, 46, 100
5, 28896, Note_off_c, 1, 46, 64
5, 28896, Note_off_c, 1, 39, 64
5, 28896, Note_off_c, 1, 51, 64
5, 28896, Note_off_c, 1, 62, 64
5, 28896, Note_off_c, 1, 55, 64
5, 28896, Note_on_c, 1, 55, 100
5, 28896, Note_on_c, 1, 62, 100
5, 28896, Note_on_c, 1, 51, 100
5, 28896, Note_on_c, 1, 39, 100
5, 28896, Note_on_c, 1, 46, 100
5, 28911, Control_c, 1, 7, 103
5, 28944, Note_off_c, 1, 46, 64
5, 28944, Note_off_c, 1, 39, 64
5, 28944, Note_off_c, 1, 51, 64
5, 28944, Note_off_c, 1, 62, 64
5, 28944, Note_off_c, 1, 55, 64
5, 28944, Note_on_c, 1, 55, 100
5, 28944, Note_on_c, 1, 62, 100
5, 28944, Note_on_c, 1, 51, 100
5, 28944, Note_on_c, 1, 39, 100
5, 28944, Note_on_c, 1, 46, 100
5, 28992, Note_off_c, 1, 46, 64
5, 28992, Note_off_c, 1, 39, 64
5, 28992, Note_off_c, 1, 51, 64
5, 28992, Note_off_c, 1, 62, 64
5, 28992, Note_off_c, 1, 55, 64
5, 28992, Note_on_c, 1, 55, 100
5, 28992, Note_on_c, 1, 62, 100
5, 28992, Note_on_c, 1, 51, 100
5, 28992, Note_on_c, 1, 39, 100
5, 28992, Note_on_c, 1, 46, 100
5, 29014, Control_c, 1, 7, 103
5, 29040, Note_off_c, 1, 46, 64
5, 29040, Note_off_c, 1, 39, 64
5, 29040, Note_off_c, 1, 51, 64
5, 29040, Note_off_c, 1, 62, 64
5, 29040, Note_off_c, 1, 55, 64
5, 29040, Note_on_c, 1, 55, 100
5, 29040, Note_on_c, 1, 62, 100
5, 29040, Note_on_c, 1, 51, 100
5, 29040, Note_on_c, 1, 39, 100
5, 29040, Note_on_c, 1, 46, 100
5, 29088, Note_off_c, 1, 46, 64
5, 29088, Note_off_c, 1, 39, 64
5, 29088, Note_off_c, 1, 51, 64
5, 29088, Note_off_c, 1, 62, 64
5, 29088, Note_off_c, 1, 55, 64
5, 29088, Note_on_c, 1, 55, 100
5, 29088, Note_on_c, 1, 62, 100
5, 29088, Note_on_c, 1, 51, 100
5, 29088, Note_on_c, 1, 39, 100
5, 29088, Note_on_c, 1, 46, 100
5, 29117, Control_c, 1, 7, 103
5, 29136, Note_off_c, 1, 46, 64
5, 29136, Note_off_c, 1, 39, 64
5, 29136, Note_off_c, 1, 51, 64
5, 29136, Note_off_c, 1, 62, 64
5, 29136, Note_off_c, 1, 55, 64
5, 29136, Note_on_c, 1, 55, 100
5, 29136, Note_on_c, 1, 62, 100
5, 29136, Note_on_c, 1, 51, 100
5, 29136, Note_on_c, 1, 39, 100
5, 29136, Note_on_c, 1, 46, 100
5, 29184, Note_off_c, 1, 46, 64
5, 29184, Note_off_c, 1, 39, 64
5, 29184, Note_off_c, 1, 51, 64
5, 29184, Note_off_c, 1, 62, 64
5, 29184, Note_off_c, 1, 55, 64
5, 29184, Note_on_c, 1, 57, 100
5, 29184, Note_on_c, 1, 53, 100
5, 29184, Note_on_c, 1, 41, 100
5, 29184, Note_on_c, 1, 48, 100
5, 29221, Control_c, 1, 7, 103
5, 29323, Control_c, 1, 7, 103
5, 29328, Note_off_c, 1, 48, 64
5, 29328, Note_off_c, 1, 41, 64
5, 29328, Note_off_c, 1, 53, 64
5, 29328, Note_off_c, 1, 57, 64
5, 29328, Note_on_c, 1, 58, 100
5, 29328, Note_on_c, 1, 55, 100
5, 29328, Note_on_c, 1, 43, 100
5, 29328, Note_on_c, 1, 50, 100
5, 29427, Control_c, 1, 7, 103
5, 29472, Note_off_c, 1, 50, 64
5, 29472, Note_off_c, 1, 43, 64
5, 29472, Note_off_c, 1, 55, 64
5, 29472, Note_off_c, 1, 58, 64
5, 29472, Note_on_c, 1, 55, 100
5, 29472, Note_on_c, 1, 51, 100
5, 29472, Note_on_c, 1, 39, 100
5, 29472, Note_on_c, 1, 62, 100
5, 29472, Note_on_c, 1, 46, 100
5, 29529, Control_c, 1, 7, 103
5, 29616, Note_off_c, 1, 46, 64
5, 29616, Note_off_c, 1, 62, 64
5, 29616, Note_off_c, 1, 39, 64
5, 29616, Note_off_c, 1, 51, 64
5, 29616, Note_off_c, 1, 55, 64
5, 29616, Note_on_c, 1, 46, 100
5, 29616, Note_on_c, 1, 39, 100
5, 29616, Note_on_c, 1, 51, 100
5, 29616, Note_on_c, 1, 62, 100
5, 29616, Note_on_c, 1, 55, 100
5, 29633, Control_c, 1, 7, 103
5, 29664, Note_off_c, 1, 55, 64
5, 29664, Note_off_c, 1, 62, 64
5, 29664, Note_off_c, 1, 51, 64
5, 29664, Note_off_c, 1, 39, 64
5, 29664, Note_off_c, 1, 46, 64
5, 29664, Note_on_c, 1, 55, 100
5, 29664, Note_on_c, 1, 62, 100
5, 29664, Note_on_c, 1, 51, 100
5, 29664, Note_on_c, 1, 39, 100
5, 29664, Note_on_c, 1, 46, 100
5, 29712, Note_off_c, 1, 46, 64
5, 29712, Note_off_c, 1, 39, 64
5, 29712, Note_off_c, 1, 51, 64
5, 29712, Note_off_c, 1, 62, 64
5, 29712, Note_off_c, 1, 55, 64
5, 29712, Note_on_c, 1, 46, 100
5, 29712, Note_on_c, 1, 39, 100
5, 29712, Note_on_c, 1, 51, 100
5, 29712, Note_on_c, 1, 62, 100
5, 29712, Note_on_c, 1, 55, 100
5, 29736, Control_c, 1, 7, 103
5, 29760, Note_off_c, 1, 55, 64
5, 29760, Note_off_c, 1, 62, 64
5, 29760, Note_off_c, 1, 51, 64
5, 29760, Note_off_c, 1, 39, 64
5, 29760, Note_off_c, 1, 46, 64
5, 29760, Note_on_c, 1, 55, 100
5, 29760, Note_on_c, 1, 62, 100
5, 29760, Note_on_c, 1, 51, 100
5, 29760, Note_on_c, 1, 39, 100
5, 29760, Note_on_c, 1, 46, 100
5, 29808, Note_off_c, 1, 46, 64
5, 29808, Note_off_c, 1, 39, 64
5, 29808, Note_off_c, 1, 51, 64
5, 29808, Note_off_c, 1, 62, 64
5, 29808, Note_off_c, 1, 55, 64
5, 29808, Note_on_c, 1, 46, 100
5, 29808, Note_on_c, 1, 39, 100
5, 29808, Note_on_c, 1, 51, 100
5, 29808, Note_on_c, 1, 62, 100
5, 29808, Note_on_c, 1, 55, 100
5, 29839, Control_c, 1, 7, 103
5, 29856, Note_off_c, 1, 55, 64
5, 29856, Note_off_c, 1, 62, 64
5, 29856, Note_off_c, 1, 51, 64
5, 29856, Note_off_c, 1, 39, 64
5, 29856, Note_off_c, 1, 46, 64
5, 29856, Note_on_c, 1, 55, 100
5, 29856, Note_on_c, 1, 62, 100
5, 29856, Note_on_c, 1, 51, 100
5, 29856, Note_on_c, 1, 39, 100
5, 29856, Note_on_c, 1, 46, 100
5, 29904, Note_off_c, 1, 46, 64
5, 29904, Note_off_c, 1, 39, 64
5, 29904, Note_off_c, 1, 51, 64
5, 29904, Note_off_c, 1, 62, 64
5, 29904, Note_off_c, 1, 55, 64
5, 29904, Note_on_c, 1, 55, 100
5, 29904, Note_on_c, 1, 62, 100
5, 29904, Note_on_c, 1, 51, 100
5, 29904, Note_on_c, 1, 39, 100
5, 29904, Note_on_c, 1, 46, 100
5, 29942, Control_c, 1, 7, 103
5, 29952, Note_off_c, 1, 46, 64
5, 29952, Note_off_c, 1, 39, 64
5, 29952, Note_off_c, 1, 51, 64
5, 29952, Note_off_c, 1, 62, 64
5, 29952, Note_off_c, 1, 55, 64
5, 30045, Control_c, 1, 7, 103
5, 30148, Control_c, 1, 7, 103
5, 30251, Control_c, 1, 7, 103
5, 30354, Control_c, 1, 7, 103
5, 30458, Control_c, 1, 7, 103
5, 30560, Control_c, 1, 7, 103
5, 30664, Control_c, 1, 7, 103
5, 30720, Note_on_c, 1, 57, 100
5, 30720, Note_on_c, 1, 53, 100
5, 30720, Note_on_c, 1, 41, 100
5, 30720, Note_on_c, 1, 48, 100
5, 30767, Control_c, 1, 7, 103
5, 30864, Note_off_c, 1, 48, 64
5, 30864, Note_off_c, 1, 57, 64
5, 30864, Note_off_c, 1, 53, 64
5, 30864, Note_off_c, 1, 41, 64
5, 30864, Note_on_c, 1, 58, 100
5, 30864, Note_on_c, 1, 55, 100
5, 30864, Note_on_c, 1, 43, 100
5, 30864, Note_on_c, 1, 50, 100
5, 30870, Control_c, 1, 7, 103
5, 30973, Control_c, 1, 7, 103
5, 31008, Note_off_c, 1, 50, 64
5, 31008, Note_off_c, 1, 43, 64
5, 31008, Note_off_c, 1, 55, 64
5, 31008, Note_off_c, 1, 58, 64
5, 31008, Note_on_c, 1, 55, 100
5, 31008, Note_on_c, 1, 51, 100
5, 31008, Note_on_c, 1, 39, 100
5, 31008, Note_on_c, 1, 62, 100
5, 31008, Note_on_c, 1, 46, 100
5, 31076, Control_c, 1, 7, 103
5, 31152, Note_off_c, 1, 46, 64
5, 31152, Note_off_c, 1, 62, 64
5, 31152, Note_off_c, 1, 39, 64
5, 31152, Note_off_c, 1, 51, 64
5, 31152, Note_off_c, 1, 55, 64
5, 31152, Note_on_c, 1, 46, 100
5, 31152, Note_on_c, 1, 39, 100
5, 31152, Note_on_c, 1, 51, 100
5, 31152, Note_on_c, 1, 62, 100
5, 31152, Note_on_c, 1, 55, 100
5, 31179, Control_c, 1, 7, 103
5, 31200, Note_off_c, 1, 55, 64
5, 31200, Note_off_c, 1, 62, 64
5, 31200, Note_off_c, 1, 51, 64
5, 31200, Note_off_c, 1, 39, 64
5, 31200, Note_off_c, 1, 46, 64
5, 31200, Note_on_c, 1, 55, 100
5, 31200, Note_on_c, 1, 62, 100
5, 31200, Note_on_c, 1, 51, 100
5, 31200, Note_on_c, 1, 39, 100
5, 31200, Note_on_c, 1, 46, 100
5, 31248, Note_off_c, 1, 46, 64
5, 31248, Note_off_c, 1, 39, 64
5, 31248, Note_off_c, 1, 51, 64
5, 31248, Note_off_c, 1, 62, 64
5, 31248, Note_off_c, 1, 55, 64
5, 31248, Note_on_c, 1, 46, 100
5, 31248, Note_on_c, 1, 39, 100
5, 31248, Note_on_c, 1, 51, 100
5, 31248, Note_on_c, 1, 62, 100
5, 31248, Note_on_c, 1, 55, 100
5, 31282, Control_c, 1, 7, 103
5, 31296, Note_off_c, 1, 55, 64
5, 31296, Note_off_c, 1, 62, 64
5, 31296, Note_off_c, 1, 51, 64
5, 31296, Note_off_c, 1, 39, 64
5, 31296, Note_off_c, 1, 46, 64
5, 31296, Note_on_c, 1, 55, 100
5, 31296, Note_on_c, 1, 62, 100
5, 31296, Note_on_c, 1, 51, 100
5, 31296, Note_on_c, 1, 39, 100
5, 31296, Note_on_c, 1, 46, 100
5, 31344, Note_off_c, 1, 46, 64
5, 31344, Note_off_c, 1, 39, 64
5, 31344, Note_off_c, 1, 51, 64
5, 31344, Note_off_c, 1, 62, 64
5, 31344, Note_off_c, 1, 55, 64
5, 31344, Note_on_c, 1, 46, 100
5, 31344, Note_on_c, 1, 39, 100
5, 31344, Note_on_c, 1, 51, 100
5, 31344, Note_on_c, 1, 62, 100
5, 31344, Note_on_c, 1, 55, 100
5, 31385, Control_c, 1, 7, 103
5, 31392, Note_off_c, 1, 55, 64
5, 31392, Note_off_c, 1, 62, 64
5, 31392, Note_off_c, 1, 51, 64
5, 31392, Note_off_c, 1, 39, 64
5, 31392, Note_off_c, 1, 46, 64
5, 31392, Note_on_c, 1, 55, 100
5, 31392, Note_on_c, 1, 62, 100
5, 31392, Note_on_c, 1, 51, 100
5, 31392, Note_on_c, 1, 39, 100
5, 31392, Note_on_c, 1, 46, 100
5, 31440, Note_off_c, 1, 46, 64
5, 31440, Note_off_c, 1, 39, 64
5, 31440, Note_off_c, 1, 51, 64
5, 31440, Note_off_c, 1, 62, 64
5, 31440, Note_off_c, 1, 55, 64
5, 31440, Note_on_c, 1, 55, 100
5, 31440, Note_on_c, 1, 62, 100
5, 31440, Note_on_c, 1, 51, 100
5, 31440, Note_on_c, 1, 39, 100
5, 31440, Note_on_c, 1, 46, 100
5, 31488, Note_off_c, 1, 46, 64
5, 31488, Note_off_c, 1, 39, 64
5, 31488, Note_off_c, 1, 51, 64
5, 31488, Note_off_c, 1, 62, 64
5, 31488, Note_off_c, 1, 55, 64
5, 31488, Note_on_c, 1, 46, 100
5, 31488, Note_on_c, 1, 62, 100
5, 31488, Note_on_c, 1, 39, 100
5, 31488, Note_on_c, 1, 51, 100
5, 31488, Note_on_c, 1, 55, 100
5, 31489, Control_c, 1, 7, 103
5, 31591, Control_c, 1, 7, 103
5, 31632, Note_off_c, 1, 55, 64
5, 31632, Note_off_c, 1, 51, 64
5, 31632, Note_off_c, 1, 39, 64
5, 31632, Note_off_c, 1, 62, 64
5, 31632, Note_off_c, 1, 46, 64
5, 31632, Note_on_c, 1, 46, 100
5, 31632, Note_on_c, 1, 62, 100
5, 31632, Note_on_c, 1, 39, 100
5, 31632, Note_on_c, 1, 51, 100
5, 31632, Note_on_c, 1, 55, 100
5, 31695, Control_c, 1, 7, 103
5, 31776, Note_off_c, 1, 55, 64
5, 31776, Note_off_c, 1, 51, 64
5, 31776, Note_off_c, 1, 39, 64
5, 31776, Note_off_c, 1, 62, 64
5, 31776, Note_off_c, 1, 46, 64
5, 31776, Note_on_c, 1, 55, 100
5, 31776, Note_on_c, 1, 51, 100
5, 31776, Note_on_c, 1, 39, 100
5, 31776, Note_on_c, 1, 62, 100
5, 31776, Note_on_c, 1, 46, 100
5, 31797, Control_c, 1, 7, 103
5, 31901, Control_c, 1, 7, 103
5, 31920, Note_off_c, 1, 46, 64
5, 31920, Note_off_c, 1, 62, 64
5, 31920, Note_off_c, 1, 39, 64
5, 31920, Note_off_c, 1, 51, 64
5, 31920, Note_off_c, 1, 55, 64
5, 31920, Note_on_c, 1, 55, 100
5, 31920, Note_on_c, 1, 62, 100
5, 31920, Note_on_c, 1, 51, 100
5, 31920, Note_on_c, 1, 39, 100
5, 31920, Note_on_c, 1, 46, 100
5, 31968, Note_off_c, 1, 46, 64
5, 31968, Note_off_c, 1, 39, 64
5, 31968, Note_off_c, 1, 51, 64
5, 31968, Note_off_c, 1, 62, 64
5, 31968, Note_off_c, 1, 55, 64
5, 31968, Note_on_c, 1, 55, 100
5, 31968, Note_on_c, 1, 62, 100
5, 31968, Note_on_c, 1, 51, 100
5, 31968, Note_on_c, 1, 39, 100
5, 31968, Note_on_c, 1, 46, 100
5, 32004, Control_c, 1, 7, 103
5, 32016, Note_off_c, 1, 46, 64
5, 32016, Note_off_c, 1, 39, 64
5, 32016, Note_off_c, 1, 51, 64
5, 32016, Note_off_c, 1, 62, 64
5, 32016, Note_off_c, 1, 55, 64
5, 32016, Note_on_c, 1, 55, 100
5, 32016, Note_on_c, 1, 62, 100
5, 32016, Note_on_c, 1, 51, 100
5, 32016, Note_on_c, 1, 39, 100
5, 32016, Note_on_c, 1, 46, 100
5, 32064, Note_off_c, 1, 46, 64
5, 32064, Note_off_c, 1, 39, 64
5, 32064, Note_off_c, 1, 51, 64
5, 32064, Note_off_c, 1, 62, 64
5, 32064, Note_off_c, 1, 55, 64
5, 32064, Note_on_c, 1, 55, 100
5, 32064, Note_on_c, 1, 62, 100
5, 32064, Note_on_c, 1, 51, 100
5, 32064, Note_on_c, 1, 39, 100
5, 32064, Note_on_c, 1, 46, 100
5, 32107, Control_c, 1, 7, 103
5, 32112, Note_off_c, 1, 62, 64
5, 32112, Note_off_c, 1, 46, 64
5, 32112, Note_off_c, 1, 39, 64
5, 32112, Note_off_c, 1, 51, 64
5, 32112, Note_off_c, 1, 55, 64
5, 32112, Note_on_c, 1, 55, 100
5, 32112, Note_on_c, 1, 62, 100
5, 32112, Note_on_c, 1, 51, 100
5, 32112, Note_on_c, 1, 39, 100
5, 32112, Note_on_c, 1, 46, 100
5, 32160, Note_off_c, 1, 46, 64
5, 32160, Note_off_c, 1, 39, 64
5, 32160, Note_off_c, 1, 51, 64
5, 32160, Note_off_c, 1, 62, 64
5, 32160, Note_off_c, 1, 55, 64
5, 32160, Note_on_c, 1, 55, 100
5, 32160, Note_on_c, 1, 62, 100
5, 32160, Note_on_c, 1, 51, 100
5, 32160, Note_on_c, 1, 39, 100
5, 32160, Note_on_c, 1, 46, 100
5, 32208, Note_off_c, 1, 46, 64
5, 32208, Note_off_c, 1, 39, 64
5, 32208, Note_off_c, 1, 51, 64
5, 32208, Note_off_c, 1, 62, 64
5, 32208, Note_off_c, 1, 55, 64
5, 32208, Note_on_c, 1, 55, 100
5, 32208, Note_on_c, 1, 62, 100
5, 32208, Note_on_c, 1, 51, 100
5, 32208, Note_on_c, 1, 39, 100
5, 32208, Note_on_c, 1, 46, 100
5, 32210, Control_c, 1, 7, 103
5, 32256, Note_off_c, 1, 46, 64
5, 32256, Note_off_c, 1, 39, 64
5, 32256, Note_off_c, 1, 51, 64
5, 32256, Note_off_c, 1, 62, 64
5, 32256, Note_off_c, 1, 55, 64
5, 32256, Note_on_c, 1, 57, 100
5, 32256, Note_on_c, 1, 53, 100
5, 32256, Note_on_c, 1, 41, 100
5, 32256, Note_on_c, 1, 48, 100
5, 32313, Control_c, 1, 7, 103
5, 32400, Note_off_c, 1, 48, 64
5, 32400, Note_off_c, 1, 41, 64
5, 32400, Note_off_c, 1, 53, 64
5, 32400, Note_off_c, 1, 57, 64
5, 32400, Note_on_c, 1, 58, 100
5, 32400, Note_on_c, 1, 55, 100
5, 32400, Note_on_c, 1, 43, 100
5, 32400, Note_on_c, 1, 50, 100
5, 32416, Control_c, 1, 7, 103
5, 32520, Control_c, 1, 7, 103
5, 32544, Note_off_c, 1, 50, 64
5, 32544, Note_off_c, 1, 43, 64
5, 32544, Note_off_c, 1, 55, 64
5, 32544, Note_off_c, 1, 58, 64
5, 32544, Note_on_c, 1, 55, 100
5, 32544, Note_on_c, 1, 51, 100
5, 32544, Note_on_c, 1, 39, 100
5, 32544, Note_on_c, 1, 62, 100
5, 32544, Note_on_c, 1, 46, 100
5, 32622, Control_c, 1, 7, 103
5, 32688, Note_off_c, 1, 46, 64
5, 32688, Note_off_c, 1, 62, 64
5, 32688, Note_off_c, 1, 39, 64
5, 32688, Note_off_c, 1, 51, 64
5, 32688, Note_off_c, 1, 55, 64
5, 32688, Note_on_c, 1, 46, 100
5, 32688, Note_on_c, 1, 39, 100
5, 32688, Note_on_c, 1, 51, 100
5, 32688, Note_on_c, 1, 62, 100
5, 32688, Note_on_c, 1, 55, 100
5, 32726, Control_c, 1, 7, 103
5, 32736, Note_off_c, 1, 55, 64
5, 32736, Note_off_c, 1, 62, 64
5, 32736, Note_off_c, 1, 51, 64
5, 32736, Note_off_c, 1, 39, 64
5, 32736, Note_off_c, 1, 46, 64
5, 32736, Note_on_c, 1, 55, 100
5, 32736, Note_on_c, 1, 62, 100
5, 32736, Note_on_c, 1, 51, 100
5, 32736, Note_on_c, 1, 39, 100
5, 32736, Note_on_c, 1, 46, 100
5, 32784, Note_off_c, 1, 46, 64
5, 32784, Note_off_c, 1, 39, 64
5, 32784, Note_off_c, 1, 51, 64
5, 32784, Note_off_c, 1, 62, 64
5, 32784, Note_off_c, 1, 55, 64
5, 32784, Note_on_c, 1, 46, 100
5, 32784, Note_on_c, 1, 39, 100
5, 32784, Note_on_c, 1, 51, 100
5, 32784, Note_on_c, 1, 62, 100
5, 32784, Note_on_c, 1, 55, 100
5, 32828, Control_c, 1, 7, 103
5, 32832, Note_off_c, 1, 55, 64
5, 32832, Note_off_c, 1, 62, 64
5, 32832, Note_off_c, 1, 51, 64
5, 32832, Note_off_c, 1, 39, 64
5, 32832, Note_off_c, 1, 46, 64
5, 32832, Note_on_c, 1, 55, 100
5, 32832, Note_on_c, 1, 62, 100
5, 32832, Note_on_c, 1, 51, 100
5, 32832, Note_on_c, 1, 39, 100
5, 32832, Note_on_c, 1, 46, 100
5, 32880, Note_off_c, 1, 46, 64
5, 32880, Note_off_c, 1, 39, 64
5, 32880, Note_off_c, 1, 51, 64
5, 32880, Note_off_c, 1, 62, 64
5, 32880, Note_off_c, 1, 55, 64
5, 32880, Note_on_c, 1, 46, 100
5, 32880, Note_on_c, 1, 39, 100
5, 32880, Note_on_c, 1, 51, 100
5, 32880, Note_on_c, 1, 62, 100
5, 32880, Note_on_c, 1, 55, 100
5, 32928, Note_off_c, 1, 55, 64
5, 32928, Note_off_c, 1, 62, 64
5, 32928, Note_off_c, 1, 51, 64
5, 32928, Note_off_c, 1, 39, 64
5, 32928, Note_off_c, 1, 46, 64
5, 32928, Note_on_c, 1, 55, 100
5, 32928, Note_on_c, 1, 62, 100
5, 32928, Note_on_c, 1, 51, 100
5, 32928, Note_on_c, 1, 39, 100
5, 32928, Note_on_c, 1, 46, 100
5, 32932, Control_c, 1, 7, 103
5, 32976, Note_off_c, 1, 46, 64
5, 32976, Note_off_c, 1, 39, 64
5, 32976, Note_off_c, 1, 51, 64
5, 32976, Note_off_c, 1, 62, 64
5, 32976, Note_off_c, 1, 55, 64
5, 32976, Note_on_c, 1, 55, 100
5, 32976, Note_on_c, 1, 62, 100
5, 32976, Note_on_c, 1, 51, 100
5, 32976, Note_on_c, 1, 39, 100
5, 32976, Note_on_c, 1, 46, 100
5, 33024, Note_off_c, 1, 46, 64
5, 33024, Note_off_c, 1, 39, 64
5, 33024, Note_off_c, 1, 51, 64
5, 33024, Note_off_c, 1, 62, 64
5, 33024, Note_off_c, 1, 55, 64
5, 33024, Note_on_c, 1, 46, 100
5, 33024, Note_on_c, 1, 62, 100
5, 33024, Note_on_c, 1, 39, 100
5, 33024, Note_on_c, 1, 51, 100
5, 33024, Note_on_c, 1, 55, 100
5, 33035, Control_c, 1, 7, 103
5, 33138, Control_c, 1, 7, 103
5, 33168, Note_off_c, 1, 55, 64
5, 33168, Note_off_c, 1, 51, 64
5, 33168, Note_off_c, 1, 39, 64
5, 33168, Note_off_c, 1, 62, 64
5, 33168, Note_off_c, 1, 46, 64
5, 33168, Note_on_c, 1, 46, 100
5, 33168, Note_on_c, 1, 62, 100
5, 33168, Note_on_c, 1, 39, 100
5, 33168, Note_on_c, 1, 51, 100
5, 33168, Note_on_c, 1, 55, 100
5, 33241, Control_c, 1, 7, 103
5, 33312, Note_off_c, 1, 55, 64
5, 33312, Note_off_c, 1, 51, 64
5, 33312, Note_off_c, 1, 39, 64
5, 33312, Note_off_c, 1, 62, 64
5, 33312, Note_off_c, 1, 46, 64
5, 33312, Note_on_c, 1, 55, 100
5, 33312, Note_on_c, 1, 51, 100
5, 33312, Note_on_c, 1, 39, 100
5, 33312, Note_on_c, 1, 62, 100
5, 33312, Note_on_c, 1, 46, 100
5, 33344, Control_c, 1, 7, 103
5, 33447, Control_c, 1, 7, 103
5, 33456, Note_off_c, 1, 46, 64
5, 33456, Note_off_c, 1, 62, 64
5, 33456, Note_off_c, 1, 39, 64
5, 33456, Note_off_c, 1, 51, 64
5, 33456, Note_off_c, 1, 55, 64
5, 33456, Note_on_c, 1, 55, 100
5, 33456, Note_on_c, 1, 62, 100
5, 33456, Note_on_c, 1, 51, 100
5, 33456, Note_on_c, 1, 39, 100
5, 33456, Note_on_c, 1, 46, 100
5, 33504, Note_off_c, 1, 46, 64
5, 33504, Note_off_c, 1, 39, 64
5, 33504, Note_off_c, 1, 51, 64
5, 33504, Note_off_c, 1, 62, 64
5, 33504, Note_off_c, 1, 55, 64
5, 33504, Note_on_c, 1, 55, 100
5, 33504, Note_on_c, 1, 62, 100
5, 33504, Note_on_c, 1, 51, 100
5, 33504, Note_on_c, 1, 39, 100
5, 33504, Note_on_c, 1, 46, 100
5, 33550, Control_c, 1, 7, 103
5, 33552, Note_off_c, 1, 46, 64
5, 33552, Note_off_c, 1, 39, 64
5, 33552, Note_off_c, 1, 51, 64
5, 33552, Note_off_c, 1, 62, 64
5, 33552, Note_off_c, 1, 55, 64
5, 33552, Note_on_c, 1, 55, 100
5, 33552, Note_on_c, 1, 62, 100
5, 33552, Note_on_c, 1, 51, 100
5, 33552, Note_on_c, 1, 39, 100
5, 33552, Note_on_c, 1, 46, 100
5, 33600, Note_off_c, 1, 46, 64
5, 33600, Note_off_c, 1, 39, 64
5, 33600, Note_off_c, 1, 51, 64
5, 33600, Note_off_c, 1, 62, 64
5, 33600, Note_off_c, 1, 55, 64
5, 33600, Note_on_c, 1, 55, 100
5, 33600, Note_on_c, 1, 62, 100
5, 33600, Note_on_c, 1, 51, 100
5, 33600, Note_on_c, 1, 39, 100
5, 33600, Note_on_c, 1, 46, 100
5, 33648, Note_off_c, 1, 51, 64
5, 33648, Note_off_c, 1, 46, 64
5, 33648, Note_off_c, 1, 39, 64
5, 33648, Note_off_c, 1, 55, 64
5, 33648, Note_off_c, 1, 62, 64
5, 33648, Note_on_c, 1, 55, 100
5, 33648, Note_on_c, 1, 62, 100
5, 33648, Note_on_c, 1, 51, 100
5, 33648, Note_on_c, 1, 39, 100
5, 33648, Note_on_c, 1, 46, 100
5, 33653, Control_c, 1, 7, 103
5, 33696, Note_off_c, 1, 46, 64
5, 33696, Note_off_c, 1, 39, 64
5, 33696, Note_off_c, 1, 51, 64
5, 33696, Note_off_c, 1, 62, 64
5, 33696, Note_off_c, 1, 55, 64
5, 33696, Note_on_c, 1, 55, 100
5, 33696, Note_on_c, 1, 62, 100
5, 33696, Note_on_c, 1, 51, 100
5, 33696, Note_on_c, 1, 39, 100
5, 33696, Note_on_c, 1, 46, 100
5, 33744, Note_off_c, 1, 46, 64
5, 33744, Note_off_c, 1, 39, 64
5, 33744, Note_off_c, 1, 51, 64
5, 33744, Note_off_c, 1, 62, 64
5, 33744, Note_off_c, 1, 55, 64
5, 33744, Note_on_c, 1, 55, 100
5, 33744, Note_on_c, 1, 62, 100
5, 33744, Note_on_c, 1, 51, 100
5, 33744, Note_on_c, 1, 39, 100
5, 33744, Note_on_c, 1, 46, 100
5, 33757, Control_c, 1, 7, 103
5, 33792, Note_off_c, 1, 46, 64
5, 33792, Note_off_c, 1, 39, 64
5, 33792, Note_off_c, 1, 51, 64
5, 33792, Note_off_c, 1, 62, 64
5, 33792, Note_off_c, 1, 55, 64
5, 33792, Note_on_c, 1, 57, 100
5, 33792, Note_on_c, 1, 53, 100
5, 33792, Note_on_c, 1, 41, 100
5, 33792, Note_on_c, 1, 48, 100
5, 33859, Control_c, 1, 7, 103
5, 33936, Note_off_c, 1, 48, 64
5, 33936, Note_off_c, 1, 41, 64
5, 33936, Note_off_c, 1, 53, 64
5, 33936, Note_off_c, 1, 57, 64
5, 33936, Note_on_c, 1, 58, 100
5, 33936, Note_on_c, 1, 55, 100
5, 33936, Note_on_c, 1, 43, 100
5, 33936, Note_on_c, 1, 50, 100
5, 33963, Control_c, 1, 7, 103
5, 34065, Control_c, 1, 7, 103
5, 34080, Note_off_c, 1, 50, 64
5, 34080, Note_off_c, 1, 43, 64
5, 34080, Note_off_c, 1, 55, 64
5, 34080, Note_off_c, 1, 58, 64
5, 34080, Note_on_c, 1, 55, 100
5, 34080, Note_on_c, 1, 51, 100
5, 34080, Note_on_c, 1, 39, 100
5, 34080, Note_on_c, 1, 62, 100
5, 34080, Note_on_c, 1, 46, 100
5, 34169, Control_c, 1, 7, 103
5, 34224, Note_off_c, 1, 46, 64
5, 34224, Note_off_c, 1, 62, 64
5, 34224, Note_off_c, 1, 39, 64
5, 34224, Note_off_c, 1, 51, 64
5, 34224, Note_off_c, 1, 55, 64
5, 34224, Note_on_c, 1, 46, 100
5, 34224, Note_on_c, 1, 39, 100
5, 34224, Note_on_c, 1, 51, 100
5, 34224, Note_on_c, 1, 62, 100
5, 34224, Note_on_c, 1, 55, 100
5, 34272, Note_off_c, 1, 55, 64
5, 34272, Note_off_c, 1, 62, 64
5, 34272, Note_off_c, 1, 51, 64
5, 34272, Note_off_c, 1, 39, 64
5, 34272, Note_off_c, 1, 46, 64
5, 34272, Note_on_c, 1, 55, 100
5, 34272, Note_on_c, 1, 62, 100
5, 34272, Note_on_c, 1, 51, 100
5, 34272, Note_on_c, 1, 39, 100
5, 34272, Note_on_c, 1, 46, 100
5, 34272, Control_c, 1, 7, 103
5, 34320, Note_off_c, 1, 46, 64
5, 34320, Note_off_c, 1, 39, 64
5, 34320, Note_off_c, 1, 51, 64
5, 34320, Note_off_c, 1, 62, 64
5, 34320, Note_off_c, 1, 55, 64
5, 34320, Note_on_c, 1, 46, 100
5, 34320, Note_on_c, 1, 39, 100
5, 34320, Note_on_c, 1, 51, 100
5, 34320, Note_on_c, 1, 62, 100
5, 34320, Note_on_c, 1, 55, 100
5, 34368, Note_off_c, 1, 55, 64
5, 34368, Note_off_c, 1, 62, 64
5, 34368, Note_off_c, 1, 51, 64
5, 34368, Note_off_c, 1, 39, 64
5, 34368, Note_off_c, 1, 46, 64
5, 34368, Note_on_c, 1, 55, 100
5, 34368, Note_on_c, 1, 62, 100
5, 34368, Note_on_c, 1, 51, 100
5, 34368, Note_on_c, 1, 39, 100
5, 34368, Note_on_c, 1, 46, 100
5, 34375, Control_c, 1, 7, 103
5, 34416, Note_off_c, 1, 46, 64
5, 34416, Note_off_c, 1, 39, 64
5, 34416, Note_off_c, 1, 51, 64
5, 34416, Note_off_c, 1, 62, 64
5, 34416, Note_off_c, 1, 55, 64
5, 34416, Note_on_c, 1, 46, 100
5, 34416, Note_on_c, 1, 39, 100
5, 34416, Note_on_c, 1, 51, 100
5, 34416, Note_on_c, 1, 62, 100
5, 34416, Note_on_c, 1, 55, 100
5, 34464, Note_off_c, 1, 55, 64
5, 34464, Note_off_c, 1, 62, 64
5, 34464, Note_off_c, 1, 51, 64
5, 34464, Note_off_c, 1, 39, 64
5, 34464, Note_off_c, 1, 46, 64
5, 34464, Note_on_c, 1, 55, 100
5, 34464, Note_on_c, 1, 62, 100
5, 34464, Note_on_c, 1, 51, 100
5, 34464, Note_on_c, 1, 39, 100
5, 34464, Note_on_c, 1, 46, 100
5, 34478, Control_c, 1, 7, 103
5, 34512, Note_off_c, 1, 46, 64
5, 34512, Note_off_c, 1, 39, 64
5, 34512, Note_off_c, 1, 51, 64
5, 34512, Note_off_c, 1, 62, 64
5, 34512, Note_off_c, 1, 55, 64
5, 34512, Note_on_c, 1, 55, 100
5, 34512, Note_on_c, 1, 62, 100
5, 34512, Note_on_c, 1, 51, 100
5, 34512, Note_on_c, 1, 39, 100
5, 34512, Note_on_c, 1, 46, 100
5, 34560, Note_off_c, 1, 46, 64
5, 34560, Note_off_c, 1, 39, 64
5, 34560, Note_off_c, 1, 51, 64
5, 34560, Note_off_c, 1, 62, 64
5, 34560, Note_off_c, 1, 55, 64
5, 34560, Note_on_c, 1, 46, 100
5, 34560, Note_on_c, 1, 62, 100
5, 34560, Note_on_c, 1, 39, 100
5, 34560, Note_on_c, 1, 51, 100
5, 34560, Note_on_c, 1, 55, 100
5, 34581, Control_c, 1, 7, 103
5, 34684, Control_c, 1, 7, 103
5, 34704, Note_off_c, 1, 55, 64
5, 34704, Note_off_c, 1, 51, 64
5, 34704, Note_off_c, 1, 39, 64
5, 34704, Note_off_c, 1, 62, 64
5, 34704, Note_off_c, 1, 46, 64
5, 34704, Note_on_c, 1, 46, 100
5, 34704, Note_on_c, 1, 62, 100
5, 34704, Note_on_c, 1, 39, 100
5, 34704, Note_on_c, 1, 51, 100
5, 34704, Note_on_c, 1, 55, 100
5, 34788, Control_c, 1, 7, 103
5, 34848, Note_off_c, 1, 55, 64
5, 34848, Note_off_c, 1, 51, 64
5, 34848, Note_off_c, 1, 39, 64
5, 34848, Note_off_c, 1, 62, 64
5, 34848, Note_off_c, 1, 46, 64
5, 34848, Note_on_c, 1, 55, 100
5, 34848, Note_on_c, 1, 51, 100
5, 34848, Note_on_c, 1, 39, 100
5, 34848, Note_on_c, 1, 62, 100
5, 34848, Note_on_c, 1, 46, 100
5, 34890, Control_c, 1, 7, 103
5, 34992, Note_off_c, 1, 46, 64
5, 34992, Note_off_c, 1, 62, 64
5, 34992, Note_off_c, 1, 39, 64
5, 34992, Note_off_c, 1, 51, 64
5, 34992, Note_off_c, 1, 55, 64
5, 34992, Note_on_c, 1, 55, 100
5, 34992, Note_on_c, 1, 62, 100
5, 34992, Note_on_c, 1, 51, 100
5, 34992, Note_on_c, 1, 39, 100
5, 34992, Note_on_c, 1, 46, 100
5, 34994, Control_c, 1, 7, 103
5, 35040, Note_off_c, 1, 46, 64
5, 35040, Note_off_c, 1, 39, 64
5, 35040, Note_off_c, 1, 51, 64
5, 35040, Note_off_c, 1, 62, 64
5, 35040, Note_off_c, 1, 55, 64
5, 35040, Note_on_c, 1, 55, 100
5, 35040, Note_on_c, 1, 62, 100
5, 35040, Note_on_c, 1, 51, 100
5, 35040, Note_on_c, 1, 39, 100
5, 35040, Note_on_c, 1, 46, 100
5, 35088, Note_off_c, 1, 46, 64
5, 35088, Note_off_c, 1, 39, 64
5, 35088, Note_off_c, 1, 51, 64
5, 35088, Note_off_c, 1, 62, 64
5, 35088, Note_off_c, 1, 55, 64
5, 35088, Note_on_c, 1, 55, 100
5, 35088, Note_on_c, 1, 62, 100
5, 35088, Note_on_c, 1, 51, 100
5, 35088, Note_on_c, 1, 39, 100
5, 35088, Note_on_c, 1, 46, 100
5, 35096, Control_c, 1, 7, 103
5, 35136, Note_off_c, 1, 46, 64
5, 35136, Note_off_c, 1, 39, 64
5, 35136, Note_off_c, 1, 51, 64
5, 35136, Note_off_c, 1, 62, 64
5, 35136, Note_off_c, 1, 55, 64
5, 35136, Note_on_c, 1, 55, 100
5, 35136, Note_on_c, 1, 62, 100
5, 35136, Note_on_c, 1, 51, 100
5, 35136, Note_on_c, 1, 39, 100
5, 35136, Note_on_c, 1, 46, 100
5, 35184, Note_off_c, 1, 62, 64
5, 35184, Note_off_c, 1, 46, 64
5, 35184, Note_off_c, 1, 39, 64
5, 35184, Note_off_c, 1, 51, 64
5, 35184, Note_off_c, 1, 55, 64
5, 35184, Note_on_c, 1, 55, 100
5, 35184, Note_on_c, 1, 62, 100
5, 35184, Note_on_c, 1, 51, 100
5, 35184, Note_on_c, 1, 39, 100
5, 35184, Note_on_c, 1, 46, 100
5, 35200, Control_c, 1, 7, 103
5, 35232, Note_off_c, 1, 46, 64
5, 35232, Note_off_c, 1, 39, 64
5, 35232, Note_off_c, 1, 51, 64
5, 35232, Note_off_c, 1, 62, 64
5, 35232, Note_off_c, 1, 55, 64
5, 35232, Note_on_c, 1, 55, 100
5, 35232, Note_on_c, 1, 62, 100
5, 35232, Note_on_c, 1, 51, 100
5, 35232, Note_on_c, 1, 39, 100
5, 35232, Note_on_c, 1, 46, 100
5, 35280, Note_off_c, 1, 46, 64
5, 35280, Note_off_c, 1, 39, 64
5, 35280, Note_off_c, 1, 51, 64
5, 35280, Note_off_c, 1, 62, 64
5, 35280, Note_off_c, 1, 55, 64
5, 35280, Note_on_c, 1, 55, 100
5, 35280, Note_on_c, 1, 62, 100
5, 35280, Note_on_c, 1, 51, 100
5, 35280, Note_on_c, 1, 39, 100
5, 35280, Note_on_c, 1, 46, 100
5, 35303, Control_c, 1, 7, 103
5, 35328, Note_off_c, 1, 46, 64
5, 35328, Note_off_c, 1, 39, 64
5, 35328, Note_off_c, 1, 51, 64
5, 35328, Note_off_c, 1, 62, 64
5, 35328, Note_off_c, 1, 55, 64
5, 35328, Note_on_c, 1, 57, 100
5, 35328, Note_on_c, 1, 53, 100
5, 35328, Note_on_c, 1, 41, 100
5, 35328, Note_on_c, 1, 48, 100
5, 35406, Control_c, 1, 7, 103
5, 35472, Note_off_c, 1, 48, 64
5, 35472, Note_off_c, 1, 41, 64
5, 35472, Note_off_c, 1, 53, 64
5, 35472, Note_off_c, 1, 57, 64
5, 35472, Note_on_c, 1, 58, 100
5, 35472, Note_on_c, 1, 55, 100
5, 35472, Note_on_c, 1, 43, 100
5, 35472, Note_on_c, 1, 50, 100
5, 35509, Control_c, 1, 7, 103
5, 35612, Control_c, 1, 7, 103
5, 35616, Note_off_c, 1, 50, 64
5, 35616, Note_off_c, 1, 43, 64
5, 35616, Note_off_c, 1, 55, 64
5, 35616, Note_off_c, 1, 58, 64
5, 35616, Note_on_c, 1, 55, 100
5, 35616, Note_on_c, 1, 51, 100
5, 35616, Note_on_c, 1, 39, 100
5, 35616, Note_on_c, 1, 62, 100
5, 35616, Note_on_c, 1, 46, 100
5, 35715, Control_c, 1, 7, 103
5, 35760, Note_off_c, 1, 46, 64
5, 35760, Note_off_c, 1, 62, 64
5, 35760, Note_off_c, 1, 39, 64
5, 35760, Note_off_c, 1, 51, 64
5, 35760, Note_off_c, 1, 55, 64
5, 35760, Note_on_c, 1, 46, 100
5, 35760, Note_on_c, 1, 39, 100
5, 35760, Note_on_c, 1, 51, 100
5, 35760, Note_on_c, 1, 62, 100
5, 35760, Note_on_c, 1, 55, 100
5, 35808, Note_off_c, 1, 55, 64
5, 35808, Note_off_c, 1, 62, 64
5, 35808, Note_off_c, 1, 51, 64
5, 35808, Note_off_c, 1, 39, 64
5, 35808, Note_off_c, 1, 46, 64
5, 35808, Note_on_c, 1, 55, 100
5, 35808, Note_on_c, 1, 62, 100
5, 35808, Note_on_c, 1, 51, 100
5, 35808, Note_on_c, 1, 39, 100
5, 35808, Note_on_c, 1, 46, 100
5, 35818, Control_c, 1, 7, 103
5, 35856, Note_off_c, 1, 46, 64
5, 35856, Note_off_c, 1, 39, 64
5, 35856, Note_off_c, 1, 51, 64
5, 35856, Note_off_c, 1, 62, 64
5, 35856, Note_off_c, 1, 55, 64
5, 35856, Note_on_c, 1, 46, 100
5, 35856, Note_on_c, 1, 39, 100
5, 35856, Note_on_c, 1, 51, 100
5, 35856, Note_on_c, 1, 62, 100
5, 35856, Note_on_c, 1, 55, 100
5, 35904, Note_off_c, 1, 55, 64
5, 35904, Note_off_c, 1, 62, 64
5, 35904, Note_off_c, 1, 51, 64
5, 35904, Note_off_c, 1, 39, 64
5, 35904, Note_off_c, 1, 46, 64
5, 35904, Note_on_c, 1, 55, 100
5, 35904, Note_on_c, 1, 62, 100
5, 35904, Note_on_c, 1, 51, 100
5, 35904, Note_on_c, 1, 39, 100
5, 35904, Note_on_c, 1, 46, 100
5, 35921, Control_c, 1, 7, 103
5, 35952, Note_off_c, 1, 46, 64
5, 35952, Note_off_c, 1, 39, 64
5, 35952, Note_off_c, 1, 51, 64
5, 35952, Note_off_c, 1, 62, 64
5, 35952, Note_off_c, 1, 55, 64
5, 35952, Note_on_c, 1, 46, 100
5, 35952, Note_on_c, 1, 39, 100
5, 35952, Note_on_c, 1, 51, 100
5, 35952, Note_on_c, 1, 62, 100
5, 35952, Note_on_c, 1, 55, 100
5, 36000, Note_off_c, 1, 55, 64
5, 36000, Note_off_c, 1, 62, 64
5, 36000, Note_off_c, 1, 51, 64
5, 36000, Note_off_c, 1, 39, 64
5, 36000, Note_off_c, 1, 46, 64
5, 36000, Note_on_c, 1, 55, 100
5, 36000, Note_on_c, 1, 62, 100
5, 36000, Note_on_c, 1, 51, 100
5, 36000, Note_on_c, 1, 39, 100
5, 36000, Note_on_c, 1, 46, 100
5, 36025, Control_c, 1, 7, 103
5, 36048, Note_off_c, 1, 46, 64
5, 36048, Note_off_c, 1, 39, 64
5, 36048, Note_off_c, 1, 51, 64
5, 36048, Note_off_c, 1, 62, 64
5, 36048, Note_off_c, 1, 55, 64
5, 36048, Note_on_c, 1, 55, 100
5, 36048, Note_on_c, 1, 62, 100
5, 36048, Note_on_c, 1, 51, 100
5, 36048, Note_on_c, 1, 39, 100
5, 36048, Note_on_c, 1, 46, 100
5, 36096, Note_off_c, 1, 46, 64
5, 36096, Note_off_c, 1, 39, 64
5, 36096, Note_off_c, 1, 51, 64
5, 36096, Note_off_c, 1, 62, 64
5, 36096, Note_off_c, 1, 55, 64
5, 36096, Note_on_c, 1, 46, 100
5, 36096, Note_on_c, 1, 62, 100
5, 36096, Note_on_c, 1, 39, 100
5, 36096, Note_on_c, 1, 51, 100
5, 36096, Note_on_c, 1, 55, 100
5, 36127, Control_c, 1, 7, 103
5, 36231, Control_c, 1, 7, 103
5, 36240, Note_off_c, 1, 55, 64
5, 36240, Note_off_c, 1, 51, 64
5, 36240, Note_off_c, 1, 39, 64
5, 36240, Note_off_c, 1, 62, 64
5, 36240, Note_off_c, 1, 46, 64
5, 36240, Note_on_c, 1, 46, 100
5, 36240, Note_on_c, 1, 62, 100
5, 36240, Note_on_c, 1, 39, 100
5, 36240, Note_on_c, 1, 51, 100
5, 36240, Note_on_c, 1, 55, 100
5, 36334, Control_c, 1, 7, 103
5, 36384, Note_off_c, 1, 55, 64
5, 36384, Note_off_c, 1, 51, 64
5, 36384, Note_off_c, 1, 39, 64
5, 36384, Note_off_c, 1, 62, 64
5, 36384, Note_off_c, 1, 46, 64
5, 36384, Note_on_c, 1, 55, 100
5, 36384, Note_on_c, 1, 51, 100
5, 36384, Note_on_c, 1, 39, 100
5, 36384, Note_on_c, 1, 62, 100
5, 36384, Note_on_c, 1, 46, 100
5, 36437, Control_c, 1, 7, 103
5, 36528, Note_off_c, 1, 46, 64
5, 36528, Note_off_c, 1, 62, 64
5, 36528, Note_off_c, 1, 39, 64
5, 36528, Note_off_c, 1, 51, 64
5, 36528, Note_off_c, 1, 55, 64
5, 36528, Note_on_c, 1, 55, 100
5, 36528, Note_on_c, 1, 62, 100
5, 36528, Note_on_c, 1, 51, 100
5, 36528, Note_on_c, 1, 39, 100
5, 36528, Note_on_c, 1, 46, 100
5, 36540, Control_c, 1, 7, 103
5, 36576, Note_off_c, 1, 46, 64
5, 36576, Note_off_c, 1, 39, 64
5, 36576, Note_off_c, 1, 51, 64
5, 36576, Note_off_c, 1, 62, 64
5, 36576, Note_off_c, 1, 55, 64
5, 36576, Note_on_c, 1, 55, 100
5, 36576, Note_on_c, 1, 62, 100
5, 36576, Note_on_c, 1, 51, 100
5, 36576, Note_on_c, 1, 39, 100
5, 36576, Note_on_c, 1, 46, 100
5, 36624, Note_off_c, 1, 46, 64
5, 36624, Note_off_c, 1, 39, 64
5, 36624, Note_off_c, 1, 51, 64
5, 36624, Note_off_c, 1, 62, 64
5, 36624, Note_off_c, 1, 55, 64
5, 36624, Note_on_c, 1, 55, 100
5, 36624, Note_on_c, 1, 62, 100
5, 36624, Note_on_c, 1, 51, 100
5, 36624, Note_on_c, 1, 39, 100
5, 36624, Note_on_c, 1, 46, 100
5, 36643, Control_c, 1, 7, 103
5, 36672, Note_off_c, 1, 46, 64
5, 36672, Note_off_c, 1, 39, 64
5, 36672, Note_off_c, 1, 51, 64
5, 36672, Note_off_c, 1, 62, 64
5, 36672, Note_off_c, 1, 55, 64
5, 36672, Note_on_c, 1, 55, 100
5, 36672, Note_on_c, 1, 62, 100
5, 36672, Note_on_c, 1, 51, 100
5, 36672, Note_on_c, 1, 39, 100
5, 36672, Note_on_c, 1, 46, 100
5, 36720, Note_off_c, 1, 46, 64
5, 36720, Note_off_c, 1, 39, 64
5, 36720, Note_off_c, 1, 51, 64
5, 36720, Note_off_c, 1, 62, 64
5, 36720, Note_off_c, 1, 55, 64
5, 36720, Note_on_c, 1, 55, 100
5, 36720, Note_on_c, 1, 62, 100
5, 36720, Note_on_c, 1, 51, 100
5, 36720, Note_on_c, 1, 39, 100
5, 36720, Note_on_c, 1, 46, 100
5, 36746, Control_c, 1, 7, 103
5, 36768, Note_off_c, 1, 55, 64
5, 36768, Note_off_c, 1, 46, 64
5, 36768, Note_off_c, 1, 39, 64
5, 36768, Note_off_c, 1, 51, 64
5, 36768, Note_off_c, 1, 62, 64
5, 36768, Note_on_c, 1, 55, 100
5, 36768, Note_on_c, 1, 62, 100
5, 36768, Note_on_c, 1, 51, 100
5, 36768, Note_on_c, 1, 39, 100
5, 36768, Note_on_c, 1, 46, 100
5, 36816, Note_off_c, 1, 46, 64
5, 36816, Note_off_c, 1, 39, 64
5, 36816, Note_off_c, 1, 51, 64
5, 36816, Note_off_c, 1, 62, 64
5, 36816, Note_off_c, 1, 55, 64
5, 36816, Note_on_c, 1, 55, 100
5, 36816, Note_on_c, 1, 62, 100
5, 36816, Note_on_c, 1, 51, 100
5, 36816, Note_on_c, 1, 39, 100
5, 36816, Note_on_c, 1, 46, 100
5, 36849, Control_c, 1, 7, 103
5, 36864, Note_off_c, 1, 55, 64
5, 36864, Note_off_c, 1, 46, 64
5, 36864, Note_off_c, 1, 39, 64
5, 36864, Note_off_c, 1, 51, 64
5, 36864, Note_off_c, 1, 62, 64
5, 36864, Note_on_c, 1, 57, 100
5, 36864, Note_on_c, 1, 53, 100
5, 36864, Note_on_c, 1, 41, 100
5, 36864, Note_on_c, 1, 48, 100
5, 36952, Control_c, 1, 7, 103
5, 37008, Note_off_c, 1, 48, 64
5, 37008, Note_off_c, 1, 41, 64
5, 37008, Note_off_c, 1, 53, 64
5, 37008, Note_off_c, 1, 57, 64
5, 37008, Note_on_c, 1, 58, 100
5, 37008, Note_on_c, 1, 55, 100
5, 37008, Note_on_c, 1, 43, 100
5, 37008, Note_on_c, 1, 50, 100
5, 37056, Control_c, 1, 7, 103
5, 37152, Note_off_c, 1, 50, 64
5, 37152, Note_off_c, 1, 43, 64
5, 37152, Note_off_c, 1, 55, 64
5, 37152, Note_off_c, 1, 58, 64
5, 37152, Note_on_c, 1, 55, 100
5, 37152, Note_on_c, 1, 51, 100
5, 37152, Note_on_c, 1, 39, 100
5, 37152, Note_on_c, 1, 62, 100
5, 37152, Note_on_c, 1, 46, 100
5, 37158, Control_c, 1, 7, 103
5, 37262, Control_c, 1, 7, 103
5, 37296, Note_off_c, 1, 46, 64
5, 37296, Note_off_c, 1, 62, 64
5, 37296, Note_off_c, 1, 39, 64
5, 37296, Note_off_c, 1, 51, 64
5, 37296, Note_off_c, 1, 55, 64
5, 37296, Note_on_c, 1, 55, 100
5, 37296, Note_on_c, 1, 62, 100
5, 37296, Note_on_c, 1, 51, 100
5, 37296, Note_on_c, 1, 39, 100
5, 37296, Note_on_c, 1, 46, 100
5, 37344, Note_off_c, 1, 46, 64
5, 37344, Note_off_c, 1, 39, 64
5, 37344, Note_off_c, 1, 51, 64
5, 37344, Note_off_c, 1, 62, 64
5, 37344, Note_off_c, 1, 55, 64
5, 37344, Note_on_c, 1, 55, 100
5, 37344, Note_on_c, 1, 62, 100
5, 37344, Note_on_c, 1, 51, 100
5, 37344, Note_on_c, 1, 39, 100
5, 37344, Note_on_c, 1, 46, 100
5, 37364, Control_c, 1, 7, 103
5, 37392, Note_off_c, 1, 46, 64
5, 37392, Note_off_c, 1, 39, 64
5, 37392, Note_off_c, 1, 51, 64
5, 37392, Note_off_c, 1, 62, 64
5, 37392, Note_off_c, 1, 55, 64
5, 37392, Note_on_c, 1, 55, 100
5, 37392, Note_on_c, 1, 62, 100
5, 37392, Note_on_c, 1, 51, 100
5, 37392, Note_on_c, 1, 39, 100
5, 37392, Note_on_c, 1, 46, 100
5, 37440, Note_off_c, 1, 46, 64
5, 37440, Note_off_c, 1, 39, 64
5, 37440, Note_off_c, 1, 51, 64
5, 37440, Note_off_c, 1, 62, 64
5, 37440, Note_off_c, 1, 55, 64
5, 37440, Note_on_c, 1, 55, 100
5, 37440, Note_on_c, 1, 62, 100
5, 37440, Note_on_c, 1, 51, 100
5, 37440, Note_on_c, 1, 39, 100
5, 37440, Note_on_c, 1, 46, 100
5, 37468, Control_c, 1, 7, 103
5, 37488, Note_off_c, 1, 46, 64
5, 37488, Note_off_c, 1, 39, 64
5, 37488, Note_off_c, 1, 51, 64
5, 37488, Note_off_c, 1, 62, 64
5, 37488, Note_off_c, 1, 55, 64
5, 37488, Note_on_c, 1, 55, 100
5, 37488, Note_on_c, 1, 62, 100
5, 37488, Note_on_c, 1, 51, 100
5, 37488, Note_on_c, 1, 39, 100
5, 37488, Note_on_c, 1, 46, 100
5, 37536, Note_off_c, 1, 46, 64
5, 37536, Note_off_c, 1, 39, 64
5, 37536, Note_off_c, 1, 51, 64
5, 37536, Note_off_c, 1, 62, 64
5, 37536, Note_off_c, 1, 55, 64
5, 37536, Note_on_c, 1, 55, 100
5, 37536, Note_on_c, 1, 62, 100
5, 37536, Note_on_c, 1, 51, 100
5, 37536, Note_on_c, 1, 39, 100
5, 37536, Note_on_c, 1, 46, 100
5, 37571, Control_c, 1, 7, 103
5, 37584, Note_off_c, 1, 46, 64
5, 37584, Note_off_c, 1, 39, 64
5, 37584, Note_off_c, 1, 51, 64
5, 37584, Note_off_c, 1, 62, 64
5, 37584, Note_off_c, 1, 55, 64
5, 37584, Note_on_c, 1, 55, 100
5, 37584, Note_on_c, 1, 62, 100
5, 37584, Note_on_c, 1, 51, 100
5, 37584, Note_on_c, 1, 39, 100
5, 37584, Note_on_c, 1, 46, 100
5, 37632, Note_off_c, 1, 46, 64
5, 37632, Note_off_c, 1, 39, 64
5, 37632, Note_off_c, 1, 51, 64
5, 37632, Note_off_c, 1, 62, 64
5, 37632, Note_off_c, 1, 55, 64
5, 37632, Note_on_c, 1, 57, 100
5, 37632, Note_on_c, 1, 53, 100
5, 37632, Note_on_c, 1, 41, 100
5, 37632, Note_on_c, 1, 48, 100
5, 37674, Control_c, 1, 7, 103
5, 37776, Note_off_c, 1, 48, 64
5, 37776, Note_off_c, 1, 41, 64
5, 37776, Note_off_c, 1, 53, 64
5, 37776, Note_off_c, 1, 57, 64
5, 37776, Note_on_c, 1, 58, 100
5, 37776, Note_on_c, 1, 55, 100
5, 37776, Note_on_c, 1, 43, 100
5, 37776, Note_on_c, 1, 50, 100
5, 37777, Control_c, 1, 7, 103
5, 37880, Control_c, 1, 7, 103
5, 37920, Note_off_c, 1, 50, 64
5, 37920, Note_off_c, 1, 43, 64
5, 37920, Note_off_c, 1, 55, 64
5, 37920, Note_off_c, 1, 58, 64
5, 37920, Note_on_c, 1, 55, 100
5, 37920, Note_on_c, 1, 51, 100
5, 37920, Note_on_c, 1, 39, 100
5, 37920, Note_on_c, 1, 62, 100
5, 37920, Note_on_c, 1, 46, 100
5, 37983, Control_c, 1, 7, 103
5, 38064, Note_off_c, 1, 46, 64
5, 38064, Note_off_c, 1, 62, 64
5, 38064, Note_off_c, 1, 39, 64
5, 38064, Note_off_c, 1, 51, 64
5, 38064, Note_off_c, 1, 55, 64
5, 38064, Note_on_c, 1, 55, 100
5, 38064, Note_on_c, 1, 62, 100
5, 38064, Note_on_c, 1, 51, 100
5, 38064, Note_on_c, 1, 39, 100
5, 38064, Note_on_c, 1, 46, 100
5, 38086, Control_c, 1, 7, 103
5, 38112, Note_off_c, 1, 55, 64
5, 38112, Note_off_c, 1, 46, 64
5, 38112, Note_off_c, 1, 39, 64
5, 38112, Note_off_c, 1, 51, 64
5, 38112, Note_off_c, 1, 62, 64
5, 38112, Note_on_c, 1, 55, 100
5, 38112, Note_on_c, 1, 62, 100
5, 38112, Note_on_c, 1, 51, 100
5, 38112, Note_on_c, 1, 39, 100
5, 38112, Note_on_c, 1, 46, 100
5, 38160, Note_off_c, 1, 55, 64
5, 38160, Note_off_c, 1, 46, 64
5, 38160, Note_off_c, 1, 39, 64
5, 38160, Note_off_c, 1, 51, 64
5, 38160, Note_off_c, 1, 62, 64
5, 38160, Note_on_c, 1, 55, 100
5, 38160, Note_on_c, 1, 62, 100
5, 38160, Note_on_c, 1, 51, 100
5, 38160, Note_on_c, 1, 39, 100
5, 38160, Note_on_c, 1, 46, 100
5, 38189, Control_c, 1, 7, 103
5, 38208, Note_off_c, 1, 55, 64
5, 38208, Note_off_c, 1, 46, 64
5, 38208, Note_off_c, 1, 39, 64
5, 38208, Note_off_c, 1, 51, 64
5, 38208, Note_off_c, 1, 62, 64
5, 38208, Note_on_c, 1, 55, 100
5, 38208, Note_on_c, 1, 62, 100
5, 38208, Note_on_c, 1, 51, 100
5, 38208, Note_on_c, 1, 39, 100
5, 38208, Note_on_c, 1, 46, 100
5, 38256, Note_off_c, 1, 55, 64
5, 38256, Note_off_c, 1, 46, 64
5, 38256, Note_off_c, 1, 39, 64
5, 38256, Note_off_c, 1, 51, 64
5, 38256, Note_off_c, 1, 62, 64
5, 38256, Note_on_c, 1, 55, 100
5, 38256, Note_on_c, 1, 62, 100
5, 38256, Note_on_c, 1, 51, 100
5, 38256, Note_on_c, 1, 39, 100
5, 38256, Note_on_c, 1, 46, 100
5, 38293, Control_c, 1, 7, 103
5, 38304, Note_off_c, 1, 55, 64
5, 38304, Note_off_c, 1, 46, 64
5, 38304, Note_off_c, 1, 39, 64
5, 38304, Note_off_c, 1, 51, 64
5, 38304, Note_off_c, 1, 62, 64
5, 38304, Note_on_c, 1, 55, 100
5, 38304, Note_on_c, 1, 62, 100
5, 38304, Note_on_c, 1, 51, 100
5, 38304, Note_on_c, 1, 39, 100
5, 38304, Note_on_c, 1, 46, 100
5, 38352, Note_off_c, 1, 55, 64
5, 38352, Note_off_c, 1, 46, 64
5, 38352, Note_off_c, 1, 39, 64
5, 38352, Note_off_c, 1, 51, 64
5, 38352, Note_off_c, 1, 62, 64
5, 38352, Note_on_c, 1, 55, 100
5, 38352, Note_on_c, 1, 62, 100
5, 38352, Note_on_c, 1, 51, 100
5, 38352, Note_on_c, 1, 39, 100
5, 38352, Note_on_c, 1, 46, 100
5, 38395, Control_c, 1, 7, 103
5, 38400, Note_off_c, 1, 46, 64
5, 38400, Note_off_c, 1, 39, 64
5, 38400, Note_off_c, 1, 51, 64
5, 38400, Note_off_c, 1, 62, 64
5, 38400, Note_off_c, 1, 55, 64
5, 38400, Note_on_c, 1, 57, 100
5, 38400, Note_on_c, 1, 53, 100
5, 38400, Note_on_c, 1, 41, 100
5, 38400, Note_on_c, 1, 48, 100
5, 38499, Control_c, 1, 7, 103
5, 38544, Note_off_c, 1, 48, 64
5, 38544, Note_off_c, 1, 41, 64
5, 38544, Note_off_c, 1, 53, 64
5, 38544, Note_off_c, 1, 57, 64
5, 38544, Note_on_c, 1, 58, 100
5, 38544, Note_on_c, 1, 55, 100
5, 38544, Note_on_c, 1, 43, 100
5, 38544, Note_on_c, 1, 50, 100
5, 38602, Control_c, 1, 7, 103
5, 38688, Note_off_c, 1, 50, 64
5, 38688, Note_off_c, 1, 43, 64
5, 38688, Note_off_c, 1, 55, 64
5, 38688, Note_off_c, 1, 58, 64
5, 38688, Note_on_c, 1, 55, 100
5, 38688, Note_on_c, 1, 51, 100
5, 38688, Note_on_c, 1, 39, 100
5, 38688, Note_on_c, 1, 62, 100
5, 38688, Note_on_c, 1, 46, 100
5, 38705, Control_c, 1, 7, 103
5, 38808, Control_c, 1, 7, 103
5, 38832, Note_off_c, 1, 46, 64
5, 38832, Note_off_c, 1, 62, 64
5, 38832, Note_off_c, 1, 39, 64
5, 38832, Note_off_c, 1, 51, 64
5, 38832, Note_off_c, 1, 55, 64
5, 38832, Note_on_c, 1, 55, 100
5, 38832, Note_on_c, 1, 62, 100
5, 38832, Note_on_c, 1, 51, 100
5, 38832, Note_on_c, 1, 39, 100
5, 38832, Note_on_c, 1, 46, 100
5, 38880, Note_off_c, 1, 46, 64
5, 38880, Note_off_c, 1, 39, 64
5, 38880, Note_off_c, 1, 51, 64
5, 38880, Note_off_c, 1, 62, 64
5, 38880, Note_off_c, 1, 55, 64
5, 38880, Note_on_c, 1, 55, 100
5, 38880, Note_on_c, 1, 62, 100
5, 38880, Note_on_c, 1, 51, 100
5, 38880, Note_on_c, 1, 39, 100
5, 38880, Note_on_c, 1, 46, 100
5, 38911, Control_c, 1, 7, 103
5, 38928, Note_off_c, 1, 46, 64
5, 38928, Note_off_c, 1, 39, 64
5, 38928, Note_off_c, 1, 51, 64
5, 38928, Note_off_c, 1, 62, 64
5, 38928, Note_off_c, 1, 55, 64
5, 38928, Note_on_c, 1, 55, 100
5, 38928, Note_on_c, 1, 62, 100
5, 38928, Note_on_c, 1, 51, 100
5, 38928, Note_on_c, 1, 39, 100
5, 38928, Note_on_c, 1, 46, 100
5, 38976, Note_off_c, 1, 46, 64
5, 38976, Note_off_c, 1, 39, 64
5, 38976, Note_off_c, 1, 51, 64
5, 38976, Note_off_c, 1, 62, 64
5, 38976, Note_off_c, 1, 55, 64
5, 38976, Note_on_c, 1, 55, 100
5, 38976, Note_on_c, 1, 62, 100
5, 38976, Note_on_c, 1, 51, 100
5, 38976, Note_on_c, 1, 39, 100
5, 38976, Note_on_c, 1, 46, 100
5, 39014, Control_c, 1, 7, 103
5, 39024, Note_off_c, 1, 46, 64
5, 39024, Note_off_c, 1, 39, 64
5, 39024, Note_off_c, 1, 51, 64
5, 39024, Note_off_c, 1, 62, 64
5, 39024, Note_off_c, 1, 55, 64
5, 39024, Note_on_c, 1, 55, 100
5, 39024, Note_on_c, 1, 62, 100
5, 39024, Note_on_c, 1, 51, 100
5, 39024, Note_on_c, 1, 39, 100
5, 39024, Note_on_c, 1, 46, 100
5, 39072, Note_off_c, 1, 46, 64
5, 39072, Note_off_c, 1, 39, 64
5, 39072, Note_off_c, 1, 51, 64
5, 39072, Note_off_c, 1, 62, 64
5, 39072, Note_off_c, 1, 55, 64
5, 39072, Note_on_c, 1, 55, 100
5, 39072, Note_on_c, 1, 62, 100
5, 39072, Note_on_c, 1, 51, 100
5, 39072, Note_on_c, 1, 39, 100
5, 39072, Note_on_c, 1, 46, 100
5, 39117, Control_c, 1, 7, 103
5, 39120, Note_off_c, 1, 46, 64
5, 39120, Note_off_c, 1, 39, 64
5, 39120, Note_off_c, 1, 51, 64
5, 39120, Note_off_c, 1, 62, 64
5, 39120, Note_off_c, 1, 55, 64
5, 39120, Note_on_c, 1, 55, 100
5, 39120, Note_on_c, 1, 62, 100
5, 39120, Note_on_c, 1, 51, 100
5, 39120, Note_on_c, 1, 39, 100
5, 39120, Note_on_c, 1, 46, 100
5, 39168, Note_off_c, 1, 46, 64
5, 39168, Note_off_c, 1, 39, 64
5, 39168, Note_off_c, 1, 51, 64
5, 39168, Note_off_c, 1, 62, 64
5, 39168, Note_off_c, 1, 55, 64
5, 39168, Note_on_c, 1, 57, 100
5, 39168, Note_on_c, 1, 53, 100
5, 39168, Note_on_c, 1, 41, 100
5, 39168, Note_on_c, 1, 48, 100
5, 39220, Control_c, 1, 7, 103
5, 39312, Note_off_c, 1, 48, 64
5, 39312, Note_off_c, 1, 41, 64
5, 39312, Note_off_c, 1, 53, 64
5, 39312, Note_off_c, 1, 57, 64
5, 39312, Note_on_c, 1, 58, 100
5, 39312, Note_on_c, 1, 55, 100
5, 39312, Note_on_c, 1, 43, 100
5, 39312, Note_on_c, 1, 50, 100
5, 39324, Control_c, 1, 7, 103
5, 39426, Control_c, 1, 7, 103
5, 39456, Note_off_c, 1, 50, 64
5, 39456, Note_off_c, 1, 43, 64
5, 39456, Note_off_c, 1, 55, 64
5, 39456, Note_off_c, 1, 58, 64
5, 39456, Note_on_c, 1, 55, 100
5, 39456, Note_on_c, 1, 51, 100
5, 39456, Note_on_c, 1, 39, 100
5, 39456, Note_on_c, 1, 62, 100
5, 39456, Note_on_c, 1, 46, 100
5, 39530, Control_c, 1, 7, 103
5, 39600, Note_off_c, 1, 46, 64
5, 39600, Note_off_c, 1, 62, 64
5, 39600, Note_off_c, 1, 39, 64
5, 39600, Note_off_c, 1, 51, 64
5, 39600, Note_off_c, 1, 55, 64
5, 39600, Note_on_c, 1, 55, 100
5, 39600, Note_on_c, 1, 62, 100
5, 39600, Note_on_c, 1, 51, 100
5, 39600, Note_on_c, 1, 39, 100
5, 39600, Note_on_c, 1, 46, 100
5, 39632, Control_c, 1, 7, 103
5, 39648, Note_off_c, 1, 55, 64
5, 39648, Note_off_c, 1, 46, 64
5, 39648, Note_off_c, 1, 39, 64
5, 39648, Note_off_c, 1, 51, 64
5, 39648, Note_off_c, 1, 62, 64
5, 39648, Note_on_c, 1, 55, 100
5, 39648, Note_on_c, 1, 62, 100
5, 39648, Note_on_c, 1, 51, 100
5, 39648, Note_on_c, 1, 39, 100
5, 39648, Note_on_c, 1, 46, 100
5, 39696, Note_off_c, 1, 55, 64
5, 39696, Note_off_c, 1, 46, 64
5, 39696, Note_off_c, 1, 39, 64
5, 39696, Note_off_c, 1, 51, 64
5, 39696, Note_off_c, 1, 62, 64
5, 39696, Note_on_c, 1, 55, 100
5, 39696, Note_on_c, 1, 62, 100
5, 39696, Note_on_c, 1, 51, 100
5, 39696, Note_on_c, 1, 39, 100
5, 39696, Note_on_c, 1, 46, 100
5, 39736, Control_c, 1, 7, 103
5, 39744, Note_off_c, 1, 55, 64
5, 39744, Note_off_c, 1, 46, 64
5, 39744, Note_off_c, 1, 39, 64
5, 39744, Note_off_c, 1, 51, 64
5, 39744, Note_off_c, 1, 62, 64
5, 39744, Note_on_c, 1, 55, 100
5, 39744, Note_on_c, 1, 62, 100
5, 39744, Note_on_c, 1, 51, 100
5, 39744, Note_on_c, 1, 39, 100
5, 39744, Note_on_c, 1, 46, 100
5, 39792, Note_off_c, 1, 55, 64
5, 39792, Note_off_c, 1, 46, 64
5, 39792, Note_off_c, 1, 39, 64
5, 39792, Note_off_c, 1, 51, 64
5, 39792, Note_off_c, 1, 62, 64
5, 39792, Note_on_c, 1, 55, 100
5, 39792, Note_on_c, 1, 62, 100
5, 39792, Note_on_c, 1, 51, 100
5, 39792, Note_on_c, 1, 39, 100
5, 39792, Note_on_c, 1, 46, 100
5, 39839, Control_c, 1, 7, 103
5, 39840, Note_off_c, 1, 55, 64
5, 39840, Note_off_c, 1, 46, 64
5, 39840, Note_off_c, 1, 39, 64
5, 39840, Note_off_c, 1, 51, 64
5, 39840, Note_off_c, 1, 62, 64
5, 39840, Note_on_c, 1, 55, 100
5, 39840, Note_on_c, 1, 62, 100
5, 39840, Note_on_c, 1, 51, 100
5, 39840, Note_on_c, 1, 39, 100
5, 39840, Note_on_c, 1, 46, 100
5, 39888, Note_off_c, 1, 55, 64
5, 39888, Note_off_c, 1, 46, 64
5, 39888, Note_off_c, 1, 39, 64
5, 39888, Note_off_c, 1, 51, 64
5, 39888, Note_off_c, 1, 62, 64
5, 39888, Note_on_c, 1, 55, 100
5, 39888, Note_on_c, 1, 62, 100
5, 39888, Note_on_c, 1, 51, 100
5, 39888, Note_on_c, 1, 39, 100
5, 39888, Note_on_c, 1, 46, 100
5, 39936, Note_off_c, 1, 46, 64
5, 39936, Note_off_c, 1, 39, 64
5, 39936, Note_off_c, 1, 51, 64
5, 39936, Note_off_c, 1, 62, 64
5, 39936, Note_off_c, 1, 55, 64
5, 39936, Note_on_c, 1, 57, 100
5, 39936, Note_on_c, 1, 53, 100
5, 39936, Note_on_c, 1, 41, 100
5, 39936, Note_on_c, 1, 48, 100
5, 39942, Control_c, 1, 7, 103
5, 40045, Control_c, 1, 7, 103
5, 40080, Note_off_c, 1, 48, 64
5, 40080, Note_off_c, 1, 41, 64
5, 40080, Note_off_c, 1, 53, 64
5, 40080, Note_off_c, 1, 57, 64
5, 40080, Note_on_c, 1, 58, 100
5, 40080, Note_on_c, 1, 55, 100
5, 40080, Note_on_c, 1, 43, 100
5, 40080, Note_on_c, 1, 50, 100
5, 40148, Control_c, 1, 7, 103
5, 40224, Note_off_c, 1, 58, 64
5, 40224, Note_off_c, 1, 50, 64
5, 40224, Note_off_c, 1, 43, 64
5, 40224, Note_off_c, 1, 55, 64
5, 40224, Note_on_c, 1, 55, 100
5, 40224, Note_on_c, 1, 51, 100
5, 40224, Note_on_c, 1, 39, 100
5, 40224, Note_on_c, 1, 62, 100
5, 40224, Note_on_c, 1, 46, 100
5, 40251, Control_c, 1, 7, 103
5, 40355, Control_c, 1, 7, 103
5, 40368, Note_off_c, 1, 51, 64
5, 40368, Note_off_c, 1, 46, 64
5, 40368, Note_off_c, 1, 62, 64
5, 40368, Note_off_c, 1, 39, 64
5, 40368, Note_off_c, 1, 55, 64
5, 40368, Note_on_c, 1, 55, 100
5, 40368, Note_on_c, 1, 62, 100
5, 40368, Note_on_c, 1, 51, 100
5, 40368, Note_on_c, 1, 39, 100
5, 40368, Note_on_c, 1, 46, 100
5, 40416, Note_off_c, 1, 55, 64
5, 40416, Note_off_c, 1, 46, 64
5, 40416, Note_off_c, 1, 39, 64
5, 40416, Note_off_c, 1, 51, 64
5, 40416, Note_off_c, 1, 62, 64
5, 40416, Note_on_c, 1, 55, 100
5, 40416, Note_on_c, 1, 62, 100
5, 40416, Note_on_c, 1, 51, 100
5, 40416, Note_on_c, 1, 39, 100
5, 40416, Note_on_c, 1, 46, 100
5, 40457, Control_c, 1, 7, 103
5, 40464, Note_off_c, 1, 62, 64
5, 40464, Note_off_c, 1, 55, 64
5, 40464, Note_off_c, 1, 46, 64
5, 40464, Note_off_c, 1, 39, 64
5, 40464, Note_off_c, 1, 51, 64
5, 40464, Note_on_c, 1, 55, 100
5, 40464, Note_on_c, 1, 62, 100
5, 40464, Note_on_c, 1, 51, 100
5, 40464, Note_on_c, 1, 39, 100
5, 40464, Note_on_c, 1, 46, 100
5, 40512, Note_off_c, 1, 62, 64
5, 40512, Note_off_c, 1, 55, 64
5, 40512, Note_off_c, 1, 46, 64
5, 40512, Note_off_c, 1, 39, 64
5, 40512, Note_off_c, 1, 51, 64
5, 40512, Note_on_c, 1, 55, 100
5, 40512, Note_on_c, 1, 62, 100
5, 40512, Note_on_c, 1, 51, 100
5, 40512, Note_on_c, 1, 39, 100
5, 40512, Note_on_c, 1, 46, 100
5, 40560, Note_off_c, 1, 55, 64
5, 40560, Note_off_c, 1, 46, 64
5, 40560, Note_off_c, 1, 39, 64
5, 40560, Note_off_c, 1, 51, 64
5, 40560, Note_off_c, 1, 62, 64
5, 40560, Note_on_c, 1, 55, 100
5, 40560, Note_on_c, 1, 62, 100
5, 40560, Note_on_c, 1, 51, 100
5, 40560, Note_on_c, 1, 39, 100
5, 40560, Note_on_c, 1, 46, 100
5, 40561, Control_c, 1, 7, 103
5, 40608, Note_off_c, 1, 62, 64
5, 40608, Note_off_c, 1, 55, 64
5, 40608, Note_off_c, 1, 46, 64
5, 40608, Note_off_c, 1, 39, 64
5, 40608, Note_off_c, 1, 51, 64
5, 40608, Note_on_c, 1, 55, 100
5, 40608, Note_on_c, 1, 62, 100
5, 40608, Note_on_c, 1, 51, 100
5, 40608, Note_on_c, 1, 39, 100
5, 40608, Note_on_c, 1, 46, 100
5, 40656, Note_off_c, 1, 55, 64
5, 40656, Note_off_c, 1, 46, 64
5, 40656, Note_off_c, 1, 39, 64
5, 40656, Note_off_c, 1, 51, 64
5, 40656, Note_off_c, 1, 62, 64
5, 40656, Note_on_c, 1, 55, 100
5, 40656, Note_on_c, 1, 62, 100
5, 40656, Note_on_c, 1, 51, 100
5, 40656, Note_on_c, 1, 39, 100
5, 40656, Note_on_c, 1, 46, 100
5, 40663, Control_c, 1, 7, 103
5, 40704, Note_off_c, 1, 55, 64
5, 40704, Note_off_c, 1, 46, 64
5, 40704, Note_off_c, 1, 39, 64
5, 40704, Note_off_c, 1, 51, 64
5, 40704, Note_off_c, 1, 62, 64
5, 40704, Note_on_c, 1, 57, 100
5, 40704, Note_on_c, 1, 53, 100
5, 40704, Note_on_c, 1, 41, 100
5, 40704, Note_on_c, 1, 48, 100
5, 40767, Control_c, 1, 7, 103
5, 40848, Note_off_c, 1, 48, 64
5, 40848, Note_off_c, 1, 41, 64
5, 40848, Note_off_c, 1, 53, 64
5, 40848, Note_off_c, 1, 57, 64
5, 40848, Note_on_c, 1, 58, 100
5, 40848, Note_on_c, 1, 55, 100
5, 40848, Note_on_c, 1, 43, 100
5, 40848, Note_on_c, 1, 50, 100
5, 40870, Control_c, 1, 7, 103
5, 40973, Control_c, 1, 7, 103
5, 40992, Note_off_c, 1, 58, 64
5, 40992, Note_off_c, 1, 50, 64
5, 40992, Note_off_c, 1, 43, 64
5, 40992, Note_off_c, 1, 55, 64
5, 40992, Note_on_c, 1, 55, 100
5, 40992, Note_on_c, 1, 51, 100
5, 40992, Note_on_c, 1, 39, 100
5, 40992, Note_on_c, 1, 62, 100
5, 40992, Note_on_c, 1, 46, 100
5, 41076, Control_c, 1, 7, 103
5, 41136, Note_off_c, 1, 51, 64
5, 41136, Note_off_c, 1, 46, 64
5, 41136, Note_off_c, 1, 62, 64
5, 41136, Note_off_c, 1, 39, 64
5, 41136, Note_off_c, 1, 55, 64
5, 41136, Note_on_c, 1, 55, 100
5, 41136, Note_on_c, 1, 62, 100
5, 41136, Note_on_c, 1, 51, 100
5, 41136, Note_on_c, 1, 39, 100
5, 41136, Note_on_c, 1, 46, 100
5, 41179, Control_c, 1, 7, 103
5, 41184, Note_off_c, 1, 55, 64
5, 41184, Note_off_c, 1, 46, 64
5, 41184, Note_off_c, 1, 39, 64
5, 41184, Note_off_c, 1, 51, 64
5, 41184, Note_off_c, 1, 62, 64
5, 41184, Note_on_c, 1, 55, 100
5, 41184, Note_on_c, 1, 62, 100
5, 41184, Note_on_c, 1, 51, 100
5, 41184, Note_on_c, 1, 39, 100
5, 41184, Note_on_c, 1, 46, 100
5, 41232, Note_off_c, 1, 55, 64
5, 41232, Note_off_c, 1, 46, 64
5, 41232, Note_off_c, 1, 39, 64
5, 41232, Note_off_c, 1, 51, 64
5, 41232, Note_off_c, 1, 62, 64
5, 41232, Note_on_c, 1, 55, 100
5, 41232, Note_on_c, 1, 62, 100
5, 41232, Note_on_c, 1, 51, 100
5, 41232, Note_on_c, 1, 39, 100
5, 41232, Note_on_c, 1, 46, 100
5, 41280, Note_off_c, 1, 55, 64
5, 41280, Note_off_c, 1, 46, 64
5, 41280, Note_off_c, 1, 39, 64
5, 41280, Note_off_c, 1, 51, 64
5, 41280, Note_off_c, 1, 62, 64
5, 41280, Note_on_c, 1, 55, 100
5, 41280, Note_on_c, 1, 62, 100
5, 41280, Note_on_c, 1, 51, 100
5, 41280, Note_on_c, 1, 39, 100
5, 41280, Note_on_c, 1, 46, 100
5, 41282, Control_c, 1, 7, 103
5, 41328, Note_off_c, 1, 55, 64
5, 41328, Note_off_c, 1, 46, 64
5, 41328, Note_off_c, 1, 39, 64
5, 41328, Note_off_c, 1, 51, 64
5, 41328, Note_off_c, 1, 62, 64
5, 41328, Note_on_c, 1, 55, 100
5, 41328, Note_on_c, 1, 62, 100
5, 41328, Note_on_c, 1, 51, 100
5, 41328, Note_on_c, 1, 39, 100
5, 41328, Note_on_c, 1, 46, 100
5, 41376, Note_off_c, 1, 55, 64
5, 41376, Note_off_c, 1, 46, 64
5, 41376, Note_off_c, 1, 39, 64
5, 41376, Note_off_c, 1, 51, 64
5, 41376, Note_off_c, 1, 62, 64
5, 41376, Note_on_c, 1, 55, 100
5, 41376, Note_on_c, 1, 62, 100
5, 41376, Note_on_c, 1, 51, 100
5, 41376, Note_on_c, 1, 39, 100
5, 41376, Note_on_c, 1, 46, 100
5, 41385, Control_c, 1, 7, 103
5, 41424, Note_off_c, 1, 55, 64
5, 41424, Note_off_c, 1, 46, 64
5, 41424, Note_off_c, 1, 39, 64
5, 41424, Note_off_c, 1, 51, 64
5, 41424, Note_off_c, 1, 62, 64
5, 41424, Note_on_c, 1, 55, 100
5, 41424, Note_on_c, 1, 62, 100
5, 41424, Note_on_c, 1, 51, 100
5, 41424, Note_on_c, 1, 39, 100
5, 41424, Note_on_c, 1, 46, 100
5, 41472, Note_off_c, 1, 46, 64
5, 41472, Note_off_c, 1, 39, 64
5, 41472, Note_off_c, 1, 51, 64
5, 41472, Note_off_c, 1, 62, 64
5, 41472, Note_off_c, 1, 55, 64
5, 41472, Note_on_c, 1, 57, 100
5, 41472, Note_on_c, 1, 53, 100
5, 41472, Note_on_c, 1, 41, 100
5, 41472, Note_on_c, 1, 48, 100
5, 41488, Control_c, 1, 7, 103
5, 41592, Control_c, 1, 7, 103
5, 41616, Note_off_c, 1, 48, 64
5, 41616, Note_off_c, 1, 41, 64
5, 41616, Note_off_c, 1, 53, 64
5, 41616, Note_off_c, 1, 57, 64
5, 41616, Note_on_c, 1, 58, 100
5, 41616, Note_on_c, 1, 55, 100
5, 41616, Note_on_c, 1, 43, 100
5, 41616, Note_on_c, 1, 50, 100
5, 41694, Control_c, 1, 7, 103
5, 41760, Note_off_c, 1, 58, 64
5, 41760, Note_off_c, 1, 50, 64
5, 41760, Note_off_c, 1, 43, 64
5, 41760, Note_off_c, 1, 55, 64
5, 41760, Note_on_c, 1, 55, 100
5, 41760, Note_on_c, 1, 51, 100
5, 41760, Note_on_c, 1, 39, 100
5, 41760, Note_on_c, 1, 62, 100
5, 41760, Note_on_c, 1, 46, 100
5, 41798, Control_c, 1, 7, 103
5, 41901, Control_c, 1, 7, 103
5, 41904, Note_off_c, 1, 51, 64
5, 41904, Note_off_c, 1, 46, 64
5, 41904, Note_off_c, 1, 62, 64
5, 41904, Note_off_c, 1, 39, 64
5, 41904, Note_off_c, 1, 55, 64
5, 41904, Note_on_c, 1, 55, 100
5, 41904, Note_on_c, 1, 62, 100
5, 41904, Note_on_c, 1, 51, 100
5, 41904, Note_on_c, 1, 39, 100
5, 41904, Note_on_c, 1, 46, 100
5, 41952, Note_off_c, 1, 55, 64
5, 41952, Note_off_c, 1, 46, 64
5, 41952, Note_off_c, 1, 39, 64
5, 41952, Note_off_c, 1, 51, 64
5, 41952, Note_off_c, 1, 62, 64
5, 41952, Note_on_c, 1, 55, 100
5, 41952, Note_on_c, 1, 62, 100
5, 41952, Note_on_c, 1, 51, 100
5, 41952, Note_on_c, 1, 39, 100
5, 41952, Note_on_c, 1, 46, 100
5, 42000, Note_off_c, 1, 62, 64
5, 42000, Note_off_c, 1, 55, 64
5, 42000, Note_off_c, 1, 46, 64
5, 42000, Note_off_c, 1, 39, 64
5, 42000, Note_off_c, 1, 51, 64
5, 42000, Note_on_c, 1, 55, 100
5, 42000, Note_on_c, 1, 62, 100
5, 42000, Note_on_c, 1, 51, 100
5, 42000, Note_on_c, 1, 39, 100
5, 42000, Note_on_c, 1, 46, 100
5, 42004, Control_c, 1, 7, 103
5, 42048, Note_off_c, 1, 62, 64
5, 42048, Note_off_c, 1, 55, 64
5, 42048, Note_off_c, 1, 46, 64
5, 42048, Note_off_c, 1, 39, 64
5, 42048, Note_off_c, 1, 51, 64
5, 42048, Note_on_c, 1, 55, 100
5, 42048, Note_on_c, 1, 62, 100
5, 42048, Note_on_c, 1, 51, 100
5, 42048, Note_on_c, 1, 39, 100
5, 42048, Note_on_c, 1, 46, 100
5, 42096, Note_off_c, 1, 55, 64
5, 42096, Note_off_c, 1, 46, 64
5, 42096, Note_off_c, 1, 39, 64
5, 42096, Note_off_c, 1, 51, 64
5, 42096, Note_off_c, 1, 62, 64
5, 42096, Note_on_c, 1, 55, 100
5, 42096, Note_on_c, 1, 62, 100
5, 42096, Note_on_c, 1, 51, 100
5, 42096, Note_on_c, 1, 39, 100
5, 42096, Note_on_c, 1, 46, 100
5, 42107, Control_c, 1, 7, 103
5, 42144, Note_off_c, 1, 62, 64
5, 42144, Note_off_c, 1, 55, 64
5, 42144, Note_off_c, 1, 46, 64
5, 42144, Note_off_c, 1, 39, 64
5, 42144, Note_off_c, 1, 51, 64
5, 42144, Note_on_c, 1, 55, 100
5, 42144, Note_on_c, 1, 62, 100
5, 42144, Note_on_c, 1, 51, 100
5, 42144, Note_on_c, 1, 39, 100
5, 42144, Note_on_c, 1, 46, 100
5, 42192, Note_off_c, 1, 55, 64
5, 42192, Note_off_c, 1, 46, 64
5, 42192, Note_off_c, 1, 39, 64
5, 42192, Note_off_c, 1, 51, 64
5, 42192, Note_off_c, 1, 62, 64
5, 42192, Note_on_c, 1, 55, 100
5, 42192, Note_on_c, 1, 62, 100
5, 42192, Note_on_c, 1, 51, 100
5, 42192, Note_on_c, 1, 39, 100
5, 42192, Note_on_c, 1, 46, 100
5, 42210, Control_c, 1, 7, 103
5, 42240, Note_off_c, 1, 55, 64
5, 42240, Note_off_c, 1, 46, 64
5, 42240, Note_off_c, 1, 39, 64
5, 42240, Note_off_c, 1, 51, 64
5, 42240, Note_off_c, 1, 62, 64
5, 42313, Control_c, 1, 7, 103
5, 42416, Control_c, 1, 7, 103
5, 42519, Control_c, 1, 7, 103
5, 42623, Control_c, 1, 7, 103
5, 42725, Control_c, 1, 7, 103
5, 42829, Control_c, 1, 7, 103
5, 42931, Control_c, 1, 7, 103
5, 43035, Control_c, 1, 7, 103
5, 43138, Control_c, 1, 7, 103
5, 43241, Control_c, 1, 7, 103
5, 43344, Control_c, 1, 7, 103
5, 43392, Note_on_c, 1, 57, 100
5, 43392, Note_on_c, 1, 53, 100
5, 43392, Note_on_c, 1, 41, 100
5, 43392, Note_on_c, 1, 48, 100
5, 43447, Control_c, 1, 7, 103
5, 43536, Note_off_c, 1, 48, 64
5, 43536, Note_off_c, 1, 57, 64
5, 43536, Note_off_c, 1, 53, 64
5, 43536, Note_off_c, 1, 41, 64
5, 43536, Note_on_c, 1, 58, 100
5, 43536, Note_on_c, 1, 55, 100
5, 43536, Note_on_c, 1, 43, 100
5, 43536, Note_on_c, 1, 50, 100
5, 43550, Control_c, 1, 7, 103
5, 43653, Control_c, 1, 7, 103
5, 43680, Note_off_c, 1, 50, 64
5, 43680, Note_off_c, 1, 43, 64
5, 43680, Note_off_c, 1, 55, 64
5, 43680, Note_off_c, 1, 58, 64
5, 43680, Note_on_c, 1, 55, 100
5, 43680, Note_on_c, 1, 51, 100
5, 43680, Note_on_c, 1, 39, 100
5, 43680, Note_on_c, 1, 62, 100
5, 43680, Note_on_c, 1, 46, 100
5, 43756, Control_c, 1, 7, 103
5, 43824, Note_off_c, 1, 46, 64
5, 43824, Note_off_c, 1, 62, 64
5, 43824, Note_off_c, 1, 39, 64
5, 43824, Note_off_c, 1, 51, 64
5, 43824, Note_off_c, 1, 55, 64
5, 43824, Note_on_c, 1, 46, 100
5, 43824, Note_on_c, 1, 39, 100
5, 43824, Note_on_c, 1, 51, 100
5, 43824, Note_on_c, 1, 62, 100
5, 43824, Note_on_c, 1, 55, 100
5, 43860, Control_c, 1, 7, 103
5, 43872, Note_off_c, 1, 55, 64
5, 43872, Note_off_c, 1, 62, 64
5, 43872, Note_off_c, 1, 51, 64
5, 43872, Note_off_c, 1, 39, 64
5, 43872, Note_off_c, 1, 46, 64
5, 43872, Note_on_c, 1, 55, 100
5, 43872, Note_on_c, 1, 62, 100
5, 43872, Note_on_c, 1, 51, 100
5, 43872, Note_on_c, 1, 39, 100
5, 43872, Note_on_c, 1, 46, 100
5, 43920, Note_off_c, 1, 46, 64
5, 43920, Note_off_c, 1, 39, 64
5, 43920, Note_off_c, 1, 51, 64
5, 43920, Note_off_c, 1, 62, 64
5, 43920, Note_off_c, 1, 55, 64
5, 43920, Note_on_c, 1, 46, 100
5, 43920, Note_on_c, 1, 39, 100
5, 43920, Note_on_c, 1, 51, 100
5, 43920, Note_on_c, 1, 62, 100
5, 43920, Note_on_c, 1, 55, 100
5, 43962, Control_c, 1, 7, 103
5, 43968, Note_off_c, 1, 55, 64
5, 43968, Note_off_c, 1, 62, 64
5, 43968, Note_off_c, 1, 51, 64
5, 43968, Note_off_c, 1, 39, 64
5, 43968, Note_off_c, 1, 46, 64
5, 43968, Note_on_c, 1, 55, 100
5, 43968, Note_on_c, 1, 62, 100
5, 43968, Note_on_c, 1, 51, 100
5, 43968, Note_on_c, 1, 39, 100
5, 43968, Note_on_c, 1, 46, 100
5, 44016, Note_off_c, 1, 46, 64
5, 44016, Note_off_c, 1, 39, 64
5, 44016, Note_off_c, 1, 51, 64
5, 44016, Note_off_c, 1, 62, 64
5, 44016, Note_off_c, 1, 55, 64
5, 44016, Note_on_c, 1, 46, 100
5, 44016, Note_on_c, 1, 39, 100
5, 44016, Note_on_c, 1, 51, 100
5, 44016, Note_on_c, 1, 62, 100
5, 44016, Note_on_c, 1, 55, 100
5, 44064, Note_off_c, 1, 55, 64
5, 44064, Note_off_c, 1, 62, 64
5, 44064, Note_off_c, 1, 51, 64
5, 44064, Note_off_c, 1, 39, 64
5, 44064, Note_off_c, 1, 46, 64
5, 44064, Note_on_c, 1, 55, 100
5, 44064, Note_on_c, 1, 62, 100
5, 44064, Note_on_c, 1, 51, 100
5, 44064, Note_on_c, 1, 39, 100
5, 44064, Note_on_c, 1, 46, 100
5, 44066, Control_c, 1, 7, 103
5, 44112, Note_off_c, 1, 46, 64
5, 44112, Note_off_c, 1, 39, 64
5, 44112, Note_off_c, 1, 51, 64
5, 44112, Note_off_c, 1, 62, 64
5, 44112, Note_off_c, 1, 55, 64
5, 44112, Note_on_c, 1, 55, 100
5, 44112, Note_on_c, 1, 62, 100
5, 44112, Note_on_c, 1, 51, 100
5, 44112, Note_on_c, 1, 39, 100
5, 44112, Note_on_c, 1, 46, 100
5, 44160, Note_off_c, 1, 46, 64
5, 44160, Note_off_c, 1, 39, 64
5, 44160, Note_off_c, 1, 51, 64
5, 44160, Note_off_c, 1, 62, 64
5, 44160, Note_off_c, 1, 55, 64
5, 44160, Note_on_c, 1, 46, 100
5, 44160, Note_on_c, 1, 62, 100
5, 44160, Note_on_c, 1, 39, 100
5, 44160, Note_on_c, 1, 51, 100
5, 44160, Note_on_c, 1, 55, 100
5, 44169, Control_c, 1, 7, 103
5, 44272, Control_c, 1, 7, 103
5, 44304, Note_off_c, 1, 55, 64
5, 44304, Note_off_c, 1, 51, 64
5, 44304, Note_off_c, 1, 39, 64
5, 44304, Note_off_c, 1, 62, 64
5, 44304, Note_off_c, 1, 46, 64
5, 44304, Note_on_c, 1, 46, 100
5, 44304, Note_on_c, 1, 62, 100
5, 44304, Note_on_c, 1, 39, 100
5, 44304, Note_on_c, 1, 51, 100
5, 44304, Note_on_c, 1, 55, 100
5, 44375, Control_c, 1, 7, 103
5, 44448, Note_off_c, 1, 55, 64
5, 44448, Note_off_c, 1, 51, 64
5, 44448, Note_off_c, 1, 39, 64
5, 44448, Note_off_c, 1, 62, 64
5, 44448, Note_off_c, 1, 46, 64
5, 44448, Note_on_c, 1, 55, 100
5, 44448, Note_on_c, 1, 51, 100
5, 44448, Note_on_c, 1, 39, 100
5, 44448, Note_on_c, 1, 62, 100
5, 44448, Note_on_c, 1, 46, 100
5, 44478, Control_c, 1, 7, 103
5, 44581, Control_c, 1, 7, 103
5, 44592, Note_off_c, 1, 46, 64
5, 44592, Note_off_c, 1, 62, 64
5, 44592, Note_off_c, 1, 39, 64
5, 44592, Note_off_c, 1, 51, 64
5, 44592, Note_off_c, 1, 55, 64
5, 44592, Note_on_c, 1, 55, 100
5, 44592, Note_on_c, 1, 62, 100
5, 44592, Note_on_c, 1, 51, 100
5, 44592, Note_on_c, 1, 39, 100
5, 44592, Note_on_c, 1, 46, 100
5, 44640, Note_off_c, 1, 46, 64
5, 44640, Note_off_c, 1, 39, 64
5, 44640, Note_off_c, 1, 51, 64
5, 44640, Note_off_c, 1, 62, 64
5, 44640, Note_off_c, 1, 55, 64
5, 44640, Note_on_c, 1, 55, 100
5, 44640, Note_on_c, 1, 62, 100
5, 44640, Note_on_c, 1, 51, 100
5, 44640, Note_on_c, 1, 39, 100
5, 44640, Note_on_c, 1, 46, 100
5, 44684, Control_c, 1, 7, 103
5, 44688, Note_off_c, 1, 46, 64
5, 44688, Note_off_c, 1, 39, 64
5, 44688, Note_off_c, 1, 51, 64
5, 44688, Note_off_c, 1, 62, 64
5, 44688, Note_off_c, 1, 55, 64
5, 44688, Note_on_c, 1, 55, 100
5, 44688, Note_on_c, 1, 62, 100
5, 44688, Note_on_c, 1, 51, 100
5, 44688, Note_on_c, 1, 39, 100
5, 44688, Note_on_c, 1, 46, 100
5, 44736, Note_off_c, 1, 46, 64
5, 44736, Note_off_c, 1, 39, 64
5, 44736, Note_off_c, 1, 51, 64
5, 44736, Note_off_c, 1, 62, 64
5, 44736, Note_off_c, 1, 55, 64
5, 44736, Note_on_c, 1, 55, 100
5, 44736, Note_on_c, 1, 62, 100
5, 44736, Note_on_c, 1, 51, 100
5, 44736, Note_on_c, 1, 39, 100
5, 44736, Note_on_c, 1, 46, 100
5, 44784, Note_off_c, 1, 46, 64
5, 44784, Note_off_c, 1, 39, 64
5, 44784, Note_off_c, 1, 51, 64
5, 44784, Note_off_c, 1, 62, 64
5, 44784, Note_off_c, 1, 55, 64
5, 44784, Note_on_c, 1, 55, 100
5, 44784, Note_on_c, 1, 62, 100
5, 44784, Note_on_c, 1, 51, 100
5, 44784, Note_on_c, 1, 39, 100
5, 44784, Note_on_c, 1, 46, 100
5, 44787, Control_c, 1, 7, 103
5, 44832, Note_off_c, 1, 46, 64
5, 44832, Note_off_c, 1, 39, 64
5, 44832, Note_off_c, 1, 51, 64
5, 44832, Note_off_c, 1, 62, 64
5, 44832, Note_off_c, 1, 55, 64
5, 44832, Note_on_c, 1, 55, 100
5, 44832, Note_on_c, 1, 62, 100
5, 44832, Note_on_c, 1, 51, 100
5, 44832, Note_on_c, 1, 39, 100
5, 44832, Note_on_c, 1, 46, 100
5, 44880, Note_off_c, 1, 46, 64
5, 44880, Note_off_c, 1, 39, 64
5, 44880, Note_off_c, 1, 51, 64
5, 44880, Note_off_c, 1, 62, 64
5, 44880, Note_off_c, 1, 55, 64
5, 44880, Note_on_c, 1, 55, 100
5, 44880, Note_on_c, 1, 62, 100
5, 44880, Note_on_c, 1, 51, 100
5, 44880, Note_on_c, 1, 39, 100
5, 44880, Note_on_c, 1, 46, 100
5, 44891, Control_c, 1, 7, 103
5, 44928, Note_off_c, 1, 46, 64
5, 44928, Note_off_c, 1, 39, 64
5, 44928, Note_off_c, 1, 51, 64
5, 44928, Note_off_c, 1, 62, 64
5, 44928, Note_off_c, 1, 55, 64
5, 44928, Note_on_c, 1, 57, 100
5, 44928, Note_on_c, 1, 53, 100
5, 44928, Note_on_c, 1, 41, 100
5, 44928, Note_on_c, 1, 48, 100
5, 44993, Control_c, 1, 7, 103
5, 45072, Note_off_c, 1, 48, 64
5, 45072, Note_off_c, 1, 41, 64
5, 45072, Note_off_c, 1, 53, 64
5, 45072, Note_off_c, 1, 57, 64
5, 45072, Note_on_c, 1, 58, 100
5, 45072, Note_on_c, 1, 55, 100
5, 45072, Note_on_c, 1, 43, 100
5, 45072, Note_on_c, 1, 50, 100
5, 45097, Control_c, 1, 7, 103
5, 45199, Control_c, 1, 7, 103
5, 45216, Note_off_c, 1, 50, 64
5, 45216, Note_off_c, 1, 43, 64
5, 45216, Note_off_c, 1, 55, 64
5, 45216, Note_off_c, 1, 58, 64
5, 45216, Note_on_c, 1, 55, 100
5, 45216, Note_on_c, 1, 51, 100
5, 45216, Note_on_c, 1, 39, 100
5, 45216, Note_on_c, 1, 62, 100
5, 45216, Note_on_c, 1, 46, 100
5, 45303, Control_c, 1, 7, 103
5, 45360, Note_off_c, 1, 46, 64
5, 45360, Note_off_c, 1, 62, 64
5, 45360, Note_off_c, 1, 39, 64
5, 45360, Note_off_c, 1, 51, 64
5, 45360, Note_off_c, 1, 55, 64
5, 45360, Note_on_c, 1, 46, 100
5, 45360, Note_on_c, 1, 39, 100
5, 45360, Note_on_c, 1, 51, 100
5, 45360, Note_on_c, 1, 62, 100
5, 45360, Note_on_c, 1, 55, 100
5, 45406, Control_c, 1, 7, 103
5, 45408, Note_off_c, 1, 55, 64
5, 45408, Note_off_c, 1, 62, 64
5, 45408, Note_off_c, 1, 51, 64
5, 45408, Note_off_c, 1, 39, 64
5, 45408, Note_off_c, 1, 46, 64
5, 45408, Note_on_c, 1, 55, 100
5, 45408, Note_on_c, 1, 62, 100
5, 45408, Note_on_c, 1, 51, 100
5, 45408, Note_on_c, 1, 39, 100
5, 45408, Note_on_c, 1, 46, 100
5, 45456, Note_off_c, 1, 46, 64
5, 45456, Note_off_c, 1, 39, 64
5, 45456, Note_off_c, 1, 51, 64
5, 45456, Note_off_c, 1, 62, 64
5, 45456, Note_off_c, 1, 55, 64
5, 45456, Note_on_c, 1, 46, 100
5, 45456, Note_on_c, 1, 39, 100
5, 45456, Note_on_c, 1, 51, 100
5, 45456, Note_on_c, 1, 62, 100
5, 45456, Note_on_c, 1, 55, 100
5, 45504, Note_off_c, 1, 55, 64
5, 45504, Note_off_c, 1, 62, 64
5, 45504, Note_off_c, 1, 51, 64
5, 45504, Note_off_c, 1, 39, 64
5, 45504, Note_off_c, 1, 46, 64
5, 45504, Note_on_c, 1, 55, 100
5, 45504, Note_on_c, 1, 62, 100
5, 45504, Note_on_c, 1, 51, 100
5, 45504, Note_on_c, 1, 39, 100
5, 45504, Note_on_c, 1, 46, 100
5, 45509, Control_c, 1, 7, 103
5, 45552, Note_off_c, 1, 46, 64
5, 45552, Note_off_c, 1, 39, 64
5, 45552, Note_off_c, 1, 51, 64
5, 45552, Note_off_c, 1, 62, 64
5, 45552, Note_off_c, 1, 55, 64
5, 45552, Note_on_c, 1, 46, 100
5, 45552, Note_on_c, 1, 39, 100
5, 45552, Note_on_c, 1, 51, 100
5, 45552, Note_on_c, 1, 62, 100
5, 45552, Note_on_c, 1, 55, 100
5, 45600, Note_off_c, 1, 55, 64
5, 45600, Note_off_c, 1, 62, 64
5, 45600, Note_off_c, 1, 51, 64
5, 45600, Note_off_c, 1, 39, 64
5, 45600, Note_off_c, 1, 46, 64
5, 45600, Note_on_c, 1, 55, 100
5, 45600, Note_on_c, 1, 62, 100
5, 45600, Note_on_c, 1, 51, 100
5, 45600, Note_on_c, 1, 39, 100
5, 45600, Note_on_c, 1, 46, 100
5, 45612, Control_c, 1, 7, 103
5, 45648, Note_off_c, 1, 46, 64
5, 45648, Note_off_c, 1, 39, 64
5, 45648, Note_off_c, 1, 51, 64
5, 45648, Note_off_c, 1, 62, 64
5, 45648, Note_off_c, 1, 55, 64
5, 45648, Note_on_c, 1, 55, 100
5, 45648, Note_on_c, 1, 62, 100
5, 45648, Note_on_c, 1, 51, 100
5, 45648, Note_on_c, 1, 39, 100
5, 45648, Note_on_c, 1, 46, 100
5, 45696, Note_off_c, 1, 46, 64
5, 45696, Note_off_c, 1, 39, 64
5, 45696, Note_off_c, 1, 51, 64
5, 45696, Note_off_c, 1, 62, 64
5, 45696, Note_off_c, 1, 55, 64
5, 45696, Note_on_c, 1, 46, 100
5, 45696, Note_on_c, 1, 62, 100
5, 45696, Note_on_c, 1, 39, 100
5, 45696, Note_on_c, 1, 51, 100
5, 45696, Note_on_c, 1, 55, 100
5, 45715, Control_c, 1, 7, 103
5, 45818, Control_c, 1, 7, 103
5, 45840, Note_off_c, 1, 55, 64
5, 45840, Note_off_c, 1, 51, 64
5, 45840, Note_off_c, 1, 39, 64
5, 45840, Note_off_c, 1, 62, 64
5, 45840, Note_off_c, 1, 46, 64
5, 45840, Note_on_c, 1, 46, 100
5, 45840, Note_on_c, 1, 62, 100
5, 45840, Note_on_c, 1, 39, 100
5, 45840, Note_on_c, 1, 51, 100
5, 45840, Note_on_c, 1, 55, 100
5, 45922, Control_c, 1, 7, 103
5, 45984, Note_off_c, 1, 55, 64
5, 45984, Note_off_c, 1, 51, 64
5, 45984, Note_off_c, 1, 39, 64
5, 45984, Note_off_c, 1, 62, 64
5, 45984, Note_off_c, 1, 46, 64
5, 45984, Note_on_c, 1, 55, 100
5, 45984, Note_on_c, 1, 51, 100
5, 45984, Note_on_c, 1, 39, 100
5, 45984, Note_on_c, 1, 62, 100
5, 45984, Note_on_c, 1, 46, 100
5, 46024, Control_c, 1, 7, 103
5, 46128, Note_off_c, 1, 46, 64
5, 46128, Note_off_c, 1, 62, 64
5, 46128, Note_off_c, 1, 39, 64
5, 46128, Note_off_c, 1, 51, 64
5, 46128, Note_off_c, 1, 55, 64
5, 46128, Note_on_c, 1, 55, 100
5, 46128, Note_on_c, 1, 62, 100
5, 46128, Note_on_c, 1, 51, 100
5, 46128, Note_on_c, 1, 39, 100
5, 46128, Note_on_c, 1, 46, 100
5, 46128, Control_c, 1, 7, 103
5, 46176, Note_off_c, 1, 46, 64
5, 46176, Note_off_c, 1, 39, 64
5, 46176, Note_off_c, 1, 51, 64
5, 46176, Note_off_c, 1, 62, 64
5, 46176, Note_off_c, 1, 55, 64
5, 46176, Note_on_c, 1, 55, 100
5, 46176, Note_on_c, 1, 62, 100
5, 46176, Note_on_c, 1, 51, 100
5, 46176, Note_on_c, 1, 39, 100
5, 46176, Note_on_c, 1, 46, 100
5, 46224, Note_off_c, 1, 46, 64
5, 46224, Note_off_c, 1, 39, 64
5, 46224, Note_off_c, 1, 51, 64
5, 46224, Note_off_c, 1, 62, 64
5, 46224, Note_off_c, 1, 55, 64
5, 46224, Note_on_c, 1, 55, 100
5, 46224, Note_on_c, 1, 62, 100
5, 46224, Note_on_c, 1, 51, 100
5, 46224, Note_on_c, 1, 39, 100
5, 46224, Note_on_c, 1, 46, 100
5, 46230, Control_c, 1, 7, 103
5, 46272, Note_off_c, 1, 46, 64
5, 46272, Note_off_c, 1, 39, 64
5, 46272, Note_off_c, 1, 51, 64
5, 46272, Note_off_c, 1, 62, 64
5, 46272, Note_off_c, 1, 55, 64
5, 46272, Note_on_c, 1, 55, 100
5, 46272, Note_on_c, 1, 62, 100
5, 46272, Note_on_c, 1, 51, 100
5, 46272, Note_on_c, 1, 39, 100
5, 46272, Note_on_c, 1, 46, 100
5, 46320, Note_off_c, 1, 46, 64
5, 46320, Note_off_c, 1, 39, 64
5, 46320, Note_off_c, 1, 51, 64
5, 46320, Note_off_c, 1, 62, 64
5, 46320, Note_off_c, 1, 55, 64
5, 46320, Note_on_c, 1, 55, 100
5, 46320, Note_on_c, 1, 62, 100
5, 46320, Note_on_c, 1, 51, 100
5, 46320, Note_on_c, 1, 39, 100
5, 46320, Note_on_c, 1, 46, 100
5, 46334, Control_c, 1, 7, 103
5, 46368, Note_off_c, 1, 46, 64
5, 46368, Note_off_c, 1, 39, 64
5, 46368, Note_off_c, 1, 51, 64
5, 46368, Note_off_c, 1, 62, 64
5, 46368, Note_off_c, 1, 55, 64
5, 46368, Note_on_c, 1, 55, 100
5, 46368, Note_on_c, 1, 62, 100
5, 46368, Note_on_c, 1, 51, 100
5, 46368, Note_on_c, 1, 39, 100
5, 46368, Note_on_c, 1, 46, 100
5, 46416, Note_off_c, 1, 46, 64
5, 46416, Note_off_c, 1, 39, 64
5, 46416, Note_off_c, 1, 51, 64
5, 46416, Note_off_c, 1, 62, 64
5, 46416, Note_off_c, 1, 55, 64
5, 46416, Note_on_c, 1, 55, 100
5, 46416, Note_on_c, 1, 62, 100
5, 46416, Note_on_c, 1, 51, 100
5, 46416, Note_on_c, 1, 39, 100
5, 46416, Note_on_c, 1, 46, 100
5, 46437, Control_c, 1, 7, 103
5, 46464, Note_off_c, 1, 46, 64
5, 46464, Note_off_c, 1, 39, 64
5, 46464, Note_off_c, 1, 51, 64
5, 46464, Note_off_c, 1, 62, 64
5, 46464, Note_off_c, 1, 55, 64
5, 46464, Note_on_c, 1, 57, 100
5, 46464, Note_on_c, 1, 53, 100
5, 46464, Note_on_c, 1, 41, 100
5, 46464, Note_on_c, 1, 48, 100
5, 46540, Control_c, 1, 7, 103
5, 46608, Note_off_c, 1, 48, 64
5, 46608, Note_off_c, 1, 41, 64
5, 46608, Note_off_c, 1, 53, 64
5, 46608, Note_off_c, 1, 57, 64
5, 46608, Note_on_c, 1, 58, 100
5, 46608, Note_on_c, 1, 55, 100
5, 46608, Note_on_c, 1, 43, 100
5, 46608, Note_on_c, 1, 50, 100
5, 46643, Control_c, 1, 7, 103
5, 46746, Control_c, 1, 7, 103
5, 46752, Note_off_c, 1, 50, 64
5, 46752, Note_off_c, 1, 43, 64
5, 46752, Note_off_c, 1, 55, 64
5, 46752, Note_off_c, 1, 58, 64
5, 46752, Note_on_c, 1, 55, 100
5, 46752, Note_on_c, 1, 51, 100
5, 46752, Note_on_c, 1, 39, 100
5, 46752, Note_on_c, 1, 62, 100
5, 46752, Note_on_c, 1, 46, 100
5, 46849, Control_c, 1, 7, 103
5, 46896, Note_off_c, 1, 46, 64
5, 46896, Note_off_c, 1, 62, 64
5, 46896, Note_off_c, 1, 39, 64
5, 46896, Note_off_c, 1, 51, 64
5, 46896, Note_off_c, 1, 55, 64
5, 46896, Note_on_c, 1, 46, 100
5, 46896, Note_on_c, 1, 39, 100
5, 46896, Note_on_c, 1, 51, 100
5, 46896, Note_on_c, 1, 62, 100
5, 46896, Note_on_c, 1, 55, 100
5, 46944, Note_off_c, 1, 55, 64
5, 46944, Note_off_c, 1, 62, 64
5, 46944, Note_off_c, 1, 51, 64
5, 46944, Note_off_c, 1, 39, 64
5, 46944, Note_off_c, 1, 46, 64
5, 46944, Note_on_c, 1, 55, 100
5, 46944, Note_on_c, 1, 62, 100
5, 46944, Note_on_c, 1, 51, 100
5, 46944, Note_on_c, 1, 39, 100
5, 46944, Note_on_c, 1, 46, 100
5, 46952, Control_c, 1, 7, 103
5, 46992, Note_off_c, 1, 46, 64
5, 46992, Note_off_c, 1, 39, 64
5, 46992, Note_off_c, 1, 51, 64
5, 46992, Note_off_c, 1, 62, 64
5, 46992, Note_off_c, 1, 55, 64
5, 46992, Note_on_c, 1, 46, 100
5, 46992, Note_on_c, 1, 39, 100
5, 46992, Note_on_c, 1, 51, 100
5, 46992, Note_on_c, 1, 62, 100
5, 46992, Note_on_c, 1, 55, 100
5, 47040, Note_off_c, 1, 55, 64
5, 47040, Note_off_c, 1, 62, 64
5, 47040, Note_off_c, 1, 51, 64
5, 47040, Note_off_c, 1, 39, 64
5, 47040, Note_off_c, 1, 46, 64
5, 47040, Note_on_c, 1, 55, 100
5, 47040, Note_on_c, 1, 62, 100
5, 47040, Note_on_c, 1, 51, 100
5, 47040, Note_on_c, 1, 39, 100
5, 47040, Note_on_c, 1, 46, 100
5, 47055, Control_c, 1, 7, 103
5, 47088, Note_off_c, 1, 46, 64
5, 47088, Note_off_c, 1, 39, 64
5, 47088, Note_off_c, 1, 51, 64
5, 47088, Note_off_c, 1, 62, 64
5, 47088, Note_off_c, 1, 55, 64
5, 47088, Note_on_c, 1, 46, 100
5, 47088, Note_on_c, 1, 39, 100
5, 47088, Note_on_c, 1, 51, 100
5, 47088, Note_on_c, 1, 62, 100
5, 47088, Note_on_c, 1, 55, 100
5, 47136, Note_off_c, 1, 55, 64
5, 47136, Note_off_c, 1, 62, 64
5, 47136, Note_off_c, 1, 51, 64
5, 47136, Note_off_c, 1, 39, 64
5, 47136, Note_off_c, 1, 46, 64
5, 47136, Note_on_c, 1, 55, 100
5, 47136, Note_on_c, 1, 62, 100
5, 47136, Note_on_c, 1, 51, 100
5, 47136, Note_on_c, 1, 39, 100
5, 47136, Note_on_c, 1, 46, 100
5, 47159, Control_c, 1, 7, 103
5, 47184, Note_off_c, 1, 46, 64
5, 47184, Note_off_c, 1, 39, 64
5, 47184, Note_off_c, 1, 51, 64
5, 47184, Note_off_c, 1, 62, 64
5, 47184, Note_off_c, 1, 55, 64
5, 47184, Note_on_c, 1, 55, 100
5, 47184, Note_on_c, 1, 62, 100
5, 47184, Note_on_c, 1, 51, 100
5, 47184, Note_on_c, 1, 39, 100
5, 47184, Note_on_c, 1, 46, 100
5, 47232, Note_off_c, 1, 46, 64
5, 47232, Note_off_c, 1, 39, 64
5, 47232, Note_off_c, 1, 51, 64
5, 47232, Note_off_c, 1, 62, 64
5, 47232, Note_off_c, 1, 55, 64
5, 47232, Note_on_c, 1, 46, 100
5, 47232, Note_on_c, 1, 62, 100
5, 47232, Note_on_c, 1, 39, 100
5, 47232, Note_on_c, 1, 51, 100
5, 47232, Note_on_c, 1, 55, 100
5, 47261, Control_c, 1, 7, 103
5, 47365, Control_c, 1, 7, 103
5, 47376, Note_off_c, 1, 55, 64
5, 47376, Note_off_c, 1, 51, 64
5, 47376, Note_off_c, 1, 39, 64
5, 47376, Note_off_c, 1, 62, 64
5, 47376, Note_off_c, 1, 46, 64
5, 47376, Note_on_c, 1, 46, 100
5, 47376, Note_on_c, 1, 62, 100
5, 47376, Note_on_c, 1, 39, 100
5, 47376, Note_on_c, 1, 51, 100
5, 47376, Note_on_c, 1, 55, 100
5, 47468, Control_c, 1, 7, 103
5, 47520, Note_off_c, 1, 55, 64
5, 47520, Note_off_c, 1, 51, 64
5, 47520, Note_off_c, 1, 39, 64
5, 47520, Note_off_c, 1, 62, 64
5, 47520, Note_off_c, 1, 46, 64
5, 47520, Note_on_c, 1, 55, 100
5, 47520, Note_on_c, 1, 51, 100
5, 47520, Note_on_c, 1, 39, 100
5, 47520, Note_on_c, 1, 62, 100
5, 47520, Note_on_c, 1, 46, 100
5, 47571, Control_c, 1, 7, 103
5, 47664, Note_off_c, 1, 46, 64
5, 47664, Note_off_c, 1, 62, 64
5, 47664, Note_off_c, 1, 39, 64
5, 47664, Note_off_c, 1, 51, 64
5, 47664, Note_off_c, 1, 55, 64
5, 47664, Note_on_c, 1, 55, 100
5, 47664, Note_on_c, 1, 62, 100
5, 47664, Note_on_c, 1, 51, 100
5, 47664, Note_on_c, 1, 39, 100
5, 47664, Note_on_c, 1, 46, 100
5, 47674, Control_c, 1, 7, 103
5, 47712, Note_off_c, 1, 46, 64
5, 47712, Note_off_c, 1, 39, 64
5, 47712, Note_off_c, 1, 51, 64
5, 47712, Note_off_c, 1, 62, 64
5, 47712, Note_off_c, 1, 55, 64
5, 47712, Note_on_c, 1, 55, 100
5, 47712, Note_on_c, 1, 62, 100
5, 47712, Note_on_c, 1, 51, 100
5, 47712, Note_on_c, 1, 39, 100
5, 47712, Note_on_c, 1, 46, 100
5, 47760, Note_off_c, 1, 46, 64
5, 47760, Note_off_c, 1, 39, 64
5, 47760, Note_off_c, 1, 51, 64
5, 47760, Note_off_c, 1, 62, 64
5, 47760, Note_off_c, 1, 55, 64
5, 47760, Note_on_c, 1, 55, 100
5, 47760, Note_on_c, 1, 62, 100
5, 47760, Note_on_c, 1, 51, 100
5, 47760, Note_on_c, 1, 39, 100
5, 47760, Note_on_c, 1, 46, 100
5, 47777, Control_c, 1, 7, 103
5, 47808, Note_off_c, 1, 46, 64
5, 47808, Note_off_c, 1, 39, 64
5, 47808, Note_off_c, 1, 51, 64
5, 47808, Note_off_c, 1, 62, 64
5, 47808, Note_off_c, 1, 55, 64
5, 47808, Note_on_c, 1, 55, 100
5, 47808, Note_on_c, 1, 62, 100
5, 47808, Note_on_c, 1, 51, 100
5, 47808, Note_on_c, 1, 39, 100
5, 47808, Note_on_c, 1, 46, 100
5, 47856, Note_off_c, 1, 46, 64
5, 47856, Note_off_c, 1, 39, 64
5, 47856, Note_off_c, 1, 51, 64
5, 47856, Note_off_c, 1, 62, 64
5, 47856, Note_off_c, 1, 55, 64
5, 47856, Note_on_c, 1, 55, 100
5, 47856, Note_on_c, 1, 62, 100
5, 47856, Note_on_c, 1, 51, 100
5, 47856, Note_on_c, 1, 39, 100
5, 47856, Note_on_c, 1, 46, 100
5, 47880, Control_c, 1, 7, 103
5, 47904, Note_off_c, 1, 46, 64
5, 47904, Note_off_c, 1, 39, 64
5, 47904, Note_off_c, 1, 51, 64
5, 47904, Note_off_c, 1, 62, 64
5, 47904, Note_off_c, 1, 55, 64
5, 47904, Note_on_c, 1, 55, 100
5, 47904, Note_on_c, 1, 62, 100
5, 47904, Note_on_c, 1, 51, 100
5, 47904, Note_on_c, 1, 39, 100
5, 47904, Note_on_c, 1, 46, 100
5, 47952, Note_off_c, 1, 46, 64
5, 47952, Note_off_c, 1, 39, 64
5, 47952, Note_off_c, 1, 51, 64
5, 47952, Note_off_c, 1, 62, 64
5, 47952, Note_off_c, 1, 55, 64
5, 47952, Note_on_c, 1, 55, 100
5, 47952, Note_on_c, 1, 62, 100
5, 47952, Note_on_c, 1, 51, 100
5, 47952, Note_on_c, 1, 39, 100
5, 47952, Note_on_c, 1, 46, 100
5, 47983, Control_c, 1, 7, 103
5, 48000, Note_off_c, 1, 46, 64
5, 48000, Note_off_c, 1, 39, 64
5, 48000, Note_off_c, 1, 51, 64
5, 48000, Note_off_c, 1, 62, 64
5, 48000, Note_off_c, 1, 55, 64
5, 48000, Note_on_c, 1, 57, 100
5, 48000, Note_on_c, 1, 53, 100
5, 48000, Note_on_c, 1, 41, 100
5, 48000, Note_on_c, 1, 48, 100
5, 48086, Control_c, 1, 7, 103
5, 48144, Note_off_c, 1, 48, 64
5, 48144, Note_off_c, 1, 41, 64
5, 48144, Note_off_c, 1, 53, 64
5, 48144, Note_off_c, 1, 57, 64
5, 48144, Note_on_c, 1, 58, 100
5, 48144, Note_on_c, 1, 55, 100
5, 48144, Note_on_c, 1, 43, 100
5, 48144, Note_on_c, 1, 50, 100
5, 48190, Control_c, 1, 7, 103
5, 48288, Note_off_c, 1, 50, 64
5, 48288, Note_off_c, 1, 43, 64
5, 48288, Note_off_c, 1, 55, 64
5, 48288, Note_off_c, 1, 58, 64
5, 48288, Note_on_c, 1, 55, 100
5, 48288, Note_on_c, 1, 51, 100
5, 48288, Note_on_c, 1, 39, 100
5, 48288, Note_on_c, 1, 62, 100
5, 48288, Note_on_c, 1, 46, 100
5, 48292, Control_c, 1, 7, 103
5, 48396, Control_c, 1, 7, 103
5, 48432, Note_off_c, 1, 46, 64
5, 48432, Note_off_c, 1, 62, 64
5, 48432, Note_off_c, 1, 39, 64
5, 48432, Note_off_c, 1, 51, 64
5, 48432, Note_off_c, 1, 55, 64
5, 48432, Note_on_c, 1, 46, 100
5, 48432, Note_on_c, 1, 39, 100
5, 48432, Note_on_c, 1, 51, 100
5, 48432, Note_on_c, 1, 62, 100
5, 48432, Note_on_c, 1, 55, 100
5, 48480, Note_off_c, 1, 55, 64
5, 48480, Note_off_c, 1, 62, 64
5, 48480, Note_off_c, 1, 51, 64
5, 48480, Note_off_c, 1, 39, 64
5, 48480, Note_off_c, 1, 46, 64
5, 48480, Note_on_c, 1, 55, 100
5, 48480, Note_on_c, 1, 62, 100
5, 48480, Note_on_c, 1, 51, 100
5, 48480, Note_on_c, 1, 39, 100
5, 48480, Note_on_c, 1, 46, 100
5, 48498, Control_c, 1, 7, 103
5, 48528, Note_off_c, 1, 46, 64
5, 48528, Note_off_c, 1, 39, 64
5, 48528, Note_off_c, 1, 51, 64
5, 48528, Note_off_c, 1, 62, 64
5, 48528, Note_off_c, 1, 55, 64
5, 48528, Note_on_c, 1, 46, 100
5, 48528, Note_on_c, 1, 39, 100
5, 48528, Note_on_c, 1, 51, 100
5, 48528, Note_on_c, 1, 62, 100
5, 48528, Note_on_c, 1, 55, 100
5, 48576, Note_off_c, 1, 55, 64
5, 48576, Note_off_c, 1, 62, 64
5, 48576, Note_off_c, 1, 51, 64
5, 48576, Note_off_c, 1, 39, 64
5, 48576, Note_off_c, 1, 46, 64
5, 48576, Note_on_c, 1, 55, 100
5, 48576, Note_on_c, 1, 62, 100
5, 48576, Note_on_c, 1, 51, 100
5, 48576, Note_on_c, 1, 39, 100
5, 48576, Note_on_c, 1, 46, 100
5, 48602, Control_c, 1, 7, 103
5, 48624, Note_off_c, 1, 46, 64
5, 48624, Note_off_c, 1, 39, 64
5, 48624, Note_off_c, 1, 51, 64
5, 48624, Note_off_c, 1, 62, 64
5, 48624, Note_off_c, 1, 55, 64
5, 48624, Note_on_c, 1, 46, 100
5, 48624, Note_on_c, 1, 39, 100
5, 48624, Note_on_c, 1, 51, 100
5, 48624, Note_on_c, 1, 62, 100
5, 48624, Note_on_c, 1, 55, 100
5, 48672, Note_off_c, 1, 55, 64
5, 48672, Note_off_c, 1, 62, 64
5, 48672, Note_off_c, 1, 51, 64
5, 48672, Note_off_c, 1, 39, 64
5, 48672, Note_off_c, 1, 46, 64
5, 48672, Note_on_c, 1, 55, 100
5, 48672, Note_on_c, 1, 62, 100
5, 48672, Note_on_c, 1, 51, 100
5, 48672, Note_on_c, 1, 39, 100
5, 48672, Note_on_c, 1, 46, 100
5, 48705, Control_c, 1, 7, 103
5, 48720, Note_off_c, 1, 46, 64
5, 48720, Note_off_c, 1, 39, 64
5, 48720, Note_off_c, 1, 51, 64
5, 48720, Note_off_c, 1, 62, 64
5, 48720, Note_off_c, 1, 55, 64
5, 48720, Note_on_c, 1, 55, 100
5, 48720, Note_on_c, 1, 62, 100
5, 48720, Note_on_c, 1, 51, 100
5, 48720, Note_on_c, 1, 39, 100
5, 48720, Note_on_c, 1, 46, 100
5, 48768, Note_off_c, 1, 46, 64
5, 48768, Note_off_c, 1, 39, 64
5, 48768, Note_off_c, 1, 51, 64
5, 48768, Note_off_c, 1, 62, 64
5, 48768, Note_off_c, 1, 55, 64
5, 48768, Note_on_c, 1, 57, 100
5, 48768, Note_on_c, 1, 53, 100
5, 48768, Note_on_c, 1, 41, 100
5, 48768, Note_on_c, 1, 48, 100
5, 48808, Control_c, 1, 7, 103
5, 48911, Control_c, 1, 7, 103
5, 48912, Note_off_c, 1, 57, 64
5, 48912, Note_off_c, 1, 53, 64
5, 48912, Note_off_c, 1, 41, 64
5, 48912, Note_off_c, 1, 48, 64
5, 48912, Note_on_c, 1, 57, 100
5, 48912, Note_on_c, 1, 53, 100
5, 48912, Note_on_c, 1, 41, 100
5, 48912, Note_on_c, 1, 48, 100
5, 49014, Control_c, 1, 7, 103
5, 49056, Note_off_c, 1, 48, 64
5, 49056, Note_off_c, 1, 57, 64
5, 49056, Note_off_c, 1, 53, 64
5, 49056, Note_off_c, 1, 41, 64
5, 49056, Note_on_c, 1, 58, 100
5, 49056, Note_on_c, 1, 55, 100
5, 49056, Note_on_c, 1, 43, 100
5, 49056, Note_on_c, 1, 50, 100
5, 49117, Control_c, 1, 7, 103
5, 49200, Note_off_c, 1, 50, 64
5, 49200, Note_off_c, 1, 43, 64
5, 49200, Note_off_c, 1, 55, 64
5, 49200, Note_off_c, 1, 58, 64
5, 49200, Note_on_c, 1, 50, 100
5, 49200, Note_on_c, 1, 43, 100
5, 49200, Note_on_c, 1, 55, 100
5, 49200, Note_on_c, 1, 58, 100
5, 49220, Control_c, 1, 7, 103
5, 49248, Note_off_c, 1, 43, 64
5, 49248, Note_off_c, 1, 58, 64
5, 49248, Note_off_c, 1, 55, 64
5, 49248, Note_off_c, 1, 50, 64
5, 49248, Note_on_c, 1, 58, 100
5, 49248, Note_on_c, 1, 55, 100
5, 49248, Note_on_c, 1, 43, 100
5, 49248, Note_on_c, 1, 50, 100
5, 49296, Note_off_c, 1, 50, 64
5, 49296, Note_off_c, 1, 43, 64
5, 49296, Note_off_c, 1, 55, 64
5, 49296, Note_off_c, 1, 58, 64
5, 49296, Note_on_c, 1, 50, 100
5, 49296, Note_on_c, 1, 43, 100
5, 49296, Note_on_c, 1, 55, 100
5, 49296, Note_on_c, 1, 58, 100
5, 49323, Control_c, 1, 7, 103
5, 49344, Note_off_c, 1, 58, 64
5, 49344, Note_off_c, 1, 55, 64
5, 49344, Note_off_c, 1, 43, 64
5, 49344, Note_off_c, 1, 50, 64
5, 49344, Note_on_c, 1, 58, 100
5, 49344, Note_on_c, 1, 55, 100
5, 49344, Note_on_c, 1, 43, 100
5, 49344, Note_on_c, 1, 50, 100
5, 49392, Note_off_c, 1, 50, 64
5, 49392, Note_off_c, 1, 43, 64
5, 49392, Note_off_c, 1, 55, 64
5, 49392, Note_off_c, 1, 58, 64
5, 49392, Note_on_c, 1, 50, 100
5, 49392, Note_on_c, 1, 43, 100
5, 49392, Note_on_c, 1, 55, 100
5, 49392, Note_on_c, 1, 58, 100
5, 49427, Control_c, 1, 7, 103
5, 49440, Note_off_c, 1, 58, 64
5, 49440, Note_off_c, 1, 55, 64
5, 49440, Note_off_c, 1, 43, 64
5, 49440, Note_off_c, 1, 50, 64
5, 49440, Note_on_c, 1, 58, 100
5, 49440, Note_on_c, 1, 55, 100
5, 49440, Note_on_c, 1, 43, 100
5, 49440, Note_on_c, 1, 50, 100
5, 49488, Note_off_c, 1, 50, 64
5, 49488, Note_off_c, 1, 43, 64
5, 49488, Note_off_c, 1, 55, 64
5, 49488, Note_off_c, 1, 58, 64
5, 49488, Note_on_c, 1, 58, 100
5, 49488, Note_on_c, 1, 55, 100
5, 49488, Note_on_c, 1, 43, 100
5, 49488, Note_on_c, 1, 50, 100
5, 49529, Control_c, 1, 7, 103
5, 49536, Note_off_c, 1, 50, 64
5, 49536, Note_off_c, 1, 43, 64
5, 49536, Note_off_c, 1, 55, 64
5, 49536, Note_off_c, 1, 58, 64
5, 49536, Note_on_c, 1, 57, 100
5, 49536, Note_on_c, 1, 53, 100
5, 49536, Note_on_c, 1, 41, 100
5, 49536, Note_on_c, 1, 48, 100
5, 49633, Control_c, 1, 7, 103
5, 49680, Note_off_c, 1, 48, 64
5, 49680, Note_off_c, 1, 41, 64
5, 49680, Note_off_c, 1, 53, 64
5, 49680, Note_off_c, 1, 57, 64
5, 49680, Note_on_c, 1, 58, 100
5, 49680, Note_on_c, 1, 55, 100
5, 49680, Note_on_c, 1, 43, 100
5, 49680, Note_on_c, 1, 50, 100
5, 49736, Control_c, 1, 7, 103
5, 49824, Note_off_c, 1, 55, 64
5, 49824, Note_off_c, 1, 58, 64
5, 49824, Note_off_c, 1, 50, 64
5, 49824, Note_off_c, 1, 43, 64
5, 49824, Note_on_c, 1, 55, 100
5, 49824, Note_on_c, 1, 51, 100
5, 49824, Note_on_c, 1, 39, 100
5, 49824, Note_on_c, 1, 62, 100
5, 49824, Note_on_c, 1, 46, 100
5, 49839, Control_c, 1, 7, 103
5, 49942, Control_c, 1, 7, 103
5, 49968, Note_off_c, 1, 46, 64
5, 49968, Note_off_c, 1, 62, 64
5, 49968, Note_off_c, 1, 39, 64
5, 49968, Note_off_c, 1, 51, 64
5, 49968, Note_off_c, 1, 55, 64
5, 49968, Note_on_c, 1, 46, 100
5, 49968, Note_on_c, 1, 39, 100
5, 49968, Note_on_c, 1, 51, 100
5, 49968, Note_on_c, 1, 62, 100
5, 49968, Note_on_c, 1, 55, 100
5, 50016, Note_off_c, 1, 55, 64
5, 50016, Note_off_c, 1, 62, 64
5, 50016, Note_off_c, 1, 51, 64
5, 50016, Note_off_c, 1, 39, 64
5, 50016, Note_off_c, 1, 46, 64
5, 50016, Note_on_c, 1, 55, 100
5, 50016, Note_on_c, 1, 62, 100
5, 50016, Note_on_c, 1, 51, 100
5, 50016, Note_on_c, 1, 39, 100
5, 50016, Note_on_c, 1, 46, 100
5, 50045, Control_c, 1, 7, 103
5, 50064, Note_off_c, 1, 46, 64
5, 50064, Note_off_c, 1, 39, 64
5, 50064, Note_off_c, 1, 51, 64
5, 50064, Note_off_c, 1, 62, 64
5, 50064, Note_off_c, 1, 55, 64
5, 50064, Note_on_c, 1, 46, 100
5, 50064, Note_on_c, 1, 39, 100
5, 50064, Note_on_c, 1, 51, 100
5, 50064, Note_on_c, 1, 62, 100
5, 50064, Note_on_c, 1, 55, 100
5, 50112, Note_off_c, 1, 55, 64
5, 50112, Note_off_c, 1, 62, 64
5, 50112, Note_off_c, 1, 51, 64
5, 50112, Note_off_c, 1, 39, 64
5, 50112, Note_off_c, 1, 46, 64
5, 50112, Note_on_c, 1, 55, 100
5, 50112, Note_on_c, 1, 62, 100
5, 50112, Note_on_c, 1, 51, 100
5, 50112, Note_on_c, 1, 39, 100
5, 50112, Note_on_c, 1, 46, 100
5, 50148, Control_c, 1, 7, 103
5, 50160, Note_off_c, 1, 46, 64
5, 50160, Note_off_c, 1, 39, 64
5, 50160, Note_off_c, 1, 51, 64
5, 50160, Note_off_c, 1, 62, 64
5, 50160, Note_off_c, 1, 55, 64
5, 50160, Note_on_c, 1, 46, 100
5, 50160, Note_on_c, 1, 39, 100
5, 50160, Note_on_c, 1, 51, 100
5, 50160, Note_on_c, 1, 62, 100
5, 50160, Note_on_c, 1, 55, 100
5, 50208, Note_off_c, 1, 55, 64
5, 50208, Note_off_c, 1, 62, 64
5, 50208, Note_off_c, 1, 51, 64
5, 50208, Note_off_c, 1, 39, 64
5, 50208, Note_off_c, 1, 46, 64
5, 50208, Note_on_c, 1, 55, 100
5, 50208, Note_on_c, 1, 62, 100
5, 50208, Note_on_c, 1, 51, 100
5, 50208, Note_on_c, 1, 39, 100
5, 50208, Note_on_c, 1, 46, 100
5, 50251, Control_c, 1, 7, 103
5, 50256, Note_off_c, 1, 46, 64
5, 50256, Note_off_c, 1, 39, 64
5, 50256, Note_off_c, 1, 51, 64
5, 50256, Note_off_c, 1, 62, 64
5, 50256, Note_off_c, 1, 55, 64
5, 50256, Note_on_c, 1, 55, 100
5, 50256, Note_on_c, 1, 62, 100
5, 50256, Note_on_c, 1, 51, 100
5, 50256, Note_on_c, 1, 39, 100
5, 50256, Note_on_c, 1, 46, 100
5, 50304, Note_off_c, 1, 55, 64
5, 50304, Note_off_c, 1, 46, 64
5, 50304, Note_off_c, 1, 39, 64
5, 50304, Note_off_c, 1, 51, 64
5, 50304, Note_off_c, 1, 62, 64
5, 50304, Note_on_c, 1, 46, 100
5, 50304, Note_on_c, 1, 62, 100
5, 50304, Note_on_c, 1, 39, 100
5, 50304, Note_on_c, 1, 51, 100
5, 50304, Note_on_c, 1, 55, 100
5, 50354, Control_c, 1, 7, 103
5, 50448, Note_off_c, 1, 55, 64
5, 50448, Note_off_c, 1, 51, 64
5, 50448, Note_off_c, 1, 39, 64
5, 50448, Note_off_c, 1, 62, 64
5, 50448, Note_off_c, 1, 46, 64
5, 50448, Note_on_c, 1, 46, 100
5, 50448, Note_on_c, 1, 62, 100
5, 50448, Note_on_c, 1, 39, 100
5, 50448, Note_on_c, 1, 51, 100
5, 50448, Note_on_c, 1, 55, 100
5, 50458, Control_c, 1, 7, 103
5, 50560, Control_c, 1, 7, 103
5, 50592, Note_off_c, 1, 55, 64
5, 50592, Note_off_c, 1, 51, 64
5, 50592, Note_off_c, 1, 39, 64
5, 50592, Note_off_c, 1, 62, 64
5, 50592, Note_off_c, 1, 46, 64
5, 50592, Note_on_c, 1, 55, 100
5, 50592, Note_on_c, 1, 51, 100
5, 50592, Note_on_c, 1, 39, 100
5, 50592, Note_on_c, 1, 62, 100
5, 50592, Note_on_c, 1, 46, 100
5, 50664, Control_c, 1, 7, 103
5, 50736, Note_off_c, 1, 46, 64
5, 50736, Note_off_c, 1, 62, 64
5, 50736, Note_off_c, 1, 39, 64
5, 50736, Note_off_c, 1, 51, 64
5, 50736, Note_off_c, 1, 55, 64
5, 50736, Note_on_c, 1, 55, 100
5, 50736, Note_on_c, 1, 62, 100
5, 50736, Note_on_c, 1, 51, 100
5, 50736, Note_on_c, 1, 39, 100
5, 50736, Note_on_c, 1, 46, 100
5, 50766, Control_c, 1, 7, 103
5, 50784, Note_off_c, 1, 46, 64
5, 50784, Note_off_c, 1, 39, 64
5, 50784, Note_off_c, 1, 51, 64
5, 50784, Note_off_c, 1, 62, 64
5, 50784, Note_off_c, 1, 55, 64
5, 50784, Note_on_c, 1, 55, 100
5, 50784, Note_on_c, 1, 62, 100
5, 50784, Note_on_c, 1, 51, 100
5, 50784, Note_on_c, 1, 39, 100
5, 50784, Note_on_c, 1, 46, 100
5, 50832, Note_off_c, 1, 55, 64
5, 50832, Note_off_c, 1, 46, 64
5, 50832, Note_off_c, 1, 39, 64
5, 50832, Note_off_c, 1, 51, 64
5, 50832, Note_off_c, 1, 62, 64
5, 50832, Note_on_c, 1, 55, 100
5, 50832, Note_on_c, 1, 62, 100
5, 50832, Note_on_c, 1, 51, 100
5, 50832, Note_on_c, 1, 39, 100
5, 50832, Note_on_c, 1, 46, 100
5, 50870, Control_c, 1, 7, 103
5, 50880, Note_off_c, 1, 55, 64
5, 50880, Note_off_c, 1, 46, 64
5, 50880, Note_off_c, 1, 39, 64
5, 50880, Note_off_c, 1, 51, 64
5, 50880, Note_off_c, 1, 62, 64
5, 50880, Note_on_c, 1, 55, 100
5, 50880, Note_on_c, 1, 62, 100
5, 50880, Note_on_c, 1, 51, 100
5, 50880, Note_on_c, 1, 39, 100
5, 50880, Note_on_c, 1, 46, 100
5, 50928, Note_off_c, 1, 55, 64
5, 50928, Note_off_c, 1, 46, 64
5, 50928, Note_off_c, 1, 39, 64
5, 50928, Note_off_c, 1, 51, 64
5, 50928, Note_off_c, 1, 62, 64
5, 50928, Note_on_c, 1, 55, 100
5, 50928, Note_on_c, 1, 62, 100
5, 50928, Note_on_c, 1, 51, 100
5, 50928, Note_on_c, 1, 39, 100
5, 50928, Note_on_c, 1, 46, 100
5, 50973, Control_c, 1, 7, 103
5, 50976, Note_off_c, 1, 62, 64
5, 50976, Note_off_c, 1, 55, 64
5, 50976, Note_off_c, 1, 46, 64
5, 50976, Note_off_c, 1, 39, 64
5, 50976, Note_off_c, 1, 51, 64
5, 50976, Note_on_c, 1, 55, 100
5, 50976, Note_on_c, 1, 62, 100
5, 50976, Note_on_c, 1, 51, 100
5, 50976, Note_on_c, 1, 39, 100
5, 50976, Note_on_c, 1, 46, 100
5, 51024, Note_off_c, 1, 55, 64
5, 51024, Note_off_c, 1, 46, 64
5, 51024, Note_off_c, 1, 39, 64
5, 51024, Note_off_c, 1, 51, 64
5, 51024, Note_off_c, 1, 62, 64
5, 51024, Note_on_c, 1, 55, 100
5, 51024, Note_on_c, 1, 62, 100
5, 51024, Note_on_c, 1, 51, 100
5, 51024, Note_on_c, 1, 39, 100
5, 51024, Note_on_c, 1, 46, 100
5, 51072, Note_off_c, 1, 55, 64
5, 51072, Note_off_c, 1, 46, 64
5, 51072, Note_off_c, 1, 39, 64
5, 51072, Note_off_c, 1, 51, 64
5, 51072, Note_off_c, 1, 62, 64
5, 51072, Note_on_c, 1, 57, 100
5, 51072, Note_on_c, 1, 53, 100
5, 51072, Note_on_c, 1, 41, 100
5, 51072, Note_on_c, 1, 48, 100
5, 51076, Control_c, 1, 7, 103
5, 51179, Control_c, 1, 7, 103
5, 51216, Note_off_c, 1, 48, 64
5, 51216, Note_off_c, 1, 41, 64
5, 51216, Note_off_c, 1, 53, 64
5, 51216, Note_off_c, 1, 57, 64
5, 51216, Note_on_c, 1, 58, 100
5, 51216, Note_on_c, 1, 55, 100
5, 51216, Note_on_c, 1, 43, 100
5, 51216, Note_on_c, 1, 50, 100
5, 51282, Control_c, 1, 7, 103
5, 51360, Note_off_c, 1, 58, 64
5, 51360, Note_off_c, 1, 50, 64
5, 51360, Note_off_c, 1, 43, 64
5, 51360, Note_off_c, 1, 55, 64
5, 51360, Note_on_c, 1, 55, 100
5, 51360, Note_on_c, 1, 51, 100
5, 51360, Note_on_c, 1, 39, 100
5, 51360, Note_on_c, 1, 62, 100
5, 51360, Note_on_c, 1, 46, 100
5, 51385, Control_c, 1, 7, 103
5, 51489, Control_c, 1, 7, 103
5, 51504, Note_off_c, 1, 55, 64
5, 51504, Note_off_c, 1, 46, 64
5, 51504, Note_off_c, 1, 62, 64
5, 51504, Note_off_c, 1, 39, 64
5, 51504, Note_off_c, 1, 51, 64
5, 51504, Note_on_c, 1, 46, 100
5, 51504, Note_on_c, 1, 39, 100
5, 51504, Note_on_c, 1, 51, 100
5, 51504, Note_on_c, 1, 62, 100
5, 51504, Note_on_c, 1, 55, 100
5, 51552, Note_off_c, 1, 55, 64
5, 51552, Note_off_c, 1, 62, 64
5, 51552, Note_off_c, 1, 51, 64
5, 51552, Note_off_c, 1, 39, 64
5, 51552, Note_off_c, 1, 46, 64
5, 51552, Note_on_c, 1, 55, 100
5, 51552, Note_on_c, 1, 62, 100
5, 51552, Note_on_c, 1, 51, 100
5, 51552, Note_on_c, 1, 39, 100
5, 51552, Note_on_c, 1, 46, 100
5, 51591, Control_c, 1, 7, 103
5, 51600, Note_off_c, 1, 46, 64
5, 51600, Note_off_c, 1, 39, 64
5, 51600, Note_off_c, 1, 51, 64
5, 51600, Note_off_c, 1, 62, 64
5, 51600, Note_off_c, 1, 55, 64
5, 51600, Note_on_c, 1, 46, 100
5, 51600, Note_on_c, 1, 39, 100
5, 51600, Note_on_c, 1, 51, 100
5, 51600, Note_on_c, 1, 62, 100
5, 51600, Note_on_c, 1, 55, 100
5, 51648, Note_off_c, 1, 55, 64
5, 51648, Note_off_c, 1, 62, 64
5, 51648, Note_off_c, 1, 51, 64
5, 51648, Note_off_c, 1, 39, 64
5, 51648, Note_off_c, 1, 46, 64
5, 51648, Note_on_c, 1, 55, 100
5, 51648, Note_on_c, 1, 62, 100
5, 51648, Note_on_c, 1, 51, 100
5, 51648, Note_on_c, 1, 39, 100
5, 51648, Note_on_c, 1, 46, 100
5, 51695, Control_c, 1, 7, 103
5, 51696, Note_off_c, 1, 55, 64
5, 51696, Note_off_c, 1, 46, 64
5, 51696, Note_off_c, 1, 39, 64
5, 51696, Note_off_c, 1, 51, 64
5, 51696, Note_off_c, 1, 62, 64
5, 51696, Note_on_c, 1, 46, 100
5, 51696, Note_on_c, 1, 39, 100
5, 51696, Note_on_c, 1, 51, 100
5, 51696, Note_on_c, 1, 62, 100
5, 51696, Note_on_c, 1, 55, 100
5, 51744, Note_off_c, 1, 55, 64
5, 51744, Note_off_c, 1, 62, 64
5, 51744, Note_off_c, 1, 51, 64
5, 51744, Note_off_c, 1, 39, 64
5, 51744, Note_off_c, 1, 46, 64
5, 51744, Note_on_c, 1, 55, 100
5, 51744, Note_on_c, 1, 62, 100
5, 51744, Note_on_c, 1, 51, 100
5, 51744, Note_on_c, 1, 39, 100
5, 51744, Note_on_c, 1, 46, 100
5, 51792, Note_off_c, 1, 46, 64
5, 51792, Note_off_c, 1, 39, 64
5, 51792, Note_off_c, 1, 51, 64
5, 51792, Note_off_c, 1, 62, 64
5, 51792, Note_off_c, 1, 55, 64
5, 51792, Note_on_c, 1, 55, 100
5, 51792, Note_on_c, 1, 62, 100
5, 51792, Note_on_c, 1, 51, 100
5, 51792, Note_on_c, 1, 39, 100
5, 51792, Note_on_c, 1, 46, 100
5, 51797, Control_c, 1, 7, 103
5, 51840, Note_off_c, 1, 62, 64
5, 51840, Note_off_c, 1, 55, 64
5, 51840, Note_off_c, 1, 46, 64
5, 51840, Note_off_c, 1, 39, 64
5, 51840, Note_off_c, 1, 51, 64
5, 51840, Note_on_c, 1, 46, 100
5, 51840, Note_on_c, 1, 62, 100
5, 51840, Note_on_c, 1, 39, 100
5, 51840, Note_on_c, 1, 51, 100
5, 51840, Note_on_c, 1, 55, 100
5, 51901, Control_c, 1, 7, 103
5, 51984, Note_off_c, 1, 55, 64
5, 51984, Note_off_c, 1, 51, 64
5, 51984, Note_off_c, 1, 39, 64
5, 51984, Note_off_c, 1, 62, 64
5, 51984, Note_off_c, 1, 46, 64
5, 51984, Note_on_c, 1, 46, 100
5, 51984, Note_on_c, 1, 62, 100
5, 51984, Note_on_c, 1, 39, 100
5, 51984, Note_on_c, 1, 51, 100
5, 51984, Note_on_c, 1, 55, 100
5, 52004, Control_c, 1, 7, 103
5, 52107, Control_c, 1, 7, 103
5, 52128, Note_off_c, 1, 55, 64
5, 52128, Note_off_c, 1, 51, 64
5, 52128, Note_off_c, 1, 39, 64
5, 52128, Note_off_c, 1, 62, 64
5, 52128, Note_off_c, 1, 46, 64
5, 52128, Note_on_c, 1, 55, 100
5, 52128, Note_on_c, 1, 51, 100
5, 52128, Note_on_c, 1, 39, 100
5, 52128, Note_on_c, 1, 62, 100
5, 52128, Note_on_c, 1, 46, 100
5, 52210, Control_c, 1, 7, 103
5, 52272, Note_off_c, 1, 46, 64
5, 52272, Note_off_c, 1, 62, 64
5, 52272, Note_off_c, 1, 39, 64
5, 52272, Note_off_c, 1, 51, 64
5, 52272, Note_off_c, 1, 55, 64
5, 52272, Note_on_c, 1, 55, 100
5, 52272, Note_on_c, 1, 62, 100
5, 52272, Note_on_c, 1, 51, 100
5, 52272, Note_on_c, 1, 39, 100
5, 52272, Note_on_c, 1, 46, 100
5, 52313, Control_c, 1, 7, 103
5, 52320, Note_off_c, 1, 55, 64
5, 52320, Note_off_c, 1, 46, 64
5, 52320, Note_off_c, 1, 39, 64
5, 52320, Note_off_c, 1, 51, 64
5, 52320, Note_off_c, 1, 62, 64
5, 52320, Note_on_c, 1, 55, 100
5, 52320, Note_on_c, 1, 62, 100
5, 52320, Note_on_c, 1, 51, 100
5, 52320, Note_on_c, 1, 39, 100
5, 52320, Note_on_c, 1, 46, 100
5, 52368, Note_off_c, 1, 55, 64
5, 52368, Note_off_c, 1, 46, 64
5, 52368, Note_off_c, 1, 39, 64
5, 52368, Note_off_c, 1, 51, 64
5, 52368, Note_off_c, 1, 62, 64
5, 52368, Note_on_c, 1, 55, 100
5, 52368, Note_on_c, 1, 62, 100
5, 52368, Note_on_c, 1, 51, 100
5, 52368, Note_on_c, 1, 39, 100
5, 52368, Note_on_c, 1, 46, 100
5, 52416, Note_off_c, 1, 62, 64
5, 52416, Note_off_c, 1, 55, 64
5, 52416, Note_off_c, 1, 46, 64
5, 52416, Note_off_c, 1, 39, 64
5, 52416, Note_off_c, 1, 51, 64
5, 52416, Note_on_c, 1, 55, 100
5, 52416, Note_on_c, 1, 62, 100
5, 52416, Note_on_c, 1, 51, 100
5, 52416, Note_on_c, 1, 39, 100
5, 52416, Note_on_c, 1, 46, 100
5, 52416, Control_c, 1, 7, 103
5, 52464, Note_off_c, 1, 55, 64
5, 52464, Note_off_c, 1, 46, 64
5, 52464, Note_off_c, 1, 39, 64
5, 52464, Note_off_c, 1, 51, 64
5, 52464, Note_off_c, 1, 62, 64
5, 52464, Note_on_c, 1, 55, 100
5, 52464, Note_on_c, 1, 62, 100
5, 52464, Note_on_c, 1, 51, 100
5, 52464, Note_on_c, 1, 39, 100
5, 52464, Note_on_c, 1, 46, 100
5, 52512, Note_off_c, 1, 62, 64
5, 52512, Note_off_c, 1, 55, 64
5, 52512, Note_off_c, 1, 46, 64
5, 52512, Note_off_c, 1, 39, 64
5, 52512, Note_off_c, 1, 51, 64
5, 52512, Note_on_c, 1, 55, 100
5, 52512, Note_on_c, 1, 62, 100
5, 52512, Note_on_c, 1, 51, 100
5, 52512, Note_on_c, 1, 39, 100
5, 52512, Note_on_c, 1, 46, 100
5, 52519, Control_c, 1, 7, 103
5, 52560, Note_off_c, 1, 55, 64
5, 52560, Note_off_c, 1, 46, 64
5, 52560, Note_off_c, 1, 39, 64
5, 52560, Note_off_c, 1, 51, 64
5, 52560, Note_off_c, 1, 62, 64
5, 52560, Note_on_c, 1, 55, 100
5, 52560, Note_on_c, 1, 62, 100
5, 52560, Note_on_c, 1, 51, 100
5, 52560, Note_on_c, 1, 39, 100
5, 52560, Note_on_c, 1, 46, 100
5, 52608, Note_off_c, 1, 55, 64
5, 52608, Note_off_c, 1, 46, 64
5, 52608, Note_off_c, 1, 39, 64
5, 52608, Note_off_c, 1, 51, 64
5, 52608, Note_off_c, 1, 62, 64
5, 52608, Note_on_c, 1, 57, 100
5, 52608, Note_on_c, 1, 53, 100
5, 52608, Note_on_c, 1, 41, 100
5, 52608, Note_on_c, 1, 48, 100
5, 52622, Control_c, 1, 7, 103
5, 52726, Control_c, 1, 7, 103
5, 52752, Note_off_c, 1, 48, 64
5, 52752, Note_off_c, 1, 41, 64
5, 52752, Note_off_c, 1, 53, 64
5, 52752, Note_off_c, 1, 57, 64
5, 52752, Note_on_c, 1, 58, 100
5, 52752, Note_on_c, 1, 55, 100
5, 52752, Note_on_c, 1, 43, 100
5, 52752, Note_on_c, 1, 50, 100
5, 52828, Control_c, 1, 7, 103
5, 52896, Note_off_c, 1, 55, 64
5, 52896, Note_off_c, 1, 58, 64
5, 52896, Note_off_c, 1, 50, 64
5, 52896, Note_off_c, 1, 43, 64
5, 52896, Note_on_c, 1, 55, 100
5, 52896, Note_on_c, 1, 51, 100
5, 52896, Note_on_c, 1, 39, 100
5, 52896, Note_on_c, 1, 62, 100
5, 52896, Note_on_c, 1, 46, 100
5, 52932, Control_c, 1, 7, 103
5, 53035, Control_c, 1, 7, 103
5, 53040, Note_off_c, 1, 46, 64
5, 53040, Note_off_c, 1, 62, 64
5, 53040, Note_off_c, 1, 39, 64
5, 53040, Note_off_c, 1, 51, 64
5, 53040, Note_off_c, 1, 55, 64
5, 53040, Note_on_c, 1, 46, 100
5, 53040, Note_on_c, 1, 39, 100
5, 53040, Note_on_c, 1, 51, 100
5, 53040, Note_on_c, 1, 62, 100
5, 53040, Note_on_c, 1, 55, 100
5, 53088, Note_off_c, 1, 55, 64
5, 53088, Note_off_c, 1, 62, 64
5, 53088, Note_off_c, 1, 51, 64
5, 53088, Note_off_c, 1, 39, 64
5, 53088, Note_off_c, 1, 46, 64
5, 53088, Note_on_c, 1, 55, 100
5, 53088, Note_on_c, 1, 62, 100
5, 53088, Note_on_c, 1, 51, 100
5, 53088, Note_on_c, 1, 39, 100
5, 53088, Note_on_c, 1, 46, 100
5, 53136, Note_off_c, 1, 46, 64
5, 53136, Note_off_c, 1, 39, 64
5, 53136, Note_off_c, 1, 51, 64
5, 53136, Note_off_c, 1, 62, 64
5, 53136, Note_off_c, 1, 55, 64
5, 53136, Note_on_c, 1, 46, 100
5, 53136, Note_on_c, 1, 39, 100
5, 53136, Note_on_c, 1, 51, 100
5, 53136, Note_on_c, 1, 62, 100
5, 53136, Note_on_c, 1, 55, 100
5, 53138, Control_c, 1, 7, 103
5, 53184, Note_off_c, 1, 55, 64
5, 53184, Note_off_c, 1, 62, 64
5, 53184, Note_off_c, 1, 51, 64
5, 53184, Note_off_c, 1, 39, 64
5, 53184, Note_off_c, 1, 46, 64
5, 53184, Note_on_c, 1, 55, 100
5, 53184, Note_on_c, 1, 62, 100
5, 53184, Note_on_c, 1, 51, 100
5, 53184, Note_on_c, 1, 39, 100
5, 53184, Note_on_c, 1, 46, 100
5, 53232, Note_off_c, 1, 46, 64
5, 53232, Note_off_c, 1, 39, 64
5, 53232, Note_off_c, 1, 51, 64
5, 53232, Note_off_c, 1, 62, 64
5, 53232, Note_off_c, 1, 55, 64
5, 53232, Note_on_c, 1, 46, 100
5, 53232, Note_on_c, 1, 39, 100
5, 53232, Note_on_c, 1, 51, 100
5, 53232, Note_on_c, 1, 62, 100
5, 53232, Note_on_c, 1, 55, 100
5, 53241, Control_c, 1, 7, 103
5, 53280, Note_off_c, 1, 55, 64
5, 53280, Note_off_c, 1, 62, 64
5, 53280, Note_off_c, 1, 51, 64
5, 53280, Note_off_c, 1, 39, 64
5, 53280, Note_off_c, 1, 46, 64
5, 53280, Note_on_c, 1, 55, 100
5, 53280, Note_on_c, 1, 62, 100
5, 53280, Note_on_c, 1, 51, 100
5, 53280, Note_on_c, 1, 39, 100
5, 53280, Note_on_c, 1, 46, 100
5, 53328, Note_off_c, 1, 46, 64
5, 53328, Note_off_c, 1, 39, 64
5, 53328, Note_off_c, 1, 51, 64
5, 53328, Note_off_c, 1, 62, 64
5, 53328, Note_off_c, 1, 55, 64
5, 53328, Note_on_c, 1, 55, 100
5, 53328, Note_on_c, 1, 62, 100
5, 53328, Note_on_c, 1, 51, 100
5, 53328, Note_on_c, 1, 39, 100
5, 53328, Note_on_c, 1, 46, 100
5, 53344, Control_c, 1, 7, 103
5, 53376, Note_off_c, 1, 55, 64
5, 53376, Note_off_c, 1, 46, 64
5, 53376, Note_off_c, 1, 39, 64
5, 53376, Note_off_c, 1, 51, 64
5, 53376, Note_off_c, 1, 62, 64
5, 53376, Note_on_c, 1, 46, 100
5, 53376, Note_on_c, 1, 62, 100
5, 53376, Note_on_c, 1, 39, 100
5, 53376, Note_on_c, 1, 51, 100
5, 53376, Note_on_c, 1, 55, 100
5, 53447, Control_c, 1, 7, 103
5, 53520, Note_off_c, 1, 55, 64
5, 53520, Note_off_c, 1, 51, 64
5, 53520, Note_off_c, 1, 39, 64
5, 53520, Note_off_c, 1, 62, 64
5, 53520, Note_off_c, 1, 46, 64
5, 53520, Note_on_c, 1, 46, 100
5, 53520, Note_on_c, 1, 62, 100
5, 53520, Note_on_c, 1, 39, 100
5, 53520, Note_on_c, 1, 51, 100
5, 53520, Note_on_c, 1, 55, 100
5, 53550, Control_c, 1, 7, 103
5, 53653, Control_c, 1, 7, 103
5, 53664, Note_off_c, 1, 55, 64
5, 53664, Note_off_c, 1, 51, 64
5, 53664, Note_off_c, 1, 39, 64
5, 53664, Note_off_c, 1, 62, 64
5, 53664, Note_off_c, 1, 46, 64
5, 53664, Note_on_c, 1, 55, 100
5, 53664, Note_on_c, 1, 51, 100
5, 53664, Note_on_c, 1, 39, 100
5, 53664, Note_on_c, 1, 62, 100
5, 53664, Note_on_c, 1, 46, 100
5, 53757, Control_c, 1, 7, 103
5, 53808, Note_off_c, 1, 46, 64
5, 53808, Note_off_c, 1, 62, 64
5, 53808, Note_off_c, 1, 39, 64
5, 53808, Note_off_c, 1, 51, 64
5, 53808, Note_off_c, 1, 55, 64
5, 53808, Note_on_c, 1, 55, 100
5, 53808, Note_on_c, 1, 62, 100
5, 53808, Note_on_c, 1, 51, 100
5, 53808, Note_on_c, 1, 39, 100
5, 53808, Note_on_c, 1, 46, 100
5, 53856, Note_off_c, 1, 55, 64
5, 53856, Note_off_c, 1, 46, 64
5, 53856, Note_off_c, 1, 39, 64
5, 53856, Note_off_c, 1, 51, 64
5, 53856, Note_off_c, 1, 62, 64
5, 53856, Note_on_c, 1, 55, 100
5, 53856, Note_on_c, 1, 62, 100
5, 53856, Note_on_c, 1, 51, 100
5, 53856, Note_on_c, 1, 39, 100
5, 53856, Note_on_c, 1, 46, 100
5, 53859, Control_c, 1, 7, 103
5, 53904, Note_off_c, 1, 62, 64
5, 53904, Note_off_c, 1, 55, 64
5, 53904, Note_off_c, 1, 46, 64
5, 53904, Note_off_c, 1, 39, 64
5, 53904, Note_off_c, 1, 51, 64
5, 53904, Note_on_c, 1, 55, 100
5, 53904, Note_on_c, 1, 62, 100
5, 53904, Note_on_c, 1, 51, 100
5, 53904, Note_on_c, 1, 39, 100
5, 53904, Note_on_c, 1, 46, 100
5, 53952, Note_off_c, 1, 55, 64
5, 53952, Note_off_c, 1, 46, 64
5, 53952, Note_off_c, 1, 39, 64
5, 53952, Note_off_c, 1, 51, 64
5, 53952, Note_off_c, 1, 62, 64
5, 53952, Note_on_c, 1, 55, 100
5, 53952, Note_on_c, 1, 62, 100
5, 53952, Note_on_c, 1, 51, 100
5, 53952, Note_on_c, 1, 39, 100
5, 53952, Note_on_c, 1, 46, 100
5, 53963, Control_c, 1, 7, 103
5, 54000, Note_off_c, 1, 55, 64
5, 54000, Note_off_c, 1, 46, 64
5, 54000, Note_off_c, 1, 39, 64
5, 54000, Note_off_c, 1, 51, 64
5, 54000, Note_off_c, 1, 62, 64
5, 54000, Note_on_c, 1, 55, 100
5, 54000, Note_on_c, 1, 62, 100
5, 54000, Note_on_c, 1, 51, 100
5, 54000, Note_on_c, 1, 39, 100
5, 54000, Note_on_c, 1, 46, 100
5, 54048, Note_off_c, 1, 62, 64
5, 54048, Note_off_c, 1, 55, 64
5, 54048, Note_off_c, 1, 46, 64
5, 54048, Note_off_c, 1, 39, 64
5, 54048, Note_off_c, 1, 51, 64
5, 54048, Note_on_c, 1, 55, 100
5, 54048, Note_on_c, 1, 62, 100
5, 54048, Note_on_c, 1, 51, 100
5, 54048, Note_on_c, 1, 39, 100
5, 54048, Note_on_c, 1, 46, 100
5, 54065, Control_c, 1, 7, 103
5, 54096, Note_off_c, 1, 55, 64
5, 54096, Note_off_c, 1, 46, 64
5, 54096, Note_off_c, 1, 39, 64
5, 54096, Note_off_c, 1, 51, 64
5, 54096, Note_off_c, 1, 62, 64
5, 54096, Note_on_c, 1, 55, 100
5, 54096, Note_on_c, 1, 62, 100
5, 54096, Note_on_c, 1, 51, 100
5, 54096, Note_on_c, 1, 39, 100
5, 54096, Note_on_c, 1, 46, 100
5, 54144, Note_off_c, 1, 55, 64
5, 54144, Note_off_c, 1, 46, 64
5, 54144, Note_off_c, 1, 39, 64
5, 54144, Note_off_c, 1, 51, 64
5, 54144, Note_off_c, 1, 62, 64
5, 54144, Note_on_c, 1, 57, 100
5, 54144, Note_on_c, 1, 53, 100
5, 54144, Note_on_c, 1, 41, 100
5, 54144, Note_on_c, 1, 48, 100
5, 54169, Control_c, 1, 7, 103
5, 54272, Control_c, 1, 7, 103
5, 54288, Note_off_c, 1, 48, 64
5, 54288, Note_off_c, 1, 41, 64
5, 54288, Note_off_c, 1, 53, 64
5, 54288, Note_off_c, 1, 57, 64
5, 54288, Note_on_c, 1, 58, 100
5, 54288, Note_on_c, 1, 55, 100
5, 54288, Note_on_c, 1, 43, 100
5, 54288, Note_on_c, 1, 50, 100
5, 54375, Control_c, 1, 7, 103
5, 54432, Note_off_c, 1, 55, 64
5, 54432, Note_off_c, 1, 58, 64
5, 54432, Note_off_c, 1, 50, 64
5, 54432, Note_off_c, 1, 43, 64
5, 54432, Note_on_c, 1, 55, 100
5, 54432, Note_on_c, 1, 51, 100
5, 54432, Note_on_c, 1, 39, 100
5, 54432, Note_on_c, 1, 62, 100
5, 54432, Note_on_c, 1, 46, 100
5, 54478, Control_c, 1, 7, 103
5, 54576, Note_off_c, 1, 55, 64
5, 54576, Note_off_c, 1, 46, 64
5, 54576, Note_off_c, 1, 62, 64
5, 54576, Note_off_c, 1, 39, 64
5, 54576, Note_off_c, 1, 51, 64
5, 54576, Note_on_c, 1, 46, 100
5, 54576, Note_on_c, 1, 39, 100
5, 54576, Note_on_c, 1, 51, 100
5, 54576, Note_on_c, 1, 62, 100
5, 54576, Note_on_c, 1, 55, 100
5, 54581, Control_c, 1, 7, 103
5, 54624, Note_off_c, 1, 55, 64
5, 54624, Note_off_c, 1, 62, 64
5, 54624, Note_off_c, 1, 51, 64
5, 54624, Note_off_c, 1, 39, 64
5, 54624, Note_off_c, 1, 46, 64
5, 54624, Note_on_c, 1, 55, 100
5, 54624, Note_on_c, 1, 62, 100
5, 54624, Note_on_c, 1, 51, 100
5, 54624, Note_on_c, 1, 39, 100
5, 54624, Note_on_c, 1, 46, 100
5, 54672, Note_off_c, 1, 46, 64
5, 54672, Note_off_c, 1, 39, 64
5, 54672, Note_off_c, 1, 51, 64
5, 54672, Note_off_c, 1, 62, 64
5, 54672, Note_off_c, 1, 55, 64
5, 54672, Note_on_c, 1, 46, 100
5, 54672, Note_on_c, 1, 39, 100
5, 54672, Note_on_c, 1, 51, 100
5, 54672, Note_on_c, 1, 62, 100
5, 54672, Note_on_c, 1, 55, 100
5, 54684, Control_c, 1, 7, 103
5, 54720, Note_off_c, 1, 55, 64
5, 54720, Note_off_c, 1, 62, 64
5, 54720, Note_off_c, 1, 51, 64
5, 54720, Note_off_c, 1, 39, 64
5, 54720, Note_off_c, 1, 46, 64
5, 54720, Note_on_c, 1, 55, 100
5, 54720, Note_on_c, 1, 62, 100
5, 54720, Note_on_c, 1, 51, 100
5, 54720, Note_on_c, 1, 39, 100
5, 54720, Note_on_c, 1, 46, 100
5, 54768, Note_off_c, 1, 55, 64
5, 54768, Note_off_c, 1, 46, 64
5, 54768, Note_off_c, 1, 39, 64
5, 54768, Note_off_c, 1, 51, 64
5, 54768, Note_off_c, 1, 62, 64
5, 54768, Note_on_c, 1, 46, 100
5, 54768, Note_on_c, 1, 39, 100
5, 54768, Note_on_c, 1, 51, 100
5, 54768, Note_on_c, 1, 62, 100
5, 54768, Note_on_c, 1, 55, 100
5, 54787, Control_c, 1, 7, 103
5, 54816, Note_off_c, 1, 55, 64
5, 54816, Note_off_c, 1, 62, 64
5, 54816, Note_off_c, 1, 51, 64
5, 54816, Note_off_c, 1, 39, 64
5, 54816, Note_off_c, 1, 46, 64
5, 54816, Note_on_c, 1, 55, 100
5, 54816, Note_on_c, 1, 62, 100
5, 54816, Note_on_c, 1, 51, 100
5, 54816, Note_on_c, 1, 39, 100
5, 54816, Note_on_c, 1, 46, 100
5, 54864, Note_off_c, 1, 46, 64
5, 54864, Note_off_c, 1, 39, 64
5, 54864, Note_off_c, 1, 51, 64
5, 54864, Note_off_c, 1, 62, 64
5, 54864, Note_off_c, 1, 55, 64
5, 54864, Note_on_c, 1, 55, 100
5, 54864, Note_on_c, 1, 62, 100
5, 54864, Note_on_c, 1, 51, 100
5, 54864, Note_on_c, 1, 39, 100
5, 54864, Note_on_c, 1, 46, 100
5, 54890, Control_c, 1, 7, 103
5, 54912, Note_off_c, 1, 55, 64
5, 54912, Note_off_c, 1, 46, 64
5, 54912, Note_off_c, 1, 39, 64
5, 54912, Note_off_c, 1, 51, 64
5, 54912, Note_off_c, 1, 62, 64
5, 54994, Control_c, 1, 7, 103
5, 55096, Control_c, 1, 7, 103
5, 55200, Control_c, 1, 7, 103
5, 55303, Control_c, 1, 7, 103
5, 55406, Control_c, 1, 7, 103
5, 55509, Control_c, 1, 7, 103
5, 55612, Control_c, 1, 7, 103
5, 55680, Note_on_c, 1, 57, 100
5, 55680, Note_on_c, 1, 53, 100
5, 55680, Note_on_c, 1, 41, 100
5, 55680, Note_on_c, 1, 48, 100
5, 55715, Control_c, 1, 7, 103
5, 55818, Control_c, 1, 7, 103
5, 55824, Note_off_c, 1, 48, 64
5, 55824, Note_off_c, 1, 41, 64
5, 55824, Note_off_c, 1, 53, 64
5, 55824, Note_off_c, 1, 57, 64
5, 55824, Note_on_c, 1, 58, 100
5, 55824, Note_on_c, 1, 55, 100
5, 55824, Note_on_c, 1, 43, 100
5, 55824, Note_on_c, 1, 50, 100
5, 55921, Control_c, 1, 7, 103
5, 55968, Note_off_c, 1, 50, 64
5, 55968, Note_off_c, 1, 43, 64
5, 55968, Note_off_c, 1, 55, 64
5, 55968, Note_off_c, 1, 58, 64
5, 55968, Note_on_c, 1, 55, 100
5, 55968, Note_on_c, 1, 51, 100
5, 55968, Note_on_c, 1, 39, 100
5, 55968, Note_on_c, 1, 62, 100
5, 55968, Note_on_c, 1, 46, 100
5, 56025, Control_c, 1, 7, 103
5, 56112, Note_off_c, 1, 46, 64
5, 56112, Note_off_c, 1, 62, 64
5, 56112, Note_off_c, 1, 39, 64
5, 56112, Note_off_c, 1, 51, 64
5, 56112, Note_off_c, 1, 55, 64
5, 56112, Note_on_c, 1, 46, 100
5, 56112, Note_on_c, 1, 39, 100
5, 56112, Note_on_c, 1, 51, 100
5, 56112, Note_on_c, 1, 62, 100
5, 56112, Note_on_c, 1, 55, 100
5, 56127, Control_c, 1, 7, 103
5, 56160, Note_off_c, 1, 55, 64
5, 56160, Note_off_c, 1, 62, 64
5, 56160, Note_off_c, 1, 51, 64
5, 56160, Note_off_c, 1, 39, 64
5, 56160, Note_off_c, 1, 46, 64
5, 56160, Note_on_c, 1, 55, 100
5, 56160, Note_on_c, 1, 62, 100
5, 56160, Note_on_c, 1, 51, 100
5, 56160, Note_on_c, 1, 39, 100
5, 56160, Note_on_c, 1, 46, 100
5, 56208, Note_off_c, 1, 46, 64
5, 56208, Note_off_c, 1, 39, 64
5, 56208, Note_off_c, 1, 51, 64
5, 56208, Note_off_c, 1, 62, 64
5, 56208, Note_off_c, 1, 55, 64
5, 56208, Note_on_c, 1, 46, 100
5, 56208, Note_on_c, 1, 39, 100
5, 56208, Note_on_c, 1, 51, 100
5, 56208, Note_on_c, 1, 62, 100
5, 56208, Note_on_c, 1, 55, 100
5, 56231, Control_c, 1, 7, 103
5, 56256, Note_off_c, 1, 55, 64
5, 56256, Note_off_c, 1, 62, 64
5, 56256, Note_off_c, 1, 51, 64
5, 56256, Note_off_c, 1, 39, 64
5, 56256, Note_off_c, 1, 46, 64
5, 56256, Note_on_c, 1, 55, 100
5, 56256, Note_on_c, 1, 62, 100
5, 56256, Note_on_c, 1, 51, 100
5, 56256, Note_on_c, 1, 39, 100
5, 56256, Note_on_c, 1, 46, 100
5, 56304, Note_off_c, 1, 46, 64
5, 56304, Note_off_c, 1, 39, 64
5, 56304, Note_off_c, 1, 51, 64
5, 56304, Note_off_c, 1, 62, 64
5, 56304, Note_off_c, 1, 55, 64
5, 56304, Note_on_c, 1, 46, 100
5, 56304, Note_on_c, 1, 39, 100
5, 56304, Note_on_c, 1, 51, 100
5, 56304, Note_on_c, 1, 62, 100
5, 56304, Note_on_c, 1, 55, 100
5, 56333, Control_c, 1, 7, 103
5, 56352, Note_off_c, 1, 55, 64
5, 56352, Note_off_c, 1, 62, 64
5, 56352, Note_off_c, 1, 51, 64
5, 56352, Note_off_c, 1, 39, 64
5, 56352, Note_off_c, 1, 46, 64
5, 56352, Note_on_c, 1, 55, 100
5, 56352, Note_on_c, 1, 62, 100
5, 56352, Note_on_c, 1, 51, 100
5, 56352, Note_on_c, 1, 39, 100
5, 56352, Note_on_c, 1, 46, 100
5, 56400, Note_off_c, 1, 46, 64
5, 56400, Note_off_c, 1, 39, 64
5, 56400, Note_off_c, 1, 51, 64
5, 56400, Note_off_c, 1, 62, 64
5, 56400, Note_off_c, 1, 55, 64
5, 56400, Note_on_c, 1, 55, 100
5, 56400, Note_on_c, 1, 62, 100
5, 56400, Note_on_c, 1, 51, 100
5, 56400, Note_on_c, 1, 39, 100
5, 56400, Note_on_c, 1, 46, 100
5, 56437, Control_c, 1, 7, 103
5, 56448, Note_off_c, 1, 46, 64
5, 56448, Note_off_c, 1, 39, 64
5, 56448, Note_off_c, 1, 51, 64
5, 56448, Note_off_c, 1, 62, 64
5, 56448, Note_off_c, 1, 55, 64
5, 56448, Note_on_c, 1, 46, 100
5, 56448, Note_on_c, 1, 62, 100
5, 56448, Note_on_c, 1, 39, 100
5, 56448, Note_on_c, 1, 51, 100
5, 56448, Note_on_c, 1, 55, 100
5, 56540, Control_c, 1, 7, 103
5, 56592, Note_off_c, 1, 55, 64
5, 56592, Note_off_c, 1, 51, 64
5, 56592, Note_off_c, 1, 39, 64
5, 56592, Note_off_c, 1, 62, 64
5, 56592, Note_off_c, 1, 46, 64
5, 56592, Note_on_c, 1, 46, 100
5, 56592, Note_on_c, 1, 62, 100
5, 56592, Note_on_c, 1, 39, 100
5, 56592, Note_on_c, 1, 51, 100
5, 56592, Note_on_c, 1, 55, 100
5, 56643, Control_c, 1, 7, 103
5, 56736, Note_off_c, 1, 55, 64
5, 56736, Note_off_c, 1, 51, 64
5, 56736, Note_off_c, 1, 39, 64
5, 56736, Note_off_c, 1, 62, 64
5, 56736, Note_off_c, 1, 46, 64
5, 56736, Note_on_c, 1, 55, 100
5, 56736, Note_on_c, 1, 51, 100
5, 56736, Note_on_c, 1, 39, 100
5, 56736, Note_on_c, 1, 62, 100
5, 56736, Note_on_c, 1, 46, 100
5, 56746, Control_c, 1, 7, 103
5, 56849, Control_c, 1, 7, 103
5, 56880, Note_off_c, 1, 46, 64
5, 56880, Note_off_c, 1, 62, 64
5, 56880, Note_off_c, 1, 39, 64
5, 56880, Note_off_c, 1, 51, 64
5, 56880, Note_off_c, 1, 55, 64
5, 56880, Note_on_c, 1, 55, 100
5, 56880, Note_on_c, 1, 62, 100
5, 56880, Note_on_c, 1, 51, 100
5, 56880, Note_on_c, 1, 39, 100
5, 56880, Note_on_c, 1, 46, 100
5, 56928, Note_off_c, 1, 46, 64
5, 56928, Note_off_c, 1, 39, 64
5, 56928, Note_off_c, 1, 51, 64
5, 56928, Note_off_c, 1, 62, 64
5, 56928, Note_off_c, 1, 55, 64
5, 56928, Note_on_c, 1, 55, 100
5, 56928, Note_on_c, 1, 62, 100
5, 56928, Note_on_c, 1, 51, 100
5, 56928, Note_on_c, 1, 39, 100
5, 56928, Note_on_c, 1, 46, 100
5, 56952, Control_c, 1, 7, 103
5, 56976, Note_off_c, 1, 46, 64
5, 56976, Note_off_c, 1, 39, 64
5, 56976, Note_off_c, 1, 51, 64
5, 56976, Note_off_c, 1, 62, 64
5, 56976, Note_off_c, 1, 55, 64
5, 56976, Note_on_c, 1, 55, 100
5, 56976, Note_on_c, 1, 62, 100
5, 56976, Note_on_c, 1, 51, 100
5, 56976, Note_on_c, 1, 39, 100
5, 56976, Note_on_c, 1, 46, 100
5, 57024, Note_off_c, 1, 46, 64
5, 57024, Note_off_c, 1, 39, 64
5, 57024, Note_off_c, 1, 51, 64
5, 57024, Note_off_c, 1, 62, 64
5, 57024, Note_off_c, 1, 55, 64
5, 57024, Note_on_c, 1, 55, 100
5, 57024, Note_on_c, 1, 62, 100
5, 57024, Note_on_c, 1, 51, 100
5, 57024, Note_on_c, 1, 39, 100
5, 57024, Note_on_c, 1, 46, 100
5, 57056, Control_c, 1, 7, 103
5, 57072, Note_off_c, 1, 46, 64
5, 57072, Note_off_c, 1, 39, 64
5, 57072, Note_off_c, 1, 51, 64
5, 57072, Note_off_c, 1, 55, 64
5, 57072, Note_off_c, 1, 62, 64
5, 57072, Note_on_c, 1, 55, 100
5, 57072, Note_on_c, 1, 62, 100
5, 57072, Note_on_c, 1, 51, 100
5, 57072, Note_on_c, 1, 39, 100
5, 57072, Note_on_c, 1, 46, 100
5, 57120, Note_off_c, 1, 46, 64
5, 57120, Note_off_c, 1, 39, 64
5, 57120, Note_off_c, 1, 51, 64
5, 57120, Note_off_c, 1, 62, 64
5, 57120, Note_off_c, 1, 55, 64
5, 57120, Note_on_c, 1, 55, 100
5, 57120, Note_on_c, 1, 62, 100
5, 57120, Note_on_c, 1, 51, 100
5, 57120, Note_on_c, 1, 39, 100
5, 57120, Note_on_c, 1, 46, 100
5, 57158, Control_c, 1, 7, 103
5, 57168, Note_off_c, 1, 46, 64
5, 57168, Note_off_c, 1, 39, 64
5, 57168, Note_off_c, 1, 51, 64
5, 57168, Note_off_c, 1, 62, 64
5, 57168, Note_off_c, 1, 55, 64
5, 57168, Note_on_c, 1, 55, 100
5, 57168, Note_on_c, 1, 62, 100
5, 57168, Note_on_c, 1, 51, 100
5, 57168, Note_on_c, 1, 39, 100
5, 57168, Note_on_c, 1, 46, 100
5, 57216, Note_off_c, 1, 46, 64
5, 57216, Note_off_c, 1, 39, 64
5, 57216, Note_off_c, 1, 51, 64
5, 57216, Note_off_c, 1, 62, 64
5, 57216, Note_off_c, 1, 55, 64
5, 57216, Note_on_c, 1, 57, 100
5, 57216, Note_on_c, 1, 53, 100
5, 57216, Note_on_c, 1, 41, 100
5, 57216, Note_on_c, 1, 48, 100
5, 57262, Control_c, 1, 7, 103
5, 57360, Note_off_c, 1, 48, 64
5, 57360, Note_off_c, 1, 41, 64
5, 57360, Note_off_c, 1, 53, 64
5, 57360, Note_off_c, 1, 57, 64
5, 57360, Note_on_c, 1, 58, 100
5, 57360, Note_on_c, 1, 55, 100
5, 57360, Note_on_c, 1, 43, 100
5, 57360, Note_on_c, 1, 50, 100
5, 57364, Control_c, 1, 7, 103
5, 57468, Control_c, 1, 7, 103
5, 57504, Note_off_c, 1, 50, 64
5, 57504, Note_off_c, 1, 43, 64
5, 57504, Note_off_c, 1, 55, 64
5, 57504, Note_off_c, 1, 58, 64
5, 57504, Note_on_c, 1, 55, 100
5, 57504, Note_on_c, 1, 51, 100
5, 57504, Note_on_c, 1, 39, 100
5, 57504, Note_on_c, 1, 62, 100
5, 57504, Note_on_c, 1, 46, 100
5, 57571, Control_c, 1, 7, 103
5, 57648, Note_off_c, 1, 46, 64
5, 57648, Note_off_c, 1, 62, 64
5, 57648, Note_off_c, 1, 39, 64
5, 57648, Note_off_c, 1, 51, 64
5, 57648, Note_off_c, 1, 55, 64
5, 57648, Note_on_c, 1, 46, 100
5, 57648, Note_on_c, 1, 39, 100
5, 57648, Note_on_c, 1, 51, 100
5, 57648, Note_on_c, 1, 62, 100
5, 57648, Note_on_c, 1, 55, 100
5, 57674, Control_c, 1, 7, 103
5, 57696, Note_off_c, 1, 55, 64
5, 57696, Note_off_c, 1, 62, 64
5, 57696, Note_off_c, 1, 51, 64
5, 57696, Note_off_c, 1, 39, 64
5, 57696, Note_off_c, 1, 46, 64
5, 57696, Note_on_c, 1, 55, 100
5, 57696, Note_on_c, 1, 62, 100
5, 57696, Note_on_c, 1, 51, 100
5, 57696, Note_on_c, 1, 39, 100
5, 57696, Note_on_c, 1, 46, 100
5, 57744, Note_off_c, 1, 46, 64
5, 57744, Note_off_c, 1, 39, 64
5, 57744, Note_off_c, 1, 51, 64
5, 57744, Note_off_c, 1, 62, 64
5, 57744, Note_off_c, 1, 55, 64
5, 57744, Note_on_c, 1, 46, 100
5, 57744, Note_on_c, 1, 39, 100
5, 57744, Note_on_c, 1, 51, 100
5, 57744, Note_on_c, 1, 62, 100
5, 57744, Note_on_c, 1, 55, 100
5, 57777, Control_c, 1, 7, 103
5, 57792, Note_off_c, 1, 55, 64
5, 57792, Note_off_c, 1, 62, 64
5, 57792, Note_off_c, 1, 51, 64
5, 57792, Note_off_c, 1, 39, 64
5, 57792, Note_off_c, 1, 46, 64
5, 57792, Note_on_c, 1, 55, 100
5, 57792, Note_on_c, 1, 62, 100
5, 57792, Note_on_c, 1, 51, 100
5, 57792, Note_on_c, 1, 39, 100
5, 57792, Note_on_c, 1, 46, 100
5, 57840, Note_off_c, 1, 46, 64
5, 57840, Note_off_c, 1, 39, 64
5, 57840, Note_off_c, 1, 51, 64
5, 57840, Note_off_c, 1, 62, 64
5, 57840, Note_off_c, 1, 55, 64
5, 57840, Note_on_c, 1, 46, 100
5, 57840, Note_on_c, 1, 39, 100
5, 57840, Note_on_c, 1, 51, 100
5, 57840, Note_on_c, 1, 62, 100
5, 57840, Note_on_c, 1, 55, 100
5, 57880, Control_c, 1, 7, 103
5, 57888, Note_off_c, 1, 55, 64
5, 57888, Note_off_c, 1, 62, 64
5, 57888, Note_off_c, 1, 51, 64
5, 57888, Note_off_c, 1, 39, 64
5, 57888, Note_off_c, 1, 46, 64
5, 57888, Note_on_c, 1, 55, 100
5, 57888, Note_on_c, 1, 62, 100
5, 57888, Note_on_c, 1, 51, 100
5, 57888, Note_on_c, 1, 39, 100
5, 57888, Note_on_c, 1, 46, 100
5, 57936, Note_off_c, 1, 46, 64
5, 57936, Note_off_c, 1, 39, 64
5, 57936, Note_off_c, 1, 51, 64
5, 57936, Note_off_c, 1, 62, 64
5, 57936, Note_off_c, 1, 55, 64
5, 57936, Note_on_c, 1, 55, 100
5, 57936, Note_on_c, 1, 62, 100
5, 57936, Note_on_c, 1, 51, 100
5, 57936, Note_on_c, 1, 39, 100
5, 57936, Note_on_c, 1, 46, 100
5, 57983, Control_c, 1, 7, 103
5, 57984, Note_off_c, 1, 46, 64
5, 57984, Note_off_c, 1, 39, 64
5, 57984, Note_off_c, 1, 51, 64
5, 57984, Note_off_c, 1, 62, 64
5, 57984, Note_off_c, 1, 55, 64
5, 57984, Note_on_c, 1, 46, 100
5, 57984, Note_on_c, 1, 62, 100
5, 57984, Note_on_c, 1, 39, 100
5, 57984, Note_on_c, 1, 51, 100
5, 57984, Note_on_c, 1, 55, 100
5, 58086, Control_c, 1, 7, 103
5, 58128, Note_off_c, 1, 55, 64
5, 58128, Note_off_c, 1, 51, 64
5, 58128, Note_off_c, 1, 39, 64
5, 58128, Note_off_c, 1, 62, 64
5, 58128, Note_off_c, 1, 46, 64
5, 58128, Note_on_c, 1, 46, 100
5, 58128, Note_on_c, 1, 62, 100
5, 58128, Note_on_c, 1, 39, 100
5, 58128, Note_on_c, 1, 51, 100
5, 58128, Note_on_c, 1, 55, 100
5, 58189, Control_c, 1, 7, 103
5, 58272, Note_off_c, 1, 55, 64
5, 58272, Note_off_c, 1, 51, 64
5, 58272, Note_off_c, 1, 39, 64
5, 58272, Note_off_c, 1, 62, 64
5, 58272, Note_off_c, 1, 46, 64
5, 58272, Note_on_c, 1, 55, 100
5, 58272, Note_on_c, 1, 51, 100
5, 58272, Note_on_c, 1, 39, 100
5, 58272, Note_on_c, 1, 62, 100
5, 58272, Note_on_c, 1, 46, 100
5, 58293, Control_c, 1, 7, 103
5, 58395, Control_c, 1, 7, 103
5, 58416, Note_off_c, 1, 46, 64
5, 58416, Note_off_c, 1, 62, 64
5, 58416, Note_off_c, 1, 39, 64
5, 58416, Note_off_c, 1, 51, 64
5, 58416, Note_off_c, 1, 55, 64
5, 58416, Note_on_c, 1, 55, 100
5, 58416, Note_on_c, 1, 62, 100
5, 58416, Note_on_c, 1, 51, 100
5, 58416, Note_on_c, 1, 39, 100
5, 58416, Note_on_c, 1, 46, 100
5, 58464, Note_off_c, 1, 46, 64
5, 58464, Note_off_c, 1, 39, 64
5, 58464, Note_off_c, 1, 51, 64
5, 58464, Note_off_c, 1, 62, 64
5, 58464, Note_off_c, 1, 55, 64
5, 58464, Note_on_c, 1, 55, 100
5, 58464, Note_on_c, 1, 62, 100
5, 58464, Note_on_c, 1, 51, 100
5, 58464, Note_on_c, 1, 39, 100
5, 58464, Note_on_c, 1, 46, 100
5, 58499, Control_c, 1, 7, 103
5, 58512, Note_off_c, 1, 46, 64
5, 58512, Note_off_c, 1, 39, 64
5, 58512, Note_off_c, 1, 51, 64
5, 58512, Note_off_c, 1, 62, 64
5, 58512, Note_off_c, 1, 55, 64
5, 58512, Note_on_c, 1, 55, 100
5, 58512, Note_on_c, 1, 62, 100
5, 58512, Note_on_c, 1, 51, 100
5, 58512, Note_on_c, 1, 39, 100
5, 58512, Note_on_c, 1, 46, 100
5, 58560, Note_off_c, 1, 46, 64
5, 58560, Note_off_c, 1, 39, 64
5, 58560, Note_off_c, 1, 51, 64
5, 58560, Note_off_c, 1, 62, 64
5, 58560, Note_off_c, 1, 55, 64
5, 58560, Note_on_c, 1, 55, 100
5, 58560, Note_on_c, 1, 62, 100
5, 58560, Note_on_c, 1, 51, 100
5, 58560, Note_on_c, 1, 39, 100
5, 58560, Note_on_c, 1, 46, 100
5, 58601, Control_c, 1, 7, 103
5, 58608, Note_off_c, 1, 46, 64
5, 58608, Note_off_c, 1, 39, 64
5, 58608, Note_off_c, 1, 55, 64
5, 58608, Note_off_c, 1, 62, 64
5, 58608, Note_off_c, 1, 51, 64
5, 58608, Note_on_c, 1, 55, 100
5, 58608, Note_on_c, 1, 62, 100
5, 58608, Note_on_c, 1, 51, 100
5, 58608, Note_on_c, 1, 39, 100
5, 58608, Note_on_c, 1, 46, 100
5, 58656, Note_off_c, 1, 46, 64
5, 58656, Note_off_c, 1, 39, 64
5, 58656, Note_off_c, 1, 51, 64
5, 58656, Note_off_c, 1, 62, 64
5, 58656, Note_off_c, 1, 55, 64
5, 58656, Note_on_c, 1, 55, 100
5, 58656, Note_on_c, 1, 62, 100
5, 58656, Note_on_c, 1, 51, 100
5, 58656, Note_on_c, 1, 39, 100
5, 58656, Note_on_c, 1, 46, 100
5, 58704, Note_off_c, 1, 46, 64
5, 58704, Note_off_c, 1, 39, 64
5, 58704, Note_off_c, 1, 51, 64
5, 58704, Note_off_c, 1, 62, 64
5, 58704, Note_off_c, 1, 55, 64
5, 58704, Note_on_c, 1, 55, 100
5, 58704, Note_on_c, 1, 62, 100
5, 58704, Note_on_c, 1, 51, 100
5, 58704, Note_on_c, 1, 39, 100
5, 58704, Note_on_c, 1, 46, 100
5, 58705, Control_c, 1, 7, 103
5, 58752, Note_off_c, 1, 46, 64
5, 58752, Note_off_c, 1, 39, 64
5, 58752, Note_off_c, 1, 51, 64
5, 58752, Note_off_c, 1, 62, 64
5, 58752, Note_off_c, 1, 55, 64
5, 58752, Note_on_c, 1, 57, 100
5, 58752, Note_on_c, 1, 53, 100
5, 58752, Note_on_c, 1, 41, 100
5, 58752, Note_on_c, 1, 48, 100
5, 58808, Control_c, 1, 7, 103
5, 58896, Note_off_c, 1, 48, 64
5, 58896, Note_off_c, 1, 41, 64
5, 58896, Note_off_c, 1, 53, 64
5, 58896, Note_off_c, 1, 57, 64
5, 58896, Note_on_c, 1, 58, 100
5, 58896, Note_on_c, 1, 55, 100
5, 58896, Note_on_c, 1, 43, 100
5, 58896, Note_on_c, 1, 50, 100
5, 58911, Control_c, 1, 7, 103
5, 59014, Control_c, 1, 7, 103
5, 59040, Note_off_c, 1, 50, 64
5, 59040, Note_off_c, 1, 43, 64
5, 59040, Note_off_c, 1, 55, 64
5, 59040, Note_off_c, 1, 58, 64
5, 59040, Note_on_c, 1, 55, 100
5, 59040, Note_on_c, 1, 51, 100
5, 59040, Note_on_c, 1, 39, 100
5, 59040, Note_on_c, 1, 62, 100
5, 59040, Note_on_c, 1, 46, 100
5, 59117, Control_c, 1, 7, 103
5, 59184, Note_off_c, 1, 46, 64
5, 59184, Note_off_c, 1, 62, 64
5, 59184, Note_off_c, 1, 39, 64
5, 59184, Note_off_c, 1, 51, 64
5, 59184, Note_off_c, 1, 55, 64
5, 59184, Note_on_c, 1, 46, 100
5, 59184, Note_on_c, 1, 39, 100
5, 59184, Note_on_c, 1, 51, 100
5, 59184, Note_on_c, 1, 62, 100
5, 59184, Note_on_c, 1, 55, 100
5, 59220, Control_c, 1, 7, 103
5, 59232, Note_off_c, 1, 55, 64
5, 59232, Note_off_c, 1, 62, 64
5, 59232, Note_off_c, 1, 51, 64
5, 59232, Note_off_c, 1, 39, 64
5, 59232, Note_off_c, 1, 46, 64
5, 59232, Note_on_c, 1, 55, 100
5, 59232, Note_on_c, 1, 62, 100
5, 59232, Note_on_c, 1, 51, 100
5, 59232, Note_on_c, 1, 39, 100
5, 59232, Note_on_c, 1, 46, 100
5, 59280, Note_off_c, 1, 46, 64
5, 59280, Note_off_c, 1, 39, 64
5, 59280, Note_off_c, 1, 51, 64
5, 59280, Note_off_c, 1, 62, 64
5, 59280, Note_off_c, 1, 55, 64
5, 59280, Note_on_c, 1, 46, 100
5, 59280, Note_on_c, 1, 39, 100
5, 59280, Note_on_c, 1, 51, 100
5, 59280, Note_on_c, 1, 62, 100
5, 59280, Note_on_c, 1, 55, 100
5, 59324, Control_c, 1, 7, 103
5, 59328, Note_off_c, 1, 55, 64
5, 59328, Note_off_c, 1, 62, 64
5, 59328, Note_off_c, 1, 51, 64
5, 59328, Note_off_c, 1, 39, 64
5, 59328, Note_off_c, 1, 46, 64
5, 59328, Note_on_c, 1, 55, 100
5, 59328, Note_on_c, 1, 62, 100
5, 59328, Note_on_c, 1, 51, 100
5, 59328, Note_on_c, 1, 39, 100
5, 59328, Note_on_c, 1, 46, 100
5, 59376, Note_off_c, 1, 46, 64
5, 59376, Note_off_c, 1, 39, 64
5, 59376, Note_off_c, 1, 51, 64
5, 59376, Note_off_c, 1, 62, 64
5, 59376, Note_off_c, 1, 55, 64
5, 59376, Note_on_c, 1, 46, 100
5, 59376, Note_on_c, 1, 39, 100
5, 59376, Note_on_c, 1, 51, 100
5, 59376, Note_on_c, 1, 62, 100
5, 59376, Note_on_c, 1, 55, 100
5, 59424, Note_off_c, 1, 55, 64
5, 59424, Note_off_c, 1, 62, 64
5, 59424, Note_off_c, 1, 51, 64
5, 59424, Note_off_c, 1, 39, 64
5, 59424, Note_off_c, 1, 46, 64
5, 59424, Note_on_c, 1, 55, 100
5, 59424, Note_on_c, 1, 62, 100
5, 59424, Note_on_c, 1, 51, 100
5, 59424, Note_on_c, 1, 39, 100
5, 59424, Note_on_c, 1, 46, 100
5, 59426, Control_c, 1, 7, 103
5, 59472, Note_off_c, 1, 46, 64
5, 59472, Note_off_c, 1, 39, 64
5, 59472, Note_off_c, 1, 51, 64
5, 59472, Note_off_c, 1, 62, 64
5, 59472, Note_off_c, 1, 55, 64
5, 59472, Note_on_c, 1, 55, 100
5, 59472, Note_on_c, 1, 62, 100
5, 59472, Note_on_c, 1, 51, 100
5, 59472, Note_on_c, 1, 39, 100
5, 59472, Note_on_c, 1, 46, 100
5, 59520, Note_off_c, 1, 46, 64
5, 59520, Note_off_c, 1, 39, 64
5, 59520, Note_off_c, 1, 51, 64
5, 59520, Note_off_c, 1, 62, 64
5, 59520, Note_off_c, 1, 55, 64
5, 59520, Note_on_c, 1, 46, 100
5, 59520, Note_on_c, 1, 62, 100
5, 59520, Note_on_c, 1, 39, 100
5, 59520, Note_on_c, 1, 51, 100
5, 59520, Note_on_c, 1, 55, 100
5, 59530, Control_c, 1, 7, 103
5, 59632, Control_c, 1, 7, 103
5, 59664, Note_off_c, 1, 55, 64
5, 59664, Note_off_c, 1, 51, 64
5, 59664, Note_off_c, 1, 39, 64
5, 59664, Note_off_c, 1, 62, 64
5, 59664, Note_off_c, 1, 46, 64
5, 59664, Note_on_c, 1, 46, 100
5, 59664, Note_on_c, 1, 62, 100
5, 59664, Note_on_c, 1, 39, 100
5, 59664, Note_on_c, 1, 51, 100
5, 59664, Note_on_c, 1, 55, 100
5, 59736, Control_c, 1, 7, 103
5, 59808, Note_off_c, 1, 55, 64
5, 59808, Note_off_c, 1, 51, 64
5, 59808, Note_off_c, 1, 39, 64
5, 59808, Note_off_c, 1, 62, 64
5, 59808, Note_off_c, 1, 46, 64
5, 59808, Note_on_c, 1, 55, 100
5, 59808, Note_on_c, 1, 51, 100
5, 59808, Note_on_c, 1, 39, 100
5, 59808, Note_on_c, 1, 62, 100
5, 59808, Note_on_c, 1, 46, 100
5, 59839, Control_c, 1, 7, 103
5, 59942, Control_c, 1, 7, 103
5, 59952, Note_off_c, 1, 46, 64
5, 59952, Note_off_c, 1, 62, 64
5, 59952, Note_off_c, 1, 39, 64
5, 59952, Note_off_c, 1, 51, 64
5, 59952, Note_off_c, 1, 55, 64
5, 59952, Note_on_c, 1, 55, 100
5, 59952, Note_on_c, 1, 62, 100
5, 59952, Note_on_c, 1, 51, 100
5, 59952, Note_on_c, 1, 39, 100
5, 59952, Note_on_c, 1, 46, 100
5, 60000, Note_off_c, 1, 46, 64
5, 60000, Note_off_c, 1, 39, 64
5, 60000, Note_off_c, 1, 51, 64
5, 60000, Note_off_c, 1, 62, 64
5, 60000, Note_off_c, 1, 55, 64
5, 60000, Note_on_c, 1, 55, 100
5, 60000, Note_on_c, 1, 62, 100
5, 60000, Note_on_c, 1, 51, 100
5, 60000, Note_on_c, 1, 39, 100
5, 60000, Note_on_c, 1, 46, 100
5, 60045, Control_c, 1, 7, 103
5, 60048, Note_off_c, 1, 46, 64
5, 60048, Note_off_c, 1, 39, 64
5, 60048, Note_off_c, 1, 51, 64
5, 60048, Note_off_c, 1, 62, 64
5, 60048, Note_off_c, 1, 55, 64
5, 60048, Note_on_c, 1, 55, 100
5, 60048, Note_on_c, 1, 62, 100
5, 60048, Note_on_c, 1, 51, 100
5, 60048, Note_on_c, 1, 39, 100
5, 60048, Note_on_c, 1, 46, 100
5, 60096, Note_off_c, 1, 46, 64
5, 60096, Note_off_c, 1, 39, 64
5, 60096, Note_off_c, 1, 51, 64
5, 60096, Note_off_c, 1, 62, 64
5, 60096, Note_off_c, 1, 55, 64
5, 60096, Note_on_c, 1, 55, 100
5, 60096, Note_on_c, 1, 62, 100
5, 60096, Note_on_c, 1, 51, 100
5, 60096, Note_on_c, 1, 39, 100
5, 60096, Note_on_c, 1, 46, 100
5, 60144, Note_off_c, 1, 46, 64
5, 60144, Note_off_c, 1, 39, 64
5, 60144, Note_off_c, 1, 51, 64
5, 60144, Note_off_c, 1, 55, 64
5, 60144, Note_off_c, 1, 62, 64
5, 60144, Note_on_c, 1, 55, 100
5, 60144, Note_on_c, 1, 62, 100
5, 60144, Note_on_c, 1, 51, 100
5, 60144, Note_on_c, 1, 39, 100
5, 60144, Note_on_c, 1, 46, 100
5, 60148, Control_c, 1, 7, 103
5, 60192, Note_off_c, 1, 46, 64
5, 60192, Note_off_c, 1, 39, 64
5, 60192, Note_off_c, 1, 51, 64
5, 60192, Note_off_c, 1, 62, 64
5, 60192, Note_off_c, 1, 55, 64
5, 60192, Note_on_c, 1, 55, 100
5, 60192, Note_on_c, 1, 62, 100
5, 60192, Note_on_c, 1, 51, 100
5, 60192, Note_on_c, 1, 39, 100
5, 60192, Note_on_c, 1, 46, 100
5, 60240, Note_off_c, 1, 46, 64
5, 60240, Note_off_c, 1, 39, 64
5, 60240, Note_off_c, 1, 51, 64
5, 60240, Note_off_c, 1, 62, 64
5, 60240, Note_off_c, 1, 55, 64
5, 60240, Note_on_c, 1, 55, 100
5, 60240, Note_on_c, 1, 62, 100
5, 60240, Note_on_c, 1, 51, 100
5, 60240, Note_on_c, 1, 39, 100
5, 60240, Note_on_c, 1, 46, 100
5, 60251, Control_c, 1, 7, 103
5, 60288, Note_off_c, 1, 46, 64
5, 60288, Note_off_c, 1, 39, 64
5, 60288, Note_off_c, 1, 51, 64
5, 60288, Note_off_c, 1, 62, 64
5, 60288, Note_off_c, 1, 55, 64
5, 60288, Note_on_c, 1, 57, 100
5, 60288, Note_on_c, 1, 53, 100
5, 60288, Note_on_c, 1, 41, 100
5, 60288, Note_on_c, 1, 48, 100
5, 60354, Control_c, 1, 7, 103
5, 60432, Note_off_c, 1, 48, 64
5, 60432, Note_off_c, 1, 41, 64
5, 60432, Note_off_c, 1, 53, 64
5, 60432, Note_off_c, 1, 57, 64
5, 60432, Note_on_c, 1, 58, 100
5, 60432, Note_on_c, 1, 55, 100
5, 60432, Note_on_c, 1, 43, 100
5, 60432, Note_on_c, 1, 50, 100
5, 60457, Control_c, 1, 7, 103
5, 60561, Control_c, 1, 7, 103
5, 60576, Note_off_c, 1, 50, 64
5, 60576, Note_off_c, 1, 43, 64
5, 60576, Note_off_c, 1, 55, 64
5, 60576, Note_off_c, 1, 58, 64
5, 60576, Note_on_c, 1, 55, 100
5, 60576, Note_on_c, 1, 51, 100
5, 60576, Note_on_c, 1, 39, 100
5, 60576, Note_on_c, 1, 62, 100
5, 60576, Note_on_c, 1, 46, 100
5, 60663, Control_c, 1, 7, 103
5, 60720, Note_off_c, 1, 46, 64
5, 60720, Note_off_c, 1, 62, 64
5, 60720, Note_off_c, 1, 39, 64
5, 60720, Note_off_c, 1, 51, 64
5, 60720, Note_off_c, 1, 55, 64
5, 60720, Note_on_c, 1, 46, 100
5, 60720, Note_on_c, 1, 39, 100
5, 60720, Note_on_c, 1, 51, 100
5, 60720, Note_on_c, 1, 62, 100
5, 60720, Note_on_c, 1, 55, 100
5, 60767, Control_c, 1, 7, 103
5, 60768, Note_off_c, 1, 55, 64
5, 60768, Note_off_c, 1, 62, 64
5, 60768, Note_off_c, 1, 51, 64
5, 60768, Note_off_c, 1, 39, 64
5, 60768, Note_off_c, 1, 46, 64
5, 60768, Note_on_c, 1, 55, 100
5, 60768, Note_on_c, 1, 62, 100
5, 60768, Note_on_c, 1, 51, 100
5, 60768, Note_on_c, 1, 39, 100
5, 60768, Note_on_c, 1, 46, 100
5, 60816, Note_off_c, 1, 46, 64
5, 60816, Note_off_c, 1, 39, 64
5, 60816, Note_off_c, 1, 51, 64
5, 60816, Note_off_c, 1, 62, 64
5, 60816, Note_off_c, 1, 55, 64
5, 60816, Note_on_c, 1, 46, 100
5, 60816, Note_on_c, 1, 39, 100
5, 60816, Note_on_c, 1, 51, 100
5, 60816, Note_on_c, 1, 62, 100
5, 60816, Note_on_c, 1, 55, 100
5, 60864, Note_off_c, 1, 55, 64
5, 60864, Note_off_c, 1, 62, 64
5, 60864, Note_off_c, 1, 51, 64
5, 60864, Note_off_c, 1, 39, 64
5, 60864, Note_off_c, 1, 46, 64
5, 60864, Note_on_c, 1, 55, 100
5, 60864, Note_on_c, 1, 62, 100
5, 60864, Note_on_c, 1, 51, 100
5, 60864, Note_on_c, 1, 39, 100
5, 60864, Note_on_c, 1, 46, 100
5, 60870, Control_c, 1, 7, 103
5, 60912, Note_off_c, 1, 46, 64
5, 60912, Note_off_c, 1, 39, 64
5, 60912, Note_off_c, 1, 51, 64
5, 60912, Note_off_c, 1, 62, 64
5, 60912, Note_off_c, 1, 55, 64
5, 60912, Note_on_c, 1, 46, 100
5, 60912, Note_on_c, 1, 39, 100
5, 60912, Note_on_c, 1, 51, 100
5, 60912, Note_on_c, 1, 62, 100
5, 60912, Note_on_c, 1, 55, 100
5, 60960, Note_off_c, 1, 55, 64
5, 60960, Note_off_c, 1, 62, 64
5, 60960, Note_off_c, 1, 51, 64
5, 60960, Note_off_c, 1, 39, 64
5, 60960, Note_off_c, 1, 46, 64
5, 60960, Note_on_c, 1, 55, 100
5, 60960, Note_on_c, 1, 62, 100
5, 60960, Note_on_c, 1, 51, 100
5, 60960, Note_on_c, 1, 39, 100
5, 60960, Note_on_c, 1, 46, 100
5, 60973, Control_c, 1, 7, 103
5, 61008, Note_off_c, 1, 46, 64
5, 61008, Note_off_c, 1, 39, 64
5, 61008, Note_off_c, 1, 51, 64
5, 61008, Note_off_c, 1, 62, 64
5, 61008, Note_off_c, 1, 55, 64
5, 61008, Note_on_c, 1, 55, 100
5, 61008, Note_on_c, 1, 62, 100
5, 61008, Note_on_c, 1, 51, 100
5, 61008, Note_on_c, 1, 39, 100
5, 61008, Note_on_c, 1, 46, 100
5, 61056, Note_off_c, 1, 46, 64
5, 61056, Note_off_c, 1, 39, 64
5, 61056, Note_off_c, 1, 51, 64
5, 61056, Note_off_c, 1, 62, 64
5, 61056, Note_off_c, 1, 55, 64
5, 61056, Note_on_c, 1, 46, 100
5, 61056, Note_on_c, 1, 62, 100
5, 61056, Note_on_c, 1, 39, 100
5, 61056, Note_on_c, 1, 51, 100
5, 61056, Note_on_c, 1, 55, 100
5, 61076, Control_c, 1, 7, 103
5, 61179, Control_c, 1, 7, 103
5, 61200, Note_off_c, 1, 55, 64
5, 61200, Note_off_c, 1, 51, 64
5, 61200, Note_off_c, 1, 39, 64
5, 61200, Note_off_c, 1, 62, 64
5, 61200, Note_off_c, 1, 46, 64
5, 61200, Note_on_c, 1, 46, 100
5, 61200, Note_on_c, 1, 62, 100
5, 61200, Note_on_c, 1, 39, 100
5, 61200, Note_on_c, 1, 51, 100
5, 61200, Note_on_c, 1, 55, 100
5, 61282, Control_c, 1, 7, 103
5, 61344, Note_off_c, 1, 55, 64
5, 61344, Note_off_c, 1, 51, 64
5, 61344, Note_off_c, 1, 39, 64
5, 61344, Note_off_c, 1, 62, 64
5, 61344, Note_off_c, 1, 46, 64
5, 61344, Note_on_c, 1, 55, 100
5, 61344, Note_on_c, 1, 51, 100
5, 61344, Note_on_c, 1, 39, 100
5, 61344, Note_on_c, 1, 62, 100
5, 61344, Note_on_c, 1, 46, 100
5, 61385, Control_c, 1, 7, 103
5, 61488, Note_off_c, 1, 46, 64
5, 61488, Note_off_c, 1, 62, 64
5, 61488, Note_off_c, 1, 39, 64
5, 61488, Note_off_c, 1, 51, 64
5, 61488, Note_off_c, 1, 55, 64
5, 61488, Note_on_c, 1, 55, 100
5, 61488, Note_on_c, 1, 62, 100
5, 61488, Note_on_c, 1, 51, 100
5, 61488, Note_on_c, 1, 39, 100
5, 61488, Note_on_c, 1, 46, 100
5, 61488, Control_c, 1, 7, 103
5, 61536, Note_off_c, 1, 46, 64
5, 61536, Note_off_c, 1, 39, 64
5, 61536, Note_off_c, 1, 51, 64
5, 61536, Note_off_c, 1, 62, 64
5, 61536, Note_off_c, 1, 55, 64
5, 61536, Note_on_c, 1, 55, 100
5, 61536, Note_on_c, 1, 62, 100
5, 61536, Note_on_c, 1, 51, 100
5, 61536, Note_on_c, 1, 39, 100
5, 61536, Note_on_c, 1, 46, 100
5, 61584, Note_off_c, 1, 46, 64
5, 61584, Note_off_c, 1, 39, 64
5, 61584, Note_off_c, 1, 51, 64
5, 61584, Note_off_c, 1, 62, 64
5, 61584, Note_off_c, 1, 55, 64
5, 61584, Note_on_c, 1, 55, 100
5, 61584, Note_on_c, 1, 62, 100
5, 61584, Note_on_c, 1, 51, 100
5, 61584, Note_on_c, 1, 39, 100
5, 61584, Note_on_c, 1, 46, 100
5, 61592, Control_c, 1, 7, 103
5, 61632, Note_off_c, 1, 46, 64
5, 61632, Note_off_c, 1, 39, 64
5, 61632, Note_off_c, 1, 51, 64
5, 61632, Note_off_c, 1, 62, 64
5, 61632, Note_off_c, 1, 55, 64
5, 61632, Note_on_c, 1, 55, 100
5, 61632, Note_on_c, 1, 62, 100
5, 61632, Note_on_c, 1, 51, 100
5, 61632, Note_on_c, 1, 39, 100
5, 61632, Note_on_c, 1, 46, 100
5, 61680, Note_off_c, 1, 46, 64
5, 61680, Note_off_c, 1, 39, 64
5, 61680, Note_off_c, 1, 51, 64
5, 61680, Note_off_c, 1, 62, 64
5, 61680, Note_off_c, 1, 55, 64
5, 61680, Note_on_c, 1, 55, 100
5, 61680, Note_on_c, 1, 62, 100
5, 61680, Note_on_c, 1, 51, 100
5, 61680, Note_on_c, 1, 39, 100
5, 61680, Note_on_c, 1, 46, 100
5, 61694, Control_c, 1, 7, 103
5, 61728, Note_off_c, 1, 46, 64
5, 61728, Note_off_c, 1, 39, 64
5, 61728, Note_off_c, 1, 51, 64
5, 61728, Note_off_c, 1, 62, 64
5, 61728, Note_off_c, 1, 55, 64
5, 61728, Note_on_c, 1, 55, 100
5, 61728, Note_on_c, 1, 62, 100
5, 61728, Note_on_c, 1, 51, 100
5, 61728, Note_on_c, 1, 39, 100
5, 61728, Note_on_c, 1, 46, 100
5, 61776, Note_off_c, 1, 46, 64
5, 61776, Note_off_c, 1, 39, 64
5, 61776, Note_off_c, 1, 51, 64
5, 61776, Note_off_c, 1, 62, 64
5, 61776, Note_off_c, 1, 55, 64
5, 61776, Note_on_c, 1, 55, 100
5, 61776, Note_on_c, 1, 62, 100
5, 61776, Note_on_c, 1, 51, 100
5, 61776, Note_on_c, 1, 39, 100
5, 61776, Note_on_c, 1, 46, 100
5, 61798, Control_c, 1, 7, 103
5, 61824, Note_off_c, 1, 46, 64
5, 61824, Note_off_c, 1, 39, 64
5, 61824, Note_off_c, 1, 51, 64
5, 61824, Note_off_c, 1, 62, 64
5, 61824, Note_off_c, 1, 55, 64
5, 61900, Control_c, 1, 7, 103
5, 62004, Control_c, 1, 7, 103
5, 62107, Control_c, 1, 7, 103
5, 62210, Control_c, 1, 7, 103
5, 62313, Control_c, 1, 7, 103
5, 62416, Control_c, 1, 7, 103
5, 62519, Control_c, 1, 7, 103
5, 62623, Control_c, 1, 7, 103
5, 62725, Control_c, 1, 7, 103
5, 62829, Control_c, 1, 7, 103
5, 62931, Control_c, 1, 7, 103
5, 63035, Control_c, 1, 7, 103
5, 63138, Control_c, 1, 7, 104
5, 63241, Control_c, 1, 7, 104
5, 63344, Control_c, 1, 7, 104
5, 63396, Control_c, 1, 101, 0
5, 63396, Control_c, 1, 100, 0
5, 63396, Control_c, 1, 6, 12
5, 63396, Control_c, 1, 10, 64
5, 63396, Control_c, 1, 7, 104
5, 63396, Pitch_bend_c, 1, 8192
5, 63396, Program_c, 1, 90
5, 63396, Control_c, 1, 7, 104
5, 63396, Control_c, 1, 7, 36
5, 63397, Control_c, 1, 101, 0
5, 63397, Control_c, 1, 100, 0
5, 63397, Control_c, 1, 6, 12
5, 63397, Control_c, 1, 10, 64
5, 63397, Control_c, 1, 7, 104
5, 63397, Pitch_bend_c, 1, 8192
5, 63397, Program_c, 1, 90
5, 63397, End_track
6, 0, Start_track
6, 0, Title_t, "doots"
6, 0, Control_c, 2, 10, 64
6, 0, Control_c, 2, 7, 86
6, 0, Pitch_bend_c, 2, 8192
6, 0, Control_c, 2, 101, 0
6, 0, Control_c, 2, 100, 0
6, 0, Control_c, 2, 6, 12
6, 0, Control_c, 2, 10, 64
6, 0, Control_c, 2, 7, 86
6, 0, Pitch_bend_c, 2, 8192
6, 0, Program_c, 2, 83
6, 0, Control_c, 2, 7, 90
6, 0, Control_c, 2, 7, 38
6, 0, Control_c, 2, 101, 0
6, 0, Control_c, 2, 100, 0
6, 0, Control_c, 2, 6, 12
6, 0, Control_c, 2, 10, 64
6, 0, Control_c, 2, 7, 38
6, 0, Pitch_bend_c, 2, 8192
6, 0, Program_c, 2, 83
6, 0, Control_c, 2, 7, 38
6, 0, Control_c, 2, 101, 0
6, 0, Control_c, 2, 100, 0
6, 0, Control_c, 2, 6, 12
6, 0, Control_c, 2, 10, 64
6, 0, Control_c, 2, 7, 38
6, 0, Pitch_bend_c, 2, 8192
6, 0, Program_c, 2, 83
6, 1, Control_c, 2, 7, 38
6, 2, Control_c, 2, 7, 38
6, 3, Control_c, 2, 7, 38
6, 4, Control_c, 2, 7, 38
6, 5, Control_c, 2, 7, 38
6, 6, Control_c, 2, 7, 38
6, 7, Control_c, 2, 7, 38
6, 8, Control_c, 2, 7, 38
6, 9, Control_c, 2, 7, 38
6, 10, Control_c, 2, 7, 38
6, 11, Control_c, 2, 7, 38
6, 12, Control_c, 2, 7, 38
6, 13, Control_c, 2, 7, 38
6, 14, Control_c, 2, 7, 38
6, 15, Control_c, 2, 7, 38
6, 16, Control_c, 2, 7, 38
6, 17, Control_c, 2, 7, 38
6, 18, Control_c, 2, 7, 38
6, 19, Control_c, 2, 7, 38
6, 20, Control_c, 2, 7, 39
6, 21, Control_c, 2, 7, 39
6, 22, Control_c, 2, 7, 39
6, 23, Control_c, 2, 7, 39
6, 24, Control_c, 2, 7, 39
6, 25, Control_c, 2, 7, 39
6, 26, Control_c, 2, 7, 39
6, 27, Control_c, 2, 7, 39
6, 28, Control_c, 2, 7, 39
6, 29, Control_c, 2, 7, 39
6, 30, Control_c, 2, 7, 39
6, 31, Control_c, 2, 7, 39
6, 32, Control_c, 2, 7, 39
6, 33, Control_c, 2, 7, 39
6, 34, Control_c, 2, 7, 39
6, 35, Control_c, 2, 7, 39
6, 36, Control_c, 2, 7, 39
6, 37, Control_c, 2, 7, 39
6, 38, Control_c, 2, 7, 39
6, 39, Control_c, 2, 7, 39
6, 40, Control_c, 2, 7, 39
6, 41, Control_c, 2, 7, 39
6, 42, Control_c, 2, 7, 39
6, 43, Control_c, 2, 7, 39
6, 44, Control_c, 2, 7, 39
6, 45, Control_c, 2, 7, 39
6, 46, Control_c, 2, 7, 39
6, 47, Control_c, 2, 7, 39
6, 48, Note_on_c, 2, 60, 96
6, 48, Control_c, 2, 7, 39
6, 49, Control_c, 2, 7, 39
6, 50, Control_c, 2, 7, 39
6, 51, Control_c, 2, 7, 39
6, 52, Control_c, 2, 7, 39
6, 53, Control_c, 2, 7, 39
6, 54, Control_c, 2, 7, 39
6, 55, Control_c, 2, 7, 39
6, 56, Control_c, 2, 7, 39
6, 57, Control_c, 2, 7, 39
6, 58, Control_c, 2, 7, 39
6, 59, Control_c, 2, 7, 39
6, 60, Control_c, 2, 7, 39
6, 61, Control_c, 2, 7, 39
6, 62, Control_c, 2, 7, 39
6, 63, Control_c, 2, 7, 39
6, 64, Control_c, 2, 7, 39
6, 65, Control_c, 2, 7, 39
6, 66, Control_c, 2, 7, 39
6, 67, Control_c, 2, 7, 39
6, 68, Control_c, 2, 7, 39
6, 69, Control_c, 2, 7, 39
6, 70, Control_c, 2, 7, 39
6, 71, Control_c, 2, 7, 39
6, 72, Note_off_c, 2, 60, 64
6, 72, Control_c, 2, 7, 39
6, 73, Control_c, 2, 7, 39
6, 74, Control_c, 2, 7, 39
6, 75, Control_c, 2, 7, 39
6, 76, Control_c, 2, 7, 39
6, 77, Control_c, 2, 7, 39
6, 78, Control_c, 2, 7, 39
6, 79, Control_c, 2, 7, 39
6, 80, Control_c, 2, 7, 39
6, 81, Control_c, 2, 7, 39
6, 82, Control_c, 2, 7, 39
6, 83, Control_c, 2, 7, 39
6, 84, Control_c, 2, 7, 39
6, 85, Control_c, 2, 7, 39
6, 86, Control_c, 2, 7, 39
6, 87, Control_c, 2, 7, 39
6, 88, Control_c, 2, 7, 39
6, 89, Control_c, 2, 7, 39
6, 90, Control_c, 2, 7, 39
6, 91, Control_c, 2, 7, 39
6, 92, Control_c, 2, 7, 39
6, 93, Control_c, 2, 7, 39
6, 94, Control_c, 2, 7, 39
6, 95, Control_c, 2, 7, 39
6, 96, Note_on_c, 2, 65, 96
6, 96, Control_c, 2, 7, 39
6, 97, Control_c, 2, 7, 39
6, 98, Control_c, 2, 7, 39
6, 99, Control_c, 2, 7, 39
6, 100, Control_c, 2, 7, 39
6, 101, Control_c, 2, 7, 39
6, 102, Control_c, 2, 7, 39
6, 103, Control_c, 2, 7, 39
6, 104, Control_c, 2, 7, 39
6, 105, Control_c, 2, 7, 39
6, 106, Control_c, 2, 7, 39
6, 107, Control_c, 2, 7, 39
6, 108, Control_c, 2, 7, 39
6, 109, Control_c, 2, 7, 39
6, 110, Control_c, 2, 7, 39
6, 111, Control_c, 2, 7, 39
6, 112, Control_c, 2, 7, 39
6, 113, Control_c, 2, 7, 39
6, 114, Control_c, 2, 7, 39
6, 115, Control_c, 2, 7, 39
6, 116, Control_c, 2, 7, 39
6, 117, Control_c, 2, 7, 39
6, 118, Control_c, 2, 7, 39
6, 119, Control_c, 2, 7, 39
6, 120, Note_off_c, 2, 65, 64
6, 120, Control_c, 2, 7, 39
6, 121, Control_c, 2, 7, 39
6, 122, Control_c, 2, 7, 39
6, 123, Control_c, 2, 7, 39
6, 124, Control_c, 2, 7, 39
6, 125, Control_c, 2, 7, 39
6, 126, Control_c, 2, 7, 39
6, 127, Control_c, 2, 7, 39
6, 128, Control_c, 2, 7, 39
6, 129, Control_c, 2, 7, 39
6, 130, Control_c, 2, 7, 39
6, 131, Control_c, 2, 7, 39
6, 132, Control_c, 2, 7, 39
6, 133, Control_c, 2, 7, 39
6, 134, Control_c, 2, 7, 39
6, 135, Control_c, 2, 7, 39
6, 136, Control_c, 2, 7, 39
6, 137, Control_c, 2, 7, 39
6, 138, Control_c, 2, 7, 39
6, 139, Control_c, 2, 7, 39
6, 140, Control_c, 2, 7, 39
6, 141, Control_c, 2, 7, 39
6, 142, Control_c, 2, 7, 39
6, 143, Control_c, 2, 7, 39
6, 144, Note_on_c, 2, 69, 96
6, 144, Control_c, 2, 7, 39
6, 145, Control_c, 2, 7, 40
6, 146, Control_c, 2, 7, 40
6, 147, Control_c, 2, 7, 40
6, 148, Control_c, 2, 7, 40
6, 149, Control_c, 2, 7, 40
6, 150, Control_c, 2, 7, 40
6, 151, Control_c, 2, 7, 40
6, 152, Control_c, 2, 7, 40
6, 153, Control_c, 2, 7, 40
6, 154, Control_c, 2, 7, 40
6, 155, Control_c, 2, 7, 40
6, 156, Control_c, 2, 7, 40
6, 157, Control_c, 2, 7, 40
6, 158, Control_c, 2, 7, 40
6, 159, Control_c, 2, 7, 40
6, 160, Control_c, 2, 7, 40
6, 161, Control_c, 2, 7, 40
6, 162, Control_c, 2, 7, 40
6, 163, Control_c, 2, 7, 40
6, 164, Control_c, 2, 7, 40
6, 165, Control_c, 2, 7, 40
6, 166, Control_c, 2, 7, 40
6, 167, Control_c, 2, 7, 40
6, 168, Note_off_c, 2, 69, 64
6, 168, Control_c, 2, 7, 40
6, 169, Control_c, 2, 7, 40
6, 170, Control_c, 2, 7, 40
6, 171, Control_c, 2, 7, 40
6, 172, Control_c, 2, 7, 40
6, 173, Control_c, 2, 7, 40
6, 174, Control_c, 2, 7, 40
6, 175, Control_c, 2, 7, 40
6, 176, Control_c, 2, 7, 40
6, 177, Control_c, 2, 7, 40
6, 178, Control_c, 2, 7, 40
6, 179, Control_c, 2, 7, 40
6, 180, Control_c, 2, 7, 40
6, 181, Control_c, 2, 7, 40
6, 182, Control_c, 2, 7, 40
6, 183, Control_c, 2, 7, 40
6, 184, Control_c, 2, 7, 40
6, 185, Control_c, 2, 7, 40
6, 186, Control_c, 2, 7, 40
6, 187, Control_c, 2, 7, 40
6, 188, Control_c, 2, 7, 40
6, 189, Control_c, 2, 7, 40
6, 190, Control_c, 2, 7, 40
6, 191, Control_c, 2, 7, 40
6, 192, Control_c, 2, 7, 40
6, 193, Control_c, 2, 7, 40
6, 194, Control_c, 2, 7, 40
6, 195, Control_c, 2, 7, 40
6, 196, Control_c, 2, 7, 40
6, 197, Control_c, 2, 7, 40
6, 198, Control_c, 2, 7, 40
6, 199, Control_c, 2, 7, 40
6, 200, Control_c, 2, 7, 40
6, 201, Control_c, 2, 7, 40
6, 202, Control_c, 2, 7, 40
6, 203, Control_c, 2, 7, 40
6, 204, Control_c, 2, 7, 40
6, 205, Control_c, 2, 7, 40
6, 206, Control_c, 2, 7, 40
6, 207, Control_c, 2, 7, 40
6, 208, Control_c, 2, 7, 40
6, 209, Control_c, 2, 7, 40
6, 210, Control_c, 2, 7, 40
6, 211, Control_c, 2, 7, 40
6, 212, Control_c, 2, 7, 40
6, 213, Control_c, 2, 7, 40
6, 214, Control_c, 2, 7, 40
6, 215, Control_c, 2, 7, 40
6, 216, Control_c, 2, 7, 40
6, 217, Control_c, 2, 7, 40
6, 218, Control_c, 2, 7, 40
6, 219, Control_c, 2, 7, 40
6, 220, Control_c, 2, 7, 40
6, 221, Control_c, 2, 7, 40
6, 222, Control_c, 2, 7, 40
6, 223, Control_c, 2, 7, 40
6, 224, Control_c, 2, 7, 40
6, 225, Control_c, 2, 7, 40
6, 226, Control_c, 2, 7, 40
6, 227, Control_c, 2, 7, 40
6, 228, Control_c, 2, 7, 40
6, 229, Control_c, 2, 7, 40
6, 230, Control_c, 2, 7, 40
6, 231, Control_c, 2, 7, 40
6, 232, Control_c, 2, 7, 40
6, 233, Control_c, 2, 7, 40
6, 234, Control_c, 2, 7, 40
6, 235, Control_c, 2, 7, 40
6, 236, Control_c, 2, 7, 40
6, 237, Control_c, 2, 7, 40
6, 238, Control_c, 2, 7, 40
6, 239, Control_c, 2, 7, 40
6, 240, Note_on_c, 2, 62, 96
6, 240, Control_c, 2, 7, 40
6, 241, Control_c, 2, 7, 40
6, 242, Control_c, 2, 7, 40
6, 243, Control_c, 2, 7, 41
6, 244, Control_c, 2, 7, 41
6, 245, Control_c, 2, 7, 41
6, 246, Control_c, 2, 7, 41
6, 247, Control_c, 2, 7, 41
6, 248, Control_c, 2, 7, 41
6, 249, Control_c, 2, 7, 41
6, 250, Control_c, 2, 7, 41
6, 251, Control_c, 2, 7, 41
6, 252, Control_c, 2, 7, 41
6, 253, Control_c, 2, 7, 41
6, 254, Control_c, 2, 7, 41
6, 255, Control_c, 2, 7, 41
6, 256, Control_c, 2, 7, 41
6, 257, Control_c, 2, 7, 41
6, 258, Control_c, 2, 7, 41
6, 259, Control_c, 2, 7, 41
6, 260, Control_c, 2, 7, 41
6, 261, Control_c, 2, 7, 41
6, 262, Control_c, 2, 7, 41
6, 263, Control_c, 2, 7, 41
6, 264, Note_off_c, 2, 62, 64
6, 264, Control_c, 2, 7, 41
6, 265, Control_c, 2, 7, 41
6, 266, Control_c, 2, 7, 41
6, 267, Control_c, 2, 7, 41
6, 268, Control_c, 2, 7, 41
6, 269, Control_c, 2, 7, 41
6, 270, Control_c, 2, 7, 41
6, 271, Control_c, 2, 7, 41
6, 272, Control_c, 2, 7, 41
6, 273, Control_c, 2, 7, 41
6, 274, Control_c, 2, 7, 41
6, 275, Control_c, 2, 7, 41
6, 276, Control_c, 2, 7, 41
6, 277, Control_c, 2, 7, 41
6, 278, Control_c, 2, 7, 41
6, 279, Control_c, 2, 7, 41
6, 280, Control_c, 2, 7, 41
6, 281, Control_c, 2, 7, 41
6, 282, Control_c, 2, 7, 41
6, 283, Control_c, 2, 7, 41
6, 284, Control_c, 2, 7, 41
6, 285, Control_c, 2, 7, 41
6, 286, Control_c, 2, 7, 41
6, 287, Control_c, 2, 7, 41
6, 288, Note_on_c, 2, 65, 96
6, 288, Control_c, 2, 7, 41
6, 289, Control_c, 2, 7, 41
6, 290, Control_c, 2, 7, 41
6, 291, Control_c, 2, 7, 41
6, 292, Control_c, 2, 7, 41
6, 293, Control_c, 2, 7, 41
6, 294, Control_c, 2, 7, 41
6, 295, Control_c, 2, 7, 41
6, 296, Control_c, 2, 7, 41
6, 297, Control_c, 2, 7, 41
6, 298, Control_c, 2, 7, 41
6, 299, Control_c, 2, 7, 41
6, 300, Control_c, 2, 7, 41
6, 301, Control_c, 2, 7, 41
6, 302, Control_c, 2, 7, 41
6, 303, Control_c, 2, 7, 41
6, 304, Control_c, 2, 7, 41
6, 305, Control_c, 2, 7, 41
6, 306, Control_c, 2, 7, 41
6, 307, Control_c, 2, 7, 41
6, 308, Control_c, 2, 7, 41
6, 309, Control_c, 2, 7, 41
6, 310, Control_c, 2, 7, 41
6, 311, Control_c, 2, 7, 41
6, 312, Note_off_c, 2, 65, 64
6, 312, Control_c, 2, 7, 41
6, 313, Control_c, 2, 7, 41
6, 314, Control_c, 2, 7, 41
6, 315, Control_c, 2, 7, 41
6, 316, Control_c, 2, 7, 41
6, 317, Control_c, 2, 7, 41
6, 318, Control_c, 2, 7, 41
6, 319, Control_c, 2, 7, 41
6, 320, Control_c, 2, 7, 41
6, 321, Control_c, 2, 7, 41
6, 322, Control_c, 2, 7, 41
6, 323, Control_c, 2, 7, 41
6, 324, Control_c, 2, 7, 41
6, 325, Control_c, 2, 7, 41
6, 326, Control_c, 2, 7, 41
6, 327, Control_c, 2, 7, 41
6, 328, Control_c, 2, 7, 42
6, 329, Control_c, 2, 7, 42
6, 330, Control_c, 2, 7, 42
6, 331, Control_c, 2, 7, 42
6, 332, Control_c, 2, 7, 42
6, 333, Control_c, 2, 7, 42
6, 334, Control_c, 2, 7, 42
6, 335, Control_c, 2, 7, 42
6, 336, Note_on_c, 2, 70, 96
6, 336, Control_c, 2, 7, 42
6, 337, Control_c, 2, 7, 42
6, 338, Control_c, 2, 7, 42
6, 339, Control_c, 2, 7, 42
6, 340, Control_c, 2, 7, 42
6, 341, Control_c, 2, 7, 42
6, 342, Control_c, 2, 7, 42
6, 343, Control_c, 2, 7, 42
6, 344, Control_c, 2, 7, 42
6, 345, Control_c, 2, 7, 42
6, 346, Control_c, 2, 7, 42
6, 347, Control_c, 2, 7, 42
6, 348, Control_c, 2, 7, 42
6, 349, Control_c, 2, 7, 42
6, 350, Control_c, 2, 7, 42
6, 351, Control_c, 2, 7, 42
6, 352, Control_c, 2, 7, 42
6, 353, Control_c, 2, 7, 42
6, 354, Control_c, 2, 7, 42
6, 355, Control_c, 2, 7, 42
6, 356, Control_c, 2, 7, 42
6, 357, Control_c, 2, 7, 42
6, 358, Control_c, 2, 7, 42
6, 359, Control_c, 2, 7, 42
6, 360, Note_off_c, 2, 70, 64
6, 360, Control_c, 2, 7, 42
6, 361, Control_c, 2, 7, 42
6, 362, Control_c, 2, 7, 42
6, 363, Control_c, 2, 7, 42
6, 364, Control_c, 2, 7, 42
6, 365, Control_c, 2, 7, 42
6, 366, Control_c, 2, 7, 42
6, 367, Control_c, 2, 7, 42
6, 368, Control_c, 2, 7, 42
6, 369, Control_c, 2, 7, 42
6, 370, Control_c, 2, 7, 42
6, 371, Control_c, 2, 7, 42
6, 372, Control_c, 2, 7, 42
6, 373, Control_c, 2, 7, 42
6, 374, Control_c, 2, 7, 42
6, 375, Control_c, 2, 7, 42
6, 376, Control_c, 2, 7, 42
6, 377, Control_c, 2, 7, 42
6, 378, Control_c, 2, 7, 42
6, 379, Control_c, 2, 7, 42
6, 380, Control_c, 2, 7, 42
6, 381, Control_c, 2, 7, 42
6, 382, Control_c, 2, 7, 42
6, 383, Control_c, 2, 7, 42
6, 384, Control_c, 2, 7, 42
6, 385, Control_c, 2, 7, 42
6, 386, Control_c, 2, 7, 42
6, 387, Control_c, 2, 7, 42
6, 388, Control_c, 2, 7, 42
6, 389, Control_c, 2, 7, 42
6, 390, Control_c, 2, 7, 42
6, 391, Control_c, 2, 7, 42
6, 392, Control_c, 2, 7, 42
6, 393, Control_c, 2, 7, 42
6, 394, Control_c, 2, 7, 42
6, 395, Control_c, 2, 7, 42
6, 396, Control_c, 2, 7, 42
6, 397, Control_c, 2, 7, 42
6, 398, Control_c, 2, 7, 42
6, 399, Control_c, 2, 7, 42
6, 400, Control_c, 2, 7, 42
6, 401, Control_c, 2, 7, 42
6, 402, Control_c, 2, 7, 42
6, 403, Control_c, 2, 7, 42
6, 404, Control_c, 2, 7, 43
6, 405, Control_c, 2, 7, 43
6, 406, Control_c, 2, 7, 43
6, 407, Control_c, 2, 7, 43
6, 408, Control_c, 2, 7, 43
6, 409, Control_c, 2, 7, 43
6, 410, Control_c, 2, 7, 43
6, 411, Control_c, 2, 7, 43
6, 412, Control_c, 2, 7, 43
6, 413, Control_c, 2, 7, 43
6, 414, Control_c, 2, 7, 43
6, 415, Control_c, 2, 7, 43
6, 416, Control_c, 2, 7, 43
6, 417, Control_c, 2, 7, 43
6, 418, Control_c, 2, 7, 43
6, 419, Control_c, 2, 7, 43
6, 420, Note_on_c, 2, 73, 96
6, 420, Control_c, 2, 7, 43
6, 421, Control_c, 2, 7, 43
6, 422, Control_c, 2, 7, 43
6, 423, Control_c, 2, 7, 43
6, 424, Control_c, 2, 7, 43
6, 425, Control_c, 2, 7, 43
6, 426, Control_c, 2, 7, 43
6, 427, Control_c, 2, 7, 43
6, 428, Control_c, 2, 7, 43
6, 429, Control_c, 2, 7, 43
6, 430, Control_c, 2, 7, 43
6, 431, Control_c, 2, 7, 43
6, 432, Note_off_c, 2, 73, 64
6, 432, Note_on_c, 2, 74, 96
6, 432, Control_c, 2, 7, 43
6, 433, Control_c, 2, 7, 43
6, 434, Control_c, 2, 7, 43
6, 435, Control_c, 2, 7, 43
6, 436, Control_c, 2, 7, 43
6, 437, Control_c, 2, 7, 43
6, 438, Control_c, 2, 7, 43
6, 439, Control_c, 2, 7, 43
6, 440, Control_c, 2, 7, 43
6, 441, Control_c, 2, 7, 43
6, 442, Control_c, 2, 7, 43
6, 443, Control_c, 2, 7, 43
6, 444, Control_c, 2, 7, 43
6, 445, Control_c, 2, 7, 43
6, 446, Control_c, 2, 7, 43
6, 447, Control_c, 2, 7, 43
6, 448, Control_c, 2, 7, 43
6, 449, Control_c, 2, 7, 43
6, 450, Control_c, 2, 7, 43
6, 451, Control_c, 2, 7, 43
6, 452, Control_c, 2, 7, 43
6, 453, Control_c, 2, 7, 43
6, 454, Control_c, 2, 7, 43
6, 455, Control_c, 2, 7, 43
6, 456, Note_off_c, 2, 74, 64
6, 456, Control_c, 2, 7, 43
6, 457, Control_c, 2, 7, 43
6, 458, Control_c, 2, 7, 43
6, 459, Control_c, 2, 7, 43
6, 460, Control_c, 2, 7, 43
6, 461, Control_c, 2, 7, 43
6, 462, Control_c, 2, 7, 43
6, 463, Control_c, 2, 7, 43
6, 464, Control_c, 2, 7, 43
6, 465, Control_c, 2, 7, 43
6, 466, Control_c, 2, 7, 43
6, 467, Control_c, 2, 7, 43
6, 468, Control_c, 2, 7, 43
6, 469, Control_c, 2, 7, 43
6, 470, Control_c, 2, 7, 43
6, 471, Control_c, 2, 7, 43
6, 472, Control_c, 2, 7, 43
6, 473, Control_c, 2, 7, 43
6, 474, Control_c, 2, 7, 44
6, 475, Control_c, 2, 7, 44
6, 476, Control_c, 2, 7, 44
6, 477, Control_c, 2, 7, 44
6, 478, Control_c, 2, 7, 44
6, 479, Control_c, 2, 7, 44
6, 480, Note_on_c, 2, 72, 96
6, 480, Note_on_c, 2, 72, 96
6, 480, Control_c, 2, 7, 44
6, 481, Control_c, 2, 7, 44
6, 482, Control_c, 2, 7, 44
6, 483, Control_c, 2, 7, 44
6, 484, Control_c, 2, 7, 44
6, 485, Control_c, 2, 7, 44
6, 486, Control_c, 2, 7, 44
6, 487, Control_c, 2, 7, 44
6, 488, Control_c, 2, 7, 44
6, 489, Control_c, 2, 7, 44
6, 490, Control_c, 2, 7, 44
6, 491, Control_c, 2, 7, 44
6, 492, Control_c, 2, 7, 44
6, 493, Control_c, 2, 7, 44
6, 494, Control_c, 2, 7, 44
6, 495, Control_c, 2, 7, 44
6, 496, Control_c, 2, 7, 44
6, 497, Control_c, 2, 7, 44
6, 498, Control_c, 2, 7, 44
6, 499, Control_c, 2, 7, 44
6, 500, Control_c, 2, 7, 44
6, 501, Control_c, 2, 7, 44
6, 502, Control_c, 2, 7, 44
6, 503, Control_c, 2, 7, 44
6, 504, Note_off_c, 2, 72, 64
6, 504, Note_off_c, 2, 72, 64
6, 504, Control_c, 2, 7, 44
6, 505, Control_c, 2, 7, 44
6, 506, Control_c, 2, 7, 44
6, 507, Control_c, 2, 7, 44
6, 508, Control_c, 2, 7, 44
6, 509, Control_c, 2, 7, 44
6, 510, Control_c, 2, 7, 44
6, 511, Control_c, 2, 7, 44
6, 512, Control_c, 2, 7, 44
6, 513, Control_c, 2, 7, 44
6, 514, Control_c, 2, 7, 44
6, 515, Control_c, 2, 7, 44
6, 516, Control_c, 2, 7, 44
6, 517, Control_c, 2, 7, 44
6, 518, Control_c, 2, 7, 44
6, 519, Control_c, 2, 7, 44
6, 520, Control_c, 2, 7, 44
6, 521, Control_c, 2, 7, 44
6, 522, Control_c, 2, 7, 44
6, 523, Control_c, 2, 7, 44
6, 524, Control_c, 2, 7, 44
6, 525, Control_c, 2, 7, 44
6, 526, Control_c, 2, 7, 44
6, 527, Control_c, 2, 7, 44
6, 528, Note_on_c, 2, 70, 96
6, 528, Note_on_c, 2, 70, 96
6, 528, Control_c, 2, 7, 44
6, 529, Control_c, 2, 7, 44
6, 530, Control_c, 2, 7, 44
6, 531, Control_c, 2, 7, 44
6, 532, Control_c, 2, 7, 44
6, 533, Control_c, 2, 7, 44
6, 534, Control_c, 2, 7, 44
6, 535, Control_c, 2, 7, 44
6, 536, Control_c, 2, 7, 44
6, 537, Control_c, 2, 7, 44
6, 538, Control_c, 2, 7, 44
6, 539, Control_c, 2, 7, 44
6, 540, Control_c, 2, 7, 45
6, 541, Control_c, 2, 7, 45
6, 542, Control_c, 2, 7, 45
6, 543, Control_c, 2, 7, 45
6, 544, Control_c, 2, 7, 45
6, 545, Control_c, 2, 7, 45
6, 546, Control_c, 2, 7, 45
6, 547, Control_c, 2, 7, 45
6, 548, Control_c, 2, 7, 45
6, 549, Control_c, 2, 7, 45
6, 550, Control_c, 2, 7, 45
6, 551, Control_c, 2, 7, 45
6, 552, Note_off_c, 2, 70, 64
6, 552, Note_off_c, 2, 70, 64
6, 552, Control_c, 2, 7, 45
6, 553, Control_c, 2, 7, 45
6, 554, Control_c, 2, 7, 45
6, 555, Control_c, 2, 7, 45
6, 556, Control_c, 2, 7, 45
6, 557, Control_c, 2, 7, 45
6, 558, Control_c, 2, 7, 45
6, 559, Control_c, 2, 7, 45
6, 560, Control_c, 2, 7, 45
6, 561, Control_c, 2, 7, 45
6, 562, Control_c, 2, 7, 45
6, 563, Control_c, 2, 7, 45
6, 564, Control_c, 2, 7, 45
6, 565, Control_c, 2, 7, 45
6, 566, Control_c, 2, 7, 45
6, 567, Control_c, 2, 7, 45
6, 568, Control_c, 2, 7, 45
6, 569, Control_c, 2, 7, 45
6, 570, Control_c, 2, 7, 45
6, 571, Control_c, 2, 7, 45
6, 572, Control_c, 2, 7, 45
6, 573, Control_c, 2, 7, 45
6, 574, Control_c, 2, 7, 45
6, 575, Control_c, 2, 7, 45
6, 576, Note_on_c, 2, 69, 96
6, 576, Control_c, 2, 7, 45
6, 577, Control_c, 2, 7, 45
6, 578, Control_c, 2, 7, 45
6, 579, Control_c, 2, 7, 45
6, 580, Control_c, 2, 7, 45
6, 581, Control_c, 2, 7, 45
6, 582, Control_c, 2, 7, 45
6, 583, Control_c, 2, 7, 45
6, 584, Control_c, 2, 7, 45
6, 585, Control_c, 2, 7, 45
6, 586, Control_c, 2, 7, 45
6, 587, Control_c, 2, 7, 45
6, 588, Control_c, 2, 7, 45
6, 589, Control_c, 2, 7, 45
6, 590, Control_c, 2, 7, 45
6, 591, Control_c, 2, 7, 45
6, 592, Control_c, 2, 7, 45
6, 593, Control_c, 2, 7, 45
6, 594, Control_c, 2, 7, 45
6, 595, Control_c, 2, 7, 45
6, 596, Control_c, 2, 7, 45
6, 597, Control_c, 2, 7, 45
6, 598, Control_c, 2, 7, 45
6, 599, Control_c, 2, 7, 45
6, 600, Note_off_c, 2, 69, 64
6, 600, Control_c, 2, 7, 45
6, 601, Control_c, 2, 7, 45
6, 602, Control_c, 2, 7, 46
6, 603, Control_c, 2, 7, 46
6, 604, Control_c, 2, 7, 46
6, 605, Control_c, 2, 7, 46
6, 606, Control_c, 2, 7, 46
6, 607, Control_c, 2, 7, 46
6, 608, Control_c, 2, 7, 46
6, 609, Control_c, 2, 7, 46
6, 610, Control_c, 2, 7, 46
6, 611, Control_c, 2, 7, 46
6, 612, Control_c, 2, 7, 46
6, 613, Control_c, 2, 7, 46
6, 614, Control_c, 2, 7, 46
6, 615, Control_c, 2, 7, 46
6, 616, Control_c, 2, 7, 46
6, 617, Control_c, 2, 7, 46
6, 618, Control_c, 2, 7, 46
6, 619, Control_c, 2, 7, 46
6, 620, Control_c, 2, 7, 46
6, 621, Control_c, 2, 7, 46
6, 622, Control_c, 2, 7, 46
6, 623, Control_c, 2, 7, 46
6, 624, Note_on_c, 2, 65, 96
6, 624, Note_on_c, 2, 65, 96
6, 624, Control_c, 2, 7, 46
6, 625, Control_c, 2, 7, 46
6, 626, Control_c, 2, 7, 46
6, 627, Control_c, 2, 7, 46
6, 628, Control_c, 2, 7, 46
6, 629, Control_c, 2, 7, 46
6, 630, Control_c, 2, 7, 46
6, 631, Control_c, 2, 7, 46
6, 632, Control_c, 2, 7, 46
6, 633, Control_c, 2, 7, 46
6, 634, Control_c, 2, 7, 46
6, 635, Control_c, 2, 7, 46
6, 636, Control_c, 2, 7, 46
6, 637, Control_c, 2, 7, 46
6, 638, Control_c, 2, 7, 46
6, 639, Control_c, 2, 7, 46
6, 640, Control_c, 2, 7, 46
6, 641, Control_c, 2, 7, 46
6, 642, Control_c, 2, 7, 46
6, 643, Control_c, 2, 7, 46
6, 644, Control_c, 2, 7, 46
6, 645, Control_c, 2, 7, 46
6, 646, Control_c, 2, 7, 46
6, 647, Control_c, 2, 7, 46
6, 648, Note_off_c, 2, 65, 64
6, 648, Note_off_c, 2, 65, 64
6, 648, Control_c, 2, 7, 46
6, 649, Control_c, 2, 7, 46
6, 650, Control_c, 2, 7, 46
6, 651, Control_c, 2, 7, 46
6, 652, Control_c, 2, 7, 46
6, 653, Control_c, 2, 7, 46
6, 654, Control_c, 2, 7, 46
6, 655, Control_c, 2, 7, 46
6, 656, Control_c, 2, 7, 46
6, 657, Control_c, 2, 7, 46
6, 658, Control_c, 2, 7, 46
6, 659, Control_c, 2, 7, 46
6, 660, Control_c, 2, 7, 46
6, 661, Control_c, 2, 7, 47
6, 662, Control_c, 2, 7, 47
6, 663, Control_c, 2, 7, 47
6, 664, Control_c, 2, 7, 47
6, 665, Control_c, 2, 7, 47
6, 666, Control_c, 2, 7, 47
6, 667, Control_c, 2, 7, 47
6, 668, Control_c, 2, 7, 47
6, 669, Control_c, 2, 7, 47
6, 670, Control_c, 2, 7, 47
6, 671, Control_c, 2, 7, 47
6, 672, Note_on_c, 2, 62, 96
6, 672, Control_c, 2, 7, 47
6, 673, Control_c, 2, 7, 47
6, 674, Control_c, 2, 7, 47
6, 675, Control_c, 2, 7, 47
6, 676, Control_c, 2, 7, 47
6, 677, Control_c, 2, 7, 47
6, 678, Control_c, 2, 7, 47
6, 679, Control_c, 2, 7, 47
6, 680, Control_c, 2, 7, 47
6, 681, Control_c, 2, 7, 47
6, 682, Control_c, 2, 7, 47
6, 683, Control_c, 2, 7, 47
6, 684, Control_c, 2, 7, 47
6, 685, Control_c, 2, 7, 47
6, 686, Control_c, 2, 7, 47
6, 687, Control_c, 2, 7, 47
6, 688, Control_c, 2, 7, 47
6, 689, Control_c, 2, 7, 47
6, 690, Control_c, 2, 7, 47
6, 691, Control_c, 2, 7, 47
6, 692, Control_c, 2, 7, 47
6, 693, Control_c, 2, 7, 47
6, 694, Control_c, 2, 7, 47
6, 695, Control_c, 2, 7, 47
6, 696, Note_off_c, 2, 62, 64
6, 696, Control_c, 2, 7, 47
6, 697, Control_c, 2, 7, 47
6, 698, Control_c, 2, 7, 47
6, 699, Control_c, 2, 7, 47
6, 700, Control_c, 2, 7, 47
6, 701, Control_c, 2, 7, 47
6, 702, Control_c, 2, 7, 47
6, 703, Control_c, 2, 7, 47
6, 704, Control_c, 2, 7, 47
6, 705, Control_c, 2, 7, 47
6, 706, Control_c, 2, 7, 47
6, 707, Control_c, 2, 7, 47
6, 708, Control_c, 2, 7, 47
6, 709, Control_c, 2, 7, 47
6, 710, Control_c, 2, 7, 47
6, 711, Control_c, 2, 7, 47
6, 712, Control_c, 2, 7, 47
6, 713, Control_c, 2, 7, 47
6, 714, Control_c, 2, 7, 47
6, 715, Control_c, 2, 7, 47
6, 716, Control_c, 2, 7, 47
6, 717, Control_c, 2, 7, 47
6, 718, Control_c, 2, 7, 48
6, 719, Control_c, 2, 7, 48
6, 720, Note_on_c, 2, 70, 96
6, 720, Control_c, 2, 7, 48
6, 721, Control_c, 2, 7, 48
6, 722, Control_c, 2, 7, 48
6, 723, Control_c, 2, 7, 48
6, 724, Control_c, 2, 7, 48
6, 725, Control_c, 2, 7, 48
6, 726, Control_c, 2, 7, 48
6, 727, Control_c, 2, 7, 48
6, 728, Control_c, 2, 7, 48
6, 729, Control_c, 2, 7, 48
6, 730, Control_c, 2, 7, 48
6, 731, Control_c, 2, 7, 48
6, 732, Control_c, 2, 7, 48
6, 733, Control_c, 2, 7, 48
6, 734, Control_c, 2, 7, 48
6, 735, Control_c, 2, 7, 48
6, 736, Control_c, 2, 7, 48
6, 737, Control_c, 2, 7, 48
6, 738, Control_c, 2, 7, 48
6, 739, Control_c, 2, 7, 48
6, 740, Control_c, 2, 7, 48
6, 741, Control_c, 2, 7, 48
6, 742, Control_c, 2, 7, 48
6, 743, Control_c, 2, 7, 48
6, 744, Note_off_c, 2, 70, 64
6, 744, Control_c, 2, 7, 48
6, 745, Control_c, 2, 7, 48
6, 746, Control_c, 2, 7, 48
6, 747, Control_c, 2, 7, 48
6, 748, Control_c, 2, 7, 48
6, 749, Control_c, 2, 7, 48
6, 750, Control_c, 2, 7, 48
6, 751, Control_c, 2, 7, 48
6, 752, Control_c, 2, 7, 48
6, 753, Control_c, 2, 7, 48
6, 754, Control_c, 2, 7, 48
6, 755, Control_c, 2, 7, 48
6, 756, Control_c, 2, 7, 48
6, 757, Control_c, 2, 7, 48
6, 758, Control_c, 2, 7, 48
6, 759, Control_c, 2, 7, 48
6, 760, Control_c, 2, 7, 48
6, 761, Control_c, 2, 7, 48
6, 762, Control_c, 2, 7, 48
6, 763, Control_c, 2, 7, 48
6, 764, Control_c, 2, 7, 48
6, 765, Control_c, 2, 7, 48
6, 766, Control_c, 2, 7, 48
6, 767, Control_c, 2, 7, 48
6, 768, Control_c, 2, 7, 48
6, 769, Control_c, 2, 7, 48
6, 770, Control_c, 2, 7, 48
6, 771, Control_c, 2, 7, 48
6, 772, Control_c, 2, 7, 48
6, 773, Control_c, 2, 7, 49
6, 774, Control_c, 2, 7, 49
6, 775, Control_c, 2, 7, 49
6, 776, Control_c, 2, 7, 49
6, 777, Control_c, 2, 7, 49
6, 778, Control_c, 2, 7, 49
6, 779, Control_c, 2, 7, 49
6, 780, Control_c, 2, 7, 49
6, 781, Control_c, 2, 7, 49
6, 782, Control_c, 2, 7, 49
6, 783, Control_c, 2, 7, 49
6, 784, Control_c, 2, 7, 49
6, 785, Control_c, 2, 7, 49
6, 786, Control_c, 2, 7, 49
6, 787, Control_c, 2, 7, 49
6, 788, Control_c, 2, 7, 49
6, 789, Control_c, 2, 7, 49
6, 790, Control_c, 2, 7, 49
6, 791, Control_c, 2, 7, 49
6, 792, Control_c, 2, 7, 49
6, 793, Control_c, 2, 7, 49
6, 794, Control_c, 2, 7, 49
6, 795, Control_c, 2, 7, 49
6, 796, Control_c, 2, 7, 49
6, 797, Control_c, 2, 7, 49
6, 798, Control_c, 2, 7, 49
6, 799, Control_c, 2, 7, 49
6, 800, Control_c, 2, 7, 49
6, 801, Control_c, 2, 7, 49
6, 802, Control_c, 2, 7, 49
6, 803, Control_c, 2, 7, 49
6, 804, Control_c, 2, 7, 49
6, 805, Control_c, 2, 7, 49
6, 806, Control_c, 2, 7, 49
6, 807, Control_c, 2, 7, 49
6, 808, Control_c, 2, 7, 49
6, 809, Control_c, 2, 7, 49
6, 810, Control_c, 2, 7, 49
6, 811, Control_c, 2, 7, 49
6, 812, Control_c, 2, 7, 49
6, 813, Control_c, 2, 7, 49
6, 814, Control_c, 2, 7, 49
6, 815, Control_c, 2, 7, 49
6, 816, Note_on_c, 2, 62, 96
6, 816, Control_c, 2, 7, 49
6, 817, Control_c, 2, 7, 49
6, 818, Control_c, 2, 7, 49
6, 819, Control_c, 2, 7, 49
6, 820, Control_c, 2, 7, 49
6, 821, Control_c, 2, 7, 49
6, 822, Control_c, 2, 7, 49
6, 823, Control_c, 2, 7, 49
6, 824, Control_c, 2, 7, 49
6, 825, Control_c, 2, 7, 49
6, 826, Control_c, 2, 7, 50
6, 827, Control_c, 2, 7, 50
6, 828, Control_c, 2, 7, 50
6, 829, Control_c, 2, 7, 50
6, 830, Control_c, 2, 7, 50
6, 831, Control_c, 2, 7, 50
6, 832, Control_c, 2, 7, 50
6, 833, Control_c, 2, 7, 50
6, 834, Control_c, 2, 7, 50
6, 835, Control_c, 2, 7, 50
6, 836, Control_c, 2, 7, 50
6, 837, Control_c, 2, 7, 50
6, 838, Control_c, 2, 7, 50
6, 839, Control_c, 2, 7, 50
6, 840, Note_off_c, 2, 62, 64
6, 840, Control_c, 2, 7, 50
6, 841, Control_c, 2, 7, 50
6, 842, Control_c, 2, 7, 50
6, 843, Control_c, 2, 7, 50
6, 844, Control_c, 2, 7, 50
6, 845, Control_c, 2, 7, 50
6, 846, Control_c, 2, 7, 50
6, 847, Control_c, 2, 7, 50
6, 848, Control_c, 2, 7, 50
6, 849, Control_c, 2, 7, 50
6, 850, Control_c, 2, 7, 50
6, 851, Control_c, 2, 7, 50
6, 852, Control_c, 2, 7, 50
6, 853, Control_c, 2, 7, 50
6, 854, Control_c, 2, 7, 50
6, 855, Control_c, 2, 7, 50
6, 856, Control_c, 2, 7, 50
6, 857, Control_c, 2, 7, 50
6, 858, Control_c, 2, 7, 50
6, 859, Control_c, 2, 7, 50
6, 860, Control_c, 2, 7, 50
6, 861, Control_c, 2, 7, 50
6, 862, Control_c, 2, 7, 50
6, 863, Control_c, 2, 7, 50
6, 864, Note_on_c, 2, 65, 96
6, 864, Control_c, 2, 7, 50
6, 865, Control_c, 2, 7, 50
6, 866, Control_c, 2, 7, 50
6, 867, Control_c, 2, 7, 50
6, 868, Control_c, 2, 7, 50
6, 869, Control_c, 2, 7, 50
6, 870, Control_c, 2, 7, 50
6, 871, Control_c, 2, 7, 50
6, 872, Control_c, 2, 7, 50
6, 873, Control_c, 2, 7, 50
6, 874, Control_c, 2, 7, 50
6, 875, Control_c, 2, 7, 50
6, 876, Control_c, 2, 7, 50
6, 877, Control_c, 2, 7, 50
6, 878, Control_c, 2, 7, 51
6, 879, Control_c, 2, 7, 51
6, 880, Control_c, 2, 7, 51
6, 881, Control_c, 2, 7, 51
6, 882, Control_c, 2, 7, 51
6, 883, Control_c, 2, 7, 51
6, 884, Control_c, 2, 7, 51
6, 885, Control_c, 2, 7, 51
6, 886, Control_c, 2, 7, 51
6, 887, Control_c, 2, 7, 51
6, 888, Note_off_c, 2, 65, 64
6, 888, Control_c, 2, 7, 51
6, 889, Control_c, 2, 7, 51
6, 890, Control_c, 2, 7, 51
6, 891, Control_c, 2, 7, 51
6, 892, Control_c, 2, 7, 51
6, 893, Control_c, 2, 7, 51
6, 894, Control_c, 2, 7, 51
6, 895, Control_c, 2, 7, 51
6, 896, Control_c, 2, 7, 51
6, 897, Control_c, 2, 7, 51
6, 898, Control_c, 2, 7, 51
6, 899, Control_c, 2, 7, 51
6, 900, Control_c, 2, 7, 51
6, 901, Control_c, 2, 7, 51
6, 902, Control_c, 2, 7, 51
6, 903, Control_c, 2, 7, 51
6, 904, Control_c, 2, 7, 51
6, 905, Control_c, 2, 7, 51
6, 906, Control_c, 2, 7, 51
6, 907, Control_c, 2, 7, 51
6, 908, Control_c, 2, 7, 51
6, 909, Control_c, 2, 7, 51
6, 910, Control_c, 2, 7, 51
6, 911, Control_c, 2, 7, 51
6, 912, Note_on_c, 2, 70, 96
6, 912, Control_c, 2, 7, 51
6, 913, Control_c, 2, 7, 51
6, 914, Control_c, 2, 7, 51
6, 915, Control_c, 2, 7, 51
6, 916, Control_c, 2, 7, 51
6, 917, Control_c, 2, 7, 51
6, 918, Control_c, 2, 7, 51
6, 919, Control_c, 2, 7, 51
6, 920, Control_c, 2, 7, 51
6, 921, Control_c, 2, 7, 51
6, 922, Control_c, 2, 7, 51
6, 923, Control_c, 2, 7, 51
6, 924, Control_c, 2, 7, 51
6, 925, Control_c, 2, 7, 51
6, 926, Control_c, 2, 7, 51
6, 927, Control_c, 2, 7, 51
6, 928, Control_c, 2, 7, 52
6, 929, Control_c, 2, 7, 52
6, 930, Control_c, 2, 7, 52
6, 931, Control_c, 2, 7, 52
6, 932, Control_c, 2, 7, 52
6, 933, Control_c, 2, 7, 52
6, 934, Control_c, 2, 7, 52
6, 935, Control_c, 2, 7, 52
6, 936, Note_off_c, 2, 70, 64
6, 936, Control_c, 2, 7, 52
6, 937, Control_c, 2, 7, 52
6, 938, Control_c, 2, 7, 52
6, 939, Control_c, 2, 7, 52
6, 940, Control_c, 2, 7, 52
6, 941, Control_c, 2, 7, 52
6, 942, Control_c, 2, 7, 52
6, 943, Control_c, 2, 7, 52
6, 944, Control_c, 2, 7, 52
6, 945, Control_c, 2, 7, 52
6, 946, Control_c, 2, 7, 52
6, 947, Control_c, 2, 7, 52
6, 948, Control_c, 2, 7, 52
6, 949, Control_c, 2, 7, 52
6, 950, Control_c, 2, 7, 52
6, 951, Control_c, 2, 7, 52
6, 952, Control_c, 2, 7, 52
6, 953, Control_c, 2, 7, 52
6, 954, Control_c, 2, 7, 52
6, 955, Control_c, 2, 7, 52
6, 956, Control_c, 2, 7, 52
6, 957, Control_c, 2, 7, 52
6, 958, Control_c, 2, 7, 52
6, 959, Control_c, 2, 7, 52
6, 960, Control_c, 2, 7, 52
6, 961, Control_c, 2, 7, 52
6, 962, Control_c, 2, 7, 52
6, 963, Control_c, 2, 7, 52
6, 964, Control_c, 2, 7, 52
6, 965, Control_c, 2, 7, 52
6, 966, Control_c, 2, 7, 52
6, 967, Control_c, 2, 7, 52
6, 968, Control_c, 2, 7, 52
6, 969, Control_c, 2, 7, 52
6, 970, Control_c, 2, 7, 52
6, 971, Control_c, 2, 7, 52
6, 972, Control_c, 2, 7, 52
6, 973, Control_c, 2, 7, 52
6, 974, Control_c, 2, 7, 52
6, 975, Control_c, 2, 7, 52
6, 976, Control_c, 2, 7, 52
6, 977, Control_c, 2, 7, 52
6, 978, Control_c, 2, 7, 53
6, 979, Control_c, 2, 7, 53
6, 980, Control_c, 2, 7, 53
6, 981, Control_c, 2, 7, 53
6, 982, Control_c, 2, 7, 53
6, 983, Control_c, 2, 7, 53
6, 984, Control_c, 2, 7, 53
6, 985, Control_c, 2, 7, 53
6, 986, Control_c, 2, 7, 53
6, 987, Control_c, 2, 7, 53
6, 988, Control_c, 2, 7, 53
6, 989, Control_c, 2, 7, 53
6, 990, Control_c, 2, 7, 53
6, 991, Control_c, 2, 7, 53
6, 992, Control_c, 2, 7, 53
6, 993, Control_c, 2, 7, 53
6, 994, Control_c, 2, 7, 53
6, 995, Control_c, 2, 7, 53
6, 996, Control_c, 2, 7, 53
6, 997, Control_c, 2, 7, 53
6, 998, Control_c, 2, 7, 53
6, 999, Control_c, 2, 7, 53
6, 1000, Control_c, 2, 7, 53
6, 1001, Control_c, 2, 7, 53
6, 1002, Control_c, 2, 7, 53
6, 1003, Control_c, 2, 7, 53
6, 1004, Control_c, 2, 7, 53
6, 1005, Control_c, 2, 7, 53
6, 1006, Control_c, 2, 7, 53
6, 1007, Control_c, 2, 7, 53
6, 1008, Note_on_c, 2, 65, 96
6, 1008, Control_c, 2, 7, 53
6, 1009, Control_c, 2, 7, 53
6, 1010, Control_c, 2, 7, 53
6, 1011, Control_c, 2, 7, 53
6, 1012, Control_c, 2, 7, 53
6, 1013, Control_c, 2, 7, 53
6, 1014, Control_c, 2, 7, 53
6, 1015, Control_c, 2, 7, 53
6, 1016, Control_c, 2, 7, 53
6, 1017, Control_c, 2, 7, 53
6, 1018, Control_c, 2, 7, 53
6, 1019, Control_c, 2, 7, 53
6, 1020, Control_c, 2, 7, 53
6, 1021, Control_c, 2, 7, 53
6, 1022, Control_c, 2, 7, 53
6, 1023, Control_c, 2, 7, 53
6, 1024, Control_c, 2, 7, 53
6, 1025, Control_c, 2, 7, 53
6, 1026, Control_c, 2, 7, 53
6, 1027, Control_c, 2, 7, 54
6, 1028, Control_c, 2, 7, 54
6, 1029, Control_c, 2, 7, 54
6, 1030, Control_c, 2, 7, 54
6, 1031, Control_c, 2, 7, 54
6, 1032, Note_off_c, 2, 65, 64
6, 1032, Control_c, 2, 7, 54
6, 1033, Control_c, 2, 7, 54
6, 1034, Control_c, 2, 7, 54
6, 1035, Control_c, 2, 7, 54
6, 1036, Control_c, 2, 7, 54
6, 1037, Control_c, 2, 7, 54
6, 1038, Control_c, 2, 7, 54
6, 1039, Control_c, 2, 7, 54
6, 1040, Control_c, 2, 7, 54
6, 1041, Control_c, 2, 7, 54
6, 1042, Control_c, 2, 7, 54
6, 1043, Control_c, 2, 7, 54
6, 1044, Control_c, 2, 7, 54
6, 1045, Control_c, 2, 7, 54
6, 1046, Control_c, 2, 7, 54
6, 1047, Control_c, 2, 7, 54
6, 1048, Control_c, 2, 7, 54
6, 1049, Control_c, 2, 7, 54
6, 1050, Control_c, 2, 7, 54
6, 1051, Control_c, 2, 7, 54
6, 1052, Control_c, 2, 7, 54
6, 1053, Control_c, 2, 7, 54
6, 1054, Control_c, 2, 7, 54
6, 1055, Control_c, 2, 7, 54
6, 1056, Note_on_c, 2, 67, 96
6, 1056, Control_c, 2, 7, 54
6, 1057, Control_c, 2, 7, 54
6, 1058, Control_c, 2, 7, 54
6, 1059, Control_c, 2, 7, 54
6, 1060, Control_c, 2, 7, 54
6, 1061, Control_c, 2, 7, 54
6, 1062, Control_c, 2, 7, 54
6, 1063, Control_c, 2, 7, 54
6, 1064, Control_c, 2, 7, 54
6, 1065, Control_c, 2, 7, 54
6, 1066, Control_c, 2, 7, 54
6, 1067, Control_c, 2, 7, 54
6, 1068, Control_c, 2, 7, 54
6, 1069, Control_c, 2, 7, 54
6, 1070, Control_c, 2, 7, 54
6, 1071, Control_c, 2, 7, 54
6, 1072, Control_c, 2, 7, 54
6, 1073, Control_c, 2, 7, 54
6, 1074, Control_c, 2, 7, 55
6, 1075, Control_c, 2, 7, 55
6, 1076, Control_c, 2, 7, 55
6, 1077, Control_c, 2, 7, 55
6, 1078, Control_c, 2, 7, 55
6, 1079, Control_c, 2, 7, 55
6, 1080, Note_off_c, 2, 67, 64
6, 1080, Control_c, 2, 7, 55
6, 1081, Control_c, 2, 7, 55
6, 1082, Control_c, 2, 7, 55
6, 1083, Control_c, 2, 7, 55
6, 1084, Control_c, 2, 7, 55
6, 1085, Control_c, 2, 7, 55
6, 1086, Control_c, 2, 7, 55
6, 1087, Control_c, 2, 7, 55
6, 1088, Control_c, 2, 7, 55
6, 1089, Control_c, 2, 7, 55
6, 1090, Control_c, 2, 7, 55
6, 1091, Control_c, 2, 7, 55
6, 1092, Control_c, 2, 7, 55
6, 1093, Control_c, 2, 7, 55
6, 1094, Control_c, 2, 7, 55
6, 1095, Control_c, 2, 7, 55
6, 1096, Control_c, 2, 7, 55
6, 1097, Control_c, 2, 7, 55
6, 1098, Control_c, 2, 7, 55
6, 1099, Control_c, 2, 7, 55
6, 1100, Control_c, 2, 7, 55
6, 1101, Control_c, 2, 7, 55
6, 1102, Control_c, 2, 7, 55
6, 1103, Control_c, 2, 7, 55
6, 1104, Note_on_c, 2, 74, 96
6, 1104, Control_c, 2, 7, 55
6, 1105, Control_c, 2, 7, 55
6, 1106, Control_c, 2, 7, 55
6, 1107, Control_c, 2, 7, 55
6, 1108, Control_c, 2, 7, 55
6, 1109, Control_c, 2, 7, 55
6, 1110, Control_c, 2, 7, 55
6, 1111, Control_c, 2, 7, 55
6, 1112, Control_c, 2, 7, 55
6, 1113, Control_c, 2, 7, 55
6, 1114, Control_c, 2, 7, 55
6, 1115, Control_c, 2, 7, 55
6, 1116, Control_c, 2, 7, 55
6, 1117, Control_c, 2, 7, 55
6, 1118, Control_c, 2, 7, 55
6, 1119, Control_c, 2, 7, 55
6, 1120, Control_c, 2, 7, 55
6, 1121, Control_c, 2, 7, 55
6, 1122, Control_c, 2, 7, 56
6, 1123, Control_c, 2, 7, 56
6, 1124, Control_c, 2, 7, 56
6, 1125, Control_c, 2, 7, 56
6, 1126, Control_c, 2, 7, 56
6, 1127, Control_c, 2, 7, 56
6, 1128, Note_off_c, 2, 74, 64
6, 1128, Control_c, 2, 7, 56
6, 1129, Control_c, 2, 7, 56
6, 1130, Control_c, 2, 7, 56
6, 1131, Control_c, 2, 7, 56
6, 1132, Control_c, 2, 7, 56
6, 1133, Control_c, 2, 7, 56
6, 1134, Control_c, 2, 7, 56
6, 1135, Control_c, 2, 7, 56
6, 1136, Control_c, 2, 7, 56
6, 1137, Control_c, 2, 7, 56
6, 1138, Control_c, 2, 7, 56
6, 1139, Control_c, 2, 7, 56
6, 1140, Control_c, 2, 7, 56
6, 1141, Control_c, 2, 7, 56
6, 1142, Control_c, 2, 7, 56
6, 1143, Control_c, 2, 7, 56
6, 1144, Control_c, 2, 7, 56
6, 1145, Control_c, 2, 7, 56
6, 1146, Control_c, 2, 7, 56
6, 1147, Control_c, 2, 7, 56
6, 1148, Control_c, 2, 7, 56
6, 1149, Control_c, 2, 7, 56
6, 1150, Control_c, 2, 7, 56
6, 1151, Control_c, 2, 7, 56
6, 1152, Control_c, 2, 7, 56
6, 1153, Control_c, 2, 7, 56
6, 1154, Control_c, 2, 7, 56
6, 1155, Control_c, 2, 7, 56
6, 1156, Control_c, 2, 7, 56
6, 1157, Control_c, 2, 7, 56
6, 1158, Control_c, 2, 7, 56
6, 1159, Control_c, 2, 7, 56
6, 1160, Control_c, 2, 7, 56
6, 1161, Control_c, 2, 7, 56
6, 1162, Control_c, 2, 7, 56
6, 1163, Control_c, 2, 7, 56
6, 1164, Control_c, 2, 7, 56
6, 1165, Control_c, 2, 7, 56
6, 1166, Control_c, 2, 7, 56
6, 1167, Control_c, 2, 7, 56
6, 1168, Control_c, 2, 7, 57
6, 1169, Control_c, 2, 7, 57
6, 1170, Control_c, 2, 7, 57
6, 1171, Control_c, 2, 7, 57
6, 1172, Control_c, 2, 7, 57
6, 1173, Control_c, 2, 7, 57
6, 1174, Control_c, 2, 7, 57
6, 1175, Control_c, 2, 7, 57
6, 1176, Control_c, 2, 7, 57
6, 1177, Control_c, 2, 7, 57
6, 1178, Control_c, 2, 7, 57
6, 1179, Control_c, 2, 7, 57
6, 1180, Control_c, 2, 7, 57
6, 1181, Control_c, 2, 7, 57
6, 1182, Control_c, 2, 7, 57
6, 1183, Control_c, 2, 7, 57
6, 1184, Control_c, 2, 7, 57
6, 1185, Control_c, 2, 7, 57
6, 1186, Note_on_c, 2, 76, 96
6, 1186, Control_c, 2, 7, 57
6, 1187, Control_c, 2, 7, 57
6, 1188, Control_c, 2, 7, 57
6, 1189, Control_c, 2, 7, 57
6, 1190, Control_c, 2, 7, 57
6, 1191, Control_c, 2, 7, 57
6, 1192, Control_c, 2, 7, 57
6, 1193, Control_c, 2, 7, 57
6, 1194, Control_c, 2, 7, 57
6, 1195, Control_c, 2, 7, 57
6, 1196, Control_c, 2, 7, 57
6, 1197, Control_c, 2, 7, 57
6, 1198, Control_c, 2, 7, 57
6, 1199, Control_c, 2, 7, 57
6, 1200, Note_on_c, 2, 77, 96
6, 1200, Control_c, 2, 7, 57
6, 1201, Control_c, 2, 7, 57
6, 1202, Note_off_c, 2, 76, 64
6, 1202, Control_c, 2, 7, 57
6, 1203, Control_c, 2, 7, 57
6, 1204, Control_c, 2, 7, 57
6, 1205, Control_c, 2, 7, 57
6, 1206, Control_c, 2, 7, 57
6, 1207, Control_c, 2, 7, 57
6, 1208, Control_c, 2, 7, 57
6, 1209, Control_c, 2, 7, 57
6, 1210, Control_c, 2, 7, 57
6, 1211, Control_c, 2, 7, 57
6, 1212, Control_c, 2, 7, 57
6, 1213, Control_c, 2, 7, 57
6, 1214, Control_c, 2, 7, 58
6, 1215, Control_c, 2, 7, 58
6, 1216, Control_c, 2, 7, 58
6, 1217, Control_c, 2, 7, 58
6, 1218, Control_c, 2, 7, 58
6, 1219, Control_c, 2, 7, 58
6, 1220, Control_c, 2, 7, 58
6, 1221, Control_c, 2, 7, 58
6, 1222, Control_c, 2, 7, 58
6, 1223, Control_c, 2, 7, 58
6, 1224, Note_off_c, 2, 77, 64
6, 1224, Control_c, 2, 7, 58
6, 1225, Control_c, 2, 7, 58
6, 1226, Control_c, 2, 7, 58
6, 1227, Control_c, 2, 7, 58
6, 1228, Control_c, 2, 7, 58
6, 1229, Control_c, 2, 7, 58
6, 1230, Control_c, 2, 7, 58
6, 1231, Control_c, 2, 7, 58
6, 1232, Control_c, 2, 7, 58
6, 1233, Control_c, 2, 7, 58
6, 1234, Control_c, 2, 7, 58
6, 1235, Control_c, 2, 7, 58
6, 1236, Control_c, 2, 7, 58
6, 1237, Control_c, 2, 7, 58
6, 1238, Control_c, 2, 7, 58
6, 1239, Control_c, 2, 7, 58
6, 1240, Control_c, 2, 7, 58
6, 1241, Control_c, 2, 7, 58
6, 1242, Control_c, 2, 7, 58
6, 1243, Control_c, 2, 7, 58
6, 1244, Control_c, 2, 7, 58
6, 1245, Control_c, 2, 7, 58
6, 1246, Control_c, 2, 7, 58
6, 1247, Control_c, 2, 7, 58
6, 1248, Note_on_c, 2, 72, 96
6, 1248, Control_c, 2, 7, 58
6, 1249, Control_c, 2, 7, 58
6, 1250, Control_c, 2, 7, 58
6, 1251, Control_c, 2, 7, 58
6, 1252, Control_c, 2, 7, 58
6, 1253, Control_c, 2, 7, 58
6, 1254, Control_c, 2, 7, 58
6, 1255, Control_c, 2, 7, 58
6, 1256, Control_c, 2, 7, 58
6, 1257, Control_c, 2, 7, 58
6, 1258, Control_c, 2, 7, 58
6, 1259, Control_c, 2, 7, 58
6, 1260, Control_c, 2, 7, 59
6, 1261, Control_c, 2, 7, 59
6, 1262, Control_c, 2, 7, 59
6, 1263, Control_c, 2, 7, 59
6, 1264, Control_c, 2, 7, 59
6, 1265, Control_c, 2, 7, 59
6, 1266, Control_c, 2, 7, 59
6, 1267, Control_c, 2, 7, 59
6, 1268, Control_c, 2, 7, 59
6, 1269, Control_c, 2, 7, 59
6, 1270, Control_c, 2, 7, 59
6, 1271, Control_c, 2, 7, 59
6, 1272, Note_off_c, 2, 72, 64
6, 1272, Control_c, 2, 7, 59
6, 1273, Control_c, 2, 7, 59
6, 1274, Control_c, 2, 7, 59
6, 1275, Control_c, 2, 7, 59
6, 1276, Control_c, 2, 7, 59
6, 1277, Control_c, 2, 7, 59
6, 1278, Control_c, 2, 7, 59
6, 1279, Control_c, 2, 7, 59
6, 1280, Control_c, 2, 7, 59
6, 1281, Control_c, 2, 7, 59
6, 1282, Control_c, 2, 7, 59
6, 1283, Control_c, 2, 7, 59
6, 1284, Control_c, 2, 7, 59
6, 1285, Control_c, 2, 7, 59
6, 1286, Control_c, 2, 7, 59
6, 1287, Control_c, 2, 7, 59
6, 1288, Control_c, 2, 7, 59
6, 1289, Control_c, 2, 7, 59
6, 1290, Control_c, 2, 7, 59
6, 1291, Control_c, 2, 7, 59
6, 1292, Control_c, 2, 7, 59
6, 1293, Control_c, 2, 7, 59
6, 1294, Control_c, 2, 7, 59
6, 1295, Control_c, 2, 7, 59
6, 1296, Note_on_c, 2, 74, 96
6, 1296, Control_c, 2, 7, 59
6, 1297, Control_c, 2, 7, 59
6, 1298, Control_c, 2, 7, 59
6, 1299, Control_c, 2, 7, 59
6, 1300, Control_c, 2, 7, 59
6, 1301, Control_c, 2, 7, 59
6, 1302, Control_c, 2, 7, 59
6, 1303, Control_c, 2, 7, 59
6, 1304, Control_c, 2, 7, 59
6, 1305, Control_c, 2, 7, 60
6, 1306, Control_c, 2, 7, 60
6, 1307, Control_c, 2, 7, 60
6, 1308, Control_c, 2, 7, 60
6, 1309, Control_c, 2, 7, 60
6, 1310, Control_c, 2, 7, 60
6, 1311, Control_c, 2, 7, 60
6, 1312, Control_c, 2, 7, 60
6, 1313, Control_c, 2, 7, 60
6, 1314, Control_c, 2, 7, 60
6, 1315, Control_c, 2, 7, 60
6, 1316, Control_c, 2, 7, 60
6, 1317, Control_c, 2, 7, 60
6, 1318, Control_c, 2, 7, 60
6, 1319, Control_c, 2, 7, 60
6, 1320, Note_off_c, 2, 74, 64
6, 1320, Control_c, 2, 7, 60
6, 1321, Control_c, 2, 7, 60
6, 1322, Control_c, 2, 7, 60
6, 1323, Control_c, 2, 7, 60
6, 1324, Control_c, 2, 7, 60
6, 1325, Control_c, 2, 7, 60
6, 1326, Control_c, 2, 7, 60
6, 1327, Control_c, 2, 7, 60
6, 1328, Control_c, 2, 7, 60
6, 1329, Control_c, 2, 7, 60
6, 1330, Control_c, 2, 7, 60
6, 1331, Control_c, 2, 7, 60
6, 1332, Control_c, 2, 7, 60
6, 1333, Control_c, 2, 7, 60
6, 1334, Control_c, 2, 7, 60
6, 1335, Control_c, 2, 7, 60
6, 1336, Control_c, 2, 7, 60
6, 1337, Control_c, 2, 7, 60
6, 1338, Control_c, 2, 7, 60
6, 1339, Control_c, 2, 7, 60
6, 1340, Control_c, 2, 7, 60
6, 1341, Control_c, 2, 7, 60
6, 1342, Control_c, 2, 7, 60
6, 1343, Control_c, 2, 7, 60
6, 1344, Note_on_c, 2, 69, 96
6, 1344, Control_c, 2, 7, 60
6, 1345, Control_c, 2, 7, 60
6, 1346, Control_c, 2, 7, 60
6, 1347, Control_c, 2, 7, 60
6, 1348, Control_c, 2, 7, 60
6, 1349, Control_c, 2, 7, 60
6, 1350, Control_c, 2, 7, 61
6, 1351, Control_c, 2, 7, 61
6, 1352, Control_c, 2, 7, 61
6, 1353, Control_c, 2, 7, 61
6, 1354, Control_c, 2, 7, 61
6, 1355, Control_c, 2, 7, 61
6, 1356, Control_c, 2, 7, 61
6, 1357, Control_c, 2, 7, 61
6, 1358, Control_c, 2, 7, 61
6, 1359, Control_c, 2, 7, 61
6, 1360, Control_c, 2, 7, 61
6, 1361, Control_c, 2, 7, 61
6, 1362, Control_c, 2, 7, 61
6, 1363, Control_c, 2, 7, 61
6, 1364, Control_c, 2, 7, 61
6, 1365, Control_c, 2, 7, 61
6, 1366, Control_c, 2, 7, 61
6, 1367, Control_c, 2, 7, 61
6, 1368, Note_off_c, 2, 69, 64
6, 1368, Control_c, 2, 7, 61
6, 1369, Control_c, 2, 7, 61
6, 1370, Control_c, 2, 7, 61
6, 1371, Control_c, 2, 7, 61
6, 1372, Control_c, 2, 7, 61
6, 1373, Control_c, 2, 7, 61
6, 1374, Control_c, 2, 7, 61
6, 1375, Control_c, 2, 7, 61
6, 1376, Control_c, 2, 7, 61
6, 1377, Control_c, 2, 7, 61
6, 1378, Control_c, 2, 7, 61
6, 1379, Control_c, 2, 7, 61
6, 1380, Control_c, 2, 7, 61
6, 1381, Control_c, 2, 7, 61
6, 1382, Control_c, 2, 7, 61
6, 1383, Control_c, 2, 7, 61
6, 1384, Control_c, 2, 7, 61
6, 1385, Control_c, 2, 7, 61
6, 1386, Control_c, 2, 7, 61
6, 1387, Control_c, 2, 7, 61
6, 1388, Control_c, 2, 7, 61
6, 1389, Control_c, 2, 7, 61
6, 1390, Control_c, 2, 7, 61
6, 1391, Control_c, 2, 7, 61
6, 1392, Note_on_c, 2, 70, 96
6, 1392, Control_c, 2, 7, 61
6, 1393, Control_c, 2, 7, 61
6, 1394, Control_c, 2, 7, 61
6, 1395, Control_c, 2, 7, 62
6, 1396, Control_c, 2, 7, 62
6, 1397, Control_c, 2, 7, 62
6, 1398, Control_c, 2, 7, 62
6, 1399, Control_c, 2, 7, 62
6, 1400, Control_c, 2, 7, 62
6, 1401, Control_c, 2, 7, 62
6, 1402, Control_c, 2, 7, 62
6, 1403, Control_c, 2, 7, 62
6, 1404, Control_c, 2, 7, 62
6, 1405, Control_c, 2, 7, 62
6, 1406, Control_c, 2, 7, 62
6, 1407, Control_c, 2, 7, 62
6, 1408, Control_c, 2, 7, 62
6, 1409, Control_c, 2, 7, 62
6, 1410, Control_c, 2, 7, 62
6, 1411, Control_c, 2, 7, 62
6, 1412, Control_c, 2, 7, 62
6, 1413, Control_c, 2, 7, 62
6, 1414, Control_c, 2, 7, 62
6, 1415, Control_c, 2, 7, 62
6, 1416, Note_off_c, 2, 70, 64
6, 1416, Control_c, 2, 7, 62
6, 1417, Control_c, 2, 7, 62
6, 1418, Control_c, 2, 7, 62
6, 1419, Control_c, 2, 7, 62
6, 1420, Control_c, 2, 7, 62
6, 1421, Control_c, 2, 7, 62
6, 1422, Control_c, 2, 7, 62
6, 1423, Control_c, 2, 7, 62
6, 1424, Control_c, 2, 7, 62
6, 1425, Control_c, 2, 7, 62
6, 1426, Control_c, 2, 7, 62
6, 1427, Control_c, 2, 7, 62
6, 1428, Control_c, 2, 7, 62
6, 1429, Control_c, 2, 7, 62
6, 1430, Control_c, 2, 7, 62
6, 1431, Control_c, 2, 7, 62
6, 1432, Control_c, 2, 7, 62
6, 1433, Control_c, 2, 7, 62
6, 1434, Control_c, 2, 7, 62
6, 1435, Control_c, 2, 7, 62
6, 1436, Control_c, 2, 7, 62
6, 1437, Control_c, 2, 7, 62
6, 1438, Control_c, 2, 7, 62
6, 1439, Control_c, 2, 7, 62
6, 1440, Note_on_c, 2, 67, 96
6, 1440, Control_c, 2, 7, 63
6, 1441, Control_c, 2, 7, 63
6, 1442, Control_c, 2, 7, 63
6, 1443, Control_c, 2, 7, 63
6, 1444, Control_c, 2, 7, 63
6, 1445, Control_c, 2, 7, 63
6, 1446, Control_c, 2, 7, 63
6, 1447, Control_c, 2, 7, 63
6, 1448, Control_c, 2, 7, 63
6, 1449, Control_c, 2, 7, 63
6, 1450, Control_c, 2, 7, 63
6, 1451, Control_c, 2, 7, 63
6, 1452, Control_c, 2, 7, 63
6, 1453, Control_c, 2, 7, 63
6, 1454, Control_c, 2, 7, 63
6, 1455, Control_c, 2, 7, 63
6, 1456, Control_c, 2, 7, 63
6, 1457, Control_c, 2, 7, 63
6, 1458, Control_c, 2, 7, 63
6, 1459, Control_c, 2, 7, 63
6, 1460, Control_c, 2, 7, 63
6, 1461, Control_c, 2, 7, 63
6, 1462, Control_c, 2, 7, 63
6, 1463, Control_c, 2, 7, 63
6, 1464, Note_off_c, 2, 67, 64
6, 1464, Control_c, 2, 7, 63
6, 1465, Control_c, 2, 7, 63
6, 1466, Control_c, 2, 7, 63
6, 1467, Control_c, 2, 7, 63
6, 1468, Control_c, 2, 7, 63
6, 1469, Control_c, 2, 7, 63
6, 1470, Control_c, 2, 7, 63
6, 1471, Control_c, 2, 7, 63
6, 1472, Control_c, 2, 7, 63
6, 1473, Control_c, 2, 7, 63
6, 1474, Control_c, 2, 7, 63
6, 1475, Control_c, 2, 7, 63
6, 1476, Control_c, 2, 7, 63
6, 1477, Control_c, 2, 7, 63
6, 1478, Control_c, 2, 7, 63
6, 1479, Control_c, 2, 7, 63
6, 1480, Control_c, 2, 7, 63
6, 1481, Control_c, 2, 7, 63
6, 1482, Control_c, 2, 7, 63
6, 1483, Control_c, 2, 7, 63
6, 1484, Control_c, 2, 7, 64
6, 1485, Control_c, 2, 7, 64
6, 1486, Control_c, 2, 7, 64
6, 1487, Control_c, 2, 7, 64
6, 1488, Note_on_c, 2, 69, 96
6, 1488, Control_c, 2, 7, 64
6, 1489, Control_c, 2, 7, 64
6, 1490, Control_c, 2, 7, 64
6, 1491, Control_c, 2, 7, 64
6, 1492, Control_c, 2, 7, 64
6, 1493, Control_c, 2, 7, 64
6, 1494, Control_c, 2, 7, 64
6, 1495, Control_c, 2, 7, 64
6, 1496, Control_c, 2, 7, 64
6, 1497, Control_c, 2, 7, 64
6, 1498, Control_c, 2, 7, 64
6, 1499, Control_c, 2, 7, 64
6, 1500, Control_c, 2, 7, 64
6, 1501, Control_c, 2, 7, 64
6, 1502, Control_c, 2, 7, 64
6, 1503, Control_c, 2, 7, 64
6, 1504, Control_c, 2, 7, 64
6, 1505, Control_c, 2, 7, 64
6, 1506, Control_c, 2, 7, 64
6, 1507, Control_c, 2, 7, 64
6, 1508, Control_c, 2, 7, 64
6, 1509, Control_c, 2, 7, 64
6, 1510, Control_c, 2, 7, 64
6, 1511, Control_c, 2, 7, 64
6, 1512, Note_off_c, 2, 69, 64
6, 1512, Control_c, 2, 7, 64
6, 1513, Control_c, 2, 7, 64
6, 1514, Control_c, 2, 7, 64
6, 1515, Control_c, 2, 7, 64
6, 1516, Control_c, 2, 7, 64
6, 1517, Control_c, 2, 7, 64
6, 1518, Control_c, 2, 7, 64
6, 1519, Control_c, 2, 7, 64
6, 1520, Control_c, 2, 7, 64
6, 1521, Control_c, 2, 7, 64
6, 1522, Control_c, 2, 7, 64
6, 1523, Control_c, 2, 7, 64
6, 1524, Control_c, 2, 7, 64
6, 1525, Control_c, 2, 7, 64
6, 1526, Control_c, 2, 7, 64
6, 1527, Control_c, 2, 7, 64
6, 1528, Control_c, 2, 7, 64
6, 1529, Control_c, 2, 7, 65
6, 1530, Control_c, 2, 7, 65
6, 1531, Control_c, 2, 7, 65
6, 1532, Control_c, 2, 7, 65
6, 1533, Control_c, 2, 7, 65
6, 1534, Control_c, 2, 7, 65
6, 1535, Control_c, 2, 7, 65
6, 1536, Control_c, 2, 7, 65
6, 1537, Control_c, 2, 7, 65
6, 1538, Control_c, 2, 7, 65
6, 1539, Control_c, 2, 7, 65
6, 1540, Control_c, 2, 7, 65
6, 1541, Control_c, 2, 7, 65
6, 1542, Control_c, 2, 7, 65
6, 1543, Control_c, 2, 7, 65
6, 1544, Control_c, 2, 7, 65
6, 1545, Control_c, 2, 7, 65
6, 1546, Control_c, 2, 7, 65
6, 1547, Control_c, 2, 7, 65
6, 1548, Control_c, 2, 7, 65
6, 1549, Control_c, 2, 7, 65
6, 1550, Control_c, 2, 7, 65
6, 1551, Control_c, 2, 7, 65
6, 1552, Control_c, 2, 7, 65
6, 1553, Control_c, 2, 7, 65
6, 1554, Control_c, 2, 7, 65
6, 1555, Control_c, 2, 7, 65
6, 1556, Control_c, 2, 7, 65
6, 1557, Control_c, 2, 7, 65
6, 1558, Control_c, 2, 7, 65
6, 1559, Control_c, 2, 7, 65
6, 1560, Control_c, 2, 7, 65
6, 1561, Control_c, 2, 7, 65
6, 1562, Control_c, 2, 7, 65
6, 1563, Control_c, 2, 7, 65
6, 1564, Control_c, 2, 7, 65
6, 1565, Control_c, 2, 7, 65
6, 1566, Control_c, 2, 7, 65
6, 1567, Control_c, 2, 7, 65
6, 1568, Control_c, 2, 7, 65
6, 1569, Control_c, 2, 7, 65
6, 1570, Control_c, 2, 7, 65
6, 1571, Control_c, 2, 7, 65
6, 1572, Control_c, 2, 7, 65
6, 1573, Control_c, 2, 7, 66
6, 1574, Control_c, 2, 7, 66
6, 1575, Control_c, 2, 7, 66
6, 1576, Control_c, 2, 7, 66
6, 1577, Control_c, 2, 7, 66
6, 1578, Control_c, 2, 7, 66
6, 1579, Control_c, 2, 7, 66
6, 1580, Control_c, 2, 7, 66
6, 1581, Control_c, 2, 7, 66
6, 1582, Control_c, 2, 7, 66
6, 1583, Control_c, 2, 7, 66
6, 1584, Note_on_c, 2, 60, 96
6, 1584, Control_c, 2, 7, 66
6, 1585, Control_c, 2, 7, 66
6, 1586, Control_c, 2, 7, 66
6, 1587, Control_c, 2, 7, 66
6, 1588, Control_c, 2, 7, 66
6, 1589, Control_c, 2, 7, 66
6, 1590, Control_c, 2, 7, 66
6, 1591, Control_c, 2, 7, 66
6, 1592, Control_c, 2, 7, 66
6, 1593, Control_c, 2, 7, 66
6, 1594, Control_c, 2, 7, 66
6, 1595, Control_c, 2, 7, 66
6, 1596, Control_c, 2, 7, 66
6, 1597, Control_c, 2, 7, 66
6, 1598, Control_c, 2, 7, 66
6, 1599, Control_c, 2, 7, 66
6, 1600, Control_c, 2, 7, 66
6, 1601, Control_c, 2, 7, 66
6, 1602, Control_c, 2, 7, 66
6, 1603, Control_c, 2, 7, 66
6, 1604, Control_c, 2, 7, 66
6, 1605, Control_c, 2, 7, 66
6, 1606, Control_c, 2, 7, 66
6, 1607, Control_c, 2, 7, 66
6, 1608, Note_off_c, 2, 60, 64
6, 1608, Control_c, 2, 7, 66
6, 1609, Control_c, 2, 7, 66
6, 1610, Control_c, 2, 7, 66
6, 1611, Control_c, 2, 7, 66
6, 1612, Control_c, 2, 7, 66
6, 1613, Control_c, 2, 7, 66
6, 1614, Control_c, 2, 7, 66
6, 1615, Control_c, 2, 7, 66
6, 1616, Control_c, 2, 7, 66
6, 1617, Control_c, 2, 7, 66
6, 1618, Control_c, 2, 7, 67
6, 1619, Control_c, 2, 7, 67
6, 1620, Control_c, 2, 7, 67
6, 1621, Control_c, 2, 7, 67
6, 1622, Control_c, 2, 7, 67
6, 1623, Control_c, 2, 7, 67
6, 1624, Control_c, 2, 7, 67
6, 1625, Control_c, 2, 7, 67
6, 1626, Control_c, 2, 7, 67
6, 1627, Control_c, 2, 7, 67
6, 1628, Control_c, 2, 7, 67
6, 1629, Control_c, 2, 7, 67
6, 1630, Control_c, 2, 7, 67
6, 1631, Control_c, 2, 7, 67
6, 1632, Note_on_c, 2, 65, 96
6, 1632, Control_c, 2, 7, 67
6, 1633, Control_c, 2, 7, 67
6, 1634, Control_c, 2, 7, 67
6, 1635, Control_c, 2, 7, 67
6, 1636, Control_c, 2, 7, 67
6, 1637, Control_c, 2, 7, 67
6, 1638, Control_c, 2, 7, 67
6, 1639, Control_c, 2, 7, 67
6, 1640, Control_c, 2, 7, 67
6, 1641, Control_c, 2, 7, 67
6, 1642, Control_c, 2, 7, 67
6, 1643, Control_c, 2, 7, 67
6, 1644, Control_c, 2, 7, 67
6, 1645, Control_c, 2, 7, 67
6, 1646, Control_c, 2, 7, 67
6, 1647, Control_c, 2, 7, 67
6, 1648, Control_c, 2, 7, 67
6, 1649, Control_c, 2, 7, 67
6, 1650, Control_c, 2, 7, 67
6, 1651, Control_c, 2, 7, 67
6, 1652, Control_c, 2, 7, 67
6, 1653, Control_c, 2, 7, 67
6, 1654, Control_c, 2, 7, 67
6, 1655, Control_c, 2, 7, 67
6, 1656, Note_off_c, 2, 65, 64
6, 1656, Control_c, 2, 7, 67
6, 1657, Control_c, 2, 7, 67
6, 1658, Control_c, 2, 7, 67
6, 1659, Control_c, 2, 7, 67
6, 1660, Control_c, 2, 7, 67
6, 1661, Control_c, 2, 7, 67
6, 1662, Control_c, 2, 7, 67
6, 1663, Control_c, 2, 7, 68
6, 1664, Control_c, 2, 7, 68
6, 1665, Control_c, 2, 7, 68
6, 1666, Control_c, 2, 7, 68
6, 1667, Control_c, 2, 7, 68
6, 1668, Control_c, 2, 7, 68
6, 1669, Control_c, 2, 7, 68
6, 1670, Control_c, 2, 7, 68
6, 1671, Control_c, 2, 7, 68
6, 1672, Control_c, 2, 7, 68
6, 1673, Control_c, 2, 7, 68
6, 1674, Control_c, 2, 7, 68
6, 1675, Control_c, 2, 7, 68
6, 1676, Control_c, 2, 7, 68
6, 1677, Control_c, 2, 7, 68
6, 1678, Control_c, 2, 7, 68
6, 1679, Control_c, 2, 7, 68
6, 1680, Note_on_c, 2, 69, 96
6, 1680, Control_c, 2, 7, 68
6, 1681, Control_c, 2, 7, 68
6, 1682, Control_c, 2, 7, 68
6, 1683, Control_c, 2, 7, 68
6, 1684, Control_c, 2, 7, 68
6, 1685, Control_c, 2, 7, 68
6, 1686, Control_c, 2, 7, 68
6, 1687, Control_c, 2, 7, 68
6, 1688, Control_c, 2, 7, 68
6, 1689, Control_c, 2, 7, 68
6, 1690, Control_c, 2, 7, 68
6, 1691, Control_c, 2, 7, 68
6, 1692, Control_c, 2, 7, 68
6, 1693, Control_c, 2, 7, 68
6, 1694, Control_c, 2, 7, 68
6, 1695, Control_c, 2, 7, 68
6, 1696, Control_c, 2, 7, 68
6, 1697, Control_c, 2, 7, 68
6, 1698, Control_c, 2, 7, 68
6, 1699, Control_c, 2, 7, 68
6, 1700, Control_c, 2, 7, 68
6, 1701, Control_c, 2, 7, 68
6, 1702, Control_c, 2, 7, 68
6, 1703, Control_c, 2, 7, 68
6, 1704, Note_off_c, 2, 69, 64
6, 1704, Control_c, 2, 7, 68
6, 1705, Control_c, 2, 7, 68
6, 1706, Control_c, 2, 7, 68
6, 1707, Control_c, 2, 7, 69
6, 1708, Control_c, 2, 7, 69
6, 1709, Control_c, 2, 7, 69
6, 1710, Control_c, 2, 7, 69
6, 1711, Control_c, 2, 7, 69
6, 1712, Control_c, 2, 7, 69
6, 1713, Control_c, 2, 7, 69
6, 1714, Control_c, 2, 7, 69
6, 1715, Control_c, 2, 7, 69
6, 1716, Control_c, 2, 7, 69
6, 1717, Control_c, 2, 7, 69
6, 1718, Control_c, 2, 7, 69
6, 1719, Control_c, 2, 7, 69
6, 1720, Control_c, 2, 7, 69
6, 1721, Control_c, 2, 7, 69
6, 1722, Control_c, 2, 7, 69
6, 1723, Control_c, 2, 7, 69
6, 1724, Control_c, 2, 7, 69
6, 1725, Control_c, 2, 7, 69
6, 1726, Control_c, 2, 7, 69
6, 1727, Control_c, 2, 7, 69
6, 1728, Control_c, 2, 7, 69
6, 1729, Control_c, 2, 7, 69
6, 1730, Control_c, 2, 7, 69
6, 1731, Control_c, 2, 7, 69
6, 1732, Control_c, 2, 7, 69
6, 1733, Control_c, 2, 7, 69
6, 1734, Control_c, 2, 7, 69
6, 1735, Control_c, 2, 7, 69
6, 1736, Control_c, 2, 7, 69
6, 1737, Control_c, 2, 7, 69
6, 1738, Control_c, 2, 7, 69
6, 1739, Control_c, 2, 7, 69
6, 1740, Control_c, 2, 7, 69
6, 1741, Control_c, 2, 7, 69
6, 1742, Control_c, 2, 7, 69
6, 1743, Control_c, 2, 7, 69
6, 1744, Control_c, 2, 7, 69
6, 1745, Control_c, 2, 7, 69
6, 1746, Control_c, 2, 7, 69
6, 1747, Control_c, 2, 7, 69
6, 1748, Control_c, 2, 7, 69
6, 1749, Control_c, 2, 7, 69
6, 1750, Control_c, 2, 7, 69
6, 1751, Control_c, 2, 7, 69
6, 1752, Control_c, 2, 7, 70
6, 1753, Control_c, 2, 7, 70
6, 1754, Control_c, 2, 7, 70
6, 1755, Control_c, 2, 7, 70
6, 1756, Control_c, 2, 7, 70
6, 1757, Control_c, 2, 7, 70
6, 1758, Control_c, 2, 7, 70
6, 1759, Control_c, 2, 7, 70
6, 1760, Control_c, 2, 7, 70
6, 1761, Control_c, 2, 7, 70
6, 1762, Control_c, 2, 7, 70
6, 1763, Control_c, 2, 7, 70
6, 1764, Control_c, 2, 7, 70
6, 1765, Control_c, 2, 7, 70
6, 1766, Control_c, 2, 7, 70
6, 1767, Control_c, 2, 7, 70
6, 1768, Control_c, 2, 7, 70
6, 1769, Control_c, 2, 7, 70
6, 1770, Control_c, 2, 7, 70
6, 1771, Control_c, 2, 7, 70
6, 1772, Control_c, 2, 7, 70
6, 1773, Control_c, 2, 7, 70
6, 1774, Control_c, 2, 7, 70
6, 1775, Control_c, 2, 7, 70
6, 1776, Note_on_c, 2, 62, 96
6, 1776, Control_c, 2, 7, 70
6, 1777, Control_c, 2, 7, 70
6, 1778, Control_c, 2, 7, 70
6, 1779, Control_c, 2, 7, 70
6, 1780, Control_c, 2, 7, 70
6, 1781, Control_c, 2, 7, 70
6, 1782, Control_c, 2, 7, 70
6, 1783, Control_c, 2, 7, 70
6, 1784, Control_c, 2, 7, 70
6, 1785, Control_c, 2, 7, 70
6, 1786, Control_c, 2, 7, 70
6, 1787, Control_c, 2, 7, 70
6, 1788, Control_c, 2, 7, 70
6, 1789, Control_c, 2, 7, 70
6, 1790, Control_c, 2, 7, 70
6, 1791, Control_c, 2, 7, 70
6, 1792, Control_c, 2, 7, 70
6, 1793, Control_c, 2, 7, 70
6, 1794, Control_c, 2, 7, 70
6, 1795, Control_c, 2, 7, 70
6, 1796, Control_c, 2, 7, 70
6, 1797, Control_c, 2, 7, 70
6, 1798, Control_c, 2, 7, 71
6, 1799, Control_c, 2, 7, 71
6, 1800, Note_off_c, 2, 62, 64
6, 1800, Control_c, 2, 7, 71
6, 1801, Control_c, 2, 7, 71
6, 1802, Control_c, 2, 7, 71
6, 1803, Control_c, 2, 7, 71
6, 1804, Control_c, 2, 7, 71
6, 1805, Control_c, 2, 7, 71
6, 1806, Control_c, 2, 7, 71
6, 1807, Control_c, 2, 7, 71
6, 1808, Control_c, 2, 7, 71
6, 1809, Control_c, 2, 7, 71
6, 1810, Control_c, 2, 7, 71
6, 1811, Control_c, 2, 7, 71
6, 1812, Control_c, 2, 7, 71
6, 1813, Control_c, 2, 7, 71
6, 1814, Control_c, 2, 7, 71
6, 1815, Control_c, 2, 7, 71
6, 1816, Control_c, 2, 7, 71
6, 1817, Control_c, 2, 7, 71
6, 1818, Control_c, 2, 7, 71
6, 1819, Control_c, 2, 7, 71
6, 1820, Control_c, 2, 7, 71
6, 1821, Control_c, 2, 7, 71
6, 1822, Control_c, 2, 7, 71
6, 1823, Control_c, 2, 7, 71
6, 1824, Note_on_c, 2, 65, 96
6, 1824, Control_c, 2, 7, 71
6, 1825, Control_c, 2, 7, 71
6, 1826, Control_c, 2, 7, 71
6, 1827, Control_c, 2, 7, 71
6, 1828, Control_c, 2, 7, 71
6, 1829, Control_c, 2, 7, 71
6, 1830, Control_c, 2, 7, 71
6, 1831, Control_c, 2, 7, 71
6, 1832, Control_c, 2, 7, 71
6, 1833, Control_c, 2, 7, 71
6, 1834, Control_c, 2, 7, 71
6, 1835, Control_c, 2, 7, 71
6, 1836, Control_c, 2, 7, 71
6, 1837, Control_c, 2, 7, 71
6, 1838, Control_c, 2, 7, 71
6, 1839, Control_c, 2, 7, 71
6, 1840, Control_c, 2, 7, 71
6, 1841, Control_c, 2, 7, 71
6, 1842, Control_c, 2, 7, 71
6, 1843, Control_c, 2, 7, 72
6, 1844, Control_c, 2, 7, 72
6, 1845, Control_c, 2, 7, 72
6, 1846, Control_c, 2, 7, 72
6, 1847, Control_c, 2, 7, 72
6, 1848, Note_off_c, 2, 65, 64
6, 1848, Control_c, 2, 7, 72
6, 1849, Control_c, 2, 7, 72
6, 1850, Control_c, 2, 7, 72
6, 1851, Control_c, 2, 7, 72
6, 1852, Control_c, 2, 7, 72
6, 1853, Control_c, 2, 7, 72
6, 1854, Control_c, 2, 7, 72
6, 1855, Control_c, 2, 7, 72
6, 1856, Control_c, 2, 7, 72
6, 1857, Control_c, 2, 7, 72
6, 1858, Control_c, 2, 7, 72
6, 1859, Control_c, 2, 7, 72
6, 1860, Control_c, 2, 7, 72
6, 1861, Control_c, 2, 7, 72
6, 1862, Control_c, 2, 7, 72
6, 1863, Control_c, 2, 7, 72
6, 1864, Control_c, 2, 7, 72
6, 1865, Control_c, 2, 7, 72
6, 1866, Control_c, 2, 7, 72
6, 1867, Control_c, 2, 7, 72
6, 1868, Control_c, 2, 7, 72
6, 1869, Control_c, 2, 7, 72
6, 1870, Control_c, 2, 7, 72
6, 1871, Control_c, 2, 7, 72
6, 1872, Note_on_c, 2, 70, 96
6, 1872, Control_c, 2, 7, 72
6, 1873, Control_c, 2, 7, 72
6, 1874, Control_c, 2, 7, 72
6, 1875, Control_c, 2, 7, 72
6, 1876, Control_c, 2, 7, 72
6, 1877, Control_c, 2, 7, 72
6, 1878, Control_c, 2, 7, 72
6, 1879, Control_c, 2, 7, 72
6, 1880, Control_c, 2, 7, 72
6, 1881, Control_c, 2, 7, 72
6, 1882, Control_c, 2, 7, 72
6, 1883, Control_c, 2, 7, 72
6, 1884, Control_c, 2, 7, 72
6, 1885, Control_c, 2, 7, 72
6, 1886, Control_c, 2, 7, 72
6, 1887, Control_c, 2, 7, 72
6, 1888, Control_c, 2, 7, 72
6, 1889, Control_c, 2, 7, 73
6, 1890, Control_c, 2, 7, 73
6, 1891, Control_c, 2, 7, 73
6, 1892, Control_c, 2, 7, 73
6, 1893, Control_c, 2, 7, 73
6, 1894, Control_c, 2, 7, 73
6, 1895, Control_c, 2, 7, 73
6, 1896, Note_off_c, 2, 70, 64
6, 1896, Control_c, 2, 7, 73
6, 1897, Control_c, 2, 7, 73
6, 1898, Control_c, 2, 7, 73
6, 1899, Control_c, 2, 7, 73
6, 1900, Control_c, 2, 7, 73
6, 1901, Control_c, 2, 7, 73
6, 1902, Control_c, 2, 7, 73
6, 1903, Control_c, 2, 7, 73
6, 1904, Control_c, 2, 7, 73
6, 1905, Control_c, 2, 7, 73
6, 1906, Control_c, 2, 7, 73
6, 1907, Control_c, 2, 7, 73
6, 1908, Control_c, 2, 7, 73
6, 1909, Control_c, 2, 7, 73
6, 1910, Control_c, 2, 7, 73
6, 1911, Control_c, 2, 7, 73
6, 1912, Control_c, 2, 7, 73
6, 1913, Control_c, 2, 7, 73
6, 1914, Control_c, 2, 7, 73
6, 1915, Control_c, 2, 7, 73
6, 1916, Control_c, 2, 7, 73
6, 1917, Control_c, 2, 7, 73
6, 1918, Control_c, 2, 7, 73
6, 1919, Control_c, 2, 7, 73
6, 1920, Control_c, 2, 7, 73
6, 1921, Control_c, 2, 7, 73
6, 1922, Control_c, 2, 7, 73
6, 1923, Control_c, 2, 7, 73
6, 1924, Control_c, 2, 7, 73
6, 1925, Control_c, 2, 7, 73
6, 1926, Control_c, 2, 7, 73
6, 1927, Control_c, 2, 7, 73
6, 1928, Control_c, 2, 7, 73
6, 1929, Control_c, 2, 7, 73
6, 1930, Control_c, 2, 7, 73
6, 1931, Control_c, 2, 7, 73
6, 1932, Control_c, 2, 7, 73
6, 1933, Control_c, 2, 7, 73
6, 1934, Control_c, 2, 7, 73
6, 1935, Control_c, 2, 7, 73
6, 1936, Control_c, 2, 7, 74
6, 1937, Control_c, 2, 7, 74
6, 1938, Control_c, 2, 7, 74
6, 1939, Control_c, 2, 7, 74
6, 1940, Control_c, 2, 7, 74
6, 1941, Control_c, 2, 7, 74
6, 1942, Control_c, 2, 7, 74
6, 1943, Control_c, 2, 7, 74
6, 1944, Control_c, 2, 7, 74
6, 1945, Control_c, 2, 7, 74
6, 1946, Control_c, 2, 7, 74
6, 1947, Control_c, 2, 7, 74
6, 1948, Control_c, 2, 7, 74
6, 1949, Control_c, 2, 7, 74
6, 1950, Control_c, 2, 7, 74
6, 1951, Control_c, 2, 7, 74
6, 1952, Control_c, 2, 7, 74
6, 1953, Control_c, 2, 7, 74
6, 1954, Control_c, 2, 7, 74
6, 1955, Control_c, 2, 7, 74
6, 1956, Note_on_c, 2, 73, 96
6, 1956, Control_c, 2, 7, 74
6, 1957, Control_c, 2, 7, 74
6, 1958, Control_c, 2, 7, 74
6, 1959, Control_c, 2, 7, 74
6, 1960, Control_c, 2, 7, 74
6, 1961, Control_c, 2, 7, 74
6, 1962, Control_c, 2, 7, 74
6, 1963, Control_c, 2, 7, 74
6, 1964, Control_c, 2, 7, 74
6, 1965, Control_c, 2, 7, 74
6, 1966, Control_c, 2, 7, 74
6, 1967, Control_c, 2, 7, 74
6, 1968, Note_off_c, 2, 73, 64
6, 1968, Note_on_c, 2, 74, 96
6, 1968, Control_c, 2, 7, 74
6, 1969, Control_c, 2, 7, 74
6, 1970, Control_c, 2, 7, 74
6, 1971, Control_c, 2, 7, 74
6, 1972, Control_c, 2, 7, 74
6, 1973, Control_c, 2, 7, 74
6, 1974, Control_c, 2, 7, 74
6, 1975, Control_c, 2, 7, 74
6, 1976, Control_c, 2, 7, 74
6, 1977, Control_c, 2, 7, 74
6, 1978, Control_c, 2, 7, 74
6, 1979, Control_c, 2, 7, 74
6, 1980, Control_c, 2, 7, 74
6, 1981, Control_c, 2, 7, 74
6, 1982, Control_c, 2, 7, 74
6, 1983, Control_c, 2, 7, 75
6, 1984, Control_c, 2, 7, 75
6, 1985, Control_c, 2, 7, 75
6, 1986, Control_c, 2, 7, 75
6, 1987, Control_c, 2, 7, 75
6, 1988, Control_c, 2, 7, 75
6, 1989, Control_c, 2, 7, 75
6, 1990, Control_c, 2, 7, 75
6, 1991, Control_c, 2, 7, 75
6, 1992, Note_off_c, 2, 74, 64
6, 1992, Control_c, 2, 7, 75
6, 1993, Control_c, 2, 7, 75
6, 1994, Control_c, 2, 7, 75
6, 1995, Control_c, 2, 7, 75
6, 1996, Control_c, 2, 7, 75
6, 1997, Control_c, 2, 7, 75
6, 1998, Control_c, 2, 7, 75
6, 1999, Control_c, 2, 7, 75
6, 2000, Control_c, 2, 7, 75
6, 2001, Control_c, 2, 7, 75
6, 2002, Control_c, 2, 7, 75
6, 2003, Control_c, 2, 7, 75
6, 2004, Control_c, 2, 7, 75
6, 2005, Control_c, 2, 7, 75
6, 2006, Control_c, 2, 7, 75
6, 2007, Control_c, 2, 7, 75
6, 2008, Control_c, 2, 7, 75
6, 2009, Control_c, 2, 7, 75
6, 2010, Control_c, 2, 7, 75
6, 2011, Control_c, 2, 7, 75
6, 2012, Control_c, 2, 7, 75
6, 2013, Control_c, 2, 7, 75
6, 2014, Control_c, 2, 7, 75
6, 2015, Control_c, 2, 7, 75
6, 2016, Note_on_c, 2, 72, 96
6, 2016, Note_on_c, 2, 72, 96
6, 2016, Control_c, 2, 7, 75
6, 2017, Control_c, 2, 7, 75
6, 2018, Control_c, 2, 7, 75
6, 2019, Control_c, 2, 7, 75
6, 2020, Control_c, 2, 7, 75
6, 2021, Control_c, 2, 7, 75
6, 2022, Control_c, 2, 7, 75
6, 2023, Control_c, 2, 7, 75
6, 2024, Control_c, 2, 7, 75
6, 2025, Control_c, 2, 7, 75
6, 2026, Control_c, 2, 7, 75
6, 2027, Control_c, 2, 7, 75
6, 2028, Control_c, 2, 7, 75
6, 2029, Control_c, 2, 7, 75
6, 2030, Control_c, 2, 7, 76
6, 2031, Control_c, 2, 7, 76
6, 2032, Control_c, 2, 7, 76
6, 2033, Control_c, 2, 7, 76
6, 2034, Control_c, 2, 7, 76
6, 2035, Control_c, 2, 7, 76
6, 2036, Control_c, 2, 7, 76
6, 2037, Control_c, 2, 7, 76
6, 2038, Control_c, 2, 7, 76
6, 2039, Control_c, 2, 7, 76
6, 2040, Note_off_c, 2, 72, 64
6, 2040, Note_off_c, 2, 72, 64
6, 2040, Control_c, 2, 7, 76
6, 2041, Control_c, 2, 7, 76
6, 2042, Control_c, 2, 7, 76
6, 2043, Control_c, 2, 7, 76
6, 2044, Control_c, 2, 7, 76
6, 2045, Control_c, 2, 7, 76
6, 2046, Control_c, 2, 7, 76
6, 2047, Control_c, 2, 7, 76
6, 2048, Control_c, 2, 7, 76
6, 2049, Control_c, 2, 7, 76
6, 2050, Control_c, 2, 7, 76
6, 2051, Control_c, 2, 7, 76
6, 2052, Control_c, 2, 7, 76
6, 2053, Control_c, 2, 7, 76
6, 2054, Control_c, 2, 7, 76
6, 2055, Control_c, 2, 7, 76
6, 2056, Control_c, 2, 7, 76
6, 2057, Control_c, 2, 7, 76
6, 2058, Control_c, 2, 7, 76
6, 2059, Control_c, 2, 7, 76
6, 2060, Control_c, 2, 7, 76
6, 2061, Control_c, 2, 7, 76
6, 2062, Control_c, 2, 7, 76
6, 2063, Control_c, 2, 7, 76
6, 2064, Note_on_c, 2, 70, 96
6, 2064, Note_on_c, 2, 70, 96
6, 2064, Control_c, 2, 7, 76
6, 2065, Control_c, 2, 7, 76
6, 2066, Control_c, 2, 7, 76
6, 2067, Control_c, 2, 7, 76
6, 2068, Control_c, 2, 7, 76
6, 2069, Control_c, 2, 7, 76
6, 2070, Control_c, 2, 7, 76
6, 2071, Control_c, 2, 7, 76
6, 2072, Control_c, 2, 7, 76
6, 2073, Control_c, 2, 7, 76
6, 2074, Control_c, 2, 7, 76
6, 2075, Control_c, 2, 7, 76
6, 2076, Control_c, 2, 7, 76
6, 2077, Control_c, 2, 7, 76
6, 2078, Control_c, 2, 7, 76
6, 2079, Control_c, 2, 7, 77
6, 2080, Control_c, 2, 7, 77
6, 2081, Control_c, 2, 7, 77
6, 2082, Control_c, 2, 7, 77
6, 2083, Control_c, 2, 7, 77
6, 2084, Control_c, 2, 7, 77
6, 2085, Control_c, 2, 7, 77
6, 2086, Control_c, 2, 7, 77
6, 2087, Control_c, 2, 7, 77
6, 2088, Note_off_c, 2, 70, 64
6, 2088, Note_off_c, 2, 70, 64
6, 2088, Control_c, 2, 7, 77
6, 2089, Control_c, 2, 7, 77
6, 2090, Control_c, 2, 7, 77
6, 2091, Control_c, 2, 7, 77
6, 2092, Control_c, 2, 7, 77
6, 2093, Control_c, 2, 7, 77
6, 2094, Control_c, 2, 7, 77
6, 2095, Control_c, 2, 7, 77
6, 2096, Control_c, 2, 7, 77
6, 2097, Control_c, 2, 7, 77
6, 2098, Control_c, 2, 7, 77
6, 2099, Control_c, 2, 7, 77
6, 2100, Control_c, 2, 7, 77
6, 2101, Control_c, 2, 7, 77
6, 2102, Control_c, 2, 7, 77
6, 2103, Control_c, 2, 7, 77
6, 2104, Control_c, 2, 7, 77
6, 2105, Control_c, 2, 7, 77
6, 2106, Control_c, 2, 7, 77
6, 2107, Control_c, 2, 7, 77
6, 2108, Control_c, 2, 7, 77
6, 2109, Control_c, 2, 7, 77
6, 2110, Control_c, 2, 7, 77
6, 2111, Control_c, 2, 7, 77
6, 2112, Note_on_c, 2, 69, 96
6, 2112, Control_c, 2, 7, 77
6, 2113, Control_c, 2, 7, 77
6, 2114, Control_c, 2, 7, 77
6, 2115, Control_c, 2, 7, 77
6, 2116, Control_c, 2, 7, 77
6, 2117, Control_c, 2, 7, 77
6, 2118, Control_c, 2, 7, 77
6, 2119, Control_c, 2, 7, 77
6, 2120, Control_c, 2, 7, 77
6, 2121, Control_c, 2, 7, 77
6, 2122, Control_c, 2, 7, 77
6, 2123, Control_c, 2, 7, 77
6, 2124, Control_c, 2, 7, 77
6, 2125, Control_c, 2, 7, 77
6, 2126, Control_c, 2, 7, 77
6, 2127, Control_c, 2, 7, 77
6, 2128, Control_c, 2, 7, 78
6, 2129, Control_c, 2, 7, 78
6, 2130, Control_c, 2, 7, 78
6, 2131, Control_c, 2, 7, 78
6, 2132, Control_c, 2, 7, 78
6, 2133, Control_c, 2, 7, 78
6, 2134, Control_c, 2, 7, 78
6, 2135, Control_c, 2, 7, 78
6, 2136, Note_off_c, 2, 69, 64
6, 2136, Control_c, 2, 7, 78
6, 2137, Control_c, 2, 7, 78
6, 2138, Control_c, 2, 7, 78
6, 2139, Control_c, 2, 7, 78
6, 2140, Control_c, 2, 7, 78
6, 2141, Control_c, 2, 7, 78
6, 2142, Control_c, 2, 7, 78
6, 2143, Control_c, 2, 7, 78
6, 2144, Control_c, 2, 7, 78
6, 2145, Control_c, 2, 7, 78
6, 2146, Control_c, 2, 7, 78
6, 2147, Control_c, 2, 7, 78
6, 2148, Control_c, 2, 7, 78
6, 2149, Control_c, 2, 7, 78
6, 2150, Control_c, 2, 7, 78
6, 2151, Control_c, 2, 7, 78
6, 2152, Control_c, 2, 7, 78
6, 2153, Control_c, 2, 7, 78
6, 2154, Control_c, 2, 7, 78
6, 2155, Control_c, 2, 7, 78
6, 2156, Control_c, 2, 7, 78
6, 2157, Control_c, 2, 7, 78
6, 2158, Control_c, 2, 7, 78
6, 2159, Control_c, 2, 7, 78
6, 2160, Note_on_c, 2, 65, 96
6, 2160, Note_on_c, 2, 65, 96
6, 2160, Control_c, 2, 7, 78
6, 2161, Control_c, 2, 7, 78
6, 2162, Control_c, 2, 7, 78
6, 2163, Control_c, 2, 7, 78
6, 2164, Control_c, 2, 7, 78
6, 2165, Control_c, 2, 7, 78
6, 2166, Control_c, 2, 7, 78
6, 2167, Control_c, 2, 7, 78
6, 2168, Control_c, 2, 7, 78
6, 2169, Control_c, 2, 7, 78
6, 2170, Control_c, 2, 7, 78
6, 2171, Control_c, 2, 7, 78
6, 2172, Control_c, 2, 7, 78
6, 2173, Control_c, 2, 7, 78
6, 2174, Control_c, 2, 7, 78
6, 2175, Control_c, 2, 7, 78
6, 2176, Control_c, 2, 7, 78
6, 2177, Control_c, 2, 7, 78
6, 2178, Control_c, 2, 7, 79
6, 2179, Control_c, 2, 7, 79
6, 2180, Control_c, 2, 7, 79
6, 2181, Control_c, 2, 7, 79
6, 2182, Control_c, 2, 7, 79
6, 2183, Control_c, 2, 7, 79
6, 2184, Note_off_c, 2, 65, 64
6, 2184, Note_off_c, 2, 65, 64
6, 2184, Control_c, 2, 7, 79
6, 2185, Control_c, 2, 7, 79
6, 2186, Control_c, 2, 7, 79
6, 2187, Control_c, 2, 7, 79
6, 2188, Control_c, 2, 7, 79
6, 2189, Control_c, 2, 7, 79
6, 2190, Control_c, 2, 7, 79
6, 2191, Control_c, 2, 7, 79
6, 2192, Control_c, 2, 7, 79
6, 2193, Control_c, 2, 7, 79
6, 2194, Control_c, 2, 7, 79
6, 2195, Control_c, 2, 7, 79
6, 2196, Control_c, 2, 7, 79
6, 2197, Control_c, 2, 7, 79
6, 2198, Control_c, 2, 7, 79
6, 2199, Control_c, 2, 7, 79
6, 2200, Control_c, 2, 7, 79
6, 2201, Control_c, 2, 7, 79
6, 2202, Control_c, 2, 7, 79
6, 2203, Control_c, 2, 7, 79
6, 2204, Control_c, 2, 7, 79
6, 2205, Control_c, 2, 7, 79
6, 2206, Control_c, 2, 7, 79
6, 2207, Control_c, 2, 7, 79
6, 2208, Note_on_c, 2, 62, 96
6, 2208, Control_c, 2, 7, 79
6, 2209, Control_c, 2, 7, 79
6, 2210, Control_c, 2, 7, 79
6, 2211, Control_c, 2, 7, 79
6, 2212, Control_c, 2, 7, 79
6, 2213, Control_c, 2, 7, 79
6, 2214, Control_c, 2, 7, 79
6, 2215, Control_c, 2, 7, 79
6, 2216, Control_c, 2, 7, 79
6, 2217, Control_c, 2, 7, 79
6, 2218, Control_c, 2, 7, 79
6, 2219, Control_c, 2, 7, 79
6, 2220, Control_c, 2, 7, 79
6, 2221, Control_c, 2, 7, 79
6, 2222, Control_c, 2, 7, 79
6, 2223, Control_c, 2, 7, 79
6, 2224, Control_c, 2, 7, 79
6, 2225, Control_c, 2, 7, 79
6, 2226, Control_c, 2, 7, 79
6, 2227, Control_c, 2, 7, 79
6, 2228, Control_c, 2, 7, 79
6, 2229, Control_c, 2, 7, 79
6, 2230, Control_c, 2, 7, 80
6, 2231, Control_c, 2, 7, 80
6, 2232, Note_off_c, 2, 62, 64
6, 2232, Control_c, 2, 7, 80
6, 2233, Control_c, 2, 7, 80
6, 2234, Control_c, 2, 7, 80
6, 2235, Control_c, 2, 7, 80
6, 2236, Control_c, 2, 7, 80
6, 2237, Control_c, 2, 7, 80
6, 2238, Control_c, 2, 7, 80
6, 2239, Control_c, 2, 7, 80
6, 2240, Control_c, 2, 7, 80
6, 2241, Control_c, 2, 7, 80
6, 2242, Control_c, 2, 7, 80
6, 2243, Control_c, 2, 7, 80
6, 2244, Control_c, 2, 7, 80
6, 2245, Control_c, 2, 7, 80
6, 2246, Control_c, 2, 7, 80
6, 2247, Control_c, 2, 7, 80
6, 2248, Control_c, 2, 7, 80
6, 2249, Control_c, 2, 7, 80
6, 2250, Control_c, 2, 7, 80
6, 2251, Control_c, 2, 7, 80
6, 2252, Control_c, 2, 7, 80
6, 2253, Control_c, 2, 7, 80
6, 2254, Control_c, 2, 7, 80
6, 2255, Control_c, 2, 7, 80
6, 2256, Note_on_c, 2, 70, 96
6, 2256, Control_c, 2, 7, 80
6, 2257, Control_c, 2, 7, 80
6, 2258, Control_c, 2, 7, 80
6, 2259, Control_c, 2, 7, 80
6, 2260, Control_c, 2, 7, 80
6, 2261, Control_c, 2, 7, 80
6, 2262, Control_c, 2, 7, 80
6, 2263, Control_c, 2, 7, 80
6, 2264, Control_c, 2, 7, 80
6, 2265, Control_c, 2, 7, 80
6, 2266, Control_c, 2, 7, 80
6, 2267, Control_c, 2, 7, 80
6, 2268, Control_c, 2, 7, 80
6, 2269, Control_c, 2, 7, 80
6, 2270, Control_c, 2, 7, 80
6, 2271, Control_c, 2, 7, 80
6, 2272, Control_c, 2, 7, 80
6, 2273, Control_c, 2, 7, 80
6, 2274, Control_c, 2, 7, 80
6, 2275, Control_c, 2, 7, 80
6, 2276, Control_c, 2, 7, 80
6, 2277, Control_c, 2, 7, 80
6, 2278, Control_c, 2, 7, 80
6, 2279, Control_c, 2, 7, 80
6, 2280, Note_off_c, 2, 70, 64
6, 2280, Control_c, 2, 7, 80
6, 2281, Control_c, 2, 7, 80
6, 2282, Control_c, 2, 7, 80
6, 2283, Control_c, 2, 7, 81
6, 2284, Control_c, 2, 7, 81
6, 2285, Control_c, 2, 7, 81
6, 2286, Control_c, 2, 7, 81
6, 2287, Control_c, 2, 7, 81
6, 2288, Control_c, 2, 7, 81
6, 2289, Control_c, 2, 7, 81
6, 2290, Control_c, 2, 7, 81
6, 2291, Control_c, 2, 7, 81
6, 2292, Control_c, 2, 7, 81
6, 2293, Control_c, 2, 7, 81
6, 2294, Control_c, 2, 7, 81
6, 2295, Control_c, 2, 7, 81
6, 2296, Control_c, 2, 7, 81
6, 2297, Control_c, 2, 7, 81
6, 2298, Control_c, 2, 7, 81
6, 2299, Control_c, 2, 7, 81
6, 2300, Control_c, 2, 7, 81
6, 2301, Control_c, 2, 7, 81
6, 2302, Control_c, 2, 7, 81
6, 2303, Control_c, 2, 7, 81
6, 2304, Control_c, 2, 7, 81
6, 2305, Control_c, 2, 7, 81
6, 2306, Control_c, 2, 7, 81
6, 2307, Control_c, 2, 7, 81
6, 2308, Control_c, 2, 7, 81
6, 2309, Control_c, 2, 7, 81
6, 2310, Control_c, 2, 7, 81
6, 2311, Control_c, 2, 7, 81
6, 2312, Control_c, 2, 7, 81
6, 2313, Control_c, 2, 7, 81
6, 2314, Control_c, 2, 7, 81
6, 2315, Control_c, 2, 7, 81
6, 2316, Control_c, 2, 7, 81
6, 2317, Control_c, 2, 7, 81
6, 2318, Control_c, 2, 7, 81
6, 2319, Control_c, 2, 7, 81
6, 2320, Control_c, 2, 7, 81
6, 2321, Control_c, 2, 7, 81
6, 2322, Control_c, 2, 7, 81
6, 2323, Control_c, 2, 7, 81
6, 2324, Control_c, 2, 7, 81
6, 2325, Control_c, 2, 7, 81
6, 2326, Control_c, 2, 7, 81
6, 2327, Control_c, 2, 7, 81
6, 2328, Control_c, 2, 7, 81
6, 2329, Control_c, 2, 7, 81
6, 2330, Control_c, 2, 7, 81
6, 2331, Control_c, 2, 7, 81
6, 2332, Control_c, 2, 7, 81
6, 2333, Control_c, 2, 7, 81
6, 2334, Control_c, 2, 7, 81
6, 2335, Control_c, 2, 7, 81
6, 2336, Control_c, 2, 7, 81
6, 2337, Control_c, 2, 7, 82
6, 2338, Control_c, 2, 7, 82
6, 2339, Control_c, 2, 7, 82
6, 2340, Control_c, 2, 7, 82
6, 2341, Control_c, 2, 7, 82
6, 2342, Control_c, 2, 7, 82
6, 2343, Control_c, 2, 7, 82
6, 2344, Control_c, 2, 7, 82
6, 2345, Control_c, 2, 7, 82
6, 2346, Control_c, 2, 7, 82
6, 2347, Control_c, 2, 7, 82
6, 2348, Control_c, 2, 7, 82
6, 2349, Control_c, 2, 7, 82
6, 2350, Control_c, 2, 7, 82
6, 2351, Control_c, 2, 7, 82
6, 2352, Note_on_c, 2, 62, 96
6, 2352, Control_c, 2, 7, 82
6, 2353, Control_c, 2, 7, 82
6, 2354, Control_c, 2, 7, 82
6, 2355, Control_c, 2, 7, 82
6, 2356, Control_c, 2, 7, 82
6, 2357, Control_c, 2, 7, 82
6, 2358, Control_c, 2, 7, 82
6, 2359, Control_c, 2, 7, 82
6, 2360, Control_c, 2, 7, 82
6, 2361, Control_c, 2, 7, 82
6, 2362, Control_c, 2, 7, 82
6, 2363, Control_c, 2, 7, 82
6, 2364, Control_c, 2, 7, 82
6, 2365, Control_c, 2, 7, 82
6, 2366, Control_c, 2, 7, 82
6, 2367, Control_c, 2, 7, 82
6, 2368, Control_c, 2, 7, 82
6, 2369, Control_c, 2, 7, 82
6, 2370, Control_c, 2, 7, 82
6, 2371, Control_c, 2, 7, 82
6, 2372, Control_c, 2, 7, 82
6, 2373, Control_c, 2, 7, 82
6, 2374, Control_c, 2, 7, 82
6, 2375, Control_c, 2, 7, 82
6, 2376, Note_off_c, 2, 62, 64
6, 2376, Control_c, 2, 7, 82
6, 2377, Control_c, 2, 7, 82
6, 2378, Control_c, 2, 7, 82
6, 2379, Control_c, 2, 7, 82
6, 2380, Control_c, 2, 7, 82
6, 2381, Control_c, 2, 7, 82
6, 2382, Control_c, 2, 7, 82
6, 2383, Control_c, 2, 7, 82
6, 2384, Control_c, 2, 7, 82
6, 2385, Control_c, 2, 7, 82
6, 2386, Control_c, 2, 7, 82
6, 2387, Control_c, 2, 7, 82
6, 2388, Control_c, 2, 7, 82
6, 2389, Control_c, 2, 7, 82
6, 2390, Control_c, 2, 7, 82
6, 2391, Control_c, 2, 7, 82
6, 2392, Control_c, 2, 7, 82
6, 2393, Control_c, 2, 7, 83
6, 2394, Control_c, 2, 7, 83
6, 2395, Control_c, 2, 7, 83
6, 2396, Control_c, 2, 7, 83
6, 2397, Control_c, 2, 7, 83
6, 2398, Control_c, 2, 7, 83
6, 2399, Control_c, 2, 7, 83
6, 2400, Note_on_c, 2, 65, 96
6, 2400, Control_c, 2, 7, 83
6, 2401, Control_c, 2, 7, 83
6, 2402, Control_c, 2, 7, 83
6, 2403, Control_c, 2, 7, 83
6, 2404, Control_c, 2, 7, 83
6, 2405, Control_c, 2, 7, 83
6, 2406, Control_c, 2, 7, 83
6, 2407, Control_c, 2, 7, 83
6, 2408, Control_c, 2, 7, 83
6, 2409, Control_c, 2, 7, 83
6, 2410, Control_c, 2, 7, 83
6, 2411, Control_c, 2, 7, 83
6, 2412, Control_c, 2, 7, 83
6, 2413, Control_c, 2, 7, 83
6, 2414, Control_c, 2, 7, 83
6, 2415, Control_c, 2, 7, 83
6, 2416, Control_c, 2, 7, 83
6, 2417, Control_c, 2, 7, 83
6, 2418, Control_c, 2, 7, 83
6, 2419, Control_c, 2, 7, 83
6, 2420, Control_c, 2, 7, 83
6, 2421, Control_c, 2, 7, 83
6, 2422, Control_c, 2, 7, 83
6, 2423, Control_c, 2, 7, 83
6, 2424, Note_off_c, 2, 65, 64
6, 2424, Control_c, 2, 7, 83
6, 2425, Control_c, 2, 7, 83
6, 2426, Control_c, 2, 7, 83
6, 2427, Control_c, 2, 7, 83
6, 2428, Control_c, 2, 7, 83
6, 2429, Control_c, 2, 7, 83
6, 2430, Control_c, 2, 7, 83
6, 2431, Control_c, 2, 7, 83
6, 2432, Control_c, 2, 7, 83
6, 2433, Control_c, 2, 7, 83
6, 2434, Control_c, 2, 7, 83
6, 2435, Control_c, 2, 7, 83
6, 2436, Control_c, 2, 7, 83
6, 2437, Control_c, 2, 7, 83
6, 2438, Control_c, 2, 7, 83
6, 2439, Control_c, 2, 7, 83
6, 2440, Control_c, 2, 7, 83
6, 2441, Control_c, 2, 7, 83
6, 2442, Control_c, 2, 7, 83
6, 2443, Control_c, 2, 7, 83
6, 2444, Control_c, 2, 7, 83
6, 2445, Control_c, 2, 7, 83
6, 2446, Control_c, 2, 7, 83
6, 2447, Control_c, 2, 7, 83
6, 2448, Note_on_c, 2, 70, 96
6, 2448, Control_c, 2, 7, 83
6, 2449, Control_c, 2, 7, 83
6, 2450, Control_c, 2, 7, 83
6, 2451, Control_c, 2, 7, 83
6, 2452, Control_c, 2, 7, 84
6, 2453, Control_c, 2, 7, 84
6, 2454, Control_c, 2, 7, 84
6, 2455, Control_c, 2, 7, 84
6, 2456, Control_c, 2, 7, 84
6, 2457, Control_c, 2, 7, 84
6, 2458, Control_c, 2, 7, 84
6, 2459, Control_c, 2, 7, 84
6, 2460, Control_c, 2, 7, 84
6, 2461, Control_c, 2, 7, 84
6, 2462, Control_c, 2, 7, 84
6, 2463, Control_c, 2, 7, 84
6, 2464, Control_c, 2, 7, 84
6, 2465, Control_c, 2, 7, 84
6, 2466, Control_c, 2, 7, 84
6, 2467, Control_c, 2, 7, 84
6, 2468, Control_c, 2, 7, 84
6, 2469, Control_c, 2, 7, 84
6, 2470, Control_c, 2, 7, 84
6, 2471, Control_c, 2, 7, 84
6, 2472, Note_off_c, 2, 70, 64
6, 2472, Control_c, 2, 7, 84
6, 2473, Control_c, 2, 7, 84
6, 2474, Control_c, 2, 7, 84
6, 2475, Control_c, 2, 7, 84
6, 2476, Control_c, 2, 7, 84
6, 2477, Control_c, 2, 7, 84
6, 2478, Control_c, 2, 7, 84
6, 2479, Control_c, 2, 7, 84
6, 2480, Control_c, 2, 7, 84
6, 2481, Control_c, 2, 7, 84
6, 2482, Control_c, 2, 7, 84
6, 2483, Control_c, 2, 7, 84
6, 2484, Control_c, 2, 7, 84
6, 2485, Control_c, 2, 7, 84
6, 2486, Control_c, 2, 7, 84
6, 2487, Control_c, 2, 7, 84
6, 2488, Control_c, 2, 7, 84
6, 2489, Control_c, 2, 7, 84
6, 2490, Control_c, 2, 7, 84
6, 2491, Control_c, 2, 7, 84
6, 2492, Control_c, 2, 7, 84
6, 2493, Control_c, 2, 7, 84
6, 2494, Control_c, 2, 7, 84
6, 2495, Control_c, 2, 7, 84
6, 2496, Control_c, 2, 7, 84
6, 2497, Control_c, 2, 7, 84
6, 2498, Control_c, 2, 7, 84
6, 2499, Control_c, 2, 7, 84
6, 2500, Control_c, 2, 7, 84
6, 2501, Control_c, 2, 7, 84
6, 2502, Control_c, 2, 7, 84
6, 2503, Control_c, 2, 7, 84
6, 2504, Control_c, 2, 7, 84
6, 2505, Control_c, 2, 7, 84
6, 2506, Control_c, 2, 7, 84
6, 2507, Control_c, 2, 7, 84
6, 2508, Control_c, 2, 7, 84
6, 2509, Control_c, 2, 7, 84
6, 2510, Control_c, 2, 7, 84
6, 2511, Control_c, 2, 7, 84
6, 2512, Control_c, 2, 7, 84
6, 2513, Control_c, 2, 7, 85
6, 2514, Control_c, 2, 7, 85
6, 2515, Control_c, 2, 7, 85
6, 2516, Control_c, 2, 7, 85
6, 2517, Control_c, 2, 7, 85
6, 2518, Control_c, 2, 7, 85
6, 2519, Control_c, 2, 7, 85
6, 2520, Control_c, 2, 7, 85
6, 2521, Control_c, 2, 7, 85
6, 2522, Control_c, 2, 7, 85
6, 2523, Control_c, 2, 7, 85
6, 2524, Control_c, 2, 7, 85
6, 2525, Control_c, 2, 7, 85
6, 2526, Control_c, 2, 7, 85
6, 2527, Control_c, 2, 7, 85
6, 2528, Control_c, 2, 7, 85
6, 2529, Control_c, 2, 7, 85
6, 2530, Control_c, 2, 7, 85
6, 2531, Control_c, 2, 7, 85
6, 2532, Control_c, 2, 7, 85
6, 2533, Control_c, 2, 7, 85
6, 2534, Control_c, 2, 7, 85
6, 2535, Control_c, 2, 7, 85
6, 2536, Control_c, 2, 7, 85
6, 2537, Control_c, 2, 7, 85
6, 2538, Control_c, 2, 7, 85
6, 2539, Control_c, 2, 7, 85
6, 2540, Control_c, 2, 7, 85
6, 2541, Control_c, 2, 7, 85
6, 2542, Control_c, 2, 7, 85
6, 2543, Control_c, 2, 7, 85
6, 2544, Note_on_c, 2, 65, 96
6, 2544, Control_c, 2, 7, 85
6, 2545, Control_c, 2, 7, 85
6, 2546, Control_c, 2, 7, 85
6, 2547, Control_c, 2, 7, 85
6, 2548, Control_c, 2, 7, 85
6, 2549, Control_c, 2, 7, 85
6, 2550, Control_c, 2, 7, 85
6, 2551, Control_c, 2, 7, 85
6, 2552, Control_c, 2, 7, 85
6, 2553, Control_c, 2, 7, 85
6, 2554, Control_c, 2, 7, 85
6, 2555, Control_c, 2, 7, 85
6, 2556, Control_c, 2, 7, 85
6, 2557, Control_c, 2, 7, 85
6, 2558, Control_c, 2, 7, 85
6, 2559, Control_c, 2, 7, 85
6, 2560, Control_c, 2, 7, 85
6, 2561, Control_c, 2, 7, 85
6, 2562, Control_c, 2, 7, 85
6, 2563, Control_c, 2, 7, 85
6, 2564, Control_c, 2, 7, 85
6, 2565, Control_c, 2, 7, 85
6, 2566, Control_c, 2, 7, 85
6, 2567, Control_c, 2, 7, 85
6, 2568, Note_off_c, 2, 65, 64
6, 2568, Control_c, 2, 7, 85
6, 2569, Control_c, 2, 7, 85
6, 2570, Control_c, 2, 7, 85
6, 2571, Control_c, 2, 7, 85
6, 2572, Control_c, 2, 7, 85
6, 2573, Control_c, 2, 7, 85
6, 2574, Control_c, 2, 7, 85
6, 2575, Control_c, 2, 7, 85
6, 2576, Control_c, 2, 7, 85
6, 2577, Control_c, 2, 7, 86
6, 2578, Control_c, 2, 7, 86
6, 2579, Control_c, 2, 7, 86
6, 2580, Control_c, 2, 7, 86
6, 2581, Control_c, 2, 7, 86
6, 2582, Control_c, 2, 7, 86
6, 2583, Control_c, 2, 7, 86
6, 2584, Control_c, 2, 7, 86
6, 2585, Control_c, 2, 7, 86
6, 2586, Control_c, 2, 7, 86
6, 2587, Control_c, 2, 7, 86
6, 2588, Control_c, 2, 7, 86
6, 2589, Control_c, 2, 7, 86
6, 2590, Control_c, 2, 7, 86
6, 2591, Control_c, 2, 7, 86
6, 2592, Note_on_c, 2, 67, 96
6, 2592, Control_c, 2, 7, 86
6, 2593, Control_c, 2, 7, 86
6, 2594, Control_c, 2, 7, 86
6, 2595, Control_c, 2, 7, 86
6, 2596, Control_c, 2, 7, 86
6, 2597, Control_c, 2, 7, 86
6, 2598, Control_c, 2, 7, 86
6, 2599, Control_c, 2, 7, 86
6, 2600, Control_c, 2, 7, 86
6, 2601, Control_c, 2, 7, 86
6, 2602, Control_c, 2, 7, 86
6, 2603, Control_c, 2, 7, 86
6, 2604, Control_c, 2, 7, 86
6, 2605, Control_c, 2, 7, 86
6, 2606, Control_c, 2, 7, 86
6, 2607, Control_c, 2, 7, 86
6, 2608, Control_c, 2, 7, 86
6, 2609, Control_c, 2, 7, 86
6, 2610, Control_c, 2, 7, 86
6, 2611, Control_c, 2, 7, 86
6, 2612, Control_c, 2, 7, 86
6, 2613, Control_c, 2, 7, 86
6, 2614, Control_c, 2, 7, 86
6, 2615, Control_c, 2, 7, 86
6, 2616, Note_off_c, 2, 67, 64
6, 2616, Control_c, 2, 7, 86
6, 2617, Control_c, 2, 7, 86
6, 2618, Control_c, 2, 7, 86
6, 2619, Control_c, 2, 7, 86
6, 2620, Control_c, 2, 7, 86
6, 2621, Control_c, 2, 7, 86
6, 2622, Control_c, 2, 7, 86
6, 2623, Control_c, 2, 7, 86
6, 2624, Control_c, 2, 7, 86
6, 2625, Control_c, 2, 7, 86
6, 2626, Control_c, 2, 7, 86
6, 2627, Control_c, 2, 7, 86
6, 2628, Control_c, 2, 7, 86
6, 2629, Control_c, 2, 7, 86
6, 2630, Control_c, 2, 7, 86
6, 2631, Control_c, 2, 7, 86
6, 2632, Control_c, 2, 7, 86
6, 2633, Control_c, 2, 7, 86
6, 2634, Control_c, 2, 7, 86
6, 2635, Control_c, 2, 7, 86
6, 2636, Control_c, 2, 7, 86
6, 2637, Control_c, 2, 7, 86
6, 2638, Control_c, 2, 7, 86
6, 2639, Control_c, 2, 7, 86
6, 2640, Note_on_c, 2, 74, 96
6, 2640, Control_c, 2, 7, 86
6, 2641, Control_c, 2, 7, 86
6, 2642, Control_c, 2, 7, 86
6, 2643, Control_c, 2, 7, 86
6, 2644, Control_c, 2, 7, 86
6, 2645, Control_c, 2, 7, 86
6, 2646, Control_c, 2, 7, 87
6, 2647, Control_c, 2, 7, 87
6, 2648, Control_c, 2, 7, 87
6, 2649, Control_c, 2, 7, 87
6, 2650, Control_c, 2, 7, 87
6, 2651, Control_c, 2, 7, 87
6, 2652, Control_c, 2, 7, 87
6, 2653, Control_c, 2, 7, 87
6, 2654, Control_c, 2, 7, 87
6, 2655, Control_c, 2, 7, 87
6, 2656, Control_c, 2, 7, 87
6, 2657, Control_c, 2, 7, 87
6, 2658, Control_c, 2, 7, 87
6, 2659, Control_c, 2, 7, 87
6, 2660, Control_c, 2, 7, 87
6, 2661, Control_c, 2, 7, 87
6, 2662, Control_c, 2, 7, 87
6, 2663, Control_c, 2, 7, 87
6, 2664, Note_off_c, 2, 74, 64
6, 2664, Control_c, 2, 7, 87
6, 2665, Control_c, 2, 7, 87
6, 2666, Control_c, 2, 7, 87
6, 2667, Control_c, 2, 7, 87
6, 2668, Control_c, 2, 7, 87
6, 2669, Control_c, 2, 7, 87
6, 2670, Control_c, 2, 7, 87
6, 2671, Control_c, 2, 7, 87
6, 2672, Control_c, 2, 7, 87
6, 2673, Control_c, 2, 7, 87
6, 2674, Control_c, 2, 7, 87
6, 2675, Control_c, 2, 7, 87
6, 2676, Control_c, 2, 7, 87
6, 2677, Control_c, 2, 7, 87
6, 2678, Control_c, 2, 7, 87
6, 2679, Control_c, 2, 7, 87
6, 2680, Control_c, 2, 7, 87
6, 2681, Control_c, 2, 7, 87
6, 2682, Control_c, 2, 7, 87
6, 2683, Control_c, 2, 7, 87
6, 2684, Control_c, 2, 7, 87
6, 2685, Control_c, 2, 7, 87
6, 2686, Control_c, 2, 7, 87
6, 2687, Control_c, 2, 7, 87
6, 2688, Control_c, 2, 7, 87
6, 2689, Control_c, 2, 7, 87
6, 2690, Control_c, 2, 7, 87
6, 2691, Control_c, 2, 7, 87
6, 2692, Control_c, 2, 7, 87
6, 2693, Control_c, 2, 7, 87
6, 2694, Control_c, 2, 7, 87
6, 2695, Control_c, 2, 7, 87
6, 2696, Control_c, 2, 7, 87
6, 2697, Control_c, 2, 7, 87
6, 2698, Control_c, 2, 7, 87
6, 2699, Control_c, 2, 7, 87
6, 2700, Control_c, 2, 7, 87
6, 2701, Control_c, 2, 7, 87
6, 2702, Control_c, 2, 7, 87
6, 2703, Control_c, 2, 7, 87
6, 2704, Control_c, 2, 7, 87
6, 2705, Control_c, 2, 7, 87
6, 2706, Control_c, 2, 7, 87
6, 2707, Control_c, 2, 7, 87
6, 2708, Control_c, 2, 7, 87
6, 2709, Control_c, 2, 7, 87
6, 2710, Control_c, 2, 7, 87
6, 2711, Control_c, 2, 7, 87
6, 2712, Control_c, 2, 7, 87
6, 2713, Control_c, 2, 7, 87
6, 2714, Control_c, 2, 7, 87
6, 2715, Control_c, 2, 7, 87
6, 2716, Control_c, 2, 7, 87
6, 2717, Control_c, 2, 7, 87
6, 2718, Control_c, 2, 7, 87
6, 2719, Control_c, 2, 7, 87
6, 2720, Control_c, 2, 7, 88
6, 2721, Control_c, 2, 7, 88
6, 2722, Control_c, 2, 7, 88
6, 2723, Control_c, 2, 7, 88
6, 2724, Control_c, 2, 7, 88
6, 2725, Control_c, 2, 7, 88
6, 2726, Control_c, 2, 7, 88
6, 2727, Control_c, 2, 7, 88
6, 2728, Control_c, 2, 7, 88
6, 2729, Control_c, 2, 7, 88
6, 2730, Control_c, 2, 7, 88
6, 2731, Control_c, 2, 7, 88
6, 2732, Control_c, 2, 7, 88
6, 2733, Control_c, 2, 7, 88
6, 2734, Control_c, 2, 7, 88
6, 2735, Control_c, 2, 7, 88
6, 2736, Note_on_c, 2, 74, 96
6, 2736, Control_c, 2, 7, 88
6, 2737, Control_c, 2, 7, 88
6, 2738, Control_c, 2, 7, 88
6, 2739, Control_c, 2, 7, 88
6, 2740, Control_c, 2, 7, 88
6, 2741, Control_c, 2, 7, 88
6, 2742, Control_c, 2, 7, 88
6, 2743, Control_c, 2, 7, 88
6, 2744, Control_c, 2, 7, 88
6, 2745, Control_c, 2, 7, 88
6, 2746, Control_c, 2, 7, 88
6, 2747, Control_c, 2, 7, 88
6, 2748, Control_c, 2, 7, 88
6, 2749, Control_c, 2, 7, 88
6, 2750, Control_c, 2, 7, 88
6, 2751, Control_c, 2, 7, 88
6, 2752, Control_c, 2, 7, 88
6, 2753, Control_c, 2, 7, 88
6, 2754, Control_c, 2, 7, 88
6, 2755, Control_c, 2, 7, 88
6, 2756, Control_c, 2, 7, 88
6, 2757, Control_c, 2, 7, 88
6, 2758, Control_c, 2, 7, 88
6, 2759, Control_c, 2, 7, 88
6, 2760, Note_off_c, 2, 74, 64
6, 2760, Control_c, 2, 7, 88
6, 2761, Control_c, 2, 7, 88
6, 2762, Control_c, 2, 7, 88
6, 2763, Control_c, 2, 7, 88
6, 2764, Control_c, 2, 7, 88
6, 2765, Control_c, 2, 7, 88
6, 2766, Control_c, 2, 7, 88
6, 2767, Control_c, 2, 7, 88
6, 2768, Control_c, 2, 7, 88
6, 2769, Control_c, 2, 7, 88
6, 2770, Control_c, 2, 7, 88
6, 2771, Control_c, 2, 7, 88
6, 2772, Control_c, 2, 7, 88
6, 2773, Control_c, 2, 7, 88
6, 2774, Control_c, 2, 7, 88
6, 2775, Control_c, 2, 7, 88
6, 2776, Control_c, 2, 7, 88
6, 2777, Control_c, 2, 7, 88
6, 2778, Control_c, 2, 7, 88
6, 2779, Control_c, 2, 7, 88
6, 2780, Control_c, 2, 7, 88
6, 2781, Control_c, 2, 7, 88
6, 2782, Control_c, 2, 7, 88
6, 2783, Control_c, 2, 7, 88
6, 2784, Control_c, 2, 7, 88
6, 2785, Control_c, 2, 7, 88
6, 2786, Control_c, 2, 7, 88
6, 2787, Control_c, 2, 7, 88
6, 2788, Control_c, 2, 7, 88
6, 2789, Control_c, 2, 7, 88
6, 2790, Control_c, 2, 7, 88
6, 2791, Control_c, 2, 7, 88
6, 2792, Control_c, 2, 7, 88
6, 2793, Control_c, 2, 7, 88
6, 2794, Control_c, 2, 7, 88
6, 2795, Control_c, 2, 7, 88
6, 2796, Control_c, 2, 7, 88
6, 2797, Control_c, 2, 7, 88
6, 2798, Control_c, 2, 7, 88
6, 2799, Control_c, 2, 7, 88
6, 2800, Control_c, 2, 7, 88
6, 2801, Control_c, 2, 7, 88
6, 2802, Control_c, 2, 7, 89
6, 2803, Control_c, 2, 7, 89
6, 2804, Control_c, 2, 7, 89
6, 2805, Control_c, 2, 7, 89
6, 2806, Control_c, 2, 7, 89
6, 2807, Control_c, 2, 7, 89
6, 2808, Control_c, 2, 7, 89
6, 2809, Control_c, 2, 7, 89
6, 2810, Control_c, 2, 7, 89
6, 2811, Control_c, 2, 7, 89
6, 2812, Control_c, 2, 7, 89
6, 2813, Control_c, 2, 7, 89
6, 2814, Control_c, 2, 7, 89
6, 2815, Control_c, 2, 7, 89
6, 2816, Control_c, 2, 7, 89
6, 2817, Control_c, 2, 7, 89
6, 2818, Control_c, 2, 7, 89
6, 2819, Control_c, 2, 7, 89
6, 2820, Control_c, 2, 7, 89
6, 2821, Control_c, 2, 7, 89
6, 2822, Control_c, 2, 7, 89
6, 2823, Control_c, 2, 7, 89
6, 2824, Control_c, 2, 7, 89
6, 2825, Control_c, 2, 7, 89
6, 2826, Control_c, 2, 7, 89
6, 2827, Control_c, 2, 7, 89
6, 2828, Control_c, 2, 7, 89
6, 2829, Control_c, 2, 7, 89
6, 2830, Control_c, 2, 7, 89
6, 2831, Control_c, 2, 7, 89
6, 2832, Note_on_c, 2, 74, 96
6, 2832, Control_c, 2, 7, 89
6, 2833, Control_c, 2, 7, 89
6, 2834, Control_c, 2, 7, 89
6, 2835, Control_c, 2, 7, 89
6, 2836, Control_c, 2, 7, 89
6, 2837, Control_c, 2, 7, 89
6, 2838, Control_c, 2, 7, 89
6, 2839, Control_c, 2, 7, 89
6, 2840, Control_c, 2, 7, 89
6, 2841, Control_c, 2, 7, 89
6, 2842, Control_c, 2, 7, 89
6, 2843, Control_c, 2, 7, 89
6, 2844, Control_c, 2, 7, 89
6, 2845, Control_c, 2, 7, 89
6, 2846, Control_c, 2, 7, 89
6, 2847, Control_c, 2, 7, 89
6, 2848, Control_c, 2, 7, 89
6, 2849, Control_c, 2, 7, 89
6, 2850, Control_c, 2, 7, 89
6, 2851, Control_c, 2, 7, 89
6, 2852, Control_c, 2, 7, 89
6, 2853, Control_c, 2, 7, 89
6, 2854, Control_c, 2, 7, 89
6, 2855, Control_c, 2, 7, 89
6, 2856, Note_off_c, 2, 74, 64
6, 2856, Control_c, 2, 7, 89
6, 2857, Control_c, 2, 7, 89
6, 2858, Control_c, 2, 7, 89
6, 2859, Control_c, 2, 7, 89
6, 2860, Control_c, 2, 7, 89
6, 2861, Control_c, 2, 7, 89
6, 2862, Control_c, 2, 7, 89
6, 2863, Control_c, 2, 7, 89
6, 2864, Control_c, 2, 7, 89
6, 2865, Control_c, 2, 7, 89
6, 2866, Control_c, 2, 7, 89
6, 2867, Control_c, 2, 7, 89
6, 2868, Control_c, 2, 7, 89
6, 2869, Control_c, 2, 7, 89
6, 2870, Control_c, 2, 7, 89
6, 2871, Control_c, 2, 7, 89
6, 2872, Control_c, 2, 7, 89
6, 2873, Control_c, 2, 7, 89
6, 2874, Control_c, 2, 7, 89
6, 2875, Control_c, 2, 7, 89
6, 2876, Control_c, 2, 7, 89
6, 2877, Control_c, 2, 7, 89
6, 2878, Control_c, 2, 7, 89
6, 2879, Control_c, 2, 7, 89
6, 2880, Control_c, 2, 7, 89
6, 2881, Control_c, 2, 7, 89
6, 2882, Control_c, 2, 7, 89
6, 2883, Control_c, 2, 7, 89
6, 2884, Control_c, 2, 7, 89
6, 2885, Control_c, 2, 7, 89
6, 2886, Control_c, 2, 7, 89
6, 2887, Control_c, 2, 7, 89
6, 2888, Control_c, 2, 7, 89
6, 2889, Control_c, 2, 7, 89
6, 2890, Control_c, 2, 7, 89
6, 2891, Control_c, 2, 7, 89
6, 2892, Control_c, 2, 7, 89
6, 2893, Control_c, 2, 7, 89
6, 2894, Control_c, 2, 7, 89
6, 2895, Control_c, 2, 7, 90
6, 2896, Control_c, 2, 7, 90
6, 2897, Control_c, 2, 7, 90
6, 2898, Control_c, 2, 7, 90
6, 2899, Control_c, 2, 7, 90
6, 2900, Control_c, 2, 7, 90
6, 2901, Control_c, 2, 7, 90
6, 2902, Control_c, 2, 7, 90
6, 2903, Control_c, 2, 7, 90
6, 2904, Control_c, 2, 7, 90
6, 2905, Control_c, 2, 7, 90
6, 2906, Control_c, 2, 7, 90
6, 2907, Control_c, 2, 7, 90
6, 2908, Control_c, 2, 7, 90
6, 2909, Control_c, 2, 7, 90
6, 2910, Control_c, 2, 7, 90
6, 2911, Control_c, 2, 7, 90
6, 2912, Control_c, 2, 7, 90
6, 2913, Control_c, 2, 7, 90
6, 2914, Control_c, 2, 7, 90
6, 2915, Control_c, 2, 7, 90
6, 2916, Control_c, 2, 7, 90
6, 2917, Control_c, 2, 7, 90
6, 2918, Control_c, 2, 7, 90
6, 2919, Control_c, 2, 7, 90
6, 2920, Control_c, 2, 7, 90
6, 2921, Control_c, 2, 7, 90
6, 2922, Control_c, 2, 7, 90
6, 2923, Control_c, 2, 7, 90
6, 2924, Control_c, 2, 7, 90
6, 2925, Control_c, 2, 7, 90
6, 2926, Control_c, 2, 7, 90
6, 2927, Control_c, 2, 7, 90
6, 2928, Note_on_c, 2, 74, 96
6, 2928, Control_c, 2, 7, 90
6, 2929, Control_c, 2, 7, 90
6, 2930, Control_c, 2, 7, 90
6, 2931, Control_c, 2, 7, 90
6, 2932, Control_c, 2, 7, 90
6, 2933, Control_c, 2, 7, 90
6, 2934, Control_c, 2, 7, 90
6, 2935, Control_c, 2, 7, 90
6, 2936, Control_c, 2, 7, 90
6, 2937, Control_c, 2, 7, 90
6, 2938, Control_c, 2, 7, 90
6, 2939, Control_c, 2, 7, 90
6, 2940, Control_c, 2, 7, 90
6, 2941, Control_c, 2, 7, 90
6, 2942, Control_c, 2, 7, 90
6, 2943, Control_c, 2, 7, 90
6, 2944, Control_c, 2, 7, 90
6, 2945, Control_c, 2, 7, 90
6, 2946, Control_c, 2, 7, 90
6, 2947, Control_c, 2, 7, 90
6, 2948, Control_c, 2, 7, 90
6, 2949, Control_c, 2, 7, 90
6, 2950, Control_c, 2, 7, 90
6, 2951, Control_c, 2, 7, 90
6, 2952, Note_off_c, 2, 74, 64
6, 2952, Control_c, 2, 7, 90
6, 2953, Control_c, 2, 7, 90
6, 2954, Control_c, 2, 7, 90
6, 2955, Control_c, 2, 7, 90
6, 2956, Control_c, 2, 7, 90
6, 2957, Control_c, 2, 7, 90
6, 2958, Control_c, 2, 7, 90
6, 2959, Control_c, 2, 7, 90
6, 2960, Control_c, 2, 7, 90
6, 2961, Control_c, 2, 7, 90
6, 2962, Control_c, 2, 7, 90
6, 2963, Control_c, 2, 7, 90
6, 2964, Control_c, 2, 7, 90
6, 2965, Control_c, 2, 7, 90
6, 2966, Control_c, 2, 7, 90
6, 2967, Control_c, 2, 7, 90
6, 2968, Control_c, 2, 7, 90
6, 2969, Control_c, 2, 7, 90
6, 2970, Control_c, 2, 7, 90
6, 2971, Control_c, 2, 7, 90
6, 2972, Control_c, 2, 7, 90
6, 2973, Control_c, 2, 7, 90
6, 2974, Control_c, 2, 7, 90
6, 2975, Control_c, 2, 7, 90
6, 2976, Control_c, 2, 7, 90
6, 2977, Control_c, 2, 7, 90
6, 2978, Control_c, 2, 7, 90
6, 2979, Control_c, 2, 7, 90
6, 2980, Control_c, 2, 7, 90
6, 2981, Control_c, 2, 7, 90
6, 2982, Control_c, 2, 7, 90
6, 2983, Control_c, 2, 7, 90
6, 2984, Control_c, 2, 7, 90
6, 2985, Control_c, 2, 7, 90
6, 2986, Control_c, 2, 7, 90
6, 2987, Control_c, 2, 7, 90
6, 2988, Control_c, 2, 7, 90
6, 2989, Control_c, 2, 7, 90
6, 2990, Control_c, 2, 7, 90
6, 2991, Control_c, 2, 7, 90
6, 2992, Control_c, 2, 7, 90
6, 2993, Control_c, 2, 7, 90
6, 2994, Control_c, 2, 7, 90
6, 2995, Control_c, 2, 7, 90
6, 2996, Control_c, 2, 7, 90
6, 2997, Control_c, 2, 7, 90
6, 2998, Control_c, 2, 7, 90
6, 2999, Control_c, 2, 7, 90
6, 3000, Control_c, 2, 7, 90
6, 3001, Control_c, 2, 7, 90
6, 3002, Control_c, 2, 7, 90
6, 3003, Control_c, 2, 7, 90
6, 3004, Control_c, 2, 7, 90
6, 3005, Control_c, 2, 7, 90
6, 3006, Control_c, 2, 7, 90
6, 3007, Control_c, 2, 7, 90
6, 3008, Control_c, 2, 7, 90
6, 3009, Control_c, 2, 7, 90
6, 3010, Control_c, 2, 7, 91
6, 3011, Control_c, 2, 7, 91
6, 3012, Control_c, 2, 7, 91
6, 3013, Control_c, 2, 7, 91
6, 3014, Control_c, 2, 7, 91
6, 3015, Control_c, 2, 7, 91
6, 3016, Control_c, 2, 7, 91
6, 3017, Control_c, 2, 7, 91
6, 3018, Control_c, 2, 7, 91
6, 3019, Control_c, 2, 7, 91
6, 3020, Control_c, 2, 7, 91
6, 3021, Control_c, 2, 7, 91
6, 3022, Control_c, 2, 7, 91
6, 3023, Control_c, 2, 7, 91
6, 3024, Note_on_c, 2, 74, 96
6, 3024, Control_c, 2, 7, 91
6, 3025, Control_c, 2, 7, 91
6, 3026, Control_c, 2, 7, 91
6, 3027, Control_c, 2, 7, 91
6, 3028, Control_c, 2, 7, 91
6, 3029, Control_c, 2, 7, 91
6, 3030, Control_c, 2, 7, 91
6, 3031, Control_c, 2, 7, 91
6, 3032, Control_c, 2, 7, 91
6, 3033, Control_c, 2, 7, 91
6, 3034, Control_c, 2, 7, 91
6, 3035, Control_c, 2, 7, 91
6, 3036, Control_c, 2, 7, 91
6, 3037, Control_c, 2, 7, 91
6, 3038, Control_c, 2, 7, 91
6, 3039, Control_c, 2, 7, 91
6, 3040, Control_c, 2, 7, 91
6, 3041, Control_c, 2, 7, 91
6, 3042, Control_c, 2, 7, 91
6, 3043, Control_c, 2, 7, 91
6, 3044, Control_c, 2, 7, 91
6, 3045, Control_c, 2, 7, 91
6, 3046, Control_c, 2, 7, 91
6, 3047, Control_c, 2, 7, 91
6, 3048, Note_off_c, 2, 74, 64
6, 3048, Control_c, 2, 7, 91
6, 3049, Control_c, 2, 7, 91
6, 3050, Control_c, 2, 7, 91
6, 3051, Control_c, 2, 7, 91
6, 3052, Control_c, 2, 7, 91
6, 3053, Control_c, 2, 7, 91
6, 3054, Control_c, 2, 7, 91
6, 3055, Control_c, 2, 7, 91
6, 3056, Control_c, 2, 7, 91
6, 3057, Control_c, 2, 7, 91
6, 3058, Control_c, 2, 7, 91
6, 3059, Control_c, 2, 7, 91
6, 3060, Control_c, 2, 7, 91
6, 3061, Control_c, 2, 7, 91
6, 3062, Control_c, 2, 7, 91
6, 3063, Control_c, 2, 7, 91
6, 3064, Control_c, 2, 7, 91
6, 3065, Control_c, 2, 7, 91
6, 3066, Control_c, 2, 7, 91
6, 3067, Control_c, 2, 7, 91
6, 3068, Control_c, 2, 7, 91
6, 3069, Control_c, 2, 7, 91
6, 3070, Control_c, 2, 7, 91
6, 3071, Control_c, 2, 7, 91
6, 3120, Note_on_c, 2, 60, 100
6, 3144, Note_off_c, 2, 60, 64
6, 3168, Note_on_c, 2, 65, 100
6, 3189, Control_c, 2, 7, 91
6, 3192, Note_off_c, 2, 65, 64
6, 3216, Note_on_c, 2, 69, 100
6, 3240, Note_off_c, 2, 69, 64
6, 3312, Note_on_c, 2, 62, 100
6, 3317, Control_c, 2, 7, 91
6, 3336, Note_off_c, 2, 62, 64
6, 3360, Note_on_c, 2, 65, 100
6, 3384, Note_off_c, 2, 65, 64
6, 3408, Note_on_c, 2, 70, 100
6, 3432, Note_off_c, 2, 70, 64
6, 3443, Control_c, 2, 7, 91
6, 3492, Note_on_c, 2, 73, 100
6, 3504, Note_off_c, 2, 73, 64
6, 3504, Note_on_c, 2, 74, 100
6, 3528, Note_off_c, 2, 74, 64
6, 3552, Note_on_c, 2, 72, 100
6, 3552, Note_on_c, 2, 72, 100
6, 3570, Control_c, 2, 7, 91
6, 3576, Note_off_c, 2, 72, 64
6, 3576, Note_off_c, 2, 72, 64
6, 3600, Note_on_c, 2, 70, 100
6, 3600, Note_on_c, 2, 70, 100
6, 3624, Note_off_c, 2, 70, 64
6, 3624, Note_off_c, 2, 70, 64
6, 3648, Note_on_c, 2, 69, 100
6, 3672, Note_off_c, 2, 69, 64
6, 3696, Note_on_c, 2, 65, 100
6, 3696, Note_on_c, 2, 65, 100
6, 3697, Control_c, 2, 7, 91
6, 3720, Note_off_c, 2, 65, 64
6, 3720, Note_off_c, 2, 65, 64
6, 3744, Note_on_c, 2, 62, 100
6, 3768, Note_off_c, 2, 62, 64
6, 3792, Note_on_c, 2, 70, 100
6, 3816, Note_off_c, 2, 70, 64
6, 3824, Control_c, 2, 7, 91
6, 3888, Note_on_c, 2, 62, 100
6, 3912, Note_off_c, 2, 62, 64
6, 3936, Note_on_c, 2, 65, 100
6, 3951, Control_c, 2, 7, 91
6, 3960, Note_off_c, 2, 65, 64
6, 3984, Note_on_c, 2, 70, 100
6, 4008, Note_off_c, 2, 70, 64
6, 4078, Control_c, 2, 7, 91
6, 4080, Note_on_c, 2, 65, 100
6, 4104, Note_off_c, 2, 65, 64
6, 4128, Note_on_c, 2, 67, 100
6, 4152, Note_off_c, 2, 67, 64
6, 4176, Note_on_c, 2, 74, 100
6, 4200, Note_off_c, 2, 74, 64
6, 4204, Control_c, 2, 7, 91
6, 4258, Note_on_c, 2, 76, 100
6, 4272, Note_on_c, 2, 77, 100
6, 4274, Note_off_c, 2, 76, 64
6, 4296, Note_off_c, 2, 77, 64
6, 4320, Note_on_c, 2, 72, 100
6, 4332, Control_c, 2, 7, 91
6, 4344, Note_off_c, 2, 72, 64
6, 4368, Note_on_c, 2, 74, 100
6, 4392, Note_off_c, 2, 74, 64
6, 4416, Note_on_c, 2, 69, 100
6, 4440, Note_off_c, 2, 69, 64
6, 4458, Control_c, 2, 7, 91
6, 4464, Note_on_c, 2, 70, 100
6, 4488, Note_off_c, 2, 70, 64
6, 4512, Note_on_c, 2, 67, 100
6, 4536, Note_off_c, 2, 67, 64
6, 4560, Note_on_c, 2, 69, 100
6, 4584, Note_off_c, 2, 69, 64
6, 4585, Control_c, 2, 7, 91
6, 4656, Note_on_c, 2, 60, 100
6, 4680, Note_off_c, 2, 60, 64
6, 4704, Note_on_c, 2, 65, 100
6, 4712, Control_c, 2, 7, 91
6, 4728, Note_off_c, 2, 65, 64
6, 4752, Note_on_c, 2, 69, 100
6, 4776, Note_off_c, 2, 69, 64
6, 4839, Control_c, 2, 7, 91
6, 4848, Note_on_c, 2, 62, 100
6, 4872, Note_off_c, 2, 62, 64
6, 4896, Note_on_c, 2, 65, 100
6, 4920, Note_off_c, 2, 65, 64
6, 4944, Note_on_c, 2, 70, 100
6, 4966, Control_c, 2, 7, 91
6, 4968, Note_off_c, 2, 70, 64
6, 5028, Note_on_c, 2, 73, 100
6, 5040, Note_off_c, 2, 73, 64
6, 5040, Note_on_c, 2, 74, 100
6, 5064, Note_off_c, 2, 74, 64
6, 5088, Note_on_c, 2, 72, 100
6, 5088, Note_on_c, 2, 72, 100
6, 5093, Control_c, 2, 7, 91
6, 5112, Note_off_c, 2, 72, 64
6, 5112, Note_off_c, 2, 72, 64
6, 5136, Note_on_c, 2, 70, 100
6, 5136, Note_on_c, 2, 70, 100
6, 5160, Note_off_c, 2, 70, 64
6, 5160, Note_off_c, 2, 70, 64
6, 5184, Note_on_c, 2, 69, 100
6, 5208, Note_off_c, 2, 69, 64
6, 5219, Control_c, 2, 7, 91
6, 5232, Note_on_c, 2, 65, 100
6, 5232, Note_on_c, 2, 65, 100
6, 5256, Note_off_c, 2, 65, 64
6, 5256, Note_off_c, 2, 65, 64
6, 5280, Note_on_c, 2, 62, 100
6, 5304, Note_off_c, 2, 62, 64
6, 5328, Note_on_c, 2, 70, 100
6, 5347, Control_c, 2, 7, 91
6, 5352, Note_off_c, 2, 70, 64
6, 5424, Note_on_c, 2, 62, 100
6, 5448, Note_off_c, 2, 62, 64
6, 5472, Note_on_c, 2, 65, 100
6, 5473, Control_c, 2, 7, 91
6, 5496, Note_off_c, 2, 65, 64
6, 5520, Note_on_c, 2, 70, 100
6, 5544, Note_off_c, 2, 70, 64
6, 5600, Control_c, 2, 7, 91
6, 5616, Note_on_c, 2, 65, 100
6, 5640, Note_off_c, 2, 65, 64
6, 5664, Note_on_c, 2, 67, 100
6, 5688, Note_off_c, 2, 67, 64
6, 5712, Note_on_c, 2, 74, 100
6, 5727, Control_c, 2, 7, 91
6, 5736, Note_off_c, 2, 74, 64
6, 5794, Note_on_c, 2, 76, 100
6, 5808, Note_on_c, 2, 77, 100
6, 5810, Note_off_c, 2, 76, 64
6, 5832, Note_off_c, 2, 77, 64
6, 5854, Control_c, 2, 7, 91
6, 5856, Note_on_c, 2, 72, 100
6, 5880, Note_off_c, 2, 72, 64
6, 5904, Note_on_c, 2, 74, 100
6, 5928, Note_off_c, 2, 74, 64
6, 5952, Note_on_c, 2, 69, 100
6, 5976, Note_off_c, 2, 69, 64
6, 5981, Control_c, 2, 7, 91
6, 6000, Note_on_c, 2, 70, 100
6, 6024, Note_off_c, 2, 70, 64
6, 6048, Note_on_c, 2, 67, 100
6, 6072, Note_off_c, 2, 67, 64
6, 6096, Note_on_c, 2, 69, 100
6, 6108, Control_c, 2, 7, 91
6, 6120, Note_off_c, 2, 69, 64
6, 6192, Note_on_c, 2, 60, 100
6, 6216, Note_off_c, 2, 60, 64
6, 6234, Control_c, 2, 7, 91
6, 6240, Note_on_c, 2, 65, 100
6, 6264, Note_off_c, 2, 65, 64
6, 6288, Note_on_c, 2, 69, 100
6, 6312, Note_off_c, 2, 69, 64
6, 6362, Control_c, 2, 7, 91
6, 6384, Note_on_c, 2, 62, 100
6, 6408, Note_off_c, 2, 62, 64
6, 6432, Note_on_c, 2, 65, 100
6, 6456, Note_off_c, 2, 65, 64
6, 6480, Note_on_c, 2, 70, 100
6, 6488, Control_c, 2, 7, 91
6, 6504, Note_off_c, 2, 70, 64
6, 6564, Note_on_c, 2, 73, 100
6, 6576, Note_off_c, 2, 73, 64
6, 6576, Note_on_c, 2, 74, 100
6, 6600, Note_off_c, 2, 74, 64
6, 6616, Control_c, 2, 7, 91
6, 6624, Note_on_c, 2, 72, 100
6, 6624, Note_on_c, 2, 72, 100
6, 6648, Note_off_c, 2, 72, 64
6, 6648, Note_off_c, 2, 72, 64
6, 6672, Note_on_c, 2, 70, 100
6, 6672, Note_on_c, 2, 70, 100
6, 6696, Note_off_c, 2, 70, 64
6, 6696, Note_off_c, 2, 70, 64
6, 6720, Note_on_c, 2, 69, 100
6, 6742, Control_c, 2, 7, 91
6, 6744, Note_off_c, 2, 69, 64
6, 6768, Note_on_c, 2, 65, 100
6, 6768, Note_on_c, 2, 65, 100
6, 6792, Note_off_c, 2, 65, 64
6, 6792, Note_off_c, 2, 65, 64
6, 6816, Note_on_c, 2, 62, 100
6, 6840, Note_off_c, 2, 62, 64
6, 6864, Note_on_c, 2, 70, 100
6, 6869, Control_c, 2, 7, 91
6, 6888, Note_off_c, 2, 70, 64
6, 6960, Note_on_c, 2, 62, 100
6, 6984, Note_off_c, 2, 62, 64
6, 6996, Control_c, 2, 7, 91
6, 7008, Note_on_c, 2, 65, 100
6, 7032, Note_off_c, 2, 65, 64
6, 7056, Note_on_c, 2, 70, 100
6, 7080, Note_off_c, 2, 70, 64
6, 7123, Control_c, 2, 7, 91
6, 7152, Note_on_c, 2, 65, 100
6, 7176, Note_off_c, 2, 65, 64
6, 7200, Note_on_c, 2, 67, 100
6, 7224, Note_off_c, 2, 67, 64
6, 7248, Note_on_c, 2, 74, 100
6, 7249, Control_c, 2, 7, 91
6, 7272, Note_off_c, 2, 74, 64
6, 7330, Note_on_c, 2, 76, 100
6, 7344, Note_on_c, 2, 77, 100
6, 7346, Note_off_c, 2, 76, 64
6, 7368, Note_off_c, 2, 77, 64
6, 7377, Control_c, 2, 7, 91
6, 7392, Note_on_c, 2, 72, 100
6, 7416, Note_off_c, 2, 72, 64
6, 7440, Note_on_c, 2, 74, 100
6, 7464, Note_off_c, 2, 74, 64
6, 7488, Note_on_c, 2, 69, 100
6, 7503, Control_c, 2, 7, 91
6, 7512, Note_off_c, 2, 69, 64
6, 7536, Note_on_c, 2, 70, 100
6, 7560, Note_off_c, 2, 70, 64
6, 7584, Note_on_c, 2, 67, 100
6, 7608, Note_off_c, 2, 67, 64
6, 7631, Control_c, 2, 7, 91
6, 7632, Note_on_c, 2, 69, 100
6, 7656, Note_off_c, 2, 69, 64
6, 7728, Note_on_c, 2, 60, 100
6, 7752, Note_off_c, 2, 60, 64
6, 7757, Control_c, 2, 7, 91
6, 7776, Note_on_c, 2, 65, 100
6, 7800, Note_off_c, 2, 65, 64
6, 7824, Note_on_c, 2, 69, 100
6, 7848, Note_off_c, 2, 69, 64
6, 7884, Control_c, 2, 7, 91
6, 7920, Note_on_c, 2, 62, 100
6, 7944, Note_off_c, 2, 62, 64
6, 7968, Note_on_c, 2, 65, 100
6, 7992, Note_off_c, 2, 65, 64
6, 8011, Control_c, 2, 7, 91
6, 8016, Note_on_c, 2, 70, 100
6, 8040, Note_off_c, 2, 70, 64
6, 8100, Note_on_c, 2, 73, 100
6, 8112, Note_off_c, 2, 73, 64
6, 8112, Note_on_c, 2, 74, 100
6, 8136, Note_off_c, 2, 74, 64
6, 8138, Control_c, 2, 7, 91
6, 8160, Note_on_c, 2, 72, 100
6, 8160, Note_on_c, 2, 72, 100
6, 8184, Note_off_c, 2, 72, 64
6, 8184, Note_off_c, 2, 72, 64
6, 8208, Note_on_c, 2, 70, 100
6, 8208, Note_on_c, 2, 70, 100
6, 8232, Note_off_c, 2, 70, 64
6, 8232, Note_off_c, 2, 70, 64
6, 8256, Note_on_c, 2, 69, 100
6, 8265, Control_c, 2, 7, 91
6, 8280, Note_off_c, 2, 69, 64
6, 8304, Note_on_c, 2, 65, 100
6, 8304, Note_on_c, 2, 65, 100
6, 8328, Note_off_c, 2, 65, 64
6, 8328, Note_off_c, 2, 65, 64
6, 8352, Note_on_c, 2, 62, 100
6, 8376, Note_off_c, 2, 62, 64
6, 8392, Control_c, 2, 7, 91
6, 8400, Note_on_c, 2, 70, 100
6, 8424, Note_off_c, 2, 70, 64
6, 8496, Note_on_c, 2, 62, 100
6, 8518, Control_c, 2, 7, 91
6, 8520, Note_off_c, 2, 62, 64
6, 8544, Note_on_c, 2, 65, 100
6, 8568, Note_off_c, 2, 65, 64
6, 8592, Note_on_c, 2, 70, 100
6, 8616, Note_off_c, 2, 70, 64
6, 8646, Control_c, 2, 7, 91
6, 8688, Note_on_c, 2, 65, 100
6, 8712, Note_off_c, 2, 65, 64
6, 8736, Note_on_c, 2, 67, 100
6, 8760, Note_off_c, 2, 67, 64
6, 8772, Control_c, 2, 7, 91
6, 8784, Note_on_c, 2, 74, 100
6, 8808, Note_off_c, 2, 74, 64
6, 8866, Note_on_c, 2, 76, 100
6, 8880, Note_on_c, 2, 77, 100
6, 8882, Note_off_c, 2, 76, 64
6, 8899, Control_c, 2, 7, 91
6, 8904, Note_off_c, 2, 77, 64
6, 8928, Note_on_c, 2, 72, 100
6, 8952, Note_off_c, 2, 72, 64
6, 8976, Note_on_c, 2, 74, 100
6, 9000, Note_off_c, 2, 74, 64
6, 9024, Note_on_c, 2, 69, 100
6, 9026, Control_c, 2, 7, 91
6, 9048, Note_off_c, 2, 69, 64
6, 9072, Note_on_c, 2, 70, 100
6, 9096, Note_off_c, 2, 70, 64
6, 9120, Note_on_c, 2, 67, 100
6, 9144, Note_off_c, 2, 67, 64
6, 9153, Control_c, 2, 7, 91
6, 9168, Note_on_c, 2, 69, 100
6, 9192, Note_off_c, 2, 69, 64
6, 9264, Note_on_c, 2, 60, 100
6, 9280, Control_c, 2, 7, 91
6, 9288, Note_off_c, 2, 60, 64
6, 9312, Note_on_c, 2, 65, 100
6, 9336, Note_off_c, 2, 65, 64
6, 9360, Note_on_c, 2, 69, 100
6, 9384, Note_off_c, 2, 69, 64
6, 9407, Control_c, 2, 7, 91
6, 9456, Note_on_c, 2, 62, 100
6, 9480, Note_off_c, 2, 62, 64
6, 9504, Note_on_c, 2, 65, 100
6, 9528, Note_off_c, 2, 65, 64
6, 9533, Control_c, 2, 7, 91
6, 9552, Note_on_c, 2, 70, 100
6, 9576, Note_off_c, 2, 70, 64
6, 9636, Note_on_c, 2, 73, 100
6, 9648, Note_off_c, 2, 73, 64
6, 9648, Note_on_c, 2, 74, 100
6, 9661, Control_c, 2, 7, 91
6, 9672, Note_off_c, 2, 74, 64
6, 9696, Note_on_c, 2, 72, 100
6, 9696, Note_on_c, 2, 72, 100
6, 9720, Note_off_c, 2, 72, 64
6, 9720, Note_off_c, 2, 72, 64
6, 9744, Note_on_c, 2, 70, 100
6, 9744, Note_on_c, 2, 70, 100
6, 9768, Note_off_c, 2, 70, 64
6, 9768, Note_off_c, 2, 70, 64
6, 9787, Control_c, 2, 7, 91
6, 9792, Note_on_c, 2, 69, 100
6, 9816, Note_off_c, 2, 69, 64
6, 9840, Note_on_c, 2, 65, 100
6, 9840, Note_on_c, 2, 65, 100
6, 9864, Note_off_c, 2, 65, 64
6, 9864, Note_off_c, 2, 65, 64
6, 9888, Note_on_c, 2, 62, 100
6, 9912, Note_off_c, 2, 62, 64
6, 9915, Control_c, 2, 7, 91
6, 9936, Note_on_c, 2, 70, 100
6, 9960, Note_off_c, 2, 70, 64
6, 10032, Note_on_c, 2, 62, 100
6, 10041, Control_c, 2, 7, 91
6, 10056, Note_off_c, 2, 62, 64
6, 10080, Note_on_c, 2, 65, 100
6, 10104, Note_off_c, 2, 65, 64
6, 10128, Note_on_c, 2, 70, 100
6, 10152, Note_off_c, 2, 70, 64
6, 10168, Control_c, 2, 7, 91
6, 10224, Note_on_c, 2, 65, 100
6, 10248, Note_off_c, 2, 65, 64
6, 10272, Note_on_c, 2, 67, 100
6, 10295, Control_c, 2, 7, 91
6, 10296, Note_off_c, 2, 67, 64
6, 10320, Note_on_c, 2, 74, 100
6, 10344, Note_off_c, 2, 74, 64
6, 10402, Note_on_c, 2, 76, 100
6, 10416, Note_on_c, 2, 77, 100
6, 10418, Note_off_c, 2, 76, 64
6, 10422, Control_c, 2, 7, 91
6, 10440, Note_off_c, 2, 77, 64
6, 10464, Note_on_c, 2, 72, 100
6, 10488, Note_off_c, 2, 72, 64
6, 10512, Note_on_c, 2, 74, 100
6, 10536, Note_off_c, 2, 74, 64
6, 10548, Control_c, 2, 7, 91
6, 10560, Note_on_c, 2, 69, 100
6, 10584, Note_off_c, 2, 69, 64
6, 10608, Note_on_c, 2, 70, 100
6, 10632, Note_off_c, 2, 70, 64
6, 10656, Note_on_c, 2, 67, 100
6, 10676, Control_c, 2, 7, 91
6, 10680, Note_off_c, 2, 67, 64
6, 10704, Note_on_c, 2, 69, 100
6, 10728, Note_off_c, 2, 69, 64
6, 10800, Note_on_c, 2, 60, 100
6, 10802, Control_c, 2, 7, 91
6, 10824, Note_off_c, 2, 60, 64
6, 10848, Note_on_c, 2, 65, 100
6, 10872, Note_off_c, 2, 65, 64
6, 10896, Note_on_c, 2, 69, 100
6, 10920, Note_off_c, 2, 69, 64
6, 10930, Control_c, 2, 7, 91
6, 10992, Note_on_c, 2, 62, 100
6, 11016, Note_off_c, 2, 62, 64
6, 11040, Note_on_c, 2, 65, 100
6, 11056, Control_c, 2, 7, 91
6, 11064, Note_off_c, 2, 65, 64
6, 11088, Note_on_c, 2, 70, 100
6, 11112, Note_off_c, 2, 70, 64
6, 11172, Note_on_c, 2, 73, 100
6, 11183, Control_c, 2, 7, 91
6, 11184, Note_off_c, 2, 73, 64
6, 11184, Note_on_c, 2, 74, 100
6, 11208, Note_off_c, 2, 74, 64
6, 11232, Note_on_c, 2, 72, 100
6, 11232, Note_on_c, 2, 72, 100
6, 11256, Note_off_c, 2, 72, 64
6, 11256, Note_off_c, 2, 72, 64
6, 11280, Note_on_c, 2, 70, 100
6, 11280, Note_on_c, 2, 70, 100
6, 11304, Note_off_c, 2, 70, 64
6, 11304, Note_off_c, 2, 70, 64
6, 11310, Control_c, 2, 7, 91
6, 11328, Note_on_c, 2, 69, 100
6, 11352, Note_off_c, 2, 69, 64
6, 11376, Note_on_c, 2, 65, 100
6, 11376, Note_on_c, 2, 65, 100
6, 11400, Note_off_c, 2, 65, 64
6, 11400, Note_off_c, 2, 65, 64
6, 11424, Note_on_c, 2, 62, 100
6, 11437, Control_c, 2, 7, 91
6, 11448, Note_off_c, 2, 62, 64
6, 11472, Note_on_c, 2, 70, 100
6, 11496, Note_off_c, 2, 70, 64
6, 11563, Control_c, 2, 7, 91
6, 11568, Note_on_c, 2, 62, 100
6, 11592, Note_off_c, 2, 62, 64
6, 11616, Note_on_c, 2, 65, 100
6, 11640, Note_off_c, 2, 65, 64
6, 11664, Note_on_c, 2, 70, 100
6, 11688, Note_off_c, 2, 70, 64
6, 11691, Control_c, 2, 7, 91
6, 11760, Note_on_c, 2, 65, 100
6, 11784, Note_off_c, 2, 65, 64
6, 11808, Note_on_c, 2, 67, 100
6, 11817, Control_c, 2, 7, 91
6, 11832, Note_off_c, 2, 67, 64
6, 11856, Note_on_c, 2, 74, 100
6, 11880, Note_off_c, 2, 74, 64
6, 11938, Note_on_c, 2, 76, 100
6, 11945, Control_c, 2, 7, 91
6, 11952, Note_on_c, 2, 77, 100
6, 11954, Note_off_c, 2, 76, 64
6, 11976, Note_off_c, 2, 77, 64
6, 12000, Note_on_c, 2, 72, 100
6, 12024, Note_off_c, 2, 72, 64
6, 12048, Note_on_c, 2, 74, 100
6, 12071, Control_c, 2, 7, 91
6, 12072, Note_off_c, 2, 74, 64
6, 12096, Note_on_c, 2, 69, 100
6, 12120, Note_off_c, 2, 69, 64
6, 12144, Note_on_c, 2, 70, 100
6, 12168, Note_off_c, 2, 70, 64
6, 12192, Note_on_c, 2, 67, 100
6, 12198, Control_c, 2, 7, 91
6, 12216, Note_off_c, 2, 67, 64
6, 12240, Note_on_c, 2, 69, 100
6, 12264, Note_off_c, 2, 69, 64
6, 12325, Control_c, 2, 7, 91
6, 12336, Note_on_c, 2, 60, 100
6, 12360, Note_off_c, 2, 60, 64
6, 12384, Note_on_c, 2, 65, 100
6, 12408, Note_off_c, 2, 65, 64
6, 12432, Note_on_c, 2, 69, 100
6, 12452, Control_c, 2, 7, 91
6, 12456, Note_off_c, 2, 69, 64
6, 12528, Note_on_c, 2, 62, 100
6, 12552, Note_off_c, 2, 62, 64
6, 12576, Note_on_c, 2, 65, 100
6, 12579, Control_c, 2, 7, 91
6, 12600, Note_off_c, 2, 65, 64
6, 12624, Note_on_c, 2, 70, 100
6, 12648, Note_off_c, 2, 70, 64
6, 12706, Control_c, 2, 7, 91
6, 12708, Note_on_c, 2, 73, 100
6, 12720, Note_off_c, 2, 73, 64
6, 12720, Note_on_c, 2, 74, 100
6, 12744, Note_off_c, 2, 74, 64
6, 12768, Note_on_c, 2, 72, 100
6, 12768, Note_on_c, 2, 72, 100
6, 12792, Note_off_c, 2, 72, 64
6, 12792, Note_off_c, 2, 72, 64
6, 12816, Note_on_c, 2, 70, 100
6, 12816, Note_on_c, 2, 70, 100
6, 12832, Control_c, 2, 7, 91
6, 12840, Note_off_c, 2, 70, 64
6, 12840, Note_off_c, 2, 70, 64
6, 12864, Note_on_c, 2, 69, 100
6, 12888, Note_off_c, 2, 69, 64
6, 12912, Note_on_c, 2, 65, 100
6, 12912, Note_on_c, 2, 65, 100
6, 12936, Note_off_c, 2, 65, 64
6, 12936, Note_off_c, 2, 65, 64
6, 12960, Note_on_c, 2, 62, 100
6, 12960, Control_c, 2, 7, 91
6, 12984, Note_off_c, 2, 62, 64
6, 13008, Note_on_c, 2, 70, 100
6, 13032, Note_off_c, 2, 70, 64
6, 13086, Control_c, 2, 7, 91
6, 13104, Note_on_c, 2, 62, 100
6, 13128, Note_off_c, 2, 62, 64
6, 13152, Note_on_c, 2, 65, 100
6, 13176, Note_off_c, 2, 65, 64
6, 13200, Note_on_c, 2, 70, 100
6, 13213, Control_c, 2, 7, 91
6, 13224, Note_off_c, 2, 70, 64
6, 13296, Note_on_c, 2, 65, 100
6, 13320, Note_off_c, 2, 65, 64
6, 13340, Control_c, 2, 7, 91
6, 13344, Note_on_c, 2, 67, 100
6, 13368, Note_off_c, 2, 67, 64
6, 13392, Note_on_c, 2, 74, 100
6, 13416, Note_off_c, 2, 74, 64
6, 13467, Control_c, 2, 7, 91
6, 13474, Note_on_c, 2, 76, 100
6, 13488, Note_on_c, 2, 77, 100
6, 13490, Note_off_c, 2, 76, 64
6, 13512, Note_off_c, 2, 77, 64
6, 13536, Note_on_c, 2, 72, 100
6, 13560, Note_off_c, 2, 72, 64
6, 13584, Note_on_c, 2, 74, 100
6, 13594, Control_c, 2, 7, 91
6, 13608, Note_off_c, 2, 74, 64
6, 13632, Note_on_c, 2, 69, 100
6, 13656, Note_off_c, 2, 69, 64
6, 13680, Note_on_c, 2, 70, 100
6, 13704, Note_off_c, 2, 70, 64
6, 13721, Control_c, 2, 7, 91
6, 13728, Note_on_c, 2, 67, 100
6, 13752, Note_off_c, 2, 67, 64
6, 13776, Note_on_c, 2, 69, 100
6, 13800, Note_off_c, 2, 69, 64
6, 13847, Control_c, 2, 7, 91
6, 13872, Note_on_c, 2, 60, 100
6, 13896, Note_off_c, 2, 60, 64
6, 13920, Note_on_c, 2, 65, 100
6, 13944, Note_off_c, 2, 65, 64
6, 13968, Note_on_c, 2, 69, 100
6, 13975, Control_c, 2, 7, 91
6, 13992, Note_off_c, 2, 69, 64
6, 14064, Note_on_c, 2, 62, 100
6, 14088, Note_off_c, 2, 62, 64
6, 14101, Control_c, 2, 7, 91
6, 14112, Note_on_c, 2, 65, 100
6, 14136, Note_off_c, 2, 65, 64
6, 14160, Note_on_c, 2, 70, 100
6, 14184, Note_off_c, 2, 70, 64
6, 14229, Control_c, 2, 7, 91
6, 14244, Note_on_c, 2, 73, 100
6, 14256, Note_off_c, 2, 73, 64
6, 14256, Note_on_c, 2, 74, 100
6, 14280, Note_off_c, 2, 74, 64
6, 14304, Note_on_c, 2, 72, 100
6, 14304, Note_on_c, 2, 72, 100
6, 14328, Note_off_c, 2, 72, 64
6, 14328, Note_off_c, 2, 72, 64
6, 14352, Note_on_c, 2, 70, 100
6, 14352, Note_on_c, 2, 70, 100
6, 14355, Control_c, 2, 7, 91
6, 14376, Note_off_c, 2, 70, 64
6, 14376, Note_off_c, 2, 70, 64
6, 14400, Note_on_c, 2, 69, 100
6, 14424, Note_off_c, 2, 69, 64
6, 14448, Note_on_c, 2, 65, 100
6, 14448, Note_on_c, 2, 65, 100
6, 14472, Note_off_c, 2, 65, 64
6, 14472, Note_off_c, 2, 65, 64
6, 14482, Control_c, 2, 7, 91
6, 14496, Note_on_c, 2, 62, 100
6, 14520, Note_off_c, 2, 62, 64
6, 14544, Note_on_c, 2, 70, 100
6, 14568, Note_off_c, 2, 70, 64
6, 14609, Control_c, 2, 7, 91
6, 14736, Control_c, 2, 7, 91
6, 14862, Control_c, 2, 7, 91
6, 14990, Control_c, 2, 7, 91
6, 15116, Control_c, 2, 7, 91
6, 15244, Control_c, 2, 7, 91
6, 15370, Control_c, 2, 7, 91
6, 15497, Control_c, 2, 7, 91
6, 15624, Control_c, 2, 7, 91
6, 15751, Control_c, 2, 7, 91
6, 15878, Control_c, 2, 7, 91
6, 16005, Control_c, 2, 7, 91
6, 16131, Control_c, 2, 7, 91
6, 16259, Control_c, 2, 7, 91
6, 16385, Control_c, 2, 7, 91
6, 16512, Control_c, 2, 7, 91
6, 16639, Control_c, 2, 7, 91
6, 16766, Control_c, 2, 7, 91
6, 16893, Control_c, 2, 7, 91
6, 17020, Control_c, 2, 7, 91
6, 17146, Control_c, 2, 7, 91
6, 17274, Control_c, 2, 7, 91
6, 17400, Control_c, 2, 7, 91
6, 17528, Control_c, 2, 7, 91
6, 17654, Control_c, 2, 7, 91
6, 17781, Control_c, 2, 7, 91
6, 17908, Control_c, 2, 7, 91
6, 18035, Control_c, 2, 7, 91
6, 18161, Control_c, 2, 7, 91
6, 18289, Control_c, 2, 7, 91
6, 18415, Control_c, 2, 7, 91
6, 18543, Control_c, 2, 7, 91
6, 18669, Control_c, 2, 7, 91
6, 18796, Control_c, 2, 7, 91
6, 18923, Control_c, 2, 7, 91
6, 19050, Control_c, 2, 7, 91
6, 19176, Control_c, 2, 7, 91
6, 19304, Control_c, 2, 7, 91
6, 19430, Control_c, 2, 7, 91
6, 19558, Control_c, 2, 7, 91
6, 19684, Control_c, 2, 7, 91
6, 19811, Control_c, 2, 7, 91
6, 19938, Control_c, 2, 7, 91
6, 20065, Control_c, 2, 7, 91
6, 20192, Control_c, 2, 7, 91
6, 20319, Control_c, 2, 7, 91
6, 20445, Control_c, 2, 7, 91
6, 20573, Control_c, 2, 7, 91
6, 20699, Control_c, 2, 7, 91
6, 20826, Control_c, 2, 7, 91
6, 20953, Control_c, 2, 7, 91
6, 21080, Control_c, 2, 7, 91
6, 21207, Control_c, 2, 7, 91
6, 21334, Control_c, 2, 7, 91
6, 21460, Control_c, 2, 7, 91
6, 21552, Note_on_c, 2, 60, 100
6, 21576, Note_off_c, 2, 60, 64
6, 21588, Control_c, 2, 7, 91
6, 21600, Note_on_c, 2, 65, 100
6, 21624, Note_off_c, 2, 65, 64
6, 21648, Note_on_c, 2, 69, 100
6, 21672, Note_off_c, 2, 69, 64
6, 21714, Control_c, 2, 7, 91
6, 21744, Note_on_c, 2, 62, 100
6, 21768, Note_off_c, 2, 62, 64
6, 21792, Note_on_c, 2, 65, 100
6, 21816, Note_off_c, 2, 65, 64
6, 21840, Note_on_c, 2, 70, 100
6, 21842, Control_c, 2, 7, 91
6, 21864, Note_off_c, 2, 70, 64
6, 21924, Note_on_c, 2, 73, 100
6, 21936, Note_off_c, 2, 73, 64
6, 21936, Note_on_c, 2, 74, 100
6, 21960, Note_off_c, 2, 74, 64
6, 21968, Control_c, 2, 7, 91
6, 21984, Note_on_c, 2, 72, 100
6, 21984, Note_on_c, 2, 72, 100
6, 22008, Note_off_c, 2, 72, 64
6, 22008, Note_off_c, 2, 72, 64
6, 22032, Note_on_c, 2, 70, 100
6, 22032, Note_on_c, 2, 70, 100
6, 22056, Note_off_c, 2, 70, 64
6, 22056, Note_off_c, 2, 70, 64
6, 22080, Note_on_c, 2, 69, 100
6, 22095, Control_c, 2, 7, 91
6, 22104, Note_off_c, 2, 69, 64
6, 22128, Note_on_c, 2, 65, 100
6, 22128, Note_on_c, 2, 65, 100
6, 22152, Note_off_c, 2, 65, 64
6, 22152, Note_off_c, 2, 65, 64
6, 22176, Note_on_c, 2, 62, 100
6, 22200, Note_off_c, 2, 62, 64
6, 22222, Control_c, 2, 7, 91
6, 22224, Note_on_c, 2, 70, 100
6, 22248, Note_off_c, 2, 70, 64
6, 22320, Note_on_c, 2, 62, 100
6, 22344, Note_off_c, 2, 62, 64
6, 22349, Control_c, 2, 7, 91
6, 22368, Note_on_c, 2, 65, 100
6, 22392, Note_off_c, 2, 65, 64
6, 22416, Note_on_c, 2, 70, 100
6, 22440, Note_off_c, 2, 70, 64
6, 22475, Control_c, 2, 7, 91
6, 22512, Note_on_c, 2, 65, 100
6, 22536, Note_off_c, 2, 65, 64
6, 22560, Note_on_c, 2, 67, 100
6, 22584, Note_off_c, 2, 67, 64
6, 22603, Control_c, 2, 7, 91
6, 22608, Note_on_c, 2, 74, 100
6, 22632, Note_off_c, 2, 74, 64
6, 22690, Note_on_c, 2, 76, 100
6, 22704, Note_on_c, 2, 77, 100
6, 22706, Note_off_c, 2, 76, 64
6, 22728, Note_off_c, 2, 77, 64
6, 22729, Control_c, 2, 7, 91
6, 22752, Note_on_c, 2, 72, 100
6, 22776, Note_off_c, 2, 72, 64
6, 22800, Note_on_c, 2, 74, 100
6, 22824, Note_off_c, 2, 74, 64
6, 22848, Note_on_c, 2, 69, 100
6, 22857, Control_c, 2, 7, 91
6, 22872, Note_off_c, 2, 69, 64
6, 22896, Note_on_c, 2, 70, 100
6, 22920, Note_off_c, 2, 70, 64
6, 22944, Note_on_c, 2, 67, 100
6, 22968, Note_off_c, 2, 67, 64
6, 22983, Control_c, 2, 7, 91
6, 22992, Note_on_c, 2, 69, 100
6, 23016, Note_off_c, 2, 69, 64
6, 23088, Note_on_c, 2, 60, 100
6, 23110, Control_c, 2, 7, 91
6, 23112, Note_off_c, 2, 60, 64
6, 23136, Note_on_c, 2, 65, 100
6, 23160, Note_off_c, 2, 65, 64
6, 23184, Note_on_c, 2, 69, 100
6, 23208, Note_off_c, 2, 69, 64
6, 23237, Control_c, 2, 7, 91
6, 23280, Note_on_c, 2, 62, 100
6, 23304, Note_off_c, 2, 62, 64
6, 23328, Note_on_c, 2, 65, 100
6, 23352, Note_off_c, 2, 65, 64
6, 23364, Control_c, 2, 7, 91
6, 23376, Note_on_c, 2, 70, 100
6, 23400, Note_off_c, 2, 70, 64
6, 23460, Note_on_c, 2, 73, 100
6, 23472, Note_off_c, 2, 73, 64
6, 23472, Note_on_c, 2, 74, 100
6, 23491, Control_c, 2, 7, 91
6, 23496, Note_off_c, 2, 74, 64
6, 23520, Note_on_c, 2, 72, 100
6, 23520, Note_on_c, 2, 72, 100
6, 23544, Note_off_c, 2, 72, 64
6, 23544, Note_off_c, 2, 72, 64
6, 23568, Note_on_c, 2, 70, 100
6, 23568, Note_on_c, 2, 70, 100
6, 23592, Note_off_c, 2, 70, 64
6, 23592, Note_off_c, 2, 70, 64
6, 23616, Note_on_c, 2, 69, 100
6, 23618, Control_c, 2, 7, 91
6, 23640, Note_off_c, 2, 69, 64
6, 23664, Note_on_c, 2, 65, 100
6, 23664, Note_on_c, 2, 65, 100
6, 23688, Note_off_c, 2, 65, 64
6, 23688, Note_off_c, 2, 65, 64
6, 23712, Note_on_c, 2, 62, 100
6, 23736, Note_off_c, 2, 62, 64
6, 23744, Control_c, 2, 7, 91
6, 23760, Note_on_c, 2, 70, 100
6, 23784, Note_off_c, 2, 70, 64
6, 23856, Note_on_c, 2, 62, 100
6, 23872, Control_c, 2, 7, 91
6, 23880, Note_off_c, 2, 62, 64
6, 23904, Note_on_c, 2, 65, 100
6, 23928, Note_off_c, 2, 65, 64
6, 23952, Note_on_c, 2, 70, 100
6, 23976, Note_off_c, 2, 70, 64
6, 23998, Control_c, 2, 7, 91
6, 24048, Note_on_c, 2, 65, 100
6, 24072, Note_off_c, 2, 65, 64
6, 24096, Note_on_c, 2, 67, 100
6, 24120, Note_off_c, 2, 67, 64
6, 24125, Control_c, 2, 7, 91
6, 24144, Note_on_c, 2, 74, 100
6, 24168, Note_off_c, 2, 74, 64
6, 24226, Note_on_c, 2, 76, 100
6, 24240, Note_on_c, 2, 77, 100
6, 24242, Note_off_c, 2, 76, 64
6, 24252, Control_c, 2, 7, 91
6, 24264, Note_off_c, 2, 77, 64
6, 24288, Note_on_c, 2, 72, 100
6, 24312, Note_off_c, 2, 72, 64
6, 24336, Note_on_c, 2, 74, 100
6, 24360, Note_off_c, 2, 74, 64
6, 24379, Control_c, 2, 7, 91
6, 24384, Note_on_c, 2, 69, 100
6, 24408, Note_off_c, 2, 69, 64
6, 24432, Note_on_c, 2, 70, 100
6, 24456, Note_off_c, 2, 70, 64
6, 24480, Note_on_c, 2, 67, 100
6, 24504, Note_off_c, 2, 67, 64
6, 24506, Control_c, 2, 7, 91
6, 24528, Note_on_c, 2, 69, 100
6, 24552, Note_off_c, 2, 69, 64
6, 24624, Note_on_c, 2, 60, 100
6, 24633, Control_c, 2, 7, 91
6, 24648, Note_off_c, 2, 60, 64
6, 24672, Note_on_c, 2, 65, 100
6, 24696, Note_off_c, 2, 65, 64
6, 24720, Note_on_c, 2, 69, 100
6, 24744, Note_off_c, 2, 69, 64
6, 24759, Control_c, 2, 7, 91
6, 24816, Note_on_c, 2, 62, 100
6, 24840, Note_off_c, 2, 62, 64
6, 24864, Note_on_c, 2, 65, 100
6, 24887, Control_c, 2, 7, 91
6, 24888, Note_off_c, 2, 65, 64
6, 24912, Note_on_c, 2, 70, 100
6, 24936, Note_off_c, 2, 70, 64
6, 24996, Note_on_c, 2, 73, 100
6, 25008, Note_off_c, 2, 73, 64
6, 25008, Note_on_c, 2, 74, 100
6, 25013, Control_c, 2, 7, 91
6, 25032, Note_off_c, 2, 74, 64
6, 25056, Note_on_c, 2, 72, 100
6, 25056, Note_on_c, 2, 72, 100
6, 25080, Note_off_c, 2, 72, 64
6, 25080, Note_off_c, 2, 72, 64
6, 25104, Note_on_c, 2, 70, 100
6, 25104, Note_on_c, 2, 70, 100
6, 25128, Note_off_c, 2, 70, 64
6, 25128, Note_off_c, 2, 70, 64
6, 25140, Control_c, 2, 7, 91
6, 25152, Note_on_c, 2, 69, 100
6, 25176, Note_off_c, 2, 69, 64
6, 25200, Note_on_c, 2, 65, 100
6, 25200, Note_on_c, 2, 65, 100
6, 25224, Note_off_c, 2, 65, 64
6, 25224, Note_off_c, 2, 65, 64
6, 25248, Note_on_c, 2, 62, 100
6, 25267, Control_c, 2, 7, 91
6, 25272, Note_off_c, 2, 62, 64
6, 25296, Note_on_c, 2, 70, 100
6, 25320, Note_off_c, 2, 70, 64
6, 25392, Note_on_c, 2, 62, 100
6, 25394, Control_c, 2, 7, 91
6, 25416, Note_off_c, 2, 62, 64
6, 25440, Note_on_c, 2, 65, 100
6, 25464, Note_off_c, 2, 65, 64
6, 25488, Note_on_c, 2, 70, 100
6, 25512, Note_off_c, 2, 70, 64
6, 25521, Control_c, 2, 7, 91
6, 25584, Note_on_c, 2, 65, 100
6, 25608, Note_off_c, 2, 65, 64
6, 25632, Note_on_c, 2, 67, 100
6, 25648, Control_c, 2, 7, 91
6, 25656, Note_off_c, 2, 67, 64
6, 25680, Note_on_c, 2, 74, 100
6, 25704, Note_off_c, 2, 74, 64
6, 25762, Note_on_c, 2, 76, 100
6, 25774, Control_c, 2, 7, 91
6, 25776, Note_on_c, 2, 77, 100
6, 25778, Note_off_c, 2, 76, 64
6, 25800, Note_off_c, 2, 77, 64
6, 25824, Note_on_c, 2, 72, 100
6, 25848, Note_off_c, 2, 72, 64
6, 25872, Note_on_c, 2, 74, 100
6, 25896, Note_off_c, 2, 74, 64
6, 25902, Control_c, 2, 7, 91
6, 25920, Note_on_c, 2, 69, 100
6, 25944, Note_off_c, 2, 69, 64
6, 25968, Note_on_c, 2, 70, 100
6, 25992, Note_off_c, 2, 70, 64
6, 26016, Note_on_c, 2, 67, 100
6, 26028, Control_c, 2, 7, 91
6, 26040, Note_off_c, 2, 67, 64
6, 26064, Note_on_c, 2, 69, 100
6, 26088, Note_off_c, 2, 69, 64
6, 26156, Control_c, 2, 7, 91
6, 26160, Note_on_c, 2, 60, 100
6, 26184, Note_off_c, 2, 60, 64
6, 26208, Note_on_c, 2, 65, 100
6, 26232, Note_off_c, 2, 65, 64
6, 26256, Note_on_c, 2, 69, 100
6, 26280, Note_off_c, 2, 69, 64
6, 26282, Control_c, 2, 7, 91
6, 26352, Note_on_c, 2, 62, 100
6, 26376, Note_off_c, 2, 62, 64
6, 26400, Note_on_c, 2, 65, 100
6, 26409, Control_c, 2, 7, 91
6, 26424, Note_off_c, 2, 65, 64
6, 26448, Note_on_c, 2, 70, 100
6, 26472, Note_off_c, 2, 70, 64
6, 26532, Note_on_c, 2, 73, 100
6, 26536, Control_c, 2, 7, 91
6, 26544, Note_off_c, 2, 73, 64
6, 26544, Note_on_c, 2, 74, 100
6, 26568, Note_off_c, 2, 74, 64
6, 26592, Note_on_c, 2, 72, 100
6, 26592, Note_on_c, 2, 72, 100
6, 26616, Note_off_c, 2, 72, 64
6, 26616, Note_off_c, 2, 72, 64
6, 26640, Note_on_c, 2, 70, 100
6, 26640, Note_on_c, 2, 70, 100
6, 26663, Control_c, 2, 7, 91
6, 26664, Note_off_c, 2, 70, 64
6, 26664, Note_off_c, 2, 70, 64
6, 26688, Note_on_c, 2, 69, 100
6, 26712, Note_off_c, 2, 69, 64
6, 26736, Note_on_c, 2, 65, 100
6, 26736, Note_on_c, 2, 65, 100
6, 26760, Note_off_c, 2, 65, 64
6, 26760, Note_off_c, 2, 65, 64
6, 26784, Note_on_c, 2, 62, 100
6, 26789, Control_c, 2, 7, 91
6, 26808, Note_off_c, 2, 62, 64
6, 26832, Note_on_c, 2, 70, 100
6, 26856, Note_off_c, 2, 70, 64
6, 26917, Control_c, 2, 7, 91
6, 26928, Note_on_c, 2, 62, 100
6, 26952, Note_off_c, 2, 62, 64
6, 26976, Note_on_c, 2, 65, 100
6, 27000, Note_off_c, 2, 65, 64
6, 27024, Note_on_c, 2, 70, 100
6, 27043, Control_c, 2, 7, 91
6, 27048, Note_off_c, 2, 70, 64
6, 27120, Note_on_c, 2, 65, 100
6, 27144, Note_off_c, 2, 65, 64
6, 27168, Note_on_c, 2, 67, 100
6, 27171, Control_c, 2, 7, 91
6, 27192, Note_off_c, 2, 67, 64
6, 27216, Note_on_c, 2, 74, 100
6, 27240, Note_off_c, 2, 74, 64
6, 27297, Control_c, 2, 7, 91
6, 27298, Note_on_c, 2, 76, 100
6, 27312, Note_on_c, 2, 77, 100
6, 27314, Note_off_c, 2, 76, 64
6, 27336, Note_off_c, 2, 77, 64
6, 27360, Note_on_c, 2, 72, 100
6, 27384, Note_off_c, 2, 72, 64
6, 27408, Note_on_c, 2, 74, 100
6, 27424, Control_c, 2, 7, 91
6, 27432, Note_off_c, 2, 74, 64
6, 27456, Note_on_c, 2, 69, 100
6, 27480, Note_off_c, 2, 69, 64
6, 27504, Note_on_c, 2, 70, 100
6, 27528, Note_off_c, 2, 70, 64
6, 27551, Control_c, 2, 7, 91
6, 27552, Note_on_c, 2, 67, 100
6, 27576, Note_off_c, 2, 67, 64
6, 27600, Note_on_c, 2, 69, 100
6, 27624, Note_off_c, 2, 69, 64
6, 27678, Control_c, 2, 7, 91
6, 27696, Note_on_c, 2, 60, 100
6, 27720, Note_off_c, 2, 60, 64
6, 27744, Note_on_c, 2, 65, 100
6, 27768, Note_off_c, 2, 65, 64
6, 27792, Note_on_c, 2, 69, 100
6, 27805, Control_c, 2, 7, 91
6, 27816, Note_off_c, 2, 69, 64
6, 27888, Note_on_c, 2, 62, 100
6, 27912, Note_off_c, 2, 62, 64
6, 27932, Control_c, 2, 7, 91
6, 27936, Note_on_c, 2, 65, 100
6, 27960, Note_off_c, 2, 65, 64
6, 27984, Note_on_c, 2, 70, 100
6, 28008, Note_off_c, 2, 70, 64
6, 28058, Control_c, 2, 7, 91
6, 28068, Note_on_c, 2, 73, 100
6, 28080, Note_off_c, 2, 73, 64
6, 28080, Note_on_c, 2, 74, 100
6, 28104, Note_off_c, 2, 74, 64
6, 28128, Note_on_c, 2, 72, 100
6, 28128, Note_on_c, 2, 72, 100
6, 28152, Note_off_c, 2, 72, 64
6, 28152, Note_off_c, 2, 72, 64
6, 28176, Note_on_c, 2, 70, 100
6, 28176, Note_on_c, 2, 70, 100
6, 28186, Control_c, 2, 7, 91
6, 28200, Note_off_c, 2, 70, 64
6, 28200, Note_off_c, 2, 70, 64
6, 28224, Note_on_c, 2, 69, 100
6, 28248, Note_off_c, 2, 69, 64
6, 28272, Note_on_c, 2, 65, 100
6, 28272, Note_on_c, 2, 65, 100
6, 28296, Note_off_c, 2, 65, 64
6, 28296, Note_off_c, 2, 65, 64
6, 28312, Control_c, 2, 7, 91
6, 28320, Note_on_c, 2, 62, 100
6, 28344, Note_off_c, 2, 62, 64
6, 28368, Note_on_c, 2, 70, 100
6, 28392, Note_off_c, 2, 70, 64
6, 28439, Control_c, 2, 7, 91
6, 28464, Note_on_c, 2, 62, 100
6, 28488, Note_off_c, 2, 62, 64
6, 28512, Note_on_c, 2, 65, 100
6, 28536, Note_off_c, 2, 65, 64
6, 28560, Note_on_c, 2, 70, 100
6, 28566, Control_c, 2, 7, 91
6, 28584, Note_off_c, 2, 70, 64
6, 28656, Note_on_c, 2, 65, 100
6, 28680, Note_off_c, 2, 65, 64
6, 28693, Control_c, 2, 7, 91
6, 28704, Note_on_c, 2, 67, 100
6, 28728, Note_off_c, 2, 67, 64
6, 28752, Note_on_c, 2, 74, 100
6, 28776, Note_off_c, 2, 74, 64
6, 28820, Control_c, 2, 7, 91
6, 28834, Note_on_c, 2, 76, 100
6, 28848, Note_on_c, 2, 77, 100
6, 28850, Note_off_c, 2, 76, 64
6, 28872, Note_off_c, 2, 77, 64
6, 28896, Note_on_c, 2, 72, 100
6, 28920, Note_off_c, 2, 72, 64
6, 28944, Note_on_c, 2, 74, 100
6, 28947, Control_c, 2, 7, 91
6, 28968, Note_off_c, 2, 74, 64
6, 28992, Note_on_c, 2, 69, 100
6, 29016, Note_off_c, 2, 69, 64
6, 29040, Note_on_c, 2, 70, 100
6, 29064, Note_off_c, 2, 70, 64
6, 29073, Control_c, 2, 7, 91
6, 29088, Note_on_c, 2, 67, 100
6, 29112, Note_off_c, 2, 67, 64
6, 29136, Note_on_c, 2, 69, 100
6, 29160, Note_off_c, 2, 69, 64
6, 29201, Control_c, 2, 7, 91
6, 29232, Note_on_c, 2, 60, 100
6, 29256, Note_off_c, 2, 60, 64
6, 29280, Note_on_c, 2, 65, 100
6, 29304, Note_off_c, 2, 65, 64
6, 29327, Control_c, 2, 7, 91
6, 29328, Note_on_c, 2, 69, 100
6, 29352, Note_off_c, 2, 69, 64
6, 29424, Note_on_c, 2, 62, 100
6, 29448, Note_off_c, 2, 62, 64
6, 29455, Control_c, 2, 7, 91
6, 29472, Note_on_c, 2, 65, 100
6, 29496, Note_off_c, 2, 65, 64
6, 29520, Note_on_c, 2, 70, 100
6, 29544, Note_off_c, 2, 70, 64
6, 29581, Control_c, 2, 7, 91
6, 29604, Note_on_c, 2, 73, 100
6, 29616, Note_off_c, 2, 73, 64
6, 29616, Note_on_c, 2, 74, 100
6, 29640, Note_off_c, 2, 74, 64
6, 29664, Note_on_c, 2, 72, 100
6, 29664, Note_on_c, 2, 72, 100
6, 29688, Note_off_c, 2, 72, 64
6, 29688, Note_off_c, 2, 72, 64
6, 29708, Control_c, 2, 7, 91
6, 29712, Note_on_c, 2, 70, 100
6, 29712, Note_on_c, 2, 70, 100
6, 29736, Note_off_c, 2, 70, 64
6, 29736, Note_off_c, 2, 70, 64
6, 29760, Note_on_c, 2, 69, 100
6, 29784, Note_off_c, 2, 69, 64
6, 29808, Note_on_c, 2, 65, 100
6, 29808, Note_on_c, 2, 65, 100
6, 29832, Note_off_c, 2, 65, 64
6, 29832, Note_off_c, 2, 65, 64
6, 29835, Control_c, 2, 7, 91
6, 29856, Note_on_c, 2, 62, 100
6, 29880, Note_off_c, 2, 62, 64
6, 29904, Note_on_c, 2, 70, 100
6, 29928, Note_off_c, 2, 70, 64
6, 29962, Control_c, 2, 7, 91
6, 30088, Control_c, 2, 7, 91
6, 30216, Control_c, 2, 7, 91
6, 30342, Control_c, 2, 7, 91
6, 30470, Control_c, 2, 7, 91
6, 30596, Control_c, 2, 7, 91
6, 30723, Control_c, 2, 7, 91
6, 30850, Control_c, 2, 7, 91
6, 30977, Control_c, 2, 7, 91
6, 31103, Control_c, 2, 7, 91
6, 31231, Control_c, 2, 7, 90
6, 31357, Control_c, 2, 7, 90
6, 31485, Control_c, 2, 7, 90
6, 31611, Control_c, 2, 7, 90
6, 31738, Control_c, 2, 7, 90
6, 31865, Control_c, 2, 7, 90
6, 31992, Control_c, 2, 7, 90
6, 32119, Control_c, 2, 7, 90
6, 32246, Control_c, 2, 7, 90
6, 32372, Control_c, 2, 7, 90
6, 32500, Control_c, 2, 7, 90
6, 32626, Control_c, 2, 7, 90
6, 32753, Control_c, 2, 7, 90
6, 32880, Control_c, 2, 7, 90
6, 33007, Control_c, 2, 7, 90
6, 33134, Control_c, 2, 7, 90
6, 33261, Control_c, 2, 7, 90
6, 33387, Control_c, 2, 7, 90
6, 33515, Control_c, 2, 7, 90
6, 33641, Control_c, 2, 7, 90
6, 33769, Control_c, 2, 7, 90
6, 33895, Control_c, 2, 7, 90
6, 34022, Control_c, 2, 7, 90
6, 34149, Control_c, 2, 7, 90
6, 34276, Control_c, 2, 7, 90
6, 34402, Control_c, 2, 7, 90
6, 34530, Control_c, 2, 7, 90
6, 34656, Control_c, 2, 7, 90
6, 34784, Control_c, 2, 7, 90
6, 34910, Control_c, 2, 7, 90
6, 35037, Control_c, 2, 7, 90
6, 35164, Control_c, 2, 7, 90
6, 35291, Control_c, 2, 7, 90
6, 35418, Control_c, 2, 7, 90
6, 35545, Control_c, 2, 7, 90
6, 35671, Control_c, 2, 7, 90
6, 35799, Control_c, 2, 7, 90
6, 35925, Control_c, 2, 7, 90
6, 36052, Control_c, 2, 7, 90
6, 36179, Control_c, 2, 7, 90
6, 36306, Control_c, 2, 7, 90
6, 36433, Control_c, 2, 7, 90
6, 36560, Control_c, 2, 7, 90
6, 36686, Control_c, 2, 7, 90
6, 36814, Control_c, 2, 7, 90
6, 36940, Control_c, 2, 7, 90
6, 37068, Control_c, 2, 7, 90
6, 37194, Control_c, 2, 7, 90
6, 37321, Control_c, 2, 7, 90
6, 37448, Control_c, 2, 7, 90
6, 37575, Control_c, 2, 7, 90
6, 37701, Control_c, 2, 7, 90
6, 37829, Control_c, 2, 7, 90
6, 37955, Control_c, 2, 7, 90
6, 38050, Note_on_c, 2, 76, 100
6, 38064, Note_on_c, 2, 77, 100
6, 38066, Note_off_c, 2, 76, 64
6, 38083, Control_c, 2, 7, 90
6, 38088, Note_off_c, 2, 77, 64
6, 38112, Note_on_c, 2, 72, 100
6, 38136, Note_off_c, 2, 72, 64
6, 38160, Note_on_c, 2, 74, 100
6, 38184, Note_off_c, 2, 74, 64
6, 38208, Note_on_c, 2, 69, 100
6, 38209, Control_c, 2, 7, 90
6, 38232, Note_off_c, 2, 69, 64
6, 38256, Note_on_c, 2, 70, 100
6, 38280, Note_off_c, 2, 70, 64
6, 38304, Note_on_c, 2, 67, 100
6, 38328, Note_off_c, 2, 67, 64
6, 38336, Control_c, 2, 7, 90
6, 38352, Note_on_c, 2, 69, 100
6, 38376, Note_off_c, 2, 69, 64
6, 38463, Control_c, 2, 7, 90
6, 38590, Control_c, 2, 7, 90
6, 38716, Control_c, 2, 7, 90
6, 38844, Control_c, 2, 7, 90
6, 38970, Control_c, 2, 7, 90
6, 39098, Control_c, 2, 7, 90
6, 39224, Control_c, 2, 7, 90
6, 39351, Control_c, 2, 7, 90
6, 39478, Control_c, 2, 7, 90
6, 39586, Note_on_c, 2, 76, 100
6, 39600, Note_on_c, 2, 77, 100
6, 39602, Note_off_c, 2, 76, 64
6, 39605, Control_c, 2, 7, 90
6, 39624, Note_off_c, 2, 77, 64
6, 39648, Note_on_c, 2, 72, 100
6, 39672, Note_off_c, 2, 72, 64
6, 39696, Note_on_c, 2, 74, 100
6, 39720, Note_off_c, 2, 74, 64
6, 39732, Control_c, 2, 7, 90
6, 39744, Note_on_c, 2, 69, 100
6, 39768, Note_off_c, 2, 69, 64
6, 39792, Note_on_c, 2, 70, 100
6, 39816, Note_off_c, 2, 70, 64
6, 39840, Note_on_c, 2, 67, 100
6, 39859, Control_c, 2, 7, 90
6, 39864, Note_off_c, 2, 67, 64
6, 39888, Note_on_c, 2, 69, 100
6, 39912, Note_off_c, 2, 69, 64
6, 39984, Note_on_c, 2, 60, 100
6, 39985, Control_c, 2, 7, 90
6, 40008, Note_off_c, 2, 60, 64
6, 40032, Note_on_c, 2, 65, 100
6, 40056, Note_off_c, 2, 65, 64
6, 40080, Note_on_c, 2, 69, 100
6, 40104, Note_off_c, 2, 69, 64
6, 40113, Control_c, 2, 7, 90
6, 40176, Note_on_c, 2, 62, 100
6, 40200, Note_off_c, 2, 62, 64
6, 40224, Note_on_c, 2, 65, 100
6, 40239, Control_c, 2, 7, 90
6, 40248, Note_off_c, 2, 65, 64
6, 40272, Note_on_c, 2, 70, 100
6, 40296, Note_off_c, 2, 70, 64
6, 40356, Note_on_c, 2, 73, 100
6, 40366, Control_c, 2, 7, 90
6, 40368, Note_off_c, 2, 73, 64
6, 40368, Note_on_c, 2, 74, 100
6, 40392, Note_off_c, 2, 74, 64
6, 40416, Note_on_c, 2, 72, 100
6, 40416, Note_on_c, 2, 72, 100
6, 40440, Note_off_c, 2, 72, 64
6, 40440, Note_off_c, 2, 72, 64
6, 40464, Note_on_c, 2, 70, 100
6, 40464, Note_on_c, 2, 70, 100
6, 40488, Note_off_c, 2, 70, 64
6, 40488, Note_off_c, 2, 70, 64
6, 40493, Control_c, 2, 7, 90
6, 40512, Note_on_c, 2, 69, 100
6, 40536, Note_off_c, 2, 69, 64
6, 40560, Note_on_c, 2, 65, 100
6, 40560, Note_on_c, 2, 65, 100
6, 40584, Note_off_c, 2, 65, 64
6, 40584, Note_off_c, 2, 65, 64
6, 40608, Note_on_c, 2, 62, 100
6, 40620, Control_c, 2, 7, 90
6, 40632, Note_off_c, 2, 62, 64
6, 40656, Note_on_c, 2, 70, 100
6, 40680, Note_off_c, 2, 70, 64
6, 40747, Control_c, 2, 7, 90
6, 40752, Note_on_c, 2, 62, 100
6, 40776, Note_off_c, 2, 62, 64
6, 40800, Note_on_c, 2, 65, 100
6, 40824, Note_off_c, 2, 65, 64
6, 40848, Note_on_c, 2, 70, 100
6, 40872, Note_off_c, 2, 70, 64
6, 40874, Control_c, 2, 7, 90
6, 40944, Note_on_c, 2, 65, 100
6, 40968, Note_off_c, 2, 65, 64
6, 40992, Note_on_c, 2, 67, 100
6, 41000, Control_c, 2, 7, 90
6, 41016, Note_off_c, 2, 67, 64
6, 41040, Note_on_c, 2, 74, 100
6, 41064, Note_off_c, 2, 74, 64
6, 41122, Note_on_c, 2, 76, 100
6, 41128, Control_c, 2, 7, 90
6, 41136, Note_on_c, 2, 77, 100
6, 41138, Note_off_c, 2, 76, 64
6, 41160, Note_off_c, 2, 77, 64
6, 41184, Note_on_c, 2, 72, 100
6, 41208, Note_off_c, 2, 72, 64
6, 41232, Note_on_c, 2, 74, 100
6, 41254, Control_c, 2, 7, 90
6, 41256, Note_off_c, 2, 74, 64
6, 41280, Note_on_c, 2, 69, 100
6, 41304, Note_off_c, 2, 69, 64
6, 41328, Note_on_c, 2, 70, 100
6, 41352, Note_off_c, 2, 70, 64
6, 41376, Note_on_c, 2, 67, 100
6, 41382, Control_c, 2, 7, 90
6, 41400, Note_off_c, 2, 67, 64
6, 41424, Note_on_c, 2, 69, 100
6, 41448, Note_off_c, 2, 69, 64
6, 41508, Control_c, 2, 7, 90
6, 41520, Note_on_c, 2, 60, 100
6, 41544, Note_off_c, 2, 60, 64
6, 41568, Note_on_c, 2, 65, 100
6, 41592, Note_off_c, 2, 65, 64
6, 41616, Note_on_c, 2, 69, 100
6, 41635, Control_c, 2, 7, 90
6, 41640, Note_off_c, 2, 69, 64
6, 41712, Note_on_c, 2, 62, 100
6, 41736, Note_off_c, 2, 62, 64
6, 41760, Note_on_c, 2, 65, 100
6, 41762, Control_c, 2, 7, 90
6, 41784, Note_off_c, 2, 65, 64
6, 41808, Note_on_c, 2, 70, 100
6, 41832, Note_off_c, 2, 70, 64
6, 41889, Control_c, 2, 7, 90
6, 41892, Note_on_c, 2, 73, 100
6, 41904, Note_off_c, 2, 73, 64
6, 41904, Note_on_c, 2, 74, 100
6, 41928, Note_off_c, 2, 74, 64
6, 41952, Note_on_c, 2, 72, 100
6, 41952, Note_on_c, 2, 72, 100
6, 41976, Note_off_c, 2, 72, 64
6, 41976, Note_off_c, 2, 72, 64
6, 42000, Note_on_c, 2, 70, 100
6, 42000, Note_on_c, 2, 70, 100
6, 42015, Control_c, 2, 7, 90
6, 42024, Note_off_c, 2, 70, 64
6, 42024, Note_off_c, 2, 70, 64
6, 42048, Note_on_c, 2, 69, 100
6, 42072, Note_off_c, 2, 69, 64
6, 42096, Note_on_c, 2, 65, 100
6, 42096, Note_on_c, 2, 65, 100
6, 42120, Note_off_c, 2, 65, 64
6, 42120, Note_off_c, 2, 65, 64
6, 42143, Control_c, 2, 7, 90
6, 42144, Note_on_c, 2, 62, 100
6, 42168, Note_off_c, 2, 62, 64
6, 42192, Note_on_c, 2, 70, 100
6, 42216, Note_off_c, 2, 70, 64
6, 42269, Control_c, 2, 7, 90
6, 42397, Control_c, 2, 7, 90
6, 42523, Control_c, 2, 7, 90
6, 42650, Control_c, 2, 7, 90
6, 42777, Control_c, 2, 7, 90
6, 42904, Control_c, 2, 7, 90
6, 43031, Control_c, 2, 7, 90
6, 43158, Control_c, 2, 7, 90
6, 43284, Control_c, 2, 7, 90
6, 43412, Control_c, 2, 7, 90
6, 43440, Note_on_c, 2, 60, 100
6, 43464, Note_off_c, 2, 60, 64
6, 43488, Note_on_c, 2, 65, 100
6, 43512, Note_off_c, 2, 65, 64
6, 43536, Note_on_c, 2, 69, 100
6, 43538, Control_c, 2, 7, 90
6, 43560, Note_off_c, 2, 69, 64
6, 43632, Note_on_c, 2, 62, 100
6, 43656, Note_off_c, 2, 62, 64
6, 43665, Control_c, 2, 7, 90
6, 43680, Note_on_c, 2, 65, 100
6, 43704, Note_off_c, 2, 65, 64
6, 43728, Note_on_c, 2, 70, 100
6, 43752, Note_off_c, 2, 70, 64
6, 43792, Control_c, 2, 7, 90
6, 43812, Note_on_c, 2, 73, 100
6, 43824, Note_off_c, 2, 73, 64
6, 43824, Note_on_c, 2, 74, 100
6, 43848, Note_off_c, 2, 74, 64
6, 43872, Note_on_c, 2, 72, 100
6, 43872, Note_on_c, 2, 72, 100
6, 43896, Note_off_c, 2, 72, 64
6, 43896, Note_off_c, 2, 72, 64
6, 43919, Control_c, 2, 7, 90
6, 43920, Note_on_c, 2, 70, 100
6, 43920, Note_on_c, 2, 70, 100
6, 43944, Note_off_c, 2, 70, 64
6, 43944, Note_off_c, 2, 70, 64
6, 43968, Note_on_c, 2, 69, 100
6, 43992, Note_off_c, 2, 69, 64
6, 44016, Note_on_c, 2, 65, 100
6, 44016, Note_on_c, 2, 65, 100
6, 44040, Note_off_c, 2, 65, 64
6, 44040, Note_off_c, 2, 65, 64
6, 44046, Control_c, 2, 7, 90
6, 44064, Note_on_c, 2, 62, 100
6, 44088, Note_off_c, 2, 62, 64
6, 44112, Note_on_c, 2, 70, 100
6, 44136, Note_off_c, 2, 70, 64
6, 44173, Control_c, 2, 7, 90
6, 44208, Note_on_c, 2, 62, 100
6, 44232, Note_off_c, 2, 62, 64
6, 44256, Note_on_c, 2, 65, 100
6, 44280, Note_off_c, 2, 65, 64
6, 44299, Control_c, 2, 7, 90
6, 44304, Note_on_c, 2, 70, 100
6, 44328, Note_off_c, 2, 70, 64
6, 44400, Note_on_c, 2, 65, 100
6, 44424, Note_off_c, 2, 65, 64
6, 44427, Control_c, 2, 7, 90
6, 44448, Note_on_c, 2, 67, 100
6, 44472, Note_off_c, 2, 67, 64
6, 44496, Note_on_c, 2, 74, 100
6, 44520, Note_off_c, 2, 74, 64
6, 44553, Control_c, 2, 7, 90
6, 44578, Note_on_c, 2, 76, 100
6, 44592, Note_on_c, 2, 77, 100
6, 44594, Note_off_c, 2, 76, 64
6, 44616, Note_off_c, 2, 77, 64
6, 44640, Note_on_c, 2, 72, 100
6, 44664, Note_off_c, 2, 72, 64
6, 44680, Control_c, 2, 7, 90
6, 44688, Note_on_c, 2, 74, 100
6, 44712, Note_off_c, 2, 74, 64
6, 44736, Note_on_c, 2, 69, 100
6, 44760, Note_off_c, 2, 69, 64
6, 44784, Note_on_c, 2, 70, 100
6, 44807, Control_c, 2, 7, 90
6, 44808, Note_off_c, 2, 70, 64
6, 44832, Note_on_c, 2, 67, 100
6, 44856, Note_off_c, 2, 67, 64
6, 44880, Note_on_c, 2, 69, 100
6, 44904, Note_off_c, 2, 69, 64
6, 44934, Control_c, 2, 7, 90
6, 44976, Note_on_c, 2, 60, 100
6, 45000, Note_off_c, 2, 60, 64
6, 45024, Note_on_c, 2, 65, 100
6, 45048, Note_off_c, 2, 65, 64
6, 45061, Control_c, 2, 7, 90
6, 45072, Note_on_c, 2, 69, 100
6, 45096, Note_off_c, 2, 69, 64
6, 45168, Note_on_c, 2, 62, 100
6, 45188, Control_c, 2, 7, 90
6, 45192, Note_off_c, 2, 62, 64
6, 45216, Note_on_c, 2, 65, 100
6, 45240, Note_off_c, 2, 65, 64
6, 45264, Note_on_c, 2, 70, 100
6, 45288, Note_off_c, 2, 70, 64
6, 45314, Control_c, 2, 7, 90
6, 45348, Note_on_c, 2, 73, 100
6, 45360, Note_off_c, 2, 73, 64
6, 45360, Note_on_c, 2, 74, 100
6, 45384, Note_off_c, 2, 74, 64
6, 45408, Note_on_c, 2, 72, 100
6, 45408, Note_on_c, 2, 72, 100
6, 45432, Note_off_c, 2, 72, 64
6, 45432, Note_off_c, 2, 72, 64
6, 45442, Control_c, 2, 7, 90
6, 45456, Note_on_c, 2, 70, 100
6, 45456, Note_on_c, 2, 70, 100
6, 45480, Note_off_c, 2, 70, 64
6, 45480, Note_off_c, 2, 70, 64
6, 45504, Note_on_c, 2, 69, 100
6, 45528, Note_off_c, 2, 69, 64
6, 45552, Note_on_c, 2, 65, 100
6, 45552, Note_on_c, 2, 65, 100
6, 45568, Control_c, 2, 7, 90
6, 45576, Note_off_c, 2, 65, 64
6, 45576, Note_off_c, 2, 65, 64
6, 45600, Note_on_c, 2, 62, 100
6, 45624, Note_off_c, 2, 62, 64
6, 45648, Note_on_c, 2, 70, 100
6, 45672, Note_off_c, 2, 70, 64
6, 45696, Control_c, 2, 7, 90
6, 45744, Note_on_c, 2, 62, 100
6, 45768, Note_off_c, 2, 62, 64
6, 45792, Note_on_c, 2, 65, 100
6, 45816, Note_off_c, 2, 65, 64
6, 45822, Control_c, 2, 7, 90
6, 45840, Note_on_c, 2, 70, 100
6, 45864, Note_off_c, 2, 70, 64
6, 45936, Note_on_c, 2, 65, 100
6, 45949, Control_c, 2, 7, 90
6, 45960, Note_off_c, 2, 65, 64
6, 45984, Note_on_c, 2, 67, 100
6, 46008, Note_off_c, 2, 67, 64
6, 46032, Note_on_c, 2, 74, 100
6, 46056, Note_off_c, 2, 74, 64
6, 46076, Control_c, 2, 7, 90
6, 46114, Note_on_c, 2, 76, 100
6, 46128, Note_on_c, 2, 77, 100
6, 46130, Note_off_c, 2, 76, 64
6, 46152, Note_off_c, 2, 77, 64
6, 46176, Note_on_c, 2, 72, 100
6, 46200, Note_off_c, 2, 72, 64
6, 46203, Control_c, 2, 7, 90
6, 46224, Note_on_c, 2, 74, 100
6, 46248, Note_off_c, 2, 74, 64
6, 46272, Note_on_c, 2, 69, 100
6, 46296, Note_off_c, 2, 69, 64
6, 46320, Note_on_c, 2, 70, 100
6, 46329, Control_c, 2, 7, 90
6, 46344, Note_off_c, 2, 70, 64
6, 46368, Note_on_c, 2, 67, 100
6, 46392, Note_off_c, 2, 67, 64
6, 46416, Note_on_c, 2, 69, 100
6, 46440, Note_off_c, 2, 69, 64
6, 46457, Control_c, 2, 7, 90
6, 46512, Note_on_c, 2, 60, 100
6, 46536, Note_off_c, 2, 60, 64
6, 46560, Note_on_c, 2, 65, 100
6, 46583, Control_c, 2, 7, 90
6, 46584, Note_off_c, 2, 65, 64
6, 46608, Note_on_c, 2, 69, 100
6, 46632, Note_off_c, 2, 69, 64
6, 46704, Note_on_c, 2, 62, 100
6, 46711, Control_c, 2, 7, 90
6, 46728, Note_off_c, 2, 62, 64
6, 46752, Note_on_c, 2, 65, 100
6, 46776, Note_off_c, 2, 65, 64
6, 46800, Note_on_c, 2, 70, 100
6, 46824, Note_off_c, 2, 70, 64
6, 46837, Control_c, 2, 7, 90
6, 46884, Note_on_c, 2, 73, 100
6, 46896, Note_off_c, 2, 73, 64
6, 46896, Note_on_c, 2, 74, 100
6, 46920, Note_off_c, 2, 74, 64
6, 46944, Note_on_c, 2, 72, 100
6, 46944, Note_on_c, 2, 72, 100
6, 46964, Control_c, 2, 7, 90
6, 46968, Note_off_c, 2, 72, 64
6, 46968, Note_off_c, 2, 72, 64
6, 46992, Note_on_c, 2, 70, 100
6, 46992, Note_on_c, 2, 70, 100
6, 47016, Note_off_c, 2, 70, 64
6, 47016, Note_off_c, 2, 70, 64
6, 47040, Note_on_c, 2, 69, 100
6, 47064, Note_off_c, 2, 69, 64
6, 47088, Note_on_c, 2, 65, 100
6, 47088, Note_on_c, 2, 65, 100
6, 47091, Control_c, 2, 7, 90
6, 47112, Note_off_c, 2, 65, 64
6, 47112, Note_off_c, 2, 65, 64
6, 47136, Note_on_c, 2, 62, 100
6, 47160, Note_off_c, 2, 62, 64
6, 47184, Note_on_c, 2, 70, 100
6, 47208, Note_off_c, 2, 70, 64
6, 47218, Control_c, 2, 7, 90
6, 47280, Note_on_c, 2, 62, 100
6, 47304, Note_off_c, 2, 62, 64
6, 47328, Note_on_c, 2, 65, 100
6, 47345, Control_c, 2, 7, 90
6, 47352, Note_off_c, 2, 65, 64
6, 47376, Note_on_c, 2, 70, 100
6, 47400, Note_off_c, 2, 70, 64
6, 47472, Note_on_c, 2, 65, 100
6, 47472, Control_c, 2, 7, 90
6, 47496, Note_off_c, 2, 65, 64
6, 47520, Note_on_c, 2, 67, 100
6, 47544, Note_off_c, 2, 67, 64
6, 47568, Note_on_c, 2, 74, 100
6, 47592, Note_off_c, 2, 74, 64
6, 47598, Control_c, 2, 7, 90
6, 47650, Note_on_c, 2, 76, 100
6, 47664, Note_on_c, 2, 77, 100
6, 47666, Note_off_c, 2, 76, 64
6, 47688, Note_off_c, 2, 77, 64
6, 47712, Note_on_c, 2, 72, 100
6, 47726, Control_c, 2, 7, 90
6, 47736, Note_off_c, 2, 72, 64
6, 47760, Note_on_c, 2, 74, 100
6, 47784, Note_off_c, 2, 74, 64
6, 47808, Note_on_c, 2, 69, 100
6, 47832, Note_off_c, 2, 69, 64
6, 47852, Control_c, 2, 7, 90
6, 47856, Note_on_c, 2, 70, 100
6, 47880, Note_off_c, 2, 70, 64
6, 47904, Note_on_c, 2, 67, 100
6, 47928, Note_off_c, 2, 67, 64
6, 47952, Note_on_c, 2, 69, 100
6, 47976, Note_off_c, 2, 69, 64
6, 47979, Control_c, 2, 7, 90
6, 48048, Note_on_c, 2, 60, 100
6, 48072, Note_off_c, 2, 60, 64
6, 48096, Note_on_c, 2, 65, 100
6, 48106, Control_c, 2, 7, 90
6, 48120, Note_off_c, 2, 65, 64
6, 48144, Note_on_c, 2, 69, 100
6, 48168, Note_off_c, 2, 69, 64
6, 48233, Control_c, 2, 7, 90
6, 48240, Note_on_c, 2, 62, 100
6, 48264, Note_off_c, 2, 62, 64
6, 48288, Note_on_c, 2, 65, 100
6, 48312, Note_off_c, 2, 65, 64
6, 48336, Note_on_c, 2, 70, 100
6, 48360, Note_off_c, 2, 70, 64
6, 48360, Control_c, 2, 7, 90
6, 48420, Note_on_c, 2, 73, 100
6, 48432, Note_off_c, 2, 73, 64
6, 48432, Note_on_c, 2, 74, 100
6, 48456, Note_off_c, 2, 74, 64
6, 48480, Note_on_c, 2, 72, 100
6, 48480, Note_on_c, 2, 72, 100
6, 48487, Control_c, 2, 7, 90
6, 48504, Note_off_c, 2, 72, 64
6, 48504, Note_off_c, 2, 72, 64
6, 48528, Note_on_c, 2, 70, 100
6, 48528, Note_on_c, 2, 70, 100
6, 48552, Note_off_c, 2, 70, 64
6, 48552, Note_off_c, 2, 70, 64
6, 48576, Note_on_c, 2, 69, 100
6, 48600, Note_off_c, 2, 69, 64
6, 48613, Control_c, 2, 7, 90
6, 48624, Note_on_c, 2, 65, 100
6, 48624, Note_on_c, 2, 65, 100
6, 48648, Note_off_c, 2, 65, 64
6, 48648, Note_off_c, 2, 65, 64
6, 48672, Note_on_c, 2, 62, 100
6, 48696, Note_off_c, 2, 62, 64
6, 48720, Note_on_c, 2, 70, 100
6, 48741, Control_c, 2, 7, 90
6, 48744, Note_off_c, 2, 70, 64
6, 48867, Control_c, 2, 7, 90
6, 48995, Control_c, 2, 7, 90
6, 49121, Control_c, 2, 7, 90
6, 49248, Control_c, 2, 7, 90
6, 49375, Control_c, 2, 7, 90
6, 49502, Control_c, 2, 7, 90
6, 49584, Note_on_c, 2, 60, 100
6, 49608, Note_off_c, 2, 60, 64
6, 49628, Control_c, 2, 7, 90
6, 49632, Note_on_c, 2, 65, 100
6, 49656, Note_off_c, 2, 65, 64
6, 49680, Note_on_c, 2, 69, 100
6, 49704, Note_off_c, 2, 69, 64
6, 49756, Control_c, 2, 7, 90
6, 49776, Note_on_c, 2, 62, 100
6, 49800, Note_off_c, 2, 62, 64
6, 49824, Note_on_c, 2, 65, 100
6, 49848, Note_off_c, 2, 65, 64
6, 49872, Note_on_c, 2, 70, 100
6, 49882, Control_c, 2, 7, 90
6, 49896, Note_off_c, 2, 70, 64
6, 49956, Note_on_c, 2, 73, 100
6, 49968, Note_off_c, 2, 73, 64
6, 49968, Note_on_c, 2, 74, 100
6, 49992, Note_off_c, 2, 74, 64
6, 50010, Control_c, 2, 7, 90
6, 50016, Note_on_c, 2, 72, 100
6, 50016, Note_on_c, 2, 72, 100
6, 50040, Note_off_c, 2, 72, 64
6, 50040, Note_off_c, 2, 72, 64
6, 50064, Note_on_c, 2, 70, 100
6, 50064, Note_on_c, 2, 70, 100
6, 50088, Note_off_c, 2, 70, 64
6, 50088, Note_off_c, 2, 70, 64
6, 50112, Note_on_c, 2, 69, 100
6, 50136, Note_off_c, 2, 69, 64
6, 50136, Control_c, 2, 7, 90
6, 50160, Note_on_c, 2, 65, 100
6, 50160, Note_on_c, 2, 65, 100
6, 50184, Note_off_c, 2, 65, 64
6, 50184, Note_off_c, 2, 65, 64
6, 50208, Note_on_c, 2, 62, 100
6, 50232, Note_off_c, 2, 62, 64
6, 50256, Note_on_c, 2, 70, 100
6, 50263, Control_c, 2, 7, 90
6, 50280, Note_off_c, 2, 70, 64
6, 50352, Note_on_c, 2, 62, 100
6, 50376, Note_off_c, 2, 62, 64
6, 50390, Control_c, 2, 7, 90
6, 50400, Note_on_c, 2, 65, 100
6, 50424, Note_off_c, 2, 65, 64
6, 50448, Note_on_c, 2, 70, 100
6, 50472, Note_off_c, 2, 70, 64
6, 50517, Control_c, 2, 7, 90
6, 50544, Note_on_c, 2, 65, 100
6, 50568, Note_off_c, 2, 65, 64
6, 50592, Note_on_c, 2, 67, 100
6, 50616, Note_off_c, 2, 67, 64
6, 50640, Note_on_c, 2, 74, 100
6, 50643, Control_c, 2, 7, 90
6, 50664, Note_off_c, 2, 74, 64
6, 50722, Note_on_c, 2, 76, 100
6, 50736, Note_on_c, 2, 77, 100
6, 50738, Note_off_c, 2, 76, 64
6, 50760, Note_off_c, 2, 77, 64
6, 50771, Control_c, 2, 7, 90
6, 50784, Note_on_c, 2, 72, 100
6, 50808, Note_off_c, 2, 72, 64
6, 50832, Note_on_c, 2, 74, 100
6, 50856, Note_off_c, 2, 74, 64
6, 50880, Note_on_c, 2, 69, 100
6, 50897, Control_c, 2, 7, 90
6, 50904, Note_off_c, 2, 69, 64
6, 50928, Note_on_c, 2, 70, 100
6, 50952, Note_off_c, 2, 70, 64
6, 50976, Note_on_c, 2, 67, 100
6, 51000, Note_off_c, 2, 67, 64
6, 51024, Note_on_c, 2, 69, 100
6, 51025, Control_c, 2, 7, 90
6, 51048, Note_off_c, 2, 69, 64
6, 51120, Note_on_c, 2, 60, 100
6, 51144, Note_off_c, 2, 60, 64
6, 51151, Control_c, 2, 7, 90
6, 51168, Note_on_c, 2, 65, 100
6, 51192, Note_off_c, 2, 65, 64
6, 51216, Note_on_c, 2, 69, 100
6, 51240, Note_off_c, 2, 69, 64
6, 51278, Control_c, 2, 7, 90
6, 51312, Note_on_c, 2, 62, 100
6, 51336, Note_off_c, 2, 62, 64
6, 51360, Note_on_c, 2, 65, 100
6, 51384, Note_off_c, 2, 65, 64
6, 51405, Control_c, 2, 7, 90
6, 51408, Note_on_c, 2, 70, 100
6, 51432, Note_off_c, 2, 70, 64
6, 51492, Note_on_c, 2, 73, 100
6, 51504, Note_off_c, 2, 73, 64
6, 51504, Note_on_c, 2, 74, 100
6, 51528, Note_off_c, 2, 74, 64
6, 51532, Control_c, 2, 7, 90
6, 51552, Note_on_c, 2, 72, 100
6, 51552, Note_on_c, 2, 72, 100
6, 51576, Note_off_c, 2, 72, 64
6, 51576, Note_off_c, 2, 72, 64
6, 51600, Note_on_c, 2, 70, 100
6, 51600, Note_on_c, 2, 70, 100
6, 51624, Note_off_c, 2, 70, 64
6, 51624, Note_off_c, 2, 70, 64
6, 51648, Note_on_c, 2, 69, 100
6, 51659, Control_c, 2, 7, 90
6, 51672, Note_off_c, 2, 69, 64
6, 51696, Note_on_c, 2, 65, 100
6, 51696, Note_on_c, 2, 65, 100
6, 51720, Note_off_c, 2, 65, 64
6, 51720, Note_off_c, 2, 65, 64
6, 51744, Note_on_c, 2, 62, 100
6, 51768, Note_off_c, 2, 62, 64
6, 51786, Control_c, 2, 7, 90
6, 51792, Note_on_c, 2, 70, 100
6, 51816, Note_off_c, 2, 70, 64
6, 51888, Note_on_c, 2, 62, 100
6, 51912, Note_off_c, 2, 62, 64
6, 51912, Control_c, 2, 7, 90
6, 51936, Note_on_c, 2, 65, 100
6, 51960, Note_off_c, 2, 65, 64
6, 51984, Note_on_c, 2, 70, 100
6, 52008, Note_off_c, 2, 70, 64
6, 52040, Control_c, 2, 7, 90
6, 52080, Note_on_c, 2, 65, 100
6, 52104, Note_off_c, 2, 65, 64
6, 52128, Note_on_c, 2, 67, 100
6, 52152, Note_off_c, 2, 67, 64
6, 52166, Control_c, 2, 7, 90
6, 52176, Note_on_c, 2, 74, 100
6, 52200, Note_off_c, 2, 74, 64
6, 52258, Note_on_c, 2, 76, 100
6, 52272, Note_on_c, 2, 77, 100
6, 52274, Note_off_c, 2, 76, 64
6, 52293, Control_c, 2, 7, 90
6, 52296, Note_off_c, 2, 77, 64
6, 52320, Note_on_c, 2, 72, 100
6, 52344, Note_off_c, 2, 72, 64
6, 52368, Note_on_c, 2, 74, 100
6, 52392, Note_off_c, 2, 74, 64
6, 52416, Note_on_c, 2, 69, 100
6, 52420, Control_c, 2, 7, 90
6, 52440, Note_off_c, 2, 69, 64
6, 52464, Note_on_c, 2, 70, 100
6, 52488, Note_off_c, 2, 70, 64
6, 52512, Note_on_c, 2, 67, 100
6, 52536, Note_off_c, 2, 67, 64
6, 52547, Control_c, 2, 7, 90
6, 52560, Note_on_c, 2, 69, 100
6, 52584, Note_off_c, 2, 69, 64
6, 52656, Note_on_c, 2, 60, 100
6, 52674, Control_c, 2, 7, 90
6, 52680, Note_off_c, 2, 60, 64
6, 52704, Note_on_c, 2, 65, 100
6, 52728, Note_off_c, 2, 65, 64
6, 52752, Note_on_c, 2, 69, 100
6, 52776, Note_off_c, 2, 69, 64
6, 52801, Control_c, 2, 7, 90
6, 52848, Note_on_c, 2, 62, 100
6, 52872, Note_off_c, 2, 62, 64
6, 52896, Note_on_c, 2, 65, 100
6, 52920, Note_off_c, 2, 65, 64
6, 52927, Control_c, 2, 7, 90
6, 52944, Note_on_c, 2, 70, 100
6, 52968, Note_off_c, 2, 70, 64
6, 53028, Note_on_c, 2, 73, 100
6, 53040, Note_off_c, 2, 73, 64
6, 53040, Note_on_c, 2, 74, 100
6, 53055, Control_c, 2, 7, 90
6, 53064, Note_off_c, 2, 74, 64
6, 53088, Note_on_c, 2, 72, 100
6, 53088, Note_on_c, 2, 72, 100
6, 53112, Note_off_c, 2, 72, 64
6, 53112, Note_off_c, 2, 72, 64
6, 53136, Note_on_c, 2, 70, 100
6, 53136, Note_on_c, 2, 70, 100
6, 53160, Note_off_c, 2, 70, 64
6, 53160, Note_off_c, 2, 70, 64
6, 53181, Control_c, 2, 7, 90
6, 53184, Note_on_c, 2, 69, 100
6, 53208, Note_off_c, 2, 69, 64
6, 53232, Note_on_c, 2, 65, 100
6, 53232, Note_on_c, 2, 65, 100
6, 53256, Note_off_c, 2, 65, 64
6, 53256, Note_off_c, 2, 65, 64
6, 53280, Note_on_c, 2, 62, 100
6, 53304, Note_off_c, 2, 62, 64
6, 53309, Control_c, 2, 7, 90
6, 53328, Note_on_c, 2, 70, 100
6, 53352, Note_off_c, 2, 70, 64
6, 53424, Note_on_c, 2, 62, 100
6, 53435, Control_c, 2, 7, 90
6, 53448, Note_off_c, 2, 62, 64
6, 53472, Note_on_c, 2, 65, 100
6, 53496, Note_off_c, 2, 65, 64
6, 53520, Note_on_c, 2, 70, 100
6, 53544, Note_off_c, 2, 70, 64
6, 53562, Control_c, 2, 7, 90
6, 53616, Note_on_c, 2, 65, 100
6, 53640, Note_off_c, 2, 65, 64
6, 53664, Note_on_c, 2, 67, 100
6, 53688, Note_off_c, 2, 67, 64
6, 53689, Control_c, 2, 7, 90
6, 53712, Note_on_c, 2, 74, 100
6, 53736, Note_off_c, 2, 74, 64
6, 53794, Note_on_c, 2, 76, 100
6, 53808, Note_on_c, 2, 77, 100
6, 53810, Note_off_c, 2, 76, 64
6, 53816, Control_c, 2, 7, 90
6, 53832, Note_off_c, 2, 77, 64
6, 53856, Note_on_c, 2, 72, 100
6, 53880, Note_off_c, 2, 72, 64
6, 53904, Note_on_c, 2, 74, 100
6, 53928, Note_off_c, 2, 74, 64
6, 53942, Control_c, 2, 7, 90
6, 53952, Note_on_c, 2, 69, 100
6, 53976, Note_off_c, 2, 69, 64
6, 54000, Note_on_c, 2, 70, 100
6, 54024, Note_off_c, 2, 70, 64
6, 54048, Note_on_c, 2, 67, 100
6, 54070, Control_c, 2, 7, 90
6, 54072, Note_off_c, 2, 67, 64
6, 54096, Note_on_c, 2, 69, 100
6, 54120, Note_off_c, 2, 69, 64
6, 54192, Note_on_c, 2, 60, 100
6, 54196, Control_c, 2, 7, 90
6, 54216, Note_off_c, 2, 60, 64
6, 54240, Note_on_c, 2, 65, 100
6, 54264, Note_off_c, 2, 65, 64
6, 54288, Note_on_c, 2, 69, 100
6, 54312, Note_off_c, 2, 69, 64
6, 54324, Control_c, 2, 7, 90
6, 54384, Note_on_c, 2, 62, 100
6, 54408, Note_off_c, 2, 62, 64
6, 54432, Note_on_c, 2, 65, 100
6, 54450, Control_c, 2, 7, 90
6, 54456, Note_off_c, 2, 65, 64
6, 54480, Note_on_c, 2, 70, 100
6, 54504, Note_off_c, 2, 70, 64
6, 54564, Note_on_c, 2, 73, 100
6, 54576, Note_off_c, 2, 73, 64
6, 54576, Note_on_c, 2, 74, 100
6, 54577, Control_c, 2, 7, 90
6, 54600, Note_off_c, 2, 74, 64
6, 54624, Note_on_c, 2, 72, 100
6, 54624, Note_on_c, 2, 72, 100
6, 54648, Note_off_c, 2, 72, 64
6, 54648, Note_off_c, 2, 72, 64
6, 54672, Note_on_c, 2, 70, 100
6, 54672, Note_on_c, 2, 70, 100
6, 54696, Note_off_c, 2, 70, 64
6, 54696, Note_off_c, 2, 70, 64
6, 54704, Control_c, 2, 7, 90
6, 54720, Note_on_c, 2, 69, 100
6, 54744, Note_off_c, 2, 69, 64
6, 54768, Note_on_c, 2, 65, 100
6, 54768, Note_on_c, 2, 65, 100
6, 54792, Note_off_c, 2, 65, 64
6, 54792, Note_off_c, 2, 65, 64
6, 54816, Note_on_c, 2, 62, 100
6, 54831, Control_c, 2, 7, 90
6, 54840, Note_off_c, 2, 62, 64
6, 54864, Note_on_c, 2, 70, 100
6, 54888, Note_off_c, 2, 70, 64
6, 54958, Control_c, 2, 7, 90
6, 55085, Control_c, 2, 7, 90
6, 55211, Control_c, 2, 7, 90
6, 55339, Control_c, 2, 7, 90
6, 55465, Control_c, 2, 7, 90
6, 55592, Control_c, 2, 7, 90
6, 55719, Control_c, 2, 7, 90
6, 55846, Control_c, 2, 7, 90
6, 55973, Control_c, 2, 7, 90
6, 56100, Control_c, 2, 7, 90
6, 56226, Control_c, 2, 7, 90
6, 56354, Control_c, 2, 7, 90
6, 56480, Control_c, 2, 7, 90
6, 56607, Control_c, 2, 7, 90
6, 56734, Control_c, 2, 7, 90
6, 56861, Control_c, 2, 7, 90
6, 56988, Control_c, 2, 7, 90
6, 57115, Control_c, 2, 7, 90
6, 57241, Control_c, 2, 7, 90
6, 57369, Control_c, 2, 7, 90
6, 57495, Control_c, 2, 7, 90
6, 57623, Control_c, 2, 7, 90
6, 57749, Control_c, 2, 7, 90
6, 57876, Control_c, 2, 7, 90
6, 58003, Control_c, 2, 7, 90
6, 58130, Control_c, 2, 7, 90
6, 58256, Control_c, 2, 7, 90
6, 58384, Control_c, 2, 7, 90
6, 58510, Control_c, 2, 7, 90
6, 58638, Control_c, 2, 7, 90
6, 58764, Control_c, 2, 7, 90
6, 58891, Control_c, 2, 7, 90
6, 59018, Control_c, 2, 7, 90
6, 59145, Control_c, 2, 7, 90
6, 59272, Control_c, 2, 7, 90
6, 59399, Control_c, 2, 7, 90
6, 59525, Control_c, 2, 7, 90
6, 59653, Control_c, 2, 7, 90
6, 59779, Control_c, 2, 7, 90
6, 59906, Control_c, 2, 7, 90
6, 60033, Control_c, 2, 7, 90
6, 60160, Control_c, 2, 7, 90
6, 60287, Control_c, 2, 7, 90
6, 60414, Control_c, 2, 7, 90
6, 60540, Control_c, 2, 7, 90
6, 60668, Control_c, 2, 7, 90
6, 60794, Control_c, 2, 7, 90
6, 60922, Control_c, 2, 7, 90
6, 61048, Control_c, 2, 7, 90
6, 61175, Control_c, 2, 7, 90
6, 61302, Control_c, 2, 7, 90
6, 61429, Control_c, 2, 7, 90
6, 61555, Control_c, 2, 7, 90
6, 61683, Control_c, 2, 7, 90
6, 61809, Control_c, 2, 7, 90
6, 61937, Control_c, 2, 7, 90
6, 62063, Control_c, 2, 7, 90
6, 62190, Control_c, 2, 7, 90
6, 62317, Control_c, 2, 7, 90
6, 62444, Control_c, 2, 7, 90
6, 62571, Control_c, 2, 7, 90
6, 62698, Control_c, 2, 7, 90
6, 62824, Control_c, 2, 7, 90
6, 62952, Control_c, 2, 7, 90
6, 63078, Control_c, 2, 7, 90
6, 63205, Control_c, 2, 7, 90
6, 63332, Control_c, 2, 7, 90
6, 63396, Control_c, 2, 101, 0
6, 63396, Control_c, 2, 100, 0
6, 63396, Control_c, 2, 6, 12
6, 63396, Control_c, 2, 10, 64
6, 63396, Control_c, 2, 7, 90
6, 63396, Pitch_bend_c, 2, 8192
6, 63396, Program_c, 2, 83
6, 63396, Control_c, 2, 7, 90
6, 63396, Control_c, 2, 7, 38
6, 63397, Control_c, 2, 101, 0
6, 63397, Control_c, 2, 100, 0
6, 63397, Control_c, 2, 6, 12
6, 63397, Control_c, 2, 10, 64
6, 63397, Control_c, 2, 7, 90
6, 63397, Pitch_bend_c, 2, 8192
6, 63397, Program_c, 2, 83
6, 63397, End_track
7, 0, Start_track
7, 0, Title_t, "VOX"
7, 0, Control_c, 3, 10, 64
7, 0, Control_c, 3, 7, 127
7, 0, Pitch_bend_c, 3, 8192
7, 0, Control_c, 3, 101, 0
7, 0, Control_c, 3, 100, 0
7, 0, Control_c, 3, 6, 12
7, 0, Control_c, 3, 10, 64
7, 0, Control_c, 3, 7, 127
7, 0, Pitch_bend_c, 3, 8192
7, 0, Program_c, 3, 65
7, 0, Control_c, 3, 1, 26
7, 0, Pitch_bend_c, 3, 8192
7, 0, Control_c, 3, 101, 0
7, 0, Control_c, 3, 100, 0
7, 0, Control_c, 3, 6, 12
7, 0, Control_c, 3, 10, 64
7, 0, Control_c, 3, 7, 127
7, 0, Pitch_bend_c, 3, 8192
7, 0, Program_c, 3, 65
7, 0, Control_c, 3, 1, 26
7, 0, Control_c, 3, 101, 0
7, 0, Control_c, 3, 100, 0
7, 0, Control_c, 3, 6, 12
7, 0, Control_c, 3, 10, 64
7, 0, Control_c, 3, 7, 127
7, 0, Pitch_bend_c, 3, 8192
7, 0, Program_c, 3, 65
7, 0, Control_c, 3, 1, 26
7, 3072, Note_on_c, 3, 55, 127
7, 3072, Pitch_bend_c, 3, 8192
7, 3120, Note_off_c, 3, 55, 64
7, 3120, Note_on_c, 3, 55, 127
7, 3216, Note_off_c, 3, 55, 64
7, 3216, Note_on_c, 3, 55, 127
7, 3264, Note_off_c, 3, 55, 64
7, 3264, Note_on_c, 3, 57, 127
7, 3360, Note_off_c, 3, 57, 64
7, 3360, Note_on_c, 3, 57, 127
7, 3408, Note_off_c, 3, 57, 64
7, 3408, Note_on_c, 3, 58, 127
7, 3504, Note_off_c, 3, 58, 64
7, 3504, Note_on_c, 3, 58, 127
7, 3552, Note_off_c, 3, 58, 64
7, 3552, Note_on_c, 3, 58, 127
7, 3600, Note_off_c, 3, 58, 64
7, 3600, Note_on_c, 3, 58, 127
7, 3648, Note_off_c, 3, 58, 64
7, 3648, Note_on_c, 3, 58, 127
7, 3696, Note_off_c, 3, 58, 64
7, 3696, Note_on_c, 3, 58, 127
7, 3744, Note_off_c, 3, 58, 64
7, 3744, Note_on_c, 3, 58, 127
7, 3792, Note_off_c, 3, 58, 64
7, 3792, Note_on_c, 3, 60, 127
7, 3936, Note_off_c, 3, 60, 64
7, 3936, Note_on_c, 3, 62, 127
7, 4032, Note_off_c, 3, 62, 64
7, 4272, Note_on_c, 3, 58, 127
7, 4320, Note_off_c, 3, 58, 64
7, 4320, Note_on_c, 3, 58, 127
7, 4416, Note_off_c, 3, 58, 64
7, 4416, Note_on_c, 3, 60, 127
7, 4512, Note_off_c, 3, 60, 64
7, 4512, Note_on_c, 3, 58, 127
7, 4560, Note_off_c, 3, 58, 64
7, 4560, Note_on_c, 3, 70, 127
7, 5184, Pitch_bend_c, 3, 8192
7, 5280, Pitch_bend_c, 3, 8083
7, 5281, Pitch_bend_c, 3, 7988
7, 5282, Pitch_bend_c, 3, 7906
7, 5283, Pitch_bend_c, 3, 7844
7, 5284, Pitch_bend_c, 3, 7790
7, 5285, Pitch_bend_c, 3, 7742
7, 5286, Pitch_bend_c, 3, 7701
7, 5287, Pitch_bend_c, 3, 7674
7, 5288, Pitch_bend_c, 3, 7646
7, 5289, Pitch_bend_c, 3, 7619
7, 5290, Pitch_bend_c, 3, 7599
7, 5291, Pitch_bend_c, 3, 7585
7, 5292, Pitch_bend_c, 3, 7571
7, 5293, Pitch_bend_c, 3, 7564
7, 5294, Pitch_bend_c, 3, 7551
7, 5295, Pitch_bend_c, 3, 7544
7, 5296, Pitch_bend_c, 3, 7537
7, 5297, Pitch_bend_c, 3, 7530
7, 5298, Pitch_bend_c, 3, 7530
7, 5299, Pitch_bend_c, 3, 7523
7, 5300, Pitch_bend_c, 3, 7523
7, 5301, Pitch_bend_c, 3, 7517
7, 5302, Pitch_bend_c, 3, 7517
7, 5303, Pitch_bend_c, 3, 7517
7, 5304, Pitch_bend_c, 3, 7510
7, 5305, Pitch_bend_c, 3, 7510
7, 5306, Pitch_bend_c, 3, 7510
7, 5307, Pitch_bend_c, 3, 7510
7, 5309, Pitch_bend_c, 3, 7510
7, 5310, Pitch_bend_c, 3, 7510
7, 5313, Pitch_bend_c, 3, 7503
7, 5317, Pitch_bend_c, 3, 7503
7, 5328, Pitch_bend_c, 3, 7619
7, 5329, Pitch_bend_c, 3, 7715
7, 5330, Pitch_bend_c, 3, 7797
7, 5331, Pitch_bend_c, 3, 7865
7, 5332, Pitch_bend_c, 3, 7926
7, 5333, Pitch_bend_c, 3, 7981
7, 5334, Pitch_bend_c, 3, 8022
7, 5335, Pitch_bend_c, 3, 8063
7, 5336, Pitch_bend_c, 3, 8090
7, 5337, Pitch_bend_c, 3, 8117
7, 5338, Pitch_bend_c, 3, 8145
7, 5339, Pitch_bend_c, 3, 8165
7, 5340, Pitch_bend_c, 3, 8179
7, 5341, Pitch_bend_c, 3, 8192
7, 5342, Pitch_bend_c, 3, 8205
7, 5343, Pitch_bend_c, 3, 8219
7, 5344, Pitch_bend_c, 3, 8226
7, 5345, Pitch_bend_c, 3, 8232
7, 5346, Pitch_bend_c, 3, 8239
7, 5347, Pitch_bend_c, 3, 8246
7, 5348, Pitch_bend_c, 3, 8253
7, 5349, Pitch_bend_c, 3, 8253
7, 5350, Pitch_bend_c, 3, 8260
7, 5351, Pitch_bend_c, 3, 8260
7, 5352, Pitch_bend_c, 3, 8267
7, 5353, Pitch_bend_c, 3, 8267
7, 5354, Pitch_bend_c, 3, 8267
7, 5355, Pitch_bend_c, 3, 8273
7, 5356, Pitch_bend_c, 3, 8273
7, 5357, Pitch_bend_c, 3, 8273
7, 5358, Pitch_bend_c, 3, 8273
7, 5359, Pitch_bend_c, 3, 8273
7, 5361, Pitch_bend_c, 3, 8273
7, 5362, Pitch_bend_c, 3, 8280
7, 5365, Pitch_bend_c, 3, 8280
7, 5369, Pitch_bend_c, 3, 8280
7, 5376, Pitch_bend_c, 3, 8049
7, 5377, Pitch_bend_c, 3, 7858
7, 5378, Pitch_bend_c, 3, 7708
7, 5379, Pitch_bend_c, 3, 7578
7, 5380, Pitch_bend_c, 3, 7469
7, 5381, Pitch_bend_c, 3, 7387
7, 5382, Pitch_bend_c, 3, 7312
7, 5383, Pitch_bend_c, 3, 7257
7, 5384, Pitch_bend_c, 3, 7209
7, 5385, Pitch_bend_c, 3, 7168
7, 5386, Pitch_bend_c, 3, 7134
7, 5387, Pitch_bend_c, 3, 7114
7, 5388, Pitch_bend_c, 3, 7087
7, 5389, Pitch_bend_c, 3, 7073
7, 5390, Pitch_bend_c, 3, 7059
7, 5391, Pitch_bend_c, 3, 7046
7, 5392, Pitch_bend_c, 3, 7039
7, 5393, Pitch_bend_c, 3, 7025
7, 5394, Pitch_bend_c, 3, 7018
7, 5395, Pitch_bend_c, 3, 7011
7, 5396, Pitch_bend_c, 3, 7011
7, 5397, Pitch_bend_c, 3, 7005
7, 5398, Pitch_bend_c, 3, 7005
7, 5399, Pitch_bend_c, 3, 7005
7, 5400, Pitch_bend_c, 3, 7011
7, 5401, Pitch_bend_c, 3, 7018
7, 5402, Pitch_bend_c, 3, 7032
7, 5403, Pitch_bend_c, 3, 7046
7, 5404, Pitch_bend_c, 3, 7052
7, 5405, Pitch_bend_c, 3, 7066
7, 5406, Pitch_bend_c, 3, 7080
7, 5407, Pitch_bend_c, 3, 7093
7, 5408, Pitch_bend_c, 3, 7114
7, 5409, Pitch_bend_c, 3, 7128
7, 5410, Pitch_bend_c, 3, 7148
7, 5411, Pitch_bend_c, 3, 7168
7, 5412, Pitch_bend_c, 3, 7189
7, 5413, Pitch_bend_c, 3, 7209
7, 5414, Pitch_bend_c, 3, 7230
7, 5415, Pitch_bend_c, 3, 7257
7, 5416, Pitch_bend_c, 3, 7285
7, 5417, Pitch_bend_c, 3, 7312
7, 5418, Pitch_bend_c, 3, 7339
7, 5419, Pitch_bend_c, 3, 7373
7, 5420, Pitch_bend_c, 3, 7401
7, 5421, Pitch_bend_c, 3, 7442
7, 5422, Pitch_bend_c, 3, 7476
7, 5423, Pitch_bend_c, 3, 7517
7, 5424, Pitch_bend_c, 3, 7530
7, 5425, Pitch_bend_c, 3, 7530
7, 5427, Pitch_bend_c, 3, 7530
7, 5428, Pitch_bend_c, 3, 7537
7, 5431, Pitch_bend_c, 3, 7537
7, 5435, Pitch_bend_c, 3, 7537
7, 5460, Pitch_bend_c, 3, 7537
7, 5508, Pitch_bend_c, 3, 7537
7, 5512, Pitch_bend_c, 3, 7537
7, 5515, Pitch_bend_c, 3, 7537
7, 5517, Pitch_bend_c, 3, 7544
7, 5518, Pitch_bend_c, 3, 7544
7, 5519, Pitch_bend_c, 3, 7544
7, 5520, Pitch_bend_c, 3, 7455
7, 5521, Pitch_bend_c, 3, 7373
7, 5522, Pitch_bend_c, 3, 7298
7, 5523, Pitch_bend_c, 3, 7230
7, 5524, Pitch_bend_c, 3, 7168
7, 5525, Pitch_bend_c, 3, 7114
7, 5526, Pitch_bend_c, 3, 7066
7, 5527, Pitch_bend_c, 3, 7018
7, 5528, Pitch_bend_c, 3, 6977
7, 5529, Pitch_bend_c, 3, 6943
7, 5530, Pitch_bend_c, 3, 6909
7, 5531, Pitch_bend_c, 3, 6882
7, 5532, Pitch_bend_c, 3, 6854
7, 5533, Pitch_bend_c, 3, 6827
7, 5534, Pitch_bend_c, 3, 6807
7, 5535, Pitch_bend_c, 3, 6786
7, 5536, Pitch_bend_c, 3, 6766
7, 5537, Pitch_bend_c, 3, 6745
7, 5538, Pitch_bend_c, 3, 6732
7, 5539, Pitch_bend_c, 3, 6718
7, 5540, Pitch_bend_c, 3, 6704
7, 5541, Pitch_bend_c, 3, 6691
7, 5542, Pitch_bend_c, 3, 6684
7, 5543, Pitch_bend_c, 3, 6677
7, 5544, Pitch_bend_c, 3, 6663
7, 5545, Pitch_bend_c, 3, 6656
7, 5546, Pitch_bend_c, 3, 6643
7, 5547, Pitch_bend_c, 3, 6629
7, 5548, Pitch_bend_c, 3, 6616
7, 5549, Pitch_bend_c, 3, 6602
7, 5550, Pitch_bend_c, 3, 6581
7, 5551, Pitch_bend_c, 3, 6568
7, 5552, Pitch_bend_c, 3, 6547
7, 5553, Pitch_bend_c, 3, 6520
7, 5554, Pitch_bend_c, 3, 6499
7, 5555, Pitch_bend_c, 3, 6465
7, 5556, Pitch_bend_c, 3, 6438
7, 5557, Pitch_bend_c, 3, 6404
7, 5558, Pitch_bend_c, 3, 6370
7, 5559, Pitch_bend_c, 3, 6329
7, 5560, Pitch_bend_c, 3, 6281
7, 5561, Pitch_bend_c, 3, 6233
7, 5562, Pitch_bend_c, 3, 6179
7, 5563, Pitch_bend_c, 3, 6117
7, 5564, Pitch_bend_c, 3, 6049
7, 5565, Pitch_bend_c, 3, 5974
7, 5566, Pitch_bend_c, 3, 5892
7, 5567, Pitch_bend_c, 3, 5803
7, 5568, Pitch_bend_c, 3, 5701
7, 5569, Pitch_bend_c, 3, 5619
7, 5570, Pitch_bend_c, 3, 5551
7, 5571, Pitch_bend_c, 3, 5496
7, 5572, Pitch_bend_c, 3, 5448
7, 5573, Pitch_bend_c, 3, 5414
7, 5574, Pitch_bend_c, 3, 5380
7, 5575, Pitch_bend_c, 3, 5353
7, 5576, Pitch_bend_c, 3, 5332
7, 5577, Pitch_bend_c, 3, 5318
7, 5578, Pitch_bend_c, 3, 5305
7, 5579, Pitch_bend_c, 3, 5291
7, 5580, Pitch_bend_c, 3, 5278
7, 5581, Pitch_bend_c, 3, 5264
7, 5582, Pitch_bend_c, 3, 5250
7, 5583, Pitch_bend_c, 3, 5230
7, 5584, Pitch_bend_c, 3, 5202
7, 5585, Pitch_bend_c, 3, 5168
7, 5586, Pitch_bend_c, 3, 5134
7, 5587, Pitch_bend_c, 3, 5086
7, 5588, Pitch_bend_c, 3, 5032
7, 5589, Pitch_bend_c, 3, 4963
7, 5590, Pitch_bend_c, 3, 4882
7, 5591, Pitch_bend_c, 3, 4779
7, 5760, Note_off_c, 3, 70, 64
7, 6144, Note_on_c, 3, 53, 127
7, 6144, Pitch_bend_c, 3, 8192
7, 6192, Note_off_c, 3, 53, 64
7, 6192, Note_on_c, 3, 53, 127
7, 6240, Note_off_c, 3, 53, 64
7, 6240, Note_on_c, 3, 53, 127
7, 6336, Note_off_c, 3, 53, 64
7, 6336, Note_on_c, 3, 55, 127
7, 6432, Note_off_c, 3, 55, 64
7, 6432, Note_on_c, 3, 55, 127
7, 6480, Note_off_c, 3, 55, 64
7, 6480, Note_on_c, 3, 57, 127
7, 6624, Note_off_c, 3, 57, 64
7, 6624, Note_on_c, 3, 57, 127
7, 6672, Note_off_c, 3, 57, 64
7, 6672, Note_on_c, 3, 57, 127
7, 6720, Note_off_c, 3, 57, 64
7, 6720, Note_on_c, 3, 58, 127
7, 6816, Note_off_c, 3, 58, 64
7, 6816, Note_on_c, 3, 58, 127
7, 6864, Note_off_c, 3, 58, 64
7, 6864, Note_on_c, 3, 60, 127
7, 7008, Note_off_c, 3, 60, 64
7, 7008, Note_on_c, 3, 58, 127
7, 7104, Note_off_c, 3, 58, 64
7, 7344, Note_on_c, 3, 58, 127
7, 7392, Note_off_c, 3, 58, 64
7, 7392, Note_on_c, 3, 58, 127
7, 7488, Note_off_c, 3, 58, 64
7, 7488, Note_on_c, 3, 60, 127
7, 7584, Note_off_c, 3, 60, 64
7, 7584, Note_on_c, 3, 58, 127
7, 7632, Note_off_c, 3, 58, 64
7, 7632, Note_on_c, 3, 70, 127
7, 8256, Pitch_bend_c, 3, 8192
7, 8352, Pitch_bend_c, 3, 8083
7, 8353, Pitch_bend_c, 3, 7988
7, 8354, Pitch_bend_c, 3, 7906
7, 8355, Pitch_bend_c, 3, 7844
7, 8356, Pitch_bend_c, 3, 7790
7, 8357, Pitch_bend_c, 3, 7742
7, 8358, Pitch_bend_c, 3, 7701
7, 8359, Pitch_bend_c, 3, 7674
7, 8360, Pitch_bend_c, 3, 7646
7, 8361, Pitch_bend_c, 3, 7619
7, 8362, Pitch_bend_c, 3, 7599
7, 8363, Pitch_bend_c, 3, 7585
7, 8364, Pitch_bend_c, 3, 7571
7, 8365, Pitch_bend_c, 3, 7564
7, 8366, Pitch_bend_c, 3, 7551
7, 8367, Pitch_bend_c, 3, 7544
7, 8368, Pitch_bend_c, 3, 7537
7, 8369, Pitch_bend_c, 3, 7530
7, 8370, Pitch_bend_c, 3, 7530
7, 8371, Pitch_bend_c, 3, 7523
7, 8372, Pitch_bend_c, 3, 7523
7, 8373, Pitch_bend_c, 3, 7517
7, 8374, Pitch_bend_c, 3, 7517
7, 8375, Pitch_bend_c, 3, 7517
7, 8376, Pitch_bend_c, 3, 7510
7, 8377, Pitch_bend_c, 3, 7510
7, 8378, Pitch_bend_c, 3, 7510
7, 8379, Pitch_bend_c, 3, 7510
7, 8381, Pitch_bend_c, 3, 7510
7, 8382, Pitch_bend_c, 3, 7510
7, 8385, Pitch_bend_c, 3, 7503
7, 8389, Pitch_bend_c, 3, 7503
7, 8400, Pitch_bend_c, 3, 7619
7, 8401, Pitch_bend_c, 3, 7715
7, 8402, Pitch_bend_c, 3, 7797
7, 8403, Pitch_bend_c, 3, 7865
7, 8404, Pitch_bend_c, 3, 7926
7, 8405, Pitch_bend_c, 3, 7981
7, 8406, Pitch_bend_c, 3, 8022
7, 8407, Pitch_bend_c, 3, 8063
7, 8408, Pitch_bend_c, 3, 8090
7, 8409, Pitch_bend_c, 3, 8117
7, 8410, Pitch_bend_c, 3, 8145
7, 8411, Pitch_bend_c, 3, 8165
7, 8412, Pitch_bend_c, 3, 8179
7, 8413, Pitch_bend_c, 3, 8192
7, 8414, Pitch_bend_c, 3, 8205
7, 8415, Pitch_bend_c, 3, 8219
7, 8416, Pitch_bend_c, 3, 8226
7, 8417, Pitch_bend_c, 3, 8232
7, 8418, Pitch_bend_c, 3, 8239
7, 8419, Pitch_bend_c, 3, 8246
7, 8420, Pitch_bend_c, 3, 8253
7, 8421, Pitch_bend_c, 3, 8253
7, 8422, Pitch_bend_c, 3, 8260
7, 8423, Pitch_bend_c, 3, 8260
7, 8424, Pitch_bend_c, 3, 8267
7, 8425, Pitch_bend_c, 3, 8267
7, 8426, Pitch_bend_c, 3, 8267
7, 8427, Pitch_bend_c, 3, 8273
7, 8428, Pitch_bend_c, 3, 8273
7, 8429, Pitch_bend_c, 3, 8273
7, 8430, Pitch_bend_c, 3, 8273
7, 8431, Pitch_bend_c, 3, 8273
7, 8433, Pitch_bend_c, 3, 8273
7, 8434, Pitch_bend_c, 3, 8280
7, 8437, Pitch_bend_c, 3, 8280
7, 8441, Pitch_bend_c, 3, 8280
7, 8448, Pitch_bend_c, 3, 8049
7, 8449, Pitch_bend_c, 3, 7858
7, 8450, Pitch_bend_c, 3, 7708
7, 8451, Pitch_bend_c, 3, 7578
7, 8452, Pitch_bend_c, 3, 7469
7, 8453, Pitch_bend_c, 3, 7387
7, 8454, Pitch_bend_c, 3, 7312
7, 8455, Pitch_bend_c, 3, 7257
7, 8456, Pitch_bend_c, 3, 7209
7, 8457, Pitch_bend_c, 3, 7168
7, 8458, Pitch_bend_c, 3, 7134
7, 8459, Pitch_bend_c, 3, 7114
7, 8460, Pitch_bend_c, 3, 7087
7, 8461, Pitch_bend_c, 3, 7073
7, 8462, Pitch_bend_c, 3, 7059
7, 8463, Pitch_bend_c, 3, 7046
7, 8464, Pitch_bend_c, 3, 7039
7, 8465, Pitch_bend_c, 3, 7025
7, 8466, Pitch_bend_c, 3, 7018
7, 8467, Pitch_bend_c, 3, 7011
7, 8468, Pitch_bend_c, 3, 7011
7, 8469, Pitch_bend_c, 3, 7005
7, 8470, Pitch_bend_c, 3, 7005
7, 8471, Pitch_bend_c, 3, 7005
7, 8472, Pitch_bend_c, 3, 7011
7, 8473, Pitch_bend_c, 3, 7018
7, 8474, Pitch_bend_c, 3, 7032
7, 8475, Pitch_bend_c, 3, 7046
7, 8476, Pitch_bend_c, 3, 7052
7, 8477, Pitch_bend_c, 3, 7066
7, 8478, Pitch_bend_c, 3, 7080
7, 8479, Pitch_bend_c, 3, 7093
7, 8480, Pitch_bend_c, 3, 7114
7, 8481, Pitch_bend_c, 3, 7128
7, 8482, Pitch_bend_c, 3, 7148
7, 8483, Pitch_bend_c, 3, 7168
7, 8484, Pitch_bend_c, 3, 7189
7, 8485, Pitch_bend_c, 3, 7209
7, 8486, Pitch_bend_c, 3, 7230
7, 8487, Pitch_bend_c, 3, 7257
7, 8488, Pitch_bend_c, 3, 7285
7, 8489, Pitch_bend_c, 3, 7312
7, 8490, Pitch_bend_c, 3, 7339
7, 8491, Pitch_bend_c, 3, 7373
7, 8492, Pitch_bend_c, 3, 7401
7, 8493, Pitch_bend_c, 3, 7442
7, 8494, Pitch_bend_c, 3, 7476
7, 8495, Pitch_bend_c, 3, 7517
7, 8496, Pitch_bend_c, 3, 7530
7, 8497, Pitch_bend_c, 3, 7530
7, 8499, Pitch_bend_c, 3, 7530
7, 8500, Pitch_bend_c, 3, 7537
7, 8503, Pitch_bend_c, 3, 7537
7, 8507, Pitch_bend_c, 3, 7537
7, 8532, Pitch_bend_c, 3, 7537
7, 8580, Pitch_bend_c, 3, 7537
7, 8584, Pitch_bend_c, 3, 7537
7, 8587, Pitch_bend_c, 3, 7537
7, 8589, Pitch_bend_c, 3, 7544
7, 8590, Pitch_bend_c, 3, 7544
7, 8591, Pitch_bend_c, 3, 7544
7, 8592, Pitch_bend_c, 3, 7455
7, 8593, Pitch_bend_c, 3, 7373
7, 8594, Pitch_bend_c, 3, 7298
7, 8595, Pitch_bend_c, 3, 7230
7, 8596, Pitch_bend_c, 3, 7168
7, 8597, Pitch_bend_c, 3, 7114
7, 8598, Pitch_bend_c, 3, 7066
7, 8599, Pitch_bend_c, 3, 7018
7, 8600, Pitch_bend_c, 3, 6977
7, 8601, Pitch_bend_c, 3, 6943
7, 8602, Pitch_bend_c, 3, 6909
7, 8603, Pitch_bend_c, 3, 6882
7, 8604, Pitch_bend_c, 3, 6854
7, 8605, Pitch_bend_c, 3, 6827
7, 8606, Pitch_bend_c, 3, 6807
7, 8607, Pitch_bend_c, 3, 6786
7, 8608, Pitch_bend_c, 3, 6766
7, 8609, Pitch_bend_c, 3, 6745
7, 8610, Pitch_bend_c, 3, 6732
7, 8611, Pitch_bend_c, 3, 6718
7, 8612, Pitch_bend_c, 3, 6704
7, 8613, Pitch_bend_c, 3, 6691
7, 8614, Pitch_bend_c, 3, 6684
7, 8615, Pitch_bend_c, 3, 6677
7, 8616, Pitch_bend_c, 3, 6663
7, 8617, Pitch_bend_c, 3, 6656
7, 8618, Pitch_bend_c, 3, 6643
7, 8619, Pitch_bend_c, 3, 6629
7, 8620, Pitch_bend_c, 3, 6616
7, 8621, Pitch_bend_c, 3, 6602
7, 8622, Pitch_bend_c, 3, 6581
7, 8623, Pitch_bend_c, 3, 6568
7, 8624, Pitch_bend_c, 3, 6547
7, 8625, Pitch_bend_c, 3, 6520
7, 8626, Pitch_bend_c, 3, 6499
7, 8627, Pitch_bend_c, 3, 6465
7, 8628, Pitch_bend_c, 3, 6438
7, 8629, Pitch_bend_c, 3, 6404
7, 8630, Pitch_bend_c, 3, 6370
7, 8631, Pitch_bend_c, 3, 6329
7, 8632, Pitch_bend_c, 3, 6281
7, 8633, Pitch_bend_c, 3, 6233
7, 8634, Pitch_bend_c, 3, 6179
7, 8635, Pitch_bend_c, 3, 6117
7, 8636, Pitch_bend_c, 3, 6049
7, 8637, Pitch_bend_c, 3, 5974
7, 8638, Pitch_bend_c, 3, 5892
7, 8639, Pitch_bend_c, 3, 5803
7, 8640, Pitch_bend_c, 3, 5701
7, 8641, Pitch_bend_c, 3, 5619
7, 8642, Pitch_bend_c, 3, 5551
7, 8643, Pitch_bend_c, 3, 5496
7, 8644, Pitch_bend_c, 3, 5448
7, 8645, Pitch_bend_c, 3, 5414
7, 8646, Pitch_bend_c, 3, 5380
7, 8647, Pitch_bend_c, 3, 5353
7, 8648, Pitch_bend_c, 3, 5332
7, 8649, Pitch_bend_c, 3, 5318
7, 8650, Pitch_bend_c, 3, 5305
7, 8651, Pitch_bend_c, 3, 5291
7, 8652, Pitch_bend_c, 3, 5278
7, 8653, Pitch_bend_c, 3, 5264
7, 8654, Pitch_bend_c, 3, 5250
7, 8655, Pitch_bend_c, 3, 5230
7, 8656, Pitch_bend_c, 3, 5202
7, 8657, Pitch_bend_c, 3, 5168
7, 8658, Pitch_bend_c, 3, 5134
7, 8659, Pitch_bend_c, 3, 5086
7, 8660, Pitch_bend_c, 3, 5032
7, 8661, Pitch_bend_c, 3, 4963
7, 8662, Pitch_bend_c, 3, 4882
7, 8663, Pitch_bend_c, 3, 4779
7, 8832, Note_off_c, 3, 70, 64
7, 8880, Note_on_c, 3, 62, 127
7, 8880, Pitch_bend_c, 3, 8192
7, 8928, Note_off_c, 3, 62, 64
7, 8928, Note_on_c, 3, 62, 127
7, 9024, Note_off_c, 3, 62, 64
7, 9024, Note_on_c, 3, 62, 127
7, 9072, Note_off_c, 3, 62, 64
7, 9072, Note_on_c, 3, 60, 127
7, 9120, Note_off_c, 3, 60, 64
7, 9120, Note_on_c, 3, 58, 127
7, 9216, Note_off_c, 3, 58, 64
7, 9216, Note_on_c, 3, 58, 127
7, 9216, Pitch_bend_c, 3, 8192
7, 9312, Note_off_c, 3, 58, 64
7, 9312, Note_on_c, 3, 58, 127
7, 9360, Note_off_c, 3, 58, 64
7, 9360, Note_on_c, 3, 60, 127
7, 9504, Note_off_c, 3, 60, 64
7, 10416, Note_on_c, 3, 62, 127
7, 10464, Note_off_c, 3, 62, 64
7, 10464, Note_on_c, 3, 62, 127
7, 10560, Note_off_c, 3, 62, 64
7, 10560, Note_on_c, 3, 62, 127
7, 10608, Note_off_c, 3, 62, 64
7, 10608, Note_on_c, 3, 60, 127
7, 10656, Note_off_c, 3, 60, 64
7, 10656, Note_on_c, 3, 58, 127
7, 10752, Note_off_c, 3, 58, 64
7, 10752, Note_on_c, 3, 60, 127
7, 10896, Note_off_c, 3, 60, 64
7, 11904, Pitch_bend_c, 3, 8192
7, 11952, Note_on_c, 3, 62, 127
7, 12000, Note_off_c, 3, 62, 64
7, 12000, Note_on_c, 3, 62, 127
7, 12096, Note_off_c, 3, 62, 64
7, 12096, Note_on_c, 3, 62, 127
7, 12144, Note_off_c, 3, 62, 64
7, 12144, Note_on_c, 3, 60, 127
7, 12192, Note_off_c, 3, 60, 64
7, 12192, Note_on_c, 3, 58, 127
7, 12288, Note_off_c, 3, 58, 64
7, 12288, Note_on_c, 3, 58, 127
7, 12384, Note_off_c, 3, 58, 64
7, 12384, Note_on_c, 3, 58, 127
7, 12432, Note_off_c, 3, 58, 64
7, 12432, Note_on_c, 3, 60, 127
7, 12576, Note_off_c, 3, 60, 64
7, 13488, Note_on_c, 3, 62, 127
7, 13536, Note_off_c, 3, 62, 64
7, 13536, Note_on_c, 3, 62, 127
7, 13632, Note_off_c, 3, 62, 64
7, 13632, Note_on_c, 3, 62, 127
7, 13680, Note_off_c, 3, 62, 64
7, 13680, Note_on_c, 3, 60, 127
7, 13728, Note_off_c, 3, 60, 64
7, 13728, Note_on_c, 3, 65, 127
7, 13872, Note_off_c, 3, 65, 64
7, 13872, Note_on_c, 3, 60, 127
7, 14016, Note_off_c, 3, 60, 64
7, 14976, Pitch_bend_c, 3, 8192
7, 15168, Note_on_c, 3, 53, 127
7, 15168, Pitch_bend_c, 3, 8192
7, 15360, Note_off_c, 3, 53, 64
7, 15360, Note_on_c, 3, 65, 127
7, 16608, Note_off_c, 3, 65, 64
7, 16704, Note_on_c, 3, 53, 127
7, 16704, Pitch_bend_c, 3, 8192
7, 16896, Note_off_c, 3, 53, 64
7, 16896, Note_on_c, 3, 65, 127
7, 18144, Note_off_c, 3, 65, 64
7, 18432, Note_on_c, 3, 55, 127
7, 18432, Pitch_bend_c, 3, 8192
7, 18480, Note_off_c, 3, 55, 64
7, 18480, Note_on_c, 3, 55, 127
7, 18576, Note_off_c, 3, 55, 64
7, 18576, Note_on_c, 3, 55, 127
7, 18624, Note_off_c, 3, 55, 64
7, 18624, Note_on_c, 3, 57, 127
7, 18720, Note_off_c, 3, 57, 64
7, 18720, Note_on_c, 3, 57, 127
7, 18768, Note_off_c, 3, 57, 64
7, 18768, Note_on_c, 3, 58, 127
7, 18864, Note_off_c, 3, 58, 64
7, 18864, Note_on_c, 3, 58, 127
7, 18912, Note_off_c, 3, 58, 64
7, 18912, Note_on_c, 3, 58, 127
7, 18960, Note_off_c, 3, 58, 64
7, 18960, Note_on_c, 3, 58, 127
7, 19008, Note_off_c, 3, 58, 64
7, 19008, Note_on_c, 3, 58, 127
7, 19056, Note_off_c, 3, 58, 64
7, 19056, Note_on_c, 3, 58, 127
7, 19152, Note_off_c, 3, 58, 64
7, 19152, Note_on_c, 3, 60, 127
7, 19296, Note_off_c, 3, 60, 64
7, 19296, Note_on_c, 3, 62, 127
7, 19392, Note_off_c, 3, 62, 64
7, 19632, Note_on_c, 3, 58, 127
7, 19680, Note_off_c, 3, 58, 64
7, 19680, Note_on_c, 3, 58, 127
7, 19776, Note_off_c, 3, 58, 64
7, 19776, Note_on_c, 3, 60, 127
7, 19872, Note_off_c, 3, 60, 64
7, 19872, Note_on_c, 3, 58, 127
7, 19920, Note_off_c, 3, 58, 64
7, 19920, Note_on_c, 3, 70, 127
7, 20544, Pitch_bend_c, 3, 8192
7, 20640, Pitch_bend_c, 3, 8083
7, 20641, Pitch_bend_c, 3, 7988
7, 20642, Pitch_bend_c, 3, 7906
7, 20643, Pitch_bend_c, 3, 7844
7, 20644, Pitch_bend_c, 3, 7790
7, 20645, Pitch_bend_c, 3, 7742
7, 20646, Pitch_bend_c, 3, 7701
7, 20647, Pitch_bend_c, 3, 7674
7, 20648, Pitch_bend_c, 3, 7646
7, 20649, Pitch_bend_c, 3, 7619
7, 20650, Pitch_bend_c, 3, 7599
7, 20651, Pitch_bend_c, 3, 7585
7, 20652, Pitch_bend_c, 3, 7571
7, 20653, Pitch_bend_c, 3, 7564
7, 20654, Pitch_bend_c, 3, 7551
7, 20655, Pitch_bend_c, 3, 7544
7, 20656, Pitch_bend_c, 3, 7537
7, 20657, Pitch_bend_c, 3, 7530
7, 20658, Pitch_bend_c, 3, 7530
7, 20659, Pitch_bend_c, 3, 7523
7, 20660, Pitch_bend_c, 3, 7523
7, 20661, Pitch_bend_c, 3, 7517
7, 20662, Pitch_bend_c, 3, 7517
7, 20663, Pitch_bend_c, 3, 7517
7, 20664, Pitch_bend_c, 3, 7510
7, 20665, Pitch_bend_c, 3, 7510
7, 20666, Pitch_bend_c, 3, 7510
7, 20667, Pitch_bend_c, 3, 7510
7, 20669, Pitch_bend_c, 3, 7510
7, 20670, Pitch_bend_c, 3, 7510
7, 20673, Pitch_bend_c, 3, 7503
7, 20677, Pitch_bend_c, 3, 7503
7, 20688, Pitch_bend_c, 3, 7619
7, 20689, Pitch_bend_c, 3, 7715
7, 20690, Pitch_bend_c, 3, 7797
7, 20691, Pitch_bend_c, 3, 7865
7, 20692, Pitch_bend_c, 3, 7926
7, 20693, Pitch_bend_c, 3, 7981
7, 20694, Pitch_bend_c, 3, 8022
7, 20695, Pitch_bend_c, 3, 8063
7, 20696, Pitch_bend_c, 3, 8090
7, 20697, Pitch_bend_c, 3, 8117
7, 20698, Pitch_bend_c, 3, 8145
7, 20699, Pitch_bend_c, 3, 8165
7, 20700, Pitch_bend_c, 3, 8179
7, 20701, Pitch_bend_c, 3, 8192
7, 20702, Pitch_bend_c, 3, 8205
7, 20703, Pitch_bend_c, 3, 8219
7, 20704, Pitch_bend_c, 3, 8226
7, 20705, Pitch_bend_c, 3, 8232
7, 20706, Pitch_bend_c, 3, 8239
7, 20707, Pitch_bend_c, 3, 8246
7, 20708, Pitch_bend_c, 3, 8253
7, 20709, Pitch_bend_c, 3, 8253
7, 20710, Pitch_bend_c, 3, 8260
7, 20711, Pitch_bend_c, 3, 8260
7, 20712, Pitch_bend_c, 3, 8267
7, 20713, Pitch_bend_c, 3, 8267
7, 20714, Pitch_bend_c, 3, 8267
7, 20715, Pitch_bend_c, 3, 8273
7, 20716, Pitch_bend_c, 3, 8273
7, 20717, Pitch_bend_c, 3, 8273
7, 20718, Pitch_bend_c, 3, 8273
7, 20719, Pitch_bend_c, 3, 8273
7, 20721, Pitch_bend_c, 3, 8273
7, 20722, Pitch_bend_c, 3, 8280
7, 20725, Pitch_bend_c, 3, 8280
7, 20729, Pitch_bend_c, 3, 8280
7, 20736, Pitch_bend_c, 3, 8049
7, 20737, Pitch_bend_c, 3, 7858
7, 20738, Pitch_bend_c, 3, 7708
7, 20739, Pitch_bend_c, 3, 7578
7, 20740, Pitch_bend_c, 3, 7469
7, 20741, Pitch_bend_c, 3, 7387
7, 20742, Pitch_bend_c, 3, 7312
7, 20743, Pitch_bend_c, 3, 7257
7, 20744, Pitch_bend_c, 3, 7209
7, 20745, Pitch_bend_c, 3, 7168
7, 20746, Pitch_bend_c, 3, 7134
7, 20747, Pitch_bend_c, 3, 7114
7, 20748, Pitch_bend_c, 3, 7087
7, 20749, Pitch_bend_c, 3, 7073
7, 20750, Pitch_bend_c, 3, 7059
7, 20751, Pitch_bend_c, 3, 7046
7, 20752, Pitch_bend_c, 3, 7039
7, 20753, Pitch_bend_c, 3, 7025
7, 20754, Pitch_bend_c, 3, 7018
7, 20755, Pitch_bend_c, 3, 7011
7, 20756, Pitch_bend_c, 3, 7011
7, 20757, Pitch_bend_c, 3, 7005
7, 20758, Pitch_bend_c, 3, 7005
7, 20759, Pitch_bend_c, 3, 7005
7, 20760, Pitch_bend_c, 3, 7011
7, 20761, Pitch_bend_c, 3, 7018
7, 20762, Pitch_bend_c, 3, 7032
7, 20763, Pitch_bend_c, 3, 7046
7, 20764, Pitch_bend_c, 3, 7052
7, 20765, Pitch_bend_c, 3, 7066
7, 20766, Pitch_bend_c, 3, 7080
7, 20767, Pitch_bend_c, 3, 7093
7, 20768, Pitch_bend_c, 3, 7114
7, 20769, Pitch_bend_c, 3, 7128
7, 20770, Pitch_bend_c, 3, 7148
7, 20771, Pitch_bend_c, 3, 7168
7, 20772, Pitch_bend_c, 3, 7189
7, 20773, Pitch_bend_c, 3, 7209
7, 20774, Pitch_bend_c, 3, 7230
7, 20775, Pitch_bend_c, 3, 7257
7, 20776, Pitch_bend_c, 3, 7285
7, 20777, Pitch_bend_c, 3, 7312
7, 20778, Pitch_bend_c, 3, 7339
7, 20779, Pitch_bend_c, 3, 7373
7, 20780, Pitch_bend_c, 3, 7401
7, 20781, Pitch_bend_c, 3, 7442
7, 20782, Pitch_bend_c, 3, 7476
7, 20783, Pitch_bend_c, 3, 7517
7, 20784, Pitch_bend_c, 3, 7530
7, 20785, Pitch_bend_c, 3, 7530
7, 20787, Pitch_bend_c, 3, 7530
7, 20788, Pitch_bend_c, 3, 7537
7, 20791, Pitch_bend_c, 3, 7537
7, 20795, Pitch_bend_c, 3, 7537
7, 20820, Pitch_bend_c, 3, 7537
7, 20868, Pitch_bend_c, 3, 7537
7, 20872, Pitch_bend_c, 3, 7537
7, 20875, Pitch_bend_c, 3, 7537
7, 20877, Pitch_bend_c, 3, 7544
7, 20878, Pitch_bend_c, 3, 7544
7, 20879, Pitch_bend_c, 3, 7544
7, 20880, Pitch_bend_c, 3, 7455
7, 20881, Pitch_bend_c, 3, 7373
7, 20882, Pitch_bend_c, 3, 7298
7, 20883, Pitch_bend_c, 3, 7230
7, 20884, Pitch_bend_c, 3, 7168
7, 20885, Pitch_bend_c, 3, 7114
7, 20886, Pitch_bend_c, 3, 7066
7, 20887, Pitch_bend_c, 3, 7018
7, 20888, Pitch_bend_c, 3, 6977
7, 20889, Pitch_bend_c, 3, 6943
7, 20890, Pitch_bend_c, 3, 6909
7, 20891, Pitch_bend_c, 3, 6882
7, 20892, Pitch_bend_c, 3, 6854
7, 20893, Pitch_bend_c, 3, 6827
7, 20894, Pitch_bend_c, 3, 6807
7, 20895, Pitch_bend_c, 3, 6786
7, 20896, Pitch_bend_c, 3, 6766
7, 20897, Pitch_bend_c, 3, 6745
7, 20898, Pitch_bend_c, 3, 6732
7, 20899, Pitch_bend_c, 3, 6718
7, 20900, Pitch_bend_c, 3, 6704
7, 20901, Pitch_bend_c, 3, 6691
7, 20902, Pitch_bend_c, 3, 6684
7, 20903, Pitch_bend_c, 3, 6677
7, 20904, Pitch_bend_c, 3, 6663
7, 20905, Pitch_bend_c, 3, 6656
7, 20906, Pitch_bend_c, 3, 6643
7, 20907, Pitch_bend_c, 3, 6629
7, 20908, Pitch_bend_c, 3, 6616
7, 20909, Pitch_bend_c, 3, 6602
7, 20910, Pitch_bend_c, 3, 6581
7, 20911, Pitch_bend_c, 3, 6568
7, 20912, Pitch_bend_c, 3, 6547
7, 20913, Pitch_bend_c, 3, 6520
7, 20914, Pitch_bend_c, 3, 6499
7, 20915, Pitch_bend_c, 3, 6465
7, 20916, Pitch_bend_c, 3, 6438
7, 20917, Pitch_bend_c, 3, 6404
7, 20918, Pitch_bend_c, 3, 6370
7, 20919, Pitch_bend_c, 3, 6329
7, 20920, Pitch_bend_c, 3, 6281
7, 20921, Pitch_bend_c, 3, 6233
7, 20922, Pitch_bend_c, 3, 6179
7, 20923, Pitch_bend_c, 3, 6117
7, 20924, Pitch_bend_c, 3, 6049
7, 20925, Pitch_bend_c, 3, 5974
7, 20926, Pitch_bend_c, 3, 5892
7, 20927, Pitch_bend_c, 3, 5803
7, 20928, Pitch_bend_c, 3, 5701
7, 20929, Pitch_bend_c, 3, 5619
7, 20930, Pitch_bend_c, 3, 5551
7, 20931, Pitch_bend_c, 3, 5496
7, 20932, Pitch_bend_c, 3, 5448
7, 20933, Pitch_bend_c, 3, 5414
7, 20934, Pitch_bend_c, 3, 5380
7, 20935, Pitch_bend_c, 3, 5353
7, 20936, Pitch_bend_c, 3, 5332
7, 20937, Pitch_bend_c, 3, 5318
7, 20938, Pitch_bend_c, 3, 5305
7, 20939, Pitch_bend_c, 3, 5291
7, 20940, Pitch_bend_c, 3, 5278
7, 20941, Pitch_bend_c, 3, 5264
7, 20942, Pitch_bend_c, 3, 5250
7, 20943, Pitch_bend_c, 3, 5230
7, 20944, Pitch_bend_c, 3, 5202
7, 20945, Pitch_bend_c, 3, 5168
7, 20946, Pitch_bend_c, 3, 5134
7, 20947, Pitch_bend_c, 3, 5086
7, 20948, Pitch_bend_c, 3, 5032
7, 20949, Pitch_bend_c, 3, 4963
7, 20950, Pitch_bend_c, 3, 4882
7, 20951, Pitch_bend_c, 3, 4779
7, 21120, Note_off_c, 3, 70, 64
7, 21504, Note_on_c, 3, 55, 127
7, 21504, Pitch_bend_c, 3, 8192
7, 21552, Note_off_c, 3, 55, 64
7, 21552, Note_on_c, 3, 55, 127
7, 21600, Note_off_c, 3, 55, 64
7, 21600, Note_on_c, 3, 55, 127
7, 21648, Note_off_c, 3, 55, 64
7, 21648, Note_on_c, 3, 55, 127
7, 21696, Note_off_c, 3, 55, 64
7, 21696, Note_on_c, 3, 57, 127
7, 21792, Note_off_c, 3, 57, 64
7, 21792, Note_on_c, 3, 57, 127
7, 21840, Note_off_c, 3, 57, 64
7, 21840, Note_on_c, 3, 57, 127
7, 21888, Note_off_c, 3, 57, 64
7, 21888, Note_on_c, 3, 58, 127
7, 21984, Note_off_c, 3, 58, 64
7, 21984, Note_on_c, 3, 58, 127
7, 22032, Note_off_c, 3, 58, 64
7, 22032, Note_on_c, 3, 58, 127
7, 22080, Note_off_c, 3, 58, 64
7, 22080, Note_on_c, 3, 58, 127
7, 22176, Note_off_c, 3, 58, 64
7, 22176, Note_on_c, 3, 58, 127
7, 22224, Note_off_c, 3, 58, 64
7, 22224, Note_on_c, 3, 60, 127
7, 22368, Note_off_c, 3, 60, 64
7, 22368, Note_on_c, 3, 58, 127
7, 22464, Note_off_c, 3, 58, 64
7, 22608, Note_on_c, 3, 58, 127
7, 22656, Note_off_c, 3, 58, 64
7, 22656, Note_on_c, 3, 60, 127
7, 22704, Note_off_c, 3, 60, 64
7, 22704, Note_on_c, 3, 58, 127
7, 22752, Note_off_c, 3, 58, 64
7, 22752, Note_on_c, 3, 58, 127
7, 22800, Note_off_c, 3, 58, 64
7, 22800, Note_on_c, 3, 58, 127
7, 22848, Note_off_c, 3, 58, 64
7, 22848, Note_on_c, 3, 60, 127
7, 22944, Note_off_c, 3, 60, 64
7, 22944, Note_on_c, 3, 58, 127
7, 22992, Note_off_c, 3, 58, 64
7, 22992, Note_on_c, 3, 70, 127
7, 23616, Pitch_bend_c, 3, 8192
7, 23712, Pitch_bend_c, 3, 8083
7, 23713, Pitch_bend_c, 3, 7988
7, 23714, Pitch_bend_c, 3, 7906
7, 23715, Pitch_bend_c, 3, 7844
7, 23716, Pitch_bend_c, 3, 7790
7, 23717, Pitch_bend_c, 3, 7742
7, 23718, Pitch_bend_c, 3, 7701
7, 23719, Pitch_bend_c, 3, 7674
7, 23720, Pitch_bend_c, 3, 7646
7, 23721, Pitch_bend_c, 3, 7619
7, 23722, Pitch_bend_c, 3, 7599
7, 23723, Pitch_bend_c, 3, 7585
7, 23724, Pitch_bend_c, 3, 7571
7, 23725, Pitch_bend_c, 3, 7564
7, 23726, Pitch_bend_c, 3, 7551
7, 23727, Pitch_bend_c, 3, 7544
7, 23728, Pitch_bend_c, 3, 7537
7, 23729, Pitch_bend_c, 3, 7530
7, 23730, Pitch_bend_c, 3, 7530
7, 23731, Pitch_bend_c, 3, 7523
7, 23732, Pitch_bend_c, 3, 7523
7, 23733, Pitch_bend_c, 3, 7517
7, 23734, Pitch_bend_c, 3, 7517
7, 23735, Pitch_bend_c, 3, 7517
7, 23736, Pitch_bend_c, 3, 7510
7, 23737, Pitch_bend_c, 3, 7510
7, 23738, Pitch_bend_c, 3, 7510
7, 23739, Pitch_bend_c, 3, 7510
7, 23741, Pitch_bend_c, 3, 7510
7, 23742, Pitch_bend_c, 3, 7510
7, 23745, Pitch_bend_c, 3, 7503
7, 23749, Pitch_bend_c, 3, 7503
7, 23760, Pitch_bend_c, 3, 7619
7, 23761, Pitch_bend_c, 3, 7715
7, 23762, Pitch_bend_c, 3, 7797
7, 23763, Pitch_bend_c, 3, 7865
7, 23764, Pitch_bend_c, 3, 7926
7, 23765, Pitch_bend_c, 3, 7981
7, 23766, Pitch_bend_c, 3, 8022
7, 23767, Pitch_bend_c, 3, 8063
7, 23768, Pitch_bend_c, 3, 8090
7, 23769, Pitch_bend_c, 3, 8117
7, 23770, Pitch_bend_c, 3, 8145
7, 23771, Pitch_bend_c, 3, 8165
7, 23772, Pitch_bend_c, 3, 8179
7, 23773, Pitch_bend_c, 3, 8192
7, 23774, Pitch_bend_c, 3, 8205
7, 23775, Pitch_bend_c, 3, 8219
7, 23776, Pitch_bend_c, 3, 8226
7, 23777, Pitch_bend_c, 3, 8232
7, 23778, Pitch_bend_c, 3, 8239
7, 23779, Pitch_bend_c, 3, 8246
7, 23780, Pitch_bend_c, 3, 8253
7, 23781, Pitch_bend_c, 3, 8253
7, 23782, Pitch_bend_c, 3, 8260
7, 23783, Pitch_bend_c, 3, 8260
7, 23784, Pitch_bend_c, 3, 8267
7, 23785, Pitch_bend_c, 3, 8267
7, 23786, Pitch_bend_c, 3, 8267
7, 23787, Pitch_bend_c, 3, 8273
7, 23788, Pitch_bend_c, 3, 8273
7, 23789, Pitch_bend_c, 3, 8273
7, 23790, Pitch_bend_c, 3, 8273
7, 23791, Pitch_bend_c, 3, 8273
7, 23793, Pitch_bend_c, 3, 8273
7, 23794, Pitch_bend_c, 3, 8280
7, 23797, Pitch_bend_c, 3, 8280
7, 23801, Pitch_bend_c, 3, 8280
7, 23808, Pitch_bend_c, 3, 8049
7, 23809, Pitch_bend_c, 3, 7858
7, 23810, Pitch_bend_c, 3, 7708
7, 23811, Pitch_bend_c, 3, 7578
7, 23812, Pitch_bend_c, 3, 7469
7, 23813, Pitch_bend_c, 3, 7387
7, 23814, Pitch_bend_c, 3, 7312
7, 23815, Pitch_bend_c, 3, 7257
7, 23816, Pitch_bend_c, 3, 7209
7, 23817, Pitch_bend_c, 3, 7168
7, 23818, Pitch_bend_c, 3, 7134
7, 23819, Pitch_bend_c, 3, 7114
7, 23820, Pitch_bend_c, 3, 7087
7, 23821, Pitch_bend_c, 3, 7073
7, 23822, Pitch_bend_c, 3, 7059
7, 23823, Pitch_bend_c, 3, 7046
7, 23824, Pitch_bend_c, 3, 7039
7, 23825, Pitch_bend_c, 3, 7025
7, 23826, Pitch_bend_c, 3, 7018
7, 23827, Pitch_bend_c, 3, 7011
7, 23828, Pitch_bend_c, 3, 7011
7, 23829, Pitch_bend_c, 3, 7005
7, 23830, Pitch_bend_c, 3, 7005
7, 23831, Pitch_bend_c, 3, 7005
7, 23832, Pitch_bend_c, 3, 7011
7, 23833, Pitch_bend_c, 3, 7018
7, 23834, Pitch_bend_c, 3, 7032
7, 23835, Pitch_bend_c, 3, 7046
7, 23836, Pitch_bend_c, 3, 7052
7, 23837, Pitch_bend_c, 3, 7066
7, 23838, Pitch_bend_c, 3, 7080
7, 23839, Pitch_bend_c, 3, 7093
7, 23840, Pitch_bend_c, 3, 7114
7, 23841, Pitch_bend_c, 3, 7128
7, 23842, Pitch_bend_c, 3, 7148
7, 23843, Pitch_bend_c, 3, 7168
7, 23844, Pitch_bend_c, 3, 7189
7, 23845, Pitch_bend_c, 3, 7209
7, 23846, Pitch_bend_c, 3, 7230
7, 23847, Pitch_bend_c, 3, 7257
7, 23848, Pitch_bend_c, 3, 7285
7, 23849, Pitch_bend_c, 3, 7312
7, 23850, Pitch_bend_c, 3, 7339
7, 23851, Pitch_bend_c, 3, 7373
7, 23852, Pitch_bend_c, 3, 7401
7, 23853, Pitch_bend_c, 3, 7442
7, 23854, Pitch_bend_c, 3, 7476
7, 23855, Pitch_bend_c, 3, 7517
7, 23856, Pitch_bend_c, 3, 7530
7, 23857, Pitch_bend_c, 3, 7530
7, 23859, Pitch_bend_c, 3, 7530
7, 23860, Pitch_bend_c, 3, 7537
7, 23863, Pitch_bend_c, 3, 7537
7, 23867, Pitch_bend_c, 3, 7537
7, 23892, Pitch_bend_c, 3, 7537
7, 23940, Pitch_bend_c, 3, 7537
7, 23944, Pitch_bend_c, 3, 7537
7, 23947, Pitch_bend_c, 3, 7537
7, 23949, Pitch_bend_c, 3, 7544
7, 23950, Pitch_bend_c, 3, 7544
7, 23951, Pitch_bend_c, 3, 7544
7, 23952, Pitch_bend_c, 3, 7455
7, 23953, Pitch_bend_c, 3, 7373
7, 23954, Pitch_bend_c, 3, 7298
7, 23955, Pitch_bend_c, 3, 7230
7, 23956, Pitch_bend_c, 3, 7168
7, 23957, Pitch_bend_c, 3, 7114
7, 23958, Pitch_bend_c, 3, 7066
7, 23959, Pitch_bend_c, 3, 7018
7, 23960, Pitch_bend_c, 3, 6977
7, 23961, Pitch_bend_c, 3, 6943
7, 23962, Pitch_bend_c, 3, 6909
7, 23963, Pitch_bend_c, 3, 6882
7, 23964, Pitch_bend_c, 3, 6854
7, 23965, Pitch_bend_c, 3, 6827
7, 23966, Pitch_bend_c, 3, 6807
7, 23967, Pitch_bend_c, 3, 6786
7, 23968, Pitch_bend_c, 3, 6766
7, 23969, Pitch_bend_c, 3, 6745
7, 23970, Pitch_bend_c, 3, 6732
7, 23971, Pitch_bend_c, 3, 6718
7, 23972, Pitch_bend_c, 3, 6704
7, 23973, Pitch_bend_c, 3, 6691
7, 23974, Pitch_bend_c, 3, 6684
7, 23975, Pitch_bend_c, 3, 6677
7, 23976, Pitch_bend_c, 3, 6663
7, 23977, Pitch_bend_c, 3, 6656
7, 23978, Pitch_bend_c, 3, 6643
7, 23979, Pitch_bend_c, 3, 6629
7, 23980, Pitch_bend_c, 3, 6616
7, 23981, Pitch_bend_c, 3, 6602
7, 23982, Pitch_bend_c, 3, 6581
7, 23983, Pitch_bend_c, 3, 6568
7, 23984, Pitch_bend_c, 3, 6547
7, 23985, Pitch_bend_c, 3, 6520
7, 23986, Pitch_bend_c, 3, 6499
7, 23987, Pitch_bend_c, 3, 6465
7, 23988, Pitch_bend_c, 3, 6438
7, 23989, Pitch_bend_c, 3, 6404
7, 23990, Pitch_bend_c, 3, 6370
7, 23991, Pitch_bend_c, 3, 6329
7, 23992, Pitch_bend_c, 3, 6281
7, 23993, Pitch_bend_c, 3, 6233
7, 23994, Pitch_bend_c, 3, 6179
7, 23995, Pitch_bend_c, 3, 6117
7, 23996, Pitch_bend_c, 3, 6049
7, 23997, Pitch_bend_c, 3, 5974
7, 23998, Pitch_bend_c, 3, 5892
7, 23999, Pitch_bend_c, 3, 5803
7, 24000, Pitch_bend_c, 3, 5701
7, 24001, Pitch_bend_c, 3, 5619
7, 24002, Pitch_bend_c, 3, 5551
7, 24003, Pitch_bend_c, 3, 5496
7, 24004, Pitch_bend_c, 3, 5448
7, 24005, Pitch_bend_c, 3, 5414
7, 24006, Pitch_bend_c, 3, 5380
7, 24007, Pitch_bend_c, 3, 5353
7, 24008, Pitch_bend_c, 3, 5332
7, 24009, Pitch_bend_c, 3, 5318
7, 24010, Pitch_bend_c, 3, 5305
7, 24011, Pitch_bend_c, 3, 5291
7, 24012, Pitch_bend_c, 3, 5278
7, 24013, Pitch_bend_c, 3, 5264
7, 24014, Pitch_bend_c, 3, 5250
7, 24015, Pitch_bend_c, 3, 5230
7, 24016, Pitch_bend_c, 3, 5202
7, 24017, Pitch_bend_c, 3, 5168
7, 24018, Pitch_bend_c, 3, 5134
7, 24019, Pitch_bend_c, 3, 5086
7, 24020, Pitch_bend_c, 3, 5032
7, 24021, Pitch_bend_c, 3, 4963
7, 24022, Pitch_bend_c, 3, 4882
7, 24023, Pitch_bend_c, 3, 4779
7, 24026, Pitch_bend_c, 3, 4779
7, 24031, Pitch_bend_c, 3, 4779
7, 24036, Pitch_bend_c, 3, 4779
7, 24041, Pitch_bend_c, 3, 4779
7, 24045, Pitch_bend_c, 3, 4779
7, 24049, Pitch_bend_c, 3, 4786
7, 24053, Pitch_bend_c, 3, 4786
7, 24056, Pitch_bend_c, 3, 4786
7, 24060, Pitch_bend_c, 3, 4786
7, 24063, Pitch_bend_c, 3, 4786
7, 24066, Pitch_bend_c, 3, 4786
7, 24069, Pitch_bend_c, 3, 4793
7, 24072, Pitch_bend_c, 3, 4793
7, 24074, Pitch_bend_c, 3, 4793
7, 24077, Pitch_bend_c, 3, 4793
7, 24080, Pitch_bend_c, 3, 4793
7, 24082, Pitch_bend_c, 3, 4793
7, 24084, Pitch_bend_c, 3, 4793
7, 24086, Pitch_bend_c, 3, 4800
7, 24088, Pitch_bend_c, 3, 4800
7, 24091, Pitch_bend_c, 3, 4800
7, 24092, Pitch_bend_c, 3, 4800
7, 24094, Pitch_bend_c, 3, 4800
7, 24096, Pitch_bend_c, 3, 4800
7, 24098, Pitch_bend_c, 3, 4800
7, 24100, Pitch_bend_c, 3, 4806
7, 24101, Pitch_bend_c, 3, 4806
7, 24103, Pitch_bend_c, 3, 4806
7, 24104, Pitch_bend_c, 3, 4806
7, 24106, Pitch_bend_c, 3, 4806
7, 24107, Pitch_bend_c, 3, 4806
7, 24109, Pitch_bend_c, 3, 4806
7, 24110, Pitch_bend_c, 3, 4813
7, 24111, Pitch_bend_c, 3, 4813
7, 24113, Pitch_bend_c, 3, 4813
7, 24114, Pitch_bend_c, 3, 4813
7, 24115, Pitch_bend_c, 3, 4813
7, 24116, Pitch_bend_c, 3, 4813
7, 24117, Pitch_bend_c, 3, 4813
7, 24118, Pitch_bend_c, 3, 4820
7, 24119, Pitch_bend_c, 3, 4820
7, 24120, Pitch_bend_c, 3, 4820
7, 24121, Pitch_bend_c, 3, 4820
7, 24122, Pitch_bend_c, 3, 4820
7, 24123, Pitch_bend_c, 3, 4820
7, 24124, Pitch_bend_c, 3, 4820
7, 24125, Pitch_bend_c, 3, 4827
7, 24126, Pitch_bend_c, 3, 4827
7, 24127, Pitch_bend_c, 3, 4827
7, 24128, Pitch_bend_c, 3, 4827
7, 24129, Pitch_bend_c, 3, 4827
7, 24130, Pitch_bend_c, 3, 4834
7, 24131, Pitch_bend_c, 3, 4834
7, 24132, Pitch_bend_c, 3, 4834
7, 24133, Pitch_bend_c, 3, 4834
7, 24134, Pitch_bend_c, 3, 4834
7, 24135, Pitch_bend_c, 3, 4841
7, 24136, Pitch_bend_c, 3, 4841
7, 24137, Pitch_bend_c, 3, 4841
7, 24138, Pitch_bend_c, 3, 4841
7, 24139, Pitch_bend_c, 3, 4847
7, 24140, Pitch_bend_c, 3, 4847
7, 24141, Pitch_bend_c, 3, 4847
7, 24142, Pitch_bend_c, 3, 4847
7, 24143, Pitch_bend_c, 3, 4854
7, 24144, Pitch_bend_c, 3, 4854
7, 24145, Pitch_bend_c, 3, 4854
7, 24146, Pitch_bend_c, 3, 4861
7, 24147, Pitch_bend_c, 3, 4861
7, 24148, Pitch_bend_c, 3, 4861
7, 24149, Pitch_bend_c, 3, 4868
7, 24150, Pitch_bend_c, 3, 4868
7, 24151, Pitch_bend_c, 3, 4875
7, 24152, Pitch_bend_c, 3, 4875
7, 24153, Pitch_bend_c, 3, 4875
7, 24154, Pitch_bend_c, 3, 4882
7, 24155, Pitch_bend_c, 3, 4882
7, 24156, Pitch_bend_c, 3, 4888
7, 24157, Pitch_bend_c, 3, 4888
7, 24158, Pitch_bend_c, 3, 4895
7, 24159, Pitch_bend_c, 3, 4902
7, 24160, Pitch_bend_c, 3, 4902
7, 24161, Pitch_bend_c, 3, 4909
7, 24162, Pitch_bend_c, 3, 4916
7, 24163, Pitch_bend_c, 3, 4916
7, 24164, Pitch_bend_c, 3, 4923
7, 24165, Pitch_bend_c, 3, 4929
7, 24166, Pitch_bend_c, 3, 4936
7, 24167, Pitch_bend_c, 3, 4943
7, 24168, Pitch_bend_c, 3, 4950
7, 24169, Pitch_bend_c, 3, 4957
7, 24170, Pitch_bend_c, 3, 4970
7, 24171, Pitch_bend_c, 3, 4977
7, 24172, Pitch_bend_c, 3, 4984
7, 24173, Pitch_bend_c, 3, 4998
7, 24174, Pitch_bend_c, 3, 5011
7, 24175, Pitch_bend_c, 3, 5025
7, 24176, Pitch_bend_c, 3, 5039
7, 24177, Pitch_bend_c, 3, 5052
7, 24178, Pitch_bend_c, 3, 5073
7, 24179, Pitch_bend_c, 3, 5093
7, 24180, Pitch_bend_c, 3, 5114
7, 24181, Pitch_bend_c, 3, 5141
7, 24182, Pitch_bend_c, 3, 5175
7, 24183, Pitch_bend_c, 3, 5209
7, 24184, Pitch_bend_c, 3, 5250
7, 24185, Pitch_bend_c, 3, 5305
7, 24186, Pitch_bend_c, 3, 5366
7, 24187, Pitch_bend_c, 3, 5448
7, 24188, Pitch_bend_c, 3, 5551
7, 24189, Pitch_bend_c, 3, 5687
7, 24190, Pitch_bend_c, 3, 5878
7, 24191, Pitch_bend_c, 3, 6172
7, 24384, Note_off_c, 3, 70, 64
7, 25728, Pitch_bend_c, 3, 8192
7, 25776, Note_on_c, 3, 62, 127
7, 25824, Note_off_c, 3, 62, 64
7, 25824, Note_on_c, 3, 62, 127
7, 25920, Note_off_c, 3, 62, 64
7, 25920, Note_on_c, 3, 62, 127
7, 25968, Note_off_c, 3, 62, 64
7, 25968, Note_on_c, 3, 60, 127
7, 26016, Note_off_c, 3, 60, 64
7, 26016, Note_on_c, 3, 58, 127
7, 26112, Note_off_c, 3, 58, 64
7, 26112, Note_on_c, 3, 60, 127
7, 26256, Note_off_c, 3, 60, 64
7, 27312, Note_on_c, 3, 62, 127
7, 27360, Note_off_c, 3, 62, 64
7, 27360, Note_on_c, 3, 62, 127
7, 27456, Note_off_c, 3, 62, 64
7, 27456, Note_on_c, 3, 62, 127
7, 27504, Note_off_c, 3, 62, 64
7, 27504, Note_on_c, 3, 60, 127
7, 27552, Note_off_c, 3, 60, 64
7, 27552, Note_on_c, 3, 58, 127
7, 27648, Note_off_c, 3, 58, 64
7, 27648, Note_on_c, 3, 58, 127
7, 27744, Note_off_c, 3, 58, 64
7, 27744, Note_on_c, 3, 58, 127
7, 27792, Note_off_c, 3, 58, 64
7, 27792, Note_on_c, 3, 60, 127
7, 27936, Note_off_c, 3, 60, 64
7, 28848, Note_on_c, 3, 62, 127
7, 28896, Note_off_c, 3, 62, 64
7, 28896, Note_on_c, 3, 62, 127
7, 28992, Note_off_c, 3, 62, 64
7, 28992, Note_on_c, 3, 62, 127
7, 29040, Note_off_c, 3, 62, 64
7, 29040, Note_on_c, 3, 60, 127
7, 29088, Note_off_c, 3, 60, 64
7, 29088, Note_on_c, 3, 65, 127
7, 29232, Note_off_c, 3, 65, 64
7, 29232, Note_on_c, 3, 60, 127
7, 29376, Note_off_c, 3, 60, 64
7, 30336, Pitch_bend_c, 3, 8192
7, 30528, Note_on_c, 3, 53, 127
7, 30528, Pitch_bend_c, 3, 8192
7, 30720, Note_off_c, 3, 53, 64
7, 30720, Note_on_c, 3, 65, 127
7, 31968, Note_off_c, 3, 65, 64
7, 32064, Note_on_c, 3, 53, 127
7, 32064, Pitch_bend_c, 3, 8192
7, 32256, Note_off_c, 3, 53, 64
7, 32256, Note_on_c, 3, 65, 127
7, 33504, Note_off_c, 3, 65, 64
7, 33600, Note_on_c, 3, 53, 127
7, 33600, Pitch_bend_c, 3, 8192
7, 33792, Note_off_c, 3, 53, 64
7, 33792, Note_on_c, 3, 65, 127
7, 35040, Note_off_c, 3, 65, 64
7, 35136, Note_on_c, 3, 53, 127
7, 35136, Pitch_bend_c, 3, 8192
7, 35328, Note_off_c, 3, 53, 64
7, 35328, Note_on_c, 3, 65, 127
7, 36576, Note_off_c, 3, 65, 64
7, 43056, Note_on_c, 3, 62, 127
7, 43104, Note_off_c, 3, 62, 64
7, 43104, Note_on_c, 3, 62, 127
7, 43200, Note_off_c, 3, 62, 64
7, 43200, Note_on_c, 3, 62, 127
7, 43248, Note_off_c, 3, 62, 64
7, 43248, Note_on_c, 3, 60, 127
7, 43296, Note_off_c, 3, 60, 64
7, 43296, Note_on_c, 3, 58, 127
7, 43392, Note_off_c, 3, 58, 64
7, 43392, Note_on_c, 3, 58, 127
7, 43488, Note_off_c, 3, 58, 64
7, 43488, Note_on_c, 3, 58, 127
7, 43536, Note_off_c, 3, 58, 64
7, 43536, Note_on_c, 3, 60, 127
7, 43680, Note_off_c, 3, 60, 64
7, 44544, Pitch_bend_c, 3, 8192
7, 44592, Note_on_c, 3, 62, 127
7, 44640, Note_off_c, 3, 62, 64
7, 44640, Note_on_c, 3, 62, 127
7, 44736, Note_off_c, 3, 62, 64
7, 44736, Note_on_c, 3, 62, 127
7, 44784, Note_off_c, 3, 62, 64
7, 44784, Note_on_c, 3, 60, 127
7, 44832, Note_off_c, 3, 60, 64
7, 44832, Note_on_c, 3, 58, 127
7, 44928, Note_off_c, 3, 58, 64
7, 44928, Note_on_c, 3, 60, 127
7, 45072, Note_off_c, 3, 60, 64
7, 46128, Note_on_c, 3, 62, 127
7, 46176, Note_off_c, 3, 62, 64
7, 46176, Note_on_c, 3, 62, 127
7, 46272, Note_off_c, 3, 62, 64
7, 46272, Note_on_c, 3, 62, 127
7, 46320, Note_off_c, 3, 62, 64
7, 46320, Note_on_c, 3, 60, 127
7, 46368, Note_off_c, 3, 60, 64
7, 46368, Note_on_c, 3, 58, 127
7, 46464, Note_off_c, 3, 58, 64
7, 46464, Note_on_c, 3, 58, 127
7, 46560, Note_off_c, 3, 58, 64
7, 46560, Note_on_c, 3, 58, 127
7, 46608, Note_off_c, 3, 58, 64
7, 46608, Note_on_c, 3, 60, 127
7, 46752, Note_off_c, 3, 60, 64
7, 47664, Note_on_c, 3, 62, 127
7, 47712, Note_off_c, 3, 62, 64
7, 47712, Note_on_c, 3, 62, 127
7, 47808, Note_off_c, 3, 62, 64
7, 47808, Note_on_c, 3, 62, 127
7, 47856, Note_off_c, 3, 62, 64
7, 47856, Note_on_c, 3, 60, 127
7, 47904, Note_off_c, 3, 60, 64
7, 47904, Note_on_c, 3, 65, 127
7, 48048, Note_off_c, 3, 65, 64
7, 48048, Note_on_c, 3, 60, 127
7, 48192, Note_off_c, 3, 60, 64
7, 50688, Pitch_bend_c, 3, 8192
7, 50736, Note_on_c, 3, 62, 127
7, 50784, Note_off_c, 3, 62, 64
7, 50784, Note_on_c, 3, 62, 127
7, 50880, Note_off_c, 3, 62, 64
7, 50880, Note_on_c, 3, 62, 127
7, 50928, Note_off_c, 3, 62, 64
7, 50928, Note_on_c, 3, 60, 127
7, 50976, Note_off_c, 3, 60, 64
7, 50976, Note_on_c, 3, 58, 127
7, 51072, Note_off_c, 3, 58, 64
7, 51072, Note_on_c, 3, 60, 127
7, 51216, Note_off_c, 3, 60, 64
7, 52272, Note_on_c, 3, 62, 127
7, 52320, Note_off_c, 3, 62, 64
7, 52320, Note_on_c, 3, 62, 127
7, 52416, Note_off_c, 3, 62, 64
7, 52416, Note_on_c, 3, 62, 127
7, 52464, Note_off_c, 3, 62, 64
7, 52464, Note_on_c, 3, 60, 127
7, 52512, Note_off_c, 3, 60, 64
7, 52512, Note_on_c, 3, 58, 127
7, 52608, Note_off_c, 3, 58, 64
7, 52608, Note_on_c, 3, 58, 127
7, 52704, Note_off_c, 3, 58, 64
7, 52704, Note_on_c, 3, 58, 127
7, 52752, Note_off_c, 3, 58, 64
7, 52752, Note_on_c, 3, 60, 127
7, 52896, Note_off_c, 3, 60, 64
7, 53808, Note_on_c, 3, 62, 127
7, 53856, Note_off_c, 3, 62, 64
7, 53856, Note_on_c, 3, 62, 127
7, 53952, Note_off_c, 3, 62, 64
7, 53952, Note_on_c, 3, 62, 127
7, 54000, Note_off_c, 3, 62, 64
7, 54000, Note_on_c, 3, 60, 127
7, 54048, Note_off_c, 3, 60, 64
7, 54048, Note_on_c, 3, 65, 127
7, 54192, Note_off_c, 3, 65, 64
7, 54192, Note_on_c, 3, 60, 127
7, 54336, Note_off_c, 3, 60, 64
7, 55488, Note_on_c, 3, 53, 127
7, 55488, Pitch_bend_c, 3, 8192
7, 55680, Note_off_c, 3, 53, 64
7, 55680, Note_on_c, 3, 65, 127
7, 56928, Note_off_c, 3, 65, 64
7, 57024, Note_on_c, 3, 53, 127
7, 57024, Pitch_bend_c, 3, 8192
7, 57216, Note_off_c, 3, 53, 64
7, 57216, Note_on_c, 3, 65, 127
7, 58464, Note_off_c, 3, 65, 64
7, 58560, Note_on_c, 3, 53, 127
7, 58560, Pitch_bend_c, 3, 8192
7, 58752, Note_off_c, 3, 53, 64
7, 58752, Note_on_c, 3, 65, 127
7, 60000, Note_off_c, 3, 65, 64
7, 60096, Note_on_c, 3, 53, 127
7, 60096, Pitch_bend_c, 3, 8192
7, 60288, Note_off_c, 3, 53, 64
7, 60288, Note_on_c, 3, 65, 127
7, 61536, Note_off_c, 3, 65, 64
7, 63396, Control_c, 3, 101, 0
7, 63396, Control_c, 3, 100, 0
7, 63396, Control_c, 3, 6, 12
7, 63396, Control_c, 3, 10, 64
7, 63396, Control_c, 3, 7, 127
7, 63396, Pitch_bend_c, 3, 8192
7, 63396, Program_c, 3, 65
7, 63396, Control_c, 3, 1, 26
7, 63396, Pitch_bend_c, 3, 8192
7, 63397, Control_c, 3, 101, 0
7, 63397, Control_c, 3, 100, 0
7, 63397, Control_c, 3, 6, 12
7, 63397, Control_c, 3, 10, 64
7, 63397, Control_c, 3, 7, 127
7, 63397, Pitch_bend_c, 3, 8192
7, 63397, Program_c, 3, 65
7, 63397, Control_c, 3, 1, 26
7, 63397, End_track
8, 0, Start_track
8, 0, Title_t, "VOX #4"
8, 0, Control_c, 12, 10, 64
8, 0, Control_c, 12, 7, 127
8, 0, Pitch_bend_c, 12, 8192
8, 0, Control_c, 12, 101, 0
8, 0, Control_c, 12, 100, 0
8, 0, Control_c, 12, 6, 12
8, 0, Control_c, 12, 10, 64
8, 0, Control_c, 12, 7, 127
8, 0, Pitch_bend_c, 12, 8192
8, 0, Program_c, 12, 65
8, 0, Control_c, 12, 1, 26
8, 0, Control_c, 12, 101, 0
8, 0, Control_c, 12, 100, 0
8, 0, Control_c, 12, 6, 12
8, 0, Control_c, 12, 10, 64
8, 0, Control_c, 12, 7, 127
8, 0, Pitch_bend_c, 12, 8192
8, 0, Program_c, 12, 65
8, 0, Control_c, 12, 1, 26
8, 0, Control_c, 12, 101, 0
8, 0, Control_c, 12, 100, 0
8, 0, Control_c, 12, 6, 12
8, 0, Control_c, 12, 10, 64
8, 0, Control_c, 12, 7, 127
8, 0, Pitch_bend_c, 12, 8192
8, 0, Program_c, 12, 65
8, 0, Control_c, 12, 1, 26
8, 24240, Note_on_c, 12, 62, 127
8, 24288, Note_off_c, 12, 62, 64
8, 24288, Note_on_c, 12, 62, 127
8, 24384, Note_off_c, 12, 62, 64
8, 24384, Note_on_c, 12, 62, 127
8, 24432, Note_off_c, 12, 62, 64
8, 24432, Note_on_c, 12, 60, 127
8, 24480, Note_off_c, 12, 60, 64
8, 24480, Note_on_c, 12, 58, 127
8, 24576, Note_off_c, 12, 58, 64
8, 24576, Note_on_c, 12, 58, 127
8, 24672, Note_off_c, 12, 58, 64
8, 24672, Note_on_c, 12, 58, 127
8, 24720, Note_off_c, 12, 58, 64
8, 24720, Note_on_c, 12, 60, 127
8, 24864, Note_off_c, 12, 60, 64
8, 49200, Note_on_c, 12, 62, 127
8, 49248, Note_off_c, 12, 62, 64
8, 49248, Note_on_c, 12, 62, 127
8, 49344, Note_off_c, 12, 62, 64
8, 49344, Note_on_c, 12, 62, 127
8, 49392, Note_off_c, 12, 62, 64
8, 49392, Note_on_c, 12, 60, 127
8, 49440, Note_off_c, 12, 60, 64
8, 49440, Note_on_c, 12, 58, 127
8, 49536, Note_off_c, 12, 58, 64
8, 49536, Note_on_c, 12, 58, 127
8, 49632, Note_off_c, 12, 58, 64
8, 49632, Note_on_c, 12, 58, 127
8, 49680, Note_off_c, 12, 58, 64
8, 49680, Note_on_c, 12, 60, 127
8, 49824, Note_off_c, 12, 60, 64
8, 63396, Control_c, 12, 101, 0
8, 63396, Control_c, 12, 100, 0
8, 63396, Control_c, 12, 6, 12
8, 63396, Control_c, 12, 10, 64
8, 63396, Control_c, 12, 7, 127
8, 63396, Pitch_bend_c, 12, 8192
8, 63396, Program_c, 12, 65
8, 63396, Control_c, 12, 1, 26
8, 63397, Control_c, 12, 101, 0
8, 63397, Control_c, 12, 100, 0
8, 63397, Control_c, 12, 6, 12
8, 63397, Control_c, 12, 10, 64
8, 63397, Control_c, 12, 7, 127
8, 63397, Pitch_bend_c, 12, 8192
8, 63397, Program_c, 12, 65
8, 63397, Control_c, 12, 1, 26
8, 63397, End_track
9, 0, Start_track
9, 0, Title_t, "VOX #2"
9, 0, Control_c, 4, 10, 64
9, 0, Control_c, 4, 7, 116
9, 0, Pitch_bend_c, 4, 8192
9, 0, Control_c, 4, 101, 0
9, 0, Control_c, 4, 100, 0
9, 0, Control_c, 4, 6, 12
9, 0, Control_c, 4, 10, 64
9, 0, Control_c, 4, 7, 116
9, 0, Pitch_bend_c, 4, 8192
9, 0, Program_c, 4, 66
9, 0, Control_c, 4, 1, 26
9, 0, Control_c, 4, 101, 0
9, 0, Control_c, 4, 100, 0
9, 0, Control_c, 4, 6, 12
9, 0, Control_c, 4, 10, 64
9, 0, Control_c, 4, 7, 116
9, 0, Pitch_bend_c, 4, 8192
9, 0, Program_c, 4, 66
9, 0, Control_c, 4, 1, 26
9, 0, Control_c, 4, 101, 0
9, 0, Control_c, 4, 100, 0
9, 0, Control_c, 4, 6, 12
9, 0, Control_c, 4, 10, 64
9, 0, Control_c, 4, 7, 116
9, 0, Pitch_bend_c, 4, 8192
9, 0, Program_c, 4, 66
9, 0, Control_c, 4, 1, 26
9, 9264, Note_on_c, 4, 62, 92
9, 9264, Note_on_c, 4, 65, 92
9, 9312, Note_off_c, 4, 65, 64
9, 9312, Note_off_c, 4, 62, 64
9, 9312, Note_on_c, 4, 62, 92
9, 9312, Note_on_c, 4, 65, 92
9, 9408, Note_off_c, 4, 62, 64
9, 9408, Note_off_c, 4, 65, 64
9, 9408, Note_on_c, 4, 60, 92
9, 9408, Note_on_c, 4, 63, 92
9, 9456, Note_off_c, 4, 60, 64
9, 9456, Note_off_c, 4, 63, 64
9, 9456, Note_on_c, 4, 60, 92
9, 9456, Note_on_c, 4, 63, 92
9, 9504, Note_off_c, 4, 60, 64
9, 9504, Note_off_c, 4, 63, 64
9, 9504, Note_on_c, 4, 62, 92
9, 9504, Note_on_c, 4, 58, 92
9, 9600, Note_off_c, 4, 62, 64
9, 9600, Note_off_c, 4, 58, 64
9, 9600, Note_on_c, 4, 60, 92
9, 9600, Note_on_c, 4, 63, 92
9, 9696, Note_off_c, 4, 60, 64
9, 9696, Note_off_c, 4, 63, 64
9, 9696, Note_on_c, 4, 60, 92
9, 9696, Note_on_c, 4, 63, 92
9, 9744, Note_off_c, 4, 63, 64
9, 9744, Note_off_c, 4, 60, 64
9, 9744, Note_on_c, 4, 60, 92
9, 9744, Note_on_c, 4, 63, 92
9, 9840, Note_off_c, 4, 63, 64
9, 9840, Note_off_c, 4, 60, 64
9, 9840, Note_on_c, 4, 58, 92
9, 9840, Note_on_c, 4, 62, 92
9, 9888, Note_off_c, 4, 62, 64
9, 9888, Note_off_c, 4, 58, 64
9, 9888, Note_on_c, 4, 58, 92
9, 9888, Note_on_c, 4, 62, 92
9, 9984, Note_off_c, 4, 62, 64
9, 9984, Note_off_c, 4, 58, 64
9, 9984, Note_on_c, 4, 60, 92
9, 9984, Note_on_c, 4, 63, 92
9, 10080, Note_off_c, 4, 63, 64
9, 10080, Note_off_c, 4, 60, 64
9, 10080, Note_on_c, 4, 60, 92
9, 10080, Note_on_c, 4, 63, 92
9, 10128, Note_off_c, 4, 63, 64
9, 10128, Note_off_c, 4, 60, 64
9, 10128, Note_on_c, 4, 60, 92
9, 10128, Note_on_c, 4, 63, 92
9, 10224, Note_off_c, 4, 63, 64
9, 10224, Note_off_c, 4, 60, 64
9, 10224, Note_on_c, 4, 58, 92
9, 10224, Note_on_c, 4, 62, 92
9, 10272, Note_off_c, 4, 58, 64
9, 10272, Note_off_c, 4, 62, 64
9, 10272, Note_on_c, 4, 58, 92
9, 10272, Note_on_c, 4, 62, 92
9, 10416, Note_off_c, 4, 62, 64
9, 10416, Note_off_c, 4, 58, 64
9, 10800, Note_on_c, 4, 62, 92
9, 10800, Note_on_c, 4, 65, 92
9, 10848, Note_off_c, 4, 65, 64
9, 10848, Note_off_c, 4, 62, 64
9, 10848, Note_on_c, 4, 62, 92
9, 10848, Note_on_c, 4, 65, 92
9, 10944, Note_off_c, 4, 65, 64
9, 10944, Note_off_c, 4, 62, 64
9, 10944, Note_on_c, 4, 60, 92
9, 10944, Note_on_c, 4, 63, 92
9, 10992, Note_off_c, 4, 60, 64
9, 10992, Note_off_c, 4, 63, 64
9, 10992, Note_on_c, 4, 60, 92
9, 10992, Note_on_c, 4, 63, 92
9, 11040, Note_off_c, 4, 60, 64
9, 11040, Note_off_c, 4, 63, 64
9, 11040, Note_on_c, 4, 62, 92
9, 11040, Note_on_c, 4, 58, 92
9, 11136, Note_off_c, 4, 58, 64
9, 11136, Note_off_c, 4, 62, 64
9, 11136, Note_on_c, 4, 60, 92
9, 11136, Note_on_c, 4, 63, 92
9, 11232, Note_off_c, 4, 60, 64
9, 11232, Note_off_c, 4, 63, 64
9, 11232, Note_on_c, 4, 60, 92
9, 11232, Note_on_c, 4, 63, 92
9, 11280, Note_off_c, 4, 63, 64
9, 11280, Note_off_c, 4, 60, 64
9, 11280, Note_on_c, 4, 60, 92
9, 11280, Note_on_c, 4, 63, 92
9, 11376, Note_off_c, 4, 63, 64
9, 11376, Note_off_c, 4, 60, 64
9, 11376, Note_on_c, 4, 58, 92
9, 11376, Note_on_c, 4, 62, 92
9, 11424, Note_off_c, 4, 62, 64
9, 11424, Note_off_c, 4, 58, 64
9, 11424, Note_on_c, 4, 58, 92
9, 11424, Note_on_c, 4, 62, 92
9, 11520, Note_off_c, 4, 62, 64
9, 11520, Note_off_c, 4, 58, 64
9, 11520, Note_on_c, 4, 60, 92
9, 11520, Note_on_c, 4, 63, 92
9, 11616, Note_off_c, 4, 63, 64
9, 11616, Note_off_c, 4, 60, 64
9, 11616, Note_on_c, 4, 60, 92
9, 11616, Note_on_c, 4, 63, 92
9, 11664, Note_off_c, 4, 63, 64
9, 11664, Note_off_c, 4, 60, 64
9, 11664, Note_on_c, 4, 60, 92
9, 11664, Note_on_c, 4, 63, 92
9, 11760, Note_off_c, 4, 63, 64
9, 11760, Note_off_c, 4, 60, 64
9, 11760, Note_on_c, 4, 58, 92
9, 11760, Note_on_c, 4, 62, 92
9, 11808, Note_off_c, 4, 58, 64
9, 11808, Note_off_c, 4, 62, 64
9, 11808, Note_on_c, 4, 58, 92
9, 11808, Note_on_c, 4, 62, 92
9, 11952, Note_off_c, 4, 62, 64
9, 11952, Note_off_c, 4, 58, 64
9, 12336, Note_on_c, 4, 62, 92
9, 12336, Note_on_c, 4, 65, 92
9, 12384, Note_off_c, 4, 65, 64
9, 12384, Note_off_c, 4, 62, 64
9, 12384, Note_on_c, 4, 62, 92
9, 12384, Note_on_c, 4, 65, 92
9, 12480, Note_off_c, 4, 65, 64
9, 12480, Note_off_c, 4, 62, 64
9, 12480, Note_on_c, 4, 60, 92
9, 12480, Note_on_c, 4, 63, 92
9, 12528, Note_off_c, 4, 60, 64
9, 12528, Note_off_c, 4, 63, 64
9, 12528, Note_on_c, 4, 60, 92
9, 12528, Note_on_c, 4, 63, 92
9, 12576, Note_off_c, 4, 60, 64
9, 12576, Note_off_c, 4, 63, 64
9, 12576, Note_on_c, 4, 62, 92
9, 12576, Note_on_c, 4, 58, 92
9, 12672, Note_off_c, 4, 58, 64
9, 12672, Note_off_c, 4, 62, 64
9, 12672, Note_on_c, 4, 60, 92
9, 12672, Note_on_c, 4, 63, 92
9, 12768, Note_off_c, 4, 60, 64
9, 12768, Note_off_c, 4, 63, 64
9, 12768, Note_on_c, 4, 60, 92
9, 12768, Note_on_c, 4, 63, 92
9, 12816, Note_off_c, 4, 63, 64
9, 12816, Note_off_c, 4, 60, 64
9, 12816, Note_on_c, 4, 60, 92
9, 12816, Note_on_c, 4, 63, 92
9, 12912, Note_off_c, 4, 63, 64
9, 12912, Note_off_c, 4, 60, 64
9, 12912, Note_on_c, 4, 58, 92
9, 12912, Note_on_c, 4, 62, 92
9, 12960, Note_off_c, 4, 62, 64
9, 12960, Note_off_c, 4, 58, 64
9, 12960, Note_on_c, 4, 58, 92
9, 12960, Note_on_c, 4, 62, 92
9, 13056, Note_off_c, 4, 62, 64
9, 13056, Note_off_c, 4, 58, 64
9, 13056, Note_on_c, 4, 60, 92
9, 13056, Note_on_c, 4, 63, 92
9, 13152, Note_off_c, 4, 63, 64
9, 13152, Note_off_c, 4, 60, 64
9, 13152, Note_on_c, 4, 60, 92
9, 13152, Note_on_c, 4, 63, 92
9, 13200, Note_off_c, 4, 63, 64
9, 13200, Note_off_c, 4, 60, 64
9, 13200, Note_on_c, 4, 60, 92
9, 13200, Note_on_c, 4, 63, 92
9, 13296, Note_off_c, 4, 63, 64
9, 13296, Note_off_c, 4, 60, 64
9, 13296, Note_on_c, 4, 58, 92
9, 13296, Note_on_c, 4, 62, 92
9, 13344, Note_off_c, 4, 58, 64
9, 13344, Note_off_c, 4, 62, 64
9, 13344, Note_on_c, 4, 58, 92
9, 13344, Note_on_c, 4, 62, 92
9, 13488, Note_off_c, 4, 62, 64
9, 13488, Note_off_c, 4, 58, 64
9, 13872, Note_on_c, 4, 62, 92
9, 13872, Note_on_c, 4, 65, 92
9, 13920, Note_off_c, 4, 65, 64
9, 13920, Note_off_c, 4, 62, 64
9, 13920, Note_on_c, 4, 62, 92
9, 13920, Note_on_c, 4, 65, 92
9, 14016, Note_off_c, 4, 65, 64
9, 14016, Note_off_c, 4, 62, 64
9, 14016, Note_on_c, 4, 60, 92
9, 14016, Note_on_c, 4, 63, 92
9, 14064, Note_off_c, 4, 63, 64
9, 14064, Note_off_c, 4, 60, 64
9, 14064, Note_on_c, 4, 60, 92
9, 14064, Note_on_c, 4, 63, 92
9, 14112, Note_off_c, 4, 60, 64
9, 14112, Note_off_c, 4, 63, 64
9, 14112, Note_on_c, 4, 62, 92
9, 14112, Note_on_c, 4, 58, 92
9, 14208, Note_off_c, 4, 58, 64
9, 14208, Note_off_c, 4, 62, 64
9, 14208, Note_on_c, 4, 60, 92
9, 14208, Note_on_c, 4, 63, 92
9, 14304, Note_off_c, 4, 60, 64
9, 14304, Note_off_c, 4, 63, 64
9, 14304, Note_on_c, 4, 60, 92
9, 14304, Note_on_c, 4, 63, 92
9, 14352, Note_off_c, 4, 63, 64
9, 14352, Note_off_c, 4, 60, 64
9, 14352, Note_on_c, 4, 60, 92
9, 14352, Note_on_c, 4, 63, 92
9, 14448, Note_off_c, 4, 63, 64
9, 14448, Note_off_c, 4, 60, 64
9, 14448, Note_on_c, 4, 58, 92
9, 14448, Note_on_c, 4, 62, 92
9, 14496, Note_off_c, 4, 62, 64
9, 14496, Note_off_c, 4, 58, 64
9, 14496, Note_on_c, 4, 58, 92
9, 14496, Note_on_c, 4, 62, 92
9, 14592, Note_off_c, 4, 62, 64
9, 14592, Note_off_c, 4, 58, 64
9, 24624, Note_on_c, 4, 62, 92
9, 24624, Note_on_c, 4, 65, 92
9, 24672, Note_off_c, 4, 65, 64
9, 24672, Note_off_c, 4, 62, 64
9, 24672, Note_on_c, 4, 62, 92
9, 24672, Note_on_c, 4, 65, 92
9, 24768, Note_off_c, 4, 65, 64
9, 24768, Note_off_c, 4, 62, 64
9, 24768, Note_on_c, 4, 60, 92
9, 24768, Note_on_c, 4, 63, 92
9, 24816, Note_off_c, 4, 63, 64
9, 24816, Note_off_c, 4, 60, 64
9, 24816, Note_on_c, 4, 60, 92
9, 24816, Note_on_c, 4, 63, 92
9, 24864, Note_off_c, 4, 63, 64
9, 24864, Note_off_c, 4, 60, 64
9, 24864, Note_on_c, 4, 62, 92
9, 24864, Note_on_c, 4, 58, 92
9, 24960, Note_off_c, 4, 58, 64
9, 24960, Note_off_c, 4, 62, 64
9, 24960, Note_on_c, 4, 60, 92
9, 24960, Note_on_c, 4, 63, 92
9, 25056, Note_off_c, 4, 63, 64
9, 25056, Note_off_c, 4, 60, 64
9, 25056, Note_on_c, 4, 60, 92
9, 25056, Note_on_c, 4, 63, 92
9, 25104, Note_off_c, 4, 63, 64
9, 25104, Note_off_c, 4, 60, 64
9, 25104, Note_on_c, 4, 60, 92
9, 25104, Note_on_c, 4, 63, 92
9, 25200, Note_off_c, 4, 63, 64
9, 25200, Note_off_c, 4, 60, 64
9, 25200, Note_on_c, 4, 58, 92
9, 25200, Note_on_c, 4, 62, 92
9, 25248, Note_off_c, 4, 62, 64
9, 25248, Note_off_c, 4, 58, 64
9, 25248, Note_on_c, 4, 58, 92
9, 25248, Note_on_c, 4, 62, 92
9, 25344, Note_off_c, 4, 62, 64
9, 25344, Note_off_c, 4, 58, 64
9, 25344, Note_on_c, 4, 60, 92
9, 25344, Note_on_c, 4, 63, 92
9, 25440, Note_off_c, 4, 63, 64
9, 25440, Note_off_c, 4, 60, 64
9, 25440, Note_on_c, 4, 60, 92
9, 25440, Note_on_c, 4, 63, 92
9, 25488, Note_off_c, 4, 63, 64
9, 25488, Note_off_c, 4, 60, 64
9, 25488, Note_on_c, 4, 60, 92
9, 25488, Note_on_c, 4, 63, 92
9, 25584, Note_off_c, 4, 63, 64
9, 25584, Note_off_c, 4, 60, 64
9, 25584, Note_on_c, 4, 58, 92
9, 25584, Note_on_c, 4, 62, 92
9, 25632, Note_off_c, 4, 62, 64
9, 25632, Note_off_c, 4, 58, 64
9, 25632, Note_on_c, 4, 58, 92
9, 25632, Note_on_c, 4, 62, 92
9, 25776, Note_off_c, 4, 62, 64
9, 25776, Note_off_c, 4, 58, 64
9, 26160, Note_on_c, 4, 62, 92
9, 26160, Note_on_c, 4, 65, 92
9, 26208, Note_off_c, 4, 65, 64
9, 26208, Note_off_c, 4, 62, 64
9, 26208, Note_on_c, 4, 62, 92
9, 26208, Note_on_c, 4, 65, 92
9, 26304, Note_off_c, 4, 65, 64
9, 26304, Note_off_c, 4, 62, 64
9, 26304, Note_on_c, 4, 60, 92
9, 26304, Note_on_c, 4, 63, 92
9, 26352, Note_off_c, 4, 63, 64
9, 26352, Note_off_c, 4, 60, 64
9, 26352, Note_on_c, 4, 60, 92
9, 26352, Note_on_c, 4, 63, 92
9, 26400, Note_off_c, 4, 63, 64
9, 26400, Note_off_c, 4, 60, 64
9, 26400, Note_on_c, 4, 62, 92
9, 26400, Note_on_c, 4, 58, 92
9, 26496, Note_off_c, 4, 58, 64
9, 26496, Note_off_c, 4, 62, 64
9, 26496, Note_on_c, 4, 60, 92
9, 26496, Note_on_c, 4, 63, 92
9, 26592, Note_off_c, 4, 63, 64
9, 26592, Note_off_c, 4, 60, 64
9, 26592, Note_on_c, 4, 60, 92
9, 26592, Note_on_c, 4, 63, 92
9, 26640, Note_off_c, 4, 63, 64
9, 26640, Note_off_c, 4, 60, 64
9, 26640, Note_on_c, 4, 60, 92
9, 26640, Note_on_c, 4, 63, 92
9, 26736, Note_off_c, 4, 63, 64
9, 26736, Note_off_c, 4, 60, 64
9, 26736, Note_on_c, 4, 58, 92
9, 26736, Note_on_c, 4, 62, 92
9, 26784, Note_off_c, 4, 62, 64
9, 26784, Note_off_c, 4, 58, 64
9, 26784, Note_on_c, 4, 58, 92
9, 26784, Note_on_c, 4, 62, 92
9, 26880, Note_off_c, 4, 62, 64
9, 26880, Note_off_c, 4, 58, 64
9, 26880, Note_on_c, 4, 60, 92
9, 26880, Note_on_c, 4, 63, 92
9, 26976, Note_off_c, 4, 63, 64
9, 26976, Note_off_c, 4, 60, 64
9, 26976, Note_on_c, 4, 60, 92
9, 26976, Note_on_c, 4, 63, 92
9, 27024, Note_off_c, 4, 63, 64
9, 27024, Note_off_c, 4, 60, 64
9, 27024, Note_on_c, 4, 60, 92
9, 27024, Note_on_c, 4, 63, 92
9, 27120, Note_off_c, 4, 63, 64
9, 27120, Note_off_c, 4, 60, 64
9, 27120, Note_on_c, 4, 58, 92
9, 27120, Note_on_c, 4, 62, 92
9, 27168, Note_off_c, 4, 62, 64
9, 27168, Note_off_c, 4, 58, 64
9, 27168, Note_on_c, 4, 58, 92
9, 27168, Note_on_c, 4, 62, 92
9, 27312, Note_off_c, 4, 62, 64
9, 27312, Note_off_c, 4, 58, 64
9, 27696, Note_on_c, 4, 62, 92
9, 27696, Note_on_c, 4, 65, 92
9, 27744, Note_off_c, 4, 65, 64
9, 27744, Note_off_c, 4, 62, 64
9, 27744, Note_on_c, 4, 62, 92
9, 27744, Note_on_c, 4, 65, 92
9, 27840, Note_off_c, 4, 65, 64
9, 27840, Note_off_c, 4, 62, 64
9, 27840, Note_on_c, 4, 60, 92
9, 27840, Note_on_c, 4, 63, 92
9, 27888, Note_off_c, 4, 63, 64
9, 27888, Note_off_c, 4, 60, 64
9, 27888, Note_on_c, 4, 60, 92
9, 27888, Note_on_c, 4, 63, 92
9, 27936, Note_off_c, 4, 63, 64
9, 27936, Note_off_c, 4, 60, 64
9, 27936, Note_on_c, 4, 62, 92
9, 27936, Note_on_c, 4, 58, 92
9, 28032, Note_off_c, 4, 58, 64
9, 28032, Note_off_c, 4, 62, 64
9, 28032, Note_on_c, 4, 60, 92
9, 28032, Note_on_c, 4, 63, 92
9, 28128, Note_off_c, 4, 63, 64
9, 28128, Note_off_c, 4, 60, 64
9, 28128, Note_on_c, 4, 60, 92
9, 28128, Note_on_c, 4, 63, 92
9, 28176, Note_off_c, 4, 63, 64
9, 28176, Note_off_c, 4, 60, 64
9, 28176, Note_on_c, 4, 60, 92
9, 28176, Note_on_c, 4, 63, 92
9, 28272, Note_off_c, 4, 63, 64
9, 28272, Note_off_c, 4, 60, 64
9, 28272, Note_on_c, 4, 58, 92
9, 28272, Note_on_c, 4, 62, 92
9, 28320, Note_off_c, 4, 62, 64
9, 28320, Note_off_c, 4, 58, 64
9, 28320, Note_on_c, 4, 58, 92
9, 28320, Note_on_c, 4, 62, 92
9, 28416, Note_off_c, 4, 62, 64
9, 28416, Note_off_c, 4, 58, 64
9, 28416, Note_on_c, 4, 60, 92
9, 28416, Note_on_c, 4, 63, 92
9, 28512, Note_off_c, 4, 63, 64
9, 28512, Note_off_c, 4, 60, 64
9, 28512, Note_on_c, 4, 60, 92
9, 28512, Note_on_c, 4, 63, 92
9, 28560, Note_off_c, 4, 63, 64
9, 28560, Note_off_c, 4, 60, 64
9, 28560, Note_on_c, 4, 60, 92
9, 28560, Note_on_c, 4, 63, 92
9, 28656, Note_off_c, 4, 63, 64
9, 28656, Note_off_c, 4, 60, 64
9, 28656, Note_on_c, 4, 58, 92
9, 28656, Note_on_c, 4, 62, 92
9, 28704, Note_off_c, 4, 62, 64
9, 28704, Note_off_c, 4, 58, 64
9, 28704, Note_on_c, 4, 58, 92
9, 28704, Note_on_c, 4, 62, 92
9, 28848, Note_off_c, 4, 62, 64
9, 28848, Note_off_c, 4, 58, 64
9, 29232, Note_on_c, 4, 62, 92
9, 29232, Note_on_c, 4, 65, 92
9, 29280, Note_off_c, 4, 65, 64
9, 29280, Note_off_c, 4, 62, 64
9, 29280, Note_on_c, 4, 62, 92
9, 29280, Note_on_c, 4, 65, 92
9, 29376, Note_off_c, 4, 65, 64
9, 29376, Note_off_c, 4, 62, 64
9, 29376, Note_on_c, 4, 60, 92
9, 29376, Note_on_c, 4, 63, 92
9, 29424, Note_off_c, 4, 63, 64
9, 29424, Note_off_c, 4, 60, 64
9, 29424, Note_on_c, 4, 60, 92
9, 29424, Note_on_c, 4, 63, 92
9, 29472, Note_off_c, 4, 63, 64
9, 29472, Note_off_c, 4, 60, 64
9, 29472, Note_on_c, 4, 62, 92
9, 29472, Note_on_c, 4, 58, 92
9, 29568, Note_off_c, 4, 58, 64
9, 29568, Note_off_c, 4, 62, 64
9, 29568, Note_on_c, 4, 60, 92
9, 29568, Note_on_c, 4, 63, 92
9, 29664, Note_off_c, 4, 63, 64
9, 29664, Note_off_c, 4, 60, 64
9, 29664, Note_on_c, 4, 60, 92
9, 29664, Note_on_c, 4, 63, 92
9, 29712, Note_off_c, 4, 63, 64
9, 29712, Note_off_c, 4, 60, 64
9, 29712, Note_on_c, 4, 60, 92
9, 29712, Note_on_c, 4, 63, 92
9, 29808, Note_off_c, 4, 63, 64
9, 29808, Note_off_c, 4, 60, 64
9, 29808, Note_on_c, 4, 58, 92
9, 29808, Note_on_c, 4, 62, 92
9, 29856, Note_off_c, 4, 62, 64
9, 29856, Note_off_c, 4, 58, 64
9, 29856, Note_on_c, 4, 58, 92
9, 29856, Note_on_c, 4, 62, 92
9, 29952, Note_off_c, 4, 62, 64
9, 29952, Note_off_c, 4, 58, 64
9, 43440, Note_on_c, 4, 62, 92
9, 43440, Note_on_c, 4, 65, 92
9, 43488, Note_off_c, 4, 65, 64
9, 43488, Note_off_c, 4, 62, 64
9, 43488, Note_on_c, 4, 62, 92
9, 43488, Note_on_c, 4, 65, 92
9, 43584, Note_off_c, 4, 65, 64
9, 43584, Note_off_c, 4, 62, 64
9, 43584, Note_on_c, 4, 60, 92
9, 43584, Note_on_c, 4, 63, 92
9, 43632, Note_off_c, 4, 63, 64
9, 43632, Note_off_c, 4, 60, 64
9, 43632, Note_on_c, 4, 60, 92
9, 43632, Note_on_c, 4, 63, 92
9, 43680, Note_off_c, 4, 63, 64
9, 43680, Note_off_c, 4, 60, 64
9, 43680, Note_on_c, 4, 62, 92
9, 43680, Note_on_c, 4, 58, 92
9, 43776, Note_off_c, 4, 58, 64
9, 43776, Note_off_c, 4, 62, 64
9, 43776, Note_on_c, 4, 60, 92
9, 43776, Note_on_c, 4, 63, 92
9, 43872, Note_off_c, 4, 63, 64
9, 43872, Note_off_c, 4, 60, 64
9, 43872, Note_on_c, 4, 60, 92
9, 43872, Note_on_c, 4, 63, 92
9, 43920, Note_off_c, 4, 63, 64
9, 43920, Note_off_c, 4, 60, 64
9, 43920, Note_on_c, 4, 60, 92
9, 43920, Note_on_c, 4, 63, 92
9, 44016, Note_off_c, 4, 60, 64
9, 44016, Note_off_c, 4, 63, 64
9, 44016, Note_on_c, 4, 58, 92
9, 44016, Note_on_c, 4, 62, 92
9, 44064, Note_off_c, 4, 62, 64
9, 44064, Note_off_c, 4, 58, 64
9, 44064, Note_on_c, 4, 58, 92
9, 44064, Note_on_c, 4, 62, 92
9, 44160, Note_off_c, 4, 58, 64
9, 44160, Note_off_c, 4, 62, 64
9, 44160, Note_on_c, 4, 60, 92
9, 44160, Note_on_c, 4, 63, 92
9, 44256, Note_off_c, 4, 63, 64
9, 44256, Note_off_c, 4, 60, 64
9, 44256, Note_on_c, 4, 60, 92
9, 44256, Note_on_c, 4, 63, 92
9, 44304, Note_off_c, 4, 63, 64
9, 44304, Note_off_c, 4, 60, 64
9, 44304, Note_on_c, 4, 60, 92
9, 44304, Note_on_c, 4, 63, 92
9, 44400, Note_off_c, 4, 63, 64
9, 44400, Note_off_c, 4, 60, 64
9, 44400, Note_on_c, 4, 58, 92
9, 44400, Note_on_c, 4, 62, 92
9, 44448, Note_off_c, 4, 58, 64
9, 44448, Note_off_c, 4, 62, 64
9, 44448, Note_on_c, 4, 58, 92
9, 44448, Note_on_c, 4, 62, 92
9, 44592, Note_off_c, 4, 62, 64
9, 44592, Note_off_c, 4, 58, 64
9, 44976, Note_on_c, 4, 62, 92
9, 44976, Note_on_c, 4, 65, 92
9, 45024, Note_off_c, 4, 65, 64
9, 45024, Note_off_c, 4, 62, 64
9, 45024, Note_on_c, 4, 62, 92
9, 45024, Note_on_c, 4, 65, 92
9, 45120, Note_off_c, 4, 65, 64
9, 45120, Note_off_c, 4, 62, 64
9, 45120, Note_on_c, 4, 60, 92
9, 45120, Note_on_c, 4, 63, 92
9, 45168, Note_off_c, 4, 60, 64
9, 45168, Note_off_c, 4, 63, 64
9, 45168, Note_on_c, 4, 60, 92
9, 45168, Note_on_c, 4, 63, 92
9, 45216, Note_off_c, 4, 60, 64
9, 45216, Note_off_c, 4, 63, 64
9, 45216, Note_on_c, 4, 62, 92
9, 45216, Note_on_c, 4, 58, 92
9, 45312, Note_off_c, 4, 58, 64
9, 45312, Note_off_c, 4, 62, 64
9, 45312, Note_on_c, 4, 60, 92
9, 45312, Note_on_c, 4, 63, 92
9, 45408, Note_off_c, 4, 60, 64
9, 45408, Note_off_c, 4, 63, 64
9, 45408, Note_on_c, 4, 60, 92
9, 45408, Note_on_c, 4, 63, 92
9, 45456, Note_off_c, 4, 63, 64
9, 45456, Note_off_c, 4, 60, 64
9, 45456, Note_on_c, 4, 60, 92
9, 45456, Note_on_c, 4, 63, 92
9, 45552, Note_off_c, 4, 60, 64
9, 45552, Note_off_c, 4, 63, 64
9, 45552, Note_on_c, 4, 58, 92
9, 45552, Note_on_c, 4, 62, 92
9, 45600, Note_off_c, 4, 62, 64
9, 45600, Note_off_c, 4, 58, 64
9, 45600, Note_on_c, 4, 58, 92
9, 45600, Note_on_c, 4, 62, 92
9, 45696, Note_off_c, 4, 58, 64
9, 45696, Note_off_c, 4, 62, 64
9, 45696, Note_on_c, 4, 60, 92
9, 45696, Note_on_c, 4, 63, 92
9, 45792, Note_off_c, 4, 63, 64
9, 45792, Note_off_c, 4, 60, 64
9, 45792, Note_on_c, 4, 60, 92
9, 45792, Note_on_c, 4, 63, 92
9, 45840, Note_off_c, 4, 63, 64
9, 45840, Note_off_c, 4, 60, 64
9, 45840, Note_on_c, 4, 60, 92
9, 45840, Note_on_c, 4, 63, 92
9, 45936, Note_off_c, 4, 63, 64
9, 45936, Note_off_c, 4, 60, 64
9, 45936, Note_on_c, 4, 58, 92
9, 45936, Note_on_c, 4, 62, 92
9, 45984, Note_off_c, 4, 58, 64
9, 45984, Note_off_c, 4, 62, 64
9, 45984, Note_on_c, 4, 58, 92
9, 45984, Note_on_c, 4, 62, 92
9, 46128, Note_off_c, 4, 62, 64
9, 46128, Note_off_c, 4, 58, 64
9, 46512, Note_on_c, 4, 62, 92
9, 46512, Note_on_c, 4, 65, 92
9, 46560, Note_off_c, 4, 65, 64
9, 46560, Note_off_c, 4, 62, 64
9, 46560, Note_on_c, 4, 62, 92
9, 46560, Note_on_c, 4, 65, 92
9, 46656, Note_off_c, 4, 65, 64
9, 46656, Note_off_c, 4, 62, 64
9, 46656, Note_on_c, 4, 60, 92
9, 46656, Note_on_c, 4, 63, 92
9, 46704, Note_off_c, 4, 60, 64
9, 46704, Note_off_c, 4, 63, 64
9, 46704, Note_on_c, 4, 60, 92
9, 46704, Note_on_c, 4, 63, 92
9, 46752, Note_off_c, 4, 60, 64
9, 46752, Note_off_c, 4, 63, 64
9, 46752, Note_on_c, 4, 62, 92
9, 46752, Note_on_c, 4, 58, 92
9, 46848, Note_off_c, 4, 58, 64
9, 46848, Note_off_c, 4, 62, 64
9, 46848, Note_on_c, 4, 60, 92
9, 46848, Note_on_c, 4, 63, 92
9, 46944, Note_off_c, 4, 60, 64
9, 46944, Note_off_c, 4, 63, 64
9, 46944, Note_on_c, 4, 60, 92
9, 46944, Note_on_c, 4, 63, 92
9, 46992, Note_off_c, 4, 63, 64
9, 46992, Note_off_c, 4, 60, 64
9, 46992, Note_on_c, 4, 60, 92
9, 46992, Note_on_c, 4, 63, 92
9, 47088, Note_off_c, 4, 60, 64
9, 47088, Note_off_c, 4, 63, 64
9, 47088, Note_on_c, 4, 58, 92
9, 47088, Note_on_c, 4, 62, 92
9, 47136, Note_off_c, 4, 62, 64
9, 47136, Note_off_c, 4, 58, 64
9, 47136, Note_on_c, 4, 58, 92
9, 47136, Note_on_c, 4, 62, 92
9, 47232, Note_off_c, 4, 58, 64
9, 47232, Note_off_c, 4, 62, 64
9, 47232, Note_on_c, 4, 60, 92
9, 47232, Note_on_c, 4, 63, 92
9, 47328, Note_off_c, 4, 63, 64
9, 47328, Note_off_c, 4, 60, 64
9, 47328, Note_on_c, 4, 60, 92
9, 47328, Note_on_c, 4, 63, 92
9, 47376, Note_off_c, 4, 63, 64
9, 47376, Note_off_c, 4, 60, 64
9, 47376, Note_on_c, 4, 60, 92
9, 47376, Note_on_c, 4, 63, 92
9, 47472, Note_off_c, 4, 63, 64
9, 47472, Note_off_c, 4, 60, 64
9, 47472, Note_on_c, 4, 58, 92
9, 47472, Note_on_c, 4, 62, 92
9, 47520, Note_off_c, 4, 58, 64
9, 47520, Note_off_c, 4, 62, 64
9, 47520, Note_on_c, 4, 58, 92
9, 47520, Note_on_c, 4, 62, 92
9, 47664, Note_off_c, 4, 62, 64
9, 47664, Note_off_c, 4, 58, 64
9, 48048, Note_on_c, 4, 62, 92
9, 48048, Note_on_c, 4, 65, 92
9, 48096, Note_off_c, 4, 65, 64
9, 48096, Note_off_c, 4, 62, 64
9, 48096, Note_on_c, 4, 62, 92
9, 48096, Note_on_c, 4, 65, 92
9, 48192, Note_off_c, 4, 65, 64
9, 48192, Note_off_c, 4, 62, 64
9, 48192, Note_on_c, 4, 60, 92
9, 48192, Note_on_c, 4, 63, 92
9, 48240, Note_off_c, 4, 60, 64
9, 48240, Note_off_c, 4, 63, 64
9, 48240, Note_on_c, 4, 60, 92
9, 48240, Note_on_c, 4, 63, 92
9, 48288, Note_off_c, 4, 60, 64
9, 48288, Note_off_c, 4, 63, 64
9, 48288, Note_on_c, 4, 62, 92
9, 48288, Note_on_c, 4, 58, 92
9, 48384, Note_off_c, 4, 58, 64
9, 48384, Note_off_c, 4, 62, 64
9, 48384, Note_on_c, 4, 60, 92
9, 48384, Note_on_c, 4, 63, 92
9, 48480, Note_off_c, 4, 60, 64
9, 48480, Note_off_c, 4, 63, 64
9, 48480, Note_on_c, 4, 60, 92
9, 48480, Note_on_c, 4, 63, 92
9, 48528, Note_off_c, 4, 63, 64
9, 48528, Note_off_c, 4, 60, 64
9, 48528, Note_on_c, 4, 60, 92
9, 48528, Note_on_c, 4, 63, 92
9, 48624, Note_off_c, 4, 60, 64
9, 48624, Note_off_c, 4, 63, 64
9, 48624, Note_on_c, 4, 58, 92
9, 48624, Note_on_c, 4, 62, 92
9, 48672, Note_off_c, 4, 62, 64
9, 48672, Note_off_c, 4, 58, 64
9, 48672, Note_on_c, 4, 58, 92
9, 48672, Note_on_c, 4, 62, 92
9, 48768, Note_off_c, 4, 58, 64
9, 48768, Note_off_c, 4, 62, 64
9, 49584, Note_on_c, 4, 62, 92
9, 49584, Note_on_c, 4, 65, 92
9, 49632, Note_off_c, 4, 65, 64
9, 49632, Note_off_c, 4, 62, 64
9, 49632, Note_on_c, 4, 62, 92
9, 49632, Note_on_c, 4, 65, 92
9, 49728, Note_off_c, 4, 65, 64
9, 49728, Note_off_c, 4, 62, 64
9, 49728, Note_on_c, 4, 60, 92
9, 49728, Note_on_c, 4, 63, 92
9, 49776, Note_off_c, 4, 63, 64
9, 49776, Note_off_c, 4, 60, 64
9, 49776, Note_on_c, 4, 60, 92
9, 49776, Note_on_c, 4, 63, 92
9, 49824, Note_off_c, 4, 63, 64
9, 49824, Note_off_c, 4, 60, 64
9, 49824, Note_on_c, 4, 62, 92
9, 49824, Note_on_c, 4, 58, 92
9, 49920, Note_off_c, 4, 62, 64
9, 49920, Note_off_c, 4, 58, 64
9, 49920, Note_on_c, 4, 60, 92
9, 49920, Note_on_c, 4, 63, 92
9, 50016, Note_off_c, 4, 63, 64
9, 50016, Note_off_c, 4, 60, 64
9, 50016, Note_on_c, 4, 60, 92
9, 50016, Note_on_c, 4, 63, 92
9, 50064, Note_off_c, 4, 63, 64
9, 50064, Note_off_c, 4, 60, 64
9, 50064, Note_on_c, 4, 60, 92
9, 50064, Note_on_c, 4, 63, 92
9, 50160, Note_off_c, 4, 63, 64
9, 50160, Note_off_c, 4, 60, 64
9, 50160, Note_on_c, 4, 58, 92
9, 50160, Note_on_c, 4, 62, 92
9, 50208, Note_off_c, 4, 62, 64
9, 50208, Note_off_c, 4, 58, 64
9, 50208, Note_on_c, 4, 58, 92
9, 50208, Note_on_c, 4, 62, 92
9, 50304, Note_off_c, 4, 62, 64
9, 50304, Note_off_c, 4, 58, 64
9, 50304, Note_on_c, 4, 60, 92
9, 50304, Note_on_c, 4, 63, 92
9, 50400, Note_off_c, 4, 60, 64
9, 50400, Note_off_c, 4, 63, 64
9, 50400, Note_on_c, 4, 60, 92
9, 50400, Note_on_c, 4, 63, 92
9, 50448, Note_off_c, 4, 63, 64
9, 50448, Note_off_c, 4, 60, 64
9, 50448, Note_on_c, 4, 60, 92
9, 50448, Note_on_c, 4, 63, 92
9, 50544, Note_off_c, 4, 60, 64
9, 50544, Note_off_c, 4, 63, 64
9, 50544, Note_on_c, 4, 58, 92
9, 50544, Note_on_c, 4, 62, 92
9, 50592, Note_off_c, 4, 62, 64
9, 50592, Note_off_c, 4, 58, 64
9, 50592, Note_on_c, 4, 58, 92
9, 50592, Note_on_c, 4, 62, 92
9, 50736, Note_off_c, 4, 58, 64
9, 50736, Note_off_c, 4, 62, 64
9, 51120, Note_on_c, 4, 62, 92
9, 51120, Note_on_c, 4, 65, 92
9, 51168, Note_off_c, 4, 65, 64
9, 51168, Note_off_c, 4, 62, 64
9, 51168, Note_on_c, 4, 62, 92
9, 51168, Note_on_c, 4, 65, 92
9, 51264, Note_off_c, 4, 65, 64
9, 51264, Note_off_c, 4, 62, 64
9, 51264, Note_on_c, 4, 60, 92
9, 51264, Note_on_c, 4, 63, 92
9, 51312, Note_off_c, 4, 60, 64
9, 51312, Note_off_c, 4, 63, 64
9, 51312, Note_on_c, 4, 60, 92
9, 51312, Note_on_c, 4, 63, 92
9, 51360, Note_off_c, 4, 63, 64
9, 51360, Note_off_c, 4, 60, 64
9, 51360, Note_on_c, 4, 62, 92
9, 51360, Note_on_c, 4, 58, 92
9, 51456, Note_off_c, 4, 58, 64
9, 51456, Note_off_c, 4, 62, 64
9, 51456, Note_on_c, 4, 60, 92
9, 51456, Note_on_c, 4, 63, 92
9, 51552, Note_off_c, 4, 63, 64
9, 51552, Note_off_c, 4, 60, 64
9, 51552, Note_on_c, 4, 60, 92
9, 51552, Note_on_c, 4, 63, 92
9, 51600, Note_off_c, 4, 63, 64
9, 51600, Note_off_c, 4, 60, 64
9, 51600, Note_on_c, 4, 60, 92
9, 51600, Note_on_c, 4, 63, 92
9, 51696, Note_off_c, 4, 63, 64
9, 51696, Note_off_c, 4, 60, 64
9, 51696, Note_on_c, 4, 58, 92
9, 51696, Note_on_c, 4, 62, 92
9, 51744, Note_off_c, 4, 62, 64
9, 51744, Note_off_c, 4, 58, 64
9, 51744, Note_on_c, 4, 58, 92
9, 51744, Note_on_c, 4, 62, 92
9, 51840, Note_off_c, 4, 58, 64
9, 51840, Note_off_c, 4, 62, 64
9, 51840, Note_on_c, 4, 60, 92
9, 51840, Note_on_c, 4, 63, 92
9, 51936, Note_off_c, 4, 63, 64
9, 51936, Note_off_c, 4, 60, 64
9, 51936, Note_on_c, 4, 60, 92
9, 51936, Note_on_c, 4, 63, 92
9, 51984, Note_off_c, 4, 63, 64
9, 51984, Note_off_c, 4, 60, 64
9, 51984, Note_on_c, 4, 60, 92
9, 51984, Note_on_c, 4, 63, 92
9, 52080, Note_off_c, 4, 60, 64
9, 52080, Note_off_c, 4, 63, 64
9, 52080, Note_on_c, 4, 58, 92
9, 52080, Note_on_c, 4, 62, 92
9, 52128, Note_off_c, 4, 62, 64
9, 52128, Note_off_c, 4, 58, 64
9, 52128, Note_on_c, 4, 58, 92
9, 52128, Note_on_c, 4, 62, 92
9, 52272, Note_off_c, 4, 58, 64
9, 52272, Note_off_c, 4, 62, 64
9, 52656, Note_on_c, 4, 62, 92
9, 52656, Note_on_c, 4, 65, 92
9, 52704, Note_off_c, 4, 65, 64
9, 52704, Note_off_c, 4, 62, 64
9, 52704, Note_on_c, 4, 62, 92
9, 52704, Note_on_c, 4, 65, 92
9, 52800, Note_off_c, 4, 65, 64
9, 52800, Note_off_c, 4, 62, 64
9, 52800, Note_on_c, 4, 60, 92
9, 52800, Note_on_c, 4, 63, 92
9, 52848, Note_off_c, 4, 63, 64
9, 52848, Note_off_c, 4, 60, 64
9, 52848, Note_on_c, 4, 60, 92
9, 52848, Note_on_c, 4, 63, 92
9, 52896, Note_off_c, 4, 63, 64
9, 52896, Note_off_c, 4, 60, 64
9, 52896, Note_on_c, 4, 62, 92
9, 52896, Note_on_c, 4, 58, 92
9, 52992, Note_off_c, 4, 62, 64
9, 52992, Note_off_c, 4, 58, 64
9, 52992, Note_on_c, 4, 60, 92
9, 52992, Note_on_c, 4, 63, 92
9, 53088, Note_off_c, 4, 63, 64
9, 53088, Note_off_c, 4, 60, 64
9, 53088, Note_on_c, 4, 60, 92
9, 53088, Note_on_c, 4, 63, 92
9, 53136, Note_off_c, 4, 63, 64
9, 53136, Note_off_c, 4, 60, 64
9, 53136, Note_on_c, 4, 60, 92
9, 53136, Note_on_c, 4, 63, 92
9, 53232, Note_off_c, 4, 63, 64
9, 53232, Note_off_c, 4, 60, 64
9, 53232, Note_on_c, 4, 58, 92
9, 53232, Note_on_c, 4, 62, 92
9, 53280, Note_off_c, 4, 62, 64
9, 53280, Note_off_c, 4, 58, 64
9, 53280, Note_on_c, 4, 58, 92
9, 53280, Note_on_c, 4, 62, 92
9, 53376, Note_off_c, 4, 62, 64
9, 53376, Note_off_c, 4, 58, 64
9, 53376, Note_on_c, 4, 60, 92
9, 53376, Note_on_c, 4, 63, 92
9, 53472, Note_off_c, 4, 63, 64
9, 53472, Note_off_c, 4, 60, 64
9, 53472, Note_on_c, 4, 60, 92
9, 53472, Note_on_c, 4, 63, 92
9, 53520, Note_off_c, 4, 63, 64
9, 53520, Note_off_c, 4, 60, 64
9, 53520, Note_on_c, 4, 60, 92
9, 53520, Note_on_c, 4, 63, 92
9, 53616, Note_off_c, 4, 60, 64
9, 53616, Note_off_c, 4, 63, 64
9, 53616, Note_on_c, 4, 58, 92
9, 53616, Note_on_c, 4, 62, 92
9, 53664, Note_off_c, 4, 62, 64
9, 53664, Note_off_c, 4, 58, 64
9, 53664, Note_on_c, 4, 58, 92
9, 53664, Note_on_c, 4, 62, 92
9, 53808, Note_off_c, 4, 58, 64
9, 53808, Note_off_c, 4, 62, 64
9, 54192, Note_on_c, 4, 62, 92
9, 54192, Note_on_c, 4, 65, 92
9, 54240, Note_off_c, 4, 65, 64
9, 54240, Note_off_c, 4, 62, 64
9, 54240, Note_on_c, 4, 62, 92
9, 54240, Note_on_c, 4, 65, 92
9, 54336, Note_off_c, 4, 65, 64
9, 54336, Note_off_c, 4, 62, 64
9, 54336, Note_on_c, 4, 60, 92
9, 54336, Note_on_c, 4, 63, 92
9, 54384, Note_off_c, 4, 63, 64
9, 54384, Note_off_c, 4, 60, 64
9, 54384, Note_on_c, 4, 60, 92
9, 54384, Note_on_c, 4, 63, 92
9, 54432, Note_off_c, 4, 63, 64
9, 54432, Note_off_c, 4, 60, 64
9, 54432, Note_on_c, 4, 62, 92
9, 54432, Note_on_c, 4, 58, 92
9, 54528, Note_off_c, 4, 58, 64
9, 54528, Note_off_c, 4, 62, 64
9, 54528, Note_on_c, 4, 60, 92
9, 54528, Note_on_c, 4, 63, 92
9, 54624, Note_off_c, 4, 63, 64
9, 54624, Note_off_c, 4, 60, 64
9, 54624, Note_on_c, 4, 60, 92
9, 54624, Note_on_c, 4, 63, 92
9, 54672, Note_off_c, 4, 63, 64
9, 54672, Note_off_c, 4, 60, 64
9, 54672, Note_on_c, 4, 60, 92
9, 54672, Note_on_c, 4, 63, 92
9, 54768, Note_off_c, 4, 63, 64
9, 54768, Note_off_c, 4, 60, 64
9, 54768, Note_on_c, 4, 58, 92
9, 54768, Note_on_c, 4, 62, 92
9, 54816, Note_off_c, 4, 62, 64
9, 54816, Note_off_c, 4, 58, 64
9, 54816, Note_on_c, 4, 58, 92
9, 54816, Note_on_c, 4, 62, 92
9, 54912, Note_off_c, 4, 58, 64
9, 54912, Note_off_c, 4, 62, 64
9, 63396, Control_c, 4, 101, 0
9, 63396, Control_c, 4, 100, 0
9, 63396, Control_c, 4, 6, 12
9, 63396, Control_c, 4, 10, 64
9, 63396, Control_c, 4, 7, 116
9, 63396, Pitch_bend_c, 4, 8192
9, 63396, Program_c, 4, 66
9, 63396, Control_c, 4, 1, 26
9, 63397, Control_c, 4, 101, 0
9, 63397, Control_c, 4, 100, 0
9, 63397, Control_c, 4, 6, 12
9, 63397, Control_c, 4, 10, 64
9, 63397, Control_c, 4, 7, 116
9, 63397, Pitch_bend_c, 4, 8192
9, 63397, Program_c, 4, 66
9, 63397, Control_c, 4, 1, 26
9, 63397, End_track
10, 0, Start_track
10, 0, Title_t, "chiff"
10, 0, Control_c, 5, 10, 64
10, 0, Control_c, 5, 7, 83
10, 0, Pitch_bend_c, 5, 8192
10, 0, Control_c, 5, 101, 0
10, 0, Control_c, 5, 100, 0
10, 0, Control_c, 5, 6, 12
10, 0, Control_c, 5, 10, 64
10, 0, Control_c, 5, 7, 83
10, 0, Pitch_bend_c, 5, 8192
10, 0, Program_c, 5, 83
10, 0, Control_c, 5, 1, 26
10, 0, Pitch_bend_c, 5, 8192
10, 0, Control_c, 5, 101, 0
10, 0, Control_c, 5, 100, 0
10, 0, Control_c, 5, 6, 12
10, 0, Control_c, 5, 10, 64
10, 0, Control_c, 5, 7, 83
10, 0, Pitch_bend_c, 5, 8192
10, 0, Program_c, 5, 83
10, 0, Control_c, 5, 1, 26
10, 0, Control_c, 5, 101, 0
10, 0, Control_c, 5, 100, 0
10, 0, Control_c, 5, 6, 12
10, 0, Control_c, 5, 10, 64
10, 0, Control_c, 5, 7, 83
10, 0, Pitch_bend_c, 5, 8192
10, 0, Program_c, 5, 83
10, 0, Control_c, 5, 1, 26
10, 14592, Note_on_c, 5, 53, 127
10, 14592, Note_on_c, 5, 60, 127
10, 14592, Note_on_c, 5, 62, 127
10, 15168, Note_on_c, 5, 53, 127
10, 15168, Pitch_bend_c, 5, 8192
10, 15225, Pitch_bend_c, 5, 8192
10, 15240, Pitch_bend_c, 5, 8192
10, 15247, Pitch_bend_c, 5, 8192
10, 15252, Pitch_bend_c, 5, 8198
10, 15255, Pitch_bend_c, 5, 8198
10, 15258, Pitch_bend_c, 5, 8198
10, 15260, Pitch_bend_c, 5, 8198
10, 15262, Pitch_bend_c, 5, 8198
10, 15264, Pitch_bend_c, 5, 8198
10, 15266, Pitch_bend_c, 5, 8198
10, 15267, Pitch_bend_c, 5, 8205
10, 15268, Pitch_bend_c, 5, 8205
10, 15269, Pitch_bend_c, 5, 8205
10, 15270, Pitch_bend_c, 5, 8205
10, 15271, Pitch_bend_c, 5, 8205
10, 15272, Pitch_bend_c, 5, 8205
10, 15273, Pitch_bend_c, 5, 8205
10, 15274, Pitch_bend_c, 5, 8212
10, 15275, Pitch_bend_c, 5, 8212
10, 15276, Pitch_bend_c, 5, 8212
10, 15277, Pitch_bend_c, 5, 8212
10, 15278, Pitch_bend_c, 5, 8219
10, 15279, Pitch_bend_c, 5, 8219
10, 15280, Pitch_bend_c, 5, 8219
10, 15281, Pitch_bend_c, 5, 8219
10, 15282, Pitch_bend_c, 5, 8226
10, 15283, Pitch_bend_c, 5, 8226
10, 15284, Pitch_bend_c, 5, 8226
10, 15285, Pitch_bend_c, 5, 8232
10, 15286, Pitch_bend_c, 5, 8232
10, 15287, Pitch_bend_c, 5, 8239
10, 15288, Pitch_bend_c, 5, 8239
10, 15289, Pitch_bend_c, 5, 8246
10, 15290, Pitch_bend_c, 5, 8246
10, 15291, Pitch_bend_c, 5, 8253
10, 15292, Pitch_bend_c, 5, 8260
10, 15293, Pitch_bend_c, 5, 8260
10, 15294, Pitch_bend_c, 5, 8267
10, 15295, Pitch_bend_c, 5, 8273
10, 15296, Pitch_bend_c, 5, 8280
10, 15297, Pitch_bend_c, 5, 8287
10, 15298, Pitch_bend_c, 5, 8294
10, 15299, Pitch_bend_c, 5, 8301
10, 15300, Pitch_bend_c, 5, 8308
10, 15301, Pitch_bend_c, 5, 8314
10, 15302, Pitch_bend_c, 5, 8328
10, 15303, Pitch_bend_c, 5, 8335
10, 15304, Pitch_bend_c, 5, 8349
10, 15305, Pitch_bend_c, 5, 8362
10, 15306, Pitch_bend_c, 5, 8376
10, 15307, Pitch_bend_c, 5, 8383
10, 15308, Pitch_bend_c, 5, 8403
10, 15309, Pitch_bend_c, 5, 8417
10, 15310, Pitch_bend_c, 5, 8430
10, 15311, Pitch_bend_c, 5, 8451
10, 15312, Pitch_bend_c, 5, 8471
10, 15313, Pitch_bend_c, 5, 8492
10, 15314, Pitch_bend_c, 5, 8512
10, 15315, Pitch_bend_c, 5, 8540
10, 15316, Pitch_bend_c, 5, 8560
10, 15317, Pitch_bend_c, 5, 8587
10, 15318, Pitch_bend_c, 5, 8622
10, 15319, Pitch_bend_c, 5, 8656
10, 15320, Pitch_bend_c, 5, 8690
10, 15321, Pitch_bend_c, 5, 8724
10, 15322, Pitch_bend_c, 5, 8765
10, 15323, Pitch_bend_c, 5, 8806
10, 15324, Pitch_bend_c, 5, 8854
10, 15325, Pitch_bend_c, 5, 8901
10, 15326, Pitch_bend_c, 5, 8956
10, 15327, Pitch_bend_c, 5, 9011
10, 15328, Pitch_bend_c, 5, 9072
10, 15329, Pitch_bend_c, 5, 9140
10, 15330, Pitch_bend_c, 5, 9209
10, 15331, Pitch_bend_c, 5, 9284
10, 15332, Pitch_bend_c, 5, 9366
10, 15333, Pitch_bend_c, 5, 9454
10, 15334, Pitch_bend_c, 5, 9550
10, 15335, Pitch_bend_c, 5, 9646
10, 15336, Pitch_bend_c, 5, 9755
10, 15337, Pitch_bend_c, 5, 9871
10, 15338, Pitch_bend_c, 5, 10001
10, 15339, Pitch_bend_c, 5, 10137
10, 15340, Pitch_bend_c, 5, 10280
10, 15341, Pitch_bend_c, 5, 10437
10, 15342, Pitch_bend_c, 5, 10601
10, 15343, Pitch_bend_c, 5, 10786
10, 15344, Pitch_bend_c, 5, 10977
10, 15345, Pitch_bend_c, 5, 11182
10, 15346, Pitch_bend_c, 5, 11407
10, 15347, Pitch_bend_c, 5, 11646
10, 15348, Pitch_bend_c, 5, 11905
10, 15349, Pitch_bend_c, 5, 12178
10, 15350, Pitch_bend_c, 5, 12479
10, 15351, Pitch_bend_c, 5, 12800
10, 15352, Pitch_bend_c, 5, 13141
10, 15353, Pitch_bend_c, 5, 13509
10, 15354, Pitch_bend_c, 5, 13905
10, 15355, Pitch_bend_c, 5, 14336
10, 15356, Pitch_bend_c, 5, 14793
10, 15357, Pitch_bend_c, 5, 15284
10, 15358, Pitch_bend_c, 5, 15817
10, 15359, Pitch_bend_c, 5, 16383
10, 15360, Note_off_c, 5, 62, 64
10, 15360, Note_off_c, 5, 60, 64
10, 15360, Note_off_c, 5, 53, 64
10, 16608, Note_off_c, 5, 53, 64
10, 16704, Note_on_c, 5, 53, 127
10, 16704, Pitch_bend_c, 5, 8192
10, 16761, Pitch_bend_c, 5, 8192
10, 16776, Pitch_bend_c, 5, 8192
10, 16783, Pitch_bend_c, 5, 8192
10, 16788, Pitch_bend_c, 5, 8198
10, 16791, Pitch_bend_c, 5, 8198
10, 16794, Pitch_bend_c, 5, 8198
10, 16796, Pitch_bend_c, 5, 8198
10, 16798, Pitch_bend_c, 5, 8198
10, 16800, Pitch_bend_c, 5, 8198
10, 16802, Pitch_bend_c, 5, 8198
10, 16803, Pitch_bend_c, 5, 8205
10, 16804, Pitch_bend_c, 5, 8205
10, 16805, Pitch_bend_c, 5, 8205
10, 16806, Pitch_bend_c, 5, 8205
10, 16807, Pitch_bend_c, 5, 8205
10, 16808, Pitch_bend_c, 5, 8205
10, 16809, Pitch_bend_c, 5, 8205
10, 16810, Pitch_bend_c, 5, 8212
10, 16811, Pitch_bend_c, 5, 8212
10, 16812, Pitch_bend_c, 5, 8212
10, 16813, Pitch_bend_c, 5, 8212
10, 16814, Pitch_bend_c, 5, 8219
10, 16815, Pitch_bend_c, 5, 8219
10, 16816, Pitch_bend_c, 5, 8219
10, 16817, Pitch_bend_c, 5, 8219
10, 16818, Pitch_bend_c, 5, 8226
10, 16819, Pitch_bend_c, 5, 8226
10, 16820, Pitch_bend_c, 5, 8226
10, 16821, Pitch_bend_c, 5, 8232
10, 16822, Pitch_bend_c, 5, 8232
10, 16823, Pitch_bend_c, 5, 8239
10, 16824, Pitch_bend_c, 5, 8239
10, 16825, Pitch_bend_c, 5, 8246
10, 16826, Pitch_bend_c, 5, 8246
10, 16827, Pitch_bend_c, 5, 8253
10, 16828, Pitch_bend_c, 5, 8260
10, 16829, Pitch_bend_c, 5, 8260
10, 16830, Pitch_bend_c, 5, 8267
10, 16831, Pitch_bend_c, 5, 8273
10, 16832, Pitch_bend_c, 5, 8280
10, 16833, Pitch_bend_c, 5, 8287
10, 16834, Pitch_bend_c, 5, 8294
10, 16835, Pitch_bend_c, 5, 8301
10, 16836, Pitch_bend_c, 5, 8308
10, 16837, Pitch_bend_c, 5, 8314
10, 16838, Pitch_bend_c, 5, 8328
10, 16839, Pitch_bend_c, 5, 8335
10, 16840, Pitch_bend_c, 5, 8349
10, 16841, Pitch_bend_c, 5, 8362
10, 16842, Pitch_bend_c, 5, 8376
10, 16843, Pitch_bend_c, 5, 8383
10, 16844, Pitch_bend_c, 5, 8403
10, 16845, Pitch_bend_c, 5, 8417
10, 16846, Pitch_bend_c, 5, 8430
10, 16847, Pitch_bend_c, 5, 8451
10, 16848, Pitch_bend_c, 5, 8471
10, 16849, Pitch_bend_c, 5, 8492
10, 16850, Pitch_bend_c, 5, 8512
10, 16851, Pitch_bend_c, 5, 8540
10, 16852, Pitch_bend_c, 5, 8560
10, 16853, Pitch_bend_c, 5, 8587
10, 16854, Pitch_bend_c, 5, 8622
10, 16855, Pitch_bend_c, 5, 8656
10, 16856, Pitch_bend_c, 5, 8690
10, 16857, Pitch_bend_c, 5, 8724
10, 16858, Pitch_bend_c, 5, 8765
10, 16859, Pitch_bend_c, 5, 8806
10, 16860, Pitch_bend_c, 5, 8854
10, 16861, Pitch_bend_c, 5, 8901
10, 16862, Pitch_bend_c, 5, 8956
10, 16863, Pitch_bend_c, 5, 9011
10, 16864, Pitch_bend_c, 5, 9072
10, 16865, Pitch_bend_c, 5, 9140
10, 16866, Pitch_bend_c, 5, 9209
10, 16867, Pitch_bend_c, 5, 9284
10, 16868, Pitch_bend_c, 5, 9366
10, 16869, Pitch_bend_c, 5, 9454
10, 16870, Pitch_bend_c, 5, 9550
10, 16871, Pitch_bend_c, 5, 9646
10, 16872, Pitch_bend_c, 5, 9755
10, 16873, Pitch_bend_c, 5, 9871
10, 16874, Pitch_bend_c, 5, 10001
10, 16875, Pitch_bend_c, 5, 10137
10, 16876, Pitch_bend_c, 5, 10280
10, 16877, Pitch_bend_c, 5, 10437
10, 16878, Pitch_bend_c, 5, 10601
10, 16879, Pitch_bend_c, 5, 10786
10, 16880, Pitch_bend_c, 5, 10977
10, 16881, Pitch_bend_c, 5, 11182
10, 16882, Pitch_bend_c, 5, 11407
10, 16883, Pitch_bend_c, 5, 11646
10, 16884, Pitch_bend_c, 5, 11905
10, 16885, Pitch_bend_c, 5, 12178
10, 16886, Pitch_bend_c, 5, 12479
10, 16887, Pitch_bend_c, 5, 12800
10, 16888, Pitch_bend_c, 5, 13141
10, 16889, Pitch_bend_c, 5, 13509
10, 16890, Pitch_bend_c, 5, 13905
10, 16891, Pitch_bend_c, 5, 14336
10, 16892, Pitch_bend_c, 5, 14793
10, 16893, Pitch_bend_c, 5, 15284
10, 16894, Pitch_bend_c, 5, 15817
10, 16895, Pitch_bend_c, 5, 16383
10, 18144, Note_off_c, 5, 53, 64
10, 29952, Note_on_c, 5, 53, 127
10, 29952, Note_on_c, 5, 60, 127
10, 29952, Note_on_c, 5, 62, 127
10, 29952, Pitch_bend_c, 5, 8192
10, 30528, Note_on_c, 5, 53, 127
10, 30528, Pitch_bend_c, 5, 8192
10, 30585, Pitch_bend_c, 5, 8192
10, 30600, Pitch_bend_c, 5, 8192
10, 30607, Pitch_bend_c, 5, 8192
10, 30612, Pitch_bend_c, 5, 8198
10, 30615, Pitch_bend_c, 5, 8198
10, 30618, Pitch_bend_c, 5, 8198
10, 30620, Pitch_bend_c, 5, 8198
10, 30622, Pitch_bend_c, 5, 8198
10, 30624, Pitch_bend_c, 5, 8198
10, 30626, Pitch_bend_c, 5, 8198
10, 30627, Pitch_bend_c, 5, 8205
10, 30628, Pitch_bend_c, 5, 8205
10, 30629, Pitch_bend_c, 5, 8205
10, 30630, Pitch_bend_c, 5, 8205
10, 30631, Pitch_bend_c, 5, 8205
10, 30632, Pitch_bend_c, 5, 8205
10, 30633, Pitch_bend_c, 5, 8205
10, 30634, Pitch_bend_c, 5, 8212
10, 30635, Pitch_bend_c, 5, 8212
10, 30636, Pitch_bend_c, 5, 8212
10, 30637, Pitch_bend_c, 5, 8212
10, 30638, Pitch_bend_c, 5, 8219
10, 30639, Pitch_bend_c, 5, 8219
10, 30640, Pitch_bend_c, 5, 8219
10, 30641, Pitch_bend_c, 5, 8219
10, 30642, Pitch_bend_c, 5, 8226
10, 30643, Pitch_bend_c, 5, 8226
10, 30644, Pitch_bend_c, 5, 8226
10, 30645, Pitch_bend_c, 5, 8232
10, 30646, Pitch_bend_c, 5, 8232
10, 30647, Pitch_bend_c, 5, 8239
10, 30648, Pitch_bend_c, 5, 8239
10, 30649, Pitch_bend_c, 5, 8246
10, 30650, Pitch_bend_c, 5, 8246
10, 30651, Pitch_bend_c, 5, 8253
10, 30652, Pitch_bend_c, 5, 8260
10, 30653, Pitch_bend_c, 5, 8260
10, 30654, Pitch_bend_c, 5, 8267
10, 30655, Pitch_bend_c, 5, 8273
10, 30656, Pitch_bend_c, 5, 8280
10, 30657, Pitch_bend_c, 5, 8287
10, 30658, Pitch_bend_c, 5, 8294
10, 30659, Pitch_bend_c, 5, 8301
10, 30660, Pitch_bend_c, 5, 8308
10, 30661, Pitch_bend_c, 5, 8314
10, 30662, Pitch_bend_c, 5, 8328
10, 30663, Pitch_bend_c, 5, 8335
10, 30664, Pitch_bend_c, 5, 8349
10, 30665, Pitch_bend_c, 5, 8362
10, 30666, Pitch_bend_c, 5, 8376
10, 30667, Pitch_bend_c, 5, 8383
10, 30668, Pitch_bend_c, 5, 8403
10, 30669, Pitch_bend_c, 5, 8417
10, 30670, Pitch_bend_c, 5, 8430
10, 30671, Pitch_bend_c, 5, 8451
10, 30672, Pitch_bend_c, 5, 8471
10, 30673, Pitch_bend_c, 5, 8492
10, 30674, Pitch_bend_c, 5, 8512
10, 30675, Pitch_bend_c, 5, 8540
10, 30676, Pitch_bend_c, 5, 8560
10, 30677, Pitch_bend_c, 5, 8587
10, 30678, Pitch_bend_c, 5, 8622
10, 30679, Pitch_bend_c, 5, 8656
10, 30680, Pitch_bend_c, 5, 8690
10, 30681, Pitch_bend_c, 5, 8724
10, 30682, Pitch_bend_c, 5, 8765
10, 30683, Pitch_bend_c, 5, 8806
10, 30684, Pitch_bend_c, 5, 8854
10, 30685, Pitch_bend_c, 5, 8901
10, 30686, Pitch_bend_c, 5, 8956
10, 30687, Pitch_bend_c, 5, 9011
10, 30688, Pitch_bend_c, 5, 9072
10, 30689, Pitch_bend_c, 5, 9140
10, 30690, Pitch_bend_c, 5, 9209
10, 30691, Pitch_bend_c, 5, 9284
10, 30692, Pitch_bend_c, 5, 9366
10, 30693, Pitch_bend_c, 5, 9454
10, 30694, Pitch_bend_c, 5, 9550
10, 30695, Pitch_bend_c, 5, 9646
10, 30696, Pitch_bend_c, 5, 9755
10, 30697, Pitch_bend_c, 5, 9871
10, 30698, Pitch_bend_c, 5, 10001
10, 30699, Pitch_bend_c, 5, 10137
10, 30700, Pitch_bend_c, 5, 10280
10, 30701, Pitch_bend_c, 5, 10437
10, 30702, Pitch_bend_c, 5, 10601
10, 30703, Pitch_bend_c, 5, 10786
10, 30704, Pitch_bend_c, 5, 10977
10, 30705, Pitch_bend_c, 5, 11182
10, 30706, Pitch_bend_c, 5, 11407
10, 30707, Pitch_bend_c, 5, 11646
10, 30708, Pitch_bend_c, 5, 11905
10, 30709, Pitch_bend_c, 5, 12178
10, 30710, Pitch_bend_c, 5, 12479
10, 30711, Pitch_bend_c, 5, 12800
10, 30712, Pitch_bend_c, 5, 13141
10, 30713, Pitch_bend_c, 5, 13509
10, 30714, Pitch_bend_c, 5, 13905
10, 30715, Pitch_bend_c, 5, 14336
10, 30716, Pitch_bend_c, 5, 14793
10, 30717, Pitch_bend_c, 5, 15284
10, 30718, Pitch_bend_c, 5, 15817
10, 30719, Pitch_bend_c, 5, 16383
10, 30720, Note_off_c, 5, 53, 64
10, 30720, Note_off_c, 5, 62, 64
10, 30720, Note_off_c, 5, 60, 64
10, 31968, Note_off_c, 5, 53, 64
10, 32064, Note_on_c, 5, 53, 127
10, 32064, Pitch_bend_c, 5, 8192
10, 32121, Pitch_bend_c, 5, 8192
10, 32136, Pitch_bend_c, 5, 8192
10, 32143, Pitch_bend_c, 5, 8192
10, 32148, Pitch_bend_c, 5, 8198
10, 32151, Pitch_bend_c, 5, 8198
10, 32154, Pitch_bend_c, 5, 8198
10, 32156, Pitch_bend_c, 5, 8198
10, 32158, Pitch_bend_c, 5, 8198
10, 32160, Pitch_bend_c, 5, 8198
10, 32162, Pitch_bend_c, 5, 8198
10, 32163, Pitch_bend_c, 5, 8205
10, 32164, Pitch_bend_c, 5, 8205
10, 32165, Pitch_bend_c, 5, 8205
10, 32166, Pitch_bend_c, 5, 8205
10, 32167, Pitch_bend_c, 5, 8205
10, 32168, Pitch_bend_c, 5, 8205
10, 32169, Pitch_bend_c, 5, 8205
10, 32170, Pitch_bend_c, 5, 8212
10, 32171, Pitch_bend_c, 5, 8212
10, 32172, Pitch_bend_c, 5, 8212
10, 32173, Pitch_bend_c, 5, 8212
10, 32174, Pitch_bend_c, 5, 8219
10, 32175, Pitch_bend_c, 5, 8219
10, 32176, Pitch_bend_c, 5, 8219
10, 32177, Pitch_bend_c, 5, 8219
10, 32178, Pitch_bend_c, 5, 8226
10, 32179, Pitch_bend_c, 5, 8226
10, 32180, Pitch_bend_c, 5, 8226
10, 32181, Pitch_bend_c, 5, 8232
10, 32182, Pitch_bend_c, 5, 8232
10, 32183, Pitch_bend_c, 5, 8239
10, 32184, Pitch_bend_c, 5, 8239
10, 32185, Pitch_bend_c, 5, 8246
10, 32186, Pitch_bend_c, 5, 8246
10, 32187, Pitch_bend_c, 5, 8253
10, 32188, Pitch_bend_c, 5, 8260
10, 32189, Pitch_bend_c, 5, 8260
10, 32190, Pitch_bend_c, 5, 8267
10, 32191, Pitch_bend_c, 5, 8273
10, 32192, Pitch_bend_c, 5, 8280
10, 32193, Pitch_bend_c, 5, 8287
10, 32194, Pitch_bend_c, 5, 8294
10, 32195, Pitch_bend_c, 5, 8301
10, 32196, Pitch_bend_c, 5, 8308
10, 32197, Pitch_bend_c, 5, 8314
10, 32198, Pitch_bend_c, 5, 8328
10, 32199, Pitch_bend_c, 5, 8335
10, 32200, Pitch_bend_c, 5, 8349
10, 32201, Pitch_bend_c, 5, 8362
10, 32202, Pitch_bend_c, 5, 8376
10, 32203, Pitch_bend_c, 5, 8383
10, 32204, Pitch_bend_c, 5, 8403
10, 32205, Pitch_bend_c, 5, 8417
10, 32206, Pitch_bend_c, 5, 8430
10, 32207, Pitch_bend_c, 5, 8451
10, 32208, Pitch_bend_c, 5, 8471
10, 32209, Pitch_bend_c, 5, 8492
10, 32210, Pitch_bend_c, 5, 8512
10, 32211, Pitch_bend_c, 5, 8540
10, 32212, Pitch_bend_c, 5, 8560
10, 32213, Pitch_bend_c, 5, 8587
10, 32214, Pitch_bend_c, 5, 8622
10, 32215, Pitch_bend_c, 5, 8656
10, 32216, Pitch_bend_c, 5, 8690
10, 32217, Pitch_bend_c, 5, 8724
10, 32218, Pitch_bend_c, 5, 8765
10, 32219, Pitch_bend_c, 5, 8806
10, 32220, Pitch_bend_c, 5, 8854
10, 32221, Pitch_bend_c, 5, 8901
10, 32222, Pitch_bend_c, 5, 8956
10, 32223, Pitch_bend_c, 5, 9011
10, 32224, Pitch_bend_c, 5, 9072
10, 32225, Pitch_bend_c, 5, 9140
10, 32226, Pitch_bend_c, 5, 9209
10, 32227, Pitch_bend_c, 5, 9284
10, 32228, Pitch_bend_c, 5, 9366
10, 32229, Pitch_bend_c, 5, 9454
10, 32230, Pitch_bend_c, 5, 9550
10, 32231, Pitch_bend_c, 5, 9646
10, 32232, Pitch_bend_c, 5, 9755
10, 32233, Pitch_bend_c, 5, 9871
10, 32234, Pitch_bend_c, 5, 10001
10, 32235, Pitch_bend_c, 5, 10137
10, 32236, Pitch_bend_c, 5, 10280
10, 32237, Pitch_bend_c, 5, 10437
10, 32238, Pitch_bend_c, 5, 10601
10, 32239, Pitch_bend_c, 5, 10786
10, 32240, Pitch_bend_c, 5, 10977
10, 32241, Pitch_bend_c, 5, 11182
10, 32242, Pitch_bend_c, 5, 11407
10, 32243, Pitch_bend_c, 5, 11646
10, 32244, Pitch_bend_c, 5, 11905
10, 32245, Pitch_bend_c, 5, 12178
10, 32246, Pitch_bend_c, 5, 12479
10, 32247, Pitch_bend_c, 5, 12800
10, 32248, Pitch_bend_c, 5, 13141
10, 32249, Pitch_bend_c, 5, 13509
10, 32250, Pitch_bend_c, 5, 13905
10, 32251, Pitch_bend_c, 5, 14336
10, 32252, Pitch_bend_c, 5, 14793
10, 32253, Pitch_bend_c, 5, 15284
10, 32254, Pitch_bend_c, 5, 15817
10, 32255, Pitch_bend_c, 5, 16383
10, 33504, Note_off_c, 5, 53, 64
10, 33600, Note_on_c, 5, 53, 127
10, 33600, Pitch_bend_c, 5, 8192
10, 33657, Pitch_bend_c, 5, 8192
10, 33672, Pitch_bend_c, 5, 8192
10, 33679, Pitch_bend_c, 5, 8192
10, 33684, Pitch_bend_c, 5, 8198
10, 33687, Pitch_bend_c, 5, 8198
10, 33690, Pitch_bend_c, 5, 8198
10, 33692, Pitch_bend_c, 5, 8198
10, 33694, Pitch_bend_c, 5, 8198
10, 33696, Pitch_bend_c, 5, 8198
10, 33698, Pitch_bend_c, 5, 8198
10, 33699, Pitch_bend_c, 5, 8205
10, 33700, Pitch_bend_c, 5, 8205
10, 33701, Pitch_bend_c, 5, 8205
10, 33702, Pitch_bend_c, 5, 8205
10, 33703, Pitch_bend_c, 5, 8205
10, 33704, Pitch_bend_c, 5, 8205
10, 33705, Pitch_bend_c, 5, 8205
10, 33706, Pitch_bend_c, 5, 8212
10, 33707, Pitch_bend_c, 5, 8212
10, 33708, Pitch_bend_c, 5, 8212
10, 33709, Pitch_bend_c, 5, 8212
10, 33710, Pitch_bend_c, 5, 8219
10, 33711, Pitch_bend_c, 5, 8219
10, 33712, Pitch_bend_c, 5, 8219
10, 33713, Pitch_bend_c, 5, 8219
10, 33714, Pitch_bend_c, 5, 8226
10, 33715, Pitch_bend_c, 5, 8226
10, 33716, Pitch_bend_c, 5, 8226
10, 33717, Pitch_bend_c, 5, 8232
10, 33718, Pitch_bend_c, 5, 8232
10, 33719, Pitch_bend_c, 5, 8239
10, 33720, Pitch_bend_c, 5, 8239
10, 33721, Pitch_bend_c, 5, 8246
10, 33722, Pitch_bend_c, 5, 8246
10, 33723, Pitch_bend_c, 5, 8253
10, 33724, Pitch_bend_c, 5, 8260
10, 33725, Pitch_bend_c, 5, 8260
10, 33726, Pitch_bend_c, 5, 8267
10, 33727, Pitch_bend_c, 5, 8273
10, 33728, Pitch_bend_c, 5, 8280
10, 33729, Pitch_bend_c, 5, 8287
10, 33730, Pitch_bend_c, 5, 8294
10, 33731, Pitch_bend_c, 5, 8301
10, 33732, Pitch_bend_c, 5, 8308
10, 33733, Pitch_bend_c, 5, 8314
10, 33734, Pitch_bend_c, 5, 8328
10, 33735, Pitch_bend_c, 5, 8335
10, 33736, Pitch_bend_c, 5, 8349
10, 33737, Pitch_bend_c, 5, 8362
10, 33738, Pitch_bend_c, 5, 8376
10, 33739, Pitch_bend_c, 5, 8383
10, 33740, Pitch_bend_c, 5, 8403
10, 33741, Pitch_bend_c, 5, 8417
10, 33742, Pitch_bend_c, 5, 8430
10, 33743, Pitch_bend_c, 5, 8451
10, 33744, Pitch_bend_c, 5, 8471
10, 33745, Pitch_bend_c, 5, 8492
10, 33746, Pitch_bend_c, 5, 8512
10, 33747, Pitch_bend_c, 5, 8540
10, 33748, Pitch_bend_c, 5, 8560
10, 33749, Pitch_bend_c, 5, 8587
10, 33750, Pitch_bend_c, 5, 8622
10, 33751, Pitch_bend_c, 5, 8656
10, 33752, Pitch_bend_c, 5, 8690
10, 33753, Pitch_bend_c, 5, 8724
10, 33754, Pitch_bend_c, 5, 8765
10, 33755, Pitch_bend_c, 5, 8806
10, 33756, Pitch_bend_c, 5, 8854
10, 33757, Pitch_bend_c, 5, 8901
10, 33758, Pitch_bend_c, 5, 8956
10, 33759, Pitch_bend_c, 5, 9011
10, 33760, Pitch_bend_c, 5, 9072
10, 33761, Pitch_bend_c, 5, 9140
10, 33762, Pitch_bend_c, 5, 9209
10, 33763, Pitch_bend_c, 5, 9284
10, 33764, Pitch_bend_c, 5, 9366
10, 33765, Pitch_bend_c, 5, 9454
10, 33766, Pitch_bend_c, 5, 9550
10, 33767, Pitch_bend_c, 5, 9646
10, 33768, Pitch_bend_c, 5, 9755
10, 33769, Pitch_bend_c, 5, 9871
10, 33770, Pitch_bend_c, 5, 10001
10, 33771, Pitch_bend_c, 5, 10137
10, 33772, Pitch_bend_c, 5, 10280
10, 33773, Pitch_bend_c, 5, 10437
10, 33774, Pitch_bend_c, 5, 10601
10, 33775, Pitch_bend_c, 5, 10786
10, 33776, Pitch_bend_c, 5, 10977
10, 33777, Pitch_bend_c, 5, 11182
10, 33778, Pitch_bend_c, 5, 11407
10, 33779, Pitch_bend_c, 5, 11646
10, 33780, Pitch_bend_c, 5, 11905
10, 33781, Pitch_bend_c, 5, 12178
10, 33782, Pitch_bend_c, 5, 12479
10, 33783, Pitch_bend_c, 5, 12800
10, 33784, Pitch_bend_c, 5, 13141
10, 33785, Pitch_bend_c, 5, 13509
10, 33786, Pitch_bend_c, 5, 13905
10, 33787, Pitch_bend_c, 5, 14336
10, 33788, Pitch_bend_c, 5, 14793
10, 33789, Pitch_bend_c, 5, 15284
10, 33790, Pitch_bend_c, 5, 15817
10, 33791, Pitch_bend_c, 5, 16383
10, 35040, Note_off_c, 5, 53, 64
10, 35136, Note_on_c, 5, 53, 127
10, 35136, Pitch_bend_c, 5, 8192
10, 35193, Pitch_bend_c, 5, 8192
10, 35208, Pitch_bend_c, 5, 8192
10, 35215, Pitch_bend_c, 5, 8192
10, 35220, Pitch_bend_c, 5, 8198
10, 35223, Pitch_bend_c, 5, 8198
10, 35226, Pitch_bend_c, 5, 8198
10, 35228, Pitch_bend_c, 5, 8198
10, 35230, Pitch_bend_c, 5, 8198
10, 35232, Pitch_bend_c, 5, 8198
10, 35234, Pitch_bend_c, 5, 8198
10, 35235, Pitch_bend_c, 5, 8205
10, 35236, Pitch_bend_c, 5, 8205
10, 35237, Pitch_bend_c, 5, 8205
10, 35238, Pitch_bend_c, 5, 8205
10, 35239, Pitch_bend_c, 5, 8205
10, 35240, Pitch_bend_c, 5, 8205
10, 35241, Pitch_bend_c, 5, 8205
10, 35242, Pitch_bend_c, 5, 8212
10, 35243, Pitch_bend_c, 5, 8212
10, 35244, Pitch_bend_c, 5, 8212
10, 35245, Pitch_bend_c, 5, 8212
10, 35246, Pitch_bend_c, 5, 8219
10, 35247, Pitch_bend_c, 5, 8219
10, 35248, Pitch_bend_c, 5, 8219
10, 35249, Pitch_bend_c, 5, 8219
10, 35250, Pitch_bend_c, 5, 8226
10, 35251, Pitch_bend_c, 5, 8226
10, 35252, Pitch_bend_c, 5, 8226
10, 35253, Pitch_bend_c, 5, 8232
10, 35254, Pitch_bend_c, 5, 8232
10, 35255, Pitch_bend_c, 5, 8239
10, 35256, Pitch_bend_c, 5, 8239
10, 35257, Pitch_bend_c, 5, 8246
10, 35258, Pitch_bend_c, 5, 8246
10, 35259, Pitch_bend_c, 5, 8253
10, 35260, Pitch_bend_c, 5, 8260
10, 35261, Pitch_bend_c, 5, 8260
10, 35262, Pitch_bend_c, 5, 8267
10, 35263, Pitch_bend_c, 5, 8273
10, 35264, Pitch_bend_c, 5, 8280
10, 35265, Pitch_bend_c, 5, 8287
10, 35266, Pitch_bend_c, 5, 8294
10, 35267, Pitch_bend_c, 5, 8301
10, 35268, Pitch_bend_c, 5, 8308
10, 35269, Pitch_bend_c, 5, 8314
10, 35270, Pitch_bend_c, 5, 8328
10, 35271, Pitch_bend_c, 5, 8335
10, 35272, Pitch_bend_c, 5, 8349
10, 35273, Pitch_bend_c, 5, 8362
10, 35274, Pitch_bend_c, 5, 8376
10, 35275, Pitch_bend_c, 5, 8383
10, 35276, Pitch_bend_c, 5, 8403
10, 35277, Pitch_bend_c, 5, 8417
10, 35278, Pitch_bend_c, 5, 8430
10, 35279, Pitch_bend_c, 5, 8451
10, 35280, Pitch_bend_c, 5, 8471
10, 35281, Pitch_bend_c, 5, 8492
10, 35282, Pitch_bend_c, 5, 8512
10, 35283, Pitch_bend_c, 5, 8540
10, 35284, Pitch_bend_c, 5, 8560
10, 35285, Pitch_bend_c, 5, 8587
10, 35286, Pitch_bend_c, 5, 8622
10, 35287, Pitch_bend_c, 5, 8656
10, 35288, Pitch_bend_c, 5, 8690
10, 35289, Pitch_bend_c, 5, 8724
10, 35290, Pitch_bend_c, 5, 8765
10, 35291, Pitch_bend_c, 5, 8806
10, 35292, Pitch_bend_c, 5, 8854
10, 35293, Pitch_bend_c, 5, 8901
10, 35294, Pitch_bend_c, 5, 8956
10, 35295, Pitch_bend_c, 5, 9011
10, 35296, Pitch_bend_c, 5, 9072
10, 35297, Pitch_bend_c, 5, 9140
10, 35298, Pitch_bend_c, 5, 9209
10, 35299, Pitch_bend_c, 5, 9284
10, 35300, Pitch_bend_c, 5, 9366
10, 35301, Pitch_bend_c, 5, 9454
10, 35302, Pitch_bend_c, 5, 9550
10, 35303, Pitch_bend_c, 5, 9646
10, 35304, Pitch_bend_c, 5, 9755
10, 35305, Pitch_bend_c, 5, 9871
10, 35306, Pitch_bend_c, 5, 10001
10, 35307, Pitch_bend_c, 5, 10137
10, 35308, Pitch_bend_c, 5, 10280
10, 35309, Pitch_bend_c, 5, 10437
10, 35310, Pitch_bend_c, 5, 10601
10, 35311, Pitch_bend_c, 5, 10786
10, 35312, Pitch_bend_c, 5, 10977
10, 35313, Pitch_bend_c, 5, 11182
10, 35314, Pitch_bend_c, 5, 11407
10, 35315, Pitch_bend_c, 5, 11646
10, 35316, Pitch_bend_c, 5, 11905
10, 35317, Pitch_bend_c, 5, 12178
10, 35318, Pitch_bend_c, 5, 12479
10, 35319, Pitch_bend_c, 5, 12800
10, 35320, Pitch_bend_c, 5, 13141
10, 35321, Pitch_bend_c, 5, 13509
10, 35322, Pitch_bend_c, 5, 13905
10, 35323, Pitch_bend_c, 5, 14336
10, 35324, Pitch_bend_c, 5, 14793
10, 35325, Pitch_bend_c, 5, 15284
10, 35326, Pitch_bend_c, 5, 15817
10, 35327, Pitch_bend_c, 5, 16383
10, 36576, Note_off_c, 5, 53, 64
10, 42240, Note_on_c, 5, 53, 127
10, 42240, Note_on_c, 5, 60, 127
10, 42240, Note_on_c, 5, 62, 127
10, 42240, Pitch_bend_c, 5, 8192
10, 43008, Note_off_c, 5, 62, 64
10, 43008, Note_off_c, 5, 60, 64
10, 43008, Note_off_c, 5, 53, 64
10, 54912, Note_on_c, 5, 53, 127
10, 54912, Note_on_c, 5, 60, 127
10, 54912, Note_on_c, 5, 62, 127
10, 54912, Pitch_bend_c, 5, 8192
10, 55488, Note_on_c, 5, 53, 127
10, 55488, Pitch_bend_c, 5, 8192
10, 55545, Pitch_bend_c, 5, 8192
10, 55560, Pitch_bend_c, 5, 8192
10, 55567, Pitch_bend_c, 5, 8192
10, 55572, Pitch_bend_c, 5, 8198
10, 55575, Pitch_bend_c, 5, 8198
10, 55578, Pitch_bend_c, 5, 8198
10, 55580, Pitch_bend_c, 5, 8198
10, 55582, Pitch_bend_c, 5, 8198
10, 55584, Pitch_bend_c, 5, 8198
10, 55586, Pitch_bend_c, 5, 8198
10, 55587, Pitch_bend_c, 5, 8205
10, 55588, Pitch_bend_c, 5, 8205
10, 55589, Pitch_bend_c, 5, 8205
10, 55590, Pitch_bend_c, 5, 8205
10, 55591, Pitch_bend_c, 5, 8205
10, 55592, Pitch_bend_c, 5, 8205
10, 55593, Pitch_bend_c, 5, 8205
10, 55594, Pitch_bend_c, 5, 8212
10, 55595, Pitch_bend_c, 5, 8212
10, 55596, Pitch_bend_c, 5, 8212
10, 55597, Pitch_bend_c, 5, 8212
10, 55598, Pitch_bend_c, 5, 8219
10, 55599, Pitch_bend_c, 5, 8219
10, 55600, Pitch_bend_c, 5, 8219
10, 55601, Pitch_bend_c, 5, 8219
10, 55602, Pitch_bend_c, 5, 8226
10, 55603, Pitch_bend_c, 5, 8226
10, 55604, Pitch_bend_c, 5, 8226
10, 55605, Pitch_bend_c, 5, 8232
10, 55606, Pitch_bend_c, 5, 8232
10, 55607, Pitch_bend_c, 5, 8239
10, 55608, Pitch_bend_c, 5, 8239
10, 55609, Pitch_bend_c, 5, 8246
10, 55610, Pitch_bend_c, 5, 8246
10, 55611, Pitch_bend_c, 5, 8253
10, 55612, Pitch_bend_c, 5, 8260
10, 55613, Pitch_bend_c, 5, 8260
10, 55614, Pitch_bend_c, 5, 8267
10, 55615, Pitch_bend_c, 5, 8273
10, 55616, Pitch_bend_c, 5, 8280
10, 55617, Pitch_bend_c, 5, 8287
10, 55618, Pitch_bend_c, 5, 8294
10, 55619, Pitch_bend_c, 5, 8301
10, 55620, Pitch_bend_c, 5, 8308
10, 55621, Pitch_bend_c, 5, 8314
10, 55622, Pitch_bend_c, 5, 8328
10, 55623, Pitch_bend_c, 5, 8335
10, 55624, Pitch_bend_c, 5, 8349
10, 55625, Pitch_bend_c, 5, 8362
10, 55626, Pitch_bend_c, 5, 8376
10, 55627, Pitch_bend_c, 5, 8383
10, 55628, Pitch_bend_c, 5, 8403
10, 55629, Pitch_bend_c, 5, 8417
10, 55630, Pitch_bend_c, 5, 8430
10, 55631, Pitch_bend_c, 5, 8451
10, 55632, Pitch_bend_c, 5, 8471
10, 55633, Pitch_bend_c, 5, 8492
10, 55634, Pitch_bend_c, 5, 8512
10, 55635, Pitch_bend_c, 5, 8540
10, 55636, Pitch_bend_c, 5, 8560
10, 55637, Pitch_bend_c, 5, 8587
10, 55638, Pitch_bend_c, 5, 8622
10, 55639, Pitch_bend_c, 5, 8656
10, 55640, Pitch_bend_c, 5, 8690
10, 55641, Pitch_bend_c, 5, 8724
10, 55642, Pitch_bend_c, 5, 8765
10, 55643, Pitch_bend_c, 5, 8806
10, 55644, Pitch_bend_c, 5, 8854
10, 55645, Pitch_bend_c, 5, 8901
10, 55646, Pitch_bend_c, 5, 8956
10, 55647, Pitch_bend_c, 5, 9011
10, 55648, Pitch_bend_c, 5, 9072
10, 55649, Pitch_bend_c, 5, 9140
10, 55650, Pitch_bend_c, 5, 9209
10, 55651, Pitch_bend_c, 5, 9284
10, 55652, Pitch_bend_c, 5, 9366
10, 55653, Pitch_bend_c, 5, 9454
10, 55654, Pitch_bend_c, 5, 9550
10, 55655, Pitch_bend_c, 5, 9646
10, 55656, Pitch_bend_c, 5, 9755
10, 55657, Pitch_bend_c, 5, 9871
10, 55658, Pitch_bend_c, 5, 10001
10, 55659, Pitch_bend_c, 5, 10137
10, 55660, Pitch_bend_c, 5, 10280
10, 55661, Pitch_bend_c, 5, 10437
10, 55662, Pitch_bend_c, 5, 10601
10, 55663, Pitch_bend_c, 5, 10786
10, 55664, Pitch_bend_c, 5, 10977
10, 55665, Pitch_bend_c, 5, 11182
10, 55666, Pitch_bend_c, 5, 11407
10, 55667, Pitch_bend_c, 5, 11646
10, 55668, Pitch_bend_c, 5, 11905
10, 55669, Pitch_bend_c, 5, 12178
10, 55670, Pitch_bend_c, 5, 12479
10, 55671, Pitch_bend_c, 5, 12800
10, 55672, Pitch_bend_c, 5, 13141
10, 55673, Pitch_bend_c, 5, 13509
10, 55674, Pitch_bend_c, 5, 13905
10, 55675, Pitch_bend_c, 5, 14336
10, 55676, Pitch_bend_c, 5, 14793
10, 55677, Pitch_bend_c, 5, 15284
10, 55678, Pitch_bend_c, 5, 15817
10, 55679, Pitch_bend_c, 5, 16383
10, 55680, Note_off_c, 5, 62, 64
10, 55680, Note_off_c, 5, 60, 64
10, 55680, Note_off_c, 5, 53, 64
10, 56928, Note_off_c, 5, 53, 64
10, 57024, Note_on_c, 5, 53, 127
10, 57024, Pitch_bend_c, 5, 8192
10, 57081, Pitch_bend_c, 5, 8192
10, 57096, Pitch_bend_c, 5, 8192
10, 57103, Pitch_bend_c, 5, 8192
10, 57108, Pitch_bend_c, 5, 8198
10, 57111, Pitch_bend_c, 5, 8198
10, 57114, Pitch_bend_c, 5, 8198
10, 57116, Pitch_bend_c, 5, 8198
10, 57118, Pitch_bend_c, 5, 8198
10, 57120, Pitch_bend_c, 5, 8198
10, 57122, Pitch_bend_c, 5, 8198
10, 57123, Pitch_bend_c, 5, 8205
10, 57124, Pitch_bend_c, 5, 8205
10, 57125, Pitch_bend_c, 5, 8205
10, 57126, Pitch_bend_c, 5, 8205
10, 57127, Pitch_bend_c, 5, 8205
10, 57128, Pitch_bend_c, 5, 8205
10, 57129, Pitch_bend_c, 5, 8205
10, 57130, Pitch_bend_c, 5, 8212
10, 57131, Pitch_bend_c, 5, 8212
10, 57132, Pitch_bend_c, 5, 8212
10, 57133, Pitch_bend_c, 5, 8212
10, 57134, Pitch_bend_c, 5, 8219
10, 57135, Pitch_bend_c, 5, 8219
10, 57136, Pitch_bend_c, 5, 8219
10, 57137, Pitch_bend_c, 5, 8219
10, 57138, Pitch_bend_c, 5, 8226
10, 57139, Pitch_bend_c, 5, 8226
10, 57140, Pitch_bend_c, 5, 8226
10, 57141, Pitch_bend_c, 5, 8232
10, 57142, Pitch_bend_c, 5, 8232
10, 57143, Pitch_bend_c, 5, 8239
10, 57144, Pitch_bend_c, 5, 8239
10, 57145, Pitch_bend_c, 5, 8246
10, 57146, Pitch_bend_c, 5, 8246
10, 57147, Pitch_bend_c, 5, 8253
10, 57148, Pitch_bend_c, 5, 8260
10, 57149, Pitch_bend_c, 5, 8260
10, 57150, Pitch_bend_c, 5, 8267
10, 57151, Pitch_bend_c, 5, 8273
10, 57152, Pitch_bend_c, 5, 8280
10, 57153, Pitch_bend_c, 5, 8287
10, 57154, Pitch_bend_c, 5, 8294
10, 57155, Pitch_bend_c, 5, 8301
10, 57156, Pitch_bend_c, 5, 8308
10, 57157, Pitch_bend_c, 5, 8314
10, 57158, Pitch_bend_c, 5, 8328
10, 57159, Pitch_bend_c, 5, 8335
10, 57160, Pitch_bend_c, 5, 8349
10, 57161, Pitch_bend_c, 5, 8362
10, 57162, Pitch_bend_c, 5, 8376
10, 57163, Pitch_bend_c, 5, 8383
10, 57164, Pitch_bend_c, 5, 8403
10, 57165, Pitch_bend_c, 5, 8417
10, 57166, Pitch_bend_c, 5, 8430
10, 57167, Pitch_bend_c, 5, 8451
10, 57168, Pitch_bend_c, 5, 8471
10, 57169, Pitch_bend_c, 5, 8492
10, 57170, Pitch_bend_c, 5, 8512
10, 57171, Pitch_bend_c, 5, 8540
10, 57172, Pitch_bend_c, 5, 8560
10, 57173, Pitch_bend_c, 5, 8587
10, 57174, Pitch_bend_c, 5, 8622
10, 57175, Pitch_bend_c, 5, 8656
10, 57176, Pitch_bend_c, 5, 8690
10, 57177, Pitch_bend_c, 5, 8724
10, 57178, Pitch_bend_c, 5, 8765
10, 57179, Pitch_bend_c, 5, 8806
10, 57180, Pitch_bend_c, 5, 8854
10, 57181, Pitch_bend_c, 5, 8901
10, 57182, Pitch_bend_c, 5, 8956
10, 57183, Pitch_bend_c, 5, 9011
10, 57184, Pitch_bend_c, 5, 9072
10, 57185, Pitch_bend_c, 5, 9140
10, 57186, Pitch_bend_c, 5, 9209
10, 57187, Pitch_bend_c, 5, 9284
10, 57188, Pitch_bend_c, 5, 9366
10, 57189, Pitch_bend_c, 5, 9454
10, 57190, Pitch_bend_c, 5, 9550
10, 57191, Pitch_bend_c, 5, 9646
10, 57192, Pitch_bend_c, 5, 9755
10, 57193, Pitch_bend_c, 5, 9871
10, 57194, Pitch_bend_c, 5, 10001
10, 57195, Pitch_bend_c, 5, 10137
10, 57196, Pitch_bend_c, 5, 10280
10, 57197, Pitch_bend_c, 5, 10437
10, 57198, Pitch_bend_c, 5, 10601
10, 57199, Pitch_bend_c, 5, 10786
10, 57200, Pitch_bend_c, 5, 10977
10, 57201, Pitch_bend_c, 5, 11182
10, 57202, Pitch_bend_c, 5, 11407
10, 57203, Pitch_bend_c, 5, 11646
10, 57204, Pitch_bend_c, 5, 11905
10, 57205, Pitch_bend_c, 5, 12178
10, 57206, Pitch_bend_c, 5, 12479
10, 57207, Pitch_bend_c, 5, 12800
10, 57208, Pitch_bend_c, 5, 13141
10, 57209, Pitch_bend_c, 5, 13509
10, 57210, Pitch_bend_c, 5, 13905
10, 57211, Pitch_bend_c, 5, 14336
10, 57212, Pitch_bend_c, 5, 14793
10, 57213, Pitch_bend_c, 5, 15284
10, 57214, Pitch_bend_c, 5, 15817
10, 57215, Pitch_bend_c, 5, 16383
10, 58464, Note_off_c, 5, 53, 64
10, 58560, Note_on_c, 5, 53, 127
10, 58560, Pitch_bend_c, 5, 8192
10, 58617, Pitch_bend_c, 5, 8192
10, 58632, Pitch_bend_c, 5, 8192
10, 58639, Pitch_bend_c, 5, 8192
10, 58644, Pitch_bend_c, 5, 8198
10, 58647, Pitch_bend_c, 5, 8198
10, 58650, Pitch_bend_c, 5, 8198
10, 58652, Pitch_bend_c, 5, 8198
10, 58654, Pitch_bend_c, 5, 8198
10, 58656, Pitch_bend_c, 5, 8198
10, 58658, Pitch_bend_c, 5, 8198
10, 58659, Pitch_bend_c, 5, 8205
10, 58660, Pitch_bend_c, 5, 8205
10, 58661, Pitch_bend_c, 5, 8205
10, 58662, Pitch_bend_c, 5, 8205
10, 58663, Pitch_bend_c, 5, 8205
10, 58664, Pitch_bend_c, 5, 8205
10, 58665, Pitch_bend_c, 5, 8205
10, 58666, Pitch_bend_c, 5, 8212
10, 58667, Pitch_bend_c, 5, 8212
10, 58668, Pitch_bend_c, 5, 8212
10, 58669, Pitch_bend_c, 5, 8212
10, 58670, Pitch_bend_c, 5, 8219
10, 58671, Pitch_bend_c, 5, 8219
10, 58672, Pitch_bend_c, 5, 8219
10, 58673, Pitch_bend_c, 5, 8219
10, 58674, Pitch_bend_c, 5, 8226
10, 58675, Pitch_bend_c, 5, 8226
10, 58676, Pitch_bend_c, 5, 8226
10, 58677, Pitch_bend_c, 5, 8232
10, 58678, Pitch_bend_c, 5, 8232
10, 58679, Pitch_bend_c, 5, 8239
10, 58680, Pitch_bend_c, 5, 8239
10, 58681, Pitch_bend_c, 5, 8246
10, 58682, Pitch_bend_c, 5, 8246
10, 58683, Pitch_bend_c, 5, 8253
10, 58684, Pitch_bend_c, 5, 8260
10, 58685, Pitch_bend_c, 5, 8260
10, 58686, Pitch_bend_c, 5, 8267
10, 58687, Pitch_bend_c, 5, 8273
10, 58688, Pitch_bend_c, 5, 8280
10, 58689, Pitch_bend_c, 5, 8287
10, 58690, Pitch_bend_c, 5, 8294
10, 58691, Pitch_bend_c, 5, 8301
10, 58692, Pitch_bend_c, 5, 8308
10, 58693, Pitch_bend_c, 5, 8314
10, 58694, Pitch_bend_c, 5, 8328
10, 58695, Pitch_bend_c, 5, 8335
10, 58696, Pitch_bend_c, 5, 8349
10, 58697, Pitch_bend_c, 5, 8362
10, 58698, Pitch_bend_c, 5, 8376
10, 58699, Pitch_bend_c, 5, 8383
10, 58700, Pitch_bend_c, 5, 8403
10, 58701, Pitch_bend_c, 5, 8417
10, 58702, Pitch_bend_c, 5, 8430
10, 58703, Pitch_bend_c, 5, 8451
10, 58704, Pitch_bend_c, 5, 8471
10, 58705, Pitch_bend_c, 5, 8492
10, 58706, Pitch_bend_c, 5, 8512
10, 58707, Pitch_bend_c, 5, 8540
10, 58708, Pitch_bend_c, 5, 8560
10, 58709, Pitch_bend_c, 5, 8587
10, 58710, Pitch_bend_c, 5, 8622
10, 58711, Pitch_bend_c, 5, 8656
10, 58712, Pitch_bend_c, 5, 8690
10, 58713, Pitch_bend_c, 5, 8724
10, 58714, Pitch_bend_c, 5, 8765
10, 58715, Pitch_bend_c, 5, 8806
10, 58716, Pitch_bend_c, 5, 8854
10, 58717, Pitch_bend_c, 5, 8901
10, 58718, Pitch_bend_c, 5, 8956
10, 58719, Pitch_bend_c, 5, 9011
10, 58720, Pitch_bend_c, 5, 9072
10, 58721, Pitch_bend_c, 5, 9140
10, 58722, Pitch_bend_c, 5, 9209
10, 58723, Pitch_bend_c, 5, 9284
10, 58724, Pitch_bend_c, 5, 9366
10, 58725, Pitch_bend_c, 5, 9454
10, 58726, Pitch_bend_c, 5, 9550
10, 58727, Pitch_bend_c, 5, 9646
10, 58728, Pitch_bend_c, 5, 9755
10, 58729, Pitch_bend_c, 5, 9871
10, 58730, Pitch_bend_c, 5, 10001
10, 58731, Pitch_bend_c, 5, 10137
10, 58732, Pitch_bend_c, 5, 10280
10, 58733, Pitch_bend_c, 5, 10437
10, 58734, Pitch_bend_c, 5, 10601
10, 58735, Pitch_bend_c, 5, 10786
10, 58736, Pitch_bend_c, 5, 10977
10, 58737, Pitch_bend_c, 5, 11182
10, 58738, Pitch_bend_c, 5, 11407
10, 58739, Pitch_bend_c, 5, 11646
10, 58740, Pitch_bend_c, 5, 11905
10, 58741, Pitch_bend_c, 5, 12178
10, 58742, Pitch_bend_c, 5, 12479
10, 58743, Pitch_bend_c, 5, 12800
10, 58744, Pitch_bend_c, 5, 13141
10, 58745, Pitch_bend_c, 5, 13509
10, 58746, Pitch_bend_c, 5, 13905
10, 58747, Pitch_bend_c, 5, 14336
10, 58748, Pitch_bend_c, 5, 14793
10, 58749, Pitch_bend_c, 5, 15284
10, 58750, Pitch_bend_c, 5, 15817
10, 58751, Pitch_bend_c, 5, 16383
10, 60000, Note_off_c, 5, 53, 64
10, 60096, Note_on_c, 5, 53, 127
10, 60096, Pitch_bend_c, 5, 8192
10, 60153, Pitch_bend_c, 5, 8192
10, 60168, Pitch_bend_c, 5, 8192
10, 60175, Pitch_bend_c, 5, 8192
10, 60180, Pitch_bend_c, 5, 8198
10, 60183, Pitch_bend_c, 5, 8198
10, 60186, Pitch_bend_c, 5, 8198
10, 60188, Pitch_bend_c, 5, 8198
10, 60190, Pitch_bend_c, 5, 8198
10, 60192, Pitch_bend_c, 5, 8198
10, 60194, Pitch_bend_c, 5, 8198
10, 60195, Pitch_bend_c, 5, 8205
10, 60196, Pitch_bend_c, 5, 8205
10, 60197, Pitch_bend_c, 5, 8205
10, 60198, Pitch_bend_c, 5, 8205
10, 60199, Pitch_bend_c, 5, 8205
10, 60200, Pitch_bend_c, 5, 8205
10, 60201, Pitch_bend_c, 5, 8205
10, 60202, Pitch_bend_c, 5, 8212
10, 60203, Pitch_bend_c, 5, 8212
10, 60204, Pitch_bend_c, 5, 8212
10, 60205, Pitch_bend_c, 5, 8212
10, 60206, Pitch_bend_c, 5, 8219
10, 60207, Pitch_bend_c, 5, 8219
10, 60208, Pitch_bend_c, 5, 8219
10, 60209, Pitch_bend_c, 5, 8219
10, 60210, Pitch_bend_c, 5, 8226
10, 60211, Pitch_bend_c, 5, 8226
10, 60212, Pitch_bend_c, 5, 8226
10, 60213, Pitch_bend_c, 5, 8232
10, 60214, Pitch_bend_c, 5, 8232
10, 60215, Pitch_bend_c, 5, 8239
10, 60216, Pitch_bend_c, 5, 8239
10, 60217, Pitch_bend_c, 5, 8246
10, 60218, Pitch_bend_c, 5, 8246
10, 60219, Pitch_bend_c, 5, 8253
10, 60220, Pitch_bend_c, 5, 8260
10, 60221, Pitch_bend_c, 5, 8260
10, 60222, Pitch_bend_c, 5, 8267
10, 60223, Pitch_bend_c, 5, 8273
10, 60224, Pitch_bend_c, 5, 8280
10, 60225, Pitch_bend_c, 5, 8287
10, 60226, Pitch_bend_c, 5, 8294
10, 60227, Pitch_bend_c, 5, 8301
10, 60228, Pitch_bend_c, 5, 8308
10, 60229, Pitch_bend_c, 5, 8314
10, 60230, Pitch_bend_c, 5, 8328
10, 60231, Pitch_bend_c, 5, 8335
10, 60232, Pitch_bend_c, 5, 8349
10, 60233, Pitch_bend_c, 5, 8362
10, 60234, Pitch_bend_c, 5, 8376
10, 60235, Pitch_bend_c, 5, 8383
10, 60236, Pitch_bend_c, 5, 8403
10, 60237, Pitch_bend_c, 5, 8417
10, 60238, Pitch_bend_c, 5, 8430
10, 60239, Pitch_bend_c, 5, 8451
10, 60240, Pitch_bend_c, 5, 8471
10, 60241, Pitch_bend_c, 5, 8492
10, 60242, Pitch_bend_c, 5, 8512
10, 60243, Pitch_bend_c, 5, 8540
10, 60244, Pitch_bend_c, 5, 8560
10, 60245, Pitch_bend_c, 5, 8587
10, 60246, Pitch_bend_c, 5, 8622
10, 60247, Pitch_bend_c, 5, 8656
10, 60248, Pitch_bend_c, 5, 8690
10, 60249, Pitch_bend_c, 5, 8724
10, 60250, Pitch_bend_c, 5, 8765
10, 60251, Pitch_bend_c, 5, 8806
10, 60252, Pitch_bend_c, 5, 8854
10, 60253, Pitch_bend_c, 5, 8901
10, 60254, Pitch_bend_c, 5, 8956
10, 60255, Pitch_bend_c, 5, 9011
10, 60256, Pitch_bend_c, 5, 9072
10, 60257, Pitch_bend_c, 5, 9140
10, 60258, Pitch_bend_c, 5, 9209
10, 60259, Pitch_bend_c, 5, 9284
10, 60260, Pitch_bend_c, 5, 9366
10, 60261, Pitch_bend_c, 5, 9454
10, 60262, Pitch_bend_c, 5, 9550
10, 60263, Pitch_bend_c, 5, 9646
10, 60264, Pitch_bend_c, 5, 9755
10, 60265, Pitch_bend_c, 5, 9871
10, 60266, Pitch_bend_c, 5, 10001
10, 60267, Pitch_bend_c, 5, 10137
10, 60268, Pitch_bend_c, 5, 10280
10, 60269, Pitch_bend_c, 5, 10437
10, 60270, Pitch_bend_c, 5, 10601
10, 60271, Pitch_bend_c, 5, 10786
10, 60272, Pitch_bend_c, 5, 10977
10, 60273, Pitch_bend_c, 5, 11182
10, 60274, Pitch_bend_c, 5, 11407
10, 60275, Pitch_bend_c, 5, 11646
10, 60276, Pitch_bend_c, 5, 11905
10, 60277, Pitch_bend_c, 5, 12178
10, 60278, Pitch_bend_c, 5, 12479
10, 60279, Pitch_bend_c, 5, 12800
10, 60280, Pitch_bend_c, 5, 13141
10, 60281, Pitch_bend_c, 5, 13509
10, 60282, Pitch_bend_c, 5, 13905
10, 60283, Pitch_bend_c, 5, 14336
10, 60284, Pitch_bend_c, 5, 14793
10, 60285, Pitch_bend_c, 5, 15284
10, 60286, Pitch_bend_c, 5, 15817
10, 60287, Pitch_bend_c, 5, 16383
10, 61536, Note_off_c, 5, 53, 64
10, 63396, Control_c, 5, 101, 0
10, 63396, Control_c, 5, 100, 0
10, 63396, Control_c, 5, 6, 12
10, 63396, Control_c, 5, 10, 64
10, 63396, Control_c, 5, 7, 83
10, 63396, Pitch_bend_c, 5, 16383
10, 63396, Program_c, 5, 83
10, 63396, Control_c, 5, 1, 26
10, 63396, Pitch_bend_c, 5, 8192
10, 63397, Control_c, 5, 101, 0
10, 63397, Control_c, 5, 100, 0
10, 63397, Control_c, 5, 6, 12
10, 63397, Control_c, 5, 10, 64
10, 63397, Control_c, 5, 7, 83
10, 63397, Pitch_bend_c, 5, 16383
10, 63397, Program_c, 5, 83
10, 63397, Control_c, 5, 1, 26
10, 63397, End_track
11, 0, Start_track
11, 0, Title_t, "choir"
11, 0, Control_c, 6, 10, 64
11, 0, Control_c, 6, 7, 49
11, 0, Pitch_bend_c, 6, 8192
11, 0, Control_c, 6, 101, 0
11, 0, Control_c, 6, 100, 0
11, 0, Control_c, 6, 6, 12
11, 0, Control_c, 6, 10, 64
11, 0, Control_c, 6, 7, 49
11, 0, Pitch_bend_c, 6, 8192
11, 0, Program_c, 6, 52
11, 0, Control_c, 6, 1, 127
11, 0, Pitch_bend_c, 6, 8192
11, 0, Control_c, 6, 101, 0
11, 0, Control_c, 6, 100, 0
11, 0, Control_c, 6, 6, 12
11, 0, Control_c, 6, 10, 64
11, 0, Control_c, 6, 7, 49
11, 0, Pitch_bend_c, 6, 8192
11, 0, Program_c, 6, 52
11, 0, Control_c, 6, 1, 127
11, 0, Control_c, 6, 101, 0
11, 0, Control_c, 6, 100, 0
11, 0, Control_c, 6, 6, 12
11, 0, Control_c, 6, 10, 64
11, 0, Control_c, 6, 7, 49
11, 0, Pitch_bend_c, 6, 8192
11, 0, Program_c, 6, 52
11, 0, Control_c, 6, 1, 127
11, 15168, Note_on_c, 6, 77, 127
11, 15168, Pitch_bend_c, 6, 8192
11, 15225, Pitch_bend_c, 6, 8192
11, 15240, Pitch_bend_c, 6, 8192
11, 15247, Pitch_bend_c, 6, 8192
11, 15252, Pitch_bend_c, 6, 8198
11, 15255, Pitch_bend_c, 6, 8198
11, 15258, Pitch_bend_c, 6, 8198
11, 15260, Pitch_bend_c, 6, 8198
11, 15262, Pitch_bend_c, 6, 8198
11, 15264, Pitch_bend_c, 6, 8198
11, 15266, Pitch_bend_c, 6, 8198
11, 15267, Pitch_bend_c, 6, 8205
11, 15268, Pitch_bend_c, 6, 8205
11, 15269, Pitch_bend_c, 6, 8205
11, 15270, Pitch_bend_c, 6, 8205
11, 15271, Pitch_bend_c, 6, 8205
11, 15272, Pitch_bend_c, 6, 8205
11, 15273, Pitch_bend_c, 6, 8205
11, 15274, Pitch_bend_c, 6, 8212
11, 15275, Pitch_bend_c, 6, 8212
11, 15276, Pitch_bend_c, 6, 8212
11, 15277, Pitch_bend_c, 6, 8212
11, 15278, Pitch_bend_c, 6, 8219
11, 15279, Pitch_bend_c, 6, 8219
11, 15280, Pitch_bend_c, 6, 8219
11, 15281, Pitch_bend_c, 6, 8219
11, 15282, Pitch_bend_c, 6, 8226
11, 15283, Pitch_bend_c, 6, 8226
11, 15284, Pitch_bend_c, 6, 8226
11, 15285, Pitch_bend_c, 6, 8232
11, 15286, Pitch_bend_c, 6, 8232
11, 15287, Pitch_bend_c, 6, 8239
11, 15288, Pitch_bend_c, 6, 8239
11, 15289, Pitch_bend_c, 6, 8246
11, 15290, Pitch_bend_c, 6, 8246
11, 15291, Pitch_bend_c, 6, 8253
11, 15292, Pitch_bend_c, 6, 8260
11, 15293, Pitch_bend_c, 6, 8260
11, 15294, Pitch_bend_c, 6, 8267
11, 15295, Pitch_bend_c, 6, 8273
11, 15296, Pitch_bend_c, 6, 8280
11, 15297, Pitch_bend_c, 6, 8287
11, 15298, Pitch_bend_c, 6, 8294
11, 15299, Pitch_bend_c, 6, 8301
11, 15300, Pitch_bend_c, 6, 8308
11, 15301, Pitch_bend_c, 6, 8314
11, 15302, Pitch_bend_c, 6, 8328
11, 15303, Pitch_bend_c, 6, 8335
11, 15304, Pitch_bend_c, 6, 8349
11, 15305, Pitch_bend_c, 6, 8362
11, 15306, Pitch_bend_c, 6, 8376
11, 15307, Pitch_bend_c, 6, 8383
11, 15308, Pitch_bend_c, 6, 8403
11, 15309, Pitch_bend_c, 6, 8417
11, 15310, Pitch_bend_c, 6, 8430
11, 15311, Pitch_bend_c, 6, 8451
11, 15312, Pitch_bend_c, 6, 8471
11, 15313, Pitch_bend_c, 6, 8492
11, 15314, Pitch_bend_c, 6, 8512
11, 15315, Pitch_bend_c, 6, 8540
11, 15316, Pitch_bend_c, 6, 8560
11, 15317, Pitch_bend_c, 6, 8587
11, 15318, Pitch_bend_c, 6, 8622
11, 15319, Pitch_bend_c, 6, 8656
11, 15320, Pitch_bend_c, 6, 8690
11, 15321, Pitch_bend_c, 6, 8724
11, 15322, Pitch_bend_c, 6, 8765
11, 15323, Pitch_bend_c, 6, 8806
11, 15324, Pitch_bend_c, 6, 8854
11, 15325, Pitch_bend_c, 6, 8901
11, 15326, Pitch_bend_c, 6, 8956
11, 15327, Pitch_bend_c, 6, 9011
11, 15328, Pitch_bend_c, 6, 9072
11, 15329, Pitch_bend_c, 6, 9140
11, 15330, Pitch_bend_c, 6, 9209
11, 15331, Pitch_bend_c, 6, 9284
11, 15332, Pitch_bend_c, 6, 9366
11, 15333, Pitch_bend_c, 6, 9454
11, 15334, Pitch_bend_c, 6, 9550
11, 15335, Pitch_bend_c, 6, 9646
11, 15336, Pitch_bend_c, 6, 9755
11, 15337, Pitch_bend_c, 6, 9871
11, 15338, Pitch_bend_c, 6, 10001
11, 15339, Pitch_bend_c, 6, 10137
11, 15340, Pitch_bend_c, 6, 10280
11, 15341, Pitch_bend_c, 6, 10437
11, 15342, Pitch_bend_c, 6, 10601
11, 15343, Pitch_bend_c, 6, 10786
11, 15344, Pitch_bend_c, 6, 10977
11, 15345, Pitch_bend_c, 6, 11182
11, 15346, Pitch_bend_c, 6, 11407
11, 15347, Pitch_bend_c, 6, 11646
11, 15348, Pitch_bend_c, 6, 11905
11, 15349, Pitch_bend_c, 6, 12178
11, 15350, Pitch_bend_c, 6, 12479
11, 15351, Pitch_bend_c, 6, 12800
11, 15352, Pitch_bend_c, 6, 13141
11, 15353, Pitch_bend_c, 6, 13509
11, 15354, Pitch_bend_c, 6, 13905
11, 15355, Pitch_bend_c, 6, 14336
11, 15356, Pitch_bend_c, 6, 14793
11, 15357, Pitch_bend_c, 6, 15284
11, 15358, Pitch_bend_c, 6, 15817
11, 15359, Pitch_bend_c, 6, 16383
11, 16608, Note_off_c, 6, 77, 64
11, 16704, Note_on_c, 6, 77, 127
11, 16704, Pitch_bend_c, 6, 8192
11, 16761, Pitch_bend_c, 6, 8192
11, 16776, Pitch_bend_c, 6, 8192
11, 16783, Pitch_bend_c, 6, 8192
11, 16788, Pitch_bend_c, 6, 8198
11, 16791, Pitch_bend_c, 6, 8198
11, 16794, Pitch_bend_c, 6, 8198
11, 16796, Pitch_bend_c, 6, 8198
11, 16798, Pitch_bend_c, 6, 8198
11, 16800, Pitch_bend_c, 6, 8198
11, 16802, Pitch_bend_c, 6, 8198
11, 16803, Pitch_bend_c, 6, 8205
11, 16804, Pitch_bend_c, 6, 8205
11, 16805, Pitch_bend_c, 6, 8205
11, 16806, Pitch_bend_c, 6, 8205
11, 16807, Pitch_bend_c, 6, 8205
11, 16808, Pitch_bend_c, 6, 8205
11, 16809, Pitch_bend_c, 6, 8205
11, 16810, Pitch_bend_c, 6, 8212
11, 16811, Pitch_bend_c, 6, 8212
11, 16812, Pitch_bend_c, 6, 8212
11, 16813, Pitch_bend_c, 6, 8212
11, 16814, Pitch_bend_c, 6, 8219
11, 16815, Pitch_bend_c, 6, 8219
11, 16816, Pitch_bend_c, 6, 8219
11, 16817, Pitch_bend_c, 6, 8219
11, 16818, Pitch_bend_c, 6, 8226
11, 16819, Pitch_bend_c, 6, 8226
11, 16820, Pitch_bend_c, 6, 8226
11, 16821, Pitch_bend_c, 6, 8232
11, 16822, Pitch_bend_c, 6, 8232
11, 16823, Pitch_bend_c, 6, 8239
11, 16824, Pitch_bend_c, 6, 8239
11, 16825, Pitch_bend_c, 6, 8246
11, 16826, Pitch_bend_c, 6, 8246
11, 16827, Pitch_bend_c, 6, 8253
11, 16828, Pitch_bend_c, 6, 8260
11, 16829, Pitch_bend_c, 6, 8260
11, 16830, Pitch_bend_c, 6, 8267
11, 16831, Pitch_bend_c, 6, 8273
11, 16832, Pitch_bend_c, 6, 8280
11, 16833, Pitch_bend_c, 6, 8287
11, 16834, Pitch_bend_c, 6, 8294
11, 16835, Pitch_bend_c, 6, 8301
11, 16836, Pitch_bend_c, 6, 8308
11, 16837, Pitch_bend_c, 6, 8314
11, 16838, Pitch_bend_c, 6, 8328
11, 16839, Pitch_bend_c, 6, 8335
11, 16840, Pitch_bend_c, 6, 8349
11, 16841, Pitch_bend_c, 6, 8362
11, 16842, Pitch_bend_c, 6, 8376
11, 16843, Pitch_bend_c, 6, 8383
11, 16844, Pitch_bend_c, 6, 8403
11, 16845, Pitch_bend_c, 6, 8417
11, 16846, Pitch_bend_c, 6, 8430
11, 16847, Pitch_bend_c, 6, 8451
11, 16848, Pitch_bend_c, 6, 8471
11, 16849, Pitch_bend_c, 6, 8492
11, 16850, Pitch_bend_c, 6, 8512
11, 16851, Pitch_bend_c, 6, 8540
11, 16852, Pitch_bend_c, 6, 8560
11, 16853, Pitch_bend_c, 6, 8587
11, 16854, Pitch_bend_c, 6, 8622
11, 16855, Pitch_bend_c, 6, 8656
11, 16856, Pitch_bend_c, 6, 8690
11, 16857, Pitch_bend_c, 6, 8724
11, 16858, Pitch_bend_c, 6, 8765
11, 16859, Pitch_bend_c, 6, 8806
11, 16860, Pitch_bend_c, 6, 8854
11, 16861, Pitch_bend_c, 6, 8901
11, 16862, Pitch_bend_c, 6, 8956
11, 16863, Pitch_bend_c, 6, 9011
11, 16864, Pitch_bend_c, 6, 9072
11, 16865, Pitch_bend_c, 6, 9140
11, 16866, Pitch_bend_c, 6, 9209
11, 16867, Pitch_bend_c, 6, 9284
11, 16868, Pitch_bend_c, 6, 9366
11, 16869, Pitch_bend_c, 6, 9454
11, 16870, Pitch_bend_c, 6, 9550
11, 16871, Pitch_bend_c, 6, 9646
11, 16872, Pitch_bend_c, 6, 9755
11, 16873, Pitch_bend_c, 6, 9871
11, 16874, Pitch_bend_c, 6, 10001
11, 16875, Pitch_bend_c, 6, 10137
11, 16876, Pitch_bend_c, 6, 10280
11, 16877, Pitch_bend_c, 6, 10437
11, 16878, Pitch_bend_c, 6, 10601
11, 16879, Pitch_bend_c, 6, 10786
11, 16880, Pitch_bend_c, 6, 10977
11, 16881, Pitch_bend_c, 6, 11182
11, 16882, Pitch_bend_c, 6, 11407
11, 16883, Pitch_bend_c, 6, 11646
11, 16884, Pitch_bend_c, 6, 11905
11, 16885, Pitch_bend_c, 6, 12178
11, 16886, Pitch_bend_c, 6, 12479
11, 16887, Pitch_bend_c, 6, 12800
11, 16888, Pitch_bend_c, 6, 13141
11, 16889, Pitch_bend_c, 6, 13509
11, 16890, Pitch_bend_c, 6, 13905
11, 16891, Pitch_bend_c, 6, 14336
11, 16892, Pitch_bend_c, 6, 14793
11, 16893, Pitch_bend_c, 6, 15284
11, 16894, Pitch_bend_c, 6, 15817
11, 16895, Pitch_bend_c, 6, 16383
11, 18144, Note_off_c, 6, 77, 64
11, 30528, Note_on_c, 6, 77, 127
11, 30528, Pitch_bend_c, 6, 8192
11, 30585, Pitch_bend_c, 6, 8192
11, 30600, Pitch_bend_c, 6, 8192
11, 30607, Pitch_bend_c, 6, 8192
11, 30612, Pitch_bend_c, 6, 8198
11, 30615, Pitch_bend_c, 6, 8198
11, 30618, Pitch_bend_c, 6, 8198
11, 30620, Pitch_bend_c, 6, 8198
11, 30622, Pitch_bend_c, 6, 8198
11, 30624, Pitch_bend_c, 6, 8198
11, 30626, Pitch_bend_c, 6, 8198
11, 30627, Pitch_bend_c, 6, 8205
11, 30628, Pitch_bend_c, 6, 8205
11, 30629, Pitch_bend_c, 6, 8205
11, 30630, Pitch_bend_c, 6, 8205
11, 30631, Pitch_bend_c, 6, 8205
11, 30632, Pitch_bend_c, 6, 8205
11, 30633, Pitch_bend_c, 6, 8205
11, 30634, Pitch_bend_c, 6, 8212
11, 30635, Pitch_bend_c, 6, 8212
11, 30636, Pitch_bend_c, 6, 8212
11, 30637, Pitch_bend_c, 6, 8212
11, 30638, Pitch_bend_c, 6, 8219
11, 30639, Pitch_bend_c, 6, 8219
11, 30640, Pitch_bend_c, 6, 8219
11, 30641, Pitch_bend_c, 6, 8219
11, 30642, Pitch_bend_c, 6, 8226
11, 30643, Pitch_bend_c, 6, 8226
11, 30644, Pitch_bend_c, 6, 8226
11, 30645, Pitch_bend_c, 6, 8232
11, 30646, Pitch_bend_c, 6, 8232
11, 30647, Pitch_bend_c, 6, 8239
11, 30648, Pitch_bend_c, 6, 8239
11, 30649, Pitch_bend_c, 6, 8246
11, 30650, Pitch_bend_c, 6, 8246
11, 30651, Pitch_bend_c, 6, 8253
11, 30652, Pitch_bend_c, 6, 8260
11, 30653, Pitch_bend_c, 6, 8260
11, 30654, Pitch_bend_c, 6, 8267
11, 30655, Pitch_bend_c, 6, 8273
11, 30656, Pitch_bend_c, 6, 8280
11, 30657, Pitch_bend_c, 6, 8287
11, 30658, Pitch_bend_c, 6, 8294
11, 30659, Pitch_bend_c, 6, 8301
11, 30660, Pitch_bend_c, 6, 8308
11, 30661, Pitch_bend_c, 6, 8314
11, 30662, Pitch_bend_c, 6, 8328
11, 30663, Pitch_bend_c, 6, 8335
11, 30664, Pitch_bend_c, 6, 8349
11, 30665, Pitch_bend_c, 6, 8362
11, 30666, Pitch_bend_c, 6, 8376
11, 30667, Pitch_bend_c, 6, 8383
11, 30668, Pitch_bend_c, 6, 8403
11, 30669, Pitch_bend_c, 6, 8417
11, 30670, Pitch_bend_c, 6, 8430
11, 30671, Pitch_bend_c, 6, 8451
11, 30672, Pitch_bend_c, 6, 8471
11, 30673, Pitch_bend_c, 6, 8492
11, 30674, Pitch_bend_c, 6, 8512
11, 30675, Pitch_bend_c, 6, 8540
11, 30676, Pitch_bend_c, 6, 8560
11, 30677, Pitch_bend_c, 6, 8587
11, 30678, Pitch_bend_c, 6, 8622
11, 30679, Pitch_bend_c, 6, 8656
11, 30680, Pitch_bend_c, 6, 8690
11, 30681, Pitch_bend_c, 6, 8724
11, 30682, Pitch_bend_c, 6, 8765
11, 30683, Pitch_bend_c, 6, 8806
11, 30684, Pitch_bend_c, 6, 8854
11, 30685, Pitch_bend_c, 6, 8901
11, 30686, Pitch_bend_c, 6, 8956
11, 30687, Pitch_bend_c, 6, 9011
11, 30688, Pitch_bend_c, 6, 9072
11, 30689, Pitch_bend_c, 6, 9140
11, 30690, Pitch_bend_c, 6, 9209
11, 30691, Pitch_bend_c, 6, 9284
11, 30692, Pitch_bend_c, 6, 9366
11, 30693, Pitch_bend_c, 6, 9454
11, 30694, Pitch_bend_c, 6, 9550
11, 30695, Pitch_bend_c, 6, 9646
11, 30696, Pitch_bend_c, 6, 9755
11, 30697, Pitch_bend_c, 6, 9871
11, 30698, Pitch_bend_c, 6, 10001
11, 30699, Pitch_bend_c, 6, 10137
11, 30700, Pitch_bend_c, 6, 10280
11, 30701, Pitch_bend_c, 6, 10437
11, 30702, Pitch_bend_c, 6, 10601
11, 30703, Pitch_bend_c, 6, 10786
11, 30704, Pitch_bend_c, 6, 10977
11, 30705, Pitch_bend_c, 6, 11182
11, 30706, Pitch_bend_c, 6, 11407
11, 30707, Pitch_bend_c, 6, 11646
11, 30708, Pitch_bend_c, 6, 11905
11, 30709, Pitch_bend_c, 6, 12178
11, 30710, Pitch_bend_c, 6, 12479
11, 30711, Pitch_bend_c, 6, 12800
11, 30712, Pitch_bend_c, 6, 13141
11, 30713, Pitch_bend_c, 6, 13509
11, 30714, Pitch_bend_c, 6, 13905
11, 30715, Pitch_bend_c, 6, 14336
11, 30716, Pitch_bend_c, 6, 14793
11, 30717, Pitch_bend_c, 6, 15284
11, 30718, Pitch_bend_c, 6, 15817
11, 30719, Pitch_bend_c, 6, 16383
11, 31968, Note_off_c, 6, 77, 64
11, 32064, Note_on_c, 6, 77, 127
11, 32064, Pitch_bend_c, 6, 8192
11, 32121, Pitch_bend_c, 6, 8192
11, 32136, Pitch_bend_c, 6, 8192
11, 32143, Pitch_bend_c, 6, 8192
11, 32148, Pitch_bend_c, 6, 8198
11, 32151, Pitch_bend_c, 6, 8198
11, 32154, Pitch_bend_c, 6, 8198
11, 32156, Pitch_bend_c, 6, 8198
11, 32158, Pitch_bend_c, 6, 8198
11, 32160, Pitch_bend_c, 6, 8198
11, 32162, Pitch_bend_c, 6, 8198
11, 32163, Pitch_bend_c, 6, 8205
11, 32164, Pitch_bend_c, 6, 8205
11, 32165, Pitch_bend_c, 6, 8205
11, 32166, Pitch_bend_c, 6, 8205
11, 32167, Pitch_bend_c, 6, 8205
11, 32168, Pitch_bend_c, 6, 8205
11, 32169, Pitch_bend_c, 6, 8205
11, 32170, Pitch_bend_c, 6, 8212
11, 32171, Pitch_bend_c, 6, 8212
11, 32172, Pitch_bend_c, 6, 8212
11, 32173, Pitch_bend_c, 6, 8212
11, 32174, Pitch_bend_c, 6, 8219
11, 32175, Pitch_bend_c, 6, 8219
11, 32176, Pitch_bend_c, 6, 8219
11, 32177, Pitch_bend_c, 6, 8219
11, 32178, Pitch_bend_c, 6, 8226
11, 32179, Pitch_bend_c, 6, 8226
11, 32180, Pitch_bend_c, 6, 8226
11, 32181, Pitch_bend_c, 6, 8232
11, 32182, Pitch_bend_c, 6, 8232
11, 32183, Pitch_bend_c, 6, 8239
11, 32184, Pitch_bend_c, 6, 8239
11, 32185, Pitch_bend_c, 6, 8246
11, 32186, Pitch_bend_c, 6, 8246
11, 32187, Pitch_bend_c, 6, 8253
11, 32188, Pitch_bend_c, 6, 8260
11, 32189, Pitch_bend_c, 6, 8260
11, 32190, Pitch_bend_c, 6, 8267
11, 32191, Pitch_bend_c, 6, 8273
11, 32192, Pitch_bend_c, 6, 8280
11, 32193, Pitch_bend_c, 6, 8287
11, 32194, Pitch_bend_c, 6, 8294
11, 32195, Pitch_bend_c, 6, 8301
11, 32196, Pitch_bend_c, 6, 8308
11, 32197, Pitch_bend_c, 6, 8314
11, 32198, Pitch_bend_c, 6, 8328
11, 32199, Pitch_bend_c, 6, 8335
11, 32200, Pitch_bend_c, 6, 8349
11, 32201, Pitch_bend_c, 6, 8362
11, 32202, Pitch_bend_c, 6, 8376
11, 32203, Pitch_bend_c, 6, 8383
11, 32204, Pitch_bend_c, 6, 8403
11, 32205, Pitch_bend_c, 6, 8417
11, 32206, Pitch_bend_c, 6, 8430
11, 32207, Pitch_bend_c, 6, 8451
11, 32208, Pitch_bend_c, 6, 8471
11, 32209, Pitch_bend_c, 6, 8492
11, 32210, Pitch_bend_c, 6, 8512
11, 32211, Pitch_bend_c, 6, 8540
11, 32212, Pitch_bend_c, 6, 8560
11, 32213, Pitch_bend_c, 6, 8587
11, 32214, Pitch_bend_c, 6, 8622
11, 32215, Pitch_bend_c, 6, 8656
11, 32216, Pitch_bend_c, 6, 8690
11, 32217, Pitch_bend_c, 6, 8724
11, 32218, Pitch_bend_c, 6, 8765
11, 32219, Pitch_bend_c, 6, 8806
11, 32220, Pitch_bend_c, 6, 8854
11, 32221, Pitch_bend_c, 6, 8901
11, 32222, Pitch_bend_c, 6, 8956
11, 32223, Pitch_bend_c, 6, 9011
11, 32224, Pitch_bend_c, 6, 9072
11, 32225, Pitch_bend_c, 6, 9140
11, 32226, Pitch_bend_c, 6, 9209
11, 32227, Pitch_bend_c, 6, 9284
11, 32228, Pitch_bend_c, 6, 9366
11, 32229, Pitch_bend_c, 6, 9454
11, 32230, Pitch_bend_c, 6, 9550
11, 32231, Pitch_bend_c, 6, 9646
11, 32232, Pitch_bend_c, 6, 9755
11, 32233, Pitch_bend_c, 6, 9871
11, 32234, Pitch_bend_c, 6, 10001
11, 32235, Pitch_bend_c, 6, 10137
11, 32236, Pitch_bend_c, 6, 10280
11, 32237, Pitch_bend_c, 6, 10437
11, 32238, Pitch_bend_c, 6, 10601
11, 32239, Pitch_bend_c, 6, 10786
11, 32240, Pitch_bend_c, 6, 10977
11, 32241, Pitch_bend_c, 6, 11182
11, 32242, Pitch_bend_c, 6, 11407
11, 32243, Pitch_bend_c, 6, 11646
11, 32244, Pitch_bend_c, 6, 11905
11, 32245, Pitch_bend_c, 6, 12178
11, 32246, Pitch_bend_c, 6, 12479
11, 32247, Pitch_bend_c, 6, 12800
11, 32248, Pitch_bend_c, 6, 13141
11, 32249, Pitch_bend_c, 6, 13509
11, 32250, Pitch_bend_c, 6, 13905
11, 32251, Pitch_bend_c, 6, 14336
11, 32252, Pitch_bend_c, 6, 14793
11, 32253, Pitch_bend_c, 6, 15284
11, 32254, Pitch_bend_c, 6, 15817
11, 32255, Pitch_bend_c, 6, 16383
11, 33504, Note_off_c, 6, 77, 64
11, 33600, Note_on_c, 6, 77, 127
11, 33600, Pitch_bend_c, 6, 8192
11, 33657, Pitch_bend_c, 6, 8192
11, 33672, Pitch_bend_c, 6, 8192
11, 33679, Pitch_bend_c, 6, 8192
11, 33684, Pitch_bend_c, 6, 8198
11, 33687, Pitch_bend_c, 6, 8198
11, 33690, Pitch_bend_c, 6, 8198
11, 33692, Pitch_bend_c, 6, 8198
11, 33694, Pitch_bend_c, 6, 8198
11, 33696, Pitch_bend_c, 6, 8198
11, 33698, Pitch_bend_c, 6, 8198
11, 33699, Pitch_bend_c, 6, 8205
11, 33700, Pitch_bend_c, 6, 8205
11, 33701, Pitch_bend_c, 6, 8205
11, 33702, Pitch_bend_c, 6, 8205
11, 33703, Pitch_bend_c, 6, 8205
11, 33704, Pitch_bend_c, 6, 8205
11, 33705, Pitch_bend_c, 6, 8205
11, 33706, Pitch_bend_c, 6, 8212
11, 33707, Pitch_bend_c, 6, 8212
11, 33708, Pitch_bend_c, 6, 8212
11, 33709, Pitch_bend_c, 6, 8212
11, 33710, Pitch_bend_c, 6, 8219
11, 33711, Pitch_bend_c, 6, 8219
11, 33712, Pitch_bend_c, 6, 8219
11, 33713, Pitch_bend_c, 6, 8219
11, 33714, Pitch_bend_c, 6, 8226
11, 33715, Pitch_bend_c, 6, 8226
11, 33716, Pitch_bend_c, 6, 8226
11, 33717, Pitch_bend_c, 6, 8232
11, 33718, Pitch_bend_c, 6, 8232
11, 33719, Pitch_bend_c, 6, 8239
11, 33720, Pitch_bend_c, 6, 8239
11, 33721, Pitch_bend_c, 6, 8246
11, 33722, Pitch_bend_c, 6, 8246
11, 33723, Pitch_bend_c, 6, 8253
11, 33724, Pitch_bend_c, 6, 8260
11, 33725, Pitch_bend_c, 6, 8260
11, 33726, Pitch_bend_c, 6, 8267
11, 33727, Pitch_bend_c, 6, 8273
11, 33728, Pitch_bend_c, 6, 8280
11, 33729, Pitch_bend_c, 6, 8287
11, 33730, Pitch_bend_c, 6, 8294
11, 33731, Pitch_bend_c, 6, 8301
11, 33732, Pitch_bend_c, 6, 8308
11, 33733, Pitch_bend_c, 6, 8314
11, 33734, Pitch_bend_c, 6, 8328
11, 33735, Pitch_bend_c, 6, 8335
11, 33736, Pitch_bend_c, 6, 8349
11, 33737, Pitch_bend_c, 6, 8362
11, 33738, Pitch_bend_c, 6, 8376
11, 33739, Pitch_bend_c, 6, 8383
11, 33740, Pitch_bend_c, 6, 8403
11, 33741, Pitch_bend_c, 6, 8417
11, 33742, Pitch_bend_c, 6, 8430
11, 33743, Pitch_bend_c, 6, 8451
11, 33744, Pitch_bend_c, 6, 8471
11, 33745, Pitch_bend_c, 6, 8492
11, 33746, Pitch_bend_c, 6, 8512
11, 33747, Pitch_bend_c, 6, 8540
11, 33748, Pitch_bend_c, 6, 8560
11, 33749, Pitch_bend_c, 6, 8587
11, 33750, Pitch_bend_c, 6, 8622
11, 33751, Pitch_bend_c, 6, 8656
11, 33752, Pitch_bend_c, 6, 8690
11, 33753, Pitch_bend_c, 6, 8724
11, 33754, Pitch_bend_c, 6, 8765
11, 33755, Pitch_bend_c, 6, 8806
11, 33756, Pitch_bend_c, 6, 8854
11, 33757, Pitch_bend_c, 6, 8901
11, 33758, Pitch_bend_c, 6, 8956
11, 33759, Pitch_bend_c, 6, 9011
11, 33760, Pitch_bend_c, 6, 9072
11, 33761, Pitch_bend_c, 6, 9140
11, 33762, Pitch_bend_c, 6, 9209
11, 33763, Pitch_bend_c, 6, 9284
11, 33764, Pitch_bend_c, 6, 9366
11, 33765, Pitch_bend_c, 6, 9454
11, 33766, Pitch_bend_c, 6, 9550
11, 33767, Pitch_bend_c, 6, 9646
11, 33768, Pitch_bend_c, 6, 9755
11, 33769, Pitch_bend_c, 6, 9871
11, 33770, Pitch_bend_c, 6, 10001
11, 33771, Pitch_bend_c, 6, 10137
11, 33772, Pitch_bend_c, 6, 10280
11, 33773, Pitch_bend_c, 6, 10437
11, 33774, Pitch_bend_c, 6, 10601
11, 33775, Pitch_bend_c, 6, 10786
11, 33776, Pitch_bend_c, 6, 10977
11, 33777, Pitch_bend_c, 6, 11182
11, 33778, Pitch_bend_c, 6, 11407
11, 33779, Pitch_bend_c, 6, 11646
11, 33780, Pitch_bend_c, 6, 11905
11, 33781, Pitch_bend_c, 6, 12178
11, 33782, Pitch_bend_c, 6, 12479
11, 33783, Pitch_bend_c, 6, 12800
11, 33784, Pitch_bend_c, 6, 13141
11, 33785, Pitch_bend_c, 6, 13509
11, 33786, Pitch_bend_c, 6, 13905
11, 33787, Pitch_bend_c, 6, 14336
11, 33788, Pitch_bend_c, 6, 14793
11, 33789, Pitch_bend_c, 6, 15284
11, 33790, Pitch_bend_c, 6, 15817
11, 33791, Pitch_bend_c, 6, 16383
11, 35040, Note_off_c, 6, 77, 64
11, 35136, Note_on_c, 6, 77, 127
11, 35136, Pitch_bend_c, 6, 8192
11, 35193, Pitch_bend_c, 6, 8192
11, 35208, Pitch_bend_c, 6, 8192
11, 35215, Pitch_bend_c, 6, 8192
11, 35220, Pitch_bend_c, 6, 8198
11, 35223, Pitch_bend_c, 6, 8198
11, 35226, Pitch_bend_c, 6, 8198
11, 35228, Pitch_bend_c, 6, 8198
11, 35230, Pitch_bend_c, 6, 8198
11, 35232, Pitch_bend_c, 6, 8198
11, 35234, Pitch_bend_c, 6, 8198
11, 35235, Pitch_bend_c, 6, 8205
11, 35236, Pitch_bend_c, 6, 8205
11, 35237, Pitch_bend_c, 6, 8205
11, 35238, Pitch_bend_c, 6, 8205
11, 35239, Pitch_bend_c, 6, 8205
11, 35240, Pitch_bend_c, 6, 8205
11, 35241, Pitch_bend_c, 6, 8205
11, 35242, Pitch_bend_c, 6, 8212
11, 35243, Pitch_bend_c, 6, 8212
11, 35244, Pitch_bend_c, 6, 8212
11, 35245, Pitch_bend_c, 6, 8212
11, 35246, Pitch_bend_c, 6, 8219
11, 35247, Pitch_bend_c, 6, 8219
11, 35248, Pitch_bend_c, 6, 8219
11, 35249, Pitch_bend_c, 6, 8219
11, 35250, Pitch_bend_c, 6, 8226
11, 35251, Pitch_bend_c, 6, 8226
11, 35252, Pitch_bend_c, 6, 8226
11, 35253, Pitch_bend_c, 6, 8232
11, 35254, Pitch_bend_c, 6, 8232
11, 35255, Pitch_bend_c, 6, 8239
11, 35256, Pitch_bend_c, 6, 8239
11, 35257, Pitch_bend_c, 6, 8246
11, 35258, Pitch_bend_c, 6, 8246
11, 35259, Pitch_bend_c, 6, 8253
11, 35260, Pitch_bend_c, 6, 8260
11, 35261, Pitch_bend_c, 6, 8260
11, 35262, Pitch_bend_c, 6, 8267
11, 35263, Pitch_bend_c, 6, 8273
11, 35264, Pitch_bend_c, 6, 8280
11, 35265, Pitch_bend_c, 6, 8287
11, 35266, Pitch_bend_c, 6, 8294
11, 35267, Pitch_bend_c, 6, 8301
11, 35268, Pitch_bend_c, 6, 8308
11, 35269, Pitch_bend_c, 6, 8314
11, 35270, Pitch_bend_c, 6, 8328
11, 35271, Pitch_bend_c, 6, 8335
11, 35272, Pitch_bend_c, 6, 8349
11, 35273, Pitch_bend_c, 6, 8362
11, 35274, Pitch_bend_c, 6, 8376
11, 35275, Pitch_bend_c, 6, 8383
11, 35276, Pitch_bend_c, 6, 8403
11, 35277, Pitch_bend_c, 6, 8417
11, 35278, Pitch_bend_c, 6, 8430
11, 35279, Pitch_bend_c, 6, 8451
11, 35280, Pitch_bend_c, 6, 8471
11, 35281, Pitch_bend_c, 6, 8492
11, 35282, Pitch_bend_c, 6, 8512
11, 35283, Pitch_bend_c, 6, 8540
11, 35284, Pitch_bend_c, 6, 8560
11, 35285, Pitch_bend_c, 6, 8587
11, 35286, Pitch_bend_c, 6, 8622
11, 35287, Pitch_bend_c, 6, 8656
11, 35288, Pitch_bend_c, 6, 8690
11, 35289, Pitch_bend_c, 6, 8724
11, 35290, Pitch_bend_c, 6, 8765
11, 35291, Pitch_bend_c, 6, 8806
11, 35292, Pitch_bend_c, 6, 8854
11, 35293, Pitch_bend_c, 6, 8901
11, 35294, Pitch_bend_c, 6, 8956
11, 35295, Pitch_bend_c, 6, 9011
11, 35296, Pitch_bend_c, 6, 9072
11, 35297, Pitch_bend_c, 6, 9140
11, 35298, Pitch_bend_c, 6, 9209
11, 35299, Pitch_bend_c, 6, 9284
11, 35300, Pitch_bend_c, 6, 9366
11, 35301, Pitch_bend_c, 6, 9454
11, 35302, Pitch_bend_c, 6, 9550
11, 35303, Pitch_bend_c, 6, 9646
11, 35304, Pitch_bend_c, 6, 9755
11, 35305, Pitch_bend_c, 6, 9871
11, 35306, Pitch_bend_c, 6, 10001
11, 35307, Pitch_bend_c, 6, 10137
11, 35308, Pitch_bend_c, 6, 10280
11, 35309, Pitch_bend_c, 6, 10437
11, 35310, Pitch_bend_c, 6, 10601
11, 35311, Pitch_bend_c, 6, 10786
11, 35312, Pitch_bend_c, 6, 10977
11, 35313, Pitch_bend_c, 6, 11182
11, 35314, Pitch_bend_c, 6, 11407
11, 35315, Pitch_bend_c, 6, 11646
11, 35316, Pitch_bend_c, 6, 11905
11, 35317, Pitch_bend_c, 6, 12178
11, 35318, Pitch_bend_c, 6, 12479
11, 35319, Pitch_bend_c, 6, 12800
11, 35320, Pitch_bend_c, 6, 13141
11, 35321, Pitch_bend_c, 6, 13509
11, 35322, Pitch_bend_c, 6, 13905
11, 35323, Pitch_bend_c, 6, 14336
11, 35324, Pitch_bend_c, 6, 14793
11, 35325, Pitch_bend_c, 6, 15284
11, 35326, Pitch_bend_c, 6, 15817
11, 35327, Pitch_bend_c, 6, 16383
11, 36576, Note_off_c, 6, 77, 64
11, 55488, Note_on_c, 6, 77, 127
11, 55488, Pitch_bend_c, 6, 8192
11, 55545, Pitch_bend_c, 6, 8192
11, 55560, Pitch_bend_c, 6, 8192
11, 55567, Pitch_bend_c, 6, 8192
11, 55572, Pitch_bend_c, 6, 8198
11, 55575, Pitch_bend_c, 6, 8198
11, 55578, Pitch_bend_c, 6, 8198
11, 55580, Pitch_bend_c, 6, 8198
11, 55582, Pitch_bend_c, 6, 8198
11, 55584, Pitch_bend_c, 6, 8198
11, 55586, Pitch_bend_c, 6, 8198
11, 55587, Pitch_bend_c, 6, 8205
11, 55588, Pitch_bend_c, 6, 8205
11, 55589, Pitch_bend_c, 6, 8205
11, 55590, Pitch_bend_c, 6, 8205
11, 55591, Pitch_bend_c, 6, 8205
11, 55592, Pitch_bend_c, 6, 8205
11, 55593, Pitch_bend_c, 6, 8205
11, 55594, Pitch_bend_c, 6, 8212
11, 55595, Pitch_bend_c, 6, 8212
11, 55596, Pitch_bend_c, 6, 8212
11, 55597, Pitch_bend_c, 6, 8212
11, 55598, Pitch_bend_c, 6, 8219
11, 55599, Pitch_bend_c, 6, 8219
11, 55600, Pitch_bend_c, 6, 8219
11, 55601, Pitch_bend_c, 6, 8219
11, 55602, Pitch_bend_c, 6, 8226
11, 55603, Pitch_bend_c, 6, 8226
11, 55604, Pitch_bend_c, 6, 8226
11, 55605, Pitch_bend_c, 6, 8232
11, 55606, Pitch_bend_c, 6, 8232
11, 55607, Pitch_bend_c, 6, 8239
11, 55608, Pitch_bend_c, 6, 8239
11, 55609, Pitch_bend_c, 6, 8246
11, 55610, Pitch_bend_c, 6, 8246
11, 55611, Pitch_bend_c, 6, 8253
11, 55612, Pitch_bend_c, 6, 8260
11, 55613, Pitch_bend_c, 6, 8260
11, 55614, Pitch_bend_c, 6, 8267
11, 55615, Pitch_bend_c, 6, 8273
11, 55616, Pitch_bend_c, 6, 8280
11, 55617, Pitch_bend_c, 6, 8287
11, 55618, Pitch_bend_c, 6, 8294
11, 55619, Pitch_bend_c, 6, 8301
11, 55620, Pitch_bend_c, 6, 8308
11, 55621, Pitch_bend_c, 6, 8314
11, 55622, Pitch_bend_c, 6, 8328
11, 55623, Pitch_bend_c, 6, 8335
11, 55624, Pitch_bend_c, 6, 8349
11, 55625, Pitch_bend_c, 6, 8362
11, 55626, Pitch_bend_c, 6, 8376
11, 55627, Pitch_bend_c, 6, 8383
11, 55628, Pitch_bend_c, 6, 8403
11, 55629, Pitch_bend_c, 6, 8417
11, 55630, Pitch_bend_c, 6, 8430
11, 55631, Pitch_bend_c, 6, 8451
11, 55632, Pitch_bend_c, 6, 8471
11, 55633, Pitch_bend_c, 6, 8492
11, 55634, Pitch_bend_c, 6, 8512
11, 55635, Pitch_bend_c, 6, 8540
11, 55636, Pitch_bend_c, 6, 8560
11, 55637, Pitch_bend_c, 6, 8587
11, 55638, Pitch_bend_c, 6, 8622
11, 55639, Pitch_bend_c, 6, 8656
11, 55640, Pitch_bend_c, 6, 8690
11, 55641, Pitch_bend_c, 6, 8724
11, 55642, Pitch_bend_c, 6, 8765
11, 55643, Pitch_bend_c, 6, 8806
11, 55644, Pitch_bend_c, 6, 8854
11, 55645, Pitch_bend_c, 6, 8901
11, 55646, Pitch_bend_c, 6, 8956
11, 55647, Pitch_bend_c, 6, 9011
11, 55648, Pitch_bend_c, 6, 9072
11, 55649, Pitch_bend_c, 6, 9140
11, 55650, Pitch_bend_c, 6, 9209
11, 55651, Pitch_bend_c, 6, 9284
11, 55652, Pitch_bend_c, 6, 9366
11, 55653, Pitch_bend_c, 6, 9454
11, 55654, Pitch_bend_c, 6, 9550
11, 55655, Pitch_bend_c, 6, 9646
11, 55656, Pitch_bend_c, 6, 9755
11, 55657, Pitch_bend_c, 6, 9871
11, 55658, Pitch_bend_c, 6, 10001
11, 55659, Pitch_bend_c, 6, 10137
11, 55660, Pitch_bend_c, 6, 10280
11, 55661, Pitch_bend_c, 6, 10437
11, 55662, Pitch_bend_c, 6, 10601
11, 55663, Pitch_bend_c, 6, 10786
11, 55664, Pitch_bend_c, 6, 10977
11, 55665, Pitch_bend_c, 6, 11182
11, 55666, Pitch_bend_c, 6, 11407
11, 55667, Pitch_bend_c, 6, 11646
11, 55668, Pitch_bend_c, 6, 11905
11, 55669, Pitch_bend_c, 6, 12178
11, 55670, Pitch_bend_c, 6, 12479
11, 55671, Pitch_bend_c, 6, 12800
11, 55672, Pitch_bend_c, 6, 13141
11, 55673, Pitch_bend_c, 6, 13509
11, 55674, Pitch_bend_c, 6, 13905
11, 55675, Pitch_bend_c, 6, 14336
11, 55676, Pitch_bend_c, 6, 14793
11, 55677, Pitch_bend_c, 6, 15284
11, 55678, Pitch_bend_c, 6, 15817
11, 55679, Pitch_bend_c, 6, 16383
11, 56928, Note_off_c, 6, 77, 64
11, 57024, Note_on_c, 6, 77, 127
11, 57024, Pitch_bend_c, 6, 8192
11, 57081, Pitch_bend_c, 6, 8192
11, 57096, Pitch_bend_c, 6, 8192
11, 57103, Pitch_bend_c, 6, 8192
11, 57108, Pitch_bend_c, 6, 8198
11, 57111, Pitch_bend_c, 6, 8198
11, 57114, Pitch_bend_c, 6, 8198
11, 57116, Pitch_bend_c, 6, 8198
11, 57118, Pitch_bend_c, 6, 8198
11, 57120, Pitch_bend_c, 6, 8198
11, 57122, Pitch_bend_c, 6, 8198
11, 57123, Pitch_bend_c, 6, 8205
11, 57124, Pitch_bend_c, 6, 8205
11, 57125, Pitch_bend_c, 6, 8205
11, 57126, Pitch_bend_c, 6, 8205
11, 57127, Pitch_bend_c, 6, 8205
11, 57128, Pitch_bend_c, 6, 8205
11, 57129, Pitch_bend_c, 6, 8205
11, 57130, Pitch_bend_c, 6, 8212
11, 57131, Pitch_bend_c, 6, 8212
11, 57132, Pitch_bend_c, 6, 8212
11, 57133, Pitch_bend_c, 6, 8212
11, 57134, Pitch_bend_c, 6, 8219
11, 57135, Pitch_bend_c, 6, 8219
11, 57136, Pitch_bend_c, 6, 8219
11, 57137, Pitch_bend_c, 6, 8219
11, 57138, Pitch_bend_c, 6, 8226
11, 57139, Pitch_bend_c, 6, 8226
11, 57140, Pitch_bend_c, 6, 8226
11, 57141, Pitch_bend_c, 6, 8232
11, 57142, Pitch_bend_c, 6, 8232
11, 57143, Pitch_bend_c, 6, 8239
11, 57144, Pitch_bend_c, 6, 8239
11, 57145, Pitch_bend_c, 6, 8246
11, 57146, Pitch_bend_c, 6, 8246
11, 57147, Pitch_bend_c, 6, 8253
11, 57148, Pitch_bend_c, 6, 8260
11, 57149, Pitch_bend_c, 6, 8260
11, 57150, Pitch_bend_c, 6, 8267
11, 57151, Pitch_bend_c, 6, 8273
11, 57152, Pitch_bend_c, 6, 8280
11, 57153, Pitch_bend_c, 6, 8287
11, 57154, Pitch_bend_c, 6, 8294
11, 57155, Pitch_bend_c, 6, 8301
11, 57156, Pitch_bend_c, 6, 8308
11, 57157, Pitch_bend_c, 6, 8314
11, 57158, Pitch_bend_c, 6, 8328
11, 57159, Pitch_bend_c, 6, 8335
11, 57160, Pitch_bend_c, 6, 8349
11, 57161, Pitch_bend_c, 6, 8362
11, 57162, Pitch_bend_c, 6, 8376
11, 57163, Pitch_bend_c, 6, 8383
11, 57164, Pitch_bend_c, 6, 8403
11, 57165, Pitch_bend_c, 6, 8417
11, 57166, Pitch_bend_c, 6, 8430
11, 57167, Pitch_bend_c, 6, 8451
11, 57168, Pitch_bend_c, 6, 8471
11, 57169, Pitch_bend_c, 6, 8492
11, 57170, Pitch_bend_c, 6, 8512
11, 57171, Pitch_bend_c, 6, 8540
11, 57172, Pitch_bend_c, 6, 8560
11, 57173, Pitch_bend_c, 6, 8587
11, 57174, Pitch_bend_c, 6, 8622
11, 57175, Pitch_bend_c, 6, 8656
11, 57176, Pitch_bend_c, 6, 8690
11, 57177, Pitch_bend_c, 6, 8724
11, 57178, Pitch_bend_c, 6, 8765
11, 57179, Pitch_bend_c, 6, 8806
11, 57180, Pitch_bend_c, 6, 8854
11, 57181, Pitch_bend_c, 6, 8901
11, 57182, Pitch_bend_c, 6, 8956
11, 57183, Pitch_bend_c, 6, 9011
11, 57184, Pitch_bend_c, 6, 9072
11, 57185, Pitch_bend_c, 6, 9140
11, 57186, Pitch_bend_c, 6, 9209
11, 57187, Pitch_bend_c, 6, 9284
11, 57188, Pitch_bend_c, 6, 9366
11, 57189, Pitch_bend_c, 6, 9454
11, 57190, Pitch_bend_c, 6, 9550
11, 57191, Pitch_bend_c, 6, 9646
11, 57192, Pitch_bend_c, 6, 9755
11, 57193, Pitch_bend_c, 6, 9871
11, 57194, Pitch_bend_c, 6, 10001
11, 57195, Pitch_bend_c, 6, 10137
11, 57196, Pitch_bend_c, 6, 10280
11, 57197, Pitch_bend_c, 6, 10437
11, 57198, Pitch_bend_c, 6, 10601
11, 57199, Pitch_bend_c, 6, 10786
11, 57200, Pitch_bend_c, 6, 10977
11, 57201, Pitch_bend_c, 6, 11182
11, 57202, Pitch_bend_c, 6, 11407
11, 57203, Pitch_bend_c, 6, 11646
11, 57204, Pitch_bend_c, 6, 11905
11, 57205, Pitch_bend_c, 6, 12178
11, 57206, Pitch_bend_c, 6, 12479
11, 57207, Pitch_bend_c, 6, 12800
11, 57208, Pitch_bend_c, 6, 13141
11, 57209, Pitch_bend_c, 6, 13509
11, 57210, Pitch_bend_c, 6, 13905
11, 57211, Pitch_bend_c, 6, 14336
11, 57212, Pitch_bend_c, 6, 14793
11, 57213, Pitch_bend_c, 6, 15284
11, 57214, Pitch_bend_c, 6, 15817
11, 57215, Pitch_bend_c, 6, 16383
11, 58464, Note_off_c, 6, 77, 64
11, 58560, Note_on_c, 6, 77, 127
11, 58560, Pitch_bend_c, 6, 8192
11, 58617, Pitch_bend_c, 6, 8192
11, 58632, Pitch_bend_c, 6, 8192
11, 58639, Pitch_bend_c, 6, 8192
11, 58644, Pitch_bend_c, 6, 8198
11, 58647, Pitch_bend_c, 6, 8198
11, 58650, Pitch_bend_c, 6, 8198
11, 58652, Pitch_bend_c, 6, 8198
11, 58654, Pitch_bend_c, 6, 8198
11, 58656, Pitch_bend_c, 6, 8198
11, 58658, Pitch_bend_c, 6, 8198
11, 58659, Pitch_bend_c, 6, 8205
11, 58660, Pitch_bend_c, 6, 8205
11, 58661, Pitch_bend_c, 6, 8205
11, 58662, Pitch_bend_c, 6, 8205
11, 58663, Pitch_bend_c, 6, 8205
11, 58664, Pitch_bend_c, 6, 8205
11, 58665, Pitch_bend_c, 6, 8205
11, 58666, Pitch_bend_c, 6, 8212
11, 58667, Pitch_bend_c, 6, 8212
11, 58668, Pitch_bend_c, 6, 8212
11, 58669, Pitch_bend_c, 6, 8212
11, 58670, Pitch_bend_c, 6, 8219
11, 58671, Pitch_bend_c, 6, 8219
11, 58672, Pitch_bend_c, 6, 8219
11, 58673, Pitch_bend_c, 6, 8219
11, 58674, Pitch_bend_c, 6, 8226
11, 58675, Pitch_bend_c, 6, 8226
11, 58676, Pitch_bend_c, 6, 8226
11, 58677, Pitch_bend_c, 6, 8232
11, 58678, Pitch_bend_c, 6, 8232
11, 58679, Pitch_bend_c, 6, 8239
11, 58680, Pitch_bend_c, 6, 8239
11, 58681, Pitch_bend_c, 6, 8246
11, 58682, Pitch_bend_c, 6, 8246
11, 58683, Pitch_bend_c, 6, 8253
11, 58684, Pitch_bend_c, 6, 8260
11, 58685, Pitch_bend_c, 6, 8260
11, 58686, Pitch_bend_c, 6, 8267
11, 58687, Pitch_bend_c, 6, 8273
11, 58688, Pitch_bend_c, 6, 8280
11, 58689, Pitch_bend_c, 6, 8287
11, 58690, Pitch_bend_c, 6, 8294
11, 58691, Pitch_bend_c, 6, 8301
11, 58692, Pitch_bend_c, 6, 8308
11, 58693, Pitch_bend_c, 6, 8314
11, 58694, Pitch_bend_c, 6, 8328
11, 58695, Pitch_bend_c, 6, 8335
11, 58696, Pitch_bend_c, 6, 8349
11, 58697, Pitch_bend_c, 6, 8362
11, 58698, Pitch_bend_c, 6, 8376
11, 58699, Pitch_bend_c, 6, 8383
11, 58700, Pitch_bend_c, 6, 8403
11, 58701, Pitch_bend_c, 6, 8417
11, 58702, Pitch_bend_c, 6, 8430
11, 58703, Pitch_bend_c, 6, 8451
11, 58704, Pitch_bend_c, 6, 8471
11, 58705, Pitch_bend_c, 6, 8492
11, 58706, Pitch_bend_c, 6, 8512
11, 58707, Pitch_bend_c, 6, 8540
11, 58708, Pitch_bend_c, 6, 8560
11, 58709, Pitch_bend_c, 6, 8587
11, 58710, Pitch_bend_c, 6, 8622
11, 58711, Pitch_bend_c, 6, 8656
11, 58712, Pitch_bend_c, 6, 8690
11, 58713, Pitch_bend_c, 6, 8724
11, 58714, Pitch_bend_c, 6, 8765
11, 58715, Pitch_bend_c, 6, 8806
11, 58716, Pitch_bend_c, 6, 8854
11, 58717, Pitch_bend_c, 6, 8901
11, 58718, Pitch_bend_c, 6, 8956
11, 58719, Pitch_bend_c, 6, 9011
11, 58720, Pitch_bend_c, 6, 9072
11, 58721, Pitch_bend_c, 6, 9140
11, 58722, Pitch_bend_c, 6, 9209
11, 58723, Pitch_bend_c, 6, 9284
11, 58724, Pitch_bend_c, 6, 9366
11, 58725, Pitch_bend_c, 6, 9454
11, 58726, Pitch_bend_c, 6, 9550
11, 58727, Pitch_bend_c, 6, 9646
11, 58728, Pitch_bend_c, 6, 9755
11, 58729, Pitch_bend_c, 6, 9871
11, 58730, Pitch_bend_c, 6, 10001
11, 58731, Pitch_bend_c, 6, 10137
11, 58732, Pitch_bend_c, 6, 10280
11, 58733, Pitch_bend_c, 6, 10437
11, 58734, Pitch_bend_c, 6, 10601
11, 58735, Pitch_bend_c, 6, 10786
11, 58736, Pitch_bend_c, 6, 10977
11, 58737, Pitch_bend_c, 6, 11182
11, 58738, Pitch_bend_c, 6, 11407
11, 58739, Pitch_bend_c, 6, 11646
11, 58740, Pitch_bend_c, 6, 11905
11, 58741, Pitch_bend_c, 6, 12178
11, 58742, Pitch_bend_c, 6, 12479
11, 58743, Pitch_bend_c, 6, 12800
11, 58744, Pitch_bend_c, 6, 13141
11, 58745, Pitch_bend_c, 6, 13509
11, 58746, Pitch_bend_c, 6, 13905
11, 58747, Pitch_bend_c, 6, 14336
11, 58748, Pitch_bend_c, 6, 14793
11, 58749, Pitch_bend_c, 6, 15284
11, 58750, Pitch_bend_c, 6, 15817
11, 58751, Pitch_bend_c, 6, 16383
11, 60000, Note_off_c, 6, 77, 64
11, 60096, Note_on_c, 6, 77, 127
11, 60096, Pitch_bend_c, 6, 8192
11, 60153, Pitch_bend_c, 6, 8192
11, 60168, Pitch_bend_c, 6, 8192
11, 60175, Pitch_bend_c, 6, 8192
11, 60180, Pitch_bend_c, 6, 8198
11, 60183, Pitch_bend_c, 6, 8198
11, 60186, Pitch_bend_c, 6, 8198
11, 60188, Pitch_bend_c, 6, 8198
11, 60190, Pitch_bend_c, 6, 8198
11, 60192, Pitch_bend_c, 6, 8198
11, 60194, Pitch_bend_c, 6, 8198
11, 60195, Pitch_bend_c, 6, 8205
11, 60196, Pitch_bend_c, 6, 8205
11, 60197, Pitch_bend_c, 6, 8205
11, 60198, Pitch_bend_c, 6, 8205
11, 60199, Pitch_bend_c, 6, 8205
11, 60200, Pitch_bend_c, 6, 8205
11, 60201, Pitch_bend_c, 6, 8205
11, 60202, Pitch_bend_c, 6, 8212
11, 60203, Pitch_bend_c, 6, 8212
11, 60204, Pitch_bend_c, 6, 8212
11, 60205, Pitch_bend_c, 6, 8212
11, 60206, Pitch_bend_c, 6, 8219
11, 60207, Pitch_bend_c, 6, 8219
11, 60208, Pitch_bend_c, 6, 8219
11, 60209, Pitch_bend_c, 6, 8219
11, 60210, Pitch_bend_c, 6, 8226
11, 60211, Pitch_bend_c, 6, 8226
11, 60212, Pitch_bend_c, 6, 8226
11, 60213, Pitch_bend_c, 6, 8232
11, 60214, Pitch_bend_c, 6, 8232
11, 60215, Pitch_bend_c, 6, 8239
11, 60216, Pitch_bend_c, 6, 8239
11, 60217, Pitch_bend_c, 6, 8246
11, 60218, Pitch_bend_c, 6, 8246
11, 60219, Pitch_bend_c, 6, 8253
11, 60220, Pitch_bend_c, 6, 8260
11, 60221, Pitch_bend_c, 6, 8260
11, 60222, Pitch_bend_c, 6, 8267
11, 60223, Pitch_bend_c, 6, 8273
11, 60224, Pitch_bend_c, 6, 8280
11, 60225, Pitch_bend_c, 6, 8287
11, 60226, Pitch_bend_c, 6, 8294
11, 60227, Pitch_bend_c, 6, 8301
11, 60228, Pitch_bend_c, 6, 8308
11, 60229, Pitch_bend_c, 6, 8314
11, 60230, Pitch_bend_c, 6, 8328
11, 60231, Pitch_bend_c, 6, 8335
11, 60232, Pitch_bend_c, 6, 8349
11, 60233, Pitch_bend_c, 6, 8362
11, 60234, Pitch_bend_c, 6, 8376
11, 60235, Pitch_bend_c, 6, 8383
11, 60236, Pitch_bend_c, 6, 8403
11, 60237, Pitch_bend_c, 6, 8417
11, 60238, Pitch_bend_c, 6, 8430
11, 60239, Pitch_bend_c, 6, 8451
11, 60240, Pitch_bend_c, 6, 8471
11, 60241, Pitch_bend_c, 6, 8492
11, 60242, Pitch_bend_c, 6, 8512
11, 60243, Pitch_bend_c, 6, 8540
11, 60244, Pitch_bend_c, 6, 8560
11, 60245, Pitch_bend_c, 6, 8587
11, 60246, Pitch_bend_c, 6, 8622
11, 60247, Pitch_bend_c, 6, 8656
11, 60248, Pitch_bend_c, 6, 8690
11, 60249, Pitch_bend_c, 6, 8724
11, 60250, Pitch_bend_c, 6, 8765
11, 60251, Pitch_bend_c, 6, 8806
11, 60252, Pitch_bend_c, 6, 8854
11, 60253, Pitch_bend_c, 6, 8901
11, 60254, Pitch_bend_c, 6, 8956
11, 60255, Pitch_bend_c, 6, 9011
11, 60256, Pitch_bend_c, 6, 9072
11, 60257, Pitch_bend_c, 6, 9140
11, 60258, Pitch_bend_c, 6, 9209
11, 60259, Pitch_bend_c, 6, 9284
11, 60260, Pitch_bend_c, 6, 9366
11, 60261, Pitch_bend_c, 6, 9454
11, 60262, Pitch_bend_c, 6, 9550
11, 60263, Pitch_bend_c, 6, 9646
11, 60264, Pitch_bend_c, 6, 9755
11, 60265, Pitch_bend_c, 6, 9871
11, 60266, Pitch_bend_c, 6, 10001
11, 60267, Pitch_bend_c, 6, 10137
11, 60268, Pitch_bend_c, 6, 10280
11, 60269, Pitch_bend_c, 6, 10437
11, 60270, Pitch_bend_c, 6, 10601
11, 60271, Pitch_bend_c, 6, 10786
11, 60272, Pitch_bend_c, 6, 10977
11, 60273, Pitch_bend_c, 6, 11182
11, 60274, Pitch_bend_c, 6, 11407
11, 60275, Pitch_bend_c, 6, 11646
11, 60276, Pitch_bend_c, 6, 11905
11, 60277, Pitch_bend_c, 6, 12178
11, 60278, Pitch_bend_c, 6, 12479
11, 60279, Pitch_bend_c, 6, 12800
11, 60280, Pitch_bend_c, 6, 13141
11, 60281, Pitch_bend_c, 6, 13509
11, 60282, Pitch_bend_c, 6, 13905
11, 60283, Pitch_bend_c, 6, 14336
11, 60284, Pitch_bend_c, 6, 14793
11, 60285, Pitch_bend_c, 6, 15284
11, 60286, Pitch_bend_c, 6, 15817
11, 60287, Pitch_bend_c, 6, 16383
11, 61536, Note_off_c, 6, 77, 64
11, 63396, Control_c, 6, 101, 0
11, 63396, Control_c, 6, 100, 0
11, 63396, Control_c, 6, 6, 12
11, 63396, Control_c, 6, 10, 64
11, 63396, Control_c, 6, 7, 49
11, 63396, Pitch_bend_c, 6, 16383
11, 63396, Program_c, 6, 52
11, 63396, Control_c, 6, 1, 127
11, 63396, Pitch_bend_c, 6, 8192
11, 63397, Control_c, 6, 101, 0
11, 63397, Control_c, 6, 100, 0
11, 63397, Control_c, 6, 6, 12
11, 63397, Control_c, 6, 10, 64
11, 63397, Control_c, 6, 7, 49
11, 63397, Pitch_bend_c, 6, 16383
11, 63397, Program_c, 6, 52
11, 63397, Control_c, 6, 1, 127
11, 63397, End_track
12, 0, Start_track
12, 0, Title_t, "MIDI Out #2"
12, 0, Control_c, 7, 10, 64
12, 0, Control_c, 7, 7, 71
12, 0, Pitch_bend_c, 7, 8192
12, 0, Control_c, 7, 101, 0
12, 0, Control_c, 7, 100, 0
12, 0, Control_c, 7, 6, 12
12, 0, Control_c, 7, 10, 64
12, 0, Control_c, 7, 7, 71
12, 0, Pitch_bend_c, 7, 8192
12, 0, Program_c, 7, 81
12, 0, Control_c, 7, 1, 49
12, 0, Pitch_bend_c, 7, 8192
12, 0, Control_c, 7, 101, 0
12, 0, Control_c, 7, 100, 0
12, 0, Control_c, 7, 6, 12
12, 0, Control_c, 7, 10, 64
12, 0, Control_c, 7, 7, 71
12, 0, Pitch_bend_c, 7, 8192
12, 0, Program_c, 7, 81
12, 0, Control_c, 7, 1, 49
12, 0, Control_c, 7, 101, 0
12, 0, Control_c, 7, 100, 0
12, 0, Control_c, 7, 6, 12
12, 0, Control_c, 7, 10, 64
12, 0, Control_c, 7, 7, 71
12, 0, Pitch_bend_c, 7, 8192
12, 0, Program_c, 7, 81
12, 0, Control_c, 7, 1, 49
12, 15168, Note_on_c, 7, 53, 127
12, 15168, Pitch_bend_c, 7, 8192
12, 15225, Pitch_bend_c, 7, 8192
12, 15240, Pitch_bend_c, 7, 8192
12, 15247, Pitch_bend_c, 7, 8192
12, 15252, Pitch_bend_c, 7, 8198
12, 15255, Pitch_bend_c, 7, 8198
12, 15258, Pitch_bend_c, 7, 8198
12, 15260, Pitch_bend_c, 7, 8198
12, 15262, Pitch_bend_c, 7, 8198
12, 15264, Pitch_bend_c, 7, 8198
12, 15266, Pitch_bend_c, 7, 8198
12, 15267, Pitch_bend_c, 7, 8205
12, 15268, Pitch_bend_c, 7, 8205
12, 15269, Pitch_bend_c, 7, 8205
12, 15270, Pitch_bend_c, 7, 8205
12, 15271, Pitch_bend_c, 7, 8205
12, 15272, Pitch_bend_c, 7, 8205
12, 15273, Pitch_bend_c, 7, 8205
12, 15274, Pitch_bend_c, 7, 8212
12, 15275, Pitch_bend_c, 7, 8212
12, 15276, Pitch_bend_c, 7, 8212
12, 15277, Pitch_bend_c, 7, 8212
12, 15278, Pitch_bend_c, 7, 8219
12, 15279, Pitch_bend_c, 7, 8219
12, 15280, Pitch_bend_c, 7, 8219
12, 15281, Pitch_bend_c, 7, 8219
12, 15282, Pitch_bend_c, 7, 8226
12, 15283, Pitch_bend_c, 7, 8226
12, 15284, Pitch_bend_c, 7, 8226
12, 15285, Pitch_bend_c, 7, 8232
12, 15286, Pitch_bend_c, 7, 8232
12, 15287, Pitch_bend_c, 7, 8239
12, 15288, Pitch_bend_c, 7, 8239
12, 15289, Pitch_bend_c, 7, 8246
12, 15290, Pitch_bend_c, 7, 8246
12, 15291, Pitch_bend_c, 7, 8253
12, 15292, Pitch_bend_c, 7, 8260
12, 15293, Pitch_bend_c, 7, 8260
12, 15294, Pitch_bend_c, 7, 8267
12, 15295, Pitch_bend_c, 7, 8273
12, 15296, Pitch_bend_c, 7, 8280
12, 15297, Pitch_bend_c, 7, 8287
12, 15298, Pitch_bend_c, 7, 8294
12, 15299, Pitch_bend_c, 7, 8301
12, 15300, Pitch_bend_c, 7, 8308
12, 15301, Pitch_bend_c, 7, 8314
12, 15302, Pitch_bend_c, 7, 8328
12, 15303, Pitch_bend_c, 7, 8335
12, 15304, Pitch_bend_c, 7, 8349
12, 15305, Pitch_bend_c, 7, 8362
12, 15306, Pitch_bend_c, 7, 8376
12, 15307, Pitch_bend_c, 7, 8383
12, 15308, Pitch_bend_c, 7, 8403
12, 15309, Pitch_bend_c, 7, 8417
12, 15310, Pitch_bend_c, 7, 8430
12, 15311, Pitch_bend_c, 7, 8451
12, 15312, Pitch_bend_c, 7, 8471
12, 15313, Pitch_bend_c, 7, 8492
12, 15314, Pitch_bend_c, 7, 8512
12, 15315, Pitch_bend_c, 7, 8540
12, 15316, Pitch_bend_c, 7, 8560
12, 15317, Pitch_bend_c, 7, 8587
12, 15318, Pitch_bend_c, 7, 8622
12, 15319, Pitch_bend_c, 7, 8656
12, 15320, Pitch_bend_c, 7, 8690
12, 15321, Pitch_bend_c, 7, 8724
12, 15322, Pitch_bend_c, 7, 8765
12, 15323, Pitch_bend_c, 7, 8806
12, 15324, Pitch_bend_c, 7, 8854
12, 15325, Pitch_bend_c, 7, 8901
12, 15326, Pitch_bend_c, 7, 8956
12, 15327, Pitch_bend_c, 7, 9011
12, 15328, Pitch_bend_c, 7, 9072
12, 15329, Pitch_bend_c, 7, 9140
12, 15330, Pitch_bend_c, 7, 9209
12, 15331, Pitch_bend_c, 7, 9284
12, 15332, Pitch_bend_c, 7, 9366
12, 15333, Pitch_bend_c, 7, 9454
12, 15334, Pitch_bend_c, 7, 9550
12, 15335, Pitch_bend_c, 7, 9646
12, 15336, Pitch_bend_c, 7, 9755
12, 15337, Pitch_bend_c, 7, 9871
12, 15338, Pitch_bend_c, 7, 10001
12, 15339, Pitch_bend_c, 7, 10137
12, 15340, Pitch_bend_c, 7, 10280
12, 15341, Pitch_bend_c, 7, 10437
12, 15342, Pitch_bend_c, 7, 10601
12, 15343, Pitch_bend_c, 7, 10786
12, 15344, Pitch_bend_c, 7, 10977
12, 15345, Pitch_bend_c, 7, 11182
12, 15346, Pitch_bend_c, 7, 11407
12, 15347, Pitch_bend_c, 7, 11646
12, 15348, Pitch_bend_c, 7, 11905
12, 15349, Pitch_bend_c, 7, 12178
12, 15350, Pitch_bend_c, 7, 12479
12, 15351, Pitch_bend_c, 7, 12800
12, 15352, Pitch_bend_c, 7, 13141
12, 15353, Pitch_bend_c, 7, 13509
12, 15354, Pitch_bend_c, 7, 13905
12, 15355, Pitch_bend_c, 7, 14336
12, 15356, Pitch_bend_c, 7, 14793
12, 15357, Pitch_bend_c, 7, 15284
12, 15358, Pitch_bend_c, 7, 15817
12, 15359, Pitch_bend_c, 7, 16383
12, 16608, Note_off_c, 7, 53, 64
12, 16704, Note_on_c, 7, 53, 127
12, 16704, Pitch_bend_c, 7, 8192
12, 16761, Pitch_bend_c, 7, 8192
12, 16776, Pitch_bend_c, 7, 8192
12, 16783, Pitch_bend_c, 7, 8192
12, 16788, Pitch_bend_c, 7, 8198
12, 16791, Pitch_bend_c, 7, 8198
12, 16794, Pitch_bend_c, 7, 8198
12, 16796, Pitch_bend_c, 7, 8198
12, 16798, Pitch_bend_c, 7, 8198
12, 16800, Pitch_bend_c, 7, 8198
12, 16802, Pitch_bend_c, 7, 8198
12, 16803, Pitch_bend_c, 7, 8205
12, 16804, Pitch_bend_c, 7, 8205
12, 16805, Pitch_bend_c, 7, 8205
12, 16806, Pitch_bend_c, 7, 8205
12, 16807, Pitch_bend_c, 7, 8205
12, 16808, Pitch_bend_c, 7, 8205
12, 16809, Pitch_bend_c, 7, 8205
12, 16810, Pitch_bend_c, 7, 8212
12, 16811, Pitch_bend_c, 7, 8212
12, 16812, Pitch_bend_c, 7, 8212
12, 16813, Pitch_bend_c, 7, 8212
12, 16814, Pitch_bend_c, 7, 8219
12, 16815, Pitch_bend_c, 7, 8219
12, 16816, Pitch_bend_c, 7, 8219
12, 16817, Pitch_bend_c, 7, 8219
12, 16818, Pitch_bend_c, 7, 8226
12, 16819, Pitch_bend_c, 7, 8226
12, 16820, Pitch_bend_c, 7, 8226
12, 16821, Pitch_bend_c, 7, 8232
12, 16822, Pitch_bend_c, 7, 8232
12, 16823, Pitch_bend_c, 7, 8239
12, 16824, Pitch_bend_c, 7, 8239
12, 16825, Pitch_bend_c, 7, 8246
12, 16826, Pitch_bend_c, 7, 8246
12, 16827, Pitch_bend_c, 7, 8253
12, 16828, Pitch_bend_c, 7, 8260
12, 16829, Pitch_bend_c, 7, 8260
12, 16830, Pitch_bend_c, 7, 8267
12, 16831, Pitch_bend_c, 7, 8273
12, 16832, Pitch_bend_c, 7, 8280
12, 16833, Pitch_bend_c, 7, 8287
12, 16834, Pitch_bend_c, 7, 8294
12, 16835, Pitch_bend_c, 7, 8301
12, 16836, Pitch_bend_c, 7, 8308
12, 16837, Pitch_bend_c, 7, 8314
12, 16838, Pitch_bend_c, 7, 8328
12, 16839, Pitch_bend_c, 7, 8335
12, 16840, Pitch_bend_c, 7, 8349
12, 16841, Pitch_bend_c, 7, 8362
12, 16842, Pitch_bend_c, 7, 8376
12, 16843, Pitch_bend_c, 7, 8383
12, 16844, Pitch_bend_c, 7, 8403
12, 16845, Pitch_bend_c, 7, 8417
12, 16846, Pitch_bend_c, 7, 8430
12, 16847, Pitch_bend_c, 7, 8451
12, 16848, Pitch_bend_c, 7, 8471
12, 16849, Pitch_bend_c, 7, 8492
12, 16850, Pitch_bend_c, 7, 8512
12, 16851, Pitch_bend_c, 7, 8540
12, 16852, Pitch_bend_c, 7, 8560
12, 16853, Pitch_bend_c, 7, 8587
12, 16854, Pitch_bend_c, 7, 8622
12, 16855, Pitch_bend_c, 7, 8656
12, 16856, Pitch_bend_c, 7, 8690
12, 16857, Pitch_bend_c, 7, 8724
12, 16858, Pitch_bend_c, 7, 8765
12, 16859, Pitch_bend_c, 7, 8806
12, 16860, Pitch_bend_c, 7, 8854
12, 16861, Pitch_bend_c, 7, 8901
12, 16862, Pitch_bend_c, 7, 8956
12, 16863, Pitch_bend_c, 7, 9011
12, 16864, Pitch_bend_c, 7, 9072
12, 16865, Pitch_bend_c, 7, 9140
12, 16866, Pitch_bend_c, 7, 9209
12, 16867, Pitch_bend_c, 7, 9284
12, 16868, Pitch_bend_c, 7, 9366
12, 16869, Pitch_bend_c, 7, 9454
12, 16870, Pitch_bend_c, 7, 9550
12, 16871, Pitch_bend_c, 7, 9646
12, 16872, Pitch_bend_c, 7, 9755
12, 16873, Pitch_bend_c, 7, 9871
12, 16874, Pitch_bend_c, 7, 10001
12, 16875, Pitch_bend_c, 7, 10137
12, 16876, Pitch_bend_c, 7, 10280
12, 16877, Pitch_bend_c, 7, 10437
12, 16878, Pitch_bend_c, 7, 10601
12, 16879, Pitch_bend_c, 7, 10786
12, 16880, Pitch_bend_c, 7, 10977
12, 16881, Pitch_bend_c, 7, 11182
12, 16882, Pitch_bend_c, 7, 11407
12, 16883, Pitch_bend_c, 7, 11646
12, 16884, Pitch_bend_c, 7, 11905
12, 16885, Pitch_bend_c, 7, 12178
12, 16886, Pitch_bend_c, 7, 12479
12, 16887, Pitch_bend_c, 7, 12800
12, 16888, Pitch_bend_c, 7, 13141
12, 16889, Pitch_bend_c, 7, 13509
12, 16890, Pitch_bend_c, 7, 13905
12, 16891, Pitch_bend_c, 7, 14336
12, 16892, Pitch_bend_c, 7, 14793
12, 16893, Pitch_bend_c, 7, 15284
12, 16894, Pitch_bend_c, 7, 15817
12, 16895, Pitch_bend_c, 7, 16383
12, 18144, Note_off_c, 7, 53, 64
12, 30528, Note_on_c, 7, 53, 127
12, 30528, Pitch_bend_c, 7, 8192
12, 30585, Pitch_bend_c, 7, 8192
12, 30600, Pitch_bend_c, 7, 8192
12, 30607, Pitch_bend_c, 7, 8192
12, 30612, Pitch_bend_c, 7, 8198
12, 30615, Pitch_bend_c, 7, 8198
12, 30618, Pitch_bend_c, 7, 8198
12, 30620, Pitch_bend_c, 7, 8198
12, 30622, Pitch_bend_c, 7, 8198
12, 30624, Pitch_bend_c, 7, 8198
12, 30626, Pitch_bend_c, 7, 8198
12, 30627, Pitch_bend_c, 7, 8205
12, 30628, Pitch_bend_c, 7, 8205
12, 30629, Pitch_bend_c, 7, 8205
12, 30630, Pitch_bend_c, 7, 8205
12, 30631, Pitch_bend_c, 7, 8205
12, 30632, Pitch_bend_c, 7, 8205
12, 30633, Pitch_bend_c, 7, 8205
12, 30634, Pitch_bend_c, 7, 8212
12, 30635, Pitch_bend_c, 7, 8212
12, 30636, Pitch_bend_c, 7, 8212
12, 30637, Pitch_bend_c, 7, 8212
12, 30638, Pitch_bend_c, 7, 8219
12, 30639, Pitch_bend_c, 7, 8219
12, 30640, Pitch_bend_c, 7, 8219
12, 30641, Pitch_bend_c, 7, 8219
12, 30642, Pitch_bend_c, 7, 8226
12, 30643, Pitch_bend_c, 7, 8226
12, 30644, Pitch_bend_c, 7, 8226
12, 30645, Pitch_bend_c, 7, 8232
12, 30646, Pitch_bend_c, 7, 8232
12, 30647, Pitch_bend_c, 7, 8239
12, 30648, Pitch_bend_c, 7, 8239
12, 30649, Pitch_bend_c, 7, 8246
12, 30650, Pitch_bend_c, 7, 8246
12, 30651, Pitch_bend_c, 7, 8253
12, 30652, Pitch_bend_c, 7, 8260
12, 30653, Pitch_bend_c, 7, 8260
12, 30654, Pitch_bend_c, 7, 8267
12, 30655, Pitch_bend_c, 7, 8273
12, 30656, Pitch_bend_c, 7, 8280
12, 30657, Pitch_bend_c, 7, 8287
12, 30658, Pitch_bend_c, 7, 8294
12, 30659, Pitch_bend_c, 7, 8301
12, 30660, Pitch_bend_c, 7, 8308
12, 30661, Pitch_bend_c, 7, 8314
12, 30662, Pitch_bend_c, 7, 8328
12, 30663, Pitch_bend_c, 7, 8335
12, 30664, Pitch_bend_c, 7, 8349
12, 30665, Pitch_bend_c, 7, 8362
12, 30666, Pitch_bend_c, 7, 8376
12, 30667, Pitch_bend_c, 7, 8383
12, 30668, Pitch_bend_c, 7, 8403
12, 30669, Pitch_bend_c, 7, 8417
12, 30670, Pitch_bend_c, 7, 8430
12, 30671, Pitch_bend_c, 7, 8451
12, 30672, Pitch_bend_c, 7, 8471
12, 30673, Pitch_bend_c, 7, 8492
12, 30674, Pitch_bend_c, 7, 8512
12, 30675, Pitch_bend_c, 7, 8540
12, 30676, Pitch_bend_c, 7, 8560
12, 30677, Pitch_bend_c, 7, 8587
12, 30678, Pitch_bend_c, 7, 8622
12, 30679, Pitch_bend_c, 7, 8656
12, 30680, Pitch_bend_c, 7, 8690
12, 30681, Pitch_bend_c, 7, 8724
12, 30682, Pitch_bend_c, 7, 8765
12, 30683, Pitch_bend_c, 7, 8806
12, 30684, Pitch_bend_c, 7, 8854
12, 30685, Pitch_bend_c, 7, 8901
12, 30686, Pitch_bend_c, 7, 8956
12, 30687, Pitch_bend_c, 7, 9011
12, 30688, Pitch_bend_c, 7, 9072
12, 30689, Pitch_bend_c, 7, 9140
12, 30690, Pitch_bend_c, 7, 9209
12, 30691, Pitch_bend_c, 7, 9284
12, 30692, Pitch_bend_c, 7, 9366
12, 30693, Pitch_bend_c, 7, 9454
12, 30694, Pitch_bend_c, 7, 9550
12, 30695, Pitch_bend_c, 7, 9646
12, 30696, Pitch_bend_c, 7, 9755
12, 30697, Pitch_bend_c, 7, 9871
12, 30698, Pitch_bend_c, 7, 10001
12, 30699, Pitch_bend_c, 7, 10137
12, 30700, Pitch_bend_c, 7, 10280
12, 30701, Pitch_bend_c, 7, 10437
12, 30702, Pitch_bend_c, 7, 10601
12, 30703, Pitch_bend_c, 7, 10786
12, 30704, Pitch_bend_c, 7, 10977
12, 30705, Pitch_bend_c, 7, 11182
12, 30706, Pitch_bend_c, 7, 11407
12, 30707, Pitch_bend_c, 7, 11646
12, 30708, Pitch_bend_c, 7, 11905
12, 30709, Pitch_bend_c, 7, 12178
12, 30710, Pitch_bend_c, 7, 12479
12, 30711, Pitch_bend_c, 7, 12800
12, 30712, Pitch_bend_c, 7, 13141
12, 30713, Pitch_bend_c, 7, 13509
12, 30714, Pitch_bend_c, 7, 13905
12, 30715, Pitch_bend_c, 7, 14336
12, 30716, Pitch_bend_c, 7, 14793
12, 30717, Pitch_bend_c, 7, 15284
12, 30718, Pitch_bend_c, 7, 15817
12, 30719, Pitch_bend_c, 7, 16383
12, 31968, Note_off_c, 7, 53, 64
12, 32064, Note_on_c, 7, 53, 127
12, 32064, Pitch_bend_c, 7, 8192
12, 32121, Pitch_bend_c, 7, 8192
12, 32136, Pitch_bend_c, 7, 8192
12, 32143, Pitch_bend_c, 7, 8192
12, 32148, Pitch_bend_c, 7, 8198
12, 32151, Pitch_bend_c, 7, 8198
12, 32154, Pitch_bend_c, 7, 8198
12, 32156, Pitch_bend_c, 7, 8198
12, 32158, Pitch_bend_c, 7, 8198
12, 32160, Pitch_bend_c, 7, 8198
12, 32162, Pitch_bend_c, 7, 8198
12, 32163, Pitch_bend_c, 7, 8205
12, 32164, Pitch_bend_c, 7, 8205
12, 32165, Pitch_bend_c, 7, 8205
12, 32166, Pitch_bend_c, 7, 8205
12, 32167, Pitch_bend_c, 7, 8205
12, 32168, Pitch_bend_c, 7, 8205
12, 32169, Pitch_bend_c, 7, 8205
12, 32170, Pitch_bend_c, 7, 8212
12, 32171, Pitch_bend_c, 7, 8212
12, 32172, Pitch_bend_c, 7, 8212
12, 32173, Pitch_bend_c, 7, 8212
12, 32174, Pitch_bend_c, 7, 8219
12, 32175, Pitch_bend_c, 7, 8219
12, 32176, Pitch_bend_c, 7, 8219
12, 32177, Pitch_bend_c, 7, 8219
12, 32178, Pitch_bend_c, 7, 8226
12, 32179, Pitch_bend_c, 7, 8226
12, 32180, Pitch_bend_c, 7, 8226
12, 32181, Pitch_bend_c, 7, 8232
12, 32182, Pitch_bend_c, 7, 8232
12, 32183, Pitch_bend_c, 7, 8239
12, 32184, Pitch_bend_c, 7, 8239
12, 32185, Pitch_bend_c, 7, 8246
12, 32186, Pitch_bend_c, 7, 8246
12, 32187, Pitch_bend_c, 7, 8253
12, 32188, Pitch_bend_c, 7, 8260
12, 32189, Pitch_bend_c, 7, 8260
12, 32190, Pitch_bend_c, 7, 8267
12, 32191, Pitch_bend_c, 7, 8273
12, 32192, Pitch_bend_c, 7, 8280
12, 32193, Pitch_bend_c, 7, 8287
12, 32194, Pitch_bend_c, 7, 8294
12, 32195, Pitch_bend_c, 7, 8301
12, 32196, Pitch_bend_c, 7, 8308
12, 32197, Pitch_bend_c, 7, 8314
12, 32198, Pitch_bend_c, 7, 8328
12, 32199, Pitch_bend_c, 7, 8335
12, 32200, Pitch_bend_c, 7, 8349
12, 32201, Pitch_bend_c, 7, 8362
12, 32202, Pitch_bend_c, 7, 8376
12, 32203, Pitch_bend_c, 7, 8383
12, 32204, Pitch_bend_c, 7, 8403
12, 32205, Pitch_bend_c, 7, 8417
12, 32206, Pitch_bend_c, 7, 8430
12, 32207, Pitch_bend_c, 7, 8451
12, 32208, Pitch_bend_c, 7, 8471
12, 32209, Pitch_bend_c, 7, 8492
12, 32210, Pitch_bend_c, 7, 8512
12, 32211, Pitch_bend_c, 7, 8540
12, 32212, Pitch_bend_c, 7, 8560
12, 32213, Pitch_bend_c, 7, 8587
12, 32214, Pitch_bend_c, 7, 8622
12, 32215, Pitch_bend_c, 7, 8656
12, 32216, Pitch_bend_c, 7, 8690
12, 32217, Pitch_bend_c, 7, 8724
12, 32218, Pitch_bend_c, 7, 8765
12, 32219, Pitch_bend_c, 7, 8806
12, 32220, Pitch_bend_c, 7, 8854
12, 32221, Pitch_bend_c, 7, 8901
12, 32222, Pitch_bend_c, 7, 8956
12, 32223, Pitch_bend_c, 7, 9011
12, 32224, Pitch_bend_c, 7, 9072
12, 32225, Pitch_bend_c, 7, 9140
12, 32226, Pitch_bend_c, 7, 9209
12, 32227, Pitch_bend_c, 7, 9284
12, 32228, Pitch_bend_c, 7, 9366
12, 32229, Pitch_bend_c, 7, 9454
12, 32230, Pitch_bend_c, 7, 9550
12, 32231, Pitch_bend_c, 7, 9646
12, 32232, Pitch_bend_c, 7, 9755
12, 32233, Pitch_bend_c, 7, 9871
12, 32234, Pitch_bend_c, 7, 10001
12, 32235, Pitch_bend_c, 7, 10137
12, 32236, Pitch_bend_c, 7, 10280
12, 32237, Pitch_bend_c, 7, 10437
12, 32238, Pitch_bend_c, 7, 10601
12, 32239, Pitch_bend_c, 7, 10786
12, 32240, Pitch_bend_c, 7, 10977
12, 32241, Pitch_bend_c, 7, 11182
12, 32242, Pitch_bend_c, 7, 11407
12, 32243, Pitch_bend_c, 7, 11646
12, 32244, Pitch_bend_c, 7, 11905
12, 32245, Pitch_bend_c, 7, 12178
12, 32246, Pitch_bend_c, 7, 12479
12, 32247, Pitch_bend_c, 7, 12800
12, 32248, Pitch_bend_c, 7, 13141
12, 32249, Pitch_bend_c, 7, 13509
12, 32250, Pitch_bend_c, 7, 13905
12, 32251, Pitch_bend_c, 7, 14336
12, 32252, Pitch_bend_c, 7, 14793
12, 32253, Pitch_bend_c, 7, 15284
12, 32254, Pitch_bend_c, 7, 15817
12, 32255, Pitch_bend_c, 7, 16383
12, 33504, Note_off_c, 7, 53, 64
12, 33600, Note_on_c, 7, 53, 127
12, 33600, Pitch_bend_c, 7, 8192
12, 33657, Pitch_bend_c, 7, 8192
12, 33672, Pitch_bend_c, 7, 8192
12, 33679, Pitch_bend_c, 7, 8192
12, 33684, Pitch_bend_c, 7, 8198
12, 33687, Pitch_bend_c, 7, 8198
12, 33690, Pitch_bend_c, 7, 8198
12, 33692, Pitch_bend_c, 7, 8198
12, 33694, Pitch_bend_c, 7, 8198
12, 33696, Pitch_bend_c, 7, 8198
12, 33698, Pitch_bend_c, 7, 8198
12, 33699, Pitch_bend_c, 7, 8205
12, 33700, Pitch_bend_c, 7, 8205
12, 33701, Pitch_bend_c, 7, 8205
12, 33702, Pitch_bend_c, 7, 8205
12, 33703, Pitch_bend_c, 7, 8205
12, 33704, Pitch_bend_c, 7, 8205
12, 33705, Pitch_bend_c, 7, 8205
12, 33706, Pitch_bend_c, 7, 8212
12, 33707, Pitch_bend_c, 7, 8212
12, 33708, Pitch_bend_c, 7, 8212
12, 33709, Pitch_bend_c, 7, 8212
12, 33710, Pitch_bend_c, 7, 8219
12, 33711, Pitch_bend_c, 7, 8219
12, 33712, Pitch_bend_c, 7, 8219
12, 33713, Pitch_bend_c, 7, 8219
12, 33714, Pitch_bend_c, 7, 8226
12, 33715, Pitch_bend_c, 7, 8226
12, 33716, Pitch_bend_c, 7, 8226
12, 33717, Pitch_bend_c, 7, 8232
12, 33718, Pitch_bend_c, 7, 8232
12, 33719, Pitch_bend_c, 7, 8239
12, 33720, Pitch_bend_c, 7, 8239
12, 33721, Pitch_bend_c, 7, 8246
12, 33722, Pitch_bend_c, 7, 8246
12, 33723, Pitch_bend_c, 7, 8253
12, 33724, Pitch_bend_c, 7, 8260
12, 33725, Pitch_bend_c, 7, 8260
12, 33726, Pitch_bend_c, 7, 8267
12, 33727, Pitch_bend_c, 7, 8273
12, 33728, Pitch_bend_c, 7, 8280
12, 33729, Pitch_bend_c, 7, 8287
12, 33730, Pitch_bend_c, 7, 8294
12, 33731, Pitch_bend_c, 7, 8301
12, 33732, Pitch_bend_c, 7, 8308
12, 33733, Pitch_bend_c, 7, 8314
12, 33734, Pitch_bend_c, 7, 8328
12, 33735, Pitch_bend_c, 7, 8335
12, 33736, Pitch_bend_c, 7, 8349
12, 33737, Pitch_bend_c, 7, 8362
12, 33738, Pitch_bend_c, 7, 8376
12, 33739, Pitch_bend_c, 7, 8383
12, 33740, Pitch_bend_c, 7, 8403
12, 33741, Pitch_bend_c, 7, 8417
12, 33742, Pitch_bend_c, 7, 8430
12, 33743, Pitch_bend_c, 7, 8451
12, 33744, Pitch_bend_c, 7, 8471
12, 33745, Pitch_bend_c, 7, 8492
12, 33746, Pitch_bend_c, 7, 8512
12, 33747, Pitch_bend_c, 7, 8540
12, 33748, Pitch_bend_c, 7, 8560
12, 33749, Pitch_bend_c, 7, 8587
12, 33750, Pitch_bend_c, 7, 8622
12, 33751, Pitch_bend_c, 7, 8656
12, 33752, Pitch_bend_c, 7, 8690
12, 33753, Pitch_bend_c, 7, 8724
12, 33754, Pitch_bend_c, 7, 8765
12, 33755, Pitch_bend_c, 7, 8806
12, 33756, Pitch_bend_c, 7, 8854
12, 33757, Pitch_bend_c, 7, 8901
12, 33758, Pitch_bend_c, 7, 8956
12, 33759, Pitch_bend_c, 7, 9011
12, 33760, Pitch_bend_c, 7, 9072
12, 33761, Pitch_bend_c, 7, 9140
12, 33762, Pitch_bend_c, 7, 9209
12, 33763, Pitch_bend_c, 7, 9284
12, 33764, Pitch_bend_c, 7, 9366
12, 33765, Pitch_bend_c, 7, 9454
12, 33766, Pitch_bend_c, 7, 9550
12, 33767, Pitch_bend_c, 7, 9646
12, 33768, Pitch_bend_c, 7, 9755
12, 33769, Pitch_bend_c, 7, 9871
12, 33770, Pitch_bend_c, 7, 10001
12, 33771, Pitch_bend_c, 7, 10137
12, 33772, Pitch_bend_c, 7, 10280
12, 33773, Pitch_bend_c, 7, 10437
12, 33774, Pitch_bend_c, 7, 10601
12, 33775, Pitch_bend_c, 7, 10786
12, 33776, Pitch_bend_c, 7, 10977
12, 33777, Pitch_bend_c, 7, 11182
12, 33778, Pitch_bend_c, 7, 11407
12, 33779, Pitch_bend_c, 7, 11646
12, 33780, Pitch_bend_c, 7, 11905
12, 33781, Pitch_bend_c, 7, 12178
12, 33782, Pitch_bend_c, 7, 12479
12, 33783, Pitch_bend_c, 7, 12800
12, 33784, Pitch_bend_c, 7, 13141
12, 33785, Pitch_bend_c, 7, 13509
12, 33786, Pitch_bend_c, 7, 13905
12, 33787, Pitch_bend_c, 7, 14336
12, 33788, Pitch_bend_c, 7, 14793
12, 33789, Pitch_bend_c, 7, 15284
12, 33790, Pitch_bend_c, 7, 15817
12, 33791, Pitch_bend_c, 7, 16383
12, 35040, Note_off_c, 7, 53, 64
12, 35136, Note_on_c, 7, 53, 127
12, 35136, Pitch_bend_c, 7, 8192
12, 35193, Pitch_bend_c, 7, 8192
12, 35208, Pitch_bend_c, 7, 8192
12, 35215, Pitch_bend_c, 7, 8192
12, 35220, Pitch_bend_c, 7, 8198
12, 35223, Pitch_bend_c, 7, 8198
12, 35226, Pitch_bend_c, 7, 8198
12, 35228, Pitch_bend_c, 7, 8198
12, 35230, Pitch_bend_c, 7, 8198
12, 35232, Pitch_bend_c, 7, 8198
12, 35234, Pitch_bend_c, 7, 8198
12, 35235, Pitch_bend_c, 7, 8205
12, 35236, Pitch_bend_c, 7, 8205
12, 35237, Pitch_bend_c, 7, 8205
12, 35238, Pitch_bend_c, 7, 8205
12, 35239, Pitch_bend_c, 7, 8205
12, 35240, Pitch_bend_c, 7, 8205
12, 35241, Pitch_bend_c, 7, 8205
12, 35242, Pitch_bend_c, 7, 8212
12, 35243, Pitch_bend_c, 7, 8212
12, 35244, Pitch_bend_c, 7, 8212
12, 35245, Pitch_bend_c, 7, 8212
12, 35246, Pitch_bend_c, 7, 8219
12, 35247, Pitch_bend_c, 7, 8219
12, 35248, Pitch_bend_c, 7, 8219
12, 35249, Pitch_bend_c, 7, 8219
12, 35250, Pitch_bend_c, 7, 8226
12, 35251, Pitch_bend_c, 7, 8226
12, 35252, Pitch_bend_c, 7, 8226
12, 35253, Pitch_bend_c, 7, 8232
12, 35254, Pitch_bend_c, 7, 8232
12, 35255, Pitch_bend_c, 7, 8239
12, 35256, Pitch_bend_c, 7, 8239
12, 35257, Pitch_bend_c, 7, 8246
12, 35258, Pitch_bend_c, 7, 8246
12, 35259, Pitch_bend_c, 7, 8253
12, 35260, Pitch_bend_c, 7, 8260
12, 35261, Pitch_bend_c, 7, 8260
12, 35262, Pitch_bend_c, 7, 8267
12, 35263, Pitch_bend_c, 7, 8273
12, 35264, Pitch_bend_c, 7, 8280
12, 35265, Pitch_bend_c, 7, 8287
12, 35266, Pitch_bend_c, 7, 8294
12, 35267, Pitch_bend_c, 7, 8301
12, 35268, Pitch_bend_c, 7, 8308
12, 35269, Pitch_bend_c, 7, 8314
12, 35270, Pitch_bend_c, 7, 8328
12, 35271, Pitch_bend_c, 7, 8335
12, 35272, Pitch_bend_c, 7, 8349
12, 35273, Pitch_bend_c, 7, 8362
12, 35274, Pitch_bend_c, 7, 8376
12, 35275, Pitch_bend_c, 7, 8383
12, 35276, Pitch_bend_c, 7, 8403
12, 35277, Pitch_bend_c, 7, 8417
12, 35278, Pitch_bend_c, 7, 8430
12, 35279, Pitch_bend_c, 7, 8451
12, 35280, Pitch_bend_c, 7, 8471
12, 35281, Pitch_bend_c, 7, 8492
12, 35282, Pitch_bend_c, 7, 8512
12, 35283, Pitch_bend_c, 7, 8540
12, 35284, Pitch_bend_c, 7, 8560
12, 35285, Pitch_bend_c, 7, 8587
12, 35286, Pitch_bend_c, 7, 8622
12, 35287, Pitch_bend_c, 7, 8656
12, 35288, Pitch_bend_c, 7, 8690
12, 35289, Pitch_bend_c, 7, 8724
12, 35290, Pitch_bend_c, 7, 8765
12, 35291, Pitch_bend_c, 7, 8806
12, 35292, Pitch_bend_c, 7, 8854
12, 35293, Pitch_bend_c, 7, 8901
12, 35294, Pitch_bend_c, 7, 8956
12, 35295, Pitch_bend_c, 7, 9011
12, 35296, Pitch_bend_c, 7, 9072
12, 35297, Pitch_bend_c, 7, 9140
12, 35298, Pitch_bend_c, 7, 9209
12, 35299, Pitch_bend_c, 7, 9284
12, 35300, Pitch_bend_c, 7, 9366
12, 35301, Pitch_bend_c, 7, 9454
12, 35302, Pitch_bend_c, 7, 9550
12, 35303, Pitch_bend_c, 7, 9646
12, 35304, Pitch_bend_c, 7, 9755
12, 35305, Pitch_bend_c, 7, 9871
12, 35306, Pitch_bend_c, 7, 10001
12, 35307, Pitch_bend_c, 7, 10137
12, 35308, Pitch_bend_c, 7, 10280
12, 35309, Pitch_bend_c, 7, 10437
12, 35310, Pitch_bend_c, 7, 10601
12, 35311, Pitch_bend_c, 7, 10786
12, 35312, Pitch_bend_c, 7, 10977
12, 35313, Pitch_bend_c, 7, 11182
12, 35314, Pitch_bend_c, 7, 11407
12, 35315, Pitch_bend_c, 7, 11646
12, 35316, Pitch_bend_c, 7, 11905
12, 35317, Pitch_bend_c, 7, 12178
12, 35318, Pitch_bend_c, 7, 12479
12, 35319, Pitch_bend_c, 7, 12800
12, 35320, Pitch_bend_c, 7, 13141
12, 35321, Pitch_bend_c, 7, 13509
12, 35322, Pitch_bend_c, 7, 13905
12, 35323, Pitch_bend_c, 7, 14336
12, 35324, Pitch_bend_c, 7, 14793
12, 35325, Pitch_bend_c, 7, 15284
12, 35326, Pitch_bend_c, 7, 15817
12, 35327, Pitch_bend_c, 7, 16383
12, 36576, Note_off_c, 7, 53, 64
12, 55488, Note_on_c, 7, 53, 127
12, 55488, Pitch_bend_c, 7, 8192
12, 55545, Pitch_bend_c, 7, 8192
12, 55560, Pitch_bend_c, 7, 8192
12, 55567, Pitch_bend_c, 7, 8192
12, 55572, Pitch_bend_c, 7, 8198
12, 55575, Pitch_bend_c, 7, 8198
12, 55578, Pitch_bend_c, 7, 8198
12, 55580, Pitch_bend_c, 7, 8198
12, 55582, Pitch_bend_c, 7, 8198
12, 55584, Pitch_bend_c, 7, 8198
12, 55586, Pitch_bend_c, 7, 8198
12, 55587, Pitch_bend_c, 7, 8205
12, 55588, Pitch_bend_c, 7, 8205
12, 55589, Pitch_bend_c, 7, 8205
12, 55590, Pitch_bend_c, 7, 8205
12, 55591, Pitch_bend_c, 7, 8205
12, 55592, Pitch_bend_c, 7, 8205
12, 55593, Pitch_bend_c, 7, 8205
12, 55594, Pitch_bend_c, 7, 8212
12, 55595, Pitch_bend_c, 7, 8212
12, 55596, Pitch_bend_c, 7, 8212
12, 55597, Pitch_bend_c, 7, 8212
12, 55598, Pitch_bend_c, 7, 8219
12, 55599, Pitch_bend_c, 7, 8219
12, 55600, Pitch_bend_c, 7, 8219
12, 55601, Pitch_bend_c, 7, 8219
12, 55602, Pitch_bend_c, 7, 8226
12, 55603, Pitch_bend_c, 7, 8226
12, 55604, Pitch_bend_c, 7, 8226
12, 55605, Pitch_bend_c, 7, 8232
12, 55606, Pitch_bend_c, 7, 8232
12, 55607, Pitch_bend_c, 7, 8239
12, 55608, Pitch_bend_c, 7, 8239
12, 55609, Pitch_bend_c, 7, 8246
12, 55610, Pitch_bend_c, 7, 8246
12, 55611, Pitch_bend_c, 7, 8253
12, 55612, Pitch_bend_c, 7, 8260
12, 55613, Pitch_bend_c, 7, 8260
12, 55614, Pitch_bend_c, 7, 8267
12, 55615, Pitch_bend_c, 7, 8273
12, 55616, Pitch_bend_c, 7, 8280
12, 55617, Pitch_bend_c, 7, 8287
12, 55618, Pitch_bend_c, 7, 8294
12, 55619, Pitch_bend_c, 7, 8301
12, 55620, Pitch_bend_c, 7, 8308
12, 55621, Pitch_bend_c, 7, 8314
12, 55622, Pitch_bend_c, 7, 8328
12, 55623, Pitch_bend_c, 7, 8335
12, 55624, Pitch_bend_c, 7, 8349
12, 55625, Pitch_bend_c, 7, 8362
12, 55626, Pitch_bend_c, 7, 8376
12, 55627, Pitch_bend_c, 7, 8383
12, 55628, Pitch_bend_c, 7, 8403
12, 55629, Pitch_bend_c, 7, 8417
12, 55630, Pitch_bend_c, 7, 8430
12, 55631, Pitch_bend_c, 7, 8451
12, 55632, Pitch_bend_c, 7, 8471
12, 55633, Pitch_bend_c, 7, 8492
12, 55634, Pitch_bend_c, 7, 8512
12, 55635, Pitch_bend_c, 7, 8540
12, 55636, Pitch_bend_c, 7, 8560
12, 55637, Pitch_bend_c, 7, 8587
12, 55638, Pitch_bend_c, 7, 8622
12, 55639, Pitch_bend_c, 7, 8656
12, 55640, Pitch_bend_c, 7, 8690
12, 55641, Pitch_bend_c, 7, 8724
12, 55642, Pitch_bend_c, 7, 8765
12, 55643, Pitch_bend_c, 7, 8806
12, 55644, Pitch_bend_c, 7, 8854
12, 55645, Pitch_bend_c, 7, 8901
12, 55646, Pitch_bend_c, 7, 8956
12, 55647, Pitch_bend_c, 7, 9011
12, 55648, Pitch_bend_c, 7, 9072
12, 55649, Pitch_bend_c, 7, 9140
12, 55650, Pitch_bend_c, 7, 9209
12, 55651, Pitch_bend_c, 7, 9284
12, 55652, Pitch_bend_c, 7, 9366
12, 55653, Pitch_bend_c, 7, 9454
12, 55654, Pitch_bend_c, 7, 9550
12, 55655, Pitch_bend_c, 7, 9646
12, 55656, Pitch_bend_c, 7, 9755
12, 55657, Pitch_bend_c, 7, 9871
12, 55658, Pitch_bend_c, 7, 10001
12, 55659, Pitch_bend_c, 7, 10137
12, 55660, Pitch_bend_c, 7, 10280
12, 55661, Pitch_bend_c, 7, 10437
12, 55662, Pitch_bend_c, 7, 10601
12, 55663, Pitch_bend_c, 7, 10786
12, 55664, Pitch_bend_c, 7, 10977
12, 55665, Pitch_bend_c, 7, 11182
12, 55666, Pitch_bend_c, 7, 11407
12, 55667, Pitch_bend_c, 7, 11646
12, 55668, Pitch_bend_c, 7, 11905
12, 55669, Pitch_bend_c, 7, 12178
12, 55670, Pitch_bend_c, 7, 12479
12, 55671, Pitch_bend_c, 7, 12800
12, 55672, Pitch_bend_c, 7, 13141
12, 55673, Pitch_bend_c, 7, 13509
12, 55674, Pitch_bend_c, 7, 13905
12, 55675, Pitch_bend_c, 7, 14336
12, 55676, Pitch_bend_c, 7, 14793
12, 55677, Pitch_bend_c, 7, 15284
12, 55678, Pitch_bend_c, 7, 15817
12, 55679, Pitch_bend_c, 7, 16383
12, 56928, Note_off_c, 7, 53, 64
12, 57024, Note_on_c, 7, 53, 127
12, 57024, Pitch_bend_c, 7, 8192
12, 57081, Pitch_bend_c, 7, 8192
12, 57096, Pitch_bend_c, 7, 8192
12, 57103, Pitch_bend_c, 7, 8192
12, 57108, Pitch_bend_c, 7, 8198
12, 57111, Pitch_bend_c, 7, 8198
12, 57114, Pitch_bend_c, 7, 8198
12, 57116, Pitch_bend_c, 7, 8198
12, 57118, Pitch_bend_c, 7, 8198
12, 57120, Pitch_bend_c, 7, 8198
12, 57122, Pitch_bend_c, 7, 8198
12, 57123, Pitch_bend_c, 7, 8205
12, 57124, Pitch_bend_c, 7, 8205
12, 57125, Pitch_bend_c, 7, 8205
12, 57126, Pitch_bend_c, 7, 8205
12, 57127, Pitch_bend_c, 7, 8205
12, 57128, Pitch_bend_c, 7, 8205
12, 57129, Pitch_bend_c, 7, 8205
12, 57130, Pitch_bend_c, 7, 8212
12, 57131, Pitch_bend_c, 7, 8212
12, 57132, Pitch_bend_c, 7, 8212
12, 57133, Pitch_bend_c, 7, 8212
12, 57134, Pitch_bend_c, 7, 8219
12, 57135, Pitch_bend_c, 7, 8219
12, 57136, Pitch_bend_c, 7, 8219
12, 57137, Pitch_bend_c, 7, 8219
12, 57138, Pitch_bend_c, 7, 8226
12, 57139, Pitch_bend_c, 7, 8226
12, 57140, Pitch_bend_c, 7, 8226
12, 57141, Pitch_bend_c, 7, 8232
12, 57142, Pitch_bend_c, 7, 8232
12, 57143, Pitch_bend_c, 7, 8239
12, 57144, Pitch_bend_c, 7, 8239
12, 57145, Pitch_bend_c, 7, 8246
12, 57146, Pitch_bend_c, 7, 8246
12, 57147, Pitch_bend_c, 7, 8253
12, 57148, Pitch_bend_c, 7, 8260
12, 57149, Pitch_bend_c, 7, 8260
12, 57150, Pitch_bend_c, 7, 8267
12, 57151, Pitch_bend_c, 7, 8273
12, 57152, Pitch_bend_c, 7, 8280
12, 57153, Pitch_bend_c, 7, 8287
12, 57154, Pitch_bend_c, 7, 8294
12, 57155, Pitch_bend_c, 7, 8301
12, 57156, Pitch_bend_c, 7, 8308
12, 57157, Pitch_bend_c, 7, 8314
12, 57158, Pitch_bend_c, 7, 8328
12, 57159, Pitch_bend_c, 7, 8335
12, 57160, Pitch_bend_c, 7, 8349
12, 57161, Pitch_bend_c, 7, 8362
12, 57162, Pitch_bend_c, 7, 8376
12, 57163, Pitch_bend_c, 7, 8383
12, 57164, Pitch_bend_c, 7, 8403
12, 57165, Pitch_bend_c, 7, 8417
12, 57166, Pitch_bend_c, 7, 8430
12, 57167, Pitch_bend_c, 7, 8451
12, 57168, Pitch_bend_c, 7, 8471
12, 57169, Pitch_bend_c, 7, 8492
12, 57170, Pitch_bend_c, 7, 8512
12, 57171, Pitch_bend_c, 7, 8540
12, 57172, Pitch_bend_c, 7, 8560
12, 57173, Pitch_bend_c, 7, 8587
12, 57174, Pitch_bend_c, 7, 8622
12, 57175, Pitch_bend_c, 7, 8656
12, 57176, Pitch_bend_c, 7, 8690
12, 57177, Pitch_bend_c, 7, 8724
12, 57178, Pitch_bend_c, 7, 8765
12, 57179, Pitch_bend_c, 7, 8806
12, 57180, Pitch_bend_c, 7, 8854
12, 57181, Pitch_bend_c, 7, 8901
12, 57182, Pitch_bend_c, 7, 8956
12, 57183, Pitch_bend_c, 7, 9011
12, 57184, Pitch_bend_c, 7, 9072
12, 57185, Pitch_bend_c, 7, 9140
12, 57186, Pitch_bend_c, 7, 9209
12, 57187, Pitch_bend_c, 7, 9284
12, 57188, Pitch_bend_c, 7, 9366
12, 57189, Pitch_bend_c, 7, 9454
12, 57190, Pitch_bend_c, 7, 9550
12, 57191, Pitch_bend_c, 7, 9646
12, 57192, Pitch_bend_c, 7, 9755
12, 57193, Pitch_bend_c, 7, 9871
12, 57194, Pitch_bend_c, 7, 10001
12, 57195, Pitch_bend_c, 7, 10137
12, 57196, Pitch_bend_c, 7, 10280
12, 57197, Pitch_bend_c, 7, 10437
12, 57198, Pitch_bend_c, 7, 10601
12, 57199, Pitch_bend_c, 7, 10786
12, 57200, Pitch_bend_c, 7, 10977
12, 57201, Pitch_bend_c, 7, 11182
12, 57202, Pitch_bend_c, 7, 11407
12, 57203, Pitch_bend_c, 7, 11646
12, 57204, Pitch_bend_c, 7, 11905
12, 57205, Pitch_bend_c, 7, 12178
12, 57206, Pitch_bend_c, 7, 12479
12, 57207, Pitch_bend_c, 7, 12800
12, 57208, Pitch_bend_c, 7, 13141
12, 57209, Pitch_bend_c, 7, 13509
12, 57210, Pitch_bend_c, 7, 13905
12, 57211, Pitch_bend_c, 7, 14336
12, 57212, Pitch_bend_c, 7, 14793
12, 57213, Pitch_bend_c, 7, 15284
12, 57214, Pitch_bend_c, 7, 15817
12, 57215, Pitch_bend_c, 7, 16383
12, 58464, Note_off_c, 7, 53, 64
12, 58560, Note_on_c, 7, 53, 127
12, 58560, Pitch_bend_c, 7, 8192
12, 58617, Pitch_bend_c, 7, 8192
12, 58632, Pitch_bend_c, 7, 8192
12, 58639, Pitch_bend_c, 7, 8192
12, 58644, Pitch_bend_c, 7, 8198
12, 58647, Pitch_bend_c, 7, 8198
12, 58650, Pitch_bend_c, 7, 8198
12, 58652, Pitch_bend_c, 7, 8198
12, 58654, Pitch_bend_c, 7, 8198
12, 58656, Pitch_bend_c, 7, 8198
12, 58658, Pitch_bend_c, 7, 8198
12, 58659, Pitch_bend_c, 7, 8205
12, 58660, Pitch_bend_c, 7, 8205
12, 58661, Pitch_bend_c, 7, 8205
12, 58662, Pitch_bend_c, 7, 8205
12, 58663, Pitch_bend_c, 7, 8205
12, 58664, Pitch_bend_c, 7, 8205
12, 58665, Pitch_bend_c, 7, 8205
12, 58666, Pitch_bend_c, 7, 8212
12, 58667, Pitch_bend_c, 7, 8212
12, 58668, Pitch_bend_c, 7, 8212
12, 58669, Pitch_bend_c, 7, 8212
12, 58670, Pitch_bend_c, 7, 8219
12, 58671, Pitch_bend_c, 7, 8219
12, 58672, Pitch_bend_c, 7, 8219
12, 58673, Pitch_bend_c, 7, 8219
12, 58674, Pitch_bend_c, 7, 8226
12, 58675, Pitch_bend_c, 7, 8226
12, 58676, Pitch_bend_c, 7, 8226
12, 58677, Pitch_bend_c, 7, 8232
12, 58678, Pitch_bend_c, 7, 8232
12, 58679, Pitch_bend_c, 7, 8239
12, 58680, Pitch_bend_c, 7, 8239
12, 58681, Pitch_bend_c, 7, 8246
12, 58682, Pitch_bend_c, 7, 8246
12, 58683, Pitch_bend_c, 7, 8253
12, 58684, Pitch_bend_c, 7, 8260
12, 58685, Pitch_bend_c, 7, 8260
12, 58686, Pitch_bend_c, 7, 8267
12, 58687, Pitch_bend_c, 7, 8273
12, 58688, Pitch_bend_c, 7, 8280
12, 58689, Pitch_bend_c, 7, 8287
12, 58690, Pitch_bend_c, 7, 8294
12, 58691, Pitch_bend_c, 7, 8301
12, 58692, Pitch_bend_c, 7, 8308
12, 58693, Pitch_bend_c, 7, 8314
12, 58694, Pitch_bend_c, 7, 8328
12, 58695, Pitch_bend_c, 7, 8335
12, 58696, Pitch_bend_c, 7, 8349
12, 58697, Pitch_bend_c, 7, 8362
12, 58698, Pitch_bend_c, 7, 8376
12, 58699, Pitch_bend_c, 7, 8383
12, 58700, Pitch_bend_c, 7, 8403
12, 58701, Pitch_bend_c, 7, 8417
12, 58702, Pitch_bend_c, 7, 8430
12, 58703, Pitch_bend_c, 7, 8451
12, 58704, Pitch_bend_c, 7, 8471
12, 58705, Pitch_bend_c, 7, 8492
12, 58706, Pitch_bend_c, 7, 8512
12, 58707, Pitch_bend_c, 7, 8540
12, 58708, Pitch_bend_c, 7, 8560
12, 58709, Pitch_bend_c, 7, 8587
12, 58710, Pitch_bend_c, 7, 8622
12, 58711, Pitch_bend_c, 7, 8656
12, 58712, Pitch_bend_c, 7, 8690
12, 58713, Pitch_bend_c, 7, 8724
12, 58714, Pitch_bend_c, 7, 8765
12, 58715, Pitch_bend_c, 7, 8806
12, 58716, Pitch_bend_c, 7, 8854
12, 58717, Pitch_bend_c, 7, 8901
12, 58718, Pitch_bend_c, 7, 8956
12, 58719, Pitch_bend_c, 7, 9011
12, 58720, Pitch_bend_c, 7, 9072
12, 58721, Pitch_bend_c, 7, 9140
12, 58722, Pitch_bend_c, 7, 9209
12, 58723, Pitch_bend_c, 7, 9284
12, 58724, Pitch_bend_c, 7, 9366
12, 58725, Pitch_bend_c, 7, 9454
12, 58726, Pitch_bend_c, 7, 9550
12, 58727, Pitch_bend_c, 7, 9646
12, 58728, Pitch_bend_c, 7, 9755
12, 58729, Pitch_bend_c, 7, 9871
12, 58730, Pitch_bend_c, 7, 10001
12, 58731, Pitch_bend_c, 7, 10137
12, 58732, Pitch_bend_c, 7, 10280
12, 58733, Pitch_bend_c, 7, 10437
12, 58734, Pitch_bend_c, 7, 10601
12, 58735, Pitch_bend_c, 7, 10786
12, 58736, Pitch_bend_c, 7, 10977
12, 58737, Pitch_bend_c, 7, 11182
12, 58738, Pitch_bend_c, 7, 11407
12, 58739, Pitch_bend_c, 7, 11646
12, 58740, Pitch_bend_c, 7, 11905
12, 58741, Pitch_bend_c, 7, 12178
12, 58742, Pitch_bend_c, 7, 12479
12, 58743, Pitch_bend_c, 7, 12800
12, 58744, Pitch_bend_c, 7, 13141
12, 58745, Pitch_bend_c, 7, 13509
12, 58746, Pitch_bend_c, 7, 13905
12, 58747, Pitch_bend_c, 7, 14336
12, 58748, Pitch_bend_c, 7, 14793
12, 58749, Pitch_bend_c, 7, 15284
12, 58750, Pitch_bend_c, 7, 15817
12, 58751, Pitch_bend_c, 7, 16383
12, 60000, Note_off_c, 7, 53, 64
12, 60096, Note_on_c, 7, 53, 127
12, 60096, Pitch_bend_c, 7, 8192
12, 60153, Pitch_bend_c, 7, 8192
12, 60168, Pitch_bend_c, 7, 8192
12, 60175, Pitch_bend_c, 7, 8192
12, 60180, Pitch_bend_c, 7, 8198
12, 60183, Pitch_bend_c, 7, 8198
12, 60186, Pitch_bend_c, 7, 8198
12, 60188, Pitch_bend_c, 7, 8198
12, 60190, Pitch_bend_c, 7, 8198
12, 60192, Pitch_bend_c, 7, 8198
12, 60194, Pitch_bend_c, 7, 8198
12, 60195, Pitch_bend_c, 7, 8205
12, 60196, Pitch_bend_c, 7, 8205
12, 60197, Pitch_bend_c, 7, 8205
12, 60198, Pitch_bend_c, 7, 8205
12, 60199, Pitch_bend_c, 7, 8205
12, 60200, Pitch_bend_c, 7, 8205
12, 60201, Pitch_bend_c, 7, 8205
12, 60202, Pitch_bend_c, 7, 8212
12, 60203, Pitch_bend_c, 7, 8212
12, 60204, Pitch_bend_c, 7, 8212
12, 60205, Pitch_bend_c, 7, 8212
12, 60206, Pitch_bend_c, 7, 8219
12, 60207, Pitch_bend_c, 7, 8219
12, 60208, Pitch_bend_c, 7, 8219
12, 60209, Pitch_bend_c, 7, 8219
12, 60210, Pitch_bend_c, 7, 8226
12, 60211, Pitch_bend_c, 7, 8226
12, 60212, Pitch_bend_c, 7, 8226
12, 60213, Pitch_bend_c, 7, 8232
12, 60214, Pitch_bend_c, 7, 8232
12, 60215, Pitch_bend_c, 7, 8239
12, 60216, Pitch_bend_c, 7, 8239
12, 60217, Pitch_bend_c, 7, 8246
12, 60218, Pitch_bend_c, 7, 8246
12, 60219, Pitch_bend_c, 7, 8253
12, 60220, Pitch_bend_c, 7, 8260
12, 60221, Pitch_bend_c, 7, 8260
12, 60222, Pitch_bend_c, 7, 8267
12, 60223, Pitch_bend_c, 7, 8273
12, 60224, Pitch_bend_c, 7, 8280
12, 60225, Pitch_bend_c, 7, 8287
12, 60226, Pitch_bend_c, 7, 8294
12, 60227, Pitch_bend_c, 7, 8301
12, 60228, Pitch_bend_c, 7, 8308
12, 60229, Pitch_bend_c, 7, 8314
12, 60230, Pitch_bend_c, 7, 8328
12, 60231, Pitch_bend_c, 7, 8335
12, 60232, Pitch_bend_c, 7, 8349
12, 60233, Pitch_bend_c, 7, 8362
12, 60234, Pitch_bend_c, 7, 8376
12, 60235, Pitch_bend_c, 7, 8383
12, 60236, Pitch_bend_c, 7, 8403
12, 60237, Pitch_bend_c, 7, 8417
12, 60238, Pitch_bend_c, 7, 8430
12, 60239, Pitch_bend_c, 7, 8451
12, 60240, Pitch_bend_c, 7, 8471
12, 60241, Pitch_bend_c, 7, 8492
12, 60242, Pitch_bend_c, 7, 8512
12, 60243, Pitch_bend_c, 7, 8540
12, 60244, Pitch_bend_c, 7, 8560
12, 60245, Pitch_bend_c, 7, 8587
12, 60246, Pitch_bend_c, 7, 8622
12, 60247, Pitch_bend_c, 7, 8656
12, 60248, Pitch_bend_c, 7, 8690
12, 60249, Pitch_bend_c, 7, 8724
12, 60250, Pitch_bend_c, 7, 8765
12, 60251, Pitch_bend_c, 7, 8806
12, 60252, Pitch_bend_c, 7, 8854
12, 60253, Pitch_bend_c, 7, 8901
12, 60254, Pitch_bend_c, 7, 8956
12, 60255, Pitch_bend_c, 7, 9011
12, 60256, Pitch_bend_c, 7, 9072
12, 60257, Pitch_bend_c, 7, 9140
12, 60258, Pitch_bend_c, 7, 9209
12, 60259, Pitch_bend_c, 7, 9284
12, 60260, Pitch_bend_c, 7, 9366
12, 60261, Pitch_bend_c, 7, 9454
12, 60262, Pitch_bend_c, 7, 9550
12, 60263, Pitch_bend_c, 7, 9646
12, 60264, Pitch_bend_c, 7, 9755
12, 60265, Pitch_bend_c, 7, 9871
12, 60266, Pitch_bend_c, 7, 10001
12, 60267, Pitch_bend_c, 7, 10137
12, 60268, Pitch_bend_c, 7, 10280
12, 60269, Pitch_bend_c, 7, 10437
12, 60270, Pitch_bend_c, 7, 10601
12, 60271, Pitch_bend_c, 7, 10786
12, 60272, Pitch_bend_c, 7, 10977
12, 60273, Pitch_bend_c, 7, 11182
12, 60274, Pitch_bend_c, 7, 11407
12, 60275, Pitch_bend_c, 7, 11646
12, 60276, Pitch_bend_c, 7, 11905
12, 60277, Pitch_bend_c, 7, 12178
12, 60278, Pitch_bend_c, 7, 12479
12, 60279, Pitch_bend_c, 7, 12800
12, 60280, Pitch_bend_c, 7, 13141
12, 60281, Pitch_bend_c, 7, 13509
12, 60282, Pitch_bend_c, 7, 13905
12, 60283, Pitch_bend_c, 7, 14336
12, 60284, Pitch_bend_c, 7, 14793
12, 60285, Pitch_bend_c, 7, 15284
12, 60286, Pitch_bend_c, 7, 15817
12, 60287, Pitch_bend_c, 7, 16383
12, 61536, Note_off_c, 7, 53, 64
12, 63396, Control_c, 7, 101, 0
12, 63396, Control_c, 7, 100, 0
12, 63396, Control_c, 7, 6, 12
12, 63396, Control_c, 7, 10, 64
12, 63396, Control_c, 7, 7, 71
12, 63396, Pitch_bend_c, 7, 16383
12, 63396, Program_c, 7, 81
12, 63396, Control_c, 7, 1, 49
12, 63396, Pitch_bend_c, 7, 8192
12, 63397, Control_c, 7, 101, 0
12, 63397, Control_c, 7, 100, 0
12, 63397, Control_c, 7, 6, 12
12, 63397, Control_c, 7, 10, 64
12, 63397, Control_c, 7, 7, 71
12, 63397, Pitch_bend_c, 7, 16383
12, 63397, Program_c, 7, 81
12, 63397, Control_c, 7, 1, 49
12, 63397, End_track
13, 0, Start_track
13, 0, Title_t, "MIDI Out #3"
13, 0, Control_c, 8, 10, 64
13, 0, Control_c, 8, 7, 89
13, 0, Pitch_bend_c, 8, 8192
13, 0, Control_c, 8, 101, 0
13, 0, Control_c, 8, 100, 0
13, 0, Control_c, 8, 6, 12
13, 0, Control_c, 8, 10, 64
13, 0, Control_c, 8, 7, 89
13, 0, Pitch_bend_c, 8, 8192
13, 0, Program_c, 8, 87
13, 0, Control_c, 8, 1, 49
13, 0, Pitch_bend_c, 8, 8192
13, 0, Control_c, 8, 101, 0
13, 0, Control_c, 8, 100, 0
13, 0, Control_c, 8, 6, 12
13, 0, Control_c, 8, 10, 64
13, 0, Control_c, 8, 7, 89
13, 0, Pitch_bend_c, 8, 8192
13, 0, Program_c, 8, 87
13, 0, Control_c, 8, 1, 49
13, 0, Control_c, 8, 101, 0
13, 0, Control_c, 8, 100, 0
13, 0, Control_c, 8, 6, 12
13, 0, Control_c, 8, 10, 64
13, 0, Control_c, 8, 7, 89
13, 0, Pitch_bend_c, 8, 8192
13, 0, Program_c, 8, 87
13, 0, Control_c, 8, 1, 49
13, 15168, Note_on_c, 8, 53, 127
13, 15168, Pitch_bend_c, 8, 8192
13, 15225, Pitch_bend_c, 8, 8192
13, 15240, Pitch_bend_c, 8, 8192
13, 15247, Pitch_bend_c, 8, 8192
13, 15252, Pitch_bend_c, 8, 8198
13, 15255, Pitch_bend_c, 8, 8198
13, 15258, Pitch_bend_c, 8, 8198
13, 15260, Pitch_bend_c, 8, 8198
13, 15262, Pitch_bend_c, 8, 8198
13, 15264, Pitch_bend_c, 8, 8198
13, 15266, Pitch_bend_c, 8, 8198
13, 15267, Pitch_bend_c, 8, 8205
13, 15268, Pitch_bend_c, 8, 8205
13, 15269, Pitch_bend_c, 8, 8205
13, 15270, Pitch_bend_c, 8, 8205
13, 15271, Pitch_bend_c, 8, 8205
13, 15272, Pitch_bend_c, 8, 8205
13, 15273, Pitch_bend_c, 8, 8205
13, 15274, Pitch_bend_c, 8, 8212
13, 15275, Pitch_bend_c, 8, 8212
13, 15276, Pitch_bend_c, 8, 8212
13, 15277, Pitch_bend_c, 8, 8212
13, 15278, Pitch_bend_c, 8, 8219
13, 15279, Pitch_bend_c, 8, 8219
13, 15280, Pitch_bend_c, 8, 8219
13, 15281, Pitch_bend_c, 8, 8219
13, 15282, Pitch_bend_c, 8, 8226
13, 15283, Pitch_bend_c, 8, 8226
13, 15284, Pitch_bend_c, 8, 8226
13, 15285, Pitch_bend_c, 8, 8232
13, 15286, Pitch_bend_c, 8, 8232
13, 15287, Pitch_bend_c, 8, 8239
13, 15288, Pitch_bend_c, 8, 8239
13, 15289, Pitch_bend_c, 8, 8246
13, 15290, Pitch_bend_c, 8, 8246
13, 15291, Pitch_bend_c, 8, 8253
13, 15292, Pitch_bend_c, 8, 8260
13, 15293, Pitch_bend_c, 8, 8260
13, 15294, Pitch_bend_c, 8, 8267
13, 15295, Pitch_bend_c, 8, 8273
13, 15296, Pitch_bend_c, 8, 8280
13, 15297, Pitch_bend_c, 8, 8287
13, 15298, Pitch_bend_c, 8, 8294
13, 15299, Pitch_bend_c, 8, 8301
13, 15300, Pitch_bend_c, 8, 8308
13, 15301, Pitch_bend_c, 8, 8314
13, 15302, Pitch_bend_c, 8, 8328
13, 15303, Pitch_bend_c, 8, 8335
13, 15304, Pitch_bend_c, 8, 8349
13, 15305, Pitch_bend_c, 8, 8362
13, 15306, Pitch_bend_c, 8, 8376
13, 15307, Pitch_bend_c, 8, 8383
13, 15308, Pitch_bend_c, 8, 8403
13, 15309, Pitch_bend_c, 8, 8417
13, 15310, Pitch_bend_c, 8, 8430
13, 15311, Pitch_bend_c, 8, 8451
13, 15312, Pitch_bend_c, 8, 8471
13, 15313, Pitch_bend_c, 8, 8492
13, 15314, Pitch_bend_c, 8, 8512
13, 15315, Pitch_bend_c, 8, 8540
13, 15316, Pitch_bend_c, 8, 8560
13, 15317, Pitch_bend_c, 8, 8587
13, 15318, Pitch_bend_c, 8, 8622
13, 15319, Pitch_bend_c, 8, 8656
13, 15320, Pitch_bend_c, 8, 8690
13, 15321, Pitch_bend_c, 8, 8724
13, 15322, Pitch_bend_c, 8, 8765
13, 15323, Pitch_bend_c, 8, 8806
13, 15324, Pitch_bend_c, 8, 8854
13, 15325, Pitch_bend_c, 8, 8901
13, 15326, Pitch_bend_c, 8, 8956
13, 15327, Pitch_bend_c, 8, 9011
13, 15328, Pitch_bend_c, 8, 9072
13, 15329, Pitch_bend_c, 8, 9140
13, 15330, Pitch_bend_c, 8, 9209
13, 15331, Pitch_bend_c, 8, 9284
13, 15332, Pitch_bend_c, 8, 9366
13, 15333, Pitch_bend_c, 8, 9454
13, 15334, Pitch_bend_c, 8, 9550
13, 15335, Pitch_bend_c, 8, 9646
13, 15336, Pitch_bend_c, 8, 9755
13, 15337, Pitch_bend_c, 8, 9871
13, 15338, Pitch_bend_c, 8, 10001
13, 15339, Pitch_bend_c, 8, 10137
13, 15340, Pitch_bend_c, 8, 10280
13, 15341, Pitch_bend_c, 8, 10437
13, 15342, Pitch_bend_c, 8, 10601
13, 15343, Pitch_bend_c, 8, 10786
13, 15344, Pitch_bend_c, 8, 10977
13, 15345, Pitch_bend_c, 8, 11182
13, 15346, Pitch_bend_c, 8, 11407
13, 15347, Pitch_bend_c, 8, 11646
13, 15348, Pitch_bend_c, 8, 11905
13, 15349, Pitch_bend_c, 8, 12178
13, 15350, Pitch_bend_c, 8, 12479
13, 15351, Pitch_bend_c, 8, 12800
13, 15352, Pitch_bend_c, 8, 13141
13, 15353, Pitch_bend_c, 8, 13509
13, 15354, Pitch_bend_c, 8, 13905
13, 15355, Pitch_bend_c, 8, 14336
13, 15356, Pitch_bend_c, 8, 14793
13, 15357, Pitch_bend_c, 8, 15284
13, 15358, Pitch_bend_c, 8, 15817
13, 15359, Pitch_bend_c, 8, 16383
13, 16608, Note_off_c, 8, 53, 64
13, 16704, Note_on_c, 8, 53, 127
13, 16704, Pitch_bend_c, 8, 8192
13, 16761, Pitch_bend_c, 8, 8192
13, 16776, Pitch_bend_c, 8, 8192
13, 16783, Pitch_bend_c, 8, 8192
13, 16788, Pitch_bend_c, 8, 8198
13, 16791, Pitch_bend_c, 8, 8198
13, 16794, Pitch_bend_c, 8, 8198
13, 16796, Pitch_bend_c, 8, 8198
13, 16798, Pitch_bend_c, 8, 8198
13, 16800, Pitch_bend_c, 8, 8198
13, 16802, Pitch_bend_c, 8, 8198
13, 16803, Pitch_bend_c, 8, 8205
13, 16804, Pitch_bend_c, 8, 8205
13, 16805, Pitch_bend_c, 8, 8205
13, 16806, Pitch_bend_c, 8, 8205
13, 16807, Pitch_bend_c, 8, 8205
13, 16808, Pitch_bend_c, 8, 8205
13, 16809, Pitch_bend_c, 8, 8205
13, 16810, Pitch_bend_c, 8, 8212
13, 16811, Pitch_bend_c, 8, 8212
13, 16812, Pitch_bend_c, 8, 8212
13, 16813, Pitch_bend_c, 8, 8212
13, 16814, Pitch_bend_c, 8, 8219
13, 16815, Pitch_bend_c, 8, 8219
13, 16816, Pitch_bend_c, 8, 8219
13, 16817, Pitch_bend_c, 8, 8219
13, 16818, Pitch_bend_c, 8, 8226
13, 16819, Pitch_bend_c, 8, 8226
13, 16820, Pitch_bend_c, 8, 8226
13, 16821, Pitch_bend_c, 8, 8232
13, 16822, Pitch_bend_c, 8, 8232
13, 16823, Pitch_bend_c, 8, 8239
13, 16824, Pitch_bend_c, 8, 8239
13, 16825, Pitch_bend_c, 8, 8246
13, 16826, Pitch_bend_c, 8, 8246
13, 16827, Pitch_bend_c, 8, 8253
13, 16828, Pitch_bend_c, 8, 8260
13, 16829, Pitch_bend_c, 8, 8260
13, 16830, Pitch_bend_c, 8, 8267
13, 16831, Pitch_bend_c, 8, 8273
13, 16832, Pitch_bend_c, 8, 8280
13, 16833, Pitch_bend_c, 8, 8287
13, 16834, Pitch_bend_c, 8, 8294
13, 16835, Pitch_bend_c, 8, 8301
13, 16836, Pitch_bend_c, 8, 8308
13, 16837, Pitch_bend_c, 8, 8314
13, 16838, Pitch_bend_c, 8, 8328
13, 16839, Pitch_bend_c, 8, 8335
13, 16840, Pitch_bend_c, 8, 8349
13, 16841, Pitch_bend_c, 8, 8362
13, 16842, Pitch_bend_c, 8, 8376
13, 16843, Pitch_bend_c, 8, 8383
13, 16844, Pitch_bend_c, 8, 8403
13, 16845, Pitch_bend_c, 8, 8417
13, 16846, Pitch_bend_c, 8, 8430
13, 16847, Pitch_bend_c, 8, 8451
13, 16848, Pitch_bend_c, 8, 8471
13, 16849, Pitch_bend_c, 8, 8492
13, 16850, Pitch_bend_c, 8, 8512
13, 16851, Pitch_bend_c, 8, 8540
13, 16852, Pitch_bend_c, 8, 8560
13, 16853, Pitch_bend_c, 8, 8587
13, 16854, Pitch_bend_c, 8, 8622
13, 16855, Pitch_bend_c, 8, 8656
13, 16856, Pitch_bend_c, 8, 8690
13, 16857, Pitch_bend_c, 8, 8724
13, 16858, Pitch_bend_c, 8, 8765
13, 16859, Pitch_bend_c, 8, 8806
13, 16860, Pitch_bend_c, 8, 8854
13, 16861, Pitch_bend_c, 8, 8901
13, 16862, Pitch_bend_c, 8, 8956
13, 16863, Pitch_bend_c, 8, 9011
13, 16864, Pitch_bend_c, 8, 9072
13, 16865, Pitch_bend_c, 8, 9140
13, 16866, Pitch_bend_c, 8, 9209
13, 16867, Pitch_bend_c, 8, 9284
13, 16868, Pitch_bend_c, 8, 9366
13, 16869, Pitch_bend_c, 8, 9454
13, 16870, Pitch_bend_c, 8, 9550
13, 16871, Pitch_bend_c, 8, 9646
13, 16872, Pitch_bend_c, 8, 9755
13, 16873, Pitch_bend_c, 8, 9871
13, 16874, Pitch_bend_c, 8, 10001
13, 16875, Pitch_bend_c, 8, 10137
13, 16876, Pitch_bend_c, 8, 10280
13, 16877, Pitch_bend_c, 8, 10437
13, 16878, Pitch_bend_c, 8, 10601
13, 16879, Pitch_bend_c, 8, 10786
13, 16880, Pitch_bend_c, 8, 10977
13, 16881, Pitch_bend_c, 8, 11182
13, 16882, Pitch_bend_c, 8, 11407
13, 16883, Pitch_bend_c, 8, 11646
13, 16884, Pitch_bend_c, 8, 11905
13, 16885, Pitch_bend_c, 8, 12178
13, 16886, Pitch_bend_c, 8, 12479
13, 16887, Pitch_bend_c, 8, 12800
13, 16888, Pitch_bend_c, 8, 13141
13, 16889, Pitch_bend_c, 8, 13509
13, 16890, Pitch_bend_c, 8, 13905
13, 16891, Pitch_bend_c, 8, 14336
13, 16892, Pitch_bend_c, 8, 14793
13, 16893, Pitch_bend_c, 8, 15284
13, 16894, Pitch_bend_c, 8, 15817
13, 16895, Pitch_bend_c, 8, 16383
13, 18144, Note_off_c, 8, 53, 64
13, 30528, Note_on_c, 8, 53, 127
13, 30528, Pitch_bend_c, 8, 8192
13, 30585, Pitch_bend_c, 8, 8192
13, 30600, Pitch_bend_c, 8, 8192
13, 30607, Pitch_bend_c, 8, 8192
13, 30612, Pitch_bend_c, 8, 8198
13, 30615, Pitch_bend_c, 8, 8198
13, 30618, Pitch_bend_c, 8, 8198
13, 30620, Pitch_bend_c, 8, 8198
13, 30622, Pitch_bend_c, 8, 8198
13, 30624, Pitch_bend_c, 8, 8198
13, 30626, Pitch_bend_c, 8, 8198
13, 30627, Pitch_bend_c, 8, 8205
13, 30628, Pitch_bend_c, 8, 8205
13, 30629, Pitch_bend_c, 8, 8205
13, 30630, Pitch_bend_c, 8, 8205
13, 30631, Pitch_bend_c, 8, 8205
13, 30632, Pitch_bend_c, 8, 8205
13, 30633, Pitch_bend_c, 8, 8205
13, 30634, Pitch_bend_c, 8, 8212
13, 30635, Pitch_bend_c, 8, 8212
13, 30636, Pitch_bend_c, 8, 8212
13, 30637, Pitch_bend_c, 8, 8212
13, 30638, Pitch_bend_c, 8, 8219
13, 30639, Pitch_bend_c, 8, 8219
13, 30640, Pitch_bend_c, 8, 8219
13, 30641, Pitch_bend_c, 8, 8219
13, 30642, Pitch_bend_c, 8, 8226
13, 30643, Pitch_bend_c, 8, 8226
13, 30644, Pitch_bend_c, 8, 8226
13, 30645, Pitch_bend_c, 8, 8232
13, 30646, Pitch_bend_c, 8, 8232
13, 30647, Pitch_bend_c, 8, 8239
13, 30648, Pitch_bend_c, 8, 8239
13, 30649, Pitch_bend_c, 8, 8246
13, 30650, Pitch_bend_c, 8, 8246
13, 30651, Pitch_bend_c, 8, 8253
13, 30652, Pitch_bend_c, 8, 8260
13, 30653, Pitch_bend_c, 8, 8260
13, 30654, Pitch_bend_c, 8, 8267
13, 30655, Pitch_bend_c, 8, 8273
13, 30656, Pitch_bend_c, 8, 8280
13, 30657, Pitch_bend_c, 8, 8287
13, 30658, Pitch_bend_c, 8, 8294
13, 30659, Pitch_bend_c, 8, 8301
13, 30660, Pitch_bend_c, 8, 8308
13, 30661, Pitch_bend_c, 8, 8314
13, 30662, Pitch_bend_c, 8, 8328
13, 30663, Pitch_bend_c, 8, 8335
13, 30664, Pitch_bend_c, 8, 8349
13, 30665, Pitch_bend_c, 8, 8362
13, 30666, Pitch_bend_c, 8, 8376
13, 30667, Pitch_bend_c, 8, 8383
13, 30668, Pitch_bend_c, 8, 8403
13, 30669, Pitch_bend_c, 8, 8417
13, 30670, Pitch_bend_c, 8, 8430
13, 30671, Pitch_bend_c, 8, 8451
13, 30672, Pitch_bend_c, 8, 8471
13, 30673, Pitch_bend_c, 8, 8492
13, 30674, Pitch_bend_c, 8, 8512
13, 30675, Pitch_bend_c, 8, 8540
13, 30676, Pitch_bend_c, 8, 8560
13, 30677, Pitch_bend_c, 8, 8587
13, 30678, Pitch_bend_c, 8, 8622
13, 30679, Pitch_bend_c, 8, 8656
13, 30680, Pitch_bend_c, 8, 8690
13, 30681, Pitch_bend_c, 8, 8724
13, 30682, Pitch_bend_c, 8, 8765
13, 30683, Pitch_bend_c, 8, 8806
13, 30684, Pitch_bend_c, 8, 8854
13, 30685, Pitch_bend_c, 8, 8901
13, 30686, Pitch_bend_c, 8, 8956
13, 30687, Pitch_bend_c, 8, 9011
13, 30688, Pitch_bend_c, 8, 9072
13, 30689, Pitch_bend_c, 8, 9140
13, 30690, Pitch_bend_c, 8, 9209
13, 30691, Pitch_bend_c, 8, 9284
13, 30692, Pitch_bend_c, 8, 9366
13, 30693, Pitch_bend_c, 8, 9454
13, 30694, Pitch_bend_c, 8, 9550
13, 30695, Pitch_bend_c, 8, 9646
13, 30696, Pitch_bend_c, 8, 9755
13, 30697, Pitch_bend_c, 8, 9871
13, 30698, Pitch_bend_c, 8, 10001
13, 30699, Pitch_bend_c, 8, 10137
13, 30700, Pitch_bend_c, 8, 10280
13, 30701, Pitch_bend_c, 8, 10437
13, 30702, Pitch_bend_c, 8, 10601
13, 30703, Pitch_bend_c, 8, 10786
13, 30704, Pitch_bend_c, 8, 10977
13, 30705, Pitch_bend_c, 8, 11182
13, 30706, Pitch_bend_c, 8, 11407
13, 30707, Pitch_bend_c, 8, 11646
13, 30708, Pitch_bend_c, 8, 11905
13, 30709, Pitch_bend_c, 8, 12178
13, 30710, Pitch_bend_c, 8, 12479
13, 30711, Pitch_bend_c, 8, 12800
13, 30712, Pitch_bend_c, 8, 13141
13, 30713, Pitch_bend_c, 8, 13509
13, 30714, Pitch_bend_c, 8, 13905
13, 30715, Pitch_bend_c, 8, 14336
13, 30716, Pitch_bend_c, 8, 14793
13, 30717, Pitch_bend_c, 8, 15284
13, 30718, Pitch_bend_c, 8, 15817
13, 30719, Pitch_bend_c, 8, 16383
13, 31968, Note_off_c, 8, 53, 64
13, 32064, Note_on_c, 8, 53, 127
13, 32064, Pitch_bend_c, 8, 8192
13, 32121, Pitch_bend_c, 8, 8192
13, 32136, Pitch_bend_c, 8, 8192
13, 32143, Pitch_bend_c, 8, 8192
13, 32148, Pitch_bend_c, 8, 8198
13, 32151, Pitch_bend_c, 8, 8198
13, 32154, Pitch_bend_c, 8, 8198
13, 32156, Pitch_bend_c, 8, 8198
13, 32158, Pitch_bend_c, 8, 8198
13, 32160, Pitch_bend_c, 8, 8198
13, 32162, Pitch_bend_c, 8, 8198
13, 32163, Pitch_bend_c, 8, 8205
13, 32164, Pitch_bend_c, 8, 8205
13, 32165, Pitch_bend_c, 8, 8205
13, 32166, Pitch_bend_c, 8, 8205
13, 32167, Pitch_bend_c, 8, 8205
13, 32168, Pitch_bend_c, 8, 8205
13, 32169, Pitch_bend_c, 8, 8205
13, 32170, Pitch_bend_c, 8, 8212
13, 32171, Pitch_bend_c, 8, 8212
13, 32172, Pitch_bend_c, 8, 8212
13, 32173, Pitch_bend_c, 8, 8212
13, 32174, Pitch_bend_c, 8, 8219
13, 32175, Pitch_bend_c, 8, 8219
13, 32176, Pitch_bend_c, 8, 8219
13, 32177, Pitch_bend_c, 8, 8219
13, 32178, Pitch_bend_c, 8, 8226
13, 32179, Pitch_bend_c, 8, 8226
13, 32180, Pitch_bend_c, 8, 8226
13, 32181, Pitch_bend_c, 8, 8232
13, 32182, Pitch_bend_c, 8, 8232
13, 32183, Pitch_bend_c, 8, 8239
13, 32184, Pitch_bend_c, 8, 8239
13, 32185, Pitch_bend_c, 8, 8246
13, 32186, Pitch_bend_c, 8, 8246
13, 32187, Pitch_bend_c, 8, 8253
13, 32188, Pitch_bend_c, 8, 8260
13, 32189, Pitch_bend_c, 8, 8260
13, 32190, Pitch_bend_c, 8, 8267
13, 32191, Pitch_bend_c, 8, 8273
13, 32192, Pitch_bend_c, 8, 8280
13, 32193, Pitch_bend_c, 8, 8287
13, 32194, Pitch_bend_c, 8, 8294
13, 32195, Pitch_bend_c, 8, 8301
13, 32196, Pitch_bend_c, 8, 8308
13, 32197, Pitch_bend_c, 8, 8314
13, 32198, Pitch_bend_c, 8, 8328
13, 32199, Pitch_bend_c, 8, 8335
13, 32200, Pitch_bend_c, 8, 8349
13, 32201, Pitch_bend_c, 8, 8362
13, 32202, Pitch_bend_c, 8, 8376
13, 32203, Pitch_bend_c, 8, 8383
13, 32204, Pitch_bend_c, 8, 8403
13, 32205, Pitch_bend_c, 8, 8417
13, 32206, Pitch_bend_c, 8, 8430
13, 32207, Pitch_bend_c, 8, 8451
13, 32208, Pitch_bend_c, 8, 8471
13, 32209, Pitch_bend_c, 8, 8492
13, 32210, Pitch_bend_c, 8, 8512
13, 32211, Pitch_bend_c, 8, 8540
13, 32212, Pitch_bend_c, 8, 8560
13, 32213, Pitch_bend_c, 8, 8587
13, 32214, Pitch_bend_c, 8, 8622
13, 32215, Pitch_bend_c, 8, 8656
13, 32216, Pitch_bend_c, 8, 8690
13, 32217, Pitch_bend_c, 8, 8724
13, 32218, Pitch_bend_c, 8, 8765
13, 32219, Pitch_bend_c, 8, 8806
13, 32220, Pitch_bend_c, 8, 8854
13, 32221, Pitch_bend_c, 8, 8901
13, 32222, Pitch_bend_c, 8, 8956
13, 32223, Pitch_bend_c, 8, 9011
13, 32224, Pitch_bend_c, 8, 9072
13, 32225, Pitch_bend_c, 8, 9140
13, 32226, Pitch_bend_c, 8, 9209
13, 32227, Pitch_bend_c, 8, 9284
13, 32228, Pitch_bend_c, 8, 9366
13, 32229, Pitch_bend_c, 8, 9454
13, 32230, Pitch_bend_c, 8, 9550
13, 32231, Pitch_bend_c, 8, 9646
13, 32232, Pitch_bend_c, 8, 9755
13, 32233, Pitch_bend_c, 8, 9871
13, 32234, Pitch_bend_c, 8, 10001
13, 32235, Pitch_bend_c, 8, 10137
13, 32236, Pitch_bend_c, 8, 10280
13, 32237, Pitch_bend_c, 8, 10437
13, 32238, Pitch_bend_c, 8, 10601
13, 32239, Pitch_bend_c, 8, 10786
13, 32240, Pitch_bend_c, 8, 10977
13, 32241, Pitch_bend_c, 8, 11182
13, 32242, Pitch_bend_c, 8, 11407
13, 32243, Pitch_bend_c, 8, 11646
13, 32244, Pitch_bend_c, 8, 11905
13, 32245, Pitch_bend_c, 8, 12178
13, 32246, Pitch_bend_c, 8, 12479
13, 32247, Pitch_bend_c, 8, 12800
13, 32248, Pitch_bend_c, 8, 13141
13, 32249, Pitch_bend_c, 8, 13509
13, 32250, Pitch_bend_c, 8, 13905
13, 32251, Pitch_bend_c, 8, 14336
13, 32252, Pitch_bend_c, 8, 14793
13, 32253, Pitch_bend_c, 8, 15284
13, 32254, Pitch_bend_c, 8, 15817
13, 32255, Pitch_bend_c, 8, 16383
13, 33504, Note_off_c, 8, 53, 64
13, 33600, Note_on_c, 8, 53, 127
13, 33600, Pitch_bend_c, 8, 8192
13, 33657, Pitch_bend_c, 8, 8192
13, 33672, Pitch_bend_c, 8, 8192
13, 33679, Pitch_bend_c, 8, 8192
13, 33684, Pitch_bend_c, 8, 8198
13, 33687, Pitch_bend_c, 8, 8198
13, 33690, Pitch_bend_c, 8, 8198
13, 33692, Pitch_bend_c, 8, 8198
13, 33694, Pitch_bend_c, 8, 8198
13, 33696, Pitch_bend_c, 8, 8198
13, 33698, Pitch_bend_c, 8, 8198
13, 33699, Pitch_bend_c, 8, 8205
13, 33700, Pitch_bend_c, 8, 8205
13, 33701, Pitch_bend_c, 8, 8205
13, 33702, Pitch_bend_c, 8, 8205
13, 33703, Pitch_bend_c, 8, 8205
13, 33704, Pitch_bend_c, 8, 8205
13, 33705, Pitch_bend_c, 8, 8205
13, 33706, Pitch_bend_c, 8, 8212
13, 33707, Pitch_bend_c, 8, 8212
13, 33708, Pitch_bend_c, 8, 8212
13, 33709, Pitch_bend_c, 8, 8212
13, 33710, Pitch_bend_c, 8, 8219
13, 33711, Pitch_bend_c, 8, 8219
13, 33712, Pitch_bend_c, 8, 8219
13, 33713, Pitch_bend_c, 8, 8219
13, 33714, Pitch_bend_c, 8, 8226
13, 33715, Pitch_bend_c, 8, 8226
13, 33716, Pitch_bend_c, 8, 8226
13, 33717, Pitch_bend_c, 8, 8232
13, 33718, Pitch_bend_c, 8, 8232
13, 33719, Pitch_bend_c, 8, 8239
13, 33720, Pitch_bend_c, 8, 8239
13, 33721, Pitch_bend_c, 8, 8246
13, 33722, Pitch_bend_c, 8, 8246
13, 33723, Pitch_bend_c, 8, 8253
13, 33724, Pitch_bend_c, 8, 8260
13, 33725, Pitch_bend_c, 8, 8260
13, 33726, Pitch_bend_c, 8, 8267
13, 33727, Pitch_bend_c, 8, 8273
13, 33728, Pitch_bend_c, 8, 8280
13, 33729, Pitch_bend_c, 8, 8287
13, 33730, Pitch_bend_c, 8, 8294
13, 33731, Pitch_bend_c, 8, 8301
13, 33732, Pitch_bend_c, 8, 8308
13, 33733, Pitch_bend_c, 8, 8314
13, 33734, Pitch_bend_c, 8, 8328
13, 33735, Pitch_bend_c, 8, 8335
13, 33736, Pitch_bend_c, 8, 8349
13, 33737, Pitch_bend_c, 8, 8362
13, 33738, Pitch_bend_c, 8, 8376
13, 33739, Pitch_bend_c, 8, 8383
13, 33740, Pitch_bend_c, 8, 8403
13, 33741, Pitch_bend_c, 8, 8417
13, 33742, Pitch_bend_c, 8, 8430
13, 33743, Pitch_bend_c, 8, 8451
13, 33744, Pitch_bend_c, 8, 8471
13, 33745, Pitch_bend_c, 8, 8492
13, 33746, Pitch_bend_c, 8, 8512
13, 33747, Pitch_bend_c, 8, 8540
13, 33748, Pitch_bend_c, 8, 8560
13, 33749, Pitch_bend_c, 8, 8587
13, 33750, Pitch_bend_c, 8, 8622
13, 33751, Pitch_bend_c, 8, 8656
13, 33752, Pitch_bend_c, 8, 8690
13, 33753, Pitch_bend_c, 8, 8724
13, 33754, Pitch_bend_c, 8, 8765
13, 33755, Pitch_bend_c, 8, 8806
13, 33756, Pitch_bend_c, 8, 8854
13, 33757, Pitch_bend_c, 8, 8901
13, 33758, Pitch_bend_c, 8, 8956
13, 33759, Pitch_bend_c, 8, 9011
13, 33760, Pitch_bend_c, 8, 9072
13, 33761, Pitch_bend_c, 8, 9140
13, 33762, Pitch_bend_c, 8, 9209
13, 33763, Pitch_bend_c, 8, 9284
13, 33764, Pitch_bend_c, 8, 9366
13, 33765, Pitch_bend_c, 8, 9454
13, 33766, Pitch_bend_c, 8, 9550
13, 33767, Pitch_bend_c, 8, 9646
13, 33768, Pitch_bend_c, 8, 9755
13, 33769, Pitch_bend_c, 8, 9871
13, 33770, Pitch_bend_c, 8, 10001
13, 33771, Pitch_bend_c, 8, 10137
13, 33772, Pitch_bend_c, 8, 10280
13, 33773, Pitch_bend_c, 8, 10437
13, 33774, Pitch_bend_c, 8, 10601
13, 33775, Pitch_bend_c, 8, 10786
13, 33776, Pitch_bend_c, 8, 10977
13, 33777, Pitch_bend_c, 8, 11182
13, 33778, Pitch_bend_c, 8, 11407
13, 33779, Pitch_bend_c, 8, 11646
13, 33780, Pitch_bend_c, 8, 11905
13, 33781, Pitch_bend_c, 8, 12178
13, 33782, Pitch_bend_c, 8, 12479
13, 33783, Pitch_bend_c, 8, 12800
13, 33784, Pitch_bend_c, 8, 13141
13, 33785, Pitch_bend_c, 8, 13509
13, 33786, Pitch_bend_c, 8, 13905
13, 33787, Pitch_bend_c, 8, 14336
13, 33788, Pitch_bend_c, 8, 14793
13, 33789, Pitch_bend_c, 8, 15284
13, 33790, Pitch_bend_c, 8, 15817
13, 33791, Pitch_bend_c, 8, 16383
13, 35040, Note_off_c, 8, 53, 64
13, 35136, Note_on_c, 8, 53, 127
13, 35136, Pitch_bend_c, 8, 8192
13, 35193, Pitch_bend_c, 8, 8192
13, 35208, Pitch_bend_c, 8, 8192
13, 35215, Pitch_bend_c, 8, 8192
13, 35220, Pitch_bend_c, 8, 8198
13, 35223, Pitch_bend_c, 8, 8198
13, 35226, Pitch_bend_c, 8, 8198
13, 35228, Pitch_bend_c, 8, 8198
13, 35230, Pitch_bend_c, 8, 8198
13, 35232, Pitch_bend_c, 8, 8198
13, 35234, Pitch_bend_c, 8, 8198
13, 35235, Pitch_bend_c, 8, 8205
13, 35236, Pitch_bend_c, 8, 8205
13, 35237, Pitch_bend_c, 8, 8205
13, 35238, Pitch_bend_c, 8, 8205
13, 35239, Pitch_bend_c, 8, 8205
13, 35240, Pitch_bend_c, 8, 8205
13, 35241, Pitch_bend_c, 8, 8205
13, 35242, Pitch_bend_c, 8, 8212
13, 35243, Pitch_bend_c, 8, 8212
13, 35244, Pitch_bend_c, 8, 8212
13, 35245, Pitch_bend_c, 8, 8212
13, 35246, Pitch_bend_c, 8, 8219
13, 35247, Pitch_bend_c, 8, 8219
13, 35248, Pitch_bend_c, 8, 8219
13, 35249, Pitch_bend_c, 8, 8219
13, 35250, Pitch_bend_c, 8, 8226
13, 35251, Pitch_bend_c, 8, 8226
13, 35252, Pitch_bend_c, 8, 8226
13, 35253, Pitch_bend_c, 8, 8232
13, 35254, Pitch_bend_c, 8, 8232
13, 35255, Pitch_bend_c, 8, 8239
13, 35256, Pitch_bend_c, 8, 8239
13, 35257, Pitch_bend_c, 8, 8246
13, 35258, Pitch_bend_c, 8, 8246
13, 35259, Pitch_bend_c, 8, 8253
13, 35260, Pitch_bend_c, 8, 8260
13, 35261, Pitch_bend_c, 8, 8260
13, 35262, Pitch_bend_c, 8, 8267
13, 35263, Pitch_bend_c, 8, 8273
13, 35264, Pitch_bend_c, 8, 8280
13, 35265, Pitch_bend_c, 8, 8287
13, 35266, Pitch_bend_c, 8, 8294
13, 35267, Pitch_bend_c, 8, 8301
13, 35268, Pitch_bend_c, 8, 8308
13, 35269, Pitch_bend_c, 8, 8314
13, 35270, Pitch_bend_c, 8, 8328
13, 35271, Pitch_bend_c, 8, 8335
13, 35272, Pitch_bend_c, 8, 8349
13, 35273, Pitch_bend_c, 8, 8362
13, 35274, Pitch_bend_c, 8, 8376
13, 35275, Pitch_bend_c, 8, 8383
13, 35276, Pitch_bend_c, 8, 8403
13, 35277, Pitch_bend_c, 8, 8417
13, 35278, Pitch_bend_c, 8, 8430
13, 35279, Pitch_bend_c, 8, 8451
13, 35280, Pitch_bend_c, 8, 8471
13, 35281, Pitch_bend_c, 8, 8492
13, 35282, Pitch_bend_c, 8, 8512
13, 35283, Pitch_bend_c, 8, 8540
13, 35284, Pitch_bend_c, 8, 8560
13, 35285, Pitch_bend_c, 8, 8587
13, 35286, Pitch_bend_c, 8, 8622
13, 35287, Pitch_bend_c, 8, 8656
13, 35288, Pitch_bend_c, 8, 8690
13, 35289, Pitch_bend_c, 8, 8724
13, 35290, Pitch_bend_c, 8, 8765
13, 35291, Pitch_bend_c, 8, 8806
13, 35292, Pitch_bend_c, 8, 8854
13, 35293, Pitch_bend_c, 8, 8901
13, 35294, Pitch_bend_c, 8, 8956
13, 35295, Pitch_bend_c, 8, 9011
13, 35296, Pitch_bend_c, 8, 9072
13, 35297, Pitch_bend_c, 8, 9140
13, 35298, Pitch_bend_c, 8, 9209
13, 35299, Pitch_bend_c, 8, 9284
13, 35300, Pitch_bend_c, 8, 9366
13, 35301, Pitch_bend_c, 8, 9454
13, 35302, Pitch_bend_c, 8, 9550
13, 35303, Pitch_bend_c, 8, 9646
13, 35304, Pitch_bend_c, 8, 9755
13, 35305, Pitch_bend_c, 8, 9871
13, 35306, Pitch_bend_c, 8, 10001
13, 35307, Pitch_bend_c, 8, 10137
13, 35308, Pitch_bend_c, 8, 10280
13, 35309, Pitch_bend_c, 8, 10437
13, 35310, Pitch_bend_c, 8, 10601
13, 35311, Pitch_bend_c, 8, 10786
13, 35312, Pitch_bend_c, 8, 10977
13, 35313, Pitch_bend_c, 8, 11182
13, 35314, Pitch_bend_c, 8, 11407
13, 35315, Pitch_bend_c, 8, 11646
13, 35316, Pitch_bend_c, 8, 11905
13, 35317, Pitch_bend_c, 8, 12178
13, 35318, Pitch_bend_c, 8, 12479
13, 35319, Pitch_bend_c, 8, 12800
13, 35320, Pitch_bend_c, 8, 13141
13, 35321, Pitch_bend_c, 8, 13509
13, 35322, Pitch_bend_c, 8, 13905
13, 35323, Pitch_bend_c, 8, 14336
13, 35324, Pitch_bend_c, 8, 14793
13, 35325, Pitch_bend_c, 8, 15284
13, 35326, Pitch_bend_c, 8, 15817
13, 35327, Pitch_bend_c, 8, 16383
13, 36576, Note_off_c, 8, 53, 64
13, 55488, Note_on_c, 8, 53, 127
13, 55488, Pitch_bend_c, 8, 8192
13, 55545, Pitch_bend_c, 8, 8192
13, 55560, Pitch_bend_c, 8, 8192
13, 55567, Pitch_bend_c, 8, 8192
13, 55572, Pitch_bend_c, 8, 8198
13, 55575, Pitch_bend_c, 8, 8198
13, 55578, Pitch_bend_c, 8, 8198
13, 55580, Pitch_bend_c, 8, 8198
13, 55582, Pitch_bend_c, 8, 8198
13, 55584, Pitch_bend_c, 8, 8198
13, 55586, Pitch_bend_c, 8, 8198
13, 55587, Pitch_bend_c, 8, 8205
13, 55588, Pitch_bend_c, 8, 8205
13, 55589, Pitch_bend_c, 8, 8205
13, 55590, Pitch_bend_c, 8, 8205
13, 55591, Pitch_bend_c, 8, 8205
13, 55592, Pitch_bend_c, 8, 8205
13, 55593, Pitch_bend_c, 8, 8205
13, 55594, Pitch_bend_c, 8, 8212
13, 55595, Pitch_bend_c, 8, 8212
13, 55596, Pitch_bend_c, 8, 8212
13, 55597, Pitch_bend_c, 8, 8212
13, 55598, Pitch_bend_c, 8, 8219
13, 55599, Pitch_bend_c, 8, 8219
13, 55600, Pitch_bend_c, 8, 8219
13, 55601, Pitch_bend_c, 8, 8219
13, 55602, Pitch_bend_c, 8, 8226
13, 55603, Pitch_bend_c, 8, 8226
13, 55604, Pitch_bend_c, 8, 8226
13, 55605, Pitch_bend_c, 8, 8232
13, 55606, Pitch_bend_c, 8, 8232
13, 55607, Pitch_bend_c, 8, 8239
13, 55608, Pitch_bend_c, 8, 8239
13, 55609, Pitch_bend_c, 8, 8246
13, 55610, Pitch_bend_c, 8, 8246
13, 55611, Pitch_bend_c, 8, 8253
13, 55612, Pitch_bend_c, 8, 8260
13, 55613, Pitch_bend_c, 8, 8260
13, 55614, Pitch_bend_c, 8, 8267
13, 55615, Pitch_bend_c, 8, 8273
13, 55616, Pitch_bend_c, 8, 8280
13, 55617, Pitch_bend_c, 8, 8287
13, 55618, Pitch_bend_c, 8, 8294
13, 55619, Pitch_bend_c, 8, 8301
13, 55620, Pitch_bend_c, 8, 8308
13, 55621, Pitch_bend_c, 8, 8314
13, 55622, Pitch_bend_c, 8, 8328
13, 55623, Pitch_bend_c, 8, 8335
13, 55624, Pitch_bend_c, 8, 8349
13, 55625, Pitch_bend_c, 8, 8362
13, 55626, Pitch_bend_c, 8, 8376
13, 55627, Pitch_bend_c, 8, 8383
13, 55628, Pitch_bend_c, 8, 8403
13, 55629, Pitch_bend_c, 8, 8417
13, 55630, Pitch_bend_c, 8, 8430
13, 55631, Pitch_bend_c, 8, 8451
13, 55632, Pitch_bend_c, 8, 8471
13, 55633, Pitch_bend_c, 8, 8492
13, 55634, Pitch_bend_c, 8, 8512
13, 55635, Pitch_bend_c, 8, 8540
13, 55636, Pitch_bend_c, 8, 8560
13, 55637, Pitch_bend_c, 8, 8587
13, 55638, Pitch_bend_c, 8, 8622
13, 55639, Pitch_bend_c, 8, 8656
13, 55640, Pitch_bend_c, 8, 8690
13, 55641, Pitch_bend_c, 8, 8724
13, 55642, Pitch_bend_c, 8, 8765
13, 55643, Pitch_bend_c, 8, 8806
13, 55644, Pitch_bend_c, 8, 8854
13, 55645, Pitch_bend_c, 8, 8901
13, 55646, Pitch_bend_c, 8, 8956
13, 55647, Pitch_bend_c, 8, 9011
13, 55648, Pitch_bend_c, 8, 9072
13, 55649, Pitch_bend_c, 8, 9140
13, 55650, Pitch_bend_c, 8, 9209
13, 55651, Pitch_bend_c, 8, 9284
13, 55652, Pitch_bend_c, 8, 9366
13, 55653, Pitch_bend_c, 8, 9454
13, 55654, Pitch_bend_c, 8, 9550
13, 55655, Pitch_bend_c, 8, 9646
13, 55656, Pitch_bend_c, 8, 9755
13, 55657, Pitch_bend_c, 8, 9871
13, 55658, Pitch_bend_c, 8, 10001
13, 55659, Pitch_bend_c, 8, 10137
13, 55660, Pitch_bend_c, 8, 10280
13, 55661, Pitch_bend_c, 8, 10437
13, 55662, Pitch_bend_c, 8, 10601
13, 55663, Pitch_bend_c, 8, 10786
13, 55664, Pitch_bend_c, 8, 10977
13, 55665, Pitch_bend_c, 8, 11182
13, 55666, Pitch_bend_c, 8, 11407
13, 55667, Pitch_bend_c, 8, 11646
13, 55668, Pitch_bend_c, 8, 11905
13, 55669, Pitch_bend_c, 8, 12178
13, 55670, Pitch_bend_c, 8, 12479
13, 55671, Pitch_bend_c, 8, 12800
13, 55672, Pitch_bend_c, 8, 13141
13, 55673, Pitch_bend_c, 8, 13509
13, 55674, Pitch_bend_c, 8, 13905
13, 55675, Pitch_bend_c, 8, 14336
13, 55676, Pitch_bend_c, 8, 14793
13, 55677, Pitch_bend_c, 8, 15284
13, 55678, Pitch_bend_c, 8, 15817
13, 55679, Pitch_bend_c, 8, 16383
13, 56928, Note_off_c, 8, 53, 64
13, 57024, Note_on_c, 8, 53, 127
13, 57024, Pitch_bend_c, 8, 8192
13, 57081, Pitch_bend_c, 8, 8192
13, 57096, Pitch_bend_c, 8, 8192
13, 57103, Pitch_bend_c, 8, 8192
13, 57108, Pitch_bend_c, 8, 8198
13, 57111, Pitch_bend_c, 8, 8198
13, 57114, Pitch_bend_c, 8, 8198
13, 57116, Pitch_bend_c, 8, 8198
13, 57118, Pitch_bend_c, 8, 8198
13, 57120, Pitch_bend_c, 8, 8198
13, 57122, Pitch_bend_c, 8, 8198
13, 57123, Pitch_bend_c, 8, 8205
13, 57124, Pitch_bend_c, 8, 8205
13, 57125, Pitch_bend_c, 8, 8205
13, 57126, Pitch_bend_c, 8, 8205
13, 57127, Pitch_bend_c, 8, 8205
13, 57128, Pitch_bend_c, 8, 8205
13, 57129, Pitch_bend_c, 8, 8205
13, 57130, Pitch_bend_c, 8, 8212
13, 57131, Pitch_bend_c, 8, 8212
13, 57132, Pitch_bend_c, 8, 8212
13, 57133, Pitch_bend_c, 8, 8212
13, 57134, Pitch_bend_c, 8, 8219
13, 57135, Pitch_bend_c, 8, 8219
13, 57136, Pitch_bend_c, 8, 8219
13, 57137, Pitch_bend_c, 8, 8219
13, 57138, Pitch_bend_c, 8, 8226
13, 57139, Pitch_bend_c, 8, 8226
13, 57140, Pitch_bend_c, 8, 8226
13, 57141, Pitch_bend_c, 8, 8232
13, 57142, Pitch_bend_c, 8, 8232
13, 57143, Pitch_bend_c, 8, 8239
13, 57144, Pitch_bend_c, 8, 8239
13, 57145, Pitch_bend_c, 8, 8246
13, 57146, Pitch_bend_c, 8, 8246
13, 57147, Pitch_bend_c, 8, 8253
13, 57148, Pitch_bend_c, 8, 8260
13, 57149, Pitch_bend_c, 8, 8260
13, 57150, Pitch_bend_c, 8, 8267
13, 57151, Pitch_bend_c, 8, 8273
13, 57152, Pitch_bend_c, 8, 8280
13, 57153, Pitch_bend_c, 8, 8287
13, 57154, Pitch_bend_c, 8, 8294
13, 57155, Pitch_bend_c, 8, 8301
13, 57156, Pitch_bend_c, 8, 8308
13, 57157, Pitch_bend_c, 8, 8314
13, 57158, Pitch_bend_c, 8, 8328
13, 57159, Pitch_bend_c, 8, 8335
13, 57160, Pitch_bend_c, 8, 8349
13, 57161, Pitch_bend_c, 8, 8362
13, 57162, Pitch_bend_c, 8, 8376
13, 57163, Pitch_bend_c, 8, 8383
13, 57164, Pitch_bend_c, 8, 8403
13, 57165, Pitch_bend_c, 8, 8417
13, 57166, Pitch_bend_c, 8, 8430
13, 57167, Pitch_bend_c, 8, 8451
13, 57168, Pitch_bend_c, 8, 8471
13, 57169, Pitch_bend_c, 8, 8492
13, 57170, Pitch_bend_c, 8, 8512
13, 57171, Pitch_bend_c, 8, 8540
13, 57172, Pitch_bend_c, 8, 8560
13, 57173, Pitch_bend_c, 8, 8587
13, 57174, Pitch_bend_c, 8, 8622
13, 57175, Pitch_bend_c, 8, 8656
13, 57176, Pitch_bend_c, 8, 8690
13, 57177, Pitch_bend_c, 8, 8724
13, 57178, Pitch_bend_c, 8, 8765
13, 57179, Pitch_bend_c, 8, 8806
13, 57180, Pitch_bend_c, 8, 8854
13, 57181, Pitch_bend_c, 8, 8901
13, 57182, Pitch_bend_c, 8, 8956
13, 57183, Pitch_bend_c, 8, 9011
13, 57184, Pitch_bend_c, 8, 9072
13, 57185, Pitch_bend_c, 8, 9140
13, 57186, Pitch_bend_c, 8, 9209
13, 57187, Pitch_bend_c, 8, 9284
13, 57188, Pitch_bend_c, 8, 9366
13, 57189, Pitch_bend_c, 8, 9454
13, 57190, Pitch_bend_c, 8, 9550
13, 57191, Pitch_bend_c, 8, 9646
13, 57192, Pitch_bend_c, 8, 9755
13, 57193, Pitch_bend_c, 8, 9871
13, 57194, Pitch_bend_c, 8, 10001
13, 57195, Pitch_bend_c, 8, 10137
13, 57196, Pitch_bend_c, 8, 10280
13, 57197, Pitch_bend_c, 8, 10437
13, 57198, Pitch_bend_c, 8, 10601
13, 57199, Pitch_bend_c, 8, 10786
13, 57200, Pitch_bend_c, 8, 10977
13, 57201, Pitch_bend_c, 8, 11182
13, 57202, Pitch_bend_c, 8, 11407
13, 57203, Pitch_bend_c, 8, 11646
13, 57204, Pitch_bend_c, 8, 11905
13, 57205, Pitch_bend_c, 8, 12178
13, 57206, Pitch_bend_c, 8, 12479
13, 57207, Pitch_bend_c, 8, 12800
13, 57208, Pitch_bend_c, 8, 13141
13, 57209, Pitch_bend_c, 8, 13509
13, 57210, Pitch_bend_c, 8, 13905
13, 57211, Pitch_bend_c, 8, 14336
13, 57212, Pitch_bend_c, 8, 14793
13, 57213, Pitch_bend_c, 8, 15284
13, 57214, Pitch_bend_c, 8, 15817
13, 57215, Pitch_bend_c, 8, 16383
13, 58464, Note_off_c, 8, 53, 64
13, 58560, Note_on_c, 8, 53, 127
13, 58560, Pitch_bend_c, 8, 8192
13, 58617, Pitch_bend_c, 8, 8192
13, 58632, Pitch_bend_c, 8, 8192
13, 58639, Pitch_bend_c, 8, 8192
13, 58644, Pitch_bend_c, 8, 8198
13, 58647, Pitch_bend_c, 8, 8198
13, 58650, Pitch_bend_c, 8, 8198
13, 58652, Pitch_bend_c, 8, 8198
13, 58654, Pitch_bend_c, 8, 8198
13, 58656, Pitch_bend_c, 8, 8198
13, 58658, Pitch_bend_c, 8, 8198
13, 58659, Pitch_bend_c, 8, 8205
13, 58660, Pitch_bend_c, 8, 8205
13, 58661, Pitch_bend_c, 8, 8205
13, 58662, Pitch_bend_c, 8, 8205
13, 58663, Pitch_bend_c, 8, 8205
13, 58664, Pitch_bend_c, 8, 8205
13, 58665, Pitch_bend_c, 8, 8205
13, 58666, Pitch_bend_c, 8, 8212
13, 58667, Pitch_bend_c, 8, 8212
13, 58668, Pitch_bend_c, 8, 8212
13, 58669, Pitch_bend_c, 8, 8212
13, 58670, Pitch_bend_c, 8, 8219
13, 58671, Pitch_bend_c, 8, 8219
13, 58672, Pitch_bend_c, 8, 8219
13, 58673, Pitch_bend_c, 8, 8219
13, 58674, Pitch_bend_c, 8, 8226
13, 58675, Pitch_bend_c, 8, 8226
13, 58676, Pitch_bend_c, 8, 8226
13, 58677, Pitch_bend_c, 8, 8232
13, 58678, Pitch_bend_c, 8, 8232
13, 58679, Pitch_bend_c, 8, 8239
13, 58680, Pitch_bend_c, 8, 8239
13, 58681, Pitch_bend_c, 8, 8246
13, 58682, Pitch_bend_c, 8, 8246
13, 58683, Pitch_bend_c, 8, 8253
13, 58684, Pitch_bend_c, 8, 8260
13, 58685, Pitch_bend_c, 8, 8260
13, 58686, Pitch_bend_c, 8, 8267
13, 58687, Pitch_bend_c, 8, 8273
13, 58688, Pitch_bend_c, 8, 8280
13, 58689, Pitch_bend_c, 8, 8287
13, 58690, Pitch_bend_c, 8, 8294
13, 58691, Pitch_bend_c, 8, 8301
13, 58692, Pitch_bend_c, 8, 8308
13, 58693, Pitch_bend_c, 8, 8314
13, 58694, Pitch_bend_c, 8, 8328
13, 58695, Pitch_bend_c, 8, 8335
13, 58696, Pitch_bend_c, 8, 8349
13, 58697, Pitch_bend_c, 8, 8362
13, 58698, Pitch_bend_c, 8, 8376
13, 58699, Pitch_bend_c, 8, 8383
13, 58700, Pitch_bend_c, 8, 8403
13, 58701, Pitch_bend_c, 8, 8417
13, 58702, Pitch_bend_c, 8, 8430
13, 58703, Pitch_bend_c, 8, 8451
13, 58704, Pitch_bend_c, 8, 8471
13, 58705, Pitch_bend_c, 8, 8492
13, 58706, Pitch_bend_c, 8, 8512
13, 58707, Pitch_bend_c, 8, 8540
13, 58708, Pitch_bend_c, 8, 8560
13, 58709, Pitch_bend_c, 8, 8587
13, 58710, Pitch_bend_c, 8, 8622
13, 58711, Pitch_bend_c, 8, 8656
13, 58712, Pitch_bend_c, 8, 8690
13, 58713, Pitch_bend_c, 8, 8724
13, 58714, Pitch_bend_c, 8, 8765
13, 58715, Pitch_bend_c, 8, 8806
13, 58716, Pitch_bend_c, 8, 8854
13, 58717, Pitch_bend_c, 8, 8901
13, 58718, Pitch_bend_c, 8, 8956
13, 58719, Pitch_bend_c, 8, 9011
13, 58720, Pitch_bend_c, 8, 9072
13, 58721, Pitch_bend_c, 8, 9140
13, 58722, Pitch_bend_c, 8, 9209
13, 58723, Pitch_bend_c, 8, 9284
13, 58724, Pitch_bend_c, 8, 9366
13, 58725, Pitch_bend_c, 8, 9454
13, 58726, Pitch_bend_c, 8, 9550
13, 58727, Pitch_bend_c, 8, 9646
13, 58728, Pitch_bend_c, 8, 9755
13, 58729, Pitch_bend_c, 8, 9871
13, 58730, Pitch_bend_c, 8, 10001
13, 58731, Pitch_bend_c, 8, 10137
13, 58732, Pitch_bend_c, 8, 10280
13, 58733, Pitch_bend_c, 8, 10437
13, 58734, Pitch_bend_c, 8, 10601
13, 58735, Pitch_bend_c, 8, 10786
13, 58736, Pitch_bend_c, 8, 10977
13, 58737, Pitch_bend_c, 8, 11182
13, 58738, Pitch_bend_c, 8, 11407
13, 58739, Pitch_bend_c, 8, 11646
13, 58740, Pitch_bend_c, 8, 11905
13, 58741, Pitch_bend_c, 8, 12178
13, 58742, Pitch_bend_c, 8, 12479
13, 58743, Pitch_bend_c, 8, 12800
13, 58744, Pitch_bend_c, 8, 13141
13, 58745, Pitch_bend_c, 8, 13509
13, 58746, Pitch_bend_c, 8, 13905
13, 58747, Pitch_bend_c, 8, 14336
13, 58748, Pitch_bend_c, 8, 14793
13, 58749, Pitch_bend_c, 8, 15284
13, 58750, Pitch_bend_c, 8, 15817
13, 58751, Pitch_bend_c, 8, 16383
13, 60000, Note_off_c, 8, 53, 64
13, 60096, Note_on_c, 8, 53, 127
13, 60096, Pitch_bend_c, 8, 8192
13, 60153, Pitch_bend_c, 8, 8192
13, 60168, Pitch_bend_c, 8, 8192
13, 60175, Pitch_bend_c, 8, 8192
13, 60180, Pitch_bend_c, 8, 8198
13, 60183, Pitch_bend_c, 8, 8198
13, 60186, Pitch_bend_c, 8, 8198
13, 60188, Pitch_bend_c, 8, 8198
13, 60190, Pitch_bend_c, 8, 8198
13, 60192, Pitch_bend_c, 8, 8198
13, 60194, Pitch_bend_c, 8, 8198
13, 60195, Pitch_bend_c, 8, 8205
13, 60196, Pitch_bend_c, 8, 8205
13, 60197, Pitch_bend_c, 8, 8205
13, 60198, Pitch_bend_c, 8, 8205
13, 60199, Pitch_bend_c, 8, 8205
13, 60200, Pitch_bend_c, 8, 8205
13, 60201, Pitch_bend_c, 8, 8205
13, 60202, Pitch_bend_c, 8, 8212
13, 60203, Pitch_bend_c, 8, 8212
13, 60204, Pitch_bend_c, 8, 8212
13, 60205, Pitch_bend_c, 8, 8212
13, 60206, Pitch_bend_c, 8, 8219
13, 60207, Pitch_bend_c, 8, 8219
13, 60208, Pitch_bend_c, 8, 8219
13, 60209, Pitch_bend_c, 8, 8219
13, 60210, Pitch_bend_c, 8, 8226
13, 60211, Pitch_bend_c, 8, 8226
13, 60212, Pitch_bend_c, 8, 8226
13, 60213, Pitch_bend_c, 8, 8232
13, 60214, Pitch_bend_c, 8, 8232
13, 60215, Pitch_bend_c, 8, 8239
13, 60216, Pitch_bend_c, 8, 8239
13, 60217, Pitch_bend_c, 8, 8246
13, 60218, Pitch_bend_c, 8, 8246
13, 60219, Pitch_bend_c, 8, 8253
13, 60220, Pitch_bend_c, 8, 8260
13, 60221, Pitch_bend_c, 8, 8260
13, 60222, Pitch_bend_c, 8, 8267
13, 60223, Pitch_bend_c, 8, 8273
13, 60224, Pitch_bend_c, 8, 8280
13, 60225, Pitch_bend_c, 8, 8287
13, 60226, Pitch_bend_c, 8, 8294
13, 60227, Pitch_bend_c, 8, 8301
13, 60228, Pitch_bend_c, 8, 8308
13, 60229, Pitch_bend_c, 8, 8314
13, 60230, Pitch_bend_c, 8, 8328
13, 60231, Pitch_bend_c, 8, 8335
13, 60232, Pitch_bend_c, 8, 8349
13, 60233, Pitch_bend_c, 8, 8362
13, 60234, Pitch_bend_c, 8, 8376
13, 60235, Pitch_bend_c, 8, 8383
13, 60236, Pitch_bend_c, 8, 8403
13, 60237, Pitch_bend_c, 8, 8417
13, 60238, Pitch_bend_c, 8, 8430
13, 60239, Pitch_bend_c, 8, 8451
13, 60240, Pitch_bend_c, 8, 8471
13, 60241, Pitch_bend_c, 8, 8492
13, 60242, Pitch_bend_c, 8, 8512
13, 60243, Pitch_bend_c, 8, 8540
13, 60244, Pitch_bend_c, 8, 8560
13, 60245, Pitch_bend_c, 8, 8587
13, 60246, Pitch_bend_c, 8, 8622
13, 60247, Pitch_bend_c, 8, 8656
13, 60248, Pitch_bend_c, 8, 8690
13, 60249, Pitch_bend_c, 8, 8724
13, 60250, Pitch_bend_c, 8, 8765
13, 60251, Pitch_bend_c, 8, 8806
13, 60252, Pitch_bend_c, 8, 8854
13, 60253, Pitch_bend_c, 8, 8901
13, 60254, Pitch_bend_c, 8, 8956
13, 60255, Pitch_bend_c, 8, 9011
13, 60256, Pitch_bend_c, 8, 9072
13, 60257, Pitch_bend_c, 8, 9140
13, 60258, Pitch_bend_c, 8, 9209
13, 60259, Pitch_bend_c, 8, 9284
13, 60260, Pitch_bend_c, 8, 9366
13, 60261, Pitch_bend_c, 8, 9454
13, 60262, Pitch_bend_c, 8, 9550
13, 60263, Pitch_bend_c, 8, 9646
13, 60264, Pitch_bend_c, 8, 9755
13, 60265, Pitch_bend_c, 8, 9871
13, 60266, Pitch_bend_c, 8, 10001
13, 60267, Pitch_bend_c, 8, 10137
13, 60268, Pitch_bend_c, 8, 10280
13, 60269, Pitch_bend_c, 8, 10437
13, 60270, Pitch_bend_c, 8, 10601
13, 60271, Pitch_bend_c, 8, 10786
13, 60272, Pitch_bend_c, 8, 10977
13, 60273, Pitch_bend_c, 8, 11182
13, 60274, Pitch_bend_c, 8, 11407
13, 60275, Pitch_bend_c, 8, 11646
13, 60276, Pitch_bend_c, 8, 11905
13, 60277, Pitch_bend_c, 8, 12178
13, 60278, Pitch_bend_c, 8, 12479
13, 60279, Pitch_bend_c, 8, 12800
13, 60280, Pitch_bend_c, 8, 13141
13, 60281, Pitch_bend_c, 8, 13509
13, 60282, Pitch_bend_c, 8, 13905
13, 60283, Pitch_bend_c, 8, 14336
13, 60284, Pitch_bend_c, 8, 14793
13, 60285, Pitch_bend_c, 8, 15284
13, 60286, Pitch_bend_c, 8, 15817
13, 60287, Pitch_bend_c, 8, 16383
13, 61536, Note_off_c, 8, 53, 64
13, 63396, Control_c, 8, 101, 0
13, 63396, Control_c, 8, 100, 0
13, 63396, Control_c, 8, 6, 12
13, 63396, Control_c, 8, 10, 64
13, 63396, Control_c, 8, 7, 89
13, 63396, Pitch_bend_c, 8, 16383
13, 63396, Program_c, 8, 87
13, 63396, Control_c, 8, 1, 49
13, 63396, Pitch_bend_c, 8, 8192
13, 63397, Control_c, 8, 101, 0
13, 63397, Control_c, 8, 100, 0
13, 63397, Control_c, 8, 6, 12
13, 63397, Control_c, 8, 10, 64
13, 63397, Control_c, 8, 7, 89
13, 63397, Pitch_bend_c, 8, 16383
13, 63397, Program_c, 8, 87
13, 63397, Control_c, 8, 1, 49
13, 63397, End_track
14, 0, Start_track
14, 0, Title_t, "meaty bass"
14, 0, Control_c, 10, 10, 64
14, 0, Control_c, 10, 7, 112
14, 0, Pitch_bend_c, 10, 8192
14, 0, Control_c, 10, 101, 0
14, 0, Control_c, 10, 100, 0
14, 0, Control_c, 10, 6, 12
14, 0, Control_c, 10, 10, 64
14, 0, Control_c, 10, 7, 112
14, 0, Pitch_bend_c, 10, 8192
14, 0, Program_c, 10, 81
14, 0, Control_c, 10, 1, 49
14, 0, Control_c, 10, 101, 0
14, 0, Control_c, 10, 100, 0
14, 0, Control_c, 10, 6, 12
14, 0, Control_c, 10, 10, 64
14, 0, Control_c, 10, 7, 112
14, 0, Pitch_bend_c, 10, 8192
14, 0, Program_c, 10, 81
14, 0, Control_c, 10, 1, 49
14, 0, Control_c, 10, 101, 0
14, 0, Control_c, 10, 100, 0
14, 0, Control_c, 10, 6, 12
14, 0, Control_c, 10, 10, 64
14, 0, Control_c, 10, 7, 112
14, 0, Pitch_bend_c, 10, 8192
14, 0, Program_c, 10, 81
14, 0, Control_c, 10, 1, 49
14, 15360, Control_c, 10, 7, 50
14, 15360, Note_on_c, 10, 41, 127
14, 15360, Note_on_c, 10, 29, 127
14, 15360, Note_on_c, 10, 53, 127
14, 15362, Control_c, 10, 7, 50
14, 15363, Control_c, 10, 7, 51
14, 15364, Control_c, 10, 7, 51
14, 15365, Control_c, 10, 7, 52
14, 15366, Control_c, 10, 7, 52
14, 15367, Control_c, 10, 7, 52
14, 15368, Control_c, 10, 7, 53
14, 15369, Control_c, 10, 7, 53
14, 15370, Control_c, 10, 7, 54
14, 15371, Control_c, 10, 7, 54
14, 15372, Control_c, 10, 7, 54
14, 15373, Control_c, 10, 7, 55
14, 15374, Control_c, 10, 7, 55
14, 15375, Control_c, 10, 7, 55
14, 15376, Control_c, 10, 7, 56
14, 15377, Control_c, 10, 7, 56
14, 15378, Control_c, 10, 7, 57
14, 15379, Control_c, 10, 7, 57
14, 15380, Control_c, 10, 7, 57
14, 15381, Control_c, 10, 7, 58
14, 15382, Control_c, 10, 7, 58
14, 15383, Control_c, 10, 7, 59
14, 15384, Control_c, 10, 7, 59
14, 15385, Control_c, 10, 7, 59
14, 15386, Control_c, 10, 7, 60
14, 15387, Control_c, 10, 7, 60
14, 15388, Control_c, 10, 7, 61
14, 15389, Control_c, 10, 7, 61
14, 15390, Control_c, 10, 7, 61
14, 15391, Control_c, 10, 7, 62
14, 15392, Control_c, 10, 7, 62
14, 15393, Control_c, 10, 7, 62
14, 15394, Control_c, 10, 7, 63
14, 15395, Control_c, 10, 7, 63
14, 15396, Control_c, 10, 7, 64
14, 15397, Control_c, 10, 7, 64
14, 15398, Control_c, 10, 7, 64
14, 15399, Control_c, 10, 7, 65
14, 15400, Control_c, 10, 7, 65
14, 15401, Control_c, 10, 7, 66
14, 15402, Control_c, 10, 7, 66
14, 15403, Control_c, 10, 7, 66
14, 15404, Control_c, 10, 7, 67
14, 15405, Control_c, 10, 7, 67
14, 15406, Control_c, 10, 7, 68
14, 15407, Control_c, 10, 7, 68
14, 15408, Control_c, 10, 7, 68
14, 15409, Control_c, 10, 7, 69
14, 15410, Control_c, 10, 7, 69
14, 15411, Control_c, 10, 7, 69
14, 15412, Control_c, 10, 7, 70
14, 15413, Control_c, 10, 7, 70
14, 15414, Control_c, 10, 7, 71
14, 15415, Control_c, 10, 7, 71
14, 15416, Control_c, 10, 7, 71
14, 15417, Control_c, 10, 7, 72
14, 15418, Control_c, 10, 7, 72
14, 15419, Control_c, 10, 7, 73
14, 15420, Control_c, 10, 7, 73
14, 15421, Control_c, 10, 7, 73
14, 15422, Control_c, 10, 7, 74
14, 15423, Control_c, 10, 7, 74
14, 15424, Control_c, 10, 7, 75
14, 15425, Control_c, 10, 7, 75
14, 15426, Control_c, 10, 7, 75
14, 15427, Control_c, 10, 7, 76
14, 15428, Control_c, 10, 7, 76
14, 15429, Control_c, 10, 7, 76
14, 15430, Control_c, 10, 7, 77
14, 15431, Control_c, 10, 7, 77
14, 15432, Control_c, 10, 7, 78
14, 15433, Control_c, 10, 7, 78
14, 15434, Control_c, 10, 7, 78
14, 15435, Control_c, 10, 7, 79
14, 15436, Control_c, 10, 7, 79
14, 15437, Control_c, 10, 7, 80
14, 15438, Control_c, 10, 7, 80
14, 15439, Control_c, 10, 7, 80
14, 15440, Control_c, 10, 7, 81
14, 15441, Control_c, 10, 7, 81
14, 15442, Control_c, 10, 7, 82
14, 15443, Control_c, 10, 7, 82
14, 15444, Control_c, 10, 7, 82
14, 15445, Control_c, 10, 7, 83
14, 15446, Control_c, 10, 7, 83
14, 15447, Control_c, 10, 7, 83
14, 15448, Control_c, 10, 7, 84
14, 15449, Control_c, 10, 7, 84
14, 15450, Control_c, 10, 7, 85
14, 15451, Control_c, 10, 7, 85
14, 15452, Control_c, 10, 7, 85
14, 15453, Control_c, 10, 7, 86
14, 15454, Control_c, 10, 7, 86
14, 15455, Control_c, 10, 7, 87
14, 15456, Control_c, 10, 7, 87
14, 15457, Control_c, 10, 7, 87
14, 15458, Control_c, 10, 7, 88
14, 15459, Control_c, 10, 7, 88
14, 15460, Control_c, 10, 7, 89
14, 15461, Control_c, 10, 7, 89
14, 15462, Control_c, 10, 7, 89
14, 15463, Control_c, 10, 7, 90
14, 15464, Control_c, 10, 7, 90
14, 15465, Control_c, 10, 7, 90
14, 15466, Control_c, 10, 7, 91
14, 15467, Control_c, 10, 7, 91
14, 15468, Control_c, 10, 7, 92
14, 15469, Control_c, 10, 7, 92
14, 15470, Control_c, 10, 7, 92
14, 15471, Control_c, 10, 7, 93
14, 15472, Control_c, 10, 7, 93
14, 15473, Control_c, 10, 7, 94
14, 15474, Control_c, 10, 7, 94
14, 15475, Control_c, 10, 7, 94
14, 15476, Control_c, 10, 7, 95
14, 15477, Control_c, 10, 7, 95
14, 15478, Control_c, 10, 7, 96
14, 15479, Control_c, 10, 7, 96
14, 15480, Control_c, 10, 7, 96
14, 15481, Control_c, 10, 7, 97
14, 15482, Control_c, 10, 7, 97
14, 15483, Control_c, 10, 7, 97
14, 15484, Control_c, 10, 7, 98
14, 15485, Control_c, 10, 7, 98
14, 15486, Control_c, 10, 7, 99
14, 15487, Control_c, 10, 7, 99
14, 15488, Control_c, 10, 7, 99
14, 15489, Control_c, 10, 7, 100
14, 15490, Control_c, 10, 7, 100
14, 15491, Control_c, 10, 7, 101
14, 15492, Control_c, 10, 7, 101
14, 15493, Control_c, 10, 7, 101
14, 15494, Control_c, 10, 7, 102
14, 15495, Control_c, 10, 7, 102
14, 15496, Control_c, 10, 7, 103
14, 15497, Control_c, 10, 7, 103
14, 15498, Control_c, 10, 7, 103
14, 15499, Control_c, 10, 7, 104
14, 15500, Control_c, 10, 7, 104
14, 15501, Control_c, 10, 7, 104
14, 15502, Control_c, 10, 7, 105
14, 15503, Control_c, 10, 7, 105
14, 15504, Note_off_c, 10, 41, 64
14, 15504, Note_off_c, 10, 29, 64
14, 15504, Note_off_c, 10, 53, 64
14, 15504, Control_c, 10, 7, 54
14, 15504, Note_on_c, 10, 43, 127
14, 15504, Note_on_c, 10, 31, 127
14, 15504, Note_on_c, 10, 55, 127
14, 15505, Control_c, 10, 7, 55
14, 15506, Control_c, 10, 7, 55
14, 15507, Control_c, 10, 7, 56
14, 15508, Control_c, 10, 7, 57
14, 15509, Control_c, 10, 7, 57
14, 15510, Control_c, 10, 7, 57
14, 15511, Control_c, 10, 7, 58
14, 15512, Control_c, 10, 7, 58
14, 15513, Control_c, 10, 7, 58
14, 15514, Control_c, 10, 7, 59
14, 15515, Control_c, 10, 7, 59
14, 15516, Control_c, 10, 7, 59
14, 15517, Control_c, 10, 7, 60
14, 15518, Control_c, 10, 7, 60
14, 15519, Control_c, 10, 7, 61
14, 15520, Control_c, 10, 7, 61
14, 15521, Control_c, 10, 7, 61
14, 15522, Control_c, 10, 7, 62
14, 15523, Control_c, 10, 7, 62
14, 15524, Control_c, 10, 7, 62
14, 15525, Control_c, 10, 7, 63
14, 15526, Control_c, 10, 7, 63
14, 15527, Control_c, 10, 7, 63
14, 15528, Control_c, 10, 7, 63
14, 15529, Control_c, 10, 7, 64
14, 15530, Control_c, 10, 7, 64
14, 15531, Control_c, 10, 7, 65
14, 15532, Control_c, 10, 7, 65
14, 15533, Control_c, 10, 7, 65
14, 15534, Control_c, 10, 7, 66
14, 15535, Control_c, 10, 7, 66
14, 15536, Control_c, 10, 7, 66
14, 15537, Control_c, 10, 7, 67
14, 15538, Control_c, 10, 7, 67
14, 15539, Control_c, 10, 7, 68
14, 15540, Control_c, 10, 7, 68
14, 15541, Control_c, 10, 7, 68
14, 15542, Control_c, 10, 7, 69
14, 15543, Control_c, 10, 7, 69
14, 15544, Control_c, 10, 7, 69
14, 15545, Control_c, 10, 7, 70
14, 15546, Control_c, 10, 7, 70
14, 15547, Control_c, 10, 7, 71
14, 15548, Control_c, 10, 7, 71
14, 15549, Control_c, 10, 7, 71
14, 15550, Control_c, 10, 7, 72
14, 15551, Control_c, 10, 7, 72
14, 15552, Control_c, 10, 7, 73
14, 15553, Control_c, 10, 7, 73
14, 15554, Control_c, 10, 7, 73
14, 15555, Control_c, 10, 7, 74
14, 15556, Control_c, 10, 7, 74
14, 15557, Control_c, 10, 7, 74
14, 15558, Control_c, 10, 7, 75
14, 15559, Control_c, 10, 7, 75
14, 15560, Control_c, 10, 7, 76
14, 15561, Control_c, 10, 7, 76
14, 15562, Control_c, 10, 7, 76
14, 15563, Control_c, 10, 7, 77
14, 15564, Control_c, 10, 7, 77
14, 15565, Control_c, 10, 7, 77
14, 15566, Control_c, 10, 7, 78
14, 15567, Control_c, 10, 7, 78
14, 15568, Control_c, 10, 7, 79
14, 15569, Control_c, 10, 7, 79
14, 15570, Control_c, 10, 7, 79
14, 15571, Control_c, 10, 7, 80
14, 15572, Control_c, 10, 7, 80
14, 15573, Control_c, 10, 7, 80
14, 15574, Control_c, 10, 7, 81
14, 15575, Control_c, 10, 7, 81
14, 15576, Control_c, 10, 7, 82
14, 15577, Control_c, 10, 7, 82
14, 15578, Control_c, 10, 7, 82
14, 15579, Control_c, 10, 7, 83
14, 15580, Control_c, 10, 7, 83
14, 15581, Control_c, 10, 7, 84
14, 15582, Control_c, 10, 7, 84
14, 15583, Control_c, 10, 7, 84
14, 15584, Control_c, 10, 7, 85
14, 15585, Control_c, 10, 7, 85
14, 15586, Control_c, 10, 7, 85
14, 15587, Control_c, 10, 7, 86
14, 15588, Control_c, 10, 7, 86
14, 15589, Control_c, 10, 7, 87
14, 15590, Control_c, 10, 7, 87
14, 15591, Control_c, 10, 7, 87
14, 15592, Control_c, 10, 7, 88
14, 15593, Control_c, 10, 7, 88
14, 15594, Control_c, 10, 7, 88
14, 15595, Control_c, 10, 7, 89
14, 15596, Control_c, 10, 7, 89
14, 15597, Control_c, 10, 7, 90
14, 15598, Control_c, 10, 7, 90
14, 15599, Control_c, 10, 7, 90
14, 15600, Control_c, 10, 7, 91
14, 15601, Control_c, 10, 7, 91
14, 15602, Control_c, 10, 7, 92
14, 15603, Control_c, 10, 7, 92
14, 15604, Control_c, 10, 7, 92
14, 15605, Control_c, 10, 7, 93
14, 15606, Control_c, 10, 7, 93
14, 15607, Control_c, 10, 7, 93
14, 15608, Control_c, 10, 7, 94
14, 15609, Control_c, 10, 7, 94
14, 15610, Control_c, 10, 7, 95
14, 15611, Control_c, 10, 7, 95
14, 15612, Control_c, 10, 7, 95
14, 15613, Control_c, 10, 7, 96
14, 15614, Control_c, 10, 7, 96
14, 15615, Control_c, 10, 7, 96
14, 15616, Control_c, 10, 7, 97
14, 15617, Control_c, 10, 7, 97
14, 15618, Control_c, 10, 7, 98
14, 15619, Control_c, 10, 7, 98
14, 15620, Control_c, 10, 7, 98
14, 15621, Control_c, 10, 7, 99
14, 15622, Control_c, 10, 7, 99
14, 15623, Control_c, 10, 7, 99
14, 15624, Control_c, 10, 7, 100
14, 15625, Control_c, 10, 7, 100
14, 15626, Control_c, 10, 7, 101
14, 15627, Control_c, 10, 7, 101
14, 15628, Control_c, 10, 7, 101
14, 15629, Control_c, 10, 7, 102
14, 15630, Control_c, 10, 7, 102
14, 15631, Control_c, 10, 7, 103
14, 15632, Control_c, 10, 7, 103
14, 15633, Control_c, 10, 7, 103
14, 15634, Control_c, 10, 7, 104
14, 15635, Control_c, 10, 7, 104
14, 15636, Control_c, 10, 7, 104
14, 15637, Control_c, 10, 7, 105
14, 15638, Control_c, 10, 7, 105
14, 15639, Control_c, 10, 7, 106
14, 15640, Control_c, 10, 7, 106
14, 15641, Control_c, 10, 7, 106
14, 15642, Control_c, 10, 7, 107
14, 15643, Control_c, 10, 7, 107
14, 15644, Control_c, 10, 7, 107
14, 15645, Control_c, 10, 7, 108
14, 15646, Control_c, 10, 7, 108
14, 15647, Control_c, 10, 7, 109
14, 15648, Note_off_c, 10, 43, 64
14, 15648, Note_off_c, 10, 31, 64
14, 15648, Note_off_c, 10, 55, 64
14, 15648, Control_c, 10, 7, 108
14, 15648, Note_on_c, 10, 39, 127
14, 15648, Note_on_c, 10, 27, 127
14, 15648, Note_on_c, 10, 51, 127
14, 15649, Control_c, 10, 7, 108
14, 15650, Control_c, 10, 7, 107
14, 15651, Control_c, 10, 7, 107
14, 15652, Control_c, 10, 7, 106
14, 15653, Control_c, 10, 7, 106
14, 15654, Control_c, 10, 7, 105
14, 15655, Control_c, 10, 7, 105
14, 15656, Control_c, 10, 7, 105
14, 15657, Control_c, 10, 7, 104
14, 15658, Control_c, 10, 7, 104
14, 15659, Control_c, 10, 7, 103
14, 15660, Control_c, 10, 7, 103
14, 15661, Control_c, 10, 7, 102
14, 15662, Control_c, 10, 7, 102
14, 15663, Control_c, 10, 7, 101
14, 15664, Control_c, 10, 7, 101
14, 15665, Control_c, 10, 7, 100
14, 15666, Control_c, 10, 7, 100
14, 15667, Control_c, 10, 7, 99
14, 15668, Control_c, 10, 7, 99
14, 15669, Control_c, 10, 7, 98
14, 15670, Control_c, 10, 7, 98
14, 15671, Control_c, 10, 7, 97
14, 15672, Control_c, 10, 7, 97
14, 15673, Control_c, 10, 7, 96
14, 15674, Control_c, 10, 7, 96
14, 15675, Control_c, 10, 7, 95
14, 15676, Control_c, 10, 7, 95
14, 15677, Control_c, 10, 7, 94
14, 15678, Control_c, 10, 7, 94
14, 15679, Control_c, 10, 7, 93
14, 15680, Control_c, 10, 7, 93
14, 15681, Control_c, 10, 7, 92
14, 15682, Control_c, 10, 7, 92
14, 15683, Control_c, 10, 7, 91
14, 15684, Control_c, 10, 7, 91
14, 15685, Control_c, 10, 7, 90
14, 15686, Control_c, 10, 7, 90
14, 15687, Control_c, 10, 7, 89
14, 15688, Control_c, 10, 7, 89
14, 15689, Control_c, 10, 7, 88
14, 15690, Control_c, 10, 7, 88
14, 15691, Control_c, 10, 7, 87
14, 15692, Control_c, 10, 7, 87
14, 15693, Control_c, 10, 7, 86
14, 15694, Control_c, 10, 7, 86
14, 15695, Control_c, 10, 7, 85
14, 15696, Control_c, 10, 7, 85
14, 15697, Control_c, 10, 7, 84
14, 15698, Control_c, 10, 7, 84
14, 15699, Control_c, 10, 7, 83
14, 15700, Control_c, 10, 7, 83
14, 15701, Control_c, 10, 7, 82
14, 15702, Control_c, 10, 7, 82
14, 15703, Control_c, 10, 7, 81
14, 15704, Control_c, 10, 7, 81
14, 15705, Control_c, 10, 7, 80
14, 15706, Control_c, 10, 7, 80
14, 15707, Control_c, 10, 7, 79
14, 15708, Control_c, 10, 7, 79
14, 15709, Control_c, 10, 7, 78
14, 15710, Control_c, 10, 7, 78
14, 15711, Control_c, 10, 7, 77
14, 15712, Control_c, 10, 7, 77
14, 15713, Control_c, 10, 7, 76
14, 15714, Control_c, 10, 7, 76
14, 15715, Control_c, 10, 7, 75
14, 15716, Control_c, 10, 7, 75
14, 15717, Control_c, 10, 7, 74
14, 15718, Control_c, 10, 7, 74
14, 15719, Control_c, 10, 7, 73
14, 15720, Control_c, 10, 7, 73
14, 15721, Control_c, 10, 7, 72
14, 15722, Control_c, 10, 7, 72
14, 15723, Control_c, 10, 7, 71
14, 15724, Control_c, 10, 7, 71
14, 15725, Control_c, 10, 7, 70
14, 15726, Control_c, 10, 7, 70
14, 15727, Control_c, 10, 7, 69
14, 15728, Control_c, 10, 7, 69
14, 15729, Control_c, 10, 7, 68
14, 15730, Control_c, 10, 7, 68
14, 15731, Control_c, 10, 7, 67
14, 15732, Control_c, 10, 7, 67
14, 15733, Control_c, 10, 7, 66
14, 15734, Control_c, 10, 7, 66
14, 15735, Control_c, 10, 7, 65
14, 15736, Control_c, 10, 7, 65
14, 15737, Control_c, 10, 7, 64
14, 15738, Control_c, 10, 7, 64
14, 15739, Control_c, 10, 7, 63
14, 15740, Control_c, 10, 7, 63
14, 15741, Control_c, 10, 7, 62
14, 15742, Control_c, 10, 7, 62
14, 15743, Control_c, 10, 7, 61
14, 15744, Control_c, 10, 7, 61
14, 15792, Note_off_c, 10, 27, 64
14, 15792, Note_off_c, 10, 51, 64
14, 15792, Note_off_c, 10, 39, 64
14, 15792, Control_c, 10, 7, 102
14, 15792, Note_on_c, 10, 39, 127
14, 15792, Note_on_c, 10, 27, 127
14, 15792, Note_on_c, 10, 51, 127
14, 15793, Control_c, 10, 7, 102
14, 15794, Control_c, 10, 7, 101
14, 15795, Control_c, 10, 7, 100
14, 15796, Control_c, 10, 7, 99
14, 15797, Control_c, 10, 7, 98
14, 15798, Control_c, 10, 7, 97
14, 15799, Control_c, 10, 7, 96
14, 15800, Control_c, 10, 7, 95
14, 15801, Control_c, 10, 7, 95
14, 15802, Control_c, 10, 7, 94
14, 15803, Control_c, 10, 7, 93
14, 15804, Control_c, 10, 7, 92
14, 15805, Control_c, 10, 7, 91
14, 15806, Control_c, 10, 7, 90
14, 15807, Control_c, 10, 7, 89
14, 15808, Control_c, 10, 7, 88
14, 15809, Control_c, 10, 7, 87
14, 15810, Control_c, 10, 7, 87
14, 15811, Control_c, 10, 7, 86
14, 15812, Control_c, 10, 7, 85
14, 15813, Control_c, 10, 7, 84
14, 15814, Control_c, 10, 7, 83
14, 15815, Control_c, 10, 7, 82
14, 15816, Control_c, 10, 7, 81
14, 15817, Control_c, 10, 7, 80
14, 15818, Control_c, 10, 7, 80
14, 15819, Control_c, 10, 7, 79
14, 15820, Control_c, 10, 7, 78
14, 15821, Control_c, 10, 7, 77
14, 15822, Control_c, 10, 7, 76
14, 15823, Control_c, 10, 7, 75
14, 15824, Control_c, 10, 7, 74
14, 15825, Control_c, 10, 7, 73
14, 15826, Control_c, 10, 7, 73
14, 15827, Control_c, 10, 7, 72
14, 15828, Control_c, 10, 7, 71
14, 15829, Control_c, 10, 7, 70
14, 15830, Control_c, 10, 7, 69
14, 15831, Control_c, 10, 7, 68
14, 15832, Control_c, 10, 7, 67
14, 15833, Control_c, 10, 7, 66
14, 15834, Control_c, 10, 7, 66
14, 15835, Control_c, 10, 7, 65
14, 15836, Control_c, 10, 7, 64
14, 15837, Control_c, 10, 7, 63
14, 15838, Control_c, 10, 7, 62
14, 15839, Control_c, 10, 7, 61
14, 15840, Note_off_c, 10, 51, 64
14, 15840, Note_off_c, 10, 27, 64
14, 15840, Note_off_c, 10, 39, 64
14, 15840, Control_c, 10, 7, 102
14, 15840, Note_on_c, 10, 39, 127
14, 15840, Note_on_c, 10, 27, 127
14, 15840, Note_on_c, 10, 51, 127
14, 15841, Control_c, 10, 7, 102
14, 15842, Control_c, 10, 7, 101
14, 15843, Control_c, 10, 7, 100
14, 15844, Control_c, 10, 7, 99
14, 15845, Control_c, 10, 7, 98
14, 15846, Control_c, 10, 7, 97
14, 15847, Control_c, 10, 7, 96
14, 15848, Control_c, 10, 7, 96
14, 15849, Control_c, 10, 7, 95
14, 15850, Control_c, 10, 7, 94
14, 15851, Control_c, 10, 7, 93
14, 15852, Control_c, 10, 7, 92
14, 15853, Control_c, 10, 7, 91
14, 15854, Control_c, 10, 7, 91
14, 15855, Control_c, 10, 7, 90
14, 15856, Control_c, 10, 7, 89
14, 15857, Control_c, 10, 7, 88
14, 15858, Control_c, 10, 7, 87
14, 15859, Control_c, 10, 7, 86
14, 15860, Control_c, 10, 7, 85
14, 15861, Control_c, 10, 7, 85
14, 15862, Control_c, 10, 7, 84
14, 15863, Control_c, 10, 7, 83
14, 15864, Control_c, 10, 7, 82
14, 15865, Control_c, 10, 7, 81
14, 15866, Control_c, 10, 7, 80
14, 15867, Control_c, 10, 7, 80
14, 15868, Control_c, 10, 7, 79
14, 15869, Control_c, 10, 7, 78
14, 15870, Control_c, 10, 7, 77
14, 15871, Control_c, 10, 7, 76
14, 15872, Control_c, 10, 7, 75
14, 15873, Control_c, 10, 7, 74
14, 15874, Control_c, 10, 7, 74
14, 15875, Control_c, 10, 7, 73
14, 15876, Control_c, 10, 7, 72
14, 15877, Control_c, 10, 7, 71
14, 15878, Control_c, 10, 7, 70
14, 15879, Control_c, 10, 7, 69
14, 15880, Control_c, 10, 7, 68
14, 15881, Control_c, 10, 7, 68
14, 15882, Control_c, 10, 7, 67
14, 15883, Control_c, 10, 7, 66
14, 15884, Control_c, 10, 7, 65
14, 15885, Control_c, 10, 7, 64
14, 15886, Control_c, 10, 7, 102
14, 15887, Control_c, 10, 7, 102
14, 15888, Note_off_c, 10, 39, 64
14, 15888, Note_off_c, 10, 51, 64
14, 15888, Note_off_c, 10, 27, 64
14, 15888, Control_c, 10, 7, 101
14, 15888, Note_on_c, 10, 39, 127
14, 15888, Note_on_c, 10, 27, 127
14, 15888, Note_on_c, 10, 51, 127
14, 15889, Control_c, 10, 7, 100
14, 15890, Control_c, 10, 7, 99
14, 15891, Control_c, 10, 7, 98
14, 15892, Control_c, 10, 7, 97
14, 15893, Control_c, 10, 7, 97
14, 15894, Control_c, 10, 7, 96
14, 15895, Control_c, 10, 7, 95
14, 15896, Control_c, 10, 7, 94
14, 15897, Control_c, 10, 7, 93
14, 15898, Control_c, 10, 7, 93
14, 15899, Control_c, 10, 7, 92
14, 15900, Control_c, 10, 7, 91
14, 15901, Control_c, 10, 7, 90
14, 15902, Control_c, 10, 7, 89
14, 15903, Control_c, 10, 7, 88
14, 15904, Control_c, 10, 7, 88
14, 15905, Control_c, 10, 7, 87
14, 15906, Control_c, 10, 7, 86
14, 15907, Control_c, 10, 7, 85
14, 15908, Control_c, 10, 7, 84
14, 15909, Control_c, 10, 7, 84
14, 15910, Control_c, 10, 7, 83
14, 15911, Control_c, 10, 7, 82
14, 15912, Control_c, 10, 7, 81
14, 15913, Control_c, 10, 7, 80
14, 15914, Control_c, 10, 7, 79
14, 15915, Control_c, 10, 7, 79
14, 15916, Control_c, 10, 7, 78
14, 15917, Control_c, 10, 7, 77
14, 15918, Control_c, 10, 7, 76
14, 15919, Control_c, 10, 7, 75
14, 15920, Control_c, 10, 7, 75
14, 15921, Control_c, 10, 7, 74
14, 15922, Control_c, 10, 7, 73
14, 15923, Control_c, 10, 7, 72
14, 15924, Control_c, 10, 7, 71
14, 15925, Control_c, 10, 7, 70
14, 15926, Control_c, 10, 7, 70
14, 15927, Control_c, 10, 7, 69
14, 15928, Control_c, 10, 7, 68
14, 15929, Control_c, 10, 7, 67
14, 15930, Control_c, 10, 7, 66
14, 15931, Control_c, 10, 7, 66
14, 15932, Control_c, 10, 7, 65
14, 15933, Control_c, 10, 7, 64
14, 15934, Control_c, 10, 7, 63
14, 15935, Control_c, 10, 7, 62
14, 15936, Note_off_c, 10, 27, 64
14, 15936, Note_off_c, 10, 51, 64
14, 15936, Note_off_c, 10, 39, 64
14, 15936, Control_c, 10, 7, 102
14, 15936, Note_on_c, 10, 39, 127
14, 15936, Note_on_c, 10, 27, 127
14, 15936, Note_on_c, 10, 51, 127
14, 15937, Control_c, 10, 7, 102
14, 15938, Control_c, 10, 7, 101
14, 15939, Control_c, 10, 7, 100
14, 15940, Control_c, 10, 7, 99
14, 15941, Control_c, 10, 7, 98
14, 15942, Control_c, 10, 7, 97
14, 15943, Control_c, 10, 7, 96
14, 15944, Control_c, 10, 7, 95
14, 15945, Control_c, 10, 7, 94
14, 15946, Control_c, 10, 7, 94
14, 15947, Control_c, 10, 7, 93
14, 15948, Control_c, 10, 7, 92
14, 15949, Control_c, 10, 7, 91
14, 15950, Control_c, 10, 7, 90
14, 15951, Control_c, 10, 7, 89
14, 15952, Control_c, 10, 7, 88
14, 15953, Control_c, 10, 7, 87
14, 15954, Control_c, 10, 7, 86
14, 15955, Control_c, 10, 7, 86
14, 15956, Control_c, 10, 7, 85
14, 15957, Control_c, 10, 7, 84
14, 15958, Control_c, 10, 7, 83
14, 15959, Control_c, 10, 7, 82
14, 15960, Control_c, 10, 7, 81
14, 15961, Control_c, 10, 7, 80
14, 15962, Control_c, 10, 7, 79
14, 15963, Control_c, 10, 7, 78
14, 15964, Control_c, 10, 7, 78
14, 15965, Control_c, 10, 7, 77
14, 15966, Control_c, 10, 7, 76
14, 15967, Control_c, 10, 7, 75
14, 15968, Control_c, 10, 7, 74
14, 15969, Control_c, 10, 7, 73
14, 15970, Control_c, 10, 7, 72
14, 15971, Control_c, 10, 7, 71
14, 15972, Control_c, 10, 7, 70
14, 15973, Control_c, 10, 7, 69
14, 15974, Control_c, 10, 7, 69
14, 15975, Control_c, 10, 7, 68
14, 15976, Control_c, 10, 7, 67
14, 15977, Control_c, 10, 7, 66
14, 15978, Control_c, 10, 7, 65
14, 15979, Control_c, 10, 7, 64
14, 15980, Control_c, 10, 7, 63
14, 15981, Control_c, 10, 7, 62
14, 15982, Control_c, 10, 7, 61
14, 15983, Control_c, 10, 7, 61
14, 15984, Note_off_c, 10, 51, 64
14, 15984, Note_off_c, 10, 27, 64
14, 15984, Note_off_c, 10, 39, 64
14, 15984, Note_on_c, 10, 39, 127
14, 15984, Note_on_c, 10, 27, 127
14, 15984, Note_on_c, 10, 51, 127
14, 15985, Control_c, 10, 7, 103
14, 15986, Control_c, 10, 7, 102
14, 15987, Control_c, 10, 7, 101
14, 15988, Control_c, 10, 7, 100
14, 15989, Control_c, 10, 7, 99
14, 15990, Control_c, 10, 7, 99
14, 15991, Control_c, 10, 7, 98
14, 15992, Control_c, 10, 7, 97
14, 15993, Control_c, 10, 7, 96
14, 15994, Control_c, 10, 7, 95
14, 15995, Control_c, 10, 7, 94
14, 15996, Control_c, 10, 7, 93
14, 15997, Control_c, 10, 7, 93
14, 15998, Control_c, 10, 7, 92
14, 15999, Control_c, 10, 7, 91
14, 16000, Control_c, 10, 7, 90
14, 16001, Control_c, 10, 7, 89
14, 16002, Control_c, 10, 7, 88
14, 16003, Control_c, 10, 7, 87
14, 16004, Control_c, 10, 7, 87
14, 16005, Control_c, 10, 7, 86
14, 16006, Control_c, 10, 7, 85
14, 16007, Control_c, 10, 7, 84
14, 16008, Control_c, 10, 7, 83
14, 16009, Control_c, 10, 7, 82
14, 16010, Control_c, 10, 7, 81
14, 16011, Control_c, 10, 7, 81
14, 16012, Control_c, 10, 7, 80
14, 16013, Control_c, 10, 7, 79
14, 16014, Control_c, 10, 7, 78
14, 16015, Control_c, 10, 7, 77
14, 16016, Control_c, 10, 7, 76
14, 16017, Control_c, 10, 7, 75
14, 16018, Control_c, 10, 7, 75
14, 16019, Control_c, 10, 7, 74
14, 16020, Control_c, 10, 7, 73
14, 16021, Control_c, 10, 7, 72
14, 16022, Control_c, 10, 7, 71
14, 16023, Control_c, 10, 7, 70
14, 16024, Control_c, 10, 7, 69
14, 16025, Control_c, 10, 7, 69
14, 16026, Control_c, 10, 7, 68
14, 16027, Control_c, 10, 7, 67
14, 16028, Control_c, 10, 7, 66
14, 16029, Control_c, 10, 7, 65
14, 16030, Control_c, 10, 7, 64
14, 16031, Control_c, 10, 7, 64
14, 16032, Note_off_c, 10, 51, 64
14, 16032, Note_off_c, 10, 27, 64
14, 16032, Note_off_c, 10, 39, 64
14, 16032, Note_on_c, 10, 39, 127
14, 16032, Note_on_c, 10, 27, 127
14, 16032, Note_on_c, 10, 51, 127
14, 16033, Control_c, 10, 7, 104
14, 16034, Control_c, 10, 7, 103
14, 16035, Control_c, 10, 7, 102
14, 16036, Control_c, 10, 7, 101
14, 16037, Control_c, 10, 7, 100
14, 16038, Control_c, 10, 7, 99
14, 16039, Control_c, 10, 7, 98
14, 16040, Control_c, 10, 7, 98
14, 16041, Control_c, 10, 7, 97
14, 16042, Control_c, 10, 7, 96
14, 16043, Control_c, 10, 7, 95
14, 16044, Control_c, 10, 7, 94
14, 16045, Control_c, 10, 7, 93
14, 16046, Control_c, 10, 7, 93
14, 16047, Control_c, 10, 7, 92
14, 16048, Control_c, 10, 7, 91
14, 16049, Control_c, 10, 7, 90
14, 16050, Control_c, 10, 7, 89
14, 16051, Control_c, 10, 7, 88
14, 16052, Control_c, 10, 7, 87
14, 16053, Control_c, 10, 7, 87
14, 16054, Control_c, 10, 7, 86
14, 16055, Control_c, 10, 7, 85
14, 16056, Control_c, 10, 7, 84
14, 16057, Control_c, 10, 7, 83
14, 16058, Control_c, 10, 7, 82
14, 16059, Control_c, 10, 7, 82
14, 16060, Control_c, 10, 7, 81
14, 16061, Control_c, 10, 7, 80
14, 16062, Control_c, 10, 7, 79
14, 16063, Control_c, 10, 7, 78
14, 16064, Control_c, 10, 7, 77
14, 16065, Control_c, 10, 7, 76
14, 16066, Control_c, 10, 7, 76
14, 16067, Control_c, 10, 7, 75
14, 16068, Control_c, 10, 7, 74
14, 16069, Control_c, 10, 7, 73
14, 16070, Control_c, 10, 7, 72
14, 16071, Control_c, 10, 7, 71
14, 16072, Control_c, 10, 7, 71
14, 16073, Control_c, 10, 7, 70
14, 16074, Control_c, 10, 7, 69
14, 16075, Control_c, 10, 7, 68
14, 16076, Control_c, 10, 7, 67
14, 16077, Control_c, 10, 7, 66
14, 16078, Control_c, 10, 7, 65
14, 16079, Control_c, 10, 7, 102
14, 16080, Note_off_c, 10, 51, 64
14, 16080, Note_off_c, 10, 27, 64
14, 16080, Note_off_c, 10, 39, 64
14, 16080, Control_c, 10, 7, 102
14, 16080, Note_on_c, 10, 39, 127
14, 16080, Note_on_c, 10, 27, 127
14, 16080, Note_on_c, 10, 51, 127
14, 16081, Control_c, 10, 7, 101
14, 16082, Control_c, 10, 7, 100
14, 16083, Control_c, 10, 7, 99
14, 16084, Control_c, 10, 7, 98
14, 16085, Control_c, 10, 7, 97
14, 16086, Control_c, 10, 7, 96
14, 16087, Control_c, 10, 7, 96
14, 16088, Control_c, 10, 7, 95
14, 16089, Control_c, 10, 7, 94
14, 16090, Control_c, 10, 7, 93
14, 16091, Control_c, 10, 7, 92
14, 16092, Control_c, 10, 7, 91
14, 16093, Control_c, 10, 7, 90
14, 16094, Control_c, 10, 7, 89
14, 16095, Control_c, 10, 7, 89
14, 16096, Control_c, 10, 7, 88
14, 16097, Control_c, 10, 7, 87
14, 16098, Control_c, 10, 7, 86
14, 16099, Control_c, 10, 7, 85
14, 16100, Control_c, 10, 7, 84
14, 16101, Control_c, 10, 7, 83
14, 16102, Control_c, 10, 7, 83
14, 16103, Control_c, 10, 7, 82
14, 16104, Control_c, 10, 7, 81
14, 16105, Control_c, 10, 7, 80
14, 16106, Control_c, 10, 7, 79
14, 16107, Control_c, 10, 7, 78
14, 16108, Control_c, 10, 7, 77
14, 16109, Control_c, 10, 7, 77
14, 16110, Control_c, 10, 7, 76
14, 16111, Control_c, 10, 7, 75
14, 16112, Control_c, 10, 7, 74
14, 16113, Control_c, 10, 7, 73
14, 16114, Control_c, 10, 7, 72
14, 16115, Control_c, 10, 7, 71
14, 16116, Control_c, 10, 7, 71
14, 16117, Control_c, 10, 7, 70
14, 16118, Control_c, 10, 7, 69
14, 16119, Control_c, 10, 7, 68
14, 16120, Control_c, 10, 7, 67
14, 16121, Control_c, 10, 7, 66
14, 16122, Control_c, 10, 7, 65
14, 16123, Control_c, 10, 7, 65
14, 16124, Control_c, 10, 7, 64
14, 16125, Control_c, 10, 7, 63
14, 16128, Note_off_c, 10, 27, 64
14, 16128, Note_off_c, 10, 51, 64
14, 16128, Note_off_c, 10, 39, 64
14, 16128, Control_c, 10, 7, 113
14, 16128, Note_on_c, 10, 39, 127
14, 16128, Note_on_c, 10, 27, 127
14, 16128, Note_on_c, 10, 51, 127
14, 16129, Control_c, 10, 7, 113
14, 16130, Control_c, 10, 7, 112
14, 16131, Control_c, 10, 7, 112
14, 16132, Control_c, 10, 7, 112
14, 16133, Control_c, 10, 7, 111
14, 16134, Control_c, 10, 7, 111
14, 16135, Control_c, 10, 7, 110
14, 16136, Control_c, 10, 7, 110
14, 16137, Control_c, 10, 7, 110
14, 16138, Control_c, 10, 7, 109
14, 16139, Control_c, 10, 7, 109
14, 16140, Control_c, 10, 7, 109
14, 16141, Control_c, 10, 7, 108
14, 16142, Control_c, 10, 7, 108
14, 16143, Control_c, 10, 7, 108
14, 16144, Control_c, 10, 7, 107
14, 16145, Control_c, 10, 7, 107
14, 16146, Control_c, 10, 7, 107
14, 16147, Control_c, 10, 7, 106
14, 16148, Control_c, 10, 7, 106
14, 16149, Control_c, 10, 7, 106
14, 16150, Control_c, 10, 7, 105
14, 16151, Control_c, 10, 7, 105
14, 16152, Control_c, 10, 7, 104
14, 16153, Control_c, 10, 7, 104
14, 16154, Control_c, 10, 7, 104
14, 16155, Control_c, 10, 7, 103
14, 16156, Control_c, 10, 7, 103
14, 16157, Control_c, 10, 7, 103
14, 16158, Control_c, 10, 7, 102
14, 16159, Control_c, 10, 7, 102
14, 16160, Control_c, 10, 7, 102
14, 16161, Control_c, 10, 7, 101
14, 16162, Control_c, 10, 7, 101
14, 16163, Control_c, 10, 7, 101
14, 16164, Control_c, 10, 7, 100
14, 16165, Control_c, 10, 7, 100
14, 16166, Control_c, 10, 7, 100
14, 16167, Control_c, 10, 7, 99
14, 16168, Control_c, 10, 7, 99
14, 16169, Control_c, 10, 7, 98
14, 16170, Control_c, 10, 7, 98
14, 16171, Control_c, 10, 7, 98
14, 16172, Control_c, 10, 7, 97
14, 16173, Control_c, 10, 7, 97
14, 16174, Control_c, 10, 7, 97
14, 16175, Control_c, 10, 7, 96
14, 16176, Control_c, 10, 7, 96
14, 16177, Control_c, 10, 7, 96
14, 16178, Control_c, 10, 7, 95
14, 16179, Control_c, 10, 7, 95
14, 16180, Control_c, 10, 7, 95
14, 16181, Control_c, 10, 7, 94
14, 16182, Control_c, 10, 7, 94
14, 16183, Control_c, 10, 7, 94
14, 16184, Control_c, 10, 7, 93
14, 16185, Control_c, 10, 7, 93
14, 16186, Control_c, 10, 7, 92
14, 16187, Control_c, 10, 7, 92
14, 16188, Control_c, 10, 7, 92
14, 16189, Control_c, 10, 7, 91
14, 16190, Control_c, 10, 7, 91
14, 16191, Control_c, 10, 7, 91
14, 16192, Control_c, 10, 7, 90
14, 16193, Control_c, 10, 7, 90
14, 16194, Control_c, 10, 7, 90
14, 16195, Control_c, 10, 7, 89
14, 16196, Control_c, 10, 7, 89
14, 16197, Control_c, 10, 7, 89
14, 16198, Control_c, 10, 7, 88
14, 16199, Control_c, 10, 7, 88
14, 16200, Control_c, 10, 7, 88
14, 16201, Control_c, 10, 7, 87
14, 16202, Control_c, 10, 7, 87
14, 16203, Control_c, 10, 7, 86
14, 16204, Control_c, 10, 7, 86
14, 16205, Control_c, 10, 7, 86
14, 16206, Control_c, 10, 7, 85
14, 16207, Control_c, 10, 7, 85
14, 16208, Control_c, 10, 7, 85
14, 16209, Control_c, 10, 7, 84
14, 16210, Control_c, 10, 7, 84
14, 16211, Control_c, 10, 7, 84
14, 16212, Control_c, 10, 7, 83
14, 16213, Control_c, 10, 7, 83
14, 16214, Control_c, 10, 7, 83
14, 16215, Control_c, 10, 7, 82
14, 16216, Control_c, 10, 7, 82
14, 16217, Control_c, 10, 7, 82
14, 16218, Control_c, 10, 7, 81
14, 16219, Control_c, 10, 7, 81
14, 16220, Control_c, 10, 7, 80
14, 16221, Control_c, 10, 7, 80
14, 16222, Control_c, 10, 7, 80
14, 16223, Control_c, 10, 7, 79
14, 16224, Control_c, 10, 7, 79
14, 16225, Control_c, 10, 7, 79
14, 16226, Control_c, 10, 7, 78
14, 16227, Control_c, 10, 7, 78
14, 16228, Control_c, 10, 7, 78
14, 16229, Control_c, 10, 7, 77
14, 16230, Control_c, 10, 7, 77
14, 16231, Control_c, 10, 7, 77
14, 16232, Control_c, 10, 7, 76
14, 16233, Control_c, 10, 7, 76
14, 16234, Control_c, 10, 7, 76
14, 16235, Control_c, 10, 7, 75
14, 16236, Control_c, 10, 7, 75
14, 16237, Control_c, 10, 7, 74
14, 16238, Control_c, 10, 7, 74
14, 16239, Control_c, 10, 7, 74
14, 16240, Control_c, 10, 7, 73
14, 16241, Control_c, 10, 7, 73
14, 16242, Control_c, 10, 7, 73
14, 16243, Control_c, 10, 7, 72
14, 16244, Control_c, 10, 7, 72
14, 16245, Control_c, 10, 7, 72
14, 16246, Control_c, 10, 7, 71
14, 16247, Control_c, 10, 7, 71
14, 16248, Control_c, 10, 7, 71
14, 16249, Control_c, 10, 7, 70
14, 16250, Control_c, 10, 7, 70
14, 16251, Control_c, 10, 7, 70
14, 16252, Control_c, 10, 7, 69
14, 16253, Control_c, 10, 7, 69
14, 16254, Control_c, 10, 7, 68
14, 16255, Control_c, 10, 7, 68
14, 16256, Control_c, 10, 7, 68
14, 16257, Control_c, 10, 7, 67
14, 16258, Control_c, 10, 7, 67
14, 16259, Control_c, 10, 7, 67
14, 16260, Control_c, 10, 7, 66
14, 16261, Control_c, 10, 7, 66
14, 16262, Control_c, 10, 7, 66
14, 16263, Control_c, 10, 7, 65
14, 16264, Control_c, 10, 7, 65
14, 16265, Control_c, 10, 7, 65
14, 16266, Control_c, 10, 7, 64
14, 16267, Control_c, 10, 7, 64
14, 16268, Control_c, 10, 7, 64
14, 16269, Control_c, 10, 7, 63
14, 16270, Control_c, 10, 7, 111
14, 16271, Control_c, 10, 7, 111
14, 16272, Note_off_c, 10, 27, 64
14, 16272, Note_off_c, 10, 39, 64
14, 16272, Note_off_c, 10, 51, 64
14, 16272, Control_c, 10, 7, 110
14, 16272, Note_on_c, 10, 39, 127
14, 16272, Note_on_c, 10, 51, 127
14, 16272, Note_on_c, 10, 27, 127
14, 16273, Control_c, 10, 7, 110
14, 16274, Control_c, 10, 7, 110
14, 16275, Control_c, 10, 7, 109
14, 16276, Control_c, 10, 7, 109
14, 16277, Control_c, 10, 7, 109
14, 16278, Control_c, 10, 7, 109
14, 16279, Control_c, 10, 7, 108
14, 16280, Control_c, 10, 7, 108
14, 16281, Control_c, 10, 7, 108
14, 16282, Control_c, 10, 7, 107
14, 16283, Control_c, 10, 7, 107
14, 16284, Control_c, 10, 7, 107
14, 16285, Control_c, 10, 7, 106
14, 16286, Control_c, 10, 7, 106
14, 16287, Control_c, 10, 7, 106
14, 16288, Control_c, 10, 7, 105
14, 16289, Control_c, 10, 7, 105
14, 16290, Control_c, 10, 7, 105
14, 16291, Control_c, 10, 7, 104
14, 16292, Control_c, 10, 7, 104
14, 16293, Control_c, 10, 7, 104
14, 16294, Control_c, 10, 7, 103
14, 16295, Control_c, 10, 7, 103
14, 16296, Control_c, 10, 7, 103
14, 16297, Control_c, 10, 7, 102
14, 16298, Control_c, 10, 7, 102
14, 16299, Control_c, 10, 7, 102
14, 16300, Control_c, 10, 7, 101
14, 16301, Control_c, 10, 7, 101
14, 16302, Control_c, 10, 7, 101
14, 16303, Control_c, 10, 7, 100
14, 16304, Control_c, 10, 7, 100
14, 16305, Control_c, 10, 7, 100
14, 16306, Control_c, 10, 7, 99
14, 16307, Control_c, 10, 7, 99
14, 16308, Control_c, 10, 7, 99
14, 16309, Control_c, 10, 7, 98
14, 16310, Control_c, 10, 7, 98
14, 16311, Control_c, 10, 7, 98
14, 16312, Control_c, 10, 7, 97
14, 16313, Control_c, 10, 7, 97
14, 16314, Control_c, 10, 7, 97
14, 16315, Control_c, 10, 7, 96
14, 16316, Control_c, 10, 7, 96
14, 16317, Control_c, 10, 7, 96
14, 16318, Control_c, 10, 7, 95
14, 16319, Control_c, 10, 7, 95
14, 16320, Control_c, 10, 7, 95
14, 16321, Control_c, 10, 7, 94
14, 16322, Control_c, 10, 7, 94
14, 16323, Control_c, 10, 7, 94
14, 16324, Control_c, 10, 7, 93
14, 16325, Control_c, 10, 7, 93
14, 16326, Control_c, 10, 7, 93
14, 16327, Control_c, 10, 7, 92
14, 16328, Control_c, 10, 7, 92
14, 16329, Control_c, 10, 7, 92
14, 16330, Control_c, 10, 7, 91
14, 16331, Control_c, 10, 7, 91
14, 16332, Control_c, 10, 7, 91
14, 16333, Control_c, 10, 7, 90
14, 16334, Control_c, 10, 7, 90
14, 16335, Control_c, 10, 7, 90
14, 16336, Control_c, 10, 7, 89
14, 16337, Control_c, 10, 7, 89
14, 16338, Control_c, 10, 7, 89
14, 16339, Control_c, 10, 7, 88
14, 16340, Control_c, 10, 7, 88
14, 16341, Control_c, 10, 7, 88
14, 16342, Control_c, 10, 7, 87
14, 16343, Control_c, 10, 7, 87
14, 16344, Control_c, 10, 7, 87
14, 16345, Control_c, 10, 7, 86
14, 16346, Control_c, 10, 7, 86
14, 16347, Control_c, 10, 7, 86
14, 16348, Control_c, 10, 7, 85
14, 16349, Control_c, 10, 7, 85
14, 16350, Control_c, 10, 7, 85
14, 16351, Control_c, 10, 7, 84
14, 16352, Control_c, 10, 7, 84
14, 16353, Control_c, 10, 7, 84
14, 16354, Control_c, 10, 7, 83
14, 16355, Control_c, 10, 7, 83
14, 16356, Control_c, 10, 7, 83
14, 16357, Control_c, 10, 7, 82
14, 16358, Control_c, 10, 7, 82
14, 16359, Control_c, 10, 7, 82
14, 16360, Control_c, 10, 7, 81
14, 16361, Control_c, 10, 7, 81
14, 16362, Control_c, 10, 7, 81
14, 16363, Control_c, 10, 7, 80
14, 16364, Control_c, 10, 7, 80
14, 16365, Control_c, 10, 7, 80
14, 16366, Control_c, 10, 7, 79
14, 16367, Control_c, 10, 7, 79
14, 16368, Control_c, 10, 7, 79
14, 16369, Control_c, 10, 7, 78
14, 16370, Control_c, 10, 7, 78
14, 16371, Control_c, 10, 7, 78
14, 16372, Control_c, 10, 7, 77
14, 16373, Control_c, 10, 7, 77
14, 16374, Control_c, 10, 7, 77
14, 16375, Control_c, 10, 7, 76
14, 16376, Control_c, 10, 7, 76
14, 16377, Control_c, 10, 7, 76
14, 16378, Control_c, 10, 7, 75
14, 16379, Control_c, 10, 7, 75
14, 16380, Control_c, 10, 7, 75
14, 16381, Control_c, 10, 7, 74
14, 16382, Control_c, 10, 7, 74
14, 16383, Control_c, 10, 7, 74
14, 16384, Control_c, 10, 7, 73
14, 16385, Control_c, 10, 7, 73
14, 16386, Control_c, 10, 7, 73
14, 16387, Control_c, 10, 7, 72
14, 16388, Control_c, 10, 7, 72
14, 16389, Control_c, 10, 7, 72
14, 16390, Control_c, 10, 7, 71
14, 16391, Control_c, 10, 7, 71
14, 16392, Control_c, 10, 7, 71
14, 16393, Control_c, 10, 7, 70
14, 16394, Control_c, 10, 7, 70
14, 16395, Control_c, 10, 7, 70
14, 16396, Control_c, 10, 7, 69
14, 16397, Control_c, 10, 7, 69
14, 16398, Control_c, 10, 7, 69
14, 16399, Control_c, 10, 7, 68
14, 16400, Control_c, 10, 7, 68
14, 16401, Control_c, 10, 7, 68
14, 16402, Control_c, 10, 7, 67
14, 16403, Control_c, 10, 7, 67
14, 16404, Control_c, 10, 7, 67
14, 16405, Control_c, 10, 7, 66
14, 16406, Control_c, 10, 7, 66
14, 16407, Control_c, 10, 7, 66
14, 16408, Control_c, 10, 7, 65
14, 16409, Control_c, 10, 7, 65
14, 16410, Control_c, 10, 7, 65
14, 16411, Control_c, 10, 7, 64
14, 16412, Control_c, 10, 7, 64
14, 16413, Control_c, 10, 7, 64
14, 16414, Control_c, 10, 7, 63
14, 16415, Control_c, 10, 7, 63
14, 16416, Note_off_c, 10, 39, 64
14, 16416, Note_off_c, 10, 51, 64
14, 16416, Note_off_c, 10, 27, 64
14, 16416, Control_c, 10, 7, 64
14, 16416, Note_on_c, 10, 39, 127
14, 16416, Note_on_c, 10, 51, 127
14, 16416, Note_on_c, 10, 27, 127
14, 16417, Control_c, 10, 7, 64
14, 16418, Control_c, 10, 7, 65
14, 16419, Control_c, 10, 7, 65
14, 16420, Control_c, 10, 7, 66
14, 16421, Control_c, 10, 7, 66
14, 16422, Control_c, 10, 7, 67
14, 16423, Control_c, 10, 7, 67
14, 16424, Control_c, 10, 7, 68
14, 16425, Control_c, 10, 7, 68
14, 16426, Control_c, 10, 7, 69
14, 16427, Control_c, 10, 7, 69
14, 16428, Control_c, 10, 7, 70
14, 16429, Control_c, 10, 7, 70
14, 16430, Control_c, 10, 7, 71
14, 16431, Control_c, 10, 7, 71
14, 16432, Control_c, 10, 7, 72
14, 16433, Control_c, 10, 7, 72
14, 16434, Control_c, 10, 7, 73
14, 16435, Control_c, 10, 7, 73
14, 16436, Control_c, 10, 7, 74
14, 16437, Control_c, 10, 7, 74
14, 16438, Control_c, 10, 7, 75
14, 16439, Control_c, 10, 7, 75
14, 16440, Control_c, 10, 7, 76
14, 16441, Control_c, 10, 7, 76
14, 16442, Control_c, 10, 7, 77
14, 16443, Control_c, 10, 7, 77
14, 16444, Control_c, 10, 7, 78
14, 16445, Control_c, 10, 7, 78
14, 16446, Control_c, 10, 7, 79
14, 16447, Control_c, 10, 7, 79
14, 16448, Control_c, 10, 7, 80
14, 16449, Control_c, 10, 7, 80
14, 16450, Control_c, 10, 7, 81
14, 16451, Control_c, 10, 7, 81
14, 16452, Control_c, 10, 7, 82
14, 16453, Control_c, 10, 7, 82
14, 16454, Control_c, 10, 7, 83
14, 16455, Control_c, 10, 7, 83
14, 16456, Control_c, 10, 7, 84
14, 16457, Control_c, 10, 7, 84
14, 16458, Control_c, 10, 7, 85
14, 16459, Control_c, 10, 7, 85
14, 16460, Control_c, 10, 7, 86
14, 16461, Control_c, 10, 7, 86
14, 16462, Control_c, 10, 7, 87
14, 16463, Control_c, 10, 7, 87
14, 16464, Control_c, 10, 7, 88
14, 16465, Control_c, 10, 7, 88
14, 16466, Control_c, 10, 7, 89
14, 16467, Control_c, 10, 7, 89
14, 16468, Control_c, 10, 7, 90
14, 16469, Control_c, 10, 7, 90
14, 16470, Control_c, 10, 7, 91
14, 16471, Control_c, 10, 7, 91
14, 16472, Control_c, 10, 7, 92
14, 16473, Control_c, 10, 7, 92
14, 16474, Control_c, 10, 7, 93
14, 16475, Control_c, 10, 7, 93
14, 16476, Control_c, 10, 7, 94
14, 16477, Control_c, 10, 7, 94
14, 16478, Control_c, 10, 7, 95
14, 16479, Control_c, 10, 7, 95
14, 16480, Control_c, 10, 7, 96
14, 16481, Control_c, 10, 7, 96
14, 16482, Control_c, 10, 7, 97
14, 16483, Control_c, 10, 7, 97
14, 16484, Control_c, 10, 7, 98
14, 16485, Control_c, 10, 7, 98
14, 16486, Control_c, 10, 7, 99
14, 16487, Control_c, 10, 7, 99
14, 16488, Control_c, 10, 7, 100
14, 16489, Control_c, 10, 7, 100
14, 16490, Control_c, 10, 7, 101
14, 16491, Control_c, 10, 7, 101
14, 16492, Control_c, 10, 7, 102
14, 16493, Control_c, 10, 7, 102
14, 16494, Control_c, 10, 7, 103
14, 16495, Control_c, 10, 7, 103
14, 16496, Control_c, 10, 7, 104
14, 16497, Control_c, 10, 7, 104
14, 16498, Control_c, 10, 7, 105
14, 16499, Control_c, 10, 7, 105
14, 16500, Control_c, 10, 7, 106
14, 16501, Control_c, 10, 7, 106
14, 16502, Control_c, 10, 7, 107
14, 16503, Control_c, 10, 7, 107
14, 16504, Control_c, 10, 7, 108
14, 16505, Control_c, 10, 7, 108
14, 16506, Control_c, 10, 7, 109
14, 16507, Control_c, 10, 7, 109
14, 16508, Control_c, 10, 7, 110
14, 16509, Control_c, 10, 7, 110
14, 16510, Control_c, 10, 7, 111
14, 16511, Control_c, 10, 7, 111
14, 16512, Note_off_c, 10, 39, 64
14, 16512, Note_off_c, 10, 51, 64
14, 16512, Note_off_c, 10, 27, 64
14, 16512, Control_c, 10, 7, 112
14, 16512, Note_on_c, 10, 39, 127
14, 16512, Note_on_c, 10, 51, 127
14, 16512, Note_on_c, 10, 27, 127
14, 16513, Control_c, 10, 7, 64
14, 16514, Control_c, 10, 7, 65
14, 16515, Control_c, 10, 7, 66
14, 16516, Control_c, 10, 7, 67
14, 16517, Control_c, 10, 7, 68
14, 16518, Control_c, 10, 7, 69
14, 16519, Control_c, 10, 7, 69
14, 16520, Control_c, 10, 7, 70
14, 16521, Control_c, 10, 7, 71
14, 16522, Control_c, 10, 7, 72
14, 16523, Control_c, 10, 7, 73
14, 16524, Control_c, 10, 7, 74
14, 16525, Control_c, 10, 7, 75
14, 16526, Control_c, 10, 7, 76
14, 16527, Control_c, 10, 7, 77
14, 16528, Control_c, 10, 7, 78
14, 16529, Control_c, 10, 7, 79
14, 16530, Control_c, 10, 7, 80
14, 16531, Control_c, 10, 7, 81
14, 16532, Control_c, 10, 7, 82
14, 16533, Control_c, 10, 7, 83
14, 16534, Control_c, 10, 7, 85
14, 16535, Control_c, 10, 7, 86
14, 16536, Control_c, 10, 7, 87
14, 16537, Control_c, 10, 7, 88
14, 16538, Control_c, 10, 7, 89
14, 16539, Control_c, 10, 7, 90
14, 16540, Control_c, 10, 7, 91
14, 16541, Control_c, 10, 7, 92
14, 16542, Control_c, 10, 7, 93
14, 16543, Control_c, 10, 7, 94
14, 16544, Control_c, 10, 7, 95
14, 16545, Control_c, 10, 7, 96
14, 16546, Control_c, 10, 7, 97
14, 16547, Control_c, 10, 7, 98
14, 16548, Control_c, 10, 7, 99
14, 16549, Control_c, 10, 7, 100
14, 16550, Control_c, 10, 7, 102
14, 16551, Control_c, 10, 7, 103
14, 16552, Control_c, 10, 7, 104
14, 16553, Control_c, 10, 7, 105
14, 16554, Control_c, 10, 7, 106
14, 16555, Control_c, 10, 7, 107
14, 16556, Control_c, 10, 7, 108
14, 16557, Control_c, 10, 7, 109
14, 16558, Control_c, 10, 7, 110
14, 16559, Control_c, 10, 7, 111
14, 16560, Note_off_c, 10, 51, 64
14, 16560, Note_off_c, 10, 27, 64
14, 16560, Note_off_c, 10, 39, 64
14, 16560, Control_c, 10, 7, 65
14, 16560, Note_on_c, 10, 39, 127
14, 16560, Note_on_c, 10, 51, 127
14, 16560, Note_on_c, 10, 27, 127
14, 16561, Control_c, 10, 7, 66
14, 16562, Control_c, 10, 7, 67
14, 16563, Control_c, 10, 7, 67
14, 16564, Control_c, 10, 7, 68
14, 16565, Control_c, 10, 7, 69
14, 16566, Control_c, 10, 7, 70
14, 16567, Control_c, 10, 7, 71
14, 16568, Control_c, 10, 7, 72
14, 16569, Control_c, 10, 7, 73
14, 16570, Control_c, 10, 7, 74
14, 16571, Control_c, 10, 7, 75
14, 16572, Control_c, 10, 7, 76
14, 16573, Control_c, 10, 7, 77
14, 16574, Control_c, 10, 7, 78
14, 16575, Control_c, 10, 7, 79
14, 16576, Control_c, 10, 7, 80
14, 16577, Control_c, 10, 7, 81
14, 16578, Control_c, 10, 7, 82
14, 16579, Control_c, 10, 7, 83
14, 16580, Control_c, 10, 7, 84
14, 16581, Control_c, 10, 7, 85
14, 16582, Control_c, 10, 7, 86
14, 16583, Control_c, 10, 7, 87
14, 16584, Control_c, 10, 7, 88
14, 16585, Control_c, 10, 7, 89
14, 16586, Control_c, 10, 7, 89
14, 16587, Control_c, 10, 7, 90
14, 16588, Control_c, 10, 7, 91
14, 16589, Control_c, 10, 7, 92
14, 16590, Control_c, 10, 7, 93
14, 16591, Control_c, 10, 7, 94
14, 16592, Control_c, 10, 7, 95
14, 16593, Control_c, 10, 7, 96
14, 16594, Control_c, 10, 7, 97
14, 16595, Control_c, 10, 7, 98
14, 16596, Control_c, 10, 7, 99
14, 16597, Control_c, 10, 7, 100
14, 16598, Control_c, 10, 7, 101
14, 16599, Control_c, 10, 7, 102
14, 16600, Control_c, 10, 7, 103
14, 16601, Control_c, 10, 7, 104
14, 16602, Control_c, 10, 7, 105
14, 16603, Control_c, 10, 7, 106
14, 16604, Control_c, 10, 7, 107
14, 16605, Control_c, 10, 7, 108
14, 16606, Control_c, 10, 7, 109
14, 16607, Control_c, 10, 7, 110
14, 16608, Note_off_c, 10, 39, 64
14, 16608, Note_off_c, 10, 27, 64
14, 16608, Note_off_c, 10, 51, 64
14, 16608, Control_c, 10, 7, 64
14, 16608, Note_on_c, 10, 39, 127
14, 16608, Note_on_c, 10, 51, 127
14, 16608, Note_on_c, 10, 27, 127
14, 16609, Control_c, 10, 7, 65
14, 16610, Control_c, 10, 7, 65
14, 16611, Control_c, 10, 7, 66
14, 16612, Control_c, 10, 7, 67
14, 16613, Control_c, 10, 7, 68
14, 16614, Control_c, 10, 7, 69
14, 16615, Control_c, 10, 7, 70
14, 16616, Control_c, 10, 7, 70
14, 16617, Control_c, 10, 7, 71
14, 16618, Control_c, 10, 7, 72
14, 16619, Control_c, 10, 7, 73
14, 16620, Control_c, 10, 7, 74
14, 16621, Control_c, 10, 7, 75
14, 16622, Control_c, 10, 7, 76
14, 16623, Control_c, 10, 7, 77
14, 16624, Control_c, 10, 7, 78
14, 16625, Control_c, 10, 7, 79
14, 16626, Control_c, 10, 7, 80
14, 16627, Control_c, 10, 7, 81
14, 16628, Control_c, 10, 7, 82
14, 16629, Control_c, 10, 7, 83
14, 16630, Control_c, 10, 7, 84
14, 16631, Control_c, 10, 7, 85
14, 16632, Control_c, 10, 7, 86
14, 16633, Control_c, 10, 7, 88
14, 16634, Control_c, 10, 7, 89
14, 16635, Control_c, 10, 7, 90
14, 16636, Control_c, 10, 7, 91
14, 16637, Control_c, 10, 7, 92
14, 16638, Control_c, 10, 7, 93
14, 16639, Control_c, 10, 7, 94
14, 16640, Control_c, 10, 7, 95
14, 16641, Control_c, 10, 7, 96
14, 16642, Control_c, 10, 7, 97
14, 16643, Control_c, 10, 7, 98
14, 16644, Control_c, 10, 7, 99
14, 16645, Control_c, 10, 7, 100
14, 16646, Control_c, 10, 7, 101
14, 16647, Control_c, 10, 7, 102
14, 16648, Control_c, 10, 7, 103
14, 16649, Control_c, 10, 7, 104
14, 16650, Control_c, 10, 7, 105
14, 16651, Control_c, 10, 7, 106
14, 16652, Control_c, 10, 7, 107
14, 16653, Control_c, 10, 7, 108
14, 16654, Control_c, 10, 7, 109
14, 16655, Control_c, 10, 7, 110
14, 16656, Note_off_c, 10, 39, 64
14, 16656, Note_off_c, 10, 27, 64
14, 16656, Note_off_c, 10, 51, 64
14, 16656, Control_c, 10, 7, 66
14, 16656, Note_on_c, 10, 39, 127
14, 16656, Note_on_c, 10, 51, 127
14, 16656, Note_on_c, 10, 27, 127
14, 16657, Control_c, 10, 7, 67
14, 16658, Control_c, 10, 7, 68
14, 16659, Control_c, 10, 7, 69
14, 16660, Control_c, 10, 7, 69
14, 16661, Control_c, 10, 7, 70
14, 16662, Control_c, 10, 7, 71
14, 16663, Control_c, 10, 7, 72
14, 16664, Control_c, 10, 7, 73
14, 16665, Control_c, 10, 7, 74
14, 16666, Control_c, 10, 7, 75
14, 16667, Control_c, 10, 7, 76
14, 16668, Control_c, 10, 7, 77
14, 16669, Control_c, 10, 7, 77
14, 16670, Control_c, 10, 7, 78
14, 16671, Control_c, 10, 7, 79
14, 16672, Control_c, 10, 7, 80
14, 16673, Control_c, 10, 7, 81
14, 16674, Control_c, 10, 7, 82
14, 16675, Control_c, 10, 7, 83
14, 16676, Control_c, 10, 7, 84
14, 16677, Control_c, 10, 7, 84
14, 16678, Control_c, 10, 7, 85
14, 16679, Control_c, 10, 7, 86
14, 16680, Control_c, 10, 7, 87
14, 16681, Control_c, 10, 7, 88
14, 16682, Control_c, 10, 7, 89
14, 16683, Control_c, 10, 7, 90
14, 16684, Control_c, 10, 7, 91
14, 16685, Control_c, 10, 7, 91
14, 16686, Control_c, 10, 7, 92
14, 16687, Control_c, 10, 7, 93
14, 16688, Control_c, 10, 7, 94
14, 16689, Control_c, 10, 7, 95
14, 16690, Control_c, 10, 7, 96
14, 16691, Control_c, 10, 7, 97
14, 16692, Control_c, 10, 7, 98
14, 16693, Control_c, 10, 7, 98
14, 16694, Control_c, 10, 7, 99
14, 16695, Control_c, 10, 7, 100
14, 16696, Control_c, 10, 7, 101
14, 16697, Control_c, 10, 7, 102
14, 16698, Control_c, 10, 7, 103
14, 16699, Control_c, 10, 7, 104
14, 16700, Control_c, 10, 7, 104
14, 16701, Control_c, 10, 7, 105
14, 16702, Control_c, 10, 7, 106
14, 16703, Control_c, 10, 7, 107
14, 16704, Note_off_c, 10, 51, 64
14, 16704, Note_off_c, 10, 27, 64
14, 16704, Note_off_c, 10, 39, 64
14, 16704, Control_c, 10, 7, 67
14, 16704, Note_on_c, 10, 39, 127
14, 16704, Note_on_c, 10, 51, 127
14, 16704, Note_on_c, 10, 27, 127
14, 16705, Control_c, 10, 7, 68
14, 16706, Control_c, 10, 7, 69
14, 16707, Control_c, 10, 7, 70
14, 16708, Control_c, 10, 7, 71
14, 16709, Control_c, 10, 7, 72
14, 16710, Control_c, 10, 7, 73
14, 16711, Control_c, 10, 7, 74
14, 16712, Control_c, 10, 7, 75
14, 16713, Control_c, 10, 7, 75
14, 16714, Control_c, 10, 7, 76
14, 16715, Control_c, 10, 7, 77
14, 16716, Control_c, 10, 7, 78
14, 16717, Control_c, 10, 7, 79
14, 16718, Control_c, 10, 7, 80
14, 16719, Control_c, 10, 7, 81
14, 16720, Control_c, 10, 7, 82
14, 16721, Control_c, 10, 7, 83
14, 16722, Control_c, 10, 7, 84
14, 16723, Control_c, 10, 7, 85
14, 16724, Control_c, 10, 7, 86
14, 16725, Control_c, 10, 7, 87
14, 16726, Control_c, 10, 7, 88
14, 16727, Control_c, 10, 7, 89
14, 16728, Control_c, 10, 7, 90
14, 16729, Control_c, 10, 7, 90
14, 16730, Control_c, 10, 7, 91
14, 16731, Control_c, 10, 7, 92
14, 16732, Control_c, 10, 7, 93
14, 16733, Control_c, 10, 7, 94
14, 16734, Control_c, 10, 7, 95
14, 16735, Control_c, 10, 7, 96
14, 16736, Control_c, 10, 7, 97
14, 16737, Control_c, 10, 7, 98
14, 16738, Control_c, 10, 7, 99
14, 16739, Control_c, 10, 7, 100
14, 16740, Control_c, 10, 7, 101
14, 16741, Control_c, 10, 7, 102
14, 16742, Control_c, 10, 7, 103
14, 16743, Control_c, 10, 7, 104
14, 16744, Control_c, 10, 7, 105
14, 16745, Control_c, 10, 7, 106
14, 16746, Control_c, 10, 7, 106
14, 16747, Control_c, 10, 7, 107
14, 16748, Control_c, 10, 7, 108
14, 16749, Control_c, 10, 7, 109
14, 16750, Control_c, 10, 7, 110
14, 16751, Control_c, 10, 7, 111
14, 16752, Note_off_c, 10, 39, 64
14, 16752, Note_off_c, 10, 51, 64
14, 16752, Note_off_c, 10, 27, 64
14, 16752, Control_c, 10, 7, 61
14, 16752, Note_on_c, 10, 39, 127
14, 16752, Note_on_c, 10, 51, 127
14, 16752, Note_on_c, 10, 27, 127
14, 16753, Control_c, 10, 7, 62
14, 16754, Control_c, 10, 7, 63
14, 16755, Control_c, 10, 7, 64
14, 16756, Control_c, 10, 7, 65
14, 16757, Control_c, 10, 7, 66
14, 16758, Control_c, 10, 7, 67
14, 16759, Control_c, 10, 7, 68
14, 16760, Control_c, 10, 7, 70
14, 16761, Control_c, 10, 7, 71
14, 16762, Control_c, 10, 7, 72
14, 16763, Control_c, 10, 7, 73
14, 16764, Control_c, 10, 7, 74
14, 16765, Control_c, 10, 7, 75
14, 16766, Control_c, 10, 7, 76
14, 16767, Control_c, 10, 7, 78
14, 16768, Control_c, 10, 7, 79
14, 16769, Control_c, 10, 7, 80
14, 16770, Control_c, 10, 7, 81
14, 16771, Control_c, 10, 7, 82
14, 16772, Control_c, 10, 7, 83
14, 16773, Control_c, 10, 7, 84
14, 16774, Control_c, 10, 7, 85
14, 16775, Control_c, 10, 7, 87
14, 16776, Control_c, 10, 7, 88
14, 16777, Control_c, 10, 7, 89
14, 16778, Control_c, 10, 7, 90
14, 16779, Control_c, 10, 7, 91
14, 16780, Control_c, 10, 7, 92
14, 16781, Control_c, 10, 7, 93
14, 16782, Control_c, 10, 7, 95
14, 16783, Control_c, 10, 7, 96
14, 16784, Control_c, 10, 7, 97
14, 16785, Control_c, 10, 7, 98
14, 16786, Control_c, 10, 7, 99
14, 16787, Control_c, 10, 7, 100
14, 16788, Control_c, 10, 7, 101
14, 16789, Control_c, 10, 7, 102
14, 16790, Control_c, 10, 7, 104
14, 16791, Control_c, 10, 7, 105
14, 16792, Control_c, 10, 7, 106
14, 16793, Control_c, 10, 7, 107
14, 16794, Control_c, 10, 7, 108
14, 16795, Control_c, 10, 7, 110
14, 16796, Control_c, 10, 7, 111
14, 16797, Control_c, 10, 7, 112
14, 16798, Control_c, 10, 7, 113
14, 16799, Control_c, 10, 7, 114
14, 16800, Note_off_c, 10, 39, 64
14, 16800, Note_off_c, 10, 27, 64
14, 16800, Note_off_c, 10, 51, 64
14, 16800, Control_c, 10, 7, 65
14, 16800, Note_on_c, 10, 39, 127
14, 16800, Note_on_c, 10, 51, 127
14, 16800, Note_on_c, 10, 27, 127
14, 16801, Control_c, 10, 7, 66
14, 16802, Control_c, 10, 7, 67
14, 16803, Control_c, 10, 7, 68
14, 16804, Control_c, 10, 7, 70
14, 16805, Control_c, 10, 7, 71
14, 16806, Control_c, 10, 7, 72
14, 16807, Control_c, 10, 7, 73
14, 16808, Control_c, 10, 7, 74
14, 16809, Control_c, 10, 7, 75
14, 16810, Control_c, 10, 7, 76
14, 16811, Control_c, 10, 7, 77
14, 16812, Control_c, 10, 7, 78
14, 16813, Control_c, 10, 7, 79
14, 16814, Control_c, 10, 7, 80
14, 16815, Control_c, 10, 7, 81
14, 16816, Control_c, 10, 7, 82
14, 16817, Control_c, 10, 7, 83
14, 16818, Control_c, 10, 7, 84
14, 16819, Control_c, 10, 7, 85
14, 16820, Control_c, 10, 7, 86
14, 16821, Control_c, 10, 7, 88
14, 16822, Control_c, 10, 7, 89
14, 16823, Control_c, 10, 7, 90
14, 16824, Control_c, 10, 7, 91
14, 16825, Control_c, 10, 7, 92
14, 16826, Control_c, 10, 7, 93
14, 16827, Control_c, 10, 7, 94
14, 16828, Control_c, 10, 7, 95
14, 16829, Control_c, 10, 7, 96
14, 16830, Control_c, 10, 7, 97
14, 16831, Control_c, 10, 7, 98
14, 16832, Control_c, 10, 7, 99
14, 16833, Control_c, 10, 7, 100
14, 16834, Control_c, 10, 7, 101
14, 16835, Control_c, 10, 7, 102
14, 16836, Control_c, 10, 7, 103
14, 16837, Control_c, 10, 7, 105
14, 16838, Control_c, 10, 7, 106
14, 16839, Control_c, 10, 7, 107
14, 16840, Control_c, 10, 7, 108
14, 16841, Control_c, 10, 7, 109
14, 16842, Control_c, 10, 7, 109
14, 16843, Control_c, 10, 7, 110
14, 16844, Control_c, 10, 7, 112
14, 16845, Control_c, 10, 7, 113
14, 16846, Control_c, 10, 7, 114
14, 16847, Control_c, 10, 7, 115
14, 16848, Note_off_c, 10, 51, 64
14, 16848, Note_off_c, 10, 27, 64
14, 16848, Note_off_c, 10, 39, 64
14, 16848, Control_c, 10, 7, 67
14, 16848, Note_on_c, 10, 39, 127
14, 16848, Note_on_c, 10, 51, 127
14, 16848, Note_on_c, 10, 27, 127
14, 16849, Control_c, 10, 7, 68
14, 16850, Control_c, 10, 7, 69
14, 16851, Control_c, 10, 7, 70
14, 16852, Control_c, 10, 7, 71
14, 16853, Control_c, 10, 7, 71
14, 16854, Control_c, 10, 7, 72
14, 16855, Control_c, 10, 7, 73
14, 16856, Control_c, 10, 7, 74
14, 16857, Control_c, 10, 7, 75
14, 16858, Control_c, 10, 7, 76
14, 16859, Control_c, 10, 7, 77
14, 16860, Control_c, 10, 7, 78
14, 16861, Control_c, 10, 7, 79
14, 16862, Control_c, 10, 7, 80
14, 16863, Control_c, 10, 7, 81
14, 16864, Control_c, 10, 7, 82
14, 16865, Control_c, 10, 7, 83
14, 16866, Control_c, 10, 7, 84
14, 16867, Control_c, 10, 7, 85
14, 16868, Control_c, 10, 7, 86
14, 16869, Control_c, 10, 7, 87
14, 16870, Control_c, 10, 7, 88
14, 16871, Control_c, 10, 7, 89
14, 16872, Control_c, 10, 7, 90
14, 16873, Control_c, 10, 7, 91
14, 16874, Control_c, 10, 7, 92
14, 16875, Control_c, 10, 7, 93
14, 16876, Control_c, 10, 7, 94
14, 16877, Control_c, 10, 7, 95
14, 16878, Control_c, 10, 7, 96
14, 16879, Control_c, 10, 7, 97
14, 16880, Control_c, 10, 7, 98
14, 16881, Control_c, 10, 7, 99
14, 16882, Control_c, 10, 7, 100
14, 16883, Control_c, 10, 7, 101
14, 16884, Control_c, 10, 7, 102
14, 16885, Control_c, 10, 7, 103
14, 16886, Control_c, 10, 7, 104
14, 16887, Control_c, 10, 7, 104
14, 16888, Control_c, 10, 7, 105
14, 16889, Control_c, 10, 7, 106
14, 16890, Control_c, 10, 7, 107
14, 16891, Control_c, 10, 7, 108
14, 16892, Control_c, 10, 7, 109
14, 16893, Control_c, 10, 7, 110
14, 16894, Control_c, 10, 7, 111
14, 16895, Control_c, 10, 7, 112
14, 16896, Note_off_c, 10, 39, 64
14, 16896, Note_off_c, 10, 27, 64
14, 16896, Note_off_c, 10, 51, 64
14, 16896, Control_c, 10, 7, 50
14, 16896, Note_on_c, 10, 41, 127
14, 16896, Note_on_c, 10, 29, 127
14, 16896, Note_on_c, 10, 53, 127
14, 16898, Control_c, 10, 7, 50
14, 16899, Control_c, 10, 7, 51
14, 16900, Control_c, 10, 7, 51
14, 16901, Control_c, 10, 7, 52
14, 16902, Control_c, 10, 7, 52
14, 16903, Control_c, 10, 7, 52
14, 16904, Control_c, 10, 7, 53
14, 16905, Control_c, 10, 7, 53
14, 16906, Control_c, 10, 7, 54
14, 16907, Control_c, 10, 7, 54
14, 16908, Control_c, 10, 7, 54
14, 16909, Control_c, 10, 7, 55
14, 16910, Control_c, 10, 7, 55
14, 16911, Control_c, 10, 7, 55
14, 16912, Control_c, 10, 7, 56
14, 16913, Control_c, 10, 7, 56
14, 16914, Control_c, 10, 7, 57
14, 16915, Control_c, 10, 7, 57
14, 16916, Control_c, 10, 7, 57
14, 16917, Control_c, 10, 7, 58
14, 16918, Control_c, 10, 7, 58
14, 16919, Control_c, 10, 7, 59
14, 16920, Control_c, 10, 7, 59
14, 16921, Control_c, 10, 7, 59
14, 16922, Control_c, 10, 7, 60
14, 16923, Control_c, 10, 7, 60
14, 16924, Control_c, 10, 7, 61
14, 16925, Control_c, 10, 7, 61
14, 16926, Control_c, 10, 7, 61
14, 16927, Control_c, 10, 7, 62
14, 16928, Control_c, 10, 7, 62
14, 16929, Control_c, 10, 7, 62
14, 16930, Control_c, 10, 7, 63
14, 16931, Control_c, 10, 7, 63
14, 16932, Control_c, 10, 7, 64
14, 16933, Control_c, 10, 7, 64
14, 16934, Control_c, 10, 7, 64
14, 16935, Control_c, 10, 7, 65
14, 16936, Control_c, 10, 7, 65
14, 16937, Control_c, 10, 7, 66
14, 16938, Control_c, 10, 7, 66
14, 16939, Control_c, 10, 7, 66
14, 16940, Control_c, 10, 7, 67
14, 16941, Control_c, 10, 7, 67
14, 16942, Control_c, 10, 7, 68
14, 16943, Control_c, 10, 7, 68
14, 16944, Control_c, 10, 7, 68
14, 16945, Control_c, 10, 7, 69
14, 16946, Control_c, 10, 7, 69
14, 16947, Control_c, 10, 7, 69
14, 16948, Control_c, 10, 7, 70
14, 16949, Control_c, 10, 7, 70
14, 16950, Control_c, 10, 7, 71
14, 16951, Control_c, 10, 7, 71
14, 16952, Control_c, 10, 7, 71
14, 16953, Control_c, 10, 7, 72
14, 16954, Control_c, 10, 7, 72
14, 16955, Control_c, 10, 7, 73
14, 16956, Control_c, 10, 7, 73
14, 16957, Control_c, 10, 7, 73
14, 16958, Control_c, 10, 7, 74
14, 16959, Control_c, 10, 7, 74
14, 16960, Control_c, 10, 7, 75
14, 16961, Control_c, 10, 7, 75
14, 16962, Control_c, 10, 7, 75
14, 16963, Control_c, 10, 7, 76
14, 16964, Control_c, 10, 7, 76
14, 16965, Control_c, 10, 7, 76
14, 16966, Control_c, 10, 7, 77
14, 16967, Control_c, 10, 7, 77
14, 16968, Control_c, 10, 7, 78
14, 16969, Control_c, 10, 7, 78
14, 16970, Control_c, 10, 7, 78
14, 16971, Control_c, 10, 7, 79
14, 16972, Control_c, 10, 7, 79
14, 16973, Control_c, 10, 7, 80
14, 16974, Control_c, 10, 7, 80
14, 16975, Control_c, 10, 7, 80
14, 16976, Control_c, 10, 7, 81
14, 16977, Control_c, 10, 7, 81
14, 16978, Control_c, 10, 7, 82
14, 16979, Control_c, 10, 7, 82
14, 16980, Control_c, 10, 7, 82
14, 16981, Control_c, 10, 7, 83
14, 16982, Control_c, 10, 7, 83
14, 16983, Control_c, 10, 7, 83
14, 16984, Control_c, 10, 7, 84
14, 16985, Control_c, 10, 7, 84
14, 16986, Control_c, 10, 7, 85
14, 16987, Control_c, 10, 7, 85
14, 16988, Control_c, 10, 7, 85
14, 16989, Control_c, 10, 7, 86
14, 16990, Control_c, 10, 7, 86
14, 16991, Control_c, 10, 7, 87
14, 16992, Control_c, 10, 7, 87
14, 16993, Control_c, 10, 7, 87
14, 16994, Control_c, 10, 7, 88
14, 16995, Control_c, 10, 7, 88
14, 16996, Control_c, 10, 7, 89
14, 16997, Control_c, 10, 7, 89
14, 16998, Control_c, 10, 7, 89
14, 16999, Control_c, 10, 7, 90
14, 17000, Control_c, 10, 7, 90
14, 17001, Control_c, 10, 7, 90
14, 17002, Control_c, 10, 7, 91
14, 17003, Control_c, 10, 7, 91
14, 17004, Control_c, 10, 7, 92
14, 17005, Control_c, 10, 7, 92
14, 17006, Control_c, 10, 7, 92
14, 17007, Control_c, 10, 7, 93
14, 17008, Control_c, 10, 7, 93
14, 17009, Control_c, 10, 7, 94
14, 17010, Control_c, 10, 7, 94
14, 17011, Control_c, 10, 7, 94
14, 17012, Control_c, 10, 7, 95
14, 17013, Control_c, 10, 7, 95
14, 17014, Control_c, 10, 7, 96
14, 17015, Control_c, 10, 7, 96
14, 17016, Control_c, 10, 7, 96
14, 17017, Control_c, 10, 7, 97
14, 17018, Control_c, 10, 7, 97
14, 17019, Control_c, 10, 7, 97
14, 17020, Control_c, 10, 7, 98
14, 17021, Control_c, 10, 7, 98
14, 17022, Control_c, 10, 7, 99
14, 17023, Control_c, 10, 7, 99
14, 17024, Control_c, 10, 7, 99
14, 17025, Control_c, 10, 7, 100
14, 17026, Control_c, 10, 7, 100
14, 17027, Control_c, 10, 7, 101
14, 17028, Control_c, 10, 7, 101
14, 17029, Control_c, 10, 7, 101
14, 17030, Control_c, 10, 7, 102
14, 17031, Control_c, 10, 7, 102
14, 17032, Control_c, 10, 7, 103
14, 17033, Control_c, 10, 7, 103
14, 17034, Control_c, 10, 7, 103
14, 17035, Control_c, 10, 7, 104
14, 17036, Control_c, 10, 7, 104
14, 17037, Control_c, 10, 7, 104
14, 17038, Control_c, 10, 7, 105
14, 17039, Control_c, 10, 7, 105
14, 17040, Note_off_c, 10, 29, 64
14, 17040, Note_off_c, 10, 41, 64
14, 17040, Note_off_c, 10, 53, 64
14, 17040, Control_c, 10, 7, 54
14, 17040, Note_on_c, 10, 43, 127
14, 17040, Note_on_c, 10, 31, 127
14, 17040, Note_on_c, 10, 55, 127
14, 17041, Control_c, 10, 7, 55
14, 17042, Control_c, 10, 7, 55
14, 17043, Control_c, 10, 7, 56
14, 17044, Control_c, 10, 7, 57
14, 17045, Control_c, 10, 7, 57
14, 17046, Control_c, 10, 7, 57
14, 17047, Control_c, 10, 7, 58
14, 17048, Control_c, 10, 7, 58
14, 17049, Control_c, 10, 7, 58
14, 17050, Control_c, 10, 7, 59
14, 17051, Control_c, 10, 7, 59
14, 17052, Control_c, 10, 7, 59
14, 17053, Control_c, 10, 7, 60
14, 17054, Control_c, 10, 7, 60
14, 17055, Control_c, 10, 7, 61
14, 17056, Control_c, 10, 7, 61
14, 17057, Control_c, 10, 7, 61
14, 17058, Control_c, 10, 7, 62
14, 17059, Control_c, 10, 7, 62
14, 17060, Control_c, 10, 7, 62
14, 17061, Control_c, 10, 7, 63
14, 17062, Control_c, 10, 7, 63
14, 17063, Control_c, 10, 7, 63
14, 17064, Control_c, 10, 7, 63
14, 17065, Control_c, 10, 7, 64
14, 17066, Control_c, 10, 7, 64
14, 17067, Control_c, 10, 7, 65
14, 17068, Control_c, 10, 7, 65
14, 17069, Control_c, 10, 7, 65
14, 17070, Control_c, 10, 7, 66
14, 17071, Control_c, 10, 7, 66
14, 17072, Control_c, 10, 7, 66
14, 17073, Control_c, 10, 7, 67
14, 17074, Control_c, 10, 7, 67
14, 17075, Control_c, 10, 7, 68
14, 17076, Control_c, 10, 7, 68
14, 17077, Control_c, 10, 7, 68
14, 17078, Control_c, 10, 7, 69
14, 17079, Control_c, 10, 7, 69
14, 17080, Control_c, 10, 7, 69
14, 17081, Control_c, 10, 7, 70
14, 17082, Control_c, 10, 7, 70
14, 17083, Control_c, 10, 7, 71
14, 17084, Control_c, 10, 7, 71
14, 17085, Control_c, 10, 7, 71
14, 17086, Control_c, 10, 7, 72
14, 17087, Control_c, 10, 7, 72
14, 17088, Control_c, 10, 7, 73
14, 17089, Control_c, 10, 7, 73
14, 17090, Control_c, 10, 7, 73
14, 17091, Control_c, 10, 7, 74
14, 17092, Control_c, 10, 7, 74
14, 17093, Control_c, 10, 7, 74
14, 17094, Control_c, 10, 7, 75
14, 17095, Control_c, 10, 7, 75
14, 17096, Control_c, 10, 7, 76
14, 17097, Control_c, 10, 7, 76
14, 17098, Control_c, 10, 7, 76
14, 17099, Control_c, 10, 7, 77
14, 17100, Control_c, 10, 7, 77
14, 17101, Control_c, 10, 7, 77
14, 17102, Control_c, 10, 7, 78
14, 17103, Control_c, 10, 7, 78
14, 17104, Control_c, 10, 7, 79
14, 17105, Control_c, 10, 7, 79
14, 17106, Control_c, 10, 7, 79
14, 17107, Control_c, 10, 7, 80
14, 17108, Control_c, 10, 7, 80
14, 17109, Control_c, 10, 7, 80
14, 17110, Control_c, 10, 7, 81
14, 17111, Control_c, 10, 7, 81
14, 17112, Control_c, 10, 7, 82
14, 17113, Control_c, 10, 7, 82
14, 17114, Control_c, 10, 7, 82
14, 17115, Control_c, 10, 7, 83
14, 17116, Control_c, 10, 7, 83
14, 17117, Control_c, 10, 7, 84
14, 17118, Control_c, 10, 7, 84
14, 17119, Control_c, 10, 7, 84
14, 17120, Control_c, 10, 7, 85
14, 17121, Control_c, 10, 7, 85
14, 17122, Control_c, 10, 7, 85
14, 17123, Control_c, 10, 7, 86
14, 17124, Control_c, 10, 7, 86
14, 17125, Control_c, 10, 7, 87
14, 17126, Control_c, 10, 7, 87
14, 17127, Control_c, 10, 7, 87
14, 17128, Control_c, 10, 7, 88
14, 17129, Control_c, 10, 7, 88
14, 17130, Control_c, 10, 7, 88
14, 17131, Control_c, 10, 7, 89
14, 17132, Control_c, 10, 7, 89
14, 17133, Control_c, 10, 7, 90
14, 17134, Control_c, 10, 7, 90
14, 17135, Control_c, 10, 7, 90
14, 17136, Control_c, 10, 7, 91
14, 17137, Control_c, 10, 7, 91
14, 17138, Control_c, 10, 7, 92
14, 17139, Control_c, 10, 7, 92
14, 17140, Control_c, 10, 7, 92
14, 17141, Control_c, 10, 7, 93
14, 17142, Control_c, 10, 7, 93
14, 17143, Control_c, 10, 7, 93
14, 17144, Control_c, 10, 7, 94
14, 17145, Control_c, 10, 7, 94
14, 17146, Control_c, 10, 7, 95
14, 17147, Control_c, 10, 7, 95
14, 17148, Control_c, 10, 7, 95
14, 17149, Control_c, 10, 7, 96
14, 17150, Control_c, 10, 7, 96
14, 17151, Control_c, 10, 7, 96
14, 17152, Control_c, 10, 7, 97
14, 17153, Control_c, 10, 7, 97
14, 17154, Control_c, 10, 7, 98
14, 17155, Control_c, 10, 7, 98
14, 17156, Control_c, 10, 7, 98
14, 17157, Control_c, 10, 7, 99
14, 17158, Control_c, 10, 7, 99
14, 17159, Control_c, 10, 7, 99
14, 17160, Control_c, 10, 7, 100
14, 17161, Control_c, 10, 7, 100
14, 17162, Control_c, 10, 7, 101
14, 17163, Control_c, 10, 7, 101
14, 17164, Control_c, 10, 7, 101
14, 17165, Control_c, 10, 7, 102
14, 17166, Control_c, 10, 7, 102
14, 17167, Control_c, 10, 7, 103
14, 17168, Control_c, 10, 7, 103
14, 17169, Control_c, 10, 7, 103
14, 17170, Control_c, 10, 7, 104
14, 17171, Control_c, 10, 7, 104
14, 17172, Control_c, 10, 7, 104
14, 17173, Control_c, 10, 7, 105
14, 17174, Control_c, 10, 7, 105
14, 17175, Control_c, 10, 7, 106
14, 17176, Control_c, 10, 7, 106
14, 17177, Control_c, 10, 7, 106
14, 17178, Control_c, 10, 7, 107
14, 17179, Control_c, 10, 7, 107
14, 17180, Control_c, 10, 7, 107
14, 17181, Control_c, 10, 7, 108
14, 17182, Control_c, 10, 7, 108
14, 17183, Control_c, 10, 7, 109
14, 17184, Note_off_c, 10, 43, 64
14, 17184, Note_off_c, 10, 31, 64
14, 17184, Note_off_c, 10, 55, 64
14, 17184, Control_c, 10, 7, 108
14, 17184, Note_on_c, 10, 39, 127
14, 17184, Note_on_c, 10, 27, 127
14, 17184, Note_on_c, 10, 51, 127
14, 17185, Control_c, 10, 7, 108
14, 17186, Control_c, 10, 7, 107
14, 17187, Control_c, 10, 7, 107
14, 17188, Control_c, 10, 7, 106
14, 17189, Control_c, 10, 7, 106
14, 17190, Control_c, 10, 7, 105
14, 17191, Control_c, 10, 7, 105
14, 17192, Control_c, 10, 7, 105
14, 17193, Control_c, 10, 7, 104
14, 17194, Control_c, 10, 7, 104
14, 17195, Control_c, 10, 7, 103
14, 17196, Control_c, 10, 7, 103
14, 17197, Control_c, 10, 7, 102
14, 17198, Control_c, 10, 7, 102
14, 17199, Control_c, 10, 7, 101
14, 17200, Control_c, 10, 7, 101
14, 17201, Control_c, 10, 7, 100
14, 17202, Control_c, 10, 7, 100
14, 17203, Control_c, 10, 7, 99
14, 17204, Control_c, 10, 7, 99
14, 17205, Control_c, 10, 7, 98
14, 17206, Control_c, 10, 7, 98
14, 17207, Control_c, 10, 7, 97
14, 17208, Control_c, 10, 7, 97
14, 17209, Control_c, 10, 7, 96
14, 17210, Control_c, 10, 7, 96
14, 17211, Control_c, 10, 7, 95
14, 17212, Control_c, 10, 7, 95
14, 17213, Control_c, 10, 7, 94
14, 17214, Control_c, 10, 7, 94
14, 17215, Control_c, 10, 7, 93
14, 17216, Control_c, 10, 7, 93
14, 17217, Control_c, 10, 7, 92
14, 17218, Control_c, 10, 7, 92
14, 17219, Control_c, 10, 7, 91
14, 17220, Control_c, 10, 7, 91
14, 17221, Control_c, 10, 7, 90
14, 17222, Control_c, 10, 7, 90
14, 17223, Control_c, 10, 7, 89
14, 17224, Control_c, 10, 7, 89
14, 17225, Control_c, 10, 7, 88
14, 17226, Control_c, 10, 7, 88
14, 17227, Control_c, 10, 7, 87
14, 17228, Control_c, 10, 7, 87
14, 17229, Control_c, 10, 7, 86
14, 17230, Control_c, 10, 7, 86
14, 17231, Control_c, 10, 7, 85
14, 17232, Control_c, 10, 7, 85
14, 17233, Control_c, 10, 7, 84
14, 17234, Control_c, 10, 7, 84
14, 17235, Control_c, 10, 7, 83
14, 17236, Control_c, 10, 7, 83
14, 17237, Control_c, 10, 7, 82
14, 17238, Control_c, 10, 7, 82
14, 17239, Control_c, 10, 7, 81
14, 17240, Control_c, 10, 7, 81
14, 17241, Control_c, 10, 7, 80
14, 17242, Control_c, 10, 7, 80
14, 17243, Control_c, 10, 7, 79
14, 17244, Control_c, 10, 7, 79
14, 17245, Control_c, 10, 7, 78
14, 17246, Control_c, 10, 7, 78
14, 17247, Control_c, 10, 7, 77
14, 17248, Control_c, 10, 7, 77
14, 17249, Control_c, 10, 7, 76
14, 17250, Control_c, 10, 7, 76
14, 17251, Control_c, 10, 7, 75
14, 17252, Control_c, 10, 7, 75
14, 17253, Control_c, 10, 7, 74
14, 17254, Control_c, 10, 7, 74
14, 17255, Control_c, 10, 7, 73
14, 17256, Control_c, 10, 7, 73
14, 17257, Control_c, 10, 7, 72
14, 17258, Control_c, 10, 7, 72
14, 17259, Control_c, 10, 7, 71
14, 17260, Control_c, 10, 7, 71
14, 17261, Control_c, 10, 7, 70
14, 17262, Control_c, 10, 7, 70
14, 17263, Control_c, 10, 7, 69
14, 17264, Control_c, 10, 7, 69
14, 17265, Control_c, 10, 7, 68
14, 17266, Control_c, 10, 7, 68
14, 17267, Control_c, 10, 7, 67
14, 17268, Control_c, 10, 7, 67
14, 17269, Control_c, 10, 7, 66
14, 17270, Control_c, 10, 7, 66
14, 17271, Control_c, 10, 7, 65
14, 17272, Control_c, 10, 7, 65
14, 17273, Control_c, 10, 7, 64
14, 17274, Control_c, 10, 7, 64
14, 17275, Control_c, 10, 7, 63
14, 17276, Control_c, 10, 7, 63
14, 17277, Control_c, 10, 7, 62
14, 17278, Control_c, 10, 7, 62
14, 17279, Control_c, 10, 7, 61
14, 17280, Control_c, 10, 7, 61
14, 17328, Note_off_c, 10, 27, 64
14, 17328, Note_off_c, 10, 51, 64
14, 17328, Note_off_c, 10, 39, 64
14, 17328, Control_c, 10, 7, 102
14, 17328, Note_on_c, 10, 39, 127
14, 17328, Note_on_c, 10, 27, 127
14, 17328, Note_on_c, 10, 51, 127
14, 17329, Control_c, 10, 7, 102
14, 17330, Control_c, 10, 7, 101
14, 17331, Control_c, 10, 7, 100
14, 17332, Control_c, 10, 7, 99
14, 17333, Control_c, 10, 7, 98
14, 17334, Control_c, 10, 7, 97
14, 17335, Control_c, 10, 7, 96
14, 17336, Control_c, 10, 7, 95
14, 17337, Control_c, 10, 7, 95
14, 17338, Control_c, 10, 7, 94
14, 17339, Control_c, 10, 7, 93
14, 17340, Control_c, 10, 7, 92
14, 17341, Control_c, 10, 7, 91
14, 17342, Control_c, 10, 7, 90
14, 17343, Control_c, 10, 7, 89
14, 17344, Control_c, 10, 7, 88
14, 17345, Control_c, 10, 7, 87
14, 17346, Control_c, 10, 7, 87
14, 17347, Control_c, 10, 7, 86
14, 17348, Control_c, 10, 7, 85
14, 17349, Control_c, 10, 7, 84
14, 17350, Control_c, 10, 7, 83
14, 17351, Control_c, 10, 7, 82
14, 17352, Control_c, 10, 7, 81
14, 17353, Control_c, 10, 7, 80
14, 17354, Control_c, 10, 7, 80
14, 17355, Control_c, 10, 7, 79
14, 17356, Control_c, 10, 7, 78
14, 17357, Control_c, 10, 7, 77
14, 17358, Control_c, 10, 7, 76
14, 17359, Control_c, 10, 7, 75
14, 17360, Control_c, 10, 7, 74
14, 17361, Control_c, 10, 7, 73
14, 17362, Control_c, 10, 7, 73
14, 17363, Control_c, 10, 7, 72
14, 17364, Control_c, 10, 7, 71
14, 17365, Control_c, 10, 7, 70
14, 17366, Control_c, 10, 7, 69
14, 17367, Control_c, 10, 7, 68
14, 17368, Control_c, 10, 7, 67
14, 17369, Control_c, 10, 7, 66
14, 17370, Control_c, 10, 7, 66
14, 17371, Control_c, 10, 7, 65
14, 17372, Control_c, 10, 7, 64
14, 17373, Control_c, 10, 7, 63
14, 17374, Control_c, 10, 7, 62
14, 17375, Control_c, 10, 7, 61
14, 17376, Note_off_c, 10, 51, 64
14, 17376, Note_off_c, 10, 27, 64
14, 17376, Note_off_c, 10, 39, 64
14, 17376, Control_c, 10, 7, 102
14, 17376, Note_on_c, 10, 39, 127
14, 17376, Note_on_c, 10, 27, 127
14, 17376, Note_on_c, 10, 51, 127
14, 17377, Control_c, 10, 7, 102
14, 17378, Control_c, 10, 7, 101
14, 17379, Control_c, 10, 7, 100
14, 17380, Control_c, 10, 7, 99
14, 17381, Control_c, 10, 7, 98
14, 17382, Control_c, 10, 7, 97
14, 17383, Control_c, 10, 7, 96
14, 17384, Control_c, 10, 7, 96
14, 17385, Control_c, 10, 7, 95
14, 17386, Control_c, 10, 7, 94
14, 17387, Control_c, 10, 7, 93
14, 17388, Control_c, 10, 7, 92
14, 17389, Control_c, 10, 7, 91
14, 17390, Control_c, 10, 7, 91
14, 17391, Control_c, 10, 7, 90
14, 17392, Control_c, 10, 7, 89
14, 17393, Control_c, 10, 7, 88
14, 17394, Control_c, 10, 7, 87
14, 17395, Control_c, 10, 7, 86
14, 17396, Control_c, 10, 7, 85
14, 17397, Control_c, 10, 7, 85
14, 17398, Control_c, 10, 7, 84
14, 17399, Control_c, 10, 7, 83
14, 17400, Control_c, 10, 7, 82
14, 17401, Control_c, 10, 7, 81
14, 17402, Control_c, 10, 7, 80
14, 17403, Control_c, 10, 7, 80
14, 17404, Control_c, 10, 7, 79
14, 17405, Control_c, 10, 7, 78
14, 17406, Control_c, 10, 7, 77
14, 17407, Control_c, 10, 7, 76
14, 17408, Control_c, 10, 7, 75
14, 17409, Control_c, 10, 7, 74
14, 17410, Control_c, 10, 7, 74
14, 17411, Control_c, 10, 7, 73
14, 17412, Control_c, 10, 7, 72
14, 17413, Control_c, 10, 7, 71
14, 17414, Control_c, 10, 7, 70
14, 17415, Control_c, 10, 7, 69
14, 17416, Control_c, 10, 7, 68
14, 17417, Control_c, 10, 7, 68
14, 17418, Control_c, 10, 7, 67
14, 17419, Control_c, 10, 7, 66
14, 17420, Control_c, 10, 7, 65
14, 17421, Control_c, 10, 7, 64
14, 17422, Control_c, 10, 7, 102
14, 17423, Control_c, 10, 7, 102
14, 17424, Note_off_c, 10, 39, 64
14, 17424, Note_off_c, 10, 51, 64
14, 17424, Note_off_c, 10, 27, 64
14, 17424, Control_c, 10, 7, 101
14, 17424, Note_on_c, 10, 39, 127
14, 17424, Note_on_c, 10, 27, 127
14, 17424, Note_on_c, 10, 51, 127
14, 17425, Control_c, 10, 7, 100
14, 17426, Control_c, 10, 7, 99
14, 17427, Control_c, 10, 7, 98
14, 17428, Control_c, 10, 7, 97
14, 17429, Control_c, 10, 7, 97
14, 17430, Control_c, 10, 7, 96
14, 17431, Control_c, 10, 7, 95
14, 17432, Control_c, 10, 7, 94
14, 17433, Control_c, 10, 7, 93
14, 17434, Control_c, 10, 7, 93
14, 17435, Control_c, 10, 7, 92
14, 17436, Control_c, 10, 7, 91
14, 17437, Control_c, 10, 7, 90
14, 17438, Control_c, 10, 7, 89
14, 17439, Control_c, 10, 7, 88
14, 17440, Control_c, 10, 7, 88
14, 17441, Control_c, 10, 7, 87
14, 17442, Control_c, 10, 7, 86
14, 17443, Control_c, 10, 7, 85
14, 17444, Control_c, 10, 7, 84
14, 17445, Control_c, 10, 7, 84
14, 17446, Control_c, 10, 7, 83
14, 17447, Control_c, 10, 7, 82
14, 17448, Control_c, 10, 7, 81
14, 17449, Control_c, 10, 7, 80
14, 17450, Control_c, 10, 7, 79
14, 17451, Control_c, 10, 7, 79
14, 17452, Control_c, 10, 7, 78
14, 17453, Control_c, 10, 7, 77
14, 17454, Control_c, 10, 7, 76
14, 17455, Control_c, 10, 7, 75
14, 17456, Control_c, 10, 7, 75
14, 17457, Control_c, 10, 7, 74
14, 17458, Control_c, 10, 7, 73
14, 17459, Control_c, 10, 7, 72
14, 17460, Control_c, 10, 7, 71
14, 17461, Control_c, 10, 7, 70
14, 17462, Control_c, 10, 7, 70
14, 17463, Control_c, 10, 7, 69
14, 17464, Control_c, 10, 7, 68
14, 17465, Control_c, 10, 7, 67
14, 17466, Control_c, 10, 7, 66
14, 17467, Control_c, 10, 7, 66
14, 17468, Control_c, 10, 7, 65
14, 17469, Control_c, 10, 7, 64
14, 17470, Control_c, 10, 7, 63
14, 17471, Control_c, 10, 7, 62
14, 17472, Note_off_c, 10, 27, 64
14, 17472, Note_off_c, 10, 51, 64
14, 17472, Note_off_c, 10, 39, 64
14, 17472, Control_c, 10, 7, 102
14, 17472, Note_on_c, 10, 39, 127
14, 17472, Note_on_c, 10, 27, 127
14, 17472, Note_on_c, 10, 51, 127
14, 17473, Control_c, 10, 7, 102
14, 17474, Control_c, 10, 7, 101
14, 17475, Control_c, 10, 7, 100
14, 17476, Control_c, 10, 7, 99
14, 17477, Control_c, 10, 7, 98
14, 17478, Control_c, 10, 7, 97
14, 17479, Control_c, 10, 7, 96
14, 17480, Control_c, 10, 7, 95
14, 17481, Control_c, 10, 7, 94
14, 17482, Control_c, 10, 7, 94
14, 17483, Control_c, 10, 7, 93
14, 17484, Control_c, 10, 7, 92
14, 17485, Control_c, 10, 7, 91
14, 17486, Control_c, 10, 7, 90
14, 17487, Control_c, 10, 7, 89
14, 17488, Control_c, 10, 7, 88
14, 17489, Control_c, 10, 7, 87
14, 17490, Control_c, 10, 7, 86
14, 17491, Control_c, 10, 7, 86
14, 17492, Control_c, 10, 7, 85
14, 17493, Control_c, 10, 7, 84
14, 17494, Control_c, 10, 7, 83
14, 17495, Control_c, 10, 7, 82
14, 17496, Control_c, 10, 7, 81
14, 17497, Control_c, 10, 7, 80
14, 17498, Control_c, 10, 7, 79
14, 17499, Control_c, 10, 7, 78
14, 17500, Control_c, 10, 7, 78
14, 17501, Control_c, 10, 7, 77
14, 17502, Control_c, 10, 7, 76
14, 17503, Control_c, 10, 7, 75
14, 17504, Control_c, 10, 7, 74
14, 17505, Control_c, 10, 7, 73
14, 17506, Control_c, 10, 7, 72
14, 17507, Control_c, 10, 7, 71
14, 17508, Control_c, 10, 7, 70
14, 17509, Control_c, 10, 7, 69
14, 17510, Control_c, 10, 7, 69
14, 17511, Control_c, 10, 7, 68
14, 17512, Control_c, 10, 7, 67
14, 17513, Control_c, 10, 7, 66
14, 17514, Control_c, 10, 7, 65
14, 17515, Control_c, 10, 7, 64
14, 17516, Control_c, 10, 7, 63
14, 17517, Control_c, 10, 7, 62
14, 17518, Control_c, 10, 7, 61
14, 17519, Control_c, 10, 7, 61
14, 17520, Note_off_c, 10, 51, 64
14, 17520, Note_off_c, 10, 27, 64
14, 17520, Note_off_c, 10, 39, 64
14, 17520, Note_on_c, 10, 39, 127
14, 17520, Note_on_c, 10, 27, 127
14, 17520, Note_on_c, 10, 51, 127
14, 17521, Control_c, 10, 7, 103
14, 17522, Control_c, 10, 7, 102
14, 17523, Control_c, 10, 7, 101
14, 17524, Control_c, 10, 7, 100
14, 17525, Control_c, 10, 7, 99
14, 17526, Control_c, 10, 7, 99
14, 17527, Control_c, 10, 7, 98
14, 17528, Control_c, 10, 7, 97
14, 17529, Control_c, 10, 7, 96
14, 17530, Control_c, 10, 7, 95
14, 17531, Control_c, 10, 7, 94
14, 17532, Control_c, 10, 7, 93
14, 17533, Control_c, 10, 7, 93
14, 17534, Control_c, 10, 7, 92
14, 17535, Control_c, 10, 7, 91
14, 17536, Control_c, 10, 7, 90
14, 17537, Control_c, 10, 7, 89
14, 17538, Control_c, 10, 7, 88
14, 17539, Control_c, 10, 7, 87
14, 17540, Control_c, 10, 7, 87
14, 17541, Control_c, 10, 7, 86
14, 17542, Control_c, 10, 7, 85
14, 17543, Control_c, 10, 7, 84
14, 17544, Control_c, 10, 7, 83
14, 17545, Control_c, 10, 7, 82
14, 17546, Control_c, 10, 7, 81
14, 17547, Control_c, 10, 7, 81
14, 17548, Control_c, 10, 7, 80
14, 17549, Control_c, 10, 7, 79
14, 17550, Control_c, 10, 7, 78
14, 17551, Control_c, 10, 7, 77
14, 17552, Control_c, 10, 7, 76
14, 17553, Control_c, 10, 7, 75
14, 17554, Control_c, 10, 7, 75
14, 17555, Control_c, 10, 7, 74
14, 17556, Control_c, 10, 7, 73
14, 17557, Control_c, 10, 7, 72
14, 17558, Control_c, 10, 7, 71
14, 17559, Control_c, 10, 7, 70
14, 17560, Control_c, 10, 7, 69
14, 17561, Control_c, 10, 7, 69
14, 17562, Control_c, 10, 7, 68
14, 17563, Control_c, 10, 7, 67
14, 17564, Control_c, 10, 7, 66
14, 17565, Control_c, 10, 7, 65
14, 17566, Control_c, 10, 7, 64
14, 17567, Control_c, 10, 7, 64
14, 17568, Note_off_c, 10, 51, 64
14, 17568, Note_off_c, 10, 27, 64
14, 17568, Note_off_c, 10, 39, 64
14, 17568, Note_on_c, 10, 39, 127
14, 17568, Note_on_c, 10, 27, 127
14, 17568, Note_on_c, 10, 51, 127
14, 17569, Control_c, 10, 7, 104
14, 17570, Control_c, 10, 7, 103
14, 17571, Control_c, 10, 7, 102
14, 17572, Control_c, 10, 7, 101
14, 17573, Control_c, 10, 7, 100
14, 17574, Control_c, 10, 7, 99
14, 17575, Control_c, 10, 7, 98
14, 17576, Control_c, 10, 7, 98
14, 17577, Control_c, 10, 7, 97
14, 17578, Control_c, 10, 7, 96
14, 17579, Control_c, 10, 7, 95
14, 17580, Control_c, 10, 7, 94
14, 17581, Control_c, 10, 7, 93
14, 17582, Control_c, 10, 7, 93
14, 17583, Control_c, 10, 7, 92
14, 17584, Control_c, 10, 7, 91
14, 17585, Control_c, 10, 7, 90
14, 17586, Control_c, 10, 7, 89
14, 17587, Control_c, 10, 7, 88
14, 17588, Control_c, 10, 7, 87
14, 17589, Control_c, 10, 7, 87
14, 17590, Control_c, 10, 7, 86
14, 17591, Control_c, 10, 7, 85
14, 17592, Control_c, 10, 7, 84
14, 17593, Control_c, 10, 7, 83
14, 17594, Control_c, 10, 7, 82
14, 17595, Control_c, 10, 7, 82
14, 17596, Control_c, 10, 7, 81
14, 17597, Control_c, 10, 7, 80
14, 17598, Control_c, 10, 7, 79
14, 17599, Control_c, 10, 7, 78
14, 17600, Control_c, 10, 7, 77
14, 17601, Control_c, 10, 7, 76
14, 17602, Control_c, 10, 7, 76
14, 17603, Control_c, 10, 7, 75
14, 17604, Control_c, 10, 7, 74
14, 17605, Control_c, 10, 7, 73
14, 17606, Control_c, 10, 7, 72
14, 17607, Control_c, 10, 7, 71
14, 17608, Control_c, 10, 7, 71
14, 17609, Control_c, 10, 7, 70
14, 17610, Control_c, 10, 7, 69
14, 17611, Control_c, 10, 7, 68
14, 17612, Control_c, 10, 7, 67
14, 17613, Control_c, 10, 7, 66
14, 17614, Control_c, 10, 7, 65
14, 17615, Control_c, 10, 7, 102
14, 17616, Note_off_c, 10, 51, 64
14, 17616, Note_off_c, 10, 27, 64
14, 17616, Note_off_c, 10, 39, 64
14, 17616, Control_c, 10, 7, 102
14, 17616, Note_on_c, 10, 39, 127
14, 17616, Note_on_c, 10, 27, 127
14, 17616, Note_on_c, 10, 51, 127
14, 17617, Control_c, 10, 7, 101
14, 17618, Control_c, 10, 7, 100
14, 17619, Control_c, 10, 7, 99
14, 17620, Control_c, 10, 7, 98
14, 17621, Control_c, 10, 7, 97
14, 17622, Control_c, 10, 7, 96
14, 17623, Control_c, 10, 7, 96
14, 17624, Control_c, 10, 7, 95
14, 17625, Control_c, 10, 7, 94
14, 17626, Control_c, 10, 7, 93
14, 17627, Control_c, 10, 7, 92
14, 17628, Control_c, 10, 7, 91
14, 17629, Control_c, 10, 7, 90
14, 17630, Control_c, 10, 7, 89
14, 17631, Control_c, 10, 7, 89
14, 17632, Control_c, 10, 7, 88
14, 17633, Control_c, 10, 7, 87
14, 17634, Control_c, 10, 7, 86
14, 17635, Control_c, 10, 7, 85
14, 17636, Control_c, 10, 7, 84
14, 17637, Control_c, 10, 7, 83
14, 17638, Control_c, 10, 7, 83
14, 17639, Control_c, 10, 7, 82
14, 17640, Control_c, 10, 7, 81
14, 17641, Control_c, 10, 7, 80
14, 17642, Control_c, 10, 7, 79
14, 17643, Control_c, 10, 7, 78
14, 17644, Control_c, 10, 7, 77
14, 17645, Control_c, 10, 7, 77
14, 17646, Control_c, 10, 7, 76
14, 17647, Control_c, 10, 7, 75
14, 17648, Control_c, 10, 7, 74
14, 17649, Control_c, 10, 7, 73
14, 17650, Control_c, 10, 7, 72
14, 17651, Control_c, 10, 7, 71
14, 17652, Control_c, 10, 7, 71
14, 17653, Control_c, 10, 7, 70
14, 17654, Control_c, 10, 7, 69
14, 17655, Control_c, 10, 7, 68
14, 17656, Control_c, 10, 7, 67
14, 17657, Control_c, 10, 7, 66
14, 17658, Control_c, 10, 7, 65
14, 17659, Control_c, 10, 7, 65
14, 17660, Control_c, 10, 7, 64
14, 17661, Control_c, 10, 7, 63
14, 17664, Note_off_c, 10, 27, 64
14, 17664, Note_off_c, 10, 51, 64
14, 17664, Note_off_c, 10, 39, 64
14, 17664, Control_c, 10, 7, 113
14, 17664, Note_on_c, 10, 39, 127
14, 17664, Note_on_c, 10, 27, 127
14, 17664, Note_on_c, 10, 51, 127
14, 17665, Control_c, 10, 7, 113
14, 17666, Control_c, 10, 7, 112
14, 17667, Control_c, 10, 7, 112
14, 17668, Control_c, 10, 7, 112
14, 17669, Control_c, 10, 7, 111
14, 17670, Control_c, 10, 7, 111
14, 17671, Control_c, 10, 7, 110
14, 17672, Control_c, 10, 7, 110
14, 17673, Control_c, 10, 7, 110
14, 17674, Control_c, 10, 7, 109
14, 17675, Control_c, 10, 7, 109
14, 17676, Control_c, 10, 7, 109
14, 17677, Control_c, 10, 7, 108
14, 17678, Control_c, 10, 7, 108
14, 17679, Control_c, 10, 7, 108
14, 17680, Control_c, 10, 7, 107
14, 17681, Control_c, 10, 7, 107
14, 17682, Control_c, 10, 7, 107
14, 17683, Control_c, 10, 7, 106
14, 17684, Control_c, 10, 7, 106
14, 17685, Control_c, 10, 7, 106
14, 17686, Control_c, 10, 7, 105
14, 17687, Control_c, 10, 7, 105
14, 17688, Control_c, 10, 7, 104
14, 17689, Control_c, 10, 7, 104
14, 17690, Control_c, 10, 7, 104
14, 17691, Control_c, 10, 7, 103
14, 17692, Control_c, 10, 7, 103
14, 17693, Control_c, 10, 7, 103
14, 17694, Control_c, 10, 7, 102
14, 17695, Control_c, 10, 7, 102
14, 17696, Control_c, 10, 7, 102
14, 17697, Control_c, 10, 7, 101
14, 17698, Control_c, 10, 7, 101
14, 17699, Control_c, 10, 7, 101
14, 17700, Control_c, 10, 7, 100
14, 17701, Control_c, 10, 7, 100
14, 17702, Control_c, 10, 7, 100
14, 17703, Control_c, 10, 7, 99
14, 17704, Control_c, 10, 7, 99
14, 17705, Control_c, 10, 7, 98
14, 17706, Control_c, 10, 7, 98
14, 17707, Control_c, 10, 7, 98
14, 17708, Control_c, 10, 7, 97
14, 17709, Control_c, 10, 7, 97
14, 17710, Control_c, 10, 7, 97
14, 17711, Control_c, 10, 7, 96
14, 17712, Control_c, 10, 7, 96
14, 17713, Control_c, 10, 7, 96
14, 17714, Control_c, 10, 7, 95
14, 17715, Control_c, 10, 7, 95
14, 17716, Control_c, 10, 7, 95
14, 17717, Control_c, 10, 7, 94
14, 17718, Control_c, 10, 7, 94
14, 17719, Control_c, 10, 7, 94
14, 17720, Control_c, 10, 7, 93
14, 17721, Control_c, 10, 7, 93
14, 17722, Control_c, 10, 7, 92
14, 17723, Control_c, 10, 7, 92
14, 17724, Control_c, 10, 7, 92
14, 17725, Control_c, 10, 7, 91
14, 17726, Control_c, 10, 7, 91
14, 17727, Control_c, 10, 7, 91
14, 17728, Control_c, 10, 7, 90
14, 17729, Control_c, 10, 7, 90
14, 17730, Control_c, 10, 7, 90
14, 17731, Control_c, 10, 7, 89
14, 17732, Control_c, 10, 7, 89
14, 17733, Control_c, 10, 7, 89
14, 17734, Control_c, 10, 7, 88
14, 17735, Control_c, 10, 7, 88
14, 17736, Control_c, 10, 7, 88
14, 17737, Control_c, 10, 7, 87
14, 17738, Control_c, 10, 7, 87
14, 17739, Control_c, 10, 7, 86
14, 17740, Control_c, 10, 7, 86
14, 17741, Control_c, 10, 7, 86
14, 17742, Control_c, 10, 7, 85
14, 17743, Control_c, 10, 7, 85
14, 17744, Control_c, 10, 7, 85
14, 17745, Control_c, 10, 7, 84
14, 17746, Control_c, 10, 7, 84
14, 17747, Control_c, 10, 7, 84
14, 17748, Control_c, 10, 7, 83
14, 17749, Control_c, 10, 7, 83
14, 17750, Control_c, 10, 7, 83
14, 17751, Control_c, 10, 7, 82
14, 17752, Control_c, 10, 7, 82
14, 17753, Control_c, 10, 7, 82
14, 17754, Control_c, 10, 7, 81
14, 17755, Control_c, 10, 7, 81
14, 17756, Control_c, 10, 7, 80
14, 17757, Control_c, 10, 7, 80
14, 17758, Control_c, 10, 7, 80
14, 17759, Control_c, 10, 7, 79
14, 17760, Control_c, 10, 7, 79
14, 17761, Control_c, 10, 7, 79
14, 17762, Control_c, 10, 7, 78
14, 17763, Control_c, 10, 7, 78
14, 17764, Control_c, 10, 7, 78
14, 17765, Control_c, 10, 7, 77
14, 17766, Control_c, 10, 7, 77
14, 17767, Control_c, 10, 7, 77
14, 17768, Control_c, 10, 7, 76
14, 17769, Control_c, 10, 7, 76
14, 17770, Control_c, 10, 7, 76
14, 17771, Control_c, 10, 7, 75
14, 17772, Control_c, 10, 7, 75
14, 17773, Control_c, 10, 7, 74
14, 17774, Control_c, 10, 7, 74
14, 17775, Control_c, 10, 7, 74
14, 17776, Control_c, 10, 7, 73
14, 17777, Control_c, 10, 7, 73
14, 17778, Control_c, 10, 7, 73
14, 17779, Control_c, 10, 7, 72
14, 17780, Control_c, 10, 7, 72
14, 17781, Control_c, 10, 7, 72
14, 17782, Control_c, 10, 7, 71
14, 17783, Control_c, 10, 7, 71
14, 17784, Control_c, 10, 7, 71
14, 17785, Control_c, 10, 7, 70
14, 17786, Control_c, 10, 7, 70
14, 17787, Control_c, 10, 7, 70
14, 17788, Control_c, 10, 7, 69
14, 17789, Control_c, 10, 7, 69
14, 17790, Control_c, 10, 7, 68
14, 17791, Control_c, 10, 7, 68
14, 17792, Control_c, 10, 7, 68
14, 17793, Control_c, 10, 7, 67
14, 17794, Control_c, 10, 7, 67
14, 17795, Control_c, 10, 7, 67
14, 17796, Control_c, 10, 7, 66
14, 17797, Control_c, 10, 7, 66
14, 17798, Control_c, 10, 7, 66
14, 17799, Control_c, 10, 7, 65
14, 17800, Control_c, 10, 7, 65
14, 17801, Control_c, 10, 7, 65
14, 17802, Control_c, 10, 7, 64
14, 17803, Control_c, 10, 7, 64
14, 17804, Control_c, 10, 7, 64
14, 17805, Control_c, 10, 7, 63
14, 17806, Control_c, 10, 7, 111
14, 17807, Control_c, 10, 7, 111
14, 17808, Note_off_c, 10, 27, 64
14, 17808, Note_off_c, 10, 39, 64
14, 17808, Note_off_c, 10, 51, 64
14, 17808, Control_c, 10, 7, 110
14, 17808, Note_on_c, 10, 39, 127
14, 17808, Note_on_c, 10, 51, 127
14, 17808, Note_on_c, 10, 27, 127
14, 17809, Control_c, 10, 7, 110
14, 17810, Control_c, 10, 7, 110
14, 17811, Control_c, 10, 7, 109
14, 17812, Control_c, 10, 7, 109
14, 17813, Control_c, 10, 7, 109
14, 17814, Control_c, 10, 7, 109
14, 17815, Control_c, 10, 7, 108
14, 17816, Control_c, 10, 7, 108
14, 17817, Control_c, 10, 7, 108
14, 17818, Control_c, 10, 7, 107
14, 17819, Control_c, 10, 7, 107
14, 17820, Control_c, 10, 7, 107
14, 17821, Control_c, 10, 7, 106
14, 17822, Control_c, 10, 7, 106
14, 17823, Control_c, 10, 7, 106
14, 17824, Control_c, 10, 7, 105
14, 17825, Control_c, 10, 7, 105
14, 17826, Control_c, 10, 7, 105
14, 17827, Control_c, 10, 7, 104
14, 17828, Control_c, 10, 7, 104
14, 17829, Control_c, 10, 7, 104
14, 17830, Control_c, 10, 7, 103
14, 17831, Control_c, 10, 7, 103
14, 17832, Control_c, 10, 7, 103
14, 17833, Control_c, 10, 7, 102
14, 17834, Control_c, 10, 7, 102
14, 17835, Control_c, 10, 7, 102
14, 17836, Control_c, 10, 7, 101
14, 17837, Control_c, 10, 7, 101
14, 17838, Control_c, 10, 7, 101
14, 17839, Control_c, 10, 7, 100
14, 17840, Control_c, 10, 7, 100
14, 17841, Control_c, 10, 7, 100
14, 17842, Control_c, 10, 7, 99
14, 17843, Control_c, 10, 7, 99
14, 17844, Control_c, 10, 7, 99
14, 17845, Control_c, 10, 7, 98
14, 17846, Control_c, 10, 7, 98
14, 17847, Control_c, 10, 7, 98
14, 17848, Control_c, 10, 7, 97
14, 17849, Control_c, 10, 7, 97
14, 17850, Control_c, 10, 7, 97
14, 17851, Control_c, 10, 7, 96
14, 17852, Control_c, 10, 7, 96
14, 17853, Control_c, 10, 7, 96
14, 17854, Control_c, 10, 7, 95
14, 17855, Control_c, 10, 7, 95
14, 17856, Control_c, 10, 7, 95
14, 17857, Control_c, 10, 7, 94
14, 17858, Control_c, 10, 7, 94
14, 17859, Control_c, 10, 7, 94
14, 17860, Control_c, 10, 7, 93
14, 17861, Control_c, 10, 7, 93
14, 17862, Control_c, 10, 7, 93
14, 17863, Control_c, 10, 7, 92
14, 17864, Control_c, 10, 7, 92
14, 17865, Control_c, 10, 7, 92
14, 17866, Control_c, 10, 7, 91
14, 17867, Control_c, 10, 7, 91
14, 17868, Control_c, 10, 7, 91
14, 17869, Control_c, 10, 7, 90
14, 17870, Control_c, 10, 7, 90
14, 17871, Control_c, 10, 7, 90
14, 17872, Control_c, 10, 7, 89
14, 17873, Control_c, 10, 7, 89
14, 17874, Control_c, 10, 7, 89
14, 17875, Control_c, 10, 7, 88
14, 17876, Control_c, 10, 7, 88
14, 17877, Control_c, 10, 7, 88
14, 17878, Control_c, 10, 7, 87
14, 17879, Control_c, 10, 7, 87
14, 17880, Control_c, 10, 7, 87
14, 17881, Control_c, 10, 7, 86
14, 17882, Control_c, 10, 7, 86
14, 17883, Control_c, 10, 7, 86
14, 17884, Control_c, 10, 7, 85
14, 17885, Control_c, 10, 7, 85
14, 17886, Control_c, 10, 7, 85
14, 17887, Control_c, 10, 7, 84
14, 17888, Control_c, 10, 7, 84
14, 17889, Control_c, 10, 7, 84
14, 17890, Control_c, 10, 7, 83
14, 17891, Control_c, 10, 7, 83
14, 17892, Control_c, 10, 7, 83
14, 17893, Control_c, 10, 7, 82
14, 17894, Control_c, 10, 7, 82
14, 17895, Control_c, 10, 7, 82
14, 17896, Control_c, 10, 7, 81
14, 17897, Control_c, 10, 7, 81
14, 17898, Control_c, 10, 7, 81
14, 17899, Control_c, 10, 7, 80
14, 17900, Control_c, 10, 7, 80
14, 17901, Control_c, 10, 7, 80
14, 17902, Control_c, 10, 7, 79
14, 17903, Control_c, 10, 7, 79
14, 17904, Control_c, 10, 7, 79
14, 17905, Control_c, 10, 7, 78
14, 17906, Control_c, 10, 7, 78
14, 17907, Control_c, 10, 7, 78
14, 17908, Control_c, 10, 7, 77
14, 17909, Control_c, 10, 7, 77
14, 17910, Control_c, 10, 7, 77
14, 17911, Control_c, 10, 7, 76
14, 17912, Control_c, 10, 7, 76
14, 17913, Control_c, 10, 7, 76
14, 17914, Control_c, 10, 7, 75
14, 17915, Control_c, 10, 7, 75
14, 17916, Control_c, 10, 7, 75
14, 17917, Control_c, 10, 7, 74
14, 17918, Control_c, 10, 7, 74
14, 17919, Control_c, 10, 7, 74
14, 17920, Control_c, 10, 7, 73
14, 17921, Control_c, 10, 7, 73
14, 17922, Control_c, 10, 7, 73
14, 17923, Control_c, 10, 7, 72
14, 17924, Control_c, 10, 7, 72
14, 17925, Control_c, 10, 7, 72
14, 17926, Control_c, 10, 7, 71
14, 17927, Control_c, 10, 7, 71
14, 17928, Control_c, 10, 7, 71
14, 17929, Control_c, 10, 7, 70
14, 17930, Control_c, 10, 7, 70
14, 17931, Control_c, 10, 7, 70
14, 17932, Control_c, 10, 7, 69
14, 17933, Control_c, 10, 7, 69
14, 17934, Control_c, 10, 7, 69
14, 17935, Control_c, 10, 7, 68
14, 17936, Control_c, 10, 7, 68
14, 17937, Control_c, 10, 7, 68
14, 17938, Control_c, 10, 7, 67
14, 17939, Control_c, 10, 7, 67
14, 17940, Control_c, 10, 7, 67
14, 17941, Control_c, 10, 7, 66
14, 17942, Control_c, 10, 7, 66
14, 17943, Control_c, 10, 7, 66
14, 17944, Control_c, 10, 7, 65
14, 17945, Control_c, 10, 7, 65
14, 17946, Control_c, 10, 7, 65
14, 17947, Control_c, 10, 7, 64
14, 17948, Control_c, 10, 7, 64
14, 17949, Control_c, 10, 7, 64
14, 17950, Control_c, 10, 7, 63
14, 17951, Control_c, 10, 7, 63
14, 17952, Note_off_c, 10, 39, 64
14, 17952, Note_off_c, 10, 51, 64
14, 17952, Note_off_c, 10, 27, 64
14, 17952, Control_c, 10, 7, 64
14, 17952, Note_on_c, 10, 39, 127
14, 17952, Note_on_c, 10, 51, 127
14, 17952, Note_on_c, 10, 27, 127
14, 17953, Control_c, 10, 7, 64
14, 17954, Control_c, 10, 7, 65
14, 17955, Control_c, 10, 7, 65
14, 17956, Control_c, 10, 7, 66
14, 17957, Control_c, 10, 7, 66
14, 17958, Control_c, 10, 7, 67
14, 17959, Control_c, 10, 7, 67
14, 17960, Control_c, 10, 7, 68
14, 17961, Control_c, 10, 7, 68
14, 17962, Control_c, 10, 7, 69
14, 17963, Control_c, 10, 7, 69
14, 17964, Control_c, 10, 7, 70
14, 17965, Control_c, 10, 7, 70
14, 17966, Control_c, 10, 7, 71
14, 17967, Control_c, 10, 7, 71
14, 17968, Control_c, 10, 7, 72
14, 17969, Control_c, 10, 7, 72
14, 17970, Control_c, 10, 7, 73
14, 17971, Control_c, 10, 7, 73
14, 17972, Control_c, 10, 7, 74
14, 17973, Control_c, 10, 7, 74
14, 17974, Control_c, 10, 7, 75
14, 17975, Control_c, 10, 7, 75
14, 17976, Control_c, 10, 7, 76
14, 17977, Control_c, 10, 7, 76
14, 17978, Control_c, 10, 7, 77
14, 17979, Control_c, 10, 7, 77
14, 17980, Control_c, 10, 7, 78
14, 17981, Control_c, 10, 7, 78
14, 17982, Control_c, 10, 7, 79
14, 17983, Control_c, 10, 7, 79
14, 17984, Control_c, 10, 7, 80
14, 17985, Control_c, 10, 7, 80
14, 17986, Control_c, 10, 7, 81
14, 17987, Control_c, 10, 7, 81
14, 17988, Control_c, 10, 7, 82
14, 17989, Control_c, 10, 7, 82
14, 17990, Control_c, 10, 7, 83
14, 17991, Control_c, 10, 7, 83
14, 17992, Control_c, 10, 7, 84
14, 17993, Control_c, 10, 7, 84
14, 17994, Control_c, 10, 7, 85
14, 17995, Control_c, 10, 7, 85
14, 17996, Control_c, 10, 7, 86
14, 17997, Control_c, 10, 7, 86
14, 17998, Control_c, 10, 7, 87
14, 17999, Control_c, 10, 7, 87
14, 18000, Control_c, 10, 7, 88
14, 18001, Control_c, 10, 7, 88
14, 18002, Control_c, 10, 7, 89
14, 18003, Control_c, 10, 7, 89
14, 18004, Control_c, 10, 7, 90
14, 18005, Control_c, 10, 7, 90
14, 18006, Control_c, 10, 7, 91
14, 18007, Control_c, 10, 7, 91
14, 18008, Control_c, 10, 7, 92
14, 18009, Control_c, 10, 7, 92
14, 18010, Control_c, 10, 7, 93
14, 18011, Control_c, 10, 7, 93
14, 18012, Control_c, 10, 7, 94
14, 18013, Control_c, 10, 7, 94
14, 18014, Control_c, 10, 7, 95
14, 18015, Control_c, 10, 7, 95
14, 18016, Control_c, 10, 7, 96
14, 18017, Control_c, 10, 7, 96
14, 18018, Control_c, 10, 7, 97
14, 18019, Control_c, 10, 7, 97
14, 18020, Control_c, 10, 7, 98
14, 18021, Control_c, 10, 7, 98
14, 18022, Control_c, 10, 7, 99
14, 18023, Control_c, 10, 7, 99
14, 18024, Control_c, 10, 7, 100
14, 18025, Control_c, 10, 7, 100
14, 18026, Control_c, 10, 7, 101
14, 18027, Control_c, 10, 7, 101
14, 18028, Control_c, 10, 7, 102
14, 18029, Control_c, 10, 7, 102
14, 18030, Control_c, 10, 7, 103
14, 18031, Control_c, 10, 7, 103
14, 18032, Control_c, 10, 7, 104
14, 18033, Control_c, 10, 7, 104
14, 18034, Control_c, 10, 7, 105
14, 18035, Control_c, 10, 7, 105
14, 18036, Control_c, 10, 7, 106
14, 18037, Control_c, 10, 7, 106
14, 18038, Control_c, 10, 7, 107
14, 18039, Control_c, 10, 7, 107
14, 18040, Control_c, 10, 7, 108
14, 18041, Control_c, 10, 7, 108
14, 18042, Control_c, 10, 7, 109
14, 18043, Control_c, 10, 7, 109
14, 18044, Control_c, 10, 7, 110
14, 18045, Control_c, 10, 7, 110
14, 18046, Control_c, 10, 7, 111
14, 18047, Control_c, 10, 7, 111
14, 18048, Note_off_c, 10, 39, 64
14, 18048, Note_off_c, 10, 51, 64
14, 18048, Note_off_c, 10, 27, 64
14, 18048, Control_c, 10, 7, 112
14, 18048, Note_on_c, 10, 39, 127
14, 18048, Note_on_c, 10, 51, 127
14, 18048, Note_on_c, 10, 27, 127
14, 18049, Control_c, 10, 7, 64
14, 18050, Control_c, 10, 7, 65
14, 18051, Control_c, 10, 7, 66
14, 18052, Control_c, 10, 7, 67
14, 18053, Control_c, 10, 7, 68
14, 18054, Control_c, 10, 7, 69
14, 18055, Control_c, 10, 7, 69
14, 18056, Control_c, 10, 7, 70
14, 18057, Control_c, 10, 7, 71
14, 18058, Control_c, 10, 7, 72
14, 18059, Control_c, 10, 7, 73
14, 18060, Control_c, 10, 7, 74
14, 18061, Control_c, 10, 7, 75
14, 18062, Control_c, 10, 7, 76
14, 18063, Control_c, 10, 7, 77
14, 18064, Control_c, 10, 7, 78
14, 18065, Control_c, 10, 7, 79
14, 18066, Control_c, 10, 7, 80
14, 18067, Control_c, 10, 7, 81
14, 18068, Control_c, 10, 7, 82
14, 18069, Control_c, 10, 7, 83
14, 18070, Control_c, 10, 7, 85
14, 18071, Control_c, 10, 7, 86
14, 18072, Control_c, 10, 7, 87
14, 18073, Control_c, 10, 7, 88
14, 18074, Control_c, 10, 7, 89
14, 18075, Control_c, 10, 7, 90
14, 18076, Control_c, 10, 7, 91
14, 18077, Control_c, 10, 7, 92
14, 18078, Control_c, 10, 7, 93
14, 18079, Control_c, 10, 7, 94
14, 18080, Control_c, 10, 7, 95
14, 18081, Control_c, 10, 7, 96
14, 18082, Control_c, 10, 7, 97
14, 18083, Control_c, 10, 7, 98
14, 18084, Control_c, 10, 7, 99
14, 18085, Control_c, 10, 7, 100
14, 18086, Control_c, 10, 7, 102
14, 18087, Control_c, 10, 7, 103
14, 18088, Control_c, 10, 7, 104
14, 18089, Control_c, 10, 7, 105
14, 18090, Control_c, 10, 7, 106
14, 18091, Control_c, 10, 7, 107
14, 18092, Control_c, 10, 7, 108
14, 18093, Control_c, 10, 7, 109
14, 18094, Control_c, 10, 7, 110
14, 18095, Control_c, 10, 7, 111
14, 18096, Note_off_c, 10, 51, 64
14, 18096, Note_off_c, 10, 27, 64
14, 18096, Note_off_c, 10, 39, 64
14, 18096, Control_c, 10, 7, 65
14, 18096, Note_on_c, 10, 39, 127
14, 18096, Note_on_c, 10, 51, 127
14, 18096, Note_on_c, 10, 27, 127
14, 18097, Control_c, 10, 7, 66
14, 18098, Control_c, 10, 7, 67
14, 18099, Control_c, 10, 7, 67
14, 18100, Control_c, 10, 7, 68
14, 18101, Control_c, 10, 7, 69
14, 18102, Control_c, 10, 7, 70
14, 18103, Control_c, 10, 7, 71
14, 18104, Control_c, 10, 7, 72
14, 18105, Control_c, 10, 7, 73
14, 18106, Control_c, 10, 7, 74
14, 18107, Control_c, 10, 7, 75
14, 18108, Control_c, 10, 7, 76
14, 18109, Control_c, 10, 7, 77
14, 18110, Control_c, 10, 7, 78
14, 18111, Control_c, 10, 7, 79
14, 18112, Control_c, 10, 7, 80
14, 18113, Control_c, 10, 7, 81
14, 18114, Control_c, 10, 7, 82
14, 18115, Control_c, 10, 7, 83
14, 18116, Control_c, 10, 7, 84
14, 18117, Control_c, 10, 7, 85
14, 18118, Control_c, 10, 7, 86
14, 18119, Control_c, 10, 7, 87
14, 18120, Control_c, 10, 7, 88
14, 18121, Control_c, 10, 7, 89
14, 18122, Control_c, 10, 7, 89
14, 18123, Control_c, 10, 7, 90
14, 18124, Control_c, 10, 7, 91
14, 18125, Control_c, 10, 7, 92
14, 18126, Control_c, 10, 7, 93
14, 18127, Control_c, 10, 7, 94
14, 18128, Control_c, 10, 7, 95
14, 18129, Control_c, 10, 7, 96
14, 18130, Control_c, 10, 7, 97
14, 18131, Control_c, 10, 7, 98
14, 18132, Control_c, 10, 7, 99
14, 18133, Control_c, 10, 7, 100
14, 18134, Control_c, 10, 7, 101
14, 18135, Control_c, 10, 7, 102
14, 18136, Control_c, 10, 7, 103
14, 18137, Control_c, 10, 7, 104
14, 18138, Control_c, 10, 7, 105
14, 18139, Control_c, 10, 7, 106
14, 18140, Control_c, 10, 7, 107
14, 18141, Control_c, 10, 7, 108
14, 18142, Control_c, 10, 7, 109
14, 18143, Control_c, 10, 7, 110
14, 18144, Note_off_c, 10, 39, 64
14, 18144, Note_off_c, 10, 27, 64
14, 18144, Note_off_c, 10, 51, 64
14, 18144, Control_c, 10, 7, 64
14, 18144, Note_on_c, 10, 39, 127
14, 18144, Note_on_c, 10, 51, 127
14, 18144, Note_on_c, 10, 27, 127
14, 18145, Control_c, 10, 7, 65
14, 18146, Control_c, 10, 7, 65
14, 18147, Control_c, 10, 7, 66
14, 18148, Control_c, 10, 7, 67
14, 18149, Control_c, 10, 7, 68
14, 18150, Control_c, 10, 7, 69
14, 18151, Control_c, 10, 7, 70
14, 18152, Control_c, 10, 7, 70
14, 18153, Control_c, 10, 7, 71
14, 18154, Control_c, 10, 7, 72
14, 18155, Control_c, 10, 7, 73
14, 18156, Control_c, 10, 7, 74
14, 18157, Control_c, 10, 7, 75
14, 18158, Control_c, 10, 7, 76
14, 18159, Control_c, 10, 7, 77
14, 18160, Control_c, 10, 7, 78
14, 18161, Control_c, 10, 7, 79
14, 18162, Control_c, 10, 7, 80
14, 18163, Control_c, 10, 7, 81
14, 18164, Control_c, 10, 7, 82
14, 18165, Control_c, 10, 7, 83
14, 18166, Control_c, 10, 7, 84
14, 18167, Control_c, 10, 7, 85
14, 18168, Control_c, 10, 7, 86
14, 18169, Control_c, 10, 7, 88
14, 18170, Control_c, 10, 7, 89
14, 18171, Control_c, 10, 7, 90
14, 18172, Control_c, 10, 7, 91
14, 18173, Control_c, 10, 7, 92
14, 18174, Control_c, 10, 7, 93
14, 18175, Control_c, 10, 7, 94
14, 18176, Control_c, 10, 7, 95
14, 18177, Control_c, 10, 7, 96
14, 18178, Control_c, 10, 7, 97
14, 18179, Control_c, 10, 7, 98
14, 18180, Control_c, 10, 7, 99
14, 18181, Control_c, 10, 7, 100
14, 18182, Control_c, 10, 7, 101
14, 18183, Control_c, 10, 7, 102
14, 18184, Control_c, 10, 7, 103
14, 18185, Control_c, 10, 7, 104
14, 18186, Control_c, 10, 7, 105
14, 18187, Control_c, 10, 7, 106
14, 18188, Control_c, 10, 7, 107
14, 18189, Control_c, 10, 7, 108
14, 18190, Control_c, 10, 7, 109
14, 18191, Control_c, 10, 7, 110
14, 18192, Note_off_c, 10, 39, 64
14, 18192, Note_off_c, 10, 27, 64
14, 18192, Note_off_c, 10, 51, 64
14, 18192, Control_c, 10, 7, 66
14, 18192, Note_on_c, 10, 39, 127
14, 18192, Note_on_c, 10, 51, 127
14, 18192, Note_on_c, 10, 27, 127
14, 18193, Control_c, 10, 7, 67
14, 18194, Control_c, 10, 7, 68
14, 18195, Control_c, 10, 7, 69
14, 18196, Control_c, 10, 7, 69
14, 18197, Control_c, 10, 7, 70
14, 18198, Control_c, 10, 7, 71
14, 18199, Control_c, 10, 7, 72
14, 18200, Control_c, 10, 7, 73
14, 18201, Control_c, 10, 7, 74
14, 18202, Control_c, 10, 7, 75
14, 18203, Control_c, 10, 7, 76
14, 18204, Control_c, 10, 7, 77
14, 18205, Control_c, 10, 7, 77
14, 18206, Control_c, 10, 7, 78
14, 18207, Control_c, 10, 7, 79
14, 18208, Control_c, 10, 7, 80
14, 18209, Control_c, 10, 7, 81
14, 18210, Control_c, 10, 7, 82
14, 18211, Control_c, 10, 7, 83
14, 18212, Control_c, 10, 7, 84
14, 18213, Control_c, 10, 7, 84
14, 18214, Control_c, 10, 7, 85
14, 18215, Control_c, 10, 7, 86
14, 18216, Control_c, 10, 7, 87
14, 18217, Control_c, 10, 7, 88
14, 18218, Control_c, 10, 7, 89
14, 18219, Control_c, 10, 7, 90
14, 18220, Control_c, 10, 7, 91
14, 18221, Control_c, 10, 7, 91
14, 18222, Control_c, 10, 7, 92
14, 18223, Control_c, 10, 7, 93
14, 18224, Control_c, 10, 7, 94
14, 18225, Control_c, 10, 7, 95
14, 18226, Control_c, 10, 7, 96
14, 18227, Control_c, 10, 7, 97
14, 18228, Control_c, 10, 7, 98
14, 18229, Control_c, 10, 7, 98
14, 18230, Control_c, 10, 7, 99
14, 18231, Control_c, 10, 7, 100
14, 18232, Control_c, 10, 7, 101
14, 18233, Control_c, 10, 7, 102
14, 18234, Control_c, 10, 7, 103
14, 18235, Control_c, 10, 7, 104
14, 18236, Control_c, 10, 7, 104
14, 18237, Control_c, 10, 7, 105
14, 18238, Control_c, 10, 7, 106
14, 18239, Control_c, 10, 7, 107
14, 18240, Note_off_c, 10, 51, 64
14, 18240, Note_off_c, 10, 39, 64
14, 18240, Note_off_c, 10, 27, 64
14, 18240, Control_c, 10, 7, 67
14, 18240, Note_on_c, 10, 39, 127
14, 18240, Note_on_c, 10, 51, 127
14, 18240, Note_on_c, 10, 27, 127
14, 18241, Control_c, 10, 7, 68
14, 18242, Control_c, 10, 7, 69
14, 18243, Control_c, 10, 7, 70
14, 18244, Control_c, 10, 7, 71
14, 18245, Control_c, 10, 7, 72
14, 18246, Control_c, 10, 7, 73
14, 18247, Control_c, 10, 7, 74
14, 18248, Control_c, 10, 7, 75
14, 18249, Control_c, 10, 7, 75
14, 18250, Control_c, 10, 7, 76
14, 18251, Control_c, 10, 7, 77
14, 18252, Control_c, 10, 7, 78
14, 18253, Control_c, 10, 7, 79
14, 18254, Control_c, 10, 7, 80
14, 18255, Control_c, 10, 7, 81
14, 18256, Control_c, 10, 7, 82
14, 18257, Control_c, 10, 7, 83
14, 18258, Control_c, 10, 7, 84
14, 18259, Control_c, 10, 7, 85
14, 18260, Control_c, 10, 7, 86
14, 18261, Control_c, 10, 7, 87
14, 18262, Control_c, 10, 7, 88
14, 18263, Control_c, 10, 7, 89
14, 18264, Control_c, 10, 7, 90
14, 18265, Control_c, 10, 7, 90
14, 18266, Control_c, 10, 7, 91
14, 18267, Control_c, 10, 7, 92
14, 18268, Control_c, 10, 7, 93
14, 18269, Control_c, 10, 7, 94
14, 18270, Control_c, 10, 7, 95
14, 18271, Control_c, 10, 7, 96
14, 18272, Control_c, 10, 7, 97
14, 18273, Control_c, 10, 7, 98
14, 18274, Control_c, 10, 7, 99
14, 18275, Control_c, 10, 7, 100
14, 18276, Control_c, 10, 7, 101
14, 18277, Control_c, 10, 7, 102
14, 18278, Control_c, 10, 7, 103
14, 18279, Control_c, 10, 7, 104
14, 18280, Control_c, 10, 7, 105
14, 18281, Control_c, 10, 7, 106
14, 18282, Control_c, 10, 7, 106
14, 18283, Control_c, 10, 7, 107
14, 18284, Control_c, 10, 7, 108
14, 18285, Control_c, 10, 7, 109
14, 18286, Control_c, 10, 7, 110
14, 18287, Control_c, 10, 7, 111
14, 18288, Note_off_c, 10, 51, 64
14, 18288, Note_off_c, 10, 39, 64
14, 18288, Note_off_c, 10, 27, 64
14, 18288, Control_c, 10, 7, 61
14, 18288, Note_on_c, 10, 39, 127
14, 18288, Note_on_c, 10, 51, 127
14, 18288, Note_on_c, 10, 27, 127
14, 18289, Control_c, 10, 7, 62
14, 18290, Control_c, 10, 7, 63
14, 18291, Control_c, 10, 7, 64
14, 18292, Control_c, 10, 7, 65
14, 18293, Control_c, 10, 7, 66
14, 18294, Control_c, 10, 7, 67
14, 18295, Control_c, 10, 7, 68
14, 18296, Control_c, 10, 7, 70
14, 18297, Control_c, 10, 7, 71
14, 18298, Control_c, 10, 7, 72
14, 18299, Control_c, 10, 7, 73
14, 18300, Control_c, 10, 7, 74
14, 18301, Control_c, 10, 7, 75
14, 18302, Control_c, 10, 7, 76
14, 18303, Control_c, 10, 7, 78
14, 18304, Control_c, 10, 7, 79
14, 18305, Control_c, 10, 7, 80
14, 18306, Control_c, 10, 7, 81
14, 18307, Control_c, 10, 7, 82
14, 18308, Control_c, 10, 7, 83
14, 18309, Control_c, 10, 7, 84
14, 18310, Control_c, 10, 7, 85
14, 18311, Control_c, 10, 7, 87
14, 18312, Control_c, 10, 7, 88
14, 18313, Control_c, 10, 7, 89
14, 18314, Control_c, 10, 7, 90
14, 18315, Control_c, 10, 7, 91
14, 18316, Control_c, 10, 7, 92
14, 18317, Control_c, 10, 7, 93
14, 18318, Control_c, 10, 7, 95
14, 18319, Control_c, 10, 7, 96
14, 18320, Control_c, 10, 7, 97
14, 18321, Control_c, 10, 7, 98
14, 18322, Control_c, 10, 7, 99
14, 18323, Control_c, 10, 7, 100
14, 18324, Control_c, 10, 7, 101
14, 18325, Control_c, 10, 7, 102
14, 18326, Control_c, 10, 7, 104
14, 18327, Control_c, 10, 7, 105
14, 18328, Control_c, 10, 7, 106
14, 18329, Control_c, 10, 7, 107
14, 18330, Control_c, 10, 7, 108
14, 18331, Control_c, 10, 7, 110
14, 18332, Control_c, 10, 7, 111
14, 18333, Control_c, 10, 7, 112
14, 18334, Control_c, 10, 7, 113
14, 18335, Control_c, 10, 7, 114
14, 18336, Note_off_c, 10, 51, 64
14, 18336, Note_off_c, 10, 39, 64
14, 18336, Note_off_c, 10, 27, 64
14, 18336, Control_c, 10, 7, 65
14, 18336, Note_on_c, 10, 39, 127
14, 18336, Note_on_c, 10, 51, 127
14, 18336, Note_on_c, 10, 27, 127
14, 18337, Control_c, 10, 7, 66
14, 18338, Control_c, 10, 7, 67
14, 18339, Control_c, 10, 7, 68
14, 18340, Control_c, 10, 7, 70
14, 18341, Control_c, 10, 7, 71
14, 18342, Control_c, 10, 7, 72
14, 18343, Control_c, 10, 7, 73
14, 18344, Control_c, 10, 7, 74
14, 18345, Control_c, 10, 7, 75
14, 18346, Control_c, 10, 7, 76
14, 18347, Control_c, 10, 7, 77
14, 18348, Control_c, 10, 7, 78
14, 18349, Control_c, 10, 7, 79
14, 18350, Control_c, 10, 7, 80
14, 18351, Control_c, 10, 7, 81
14, 18352, Control_c, 10, 7, 82
14, 18353, Control_c, 10, 7, 83
14, 18354, Control_c, 10, 7, 84
14, 18355, Control_c, 10, 7, 85
14, 18356, Control_c, 10, 7, 86
14, 18357, Control_c, 10, 7, 88
14, 18358, Control_c, 10, 7, 89
14, 18359, Control_c, 10, 7, 90
14, 18360, Control_c, 10, 7, 91
14, 18361, Control_c, 10, 7, 92
14, 18362, Control_c, 10, 7, 93
14, 18363, Control_c, 10, 7, 94
14, 18364, Control_c, 10, 7, 95
14, 18365, Control_c, 10, 7, 96
14, 18366, Control_c, 10, 7, 97
14, 18367, Control_c, 10, 7, 98
14, 18368, Control_c, 10, 7, 99
14, 18369, Control_c, 10, 7, 100
14, 18370, Control_c, 10, 7, 101
14, 18371, Control_c, 10, 7, 102
14, 18372, Control_c, 10, 7, 103
14, 18373, Control_c, 10, 7, 105
14, 18374, Control_c, 10, 7, 106
14, 18375, Control_c, 10, 7, 107
14, 18376, Control_c, 10, 7, 108
14, 18377, Control_c, 10, 7, 109
14, 18378, Control_c, 10, 7, 109
14, 18379, Control_c, 10, 7, 110
14, 18380, Control_c, 10, 7, 112
14, 18381, Control_c, 10, 7, 113
14, 18382, Control_c, 10, 7, 114
14, 18383, Control_c, 10, 7, 115
14, 18384, Note_off_c, 10, 51, 64
14, 18384, Note_off_c, 10, 39, 64
14, 18384, Note_off_c, 10, 27, 64
14, 18384, Control_c, 10, 7, 67
14, 18384, Note_on_c, 10, 39, 127
14, 18384, Note_on_c, 10, 51, 127
14, 18384, Note_on_c, 10, 27, 127
14, 18385, Control_c, 10, 7, 68
14, 18386, Control_c, 10, 7, 69
14, 18387, Control_c, 10, 7, 70
14, 18388, Control_c, 10, 7, 71
14, 18389, Control_c, 10, 7, 71
14, 18390, Control_c, 10, 7, 72
14, 18391, Control_c, 10, 7, 73
14, 18392, Control_c, 10, 7, 74
14, 18393, Control_c, 10, 7, 75
14, 18394, Control_c, 10, 7, 76
14, 18395, Control_c, 10, 7, 77
14, 18396, Control_c, 10, 7, 78
14, 18397, Control_c, 10, 7, 79
14, 18398, Control_c, 10, 7, 80
14, 18399, Control_c, 10, 7, 81
14, 18400, Control_c, 10, 7, 82
14, 18401, Control_c, 10, 7, 83
14, 18402, Control_c, 10, 7, 84
14, 18403, Control_c, 10, 7, 85
14, 18404, Control_c, 10, 7, 86
14, 18405, Control_c, 10, 7, 87
14, 18406, Control_c, 10, 7, 88
14, 18407, Control_c, 10, 7, 89
14, 18408, Control_c, 10, 7, 90
14, 18409, Control_c, 10, 7, 91
14, 18410, Control_c, 10, 7, 92
14, 18411, Control_c, 10, 7, 93
14, 18412, Control_c, 10, 7, 94
14, 18413, Control_c, 10, 7, 95
14, 18414, Control_c, 10, 7, 96
14, 18415, Control_c, 10, 7, 97
14, 18416, Control_c, 10, 7, 98
14, 18417, Control_c, 10, 7, 99
14, 18418, Control_c, 10, 7, 100
14, 18419, Control_c, 10, 7, 101
14, 18420, Control_c, 10, 7, 102
14, 18421, Control_c, 10, 7, 103
14, 18422, Control_c, 10, 7, 104
14, 18423, Control_c, 10, 7, 104
14, 18424, Control_c, 10, 7, 105
14, 18425, Control_c, 10, 7, 106
14, 18426, Control_c, 10, 7, 107
14, 18427, Control_c, 10, 7, 108
14, 18428, Control_c, 10, 7, 109
14, 18429, Control_c, 10, 7, 110
14, 18430, Control_c, 10, 7, 111
14, 18431, Control_c, 10, 7, 112
14, 18432, Note_off_c, 10, 27, 64
14, 18432, Note_off_c, 10, 51, 64
14, 18432, Note_off_c, 10, 39, 64
14, 24576, Control_c, 10, 7, 50
14, 24576, Note_on_c, 10, 41, 127
14, 24576, Note_on_c, 10, 29, 127
14, 24576, Note_on_c, 10, 53, 127
14, 24578, Control_c, 10, 7, 50
14, 24579, Control_c, 10, 7, 51
14, 24580, Control_c, 10, 7, 51
14, 24581, Control_c, 10, 7, 52
14, 24582, Control_c, 10, 7, 52
14, 24583, Control_c, 10, 7, 52
14, 24584, Control_c, 10, 7, 53
14, 24585, Control_c, 10, 7, 53
14, 24586, Control_c, 10, 7, 54
14, 24587, Control_c, 10, 7, 54
14, 24588, Control_c, 10, 7, 54
14, 24589, Control_c, 10, 7, 55
14, 24590, Control_c, 10, 7, 55
14, 24591, Control_c, 10, 7, 55
14, 24592, Control_c, 10, 7, 56
14, 24593, Control_c, 10, 7, 56
14, 24594, Control_c, 10, 7, 57
14, 24595, Control_c, 10, 7, 57
14, 24596, Control_c, 10, 7, 57
14, 24597, Control_c, 10, 7, 58
14, 24598, Control_c, 10, 7, 58
14, 24599, Control_c, 10, 7, 59
14, 24600, Control_c, 10, 7, 59
14, 24601, Control_c, 10, 7, 59
14, 24602, Control_c, 10, 7, 60
14, 24603, Control_c, 10, 7, 60
14, 24604, Control_c, 10, 7, 61
14, 24605, Control_c, 10, 7, 61
14, 24606, Control_c, 10, 7, 61
14, 24607, Control_c, 10, 7, 62
14, 24608, Control_c, 10, 7, 62
14, 24609, Control_c, 10, 7, 62
14, 24610, Control_c, 10, 7, 63
14, 24611, Control_c, 10, 7, 63
14, 24612, Control_c, 10, 7, 64
14, 24613, Control_c, 10, 7, 64
14, 24614, Control_c, 10, 7, 64
14, 24615, Control_c, 10, 7, 65
14, 24616, Control_c, 10, 7, 65
14, 24617, Control_c, 10, 7, 66
14, 24618, Control_c, 10, 7, 66
14, 24619, Control_c, 10, 7, 66
14, 24620, Control_c, 10, 7, 67
14, 24621, Control_c, 10, 7, 67
14, 24622, Control_c, 10, 7, 68
14, 24623, Control_c, 10, 7, 68
14, 24624, Control_c, 10, 7, 68
14, 24625, Control_c, 10, 7, 69
14, 24626, Control_c, 10, 7, 69
14, 24627, Control_c, 10, 7, 69
14, 24628, Control_c, 10, 7, 70
14, 24629, Control_c, 10, 7, 70
14, 24630, Control_c, 10, 7, 71
14, 24631, Control_c, 10, 7, 71
14, 24632, Control_c, 10, 7, 71
14, 24633, Control_c, 10, 7, 72
14, 24634, Control_c, 10, 7, 72
14, 24635, Control_c, 10, 7, 73
14, 24636, Control_c, 10, 7, 73
14, 24637, Control_c, 10, 7, 73
14, 24638, Control_c, 10, 7, 74
14, 24639, Control_c, 10, 7, 74
14, 24640, Control_c, 10, 7, 75
14, 24641, Control_c, 10, 7, 75
14, 24642, Control_c, 10, 7, 75
14, 24643, Control_c, 10, 7, 76
14, 24644, Control_c, 10, 7, 76
14, 24645, Control_c, 10, 7, 76
14, 24646, Control_c, 10, 7, 77
14, 24647, Control_c, 10, 7, 77
14, 24648, Control_c, 10, 7, 78
14, 24649, Control_c, 10, 7, 78
14, 24650, Control_c, 10, 7, 78
14, 24651, Control_c, 10, 7, 79
14, 24652, Control_c, 10, 7, 79
14, 24653, Control_c, 10, 7, 80
14, 24654, Control_c, 10, 7, 80
14, 24655, Control_c, 10, 7, 80
14, 24656, Control_c, 10, 7, 81
14, 24657, Control_c, 10, 7, 81
14, 24658, Control_c, 10, 7, 82
14, 24659, Control_c, 10, 7, 82
14, 24660, Control_c, 10, 7, 82
14, 24661, Control_c, 10, 7, 83
14, 24662, Control_c, 10, 7, 83
14, 24663, Control_c, 10, 7, 83
14, 24664, Control_c, 10, 7, 84
14, 24665, Control_c, 10, 7, 84
14, 24666, Control_c, 10, 7, 85
14, 24667, Control_c, 10, 7, 85
14, 24668, Control_c, 10, 7, 85
14, 24669, Control_c, 10, 7, 86
14, 24670, Control_c, 10, 7, 86
14, 24671, Control_c, 10, 7, 87
14, 24672, Control_c, 10, 7, 87
14, 24673, Control_c, 10, 7, 87
14, 24674, Control_c, 10, 7, 88
14, 24675, Control_c, 10, 7, 88
14, 24676, Control_c, 10, 7, 89
14, 24677, Control_c, 10, 7, 89
14, 24678, Control_c, 10, 7, 89
14, 24679, Control_c, 10, 7, 90
14, 24680, Control_c, 10, 7, 90
14, 24681, Control_c, 10, 7, 90
14, 24682, Control_c, 10, 7, 91
14, 24683, Control_c, 10, 7, 91
14, 24684, Control_c, 10, 7, 92
14, 24685, Control_c, 10, 7, 92
14, 24686, Control_c, 10, 7, 92
14, 24687, Control_c, 10, 7, 93
14, 24688, Control_c, 10, 7, 93
14, 24689, Control_c, 10, 7, 94
14, 24690, Control_c, 10, 7, 94
14, 24691, Control_c, 10, 7, 94
14, 24692, Control_c, 10, 7, 95
14, 24693, Control_c, 10, 7, 95
14, 24694, Control_c, 10, 7, 96
14, 24695, Control_c, 10, 7, 96
14, 24696, Control_c, 10, 7, 96
14, 24697, Control_c, 10, 7, 97
14, 24698, Control_c, 10, 7, 97
14, 24699, Control_c, 10, 7, 97
14, 24700, Control_c, 10, 7, 98
14, 24701, Control_c, 10, 7, 98
14, 24702, Control_c, 10, 7, 99
14, 24703, Control_c, 10, 7, 99
14, 24704, Control_c, 10, 7, 99
14, 24705, Control_c, 10, 7, 100
14, 24706, Control_c, 10, 7, 100
14, 24707, Control_c, 10, 7, 101
14, 24708, Control_c, 10, 7, 101
14, 24709, Control_c, 10, 7, 101
14, 24710, Control_c, 10, 7, 102
14, 24711, Control_c, 10, 7, 102
14, 24712, Control_c, 10, 7, 103
14, 24713, Control_c, 10, 7, 103
14, 24714, Control_c, 10, 7, 103
14, 24715, Control_c, 10, 7, 104
14, 24716, Control_c, 10, 7, 104
14, 24717, Control_c, 10, 7, 104
14, 24718, Control_c, 10, 7, 105
14, 24719, Control_c, 10, 7, 105
14, 24720, Note_off_c, 10, 53, 64
14, 24720, Note_off_c, 10, 29, 64
14, 24720, Note_off_c, 10, 41, 64
14, 24720, Control_c, 10, 7, 54
14, 24720, Note_on_c, 10, 43, 127
14, 24720, Note_on_c, 10, 31, 127
14, 24720, Note_on_c, 10, 55, 127
14, 24721, Control_c, 10, 7, 55
14, 24722, Control_c, 10, 7, 55
14, 24723, Control_c, 10, 7, 56
14, 24724, Control_c, 10, 7, 57
14, 24725, Control_c, 10, 7, 57
14, 24726, Control_c, 10, 7, 57
14, 24727, Control_c, 10, 7, 58
14, 24728, Control_c, 10, 7, 58
14, 24729, Control_c, 10, 7, 58
14, 24730, Control_c, 10, 7, 59
14, 24731, Control_c, 10, 7, 59
14, 24732, Control_c, 10, 7, 59
14, 24733, Control_c, 10, 7, 60
14, 24734, Control_c, 10, 7, 60
14, 24735, Control_c, 10, 7, 61
14, 24736, Control_c, 10, 7, 61
14, 24737, Control_c, 10, 7, 61
14, 24738, Control_c, 10, 7, 62
14, 24739, Control_c, 10, 7, 62
14, 24740, Control_c, 10, 7, 62
14, 24741, Control_c, 10, 7, 63
14, 24742, Control_c, 10, 7, 63
14, 24743, Control_c, 10, 7, 63
14, 24744, Control_c, 10, 7, 63
14, 24745, Control_c, 10, 7, 64
14, 24746, Control_c, 10, 7, 64
14, 24747, Control_c, 10, 7, 65
14, 24748, Control_c, 10, 7, 65
14, 24749, Control_c, 10, 7, 65
14, 24750, Control_c, 10, 7, 66
14, 24751, Control_c, 10, 7, 66
14, 24752, Control_c, 10, 7, 66
14, 24753, Control_c, 10, 7, 67
14, 24754, Control_c, 10, 7, 67
14, 24755, Control_c, 10, 7, 68
14, 24756, Control_c, 10, 7, 68
14, 24757, Control_c, 10, 7, 68
14, 24758, Control_c, 10, 7, 69
14, 24759, Control_c, 10, 7, 69
14, 24760, Control_c, 10, 7, 69
14, 24761, Control_c, 10, 7, 70
14, 24762, Control_c, 10, 7, 70
14, 24763, Control_c, 10, 7, 71
14, 24764, Control_c, 10, 7, 71
14, 24765, Control_c, 10, 7, 71
14, 24766, Control_c, 10, 7, 72
14, 24767, Control_c, 10, 7, 72
14, 24768, Control_c, 10, 7, 73
14, 24769, Control_c, 10, 7, 73
14, 24770, Control_c, 10, 7, 73
14, 24771, Control_c, 10, 7, 74
14, 24772, Control_c, 10, 7, 74
14, 24773, Control_c, 10, 7, 74
14, 24774, Control_c, 10, 7, 75
14, 24775, Control_c, 10, 7, 75
14, 24776, Control_c, 10, 7, 76
14, 24777, Control_c, 10, 7, 76
14, 24778, Control_c, 10, 7, 76
14, 24779, Control_c, 10, 7, 77
14, 24780, Control_c, 10, 7, 77
14, 24781, Control_c, 10, 7, 77
14, 24782, Control_c, 10, 7, 78
14, 24783, Control_c, 10, 7, 78
14, 24784, Control_c, 10, 7, 79
14, 24785, Control_c, 10, 7, 79
14, 24786, Control_c, 10, 7, 79
14, 24787, Control_c, 10, 7, 80
14, 24788, Control_c, 10, 7, 80
14, 24789, Control_c, 10, 7, 80
14, 24790, Control_c, 10, 7, 81
14, 24791, Control_c, 10, 7, 81
14, 24792, Control_c, 10, 7, 82
14, 24793, Control_c, 10, 7, 82
14, 24794, Control_c, 10, 7, 82
14, 24795, Control_c, 10, 7, 83
14, 24796, Control_c, 10, 7, 83
14, 24797, Control_c, 10, 7, 84
14, 24798, Control_c, 10, 7, 84
14, 24799, Control_c, 10, 7, 84
14, 24800, Control_c, 10, 7, 85
14, 24801, Control_c, 10, 7, 85
14, 24802, Control_c, 10, 7, 85
14, 24803, Control_c, 10, 7, 86
14, 24804, Control_c, 10, 7, 86
14, 24805, Control_c, 10, 7, 87
14, 24806, Control_c, 10, 7, 87
14, 24807, Control_c, 10, 7, 87
14, 24808, Control_c, 10, 7, 88
14, 24809, Control_c, 10, 7, 88
14, 24810, Control_c, 10, 7, 88
14, 24811, Control_c, 10, 7, 89
14, 24812, Control_c, 10, 7, 89
14, 24813, Control_c, 10, 7, 90
14, 24814, Control_c, 10, 7, 90
14, 24815, Control_c, 10, 7, 90
14, 24816, Control_c, 10, 7, 91
14, 24817, Control_c, 10, 7, 91
14, 24818, Control_c, 10, 7, 92
14, 24819, Control_c, 10, 7, 92
14, 24820, Control_c, 10, 7, 92
14, 24821, Control_c, 10, 7, 93
14, 24822, Control_c, 10, 7, 93
14, 24823, Control_c, 10, 7, 93
14, 24824, Control_c, 10, 7, 94
14, 24825, Control_c, 10, 7, 94
14, 24826, Control_c, 10, 7, 95
14, 24827, Control_c, 10, 7, 95
14, 24828, Control_c, 10, 7, 95
14, 24829, Control_c, 10, 7, 96
14, 24830, Control_c, 10, 7, 96
14, 24831, Control_c, 10, 7, 96
14, 24832, Control_c, 10, 7, 97
14, 24833, Control_c, 10, 7, 97
14, 24834, Control_c, 10, 7, 98
14, 24835, Control_c, 10, 7, 98
14, 24836, Control_c, 10, 7, 98
14, 24837, Control_c, 10, 7, 99
14, 24838, Control_c, 10, 7, 99
14, 24839, Control_c, 10, 7, 99
14, 24840, Control_c, 10, 7, 100
14, 24841, Control_c, 10, 7, 100
14, 24842, Control_c, 10, 7, 101
14, 24843, Control_c, 10, 7, 101
14, 24844, Control_c, 10, 7, 101
14, 24845, Control_c, 10, 7, 102
14, 24846, Control_c, 10, 7, 102
14, 24847, Control_c, 10, 7, 103
14, 24848, Control_c, 10, 7, 103
14, 24849, Control_c, 10, 7, 103
14, 24850, Control_c, 10, 7, 104
14, 24851, Control_c, 10, 7, 104
14, 24852, Control_c, 10, 7, 104
14, 24853, Control_c, 10, 7, 105
14, 24854, Control_c, 10, 7, 105
14, 24855, Control_c, 10, 7, 106
14, 24856, Control_c, 10, 7, 106
14, 24857, Control_c, 10, 7, 106
14, 24858, Control_c, 10, 7, 107
14, 24859, Control_c, 10, 7, 107
14, 24860, Control_c, 10, 7, 107
14, 24861, Control_c, 10, 7, 108
14, 24862, Control_c, 10, 7, 108
14, 24863, Control_c, 10, 7, 109
14, 24864, Note_off_c, 10, 55, 64
14, 24864, Note_off_c, 10, 31, 64
14, 24864, Note_off_c, 10, 43, 64
14, 24864, Control_c, 10, 7, 108
14, 24864, Note_on_c, 10, 39, 127
14, 24864, Note_on_c, 10, 27, 127
14, 24864, Note_on_c, 10, 51, 127
14, 24865, Control_c, 10, 7, 108
14, 24866, Control_c, 10, 7, 107
14, 24867, Control_c, 10, 7, 107
14, 24868, Control_c, 10, 7, 106
14, 24869, Control_c, 10, 7, 106
14, 24870, Control_c, 10, 7, 105
14, 24871, Control_c, 10, 7, 105
14, 24872, Control_c, 10, 7, 105
14, 24873, Control_c, 10, 7, 104
14, 24874, Control_c, 10, 7, 104
14, 24875, Control_c, 10, 7, 103
14, 24876, Control_c, 10, 7, 103
14, 24877, Control_c, 10, 7, 102
14, 24878, Control_c, 10, 7, 102
14, 24879, Control_c, 10, 7, 101
14, 24880, Control_c, 10, 7, 101
14, 24881, Control_c, 10, 7, 100
14, 24882, Control_c, 10, 7, 100
14, 24883, Control_c, 10, 7, 99
14, 24884, Control_c, 10, 7, 99
14, 24885, Control_c, 10, 7, 98
14, 24886, Control_c, 10, 7, 98
14, 24887, Control_c, 10, 7, 97
14, 24888, Control_c, 10, 7, 97
14, 24889, Control_c, 10, 7, 96
14, 24890, Control_c, 10, 7, 96
14, 24891, Control_c, 10, 7, 95
14, 24892, Control_c, 10, 7, 95
14, 24893, Control_c, 10, 7, 94
14, 24894, Control_c, 10, 7, 94
14, 24895, Control_c, 10, 7, 93
14, 24896, Control_c, 10, 7, 93
14, 24897, Control_c, 10, 7, 92
14, 24898, Control_c, 10, 7, 92
14, 24899, Control_c, 10, 7, 91
14, 24900, Control_c, 10, 7, 91
14, 24901, Control_c, 10, 7, 90
14, 24902, Control_c, 10, 7, 90
14, 24903, Control_c, 10, 7, 89
14, 24904, Control_c, 10, 7, 89
14, 24905, Control_c, 10, 7, 88
14, 24906, Control_c, 10, 7, 88
14, 24907, Control_c, 10, 7, 87
14, 24908, Control_c, 10, 7, 87
14, 24909, Control_c, 10, 7, 86
14, 24910, Control_c, 10, 7, 86
14, 24911, Control_c, 10, 7, 85
14, 24912, Control_c, 10, 7, 85
14, 24913, Control_c, 10, 7, 84
14, 24914, Control_c, 10, 7, 84
14, 24915, Control_c, 10, 7, 83
14, 24916, Control_c, 10, 7, 83
14, 24917, Control_c, 10, 7, 82
14, 24918, Control_c, 10, 7, 82
14, 24919, Control_c, 10, 7, 81
14, 24920, Control_c, 10, 7, 81
14, 24921, Control_c, 10, 7, 80
14, 24922, Control_c, 10, 7, 80
14, 24923, Control_c, 10, 7, 79
14, 24924, Control_c, 10, 7, 79
14, 24925, Control_c, 10, 7, 78
14, 24926, Control_c, 10, 7, 78
14, 24927, Control_c, 10, 7, 77
14, 24928, Control_c, 10, 7, 77
14, 24929, Control_c, 10, 7, 76
14, 24930, Control_c, 10, 7, 76
14, 24931, Control_c, 10, 7, 75
14, 24932, Control_c, 10, 7, 75
14, 24933, Control_c, 10, 7, 74
14, 24934, Control_c, 10, 7, 74
14, 24935, Control_c, 10, 7, 73
14, 24936, Control_c, 10, 7, 73
14, 24937, Control_c, 10, 7, 72
14, 24938, Control_c, 10, 7, 72
14, 24939, Control_c, 10, 7, 71
14, 24940, Control_c, 10, 7, 71
14, 24941, Control_c, 10, 7, 70
14, 24942, Control_c, 10, 7, 70
14, 24943, Control_c, 10, 7, 69
14, 24944, Control_c, 10, 7, 69
14, 24945, Control_c, 10, 7, 68
14, 24946, Control_c, 10, 7, 68
14, 24947, Control_c, 10, 7, 67
14, 24948, Control_c, 10, 7, 67
14, 24949, Control_c, 10, 7, 66
14, 24950, Control_c, 10, 7, 66
14, 24951, Control_c, 10, 7, 65
14, 24952, Control_c, 10, 7, 65
14, 24953, Control_c, 10, 7, 64
14, 24954, Control_c, 10, 7, 64
14, 24955, Control_c, 10, 7, 63
14, 24956, Control_c, 10, 7, 63
14, 24957, Control_c, 10, 7, 62
14, 24958, Control_c, 10, 7, 62
14, 24959, Control_c, 10, 7, 61
14, 24960, Control_c, 10, 7, 61
14, 25008, Note_off_c, 10, 39, 64
14, 25008, Note_off_c, 10, 51, 64
14, 25008, Note_off_c, 10, 27, 64
14, 25008, Control_c, 10, 7, 102
14, 25008, Note_on_c, 10, 39, 127
14, 25008, Note_on_c, 10, 27, 127
14, 25008, Note_on_c, 10, 51, 127
14, 25009, Control_c, 10, 7, 102
14, 25010, Control_c, 10, 7, 101
14, 25011, Control_c, 10, 7, 100
14, 25012, Control_c, 10, 7, 99
14, 25013, Control_c, 10, 7, 98
14, 25014, Control_c, 10, 7, 97
14, 25015, Control_c, 10, 7, 96
14, 25016, Control_c, 10, 7, 95
14, 25017, Control_c, 10, 7, 95
14, 25018, Control_c, 10, 7, 94
14, 25019, Control_c, 10, 7, 93
14, 25020, Control_c, 10, 7, 92
14, 25021, Control_c, 10, 7, 91
14, 25022, Control_c, 10, 7, 90
14, 25023, Control_c, 10, 7, 89
14, 25024, Control_c, 10, 7, 88
14, 25025, Control_c, 10, 7, 87
14, 25026, Control_c, 10, 7, 87
14, 25027, Control_c, 10, 7, 86
14, 25028, Control_c, 10, 7, 85
14, 25029, Control_c, 10, 7, 84
14, 25030, Control_c, 10, 7, 83
14, 25031, Control_c, 10, 7, 82
14, 25032, Control_c, 10, 7, 81
14, 25033, Control_c, 10, 7, 80
14, 25034, Control_c, 10, 7, 80
14, 25035, Control_c, 10, 7, 79
14, 25036, Control_c, 10, 7, 78
14, 25037, Control_c, 10, 7, 77
14, 25038, Control_c, 10, 7, 76
14, 25039, Control_c, 10, 7, 75
14, 25040, Control_c, 10, 7, 74
14, 25041, Control_c, 10, 7, 73
14, 25042, Control_c, 10, 7, 73
14, 25043, Control_c, 10, 7, 72
14, 25044, Control_c, 10, 7, 71
14, 25045, Control_c, 10, 7, 70
14, 25046, Control_c, 10, 7, 69
14, 25047, Control_c, 10, 7, 68
14, 25048, Control_c, 10, 7, 67
14, 25049, Control_c, 10, 7, 66
14, 25050, Control_c, 10, 7, 66
14, 25051, Control_c, 10, 7, 65
14, 25052, Control_c, 10, 7, 64
14, 25053, Control_c, 10, 7, 63
14, 25054, Control_c, 10, 7, 62
14, 25055, Control_c, 10, 7, 61
14, 25056, Note_off_c, 10, 51, 64
14, 25056, Note_off_c, 10, 27, 64
14, 25056, Note_off_c, 10, 39, 64
14, 25056, Control_c, 10, 7, 102
14, 25056, Note_on_c, 10, 39, 127
14, 25056, Note_on_c, 10, 27, 127
14, 25056, Note_on_c, 10, 51, 127
14, 25057, Control_c, 10, 7, 102
14, 25058, Control_c, 10, 7, 101
14, 25059, Control_c, 10, 7, 100
14, 25060, Control_c, 10, 7, 99
14, 25061, Control_c, 10, 7, 98
14, 25062, Control_c, 10, 7, 97
14, 25063, Control_c, 10, 7, 96
14, 25064, Control_c, 10, 7, 96
14, 25065, Control_c, 10, 7, 95
14, 25066, Control_c, 10, 7, 94
14, 25067, Control_c, 10, 7, 93
14, 25068, Control_c, 10, 7, 92
14, 25069, Control_c, 10, 7, 91
14, 25070, Control_c, 10, 7, 91
14, 25071, Control_c, 10, 7, 90
14, 25072, Control_c, 10, 7, 89
14, 25073, Control_c, 10, 7, 88
14, 25074, Control_c, 10, 7, 87
14, 25075, Control_c, 10, 7, 86
14, 25076, Control_c, 10, 7, 85
14, 25077, Control_c, 10, 7, 85
14, 25078, Control_c, 10, 7, 84
14, 25079, Control_c, 10, 7, 83
14, 25080, Control_c, 10, 7, 82
14, 25081, Control_c, 10, 7, 81
14, 25082, Control_c, 10, 7, 80
14, 25083, Control_c, 10, 7, 80
14, 25084, Control_c, 10, 7, 79
14, 25085, Control_c, 10, 7, 78
14, 25086, Control_c, 10, 7, 77
14, 25087, Control_c, 10, 7, 76
14, 25088, Control_c, 10, 7, 75
14, 25089, Control_c, 10, 7, 74
14, 25090, Control_c, 10, 7, 74
14, 25091, Control_c, 10, 7, 73
14, 25092, Control_c, 10, 7, 72
14, 25093, Control_c, 10, 7, 71
14, 25094, Control_c, 10, 7, 70
14, 25095, Control_c, 10, 7, 69
14, 25096, Control_c, 10, 7, 68
14, 25097, Control_c, 10, 7, 68
14, 25098, Control_c, 10, 7, 67
14, 25099, Control_c, 10, 7, 66
14, 25100, Control_c, 10, 7, 65
14, 25101, Control_c, 10, 7, 64
14, 25102, Control_c, 10, 7, 102
14, 25103, Control_c, 10, 7, 102
14, 25104, Note_off_c, 10, 39, 64
14, 25104, Note_off_c, 10, 51, 64
14, 25104, Note_off_c, 10, 27, 64
14, 25104, Control_c, 10, 7, 101
14, 25104, Note_on_c, 10, 39, 127
14, 25104, Note_on_c, 10, 27, 127
14, 25104, Note_on_c, 10, 51, 127
14, 25105, Control_c, 10, 7, 100
14, 25106, Control_c, 10, 7, 99
14, 25107, Control_c, 10, 7, 98
14, 25108, Control_c, 10, 7, 97
14, 25109, Control_c, 10, 7, 97
14, 25110, Control_c, 10, 7, 96
14, 25111, Control_c, 10, 7, 95
14, 25112, Control_c, 10, 7, 94
14, 25113, Control_c, 10, 7, 93
14, 25114, Control_c, 10, 7, 93
14, 25115, Control_c, 10, 7, 92
14, 25116, Control_c, 10, 7, 91
14, 25117, Control_c, 10, 7, 90
14, 25118, Control_c, 10, 7, 89
14, 25119, Control_c, 10, 7, 88
14, 25120, Control_c, 10, 7, 88
14, 25121, Control_c, 10, 7, 87
14, 25122, Control_c, 10, 7, 86
14, 25123, Control_c, 10, 7, 85
14, 25124, Control_c, 10, 7, 84
14, 25125, Control_c, 10, 7, 84
14, 25126, Control_c, 10, 7, 83
14, 25127, Control_c, 10, 7, 82
14, 25128, Control_c, 10, 7, 81
14, 25129, Control_c, 10, 7, 80
14, 25130, Control_c, 10, 7, 79
14, 25131, Control_c, 10, 7, 79
14, 25132, Control_c, 10, 7, 78
14, 25133, Control_c, 10, 7, 77
14, 25134, Control_c, 10, 7, 76
14, 25135, Control_c, 10, 7, 75
14, 25136, Control_c, 10, 7, 75
14, 25137, Control_c, 10, 7, 74
14, 25138, Control_c, 10, 7, 73
14, 25139, Control_c, 10, 7, 72
14, 25140, Control_c, 10, 7, 71
14, 25141, Control_c, 10, 7, 70
14, 25142, Control_c, 10, 7, 70
14, 25143, Control_c, 10, 7, 69
14, 25144, Control_c, 10, 7, 68
14, 25145, Control_c, 10, 7, 67
14, 25146, Control_c, 10, 7, 66
14, 25147, Control_c, 10, 7, 66
14, 25148, Control_c, 10, 7, 65
14, 25149, Control_c, 10, 7, 64
14, 25150, Control_c, 10, 7, 63
14, 25151, Control_c, 10, 7, 62
14, 25152, Note_off_c, 10, 39, 64
14, 25152, Note_off_c, 10, 51, 64
14, 25152, Note_off_c, 10, 27, 64
14, 25152, Control_c, 10, 7, 102
14, 25152, Note_on_c, 10, 39, 127
14, 25152, Note_on_c, 10, 27, 127
14, 25152, Note_on_c, 10, 51, 127
14, 25153, Control_c, 10, 7, 102
14, 25154, Control_c, 10, 7, 101
14, 25155, Control_c, 10, 7, 100
14, 25156, Control_c, 10, 7, 99
14, 25157, Control_c, 10, 7, 98
14, 25158, Control_c, 10, 7, 97
14, 25159, Control_c, 10, 7, 96
14, 25160, Control_c, 10, 7, 95
14, 25161, Control_c, 10, 7, 94
14, 25162, Control_c, 10, 7, 94
14, 25163, Control_c, 10, 7, 93
14, 25164, Control_c, 10, 7, 92
14, 25165, Control_c, 10, 7, 91
14, 25166, Control_c, 10, 7, 90
14, 25167, Control_c, 10, 7, 89
14, 25168, Control_c, 10, 7, 88
14, 25169, Control_c, 10, 7, 87
14, 25170, Control_c, 10, 7, 86
14, 25171, Control_c, 10, 7, 86
14, 25172, Control_c, 10, 7, 85
14, 25173, Control_c, 10, 7, 84
14, 25174, Control_c, 10, 7, 83
14, 25175, Control_c, 10, 7, 82
14, 25176, Control_c, 10, 7, 81
14, 25177, Control_c, 10, 7, 80
14, 25178, Control_c, 10, 7, 79
14, 25179, Control_c, 10, 7, 78
14, 25180, Control_c, 10, 7, 78
14, 25181, Control_c, 10, 7, 77
14, 25182, Control_c, 10, 7, 76
14, 25183, Control_c, 10, 7, 75
14, 25184, Control_c, 10, 7, 74
14, 25185, Control_c, 10, 7, 73
14, 25186, Control_c, 10, 7, 72
14, 25187, Control_c, 10, 7, 71
14, 25188, Control_c, 10, 7, 70
14, 25189, Control_c, 10, 7, 69
14, 25190, Control_c, 10, 7, 69
14, 25191, Control_c, 10, 7, 68
14, 25192, Control_c, 10, 7, 67
14, 25193, Control_c, 10, 7, 66
14, 25194, Control_c, 10, 7, 65
14, 25195, Control_c, 10, 7, 64
14, 25196, Control_c, 10, 7, 63
14, 25197, Control_c, 10, 7, 62
14, 25198, Control_c, 10, 7, 61
14, 25199, Control_c, 10, 7, 61
14, 25200, Note_off_c, 10, 51, 64
14, 25200, Note_off_c, 10, 27, 64
14, 25200, Note_off_c, 10, 39, 64
14, 25200, Note_on_c, 10, 39, 127
14, 25200, Note_on_c, 10, 27, 127
14, 25200, Note_on_c, 10, 51, 127
14, 25201, Control_c, 10, 7, 103
14, 25202, Control_c, 10, 7, 102
14, 25203, Control_c, 10, 7, 101
14, 25204, Control_c, 10, 7, 100
14, 25205, Control_c, 10, 7, 99
14, 25206, Control_c, 10, 7, 99
14, 25207, Control_c, 10, 7, 98
14, 25208, Control_c, 10, 7, 97
14, 25209, Control_c, 10, 7, 96
14, 25210, Control_c, 10, 7, 95
14, 25211, Control_c, 10, 7, 94
14, 25212, Control_c, 10, 7, 93
14, 25213, Control_c, 10, 7, 93
14, 25214, Control_c, 10, 7, 92
14, 25215, Control_c, 10, 7, 91
14, 25216, Control_c, 10, 7, 90
14, 25217, Control_c, 10, 7, 89
14, 25218, Control_c, 10, 7, 88
14, 25219, Control_c, 10, 7, 87
14, 25220, Control_c, 10, 7, 87
14, 25221, Control_c, 10, 7, 86
14, 25222, Control_c, 10, 7, 85
14, 25223, Control_c, 10, 7, 84
14, 25224, Control_c, 10, 7, 83
14, 25225, Control_c, 10, 7, 82
14, 25226, Control_c, 10, 7, 81
14, 25227, Control_c, 10, 7, 81
14, 25228, Control_c, 10, 7, 80
14, 25229, Control_c, 10, 7, 79
14, 25230, Control_c, 10, 7, 78
14, 25231, Control_c, 10, 7, 77
14, 25232, Control_c, 10, 7, 76
14, 25233, Control_c, 10, 7, 75
14, 25234, Control_c, 10, 7, 75
14, 25235, Control_c, 10, 7, 74
14, 25236, Control_c, 10, 7, 73
14, 25237, Control_c, 10, 7, 72
14, 25238, Control_c, 10, 7, 71
14, 25239, Control_c, 10, 7, 70
14, 25240, Control_c, 10, 7, 69
14, 25241, Control_c, 10, 7, 69
14, 25242, Control_c, 10, 7, 68
14, 25243, Control_c, 10, 7, 67
14, 25244, Control_c, 10, 7, 66
14, 25245, Control_c, 10, 7, 65
14, 25246, Control_c, 10, 7, 64
14, 25247, Control_c, 10, 7, 64
14, 25248, Note_off_c, 10, 39, 64
14, 25248, Note_off_c, 10, 51, 64
14, 25248, Note_off_c, 10, 27, 64
14, 25248, Note_on_c, 10, 39, 127
14, 25248, Note_on_c, 10, 27, 127
14, 25248, Note_on_c, 10, 51, 127
14, 25249, Control_c, 10, 7, 104
14, 25250, Control_c, 10, 7, 103
14, 25251, Control_c, 10, 7, 102
14, 25252, Control_c, 10, 7, 101
14, 25253, Control_c, 10, 7, 100
14, 25254, Control_c, 10, 7, 99
14, 25255, Control_c, 10, 7, 98
14, 25256, Control_c, 10, 7, 98
14, 25257, Control_c, 10, 7, 97
14, 25258, Control_c, 10, 7, 96
14, 25259, Control_c, 10, 7, 95
14, 25260, Control_c, 10, 7, 94
14, 25261, Control_c, 10, 7, 93
14, 25262, Control_c, 10, 7, 93
14, 25263, Control_c, 10, 7, 92
14, 25264, Control_c, 10, 7, 91
14, 25265, Control_c, 10, 7, 90
14, 25266, Control_c, 10, 7, 89
14, 25267, Control_c, 10, 7, 88
14, 25268, Control_c, 10, 7, 87
14, 25269, Control_c, 10, 7, 87
14, 25270, Control_c, 10, 7, 86
14, 25271, Control_c, 10, 7, 85
14, 25272, Control_c, 10, 7, 84
14, 25273, Control_c, 10, 7, 83
14, 25274, Control_c, 10, 7, 82
14, 25275, Control_c, 10, 7, 82
14, 25276, Control_c, 10, 7, 81
14, 25277, Control_c, 10, 7, 80
14, 25278, Control_c, 10, 7, 79
14, 25279, Control_c, 10, 7, 78
14, 25280, Control_c, 10, 7, 77
14, 25281, Control_c, 10, 7, 76
14, 25282, Control_c, 10, 7, 76
14, 25283, Control_c, 10, 7, 75
14, 25284, Control_c, 10, 7, 74
14, 25285, Control_c, 10, 7, 73
14, 25286, Control_c, 10, 7, 72
14, 25287, Control_c, 10, 7, 71
14, 25288, Control_c, 10, 7, 71
14, 25289, Control_c, 10, 7, 70
14, 25290, Control_c, 10, 7, 69
14, 25291, Control_c, 10, 7, 68
14, 25292, Control_c, 10, 7, 67
14, 25293, Control_c, 10, 7, 66
14, 25294, Control_c, 10, 7, 65
14, 25295, Control_c, 10, 7, 102
14, 25296, Note_off_c, 10, 51, 64
14, 25296, Note_off_c, 10, 27, 64
14, 25296, Note_off_c, 10, 39, 64
14, 25296, Control_c, 10, 7, 102
14, 25296, Note_on_c, 10, 39, 127
14, 25296, Note_on_c, 10, 27, 127
14, 25296, Note_on_c, 10, 51, 127
14, 25297, Control_c, 10, 7, 101
14, 25298, Control_c, 10, 7, 100
14, 25299, Control_c, 10, 7, 99
14, 25300, Control_c, 10, 7, 98
14, 25301, Control_c, 10, 7, 97
14, 25302, Control_c, 10, 7, 96
14, 25303, Control_c, 10, 7, 96
14, 25304, Control_c, 10, 7, 95
14, 25305, Control_c, 10, 7, 94
14, 25306, Control_c, 10, 7, 93
14, 25307, Control_c, 10, 7, 92
14, 25308, Control_c, 10, 7, 91
14, 25309, Control_c, 10, 7, 90
14, 25310, Control_c, 10, 7, 89
14, 25311, Control_c, 10, 7, 89
14, 25312, Control_c, 10, 7, 88
14, 25313, Control_c, 10, 7, 87
14, 25314, Control_c, 10, 7, 86
14, 25315, Control_c, 10, 7, 85
14, 25316, Control_c, 10, 7, 84
14, 25317, Control_c, 10, 7, 83
14, 25318, Control_c, 10, 7, 83
14, 25319, Control_c, 10, 7, 82
14, 25320, Control_c, 10, 7, 81
14, 25321, Control_c, 10, 7, 80
14, 25322, Control_c, 10, 7, 79
14, 25323, Control_c, 10, 7, 78
14, 25324, Control_c, 10, 7, 77
14, 25325, Control_c, 10, 7, 77
14, 25326, Control_c, 10, 7, 76
14, 25327, Control_c, 10, 7, 75
14, 25328, Control_c, 10, 7, 74
14, 25329, Control_c, 10, 7, 73
14, 25330, Control_c, 10, 7, 72
14, 25331, Control_c, 10, 7, 71
14, 25332, Control_c, 10, 7, 71
14, 25333, Control_c, 10, 7, 70
14, 25334, Control_c, 10, 7, 69
14, 25335, Control_c, 10, 7, 68
14, 25336, Control_c, 10, 7, 67
14, 25337, Control_c, 10, 7, 66
14, 25338, Control_c, 10, 7, 65
14, 25339, Control_c, 10, 7, 65
14, 25340, Control_c, 10, 7, 64
14, 25341, Control_c, 10, 7, 63
14, 25344, Note_off_c, 10, 51, 64
14, 25344, Note_off_c, 10, 27, 64
14, 25344, Note_off_c, 10, 39, 64
14, 25344, Control_c, 10, 7, 113
14, 25344, Note_on_c, 10, 39, 127
14, 25344, Note_on_c, 10, 27, 127
14, 25344, Note_on_c, 10, 51, 127
14, 25345, Control_c, 10, 7, 113
14, 25346, Control_c, 10, 7, 112
14, 25347, Control_c, 10, 7, 112
14, 25348, Control_c, 10, 7, 112
14, 25349, Control_c, 10, 7, 111
14, 25350, Control_c, 10, 7, 111
14, 25351, Control_c, 10, 7, 110
14, 25352, Control_c, 10, 7, 110
14, 25353, Control_c, 10, 7, 110
14, 25354, Control_c, 10, 7, 109
14, 25355, Control_c, 10, 7, 109
14, 25356, Control_c, 10, 7, 109
14, 25357, Control_c, 10, 7, 108
14, 25358, Control_c, 10, 7, 108
14, 25359, Control_c, 10, 7, 108
14, 25360, Control_c, 10, 7, 107
14, 25361, Control_c, 10, 7, 107
14, 25362, Control_c, 10, 7, 107
14, 25363, Control_c, 10, 7, 106
14, 25364, Control_c, 10, 7, 106
14, 25365, Control_c, 10, 7, 106
14, 25366, Control_c, 10, 7, 105
14, 25367, Control_c, 10, 7, 105
14, 25368, Control_c, 10, 7, 104
14, 25369, Control_c, 10, 7, 104
14, 25370, Control_c, 10, 7, 104
14, 25371, Control_c, 10, 7, 103
14, 25372, Control_c, 10, 7, 103
14, 25373, Control_c, 10, 7, 103
14, 25374, Control_c, 10, 7, 102
14, 25375, Control_c, 10, 7, 102
14, 25376, Control_c, 10, 7, 102
14, 25377, Control_c, 10, 7, 101
14, 25378, Control_c, 10, 7, 101
14, 25379, Control_c, 10, 7, 101
14, 25380, Control_c, 10, 7, 100
14, 25381, Control_c, 10, 7, 100
14, 25382, Control_c, 10, 7, 100
14, 25383, Control_c, 10, 7, 99
14, 25384, Control_c, 10, 7, 99
14, 25385, Control_c, 10, 7, 98
14, 25386, Control_c, 10, 7, 98
14, 25387, Control_c, 10, 7, 98
14, 25388, Control_c, 10, 7, 97
14, 25389, Control_c, 10, 7, 97
14, 25390, Control_c, 10, 7, 97
14, 25391, Control_c, 10, 7, 96
14, 25392, Control_c, 10, 7, 96
14, 25393, Control_c, 10, 7, 96
14, 25394, Control_c, 10, 7, 95
14, 25395, Control_c, 10, 7, 95
14, 25396, Control_c, 10, 7, 95
14, 25397, Control_c, 10, 7, 94
14, 25398, Control_c, 10, 7, 94
14, 25399, Control_c, 10, 7, 94
14, 25400, Control_c, 10, 7, 93
14, 25401, Control_c, 10, 7, 93
14, 25402, Control_c, 10, 7, 92
14, 25403, Control_c, 10, 7, 92
14, 25404, Control_c, 10, 7, 92
14, 25405, Control_c, 10, 7, 91
14, 25406, Control_c, 10, 7, 91
14, 25407, Control_c, 10, 7, 91
14, 25408, Control_c, 10, 7, 90
14, 25409, Control_c, 10, 7, 90
14, 25410, Control_c, 10, 7, 90
14, 25411, Control_c, 10, 7, 89
14, 25412, Control_c, 10, 7, 89
14, 25413, Control_c, 10, 7, 89
14, 25414, Control_c, 10, 7, 88
14, 25415, Control_c, 10, 7, 88
14, 25416, Control_c, 10, 7, 88
14, 25417, Control_c, 10, 7, 87
14, 25418, Control_c, 10, 7, 87
14, 25419, Control_c, 10, 7, 86
14, 25420, Control_c, 10, 7, 86
14, 25421, Control_c, 10, 7, 86
14, 25422, Control_c, 10, 7, 85
14, 25423, Control_c, 10, 7, 85
14, 25424, Control_c, 10, 7, 85
14, 25425, Control_c, 10, 7, 84
14, 25426, Control_c, 10, 7, 84
14, 25427, Control_c, 10, 7, 84
14, 25428, Control_c, 10, 7, 83
14, 25429, Control_c, 10, 7, 83
14, 25430, Control_c, 10, 7, 83
14, 25431, Control_c, 10, 7, 82
14, 25432, Control_c, 10, 7, 82
14, 25433, Control_c, 10, 7, 82
14, 25434, Control_c, 10, 7, 81
14, 25435, Control_c, 10, 7, 81
14, 25436, Control_c, 10, 7, 80
14, 25437, Control_c, 10, 7, 80
14, 25438, Control_c, 10, 7, 80
14, 25439, Control_c, 10, 7, 79
14, 25440, Control_c, 10, 7, 79
14, 25441, Control_c, 10, 7, 79
14, 25442, Control_c, 10, 7, 78
14, 25443, Control_c, 10, 7, 78
14, 25444, Control_c, 10, 7, 78
14, 25445, Control_c, 10, 7, 77
14, 25446, Control_c, 10, 7, 77
14, 25447, Control_c, 10, 7, 77
14, 25448, Control_c, 10, 7, 76
14, 25449, Control_c, 10, 7, 76
14, 25450, Control_c, 10, 7, 76
14, 25451, Control_c, 10, 7, 75
14, 25452, Control_c, 10, 7, 75
14, 25453, Control_c, 10, 7, 74
14, 25454, Control_c, 10, 7, 74
14, 25455, Control_c, 10, 7, 74
14, 25456, Control_c, 10, 7, 73
14, 25457, Control_c, 10, 7, 73
14, 25458, Control_c, 10, 7, 73
14, 25459, Control_c, 10, 7, 72
14, 25460, Control_c, 10, 7, 72
14, 25461, Control_c, 10, 7, 72
14, 25462, Control_c, 10, 7, 71
14, 25463, Control_c, 10, 7, 71
14, 25464, Control_c, 10, 7, 71
14, 25465, Control_c, 10, 7, 70
14, 25466, Control_c, 10, 7, 70
14, 25467, Control_c, 10, 7, 70
14, 25468, Control_c, 10, 7, 69
14, 25469, Control_c, 10, 7, 69
14, 25470, Control_c, 10, 7, 68
14, 25471, Control_c, 10, 7, 68
14, 25472, Control_c, 10, 7, 68
14, 25473, Control_c, 10, 7, 67
14, 25474, Control_c, 10, 7, 67
14, 25475, Control_c, 10, 7, 67
14, 25476, Control_c, 10, 7, 66
14, 25477, Control_c, 10, 7, 66
14, 25478, Control_c, 10, 7, 66
14, 25479, Control_c, 10, 7, 65
14, 25480, Control_c, 10, 7, 65
14, 25481, Control_c, 10, 7, 65
14, 25482, Control_c, 10, 7, 64
14, 25483, Control_c, 10, 7, 64
14, 25484, Control_c, 10, 7, 64
14, 25485, Control_c, 10, 7, 63
14, 25486, Control_c, 10, 7, 111
14, 25487, Control_c, 10, 7, 111
14, 25488, Note_off_c, 10, 51, 64
14, 25488, Note_off_c, 10, 27, 64
14, 25488, Note_off_c, 10, 39, 64
14, 25488, Control_c, 10, 7, 110
14, 25488, Note_on_c, 10, 39, 127
14, 25488, Note_on_c, 10, 51, 127
14, 25488, Note_on_c, 10, 27, 127
14, 25489, Control_c, 10, 7, 110
14, 25490, Control_c, 10, 7, 110
14, 25491, Control_c, 10, 7, 109
14, 25492, Control_c, 10, 7, 109
14, 25493, Control_c, 10, 7, 109
14, 25494, Control_c, 10, 7, 109
14, 25495, Control_c, 10, 7, 108
14, 25496, Control_c, 10, 7, 108
14, 25497, Control_c, 10, 7, 108
14, 25498, Control_c, 10, 7, 107
14, 25499, Control_c, 10, 7, 107
14, 25500, Control_c, 10, 7, 107
14, 25501, Control_c, 10, 7, 106
14, 25502, Control_c, 10, 7, 106
14, 25503, Control_c, 10, 7, 106
14, 25504, Control_c, 10, 7, 105
14, 25505, Control_c, 10, 7, 105
14, 25506, Control_c, 10, 7, 105
14, 25507, Control_c, 10, 7, 104
14, 25508, Control_c, 10, 7, 104
14, 25509, Control_c, 10, 7, 104
14, 25510, Control_c, 10, 7, 103
14, 25511, Control_c, 10, 7, 103
14, 25512, Control_c, 10, 7, 103
14, 25513, Control_c, 10, 7, 102
14, 25514, Control_c, 10, 7, 102
14, 25515, Control_c, 10, 7, 102
14, 25516, Control_c, 10, 7, 101
14, 25517, Control_c, 10, 7, 101
14, 25518, Control_c, 10, 7, 101
14, 25519, Control_c, 10, 7, 100
14, 25520, Control_c, 10, 7, 100
14, 25521, Control_c, 10, 7, 100
14, 25522, Control_c, 10, 7, 99
14, 25523, Control_c, 10, 7, 99
14, 25524, Control_c, 10, 7, 99
14, 25525, Control_c, 10, 7, 98
14, 25526, Control_c, 10, 7, 98
14, 25527, Control_c, 10, 7, 98
14, 25528, Control_c, 10, 7, 97
14, 25529, Control_c, 10, 7, 97
14, 25530, Control_c, 10, 7, 97
14, 25531, Control_c, 10, 7, 96
14, 25532, Control_c, 10, 7, 96
14, 25533, Control_c, 10, 7, 96
14, 25534, Control_c, 10, 7, 95
14, 25535, Control_c, 10, 7, 95
14, 25536, Control_c, 10, 7, 95
14, 25537, Control_c, 10, 7, 94
14, 25538, Control_c, 10, 7, 94
14, 25539, Control_c, 10, 7, 94
14, 25540, Control_c, 10, 7, 93
14, 25541, Control_c, 10, 7, 93
14, 25542, Control_c, 10, 7, 93
14, 25543, Control_c, 10, 7, 92
14, 25544, Control_c, 10, 7, 92
14, 25545, Control_c, 10, 7, 92
14, 25546, Control_c, 10, 7, 91
14, 25547, Control_c, 10, 7, 91
14, 25548, Control_c, 10, 7, 91
14, 25549, Control_c, 10, 7, 90
14, 25550, Control_c, 10, 7, 90
14, 25551, Control_c, 10, 7, 90
14, 25552, Control_c, 10, 7, 89
14, 25553, Control_c, 10, 7, 89
14, 25554, Control_c, 10, 7, 89
14, 25555, Control_c, 10, 7, 88
14, 25556, Control_c, 10, 7, 88
14, 25557, Control_c, 10, 7, 88
14, 25558, Control_c, 10, 7, 87
14, 25559, Control_c, 10, 7, 87
14, 25560, Control_c, 10, 7, 87
14, 25561, Control_c, 10, 7, 86
14, 25562, Control_c, 10, 7, 86
14, 25563, Control_c, 10, 7, 86
14, 25564, Control_c, 10, 7, 85
14, 25565, Control_c, 10, 7, 85
14, 25566, Control_c, 10, 7, 85
14, 25567, Control_c, 10, 7, 84
14, 25568, Control_c, 10, 7, 84
14, 25569, Control_c, 10, 7, 84
14, 25570, Control_c, 10, 7, 83
14, 25571, Control_c, 10, 7, 83
14, 25572, Control_c, 10, 7, 83
14, 25573, Control_c, 10, 7, 82
14, 25574, Control_c, 10, 7, 82
14, 25575, Control_c, 10, 7, 82
14, 25576, Control_c, 10, 7, 81
14, 25577, Control_c, 10, 7, 81
14, 25578, Control_c, 10, 7, 81
14, 25579, Control_c, 10, 7, 80
14, 25580, Control_c, 10, 7, 80
14, 25581, Control_c, 10, 7, 80
14, 25582, Control_c, 10, 7, 79
14, 25583, Control_c, 10, 7, 79
14, 25584, Control_c, 10, 7, 79
14, 25585, Control_c, 10, 7, 78
14, 25586, Control_c, 10, 7, 78
14, 25587, Control_c, 10, 7, 78
14, 25588, Control_c, 10, 7, 77
14, 25589, Control_c, 10, 7, 77
14, 25590, Control_c, 10, 7, 77
14, 25591, Control_c, 10, 7, 76
14, 25592, Control_c, 10, 7, 76
14, 25593, Control_c, 10, 7, 76
14, 25594, Control_c, 10, 7, 75
14, 25595, Control_c, 10, 7, 75
14, 25596, Control_c, 10, 7, 75
14, 25597, Control_c, 10, 7, 74
14, 25598, Control_c, 10, 7, 74
14, 25599, Control_c, 10, 7, 74
14, 25600, Control_c, 10, 7, 73
14, 25601, Control_c, 10, 7, 73
14, 25602, Control_c, 10, 7, 73
14, 25603, Control_c, 10, 7, 72
14, 25604, Control_c, 10, 7, 72
14, 25605, Control_c, 10, 7, 72
14, 25606, Control_c, 10, 7, 71
14, 25607, Control_c, 10, 7, 71
14, 25608, Control_c, 10, 7, 71
14, 25609, Control_c, 10, 7, 70
14, 25610, Control_c, 10, 7, 70
14, 25611, Control_c, 10, 7, 70
14, 25612, Control_c, 10, 7, 69
14, 25613, Control_c, 10, 7, 69
14, 25614, Control_c, 10, 7, 69
14, 25615, Control_c, 10, 7, 68
14, 25616, Control_c, 10, 7, 68
14, 25617, Control_c, 10, 7, 68
14, 25618, Control_c, 10, 7, 67
14, 25619, Control_c, 10, 7, 67
14, 25620, Control_c, 10, 7, 67
14, 25621, Control_c, 10, 7, 66
14, 25622, Control_c, 10, 7, 66
14, 25623, Control_c, 10, 7, 66
14, 25624, Control_c, 10, 7, 65
14, 25625, Control_c, 10, 7, 65
14, 25626, Control_c, 10, 7, 65
14, 25627, Control_c, 10, 7, 64
14, 25628, Control_c, 10, 7, 64
14, 25629, Control_c, 10, 7, 64
14, 25630, Control_c, 10, 7, 63
14, 25631, Control_c, 10, 7, 63
14, 25632, Note_off_c, 10, 27, 64
14, 25632, Note_off_c, 10, 51, 64
14, 25632, Note_off_c, 10, 39, 64
14, 25632, Control_c, 10, 7, 64
14, 25632, Note_on_c, 10, 39, 127
14, 25632, Note_on_c, 10, 51, 127
14, 25632, Note_on_c, 10, 27, 127
14, 25633, Control_c, 10, 7, 64
14, 25634, Control_c, 10, 7, 65
14, 25635, Control_c, 10, 7, 65
14, 25636, Control_c, 10, 7, 66
14, 25637, Control_c, 10, 7, 66
14, 25638, Control_c, 10, 7, 67
14, 25639, Control_c, 10, 7, 67
14, 25640, Control_c, 10, 7, 68
14, 25641, Control_c, 10, 7, 68
14, 25642, Control_c, 10, 7, 69
14, 25643, Control_c, 10, 7, 69
14, 25644, Control_c, 10, 7, 70
14, 25645, Control_c, 10, 7, 70
14, 25646, Control_c, 10, 7, 71
14, 25647, Control_c, 10, 7, 71
14, 25648, Control_c, 10, 7, 72
14, 25649, Control_c, 10, 7, 72
14, 25650, Control_c, 10, 7, 73
14, 25651, Control_c, 10, 7, 73
14, 25652, Control_c, 10, 7, 74
14, 25653, Control_c, 10, 7, 74
14, 25654, Control_c, 10, 7, 75
14, 25655, Control_c, 10, 7, 75
14, 25656, Control_c, 10, 7, 76
14, 25657, Control_c, 10, 7, 76
14, 25658, Control_c, 10, 7, 77
14, 25659, Control_c, 10, 7, 77
14, 25660, Control_c, 10, 7, 78
14, 25661, Control_c, 10, 7, 78
14, 25662, Control_c, 10, 7, 79
14, 25663, Control_c, 10, 7, 79
14, 25664, Control_c, 10, 7, 80
14, 25665, Control_c, 10, 7, 80
14, 25666, Control_c, 10, 7, 81
14, 25667, Control_c, 10, 7, 81
14, 25668, Control_c, 10, 7, 82
14, 25669, Control_c, 10, 7, 82
14, 25670, Control_c, 10, 7, 83
14, 25671, Control_c, 10, 7, 83
14, 25672, Control_c, 10, 7, 84
14, 25673, Control_c, 10, 7, 84
14, 25674, Control_c, 10, 7, 85
14, 25675, Control_c, 10, 7, 85
14, 25676, Control_c, 10, 7, 86
14, 25677, Control_c, 10, 7, 86
14, 25678, Control_c, 10, 7, 87
14, 25679, Control_c, 10, 7, 87
14, 25680, Control_c, 10, 7, 88
14, 25681, Control_c, 10, 7, 88
14, 25682, Control_c, 10, 7, 89
14, 25683, Control_c, 10, 7, 89
14, 25684, Control_c, 10, 7, 90
14, 25685, Control_c, 10, 7, 90
14, 25686, Control_c, 10, 7, 91
14, 25687, Control_c, 10, 7, 91
14, 25688, Control_c, 10, 7, 92
14, 25689, Control_c, 10, 7, 92
14, 25690, Control_c, 10, 7, 93
14, 25691, Control_c, 10, 7, 93
14, 25692, Control_c, 10, 7, 94
14, 25693, Control_c, 10, 7, 94
14, 25694, Control_c, 10, 7, 95
14, 25695, Control_c, 10, 7, 95
14, 25696, Control_c, 10, 7, 96
14, 25697, Control_c, 10, 7, 96
14, 25698, Control_c, 10, 7, 97
14, 25699, Control_c, 10, 7, 97
14, 25700, Control_c, 10, 7, 98
14, 25701, Control_c, 10, 7, 98
14, 25702, Control_c, 10, 7, 99
14, 25703, Control_c, 10, 7, 99
14, 25704, Control_c, 10, 7, 100
14, 25705, Control_c, 10, 7, 100
14, 25706, Control_c, 10, 7, 101
14, 25707, Control_c, 10, 7, 101
14, 25708, Control_c, 10, 7, 102
14, 25709, Control_c, 10, 7, 102
14, 25710, Control_c, 10, 7, 103
14, 25711, Control_c, 10, 7, 103
14, 25712, Control_c, 10, 7, 104
14, 25713, Control_c, 10, 7, 104
14, 25714, Control_c, 10, 7, 105
14, 25715, Control_c, 10, 7, 105
14, 25716, Control_c, 10, 7, 106
14, 25717, Control_c, 10, 7, 106
14, 25718, Control_c, 10, 7, 107
14, 25719, Control_c, 10, 7, 107
14, 25720, Control_c, 10, 7, 108
14, 25721, Control_c, 10, 7, 108
14, 25722, Control_c, 10, 7, 109
14, 25723, Control_c, 10, 7, 109
14, 25724, Control_c, 10, 7, 110
14, 25725, Control_c, 10, 7, 110
14, 25726, Control_c, 10, 7, 111
14, 25727, Control_c, 10, 7, 111
14, 25728, Note_off_c, 10, 27, 64
14, 25728, Note_off_c, 10, 51, 64
14, 25728, Note_off_c, 10, 39, 64
14, 25728, Control_c, 10, 7, 112
14, 25728, Note_on_c, 10, 39, 127
14, 25728, Note_on_c, 10, 51, 127
14, 25728, Note_on_c, 10, 27, 127
14, 25729, Control_c, 10, 7, 64
14, 25730, Control_c, 10, 7, 65
14, 25731, Control_c, 10, 7, 66
14, 25732, Control_c, 10, 7, 67
14, 25733, Control_c, 10, 7, 68
14, 25734, Control_c, 10, 7, 69
14, 25735, Control_c, 10, 7, 69
14, 25736, Control_c, 10, 7, 70
14, 25737, Control_c, 10, 7, 71
14, 25738, Control_c, 10, 7, 72
14, 25739, Control_c, 10, 7, 73
14, 25740, Control_c, 10, 7, 74
14, 25741, Control_c, 10, 7, 75
14, 25742, Control_c, 10, 7, 76
14, 25743, Control_c, 10, 7, 77
14, 25744, Control_c, 10, 7, 78
14, 25745, Control_c, 10, 7, 79
14, 25746, Control_c, 10, 7, 80
14, 25747, Control_c, 10, 7, 81
14, 25748, Control_c, 10, 7, 82
14, 25749, Control_c, 10, 7, 83
14, 25750, Control_c, 10, 7, 85
14, 25751, Control_c, 10, 7, 86
14, 25752, Control_c, 10, 7, 87
14, 25753, Control_c, 10, 7, 88
14, 25754, Control_c, 10, 7, 89
14, 25755, Control_c, 10, 7, 90
14, 25756, Control_c, 10, 7, 91
14, 25757, Control_c, 10, 7, 92
14, 25758, Control_c, 10, 7, 93
14, 25759, Control_c, 10, 7, 94
14, 25760, Control_c, 10, 7, 95
14, 25761, Control_c, 10, 7, 96
14, 25762, Control_c, 10, 7, 97
14, 25763, Control_c, 10, 7, 98
14, 25764, Control_c, 10, 7, 99
14, 25765, Control_c, 10, 7, 100
14, 25766, Control_c, 10, 7, 102
14, 25767, Control_c, 10, 7, 103
14, 25768, Control_c, 10, 7, 104
14, 25769, Control_c, 10, 7, 105
14, 25770, Control_c, 10, 7, 106
14, 25771, Control_c, 10, 7, 107
14, 25772, Control_c, 10, 7, 108
14, 25773, Control_c, 10, 7, 109
14, 25774, Control_c, 10, 7, 110
14, 25775, Control_c, 10, 7, 111
14, 25776, Note_off_c, 10, 27, 64
14, 25776, Note_off_c, 10, 51, 64
14, 25776, Note_off_c, 10, 39, 64
14, 25776, Control_c, 10, 7, 65
14, 25776, Note_on_c, 10, 39, 127
14, 25776, Note_on_c, 10, 51, 127
14, 25776, Note_on_c, 10, 27, 127
14, 25777, Control_c, 10, 7, 66
14, 25778, Control_c, 10, 7, 67
14, 25779, Control_c, 10, 7, 67
14, 25780, Control_c, 10, 7, 68
14, 25781, Control_c, 10, 7, 69
14, 25782, Control_c, 10, 7, 70
14, 25783, Control_c, 10, 7, 71
14, 25784, Control_c, 10, 7, 72
14, 25785, Control_c, 10, 7, 73
14, 25786, Control_c, 10, 7, 74
14, 25787, Control_c, 10, 7, 75
14, 25788, Control_c, 10, 7, 76
14, 25789, Control_c, 10, 7, 77
14, 25790, Control_c, 10, 7, 78
14, 25791, Control_c, 10, 7, 79
14, 25792, Control_c, 10, 7, 80
14, 25793, Control_c, 10, 7, 81
14, 25794, Control_c, 10, 7, 82
14, 25795, Control_c, 10, 7, 83
14, 25796, Control_c, 10, 7, 84
14, 25797, Control_c, 10, 7, 85
14, 25798, Control_c, 10, 7, 86
14, 25799, Control_c, 10, 7, 87
14, 25800, Control_c, 10, 7, 88
14, 25801, Control_c, 10, 7, 89
14, 25802, Control_c, 10, 7, 89
14, 25803, Control_c, 10, 7, 90
14, 25804, Control_c, 10, 7, 91
14, 25805, Control_c, 10, 7, 92
14, 25806, Control_c, 10, 7, 93
14, 25807, Control_c, 10, 7, 94
14, 25808, Control_c, 10, 7, 95
14, 25809, Control_c, 10, 7, 96
14, 25810, Control_c, 10, 7, 97
14, 25811, Control_c, 10, 7, 98
14, 25812, Control_c, 10, 7, 99
14, 25813, Control_c, 10, 7, 100
14, 25814, Control_c, 10, 7, 101
14, 25815, Control_c, 10, 7, 102
14, 25816, Control_c, 10, 7, 103
14, 25817, Control_c, 10, 7, 104
14, 25818, Control_c, 10, 7, 105
14, 25819, Control_c, 10, 7, 106
14, 25820, Control_c, 10, 7, 107
14, 25821, Control_c, 10, 7, 108
14, 25822, Control_c, 10, 7, 109
14, 25823, Control_c, 10, 7, 110
14, 25824, Note_off_c, 10, 27, 64
14, 25824, Note_off_c, 10, 51, 64
14, 25824, Note_off_c, 10, 39, 64
14, 25824, Control_c, 10, 7, 64
14, 25824, Note_on_c, 10, 39, 127
14, 25824, Note_on_c, 10, 51, 127
14, 25824, Note_on_c, 10, 27, 127
14, 25825, Control_c, 10, 7, 65
14, 25826, Control_c, 10, 7, 65
14, 25827, Control_c, 10, 7, 66
14, 25828, Control_c, 10, 7, 67
14, 25829, Control_c, 10, 7, 68
14, 25830, Control_c, 10, 7, 69
14, 25831, Control_c, 10, 7, 70
14, 25832, Control_c, 10, 7, 70
14, 25833, Control_c, 10, 7, 71
14, 25834, Control_c, 10, 7, 72
14, 25835, Control_c, 10, 7, 73
14, 25836, Control_c, 10, 7, 74
14, 25837, Control_c, 10, 7, 75
14, 25838, Control_c, 10, 7, 76
14, 25839, Control_c, 10, 7, 77
14, 25840, Control_c, 10, 7, 78
14, 25841, Control_c, 10, 7, 79
14, 25842, Control_c, 10, 7, 80
14, 25843, Control_c, 10, 7, 81
14, 25844, Control_c, 10, 7, 82
14, 25845, Control_c, 10, 7, 83
14, 25846, Control_c, 10, 7, 84
14, 25847, Control_c, 10, 7, 85
14, 25848, Control_c, 10, 7, 86
14, 25849, Control_c, 10, 7, 88
14, 25850, Control_c, 10, 7, 89
14, 25851, Control_c, 10, 7, 90
14, 25852, Control_c, 10, 7, 91
14, 25853, Control_c, 10, 7, 92
14, 25854, Control_c, 10, 7, 93
14, 25855, Control_c, 10, 7, 94
14, 25856, Control_c, 10, 7, 95
14, 25857, Control_c, 10, 7, 96
14, 25858, Control_c, 10, 7, 97
14, 25859, Control_c, 10, 7, 98
14, 25860, Control_c, 10, 7, 99
14, 25861, Control_c, 10, 7, 100
14, 25862, Control_c, 10, 7, 101
14, 25863, Control_c, 10, 7, 102
14, 25864, Control_c, 10, 7, 103
14, 25865, Control_c, 10, 7, 104
14, 25866, Control_c, 10, 7, 105
14, 25867, Control_c, 10, 7, 106
14, 25868, Control_c, 10, 7, 107
14, 25869, Control_c, 10, 7, 108
14, 25870, Control_c, 10, 7, 109
14, 25871, Control_c, 10, 7, 110
14, 25872, Note_off_c, 10, 27, 64
14, 25872, Note_off_c, 10, 51, 64
14, 25872, Note_off_c, 10, 39, 64
14, 25872, Control_c, 10, 7, 66
14, 25872, Note_on_c, 10, 39, 127
14, 25872, Note_on_c, 10, 51, 127
14, 25872, Note_on_c, 10, 27, 127
14, 25873, Control_c, 10, 7, 67
14, 25874, Control_c, 10, 7, 68
14, 25875, Control_c, 10, 7, 69
14, 25876, Control_c, 10, 7, 69
14, 25877, Control_c, 10, 7, 70
14, 25878, Control_c, 10, 7, 71
14, 25879, Control_c, 10, 7, 72
14, 25880, Control_c, 10, 7, 73
14, 25881, Control_c, 10, 7, 74
14, 25882, Control_c, 10, 7, 75
14, 25883, Control_c, 10, 7, 76
14, 25884, Control_c, 10, 7, 77
14, 25885, Control_c, 10, 7, 77
14, 25886, Control_c, 10, 7, 78
14, 25887, Control_c, 10, 7, 79
14, 25888, Control_c, 10, 7, 80
14, 25889, Control_c, 10, 7, 81
14, 25890, Control_c, 10, 7, 82
14, 25891, Control_c, 10, 7, 83
14, 25892, Control_c, 10, 7, 84
14, 25893, Control_c, 10, 7, 84
14, 25894, Control_c, 10, 7, 85
14, 25895, Control_c, 10, 7, 86
14, 25896, Control_c, 10, 7, 87
14, 25897, Control_c, 10, 7, 88
14, 25898, Control_c, 10, 7, 89
14, 25899, Control_c, 10, 7, 90
14, 25900, Control_c, 10, 7, 91
14, 25901, Control_c, 10, 7, 91
14, 25902, Control_c, 10, 7, 92
14, 25903, Control_c, 10, 7, 93
14, 25904, Control_c, 10, 7, 94
14, 25905, Control_c, 10, 7, 95
14, 25906, Control_c, 10, 7, 96
14, 25907, Control_c, 10, 7, 97
14, 25908, Control_c, 10, 7, 98
14, 25909, Control_c, 10, 7, 98
14, 25910, Control_c, 10, 7, 99
14, 25911, Control_c, 10, 7, 100
14, 25912, Control_c, 10, 7, 101
14, 25913, Control_c, 10, 7, 102
14, 25914, Control_c, 10, 7, 103
14, 25915, Control_c, 10, 7, 104
14, 25916, Control_c, 10, 7, 104
14, 25917, Control_c, 10, 7, 105
14, 25918, Control_c, 10, 7, 106
14, 25919, Control_c, 10, 7, 107
14, 25920, Note_off_c, 10, 27, 64
14, 25920, Note_off_c, 10, 51, 64
14, 25920, Note_off_c, 10, 39, 64
14, 25920, Control_c, 10, 7, 67
14, 25920, Note_on_c, 10, 39, 127
14, 25920, Note_on_c, 10, 51, 127
14, 25920, Note_on_c, 10, 27, 127
14, 25921, Control_c, 10, 7, 68
14, 25922, Control_c, 10, 7, 69
14, 25923, Control_c, 10, 7, 70
14, 25924, Control_c, 10, 7, 71
14, 25925, Control_c, 10, 7, 72
14, 25926, Control_c, 10, 7, 73
14, 25927, Control_c, 10, 7, 74
14, 25928, Control_c, 10, 7, 75
14, 25929, Control_c, 10, 7, 75
14, 25930, Control_c, 10, 7, 76
14, 25931, Control_c, 10, 7, 77
14, 25932, Control_c, 10, 7, 78
14, 25933, Control_c, 10, 7, 79
14, 25934, Control_c, 10, 7, 80
14, 25935, Control_c, 10, 7, 81
14, 25936, Control_c, 10, 7, 82
14, 25937, Control_c, 10, 7, 83
14, 25938, Control_c, 10, 7, 84
14, 25939, Control_c, 10, 7, 85
14, 25940, Control_c, 10, 7, 86
14, 25941, Control_c, 10, 7, 87
14, 25942, Control_c, 10, 7, 88
14, 25943, Control_c, 10, 7, 89
14, 25944, Control_c, 10, 7, 90
14, 25945, Control_c, 10, 7, 90
14, 25946, Control_c, 10, 7, 91
14, 25947, Control_c, 10, 7, 92
14, 25948, Control_c, 10, 7, 93
14, 25949, Control_c, 10, 7, 94
14, 25950, Control_c, 10, 7, 95
14, 25951, Control_c, 10, 7, 96
14, 25952, Control_c, 10, 7, 97
14, 25953, Control_c, 10, 7, 98
14, 25954, Control_c, 10, 7, 99
14, 25955, Control_c, 10, 7, 100
14, 25956, Control_c, 10, 7, 101
14, 25957, Control_c, 10, 7, 102
14, 25958, Control_c, 10, 7, 103
14, 25959, Control_c, 10, 7, 104
14, 25960, Control_c, 10, 7, 105
14, 25961, Control_c, 10, 7, 106
14, 25962, Control_c, 10, 7, 106
14, 25963, Control_c, 10, 7, 107
14, 25964, Control_c, 10, 7, 108
14, 25965, Control_c, 10, 7, 109
14, 25966, Control_c, 10, 7, 110
14, 25967, Control_c, 10, 7, 111
14, 25968, Note_off_c, 10, 27, 64
14, 25968, Note_off_c, 10, 51, 64
14, 25968, Note_off_c, 10, 39, 64
14, 25968, Control_c, 10, 7, 61
14, 25968, Note_on_c, 10, 39, 127
14, 25968, Note_on_c, 10, 51, 127
14, 25968, Note_on_c, 10, 27, 127
14, 25969, Control_c, 10, 7, 62
14, 25970, Control_c, 10, 7, 63
14, 25971, Control_c, 10, 7, 64
14, 25972, Control_c, 10, 7, 65
14, 25973, Control_c, 10, 7, 66
14, 25974, Control_c, 10, 7, 67
14, 25975, Control_c, 10, 7, 68
14, 25976, Control_c, 10, 7, 70
14, 25977, Control_c, 10, 7, 71
14, 25978, Control_c, 10, 7, 72
14, 25979, Control_c, 10, 7, 73
14, 25980, Control_c, 10, 7, 74
14, 25981, Control_c, 10, 7, 75
14, 25982, Control_c, 10, 7, 76
14, 25983, Control_c, 10, 7, 78
14, 25984, Control_c, 10, 7, 79
14, 25985, Control_c, 10, 7, 80
14, 25986, Control_c, 10, 7, 81
14, 25987, Control_c, 10, 7, 82
14, 25988, Control_c, 10, 7, 83
14, 25989, Control_c, 10, 7, 84
14, 25990, Control_c, 10, 7, 85
14, 25991, Control_c, 10, 7, 87
14, 25992, Control_c, 10, 7, 88
14, 25993, Control_c, 10, 7, 89
14, 25994, Control_c, 10, 7, 90
14, 25995, Control_c, 10, 7, 91
14, 25996, Control_c, 10, 7, 92
14, 25997, Control_c, 10, 7, 93
14, 25998, Control_c, 10, 7, 95
14, 25999, Control_c, 10, 7, 96
14, 26000, Control_c, 10, 7, 97
14, 26001, Control_c, 10, 7, 98
14, 26002, Control_c, 10, 7, 99
14, 26003, Control_c, 10, 7, 100
14, 26004, Control_c, 10, 7, 101
14, 26005, Control_c, 10, 7, 102
14, 26006, Control_c, 10, 7, 104
14, 26007, Control_c, 10, 7, 105
14, 26008, Control_c, 10, 7, 106
14, 26009, Control_c, 10, 7, 107
14, 26010, Control_c, 10, 7, 108
14, 26011, Control_c, 10, 7, 110
14, 26012, Control_c, 10, 7, 111
14, 26013, Control_c, 10, 7, 112
14, 26014, Control_c, 10, 7, 113
14, 26015, Control_c, 10, 7, 114
14, 26016, Note_off_c, 10, 27, 64
14, 26016, Note_off_c, 10, 51, 64
14, 26016, Note_off_c, 10, 39, 64
14, 26016, Control_c, 10, 7, 65
14, 26016, Note_on_c, 10, 39, 127
14, 26016, Note_on_c, 10, 51, 127
14, 26016, Note_on_c, 10, 27, 127
14, 26017, Control_c, 10, 7, 66
14, 26018, Control_c, 10, 7, 67
14, 26019, Control_c, 10, 7, 68
14, 26020, Control_c, 10, 7, 70
14, 26021, Control_c, 10, 7, 71
14, 26022, Control_c, 10, 7, 72
14, 26023, Control_c, 10, 7, 73
14, 26024, Control_c, 10, 7, 74
14, 26025, Control_c, 10, 7, 75
14, 26026, Control_c, 10, 7, 76
14, 26027, Control_c, 10, 7, 77
14, 26028, Control_c, 10, 7, 78
14, 26029, Control_c, 10, 7, 79
14, 26030, Control_c, 10, 7, 80
14, 26031, Control_c, 10, 7, 81
14, 26032, Control_c, 10, 7, 82
14, 26033, Control_c, 10, 7, 83
14, 26034, Control_c, 10, 7, 84
14, 26035, Control_c, 10, 7, 85
14, 26036, Control_c, 10, 7, 86
14, 26037, Control_c, 10, 7, 88
14, 26038, Control_c, 10, 7, 89
14, 26039, Control_c, 10, 7, 90
14, 26040, Control_c, 10, 7, 91
14, 26041, Control_c, 10, 7, 92
14, 26042, Control_c, 10, 7, 93
14, 26043, Control_c, 10, 7, 94
14, 26044, Control_c, 10, 7, 95
14, 26045, Control_c, 10, 7, 96
14, 26046, Control_c, 10, 7, 97
14, 26047, Control_c, 10, 7, 98
14, 26048, Control_c, 10, 7, 99
14, 26049, Control_c, 10, 7, 100
14, 26050, Control_c, 10, 7, 101
14, 26051, Control_c, 10, 7, 102
14, 26052, Control_c, 10, 7, 103
14, 26053, Control_c, 10, 7, 105
14, 26054, Control_c, 10, 7, 106
14, 26055, Control_c, 10, 7, 107
14, 26056, Control_c, 10, 7, 108
14, 26057, Control_c, 10, 7, 109
14, 26058, Control_c, 10, 7, 109
14, 26059, Control_c, 10, 7, 110
14, 26060, Control_c, 10, 7, 112
14, 26061, Control_c, 10, 7, 113
14, 26062, Control_c, 10, 7, 114
14, 26063, Control_c, 10, 7, 115
14, 26064, Note_off_c, 10, 27, 64
14, 26064, Note_off_c, 10, 51, 64
14, 26064, Note_off_c, 10, 39, 64
14, 26064, Control_c, 10, 7, 67
14, 26064, Note_on_c, 10, 39, 127
14, 26064, Note_on_c, 10, 51, 127
14, 26064, Note_on_c, 10, 27, 127
14, 26065, Control_c, 10, 7, 68
14, 26066, Control_c, 10, 7, 69
14, 26067, Control_c, 10, 7, 70
14, 26068, Control_c, 10, 7, 71
14, 26069, Control_c, 10, 7, 71
14, 26070, Control_c, 10, 7, 72
14, 26071, Control_c, 10, 7, 73
14, 26072, Control_c, 10, 7, 74
14, 26073, Control_c, 10, 7, 75
14, 26074, Control_c, 10, 7, 76
14, 26075, Control_c, 10, 7, 77
14, 26076, Control_c, 10, 7, 78
14, 26077, Control_c, 10, 7, 79
14, 26078, Control_c, 10, 7, 80
14, 26079, Control_c, 10, 7, 81
14, 26080, Control_c, 10, 7, 82
14, 26081, Control_c, 10, 7, 83
14, 26082, Control_c, 10, 7, 84
14, 26083, Control_c, 10, 7, 85
14, 26084, Control_c, 10, 7, 86
14, 26085, Control_c, 10, 7, 87
14, 26086, Control_c, 10, 7, 88
14, 26087, Control_c, 10, 7, 89
14, 26088, Control_c, 10, 7, 90
14, 26089, Control_c, 10, 7, 91
14, 26090, Control_c, 10, 7, 92
14, 26091, Control_c, 10, 7, 93
14, 26092, Control_c, 10, 7, 94
14, 26093, Control_c, 10, 7, 95
14, 26094, Control_c, 10, 7, 96
14, 26095, Control_c, 10, 7, 97
14, 26096, Control_c, 10, 7, 98
14, 26097, Control_c, 10, 7, 99
14, 26098, Control_c, 10, 7, 100
14, 26099, Control_c, 10, 7, 101
14, 26100, Control_c, 10, 7, 102
14, 26101, Control_c, 10, 7, 103
14, 26102, Control_c, 10, 7, 104
14, 26103, Control_c, 10, 7, 104
14, 26104, Control_c, 10, 7, 105
14, 26105, Control_c, 10, 7, 106
14, 26106, Control_c, 10, 7, 107
14, 26107, Control_c, 10, 7, 108
14, 26108, Control_c, 10, 7, 109
14, 26109, Control_c, 10, 7, 110
14, 26110, Control_c, 10, 7, 111
14, 26111, Control_c, 10, 7, 112
14, 26112, Note_off_c, 10, 27, 64
14, 26112, Note_off_c, 10, 51, 64
14, 26112, Note_off_c, 10, 39, 64
14, 26112, Control_c, 10, 7, 50
14, 26112, Note_on_c, 10, 41, 127
14, 26112, Note_on_c, 10, 29, 127
14, 26112, Note_on_c, 10, 53, 127
14, 26114, Control_c, 10, 7, 50
14, 26115, Control_c, 10, 7, 51
14, 26116, Control_c, 10, 7, 51
14, 26117, Control_c, 10, 7, 52
14, 26118, Control_c, 10, 7, 52
14, 26119, Control_c, 10, 7, 52
14, 26120, Control_c, 10, 7, 53
14, 26121, Control_c, 10, 7, 53
14, 26122, Control_c, 10, 7, 54
14, 26123, Control_c, 10, 7, 54
14, 26124, Control_c, 10, 7, 54
14, 26125, Control_c, 10, 7, 55
14, 26126, Control_c, 10, 7, 55
14, 26127, Control_c, 10, 7, 55
14, 26128, Control_c, 10, 7, 56
14, 26129, Control_c, 10, 7, 56
14, 26130, Control_c, 10, 7, 57
14, 26131, Control_c, 10, 7, 57
14, 26132, Control_c, 10, 7, 57
14, 26133, Control_c, 10, 7, 58
14, 26134, Control_c, 10, 7, 58
14, 26135, Control_c, 10, 7, 59
14, 26136, Control_c, 10, 7, 59
14, 26137, Control_c, 10, 7, 59
14, 26138, Control_c, 10, 7, 60
14, 26139, Control_c, 10, 7, 60
14, 26140, Control_c, 10, 7, 61
14, 26141, Control_c, 10, 7, 61
14, 26142, Control_c, 10, 7, 61
14, 26143, Control_c, 10, 7, 62
14, 26144, Control_c, 10, 7, 62
14, 26145, Control_c, 10, 7, 62
14, 26146, Control_c, 10, 7, 63
14, 26147, Control_c, 10, 7, 63
14, 26148, Control_c, 10, 7, 64
14, 26149, Control_c, 10, 7, 64
14, 26150, Control_c, 10, 7, 64
14, 26151, Control_c, 10, 7, 65
14, 26152, Control_c, 10, 7, 65
14, 26153, Control_c, 10, 7, 66
14, 26154, Control_c, 10, 7, 66
14, 26155, Control_c, 10, 7, 66
14, 26156, Control_c, 10, 7, 67
14, 26157, Control_c, 10, 7, 67
14, 26158, Control_c, 10, 7, 68
14, 26159, Control_c, 10, 7, 68
14, 26160, Control_c, 10, 7, 68
14, 26161, Control_c, 10, 7, 69
14, 26162, Control_c, 10, 7, 69
14, 26163, Control_c, 10, 7, 69
14, 26164, Control_c, 10, 7, 70
14, 26165, Control_c, 10, 7, 70
14, 26166, Control_c, 10, 7, 71
14, 26167, Control_c, 10, 7, 71
14, 26168, Control_c, 10, 7, 71
14, 26169, Control_c, 10, 7, 72
14, 26170, Control_c, 10, 7, 72
14, 26171, Control_c, 10, 7, 73
14, 26172, Control_c, 10, 7, 73
14, 26173, Control_c, 10, 7, 73
14, 26174, Control_c, 10, 7, 74
14, 26175, Control_c, 10, 7, 74
14, 26176, Control_c, 10, 7, 75
14, 26177, Control_c, 10, 7, 75
14, 26178, Control_c, 10, 7, 75
14, 26179, Control_c, 10, 7, 76
14, 26180, Control_c, 10, 7, 76
14, 26181, Control_c, 10, 7, 76
14, 26182, Control_c, 10, 7, 77
14, 26183, Control_c, 10, 7, 77
14, 26184, Control_c, 10, 7, 78
14, 26185, Control_c, 10, 7, 78
14, 26186, Control_c, 10, 7, 78
14, 26187, Control_c, 10, 7, 79
14, 26188, Control_c, 10, 7, 79
14, 26189, Control_c, 10, 7, 80
14, 26190, Control_c, 10, 7, 80
14, 26191, Control_c, 10, 7, 80
14, 26192, Control_c, 10, 7, 81
14, 26193, Control_c, 10, 7, 81
14, 26194, Control_c, 10, 7, 82
14, 26195, Control_c, 10, 7, 82
14, 26196, Control_c, 10, 7, 82
14, 26197, Control_c, 10, 7, 83
14, 26198, Control_c, 10, 7, 83
14, 26199, Control_c, 10, 7, 83
14, 26200, Control_c, 10, 7, 84
14, 26201, Control_c, 10, 7, 84
14, 26202, Control_c, 10, 7, 85
14, 26203, Control_c, 10, 7, 85
14, 26204, Control_c, 10, 7, 85
14, 26205, Control_c, 10, 7, 86
14, 26206, Control_c, 10, 7, 86
14, 26207, Control_c, 10, 7, 87
14, 26208, Control_c, 10, 7, 87
14, 26209, Control_c, 10, 7, 87
14, 26210, Control_c, 10, 7, 88
14, 26211, Control_c, 10, 7, 88
14, 26212, Control_c, 10, 7, 89
14, 26213, Control_c, 10, 7, 89
14, 26214, Control_c, 10, 7, 89
14, 26215, Control_c, 10, 7, 90
14, 26216, Control_c, 10, 7, 90
14, 26217, Control_c, 10, 7, 90
14, 26218, Control_c, 10, 7, 91
14, 26219, Control_c, 10, 7, 91
14, 26220, Control_c, 10, 7, 92
14, 26221, Control_c, 10, 7, 92
14, 26222, Control_c, 10, 7, 92
14, 26223, Control_c, 10, 7, 93
14, 26224, Control_c, 10, 7, 93
14, 26225, Control_c, 10, 7, 94
14, 26226, Control_c, 10, 7, 94
14, 26227, Control_c, 10, 7, 94
14, 26228, Control_c, 10, 7, 95
14, 26229, Control_c, 10, 7, 95
14, 26230, Control_c, 10, 7, 96
14, 26231, Control_c, 10, 7, 96
14, 26232, Control_c, 10, 7, 96
14, 26233, Control_c, 10, 7, 97
14, 26234, Control_c, 10, 7, 97
14, 26235, Control_c, 10, 7, 97
14, 26236, Control_c, 10, 7, 98
14, 26237, Control_c, 10, 7, 98
14, 26238, Control_c, 10, 7, 99
14, 26239, Control_c, 10, 7, 99
14, 26240, Control_c, 10, 7, 99
14, 26241, Control_c, 10, 7, 100
14, 26242, Control_c, 10, 7, 100
14, 26243, Control_c, 10, 7, 101
14, 26244, Control_c, 10, 7, 101
14, 26245, Control_c, 10, 7, 101
14, 26246, Control_c, 10, 7, 102
14, 26247, Control_c, 10, 7, 102
14, 26248, Control_c, 10, 7, 103
14, 26249, Control_c, 10, 7, 103
14, 26250, Control_c, 10, 7, 103
14, 26251, Control_c, 10, 7, 104
14, 26252, Control_c, 10, 7, 104
14, 26253, Control_c, 10, 7, 104
14, 26254, Control_c, 10, 7, 105
14, 26255, Control_c, 10, 7, 105
14, 26256, Note_off_c, 10, 53, 64
14, 26256, Note_off_c, 10, 29, 64
14, 26256, Note_off_c, 10, 41, 64
14, 26256, Control_c, 10, 7, 54
14, 26256, Note_on_c, 10, 43, 127
14, 26256, Note_on_c, 10, 31, 127
14, 26256, Note_on_c, 10, 55, 127
14, 26257, Control_c, 10, 7, 55
14, 26258, Control_c, 10, 7, 55
14, 26259, Control_c, 10, 7, 56
14, 26260, Control_c, 10, 7, 57
14, 26261, Control_c, 10, 7, 57
14, 26262, Control_c, 10, 7, 57
14, 26263, Control_c, 10, 7, 58
14, 26264, Control_c, 10, 7, 58
14, 26265, Control_c, 10, 7, 58
14, 26266, Control_c, 10, 7, 59
14, 26267, Control_c, 10, 7, 59
14, 26268, Control_c, 10, 7, 59
14, 26269, Control_c, 10, 7, 60
14, 26270, Control_c, 10, 7, 60
14, 26271, Control_c, 10, 7, 61
14, 26272, Control_c, 10, 7, 61
14, 26273, Control_c, 10, 7, 61
14, 26274, Control_c, 10, 7, 62
14, 26275, Control_c, 10, 7, 62
14, 26276, Control_c, 10, 7, 62
14, 26277, Control_c, 10, 7, 63
14, 26278, Control_c, 10, 7, 63
14, 26279, Control_c, 10, 7, 63
14, 26280, Control_c, 10, 7, 63
14, 26281, Control_c, 10, 7, 64
14, 26282, Control_c, 10, 7, 64
14, 26283, Control_c, 10, 7, 65
14, 26284, Control_c, 10, 7, 65
14, 26285, Control_c, 10, 7, 65
14, 26286, Control_c, 10, 7, 66
14, 26287, Control_c, 10, 7, 66
14, 26288, Control_c, 10, 7, 66
14, 26289, Control_c, 10, 7, 67
14, 26290, Control_c, 10, 7, 67
14, 26291, Control_c, 10, 7, 68
14, 26292, Control_c, 10, 7, 68
14, 26293, Control_c, 10, 7, 68
14, 26294, Control_c, 10, 7, 69
14, 26295, Control_c, 10, 7, 69
14, 26296, Control_c, 10, 7, 69
14, 26297, Control_c, 10, 7, 70
14, 26298, Control_c, 10, 7, 70
14, 26299, Control_c, 10, 7, 71
14, 26300, Control_c, 10, 7, 71
14, 26301, Control_c, 10, 7, 71
14, 26302, Control_c, 10, 7, 72
14, 26303, Control_c, 10, 7, 72
14, 26304, Control_c, 10, 7, 73
14, 26305, Control_c, 10, 7, 73
14, 26306, Control_c, 10, 7, 73
14, 26307, Control_c, 10, 7, 74
14, 26308, Control_c, 10, 7, 74
14, 26309, Control_c, 10, 7, 74
14, 26310, Control_c, 10, 7, 75
14, 26311, Control_c, 10, 7, 75
14, 26312, Control_c, 10, 7, 76
14, 26313, Control_c, 10, 7, 76
14, 26314, Control_c, 10, 7, 76
14, 26315, Control_c, 10, 7, 77
14, 26316, Control_c, 10, 7, 77
14, 26317, Control_c, 10, 7, 77
14, 26318, Control_c, 10, 7, 78
14, 26319, Control_c, 10, 7, 78
14, 26320, Control_c, 10, 7, 79
14, 26321, Control_c, 10, 7, 79
14, 26322, Control_c, 10, 7, 79
14, 26323, Control_c, 10, 7, 80
14, 26324, Control_c, 10, 7, 80
14, 26325, Control_c, 10, 7, 80
14, 26326, Control_c, 10, 7, 81
14, 26327, Control_c, 10, 7, 81
14, 26328, Control_c, 10, 7, 82
14, 26329, Control_c, 10, 7, 82
14, 26330, Control_c, 10, 7, 82
14, 26331, Control_c, 10, 7, 83
14, 26332, Control_c, 10, 7, 83
14, 26333, Control_c, 10, 7, 84
14, 26334, Control_c, 10, 7, 84
14, 26335, Control_c, 10, 7, 84
14, 26336, Control_c, 10, 7, 85
14, 26337, Control_c, 10, 7, 85
14, 26338, Control_c, 10, 7, 85
14, 26339, Control_c, 10, 7, 86
14, 26340, Control_c, 10, 7, 86
14, 26341, Control_c, 10, 7, 87
14, 26342, Control_c, 10, 7, 87
14, 26343, Control_c, 10, 7, 87
14, 26344, Control_c, 10, 7, 88
14, 26345, Control_c, 10, 7, 88
14, 26346, Control_c, 10, 7, 88
14, 26347, Control_c, 10, 7, 89
14, 26348, Control_c, 10, 7, 89
14, 26349, Control_c, 10, 7, 90
14, 26350, Control_c, 10, 7, 90
14, 26351, Control_c, 10, 7, 90
14, 26352, Control_c, 10, 7, 91
14, 26353, Control_c, 10, 7, 91
14, 26354, Control_c, 10, 7, 92
14, 26355, Control_c, 10, 7, 92
14, 26356, Control_c, 10, 7, 92
14, 26357, Control_c, 10, 7, 93
14, 26358, Control_c, 10, 7, 93
14, 26359, Control_c, 10, 7, 93
14, 26360, Control_c, 10, 7, 94
14, 26361, Control_c, 10, 7, 94
14, 26362, Control_c, 10, 7, 95
14, 26363, Control_c, 10, 7, 95
14, 26364, Control_c, 10, 7, 95
14, 26365, Control_c, 10, 7, 96
14, 26366, Control_c, 10, 7, 96
14, 26367, Control_c, 10, 7, 96
14, 26368, Control_c, 10, 7, 97
14, 26369, Control_c, 10, 7, 97
14, 26370, Control_c, 10, 7, 98
14, 26371, Control_c, 10, 7, 98
14, 26372, Control_c, 10, 7, 98
14, 26373, Control_c, 10, 7, 99
14, 26374, Control_c, 10, 7, 99
14, 26375, Control_c, 10, 7, 99
14, 26376, Control_c, 10, 7, 100
14, 26377, Control_c, 10, 7, 100
14, 26378, Control_c, 10, 7, 101
14, 26379, Control_c, 10, 7, 101
14, 26380, Control_c, 10, 7, 101
14, 26381, Control_c, 10, 7, 102
14, 26382, Control_c, 10, 7, 102
14, 26383, Control_c, 10, 7, 103
14, 26384, Control_c, 10, 7, 103
14, 26385, Control_c, 10, 7, 103
14, 26386, Control_c, 10, 7, 104
14, 26387, Control_c, 10, 7, 104
14, 26388, Control_c, 10, 7, 104
14, 26389, Control_c, 10, 7, 105
14, 26390, Control_c, 10, 7, 105
14, 26391, Control_c, 10, 7, 106
14, 26392, Control_c, 10, 7, 106
14, 26393, Control_c, 10, 7, 106
14, 26394, Control_c, 10, 7, 107
14, 26395, Control_c, 10, 7, 107
14, 26396, Control_c, 10, 7, 107
14, 26397, Control_c, 10, 7, 108
14, 26398, Control_c, 10, 7, 108
14, 26399, Control_c, 10, 7, 109
14, 26400, Note_off_c, 10, 55, 64
14, 26400, Note_off_c, 10, 31, 64
14, 26400, Note_off_c, 10, 43, 64
14, 26400, Control_c, 10, 7, 108
14, 26400, Note_on_c, 10, 39, 127
14, 26400, Note_on_c, 10, 27, 127
14, 26400, Note_on_c, 10, 51, 127
14, 26401, Control_c, 10, 7, 108
14, 26402, Control_c, 10, 7, 107
14, 26403, Control_c, 10, 7, 107
14, 26404, Control_c, 10, 7, 106
14, 26405, Control_c, 10, 7, 106
14, 26406, Control_c, 10, 7, 105
14, 26407, Control_c, 10, 7, 105
14, 26408, Control_c, 10, 7, 105
14, 26409, Control_c, 10, 7, 104
14, 26410, Control_c, 10, 7, 104
14, 26411, Control_c, 10, 7, 103
14, 26412, Control_c, 10, 7, 103
14, 26413, Control_c, 10, 7, 102
14, 26414, Control_c, 10, 7, 102
14, 26415, Control_c, 10, 7, 101
14, 26416, Control_c, 10, 7, 101
14, 26417, Control_c, 10, 7, 100
14, 26418, Control_c, 10, 7, 100
14, 26419, Control_c, 10, 7, 99
14, 26420, Control_c, 10, 7, 99
14, 26421, Control_c, 10, 7, 98
14, 26422, Control_c, 10, 7, 98
14, 26423, Control_c, 10, 7, 97
14, 26424, Control_c, 10, 7, 97
14, 26425, Control_c, 10, 7, 96
14, 26426, Control_c, 10, 7, 96
14, 26427, Control_c, 10, 7, 95
14, 26428, Control_c, 10, 7, 95
14, 26429, Control_c, 10, 7, 94
14, 26430, Control_c, 10, 7, 94
14, 26431, Control_c, 10, 7, 93
14, 26432, Control_c, 10, 7, 93
14, 26433, Control_c, 10, 7, 92
14, 26434, Control_c, 10, 7, 92
14, 26435, Control_c, 10, 7, 91
14, 26436, Control_c, 10, 7, 91
14, 26437, Control_c, 10, 7, 90
14, 26438, Control_c, 10, 7, 90
14, 26439, Control_c, 10, 7, 89
14, 26440, Control_c, 10, 7, 89
14, 26441, Control_c, 10, 7, 88
14, 26442, Control_c, 10, 7, 88
14, 26443, Control_c, 10, 7, 87
14, 26444, Control_c, 10, 7, 87
14, 26445, Control_c, 10, 7, 86
14, 26446, Control_c, 10, 7, 86
14, 26447, Control_c, 10, 7, 85
14, 26448, Control_c, 10, 7, 85
14, 26449, Control_c, 10, 7, 84
14, 26450, Control_c, 10, 7, 84
14, 26451, Control_c, 10, 7, 83
14, 26452, Control_c, 10, 7, 83
14, 26453, Control_c, 10, 7, 82
14, 26454, Control_c, 10, 7, 82
14, 26455, Control_c, 10, 7, 81
14, 26456, Control_c, 10, 7, 81
14, 26457, Control_c, 10, 7, 80
14, 26458, Control_c, 10, 7, 80
14, 26459, Control_c, 10, 7, 79
14, 26460, Control_c, 10, 7, 79
14, 26461, Control_c, 10, 7, 78
14, 26462, Control_c, 10, 7, 78
14, 26463, Control_c, 10, 7, 77
14, 26464, Control_c, 10, 7, 77
14, 26465, Control_c, 10, 7, 76
14, 26466, Control_c, 10, 7, 76
14, 26467, Control_c, 10, 7, 75
14, 26468, Control_c, 10, 7, 75
14, 26469, Control_c, 10, 7, 74
14, 26470, Control_c, 10, 7, 74
14, 26471, Control_c, 10, 7, 73
14, 26472, Control_c, 10, 7, 73
14, 26473, Control_c, 10, 7, 72
14, 26474, Control_c, 10, 7, 72
14, 26475, Control_c, 10, 7, 71
14, 26476, Control_c, 10, 7, 71
14, 26477, Control_c, 10, 7, 70
14, 26478, Control_c, 10, 7, 70
14, 26479, Control_c, 10, 7, 69
14, 26480, Control_c, 10, 7, 69
14, 26481, Control_c, 10, 7, 68
14, 26482, Control_c, 10, 7, 68
14, 26483, Control_c, 10, 7, 67
14, 26484, Control_c, 10, 7, 67
14, 26485, Control_c, 10, 7, 66
14, 26486, Control_c, 10, 7, 66
14, 26487, Control_c, 10, 7, 65
14, 26488, Control_c, 10, 7, 65
14, 26489, Control_c, 10, 7, 64
14, 26490, Control_c, 10, 7, 64
14, 26491, Control_c, 10, 7, 63
14, 26492, Control_c, 10, 7, 63
14, 26493, Control_c, 10, 7, 62
14, 26494, Control_c, 10, 7, 62
14, 26495, Control_c, 10, 7, 61
14, 26496, Control_c, 10, 7, 61
14, 26544, Note_off_c, 10, 39, 64
14, 26544, Note_off_c, 10, 51, 64
14, 26544, Note_off_c, 10, 27, 64
14, 26544, Control_c, 10, 7, 102
14, 26544, Note_on_c, 10, 39, 127
14, 26544, Note_on_c, 10, 27, 127
14, 26544, Note_on_c, 10, 51, 127
14, 26545, Control_c, 10, 7, 102
14, 26546, Control_c, 10, 7, 101
14, 26547, Control_c, 10, 7, 100
14, 26548, Control_c, 10, 7, 99
14, 26549, Control_c, 10, 7, 98
14, 26550, Control_c, 10, 7, 97
14, 26551, Control_c, 10, 7, 96
14, 26552, Control_c, 10, 7, 95
14, 26553, Control_c, 10, 7, 95
14, 26554, Control_c, 10, 7, 94
14, 26555, Control_c, 10, 7, 93
14, 26556, Control_c, 10, 7, 92
14, 26557, Control_c, 10, 7, 91
14, 26558, Control_c, 10, 7, 90
14, 26559, Control_c, 10, 7, 89
14, 26560, Control_c, 10, 7, 88
14, 26561, Control_c, 10, 7, 87
14, 26562, Control_c, 10, 7, 87
14, 26563, Control_c, 10, 7, 86
14, 26564, Control_c, 10, 7, 85
14, 26565, Control_c, 10, 7, 84
14, 26566, Control_c, 10, 7, 83
14, 26567, Control_c, 10, 7, 82
14, 26568, Control_c, 10, 7, 81
14, 26569, Control_c, 10, 7, 80
14, 26570, Control_c, 10, 7, 80
14, 26571, Control_c, 10, 7, 79
14, 26572, Control_c, 10, 7, 78
14, 26573, Control_c, 10, 7, 77
14, 26574, Control_c, 10, 7, 76
14, 26575, Control_c, 10, 7, 75
14, 26576, Control_c, 10, 7, 74
14, 26577, Control_c, 10, 7, 73
14, 26578, Control_c, 10, 7, 73
14, 26579, Control_c, 10, 7, 72
14, 26580, Control_c, 10, 7, 71
14, 26581, Control_c, 10, 7, 70
14, 26582, Control_c, 10, 7, 69
14, 26583, Control_c, 10, 7, 68
14, 26584, Control_c, 10, 7, 67
14, 26585, Control_c, 10, 7, 66
14, 26586, Control_c, 10, 7, 66
14, 26587, Control_c, 10, 7, 65
14, 26588, Control_c, 10, 7, 64
14, 26589, Control_c, 10, 7, 63
14, 26590, Control_c, 10, 7, 62
14, 26591, Control_c, 10, 7, 61
14, 26592, Note_off_c, 10, 51, 64
14, 26592, Note_off_c, 10, 27, 64
14, 26592, Note_off_c, 10, 39, 64
14, 26592, Control_c, 10, 7, 102
14, 26592, Note_on_c, 10, 39, 127
14, 26592, Note_on_c, 10, 27, 127
14, 26592, Note_on_c, 10, 51, 127
14, 26593, Control_c, 10, 7, 102
14, 26594, Control_c, 10, 7, 101
14, 26595, Control_c, 10, 7, 100
14, 26596, Control_c, 10, 7, 99
14, 26597, Control_c, 10, 7, 98
14, 26598, Control_c, 10, 7, 97
14, 26599, Control_c, 10, 7, 96
14, 26600, Control_c, 10, 7, 96
14, 26601, Control_c, 10, 7, 95
14, 26602, Control_c, 10, 7, 94
14, 26603, Control_c, 10, 7, 93
14, 26604, Control_c, 10, 7, 92
14, 26605, Control_c, 10, 7, 91
14, 26606, Control_c, 10, 7, 91
14, 26607, Control_c, 10, 7, 90
14, 26608, Control_c, 10, 7, 89
14, 26609, Control_c, 10, 7, 88
14, 26610, Control_c, 10, 7, 87
14, 26611, Control_c, 10, 7, 86
14, 26612, Control_c, 10, 7, 85
14, 26613, Control_c, 10, 7, 85
14, 26614, Control_c, 10, 7, 84
14, 26615, Control_c, 10, 7, 83
14, 26616, Control_c, 10, 7, 82
14, 26617, Control_c, 10, 7, 81
14, 26618, Control_c, 10, 7, 80
14, 26619, Control_c, 10, 7, 80
14, 26620, Control_c, 10, 7, 79
14, 26621, Control_c, 10, 7, 78
14, 26622, Control_c, 10, 7, 77
14, 26623, Control_c, 10, 7, 76
14, 26624, Control_c, 10, 7, 75
14, 26625, Control_c, 10, 7, 74
14, 26626, Control_c, 10, 7, 74
14, 26627, Control_c, 10, 7, 73
14, 26628, Control_c, 10, 7, 72
14, 26629, Control_c, 10, 7, 71
14, 26630, Control_c, 10, 7, 70
14, 26631, Control_c, 10, 7, 69
14, 26632, Control_c, 10, 7, 68
14, 26633, Control_c, 10, 7, 68
14, 26634, Control_c, 10, 7, 67
14, 26635, Control_c, 10, 7, 66
14, 26636, Control_c, 10, 7, 65
14, 26637, Control_c, 10, 7, 64
14, 26638, Control_c, 10, 7, 102
14, 26639, Control_c, 10, 7, 102
14, 26640, Note_off_c, 10, 39, 64
14, 26640, Note_off_c, 10, 51, 64
14, 26640, Note_off_c, 10, 27, 64
14, 26640, Control_c, 10, 7, 101
14, 26640, Note_on_c, 10, 39, 127
14, 26640, Note_on_c, 10, 27, 127
14, 26640, Note_on_c, 10, 51, 127
14, 26641, Control_c, 10, 7, 100
14, 26642, Control_c, 10, 7, 99
14, 26643, Control_c, 10, 7, 98
14, 26644, Control_c, 10, 7, 97
14, 26645, Control_c, 10, 7, 97
14, 26646, Control_c, 10, 7, 96
14, 26647, Control_c, 10, 7, 95
14, 26648, Control_c, 10, 7, 94
14, 26649, Control_c, 10, 7, 93
14, 26650, Control_c, 10, 7, 93
14, 26651, Control_c, 10, 7, 92
14, 26652, Control_c, 10, 7, 91
14, 26653, Control_c, 10, 7, 90
14, 26654, Control_c, 10, 7, 89
14, 26655, Control_c, 10, 7, 88
14, 26656, Control_c, 10, 7, 88
14, 26657, Control_c, 10, 7, 87
14, 26658, Control_c, 10, 7, 86
14, 26659, Control_c, 10, 7, 85
14, 26660, Control_c, 10, 7, 84
14, 26661, Control_c, 10, 7, 84
14, 26662, Control_c, 10, 7, 83
14, 26663, Control_c, 10, 7, 82
14, 26664, Control_c, 10, 7, 81
14, 26665, Control_c, 10, 7, 80
14, 26666, Control_c, 10, 7, 79
14, 26667, Control_c, 10, 7, 79
14, 26668, Control_c, 10, 7, 78
14, 26669, Control_c, 10, 7, 77
14, 26670, Control_c, 10, 7, 76
14, 26671, Control_c, 10, 7, 75
14, 26672, Control_c, 10, 7, 75
14, 26673, Control_c, 10, 7, 74
14, 26674, Control_c, 10, 7, 73
14, 26675, Control_c, 10, 7, 72
14, 26676, Control_c, 10, 7, 71
14, 26677, Control_c, 10, 7, 70
14, 26678, Control_c, 10, 7, 70
14, 26679, Control_c, 10, 7, 69
14, 26680, Control_c, 10, 7, 68
14, 26681, Control_c, 10, 7, 67
14, 26682, Control_c, 10, 7, 66
14, 26683, Control_c, 10, 7, 66
14, 26684, Control_c, 10, 7, 65
14, 26685, Control_c, 10, 7, 64
14, 26686, Control_c, 10, 7, 63
14, 26687, Control_c, 10, 7, 62
14, 26688, Note_off_c, 10, 39, 64
14, 26688, Note_off_c, 10, 51, 64
14, 26688, Note_off_c, 10, 27, 64
14, 26688, Control_c, 10, 7, 102
14, 26688, Note_on_c, 10, 39, 127
14, 26688, Note_on_c, 10, 27, 127
14, 26688, Note_on_c, 10, 51, 127
14, 26689, Control_c, 10, 7, 102
14, 26690, Control_c, 10, 7, 101
14, 26691, Control_c, 10, 7, 100
14, 26692, Control_c, 10, 7, 99
14, 26693, Control_c, 10, 7, 98
14, 26694, Control_c, 10, 7, 97
14, 26695, Control_c, 10, 7, 96
14, 26696, Control_c, 10, 7, 95
14, 26697, Control_c, 10, 7, 94
14, 26698, Control_c, 10, 7, 94
14, 26699, Control_c, 10, 7, 93
14, 26700, Control_c, 10, 7, 92
14, 26701, Control_c, 10, 7, 91
14, 26702, Control_c, 10, 7, 90
14, 26703, Control_c, 10, 7, 89
14, 26704, Control_c, 10, 7, 88
14, 26705, Control_c, 10, 7, 87
14, 26706, Control_c, 10, 7, 86
14, 26707, Control_c, 10, 7, 86
14, 26708, Control_c, 10, 7, 85
14, 26709, Control_c, 10, 7, 84
14, 26710, Control_c, 10, 7, 83
14, 26711, Control_c, 10, 7, 82
14, 26712, Control_c, 10, 7, 81
14, 26713, Control_c, 10, 7, 80
14, 26714, Control_c, 10, 7, 79
14, 26715, Control_c, 10, 7, 78
14, 26716, Control_c, 10, 7, 78
14, 26717, Control_c, 10, 7, 77
14, 26718, Control_c, 10, 7, 76
14, 26719, Control_c, 10, 7, 75
14, 26720, Control_c, 10, 7, 74
14, 26721, Control_c, 10, 7, 73
14, 26722, Control_c, 10, 7, 72
14, 26723, Control_c, 10, 7, 71
14, 26724, Control_c, 10, 7, 70
14, 26725, Control_c, 10, 7, 69
14, 26726, Control_c, 10, 7, 69
14, 26727, Control_c, 10, 7, 68
14, 26728, Control_c, 10, 7, 67
14, 26729, Control_c, 10, 7, 66
14, 26730, Control_c, 10, 7, 65
14, 26731, Control_c, 10, 7, 64
14, 26732, Control_c, 10, 7, 63
14, 26733, Control_c, 10, 7, 62
14, 26734, Control_c, 10, 7, 61
14, 26735, Control_c, 10, 7, 61
14, 26736, Note_off_c, 10, 51, 64
14, 26736, Note_off_c, 10, 27, 64
14, 26736, Note_off_c, 10, 39, 64
14, 26736, Note_on_c, 10, 39, 127
14, 26736, Note_on_c, 10, 27, 127
14, 26736, Note_on_c, 10, 51, 127
14, 26737, Control_c, 10, 7, 103
14, 26738, Control_c, 10, 7, 102
14, 26739, Control_c, 10, 7, 101
14, 26740, Control_c, 10, 7, 100
14, 26741, Control_c, 10, 7, 99
14, 26742, Control_c, 10, 7, 99
14, 26743, Control_c, 10, 7, 98
14, 26744, Control_c, 10, 7, 97
14, 26745, Control_c, 10, 7, 96
14, 26746, Control_c, 10, 7, 95
14, 26747, Control_c, 10, 7, 94
14, 26748, Control_c, 10, 7, 93
14, 26749, Control_c, 10, 7, 93
14, 26750, Control_c, 10, 7, 92
14, 26751, Control_c, 10, 7, 91
14, 26752, Control_c, 10, 7, 90
14, 26753, Control_c, 10, 7, 89
14, 26754, Control_c, 10, 7, 88
14, 26755, Control_c, 10, 7, 87
14, 26756, Control_c, 10, 7, 87
14, 26757, Control_c, 10, 7, 86
14, 26758, Control_c, 10, 7, 85
14, 26759, Control_c, 10, 7, 84
14, 26760, Control_c, 10, 7, 83
14, 26761, Control_c, 10, 7, 82
14, 26762, Control_c, 10, 7, 81
14, 26763, Control_c, 10, 7, 81
14, 26764, Control_c, 10, 7, 80
14, 26765, Control_c, 10, 7, 79
14, 26766, Control_c, 10, 7, 78
14, 26767, Control_c, 10, 7, 77
14, 26768, Control_c, 10, 7, 76
14, 26769, Control_c, 10, 7, 75
14, 26770, Control_c, 10, 7, 75
14, 26771, Control_c, 10, 7, 74
14, 26772, Control_c, 10, 7, 73
14, 26773, Control_c, 10, 7, 72
14, 26774, Control_c, 10, 7, 71
14, 26775, Control_c, 10, 7, 70
14, 26776, Control_c, 10, 7, 69
14, 26777, Control_c, 10, 7, 69
14, 26778, Control_c, 10, 7, 68
14, 26779, Control_c, 10, 7, 67
14, 26780, Control_c, 10, 7, 66
14, 26781, Control_c, 10, 7, 65
14, 26782, Control_c, 10, 7, 64
14, 26783, Control_c, 10, 7, 64
14, 26784, Note_off_c, 10, 39, 64
14, 26784, Note_off_c, 10, 51, 64
14, 26784, Note_off_c, 10, 27, 64
14, 26784, Note_on_c, 10, 39, 127
14, 26784, Note_on_c, 10, 27, 127
14, 26784, Note_on_c, 10, 51, 127
14, 26785, Control_c, 10, 7, 104
14, 26786, Control_c, 10, 7, 103
14, 26787, Control_c, 10, 7, 102
14, 26788, Control_c, 10, 7, 101
14, 26789, Control_c, 10, 7, 100
14, 26790, Control_c, 10, 7, 99
14, 26791, Control_c, 10, 7, 98
14, 26792, Control_c, 10, 7, 98
14, 26793, Control_c, 10, 7, 97
14, 26794, Control_c, 10, 7, 96
14, 26795, Control_c, 10, 7, 95
14, 26796, Control_c, 10, 7, 94
14, 26797, Control_c, 10, 7, 93
14, 26798, Control_c, 10, 7, 93
14, 26799, Control_c, 10, 7, 92
14, 26800, Control_c, 10, 7, 91
14, 26801, Control_c, 10, 7, 90
14, 26802, Control_c, 10, 7, 89
14, 26803, Control_c, 10, 7, 88
14, 26804, Control_c, 10, 7, 87
14, 26805, Control_c, 10, 7, 87
14, 26806, Control_c, 10, 7, 86
14, 26807, Control_c, 10, 7, 85
14, 26808, Control_c, 10, 7, 84
14, 26809, Control_c, 10, 7, 83
14, 26810, Control_c, 10, 7, 82
14, 26811, Control_c, 10, 7, 82
14, 26812, Control_c, 10, 7, 81
14, 26813, Control_c, 10, 7, 80
14, 26814, Control_c, 10, 7, 79
14, 26815, Control_c, 10, 7, 78
14, 26816, Control_c, 10, 7, 77
14, 26817, Control_c, 10, 7, 76
14, 26818, Control_c, 10, 7, 76
14, 26819, Control_c, 10, 7, 75
14, 26820, Control_c, 10, 7, 74
14, 26821, Control_c, 10, 7, 73
14, 26822, Control_c, 10, 7, 72
14, 26823, Control_c, 10, 7, 71
14, 26824, Control_c, 10, 7, 71
14, 26825, Control_c, 10, 7, 70
14, 26826, Control_c, 10, 7, 69
14, 26827, Control_c, 10, 7, 68
14, 26828, Control_c, 10, 7, 67
14, 26829, Control_c, 10, 7, 66
14, 26830, Control_c, 10, 7, 65
14, 26831, Control_c, 10, 7, 102
14, 26832, Note_off_c, 10, 51, 64
14, 26832, Note_off_c, 10, 27, 64
14, 26832, Note_off_c, 10, 39, 64
14, 26832, Control_c, 10, 7, 102
14, 26832, Note_on_c, 10, 39, 127
14, 26832, Note_on_c, 10, 27, 127
14, 26832, Note_on_c, 10, 51, 127
14, 26833, Control_c, 10, 7, 101
14, 26834, Control_c, 10, 7, 100
14, 26835, Control_c, 10, 7, 99
14, 26836, Control_c, 10, 7, 98
14, 26837, Control_c, 10, 7, 97
14, 26838, Control_c, 10, 7, 96
14, 26839, Control_c, 10, 7, 96
14, 26840, Control_c, 10, 7, 95
14, 26841, Control_c, 10, 7, 94
14, 26842, Control_c, 10, 7, 93
14, 26843, Control_c, 10, 7, 92
14, 26844, Control_c, 10, 7, 91
14, 26845, Control_c, 10, 7, 90
14, 26846, Control_c, 10, 7, 89
14, 26847, Control_c, 10, 7, 89
14, 26848, Control_c, 10, 7, 88
14, 26849, Control_c, 10, 7, 87
14, 26850, Control_c, 10, 7, 86
14, 26851, Control_c, 10, 7, 85
14, 26852, Control_c, 10, 7, 84
14, 26853, Control_c, 10, 7, 83
14, 26854, Control_c, 10, 7, 83
14, 26855, Control_c, 10, 7, 82
14, 26856, Control_c, 10, 7, 81
14, 26857, Control_c, 10, 7, 80
14, 26858, Control_c, 10, 7, 79
14, 26859, Control_c, 10, 7, 78
14, 26860, Control_c, 10, 7, 77
14, 26861, Control_c, 10, 7, 77
14, 26862, Control_c, 10, 7, 76
14, 26863, Control_c, 10, 7, 75
14, 26864, Control_c, 10, 7, 74
14, 26865, Control_c, 10, 7, 73
14, 26866, Control_c, 10, 7, 72
14, 26867, Control_c, 10, 7, 71
14, 26868, Control_c, 10, 7, 71
14, 26869, Control_c, 10, 7, 70
14, 26870, Control_c, 10, 7, 69
14, 26871, Control_c, 10, 7, 68
14, 26872, Control_c, 10, 7, 67
14, 26873, Control_c, 10, 7, 66
14, 26874, Control_c, 10, 7, 65
14, 26875, Control_c, 10, 7, 65
14, 26876, Control_c, 10, 7, 64
14, 26877, Control_c, 10, 7, 63
14, 26880, Note_off_c, 10, 51, 64
14, 26880, Note_off_c, 10, 27, 64
14, 26880, Note_off_c, 10, 39, 64
14, 26880, Control_c, 10, 7, 113
14, 26880, Note_on_c, 10, 39, 127
14, 26880, Note_on_c, 10, 27, 127
14, 26880, Note_on_c, 10, 51, 127
14, 26881, Control_c, 10, 7, 113
14, 26882, Control_c, 10, 7, 112
14, 26883, Control_c, 10, 7, 112
14, 26884, Control_c, 10, 7, 112
14, 26885, Control_c, 10, 7, 111
14, 26886, Control_c, 10, 7, 111
14, 26887, Control_c, 10, 7, 110
14, 26888, Control_c, 10, 7, 110
14, 26889, Control_c, 10, 7, 110
14, 26890, Control_c, 10, 7, 109
14, 26891, Control_c, 10, 7, 109
14, 26892, Control_c, 10, 7, 109
14, 26893, Control_c, 10, 7, 108
14, 26894, Control_c, 10, 7, 108
14, 26895, Control_c, 10, 7, 108
14, 26896, Control_c, 10, 7, 107
14, 26897, Control_c, 10, 7, 107
14, 26898, Control_c, 10, 7, 107
14, 26899, Control_c, 10, 7, 106
14, 26900, Control_c, 10, 7, 106
14, 26901, Control_c, 10, 7, 106
14, 26902, Control_c, 10, 7, 105
14, 26903, Control_c, 10, 7, 105
14, 26904, Control_c, 10, 7, 104
14, 26905, Control_c, 10, 7, 104
14, 26906, Control_c, 10, 7, 104
14, 26907, Control_c, 10, 7, 103
14, 26908, Control_c, 10, 7, 103
14, 26909, Control_c, 10, 7, 103
14, 26910, Control_c, 10, 7, 102
14, 26911, Control_c, 10, 7, 102
14, 26912, Control_c, 10, 7, 102
14, 26913, Control_c, 10, 7, 101
14, 26914, Control_c, 10, 7, 101
14, 26915, Control_c, 10, 7, 101
14, 26916, Control_c, 10, 7, 100
14, 26917, Control_c, 10, 7, 100
14, 26918, Control_c, 10, 7, 100
14, 26919, Control_c, 10, 7, 99
14, 26920, Control_c, 10, 7, 99
14, 26921, Control_c, 10, 7, 98
14, 26922, Control_c, 10, 7, 98
14, 26923, Control_c, 10, 7, 98
14, 26924, Control_c, 10, 7, 97
14, 26925, Control_c, 10, 7, 97
14, 26926, Control_c, 10, 7, 97
14, 26927, Control_c, 10, 7, 96
14, 26928, Control_c, 10, 7, 96
14, 26929, Control_c, 10, 7, 96
14, 26930, Control_c, 10, 7, 95
14, 26931, Control_c, 10, 7, 95
14, 26932, Control_c, 10, 7, 95
14, 26933, Control_c, 10, 7, 94
14, 26934, Control_c, 10, 7, 94
14, 26935, Control_c, 10, 7, 94
14, 26936, Control_c, 10, 7, 93
14, 26937, Control_c, 10, 7, 93
14, 26938, Control_c, 10, 7, 92
14, 26939, Control_c, 10, 7, 92
14, 26940, Control_c, 10, 7, 92
14, 26941, Control_c, 10, 7, 91
14, 26942, Control_c, 10, 7, 91
14, 26943, Control_c, 10, 7, 91
14, 26944, Control_c, 10, 7, 90
14, 26945, Control_c, 10, 7, 90
14, 26946, Control_c, 10, 7, 90
14, 26947, Control_c, 10, 7, 89
14, 26948, Control_c, 10, 7, 89
14, 26949, Control_c, 10, 7, 89
14, 26950, Control_c, 10, 7, 88
14, 26951, Control_c, 10, 7, 88
14, 26952, Control_c, 10, 7, 88
14, 26953, Control_c, 10, 7, 87
14, 26954, Control_c, 10, 7, 87
14, 26955, Control_c, 10, 7, 86
14, 26956, Control_c, 10, 7, 86
14, 26957, Control_c, 10, 7, 86
14, 26958, Control_c, 10, 7, 85
14, 26959, Control_c, 10, 7, 85
14, 26960, Control_c, 10, 7, 85
14, 26961, Control_c, 10, 7, 84
14, 26962, Control_c, 10, 7, 84
14, 26963, Control_c, 10, 7, 84
14, 26964, Control_c, 10, 7, 83
14, 26965, Control_c, 10, 7, 83
14, 26966, Control_c, 10, 7, 83
14, 26967, Control_c, 10, 7, 82
14, 26968, Control_c, 10, 7, 82
14, 26969, Control_c, 10, 7, 82
14, 26970, Control_c, 10, 7, 81
14, 26971, Control_c, 10, 7, 81
14, 26972, Control_c, 10, 7, 80
14, 26973, Control_c, 10, 7, 80
14, 26974, Control_c, 10, 7, 80
14, 26975, Control_c, 10, 7, 79
14, 26976, Control_c, 10, 7, 79
14, 26977, Control_c, 10, 7, 79
14, 26978, Control_c, 10, 7, 78
14, 26979, Control_c, 10, 7, 78
14, 26980, Control_c, 10, 7, 78
14, 26981, Control_c, 10, 7, 77
14, 26982, Control_c, 10, 7, 77
14, 26983, Control_c, 10, 7, 77
14, 26984, Control_c, 10, 7, 76
14, 26985, Control_c, 10, 7, 76
14, 26986, Control_c, 10, 7, 76
14, 26987, Control_c, 10, 7, 75
14, 26988, Control_c, 10, 7, 75
14, 26989, Control_c, 10, 7, 74
14, 26990, Control_c, 10, 7, 74
14, 26991, Control_c, 10, 7, 74
14, 26992, Control_c, 10, 7, 73
14, 26993, Control_c, 10, 7, 73
14, 26994, Control_c, 10, 7, 73
14, 26995, Control_c, 10, 7, 72
14, 26996, Control_c, 10, 7, 72
14, 26997, Control_c, 10, 7, 72
14, 26998, Control_c, 10, 7, 71
14, 26999, Control_c, 10, 7, 71
14, 27000, Control_c, 10, 7, 71
14, 27001, Control_c, 10, 7, 70
14, 27002, Control_c, 10, 7, 70
14, 27003, Control_c, 10, 7, 70
14, 27004, Control_c, 10, 7, 69
14, 27005, Control_c, 10, 7, 69
14, 27006, Control_c, 10, 7, 68
14, 27007, Control_c, 10, 7, 68
14, 27008, Control_c, 10, 7, 68
14, 27009, Control_c, 10, 7, 67
14, 27010, Control_c, 10, 7, 67
14, 27011, Control_c, 10, 7, 67
14, 27012, Control_c, 10, 7, 66
14, 27013, Control_c, 10, 7, 66
14, 27014, Control_c, 10, 7, 66
14, 27015, Control_c, 10, 7, 65
14, 27016, Control_c, 10, 7, 65
14, 27017, Control_c, 10, 7, 65
14, 27018, Control_c, 10, 7, 64
14, 27019, Control_c, 10, 7, 64
14, 27020, Control_c, 10, 7, 64
14, 27021, Control_c, 10, 7, 63
14, 27022, Control_c, 10, 7, 111
14, 27023, Control_c, 10, 7, 111
14, 27024, Note_off_c, 10, 51, 64
14, 27024, Note_off_c, 10, 27, 64
14, 27024, Note_off_c, 10, 39, 64
14, 27024, Control_c, 10, 7, 110
14, 27024, Note_on_c, 10, 39, 127
14, 27024, Note_on_c, 10, 51, 127
14, 27024, Note_on_c, 10, 27, 127
14, 27025, Control_c, 10, 7, 110
14, 27026, Control_c, 10, 7, 110
14, 27027, Control_c, 10, 7, 109
14, 27028, Control_c, 10, 7, 109
14, 27029, Control_c, 10, 7, 109
14, 27030, Control_c, 10, 7, 109
14, 27031, Control_c, 10, 7, 108
14, 27032, Control_c, 10, 7, 108
14, 27033, Control_c, 10, 7, 108
14, 27034, Control_c, 10, 7, 107
14, 27035, Control_c, 10, 7, 107
14, 27036, Control_c, 10, 7, 107
14, 27037, Control_c, 10, 7, 106
14, 27038, Control_c, 10, 7, 106
14, 27039, Control_c, 10, 7, 106
14, 27040, Control_c, 10, 7, 105
14, 27041, Control_c, 10, 7, 105
14, 27042, Control_c, 10, 7, 105
14, 27043, Control_c, 10, 7, 104
14, 27044, Control_c, 10, 7, 104
14, 27045, Control_c, 10, 7, 104
14, 27046, Control_c, 10, 7, 103
14, 27047, Control_c, 10, 7, 103
14, 27048, Control_c, 10, 7, 103
14, 27049, Control_c, 10, 7, 102
14, 27050, Control_c, 10, 7, 102
14, 27051, Control_c, 10, 7, 102
14, 27052, Control_c, 10, 7, 101
14, 27053, Control_c, 10, 7, 101
14, 27054, Control_c, 10, 7, 101
14, 27055, Control_c, 10, 7, 100
14, 27056, Control_c, 10, 7, 100
14, 27057, Control_c, 10, 7, 100
14, 27058, Control_c, 10, 7, 99
14, 27059, Control_c, 10, 7, 99
14, 27060, Control_c, 10, 7, 99
14, 27061, Control_c, 10, 7, 98
14, 27062, Control_c, 10, 7, 98
14, 27063, Control_c, 10, 7, 98
14, 27064, Control_c, 10, 7, 97
14, 27065, Control_c, 10, 7, 97
14, 27066, Control_c, 10, 7, 97
14, 27067, Control_c, 10, 7, 96
14, 27068, Control_c, 10, 7, 96
14, 27069, Control_c, 10, 7, 96
14, 27070, Control_c, 10, 7, 95
14, 27071, Control_c, 10, 7, 95
14, 27072, Control_c, 10, 7, 95
14, 27073, Control_c, 10, 7, 94
14, 27074, Control_c, 10, 7, 94
14, 27075, Control_c, 10, 7, 94
14, 27076, Control_c, 10, 7, 93
14, 27077, Control_c, 10, 7, 93
14, 27078, Control_c, 10, 7, 93
14, 27079, Control_c, 10, 7, 92
14, 27080, Control_c, 10, 7, 92
14, 27081, Control_c, 10, 7, 92
14, 27082, Control_c, 10, 7, 91
14, 27083, Control_c, 10, 7, 91
14, 27084, Control_c, 10, 7, 91
14, 27085, Control_c, 10, 7, 90
14, 27086, Control_c, 10, 7, 90
14, 27087, Control_c, 10, 7, 90
14, 27088, Control_c, 10, 7, 89
14, 27089, Control_c, 10, 7, 89
14, 27090, Control_c, 10, 7, 89
14, 27091, Control_c, 10, 7, 88
14, 27092, Control_c, 10, 7, 88
14, 27093, Control_c, 10, 7, 88
14, 27094, Control_c, 10, 7, 87
14, 27095, Control_c, 10, 7, 87
14, 27096, Control_c, 10, 7, 87
14, 27097, Control_c, 10, 7, 86
14, 27098, Control_c, 10, 7, 86
14, 27099, Control_c, 10, 7, 86
14, 27100, Control_c, 10, 7, 85
14, 27101, Control_c, 10, 7, 85
14, 27102, Control_c, 10, 7, 85
14, 27103, Control_c, 10, 7, 84
14, 27104, Control_c, 10, 7, 84
14, 27105, Control_c, 10, 7, 84
14, 27106, Control_c, 10, 7, 83
14, 27107, Control_c, 10, 7, 83
14, 27108, Control_c, 10, 7, 83
14, 27109, Control_c, 10, 7, 82
14, 27110, Control_c, 10, 7, 82
14, 27111, Control_c, 10, 7, 82
14, 27112, Control_c, 10, 7, 81
14, 27113, Control_c, 10, 7, 81
14, 27114, Control_c, 10, 7, 81
14, 27115, Control_c, 10, 7, 80
14, 27116, Control_c, 10, 7, 80
14, 27117, Control_c, 10, 7, 80
14, 27118, Control_c, 10, 7, 79
14, 27119, Control_c, 10, 7, 79
14, 27120, Control_c, 10, 7, 79
14, 27121, Control_c, 10, 7, 78
14, 27122, Control_c, 10, 7, 78
14, 27123, Control_c, 10, 7, 78
14, 27124, Control_c, 10, 7, 77
14, 27125, Control_c, 10, 7, 77
14, 27126, Control_c, 10, 7, 77
14, 27127, Control_c, 10, 7, 76
14, 27128, Control_c, 10, 7, 76
14, 27129, Control_c, 10, 7, 76
14, 27130, Control_c, 10, 7, 75
14, 27131, Control_c, 10, 7, 75
14, 27132, Control_c, 10, 7, 75
14, 27133, Control_c, 10, 7, 74
14, 27134, Control_c, 10, 7, 74
14, 27135, Control_c, 10, 7, 74
14, 27136, Control_c, 10, 7, 73
14, 27137, Control_c, 10, 7, 73
14, 27138, Control_c, 10, 7, 73
14, 27139, Control_c, 10, 7, 72
14, 27140, Control_c, 10, 7, 72
14, 27141, Control_c, 10, 7, 72
14, 27142, Control_c, 10, 7, 71
14, 27143, Control_c, 10, 7, 71
14, 27144, Control_c, 10, 7, 71
14, 27145, Control_c, 10, 7, 70
14, 27146, Control_c, 10, 7, 70
14, 27147, Control_c, 10, 7, 70
14, 27148, Control_c, 10, 7, 69
14, 27149, Control_c, 10, 7, 69
14, 27150, Control_c, 10, 7, 69
14, 27151, Control_c, 10, 7, 68
14, 27152, Control_c, 10, 7, 68
14, 27153, Control_c, 10, 7, 68
14, 27154, Control_c, 10, 7, 67
14, 27155, Control_c, 10, 7, 67
14, 27156, Control_c, 10, 7, 67
14, 27157, Control_c, 10, 7, 66
14, 27158, Control_c, 10, 7, 66
14, 27159, Control_c, 10, 7, 66
14, 27160, Control_c, 10, 7, 65
14, 27161, Control_c, 10, 7, 65
14, 27162, Control_c, 10, 7, 65
14, 27163, Control_c, 10, 7, 64
14, 27164, Control_c, 10, 7, 64
14, 27165, Control_c, 10, 7, 64
14, 27166, Control_c, 10, 7, 63
14, 27167, Control_c, 10, 7, 63
14, 27168, Note_off_c, 10, 27, 64
14, 27168, Note_off_c, 10, 51, 64
14, 27168, Note_off_c, 10, 39, 64
14, 27168, Control_c, 10, 7, 64
14, 27168, Note_on_c, 10, 39, 127
14, 27168, Note_on_c, 10, 51, 127
14, 27168, Note_on_c, 10, 27, 127
14, 27169, Control_c, 10, 7, 64
14, 27170, Control_c, 10, 7, 65
14, 27171, Control_c, 10, 7, 65
14, 27172, Control_c, 10, 7, 66
14, 27173, Control_c, 10, 7, 66
14, 27174, Control_c, 10, 7, 67
14, 27175, Control_c, 10, 7, 67
14, 27176, Control_c, 10, 7, 68
14, 27177, Control_c, 10, 7, 68
14, 27178, Control_c, 10, 7, 69
14, 27179, Control_c, 10, 7, 69
14, 27180, Control_c, 10, 7, 70
14, 27181, Control_c, 10, 7, 70
14, 27182, Control_c, 10, 7, 71
14, 27183, Control_c, 10, 7, 71
14, 27184, Control_c, 10, 7, 72
14, 27185, Control_c, 10, 7, 72
14, 27186, Control_c, 10, 7, 73
14, 27187, Control_c, 10, 7, 73
14, 27188, Control_c, 10, 7, 74
14, 27189, Control_c, 10, 7, 74
14, 27190, Control_c, 10, 7, 75
14, 27191, Control_c, 10, 7, 75
14, 27192, Control_c, 10, 7, 76
14, 27193, Control_c, 10, 7, 76
14, 27194, Control_c, 10, 7, 77
14, 27195, Control_c, 10, 7, 77
14, 27196, Control_c, 10, 7, 78
14, 27197, Control_c, 10, 7, 78
14, 27198, Control_c, 10, 7, 79
14, 27199, Control_c, 10, 7, 79
14, 27200, Control_c, 10, 7, 80
14, 27201, Control_c, 10, 7, 80
14, 27202, Control_c, 10, 7, 81
14, 27203, Control_c, 10, 7, 81
14, 27204, Control_c, 10, 7, 82
14, 27205, Control_c, 10, 7, 82
14, 27206, Control_c, 10, 7, 83
14, 27207, Control_c, 10, 7, 83
14, 27208, Control_c, 10, 7, 84
14, 27209, Control_c, 10, 7, 84
14, 27210, Control_c, 10, 7, 85
14, 27211, Control_c, 10, 7, 85
14, 27212, Control_c, 10, 7, 86
14, 27213, Control_c, 10, 7, 86
14, 27214, Control_c, 10, 7, 87
14, 27215, Control_c, 10, 7, 87
14, 27216, Control_c, 10, 7, 88
14, 27217, Control_c, 10, 7, 88
14, 27218, Control_c, 10, 7, 89
14, 27219, Control_c, 10, 7, 89
14, 27220, Control_c, 10, 7, 90
14, 27221, Control_c, 10, 7, 90
14, 27222, Control_c, 10, 7, 91
14, 27223, Control_c, 10, 7, 91
14, 27224, Control_c, 10, 7, 92
14, 27225, Control_c, 10, 7, 92
14, 27226, Control_c, 10, 7, 93
14, 27227, Control_c, 10, 7, 93
14, 27228, Control_c, 10, 7, 94
14, 27229, Control_c, 10, 7, 94
14, 27230, Control_c, 10, 7, 95
14, 27231, Control_c, 10, 7, 95
14, 27232, Control_c, 10, 7, 96
14, 27233, Control_c, 10, 7, 96
14, 27234, Control_c, 10, 7, 97
14, 27235, Control_c, 10, 7, 97
14, 27236, Control_c, 10, 7, 98
14, 27237, Control_c, 10, 7, 98
14, 27238, Control_c, 10, 7, 99
14, 27239, Control_c, 10, 7, 99
14, 27240, Control_c, 10, 7, 100
14, 27241, Control_c, 10, 7, 100
14, 27242, Control_c, 10, 7, 101
14, 27243, Control_c, 10, 7, 101
14, 27244, Control_c, 10, 7, 102
14, 27245, Control_c, 10, 7, 102
14, 27246, Control_c, 10, 7, 103
14, 27247, Control_c, 10, 7, 103
14, 27248, Control_c, 10, 7, 104
14, 27249, Control_c, 10, 7, 104
14, 27250, Control_c, 10, 7, 105
14, 27251, Control_c, 10, 7, 105
14, 27252, Control_c, 10, 7, 106
14, 27253, Control_c, 10, 7, 106
14, 27254, Control_c, 10, 7, 107
14, 27255, Control_c, 10, 7, 107
14, 27256, Control_c, 10, 7, 108
14, 27257, Control_c, 10, 7, 108
14, 27258, Control_c, 10, 7, 109
14, 27259, Control_c, 10, 7, 109
14, 27260, Control_c, 10, 7, 110
14, 27261, Control_c, 10, 7, 110
14, 27262, Control_c, 10, 7, 111
14, 27263, Control_c, 10, 7, 111
14, 27264, Note_off_c, 10, 27, 64
14, 27264, Note_off_c, 10, 51, 64
14, 27264, Note_off_c, 10, 39, 64
14, 27264, Control_c, 10, 7, 112
14, 27264, Note_on_c, 10, 39, 127
14, 27264, Note_on_c, 10, 51, 127
14, 27264, Note_on_c, 10, 27, 127
14, 27265, Control_c, 10, 7, 64
14, 27266, Control_c, 10, 7, 65
14, 27267, Control_c, 10, 7, 66
14, 27268, Control_c, 10, 7, 67
14, 27269, Control_c, 10, 7, 68
14, 27270, Control_c, 10, 7, 69
14, 27271, Control_c, 10, 7, 69
14, 27272, Control_c, 10, 7, 70
14, 27273, Control_c, 10, 7, 71
14, 27274, Control_c, 10, 7, 72
14, 27275, Control_c, 10, 7, 73
14, 27276, Control_c, 10, 7, 74
14, 27277, Control_c, 10, 7, 75
14, 27278, Control_c, 10, 7, 76
14, 27279, Control_c, 10, 7, 77
14, 27280, Control_c, 10, 7, 78
14, 27281, Control_c, 10, 7, 79
14, 27282, Control_c, 10, 7, 80
14, 27283, Control_c, 10, 7, 81
14, 27284, Control_c, 10, 7, 82
14, 27285, Control_c, 10, 7, 83
14, 27286, Control_c, 10, 7, 85
14, 27287, Control_c, 10, 7, 86
14, 27288, Control_c, 10, 7, 87
14, 27289, Control_c, 10, 7, 88
14, 27290, Control_c, 10, 7, 89
14, 27291, Control_c, 10, 7, 90
14, 27292, Control_c, 10, 7, 91
14, 27293, Control_c, 10, 7, 92
14, 27294, Control_c, 10, 7, 93
14, 27295, Control_c, 10, 7, 94
14, 27296, Control_c, 10, 7, 95
14, 27297, Control_c, 10, 7, 96
14, 27298, Control_c, 10, 7, 97
14, 27299, Control_c, 10, 7, 98
14, 27300, Control_c, 10, 7, 99
14, 27301, Control_c, 10, 7, 100
14, 27302, Control_c, 10, 7, 102
14, 27303, Control_c, 10, 7, 103
14, 27304, Control_c, 10, 7, 104
14, 27305, Control_c, 10, 7, 105
14, 27306, Control_c, 10, 7, 106
14, 27307, Control_c, 10, 7, 107
14, 27308, Control_c, 10, 7, 108
14, 27309, Control_c, 10, 7, 109
14, 27310, Control_c, 10, 7, 110
14, 27311, Control_c, 10, 7, 111
14, 27312, Note_off_c, 10, 27, 64
14, 27312, Note_off_c, 10, 51, 64
14, 27312, Note_off_c, 10, 39, 64
14, 27312, Control_c, 10, 7, 65
14, 27312, Note_on_c, 10, 39, 127
14, 27312, Note_on_c, 10, 51, 127
14, 27312, Note_on_c, 10, 27, 127
14, 27313, Control_c, 10, 7, 66
14, 27314, Control_c, 10, 7, 67
14, 27315, Control_c, 10, 7, 67
14, 27316, Control_c, 10, 7, 68
14, 27317, Control_c, 10, 7, 69
14, 27318, Control_c, 10, 7, 70
14, 27319, Control_c, 10, 7, 71
14, 27320, Control_c, 10, 7, 72
14, 27321, Control_c, 10, 7, 73
14, 27322, Control_c, 10, 7, 74
14, 27323, Control_c, 10, 7, 75
14, 27324, Control_c, 10, 7, 76
14, 27325, Control_c, 10, 7, 77
14, 27326, Control_c, 10, 7, 78
14, 27327, Control_c, 10, 7, 79
14, 27328, Control_c, 10, 7, 80
14, 27329, Control_c, 10, 7, 81
14, 27330, Control_c, 10, 7, 82
14, 27331, Control_c, 10, 7, 83
14, 27332, Control_c, 10, 7, 84
14, 27333, Control_c, 10, 7, 85
14, 27334, Control_c, 10, 7, 86
14, 27335, Control_c, 10, 7, 87
14, 27336, Control_c, 10, 7, 88
14, 27337, Control_c, 10, 7, 89
14, 27338, Control_c, 10, 7, 89
14, 27339, Control_c, 10, 7, 90
14, 27340, Control_c, 10, 7, 91
14, 27341, Control_c, 10, 7, 92
14, 27342, Control_c, 10, 7, 93
14, 27343, Control_c, 10, 7, 94
14, 27344, Control_c, 10, 7, 95
14, 27345, Control_c, 10, 7, 96
14, 27346, Control_c, 10, 7, 97
14, 27347, Control_c, 10, 7, 98
14, 27348, Control_c, 10, 7, 99
14, 27349, Control_c, 10, 7, 100
14, 27350, Control_c, 10, 7, 101
14, 27351, Control_c, 10, 7, 102
14, 27352, Control_c, 10, 7, 103
14, 27353, Control_c, 10, 7, 104
14, 27354, Control_c, 10, 7, 105
14, 27355, Control_c, 10, 7, 106
14, 27356, Control_c, 10, 7, 107
14, 27357, Control_c, 10, 7, 108
14, 27358, Control_c, 10, 7, 109
14, 27359, Control_c, 10, 7, 110
14, 27360, Note_off_c, 10, 27, 64
14, 27360, Note_off_c, 10, 51, 64
14, 27360, Note_off_c, 10, 39, 64
14, 27360, Control_c, 10, 7, 64
14, 27360, Note_on_c, 10, 39, 127
14, 27360, Note_on_c, 10, 51, 127
14, 27360, Note_on_c, 10, 27, 127
14, 27361, Control_c, 10, 7, 65
14, 27362, Control_c, 10, 7, 65
14, 27363, Control_c, 10, 7, 66
14, 27364, Control_c, 10, 7, 67
14, 27365, Control_c, 10, 7, 68
14, 27366, Control_c, 10, 7, 69
14, 27367, Control_c, 10, 7, 70
14, 27368, Control_c, 10, 7, 70
14, 27369, Control_c, 10, 7, 71
14, 27370, Control_c, 10, 7, 72
14, 27371, Control_c, 10, 7, 73
14, 27372, Control_c, 10, 7, 74
14, 27373, Control_c, 10, 7, 75
14, 27374, Control_c, 10, 7, 76
14, 27375, Control_c, 10, 7, 77
14, 27376, Control_c, 10, 7, 78
14, 27377, Control_c, 10, 7, 79
14, 27378, Control_c, 10, 7, 80
14, 27379, Control_c, 10, 7, 81
14, 27380, Control_c, 10, 7, 82
14, 27381, Control_c, 10, 7, 83
14, 27382, Control_c, 10, 7, 84
14, 27383, Control_c, 10, 7, 85
14, 27384, Control_c, 10, 7, 86
14, 27385, Control_c, 10, 7, 88
14, 27386, Control_c, 10, 7, 89
14, 27387, Control_c, 10, 7, 90
14, 27388, Control_c, 10, 7, 91
14, 27389, Control_c, 10, 7, 92
14, 27390, Control_c, 10, 7, 93
14, 27391, Control_c, 10, 7, 94
14, 27392, Control_c, 10, 7, 95
14, 27393, Control_c, 10, 7, 96
14, 27394, Control_c, 10, 7, 97
14, 27395, Control_c, 10, 7, 98
14, 27396, Control_c, 10, 7, 99
14, 27397, Control_c, 10, 7, 100
14, 27398, Control_c, 10, 7, 101
14, 27399, Control_c, 10, 7, 102
14, 27400, Control_c, 10, 7, 103
14, 27401, Control_c, 10, 7, 104
14, 27402, Control_c, 10, 7, 105
14, 27403, Control_c, 10, 7, 106
14, 27404, Control_c, 10, 7, 107
14, 27405, Control_c, 10, 7, 108
14, 27406, Control_c, 10, 7, 109
14, 27407, Control_c, 10, 7, 110
14, 27408, Note_off_c, 10, 27, 64
14, 27408, Note_off_c, 10, 51, 64
14, 27408, Note_off_c, 10, 39, 64
14, 27408, Control_c, 10, 7, 66
14, 27408, Note_on_c, 10, 39, 127
14, 27408, Note_on_c, 10, 51, 127
14, 27408, Note_on_c, 10, 27, 127
14, 27409, Control_c, 10, 7, 67
14, 27410, Control_c, 10, 7, 68
14, 27411, Control_c, 10, 7, 69
14, 27412, Control_c, 10, 7, 69
14, 27413, Control_c, 10, 7, 70
14, 27414, Control_c, 10, 7, 71
14, 27415, Control_c, 10, 7, 72
14, 27416, Control_c, 10, 7, 73
14, 27417, Control_c, 10, 7, 74
14, 27418, Control_c, 10, 7, 75
14, 27419, Control_c, 10, 7, 76
14, 27420, Control_c, 10, 7, 77
14, 27421, Control_c, 10, 7, 77
14, 27422, Control_c, 10, 7, 78
14, 27423, Control_c, 10, 7, 79
14, 27424, Control_c, 10, 7, 80
14, 27425, Control_c, 10, 7, 81
14, 27426, Control_c, 10, 7, 82
14, 27427, Control_c, 10, 7, 83
14, 27428, Control_c, 10, 7, 84
14, 27429, Control_c, 10, 7, 84
14, 27430, Control_c, 10, 7, 85
14, 27431, Control_c, 10, 7, 86
14, 27432, Control_c, 10, 7, 87
14, 27433, Control_c, 10, 7, 88
14, 27434, Control_c, 10, 7, 89
14, 27435, Control_c, 10, 7, 90
14, 27436, Control_c, 10, 7, 91
14, 27437, Control_c, 10, 7, 91
14, 27438, Control_c, 10, 7, 92
14, 27439, Control_c, 10, 7, 93
14, 27440, Control_c, 10, 7, 94
14, 27441, Control_c, 10, 7, 95
14, 27442, Control_c, 10, 7, 96
14, 27443, Control_c, 10, 7, 97
14, 27444, Control_c, 10, 7, 98
14, 27445, Control_c, 10, 7, 98
14, 27446, Control_c, 10, 7, 99
14, 27447, Control_c, 10, 7, 100
14, 27448, Control_c, 10, 7, 101
14, 27449, Control_c, 10, 7, 102
14, 27450, Control_c, 10, 7, 103
14, 27451, Control_c, 10, 7, 104
14, 27452, Control_c, 10, 7, 104
14, 27453, Control_c, 10, 7, 105
14, 27454, Control_c, 10, 7, 106
14, 27455, Control_c, 10, 7, 107
14, 27456, Note_off_c, 10, 27, 64
14, 27456, Note_off_c, 10, 51, 64
14, 27456, Note_off_c, 10, 39, 64
14, 27456, Control_c, 10, 7, 67
14, 27456, Note_on_c, 10, 39, 127
14, 27456, Note_on_c, 10, 51, 127
14, 27456, Note_on_c, 10, 27, 127
14, 27457, Control_c, 10, 7, 68
14, 27458, Control_c, 10, 7, 69
14, 27459, Control_c, 10, 7, 70
14, 27460, Control_c, 10, 7, 71
14, 27461, Control_c, 10, 7, 72
14, 27462, Control_c, 10, 7, 73
14, 27463, Control_c, 10, 7, 74
14, 27464, Control_c, 10, 7, 75
14, 27465, Control_c, 10, 7, 75
14, 27466, Control_c, 10, 7, 76
14, 27467, Control_c, 10, 7, 77
14, 27468, Control_c, 10, 7, 78
14, 27469, Control_c, 10, 7, 79
14, 27470, Control_c, 10, 7, 80
14, 27471, Control_c, 10, 7, 81
14, 27472, Control_c, 10, 7, 82
14, 27473, Control_c, 10, 7, 83
14, 27474, Control_c, 10, 7, 84
14, 27475, Control_c, 10, 7, 85
14, 27476, Control_c, 10, 7, 86
14, 27477, Control_c, 10, 7, 87
14, 27478, Control_c, 10, 7, 88
14, 27479, Control_c, 10, 7, 89
14, 27480, Control_c, 10, 7, 90
14, 27481, Control_c, 10, 7, 90
14, 27482, Control_c, 10, 7, 91
14, 27483, Control_c, 10, 7, 92
14, 27484, Control_c, 10, 7, 93
14, 27485, Control_c, 10, 7, 94
14, 27486, Control_c, 10, 7, 95
14, 27487, Control_c, 10, 7, 96
14, 27488, Control_c, 10, 7, 97
14, 27489, Control_c, 10, 7, 98
14, 27490, Control_c, 10, 7, 99
14, 27491, Control_c, 10, 7, 100
14, 27492, Control_c, 10, 7, 101
14, 27493, Control_c, 10, 7, 102
14, 27494, Control_c, 10, 7, 103
14, 27495, Control_c, 10, 7, 104
14, 27496, Control_c, 10, 7, 105
14, 27497, Control_c, 10, 7, 106
14, 27498, Control_c, 10, 7, 106
14, 27499, Control_c, 10, 7, 107
14, 27500, Control_c, 10, 7, 108
14, 27501, Control_c, 10, 7, 109
14, 27502, Control_c, 10, 7, 110
14, 27503, Control_c, 10, 7, 111
14, 27504, Note_off_c, 10, 27, 64
14, 27504, Note_off_c, 10, 51, 64
14, 27504, Note_off_c, 10, 39, 64
14, 27504, Control_c, 10, 7, 61
14, 27504, Note_on_c, 10, 39, 127
14, 27504, Note_on_c, 10, 51, 127
14, 27504, Note_on_c, 10, 27, 127
14, 27505, Control_c, 10, 7, 62
14, 27506, Control_c, 10, 7, 63
14, 27507, Control_c, 10, 7, 64
14, 27508, Control_c, 10, 7, 65
14, 27509, Control_c, 10, 7, 66
14, 27510, Control_c, 10, 7, 67
14, 27511, Control_c, 10, 7, 68
14, 27512, Control_c, 10, 7, 70
14, 27513, Control_c, 10, 7, 71
14, 27514, Control_c, 10, 7, 72
14, 27515, Control_c, 10, 7, 73
14, 27516, Control_c, 10, 7, 74
14, 27517, Control_c, 10, 7, 75
14, 27518, Control_c, 10, 7, 76
14, 27519, Control_c, 10, 7, 78
14, 27520, Control_c, 10, 7, 79
14, 27521, Control_c, 10, 7, 80
14, 27522, Control_c, 10, 7, 81
14, 27523, Control_c, 10, 7, 82
14, 27524, Control_c, 10, 7, 83
14, 27525, Control_c, 10, 7, 84
14, 27526, Control_c, 10, 7, 85
14, 27527, Control_c, 10, 7, 87
14, 27528, Control_c, 10, 7, 88
14, 27529, Control_c, 10, 7, 89
14, 27530, Control_c, 10, 7, 90
14, 27531, Control_c, 10, 7, 91
14, 27532, Control_c, 10, 7, 92
14, 27533, Control_c, 10, 7, 93
14, 27534, Control_c, 10, 7, 95
14, 27535, Control_c, 10, 7, 96
14, 27536, Control_c, 10, 7, 97
14, 27537, Control_c, 10, 7, 98
14, 27538, Control_c, 10, 7, 99
14, 27539, Control_c, 10, 7, 100
14, 27540, Control_c, 10, 7, 101
14, 27541, Control_c, 10, 7, 102
14, 27542, Control_c, 10, 7, 104
14, 27543, Control_c, 10, 7, 105
14, 27544, Control_c, 10, 7, 106
14, 27545, Control_c, 10, 7, 107
14, 27546, Control_c, 10, 7, 108
14, 27547, Control_c, 10, 7, 110
14, 27548, Control_c, 10, 7, 111
14, 27549, Control_c, 10, 7, 112
14, 27550, Control_c, 10, 7, 113
14, 27551, Control_c, 10, 7, 114
14, 27552, Note_off_c, 10, 27, 64
14, 27552, Note_off_c, 10, 51, 64
14, 27552, Note_off_c, 10, 39, 64
14, 27552, Control_c, 10, 7, 65
14, 27552, Note_on_c, 10, 39, 127
14, 27552, Note_on_c, 10, 51, 127
14, 27552, Note_on_c, 10, 27, 127
14, 27553, Control_c, 10, 7, 66
14, 27554, Control_c, 10, 7, 67
14, 27555, Control_c, 10, 7, 68
14, 27556, Control_c, 10, 7, 70
14, 27557, Control_c, 10, 7, 71
14, 27558, Control_c, 10, 7, 72
14, 27559, Control_c, 10, 7, 73
14, 27560, Control_c, 10, 7, 74
14, 27561, Control_c, 10, 7, 75
14, 27562, Control_c, 10, 7, 76
14, 27563, Control_c, 10, 7, 77
14, 27564, Control_c, 10, 7, 78
14, 27565, Control_c, 10, 7, 79
14, 27566, Control_c, 10, 7, 80
14, 27567, Control_c, 10, 7, 81
14, 27568, Control_c, 10, 7, 82
14, 27569, Control_c, 10, 7, 83
14, 27570, Control_c, 10, 7, 84
14, 27571, Control_c, 10, 7, 85
14, 27572, Control_c, 10, 7, 86
14, 27573, Control_c, 10, 7, 88
14, 27574, Control_c, 10, 7, 89
14, 27575, Control_c, 10, 7, 90
14, 27576, Control_c, 10, 7, 91
14, 27577, Control_c, 10, 7, 92
14, 27578, Control_c, 10, 7, 93
14, 27579, Control_c, 10, 7, 94
14, 27580, Control_c, 10, 7, 95
14, 27581, Control_c, 10, 7, 96
14, 27582, Control_c, 10, 7, 97
14, 27583, Control_c, 10, 7, 98
14, 27584, Control_c, 10, 7, 99
14, 27585, Control_c, 10, 7, 100
14, 27586, Control_c, 10, 7, 101
14, 27587, Control_c, 10, 7, 102
14, 27588, Control_c, 10, 7, 103
14, 27589, Control_c, 10, 7, 105
14, 27590, Control_c, 10, 7, 106
14, 27591, Control_c, 10, 7, 107
14, 27592, Control_c, 10, 7, 108
14, 27593, Control_c, 10, 7, 109
14, 27594, Control_c, 10, 7, 109
14, 27595, Control_c, 10, 7, 110
14, 27596, Control_c, 10, 7, 112
14, 27597, Control_c, 10, 7, 113
14, 27598, Control_c, 10, 7, 114
14, 27599, Control_c, 10, 7, 115
14, 27600, Note_off_c, 10, 27, 64
14, 27600, Note_off_c, 10, 51, 64
14, 27600, Note_off_c, 10, 39, 64
14, 27600, Control_c, 10, 7, 67
14, 27600, Note_on_c, 10, 39, 127
14, 27600, Note_on_c, 10, 51, 127
14, 27600, Note_on_c, 10, 27, 127
14, 27601, Control_c, 10, 7, 68
14, 27602, Control_c, 10, 7, 69
14, 27603, Control_c, 10, 7, 70
14, 27604, Control_c, 10, 7, 71
14, 27605, Control_c, 10, 7, 71
14, 27606, Control_c, 10, 7, 72
14, 27607, Control_c, 10, 7, 73
14, 27608, Control_c, 10, 7, 74
14, 27609, Control_c, 10, 7, 75
14, 27610, Control_c, 10, 7, 76
14, 27611, Control_c, 10, 7, 77
14, 27612, Control_c, 10, 7, 78
14, 27613, Control_c, 10, 7, 79
14, 27614, Control_c, 10, 7, 80
14, 27615, Control_c, 10, 7, 81
14, 27616, Control_c, 10, 7, 82
14, 27617, Control_c, 10, 7, 83
14, 27618, Control_c, 10, 7, 84
14, 27619, Control_c, 10, 7, 85
14, 27620, Control_c, 10, 7, 86
14, 27621, Control_c, 10, 7, 87
14, 27622, Control_c, 10, 7, 88
14, 27623, Control_c, 10, 7, 89
14, 27624, Control_c, 10, 7, 90
14, 27625, Control_c, 10, 7, 91
14, 27626, Control_c, 10, 7, 92
14, 27627, Control_c, 10, 7, 93
14, 27628, Control_c, 10, 7, 94
14, 27629, Control_c, 10, 7, 95
14, 27630, Control_c, 10, 7, 96
14, 27631, Control_c, 10, 7, 97
14, 27632, Control_c, 10, 7, 98
14, 27633, Control_c, 10, 7, 99
14, 27634, Control_c, 10, 7, 100
14, 27635, Control_c, 10, 7, 101
14, 27636, Control_c, 10, 7, 102
14, 27637, Control_c, 10, 7, 103
14, 27638, Control_c, 10, 7, 104
14, 27639, Control_c, 10, 7, 104
14, 27640, Control_c, 10, 7, 105
14, 27641, Control_c, 10, 7, 106
14, 27642, Control_c, 10, 7, 107
14, 27643, Control_c, 10, 7, 108
14, 27644, Control_c, 10, 7, 109
14, 27645, Control_c, 10, 7, 110
14, 27646, Control_c, 10, 7, 111
14, 27647, Control_c, 10, 7, 112
14, 27648, Note_off_c, 10, 27, 64
14, 27648, Note_off_c, 10, 51, 64
14, 27648, Note_off_c, 10, 39, 64
14, 27648, Control_c, 10, 7, 50
14, 27648, Note_on_c, 10, 41, 127
14, 27648, Note_on_c, 10, 29, 127
14, 27648, Note_on_c, 10, 53, 127
14, 27650, Control_c, 10, 7, 50
14, 27651, Control_c, 10, 7, 51
14, 27652, Control_c, 10, 7, 51
14, 27653, Control_c, 10, 7, 52
14, 27654, Control_c, 10, 7, 52
14, 27655, Control_c, 10, 7, 52
14, 27656, Control_c, 10, 7, 53
14, 27657, Control_c, 10, 7, 53
14, 27658, Control_c, 10, 7, 54
14, 27659, Control_c, 10, 7, 54
14, 27660, Control_c, 10, 7, 54
14, 27661, Control_c, 10, 7, 55
14, 27662, Control_c, 10, 7, 55
14, 27663, Control_c, 10, 7, 55
14, 27664, Control_c, 10, 7, 56
14, 27665, Control_c, 10, 7, 56
14, 27666, Control_c, 10, 7, 57
14, 27667, Control_c, 10, 7, 57
14, 27668, Control_c, 10, 7, 57
14, 27669, Control_c, 10, 7, 58
14, 27670, Control_c, 10, 7, 58
14, 27671, Control_c, 10, 7, 59
14, 27672, Control_c, 10, 7, 59
14, 27673, Control_c, 10, 7, 59
14, 27674, Control_c, 10, 7, 60
14, 27675, Control_c, 10, 7, 60
14, 27676, Control_c, 10, 7, 61
14, 27677, Control_c, 10, 7, 61
14, 27678, Control_c, 10, 7, 61
14, 27679, Control_c, 10, 7, 62
14, 27680, Control_c, 10, 7, 62
14, 27681, Control_c, 10, 7, 62
14, 27682, Control_c, 10, 7, 63
14, 27683, Control_c, 10, 7, 63
14, 27684, Control_c, 10, 7, 64
14, 27685, Control_c, 10, 7, 64
14, 27686, Control_c, 10, 7, 64
14, 27687, Control_c, 10, 7, 65
14, 27688, Control_c, 10, 7, 65
14, 27689, Control_c, 10, 7, 66
14, 27690, Control_c, 10, 7, 66
14, 27691, Control_c, 10, 7, 66
14, 27692, Control_c, 10, 7, 67
14, 27693, Control_c, 10, 7, 67
14, 27694, Control_c, 10, 7, 68
14, 27695, Control_c, 10, 7, 68
14, 27696, Control_c, 10, 7, 68
14, 27697, Control_c, 10, 7, 69
14, 27698, Control_c, 10, 7, 69
14, 27699, Control_c, 10, 7, 69
14, 27700, Control_c, 10, 7, 70
14, 27701, Control_c, 10, 7, 70
14, 27702, Control_c, 10, 7, 71
14, 27703, Control_c, 10, 7, 71
14, 27704, Control_c, 10, 7, 71
14, 27705, Control_c, 10, 7, 72
14, 27706, Control_c, 10, 7, 72
14, 27707, Control_c, 10, 7, 73
14, 27708, Control_c, 10, 7, 73
14, 27709, Control_c, 10, 7, 73
14, 27710, Control_c, 10, 7, 74
14, 27711, Control_c, 10, 7, 74
14, 27712, Control_c, 10, 7, 75
14, 27713, Control_c, 10, 7, 75
14, 27714, Control_c, 10, 7, 75
14, 27715, Control_c, 10, 7, 76
14, 27716, Control_c, 10, 7, 76
14, 27717, Control_c, 10, 7, 76
14, 27718, Control_c, 10, 7, 77
14, 27719, Control_c, 10, 7, 77
14, 27720, Control_c, 10, 7, 78
14, 27721, Control_c, 10, 7, 78
14, 27722, Control_c, 10, 7, 78
14, 27723, Control_c, 10, 7, 79
14, 27724, Control_c, 10, 7, 79
14, 27725, Control_c, 10, 7, 80
14, 27726, Control_c, 10, 7, 80
14, 27727, Control_c, 10, 7, 80
14, 27728, Control_c, 10, 7, 81
14, 27729, Control_c, 10, 7, 81
14, 27730, Control_c, 10, 7, 82
14, 27731, Control_c, 10, 7, 82
14, 27732, Control_c, 10, 7, 82
14, 27733, Control_c, 10, 7, 83
14, 27734, Control_c, 10, 7, 83
14, 27735, Control_c, 10, 7, 83
14, 27736, Control_c, 10, 7, 84
14, 27737, Control_c, 10, 7, 84
14, 27738, Control_c, 10, 7, 85
14, 27739, Control_c, 10, 7, 85
14, 27740, Control_c, 10, 7, 85
14, 27741, Control_c, 10, 7, 86
14, 27742, Control_c, 10, 7, 86
14, 27743, Control_c, 10, 7, 87
14, 27744, Control_c, 10, 7, 87
14, 27745, Control_c, 10, 7, 87
14, 27746, Control_c, 10, 7, 88
14, 27747, Control_c, 10, 7, 88
14, 27748, Control_c, 10, 7, 89
14, 27749, Control_c, 10, 7, 89
14, 27750, Control_c, 10, 7, 89
14, 27751, Control_c, 10, 7, 90
14, 27752, Control_c, 10, 7, 90
14, 27753, Control_c, 10, 7, 90
14, 27754, Control_c, 10, 7, 91
14, 27755, Control_c, 10, 7, 91
14, 27756, Control_c, 10, 7, 92
14, 27757, Control_c, 10, 7, 92
14, 27758, Control_c, 10, 7, 92
14, 27759, Control_c, 10, 7, 93
14, 27760, Control_c, 10, 7, 93
14, 27761, Control_c, 10, 7, 94
14, 27762, Control_c, 10, 7, 94
14, 27763, Control_c, 10, 7, 94
14, 27764, Control_c, 10, 7, 95
14, 27765, Control_c, 10, 7, 95
14, 27766, Control_c, 10, 7, 96
14, 27767, Control_c, 10, 7, 96
14, 27768, Control_c, 10, 7, 96
14, 27769, Control_c, 10, 7, 97
14, 27770, Control_c, 10, 7, 97
14, 27771, Control_c, 10, 7, 97
14, 27772, Control_c, 10, 7, 98
14, 27773, Control_c, 10, 7, 98
14, 27774, Control_c, 10, 7, 99
14, 27775, Control_c, 10, 7, 99
14, 27776, Control_c, 10, 7, 99
14, 27777, Control_c, 10, 7, 100
14, 27778, Control_c, 10, 7, 100
14, 27779, Control_c, 10, 7, 101
14, 27780, Control_c, 10, 7, 101
14, 27781, Control_c, 10, 7, 101
14, 27782, Control_c, 10, 7, 102
14, 27783, Control_c, 10, 7, 102
14, 27784, Control_c, 10, 7, 103
14, 27785, Control_c, 10, 7, 103
14, 27786, Control_c, 10, 7, 103
14, 27787, Control_c, 10, 7, 104
14, 27788, Control_c, 10, 7, 104
14, 27789, Control_c, 10, 7, 104
14, 27790, Control_c, 10, 7, 105
14, 27791, Control_c, 10, 7, 105
14, 27792, Note_off_c, 10, 53, 64
14, 27792, Note_off_c, 10, 29, 64
14, 27792, Note_off_c, 10, 41, 64
14, 27792, Control_c, 10, 7, 54
14, 27792, Note_on_c, 10, 43, 127
14, 27792, Note_on_c, 10, 31, 127
14, 27792, Note_on_c, 10, 55, 127
14, 27793, Control_c, 10, 7, 55
14, 27794, Control_c, 10, 7, 55
14, 27795, Control_c, 10, 7, 56
14, 27796, Control_c, 10, 7, 57
14, 27797, Control_c, 10, 7, 57
14, 27798, Control_c, 10, 7, 57
14, 27799, Control_c, 10, 7, 58
14, 27800, Control_c, 10, 7, 58
14, 27801, Control_c, 10, 7, 58
14, 27802, Control_c, 10, 7, 59
14, 27803, Control_c, 10, 7, 59
14, 27804, Control_c, 10, 7, 59
14, 27805, Control_c, 10, 7, 60
14, 27806, Control_c, 10, 7, 60
14, 27807, Control_c, 10, 7, 61
14, 27808, Control_c, 10, 7, 61
14, 27809, Control_c, 10, 7, 61
14, 27810, Control_c, 10, 7, 62
14, 27811, Control_c, 10, 7, 62
14, 27812, Control_c, 10, 7, 62
14, 27813, Control_c, 10, 7, 63
14, 27814, Control_c, 10, 7, 63
14, 27815, Control_c, 10, 7, 63
14, 27816, Control_c, 10, 7, 63
14, 27817, Control_c, 10, 7, 64
14, 27818, Control_c, 10, 7, 64
14, 27819, Control_c, 10, 7, 65
14, 27820, Control_c, 10, 7, 65
14, 27821, Control_c, 10, 7, 65
14, 27822, Control_c, 10, 7, 66
14, 27823, Control_c, 10, 7, 66
14, 27824, Control_c, 10, 7, 66
14, 27825, Control_c, 10, 7, 67
14, 27826, Control_c, 10, 7, 67
14, 27827, Control_c, 10, 7, 68
14, 27828, Control_c, 10, 7, 68
14, 27829, Control_c, 10, 7, 68
14, 27830, Control_c, 10, 7, 69
14, 27831, Control_c, 10, 7, 69
14, 27832, Control_c, 10, 7, 69
14, 27833, Control_c, 10, 7, 70
14, 27834, Control_c, 10, 7, 70
14, 27835, Control_c, 10, 7, 71
14, 27836, Control_c, 10, 7, 71
14, 27837, Control_c, 10, 7, 71
14, 27838, Control_c, 10, 7, 72
14, 27839, Control_c, 10, 7, 72
14, 27840, Control_c, 10, 7, 73
14, 27841, Control_c, 10, 7, 73
14, 27842, Control_c, 10, 7, 73
14, 27843, Control_c, 10, 7, 74
14, 27844, Control_c, 10, 7, 74
14, 27845, Control_c, 10, 7, 74
14, 27846, Control_c, 10, 7, 75
14, 27847, Control_c, 10, 7, 75
14, 27848, Control_c, 10, 7, 76
14, 27849, Control_c, 10, 7, 76
14, 27850, Control_c, 10, 7, 76
14, 27851, Control_c, 10, 7, 77
14, 27852, Control_c, 10, 7, 77
14, 27853, Control_c, 10, 7, 77
14, 27854, Control_c, 10, 7, 78
14, 27855, Control_c, 10, 7, 78
14, 27856, Control_c, 10, 7, 79
14, 27857, Control_c, 10, 7, 79
14, 27858, Control_c, 10, 7, 79
14, 27859, Control_c, 10, 7, 80
14, 27860, Control_c, 10, 7, 80
14, 27861, Control_c, 10, 7, 80
14, 27862, Control_c, 10, 7, 81
14, 27863, Control_c, 10, 7, 81
14, 27864, Control_c, 10, 7, 82
14, 27865, Control_c, 10, 7, 82
14, 27866, Control_c, 10, 7, 82
14, 27867, Control_c, 10, 7, 83
14, 27868, Control_c, 10, 7, 83
14, 27869, Control_c, 10, 7, 84
14, 27870, Control_c, 10, 7, 84
14, 27871, Control_c, 10, 7, 84
14, 27872, Control_c, 10, 7, 85
14, 27873, Control_c, 10, 7, 85
14, 27874, Control_c, 10, 7, 85
14, 27875, Control_c, 10, 7, 86
14, 27876, Control_c, 10, 7, 86
14, 27877, Control_c, 10, 7, 87
14, 27878, Control_c, 10, 7, 87
14, 27879, Control_c, 10, 7, 87
14, 27880, Control_c, 10, 7, 88
14, 27881, Control_c, 10, 7, 88
14, 27882, Control_c, 10, 7, 88
14, 27883, Control_c, 10, 7, 89
14, 27884, Control_c, 10, 7, 89
14, 27885, Control_c, 10, 7, 90
14, 27886, Control_c, 10, 7, 90
14, 27887, Control_c, 10, 7, 90
14, 27888, Control_c, 10, 7, 91
14, 27889, Control_c, 10, 7, 91
14, 27890, Control_c, 10, 7, 92
14, 27891, Control_c, 10, 7, 92
14, 27892, Control_c, 10, 7, 92
14, 27893, Control_c, 10, 7, 93
14, 27894, Control_c, 10, 7, 93
14, 27895, Control_c, 10, 7, 93
14, 27896, Control_c, 10, 7, 94
14, 27897, Control_c, 10, 7, 94
14, 27898, Control_c, 10, 7, 95
14, 27899, Control_c, 10, 7, 95
14, 27900, Control_c, 10, 7, 95
14, 27901, Control_c, 10, 7, 96
14, 27902, Control_c, 10, 7, 96
14, 27903, Control_c, 10, 7, 96
14, 27904, Control_c, 10, 7, 97
14, 27905, Control_c, 10, 7, 97
14, 27906, Control_c, 10, 7, 98
14, 27907, Control_c, 10, 7, 98
14, 27908, Control_c, 10, 7, 98
14, 27909, Control_c, 10, 7, 99
14, 27910, Control_c, 10, 7, 99
14, 27911, Control_c, 10, 7, 99
14, 27912, Control_c, 10, 7, 100
14, 27913, Control_c, 10, 7, 100
14, 27914, Control_c, 10, 7, 101
14, 27915, Control_c, 10, 7, 101
14, 27916, Control_c, 10, 7, 101
14, 27917, Control_c, 10, 7, 102
14, 27918, Control_c, 10, 7, 102
14, 27919, Control_c, 10, 7, 103
14, 27920, Control_c, 10, 7, 103
14, 27921, Control_c, 10, 7, 103
14, 27922, Control_c, 10, 7, 104
14, 27923, Control_c, 10, 7, 104
14, 27924, Control_c, 10, 7, 104
14, 27925, Control_c, 10, 7, 105
14, 27926, Control_c, 10, 7, 105
14, 27927, Control_c, 10, 7, 106
14, 27928, Control_c, 10, 7, 106
14, 27929, Control_c, 10, 7, 106
14, 27930, Control_c, 10, 7, 107
14, 27931, Control_c, 10, 7, 107
14, 27932, Control_c, 10, 7, 107
14, 27933, Control_c, 10, 7, 108
14, 27934, Control_c, 10, 7, 108
14, 27935, Control_c, 10, 7, 109
14, 27936, Note_off_c, 10, 55, 64
14, 27936, Note_off_c, 10, 31, 64
14, 27936, Note_off_c, 10, 43, 64
14, 27936, Control_c, 10, 7, 108
14, 27936, Note_on_c, 10, 39, 127
14, 27936, Note_on_c, 10, 27, 127
14, 27936, Note_on_c, 10, 51, 127
14, 27937, Control_c, 10, 7, 108
14, 27938, Control_c, 10, 7, 107
14, 27939, Control_c, 10, 7, 107
14, 27940, Control_c, 10, 7, 106
14, 27941, Control_c, 10, 7, 106
14, 27942, Control_c, 10, 7, 105
14, 27943, Control_c, 10, 7, 105
14, 27944, Control_c, 10, 7, 105
14, 27945, Control_c, 10, 7, 104
14, 27946, Control_c, 10, 7, 104
14, 27947, Control_c, 10, 7, 103
14, 27948, Control_c, 10, 7, 103
14, 27949, Control_c, 10, 7, 102
14, 27950, Control_c, 10, 7, 102
14, 27951, Control_c, 10, 7, 101
14, 27952, Control_c, 10, 7, 101
14, 27953, Control_c, 10, 7, 100
14, 27954, Control_c, 10, 7, 100
14, 27955, Control_c, 10, 7, 99
14, 27956, Control_c, 10, 7, 99
14, 27957, Control_c, 10, 7, 98
14, 27958, Control_c, 10, 7, 98
14, 27959, Control_c, 10, 7, 97
14, 27960, Control_c, 10, 7, 97
14, 27961, Control_c, 10, 7, 96
14, 27962, Control_c, 10, 7, 96
14, 27963, Control_c, 10, 7, 95
14, 27964, Control_c, 10, 7, 95
14, 27965, Control_c, 10, 7, 94
14, 27966, Control_c, 10, 7, 94
14, 27967, Control_c, 10, 7, 93
14, 27968, Control_c, 10, 7, 93
14, 27969, Control_c, 10, 7, 92
14, 27970, Control_c, 10, 7, 92
14, 27971, Control_c, 10, 7, 91
14, 27972, Control_c, 10, 7, 91
14, 27973, Control_c, 10, 7, 90
14, 27974, Control_c, 10, 7, 90
14, 27975, Control_c, 10, 7, 89
14, 27976, Control_c, 10, 7, 89
14, 27977, Control_c, 10, 7, 88
14, 27978, Control_c, 10, 7, 88
14, 27979, Control_c, 10, 7, 87
14, 27980, Control_c, 10, 7, 87
14, 27981, Control_c, 10, 7, 86
14, 27982, Control_c, 10, 7, 86
14, 27983, Control_c, 10, 7, 85
14, 27984, Control_c, 10, 7, 85
14, 27985, Control_c, 10, 7, 84
14, 27986, Control_c, 10, 7, 84
14, 27987, Control_c, 10, 7, 83
14, 27988, Control_c, 10, 7, 83
14, 27989, Control_c, 10, 7, 82
14, 27990, Control_c, 10, 7, 82
14, 27991, Control_c, 10, 7, 81
14, 27992, Control_c, 10, 7, 81
14, 27993, Control_c, 10, 7, 80
14, 27994, Control_c, 10, 7, 80
14, 27995, Control_c, 10, 7, 79
14, 27996, Control_c, 10, 7, 79
14, 27997, Control_c, 10, 7, 78
14, 27998, Control_c, 10, 7, 78
14, 27999, Control_c, 10, 7, 77
14, 28000, Control_c, 10, 7, 77
14, 28001, Control_c, 10, 7, 76
14, 28002, Control_c, 10, 7, 76
14, 28003, Control_c, 10, 7, 75
14, 28004, Control_c, 10, 7, 75
14, 28005, Control_c, 10, 7, 74
14, 28006, Control_c, 10, 7, 74
14, 28007, Control_c, 10, 7, 73
14, 28008, Control_c, 10, 7, 73
14, 28009, Control_c, 10, 7, 72
14, 28010, Control_c, 10, 7, 72
14, 28011, Control_c, 10, 7, 71
14, 28012, Control_c, 10, 7, 71
14, 28013, Control_c, 10, 7, 70
14, 28014, Control_c, 10, 7, 70
14, 28015, Control_c, 10, 7, 69
14, 28016, Control_c, 10, 7, 69
14, 28017, Control_c, 10, 7, 68
14, 28018, Control_c, 10, 7, 68
14, 28019, Control_c, 10, 7, 67
14, 28020, Control_c, 10, 7, 67
14, 28021, Control_c, 10, 7, 66
14, 28022, Control_c, 10, 7, 66
14, 28023, Control_c, 10, 7, 65
14, 28024, Control_c, 10, 7, 65
14, 28025, Control_c, 10, 7, 64
14, 28026, Control_c, 10, 7, 64
14, 28027, Control_c, 10, 7, 63
14, 28028, Control_c, 10, 7, 63
14, 28029, Control_c, 10, 7, 62
14, 28030, Control_c, 10, 7, 62
14, 28031, Control_c, 10, 7, 61
14, 28032, Control_c, 10, 7, 61
14, 28080, Note_off_c, 10, 51, 64
14, 28080, Note_off_c, 10, 27, 64
14, 28080, Note_off_c, 10, 39, 64
14, 28080, Control_c, 10, 7, 102
14, 28080, Note_on_c, 10, 39, 127
14, 28080, Note_on_c, 10, 27, 127
14, 28080, Note_on_c, 10, 51, 127
14, 28081, Control_c, 10, 7, 102
14, 28082, Control_c, 10, 7, 101
14, 28083, Control_c, 10, 7, 100
14, 28084, Control_c, 10, 7, 99
14, 28085, Control_c, 10, 7, 98
14, 28086, Control_c, 10, 7, 97
14, 28087, Control_c, 10, 7, 96
14, 28088, Control_c, 10, 7, 95
14, 28089, Control_c, 10, 7, 95
14, 28090, Control_c, 10, 7, 94
14, 28091, Control_c, 10, 7, 93
14, 28092, Control_c, 10, 7, 92
14, 28093, Control_c, 10, 7, 91
14, 28094, Control_c, 10, 7, 90
14, 28095, Control_c, 10, 7, 89
14, 28096, Control_c, 10, 7, 88
14, 28097, Control_c, 10, 7, 87
14, 28098, Control_c, 10, 7, 87
14, 28099, Control_c, 10, 7, 86
14, 28100, Control_c, 10, 7, 85
14, 28101, Control_c, 10, 7, 84
14, 28102, Control_c, 10, 7, 83
14, 28103, Control_c, 10, 7, 82
14, 28104, Control_c, 10, 7, 81
14, 28105, Control_c, 10, 7, 80
14, 28106, Control_c, 10, 7, 80
14, 28107, Control_c, 10, 7, 79
14, 28108, Control_c, 10, 7, 78
14, 28109, Control_c, 10, 7, 77
14, 28110, Control_c, 10, 7, 76
14, 28111, Control_c, 10, 7, 75
14, 28112, Control_c, 10, 7, 74
14, 28113, Control_c, 10, 7, 73
14, 28114, Control_c, 10, 7, 73
14, 28115, Control_c, 10, 7, 72
14, 28116, Control_c, 10, 7, 71
14, 28117, Control_c, 10, 7, 70
14, 28118, Control_c, 10, 7, 69
14, 28119, Control_c, 10, 7, 68
14, 28120, Control_c, 10, 7, 67
14, 28121, Control_c, 10, 7, 66
14, 28122, Control_c, 10, 7, 66
14, 28123, Control_c, 10, 7, 65
14, 28124, Control_c, 10, 7, 64
14, 28125, Control_c, 10, 7, 63
14, 28126, Control_c, 10, 7, 62
14, 28127, Control_c, 10, 7, 61
14, 28128, Note_off_c, 10, 51, 64
14, 28128, Note_off_c, 10, 27, 64
14, 28128, Note_off_c, 10, 39, 64
14, 28128, Control_c, 10, 7, 102
14, 28128, Note_on_c, 10, 39, 127
14, 28128, Note_on_c, 10, 27, 127
14, 28128, Note_on_c, 10, 51, 127
14, 28129, Control_c, 10, 7, 102
14, 28130, Control_c, 10, 7, 101
14, 28131, Control_c, 10, 7, 100
14, 28132, Control_c, 10, 7, 99
14, 28133, Control_c, 10, 7, 98
14, 28134, Control_c, 10, 7, 97
14, 28135, Control_c, 10, 7, 96
14, 28136, Control_c, 10, 7, 96
14, 28137, Control_c, 10, 7, 95
14, 28138, Control_c, 10, 7, 94
14, 28139, Control_c, 10, 7, 93
14, 28140, Control_c, 10, 7, 92
14, 28141, Control_c, 10, 7, 91
14, 28142, Control_c, 10, 7, 91
14, 28143, Control_c, 10, 7, 90
14, 28144, Control_c, 10, 7, 89
14, 28145, Control_c, 10, 7, 88
14, 28146, Control_c, 10, 7, 87
14, 28147, Control_c, 10, 7, 86
14, 28148, Control_c, 10, 7, 85
14, 28149, Control_c, 10, 7, 85
14, 28150, Control_c, 10, 7, 84
14, 28151, Control_c, 10, 7, 83
14, 28152, Control_c, 10, 7, 82
14, 28153, Control_c, 10, 7, 81
14, 28154, Control_c, 10, 7, 80
14, 28155, Control_c, 10, 7, 80
14, 28156, Control_c, 10, 7, 79
14, 28157, Control_c, 10, 7, 78
14, 28158, Control_c, 10, 7, 77
14, 28159, Control_c, 10, 7, 76
14, 28160, Control_c, 10, 7, 75
14, 28161, Control_c, 10, 7, 74
14, 28162, Control_c, 10, 7, 74
14, 28163, Control_c, 10, 7, 73
14, 28164, Control_c, 10, 7, 72
14, 28165, Control_c, 10, 7, 71
14, 28166, Control_c, 10, 7, 70
14, 28167, Control_c, 10, 7, 69
14, 28168, Control_c, 10, 7, 68
14, 28169, Control_c, 10, 7, 68
14, 28170, Control_c, 10, 7, 67
14, 28171, Control_c, 10, 7, 66
14, 28172, Control_c, 10, 7, 65
14, 28173, Control_c, 10, 7, 64
14, 28174, Control_c, 10, 7, 102
14, 28175, Control_c, 10, 7, 102
14, 28176, Note_off_c, 10, 39, 64
14, 28176, Note_off_c, 10, 51, 64
14, 28176, Note_off_c, 10, 27, 64
14, 28176, Control_c, 10, 7, 101
14, 28176, Note_on_c, 10, 39, 127
14, 28176, Note_on_c, 10, 27, 127
14, 28176, Note_on_c, 10, 51, 127
14, 28177, Control_c, 10, 7, 100
14, 28178, Control_c, 10, 7, 99
14, 28179, Control_c, 10, 7, 98
14, 28180, Control_c, 10, 7, 97
14, 28181, Control_c, 10, 7, 97
14, 28182, Control_c, 10, 7, 96
14, 28183, Control_c, 10, 7, 95
14, 28184, Control_c, 10, 7, 94
14, 28185, Control_c, 10, 7, 93
14, 28186, Control_c, 10, 7, 93
14, 28187, Control_c, 10, 7, 92
14, 28188, Control_c, 10, 7, 91
14, 28189, Control_c, 10, 7, 90
14, 28190, Control_c, 10, 7, 89
14, 28191, Control_c, 10, 7, 88
14, 28192, Control_c, 10, 7, 88
14, 28193, Control_c, 10, 7, 87
14, 28194, Control_c, 10, 7, 86
14, 28195, Control_c, 10, 7, 85
14, 28196, Control_c, 10, 7, 84
14, 28197, Control_c, 10, 7, 84
14, 28198, Control_c, 10, 7, 83
14, 28199, Control_c, 10, 7, 82
14, 28200, Control_c, 10, 7, 81
14, 28201, Control_c, 10, 7, 80
14, 28202, Control_c, 10, 7, 79
14, 28203, Control_c, 10, 7, 79
14, 28204, Control_c, 10, 7, 78
14, 28205, Control_c, 10, 7, 77
14, 28206, Control_c, 10, 7, 76
14, 28207, Control_c, 10, 7, 75
14, 28208, Control_c, 10, 7, 75
14, 28209, Control_c, 10, 7, 74
14, 28210, Control_c, 10, 7, 73
14, 28211, Control_c, 10, 7, 72
14, 28212, Control_c, 10, 7, 71
14, 28213, Control_c, 10, 7, 70
14, 28214, Control_c, 10, 7, 70
14, 28215, Control_c, 10, 7, 69
14, 28216, Control_c, 10, 7, 68
14, 28217, Control_c, 10, 7, 67
14, 28218, Control_c, 10, 7, 66
14, 28219, Control_c, 10, 7, 66
14, 28220, Control_c, 10, 7, 65
14, 28221, Control_c, 10, 7, 64
14, 28222, Control_c, 10, 7, 63
14, 28223, Control_c, 10, 7, 62
14, 28224, Note_off_c, 10, 39, 64
14, 28224, Note_off_c, 10, 51, 64
14, 28224, Note_off_c, 10, 27, 64
14, 28224, Control_c, 10, 7, 102
14, 28224, Note_on_c, 10, 39, 127
14, 28224, Note_on_c, 10, 27, 127
14, 28224, Note_on_c, 10, 51, 127
14, 28225, Control_c, 10, 7, 102
14, 28226, Control_c, 10, 7, 101
14, 28227, Control_c, 10, 7, 100
14, 28228, Control_c, 10, 7, 99
14, 28229, Control_c, 10, 7, 98
14, 28230, Control_c, 10, 7, 97
14, 28231, Control_c, 10, 7, 96
14, 28232, Control_c, 10, 7, 95
14, 28233, Control_c, 10, 7, 94
14, 28234, Control_c, 10, 7, 94
14, 28235, Control_c, 10, 7, 93
14, 28236, Control_c, 10, 7, 92
14, 28237, Control_c, 10, 7, 91
14, 28238, Control_c, 10, 7, 90
14, 28239, Control_c, 10, 7, 89
14, 28240, Control_c, 10, 7, 88
14, 28241, Control_c, 10, 7, 87
14, 28242, Control_c, 10, 7, 86
14, 28243, Control_c, 10, 7, 86
14, 28244, Control_c, 10, 7, 85
14, 28245, Control_c, 10, 7, 84
14, 28246, Control_c, 10, 7, 83
14, 28247, Control_c, 10, 7, 82
14, 28248, Control_c, 10, 7, 81
14, 28249, Control_c, 10, 7, 80
14, 28250, Control_c, 10, 7, 79
14, 28251, Control_c, 10, 7, 78
14, 28252, Control_c, 10, 7, 78
14, 28253, Control_c, 10, 7, 77
14, 28254, Control_c, 10, 7, 76
14, 28255, Control_c, 10, 7, 75
14, 28256, Control_c, 10, 7, 74
14, 28257, Control_c, 10, 7, 73
14, 28258, Control_c, 10, 7, 72
14, 28259, Control_c, 10, 7, 71
14, 28260, Control_c, 10, 7, 70
14, 28261, Control_c, 10, 7, 69
14, 28262, Control_c, 10, 7, 69
14, 28263, Control_c, 10, 7, 68
14, 28264, Control_c, 10, 7, 67
14, 28265, Control_c, 10, 7, 66
14, 28266, Control_c, 10, 7, 65
14, 28267, Control_c, 10, 7, 64
14, 28268, Control_c, 10, 7, 63
14, 28269, Control_c, 10, 7, 62
14, 28270, Control_c, 10, 7, 61
14, 28271, Control_c, 10, 7, 61
14, 28272, Note_off_c, 10, 51, 64
14, 28272, Note_off_c, 10, 27, 64
14, 28272, Note_off_c, 10, 39, 64
14, 28272, Note_on_c, 10, 39, 127
14, 28272, Note_on_c, 10, 27, 127
14, 28272, Note_on_c, 10, 51, 127
14, 28273, Control_c, 10, 7, 103
14, 28274, Control_c, 10, 7, 102
14, 28275, Control_c, 10, 7, 101
14, 28276, Control_c, 10, 7, 100
14, 28277, Control_c, 10, 7, 99
14, 28278, Control_c, 10, 7, 99
14, 28279, Control_c, 10, 7, 98
14, 28280, Control_c, 10, 7, 97
14, 28281, Control_c, 10, 7, 96
14, 28282, Control_c, 10, 7, 95
14, 28283, Control_c, 10, 7, 94
14, 28284, Control_c, 10, 7, 93
14, 28285, Control_c, 10, 7, 93
14, 28286, Control_c, 10, 7, 92
14, 28287, Control_c, 10, 7, 91
14, 28288, Control_c, 10, 7, 90
14, 28289, Control_c, 10, 7, 89
14, 28290, Control_c, 10, 7, 88
14, 28291, Control_c, 10, 7, 87
14, 28292, Control_c, 10, 7, 87
14, 28293, Control_c, 10, 7, 86
14, 28294, Control_c, 10, 7, 85
14, 28295, Control_c, 10, 7, 84
14, 28296, Control_c, 10, 7, 83
14, 28297, Control_c, 10, 7, 82
14, 28298, Control_c, 10, 7, 81
14, 28299, Control_c, 10, 7, 81
14, 28300, Control_c, 10, 7, 80
14, 28301, Control_c, 10, 7, 79
14, 28302, Control_c, 10, 7, 78
14, 28303, Control_c, 10, 7, 77
14, 28304, Control_c, 10, 7, 76
14, 28305, Control_c, 10, 7, 75
14, 28306, Control_c, 10, 7, 75
14, 28307, Control_c, 10, 7, 74
14, 28308, Control_c, 10, 7, 73
14, 28309, Control_c, 10, 7, 72
14, 28310, Control_c, 10, 7, 71
14, 28311, Control_c, 10, 7, 70
14, 28312, Control_c, 10, 7, 69
14, 28313, Control_c, 10, 7, 69
14, 28314, Control_c, 10, 7, 68
14, 28315, Control_c, 10, 7, 67
14, 28316, Control_c, 10, 7, 66
14, 28317, Control_c, 10, 7, 65
14, 28318, Control_c, 10, 7, 64
14, 28319, Control_c, 10, 7, 64
14, 28320, Note_off_c, 10, 39, 64
14, 28320, Note_off_c, 10, 51, 64
14, 28320, Note_off_c, 10, 27, 64
14, 28320, Note_on_c, 10, 39, 127
14, 28320, Note_on_c, 10, 27, 127
14, 28320, Note_on_c, 10, 51, 127
14, 28321, Control_c, 10, 7, 104
14, 28322, Control_c, 10, 7, 103
14, 28323, Control_c, 10, 7, 102
14, 28324, Control_c, 10, 7, 101
14, 28325, Control_c, 10, 7, 100
14, 28326, Control_c, 10, 7, 99
14, 28327, Control_c, 10, 7, 98
14, 28328, Control_c, 10, 7, 98
14, 28329, Control_c, 10, 7, 97
14, 28330, Control_c, 10, 7, 96
14, 28331, Control_c, 10, 7, 95
14, 28332, Control_c, 10, 7, 94
14, 28333, Control_c, 10, 7, 93
14, 28334, Control_c, 10, 7, 93
14, 28335, Control_c, 10, 7, 92
14, 28336, Control_c, 10, 7, 91
14, 28337, Control_c, 10, 7, 90
14, 28338, Control_c, 10, 7, 89
14, 28339, Control_c, 10, 7, 88
14, 28340, Control_c, 10, 7, 87
14, 28341, Control_c, 10, 7, 87
14, 28342, Control_c, 10, 7, 86
14, 28343, Control_c, 10, 7, 85
14, 28344, Control_c, 10, 7, 84
14, 28345, Control_c, 10, 7, 83
14, 28346, Control_c, 10, 7, 82
14, 28347, Control_c, 10, 7, 82
14, 28348, Control_c, 10, 7, 81
14, 28349, Control_c, 10, 7, 80
14, 28350, Control_c, 10, 7, 79
14, 28351, Control_c, 10, 7, 78
14, 28352, Control_c, 10, 7, 77
14, 28353, Control_c, 10, 7, 76
14, 28354, Control_c, 10, 7, 76
14, 28355, Control_c, 10, 7, 75
14, 28356, Control_c, 10, 7, 74
14, 28357, Control_c, 10, 7, 73
14, 28358, Control_c, 10, 7, 72
14, 28359, Control_c, 10, 7, 71
14, 28360, Control_c, 10, 7, 71
14, 28361, Control_c, 10, 7, 70
14, 28362, Control_c, 10, 7, 69
14, 28363, Control_c, 10, 7, 68
14, 28364, Control_c, 10, 7, 67
14, 28365, Control_c, 10, 7, 66
14, 28366, Control_c, 10, 7, 65
14, 28367, Control_c, 10, 7, 102
14, 28368, Note_off_c, 10, 51, 64
14, 28368, Note_off_c, 10, 27, 64
14, 28368, Note_off_c, 10, 39, 64
14, 28368, Control_c, 10, 7, 102
14, 28368, Note_on_c, 10, 39, 127
14, 28368, Note_on_c, 10, 27, 127
14, 28368, Note_on_c, 10, 51, 127
14, 28369, Control_c, 10, 7, 101
14, 28370, Control_c, 10, 7, 100
14, 28371, Control_c, 10, 7, 99
14, 28372, Control_c, 10, 7, 98
14, 28373, Control_c, 10, 7, 97
14, 28374, Control_c, 10, 7, 96
14, 28375, Control_c, 10, 7, 96
14, 28376, Control_c, 10, 7, 95
14, 28377, Control_c, 10, 7, 94
14, 28378, Control_c, 10, 7, 93
14, 28379, Control_c, 10, 7, 92
14, 28380, Control_c, 10, 7, 91
14, 28381, Control_c, 10, 7, 90
14, 28382, Control_c, 10, 7, 89
14, 28383, Control_c, 10, 7, 89
14, 28384, Control_c, 10, 7, 88
14, 28385, Control_c, 10, 7, 87
14, 28386, Control_c, 10, 7, 86
14, 28387, Control_c, 10, 7, 85
14, 28388, Control_c, 10, 7, 84
14, 28389, Control_c, 10, 7, 83
14, 28390, Control_c, 10, 7, 83
14, 28391, Control_c, 10, 7, 82
14, 28392, Control_c, 10, 7, 81
14, 28393, Control_c, 10, 7, 80
14, 28394, Control_c, 10, 7, 79
14, 28395, Control_c, 10, 7, 78
14, 28396, Control_c, 10, 7, 77
14, 28397, Control_c, 10, 7, 77
14, 28398, Control_c, 10, 7, 76
14, 28399, Control_c, 10, 7, 75
14, 28400, Control_c, 10, 7, 74
14, 28401, Control_c, 10, 7, 73
14, 28402, Control_c, 10, 7, 72
14, 28403, Control_c, 10, 7, 71
14, 28404, Control_c, 10, 7, 71
14, 28405, Control_c, 10, 7, 70
14, 28406, Control_c, 10, 7, 69
14, 28407, Control_c, 10, 7, 68
14, 28408, Control_c, 10, 7, 67
14, 28409, Control_c, 10, 7, 66
14, 28410, Control_c, 10, 7, 65
14, 28411, Control_c, 10, 7, 65
14, 28412, Control_c, 10, 7, 64
14, 28413, Control_c, 10, 7, 63
14, 28416, Note_off_c, 10, 51, 64
14, 28416, Note_off_c, 10, 27, 64
14, 28416, Note_off_c, 10, 39, 64
14, 28416, Control_c, 10, 7, 113
14, 28416, Note_on_c, 10, 39, 127
14, 28416, Note_on_c, 10, 27, 127
14, 28416, Note_on_c, 10, 51, 127
14, 28417, Control_c, 10, 7, 113
14, 28418, Control_c, 10, 7, 112
14, 28419, Control_c, 10, 7, 112
14, 28420, Control_c, 10, 7, 112
14, 28421, Control_c, 10, 7, 111
14, 28422, Control_c, 10, 7, 111
14, 28423, Control_c, 10, 7, 110
14, 28424, Control_c, 10, 7, 110
14, 28425, Control_c, 10, 7, 110
14, 28426, Control_c, 10, 7, 109
14, 28427, Control_c, 10, 7, 109
14, 28428, Control_c, 10, 7, 109
14, 28429, Control_c, 10, 7, 108
14, 28430, Control_c, 10, 7, 108
14, 28431, Control_c, 10, 7, 108
14, 28432, Control_c, 10, 7, 107
14, 28433, Control_c, 10, 7, 107
14, 28434, Control_c, 10, 7, 107
14, 28435, Control_c, 10, 7, 106
14, 28436, Control_c, 10, 7, 106
14, 28437, Control_c, 10, 7, 106
14, 28438, Control_c, 10, 7, 105
14, 28439, Control_c, 10, 7, 105
14, 28440, Control_c, 10, 7, 104
14, 28441, Control_c, 10, 7, 104
14, 28442, Control_c, 10, 7, 104
14, 28443, Control_c, 10, 7, 103
14, 28444, Control_c, 10, 7, 103
14, 28445, Control_c, 10, 7, 103
14, 28446, Control_c, 10, 7, 102
14, 28447, Control_c, 10, 7, 102
14, 28448, Control_c, 10, 7, 102
14, 28449, Control_c, 10, 7, 101
14, 28450, Control_c, 10, 7, 101
14, 28451, Control_c, 10, 7, 101
14, 28452, Control_c, 10, 7, 100
14, 28453, Control_c, 10, 7, 100
14, 28454, Control_c, 10, 7, 100
14, 28455, Control_c, 10, 7, 99
14, 28456, Control_c, 10, 7, 99
14, 28457, Control_c, 10, 7, 98
14, 28458, Control_c, 10, 7, 98
14, 28459, Control_c, 10, 7, 98
14, 28460, Control_c, 10, 7, 97
14, 28461, Control_c, 10, 7, 97
14, 28462, Control_c, 10, 7, 97
14, 28463, Control_c, 10, 7, 96
14, 28464, Control_c, 10, 7, 96
14, 28465, Control_c, 10, 7, 96
14, 28466, Control_c, 10, 7, 95
14, 28467, Control_c, 10, 7, 95
14, 28468, Control_c, 10, 7, 95
14, 28469, Control_c, 10, 7, 94
14, 28470, Control_c, 10, 7, 94
14, 28471, Control_c, 10, 7, 94
14, 28472, Control_c, 10, 7, 93
14, 28473, Control_c, 10, 7, 93
14, 28474, Control_c, 10, 7, 92
14, 28475, Control_c, 10, 7, 92
14, 28476, Control_c, 10, 7, 92
14, 28477, Control_c, 10, 7, 91
14, 28478, Control_c, 10, 7, 91
14, 28479, Control_c, 10, 7, 91
14, 28480, Control_c, 10, 7, 90
14, 28481, Control_c, 10, 7, 90
14, 28482, Control_c, 10, 7, 90
14, 28483, Control_c, 10, 7, 89
14, 28484, Control_c, 10, 7, 89
14, 28485, Control_c, 10, 7, 89
14, 28486, Control_c, 10, 7, 88
14, 28487, Control_c, 10, 7, 88
14, 28488, Control_c, 10, 7, 88
14, 28489, Control_c, 10, 7, 87
14, 28490, Control_c, 10, 7, 87
14, 28491, Control_c, 10, 7, 86
14, 28492, Control_c, 10, 7, 86
14, 28493, Control_c, 10, 7, 86
14, 28494, Control_c, 10, 7, 85
14, 28495, Control_c, 10, 7, 85
14, 28496, Control_c, 10, 7, 85
14, 28497, Control_c, 10, 7, 84
14, 28498, Control_c, 10, 7, 84
14, 28499, Control_c, 10, 7, 84
14, 28500, Control_c, 10, 7, 83
14, 28501, Control_c, 10, 7, 83
14, 28502, Control_c, 10, 7, 83
14, 28503, Control_c, 10, 7, 82
14, 28504, Control_c, 10, 7, 82
14, 28505, Control_c, 10, 7, 82
14, 28506, Control_c, 10, 7, 81
14, 28507, Control_c, 10, 7, 81
14, 28508, Control_c, 10, 7, 80
14, 28509, Control_c, 10, 7, 80
14, 28510, Control_c, 10, 7, 80
14, 28511, Control_c, 10, 7, 79
14, 28512, Control_c, 10, 7, 79
14, 28513, Control_c, 10, 7, 79
14, 28514, Control_c, 10, 7, 78
14, 28515, Control_c, 10, 7, 78
14, 28516, Control_c, 10, 7, 78
14, 28517, Control_c, 10, 7, 77
14, 28518, Control_c, 10, 7, 77
14, 28519, Control_c, 10, 7, 77
14, 28520, Control_c, 10, 7, 76
14, 28521, Control_c, 10, 7, 76
14, 28522, Control_c, 10, 7, 76
14, 28523, Control_c, 10, 7, 75
14, 28524, Control_c, 10, 7, 75
14, 28525, Control_c, 10, 7, 74
14, 28526, Control_c, 10, 7, 74
14, 28527, Control_c, 10, 7, 74
14, 28528, Control_c, 10, 7, 73
14, 28529, Control_c, 10, 7, 73
14, 28530, Control_c, 10, 7, 73
14, 28531, Control_c, 10, 7, 72
14, 28532, Control_c, 10, 7, 72
14, 28533, Control_c, 10, 7, 72
14, 28534, Control_c, 10, 7, 71
14, 28535, Control_c, 10, 7, 71
14, 28536, Control_c, 10, 7, 71
14, 28537, Control_c, 10, 7, 70
14, 28538, Control_c, 10, 7, 70
14, 28539, Control_c, 10, 7, 70
14, 28540, Control_c, 10, 7, 69
14, 28541, Control_c, 10, 7, 69
14, 28542, Control_c, 10, 7, 68
14, 28543, Control_c, 10, 7, 68
14, 28544, Control_c, 10, 7, 68
14, 28545, Control_c, 10, 7, 67
14, 28546, Control_c, 10, 7, 67
14, 28547, Control_c, 10, 7, 67
14, 28548, Control_c, 10, 7, 66
14, 28549, Control_c, 10, 7, 66
14, 28550, Control_c, 10, 7, 66
14, 28551, Control_c, 10, 7, 65
14, 28552, Control_c, 10, 7, 65
14, 28553, Control_c, 10, 7, 65
14, 28554, Control_c, 10, 7, 64
14, 28555, Control_c, 10, 7, 64
14, 28556, Control_c, 10, 7, 64
14, 28557, Control_c, 10, 7, 63
14, 28558, Control_c, 10, 7, 111
14, 28559, Control_c, 10, 7, 111
14, 28560, Note_off_c, 10, 51, 64
14, 28560, Note_off_c, 10, 27, 64
14, 28560, Note_off_c, 10, 39, 64
14, 28560, Control_c, 10, 7, 110
14, 28560, Note_on_c, 10, 39, 127
14, 28560, Note_on_c, 10, 51, 127
14, 28560, Note_on_c, 10, 27, 127
14, 28561, Control_c, 10, 7, 110
14, 28562, Control_c, 10, 7, 110
14, 28563, Control_c, 10, 7, 109
14, 28564, Control_c, 10, 7, 109
14, 28565, Control_c, 10, 7, 109
14, 28566, Control_c, 10, 7, 109
14, 28567, Control_c, 10, 7, 108
14, 28568, Control_c, 10, 7, 108
14, 28569, Control_c, 10, 7, 108
14, 28570, Control_c, 10, 7, 107
14, 28571, Control_c, 10, 7, 107
14, 28572, Control_c, 10, 7, 107
14, 28573, Control_c, 10, 7, 106
14, 28574, Control_c, 10, 7, 106
14, 28575, Control_c, 10, 7, 106
14, 28576, Control_c, 10, 7, 105
14, 28577, Control_c, 10, 7, 105
14, 28578, Control_c, 10, 7, 105
14, 28579, Control_c, 10, 7, 104
14, 28580, Control_c, 10, 7, 104
14, 28581, Control_c, 10, 7, 104
14, 28582, Control_c, 10, 7, 103
14, 28583, Control_c, 10, 7, 103
14, 28584, Control_c, 10, 7, 103
14, 28585, Control_c, 10, 7, 102
14, 28586, Control_c, 10, 7, 102
14, 28587, Control_c, 10, 7, 102
14, 28588, Control_c, 10, 7, 101
14, 28589, Control_c, 10, 7, 101
14, 28590, Control_c, 10, 7, 101
14, 28591, Control_c, 10, 7, 100
14, 28592, Control_c, 10, 7, 100
14, 28593, Control_c, 10, 7, 100
14, 28594, Control_c, 10, 7, 99
14, 28595, Control_c, 10, 7, 99
14, 28596, Control_c, 10, 7, 99
14, 28597, Control_c, 10, 7, 98
14, 28598, Control_c, 10, 7, 98
14, 28599, Control_c, 10, 7, 98
14, 28600, Control_c, 10, 7, 97
14, 28601, Control_c, 10, 7, 97
14, 28602, Control_c, 10, 7, 97
14, 28603, Control_c, 10, 7, 96
14, 28604, Control_c, 10, 7, 96
14, 28605, Control_c, 10, 7, 96
14, 28606, Control_c, 10, 7, 95
14, 28607, Control_c, 10, 7, 95
14, 28608, Control_c, 10, 7, 95
14, 28609, Control_c, 10, 7, 94
14, 28610, Control_c, 10, 7, 94
14, 28611, Control_c, 10, 7, 94
14, 28612, Control_c, 10, 7, 93
14, 28613, Control_c, 10, 7, 93
14, 28614, Control_c, 10, 7, 93
14, 28615, Control_c, 10, 7, 92
14, 28616, Control_c, 10, 7, 92
14, 28617, Control_c, 10, 7, 92
14, 28618, Control_c, 10, 7, 91
14, 28619, Control_c, 10, 7, 91
14, 28620, Control_c, 10, 7, 91
14, 28621, Control_c, 10, 7, 90
14, 28622, Control_c, 10, 7, 90
14, 28623, Control_c, 10, 7, 90
14, 28624, Control_c, 10, 7, 89
14, 28625, Control_c, 10, 7, 89
14, 28626, Control_c, 10, 7, 89
14, 28627, Control_c, 10, 7, 88
14, 28628, Control_c, 10, 7, 88
14, 28629, Control_c, 10, 7, 88
14, 28630, Control_c, 10, 7, 87
14, 28631, Control_c, 10, 7, 87
14, 28632, Control_c, 10, 7, 87
14, 28633, Control_c, 10, 7, 86
14, 28634, Control_c, 10, 7, 86
14, 28635, Control_c, 10, 7, 86
14, 28636, Control_c, 10, 7, 85
14, 28637, Control_c, 10, 7, 85
14, 28638, Control_c, 10, 7, 85
14, 28639, Control_c, 10, 7, 84
14, 28640, Control_c, 10, 7, 84
14, 28641, Control_c, 10, 7, 84
14, 28642, Control_c, 10, 7, 83
14, 28643, Control_c, 10, 7, 83
14, 28644, Control_c, 10, 7, 83
14, 28645, Control_c, 10, 7, 82
14, 28646, Control_c, 10, 7, 82
14, 28647, Control_c, 10, 7, 82
14, 28648, Control_c, 10, 7, 81
14, 28649, Control_c, 10, 7, 81
14, 28650, Control_c, 10, 7, 81
14, 28651, Control_c, 10, 7, 80
14, 28652, Control_c, 10, 7, 80
14, 28653, Control_c, 10, 7, 80
14, 28654, Control_c, 10, 7, 79
14, 28655, Control_c, 10, 7, 79
14, 28656, Control_c, 10, 7, 79
14, 28657, Control_c, 10, 7, 78
14, 28658, Control_c, 10, 7, 78
14, 28659, Control_c, 10, 7, 78
14, 28660, Control_c, 10, 7, 77
14, 28661, Control_c, 10, 7, 77
14, 28662, Control_c, 10, 7, 77
14, 28663, Control_c, 10, 7, 76
14, 28664, Control_c, 10, 7, 76
14, 28665, Control_c, 10, 7, 76
14, 28666, Control_c, 10, 7, 75
14, 28667, Control_c, 10, 7, 75
14, 28668, Control_c, 10, 7, 75
14, 28669, Control_c, 10, 7, 74
14, 28670, Control_c, 10, 7, 74
14, 28671, Control_c, 10, 7, 74
14, 28672, Control_c, 10, 7, 73
14, 28673, Control_c, 10, 7, 73
14, 28674, Control_c, 10, 7, 73
14, 28675, Control_c, 10, 7, 72
14, 28676, Control_c, 10, 7, 72
14, 28677, Control_c, 10, 7, 72
14, 28678, Control_c, 10, 7, 71
14, 28679, Control_c, 10, 7, 71
14, 28680, Control_c, 10, 7, 71
14, 28681, Control_c, 10, 7, 70
14, 28682, Control_c, 10, 7, 70
14, 28683, Control_c, 10, 7, 70
14, 28684, Control_c, 10, 7, 69
14, 28685, Control_c, 10, 7, 69
14, 28686, Control_c, 10, 7, 69
14, 28687, Control_c, 10, 7, 68
14, 28688, Control_c, 10, 7, 68
14, 28689, Control_c, 10, 7, 68
14, 28690, Control_c, 10, 7, 67
14, 28691, Control_c, 10, 7, 67
14, 28692, Control_c, 10, 7, 67
14, 28693, Control_c, 10, 7, 66
14, 28694, Control_c, 10, 7, 66
14, 28695, Control_c, 10, 7, 66
14, 28696, Control_c, 10, 7, 65
14, 28697, Control_c, 10, 7, 65
14, 28698, Control_c, 10, 7, 65
14, 28699, Control_c, 10, 7, 64
14, 28700, Control_c, 10, 7, 64
14, 28701, Control_c, 10, 7, 64
14, 28702, Control_c, 10, 7, 63
14, 28703, Control_c, 10, 7, 63
14, 28704, Note_off_c, 10, 27, 64
14, 28704, Note_off_c, 10, 51, 64
14, 28704, Note_off_c, 10, 39, 64
14, 28704, Control_c, 10, 7, 64
14, 28704, Note_on_c, 10, 39, 127
14, 28704, Note_on_c, 10, 51, 127
14, 28704, Note_on_c, 10, 27, 127
14, 28705, Control_c, 10, 7, 64
14, 28706, Control_c, 10, 7, 65
14, 28707, Control_c, 10, 7, 65
14, 28708, Control_c, 10, 7, 66
14, 28709, Control_c, 10, 7, 66
14, 28710, Control_c, 10, 7, 67
14, 28711, Control_c, 10, 7, 67
14, 28712, Control_c, 10, 7, 68
14, 28713, Control_c, 10, 7, 68
14, 28714, Control_c, 10, 7, 69
14, 28715, Control_c, 10, 7, 69
14, 28716, Control_c, 10, 7, 70
14, 28717, Control_c, 10, 7, 70
14, 28718, Control_c, 10, 7, 71
14, 28719, Control_c, 10, 7, 71
14, 28720, Control_c, 10, 7, 72
14, 28721, Control_c, 10, 7, 72
14, 28722, Control_c, 10, 7, 73
14, 28723, Control_c, 10, 7, 73
14, 28724, Control_c, 10, 7, 74
14, 28725, Control_c, 10, 7, 74
14, 28726, Control_c, 10, 7, 75
14, 28727, Control_c, 10, 7, 75
14, 28728, Control_c, 10, 7, 76
14, 28729, Control_c, 10, 7, 76
14, 28730, Control_c, 10, 7, 77
14, 28731, Control_c, 10, 7, 77
14, 28732, Control_c, 10, 7, 78
14, 28733, Control_c, 10, 7, 78
14, 28734, Control_c, 10, 7, 79
14, 28735, Control_c, 10, 7, 79
14, 28736, Control_c, 10, 7, 80
14, 28737, Control_c, 10, 7, 80
14, 28738, Control_c, 10, 7, 81
14, 28739, Control_c, 10, 7, 81
14, 28740, Control_c, 10, 7, 82
14, 28741, Control_c, 10, 7, 82
14, 28742, Control_c, 10, 7, 83
14, 28743, Control_c, 10, 7, 83
14, 28744, Control_c, 10, 7, 84
14, 28745, Control_c, 10, 7, 84
14, 28746, Control_c, 10, 7, 85
14, 28747, Control_c, 10, 7, 85
14, 28748, Control_c, 10, 7, 86
14, 28749, Control_c, 10, 7, 86
14, 28750, Control_c, 10, 7, 87
14, 28751, Control_c, 10, 7, 87
14, 28752, Control_c, 10, 7, 88
14, 28753, Control_c, 10, 7, 88
14, 28754, Control_c, 10, 7, 89
14, 28755, Control_c, 10, 7, 89
14, 28756, Control_c, 10, 7, 90
14, 28757, Control_c, 10, 7, 90
14, 28758, Control_c, 10, 7, 91
14, 28759, Control_c, 10, 7, 91
14, 28760, Control_c, 10, 7, 92
14, 28761, Control_c, 10, 7, 92
14, 28762, Control_c, 10, 7, 93
14, 28763, Control_c, 10, 7, 93
14, 28764, Control_c, 10, 7, 94
14, 28765, Control_c, 10, 7, 94
14, 28766, Control_c, 10, 7, 95
14, 28767, Control_c, 10, 7, 95
14, 28768, Control_c, 10, 7, 96
14, 28769, Control_c, 10, 7, 96
14, 28770, Control_c, 10, 7, 97
14, 28771, Control_c, 10, 7, 97
14, 28772, Control_c, 10, 7, 98
14, 28773, Control_c, 10, 7, 98
14, 28774, Control_c, 10, 7, 99
14, 28775, Control_c, 10, 7, 99
14, 28776, Control_c, 10, 7, 100
14, 28777, Control_c, 10, 7, 100
14, 28778, Control_c, 10, 7, 101
14, 28779, Control_c, 10, 7, 101
14, 28780, Control_c, 10, 7, 102
14, 28781, Control_c, 10, 7, 102
14, 28782, Control_c, 10, 7, 103
14, 28783, Control_c, 10, 7, 103
14, 28784, Control_c, 10, 7, 104
14, 28785, Control_c, 10, 7, 104
14, 28786, Control_c, 10, 7, 105
14, 28787, Control_c, 10, 7, 105
14, 28788, Control_c, 10, 7, 106
14, 28789, Control_c, 10, 7, 106
14, 28790, Control_c, 10, 7, 107
14, 28791, Control_c, 10, 7, 107
14, 28792, Control_c, 10, 7, 108
14, 28793, Control_c, 10, 7, 108
14, 28794, Control_c, 10, 7, 109
14, 28795, Control_c, 10, 7, 109
14, 28796, Control_c, 10, 7, 110
14, 28797, Control_c, 10, 7, 110
14, 28798, Control_c, 10, 7, 111
14, 28799, Control_c, 10, 7, 111
14, 28800, Note_off_c, 10, 27, 64
14, 28800, Note_off_c, 10, 51, 64
14, 28800, Note_off_c, 10, 39, 64
14, 28800, Control_c, 10, 7, 112
14, 28800, Note_on_c, 10, 39, 127
14, 28800, Note_on_c, 10, 51, 127
14, 28800, Note_on_c, 10, 27, 127
14, 28801, Control_c, 10, 7, 64
14, 28802, Control_c, 10, 7, 65
14, 28803, Control_c, 10, 7, 66
14, 28804, Control_c, 10, 7, 67
14, 28805, Control_c, 10, 7, 68
14, 28806, Control_c, 10, 7, 69
14, 28807, Control_c, 10, 7, 69
14, 28808, Control_c, 10, 7, 70
14, 28809, Control_c, 10, 7, 71
14, 28810, Control_c, 10, 7, 72
14, 28811, Control_c, 10, 7, 73
14, 28812, Control_c, 10, 7, 74
14, 28813, Control_c, 10, 7, 75
14, 28814, Control_c, 10, 7, 76
14, 28815, Control_c, 10, 7, 77
14, 28816, Control_c, 10, 7, 78
14, 28817, Control_c, 10, 7, 79
14, 28818, Control_c, 10, 7, 80
14, 28819, Control_c, 10, 7, 81
14, 28820, Control_c, 10, 7, 82
14, 28821, Control_c, 10, 7, 83
14, 28822, Control_c, 10, 7, 85
14, 28823, Control_c, 10, 7, 86
14, 28824, Control_c, 10, 7, 87
14, 28825, Control_c, 10, 7, 88
14, 28826, Control_c, 10, 7, 89
14, 28827, Control_c, 10, 7, 90
14, 28828, Control_c, 10, 7, 91
14, 28829, Control_c, 10, 7, 92
14, 28830, Control_c, 10, 7, 93
14, 28831, Control_c, 10, 7, 94
14, 28832, Control_c, 10, 7, 95
14, 28833, Control_c, 10, 7, 96
14, 28834, Control_c, 10, 7, 97
14, 28835, Control_c, 10, 7, 98
14, 28836, Control_c, 10, 7, 99
14, 28837, Control_c, 10, 7, 100
14, 28838, Control_c, 10, 7, 102
14, 28839, Control_c, 10, 7, 103
14, 28840, Control_c, 10, 7, 104
14, 28841, Control_c, 10, 7, 105
14, 28842, Control_c, 10, 7, 106
14, 28843, Control_c, 10, 7, 107
14, 28844, Control_c, 10, 7, 108
14, 28845, Control_c, 10, 7, 109
14, 28846, Control_c, 10, 7, 110
14, 28847, Control_c, 10, 7, 111
14, 28848, Note_off_c, 10, 27, 64
14, 28848, Note_off_c, 10, 51, 64
14, 28848, Note_off_c, 10, 39, 64
14, 28848, Control_c, 10, 7, 65
14, 28848, Note_on_c, 10, 39, 127
14, 28848, Note_on_c, 10, 51, 127
14, 28848, Note_on_c, 10, 27, 127
14, 28849, Control_c, 10, 7, 66
14, 28850, Control_c, 10, 7, 67
14, 28851, Control_c, 10, 7, 67
14, 28852, Control_c, 10, 7, 68
14, 28853, Control_c, 10, 7, 69
14, 28854, Control_c, 10, 7, 70
14, 28855, Control_c, 10, 7, 71
14, 28856, Control_c, 10, 7, 72
14, 28857, Control_c, 10, 7, 73
14, 28858, Control_c, 10, 7, 74
14, 28859, Control_c, 10, 7, 75
14, 28860, Control_c, 10, 7, 76
14, 28861, Control_c, 10, 7, 77
14, 28862, Control_c, 10, 7, 78
14, 28863, Control_c, 10, 7, 79
14, 28864, Control_c, 10, 7, 80
14, 28865, Control_c, 10, 7, 81
14, 28866, Control_c, 10, 7, 82
14, 28867, Control_c, 10, 7, 83
14, 28868, Control_c, 10, 7, 84
14, 28869, Control_c, 10, 7, 85
14, 28870, Control_c, 10, 7, 86
14, 28871, Control_c, 10, 7, 87
14, 28872, Control_c, 10, 7, 88
14, 28873, Control_c, 10, 7, 89
14, 28874, Control_c, 10, 7, 89
14, 28875, Control_c, 10, 7, 90
14, 28876, Control_c, 10, 7, 91
14, 28877, Control_c, 10, 7, 92
14, 28878, Control_c, 10, 7, 93
14, 28879, Control_c, 10, 7, 94
14, 28880, Control_c, 10, 7, 95
14, 28881, Control_c, 10, 7, 96
14, 28882, Control_c, 10, 7, 97
14, 28883, Control_c, 10, 7, 98
14, 28884, Control_c, 10, 7, 99
14, 28885, Control_c, 10, 7, 100
14, 28886, Control_c, 10, 7, 101
14, 28887, Control_c, 10, 7, 102
14, 28888, Control_c, 10, 7, 103
14, 28889, Control_c, 10, 7, 104
14, 28890, Control_c, 10, 7, 105
14, 28891, Control_c, 10, 7, 106
14, 28892, Control_c, 10, 7, 107
14, 28893, Control_c, 10, 7, 108
14, 28894, Control_c, 10, 7, 109
14, 28895, Control_c, 10, 7, 110
14, 28896, Note_off_c, 10, 27, 64
14, 28896, Note_off_c, 10, 51, 64
14, 28896, Note_off_c, 10, 39, 64
14, 28896, Control_c, 10, 7, 64
14, 28896, Note_on_c, 10, 39, 127
14, 28896, Note_on_c, 10, 51, 127
14, 28896, Note_on_c, 10, 27, 127
14, 28897, Control_c, 10, 7, 65
14, 28898, Control_c, 10, 7, 65
14, 28899, Control_c, 10, 7, 66
14, 28900, Control_c, 10, 7, 67
14, 28901, Control_c, 10, 7, 68
14, 28902, Control_c, 10, 7, 69
14, 28903, Control_c, 10, 7, 70
14, 28904, Control_c, 10, 7, 70
14, 28905, Control_c, 10, 7, 71
14, 28906, Control_c, 10, 7, 72
14, 28907, Control_c, 10, 7, 73
14, 28908, Control_c, 10, 7, 74
14, 28909, Control_c, 10, 7, 75
14, 28910, Control_c, 10, 7, 76
14, 28911, Control_c, 10, 7, 77
14, 28912, Control_c, 10, 7, 78
14, 28913, Control_c, 10, 7, 79
14, 28914, Control_c, 10, 7, 80
14, 28915, Control_c, 10, 7, 81
14, 28916, Control_c, 10, 7, 82
14, 28917, Control_c, 10, 7, 83
14, 28918, Control_c, 10, 7, 84
14, 28919, Control_c, 10, 7, 85
14, 28920, Control_c, 10, 7, 86
14, 28921, Control_c, 10, 7, 88
14, 28922, Control_c, 10, 7, 89
14, 28923, Control_c, 10, 7, 90
14, 28924, Control_c, 10, 7, 91
14, 28925, Control_c, 10, 7, 92
14, 28926, Control_c, 10, 7, 93
14, 28927, Control_c, 10, 7, 94
14, 28928, Control_c, 10, 7, 95
14, 28929, Control_c, 10, 7, 96
14, 28930, Control_c, 10, 7, 97
14, 28931, Control_c, 10, 7, 98
14, 28932, Control_c, 10, 7, 99
14, 28933, Control_c, 10, 7, 100
14, 28934, Control_c, 10, 7, 101
14, 28935, Control_c, 10, 7, 102
14, 28936, Control_c, 10, 7, 103
14, 28937, Control_c, 10, 7, 104
14, 28938, Control_c, 10, 7, 105
14, 28939, Control_c, 10, 7, 106
14, 28940, Control_c, 10, 7, 107
14, 28941, Control_c, 10, 7, 108
14, 28942, Control_c, 10, 7, 109
14, 28943, Control_c, 10, 7, 110
14, 28944, Note_off_c, 10, 27, 64
14, 28944, Note_off_c, 10, 51, 64
14, 28944, Note_off_c, 10, 39, 64
14, 28944, Control_c, 10, 7, 66
14, 28944, Note_on_c, 10, 39, 127
14, 28944, Note_on_c, 10, 51, 127
14, 28944, Note_on_c, 10, 27, 127
14, 28945, Control_c, 10, 7, 67
14, 28946, Control_c, 10, 7, 68
14, 28947, Control_c, 10, 7, 69
14, 28948, Control_c, 10, 7, 69
14, 28949, Control_c, 10, 7, 70
14, 28950, Control_c, 10, 7, 71
14, 28951, Control_c, 10, 7, 72
14, 28952, Control_c, 10, 7, 73
14, 28953, Control_c, 10, 7, 74
14, 28954, Control_c, 10, 7, 75
14, 28955, Control_c, 10, 7, 76
14, 28956, Control_c, 10, 7, 77
14, 28957, Control_c, 10, 7, 77
14, 28958, Control_c, 10, 7, 78
14, 28959, Control_c, 10, 7, 79
14, 28960, Control_c, 10, 7, 80
14, 28961, Control_c, 10, 7, 81
14, 28962, Control_c, 10, 7, 82
14, 28963, Control_c, 10, 7, 83
14, 28964, Control_c, 10, 7, 84
14, 28965, Control_c, 10, 7, 84
14, 28966, Control_c, 10, 7, 85
14, 28967, Control_c, 10, 7, 86
14, 28968, Control_c, 10, 7, 87
14, 28969, Control_c, 10, 7, 88
14, 28970, Control_c, 10, 7, 89
14, 28971, Control_c, 10, 7, 90
14, 28972, Control_c, 10, 7, 91
14, 28973, Control_c, 10, 7, 91
14, 28974, Control_c, 10, 7, 92
14, 28975, Control_c, 10, 7, 93
14, 28976, Control_c, 10, 7, 94
14, 28977, Control_c, 10, 7, 95
14, 28978, Control_c, 10, 7, 96
14, 28979, Control_c, 10, 7, 97
14, 28980, Control_c, 10, 7, 98
14, 28981, Control_c, 10, 7, 98
14, 28982, Control_c, 10, 7, 99
14, 28983, Control_c, 10, 7, 100
14, 28984, Control_c, 10, 7, 101
14, 28985, Control_c, 10, 7, 102
14, 28986, Control_c, 10, 7, 103
14, 28987, Control_c, 10, 7, 104
14, 28988, Control_c, 10, 7, 104
14, 28989, Control_c, 10, 7, 105
14, 28990, Control_c, 10, 7, 106
14, 28991, Control_c, 10, 7, 107
14, 28992, Note_off_c, 10, 27, 64
14, 28992, Note_off_c, 10, 51, 64
14, 28992, Note_off_c, 10, 39, 64
14, 28992, Control_c, 10, 7, 67
14, 28992, Note_on_c, 10, 39, 127
14, 28992, Note_on_c, 10, 51, 127
14, 28992, Note_on_c, 10, 27, 127
14, 28993, Control_c, 10, 7, 68
14, 28994, Control_c, 10, 7, 69
14, 28995, Control_c, 10, 7, 70
14, 28996, Control_c, 10, 7, 71
14, 28997, Control_c, 10, 7, 72
14, 28998, Control_c, 10, 7, 73
14, 28999, Control_c, 10, 7, 74
14, 29000, Control_c, 10, 7, 75
14, 29001, Control_c, 10, 7, 75
14, 29002, Control_c, 10, 7, 76
14, 29003, Control_c, 10, 7, 77
14, 29004, Control_c, 10, 7, 78
14, 29005, Control_c, 10, 7, 79
14, 29006, Control_c, 10, 7, 80
14, 29007, Control_c, 10, 7, 81
14, 29008, Control_c, 10, 7, 82
14, 29009, Control_c, 10, 7, 83
14, 29010, Control_c, 10, 7, 84
14, 29011, Control_c, 10, 7, 85
14, 29012, Control_c, 10, 7, 86
14, 29013, Control_c, 10, 7, 87
14, 29014, Control_c, 10, 7, 88
14, 29015, Control_c, 10, 7, 89
14, 29016, Control_c, 10, 7, 90
14, 29017, Control_c, 10, 7, 90
14, 29018, Control_c, 10, 7, 91
14, 29019, Control_c, 10, 7, 92
14, 29020, Control_c, 10, 7, 93
14, 29021, Control_c, 10, 7, 94
14, 29022, Control_c, 10, 7, 95
14, 29023, Control_c, 10, 7, 96
14, 29024, Control_c, 10, 7, 97
14, 29025, Control_c, 10, 7, 98
14, 29026, Control_c, 10, 7, 99
14, 29027, Control_c, 10, 7, 100
14, 29028, Control_c, 10, 7, 101
14, 29029, Control_c, 10, 7, 102
14, 29030, Control_c, 10, 7, 103
14, 29031, Control_c, 10, 7, 104
14, 29032, Control_c, 10, 7, 105
14, 29033, Control_c, 10, 7, 106
14, 29034, Control_c, 10, 7, 106
14, 29035, Control_c, 10, 7, 107
14, 29036, Control_c, 10, 7, 108
14, 29037, Control_c, 10, 7, 109
14, 29038, Control_c, 10, 7, 110
14, 29039, Control_c, 10, 7, 111
14, 29040, Note_off_c, 10, 27, 64
14, 29040, Note_off_c, 10, 51, 64
14, 29040, Note_off_c, 10, 39, 64
14, 29040, Control_c, 10, 7, 61
14, 29040, Note_on_c, 10, 39, 127
14, 29040, Note_on_c, 10, 51, 127
14, 29040, Note_on_c, 10, 27, 127
14, 29041, Control_c, 10, 7, 62
14, 29042, Control_c, 10, 7, 63
14, 29043, Control_c, 10, 7, 64
14, 29044, Control_c, 10, 7, 65
14, 29045, Control_c, 10, 7, 66
14, 29046, Control_c, 10, 7, 67
14, 29047, Control_c, 10, 7, 68
14, 29048, Control_c, 10, 7, 70
14, 29049, Control_c, 10, 7, 71
14, 29050, Control_c, 10, 7, 72
14, 29051, Control_c, 10, 7, 73
14, 29052, Control_c, 10, 7, 74
14, 29053, Control_c, 10, 7, 75
14, 29054, Control_c, 10, 7, 76
14, 29055, Control_c, 10, 7, 78
14, 29056, Control_c, 10, 7, 79
14, 29057, Control_c, 10, 7, 80
14, 29058, Control_c, 10, 7, 81
14, 29059, Control_c, 10, 7, 82
14, 29060, Control_c, 10, 7, 83
14, 29061, Control_c, 10, 7, 84
14, 29062, Control_c, 10, 7, 85
14, 29063, Control_c, 10, 7, 87
14, 29064, Control_c, 10, 7, 88
14, 29065, Control_c, 10, 7, 89
14, 29066, Control_c, 10, 7, 90
14, 29067, Control_c, 10, 7, 91
14, 29068, Control_c, 10, 7, 92
14, 29069, Control_c, 10, 7, 93
14, 29070, Control_c, 10, 7, 95
14, 29071, Control_c, 10, 7, 96
14, 29072, Control_c, 10, 7, 97
14, 29073, Control_c, 10, 7, 98
14, 29074, Control_c, 10, 7, 99
14, 29075, Control_c, 10, 7, 100
14, 29076, Control_c, 10, 7, 101
14, 29077, Control_c, 10, 7, 102
14, 29078, Control_c, 10, 7, 104
14, 29079, Control_c, 10, 7, 105
14, 29080, Control_c, 10, 7, 106
14, 29081, Control_c, 10, 7, 107
14, 29082, Control_c, 10, 7, 108
14, 29083, Control_c, 10, 7, 110
14, 29084, Control_c, 10, 7, 111
14, 29085, Control_c, 10, 7, 112
14, 29086, Control_c, 10, 7, 113
14, 29087, Control_c, 10, 7, 114
14, 29088, Note_off_c, 10, 27, 64
14, 29088, Note_off_c, 10, 51, 64
14, 29088, Note_off_c, 10, 39, 64
14, 29088, Control_c, 10, 7, 65
14, 29088, Note_on_c, 10, 39, 127
14, 29088, Note_on_c, 10, 51, 127
14, 29088, Note_on_c, 10, 27, 127
14, 29089, Control_c, 10, 7, 66
14, 29090, Control_c, 10, 7, 67
14, 29091, Control_c, 10, 7, 68
14, 29092, Control_c, 10, 7, 70
14, 29093, Control_c, 10, 7, 71
14, 29094, Control_c, 10, 7, 72
14, 29095, Control_c, 10, 7, 73
14, 29096, Control_c, 10, 7, 74
14, 29097, Control_c, 10, 7, 75
14, 29098, Control_c, 10, 7, 76
14, 29099, Control_c, 10, 7, 77
14, 29100, Control_c, 10, 7, 78
14, 29101, Control_c, 10, 7, 79
14, 29102, Control_c, 10, 7, 80
14, 29103, Control_c, 10, 7, 81
14, 29104, Control_c, 10, 7, 82
14, 29105, Control_c, 10, 7, 83
14, 29106, Control_c, 10, 7, 84
14, 29107, Control_c, 10, 7, 85
14, 29108, Control_c, 10, 7, 86
14, 29109, Control_c, 10, 7, 88
14, 29110, Control_c, 10, 7, 89
14, 29111, Control_c, 10, 7, 90
14, 29112, Control_c, 10, 7, 91
14, 29113, Control_c, 10, 7, 92
14, 29114, Control_c, 10, 7, 93
14, 29115, Control_c, 10, 7, 94
14, 29116, Control_c, 10, 7, 95
14, 29117, Control_c, 10, 7, 96
14, 29118, Control_c, 10, 7, 97
14, 29119, Control_c, 10, 7, 98
14, 29120, Control_c, 10, 7, 99
14, 29121, Control_c, 10, 7, 100
14, 29122, Control_c, 10, 7, 101
14, 29123, Control_c, 10, 7, 102
14, 29124, Control_c, 10, 7, 103
14, 29125, Control_c, 10, 7, 105
14, 29126, Control_c, 10, 7, 106
14, 29127, Control_c, 10, 7, 107
14, 29128, Control_c, 10, 7, 108
14, 29129, Control_c, 10, 7, 109
14, 29130, Control_c, 10, 7, 109
14, 29131, Control_c, 10, 7, 110
14, 29132, Control_c, 10, 7, 112
14, 29133, Control_c, 10, 7, 113
14, 29134, Control_c, 10, 7, 114
14, 29135, Control_c, 10, 7, 115
14, 29136, Note_off_c, 10, 27, 64
14, 29136, Note_off_c, 10, 51, 64
14, 29136, Note_off_c, 10, 39, 64
14, 29136, Control_c, 10, 7, 67
14, 29136, Note_on_c, 10, 39, 127
14, 29136, Note_on_c, 10, 51, 127
14, 29136, Note_on_c, 10, 27, 127
14, 29137, Control_c, 10, 7, 68
14, 29138, Control_c, 10, 7, 69
14, 29139, Control_c, 10, 7, 70
14, 29140, Control_c, 10, 7, 71
14, 29141, Control_c, 10, 7, 71
14, 29142, Control_c, 10, 7, 72
14, 29143, Control_c, 10, 7, 73
14, 29144, Control_c, 10, 7, 74
14, 29145, Control_c, 10, 7, 75
14, 29146, Control_c, 10, 7, 76
14, 29147, Control_c, 10, 7, 77
14, 29148, Control_c, 10, 7, 78
14, 29149, Control_c, 10, 7, 79
14, 29150, Control_c, 10, 7, 80
14, 29151, Control_c, 10, 7, 81
14, 29152, Control_c, 10, 7, 82
14, 29153, Control_c, 10, 7, 83
14, 29154, Control_c, 10, 7, 84
14, 29155, Control_c, 10, 7, 85
14, 29156, Control_c, 10, 7, 86
14, 29157, Control_c, 10, 7, 87
14, 29158, Control_c, 10, 7, 88
14, 29159, Control_c, 10, 7, 89
14, 29160, Control_c, 10, 7, 90
14, 29161, Control_c, 10, 7, 91
14, 29162, Control_c, 10, 7, 92
14, 29163, Control_c, 10, 7, 93
14, 29164, Control_c, 10, 7, 94
14, 29165, Control_c, 10, 7, 95
14, 29166, Control_c, 10, 7, 96
14, 29167, Control_c, 10, 7, 97
14, 29168, Control_c, 10, 7, 98
14, 29169, Control_c, 10, 7, 99
14, 29170, Control_c, 10, 7, 100
14, 29171, Control_c, 10, 7, 101
14, 29172, Control_c, 10, 7, 102
14, 29173, Control_c, 10, 7, 103
14, 29174, Control_c, 10, 7, 104
14, 29175, Control_c, 10, 7, 104
14, 29176, Control_c, 10, 7, 105
14, 29177, Control_c, 10, 7, 106
14, 29178, Control_c, 10, 7, 107
14, 29179, Control_c, 10, 7, 108
14, 29180, Control_c, 10, 7, 109
14, 29181, Control_c, 10, 7, 110
14, 29182, Control_c, 10, 7, 111
14, 29183, Control_c, 10, 7, 112
14, 29184, Note_off_c, 10, 27, 64
14, 29184, Note_off_c, 10, 51, 64
14, 29184, Note_off_c, 10, 39, 64
14, 29184, Control_c, 10, 7, 50
14, 29184, Note_on_c, 10, 41, 127
14, 29184, Note_on_c, 10, 29, 127
14, 29184, Note_on_c, 10, 53, 127
14, 29186, Control_c, 10, 7, 50
14, 29187, Control_c, 10, 7, 51
14, 29188, Control_c, 10, 7, 51
14, 29189, Control_c, 10, 7, 52
14, 29190, Control_c, 10, 7, 52
14, 29191, Control_c, 10, 7, 52
14, 29192, Control_c, 10, 7, 53
14, 29193, Control_c, 10, 7, 53
14, 29194, Control_c, 10, 7, 54
14, 29195, Control_c, 10, 7, 54
14, 29196, Control_c, 10, 7, 54
14, 29197, Control_c, 10, 7, 55
14, 29198, Control_c, 10, 7, 55
14, 29199, Control_c, 10, 7, 55
14, 29200, Control_c, 10, 7, 56
14, 29201, Control_c, 10, 7, 56
14, 29202, Control_c, 10, 7, 57
14, 29203, Control_c, 10, 7, 57
14, 29204, Control_c, 10, 7, 57
14, 29205, Control_c, 10, 7, 58
14, 29206, Control_c, 10, 7, 58
14, 29207, Control_c, 10, 7, 59
14, 29208, Control_c, 10, 7, 59
14, 29209, Control_c, 10, 7, 59
14, 29210, Control_c, 10, 7, 60
14, 29211, Control_c, 10, 7, 60
14, 29212, Control_c, 10, 7, 61
14, 29213, Control_c, 10, 7, 61
14, 29214, Control_c, 10, 7, 61
14, 29215, Control_c, 10, 7, 62
14, 29216, Control_c, 10, 7, 62
14, 29217, Control_c, 10, 7, 62
14, 29218, Control_c, 10, 7, 63
14, 29219, Control_c, 10, 7, 63
14, 29220, Control_c, 10, 7, 64
14, 29221, Control_c, 10, 7, 64
14, 29222, Control_c, 10, 7, 64
14, 29223, Control_c, 10, 7, 65
14, 29224, Control_c, 10, 7, 65
14, 29225, Control_c, 10, 7, 66
14, 29226, Control_c, 10, 7, 66
14, 29227, Control_c, 10, 7, 66
14, 29228, Control_c, 10, 7, 67
14, 29229, Control_c, 10, 7, 67
14, 29230, Control_c, 10, 7, 68
14, 29231, Control_c, 10, 7, 68
14, 29232, Control_c, 10, 7, 68
14, 29233, Control_c, 10, 7, 69
14, 29234, Control_c, 10, 7, 69
14, 29235, Control_c, 10, 7, 69
14, 29236, Control_c, 10, 7, 70
14, 29237, Control_c, 10, 7, 70
14, 29238, Control_c, 10, 7, 71
14, 29239, Control_c, 10, 7, 71
14, 29240, Control_c, 10, 7, 71
14, 29241, Control_c, 10, 7, 72
14, 29242, Control_c, 10, 7, 72
14, 29243, Control_c, 10, 7, 73
14, 29244, Control_c, 10, 7, 73
14, 29245, Control_c, 10, 7, 73
14, 29246, Control_c, 10, 7, 74
14, 29247, Control_c, 10, 7, 74
14, 29248, Control_c, 10, 7, 75
14, 29249, Control_c, 10, 7, 75
14, 29250, Control_c, 10, 7, 75
14, 29251, Control_c, 10, 7, 76
14, 29252, Control_c, 10, 7, 76
14, 29253, Control_c, 10, 7, 76
14, 29254, Control_c, 10, 7, 77
14, 29255, Control_c, 10, 7, 77
14, 29256, Control_c, 10, 7, 78
14, 29257, Control_c, 10, 7, 78
14, 29258, Control_c, 10, 7, 78
14, 29259, Control_c, 10, 7, 79
14, 29260, Control_c, 10, 7, 79
14, 29261, Control_c, 10, 7, 80
14, 29262, Control_c, 10, 7, 80
14, 29263, Control_c, 10, 7, 80
14, 29264, Control_c, 10, 7, 81
14, 29265, Control_c, 10, 7, 81
14, 29266, Control_c, 10, 7, 82
14, 29267, Control_c, 10, 7, 82
14, 29268, Control_c, 10, 7, 82
14, 29269, Control_c, 10, 7, 83
14, 29270, Control_c, 10, 7, 83
14, 29271, Control_c, 10, 7, 83
14, 29272, Control_c, 10, 7, 84
14, 29273, Control_c, 10, 7, 84
14, 29274, Control_c, 10, 7, 85
14, 29275, Control_c, 10, 7, 85
14, 29276, Control_c, 10, 7, 85
14, 29277, Control_c, 10, 7, 86
14, 29278, Control_c, 10, 7, 86
14, 29279, Control_c, 10, 7, 87
14, 29280, Control_c, 10, 7, 87
14, 29281, Control_c, 10, 7, 87
14, 29282, Control_c, 10, 7, 88
14, 29283, Control_c, 10, 7, 88
14, 29284, Control_c, 10, 7, 89
14, 29285, Control_c, 10, 7, 89
14, 29286, Control_c, 10, 7, 89
14, 29287, Control_c, 10, 7, 90
14, 29288, Control_c, 10, 7, 90
14, 29289, Control_c, 10, 7, 90
14, 29290, Control_c, 10, 7, 91
14, 29291, Control_c, 10, 7, 91
14, 29292, Control_c, 10, 7, 92
14, 29293, Control_c, 10, 7, 92
14, 29294, Control_c, 10, 7, 92
14, 29295, Control_c, 10, 7, 93
14, 29296, Control_c, 10, 7, 93
14, 29297, Control_c, 10, 7, 94
14, 29298, Control_c, 10, 7, 94
14, 29299, Control_c, 10, 7, 94
14, 29300, Control_c, 10, 7, 95
14, 29301, Control_c, 10, 7, 95
14, 29302, Control_c, 10, 7, 96
14, 29303, Control_c, 10, 7, 96
14, 29304, Control_c, 10, 7, 96
14, 29305, Control_c, 10, 7, 97
14, 29306, Control_c, 10, 7, 97
14, 29307, Control_c, 10, 7, 97
14, 29308, Control_c, 10, 7, 98
14, 29309, Control_c, 10, 7, 98
14, 29310, Control_c, 10, 7, 99
14, 29311, Control_c, 10, 7, 99
14, 29312, Control_c, 10, 7, 99
14, 29313, Control_c, 10, 7, 100
14, 29314, Control_c, 10, 7, 100
14, 29315, Control_c, 10, 7, 101
14, 29316, Control_c, 10, 7, 101
14, 29317, Control_c, 10, 7, 101
14, 29318, Control_c, 10, 7, 102
14, 29319, Control_c, 10, 7, 102
14, 29320, Control_c, 10, 7, 103
14, 29321, Control_c, 10, 7, 103
14, 29322, Control_c, 10, 7, 103
14, 29323, Control_c, 10, 7, 104
14, 29324, Control_c, 10, 7, 104
14, 29325, Control_c, 10, 7, 104
14, 29326, Control_c, 10, 7, 105
14, 29327, Control_c, 10, 7, 105
14, 29328, Note_off_c, 10, 53, 64
14, 29328, Note_off_c, 10, 29, 64
14, 29328, Note_off_c, 10, 41, 64
14, 29328, Control_c, 10, 7, 54
14, 29328, Note_on_c, 10, 43, 127
14, 29328, Note_on_c, 10, 31, 127
14, 29328, Note_on_c, 10, 55, 127
14, 29329, Control_c, 10, 7, 55
14, 29330, Control_c, 10, 7, 55
14, 29331, Control_c, 10, 7, 56
14, 29332, Control_c, 10, 7, 57
14, 29333, Control_c, 10, 7, 57
14, 29334, Control_c, 10, 7, 57
14, 29335, Control_c, 10, 7, 58
14, 29336, Control_c, 10, 7, 58
14, 29337, Control_c, 10, 7, 58
14, 29338, Control_c, 10, 7, 59
14, 29339, Control_c, 10, 7, 59
14, 29340, Control_c, 10, 7, 59
14, 29341, Control_c, 10, 7, 60
14, 29342, Control_c, 10, 7, 60
14, 29343, Control_c, 10, 7, 61
14, 29344, Control_c, 10, 7, 61
14, 29345, Control_c, 10, 7, 61
14, 29346, Control_c, 10, 7, 62
14, 29347, Control_c, 10, 7, 62
14, 29348, Control_c, 10, 7, 62
14, 29349, Control_c, 10, 7, 63
14, 29350, Control_c, 10, 7, 63
14, 29351, Control_c, 10, 7, 63
14, 29352, Control_c, 10, 7, 63
14, 29353, Control_c, 10, 7, 64
14, 29354, Control_c, 10, 7, 64
14, 29355, Control_c, 10, 7, 65
14, 29356, Control_c, 10, 7, 65
14, 29357, Control_c, 10, 7, 65
14, 29358, Control_c, 10, 7, 66
14, 29359, Control_c, 10, 7, 66
14, 29360, Control_c, 10, 7, 66
14, 29361, Control_c, 10, 7, 67
14, 29362, Control_c, 10, 7, 67
14, 29363, Control_c, 10, 7, 68
14, 29364, Control_c, 10, 7, 68
14, 29365, Control_c, 10, 7, 68
14, 29366, Control_c, 10, 7, 69
14, 29367, Control_c, 10, 7, 69
14, 29368, Control_c, 10, 7, 69
14, 29369, Control_c, 10, 7, 70
14, 29370, Control_c, 10, 7, 70
14, 29371, Control_c, 10, 7, 71
14, 29372, Control_c, 10, 7, 71
14, 29373, Control_c, 10, 7, 71
14, 29374, Control_c, 10, 7, 72
14, 29375, Control_c, 10, 7, 72
14, 29376, Control_c, 10, 7, 73
14, 29377, Control_c, 10, 7, 73
14, 29378, Control_c, 10, 7, 73
14, 29379, Control_c, 10, 7, 74
14, 29380, Control_c, 10, 7, 74
14, 29381, Control_c, 10, 7, 74
14, 29382, Control_c, 10, 7, 75
14, 29383, Control_c, 10, 7, 75
14, 29384, Control_c, 10, 7, 76
14, 29385, Control_c, 10, 7, 76
14, 29386, Control_c, 10, 7, 76
14, 29387, Control_c, 10, 7, 77
14, 29388, Control_c, 10, 7, 77
14, 29389, Control_c, 10, 7, 77
14, 29390, Control_c, 10, 7, 78
14, 29391, Control_c, 10, 7, 78
14, 29392, Control_c, 10, 7, 79
14, 29393, Control_c, 10, 7, 79
14, 29394, Control_c, 10, 7, 79
14, 29395, Control_c, 10, 7, 80
14, 29396, Control_c, 10, 7, 80
14, 29397, Control_c, 10, 7, 80
14, 29398, Control_c, 10, 7, 81
14, 29399, Control_c, 10, 7, 81
14, 29400, Control_c, 10, 7, 82
14, 29401, Control_c, 10, 7, 82
14, 29402, Control_c, 10, 7, 82
14, 29403, Control_c, 10, 7, 83
14, 29404, Control_c, 10, 7, 83
14, 29405, Control_c, 10, 7, 84
14, 29406, Control_c, 10, 7, 84
14, 29407, Control_c, 10, 7, 84
14, 29408, Control_c, 10, 7, 85
14, 29409, Control_c, 10, 7, 85
14, 29410, Control_c, 10, 7, 85
14, 29411, Control_c, 10, 7, 86
14, 29412, Control_c, 10, 7, 86
14, 29413, Control_c, 10, 7, 87
14, 29414, Control_c, 10, 7, 87
14, 29415, Control_c, 10, 7, 87
14, 29416, Control_c, 10, 7, 88
14, 29417, Control_c, 10, 7, 88
14, 29418, Control_c, 10, 7, 88
14, 29419, Control_c, 10, 7, 89
14, 29420, Control_c, 10, 7, 89
14, 29421, Control_c, 10, 7, 90
14, 29422, Control_c, 10, 7, 90
14, 29423, Control_c, 10, 7, 90
14, 29424, Control_c, 10, 7, 91
14, 29425, Control_c, 10, 7, 91
14, 29426, Control_c, 10, 7, 92
14, 29427, Control_c, 10, 7, 92
14, 29428, Control_c, 10, 7, 92
14, 29429, Control_c, 10, 7, 93
14, 29430, Control_c, 10, 7, 93
14, 29431, Control_c, 10, 7, 93
14, 29432, Control_c, 10, 7, 94
14, 29433, Control_c, 10, 7, 94
14, 29434, Control_c, 10, 7, 95
14, 29435, Control_c, 10, 7, 95
14, 29436, Control_c, 10, 7, 95
14, 29437, Control_c, 10, 7, 96
14, 29438, Control_c, 10, 7, 96
14, 29439, Control_c, 10, 7, 96
14, 29440, Control_c, 10, 7, 97
14, 29441, Control_c, 10, 7, 97
14, 29442, Control_c, 10, 7, 98
14, 29443, Control_c, 10, 7, 98
14, 29444, Control_c, 10, 7, 98
14, 29445, Control_c, 10, 7, 99
14, 29446, Control_c, 10, 7, 99
14, 29447, Control_c, 10, 7, 99
14, 29448, Control_c, 10, 7, 100
14, 29449, Control_c, 10, 7, 100
14, 29450, Control_c, 10, 7, 101
14, 29451, Control_c, 10, 7, 101
14, 29452, Control_c, 10, 7, 101
14, 29453, Control_c, 10, 7, 102
14, 29454, Control_c, 10, 7, 102
14, 29455, Control_c, 10, 7, 103
14, 29456, Control_c, 10, 7, 103
14, 29457, Control_c, 10, 7, 103
14, 29458, Control_c, 10, 7, 104
14, 29459, Control_c, 10, 7, 104
14, 29460, Control_c, 10, 7, 104
14, 29461, Control_c, 10, 7, 105
14, 29462, Control_c, 10, 7, 105
14, 29463, Control_c, 10, 7, 106
14, 29464, Control_c, 10, 7, 106
14, 29465, Control_c, 10, 7, 106
14, 29466, Control_c, 10, 7, 107
14, 29467, Control_c, 10, 7, 107
14, 29468, Control_c, 10, 7, 107
14, 29469, Control_c, 10, 7, 108
14, 29470, Control_c, 10, 7, 108
14, 29471, Control_c, 10, 7, 109
14, 29472, Note_off_c, 10, 55, 64
14, 29472, Note_off_c, 10, 31, 64
14, 29472, Note_off_c, 10, 43, 64
14, 29472, Control_c, 10, 7, 108
14, 29472, Note_on_c, 10, 39, 127
14, 29472, Note_on_c, 10, 27, 127
14, 29472, Note_on_c, 10, 51, 127
14, 29473, Control_c, 10, 7, 108
14, 29474, Control_c, 10, 7, 107
14, 29475, Control_c, 10, 7, 107
14, 29476, Control_c, 10, 7, 106
14, 29477, Control_c, 10, 7, 106
14, 29478, Control_c, 10, 7, 105
14, 29479, Control_c, 10, 7, 105
14, 29480, Control_c, 10, 7, 105
14, 29481, Control_c, 10, 7, 104
14, 29482, Control_c, 10, 7, 104
14, 29483, Control_c, 10, 7, 103
14, 29484, Control_c, 10, 7, 103
14, 29485, Control_c, 10, 7, 102
14, 29486, Control_c, 10, 7, 102
14, 29487, Control_c, 10, 7, 101
14, 29488, Control_c, 10, 7, 101
14, 29489, Control_c, 10, 7, 100
14, 29490, Control_c, 10, 7, 100
14, 29491, Control_c, 10, 7, 99
14, 29492, Control_c, 10, 7, 99
14, 29493, Control_c, 10, 7, 98
14, 29494, Control_c, 10, 7, 98
14, 29495, Control_c, 10, 7, 97
14, 29496, Control_c, 10, 7, 97
14, 29497, Control_c, 10, 7, 96
14, 29498, Control_c, 10, 7, 96
14, 29499, Control_c, 10, 7, 95
14, 29500, Control_c, 10, 7, 95
14, 29501, Control_c, 10, 7, 94
14, 29502, Control_c, 10, 7, 94
14, 29503, Control_c, 10, 7, 93
14, 29504, Control_c, 10, 7, 93
14, 29505, Control_c, 10, 7, 92
14, 29506, Control_c, 10, 7, 92
14, 29507, Control_c, 10, 7, 91
14, 29508, Control_c, 10, 7, 91
14, 29509, Control_c, 10, 7, 90
14, 29510, Control_c, 10, 7, 90
14, 29511, Control_c, 10, 7, 89
14, 29512, Control_c, 10, 7, 89
14, 29513, Control_c, 10, 7, 88
14, 29514, Control_c, 10, 7, 88
14, 29515, Control_c, 10, 7, 87
14, 29516, Control_c, 10, 7, 87
14, 29517, Control_c, 10, 7, 86
14, 29518, Control_c, 10, 7, 86
14, 29519, Control_c, 10, 7, 85
14, 29520, Control_c, 10, 7, 85
14, 29521, Control_c, 10, 7, 84
14, 29522, Control_c, 10, 7, 84
14, 29523, Control_c, 10, 7, 83
14, 29524, Control_c, 10, 7, 83
14, 29525, Control_c, 10, 7, 82
14, 29526, Control_c, 10, 7, 82
14, 29527, Control_c, 10, 7, 81
14, 29528, Control_c, 10, 7, 81
14, 29529, Control_c, 10, 7, 80
14, 29530, Control_c, 10, 7, 80
14, 29531, Control_c, 10, 7, 79
14, 29532, Control_c, 10, 7, 79
14, 29533, Control_c, 10, 7, 78
14, 29534, Control_c, 10, 7, 78
14, 29535, Control_c, 10, 7, 77
14, 29536, Control_c, 10, 7, 77
14, 29537, Control_c, 10, 7, 76
14, 29538, Control_c, 10, 7, 76
14, 29539, Control_c, 10, 7, 75
14, 29540, Control_c, 10, 7, 75
14, 29541, Control_c, 10, 7, 74
14, 29542, Control_c, 10, 7, 74
14, 29543, Control_c, 10, 7, 73
14, 29544, Control_c, 10, 7, 73
14, 29545, Control_c, 10, 7, 72
14, 29546, Control_c, 10, 7, 72
14, 29547, Control_c, 10, 7, 71
14, 29548, Control_c, 10, 7, 71
14, 29549, Control_c, 10, 7, 70
14, 29550, Control_c, 10, 7, 70
14, 29551, Control_c, 10, 7, 69
14, 29552, Control_c, 10, 7, 69
14, 29553, Control_c, 10, 7, 68
14, 29554, Control_c, 10, 7, 68
14, 29555, Control_c, 10, 7, 67
14, 29556, Control_c, 10, 7, 67
14, 29557, Control_c, 10, 7, 66
14, 29558, Control_c, 10, 7, 66
14, 29559, Control_c, 10, 7, 65
14, 29560, Control_c, 10, 7, 65
14, 29561, Control_c, 10, 7, 64
14, 29562, Control_c, 10, 7, 64
14, 29563, Control_c, 10, 7, 63
14, 29564, Control_c, 10, 7, 63
14, 29565, Control_c, 10, 7, 62
14, 29566, Control_c, 10, 7, 62
14, 29567, Control_c, 10, 7, 61
14, 29568, Control_c, 10, 7, 61
14, 29616, Note_off_c, 10, 39, 64
14, 29616, Note_off_c, 10, 51, 64
14, 29616, Note_off_c, 10, 27, 64
14, 29616, Control_c, 10, 7, 102
14, 29616, Note_on_c, 10, 39, 127
14, 29616, Note_on_c, 10, 27, 127
14, 29616, Note_on_c, 10, 51, 127
14, 29617, Control_c, 10, 7, 102
14, 29618, Control_c, 10, 7, 101
14, 29619, Control_c, 10, 7, 100
14, 29620, Control_c, 10, 7, 99
14, 29621, Control_c, 10, 7, 98
14, 29622, Control_c, 10, 7, 97
14, 29623, Control_c, 10, 7, 96
14, 29624, Control_c, 10, 7, 95
14, 29625, Control_c, 10, 7, 95
14, 29626, Control_c, 10, 7, 94
14, 29627, Control_c, 10, 7, 93
14, 29628, Control_c, 10, 7, 92
14, 29629, Control_c, 10, 7, 91
14, 29630, Control_c, 10, 7, 90
14, 29631, Control_c, 10, 7, 89
14, 29632, Control_c, 10, 7, 88
14, 29633, Control_c, 10, 7, 87
14, 29634, Control_c, 10, 7, 87
14, 29635, Control_c, 10, 7, 86
14, 29636, Control_c, 10, 7, 85
14, 29637, Control_c, 10, 7, 84
14, 29638, Control_c, 10, 7, 83
14, 29639, Control_c, 10, 7, 82
14, 29640, Control_c, 10, 7, 81
14, 29641, Control_c, 10, 7, 80
14, 29642, Control_c, 10, 7, 80
14, 29643, Control_c, 10, 7, 79
14, 29644, Control_c, 10, 7, 78
14, 29645, Control_c, 10, 7, 77
14, 29646, Control_c, 10, 7, 76
14, 29647, Control_c, 10, 7, 75
14, 29648, Control_c, 10, 7, 74
14, 29649, Control_c, 10, 7, 73
14, 29650, Control_c, 10, 7, 73
14, 29651, Control_c, 10, 7, 72
14, 29652, Control_c, 10, 7, 71
14, 29653, Control_c, 10, 7, 70
14, 29654, Control_c, 10, 7, 69
14, 29655, Control_c, 10, 7, 68
14, 29656, Control_c, 10, 7, 67
14, 29657, Control_c, 10, 7, 66
14, 29658, Control_c, 10, 7, 66
14, 29659, Control_c, 10, 7, 65
14, 29660, Control_c, 10, 7, 64
14, 29661, Control_c, 10, 7, 63
14, 29662, Control_c, 10, 7, 62
14, 29663, Control_c, 10, 7, 61
14, 29664, Note_off_c, 10, 51, 64
14, 29664, Note_off_c, 10, 27, 64
14, 29664, Note_off_c, 10, 39, 64
14, 29664, Control_c, 10, 7, 102
14, 29664, Note_on_c, 10, 39, 127
14, 29664, Note_on_c, 10, 27, 127
14, 29664, Note_on_c, 10, 51, 127
14, 29665, Control_c, 10, 7, 102
14, 29666, Control_c, 10, 7, 101
14, 29667, Control_c, 10, 7, 100
14, 29668, Control_c, 10, 7, 99
14, 29669, Control_c, 10, 7, 98
14, 29670, Control_c, 10, 7, 97
14, 29671, Control_c, 10, 7, 96
14, 29672, Control_c, 10, 7, 96
14, 29673, Control_c, 10, 7, 95
14, 29674, Control_c, 10, 7, 94
14, 29675, Control_c, 10, 7, 93
14, 29676, Control_c, 10, 7, 92
14, 29677, Control_c, 10, 7, 91
14, 29678, Control_c, 10, 7, 91
14, 29679, Control_c, 10, 7, 90
14, 29680, Control_c, 10, 7, 89
14, 29681, Control_c, 10, 7, 88
14, 29682, Control_c, 10, 7, 87
14, 29683, Control_c, 10, 7, 86
14, 29684, Control_c, 10, 7, 85
14, 29685, Control_c, 10, 7, 85
14, 29686, Control_c, 10, 7, 84
14, 29687, Control_c, 10, 7, 83
14, 29688, Control_c, 10, 7, 82
14, 29689, Control_c, 10, 7, 81
14, 29690, Control_c, 10, 7, 80
14, 29691, Control_c, 10, 7, 80
14, 29692, Control_c, 10, 7, 79
14, 29693, Control_c, 10, 7, 78
14, 29694, Control_c, 10, 7, 77
14, 29695, Control_c, 10, 7, 76
14, 29696, Control_c, 10, 7, 75
14, 29697, Control_c, 10, 7, 74
14, 29698, Control_c, 10, 7, 74
14, 29699, Control_c, 10, 7, 73
14, 29700, Control_c, 10, 7, 72
14, 29701, Control_c, 10, 7, 71
14, 29702, Control_c, 10, 7, 70
14, 29703, Control_c, 10, 7, 69
14, 29704, Control_c, 10, 7, 68
14, 29705, Control_c, 10, 7, 68
14, 29706, Control_c, 10, 7, 67
14, 29707, Control_c, 10, 7, 66
14, 29708, Control_c, 10, 7, 65
14, 29709, Control_c, 10, 7, 64
14, 29710, Control_c, 10, 7, 102
14, 29711, Control_c, 10, 7, 102
14, 29712, Note_off_c, 10, 39, 64
14, 29712, Note_off_c, 10, 51, 64
14, 29712, Note_off_c, 10, 27, 64
14, 29712, Control_c, 10, 7, 101
14, 29712, Note_on_c, 10, 39, 127
14, 29712, Note_on_c, 10, 27, 127
14, 29712, Note_on_c, 10, 51, 127
14, 29713, Control_c, 10, 7, 100
14, 29714, Control_c, 10, 7, 99
14, 29715, Control_c, 10, 7, 98
14, 29716, Control_c, 10, 7, 97
14, 29717, Control_c, 10, 7, 97
14, 29718, Control_c, 10, 7, 96
14, 29719, Control_c, 10, 7, 95
14, 29720, Control_c, 10, 7, 94
14, 29721, Control_c, 10, 7, 93
14, 29722, Control_c, 10, 7, 93
14, 29723, Control_c, 10, 7, 92
14, 29724, Control_c, 10, 7, 91
14, 29725, Control_c, 10, 7, 90
14, 29726, Control_c, 10, 7, 89
14, 29727, Control_c, 10, 7, 88
14, 29728, Control_c, 10, 7, 88
14, 29729, Control_c, 10, 7, 87
14, 29730, Control_c, 10, 7, 86
14, 29731, Control_c, 10, 7, 85
14, 29732, Control_c, 10, 7, 84
14, 29733, Control_c, 10, 7, 84
14, 29734, Control_c, 10, 7, 83
14, 29735, Control_c, 10, 7, 82
14, 29736, Control_c, 10, 7, 81
14, 29737, Control_c, 10, 7, 80
14, 29738, Control_c, 10, 7, 79
14, 29739, Control_c, 10, 7, 79
14, 29740, Control_c, 10, 7, 78
14, 29741, Control_c, 10, 7, 77
14, 29742, Control_c, 10, 7, 76
14, 29743, Control_c, 10, 7, 75
14, 29744, Control_c, 10, 7, 75
14, 29745, Control_c, 10, 7, 74
14, 29746, Control_c, 10, 7, 73
14, 29747, Control_c, 10, 7, 72
14, 29748, Control_c, 10, 7, 71
14, 29749, Control_c, 10, 7, 70
14, 29750, Control_c, 10, 7, 70
14, 29751, Control_c, 10, 7, 69
14, 29752, Control_c, 10, 7, 68
14, 29753, Control_c, 10, 7, 67
14, 29754, Control_c, 10, 7, 66
14, 29755, Control_c, 10, 7, 66
14, 29756, Control_c, 10, 7, 65
14, 29757, Control_c, 10, 7, 64
14, 29758, Control_c, 10, 7, 63
14, 29759, Control_c, 10, 7, 62
14, 29760, Note_off_c, 10, 39, 64
14, 29760, Note_off_c, 10, 51, 64
14, 29760, Note_off_c, 10, 27, 64
14, 29760, Control_c, 10, 7, 102
14, 29760, Note_on_c, 10, 39, 127
14, 29760, Note_on_c, 10, 27, 127
14, 29760, Note_on_c, 10, 51, 127
14, 29761, Control_c, 10, 7, 102
14, 29762, Control_c, 10, 7, 101
14, 29763, Control_c, 10, 7, 100
14, 29764, Control_c, 10, 7, 99
14, 29765, Control_c, 10, 7, 98
14, 29766, Control_c, 10, 7, 97
14, 29767, Control_c, 10, 7, 96
14, 29768, Control_c, 10, 7, 95
14, 29769, Control_c, 10, 7, 94
14, 29770, Control_c, 10, 7, 94
14, 29771, Control_c, 10, 7, 93
14, 29772, Control_c, 10, 7, 92
14, 29773, Control_c, 10, 7, 91
14, 29774, Control_c, 10, 7, 90
14, 29775, Control_c, 10, 7, 89
14, 29776, Control_c, 10, 7, 88
14, 29777, Control_c, 10, 7, 87
14, 29778, Control_c, 10, 7, 86
14, 29779, Control_c, 10, 7, 86
14, 29780, Control_c, 10, 7, 85
14, 29781, Control_c, 10, 7, 84
14, 29782, Control_c, 10, 7, 83
14, 29783, Control_c, 10, 7, 82
14, 29784, Control_c, 10, 7, 81
14, 29785, Control_c, 10, 7, 80
14, 29786, Control_c, 10, 7, 79
14, 29787, Control_c, 10, 7, 78
14, 29788, Control_c, 10, 7, 78
14, 29789, Control_c, 10, 7, 77
14, 29790, Control_c, 10, 7, 76
14, 29791, Control_c, 10, 7, 75
14, 29792, Control_c, 10, 7, 74
14, 29793, Control_c, 10, 7, 73
14, 29794, Control_c, 10, 7, 72
14, 29795, Control_c, 10, 7, 71
14, 29796, Control_c, 10, 7, 70
14, 29797, Control_c, 10, 7, 69
14, 29798, Control_c, 10, 7, 69
14, 29799, Control_c, 10, 7, 68
14, 29800, Control_c, 10, 7, 67
14, 29801, Control_c, 10, 7, 66
14, 29802, Control_c, 10, 7, 65
14, 29803, Control_c, 10, 7, 64
14, 29804, Control_c, 10, 7, 63
14, 29805, Control_c, 10, 7, 62
14, 29806, Control_c, 10, 7, 61
14, 29807, Control_c, 10, 7, 61
14, 29808, Note_off_c, 10, 51, 64
14, 29808, Note_off_c, 10, 27, 64
14, 29808, Note_off_c, 10, 39, 64
14, 29808, Note_on_c, 10, 39, 127
14, 29808, Note_on_c, 10, 27, 127
14, 29808, Note_on_c, 10, 51, 127
14, 29809, Control_c, 10, 7, 103
14, 29810, Control_c, 10, 7, 102
14, 29811, Control_c, 10, 7, 101
14, 29812, Control_c, 10, 7, 100
14, 29813, Control_c, 10, 7, 99
14, 29814, Control_c, 10, 7, 99
14, 29815, Control_c, 10, 7, 98
14, 29816, Control_c, 10, 7, 97
14, 29817, Control_c, 10, 7, 96
14, 29818, Control_c, 10, 7, 95
14, 29819, Control_c, 10, 7, 94
14, 29820, Control_c, 10, 7, 93
14, 29821, Control_c, 10, 7, 93
14, 29822, Control_c, 10, 7, 92
14, 29823, Control_c, 10, 7, 91
14, 29824, Control_c, 10, 7, 90
14, 29825, Control_c, 10, 7, 89
14, 29826, Control_c, 10, 7, 88
14, 29827, Control_c, 10, 7, 87
14, 29828, Control_c, 10, 7, 87
14, 29829, Control_c, 10, 7, 86
14, 29830, Control_c, 10, 7, 85
14, 29831, Control_c, 10, 7, 84
14, 29832, Control_c, 10, 7, 83
14, 29833, Control_c, 10, 7, 82
14, 29834, Control_c, 10, 7, 81
14, 29835, Control_c, 10, 7, 81
14, 29836, Control_c, 10, 7, 80
14, 29837, Control_c, 10, 7, 79
14, 29838, Control_c, 10, 7, 78
14, 29839, Control_c, 10, 7, 77
14, 29840, Control_c, 10, 7, 76
14, 29841, Control_c, 10, 7, 75
14, 29842, Control_c, 10, 7, 75
14, 29843, Control_c, 10, 7, 74
14, 29844, Control_c, 10, 7, 73
14, 29845, Control_c, 10, 7, 72
14, 29846, Control_c, 10, 7, 71
14, 29847, Control_c, 10, 7, 70
14, 29848, Control_c, 10, 7, 69
14, 29849, Control_c, 10, 7, 69
14, 29850, Control_c, 10, 7, 68
14, 29851, Control_c, 10, 7, 67
14, 29852, Control_c, 10, 7, 66
14, 29853, Control_c, 10, 7, 65
14, 29854, Control_c, 10, 7, 64
14, 29855, Control_c, 10, 7, 64
14, 29856, Note_off_c, 10, 39, 64
14, 29856, Note_off_c, 10, 51, 64
14, 29856, Note_off_c, 10, 27, 64
14, 29856, Note_on_c, 10, 39, 127
14, 29856, Note_on_c, 10, 27, 127
14, 29856, Note_on_c, 10, 51, 127
14, 29857, Control_c, 10, 7, 104
14, 29858, Control_c, 10, 7, 103
14, 29859, Control_c, 10, 7, 102
14, 29860, Control_c, 10, 7, 101
14, 29861, Control_c, 10, 7, 100
14, 29862, Control_c, 10, 7, 99
14, 29863, Control_c, 10, 7, 98
14, 29864, Control_c, 10, 7, 98
14, 29865, Control_c, 10, 7, 97
14, 29866, Control_c, 10, 7, 96
14, 29867, Control_c, 10, 7, 95
14, 29868, Control_c, 10, 7, 94
14, 29869, Control_c, 10, 7, 93
14, 29870, Control_c, 10, 7, 93
14, 29871, Control_c, 10, 7, 92
14, 29872, Control_c, 10, 7, 91
14, 29873, Control_c, 10, 7, 90
14, 29874, Control_c, 10, 7, 89
14, 29875, Control_c, 10, 7, 88
14, 29876, Control_c, 10, 7, 87
14, 29877, Control_c, 10, 7, 87
14, 29878, Control_c, 10, 7, 86
14, 29879, Control_c, 10, 7, 85
14, 29880, Control_c, 10, 7, 84
14, 29881, Control_c, 10, 7, 83
14, 29882, Control_c, 10, 7, 82
14, 29883, Control_c, 10, 7, 82
14, 29884, Control_c, 10, 7, 81
14, 29885, Control_c, 10, 7, 80
14, 29886, Control_c, 10, 7, 79
14, 29887, Control_c, 10, 7, 78
14, 29888, Control_c, 10, 7, 77
14, 29889, Control_c, 10, 7, 76
14, 29890, Control_c, 10, 7, 76
14, 29891, Control_c, 10, 7, 75
14, 29892, Control_c, 10, 7, 74
14, 29893, Control_c, 10, 7, 73
14, 29894, Control_c, 10, 7, 72
14, 29895, Control_c, 10, 7, 71
14, 29896, Control_c, 10, 7, 71
14, 29897, Control_c, 10, 7, 70
14, 29898, Control_c, 10, 7, 69
14, 29899, Control_c, 10, 7, 68
14, 29900, Control_c, 10, 7, 67
14, 29901, Control_c, 10, 7, 66
14, 29902, Control_c, 10, 7, 65
14, 29903, Control_c, 10, 7, 102
14, 29904, Note_off_c, 10, 51, 64
14, 29904, Note_off_c, 10, 27, 64
14, 29904, Note_off_c, 10, 39, 64
14, 29904, Control_c, 10, 7, 102
14, 29904, Note_on_c, 10, 39, 127
14, 29904, Note_on_c, 10, 27, 127
14, 29904, Note_on_c, 10, 51, 127
14, 29905, Control_c, 10, 7, 101
14, 29906, Control_c, 10, 7, 100
14, 29907, Control_c, 10, 7, 99
14, 29908, Control_c, 10, 7, 98
14, 29909, Control_c, 10, 7, 97
14, 29910, Control_c, 10, 7, 96
14, 29911, Control_c, 10, 7, 96
14, 29912, Control_c, 10, 7, 95
14, 29913, Control_c, 10, 7, 94
14, 29914, Control_c, 10, 7, 93
14, 29915, Control_c, 10, 7, 92
14, 29916, Control_c, 10, 7, 91
14, 29917, Control_c, 10, 7, 90
14, 29918, Control_c, 10, 7, 89
14, 29919, Control_c, 10, 7, 89
14, 29920, Control_c, 10, 7, 88
14, 29921, Control_c, 10, 7, 87
14, 29922, Control_c, 10, 7, 86
14, 29923, Control_c, 10, 7, 85
14, 29924, Control_c, 10, 7, 84
14, 29925, Control_c, 10, 7, 83
14, 29926, Control_c, 10, 7, 83
14, 29927, Control_c, 10, 7, 82
14, 29928, Control_c, 10, 7, 81
14, 29929, Control_c, 10, 7, 80
14, 29930, Control_c, 10, 7, 79
14, 29931, Control_c, 10, 7, 78
14, 29932, Control_c, 10, 7, 77
14, 29933, Control_c, 10, 7, 77
14, 29934, Control_c, 10, 7, 76
14, 29935, Control_c, 10, 7, 75
14, 29936, Control_c, 10, 7, 74
14, 29937, Control_c, 10, 7, 73
14, 29938, Control_c, 10, 7, 72
14, 29939, Control_c, 10, 7, 71
14, 29940, Control_c, 10, 7, 71
14, 29941, Control_c, 10, 7, 70
14, 29942, Control_c, 10, 7, 69
14, 29943, Control_c, 10, 7, 68
14, 29944, Control_c, 10, 7, 67
14, 29945, Control_c, 10, 7, 66
14, 29946, Control_c, 10, 7, 65
14, 29947, Control_c, 10, 7, 65
14, 29948, Control_c, 10, 7, 64
14, 29949, Control_c, 10, 7, 63
14, 29952, Note_off_c, 10, 51, 64
14, 29952, Note_off_c, 10, 27, 64
14, 29952, Note_off_c, 10, 39, 64
14, 30720, Control_c, 10, 7, 50
14, 30720, Note_on_c, 10, 41, 127
14, 30720, Note_on_c, 10, 29, 127
14, 30720, Note_on_c, 10, 53, 127
14, 30722, Control_c, 10, 7, 50
14, 30723, Control_c, 10, 7, 51
14, 30724, Control_c, 10, 7, 51
14, 30725, Control_c, 10, 7, 52
14, 30726, Control_c, 10, 7, 52
14, 30727, Control_c, 10, 7, 52
14, 30728, Control_c, 10, 7, 53
14, 30729, Control_c, 10, 7, 53
14, 30730, Control_c, 10, 7, 54
14, 30731, Control_c, 10, 7, 54
14, 30732, Control_c, 10, 7, 54
14, 30733, Control_c, 10, 7, 55
14, 30734, Control_c, 10, 7, 55
14, 30735, Control_c, 10, 7, 55
14, 30736, Control_c, 10, 7, 56
14, 30737, Control_c, 10, 7, 56
14, 30738, Control_c, 10, 7, 57
14, 30739, Control_c, 10, 7, 57
14, 30740, Control_c, 10, 7, 57
14, 30741, Control_c, 10, 7, 58
14, 30742, Control_c, 10, 7, 58
14, 30743, Control_c, 10, 7, 59
14, 30744, Control_c, 10, 7, 59
14, 30745, Control_c, 10, 7, 59
14, 30746, Control_c, 10, 7, 60
14, 30747, Control_c, 10, 7, 60
14, 30748, Control_c, 10, 7, 61
14, 30749, Control_c, 10, 7, 61
14, 30750, Control_c, 10, 7, 61
14, 30751, Control_c, 10, 7, 62
14, 30752, Control_c, 10, 7, 62
14, 30753, Control_c, 10, 7, 62
14, 30754, Control_c, 10, 7, 63
14, 30755, Control_c, 10, 7, 63
14, 30756, Control_c, 10, 7, 64
14, 30757, Control_c, 10, 7, 64
14, 30758, Control_c, 10, 7, 64
14, 30759, Control_c, 10, 7, 65
14, 30760, Control_c, 10, 7, 65
14, 30761, Control_c, 10, 7, 66
14, 30762, Control_c, 10, 7, 66
14, 30763, Control_c, 10, 7, 66
14, 30764, Control_c, 10, 7, 67
14, 30765, Control_c, 10, 7, 67
14, 30766, Control_c, 10, 7, 68
14, 30767, Control_c, 10, 7, 68
14, 30768, Control_c, 10, 7, 68
14, 30769, Control_c, 10, 7, 69
14, 30770, Control_c, 10, 7, 69
14, 30771, Control_c, 10, 7, 69
14, 30772, Control_c, 10, 7, 70
14, 30773, Control_c, 10, 7, 70
14, 30774, Control_c, 10, 7, 71
14, 30775, Control_c, 10, 7, 71
14, 30776, Control_c, 10, 7, 71
14, 30777, Control_c, 10, 7, 72
14, 30778, Control_c, 10, 7, 72
14, 30779, Control_c, 10, 7, 73
14, 30780, Control_c, 10, 7, 73
14, 30781, Control_c, 10, 7, 73
14, 30782, Control_c, 10, 7, 74
14, 30783, Control_c, 10, 7, 74
14, 30784, Control_c, 10, 7, 75
14, 30785, Control_c, 10, 7, 75
14, 30786, Control_c, 10, 7, 75
14, 30787, Control_c, 10, 7, 76
14, 30788, Control_c, 10, 7, 76
14, 30789, Control_c, 10, 7, 76
14, 30790, Control_c, 10, 7, 77
14, 30791, Control_c, 10, 7, 77
14, 30792, Control_c, 10, 7, 78
14, 30793, Control_c, 10, 7, 78
14, 30794, Control_c, 10, 7, 78
14, 30795, Control_c, 10, 7, 79
14, 30796, Control_c, 10, 7, 79
14, 30797, Control_c, 10, 7, 80
14, 30798, Control_c, 10, 7, 80
14, 30799, Control_c, 10, 7, 80
14, 30800, Control_c, 10, 7, 81
14, 30801, Control_c, 10, 7, 81
14, 30802, Control_c, 10, 7, 82
14, 30803, Control_c, 10, 7, 82
14, 30804, Control_c, 10, 7, 82
14, 30805, Control_c, 10, 7, 83
14, 30806, Control_c, 10, 7, 83
14, 30807, Control_c, 10, 7, 83
14, 30808, Control_c, 10, 7, 84
14, 30809, Control_c, 10, 7, 84
14, 30810, Control_c, 10, 7, 85
14, 30811, Control_c, 10, 7, 85
14, 30812, Control_c, 10, 7, 85
14, 30813, Control_c, 10, 7, 86
14, 30814, Control_c, 10, 7, 86
14, 30815, Control_c, 10, 7, 87
14, 30816, Control_c, 10, 7, 87
14, 30817, Control_c, 10, 7, 87
14, 30818, Control_c, 10, 7, 88
14, 30819, Control_c, 10, 7, 88
14, 30820, Control_c, 10, 7, 89
14, 30821, Control_c, 10, 7, 89
14, 30822, Control_c, 10, 7, 89
14, 30823, Control_c, 10, 7, 90
14, 30824, Control_c, 10, 7, 90
14, 30825, Control_c, 10, 7, 90
14, 30826, Control_c, 10, 7, 91
14, 30827, Control_c, 10, 7, 91
14, 30828, Control_c, 10, 7, 92
14, 30829, Control_c, 10, 7, 92
14, 30830, Control_c, 10, 7, 92
14, 30831, Control_c, 10, 7, 93
14, 30832, Control_c, 10, 7, 93
14, 30833, Control_c, 10, 7, 94
14, 30834, Control_c, 10, 7, 94
14, 30835, Control_c, 10, 7, 94
14, 30836, Control_c, 10, 7, 95
14, 30837, Control_c, 10, 7, 95
14, 30838, Control_c, 10, 7, 96
14, 30839, Control_c, 10, 7, 96
14, 30840, Control_c, 10, 7, 96
14, 30841, Control_c, 10, 7, 97
14, 30842, Control_c, 10, 7, 97
14, 30843, Control_c, 10, 7, 97
14, 30844, Control_c, 10, 7, 98
14, 30845, Control_c, 10, 7, 98
14, 30846, Control_c, 10, 7, 99
14, 30847, Control_c, 10, 7, 99
14, 30848, Control_c, 10, 7, 99
14, 30849, Control_c, 10, 7, 100
14, 30850, Control_c, 10, 7, 100
14, 30851, Control_c, 10, 7, 101
14, 30852, Control_c, 10, 7, 101
14, 30853, Control_c, 10, 7, 101
14, 30854, Control_c, 10, 7, 102
14, 30855, Control_c, 10, 7, 102
14, 30856, Control_c, 10, 7, 103
14, 30857, Control_c, 10, 7, 103
14, 30858, Control_c, 10, 7, 103
14, 30859, Control_c, 10, 7, 104
14, 30860, Control_c, 10, 7, 104
14, 30861, Control_c, 10, 7, 104
14, 30862, Control_c, 10, 7, 105
14, 30863, Control_c, 10, 7, 105
14, 30864, Note_off_c, 10, 41, 64
14, 30864, Note_off_c, 10, 29, 64
14, 30864, Note_off_c, 10, 53, 64
14, 30864, Control_c, 10, 7, 54
14, 30864, Note_on_c, 10, 43, 127
14, 30864, Note_on_c, 10, 31, 127
14, 30864, Note_on_c, 10, 55, 127
14, 30865, Control_c, 10, 7, 55
14, 30866, Control_c, 10, 7, 55
14, 30867, Control_c, 10, 7, 56
14, 30868, Control_c, 10, 7, 57
14, 30869, Control_c, 10, 7, 57
14, 30870, Control_c, 10, 7, 57
14, 30871, Control_c, 10, 7, 58
14, 30872, Control_c, 10, 7, 58
14, 30873, Control_c, 10, 7, 58
14, 30874, Control_c, 10, 7, 59
14, 30875, Control_c, 10, 7, 59
14, 30876, Control_c, 10, 7, 59
14, 30877, Control_c, 10, 7, 60
14, 30878, Control_c, 10, 7, 60
14, 30879, Control_c, 10, 7, 61
14, 30880, Control_c, 10, 7, 61
14, 30881, Control_c, 10, 7, 61
14, 30882, Control_c, 10, 7, 62
14, 30883, Control_c, 10, 7, 62
14, 30884, Control_c, 10, 7, 62
14, 30885, Control_c, 10, 7, 63
14, 30886, Control_c, 10, 7, 63
14, 30887, Control_c, 10, 7, 63
14, 30888, Control_c, 10, 7, 63
14, 30889, Control_c, 10, 7, 64
14, 30890, Control_c, 10, 7, 64
14, 30891, Control_c, 10, 7, 65
14, 30892, Control_c, 10, 7, 65
14, 30893, Control_c, 10, 7, 65
14, 30894, Control_c, 10, 7, 66
14, 30895, Control_c, 10, 7, 66
14, 30896, Control_c, 10, 7, 66
14, 30897, Control_c, 10, 7, 67
14, 30898, Control_c, 10, 7, 67
14, 30899, Control_c, 10, 7, 68
14, 30900, Control_c, 10, 7, 68
14, 30901, Control_c, 10, 7, 68
14, 30902, Control_c, 10, 7, 69
14, 30903, Control_c, 10, 7, 69
14, 30904, Control_c, 10, 7, 69
14, 30905, Control_c, 10, 7, 70
14, 30906, Control_c, 10, 7, 70
14, 30907, Control_c, 10, 7, 71
14, 30908, Control_c, 10, 7, 71
14, 30909, Control_c, 10, 7, 71
14, 30910, Control_c, 10, 7, 72
14, 30911, Control_c, 10, 7, 72
14, 30912, Control_c, 10, 7, 73
14, 30913, Control_c, 10, 7, 73
14, 30914, Control_c, 10, 7, 73
14, 30915, Control_c, 10, 7, 74
14, 30916, Control_c, 10, 7, 74
14, 30917, Control_c, 10, 7, 74
14, 30918, Control_c, 10, 7, 75
14, 30919, Control_c, 10, 7, 75
14, 30920, Control_c, 10, 7, 76
14, 30921, Control_c, 10, 7, 76
14, 30922, Control_c, 10, 7, 76
14, 30923, Control_c, 10, 7, 77
14, 30924, Control_c, 10, 7, 77
14, 30925, Control_c, 10, 7, 77
14, 30926, Control_c, 10, 7, 78
14, 30927, Control_c, 10, 7, 78
14, 30928, Control_c, 10, 7, 79
14, 30929, Control_c, 10, 7, 79
14, 30930, Control_c, 10, 7, 79
14, 30931, Control_c, 10, 7, 80
14, 30932, Control_c, 10, 7, 80
14, 30933, Control_c, 10, 7, 80
14, 30934, Control_c, 10, 7, 81
14, 30935, Control_c, 10, 7, 81
14, 30936, Control_c, 10, 7, 82
14, 30937, Control_c, 10, 7, 82
14, 30938, Control_c, 10, 7, 82
14, 30939, Control_c, 10, 7, 83
14, 30940, Control_c, 10, 7, 83
14, 30941, Control_c, 10, 7, 84
14, 30942, Control_c, 10, 7, 84
14, 30943, Control_c, 10, 7, 84
14, 30944, Control_c, 10, 7, 85
14, 30945, Control_c, 10, 7, 85
14, 30946, Control_c, 10, 7, 85
14, 30947, Control_c, 10, 7, 86
14, 30948, Control_c, 10, 7, 86
14, 30949, Control_c, 10, 7, 87
14, 30950, Control_c, 10, 7, 87
14, 30951, Control_c, 10, 7, 87
14, 30952, Control_c, 10, 7, 88
14, 30953, Control_c, 10, 7, 88
14, 30954, Control_c, 10, 7, 88
14, 30955, Control_c, 10, 7, 89
14, 30956, Control_c, 10, 7, 89
14, 30957, Control_c, 10, 7, 90
14, 30958, Control_c, 10, 7, 90
14, 30959, Control_c, 10, 7, 90
14, 30960, Control_c, 10, 7, 91
14, 30961, Control_c, 10, 7, 91
14, 30962, Control_c, 10, 7, 92
14, 30963, Control_c, 10, 7, 92
14, 30964, Control_c, 10, 7, 92
14, 30965, Control_c, 10, 7, 93
14, 30966, Control_c, 10, 7, 93
14, 30967, Control_c, 10, 7, 93
14, 30968, Control_c, 10, 7, 94
14, 30969, Control_c, 10, 7, 94
14, 30970, Control_c, 10, 7, 95
14, 30971, Control_c, 10, 7, 95
14, 30972, Control_c, 10, 7, 95
14, 30973, Control_c, 10, 7, 96
14, 30974, Control_c, 10, 7, 96
14, 30975, Control_c, 10, 7, 96
14, 30976, Control_c, 10, 7, 97
14, 30977, Control_c, 10, 7, 97
14, 30978, Control_c, 10, 7, 98
14, 30979, Control_c, 10, 7, 98
14, 30980, Control_c, 10, 7, 98
14, 30981, Control_c, 10, 7, 99
14, 30982, Control_c, 10, 7, 99
14, 30983, Control_c, 10, 7, 99
14, 30984, Control_c, 10, 7, 100
14, 30985, Control_c, 10, 7, 100
14, 30986, Control_c, 10, 7, 101
14, 30987, Control_c, 10, 7, 101
14, 30988, Control_c, 10, 7, 101
14, 30989, Control_c, 10, 7, 102
14, 30990, Control_c, 10, 7, 102
14, 30991, Control_c, 10, 7, 103
14, 30992, Control_c, 10, 7, 103
14, 30993, Control_c, 10, 7, 103
14, 30994, Control_c, 10, 7, 104
14, 30995, Control_c, 10, 7, 104
14, 30996, Control_c, 10, 7, 104
14, 30997, Control_c, 10, 7, 105
14, 30998, Control_c, 10, 7, 105
14, 30999, Control_c, 10, 7, 106
14, 31000, Control_c, 10, 7, 106
14, 31001, Control_c, 10, 7, 106
14, 31002, Control_c, 10, 7, 107
14, 31003, Control_c, 10, 7, 107
14, 31004, Control_c, 10, 7, 107
14, 31005, Control_c, 10, 7, 108
14, 31006, Control_c, 10, 7, 108
14, 31007, Control_c, 10, 7, 109
14, 31008, Note_off_c, 10, 43, 64
14, 31008, Note_off_c, 10, 31, 64
14, 31008, Note_off_c, 10, 55, 64
14, 31008, Control_c, 10, 7, 108
14, 31008, Note_on_c, 10, 39, 127
14, 31008, Note_on_c, 10, 27, 127
14, 31008, Note_on_c, 10, 51, 127
14, 31009, Control_c, 10, 7, 108
14, 31010, Control_c, 10, 7, 107
14, 31011, Control_c, 10, 7, 107
14, 31012, Control_c, 10, 7, 106
14, 31013, Control_c, 10, 7, 106
14, 31014, Control_c, 10, 7, 105
14, 31015, Control_c, 10, 7, 105
14, 31016, Control_c, 10, 7, 105
14, 31017, Control_c, 10, 7, 104
14, 31018, Control_c, 10, 7, 104
14, 31019, Control_c, 10, 7, 103
14, 31020, Control_c, 10, 7, 103
14, 31021, Control_c, 10, 7, 102
14, 31022, Control_c, 10, 7, 102
14, 31023, Control_c, 10, 7, 101
14, 31024, Control_c, 10, 7, 101
14, 31025, Control_c, 10, 7, 100
14, 31026, Control_c, 10, 7, 100
14, 31027, Control_c, 10, 7, 99
14, 31028, Control_c, 10, 7, 99
14, 31029, Control_c, 10, 7, 98
14, 31030, Control_c, 10, 7, 98
14, 31031, Control_c, 10, 7, 97
14, 31032, Control_c, 10, 7, 97
14, 31033, Control_c, 10, 7, 96
14, 31034, Control_c, 10, 7, 96
14, 31035, Control_c, 10, 7, 95
14, 31036, Control_c, 10, 7, 95
14, 31037, Control_c, 10, 7, 94
14, 31038, Control_c, 10, 7, 94
14, 31039, Control_c, 10, 7, 93
14, 31040, Control_c, 10, 7, 93
14, 31041, Control_c, 10, 7, 92
14, 31042, Control_c, 10, 7, 92
14, 31043, Control_c, 10, 7, 91
14, 31044, Control_c, 10, 7, 91
14, 31045, Control_c, 10, 7, 90
14, 31046, Control_c, 10, 7, 90
14, 31047, Control_c, 10, 7, 89
14, 31048, Control_c, 10, 7, 89
14, 31049, Control_c, 10, 7, 88
14, 31050, Control_c, 10, 7, 88
14, 31051, Control_c, 10, 7, 87
14, 31052, Control_c, 10, 7, 87
14, 31053, Control_c, 10, 7, 86
14, 31054, Control_c, 10, 7, 86
14, 31055, Control_c, 10, 7, 85
14, 31056, Control_c, 10, 7, 85
14, 31057, Control_c, 10, 7, 84
14, 31058, Control_c, 10, 7, 84
14, 31059, Control_c, 10, 7, 83
14, 31060, Control_c, 10, 7, 83
14, 31061, Control_c, 10, 7, 82
14, 31062, Control_c, 10, 7, 82
14, 31063, Control_c, 10, 7, 81
14, 31064, Control_c, 10, 7, 81
14, 31065, Control_c, 10, 7, 80
14, 31066, Control_c, 10, 7, 80
14, 31067, Control_c, 10, 7, 79
14, 31068, Control_c, 10, 7, 79
14, 31069, Control_c, 10, 7, 78
14, 31070, Control_c, 10, 7, 78
14, 31071, Control_c, 10, 7, 77
14, 31072, Control_c, 10, 7, 77
14, 31073, Control_c, 10, 7, 76
14, 31074, Control_c, 10, 7, 76
14, 31075, Control_c, 10, 7, 75
14, 31076, Control_c, 10, 7, 75
14, 31077, Control_c, 10, 7, 74
14, 31078, Control_c, 10, 7, 74
14, 31079, Control_c, 10, 7, 73
14, 31080, Control_c, 10, 7, 73
14, 31081, Control_c, 10, 7, 72
14, 31082, Control_c, 10, 7, 72
14, 31083, Control_c, 10, 7, 71
14, 31084, Control_c, 10, 7, 71
14, 31085, Control_c, 10, 7, 70
14, 31086, Control_c, 10, 7, 70
14, 31087, Control_c, 10, 7, 69
14, 31088, Control_c, 10, 7, 69
14, 31089, Control_c, 10, 7, 68
14, 31090, Control_c, 10, 7, 68
14, 31091, Control_c, 10, 7, 67
14, 31092, Control_c, 10, 7, 67
14, 31093, Control_c, 10, 7, 66
14, 31094, Control_c, 10, 7, 66
14, 31095, Control_c, 10, 7, 65
14, 31096, Control_c, 10, 7, 65
14, 31097, Control_c, 10, 7, 64
14, 31098, Control_c, 10, 7, 64
14, 31099, Control_c, 10, 7, 63
14, 31100, Control_c, 10, 7, 63
14, 31101, Control_c, 10, 7, 62
14, 31102, Control_c, 10, 7, 62
14, 31103, Control_c, 10, 7, 61
14, 31104, Control_c, 10, 7, 61
14, 31152, Note_off_c, 10, 27, 64
14, 31152, Note_off_c, 10, 51, 64
14, 31152, Note_off_c, 10, 39, 64
14, 31152, Control_c, 10, 7, 102
14, 31152, Note_on_c, 10, 39, 127
14, 31152, Note_on_c, 10, 27, 127
14, 31152, Note_on_c, 10, 51, 127
14, 31153, Control_c, 10, 7, 102
14, 31154, Control_c, 10, 7, 101
14, 31155, Control_c, 10, 7, 100
14, 31156, Control_c, 10, 7, 99
14, 31157, Control_c, 10, 7, 98
14, 31158, Control_c, 10, 7, 97
14, 31159, Control_c, 10, 7, 96
14, 31160, Control_c, 10, 7, 95
14, 31161, Control_c, 10, 7, 95
14, 31162, Control_c, 10, 7, 94
14, 31163, Control_c, 10, 7, 93
14, 31164, Control_c, 10, 7, 92
14, 31165, Control_c, 10, 7, 91
14, 31166, Control_c, 10, 7, 90
14, 31167, Control_c, 10, 7, 89
14, 31168, Control_c, 10, 7, 88
14, 31169, Control_c, 10, 7, 87
14, 31170, Control_c, 10, 7, 87
14, 31171, Control_c, 10, 7, 86
14, 31172, Control_c, 10, 7, 85
14, 31173, Control_c, 10, 7, 84
14, 31174, Control_c, 10, 7, 83
14, 31175, Control_c, 10, 7, 82
14, 31176, Control_c, 10, 7, 81
14, 31177, Control_c, 10, 7, 80
14, 31178, Control_c, 10, 7, 80
14, 31179, Control_c, 10, 7, 79
14, 31180, Control_c, 10, 7, 78
14, 31181, Control_c, 10, 7, 77
14, 31182, Control_c, 10, 7, 76
14, 31183, Control_c, 10, 7, 75
14, 31184, Control_c, 10, 7, 74
14, 31185, Control_c, 10, 7, 73
14, 31186, Control_c, 10, 7, 73
14, 31187, Control_c, 10, 7, 72
14, 31188, Control_c, 10, 7, 71
14, 31189, Control_c, 10, 7, 70
14, 31190, Control_c, 10, 7, 69
14, 31191, Control_c, 10, 7, 68
14, 31192, Control_c, 10, 7, 67
14, 31193, Control_c, 10, 7, 66
14, 31194, Control_c, 10, 7, 66
14, 31195, Control_c, 10, 7, 65
14, 31196, Control_c, 10, 7, 64
14, 31197, Control_c, 10, 7, 63
14, 31198, Control_c, 10, 7, 62
14, 31199, Control_c, 10, 7, 61
14, 31200, Note_off_c, 10, 51, 64
14, 31200, Note_off_c, 10, 27, 64
14, 31200, Note_off_c, 10, 39, 64
14, 31200, Control_c, 10, 7, 102
14, 31200, Note_on_c, 10, 39, 127
14, 31200, Note_on_c, 10, 27, 127
14, 31200, Note_on_c, 10, 51, 127
14, 31201, Control_c, 10, 7, 102
14, 31202, Control_c, 10, 7, 101
14, 31203, Control_c, 10, 7, 100
14, 31204, Control_c, 10, 7, 99
14, 31205, Control_c, 10, 7, 98
14, 31206, Control_c, 10, 7, 97
14, 31207, Control_c, 10, 7, 96
14, 31208, Control_c, 10, 7, 96
14, 31209, Control_c, 10, 7, 95
14, 31210, Control_c, 10, 7, 94
14, 31211, Control_c, 10, 7, 93
14, 31212, Control_c, 10, 7, 92
14, 31213, Control_c, 10, 7, 91
14, 31214, Control_c, 10, 7, 91
14, 31215, Control_c, 10, 7, 90
14, 31216, Control_c, 10, 7, 89
14, 31217, Control_c, 10, 7, 88
14, 31218, Control_c, 10, 7, 87
14, 31219, Control_c, 10, 7, 86
14, 31220, Control_c, 10, 7, 85
14, 31221, Control_c, 10, 7, 85
14, 31222, Control_c, 10, 7, 84
14, 31223, Control_c, 10, 7, 83
14, 31224, Control_c, 10, 7, 82
14, 31225, Control_c, 10, 7, 81
14, 31226, Control_c, 10, 7, 80
14, 31227, Control_c, 10, 7, 80
14, 31228, Control_c, 10, 7, 79
14, 31229, Control_c, 10, 7, 78
14, 31230, Control_c, 10, 7, 77
14, 31231, Control_c, 10, 7, 76
14, 31232, Control_c, 10, 7, 75
14, 31233, Control_c, 10, 7, 74
14, 31234, Control_c, 10, 7, 74
14, 31235, Control_c, 10, 7, 73
14, 31236, Control_c, 10, 7, 72
14, 31237, Control_c, 10, 7, 71
14, 31238, Control_c, 10, 7, 70
14, 31239, Control_c, 10, 7, 69
14, 31240, Control_c, 10, 7, 68
14, 31241, Control_c, 10, 7, 68
14, 31242, Control_c, 10, 7, 67
14, 31243, Control_c, 10, 7, 66
14, 31244, Control_c, 10, 7, 65
14, 31245, Control_c, 10, 7, 64
14, 31246, Control_c, 10, 7, 102
14, 31247, Control_c, 10, 7, 102
14, 31248, Note_off_c, 10, 39, 64
14, 31248, Note_off_c, 10, 51, 64
14, 31248, Note_off_c, 10, 27, 64
14, 31248, Control_c, 10, 7, 101
14, 31248, Note_on_c, 10, 39, 127
14, 31248, Note_on_c, 10, 27, 127
14, 31248, Note_on_c, 10, 51, 127
14, 31249, Control_c, 10, 7, 100
14, 31250, Control_c, 10, 7, 99
14, 31251, Control_c, 10, 7, 98
14, 31252, Control_c, 10, 7, 97
14, 31253, Control_c, 10, 7, 97
14, 31254, Control_c, 10, 7, 96
14, 31255, Control_c, 10, 7, 95
14, 31256, Control_c, 10, 7, 94
14, 31257, Control_c, 10, 7, 93
14, 31258, Control_c, 10, 7, 93
14, 31259, Control_c, 10, 7, 92
14, 31260, Control_c, 10, 7, 91
14, 31261, Control_c, 10, 7, 90
14, 31262, Control_c, 10, 7, 89
14, 31263, Control_c, 10, 7, 88
14, 31264, Control_c, 10, 7, 88
14, 31265, Control_c, 10, 7, 87
14, 31266, Control_c, 10, 7, 86
14, 31267, Control_c, 10, 7, 85
14, 31268, Control_c, 10, 7, 84
14, 31269, Control_c, 10, 7, 84
14, 31270, Control_c, 10, 7, 83
14, 31271, Control_c, 10, 7, 82
14, 31272, Control_c, 10, 7, 81
14, 31273, Control_c, 10, 7, 80
14, 31274, Control_c, 10, 7, 79
14, 31275, Control_c, 10, 7, 79
14, 31276, Control_c, 10, 7, 78
14, 31277, Control_c, 10, 7, 77
14, 31278, Control_c, 10, 7, 76
14, 31279, Control_c, 10, 7, 75
14, 31280, Control_c, 10, 7, 75
14, 31281, Control_c, 10, 7, 74
14, 31282, Control_c, 10, 7, 73
14, 31283, Control_c, 10, 7, 72
14, 31284, Control_c, 10, 7, 71
14, 31285, Control_c, 10, 7, 70
14, 31286, Control_c, 10, 7, 70
14, 31287, Control_c, 10, 7, 69
14, 31288, Control_c, 10, 7, 68
14, 31289, Control_c, 10, 7, 67
14, 31290, Control_c, 10, 7, 66
14, 31291, Control_c, 10, 7, 66
14, 31292, Control_c, 10, 7, 65
14, 31293, Control_c, 10, 7, 64
14, 31294, Control_c, 10, 7, 63
14, 31295, Control_c, 10, 7, 62
14, 31296, Note_off_c, 10, 27, 64
14, 31296, Note_off_c, 10, 51, 64
14, 31296, Note_off_c, 10, 39, 64
14, 31296, Control_c, 10, 7, 102
14, 31296, Note_on_c, 10, 39, 127
14, 31296, Note_on_c, 10, 27, 127
14, 31296, Note_on_c, 10, 51, 127
14, 31297, Control_c, 10, 7, 102
14, 31298, Control_c, 10, 7, 101
14, 31299, Control_c, 10, 7, 100
14, 31300, Control_c, 10, 7, 99
14, 31301, Control_c, 10, 7, 98
14, 31302, Control_c, 10, 7, 97
14, 31303, Control_c, 10, 7, 96
14, 31304, Control_c, 10, 7, 95
14, 31305, Control_c, 10, 7, 94
14, 31306, Control_c, 10, 7, 94
14, 31307, Control_c, 10, 7, 93
14, 31308, Control_c, 10, 7, 92
14, 31309, Control_c, 10, 7, 91
14, 31310, Control_c, 10, 7, 90
14, 31311, Control_c, 10, 7, 89
14, 31312, Control_c, 10, 7, 88
14, 31313, Control_c, 10, 7, 87
14, 31314, Control_c, 10, 7, 86
14, 31315, Control_c, 10, 7, 86
14, 31316, Control_c, 10, 7, 85
14, 31317, Control_c, 10, 7, 84
14, 31318, Control_c, 10, 7, 83
14, 31319, Control_c, 10, 7, 82
14, 31320, Control_c, 10, 7, 81
14, 31321, Control_c, 10, 7, 80
14, 31322, Control_c, 10, 7, 79
14, 31323, Control_c, 10, 7, 78
14, 31324, Control_c, 10, 7, 78
14, 31325, Control_c, 10, 7, 77
14, 31326, Control_c, 10, 7, 76
14, 31327, Control_c, 10, 7, 75
14, 31328, Control_c, 10, 7, 74
14, 31329, Control_c, 10, 7, 73
14, 31330, Control_c, 10, 7, 72
14, 31331, Control_c, 10, 7, 71
14, 31332, Control_c, 10, 7, 70
14, 31333, Control_c, 10, 7, 69
14, 31334, Control_c, 10, 7, 69
14, 31335, Control_c, 10, 7, 68
14, 31336, Control_c, 10, 7, 67
14, 31337, Control_c, 10, 7, 66
14, 31338, Control_c, 10, 7, 65
14, 31339, Control_c, 10, 7, 64
14, 31340, Control_c, 10, 7, 63
14, 31341, Control_c, 10, 7, 62
14, 31342, Control_c, 10, 7, 61
14, 31343, Control_c, 10, 7, 61
14, 31344, Note_off_c, 10, 51, 64
14, 31344, Note_off_c, 10, 27, 64
14, 31344, Note_off_c, 10, 39, 64
14, 31344, Note_on_c, 10, 39, 127
14, 31344, Note_on_c, 10, 27, 127
14, 31344, Note_on_c, 10, 51, 127
14, 31345, Control_c, 10, 7, 103
14, 31346, Control_c, 10, 7, 102
14, 31347, Control_c, 10, 7, 101
14, 31348, Control_c, 10, 7, 100
14, 31349, Control_c, 10, 7, 99
14, 31350, Control_c, 10, 7, 99
14, 31351, Control_c, 10, 7, 98
14, 31352, Control_c, 10, 7, 97
14, 31353, Control_c, 10, 7, 96
14, 31354, Control_c, 10, 7, 95
14, 31355, Control_c, 10, 7, 94
14, 31356, Control_c, 10, 7, 93
14, 31357, Control_c, 10, 7, 93
14, 31358, Control_c, 10, 7, 92
14, 31359, Control_c, 10, 7, 91
14, 31360, Control_c, 10, 7, 90
14, 31361, Control_c, 10, 7, 89
14, 31362, Control_c, 10, 7, 88
14, 31363, Control_c, 10, 7, 87
14, 31364, Control_c, 10, 7, 87
14, 31365, Control_c, 10, 7, 86
14, 31366, Control_c, 10, 7, 85
14, 31367, Control_c, 10, 7, 84
14, 31368, Control_c, 10, 7, 83
14, 31369, Control_c, 10, 7, 82
14, 31370, Control_c, 10, 7, 81
14, 31371, Control_c, 10, 7, 81
14, 31372, Control_c, 10, 7, 80
14, 31373, Control_c, 10, 7, 79
14, 31374, Control_c, 10, 7, 78
14, 31375, Control_c, 10, 7, 77
14, 31376, Control_c, 10, 7, 76
14, 31377, Control_c, 10, 7, 75
14, 31378, Control_c, 10, 7, 75
14, 31379, Control_c, 10, 7, 74
14, 31380, Control_c, 10, 7, 73
14, 31381, Control_c, 10, 7, 72
14, 31382, Control_c, 10, 7, 71
14, 31383, Control_c, 10, 7, 70
14, 31384, Control_c, 10, 7, 69
14, 31385, Control_c, 10, 7, 69
14, 31386, Control_c, 10, 7, 68
14, 31387, Control_c, 10, 7, 67
14, 31388, Control_c, 10, 7, 66
14, 31389, Control_c, 10, 7, 65
14, 31390, Control_c, 10, 7, 64
14, 31391, Control_c, 10, 7, 64
14, 31392, Note_off_c, 10, 51, 64
14, 31392, Note_off_c, 10, 27, 64
14, 31392, Note_off_c, 10, 39, 64
14, 31392, Note_on_c, 10, 39, 127
14, 31392, Note_on_c, 10, 27, 127
14, 31392, Note_on_c, 10, 51, 127
14, 31393, Control_c, 10, 7, 104
14, 31394, Control_c, 10, 7, 103
14, 31395, Control_c, 10, 7, 102
14, 31396, Control_c, 10, 7, 101
14, 31397, Control_c, 10, 7, 100
14, 31398, Control_c, 10, 7, 99
14, 31399, Control_c, 10, 7, 98
14, 31400, Control_c, 10, 7, 98
14, 31401, Control_c, 10, 7, 97
14, 31402, Control_c, 10, 7, 96
14, 31403, Control_c, 10, 7, 95
14, 31404, Control_c, 10, 7, 94
14, 31405, Control_c, 10, 7, 93
14, 31406, Control_c, 10, 7, 93
14, 31407, Control_c, 10, 7, 92
14, 31408, Control_c, 10, 7, 91
14, 31409, Control_c, 10, 7, 90
14, 31410, Control_c, 10, 7, 89
14, 31411, Control_c, 10, 7, 88
14, 31412, Control_c, 10, 7, 87
14, 31413, Control_c, 10, 7, 87
14, 31414, Control_c, 10, 7, 86
14, 31415, Control_c, 10, 7, 85
14, 31416, Control_c, 10, 7, 84
14, 31417, Control_c, 10, 7, 83
14, 31418, Control_c, 10, 7, 82
14, 31419, Control_c, 10, 7, 82
14, 31420, Control_c, 10, 7, 81
14, 31421, Control_c, 10, 7, 80
14, 31422, Control_c, 10, 7, 79
14, 31423, Control_c, 10, 7, 78
14, 31424, Control_c, 10, 7, 77
14, 31425, Control_c, 10, 7, 76
14, 31426, Control_c, 10, 7, 76
14, 31427, Control_c, 10, 7, 75
14, 31428, Control_c, 10, 7, 74
14, 31429, Control_c, 10, 7, 73
14, 31430, Control_c, 10, 7, 72
14, 31431, Control_c, 10, 7, 71
14, 31432, Control_c, 10, 7, 71
14, 31433, Control_c, 10, 7, 70
14, 31434, Control_c, 10, 7, 69
14, 31435, Control_c, 10, 7, 68
14, 31436, Control_c, 10, 7, 67
14, 31437, Control_c, 10, 7, 66
14, 31438, Control_c, 10, 7, 65
14, 31439, Control_c, 10, 7, 102
14, 31440, Note_off_c, 10, 51, 64
14, 31440, Note_off_c, 10, 27, 64
14, 31440, Note_off_c, 10, 39, 64
14, 31440, Control_c, 10, 7, 102
14, 31440, Note_on_c, 10, 39, 127
14, 31440, Note_on_c, 10, 27, 127
14, 31440, Note_on_c, 10, 51, 127
14, 31441, Control_c, 10, 7, 101
14, 31442, Control_c, 10, 7, 100
14, 31443, Control_c, 10, 7, 99
14, 31444, Control_c, 10, 7, 98
14, 31445, Control_c, 10, 7, 97
14, 31446, Control_c, 10, 7, 96
14, 31447, Control_c, 10, 7, 96
14, 31448, Control_c, 10, 7, 95
14, 31449, Control_c, 10, 7, 94
14, 31450, Control_c, 10, 7, 93
14, 31451, Control_c, 10, 7, 92
14, 31452, Control_c, 10, 7, 91
14, 31453, Control_c, 10, 7, 90
14, 31454, Control_c, 10, 7, 89
14, 31455, Control_c, 10, 7, 89
14, 31456, Control_c, 10, 7, 88
14, 31457, Control_c, 10, 7, 87
14, 31458, Control_c, 10, 7, 86
14, 31459, Control_c, 10, 7, 85
14, 31460, Control_c, 10, 7, 84
14, 31461, Control_c, 10, 7, 83
14, 31462, Control_c, 10, 7, 83
14, 31463, Control_c, 10, 7, 82
14, 31464, Control_c, 10, 7, 81
14, 31465, Control_c, 10, 7, 80
14, 31466, Control_c, 10, 7, 79
14, 31467, Control_c, 10, 7, 78
14, 31468, Control_c, 10, 7, 77
14, 31469, Control_c, 10, 7, 77
14, 31470, Control_c, 10, 7, 76
14, 31471, Control_c, 10, 7, 75
14, 31472, Control_c, 10, 7, 74
14, 31473, Control_c, 10, 7, 73
14, 31474, Control_c, 10, 7, 72
14, 31475, Control_c, 10, 7, 71
14, 31476, Control_c, 10, 7, 71
14, 31477, Control_c, 10, 7, 70
14, 31478, Control_c, 10, 7, 69
14, 31479, Control_c, 10, 7, 68
14, 31480, Control_c, 10, 7, 67
14, 31481, Control_c, 10, 7, 66
14, 31482, Control_c, 10, 7, 65
14, 31483, Control_c, 10, 7, 65
14, 31484, Control_c, 10, 7, 64
14, 31485, Control_c, 10, 7, 63
14, 31488, Note_off_c, 10, 27, 64
14, 31488, Note_off_c, 10, 51, 64
14, 31488, Note_off_c, 10, 39, 64
14, 31488, Control_c, 10, 7, 113
14, 31488, Note_on_c, 10, 39, 127
14, 31488, Note_on_c, 10, 27, 127
14, 31488, Note_on_c, 10, 51, 127
14, 31489, Control_c, 10, 7, 113
14, 31490, Control_c, 10, 7, 112
14, 31491, Control_c, 10, 7, 112
14, 31492, Control_c, 10, 7, 112
14, 31493, Control_c, 10, 7, 111
14, 31494, Control_c, 10, 7, 111
14, 31495, Control_c, 10, 7, 110
14, 31496, Control_c, 10, 7, 110
14, 31497, Control_c, 10, 7, 110
14, 31498, Control_c, 10, 7, 109
14, 31499, Control_c, 10, 7, 109
14, 31500, Control_c, 10, 7, 109
14, 31501, Control_c, 10, 7, 108
14, 31502, Control_c, 10, 7, 108
14, 31503, Control_c, 10, 7, 108
14, 31504, Control_c, 10, 7, 107
14, 31505, Control_c, 10, 7, 107
14, 31506, Control_c, 10, 7, 107
14, 31507, Control_c, 10, 7, 106
14, 31508, Control_c, 10, 7, 106
14, 31509, Control_c, 10, 7, 106
14, 31510, Control_c, 10, 7, 105
14, 31511, Control_c, 10, 7, 105
14, 31512, Control_c, 10, 7, 104
14, 31513, Control_c, 10, 7, 104
14, 31514, Control_c, 10, 7, 104
14, 31515, Control_c, 10, 7, 103
14, 31516, Control_c, 10, 7, 103
14, 31517, Control_c, 10, 7, 103
14, 31518, Control_c, 10, 7, 102
14, 31519, Control_c, 10, 7, 102
14, 31520, Control_c, 10, 7, 102
14, 31521, Control_c, 10, 7, 101
14, 31522, Control_c, 10, 7, 101
14, 31523, Control_c, 10, 7, 101
14, 31524, Control_c, 10, 7, 100
14, 31525, Control_c, 10, 7, 100
14, 31526, Control_c, 10, 7, 100
14, 31527, Control_c, 10, 7, 99
14, 31528, Control_c, 10, 7, 99
14, 31529, Control_c, 10, 7, 98
14, 31530, Control_c, 10, 7, 98
14, 31531, Control_c, 10, 7, 98
14, 31532, Control_c, 10, 7, 97
14, 31533, Control_c, 10, 7, 97
14, 31534, Control_c, 10, 7, 97
14, 31535, Control_c, 10, 7, 96
14, 31536, Control_c, 10, 7, 96
14, 31537, Control_c, 10, 7, 96
14, 31538, Control_c, 10, 7, 95
14, 31539, Control_c, 10, 7, 95
14, 31540, Control_c, 10, 7, 95
14, 31541, Control_c, 10, 7, 94
14, 31542, Control_c, 10, 7, 94
14, 31543, Control_c, 10, 7, 94
14, 31544, Control_c, 10, 7, 93
14, 31545, Control_c, 10, 7, 93
14, 31546, Control_c, 10, 7, 92
14, 31547, Control_c, 10, 7, 92
14, 31548, Control_c, 10, 7, 92
14, 31549, Control_c, 10, 7, 91
14, 31550, Control_c, 10, 7, 91
14, 31551, Control_c, 10, 7, 91
14, 31552, Control_c, 10, 7, 90
14, 31553, Control_c, 10, 7, 90
14, 31554, Control_c, 10, 7, 90
14, 31555, Control_c, 10, 7, 89
14, 31556, Control_c, 10, 7, 89
14, 31557, Control_c, 10, 7, 89
14, 31558, Control_c, 10, 7, 88
14, 31559, Control_c, 10, 7, 88
14, 31560, Control_c, 10, 7, 88
14, 31561, Control_c, 10, 7, 87
14, 31562, Control_c, 10, 7, 87
14, 31563, Control_c, 10, 7, 86
14, 31564, Control_c, 10, 7, 86
14, 31565, Control_c, 10, 7, 86
14, 31566, Control_c, 10, 7, 85
14, 31567, Control_c, 10, 7, 85
14, 31568, Control_c, 10, 7, 85
14, 31569, Control_c, 10, 7, 84
14, 31570, Control_c, 10, 7, 84
14, 31571, Control_c, 10, 7, 84
14, 31572, Control_c, 10, 7, 83
14, 31573, Control_c, 10, 7, 83
14, 31574, Control_c, 10, 7, 83
14, 31575, Control_c, 10, 7, 82
14, 31576, Control_c, 10, 7, 82
14, 31577, Control_c, 10, 7, 82
14, 31578, Control_c, 10, 7, 81
14, 31579, Control_c, 10, 7, 81
14, 31580, Control_c, 10, 7, 80
14, 31581, Control_c, 10, 7, 80
14, 31582, Control_c, 10, 7, 80
14, 31583, Control_c, 10, 7, 79
14, 31584, Control_c, 10, 7, 79
14, 31585, Control_c, 10, 7, 79
14, 31586, Control_c, 10, 7, 78
14, 31587, Control_c, 10, 7, 78
14, 31588, Control_c, 10, 7, 78
14, 31589, Control_c, 10, 7, 77
14, 31590, Control_c, 10, 7, 77
14, 31591, Control_c, 10, 7, 77
14, 31592, Control_c, 10, 7, 76
14, 31593, Control_c, 10, 7, 76
14, 31594, Control_c, 10, 7, 76
14, 31595, Control_c, 10, 7, 75
14, 31596, Control_c, 10, 7, 75
14, 31597, Control_c, 10, 7, 74
14, 31598, Control_c, 10, 7, 74
14, 31599, Control_c, 10, 7, 74
14, 31600, Control_c, 10, 7, 73
14, 31601, Control_c, 10, 7, 73
14, 31602, Control_c, 10, 7, 73
14, 31603, Control_c, 10, 7, 72
14, 31604, Control_c, 10, 7, 72
14, 31605, Control_c, 10, 7, 72
14, 31606, Control_c, 10, 7, 71
14, 31607, Control_c, 10, 7, 71
14, 31608, Control_c, 10, 7, 71
14, 31609, Control_c, 10, 7, 70
14, 31610, Control_c, 10, 7, 70
14, 31611, Control_c, 10, 7, 70
14, 31612, Control_c, 10, 7, 69
14, 31613, Control_c, 10, 7, 69
14, 31614, Control_c, 10, 7, 68
14, 31615, Control_c, 10, 7, 68
14, 31616, Control_c, 10, 7, 68
14, 31617, Control_c, 10, 7, 67
14, 31618, Control_c, 10, 7, 67
14, 31619, Control_c, 10, 7, 67
14, 31620, Control_c, 10, 7, 66
14, 31621, Control_c, 10, 7, 66
14, 31622, Control_c, 10, 7, 66
14, 31623, Control_c, 10, 7, 65
14, 31624, Control_c, 10, 7, 65
14, 31625, Control_c, 10, 7, 65
14, 31626, Control_c, 10, 7, 64
14, 31627, Control_c, 10, 7, 64
14, 31628, Control_c, 10, 7, 64
14, 31629, Control_c, 10, 7, 63
14, 31630, Control_c, 10, 7, 111
14, 31631, Control_c, 10, 7, 111
14, 31632, Note_off_c, 10, 27, 64
14, 31632, Note_off_c, 10, 39, 64
14, 31632, Note_off_c, 10, 51, 64
14, 31632, Control_c, 10, 7, 110
14, 31632, Note_on_c, 10, 39, 127
14, 31632, Note_on_c, 10, 51, 127
14, 31632, Note_on_c, 10, 27, 127
14, 31633, Control_c, 10, 7, 110
14, 31634, Control_c, 10, 7, 110
14, 31635, Control_c, 10, 7, 109
14, 31636, Control_c, 10, 7, 109
14, 31637, Control_c, 10, 7, 109
14, 31638, Control_c, 10, 7, 109
14, 31639, Control_c, 10, 7, 108
14, 31640, Control_c, 10, 7, 108
14, 31641, Control_c, 10, 7, 108
14, 31642, Control_c, 10, 7, 107
14, 31643, Control_c, 10, 7, 107
14, 31644, Control_c, 10, 7, 107
14, 31645, Control_c, 10, 7, 106
14, 31646, Control_c, 10, 7, 106
14, 31647, Control_c, 10, 7, 106
14, 31648, Control_c, 10, 7, 105
14, 31649, Control_c, 10, 7, 105
14, 31650, Control_c, 10, 7, 105
14, 31651, Control_c, 10, 7, 104
14, 31652, Control_c, 10, 7, 104
14, 31653, Control_c, 10, 7, 104
14, 31654, Control_c, 10, 7, 103
14, 31655, Control_c, 10, 7, 103
14, 31656, Control_c, 10, 7, 103
14, 31657, Control_c, 10, 7, 102
14, 31658, Control_c, 10, 7, 102
14, 31659, Control_c, 10, 7, 102
14, 31660, Control_c, 10, 7, 101
14, 31661, Control_c, 10, 7, 101
14, 31662, Control_c, 10, 7, 101
14, 31663, Control_c, 10, 7, 100
14, 31664, Control_c, 10, 7, 100
14, 31665, Control_c, 10, 7, 100
14, 31666, Control_c, 10, 7, 99
14, 31667, Control_c, 10, 7, 99
14, 31668, Control_c, 10, 7, 99
14, 31669, Control_c, 10, 7, 98
14, 31670, Control_c, 10, 7, 98
14, 31671, Control_c, 10, 7, 98
14, 31672, Control_c, 10, 7, 97
14, 31673, Control_c, 10, 7, 97
14, 31674, Control_c, 10, 7, 97
14, 31675, Control_c, 10, 7, 96
14, 31676, Control_c, 10, 7, 96
14, 31677, Control_c, 10, 7, 96
14, 31678, Control_c, 10, 7, 95
14, 31679, Control_c, 10, 7, 95
14, 31680, Control_c, 10, 7, 95
14, 31681, Control_c, 10, 7, 94
14, 31682, Control_c, 10, 7, 94
14, 31683, Control_c, 10, 7, 94
14, 31684, Control_c, 10, 7, 93
14, 31685, Control_c, 10, 7, 93
14, 31686, Control_c, 10, 7, 93
14, 31687, Control_c, 10, 7, 92
14, 31688, Control_c, 10, 7, 92
14, 31689, Control_c, 10, 7, 92
14, 31690, Control_c, 10, 7, 91
14, 31691, Control_c, 10, 7, 91
14, 31692, Control_c, 10, 7, 91
14, 31693, Control_c, 10, 7, 90
14, 31694, Control_c, 10, 7, 90
14, 31695, Control_c, 10, 7, 90
14, 31696, Control_c, 10, 7, 89
14, 31697, Control_c, 10, 7, 89
14, 31698, Control_c, 10, 7, 89
14, 31699, Control_c, 10, 7, 88
14, 31700, Control_c, 10, 7, 88
14, 31701, Control_c, 10, 7, 88
14, 31702, Control_c, 10, 7, 87
14, 31703, Control_c, 10, 7, 87
14, 31704, Control_c, 10, 7, 87
14, 31705, Control_c, 10, 7, 86
14, 31706, Control_c, 10, 7, 86
14, 31707, Control_c, 10, 7, 86
14, 31708, Control_c, 10, 7, 85
14, 31709, Control_c, 10, 7, 85
14, 31710, Control_c, 10, 7, 85
14, 31711, Control_c, 10, 7, 84
14, 31712, Control_c, 10, 7, 84
14, 31713, Control_c, 10, 7, 84
14, 31714, Control_c, 10, 7, 83
14, 31715, Control_c, 10, 7, 83
14, 31716, Control_c, 10, 7, 83
14, 31717, Control_c, 10, 7, 82
14, 31718, Control_c, 10, 7, 82
14, 31719, Control_c, 10, 7, 82
14, 31720, Control_c, 10, 7, 81
14, 31721, Control_c, 10, 7, 81
14, 31722, Control_c, 10, 7, 81
14, 31723, Control_c, 10, 7, 80
14, 31724, Control_c, 10, 7, 80
14, 31725, Control_c, 10, 7, 80
14, 31726, Control_c, 10, 7, 79
14, 31727, Control_c, 10, 7, 79
14, 31728, Control_c, 10, 7, 79
14, 31729, Control_c, 10, 7, 78
14, 31730, Control_c, 10, 7, 78
14, 31731, Control_c, 10, 7, 78
14, 31732, Control_c, 10, 7, 77
14, 31733, Control_c, 10, 7, 77
14, 31734, Control_c, 10, 7, 77
14, 31735, Control_c, 10, 7, 76
14, 31736, Control_c, 10, 7, 76
14, 31737, Control_c, 10, 7, 76
14, 31738, Control_c, 10, 7, 75
14, 31739, Control_c, 10, 7, 75
14, 31740, Control_c, 10, 7, 75
14, 31741, Control_c, 10, 7, 74
14, 31742, Control_c, 10, 7, 74
14, 31743, Control_c, 10, 7, 74
14, 31744, Control_c, 10, 7, 73
14, 31745, Control_c, 10, 7, 73
14, 31746, Control_c, 10, 7, 73
14, 31747, Control_c, 10, 7, 72
14, 31748, Control_c, 10, 7, 72
14, 31749, Control_c, 10, 7, 72
14, 31750, Control_c, 10, 7, 71
14, 31751, Control_c, 10, 7, 71
14, 31752, Control_c, 10, 7, 71
14, 31753, Control_c, 10, 7, 70
14, 31754, Control_c, 10, 7, 70
14, 31755, Control_c, 10, 7, 70
14, 31756, Control_c, 10, 7, 69
14, 31757, Control_c, 10, 7, 69
14, 31758, Control_c, 10, 7, 69
14, 31759, Control_c, 10, 7, 68
14, 31760, Control_c, 10, 7, 68
14, 31761, Control_c, 10, 7, 68
14, 31762, Control_c, 10, 7, 67
14, 31763, Control_c, 10, 7, 67
14, 31764, Control_c, 10, 7, 67
14, 31765, Control_c, 10, 7, 66
14, 31766, Control_c, 10, 7, 66
14, 31767, Control_c, 10, 7, 66
14, 31768, Control_c, 10, 7, 65
14, 31769, Control_c, 10, 7, 65
14, 31770, Control_c, 10, 7, 65
14, 31771, Control_c, 10, 7, 64
14, 31772, Control_c, 10, 7, 64
14, 31773, Control_c, 10, 7, 64
14, 31774, Control_c, 10, 7, 63
14, 31775, Control_c, 10, 7, 63
14, 31776, Note_off_c, 10, 39, 64
14, 31776, Note_off_c, 10, 51, 64
14, 31776, Note_off_c, 10, 27, 64
14, 31776, Control_c, 10, 7, 64
14, 31776, Note_on_c, 10, 39, 127
14, 31776, Note_on_c, 10, 51, 127
14, 31776, Note_on_c, 10, 27, 127
14, 31777, Control_c, 10, 7, 64
14, 31778, Control_c, 10, 7, 65
14, 31779, Control_c, 10, 7, 65
14, 31780, Control_c, 10, 7, 66
14, 31781, Control_c, 10, 7, 66
14, 31782, Control_c, 10, 7, 67
14, 31783, Control_c, 10, 7, 67
14, 31784, Control_c, 10, 7, 68
14, 31785, Control_c, 10, 7, 68
14, 31786, Control_c, 10, 7, 69
14, 31787, Control_c, 10, 7, 69
14, 31788, Control_c, 10, 7, 70
14, 31789, Control_c, 10, 7, 70
14, 31790, Control_c, 10, 7, 71
14, 31791, Control_c, 10, 7, 71
14, 31792, Control_c, 10, 7, 72
14, 31793, Control_c, 10, 7, 72
14, 31794, Control_c, 10, 7, 73
14, 31795, Control_c, 10, 7, 73
14, 31796, Control_c, 10, 7, 74
14, 31797, Control_c, 10, 7, 74
14, 31798, Control_c, 10, 7, 75
14, 31799, Control_c, 10, 7, 75
14, 31800, Control_c, 10, 7, 76
14, 31801, Control_c, 10, 7, 76
14, 31802, Control_c, 10, 7, 77
14, 31803, Control_c, 10, 7, 77
14, 31804, Control_c, 10, 7, 78
14, 31805, Control_c, 10, 7, 78
14, 31806, Control_c, 10, 7, 79
14, 31807, Control_c, 10, 7, 79
14, 31808, Control_c, 10, 7, 80
14, 31809, Control_c, 10, 7, 80
14, 31810, Control_c, 10, 7, 81
14, 31811, Control_c, 10, 7, 81
14, 31812, Control_c, 10, 7, 82
14, 31813, Control_c, 10, 7, 82
14, 31814, Control_c, 10, 7, 83
14, 31815, Control_c, 10, 7, 83
14, 31816, Control_c, 10, 7, 84
14, 31817, Control_c, 10, 7, 84
14, 31818, Control_c, 10, 7, 85
14, 31819, Control_c, 10, 7, 85
14, 31820, Control_c, 10, 7, 86
14, 31821, Control_c, 10, 7, 86
14, 31822, Control_c, 10, 7, 87
14, 31823, Control_c, 10, 7, 87
14, 31824, Control_c, 10, 7, 88
14, 31825, Control_c, 10, 7, 88
14, 31826, Control_c, 10, 7, 89
14, 31827, Control_c, 10, 7, 89
14, 31828, Control_c, 10, 7, 90
14, 31829, Control_c, 10, 7, 90
14, 31830, Control_c, 10, 7, 91
14, 31831, Control_c, 10, 7, 91
14, 31832, Control_c, 10, 7, 92
14, 31833, Control_c, 10, 7, 92
14, 31834, Control_c, 10, 7, 93
14, 31835, Control_c, 10, 7, 93
14, 31836, Control_c, 10, 7, 94
14, 31837, Control_c, 10, 7, 94
14, 31838, Control_c, 10, 7, 95
14, 31839, Control_c, 10, 7, 95
14, 31840, Control_c, 10, 7, 96
14, 31841, Control_c, 10, 7, 96
14, 31842, Control_c, 10, 7, 97
14, 31843, Control_c, 10, 7, 97
14, 31844, Control_c, 10, 7, 98
14, 31845, Control_c, 10, 7, 98
14, 31846, Control_c, 10, 7, 99
14, 31847, Control_c, 10, 7, 99
14, 31848, Control_c, 10, 7, 100
14, 31849, Control_c, 10, 7, 100
14, 31850, Control_c, 10, 7, 101
14, 31851, Control_c, 10, 7, 101
14, 31852, Control_c, 10, 7, 102
14, 31853, Control_c, 10, 7, 102
14, 31854, Control_c, 10, 7, 103
14, 31855, Control_c, 10, 7, 103
14, 31856, Control_c, 10, 7, 104
14, 31857, Control_c, 10, 7, 104
14, 31858, Control_c, 10, 7, 105
14, 31859, Control_c, 10, 7, 105
14, 31860, Control_c, 10, 7, 106
14, 31861, Control_c, 10, 7, 106
14, 31862, Control_c, 10, 7, 107
14, 31863, Control_c, 10, 7, 107
14, 31864, Control_c, 10, 7, 108
14, 31865, Control_c, 10, 7, 108
14, 31866, Control_c, 10, 7, 109
14, 31867, Control_c, 10, 7, 109
14, 31868, Control_c, 10, 7, 110
14, 31869, Control_c, 10, 7, 110
14, 31870, Control_c, 10, 7, 111
14, 31871, Control_c, 10, 7, 111
14, 31872, Note_off_c, 10, 39, 64
14, 31872, Note_off_c, 10, 51, 64
14, 31872, Note_off_c, 10, 27, 64
14, 31872, Control_c, 10, 7, 112
14, 31872, Note_on_c, 10, 39, 127
14, 31872, Note_on_c, 10, 51, 127
14, 31872, Note_on_c, 10, 27, 127
14, 31873, Control_c, 10, 7, 64
14, 31874, Control_c, 10, 7, 65
14, 31875, Control_c, 10, 7, 66
14, 31876, Control_c, 10, 7, 67
14, 31877, Control_c, 10, 7, 68
14, 31878, Control_c, 10, 7, 69
14, 31879, Control_c, 10, 7, 69
14, 31880, Control_c, 10, 7, 70
14, 31881, Control_c, 10, 7, 71
14, 31882, Control_c, 10, 7, 72
14, 31883, Control_c, 10, 7, 73
14, 31884, Control_c, 10, 7, 74
14, 31885, Control_c, 10, 7, 75
14, 31886, Control_c, 10, 7, 76
14, 31887, Control_c, 10, 7, 77
14, 31888, Control_c, 10, 7, 78
14, 31889, Control_c, 10, 7, 79
14, 31890, Control_c, 10, 7, 80
14, 31891, Control_c, 10, 7, 81
14, 31892, Control_c, 10, 7, 82
14, 31893, Control_c, 10, 7, 83
14, 31894, Control_c, 10, 7, 85
14, 31895, Control_c, 10, 7, 86
14, 31896, Control_c, 10, 7, 87
14, 31897, Control_c, 10, 7, 88
14, 31898, Control_c, 10, 7, 89
14, 31899, Control_c, 10, 7, 90
14, 31900, Control_c, 10, 7, 91
14, 31901, Control_c, 10, 7, 92
14, 31902, Control_c, 10, 7, 93
14, 31903, Control_c, 10, 7, 94
14, 31904, Control_c, 10, 7, 95
14, 31905, Control_c, 10, 7, 96
14, 31906, Control_c, 10, 7, 97
14, 31907, Control_c, 10, 7, 98
14, 31908, Control_c, 10, 7, 99
14, 31909, Control_c, 10, 7, 100
14, 31910, Control_c, 10, 7, 102
14, 31911, Control_c, 10, 7, 103
14, 31912, Control_c, 10, 7, 104
14, 31913, Control_c, 10, 7, 105
14, 31914, Control_c, 10, 7, 106
14, 31915, Control_c, 10, 7, 107
14, 31916, Control_c, 10, 7, 108
14, 31917, Control_c, 10, 7, 109
14, 31918, Control_c, 10, 7, 110
14, 31919, Control_c, 10, 7, 111
14, 31920, Note_off_c, 10, 51, 64
14, 31920, Note_off_c, 10, 27, 64
14, 31920, Note_off_c, 10, 39, 64
14, 31920, Control_c, 10, 7, 65
14, 31920, Note_on_c, 10, 39, 127
14, 31920, Note_on_c, 10, 51, 127
14, 31920, Note_on_c, 10, 27, 127
14, 31921, Control_c, 10, 7, 66
14, 31922, Control_c, 10, 7, 67
14, 31923, Control_c, 10, 7, 67
14, 31924, Control_c, 10, 7, 68
14, 31925, Control_c, 10, 7, 69
14, 31926, Control_c, 10, 7, 70
14, 31927, Control_c, 10, 7, 71
14, 31928, Control_c, 10, 7, 72
14, 31929, Control_c, 10, 7, 73
14, 31930, Control_c, 10, 7, 74
14, 31931, Control_c, 10, 7, 75
14, 31932, Control_c, 10, 7, 76
14, 31933, Control_c, 10, 7, 77
14, 31934, Control_c, 10, 7, 78
14, 31935, Control_c, 10, 7, 79
14, 31936, Control_c, 10, 7, 80
14, 31937, Control_c, 10, 7, 81
14, 31938, Control_c, 10, 7, 82
14, 31939, Control_c, 10, 7, 83
14, 31940, Control_c, 10, 7, 84
14, 31941, Control_c, 10, 7, 85
14, 31942, Control_c, 10, 7, 86
14, 31943, Control_c, 10, 7, 87
14, 31944, Control_c, 10, 7, 88
14, 31945, Control_c, 10, 7, 89
14, 31946, Control_c, 10, 7, 89
14, 31947, Control_c, 10, 7, 90
14, 31948, Control_c, 10, 7, 91
14, 31949, Control_c, 10, 7, 92
14, 31950, Control_c, 10, 7, 93
14, 31951, Control_c, 10, 7, 94
14, 31952, Control_c, 10, 7, 95
14, 31953, Control_c, 10, 7, 96
14, 31954, Control_c, 10, 7, 97
14, 31955, Control_c, 10, 7, 98
14, 31956, Control_c, 10, 7, 99
14, 31957, Control_c, 10, 7, 100
14, 31958, Control_c, 10, 7, 101
14, 31959, Control_c, 10, 7, 102
14, 31960, Control_c, 10, 7, 103
14, 31961, Control_c, 10, 7, 104
14, 31962, Control_c, 10, 7, 105
14, 31963, Control_c, 10, 7, 106
14, 31964, Control_c, 10, 7, 107
14, 31965, Control_c, 10, 7, 108
14, 31966, Control_c, 10, 7, 109
14, 31967, Control_c, 10, 7, 110
14, 31968, Note_off_c, 10, 39, 64
14, 31968, Note_off_c, 10, 27, 64
14, 31968, Note_off_c, 10, 51, 64
14, 31968, Control_c, 10, 7, 64
14, 31968, Note_on_c, 10, 39, 127
14, 31968, Note_on_c, 10, 51, 127
14, 31968, Note_on_c, 10, 27, 127
14, 31969, Control_c, 10, 7, 65
14, 31970, Control_c, 10, 7, 65
14, 31971, Control_c, 10, 7, 66
14, 31972, Control_c, 10, 7, 67
14, 31973, Control_c, 10, 7, 68
14, 31974, Control_c, 10, 7, 69
14, 31975, Control_c, 10, 7, 70
14, 31976, Control_c, 10, 7, 70
14, 31977, Control_c, 10, 7, 71
14, 31978, Control_c, 10, 7, 72
14, 31979, Control_c, 10, 7, 73
14, 31980, Control_c, 10, 7, 74
14, 31981, Control_c, 10, 7, 75
14, 31982, Control_c, 10, 7, 76
14, 31983, Control_c, 10, 7, 77
14, 31984, Control_c, 10, 7, 78
14, 31985, Control_c, 10, 7, 79
14, 31986, Control_c, 10, 7, 80
14, 31987, Control_c, 10, 7, 81
14, 31988, Control_c, 10, 7, 82
14, 31989, Control_c, 10, 7, 83
14, 31990, Control_c, 10, 7, 84
14, 31991, Control_c, 10, 7, 85
14, 31992, Control_c, 10, 7, 86
14, 31993, Control_c, 10, 7, 88
14, 31994, Control_c, 10, 7, 89
14, 31995, Control_c, 10, 7, 90
14, 31996, Control_c, 10, 7, 91
14, 31997, Control_c, 10, 7, 92
14, 31998, Control_c, 10, 7, 93
14, 31999, Control_c, 10, 7, 94
14, 32000, Control_c, 10, 7, 95
14, 32001, Control_c, 10, 7, 96
14, 32002, Control_c, 10, 7, 97
14, 32003, Control_c, 10, 7, 98
14, 32004, Control_c, 10, 7, 99
14, 32005, Control_c, 10, 7, 100
14, 32006, Control_c, 10, 7, 101
14, 32007, Control_c, 10, 7, 102
14, 32008, Control_c, 10, 7, 103
14, 32009, Control_c, 10, 7, 104
14, 32010, Control_c, 10, 7, 105
14, 32011, Control_c, 10, 7, 106
14, 32012, Control_c, 10, 7, 107
14, 32013, Control_c, 10, 7, 108
14, 32014, Control_c, 10, 7, 109
14, 32015, Control_c, 10, 7, 110
14, 32016, Note_off_c, 10, 39, 64
14, 32016, Note_off_c, 10, 27, 64
14, 32016, Note_off_c, 10, 51, 64
14, 32016, Control_c, 10, 7, 66
14, 32016, Note_on_c, 10, 39, 127
14, 32016, Note_on_c, 10, 51, 127
14, 32016, Note_on_c, 10, 27, 127
14, 32017, Control_c, 10, 7, 67
14, 32018, Control_c, 10, 7, 68
14, 32019, Control_c, 10, 7, 69
14, 32020, Control_c, 10, 7, 69
14, 32021, Control_c, 10, 7, 70
14, 32022, Control_c, 10, 7, 71
14, 32023, Control_c, 10, 7, 72
14, 32024, Control_c, 10, 7, 73
14, 32025, Control_c, 10, 7, 74
14, 32026, Control_c, 10, 7, 75
14, 32027, Control_c, 10, 7, 76
14, 32028, Control_c, 10, 7, 77
14, 32029, Control_c, 10, 7, 77
14, 32030, Control_c, 10, 7, 78
14, 32031, Control_c, 10, 7, 79
14, 32032, Control_c, 10, 7, 80
14, 32033, Control_c, 10, 7, 81
14, 32034, Control_c, 10, 7, 82
14, 32035, Control_c, 10, 7, 83
14, 32036, Control_c, 10, 7, 84
14, 32037, Control_c, 10, 7, 84
14, 32038, Control_c, 10, 7, 85
14, 32039, Control_c, 10, 7, 86
14, 32040, Control_c, 10, 7, 87
14, 32041, Control_c, 10, 7, 88
14, 32042, Control_c, 10, 7, 89
14, 32043, Control_c, 10, 7, 90
14, 32044, Control_c, 10, 7, 91
14, 32045, Control_c, 10, 7, 91
14, 32046, Control_c, 10, 7, 92
14, 32047, Control_c, 10, 7, 93
14, 32048, Control_c, 10, 7, 94
14, 32049, Control_c, 10, 7, 95
14, 32050, Control_c, 10, 7, 96
14, 32051, Control_c, 10, 7, 97
14, 32052, Control_c, 10, 7, 98
14, 32053, Control_c, 10, 7, 98
14, 32054, Control_c, 10, 7, 99
14, 32055, Control_c, 10, 7, 100
14, 32056, Control_c, 10, 7, 101
14, 32057, Control_c, 10, 7, 102
14, 32058, Control_c, 10, 7, 103
14, 32059, Control_c, 10, 7, 104
14, 32060, Control_c, 10, 7, 104
14, 32061, Control_c, 10, 7, 105
14, 32062, Control_c, 10, 7, 106
14, 32063, Control_c, 10, 7, 107
14, 32064, Note_off_c, 10, 51, 64
14, 32064, Note_off_c, 10, 27, 64
14, 32064, Note_off_c, 10, 39, 64
14, 32064, Control_c, 10, 7, 67
14, 32064, Note_on_c, 10, 39, 127
14, 32064, Note_on_c, 10, 51, 127
14, 32064, Note_on_c, 10, 27, 127
14, 32065, Control_c, 10, 7, 68
14, 32066, Control_c, 10, 7, 69
14, 32067, Control_c, 10, 7, 70
14, 32068, Control_c, 10, 7, 71
14, 32069, Control_c, 10, 7, 72
14, 32070, Control_c, 10, 7, 73
14, 32071, Control_c, 10, 7, 74
14, 32072, Control_c, 10, 7, 75
14, 32073, Control_c, 10, 7, 75
14, 32074, Control_c, 10, 7, 76
14, 32075, Control_c, 10, 7, 77
14, 32076, Control_c, 10, 7, 78
14, 32077, Control_c, 10, 7, 79
14, 32078, Control_c, 10, 7, 80
14, 32079, Control_c, 10, 7, 81
14, 32080, Control_c, 10, 7, 82
14, 32081, Control_c, 10, 7, 83
14, 32082, Control_c, 10, 7, 84
14, 32083, Control_c, 10, 7, 85
14, 32084, Control_c, 10, 7, 86
14, 32085, Control_c, 10, 7, 87
14, 32086, Control_c, 10, 7, 88
14, 32087, Control_c, 10, 7, 89
14, 32088, Control_c, 10, 7, 90
14, 32089, Control_c, 10, 7, 90
14, 32090, Control_c, 10, 7, 91
14, 32091, Control_c, 10, 7, 92
14, 32092, Control_c, 10, 7, 93
14, 32093, Control_c, 10, 7, 94
14, 32094, Control_c, 10, 7, 95
14, 32095, Control_c, 10, 7, 96
14, 32096, Control_c, 10, 7, 97
14, 32097, Control_c, 10, 7, 98
14, 32098, Control_c, 10, 7, 99
14, 32099, Control_c, 10, 7, 100
14, 32100, Control_c, 10, 7, 101
14, 32101, Control_c, 10, 7, 102
14, 32102, Control_c, 10, 7, 103
14, 32103, Control_c, 10, 7, 104
14, 32104, Control_c, 10, 7, 105
14, 32105, Control_c, 10, 7, 106
14, 32106, Control_c, 10, 7, 106
14, 32107, Control_c, 10, 7, 107
14, 32108, Control_c, 10, 7, 108
14, 32109, Control_c, 10, 7, 109
14, 32110, Control_c, 10, 7, 110
14, 32111, Control_c, 10, 7, 111
14, 32112, Note_off_c, 10, 39, 64
14, 32112, Note_off_c, 10, 51, 64
14, 32112, Note_off_c, 10, 27, 64
14, 32112, Control_c, 10, 7, 61
14, 32112, Note_on_c, 10, 39, 127
14, 32112, Note_on_c, 10, 51, 127
14, 32112, Note_on_c, 10, 27, 127
14, 32113, Control_c, 10, 7, 62
14, 32114, Control_c, 10, 7, 63
14, 32115, Control_c, 10, 7, 64
14, 32116, Control_c, 10, 7, 65
14, 32117, Control_c, 10, 7, 66
14, 32118, Control_c, 10, 7, 67
14, 32119, Control_c, 10, 7, 68
14, 32120, Control_c, 10, 7, 70
14, 32121, Control_c, 10, 7, 71
14, 32122, Control_c, 10, 7, 72
14, 32123, Control_c, 10, 7, 73
14, 32124, Control_c, 10, 7, 74
14, 32125, Control_c, 10, 7, 75
14, 32126, Control_c, 10, 7, 76
14, 32127, Control_c, 10, 7, 78
14, 32128, Control_c, 10, 7, 79
14, 32129, Control_c, 10, 7, 80
14, 32130, Control_c, 10, 7, 81
14, 32131, Control_c, 10, 7, 82
14, 32132, Control_c, 10, 7, 83
14, 32133, Control_c, 10, 7, 84
14, 32134, Control_c, 10, 7, 85
14, 32135, Control_c, 10, 7, 87
14, 32136, Control_c, 10, 7, 88
14, 32137, Control_c, 10, 7, 89
14, 32138, Control_c, 10, 7, 90
14, 32139, Control_c, 10, 7, 91
14, 32140, Control_c, 10, 7, 92
14, 32141, Control_c, 10, 7, 93
14, 32142, Control_c, 10, 7, 95
14, 32143, Control_c, 10, 7, 96
14, 32144, Control_c, 10, 7, 97
14, 32145, Control_c, 10, 7, 98
14, 32146, Control_c, 10, 7, 99
14, 32147, Control_c, 10, 7, 100
14, 32148, Control_c, 10, 7, 101
14, 32149, Control_c, 10, 7, 102
14, 32150, Control_c, 10, 7, 104
14, 32151, Control_c, 10, 7, 105
14, 32152, Control_c, 10, 7, 106
14, 32153, Control_c, 10, 7, 107
14, 32154, Control_c, 10, 7, 108
14, 32155, Control_c, 10, 7, 110
14, 32156, Control_c, 10, 7, 111
14, 32157, Control_c, 10, 7, 112
14, 32158, Control_c, 10, 7, 113
14, 32159, Control_c, 10, 7, 114
14, 32160, Note_off_c, 10, 39, 64
14, 32160, Note_off_c, 10, 27, 64
14, 32160, Note_off_c, 10, 51, 64
14, 32160, Control_c, 10, 7, 65
14, 32160, Note_on_c, 10, 39, 127
14, 32160, Note_on_c, 10, 51, 127
14, 32160, Note_on_c, 10, 27, 127
14, 32161, Control_c, 10, 7, 66
14, 32162, Control_c, 10, 7, 67
14, 32163, Control_c, 10, 7, 68
14, 32164, Control_c, 10, 7, 70
14, 32165, Control_c, 10, 7, 71
14, 32166, Control_c, 10, 7, 72
14, 32167, Control_c, 10, 7, 73
14, 32168, Control_c, 10, 7, 74
14, 32169, Control_c, 10, 7, 75
14, 32170, Control_c, 10, 7, 76
14, 32171, Control_c, 10, 7, 77
14, 32172, Control_c, 10, 7, 78
14, 32173, Control_c, 10, 7, 79
14, 32174, Control_c, 10, 7, 80
14, 32175, Control_c, 10, 7, 81
14, 32176, Control_c, 10, 7, 82
14, 32177, Control_c, 10, 7, 83
14, 32178, Control_c, 10, 7, 84
14, 32179, Control_c, 10, 7, 85
14, 32180, Control_c, 10, 7, 86
14, 32181, Control_c, 10, 7, 88
14, 32182, Control_c, 10, 7, 89
14, 32183, Control_c, 10, 7, 90
14, 32184, Control_c, 10, 7, 91
14, 32185, Control_c, 10, 7, 92
14, 32186, Control_c, 10, 7, 93
14, 32187, Control_c, 10, 7, 94
14, 32188, Control_c, 10, 7, 95
14, 32189, Control_c, 10, 7, 96
14, 32190, Control_c, 10, 7, 97
14, 32191, Control_c, 10, 7, 98
14, 32192, Control_c, 10, 7, 99
14, 32193, Control_c, 10, 7, 100
14, 32194, Control_c, 10, 7, 101
14, 32195, Control_c, 10, 7, 102
14, 32196, Control_c, 10, 7, 103
14, 32197, Control_c, 10, 7, 105
14, 32198, Control_c, 10, 7, 106
14, 32199, Control_c, 10, 7, 107
14, 32200, Control_c, 10, 7, 108
14, 32201, Control_c, 10, 7, 109
14, 32202, Control_c, 10, 7, 109
14, 32203, Control_c, 10, 7, 110
14, 32204, Control_c, 10, 7, 112
14, 32205, Control_c, 10, 7, 113
14, 32206, Control_c, 10, 7, 114
14, 32207, Control_c, 10, 7, 115
14, 32208, Note_off_c, 10, 51, 64
14, 32208, Note_off_c, 10, 27, 64
14, 32208, Note_off_c, 10, 39, 64
14, 32208, Control_c, 10, 7, 67
14, 32208, Note_on_c, 10, 39, 127
14, 32208, Note_on_c, 10, 51, 127
14, 32208, Note_on_c, 10, 27, 127
14, 32209, Control_c, 10, 7, 68
14, 32210, Control_c, 10, 7, 69
14, 32211, Control_c, 10, 7, 70
14, 32212, Control_c, 10, 7, 71
14, 32213, Control_c, 10, 7, 71
14, 32214, Control_c, 10, 7, 72
14, 32215, Control_c, 10, 7, 73
14, 32216, Control_c, 10, 7, 74
14, 32217, Control_c, 10, 7, 75
14, 32218, Control_c, 10, 7, 76
14, 32219, Control_c, 10, 7, 77
14, 32220, Control_c, 10, 7, 78
14, 32221, Control_c, 10, 7, 79
14, 32222, Control_c, 10, 7, 80
14, 32223, Control_c, 10, 7, 81
14, 32224, Control_c, 10, 7, 82
14, 32225, Control_c, 10, 7, 83
14, 32226, Control_c, 10, 7, 84
14, 32227, Control_c, 10, 7, 85
14, 32228, Control_c, 10, 7, 86
14, 32229, Control_c, 10, 7, 87
14, 32230, Control_c, 10, 7, 88
14, 32231, Control_c, 10, 7, 89
14, 32232, Control_c, 10, 7, 90
14, 32233, Control_c, 10, 7, 91
14, 32234, Control_c, 10, 7, 92
14, 32235, Control_c, 10, 7, 93
14, 32236, Control_c, 10, 7, 94
14, 32237, Control_c, 10, 7, 95
14, 32238, Control_c, 10, 7, 96
14, 32239, Control_c, 10, 7, 97
14, 32240, Control_c, 10, 7, 98
14, 32241, Control_c, 10, 7, 99
14, 32242, Control_c, 10, 7, 100
14, 32243, Control_c, 10, 7, 101
14, 32244, Control_c, 10, 7, 102
14, 32245, Control_c, 10, 7, 103
14, 32246, Control_c, 10, 7, 104
14, 32247, Control_c, 10, 7, 104
14, 32248, Control_c, 10, 7, 105
14, 32249, Control_c, 10, 7, 106
14, 32250, Control_c, 10, 7, 107
14, 32251, Control_c, 10, 7, 108
14, 32252, Control_c, 10, 7, 109
14, 32253, Control_c, 10, 7, 110
14, 32254, Control_c, 10, 7, 111
14, 32255, Control_c, 10, 7, 112
14, 32256, Note_off_c, 10, 39, 64
14, 32256, Note_off_c, 10, 27, 64
14, 32256, Note_off_c, 10, 51, 64
14, 32256, Control_c, 10, 7, 50
14, 32256, Note_on_c, 10, 41, 127
14, 32256, Note_on_c, 10, 29, 127
14, 32256, Note_on_c, 10, 53, 127
14, 32258, Control_c, 10, 7, 50
14, 32259, Control_c, 10, 7, 51
14, 32260, Control_c, 10, 7, 51
14, 32261, Control_c, 10, 7, 52
14, 32262, Control_c, 10, 7, 52
14, 32263, Control_c, 10, 7, 52
14, 32264, Control_c, 10, 7, 53
14, 32265, Control_c, 10, 7, 53
14, 32266, Control_c, 10, 7, 54
14, 32267, Control_c, 10, 7, 54
14, 32268, Control_c, 10, 7, 54
14, 32269, Control_c, 10, 7, 55
14, 32270, Control_c, 10, 7, 55
14, 32271, Control_c, 10, 7, 55
14, 32272, Control_c, 10, 7, 56
14, 32273, Control_c, 10, 7, 56
14, 32274, Control_c, 10, 7, 57
14, 32275, Control_c, 10, 7, 57
14, 32276, Control_c, 10, 7, 57
14, 32277, Control_c, 10, 7, 58
14, 32278, Control_c, 10, 7, 58
14, 32279, Control_c, 10, 7, 59
14, 32280, Control_c, 10, 7, 59
14, 32281, Control_c, 10, 7, 59
14, 32282, Control_c, 10, 7, 60
14, 32283, Control_c, 10, 7, 60
14, 32284, Control_c, 10, 7, 61
14, 32285, Control_c, 10, 7, 61
14, 32286, Control_c, 10, 7, 61
14, 32287, Control_c, 10, 7, 62
14, 32288, Control_c, 10, 7, 62
14, 32289, Control_c, 10, 7, 62
14, 32290, Control_c, 10, 7, 63
14, 32291, Control_c, 10, 7, 63
14, 32292, Control_c, 10, 7, 64
14, 32293, Control_c, 10, 7, 64
14, 32294, Control_c, 10, 7, 64
14, 32295, Control_c, 10, 7, 65
14, 32296, Control_c, 10, 7, 65
14, 32297, Control_c, 10, 7, 66
14, 32298, Control_c, 10, 7, 66
14, 32299, Control_c, 10, 7, 66
14, 32300, Control_c, 10, 7, 67
14, 32301, Control_c, 10, 7, 67
14, 32302, Control_c, 10, 7, 68
14, 32303, Control_c, 10, 7, 68
14, 32304, Control_c, 10, 7, 68
14, 32305, Control_c, 10, 7, 69
14, 32306, Control_c, 10, 7, 69
14, 32307, Control_c, 10, 7, 69
14, 32308, Control_c, 10, 7, 70
14, 32309, Control_c, 10, 7, 70
14, 32310, Control_c, 10, 7, 71
14, 32311, Control_c, 10, 7, 71
14, 32312, Control_c, 10, 7, 71
14, 32313, Control_c, 10, 7, 72
14, 32314, Control_c, 10, 7, 72
14, 32315, Control_c, 10, 7, 73
14, 32316, Control_c, 10, 7, 73
14, 32317, Control_c, 10, 7, 73
14, 32318, Control_c, 10, 7, 74
14, 32319, Control_c, 10, 7, 74
14, 32320, Control_c, 10, 7, 75
14, 32321, Control_c, 10, 7, 75
14, 32322, Control_c, 10, 7, 75
14, 32323, Control_c, 10, 7, 76
14, 32324, Control_c, 10, 7, 76
14, 32325, Control_c, 10, 7, 76
14, 32326, Control_c, 10, 7, 77
14, 32327, Control_c, 10, 7, 77
14, 32328, Control_c, 10, 7, 78
14, 32329, Control_c, 10, 7, 78
14, 32330, Control_c, 10, 7, 78
14, 32331, Control_c, 10, 7, 79
14, 32332, Control_c, 10, 7, 79
14, 32333, Control_c, 10, 7, 80
14, 32334, Control_c, 10, 7, 80
14, 32335, Control_c, 10, 7, 80
14, 32336, Control_c, 10, 7, 81
14, 32337, Control_c, 10, 7, 81
14, 32338, Control_c, 10, 7, 82
14, 32339, Control_c, 10, 7, 82
14, 32340, Control_c, 10, 7, 82
14, 32341, Control_c, 10, 7, 83
14, 32342, Control_c, 10, 7, 83
14, 32343, Control_c, 10, 7, 83
14, 32344, Control_c, 10, 7, 84
14, 32345, Control_c, 10, 7, 84
14, 32346, Control_c, 10, 7, 85
14, 32347, Control_c, 10, 7, 85
14, 32348, Control_c, 10, 7, 85
14, 32349, Control_c, 10, 7, 86
14, 32350, Control_c, 10, 7, 86
14, 32351, Control_c, 10, 7, 87
14, 32352, Control_c, 10, 7, 87
14, 32353, Control_c, 10, 7, 87
14, 32354, Control_c, 10, 7, 88
14, 32355, Control_c, 10, 7, 88
14, 32356, Control_c, 10, 7, 89
14, 32357, Control_c, 10, 7, 89
14, 32358, Control_c, 10, 7, 89
14, 32359, Control_c, 10, 7, 90
14, 32360, Control_c, 10, 7, 90
14, 32361, Control_c, 10, 7, 90
14, 32362, Control_c, 10, 7, 91
14, 32363, Control_c, 10, 7, 91
14, 32364, Control_c, 10, 7, 92
14, 32365, Control_c, 10, 7, 92
14, 32366, Control_c, 10, 7, 92
14, 32367, Control_c, 10, 7, 93
14, 32368, Control_c, 10, 7, 93
14, 32369, Control_c, 10, 7, 94
14, 32370, Control_c, 10, 7, 94
14, 32371, Control_c, 10, 7, 94
14, 32372, Control_c, 10, 7, 95
14, 32373, Control_c, 10, 7, 95
14, 32374, Control_c, 10, 7, 96
14, 32375, Control_c, 10, 7, 96
14, 32376, Control_c, 10, 7, 96
14, 32377, Control_c, 10, 7, 97
14, 32378, Control_c, 10, 7, 97
14, 32379, Control_c, 10, 7, 97
14, 32380, Control_c, 10, 7, 98
14, 32381, Control_c, 10, 7, 98
14, 32382, Control_c, 10, 7, 99
14, 32383, Control_c, 10, 7, 99
14, 32384, Control_c, 10, 7, 99
14, 32385, Control_c, 10, 7, 100
14, 32386, Control_c, 10, 7, 100
14, 32387, Control_c, 10, 7, 101
14, 32388, Control_c, 10, 7, 101
14, 32389, Control_c, 10, 7, 101
14, 32390, Control_c, 10, 7, 102
14, 32391, Control_c, 10, 7, 102
14, 32392, Control_c, 10, 7, 103
14, 32393, Control_c, 10, 7, 103
14, 32394, Control_c, 10, 7, 103
14, 32395, Control_c, 10, 7, 104
14, 32396, Control_c, 10, 7, 104
14, 32397, Control_c, 10, 7, 104
14, 32398, Control_c, 10, 7, 105
14, 32399, Control_c, 10, 7, 105
14, 32400, Note_off_c, 10, 29, 64
14, 32400, Note_off_c, 10, 41, 64
14, 32400, Note_off_c, 10, 53, 64
14, 32400, Control_c, 10, 7, 54
14, 32400, Note_on_c, 10, 43, 127
14, 32400, Note_on_c, 10, 31, 127
14, 32400, Note_on_c, 10, 55, 127
14, 32401, Control_c, 10, 7, 55
14, 32402, Control_c, 10, 7, 55
14, 32403, Control_c, 10, 7, 56
14, 32404, Control_c, 10, 7, 57
14, 32405, Control_c, 10, 7, 57
14, 32406, Control_c, 10, 7, 57
14, 32407, Control_c, 10, 7, 58
14, 32408, Control_c, 10, 7, 58
14, 32409, Control_c, 10, 7, 58
14, 32410, Control_c, 10, 7, 59
14, 32411, Control_c, 10, 7, 59
14, 32412, Control_c, 10, 7, 59
14, 32413, Control_c, 10, 7, 60
14, 32414, Control_c, 10, 7, 60
14, 32415, Control_c, 10, 7, 61
14, 32416, Control_c, 10, 7, 61
14, 32417, Control_c, 10, 7, 61
14, 32418, Control_c, 10, 7, 62
14, 32419, Control_c, 10, 7, 62
14, 32420, Control_c, 10, 7, 62
14, 32421, Control_c, 10, 7, 63
14, 32422, Control_c, 10, 7, 63
14, 32423, Control_c, 10, 7, 63
14, 32424, Control_c, 10, 7, 63
14, 32425, Control_c, 10, 7, 64
14, 32426, Control_c, 10, 7, 64
14, 32427, Control_c, 10, 7, 65
14, 32428, Control_c, 10, 7, 65
14, 32429, Control_c, 10, 7, 65
14, 32430, Control_c, 10, 7, 66
14, 32431, Control_c, 10, 7, 66
14, 32432, Control_c, 10, 7, 66
14, 32433, Control_c, 10, 7, 67
14, 32434, Control_c, 10, 7, 67
14, 32435, Control_c, 10, 7, 68
14, 32436, Control_c, 10, 7, 68
14, 32437, Control_c, 10, 7, 68
14, 32438, Control_c, 10, 7, 69
14, 32439, Control_c, 10, 7, 69
14, 32440, Control_c, 10, 7, 69
14, 32441, Control_c, 10, 7, 70
14, 32442, Control_c, 10, 7, 70
14, 32443, Control_c, 10, 7, 71
14, 32444, Control_c, 10, 7, 71
14, 32445, Control_c, 10, 7, 71
14, 32446, Control_c, 10, 7, 72
14, 32447, Control_c, 10, 7, 72
14, 32448, Control_c, 10, 7, 73
14, 32449, Control_c, 10, 7, 73
14, 32450, Control_c, 10, 7, 73
14, 32451, Control_c, 10, 7, 74
14, 32452, Control_c, 10, 7, 74
14, 32453, Control_c, 10, 7, 74
14, 32454, Control_c, 10, 7, 75
14, 32455, Control_c, 10, 7, 75
14, 32456, Control_c, 10, 7, 76
14, 32457, Control_c, 10, 7, 76
14, 32458, Control_c, 10, 7, 76
14, 32459, Control_c, 10, 7, 77
14, 32460, Control_c, 10, 7, 77
14, 32461, Control_c, 10, 7, 77
14, 32462, Control_c, 10, 7, 78
14, 32463, Control_c, 10, 7, 78
14, 32464, Control_c, 10, 7, 79
14, 32465, Control_c, 10, 7, 79
14, 32466, Control_c, 10, 7, 79
14, 32467, Control_c, 10, 7, 80
14, 32468, Control_c, 10, 7, 80
14, 32469, Control_c, 10, 7, 80
14, 32470, Control_c, 10, 7, 81
14, 32471, Control_c, 10, 7, 81
14, 32472, Control_c, 10, 7, 82
14, 32473, Control_c, 10, 7, 82
14, 32474, Control_c, 10, 7, 82
14, 32475, Control_c, 10, 7, 83
14, 32476, Control_c, 10, 7, 83
14, 32477, Control_c, 10, 7, 84
14, 32478, Control_c, 10, 7, 84
14, 32479, Control_c, 10, 7, 84
14, 32480, Control_c, 10, 7, 85
14, 32481, Control_c, 10, 7, 85
14, 32482, Control_c, 10, 7, 85
14, 32483, Control_c, 10, 7, 86
14, 32484, Control_c, 10, 7, 86
14, 32485, Control_c, 10, 7, 87
14, 32486, Control_c, 10, 7, 87
14, 32487, Control_c, 10, 7, 87
14, 32488, Control_c, 10, 7, 88
14, 32489, Control_c, 10, 7, 88
14, 32490, Control_c, 10, 7, 88
14, 32491, Control_c, 10, 7, 89
14, 32492, Control_c, 10, 7, 89
14, 32493, Control_c, 10, 7, 90
14, 32494, Control_c, 10, 7, 90
14, 32495, Control_c, 10, 7, 90
14, 32496, Control_c, 10, 7, 91
14, 32497, Control_c, 10, 7, 91
14, 32498, Control_c, 10, 7, 92
14, 32499, Control_c, 10, 7, 92
14, 32500, Control_c, 10, 7, 92
14, 32501, Control_c, 10, 7, 93
14, 32502, Control_c, 10, 7, 93
14, 32503, Control_c, 10, 7, 93
14, 32504, Control_c, 10, 7, 94
14, 32505, Control_c, 10, 7, 94
14, 32506, Control_c, 10, 7, 95
14, 32507, Control_c, 10, 7, 95
14, 32508, Control_c, 10, 7, 95
14, 32509, Control_c, 10, 7, 96
14, 32510, Control_c, 10, 7, 96
14, 32511, Control_c, 10, 7, 96
14, 32512, Control_c, 10, 7, 97
14, 32513, Control_c, 10, 7, 97
14, 32514, Control_c, 10, 7, 98
14, 32515, Control_c, 10, 7, 98
14, 32516, Control_c, 10, 7, 98
14, 32517, Control_c, 10, 7, 99
14, 32518, Control_c, 10, 7, 99
14, 32519, Control_c, 10, 7, 99
14, 32520, Control_c, 10, 7, 100
14, 32521, Control_c, 10, 7, 100
14, 32522, Control_c, 10, 7, 101
14, 32523, Control_c, 10, 7, 101
14, 32524, Control_c, 10, 7, 101
14, 32525, Control_c, 10, 7, 102
14, 32526, Control_c, 10, 7, 102
14, 32527, Control_c, 10, 7, 103
14, 32528, Control_c, 10, 7, 103
14, 32529, Control_c, 10, 7, 103
14, 32530, Control_c, 10, 7, 104
14, 32531, Control_c, 10, 7, 104
14, 32532, Control_c, 10, 7, 104
14, 32533, Control_c, 10, 7, 105
14, 32534, Control_c, 10, 7, 105
14, 32535, Control_c, 10, 7, 106
14, 32536, Control_c, 10, 7, 106
14, 32537, Control_c, 10, 7, 106
14, 32538, Control_c, 10, 7, 107
14, 32539, Control_c, 10, 7, 107
14, 32540, Control_c, 10, 7, 107
14, 32541, Control_c, 10, 7, 108
14, 32542, Control_c, 10, 7, 108
14, 32543, Control_c, 10, 7, 109
14, 32544, Note_off_c, 10, 43, 64
14, 32544, Note_off_c, 10, 31, 64
14, 32544, Note_off_c, 10, 55, 64
14, 32544, Control_c, 10, 7, 108
14, 32544, Note_on_c, 10, 39, 127
14, 32544, Note_on_c, 10, 27, 127
14, 32544, Note_on_c, 10, 51, 127
14, 32545, Control_c, 10, 7, 108
14, 32546, Control_c, 10, 7, 107
14, 32547, Control_c, 10, 7, 107
14, 32548, Control_c, 10, 7, 106
14, 32549, Control_c, 10, 7, 106
14, 32550, Control_c, 10, 7, 105
14, 32551, Control_c, 10, 7, 105
14, 32552, Control_c, 10, 7, 105
14, 32553, Control_c, 10, 7, 104
14, 32554, Control_c, 10, 7, 104
14, 32555, Control_c, 10, 7, 103
14, 32556, Control_c, 10, 7, 103
14, 32557, Control_c, 10, 7, 102
14, 32558, Control_c, 10, 7, 102
14, 32559, Control_c, 10, 7, 101
14, 32560, Control_c, 10, 7, 101
14, 32561, Control_c, 10, 7, 100
14, 32562, Control_c, 10, 7, 100
14, 32563, Control_c, 10, 7, 99
14, 32564, Control_c, 10, 7, 99
14, 32565, Control_c, 10, 7, 98
14, 32566, Control_c, 10, 7, 98
14, 32567, Control_c, 10, 7, 97
14, 32568, Control_c, 10, 7, 97
14, 32569, Control_c, 10, 7, 96
14, 32570, Control_c, 10, 7, 96
14, 32571, Control_c, 10, 7, 95
14, 32572, Control_c, 10, 7, 95
14, 32573, Control_c, 10, 7, 94
14, 32574, Control_c, 10, 7, 94
14, 32575, Control_c, 10, 7, 93
14, 32576, Control_c, 10, 7, 93
14, 32577, Control_c, 10, 7, 92
14, 32578, Control_c, 10, 7, 92
14, 32579, Control_c, 10, 7, 91
14, 32580, Control_c, 10, 7, 91
14, 32581, Control_c, 10, 7, 90
14, 32582, Control_c, 10, 7, 90
14, 32583, Control_c, 10, 7, 89
14, 32584, Control_c, 10, 7, 89
14, 32585, Control_c, 10, 7, 88
14, 32586, Control_c, 10, 7, 88
14, 32587, Control_c, 10, 7, 87
14, 32588, Control_c, 10, 7, 87
14, 32589, Control_c, 10, 7, 86
14, 32590, Control_c, 10, 7, 86
14, 32591, Control_c, 10, 7, 85
14, 32592, Control_c, 10, 7, 85
14, 32593, Control_c, 10, 7, 84
14, 32594, Control_c, 10, 7, 84
14, 32595, Control_c, 10, 7, 83
14, 32596, Control_c, 10, 7, 83
14, 32597, Control_c, 10, 7, 82
14, 32598, Control_c, 10, 7, 82
14, 32599, Control_c, 10, 7, 81
14, 32600, Control_c, 10, 7, 81
14, 32601, Control_c, 10, 7, 80
14, 32602, Control_c, 10, 7, 80
14, 32603, Control_c, 10, 7, 79
14, 32604, Control_c, 10, 7, 79
14, 32605, Control_c, 10, 7, 78
14, 32606, Control_c, 10, 7, 78
14, 32607, Control_c, 10, 7, 77
14, 32608, Control_c, 10, 7, 77
14, 32609, Control_c, 10, 7, 76
14, 32610, Control_c, 10, 7, 76
14, 32611, Control_c, 10, 7, 75
14, 32612, Control_c, 10, 7, 75
14, 32613, Control_c, 10, 7, 74
14, 32614, Control_c, 10, 7, 74
14, 32615, Control_c, 10, 7, 73
14, 32616, Control_c, 10, 7, 73
14, 32617, Control_c, 10, 7, 72
14, 32618, Control_c, 10, 7, 72
14, 32619, Control_c, 10, 7, 71
14, 32620, Control_c, 10, 7, 71
14, 32621, Control_c, 10, 7, 70
14, 32622, Control_c, 10, 7, 70
14, 32623, Control_c, 10, 7, 69
14, 32624, Control_c, 10, 7, 69
14, 32625, Control_c, 10, 7, 68
14, 32626, Control_c, 10, 7, 68
14, 32627, Control_c, 10, 7, 67
14, 32628, Control_c, 10, 7, 67
14, 32629, Control_c, 10, 7, 66
14, 32630, Control_c, 10, 7, 66
14, 32631, Control_c, 10, 7, 65
14, 32632, Control_c, 10, 7, 65
14, 32633, Control_c, 10, 7, 64
14, 32634, Control_c, 10, 7, 64
14, 32635, Control_c, 10, 7, 63
14, 32636, Control_c, 10, 7, 63
14, 32637, Control_c, 10, 7, 62
14, 32638, Control_c, 10, 7, 62
14, 32639, Control_c, 10, 7, 61
14, 32640, Control_c, 10, 7, 61
14, 32688, Note_off_c, 10, 27, 64
14, 32688, Note_off_c, 10, 51, 64
14, 32688, Note_off_c, 10, 39, 64
14, 32688, Control_c, 10, 7, 102
14, 32688, Note_on_c, 10, 39, 127
14, 32688, Note_on_c, 10, 27, 127
14, 32688, Note_on_c, 10, 51, 127
14, 32689, Control_c, 10, 7, 102
14, 32690, Control_c, 10, 7, 101
14, 32691, Control_c, 10, 7, 100
14, 32692, Control_c, 10, 7, 99
14, 32693, Control_c, 10, 7, 98
14, 32694, Control_c, 10, 7, 97
14, 32695, Control_c, 10, 7, 96
14, 32696, Control_c, 10, 7, 95
14, 32697, Control_c, 10, 7, 95
14, 32698, Control_c, 10, 7, 94
14, 32699, Control_c, 10, 7, 93
14, 32700, Control_c, 10, 7, 92
14, 32701, Control_c, 10, 7, 91
14, 32702, Control_c, 10, 7, 90
14, 32703, Control_c, 10, 7, 89
14, 32704, Control_c, 10, 7, 88
14, 32705, Control_c, 10, 7, 87
14, 32706, Control_c, 10, 7, 87
14, 32707, Control_c, 10, 7, 86
14, 32708, Control_c, 10, 7, 85
14, 32709, Control_c, 10, 7, 84
14, 32710, Control_c, 10, 7, 83
14, 32711, Control_c, 10, 7, 82
14, 32712, Control_c, 10, 7, 81
14, 32713, Control_c, 10, 7, 80
14, 32714, Control_c, 10, 7, 80
14, 32715, Control_c, 10, 7, 79
14, 32716, Control_c, 10, 7, 78
14, 32717, Control_c, 10, 7, 77
14, 32718, Control_c, 10, 7, 76
14, 32719, Control_c, 10, 7, 75
14, 32720, Control_c, 10, 7, 74
14, 32721, Control_c, 10, 7, 73
14, 32722, Control_c, 10, 7, 73
14, 32723, Control_c, 10, 7, 72
14, 32724, Control_c, 10, 7, 71
14, 32725, Control_c, 10, 7, 70
14, 32726, Control_c, 10, 7, 69
14, 32727, Control_c, 10, 7, 68
14, 32728, Control_c, 10, 7, 67
14, 32729, Control_c, 10, 7, 66
14, 32730, Control_c, 10, 7, 66
14, 32731, Control_c, 10, 7, 65
14, 32732, Control_c, 10, 7, 64
14, 32733, Control_c, 10, 7, 63
14, 32734, Control_c, 10, 7, 62
14, 32735, Control_c, 10, 7, 61
14, 32736, Note_off_c, 10, 51, 64
14, 32736, Note_off_c, 10, 27, 64
14, 32736, Note_off_c, 10, 39, 64
14, 32736, Control_c, 10, 7, 102
14, 32736, Note_on_c, 10, 39, 127
14, 32736, Note_on_c, 10, 27, 127
14, 32736, Note_on_c, 10, 51, 127
14, 32737, Control_c, 10, 7, 102
14, 32738, Control_c, 10, 7, 101
14, 32739, Control_c, 10, 7, 100
14, 32740, Control_c, 10, 7, 99
14, 32741, Control_c, 10, 7, 98
14, 32742, Control_c, 10, 7, 97
14, 32743, Control_c, 10, 7, 96
14, 32744, Control_c, 10, 7, 96
14, 32745, Control_c, 10, 7, 95
14, 32746, Control_c, 10, 7, 94
14, 32747, Control_c, 10, 7, 93
14, 32748, Control_c, 10, 7, 92
14, 32749, Control_c, 10, 7, 91
14, 32750, Control_c, 10, 7, 91
14, 32751, Control_c, 10, 7, 90
14, 32752, Control_c, 10, 7, 89
14, 32753, Control_c, 10, 7, 88
14, 32754, Control_c, 10, 7, 87
14, 32755, Control_c, 10, 7, 86
14, 32756, Control_c, 10, 7, 85
14, 32757, Control_c, 10, 7, 85
14, 32758, Control_c, 10, 7, 84
14, 32759, Control_c, 10, 7, 83
14, 32760, Control_c, 10, 7, 82
14, 32761, Control_c, 10, 7, 81
14, 32762, Control_c, 10, 7, 80
14, 32763, Control_c, 10, 7, 80
14, 32764, Control_c, 10, 7, 79
14, 32765, Control_c, 10, 7, 78
14, 32766, Control_c, 10, 7, 77
14, 32767, Control_c, 10, 7, 76
14, 32768, Control_c, 10, 7, 75
14, 32769, Control_c, 10, 7, 74
14, 32770, Control_c, 10, 7, 74
14, 32771, Control_c, 10, 7, 73
14, 32772, Control_c, 10, 7, 72
14, 32773, Control_c, 10, 7, 71
14, 32774, Control_c, 10, 7, 70
14, 32775, Control_c, 10, 7, 69
14, 32776, Control_c, 10, 7, 68
14, 32777, Control_c, 10, 7, 68
14, 32778, Control_c, 10, 7, 67
14, 32779, Control_c, 10, 7, 66
14, 32780, Control_c, 10, 7, 65
14, 32781, Control_c, 10, 7, 64
14, 32782, Control_c, 10, 7, 102
14, 32783, Control_c, 10, 7, 102
14, 32784, Note_off_c, 10, 39, 64
14, 32784, Note_off_c, 10, 51, 64
14, 32784, Note_off_c, 10, 27, 64
14, 32784, Control_c, 10, 7, 101
14, 32784, Note_on_c, 10, 39, 127
14, 32784, Note_on_c, 10, 27, 127
14, 32784, Note_on_c, 10, 51, 127
14, 32785, Control_c, 10, 7, 100
14, 32786, Control_c, 10, 7, 99
14, 32787, Control_c, 10, 7, 98
14, 32788, Control_c, 10, 7, 97
14, 32789, Control_c, 10, 7, 97
14, 32790, Control_c, 10, 7, 96
14, 32791, Control_c, 10, 7, 95
14, 32792, Control_c, 10, 7, 94
14, 32793, Control_c, 10, 7, 93
14, 32794, Control_c, 10, 7, 93
14, 32795, Control_c, 10, 7, 92
14, 32796, Control_c, 10, 7, 91
14, 32797, Control_c, 10, 7, 90
14, 32798, Control_c, 10, 7, 89
14, 32799, Control_c, 10, 7, 88
14, 32800, Control_c, 10, 7, 88
14, 32801, Control_c, 10, 7, 87
14, 32802, Control_c, 10, 7, 86
14, 32803, Control_c, 10, 7, 85
14, 32804, Control_c, 10, 7, 84
14, 32805, Control_c, 10, 7, 84
14, 32806, Control_c, 10, 7, 83
14, 32807, Control_c, 10, 7, 82
14, 32808, Control_c, 10, 7, 81
14, 32809, Control_c, 10, 7, 80
14, 32810, Control_c, 10, 7, 79
14, 32811, Control_c, 10, 7, 79
14, 32812, Control_c, 10, 7, 78
14, 32813, Control_c, 10, 7, 77
14, 32814, Control_c, 10, 7, 76
14, 32815, Control_c, 10, 7, 75
14, 32816, Control_c, 10, 7, 75
14, 32817, Control_c, 10, 7, 74
14, 32818, Control_c, 10, 7, 73
14, 32819, Control_c, 10, 7, 72
14, 32820, Control_c, 10, 7, 71
14, 32821, Control_c, 10, 7, 70
14, 32822, Control_c, 10, 7, 70
14, 32823, Control_c, 10, 7, 69
14, 32824, Control_c, 10, 7, 68
14, 32825, Control_c, 10, 7, 67
14, 32826, Control_c, 10, 7, 66
14, 32827, Control_c, 10, 7, 66
14, 32828, Control_c, 10, 7, 65
14, 32829, Control_c, 10, 7, 64
14, 32830, Control_c, 10, 7, 63
14, 32831, Control_c, 10, 7, 62
14, 32832, Note_off_c, 10, 27, 64
14, 32832, Note_off_c, 10, 51, 64
14, 32832, Note_off_c, 10, 39, 64
14, 32832, Control_c, 10, 7, 102
14, 32832, Note_on_c, 10, 39, 127
14, 32832, Note_on_c, 10, 27, 127
14, 32832, Note_on_c, 10, 51, 127
14, 32833, Control_c, 10, 7, 102
14, 32834, Control_c, 10, 7, 101
14, 32835, Control_c, 10, 7, 100
14, 32836, Control_c, 10, 7, 99
14, 32837, Control_c, 10, 7, 98
14, 32838, Control_c, 10, 7, 97
14, 32839, Control_c, 10, 7, 96
14, 32840, Control_c, 10, 7, 95
14, 32841, Control_c, 10, 7, 94
14, 32842, Control_c, 10, 7, 94
14, 32843, Control_c, 10, 7, 93
14, 32844, Control_c, 10, 7, 92
14, 32845, Control_c, 10, 7, 91
14, 32846, Control_c, 10, 7, 90
14, 32847, Control_c, 10, 7, 89
14, 32848, Control_c, 10, 7, 88
14, 32849, Control_c, 10, 7, 87
14, 32850, Control_c, 10, 7, 86
14, 32851, Control_c, 10, 7, 86
14, 32852, Control_c, 10, 7, 85
14, 32853, Control_c, 10, 7, 84
14, 32854, Control_c, 10, 7, 83
14, 32855, Control_c, 10, 7, 82
14, 32856, Control_c, 10, 7, 81
14, 32857, Control_c, 10, 7, 80
14, 32858, Control_c, 10, 7, 79
14, 32859, Control_c, 10, 7, 78
14, 32860, Control_c, 10, 7, 78
14, 32861, Control_c, 10, 7, 77
14, 32862, Control_c, 10, 7, 76
14, 32863, Control_c, 10, 7, 75
14, 32864, Control_c, 10, 7, 74
14, 32865, Control_c, 10, 7, 73
14, 32866, Control_c, 10, 7, 72
14, 32867, Control_c, 10, 7, 71
14, 32868, Control_c, 10, 7, 70
14, 32869, Control_c, 10, 7, 69
14, 32870, Control_c, 10, 7, 69
14, 32871, Control_c, 10, 7, 68
14, 32872, Control_c, 10, 7, 67
14, 32873, Control_c, 10, 7, 66
14, 32874, Control_c, 10, 7, 65
14, 32875, Control_c, 10, 7, 64
14, 32876, Control_c, 10, 7, 63
14, 32877, Control_c, 10, 7, 62
14, 32878, Control_c, 10, 7, 61
14, 32879, Control_c, 10, 7, 61
14, 32880, Note_off_c, 10, 51, 64
14, 32880, Note_off_c, 10, 27, 64
14, 32880, Note_off_c, 10, 39, 64
14, 32880, Note_on_c, 10, 39, 127
14, 32880, Note_on_c, 10, 27, 127
14, 32880, Note_on_c, 10, 51, 127
14, 32881, Control_c, 10, 7, 103
14, 32882, Control_c, 10, 7, 102
14, 32883, Control_c, 10, 7, 101
14, 32884, Control_c, 10, 7, 100
14, 32885, Control_c, 10, 7, 99
14, 32886, Control_c, 10, 7, 99
14, 32887, Control_c, 10, 7, 98
14, 32888, Control_c, 10, 7, 97
14, 32889, Control_c, 10, 7, 96
14, 32890, Control_c, 10, 7, 95
14, 32891, Control_c, 10, 7, 94
14, 32892, Control_c, 10, 7, 93
14, 32893, Control_c, 10, 7, 93
14, 32894, Control_c, 10, 7, 92
14, 32895, Control_c, 10, 7, 91
14, 32896, Control_c, 10, 7, 90
14, 32897, Control_c, 10, 7, 89
14, 32898, Control_c, 10, 7, 88
14, 32899, Control_c, 10, 7, 87
14, 32900, Control_c, 10, 7, 87
14, 32901, Control_c, 10, 7, 86
14, 32902, Control_c, 10, 7, 85
14, 32903, Control_c, 10, 7, 84
14, 32904, Control_c, 10, 7, 83
14, 32905, Control_c, 10, 7, 82
14, 32906, Control_c, 10, 7, 81
14, 32907, Control_c, 10, 7, 81
14, 32908, Control_c, 10, 7, 80
14, 32909, Control_c, 10, 7, 79
14, 32910, Control_c, 10, 7, 78
14, 32911, Control_c, 10, 7, 77
14, 32912, Control_c, 10, 7, 76
14, 32913, Control_c, 10, 7, 75
14, 32914, Control_c, 10, 7, 75
14, 32915, Control_c, 10, 7, 74
14, 32916, Control_c, 10, 7, 73
14, 32917, Control_c, 10, 7, 72
14, 32918, Control_c, 10, 7, 71
14, 32919, Control_c, 10, 7, 70
14, 32920, Control_c, 10, 7, 69
14, 32921, Control_c, 10, 7, 69
14, 32922, Control_c, 10, 7, 68
14, 32923, Control_c, 10, 7, 67
14, 32924, Control_c, 10, 7, 66
14, 32925, Control_c, 10, 7, 65
14, 32926, Control_c, 10, 7, 64
14, 32927, Control_c, 10, 7, 64
14, 32928, Note_off_c, 10, 51, 64
14, 32928, Note_off_c, 10, 27, 64
14, 32928, Note_off_c, 10, 39, 64
14, 32928, Note_on_c, 10, 39, 127
14, 32928, Note_on_c, 10, 27, 127
14, 32928, Note_on_c, 10, 51, 127
14, 32929, Control_c, 10, 7, 104
14, 32930, Control_c, 10, 7, 103
14, 32931, Control_c, 10, 7, 102
14, 32932, Control_c, 10, 7, 101
14, 32933, Control_c, 10, 7, 100
14, 32934, Control_c, 10, 7, 99
14, 32935, Control_c, 10, 7, 98
14, 32936, Control_c, 10, 7, 98
14, 32937, Control_c, 10, 7, 97
14, 32938, Control_c, 10, 7, 96
14, 32939, Control_c, 10, 7, 95
14, 32940, Control_c, 10, 7, 94
14, 32941, Control_c, 10, 7, 93
14, 32942, Control_c, 10, 7, 93
14, 32943, Control_c, 10, 7, 92
14, 32944, Control_c, 10, 7, 91
14, 32945, Control_c, 10, 7, 90
14, 32946, Control_c, 10, 7, 89
14, 32947, Control_c, 10, 7, 88
14, 32948, Control_c, 10, 7, 87
14, 32949, Control_c, 10, 7, 87
14, 32950, Control_c, 10, 7, 86
14, 32951, Control_c, 10, 7, 85
14, 32952, Control_c, 10, 7, 84
14, 32953, Control_c, 10, 7, 83
14, 32954, Control_c, 10, 7, 82
14, 32955, Control_c, 10, 7, 82
14, 32956, Control_c, 10, 7, 81
14, 32957, Control_c, 10, 7, 80
14, 32958, Control_c, 10, 7, 79
14, 32959, Control_c, 10, 7, 78
14, 32960, Control_c, 10, 7, 77
14, 32961, Control_c, 10, 7, 76
14, 32962, Control_c, 10, 7, 76
14, 32963, Control_c, 10, 7, 75
14, 32964, Control_c, 10, 7, 74
14, 32965, Control_c, 10, 7, 73
14, 32966, Control_c, 10, 7, 72
14, 32967, Control_c, 10, 7, 71
14, 32968, Control_c, 10, 7, 71
14, 32969, Control_c, 10, 7, 70
14, 32970, Control_c, 10, 7, 69
14, 32971, Control_c, 10, 7, 68
14, 32972, Control_c, 10, 7, 67
14, 32973, Control_c, 10, 7, 66
14, 32974, Control_c, 10, 7, 65
14, 32975, Control_c, 10, 7, 102
14, 32976, Note_off_c, 10, 51, 64
14, 32976, Note_off_c, 10, 27, 64
14, 32976, Note_off_c, 10, 39, 64
14, 32976, Control_c, 10, 7, 102
14, 32976, Note_on_c, 10, 39, 127
14, 32976, Note_on_c, 10, 27, 127
14, 32976, Note_on_c, 10, 51, 127
14, 32977, Control_c, 10, 7, 101
14, 32978, Control_c, 10, 7, 100
14, 32979, Control_c, 10, 7, 99
14, 32980, Control_c, 10, 7, 98
14, 32981, Control_c, 10, 7, 97
14, 32982, Control_c, 10, 7, 96
14, 32983, Control_c, 10, 7, 96
14, 32984, Control_c, 10, 7, 95
14, 32985, Control_c, 10, 7, 94
14, 32986, Control_c, 10, 7, 93
14, 32987, Control_c, 10, 7, 92
14, 32988, Control_c, 10, 7, 91
14, 32989, Control_c, 10, 7, 90
14, 32990, Control_c, 10, 7, 89
14, 32991, Control_c, 10, 7, 89
14, 32992, Control_c, 10, 7, 88
14, 32993, Control_c, 10, 7, 87
14, 32994, Control_c, 10, 7, 86
14, 32995, Control_c, 10, 7, 85
14, 32996, Control_c, 10, 7, 84
14, 32997, Control_c, 10, 7, 83
14, 32998, Control_c, 10, 7, 83
14, 32999, Control_c, 10, 7, 82
14, 33000, Control_c, 10, 7, 81
14, 33001, Control_c, 10, 7, 80
14, 33002, Control_c, 10, 7, 79
14, 33003, Control_c, 10, 7, 78
14, 33004, Control_c, 10, 7, 77
14, 33005, Control_c, 10, 7, 77
14, 33006, Control_c, 10, 7, 76
14, 33007, Control_c, 10, 7, 75
14, 33008, Control_c, 10, 7, 74
14, 33009, Control_c, 10, 7, 73
14, 33010, Control_c, 10, 7, 72
14, 33011, Control_c, 10, 7, 71
14, 33012, Control_c, 10, 7, 71
14, 33013, Control_c, 10, 7, 70
14, 33014, Control_c, 10, 7, 69
14, 33015, Control_c, 10, 7, 68
14, 33016, Control_c, 10, 7, 67
14, 33017, Control_c, 10, 7, 66
14, 33018, Control_c, 10, 7, 65
14, 33019, Control_c, 10, 7, 65
14, 33020, Control_c, 10, 7, 64
14, 33021, Control_c, 10, 7, 63
14, 33024, Note_off_c, 10, 27, 64
14, 33024, Note_off_c, 10, 51, 64
14, 33024, Note_off_c, 10, 39, 64
14, 33024, Control_c, 10, 7, 113
14, 33024, Note_on_c, 10, 39, 127
14, 33024, Note_on_c, 10, 27, 127
14, 33024, Note_on_c, 10, 51, 127
14, 33025, Control_c, 10, 7, 113
14, 33026, Control_c, 10, 7, 112
14, 33027, Control_c, 10, 7, 112
14, 33028, Control_c, 10, 7, 112
14, 33029, Control_c, 10, 7, 111
14, 33030, Control_c, 10, 7, 111
14, 33031, Control_c, 10, 7, 110
14, 33032, Control_c, 10, 7, 110
14, 33033, Control_c, 10, 7, 110
14, 33034, Control_c, 10, 7, 109
14, 33035, Control_c, 10, 7, 109
14, 33036, Control_c, 10, 7, 109
14, 33037, Control_c, 10, 7, 108
14, 33038, Control_c, 10, 7, 108
14, 33039, Control_c, 10, 7, 108
14, 33040, Control_c, 10, 7, 107
14, 33041, Control_c, 10, 7, 107
14, 33042, Control_c, 10, 7, 107
14, 33043, Control_c, 10, 7, 106
14, 33044, Control_c, 10, 7, 106
14, 33045, Control_c, 10, 7, 106
14, 33046, Control_c, 10, 7, 105
14, 33047, Control_c, 10, 7, 105
14, 33048, Control_c, 10, 7, 104
14, 33049, Control_c, 10, 7, 104
14, 33050, Control_c, 10, 7, 104
14, 33051, Control_c, 10, 7, 103
14, 33052, Control_c, 10, 7, 103
14, 33053, Control_c, 10, 7, 103
14, 33054, Control_c, 10, 7, 102
14, 33055, Control_c, 10, 7, 102
14, 33056, Control_c, 10, 7, 102
14, 33057, Control_c, 10, 7, 101
14, 33058, Control_c, 10, 7, 101
14, 33059, Control_c, 10, 7, 101
14, 33060, Control_c, 10, 7, 100
14, 33061, Control_c, 10, 7, 100
14, 33062, Control_c, 10, 7, 100
14, 33063, Control_c, 10, 7, 99
14, 33064, Control_c, 10, 7, 99
14, 33065, Control_c, 10, 7, 98
14, 33066, Control_c, 10, 7, 98
14, 33067, Control_c, 10, 7, 98
14, 33068, Control_c, 10, 7, 97
14, 33069, Control_c, 10, 7, 97
14, 33070, Control_c, 10, 7, 97
14, 33071, Control_c, 10, 7, 96
14, 33072, Control_c, 10, 7, 96
14, 33073, Control_c, 10, 7, 96
14, 33074, Control_c, 10, 7, 95
14, 33075, Control_c, 10, 7, 95
14, 33076, Control_c, 10, 7, 95
14, 33077, Control_c, 10, 7, 94
14, 33078, Control_c, 10, 7, 94
14, 33079, Control_c, 10, 7, 94
14, 33080, Control_c, 10, 7, 93
14, 33081, Control_c, 10, 7, 93
14, 33082, Control_c, 10, 7, 92
14, 33083, Control_c, 10, 7, 92
14, 33084, Control_c, 10, 7, 92
14, 33085, Control_c, 10, 7, 91
14, 33086, Control_c, 10, 7, 91
14, 33087, Control_c, 10, 7, 91
14, 33088, Control_c, 10, 7, 90
14, 33089, Control_c, 10, 7, 90
14, 33090, Control_c, 10, 7, 90
14, 33091, Control_c, 10, 7, 89
14, 33092, Control_c, 10, 7, 89
14, 33093, Control_c, 10, 7, 89
14, 33094, Control_c, 10, 7, 88
14, 33095, Control_c, 10, 7, 88
14, 33096, Control_c, 10, 7, 88
14, 33097, Control_c, 10, 7, 87
14, 33098, Control_c, 10, 7, 87
14, 33099, Control_c, 10, 7, 86
14, 33100, Control_c, 10, 7, 86
14, 33101, Control_c, 10, 7, 86
14, 33102, Control_c, 10, 7, 85
14, 33103, Control_c, 10, 7, 85
14, 33104, Control_c, 10, 7, 85
14, 33105, Control_c, 10, 7, 84
14, 33106, Control_c, 10, 7, 84
14, 33107, Control_c, 10, 7, 84
14, 33108, Control_c, 10, 7, 83
14, 33109, Control_c, 10, 7, 83
14, 33110, Control_c, 10, 7, 83
14, 33111, Control_c, 10, 7, 82
14, 33112, Control_c, 10, 7, 82
14, 33113, Control_c, 10, 7, 82
14, 33114, Control_c, 10, 7, 81
14, 33115, Control_c, 10, 7, 81
14, 33116, Control_c, 10, 7, 80
14, 33117, Control_c, 10, 7, 80
14, 33118, Control_c, 10, 7, 80
14, 33119, Control_c, 10, 7, 79
14, 33120, Control_c, 10, 7, 79
14, 33121, Control_c, 10, 7, 79
14, 33122, Control_c, 10, 7, 78
14, 33123, Control_c, 10, 7, 78
14, 33124, Control_c, 10, 7, 78
14, 33125, Control_c, 10, 7, 77
14, 33126, Control_c, 10, 7, 77
14, 33127, Control_c, 10, 7, 77
14, 33128, Control_c, 10, 7, 76
14, 33129, Control_c, 10, 7, 76
14, 33130, Control_c, 10, 7, 76
14, 33131, Control_c, 10, 7, 75
14, 33132, Control_c, 10, 7, 75
14, 33133, Control_c, 10, 7, 74
14, 33134, Control_c, 10, 7, 74
14, 33135, Control_c, 10, 7, 74
14, 33136, Control_c, 10, 7, 73
14, 33137, Control_c, 10, 7, 73
14, 33138, Control_c, 10, 7, 73
14, 33139, Control_c, 10, 7, 72
14, 33140, Control_c, 10, 7, 72
14, 33141, Control_c, 10, 7, 72
14, 33142, Control_c, 10, 7, 71
14, 33143, Control_c, 10, 7, 71
14, 33144, Control_c, 10, 7, 71
14, 33145, Control_c, 10, 7, 70
14, 33146, Control_c, 10, 7, 70
14, 33147, Control_c, 10, 7, 70
14, 33148, Control_c, 10, 7, 69
14, 33149, Control_c, 10, 7, 69
14, 33150, Control_c, 10, 7, 68
14, 33151, Control_c, 10, 7, 68
14, 33152, Control_c, 10, 7, 68
14, 33153, Control_c, 10, 7, 67
14, 33154, Control_c, 10, 7, 67
14, 33155, Control_c, 10, 7, 67
14, 33156, Control_c, 10, 7, 66
14, 33157, Control_c, 10, 7, 66
14, 33158, Control_c, 10, 7, 66
14, 33159, Control_c, 10, 7, 65
14, 33160, Control_c, 10, 7, 65
14, 33161, Control_c, 10, 7, 65
14, 33162, Control_c, 10, 7, 64
14, 33163, Control_c, 10, 7, 64
14, 33164, Control_c, 10, 7, 64
14, 33165, Control_c, 10, 7, 63
14, 33166, Control_c, 10, 7, 111
14, 33167, Control_c, 10, 7, 111
14, 33168, Note_off_c, 10, 27, 64
14, 33168, Note_off_c, 10, 39, 64
14, 33168, Note_off_c, 10, 51, 64
14, 33168, Control_c, 10, 7, 110
14, 33168, Note_on_c, 10, 39, 127
14, 33168, Note_on_c, 10, 51, 127
14, 33168, Note_on_c, 10, 27, 127
14, 33169, Control_c, 10, 7, 110
14, 33170, Control_c, 10, 7, 110
14, 33171, Control_c, 10, 7, 109
14, 33172, Control_c, 10, 7, 109
14, 33173, Control_c, 10, 7, 109
14, 33174, Control_c, 10, 7, 109
14, 33175, Control_c, 10, 7, 108
14, 33176, Control_c, 10, 7, 108
14, 33177, Control_c, 10, 7, 108
14, 33178, Control_c, 10, 7, 107
14, 33179, Control_c, 10, 7, 107
14, 33180, Control_c, 10, 7, 107
14, 33181, Control_c, 10, 7, 106
14, 33182, Control_c, 10, 7, 106
14, 33183, Control_c, 10, 7, 106
14, 33184, Control_c, 10, 7, 105
14, 33185, Control_c, 10, 7, 105
14, 33186, Control_c, 10, 7, 105
14, 33187, Control_c, 10, 7, 104
14, 33188, Control_c, 10, 7, 104
14, 33189, Control_c, 10, 7, 104
14, 33190, Control_c, 10, 7, 103
14, 33191, Control_c, 10, 7, 103
14, 33192, Control_c, 10, 7, 103
14, 33193, Control_c, 10, 7, 102
14, 33194, Control_c, 10, 7, 102
14, 33195, Control_c, 10, 7, 102
14, 33196, Control_c, 10, 7, 101
14, 33197, Control_c, 10, 7, 101
14, 33198, Control_c, 10, 7, 101
14, 33199, Control_c, 10, 7, 100
14, 33200, Control_c, 10, 7, 100
14, 33201, Control_c, 10, 7, 100
14, 33202, Control_c, 10, 7, 99
14, 33203, Control_c, 10, 7, 99
14, 33204, Control_c, 10, 7, 99
14, 33205, Control_c, 10, 7, 98
14, 33206, Control_c, 10, 7, 98
14, 33207, Control_c, 10, 7, 98
14, 33208, Control_c, 10, 7, 97
14, 33209, Control_c, 10, 7, 97
14, 33210, Control_c, 10, 7, 97
14, 33211, Control_c, 10, 7, 96
14, 33212, Control_c, 10, 7, 96
14, 33213, Control_c, 10, 7, 96
14, 33214, Control_c, 10, 7, 95
14, 33215, Control_c, 10, 7, 95
14, 33216, Control_c, 10, 7, 95
14, 33217, Control_c, 10, 7, 94
14, 33218, Control_c, 10, 7, 94
14, 33219, Control_c, 10, 7, 94
14, 33220, Control_c, 10, 7, 93
14, 33221, Control_c, 10, 7, 93
14, 33222, Control_c, 10, 7, 93
14, 33223, Control_c, 10, 7, 92
14, 33224, Control_c, 10, 7, 92
14, 33225, Control_c, 10, 7, 92
14, 33226, Control_c, 10, 7, 91
14, 33227, Control_c, 10, 7, 91
14, 33228, Control_c, 10, 7, 91
14, 33229, Control_c, 10, 7, 90
14, 33230, Control_c, 10, 7, 90
14, 33231, Control_c, 10, 7, 90
14, 33232, Control_c, 10, 7, 89
14, 33233, Control_c, 10, 7, 89
14, 33234, Control_c, 10, 7, 89
14, 33235, Control_c, 10, 7, 88
14, 33236, Control_c, 10, 7, 88
14, 33237, Control_c, 10, 7, 88
14, 33238, Control_c, 10, 7, 87
14, 33239, Control_c, 10, 7, 87
14, 33240, Control_c, 10, 7, 87
14, 33241, Control_c, 10, 7, 86
14, 33242, Control_c, 10, 7, 86
14, 33243, Control_c, 10, 7, 86
14, 33244, Control_c, 10, 7, 85
14, 33245, Control_c, 10, 7, 85
14, 33246, Control_c, 10, 7, 85
14, 33247, Control_c, 10, 7, 84
14, 33248, Control_c, 10, 7, 84
14, 33249, Control_c, 10, 7, 84
14, 33250, Control_c, 10, 7, 83
14, 33251, Control_c, 10, 7, 83
14, 33252, Control_c, 10, 7, 83
14, 33253, Control_c, 10, 7, 82
14, 33254, Control_c, 10, 7, 82
14, 33255, Control_c, 10, 7, 82
14, 33256, Control_c, 10, 7, 81
14, 33257, Control_c, 10, 7, 81
14, 33258, Control_c, 10, 7, 81
14, 33259, Control_c, 10, 7, 80
14, 33260, Control_c, 10, 7, 80
14, 33261, Control_c, 10, 7, 80
14, 33262, Control_c, 10, 7, 79
14, 33263, Control_c, 10, 7, 79
14, 33264, Control_c, 10, 7, 79
14, 33265, Control_c, 10, 7, 78
14, 33266, Control_c, 10, 7, 78
14, 33267, Control_c, 10, 7, 78
14, 33268, Control_c, 10, 7, 77
14, 33269, Control_c, 10, 7, 77
14, 33270, Control_c, 10, 7, 77
14, 33271, Control_c, 10, 7, 76
14, 33272, Control_c, 10, 7, 76
14, 33273, Control_c, 10, 7, 76
14, 33274, Control_c, 10, 7, 75
14, 33275, Control_c, 10, 7, 75
14, 33276, Control_c, 10, 7, 75
14, 33277, Control_c, 10, 7, 74
14, 33278, Control_c, 10, 7, 74
14, 33279, Control_c, 10, 7, 74
14, 33280, Control_c, 10, 7, 73
14, 33281, Control_c, 10, 7, 73
14, 33282, Control_c, 10, 7, 73
14, 33283, Control_c, 10, 7, 72
14, 33284, Control_c, 10, 7, 72
14, 33285, Control_c, 10, 7, 72
14, 33286, Control_c, 10, 7, 71
14, 33287, Control_c, 10, 7, 71
14, 33288, Control_c, 10, 7, 71
14, 33289, Control_c, 10, 7, 70
14, 33290, Control_c, 10, 7, 70
14, 33291, Control_c, 10, 7, 70
14, 33292, Control_c, 10, 7, 69
14, 33293, Control_c, 10, 7, 69
14, 33294, Control_c, 10, 7, 69
14, 33295, Control_c, 10, 7, 68
14, 33296, Control_c, 10, 7, 68
14, 33297, Control_c, 10, 7, 68
14, 33298, Control_c, 10, 7, 67
14, 33299, Control_c, 10, 7, 67
14, 33300, Control_c, 10, 7, 67
14, 33301, Control_c, 10, 7, 66
14, 33302, Control_c, 10, 7, 66
14, 33303, Control_c, 10, 7, 66
14, 33304, Control_c, 10, 7, 65
14, 33305, Control_c, 10, 7, 65
14, 33306, Control_c, 10, 7, 65
14, 33307, Control_c, 10, 7, 64
14, 33308, Control_c, 10, 7, 64
14, 33309, Control_c, 10, 7, 64
14, 33310, Control_c, 10, 7, 63
14, 33311, Control_c, 10, 7, 63
14, 33312, Note_off_c, 10, 39, 64
14, 33312, Note_off_c, 10, 51, 64
14, 33312, Note_off_c, 10, 27, 64
14, 33312, Control_c, 10, 7, 64
14, 33312, Note_on_c, 10, 39, 127
14, 33312, Note_on_c, 10, 51, 127
14, 33312, Note_on_c, 10, 27, 127
14, 33313, Control_c, 10, 7, 64
14, 33314, Control_c, 10, 7, 65
14, 33315, Control_c, 10, 7, 65
14, 33316, Control_c, 10, 7, 66
14, 33317, Control_c, 10, 7, 66
14, 33318, Control_c, 10, 7, 67
14, 33319, Control_c, 10, 7, 67
14, 33320, Control_c, 10, 7, 68
14, 33321, Control_c, 10, 7, 68
14, 33322, Control_c, 10, 7, 69
14, 33323, Control_c, 10, 7, 69
14, 33324, Control_c, 10, 7, 70
14, 33325, Control_c, 10, 7, 70
14, 33326, Control_c, 10, 7, 71
14, 33327, Control_c, 10, 7, 71
14, 33328, Control_c, 10, 7, 72
14, 33329, Control_c, 10, 7, 72
14, 33330, Control_c, 10, 7, 73
14, 33331, Control_c, 10, 7, 73
14, 33332, Control_c, 10, 7, 74
14, 33333, Control_c, 10, 7, 74
14, 33334, Control_c, 10, 7, 75
14, 33335, Control_c, 10, 7, 75
14, 33336, Control_c, 10, 7, 76
14, 33337, Control_c, 10, 7, 76
14, 33338, Control_c, 10, 7, 77
14, 33339, Control_c, 10, 7, 77
14, 33340, Control_c, 10, 7, 78
14, 33341, Control_c, 10, 7, 78
14, 33342, Control_c, 10, 7, 79
14, 33343, Control_c, 10, 7, 79
14, 33344, Control_c, 10, 7, 80
14, 33345, Control_c, 10, 7, 80
14, 33346, Control_c, 10, 7, 81
14, 33347, Control_c, 10, 7, 81
14, 33348, Control_c, 10, 7, 82
14, 33349, Control_c, 10, 7, 82
14, 33350, Control_c, 10, 7, 83
14, 33351, Control_c, 10, 7, 83
14, 33352, Control_c, 10, 7, 84
14, 33353, Control_c, 10, 7, 84
14, 33354, Control_c, 10, 7, 85
14, 33355, Control_c, 10, 7, 85
14, 33356, Control_c, 10, 7, 86
14, 33357, Control_c, 10, 7, 86
14, 33358, Control_c, 10, 7, 87
14, 33359, Control_c, 10, 7, 87
14, 33360, Control_c, 10, 7, 88
14, 33361, Control_c, 10, 7, 88
14, 33362, Control_c, 10, 7, 89
14, 33363, Control_c, 10, 7, 89
14, 33364, Control_c, 10, 7, 90
14, 33365, Control_c, 10, 7, 90
14, 33366, Control_c, 10, 7, 91
14, 33367, Control_c, 10, 7, 91
14, 33368, Control_c, 10, 7, 92
14, 33369, Control_c, 10, 7, 92
14, 33370, Control_c, 10, 7, 93
14, 33371, Control_c, 10, 7, 93
14, 33372, Control_c, 10, 7, 94
14, 33373, Control_c, 10, 7, 94
14, 33374, Control_c, 10, 7, 95
14, 33375, Control_c, 10, 7, 95
14, 33376, Control_c, 10, 7, 96
14, 33377, Control_c, 10, 7, 96
14, 33378, Control_c, 10, 7, 97
14, 33379, Control_c, 10, 7, 97
14, 33380, Control_c, 10, 7, 98
14, 33381, Control_c, 10, 7, 98
14, 33382, Control_c, 10, 7, 99
14, 33383, Control_c, 10, 7, 99
14, 33384, Control_c, 10, 7, 100
14, 33385, Control_c, 10, 7, 100
14, 33386, Control_c, 10, 7, 101
14, 33387, Control_c, 10, 7, 101
14, 33388, Control_c, 10, 7, 102
14, 33389, Control_c, 10, 7, 102
14, 33390, Control_c, 10, 7, 103
14, 33391, Control_c, 10, 7, 103
14, 33392, Control_c, 10, 7, 104
14, 33393, Control_c, 10, 7, 104
14, 33394, Control_c, 10, 7, 105
14, 33395, Control_c, 10, 7, 105
14, 33396, Control_c, 10, 7, 106
14, 33397, Control_c, 10, 7, 106
14, 33398, Control_c, 10, 7, 107
14, 33399, Control_c, 10, 7, 107
14, 33400, Control_c, 10, 7, 108
14, 33401, Control_c, 10, 7, 108
14, 33402, Control_c, 10, 7, 109
14, 33403, Control_c, 10, 7, 109
14, 33404, Control_c, 10, 7, 110
14, 33405, Control_c, 10, 7, 110
14, 33406, Control_c, 10, 7, 111
14, 33407, Control_c, 10, 7, 111
14, 33408, Note_off_c, 10, 39, 64
14, 33408, Note_off_c, 10, 51, 64
14, 33408, Note_off_c, 10, 27, 64
14, 33408, Control_c, 10, 7, 112
14, 33408, Note_on_c, 10, 39, 127
14, 33408, Note_on_c, 10, 51, 127
14, 33408, Note_on_c, 10, 27, 127
14, 33409, Control_c, 10, 7, 64
14, 33410, Control_c, 10, 7, 65
14, 33411, Control_c, 10, 7, 66
14, 33412, Control_c, 10, 7, 67
14, 33413, Control_c, 10, 7, 68
14, 33414, Control_c, 10, 7, 69
14, 33415, Control_c, 10, 7, 69
14, 33416, Control_c, 10, 7, 70
14, 33417, Control_c, 10, 7, 71
14, 33418, Control_c, 10, 7, 72
14, 33419, Control_c, 10, 7, 73
14, 33420, Control_c, 10, 7, 74
14, 33421, Control_c, 10, 7, 75
14, 33422, Control_c, 10, 7, 76
14, 33423, Control_c, 10, 7, 77
14, 33424, Control_c, 10, 7, 78
14, 33425, Control_c, 10, 7, 79
14, 33426, Control_c, 10, 7, 80
14, 33427, Control_c, 10, 7, 81
14, 33428, Control_c, 10, 7, 82
14, 33429, Control_c, 10, 7, 83
14, 33430, Control_c, 10, 7, 85
14, 33431, Control_c, 10, 7, 86
14, 33432, Control_c, 10, 7, 87
14, 33433, Control_c, 10, 7, 88
14, 33434, Control_c, 10, 7, 89
14, 33435, Control_c, 10, 7, 90
14, 33436, Control_c, 10, 7, 91
14, 33437, Control_c, 10, 7, 92
14, 33438, Control_c, 10, 7, 93
14, 33439, Control_c, 10, 7, 94
14, 33440, Control_c, 10, 7, 95
14, 33441, Control_c, 10, 7, 96
14, 33442, Control_c, 10, 7, 97
14, 33443, Control_c, 10, 7, 98
14, 33444, Control_c, 10, 7, 99
14, 33445, Control_c, 10, 7, 100
14, 33446, Control_c, 10, 7, 102
14, 33447, Control_c, 10, 7, 103
14, 33448, Control_c, 10, 7, 104
14, 33449, Control_c, 10, 7, 105
14, 33450, Control_c, 10, 7, 106
14, 33451, Control_c, 10, 7, 107
14, 33452, Control_c, 10, 7, 108
14, 33453, Control_c, 10, 7, 109
14, 33454, Control_c, 10, 7, 110
14, 33455, Control_c, 10, 7, 111
14, 33456, Note_off_c, 10, 51, 64
14, 33456, Note_off_c, 10, 27, 64
14, 33456, Note_off_c, 10, 39, 64
14, 33456, Control_c, 10, 7, 65
14, 33456, Note_on_c, 10, 39, 127
14, 33456, Note_on_c, 10, 51, 127
14, 33456, Note_on_c, 10, 27, 127
14, 33457, Control_c, 10, 7, 66
14, 33458, Control_c, 10, 7, 67
14, 33459, Control_c, 10, 7, 67
14, 33460, Control_c, 10, 7, 68
14, 33461, Control_c, 10, 7, 69
14, 33462, Control_c, 10, 7, 70
14, 33463, Control_c, 10, 7, 71
14, 33464, Control_c, 10, 7, 72
14, 33465, Control_c, 10, 7, 73
14, 33466, Control_c, 10, 7, 74
14, 33467, Control_c, 10, 7, 75
14, 33468, Control_c, 10, 7, 76
14, 33469, Control_c, 10, 7, 77
14, 33470, Control_c, 10, 7, 78
14, 33471, Control_c, 10, 7, 79
14, 33472, Control_c, 10, 7, 80
14, 33473, Control_c, 10, 7, 81
14, 33474, Control_c, 10, 7, 82
14, 33475, Control_c, 10, 7, 83
14, 33476, Control_c, 10, 7, 84
14, 33477, Control_c, 10, 7, 85
14, 33478, Control_c, 10, 7, 86
14, 33479, Control_c, 10, 7, 87
14, 33480, Control_c, 10, 7, 88
14, 33481, Control_c, 10, 7, 89
14, 33482, Control_c, 10, 7, 89
14, 33483, Control_c, 10, 7, 90
14, 33484, Control_c, 10, 7, 91
14, 33485, Control_c, 10, 7, 92
14, 33486, Control_c, 10, 7, 93
14, 33487, Control_c, 10, 7, 94
14, 33488, Control_c, 10, 7, 95
14, 33489, Control_c, 10, 7, 96
14, 33490, Control_c, 10, 7, 97
14, 33491, Control_c, 10, 7, 98
14, 33492, Control_c, 10, 7, 99
14, 33493, Control_c, 10, 7, 100
14, 33494, Control_c, 10, 7, 101
14, 33495, Control_c, 10, 7, 102
14, 33496, Control_c, 10, 7, 103
14, 33497, Control_c, 10, 7, 104
14, 33498, Control_c, 10, 7, 105
14, 33499, Control_c, 10, 7, 106
14, 33500, Control_c, 10, 7, 107
14, 33501, Control_c, 10, 7, 108
14, 33502, Control_c, 10, 7, 109
14, 33503, Control_c, 10, 7, 110
14, 33504, Note_off_c, 10, 39, 64
14, 33504, Note_off_c, 10, 27, 64
14, 33504, Note_off_c, 10, 51, 64
14, 33504, Control_c, 10, 7, 64
14, 33504, Note_on_c, 10, 39, 127
14, 33504, Note_on_c, 10, 51, 127
14, 33504, Note_on_c, 10, 27, 127
14, 33505, Control_c, 10, 7, 65
14, 33506, Control_c, 10, 7, 65
14, 33507, Control_c, 10, 7, 66
14, 33508, Control_c, 10, 7, 67
14, 33509, Control_c, 10, 7, 68
14, 33510, Control_c, 10, 7, 69
14, 33511, Control_c, 10, 7, 70
14, 33512, Control_c, 10, 7, 70
14, 33513, Control_c, 10, 7, 71
14, 33514, Control_c, 10, 7, 72
14, 33515, Control_c, 10, 7, 73
14, 33516, Control_c, 10, 7, 74
14, 33517, Control_c, 10, 7, 75
14, 33518, Control_c, 10, 7, 76
14, 33519, Control_c, 10, 7, 77
14, 33520, Control_c, 10, 7, 78
14, 33521, Control_c, 10, 7, 79
14, 33522, Control_c, 10, 7, 80
14, 33523, Control_c, 10, 7, 81
14, 33524, Control_c, 10, 7, 82
14, 33525, Control_c, 10, 7, 83
14, 33526, Control_c, 10, 7, 84
14, 33527, Control_c, 10, 7, 85
14, 33528, Control_c, 10, 7, 86
14, 33529, Control_c, 10, 7, 88
14, 33530, Control_c, 10, 7, 89
14, 33531, Control_c, 10, 7, 90
14, 33532, Control_c, 10, 7, 91
14, 33533, Control_c, 10, 7, 92
14, 33534, Control_c, 10, 7, 93
14, 33535, Control_c, 10, 7, 94
14, 33536, Control_c, 10, 7, 95
14, 33537, Control_c, 10, 7, 96
14, 33538, Control_c, 10, 7, 97
14, 33539, Control_c, 10, 7, 98
14, 33540, Control_c, 10, 7, 99
14, 33541, Control_c, 10, 7, 100
14, 33542, Control_c, 10, 7, 101
14, 33543, Control_c, 10, 7, 102
14, 33544, Control_c, 10, 7, 103
14, 33545, Control_c, 10, 7, 104
14, 33546, Control_c, 10, 7, 105
14, 33547, Control_c, 10, 7, 106
14, 33548, Control_c, 10, 7, 107
14, 33549, Control_c, 10, 7, 108
14, 33550, Control_c, 10, 7, 109
14, 33551, Control_c, 10, 7, 110
14, 33552, Note_off_c, 10, 39, 64
14, 33552, Note_off_c, 10, 27, 64
14, 33552, Note_off_c, 10, 51, 64
14, 33552, Control_c, 10, 7, 66
14, 33552, Note_on_c, 10, 39, 127
14, 33552, Note_on_c, 10, 51, 127
14, 33552, Note_on_c, 10, 27, 127
14, 33553, Control_c, 10, 7, 67
14, 33554, Control_c, 10, 7, 68
14, 33555, Control_c, 10, 7, 69
14, 33556, Control_c, 10, 7, 69
14, 33557, Control_c, 10, 7, 70
14, 33558, Control_c, 10, 7, 71
14, 33559, Control_c, 10, 7, 72
14, 33560, Control_c, 10, 7, 73
14, 33561, Control_c, 10, 7, 74
14, 33562, Control_c, 10, 7, 75
14, 33563, Control_c, 10, 7, 76
14, 33564, Control_c, 10, 7, 77
14, 33565, Control_c, 10, 7, 77
14, 33566, Control_c, 10, 7, 78
14, 33567, Control_c, 10, 7, 79
14, 33568, Control_c, 10, 7, 80
14, 33569, Control_c, 10, 7, 81
14, 33570, Control_c, 10, 7, 82
14, 33571, Control_c, 10, 7, 83
14, 33572, Control_c, 10, 7, 84
14, 33573, Control_c, 10, 7, 84
14, 33574, Control_c, 10, 7, 85
14, 33575, Control_c, 10, 7, 86
14, 33576, Control_c, 10, 7, 87
14, 33577, Control_c, 10, 7, 88
14, 33578, Control_c, 10, 7, 89
14, 33579, Control_c, 10, 7, 90
14, 33580, Control_c, 10, 7, 91
14, 33581, Control_c, 10, 7, 91
14, 33582, Control_c, 10, 7, 92
14, 33583, Control_c, 10, 7, 93
14, 33584, Control_c, 10, 7, 94
14, 33585, Control_c, 10, 7, 95
14, 33586, Control_c, 10, 7, 96
14, 33587, Control_c, 10, 7, 97
14, 33588, Control_c, 10, 7, 98
14, 33589, Control_c, 10, 7, 98
14, 33590, Control_c, 10, 7, 99
14, 33591, Control_c, 10, 7, 100
14, 33592, Control_c, 10, 7, 101
14, 33593, Control_c, 10, 7, 102
14, 33594, Control_c, 10, 7, 103
14, 33595, Control_c, 10, 7, 104
14, 33596, Control_c, 10, 7, 104
14, 33597, Control_c, 10, 7, 105
14, 33598, Control_c, 10, 7, 106
14, 33599, Control_c, 10, 7, 107
14, 33600, Note_off_c, 10, 27, 64
14, 33600, Note_off_c, 10, 51, 64
14, 33600, Note_off_c, 10, 39, 64
14, 33600, Control_c, 10, 7, 67
14, 33600, Note_on_c, 10, 39, 127
14, 33600, Note_on_c, 10, 51, 127
14, 33600, Note_on_c, 10, 27, 127
14, 33601, Control_c, 10, 7, 68
14, 33602, Control_c, 10, 7, 69
14, 33603, Control_c, 10, 7, 70
14, 33604, Control_c, 10, 7, 71
14, 33605, Control_c, 10, 7, 72
14, 33606, Control_c, 10, 7, 73
14, 33607, Control_c, 10, 7, 74
14, 33608, Control_c, 10, 7, 75
14, 33609, Control_c, 10, 7, 75
14, 33610, Control_c, 10, 7, 76
14, 33611, Control_c, 10, 7, 77
14, 33612, Control_c, 10, 7, 78
14, 33613, Control_c, 10, 7, 79
14, 33614, Control_c, 10, 7, 80
14, 33615, Control_c, 10, 7, 81
14, 33616, Control_c, 10, 7, 82
14, 33617, Control_c, 10, 7, 83
14, 33618, Control_c, 10, 7, 84
14, 33619, Control_c, 10, 7, 85
14, 33620, Control_c, 10, 7, 86
14, 33621, Control_c, 10, 7, 87
14, 33622, Control_c, 10, 7, 88
14, 33623, Control_c, 10, 7, 89
14, 33624, Control_c, 10, 7, 90
14, 33625, Control_c, 10, 7, 90
14, 33626, Control_c, 10, 7, 91
14, 33627, Control_c, 10, 7, 92
14, 33628, Control_c, 10, 7, 93
14, 33629, Control_c, 10, 7, 94
14, 33630, Control_c, 10, 7, 95
14, 33631, Control_c, 10, 7, 96
14, 33632, Control_c, 10, 7, 97
14, 33633, Control_c, 10, 7, 98
14, 33634, Control_c, 10, 7, 99
14, 33635, Control_c, 10, 7, 100
14, 33636, Control_c, 10, 7, 101
14, 33637, Control_c, 10, 7, 102
14, 33638, Control_c, 10, 7, 103
14, 33639, Control_c, 10, 7, 104
14, 33640, Control_c, 10, 7, 105
14, 33641, Control_c, 10, 7, 106
14, 33642, Control_c, 10, 7, 106
14, 33643, Control_c, 10, 7, 107
14, 33644, Control_c, 10, 7, 108
14, 33645, Control_c, 10, 7, 109
14, 33646, Control_c, 10, 7, 110
14, 33647, Control_c, 10, 7, 111
14, 33648, Note_off_c, 10, 39, 64
14, 33648, Note_off_c, 10, 51, 64
14, 33648, Note_off_c, 10, 27, 64
14, 33648, Control_c, 10, 7, 61
14, 33648, Note_on_c, 10, 39, 127
14, 33648, Note_on_c, 10, 51, 127
14, 33648, Note_on_c, 10, 27, 127
14, 33649, Control_c, 10, 7, 62
14, 33650, Control_c, 10, 7, 63
14, 33651, Control_c, 10, 7, 64
14, 33652, Control_c, 10, 7, 65
14, 33653, Control_c, 10, 7, 66
14, 33654, Control_c, 10, 7, 67
14, 33655, Control_c, 10, 7, 68
14, 33656, Control_c, 10, 7, 70
14, 33657, Control_c, 10, 7, 71
14, 33658, Control_c, 10, 7, 72
14, 33659, Control_c, 10, 7, 73
14, 33660, Control_c, 10, 7, 74
14, 33661, Control_c, 10, 7, 75
14, 33662, Control_c, 10, 7, 76
14, 33663, Control_c, 10, 7, 78
14, 33664, Control_c, 10, 7, 79
14, 33665, Control_c, 10, 7, 80
14, 33666, Control_c, 10, 7, 81
14, 33667, Control_c, 10, 7, 82
14, 33668, Control_c, 10, 7, 83
14, 33669, Control_c, 10, 7, 84
14, 33670, Control_c, 10, 7, 85
14, 33671, Control_c, 10, 7, 87
14, 33672, Control_c, 10, 7, 88
14, 33673, Control_c, 10, 7, 89
14, 33674, Control_c, 10, 7, 90
14, 33675, Control_c, 10, 7, 91
14, 33676, Control_c, 10, 7, 92
14, 33677, Control_c, 10, 7, 93
14, 33678, Control_c, 10, 7, 95
14, 33679, Control_c, 10, 7, 96
14, 33680, Control_c, 10, 7, 97
14, 33681, Control_c, 10, 7, 98
14, 33682, Control_c, 10, 7, 99
14, 33683, Control_c, 10, 7, 100
14, 33684, Control_c, 10, 7, 101
14, 33685, Control_c, 10, 7, 102
14, 33686, Control_c, 10, 7, 104
14, 33687, Control_c, 10, 7, 105
14, 33688, Control_c, 10, 7, 106
14, 33689, Control_c, 10, 7, 107
14, 33690, Control_c, 10, 7, 108
14, 33691, Control_c, 10, 7, 110
14, 33692, Control_c, 10, 7, 111
14, 33693, Control_c, 10, 7, 112
14, 33694, Control_c, 10, 7, 113
14, 33695, Control_c, 10, 7, 114
14, 33696, Note_off_c, 10, 27, 64
14, 33696, Note_off_c, 10, 51, 64
14, 33696, Note_off_c, 10, 39, 64
14, 33696, Control_c, 10, 7, 65
14, 33696, Note_on_c, 10, 39, 127
14, 33696, Note_on_c, 10, 51, 127
14, 33696, Note_on_c, 10, 27, 127
14, 33697, Control_c, 10, 7, 66
14, 33698, Control_c, 10, 7, 67
14, 33699, Control_c, 10, 7, 68
14, 33700, Control_c, 10, 7, 70
14, 33701, Control_c, 10, 7, 71
14, 33702, Control_c, 10, 7, 72
14, 33703, Control_c, 10, 7, 73
14, 33704, Control_c, 10, 7, 74
14, 33705, Control_c, 10, 7, 75
14, 33706, Control_c, 10, 7, 76
14, 33707, Control_c, 10, 7, 77
14, 33708, Control_c, 10, 7, 78
14, 33709, Control_c, 10, 7, 79
14, 33710, Control_c, 10, 7, 80
14, 33711, Control_c, 10, 7, 81
14, 33712, Control_c, 10, 7, 82
14, 33713, Control_c, 10, 7, 83
14, 33714, Control_c, 10, 7, 84
14, 33715, Control_c, 10, 7, 85
14, 33716, Control_c, 10, 7, 86
14, 33717, Control_c, 10, 7, 88
14, 33718, Control_c, 10, 7, 89
14, 33719, Control_c, 10, 7, 90
14, 33720, Control_c, 10, 7, 91
14, 33721, Control_c, 10, 7, 92
14, 33722, Control_c, 10, 7, 93
14, 33723, Control_c, 10, 7, 94
14, 33724, Control_c, 10, 7, 95
14, 33725, Control_c, 10, 7, 96
14, 33726, Control_c, 10, 7, 97
14, 33727, Control_c, 10, 7, 98
14, 33728, Control_c, 10, 7, 99
14, 33729, Control_c, 10, 7, 100
14, 33730, Control_c, 10, 7, 101
14, 33731, Control_c, 10, 7, 102
14, 33732, Control_c, 10, 7, 103
14, 33733, Control_c, 10, 7, 105
14, 33734, Control_c, 10, 7, 106
14, 33735, Control_c, 10, 7, 107
14, 33736, Control_c, 10, 7, 108
14, 33737, Control_c, 10, 7, 109
14, 33738, Control_c, 10, 7, 109
14, 33739, Control_c, 10, 7, 110
14, 33740, Control_c, 10, 7, 112
14, 33741, Control_c, 10, 7, 113
14, 33742, Control_c, 10, 7, 114
14, 33743, Control_c, 10, 7, 115
14, 33744, Note_off_c, 10, 51, 64
14, 33744, Note_off_c, 10, 39, 64
14, 33744, Note_off_c, 10, 27, 64
14, 33744, Control_c, 10, 7, 67
14, 33744, Note_on_c, 10, 39, 127
14, 33744, Note_on_c, 10, 51, 127
14, 33744, Note_on_c, 10, 27, 127
14, 33745, Control_c, 10, 7, 68
14, 33746, Control_c, 10, 7, 69
14, 33747, Control_c, 10, 7, 70
14, 33748, Control_c, 10, 7, 71
14, 33749, Control_c, 10, 7, 71
14, 33750, Control_c, 10, 7, 72
14, 33751, Control_c, 10, 7, 73
14, 33752, Control_c, 10, 7, 74
14, 33753, Control_c, 10, 7, 75
14, 33754, Control_c, 10, 7, 76
14, 33755, Control_c, 10, 7, 77
14, 33756, Control_c, 10, 7, 78
14, 33757, Control_c, 10, 7, 79
14, 33758, Control_c, 10, 7, 80
14, 33759, Control_c, 10, 7, 81
14, 33760, Control_c, 10, 7, 82
14, 33761, Control_c, 10, 7, 83
14, 33762, Control_c, 10, 7, 84
14, 33763, Control_c, 10, 7, 85
14, 33764, Control_c, 10, 7, 86
14, 33765, Control_c, 10, 7, 87
14, 33766, Control_c, 10, 7, 88
14, 33767, Control_c, 10, 7, 89
14, 33768, Control_c, 10, 7, 90
14, 33769, Control_c, 10, 7, 91
14, 33770, Control_c, 10, 7, 92
14, 33771, Control_c, 10, 7, 93
14, 33772, Control_c, 10, 7, 94
14, 33773, Control_c, 10, 7, 95
14, 33774, Control_c, 10, 7, 96
14, 33775, Control_c, 10, 7, 97
14, 33776, Control_c, 10, 7, 98
14, 33777, Control_c, 10, 7, 99
14, 33778, Control_c, 10, 7, 100
14, 33779, Control_c, 10, 7, 101
14, 33780, Control_c, 10, 7, 102
14, 33781, Control_c, 10, 7, 103
14, 33782, Control_c, 10, 7, 104
14, 33783, Control_c, 10, 7, 104
14, 33784, Control_c, 10, 7, 105
14, 33785, Control_c, 10, 7, 106
14, 33786, Control_c, 10, 7, 107
14, 33787, Control_c, 10, 7, 108
14, 33788, Control_c, 10, 7, 109
14, 33789, Control_c, 10, 7, 110
14, 33790, Control_c, 10, 7, 111
14, 33791, Control_c, 10, 7, 112
14, 33792, Note_off_c, 10, 51, 64
14, 33792, Note_off_c, 10, 39, 64
14, 33792, Note_off_c, 10, 27, 64
14, 33792, Control_c, 10, 7, 50
14, 33792, Note_on_c, 10, 41, 127
14, 33792, Note_on_c, 10, 29, 127
14, 33792, Note_on_c, 10, 53, 127
14, 33794, Control_c, 10, 7, 50
14, 33795, Control_c, 10, 7, 51
14, 33796, Control_c, 10, 7, 51
14, 33797, Control_c, 10, 7, 52
14, 33798, Control_c, 10, 7, 52
14, 33799, Control_c, 10, 7, 52
14, 33800, Control_c, 10, 7, 53
14, 33801, Control_c, 10, 7, 53
14, 33802, Control_c, 10, 7, 54
14, 33803, Control_c, 10, 7, 54
14, 33804, Control_c, 10, 7, 54
14, 33805, Control_c, 10, 7, 55
14, 33806, Control_c, 10, 7, 55
14, 33807, Control_c, 10, 7, 55
14, 33808, Control_c, 10, 7, 56
14, 33809, Control_c, 10, 7, 56
14, 33810, Control_c, 10, 7, 57
14, 33811, Control_c, 10, 7, 57
14, 33812, Control_c, 10, 7, 57
14, 33813, Control_c, 10, 7, 58
14, 33814, Control_c, 10, 7, 58
14, 33815, Control_c, 10, 7, 59
14, 33816, Control_c, 10, 7, 59
14, 33817, Control_c, 10, 7, 59
14, 33818, Control_c, 10, 7, 60
14, 33819, Control_c, 10, 7, 60
14, 33820, Control_c, 10, 7, 61
14, 33821, Control_c, 10, 7, 61
14, 33822, Control_c, 10, 7, 61
14, 33823, Control_c, 10, 7, 62
14, 33824, Control_c, 10, 7, 62
14, 33825, Control_c, 10, 7, 62
14, 33826, Control_c, 10, 7, 63
14, 33827, Control_c, 10, 7, 63
14, 33828, Control_c, 10, 7, 64
14, 33829, Control_c, 10, 7, 64
14, 33830, Control_c, 10, 7, 64
14, 33831, Control_c, 10, 7, 65
14, 33832, Control_c, 10, 7, 65
14, 33833, Control_c, 10, 7, 66
14, 33834, Control_c, 10, 7, 66
14, 33835, Control_c, 10, 7, 66
14, 33836, Control_c, 10, 7, 67
14, 33837, Control_c, 10, 7, 67
14, 33838, Control_c, 10, 7, 68
14, 33839, Control_c, 10, 7, 68
14, 33840, Control_c, 10, 7, 68
14, 33841, Control_c, 10, 7, 69
14, 33842, Control_c, 10, 7, 69
14, 33843, Control_c, 10, 7, 69
14, 33844, Control_c, 10, 7, 70
14, 33845, Control_c, 10, 7, 70
14, 33846, Control_c, 10, 7, 71
14, 33847, Control_c, 10, 7, 71
14, 33848, Control_c, 10, 7, 71
14, 33849, Control_c, 10, 7, 72
14, 33850, Control_c, 10, 7, 72
14, 33851, Control_c, 10, 7, 73
14, 33852, Control_c, 10, 7, 73
14, 33853, Control_c, 10, 7, 73
14, 33854, Control_c, 10, 7, 74
14, 33855, Control_c, 10, 7, 74
14, 33856, Control_c, 10, 7, 75
14, 33857, Control_c, 10, 7, 75
14, 33858, Control_c, 10, 7, 75
14, 33859, Control_c, 10, 7, 76
14, 33860, Control_c, 10, 7, 76
14, 33861, Control_c, 10, 7, 76
14, 33862, Control_c, 10, 7, 77
14, 33863, Control_c, 10, 7, 77
14, 33864, Control_c, 10, 7, 78
14, 33865, Control_c, 10, 7, 78
14, 33866, Control_c, 10, 7, 78
14, 33867, Control_c, 10, 7, 79
14, 33868, Control_c, 10, 7, 79
14, 33869, Control_c, 10, 7, 80
14, 33870, Control_c, 10, 7, 80
14, 33871, Control_c, 10, 7, 80
14, 33872, Control_c, 10, 7, 81
14, 33873, Control_c, 10, 7, 81
14, 33874, Control_c, 10, 7, 82
14, 33875, Control_c, 10, 7, 82
14, 33876, Control_c, 10, 7, 82
14, 33877, Control_c, 10, 7, 83
14, 33878, Control_c, 10, 7, 83
14, 33879, Control_c, 10, 7, 83
14, 33880, Control_c, 10, 7, 84
14, 33881, Control_c, 10, 7, 84
14, 33882, Control_c, 10, 7, 85
14, 33883, Control_c, 10, 7, 85
14, 33884, Control_c, 10, 7, 85
14, 33885, Control_c, 10, 7, 86
14, 33886, Control_c, 10, 7, 86
14, 33887, Control_c, 10, 7, 87
14, 33888, Control_c, 10, 7, 87
14, 33889, Control_c, 10, 7, 87
14, 33890, Control_c, 10, 7, 88
14, 33891, Control_c, 10, 7, 88
14, 33892, Control_c, 10, 7, 89
14, 33893, Control_c, 10, 7, 89
14, 33894, Control_c, 10, 7, 89
14, 33895, Control_c, 10, 7, 90
14, 33896, Control_c, 10, 7, 90
14, 33897, Control_c, 10, 7, 90
14, 33898, Control_c, 10, 7, 91
14, 33899, Control_c, 10, 7, 91
14, 33900, Control_c, 10, 7, 92
14, 33901, Control_c, 10, 7, 92
14, 33902, Control_c, 10, 7, 92
14, 33903, Control_c, 10, 7, 93
14, 33904, Control_c, 10, 7, 93
14, 33905, Control_c, 10, 7, 94
14, 33906, Control_c, 10, 7, 94
14, 33907, Control_c, 10, 7, 94
14, 33908, Control_c, 10, 7, 95
14, 33909, Control_c, 10, 7, 95
14, 33910, Control_c, 10, 7, 96
14, 33911, Control_c, 10, 7, 96
14, 33912, Control_c, 10, 7, 96
14, 33913, Control_c, 10, 7, 97
14, 33914, Control_c, 10, 7, 97
14, 33915, Control_c, 10, 7, 97
14, 33916, Control_c, 10, 7, 98
14, 33917, Control_c, 10, 7, 98
14, 33918, Control_c, 10, 7, 99
14, 33919, Control_c, 10, 7, 99
14, 33920, Control_c, 10, 7, 99
14, 33921, Control_c, 10, 7, 100
14, 33922, Control_c, 10, 7, 100
14, 33923, Control_c, 10, 7, 101
14, 33924, Control_c, 10, 7, 101
14, 33925, Control_c, 10, 7, 101
14, 33926, Control_c, 10, 7, 102
14, 33927, Control_c, 10, 7, 102
14, 33928, Control_c, 10, 7, 103
14, 33929, Control_c, 10, 7, 103
14, 33930, Control_c, 10, 7, 103
14, 33931, Control_c, 10, 7, 104
14, 33932, Control_c, 10, 7, 104
14, 33933, Control_c, 10, 7, 104
14, 33934, Control_c, 10, 7, 105
14, 33935, Control_c, 10, 7, 105
14, 33936, Note_off_c, 10, 29, 64
14, 33936, Note_off_c, 10, 41, 64
14, 33936, Note_off_c, 10, 53, 64
14, 33936, Control_c, 10, 7, 54
14, 33936, Note_on_c, 10, 43, 127
14, 33936, Note_on_c, 10, 31, 127
14, 33936, Note_on_c, 10, 55, 127
14, 33937, Control_c, 10, 7, 55
14, 33938, Control_c, 10, 7, 55
14, 33939, Control_c, 10, 7, 56
14, 33940, Control_c, 10, 7, 57
14, 33941, Control_c, 10, 7, 57
14, 33942, Control_c, 10, 7, 57
14, 33943, Control_c, 10, 7, 58
14, 33944, Control_c, 10, 7, 58
14, 33945, Control_c, 10, 7, 58
14, 33946, Control_c, 10, 7, 59
14, 33947, Control_c, 10, 7, 59
14, 33948, Control_c, 10, 7, 59
14, 33949, Control_c, 10, 7, 60
14, 33950, Control_c, 10, 7, 60
14, 33951, Control_c, 10, 7, 61
14, 33952, Control_c, 10, 7, 61
14, 33953, Control_c, 10, 7, 61
14, 33954, Control_c, 10, 7, 62
14, 33955, Control_c, 10, 7, 62
14, 33956, Control_c, 10, 7, 62
14, 33957, Control_c, 10, 7, 63
14, 33958, Control_c, 10, 7, 63
14, 33959, Control_c, 10, 7, 63
14, 33960, Control_c, 10, 7, 63
14, 33961, Control_c, 10, 7, 64
14, 33962, Control_c, 10, 7, 64
14, 33963, Control_c, 10, 7, 65
14, 33964, Control_c, 10, 7, 65
14, 33965, Control_c, 10, 7, 65
14, 33966, Control_c, 10, 7, 66
14, 33967, Control_c, 10, 7, 66
14, 33968, Control_c, 10, 7, 66
14, 33969, Control_c, 10, 7, 67
14, 33970, Control_c, 10, 7, 67
14, 33971, Control_c, 10, 7, 68
14, 33972, Control_c, 10, 7, 68
14, 33973, Control_c, 10, 7, 68
14, 33974, Control_c, 10, 7, 69
14, 33975, Control_c, 10, 7, 69
14, 33976, Control_c, 10, 7, 69
14, 33977, Control_c, 10, 7, 70
14, 33978, Control_c, 10, 7, 70
14, 33979, Control_c, 10, 7, 71
14, 33980, Control_c, 10, 7, 71
14, 33981, Control_c, 10, 7, 71
14, 33982, Control_c, 10, 7, 72
14, 33983, Control_c, 10, 7, 72
14, 33984, Control_c, 10, 7, 73
14, 33985, Control_c, 10, 7, 73
14, 33986, Control_c, 10, 7, 73
14, 33987, Control_c, 10, 7, 74
14, 33988, Control_c, 10, 7, 74
14, 33989, Control_c, 10, 7, 74
14, 33990, Control_c, 10, 7, 75
14, 33991, Control_c, 10, 7, 75
14, 33992, Control_c, 10, 7, 76
14, 33993, Control_c, 10, 7, 76
14, 33994, Control_c, 10, 7, 76
14, 33995, Control_c, 10, 7, 77
14, 33996, Control_c, 10, 7, 77
14, 33997, Control_c, 10, 7, 77
14, 33998, Control_c, 10, 7, 78
14, 33999, Control_c, 10, 7, 78
14, 34000, Control_c, 10, 7, 79
14, 34001, Control_c, 10, 7, 79
14, 34002, Control_c, 10, 7, 79
14, 34003, Control_c, 10, 7, 80
14, 34004, Control_c, 10, 7, 80
14, 34005, Control_c, 10, 7, 80
14, 34006, Control_c, 10, 7, 81
14, 34007, Control_c, 10, 7, 81
14, 34008, Control_c, 10, 7, 82
14, 34009, Control_c, 10, 7, 82
14, 34010, Control_c, 10, 7, 82
14, 34011, Control_c, 10, 7, 83
14, 34012, Control_c, 10, 7, 83
14, 34013, Control_c, 10, 7, 84
14, 34014, Control_c, 10, 7, 84
14, 34015, Control_c, 10, 7, 84
14, 34016, Control_c, 10, 7, 85
14, 34017, Control_c, 10, 7, 85
14, 34018, Control_c, 10, 7, 85
14, 34019, Control_c, 10, 7, 86
14, 34020, Control_c, 10, 7, 86
14, 34021, Control_c, 10, 7, 87
14, 34022, Control_c, 10, 7, 87
14, 34023, Control_c, 10, 7, 87
14, 34024, Control_c, 10, 7, 88
14, 34025, Control_c, 10, 7, 88
14, 34026, Control_c, 10, 7, 88
14, 34027, Control_c, 10, 7, 89
14, 34028, Control_c, 10, 7, 89
14, 34029, Control_c, 10, 7, 90
14, 34030, Control_c, 10, 7, 90
14, 34031, Control_c, 10, 7, 90
14, 34032, Control_c, 10, 7, 91
14, 34033, Control_c, 10, 7, 91
14, 34034, Control_c, 10, 7, 92
14, 34035, Control_c, 10, 7, 92
14, 34036, Control_c, 10, 7, 92
14, 34037, Control_c, 10, 7, 93
14, 34038, Control_c, 10, 7, 93
14, 34039, Control_c, 10, 7, 93
14, 34040, Control_c, 10, 7, 94
14, 34041, Control_c, 10, 7, 94
14, 34042, Control_c, 10, 7, 95
14, 34043, Control_c, 10, 7, 95
14, 34044, Control_c, 10, 7, 95
14, 34045, Control_c, 10, 7, 96
14, 34046, Control_c, 10, 7, 96
14, 34047, Control_c, 10, 7, 96
14, 34048, Control_c, 10, 7, 97
14, 34049, Control_c, 10, 7, 97
14, 34050, Control_c, 10, 7, 98
14, 34051, Control_c, 10, 7, 98
14, 34052, Control_c, 10, 7, 98
14, 34053, Control_c, 10, 7, 99
14, 34054, Control_c, 10, 7, 99
14, 34055, Control_c, 10, 7, 99
14, 34056, Control_c, 10, 7, 100
14, 34057, Control_c, 10, 7, 100
14, 34058, Control_c, 10, 7, 101
14, 34059, Control_c, 10, 7, 101
14, 34060, Control_c, 10, 7, 101
14, 34061, Control_c, 10, 7, 102
14, 34062, Control_c, 10, 7, 102
14, 34063, Control_c, 10, 7, 103
14, 34064, Control_c, 10, 7, 103
14, 34065, Control_c, 10, 7, 103
14, 34066, Control_c, 10, 7, 104
14, 34067, Control_c, 10, 7, 104
14, 34068, Control_c, 10, 7, 104
14, 34069, Control_c, 10, 7, 105
14, 34070, Control_c, 10, 7, 105
14, 34071, Control_c, 10, 7, 106
14, 34072, Control_c, 10, 7, 106
14, 34073, Control_c, 10, 7, 106
14, 34074, Control_c, 10, 7, 107
14, 34075, Control_c, 10, 7, 107
14, 34076, Control_c, 10, 7, 107
14, 34077, Control_c, 10, 7, 108
14, 34078, Control_c, 10, 7, 108
14, 34079, Control_c, 10, 7, 109
14, 34080, Note_off_c, 10, 43, 64
14, 34080, Note_off_c, 10, 31, 64
14, 34080, Note_off_c, 10, 55, 64
14, 34080, Control_c, 10, 7, 108
14, 34080, Note_on_c, 10, 39, 127
14, 34080, Note_on_c, 10, 27, 127
14, 34080, Note_on_c, 10, 51, 127
14, 34081, Control_c, 10, 7, 108
14, 34082, Control_c, 10, 7, 107
14, 34083, Control_c, 10, 7, 107
14, 34084, Control_c, 10, 7, 106
14, 34085, Control_c, 10, 7, 106
14, 34086, Control_c, 10, 7, 105
14, 34087, Control_c, 10, 7, 105
14, 34088, Control_c, 10, 7, 105
14, 34089, Control_c, 10, 7, 104
14, 34090, Control_c, 10, 7, 104
14, 34091, Control_c, 10, 7, 103
14, 34092, Control_c, 10, 7, 103
14, 34093, Control_c, 10, 7, 102
14, 34094, Control_c, 10, 7, 102
14, 34095, Control_c, 10, 7, 101
14, 34096, Control_c, 10, 7, 101
14, 34097, Control_c, 10, 7, 100
14, 34098, Control_c, 10, 7, 100
14, 34099, Control_c, 10, 7, 99
14, 34100, Control_c, 10, 7, 99
14, 34101, Control_c, 10, 7, 98
14, 34102, Control_c, 10, 7, 98
14, 34103, Control_c, 10, 7, 97
14, 34104, Control_c, 10, 7, 97
14, 34105, Control_c, 10, 7, 96
14, 34106, Control_c, 10, 7, 96
14, 34107, Control_c, 10, 7, 95
14, 34108, Control_c, 10, 7, 95
14, 34109, Control_c, 10, 7, 94
14, 34110, Control_c, 10, 7, 94
14, 34111, Control_c, 10, 7, 93
14, 34112, Control_c, 10, 7, 93
14, 34113, Control_c, 10, 7, 92
14, 34114, Control_c, 10, 7, 92
14, 34115, Control_c, 10, 7, 91
14, 34116, Control_c, 10, 7, 91
14, 34117, Control_c, 10, 7, 90
14, 34118, Control_c, 10, 7, 90
14, 34119, Control_c, 10, 7, 89
14, 34120, Control_c, 10, 7, 89
14, 34121, Control_c, 10, 7, 88
14, 34122, Control_c, 10, 7, 88
14, 34123, Control_c, 10, 7, 87
14, 34124, Control_c, 10, 7, 87
14, 34125, Control_c, 10, 7, 86
14, 34126, Control_c, 10, 7, 86
14, 34127, Control_c, 10, 7, 85
14, 34128, Control_c, 10, 7, 85
14, 34129, Control_c, 10, 7, 84
14, 34130, Control_c, 10, 7, 84
14, 34131, Control_c, 10, 7, 83
14, 34132, Control_c, 10, 7, 83
14, 34133, Control_c, 10, 7, 82
14, 34134, Control_c, 10, 7, 82
14, 34135, Control_c, 10, 7, 81
14, 34136, Control_c, 10, 7, 81
14, 34137, Control_c, 10, 7, 80
14, 34138, Control_c, 10, 7, 80
14, 34139, Control_c, 10, 7, 79
14, 34140, Control_c, 10, 7, 79
14, 34141, Control_c, 10, 7, 78
14, 34142, Control_c, 10, 7, 78
14, 34143, Control_c, 10, 7, 77
14, 34144, Control_c, 10, 7, 77
14, 34145, Control_c, 10, 7, 76
14, 34146, Control_c, 10, 7, 76
14, 34147, Control_c, 10, 7, 75
14, 34148, Control_c, 10, 7, 75
14, 34149, Control_c, 10, 7, 74
14, 34150, Control_c, 10, 7, 74
14, 34151, Control_c, 10, 7, 73
14, 34152, Control_c, 10, 7, 73
14, 34153, Control_c, 10, 7, 72
14, 34154, Control_c, 10, 7, 72
14, 34155, Control_c, 10, 7, 71
14, 34156, Control_c, 10, 7, 71
14, 34157, Control_c, 10, 7, 70
14, 34158, Control_c, 10, 7, 70
14, 34159, Control_c, 10, 7, 69
14, 34160, Control_c, 10, 7, 69
14, 34161, Control_c, 10, 7, 68
14, 34162, Control_c, 10, 7, 68
14, 34163, Control_c, 10, 7, 67
14, 34164, Control_c, 10, 7, 67
14, 34165, Control_c, 10, 7, 66
14, 34166, Control_c, 10, 7, 66
14, 34167, Control_c, 10, 7, 65
14, 34168, Control_c, 10, 7, 65
14, 34169, Control_c, 10, 7, 64
14, 34170, Control_c, 10, 7, 64
14, 34171, Control_c, 10, 7, 63
14, 34172, Control_c, 10, 7, 63
14, 34173, Control_c, 10, 7, 62
14, 34174, Control_c, 10, 7, 62
14, 34175, Control_c, 10, 7, 61
14, 34176, Control_c, 10, 7, 61
14, 34224, Note_off_c, 10, 27, 64
14, 34224, Note_off_c, 10, 51, 64
14, 34224, Note_off_c, 10, 39, 64
14, 34224, Control_c, 10, 7, 102
14, 34224, Note_on_c, 10, 39, 127
14, 34224, Note_on_c, 10, 27, 127
14, 34224, Note_on_c, 10, 51, 127
14, 34225, Control_c, 10, 7, 102
14, 34226, Control_c, 10, 7, 101
14, 34227, Control_c, 10, 7, 100
14, 34228, Control_c, 10, 7, 99
14, 34229, Control_c, 10, 7, 98
14, 34230, Control_c, 10, 7, 97
14, 34231, Control_c, 10, 7, 96
14, 34232, Control_c, 10, 7, 95
14, 34233, Control_c, 10, 7, 95
14, 34234, Control_c, 10, 7, 94
14, 34235, Control_c, 10, 7, 93
14, 34236, Control_c, 10, 7, 92
14, 34237, Control_c, 10, 7, 91
14, 34238, Control_c, 10, 7, 90
14, 34239, Control_c, 10, 7, 89
14, 34240, Control_c, 10, 7, 88
14, 34241, Control_c, 10, 7, 87
14, 34242, Control_c, 10, 7, 87
14, 34243, Control_c, 10, 7, 86
14, 34244, Control_c, 10, 7, 85
14, 34245, Control_c, 10, 7, 84
14, 34246, Control_c, 10, 7, 83
14, 34247, Control_c, 10, 7, 82
14, 34248, Control_c, 10, 7, 81
14, 34249, Control_c, 10, 7, 80
14, 34250, Control_c, 10, 7, 80
14, 34251, Control_c, 10, 7, 79
14, 34252, Control_c, 10, 7, 78
14, 34253, Control_c, 10, 7, 77
14, 34254, Control_c, 10, 7, 76
14, 34255, Control_c, 10, 7, 75
14, 34256, Control_c, 10, 7, 74
14, 34257, Control_c, 10, 7, 73
14, 34258, Control_c, 10, 7, 73
14, 34259, Control_c, 10, 7, 72
14, 34260, Control_c, 10, 7, 71
14, 34261, Control_c, 10, 7, 70
14, 34262, Control_c, 10, 7, 69
14, 34263, Control_c, 10, 7, 68
14, 34264, Control_c, 10, 7, 67
14, 34265, Control_c, 10, 7, 66
14, 34266, Control_c, 10, 7, 66
14, 34267, Control_c, 10, 7, 65
14, 34268, Control_c, 10, 7, 64
14, 34269, Control_c, 10, 7, 63
14, 34270, Control_c, 10, 7, 62
14, 34271, Control_c, 10, 7, 61
14, 34272, Note_off_c, 10, 51, 64
14, 34272, Note_off_c, 10, 27, 64
14, 34272, Note_off_c, 10, 39, 64
14, 34272, Control_c, 10, 7, 102
14, 34272, Note_on_c, 10, 39, 127
14, 34272, Note_on_c, 10, 27, 127
14, 34272, Note_on_c, 10, 51, 127
14, 34273, Control_c, 10, 7, 102
14, 34274, Control_c, 10, 7, 101
14, 34275, Control_c, 10, 7, 100
14, 34276, Control_c, 10, 7, 99
14, 34277, Control_c, 10, 7, 98
14, 34278, Control_c, 10, 7, 97
14, 34279, Control_c, 10, 7, 96
14, 34280, Control_c, 10, 7, 96
14, 34281, Control_c, 10, 7, 95
14, 34282, Control_c, 10, 7, 94
14, 34283, Control_c, 10, 7, 93
14, 34284, Control_c, 10, 7, 92
14, 34285, Control_c, 10, 7, 91
14, 34286, Control_c, 10, 7, 91
14, 34287, Control_c, 10, 7, 90
14, 34288, Control_c, 10, 7, 89
14, 34289, Control_c, 10, 7, 88
14, 34290, Control_c, 10, 7, 87
14, 34291, Control_c, 10, 7, 86
14, 34292, Control_c, 10, 7, 85
14, 34293, Control_c, 10, 7, 85
14, 34294, Control_c, 10, 7, 84
14, 34295, Control_c, 10, 7, 83
14, 34296, Control_c, 10, 7, 82
14, 34297, Control_c, 10, 7, 81
14, 34298, Control_c, 10, 7, 80
14, 34299, Control_c, 10, 7, 80
14, 34300, Control_c, 10, 7, 79
14, 34301, Control_c, 10, 7, 78
14, 34302, Control_c, 10, 7, 77
14, 34303, Control_c, 10, 7, 76
14, 34304, Control_c, 10, 7, 75
14, 34305, Control_c, 10, 7, 74
14, 34306, Control_c, 10, 7, 74
14, 34307, Control_c, 10, 7, 73
14, 34308, Control_c, 10, 7, 72
14, 34309, Control_c, 10, 7, 71
14, 34310, Control_c, 10, 7, 70
14, 34311, Control_c, 10, 7, 69
14, 34312, Control_c, 10, 7, 68
14, 34313, Control_c, 10, 7, 68
14, 34314, Control_c, 10, 7, 67
14, 34315, Control_c, 10, 7, 66
14, 34316, Control_c, 10, 7, 65
14, 34317, Control_c, 10, 7, 64
14, 34318, Control_c, 10, 7, 102
14, 34319, Control_c, 10, 7, 102
14, 34320, Note_off_c, 10, 39, 64
14, 34320, Note_off_c, 10, 51, 64
14, 34320, Note_off_c, 10, 27, 64
14, 34320, Control_c, 10, 7, 101
14, 34320, Note_on_c, 10, 39, 127
14, 34320, Note_on_c, 10, 27, 127
14, 34320, Note_on_c, 10, 51, 127
14, 34321, Control_c, 10, 7, 100
14, 34322, Control_c, 10, 7, 99
14, 34323, Control_c, 10, 7, 98
14, 34324, Control_c, 10, 7, 97
14, 34325, Control_c, 10, 7, 97
14, 34326, Control_c, 10, 7, 96
14, 34327, Control_c, 10, 7, 95
14, 34328, Control_c, 10, 7, 94
14, 34329, Control_c, 10, 7, 93
14, 34330, Control_c, 10, 7, 93
14, 34331, Control_c, 10, 7, 92
14, 34332, Control_c, 10, 7, 91
14, 34333, Control_c, 10, 7, 90
14, 34334, Control_c, 10, 7, 89
14, 34335, Control_c, 10, 7, 88
14, 34336, Control_c, 10, 7, 88
14, 34337, Control_c, 10, 7, 87
14, 34338, Control_c, 10, 7, 86
14, 34339, Control_c, 10, 7, 85
14, 34340, Control_c, 10, 7, 84
14, 34341, Control_c, 10, 7, 84
14, 34342, Control_c, 10, 7, 83
14, 34343, Control_c, 10, 7, 82
14, 34344, Control_c, 10, 7, 81
14, 34345, Control_c, 10, 7, 80
14, 34346, Control_c, 10, 7, 79
14, 34347, Control_c, 10, 7, 79
14, 34348, Control_c, 10, 7, 78
14, 34349, Control_c, 10, 7, 77
14, 34350, Control_c, 10, 7, 76
14, 34351, Control_c, 10, 7, 75
14, 34352, Control_c, 10, 7, 75
14, 34353, Control_c, 10, 7, 74
14, 34354, Control_c, 10, 7, 73
14, 34355, Control_c, 10, 7, 72
14, 34356, Control_c, 10, 7, 71
14, 34357, Control_c, 10, 7, 70
14, 34358, Control_c, 10, 7, 70
14, 34359, Control_c, 10, 7, 69
14, 34360, Control_c, 10, 7, 68
14, 34361, Control_c, 10, 7, 67
14, 34362, Control_c, 10, 7, 66
14, 34363, Control_c, 10, 7, 66
14, 34364, Control_c, 10, 7, 65
14, 34365, Control_c, 10, 7, 64
14, 34366, Control_c, 10, 7, 63
14, 34367, Control_c, 10, 7, 62
14, 34368, Note_off_c, 10, 27, 64
14, 34368, Note_off_c, 10, 51, 64
14, 34368, Note_off_c, 10, 39, 64
14, 34368, Control_c, 10, 7, 102
14, 34368, Note_on_c, 10, 39, 127
14, 34368, Note_on_c, 10, 27, 127
14, 34368, Note_on_c, 10, 51, 127
14, 34369, Control_c, 10, 7, 102
14, 34370, Control_c, 10, 7, 101
14, 34371, Control_c, 10, 7, 100
14, 34372, Control_c, 10, 7, 99
14, 34373, Control_c, 10, 7, 98
14, 34374, Control_c, 10, 7, 97
14, 34375, Control_c, 10, 7, 96
14, 34376, Control_c, 10, 7, 95
14, 34377, Control_c, 10, 7, 94
14, 34378, Control_c, 10, 7, 94
14, 34379, Control_c, 10, 7, 93
14, 34380, Control_c, 10, 7, 92
14, 34381, Control_c, 10, 7, 91
14, 34382, Control_c, 10, 7, 90
14, 34383, Control_c, 10, 7, 89
14, 34384, Control_c, 10, 7, 88
14, 34385, Control_c, 10, 7, 87
14, 34386, Control_c, 10, 7, 86
14, 34387, Control_c, 10, 7, 86
14, 34388, Control_c, 10, 7, 85
14, 34389, Control_c, 10, 7, 84
14, 34390, Control_c, 10, 7, 83
14, 34391, Control_c, 10, 7, 82
14, 34392, Control_c, 10, 7, 81
14, 34393, Control_c, 10, 7, 80
14, 34394, Control_c, 10, 7, 79
14, 34395, Control_c, 10, 7, 78
14, 34396, Control_c, 10, 7, 78
14, 34397, Control_c, 10, 7, 77
14, 34398, Control_c, 10, 7, 76
14, 34399, Control_c, 10, 7, 75
14, 34400, Control_c, 10, 7, 74
14, 34401, Control_c, 10, 7, 73
14, 34402, Control_c, 10, 7, 72
14, 34403, Control_c, 10, 7, 71
14, 34404, Control_c, 10, 7, 70
14, 34405, Control_c, 10, 7, 69
14, 34406, Control_c, 10, 7, 69
14, 34407, Control_c, 10, 7, 68
14, 34408, Control_c, 10, 7, 67
14, 34409, Control_c, 10, 7, 66
14, 34410, Control_c, 10, 7, 65
14, 34411, Control_c, 10, 7, 64
14, 34412, Control_c, 10, 7, 63
14, 34413, Control_c, 10, 7, 62
14, 34414, Control_c, 10, 7, 61
14, 34415, Control_c, 10, 7, 61
14, 34416, Note_off_c, 10, 51, 64
14, 34416, Note_off_c, 10, 27, 64
14, 34416, Note_off_c, 10, 39, 64
14, 34416, Note_on_c, 10, 39, 127
14, 34416, Note_on_c, 10, 27, 127
14, 34416, Note_on_c, 10, 51, 127
14, 34417, Control_c, 10, 7, 103
14, 34418, Control_c, 10, 7, 102
14, 34419, Control_c, 10, 7, 101
14, 34420, Control_c, 10, 7, 100
14, 34421, Control_c, 10, 7, 99
14, 34422, Control_c, 10, 7, 99
14, 34423, Control_c, 10, 7, 98
14, 34424, Control_c, 10, 7, 97
14, 34425, Control_c, 10, 7, 96
14, 34426, Control_c, 10, 7, 95
14, 34427, Control_c, 10, 7, 94
14, 34428, Control_c, 10, 7, 93
14, 34429, Control_c, 10, 7, 93
14, 34430, Control_c, 10, 7, 92
14, 34431, Control_c, 10, 7, 91
14, 34432, Control_c, 10, 7, 90
14, 34433, Control_c, 10, 7, 89
14, 34434, Control_c, 10, 7, 88
14, 34435, Control_c, 10, 7, 87
14, 34436, Control_c, 10, 7, 87
14, 34437, Control_c, 10, 7, 86
14, 34438, Control_c, 10, 7, 85
14, 34439, Control_c, 10, 7, 84
14, 34440, Control_c, 10, 7, 83
14, 34441, Control_c, 10, 7, 82
14, 34442, Control_c, 10, 7, 81
14, 34443, Control_c, 10, 7, 81
14, 34444, Control_c, 10, 7, 80
14, 34445, Control_c, 10, 7, 79
14, 34446, Control_c, 10, 7, 78
14, 34447, Control_c, 10, 7, 77
14, 34448, Control_c, 10, 7, 76
14, 34449, Control_c, 10, 7, 75
14, 34450, Control_c, 10, 7, 75
14, 34451, Control_c, 10, 7, 74
14, 34452, Control_c, 10, 7, 73
14, 34453, Control_c, 10, 7, 72
14, 34454, Control_c, 10, 7, 71
14, 34455, Control_c, 10, 7, 70
14, 34456, Control_c, 10, 7, 69
14, 34457, Control_c, 10, 7, 69
14, 34458, Control_c, 10, 7, 68
14, 34459, Control_c, 10, 7, 67
14, 34460, Control_c, 10, 7, 66
14, 34461, Control_c, 10, 7, 65
14, 34462, Control_c, 10, 7, 64
14, 34463, Control_c, 10, 7, 64
14, 34464, Note_off_c, 10, 51, 64
14, 34464, Note_off_c, 10, 27, 64
14, 34464, Note_off_c, 10, 39, 64
14, 34464, Note_on_c, 10, 39, 127
14, 34464, Note_on_c, 10, 27, 127
14, 34464, Note_on_c, 10, 51, 127
14, 34465, Control_c, 10, 7, 104
14, 34466, Control_c, 10, 7, 103
14, 34467, Control_c, 10, 7, 102
14, 34468, Control_c, 10, 7, 101
14, 34469, Control_c, 10, 7, 100
14, 34470, Control_c, 10, 7, 99
14, 34471, Control_c, 10, 7, 98
14, 34472, Control_c, 10, 7, 98
14, 34473, Control_c, 10, 7, 97
14, 34474, Control_c, 10, 7, 96
14, 34475, Control_c, 10, 7, 95
14, 34476, Control_c, 10, 7, 94
14, 34477, Control_c, 10, 7, 93
14, 34478, Control_c, 10, 7, 93
14, 34479, Control_c, 10, 7, 92
14, 34480, Control_c, 10, 7, 91
14, 34481, Control_c, 10, 7, 90
14, 34482, Control_c, 10, 7, 89
14, 34483, Control_c, 10, 7, 88
14, 34484, Control_c, 10, 7, 87
14, 34485, Control_c, 10, 7, 87
14, 34486, Control_c, 10, 7, 86
14, 34487, Control_c, 10, 7, 85
14, 34488, Control_c, 10, 7, 84
14, 34489, Control_c, 10, 7, 83
14, 34490, Control_c, 10, 7, 82
14, 34491, Control_c, 10, 7, 82
14, 34492, Control_c, 10, 7, 81
14, 34493, Control_c, 10, 7, 80
14, 34494, Control_c, 10, 7, 79
14, 34495, Control_c, 10, 7, 78
14, 34496, Control_c, 10, 7, 77
14, 34497, Control_c, 10, 7, 76
14, 34498, Control_c, 10, 7, 76
14, 34499, Control_c, 10, 7, 75
14, 34500, Control_c, 10, 7, 74
14, 34501, Control_c, 10, 7, 73
14, 34502, Control_c, 10, 7, 72
14, 34503, Control_c, 10, 7, 71
14, 34504, Control_c, 10, 7, 71
14, 34505, Control_c, 10, 7, 70
14, 34506, Control_c, 10, 7, 69
14, 34507, Control_c, 10, 7, 68
14, 34508, Control_c, 10, 7, 67
14, 34509, Control_c, 10, 7, 66
14, 34510, Control_c, 10, 7, 65
14, 34511, Control_c, 10, 7, 102
14, 34512, Note_off_c, 10, 51, 64
14, 34512, Note_off_c, 10, 27, 64
14, 34512, Note_off_c, 10, 39, 64
14, 34512, Control_c, 10, 7, 102
14, 34512, Note_on_c, 10, 39, 127
14, 34512, Note_on_c, 10, 27, 127
14, 34512, Note_on_c, 10, 51, 127
14, 34513, Control_c, 10, 7, 101
14, 34514, Control_c, 10, 7, 100
14, 34515, Control_c, 10, 7, 99
14, 34516, Control_c, 10, 7, 98
14, 34517, Control_c, 10, 7, 97
14, 34518, Control_c, 10, 7, 96
14, 34519, Control_c, 10, 7, 96
14, 34520, Control_c, 10, 7, 95
14, 34521, Control_c, 10, 7, 94
14, 34522, Control_c, 10, 7, 93
14, 34523, Control_c, 10, 7, 92
14, 34524, Control_c, 10, 7, 91
14, 34525, Control_c, 10, 7, 90
14, 34526, Control_c, 10, 7, 89
14, 34527, Control_c, 10, 7, 89
14, 34528, Control_c, 10, 7, 88
14, 34529, Control_c, 10, 7, 87
14, 34530, Control_c, 10, 7, 86
14, 34531, Control_c, 10, 7, 85
14, 34532, Control_c, 10, 7, 84
14, 34533, Control_c, 10, 7, 83
14, 34534, Control_c, 10, 7, 83
14, 34535, Control_c, 10, 7, 82
14, 34536, Control_c, 10, 7, 81
14, 34537, Control_c, 10, 7, 80
14, 34538, Control_c, 10, 7, 79
14, 34539, Control_c, 10, 7, 78
14, 34540, Control_c, 10, 7, 77
14, 34541, Control_c, 10, 7, 77
14, 34542, Control_c, 10, 7, 76
14, 34543, Control_c, 10, 7, 75
14, 34544, Control_c, 10, 7, 74
14, 34545, Control_c, 10, 7, 73
14, 34546, Control_c, 10, 7, 72
14, 34547, Control_c, 10, 7, 71
14, 34548, Control_c, 10, 7, 71
14, 34549, Control_c, 10, 7, 70
14, 34550, Control_c, 10, 7, 69
14, 34551, Control_c, 10, 7, 68
14, 34552, Control_c, 10, 7, 67
14, 34553, Control_c, 10, 7, 66
14, 34554, Control_c, 10, 7, 65
14, 34555, Control_c, 10, 7, 65
14, 34556, Control_c, 10, 7, 64
14, 34557, Control_c, 10, 7, 63
14, 34560, Note_off_c, 10, 27, 64
14, 34560, Note_off_c, 10, 51, 64
14, 34560, Note_off_c, 10, 39, 64
14, 34560, Control_c, 10, 7, 113
14, 34560, Note_on_c, 10, 39, 127
14, 34560, Note_on_c, 10, 27, 127
14, 34560, Note_on_c, 10, 51, 127
14, 34561, Control_c, 10, 7, 113
14, 34562, Control_c, 10, 7, 112
14, 34563, Control_c, 10, 7, 112
14, 34564, Control_c, 10, 7, 112
14, 34565, Control_c, 10, 7, 111
14, 34566, Control_c, 10, 7, 111
14, 34567, Control_c, 10, 7, 110
14, 34568, Control_c, 10, 7, 110
14, 34569, Control_c, 10, 7, 110
14, 34570, Control_c, 10, 7, 109
14, 34571, Control_c, 10, 7, 109
14, 34572, Control_c, 10, 7, 109
14, 34573, Control_c, 10, 7, 108
14, 34574, Control_c, 10, 7, 108
14, 34575, Control_c, 10, 7, 108
14, 34576, Control_c, 10, 7, 107
14, 34577, Control_c, 10, 7, 107
14, 34578, Control_c, 10, 7, 107
14, 34579, Control_c, 10, 7, 106
14, 34580, Control_c, 10, 7, 106
14, 34581, Control_c, 10, 7, 106
14, 34582, Control_c, 10, 7, 105
14, 34583, Control_c, 10, 7, 105
14, 34584, Control_c, 10, 7, 104
14, 34585, Control_c, 10, 7, 104
14, 34586, Control_c, 10, 7, 104
14, 34587, Control_c, 10, 7, 103
14, 34588, Control_c, 10, 7, 103
14, 34589, Control_c, 10, 7, 103
14, 34590, Control_c, 10, 7, 102
14, 34591, Control_c, 10, 7, 102
14, 34592, Control_c, 10, 7, 102
14, 34593, Control_c, 10, 7, 101
14, 34594, Control_c, 10, 7, 101
14, 34595, Control_c, 10, 7, 101
14, 34596, Control_c, 10, 7, 100
14, 34597, Control_c, 10, 7, 100
14, 34598, Control_c, 10, 7, 100
14, 34599, Control_c, 10, 7, 99
14, 34600, Control_c, 10, 7, 99
14, 34601, Control_c, 10, 7, 98
14, 34602, Control_c, 10, 7, 98
14, 34603, Control_c, 10, 7, 98
14, 34604, Control_c, 10, 7, 97
14, 34605, Control_c, 10, 7, 97
14, 34606, Control_c, 10, 7, 97
14, 34607, Control_c, 10, 7, 96
14, 34608, Control_c, 10, 7, 96
14, 34609, Control_c, 10, 7, 96
14, 34610, Control_c, 10, 7, 95
14, 34611, Control_c, 10, 7, 95
14, 34612, Control_c, 10, 7, 95
14, 34613, Control_c, 10, 7, 94
14, 34614, Control_c, 10, 7, 94
14, 34615, Control_c, 10, 7, 94
14, 34616, Control_c, 10, 7, 93
14, 34617, Control_c, 10, 7, 93
14, 34618, Control_c, 10, 7, 92
14, 34619, Control_c, 10, 7, 92
14, 34620, Control_c, 10, 7, 92
14, 34621, Control_c, 10, 7, 91
14, 34622, Control_c, 10, 7, 91
14, 34623, Control_c, 10, 7, 91
14, 34624, Control_c, 10, 7, 90
14, 34625, Control_c, 10, 7, 90
14, 34626, Control_c, 10, 7, 90
14, 34627, Control_c, 10, 7, 89
14, 34628, Control_c, 10, 7, 89
14, 34629, Control_c, 10, 7, 89
14, 34630, Control_c, 10, 7, 88
14, 34631, Control_c, 10, 7, 88
14, 34632, Control_c, 10, 7, 88
14, 34633, Control_c, 10, 7, 87
14, 34634, Control_c, 10, 7, 87
14, 34635, Control_c, 10, 7, 86
14, 34636, Control_c, 10, 7, 86
14, 34637, Control_c, 10, 7, 86
14, 34638, Control_c, 10, 7, 85
14, 34639, Control_c, 10, 7, 85
14, 34640, Control_c, 10, 7, 85
14, 34641, Control_c, 10, 7, 84
14, 34642, Control_c, 10, 7, 84
14, 34643, Control_c, 10, 7, 84
14, 34644, Control_c, 10, 7, 83
14, 34645, Control_c, 10, 7, 83
14, 34646, Control_c, 10, 7, 83
14, 34647, Control_c, 10, 7, 82
14, 34648, Control_c, 10, 7, 82
14, 34649, Control_c, 10, 7, 82
14, 34650, Control_c, 10, 7, 81
14, 34651, Control_c, 10, 7, 81
14, 34652, Control_c, 10, 7, 80
14, 34653, Control_c, 10, 7, 80
14, 34654, Control_c, 10, 7, 80
14, 34655, Control_c, 10, 7, 79
14, 34656, Control_c, 10, 7, 79
14, 34657, Control_c, 10, 7, 79
14, 34658, Control_c, 10, 7, 78
14, 34659, Control_c, 10, 7, 78
14, 34660, Control_c, 10, 7, 78
14, 34661, Control_c, 10, 7, 77
14, 34662, Control_c, 10, 7, 77
14, 34663, Control_c, 10, 7, 77
14, 34664, Control_c, 10, 7, 76
14, 34665, Control_c, 10, 7, 76
14, 34666, Control_c, 10, 7, 76
14, 34667, Control_c, 10, 7, 75
14, 34668, Control_c, 10, 7, 75
14, 34669, Control_c, 10, 7, 74
14, 34670, Control_c, 10, 7, 74
14, 34671, Control_c, 10, 7, 74
14, 34672, Control_c, 10, 7, 73
14, 34673, Control_c, 10, 7, 73
14, 34674, Control_c, 10, 7, 73
14, 34675, Control_c, 10, 7, 72
14, 34676, Control_c, 10, 7, 72
14, 34677, Control_c, 10, 7, 72
14, 34678, Control_c, 10, 7, 71
14, 34679, Control_c, 10, 7, 71
14, 34680, Control_c, 10, 7, 71
14, 34681, Control_c, 10, 7, 70
14, 34682, Control_c, 10, 7, 70
14, 34683, Control_c, 10, 7, 70
14, 34684, Control_c, 10, 7, 69
14, 34685, Control_c, 10, 7, 69
14, 34686, Control_c, 10, 7, 68
14, 34687, Control_c, 10, 7, 68
14, 34688, Control_c, 10, 7, 68
14, 34689, Control_c, 10, 7, 67
14, 34690, Control_c, 10, 7, 67
14, 34691, Control_c, 10, 7, 67
14, 34692, Control_c, 10, 7, 66
14, 34693, Control_c, 10, 7, 66
14, 34694, Control_c, 10, 7, 66
14, 34695, Control_c, 10, 7, 65
14, 34696, Control_c, 10, 7, 65
14, 34697, Control_c, 10, 7, 65
14, 34698, Control_c, 10, 7, 64
14, 34699, Control_c, 10, 7, 64
14, 34700, Control_c, 10, 7, 64
14, 34701, Control_c, 10, 7, 63
14, 34702, Control_c, 10, 7, 111
14, 34703, Control_c, 10, 7, 111
14, 34704, Note_off_c, 10, 27, 64
14, 34704, Note_off_c, 10, 39, 64
14, 34704, Note_off_c, 10, 51, 64
14, 34704, Control_c, 10, 7, 110
14, 34704, Note_on_c, 10, 39, 127
14, 34704, Note_on_c, 10, 51, 127
14, 34704, Note_on_c, 10, 27, 127
14, 34705, Control_c, 10, 7, 110
14, 34706, Control_c, 10, 7, 110
14, 34707, Control_c, 10, 7, 109
14, 34708, Control_c, 10, 7, 109
14, 34709, Control_c, 10, 7, 109
14, 34710, Control_c, 10, 7, 109
14, 34711, Control_c, 10, 7, 108
14, 34712, Control_c, 10, 7, 108
14, 34713, Control_c, 10, 7, 108
14, 34714, Control_c, 10, 7, 107
14, 34715, Control_c, 10, 7, 107
14, 34716, Control_c, 10, 7, 107
14, 34717, Control_c, 10, 7, 106
14, 34718, Control_c, 10, 7, 106
14, 34719, Control_c, 10, 7, 106
14, 34720, Control_c, 10, 7, 105
14, 34721, Control_c, 10, 7, 105
14, 34722, Control_c, 10, 7, 105
14, 34723, Control_c, 10, 7, 104
14, 34724, Control_c, 10, 7, 104
14, 34725, Control_c, 10, 7, 104
14, 34726, Control_c, 10, 7, 103
14, 34727, Control_c, 10, 7, 103
14, 34728, Control_c, 10, 7, 103
14, 34729, Control_c, 10, 7, 102
14, 34730, Control_c, 10, 7, 102
14, 34731, Control_c, 10, 7, 102
14, 34732, Control_c, 10, 7, 101
14, 34733, Control_c, 10, 7, 101
14, 34734, Control_c, 10, 7, 101
14, 34735, Control_c, 10, 7, 100
14, 34736, Control_c, 10, 7, 100
14, 34737, Control_c, 10, 7, 100
14, 34738, Control_c, 10, 7, 99
14, 34739, Control_c, 10, 7, 99
14, 34740, Control_c, 10, 7, 99
14, 34741, Control_c, 10, 7, 98
14, 34742, Control_c, 10, 7, 98
14, 34743, Control_c, 10, 7, 98
14, 34744, Control_c, 10, 7, 97
14, 34745, Control_c, 10, 7, 97
14, 34746, Control_c, 10, 7, 97
14, 34747, Control_c, 10, 7, 96
14, 34748, Control_c, 10, 7, 96
14, 34749, Control_c, 10, 7, 96
14, 34750, Control_c, 10, 7, 95
14, 34751, Control_c, 10, 7, 95
14, 34752, Control_c, 10, 7, 95
14, 34753, Control_c, 10, 7, 94
14, 34754, Control_c, 10, 7, 94
14, 34755, Control_c, 10, 7, 94
14, 34756, Control_c, 10, 7, 93
14, 34757, Control_c, 10, 7, 93
14, 34758, Control_c, 10, 7, 93
14, 34759, Control_c, 10, 7, 92
14, 34760, Control_c, 10, 7, 92
14, 34761, Control_c, 10, 7, 92
14, 34762, Control_c, 10, 7, 91
14, 34763, Control_c, 10, 7, 91
14, 34764, Control_c, 10, 7, 91
14, 34765, Control_c, 10, 7, 90
14, 34766, Control_c, 10, 7, 90
14, 34767, Control_c, 10, 7, 90
14, 34768, Control_c, 10, 7, 89
14, 34769, Control_c, 10, 7, 89
14, 34770, Control_c, 10, 7, 89
14, 34771, Control_c, 10, 7, 88
14, 34772, Control_c, 10, 7, 88
14, 34773, Control_c, 10, 7, 88
14, 34774, Control_c, 10, 7, 87
14, 34775, Control_c, 10, 7, 87
14, 34776, Control_c, 10, 7, 87
14, 34777, Control_c, 10, 7, 86
14, 34778, Control_c, 10, 7, 86
14, 34779, Control_c, 10, 7, 86
14, 34780, Control_c, 10, 7, 85
14, 34781, Control_c, 10, 7, 85
14, 34782, Control_c, 10, 7, 85
14, 34783, Control_c, 10, 7, 84
14, 34784, Control_c, 10, 7, 84
14, 34785, Control_c, 10, 7, 84
14, 34786, Control_c, 10, 7, 83
14, 34787, Control_c, 10, 7, 83
14, 34788, Control_c, 10, 7, 83
14, 34789, Control_c, 10, 7, 82
14, 34790, Control_c, 10, 7, 82
14, 34791, Control_c, 10, 7, 82
14, 34792, Control_c, 10, 7, 81
14, 34793, Control_c, 10, 7, 81
14, 34794, Control_c, 10, 7, 81
14, 34795, Control_c, 10, 7, 80
14, 34796, Control_c, 10, 7, 80
14, 34797, Control_c, 10, 7, 80
14, 34798, Control_c, 10, 7, 79
14, 34799, Control_c, 10, 7, 79
14, 34800, Control_c, 10, 7, 79
14, 34801, Control_c, 10, 7, 78
14, 34802, Control_c, 10, 7, 78
14, 34803, Control_c, 10, 7, 78
14, 34804, Control_c, 10, 7, 77
14, 34805, Control_c, 10, 7, 77
14, 34806, Control_c, 10, 7, 77
14, 34807, Control_c, 10, 7, 76
14, 34808, Control_c, 10, 7, 76
14, 34809, Control_c, 10, 7, 76
14, 34810, Control_c, 10, 7, 75
14, 34811, Control_c, 10, 7, 75
14, 34812, Control_c, 10, 7, 75
14, 34813, Control_c, 10, 7, 74
14, 34814, Control_c, 10, 7, 74
14, 34815, Control_c, 10, 7, 74
14, 34816, Control_c, 10, 7, 73
14, 34817, Control_c, 10, 7, 73
14, 34818, Control_c, 10, 7, 73
14, 34819, Control_c, 10, 7, 72
14, 34820, Control_c, 10, 7, 72
14, 34821, Control_c, 10, 7, 72
14, 34822, Control_c, 10, 7, 71
14, 34823, Control_c, 10, 7, 71
14, 34824, Control_c, 10, 7, 71
14, 34825, Control_c, 10, 7, 70
14, 34826, Control_c, 10, 7, 70
14, 34827, Control_c, 10, 7, 70
14, 34828, Control_c, 10, 7, 69
14, 34829, Control_c, 10, 7, 69
14, 34830, Control_c, 10, 7, 69
14, 34831, Control_c, 10, 7, 68
14, 34832, Control_c, 10, 7, 68
14, 34833, Control_c, 10, 7, 68
14, 34834, Control_c, 10, 7, 67
14, 34835, Control_c, 10, 7, 67
14, 34836, Control_c, 10, 7, 67
14, 34837, Control_c, 10, 7, 66
14, 34838, Control_c, 10, 7, 66
14, 34839, Control_c, 10, 7, 66
14, 34840, Control_c, 10, 7, 65
14, 34841, Control_c, 10, 7, 65
14, 34842, Control_c, 10, 7, 65
14, 34843, Control_c, 10, 7, 64
14, 34844, Control_c, 10, 7, 64
14, 34845, Control_c, 10, 7, 64
14, 34846, Control_c, 10, 7, 63
14, 34847, Control_c, 10, 7, 63
14, 34848, Note_off_c, 10, 39, 64
14, 34848, Note_off_c, 10, 51, 64
14, 34848, Note_off_c, 10, 27, 64
14, 34848, Control_c, 10, 7, 64
14, 34848, Note_on_c, 10, 39, 127
14, 34848, Note_on_c, 10, 51, 127
14, 34848, Note_on_c, 10, 27, 127
14, 34849, Control_c, 10, 7, 64
14, 34850, Control_c, 10, 7, 65
14, 34851, Control_c, 10, 7, 65
14, 34852, Control_c, 10, 7, 66
14, 34853, Control_c, 10, 7, 66
14, 34854, Control_c, 10, 7, 67
14, 34855, Control_c, 10, 7, 67
14, 34856, Control_c, 10, 7, 68
14, 34857, Control_c, 10, 7, 68
14, 34858, Control_c, 10, 7, 69
14, 34859, Control_c, 10, 7, 69
14, 34860, Control_c, 10, 7, 70
14, 34861, Control_c, 10, 7, 70
14, 34862, Control_c, 10, 7, 71
14, 34863, Control_c, 10, 7, 71
14, 34864, Control_c, 10, 7, 72
14, 34865, Control_c, 10, 7, 72
14, 34866, Control_c, 10, 7, 73
14, 34867, Control_c, 10, 7, 73
14, 34868, Control_c, 10, 7, 74
14, 34869, Control_c, 10, 7, 74
14, 34870, Control_c, 10, 7, 75
14, 34871, Control_c, 10, 7, 75
14, 34872, Control_c, 10, 7, 76
14, 34873, Control_c, 10, 7, 76
14, 34874, Control_c, 10, 7, 77
14, 34875, Control_c, 10, 7, 77
14, 34876, Control_c, 10, 7, 78
14, 34877, Control_c, 10, 7, 78
14, 34878, Control_c, 10, 7, 79
14, 34879, Control_c, 10, 7, 79
14, 34880, Control_c, 10, 7, 80
14, 34881, Control_c, 10, 7, 80
14, 34882, Control_c, 10, 7, 81
14, 34883, Control_c, 10, 7, 81
14, 34884, Control_c, 10, 7, 82
14, 34885, Control_c, 10, 7, 82
14, 34886, Control_c, 10, 7, 83
14, 34887, Control_c, 10, 7, 83
14, 34888, Control_c, 10, 7, 84
14, 34889, Control_c, 10, 7, 84
14, 34890, Control_c, 10, 7, 85
14, 34891, Control_c, 10, 7, 85
14, 34892, Control_c, 10, 7, 86
14, 34893, Control_c, 10, 7, 86
14, 34894, Control_c, 10, 7, 87
14, 34895, Control_c, 10, 7, 87
14, 34896, Control_c, 10, 7, 88
14, 34897, Control_c, 10, 7, 88
14, 34898, Control_c, 10, 7, 89
14, 34899, Control_c, 10, 7, 89
14, 34900, Control_c, 10, 7, 90
14, 34901, Control_c, 10, 7, 90
14, 34902, Control_c, 10, 7, 91
14, 34903, Control_c, 10, 7, 91
14, 34904, Control_c, 10, 7, 92
14, 34905, Control_c, 10, 7, 92
14, 34906, Control_c, 10, 7, 93
14, 34907, Control_c, 10, 7, 93
14, 34908, Control_c, 10, 7, 94
14, 34909, Control_c, 10, 7, 94
14, 34910, Control_c, 10, 7, 95
14, 34911, Control_c, 10, 7, 95
14, 34912, Control_c, 10, 7, 96
14, 34913, Control_c, 10, 7, 96
14, 34914, Control_c, 10, 7, 97
14, 34915, Control_c, 10, 7, 97
14, 34916, Control_c, 10, 7, 98
14, 34917, Control_c, 10, 7, 98
14, 34918, Control_c, 10, 7, 99
14, 34919, Control_c, 10, 7, 99
14, 34920, Control_c, 10, 7, 100
14, 34921, Control_c, 10, 7, 100
14, 34922, Control_c, 10, 7, 101
14, 34923, Control_c, 10, 7, 101
14, 34924, Control_c, 10, 7, 102
14, 34925, Control_c, 10, 7, 102
14, 34926, Control_c, 10, 7, 103
14, 34927, Control_c, 10, 7, 103
14, 34928, Control_c, 10, 7, 104
14, 34929, Control_c, 10, 7, 104
14, 34930, Control_c, 10, 7, 105
14, 34931, Control_c, 10, 7, 105
14, 34932, Control_c, 10, 7, 106
14, 34933, Control_c, 10, 7, 106
14, 34934, Control_c, 10, 7, 107
14, 34935, Control_c, 10, 7, 107
14, 34936, Control_c, 10, 7, 108
14, 34937, Control_c, 10, 7, 108
14, 34938, Control_c, 10, 7, 109
14, 34939, Control_c, 10, 7, 109
14, 34940, Control_c, 10, 7, 110
14, 34941, Control_c, 10, 7, 110
14, 34942, Control_c, 10, 7, 111
14, 34943, Control_c, 10, 7, 111
14, 34944, Note_off_c, 10, 39, 64
14, 34944, Note_off_c, 10, 51, 64
14, 34944, Note_off_c, 10, 27, 64
14, 34944, Control_c, 10, 7, 112
14, 34944, Note_on_c, 10, 39, 127
14, 34944, Note_on_c, 10, 51, 127
14, 34944, Note_on_c, 10, 27, 127
14, 34945, Control_c, 10, 7, 64
14, 34946, Control_c, 10, 7, 65
14, 34947, Control_c, 10, 7, 66
14, 34948, Control_c, 10, 7, 67
14, 34949, Control_c, 10, 7, 68
14, 34950, Control_c, 10, 7, 69
14, 34951, Control_c, 10, 7, 69
14, 34952, Control_c, 10, 7, 70
14, 34953, Control_c, 10, 7, 71
14, 34954, Control_c, 10, 7, 72
14, 34955, Control_c, 10, 7, 73
14, 34956, Control_c, 10, 7, 74
14, 34957, Control_c, 10, 7, 75
14, 34958, Control_c, 10, 7, 76
14, 34959, Control_c, 10, 7, 77
14, 34960, Control_c, 10, 7, 78
14, 34961, Control_c, 10, 7, 79
14, 34962, Control_c, 10, 7, 80
14, 34963, Control_c, 10, 7, 81
14, 34964, Control_c, 10, 7, 82
14, 34965, Control_c, 10, 7, 83
14, 34966, Control_c, 10, 7, 85
14, 34967, Control_c, 10, 7, 86
14, 34968, Control_c, 10, 7, 87
14, 34969, Control_c, 10, 7, 88
14, 34970, Control_c, 10, 7, 89
14, 34971, Control_c, 10, 7, 90
14, 34972, Control_c, 10, 7, 91
14, 34973, Control_c, 10, 7, 92
14, 34974, Control_c, 10, 7, 93
14, 34975, Control_c, 10, 7, 94
14, 34976, Control_c, 10, 7, 95
14, 34977, Control_c, 10, 7, 96
14, 34978, Control_c, 10, 7, 97
14, 34979, Control_c, 10, 7, 98
14, 34980, Control_c, 10, 7, 99
14, 34981, Control_c, 10, 7, 100
14, 34982, Control_c, 10, 7, 102
14, 34983, Control_c, 10, 7, 103
14, 34984, Control_c, 10, 7, 104
14, 34985, Control_c, 10, 7, 105
14, 34986, Control_c, 10, 7, 106
14, 34987, Control_c, 10, 7, 107
14, 34988, Control_c, 10, 7, 108
14, 34989, Control_c, 10, 7, 109
14, 34990, Control_c, 10, 7, 110
14, 34991, Control_c, 10, 7, 111
14, 34992, Note_off_c, 10, 51, 64
14, 34992, Note_off_c, 10, 27, 64
14, 34992, Note_off_c, 10, 39, 64
14, 34992, Control_c, 10, 7, 65
14, 34992, Note_on_c, 10, 39, 127
14, 34992, Note_on_c, 10, 51, 127
14, 34992, Note_on_c, 10, 27, 127
14, 34993, Control_c, 10, 7, 66
14, 34994, Control_c, 10, 7, 67
14, 34995, Control_c, 10, 7, 67
14, 34996, Control_c, 10, 7, 68
14, 34997, Control_c, 10, 7, 69
14, 34998, Control_c, 10, 7, 70
14, 34999, Control_c, 10, 7, 71
14, 35000, Control_c, 10, 7, 72
14, 35001, Control_c, 10, 7, 73
14, 35002, Control_c, 10, 7, 74
14, 35003, Control_c, 10, 7, 75
14, 35004, Control_c, 10, 7, 76
14, 35005, Control_c, 10, 7, 77
14, 35006, Control_c, 10, 7, 78
14, 35007, Control_c, 10, 7, 79
14, 35008, Control_c, 10, 7, 80
14, 35009, Control_c, 10, 7, 81
14, 35010, Control_c, 10, 7, 82
14, 35011, Control_c, 10, 7, 83
14, 35012, Control_c, 10, 7, 84
14, 35013, Control_c, 10, 7, 85
14, 35014, Control_c, 10, 7, 86
14, 35015, Control_c, 10, 7, 87
14, 35016, Control_c, 10, 7, 88
14, 35017, Control_c, 10, 7, 89
14, 35018, Control_c, 10, 7, 89
14, 35019, Control_c, 10, 7, 90
14, 35020, Control_c, 10, 7, 91
14, 35021, Control_c, 10, 7, 92
14, 35022, Control_c, 10, 7, 93
14, 35023, Control_c, 10, 7, 94
14, 35024, Control_c, 10, 7, 95
14, 35025, Control_c, 10, 7, 96
14, 35026, Control_c, 10, 7, 97
14, 35027, Control_c, 10, 7, 98
14, 35028, Control_c, 10, 7, 99
14, 35029, Control_c, 10, 7, 100
14, 35030, Control_c, 10, 7, 101
14, 35031, Control_c, 10, 7, 102
14, 35032, Control_c, 10, 7, 103
14, 35033, Control_c, 10, 7, 104
14, 35034, Control_c, 10, 7, 105
14, 35035, Control_c, 10, 7, 106
14, 35036, Control_c, 10, 7, 107
14, 35037, Control_c, 10, 7, 108
14, 35038, Control_c, 10, 7, 109
14, 35039, Control_c, 10, 7, 110
14, 35040, Note_off_c, 10, 39, 64
14, 35040, Note_off_c, 10, 27, 64
14, 35040, Note_off_c, 10, 51, 64
14, 35040, Control_c, 10, 7, 64
14, 35040, Note_on_c, 10, 39, 127
14, 35040, Note_on_c, 10, 51, 127
14, 35040, Note_on_c, 10, 27, 127
14, 35041, Control_c, 10, 7, 65
14, 35042, Control_c, 10, 7, 65
14, 35043, Control_c, 10, 7, 66
14, 35044, Control_c, 10, 7, 67
14, 35045, Control_c, 10, 7, 68
14, 35046, Control_c, 10, 7, 69
14, 35047, Control_c, 10, 7, 70
14, 35048, Control_c, 10, 7, 70
14, 35049, Control_c, 10, 7, 71
14, 35050, Control_c, 10, 7, 72
14, 35051, Control_c, 10, 7, 73
14, 35052, Control_c, 10, 7, 74
14, 35053, Control_c, 10, 7, 75
14, 35054, Control_c, 10, 7, 76
14, 35055, Control_c, 10, 7, 77
14, 35056, Control_c, 10, 7, 78
14, 35057, Control_c, 10, 7, 79
14, 35058, Control_c, 10, 7, 80
14, 35059, Control_c, 10, 7, 81
14, 35060, Control_c, 10, 7, 82
14, 35061, Control_c, 10, 7, 83
14, 35062, Control_c, 10, 7, 84
14, 35063, Control_c, 10, 7, 85
14, 35064, Control_c, 10, 7, 86
14, 35065, Control_c, 10, 7, 88
14, 35066, Control_c, 10, 7, 89
14, 35067, Control_c, 10, 7, 90
14, 35068, Control_c, 10, 7, 91
14, 35069, Control_c, 10, 7, 92
14, 35070, Control_c, 10, 7, 93
14, 35071, Control_c, 10, 7, 94
14, 35072, Control_c, 10, 7, 95
14, 35073, Control_c, 10, 7, 96
14, 35074, Control_c, 10, 7, 97
14, 35075, Control_c, 10, 7, 98
14, 35076, Control_c, 10, 7, 99
14, 35077, Control_c, 10, 7, 100
14, 35078, Control_c, 10, 7, 101
14, 35079, Control_c, 10, 7, 102
14, 35080, Control_c, 10, 7, 103
14, 35081, Control_c, 10, 7, 104
14, 35082, Control_c, 10, 7, 105
14, 35083, Control_c, 10, 7, 106
14, 35084, Control_c, 10, 7, 107
14, 35085, Control_c, 10, 7, 108
14, 35086, Control_c, 10, 7, 109
14, 35087, Control_c, 10, 7, 110
14, 35088, Note_off_c, 10, 39, 64
14, 35088, Note_off_c, 10, 27, 64
14, 35088, Note_off_c, 10, 51, 64
14, 35088, Control_c, 10, 7, 66
14, 35088, Note_on_c, 10, 39, 127
14, 35088, Note_on_c, 10, 51, 127
14, 35088, Note_on_c, 10, 27, 127
14, 35089, Control_c, 10, 7, 67
14, 35090, Control_c, 10, 7, 68
14, 35091, Control_c, 10, 7, 69
14, 35092, Control_c, 10, 7, 69
14, 35093, Control_c, 10, 7, 70
14, 35094, Control_c, 10, 7, 71
14, 35095, Control_c, 10, 7, 72
14, 35096, Control_c, 10, 7, 73
14, 35097, Control_c, 10, 7, 74
14, 35098, Control_c, 10, 7, 75
14, 35099, Control_c, 10, 7, 76
14, 35100, Control_c, 10, 7, 77
14, 35101, Control_c, 10, 7, 77
14, 35102, Control_c, 10, 7, 78
14, 35103, Control_c, 10, 7, 79
14, 35104, Control_c, 10, 7, 80
14, 35105, Control_c, 10, 7, 81
14, 35106, Control_c, 10, 7, 82
14, 35107, Control_c, 10, 7, 83
14, 35108, Control_c, 10, 7, 84
14, 35109, Control_c, 10, 7, 84
14, 35110, Control_c, 10, 7, 85
14, 35111, Control_c, 10, 7, 86
14, 35112, Control_c, 10, 7, 87
14, 35113, Control_c, 10, 7, 88
14, 35114, Control_c, 10, 7, 89
14, 35115, Control_c, 10, 7, 90
14, 35116, Control_c, 10, 7, 91
14, 35117, Control_c, 10, 7, 91
14, 35118, Control_c, 10, 7, 92
14, 35119, Control_c, 10, 7, 93
14, 35120, Control_c, 10, 7, 94
14, 35121, Control_c, 10, 7, 95
14, 35122, Control_c, 10, 7, 96
14, 35123, Control_c, 10, 7, 97
14, 35124, Control_c, 10, 7, 98
14, 35125, Control_c, 10, 7, 98
14, 35126, Control_c, 10, 7, 99
14, 35127, Control_c, 10, 7, 100
14, 35128, Control_c, 10, 7, 101
14, 35129, Control_c, 10, 7, 102
14, 35130, Control_c, 10, 7, 103
14, 35131, Control_c, 10, 7, 104
14, 35132, Control_c, 10, 7, 104
14, 35133, Control_c, 10, 7, 105
14, 35134, Control_c, 10, 7, 106
14, 35135, Control_c, 10, 7, 107
14, 35136, Note_off_c, 10, 51, 64
14, 35136, Note_off_c, 10, 27, 64
14, 35136, Note_off_c, 10, 39, 64
14, 35136, Control_c, 10, 7, 67
14, 35136, Note_on_c, 10, 39, 127
14, 35136, Note_on_c, 10, 51, 127
14, 35136, Note_on_c, 10, 27, 127
14, 35137, Control_c, 10, 7, 68
14, 35138, Control_c, 10, 7, 69
14, 35139, Control_c, 10, 7, 70
14, 35140, Control_c, 10, 7, 71
14, 35141, Control_c, 10, 7, 72
14, 35142, Control_c, 10, 7, 73
14, 35143, Control_c, 10, 7, 74
14, 35144, Control_c, 10, 7, 75
14, 35145, Control_c, 10, 7, 75
14, 35146, Control_c, 10, 7, 76
14, 35147, Control_c, 10, 7, 77
14, 35148, Control_c, 10, 7, 78
14, 35149, Control_c, 10, 7, 79
14, 35150, Control_c, 10, 7, 80
14, 35151, Control_c, 10, 7, 81
14, 35152, Control_c, 10, 7, 82
14, 35153, Control_c, 10, 7, 83
14, 35154, Control_c, 10, 7, 84
14, 35155, Control_c, 10, 7, 85
14, 35156, Control_c, 10, 7, 86
14, 35157, Control_c, 10, 7, 87
14, 35158, Control_c, 10, 7, 88
14, 35159, Control_c, 10, 7, 89
14, 35160, Control_c, 10, 7, 90
14, 35161, Control_c, 10, 7, 90
14, 35162, Control_c, 10, 7, 91
14, 35163, Control_c, 10, 7, 92
14, 35164, Control_c, 10, 7, 93
14, 35165, Control_c, 10, 7, 94
14, 35166, Control_c, 10, 7, 95
14, 35167, Control_c, 10, 7, 96
14, 35168, Control_c, 10, 7, 97
14, 35169, Control_c, 10, 7, 98
14, 35170, Control_c, 10, 7, 99
14, 35171, Control_c, 10, 7, 100
14, 35172, Control_c, 10, 7, 101
14, 35173, Control_c, 10, 7, 102
14, 35174, Control_c, 10, 7, 103
14, 35175, Control_c, 10, 7, 104
14, 35176, Control_c, 10, 7, 105
14, 35177, Control_c, 10, 7, 106
14, 35178, Control_c, 10, 7, 106
14, 35179, Control_c, 10, 7, 107
14, 35180, Control_c, 10, 7, 108
14, 35181, Control_c, 10, 7, 109
14, 35182, Control_c, 10, 7, 110
14, 35183, Control_c, 10, 7, 111
14, 35184, Note_off_c, 10, 39, 64
14, 35184, Note_off_c, 10, 51, 64
14, 35184, Note_off_c, 10, 27, 64
14, 35184, Control_c, 10, 7, 61
14, 35184, Note_on_c, 10, 39, 127
14, 35184, Note_on_c, 10, 51, 127
14, 35184, Note_on_c, 10, 27, 127
14, 35185, Control_c, 10, 7, 62
14, 35186, Control_c, 10, 7, 63
14, 35187, Control_c, 10, 7, 64
14, 35188, Control_c, 10, 7, 65
14, 35189, Control_c, 10, 7, 66
14, 35190, Control_c, 10, 7, 67
14, 35191, Control_c, 10, 7, 68
14, 35192, Control_c, 10, 7, 70
14, 35193, Control_c, 10, 7, 71
14, 35194, Control_c, 10, 7, 72
14, 35195, Control_c, 10, 7, 73
14, 35196, Control_c, 10, 7, 74
14, 35197, Control_c, 10, 7, 75
14, 35198, Control_c, 10, 7, 76
14, 35199, Control_c, 10, 7, 78
14, 35200, Control_c, 10, 7, 79
14, 35201, Control_c, 10, 7, 80
14, 35202, Control_c, 10, 7, 81
14, 35203, Control_c, 10, 7, 82
14, 35204, Control_c, 10, 7, 83
14, 35205, Control_c, 10, 7, 84
14, 35206, Control_c, 10, 7, 85
14, 35207, Control_c, 10, 7, 87
14, 35208, Control_c, 10, 7, 88
14, 35209, Control_c, 10, 7, 89
14, 35210, Control_c, 10, 7, 90
14, 35211, Control_c, 10, 7, 91
14, 35212, Control_c, 10, 7, 92
14, 35213, Control_c, 10, 7, 93
14, 35214, Control_c, 10, 7, 95
14, 35215, Control_c, 10, 7, 96
14, 35216, Control_c, 10, 7, 97
14, 35217, Control_c, 10, 7, 98
14, 35218, Control_c, 10, 7, 99
14, 35219, Control_c, 10, 7, 100
14, 35220, Control_c, 10, 7, 101
14, 35221, Control_c, 10, 7, 102
14, 35222, Control_c, 10, 7, 104
14, 35223, Control_c, 10, 7, 105
14, 35224, Control_c, 10, 7, 106
14, 35225, Control_c, 10, 7, 107
14, 35226, Control_c, 10, 7, 108
14, 35227, Control_c, 10, 7, 110
14, 35228, Control_c, 10, 7, 111
14, 35229, Control_c, 10, 7, 112
14, 35230, Control_c, 10, 7, 113
14, 35231, Control_c, 10, 7, 114
14, 35232, Note_off_c, 10, 39, 64
14, 35232, Note_off_c, 10, 27, 64
14, 35232, Note_off_c, 10, 51, 64
14, 35232, Control_c, 10, 7, 65
14, 35232, Note_on_c, 10, 39, 127
14, 35232, Note_on_c, 10, 51, 127
14, 35232, Note_on_c, 10, 27, 127
14, 35233, Control_c, 10, 7, 66
14, 35234, Control_c, 10, 7, 67
14, 35235, Control_c, 10, 7, 68
14, 35236, Control_c, 10, 7, 70
14, 35237, Control_c, 10, 7, 71
14, 35238, Control_c, 10, 7, 72
14, 35239, Control_c, 10, 7, 73
14, 35240, Control_c, 10, 7, 74
14, 35241, Control_c, 10, 7, 75
14, 35242, Control_c, 10, 7, 76
14, 35243, Control_c, 10, 7, 77
14, 35244, Control_c, 10, 7, 78
14, 35245, Control_c, 10, 7, 79
14, 35246, Control_c, 10, 7, 80
14, 35247, Control_c, 10, 7, 81
14, 35248, Control_c, 10, 7, 82
14, 35249, Control_c, 10, 7, 83
14, 35250, Control_c, 10, 7, 84
14, 35251, Control_c, 10, 7, 85
14, 35252, Control_c, 10, 7, 86
14, 35253, Control_c, 10, 7, 88
14, 35254, Control_c, 10, 7, 89
14, 35255, Control_c, 10, 7, 90
14, 35256, Control_c, 10, 7, 91
14, 35257, Control_c, 10, 7, 92
14, 35258, Control_c, 10, 7, 93
14, 35259, Control_c, 10, 7, 94
14, 35260, Control_c, 10, 7, 95
14, 35261, Control_c, 10, 7, 96
14, 35262, Control_c, 10, 7, 97
14, 35263, Control_c, 10, 7, 98
14, 35264, Control_c, 10, 7, 99
14, 35265, Control_c, 10, 7, 100
14, 35266, Control_c, 10, 7, 101
14, 35267, Control_c, 10, 7, 102
14, 35268, Control_c, 10, 7, 103
14, 35269, Control_c, 10, 7, 105
14, 35270, Control_c, 10, 7, 106
14, 35271, Control_c, 10, 7, 107
14, 35272, Control_c, 10, 7, 108
14, 35273, Control_c, 10, 7, 109
14, 35274, Control_c, 10, 7, 109
14, 35275, Control_c, 10, 7, 110
14, 35276, Control_c, 10, 7, 112
14, 35277, Control_c, 10, 7, 113
14, 35278, Control_c, 10, 7, 114
14, 35279, Control_c, 10, 7, 115
14, 35280, Note_off_c, 10, 51, 64
14, 35280, Note_off_c, 10, 27, 64
14, 35280, Note_off_c, 10, 39, 64
14, 35280, Control_c, 10, 7, 67
14, 35280, Note_on_c, 10, 39, 127
14, 35280, Note_on_c, 10, 51, 127
14, 35280, Note_on_c, 10, 27, 127
14, 35281, Control_c, 10, 7, 68
14, 35282, Control_c, 10, 7, 69
14, 35283, Control_c, 10, 7, 70
14, 35284, Control_c, 10, 7, 71
14, 35285, Control_c, 10, 7, 71
14, 35286, Control_c, 10, 7, 72
14, 35287, Control_c, 10, 7, 73
14, 35288, Control_c, 10, 7, 74
14, 35289, Control_c, 10, 7, 75
14, 35290, Control_c, 10, 7, 76
14, 35291, Control_c, 10, 7, 77
14, 35292, Control_c, 10, 7, 78
14, 35293, Control_c, 10, 7, 79
14, 35294, Control_c, 10, 7, 80
14, 35295, Control_c, 10, 7, 81
14, 35296, Control_c, 10, 7, 82
14, 35297, Control_c, 10, 7, 83
14, 35298, Control_c, 10, 7, 84
14, 35299, Control_c, 10, 7, 85
14, 35300, Control_c, 10, 7, 86
14, 35301, Control_c, 10, 7, 87
14, 35302, Control_c, 10, 7, 88
14, 35303, Control_c, 10, 7, 89
14, 35304, Control_c, 10, 7, 90
14, 35305, Control_c, 10, 7, 91
14, 35306, Control_c, 10, 7, 92
14, 35307, Control_c, 10, 7, 93
14, 35308, Control_c, 10, 7, 94
14, 35309, Control_c, 10, 7, 95
14, 35310, Control_c, 10, 7, 96
14, 35311, Control_c, 10, 7, 97
14, 35312, Control_c, 10, 7, 98
14, 35313, Control_c, 10, 7, 99
14, 35314, Control_c, 10, 7, 100
14, 35315, Control_c, 10, 7, 101
14, 35316, Control_c, 10, 7, 102
14, 35317, Control_c, 10, 7, 103
14, 35318, Control_c, 10, 7, 104
14, 35319, Control_c, 10, 7, 104
14, 35320, Control_c, 10, 7, 105
14, 35321, Control_c, 10, 7, 106
14, 35322, Control_c, 10, 7, 107
14, 35323, Control_c, 10, 7, 108
14, 35324, Control_c, 10, 7, 109
14, 35325, Control_c, 10, 7, 110
14, 35326, Control_c, 10, 7, 111
14, 35327, Control_c, 10, 7, 112
14, 35328, Note_off_c, 10, 39, 64
14, 35328, Note_off_c, 10, 27, 64
14, 35328, Note_off_c, 10, 51, 64
14, 35328, Control_c, 10, 7, 50
14, 35328, Note_on_c, 10, 41, 127
14, 35328, Note_on_c, 10, 29, 127
14, 35328, Note_on_c, 10, 53, 127
14, 35330, Control_c, 10, 7, 50
14, 35331, Control_c, 10, 7, 51
14, 35332, Control_c, 10, 7, 51
14, 35333, Control_c, 10, 7, 52
14, 35334, Control_c, 10, 7, 52
14, 35335, Control_c, 10, 7, 52
14, 35336, Control_c, 10, 7, 53
14, 35337, Control_c, 10, 7, 53
14, 35338, Control_c, 10, 7, 54
14, 35339, Control_c, 10, 7, 54
14, 35340, Control_c, 10, 7, 54
14, 35341, Control_c, 10, 7, 55
14, 35342, Control_c, 10, 7, 55
14, 35343, Control_c, 10, 7, 55
14, 35344, Control_c, 10, 7, 56
14, 35345, Control_c, 10, 7, 56
14, 35346, Control_c, 10, 7, 57
14, 35347, Control_c, 10, 7, 57
14, 35348, Control_c, 10, 7, 57
14, 35349, Control_c, 10, 7, 58
14, 35350, Control_c, 10, 7, 58
14, 35351, Control_c, 10, 7, 59
14, 35352, Control_c, 10, 7, 59
14, 35353, Control_c, 10, 7, 59
14, 35354, Control_c, 10, 7, 60
14, 35355, Control_c, 10, 7, 60
14, 35356, Control_c, 10, 7, 61
14, 35357, Control_c, 10, 7, 61
14, 35358, Control_c, 10, 7, 61
14, 35359, Control_c, 10, 7, 62
14, 35360, Control_c, 10, 7, 62
14, 35361, Control_c, 10, 7, 62
14, 35362, Control_c, 10, 7, 63
14, 35363, Control_c, 10, 7, 63
14, 35364, Control_c, 10, 7, 64
14, 35365, Control_c, 10, 7, 64
14, 35366, Control_c, 10, 7, 64
14, 35367, Control_c, 10, 7, 65
14, 35368, Control_c, 10, 7, 65
14, 35369, Control_c, 10, 7, 66
14, 35370, Control_c, 10, 7, 66
14, 35371, Control_c, 10, 7, 66
14, 35372, Control_c, 10, 7, 67
14, 35373, Control_c, 10, 7, 67
14, 35374, Control_c, 10, 7, 68
14, 35375, Control_c, 10, 7, 68
14, 35376, Control_c, 10, 7, 68
14, 35377, Control_c, 10, 7, 69
14, 35378, Control_c, 10, 7, 69
14, 35379, Control_c, 10, 7, 69
14, 35380, Control_c, 10, 7, 70
14, 35381, Control_c, 10, 7, 70
14, 35382, Control_c, 10, 7, 71
14, 35383, Control_c, 10, 7, 71
14, 35384, Control_c, 10, 7, 71
14, 35385, Control_c, 10, 7, 72
14, 35386, Control_c, 10, 7, 72
14, 35387, Control_c, 10, 7, 73
14, 35388, Control_c, 10, 7, 73
14, 35389, Control_c, 10, 7, 73
14, 35390, Control_c, 10, 7, 74
14, 35391, Control_c, 10, 7, 74
14, 35392, Control_c, 10, 7, 75
14, 35393, Control_c, 10, 7, 75
14, 35394, Control_c, 10, 7, 75
14, 35395, Control_c, 10, 7, 76
14, 35396, Control_c, 10, 7, 76
14, 35397, Control_c, 10, 7, 76
14, 35398, Control_c, 10, 7, 77
14, 35399, Control_c, 10, 7, 77
14, 35400, Control_c, 10, 7, 78
14, 35401, Control_c, 10, 7, 78
14, 35402, Control_c, 10, 7, 78
14, 35403, Control_c, 10, 7, 79
14, 35404, Control_c, 10, 7, 79
14, 35405, Control_c, 10, 7, 80
14, 35406, Control_c, 10, 7, 80
14, 35407, Control_c, 10, 7, 80
14, 35408, Control_c, 10, 7, 81
14, 35409, Control_c, 10, 7, 81
14, 35410, Control_c, 10, 7, 82
14, 35411, Control_c, 10, 7, 82
14, 35412, Control_c, 10, 7, 82
14, 35413, Control_c, 10, 7, 83
14, 35414, Control_c, 10, 7, 83
14, 35415, Control_c, 10, 7, 83
14, 35416, Control_c, 10, 7, 84
14, 35417, Control_c, 10, 7, 84
14, 35418, Control_c, 10, 7, 85
14, 35419, Control_c, 10, 7, 85
14, 35420, Control_c, 10, 7, 85
14, 35421, Control_c, 10, 7, 86
14, 35422, Control_c, 10, 7, 86
14, 35423, Control_c, 10, 7, 87
14, 35424, Control_c, 10, 7, 87
14, 35425, Control_c, 10, 7, 87
14, 35426, Control_c, 10, 7, 88
14, 35427, Control_c, 10, 7, 88
14, 35428, Control_c, 10, 7, 89
14, 35429, Control_c, 10, 7, 89
14, 35430, Control_c, 10, 7, 89
14, 35431, Control_c, 10, 7, 90
14, 35432, Control_c, 10, 7, 90
14, 35433, Control_c, 10, 7, 90
14, 35434, Control_c, 10, 7, 91
14, 35435, Control_c, 10, 7, 91
14, 35436, Control_c, 10, 7, 92
14, 35437, Control_c, 10, 7, 92
14, 35438, Control_c, 10, 7, 92
14, 35439, Control_c, 10, 7, 93
14, 35440, Control_c, 10, 7, 93
14, 35441, Control_c, 10, 7, 94
14, 35442, Control_c, 10, 7, 94
14, 35443, Control_c, 10, 7, 94
14, 35444, Control_c, 10, 7, 95
14, 35445, Control_c, 10, 7, 95
14, 35446, Control_c, 10, 7, 96
14, 35447, Control_c, 10, 7, 96
14, 35448, Control_c, 10, 7, 96
14, 35449, Control_c, 10, 7, 97
14, 35450, Control_c, 10, 7, 97
14, 35451, Control_c, 10, 7, 97
14, 35452, Control_c, 10, 7, 98
14, 35453, Control_c, 10, 7, 98
14, 35454, Control_c, 10, 7, 99
14, 35455, Control_c, 10, 7, 99
14, 35456, Control_c, 10, 7, 99
14, 35457, Control_c, 10, 7, 100
14, 35458, Control_c, 10, 7, 100
14, 35459, Control_c, 10, 7, 101
14, 35460, Control_c, 10, 7, 101
14, 35461, Control_c, 10, 7, 101
14, 35462, Control_c, 10, 7, 102
14, 35463, Control_c, 10, 7, 102
14, 35464, Control_c, 10, 7, 103
14, 35465, Control_c, 10, 7, 103
14, 35466, Control_c, 10, 7, 103
14, 35467, Control_c, 10, 7, 104
14, 35468, Control_c, 10, 7, 104
14, 35469, Control_c, 10, 7, 104
14, 35470, Control_c, 10, 7, 105
14, 35471, Control_c, 10, 7, 105
14, 35472, Note_off_c, 10, 29, 64
14, 35472, Note_off_c, 10, 41, 64
14, 35472, Note_off_c, 10, 53, 64
14, 35472, Control_c, 10, 7, 54
14, 35472, Note_on_c, 10, 43, 127
14, 35472, Note_on_c, 10, 31, 127
14, 35472, Note_on_c, 10, 55, 127
14, 35473, Control_c, 10, 7, 55
14, 35474, Control_c, 10, 7, 55
14, 35475, Control_c, 10, 7, 56
14, 35476, Control_c, 10, 7, 57
14, 35477, Control_c, 10, 7, 57
14, 35478, Control_c, 10, 7, 57
14, 35479, Control_c, 10, 7, 58
14, 35480, Control_c, 10, 7, 58
14, 35481, Control_c, 10, 7, 58
14, 35482, Control_c, 10, 7, 59
14, 35483, Control_c, 10, 7, 59
14, 35484, Control_c, 10, 7, 59
14, 35485, Control_c, 10, 7, 60
14, 35486, Control_c, 10, 7, 60
14, 35487, Control_c, 10, 7, 61
14, 35488, Control_c, 10, 7, 61
14, 35489, Control_c, 10, 7, 61
14, 35490, Control_c, 10, 7, 62
14, 35491, Control_c, 10, 7, 62
14, 35492, Control_c, 10, 7, 62
14, 35493, Control_c, 10, 7, 63
14, 35494, Control_c, 10, 7, 63
14, 35495, Control_c, 10, 7, 63
14, 35496, Control_c, 10, 7, 63
14, 35497, Control_c, 10, 7, 64
14, 35498, Control_c, 10, 7, 64
14, 35499, Control_c, 10, 7, 65
14, 35500, Control_c, 10, 7, 65
14, 35501, Control_c, 10, 7, 65
14, 35502, Control_c, 10, 7, 66
14, 35503, Control_c, 10, 7, 66
14, 35504, Control_c, 10, 7, 66
14, 35505, Control_c, 10, 7, 67
14, 35506, Control_c, 10, 7, 67
14, 35507, Control_c, 10, 7, 68
14, 35508, Control_c, 10, 7, 68
14, 35509, Control_c, 10, 7, 68
14, 35510, Control_c, 10, 7, 69
14, 35511, Control_c, 10, 7, 69
14, 35512, Control_c, 10, 7, 69
14, 35513, Control_c, 10, 7, 70
14, 35514, Control_c, 10, 7, 70
14, 35515, Control_c, 10, 7, 71
14, 35516, Control_c, 10, 7, 71
14, 35517, Control_c, 10, 7, 71
14, 35518, Control_c, 10, 7, 72
14, 35519, Control_c, 10, 7, 72
14, 35520, Control_c, 10, 7, 73
14, 35521, Control_c, 10, 7, 73
14, 35522, Control_c, 10, 7, 73
14, 35523, Control_c, 10, 7, 74
14, 35524, Control_c, 10, 7, 74
14, 35525, Control_c, 10, 7, 74
14, 35526, Control_c, 10, 7, 75
14, 35527, Control_c, 10, 7, 75
14, 35528, Control_c, 10, 7, 76
14, 35529, Control_c, 10, 7, 76
14, 35530, Control_c, 10, 7, 76
14, 35531, Control_c, 10, 7, 77
14, 35532, Control_c, 10, 7, 77
14, 35533, Control_c, 10, 7, 77
14, 35534, Control_c, 10, 7, 78
14, 35535, Control_c, 10, 7, 78
14, 35536, Control_c, 10, 7, 79
14, 35537, Control_c, 10, 7, 79
14, 35538, Control_c, 10, 7, 79
14, 35539, Control_c, 10, 7, 80
14, 35540, Control_c, 10, 7, 80
14, 35541, Control_c, 10, 7, 80
14, 35542, Control_c, 10, 7, 81
14, 35543, Control_c, 10, 7, 81
14, 35544, Control_c, 10, 7, 82
14, 35545, Control_c, 10, 7, 82
14, 35546, Control_c, 10, 7, 82
14, 35547, Control_c, 10, 7, 83
14, 35548, Control_c, 10, 7, 83
14, 35549, Control_c, 10, 7, 84
14, 35550, Control_c, 10, 7, 84
14, 35551, Control_c, 10, 7, 84
14, 35552, Control_c, 10, 7, 85
14, 35553, Control_c, 10, 7, 85
14, 35554, Control_c, 10, 7, 85
14, 35555, Control_c, 10, 7, 86
14, 35556, Control_c, 10, 7, 86
14, 35557, Control_c, 10, 7, 87
14, 35558, Control_c, 10, 7, 87
14, 35559, Control_c, 10, 7, 87
14, 35560, Control_c, 10, 7, 88
14, 35561, Control_c, 10, 7, 88
14, 35562, Control_c, 10, 7, 88
14, 35563, Control_c, 10, 7, 89
14, 35564, Control_c, 10, 7, 89
14, 35565, Control_c, 10, 7, 90
14, 35566, Control_c, 10, 7, 90
14, 35567, Control_c, 10, 7, 90
14, 35568, Control_c, 10, 7, 91
14, 35569, Control_c, 10, 7, 91
14, 35570, Control_c, 10, 7, 92
14, 35571, Control_c, 10, 7, 92
14, 35572, Control_c, 10, 7, 92
14, 35573, Control_c, 10, 7, 93
14, 35574, Control_c, 10, 7, 93
14, 35575, Control_c, 10, 7, 93
14, 35576, Control_c, 10, 7, 94
14, 35577, Control_c, 10, 7, 94
14, 35578, Control_c, 10, 7, 95
14, 35579, Control_c, 10, 7, 95
14, 35580, Control_c, 10, 7, 95
14, 35581, Control_c, 10, 7, 96
14, 35582, Control_c, 10, 7, 96
14, 35583, Control_c, 10, 7, 96
14, 35584, Control_c, 10, 7, 97
14, 35585, Control_c, 10, 7, 97
14, 35586, Control_c, 10, 7, 98
14, 35587, Control_c, 10, 7, 98
14, 35588, Control_c, 10, 7, 98
14, 35589, Control_c, 10, 7, 99
14, 35590, Control_c, 10, 7, 99
14, 35591, Control_c, 10, 7, 99
14, 35592, Control_c, 10, 7, 100
14, 35593, Control_c, 10, 7, 100
14, 35594, Control_c, 10, 7, 101
14, 35595, Control_c, 10, 7, 101
14, 35596, Control_c, 10, 7, 101
14, 35597, Control_c, 10, 7, 102
14, 35598, Control_c, 10, 7, 102
14, 35599, Control_c, 10, 7, 103
14, 35600, Control_c, 10, 7, 103
14, 35601, Control_c, 10, 7, 103
14, 35602, Control_c, 10, 7, 104
14, 35603, Control_c, 10, 7, 104
14, 35604, Control_c, 10, 7, 104
14, 35605, Control_c, 10, 7, 105
14, 35606, Control_c, 10, 7, 105
14, 35607, Control_c, 10, 7, 106
14, 35608, Control_c, 10, 7, 106
14, 35609, Control_c, 10, 7, 106
14, 35610, Control_c, 10, 7, 107
14, 35611, Control_c, 10, 7, 107
14, 35612, Control_c, 10, 7, 107
14, 35613, Control_c, 10, 7, 108
14, 35614, Control_c, 10, 7, 108
14, 35615, Control_c, 10, 7, 109
14, 35616, Note_off_c, 10, 43, 64
14, 35616, Note_off_c, 10, 31, 64
14, 35616, Note_off_c, 10, 55, 64
14, 35616, Control_c, 10, 7, 108
14, 35616, Note_on_c, 10, 39, 127
14, 35616, Note_on_c, 10, 27, 127
14, 35616, Note_on_c, 10, 51, 127
14, 35617, Control_c, 10, 7, 108
14, 35618, Control_c, 10, 7, 107
14, 35619, Control_c, 10, 7, 107
14, 35620, Control_c, 10, 7, 106
14, 35621, Control_c, 10, 7, 106
14, 35622, Control_c, 10, 7, 105
14, 35623, Control_c, 10, 7, 105
14, 35624, Control_c, 10, 7, 105
14, 35625, Control_c, 10, 7, 104
14, 35626, Control_c, 10, 7, 104
14, 35627, Control_c, 10, 7, 103
14, 35628, Control_c, 10, 7, 103
14, 35629, Control_c, 10, 7, 102
14, 35630, Control_c, 10, 7, 102
14, 35631, Control_c, 10, 7, 101
14, 35632, Control_c, 10, 7, 101
14, 35633, Control_c, 10, 7, 100
14, 35634, Control_c, 10, 7, 100
14, 35635, Control_c, 10, 7, 99
14, 35636, Control_c, 10, 7, 99
14, 35637, Control_c, 10, 7, 98
14, 35638, Control_c, 10, 7, 98
14, 35639, Control_c, 10, 7, 97
14, 35640, Control_c, 10, 7, 97
14, 35641, Control_c, 10, 7, 96
14, 35642, Control_c, 10, 7, 96
14, 35643, Control_c, 10, 7, 95
14, 35644, Control_c, 10, 7, 95
14, 35645, Control_c, 10, 7, 94
14, 35646, Control_c, 10, 7, 94
14, 35647, Control_c, 10, 7, 93
14, 35648, Control_c, 10, 7, 93
14, 35649, Control_c, 10, 7, 92
14, 35650, Control_c, 10, 7, 92
14, 35651, Control_c, 10, 7, 91
14, 35652, Control_c, 10, 7, 91
14, 35653, Control_c, 10, 7, 90
14, 35654, Control_c, 10, 7, 90
14, 35655, Control_c, 10, 7, 89
14, 35656, Control_c, 10, 7, 89
14, 35657, Control_c, 10, 7, 88
14, 35658, Control_c, 10, 7, 88
14, 35659, Control_c, 10, 7, 87
14, 35660, Control_c, 10, 7, 87
14, 35661, Control_c, 10, 7, 86
14, 35662, Control_c, 10, 7, 86
14, 35663, Control_c, 10, 7, 85
14, 35664, Control_c, 10, 7, 85
14, 35665, Control_c, 10, 7, 84
14, 35666, Control_c, 10, 7, 84
14, 35667, Control_c, 10, 7, 83
14, 35668, Control_c, 10, 7, 83
14, 35669, Control_c, 10, 7, 82
14, 35670, Control_c, 10, 7, 82
14, 35671, Control_c, 10, 7, 81
14, 35672, Control_c, 10, 7, 81
14, 35673, Control_c, 10, 7, 80
14, 35674, Control_c, 10, 7, 80
14, 35675, Control_c, 10, 7, 79
14, 35676, Control_c, 10, 7, 79
14, 35677, Control_c, 10, 7, 78
14, 35678, Control_c, 10, 7, 78
14, 35679, Control_c, 10, 7, 77
14, 35680, Control_c, 10, 7, 77
14, 35681, Control_c, 10, 7, 76
14, 35682, Control_c, 10, 7, 76
14, 35683, Control_c, 10, 7, 75
14, 35684, Control_c, 10, 7, 75
14, 35685, Control_c, 10, 7, 74
14, 35686, Control_c, 10, 7, 74
14, 35687, Control_c, 10, 7, 73
14, 35688, Control_c, 10, 7, 73
14, 35689, Control_c, 10, 7, 72
14, 35690, Control_c, 10, 7, 72
14, 35691, Control_c, 10, 7, 71
14, 35692, Control_c, 10, 7, 71
14, 35693, Control_c, 10, 7, 70
14, 35694, Control_c, 10, 7, 70
14, 35695, Control_c, 10, 7, 69
14, 35696, Control_c, 10, 7, 69
14, 35697, Control_c, 10, 7, 68
14, 35698, Control_c, 10, 7, 68
14, 35699, Control_c, 10, 7, 67
14, 35700, Control_c, 10, 7, 67
14, 35701, Control_c, 10, 7, 66
14, 35702, Control_c, 10, 7, 66
14, 35703, Control_c, 10, 7, 65
14, 35704, Control_c, 10, 7, 65
14, 35705, Control_c, 10, 7, 64
14, 35706, Control_c, 10, 7, 64
14, 35707, Control_c, 10, 7, 63
14, 35708, Control_c, 10, 7, 63
14, 35709, Control_c, 10, 7, 62
14, 35710, Control_c, 10, 7, 62
14, 35711, Control_c, 10, 7, 61
14, 35712, Control_c, 10, 7, 61
14, 35760, Note_off_c, 10, 27, 64
14, 35760, Note_off_c, 10, 51, 64
14, 35760, Note_off_c, 10, 39, 64
14, 35760, Control_c, 10, 7, 102
14, 35760, Note_on_c, 10, 39, 127
14, 35760, Note_on_c, 10, 27, 127
14, 35760, Note_on_c, 10, 51, 127
14, 35761, Control_c, 10, 7, 102
14, 35762, Control_c, 10, 7, 101
14, 35763, Control_c, 10, 7, 100
14, 35764, Control_c, 10, 7, 99
14, 35765, Control_c, 10, 7, 98
14, 35766, Control_c, 10, 7, 97
14, 35767, Control_c, 10, 7, 96
14, 35768, Control_c, 10, 7, 95
14, 35769, Control_c, 10, 7, 95
14, 35770, Control_c, 10, 7, 94
14, 35771, Control_c, 10, 7, 93
14, 35772, Control_c, 10, 7, 92
14, 35773, Control_c, 10, 7, 91
14, 35774, Control_c, 10, 7, 90
14, 35775, Control_c, 10, 7, 89
14, 35776, Control_c, 10, 7, 88
14, 35777, Control_c, 10, 7, 87
14, 35778, Control_c, 10, 7, 87
14, 35779, Control_c, 10, 7, 86
14, 35780, Control_c, 10, 7, 85
14, 35781, Control_c, 10, 7, 84
14, 35782, Control_c, 10, 7, 83
14, 35783, Control_c, 10, 7, 82
14, 35784, Control_c, 10, 7, 81
14, 35785, Control_c, 10, 7, 80
14, 35786, Control_c, 10, 7, 80
14, 35787, Control_c, 10, 7, 79
14, 35788, Control_c, 10, 7, 78
14, 35789, Control_c, 10, 7, 77
14, 35790, Control_c, 10, 7, 76
14, 35791, Control_c, 10, 7, 75
14, 35792, Control_c, 10, 7, 74
14, 35793, Control_c, 10, 7, 73
14, 35794, Control_c, 10, 7, 73
14, 35795, Control_c, 10, 7, 72
14, 35796, Control_c, 10, 7, 71
14, 35797, Control_c, 10, 7, 70
14, 35798, Control_c, 10, 7, 69
14, 35799, Control_c, 10, 7, 68
14, 35800, Control_c, 10, 7, 67
14, 35801, Control_c, 10, 7, 66
14, 35802, Control_c, 10, 7, 66
14, 35803, Control_c, 10, 7, 65
14, 35804, Control_c, 10, 7, 64
14, 35805, Control_c, 10, 7, 63
14, 35806, Control_c, 10, 7, 62
14, 35807, Control_c, 10, 7, 61
14, 35808, Note_off_c, 10, 51, 64
14, 35808, Note_off_c, 10, 27, 64
14, 35808, Note_off_c, 10, 39, 64
14, 35808, Control_c, 10, 7, 102
14, 35808, Note_on_c, 10, 39, 127
14, 35808, Note_on_c, 10, 27, 127
14, 35808, Note_on_c, 10, 51, 127
14, 35809, Control_c, 10, 7, 102
14, 35810, Control_c, 10, 7, 101
14, 35811, Control_c, 10, 7, 100
14, 35812, Control_c, 10, 7, 99
14, 35813, Control_c, 10, 7, 98
14, 35814, Control_c, 10, 7, 97
14, 35815, Control_c, 10, 7, 96
14, 35816, Control_c, 10, 7, 96
14, 35817, Control_c, 10, 7, 95
14, 35818, Control_c, 10, 7, 94
14, 35819, Control_c, 10, 7, 93
14, 35820, Control_c, 10, 7, 92
14, 35821, Control_c, 10, 7, 91
14, 35822, Control_c, 10, 7, 91
14, 35823, Control_c, 10, 7, 90
14, 35824, Control_c, 10, 7, 89
14, 35825, Control_c, 10, 7, 88
14, 35826, Control_c, 10, 7, 87
14, 35827, Control_c, 10, 7, 86
14, 35828, Control_c, 10, 7, 85
14, 35829, Control_c, 10, 7, 85
14, 35830, Control_c, 10, 7, 84
14, 35831, Control_c, 10, 7, 83
14, 35832, Control_c, 10, 7, 82
14, 35833, Control_c, 10, 7, 81
14, 35834, Control_c, 10, 7, 80
14, 35835, Control_c, 10, 7, 80
14, 35836, Control_c, 10, 7, 79
14, 35837, Control_c, 10, 7, 78
14, 35838, Control_c, 10, 7, 77
14, 35839, Control_c, 10, 7, 76
14, 35840, Control_c, 10, 7, 75
14, 35841, Control_c, 10, 7, 74
14, 35842, Control_c, 10, 7, 74
14, 35843, Control_c, 10, 7, 73
14, 35844, Control_c, 10, 7, 72
14, 35845, Control_c, 10, 7, 71
14, 35846, Control_c, 10, 7, 70
14, 35847, Control_c, 10, 7, 69
14, 35848, Control_c, 10, 7, 68
14, 35849, Control_c, 10, 7, 68
14, 35850, Control_c, 10, 7, 67
14, 35851, Control_c, 10, 7, 66
14, 35852, Control_c, 10, 7, 65
14, 35853, Control_c, 10, 7, 64
14, 35854, Control_c, 10, 7, 102
14, 35855, Control_c, 10, 7, 102
14, 35856, Note_off_c, 10, 39, 64
14, 35856, Note_off_c, 10, 51, 64
14, 35856, Note_off_c, 10, 27, 64
14, 35856, Control_c, 10, 7, 101
14, 35856, Note_on_c, 10, 39, 127
14, 35856, Note_on_c, 10, 27, 127
14, 35856, Note_on_c, 10, 51, 127
14, 35857, Control_c, 10, 7, 100
14, 35858, Control_c, 10, 7, 99
14, 35859, Control_c, 10, 7, 98
14, 35860, Control_c, 10, 7, 97
14, 35861, Control_c, 10, 7, 97
14, 35862, Control_c, 10, 7, 96
14, 35863, Control_c, 10, 7, 95
14, 35864, Control_c, 10, 7, 94
14, 35865, Control_c, 10, 7, 93
14, 35866, Control_c, 10, 7, 93
14, 35867, Control_c, 10, 7, 92
14, 35868, Control_c, 10, 7, 91
14, 35869, Control_c, 10, 7, 90
14, 35870, Control_c, 10, 7, 89
14, 35871, Control_c, 10, 7, 88
14, 35872, Control_c, 10, 7, 88
14, 35873, Control_c, 10, 7, 87
14, 35874, Control_c, 10, 7, 86
14, 35875, Control_c, 10, 7, 85
14, 35876, Control_c, 10, 7, 84
14, 35877, Control_c, 10, 7, 84
14, 35878, Control_c, 10, 7, 83
14, 35879, Control_c, 10, 7, 82
14, 35880, Control_c, 10, 7, 81
14, 35881, Control_c, 10, 7, 80
14, 35882, Control_c, 10, 7, 79
14, 35883, Control_c, 10, 7, 79
14, 35884, Control_c, 10, 7, 78
14, 35885, Control_c, 10, 7, 77
14, 35886, Control_c, 10, 7, 76
14, 35887, Control_c, 10, 7, 75
14, 35888, Control_c, 10, 7, 75
14, 35889, Control_c, 10, 7, 74
14, 35890, Control_c, 10, 7, 73
14, 35891, Control_c, 10, 7, 72
14, 35892, Control_c, 10, 7, 71
14, 35893, Control_c, 10, 7, 70
14, 35894, Control_c, 10, 7, 70
14, 35895, Control_c, 10, 7, 69
14, 35896, Control_c, 10, 7, 68
14, 35897, Control_c, 10, 7, 67
14, 35898, Control_c, 10, 7, 66
14, 35899, Control_c, 10, 7, 66
14, 35900, Control_c, 10, 7, 65
14, 35901, Control_c, 10, 7, 64
14, 35902, Control_c, 10, 7, 63
14, 35903, Control_c, 10, 7, 62
14, 35904, Note_off_c, 10, 27, 64
14, 35904, Note_off_c, 10, 51, 64
14, 35904, Note_off_c, 10, 39, 64
14, 35904, Control_c, 10, 7, 102
14, 35904, Note_on_c, 10, 39, 127
14, 35904, Note_on_c, 10, 27, 127
14, 35904, Note_on_c, 10, 51, 127
14, 35905, Control_c, 10, 7, 102
14, 35906, Control_c, 10, 7, 101
14, 35907, Control_c, 10, 7, 100
14, 35908, Control_c, 10, 7, 99
14, 35909, Control_c, 10, 7, 98
14, 35910, Control_c, 10, 7, 97
14, 35911, Control_c, 10, 7, 96
14, 35912, Control_c, 10, 7, 95
14, 35913, Control_c, 10, 7, 94
14, 35914, Control_c, 10, 7, 94
14, 35915, Control_c, 10, 7, 93
14, 35916, Control_c, 10, 7, 92
14, 35917, Control_c, 10, 7, 91
14, 35918, Control_c, 10, 7, 90
14, 35919, Control_c, 10, 7, 89
14, 35920, Control_c, 10, 7, 88
14, 35921, Control_c, 10, 7, 87
14, 35922, Control_c, 10, 7, 86
14, 35923, Control_c, 10, 7, 86
14, 35924, Control_c, 10, 7, 85
14, 35925, Control_c, 10, 7, 84
14, 35926, Control_c, 10, 7, 83
14, 35927, Control_c, 10, 7, 82
14, 35928, Control_c, 10, 7, 81
14, 35929, Control_c, 10, 7, 80
14, 35930, Control_c, 10, 7, 79
14, 35931, Control_c, 10, 7, 78
14, 35932, Control_c, 10, 7, 78
14, 35933, Control_c, 10, 7, 77
14, 35934, Control_c, 10, 7, 76
14, 35935, Control_c, 10, 7, 75
14, 35936, Control_c, 10, 7, 74
14, 35937, Control_c, 10, 7, 73
14, 35938, Control_c, 10, 7, 72
14, 35939, Control_c, 10, 7, 71
14, 35940, Control_c, 10, 7, 70
14, 35941, Control_c, 10, 7, 69
14, 35942, Control_c, 10, 7, 69
14, 35943, Control_c, 10, 7, 68
14, 35944, Control_c, 10, 7, 67
14, 35945, Control_c, 10, 7, 66
14, 35946, Control_c, 10, 7, 65
14, 35947, Control_c, 10, 7, 64
14, 35948, Control_c, 10, 7, 63
14, 35949, Control_c, 10, 7, 62
14, 35950, Control_c, 10, 7, 61
14, 35951, Control_c, 10, 7, 61
14, 35952, Note_off_c, 10, 51, 64
14, 35952, Note_off_c, 10, 27, 64
14, 35952, Note_off_c, 10, 39, 64
14, 35952, Note_on_c, 10, 39, 127
14, 35952, Note_on_c, 10, 27, 127
14, 35952, Note_on_c, 10, 51, 127
14, 35953, Control_c, 10, 7, 103
14, 35954, Control_c, 10, 7, 102
14, 35955, Control_c, 10, 7, 101
14, 35956, Control_c, 10, 7, 100
14, 35957, Control_c, 10, 7, 99
14, 35958, Control_c, 10, 7, 99
14, 35959, Control_c, 10, 7, 98
14, 35960, Control_c, 10, 7, 97
14, 35961, Control_c, 10, 7, 96
14, 35962, Control_c, 10, 7, 95
14, 35963, Control_c, 10, 7, 94
14, 35964, Control_c, 10, 7, 93
14, 35965, Control_c, 10, 7, 93
14, 35966, Control_c, 10, 7, 92
14, 35967, Control_c, 10, 7, 91
14, 35968, Control_c, 10, 7, 90
14, 35969, Control_c, 10, 7, 89
14, 35970, Control_c, 10, 7, 88
14, 35971, Control_c, 10, 7, 87
14, 35972, Control_c, 10, 7, 87
14, 35973, Control_c, 10, 7, 86
14, 35974, Control_c, 10, 7, 85
14, 35975, Control_c, 10, 7, 84
14, 35976, Control_c, 10, 7, 83
14, 35977, Control_c, 10, 7, 82
14, 35978, Control_c, 10, 7, 81
14, 35979, Control_c, 10, 7, 81
14, 35980, Control_c, 10, 7, 80
14, 35981, Control_c, 10, 7, 79
14, 35982, Control_c, 10, 7, 78
14, 35983, Control_c, 10, 7, 77
14, 35984, Control_c, 10, 7, 76
14, 35985, Control_c, 10, 7, 75
14, 35986, Control_c, 10, 7, 75
14, 35987, Control_c, 10, 7, 74
14, 35988, Control_c, 10, 7, 73
14, 35989, Control_c, 10, 7, 72
14, 35990, Control_c, 10, 7, 71
14, 35991, Control_c, 10, 7, 70
14, 35992, Control_c, 10, 7, 69
14, 35993, Control_c, 10, 7, 69
14, 35994, Control_c, 10, 7, 68
14, 35995, Control_c, 10, 7, 67
14, 35996, Control_c, 10, 7, 66
14, 35997, Control_c, 10, 7, 65
14, 35998, Control_c, 10, 7, 64
14, 35999, Control_c, 10, 7, 64
14, 36000, Note_off_c, 10, 51, 64
14, 36000, Note_off_c, 10, 27, 64
14, 36000, Note_off_c, 10, 39, 64
14, 36000, Note_on_c, 10, 39, 127
14, 36000, Note_on_c, 10, 27, 127
14, 36000, Note_on_c, 10, 51, 127
14, 36001, Control_c, 10, 7, 104
14, 36002, Control_c, 10, 7, 103
14, 36003, Control_c, 10, 7, 102
14, 36004, Control_c, 10, 7, 101
14, 36005, Control_c, 10, 7, 100
14, 36006, Control_c, 10, 7, 99
14, 36007, Control_c, 10, 7, 98
14, 36008, Control_c, 10, 7, 98
14, 36009, Control_c, 10, 7, 97
14, 36010, Control_c, 10, 7, 96
14, 36011, Control_c, 10, 7, 95
14, 36012, Control_c, 10, 7, 94
14, 36013, Control_c, 10, 7, 93
14, 36014, Control_c, 10, 7, 93
14, 36015, Control_c, 10, 7, 92
14, 36016, Control_c, 10, 7, 91
14, 36017, Control_c, 10, 7, 90
14, 36018, Control_c, 10, 7, 89
14, 36019, Control_c, 10, 7, 88
14, 36020, Control_c, 10, 7, 87
14, 36021, Control_c, 10, 7, 87
14, 36022, Control_c, 10, 7, 86
14, 36023, Control_c, 10, 7, 85
14, 36024, Control_c, 10, 7, 84
14, 36025, Control_c, 10, 7, 83
14, 36026, Control_c, 10, 7, 82
14, 36027, Control_c, 10, 7, 82
14, 36028, Control_c, 10, 7, 81
14, 36029, Control_c, 10, 7, 80
14, 36030, Control_c, 10, 7, 79
14, 36031, Control_c, 10, 7, 78
14, 36032, Control_c, 10, 7, 77
14, 36033, Control_c, 10, 7, 76
14, 36034, Control_c, 10, 7, 76
14, 36035, Control_c, 10, 7, 75
14, 36036, Control_c, 10, 7, 74
14, 36037, Control_c, 10, 7, 73
14, 36038, Control_c, 10, 7, 72
14, 36039, Control_c, 10, 7, 71
14, 36040, Control_c, 10, 7, 71
14, 36041, Control_c, 10, 7, 70
14, 36042, Control_c, 10, 7, 69
14, 36043, Control_c, 10, 7, 68
14, 36044, Control_c, 10, 7, 67
14, 36045, Control_c, 10, 7, 66
14, 36046, Control_c, 10, 7, 65
14, 36047, Control_c, 10, 7, 102
14, 36048, Note_off_c, 10, 51, 64
14, 36048, Note_off_c, 10, 27, 64
14, 36048, Note_off_c, 10, 39, 64
14, 36048, Control_c, 10, 7, 102
14, 36048, Note_on_c, 10, 39, 127
14, 36048, Note_on_c, 10, 27, 127
14, 36048, Note_on_c, 10, 51, 127
14, 36049, Control_c, 10, 7, 101
14, 36050, Control_c, 10, 7, 100
14, 36051, Control_c, 10, 7, 99
14, 36052, Control_c, 10, 7, 98
14, 36053, Control_c, 10, 7, 97
14, 36054, Control_c, 10, 7, 96
14, 36055, Control_c, 10, 7, 96
14, 36056, Control_c, 10, 7, 95
14, 36057, Control_c, 10, 7, 94
14, 36058, Control_c, 10, 7, 93
14, 36059, Control_c, 10, 7, 92
14, 36060, Control_c, 10, 7, 91
14, 36061, Control_c, 10, 7, 90
14, 36062, Control_c, 10, 7, 89
14, 36063, Control_c, 10, 7, 89
14, 36064, Control_c, 10, 7, 88
14, 36065, Control_c, 10, 7, 87
14, 36066, Control_c, 10, 7, 86
14, 36067, Control_c, 10, 7, 85
14, 36068, Control_c, 10, 7, 84
14, 36069, Control_c, 10, 7, 83
14, 36070, Control_c, 10, 7, 83
14, 36071, Control_c, 10, 7, 82
14, 36072, Control_c, 10, 7, 81
14, 36073, Control_c, 10, 7, 80
14, 36074, Control_c, 10, 7, 79
14, 36075, Control_c, 10, 7, 78
14, 36076, Control_c, 10, 7, 77
14, 36077, Control_c, 10, 7, 77
14, 36078, Control_c, 10, 7, 76
14, 36079, Control_c, 10, 7, 75
14, 36080, Control_c, 10, 7, 74
14, 36081, Control_c, 10, 7, 73
14, 36082, Control_c, 10, 7, 72
14, 36083, Control_c, 10, 7, 71
14, 36084, Control_c, 10, 7, 71
14, 36085, Control_c, 10, 7, 70
14, 36086, Control_c, 10, 7, 69
14, 36087, Control_c, 10, 7, 68
14, 36088, Control_c, 10, 7, 67
14, 36089, Control_c, 10, 7, 66
14, 36090, Control_c, 10, 7, 65
14, 36091, Control_c, 10, 7, 65
14, 36092, Control_c, 10, 7, 64
14, 36093, Control_c, 10, 7, 63
14, 36096, Note_off_c, 10, 27, 64
14, 36096, Note_off_c, 10, 51, 64
14, 36096, Note_off_c, 10, 39, 64
14, 36096, Control_c, 10, 7, 113
14, 36096, Note_on_c, 10, 39, 127
14, 36096, Note_on_c, 10, 27, 127
14, 36096, Note_on_c, 10, 51, 127
14, 36097, Control_c, 10, 7, 113
14, 36098, Control_c, 10, 7, 112
14, 36099, Control_c, 10, 7, 112
14, 36100, Control_c, 10, 7, 112
14, 36101, Control_c, 10, 7, 111
14, 36102, Control_c, 10, 7, 111
14, 36103, Control_c, 10, 7, 110
14, 36104, Control_c, 10, 7, 110
14, 36105, Control_c, 10, 7, 110
14, 36106, Control_c, 10, 7, 109
14, 36107, Control_c, 10, 7, 109
14, 36108, Control_c, 10, 7, 109
14, 36109, Control_c, 10, 7, 108
14, 36110, Control_c, 10, 7, 108
14, 36111, Control_c, 10, 7, 108
14, 36112, Control_c, 10, 7, 107
14, 36113, Control_c, 10, 7, 107
14, 36114, Control_c, 10, 7, 107
14, 36115, Control_c, 10, 7, 106
14, 36116, Control_c, 10, 7, 106
14, 36117, Control_c, 10, 7, 106
14, 36118, Control_c, 10, 7, 105
14, 36119, Control_c, 10, 7, 105
14, 36120, Control_c, 10, 7, 104
14, 36121, Control_c, 10, 7, 104
14, 36122, Control_c, 10, 7, 104
14, 36123, Control_c, 10, 7, 103
14, 36124, Control_c, 10, 7, 103
14, 36125, Control_c, 10, 7, 103
14, 36126, Control_c, 10, 7, 102
14, 36127, Control_c, 10, 7, 102
14, 36128, Control_c, 10, 7, 102
14, 36129, Control_c, 10, 7, 101
14, 36130, Control_c, 10, 7, 101
14, 36131, Control_c, 10, 7, 101
14, 36132, Control_c, 10, 7, 100
14, 36133, Control_c, 10, 7, 100
14, 36134, Control_c, 10, 7, 100
14, 36135, Control_c, 10, 7, 99
14, 36136, Control_c, 10, 7, 99
14, 36137, Control_c, 10, 7, 98
14, 36138, Control_c, 10, 7, 98
14, 36139, Control_c, 10, 7, 98
14, 36140, Control_c, 10, 7, 97
14, 36141, Control_c, 10, 7, 97
14, 36142, Control_c, 10, 7, 97
14, 36143, Control_c, 10, 7, 96
14, 36144, Control_c, 10, 7, 96
14, 36145, Control_c, 10, 7, 96
14, 36146, Control_c, 10, 7, 95
14, 36147, Control_c, 10, 7, 95
14, 36148, Control_c, 10, 7, 95
14, 36149, Control_c, 10, 7, 94
14, 36150, Control_c, 10, 7, 94
14, 36151, Control_c, 10, 7, 94
14, 36152, Control_c, 10, 7, 93
14, 36153, Control_c, 10, 7, 93
14, 36154, Control_c, 10, 7, 92
14, 36155, Control_c, 10, 7, 92
14, 36156, Control_c, 10, 7, 92
14, 36157, Control_c, 10, 7, 91
14, 36158, Control_c, 10, 7, 91
14, 36159, Control_c, 10, 7, 91
14, 36160, Control_c, 10, 7, 90
14, 36161, Control_c, 10, 7, 90
14, 36162, Control_c, 10, 7, 90
14, 36163, Control_c, 10, 7, 89
14, 36164, Control_c, 10, 7, 89
14, 36165, Control_c, 10, 7, 89
14, 36166, Control_c, 10, 7, 88
14, 36167, Control_c, 10, 7, 88
14, 36168, Control_c, 10, 7, 88
14, 36169, Control_c, 10, 7, 87
14, 36170, Control_c, 10, 7, 87
14, 36171, Control_c, 10, 7, 86
14, 36172, Control_c, 10, 7, 86
14, 36173, Control_c, 10, 7, 86
14, 36174, Control_c, 10, 7, 85
14, 36175, Control_c, 10, 7, 85
14, 36176, Control_c, 10, 7, 85
14, 36177, Control_c, 10, 7, 84
14, 36178, Control_c, 10, 7, 84
14, 36179, Control_c, 10, 7, 84
14, 36180, Control_c, 10, 7, 83
14, 36181, Control_c, 10, 7, 83
14, 36182, Control_c, 10, 7, 83
14, 36183, Control_c, 10, 7, 82
14, 36184, Control_c, 10, 7, 82
14, 36185, Control_c, 10, 7, 82
14, 36186, Control_c, 10, 7, 81
14, 36187, Control_c, 10, 7, 81
14, 36188, Control_c, 10, 7, 80
14, 36189, Control_c, 10, 7, 80
14, 36190, Control_c, 10, 7, 80
14, 36191, Control_c, 10, 7, 79
14, 36192, Control_c, 10, 7, 79
14, 36193, Control_c, 10, 7, 79
14, 36194, Control_c, 10, 7, 78
14, 36195, Control_c, 10, 7, 78
14, 36196, Control_c, 10, 7, 78
14, 36197, Control_c, 10, 7, 77
14, 36198, Control_c, 10, 7, 77
14, 36199, Control_c, 10, 7, 77
14, 36200, Control_c, 10, 7, 76
14, 36201, Control_c, 10, 7, 76
14, 36202, Control_c, 10, 7, 76
14, 36203, Control_c, 10, 7, 75
14, 36204, Control_c, 10, 7, 75
14, 36205, Control_c, 10, 7, 74
14, 36206, Control_c, 10, 7, 74
14, 36207, Control_c, 10, 7, 74
14, 36208, Control_c, 10, 7, 73
14, 36209, Control_c, 10, 7, 73
14, 36210, Control_c, 10, 7, 73
14, 36211, Control_c, 10, 7, 72
14, 36212, Control_c, 10, 7, 72
14, 36213, Control_c, 10, 7, 72
14, 36214, Control_c, 10, 7, 71
14, 36215, Control_c, 10, 7, 71
14, 36216, Control_c, 10, 7, 71
14, 36217, Control_c, 10, 7, 70
14, 36218, Control_c, 10, 7, 70
14, 36219, Control_c, 10, 7, 70
14, 36220, Control_c, 10, 7, 69
14, 36221, Control_c, 10, 7, 69
14, 36222, Control_c, 10, 7, 68
14, 36223, Control_c, 10, 7, 68
14, 36224, Control_c, 10, 7, 68
14, 36225, Control_c, 10, 7, 67
14, 36226, Control_c, 10, 7, 67
14, 36227, Control_c, 10, 7, 67
14, 36228, Control_c, 10, 7, 66
14, 36229, Control_c, 10, 7, 66
14, 36230, Control_c, 10, 7, 66
14, 36231, Control_c, 10, 7, 65
14, 36232, Control_c, 10, 7, 65
14, 36233, Control_c, 10, 7, 65
14, 36234, Control_c, 10, 7, 64
14, 36235, Control_c, 10, 7, 64
14, 36236, Control_c, 10, 7, 64
14, 36237, Control_c, 10, 7, 63
14, 36238, Control_c, 10, 7, 111
14, 36239, Control_c, 10, 7, 111
14, 36240, Note_off_c, 10, 27, 64
14, 36240, Note_off_c, 10, 39, 64
14, 36240, Note_off_c, 10, 51, 64
14, 36240, Control_c, 10, 7, 110
14, 36240, Note_on_c, 10, 39, 127
14, 36240, Note_on_c, 10, 51, 127
14, 36240, Note_on_c, 10, 27, 127
14, 36241, Control_c, 10, 7, 110
14, 36242, Control_c, 10, 7, 110
14, 36243, Control_c, 10, 7, 109
14, 36244, Control_c, 10, 7, 109
14, 36245, Control_c, 10, 7, 109
14, 36246, Control_c, 10, 7, 109
14, 36247, Control_c, 10, 7, 108
14, 36248, Control_c, 10, 7, 108
14, 36249, Control_c, 10, 7, 108
14, 36250, Control_c, 10, 7, 107
14, 36251, Control_c, 10, 7, 107
14, 36252, Control_c, 10, 7, 107
14, 36253, Control_c, 10, 7, 106
14, 36254, Control_c, 10, 7, 106
14, 36255, Control_c, 10, 7, 106
14, 36256, Control_c, 10, 7, 105
14, 36257, Control_c, 10, 7, 105
14, 36258, Control_c, 10, 7, 105
14, 36259, Control_c, 10, 7, 104
14, 36260, Control_c, 10, 7, 104
14, 36261, Control_c, 10, 7, 104
14, 36262, Control_c, 10, 7, 103
14, 36263, Control_c, 10, 7, 103
14, 36264, Control_c, 10, 7, 103
14, 36265, Control_c, 10, 7, 102
14, 36266, Control_c, 10, 7, 102
14, 36267, Control_c, 10, 7, 102
14, 36268, Control_c, 10, 7, 101
14, 36269, Control_c, 10, 7, 101
14, 36270, Control_c, 10, 7, 101
14, 36271, Control_c, 10, 7, 100
14, 36272, Control_c, 10, 7, 100
14, 36273, Control_c, 10, 7, 100
14, 36274, Control_c, 10, 7, 99
14, 36275, Control_c, 10, 7, 99
14, 36276, Control_c, 10, 7, 99
14, 36277, Control_c, 10, 7, 98
14, 36278, Control_c, 10, 7, 98
14, 36279, Control_c, 10, 7, 98
14, 36280, Control_c, 10, 7, 97
14, 36281, Control_c, 10, 7, 97
14, 36282, Control_c, 10, 7, 97
14, 36283, Control_c, 10, 7, 96
14, 36284, Control_c, 10, 7, 96
14, 36285, Control_c, 10, 7, 96
14, 36286, Control_c, 10, 7, 95
14, 36287, Control_c, 10, 7, 95
14, 36288, Control_c, 10, 7, 95
14, 36289, Control_c, 10, 7, 94
14, 36290, Control_c, 10, 7, 94
14, 36291, Control_c, 10, 7, 94
14, 36292, Control_c, 10, 7, 93
14, 36293, Control_c, 10, 7, 93
14, 36294, Control_c, 10, 7, 93
14, 36295, Control_c, 10, 7, 92
14, 36296, Control_c, 10, 7, 92
14, 36297, Control_c, 10, 7, 92
14, 36298, Control_c, 10, 7, 91
14, 36299, Control_c, 10, 7, 91
14, 36300, Control_c, 10, 7, 91
14, 36301, Control_c, 10, 7, 90
14, 36302, Control_c, 10, 7, 90
14, 36303, Control_c, 10, 7, 90
14, 36304, Control_c, 10, 7, 89
14, 36305, Control_c, 10, 7, 89
14, 36306, Control_c, 10, 7, 89
14, 36307, Control_c, 10, 7, 88
14, 36308, Control_c, 10, 7, 88
14, 36309, Control_c, 10, 7, 88
14, 36310, Control_c, 10, 7, 87
14, 36311, Control_c, 10, 7, 87
14, 36312, Control_c, 10, 7, 87
14, 36313, Control_c, 10, 7, 86
14, 36314, Control_c, 10, 7, 86
14, 36315, Control_c, 10, 7, 86
14, 36316, Control_c, 10, 7, 85
14, 36317, Control_c, 10, 7, 85
14, 36318, Control_c, 10, 7, 85
14, 36319, Control_c, 10, 7, 84
14, 36320, Control_c, 10, 7, 84
14, 36321, Control_c, 10, 7, 84
14, 36322, Control_c, 10, 7, 83
14, 36323, Control_c, 10, 7, 83
14, 36324, Control_c, 10, 7, 83
14, 36325, Control_c, 10, 7, 82
14, 36326, Control_c, 10, 7, 82
14, 36327, Control_c, 10, 7, 82
14, 36328, Control_c, 10, 7, 81
14, 36329, Control_c, 10, 7, 81
14, 36330, Control_c, 10, 7, 81
14, 36331, Control_c, 10, 7, 80
14, 36332, Control_c, 10, 7, 80
14, 36333, Control_c, 10, 7, 80
14, 36334, Control_c, 10, 7, 79
14, 36335, Control_c, 10, 7, 79
14, 36336, Control_c, 10, 7, 79
14, 36337, Control_c, 10, 7, 78
14, 36338, Control_c, 10, 7, 78
14, 36339, Control_c, 10, 7, 78
14, 36340, Control_c, 10, 7, 77
14, 36341, Control_c, 10, 7, 77
14, 36342, Control_c, 10, 7, 77
14, 36343, Control_c, 10, 7, 76
14, 36344, Control_c, 10, 7, 76
14, 36345, Control_c, 10, 7, 76
14, 36346, Control_c, 10, 7, 75
14, 36347, Control_c, 10, 7, 75
14, 36348, Control_c, 10, 7, 75
14, 36349, Control_c, 10, 7, 74
14, 36350, Control_c, 10, 7, 74
14, 36351, Control_c, 10, 7, 74
14, 36352, Control_c, 10, 7, 73
14, 36353, Control_c, 10, 7, 73
14, 36354, Control_c, 10, 7, 73
14, 36355, Control_c, 10, 7, 72
14, 36356, Control_c, 10, 7, 72
14, 36357, Control_c, 10, 7, 72
14, 36358, Control_c, 10, 7, 71
14, 36359, Control_c, 10, 7, 71
14, 36360, Control_c, 10, 7, 71
14, 36361, Control_c, 10, 7, 70
14, 36362, Control_c, 10, 7, 70
14, 36363, Control_c, 10, 7, 70
14, 36364, Control_c, 10, 7, 69
14, 36365, Control_c, 10, 7, 69
14, 36366, Control_c, 10, 7, 69
14, 36367, Control_c, 10, 7, 68
14, 36368, Control_c, 10, 7, 68
14, 36369, Control_c, 10, 7, 68
14, 36370, Control_c, 10, 7, 67
14, 36371, Control_c, 10, 7, 67
14, 36372, Control_c, 10, 7, 67
14, 36373, Control_c, 10, 7, 66
14, 36374, Control_c, 10, 7, 66
14, 36375, Control_c, 10, 7, 66
14, 36376, Control_c, 10, 7, 65
14, 36377, Control_c, 10, 7, 65
14, 36378, Control_c, 10, 7, 65
14, 36379, Control_c, 10, 7, 64
14, 36380, Control_c, 10, 7, 64
14, 36381, Control_c, 10, 7, 64
14, 36382, Control_c, 10, 7, 63
14, 36383, Control_c, 10, 7, 63
14, 36384, Note_off_c, 10, 39, 64
14, 36384, Note_off_c, 10, 51, 64
14, 36384, Note_off_c, 10, 27, 64
14, 36384, Control_c, 10, 7, 64
14, 36384, Note_on_c, 10, 39, 127
14, 36384, Note_on_c, 10, 51, 127
14, 36384, Note_on_c, 10, 27, 127
14, 36385, Control_c, 10, 7, 64
14, 36386, Control_c, 10, 7, 65
14, 36387, Control_c, 10, 7, 65
14, 36388, Control_c, 10, 7, 66
14, 36389, Control_c, 10, 7, 66
14, 36390, Control_c, 10, 7, 67
14, 36391, Control_c, 10, 7, 67
14, 36392, Control_c, 10, 7, 68
14, 36393, Control_c, 10, 7, 68
14, 36394, Control_c, 10, 7, 69
14, 36395, Control_c, 10, 7, 69
14, 36396, Control_c, 10, 7, 70
14, 36397, Control_c, 10, 7, 70
14, 36398, Control_c, 10, 7, 71
14, 36399, Control_c, 10, 7, 71
14, 36400, Control_c, 10, 7, 72
14, 36401, Control_c, 10, 7, 72
14, 36402, Control_c, 10, 7, 73
14, 36403, Control_c, 10, 7, 73
14, 36404, Control_c, 10, 7, 74
14, 36405, Control_c, 10, 7, 74
14, 36406, Control_c, 10, 7, 75
14, 36407, Control_c, 10, 7, 75
14, 36408, Control_c, 10, 7, 76
14, 36409, Control_c, 10, 7, 76
14, 36410, Control_c, 10, 7, 77
14, 36411, Control_c, 10, 7, 77
14, 36412, Control_c, 10, 7, 78
14, 36413, Control_c, 10, 7, 78
14, 36414, Control_c, 10, 7, 79
14, 36415, Control_c, 10, 7, 79
14, 36416, Control_c, 10, 7, 80
14, 36417, Control_c, 10, 7, 80
14, 36418, Control_c, 10, 7, 81
14, 36419, Control_c, 10, 7, 81
14, 36420, Control_c, 10, 7, 82
14, 36421, Control_c, 10, 7, 82
14, 36422, Control_c, 10, 7, 83
14, 36423, Control_c, 10, 7, 83
14, 36424, Control_c, 10, 7, 84
14, 36425, Control_c, 10, 7, 84
14, 36426, Control_c, 10, 7, 85
14, 36427, Control_c, 10, 7, 85
14, 36428, Control_c, 10, 7, 86
14, 36429, Control_c, 10, 7, 86
14, 36430, Control_c, 10, 7, 87
14, 36431, Control_c, 10, 7, 87
14, 36432, Control_c, 10, 7, 88
14, 36433, Control_c, 10, 7, 88
14, 36434, Control_c, 10, 7, 89
14, 36435, Control_c, 10, 7, 89
14, 36436, Control_c, 10, 7, 90
14, 36437, Control_c, 10, 7, 90
14, 36438, Control_c, 10, 7, 91
14, 36439, Control_c, 10, 7, 91
14, 36440, Control_c, 10, 7, 92
14, 36441, Control_c, 10, 7, 92
14, 36442, Control_c, 10, 7, 93
14, 36443, Control_c, 10, 7, 93
14, 36444, Control_c, 10, 7, 94
14, 36445, Control_c, 10, 7, 94
14, 36446, Control_c, 10, 7, 95
14, 36447, Control_c, 10, 7, 95
14, 36448, Control_c, 10, 7, 96
14, 36449, Control_c, 10, 7, 96
14, 36450, Control_c, 10, 7, 97
14, 36451, Control_c, 10, 7, 97
14, 36452, Control_c, 10, 7, 98
14, 36453, Control_c, 10, 7, 98
14, 36454, Control_c, 10, 7, 99
14, 36455, Control_c, 10, 7, 99
14, 36456, Control_c, 10, 7, 100
14, 36457, Control_c, 10, 7, 100
14, 36458, Control_c, 10, 7, 101
14, 36459, Control_c, 10, 7, 101
14, 36460, Control_c, 10, 7, 102
14, 36461, Control_c, 10, 7, 102
14, 36462, Control_c, 10, 7, 103
14, 36463, Control_c, 10, 7, 103
14, 36464, Control_c, 10, 7, 104
14, 36465, Control_c, 10, 7, 104
14, 36466, Control_c, 10, 7, 105
14, 36467, Control_c, 10, 7, 105
14, 36468, Control_c, 10, 7, 106
14, 36469, Control_c, 10, 7, 106
14, 36470, Control_c, 10, 7, 107
14, 36471, Control_c, 10, 7, 107
14, 36472, Control_c, 10, 7, 108
14, 36473, Control_c, 10, 7, 108
14, 36474, Control_c, 10, 7, 109
14, 36475, Control_c, 10, 7, 109
14, 36476, Control_c, 10, 7, 110
14, 36477, Control_c, 10, 7, 110
14, 36478, Control_c, 10, 7, 111
14, 36479, Control_c, 10, 7, 111
14, 36480, Note_off_c, 10, 39, 64
14, 36480, Note_off_c, 10, 51, 64
14, 36480, Note_off_c, 10, 27, 64
14, 36480, Control_c, 10, 7, 112
14, 36480, Note_on_c, 10, 39, 127
14, 36480, Note_on_c, 10, 51, 127
14, 36480, Note_on_c, 10, 27, 127
14, 36481, Control_c, 10, 7, 64
14, 36482, Control_c, 10, 7, 65
14, 36483, Control_c, 10, 7, 66
14, 36484, Control_c, 10, 7, 67
14, 36485, Control_c, 10, 7, 68
14, 36486, Control_c, 10, 7, 69
14, 36487, Control_c, 10, 7, 69
14, 36488, Control_c, 10, 7, 70
14, 36489, Control_c, 10, 7, 71
14, 36490, Control_c, 10, 7, 72
14, 36491, Control_c, 10, 7, 73
14, 36492, Control_c, 10, 7, 74
14, 36493, Control_c, 10, 7, 75
14, 36494, Control_c, 10, 7, 76
14, 36495, Control_c, 10, 7, 77
14, 36496, Control_c, 10, 7, 78
14, 36497, Control_c, 10, 7, 79
14, 36498, Control_c, 10, 7, 80
14, 36499, Control_c, 10, 7, 81
14, 36500, Control_c, 10, 7, 82
14, 36501, Control_c, 10, 7, 83
14, 36502, Control_c, 10, 7, 85
14, 36503, Control_c, 10, 7, 86
14, 36504, Control_c, 10, 7, 87
14, 36505, Control_c, 10, 7, 88
14, 36506, Control_c, 10, 7, 89
14, 36507, Control_c, 10, 7, 90
14, 36508, Control_c, 10, 7, 91
14, 36509, Control_c, 10, 7, 92
14, 36510, Control_c, 10, 7, 93
14, 36511, Control_c, 10, 7, 94
14, 36512, Control_c, 10, 7, 95
14, 36513, Control_c, 10, 7, 96
14, 36514, Control_c, 10, 7, 97
14, 36515, Control_c, 10, 7, 98
14, 36516, Control_c, 10, 7, 99
14, 36517, Control_c, 10, 7, 100
14, 36518, Control_c, 10, 7, 102
14, 36519, Control_c, 10, 7, 103
14, 36520, Control_c, 10, 7, 104
14, 36521, Control_c, 10, 7, 105
14, 36522, Control_c, 10, 7, 106
14, 36523, Control_c, 10, 7, 107
14, 36524, Control_c, 10, 7, 108
14, 36525, Control_c, 10, 7, 109
14, 36526, Control_c, 10, 7, 110
14, 36527, Control_c, 10, 7, 111
14, 36528, Note_off_c, 10, 27, 64
14, 36528, Note_off_c, 10, 39, 64
14, 36528, Note_off_c, 10, 51, 64
14, 36528, Control_c, 10, 7, 65
14, 36528, Note_on_c, 10, 39, 127
14, 36528, Note_on_c, 10, 51, 127
14, 36528, Note_on_c, 10, 27, 127
14, 36529, Control_c, 10, 7, 66
14, 36530, Control_c, 10, 7, 67
14, 36531, Control_c, 10, 7, 67
14, 36532, Control_c, 10, 7, 68
14, 36533, Control_c, 10, 7, 69
14, 36534, Control_c, 10, 7, 70
14, 36535, Control_c, 10, 7, 71
14, 36536, Control_c, 10, 7, 72
14, 36537, Control_c, 10, 7, 73
14, 36538, Control_c, 10, 7, 74
14, 36539, Control_c, 10, 7, 75
14, 36540, Control_c, 10, 7, 76
14, 36541, Control_c, 10, 7, 77
14, 36542, Control_c, 10, 7, 78
14, 36543, Control_c, 10, 7, 79
14, 36544, Control_c, 10, 7, 80
14, 36545, Control_c, 10, 7, 81
14, 36546, Control_c, 10, 7, 82
14, 36547, Control_c, 10, 7, 83
14, 36548, Control_c, 10, 7, 84
14, 36549, Control_c, 10, 7, 85
14, 36550, Control_c, 10, 7, 86
14, 36551, Control_c, 10, 7, 87
14, 36552, Control_c, 10, 7, 88
14, 36553, Control_c, 10, 7, 89
14, 36554, Control_c, 10, 7, 89
14, 36555, Control_c, 10, 7, 90
14, 36556, Control_c, 10, 7, 91
14, 36557, Control_c, 10, 7, 92
14, 36558, Control_c, 10, 7, 93
14, 36559, Control_c, 10, 7, 94
14, 36560, Control_c, 10, 7, 95
14, 36561, Control_c, 10, 7, 96
14, 36562, Control_c, 10, 7, 97
14, 36563, Control_c, 10, 7, 98
14, 36564, Control_c, 10, 7, 99
14, 36565, Control_c, 10, 7, 100
14, 36566, Control_c, 10, 7, 101
14, 36567, Control_c, 10, 7, 102
14, 36568, Control_c, 10, 7, 103
14, 36569, Control_c, 10, 7, 104
14, 36570, Control_c, 10, 7, 105
14, 36571, Control_c, 10, 7, 106
14, 36572, Control_c, 10, 7, 107
14, 36573, Control_c, 10, 7, 108
14, 36574, Control_c, 10, 7, 109
14, 36575, Control_c, 10, 7, 110
14, 36576, Note_off_c, 10, 39, 64
14, 36576, Note_off_c, 10, 27, 64
14, 36576, Note_off_c, 10, 51, 64
14, 36576, Control_c, 10, 7, 64
14, 36576, Note_on_c, 10, 39, 127
14, 36576, Note_on_c, 10, 51, 127
14, 36576, Note_on_c, 10, 27, 127
14, 36577, Control_c, 10, 7, 65
14, 36578, Control_c, 10, 7, 65
14, 36579, Control_c, 10, 7, 66
14, 36580, Control_c, 10, 7, 67
14, 36581, Control_c, 10, 7, 68
14, 36582, Control_c, 10, 7, 69
14, 36583, Control_c, 10, 7, 70
14, 36584, Control_c, 10, 7, 70
14, 36585, Control_c, 10, 7, 71
14, 36586, Control_c, 10, 7, 72
14, 36587, Control_c, 10, 7, 73
14, 36588, Control_c, 10, 7, 74
14, 36589, Control_c, 10, 7, 75
14, 36590, Control_c, 10, 7, 76
14, 36591, Control_c, 10, 7, 77
14, 36592, Control_c, 10, 7, 78
14, 36593, Control_c, 10, 7, 79
14, 36594, Control_c, 10, 7, 80
14, 36595, Control_c, 10, 7, 81
14, 36596, Control_c, 10, 7, 82
14, 36597, Control_c, 10, 7, 83
14, 36598, Control_c, 10, 7, 84
14, 36599, Control_c, 10, 7, 85
14, 36600, Control_c, 10, 7, 86
14, 36601, Control_c, 10, 7, 88
14, 36602, Control_c, 10, 7, 89
14, 36603, Control_c, 10, 7, 90
14, 36604, Control_c, 10, 7, 91
14, 36605, Control_c, 10, 7, 92
14, 36606, Control_c, 10, 7, 93
14, 36607, Control_c, 10, 7, 94
14, 36608, Control_c, 10, 7, 95
14, 36609, Control_c, 10, 7, 96
14, 36610, Control_c, 10, 7, 97
14, 36611, Control_c, 10, 7, 98
14, 36612, Control_c, 10, 7, 99
14, 36613, Control_c, 10, 7, 100
14, 36614, Control_c, 10, 7, 101
14, 36615, Control_c, 10, 7, 102
14, 36616, Control_c, 10, 7, 103
14, 36617, Control_c, 10, 7, 104
14, 36618, Control_c, 10, 7, 105
14, 36619, Control_c, 10, 7, 106
14, 36620, Control_c, 10, 7, 107
14, 36621, Control_c, 10, 7, 108
14, 36622, Control_c, 10, 7, 109
14, 36623, Control_c, 10, 7, 110
14, 36624, Note_off_c, 10, 39, 64
14, 36624, Note_off_c, 10, 27, 64
14, 36624, Note_off_c, 10, 51, 64
14, 36624, Control_c, 10, 7, 66
14, 36624, Note_on_c, 10, 39, 127
14, 36624, Note_on_c, 10, 51, 127
14, 36624, Note_on_c, 10, 27, 127
14, 36625, Control_c, 10, 7, 67
14, 36626, Control_c, 10, 7, 68
14, 36627, Control_c, 10, 7, 69
14, 36628, Control_c, 10, 7, 69
14, 36629, Control_c, 10, 7, 70
14, 36630, Control_c, 10, 7, 71
14, 36631, Control_c, 10, 7, 72
14, 36632, Control_c, 10, 7, 73
14, 36633, Control_c, 10, 7, 74
14, 36634, Control_c, 10, 7, 75
14, 36635, Control_c, 10, 7, 76
14, 36636, Control_c, 10, 7, 77
14, 36637, Control_c, 10, 7, 77
14, 36638, Control_c, 10, 7, 78
14, 36639, Control_c, 10, 7, 79
14, 36640, Control_c, 10, 7, 80
14, 36641, Control_c, 10, 7, 81
14, 36642, Control_c, 10, 7, 82
14, 36643, Control_c, 10, 7, 83
14, 36644, Control_c, 10, 7, 84
14, 36645, Control_c, 10, 7, 84
14, 36646, Control_c, 10, 7, 85
14, 36647, Control_c, 10, 7, 86
14, 36648, Control_c, 10, 7, 87
14, 36649, Control_c, 10, 7, 88
14, 36650, Control_c, 10, 7, 89
14, 36651, Control_c, 10, 7, 90
14, 36652, Control_c, 10, 7, 91
14, 36653, Control_c, 10, 7, 91
14, 36654, Control_c, 10, 7, 92
14, 36655, Control_c, 10, 7, 93
14, 36656, Control_c, 10, 7, 94
14, 36657, Control_c, 10, 7, 95
14, 36658, Control_c, 10, 7, 96
14, 36659, Control_c, 10, 7, 97
14, 36660, Control_c, 10, 7, 98
14, 36661, Control_c, 10, 7, 98
14, 36662, Control_c, 10, 7, 99
14, 36663, Control_c, 10, 7, 100
14, 36664, Control_c, 10, 7, 101
14, 36665, Control_c, 10, 7, 102
14, 36666, Control_c, 10, 7, 103
14, 36667, Control_c, 10, 7, 104
14, 36668, Control_c, 10, 7, 104
14, 36669, Control_c, 10, 7, 105
14, 36670, Control_c, 10, 7, 106
14, 36671, Control_c, 10, 7, 107
14, 36672, Note_off_c, 10, 51, 64
14, 36672, Note_off_c, 10, 39, 64
14, 36672, Note_off_c, 10, 27, 64
14, 36672, Control_c, 10, 7, 67
14, 36672, Note_on_c, 10, 39, 127
14, 36672, Note_on_c, 10, 51, 127
14, 36672, Note_on_c, 10, 27, 127
14, 36673, Control_c, 10, 7, 68
14, 36674, Control_c, 10, 7, 69
14, 36675, Control_c, 10, 7, 70
14, 36676, Control_c, 10, 7, 71
14, 36677, Control_c, 10, 7, 72
14, 36678, Control_c, 10, 7, 73
14, 36679, Control_c, 10, 7, 74
14, 36680, Control_c, 10, 7, 75
14, 36681, Control_c, 10, 7, 75
14, 36682, Control_c, 10, 7, 76
14, 36683, Control_c, 10, 7, 77
14, 36684, Control_c, 10, 7, 78
14, 36685, Control_c, 10, 7, 79
14, 36686, Control_c, 10, 7, 80
14, 36687, Control_c, 10, 7, 81
14, 36688, Control_c, 10, 7, 82
14, 36689, Control_c, 10, 7, 83
14, 36690, Control_c, 10, 7, 84
14, 36691, Control_c, 10, 7, 85
14, 36692, Control_c, 10, 7, 86
14, 36693, Control_c, 10, 7, 87
14, 36694, Control_c, 10, 7, 88
14, 36695, Control_c, 10, 7, 89
14, 36696, Control_c, 10, 7, 90
14, 36697, Control_c, 10, 7, 90
14, 36698, Control_c, 10, 7, 91
14, 36699, Control_c, 10, 7, 92
14, 36700, Control_c, 10, 7, 93
14, 36701, Control_c, 10, 7, 94
14, 36702, Control_c, 10, 7, 95
14, 36703, Control_c, 10, 7, 96
14, 36704, Control_c, 10, 7, 97
14, 36705, Control_c, 10, 7, 98
14, 36706, Control_c, 10, 7, 99
14, 36707, Control_c, 10, 7, 100
14, 36708, Control_c, 10, 7, 101
14, 36709, Control_c, 10, 7, 102
14, 36710, Control_c, 10, 7, 103
14, 36711, Control_c, 10, 7, 104
14, 36712, Control_c, 10, 7, 105
14, 36713, Control_c, 10, 7, 106
14, 36714, Control_c, 10, 7, 106
14, 36715, Control_c, 10, 7, 107
14, 36716, Control_c, 10, 7, 108
14, 36717, Control_c, 10, 7, 109
14, 36718, Control_c, 10, 7, 110
14, 36719, Control_c, 10, 7, 111
14, 36720, Note_off_c, 10, 39, 64
14, 36720, Note_off_c, 10, 27, 64
14, 36720, Note_off_c, 10, 51, 64
14, 36720, Control_c, 10, 7, 61
14, 36720, Note_on_c, 10, 39, 127
14, 36720, Note_on_c, 10, 51, 127
14, 36720, Note_on_c, 10, 27, 127
14, 36721, Control_c, 10, 7, 62
14, 36722, Control_c, 10, 7, 63
14, 36723, Control_c, 10, 7, 64
14, 36724, Control_c, 10, 7, 65
14, 36725, Control_c, 10, 7, 66
14, 36726, Control_c, 10, 7, 67
14, 36727, Control_c, 10, 7, 68
14, 36728, Control_c, 10, 7, 70
14, 36729, Control_c, 10, 7, 71
14, 36730, Control_c, 10, 7, 72
14, 36731, Control_c, 10, 7, 73
14, 36732, Control_c, 10, 7, 74
14, 36733, Control_c, 10, 7, 75
14, 36734, Control_c, 10, 7, 76
14, 36735, Control_c, 10, 7, 78
14, 36736, Control_c, 10, 7, 79
14, 36737, Control_c, 10, 7, 80
14, 36738, Control_c, 10, 7, 81
14, 36739, Control_c, 10, 7, 82
14, 36740, Control_c, 10, 7, 83
14, 36741, Control_c, 10, 7, 84
14, 36742, Control_c, 10, 7, 85
14, 36743, Control_c, 10, 7, 87
14, 36744, Control_c, 10, 7, 88
14, 36745, Control_c, 10, 7, 89
14, 36746, Control_c, 10, 7, 90
14, 36747, Control_c, 10, 7, 91
14, 36748, Control_c, 10, 7, 92
14, 36749, Control_c, 10, 7, 93
14, 36750, Control_c, 10, 7, 95
14, 36751, Control_c, 10, 7, 96
14, 36752, Control_c, 10, 7, 97
14, 36753, Control_c, 10, 7, 98
14, 36754, Control_c, 10, 7, 99
14, 36755, Control_c, 10, 7, 100
14, 36756, Control_c, 10, 7, 101
14, 36757, Control_c, 10, 7, 102
14, 36758, Control_c, 10, 7, 104
14, 36759, Control_c, 10, 7, 105
14, 36760, Control_c, 10, 7, 106
14, 36761, Control_c, 10, 7, 107
14, 36762, Control_c, 10, 7, 108
14, 36763, Control_c, 10, 7, 110
14, 36764, Control_c, 10, 7, 111
14, 36765, Control_c, 10, 7, 112
14, 36766, Control_c, 10, 7, 113
14, 36767, Control_c, 10, 7, 114
14, 36768, Note_off_c, 10, 27, 64
14, 36768, Note_off_c, 10, 51, 64
14, 36768, Note_off_c, 10, 39, 64
14, 36768, Control_c, 10, 7, 65
14, 36768, Note_on_c, 10, 39, 127
14, 36768, Note_on_c, 10, 51, 127
14, 36768, Note_on_c, 10, 27, 127
14, 36769, Control_c, 10, 7, 66
14, 36770, Control_c, 10, 7, 67
14, 36771, Control_c, 10, 7, 68
14, 36772, Control_c, 10, 7, 70
14, 36773, Control_c, 10, 7, 71
14, 36774, Control_c, 10, 7, 72
14, 36775, Control_c, 10, 7, 73
14, 36776, Control_c, 10, 7, 74
14, 36777, Control_c, 10, 7, 75
14, 36778, Control_c, 10, 7, 76
14, 36779, Control_c, 10, 7, 77
14, 36780, Control_c, 10, 7, 78
14, 36781, Control_c, 10, 7, 79
14, 36782, Control_c, 10, 7, 80
14, 36783, Control_c, 10, 7, 81
14, 36784, Control_c, 10, 7, 82
14, 36785, Control_c, 10, 7, 83
14, 36786, Control_c, 10, 7, 84
14, 36787, Control_c, 10, 7, 85
14, 36788, Control_c, 10, 7, 86
14, 36789, Control_c, 10, 7, 88
14, 36790, Control_c, 10, 7, 89
14, 36791, Control_c, 10, 7, 90
14, 36792, Control_c, 10, 7, 91
14, 36793, Control_c, 10, 7, 92
14, 36794, Control_c, 10, 7, 93
14, 36795, Control_c, 10, 7, 94
14, 36796, Control_c, 10, 7, 95
14, 36797, Control_c, 10, 7, 96
14, 36798, Control_c, 10, 7, 97
14, 36799, Control_c, 10, 7, 98
14, 36800, Control_c, 10, 7, 99
14, 36801, Control_c, 10, 7, 100
14, 36802, Control_c, 10, 7, 101
14, 36803, Control_c, 10, 7, 102
14, 36804, Control_c, 10, 7, 103
14, 36805, Control_c, 10, 7, 105
14, 36806, Control_c, 10, 7, 106
14, 36807, Control_c, 10, 7, 107
14, 36808, Control_c, 10, 7, 108
14, 36809, Control_c, 10, 7, 109
14, 36810, Control_c, 10, 7, 109
14, 36811, Control_c, 10, 7, 110
14, 36812, Control_c, 10, 7, 112
14, 36813, Control_c, 10, 7, 113
14, 36814, Control_c, 10, 7, 114
14, 36815, Control_c, 10, 7, 115
14, 36816, Note_off_c, 10, 27, 64
14, 36816, Note_off_c, 10, 51, 64
14, 36816, Note_off_c, 10, 39, 64
14, 36816, Control_c, 10, 7, 67
14, 36816, Note_on_c, 10, 39, 127
14, 36816, Note_on_c, 10, 51, 127
14, 36816, Note_on_c, 10, 27, 127
14, 36817, Control_c, 10, 7, 68
14, 36818, Control_c, 10, 7, 69
14, 36819, Control_c, 10, 7, 70
14, 36820, Control_c, 10, 7, 71
14, 36821, Control_c, 10, 7, 71
14, 36822, Control_c, 10, 7, 72
14, 36823, Control_c, 10, 7, 73
14, 36824, Control_c, 10, 7, 74
14, 36825, Control_c, 10, 7, 75
14, 36826, Control_c, 10, 7, 76
14, 36827, Control_c, 10, 7, 77
14, 36828, Control_c, 10, 7, 78
14, 36829, Control_c, 10, 7, 79
14, 36830, Control_c, 10, 7, 80
14, 36831, Control_c, 10, 7, 81
14, 36832, Control_c, 10, 7, 82
14, 36833, Control_c, 10, 7, 83
14, 36834, Control_c, 10, 7, 84
14, 36835, Control_c, 10, 7, 85
14, 36836, Control_c, 10, 7, 86
14, 36837, Control_c, 10, 7, 87
14, 36838, Control_c, 10, 7, 88
14, 36839, Control_c, 10, 7, 89
14, 36840, Control_c, 10, 7, 90
14, 36841, Control_c, 10, 7, 91
14, 36842, Control_c, 10, 7, 92
14, 36843, Control_c, 10, 7, 93
14, 36844, Control_c, 10, 7, 94
14, 36845, Control_c, 10, 7, 95
14, 36846, Control_c, 10, 7, 96
14, 36847, Control_c, 10, 7, 97
14, 36848, Control_c, 10, 7, 98
14, 36849, Control_c, 10, 7, 99
14, 36850, Control_c, 10, 7, 100
14, 36851, Control_c, 10, 7, 101
14, 36852, Control_c, 10, 7, 102
14, 36853, Control_c, 10, 7, 103
14, 36854, Control_c, 10, 7, 104
14, 36855, Control_c, 10, 7, 104
14, 36856, Control_c, 10, 7, 105
14, 36857, Control_c, 10, 7, 106
14, 36858, Control_c, 10, 7, 107
14, 36859, Control_c, 10, 7, 108
14, 36860, Control_c, 10, 7, 109
14, 36861, Control_c, 10, 7, 110
14, 36862, Control_c, 10, 7, 111
14, 36863, Control_c, 10, 7, 112
14, 36864, Note_off_c, 10, 27, 64
14, 36864, Note_off_c, 10, 51, 64
14, 36864, Note_off_c, 10, 39, 64
14, 43392, Control_c, 10, 7, 50
14, 43392, Note_on_c, 10, 41, 127
14, 43392, Note_on_c, 10, 29, 127
14, 43392, Note_on_c, 10, 53, 127
14, 43394, Control_c, 10, 7, 50
14, 43395, Control_c, 10, 7, 51
14, 43396, Control_c, 10, 7, 51
14, 43397, Control_c, 10, 7, 52
14, 43398, Control_c, 10, 7, 52
14, 43399, Control_c, 10, 7, 52
14, 43400, Control_c, 10, 7, 53
14, 43401, Control_c, 10, 7, 53
14, 43402, Control_c, 10, 7, 54
14, 43403, Control_c, 10, 7, 54
14, 43404, Control_c, 10, 7, 54
14, 43405, Control_c, 10, 7, 55
14, 43406, Control_c, 10, 7, 55
14, 43407, Control_c, 10, 7, 55
14, 43408, Control_c, 10, 7, 56
14, 43409, Control_c, 10, 7, 56
14, 43410, Control_c, 10, 7, 57
14, 43411, Control_c, 10, 7, 57
14, 43412, Control_c, 10, 7, 57
14, 43413, Control_c, 10, 7, 58
14, 43414, Control_c, 10, 7, 58
14, 43415, Control_c, 10, 7, 59
14, 43416, Control_c, 10, 7, 59
14, 43417, Control_c, 10, 7, 59
14, 43418, Control_c, 10, 7, 60
14, 43419, Control_c, 10, 7, 60
14, 43420, Control_c, 10, 7, 61
14, 43421, Control_c, 10, 7, 61
14, 43422, Control_c, 10, 7, 61
14, 43423, Control_c, 10, 7, 62
14, 43424, Control_c, 10, 7, 62
14, 43425, Control_c, 10, 7, 62
14, 43426, Control_c, 10, 7, 63
14, 43427, Control_c, 10, 7, 63
14, 43428, Control_c, 10, 7, 64
14, 43429, Control_c, 10, 7, 64
14, 43430, Control_c, 10, 7, 64
14, 43431, Control_c, 10, 7, 65
14, 43432, Control_c, 10, 7, 65
14, 43433, Control_c, 10, 7, 66
14, 43434, Control_c, 10, 7, 66
14, 43435, Control_c, 10, 7, 66
14, 43436, Control_c, 10, 7, 67
14, 43437, Control_c, 10, 7, 67
14, 43438, Control_c, 10, 7, 68
14, 43439, Control_c, 10, 7, 68
14, 43440, Control_c, 10, 7, 68
14, 43441, Control_c, 10, 7, 69
14, 43442, Control_c, 10, 7, 69
14, 43443, Control_c, 10, 7, 69
14, 43444, Control_c, 10, 7, 70
14, 43445, Control_c, 10, 7, 70
14, 43446, Control_c, 10, 7, 71
14, 43447, Control_c, 10, 7, 71
14, 43448, Control_c, 10, 7, 71
14, 43449, Control_c, 10, 7, 72
14, 43450, Control_c, 10, 7, 72
14, 43451, Control_c, 10, 7, 73
14, 43452, Control_c, 10, 7, 73
14, 43453, Control_c, 10, 7, 73
14, 43454, Control_c, 10, 7, 74
14, 43455, Control_c, 10, 7, 74
14, 43456, Control_c, 10, 7, 75
14, 43457, Control_c, 10, 7, 75
14, 43458, Control_c, 10, 7, 75
14, 43459, Control_c, 10, 7, 76
14, 43460, Control_c, 10, 7, 76
14, 43461, Control_c, 10, 7, 76
14, 43462, Control_c, 10, 7, 77
14, 43463, Control_c, 10, 7, 77
14, 43464, Control_c, 10, 7, 78
14, 43465, Control_c, 10, 7, 78
14, 43466, Control_c, 10, 7, 78
14, 43467, Control_c, 10, 7, 79
14, 43468, Control_c, 10, 7, 79
14, 43469, Control_c, 10, 7, 80
14, 43470, Control_c, 10, 7, 80
14, 43471, Control_c, 10, 7, 80
14, 43472, Control_c, 10, 7, 81
14, 43473, Control_c, 10, 7, 81
14, 43474, Control_c, 10, 7, 82
14, 43475, Control_c, 10, 7, 82
14, 43476, Control_c, 10, 7, 82
14, 43477, Control_c, 10, 7, 83
14, 43478, Control_c, 10, 7, 83
14, 43479, Control_c, 10, 7, 83
14, 43480, Control_c, 10, 7, 84
14, 43481, Control_c, 10, 7, 84
14, 43482, Control_c, 10, 7, 85
14, 43483, Control_c, 10, 7, 85
14, 43484, Control_c, 10, 7, 85
14, 43485, Control_c, 10, 7, 86
14, 43486, Control_c, 10, 7, 86
14, 43487, Control_c, 10, 7, 87
14, 43488, Control_c, 10, 7, 87
14, 43489, Control_c, 10, 7, 87
14, 43490, Control_c, 10, 7, 88
14, 43491, Control_c, 10, 7, 88
14, 43492, Control_c, 10, 7, 89
14, 43493, Control_c, 10, 7, 89
14, 43494, Control_c, 10, 7, 89
14, 43495, Control_c, 10, 7, 90
14, 43496, Control_c, 10, 7, 90
14, 43497, Control_c, 10, 7, 90
14, 43498, Control_c, 10, 7, 91
14, 43499, Control_c, 10, 7, 91
14, 43500, Control_c, 10, 7, 92
14, 43501, Control_c, 10, 7, 92
14, 43502, Control_c, 10, 7, 92
14, 43503, Control_c, 10, 7, 93
14, 43504, Control_c, 10, 7, 93
14, 43505, Control_c, 10, 7, 94
14, 43506, Control_c, 10, 7, 94
14, 43507, Control_c, 10, 7, 94
14, 43508, Control_c, 10, 7, 95
14, 43509, Control_c, 10, 7, 95
14, 43510, Control_c, 10, 7, 96
14, 43511, Control_c, 10, 7, 96
14, 43512, Control_c, 10, 7, 96
14, 43513, Control_c, 10, 7, 97
14, 43514, Control_c, 10, 7, 97
14, 43515, Control_c, 10, 7, 97
14, 43516, Control_c, 10, 7, 98
14, 43517, Control_c, 10, 7, 98
14, 43518, Control_c, 10, 7, 99
14, 43519, Control_c, 10, 7, 99
14, 43520, Control_c, 10, 7, 99
14, 43521, Control_c, 10, 7, 100
14, 43522, Control_c, 10, 7, 100
14, 43523, Control_c, 10, 7, 101
14, 43524, Control_c, 10, 7, 101
14, 43525, Control_c, 10, 7, 101
14, 43526, Control_c, 10, 7, 102
14, 43527, Control_c, 10, 7, 102
14, 43528, Control_c, 10, 7, 103
14, 43529, Control_c, 10, 7, 103
14, 43530, Control_c, 10, 7, 103
14, 43531, Control_c, 10, 7, 104
14, 43532, Control_c, 10, 7, 104
14, 43533, Control_c, 10, 7, 104
14, 43534, Control_c, 10, 7, 105
14, 43535, Control_c, 10, 7, 105
14, 43536, Note_off_c, 10, 41, 64
14, 43536, Note_off_c, 10, 29, 64
14, 43536, Note_off_c, 10, 53, 64
14, 43536, Control_c, 10, 7, 54
14, 43536, Note_on_c, 10, 43, 127
14, 43536, Note_on_c, 10, 31, 127
14, 43536, Note_on_c, 10, 55, 127
14, 43537, Control_c, 10, 7, 55
14, 43538, Control_c, 10, 7, 55
14, 43539, Control_c, 10, 7, 56
14, 43540, Control_c, 10, 7, 57
14, 43541, Control_c, 10, 7, 57
14, 43542, Control_c, 10, 7, 57
14, 43543, Control_c, 10, 7, 58
14, 43544, Control_c, 10, 7, 58
14, 43545, Control_c, 10, 7, 58
14, 43546, Control_c, 10, 7, 59
14, 43547, Control_c, 10, 7, 59
14, 43548, Control_c, 10, 7, 59
14, 43549, Control_c, 10, 7, 60
14, 43550, Control_c, 10, 7, 60
14, 43551, Control_c, 10, 7, 61
14, 43552, Control_c, 10, 7, 61
14, 43553, Control_c, 10, 7, 61
14, 43554, Control_c, 10, 7, 62
14, 43555, Control_c, 10, 7, 62
14, 43556, Control_c, 10, 7, 62
14, 43557, Control_c, 10, 7, 63
14, 43558, Control_c, 10, 7, 63
14, 43559, Control_c, 10, 7, 63
14, 43560, Control_c, 10, 7, 63
14, 43561, Control_c, 10, 7, 64
14, 43562, Control_c, 10, 7, 64
14, 43563, Control_c, 10, 7, 65
14, 43564, Control_c, 10, 7, 65
14, 43565, Control_c, 10, 7, 65
14, 43566, Control_c, 10, 7, 66
14, 43567, Control_c, 10, 7, 66
14, 43568, Control_c, 10, 7, 66
14, 43569, Control_c, 10, 7, 67
14, 43570, Control_c, 10, 7, 67
14, 43571, Control_c, 10, 7, 68
14, 43572, Control_c, 10, 7, 68
14, 43573, Control_c, 10, 7, 68
14, 43574, Control_c, 10, 7, 69
14, 43575, Control_c, 10, 7, 69
14, 43576, Control_c, 10, 7, 69
14, 43577, Control_c, 10, 7, 70
14, 43578, Control_c, 10, 7, 70
14, 43579, Control_c, 10, 7, 71
14, 43580, Control_c, 10, 7, 71
14, 43581, Control_c, 10, 7, 71
14, 43582, Control_c, 10, 7, 72
14, 43583, Control_c, 10, 7, 72
14, 43584, Control_c, 10, 7, 73
14, 43585, Control_c, 10, 7, 73
14, 43586, Control_c, 10, 7, 73
14, 43587, Control_c, 10, 7, 74
14, 43588, Control_c, 10, 7, 74
14, 43589, Control_c, 10, 7, 74
14, 43590, Control_c, 10, 7, 75
14, 43591, Control_c, 10, 7, 75
14, 43592, Control_c, 10, 7, 76
14, 43593, Control_c, 10, 7, 76
14, 43594, Control_c, 10, 7, 76
14, 43595, Control_c, 10, 7, 77
14, 43596, Control_c, 10, 7, 77
14, 43597, Control_c, 10, 7, 77
14, 43598, Control_c, 10, 7, 78
14, 43599, Control_c, 10, 7, 78
14, 43600, Control_c, 10, 7, 79
14, 43601, Control_c, 10, 7, 79
14, 43602, Control_c, 10, 7, 79
14, 43603, Control_c, 10, 7, 80
14, 43604, Control_c, 10, 7, 80
14, 43605, Control_c, 10, 7, 80
14, 43606, Control_c, 10, 7, 81
14, 43607, Control_c, 10, 7, 81
14, 43608, Control_c, 10, 7, 82
14, 43609, Control_c, 10, 7, 82
14, 43610, Control_c, 10, 7, 82
14, 43611, Control_c, 10, 7, 83
14, 43612, Control_c, 10, 7, 83
14, 43613, Control_c, 10, 7, 84
14, 43614, Control_c, 10, 7, 84
14, 43615, Control_c, 10, 7, 84
14, 43616, Control_c, 10, 7, 85
14, 43617, Control_c, 10, 7, 85
14, 43618, Control_c, 10, 7, 85
14, 43619, Control_c, 10, 7, 86
14, 43620, Control_c, 10, 7, 86
14, 43621, Control_c, 10, 7, 87
14, 43622, Control_c, 10, 7, 87
14, 43623, Control_c, 10, 7, 87
14, 43624, Control_c, 10, 7, 88
14, 43625, Control_c, 10, 7, 88
14, 43626, Control_c, 10, 7, 88
14, 43627, Control_c, 10, 7, 89
14, 43628, Control_c, 10, 7, 89
14, 43629, Control_c, 10, 7, 90
14, 43630, Control_c, 10, 7, 90
14, 43631, Control_c, 10, 7, 90
14, 43632, Control_c, 10, 7, 91
14, 43633, Control_c, 10, 7, 91
14, 43634, Control_c, 10, 7, 92
14, 43635, Control_c, 10, 7, 92
14, 43636, Control_c, 10, 7, 92
14, 43637, Control_c, 10, 7, 93
14, 43638, Control_c, 10, 7, 93
14, 43639, Control_c, 10, 7, 93
14, 43640, Control_c, 10, 7, 94
14, 43641, Control_c, 10, 7, 94
14, 43642, Control_c, 10, 7, 95
14, 43643, Control_c, 10, 7, 95
14, 43644, Control_c, 10, 7, 95
14, 43645, Control_c, 10, 7, 96
14, 43646, Control_c, 10, 7, 96
14, 43647, Control_c, 10, 7, 96
14, 43648, Control_c, 10, 7, 97
14, 43649, Control_c, 10, 7, 97
14, 43650, Control_c, 10, 7, 98
14, 43651, Control_c, 10, 7, 98
14, 43652, Control_c, 10, 7, 98
14, 43653, Control_c, 10, 7, 99
14, 43654, Control_c, 10, 7, 99
14, 43655, Control_c, 10, 7, 99
14, 43656, Control_c, 10, 7, 100
14, 43657, Control_c, 10, 7, 100
14, 43658, Control_c, 10, 7, 101
14, 43659, Control_c, 10, 7, 101
14, 43660, Control_c, 10, 7, 101
14, 43661, Control_c, 10, 7, 102
14, 43662, Control_c, 10, 7, 102
14, 43663, Control_c, 10, 7, 103
14, 43664, Control_c, 10, 7, 103
14, 43665, Control_c, 10, 7, 103
14, 43666, Control_c, 10, 7, 104
14, 43667, Control_c, 10, 7, 104
14, 43668, Control_c, 10, 7, 104
14, 43669, Control_c, 10, 7, 105
14, 43670, Control_c, 10, 7, 105
14, 43671, Control_c, 10, 7, 106
14, 43672, Control_c, 10, 7, 106
14, 43673, Control_c, 10, 7, 106
14, 43674, Control_c, 10, 7, 107
14, 43675, Control_c, 10, 7, 107
14, 43676, Control_c, 10, 7, 107
14, 43677, Control_c, 10, 7, 108
14, 43678, Control_c, 10, 7, 108
14, 43679, Control_c, 10, 7, 109
14, 43680, Note_off_c, 10, 55, 64
14, 43680, Note_off_c, 10, 31, 64
14, 43680, Note_off_c, 10, 43, 64
14, 43680, Control_c, 10, 7, 108
14, 43680, Note_on_c, 10, 39, 127
14, 43680, Note_on_c, 10, 27, 127
14, 43680, Note_on_c, 10, 51, 127
14, 43681, Control_c, 10, 7, 108
14, 43682, Control_c, 10, 7, 107
14, 43683, Control_c, 10, 7, 107
14, 43684, Control_c, 10, 7, 106
14, 43685, Control_c, 10, 7, 106
14, 43686, Control_c, 10, 7, 105
14, 43687, Control_c, 10, 7, 105
14, 43688, Control_c, 10, 7, 105
14, 43689, Control_c, 10, 7, 104
14, 43690, Control_c, 10, 7, 104
14, 43691, Control_c, 10, 7, 103
14, 43692, Control_c, 10, 7, 103
14, 43693, Control_c, 10, 7, 102
14, 43694, Control_c, 10, 7, 102
14, 43695, Control_c, 10, 7, 101
14, 43696, Control_c, 10, 7, 101
14, 43697, Control_c, 10, 7, 100
14, 43698, Control_c, 10, 7, 100
14, 43699, Control_c, 10, 7, 99
14, 43700, Control_c, 10, 7, 99
14, 43701, Control_c, 10, 7, 98
14, 43702, Control_c, 10, 7, 98
14, 43703, Control_c, 10, 7, 97
14, 43704, Control_c, 10, 7, 97
14, 43705, Control_c, 10, 7, 96
14, 43706, Control_c, 10, 7, 96
14, 43707, Control_c, 10, 7, 95
14, 43708, Control_c, 10, 7, 95
14, 43709, Control_c, 10, 7, 94
14, 43710, Control_c, 10, 7, 94
14, 43711, Control_c, 10, 7, 93
14, 43712, Control_c, 10, 7, 93
14, 43713, Control_c, 10, 7, 92
14, 43714, Control_c, 10, 7, 92
14, 43715, Control_c, 10, 7, 91
14, 43716, Control_c, 10, 7, 91
14, 43717, Control_c, 10, 7, 90
14, 43718, Control_c, 10, 7, 90
14, 43719, Control_c, 10, 7, 89
14, 43720, Control_c, 10, 7, 89
14, 43721, Control_c, 10, 7, 88
14, 43722, Control_c, 10, 7, 88
14, 43723, Control_c, 10, 7, 87
14, 43724, Control_c, 10, 7, 87
14, 43725, Control_c, 10, 7, 86
14, 43726, Control_c, 10, 7, 86
14, 43727, Control_c, 10, 7, 85
14, 43728, Control_c, 10, 7, 85
14, 43729, Control_c, 10, 7, 84
14, 43730, Control_c, 10, 7, 84
14, 43731, Control_c, 10, 7, 83
14, 43732, Control_c, 10, 7, 83
14, 43733, Control_c, 10, 7, 82
14, 43734, Control_c, 10, 7, 82
14, 43735, Control_c, 10, 7, 81
14, 43736, Control_c, 10, 7, 81
14, 43737, Control_c, 10, 7, 80
14, 43738, Control_c, 10, 7, 80
14, 43739, Control_c, 10, 7, 79
14, 43740, Control_c, 10, 7, 79
14, 43741, Control_c, 10, 7, 78
14, 43742, Control_c, 10, 7, 78
14, 43743, Control_c, 10, 7, 77
14, 43744, Control_c, 10, 7, 77
14, 43745, Control_c, 10, 7, 76
14, 43746, Control_c, 10, 7, 76
14, 43747, Control_c, 10, 7, 75
14, 43748, Control_c, 10, 7, 75
14, 43749, Control_c, 10, 7, 74
14, 43750, Control_c, 10, 7, 74
14, 43751, Control_c, 10, 7, 73
14, 43752, Control_c, 10, 7, 73
14, 43753, Control_c, 10, 7, 72
14, 43754, Control_c, 10, 7, 72
14, 43755, Control_c, 10, 7, 71
14, 43756, Control_c, 10, 7, 71
14, 43757, Control_c, 10, 7, 70
14, 43758, Control_c, 10, 7, 70
14, 43759, Control_c, 10, 7, 69
14, 43760, Control_c, 10, 7, 69
14, 43761, Control_c, 10, 7, 68
14, 43762, Control_c, 10, 7, 68
14, 43763, Control_c, 10, 7, 67
14, 43764, Control_c, 10, 7, 67
14, 43765, Control_c, 10, 7, 66
14, 43766, Control_c, 10, 7, 66
14, 43767, Control_c, 10, 7, 65
14, 43768, Control_c, 10, 7, 65
14, 43769, Control_c, 10, 7, 64
14, 43770, Control_c, 10, 7, 64
14, 43771, Control_c, 10, 7, 63
14, 43772, Control_c, 10, 7, 63
14, 43773, Control_c, 10, 7, 62
14, 43774, Control_c, 10, 7, 62
14, 43775, Control_c, 10, 7, 61
14, 43776, Control_c, 10, 7, 61
14, 43824, Note_off_c, 10, 39, 64
14, 43824, Note_off_c, 10, 51, 64
14, 43824, Note_off_c, 10, 27, 64
14, 43824, Control_c, 10, 7, 102
14, 43824, Note_on_c, 10, 39, 127
14, 43824, Note_on_c, 10, 27, 127
14, 43824, Note_on_c, 10, 51, 127
14, 43825, Control_c, 10, 7, 102
14, 43826, Control_c, 10, 7, 101
14, 43827, Control_c, 10, 7, 100
14, 43828, Control_c, 10, 7, 99
14, 43829, Control_c, 10, 7, 98
14, 43830, Control_c, 10, 7, 97
14, 43831, Control_c, 10, 7, 96
14, 43832, Control_c, 10, 7, 95
14, 43833, Control_c, 10, 7, 95
14, 43834, Control_c, 10, 7, 94
14, 43835, Control_c, 10, 7, 93
14, 43836, Control_c, 10, 7, 92
14, 43837, Control_c, 10, 7, 91
14, 43838, Control_c, 10, 7, 90
14, 43839, Control_c, 10, 7, 89
14, 43840, Control_c, 10, 7, 88
14, 43841, Control_c, 10, 7, 87
14, 43842, Control_c, 10, 7, 87
14, 43843, Control_c, 10, 7, 86
14, 43844, Control_c, 10, 7, 85
14, 43845, Control_c, 10, 7, 84
14, 43846, Control_c, 10, 7, 83
14, 43847, Control_c, 10, 7, 82
14, 43848, Control_c, 10, 7, 81
14, 43849, Control_c, 10, 7, 80
14, 43850, Control_c, 10, 7, 80
14, 43851, Control_c, 10, 7, 79
14, 43852, Control_c, 10, 7, 78
14, 43853, Control_c, 10, 7, 77
14, 43854, Control_c, 10, 7, 76
14, 43855, Control_c, 10, 7, 75
14, 43856, Control_c, 10, 7, 74
14, 43857, Control_c, 10, 7, 73
14, 43858, Control_c, 10, 7, 73
14, 43859, Control_c, 10, 7, 72
14, 43860, Control_c, 10, 7, 71
14, 43861, Control_c, 10, 7, 70
14, 43862, Control_c, 10, 7, 69
14, 43863, Control_c, 10, 7, 68
14, 43864, Control_c, 10, 7, 67
14, 43865, Control_c, 10, 7, 66
14, 43866, Control_c, 10, 7, 66
14, 43867, Control_c, 10, 7, 65
14, 43868, Control_c, 10, 7, 64
14, 43869, Control_c, 10, 7, 63
14, 43870, Control_c, 10, 7, 62
14, 43871, Control_c, 10, 7, 61
14, 43872, Note_off_c, 10, 51, 64
14, 43872, Note_off_c, 10, 27, 64
14, 43872, Note_off_c, 10, 39, 64
14, 43872, Control_c, 10, 7, 102
14, 43872, Note_on_c, 10, 39, 127
14, 43872, Note_on_c, 10, 27, 127
14, 43872, Note_on_c, 10, 51, 127
14, 43873, Control_c, 10, 7, 102
14, 43874, Control_c, 10, 7, 101
14, 43875, Control_c, 10, 7, 100
14, 43876, Control_c, 10, 7, 99
14, 43877, Control_c, 10, 7, 98
14, 43878, Control_c, 10, 7, 97
14, 43879, Control_c, 10, 7, 96
14, 43880, Control_c, 10, 7, 96
14, 43881, Control_c, 10, 7, 95
14, 43882, Control_c, 10, 7, 94
14, 43883, Control_c, 10, 7, 93
14, 43884, Control_c, 10, 7, 92
14, 43885, Control_c, 10, 7, 91
14, 43886, Control_c, 10, 7, 91
14, 43887, Control_c, 10, 7, 90
14, 43888, Control_c, 10, 7, 89
14, 43889, Control_c, 10, 7, 88
14, 43890, Control_c, 10, 7, 87
14, 43891, Control_c, 10, 7, 86
14, 43892, Control_c, 10, 7, 85
14, 43893, Control_c, 10, 7, 85
14, 43894, Control_c, 10, 7, 84
14, 43895, Control_c, 10, 7, 83
14, 43896, Control_c, 10, 7, 82
14, 43897, Control_c, 10, 7, 81
14, 43898, Control_c, 10, 7, 80
14, 43899, Control_c, 10, 7, 80
14, 43900, Control_c, 10, 7, 79
14, 43901, Control_c, 10, 7, 78
14, 43902, Control_c, 10, 7, 77
14, 43903, Control_c, 10, 7, 76
14, 43904, Control_c, 10, 7, 75
14, 43905, Control_c, 10, 7, 74
14, 43906, Control_c, 10, 7, 74
14, 43907, Control_c, 10, 7, 73
14, 43908, Control_c, 10, 7, 72
14, 43909, Control_c, 10, 7, 71
14, 43910, Control_c, 10, 7, 70
14, 43911, Control_c, 10, 7, 69
14, 43912, Control_c, 10, 7, 68
14, 43913, Control_c, 10, 7, 68
14, 43914, Control_c, 10, 7, 67
14, 43915, Control_c, 10, 7, 66
14, 43916, Control_c, 10, 7, 65
14, 43917, Control_c, 10, 7, 64
14, 43918, Control_c, 10, 7, 102
14, 43919, Control_c, 10, 7, 102
14, 43920, Note_off_c, 10, 51, 64
14, 43920, Note_off_c, 10, 27, 64
14, 43920, Note_off_c, 10, 39, 64
14, 43920, Control_c, 10, 7, 101
14, 43920, Note_on_c, 10, 39, 127
14, 43920, Note_on_c, 10, 27, 127
14, 43920, Note_on_c, 10, 51, 127
14, 43921, Control_c, 10, 7, 100
14, 43922, Control_c, 10, 7, 99
14, 43923, Control_c, 10, 7, 98
14, 43924, Control_c, 10, 7, 97
14, 43925, Control_c, 10, 7, 97
14, 43926, Control_c, 10, 7, 96
14, 43927, Control_c, 10, 7, 95
14, 43928, Control_c, 10, 7, 94
14, 43929, Control_c, 10, 7, 93
14, 43930, Control_c, 10, 7, 93
14, 43931, Control_c, 10, 7, 92
14, 43932, Control_c, 10, 7, 91
14, 43933, Control_c, 10, 7, 90
14, 43934, Control_c, 10, 7, 89
14, 43935, Control_c, 10, 7, 88
14, 43936, Control_c, 10, 7, 88
14, 43937, Control_c, 10, 7, 87
14, 43938, Control_c, 10, 7, 86
14, 43939, Control_c, 10, 7, 85
14, 43940, Control_c, 10, 7, 84
14, 43941, Control_c, 10, 7, 84
14, 43942, Control_c, 10, 7, 83
14, 43943, Control_c, 10, 7, 82
14, 43944, Control_c, 10, 7, 81
14, 43945, Control_c, 10, 7, 80
14, 43946, Control_c, 10, 7, 79
14, 43947, Control_c, 10, 7, 79
14, 43948, Control_c, 10, 7, 78
14, 43949, Control_c, 10, 7, 77
14, 43950, Control_c, 10, 7, 76
14, 43951, Control_c, 10, 7, 75
14, 43952, Control_c, 10, 7, 75
14, 43953, Control_c, 10, 7, 74
14, 43954, Control_c, 10, 7, 73
14, 43955, Control_c, 10, 7, 72
14, 43956, Control_c, 10, 7, 71
14, 43957, Control_c, 10, 7, 70
14, 43958, Control_c, 10, 7, 70
14, 43959, Control_c, 10, 7, 69
14, 43960, Control_c, 10, 7, 68
14, 43961, Control_c, 10, 7, 67
14, 43962, Control_c, 10, 7, 66
14, 43963, Control_c, 10, 7, 66
14, 43964, Control_c, 10, 7, 65
14, 43965, Control_c, 10, 7, 64
14, 43966, Control_c, 10, 7, 63
14, 43967, Control_c, 10, 7, 62
14, 43968, Note_off_c, 10, 51, 64
14, 43968, Note_off_c, 10, 27, 64
14, 43968, Note_off_c, 10, 39, 64
14, 43968, Control_c, 10, 7, 102
14, 43968, Note_on_c, 10, 39, 127
14, 43968, Note_on_c, 10, 27, 127
14, 43968, Note_on_c, 10, 51, 127
14, 43969, Control_c, 10, 7, 102
14, 43970, Control_c, 10, 7, 101
14, 43971, Control_c, 10, 7, 100
14, 43972, Control_c, 10, 7, 99
14, 43973, Control_c, 10, 7, 98
14, 43974, Control_c, 10, 7, 97
14, 43975, Control_c, 10, 7, 96
14, 43976, Control_c, 10, 7, 95
14, 43977, Control_c, 10, 7, 94
14, 43978, Control_c, 10, 7, 94
14, 43979, Control_c, 10, 7, 93
14, 43980, Control_c, 10, 7, 92
14, 43981, Control_c, 10, 7, 91
14, 43982, Control_c, 10, 7, 90
14, 43983, Control_c, 10, 7, 89
14, 43984, Control_c, 10, 7, 88
14, 43985, Control_c, 10, 7, 87
14, 43986, Control_c, 10, 7, 86
14, 43987, Control_c, 10, 7, 86
14, 43988, Control_c, 10, 7, 85
14, 43989, Control_c, 10, 7, 84
14, 43990, Control_c, 10, 7, 83
14, 43991, Control_c, 10, 7, 82
14, 43992, Control_c, 10, 7, 81
14, 43993, Control_c, 10, 7, 80
14, 43994, Control_c, 10, 7, 79
14, 43995, Control_c, 10, 7, 78
14, 43996, Control_c, 10, 7, 78
14, 43997, Control_c, 10, 7, 77
14, 43998, Control_c, 10, 7, 76
14, 43999, Control_c, 10, 7, 75
14, 44000, Control_c, 10, 7, 74
14, 44001, Control_c, 10, 7, 73
14, 44002, Control_c, 10, 7, 72
14, 44003, Control_c, 10, 7, 71
14, 44004, Control_c, 10, 7, 70
14, 44005, Control_c, 10, 7, 69
14, 44006, Control_c, 10, 7, 69
14, 44007, Control_c, 10, 7, 68
14, 44008, Control_c, 10, 7, 67
14, 44009, Control_c, 10, 7, 66
14, 44010, Control_c, 10, 7, 65
14, 44011, Control_c, 10, 7, 64
14, 44012, Control_c, 10, 7, 63
14, 44013, Control_c, 10, 7, 62
14, 44014, Control_c, 10, 7, 61
14, 44015, Control_c, 10, 7, 61
14, 44016, Note_off_c, 10, 51, 64
14, 44016, Note_off_c, 10, 27, 64
14, 44016, Note_off_c, 10, 39, 64
14, 44016, Note_on_c, 10, 39, 127
14, 44016, Note_on_c, 10, 27, 127
14, 44016, Note_on_c, 10, 51, 127
14, 44017, Control_c, 10, 7, 103
14, 44018, Control_c, 10, 7, 102
14, 44019, Control_c, 10, 7, 101
14, 44020, Control_c, 10, 7, 100
14, 44021, Control_c, 10, 7, 99
14, 44022, Control_c, 10, 7, 99
14, 44023, Control_c, 10, 7, 98
14, 44024, Control_c, 10, 7, 97
14, 44025, Control_c, 10, 7, 96
14, 44026, Control_c, 10, 7, 95
14, 44027, Control_c, 10, 7, 94
14, 44028, Control_c, 10, 7, 93
14, 44029, Control_c, 10, 7, 93
14, 44030, Control_c, 10, 7, 92
14, 44031, Control_c, 10, 7, 91
14, 44032, Control_c, 10, 7, 90
14, 44033, Control_c, 10, 7, 89
14, 44034, Control_c, 10, 7, 88
14, 44035, Control_c, 10, 7, 87
14, 44036, Control_c, 10, 7, 87
14, 44037, Control_c, 10, 7, 86
14, 44038, Control_c, 10, 7, 85
14, 44039, Control_c, 10, 7, 84
14, 44040, Control_c, 10, 7, 83
14, 44041, Control_c, 10, 7, 82
14, 44042, Control_c, 10, 7, 81
14, 44043, Control_c, 10, 7, 81
14, 44044, Control_c, 10, 7, 80
14, 44045, Control_c, 10, 7, 79
14, 44046, Control_c, 10, 7, 78
14, 44047, Control_c, 10, 7, 77
14, 44048, Control_c, 10, 7, 76
14, 44049, Control_c, 10, 7, 75
14, 44050, Control_c, 10, 7, 75
14, 44051, Control_c, 10, 7, 74
14, 44052, Control_c, 10, 7, 73
14, 44053, Control_c, 10, 7, 72
14, 44054, Control_c, 10, 7, 71
14, 44055, Control_c, 10, 7, 70
14, 44056, Control_c, 10, 7, 69
14, 44057, Control_c, 10, 7, 69
14, 44058, Control_c, 10, 7, 68
14, 44059, Control_c, 10, 7, 67
14, 44060, Control_c, 10, 7, 66
14, 44061, Control_c, 10, 7, 65
14, 44062, Control_c, 10, 7, 64
14, 44063, Control_c, 10, 7, 64
14, 44064, Note_off_c, 10, 51, 64
14, 44064, Note_off_c, 10, 27, 64
14, 44064, Note_off_c, 10, 39, 64
14, 44064, Note_on_c, 10, 39, 127
14, 44064, Note_on_c, 10, 27, 127
14, 44064, Note_on_c, 10, 51, 127
14, 44065, Control_c, 10, 7, 104
14, 44066, Control_c, 10, 7, 103
14, 44067, Control_c, 10, 7, 102
14, 44068, Control_c, 10, 7, 101
14, 44069, Control_c, 10, 7, 100
14, 44070, Control_c, 10, 7, 99
14, 44071, Control_c, 10, 7, 98
14, 44072, Control_c, 10, 7, 98
14, 44073, Control_c, 10, 7, 97
14, 44074, Control_c, 10, 7, 96
14, 44075, Control_c, 10, 7, 95
14, 44076, Control_c, 10, 7, 94
14, 44077, Control_c, 10, 7, 93
14, 44078, Control_c, 10, 7, 93
14, 44079, Control_c, 10, 7, 92
14, 44080, Control_c, 10, 7, 91
14, 44081, Control_c, 10, 7, 90
14, 44082, Control_c, 10, 7, 89
14, 44083, Control_c, 10, 7, 88
14, 44084, Control_c, 10, 7, 87
14, 44085, Control_c, 10, 7, 87
14, 44086, Control_c, 10, 7, 86
14, 44087, Control_c, 10, 7, 85
14, 44088, Control_c, 10, 7, 84
14, 44089, Control_c, 10, 7, 83
14, 44090, Control_c, 10, 7, 82
14, 44091, Control_c, 10, 7, 82
14, 44092, Control_c, 10, 7, 81
14, 44093, Control_c, 10, 7, 80
14, 44094, Control_c, 10, 7, 79
14, 44095, Control_c, 10, 7, 78
14, 44096, Control_c, 10, 7, 77
14, 44097, Control_c, 10, 7, 76
14, 44098, Control_c, 10, 7, 76
14, 44099, Control_c, 10, 7, 75
14, 44100, Control_c, 10, 7, 74
14, 44101, Control_c, 10, 7, 73
14, 44102, Control_c, 10, 7, 72
14, 44103, Control_c, 10, 7, 71
14, 44104, Control_c, 10, 7, 71
14, 44105, Control_c, 10, 7, 70
14, 44106, Control_c, 10, 7, 69
14, 44107, Control_c, 10, 7, 68
14, 44108, Control_c, 10, 7, 67
14, 44109, Control_c, 10, 7, 66
14, 44110, Control_c, 10, 7, 65
14, 44111, Control_c, 10, 7, 102
14, 44112, Note_off_c, 10, 51, 64
14, 44112, Note_off_c, 10, 27, 64
14, 44112, Note_off_c, 10, 39, 64
14, 44112, Control_c, 10, 7, 102
14, 44112, Note_on_c, 10, 39, 127
14, 44112, Note_on_c, 10, 27, 127
14, 44112, Note_on_c, 10, 51, 127
14, 44113, Control_c, 10, 7, 101
14, 44114, Control_c, 10, 7, 100
14, 44115, Control_c, 10, 7, 99
14, 44116, Control_c, 10, 7, 98
14, 44117, Control_c, 10, 7, 97
14, 44118, Control_c, 10, 7, 96
14, 44119, Control_c, 10, 7, 96
14, 44120, Control_c, 10, 7, 95
14, 44121, Control_c, 10, 7, 94
14, 44122, Control_c, 10, 7, 93
14, 44123, Control_c, 10, 7, 92
14, 44124, Control_c, 10, 7, 91
14, 44125, Control_c, 10, 7, 90
14, 44126, Control_c, 10, 7, 89
14, 44127, Control_c, 10, 7, 89
14, 44128, Control_c, 10, 7, 88
14, 44129, Control_c, 10, 7, 87
14, 44130, Control_c, 10, 7, 86
14, 44131, Control_c, 10, 7, 85
14, 44132, Control_c, 10, 7, 84
14, 44133, Control_c, 10, 7, 83
14, 44134, Control_c, 10, 7, 83
14, 44135, Control_c, 10, 7, 82
14, 44136, Control_c, 10, 7, 81
14, 44137, Control_c, 10, 7, 80
14, 44138, Control_c, 10, 7, 79
14, 44139, Control_c, 10, 7, 78
14, 44140, Control_c, 10, 7, 77
14, 44141, Control_c, 10, 7, 77
14, 44142, Control_c, 10, 7, 76
14, 44143, Control_c, 10, 7, 75
14, 44144, Control_c, 10, 7, 74
14, 44145, Control_c, 10, 7, 73
14, 44146, Control_c, 10, 7, 72
14, 44147, Control_c, 10, 7, 71
14, 44148, Control_c, 10, 7, 71
14, 44149, Control_c, 10, 7, 70
14, 44150, Control_c, 10, 7, 69
14, 44151, Control_c, 10, 7, 68
14, 44152, Control_c, 10, 7, 67
14, 44153, Control_c, 10, 7, 66
14, 44154, Control_c, 10, 7, 65
14, 44155, Control_c, 10, 7, 65
14, 44156, Control_c, 10, 7, 64
14, 44157, Control_c, 10, 7, 63
14, 44160, Note_off_c, 10, 39, 64
14, 44160, Note_off_c, 10, 51, 64
14, 44160, Note_off_c, 10, 27, 64
14, 44160, Control_c, 10, 7, 113
14, 44160, Note_on_c, 10, 39, 127
14, 44160, Note_on_c, 10, 27, 127
14, 44160, Note_on_c, 10, 51, 127
14, 44161, Control_c, 10, 7, 113
14, 44162, Control_c, 10, 7, 112
14, 44163, Control_c, 10, 7, 112
14, 44164, Control_c, 10, 7, 112
14, 44165, Control_c, 10, 7, 111
14, 44166, Control_c, 10, 7, 111
14, 44167, Control_c, 10, 7, 110
14, 44168, Control_c, 10, 7, 110
14, 44169, Control_c, 10, 7, 110
14, 44170, Control_c, 10, 7, 109
14, 44171, Control_c, 10, 7, 109
14, 44172, Control_c, 10, 7, 109
14, 44173, Control_c, 10, 7, 108
14, 44174, Control_c, 10, 7, 108
14, 44175, Control_c, 10, 7, 108
14, 44176, Control_c, 10, 7, 107
14, 44177, Control_c, 10, 7, 107
14, 44178, Control_c, 10, 7, 107
14, 44179, Control_c, 10, 7, 106
14, 44180, Control_c, 10, 7, 106
14, 44181, Control_c, 10, 7, 106
14, 44182, Control_c, 10, 7, 105
14, 44183, Control_c, 10, 7, 105
14, 44184, Control_c, 10, 7, 104
14, 44185, Control_c, 10, 7, 104
14, 44186, Control_c, 10, 7, 104
14, 44187, Control_c, 10, 7, 103
14, 44188, Control_c, 10, 7, 103
14, 44189, Control_c, 10, 7, 103
14, 44190, Control_c, 10, 7, 102
14, 44191, Control_c, 10, 7, 102
14, 44192, Control_c, 10, 7, 102
14, 44193, Control_c, 10, 7, 101
14, 44194, Control_c, 10, 7, 101
14, 44195, Control_c, 10, 7, 101
14, 44196, Control_c, 10, 7, 100
14, 44197, Control_c, 10, 7, 100
14, 44198, Control_c, 10, 7, 100
14, 44199, Control_c, 10, 7, 99
14, 44200, Control_c, 10, 7, 99
14, 44201, Control_c, 10, 7, 98
14, 44202, Control_c, 10, 7, 98
14, 44203, Control_c, 10, 7, 98
14, 44204, Control_c, 10, 7, 97
14, 44205, Control_c, 10, 7, 97
14, 44206, Control_c, 10, 7, 97
14, 44207, Control_c, 10, 7, 96
14, 44208, Control_c, 10, 7, 96
14, 44209, Control_c, 10, 7, 96
14, 44210, Control_c, 10, 7, 95
14, 44211, Control_c, 10, 7, 95
14, 44212, Control_c, 10, 7, 95
14, 44213, Control_c, 10, 7, 94
14, 44214, Control_c, 10, 7, 94
14, 44215, Control_c, 10, 7, 94
14, 44216, Control_c, 10, 7, 93
14, 44217, Control_c, 10, 7, 93
14, 44218, Control_c, 10, 7, 92
14, 44219, Control_c, 10, 7, 92
14, 44220, Control_c, 10, 7, 92
14, 44221, Control_c, 10, 7, 91
14, 44222, Control_c, 10, 7, 91
14, 44223, Control_c, 10, 7, 91
14, 44224, Control_c, 10, 7, 90
14, 44225, Control_c, 10, 7, 90
14, 44226, Control_c, 10, 7, 90
14, 44227, Control_c, 10, 7, 89
14, 44228, Control_c, 10, 7, 89
14, 44229, Control_c, 10, 7, 89
14, 44230, Control_c, 10, 7, 88
14, 44231, Control_c, 10, 7, 88
14, 44232, Control_c, 10, 7, 88
14, 44233, Control_c, 10, 7, 87
14, 44234, Control_c, 10, 7, 87
14, 44235, Control_c, 10, 7, 86
14, 44236, Control_c, 10, 7, 86
14, 44237, Control_c, 10, 7, 86
14, 44238, Control_c, 10, 7, 85
14, 44239, Control_c, 10, 7, 85
14, 44240, Control_c, 10, 7, 85
14, 44241, Control_c, 10, 7, 84
14, 44242, Control_c, 10, 7, 84
14, 44243, Control_c, 10, 7, 84
14, 44244, Control_c, 10, 7, 83
14, 44245, Control_c, 10, 7, 83
14, 44246, Control_c, 10, 7, 83
14, 44247, Control_c, 10, 7, 82
14, 44248, Control_c, 10, 7, 82
14, 44249, Control_c, 10, 7, 82
14, 44250, Control_c, 10, 7, 81
14, 44251, Control_c, 10, 7, 81
14, 44252, Control_c, 10, 7, 80
14, 44253, Control_c, 10, 7, 80
14, 44254, Control_c, 10, 7, 80
14, 44255, Control_c, 10, 7, 79
14, 44256, Control_c, 10, 7, 79
14, 44257, Control_c, 10, 7, 79
14, 44258, Control_c, 10, 7, 78
14, 44259, Control_c, 10, 7, 78
14, 44260, Control_c, 10, 7, 78
14, 44261, Control_c, 10, 7, 77
14, 44262, Control_c, 10, 7, 77
14, 44263, Control_c, 10, 7, 77
14, 44264, Control_c, 10, 7, 76
14, 44265, Control_c, 10, 7, 76
14, 44266, Control_c, 10, 7, 76
14, 44267, Control_c, 10, 7, 75
14, 44268, Control_c, 10, 7, 75
14, 44269, Control_c, 10, 7, 74
14, 44270, Control_c, 10, 7, 74
14, 44271, Control_c, 10, 7, 74
14, 44272, Control_c, 10, 7, 73
14, 44273, Control_c, 10, 7, 73
14, 44274, Control_c, 10, 7, 73
14, 44275, Control_c, 10, 7, 72
14, 44276, Control_c, 10, 7, 72
14, 44277, Control_c, 10, 7, 72
14, 44278, Control_c, 10, 7, 71
14, 44279, Control_c, 10, 7, 71
14, 44280, Control_c, 10, 7, 71
14, 44281, Control_c, 10, 7, 70
14, 44282, Control_c, 10, 7, 70
14, 44283, Control_c, 10, 7, 70
14, 44284, Control_c, 10, 7, 69
14, 44285, Control_c, 10, 7, 69
14, 44286, Control_c, 10, 7, 68
14, 44287, Control_c, 10, 7, 68
14, 44288, Control_c, 10, 7, 68
14, 44289, Control_c, 10, 7, 67
14, 44290, Control_c, 10, 7, 67
14, 44291, Control_c, 10, 7, 67
14, 44292, Control_c, 10, 7, 66
14, 44293, Control_c, 10, 7, 66
14, 44294, Control_c, 10, 7, 66
14, 44295, Control_c, 10, 7, 65
14, 44296, Control_c, 10, 7, 65
14, 44297, Control_c, 10, 7, 65
14, 44298, Control_c, 10, 7, 64
14, 44299, Control_c, 10, 7, 64
14, 44300, Control_c, 10, 7, 64
14, 44301, Control_c, 10, 7, 63
14, 44302, Control_c, 10, 7, 111
14, 44303, Control_c, 10, 7, 111
14, 44304, Note_off_c, 10, 51, 64
14, 44304, Note_off_c, 10, 27, 64
14, 44304, Note_off_c, 10, 39, 64
14, 44304, Control_c, 10, 7, 110
14, 44304, Note_on_c, 10, 39, 127
14, 44304, Note_on_c, 10, 51, 127
14, 44304, Note_on_c, 10, 27, 127
14, 44305, Control_c, 10, 7, 110
14, 44306, Control_c, 10, 7, 110
14, 44307, Control_c, 10, 7, 109
14, 44308, Control_c, 10, 7, 109
14, 44309, Control_c, 10, 7, 109
14, 44310, Control_c, 10, 7, 109
14, 44311, Control_c, 10, 7, 108
14, 44312, Control_c, 10, 7, 108
14, 44313, Control_c, 10, 7, 108
14, 44314, Control_c, 10, 7, 107
14, 44315, Control_c, 10, 7, 107
14, 44316, Control_c, 10, 7, 107
14, 44317, Control_c, 10, 7, 106
14, 44318, Control_c, 10, 7, 106
14, 44319, Control_c, 10, 7, 106
14, 44320, Control_c, 10, 7, 105
14, 44321, Control_c, 10, 7, 105
14, 44322, Control_c, 10, 7, 105
14, 44323, Control_c, 10, 7, 104
14, 44324, Control_c, 10, 7, 104
14, 44325, Control_c, 10, 7, 104
14, 44326, Control_c, 10, 7, 103
14, 44327, Control_c, 10, 7, 103
14, 44328, Control_c, 10, 7, 103
14, 44329, Control_c, 10, 7, 102
14, 44330, Control_c, 10, 7, 102
14, 44331, Control_c, 10, 7, 102
14, 44332, Control_c, 10, 7, 101
14, 44333, Control_c, 10, 7, 101
14, 44334, Control_c, 10, 7, 101
14, 44335, Control_c, 10, 7, 100
14, 44336, Control_c, 10, 7, 100
14, 44337, Control_c, 10, 7, 100
14, 44338, Control_c, 10, 7, 99
14, 44339, Control_c, 10, 7, 99
14, 44340, Control_c, 10, 7, 99
14, 44341, Control_c, 10, 7, 98
14, 44342, Control_c, 10, 7, 98
14, 44343, Control_c, 10, 7, 98
14, 44344, Control_c, 10, 7, 97
14, 44345, Control_c, 10, 7, 97
14, 44346, Control_c, 10, 7, 97
14, 44347, Control_c, 10, 7, 96
14, 44348, Control_c, 10, 7, 96
14, 44349, Control_c, 10, 7, 96
14, 44350, Control_c, 10, 7, 95
14, 44351, Control_c, 10, 7, 95
14, 44352, Control_c, 10, 7, 95
14, 44353, Control_c, 10, 7, 94
14, 44354, Control_c, 10, 7, 94
14, 44355, Control_c, 10, 7, 94
14, 44356, Control_c, 10, 7, 93
14, 44357, Control_c, 10, 7, 93
14, 44358, Control_c, 10, 7, 93
14, 44359, Control_c, 10, 7, 92
14, 44360, Control_c, 10, 7, 92
14, 44361, Control_c, 10, 7, 92
14, 44362, Control_c, 10, 7, 91
14, 44363, Control_c, 10, 7, 91
14, 44364, Control_c, 10, 7, 91
14, 44365, Control_c, 10, 7, 90
14, 44366, Control_c, 10, 7, 90
14, 44367, Control_c, 10, 7, 90
14, 44368, Control_c, 10, 7, 89
14, 44369, Control_c, 10, 7, 89
14, 44370, Control_c, 10, 7, 89
14, 44371, Control_c, 10, 7, 88
14, 44372, Control_c, 10, 7, 88
14, 44373, Control_c, 10, 7, 88
14, 44374, Control_c, 10, 7, 87
14, 44375, Control_c, 10, 7, 87
14, 44376, Control_c, 10, 7, 87
14, 44377, Control_c, 10, 7, 86
14, 44378, Control_c, 10, 7, 86
14, 44379, Control_c, 10, 7, 86
14, 44380, Control_c, 10, 7, 85
14, 44381, Control_c, 10, 7, 85
14, 44382, Control_c, 10, 7, 85
14, 44383, Control_c, 10, 7, 84
14, 44384, Control_c, 10, 7, 84
14, 44385, Control_c, 10, 7, 84
14, 44386, Control_c, 10, 7, 83
14, 44387, Control_c, 10, 7, 83
14, 44388, Control_c, 10, 7, 83
14, 44389, Control_c, 10, 7, 82
14, 44390, Control_c, 10, 7, 82
14, 44391, Control_c, 10, 7, 82
14, 44392, Control_c, 10, 7, 81
14, 44393, Control_c, 10, 7, 81
14, 44394, Control_c, 10, 7, 81
14, 44395, Control_c, 10, 7, 80
14, 44396, Control_c, 10, 7, 80
14, 44397, Control_c, 10, 7, 80
14, 44398, Control_c, 10, 7, 79
14, 44399, Control_c, 10, 7, 79
14, 44400, Control_c, 10, 7, 79
14, 44401, Control_c, 10, 7, 78
14, 44402, Control_c, 10, 7, 78
14, 44403, Control_c, 10, 7, 78
14, 44404, Control_c, 10, 7, 77
14, 44405, Control_c, 10, 7, 77
14, 44406, Control_c, 10, 7, 77
14, 44407, Control_c, 10, 7, 76
14, 44408, Control_c, 10, 7, 76
14, 44409, Control_c, 10, 7, 76
14, 44410, Control_c, 10, 7, 75
14, 44411, Control_c, 10, 7, 75
14, 44412, Control_c, 10, 7, 75
14, 44413, Control_c, 10, 7, 74
14, 44414, Control_c, 10, 7, 74
14, 44415, Control_c, 10, 7, 74
14, 44416, Control_c, 10, 7, 73
14, 44417, Control_c, 10, 7, 73
14, 44418, Control_c, 10, 7, 73
14, 44419, Control_c, 10, 7, 72
14, 44420, Control_c, 10, 7, 72
14, 44421, Control_c, 10, 7, 72
14, 44422, Control_c, 10, 7, 71
14, 44423, Control_c, 10, 7, 71
14, 44424, Control_c, 10, 7, 71
14, 44425, Control_c, 10, 7, 70
14, 44426, Control_c, 10, 7, 70
14, 44427, Control_c, 10, 7, 70
14, 44428, Control_c, 10, 7, 69
14, 44429, Control_c, 10, 7, 69
14, 44430, Control_c, 10, 7, 69
14, 44431, Control_c, 10, 7, 68
14, 44432, Control_c, 10, 7, 68
14, 44433, Control_c, 10, 7, 68
14, 44434, Control_c, 10, 7, 67
14, 44435, Control_c, 10, 7, 67
14, 44436, Control_c, 10, 7, 67
14, 44437, Control_c, 10, 7, 66
14, 44438, Control_c, 10, 7, 66
14, 44439, Control_c, 10, 7, 66
14, 44440, Control_c, 10, 7, 65
14, 44441, Control_c, 10, 7, 65
14, 44442, Control_c, 10, 7, 65
14, 44443, Control_c, 10, 7, 64
14, 44444, Control_c, 10, 7, 64
14, 44445, Control_c, 10, 7, 64
14, 44446, Control_c, 10, 7, 63
14, 44447, Control_c, 10, 7, 63
14, 44448, Note_off_c, 10, 27, 64
14, 44448, Note_off_c, 10, 51, 64
14, 44448, Note_off_c, 10, 39, 64
14, 44448, Control_c, 10, 7, 64
14, 44448, Note_on_c, 10, 39, 127
14, 44448, Note_on_c, 10, 51, 127
14, 44448, Note_on_c, 10, 27, 127
14, 44449, Control_c, 10, 7, 64
14, 44450, Control_c, 10, 7, 65
14, 44451, Control_c, 10, 7, 65
14, 44452, Control_c, 10, 7, 66
14, 44453, Control_c, 10, 7, 66
14, 44454, Control_c, 10, 7, 67
14, 44455, Control_c, 10, 7, 67
14, 44456, Control_c, 10, 7, 68
14, 44457, Control_c, 10, 7, 68
14, 44458, Control_c, 10, 7, 69
14, 44459, Control_c, 10, 7, 69
14, 44460, Control_c, 10, 7, 70
14, 44461, Control_c, 10, 7, 70
14, 44462, Control_c, 10, 7, 71
14, 44463, Control_c, 10, 7, 71
14, 44464, Control_c, 10, 7, 72
14, 44465, Control_c, 10, 7, 72
14, 44466, Control_c, 10, 7, 73
14, 44467, Control_c, 10, 7, 73
14, 44468, Control_c, 10, 7, 74
14, 44469, Control_c, 10, 7, 74
14, 44470, Control_c, 10, 7, 75
14, 44471, Control_c, 10, 7, 75
14, 44472, Control_c, 10, 7, 76
14, 44473, Control_c, 10, 7, 76
14, 44474, Control_c, 10, 7, 77
14, 44475, Control_c, 10, 7, 77
14, 44476, Control_c, 10, 7, 78
14, 44477, Control_c, 10, 7, 78
14, 44478, Control_c, 10, 7, 79
14, 44479, Control_c, 10, 7, 79
14, 44480, Control_c, 10, 7, 80
14, 44481, Control_c, 10, 7, 80
14, 44482, Control_c, 10, 7, 81
14, 44483, Control_c, 10, 7, 81
14, 44484, Control_c, 10, 7, 82
14, 44485, Control_c, 10, 7, 82
14, 44486, Control_c, 10, 7, 83
14, 44487, Control_c, 10, 7, 83
14, 44488, Control_c, 10, 7, 84
14, 44489, Control_c, 10, 7, 84
14, 44490, Control_c, 10, 7, 85
14, 44491, Control_c, 10, 7, 85
14, 44492, Control_c, 10, 7, 86
14, 44493, Control_c, 10, 7, 86
14, 44494, Control_c, 10, 7, 87
14, 44495, Control_c, 10, 7, 87
14, 44496, Control_c, 10, 7, 88
14, 44497, Control_c, 10, 7, 88
14, 44498, Control_c, 10, 7, 89
14, 44499, Control_c, 10, 7, 89
14, 44500, Control_c, 10, 7, 90
14, 44501, Control_c, 10, 7, 90
14, 44502, Control_c, 10, 7, 91
14, 44503, Control_c, 10, 7, 91
14, 44504, Control_c, 10, 7, 92
14, 44505, Control_c, 10, 7, 92
14, 44506, Control_c, 10, 7, 93
14, 44507, Control_c, 10, 7, 93
14, 44508, Control_c, 10, 7, 94
14, 44509, Control_c, 10, 7, 94
14, 44510, Control_c, 10, 7, 95
14, 44511, Control_c, 10, 7, 95
14, 44512, Control_c, 10, 7, 96
14, 44513, Control_c, 10, 7, 96
14, 44514, Control_c, 10, 7, 97
14, 44515, Control_c, 10, 7, 97
14, 44516, Control_c, 10, 7, 98
14, 44517, Control_c, 10, 7, 98
14, 44518, Control_c, 10, 7, 99
14, 44519, Control_c, 10, 7, 99
14, 44520, Control_c, 10, 7, 100
14, 44521, Control_c, 10, 7, 100
14, 44522, Control_c, 10, 7, 101
14, 44523, Control_c, 10, 7, 101
14, 44524, Control_c, 10, 7, 102
14, 44525, Control_c, 10, 7, 102
14, 44526, Control_c, 10, 7, 103
14, 44527, Control_c, 10, 7, 103
14, 44528, Control_c, 10, 7, 104
14, 44529, Control_c, 10, 7, 104
14, 44530, Control_c, 10, 7, 105
14, 44531, Control_c, 10, 7, 105
14, 44532, Control_c, 10, 7, 106
14, 44533, Control_c, 10, 7, 106
14, 44534, Control_c, 10, 7, 107
14, 44535, Control_c, 10, 7, 107
14, 44536, Control_c, 10, 7, 108
14, 44537, Control_c, 10, 7, 108
14, 44538, Control_c, 10, 7, 109
14, 44539, Control_c, 10, 7, 109
14, 44540, Control_c, 10, 7, 110
14, 44541, Control_c, 10, 7, 110
14, 44542, Control_c, 10, 7, 111
14, 44543, Control_c, 10, 7, 111
14, 44544, Note_off_c, 10, 27, 64
14, 44544, Note_off_c, 10, 51, 64
14, 44544, Note_off_c, 10, 39, 64
14, 44544, Control_c, 10, 7, 112
14, 44544, Note_on_c, 10, 39, 127
14, 44544, Note_on_c, 10, 51, 127
14, 44544, Note_on_c, 10, 27, 127
14, 44545, Control_c, 10, 7, 64
14, 44546, Control_c, 10, 7, 65
14, 44547, Control_c, 10, 7, 66
14, 44548, Control_c, 10, 7, 67
14, 44549, Control_c, 10, 7, 68
14, 44550, Control_c, 10, 7, 69
14, 44551, Control_c, 10, 7, 69
14, 44552, Control_c, 10, 7, 70
14, 44553, Control_c, 10, 7, 71
14, 44554, Control_c, 10, 7, 72
14, 44555, Control_c, 10, 7, 73
14, 44556, Control_c, 10, 7, 74
14, 44557, Control_c, 10, 7, 75
14, 44558, Control_c, 10, 7, 76
14, 44559, Control_c, 10, 7, 77
14, 44560, Control_c, 10, 7, 78
14, 44561, Control_c, 10, 7, 79
14, 44562, Control_c, 10, 7, 80
14, 44563, Control_c, 10, 7, 81
14, 44564, Control_c, 10, 7, 82
14, 44565, Control_c, 10, 7, 83
14, 44566, Control_c, 10, 7, 85
14, 44567, Control_c, 10, 7, 86
14, 44568, Control_c, 10, 7, 87
14, 44569, Control_c, 10, 7, 88
14, 44570, Control_c, 10, 7, 89
14, 44571, Control_c, 10, 7, 90
14, 44572, Control_c, 10, 7, 91
14, 44573, Control_c, 10, 7, 92
14, 44574, Control_c, 10, 7, 93
14, 44575, Control_c, 10, 7, 94
14, 44576, Control_c, 10, 7, 95
14, 44577, Control_c, 10, 7, 96
14, 44578, Control_c, 10, 7, 97
14, 44579, Control_c, 10, 7, 98
14, 44580, Control_c, 10, 7, 99
14, 44581, Control_c, 10, 7, 100
14, 44582, Control_c, 10, 7, 102
14, 44583, Control_c, 10, 7, 103
14, 44584, Control_c, 10, 7, 104
14, 44585, Control_c, 10, 7, 105
14, 44586, Control_c, 10, 7, 106
14, 44587, Control_c, 10, 7, 107
14, 44588, Control_c, 10, 7, 108
14, 44589, Control_c, 10, 7, 109
14, 44590, Control_c, 10, 7, 110
14, 44591, Control_c, 10, 7, 111
14, 44592, Note_off_c, 10, 27, 64
14, 44592, Note_off_c, 10, 51, 64
14, 44592, Note_off_c, 10, 39, 64
14, 44592, Control_c, 10, 7, 65
14, 44592, Note_on_c, 10, 39, 127
14, 44592, Note_on_c, 10, 51, 127
14, 44592, Note_on_c, 10, 27, 127
14, 44593, Control_c, 10, 7, 66
14, 44594, Control_c, 10, 7, 67
14, 44595, Control_c, 10, 7, 67
14, 44596, Control_c, 10, 7, 68
14, 44597, Control_c, 10, 7, 69
14, 44598, Control_c, 10, 7, 70
14, 44599, Control_c, 10, 7, 71
14, 44600, Control_c, 10, 7, 72
14, 44601, Control_c, 10, 7, 73
14, 44602, Control_c, 10, 7, 74
14, 44603, Control_c, 10, 7, 75
14, 44604, Control_c, 10, 7, 76
14, 44605, Control_c, 10, 7, 77
14, 44606, Control_c, 10, 7, 78
14, 44607, Control_c, 10, 7, 79
14, 44608, Control_c, 10, 7, 80
14, 44609, Control_c, 10, 7, 81
14, 44610, Control_c, 10, 7, 82
14, 44611, Control_c, 10, 7, 83
14, 44612, Control_c, 10, 7, 84
14, 44613, Control_c, 10, 7, 85
14, 44614, Control_c, 10, 7, 86
14, 44615, Control_c, 10, 7, 87
14, 44616, Control_c, 10, 7, 88
14, 44617, Control_c, 10, 7, 89
14, 44618, Control_c, 10, 7, 89
14, 44619, Control_c, 10, 7, 90
14, 44620, Control_c, 10, 7, 91
14, 44621, Control_c, 10, 7, 92
14, 44622, Control_c, 10, 7, 93
14, 44623, Control_c, 10, 7, 94
14, 44624, Control_c, 10, 7, 95
14, 44625, Control_c, 10, 7, 96
14, 44626, Control_c, 10, 7, 97
14, 44627, Control_c, 10, 7, 98
14, 44628, Control_c, 10, 7, 99
14, 44629, Control_c, 10, 7, 100
14, 44630, Control_c, 10, 7, 101
14, 44631, Control_c, 10, 7, 102
14, 44632, Control_c, 10, 7, 103
14, 44633, Control_c, 10, 7, 104
14, 44634, Control_c, 10, 7, 105
14, 44635, Control_c, 10, 7, 106
14, 44636, Control_c, 10, 7, 107
14, 44637, Control_c, 10, 7, 108
14, 44638, Control_c, 10, 7, 109
14, 44639, Control_c, 10, 7, 110
14, 44640, Note_off_c, 10, 27, 64
14, 44640, Note_off_c, 10, 51, 64
14, 44640, Note_off_c, 10, 39, 64
14, 44640, Control_c, 10, 7, 64
14, 44640, Note_on_c, 10, 39, 127
14, 44640, Note_on_c, 10, 51, 127
14, 44640, Note_on_c, 10, 27, 127
14, 44641, Control_c, 10, 7, 65
14, 44642, Control_c, 10, 7, 65
14, 44643, Control_c, 10, 7, 66
14, 44644, Control_c, 10, 7, 67
14, 44645, Control_c, 10, 7, 68
14, 44646, Control_c, 10, 7, 69
14, 44647, Control_c, 10, 7, 70
14, 44648, Control_c, 10, 7, 70
14, 44649, Control_c, 10, 7, 71
14, 44650, Control_c, 10, 7, 72
14, 44651, Control_c, 10, 7, 73
14, 44652, Control_c, 10, 7, 74
14, 44653, Control_c, 10, 7, 75
14, 44654, Control_c, 10, 7, 76
14, 44655, Control_c, 10, 7, 77
14, 44656, Control_c, 10, 7, 78
14, 44657, Control_c, 10, 7, 79
14, 44658, Control_c, 10, 7, 80
14, 44659, Control_c, 10, 7, 81
14, 44660, Control_c, 10, 7, 82
14, 44661, Control_c, 10, 7, 83
14, 44662, Control_c, 10, 7, 84
14, 44663, Control_c, 10, 7, 85
14, 44664, Control_c, 10, 7, 86
14, 44665, Control_c, 10, 7, 88
14, 44666, Control_c, 10, 7, 89
14, 44667, Control_c, 10, 7, 90
14, 44668, Control_c, 10, 7, 91
14, 44669, Control_c, 10, 7, 92
14, 44670, Control_c, 10, 7, 93
14, 44671, Control_c, 10, 7, 94
14, 44672, Control_c, 10, 7, 95
14, 44673, Control_c, 10, 7, 96
14, 44674, Control_c, 10, 7, 97
14, 44675, Control_c, 10, 7, 98
14, 44676, Control_c, 10, 7, 99
14, 44677, Control_c, 10, 7, 100
14, 44678, Control_c, 10, 7, 101
14, 44679, Control_c, 10, 7, 102
14, 44680, Control_c, 10, 7, 103
14, 44681, Control_c, 10, 7, 104
14, 44682, Control_c, 10, 7, 105
14, 44683, Control_c, 10, 7, 106
14, 44684, Control_c, 10, 7, 107
14, 44685, Control_c, 10, 7, 108
14, 44686, Control_c, 10, 7, 109
14, 44687, Control_c, 10, 7, 110
14, 44688, Note_off_c, 10, 39, 64
14, 44688, Note_off_c, 10, 27, 64
14, 44688, Note_off_c, 10, 51, 64
14, 44688, Control_c, 10, 7, 66
14, 44688, Note_on_c, 10, 39, 127
14, 44688, Note_on_c, 10, 51, 127
14, 44688, Note_on_c, 10, 27, 127
14, 44689, Control_c, 10, 7, 67
14, 44690, Control_c, 10, 7, 68
14, 44691, Control_c, 10, 7, 69
14, 44692, Control_c, 10, 7, 69
14, 44693, Control_c, 10, 7, 70
14, 44694, Control_c, 10, 7, 71
14, 44695, Control_c, 10, 7, 72
14, 44696, Control_c, 10, 7, 73
14, 44697, Control_c, 10, 7, 74
14, 44698, Control_c, 10, 7, 75
14, 44699, Control_c, 10, 7, 76
14, 44700, Control_c, 10, 7, 77
14, 44701, Control_c, 10, 7, 77
14, 44702, Control_c, 10, 7, 78
14, 44703, Control_c, 10, 7, 79
14, 44704, Control_c, 10, 7, 80
14, 44705, Control_c, 10, 7, 81
14, 44706, Control_c, 10, 7, 82
14, 44707, Control_c, 10, 7, 83
14, 44708, Control_c, 10, 7, 84
14, 44709, Control_c, 10, 7, 84
14, 44710, Control_c, 10, 7, 85
14, 44711, Control_c, 10, 7, 86
14, 44712, Control_c, 10, 7, 87
14, 44713, Control_c, 10, 7, 88
14, 44714, Control_c, 10, 7, 89
14, 44715, Control_c, 10, 7, 90
14, 44716, Control_c, 10, 7, 91
14, 44717, Control_c, 10, 7, 91
14, 44718, Control_c, 10, 7, 92
14, 44719, Control_c, 10, 7, 93
14, 44720, Control_c, 10, 7, 94
14, 44721, Control_c, 10, 7, 95
14, 44722, Control_c, 10, 7, 96
14, 44723, Control_c, 10, 7, 97
14, 44724, Control_c, 10, 7, 98
14, 44725, Control_c, 10, 7, 98
14, 44726, Control_c, 10, 7, 99
14, 44727, Control_c, 10, 7, 100
14, 44728, Control_c, 10, 7, 101
14, 44729, Control_c, 10, 7, 102
14, 44730, Control_c, 10, 7, 103
14, 44731, Control_c, 10, 7, 104
14, 44732, Control_c, 10, 7, 104
14, 44733, Control_c, 10, 7, 105
14, 44734, Control_c, 10, 7, 106
14, 44735, Control_c, 10, 7, 107
14, 44736, Note_off_c, 10, 39, 64
14, 44736, Note_off_c, 10, 27, 64
14, 44736, Note_off_c, 10, 51, 64
14, 44736, Control_c, 10, 7, 67
14, 44736, Note_on_c, 10, 39, 127
14, 44736, Note_on_c, 10, 51, 127
14, 44736, Note_on_c, 10, 27, 127
14, 44737, Control_c, 10, 7, 68
14, 44738, Control_c, 10, 7, 69
14, 44739, Control_c, 10, 7, 70
14, 44740, Control_c, 10, 7, 71
14, 44741, Control_c, 10, 7, 72
14, 44742, Control_c, 10, 7, 73
14, 44743, Control_c, 10, 7, 74
14, 44744, Control_c, 10, 7, 75
14, 44745, Control_c, 10, 7, 75
14, 44746, Control_c, 10, 7, 76
14, 44747, Control_c, 10, 7, 77
14, 44748, Control_c, 10, 7, 78
14, 44749, Control_c, 10, 7, 79
14, 44750, Control_c, 10, 7, 80
14, 44751, Control_c, 10, 7, 81
14, 44752, Control_c, 10, 7, 82
14, 44753, Control_c, 10, 7, 83
14, 44754, Control_c, 10, 7, 84
14, 44755, Control_c, 10, 7, 85
14, 44756, Control_c, 10, 7, 86
14, 44757, Control_c, 10, 7, 87
14, 44758, Control_c, 10, 7, 88
14, 44759, Control_c, 10, 7, 89
14, 44760, Control_c, 10, 7, 90
14, 44761, Control_c, 10, 7, 90
14, 44762, Control_c, 10, 7, 91
14, 44763, Control_c, 10, 7, 92
14, 44764, Control_c, 10, 7, 93
14, 44765, Control_c, 10, 7, 94
14, 44766, Control_c, 10, 7, 95
14, 44767, Control_c, 10, 7, 96
14, 44768, Control_c, 10, 7, 97
14, 44769, Control_c, 10, 7, 98
14, 44770, Control_c, 10, 7, 99
14, 44771, Control_c, 10, 7, 100
14, 44772, Control_c, 10, 7, 101
14, 44773, Control_c, 10, 7, 102
14, 44774, Control_c, 10, 7, 103
14, 44775, Control_c, 10, 7, 104
14, 44776, Control_c, 10, 7, 105
14, 44777, Control_c, 10, 7, 106
14, 44778, Control_c, 10, 7, 106
14, 44779, Control_c, 10, 7, 107
14, 44780, Control_c, 10, 7, 108
14, 44781, Control_c, 10, 7, 109
14, 44782, Control_c, 10, 7, 110
14, 44783, Control_c, 10, 7, 111
14, 44784, Note_off_c, 10, 39, 64
14, 44784, Note_off_c, 10, 27, 64
14, 44784, Note_off_c, 10, 51, 64
14, 44784, Control_c, 10, 7, 61
14, 44784, Note_on_c, 10, 39, 127
14, 44784, Note_on_c, 10, 51, 127
14, 44784, Note_on_c, 10, 27, 127
14, 44785, Control_c, 10, 7, 62
14, 44786, Control_c, 10, 7, 63
14, 44787, Control_c, 10, 7, 64
14, 44788, Control_c, 10, 7, 65
14, 44789, Control_c, 10, 7, 66
14, 44790, Control_c, 10, 7, 67
14, 44791, Control_c, 10, 7, 68
14, 44792, Control_c, 10, 7, 70
14, 44793, Control_c, 10, 7, 71
14, 44794, Control_c, 10, 7, 72
14, 44795, Control_c, 10, 7, 73
14, 44796, Control_c, 10, 7, 74
14, 44797, Control_c, 10, 7, 75
14, 44798, Control_c, 10, 7, 76
14, 44799, Control_c, 10, 7, 78
14, 44800, Control_c, 10, 7, 79
14, 44801, Control_c, 10, 7, 80
14, 44802, Control_c, 10, 7, 81
14, 44803, Control_c, 10, 7, 82
14, 44804, Control_c, 10, 7, 83
14, 44805, Control_c, 10, 7, 84
14, 44806, Control_c, 10, 7, 85
14, 44807, Control_c, 10, 7, 87
14, 44808, Control_c, 10, 7, 88
14, 44809, Control_c, 10, 7, 89
14, 44810, Control_c, 10, 7, 90
14, 44811, Control_c, 10, 7, 91
14, 44812, Control_c, 10, 7, 92
14, 44813, Control_c, 10, 7, 93
14, 44814, Control_c, 10, 7, 95
14, 44815, Control_c, 10, 7, 96
14, 44816, Control_c, 10, 7, 97
14, 44817, Control_c, 10, 7, 98
14, 44818, Control_c, 10, 7, 99
14, 44819, Control_c, 10, 7, 100
14, 44820, Control_c, 10, 7, 101
14, 44821, Control_c, 10, 7, 102
14, 44822, Control_c, 10, 7, 104
14, 44823, Control_c, 10, 7, 105
14, 44824, Control_c, 10, 7, 106
14, 44825, Control_c, 10, 7, 107
14, 44826, Control_c, 10, 7, 108
14, 44827, Control_c, 10, 7, 110
14, 44828, Control_c, 10, 7, 111
14, 44829, Control_c, 10, 7, 112
14, 44830, Control_c, 10, 7, 113
14, 44831, Control_c, 10, 7, 114
14, 44832, Note_off_c, 10, 39, 64
14, 44832, Note_off_c, 10, 27, 64
14, 44832, Note_off_c, 10, 51, 64
14, 44832, Control_c, 10, 7, 65
14, 44832, Note_on_c, 10, 39, 127
14, 44832, Note_on_c, 10, 51, 127
14, 44832, Note_on_c, 10, 27, 127
14, 44833, Control_c, 10, 7, 66
14, 44834, Control_c, 10, 7, 67
14, 44835, Control_c, 10, 7, 68
14, 44836, Control_c, 10, 7, 70
14, 44837, Control_c, 10, 7, 71
14, 44838, Control_c, 10, 7, 72
14, 44839, Control_c, 10, 7, 73
14, 44840, Control_c, 10, 7, 74
14, 44841, Control_c, 10, 7, 75
14, 44842, Control_c, 10, 7, 76
14, 44843, Control_c, 10, 7, 77
14, 44844, Control_c, 10, 7, 78
14, 44845, Control_c, 10, 7, 79
14, 44846, Control_c, 10, 7, 80
14, 44847, Control_c, 10, 7, 81
14, 44848, Control_c, 10, 7, 82
14, 44849, Control_c, 10, 7, 83
14, 44850, Control_c, 10, 7, 84
14, 44851, Control_c, 10, 7, 85
14, 44852, Control_c, 10, 7, 86
14, 44853, Control_c, 10, 7, 88
14, 44854, Control_c, 10, 7, 89
14, 44855, Control_c, 10, 7, 90
14, 44856, Control_c, 10, 7, 91
14, 44857, Control_c, 10, 7, 92
14, 44858, Control_c, 10, 7, 93
14, 44859, Control_c, 10, 7, 94
14, 44860, Control_c, 10, 7, 95
14, 44861, Control_c, 10, 7, 96
14, 44862, Control_c, 10, 7, 97
14, 44863, Control_c, 10, 7, 98
14, 44864, Control_c, 10, 7, 99
14, 44865, Control_c, 10, 7, 100
14, 44866, Control_c, 10, 7, 101
14, 44867, Control_c, 10, 7, 102
14, 44868, Control_c, 10, 7, 103
14, 44869, Control_c, 10, 7, 105
14, 44870, Control_c, 10, 7, 106
14, 44871, Control_c, 10, 7, 107
14, 44872, Control_c, 10, 7, 108
14, 44873, Control_c, 10, 7, 109
14, 44874, Control_c, 10, 7, 109
14, 44875, Control_c, 10, 7, 110
14, 44876, Control_c, 10, 7, 112
14, 44877, Control_c, 10, 7, 113
14, 44878, Control_c, 10, 7, 114
14, 44879, Control_c, 10, 7, 115
14, 44880, Note_off_c, 10, 39, 64
14, 44880, Note_off_c, 10, 27, 64
14, 44880, Note_off_c, 10, 51, 64
14, 44880, Control_c, 10, 7, 67
14, 44880, Note_on_c, 10, 39, 127
14, 44880, Note_on_c, 10, 51, 127
14, 44880, Note_on_c, 10, 27, 127
14, 44881, Control_c, 10, 7, 68
14, 44882, Control_c, 10, 7, 69
14, 44883, Control_c, 10, 7, 70
14, 44884, Control_c, 10, 7, 71
14, 44885, Control_c, 10, 7, 71
14, 44886, Control_c, 10, 7, 72
14, 44887, Control_c, 10, 7, 73
14, 44888, Control_c, 10, 7, 74
14, 44889, Control_c, 10, 7, 75
14, 44890, Control_c, 10, 7, 76
14, 44891, Control_c, 10, 7, 77
14, 44892, Control_c, 10, 7, 78
14, 44893, Control_c, 10, 7, 79
14, 44894, Control_c, 10, 7, 80
14, 44895, Control_c, 10, 7, 81
14, 44896, Control_c, 10, 7, 82
14, 44897, Control_c, 10, 7, 83
14, 44898, Control_c, 10, 7, 84
14, 44899, Control_c, 10, 7, 85
14, 44900, Control_c, 10, 7, 86
14, 44901, Control_c, 10, 7, 87
14, 44902, Control_c, 10, 7, 88
14, 44903, Control_c, 10, 7, 89
14, 44904, Control_c, 10, 7, 90
14, 44905, Control_c, 10, 7, 91
14, 44906, Control_c, 10, 7, 92
14, 44907, Control_c, 10, 7, 93
14, 44908, Control_c, 10, 7, 94
14, 44909, Control_c, 10, 7, 95
14, 44910, Control_c, 10, 7, 96
14, 44911, Control_c, 10, 7, 97
14, 44912, Control_c, 10, 7, 98
14, 44913, Control_c, 10, 7, 99
14, 44914, Control_c, 10, 7, 100
14, 44915, Control_c, 10, 7, 101
14, 44916, Control_c, 10, 7, 102
14, 44917, Control_c, 10, 7, 103
14, 44918, Control_c, 10, 7, 104
14, 44919, Control_c, 10, 7, 104
14, 44920, Control_c, 10, 7, 105
14, 44921, Control_c, 10, 7, 106
14, 44922, Control_c, 10, 7, 107
14, 44923, Control_c, 10, 7, 108
14, 44924, Control_c, 10, 7, 109
14, 44925, Control_c, 10, 7, 110
14, 44926, Control_c, 10, 7, 111
14, 44927, Control_c, 10, 7, 112
14, 44928, Note_off_c, 10, 27, 64
14, 44928, Note_off_c, 10, 51, 64
14, 44928, Note_off_c, 10, 39, 64
14, 44928, Control_c, 10, 7, 50
14, 44928, Note_on_c, 10, 41, 127
14, 44928, Note_on_c, 10, 29, 127
14, 44928, Note_on_c, 10, 53, 127
14, 44930, Control_c, 10, 7, 50
14, 44931, Control_c, 10, 7, 51
14, 44932, Control_c, 10, 7, 51
14, 44933, Control_c, 10, 7, 52
14, 44934, Control_c, 10, 7, 52
14, 44935, Control_c, 10, 7, 52
14, 44936, Control_c, 10, 7, 53
14, 44937, Control_c, 10, 7, 53
14, 44938, Control_c, 10, 7, 54
14, 44939, Control_c, 10, 7, 54
14, 44940, Control_c, 10, 7, 54
14, 44941, Control_c, 10, 7, 55
14, 44942, Control_c, 10, 7, 55
14, 44943, Control_c, 10, 7, 55
14, 44944, Control_c, 10, 7, 56
14, 44945, Control_c, 10, 7, 56
14, 44946, Control_c, 10, 7, 57
14, 44947, Control_c, 10, 7, 57
14, 44948, Control_c, 10, 7, 57
14, 44949, Control_c, 10, 7, 58
14, 44950, Control_c, 10, 7, 58
14, 44951, Control_c, 10, 7, 59
14, 44952, Control_c, 10, 7, 59
14, 44953, Control_c, 10, 7, 59
14, 44954, Control_c, 10, 7, 60
14, 44955, Control_c, 10, 7, 60
14, 44956, Control_c, 10, 7, 61
14, 44957, Control_c, 10, 7, 61
14, 44958, Control_c, 10, 7, 61
14, 44959, Control_c, 10, 7, 62
14, 44960, Control_c, 10, 7, 62
14, 44961, Control_c, 10, 7, 62
14, 44962, Control_c, 10, 7, 63
14, 44963, Control_c, 10, 7, 63
14, 44964, Control_c, 10, 7, 64
14, 44965, Control_c, 10, 7, 64
14, 44966, Control_c, 10, 7, 64
14, 44967, Control_c, 10, 7, 65
14, 44968, Control_c, 10, 7, 65
14, 44969, Control_c, 10, 7, 66
14, 44970, Control_c, 10, 7, 66
14, 44971, Control_c, 10, 7, 66
14, 44972, Control_c, 10, 7, 67
14, 44973, Control_c, 10, 7, 67
14, 44974, Control_c, 10, 7, 68
14, 44975, Control_c, 10, 7, 68
14, 44976, Control_c, 10, 7, 68
14, 44977, Control_c, 10, 7, 69
14, 44978, Control_c, 10, 7, 69
14, 44979, Control_c, 10, 7, 69
14, 44980, Control_c, 10, 7, 70
14, 44981, Control_c, 10, 7, 70
14, 44982, Control_c, 10, 7, 71
14, 44983, Control_c, 10, 7, 71
14, 44984, Control_c, 10, 7, 71
14, 44985, Control_c, 10, 7, 72
14, 44986, Control_c, 10, 7, 72
14, 44987, Control_c, 10, 7, 73
14, 44988, Control_c, 10, 7, 73
14, 44989, Control_c, 10, 7, 73
14, 44990, Control_c, 10, 7, 74
14, 44991, Control_c, 10, 7, 74
14, 44992, Control_c, 10, 7, 75
14, 44993, Control_c, 10, 7, 75
14, 44994, Control_c, 10, 7, 75
14, 44995, Control_c, 10, 7, 76
14, 44996, Control_c, 10, 7, 76
14, 44997, Control_c, 10, 7, 76
14, 44998, Control_c, 10, 7, 77
14, 44999, Control_c, 10, 7, 77
14, 45000, Control_c, 10, 7, 78
14, 45001, Control_c, 10, 7, 78
14, 45002, Control_c, 10, 7, 78
14, 45003, Control_c, 10, 7, 79
14, 45004, Control_c, 10, 7, 79
14, 45005, Control_c, 10, 7, 80
14, 45006, Control_c, 10, 7, 80
14, 45007, Control_c, 10, 7, 80
14, 45008, Control_c, 10, 7, 81
14, 45009, Control_c, 10, 7, 81
14, 45010, Control_c, 10, 7, 82
14, 45011, Control_c, 10, 7, 82
14, 45012, Control_c, 10, 7, 82
14, 45013, Control_c, 10, 7, 83
14, 45014, Control_c, 10, 7, 83
14, 45015, Control_c, 10, 7, 83
14, 45016, Control_c, 10, 7, 84
14, 45017, Control_c, 10, 7, 84
14, 45018, Control_c, 10, 7, 85
14, 45019, Control_c, 10, 7, 85
14, 45020, Control_c, 10, 7, 85
14, 45021, Control_c, 10, 7, 86
14, 45022, Control_c, 10, 7, 86
14, 45023, Control_c, 10, 7, 87
14, 45024, Control_c, 10, 7, 87
14, 45025, Control_c, 10, 7, 87
14, 45026, Control_c, 10, 7, 88
14, 45027, Control_c, 10, 7, 88
14, 45028, Control_c, 10, 7, 89
14, 45029, Control_c, 10, 7, 89
14, 45030, Control_c, 10, 7, 89
14, 45031, Control_c, 10, 7, 90
14, 45032, Control_c, 10, 7, 90
14, 45033, Control_c, 10, 7, 90
14, 45034, Control_c, 10, 7, 91
14, 45035, Control_c, 10, 7, 91
14, 45036, Control_c, 10, 7, 92
14, 45037, Control_c, 10, 7, 92
14, 45038, Control_c, 10, 7, 92
14, 45039, Control_c, 10, 7, 93
14, 45040, Control_c, 10, 7, 93
14, 45041, Control_c, 10, 7, 94
14, 45042, Control_c, 10, 7, 94
14, 45043, Control_c, 10, 7, 94
14, 45044, Control_c, 10, 7, 95
14, 45045, Control_c, 10, 7, 95
14, 45046, Control_c, 10, 7, 96
14, 45047, Control_c, 10, 7, 96
14, 45048, Control_c, 10, 7, 96
14, 45049, Control_c, 10, 7, 97
14, 45050, Control_c, 10, 7, 97
14, 45051, Control_c, 10, 7, 97
14, 45052, Control_c, 10, 7, 98
14, 45053, Control_c, 10, 7, 98
14, 45054, Control_c, 10, 7, 99
14, 45055, Control_c, 10, 7, 99
14, 45056, Control_c, 10, 7, 99
14, 45057, Control_c, 10, 7, 100
14, 45058, Control_c, 10, 7, 100
14, 45059, Control_c, 10, 7, 101
14, 45060, Control_c, 10, 7, 101
14, 45061, Control_c, 10, 7, 101
14, 45062, Control_c, 10, 7, 102
14, 45063, Control_c, 10, 7, 102
14, 45064, Control_c, 10, 7, 103
14, 45065, Control_c, 10, 7, 103
14, 45066, Control_c, 10, 7, 103
14, 45067, Control_c, 10, 7, 104
14, 45068, Control_c, 10, 7, 104
14, 45069, Control_c, 10, 7, 104
14, 45070, Control_c, 10, 7, 105
14, 45071, Control_c, 10, 7, 105
14, 45072, Note_off_c, 10, 53, 64
14, 45072, Note_off_c, 10, 29, 64
14, 45072, Note_off_c, 10, 41, 64
14, 45072, Control_c, 10, 7, 54
14, 45072, Note_on_c, 10, 43, 127
14, 45072, Note_on_c, 10, 31, 127
14, 45072, Note_on_c, 10, 55, 127
14, 45073, Control_c, 10, 7, 55
14, 45074, Control_c, 10, 7, 55
14, 45075, Control_c, 10, 7, 56
14, 45076, Control_c, 10, 7, 57
14, 45077, Control_c, 10, 7, 57
14, 45078, Control_c, 10, 7, 57
14, 45079, Control_c, 10, 7, 58
14, 45080, Control_c, 10, 7, 58
14, 45081, Control_c, 10, 7, 58
14, 45082, Control_c, 10, 7, 59
14, 45083, Control_c, 10, 7, 59
14, 45084, Control_c, 10, 7, 59
14, 45085, Control_c, 10, 7, 60
14, 45086, Control_c, 10, 7, 60
14, 45087, Control_c, 10, 7, 61
14, 45088, Control_c, 10, 7, 61
14, 45089, Control_c, 10, 7, 61
14, 45090, Control_c, 10, 7, 62
14, 45091, Control_c, 10, 7, 62
14, 45092, Control_c, 10, 7, 62
14, 45093, Control_c, 10, 7, 63
14, 45094, Control_c, 10, 7, 63
14, 45095, Control_c, 10, 7, 63
14, 45096, Control_c, 10, 7, 63
14, 45097, Control_c, 10, 7, 64
14, 45098, Control_c, 10, 7, 64
14, 45099, Control_c, 10, 7, 65
14, 45100, Control_c, 10, 7, 65
14, 45101, Control_c, 10, 7, 65
14, 45102, Control_c, 10, 7, 66
14, 45103, Control_c, 10, 7, 66
14, 45104, Control_c, 10, 7, 66
14, 45105, Control_c, 10, 7, 67
14, 45106, Control_c, 10, 7, 67
14, 45107, Control_c, 10, 7, 68
14, 45108, Control_c, 10, 7, 68
14, 45109, Control_c, 10, 7, 68
14, 45110, Control_c, 10, 7, 69
14, 45111, Control_c, 10, 7, 69
14, 45112, Control_c, 10, 7, 69
14, 45113, Control_c, 10, 7, 70
14, 45114, Control_c, 10, 7, 70
14, 45115, Control_c, 10, 7, 71
14, 45116, Control_c, 10, 7, 71
14, 45117, Control_c, 10, 7, 71
14, 45118, Control_c, 10, 7, 72
14, 45119, Control_c, 10, 7, 72
14, 45120, Control_c, 10, 7, 73
14, 45121, Control_c, 10, 7, 73
14, 45122, Control_c, 10, 7, 73
14, 45123, Control_c, 10, 7, 74
14, 45124, Control_c, 10, 7, 74
14, 45125, Control_c, 10, 7, 74
14, 45126, Control_c, 10, 7, 75
14, 45127, Control_c, 10, 7, 75
14, 45128, Control_c, 10, 7, 76
14, 45129, Control_c, 10, 7, 76
14, 45130, Control_c, 10, 7, 76
14, 45131, Control_c, 10, 7, 77
14, 45132, Control_c, 10, 7, 77
14, 45133, Control_c, 10, 7, 77
14, 45134, Control_c, 10, 7, 78
14, 45135, Control_c, 10, 7, 78
14, 45136, Control_c, 10, 7, 79
14, 45137, Control_c, 10, 7, 79
14, 45138, Control_c, 10, 7, 79
14, 45139, Control_c, 10, 7, 80
14, 45140, Control_c, 10, 7, 80
14, 45141, Control_c, 10, 7, 80
14, 45142, Control_c, 10, 7, 81
14, 45143, Control_c, 10, 7, 81
14, 45144, Control_c, 10, 7, 82
14, 45145, Control_c, 10, 7, 82
14, 45146, Control_c, 10, 7, 82
14, 45147, Control_c, 10, 7, 83
14, 45148, Control_c, 10, 7, 83
14, 45149, Control_c, 10, 7, 84
14, 45150, Control_c, 10, 7, 84
14, 45151, Control_c, 10, 7, 84
14, 45152, Control_c, 10, 7, 85
14, 45153, Control_c, 10, 7, 85
14, 45154, Control_c, 10, 7, 85
14, 45155, Control_c, 10, 7, 86
14, 45156, Control_c, 10, 7, 86
14, 45157, Control_c, 10, 7, 87
14, 45158, Control_c, 10, 7, 87
14, 45159, Control_c, 10, 7, 87
14, 45160, Control_c, 10, 7, 88
14, 45161, Control_c, 10, 7, 88
14, 45162, Control_c, 10, 7, 88
14, 45163, Control_c, 10, 7, 89
14, 45164, Control_c, 10, 7, 89
14, 45165, Control_c, 10, 7, 90
14, 45166, Control_c, 10, 7, 90
14, 45167, Control_c, 10, 7, 90
14, 45168, Control_c, 10, 7, 91
14, 45169, Control_c, 10, 7, 91
14, 45170, Control_c, 10, 7, 92
14, 45171, Control_c, 10, 7, 92
14, 45172, Control_c, 10, 7, 92
14, 45173, Control_c, 10, 7, 93
14, 45174, Control_c, 10, 7, 93
14, 45175, Control_c, 10, 7, 93
14, 45176, Control_c, 10, 7, 94
14, 45177, Control_c, 10, 7, 94
14, 45178, Control_c, 10, 7, 95
14, 45179, Control_c, 10, 7, 95
14, 45180, Control_c, 10, 7, 95
14, 45181, Control_c, 10, 7, 96
14, 45182, Control_c, 10, 7, 96
14, 45183, Control_c, 10, 7, 96
14, 45184, Control_c, 10, 7, 97
14, 45185, Control_c, 10, 7, 97
14, 45186, Control_c, 10, 7, 98
14, 45187, Control_c, 10, 7, 98
14, 45188, Control_c, 10, 7, 98
14, 45189, Control_c, 10, 7, 99
14, 45190, Control_c, 10, 7, 99
14, 45191, Control_c, 10, 7, 99
14, 45192, Control_c, 10, 7, 100
14, 45193, Control_c, 10, 7, 100
14, 45194, Control_c, 10, 7, 101
14, 45195, Control_c, 10, 7, 101
14, 45196, Control_c, 10, 7, 101
14, 45197, Control_c, 10, 7, 102
14, 45198, Control_c, 10, 7, 102
14, 45199, Control_c, 10, 7, 103
14, 45200, Control_c, 10, 7, 103
14, 45201, Control_c, 10, 7, 103
14, 45202, Control_c, 10, 7, 104
14, 45203, Control_c, 10, 7, 104
14, 45204, Control_c, 10, 7, 104
14, 45205, Control_c, 10, 7, 105
14, 45206, Control_c, 10, 7, 105
14, 45207, Control_c, 10, 7, 106
14, 45208, Control_c, 10, 7, 106
14, 45209, Control_c, 10, 7, 106
14, 45210, Control_c, 10, 7, 107
14, 45211, Control_c, 10, 7, 107
14, 45212, Control_c, 10, 7, 107
14, 45213, Control_c, 10, 7, 108
14, 45214, Control_c, 10, 7, 108
14, 45215, Control_c, 10, 7, 109
14, 45216, Note_off_c, 10, 55, 64
14, 45216, Note_off_c, 10, 31, 64
14, 45216, Note_off_c, 10, 43, 64
14, 45216, Control_c, 10, 7, 108
14, 45216, Note_on_c, 10, 39, 127
14, 45216, Note_on_c, 10, 27, 127
14, 45216, Note_on_c, 10, 51, 127
14, 45217, Control_c, 10, 7, 108
14, 45218, Control_c, 10, 7, 107
14, 45219, Control_c, 10, 7, 107
14, 45220, Control_c, 10, 7, 106
14, 45221, Control_c, 10, 7, 106
14, 45222, Control_c, 10, 7, 105
14, 45223, Control_c, 10, 7, 105
14, 45224, Control_c, 10, 7, 105
14, 45225, Control_c, 10, 7, 104
14, 45226, Control_c, 10, 7, 104
14, 45227, Control_c, 10, 7, 103
14, 45228, Control_c, 10, 7, 103
14, 45229, Control_c, 10, 7, 102
14, 45230, Control_c, 10, 7, 102
14, 45231, Control_c, 10, 7, 101
14, 45232, Control_c, 10, 7, 101
14, 45233, Control_c, 10, 7, 100
14, 45234, Control_c, 10, 7, 100
14, 45235, Control_c, 10, 7, 99
14, 45236, Control_c, 10, 7, 99
14, 45237, Control_c, 10, 7, 98
14, 45238, Control_c, 10, 7, 98
14, 45239, Control_c, 10, 7, 97
14, 45240, Control_c, 10, 7, 97
14, 45241, Control_c, 10, 7, 96
14, 45242, Control_c, 10, 7, 96
14, 45243, Control_c, 10, 7, 95
14, 45244, Control_c, 10, 7, 95
14, 45245, Control_c, 10, 7, 94
14, 45246, Control_c, 10, 7, 94
14, 45247, Control_c, 10, 7, 93
14, 45248, Control_c, 10, 7, 93
14, 45249, Control_c, 10, 7, 92
14, 45250, Control_c, 10, 7, 92
14, 45251, Control_c, 10, 7, 91
14, 45252, Control_c, 10, 7, 91
14, 45253, Control_c, 10, 7, 90
14, 45254, Control_c, 10, 7, 90
14, 45255, Control_c, 10, 7, 89
14, 45256, Control_c, 10, 7, 89
14, 45257, Control_c, 10, 7, 88
14, 45258, Control_c, 10, 7, 88
14, 45259, Control_c, 10, 7, 87
14, 45260, Control_c, 10, 7, 87
14, 45261, Control_c, 10, 7, 86
14, 45262, Control_c, 10, 7, 86
14, 45263, Control_c, 10, 7, 85
14, 45264, Control_c, 10, 7, 85
14, 45265, Control_c, 10, 7, 84
14, 45266, Control_c, 10, 7, 84
14, 45267, Control_c, 10, 7, 83
14, 45268, Control_c, 10, 7, 83
14, 45269, Control_c, 10, 7, 82
14, 45270, Control_c, 10, 7, 82
14, 45271, Control_c, 10, 7, 81
14, 45272, Control_c, 10, 7, 81
14, 45273, Control_c, 10, 7, 80
14, 45274, Control_c, 10, 7, 80
14, 45275, Control_c, 10, 7, 79
14, 45276, Control_c, 10, 7, 79
14, 45277, Control_c, 10, 7, 78
14, 45278, Control_c, 10, 7, 78
14, 45279, Control_c, 10, 7, 77
14, 45280, Control_c, 10, 7, 77
14, 45281, Control_c, 10, 7, 76
14, 45282, Control_c, 10, 7, 76
14, 45283, Control_c, 10, 7, 75
14, 45284, Control_c, 10, 7, 75
14, 45285, Control_c, 10, 7, 74
14, 45286, Control_c, 10, 7, 74
14, 45287, Control_c, 10, 7, 73
14, 45288, Control_c, 10, 7, 73
14, 45289, Control_c, 10, 7, 72
14, 45290, Control_c, 10, 7, 72
14, 45291, Control_c, 10, 7, 71
14, 45292, Control_c, 10, 7, 71
14, 45293, Control_c, 10, 7, 70
14, 45294, Control_c, 10, 7, 70
14, 45295, Control_c, 10, 7, 69
14, 45296, Control_c, 10, 7, 69
14, 45297, Control_c, 10, 7, 68
14, 45298, Control_c, 10, 7, 68
14, 45299, Control_c, 10, 7, 67
14, 45300, Control_c, 10, 7, 67
14, 45301, Control_c, 10, 7, 66
14, 45302, Control_c, 10, 7, 66
14, 45303, Control_c, 10, 7, 65
14, 45304, Control_c, 10, 7, 65
14, 45305, Control_c, 10, 7, 64
14, 45306, Control_c, 10, 7, 64
14, 45307, Control_c, 10, 7, 63
14, 45308, Control_c, 10, 7, 63
14, 45309, Control_c, 10, 7, 62
14, 45310, Control_c, 10, 7, 62
14, 45311, Control_c, 10, 7, 61
14, 45312, Control_c, 10, 7, 61
14, 45360, Note_off_c, 10, 51, 64
14, 45360, Note_off_c, 10, 27, 64
14, 45360, Note_off_c, 10, 39, 64
14, 45360, Control_c, 10, 7, 102
14, 45360, Note_on_c, 10, 39, 127
14, 45360, Note_on_c, 10, 27, 127
14, 45360, Note_on_c, 10, 51, 127
14, 45361, Control_c, 10, 7, 102
14, 45362, Control_c, 10, 7, 101
14, 45363, Control_c, 10, 7, 100
14, 45364, Control_c, 10, 7, 99
14, 45365, Control_c, 10, 7, 98
14, 45366, Control_c, 10, 7, 97
14, 45367, Control_c, 10, 7, 96
14, 45368, Control_c, 10, 7, 95
14, 45369, Control_c, 10, 7, 95
14, 45370, Control_c, 10, 7, 94
14, 45371, Control_c, 10, 7, 93
14, 45372, Control_c, 10, 7, 92
14, 45373, Control_c, 10, 7, 91
14, 45374, Control_c, 10, 7, 90
14, 45375, Control_c, 10, 7, 89
14, 45376, Control_c, 10, 7, 88
14, 45377, Control_c, 10, 7, 87
14, 45378, Control_c, 10, 7, 87
14, 45379, Control_c, 10, 7, 86
14, 45380, Control_c, 10, 7, 85
14, 45381, Control_c, 10, 7, 84
14, 45382, Control_c, 10, 7, 83
14, 45383, Control_c, 10, 7, 82
14, 45384, Control_c, 10, 7, 81
14, 45385, Control_c, 10, 7, 80
14, 45386, Control_c, 10, 7, 80
14, 45387, Control_c, 10, 7, 79
14, 45388, Control_c, 10, 7, 78
14, 45389, Control_c, 10, 7, 77
14, 45390, Control_c, 10, 7, 76
14, 45391, Control_c, 10, 7, 75
14, 45392, Control_c, 10, 7, 74
14, 45393, Control_c, 10, 7, 73
14, 45394, Control_c, 10, 7, 73
14, 45395, Control_c, 10, 7, 72
14, 45396, Control_c, 10, 7, 71
14, 45397, Control_c, 10, 7, 70
14, 45398, Control_c, 10, 7, 69
14, 45399, Control_c, 10, 7, 68
14, 45400, Control_c, 10, 7, 67
14, 45401, Control_c, 10, 7, 66
14, 45402, Control_c, 10, 7, 66
14, 45403, Control_c, 10, 7, 65
14, 45404, Control_c, 10, 7, 64
14, 45405, Control_c, 10, 7, 63
14, 45406, Control_c, 10, 7, 62
14, 45407, Control_c, 10, 7, 61
14, 45408, Note_off_c, 10, 51, 64
14, 45408, Note_off_c, 10, 27, 64
14, 45408, Note_off_c, 10, 39, 64
14, 45408, Control_c, 10, 7, 102
14, 45408, Note_on_c, 10, 39, 127
14, 45408, Note_on_c, 10, 27, 127
14, 45408, Note_on_c, 10, 51, 127
14, 45409, Control_c, 10, 7, 102
14, 45410, Control_c, 10, 7, 101
14, 45411, Control_c, 10, 7, 100
14, 45412, Control_c, 10, 7, 99
14, 45413, Control_c, 10, 7, 98
14, 45414, Control_c, 10, 7, 97
14, 45415, Control_c, 10, 7, 96
14, 45416, Control_c, 10, 7, 96
14, 45417, Control_c, 10, 7, 95
14, 45418, Control_c, 10, 7, 94
14, 45419, Control_c, 10, 7, 93
14, 45420, Control_c, 10, 7, 92
14, 45421, Control_c, 10, 7, 91
14, 45422, Control_c, 10, 7, 91
14, 45423, Control_c, 10, 7, 90
14, 45424, Control_c, 10, 7, 89
14, 45425, Control_c, 10, 7, 88
14, 45426, Control_c, 10, 7, 87
14, 45427, Control_c, 10, 7, 86
14, 45428, Control_c, 10, 7, 85
14, 45429, Control_c, 10, 7, 85
14, 45430, Control_c, 10, 7, 84
14, 45431, Control_c, 10, 7, 83
14, 45432, Control_c, 10, 7, 82
14, 45433, Control_c, 10, 7, 81
14, 45434, Control_c, 10, 7, 80
14, 45435, Control_c, 10, 7, 80
14, 45436, Control_c, 10, 7, 79
14, 45437, Control_c, 10, 7, 78
14, 45438, Control_c, 10, 7, 77
14, 45439, Control_c, 10, 7, 76
14, 45440, Control_c, 10, 7, 75
14, 45441, Control_c, 10, 7, 74
14, 45442, Control_c, 10, 7, 74
14, 45443, Control_c, 10, 7, 73
14, 45444, Control_c, 10, 7, 72
14, 45445, Control_c, 10, 7, 71
14, 45446, Control_c, 10, 7, 70
14, 45447, Control_c, 10, 7, 69
14, 45448, Control_c, 10, 7, 68
14, 45449, Control_c, 10, 7, 68
14, 45450, Control_c, 10, 7, 67
14, 45451, Control_c, 10, 7, 66
14, 45452, Control_c, 10, 7, 65
14, 45453, Control_c, 10, 7, 64
14, 45454, Control_c, 10, 7, 102
14, 45455, Control_c, 10, 7, 102
14, 45456, Note_off_c, 10, 51, 64
14, 45456, Note_off_c, 10, 27, 64
14, 45456, Note_off_c, 10, 39, 64
14, 45456, Control_c, 10, 7, 101
14, 45456, Note_on_c, 10, 39, 127
14, 45456, Note_on_c, 10, 27, 127
14, 45456, Note_on_c, 10, 51, 127
14, 45457, Control_c, 10, 7, 100
14, 45458, Control_c, 10, 7, 99
14, 45459, Control_c, 10, 7, 98
14, 45460, Control_c, 10, 7, 97
14, 45461, Control_c, 10, 7, 97
14, 45462, Control_c, 10, 7, 96
14, 45463, Control_c, 10, 7, 95
14, 45464, Control_c, 10, 7, 94
14, 45465, Control_c, 10, 7, 93
14, 45466, Control_c, 10, 7, 93
14, 45467, Control_c, 10, 7, 92
14, 45468, Control_c, 10, 7, 91
14, 45469, Control_c, 10, 7, 90
14, 45470, Control_c, 10, 7, 89
14, 45471, Control_c, 10, 7, 88
14, 45472, Control_c, 10, 7, 88
14, 45473, Control_c, 10, 7, 87
14, 45474, Control_c, 10, 7, 86
14, 45475, Control_c, 10, 7, 85
14, 45476, Control_c, 10, 7, 84
14, 45477, Control_c, 10, 7, 84
14, 45478, Control_c, 10, 7, 83
14, 45479, Control_c, 10, 7, 82
14, 45480, Control_c, 10, 7, 81
14, 45481, Control_c, 10, 7, 80
14, 45482, Control_c, 10, 7, 79
14, 45483, Control_c, 10, 7, 79
14, 45484, Control_c, 10, 7, 78
14, 45485, Control_c, 10, 7, 77
14, 45486, Control_c, 10, 7, 76
14, 45487, Control_c, 10, 7, 75
14, 45488, Control_c, 10, 7, 75
14, 45489, Control_c, 10, 7, 74
14, 45490, Control_c, 10, 7, 73
14, 45491, Control_c, 10, 7, 72
14, 45492, Control_c, 10, 7, 71
14, 45493, Control_c, 10, 7, 70
14, 45494, Control_c, 10, 7, 70
14, 45495, Control_c, 10, 7, 69
14, 45496, Control_c, 10, 7, 68
14, 45497, Control_c, 10, 7, 67
14, 45498, Control_c, 10, 7, 66
14, 45499, Control_c, 10, 7, 66
14, 45500, Control_c, 10, 7, 65
14, 45501, Control_c, 10, 7, 64
14, 45502, Control_c, 10, 7, 63
14, 45503, Control_c, 10, 7, 62
14, 45504, Note_off_c, 10, 51, 64
14, 45504, Note_off_c, 10, 27, 64
14, 45504, Note_off_c, 10, 39, 64
14, 45504, Control_c, 10, 7, 102
14, 45504, Note_on_c, 10, 39, 127
14, 45504, Note_on_c, 10, 27, 127
14, 45504, Note_on_c, 10, 51, 127
14, 45505, Control_c, 10, 7, 102
14, 45506, Control_c, 10, 7, 101
14, 45507, Control_c, 10, 7, 100
14, 45508, Control_c, 10, 7, 99
14, 45509, Control_c, 10, 7, 98
14, 45510, Control_c, 10, 7, 97
14, 45511, Control_c, 10, 7, 96
14, 45512, Control_c, 10, 7, 95
14, 45513, Control_c, 10, 7, 94
14, 45514, Control_c, 10, 7, 94
14, 45515, Control_c, 10, 7, 93
14, 45516, Control_c, 10, 7, 92
14, 45517, Control_c, 10, 7, 91
14, 45518, Control_c, 10, 7, 90
14, 45519, Control_c, 10, 7, 89
14, 45520, Control_c, 10, 7, 88
14, 45521, Control_c, 10, 7, 87
14, 45522, Control_c, 10, 7, 86
14, 45523, Control_c, 10, 7, 86
14, 45524, Control_c, 10, 7, 85
14, 45525, Control_c, 10, 7, 84
14, 45526, Control_c, 10, 7, 83
14, 45527, Control_c, 10, 7, 82
14, 45528, Control_c, 10, 7, 81
14, 45529, Control_c, 10, 7, 80
14, 45530, Control_c, 10, 7, 79
14, 45531, Control_c, 10, 7, 78
14, 45532, Control_c, 10, 7, 78
14, 45533, Control_c, 10, 7, 77
14, 45534, Control_c, 10, 7, 76
14, 45535, Control_c, 10, 7, 75
14, 45536, Control_c, 10, 7, 74
14, 45537, Control_c, 10, 7, 73
14, 45538, Control_c, 10, 7, 72
14, 45539, Control_c, 10, 7, 71
14, 45540, Control_c, 10, 7, 70
14, 45541, Control_c, 10, 7, 69
14, 45542, Control_c, 10, 7, 69
14, 45543, Control_c, 10, 7, 68
14, 45544, Control_c, 10, 7, 67
14, 45545, Control_c, 10, 7, 66
14, 45546, Control_c, 10, 7, 65
14, 45547, Control_c, 10, 7, 64
14, 45548, Control_c, 10, 7, 63
14, 45549, Control_c, 10, 7, 62
14, 45550, Control_c, 10, 7, 61
14, 45551, Control_c, 10, 7, 61
14, 45552, Note_off_c, 10, 51, 64
14, 45552, Note_off_c, 10, 27, 64
14, 45552, Note_off_c, 10, 39, 64
14, 45552, Note_on_c, 10, 39, 127
14, 45552, Note_on_c, 10, 27, 127
14, 45552, Note_on_c, 10, 51, 127
14, 45553, Control_c, 10, 7, 103
14, 45554, Control_c, 10, 7, 102
14, 45555, Control_c, 10, 7, 101
14, 45556, Control_c, 10, 7, 100
14, 45557, Control_c, 10, 7, 99
14, 45558, Control_c, 10, 7, 99
14, 45559, Control_c, 10, 7, 98
14, 45560, Control_c, 10, 7, 97
14, 45561, Control_c, 10, 7, 96
14, 45562, Control_c, 10, 7, 95
14, 45563, Control_c, 10, 7, 94
14, 45564, Control_c, 10, 7, 93
14, 45565, Control_c, 10, 7, 93
14, 45566, Control_c, 10, 7, 92
14, 45567, Control_c, 10, 7, 91
14, 45568, Control_c, 10, 7, 90
14, 45569, Control_c, 10, 7, 89
14, 45570, Control_c, 10, 7, 88
14, 45571, Control_c, 10, 7, 87
14, 45572, Control_c, 10, 7, 87
14, 45573, Control_c, 10, 7, 86
14, 45574, Control_c, 10, 7, 85
14, 45575, Control_c, 10, 7, 84
14, 45576, Control_c, 10, 7, 83
14, 45577, Control_c, 10, 7, 82
14, 45578, Control_c, 10, 7, 81
14, 45579, Control_c, 10, 7, 81
14, 45580, Control_c, 10, 7, 80
14, 45581, Control_c, 10, 7, 79
14, 45582, Control_c, 10, 7, 78
14, 45583, Control_c, 10, 7, 77
14, 45584, Control_c, 10, 7, 76
14, 45585, Control_c, 10, 7, 75
14, 45586, Control_c, 10, 7, 75
14, 45587, Control_c, 10, 7, 74
14, 45588, Control_c, 10, 7, 73
14, 45589, Control_c, 10, 7, 72
14, 45590, Control_c, 10, 7, 71
14, 45591, Control_c, 10, 7, 70
14, 45592, Control_c, 10, 7, 69
14, 45593, Control_c, 10, 7, 69
14, 45594, Control_c, 10, 7, 68
14, 45595, Control_c, 10, 7, 67
14, 45596, Control_c, 10, 7, 66
14, 45597, Control_c, 10, 7, 65
14, 45598, Control_c, 10, 7, 64
14, 45599, Control_c, 10, 7, 64
14, 45600, Note_off_c, 10, 51, 64
14, 45600, Note_off_c, 10, 27, 64
14, 45600, Note_off_c, 10, 39, 64
14, 45600, Note_on_c, 10, 39, 127
14, 45600, Note_on_c, 10, 27, 127
14, 45600, Note_on_c, 10, 51, 127
14, 45601, Control_c, 10, 7, 104
14, 45602, Control_c, 10, 7, 103
14, 45603, Control_c, 10, 7, 102
14, 45604, Control_c, 10, 7, 101
14, 45605, Control_c, 10, 7, 100
14, 45606, Control_c, 10, 7, 99
14, 45607, Control_c, 10, 7, 98
14, 45608, Control_c, 10, 7, 98
14, 45609, Control_c, 10, 7, 97
14, 45610, Control_c, 10, 7, 96
14, 45611, Control_c, 10, 7, 95
14, 45612, Control_c, 10, 7, 94
14, 45613, Control_c, 10, 7, 93
14, 45614, Control_c, 10, 7, 93
14, 45615, Control_c, 10, 7, 92
14, 45616, Control_c, 10, 7, 91
14, 45617, Control_c, 10, 7, 90
14, 45618, Control_c, 10, 7, 89
14, 45619, Control_c, 10, 7, 88
14, 45620, Control_c, 10, 7, 87
14, 45621, Control_c, 10, 7, 87
14, 45622, Control_c, 10, 7, 86
14, 45623, Control_c, 10, 7, 85
14, 45624, Control_c, 10, 7, 84
14, 45625, Control_c, 10, 7, 83
14, 45626, Control_c, 10, 7, 82
14, 45627, Control_c, 10, 7, 82
14, 45628, Control_c, 10, 7, 81
14, 45629, Control_c, 10, 7, 80
14, 45630, Control_c, 10, 7, 79
14, 45631, Control_c, 10, 7, 78
14, 45632, Control_c, 10, 7, 77
14, 45633, Control_c, 10, 7, 76
14, 45634, Control_c, 10, 7, 76
14, 45635, Control_c, 10, 7, 75
14, 45636, Control_c, 10, 7, 74
14, 45637, Control_c, 10, 7, 73
14, 45638, Control_c, 10, 7, 72
14, 45639, Control_c, 10, 7, 71
14, 45640, Control_c, 10, 7, 71
14, 45641, Control_c, 10, 7, 70
14, 45642, Control_c, 10, 7, 69
14, 45643, Control_c, 10, 7, 68
14, 45644, Control_c, 10, 7, 67
14, 45645, Control_c, 10, 7, 66
14, 45646, Control_c, 10, 7, 65
14, 45647, Control_c, 10, 7, 102
14, 45648, Note_off_c, 10, 51, 64
14, 45648, Note_off_c, 10, 27, 64
14, 45648, Note_off_c, 10, 39, 64
14, 45648, Control_c, 10, 7, 102
14, 45648, Note_on_c, 10, 39, 127
14, 45648, Note_on_c, 10, 27, 127
14, 45648, Note_on_c, 10, 51, 127
14, 45649, Control_c, 10, 7, 101
14, 45650, Control_c, 10, 7, 100
14, 45651, Control_c, 10, 7, 99
14, 45652, Control_c, 10, 7, 98
14, 45653, Control_c, 10, 7, 97
14, 45654, Control_c, 10, 7, 96
14, 45655, Control_c, 10, 7, 96
14, 45656, Control_c, 10, 7, 95
14, 45657, Control_c, 10, 7, 94
14, 45658, Control_c, 10, 7, 93
14, 45659, Control_c, 10, 7, 92
14, 45660, Control_c, 10, 7, 91
14, 45661, Control_c, 10, 7, 90
14, 45662, Control_c, 10, 7, 89
14, 45663, Control_c, 10, 7, 89
14, 45664, Control_c, 10, 7, 88
14, 45665, Control_c, 10, 7, 87
14, 45666, Control_c, 10, 7, 86
14, 45667, Control_c, 10, 7, 85
14, 45668, Control_c, 10, 7, 84
14, 45669, Control_c, 10, 7, 83
14, 45670, Control_c, 10, 7, 83
14, 45671, Control_c, 10, 7, 82
14, 45672, Control_c, 10, 7, 81
14, 45673, Control_c, 10, 7, 80
14, 45674, Control_c, 10, 7, 79
14, 45675, Control_c, 10, 7, 78
14, 45676, Control_c, 10, 7, 77
14, 45677, Control_c, 10, 7, 77
14, 45678, Control_c, 10, 7, 76
14, 45679, Control_c, 10, 7, 75
14, 45680, Control_c, 10, 7, 74
14, 45681, Control_c, 10, 7, 73
14, 45682, Control_c, 10, 7, 72
14, 45683, Control_c, 10, 7, 71
14, 45684, Control_c, 10, 7, 71
14, 45685, Control_c, 10, 7, 70
14, 45686, Control_c, 10, 7, 69
14, 45687, Control_c, 10, 7, 68
14, 45688, Control_c, 10, 7, 67
14, 45689, Control_c, 10, 7, 66
14, 45690, Control_c, 10, 7, 65
14, 45691, Control_c, 10, 7, 65
14, 45692, Control_c, 10, 7, 64
14, 45693, Control_c, 10, 7, 63
14, 45696, Note_off_c, 10, 39, 64
14, 45696, Note_off_c, 10, 51, 64
14, 45696, Note_off_c, 10, 27, 64
14, 45696, Control_c, 10, 7, 113
14, 45696, Note_on_c, 10, 39, 127
14, 45696, Note_on_c, 10, 27, 127
14, 45696, Note_on_c, 10, 51, 127
14, 45697, Control_c, 10, 7, 113
14, 45698, Control_c, 10, 7, 112
14, 45699, Control_c, 10, 7, 112
14, 45700, Control_c, 10, 7, 112
14, 45701, Control_c, 10, 7, 111
14, 45702, Control_c, 10, 7, 111
14, 45703, Control_c, 10, 7, 110
14, 45704, Control_c, 10, 7, 110
14, 45705, Control_c, 10, 7, 110
14, 45706, Control_c, 10, 7, 109
14, 45707, Control_c, 10, 7, 109
14, 45708, Control_c, 10, 7, 109
14, 45709, Control_c, 10, 7, 108
14, 45710, Control_c, 10, 7, 108
14, 45711, Control_c, 10, 7, 108
14, 45712, Control_c, 10, 7, 107
14, 45713, Control_c, 10, 7, 107
14, 45714, Control_c, 10, 7, 107
14, 45715, Control_c, 10, 7, 106
14, 45716, Control_c, 10, 7, 106
14, 45717, Control_c, 10, 7, 106
14, 45718, Control_c, 10, 7, 105
14, 45719, Control_c, 10, 7, 105
14, 45720, Control_c, 10, 7, 104
14, 45721, Control_c, 10, 7, 104
14, 45722, Control_c, 10, 7, 104
14, 45723, Control_c, 10, 7, 103
14, 45724, Control_c, 10, 7, 103
14, 45725, Control_c, 10, 7, 103
14, 45726, Control_c, 10, 7, 102
14, 45727, Control_c, 10, 7, 102
14, 45728, Control_c, 10, 7, 102
14, 45729, Control_c, 10, 7, 101
14, 45730, Control_c, 10, 7, 101
14, 45731, Control_c, 10, 7, 101
14, 45732, Control_c, 10, 7, 100
14, 45733, Control_c, 10, 7, 100
14, 45734, Control_c, 10, 7, 100
14, 45735, Control_c, 10, 7, 99
14, 45736, Control_c, 10, 7, 99
14, 45737, Control_c, 10, 7, 98
14, 45738, Control_c, 10, 7, 98
14, 45739, Control_c, 10, 7, 98
14, 45740, Control_c, 10, 7, 97
14, 45741, Control_c, 10, 7, 97
14, 45742, Control_c, 10, 7, 97
14, 45743, Control_c, 10, 7, 96
14, 45744, Control_c, 10, 7, 96
14, 45745, Control_c, 10, 7, 96
14, 45746, Control_c, 10, 7, 95
14, 45747, Control_c, 10, 7, 95
14, 45748, Control_c, 10, 7, 95
14, 45749, Control_c, 10, 7, 94
14, 45750, Control_c, 10, 7, 94
14, 45751, Control_c, 10, 7, 94
14, 45752, Control_c, 10, 7, 93
14, 45753, Control_c, 10, 7, 93
14, 45754, Control_c, 10, 7, 92
14, 45755, Control_c, 10, 7, 92
14, 45756, Control_c, 10, 7, 92
14, 45757, Control_c, 10, 7, 91
14, 45758, Control_c, 10, 7, 91
14, 45759, Control_c, 10, 7, 91
14, 45760, Control_c, 10, 7, 90
14, 45761, Control_c, 10, 7, 90
14, 45762, Control_c, 10, 7, 90
14, 45763, Control_c, 10, 7, 89
14, 45764, Control_c, 10, 7, 89
14, 45765, Control_c, 10, 7, 89
14, 45766, Control_c, 10, 7, 88
14, 45767, Control_c, 10, 7, 88
14, 45768, Control_c, 10, 7, 88
14, 45769, Control_c, 10, 7, 87
14, 45770, Control_c, 10, 7, 87
14, 45771, Control_c, 10, 7, 86
14, 45772, Control_c, 10, 7, 86
14, 45773, Control_c, 10, 7, 86
14, 45774, Control_c, 10, 7, 85
14, 45775, Control_c, 10, 7, 85
14, 45776, Control_c, 10, 7, 85
14, 45777, Control_c, 10, 7, 84
14, 45778, Control_c, 10, 7, 84
14, 45779, Control_c, 10, 7, 84
14, 45780, Control_c, 10, 7, 83
14, 45781, Control_c, 10, 7, 83
14, 45782, Control_c, 10, 7, 83
14, 45783, Control_c, 10, 7, 82
14, 45784, Control_c, 10, 7, 82
14, 45785, Control_c, 10, 7, 82
14, 45786, Control_c, 10, 7, 81
14, 45787, Control_c, 10, 7, 81
14, 45788, Control_c, 10, 7, 80
14, 45789, Control_c, 10, 7, 80
14, 45790, Control_c, 10, 7, 80
14, 45791, Control_c, 10, 7, 79
14, 45792, Control_c, 10, 7, 79
14, 45793, Control_c, 10, 7, 79
14, 45794, Control_c, 10, 7, 78
14, 45795, Control_c, 10, 7, 78
14, 45796, Control_c, 10, 7, 78
14, 45797, Control_c, 10, 7, 77
14, 45798, Control_c, 10, 7, 77
14, 45799, Control_c, 10, 7, 77
14, 45800, Control_c, 10, 7, 76
14, 45801, Control_c, 10, 7, 76
14, 45802, Control_c, 10, 7, 76
14, 45803, Control_c, 10, 7, 75
14, 45804, Control_c, 10, 7, 75
14, 45805, Control_c, 10, 7, 74
14, 45806, Control_c, 10, 7, 74
14, 45807, Control_c, 10, 7, 74
14, 45808, Control_c, 10, 7, 73
14, 45809, Control_c, 10, 7, 73
14, 45810, Control_c, 10, 7, 73
14, 45811, Control_c, 10, 7, 72
14, 45812, Control_c, 10, 7, 72
14, 45813, Control_c, 10, 7, 72
14, 45814, Control_c, 10, 7, 71
14, 45815, Control_c, 10, 7, 71
14, 45816, Control_c, 10, 7, 71
14, 45817, Control_c, 10, 7, 70
14, 45818, Control_c, 10, 7, 70
14, 45819, Control_c, 10, 7, 70
14, 45820, Control_c, 10, 7, 69
14, 45821, Control_c, 10, 7, 69
14, 45822, Control_c, 10, 7, 68
14, 45823, Control_c, 10, 7, 68
14, 45824, Control_c, 10, 7, 68
14, 45825, Control_c, 10, 7, 67
14, 45826, Control_c, 10, 7, 67
14, 45827, Control_c, 10, 7, 67
14, 45828, Control_c, 10, 7, 66
14, 45829, Control_c, 10, 7, 66
14, 45830, Control_c, 10, 7, 66
14, 45831, Control_c, 10, 7, 65
14, 45832, Control_c, 10, 7, 65
14, 45833, Control_c, 10, 7, 65
14, 45834, Control_c, 10, 7, 64
14, 45835, Control_c, 10, 7, 64
14, 45836, Control_c, 10, 7, 64
14, 45837, Control_c, 10, 7, 63
14, 45838, Control_c, 10, 7, 111
14, 45839, Control_c, 10, 7, 111
14, 45840, Note_off_c, 10, 51, 64
14, 45840, Note_off_c, 10, 27, 64
14, 45840, Note_off_c, 10, 39, 64
14, 45840, Control_c, 10, 7, 110
14, 45840, Note_on_c, 10, 39, 127
14, 45840, Note_on_c, 10, 51, 127
14, 45840, Note_on_c, 10, 27, 127
14, 45841, Control_c, 10, 7, 110
14, 45842, Control_c, 10, 7, 110
14, 45843, Control_c, 10, 7, 109
14, 45844, Control_c, 10, 7, 109
14, 45845, Control_c, 10, 7, 109
14, 45846, Control_c, 10, 7, 109
14, 45847, Control_c, 10, 7, 108
14, 45848, Control_c, 10, 7, 108
14, 45849, Control_c, 10, 7, 108
14, 45850, Control_c, 10, 7, 107
14, 45851, Control_c, 10, 7, 107
14, 45852, Control_c, 10, 7, 107
14, 45853, Control_c, 10, 7, 106
14, 45854, Control_c, 10, 7, 106
14, 45855, Control_c, 10, 7, 106
14, 45856, Control_c, 10, 7, 105
14, 45857, Control_c, 10, 7, 105
14, 45858, Control_c, 10, 7, 105
14, 45859, Control_c, 10, 7, 104
14, 45860, Control_c, 10, 7, 104
14, 45861, Control_c, 10, 7, 104
14, 45862, Control_c, 10, 7, 103
14, 45863, Control_c, 10, 7, 103
14, 45864, Control_c, 10, 7, 103
14, 45865, Control_c, 10, 7, 102
14, 45866, Control_c, 10, 7, 102
14, 45867, Control_c, 10, 7, 102
14, 45868, Control_c, 10, 7, 101
14, 45869, Control_c, 10, 7, 101
14, 45870, Control_c, 10, 7, 101
14, 45871, Control_c, 10, 7, 100
14, 45872, Control_c, 10, 7, 100
14, 45873, Control_c, 10, 7, 100
14, 45874, Control_c, 10, 7, 99
14, 45875, Control_c, 10, 7, 99
14, 45876, Control_c, 10, 7, 99
14, 45877, Control_c, 10, 7, 98
14, 45878, Control_c, 10, 7, 98
14, 45879, Control_c, 10, 7, 98
14, 45880, Control_c, 10, 7, 97
14, 45881, Control_c, 10, 7, 97
14, 45882, Control_c, 10, 7, 97
14, 45883, Control_c, 10, 7, 96
14, 45884, Control_c, 10, 7, 96
14, 45885, Control_c, 10, 7, 96
14, 45886, Control_c, 10, 7, 95
14, 45887, Control_c, 10, 7, 95
14, 45888, Control_c, 10, 7, 95
14, 45889, Control_c, 10, 7, 94
14, 45890, Control_c, 10, 7, 94
14, 45891, Control_c, 10, 7, 94
14, 45892, Control_c, 10, 7, 93
14, 45893, Control_c, 10, 7, 93
14, 45894, Control_c, 10, 7, 93
14, 45895, Control_c, 10, 7, 92
14, 45896, Control_c, 10, 7, 92
14, 45897, Control_c, 10, 7, 92
14, 45898, Control_c, 10, 7, 91
14, 45899, Control_c, 10, 7, 91
14, 45900, Control_c, 10, 7, 91
14, 45901, Control_c, 10, 7, 90
14, 45902, Control_c, 10, 7, 90
14, 45903, Control_c, 10, 7, 90
14, 45904, Control_c, 10, 7, 89
14, 45905, Control_c, 10, 7, 89
14, 45906, Control_c, 10, 7, 89
14, 45907, Control_c, 10, 7, 88
14, 45908, Control_c, 10, 7, 88
14, 45909, Control_c, 10, 7, 88
14, 45910, Control_c, 10, 7, 87
14, 45911, Control_c, 10, 7, 87
14, 45912, Control_c, 10, 7, 87
14, 45913, Control_c, 10, 7, 86
14, 45914, Control_c, 10, 7, 86
14, 45915, Control_c, 10, 7, 86
14, 45916, Control_c, 10, 7, 85
14, 45917, Control_c, 10, 7, 85
14, 45918, Control_c, 10, 7, 85
14, 45919, Control_c, 10, 7, 84
14, 45920, Control_c, 10, 7, 84
14, 45921, Control_c, 10, 7, 84
14, 45922, Control_c, 10, 7, 83
14, 45923, Control_c, 10, 7, 83
14, 45924, Control_c, 10, 7, 83
14, 45925, Control_c, 10, 7, 82
14, 45926, Control_c, 10, 7, 82
14, 45927, Control_c, 10, 7, 82
14, 45928, Control_c, 10, 7, 81
14, 45929, Control_c, 10, 7, 81
14, 45930, Control_c, 10, 7, 81
14, 45931, Control_c, 10, 7, 80
14, 45932, Control_c, 10, 7, 80
14, 45933, Control_c, 10, 7, 80
14, 45934, Control_c, 10, 7, 79
14, 45935, Control_c, 10, 7, 79
14, 45936, Control_c, 10, 7, 79
14, 45937, Control_c, 10, 7, 78
14, 45938, Control_c, 10, 7, 78
14, 45939, Control_c, 10, 7, 78
14, 45940, Control_c, 10, 7, 77
14, 45941, Control_c, 10, 7, 77
14, 45942, Control_c, 10, 7, 77
14, 45943, Control_c, 10, 7, 76
14, 45944, Control_c, 10, 7, 76
14, 45945, Control_c, 10, 7, 76
14, 45946, Control_c, 10, 7, 75
14, 45947, Control_c, 10, 7, 75
14, 45948, Control_c, 10, 7, 75
14, 45949, Control_c, 10, 7, 74
14, 45950, Control_c, 10, 7, 74
14, 45951, Control_c, 10, 7, 74
14, 45952, Control_c, 10, 7, 73
14, 45953, Control_c, 10, 7, 73
14, 45954, Control_c, 10, 7, 73
14, 45955, Control_c, 10, 7, 72
14, 45956, Control_c, 10, 7, 72
14, 45957, Control_c, 10, 7, 72
14, 45958, Control_c, 10, 7, 71
14, 45959, Control_c, 10, 7, 71
14, 45960, Control_c, 10, 7, 71
14, 45961, Control_c, 10, 7, 70
14, 45962, Control_c, 10, 7, 70
14, 45963, Control_c, 10, 7, 70
14, 45964, Control_c, 10, 7, 69
14, 45965, Control_c, 10, 7, 69
14, 45966, Control_c, 10, 7, 69
14, 45967, Control_c, 10, 7, 68
14, 45968, Control_c, 10, 7, 68
14, 45969, Control_c, 10, 7, 68
14, 45970, Control_c, 10, 7, 67
14, 45971, Control_c, 10, 7, 67
14, 45972, Control_c, 10, 7, 67
14, 45973, Control_c, 10, 7, 66
14, 45974, Control_c, 10, 7, 66
14, 45975, Control_c, 10, 7, 66
14, 45976, Control_c, 10, 7, 65
14, 45977, Control_c, 10, 7, 65
14, 45978, Control_c, 10, 7, 65
14, 45979, Control_c, 10, 7, 64
14, 45980, Control_c, 10, 7, 64
14, 45981, Control_c, 10, 7, 64
14, 45982, Control_c, 10, 7, 63
14, 45983, Control_c, 10, 7, 63
14, 45984, Note_off_c, 10, 27, 64
14, 45984, Note_off_c, 10, 51, 64
14, 45984, Note_off_c, 10, 39, 64
14, 45984, Control_c, 10, 7, 64
14, 45984, Note_on_c, 10, 39, 127
14, 45984, Note_on_c, 10, 51, 127
14, 45984, Note_on_c, 10, 27, 127
14, 45985, Control_c, 10, 7, 64
14, 45986, Control_c, 10, 7, 65
14, 45987, Control_c, 10, 7, 65
14, 45988, Control_c, 10, 7, 66
14, 45989, Control_c, 10, 7, 66
14, 45990, Control_c, 10, 7, 67
14, 45991, Control_c, 10, 7, 67
14, 45992, Control_c, 10, 7, 68
14, 45993, Control_c, 10, 7, 68
14, 45994, Control_c, 10, 7, 69
14, 45995, Control_c, 10, 7, 69
14, 45996, Control_c, 10, 7, 70
14, 45997, Control_c, 10, 7, 70
14, 45998, Control_c, 10, 7, 71
14, 45999, Control_c, 10, 7, 71
14, 46000, Control_c, 10, 7, 72
14, 46001, Control_c, 10, 7, 72
14, 46002, Control_c, 10, 7, 73
14, 46003, Control_c, 10, 7, 73
14, 46004, Control_c, 10, 7, 74
14, 46005, Control_c, 10, 7, 74
14, 46006, Control_c, 10, 7, 75
14, 46007, Control_c, 10, 7, 75
14, 46008, Control_c, 10, 7, 76
14, 46009, Control_c, 10, 7, 76
14, 46010, Control_c, 10, 7, 77
14, 46011, Control_c, 10, 7, 77
14, 46012, Control_c, 10, 7, 78
14, 46013, Control_c, 10, 7, 78
14, 46014, Control_c, 10, 7, 79
14, 46015, Control_c, 10, 7, 79
14, 46016, Control_c, 10, 7, 80
14, 46017, Control_c, 10, 7, 80
14, 46018, Control_c, 10, 7, 81
14, 46019, Control_c, 10, 7, 81
14, 46020, Control_c, 10, 7, 82
14, 46021, Control_c, 10, 7, 82
14, 46022, Control_c, 10, 7, 83
14, 46023, Control_c, 10, 7, 83
14, 46024, Control_c, 10, 7, 84
14, 46025, Control_c, 10, 7, 84
14, 46026, Control_c, 10, 7, 85
14, 46027, Control_c, 10, 7, 85
14, 46028, Control_c, 10, 7, 86
14, 46029, Control_c, 10, 7, 86
14, 46030, Control_c, 10, 7, 87
14, 46031, Control_c, 10, 7, 87
14, 46032, Control_c, 10, 7, 88
14, 46033, Control_c, 10, 7, 88
14, 46034, Control_c, 10, 7, 89
14, 46035, Control_c, 10, 7, 89
14, 46036, Control_c, 10, 7, 90
14, 46037, Control_c, 10, 7, 90
14, 46038, Control_c, 10, 7, 91
14, 46039, Control_c, 10, 7, 91
14, 46040, Control_c, 10, 7, 92
14, 46041, Control_c, 10, 7, 92
14, 46042, Control_c, 10, 7, 93
14, 46043, Control_c, 10, 7, 93
14, 46044, Control_c, 10, 7, 94
14, 46045, Control_c, 10, 7, 94
14, 46046, Control_c, 10, 7, 95
14, 46047, Control_c, 10, 7, 95
14, 46048, Control_c, 10, 7, 96
14, 46049, Control_c, 10, 7, 96
14, 46050, Control_c, 10, 7, 97
14, 46051, Control_c, 10, 7, 97
14, 46052, Control_c, 10, 7, 98
14, 46053, Control_c, 10, 7, 98
14, 46054, Control_c, 10, 7, 99
14, 46055, Control_c, 10, 7, 99
14, 46056, Control_c, 10, 7, 100
14, 46057, Control_c, 10, 7, 100
14, 46058, Control_c, 10, 7, 101
14, 46059, Control_c, 10, 7, 101
14, 46060, Control_c, 10, 7, 102
14, 46061, Control_c, 10, 7, 102
14, 46062, Control_c, 10, 7, 103
14, 46063, Control_c, 10, 7, 103
14, 46064, Control_c, 10, 7, 104
14, 46065, Control_c, 10, 7, 104
14, 46066, Control_c, 10, 7, 105
14, 46067, Control_c, 10, 7, 105
14, 46068, Control_c, 10, 7, 106
14, 46069, Control_c, 10, 7, 106
14, 46070, Control_c, 10, 7, 107
14, 46071, Control_c, 10, 7, 107
14, 46072, Control_c, 10, 7, 108
14, 46073, Control_c, 10, 7, 108
14, 46074, Control_c, 10, 7, 109
14, 46075, Control_c, 10, 7, 109
14, 46076, Control_c, 10, 7, 110
14, 46077, Control_c, 10, 7, 110
14, 46078, Control_c, 10, 7, 111
14, 46079, Control_c, 10, 7, 111
14, 46080, Note_off_c, 10, 27, 64
14, 46080, Note_off_c, 10, 51, 64
14, 46080, Note_off_c, 10, 39, 64
14, 46080, Control_c, 10, 7, 112
14, 46080, Note_on_c, 10, 39, 127
14, 46080, Note_on_c, 10, 51, 127
14, 46080, Note_on_c, 10, 27, 127
14, 46081, Control_c, 10, 7, 64
14, 46082, Control_c, 10, 7, 65
14, 46083, Control_c, 10, 7, 66
14, 46084, Control_c, 10, 7, 67
14, 46085, Control_c, 10, 7, 68
14, 46086, Control_c, 10, 7, 69
14, 46087, Control_c, 10, 7, 69
14, 46088, Control_c, 10, 7, 70
14, 46089, Control_c, 10, 7, 71
14, 46090, Control_c, 10, 7, 72
14, 46091, Control_c, 10, 7, 73
14, 46092, Control_c, 10, 7, 74
14, 46093, Control_c, 10, 7, 75
14, 46094, Control_c, 10, 7, 76
14, 46095, Control_c, 10, 7, 77
14, 46096, Control_c, 10, 7, 78
14, 46097, Control_c, 10, 7, 79
14, 46098, Control_c, 10, 7, 80
14, 46099, Control_c, 10, 7, 81
14, 46100, Control_c, 10, 7, 82
14, 46101, Control_c, 10, 7, 83
14, 46102, Control_c, 10, 7, 85
14, 46103, Control_c, 10, 7, 86
14, 46104, Control_c, 10, 7, 87
14, 46105, Control_c, 10, 7, 88
14, 46106, Control_c, 10, 7, 89
14, 46107, Control_c, 10, 7, 90
14, 46108, Control_c, 10, 7, 91
14, 46109, Control_c, 10, 7, 92
14, 46110, Control_c, 10, 7, 93
14, 46111, Control_c, 10, 7, 94
14, 46112, Control_c, 10, 7, 95
14, 46113, Control_c, 10, 7, 96
14, 46114, Control_c, 10, 7, 97
14, 46115, Control_c, 10, 7, 98
14, 46116, Control_c, 10, 7, 99
14, 46117, Control_c, 10, 7, 100
14, 46118, Control_c, 10, 7, 102
14, 46119, Control_c, 10, 7, 103
14, 46120, Control_c, 10, 7, 104
14, 46121, Control_c, 10, 7, 105
14, 46122, Control_c, 10, 7, 106
14, 46123, Control_c, 10, 7, 107
14, 46124, Control_c, 10, 7, 108
14, 46125, Control_c, 10, 7, 109
14, 46126, Control_c, 10, 7, 110
14, 46127, Control_c, 10, 7, 111
14, 46128, Note_off_c, 10, 27, 64
14, 46128, Note_off_c, 10, 51, 64
14, 46128, Note_off_c, 10, 39, 64
14, 46128, Control_c, 10, 7, 65
14, 46128, Note_on_c, 10, 39, 127
14, 46128, Note_on_c, 10, 51, 127
14, 46128, Note_on_c, 10, 27, 127
14, 46129, Control_c, 10, 7, 66
14, 46130, Control_c, 10, 7, 67
14, 46131, Control_c, 10, 7, 67
14, 46132, Control_c, 10, 7, 68
14, 46133, Control_c, 10, 7, 69
14, 46134, Control_c, 10, 7, 70
14, 46135, Control_c, 10, 7, 71
14, 46136, Control_c, 10, 7, 72
14, 46137, Control_c, 10, 7, 73
14, 46138, Control_c, 10, 7, 74
14, 46139, Control_c, 10, 7, 75
14, 46140, Control_c, 10, 7, 76
14, 46141, Control_c, 10, 7, 77
14, 46142, Control_c, 10, 7, 78
14, 46143, Control_c, 10, 7, 79
14, 46144, Control_c, 10, 7, 80
14, 46145, Control_c, 10, 7, 81
14, 46146, Control_c, 10, 7, 82
14, 46147, Control_c, 10, 7, 83
14, 46148, Control_c, 10, 7, 84
14, 46149, Control_c, 10, 7, 85
14, 46150, Control_c, 10, 7, 86
14, 46151, Control_c, 10, 7, 87
14, 46152, Control_c, 10, 7, 88
14, 46153, Control_c, 10, 7, 89
14, 46154, Control_c, 10, 7, 89
14, 46155, Control_c, 10, 7, 90
14, 46156, Control_c, 10, 7, 91
14, 46157, Control_c, 10, 7, 92
14, 46158, Control_c, 10, 7, 93
14, 46159, Control_c, 10, 7, 94
14, 46160, Control_c, 10, 7, 95
14, 46161, Control_c, 10, 7, 96
14, 46162, Control_c, 10, 7, 97
14, 46163, Control_c, 10, 7, 98
14, 46164, Control_c, 10, 7, 99
14, 46165, Control_c, 10, 7, 100
14, 46166, Control_c, 10, 7, 101
14, 46167, Control_c, 10, 7, 102
14, 46168, Control_c, 10, 7, 103
14, 46169, Control_c, 10, 7, 104
14, 46170, Control_c, 10, 7, 105
14, 46171, Control_c, 10, 7, 106
14, 46172, Control_c, 10, 7, 107
14, 46173, Control_c, 10, 7, 108
14, 46174, Control_c, 10, 7, 109
14, 46175, Control_c, 10, 7, 110
14, 46176, Note_off_c, 10, 39, 64
14, 46176, Note_off_c, 10, 27, 64
14, 46176, Note_off_c, 10, 51, 64
14, 46176, Control_c, 10, 7, 64
14, 46176, Note_on_c, 10, 39, 127
14, 46176, Note_on_c, 10, 51, 127
14, 46176, Note_on_c, 10, 27, 127
14, 46177, Control_c, 10, 7, 65
14, 46178, Control_c, 10, 7, 65
14, 46179, Control_c, 10, 7, 66
14, 46180, Control_c, 10, 7, 67
14, 46181, Control_c, 10, 7, 68
14, 46182, Control_c, 10, 7, 69
14, 46183, Control_c, 10, 7, 70
14, 46184, Control_c, 10, 7, 70
14, 46185, Control_c, 10, 7, 71
14, 46186, Control_c, 10, 7, 72
14, 46187, Control_c, 10, 7, 73
14, 46188, Control_c, 10, 7, 74
14, 46189, Control_c, 10, 7, 75
14, 46190, Control_c, 10, 7, 76
14, 46191, Control_c, 10, 7, 77
14, 46192, Control_c, 10, 7, 78
14, 46193, Control_c, 10, 7, 79
14, 46194, Control_c, 10, 7, 80
14, 46195, Control_c, 10, 7, 81
14, 46196, Control_c, 10, 7, 82
14, 46197, Control_c, 10, 7, 83
14, 46198, Control_c, 10, 7, 84
14, 46199, Control_c, 10, 7, 85
14, 46200, Control_c, 10, 7, 86
14, 46201, Control_c, 10, 7, 88
14, 46202, Control_c, 10, 7, 89
14, 46203, Control_c, 10, 7, 90
14, 46204, Control_c, 10, 7, 91
14, 46205, Control_c, 10, 7, 92
14, 46206, Control_c, 10, 7, 93
14, 46207, Control_c, 10, 7, 94
14, 46208, Control_c, 10, 7, 95
14, 46209, Control_c, 10, 7, 96
14, 46210, Control_c, 10, 7, 97
14, 46211, Control_c, 10, 7, 98
14, 46212, Control_c, 10, 7, 99
14, 46213, Control_c, 10, 7, 100
14, 46214, Control_c, 10, 7, 101
14, 46215, Control_c, 10, 7, 102
14, 46216, Control_c, 10, 7, 103
14, 46217, Control_c, 10, 7, 104
14, 46218, Control_c, 10, 7, 105
14, 46219, Control_c, 10, 7, 106
14, 46220, Control_c, 10, 7, 107
14, 46221, Control_c, 10, 7, 108
14, 46222, Control_c, 10, 7, 109
14, 46223, Control_c, 10, 7, 110
14, 46224, Note_off_c, 10, 39, 64
14, 46224, Note_off_c, 10, 27, 64
14, 46224, Note_off_c, 10, 51, 64
14, 46224, Control_c, 10, 7, 66
14, 46224, Note_on_c, 10, 39, 127
14, 46224, Note_on_c, 10, 51, 127
14, 46224, Note_on_c, 10, 27, 127
14, 46225, Control_c, 10, 7, 67
14, 46226, Control_c, 10, 7, 68
14, 46227, Control_c, 10, 7, 69
14, 46228, Control_c, 10, 7, 69
14, 46229, Control_c, 10, 7, 70
14, 46230, Control_c, 10, 7, 71
14, 46231, Control_c, 10, 7, 72
14, 46232, Control_c, 10, 7, 73
14, 46233, Control_c, 10, 7, 74
14, 46234, Control_c, 10, 7, 75
14, 46235, Control_c, 10, 7, 76
14, 46236, Control_c, 10, 7, 77
14, 46237, Control_c, 10, 7, 77
14, 46238, Control_c, 10, 7, 78
14, 46239, Control_c, 10, 7, 79
14, 46240, Control_c, 10, 7, 80
14, 46241, Control_c, 10, 7, 81
14, 46242, Control_c, 10, 7, 82
14, 46243, Control_c, 10, 7, 83
14, 46244, Control_c, 10, 7, 84
14, 46245, Control_c, 10, 7, 84
14, 46246, Control_c, 10, 7, 85
14, 46247, Control_c, 10, 7, 86
14, 46248, Control_c, 10, 7, 87
14, 46249, Control_c, 10, 7, 88
14, 46250, Control_c, 10, 7, 89
14, 46251, Control_c, 10, 7, 90
14, 46252, Control_c, 10, 7, 91
14, 46253, Control_c, 10, 7, 91
14, 46254, Control_c, 10, 7, 92
14, 46255, Control_c, 10, 7, 93
14, 46256, Control_c, 10, 7, 94
14, 46257, Control_c, 10, 7, 95
14, 46258, Control_c, 10, 7, 96
14, 46259, Control_c, 10, 7, 97
14, 46260, Control_c, 10, 7, 98
14, 46261, Control_c, 10, 7, 98
14, 46262, Control_c, 10, 7, 99
14, 46263, Control_c, 10, 7, 100
14, 46264, Control_c, 10, 7, 101
14, 46265, Control_c, 10, 7, 102
14, 46266, Control_c, 10, 7, 103
14, 46267, Control_c, 10, 7, 104
14, 46268, Control_c, 10, 7, 104
14, 46269, Control_c, 10, 7, 105
14, 46270, Control_c, 10, 7, 106
14, 46271, Control_c, 10, 7, 107
14, 46272, Note_off_c, 10, 39, 64
14, 46272, Note_off_c, 10, 27, 64
14, 46272, Note_off_c, 10, 51, 64
14, 46272, Control_c, 10, 7, 67
14, 46272, Note_on_c, 10, 39, 127
14, 46272, Note_on_c, 10, 51, 127
14, 46272, Note_on_c, 10, 27, 127
14, 46273, Control_c, 10, 7, 68
14, 46274, Control_c, 10, 7, 69
14, 46275, Control_c, 10, 7, 70
14, 46276, Control_c, 10, 7, 71
14, 46277, Control_c, 10, 7, 72
14, 46278, Control_c, 10, 7, 73
14, 46279, Control_c, 10, 7, 74
14, 46280, Control_c, 10, 7, 75
14, 46281, Control_c, 10, 7, 75
14, 46282, Control_c, 10, 7, 76
14, 46283, Control_c, 10, 7, 77
14, 46284, Control_c, 10, 7, 78
14, 46285, Control_c, 10, 7, 79
14, 46286, Control_c, 10, 7, 80
14, 46287, Control_c, 10, 7, 81
14, 46288, Control_c, 10, 7, 82
14, 46289, Control_c, 10, 7, 83
14, 46290, Control_c, 10, 7, 84
14, 46291, Control_c, 10, 7, 85
14, 46292, Control_c, 10, 7, 86
14, 46293, Control_c, 10, 7, 87
14, 46294, Control_c, 10, 7, 88
14, 46295, Control_c, 10, 7, 89
14, 46296, Control_c, 10, 7, 90
14, 46297, Control_c, 10, 7, 90
14, 46298, Control_c, 10, 7, 91
14, 46299, Control_c, 10, 7, 92
14, 46300, Control_c, 10, 7, 93
14, 46301, Control_c, 10, 7, 94
14, 46302, Control_c, 10, 7, 95
14, 46303, Control_c, 10, 7, 96
14, 46304, Control_c, 10, 7, 97
14, 46305, Control_c, 10, 7, 98
14, 46306, Control_c, 10, 7, 99
14, 46307, Control_c, 10, 7, 100
14, 46308, Control_c, 10, 7, 101
14, 46309, Control_c, 10, 7, 102
14, 46310, Control_c, 10, 7, 103
14, 46311, Control_c, 10, 7, 104
14, 46312, Control_c, 10, 7, 105
14, 46313, Control_c, 10, 7, 106
14, 46314, Control_c, 10, 7, 106
14, 46315, Control_c, 10, 7, 107
14, 46316, Control_c, 10, 7, 108
14, 46317, Control_c, 10, 7, 109
14, 46318, Control_c, 10, 7, 110
14, 46319, Control_c, 10, 7, 111
14, 46320, Note_off_c, 10, 39, 64
14, 46320, Note_off_c, 10, 27, 64
14, 46320, Note_off_c, 10, 51, 64
14, 46320, Control_c, 10, 7, 61
14, 46320, Note_on_c, 10, 39, 127
14, 46320, Note_on_c, 10, 51, 127
14, 46320, Note_on_c, 10, 27, 127
14, 46321, Control_c, 10, 7, 62
14, 46322, Control_c, 10, 7, 63
14, 46323, Control_c, 10, 7, 64
14, 46324, Control_c, 10, 7, 65
14, 46325, Control_c, 10, 7, 66
14, 46326, Control_c, 10, 7, 67
14, 46327, Control_c, 10, 7, 68
14, 46328, Control_c, 10, 7, 70
14, 46329, Control_c, 10, 7, 71
14, 46330, Control_c, 10, 7, 72
14, 46331, Control_c, 10, 7, 73
14, 46332, Control_c, 10, 7, 74
14, 46333, Control_c, 10, 7, 75
14, 46334, Control_c, 10, 7, 76
14, 46335, Control_c, 10, 7, 78
14, 46336, Control_c, 10, 7, 79
14, 46337, Control_c, 10, 7, 80
14, 46338, Control_c, 10, 7, 81
14, 46339, Control_c, 10, 7, 82
14, 46340, Control_c, 10, 7, 83
14, 46341, Control_c, 10, 7, 84
14, 46342, Control_c, 10, 7, 85
14, 46343, Control_c, 10, 7, 87
14, 46344, Control_c, 10, 7, 88
14, 46345, Control_c, 10, 7, 89
14, 46346, Control_c, 10, 7, 90
14, 46347, Control_c, 10, 7, 91
14, 46348, Control_c, 10, 7, 92
14, 46349, Control_c, 10, 7, 93
14, 46350, Control_c, 10, 7, 95
14, 46351, Control_c, 10, 7, 96
14, 46352, Control_c, 10, 7, 97
14, 46353, Control_c, 10, 7, 98
14, 46354, Control_c, 10, 7, 99
14, 46355, Control_c, 10, 7, 100
14, 46356, Control_c, 10, 7, 101
14, 46357, Control_c, 10, 7, 102
14, 46358, Control_c, 10, 7, 104
14, 46359, Control_c, 10, 7, 105
14, 46360, Control_c, 10, 7, 106
14, 46361, Control_c, 10, 7, 107
14, 46362, Control_c, 10, 7, 108
14, 46363, Control_c, 10, 7, 110
14, 46364, Control_c, 10, 7, 111
14, 46365, Control_c, 10, 7, 112
14, 46366, Control_c, 10, 7, 113
14, 46367, Control_c, 10, 7, 114
14, 46368, Note_off_c, 10, 39, 64
14, 46368, Note_off_c, 10, 27, 64
14, 46368, Note_off_c, 10, 51, 64
14, 46368, Control_c, 10, 7, 65
14, 46368, Note_on_c, 10, 39, 127
14, 46368, Note_on_c, 10, 51, 127
14, 46368, Note_on_c, 10, 27, 127
14, 46369, Control_c, 10, 7, 66
14, 46370, Control_c, 10, 7, 67
14, 46371, Control_c, 10, 7, 68
14, 46372, Control_c, 10, 7, 70
14, 46373, Control_c, 10, 7, 71
14, 46374, Control_c, 10, 7, 72
14, 46375, Control_c, 10, 7, 73
14, 46376, Control_c, 10, 7, 74
14, 46377, Control_c, 10, 7, 75
14, 46378, Control_c, 10, 7, 76
14, 46379, Control_c, 10, 7, 77
14, 46380, Control_c, 10, 7, 78
14, 46381, Control_c, 10, 7, 79
14, 46382, Control_c, 10, 7, 80
14, 46383, Control_c, 10, 7, 81
14, 46384, Control_c, 10, 7, 82
14, 46385, Control_c, 10, 7, 83
14, 46386, Control_c, 10, 7, 84
14, 46387, Control_c, 10, 7, 85
14, 46388, Control_c, 10, 7, 86
14, 46389, Control_c, 10, 7, 88
14, 46390, Control_c, 10, 7, 89
14, 46391, Control_c, 10, 7, 90
14, 46392, Control_c, 10, 7, 91
14, 46393, Control_c, 10, 7, 92
14, 46394, Control_c, 10, 7, 93
14, 46395, Control_c, 10, 7, 94
14, 46396, Control_c, 10, 7, 95
14, 46397, Control_c, 10, 7, 96
14, 46398, Control_c, 10, 7, 97
14, 46399, Control_c, 10, 7, 98
14, 46400, Control_c, 10, 7, 99
14, 46401, Control_c, 10, 7, 100
14, 46402, Control_c, 10, 7, 101
14, 46403, Control_c, 10, 7, 102
14, 46404, Control_c, 10, 7, 103
14, 46405, Control_c, 10, 7, 105
14, 46406, Control_c, 10, 7, 106
14, 46407, Control_c, 10, 7, 107
14, 46408, Control_c, 10, 7, 108
14, 46409, Control_c, 10, 7, 109
14, 46410, Control_c, 10, 7, 109
14, 46411, Control_c, 10, 7, 110
14, 46412, Control_c, 10, 7, 112
14, 46413, Control_c, 10, 7, 113
14, 46414, Control_c, 10, 7, 114
14, 46415, Control_c, 10, 7, 115
14, 46416, Note_off_c, 10, 39, 64
14, 46416, Note_off_c, 10, 27, 64
14, 46416, Note_off_c, 10, 51, 64
14, 46416, Control_c, 10, 7, 67
14, 46416, Note_on_c, 10, 39, 127
14, 46416, Note_on_c, 10, 51, 127
14, 46416, Note_on_c, 10, 27, 127
14, 46417, Control_c, 10, 7, 68
14, 46418, Control_c, 10, 7, 69
14, 46419, Control_c, 10, 7, 70
14, 46420, Control_c, 10, 7, 71
14, 46421, Control_c, 10, 7, 71
14, 46422, Control_c, 10, 7, 72
14, 46423, Control_c, 10, 7, 73
14, 46424, Control_c, 10, 7, 74
14, 46425, Control_c, 10, 7, 75
14, 46426, Control_c, 10, 7, 76
14, 46427, Control_c, 10, 7, 77
14, 46428, Control_c, 10, 7, 78
14, 46429, Control_c, 10, 7, 79
14, 46430, Control_c, 10, 7, 80
14, 46431, Control_c, 10, 7, 81
14, 46432, Control_c, 10, 7, 82
14, 46433, Control_c, 10, 7, 83
14, 46434, Control_c, 10, 7, 84
14, 46435, Control_c, 10, 7, 85
14, 46436, Control_c, 10, 7, 86
14, 46437, Control_c, 10, 7, 87
14, 46438, Control_c, 10, 7, 88
14, 46439, Control_c, 10, 7, 89
14, 46440, Control_c, 10, 7, 90
14, 46441, Control_c, 10, 7, 91
14, 46442, Control_c, 10, 7, 92
14, 46443, Control_c, 10, 7, 93
14, 46444, Control_c, 10, 7, 94
14, 46445, Control_c, 10, 7, 95
14, 46446, Control_c, 10, 7, 96
14, 46447, Control_c, 10, 7, 97
14, 46448, Control_c, 10, 7, 98
14, 46449, Control_c, 10, 7, 99
14, 46450, Control_c, 10, 7, 100
14, 46451, Control_c, 10, 7, 101
14, 46452, Control_c, 10, 7, 102
14, 46453, Control_c, 10, 7, 103
14, 46454, Control_c, 10, 7, 104
14, 46455, Control_c, 10, 7, 104
14, 46456, Control_c, 10, 7, 105
14, 46457, Control_c, 10, 7, 106
14, 46458, Control_c, 10, 7, 107
14, 46459, Control_c, 10, 7, 108
14, 46460, Control_c, 10, 7, 109
14, 46461, Control_c, 10, 7, 110
14, 46462, Control_c, 10, 7, 111
14, 46463, Control_c, 10, 7, 112
14, 46464, Note_off_c, 10, 27, 64
14, 46464, Note_off_c, 10, 51, 64
14, 46464, Note_off_c, 10, 39, 64
14, 46464, Control_c, 10, 7, 50
14, 46464, Note_on_c, 10, 41, 127
14, 46464, Note_on_c, 10, 29, 127
14, 46464, Note_on_c, 10, 53, 127
14, 46466, Control_c, 10, 7, 50
14, 46467, Control_c, 10, 7, 51
14, 46468, Control_c, 10, 7, 51
14, 46469, Control_c, 10, 7, 52
14, 46470, Control_c, 10, 7, 52
14, 46471, Control_c, 10, 7, 52
14, 46472, Control_c, 10, 7, 53
14, 46473, Control_c, 10, 7, 53
14, 46474, Control_c, 10, 7, 54
14, 46475, Control_c, 10, 7, 54
14, 46476, Control_c, 10, 7, 54
14, 46477, Control_c, 10, 7, 55
14, 46478, Control_c, 10, 7, 55
14, 46479, Control_c, 10, 7, 55
14, 46480, Control_c, 10, 7, 56
14, 46481, Control_c, 10, 7, 56
14, 46482, Control_c, 10, 7, 57
14, 46483, Control_c, 10, 7, 57
14, 46484, Control_c, 10, 7, 57
14, 46485, Control_c, 10, 7, 58
14, 46486, Control_c, 10, 7, 58
14, 46487, Control_c, 10, 7, 59
14, 46488, Control_c, 10, 7, 59
14, 46489, Control_c, 10, 7, 59
14, 46490, Control_c, 10, 7, 60
14, 46491, Control_c, 10, 7, 60
14, 46492, Control_c, 10, 7, 61
14, 46493, Control_c, 10, 7, 61
14, 46494, Control_c, 10, 7, 61
14, 46495, Control_c, 10, 7, 62
14, 46496, Control_c, 10, 7, 62
14, 46497, Control_c, 10, 7, 62
14, 46498, Control_c, 10, 7, 63
14, 46499, Control_c, 10, 7, 63
14, 46500, Control_c, 10, 7, 64
14, 46501, Control_c, 10, 7, 64
14, 46502, Control_c, 10, 7, 64
14, 46503, Control_c, 10, 7, 65
14, 46504, Control_c, 10, 7, 65
14, 46505, Control_c, 10, 7, 66
14, 46506, Control_c, 10, 7, 66
14, 46507, Control_c, 10, 7, 66
14, 46508, Control_c, 10, 7, 67
14, 46509, Control_c, 10, 7, 67
14, 46510, Control_c, 10, 7, 68
14, 46511, Control_c, 10, 7, 68
14, 46512, Control_c, 10, 7, 68
14, 46513, Control_c, 10, 7, 69
14, 46514, Control_c, 10, 7, 69
14, 46515, Control_c, 10, 7, 69
14, 46516, Control_c, 10, 7, 70
14, 46517, Control_c, 10, 7, 70
14, 46518, Control_c, 10, 7, 71
14, 46519, Control_c, 10, 7, 71
14, 46520, Control_c, 10, 7, 71
14, 46521, Control_c, 10, 7, 72
14, 46522, Control_c, 10, 7, 72
14, 46523, Control_c, 10, 7, 73
14, 46524, Control_c, 10, 7, 73
14, 46525, Control_c, 10, 7, 73
14, 46526, Control_c, 10, 7, 74
14, 46527, Control_c, 10, 7, 74
14, 46528, Control_c, 10, 7, 75
14, 46529, Control_c, 10, 7, 75
14, 46530, Control_c, 10, 7, 75
14, 46531, Control_c, 10, 7, 76
14, 46532, Control_c, 10, 7, 76
14, 46533, Control_c, 10, 7, 76
14, 46534, Control_c, 10, 7, 77
14, 46535, Control_c, 10, 7, 77
14, 46536, Control_c, 10, 7, 78
14, 46537, Control_c, 10, 7, 78
14, 46538, Control_c, 10, 7, 78
14, 46539, Control_c, 10, 7, 79
14, 46540, Control_c, 10, 7, 79
14, 46541, Control_c, 10, 7, 80
14, 46542, Control_c, 10, 7, 80
14, 46543, Control_c, 10, 7, 80
14, 46544, Control_c, 10, 7, 81
14, 46545, Control_c, 10, 7, 81
14, 46546, Control_c, 10, 7, 82
14, 46547, Control_c, 10, 7, 82
14, 46548, Control_c, 10, 7, 82
14, 46549, Control_c, 10, 7, 83
14, 46550, Control_c, 10, 7, 83
14, 46551, Control_c, 10, 7, 83
14, 46552, Control_c, 10, 7, 84
14, 46553, Control_c, 10, 7, 84
14, 46554, Control_c, 10, 7, 85
14, 46555, Control_c, 10, 7, 85
14, 46556, Control_c, 10, 7, 85
14, 46557, Control_c, 10, 7, 86
14, 46558, Control_c, 10, 7, 86
14, 46559, Control_c, 10, 7, 87
14, 46560, Control_c, 10, 7, 87
14, 46561, Control_c, 10, 7, 87
14, 46562, Control_c, 10, 7, 88
14, 46563, Control_c, 10, 7, 88
14, 46564, Control_c, 10, 7, 89
14, 46565, Control_c, 10, 7, 89
14, 46566, Control_c, 10, 7, 89
14, 46567, Control_c, 10, 7, 90
14, 46568, Control_c, 10, 7, 90
14, 46569, Control_c, 10, 7, 90
14, 46570, Control_c, 10, 7, 91
14, 46571, Control_c, 10, 7, 91
14, 46572, Control_c, 10, 7, 92
14, 46573, Control_c, 10, 7, 92
14, 46574, Control_c, 10, 7, 92
14, 46575, Control_c, 10, 7, 93
14, 46576, Control_c, 10, 7, 93
14, 46577, Control_c, 10, 7, 94
14, 46578, Control_c, 10, 7, 94
14, 46579, Control_c, 10, 7, 94
14, 46580, Control_c, 10, 7, 95
14, 46581, Control_c, 10, 7, 95
14, 46582, Control_c, 10, 7, 96
14, 46583, Control_c, 10, 7, 96
14, 46584, Control_c, 10, 7, 96
14, 46585, Control_c, 10, 7, 97
14, 46586, Control_c, 10, 7, 97
14, 46587, Control_c, 10, 7, 97
14, 46588, Control_c, 10, 7, 98
14, 46589, Control_c, 10, 7, 98
14, 46590, Control_c, 10, 7, 99
14, 46591, Control_c, 10, 7, 99
14, 46592, Control_c, 10, 7, 99
14, 46593, Control_c, 10, 7, 100
14, 46594, Control_c, 10, 7, 100
14, 46595, Control_c, 10, 7, 101
14, 46596, Control_c, 10, 7, 101
14, 46597, Control_c, 10, 7, 101
14, 46598, Control_c, 10, 7, 102
14, 46599, Control_c, 10, 7, 102
14, 46600, Control_c, 10, 7, 103
14, 46601, Control_c, 10, 7, 103
14, 46602, Control_c, 10, 7, 103
14, 46603, Control_c, 10, 7, 104
14, 46604, Control_c, 10, 7, 104
14, 46605, Control_c, 10, 7, 104
14, 46606, Control_c, 10, 7, 105
14, 46607, Control_c, 10, 7, 105
14, 46608, Note_off_c, 10, 53, 64
14, 46608, Note_off_c, 10, 29, 64
14, 46608, Note_off_c, 10, 41, 64
14, 46608, Control_c, 10, 7, 54
14, 46608, Note_on_c, 10, 43, 127
14, 46608, Note_on_c, 10, 31, 127
14, 46608, Note_on_c, 10, 55, 127
14, 46609, Control_c, 10, 7, 55
14, 46610, Control_c, 10, 7, 55
14, 46611, Control_c, 10, 7, 56
14, 46612, Control_c, 10, 7, 57
14, 46613, Control_c, 10, 7, 57
14, 46614, Control_c, 10, 7, 57
14, 46615, Control_c, 10, 7, 58
14, 46616, Control_c, 10, 7, 58
14, 46617, Control_c, 10, 7, 58
14, 46618, Control_c, 10, 7, 59
14, 46619, Control_c, 10, 7, 59
14, 46620, Control_c, 10, 7, 59
14, 46621, Control_c, 10, 7, 60
14, 46622, Control_c, 10, 7, 60
14, 46623, Control_c, 10, 7, 61
14, 46624, Control_c, 10, 7, 61
14, 46625, Control_c, 10, 7, 61
14, 46626, Control_c, 10, 7, 62
14, 46627, Control_c, 10, 7, 62
14, 46628, Control_c, 10, 7, 62
14, 46629, Control_c, 10, 7, 63
14, 46630, Control_c, 10, 7, 63
14, 46631, Control_c, 10, 7, 63
14, 46632, Control_c, 10, 7, 63
14, 46633, Control_c, 10, 7, 64
14, 46634, Control_c, 10, 7, 64
14, 46635, Control_c, 10, 7, 65
14, 46636, Control_c, 10, 7, 65
14, 46637, Control_c, 10, 7, 65
14, 46638, Control_c, 10, 7, 66
14, 46639, Control_c, 10, 7, 66
14, 46640, Control_c, 10, 7, 66
14, 46641, Control_c, 10, 7, 67
14, 46642, Control_c, 10, 7, 67
14, 46643, Control_c, 10, 7, 68
14, 46644, Control_c, 10, 7, 68
14, 46645, Control_c, 10, 7, 68
14, 46646, Control_c, 10, 7, 69
14, 46647, Control_c, 10, 7, 69
14, 46648, Control_c, 10, 7, 69
14, 46649, Control_c, 10, 7, 70
14, 46650, Control_c, 10, 7, 70
14, 46651, Control_c, 10, 7, 71
14, 46652, Control_c, 10, 7, 71
14, 46653, Control_c, 10, 7, 71
14, 46654, Control_c, 10, 7, 72
14, 46655, Control_c, 10, 7, 72
14, 46656, Control_c, 10, 7, 73
14, 46657, Control_c, 10, 7, 73
14, 46658, Control_c, 10, 7, 73
14, 46659, Control_c, 10, 7, 74
14, 46660, Control_c, 10, 7, 74
14, 46661, Control_c, 10, 7, 74
14, 46662, Control_c, 10, 7, 75
14, 46663, Control_c, 10, 7, 75
14, 46664, Control_c, 10, 7, 76
14, 46665, Control_c, 10, 7, 76
14, 46666, Control_c, 10, 7, 76
14, 46667, Control_c, 10, 7, 77
14, 46668, Control_c, 10, 7, 77
14, 46669, Control_c, 10, 7, 77
14, 46670, Control_c, 10, 7, 78
14, 46671, Control_c, 10, 7, 78
14, 46672, Control_c, 10, 7, 79
14, 46673, Control_c, 10, 7, 79
14, 46674, Control_c, 10, 7, 79
14, 46675, Control_c, 10, 7, 80
14, 46676, Control_c, 10, 7, 80
14, 46677, Control_c, 10, 7, 80
14, 46678, Control_c, 10, 7, 81
14, 46679, Control_c, 10, 7, 81
14, 46680, Control_c, 10, 7, 82
14, 46681, Control_c, 10, 7, 82
14, 46682, Control_c, 10, 7, 82
14, 46683, Control_c, 10, 7, 83
14, 46684, Control_c, 10, 7, 83
14, 46685, Control_c, 10, 7, 84
14, 46686, Control_c, 10, 7, 84
14, 46687, Control_c, 10, 7, 84
14, 46688, Control_c, 10, 7, 85
14, 46689, Control_c, 10, 7, 85
14, 46690, Control_c, 10, 7, 85
14, 46691, Control_c, 10, 7, 86
14, 46692, Control_c, 10, 7, 86
14, 46693, Control_c, 10, 7, 87
14, 46694, Control_c, 10, 7, 87
14, 46695, Control_c, 10, 7, 87
14, 46696, Control_c, 10, 7, 88
14, 46697, Control_c, 10, 7, 88
14, 46698, Control_c, 10, 7, 88
14, 46699, Control_c, 10, 7, 89
14, 46700, Control_c, 10, 7, 89
14, 46701, Control_c, 10, 7, 90
14, 46702, Control_c, 10, 7, 90
14, 46703, Control_c, 10, 7, 90
14, 46704, Control_c, 10, 7, 91
14, 46705, Control_c, 10, 7, 91
14, 46706, Control_c, 10, 7, 92
14, 46707, Control_c, 10, 7, 92
14, 46708, Control_c, 10, 7, 92
14, 46709, Control_c, 10, 7, 93
14, 46710, Control_c, 10, 7, 93
14, 46711, Control_c, 10, 7, 93
14, 46712, Control_c, 10, 7, 94
14, 46713, Control_c, 10, 7, 94
14, 46714, Control_c, 10, 7, 95
14, 46715, Control_c, 10, 7, 95
14, 46716, Control_c, 10, 7, 95
14, 46717, Control_c, 10, 7, 96
14, 46718, Control_c, 10, 7, 96
14, 46719, Control_c, 10, 7, 96
14, 46720, Control_c, 10, 7, 97
14, 46721, Control_c, 10, 7, 97
14, 46722, Control_c, 10, 7, 98
14, 46723, Control_c, 10, 7, 98
14, 46724, Control_c, 10, 7, 98
14, 46725, Control_c, 10, 7, 99
14, 46726, Control_c, 10, 7, 99
14, 46727, Control_c, 10, 7, 99
14, 46728, Control_c, 10, 7, 100
14, 46729, Control_c, 10, 7, 100
14, 46730, Control_c, 10, 7, 101
14, 46731, Control_c, 10, 7, 101
14, 46732, Control_c, 10, 7, 101
14, 46733, Control_c, 10, 7, 102
14, 46734, Control_c, 10, 7, 102
14, 46735, Control_c, 10, 7, 103
14, 46736, Control_c, 10, 7, 103
14, 46737, Control_c, 10, 7, 103
14, 46738, Control_c, 10, 7, 104
14, 46739, Control_c, 10, 7, 104
14, 46740, Control_c, 10, 7, 104
14, 46741, Control_c, 10, 7, 105
14, 46742, Control_c, 10, 7, 105
14, 46743, Control_c, 10, 7, 106
14, 46744, Control_c, 10, 7, 106
14, 46745, Control_c, 10, 7, 106
14, 46746, Control_c, 10, 7, 107
14, 46747, Control_c, 10, 7, 107
14, 46748, Control_c, 10, 7, 107
14, 46749, Control_c, 10, 7, 108
14, 46750, Control_c, 10, 7, 108
14, 46751, Control_c, 10, 7, 109
14, 46752, Note_off_c, 10, 43, 64
14, 46752, Note_off_c, 10, 55, 64
14, 46752, Note_off_c, 10, 31, 64
14, 46752, Control_c, 10, 7, 108
14, 46752, Note_on_c, 10, 39, 127
14, 46752, Note_on_c, 10, 27, 127
14, 46752, Note_on_c, 10, 51, 127
14, 46753, Control_c, 10, 7, 108
14, 46754, Control_c, 10, 7, 107
14, 46755, Control_c, 10, 7, 107
14, 46756, Control_c, 10, 7, 106
14, 46757, Control_c, 10, 7, 106
14, 46758, Control_c, 10, 7, 105
14, 46759, Control_c, 10, 7, 105
14, 46760, Control_c, 10, 7, 105
14, 46761, Control_c, 10, 7, 104
14, 46762, Control_c, 10, 7, 104
14, 46763, Control_c, 10, 7, 103
14, 46764, Control_c, 10, 7, 103
14, 46765, Control_c, 10, 7, 102
14, 46766, Control_c, 10, 7, 102
14, 46767, Control_c, 10, 7, 101
14, 46768, Control_c, 10, 7, 101
14, 46769, Control_c, 10, 7, 100
14, 46770, Control_c, 10, 7, 100
14, 46771, Control_c, 10, 7, 99
14, 46772, Control_c, 10, 7, 99
14, 46773, Control_c, 10, 7, 98
14, 46774, Control_c, 10, 7, 98
14, 46775, Control_c, 10, 7, 97
14, 46776, Control_c, 10, 7, 97
14, 46777, Control_c, 10, 7, 96
14, 46778, Control_c, 10, 7, 96
14, 46779, Control_c, 10, 7, 95
14, 46780, Control_c, 10, 7, 95
14, 46781, Control_c, 10, 7, 94
14, 46782, Control_c, 10, 7, 94
14, 46783, Control_c, 10, 7, 93
14, 46784, Control_c, 10, 7, 93
14, 46785, Control_c, 10, 7, 92
14, 46786, Control_c, 10, 7, 92
14, 46787, Control_c, 10, 7, 91
14, 46788, Control_c, 10, 7, 91
14, 46789, Control_c, 10, 7, 90
14, 46790, Control_c, 10, 7, 90
14, 46791, Control_c, 10, 7, 89
14, 46792, Control_c, 10, 7, 89
14, 46793, Control_c, 10, 7, 88
14, 46794, Control_c, 10, 7, 88
14, 46795, Control_c, 10, 7, 87
14, 46796, Control_c, 10, 7, 87
14, 46797, Control_c, 10, 7, 86
14, 46798, Control_c, 10, 7, 86
14, 46799, Control_c, 10, 7, 85
14, 46800, Control_c, 10, 7, 85
14, 46801, Control_c, 10, 7, 84
14, 46802, Control_c, 10, 7, 84
14, 46803, Control_c, 10, 7, 83
14, 46804, Control_c, 10, 7, 83
14, 46805, Control_c, 10, 7, 82
14, 46806, Control_c, 10, 7, 82
14, 46807, Control_c, 10, 7, 81
14, 46808, Control_c, 10, 7, 81
14, 46809, Control_c, 10, 7, 80
14, 46810, Control_c, 10, 7, 80
14, 46811, Control_c, 10, 7, 79
14, 46812, Control_c, 10, 7, 79
14, 46813, Control_c, 10, 7, 78
14, 46814, Control_c, 10, 7, 78
14, 46815, Control_c, 10, 7, 77
14, 46816, Control_c, 10, 7, 77
14, 46817, Control_c, 10, 7, 76
14, 46818, Control_c, 10, 7, 76
14, 46819, Control_c, 10, 7, 75
14, 46820, Control_c, 10, 7, 75
14, 46821, Control_c, 10, 7, 74
14, 46822, Control_c, 10, 7, 74
14, 46823, Control_c, 10, 7, 73
14, 46824, Control_c, 10, 7, 73
14, 46825, Control_c, 10, 7, 72
14, 46826, Control_c, 10, 7, 72
14, 46827, Control_c, 10, 7, 71
14, 46828, Control_c, 10, 7, 71
14, 46829, Control_c, 10, 7, 70
14, 46830, Control_c, 10, 7, 70
14, 46831, Control_c, 10, 7, 69
14, 46832, Control_c, 10, 7, 69
14, 46833, Control_c, 10, 7, 68
14, 46834, Control_c, 10, 7, 68
14, 46835, Control_c, 10, 7, 67
14, 46836, Control_c, 10, 7, 67
14, 46837, Control_c, 10, 7, 66
14, 46838, Control_c, 10, 7, 66
14, 46839, Control_c, 10, 7, 65
14, 46840, Control_c, 10, 7, 65
14, 46841, Control_c, 10, 7, 64
14, 46842, Control_c, 10, 7, 64
14, 46843, Control_c, 10, 7, 63
14, 46844, Control_c, 10, 7, 63
14, 46845, Control_c, 10, 7, 62
14, 46846, Control_c, 10, 7, 62
14, 46847, Control_c, 10, 7, 61
14, 46848, Control_c, 10, 7, 61
14, 46896, Note_off_c, 10, 51, 64
14, 46896, Note_off_c, 10, 27, 64
14, 46896, Note_off_c, 10, 39, 64
14, 46896, Control_c, 10, 7, 102
14, 46896, Note_on_c, 10, 39, 127
14, 46896, Note_on_c, 10, 27, 127
14, 46896, Note_on_c, 10, 51, 127
14, 46897, Control_c, 10, 7, 102
14, 46898, Control_c, 10, 7, 101
14, 46899, Control_c, 10, 7, 100
14, 46900, Control_c, 10, 7, 99
14, 46901, Control_c, 10, 7, 98
14, 46902, Control_c, 10, 7, 97
14, 46903, Control_c, 10, 7, 96
14, 46904, Control_c, 10, 7, 95
14, 46905, Control_c, 10, 7, 95
14, 46906, Control_c, 10, 7, 94
14, 46907, Control_c, 10, 7, 93
14, 46908, Control_c, 10, 7, 92
14, 46909, Control_c, 10, 7, 91
14, 46910, Control_c, 10, 7, 90
14, 46911, Control_c, 10, 7, 89
14, 46912, Control_c, 10, 7, 88
14, 46913, Control_c, 10, 7, 87
14, 46914, Control_c, 10, 7, 87
14, 46915, Control_c, 10, 7, 86
14, 46916, Control_c, 10, 7, 85
14, 46917, Control_c, 10, 7, 84
14, 46918, Control_c, 10, 7, 83
14, 46919, Control_c, 10, 7, 82
14, 46920, Control_c, 10, 7, 81
14, 46921, Control_c, 10, 7, 80
14, 46922, Control_c, 10, 7, 80
14, 46923, Control_c, 10, 7, 79
14, 46924, Control_c, 10, 7, 78
14, 46925, Control_c, 10, 7, 77
14, 46926, Control_c, 10, 7, 76
14, 46927, Control_c, 10, 7, 75
14, 46928, Control_c, 10, 7, 74
14, 46929, Control_c, 10, 7, 73
14, 46930, Control_c, 10, 7, 73
14, 46931, Control_c, 10, 7, 72
14, 46932, Control_c, 10, 7, 71
14, 46933, Control_c, 10, 7, 70
14, 46934, Control_c, 10, 7, 69
14, 46935, Control_c, 10, 7, 68
14, 46936, Control_c, 10, 7, 67
14, 46937, Control_c, 10, 7, 66
14, 46938, Control_c, 10, 7, 66
14, 46939, Control_c, 10, 7, 65
14, 46940, Control_c, 10, 7, 64
14, 46941, Control_c, 10, 7, 63
14, 46942, Control_c, 10, 7, 62
14, 46943, Control_c, 10, 7, 61
14, 46944, Note_off_c, 10, 51, 64
14, 46944, Note_off_c, 10, 27, 64
14, 46944, Note_off_c, 10, 39, 64
14, 46944, Control_c, 10, 7, 102
14, 46944, Note_on_c, 10, 39, 127
14, 46944, Note_on_c, 10, 27, 127
14, 46944, Note_on_c, 10, 51, 127
14, 46945, Control_c, 10, 7, 102
14, 46946, Control_c, 10, 7, 101
14, 46947, Control_c, 10, 7, 100
14, 46948, Control_c, 10, 7, 99
14, 46949, Control_c, 10, 7, 98
14, 46950, Control_c, 10, 7, 97
14, 46951, Control_c, 10, 7, 96
14, 46952, Control_c, 10, 7, 96
14, 46953, Control_c, 10, 7, 95
14, 46954, Control_c, 10, 7, 94
14, 46955, Control_c, 10, 7, 93
14, 46956, Control_c, 10, 7, 92
14, 46957, Control_c, 10, 7, 91
14, 46958, Control_c, 10, 7, 91
14, 46959, Control_c, 10, 7, 90
14, 46960, Control_c, 10, 7, 89
14, 46961, Control_c, 10, 7, 88
14, 46962, Control_c, 10, 7, 87
14, 46963, Control_c, 10, 7, 86
14, 46964, Control_c, 10, 7, 85
14, 46965, Control_c, 10, 7, 85
14, 46966, Control_c, 10, 7, 84
14, 46967, Control_c, 10, 7, 83
14, 46968, Control_c, 10, 7, 82
14, 46969, Control_c, 10, 7, 81
14, 46970, Control_c, 10, 7, 80
14, 46971, Control_c, 10, 7, 80
14, 46972, Control_c, 10, 7, 79
14, 46973, Control_c, 10, 7, 78
14, 46974, Control_c, 10, 7, 77
14, 46975, Control_c, 10, 7, 76
14, 46976, Control_c, 10, 7, 75
14, 46977, Control_c, 10, 7, 74
14, 46978, Control_c, 10, 7, 74
14, 46979, Control_c, 10, 7, 73
14, 46980, Control_c, 10, 7, 72
14, 46981, Control_c, 10, 7, 71
14, 46982, Control_c, 10, 7, 70
14, 46983, Control_c, 10, 7, 69
14, 46984, Control_c, 10, 7, 68
14, 46985, Control_c, 10, 7, 68
14, 46986, Control_c, 10, 7, 67
14, 46987, Control_c, 10, 7, 66
14, 46988, Control_c, 10, 7, 65
14, 46989, Control_c, 10, 7, 64
14, 46990, Control_c, 10, 7, 102
14, 46991, Control_c, 10, 7, 102
14, 46992, Note_off_c, 10, 51, 64
14, 46992, Note_off_c, 10, 27, 64
14, 46992, Note_off_c, 10, 39, 64
14, 46992, Control_c, 10, 7, 101
14, 46992, Note_on_c, 10, 39, 127
14, 46992, Note_on_c, 10, 27, 127
14, 46992, Note_on_c, 10, 51, 127
14, 46993, Control_c, 10, 7, 100
14, 46994, Control_c, 10, 7, 99
14, 46995, Control_c, 10, 7, 98
14, 46996, Control_c, 10, 7, 97
14, 46997, Control_c, 10, 7, 97
14, 46998, Control_c, 10, 7, 96
14, 46999, Control_c, 10, 7, 95
14, 47000, Control_c, 10, 7, 94
14, 47001, Control_c, 10, 7, 93
14, 47002, Control_c, 10, 7, 93
14, 47003, Control_c, 10, 7, 92
14, 47004, Control_c, 10, 7, 91
14, 47005, Control_c, 10, 7, 90
14, 47006, Control_c, 10, 7, 89
14, 47007, Control_c, 10, 7, 88
14, 47008, Control_c, 10, 7, 88
14, 47009, Control_c, 10, 7, 87
14, 47010, Control_c, 10, 7, 86
14, 47011, Control_c, 10, 7, 85
14, 47012, Control_c, 10, 7, 84
14, 47013, Control_c, 10, 7, 84
14, 47014, Control_c, 10, 7, 83
14, 47015, Control_c, 10, 7, 82
14, 47016, Control_c, 10, 7, 81
14, 47017, Control_c, 10, 7, 80
14, 47018, Control_c, 10, 7, 79
14, 47019, Control_c, 10, 7, 79
14, 47020, Control_c, 10, 7, 78
14, 47021, Control_c, 10, 7, 77
14, 47022, Control_c, 10, 7, 76
14, 47023, Control_c, 10, 7, 75
14, 47024, Control_c, 10, 7, 75
14, 47025, Control_c, 10, 7, 74
14, 47026, Control_c, 10, 7, 73
14, 47027, Control_c, 10, 7, 72
14, 47028, Control_c, 10, 7, 71
14, 47029, Control_c, 10, 7, 70
14, 47030, Control_c, 10, 7, 70
14, 47031, Control_c, 10, 7, 69
14, 47032, Control_c, 10, 7, 68
14, 47033, Control_c, 10, 7, 67
14, 47034, Control_c, 10, 7, 66
14, 47035, Control_c, 10, 7, 66
14, 47036, Control_c, 10, 7, 65
14, 47037, Control_c, 10, 7, 64
14, 47038, Control_c, 10, 7, 63
14, 47039, Control_c, 10, 7, 62
14, 47040, Note_off_c, 10, 51, 64
14, 47040, Note_off_c, 10, 27, 64
14, 47040, Note_off_c, 10, 39, 64
14, 47040, Control_c, 10, 7, 102
14, 47040, Note_on_c, 10, 39, 127
14, 47040, Note_on_c, 10, 27, 127
14, 47040, Note_on_c, 10, 51, 127
14, 47041, Control_c, 10, 7, 102
14, 47042, Control_c, 10, 7, 101
14, 47043, Control_c, 10, 7, 100
14, 47044, Control_c, 10, 7, 99
14, 47045, Control_c, 10, 7, 98
14, 47046, Control_c, 10, 7, 97
14, 47047, Control_c, 10, 7, 96
14, 47048, Control_c, 10, 7, 95
14, 47049, Control_c, 10, 7, 94
14, 47050, Control_c, 10, 7, 94
14, 47051, Control_c, 10, 7, 93
14, 47052, Control_c, 10, 7, 92
14, 47053, Control_c, 10, 7, 91
14, 47054, Control_c, 10, 7, 90
14, 47055, Control_c, 10, 7, 89
14, 47056, Control_c, 10, 7, 88
14, 47057, Control_c, 10, 7, 87
14, 47058, Control_c, 10, 7, 86
14, 47059, Control_c, 10, 7, 86
14, 47060, Control_c, 10, 7, 85
14, 47061, Control_c, 10, 7, 84
14, 47062, Control_c, 10, 7, 83
14, 47063, Control_c, 10, 7, 82
14, 47064, Control_c, 10, 7, 81
14, 47065, Control_c, 10, 7, 80
14, 47066, Control_c, 10, 7, 79
14, 47067, Control_c, 10, 7, 78
14, 47068, Control_c, 10, 7, 78
14, 47069, Control_c, 10, 7, 77
14, 47070, Control_c, 10, 7, 76
14, 47071, Control_c, 10, 7, 75
14, 47072, Control_c, 10, 7, 74
14, 47073, Control_c, 10, 7, 73
14, 47074, Control_c, 10, 7, 72
14, 47075, Control_c, 10, 7, 71
14, 47076, Control_c, 10, 7, 70
14, 47077, Control_c, 10, 7, 69
14, 47078, Control_c, 10, 7, 69
14, 47079, Control_c, 10, 7, 68
14, 47080, Control_c, 10, 7, 67
14, 47081, Control_c, 10, 7, 66
14, 47082, Control_c, 10, 7, 65
14, 47083, Control_c, 10, 7, 64
14, 47084, Control_c, 10, 7, 63
14, 47085, Control_c, 10, 7, 62
14, 47086, Control_c, 10, 7, 61
14, 47087, Control_c, 10, 7, 61
14, 47088, Note_off_c, 10, 51, 64
14, 47088, Note_off_c, 10, 27, 64
14, 47088, Note_off_c, 10, 39, 64
14, 47088, Note_on_c, 10, 39, 127
14, 47088, Note_on_c, 10, 27, 127
14, 47088, Note_on_c, 10, 51, 127
14, 47089, Control_c, 10, 7, 103
14, 47090, Control_c, 10, 7, 102
14, 47091, Control_c, 10, 7, 101
14, 47092, Control_c, 10, 7, 100
14, 47093, Control_c, 10, 7, 99
14, 47094, Control_c, 10, 7, 99
14, 47095, Control_c, 10, 7, 98
14, 47096, Control_c, 10, 7, 97
14, 47097, Control_c, 10, 7, 96
14, 47098, Control_c, 10, 7, 95
14, 47099, Control_c, 10, 7, 94
14, 47100, Control_c, 10, 7, 93
14, 47101, Control_c, 10, 7, 93
14, 47102, Control_c, 10, 7, 92
14, 47103, Control_c, 10, 7, 91
14, 47104, Control_c, 10, 7, 90
14, 47105, Control_c, 10, 7, 89
14, 47106, Control_c, 10, 7, 88
14, 47107, Control_c, 10, 7, 87
14, 47108, Control_c, 10, 7, 87
14, 47109, Control_c, 10, 7, 86
14, 47110, Control_c, 10, 7, 85
14, 47111, Control_c, 10, 7, 84
14, 47112, Control_c, 10, 7, 83
14, 47113, Control_c, 10, 7, 82
14, 47114, Control_c, 10, 7, 81
14, 47115, Control_c, 10, 7, 81
14, 47116, Control_c, 10, 7, 80
14, 47117, Control_c, 10, 7, 79
14, 47118, Control_c, 10, 7, 78
14, 47119, Control_c, 10, 7, 77
14, 47120, Control_c, 10, 7, 76
14, 47121, Control_c, 10, 7, 75
14, 47122, Control_c, 10, 7, 75
14, 47123, Control_c, 10, 7, 74
14, 47124, Control_c, 10, 7, 73
14, 47125, Control_c, 10, 7, 72
14, 47126, Control_c, 10, 7, 71
14, 47127, Control_c, 10, 7, 70
14, 47128, Control_c, 10, 7, 69
14, 47129, Control_c, 10, 7, 69
14, 47130, Control_c, 10, 7, 68
14, 47131, Control_c, 10, 7, 67
14, 47132, Control_c, 10, 7, 66
14, 47133, Control_c, 10, 7, 65
14, 47134, Control_c, 10, 7, 64
14, 47135, Control_c, 10, 7, 64
14, 47136, Note_off_c, 10, 51, 64
14, 47136, Note_off_c, 10, 27, 64
14, 47136, Note_off_c, 10, 39, 64
14, 47136, Note_on_c, 10, 39, 127
14, 47136, Note_on_c, 10, 27, 127
14, 47136, Note_on_c, 10, 51, 127
14, 47137, Control_c, 10, 7, 104
14, 47138, Control_c, 10, 7, 103
14, 47139, Control_c, 10, 7, 102
14, 47140, Control_c, 10, 7, 101
14, 47141, Control_c, 10, 7, 100
14, 47142, Control_c, 10, 7, 99
14, 47143, Control_c, 10, 7, 98
14, 47144, Control_c, 10, 7, 98
14, 47145, Control_c, 10, 7, 97
14, 47146, Control_c, 10, 7, 96
14, 47147, Control_c, 10, 7, 95
14, 47148, Control_c, 10, 7, 94
14, 47149, Control_c, 10, 7, 93
14, 47150, Control_c, 10, 7, 93
14, 47151, Control_c, 10, 7, 92
14, 47152, Control_c, 10, 7, 91
14, 47153, Control_c, 10, 7, 90
14, 47154, Control_c, 10, 7, 89
14, 47155, Control_c, 10, 7, 88
14, 47156, Control_c, 10, 7, 87
14, 47157, Control_c, 10, 7, 87
14, 47158, Control_c, 10, 7, 86
14, 47159, Control_c, 10, 7, 85
14, 47160, Control_c, 10, 7, 84
14, 47161, Control_c, 10, 7, 83
14, 47162, Control_c, 10, 7, 82
14, 47163, Control_c, 10, 7, 82
14, 47164, Control_c, 10, 7, 81
14, 47165, Control_c, 10, 7, 80
14, 47166, Control_c, 10, 7, 79
14, 47167, Control_c, 10, 7, 78
14, 47168, Control_c, 10, 7, 77
14, 47169, Control_c, 10, 7, 76
14, 47170, Control_c, 10, 7, 76
14, 47171, Control_c, 10, 7, 75
14, 47172, Control_c, 10, 7, 74
14, 47173, Control_c, 10, 7, 73
14, 47174, Control_c, 10, 7, 72
14, 47175, Control_c, 10, 7, 71
14, 47176, Control_c, 10, 7, 71
14, 47177, Control_c, 10, 7, 70
14, 47178, Control_c, 10, 7, 69
14, 47179, Control_c, 10, 7, 68
14, 47180, Control_c, 10, 7, 67
14, 47181, Control_c, 10, 7, 66
14, 47182, Control_c, 10, 7, 65
14, 47183, Control_c, 10, 7, 102
14, 47184, Note_off_c, 10, 51, 64
14, 47184, Note_off_c, 10, 27, 64
14, 47184, Note_off_c, 10, 39, 64
14, 47184, Control_c, 10, 7, 102
14, 47184, Note_on_c, 10, 39, 127
14, 47184, Note_on_c, 10, 27, 127
14, 47184, Note_on_c, 10, 51, 127
14, 47185, Control_c, 10, 7, 101
14, 47186, Control_c, 10, 7, 100
14, 47187, Control_c, 10, 7, 99
14, 47188, Control_c, 10, 7, 98
14, 47189, Control_c, 10, 7, 97
14, 47190, Control_c, 10, 7, 96
14, 47191, Control_c, 10, 7, 96
14, 47192, Control_c, 10, 7, 95
14, 47193, Control_c, 10, 7, 94
14, 47194, Control_c, 10, 7, 93
14, 47195, Control_c, 10, 7, 92
14, 47196, Control_c, 10, 7, 91
14, 47197, Control_c, 10, 7, 90
14, 47198, Control_c, 10, 7, 89
14, 47199, Control_c, 10, 7, 89
14, 47200, Control_c, 10, 7, 88
14, 47201, Control_c, 10, 7, 87
14, 47202, Control_c, 10, 7, 86
14, 47203, Control_c, 10, 7, 85
14, 47204, Control_c, 10, 7, 84
14, 47205, Control_c, 10, 7, 83
14, 47206, Control_c, 10, 7, 83
14, 47207, Control_c, 10, 7, 82
14, 47208, Control_c, 10, 7, 81
14, 47209, Control_c, 10, 7, 80
14, 47210, Control_c, 10, 7, 79
14, 47211, Control_c, 10, 7, 78
14, 47212, Control_c, 10, 7, 77
14, 47213, Control_c, 10, 7, 77
14, 47214, Control_c, 10, 7, 76
14, 47215, Control_c, 10, 7, 75
14, 47216, Control_c, 10, 7, 74
14, 47217, Control_c, 10, 7, 73
14, 47218, Control_c, 10, 7, 72
14, 47219, Control_c, 10, 7, 71
14, 47220, Control_c, 10, 7, 71
14, 47221, Control_c, 10, 7, 70
14, 47222, Control_c, 10, 7, 69
14, 47223, Control_c, 10, 7, 68
14, 47224, Control_c, 10, 7, 67
14, 47225, Control_c, 10, 7, 66
14, 47226, Control_c, 10, 7, 65
14, 47227, Control_c, 10, 7, 65
14, 47228, Control_c, 10, 7, 64
14, 47229, Control_c, 10, 7, 63
14, 47232, Note_off_c, 10, 39, 64
14, 47232, Note_off_c, 10, 51, 64
14, 47232, Note_off_c, 10, 27, 64
14, 47232, Control_c, 10, 7, 113
14, 47232, Note_on_c, 10, 39, 127
14, 47232, Note_on_c, 10, 27, 127
14, 47232, Note_on_c, 10, 51, 127
14, 47233, Control_c, 10, 7, 113
14, 47234, Control_c, 10, 7, 112
14, 47235, Control_c, 10, 7, 112
14, 47236, Control_c, 10, 7, 112
14, 47237, Control_c, 10, 7, 111
14, 47238, Control_c, 10, 7, 111
14, 47239, Control_c, 10, 7, 110
14, 47240, Control_c, 10, 7, 110
14, 47241, Control_c, 10, 7, 110
14, 47242, Control_c, 10, 7, 109
14, 47243, Control_c, 10, 7, 109
14, 47244, Control_c, 10, 7, 109
14, 47245, Control_c, 10, 7, 108
14, 47246, Control_c, 10, 7, 108
14, 47247, Control_c, 10, 7, 108
14, 47248, Control_c, 10, 7, 107
14, 47249, Control_c, 10, 7, 107
14, 47250, Control_c, 10, 7, 107
14, 47251, Control_c, 10, 7, 106
14, 47252, Control_c, 10, 7, 106
14, 47253, Control_c, 10, 7, 106
14, 47254, Control_c, 10, 7, 105
14, 47255, Control_c, 10, 7, 105
14, 47256, Control_c, 10, 7, 104
14, 47257, Control_c, 10, 7, 104
14, 47258, Control_c, 10, 7, 104
14, 47259, Control_c, 10, 7, 103
14, 47260, Control_c, 10, 7, 103
14, 47261, Control_c, 10, 7, 103
14, 47262, Control_c, 10, 7, 102
14, 47263, Control_c, 10, 7, 102
14, 47264, Control_c, 10, 7, 102
14, 47265, Control_c, 10, 7, 101
14, 47266, Control_c, 10, 7, 101
14, 47267, Control_c, 10, 7, 101
14, 47268, Control_c, 10, 7, 100
14, 47269, Control_c, 10, 7, 100
14, 47270, Control_c, 10, 7, 100
14, 47271, Control_c, 10, 7, 99
14, 47272, Control_c, 10, 7, 99
14, 47273, Control_c, 10, 7, 98
14, 47274, Control_c, 10, 7, 98
14, 47275, Control_c, 10, 7, 98
14, 47276, Control_c, 10, 7, 97
14, 47277, Control_c, 10, 7, 97
14, 47278, Control_c, 10, 7, 97
14, 47279, Control_c, 10, 7, 96
14, 47280, Control_c, 10, 7, 96
14, 47281, Control_c, 10, 7, 96
14, 47282, Control_c, 10, 7, 95
14, 47283, Control_c, 10, 7, 95
14, 47284, Control_c, 10, 7, 95
14, 47285, Control_c, 10, 7, 94
14, 47286, Control_c, 10, 7, 94
14, 47287, Control_c, 10, 7, 94
14, 47288, Control_c, 10, 7, 93
14, 47289, Control_c, 10, 7, 93
14, 47290, Control_c, 10, 7, 92
14, 47291, Control_c, 10, 7, 92
14, 47292, Control_c, 10, 7, 92
14, 47293, Control_c, 10, 7, 91
14, 47294, Control_c, 10, 7, 91
14, 47295, Control_c, 10, 7, 91
14, 47296, Control_c, 10, 7, 90
14, 47297, Control_c, 10, 7, 90
14, 47298, Control_c, 10, 7, 90
14, 47299, Control_c, 10, 7, 89
14, 47300, Control_c, 10, 7, 89
14, 47301, Control_c, 10, 7, 89
14, 47302, Control_c, 10, 7, 88
14, 47303, Control_c, 10, 7, 88
14, 47304, Control_c, 10, 7, 88
14, 47305, Control_c, 10, 7, 87
14, 47306, Control_c, 10, 7, 87
14, 47307, Control_c, 10, 7, 86
14, 47308, Control_c, 10, 7, 86
14, 47309, Control_c, 10, 7, 86
14, 47310, Control_c, 10, 7, 85
14, 47311, Control_c, 10, 7, 85
14, 47312, Control_c, 10, 7, 85
14, 47313, Control_c, 10, 7, 84
14, 47314, Control_c, 10, 7, 84
14, 47315, Control_c, 10, 7, 84
14, 47316, Control_c, 10, 7, 83
14, 47317, Control_c, 10, 7, 83
14, 47318, Control_c, 10, 7, 83
14, 47319, Control_c, 10, 7, 82
14, 47320, Control_c, 10, 7, 82
14, 47321, Control_c, 10, 7, 82
14, 47322, Control_c, 10, 7, 81
14, 47323, Control_c, 10, 7, 81
14, 47324, Control_c, 10, 7, 80
14, 47325, Control_c, 10, 7, 80
14, 47326, Control_c, 10, 7, 80
14, 47327, Control_c, 10, 7, 79
14, 47328, Control_c, 10, 7, 79
14, 47329, Control_c, 10, 7, 79
14, 47330, Control_c, 10, 7, 78
14, 47331, Control_c, 10, 7, 78
14, 47332, Control_c, 10, 7, 78
14, 47333, Control_c, 10, 7, 77
14, 47334, Control_c, 10, 7, 77
14, 47335, Control_c, 10, 7, 77
14, 47336, Control_c, 10, 7, 76
14, 47337, Control_c, 10, 7, 76
14, 47338, Control_c, 10, 7, 76
14, 47339, Control_c, 10, 7, 75
14, 47340, Control_c, 10, 7, 75
14, 47341, Control_c, 10, 7, 74
14, 47342, Control_c, 10, 7, 74
14, 47343, Control_c, 10, 7, 74
14, 47344, Control_c, 10, 7, 73
14, 47345, Control_c, 10, 7, 73
14, 47346, Control_c, 10, 7, 73
14, 47347, Control_c, 10, 7, 72
14, 47348, Control_c, 10, 7, 72
14, 47349, Control_c, 10, 7, 72
14, 47350, Control_c, 10, 7, 71
14, 47351, Control_c, 10, 7, 71
14, 47352, Control_c, 10, 7, 71
14, 47353, Control_c, 10, 7, 70
14, 47354, Control_c, 10, 7, 70
14, 47355, Control_c, 10, 7, 70
14, 47356, Control_c, 10, 7, 69
14, 47357, Control_c, 10, 7, 69
14, 47358, Control_c, 10, 7, 68
14, 47359, Control_c, 10, 7, 68
14, 47360, Control_c, 10, 7, 68
14, 47361, Control_c, 10, 7, 67
14, 47362, Control_c, 10, 7, 67
14, 47363, Control_c, 10, 7, 67
14, 47364, Control_c, 10, 7, 66
14, 47365, Control_c, 10, 7, 66
14, 47366, Control_c, 10, 7, 66
14, 47367, Control_c, 10, 7, 65
14, 47368, Control_c, 10, 7, 65
14, 47369, Control_c, 10, 7, 65
14, 47370, Control_c, 10, 7, 64
14, 47371, Control_c, 10, 7, 64
14, 47372, Control_c, 10, 7, 64
14, 47373, Control_c, 10, 7, 63
14, 47374, Control_c, 10, 7, 111
14, 47375, Control_c, 10, 7, 111
14, 47376, Note_off_c, 10, 51, 64
14, 47376, Note_off_c, 10, 27, 64
14, 47376, Note_off_c, 10, 39, 64
14, 47376, Control_c, 10, 7, 110
14, 47376, Note_on_c, 10, 39, 127
14, 47376, Note_on_c, 10, 51, 127
14, 47376, Note_on_c, 10, 27, 127
14, 47377, Control_c, 10, 7, 110
14, 47378, Control_c, 10, 7, 110
14, 47379, Control_c, 10, 7, 109
14, 47380, Control_c, 10, 7, 109
14, 47381, Control_c, 10, 7, 109
14, 47382, Control_c, 10, 7, 109
14, 47383, Control_c, 10, 7, 108
14, 47384, Control_c, 10, 7, 108
14, 47385, Control_c, 10, 7, 108
14, 47386, Control_c, 10, 7, 107
14, 47387, Control_c, 10, 7, 107
14, 47388, Control_c, 10, 7, 107
14, 47389, Control_c, 10, 7, 106
14, 47390, Control_c, 10, 7, 106
14, 47391, Control_c, 10, 7, 106
14, 47392, Control_c, 10, 7, 105
14, 47393, Control_c, 10, 7, 105
14, 47394, Control_c, 10, 7, 105
14, 47395, Control_c, 10, 7, 104
14, 47396, Control_c, 10, 7, 104
14, 47397, Control_c, 10, 7, 104
14, 47398, Control_c, 10, 7, 103
14, 47399, Control_c, 10, 7, 103
14, 47400, Control_c, 10, 7, 103
14, 47401, Control_c, 10, 7, 102
14, 47402, Control_c, 10, 7, 102
14, 47403, Control_c, 10, 7, 102
14, 47404, Control_c, 10, 7, 101
14, 47405, Control_c, 10, 7, 101
14, 47406, Control_c, 10, 7, 101
14, 47407, Control_c, 10, 7, 100
14, 47408, Control_c, 10, 7, 100
14, 47409, Control_c, 10, 7, 100
14, 47410, Control_c, 10, 7, 99
14, 47411, Control_c, 10, 7, 99
14, 47412, Control_c, 10, 7, 99
14, 47413, Control_c, 10, 7, 98
14, 47414, Control_c, 10, 7, 98
14, 47415, Control_c, 10, 7, 98
14, 47416, Control_c, 10, 7, 97
14, 47417, Control_c, 10, 7, 97
14, 47418, Control_c, 10, 7, 97
14, 47419, Control_c, 10, 7, 96
14, 47420, Control_c, 10, 7, 96
14, 47421, Control_c, 10, 7, 96
14, 47422, Control_c, 10, 7, 95
14, 47423, Control_c, 10, 7, 95
14, 47424, Control_c, 10, 7, 95
14, 47425, Control_c, 10, 7, 94
14, 47426, Control_c, 10, 7, 94
14, 47427, Control_c, 10, 7, 94
14, 47428, Control_c, 10, 7, 93
14, 47429, Control_c, 10, 7, 93
14, 47430, Control_c, 10, 7, 93
14, 47431, Control_c, 10, 7, 92
14, 47432, Control_c, 10, 7, 92
14, 47433, Control_c, 10, 7, 92
14, 47434, Control_c, 10, 7, 91
14, 47435, Control_c, 10, 7, 91
14, 47436, Control_c, 10, 7, 91
14, 47437, Control_c, 10, 7, 90
14, 47438, Control_c, 10, 7, 90
14, 47439, Control_c, 10, 7, 90
14, 47440, Control_c, 10, 7, 89
14, 47441, Control_c, 10, 7, 89
14, 47442, Control_c, 10, 7, 89
14, 47443, Control_c, 10, 7, 88
14, 47444, Control_c, 10, 7, 88
14, 47445, Control_c, 10, 7, 88
14, 47446, Control_c, 10, 7, 87
14, 47447, Control_c, 10, 7, 87
14, 47448, Control_c, 10, 7, 87
14, 47449, Control_c, 10, 7, 86
14, 47450, Control_c, 10, 7, 86
14, 47451, Control_c, 10, 7, 86
14, 47452, Control_c, 10, 7, 85
14, 47453, Control_c, 10, 7, 85
14, 47454, Control_c, 10, 7, 85
14, 47455, Control_c, 10, 7, 84
14, 47456, Control_c, 10, 7, 84
14, 47457, Control_c, 10, 7, 84
14, 47458, Control_c, 10, 7, 83
14, 47459, Control_c, 10, 7, 83
14, 47460, Control_c, 10, 7, 83
14, 47461, Control_c, 10, 7, 82
14, 47462, Control_c, 10, 7, 82
14, 47463, Control_c, 10, 7, 82
14, 47464, Control_c, 10, 7, 81
14, 47465, Control_c, 10, 7, 81
14, 47466, Control_c, 10, 7, 81
14, 47467, Control_c, 10, 7, 80
14, 47468, Control_c, 10, 7, 80
14, 47469, Control_c, 10, 7, 80
14, 47470, Control_c, 10, 7, 79
14, 47471, Control_c, 10, 7, 79
14, 47472, Control_c, 10, 7, 79
14, 47473, Control_c, 10, 7, 78
14, 47474, Control_c, 10, 7, 78
14, 47475, Control_c, 10, 7, 78
14, 47476, Control_c, 10, 7, 77
14, 47477, Control_c, 10, 7, 77
14, 47478, Control_c, 10, 7, 77
14, 47479, Control_c, 10, 7, 76
14, 47480, Control_c, 10, 7, 76
14, 47481, Control_c, 10, 7, 76
14, 47482, Control_c, 10, 7, 75
14, 47483, Control_c, 10, 7, 75
14, 47484, Control_c, 10, 7, 75
14, 47485, Control_c, 10, 7, 74
14, 47486, Control_c, 10, 7, 74
14, 47487, Control_c, 10, 7, 74
14, 47488, Control_c, 10, 7, 73
14, 47489, Control_c, 10, 7, 73
14, 47490, Control_c, 10, 7, 73
14, 47491, Control_c, 10, 7, 72
14, 47492, Control_c, 10, 7, 72
14, 47493, Control_c, 10, 7, 72
14, 47494, Control_c, 10, 7, 71
14, 47495, Control_c, 10, 7, 71
14, 47496, Control_c, 10, 7, 71
14, 47497, Control_c, 10, 7, 70
14, 47498, Control_c, 10, 7, 70
14, 47499, Control_c, 10, 7, 70
14, 47500, Control_c, 10, 7, 69
14, 47501, Control_c, 10, 7, 69
14, 47502, Control_c, 10, 7, 69
14, 47503, Control_c, 10, 7, 68
14, 47504, Control_c, 10, 7, 68
14, 47505, Control_c, 10, 7, 68
14, 47506, Control_c, 10, 7, 67
14, 47507, Control_c, 10, 7, 67
14, 47508, Control_c, 10, 7, 67
14, 47509, Control_c, 10, 7, 66
14, 47510, Control_c, 10, 7, 66
14, 47511, Control_c, 10, 7, 66
14, 47512, Control_c, 10, 7, 65
14, 47513, Control_c, 10, 7, 65
14, 47514, Control_c, 10, 7, 65
14, 47515, Control_c, 10, 7, 64
14, 47516, Control_c, 10, 7, 64
14, 47517, Control_c, 10, 7, 64
14, 47518, Control_c, 10, 7, 63
14, 47519, Control_c, 10, 7, 63
14, 47520, Note_off_c, 10, 27, 64
14, 47520, Note_off_c, 10, 51, 64
14, 47520, Note_off_c, 10, 39, 64
14, 47520, Control_c, 10, 7, 64
14, 47520, Note_on_c, 10, 39, 127
14, 47520, Note_on_c, 10, 51, 127
14, 47520, Note_on_c, 10, 27, 127
14, 47521, Control_c, 10, 7, 64
14, 47522, Control_c, 10, 7, 65
14, 47523, Control_c, 10, 7, 65
14, 47524, Control_c, 10, 7, 66
14, 47525, Control_c, 10, 7, 66
14, 47526, Control_c, 10, 7, 67
14, 47527, Control_c, 10, 7, 67
14, 47528, Control_c, 10, 7, 68
14, 47529, Control_c, 10, 7, 68
14, 47530, Control_c, 10, 7, 69
14, 47531, Control_c, 10, 7, 69
14, 47532, Control_c, 10, 7, 70
14, 47533, Control_c, 10, 7, 70
14, 47534, Control_c, 10, 7, 71
14, 47535, Control_c, 10, 7, 71
14, 47536, Control_c, 10, 7, 72
14, 47537, Control_c, 10, 7, 72
14, 47538, Control_c, 10, 7, 73
14, 47539, Control_c, 10, 7, 73
14, 47540, Control_c, 10, 7, 74
14, 47541, Control_c, 10, 7, 74
14, 47542, Control_c, 10, 7, 75
14, 47543, Control_c, 10, 7, 75
14, 47544, Control_c, 10, 7, 76
14, 47545, Control_c, 10, 7, 76
14, 47546, Control_c, 10, 7, 77
14, 47547, Control_c, 10, 7, 77
14, 47548, Control_c, 10, 7, 78
14, 47549, Control_c, 10, 7, 78
14, 47550, Control_c, 10, 7, 79
14, 47551, Control_c, 10, 7, 79
14, 47552, Control_c, 10, 7, 80
14, 47553, Control_c, 10, 7, 80
14, 47554, Control_c, 10, 7, 81
14, 47555, Control_c, 10, 7, 81
14, 47556, Control_c, 10, 7, 82
14, 47557, Control_c, 10, 7, 82
14, 47558, Control_c, 10, 7, 83
14, 47559, Control_c, 10, 7, 83
14, 47560, Control_c, 10, 7, 84
14, 47561, Control_c, 10, 7, 84
14, 47562, Control_c, 10, 7, 85
14, 47563, Control_c, 10, 7, 85
14, 47564, Control_c, 10, 7, 86
14, 47565, Control_c, 10, 7, 86
14, 47566, Control_c, 10, 7, 87
14, 47567, Control_c, 10, 7, 87
14, 47568, Control_c, 10, 7, 88
14, 47569, Control_c, 10, 7, 88
14, 47570, Control_c, 10, 7, 89
14, 47571, Control_c, 10, 7, 89
14, 47572, Control_c, 10, 7, 90
14, 47573, Control_c, 10, 7, 90
14, 47574, Control_c, 10, 7, 91
14, 47575, Control_c, 10, 7, 91
14, 47576, Control_c, 10, 7, 92
14, 47577, Control_c, 10, 7, 92
14, 47578, Control_c, 10, 7, 93
14, 47579, Control_c, 10, 7, 93
14, 47580, Control_c, 10, 7, 94
14, 47581, Control_c, 10, 7, 94
14, 47582, Control_c, 10, 7, 95
14, 47583, Control_c, 10, 7, 95
14, 47584, Control_c, 10, 7, 96
14, 47585, Control_c, 10, 7, 96
14, 47586, Control_c, 10, 7, 97
14, 47587, Control_c, 10, 7, 97
14, 47588, Control_c, 10, 7, 98
14, 47589, Control_c, 10, 7, 98
14, 47590, Control_c, 10, 7, 99
14, 47591, Control_c, 10, 7, 99
14, 47592, Control_c, 10, 7, 100
14, 47593, Control_c, 10, 7, 100
14, 47594, Control_c, 10, 7, 101
14, 47595, Control_c, 10, 7, 101
14, 47596, Control_c, 10, 7, 102
14, 47597, Control_c, 10, 7, 102
14, 47598, Control_c, 10, 7, 103
14, 47599, Control_c, 10, 7, 103
14, 47600, Control_c, 10, 7, 104
14, 47601, Control_c, 10, 7, 104
14, 47602, Control_c, 10, 7, 105
14, 47603, Control_c, 10, 7, 105
14, 47604, Control_c, 10, 7, 106
14, 47605, Control_c, 10, 7, 106
14, 47606, Control_c, 10, 7, 107
14, 47607, Control_c, 10, 7, 107
14, 47608, Control_c, 10, 7, 108
14, 47609, Control_c, 10, 7, 108
14, 47610, Control_c, 10, 7, 109
14, 47611, Control_c, 10, 7, 109
14, 47612, Control_c, 10, 7, 110
14, 47613, Control_c, 10, 7, 110
14, 47614, Control_c, 10, 7, 111
14, 47615, Control_c, 10, 7, 111
14, 47616, Note_off_c, 10, 27, 64
14, 47616, Note_off_c, 10, 51, 64
14, 47616, Note_off_c, 10, 39, 64
14, 47616, Control_c, 10, 7, 112
14, 47616, Note_on_c, 10, 39, 127
14, 47616, Note_on_c, 10, 51, 127
14, 47616, Note_on_c, 10, 27, 127
14, 47617, Control_c, 10, 7, 64
14, 47618, Control_c, 10, 7, 65
14, 47619, Control_c, 10, 7, 66
14, 47620, Control_c, 10, 7, 67
14, 47621, Control_c, 10, 7, 68
14, 47622, Control_c, 10, 7, 69
14, 47623, Control_c, 10, 7, 69
14, 47624, Control_c, 10, 7, 70
14, 47625, Control_c, 10, 7, 71
14, 47626, Control_c, 10, 7, 72
14, 47627, Control_c, 10, 7, 73
14, 47628, Control_c, 10, 7, 74
14, 47629, Control_c, 10, 7, 75
14, 47630, Control_c, 10, 7, 76
14, 47631, Control_c, 10, 7, 77
14, 47632, Control_c, 10, 7, 78
14, 47633, Control_c, 10, 7, 79
14, 47634, Control_c, 10, 7, 80
14, 47635, Control_c, 10, 7, 81
14, 47636, Control_c, 10, 7, 82
14, 47637, Control_c, 10, 7, 83
14, 47638, Control_c, 10, 7, 85
14, 47639, Control_c, 10, 7, 86
14, 47640, Control_c, 10, 7, 87
14, 47641, Control_c, 10, 7, 88
14, 47642, Control_c, 10, 7, 89
14, 47643, Control_c, 10, 7, 90
14, 47644, Control_c, 10, 7, 91
14, 47645, Control_c, 10, 7, 92
14, 47646, Control_c, 10, 7, 93
14, 47647, Control_c, 10, 7, 94
14, 47648, Control_c, 10, 7, 95
14, 47649, Control_c, 10, 7, 96
14, 47650, Control_c, 10, 7, 97
14, 47651, Control_c, 10, 7, 98
14, 47652, Control_c, 10, 7, 99
14, 47653, Control_c, 10, 7, 100
14, 47654, Control_c, 10, 7, 102
14, 47655, Control_c, 10, 7, 103
14, 47656, Control_c, 10, 7, 104
14, 47657, Control_c, 10, 7, 105
14, 47658, Control_c, 10, 7, 106
14, 47659, Control_c, 10, 7, 107
14, 47660, Control_c, 10, 7, 108
14, 47661, Control_c, 10, 7, 109
14, 47662, Control_c, 10, 7, 110
14, 47663, Control_c, 10, 7, 111
14, 47664, Note_off_c, 10, 27, 64
14, 47664, Note_off_c, 10, 51, 64
14, 47664, Note_off_c, 10, 39, 64
14, 47664, Control_c, 10, 7, 65
14, 47664, Note_on_c, 10, 39, 127
14, 47664, Note_on_c, 10, 51, 127
14, 47664, Note_on_c, 10, 27, 127
14, 47665, Control_c, 10, 7, 66
14, 47666, Control_c, 10, 7, 67
14, 47667, Control_c, 10, 7, 67
14, 47668, Control_c, 10, 7, 68
14, 47669, Control_c, 10, 7, 69
14, 47670, Control_c, 10, 7, 70
14, 47671, Control_c, 10, 7, 71
14, 47672, Control_c, 10, 7, 72
14, 47673, Control_c, 10, 7, 73
14, 47674, Control_c, 10, 7, 74
14, 47675, Control_c, 10, 7, 75
14, 47676, Control_c, 10, 7, 76
14, 47677, Control_c, 10, 7, 77
14, 47678, Control_c, 10, 7, 78
14, 47679, Control_c, 10, 7, 79
14, 47680, Control_c, 10, 7, 80
14, 47681, Control_c, 10, 7, 81
14, 47682, Control_c, 10, 7, 82
14, 47683, Control_c, 10, 7, 83
14, 47684, Control_c, 10, 7, 84
14, 47685, Control_c, 10, 7, 85
14, 47686, Control_c, 10, 7, 86
14, 47687, Control_c, 10, 7, 87
14, 47688, Control_c, 10, 7, 88
14, 47689, Control_c, 10, 7, 89
14, 47690, Control_c, 10, 7, 89
14, 47691, Control_c, 10, 7, 90
14, 47692, Control_c, 10, 7, 91
14, 47693, Control_c, 10, 7, 92
14, 47694, Control_c, 10, 7, 93
14, 47695, Control_c, 10, 7, 94
14, 47696, Control_c, 10, 7, 95
14, 47697, Control_c, 10, 7, 96
14, 47698, Control_c, 10, 7, 97
14, 47699, Control_c, 10, 7, 98
14, 47700, Control_c, 10, 7, 99
14, 47701, Control_c, 10, 7, 100
14, 47702, Control_c, 10, 7, 101
14, 47703, Control_c, 10, 7, 102
14, 47704, Control_c, 10, 7, 103
14, 47705, Control_c, 10, 7, 104
14, 47706, Control_c, 10, 7, 105
14, 47707, Control_c, 10, 7, 106
14, 47708, Control_c, 10, 7, 107
14, 47709, Control_c, 10, 7, 108
14, 47710, Control_c, 10, 7, 109
14, 47711, Control_c, 10, 7, 110
14, 47712, Note_off_c, 10, 39, 64
14, 47712, Note_off_c, 10, 27, 64
14, 47712, Note_off_c, 10, 51, 64
14, 47712, Control_c, 10, 7, 64
14, 47712, Note_on_c, 10, 39, 127
14, 47712, Note_on_c, 10, 51, 127
14, 47712, Note_on_c, 10, 27, 127
14, 47713, Control_c, 10, 7, 65
14, 47714, Control_c, 10, 7, 65
14, 47715, Control_c, 10, 7, 66
14, 47716, Control_c, 10, 7, 67
14, 47717, Control_c, 10, 7, 68
14, 47718, Control_c, 10, 7, 69
14, 47719, Control_c, 10, 7, 70
14, 47720, Control_c, 10, 7, 70
14, 47721, Control_c, 10, 7, 71
14, 47722, Control_c, 10, 7, 72
14, 47723, Control_c, 10, 7, 73
14, 47724, Control_c, 10, 7, 74
14, 47725, Control_c, 10, 7, 75
14, 47726, Control_c, 10, 7, 76
14, 47727, Control_c, 10, 7, 77
14, 47728, Control_c, 10, 7, 78
14, 47729, Control_c, 10, 7, 79
14, 47730, Control_c, 10, 7, 80
14, 47731, Control_c, 10, 7, 81
14, 47732, Control_c, 10, 7, 82
14, 47733, Control_c, 10, 7, 83
14, 47734, Control_c, 10, 7, 84
14, 47735, Control_c, 10, 7, 85
14, 47736, Control_c, 10, 7, 86
14, 47737, Control_c, 10, 7, 88
14, 47738, Control_c, 10, 7, 89
14, 47739, Control_c, 10, 7, 90
14, 47740, Control_c, 10, 7, 91
14, 47741, Control_c, 10, 7, 92
14, 47742, Control_c, 10, 7, 93
14, 47743, Control_c, 10, 7, 94
14, 47744, Control_c, 10, 7, 95
14, 47745, Control_c, 10, 7, 96
14, 47746, Control_c, 10, 7, 97
14, 47747, Control_c, 10, 7, 98
14, 47748, Control_c, 10, 7, 99
14, 47749, Control_c, 10, 7, 100
14, 47750, Control_c, 10, 7, 101
14, 47751, Control_c, 10, 7, 102
14, 47752, Control_c, 10, 7, 103
14, 47753, Control_c, 10, 7, 104
14, 47754, Control_c, 10, 7, 105
14, 47755, Control_c, 10, 7, 106
14, 47756, Control_c, 10, 7, 107
14, 47757, Control_c, 10, 7, 108
14, 47758, Control_c, 10, 7, 109
14, 47759, Control_c, 10, 7, 110
14, 47760, Note_off_c, 10, 39, 64
14, 47760, Note_off_c, 10, 27, 64
14, 47760, Note_off_c, 10, 51, 64
14, 47760, Control_c, 10, 7, 66
14, 47760, Note_on_c, 10, 39, 127
14, 47760, Note_on_c, 10, 51, 127
14, 47760, Note_on_c, 10, 27, 127
14, 47761, Control_c, 10, 7, 67
14, 47762, Control_c, 10, 7, 68
14, 47763, Control_c, 10, 7, 69
14, 47764, Control_c, 10, 7, 69
14, 47765, Control_c, 10, 7, 70
14, 47766, Control_c, 10, 7, 71
14, 47767, Control_c, 10, 7, 72
14, 47768, Control_c, 10, 7, 73
14, 47769, Control_c, 10, 7, 74
14, 47770, Control_c, 10, 7, 75
14, 47771, Control_c, 10, 7, 76
14, 47772, Control_c, 10, 7, 77
14, 47773, Control_c, 10, 7, 77
14, 47774, Control_c, 10, 7, 78
14, 47775, Control_c, 10, 7, 79
14, 47776, Control_c, 10, 7, 80
14, 47777, Control_c, 10, 7, 81
14, 47778, Control_c, 10, 7, 82
14, 47779, Control_c, 10, 7, 83
14, 47780, Control_c, 10, 7, 84
14, 47781, Control_c, 10, 7, 84
14, 47782, Control_c, 10, 7, 85
14, 47783, Control_c, 10, 7, 86
14, 47784, Control_c, 10, 7, 87
14, 47785, Control_c, 10, 7, 88
14, 47786, Control_c, 10, 7, 89
14, 47787, Control_c, 10, 7, 90
14, 47788, Control_c, 10, 7, 91
14, 47789, Control_c, 10, 7, 91
14, 47790, Control_c, 10, 7, 92
14, 47791, Control_c, 10, 7, 93
14, 47792, Control_c, 10, 7, 94
14, 47793, Control_c, 10, 7, 95
14, 47794, Control_c, 10, 7, 96
14, 47795, Control_c, 10, 7, 97
14, 47796, Control_c, 10, 7, 98
14, 47797, Control_c, 10, 7, 98
14, 47798, Control_c, 10, 7, 99
14, 47799, Control_c, 10, 7, 100
14, 47800, Control_c, 10, 7, 101
14, 47801, Control_c, 10, 7, 102
14, 47802, Control_c, 10, 7, 103
14, 47803, Control_c, 10, 7, 104
14, 47804, Control_c, 10, 7, 104
14, 47805, Control_c, 10, 7, 105
14, 47806, Control_c, 10, 7, 106
14, 47807, Control_c, 10, 7, 107
14, 47808, Note_off_c, 10, 39, 64
14, 47808, Note_off_c, 10, 27, 64
14, 47808, Note_off_c, 10, 51, 64
14, 47808, Control_c, 10, 7, 67
14, 47808, Note_on_c, 10, 39, 127
14, 47808, Note_on_c, 10, 51, 127
14, 47808, Note_on_c, 10, 27, 127
14, 47809, Control_c, 10, 7, 68
14, 47810, Control_c, 10, 7, 69
14, 47811, Control_c, 10, 7, 70
14, 47812, Control_c, 10, 7, 71
14, 47813, Control_c, 10, 7, 72
14, 47814, Control_c, 10, 7, 73
14, 47815, Control_c, 10, 7, 74
14, 47816, Control_c, 10, 7, 75
14, 47817, Control_c, 10, 7, 75
14, 47818, Control_c, 10, 7, 76
14, 47819, Control_c, 10, 7, 77
14, 47820, Control_c, 10, 7, 78
14, 47821, Control_c, 10, 7, 79
14, 47822, Control_c, 10, 7, 80
14, 47823, Control_c, 10, 7, 81
14, 47824, Control_c, 10, 7, 82
14, 47825, Control_c, 10, 7, 83
14, 47826, Control_c, 10, 7, 84
14, 47827, Control_c, 10, 7, 85
14, 47828, Control_c, 10, 7, 86
14, 47829, Control_c, 10, 7, 87
14, 47830, Control_c, 10, 7, 88
14, 47831, Control_c, 10, 7, 89
14, 47832, Control_c, 10, 7, 90
14, 47833, Control_c, 10, 7, 90
14, 47834, Control_c, 10, 7, 91
14, 47835, Control_c, 10, 7, 92
14, 47836, Control_c, 10, 7, 93
14, 47837, Control_c, 10, 7, 94
14, 47838, Control_c, 10, 7, 95
14, 47839, Control_c, 10, 7, 96
14, 47840, Control_c, 10, 7, 97
14, 47841, Control_c, 10, 7, 98
14, 47842, Control_c, 10, 7, 99
14, 47843, Control_c, 10, 7, 100
14, 47844, Control_c, 10, 7, 101
14, 47845, Control_c, 10, 7, 102
14, 47846, Control_c, 10, 7, 103
14, 47847, Control_c, 10, 7, 104
14, 47848, Control_c, 10, 7, 105
14, 47849, Control_c, 10, 7, 106
14, 47850, Control_c, 10, 7, 106
14, 47851, Control_c, 10, 7, 107
14, 47852, Control_c, 10, 7, 108
14, 47853, Control_c, 10, 7, 109
14, 47854, Control_c, 10, 7, 110
14, 47855, Control_c, 10, 7, 111
14, 47856, Note_off_c, 10, 39, 64
14, 47856, Note_off_c, 10, 27, 64
14, 47856, Note_off_c, 10, 51, 64
14, 47856, Control_c, 10, 7, 61
14, 47856, Note_on_c, 10, 39, 127
14, 47856, Note_on_c, 10, 51, 127
14, 47856, Note_on_c, 10, 27, 127
14, 47857, Control_c, 10, 7, 62
14, 47858, Control_c, 10, 7, 63
14, 47859, Control_c, 10, 7, 64
14, 47860, Control_c, 10, 7, 65
14, 47861, Control_c, 10, 7, 66
14, 47862, Control_c, 10, 7, 67
14, 47863, Control_c, 10, 7, 68
14, 47864, Control_c, 10, 7, 70
14, 47865, Control_c, 10, 7, 71
14, 47866, Control_c, 10, 7, 72
14, 47867, Control_c, 10, 7, 73
14, 47868, Control_c, 10, 7, 74
14, 47869, Control_c, 10, 7, 75
14, 47870, Control_c, 10, 7, 76
14, 47871, Control_c, 10, 7, 78
14, 47872, Control_c, 10, 7, 79
14, 47873, Control_c, 10, 7, 80
14, 47874, Control_c, 10, 7, 81
14, 47875, Control_c, 10, 7, 82
14, 47876, Control_c, 10, 7, 83
14, 47877, Control_c, 10, 7, 84
14, 47878, Control_c, 10, 7, 85
14, 47879, Control_c, 10, 7, 87
14, 47880, Control_c, 10, 7, 88
14, 47881, Control_c, 10, 7, 89
14, 47882, Control_c, 10, 7, 90
14, 47883, Control_c, 10, 7, 91
14, 47884, Control_c, 10, 7, 92
14, 47885, Control_c, 10, 7, 93
14, 47886, Control_c, 10, 7, 95
14, 47887, Control_c, 10, 7, 96
14, 47888, Control_c, 10, 7, 97
14, 47889, Control_c, 10, 7, 98
14, 47890, Control_c, 10, 7, 99
14, 47891, Control_c, 10, 7, 100
14, 47892, Control_c, 10, 7, 101
14, 47893, Control_c, 10, 7, 102
14, 47894, Control_c, 10, 7, 104
14, 47895, Control_c, 10, 7, 105
14, 47896, Control_c, 10, 7, 106
14, 47897, Control_c, 10, 7, 107
14, 47898, Control_c, 10, 7, 108
14, 47899, Control_c, 10, 7, 110
14, 47900, Control_c, 10, 7, 111
14, 47901, Control_c, 10, 7, 112
14, 47902, Control_c, 10, 7, 113
14, 47903, Control_c, 10, 7, 114
14, 47904, Note_off_c, 10, 39, 64
14, 47904, Note_off_c, 10, 27, 64
14, 47904, Note_off_c, 10, 51, 64
14, 47904, Control_c, 10, 7, 65
14, 47904, Note_on_c, 10, 39, 127
14, 47904, Note_on_c, 10, 51, 127
14, 47904, Note_on_c, 10, 27, 127
14, 47905, Control_c, 10, 7, 66
14, 47906, Control_c, 10, 7, 67
14, 47907, Control_c, 10, 7, 68
14, 47908, Control_c, 10, 7, 70
14, 47909, Control_c, 10, 7, 71
14, 47910, Control_c, 10, 7, 72
14, 47911, Control_c, 10, 7, 73
14, 47912, Control_c, 10, 7, 74
14, 47913, Control_c, 10, 7, 75
14, 47914, Control_c, 10, 7, 76
14, 47915, Control_c, 10, 7, 77
14, 47916, Control_c, 10, 7, 78
14, 47917, Control_c, 10, 7, 79
14, 47918, Control_c, 10, 7, 80
14, 47919, Control_c, 10, 7, 81
14, 47920, Control_c, 10, 7, 82
14, 47921, Control_c, 10, 7, 83
14, 47922, Control_c, 10, 7, 84
14, 47923, Control_c, 10, 7, 85
14, 47924, Control_c, 10, 7, 86
14, 47925, Control_c, 10, 7, 88
14, 47926, Control_c, 10, 7, 89
14, 47927, Control_c, 10, 7, 90
14, 47928, Control_c, 10, 7, 91
14, 47929, Control_c, 10, 7, 92
14, 47930, Control_c, 10, 7, 93
14, 47931, Control_c, 10, 7, 94
14, 47932, Control_c, 10, 7, 95
14, 47933, Control_c, 10, 7, 96
14, 47934, Control_c, 10, 7, 97
14, 47935, Control_c, 10, 7, 98
14, 47936, Control_c, 10, 7, 99
14, 47937, Control_c, 10, 7, 100
14, 47938, Control_c, 10, 7, 101
14, 47939, Control_c, 10, 7, 102
14, 47940, Control_c, 10, 7, 103
14, 47941, Control_c, 10, 7, 105
14, 47942, Control_c, 10, 7, 106
14, 47943, Control_c, 10, 7, 107
14, 47944, Control_c, 10, 7, 108
14, 47945, Control_c, 10, 7, 109
14, 47946, Control_c, 10, 7, 109
14, 47947, Control_c, 10, 7, 110
14, 47948, Control_c, 10, 7, 112
14, 47949, Control_c, 10, 7, 113
14, 47950, Control_c, 10, 7, 114
14, 47951, Control_c, 10, 7, 115
14, 47952, Note_off_c, 10, 39, 64
14, 47952, Note_off_c, 10, 27, 64
14, 47952, Note_off_c, 10, 51, 64
14, 47952, Control_c, 10, 7, 67
14, 47952, Note_on_c, 10, 39, 127
14, 47952, Note_on_c, 10, 51, 127
14, 47952, Note_on_c, 10, 27, 127
14, 47953, Control_c, 10, 7, 68
14, 47954, Control_c, 10, 7, 69
14, 47955, Control_c, 10, 7, 70
14, 47956, Control_c, 10, 7, 71
14, 47957, Control_c, 10, 7, 71
14, 47958, Control_c, 10, 7, 72
14, 47959, Control_c, 10, 7, 73
14, 47960, Control_c, 10, 7, 74
14, 47961, Control_c, 10, 7, 75
14, 47962, Control_c, 10, 7, 76
14, 47963, Control_c, 10, 7, 77
14, 47964, Control_c, 10, 7, 78
14, 47965, Control_c, 10, 7, 79
14, 47966, Control_c, 10, 7, 80
14, 47967, Control_c, 10, 7, 81
14, 47968, Control_c, 10, 7, 82
14, 47969, Control_c, 10, 7, 83
14, 47970, Control_c, 10, 7, 84
14, 47971, Control_c, 10, 7, 85
14, 47972, Control_c, 10, 7, 86
14, 47973, Control_c, 10, 7, 87
14, 47974, Control_c, 10, 7, 88
14, 47975, Control_c, 10, 7, 89
14, 47976, Control_c, 10, 7, 90
14, 47977, Control_c, 10, 7, 91
14, 47978, Control_c, 10, 7, 92
14, 47979, Control_c, 10, 7, 93
14, 47980, Control_c, 10, 7, 94
14, 47981, Control_c, 10, 7, 95
14, 47982, Control_c, 10, 7, 96
14, 47983, Control_c, 10, 7, 97
14, 47984, Control_c, 10, 7, 98
14, 47985, Control_c, 10, 7, 99
14, 47986, Control_c, 10, 7, 100
14, 47987, Control_c, 10, 7, 101
14, 47988, Control_c, 10, 7, 102
14, 47989, Control_c, 10, 7, 103
14, 47990, Control_c, 10, 7, 104
14, 47991, Control_c, 10, 7, 104
14, 47992, Control_c, 10, 7, 105
14, 47993, Control_c, 10, 7, 106
14, 47994, Control_c, 10, 7, 107
14, 47995, Control_c, 10, 7, 108
14, 47996, Control_c, 10, 7, 109
14, 47997, Control_c, 10, 7, 110
14, 47998, Control_c, 10, 7, 111
14, 47999, Control_c, 10, 7, 112
14, 48000, Note_off_c, 10, 27, 64
14, 48000, Note_off_c, 10, 51, 64
14, 48000, Note_off_c, 10, 39, 64
14, 48000, Control_c, 10, 7, 50
14, 48000, Note_on_c, 10, 41, 127
14, 48000, Note_on_c, 10, 29, 127
14, 48000, Note_on_c, 10, 53, 127
14, 48002, Control_c, 10, 7, 50
14, 48003, Control_c, 10, 7, 51
14, 48004, Control_c, 10, 7, 51
14, 48005, Control_c, 10, 7, 52
14, 48006, Control_c, 10, 7, 52
14, 48007, Control_c, 10, 7, 52
14, 48008, Control_c, 10, 7, 53
14, 48009, Control_c, 10, 7, 53
14, 48010, Control_c, 10, 7, 54
14, 48011, Control_c, 10, 7, 54
14, 48012, Control_c, 10, 7, 54
14, 48013, Control_c, 10, 7, 55
14, 48014, Control_c, 10, 7, 55
14, 48015, Control_c, 10, 7, 55
14, 48016, Control_c, 10, 7, 56
14, 48017, Control_c, 10, 7, 56
14, 48018, Control_c, 10, 7, 57
14, 48019, Control_c, 10, 7, 57
14, 48020, Control_c, 10, 7, 57
14, 48021, Control_c, 10, 7, 58
14, 48022, Control_c, 10, 7, 58
14, 48023, Control_c, 10, 7, 59
14, 48024, Control_c, 10, 7, 59
14, 48025, Control_c, 10, 7, 59
14, 48026, Control_c, 10, 7, 60
14, 48027, Control_c, 10, 7, 60
14, 48028, Control_c, 10, 7, 61
14, 48029, Control_c, 10, 7, 61
14, 48030, Control_c, 10, 7, 61
14, 48031, Control_c, 10, 7, 62
14, 48032, Control_c, 10, 7, 62
14, 48033, Control_c, 10, 7, 62
14, 48034, Control_c, 10, 7, 63
14, 48035, Control_c, 10, 7, 63
14, 48036, Control_c, 10, 7, 64
14, 48037, Control_c, 10, 7, 64
14, 48038, Control_c, 10, 7, 64
14, 48039, Control_c, 10, 7, 65
14, 48040, Control_c, 10, 7, 65
14, 48041, Control_c, 10, 7, 66
14, 48042, Control_c, 10, 7, 66
14, 48043, Control_c, 10, 7, 66
14, 48044, Control_c, 10, 7, 67
14, 48045, Control_c, 10, 7, 67
14, 48046, Control_c, 10, 7, 68
14, 48047, Control_c, 10, 7, 68
14, 48048, Control_c, 10, 7, 68
14, 48049, Control_c, 10, 7, 69
14, 48050, Control_c, 10, 7, 69
14, 48051, Control_c, 10, 7, 69
14, 48052, Control_c, 10, 7, 70
14, 48053, Control_c, 10, 7, 70
14, 48054, Control_c, 10, 7, 71
14, 48055, Control_c, 10, 7, 71
14, 48056, Control_c, 10, 7, 71
14, 48057, Control_c, 10, 7, 72
14, 48058, Control_c, 10, 7, 72
14, 48059, Control_c, 10, 7, 73
14, 48060, Control_c, 10, 7, 73
14, 48061, Control_c, 10, 7, 73
14, 48062, Control_c, 10, 7, 74
14, 48063, Control_c, 10, 7, 74
14, 48064, Control_c, 10, 7, 75
14, 48065, Control_c, 10, 7, 75
14, 48066, Control_c, 10, 7, 75
14, 48067, Control_c, 10, 7, 76
14, 48068, Control_c, 10, 7, 76
14, 48069, Control_c, 10, 7, 76
14, 48070, Control_c, 10, 7, 77
14, 48071, Control_c, 10, 7, 77
14, 48072, Control_c, 10, 7, 78
14, 48073, Control_c, 10, 7, 78
14, 48074, Control_c, 10, 7, 78
14, 48075, Control_c, 10, 7, 79
14, 48076, Control_c, 10, 7, 79
14, 48077, Control_c, 10, 7, 80
14, 48078, Control_c, 10, 7, 80
14, 48079, Control_c, 10, 7, 80
14, 48080, Control_c, 10, 7, 81
14, 48081, Control_c, 10, 7, 81
14, 48082, Control_c, 10, 7, 82
14, 48083, Control_c, 10, 7, 82
14, 48084, Control_c, 10, 7, 82
14, 48085, Control_c, 10, 7, 83
14, 48086, Control_c, 10, 7, 83
14, 48087, Control_c, 10, 7, 83
14, 48088, Control_c, 10, 7, 84
14, 48089, Control_c, 10, 7, 84
14, 48090, Control_c, 10, 7, 85
14, 48091, Control_c, 10, 7, 85
14, 48092, Control_c, 10, 7, 85
14, 48093, Control_c, 10, 7, 86
14, 48094, Control_c, 10, 7, 86
14, 48095, Control_c, 10, 7, 87
14, 48096, Control_c, 10, 7, 87
14, 48097, Control_c, 10, 7, 87
14, 48098, Control_c, 10, 7, 88
14, 48099, Control_c, 10, 7, 88
14, 48100, Control_c, 10, 7, 89
14, 48101, Control_c, 10, 7, 89
14, 48102, Control_c, 10, 7, 89
14, 48103, Control_c, 10, 7, 90
14, 48104, Control_c, 10, 7, 90
14, 48105, Control_c, 10, 7, 90
14, 48106, Control_c, 10, 7, 91
14, 48107, Control_c, 10, 7, 91
14, 48108, Control_c, 10, 7, 92
14, 48109, Control_c, 10, 7, 92
14, 48110, Control_c, 10, 7, 92
14, 48111, Control_c, 10, 7, 93
14, 48112, Control_c, 10, 7, 93
14, 48113, Control_c, 10, 7, 94
14, 48114, Control_c, 10, 7, 94
14, 48115, Control_c, 10, 7, 94
14, 48116, Control_c, 10, 7, 95
14, 48117, Control_c, 10, 7, 95
14, 48118, Control_c, 10, 7, 96
14, 48119, Control_c, 10, 7, 96
14, 48120, Control_c, 10, 7, 96
14, 48121, Control_c, 10, 7, 97
14, 48122, Control_c, 10, 7, 97
14, 48123, Control_c, 10, 7, 97
14, 48124, Control_c, 10, 7, 98
14, 48125, Control_c, 10, 7, 98
14, 48126, Control_c, 10, 7, 99
14, 48127, Control_c, 10, 7, 99
14, 48128, Control_c, 10, 7, 99
14, 48129, Control_c, 10, 7, 100
14, 48130, Control_c, 10, 7, 100
14, 48131, Control_c, 10, 7, 101
14, 48132, Control_c, 10, 7, 101
14, 48133, Control_c, 10, 7, 101
14, 48134, Control_c, 10, 7, 102
14, 48135, Control_c, 10, 7, 102
14, 48136, Control_c, 10, 7, 103
14, 48137, Control_c, 10, 7, 103
14, 48138, Control_c, 10, 7, 103
14, 48139, Control_c, 10, 7, 104
14, 48140, Control_c, 10, 7, 104
14, 48141, Control_c, 10, 7, 104
14, 48142, Control_c, 10, 7, 105
14, 48143, Control_c, 10, 7, 105
14, 48144, Note_off_c, 10, 53, 64
14, 48144, Note_off_c, 10, 29, 64
14, 48144, Note_off_c, 10, 41, 64
14, 48144, Control_c, 10, 7, 54
14, 48144, Note_on_c, 10, 43, 127
14, 48144, Note_on_c, 10, 31, 127
14, 48144, Note_on_c, 10, 55, 127
14, 48145, Control_c, 10, 7, 55
14, 48146, Control_c, 10, 7, 55
14, 48147, Control_c, 10, 7, 56
14, 48148, Control_c, 10, 7, 57
14, 48149, Control_c, 10, 7, 57
14, 48150, Control_c, 10, 7, 57
14, 48151, Control_c, 10, 7, 58
14, 48152, Control_c, 10, 7, 58
14, 48153, Control_c, 10, 7, 58
14, 48154, Control_c, 10, 7, 59
14, 48155, Control_c, 10, 7, 59
14, 48156, Control_c, 10, 7, 59
14, 48157, Control_c, 10, 7, 60
14, 48158, Control_c, 10, 7, 60
14, 48159, Control_c, 10, 7, 61
14, 48160, Control_c, 10, 7, 61
14, 48161, Control_c, 10, 7, 61
14, 48162, Control_c, 10, 7, 62
14, 48163, Control_c, 10, 7, 62
14, 48164, Control_c, 10, 7, 62
14, 48165, Control_c, 10, 7, 63
14, 48166, Control_c, 10, 7, 63
14, 48167, Control_c, 10, 7, 63
14, 48168, Control_c, 10, 7, 63
14, 48169, Control_c, 10, 7, 64
14, 48170, Control_c, 10, 7, 64
14, 48171, Control_c, 10, 7, 65
14, 48172, Control_c, 10, 7, 65
14, 48173, Control_c, 10, 7, 65
14, 48174, Control_c, 10, 7, 66
14, 48175, Control_c, 10, 7, 66
14, 48176, Control_c, 10, 7, 66
14, 48177, Control_c, 10, 7, 67
14, 48178, Control_c, 10, 7, 67
14, 48179, Control_c, 10, 7, 68
14, 48180, Control_c, 10, 7, 68
14, 48181, Control_c, 10, 7, 68
14, 48182, Control_c, 10, 7, 69
14, 48183, Control_c, 10, 7, 69
14, 48184, Control_c, 10, 7, 69
14, 48185, Control_c, 10, 7, 70
14, 48186, Control_c, 10, 7, 70
14, 48187, Control_c, 10, 7, 71
14, 48188, Control_c, 10, 7, 71
14, 48189, Control_c, 10, 7, 71
14, 48190, Control_c, 10, 7, 72
14, 48191, Control_c, 10, 7, 72
14, 48192, Control_c, 10, 7, 73
14, 48193, Control_c, 10, 7, 73
14, 48194, Control_c, 10, 7, 73
14, 48195, Control_c, 10, 7, 74
14, 48196, Control_c, 10, 7, 74
14, 48197, Control_c, 10, 7, 74
14, 48198, Control_c, 10, 7, 75
14, 48199, Control_c, 10, 7, 75
14, 48200, Control_c, 10, 7, 76
14, 48201, Control_c, 10, 7, 76
14, 48202, Control_c, 10, 7, 76
14, 48203, Control_c, 10, 7, 77
14, 48204, Control_c, 10, 7, 77
14, 48205, Control_c, 10, 7, 77
14, 48206, Control_c, 10, 7, 78
14, 48207, Control_c, 10, 7, 78
14, 48208, Control_c, 10, 7, 79
14, 48209, Control_c, 10, 7, 79
14, 48210, Control_c, 10, 7, 79
14, 48211, Control_c, 10, 7, 80
14, 48212, Control_c, 10, 7, 80
14, 48213, Control_c, 10, 7, 80
14, 48214, Control_c, 10, 7, 81
14, 48215, Control_c, 10, 7, 81
14, 48216, Control_c, 10, 7, 82
14, 48217, Control_c, 10, 7, 82
14, 48218, Control_c, 10, 7, 82
14, 48219, Control_c, 10, 7, 83
14, 48220, Control_c, 10, 7, 83
14, 48221, Control_c, 10, 7, 84
14, 48222, Control_c, 10, 7, 84
14, 48223, Control_c, 10, 7, 84
14, 48224, Control_c, 10, 7, 85
14, 48225, Control_c, 10, 7, 85
14, 48226, Control_c, 10, 7, 85
14, 48227, Control_c, 10, 7, 86
14, 48228, Control_c, 10, 7, 86
14, 48229, Control_c, 10, 7, 87
14, 48230, Control_c, 10, 7, 87
14, 48231, Control_c, 10, 7, 87
14, 48232, Control_c, 10, 7, 88
14, 48233, Control_c, 10, 7, 88
14, 48234, Control_c, 10, 7, 88
14, 48235, Control_c, 10, 7, 89
14, 48236, Control_c, 10, 7, 89
14, 48237, Control_c, 10, 7, 90
14, 48238, Control_c, 10, 7, 90
14, 48239, Control_c, 10, 7, 90
14, 48240, Control_c, 10, 7, 91
14, 48241, Control_c, 10, 7, 91
14, 48242, Control_c, 10, 7, 92
14, 48243, Control_c, 10, 7, 92
14, 48244, Control_c, 10, 7, 92
14, 48245, Control_c, 10, 7, 93
14, 48246, Control_c, 10, 7, 93
14, 48247, Control_c, 10, 7, 93
14, 48248, Control_c, 10, 7, 94
14, 48249, Control_c, 10, 7, 94
14, 48250, Control_c, 10, 7, 95
14, 48251, Control_c, 10, 7, 95
14, 48252, Control_c, 10, 7, 95
14, 48253, Control_c, 10, 7, 96
14, 48254, Control_c, 10, 7, 96
14, 48255, Control_c, 10, 7, 96
14, 48256, Control_c, 10, 7, 97
14, 48257, Control_c, 10, 7, 97
14, 48258, Control_c, 10, 7, 98
14, 48259, Control_c, 10, 7, 98
14, 48260, Control_c, 10, 7, 98
14, 48261, Control_c, 10, 7, 99
14, 48262, Control_c, 10, 7, 99
14, 48263, Control_c, 10, 7, 99
14, 48264, Control_c, 10, 7, 100
14, 48265, Control_c, 10, 7, 100
14, 48266, Control_c, 10, 7, 101
14, 48267, Control_c, 10, 7, 101
14, 48268, Control_c, 10, 7, 101
14, 48269, Control_c, 10, 7, 102
14, 48270, Control_c, 10, 7, 102
14, 48271, Control_c, 10, 7, 103
14, 48272, Control_c, 10, 7, 103
14, 48273, Control_c, 10, 7, 103
14, 48274, Control_c, 10, 7, 104
14, 48275, Control_c, 10, 7, 104
14, 48276, Control_c, 10, 7, 104
14, 48277, Control_c, 10, 7, 105
14, 48278, Control_c, 10, 7, 105
14, 48279, Control_c, 10, 7, 106
14, 48280, Control_c, 10, 7, 106
14, 48281, Control_c, 10, 7, 106
14, 48282, Control_c, 10, 7, 107
14, 48283, Control_c, 10, 7, 107
14, 48284, Control_c, 10, 7, 107
14, 48285, Control_c, 10, 7, 108
14, 48286, Control_c, 10, 7, 108
14, 48287, Control_c, 10, 7, 109
14, 48288, Note_off_c, 10, 43, 64
14, 48288, Note_off_c, 10, 55, 64
14, 48288, Note_off_c, 10, 31, 64
14, 48288, Control_c, 10, 7, 108
14, 48288, Note_on_c, 10, 39, 127
14, 48288, Note_on_c, 10, 27, 127
14, 48288, Note_on_c, 10, 51, 127
14, 48289, Control_c, 10, 7, 108
14, 48290, Control_c, 10, 7, 107
14, 48291, Control_c, 10, 7, 107
14, 48292, Control_c, 10, 7, 106
14, 48293, Control_c, 10, 7, 106
14, 48294, Control_c, 10, 7, 105
14, 48295, Control_c, 10, 7, 105
14, 48296, Control_c, 10, 7, 105
14, 48297, Control_c, 10, 7, 104
14, 48298, Control_c, 10, 7, 104
14, 48299, Control_c, 10, 7, 103
14, 48300, Control_c, 10, 7, 103
14, 48301, Control_c, 10, 7, 102
14, 48302, Control_c, 10, 7, 102
14, 48303, Control_c, 10, 7, 101
14, 48304, Control_c, 10, 7, 101
14, 48305, Control_c, 10, 7, 100
14, 48306, Control_c, 10, 7, 100
14, 48307, Control_c, 10, 7, 99
14, 48308, Control_c, 10, 7, 99
14, 48309, Control_c, 10, 7, 98
14, 48310, Control_c, 10, 7, 98
14, 48311, Control_c, 10, 7, 97
14, 48312, Control_c, 10, 7, 97
14, 48313, Control_c, 10, 7, 96
14, 48314, Control_c, 10, 7, 96
14, 48315, Control_c, 10, 7, 95
14, 48316, Control_c, 10, 7, 95
14, 48317, Control_c, 10, 7, 94
14, 48318, Control_c, 10, 7, 94
14, 48319, Control_c, 10, 7, 93
14, 48320, Control_c, 10, 7, 93
14, 48321, Control_c, 10, 7, 92
14, 48322, Control_c, 10, 7, 92
14, 48323, Control_c, 10, 7, 91
14, 48324, Control_c, 10, 7, 91
14, 48325, Control_c, 10, 7, 90
14, 48326, Control_c, 10, 7, 90
14, 48327, Control_c, 10, 7, 89
14, 48328, Control_c, 10, 7, 89
14, 48329, Control_c, 10, 7, 88
14, 48330, Control_c, 10, 7, 88
14, 48331, Control_c, 10, 7, 87
14, 48332, Control_c, 10, 7, 87
14, 48333, Control_c, 10, 7, 86
14, 48334, Control_c, 10, 7, 86
14, 48335, Control_c, 10, 7, 85
14, 48336, Control_c, 10, 7, 85
14, 48337, Control_c, 10, 7, 84
14, 48338, Control_c, 10, 7, 84
14, 48339, Control_c, 10, 7, 83
14, 48340, Control_c, 10, 7, 83
14, 48341, Control_c, 10, 7, 82
14, 48342, Control_c, 10, 7, 82
14, 48343, Control_c, 10, 7, 81
14, 48344, Control_c, 10, 7, 81
14, 48345, Control_c, 10, 7, 80
14, 48346, Control_c, 10, 7, 80
14, 48347, Control_c, 10, 7, 79
14, 48348, Control_c, 10, 7, 79
14, 48349, Control_c, 10, 7, 78
14, 48350, Control_c, 10, 7, 78
14, 48351, Control_c, 10, 7, 77
14, 48352, Control_c, 10, 7, 77
14, 48353, Control_c, 10, 7, 76
14, 48354, Control_c, 10, 7, 76
14, 48355, Control_c, 10, 7, 75
14, 48356, Control_c, 10, 7, 75
14, 48357, Control_c, 10, 7, 74
14, 48358, Control_c, 10, 7, 74
14, 48359, Control_c, 10, 7, 73
14, 48360, Control_c, 10, 7, 73
14, 48361, Control_c, 10, 7, 72
14, 48362, Control_c, 10, 7, 72
14, 48363, Control_c, 10, 7, 71
14, 48364, Control_c, 10, 7, 71
14, 48365, Control_c, 10, 7, 70
14, 48366, Control_c, 10, 7, 70
14, 48367, Control_c, 10, 7, 69
14, 48368, Control_c, 10, 7, 69
14, 48369, Control_c, 10, 7, 68
14, 48370, Control_c, 10, 7, 68
14, 48371, Control_c, 10, 7, 67
14, 48372, Control_c, 10, 7, 67
14, 48373, Control_c, 10, 7, 66
14, 48374, Control_c, 10, 7, 66
14, 48375, Control_c, 10, 7, 65
14, 48376, Control_c, 10, 7, 65
14, 48377, Control_c, 10, 7, 64
14, 48378, Control_c, 10, 7, 64
14, 48379, Control_c, 10, 7, 63
14, 48380, Control_c, 10, 7, 63
14, 48381, Control_c, 10, 7, 62
14, 48382, Control_c, 10, 7, 62
14, 48383, Control_c, 10, 7, 61
14, 48384, Control_c, 10, 7, 61
14, 48432, Note_off_c, 10, 51, 64
14, 48432, Note_off_c, 10, 27, 64
14, 48432, Note_off_c, 10, 39, 64
14, 48432, Control_c, 10, 7, 102
14, 48432, Note_on_c, 10, 39, 127
14, 48432, Note_on_c, 10, 27, 127
14, 48432, Note_on_c, 10, 51, 127
14, 48433, Control_c, 10, 7, 102
14, 48434, Control_c, 10, 7, 101
14, 48435, Control_c, 10, 7, 100
14, 48436, Control_c, 10, 7, 99
14, 48437, Control_c, 10, 7, 98
14, 48438, Control_c, 10, 7, 97
14, 48439, Control_c, 10, 7, 96
14, 48440, Control_c, 10, 7, 95
14, 48441, Control_c, 10, 7, 95
14, 48442, Control_c, 10, 7, 94
14, 48443, Control_c, 10, 7, 93
14, 48444, Control_c, 10, 7, 92
14, 48445, Control_c, 10, 7, 91
14, 48446, Control_c, 10, 7, 90
14, 48447, Control_c, 10, 7, 89
14, 48448, Control_c, 10, 7, 88
14, 48449, Control_c, 10, 7, 87
14, 48450, Control_c, 10, 7, 87
14, 48451, Control_c, 10, 7, 86
14, 48452, Control_c, 10, 7, 85
14, 48453, Control_c, 10, 7, 84
14, 48454, Control_c, 10, 7, 83
14, 48455, Control_c, 10, 7, 82
14, 48456, Control_c, 10, 7, 81
14, 48457, Control_c, 10, 7, 80
14, 48458, Control_c, 10, 7, 80
14, 48459, Control_c, 10, 7, 79
14, 48460, Control_c, 10, 7, 78
14, 48461, Control_c, 10, 7, 77
14, 48462, Control_c, 10, 7, 76
14, 48463, Control_c, 10, 7, 75
14, 48464, Control_c, 10, 7, 74
14, 48465, Control_c, 10, 7, 73
14, 48466, Control_c, 10, 7, 73
14, 48467, Control_c, 10, 7, 72
14, 48468, Control_c, 10, 7, 71
14, 48469, Control_c, 10, 7, 70
14, 48470, Control_c, 10, 7, 69
14, 48471, Control_c, 10, 7, 68
14, 48472, Control_c, 10, 7, 67
14, 48473, Control_c, 10, 7, 66
14, 48474, Control_c, 10, 7, 66
14, 48475, Control_c, 10, 7, 65
14, 48476, Control_c, 10, 7, 64
14, 48477, Control_c, 10, 7, 63
14, 48478, Control_c, 10, 7, 62
14, 48479, Control_c, 10, 7, 61
14, 48480, Note_off_c, 10, 51, 64
14, 48480, Note_off_c, 10, 27, 64
14, 48480, Note_off_c, 10, 39, 64
14, 48480, Control_c, 10, 7, 102
14, 48480, Note_on_c, 10, 39, 127
14, 48480, Note_on_c, 10, 27, 127
14, 48480, Note_on_c, 10, 51, 127
14, 48481, Control_c, 10, 7, 102
14, 48482, Control_c, 10, 7, 101
14, 48483, Control_c, 10, 7, 100
14, 48484, Control_c, 10, 7, 99
14, 48485, Control_c, 10, 7, 98
14, 48486, Control_c, 10, 7, 97
14, 48487, Control_c, 10, 7, 96
14, 48488, Control_c, 10, 7, 96
14, 48489, Control_c, 10, 7, 95
14, 48490, Control_c, 10, 7, 94
14, 48491, Control_c, 10, 7, 93
14, 48492, Control_c, 10, 7, 92
14, 48493, Control_c, 10, 7, 91
14, 48494, Control_c, 10, 7, 91
14, 48495, Control_c, 10, 7, 90
14, 48496, Control_c, 10, 7, 89
14, 48497, Control_c, 10, 7, 88
14, 48498, Control_c, 10, 7, 87
14, 48499, Control_c, 10, 7, 86
14, 48500, Control_c, 10, 7, 85
14, 48501, Control_c, 10, 7, 85
14, 48502, Control_c, 10, 7, 84
14, 48503, Control_c, 10, 7, 83
14, 48504, Control_c, 10, 7, 82
14, 48505, Control_c, 10, 7, 81
14, 48506, Control_c, 10, 7, 80
14, 48507, Control_c, 10, 7, 80
14, 48508, Control_c, 10, 7, 79
14, 48509, Control_c, 10, 7, 78
14, 48510, Control_c, 10, 7, 77
14, 48511, Control_c, 10, 7, 76
14, 48512, Control_c, 10, 7, 75
14, 48513, Control_c, 10, 7, 74
14, 48514, Control_c, 10, 7, 74
14, 48515, Control_c, 10, 7, 73
14, 48516, Control_c, 10, 7, 72
14, 48517, Control_c, 10, 7, 71
14, 48518, Control_c, 10, 7, 70
14, 48519, Control_c, 10, 7, 69
14, 48520, Control_c, 10, 7, 68
14, 48521, Control_c, 10, 7, 68
14, 48522, Control_c, 10, 7, 67
14, 48523, Control_c, 10, 7, 66
14, 48524, Control_c, 10, 7, 65
14, 48525, Control_c, 10, 7, 64
14, 48526, Control_c, 10, 7, 102
14, 48527, Control_c, 10, 7, 102
14, 48528, Note_off_c, 10, 51, 64
14, 48528, Note_off_c, 10, 27, 64
14, 48528, Note_off_c, 10, 39, 64
14, 48528, Control_c, 10, 7, 101
14, 48528, Note_on_c, 10, 39, 127
14, 48528, Note_on_c, 10, 27, 127
14, 48528, Note_on_c, 10, 51, 127
14, 48529, Control_c, 10, 7, 100
14, 48530, Control_c, 10, 7, 99
14, 48531, Control_c, 10, 7, 98
14, 48532, Control_c, 10, 7, 97
14, 48533, Control_c, 10, 7, 97
14, 48534, Control_c, 10, 7, 96
14, 48535, Control_c, 10, 7, 95
14, 48536, Control_c, 10, 7, 94
14, 48537, Control_c, 10, 7, 93
14, 48538, Control_c, 10, 7, 93
14, 48539, Control_c, 10, 7, 92
14, 48540, Control_c, 10, 7, 91
14, 48541, Control_c, 10, 7, 90
14, 48542, Control_c, 10, 7, 89
14, 48543, Control_c, 10, 7, 88
14, 48544, Control_c, 10, 7, 88
14, 48545, Control_c, 10, 7, 87
14, 48546, Control_c, 10, 7, 86
14, 48547, Control_c, 10, 7, 85
14, 48548, Control_c, 10, 7, 84
14, 48549, Control_c, 10, 7, 84
14, 48550, Control_c, 10, 7, 83
14, 48551, Control_c, 10, 7, 82
14, 48552, Control_c, 10, 7, 81
14, 48553, Control_c, 10, 7, 80
14, 48554, Control_c, 10, 7, 79
14, 48555, Control_c, 10, 7, 79
14, 48556, Control_c, 10, 7, 78
14, 48557, Control_c, 10, 7, 77
14, 48558, Control_c, 10, 7, 76
14, 48559, Control_c, 10, 7, 75
14, 48560, Control_c, 10, 7, 75
14, 48561, Control_c, 10, 7, 74
14, 48562, Control_c, 10, 7, 73
14, 48563, Control_c, 10, 7, 72
14, 48564, Control_c, 10, 7, 71
14, 48565, Control_c, 10, 7, 70
14, 48566, Control_c, 10, 7, 70
14, 48567, Control_c, 10, 7, 69
14, 48568, Control_c, 10, 7, 68
14, 48569, Control_c, 10, 7, 67
14, 48570, Control_c, 10, 7, 66
14, 48571, Control_c, 10, 7, 66
14, 48572, Control_c, 10, 7, 65
14, 48573, Control_c, 10, 7, 64
14, 48574, Control_c, 10, 7, 63
14, 48575, Control_c, 10, 7, 62
14, 48576, Note_off_c, 10, 51, 64
14, 48576, Note_off_c, 10, 27, 64
14, 48576, Note_off_c, 10, 39, 64
14, 48576, Control_c, 10, 7, 102
14, 48576, Note_on_c, 10, 39, 127
14, 48576, Note_on_c, 10, 27, 127
14, 48576, Note_on_c, 10, 51, 127
14, 48577, Control_c, 10, 7, 102
14, 48578, Control_c, 10, 7, 101
14, 48579, Control_c, 10, 7, 100
14, 48580, Control_c, 10, 7, 99
14, 48581, Control_c, 10, 7, 98
14, 48582, Control_c, 10, 7, 97
14, 48583, Control_c, 10, 7, 96
14, 48584, Control_c, 10, 7, 95
14, 48585, Control_c, 10, 7, 94
14, 48586, Control_c, 10, 7, 94
14, 48587, Control_c, 10, 7, 93
14, 48588, Control_c, 10, 7, 92
14, 48589, Control_c, 10, 7, 91
14, 48590, Control_c, 10, 7, 90
14, 48591, Control_c, 10, 7, 89
14, 48592, Control_c, 10, 7, 88
14, 48593, Control_c, 10, 7, 87
14, 48594, Control_c, 10, 7, 86
14, 48595, Control_c, 10, 7, 86
14, 48596, Control_c, 10, 7, 85
14, 48597, Control_c, 10, 7, 84
14, 48598, Control_c, 10, 7, 83
14, 48599, Control_c, 10, 7, 82
14, 48600, Control_c, 10, 7, 81
14, 48601, Control_c, 10, 7, 80
14, 48602, Control_c, 10, 7, 79
14, 48603, Control_c, 10, 7, 78
14, 48604, Control_c, 10, 7, 78
14, 48605, Control_c, 10, 7, 77
14, 48606, Control_c, 10, 7, 76
14, 48607, Control_c, 10, 7, 75
14, 48608, Control_c, 10, 7, 74
14, 48609, Control_c, 10, 7, 73
14, 48610, Control_c, 10, 7, 72
14, 48611, Control_c, 10, 7, 71
14, 48612, Control_c, 10, 7, 70
14, 48613, Control_c, 10, 7, 69
14, 48614, Control_c, 10, 7, 69
14, 48615, Control_c, 10, 7, 68
14, 48616, Control_c, 10, 7, 67
14, 48617, Control_c, 10, 7, 66
14, 48618, Control_c, 10, 7, 65
14, 48619, Control_c, 10, 7, 64
14, 48620, Control_c, 10, 7, 63
14, 48621, Control_c, 10, 7, 62
14, 48622, Control_c, 10, 7, 61
14, 48623, Control_c, 10, 7, 61
14, 48624, Note_off_c, 10, 51, 64
14, 48624, Note_off_c, 10, 27, 64
14, 48624, Note_off_c, 10, 39, 64
14, 48624, Note_on_c, 10, 39, 127
14, 48624, Note_on_c, 10, 27, 127
14, 48624, Note_on_c, 10, 51, 127
14, 48625, Control_c, 10, 7, 103
14, 48626, Control_c, 10, 7, 102
14, 48627, Control_c, 10, 7, 101
14, 48628, Control_c, 10, 7, 100
14, 48629, Control_c, 10, 7, 99
14, 48630, Control_c, 10, 7, 99
14, 48631, Control_c, 10, 7, 98
14, 48632, Control_c, 10, 7, 97
14, 48633, Control_c, 10, 7, 96
14, 48634, Control_c, 10, 7, 95
14, 48635, Control_c, 10, 7, 94
14, 48636, Control_c, 10, 7, 93
14, 48637, Control_c, 10, 7, 93
14, 48638, Control_c, 10, 7, 92
14, 48639, Control_c, 10, 7, 91
14, 48640, Control_c, 10, 7, 90
14, 48641, Control_c, 10, 7, 89
14, 48642, Control_c, 10, 7, 88
14, 48643, Control_c, 10, 7, 87
14, 48644, Control_c, 10, 7, 87
14, 48645, Control_c, 10, 7, 86
14, 48646, Control_c, 10, 7, 85
14, 48647, Control_c, 10, 7, 84
14, 48648, Control_c, 10, 7, 83
14, 48649, Control_c, 10, 7, 82
14, 48650, Control_c, 10, 7, 81
14, 48651, Control_c, 10, 7, 81
14, 48652, Control_c, 10, 7, 80
14, 48653, Control_c, 10, 7, 79
14, 48654, Control_c, 10, 7, 78
14, 48655, Control_c, 10, 7, 77
14, 48656, Control_c, 10, 7, 76
14, 48657, Control_c, 10, 7, 75
14, 48658, Control_c, 10, 7, 75
14, 48659, Control_c, 10, 7, 74
14, 48660, Control_c, 10, 7, 73
14, 48661, Control_c, 10, 7, 72
14, 48662, Control_c, 10, 7, 71
14, 48663, Control_c, 10, 7, 70
14, 48664, Control_c, 10, 7, 69
14, 48665, Control_c, 10, 7, 69
14, 48666, Control_c, 10, 7, 68
14, 48667, Control_c, 10, 7, 67
14, 48668, Control_c, 10, 7, 66
14, 48669, Control_c, 10, 7, 65
14, 48670, Control_c, 10, 7, 64
14, 48671, Control_c, 10, 7, 64
14, 48672, Note_off_c, 10, 51, 64
14, 48672, Note_off_c, 10, 27, 64
14, 48672, Note_off_c, 10, 39, 64
14, 48672, Note_on_c, 10, 39, 127
14, 48672, Note_on_c, 10, 27, 127
14, 48672, Note_on_c, 10, 51, 127
14, 48673, Control_c, 10, 7, 104
14, 48674, Control_c, 10, 7, 103
14, 48675, Control_c, 10, 7, 102
14, 48676, Control_c, 10, 7, 101
14, 48677, Control_c, 10, 7, 100
14, 48678, Control_c, 10, 7, 99
14, 48679, Control_c, 10, 7, 98
14, 48680, Control_c, 10, 7, 98
14, 48681, Control_c, 10, 7, 97
14, 48682, Control_c, 10, 7, 96
14, 48683, Control_c, 10, 7, 95
14, 48684, Control_c, 10, 7, 94
14, 48685, Control_c, 10, 7, 93
14, 48686, Control_c, 10, 7, 93
14, 48687, Control_c, 10, 7, 92
14, 48688, Control_c, 10, 7, 91
14, 48689, Control_c, 10, 7, 90
14, 48690, Control_c, 10, 7, 89
14, 48691, Control_c, 10, 7, 88
14, 48692, Control_c, 10, 7, 87
14, 48693, Control_c, 10, 7, 87
14, 48694, Control_c, 10, 7, 86
14, 48695, Control_c, 10, 7, 85
14, 48696, Control_c, 10, 7, 84
14, 48697, Control_c, 10, 7, 83
14, 48698, Control_c, 10, 7, 82
14, 48699, Control_c, 10, 7, 82
14, 48700, Control_c, 10, 7, 81
14, 48701, Control_c, 10, 7, 80
14, 48702, Control_c, 10, 7, 79
14, 48703, Control_c, 10, 7, 78
14, 48704, Control_c, 10, 7, 77
14, 48705, Control_c, 10, 7, 76
14, 48706, Control_c, 10, 7, 76
14, 48707, Control_c, 10, 7, 75
14, 48708, Control_c, 10, 7, 74
14, 48709, Control_c, 10, 7, 73
14, 48710, Control_c, 10, 7, 72
14, 48711, Control_c, 10, 7, 71
14, 48712, Control_c, 10, 7, 71
14, 48713, Control_c, 10, 7, 70
14, 48714, Control_c, 10, 7, 69
14, 48715, Control_c, 10, 7, 68
14, 48716, Control_c, 10, 7, 67
14, 48717, Control_c, 10, 7, 66
14, 48718, Control_c, 10, 7, 65
14, 48719, Control_c, 10, 7, 102
14, 48720, Note_off_c, 10, 51, 64
14, 48720, Note_off_c, 10, 27, 64
14, 48720, Note_off_c, 10, 39, 64
14, 48720, Control_c, 10, 7, 102
14, 48720, Note_on_c, 10, 39, 127
14, 48720, Note_on_c, 10, 27, 127
14, 48720, Note_on_c, 10, 51, 127
14, 48721, Control_c, 10, 7, 101
14, 48722, Control_c, 10, 7, 100
14, 48723, Control_c, 10, 7, 99
14, 48724, Control_c, 10, 7, 98
14, 48725, Control_c, 10, 7, 97
14, 48726, Control_c, 10, 7, 96
14, 48727, Control_c, 10, 7, 96
14, 48728, Control_c, 10, 7, 95
14, 48729, Control_c, 10, 7, 94
14, 48730, Control_c, 10, 7, 93
14, 48731, Control_c, 10, 7, 92
14, 48732, Control_c, 10, 7, 91
14, 48733, Control_c, 10, 7, 90
14, 48734, Control_c, 10, 7, 89
14, 48735, Control_c, 10, 7, 89
14, 48736, Control_c, 10, 7, 88
14, 48737, Control_c, 10, 7, 87
14, 48738, Control_c, 10, 7, 86
14, 48739, Control_c, 10, 7, 85
14, 48740, Control_c, 10, 7, 84
14, 48741, Control_c, 10, 7, 83
14, 48742, Control_c, 10, 7, 83
14, 48743, Control_c, 10, 7, 82
14, 48744, Control_c, 10, 7, 81
14, 48745, Control_c, 10, 7, 80
14, 48746, Control_c, 10, 7, 79
14, 48747, Control_c, 10, 7, 78
14, 48748, Control_c, 10, 7, 77
14, 48749, Control_c, 10, 7, 77
14, 48750, Control_c, 10, 7, 76
14, 48751, Control_c, 10, 7, 75
14, 48752, Control_c, 10, 7, 74
14, 48753, Control_c, 10, 7, 73
14, 48754, Control_c, 10, 7, 72
14, 48755, Control_c, 10, 7, 71
14, 48756, Control_c, 10, 7, 71
14, 48757, Control_c, 10, 7, 70
14, 48758, Control_c, 10, 7, 69
14, 48759, Control_c, 10, 7, 68
14, 48760, Control_c, 10, 7, 67
14, 48761, Control_c, 10, 7, 66
14, 48762, Control_c, 10, 7, 65
14, 48763, Control_c, 10, 7, 65
14, 48764, Control_c, 10, 7, 64
14, 48765, Control_c, 10, 7, 63
14, 48768, Note_off_c, 10, 39, 64
14, 48768, Note_off_c, 10, 51, 64
14, 48768, Note_off_c, 10, 27, 64
14, 48768, Note_on_c, 10, 41, 127
14, 48768, Note_on_c, 10, 29, 127
14, 48768, Note_on_c, 10, 53, 127
14, 48888, Note_off_c, 10, 53, 64
14, 48888, Note_off_c, 10, 29, 64
14, 48888, Note_off_c, 10, 41, 64
14, 48912, Note_on_c, 10, 41, 127
14, 48912, Note_on_c, 10, 29, 127
14, 48912, Note_on_c, 10, 53, 127
14, 49056, Note_off_c, 10, 53, 64
14, 49056, Note_off_c, 10, 29, 64
14, 49056, Note_off_c, 10, 41, 64
14, 49056, Note_on_c, 10, 43, 127
14, 49056, Note_on_c, 10, 31, 127
14, 49056, Note_on_c, 10, 55, 127
14, 49200, Note_off_c, 10, 55, 64
14, 49200, Note_off_c, 10, 31, 64
14, 49200, Note_off_c, 10, 43, 64
14, 49200, Note_on_c, 10, 43, 127
14, 49200, Note_on_c, 10, 31, 127
14, 49200, Note_on_c, 10, 55, 127
14, 49248, Note_off_c, 10, 55, 64
14, 49248, Note_off_c, 10, 31, 64
14, 49248, Note_off_c, 10, 43, 64
14, 49248, Note_on_c, 10, 43, 127
14, 49248, Note_on_c, 10, 31, 127
14, 49248, Note_on_c, 10, 55, 127
14, 49296, Note_off_c, 10, 55, 64
14, 49296, Note_off_c, 10, 31, 64
14, 49296, Note_off_c, 10, 43, 64
14, 49296, Note_on_c, 10, 43, 127
14, 49296, Note_on_c, 10, 31, 127
14, 49296, Note_on_c, 10, 55, 127
14, 49344, Note_off_c, 10, 55, 64
14, 49344, Note_off_c, 10, 31, 64
14, 49344, Note_off_c, 10, 43, 64
14, 49344, Note_on_c, 10, 43, 127
14, 49344, Note_on_c, 10, 31, 127
14, 49344, Note_on_c, 10, 55, 127
14, 49392, Note_off_c, 10, 55, 64
14, 49392, Note_off_c, 10, 31, 64
14, 49392, Note_off_c, 10, 43, 64
14, 49392, Note_on_c, 10, 43, 127
14, 49392, Note_on_c, 10, 31, 127
14, 49392, Note_on_c, 10, 55, 127
14, 49440, Note_off_c, 10, 55, 64
14, 49440, Note_off_c, 10, 31, 64
14, 49440, Note_off_c, 10, 43, 64
14, 49440, Note_on_c, 10, 43, 127
14, 49440, Note_on_c, 10, 31, 127
14, 49440, Note_on_c, 10, 55, 127
14, 49488, Note_off_c, 10, 55, 64
14, 49488, Note_off_c, 10, 31, 64
14, 49488, Note_off_c, 10, 43, 64
14, 49488, Note_on_c, 10, 43, 127
14, 49488, Note_on_c, 10, 31, 127
14, 49488, Note_on_c, 10, 55, 127
14, 49536, Note_off_c, 10, 55, 64
14, 49536, Note_off_c, 10, 31, 64
14, 49536, Note_off_c, 10, 43, 64
14, 49536, Control_c, 10, 7, 50
14, 49536, Note_on_c, 10, 41, 127
14, 49536, Note_on_c, 10, 29, 127
14, 49536, Note_on_c, 10, 53, 127
14, 49538, Control_c, 10, 7, 50
14, 49539, Control_c, 10, 7, 51
14, 49540, Control_c, 10, 7, 51
14, 49541, Control_c, 10, 7, 52
14, 49542, Control_c, 10, 7, 52
14, 49543, Control_c, 10, 7, 52
14, 49544, Control_c, 10, 7, 53
14, 49545, Control_c, 10, 7, 53
14, 49546, Control_c, 10, 7, 54
14, 49547, Control_c, 10, 7, 54
14, 49548, Control_c, 10, 7, 54
14, 49549, Control_c, 10, 7, 55
14, 49550, Control_c, 10, 7, 55
14, 49551, Control_c, 10, 7, 55
14, 49552, Control_c, 10, 7, 56
14, 49553, Control_c, 10, 7, 56
14, 49554, Control_c, 10, 7, 57
14, 49555, Control_c, 10, 7, 57
14, 49556, Control_c, 10, 7, 57
14, 49557, Control_c, 10, 7, 58
14, 49558, Control_c, 10, 7, 58
14, 49559, Control_c, 10, 7, 59
14, 49560, Control_c, 10, 7, 59
14, 49561, Control_c, 10, 7, 59
14, 49562, Control_c, 10, 7, 60
14, 49563, Control_c, 10, 7, 60
14, 49564, Control_c, 10, 7, 61
14, 49565, Control_c, 10, 7, 61
14, 49566, Control_c, 10, 7, 61
14, 49567, Control_c, 10, 7, 62
14, 49568, Control_c, 10, 7, 62
14, 49569, Control_c, 10, 7, 62
14, 49570, Control_c, 10, 7, 63
14, 49571, Control_c, 10, 7, 63
14, 49572, Control_c, 10, 7, 64
14, 49573, Control_c, 10, 7, 64
14, 49574, Control_c, 10, 7, 64
14, 49575, Control_c, 10, 7, 65
14, 49576, Control_c, 10, 7, 65
14, 49577, Control_c, 10, 7, 66
14, 49578, Control_c, 10, 7, 66
14, 49579, Control_c, 10, 7, 66
14, 49580, Control_c, 10, 7, 67
14, 49581, Control_c, 10, 7, 67
14, 49582, Control_c, 10, 7, 68
14, 49583, Control_c, 10, 7, 68
14, 49584, Control_c, 10, 7, 68
14, 49585, Control_c, 10, 7, 69
14, 49586, Control_c, 10, 7, 69
14, 49587, Control_c, 10, 7, 69
14, 49588, Control_c, 10, 7, 70
14, 49589, Control_c, 10, 7, 70
14, 49590, Control_c, 10, 7, 71
14, 49591, Control_c, 10, 7, 71
14, 49592, Control_c, 10, 7, 71
14, 49593, Control_c, 10, 7, 72
14, 49594, Control_c, 10, 7, 72
14, 49595, Control_c, 10, 7, 73
14, 49596, Control_c, 10, 7, 73
14, 49597, Control_c, 10, 7, 73
14, 49598, Control_c, 10, 7, 74
14, 49599, Control_c, 10, 7, 74
14, 49600, Control_c, 10, 7, 75
14, 49601, Control_c, 10, 7, 75
14, 49602, Control_c, 10, 7, 75
14, 49603, Control_c, 10, 7, 76
14, 49604, Control_c, 10, 7, 76
14, 49605, Control_c, 10, 7, 76
14, 49606, Control_c, 10, 7, 77
14, 49607, Control_c, 10, 7, 77
14, 49608, Control_c, 10, 7, 78
14, 49609, Control_c, 10, 7, 78
14, 49610, Control_c, 10, 7, 78
14, 49611, Control_c, 10, 7, 79
14, 49612, Control_c, 10, 7, 79
14, 49613, Control_c, 10, 7, 80
14, 49614, Control_c, 10, 7, 80
14, 49615, Control_c, 10, 7, 80
14, 49616, Control_c, 10, 7, 81
14, 49617, Control_c, 10, 7, 81
14, 49618, Control_c, 10, 7, 82
14, 49619, Control_c, 10, 7, 82
14, 49620, Control_c, 10, 7, 82
14, 49621, Control_c, 10, 7, 83
14, 49622, Control_c, 10, 7, 83
14, 49623, Control_c, 10, 7, 83
14, 49624, Control_c, 10, 7, 84
14, 49625, Control_c, 10, 7, 84
14, 49626, Control_c, 10, 7, 85
14, 49627, Control_c, 10, 7, 85
14, 49628, Control_c, 10, 7, 85
14, 49629, Control_c, 10, 7, 86
14, 49630, Control_c, 10, 7, 86
14, 49631, Control_c, 10, 7, 87
14, 49632, Control_c, 10, 7, 87
14, 49633, Control_c, 10, 7, 87
14, 49634, Control_c, 10, 7, 88
14, 49635, Control_c, 10, 7, 88
14, 49636, Control_c, 10, 7, 89
14, 49637, Control_c, 10, 7, 89
14, 49638, Control_c, 10, 7, 89
14, 49639, Control_c, 10, 7, 90
14, 49640, Control_c, 10, 7, 90
14, 49641, Control_c, 10, 7, 90
14, 49642, Control_c, 10, 7, 91
14, 49643, Control_c, 10, 7, 91
14, 49644, Control_c, 10, 7, 92
14, 49645, Control_c, 10, 7, 92
14, 49646, Control_c, 10, 7, 92
14, 49647, Control_c, 10, 7, 93
14, 49648, Control_c, 10, 7, 93
14, 49649, Control_c, 10, 7, 94
14, 49650, Control_c, 10, 7, 94
14, 49651, Control_c, 10, 7, 94
14, 49652, Control_c, 10, 7, 95
14, 49653, Control_c, 10, 7, 95
14, 49654, Control_c, 10, 7, 96
14, 49655, Control_c, 10, 7, 96
14, 49656, Control_c, 10, 7, 96
14, 49657, Control_c, 10, 7, 97
14, 49658, Control_c, 10, 7, 97
14, 49659, Control_c, 10, 7, 97
14, 49660, Control_c, 10, 7, 98
14, 49661, Control_c, 10, 7, 98
14, 49662, Control_c, 10, 7, 99
14, 49663, Control_c, 10, 7, 99
14, 49664, Control_c, 10, 7, 99
14, 49665, Control_c, 10, 7, 100
14, 49666, Control_c, 10, 7, 100
14, 49667, Control_c, 10, 7, 101
14, 49668, Control_c, 10, 7, 101
14, 49669, Control_c, 10, 7, 101
14, 49670, Control_c, 10, 7, 102
14, 49671, Control_c, 10, 7, 102
14, 49672, Control_c, 10, 7, 103
14, 49673, Control_c, 10, 7, 103
14, 49674, Control_c, 10, 7, 103
14, 49675, Control_c, 10, 7, 104
14, 49676, Control_c, 10, 7, 104
14, 49677, Control_c, 10, 7, 104
14, 49678, Control_c, 10, 7, 105
14, 49679, Control_c, 10, 7, 105
14, 49680, Note_off_c, 10, 53, 64
14, 49680, Note_off_c, 10, 29, 64
14, 49680, Note_off_c, 10, 41, 64
14, 49680, Control_c, 10, 7, 54
14, 49680, Note_on_c, 10, 43, 127
14, 49680, Note_on_c, 10, 31, 127
14, 49680, Note_on_c, 10, 55, 127
14, 49681, Control_c, 10, 7, 55
14, 49682, Control_c, 10, 7, 55
14, 49683, Control_c, 10, 7, 56
14, 49684, Control_c, 10, 7, 57
14, 49685, Control_c, 10, 7, 57
14, 49686, Control_c, 10, 7, 57
14, 49687, Control_c, 10, 7, 58
14, 49688, Control_c, 10, 7, 58
14, 49689, Control_c, 10, 7, 58
14, 49690, Control_c, 10, 7, 59
14, 49691, Control_c, 10, 7, 59
14, 49692, Control_c, 10, 7, 59
14, 49693, Control_c, 10, 7, 60
14, 49694, Control_c, 10, 7, 60
14, 49695, Control_c, 10, 7, 61
14, 49696, Control_c, 10, 7, 61
14, 49697, Control_c, 10, 7, 61
14, 49698, Control_c, 10, 7, 62
14, 49699, Control_c, 10, 7, 62
14, 49700, Control_c, 10, 7, 62
14, 49701, Control_c, 10, 7, 63
14, 49702, Control_c, 10, 7, 63
14, 49703, Control_c, 10, 7, 63
14, 49704, Control_c, 10, 7, 63
14, 49705, Control_c, 10, 7, 64
14, 49706, Control_c, 10, 7, 64
14, 49707, Control_c, 10, 7, 65
14, 49708, Control_c, 10, 7, 65
14, 49709, Control_c, 10, 7, 65
14, 49710, Control_c, 10, 7, 66
14, 49711, Control_c, 10, 7, 66
14, 49712, Control_c, 10, 7, 66
14, 49713, Control_c, 10, 7, 67
14, 49714, Control_c, 10, 7, 67
14, 49715, Control_c, 10, 7, 68
14, 49716, Control_c, 10, 7, 68
14, 49717, Control_c, 10, 7, 68
14, 49718, Control_c, 10, 7, 69
14, 49719, Control_c, 10, 7, 69
14, 49720, Control_c, 10, 7, 69
14, 49721, Control_c, 10, 7, 70
14, 49722, Control_c, 10, 7, 70
14, 49723, Control_c, 10, 7, 71
14, 49724, Control_c, 10, 7, 71
14, 49725, Control_c, 10, 7, 71
14, 49726, Control_c, 10, 7, 72
14, 49727, Control_c, 10, 7, 72
14, 49728, Control_c, 10, 7, 73
14, 49729, Control_c, 10, 7, 73
14, 49730, Control_c, 10, 7, 73
14, 49731, Control_c, 10, 7, 74
14, 49732, Control_c, 10, 7, 74
14, 49733, Control_c, 10, 7, 74
14, 49734, Control_c, 10, 7, 75
14, 49735, Control_c, 10, 7, 75
14, 49736, Control_c, 10, 7, 76
14, 49737, Control_c, 10, 7, 76
14, 49738, Control_c, 10, 7, 76
14, 49739, Control_c, 10, 7, 77
14, 49740, Control_c, 10, 7, 77
14, 49741, Control_c, 10, 7, 77
14, 49742, Control_c, 10, 7, 78
14, 49743, Control_c, 10, 7, 78
14, 49744, Control_c, 10, 7, 79
14, 49745, Control_c, 10, 7, 79
14, 49746, Control_c, 10, 7, 79
14, 49747, Control_c, 10, 7, 80
14, 49748, Control_c, 10, 7, 80
14, 49749, Control_c, 10, 7, 80
14, 49750, Control_c, 10, 7, 81
14, 49751, Control_c, 10, 7, 81
14, 49752, Control_c, 10, 7, 82
14, 49753, Control_c, 10, 7, 82
14, 49754, Control_c, 10, 7, 82
14, 49755, Control_c, 10, 7, 83
14, 49756, Control_c, 10, 7, 83
14, 49757, Control_c, 10, 7, 84
14, 49758, Control_c, 10, 7, 84
14, 49759, Control_c, 10, 7, 84
14, 49760, Control_c, 10, 7, 85
14, 49761, Control_c, 10, 7, 85
14, 49762, Control_c, 10, 7, 85
14, 49763, Control_c, 10, 7, 86
14, 49764, Control_c, 10, 7, 86
14, 49765, Control_c, 10, 7, 87
14, 49766, Control_c, 10, 7, 87
14, 49767, Control_c, 10, 7, 87
14, 49768, Control_c, 10, 7, 88
14, 49769, Control_c, 10, 7, 88
14, 49770, Control_c, 10, 7, 88
14, 49771, Control_c, 10, 7, 89
14, 49772, Control_c, 10, 7, 89
14, 49773, Control_c, 10, 7, 90
14, 49774, Control_c, 10, 7, 90
14, 49775, Control_c, 10, 7, 90
14, 49776, Control_c, 10, 7, 91
14, 49777, Control_c, 10, 7, 91
14, 49778, Control_c, 10, 7, 92
14, 49779, Control_c, 10, 7, 92
14, 49780, Control_c, 10, 7, 92
14, 49781, Control_c, 10, 7, 93
14, 49782, Control_c, 10, 7, 93
14, 49783, Control_c, 10, 7, 93
14, 49784, Control_c, 10, 7, 94
14, 49785, Control_c, 10, 7, 94
14, 49786, Control_c, 10, 7, 95
14, 49787, Control_c, 10, 7, 95
14, 49788, Control_c, 10, 7, 95
14, 49789, Control_c, 10, 7, 96
14, 49790, Control_c, 10, 7, 96
14, 49791, Control_c, 10, 7, 96
14, 49792, Control_c, 10, 7, 97
14, 49793, Control_c, 10, 7, 97
14, 49794, Control_c, 10, 7, 98
14, 49795, Control_c, 10, 7, 98
14, 49796, Control_c, 10, 7, 98
14, 49797, Control_c, 10, 7, 99
14, 49798, Control_c, 10, 7, 99
14, 49799, Control_c, 10, 7, 99
14, 49800, Control_c, 10, 7, 100
14, 49801, Control_c, 10, 7, 100
14, 49802, Control_c, 10, 7, 101
14, 49803, Control_c, 10, 7, 101
14, 49804, Control_c, 10, 7, 101
14, 49805, Control_c, 10, 7, 102
14, 49806, Control_c, 10, 7, 102
14, 49807, Control_c, 10, 7, 103
14, 49808, Control_c, 10, 7, 103
14, 49809, Control_c, 10, 7, 103
14, 49810, Control_c, 10, 7, 104
14, 49811, Control_c, 10, 7, 104
14, 49812, Control_c, 10, 7, 104
14, 49813, Control_c, 10, 7, 105
14, 49814, Control_c, 10, 7, 105
14, 49815, Control_c, 10, 7, 106
14, 49816, Control_c, 10, 7, 106
14, 49817, Control_c, 10, 7, 106
14, 49818, Control_c, 10, 7, 107
14, 49819, Control_c, 10, 7, 107
14, 49820, Control_c, 10, 7, 107
14, 49821, Control_c, 10, 7, 108
14, 49822, Control_c, 10, 7, 108
14, 49823, Control_c, 10, 7, 109
14, 49824, Note_off_c, 10, 55, 64
14, 49824, Note_off_c, 10, 31, 64
14, 49824, Note_off_c, 10, 43, 64
14, 49824, Control_c, 10, 7, 108
14, 49824, Note_on_c, 10, 39, 127
14, 49824, Note_on_c, 10, 27, 127
14, 49824, Note_on_c, 10, 51, 127
14, 49825, Control_c, 10, 7, 108
14, 49826, Control_c, 10, 7, 107
14, 49827, Control_c, 10, 7, 107
14, 49828, Control_c, 10, 7, 106
14, 49829, Control_c, 10, 7, 106
14, 49830, Control_c, 10, 7, 105
14, 49831, Control_c, 10, 7, 105
14, 49832, Control_c, 10, 7, 105
14, 49833, Control_c, 10, 7, 104
14, 49834, Control_c, 10, 7, 104
14, 49835, Control_c, 10, 7, 103
14, 49836, Control_c, 10, 7, 103
14, 49837, Control_c, 10, 7, 102
14, 49838, Control_c, 10, 7, 102
14, 49839, Control_c, 10, 7, 101
14, 49840, Control_c, 10, 7, 101
14, 49841, Control_c, 10, 7, 100
14, 49842, Control_c, 10, 7, 100
14, 49843, Control_c, 10, 7, 99
14, 49844, Control_c, 10, 7, 99
14, 49845, Control_c, 10, 7, 98
14, 49846, Control_c, 10, 7, 98
14, 49847, Control_c, 10, 7, 97
14, 49848, Control_c, 10, 7, 97
14, 49849, Control_c, 10, 7, 96
14, 49850, Control_c, 10, 7, 96
14, 49851, Control_c, 10, 7, 95
14, 49852, Control_c, 10, 7, 95
14, 49853, Control_c, 10, 7, 94
14, 49854, Control_c, 10, 7, 94
14, 49855, Control_c, 10, 7, 93
14, 49856, Control_c, 10, 7, 93
14, 49857, Control_c, 10, 7, 92
14, 49858, Control_c, 10, 7, 92
14, 49859, Control_c, 10, 7, 91
14, 49860, Control_c, 10, 7, 91
14, 49861, Control_c, 10, 7, 90
14, 49862, Control_c, 10, 7, 90
14, 49863, Control_c, 10, 7, 89
14, 49864, Control_c, 10, 7, 89
14, 49865, Control_c, 10, 7, 88
14, 49866, Control_c, 10, 7, 88
14, 49867, Control_c, 10, 7, 87
14, 49868, Control_c, 10, 7, 87
14, 49869, Control_c, 10, 7, 86
14, 49870, Control_c, 10, 7, 86
14, 49871, Control_c, 10, 7, 85
14, 49872, Control_c, 10, 7, 85
14, 49873, Control_c, 10, 7, 84
14, 49874, Control_c, 10, 7, 84
14, 49875, Control_c, 10, 7, 83
14, 49876, Control_c, 10, 7, 83
14, 49877, Control_c, 10, 7, 82
14, 49878, Control_c, 10, 7, 82
14, 49879, Control_c, 10, 7, 81
14, 49880, Control_c, 10, 7, 81
14, 49881, Control_c, 10, 7, 80
14, 49882, Control_c, 10, 7, 80
14, 49883, Control_c, 10, 7, 79
14, 49884, Control_c, 10, 7, 79
14, 49885, Control_c, 10, 7, 78
14, 49886, Control_c, 10, 7, 78
14, 49887, Control_c, 10, 7, 77
14, 49888, Control_c, 10, 7, 77
14, 49889, Control_c, 10, 7, 76
14, 49890, Control_c, 10, 7, 76
14, 49891, Control_c, 10, 7, 75
14, 49892, Control_c, 10, 7, 75
14, 49893, Control_c, 10, 7, 74
14, 49894, Control_c, 10, 7, 74
14, 49895, Control_c, 10, 7, 73
14, 49896, Control_c, 10, 7, 73
14, 49897, Control_c, 10, 7, 72
14, 49898, Control_c, 10, 7, 72
14, 49899, Control_c, 10, 7, 71
14, 49900, Control_c, 10, 7, 71
14, 49901, Control_c, 10, 7, 70
14, 49902, Control_c, 10, 7, 70
14, 49903, Control_c, 10, 7, 69
14, 49904, Control_c, 10, 7, 69
14, 49905, Control_c, 10, 7, 68
14, 49906, Control_c, 10, 7, 68
14, 49907, Control_c, 10, 7, 67
14, 49908, Control_c, 10, 7, 67
14, 49909, Control_c, 10, 7, 66
14, 49910, Control_c, 10, 7, 66
14, 49911, Control_c, 10, 7, 65
14, 49912, Control_c, 10, 7, 65
14, 49913, Control_c, 10, 7, 64
14, 49914, Control_c, 10, 7, 64
14, 49915, Control_c, 10, 7, 63
14, 49916, Control_c, 10, 7, 63
14, 49917, Control_c, 10, 7, 62
14, 49918, Control_c, 10, 7, 62
14, 49919, Control_c, 10, 7, 61
14, 49920, Control_c, 10, 7, 61
14, 49968, Note_off_c, 10, 51, 64
14, 49968, Note_off_c, 10, 27, 64
14, 49968, Note_off_c, 10, 39, 64
14, 49968, Control_c, 10, 7, 102
14, 49968, Note_on_c, 10, 39, 127
14, 49968, Note_on_c, 10, 27, 127
14, 49968, Note_on_c, 10, 51, 127
14, 49969, Control_c, 10, 7, 102
14, 49970, Control_c, 10, 7, 101
14, 49971, Control_c, 10, 7, 100
14, 49972, Control_c, 10, 7, 99
14, 49973, Control_c, 10, 7, 98
14, 49974, Control_c, 10, 7, 97
14, 49975, Control_c, 10, 7, 96
14, 49976, Control_c, 10, 7, 95
14, 49977, Control_c, 10, 7, 95
14, 49978, Control_c, 10, 7, 94
14, 49979, Control_c, 10, 7, 93
14, 49980, Control_c, 10, 7, 92
14, 49981, Control_c, 10, 7, 91
14, 49982, Control_c, 10, 7, 90
14, 49983, Control_c, 10, 7, 89
14, 49984, Control_c, 10, 7, 88
14, 49985, Control_c, 10, 7, 87
14, 49986, Control_c, 10, 7, 87
14, 49987, Control_c, 10, 7, 86
14, 49988, Control_c, 10, 7, 85
14, 49989, Control_c, 10, 7, 84
14, 49990, Control_c, 10, 7, 83
14, 49991, Control_c, 10, 7, 82
14, 49992, Control_c, 10, 7, 81
14, 49993, Control_c, 10, 7, 80
14, 49994, Control_c, 10, 7, 80
14, 49995, Control_c, 10, 7, 79
14, 49996, Control_c, 10, 7, 78
14, 49997, Control_c, 10, 7, 77
14, 49998, Control_c, 10, 7, 76
14, 49999, Control_c, 10, 7, 75
14, 50000, Control_c, 10, 7, 74
14, 50001, Control_c, 10, 7, 73
14, 50002, Control_c, 10, 7, 73
14, 50003, Control_c, 10, 7, 72
14, 50004, Control_c, 10, 7, 71
14, 50005, Control_c, 10, 7, 70
14, 50006, Control_c, 10, 7, 69
14, 50007, Control_c, 10, 7, 68
14, 50008, Control_c, 10, 7, 67
14, 50009, Control_c, 10, 7, 66
14, 50010, Control_c, 10, 7, 66
14, 50011, Control_c, 10, 7, 65
14, 50012, Control_c, 10, 7, 64
14, 50013, Control_c, 10, 7, 63
14, 50014, Control_c, 10, 7, 62
14, 50015, Control_c, 10, 7, 61
14, 50016, Note_off_c, 10, 51, 64
14, 50016, Note_off_c, 10, 27, 64
14, 50016, Note_off_c, 10, 39, 64
14, 50016, Control_c, 10, 7, 102
14, 50016, Note_on_c, 10, 39, 127
14, 50016, Note_on_c, 10, 27, 127
14, 50016, Note_on_c, 10, 51, 127
14, 50017, Control_c, 10, 7, 102
14, 50018, Control_c, 10, 7, 101
14, 50019, Control_c, 10, 7, 100
14, 50020, Control_c, 10, 7, 99
14, 50021, Control_c, 10, 7, 98
14, 50022, Control_c, 10, 7, 97
14, 50023, Control_c, 10, 7, 96
14, 50024, Control_c, 10, 7, 96
14, 50025, Control_c, 10, 7, 95
14, 50026, Control_c, 10, 7, 94
14, 50027, Control_c, 10, 7, 93
14, 50028, Control_c, 10, 7, 92
14, 50029, Control_c, 10, 7, 91
14, 50030, Control_c, 10, 7, 91
14, 50031, Control_c, 10, 7, 90
14, 50032, Control_c, 10, 7, 89
14, 50033, Control_c, 10, 7, 88
14, 50034, Control_c, 10, 7, 87
14, 50035, Control_c, 10, 7, 86
14, 50036, Control_c, 10, 7, 85
14, 50037, Control_c, 10, 7, 85
14, 50038, Control_c, 10, 7, 84
14, 50039, Control_c, 10, 7, 83
14, 50040, Control_c, 10, 7, 82
14, 50041, Control_c, 10, 7, 81
14, 50042, Control_c, 10, 7, 80
14, 50043, Control_c, 10, 7, 80
14, 50044, Control_c, 10, 7, 79
14, 50045, Control_c, 10, 7, 78
14, 50046, Control_c, 10, 7, 77
14, 50047, Control_c, 10, 7, 76
14, 50048, Control_c, 10, 7, 75
14, 50049, Control_c, 10, 7, 74
14, 50050, Control_c, 10, 7, 74
14, 50051, Control_c, 10, 7, 73
14, 50052, Control_c, 10, 7, 72
14, 50053, Control_c, 10, 7, 71
14, 50054, Control_c, 10, 7, 70
14, 50055, Control_c, 10, 7, 69
14, 50056, Control_c, 10, 7, 68
14, 50057, Control_c, 10, 7, 68
14, 50058, Control_c, 10, 7, 67
14, 50059, Control_c, 10, 7, 66
14, 50060, Control_c, 10, 7, 65
14, 50061, Control_c, 10, 7, 64
14, 50062, Control_c, 10, 7, 102
14, 50063, Control_c, 10, 7, 102
14, 50064, Note_off_c, 10, 51, 64
14, 50064, Note_off_c, 10, 27, 64
14, 50064, Note_off_c, 10, 39, 64
14, 50064, Control_c, 10, 7, 101
14, 50064, Note_on_c, 10, 39, 127
14, 50064, Note_on_c, 10, 27, 127
14, 50064, Note_on_c, 10, 51, 127
14, 50065, Control_c, 10, 7, 100
14, 50066, Control_c, 10, 7, 99
14, 50067, Control_c, 10, 7, 98
14, 50068, Control_c, 10, 7, 97
14, 50069, Control_c, 10, 7, 97
14, 50070, Control_c, 10, 7, 96
14, 50071, Control_c, 10, 7, 95
14, 50072, Control_c, 10, 7, 94
14, 50073, Control_c, 10, 7, 93
14, 50074, Control_c, 10, 7, 93
14, 50075, Control_c, 10, 7, 92
14, 50076, Control_c, 10, 7, 91
14, 50077, Control_c, 10, 7, 90
14, 50078, Control_c, 10, 7, 89
14, 50079, Control_c, 10, 7, 88
14, 50080, Control_c, 10, 7, 88
14, 50081, Control_c, 10, 7, 87
14, 50082, Control_c, 10, 7, 86
14, 50083, Control_c, 10, 7, 85
14, 50084, Control_c, 10, 7, 84
14, 50085, Control_c, 10, 7, 84
14, 50086, Control_c, 10, 7, 83
14, 50087, Control_c, 10, 7, 82
14, 50088, Control_c, 10, 7, 81
14, 50089, Control_c, 10, 7, 80
14, 50090, Control_c, 10, 7, 79
14, 50091, Control_c, 10, 7, 79
14, 50092, Control_c, 10, 7, 78
14, 50093, Control_c, 10, 7, 77
14, 50094, Control_c, 10, 7, 76
14, 50095, Control_c, 10, 7, 75
14, 50096, Control_c, 10, 7, 75
14, 50097, Control_c, 10, 7, 74
14, 50098, Control_c, 10, 7, 73
14, 50099, Control_c, 10, 7, 72
14, 50100, Control_c, 10, 7, 71
14, 50101, Control_c, 10, 7, 70
14, 50102, Control_c, 10, 7, 70
14, 50103, Control_c, 10, 7, 69
14, 50104, Control_c, 10, 7, 68
14, 50105, Control_c, 10, 7, 67
14, 50106, Control_c, 10, 7, 66
14, 50107, Control_c, 10, 7, 66
14, 50108, Control_c, 10, 7, 65
14, 50109, Control_c, 10, 7, 64
14, 50110, Control_c, 10, 7, 63
14, 50111, Control_c, 10, 7, 62
14, 50112, Note_off_c, 10, 51, 64
14, 50112, Note_off_c, 10, 27, 64
14, 50112, Note_off_c, 10, 39, 64
14, 50112, Control_c, 10, 7, 102
14, 50112, Note_on_c, 10, 39, 127
14, 50112, Note_on_c, 10, 27, 127
14, 50112, Note_on_c, 10, 51, 127
14, 50113, Control_c, 10, 7, 102
14, 50114, Control_c, 10, 7, 101
14, 50115, Control_c, 10, 7, 100
14, 50116, Control_c, 10, 7, 99
14, 50117, Control_c, 10, 7, 98
14, 50118, Control_c, 10, 7, 97
14, 50119, Control_c, 10, 7, 96
14, 50120, Control_c, 10, 7, 95
14, 50121, Control_c, 10, 7, 94
14, 50122, Control_c, 10, 7, 94
14, 50123, Control_c, 10, 7, 93
14, 50124, Control_c, 10, 7, 92
14, 50125, Control_c, 10, 7, 91
14, 50126, Control_c, 10, 7, 90
14, 50127, Control_c, 10, 7, 89
14, 50128, Control_c, 10, 7, 88
14, 50129, Control_c, 10, 7, 87
14, 50130, Control_c, 10, 7, 86
14, 50131, Control_c, 10, 7, 86
14, 50132, Control_c, 10, 7, 85
14, 50133, Control_c, 10, 7, 84
14, 50134, Control_c, 10, 7, 83
14, 50135, Control_c, 10, 7, 82
14, 50136, Control_c, 10, 7, 81
14, 50137, Control_c, 10, 7, 80
14, 50138, Control_c, 10, 7, 79
14, 50139, Control_c, 10, 7, 78
14, 50140, Control_c, 10, 7, 78
14, 50141, Control_c, 10, 7, 77
14, 50142, Control_c, 10, 7, 76
14, 50143, Control_c, 10, 7, 75
14, 50144, Control_c, 10, 7, 74
14, 50145, Control_c, 10, 7, 73
14, 50146, Control_c, 10, 7, 72
14, 50147, Control_c, 10, 7, 71
14, 50148, Control_c, 10, 7, 70
14, 50149, Control_c, 10, 7, 69
14, 50150, Control_c, 10, 7, 69
14, 50151, Control_c, 10, 7, 68
14, 50152, Control_c, 10, 7, 67
14, 50153, Control_c, 10, 7, 66
14, 50154, Control_c, 10, 7, 65
14, 50155, Control_c, 10, 7, 64
14, 50156, Control_c, 10, 7, 63
14, 50157, Control_c, 10, 7, 62
14, 50158, Control_c, 10, 7, 61
14, 50159, Control_c, 10, 7, 61
14, 50160, Note_off_c, 10, 51, 64
14, 50160, Note_off_c, 10, 27, 64
14, 50160, Note_off_c, 10, 39, 64
14, 50160, Note_on_c, 10, 39, 127
14, 50160, Note_on_c, 10, 27, 127
14, 50160, Note_on_c, 10, 51, 127
14, 50161, Control_c, 10, 7, 103
14, 50162, Control_c, 10, 7, 102
14, 50163, Control_c, 10, 7, 101
14, 50164, Control_c, 10, 7, 100
14, 50165, Control_c, 10, 7, 99
14, 50166, Control_c, 10, 7, 99
14, 50167, Control_c, 10, 7, 98
14, 50168, Control_c, 10, 7, 97
14, 50169, Control_c, 10, 7, 96
14, 50170, Control_c, 10, 7, 95
14, 50171, Control_c, 10, 7, 94
14, 50172, Control_c, 10, 7, 93
14, 50173, Control_c, 10, 7, 93
14, 50174, Control_c, 10, 7, 92
14, 50175, Control_c, 10, 7, 91
14, 50176, Control_c, 10, 7, 90
14, 50177, Control_c, 10, 7, 89
14, 50178, Control_c, 10, 7, 88
14, 50179, Control_c, 10, 7, 87
14, 50180, Control_c, 10, 7, 87
14, 50181, Control_c, 10, 7, 86
14, 50182, Control_c, 10, 7, 85
14, 50183, Control_c, 10, 7, 84
14, 50184, Control_c, 10, 7, 83
14, 50185, Control_c, 10, 7, 82
14, 50186, Control_c, 10, 7, 81
14, 50187, Control_c, 10, 7, 81
14, 50188, Control_c, 10, 7, 80
14, 50189, Control_c, 10, 7, 79
14, 50190, Control_c, 10, 7, 78
14, 50191, Control_c, 10, 7, 77
14, 50192, Control_c, 10, 7, 76
14, 50193, Control_c, 10, 7, 75
14, 50194, Control_c, 10, 7, 75
14, 50195, Control_c, 10, 7, 74
14, 50196, Control_c, 10, 7, 73
14, 50197, Control_c, 10, 7, 72
14, 50198, Control_c, 10, 7, 71
14, 50199, Control_c, 10, 7, 70
14, 50200, Control_c, 10, 7, 69
14, 50201, Control_c, 10, 7, 69
14, 50202, Control_c, 10, 7, 68
14, 50203, Control_c, 10, 7, 67
14, 50204, Control_c, 10, 7, 66
14, 50205, Control_c, 10, 7, 65
14, 50206, Control_c, 10, 7, 64
14, 50207, Control_c, 10, 7, 64
14, 50208, Note_off_c, 10, 51, 64
14, 50208, Note_off_c, 10, 27, 64
14, 50208, Note_off_c, 10, 39, 64
14, 50208, Note_on_c, 10, 39, 127
14, 50208, Note_on_c, 10, 27, 127
14, 50208, Note_on_c, 10, 51, 127
14, 50209, Control_c, 10, 7, 104
14, 50210, Control_c, 10, 7, 103
14, 50211, Control_c, 10, 7, 102
14, 50212, Control_c, 10, 7, 101
14, 50213, Control_c, 10, 7, 100
14, 50214, Control_c, 10, 7, 99
14, 50215, Control_c, 10, 7, 98
14, 50216, Control_c, 10, 7, 98
14, 50217, Control_c, 10, 7, 97
14, 50218, Control_c, 10, 7, 96
14, 50219, Control_c, 10, 7, 95
14, 50220, Control_c, 10, 7, 94
14, 50221, Control_c, 10, 7, 93
14, 50222, Control_c, 10, 7, 93
14, 50223, Control_c, 10, 7, 92
14, 50224, Control_c, 10, 7, 91
14, 50225, Control_c, 10, 7, 90
14, 50226, Control_c, 10, 7, 89
14, 50227, Control_c, 10, 7, 88
14, 50228, Control_c, 10, 7, 87
14, 50229, Control_c, 10, 7, 87
14, 50230, Control_c, 10, 7, 86
14, 50231, Control_c, 10, 7, 85
14, 50232, Control_c, 10, 7, 84
14, 50233, Control_c, 10, 7, 83
14, 50234, Control_c, 10, 7, 82
14, 50235, Control_c, 10, 7, 82
14, 50236, Control_c, 10, 7, 81
14, 50237, Control_c, 10, 7, 80
14, 50238, Control_c, 10, 7, 79
14, 50239, Control_c, 10, 7, 78
14, 50240, Control_c, 10, 7, 77
14, 50241, Control_c, 10, 7, 76
14, 50242, Control_c, 10, 7, 76
14, 50243, Control_c, 10, 7, 75
14, 50244, Control_c, 10, 7, 74
14, 50245, Control_c, 10, 7, 73
14, 50246, Control_c, 10, 7, 72
14, 50247, Control_c, 10, 7, 71
14, 50248, Control_c, 10, 7, 71
14, 50249, Control_c, 10, 7, 70
14, 50250, Control_c, 10, 7, 69
14, 50251, Control_c, 10, 7, 68
14, 50252, Control_c, 10, 7, 67
14, 50253, Control_c, 10, 7, 66
14, 50254, Control_c, 10, 7, 65
14, 50255, Control_c, 10, 7, 102
14, 50256, Note_off_c, 10, 51, 64
14, 50256, Note_off_c, 10, 27, 64
14, 50256, Note_off_c, 10, 39, 64
14, 50256, Control_c, 10, 7, 102
14, 50256, Note_on_c, 10, 39, 127
14, 50256, Note_on_c, 10, 27, 127
14, 50256, Note_on_c, 10, 51, 127
14, 50257, Control_c, 10, 7, 101
14, 50258, Control_c, 10, 7, 100
14, 50259, Control_c, 10, 7, 99
14, 50260, Control_c, 10, 7, 98
14, 50261, Control_c, 10, 7, 97
14, 50262, Control_c, 10, 7, 96
14, 50263, Control_c, 10, 7, 96
14, 50264, Control_c, 10, 7, 95
14, 50265, Control_c, 10, 7, 94
14, 50266, Control_c, 10, 7, 93
14, 50267, Control_c, 10, 7, 92
14, 50268, Control_c, 10, 7, 91
14, 50269, Control_c, 10, 7, 90
14, 50270, Control_c, 10, 7, 89
14, 50271, Control_c, 10, 7, 89
14, 50272, Control_c, 10, 7, 88
14, 50273, Control_c, 10, 7, 87
14, 50274, Control_c, 10, 7, 86
14, 50275, Control_c, 10, 7, 85
14, 50276, Control_c, 10, 7, 84
14, 50277, Control_c, 10, 7, 83
14, 50278, Control_c, 10, 7, 83
14, 50279, Control_c, 10, 7, 82
14, 50280, Control_c, 10, 7, 81
14, 50281, Control_c, 10, 7, 80
14, 50282, Control_c, 10, 7, 79
14, 50283, Control_c, 10, 7, 78
14, 50284, Control_c, 10, 7, 77
14, 50285, Control_c, 10, 7, 77
14, 50286, Control_c, 10, 7, 76
14, 50287, Control_c, 10, 7, 75
14, 50288, Control_c, 10, 7, 74
14, 50289, Control_c, 10, 7, 73
14, 50290, Control_c, 10, 7, 72
14, 50291, Control_c, 10, 7, 71
14, 50292, Control_c, 10, 7, 71
14, 50293, Control_c, 10, 7, 70
14, 50294, Control_c, 10, 7, 69
14, 50295, Control_c, 10, 7, 68
14, 50296, Control_c, 10, 7, 67
14, 50297, Control_c, 10, 7, 66
14, 50298, Control_c, 10, 7, 65
14, 50299, Control_c, 10, 7, 65
14, 50300, Control_c, 10, 7, 64
14, 50301, Control_c, 10, 7, 63
14, 50304, Note_off_c, 10, 51, 64
14, 50304, Note_off_c, 10, 27, 64
14, 50304, Note_off_c, 10, 39, 64
14, 50304, Control_c, 10, 7, 113
14, 50304, Note_on_c, 10, 39, 127
14, 50304, Note_on_c, 10, 27, 127
14, 50304, Note_on_c, 10, 51, 127
14, 50305, Control_c, 10, 7, 113
14, 50306, Control_c, 10, 7, 112
14, 50307, Control_c, 10, 7, 112
14, 50308, Control_c, 10, 7, 112
14, 50309, Control_c, 10, 7, 111
14, 50310, Control_c, 10, 7, 111
14, 50311, Control_c, 10, 7, 110
14, 50312, Control_c, 10, 7, 110
14, 50313, Control_c, 10, 7, 110
14, 50314, Control_c, 10, 7, 109
14, 50315, Control_c, 10, 7, 109
14, 50316, Control_c, 10, 7, 109
14, 50317, Control_c, 10, 7, 108
14, 50318, Control_c, 10, 7, 108
14, 50319, Control_c, 10, 7, 108
14, 50320, Control_c, 10, 7, 107
14, 50321, Control_c, 10, 7, 107
14, 50322, Control_c, 10, 7, 107
14, 50323, Control_c, 10, 7, 106
14, 50324, Control_c, 10, 7, 106
14, 50325, Control_c, 10, 7, 106
14, 50326, Control_c, 10, 7, 105
14, 50327, Control_c, 10, 7, 105
14, 50328, Control_c, 10, 7, 104
14, 50329, Control_c, 10, 7, 104
14, 50330, Control_c, 10, 7, 104
14, 50331, Control_c, 10, 7, 103
14, 50332, Control_c, 10, 7, 103
14, 50333, Control_c, 10, 7, 103
14, 50334, Control_c, 10, 7, 102
14, 50335, Control_c, 10, 7, 102
14, 50336, Control_c, 10, 7, 102
14, 50337, Control_c, 10, 7, 101
14, 50338, Control_c, 10, 7, 101
14, 50339, Control_c, 10, 7, 101
14, 50340, Control_c, 10, 7, 100
14, 50341, Control_c, 10, 7, 100
14, 50342, Control_c, 10, 7, 100
14, 50343, Control_c, 10, 7, 99
14, 50344, Control_c, 10, 7, 99
14, 50345, Control_c, 10, 7, 98
14, 50346, Control_c, 10, 7, 98
14, 50347, Control_c, 10, 7, 98
14, 50348, Control_c, 10, 7, 97
14, 50349, Control_c, 10, 7, 97
14, 50350, Control_c, 10, 7, 97
14, 50351, Control_c, 10, 7, 96
14, 50352, Control_c, 10, 7, 96
14, 50353, Control_c, 10, 7, 96
14, 50354, Control_c, 10, 7, 95
14, 50355, Control_c, 10, 7, 95
14, 50356, Control_c, 10, 7, 95
14, 50357, Control_c, 10, 7, 94
14, 50358, Control_c, 10, 7, 94
14, 50359, Control_c, 10, 7, 94
14, 50360, Control_c, 10, 7, 93
14, 50361, Control_c, 10, 7, 93
14, 50362, Control_c, 10, 7, 92
14, 50363, Control_c, 10, 7, 92
14, 50364, Control_c, 10, 7, 92
14, 50365, Control_c, 10, 7, 91
14, 50366, Control_c, 10, 7, 91
14, 50367, Control_c, 10, 7, 91
14, 50368, Control_c, 10, 7, 90
14, 50369, Control_c, 10, 7, 90
14, 50370, Control_c, 10, 7, 90
14, 50371, Control_c, 10, 7, 89
14, 50372, Control_c, 10, 7, 89
14, 50373, Control_c, 10, 7, 89
14, 50374, Control_c, 10, 7, 88
14, 50375, Control_c, 10, 7, 88
14, 50376, Control_c, 10, 7, 88
14, 50377, Control_c, 10, 7, 87
14, 50378, Control_c, 10, 7, 87
14, 50379, Control_c, 10, 7, 86
14, 50380, Control_c, 10, 7, 86
14, 50381, Control_c, 10, 7, 86
14, 50382, Control_c, 10, 7, 85
14, 50383, Control_c, 10, 7, 85
14, 50384, Control_c, 10, 7, 85
14, 50385, Control_c, 10, 7, 84
14, 50386, Control_c, 10, 7, 84
14, 50387, Control_c, 10, 7, 84
14, 50388, Control_c, 10, 7, 83
14, 50389, Control_c, 10, 7, 83
14, 50390, Control_c, 10, 7, 83
14, 50391, Control_c, 10, 7, 82
14, 50392, Control_c, 10, 7, 82
14, 50393, Control_c, 10, 7, 82
14, 50394, Control_c, 10, 7, 81
14, 50395, Control_c, 10, 7, 81
14, 50396, Control_c, 10, 7, 80
14, 50397, Control_c, 10, 7, 80
14, 50398, Control_c, 10, 7, 80
14, 50399, Control_c, 10, 7, 79
14, 50400, Control_c, 10, 7, 79
14, 50401, Control_c, 10, 7, 79
14, 50402, Control_c, 10, 7, 78
14, 50403, Control_c, 10, 7, 78
14, 50404, Control_c, 10, 7, 78
14, 50405, Control_c, 10, 7, 77
14, 50406, Control_c, 10, 7, 77
14, 50407, Control_c, 10, 7, 77
14, 50408, Control_c, 10, 7, 76
14, 50409, Control_c, 10, 7, 76
14, 50410, Control_c, 10, 7, 76
14, 50411, Control_c, 10, 7, 75
14, 50412, Control_c, 10, 7, 75
14, 50413, Control_c, 10, 7, 74
14, 50414, Control_c, 10, 7, 74
14, 50415, Control_c, 10, 7, 74
14, 50416, Control_c, 10, 7, 73
14, 50417, Control_c, 10, 7, 73
14, 50418, Control_c, 10, 7, 73
14, 50419, Control_c, 10, 7, 72
14, 50420, Control_c, 10, 7, 72
14, 50421, Control_c, 10, 7, 72
14, 50422, Control_c, 10, 7, 71
14, 50423, Control_c, 10, 7, 71
14, 50424, Control_c, 10, 7, 71
14, 50425, Control_c, 10, 7, 70
14, 50426, Control_c, 10, 7, 70
14, 50427, Control_c, 10, 7, 70
14, 50428, Control_c, 10, 7, 69
14, 50429, Control_c, 10, 7, 69
14, 50430, Control_c, 10, 7, 68
14, 50431, Control_c, 10, 7, 68
14, 50432, Control_c, 10, 7, 68
14, 50433, Control_c, 10, 7, 67
14, 50434, Control_c, 10, 7, 67
14, 50435, Control_c, 10, 7, 67
14, 50436, Control_c, 10, 7, 66
14, 50437, Control_c, 10, 7, 66
14, 50438, Control_c, 10, 7, 66
14, 50439, Control_c, 10, 7, 65
14, 50440, Control_c, 10, 7, 65
14, 50441, Control_c, 10, 7, 65
14, 50442, Control_c, 10, 7, 64
14, 50443, Control_c, 10, 7, 64
14, 50444, Control_c, 10, 7, 64
14, 50445, Control_c, 10, 7, 63
14, 50446, Control_c, 10, 7, 111
14, 50447, Control_c, 10, 7, 111
14, 50448, Note_off_c, 10, 51, 64
14, 50448, Note_off_c, 10, 27, 64
14, 50448, Note_off_c, 10, 39, 64
14, 50448, Control_c, 10, 7, 110
14, 50448, Note_on_c, 10, 39, 127
14, 50448, Note_on_c, 10, 51, 127
14, 50448, Note_on_c, 10, 27, 127
14, 50449, Control_c, 10, 7, 110
14, 50450, Control_c, 10, 7, 110
14, 50451, Control_c, 10, 7, 109
14, 50452, Control_c, 10, 7, 109
14, 50453, Control_c, 10, 7, 109
14, 50454, Control_c, 10, 7, 109
14, 50455, Control_c, 10, 7, 108
14, 50456, Control_c, 10, 7, 108
14, 50457, Control_c, 10, 7, 108
14, 50458, Control_c, 10, 7, 107
14, 50459, Control_c, 10, 7, 107
14, 50460, Control_c, 10, 7, 107
14, 50461, Control_c, 10, 7, 106
14, 50462, Control_c, 10, 7, 106
14, 50463, Control_c, 10, 7, 106
14, 50464, Control_c, 10, 7, 105
14, 50465, Control_c, 10, 7, 105
14, 50466, Control_c, 10, 7, 105
14, 50467, Control_c, 10, 7, 104
14, 50468, Control_c, 10, 7, 104
14, 50469, Control_c, 10, 7, 104
14, 50470, Control_c, 10, 7, 103
14, 50471, Control_c, 10, 7, 103
14, 50472, Control_c, 10, 7, 103
14, 50473, Control_c, 10, 7, 102
14, 50474, Control_c, 10, 7, 102
14, 50475, Control_c, 10, 7, 102
14, 50476, Control_c, 10, 7, 101
14, 50477, Control_c, 10, 7, 101
14, 50478, Control_c, 10, 7, 101
14, 50479, Control_c, 10, 7, 100
14, 50480, Control_c, 10, 7, 100
14, 50481, Control_c, 10, 7, 100
14, 50482, Control_c, 10, 7, 99
14, 50483, Control_c, 10, 7, 99
14, 50484, Control_c, 10, 7, 99
14, 50485, Control_c, 10, 7, 98
14, 50486, Control_c, 10, 7, 98
14, 50487, Control_c, 10, 7, 98
14, 50488, Control_c, 10, 7, 97
14, 50489, Control_c, 10, 7, 97
14, 50490, Control_c, 10, 7, 97
14, 50491, Control_c, 10, 7, 96
14, 50492, Control_c, 10, 7, 96
14, 50493, Control_c, 10, 7, 96
14, 50494, Control_c, 10, 7, 95
14, 50495, Control_c, 10, 7, 95
14, 50496, Control_c, 10, 7, 95
14, 50497, Control_c, 10, 7, 94
14, 50498, Control_c, 10, 7, 94
14, 50499, Control_c, 10, 7, 94
14, 50500, Control_c, 10, 7, 93
14, 50501, Control_c, 10, 7, 93
14, 50502, Control_c, 10, 7, 93
14, 50503, Control_c, 10, 7, 92
14, 50504, Control_c, 10, 7, 92
14, 50505, Control_c, 10, 7, 92
14, 50506, Control_c, 10, 7, 91
14, 50507, Control_c, 10, 7, 91
14, 50508, Control_c, 10, 7, 91
14, 50509, Control_c, 10, 7, 90
14, 50510, Control_c, 10, 7, 90
14, 50511, Control_c, 10, 7, 90
14, 50512, Control_c, 10, 7, 89
14, 50513, Control_c, 10, 7, 89
14, 50514, Control_c, 10, 7, 89
14, 50515, Control_c, 10, 7, 88
14, 50516, Control_c, 10, 7, 88
14, 50517, Control_c, 10, 7, 88
14, 50518, Control_c, 10, 7, 87
14, 50519, Control_c, 10, 7, 87
14, 50520, Control_c, 10, 7, 87
14, 50521, Control_c, 10, 7, 86
14, 50522, Control_c, 10, 7, 86
14, 50523, Control_c, 10, 7, 86
14, 50524, Control_c, 10, 7, 85
14, 50525, Control_c, 10, 7, 85
14, 50526, Control_c, 10, 7, 85
14, 50527, Control_c, 10, 7, 84
14, 50528, Control_c, 10, 7, 84
14, 50529, Control_c, 10, 7, 84
14, 50530, Control_c, 10, 7, 83
14, 50531, Control_c, 10, 7, 83
14, 50532, Control_c, 10, 7, 83
14, 50533, Control_c, 10, 7, 82
14, 50534, Control_c, 10, 7, 82
14, 50535, Control_c, 10, 7, 82
14, 50536, Control_c, 10, 7, 81
14, 50537, Control_c, 10, 7, 81
14, 50538, Control_c, 10, 7, 81
14, 50539, Control_c, 10, 7, 80
14, 50540, Control_c, 10, 7, 80
14, 50541, Control_c, 10, 7, 80
14, 50542, Control_c, 10, 7, 79
14, 50543, Control_c, 10, 7, 79
14, 50544, Control_c, 10, 7, 79
14, 50545, Control_c, 10, 7, 78
14, 50546, Control_c, 10, 7, 78
14, 50547, Control_c, 10, 7, 78
14, 50548, Control_c, 10, 7, 77
14, 50549, Control_c, 10, 7, 77
14, 50550, Control_c, 10, 7, 77
14, 50551, Control_c, 10, 7, 76
14, 50552, Control_c, 10, 7, 76
14, 50553, Control_c, 10, 7, 76
14, 50554, Control_c, 10, 7, 75
14, 50555, Control_c, 10, 7, 75
14, 50556, Control_c, 10, 7, 75
14, 50557, Control_c, 10, 7, 74
14, 50558, Control_c, 10, 7, 74
14, 50559, Control_c, 10, 7, 74
14, 50560, Control_c, 10, 7, 73
14, 50561, Control_c, 10, 7, 73
14, 50562, Control_c, 10, 7, 73
14, 50563, Control_c, 10, 7, 72
14, 50564, Control_c, 10, 7, 72
14, 50565, Control_c, 10, 7, 72
14, 50566, Control_c, 10, 7, 71
14, 50567, Control_c, 10, 7, 71
14, 50568, Control_c, 10, 7, 71
14, 50569, Control_c, 10, 7, 70
14, 50570, Control_c, 10, 7, 70
14, 50571, Control_c, 10, 7, 70
14, 50572, Control_c, 10, 7, 69
14, 50573, Control_c, 10, 7, 69
14, 50574, Control_c, 10, 7, 69
14, 50575, Control_c, 10, 7, 68
14, 50576, Control_c, 10, 7, 68
14, 50577, Control_c, 10, 7, 68
14, 50578, Control_c, 10, 7, 67
14, 50579, Control_c, 10, 7, 67
14, 50580, Control_c, 10, 7, 67
14, 50581, Control_c, 10, 7, 66
14, 50582, Control_c, 10, 7, 66
14, 50583, Control_c, 10, 7, 66
14, 50584, Control_c, 10, 7, 65
14, 50585, Control_c, 10, 7, 65
14, 50586, Control_c, 10, 7, 65
14, 50587, Control_c, 10, 7, 64
14, 50588, Control_c, 10, 7, 64
14, 50589, Control_c, 10, 7, 64
14, 50590, Control_c, 10, 7, 63
14, 50591, Control_c, 10, 7, 63
14, 50592, Note_off_c, 10, 27, 64
14, 50592, Note_off_c, 10, 51, 64
14, 50592, Note_off_c, 10, 39, 64
14, 50592, Control_c, 10, 7, 64
14, 50592, Note_on_c, 10, 39, 127
14, 50592, Note_on_c, 10, 51, 127
14, 50592, Note_on_c, 10, 27, 127
14, 50593, Control_c, 10, 7, 64
14, 50594, Control_c, 10, 7, 65
14, 50595, Control_c, 10, 7, 65
14, 50596, Control_c, 10, 7, 66
14, 50597, Control_c, 10, 7, 66
14, 50598, Control_c, 10, 7, 67
14, 50599, Control_c, 10, 7, 67
14, 50600, Control_c, 10, 7, 68
14, 50601, Control_c, 10, 7, 68
14, 50602, Control_c, 10, 7, 69
14, 50603, Control_c, 10, 7, 69
14, 50604, Control_c, 10, 7, 70
14, 50605, Control_c, 10, 7, 70
14, 50606, Control_c, 10, 7, 71
14, 50607, Control_c, 10, 7, 71
14, 50608, Control_c, 10, 7, 72
14, 50609, Control_c, 10, 7, 72
14, 50610, Control_c, 10, 7, 73
14, 50611, Control_c, 10, 7, 73
14, 50612, Control_c, 10, 7, 74
14, 50613, Control_c, 10, 7, 74
14, 50614, Control_c, 10, 7, 75
14, 50615, Control_c, 10, 7, 75
14, 50616, Control_c, 10, 7, 76
14, 50617, Control_c, 10, 7, 76
14, 50618, Control_c, 10, 7, 77
14, 50619, Control_c, 10, 7, 77
14, 50620, Control_c, 10, 7, 78
14, 50621, Control_c, 10, 7, 78
14, 50622, Control_c, 10, 7, 79
14, 50623, Control_c, 10, 7, 79
14, 50624, Control_c, 10, 7, 80
14, 50625, Control_c, 10, 7, 80
14, 50626, Control_c, 10, 7, 81
14, 50627, Control_c, 10, 7, 81
14, 50628, Control_c, 10, 7, 82
14, 50629, Control_c, 10, 7, 82
14, 50630, Control_c, 10, 7, 83
14, 50631, Control_c, 10, 7, 83
14, 50632, Control_c, 10, 7, 84
14, 50633, Control_c, 10, 7, 84
14, 50634, Control_c, 10, 7, 85
14, 50635, Control_c, 10, 7, 85
14, 50636, Control_c, 10, 7, 86
14, 50637, Control_c, 10, 7, 86
14, 50638, Control_c, 10, 7, 87
14, 50639, Control_c, 10, 7, 87
14, 50640, Control_c, 10, 7, 88
14, 50641, Control_c, 10, 7, 88
14, 50642, Control_c, 10, 7, 89
14, 50643, Control_c, 10, 7, 89
14, 50644, Control_c, 10, 7, 90
14, 50645, Control_c, 10, 7, 90
14, 50646, Control_c, 10, 7, 91
14, 50647, Control_c, 10, 7, 91
14, 50648, Control_c, 10, 7, 92
14, 50649, Control_c, 10, 7, 92
14, 50650, Control_c, 10, 7, 93
14, 50651, Control_c, 10, 7, 93
14, 50652, Control_c, 10, 7, 94
14, 50653, Control_c, 10, 7, 94
14, 50654, Control_c, 10, 7, 95
14, 50655, Control_c, 10, 7, 95
14, 50656, Control_c, 10, 7, 96
14, 50657, Control_c, 10, 7, 96
14, 50658, Control_c, 10, 7, 97
14, 50659, Control_c, 10, 7, 97
14, 50660, Control_c, 10, 7, 98
14, 50661, Control_c, 10, 7, 98
14, 50662, Control_c, 10, 7, 99
14, 50663, Control_c, 10, 7, 99
14, 50664, Control_c, 10, 7, 100
14, 50665, Control_c, 10, 7, 100
14, 50666, Control_c, 10, 7, 101
14, 50667, Control_c, 10, 7, 101
14, 50668, Control_c, 10, 7, 102
14, 50669, Control_c, 10, 7, 102
14, 50670, Control_c, 10, 7, 103
14, 50671, Control_c, 10, 7, 103
14, 50672, Control_c, 10, 7, 104
14, 50673, Control_c, 10, 7, 104
14, 50674, Control_c, 10, 7, 105
14, 50675, Control_c, 10, 7, 105
14, 50676, Control_c, 10, 7, 106
14, 50677, Control_c, 10, 7, 106
14, 50678, Control_c, 10, 7, 107
14, 50679, Control_c, 10, 7, 107
14, 50680, Control_c, 10, 7, 108
14, 50681, Control_c, 10, 7, 108
14, 50682, Control_c, 10, 7, 109
14, 50683, Control_c, 10, 7, 109
14, 50684, Control_c, 10, 7, 110
14, 50685, Control_c, 10, 7, 110
14, 50686, Control_c, 10, 7, 111
14, 50687, Control_c, 10, 7, 111
14, 50688, Note_off_c, 10, 27, 64
14, 50688, Note_off_c, 10, 51, 64
14, 50688, Note_off_c, 10, 39, 64
14, 50688, Control_c, 10, 7, 112
14, 50688, Note_on_c, 10, 39, 127
14, 50688, Note_on_c, 10, 51, 127
14, 50688, Note_on_c, 10, 27, 127
14, 50689, Control_c, 10, 7, 64
14, 50690, Control_c, 10, 7, 65
14, 50691, Control_c, 10, 7, 66
14, 50692, Control_c, 10, 7, 67
14, 50693, Control_c, 10, 7, 68
14, 50694, Control_c, 10, 7, 69
14, 50695, Control_c, 10, 7, 69
14, 50696, Control_c, 10, 7, 70
14, 50697, Control_c, 10, 7, 71
14, 50698, Control_c, 10, 7, 72
14, 50699, Control_c, 10, 7, 73
14, 50700, Control_c, 10, 7, 74
14, 50701, Control_c, 10, 7, 75
14, 50702, Control_c, 10, 7, 76
14, 50703, Control_c, 10, 7, 77
14, 50704, Control_c, 10, 7, 78
14, 50705, Control_c, 10, 7, 79
14, 50706, Control_c, 10, 7, 80
14, 50707, Control_c, 10, 7, 81
14, 50708, Control_c, 10, 7, 82
14, 50709, Control_c, 10, 7, 83
14, 50710, Control_c, 10, 7, 85
14, 50711, Control_c, 10, 7, 86
14, 50712, Control_c, 10, 7, 87
14, 50713, Control_c, 10, 7, 88
14, 50714, Control_c, 10, 7, 89
14, 50715, Control_c, 10, 7, 90
14, 50716, Control_c, 10, 7, 91
14, 50717, Control_c, 10, 7, 92
14, 50718, Control_c, 10, 7, 93
14, 50719, Control_c, 10, 7, 94
14, 50720, Control_c, 10, 7, 95
14, 50721, Control_c, 10, 7, 96
14, 50722, Control_c, 10, 7, 97
14, 50723, Control_c, 10, 7, 98
14, 50724, Control_c, 10, 7, 99
14, 50725, Control_c, 10, 7, 100
14, 50726, Control_c, 10, 7, 102
14, 50727, Control_c, 10, 7, 103
14, 50728, Control_c, 10, 7, 104
14, 50729, Control_c, 10, 7, 105
14, 50730, Control_c, 10, 7, 106
14, 50731, Control_c, 10, 7, 107
14, 50732, Control_c, 10, 7, 108
14, 50733, Control_c, 10, 7, 109
14, 50734, Control_c, 10, 7, 110
14, 50735, Control_c, 10, 7, 111
14, 50736, Note_off_c, 10, 51, 64
14, 50736, Note_off_c, 10, 27, 64
14, 50736, Note_off_c, 10, 39, 64
14, 50736, Control_c, 10, 7, 65
14, 50736, Note_on_c, 10, 39, 127
14, 50736, Note_on_c, 10, 51, 127
14, 50736, Note_on_c, 10, 27, 127
14, 50737, Control_c, 10, 7, 66
14, 50738, Control_c, 10, 7, 67
14, 50739, Control_c, 10, 7, 67
14, 50740, Control_c, 10, 7, 68
14, 50741, Control_c, 10, 7, 69
14, 50742, Control_c, 10, 7, 70
14, 50743, Control_c, 10, 7, 71
14, 50744, Control_c, 10, 7, 72
14, 50745, Control_c, 10, 7, 73
14, 50746, Control_c, 10, 7, 74
14, 50747, Control_c, 10, 7, 75
14, 50748, Control_c, 10, 7, 76
14, 50749, Control_c, 10, 7, 77
14, 50750, Control_c, 10, 7, 78
14, 50751, Control_c, 10, 7, 79
14, 50752, Control_c, 10, 7, 80
14, 50753, Control_c, 10, 7, 81
14, 50754, Control_c, 10, 7, 82
14, 50755, Control_c, 10, 7, 83
14, 50756, Control_c, 10, 7, 84
14, 50757, Control_c, 10, 7, 85
14, 50758, Control_c, 10, 7, 86
14, 50759, Control_c, 10, 7, 87
14, 50760, Control_c, 10, 7, 88
14, 50761, Control_c, 10, 7, 89
14, 50762, Control_c, 10, 7, 89
14, 50763, Control_c, 10, 7, 90
14, 50764, Control_c, 10, 7, 91
14, 50765, Control_c, 10, 7, 92
14, 50766, Control_c, 10, 7, 93
14, 50767, Control_c, 10, 7, 94
14, 50768, Control_c, 10, 7, 95
14, 50769, Control_c, 10, 7, 96
14, 50770, Control_c, 10, 7, 97
14, 50771, Control_c, 10, 7, 98
14, 50772, Control_c, 10, 7, 99
14, 50773, Control_c, 10, 7, 100
14, 50774, Control_c, 10, 7, 101
14, 50775, Control_c, 10, 7, 102
14, 50776, Control_c, 10, 7, 103
14, 50777, Control_c, 10, 7, 104
14, 50778, Control_c, 10, 7, 105
14, 50779, Control_c, 10, 7, 106
14, 50780, Control_c, 10, 7, 107
14, 50781, Control_c, 10, 7, 108
14, 50782, Control_c, 10, 7, 109
14, 50783, Control_c, 10, 7, 110
14, 50784, Note_off_c, 10, 27, 64
14, 50784, Note_off_c, 10, 51, 64
14, 50784, Note_off_c, 10, 39, 64
14, 50784, Control_c, 10, 7, 64
14, 50784, Note_on_c, 10, 39, 127
14, 50784, Note_on_c, 10, 51, 127
14, 50784, Note_on_c, 10, 27, 127
14, 50785, Control_c, 10, 7, 65
14, 50786, Control_c, 10, 7, 65
14, 50787, Control_c, 10, 7, 66
14, 50788, Control_c, 10, 7, 67
14, 50789, Control_c, 10, 7, 68
14, 50790, Control_c, 10, 7, 69
14, 50791, Control_c, 10, 7, 70
14, 50792, Control_c, 10, 7, 70
14, 50793, Control_c, 10, 7, 71
14, 50794, Control_c, 10, 7, 72
14, 50795, Control_c, 10, 7, 73
14, 50796, Control_c, 10, 7, 74
14, 50797, Control_c, 10, 7, 75
14, 50798, Control_c, 10, 7, 76
14, 50799, Control_c, 10, 7, 77
14, 50800, Control_c, 10, 7, 78
14, 50801, Control_c, 10, 7, 79
14, 50802, Control_c, 10, 7, 80
14, 50803, Control_c, 10, 7, 81
14, 50804, Control_c, 10, 7, 82
14, 50805, Control_c, 10, 7, 83
14, 50806, Control_c, 10, 7, 84
14, 50807, Control_c, 10, 7, 85
14, 50808, Control_c, 10, 7, 86
14, 50809, Control_c, 10, 7, 88
14, 50810, Control_c, 10, 7, 89
14, 50811, Control_c, 10, 7, 90
14, 50812, Control_c, 10, 7, 91
14, 50813, Control_c, 10, 7, 92
14, 50814, Control_c, 10, 7, 93
14, 50815, Control_c, 10, 7, 94
14, 50816, Control_c, 10, 7, 95
14, 50817, Control_c, 10, 7, 96
14, 50818, Control_c, 10, 7, 97
14, 50819, Control_c, 10, 7, 98
14, 50820, Control_c, 10, 7, 99
14, 50821, Control_c, 10, 7, 100
14, 50822, Control_c, 10, 7, 101
14, 50823, Control_c, 10, 7, 102
14, 50824, Control_c, 10, 7, 103
14, 50825, Control_c, 10, 7, 104
14, 50826, Control_c, 10, 7, 105
14, 50827, Control_c, 10, 7, 106
14, 50828, Control_c, 10, 7, 107
14, 50829, Control_c, 10, 7, 108
14, 50830, Control_c, 10, 7, 109
14, 50831, Control_c, 10, 7, 110
14, 50832, Note_off_c, 10, 27, 64
14, 50832, Note_off_c, 10, 51, 64
14, 50832, Note_off_c, 10, 39, 64
14, 50832, Control_c, 10, 7, 66
14, 50832, Note_on_c, 10, 39, 127
14, 50832, Note_on_c, 10, 51, 127
14, 50832, Note_on_c, 10, 27, 127
14, 50833, Control_c, 10, 7, 67
14, 50834, Control_c, 10, 7, 68
14, 50835, Control_c, 10, 7, 69
14, 50836, Control_c, 10, 7, 69
14, 50837, Control_c, 10, 7, 70
14, 50838, Control_c, 10, 7, 71
14, 50839, Control_c, 10, 7, 72
14, 50840, Control_c, 10, 7, 73
14, 50841, Control_c, 10, 7, 74
14, 50842, Control_c, 10, 7, 75
14, 50843, Control_c, 10, 7, 76
14, 50844, Control_c, 10, 7, 77
14, 50845, Control_c, 10, 7, 77
14, 50846, Control_c, 10, 7, 78
14, 50847, Control_c, 10, 7, 79
14, 50848, Control_c, 10, 7, 80
14, 50849, Control_c, 10, 7, 81
14, 50850, Control_c, 10, 7, 82
14, 50851, Control_c, 10, 7, 83
14, 50852, Control_c, 10, 7, 84
14, 50853, Control_c, 10, 7, 84
14, 50854, Control_c, 10, 7, 85
14, 50855, Control_c, 10, 7, 86
14, 50856, Control_c, 10, 7, 87
14, 50857, Control_c, 10, 7, 88
14, 50858, Control_c, 10, 7, 89
14, 50859, Control_c, 10, 7, 90
14, 50860, Control_c, 10, 7, 91
14, 50861, Control_c, 10, 7, 91
14, 50862, Control_c, 10, 7, 92
14, 50863, Control_c, 10, 7, 93
14, 50864, Control_c, 10, 7, 94
14, 50865, Control_c, 10, 7, 95
14, 50866, Control_c, 10, 7, 96
14, 50867, Control_c, 10, 7, 97
14, 50868, Control_c, 10, 7, 98
14, 50869, Control_c, 10, 7, 98
14, 50870, Control_c, 10, 7, 99
14, 50871, Control_c, 10, 7, 100
14, 50872, Control_c, 10, 7, 101
14, 50873, Control_c, 10, 7, 102
14, 50874, Control_c, 10, 7, 103
14, 50875, Control_c, 10, 7, 104
14, 50876, Control_c, 10, 7, 104
14, 50877, Control_c, 10, 7, 105
14, 50878, Control_c, 10, 7, 106
14, 50879, Control_c, 10, 7, 107
14, 50880, Note_off_c, 10, 27, 64
14, 50880, Note_off_c, 10, 51, 64
14, 50880, Note_off_c, 10, 39, 64
14, 50880, Control_c, 10, 7, 67
14, 50880, Note_on_c, 10, 39, 127
14, 50880, Note_on_c, 10, 51, 127
14, 50880, Note_on_c, 10, 27, 127
14, 50881, Control_c, 10, 7, 68
14, 50882, Control_c, 10, 7, 69
14, 50883, Control_c, 10, 7, 70
14, 50884, Control_c, 10, 7, 71
14, 50885, Control_c, 10, 7, 72
14, 50886, Control_c, 10, 7, 73
14, 50887, Control_c, 10, 7, 74
14, 50888, Control_c, 10, 7, 75
14, 50889, Control_c, 10, 7, 75
14, 50890, Control_c, 10, 7, 76
14, 50891, Control_c, 10, 7, 77
14, 50892, Control_c, 10, 7, 78
14, 50893, Control_c, 10, 7, 79
14, 50894, Control_c, 10, 7, 80
14, 50895, Control_c, 10, 7, 81
14, 50896, Control_c, 10, 7, 82
14, 50897, Control_c, 10, 7, 83
14, 50898, Control_c, 10, 7, 84
14, 50899, Control_c, 10, 7, 85
14, 50900, Control_c, 10, 7, 86
14, 50901, Control_c, 10, 7, 87
14, 50902, Control_c, 10, 7, 88
14, 50903, Control_c, 10, 7, 89
14, 50904, Control_c, 10, 7, 90
14, 50905, Control_c, 10, 7, 90
14, 50906, Control_c, 10, 7, 91
14, 50907, Control_c, 10, 7, 92
14, 50908, Control_c, 10, 7, 93
14, 50909, Control_c, 10, 7, 94
14, 50910, Control_c, 10, 7, 95
14, 50911, Control_c, 10, 7, 96
14, 50912, Control_c, 10, 7, 97
14, 50913, Control_c, 10, 7, 98
14, 50914, Control_c, 10, 7, 99
14, 50915, Control_c, 10, 7, 100
14, 50916, Control_c, 10, 7, 101
14, 50917, Control_c, 10, 7, 102
14, 50918, Control_c, 10, 7, 103
14, 50919, Control_c, 10, 7, 104
14, 50920, Control_c, 10, 7, 105
14, 50921, Control_c, 10, 7, 106
14, 50922, Control_c, 10, 7, 106
14, 50923, Control_c, 10, 7, 107
14, 50924, Control_c, 10, 7, 108
14, 50925, Control_c, 10, 7, 109
14, 50926, Control_c, 10, 7, 110
14, 50927, Control_c, 10, 7, 111
14, 50928, Note_off_c, 10, 27, 64
14, 50928, Note_off_c, 10, 51, 64
14, 50928, Note_off_c, 10, 39, 64
14, 50928, Control_c, 10, 7, 61
14, 50928, Note_on_c, 10, 39, 127
14, 50928, Note_on_c, 10, 51, 127
14, 50928, Note_on_c, 10, 27, 127
14, 50929, Control_c, 10, 7, 62
14, 50930, Control_c, 10, 7, 63
14, 50931, Control_c, 10, 7, 64
14, 50932, Control_c, 10, 7, 65
14, 50933, Control_c, 10, 7, 66
14, 50934, Control_c, 10, 7, 67
14, 50935, Control_c, 10, 7, 68
14, 50936, Control_c, 10, 7, 70
14, 50937, Control_c, 10, 7, 71
14, 50938, Control_c, 10, 7, 72
14, 50939, Control_c, 10, 7, 73
14, 50940, Control_c, 10, 7, 74
14, 50941, Control_c, 10, 7, 75
14, 50942, Control_c, 10, 7, 76
14, 50943, Control_c, 10, 7, 78
14, 50944, Control_c, 10, 7, 79
14, 50945, Control_c, 10, 7, 80
14, 50946, Control_c, 10, 7, 81
14, 50947, Control_c, 10, 7, 82
14, 50948, Control_c, 10, 7, 83
14, 50949, Control_c, 10, 7, 84
14, 50950, Control_c, 10, 7, 85
14, 50951, Control_c, 10, 7, 87
14, 50952, Control_c, 10, 7, 88
14, 50953, Control_c, 10, 7, 89
14, 50954, Control_c, 10, 7, 90
14, 50955, Control_c, 10, 7, 91
14, 50956, Control_c, 10, 7, 92
14, 50957, Control_c, 10, 7, 93
14, 50958, Control_c, 10, 7, 95
14, 50959, Control_c, 10, 7, 96
14, 50960, Control_c, 10, 7, 97
14, 50961, Control_c, 10, 7, 98
14, 50962, Control_c, 10, 7, 99
14, 50963, Control_c, 10, 7, 100
14, 50964, Control_c, 10, 7, 101
14, 50965, Control_c, 10, 7, 102
14, 50966, Control_c, 10, 7, 104
14, 50967, Control_c, 10, 7, 105
14, 50968, Control_c, 10, 7, 106
14, 50969, Control_c, 10, 7, 107
14, 50970, Control_c, 10, 7, 108
14, 50971, Control_c, 10, 7, 110
14, 50972, Control_c, 10, 7, 111
14, 50973, Control_c, 10, 7, 112
14, 50974, Control_c, 10, 7, 113
14, 50975, Control_c, 10, 7, 114
14, 50976, Note_off_c, 10, 27, 64
14, 50976, Note_off_c, 10, 51, 64
14, 50976, Note_off_c, 10, 39, 64
14, 50976, Control_c, 10, 7, 65
14, 50976, Note_on_c, 10, 39, 127
14, 50976, Note_on_c, 10, 51, 127
14, 50976, Note_on_c, 10, 27, 127
14, 50977, Control_c, 10, 7, 66
14, 50978, Control_c, 10, 7, 67
14, 50979, Control_c, 10, 7, 68
14, 50980, Control_c, 10, 7, 70
14, 50981, Control_c, 10, 7, 71
14, 50982, Control_c, 10, 7, 72
14, 50983, Control_c, 10, 7, 73
14, 50984, Control_c, 10, 7, 74
14, 50985, Control_c, 10, 7, 75
14, 50986, Control_c, 10, 7, 76
14, 50987, Control_c, 10, 7, 77
14, 50988, Control_c, 10, 7, 78
14, 50989, Control_c, 10, 7, 79
14, 50990, Control_c, 10, 7, 80
14, 50991, Control_c, 10, 7, 81
14, 50992, Control_c, 10, 7, 82
14, 50993, Control_c, 10, 7, 83
14, 50994, Control_c, 10, 7, 84
14, 50995, Control_c, 10, 7, 85
14, 50996, Control_c, 10, 7, 86
14, 50997, Control_c, 10, 7, 88
14, 50998, Control_c, 10, 7, 89
14, 50999, Control_c, 10, 7, 90
14, 51000, Control_c, 10, 7, 91
14, 51001, Control_c, 10, 7, 92
14, 51002, Control_c, 10, 7, 93
14, 51003, Control_c, 10, 7, 94
14, 51004, Control_c, 10, 7, 95
14, 51005, Control_c, 10, 7, 96
14, 51006, Control_c, 10, 7, 97
14, 51007, Control_c, 10, 7, 98
14, 51008, Control_c, 10, 7, 99
14, 51009, Control_c, 10, 7, 100
14, 51010, Control_c, 10, 7, 101
14, 51011, Control_c, 10, 7, 102
14, 51012, Control_c, 10, 7, 103
14, 51013, Control_c, 10, 7, 105
14, 51014, Control_c, 10, 7, 106
14, 51015, Control_c, 10, 7, 107
14, 51016, Control_c, 10, 7, 108
14, 51017, Control_c, 10, 7, 109
14, 51018, Control_c, 10, 7, 109
14, 51019, Control_c, 10, 7, 110
14, 51020, Control_c, 10, 7, 112
14, 51021, Control_c, 10, 7, 113
14, 51022, Control_c, 10, 7, 114
14, 51023, Control_c, 10, 7, 115
14, 51024, Note_off_c, 10, 27, 64
14, 51024, Note_off_c, 10, 51, 64
14, 51024, Note_off_c, 10, 39, 64
14, 51024, Control_c, 10, 7, 67
14, 51024, Note_on_c, 10, 39, 127
14, 51024, Note_on_c, 10, 51, 127
14, 51024, Note_on_c, 10, 27, 127
14, 51025, Control_c, 10, 7, 68
14, 51026, Control_c, 10, 7, 69
14, 51027, Control_c, 10, 7, 70
14, 51028, Control_c, 10, 7, 71
14, 51029, Control_c, 10, 7, 71
14, 51030, Control_c, 10, 7, 72
14, 51031, Control_c, 10, 7, 73
14, 51032, Control_c, 10, 7, 74
14, 51033, Control_c, 10, 7, 75
14, 51034, Control_c, 10, 7, 76
14, 51035, Control_c, 10, 7, 77
14, 51036, Control_c, 10, 7, 78
14, 51037, Control_c, 10, 7, 79
14, 51038, Control_c, 10, 7, 80
14, 51039, Control_c, 10, 7, 81
14, 51040, Control_c, 10, 7, 82
14, 51041, Control_c, 10, 7, 83
14, 51042, Control_c, 10, 7, 84
14, 51043, Control_c, 10, 7, 85
14, 51044, Control_c, 10, 7, 86
14, 51045, Control_c, 10, 7, 87
14, 51046, Control_c, 10, 7, 88
14, 51047, Control_c, 10, 7, 89
14, 51048, Control_c, 10, 7, 90
14, 51049, Control_c, 10, 7, 91
14, 51050, Control_c, 10, 7, 92
14, 51051, Control_c, 10, 7, 93
14, 51052, Control_c, 10, 7, 94
14, 51053, Control_c, 10, 7, 95
14, 51054, Control_c, 10, 7, 96
14, 51055, Control_c, 10, 7, 97
14, 51056, Control_c, 10, 7, 98
14, 51057, Control_c, 10, 7, 99
14, 51058, Control_c, 10, 7, 100
14, 51059, Control_c, 10, 7, 101
14, 51060, Control_c, 10, 7, 102
14, 51061, Control_c, 10, 7, 103
14, 51062, Control_c, 10, 7, 104
14, 51063, Control_c, 10, 7, 104
14, 51064, Control_c, 10, 7, 105
14, 51065, Control_c, 10, 7, 106
14, 51066, Control_c, 10, 7, 107
14, 51067, Control_c, 10, 7, 108
14, 51068, Control_c, 10, 7, 109
14, 51069, Control_c, 10, 7, 110
14, 51070, Control_c, 10, 7, 111
14, 51071, Control_c, 10, 7, 112
14, 51072, Note_off_c, 10, 27, 64
14, 51072, Note_off_c, 10, 51, 64
14, 51072, Note_off_c, 10, 39, 64
14, 51072, Control_c, 10, 7, 50
14, 51072, Note_on_c, 10, 41, 127
14, 51072, Note_on_c, 10, 29, 127
14, 51072, Note_on_c, 10, 53, 127
14, 51074, Control_c, 10, 7, 50
14, 51075, Control_c, 10, 7, 51
14, 51076, Control_c, 10, 7, 51
14, 51077, Control_c, 10, 7, 52
14, 51078, Control_c, 10, 7, 52
14, 51079, Control_c, 10, 7, 52
14, 51080, Control_c, 10, 7, 53
14, 51081, Control_c, 10, 7, 53
14, 51082, Control_c, 10, 7, 54
14, 51083, Control_c, 10, 7, 54
14, 51084, Control_c, 10, 7, 54
14, 51085, Control_c, 10, 7, 55
14, 51086, Control_c, 10, 7, 55
14, 51087, Control_c, 10, 7, 55
14, 51088, Control_c, 10, 7, 56
14, 51089, Control_c, 10, 7, 56
14, 51090, Control_c, 10, 7, 57
14, 51091, Control_c, 10, 7, 57
14, 51092, Control_c, 10, 7, 57
14, 51093, Control_c, 10, 7, 58
14, 51094, Control_c, 10, 7, 58
14, 51095, Control_c, 10, 7, 59
14, 51096, Control_c, 10, 7, 59
14, 51097, Control_c, 10, 7, 59
14, 51098, Control_c, 10, 7, 60
14, 51099, Control_c, 10, 7, 60
14, 51100, Control_c, 10, 7, 61
14, 51101, Control_c, 10, 7, 61
14, 51102, Control_c, 10, 7, 61
14, 51103, Control_c, 10, 7, 62
14, 51104, Control_c, 10, 7, 62
14, 51105, Control_c, 10, 7, 62
14, 51106, Control_c, 10, 7, 63
14, 51107, Control_c, 10, 7, 63
14, 51108, Control_c, 10, 7, 64
14, 51109, Control_c, 10, 7, 64
14, 51110, Control_c, 10, 7, 64
14, 51111, Control_c, 10, 7, 65
14, 51112, Control_c, 10, 7, 65
14, 51113, Control_c, 10, 7, 66
14, 51114, Control_c, 10, 7, 66
14, 51115, Control_c, 10, 7, 66
14, 51116, Control_c, 10, 7, 67
14, 51117, Control_c, 10, 7, 67
14, 51118, Control_c, 10, 7, 68
14, 51119, Control_c, 10, 7, 68
14, 51120, Control_c, 10, 7, 68
14, 51121, Control_c, 10, 7, 69
14, 51122, Control_c, 10, 7, 69
14, 51123, Control_c, 10, 7, 69
14, 51124, Control_c, 10, 7, 70
14, 51125, Control_c, 10, 7, 70
14, 51126, Control_c, 10, 7, 71
14, 51127, Control_c, 10, 7, 71
14, 51128, Control_c, 10, 7, 71
14, 51129, Control_c, 10, 7, 72
14, 51130, Control_c, 10, 7, 72
14, 51131, Control_c, 10, 7, 73
14, 51132, Control_c, 10, 7, 73
14, 51133, Control_c, 10, 7, 73
14, 51134, Control_c, 10, 7, 74
14, 51135, Control_c, 10, 7, 74
14, 51136, Control_c, 10, 7, 75
14, 51137, Control_c, 10, 7, 75
14, 51138, Control_c, 10, 7, 75
14, 51139, Control_c, 10, 7, 76
14, 51140, Control_c, 10, 7, 76
14, 51141, Control_c, 10, 7, 76
14, 51142, Control_c, 10, 7, 77
14, 51143, Control_c, 10, 7, 77
14, 51144, Control_c, 10, 7, 78
14, 51145, Control_c, 10, 7, 78
14, 51146, Control_c, 10, 7, 78
14, 51147, Control_c, 10, 7, 79
14, 51148, Control_c, 10, 7, 79
14, 51149, Control_c, 10, 7, 80
14, 51150, Control_c, 10, 7, 80
14, 51151, Control_c, 10, 7, 80
14, 51152, Control_c, 10, 7, 81
14, 51153, Control_c, 10, 7, 81
14, 51154, Control_c, 10, 7, 82
14, 51155, Control_c, 10, 7, 82
14, 51156, Control_c, 10, 7, 82
14, 51157, Control_c, 10, 7, 83
14, 51158, Control_c, 10, 7, 83
14, 51159, Control_c, 10, 7, 83
14, 51160, Control_c, 10, 7, 84
14, 51161, Control_c, 10, 7, 84
14, 51162, Control_c, 10, 7, 85
14, 51163, Control_c, 10, 7, 85
14, 51164, Control_c, 10, 7, 85
14, 51165, Control_c, 10, 7, 86
14, 51166, Control_c, 10, 7, 86
14, 51167, Control_c, 10, 7, 87
14, 51168, Control_c, 10, 7, 87
14, 51169, Control_c, 10, 7, 87
14, 51170, Control_c, 10, 7, 88
14, 51171, Control_c, 10, 7, 88
14, 51172, Control_c, 10, 7, 89
14, 51173, Control_c, 10, 7, 89
14, 51174, Control_c, 10, 7, 89
14, 51175, Control_c, 10, 7, 90
14, 51176, Control_c, 10, 7, 90
14, 51177, Control_c, 10, 7, 90
14, 51178, Control_c, 10, 7, 91
14, 51179, Control_c, 10, 7, 91
14, 51180, Control_c, 10, 7, 92
14, 51181, Control_c, 10, 7, 92
14, 51182, Control_c, 10, 7, 92
14, 51183, Control_c, 10, 7, 93
14, 51184, Control_c, 10, 7, 93
14, 51185, Control_c, 10, 7, 94
14, 51186, Control_c, 10, 7, 94
14, 51187, Control_c, 10, 7, 94
14, 51188, Control_c, 10, 7, 95
14, 51189, Control_c, 10, 7, 95
14, 51190, Control_c, 10, 7, 96
14, 51191, Control_c, 10, 7, 96
14, 51192, Control_c, 10, 7, 96
14, 51193, Control_c, 10, 7, 97
14, 51194, Control_c, 10, 7, 97
14, 51195, Control_c, 10, 7, 97
14, 51196, Control_c, 10, 7, 98
14, 51197, Control_c, 10, 7, 98
14, 51198, Control_c, 10, 7, 99
14, 51199, Control_c, 10, 7, 99
14, 51200, Control_c, 10, 7, 99
14, 51201, Control_c, 10, 7, 100
14, 51202, Control_c, 10, 7, 100
14, 51203, Control_c, 10, 7, 101
14, 51204, Control_c, 10, 7, 101
14, 51205, Control_c, 10, 7, 101
14, 51206, Control_c, 10, 7, 102
14, 51207, Control_c, 10, 7, 102
14, 51208, Control_c, 10, 7, 103
14, 51209, Control_c, 10, 7, 103
14, 51210, Control_c, 10, 7, 103
14, 51211, Control_c, 10, 7, 104
14, 51212, Control_c, 10, 7, 104
14, 51213, Control_c, 10, 7, 104
14, 51214, Control_c, 10, 7, 105
14, 51215, Control_c, 10, 7, 105
14, 51216, Note_off_c, 10, 53, 64
14, 51216, Note_off_c, 10, 29, 64
14, 51216, Note_off_c, 10, 41, 64
14, 51216, Control_c, 10, 7, 54
14, 51216, Note_on_c, 10, 43, 127
14, 51216, Note_on_c, 10, 31, 127
14, 51216, Note_on_c, 10, 55, 127
14, 51217, Control_c, 10, 7, 55
14, 51218, Control_c, 10, 7, 55
14, 51219, Control_c, 10, 7, 56
14, 51220, Control_c, 10, 7, 57
14, 51221, Control_c, 10, 7, 57
14, 51222, Control_c, 10, 7, 57
14, 51223, Control_c, 10, 7, 58
14, 51224, Control_c, 10, 7, 58
14, 51225, Control_c, 10, 7, 58
14, 51226, Control_c, 10, 7, 59
14, 51227, Control_c, 10, 7, 59
14, 51228, Control_c, 10, 7, 59
14, 51229, Control_c, 10, 7, 60
14, 51230, Control_c, 10, 7, 60
14, 51231, Control_c, 10, 7, 61
14, 51232, Control_c, 10, 7, 61
14, 51233, Control_c, 10, 7, 61
14, 51234, Control_c, 10, 7, 62
14, 51235, Control_c, 10, 7, 62
14, 51236, Control_c, 10, 7, 62
14, 51237, Control_c, 10, 7, 63
14, 51238, Control_c, 10, 7, 63
14, 51239, Control_c, 10, 7, 63
14, 51240, Control_c, 10, 7, 63
14, 51241, Control_c, 10, 7, 64
14, 51242, Control_c, 10, 7, 64
14, 51243, Control_c, 10, 7, 65
14, 51244, Control_c, 10, 7, 65
14, 51245, Control_c, 10, 7, 65
14, 51246, Control_c, 10, 7, 66
14, 51247, Control_c, 10, 7, 66
14, 51248, Control_c, 10, 7, 66
14, 51249, Control_c, 10, 7, 67
14, 51250, Control_c, 10, 7, 67
14, 51251, Control_c, 10, 7, 68
14, 51252, Control_c, 10, 7, 68
14, 51253, Control_c, 10, 7, 68
14, 51254, Control_c, 10, 7, 69
14, 51255, Control_c, 10, 7, 69
14, 51256, Control_c, 10, 7, 69
14, 51257, Control_c, 10, 7, 70
14, 51258, Control_c, 10, 7, 70
14, 51259, Control_c, 10, 7, 71
14, 51260, Control_c, 10, 7, 71
14, 51261, Control_c, 10, 7, 71
14, 51262, Control_c, 10, 7, 72
14, 51263, Control_c, 10, 7, 72
14, 51264, Control_c, 10, 7, 73
14, 51265, Control_c, 10, 7, 73
14, 51266, Control_c, 10, 7, 73
14, 51267, Control_c, 10, 7, 74
14, 51268, Control_c, 10, 7, 74
14, 51269, Control_c, 10, 7, 74
14, 51270, Control_c, 10, 7, 75
14, 51271, Control_c, 10, 7, 75
14, 51272, Control_c, 10, 7, 76
14, 51273, Control_c, 10, 7, 76
14, 51274, Control_c, 10, 7, 76
14, 51275, Control_c, 10, 7, 77
14, 51276, Control_c, 10, 7, 77
14, 51277, Control_c, 10, 7, 77
14, 51278, Control_c, 10, 7, 78
14, 51279, Control_c, 10, 7, 78
14, 51280, Control_c, 10, 7, 79
14, 51281, Control_c, 10, 7, 79
14, 51282, Control_c, 10, 7, 79
14, 51283, Control_c, 10, 7, 80
14, 51284, Control_c, 10, 7, 80
14, 51285, Control_c, 10, 7, 80
14, 51286, Control_c, 10, 7, 81
14, 51287, Control_c, 10, 7, 81
14, 51288, Control_c, 10, 7, 82
14, 51289, Control_c, 10, 7, 82
14, 51290, Control_c, 10, 7, 82
14, 51291, Control_c, 10, 7, 83
14, 51292, Control_c, 10, 7, 83
14, 51293, Control_c, 10, 7, 84
14, 51294, Control_c, 10, 7, 84
14, 51295, Control_c, 10, 7, 84
14, 51296, Control_c, 10, 7, 85
14, 51297, Control_c, 10, 7, 85
14, 51298, Control_c, 10, 7, 85
14, 51299, Control_c, 10, 7, 86
14, 51300, Control_c, 10, 7, 86
14, 51301, Control_c, 10, 7, 87
14, 51302, Control_c, 10, 7, 87
14, 51303, Control_c, 10, 7, 87
14, 51304, Control_c, 10, 7, 88
14, 51305, Control_c, 10, 7, 88
14, 51306, Control_c, 10, 7, 88
14, 51307, Control_c, 10, 7, 89
14, 51308, Control_c, 10, 7, 89
14, 51309, Control_c, 10, 7, 90
14, 51310, Control_c, 10, 7, 90
14, 51311, Control_c, 10, 7, 90
14, 51312, Control_c, 10, 7, 91
14, 51313, Control_c, 10, 7, 91
14, 51314, Control_c, 10, 7, 92
14, 51315, Control_c, 10, 7, 92
14, 51316, Control_c, 10, 7, 92
14, 51317, Control_c, 10, 7, 93
14, 51318, Control_c, 10, 7, 93
14, 51319, Control_c, 10, 7, 93
14, 51320, Control_c, 10, 7, 94
14, 51321, Control_c, 10, 7, 94
14, 51322, Control_c, 10, 7, 95
14, 51323, Control_c, 10, 7, 95
14, 51324, Control_c, 10, 7, 95
14, 51325, Control_c, 10, 7, 96
14, 51326, Control_c, 10, 7, 96
14, 51327, Control_c, 10, 7, 96
14, 51328, Control_c, 10, 7, 97
14, 51329, Control_c, 10, 7, 97
14, 51330, Control_c, 10, 7, 98
14, 51331, Control_c, 10, 7, 98
14, 51332, Control_c, 10, 7, 98
14, 51333, Control_c, 10, 7, 99
14, 51334, Control_c, 10, 7, 99
14, 51335, Control_c, 10, 7, 99
14, 51336, Control_c, 10, 7, 100
14, 51337, Control_c, 10, 7, 100
14, 51338, Control_c, 10, 7, 101
14, 51339, Control_c, 10, 7, 101
14, 51340, Control_c, 10, 7, 101
14, 51341, Control_c, 10, 7, 102
14, 51342, Control_c, 10, 7, 102
14, 51343, Control_c, 10, 7, 103
14, 51344, Control_c, 10, 7, 103
14, 51345, Control_c, 10, 7, 103
14, 51346, Control_c, 10, 7, 104
14, 51347, Control_c, 10, 7, 104
14, 51348, Control_c, 10, 7, 104
14, 51349, Control_c, 10, 7, 105
14, 51350, Control_c, 10, 7, 105
14, 51351, Control_c, 10, 7, 106
14, 51352, Control_c, 10, 7, 106
14, 51353, Control_c, 10, 7, 106
14, 51354, Control_c, 10, 7, 107
14, 51355, Control_c, 10, 7, 107
14, 51356, Control_c, 10, 7, 107
14, 51357, Control_c, 10, 7, 108
14, 51358, Control_c, 10, 7, 108
14, 51359, Control_c, 10, 7, 109
14, 51360, Note_off_c, 10, 55, 64
14, 51360, Note_off_c, 10, 31, 64
14, 51360, Note_off_c, 10, 43, 64
14, 51360, Control_c, 10, 7, 108
14, 51360, Note_on_c, 10, 39, 127
14, 51360, Note_on_c, 10, 27, 127
14, 51360, Note_on_c, 10, 51, 127
14, 51361, Control_c, 10, 7, 108
14, 51362, Control_c, 10, 7, 107
14, 51363, Control_c, 10, 7, 107
14, 51364, Control_c, 10, 7, 106
14, 51365, Control_c, 10, 7, 106
14, 51366, Control_c, 10, 7, 105
14, 51367, Control_c, 10, 7, 105
14, 51368, Control_c, 10, 7, 105
14, 51369, Control_c, 10, 7, 104
14, 51370, Control_c, 10, 7, 104
14, 51371, Control_c, 10, 7, 103
14, 51372, Control_c, 10, 7, 103
14, 51373, Control_c, 10, 7, 102
14, 51374, Control_c, 10, 7, 102
14, 51375, Control_c, 10, 7, 101
14, 51376, Control_c, 10, 7, 101
14, 51377, Control_c, 10, 7, 100
14, 51378, Control_c, 10, 7, 100
14, 51379, Control_c, 10, 7, 99
14, 51380, Control_c, 10, 7, 99
14, 51381, Control_c, 10, 7, 98
14, 51382, Control_c, 10, 7, 98
14, 51383, Control_c, 10, 7, 97
14, 51384, Control_c, 10, 7, 97
14, 51385, Control_c, 10, 7, 96
14, 51386, Control_c, 10, 7, 96
14, 51387, Control_c, 10, 7, 95
14, 51388, Control_c, 10, 7, 95
14, 51389, Control_c, 10, 7, 94
14, 51390, Control_c, 10, 7, 94
14, 51391, Control_c, 10, 7, 93
14, 51392, Control_c, 10, 7, 93
14, 51393, Control_c, 10, 7, 92
14, 51394, Control_c, 10, 7, 92
14, 51395, Control_c, 10, 7, 91
14, 51396, Control_c, 10, 7, 91
14, 51397, Control_c, 10, 7, 90
14, 51398, Control_c, 10, 7, 90
14, 51399, Control_c, 10, 7, 89
14, 51400, Control_c, 10, 7, 89
14, 51401, Control_c, 10, 7, 88
14, 51402, Control_c, 10, 7, 88
14, 51403, Control_c, 10, 7, 87
14, 51404, Control_c, 10, 7, 87
14, 51405, Control_c, 10, 7, 86
14, 51406, Control_c, 10, 7, 86
14, 51407, Control_c, 10, 7, 85
14, 51408, Control_c, 10, 7, 85
14, 51409, Control_c, 10, 7, 84
14, 51410, Control_c, 10, 7, 84
14, 51411, Control_c, 10, 7, 83
14, 51412, Control_c, 10, 7, 83
14, 51413, Control_c, 10, 7, 82
14, 51414, Control_c, 10, 7, 82
14, 51415, Control_c, 10, 7, 81
14, 51416, Control_c, 10, 7, 81
14, 51417, Control_c, 10, 7, 80
14, 51418, Control_c, 10, 7, 80
14, 51419, Control_c, 10, 7, 79
14, 51420, Control_c, 10, 7, 79
14, 51421, Control_c, 10, 7, 78
14, 51422, Control_c, 10, 7, 78
14, 51423, Control_c, 10, 7, 77
14, 51424, Control_c, 10, 7, 77
14, 51425, Control_c, 10, 7, 76
14, 51426, Control_c, 10, 7, 76
14, 51427, Control_c, 10, 7, 75
14, 51428, Control_c, 10, 7, 75
14, 51429, Control_c, 10, 7, 74
14, 51430, Control_c, 10, 7, 74
14, 51431, Control_c, 10, 7, 73
14, 51432, Control_c, 10, 7, 73
14, 51433, Control_c, 10, 7, 72
14, 51434, Control_c, 10, 7, 72
14, 51435, Control_c, 10, 7, 71
14, 51436, Control_c, 10, 7, 71
14, 51437, Control_c, 10, 7, 70
14, 51438, Control_c, 10, 7, 70
14, 51439, Control_c, 10, 7, 69
14, 51440, Control_c, 10, 7, 69
14, 51441, Control_c, 10, 7, 68
14, 51442, Control_c, 10, 7, 68
14, 51443, Control_c, 10, 7, 67
14, 51444, Control_c, 10, 7, 67
14, 51445, Control_c, 10, 7, 66
14, 51446, Control_c, 10, 7, 66
14, 51447, Control_c, 10, 7, 65
14, 51448, Control_c, 10, 7, 65
14, 51449, Control_c, 10, 7, 64
14, 51450, Control_c, 10, 7, 64
14, 51451, Control_c, 10, 7, 63
14, 51452, Control_c, 10, 7, 63
14, 51453, Control_c, 10, 7, 62
14, 51454, Control_c, 10, 7, 62
14, 51455, Control_c, 10, 7, 61
14, 51456, Control_c, 10, 7, 61
14, 51504, Note_off_c, 10, 51, 64
14, 51504, Note_off_c, 10, 27, 64
14, 51504, Note_off_c, 10, 39, 64
14, 51504, Control_c, 10, 7, 102
14, 51504, Note_on_c, 10, 39, 127
14, 51504, Note_on_c, 10, 27, 127
14, 51504, Note_on_c, 10, 51, 127
14, 51505, Control_c, 10, 7, 102
14, 51506, Control_c, 10, 7, 101
14, 51507, Control_c, 10, 7, 100
14, 51508, Control_c, 10, 7, 99
14, 51509, Control_c, 10, 7, 98
14, 51510, Control_c, 10, 7, 97
14, 51511, Control_c, 10, 7, 96
14, 51512, Control_c, 10, 7, 95
14, 51513, Control_c, 10, 7, 95
14, 51514, Control_c, 10, 7, 94
14, 51515, Control_c, 10, 7, 93
14, 51516, Control_c, 10, 7, 92
14, 51517, Control_c, 10, 7, 91
14, 51518, Control_c, 10, 7, 90
14, 51519, Control_c, 10, 7, 89
14, 51520, Control_c, 10, 7, 88
14, 51521, Control_c, 10, 7, 87
14, 51522, Control_c, 10, 7, 87
14, 51523, Control_c, 10, 7, 86
14, 51524, Control_c, 10, 7, 85
14, 51525, Control_c, 10, 7, 84
14, 51526, Control_c, 10, 7, 83
14, 51527, Control_c, 10, 7, 82
14, 51528, Control_c, 10, 7, 81
14, 51529, Control_c, 10, 7, 80
14, 51530, Control_c, 10, 7, 80
14, 51531, Control_c, 10, 7, 79
14, 51532, Control_c, 10, 7, 78
14, 51533, Control_c, 10, 7, 77
14, 51534, Control_c, 10, 7, 76
14, 51535, Control_c, 10, 7, 75
14, 51536, Control_c, 10, 7, 74
14, 51537, Control_c, 10, 7, 73
14, 51538, Control_c, 10, 7, 73
14, 51539, Control_c, 10, 7, 72
14, 51540, Control_c, 10, 7, 71
14, 51541, Control_c, 10, 7, 70
14, 51542, Control_c, 10, 7, 69
14, 51543, Control_c, 10, 7, 68
14, 51544, Control_c, 10, 7, 67
14, 51545, Control_c, 10, 7, 66
14, 51546, Control_c, 10, 7, 66
14, 51547, Control_c, 10, 7, 65
14, 51548, Control_c, 10, 7, 64
14, 51549, Control_c, 10, 7, 63
14, 51550, Control_c, 10, 7, 62
14, 51551, Control_c, 10, 7, 61
14, 51552, Note_off_c, 10, 51, 64
14, 51552, Note_off_c, 10, 27, 64
14, 51552, Note_off_c, 10, 39, 64
14, 51552, Control_c, 10, 7, 102
14, 51552, Note_on_c, 10, 39, 127
14, 51552, Note_on_c, 10, 27, 127
14, 51552, Note_on_c, 10, 51, 127
14, 51553, Control_c, 10, 7, 102
14, 51554, Control_c, 10, 7, 101
14, 51555, Control_c, 10, 7, 100
14, 51556, Control_c, 10, 7, 99
14, 51557, Control_c, 10, 7, 98
14, 51558, Control_c, 10, 7, 97
14, 51559, Control_c, 10, 7, 96
14, 51560, Control_c, 10, 7, 96
14, 51561, Control_c, 10, 7, 95
14, 51562, Control_c, 10, 7, 94
14, 51563, Control_c, 10, 7, 93
14, 51564, Control_c, 10, 7, 92
14, 51565, Control_c, 10, 7, 91
14, 51566, Control_c, 10, 7, 91
14, 51567, Control_c, 10, 7, 90
14, 51568, Control_c, 10, 7, 89
14, 51569, Control_c, 10, 7, 88
14, 51570, Control_c, 10, 7, 87
14, 51571, Control_c, 10, 7, 86
14, 51572, Control_c, 10, 7, 85
14, 51573, Control_c, 10, 7, 85
14, 51574, Control_c, 10, 7, 84
14, 51575, Control_c, 10, 7, 83
14, 51576, Control_c, 10, 7, 82
14, 51577, Control_c, 10, 7, 81
14, 51578, Control_c, 10, 7, 80
14, 51579, Control_c, 10, 7, 80
14, 51580, Control_c, 10, 7, 79
14, 51581, Control_c, 10, 7, 78
14, 51582, Control_c, 10, 7, 77
14, 51583, Control_c, 10, 7, 76
14, 51584, Control_c, 10, 7, 75
14, 51585, Control_c, 10, 7, 74
14, 51586, Control_c, 10, 7, 74
14, 51587, Control_c, 10, 7, 73
14, 51588, Control_c, 10, 7, 72
14, 51589, Control_c, 10, 7, 71
14, 51590, Control_c, 10, 7, 70
14, 51591, Control_c, 10, 7, 69
14, 51592, Control_c, 10, 7, 68
14, 51593, Control_c, 10, 7, 68
14, 51594, Control_c, 10, 7, 67
14, 51595, Control_c, 10, 7, 66
14, 51596, Control_c, 10, 7, 65
14, 51597, Control_c, 10, 7, 64
14, 51598, Control_c, 10, 7, 102
14, 51599, Control_c, 10, 7, 102
14, 51600, Note_off_c, 10, 51, 64
14, 51600, Note_off_c, 10, 27, 64
14, 51600, Note_off_c, 10, 39, 64
14, 51600, Control_c, 10, 7, 101
14, 51600, Note_on_c, 10, 39, 127
14, 51600, Note_on_c, 10, 27, 127
14, 51600, Note_on_c, 10, 51, 127
14, 51601, Control_c, 10, 7, 100
14, 51602, Control_c, 10, 7, 99
14, 51603, Control_c, 10, 7, 98
14, 51604, Control_c, 10, 7, 97
14, 51605, Control_c, 10, 7, 97
14, 51606, Control_c, 10, 7, 96
14, 51607, Control_c, 10, 7, 95
14, 51608, Control_c, 10, 7, 94
14, 51609, Control_c, 10, 7, 93
14, 51610, Control_c, 10, 7, 93
14, 51611, Control_c, 10, 7, 92
14, 51612, Control_c, 10, 7, 91
14, 51613, Control_c, 10, 7, 90
14, 51614, Control_c, 10, 7, 89
14, 51615, Control_c, 10, 7, 88
14, 51616, Control_c, 10, 7, 88
14, 51617, Control_c, 10, 7, 87
14, 51618, Control_c, 10, 7, 86
14, 51619, Control_c, 10, 7, 85
14, 51620, Control_c, 10, 7, 84
14, 51621, Control_c, 10, 7, 84
14, 51622, Control_c, 10, 7, 83
14, 51623, Control_c, 10, 7, 82
14, 51624, Control_c, 10, 7, 81
14, 51625, Control_c, 10, 7, 80
14, 51626, Control_c, 10, 7, 79
14, 51627, Control_c, 10, 7, 79
14, 51628, Control_c, 10, 7, 78
14, 51629, Control_c, 10, 7, 77
14, 51630, Control_c, 10, 7, 76
14, 51631, Control_c, 10, 7, 75
14, 51632, Control_c, 10, 7, 75
14, 51633, Control_c, 10, 7, 74
14, 51634, Control_c, 10, 7, 73
14, 51635, Control_c, 10, 7, 72
14, 51636, Control_c, 10, 7, 71
14, 51637, Control_c, 10, 7, 70
14, 51638, Control_c, 10, 7, 70
14, 51639, Control_c, 10, 7, 69
14, 51640, Control_c, 10, 7, 68
14, 51641, Control_c, 10, 7, 67
14, 51642, Control_c, 10, 7, 66
14, 51643, Control_c, 10, 7, 66
14, 51644, Control_c, 10, 7, 65
14, 51645, Control_c, 10, 7, 64
14, 51646, Control_c, 10, 7, 63
14, 51647, Control_c, 10, 7, 62
14, 51648, Note_off_c, 10, 51, 64
14, 51648, Note_off_c, 10, 27, 64
14, 51648, Note_off_c, 10, 39, 64
14, 51648, Control_c, 10, 7, 102
14, 51648, Note_on_c, 10, 39, 127
14, 51648, Note_on_c, 10, 27, 127
14, 51648, Note_on_c, 10, 51, 127
14, 51649, Control_c, 10, 7, 102
14, 51650, Control_c, 10, 7, 101
14, 51651, Control_c, 10, 7, 100
14, 51652, Control_c, 10, 7, 99
14, 51653, Control_c, 10, 7, 98
14, 51654, Control_c, 10, 7, 97
14, 51655, Control_c, 10, 7, 96
14, 51656, Control_c, 10, 7, 95
14, 51657, Control_c, 10, 7, 94
14, 51658, Control_c, 10, 7, 94
14, 51659, Control_c, 10, 7, 93
14, 51660, Control_c, 10, 7, 92
14, 51661, Control_c, 10, 7, 91
14, 51662, Control_c, 10, 7, 90
14, 51663, Control_c, 10, 7, 89
14, 51664, Control_c, 10, 7, 88
14, 51665, Control_c, 10, 7, 87
14, 51666, Control_c, 10, 7, 86
14, 51667, Control_c, 10, 7, 86
14, 51668, Control_c, 10, 7, 85
14, 51669, Control_c, 10, 7, 84
14, 51670, Control_c, 10, 7, 83
14, 51671, Control_c, 10, 7, 82
14, 51672, Control_c, 10, 7, 81
14, 51673, Control_c, 10, 7, 80
14, 51674, Control_c, 10, 7, 79
14, 51675, Control_c, 10, 7, 78
14, 51676, Control_c, 10, 7, 78
14, 51677, Control_c, 10, 7, 77
14, 51678, Control_c, 10, 7, 76
14, 51679, Control_c, 10, 7, 75
14, 51680, Control_c, 10, 7, 74
14, 51681, Control_c, 10, 7, 73
14, 51682, Control_c, 10, 7, 72
14, 51683, Control_c, 10, 7, 71
14, 51684, Control_c, 10, 7, 70
14, 51685, Control_c, 10, 7, 69
14, 51686, Control_c, 10, 7, 69
14, 51687, Control_c, 10, 7, 68
14, 51688, Control_c, 10, 7, 67
14, 51689, Control_c, 10, 7, 66
14, 51690, Control_c, 10, 7, 65
14, 51691, Control_c, 10, 7, 64
14, 51692, Control_c, 10, 7, 63
14, 51693, Control_c, 10, 7, 62
14, 51694, Control_c, 10, 7, 61
14, 51695, Control_c, 10, 7, 61
14, 51696, Note_off_c, 10, 51, 64
14, 51696, Note_off_c, 10, 27, 64
14, 51696, Note_off_c, 10, 39, 64
14, 51696, Note_on_c, 10, 39, 127
14, 51696, Note_on_c, 10, 27, 127
14, 51696, Note_on_c, 10, 51, 127
14, 51697, Control_c, 10, 7, 103
14, 51698, Control_c, 10, 7, 102
14, 51699, Control_c, 10, 7, 101
14, 51700, Control_c, 10, 7, 100
14, 51701, Control_c, 10, 7, 99
14, 51702, Control_c, 10, 7, 99
14, 51703, Control_c, 10, 7, 98
14, 51704, Control_c, 10, 7, 97
14, 51705, Control_c, 10, 7, 96
14, 51706, Control_c, 10, 7, 95
14, 51707, Control_c, 10, 7, 94
14, 51708, Control_c, 10, 7, 93
14, 51709, Control_c, 10, 7, 93
14, 51710, Control_c, 10, 7, 92
14, 51711, Control_c, 10, 7, 91
14, 51712, Control_c, 10, 7, 90
14, 51713, Control_c, 10, 7, 89
14, 51714, Control_c, 10, 7, 88
14, 51715, Control_c, 10, 7, 87
14, 51716, Control_c, 10, 7, 87
14, 51717, Control_c, 10, 7, 86
14, 51718, Control_c, 10, 7, 85
14, 51719, Control_c, 10, 7, 84
14, 51720, Control_c, 10, 7, 83
14, 51721, Control_c, 10, 7, 82
14, 51722, Control_c, 10, 7, 81
14, 51723, Control_c, 10, 7, 81
14, 51724, Control_c, 10, 7, 80
14, 51725, Control_c, 10, 7, 79
14, 51726, Control_c, 10, 7, 78
14, 51727, Control_c, 10, 7, 77
14, 51728, Control_c, 10, 7, 76
14, 51729, Control_c, 10, 7, 75
14, 51730, Control_c, 10, 7, 75
14, 51731, Control_c, 10, 7, 74
14, 51732, Control_c, 10, 7, 73
14, 51733, Control_c, 10, 7, 72
14, 51734, Control_c, 10, 7, 71
14, 51735, Control_c, 10, 7, 70
14, 51736, Control_c, 10, 7, 69
14, 51737, Control_c, 10, 7, 69
14, 51738, Control_c, 10, 7, 68
14, 51739, Control_c, 10, 7, 67
14, 51740, Control_c, 10, 7, 66
14, 51741, Control_c, 10, 7, 65
14, 51742, Control_c, 10, 7, 64
14, 51743, Control_c, 10, 7, 64
14, 51744, Note_off_c, 10, 51, 64
14, 51744, Note_off_c, 10, 27, 64
14, 51744, Note_off_c, 10, 39, 64
14, 51744, Note_on_c, 10, 39, 127
14, 51744, Note_on_c, 10, 27, 127
14, 51744, Note_on_c, 10, 51, 127
14, 51745, Control_c, 10, 7, 104
14, 51746, Control_c, 10, 7, 103
14, 51747, Control_c, 10, 7, 102
14, 51748, Control_c, 10, 7, 101
14, 51749, Control_c, 10, 7, 100
14, 51750, Control_c, 10, 7, 99
14, 51751, Control_c, 10, 7, 98
14, 51752, Control_c, 10, 7, 98
14, 51753, Control_c, 10, 7, 97
14, 51754, Control_c, 10, 7, 96
14, 51755, Control_c, 10, 7, 95
14, 51756, Control_c, 10, 7, 94
14, 51757, Control_c, 10, 7, 93
14, 51758, Control_c, 10, 7, 93
14, 51759, Control_c, 10, 7, 92
14, 51760, Control_c, 10, 7, 91
14, 51761, Control_c, 10, 7, 90
14, 51762, Control_c, 10, 7, 89
14, 51763, Control_c, 10, 7, 88
14, 51764, Control_c, 10, 7, 87
14, 51765, Control_c, 10, 7, 87
14, 51766, Control_c, 10, 7, 86
14, 51767, Control_c, 10, 7, 85
14, 51768, Control_c, 10, 7, 84
14, 51769, Control_c, 10, 7, 83
14, 51770, Control_c, 10, 7, 82
14, 51771, Control_c, 10, 7, 82
14, 51772, Control_c, 10, 7, 81
14, 51773, Control_c, 10, 7, 80
14, 51774, Control_c, 10, 7, 79
14, 51775, Control_c, 10, 7, 78
14, 51776, Control_c, 10, 7, 77
14, 51777, Control_c, 10, 7, 76
14, 51778, Control_c, 10, 7, 76
14, 51779, Control_c, 10, 7, 75
14, 51780, Control_c, 10, 7, 74
14, 51781, Control_c, 10, 7, 73
14, 51782, Control_c, 10, 7, 72
14, 51783, Control_c, 10, 7, 71
14, 51784, Control_c, 10, 7, 71
14, 51785, Control_c, 10, 7, 70
14, 51786, Control_c, 10, 7, 69
14, 51787, Control_c, 10, 7, 68
14, 51788, Control_c, 10, 7, 67
14, 51789, Control_c, 10, 7, 66
14, 51790, Control_c, 10, 7, 65
14, 51791, Control_c, 10, 7, 102
14, 51792, Note_off_c, 10, 51, 64
14, 51792, Note_off_c, 10, 27, 64
14, 51792, Note_off_c, 10, 39, 64
14, 51792, Control_c, 10, 7, 102
14, 51792, Note_on_c, 10, 39, 127
14, 51792, Note_on_c, 10, 27, 127
14, 51792, Note_on_c, 10, 51, 127
14, 51793, Control_c, 10, 7, 101
14, 51794, Control_c, 10, 7, 100
14, 51795, Control_c, 10, 7, 99
14, 51796, Control_c, 10, 7, 98
14, 51797, Control_c, 10, 7, 97
14, 51798, Control_c, 10, 7, 96
14, 51799, Control_c, 10, 7, 96
14, 51800, Control_c, 10, 7, 95
14, 51801, Control_c, 10, 7, 94
14, 51802, Control_c, 10, 7, 93
14, 51803, Control_c, 10, 7, 92
14, 51804, Control_c, 10, 7, 91
14, 51805, Control_c, 10, 7, 90
14, 51806, Control_c, 10, 7, 89
14, 51807, Control_c, 10, 7, 89
14, 51808, Control_c, 10, 7, 88
14, 51809, Control_c, 10, 7, 87
14, 51810, Control_c, 10, 7, 86
14, 51811, Control_c, 10, 7, 85
14, 51812, Control_c, 10, 7, 84
14, 51813, Control_c, 10, 7, 83
14, 51814, Control_c, 10, 7, 83
14, 51815, Control_c, 10, 7, 82
14, 51816, Control_c, 10, 7, 81
14, 51817, Control_c, 10, 7, 80
14, 51818, Control_c, 10, 7, 79
14, 51819, Control_c, 10, 7, 78
14, 51820, Control_c, 10, 7, 77
14, 51821, Control_c, 10, 7, 77
14, 51822, Control_c, 10, 7, 76
14, 51823, Control_c, 10, 7, 75
14, 51824, Control_c, 10, 7, 74
14, 51825, Control_c, 10, 7, 73
14, 51826, Control_c, 10, 7, 72
14, 51827, Control_c, 10, 7, 71
14, 51828, Control_c, 10, 7, 71
14, 51829, Control_c, 10, 7, 70
14, 51830, Control_c, 10, 7, 69
14, 51831, Control_c, 10, 7, 68
14, 51832, Control_c, 10, 7, 67
14, 51833, Control_c, 10, 7, 66
14, 51834, Control_c, 10, 7, 65
14, 51835, Control_c, 10, 7, 65
14, 51836, Control_c, 10, 7, 64
14, 51837, Control_c, 10, 7, 63
14, 51840, Note_off_c, 10, 51, 64
14, 51840, Note_off_c, 10, 27, 64
14, 51840, Note_off_c, 10, 39, 64
14, 51840, Control_c, 10, 7, 113
14, 51840, Note_on_c, 10, 39, 127
14, 51840, Note_on_c, 10, 27, 127
14, 51840, Note_on_c, 10, 51, 127
14, 51841, Control_c, 10, 7, 113
14, 51842, Control_c, 10, 7, 112
14, 51843, Control_c, 10, 7, 112
14, 51844, Control_c, 10, 7, 112
14, 51845, Control_c, 10, 7, 111
14, 51846, Control_c, 10, 7, 111
14, 51847, Control_c, 10, 7, 110
14, 51848, Control_c, 10, 7, 110
14, 51849, Control_c, 10, 7, 110
14, 51850, Control_c, 10, 7, 109
14, 51851, Control_c, 10, 7, 109
14, 51852, Control_c, 10, 7, 109
14, 51853, Control_c, 10, 7, 108
14, 51854, Control_c, 10, 7, 108
14, 51855, Control_c, 10, 7, 108
14, 51856, Control_c, 10, 7, 107
14, 51857, Control_c, 10, 7, 107
14, 51858, Control_c, 10, 7, 107
14, 51859, Control_c, 10, 7, 106
14, 51860, Control_c, 10, 7, 106
14, 51861, Control_c, 10, 7, 106
14, 51862, Control_c, 10, 7, 105
14, 51863, Control_c, 10, 7, 105
14, 51864, Control_c, 10, 7, 104
14, 51865, Control_c, 10, 7, 104
14, 51866, Control_c, 10, 7, 104
14, 51867, Control_c, 10, 7, 103
14, 51868, Control_c, 10, 7, 103
14, 51869, Control_c, 10, 7, 103
14, 51870, Control_c, 10, 7, 102
14, 51871, Control_c, 10, 7, 102
14, 51872, Control_c, 10, 7, 102
14, 51873, Control_c, 10, 7, 101
14, 51874, Control_c, 10, 7, 101
14, 51875, Control_c, 10, 7, 101
14, 51876, Control_c, 10, 7, 100
14, 51877, Control_c, 10, 7, 100
14, 51878, Control_c, 10, 7, 100
14, 51879, Control_c, 10, 7, 99
14, 51880, Control_c, 10, 7, 99
14, 51881, Control_c, 10, 7, 98
14, 51882, Control_c, 10, 7, 98
14, 51883, Control_c, 10, 7, 98
14, 51884, Control_c, 10, 7, 97
14, 51885, Control_c, 10, 7, 97
14, 51886, Control_c, 10, 7, 97
14, 51887, Control_c, 10, 7, 96
14, 51888, Control_c, 10, 7, 96
14, 51889, Control_c, 10, 7, 96
14, 51890, Control_c, 10, 7, 95
14, 51891, Control_c, 10, 7, 95
14, 51892, Control_c, 10, 7, 95
14, 51893, Control_c, 10, 7, 94
14, 51894, Control_c, 10, 7, 94
14, 51895, Control_c, 10, 7, 94
14, 51896, Control_c, 10, 7, 93
14, 51897, Control_c, 10, 7, 93
14, 51898, Control_c, 10, 7, 92
14, 51899, Control_c, 10, 7, 92
14, 51900, Control_c, 10, 7, 92
14, 51901, Control_c, 10, 7, 91
14, 51902, Control_c, 10, 7, 91
14, 51903, Control_c, 10, 7, 91
14, 51904, Control_c, 10, 7, 90
14, 51905, Control_c, 10, 7, 90
14, 51906, Control_c, 10, 7, 90
14, 51907, Control_c, 10, 7, 89
14, 51908, Control_c, 10, 7, 89
14, 51909, Control_c, 10, 7, 89
14, 51910, Control_c, 10, 7, 88
14, 51911, Control_c, 10, 7, 88
14, 51912, Control_c, 10, 7, 88
14, 51913, Control_c, 10, 7, 87
14, 51914, Control_c, 10, 7, 87
14, 51915, Control_c, 10, 7, 86
14, 51916, Control_c, 10, 7, 86
14, 51917, Control_c, 10, 7, 86
14, 51918, Control_c, 10, 7, 85
14, 51919, Control_c, 10, 7, 85
14, 51920, Control_c, 10, 7, 85
14, 51921, Control_c, 10, 7, 84
14, 51922, Control_c, 10, 7, 84
14, 51923, Control_c, 10, 7, 84
14, 51924, Control_c, 10, 7, 83
14, 51925, Control_c, 10, 7, 83
14, 51926, Control_c, 10, 7, 83
14, 51927, Control_c, 10, 7, 82
14, 51928, Control_c, 10, 7, 82
14, 51929, Control_c, 10, 7, 82
14, 51930, Control_c, 10, 7, 81
14, 51931, Control_c, 10, 7, 81
14, 51932, Control_c, 10, 7, 80
14, 51933, Control_c, 10, 7, 80
14, 51934, Control_c, 10, 7, 80
14, 51935, Control_c, 10, 7, 79
14, 51936, Control_c, 10, 7, 79
14, 51937, Control_c, 10, 7, 79
14, 51938, Control_c, 10, 7, 78
14, 51939, Control_c, 10, 7, 78
14, 51940, Control_c, 10, 7, 78
14, 51941, Control_c, 10, 7, 77
14, 51942, Control_c, 10, 7, 77
14, 51943, Control_c, 10, 7, 77
14, 51944, Control_c, 10, 7, 76
14, 51945, Control_c, 10, 7, 76
14, 51946, Control_c, 10, 7, 76
14, 51947, Control_c, 10, 7, 75
14, 51948, Control_c, 10, 7, 75
14, 51949, Control_c, 10, 7, 74
14, 51950, Control_c, 10, 7, 74
14, 51951, Control_c, 10, 7, 74
14, 51952, Control_c, 10, 7, 73
14, 51953, Control_c, 10, 7, 73
14, 51954, Control_c, 10, 7, 73
14, 51955, Control_c, 10, 7, 72
14, 51956, Control_c, 10, 7, 72
14, 51957, Control_c, 10, 7, 72
14, 51958, Control_c, 10, 7, 71
14, 51959, Control_c, 10, 7, 71
14, 51960, Control_c, 10, 7, 71
14, 51961, Control_c, 10, 7, 70
14, 51962, Control_c, 10, 7, 70
14, 51963, Control_c, 10, 7, 70
14, 51964, Control_c, 10, 7, 69
14, 51965, Control_c, 10, 7, 69
14, 51966, Control_c, 10, 7, 68
14, 51967, Control_c, 10, 7, 68
14, 51968, Control_c, 10, 7, 68
14, 51969, Control_c, 10, 7, 67
14, 51970, Control_c, 10, 7, 67
14, 51971, Control_c, 10, 7, 67
14, 51972, Control_c, 10, 7, 66
14, 51973, Control_c, 10, 7, 66
14, 51974, Control_c, 10, 7, 66
14, 51975, Control_c, 10, 7, 65
14, 51976, Control_c, 10, 7, 65
14, 51977, Control_c, 10, 7, 65
14, 51978, Control_c, 10, 7, 64
14, 51979, Control_c, 10, 7, 64
14, 51980, Control_c, 10, 7, 64
14, 51981, Control_c, 10, 7, 63
14, 51982, Control_c, 10, 7, 111
14, 51983, Control_c, 10, 7, 111
14, 51984, Note_off_c, 10, 51, 64
14, 51984, Note_off_c, 10, 27, 64
14, 51984, Note_off_c, 10, 39, 64
14, 51984, Control_c, 10, 7, 110
14, 51984, Note_on_c, 10, 39, 127
14, 51984, Note_on_c, 10, 51, 127
14, 51984, Note_on_c, 10, 27, 127
14, 51985, Control_c, 10, 7, 110
14, 51986, Control_c, 10, 7, 110
14, 51987, Control_c, 10, 7, 109
14, 51988, Control_c, 10, 7, 109
14, 51989, Control_c, 10, 7, 109
14, 51990, Control_c, 10, 7, 109
14, 51991, Control_c, 10, 7, 108
14, 51992, Control_c, 10, 7, 108
14, 51993, Control_c, 10, 7, 108
14, 51994, Control_c, 10, 7, 107
14, 51995, Control_c, 10, 7, 107
14, 51996, Control_c, 10, 7, 107
14, 51997, Control_c, 10, 7, 106
14, 51998, Control_c, 10, 7, 106
14, 51999, Control_c, 10, 7, 106
14, 52000, Control_c, 10, 7, 105
14, 52001, Control_c, 10, 7, 105
14, 52002, Control_c, 10, 7, 105
14, 52003, Control_c, 10, 7, 104
14, 52004, Control_c, 10, 7, 104
14, 52005, Control_c, 10, 7, 104
14, 52006, Control_c, 10, 7, 103
14, 52007, Control_c, 10, 7, 103
14, 52008, Control_c, 10, 7, 103
14, 52009, Control_c, 10, 7, 102
14, 52010, Control_c, 10, 7, 102
14, 52011, Control_c, 10, 7, 102
14, 52012, Control_c, 10, 7, 101
14, 52013, Control_c, 10, 7, 101
14, 52014, Control_c, 10, 7, 101
14, 52015, Control_c, 10, 7, 100
14, 52016, Control_c, 10, 7, 100
14, 52017, Control_c, 10, 7, 100
14, 52018, Control_c, 10, 7, 99
14, 52019, Control_c, 10, 7, 99
14, 52020, Control_c, 10, 7, 99
14, 52021, Control_c, 10, 7, 98
14, 52022, Control_c, 10, 7, 98
14, 52023, Control_c, 10, 7, 98
14, 52024, Control_c, 10, 7, 97
14, 52025, Control_c, 10, 7, 97
14, 52026, Control_c, 10, 7, 97
14, 52027, Control_c, 10, 7, 96
14, 52028, Control_c, 10, 7, 96
14, 52029, Control_c, 10, 7, 96
14, 52030, Control_c, 10, 7, 95
14, 52031, Control_c, 10, 7, 95
14, 52032, Control_c, 10, 7, 95
14, 52033, Control_c, 10, 7, 94
14, 52034, Control_c, 10, 7, 94
14, 52035, Control_c, 10, 7, 94
14, 52036, Control_c, 10, 7, 93
14, 52037, Control_c, 10, 7, 93
14, 52038, Control_c, 10, 7, 93
14, 52039, Control_c, 10, 7, 92
14, 52040, Control_c, 10, 7, 92
14, 52041, Control_c, 10, 7, 92
14, 52042, Control_c, 10, 7, 91
14, 52043, Control_c, 10, 7, 91
14, 52044, Control_c, 10, 7, 91
14, 52045, Control_c, 10, 7, 90
14, 52046, Control_c, 10, 7, 90
14, 52047, Control_c, 10, 7, 90
14, 52048, Control_c, 10, 7, 89
14, 52049, Control_c, 10, 7, 89
14, 52050, Control_c, 10, 7, 89
14, 52051, Control_c, 10, 7, 88
14, 52052, Control_c, 10, 7, 88
14, 52053, Control_c, 10, 7, 88
14, 52054, Control_c, 10, 7, 87
14, 52055, Control_c, 10, 7, 87
14, 52056, Control_c, 10, 7, 87
14, 52057, Control_c, 10, 7, 86
14, 52058, Control_c, 10, 7, 86
14, 52059, Control_c, 10, 7, 86
14, 52060, Control_c, 10, 7, 85
14, 52061, Control_c, 10, 7, 85
14, 52062, Control_c, 10, 7, 85
14, 52063, Control_c, 10, 7, 84
14, 52064, Control_c, 10, 7, 84
14, 52065, Control_c, 10, 7, 84
14, 52066, Control_c, 10, 7, 83
14, 52067, Control_c, 10, 7, 83
14, 52068, Control_c, 10, 7, 83
14, 52069, Control_c, 10, 7, 82
14, 52070, Control_c, 10, 7, 82
14, 52071, Control_c, 10, 7, 82
14, 52072, Control_c, 10, 7, 81
14, 52073, Control_c, 10, 7, 81
14, 52074, Control_c, 10, 7, 81
14, 52075, Control_c, 10, 7, 80
14, 52076, Control_c, 10, 7, 80
14, 52077, Control_c, 10, 7, 80
14, 52078, Control_c, 10, 7, 79
14, 52079, Control_c, 10, 7, 79
14, 52080, Control_c, 10, 7, 79
14, 52081, Control_c, 10, 7, 78
14, 52082, Control_c, 10, 7, 78
14, 52083, Control_c, 10, 7, 78
14, 52084, Control_c, 10, 7, 77
14, 52085, Control_c, 10, 7, 77
14, 52086, Control_c, 10, 7, 77
14, 52087, Control_c, 10, 7, 76
14, 52088, Control_c, 10, 7, 76
14, 52089, Control_c, 10, 7, 76
14, 52090, Control_c, 10, 7, 75
14, 52091, Control_c, 10, 7, 75
14, 52092, Control_c, 10, 7, 75
14, 52093, Control_c, 10, 7, 74
14, 52094, Control_c, 10, 7, 74
14, 52095, Control_c, 10, 7, 74
14, 52096, Control_c, 10, 7, 73
14, 52097, Control_c, 10, 7, 73
14, 52098, Control_c, 10, 7, 73
14, 52099, Control_c, 10, 7, 72
14, 52100, Control_c, 10, 7, 72
14, 52101, Control_c, 10, 7, 72
14, 52102, Control_c, 10, 7, 71
14, 52103, Control_c, 10, 7, 71
14, 52104, Control_c, 10, 7, 71
14, 52105, Control_c, 10, 7, 70
14, 52106, Control_c, 10, 7, 70
14, 52107, Control_c, 10, 7, 70
14, 52108, Control_c, 10, 7, 69
14, 52109, Control_c, 10, 7, 69
14, 52110, Control_c, 10, 7, 69
14, 52111, Control_c, 10, 7, 68
14, 52112, Control_c, 10, 7, 68
14, 52113, Control_c, 10, 7, 68
14, 52114, Control_c, 10, 7, 67
14, 52115, Control_c, 10, 7, 67
14, 52116, Control_c, 10, 7, 67
14, 52117, Control_c, 10, 7, 66
14, 52118, Control_c, 10, 7, 66
14, 52119, Control_c, 10, 7, 66
14, 52120, Control_c, 10, 7, 65
14, 52121, Control_c, 10, 7, 65
14, 52122, Control_c, 10, 7, 65
14, 52123, Control_c, 10, 7, 64
14, 52124, Control_c, 10, 7, 64
14, 52125, Control_c, 10, 7, 64
14, 52126, Control_c, 10, 7, 63
14, 52127, Control_c, 10, 7, 63
14, 52128, Note_off_c, 10, 27, 64
14, 52128, Note_off_c, 10, 51, 64
14, 52128, Note_off_c, 10, 39, 64
14, 52128, Control_c, 10, 7, 64
14, 52128, Note_on_c, 10, 39, 127
14, 52128, Note_on_c, 10, 51, 127
14, 52128, Note_on_c, 10, 27, 127
14, 52129, Control_c, 10, 7, 64
14, 52130, Control_c, 10, 7, 65
14, 52131, Control_c, 10, 7, 65
14, 52132, Control_c, 10, 7, 66
14, 52133, Control_c, 10, 7, 66
14, 52134, Control_c, 10, 7, 67
14, 52135, Control_c, 10, 7, 67
14, 52136, Control_c, 10, 7, 68
14, 52137, Control_c, 10, 7, 68
14, 52138, Control_c, 10, 7, 69
14, 52139, Control_c, 10, 7, 69
14, 52140, Control_c, 10, 7, 70
14, 52141, Control_c, 10, 7, 70
14, 52142, Control_c, 10, 7, 71
14, 52143, Control_c, 10, 7, 71
14, 52144, Control_c, 10, 7, 72
14, 52145, Control_c, 10, 7, 72
14, 52146, Control_c, 10, 7, 73
14, 52147, Control_c, 10, 7, 73
14, 52148, Control_c, 10, 7, 74
14, 52149, Control_c, 10, 7, 74
14, 52150, Control_c, 10, 7, 75
14, 52151, Control_c, 10, 7, 75
14, 52152, Control_c, 10, 7, 76
14, 52153, Control_c, 10, 7, 76
14, 52154, Control_c, 10, 7, 77
14, 52155, Control_c, 10, 7, 77
14, 52156, Control_c, 10, 7, 78
14, 52157, Control_c, 10, 7, 78
14, 52158, Control_c, 10, 7, 79
14, 52159, Control_c, 10, 7, 79
14, 52160, Control_c, 10, 7, 80
14, 52161, Control_c, 10, 7, 80
14, 52162, Control_c, 10, 7, 81
14, 52163, Control_c, 10, 7, 81
14, 52164, Control_c, 10, 7, 82
14, 52165, Control_c, 10, 7, 82
14, 52166, Control_c, 10, 7, 83
14, 52167, Control_c, 10, 7, 83
14, 52168, Control_c, 10, 7, 84
14, 52169, Control_c, 10, 7, 84
14, 52170, Control_c, 10, 7, 85
14, 52171, Control_c, 10, 7, 85
14, 52172, Control_c, 10, 7, 86
14, 52173, Control_c, 10, 7, 86
14, 52174, Control_c, 10, 7, 87
14, 52175, Control_c, 10, 7, 87
14, 52176, Control_c, 10, 7, 88
14, 52177, Control_c, 10, 7, 88
14, 52178, Control_c, 10, 7, 89
14, 52179, Control_c, 10, 7, 89
14, 52180, Control_c, 10, 7, 90
14, 52181, Control_c, 10, 7, 90
14, 52182, Control_c, 10, 7, 91
14, 52183, Control_c, 10, 7, 91
14, 52184, Control_c, 10, 7, 92
14, 52185, Control_c, 10, 7, 92
14, 52186, Control_c, 10, 7, 93
14, 52187, Control_c, 10, 7, 93
14, 52188, Control_c, 10, 7, 94
14, 52189, Control_c, 10, 7, 94
14, 52190, Control_c, 10, 7, 95
14, 52191, Control_c, 10, 7, 95
14, 52192, Control_c, 10, 7, 96
14, 52193, Control_c, 10, 7, 96
14, 52194, Control_c, 10, 7, 97
14, 52195, Control_c, 10, 7, 97
14, 52196, Control_c, 10, 7, 98
14, 52197, Control_c, 10, 7, 98
14, 52198, Control_c, 10, 7, 99
14, 52199, Control_c, 10, 7, 99
14, 52200, Control_c, 10, 7, 100
14, 52201, Control_c, 10, 7, 100
14, 52202, Control_c, 10, 7, 101
14, 52203, Control_c, 10, 7, 101
14, 52204, Control_c, 10, 7, 102
14, 52205, Control_c, 10, 7, 102
14, 52206, Control_c, 10, 7, 103
14, 52207, Control_c, 10, 7, 103
14, 52208, Control_c, 10, 7, 104
14, 52209, Control_c, 10, 7, 104
14, 52210, Control_c, 10, 7, 105
14, 52211, Control_c, 10, 7, 105
14, 52212, Control_c, 10, 7, 106
14, 52213, Control_c, 10, 7, 106
14, 52214, Control_c, 10, 7, 107
14, 52215, Control_c, 10, 7, 107
14, 52216, Control_c, 10, 7, 108
14, 52217, Control_c, 10, 7, 108
14, 52218, Control_c, 10, 7, 109
14, 52219, Control_c, 10, 7, 109
14, 52220, Control_c, 10, 7, 110
14, 52221, Control_c, 10, 7, 110
14, 52222, Control_c, 10, 7, 111
14, 52223, Control_c, 10, 7, 111
14, 52224, Note_off_c, 10, 27, 64
14, 52224, Note_off_c, 10, 51, 64
14, 52224, Note_off_c, 10, 39, 64
14, 52224, Control_c, 10, 7, 112
14, 52224, Note_on_c, 10, 39, 127
14, 52224, Note_on_c, 10, 51, 127
14, 52224, Note_on_c, 10, 27, 127
14, 52225, Control_c, 10, 7, 64
14, 52226, Control_c, 10, 7, 65
14, 52227, Control_c, 10, 7, 66
14, 52228, Control_c, 10, 7, 67
14, 52229, Control_c, 10, 7, 68
14, 52230, Control_c, 10, 7, 69
14, 52231, Control_c, 10, 7, 69
14, 52232, Control_c, 10, 7, 70
14, 52233, Control_c, 10, 7, 71
14, 52234, Control_c, 10, 7, 72
14, 52235, Control_c, 10, 7, 73
14, 52236, Control_c, 10, 7, 74
14, 52237, Control_c, 10, 7, 75
14, 52238, Control_c, 10, 7, 76
14, 52239, Control_c, 10, 7, 77
14, 52240, Control_c, 10, 7, 78
14, 52241, Control_c, 10, 7, 79
14, 52242, Control_c, 10, 7, 80
14, 52243, Control_c, 10, 7, 81
14, 52244, Control_c, 10, 7, 82
14, 52245, Control_c, 10, 7, 83
14, 52246, Control_c, 10, 7, 85
14, 52247, Control_c, 10, 7, 86
14, 52248, Control_c, 10, 7, 87
14, 52249, Control_c, 10, 7, 88
14, 52250, Control_c, 10, 7, 89
14, 52251, Control_c, 10, 7, 90
14, 52252, Control_c, 10, 7, 91
14, 52253, Control_c, 10, 7, 92
14, 52254, Control_c, 10, 7, 93
14, 52255, Control_c, 10, 7, 94
14, 52256, Control_c, 10, 7, 95
14, 52257, Control_c, 10, 7, 96
14, 52258, Control_c, 10, 7, 97
14, 52259, Control_c, 10, 7, 98
14, 52260, Control_c, 10, 7, 99
14, 52261, Control_c, 10, 7, 100
14, 52262, Control_c, 10, 7, 102
14, 52263, Control_c, 10, 7, 103
14, 52264, Control_c, 10, 7, 104
14, 52265, Control_c, 10, 7, 105
14, 52266, Control_c, 10, 7, 106
14, 52267, Control_c, 10, 7, 107
14, 52268, Control_c, 10, 7, 108
14, 52269, Control_c, 10, 7, 109
14, 52270, Control_c, 10, 7, 110
14, 52271, Control_c, 10, 7, 111
14, 52272, Note_off_c, 10, 51, 64
14, 52272, Note_off_c, 10, 27, 64
14, 52272, Note_off_c, 10, 39, 64
14, 52272, Control_c, 10, 7, 65
14, 52272, Note_on_c, 10, 39, 127
14, 52272, Note_on_c, 10, 51, 127
14, 52272, Note_on_c, 10, 27, 127
14, 52273, Control_c, 10, 7, 66
14, 52274, Control_c, 10, 7, 67
14, 52275, Control_c, 10, 7, 67
14, 52276, Control_c, 10, 7, 68
14, 52277, Control_c, 10, 7, 69
14, 52278, Control_c, 10, 7, 70
14, 52279, Control_c, 10, 7, 71
14, 52280, Control_c, 10, 7, 72
14, 52281, Control_c, 10, 7, 73
14, 52282, Control_c, 10, 7, 74
14, 52283, Control_c, 10, 7, 75
14, 52284, Control_c, 10, 7, 76
14, 52285, Control_c, 10, 7, 77
14, 52286, Control_c, 10, 7, 78
14, 52287, Control_c, 10, 7, 79
14, 52288, Control_c, 10, 7, 80
14, 52289, Control_c, 10, 7, 81
14, 52290, Control_c, 10, 7, 82
14, 52291, Control_c, 10, 7, 83
14, 52292, Control_c, 10, 7, 84
14, 52293, Control_c, 10, 7, 85
14, 52294, Control_c, 10, 7, 86
14, 52295, Control_c, 10, 7, 87
14, 52296, Control_c, 10, 7, 88
14, 52297, Control_c, 10, 7, 89
14, 52298, Control_c, 10, 7, 89
14, 52299, Control_c, 10, 7, 90
14, 52300, Control_c, 10, 7, 91
14, 52301, Control_c, 10, 7, 92
14, 52302, Control_c, 10, 7, 93
14, 52303, Control_c, 10, 7, 94
14, 52304, Control_c, 10, 7, 95
14, 52305, Control_c, 10, 7, 96
14, 52306, Control_c, 10, 7, 97
14, 52307, Control_c, 10, 7, 98
14, 52308, Control_c, 10, 7, 99
14, 52309, Control_c, 10, 7, 100
14, 52310, Control_c, 10, 7, 101
14, 52311, Control_c, 10, 7, 102
14, 52312, Control_c, 10, 7, 103
14, 52313, Control_c, 10, 7, 104
14, 52314, Control_c, 10, 7, 105
14, 52315, Control_c, 10, 7, 106
14, 52316, Control_c, 10, 7, 107
14, 52317, Control_c, 10, 7, 108
14, 52318, Control_c, 10, 7, 109
14, 52319, Control_c, 10, 7, 110
14, 52320, Note_off_c, 10, 27, 64
14, 52320, Note_off_c, 10, 51, 64
14, 52320, Note_off_c, 10, 39, 64
14, 52320, Control_c, 10, 7, 64
14, 52320, Note_on_c, 10, 39, 127
14, 52320, Note_on_c, 10, 51, 127
14, 52320, Note_on_c, 10, 27, 127
14, 52321, Control_c, 10, 7, 65
14, 52322, Control_c, 10, 7, 65
14, 52323, Control_c, 10, 7, 66
14, 52324, Control_c, 10, 7, 67
14, 52325, Control_c, 10, 7, 68
14, 52326, Control_c, 10, 7, 69
14, 52327, Control_c, 10, 7, 70
14, 52328, Control_c, 10, 7, 70
14, 52329, Control_c, 10, 7, 71
14, 52330, Control_c, 10, 7, 72
14, 52331, Control_c, 10, 7, 73
14, 52332, Control_c, 10, 7, 74
14, 52333, Control_c, 10, 7, 75
14, 52334, Control_c, 10, 7, 76
14, 52335, Control_c, 10, 7, 77
14, 52336, Control_c, 10, 7, 78
14, 52337, Control_c, 10, 7, 79
14, 52338, Control_c, 10, 7, 80
14, 52339, Control_c, 10, 7, 81
14, 52340, Control_c, 10, 7, 82
14, 52341, Control_c, 10, 7, 83
14, 52342, Control_c, 10, 7, 84
14, 52343, Control_c, 10, 7, 85
14, 52344, Control_c, 10, 7, 86
14, 52345, Control_c, 10, 7, 88
14, 52346, Control_c, 10, 7, 89
14, 52347, Control_c, 10, 7, 90
14, 52348, Control_c, 10, 7, 91
14, 52349, Control_c, 10, 7, 92
14, 52350, Control_c, 10, 7, 93
14, 52351, Control_c, 10, 7, 94
14, 52352, Control_c, 10, 7, 95
14, 52353, Control_c, 10, 7, 96
14, 52354, Control_c, 10, 7, 97
14, 52355, Control_c, 10, 7, 98
14, 52356, Control_c, 10, 7, 99
14, 52357, Control_c, 10, 7, 100
14, 52358, Control_c, 10, 7, 101
14, 52359, Control_c, 10, 7, 102
14, 52360, Control_c, 10, 7, 103
14, 52361, Control_c, 10, 7, 104
14, 52362, Control_c, 10, 7, 105
14, 52363, Control_c, 10, 7, 106
14, 52364, Control_c, 10, 7, 107
14, 52365, Control_c, 10, 7, 108
14, 52366, Control_c, 10, 7, 109
14, 52367, Control_c, 10, 7, 110
14, 52368, Note_off_c, 10, 27, 64
14, 52368, Note_off_c, 10, 51, 64
14, 52368, Note_off_c, 10, 39, 64
14, 52368, Control_c, 10, 7, 66
14, 52368, Note_on_c, 10, 39, 127
14, 52368, Note_on_c, 10, 51, 127
14, 52368, Note_on_c, 10, 27, 127
14, 52369, Control_c, 10, 7, 67
14, 52370, Control_c, 10, 7, 68
14, 52371, Control_c, 10, 7, 69
14, 52372, Control_c, 10, 7, 69
14, 52373, Control_c, 10, 7, 70
14, 52374, Control_c, 10, 7, 71
14, 52375, Control_c, 10, 7, 72
14, 52376, Control_c, 10, 7, 73
14, 52377, Control_c, 10, 7, 74
14, 52378, Control_c, 10, 7, 75
14, 52379, Control_c, 10, 7, 76
14, 52380, Control_c, 10, 7, 77
14, 52381, Control_c, 10, 7, 77
14, 52382, Control_c, 10, 7, 78
14, 52383, Control_c, 10, 7, 79
14, 52384, Control_c, 10, 7, 80
14, 52385, Control_c, 10, 7, 81
14, 52386, Control_c, 10, 7, 82
14, 52387, Control_c, 10, 7, 83
14, 52388, Control_c, 10, 7, 84
14, 52389, Control_c, 10, 7, 84
14, 52390, Control_c, 10, 7, 85
14, 52391, Control_c, 10, 7, 86
14, 52392, Control_c, 10, 7, 87
14, 52393, Control_c, 10, 7, 88
14, 52394, Control_c, 10, 7, 89
14, 52395, Control_c, 10, 7, 90
14, 52396, Control_c, 10, 7, 91
14, 52397, Control_c, 10, 7, 91
14, 52398, Control_c, 10, 7, 92
14, 52399, Control_c, 10, 7, 93
14, 52400, Control_c, 10, 7, 94
14, 52401, Control_c, 10, 7, 95
14, 52402, Control_c, 10, 7, 96
14, 52403, Control_c, 10, 7, 97
14, 52404, Control_c, 10, 7, 98
14, 52405, Control_c, 10, 7, 98
14, 52406, Control_c, 10, 7, 99
14, 52407, Control_c, 10, 7, 100
14, 52408, Control_c, 10, 7, 101
14, 52409, Control_c, 10, 7, 102
14, 52410, Control_c, 10, 7, 103
14, 52411, Control_c, 10, 7, 104
14, 52412, Control_c, 10, 7, 104
14, 52413, Control_c, 10, 7, 105
14, 52414, Control_c, 10, 7, 106
14, 52415, Control_c, 10, 7, 107
14, 52416, Note_off_c, 10, 27, 64
14, 52416, Note_off_c, 10, 51, 64
14, 52416, Note_off_c, 10, 39, 64
14, 52416, Control_c, 10, 7, 67
14, 52416, Note_on_c, 10, 39, 127
14, 52416, Note_on_c, 10, 51, 127
14, 52416, Note_on_c, 10, 27, 127
14, 52417, Control_c, 10, 7, 68
14, 52418, Control_c, 10, 7, 69
14, 52419, Control_c, 10, 7, 70
14, 52420, Control_c, 10, 7, 71
14, 52421, Control_c, 10, 7, 72
14, 52422, Control_c, 10, 7, 73
14, 52423, Control_c, 10, 7, 74
14, 52424, Control_c, 10, 7, 75
14, 52425, Control_c, 10, 7, 75
14, 52426, Control_c, 10, 7, 76
14, 52427, Control_c, 10, 7, 77
14, 52428, Control_c, 10, 7, 78
14, 52429, Control_c, 10, 7, 79
14, 52430, Control_c, 10, 7, 80
14, 52431, Control_c, 10, 7, 81
14, 52432, Control_c, 10, 7, 82
14, 52433, Control_c, 10, 7, 83
14, 52434, Control_c, 10, 7, 84
14, 52435, Control_c, 10, 7, 85
14, 52436, Control_c, 10, 7, 86
14, 52437, Control_c, 10, 7, 87
14, 52438, Control_c, 10, 7, 88
14, 52439, Control_c, 10, 7, 89
14, 52440, Control_c, 10, 7, 90
14, 52441, Control_c, 10, 7, 90
14, 52442, Control_c, 10, 7, 91
14, 52443, Control_c, 10, 7, 92
14, 52444, Control_c, 10, 7, 93
14, 52445, Control_c, 10, 7, 94
14, 52446, Control_c, 10, 7, 95
14, 52447, Control_c, 10, 7, 96
14, 52448, Control_c, 10, 7, 97
14, 52449, Control_c, 10, 7, 98
14, 52450, Control_c, 10, 7, 99
14, 52451, Control_c, 10, 7, 100
14, 52452, Control_c, 10, 7, 101
14, 52453, Control_c, 10, 7, 102
14, 52454, Control_c, 10, 7, 103
14, 52455, Control_c, 10, 7, 104
14, 52456, Control_c, 10, 7, 105
14, 52457, Control_c, 10, 7, 106
14, 52458, Control_c, 10, 7, 106
14, 52459, Control_c, 10, 7, 107
14, 52460, Control_c, 10, 7, 108
14, 52461, Control_c, 10, 7, 109
14, 52462, Control_c, 10, 7, 110
14, 52463, Control_c, 10, 7, 111
14, 52464, Note_off_c, 10, 27, 64
14, 52464, Note_off_c, 10, 51, 64
14, 52464, Note_off_c, 10, 39, 64
14, 52464, Control_c, 10, 7, 61
14, 52464, Note_on_c, 10, 39, 127
14, 52464, Note_on_c, 10, 51, 127
14, 52464, Note_on_c, 10, 27, 127
14, 52465, Control_c, 10, 7, 62
14, 52466, Control_c, 10, 7, 63
14, 52467, Control_c, 10, 7, 64
14, 52468, Control_c, 10, 7, 65
14, 52469, Control_c, 10, 7, 66
14, 52470, Control_c, 10, 7, 67
14, 52471, Control_c, 10, 7, 68
14, 52472, Control_c, 10, 7, 70
14, 52473, Control_c, 10, 7, 71
14, 52474, Control_c, 10, 7, 72
14, 52475, Control_c, 10, 7, 73
14, 52476, Control_c, 10, 7, 74
14, 52477, Control_c, 10, 7, 75
14, 52478, Control_c, 10, 7, 76
14, 52479, Control_c, 10, 7, 78
14, 52480, Control_c, 10, 7, 79
14, 52481, Control_c, 10, 7, 80
14, 52482, Control_c, 10, 7, 81
14, 52483, Control_c, 10, 7, 82
14, 52484, Control_c, 10, 7, 83
14, 52485, Control_c, 10, 7, 84
14, 52486, Control_c, 10, 7, 85
14, 52487, Control_c, 10, 7, 87
14, 52488, Control_c, 10, 7, 88
14, 52489, Control_c, 10, 7, 89
14, 52490, Control_c, 10, 7, 90
14, 52491, Control_c, 10, 7, 91
14, 52492, Control_c, 10, 7, 92
14, 52493, Control_c, 10, 7, 93
14, 52494, Control_c, 10, 7, 95
14, 52495, Control_c, 10, 7, 96
14, 52496, Control_c, 10, 7, 97
14, 52497, Control_c, 10, 7, 98
14, 52498, Control_c, 10, 7, 99
14, 52499, Control_c, 10, 7, 100
14, 52500, Control_c, 10, 7, 101
14, 52501, Control_c, 10, 7, 102
14, 52502, Control_c, 10, 7, 104
14, 52503, Control_c, 10, 7, 105
14, 52504, Control_c, 10, 7, 106
14, 52505, Control_c, 10, 7, 107
14, 52506, Control_c, 10, 7, 108
14, 52507, Control_c, 10, 7, 110
14, 52508, Control_c, 10, 7, 111
14, 52509, Control_c, 10, 7, 112
14, 52510, Control_c, 10, 7, 113
14, 52511, Control_c, 10, 7, 114
14, 52512, Note_off_c, 10, 27, 64
14, 52512, Note_off_c, 10, 51, 64
14, 52512, Note_off_c, 10, 39, 64
14, 52512, Control_c, 10, 7, 65
14, 52512, Note_on_c, 10, 39, 127
14, 52512, Note_on_c, 10, 51, 127
14, 52512, Note_on_c, 10, 27, 127
14, 52513, Control_c, 10, 7, 66
14, 52514, Control_c, 10, 7, 67
14, 52515, Control_c, 10, 7, 68
14, 52516, Control_c, 10, 7, 70
14, 52517, Control_c, 10, 7, 71
14, 52518, Control_c, 10, 7, 72
14, 52519, Control_c, 10, 7, 73
14, 52520, Control_c, 10, 7, 74
14, 52521, Control_c, 10, 7, 75
14, 52522, Control_c, 10, 7, 76
14, 52523, Control_c, 10, 7, 77
14, 52524, Control_c, 10, 7, 78
14, 52525, Control_c, 10, 7, 79
14, 52526, Control_c, 10, 7, 80
14, 52527, Control_c, 10, 7, 81
14, 52528, Control_c, 10, 7, 82
14, 52529, Control_c, 10, 7, 83
14, 52530, Control_c, 10, 7, 84
14, 52531, Control_c, 10, 7, 85
14, 52532, Control_c, 10, 7, 86
14, 52533, Control_c, 10, 7, 88
14, 52534, Control_c, 10, 7, 89
14, 52535, Control_c, 10, 7, 90
14, 52536, Control_c, 10, 7, 91
14, 52537, Control_c, 10, 7, 92
14, 52538, Control_c, 10, 7, 93
14, 52539, Control_c, 10, 7, 94
14, 52540, Control_c, 10, 7, 95
14, 52541, Control_c, 10, 7, 96
14, 52542, Control_c, 10, 7, 97
14, 52543, Control_c, 10, 7, 98
14, 52544, Control_c, 10, 7, 99
14, 52545, Control_c, 10, 7, 100
14, 52546, Control_c, 10, 7, 101
14, 52547, Control_c, 10, 7, 102
14, 52548, Control_c, 10, 7, 103
14, 52549, Control_c, 10, 7, 105
14, 52550, Control_c, 10, 7, 106
14, 52551, Control_c, 10, 7, 107
14, 52552, Control_c, 10, 7, 108
14, 52553, Control_c, 10, 7, 109
14, 52554, Control_c, 10, 7, 109
14, 52555, Control_c, 10, 7, 110
14, 52556, Control_c, 10, 7, 112
14, 52557, Control_c, 10, 7, 113
14, 52558, Control_c, 10, 7, 114
14, 52559, Control_c, 10, 7, 115
14, 52560, Note_off_c, 10, 27, 64
14, 52560, Note_off_c, 10, 51, 64
14, 52560, Note_off_c, 10, 39, 64
14, 52560, Control_c, 10, 7, 67
14, 52560, Note_on_c, 10, 39, 127
14, 52560, Note_on_c, 10, 51, 127
14, 52560, Note_on_c, 10, 27, 127
14, 52561, Control_c, 10, 7, 68
14, 52562, Control_c, 10, 7, 69
14, 52563, Control_c, 10, 7, 70
14, 52564, Control_c, 10, 7, 71
14, 52565, Control_c, 10, 7, 71
14, 52566, Control_c, 10, 7, 72
14, 52567, Control_c, 10, 7, 73
14, 52568, Control_c, 10, 7, 74
14, 52569, Control_c, 10, 7, 75
14, 52570, Control_c, 10, 7, 76
14, 52571, Control_c, 10, 7, 77
14, 52572, Control_c, 10, 7, 78
14, 52573, Control_c, 10, 7, 79
14, 52574, Control_c, 10, 7, 80
14, 52575, Control_c, 10, 7, 81
14, 52576, Control_c, 10, 7, 82
14, 52577, Control_c, 10, 7, 83
14, 52578, Control_c, 10, 7, 84
14, 52579, Control_c, 10, 7, 85
14, 52580, Control_c, 10, 7, 86
14, 52581, Control_c, 10, 7, 87
14, 52582, Control_c, 10, 7, 88
14, 52583, Control_c, 10, 7, 89
14, 52584, Control_c, 10, 7, 90
14, 52585, Control_c, 10, 7, 91
14, 52586, Control_c, 10, 7, 92
14, 52587, Control_c, 10, 7, 93
14, 52588, Control_c, 10, 7, 94
14, 52589, Control_c, 10, 7, 95
14, 52590, Control_c, 10, 7, 96
14, 52591, Control_c, 10, 7, 97
14, 52592, Control_c, 10, 7, 98
14, 52593, Control_c, 10, 7, 99
14, 52594, Control_c, 10, 7, 100
14, 52595, Control_c, 10, 7, 101
14, 52596, Control_c, 10, 7, 102
14, 52597, Control_c, 10, 7, 103
14, 52598, Control_c, 10, 7, 104
14, 52599, Control_c, 10, 7, 104
14, 52600, Control_c, 10, 7, 105
14, 52601, Control_c, 10, 7, 106
14, 52602, Control_c, 10, 7, 107
14, 52603, Control_c, 10, 7, 108
14, 52604, Control_c, 10, 7, 109
14, 52605, Control_c, 10, 7, 110
14, 52606, Control_c, 10, 7, 111
14, 52607, Control_c, 10, 7, 112
14, 52608, Note_off_c, 10, 27, 64
14, 52608, Note_off_c, 10, 51, 64
14, 52608, Note_off_c, 10, 39, 64
14, 52608, Control_c, 10, 7, 50
14, 52608, Note_on_c, 10, 41, 127
14, 52608, Note_on_c, 10, 29, 127
14, 52608, Note_on_c, 10, 53, 127
14, 52610, Control_c, 10, 7, 50
14, 52611, Control_c, 10, 7, 51
14, 52612, Control_c, 10, 7, 51
14, 52613, Control_c, 10, 7, 52
14, 52614, Control_c, 10, 7, 52
14, 52615, Control_c, 10, 7, 52
14, 52616, Control_c, 10, 7, 53
14, 52617, Control_c, 10, 7, 53
14, 52618, Control_c, 10, 7, 54
14, 52619, Control_c, 10, 7, 54
14, 52620, Control_c, 10, 7, 54
14, 52621, Control_c, 10, 7, 55
14, 52622, Control_c, 10, 7, 55
14, 52623, Control_c, 10, 7, 55
14, 52624, Control_c, 10, 7, 56
14, 52625, Control_c, 10, 7, 56
14, 52626, Control_c, 10, 7, 57
14, 52627, Control_c, 10, 7, 57
14, 52628, Control_c, 10, 7, 57
14, 52629, Control_c, 10, 7, 58
14, 52630, Control_c, 10, 7, 58
14, 52631, Control_c, 10, 7, 59
14, 52632, Control_c, 10, 7, 59
14, 52633, Control_c, 10, 7, 59
14, 52634, Control_c, 10, 7, 60
14, 52635, Control_c, 10, 7, 60
14, 52636, Control_c, 10, 7, 61
14, 52637, Control_c, 10, 7, 61
14, 52638, Control_c, 10, 7, 61
14, 52639, Control_c, 10, 7, 62
14, 52640, Control_c, 10, 7, 62
14, 52641, Control_c, 10, 7, 62
14, 52642, Control_c, 10, 7, 63
14, 52643, Control_c, 10, 7, 63
14, 52644, Control_c, 10, 7, 64
14, 52645, Control_c, 10, 7, 64
14, 52646, Control_c, 10, 7, 64
14, 52647, Control_c, 10, 7, 65
14, 52648, Control_c, 10, 7, 65
14, 52649, Control_c, 10, 7, 66
14, 52650, Control_c, 10, 7, 66
14, 52651, Control_c, 10, 7, 66
14, 52652, Control_c, 10, 7, 67
14, 52653, Control_c, 10, 7, 67
14, 52654, Control_c, 10, 7, 68
14, 52655, Control_c, 10, 7, 68
14, 52656, Control_c, 10, 7, 68
14, 52657, Control_c, 10, 7, 69
14, 52658, Control_c, 10, 7, 69
14, 52659, Control_c, 10, 7, 69
14, 52660, Control_c, 10, 7, 70
14, 52661, Control_c, 10, 7, 70
14, 52662, Control_c, 10, 7, 71
14, 52663, Control_c, 10, 7, 71
14, 52664, Control_c, 10, 7, 71
14, 52665, Control_c, 10, 7, 72
14, 52666, Control_c, 10, 7, 72
14, 52667, Control_c, 10, 7, 73
14, 52668, Control_c, 10, 7, 73
14, 52669, Control_c, 10, 7, 73
14, 52670, Control_c, 10, 7, 74
14, 52671, Control_c, 10, 7, 74
14, 52672, Control_c, 10, 7, 75
14, 52673, Control_c, 10, 7, 75
14, 52674, Control_c, 10, 7, 75
14, 52675, Control_c, 10, 7, 76
14, 52676, Control_c, 10, 7, 76
14, 52677, Control_c, 10, 7, 76
14, 52678, Control_c, 10, 7, 77
14, 52679, Control_c, 10, 7, 77
14, 52680, Control_c, 10, 7, 78
14, 52681, Control_c, 10, 7, 78
14, 52682, Control_c, 10, 7, 78
14, 52683, Control_c, 10, 7, 79
14, 52684, Control_c, 10, 7, 79
14, 52685, Control_c, 10, 7, 80
14, 52686, Control_c, 10, 7, 80
14, 52687, Control_c, 10, 7, 80
14, 52688, Control_c, 10, 7, 81
14, 52689, Control_c, 10, 7, 81
14, 52690, Control_c, 10, 7, 82
14, 52691, Control_c, 10, 7, 82
14, 52692, Control_c, 10, 7, 82
14, 52693, Control_c, 10, 7, 83
14, 52694, Control_c, 10, 7, 83
14, 52695, Control_c, 10, 7, 83
14, 52696, Control_c, 10, 7, 84
14, 52697, Control_c, 10, 7, 84
14, 52698, Control_c, 10, 7, 85
14, 52699, Control_c, 10, 7, 85
14, 52700, Control_c, 10, 7, 85
14, 52701, Control_c, 10, 7, 86
14, 52702, Control_c, 10, 7, 86
14, 52703, Control_c, 10, 7, 87
14, 52704, Control_c, 10, 7, 87
14, 52705, Control_c, 10, 7, 87
14, 52706, Control_c, 10, 7, 88
14, 52707, Control_c, 10, 7, 88
14, 52708, Control_c, 10, 7, 89
14, 52709, Control_c, 10, 7, 89
14, 52710, Control_c, 10, 7, 89
14, 52711, Control_c, 10, 7, 90
14, 52712, Control_c, 10, 7, 90
14, 52713, Control_c, 10, 7, 90
14, 52714, Control_c, 10, 7, 91
14, 52715, Control_c, 10, 7, 91
14, 52716, Control_c, 10, 7, 92
14, 52717, Control_c, 10, 7, 92
14, 52718, Control_c, 10, 7, 92
14, 52719, Control_c, 10, 7, 93
14, 52720, Control_c, 10, 7, 93
14, 52721, Control_c, 10, 7, 94
14, 52722, Control_c, 10, 7, 94
14, 52723, Control_c, 10, 7, 94
14, 52724, Control_c, 10, 7, 95
14, 52725, Control_c, 10, 7, 95
14, 52726, Control_c, 10, 7, 96
14, 52727, Control_c, 10, 7, 96
14, 52728, Control_c, 10, 7, 96
14, 52729, Control_c, 10, 7, 97
14, 52730, Control_c, 10, 7, 97
14, 52731, Control_c, 10, 7, 97
14, 52732, Control_c, 10, 7, 98
14, 52733, Control_c, 10, 7, 98
14, 52734, Control_c, 10, 7, 99
14, 52735, Control_c, 10, 7, 99
14, 52736, Control_c, 10, 7, 99
14, 52737, Control_c, 10, 7, 100
14, 52738, Control_c, 10, 7, 100
14, 52739, Control_c, 10, 7, 101
14, 52740, Control_c, 10, 7, 101
14, 52741, Control_c, 10, 7, 101
14, 52742, Control_c, 10, 7, 102
14, 52743, Control_c, 10, 7, 102
14, 52744, Control_c, 10, 7, 103
14, 52745, Control_c, 10, 7, 103
14, 52746, Control_c, 10, 7, 103
14, 52747, Control_c, 10, 7, 104
14, 52748, Control_c, 10, 7, 104
14, 52749, Control_c, 10, 7, 104
14, 52750, Control_c, 10, 7, 105
14, 52751, Control_c, 10, 7, 105
14, 52752, Note_off_c, 10, 53, 64
14, 52752, Note_off_c, 10, 29, 64
14, 52752, Note_off_c, 10, 41, 64
14, 52752, Control_c, 10, 7, 54
14, 52752, Note_on_c, 10, 43, 127
14, 52752, Note_on_c, 10, 31, 127
14, 52752, Note_on_c, 10, 55, 127
14, 52753, Control_c, 10, 7, 55
14, 52754, Control_c, 10, 7, 55
14, 52755, Control_c, 10, 7, 56
14, 52756, Control_c, 10, 7, 57
14, 52757, Control_c, 10, 7, 57
14, 52758, Control_c, 10, 7, 57
14, 52759, Control_c, 10, 7, 58
14, 52760, Control_c, 10, 7, 58
14, 52761, Control_c, 10, 7, 58
14, 52762, Control_c, 10, 7, 59
14, 52763, Control_c, 10, 7, 59
14, 52764, Control_c, 10, 7, 59
14, 52765, Control_c, 10, 7, 60
14, 52766, Control_c, 10, 7, 60
14, 52767, Control_c, 10, 7, 61
14, 52768, Control_c, 10, 7, 61
14, 52769, Control_c, 10, 7, 61
14, 52770, Control_c, 10, 7, 62
14, 52771, Control_c, 10, 7, 62
14, 52772, Control_c, 10, 7, 62
14, 52773, Control_c, 10, 7, 63
14, 52774, Control_c, 10, 7, 63
14, 52775, Control_c, 10, 7, 63
14, 52776, Control_c, 10, 7, 63
14, 52777, Control_c, 10, 7, 64
14, 52778, Control_c, 10, 7, 64
14, 52779, Control_c, 10, 7, 65
14, 52780, Control_c, 10, 7, 65
14, 52781, Control_c, 10, 7, 65
14, 52782, Control_c, 10, 7, 66
14, 52783, Control_c, 10, 7, 66
14, 52784, Control_c, 10, 7, 66
14, 52785, Control_c, 10, 7, 67
14, 52786, Control_c, 10, 7, 67
14, 52787, Control_c, 10, 7, 68
14, 52788, Control_c, 10, 7, 68
14, 52789, Control_c, 10, 7, 68
14, 52790, Control_c, 10, 7, 69
14, 52791, Control_c, 10, 7, 69
14, 52792, Control_c, 10, 7, 69
14, 52793, Control_c, 10, 7, 70
14, 52794, Control_c, 10, 7, 70
14, 52795, Control_c, 10, 7, 71
14, 52796, Control_c, 10, 7, 71
14, 52797, Control_c, 10, 7, 71
14, 52798, Control_c, 10, 7, 72
14, 52799, Control_c, 10, 7, 72
14, 52800, Control_c, 10, 7, 73
14, 52801, Control_c, 10, 7, 73
14, 52802, Control_c, 10, 7, 73
14, 52803, Control_c, 10, 7, 74
14, 52804, Control_c, 10, 7, 74
14, 52805, Control_c, 10, 7, 74
14, 52806, Control_c, 10, 7, 75
14, 52807, Control_c, 10, 7, 75
14, 52808, Control_c, 10, 7, 76
14, 52809, Control_c, 10, 7, 76
14, 52810, Control_c, 10, 7, 76
14, 52811, Control_c, 10, 7, 77
14, 52812, Control_c, 10, 7, 77
14, 52813, Control_c, 10, 7, 77
14, 52814, Control_c, 10, 7, 78
14, 52815, Control_c, 10, 7, 78
14, 52816, Control_c, 10, 7, 79
14, 52817, Control_c, 10, 7, 79
14, 52818, Control_c, 10, 7, 79
14, 52819, Control_c, 10, 7, 80
14, 52820, Control_c, 10, 7, 80
14, 52821, Control_c, 10, 7, 80
14, 52822, Control_c, 10, 7, 81
14, 52823, Control_c, 10, 7, 81
14, 52824, Control_c, 10, 7, 82
14, 52825, Control_c, 10, 7, 82
14, 52826, Control_c, 10, 7, 82
14, 52827, Control_c, 10, 7, 83
14, 52828, Control_c, 10, 7, 83
14, 52829, Control_c, 10, 7, 84
14, 52830, Control_c, 10, 7, 84
14, 52831, Control_c, 10, 7, 84
14, 52832, Control_c, 10, 7, 85
14, 52833, Control_c, 10, 7, 85
14, 52834, Control_c, 10, 7, 85
14, 52835, Control_c, 10, 7, 86
14, 52836, Control_c, 10, 7, 86
14, 52837, Control_c, 10, 7, 87
14, 52838, Control_c, 10, 7, 87
14, 52839, Control_c, 10, 7, 87
14, 52840, Control_c, 10, 7, 88
14, 52841, Control_c, 10, 7, 88
14, 52842, Control_c, 10, 7, 88
14, 52843, Control_c, 10, 7, 89
14, 52844, Control_c, 10, 7, 89
14, 52845, Control_c, 10, 7, 90
14, 52846, Control_c, 10, 7, 90
14, 52847, Control_c, 10, 7, 90
14, 52848, Control_c, 10, 7, 91
14, 52849, Control_c, 10, 7, 91
14, 52850, Control_c, 10, 7, 92
14, 52851, Control_c, 10, 7, 92
14, 52852, Control_c, 10, 7, 92
14, 52853, Control_c, 10, 7, 93
14, 52854, Control_c, 10, 7, 93
14, 52855, Control_c, 10, 7, 93
14, 52856, Control_c, 10, 7, 94
14, 52857, Control_c, 10, 7, 94
14, 52858, Control_c, 10, 7, 95
14, 52859, Control_c, 10, 7, 95
14, 52860, Control_c, 10, 7, 95
14, 52861, Control_c, 10, 7, 96
14, 52862, Control_c, 10, 7, 96
14, 52863, Control_c, 10, 7, 96
14, 52864, Control_c, 10, 7, 97
14, 52865, Control_c, 10, 7, 97
14, 52866, Control_c, 10, 7, 98
14, 52867, Control_c, 10, 7, 98
14, 52868, Control_c, 10, 7, 98
14, 52869, Control_c, 10, 7, 99
14, 52870, Control_c, 10, 7, 99
14, 52871, Control_c, 10, 7, 99
14, 52872, Control_c, 10, 7, 100
14, 52873, Control_c, 10, 7, 100
14, 52874, Control_c, 10, 7, 101
14, 52875, Control_c, 10, 7, 101
14, 52876, Control_c, 10, 7, 101
14, 52877, Control_c, 10, 7, 102
14, 52878, Control_c, 10, 7, 102
14, 52879, Control_c, 10, 7, 103
14, 52880, Control_c, 10, 7, 103
14, 52881, Control_c, 10, 7, 103
14, 52882, Control_c, 10, 7, 104
14, 52883, Control_c, 10, 7, 104
14, 52884, Control_c, 10, 7, 104
14, 52885, Control_c, 10, 7, 105
14, 52886, Control_c, 10, 7, 105
14, 52887, Control_c, 10, 7, 106
14, 52888, Control_c, 10, 7, 106
14, 52889, Control_c, 10, 7, 106
14, 52890, Control_c, 10, 7, 107
14, 52891, Control_c, 10, 7, 107
14, 52892, Control_c, 10, 7, 107
14, 52893, Control_c, 10, 7, 108
14, 52894, Control_c, 10, 7, 108
14, 52895, Control_c, 10, 7, 109
14, 52896, Note_off_c, 10, 55, 64
14, 52896, Note_off_c, 10, 31, 64
14, 52896, Note_off_c, 10, 43, 64
14, 52896, Control_c, 10, 7, 108
14, 52896, Note_on_c, 10, 39, 127
14, 52896, Note_on_c, 10, 27, 127
14, 52896, Note_on_c, 10, 51, 127
14, 52897, Control_c, 10, 7, 108
14, 52898, Control_c, 10, 7, 107
14, 52899, Control_c, 10, 7, 107
14, 52900, Control_c, 10, 7, 106
14, 52901, Control_c, 10, 7, 106
14, 52902, Control_c, 10, 7, 105
14, 52903, Control_c, 10, 7, 105
14, 52904, Control_c, 10, 7, 105
14, 52905, Control_c, 10, 7, 104
14, 52906, Control_c, 10, 7, 104
14, 52907, Control_c, 10, 7, 103
14, 52908, Control_c, 10, 7, 103
14, 52909, Control_c, 10, 7, 102
14, 52910, Control_c, 10, 7, 102
14, 52911, Control_c, 10, 7, 101
14, 52912, Control_c, 10, 7, 101
14, 52913, Control_c, 10, 7, 100
14, 52914, Control_c, 10, 7, 100
14, 52915, Control_c, 10, 7, 99
14, 52916, Control_c, 10, 7, 99
14, 52917, Control_c, 10, 7, 98
14, 52918, Control_c, 10, 7, 98
14, 52919, Control_c, 10, 7, 97
14, 52920, Control_c, 10, 7, 97
14, 52921, Control_c, 10, 7, 96
14, 52922, Control_c, 10, 7, 96
14, 52923, Control_c, 10, 7, 95
14, 52924, Control_c, 10, 7, 95
14, 52925, Control_c, 10, 7, 94
14, 52926, Control_c, 10, 7, 94
14, 52927, Control_c, 10, 7, 93
14, 52928, Control_c, 10, 7, 93
14, 52929, Control_c, 10, 7, 92
14, 52930, Control_c, 10, 7, 92
14, 52931, Control_c, 10, 7, 91
14, 52932, Control_c, 10, 7, 91
14, 52933, Control_c, 10, 7, 90
14, 52934, Control_c, 10, 7, 90
14, 52935, Control_c, 10, 7, 89
14, 52936, Control_c, 10, 7, 89
14, 52937, Control_c, 10, 7, 88
14, 52938, Control_c, 10, 7, 88
14, 52939, Control_c, 10, 7, 87
14, 52940, Control_c, 10, 7, 87
14, 52941, Control_c, 10, 7, 86
14, 52942, Control_c, 10, 7, 86
14, 52943, Control_c, 10, 7, 85
14, 52944, Control_c, 10, 7, 85
14, 52945, Control_c, 10, 7, 84
14, 52946, Control_c, 10, 7, 84
14, 52947, Control_c, 10, 7, 83
14, 52948, Control_c, 10, 7, 83
14, 52949, Control_c, 10, 7, 82
14, 52950, Control_c, 10, 7, 82
14, 52951, Control_c, 10, 7, 81
14, 52952, Control_c, 10, 7, 81
14, 52953, Control_c, 10, 7, 80
14, 52954, Control_c, 10, 7, 80
14, 52955, Control_c, 10, 7, 79
14, 52956, Control_c, 10, 7, 79
14, 52957, Control_c, 10, 7, 78
14, 52958, Control_c, 10, 7, 78
14, 52959, Control_c, 10, 7, 77
14, 52960, Control_c, 10, 7, 77
14, 52961, Control_c, 10, 7, 76
14, 52962, Control_c, 10, 7, 76
14, 52963, Control_c, 10, 7, 75
14, 52964, Control_c, 10, 7, 75
14, 52965, Control_c, 10, 7, 74
14, 52966, Control_c, 10, 7, 74
14, 52967, Control_c, 10, 7, 73
14, 52968, Control_c, 10, 7, 73
14, 52969, Control_c, 10, 7, 72
14, 52970, Control_c, 10, 7, 72
14, 52971, Control_c, 10, 7, 71
14, 52972, Control_c, 10, 7, 71
14, 52973, Control_c, 10, 7, 70
14, 52974, Control_c, 10, 7, 70
14, 52975, Control_c, 10, 7, 69
14, 52976, Control_c, 10, 7, 69
14, 52977, Control_c, 10, 7, 68
14, 52978, Control_c, 10, 7, 68
14, 52979, Control_c, 10, 7, 67
14, 52980, Control_c, 10, 7, 67
14, 52981, Control_c, 10, 7, 66
14, 52982, Control_c, 10, 7, 66
14, 52983, Control_c, 10, 7, 65
14, 52984, Control_c, 10, 7, 65
14, 52985, Control_c, 10, 7, 64
14, 52986, Control_c, 10, 7, 64
14, 52987, Control_c, 10, 7, 63
14, 52988, Control_c, 10, 7, 63
14, 52989, Control_c, 10, 7, 62
14, 52990, Control_c, 10, 7, 62
14, 52991, Control_c, 10, 7, 61
14, 52992, Control_c, 10, 7, 61
14, 53040, Note_off_c, 10, 51, 64
14, 53040, Note_off_c, 10, 27, 64
14, 53040, Note_off_c, 10, 39, 64
14, 53040, Control_c, 10, 7, 102
14, 53040, Note_on_c, 10, 39, 127
14, 53040, Note_on_c, 10, 27, 127
14, 53040, Note_on_c, 10, 51, 127
14, 53041, Control_c, 10, 7, 102
14, 53042, Control_c, 10, 7, 101
14, 53043, Control_c, 10, 7, 100
14, 53044, Control_c, 10, 7, 99
14, 53045, Control_c, 10, 7, 98
14, 53046, Control_c, 10, 7, 97
14, 53047, Control_c, 10, 7, 96
14, 53048, Control_c, 10, 7, 95
14, 53049, Control_c, 10, 7, 95
14, 53050, Control_c, 10, 7, 94
14, 53051, Control_c, 10, 7, 93
14, 53052, Control_c, 10, 7, 92
14, 53053, Control_c, 10, 7, 91
14, 53054, Control_c, 10, 7, 90
14, 53055, Control_c, 10, 7, 89
14, 53056, Control_c, 10, 7, 88
14, 53057, Control_c, 10, 7, 87
14, 53058, Control_c, 10, 7, 87
14, 53059, Control_c, 10, 7, 86
14, 53060, Control_c, 10, 7, 85
14, 53061, Control_c, 10, 7, 84
14, 53062, Control_c, 10, 7, 83
14, 53063, Control_c, 10, 7, 82
14, 53064, Control_c, 10, 7, 81
14, 53065, Control_c, 10, 7, 80
14, 53066, Control_c, 10, 7, 80
14, 53067, Control_c, 10, 7, 79
14, 53068, Control_c, 10, 7, 78
14, 53069, Control_c, 10, 7, 77
14, 53070, Control_c, 10, 7, 76
14, 53071, Control_c, 10, 7, 75
14, 53072, Control_c, 10, 7, 74
14, 53073, Control_c, 10, 7, 73
14, 53074, Control_c, 10, 7, 73
14, 53075, Control_c, 10, 7, 72
14, 53076, Control_c, 10, 7, 71
14, 53077, Control_c, 10, 7, 70
14, 53078, Control_c, 10, 7, 69
14, 53079, Control_c, 10, 7, 68
14, 53080, Control_c, 10, 7, 67
14, 53081, Control_c, 10, 7, 66
14, 53082, Control_c, 10, 7, 66
14, 53083, Control_c, 10, 7, 65
14, 53084, Control_c, 10, 7, 64
14, 53085, Control_c, 10, 7, 63
14, 53086, Control_c, 10, 7, 62
14, 53087, Control_c, 10, 7, 61
14, 53088, Note_off_c, 10, 51, 64
14, 53088, Note_off_c, 10, 27, 64
14, 53088, Note_off_c, 10, 39, 64
14, 53088, Control_c, 10, 7, 102
14, 53088, Note_on_c, 10, 39, 127
14, 53088, Note_on_c, 10, 27, 127
14, 53088, Note_on_c, 10, 51, 127
14, 53089, Control_c, 10, 7, 102
14, 53090, Control_c, 10, 7, 101
14, 53091, Control_c, 10, 7, 100
14, 53092, Control_c, 10, 7, 99
14, 53093, Control_c, 10, 7, 98
14, 53094, Control_c, 10, 7, 97
14, 53095, Control_c, 10, 7, 96
14, 53096, Control_c, 10, 7, 96
14, 53097, Control_c, 10, 7, 95
14, 53098, Control_c, 10, 7, 94
14, 53099, Control_c, 10, 7, 93
14, 53100, Control_c, 10, 7, 92
14, 53101, Control_c, 10, 7, 91
14, 53102, Control_c, 10, 7, 91
14, 53103, Control_c, 10, 7, 90
14, 53104, Control_c, 10, 7, 89
14, 53105, Control_c, 10, 7, 88
14, 53106, Control_c, 10, 7, 87
14, 53107, Control_c, 10, 7, 86
14, 53108, Control_c, 10, 7, 85
14, 53109, Control_c, 10, 7, 85
14, 53110, Control_c, 10, 7, 84
14, 53111, Control_c, 10, 7, 83
14, 53112, Control_c, 10, 7, 82
14, 53113, Control_c, 10, 7, 81
14, 53114, Control_c, 10, 7, 80
14, 53115, Control_c, 10, 7, 80
14, 53116, Control_c, 10, 7, 79
14, 53117, Control_c, 10, 7, 78
14, 53118, Control_c, 10, 7, 77
14, 53119, Control_c, 10, 7, 76
14, 53120, Control_c, 10, 7, 75
14, 53121, Control_c, 10, 7, 74
14, 53122, Control_c, 10, 7, 74
14, 53123, Control_c, 10, 7, 73
14, 53124, Control_c, 10, 7, 72
14, 53125, Control_c, 10, 7, 71
14, 53126, Control_c, 10, 7, 70
14, 53127, Control_c, 10, 7, 69
14, 53128, Control_c, 10, 7, 68
14, 53129, Control_c, 10, 7, 68
14, 53130, Control_c, 10, 7, 67
14, 53131, Control_c, 10, 7, 66
14, 53132, Control_c, 10, 7, 65
14, 53133, Control_c, 10, 7, 64
14, 53134, Control_c, 10, 7, 102
14, 53135, Control_c, 10, 7, 102
14, 53136, Note_off_c, 10, 51, 64
14, 53136, Note_off_c, 10, 27, 64
14, 53136, Note_off_c, 10, 39, 64
14, 53136, Control_c, 10, 7, 101
14, 53136, Note_on_c, 10, 39, 127
14, 53136, Note_on_c, 10, 27, 127
14, 53136, Note_on_c, 10, 51, 127
14, 53137, Control_c, 10, 7, 100
14, 53138, Control_c, 10, 7, 99
14, 53139, Control_c, 10, 7, 98
14, 53140, Control_c, 10, 7, 97
14, 53141, Control_c, 10, 7, 97
14, 53142, Control_c, 10, 7, 96
14, 53143, Control_c, 10, 7, 95
14, 53144, Control_c, 10, 7, 94
14, 53145, Control_c, 10, 7, 93
14, 53146, Control_c, 10, 7, 93
14, 53147, Control_c, 10, 7, 92
14, 53148, Control_c, 10, 7, 91
14, 53149, Control_c, 10, 7, 90
14, 53150, Control_c, 10, 7, 89
14, 53151, Control_c, 10, 7, 88
14, 53152, Control_c, 10, 7, 88
14, 53153, Control_c, 10, 7, 87
14, 53154, Control_c, 10, 7, 86
14, 53155, Control_c, 10, 7, 85
14, 53156, Control_c, 10, 7, 84
14, 53157, Control_c, 10, 7, 84
14, 53158, Control_c, 10, 7, 83
14, 53159, Control_c, 10, 7, 82
14, 53160, Control_c, 10, 7, 81
14, 53161, Control_c, 10, 7, 80
14, 53162, Control_c, 10, 7, 79
14, 53163, Control_c, 10, 7, 79
14, 53164, Control_c, 10, 7, 78
14, 53165, Control_c, 10, 7, 77
14, 53166, Control_c, 10, 7, 76
14, 53167, Control_c, 10, 7, 75
14, 53168, Control_c, 10, 7, 75
14, 53169, Control_c, 10, 7, 74
14, 53170, Control_c, 10, 7, 73
14, 53171, Control_c, 10, 7, 72
14, 53172, Control_c, 10, 7, 71
14, 53173, Control_c, 10, 7, 70
14, 53174, Control_c, 10, 7, 70
14, 53175, Control_c, 10, 7, 69
14, 53176, Control_c, 10, 7, 68
14, 53177, Control_c, 10, 7, 67
14, 53178, Control_c, 10, 7, 66
14, 53179, Control_c, 10, 7, 66
14, 53180, Control_c, 10, 7, 65
14, 53181, Control_c, 10, 7, 64
14, 53182, Control_c, 10, 7, 63
14, 53183, Control_c, 10, 7, 62
14, 53184, Note_off_c, 10, 51, 64
14, 53184, Note_off_c, 10, 27, 64
14, 53184, Note_off_c, 10, 39, 64
14, 53184, Control_c, 10, 7, 102
14, 53184, Note_on_c, 10, 39, 127
14, 53184, Note_on_c, 10, 27, 127
14, 53184, Note_on_c, 10, 51, 127
14, 53185, Control_c, 10, 7, 102
14, 53186, Control_c, 10, 7, 101
14, 53187, Control_c, 10, 7, 100
14, 53188, Control_c, 10, 7, 99
14, 53189, Control_c, 10, 7, 98
14, 53190, Control_c, 10, 7, 97
14, 53191, Control_c, 10, 7, 96
14, 53192, Control_c, 10, 7, 95
14, 53193, Control_c, 10, 7, 94
14, 53194, Control_c, 10, 7, 94
14, 53195, Control_c, 10, 7, 93
14, 53196, Control_c, 10, 7, 92
14, 53197, Control_c, 10, 7, 91
14, 53198, Control_c, 10, 7, 90
14, 53199, Control_c, 10, 7, 89
14, 53200, Control_c, 10, 7, 88
14, 53201, Control_c, 10, 7, 87
14, 53202, Control_c, 10, 7, 86
14, 53203, Control_c, 10, 7, 86
14, 53204, Control_c, 10, 7, 85
14, 53205, Control_c, 10, 7, 84
14, 53206, Control_c, 10, 7, 83
14, 53207, Control_c, 10, 7, 82
14, 53208, Control_c, 10, 7, 81
14, 53209, Control_c, 10, 7, 80
14, 53210, Control_c, 10, 7, 79
14, 53211, Control_c, 10, 7, 78
14, 53212, Control_c, 10, 7, 78
14, 53213, Control_c, 10, 7, 77
14, 53214, Control_c, 10, 7, 76
14, 53215, Control_c, 10, 7, 75
14, 53216, Control_c, 10, 7, 74
14, 53217, Control_c, 10, 7, 73
14, 53218, Control_c, 10, 7, 72
14, 53219, Control_c, 10, 7, 71
14, 53220, Control_c, 10, 7, 70
14, 53221, Control_c, 10, 7, 69
14, 53222, Control_c, 10, 7, 69
14, 53223, Control_c, 10, 7, 68
14, 53224, Control_c, 10, 7, 67
14, 53225, Control_c, 10, 7, 66
14, 53226, Control_c, 10, 7, 65
14, 53227, Control_c, 10, 7, 64
14, 53228, Control_c, 10, 7, 63
14, 53229, Control_c, 10, 7, 62
14, 53230, Control_c, 10, 7, 61
14, 53231, Control_c, 10, 7, 61
14, 53232, Note_off_c, 10, 51, 64
14, 53232, Note_off_c, 10, 27, 64
14, 53232, Note_off_c, 10, 39, 64
14, 53232, Note_on_c, 10, 39, 127
14, 53232, Note_on_c, 10, 27, 127
14, 53232, Note_on_c, 10, 51, 127
14, 53233, Control_c, 10, 7, 103
14, 53234, Control_c, 10, 7, 102
14, 53235, Control_c, 10, 7, 101
14, 53236, Control_c, 10, 7, 100
14, 53237, Control_c, 10, 7, 99
14, 53238, Control_c, 10, 7, 99
14, 53239, Control_c, 10, 7, 98
14, 53240, Control_c, 10, 7, 97
14, 53241, Control_c, 10, 7, 96
14, 53242, Control_c, 10, 7, 95
14, 53243, Control_c, 10, 7, 94
14, 53244, Control_c, 10, 7, 93
14, 53245, Control_c, 10, 7, 93
14, 53246, Control_c, 10, 7, 92
14, 53247, Control_c, 10, 7, 91
14, 53248, Control_c, 10, 7, 90
14, 53249, Control_c, 10, 7, 89
14, 53250, Control_c, 10, 7, 88
14, 53251, Control_c, 10, 7, 87
14, 53252, Control_c, 10, 7, 87
14, 53253, Control_c, 10, 7, 86
14, 53254, Control_c, 10, 7, 85
14, 53255, Control_c, 10, 7, 84
14, 53256, Control_c, 10, 7, 83
14, 53257, Control_c, 10, 7, 82
14, 53258, Control_c, 10, 7, 81
14, 53259, Control_c, 10, 7, 81
14, 53260, Control_c, 10, 7, 80
14, 53261, Control_c, 10, 7, 79
14, 53262, Control_c, 10, 7, 78
14, 53263, Control_c, 10, 7, 77
14, 53264, Control_c, 10, 7, 76
14, 53265, Control_c, 10, 7, 75
14, 53266, Control_c, 10, 7, 75
14, 53267, Control_c, 10, 7, 74
14, 53268, Control_c, 10, 7, 73
14, 53269, Control_c, 10, 7, 72
14, 53270, Control_c, 10, 7, 71
14, 53271, Control_c, 10, 7, 70
14, 53272, Control_c, 10, 7, 69
14, 53273, Control_c, 10, 7, 69
14, 53274, Control_c, 10, 7, 68
14, 53275, Control_c, 10, 7, 67
14, 53276, Control_c, 10, 7, 66
14, 53277, Control_c, 10, 7, 65
14, 53278, Control_c, 10, 7, 64
14, 53279, Control_c, 10, 7, 64
14, 53280, Note_off_c, 10, 51, 64
14, 53280, Note_off_c, 10, 27, 64
14, 53280, Note_off_c, 10, 39, 64
14, 53280, Note_on_c, 10, 39, 127
14, 53280, Note_on_c, 10, 27, 127
14, 53280, Note_on_c, 10, 51, 127
14, 53281, Control_c, 10, 7, 104
14, 53282, Control_c, 10, 7, 103
14, 53283, Control_c, 10, 7, 102
14, 53284, Control_c, 10, 7, 101
14, 53285, Control_c, 10, 7, 100
14, 53286, Control_c, 10, 7, 99
14, 53287, Control_c, 10, 7, 98
14, 53288, Control_c, 10, 7, 98
14, 53289, Control_c, 10, 7, 97
14, 53290, Control_c, 10, 7, 96
14, 53291, Control_c, 10, 7, 95
14, 53292, Control_c, 10, 7, 94
14, 53293, Control_c, 10, 7, 93
14, 53294, Control_c, 10, 7, 93
14, 53295, Control_c, 10, 7, 92
14, 53296, Control_c, 10, 7, 91
14, 53297, Control_c, 10, 7, 90
14, 53298, Control_c, 10, 7, 89
14, 53299, Control_c, 10, 7, 88
14, 53300, Control_c, 10, 7, 87
14, 53301, Control_c, 10, 7, 87
14, 53302, Control_c, 10, 7, 86
14, 53303, Control_c, 10, 7, 85
14, 53304, Control_c, 10, 7, 84
14, 53305, Control_c, 10, 7, 83
14, 53306, Control_c, 10, 7, 82
14, 53307, Control_c, 10, 7, 82
14, 53308, Control_c, 10, 7, 81
14, 53309, Control_c, 10, 7, 80
14, 53310, Control_c, 10, 7, 79
14, 53311, Control_c, 10, 7, 78
14, 53312, Control_c, 10, 7, 77
14, 53313, Control_c, 10, 7, 76
14, 53314, Control_c, 10, 7, 76
14, 53315, Control_c, 10, 7, 75
14, 53316, Control_c, 10, 7, 74
14, 53317, Control_c, 10, 7, 73
14, 53318, Control_c, 10, 7, 72
14, 53319, Control_c, 10, 7, 71
14, 53320, Control_c, 10, 7, 71
14, 53321, Control_c, 10, 7, 70
14, 53322, Control_c, 10, 7, 69
14, 53323, Control_c, 10, 7, 68
14, 53324, Control_c, 10, 7, 67
14, 53325, Control_c, 10, 7, 66
14, 53326, Control_c, 10, 7, 65
14, 53327, Control_c, 10, 7, 102
14, 53328, Note_off_c, 10, 51, 64
14, 53328, Note_off_c, 10, 27, 64
14, 53328, Note_off_c, 10, 39, 64
14, 53328, Control_c, 10, 7, 102
14, 53328, Note_on_c, 10, 39, 127
14, 53328, Note_on_c, 10, 27, 127
14, 53328, Note_on_c, 10, 51, 127
14, 53329, Control_c, 10, 7, 101
14, 53330, Control_c, 10, 7, 100
14, 53331, Control_c, 10, 7, 99
14, 53332, Control_c, 10, 7, 98
14, 53333, Control_c, 10, 7, 97
14, 53334, Control_c, 10, 7, 96
14, 53335, Control_c, 10, 7, 96
14, 53336, Control_c, 10, 7, 95
14, 53337, Control_c, 10, 7, 94
14, 53338, Control_c, 10, 7, 93
14, 53339, Control_c, 10, 7, 92
14, 53340, Control_c, 10, 7, 91
14, 53341, Control_c, 10, 7, 90
14, 53342, Control_c, 10, 7, 89
14, 53343, Control_c, 10, 7, 89
14, 53344, Control_c, 10, 7, 88
14, 53345, Control_c, 10, 7, 87
14, 53346, Control_c, 10, 7, 86
14, 53347, Control_c, 10, 7, 85
14, 53348, Control_c, 10, 7, 84
14, 53349, Control_c, 10, 7, 83
14, 53350, Control_c, 10, 7, 83
14, 53351, Control_c, 10, 7, 82
14, 53352, Control_c, 10, 7, 81
14, 53353, Control_c, 10, 7, 80
14, 53354, Control_c, 10, 7, 79
14, 53355, Control_c, 10, 7, 78
14, 53356, Control_c, 10, 7, 77
14, 53357, Control_c, 10, 7, 77
14, 53358, Control_c, 10, 7, 76
14, 53359, Control_c, 10, 7, 75
14, 53360, Control_c, 10, 7, 74
14, 53361, Control_c, 10, 7, 73
14, 53362, Control_c, 10, 7, 72
14, 53363, Control_c, 10, 7, 71
14, 53364, Control_c, 10, 7, 71
14, 53365, Control_c, 10, 7, 70
14, 53366, Control_c, 10, 7, 69
14, 53367, Control_c, 10, 7, 68
14, 53368, Control_c, 10, 7, 67
14, 53369, Control_c, 10, 7, 66
14, 53370, Control_c, 10, 7, 65
14, 53371, Control_c, 10, 7, 65
14, 53372, Control_c, 10, 7, 64
14, 53373, Control_c, 10, 7, 63
14, 53376, Note_off_c, 10, 51, 64
14, 53376, Note_off_c, 10, 27, 64
14, 53376, Note_off_c, 10, 39, 64
14, 53376, Control_c, 10, 7, 113
14, 53376, Note_on_c, 10, 39, 127
14, 53376, Note_on_c, 10, 27, 127
14, 53376, Note_on_c, 10, 51, 127
14, 53377, Control_c, 10, 7, 113
14, 53378, Control_c, 10, 7, 112
14, 53379, Control_c, 10, 7, 112
14, 53380, Control_c, 10, 7, 112
14, 53381, Control_c, 10, 7, 111
14, 53382, Control_c, 10, 7, 111
14, 53383, Control_c, 10, 7, 110
14, 53384, Control_c, 10, 7, 110
14, 53385, Control_c, 10, 7, 110
14, 53386, Control_c, 10, 7, 109
14, 53387, Control_c, 10, 7, 109
14, 53388, Control_c, 10, 7, 109
14, 53389, Control_c, 10, 7, 108
14, 53390, Control_c, 10, 7, 108
14, 53391, Control_c, 10, 7, 108
14, 53392, Control_c, 10, 7, 107
14, 53393, Control_c, 10, 7, 107
14, 53394, Control_c, 10, 7, 107
14, 53395, Control_c, 10, 7, 106
14, 53396, Control_c, 10, 7, 106
14, 53397, Control_c, 10, 7, 106
14, 53398, Control_c, 10, 7, 105
14, 53399, Control_c, 10, 7, 105
14, 53400, Control_c, 10, 7, 104
14, 53401, Control_c, 10, 7, 104
14, 53402, Control_c, 10, 7, 104
14, 53403, Control_c, 10, 7, 103
14, 53404, Control_c, 10, 7, 103
14, 53405, Control_c, 10, 7, 103
14, 53406, Control_c, 10, 7, 102
14, 53407, Control_c, 10, 7, 102
14, 53408, Control_c, 10, 7, 102
14, 53409, Control_c, 10, 7, 101
14, 53410, Control_c, 10, 7, 101
14, 53411, Control_c, 10, 7, 101
14, 53412, Control_c, 10, 7, 100
14, 53413, Control_c, 10, 7, 100
14, 53414, Control_c, 10, 7, 100
14, 53415, Control_c, 10, 7, 99
14, 53416, Control_c, 10, 7, 99
14, 53417, Control_c, 10, 7, 98
14, 53418, Control_c, 10, 7, 98
14, 53419, Control_c, 10, 7, 98
14, 53420, Control_c, 10, 7, 97
14, 53421, Control_c, 10, 7, 97
14, 53422, Control_c, 10, 7, 97
14, 53423, Control_c, 10, 7, 96
14, 53424, Control_c, 10, 7, 96
14, 53425, Control_c, 10, 7, 96
14, 53426, Control_c, 10, 7, 95
14, 53427, Control_c, 10, 7, 95
14, 53428, Control_c, 10, 7, 95
14, 53429, Control_c, 10, 7, 94
14, 53430, Control_c, 10, 7, 94
14, 53431, Control_c, 10, 7, 94
14, 53432, Control_c, 10, 7, 93
14, 53433, Control_c, 10, 7, 93
14, 53434, Control_c, 10, 7, 92
14, 53435, Control_c, 10, 7, 92
14, 53436, Control_c, 10, 7, 92
14, 53437, Control_c, 10, 7, 91
14, 53438, Control_c, 10, 7, 91
14, 53439, Control_c, 10, 7, 91
14, 53440, Control_c, 10, 7, 90
14, 53441, Control_c, 10, 7, 90
14, 53442, Control_c, 10, 7, 90
14, 53443, Control_c, 10, 7, 89
14, 53444, Control_c, 10, 7, 89
14, 53445, Control_c, 10, 7, 89
14, 53446, Control_c, 10, 7, 88
14, 53447, Control_c, 10, 7, 88
14, 53448, Control_c, 10, 7, 88
14, 53449, Control_c, 10, 7, 87
14, 53450, Control_c, 10, 7, 87
14, 53451, Control_c, 10, 7, 86
14, 53452, Control_c, 10, 7, 86
14, 53453, Control_c, 10, 7, 86
14, 53454, Control_c, 10, 7, 85
14, 53455, Control_c, 10, 7, 85
14, 53456, Control_c, 10, 7, 85
14, 53457, Control_c, 10, 7, 84
14, 53458, Control_c, 10, 7, 84
14, 53459, Control_c, 10, 7, 84
14, 53460, Control_c, 10, 7, 83
14, 53461, Control_c, 10, 7, 83
14, 53462, Control_c, 10, 7, 83
14, 53463, Control_c, 10, 7, 82
14, 53464, Control_c, 10, 7, 82
14, 53465, Control_c, 10, 7, 82
14, 53466, Control_c, 10, 7, 81
14, 53467, Control_c, 10, 7, 81
14, 53468, Control_c, 10, 7, 80
14, 53469, Control_c, 10, 7, 80
14, 53470, Control_c, 10, 7, 80
14, 53471, Control_c, 10, 7, 79
14, 53472, Control_c, 10, 7, 79
14, 53473, Control_c, 10, 7, 79
14, 53474, Control_c, 10, 7, 78
14, 53475, Control_c, 10, 7, 78
14, 53476, Control_c, 10, 7, 78
14, 53477, Control_c, 10, 7, 77
14, 53478, Control_c, 10, 7, 77
14, 53479, Control_c, 10, 7, 77
14, 53480, Control_c, 10, 7, 76
14, 53481, Control_c, 10, 7, 76
14, 53482, Control_c, 10, 7, 76
14, 53483, Control_c, 10, 7, 75
14, 53484, Control_c, 10, 7, 75
14, 53485, Control_c, 10, 7, 74
14, 53486, Control_c, 10, 7, 74
14, 53487, Control_c, 10, 7, 74
14, 53488, Control_c, 10, 7, 73
14, 53489, Control_c, 10, 7, 73
14, 53490, Control_c, 10, 7, 73
14, 53491, Control_c, 10, 7, 72
14, 53492, Control_c, 10, 7, 72
14, 53493, Control_c, 10, 7, 72
14, 53494, Control_c, 10, 7, 71
14, 53495, Control_c, 10, 7, 71
14, 53496, Control_c, 10, 7, 71
14, 53497, Control_c, 10, 7, 70
14, 53498, Control_c, 10, 7, 70
14, 53499, Control_c, 10, 7, 70
14, 53500, Control_c, 10, 7, 69
14, 53501, Control_c, 10, 7, 69
14, 53502, Control_c, 10, 7, 68
14, 53503, Control_c, 10, 7, 68
14, 53504, Control_c, 10, 7, 68
14, 53505, Control_c, 10, 7, 67
14, 53506, Control_c, 10, 7, 67
14, 53507, Control_c, 10, 7, 67
14, 53508, Control_c, 10, 7, 66
14, 53509, Control_c, 10, 7, 66
14, 53510, Control_c, 10, 7, 66
14, 53511, Control_c, 10, 7, 65
14, 53512, Control_c, 10, 7, 65
14, 53513, Control_c, 10, 7, 65
14, 53514, Control_c, 10, 7, 64
14, 53515, Control_c, 10, 7, 64
14, 53516, Control_c, 10, 7, 64
14, 53517, Control_c, 10, 7, 63
14, 53518, Control_c, 10, 7, 111
14, 53519, Control_c, 10, 7, 111
14, 53520, Note_off_c, 10, 51, 64
14, 53520, Note_off_c, 10, 27, 64
14, 53520, Note_off_c, 10, 39, 64
14, 53520, Control_c, 10, 7, 110
14, 53520, Note_on_c, 10, 39, 127
14, 53520, Note_on_c, 10, 51, 127
14, 53520, Note_on_c, 10, 27, 127
14, 53521, Control_c, 10, 7, 110
14, 53522, Control_c, 10, 7, 110
14, 53523, Control_c, 10, 7, 109
14, 53524, Control_c, 10, 7, 109
14, 53525, Control_c, 10, 7, 109
14, 53526, Control_c, 10, 7, 109
14, 53527, Control_c, 10, 7, 108
14, 53528, Control_c, 10, 7, 108
14, 53529, Control_c, 10, 7, 108
14, 53530, Control_c, 10, 7, 107
14, 53531, Control_c, 10, 7, 107
14, 53532, Control_c, 10, 7, 107
14, 53533, Control_c, 10, 7, 106
14, 53534, Control_c, 10, 7, 106
14, 53535, Control_c, 10, 7, 106
14, 53536, Control_c, 10, 7, 105
14, 53537, Control_c, 10, 7, 105
14, 53538, Control_c, 10, 7, 105
14, 53539, Control_c, 10, 7, 104
14, 53540, Control_c, 10, 7, 104
14, 53541, Control_c, 10, 7, 104
14, 53542, Control_c, 10, 7, 103
14, 53543, Control_c, 10, 7, 103
14, 53544, Control_c, 10, 7, 103
14, 53545, Control_c, 10, 7, 102
14, 53546, Control_c, 10, 7, 102
14, 53547, Control_c, 10, 7, 102
14, 53548, Control_c, 10, 7, 101
14, 53549, Control_c, 10, 7, 101
14, 53550, Control_c, 10, 7, 101
14, 53551, Control_c, 10, 7, 100
14, 53552, Control_c, 10, 7, 100
14, 53553, Control_c, 10, 7, 100
14, 53554, Control_c, 10, 7, 99
14, 53555, Control_c, 10, 7, 99
14, 53556, Control_c, 10, 7, 99
14, 53557, Control_c, 10, 7, 98
14, 53558, Control_c, 10, 7, 98
14, 53559, Control_c, 10, 7, 98
14, 53560, Control_c, 10, 7, 97
14, 53561, Control_c, 10, 7, 97
14, 53562, Control_c, 10, 7, 97
14, 53563, Control_c, 10, 7, 96
14, 53564, Control_c, 10, 7, 96
14, 53565, Control_c, 10, 7, 96
14, 53566, Control_c, 10, 7, 95
14, 53567, Control_c, 10, 7, 95
14, 53568, Control_c, 10, 7, 95
14, 53569, Control_c, 10, 7, 94
14, 53570, Control_c, 10, 7, 94
14, 53571, Control_c, 10, 7, 94
14, 53572, Control_c, 10, 7, 93
14, 53573, Control_c, 10, 7, 93
14, 53574, Control_c, 10, 7, 93
14, 53575, Control_c, 10, 7, 92
14, 53576, Control_c, 10, 7, 92
14, 53577, Control_c, 10, 7, 92
14, 53578, Control_c, 10, 7, 91
14, 53579, Control_c, 10, 7, 91
14, 53580, Control_c, 10, 7, 91
14, 53581, Control_c, 10, 7, 90
14, 53582, Control_c, 10, 7, 90
14, 53583, Control_c, 10, 7, 90
14, 53584, Control_c, 10, 7, 89
14, 53585, Control_c, 10, 7, 89
14, 53586, Control_c, 10, 7, 89
14, 53587, Control_c, 10, 7, 88
14, 53588, Control_c, 10, 7, 88
14, 53589, Control_c, 10, 7, 88
14, 53590, Control_c, 10, 7, 87
14, 53591, Control_c, 10, 7, 87
14, 53592, Control_c, 10, 7, 87
14, 53593, Control_c, 10, 7, 86
14, 53594, Control_c, 10, 7, 86
14, 53595, Control_c, 10, 7, 86
14, 53596, Control_c, 10, 7, 85
14, 53597, Control_c, 10, 7, 85
14, 53598, Control_c, 10, 7, 85
14, 53599, Control_c, 10, 7, 84
14, 53600, Control_c, 10, 7, 84
14, 53601, Control_c, 10, 7, 84
14, 53602, Control_c, 10, 7, 83
14, 53603, Control_c, 10, 7, 83
14, 53604, Control_c, 10, 7, 83
14, 53605, Control_c, 10, 7, 82
14, 53606, Control_c, 10, 7, 82
14, 53607, Control_c, 10, 7, 82
14, 53608, Control_c, 10, 7, 81
14, 53609, Control_c, 10, 7, 81
14, 53610, Control_c, 10, 7, 81
14, 53611, Control_c, 10, 7, 80
14, 53612, Control_c, 10, 7, 80
14, 53613, Control_c, 10, 7, 80
14, 53614, Control_c, 10, 7, 79
14, 53615, Control_c, 10, 7, 79
14, 53616, Control_c, 10, 7, 79
14, 53617, Control_c, 10, 7, 78
14, 53618, Control_c, 10, 7, 78
14, 53619, Control_c, 10, 7, 78
14, 53620, Control_c, 10, 7, 77
14, 53621, Control_c, 10, 7, 77
14, 53622, Control_c, 10, 7, 77
14, 53623, Control_c, 10, 7, 76
14, 53624, Control_c, 10, 7, 76
14, 53625, Control_c, 10, 7, 76
14, 53626, Control_c, 10, 7, 75
14, 53627, Control_c, 10, 7, 75
14, 53628, Control_c, 10, 7, 75
14, 53629, Control_c, 10, 7, 74
14, 53630, Control_c, 10, 7, 74
14, 53631, Control_c, 10, 7, 74
14, 53632, Control_c, 10, 7, 73
14, 53633, Control_c, 10, 7, 73
14, 53634, Control_c, 10, 7, 73
14, 53635, Control_c, 10, 7, 72
14, 53636, Control_c, 10, 7, 72
14, 53637, Control_c, 10, 7, 72
14, 53638, Control_c, 10, 7, 71
14, 53639, Control_c, 10, 7, 71
14, 53640, Control_c, 10, 7, 71
14, 53641, Control_c, 10, 7, 70
14, 53642, Control_c, 10, 7, 70
14, 53643, Control_c, 10, 7, 70
14, 53644, Control_c, 10, 7, 69
14, 53645, Control_c, 10, 7, 69
14, 53646, Control_c, 10, 7, 69
14, 53647, Control_c, 10, 7, 68
14, 53648, Control_c, 10, 7, 68
14, 53649, Control_c, 10, 7, 68
14, 53650, Control_c, 10, 7, 67
14, 53651, Control_c, 10, 7, 67
14, 53652, Control_c, 10, 7, 67
14, 53653, Control_c, 10, 7, 66
14, 53654, Control_c, 10, 7, 66
14, 53655, Control_c, 10, 7, 66
14, 53656, Control_c, 10, 7, 65
14, 53657, Control_c, 10, 7, 65
14, 53658, Control_c, 10, 7, 65
14, 53659, Control_c, 10, 7, 64
14, 53660, Control_c, 10, 7, 64
14, 53661, Control_c, 10, 7, 64
14, 53662, Control_c, 10, 7, 63
14, 53663, Control_c, 10, 7, 63
14, 53664, Note_off_c, 10, 27, 64
14, 53664, Note_off_c, 10, 51, 64
14, 53664, Note_off_c, 10, 39, 64
14, 53664, Control_c, 10, 7, 64
14, 53664, Note_on_c, 10, 39, 127
14, 53664, Note_on_c, 10, 51, 127
14, 53664, Note_on_c, 10, 27, 127
14, 53665, Control_c, 10, 7, 64
14, 53666, Control_c, 10, 7, 65
14, 53667, Control_c, 10, 7, 65
14, 53668, Control_c, 10, 7, 66
14, 53669, Control_c, 10, 7, 66
14, 53670, Control_c, 10, 7, 67
14, 53671, Control_c, 10, 7, 67
14, 53672, Control_c, 10, 7, 68
14, 53673, Control_c, 10, 7, 68
14, 53674, Control_c, 10, 7, 69
14, 53675, Control_c, 10, 7, 69
14, 53676, Control_c, 10, 7, 70
14, 53677, Control_c, 10, 7, 70
14, 53678, Control_c, 10, 7, 71
14, 53679, Control_c, 10, 7, 71
14, 53680, Control_c, 10, 7, 72
14, 53681, Control_c, 10, 7, 72
14, 53682, Control_c, 10, 7, 73
14, 53683, Control_c, 10, 7, 73
14, 53684, Control_c, 10, 7, 74
14, 53685, Control_c, 10, 7, 74
14, 53686, Control_c, 10, 7, 75
14, 53687, Control_c, 10, 7, 75
14, 53688, Control_c, 10, 7, 76
14, 53689, Control_c, 10, 7, 76
14, 53690, Control_c, 10, 7, 77
14, 53691, Control_c, 10, 7, 77
14, 53692, Control_c, 10, 7, 78
14, 53693, Control_c, 10, 7, 78
14, 53694, Control_c, 10, 7, 79
14, 53695, Control_c, 10, 7, 79
14, 53696, Control_c, 10, 7, 80
14, 53697, Control_c, 10, 7, 80
14, 53698, Control_c, 10, 7, 81
14, 53699, Control_c, 10, 7, 81
14, 53700, Control_c, 10, 7, 82
14, 53701, Control_c, 10, 7, 82
14, 53702, Control_c, 10, 7, 83
14, 53703, Control_c, 10, 7, 83
14, 53704, Control_c, 10, 7, 84
14, 53705, Control_c, 10, 7, 84
14, 53706, Control_c, 10, 7, 85
14, 53707, Control_c, 10, 7, 85
14, 53708, Control_c, 10, 7, 86
14, 53709, Control_c, 10, 7, 86
14, 53710, Control_c, 10, 7, 87
14, 53711, Control_c, 10, 7, 87
14, 53712, Control_c, 10, 7, 88
14, 53713, Control_c, 10, 7, 88
14, 53714, Control_c, 10, 7, 89
14, 53715, Control_c, 10, 7, 89
14, 53716, Control_c, 10, 7, 90
14, 53717, Control_c, 10, 7, 90
14, 53718, Control_c, 10, 7, 91
14, 53719, Control_c, 10, 7, 91
14, 53720, Control_c, 10, 7, 92
14, 53721, Control_c, 10, 7, 92
14, 53722, Control_c, 10, 7, 93
14, 53723, Control_c, 10, 7, 93
14, 53724, Control_c, 10, 7, 94
14, 53725, Control_c, 10, 7, 94
14, 53726, Control_c, 10, 7, 95
14, 53727, Control_c, 10, 7, 95
14, 53728, Control_c, 10, 7, 96
14, 53729, Control_c, 10, 7, 96
14, 53730, Control_c, 10, 7, 97
14, 53731, Control_c, 10, 7, 97
14, 53732, Control_c, 10, 7, 98
14, 53733, Control_c, 10, 7, 98
14, 53734, Control_c, 10, 7, 99
14, 53735, Control_c, 10, 7, 99
14, 53736, Control_c, 10, 7, 100
14, 53737, Control_c, 10, 7, 100
14, 53738, Control_c, 10, 7, 101
14, 53739, Control_c, 10, 7, 101
14, 53740, Control_c, 10, 7, 102
14, 53741, Control_c, 10, 7, 102
14, 53742, Control_c, 10, 7, 103
14, 53743, Control_c, 10, 7, 103
14, 53744, Control_c, 10, 7, 104
14, 53745, Control_c, 10, 7, 104
14, 53746, Control_c, 10, 7, 105
14, 53747, Control_c, 10, 7, 105
14, 53748, Control_c, 10, 7, 106
14, 53749, Control_c, 10, 7, 106
14, 53750, Control_c, 10, 7, 107
14, 53751, Control_c, 10, 7, 107
14, 53752, Control_c, 10, 7, 108
14, 53753, Control_c, 10, 7, 108
14, 53754, Control_c, 10, 7, 109
14, 53755, Control_c, 10, 7, 109
14, 53756, Control_c, 10, 7, 110
14, 53757, Control_c, 10, 7, 110
14, 53758, Control_c, 10, 7, 111
14, 53759, Control_c, 10, 7, 111
14, 53760, Note_off_c, 10, 27, 64
14, 53760, Note_off_c, 10, 51, 64
14, 53760, Note_off_c, 10, 39, 64
14, 53760, Control_c, 10, 7, 112
14, 53760, Note_on_c, 10, 39, 127
14, 53760, Note_on_c, 10, 51, 127
14, 53760, Note_on_c, 10, 27, 127
14, 53761, Control_c, 10, 7, 64
14, 53762, Control_c, 10, 7, 65
14, 53763, Control_c, 10, 7, 66
14, 53764, Control_c, 10, 7, 67
14, 53765, Control_c, 10, 7, 68
14, 53766, Control_c, 10, 7, 69
14, 53767, Control_c, 10, 7, 69
14, 53768, Control_c, 10, 7, 70
14, 53769, Control_c, 10, 7, 71
14, 53770, Control_c, 10, 7, 72
14, 53771, Control_c, 10, 7, 73
14, 53772, Control_c, 10, 7, 74
14, 53773, Control_c, 10, 7, 75
14, 53774, Control_c, 10, 7, 76
14, 53775, Control_c, 10, 7, 77
14, 53776, Control_c, 10, 7, 78
14, 53777, Control_c, 10, 7, 79
14, 53778, Control_c, 10, 7, 80
14, 53779, Control_c, 10, 7, 81
14, 53780, Control_c, 10, 7, 82
14, 53781, Control_c, 10, 7, 83
14, 53782, Control_c, 10, 7, 85
14, 53783, Control_c, 10, 7, 86
14, 53784, Control_c, 10, 7, 87
14, 53785, Control_c, 10, 7, 88
14, 53786, Control_c, 10, 7, 89
14, 53787, Control_c, 10, 7, 90
14, 53788, Control_c, 10, 7, 91
14, 53789, Control_c, 10, 7, 92
14, 53790, Control_c, 10, 7, 93
14, 53791, Control_c, 10, 7, 94
14, 53792, Control_c, 10, 7, 95
14, 53793, Control_c, 10, 7, 96
14, 53794, Control_c, 10, 7, 97
14, 53795, Control_c, 10, 7, 98
14, 53796, Control_c, 10, 7, 99
14, 53797, Control_c, 10, 7, 100
14, 53798, Control_c, 10, 7, 102
14, 53799, Control_c, 10, 7, 103
14, 53800, Control_c, 10, 7, 104
14, 53801, Control_c, 10, 7, 105
14, 53802, Control_c, 10, 7, 106
14, 53803, Control_c, 10, 7, 107
14, 53804, Control_c, 10, 7, 108
14, 53805, Control_c, 10, 7, 109
14, 53806, Control_c, 10, 7, 110
14, 53807, Control_c, 10, 7, 111
14, 53808, Note_off_c, 10, 51, 64
14, 53808, Note_off_c, 10, 27, 64
14, 53808, Note_off_c, 10, 39, 64
14, 53808, Control_c, 10, 7, 65
14, 53808, Note_on_c, 10, 39, 127
14, 53808, Note_on_c, 10, 51, 127
14, 53808, Note_on_c, 10, 27, 127
14, 53809, Control_c, 10, 7, 66
14, 53810, Control_c, 10, 7, 67
14, 53811, Control_c, 10, 7, 67
14, 53812, Control_c, 10, 7, 68
14, 53813, Control_c, 10, 7, 69
14, 53814, Control_c, 10, 7, 70
14, 53815, Control_c, 10, 7, 71
14, 53816, Control_c, 10, 7, 72
14, 53817, Control_c, 10, 7, 73
14, 53818, Control_c, 10, 7, 74
14, 53819, Control_c, 10, 7, 75
14, 53820, Control_c, 10, 7, 76
14, 53821, Control_c, 10, 7, 77
14, 53822, Control_c, 10, 7, 78
14, 53823, Control_c, 10, 7, 79
14, 53824, Control_c, 10, 7, 80
14, 53825, Control_c, 10, 7, 81
14, 53826, Control_c, 10, 7, 82
14, 53827, Control_c, 10, 7, 83
14, 53828, Control_c, 10, 7, 84
14, 53829, Control_c, 10, 7, 85
14, 53830, Control_c, 10, 7, 86
14, 53831, Control_c, 10, 7, 87
14, 53832, Control_c, 10, 7, 88
14, 53833, Control_c, 10, 7, 89
14, 53834, Control_c, 10, 7, 89
14, 53835, Control_c, 10, 7, 90
14, 53836, Control_c, 10, 7, 91
14, 53837, Control_c, 10, 7, 92
14, 53838, Control_c, 10, 7, 93
14, 53839, Control_c, 10, 7, 94
14, 53840, Control_c, 10, 7, 95
14, 53841, Control_c, 10, 7, 96
14, 53842, Control_c, 10, 7, 97
14, 53843, Control_c, 10, 7, 98
14, 53844, Control_c, 10, 7, 99
14, 53845, Control_c, 10, 7, 100
14, 53846, Control_c, 10, 7, 101
14, 53847, Control_c, 10, 7, 102
14, 53848, Control_c, 10, 7, 103
14, 53849, Control_c, 10, 7, 104
14, 53850, Control_c, 10, 7, 105
14, 53851, Control_c, 10, 7, 106
14, 53852, Control_c, 10, 7, 107
14, 53853, Control_c, 10, 7, 108
14, 53854, Control_c, 10, 7, 109
14, 53855, Control_c, 10, 7, 110
14, 53856, Note_off_c, 10, 27, 64
14, 53856, Note_off_c, 10, 51, 64
14, 53856, Note_off_c, 10, 39, 64
14, 53856, Control_c, 10, 7, 64
14, 53856, Note_on_c, 10, 39, 127
14, 53856, Note_on_c, 10, 51, 127
14, 53856, Note_on_c, 10, 27, 127
14, 53857, Control_c, 10, 7, 65
14, 53858, Control_c, 10, 7, 65
14, 53859, Control_c, 10, 7, 66
14, 53860, Control_c, 10, 7, 67
14, 53861, Control_c, 10, 7, 68
14, 53862, Control_c, 10, 7, 69
14, 53863, Control_c, 10, 7, 70
14, 53864, Control_c, 10, 7, 70
14, 53865, Control_c, 10, 7, 71
14, 53866, Control_c, 10, 7, 72
14, 53867, Control_c, 10, 7, 73
14, 53868, Control_c, 10, 7, 74
14, 53869, Control_c, 10, 7, 75
14, 53870, Control_c, 10, 7, 76
14, 53871, Control_c, 10, 7, 77
14, 53872, Control_c, 10, 7, 78
14, 53873, Control_c, 10, 7, 79
14, 53874, Control_c, 10, 7, 80
14, 53875, Control_c, 10, 7, 81
14, 53876, Control_c, 10, 7, 82
14, 53877, Control_c, 10, 7, 83
14, 53878, Control_c, 10, 7, 84
14, 53879, Control_c, 10, 7, 85
14, 53880, Control_c, 10, 7, 86
14, 53881, Control_c, 10, 7, 88
14, 53882, Control_c, 10, 7, 89
14, 53883, Control_c, 10, 7, 90
14, 53884, Control_c, 10, 7, 91
14, 53885, Control_c, 10, 7, 92
14, 53886, Control_c, 10, 7, 93
14, 53887, Control_c, 10, 7, 94
14, 53888, Control_c, 10, 7, 95
14, 53889, Control_c, 10, 7, 96
14, 53890, Control_c, 10, 7, 97
14, 53891, Control_c, 10, 7, 98
14, 53892, Control_c, 10, 7, 99
14, 53893, Control_c, 10, 7, 100
14, 53894, Control_c, 10, 7, 101
14, 53895, Control_c, 10, 7, 102
14, 53896, Control_c, 10, 7, 103
14, 53897, Control_c, 10, 7, 104
14, 53898, Control_c, 10, 7, 105
14, 53899, Control_c, 10, 7, 106
14, 53900, Control_c, 10, 7, 107
14, 53901, Control_c, 10, 7, 108
14, 53902, Control_c, 10, 7, 109
14, 53903, Control_c, 10, 7, 110
14, 53904, Note_off_c, 10, 27, 64
14, 53904, Note_off_c, 10, 51, 64
14, 53904, Note_off_c, 10, 39, 64
14, 53904, Control_c, 10, 7, 66
14, 53904, Note_on_c, 10, 39, 127
14, 53904, Note_on_c, 10, 51, 127
14, 53904, Note_on_c, 10, 27, 127
14, 53905, Control_c, 10, 7, 67
14, 53906, Control_c, 10, 7, 68
14, 53907, Control_c, 10, 7, 69
14, 53908, Control_c, 10, 7, 69
14, 53909, Control_c, 10, 7, 70
14, 53910, Control_c, 10, 7, 71
14, 53911, Control_c, 10, 7, 72
14, 53912, Control_c, 10, 7, 73
14, 53913, Control_c, 10, 7, 74
14, 53914, Control_c, 10, 7, 75
14, 53915, Control_c, 10, 7, 76
14, 53916, Control_c, 10, 7, 77
14, 53917, Control_c, 10, 7, 77
14, 53918, Control_c, 10, 7, 78
14, 53919, Control_c, 10, 7, 79
14, 53920, Control_c, 10, 7, 80
14, 53921, Control_c, 10, 7, 81
14, 53922, Control_c, 10, 7, 82
14, 53923, Control_c, 10, 7, 83
14, 53924, Control_c, 10, 7, 84
14, 53925, Control_c, 10, 7, 84
14, 53926, Control_c, 10, 7, 85
14, 53927, Control_c, 10, 7, 86
14, 53928, Control_c, 10, 7, 87
14, 53929, Control_c, 10, 7, 88
14, 53930, Control_c, 10, 7, 89
14, 53931, Control_c, 10, 7, 90
14, 53932, Control_c, 10, 7, 91
14, 53933, Control_c, 10, 7, 91
14, 53934, Control_c, 10, 7, 92
14, 53935, Control_c, 10, 7, 93
14, 53936, Control_c, 10, 7, 94
14, 53937, Control_c, 10, 7, 95
14, 53938, Control_c, 10, 7, 96
14, 53939, Control_c, 10, 7, 97
14, 53940, Control_c, 10, 7, 98
14, 53941, Control_c, 10, 7, 98
14, 53942, Control_c, 10, 7, 99
14, 53943, Control_c, 10, 7, 100
14, 53944, Control_c, 10, 7, 101
14, 53945, Control_c, 10, 7, 102
14, 53946, Control_c, 10, 7, 103
14, 53947, Control_c, 10, 7, 104
14, 53948, Control_c, 10, 7, 104
14, 53949, Control_c, 10, 7, 105
14, 53950, Control_c, 10, 7, 106
14, 53951, Control_c, 10, 7, 107
14, 53952, Note_off_c, 10, 27, 64
14, 53952, Note_off_c, 10, 51, 64
14, 53952, Note_off_c, 10, 39, 64
14, 53952, Control_c, 10, 7, 67
14, 53952, Note_on_c, 10, 39, 127
14, 53952, Note_on_c, 10, 51, 127
14, 53952, Note_on_c, 10, 27, 127
14, 53953, Control_c, 10, 7, 68
14, 53954, Control_c, 10, 7, 69
14, 53955, Control_c, 10, 7, 70
14, 53956, Control_c, 10, 7, 71
14, 53957, Control_c, 10, 7, 72
14, 53958, Control_c, 10, 7, 73
14, 53959, Control_c, 10, 7, 74
14, 53960, Control_c, 10, 7, 75
14, 53961, Control_c, 10, 7, 75
14, 53962, Control_c, 10, 7, 76
14, 53963, Control_c, 10, 7, 77
14, 53964, Control_c, 10, 7, 78
14, 53965, Control_c, 10, 7, 79
14, 53966, Control_c, 10, 7, 80
14, 53967, Control_c, 10, 7, 81
14, 53968, Control_c, 10, 7, 82
14, 53969, Control_c, 10, 7, 83
14, 53970, Control_c, 10, 7, 84
14, 53971, Control_c, 10, 7, 85
14, 53972, Control_c, 10, 7, 86
14, 53973, Control_c, 10, 7, 87
14, 53974, Control_c, 10, 7, 88
14, 53975, Control_c, 10, 7, 89
14, 53976, Control_c, 10, 7, 90
14, 53977, Control_c, 10, 7, 90
14, 53978, Control_c, 10, 7, 91
14, 53979, Control_c, 10, 7, 92
14, 53980, Control_c, 10, 7, 93
14, 53981, Control_c, 10, 7, 94
14, 53982, Control_c, 10, 7, 95
14, 53983, Control_c, 10, 7, 96
14, 53984, Control_c, 10, 7, 97
14, 53985, Control_c, 10, 7, 98
14, 53986, Control_c, 10, 7, 99
14, 53987, Control_c, 10, 7, 100
14, 53988, Control_c, 10, 7, 101
14, 53989, Control_c, 10, 7, 102
14, 53990, Control_c, 10, 7, 103
14, 53991, Control_c, 10, 7, 104
14, 53992, Control_c, 10, 7, 105
14, 53993, Control_c, 10, 7, 106
14, 53994, Control_c, 10, 7, 106
14, 53995, Control_c, 10, 7, 107
14, 53996, Control_c, 10, 7, 108
14, 53997, Control_c, 10, 7, 109
14, 53998, Control_c, 10, 7, 110
14, 53999, Control_c, 10, 7, 111
14, 54000, Note_off_c, 10, 27, 64
14, 54000, Note_off_c, 10, 51, 64
14, 54000, Note_off_c, 10, 39, 64
14, 54000, Control_c, 10, 7, 61
14, 54000, Note_on_c, 10, 39, 127
14, 54000, Note_on_c, 10, 51, 127
14, 54000, Note_on_c, 10, 27, 127
14, 54001, Control_c, 10, 7, 62
14, 54002, Control_c, 10, 7, 63
14, 54003, Control_c, 10, 7, 64
14, 54004, Control_c, 10, 7, 65
14, 54005, Control_c, 10, 7, 66
14, 54006, Control_c, 10, 7, 67
14, 54007, Control_c, 10, 7, 68
14, 54008, Control_c, 10, 7, 70
14, 54009, Control_c, 10, 7, 71
14, 54010, Control_c, 10, 7, 72
14, 54011, Control_c, 10, 7, 73
14, 54012, Control_c, 10, 7, 74
14, 54013, Control_c, 10, 7, 75
14, 54014, Control_c, 10, 7, 76
14, 54015, Control_c, 10, 7, 78
14, 54016, Control_c, 10, 7, 79
14, 54017, Control_c, 10, 7, 80
14, 54018, Control_c, 10, 7, 81
14, 54019, Control_c, 10, 7, 82
14, 54020, Control_c, 10, 7, 83
14, 54021, Control_c, 10, 7, 84
14, 54022, Control_c, 10, 7, 85
14, 54023, Control_c, 10, 7, 87
14, 54024, Control_c, 10, 7, 88
14, 54025, Control_c, 10, 7, 89
14, 54026, Control_c, 10, 7, 90
14, 54027, Control_c, 10, 7, 91
14, 54028, Control_c, 10, 7, 92
14, 54029, Control_c, 10, 7, 93
14, 54030, Control_c, 10, 7, 95
14, 54031, Control_c, 10, 7, 96
14, 54032, Control_c, 10, 7, 97
14, 54033, Control_c, 10, 7, 98
14, 54034, Control_c, 10, 7, 99
14, 54035, Control_c, 10, 7, 100
14, 54036, Control_c, 10, 7, 101
14, 54037, Control_c, 10, 7, 102
14, 54038, Control_c, 10, 7, 104
14, 54039, Control_c, 10, 7, 105
14, 54040, Control_c, 10, 7, 106
14, 54041, Control_c, 10, 7, 107
14, 54042, Control_c, 10, 7, 108
14, 54043, Control_c, 10, 7, 110
14, 54044, Control_c, 10, 7, 111
14, 54045, Control_c, 10, 7, 112
14, 54046, Control_c, 10, 7, 113
14, 54047, Control_c, 10, 7, 114
14, 54048, Note_off_c, 10, 27, 64
14, 54048, Note_off_c, 10, 51, 64
14, 54048, Note_off_c, 10, 39, 64
14, 54048, Control_c, 10, 7, 65
14, 54048, Note_on_c, 10, 39, 127
14, 54048, Note_on_c, 10, 51, 127
14, 54048, Note_on_c, 10, 27, 127
14, 54049, Control_c, 10, 7, 66
14, 54050, Control_c, 10, 7, 67
14, 54051, Control_c, 10, 7, 68
14, 54052, Control_c, 10, 7, 70
14, 54053, Control_c, 10, 7, 71
14, 54054, Control_c, 10, 7, 72
14, 54055, Control_c, 10, 7, 73
14, 54056, Control_c, 10, 7, 74
14, 54057, Control_c, 10, 7, 75
14, 54058, Control_c, 10, 7, 76
14, 54059, Control_c, 10, 7, 77
14, 54060, Control_c, 10, 7, 78
14, 54061, Control_c, 10, 7, 79
14, 54062, Control_c, 10, 7, 80
14, 54063, Control_c, 10, 7, 81
14, 54064, Control_c, 10, 7, 82
14, 54065, Control_c, 10, 7, 83
14, 54066, Control_c, 10, 7, 84
14, 54067, Control_c, 10, 7, 85
14, 54068, Control_c, 10, 7, 86
14, 54069, Control_c, 10, 7, 88
14, 54070, Control_c, 10, 7, 89
14, 54071, Control_c, 10, 7, 90
14, 54072, Control_c, 10, 7, 91
14, 54073, Control_c, 10, 7, 92
14, 54074, Control_c, 10, 7, 93
14, 54075, Control_c, 10, 7, 94
14, 54076, Control_c, 10, 7, 95
14, 54077, Control_c, 10, 7, 96
14, 54078, Control_c, 10, 7, 97
14, 54079, Control_c, 10, 7, 98
14, 54080, Control_c, 10, 7, 99
14, 54081, Control_c, 10, 7, 100
14, 54082, Control_c, 10, 7, 101
14, 54083, Control_c, 10, 7, 102
14, 54084, Control_c, 10, 7, 103
14, 54085, Control_c, 10, 7, 105
14, 54086, Control_c, 10, 7, 106
14, 54087, Control_c, 10, 7, 107
14, 54088, Control_c, 10, 7, 108
14, 54089, Control_c, 10, 7, 109
14, 54090, Control_c, 10, 7, 109
14, 54091, Control_c, 10, 7, 110
14, 54092, Control_c, 10, 7, 112
14, 54093, Control_c, 10, 7, 113
14, 54094, Control_c, 10, 7, 114
14, 54095, Control_c, 10, 7, 115
14, 54096, Note_off_c, 10, 27, 64
14, 54096, Note_off_c, 10, 51, 64
14, 54096, Note_off_c, 10, 39, 64
14, 54096, Control_c, 10, 7, 67
14, 54096, Note_on_c, 10, 39, 127
14, 54096, Note_on_c, 10, 51, 127
14, 54096, Note_on_c, 10, 27, 127
14, 54097, Control_c, 10, 7, 68
14, 54098, Control_c, 10, 7, 69
14, 54099, Control_c, 10, 7, 70
14, 54100, Control_c, 10, 7, 71
14, 54101, Control_c, 10, 7, 71
14, 54102, Control_c, 10, 7, 72
14, 54103, Control_c, 10, 7, 73
14, 54104, Control_c, 10, 7, 74
14, 54105, Control_c, 10, 7, 75
14, 54106, Control_c, 10, 7, 76
14, 54107, Control_c, 10, 7, 77
14, 54108, Control_c, 10, 7, 78
14, 54109, Control_c, 10, 7, 79
14, 54110, Control_c, 10, 7, 80
14, 54111, Control_c, 10, 7, 81
14, 54112, Control_c, 10, 7, 82
14, 54113, Control_c, 10, 7, 83
14, 54114, Control_c, 10, 7, 84
14, 54115, Control_c, 10, 7, 85
14, 54116, Control_c, 10, 7, 86
14, 54117, Control_c, 10, 7, 87
14, 54118, Control_c, 10, 7, 88
14, 54119, Control_c, 10, 7, 89
14, 54120, Control_c, 10, 7, 90
14, 54121, Control_c, 10, 7, 91
14, 54122, Control_c, 10, 7, 92
14, 54123, Control_c, 10, 7, 93
14, 54124, Control_c, 10, 7, 94
14, 54125, Control_c, 10, 7, 95
14, 54126, Control_c, 10, 7, 96
14, 54127, Control_c, 10, 7, 97
14, 54128, Control_c, 10, 7, 98
14, 54129, Control_c, 10, 7, 99
14, 54130, Control_c, 10, 7, 100
14, 54131, Control_c, 10, 7, 101
14, 54132, Control_c, 10, 7, 102
14, 54133, Control_c, 10, 7, 103
14, 54134, Control_c, 10, 7, 104
14, 54135, Control_c, 10, 7, 104
14, 54136, Control_c, 10, 7, 105
14, 54137, Control_c, 10, 7, 106
14, 54138, Control_c, 10, 7, 107
14, 54139, Control_c, 10, 7, 108
14, 54140, Control_c, 10, 7, 109
14, 54141, Control_c, 10, 7, 110
14, 54142, Control_c, 10, 7, 111
14, 54143, Control_c, 10, 7, 112
14, 54144, Note_off_c, 10, 27, 64
14, 54144, Note_off_c, 10, 51, 64
14, 54144, Note_off_c, 10, 39, 64
14, 54144, Control_c, 10, 7, 50
14, 54144, Note_on_c, 10, 41, 127
14, 54144, Note_on_c, 10, 29, 127
14, 54144, Note_on_c, 10, 53, 127
14, 54146, Control_c, 10, 7, 50
14, 54147, Control_c, 10, 7, 51
14, 54148, Control_c, 10, 7, 51
14, 54149, Control_c, 10, 7, 52
14, 54150, Control_c, 10, 7, 52
14, 54151, Control_c, 10, 7, 52
14, 54152, Control_c, 10, 7, 53
14, 54153, Control_c, 10, 7, 53
14, 54154, Control_c, 10, 7, 54
14, 54155, Control_c, 10, 7, 54
14, 54156, Control_c, 10, 7, 54
14, 54157, Control_c, 10, 7, 55
14, 54158, Control_c, 10, 7, 55
14, 54159, Control_c, 10, 7, 55
14, 54160, Control_c, 10, 7, 56
14, 54161, Control_c, 10, 7, 56
14, 54162, Control_c, 10, 7, 57
14, 54163, Control_c, 10, 7, 57
14, 54164, Control_c, 10, 7, 57
14, 54165, Control_c, 10, 7, 58
14, 54166, Control_c, 10, 7, 58
14, 54167, Control_c, 10, 7, 59
14, 54168, Control_c, 10, 7, 59
14, 54169, Control_c, 10, 7, 59
14, 54170, Control_c, 10, 7, 60
14, 54171, Control_c, 10, 7, 60
14, 54172, Control_c, 10, 7, 61
14, 54173, Control_c, 10, 7, 61
14, 54174, Control_c, 10, 7, 61
14, 54175, Control_c, 10, 7, 62
14, 54176, Control_c, 10, 7, 62
14, 54177, Control_c, 10, 7, 62
14, 54178, Control_c, 10, 7, 63
14, 54179, Control_c, 10, 7, 63
14, 54180, Control_c, 10, 7, 64
14, 54181, Control_c, 10, 7, 64
14, 54182, Control_c, 10, 7, 64
14, 54183, Control_c, 10, 7, 65
14, 54184, Control_c, 10, 7, 65
14, 54185, Control_c, 10, 7, 66
14, 54186, Control_c, 10, 7, 66
14, 54187, Control_c, 10, 7, 66
14, 54188, Control_c, 10, 7, 67
14, 54189, Control_c, 10, 7, 67
14, 54190, Control_c, 10, 7, 68
14, 54191, Control_c, 10, 7, 68
14, 54192, Control_c, 10, 7, 68
14, 54193, Control_c, 10, 7, 69
14, 54194, Control_c, 10, 7, 69
14, 54195, Control_c, 10, 7, 69
14, 54196, Control_c, 10, 7, 70
14, 54197, Control_c, 10, 7, 70
14, 54198, Control_c, 10, 7, 71
14, 54199, Control_c, 10, 7, 71
14, 54200, Control_c, 10, 7, 71
14, 54201, Control_c, 10, 7, 72
14, 54202, Control_c, 10, 7, 72
14, 54203, Control_c, 10, 7, 73
14, 54204, Control_c, 10, 7, 73
14, 54205, Control_c, 10, 7, 73
14, 54206, Control_c, 10, 7, 74
14, 54207, Control_c, 10, 7, 74
14, 54208, Control_c, 10, 7, 75
14, 54209, Control_c, 10, 7, 75
14, 54210, Control_c, 10, 7, 75
14, 54211, Control_c, 10, 7, 76
14, 54212, Control_c, 10, 7, 76
14, 54213, Control_c, 10, 7, 76
14, 54214, Control_c, 10, 7, 77
14, 54215, Control_c, 10, 7, 77
14, 54216, Control_c, 10, 7, 78
14, 54217, Control_c, 10, 7, 78
14, 54218, Control_c, 10, 7, 78
14, 54219, Control_c, 10, 7, 79
14, 54220, Control_c, 10, 7, 79
14, 54221, Control_c, 10, 7, 80
14, 54222, Control_c, 10, 7, 80
14, 54223, Control_c, 10, 7, 80
14, 54224, Control_c, 10, 7, 81
14, 54225, Control_c, 10, 7, 81
14, 54226, Control_c, 10, 7, 82
14, 54227, Control_c, 10, 7, 82
14, 54228, Control_c, 10, 7, 82
14, 54229, Control_c, 10, 7, 83
14, 54230, Control_c, 10, 7, 83
14, 54231, Control_c, 10, 7, 83
14, 54232, Control_c, 10, 7, 84
14, 54233, Control_c, 10, 7, 84
14, 54234, Control_c, 10, 7, 85
14, 54235, Control_c, 10, 7, 85
14, 54236, Control_c, 10, 7, 85
14, 54237, Control_c, 10, 7, 86
14, 54238, Control_c, 10, 7, 86
14, 54239, Control_c, 10, 7, 87
14, 54240, Control_c, 10, 7, 87
14, 54241, Control_c, 10, 7, 87
14, 54242, Control_c, 10, 7, 88
14, 54243, Control_c, 10, 7, 88
14, 54244, Control_c, 10, 7, 89
14, 54245, Control_c, 10, 7, 89
14, 54246, Control_c, 10, 7, 89
14, 54247, Control_c, 10, 7, 90
14, 54248, Control_c, 10, 7, 90
14, 54249, Control_c, 10, 7, 90
14, 54250, Control_c, 10, 7, 91
14, 54251, Control_c, 10, 7, 91
14, 54252, Control_c, 10, 7, 92
14, 54253, Control_c, 10, 7, 92
14, 54254, Control_c, 10, 7, 92
14, 54255, Control_c, 10, 7, 93
14, 54256, Control_c, 10, 7, 93
14, 54257, Control_c, 10, 7, 94
14, 54258, Control_c, 10, 7, 94
14, 54259, Control_c, 10, 7, 94
14, 54260, Control_c, 10, 7, 95
14, 54261, Control_c, 10, 7, 95
14, 54262, Control_c, 10, 7, 96
14, 54263, Control_c, 10, 7, 96
14, 54264, Control_c, 10, 7, 96
14, 54265, Control_c, 10, 7, 97
14, 54266, Control_c, 10, 7, 97
14, 54267, Control_c, 10, 7, 97
14, 54268, Control_c, 10, 7, 98
14, 54269, Control_c, 10, 7, 98
14, 54270, Control_c, 10, 7, 99
14, 54271, Control_c, 10, 7, 99
14, 54272, Control_c, 10, 7, 99
14, 54273, Control_c, 10, 7, 100
14, 54274, Control_c, 10, 7, 100
14, 54275, Control_c, 10, 7, 101
14, 54276, Control_c, 10, 7, 101
14, 54277, Control_c, 10, 7, 101
14, 54278, Control_c, 10, 7, 102
14, 54279, Control_c, 10, 7, 102
14, 54280, Control_c, 10, 7, 103
14, 54281, Control_c, 10, 7, 103
14, 54282, Control_c, 10, 7, 103
14, 54283, Control_c, 10, 7, 104
14, 54284, Control_c, 10, 7, 104
14, 54285, Control_c, 10, 7, 104
14, 54286, Control_c, 10, 7, 105
14, 54287, Control_c, 10, 7, 105
14, 54288, Note_off_c, 10, 53, 64
14, 54288, Note_off_c, 10, 29, 64
14, 54288, Note_off_c, 10, 41, 64
14, 54288, Control_c, 10, 7, 54
14, 54288, Note_on_c, 10, 43, 127
14, 54288, Note_on_c, 10, 31, 127
14, 54288, Note_on_c, 10, 55, 127
14, 54289, Control_c, 10, 7, 55
14, 54290, Control_c, 10, 7, 55
14, 54291, Control_c, 10, 7, 56
14, 54292, Control_c, 10, 7, 57
14, 54293, Control_c, 10, 7, 57
14, 54294, Control_c, 10, 7, 57
14, 54295, Control_c, 10, 7, 58
14, 54296, Control_c, 10, 7, 58
14, 54297, Control_c, 10, 7, 58
14, 54298, Control_c, 10, 7, 59
14, 54299, Control_c, 10, 7, 59
14, 54300, Control_c, 10, 7, 59
14, 54301, Control_c, 10, 7, 60
14, 54302, Control_c, 10, 7, 60
14, 54303, Control_c, 10, 7, 61
14, 54304, Control_c, 10, 7, 61
14, 54305, Control_c, 10, 7, 61
14, 54306, Control_c, 10, 7, 62
14, 54307, Control_c, 10, 7, 62
14, 54308, Control_c, 10, 7, 62
14, 54309, Control_c, 10, 7, 63
14, 54310, Control_c, 10, 7, 63
14, 54311, Control_c, 10, 7, 63
14, 54312, Control_c, 10, 7, 63
14, 54313, Control_c, 10, 7, 64
14, 54314, Control_c, 10, 7, 64
14, 54315, Control_c, 10, 7, 65
14, 54316, Control_c, 10, 7, 65
14, 54317, Control_c, 10, 7, 65
14, 54318, Control_c, 10, 7, 66
14, 54319, Control_c, 10, 7, 66
14, 54320, Control_c, 10, 7, 66
14, 54321, Control_c, 10, 7, 67
14, 54322, Control_c, 10, 7, 67
14, 54323, Control_c, 10, 7, 68
14, 54324, Control_c, 10, 7, 68
14, 54325, Control_c, 10, 7, 68
14, 54326, Control_c, 10, 7, 69
14, 54327, Control_c, 10, 7, 69
14, 54328, Control_c, 10, 7, 69
14, 54329, Control_c, 10, 7, 70
14, 54330, Control_c, 10, 7, 70
14, 54331, Control_c, 10, 7, 71
14, 54332, Control_c, 10, 7, 71
14, 54333, Control_c, 10, 7, 71
14, 54334, Control_c, 10, 7, 72
14, 54335, Control_c, 10, 7, 72
14, 54336, Control_c, 10, 7, 73
14, 54337, Control_c, 10, 7, 73
14, 54338, Control_c, 10, 7, 73
14, 54339, Control_c, 10, 7, 74
14, 54340, Control_c, 10, 7, 74
14, 54341, Control_c, 10, 7, 74
14, 54342, Control_c, 10, 7, 75
14, 54343, Control_c, 10, 7, 75
14, 54344, Control_c, 10, 7, 76
14, 54345, Control_c, 10, 7, 76
14, 54346, Control_c, 10, 7, 76
14, 54347, Control_c, 10, 7, 77
14, 54348, Control_c, 10, 7, 77
14, 54349, Control_c, 10, 7, 77
14, 54350, Control_c, 10, 7, 78
14, 54351, Control_c, 10, 7, 78
14, 54352, Control_c, 10, 7, 79
14, 54353, Control_c, 10, 7, 79
14, 54354, Control_c, 10, 7, 79
14, 54355, Control_c, 10, 7, 80
14, 54356, Control_c, 10, 7, 80
14, 54357, Control_c, 10, 7, 80
14, 54358, Control_c, 10, 7, 81
14, 54359, Control_c, 10, 7, 81
14, 54360, Control_c, 10, 7, 82
14, 54361, Control_c, 10, 7, 82
14, 54362, Control_c, 10, 7, 82
14, 54363, Control_c, 10, 7, 83
14, 54364, Control_c, 10, 7, 83
14, 54365, Control_c, 10, 7, 84
14, 54366, Control_c, 10, 7, 84
14, 54367, Control_c, 10, 7, 84
14, 54368, Control_c, 10, 7, 85
14, 54369, Control_c, 10, 7, 85
14, 54370, Control_c, 10, 7, 85
14, 54371, Control_c, 10, 7, 86
14, 54372, Control_c, 10, 7, 86
14, 54373, Control_c, 10, 7, 87
14, 54374, Control_c, 10, 7, 87
14, 54375, Control_c, 10, 7, 87
14, 54376, Control_c, 10, 7, 88
14, 54377, Control_c, 10, 7, 88
14, 54378, Control_c, 10, 7, 88
14, 54379, Control_c, 10, 7, 89
14, 54380, Control_c, 10, 7, 89
14, 54381, Control_c, 10, 7, 90
14, 54382, Control_c, 10, 7, 90
14, 54383, Control_c, 10, 7, 90
14, 54384, Control_c, 10, 7, 91
14, 54385, Control_c, 10, 7, 91
14, 54386, Control_c, 10, 7, 92
14, 54387, Control_c, 10, 7, 92
14, 54388, Control_c, 10, 7, 92
14, 54389, Control_c, 10, 7, 93
14, 54390, Control_c, 10, 7, 93
14, 54391, Control_c, 10, 7, 93
14, 54392, Control_c, 10, 7, 94
14, 54393, Control_c, 10, 7, 94
14, 54394, Control_c, 10, 7, 95
14, 54395, Control_c, 10, 7, 95
14, 54396, Control_c, 10, 7, 95
14, 54397, Control_c, 10, 7, 96
14, 54398, Control_c, 10, 7, 96
14, 54399, Control_c, 10, 7, 96
14, 54400, Control_c, 10, 7, 97
14, 54401, Control_c, 10, 7, 97
14, 54402, Control_c, 10, 7, 98
14, 54403, Control_c, 10, 7, 98
14, 54404, Control_c, 10, 7, 98
14, 54405, Control_c, 10, 7, 99
14, 54406, Control_c, 10, 7, 99
14, 54407, Control_c, 10, 7, 99
14, 54408, Control_c, 10, 7, 100
14, 54409, Control_c, 10, 7, 100
14, 54410, Control_c, 10, 7, 101
14, 54411, Control_c, 10, 7, 101
14, 54412, Control_c, 10, 7, 101
14, 54413, Control_c, 10, 7, 102
14, 54414, Control_c, 10, 7, 102
14, 54415, Control_c, 10, 7, 103
14, 54416, Control_c, 10, 7, 103
14, 54417, Control_c, 10, 7, 103
14, 54418, Control_c, 10, 7, 104
14, 54419, Control_c, 10, 7, 104
14, 54420, Control_c, 10, 7, 104
14, 54421, Control_c, 10, 7, 105
14, 54422, Control_c, 10, 7, 105
14, 54423, Control_c, 10, 7, 106
14, 54424, Control_c, 10, 7, 106
14, 54425, Control_c, 10, 7, 106
14, 54426, Control_c, 10, 7, 107
14, 54427, Control_c, 10, 7, 107
14, 54428, Control_c, 10, 7, 107
14, 54429, Control_c, 10, 7, 108
14, 54430, Control_c, 10, 7, 108
14, 54431, Control_c, 10, 7, 109
14, 54432, Note_off_c, 10, 55, 64
14, 54432, Note_off_c, 10, 31, 64
14, 54432, Note_off_c, 10, 43, 64
14, 54432, Control_c, 10, 7, 108
14, 54432, Note_on_c, 10, 39, 127
14, 54432, Note_on_c, 10, 27, 127
14, 54432, Note_on_c, 10, 51, 127
14, 54433, Control_c, 10, 7, 108
14, 54434, Control_c, 10, 7, 107
14, 54435, Control_c, 10, 7, 107
14, 54436, Control_c, 10, 7, 106
14, 54437, Control_c, 10, 7, 106
14, 54438, Control_c, 10, 7, 105
14, 54439, Control_c, 10, 7, 105
14, 54440, Control_c, 10, 7, 105
14, 54441, Control_c, 10, 7, 104
14, 54442, Control_c, 10, 7, 104
14, 54443, Control_c, 10, 7, 103
14, 54444, Control_c, 10, 7, 103
14, 54445, Control_c, 10, 7, 102
14, 54446, Control_c, 10, 7, 102
14, 54447, Control_c, 10, 7, 101
14, 54448, Control_c, 10, 7, 101
14, 54449, Control_c, 10, 7, 100
14, 54450, Control_c, 10, 7, 100
14, 54451, Control_c, 10, 7, 99
14, 54452, Control_c, 10, 7, 99
14, 54453, Control_c, 10, 7, 98
14, 54454, Control_c, 10, 7, 98
14, 54455, Control_c, 10, 7, 97
14, 54456, Control_c, 10, 7, 97
14, 54457, Control_c, 10, 7, 96
14, 54458, Control_c, 10, 7, 96
14, 54459, Control_c, 10, 7, 95
14, 54460, Control_c, 10, 7, 95
14, 54461, Control_c, 10, 7, 94
14, 54462, Control_c, 10, 7, 94
14, 54463, Control_c, 10, 7, 93
14, 54464, Control_c, 10, 7, 93
14, 54465, Control_c, 10, 7, 92
14, 54466, Control_c, 10, 7, 92
14, 54467, Control_c, 10, 7, 91
14, 54468, Control_c, 10, 7, 91
14, 54469, Control_c, 10, 7, 90
14, 54470, Control_c, 10, 7, 90
14, 54471, Control_c, 10, 7, 89
14, 54472, Control_c, 10, 7, 89
14, 54473, Control_c, 10, 7, 88
14, 54474, Control_c, 10, 7, 88
14, 54475, Control_c, 10, 7, 87
14, 54476, Control_c, 10, 7, 87
14, 54477, Control_c, 10, 7, 86
14, 54478, Control_c, 10, 7, 86
14, 54479, Control_c, 10, 7, 85
14, 54480, Control_c, 10, 7, 85
14, 54481, Control_c, 10, 7, 84
14, 54482, Control_c, 10, 7, 84
14, 54483, Control_c, 10, 7, 83
14, 54484, Control_c, 10, 7, 83
14, 54485, Control_c, 10, 7, 82
14, 54486, Control_c, 10, 7, 82
14, 54487, Control_c, 10, 7, 81
14, 54488, Control_c, 10, 7, 81
14, 54489, Control_c, 10, 7, 80
14, 54490, Control_c, 10, 7, 80
14, 54491, Control_c, 10, 7, 79
14, 54492, Control_c, 10, 7, 79
14, 54493, Control_c, 10, 7, 78
14, 54494, Control_c, 10, 7, 78
14, 54495, Control_c, 10, 7, 77
14, 54496, Control_c, 10, 7, 77
14, 54497, Control_c, 10, 7, 76
14, 54498, Control_c, 10, 7, 76
14, 54499, Control_c, 10, 7, 75
14, 54500, Control_c, 10, 7, 75
14, 54501, Control_c, 10, 7, 74
14, 54502, Control_c, 10, 7, 74
14, 54503, Control_c, 10, 7, 73
14, 54504, Control_c, 10, 7, 73
14, 54505, Control_c, 10, 7, 72
14, 54506, Control_c, 10, 7, 72
14, 54507, Control_c, 10, 7, 71
14, 54508, Control_c, 10, 7, 71
14, 54509, Control_c, 10, 7, 70
14, 54510, Control_c, 10, 7, 70
14, 54511, Control_c, 10, 7, 69
14, 54512, Control_c, 10, 7, 69
14, 54513, Control_c, 10, 7, 68
14, 54514, Control_c, 10, 7, 68
14, 54515, Control_c, 10, 7, 67
14, 54516, Control_c, 10, 7, 67
14, 54517, Control_c, 10, 7, 66
14, 54518, Control_c, 10, 7, 66
14, 54519, Control_c, 10, 7, 65
14, 54520, Control_c, 10, 7, 65
14, 54521, Control_c, 10, 7, 64
14, 54522, Control_c, 10, 7, 64
14, 54523, Control_c, 10, 7, 63
14, 54524, Control_c, 10, 7, 63
14, 54525, Control_c, 10, 7, 62
14, 54526, Control_c, 10, 7, 62
14, 54527, Control_c, 10, 7, 61
14, 54528, Control_c, 10, 7, 61
14, 54576, Note_off_c, 10, 51, 64
14, 54576, Note_off_c, 10, 27, 64
14, 54576, Note_off_c, 10, 39, 64
14, 54576, Control_c, 10, 7, 102
14, 54576, Note_on_c, 10, 39, 127
14, 54576, Note_on_c, 10, 27, 127
14, 54576, Note_on_c, 10, 51, 127
14, 54577, Control_c, 10, 7, 102
14, 54578, Control_c, 10, 7, 101
14, 54579, Control_c, 10, 7, 100
14, 54580, Control_c, 10, 7, 99
14, 54581, Control_c, 10, 7, 98
14, 54582, Control_c, 10, 7, 97
14, 54583, Control_c, 10, 7, 96
14, 54584, Control_c, 10, 7, 95
14, 54585, Control_c, 10, 7, 95
14, 54586, Control_c, 10, 7, 94
14, 54587, Control_c, 10, 7, 93
14, 54588, Control_c, 10, 7, 92
14, 54589, Control_c, 10, 7, 91
14, 54590, Control_c, 10, 7, 90
14, 54591, Control_c, 10, 7, 89
14, 54592, Control_c, 10, 7, 88
14, 54593, Control_c, 10, 7, 87
14, 54594, Control_c, 10, 7, 87
14, 54595, Control_c, 10, 7, 86
14, 54596, Control_c, 10, 7, 85
14, 54597, Control_c, 10, 7, 84
14, 54598, Control_c, 10, 7, 83
14, 54599, Control_c, 10, 7, 82
14, 54600, Control_c, 10, 7, 81
14, 54601, Control_c, 10, 7, 80
14, 54602, Control_c, 10, 7, 80
14, 54603, Control_c, 10, 7, 79
14, 54604, Control_c, 10, 7, 78
14, 54605, Control_c, 10, 7, 77
14, 54606, Control_c, 10, 7, 76
14, 54607, Control_c, 10, 7, 75
14, 54608, Control_c, 10, 7, 74
14, 54609, Control_c, 10, 7, 73
14, 54610, Control_c, 10, 7, 73
14, 54611, Control_c, 10, 7, 72
14, 54612, Control_c, 10, 7, 71
14, 54613, Control_c, 10, 7, 70
14, 54614, Control_c, 10, 7, 69
14, 54615, Control_c, 10, 7, 68
14, 54616, Control_c, 10, 7, 67
14, 54617, Control_c, 10, 7, 66
14, 54618, Control_c, 10, 7, 66
14, 54619, Control_c, 10, 7, 65
14, 54620, Control_c, 10, 7, 64
14, 54621, Control_c, 10, 7, 63
14, 54622, Control_c, 10, 7, 62
14, 54623, Control_c, 10, 7, 61
14, 54624, Note_off_c, 10, 51, 64
14, 54624, Note_off_c, 10, 27, 64
14, 54624, Note_off_c, 10, 39, 64
14, 54624, Control_c, 10, 7, 102
14, 54624, Note_on_c, 10, 39, 127
14, 54624, Note_on_c, 10, 27, 127
14, 54624, Note_on_c, 10, 51, 127
14, 54625, Control_c, 10, 7, 102
14, 54626, Control_c, 10, 7, 101
14, 54627, Control_c, 10, 7, 100
14, 54628, Control_c, 10, 7, 99
14, 54629, Control_c, 10, 7, 98
14, 54630, Control_c, 10, 7, 97
14, 54631, Control_c, 10, 7, 96
14, 54632, Control_c, 10, 7, 96
14, 54633, Control_c, 10, 7, 95
14, 54634, Control_c, 10, 7, 94
14, 54635, Control_c, 10, 7, 93
14, 54636, Control_c, 10, 7, 92
14, 54637, Control_c, 10, 7, 91
14, 54638, Control_c, 10, 7, 91
14, 54639, Control_c, 10, 7, 90
14, 54640, Control_c, 10, 7, 89
14, 54641, Control_c, 10, 7, 88
14, 54642, Control_c, 10, 7, 87
14, 54643, Control_c, 10, 7, 86
14, 54644, Control_c, 10, 7, 85
14, 54645, Control_c, 10, 7, 85
14, 54646, Control_c, 10, 7, 84
14, 54647, Control_c, 10, 7, 83
14, 54648, Control_c, 10, 7, 82
14, 54649, Control_c, 10, 7, 81
14, 54650, Control_c, 10, 7, 80
14, 54651, Control_c, 10, 7, 80
14, 54652, Control_c, 10, 7, 79
14, 54653, Control_c, 10, 7, 78
14, 54654, Control_c, 10, 7, 77
14, 54655, Control_c, 10, 7, 76
14, 54656, Control_c, 10, 7, 75
14, 54657, Control_c, 10, 7, 74
14, 54658, Control_c, 10, 7, 74
14, 54659, Control_c, 10, 7, 73
14, 54660, Control_c, 10, 7, 72
14, 54661, Control_c, 10, 7, 71
14, 54662, Control_c, 10, 7, 70
14, 54663, Control_c, 10, 7, 69
14, 54664, Control_c, 10, 7, 68
14, 54665, Control_c, 10, 7, 68
14, 54666, Control_c, 10, 7, 67
14, 54667, Control_c, 10, 7, 66
14, 54668, Control_c, 10, 7, 65
14, 54669, Control_c, 10, 7, 64
14, 54670, Control_c, 10, 7, 102
14, 54671, Control_c, 10, 7, 102
14, 54672, Note_off_c, 10, 51, 64
14, 54672, Note_off_c, 10, 27, 64
14, 54672, Note_off_c, 10, 39, 64
14, 54672, Control_c, 10, 7, 101
14, 54672, Note_on_c, 10, 39, 127
14, 54672, Note_on_c, 10, 27, 127
14, 54672, Note_on_c, 10, 51, 127
14, 54673, Control_c, 10, 7, 100
14, 54674, Control_c, 10, 7, 99
14, 54675, Control_c, 10, 7, 98
14, 54676, Control_c, 10, 7, 97
14, 54677, Control_c, 10, 7, 97
14, 54678, Control_c, 10, 7, 96
14, 54679, Control_c, 10, 7, 95
14, 54680, Control_c, 10, 7, 94
14, 54681, Control_c, 10, 7, 93
14, 54682, Control_c, 10, 7, 93
14, 54683, Control_c, 10, 7, 92
14, 54684, Control_c, 10, 7, 91
14, 54685, Control_c, 10, 7, 90
14, 54686, Control_c, 10, 7, 89
14, 54687, Control_c, 10, 7, 88
14, 54688, Control_c, 10, 7, 88
14, 54689, Control_c, 10, 7, 87
14, 54690, Control_c, 10, 7, 86
14, 54691, Control_c, 10, 7, 85
14, 54692, Control_c, 10, 7, 84
14, 54693, Control_c, 10, 7, 84
14, 54694, Control_c, 10, 7, 83
14, 54695, Control_c, 10, 7, 82
14, 54696, Control_c, 10, 7, 81
14, 54697, Control_c, 10, 7, 80
14, 54698, Control_c, 10, 7, 79
14, 54699, Control_c, 10, 7, 79
14, 54700, Control_c, 10, 7, 78
14, 54701, Control_c, 10, 7, 77
14, 54702, Control_c, 10, 7, 76
14, 54703, Control_c, 10, 7, 75
14, 54704, Control_c, 10, 7, 75
14, 54705, Control_c, 10, 7, 74
14, 54706, Control_c, 10, 7, 73
14, 54707, Control_c, 10, 7, 72
14, 54708, Control_c, 10, 7, 71
14, 54709, Control_c, 10, 7, 70
14, 54710, Control_c, 10, 7, 70
14, 54711, Control_c, 10, 7, 69
14, 54712, Control_c, 10, 7, 68
14, 54713, Control_c, 10, 7, 67
14, 54714, Control_c, 10, 7, 66
14, 54715, Control_c, 10, 7, 66
14, 54716, Control_c, 10, 7, 65
14, 54717, Control_c, 10, 7, 64
14, 54718, Control_c, 10, 7, 63
14, 54719, Control_c, 10, 7, 62
14, 54720, Note_off_c, 10, 51, 64
14, 54720, Note_off_c, 10, 27, 64
14, 54720, Note_off_c, 10, 39, 64
14, 54720, Control_c, 10, 7, 102
14, 54720, Note_on_c, 10, 39, 127
14, 54720, Note_on_c, 10, 27, 127
14, 54720, Note_on_c, 10, 51, 127
14, 54721, Control_c, 10, 7, 102
14, 54722, Control_c, 10, 7, 101
14, 54723, Control_c, 10, 7, 100
14, 54724, Control_c, 10, 7, 99
14, 54725, Control_c, 10, 7, 98
14, 54726, Control_c, 10, 7, 97
14, 54727, Control_c, 10, 7, 96
14, 54728, Control_c, 10, 7, 95
14, 54729, Control_c, 10, 7, 94
14, 54730, Control_c, 10, 7, 94
14, 54731, Control_c, 10, 7, 93
14, 54732, Control_c, 10, 7, 92
14, 54733, Control_c, 10, 7, 91
14, 54734, Control_c, 10, 7, 90
14, 54735, Control_c, 10, 7, 89
14, 54736, Control_c, 10, 7, 88
14, 54737, Control_c, 10, 7, 87
14, 54738, Control_c, 10, 7, 86
14, 54739, Control_c, 10, 7, 86
14, 54740, Control_c, 10, 7, 85
14, 54741, Control_c, 10, 7, 84
14, 54742, Control_c, 10, 7, 83
14, 54743, Control_c, 10, 7, 82
14, 54744, Control_c, 10, 7, 81
14, 54745, Control_c, 10, 7, 80
14, 54746, Control_c, 10, 7, 79
14, 54747, Control_c, 10, 7, 78
14, 54748, Control_c, 10, 7, 78
14, 54749, Control_c, 10, 7, 77
14, 54750, Control_c, 10, 7, 76
14, 54751, Control_c, 10, 7, 75
14, 54752, Control_c, 10, 7, 74
14, 54753, Control_c, 10, 7, 73
14, 54754, Control_c, 10, 7, 72
14, 54755, Control_c, 10, 7, 71
14, 54756, Control_c, 10, 7, 70
14, 54757, Control_c, 10, 7, 69
14, 54758, Control_c, 10, 7, 69
14, 54759, Control_c, 10, 7, 68
14, 54760, Control_c, 10, 7, 67
14, 54761, Control_c, 10, 7, 66
14, 54762, Control_c, 10, 7, 65
14, 54763, Control_c, 10, 7, 64
14, 54764, Control_c, 10, 7, 63
14, 54765, Control_c, 10, 7, 62
14, 54766, Control_c, 10, 7, 61
14, 54767, Control_c, 10, 7, 61
14, 54768, Note_off_c, 10, 51, 64
14, 54768, Note_off_c, 10, 27, 64
14, 54768, Note_off_c, 10, 39, 64
14, 54768, Note_on_c, 10, 39, 127
14, 54768, Note_on_c, 10, 27, 127
14, 54768, Note_on_c, 10, 51, 127
14, 54769, Control_c, 10, 7, 103
14, 54770, Control_c, 10, 7, 102
14, 54771, Control_c, 10, 7, 101
14, 54772, Control_c, 10, 7, 100
14, 54773, Control_c, 10, 7, 99
14, 54774, Control_c, 10, 7, 99
14, 54775, Control_c, 10, 7, 98
14, 54776, Control_c, 10, 7, 97
14, 54777, Control_c, 10, 7, 96
14, 54778, Control_c, 10, 7, 95
14, 54779, Control_c, 10, 7, 94
14, 54780, Control_c, 10, 7, 93
14, 54781, Control_c, 10, 7, 93
14, 54782, Control_c, 10, 7, 92
14, 54783, Control_c, 10, 7, 91
14, 54784, Control_c, 10, 7, 90
14, 54785, Control_c, 10, 7, 89
14, 54786, Control_c, 10, 7, 88
14, 54787, Control_c, 10, 7, 87
14, 54788, Control_c, 10, 7, 87
14, 54789, Control_c, 10, 7, 86
14, 54790, Control_c, 10, 7, 85
14, 54791, Control_c, 10, 7, 84
14, 54792, Control_c, 10, 7, 83
14, 54793, Control_c, 10, 7, 82
14, 54794, Control_c, 10, 7, 81
14, 54795, Control_c, 10, 7, 81
14, 54796, Control_c, 10, 7, 80
14, 54797, Control_c, 10, 7, 79
14, 54798, Control_c, 10, 7, 78
14, 54799, Control_c, 10, 7, 77
14, 54800, Control_c, 10, 7, 76
14, 54801, Control_c, 10, 7, 75
14, 54802, Control_c, 10, 7, 75
14, 54803, Control_c, 10, 7, 74
14, 54804, Control_c, 10, 7, 73
14, 54805, Control_c, 10, 7, 72
14, 54806, Control_c, 10, 7, 71
14, 54807, Control_c, 10, 7, 70
14, 54808, Control_c, 10, 7, 69
14, 54809, Control_c, 10, 7, 69
14, 54810, Control_c, 10, 7, 68
14, 54811, Control_c, 10, 7, 67
14, 54812, Control_c, 10, 7, 66
14, 54813, Control_c, 10, 7, 65
14, 54814, Control_c, 10, 7, 64
14, 54815, Control_c, 10, 7, 64
14, 54816, Note_off_c, 10, 51, 64
14, 54816, Note_off_c, 10, 27, 64
14, 54816, Note_off_c, 10, 39, 64
14, 54816, Note_on_c, 10, 39, 127
14, 54816, Note_on_c, 10, 27, 127
14, 54816, Note_on_c, 10, 51, 127
14, 54817, Control_c, 10, 7, 104
14, 54818, Control_c, 10, 7, 103
14, 54819, Control_c, 10, 7, 102
14, 54820, Control_c, 10, 7, 101
14, 54821, Control_c, 10, 7, 100
14, 54822, Control_c, 10, 7, 99
14, 54823, Control_c, 10, 7, 98
14, 54824, Control_c, 10, 7, 98
14, 54825, Control_c, 10, 7, 97
14, 54826, Control_c, 10, 7, 96
14, 54827, Control_c, 10, 7, 95
14, 54828, Control_c, 10, 7, 94
14, 54829, Control_c, 10, 7, 93
14, 54830, Control_c, 10, 7, 93
14, 54831, Control_c, 10, 7, 92
14, 54832, Control_c, 10, 7, 91
14, 54833, Control_c, 10, 7, 90
14, 54834, Control_c, 10, 7, 89
14, 54835, Control_c, 10, 7, 88
14, 54836, Control_c, 10, 7, 87
14, 54837, Control_c, 10, 7, 87
14, 54838, Control_c, 10, 7, 86
14, 54839, Control_c, 10, 7, 85
14, 54840, Control_c, 10, 7, 84
14, 54841, Control_c, 10, 7, 83
14, 54842, Control_c, 10, 7, 82
14, 54843, Control_c, 10, 7, 82
14, 54844, Control_c, 10, 7, 81
14, 54845, Control_c, 10, 7, 80
14, 54846, Control_c, 10, 7, 79
14, 54847, Control_c, 10, 7, 78
14, 54848, Control_c, 10, 7, 77
14, 54849, Control_c, 10, 7, 76
14, 54850, Control_c, 10, 7, 76
14, 54851, Control_c, 10, 7, 75
14, 54852, Control_c, 10, 7, 74
14, 54853, Control_c, 10, 7, 73
14, 54854, Control_c, 10, 7, 72
14, 54855, Control_c, 10, 7, 71
14, 54856, Control_c, 10, 7, 71
14, 54857, Control_c, 10, 7, 70
14, 54858, Control_c, 10, 7, 69
14, 54859, Control_c, 10, 7, 68
14, 54860, Control_c, 10, 7, 67
14, 54861, Control_c, 10, 7, 66
14, 54862, Control_c, 10, 7, 65
14, 54863, Control_c, 10, 7, 102
14, 54864, Note_off_c, 10, 51, 64
14, 54864, Note_off_c, 10, 27, 64
14, 54864, Note_off_c, 10, 39, 64
14, 54864, Control_c, 10, 7, 102
14, 54864, Note_on_c, 10, 39, 127
14, 54864, Note_on_c, 10, 27, 127
14, 54864, Note_on_c, 10, 51, 127
14, 54865, Control_c, 10, 7, 101
14, 54866, Control_c, 10, 7, 100
14, 54867, Control_c, 10, 7, 99
14, 54868, Control_c, 10, 7, 98
14, 54869, Control_c, 10, 7, 97
14, 54870, Control_c, 10, 7, 96
14, 54871, Control_c, 10, 7, 96
14, 54872, Control_c, 10, 7, 95
14, 54873, Control_c, 10, 7, 94
14, 54874, Control_c, 10, 7, 93
14, 54875, Control_c, 10, 7, 92
14, 54876, Control_c, 10, 7, 91
14, 54877, Control_c, 10, 7, 90
14, 54878, Control_c, 10, 7, 89
14, 54879, Control_c, 10, 7, 89
14, 54880, Control_c, 10, 7, 88
14, 54881, Control_c, 10, 7, 87
14, 54882, Control_c, 10, 7, 86
14, 54883, Control_c, 10, 7, 85
14, 54884, Control_c, 10, 7, 84
14, 54885, Control_c, 10, 7, 83
14, 54886, Control_c, 10, 7, 83
14, 54887, Control_c, 10, 7, 82
14, 54888, Control_c, 10, 7, 81
14, 54889, Control_c, 10, 7, 80
14, 54890, Control_c, 10, 7, 79
14, 54891, Control_c, 10, 7, 78
14, 54892, Control_c, 10, 7, 77
14, 54893, Control_c, 10, 7, 77
14, 54894, Control_c, 10, 7, 76
14, 54895, Control_c, 10, 7, 75
14, 54896, Control_c, 10, 7, 74
14, 54897, Control_c, 10, 7, 73
14, 54898, Control_c, 10, 7, 72
14, 54899, Control_c, 10, 7, 71
14, 54900, Control_c, 10, 7, 71
14, 54901, Control_c, 10, 7, 70
14, 54902, Control_c, 10, 7, 69
14, 54903, Control_c, 10, 7, 68
14, 54904, Control_c, 10, 7, 67
14, 54905, Control_c, 10, 7, 66
14, 54906, Control_c, 10, 7, 65
14, 54907, Control_c, 10, 7, 65
14, 54908, Control_c, 10, 7, 64
14, 54909, Control_c, 10, 7, 63
14, 54912, Note_off_c, 10, 51, 64
14, 54912, Note_off_c, 10, 27, 64
14, 54912, Note_off_c, 10, 39, 64
14, 55680, Control_c, 10, 7, 50
14, 55680, Note_on_c, 10, 41, 127
14, 55680, Note_on_c, 10, 29, 127
14, 55680, Note_on_c, 10, 53, 127
14, 55682, Control_c, 10, 7, 50
14, 55683, Control_c, 10, 7, 51
14, 55684, Control_c, 10, 7, 51
14, 55685, Control_c, 10, 7, 52
14, 55686, Control_c, 10, 7, 52
14, 55687, Control_c, 10, 7, 52
14, 55688, Control_c, 10, 7, 53
14, 55689, Control_c, 10, 7, 53
14, 55690, Control_c, 10, 7, 54
14, 55691, Control_c, 10, 7, 54
14, 55692, Control_c, 10, 7, 54
14, 55693, Control_c, 10, 7, 55
14, 55694, Control_c, 10, 7, 55
14, 55695, Control_c, 10, 7, 55
14, 55696, Control_c, 10, 7, 56
14, 55697, Control_c, 10, 7, 56
14, 55698, Control_c, 10, 7, 57
14, 55699, Control_c, 10, 7, 57
14, 55700, Control_c, 10, 7, 57
14, 55701, Control_c, 10, 7, 58
14, 55702, Control_c, 10, 7, 58
14, 55703, Control_c, 10, 7, 59
14, 55704, Control_c, 10, 7, 59
14, 55705, Control_c, 10, 7, 59
14, 55706, Control_c, 10, 7, 60
14, 55707, Control_c, 10, 7, 60
14, 55708, Control_c, 10, 7, 61
14, 55709, Control_c, 10, 7, 61
14, 55710, Control_c, 10, 7, 61
14, 55711, Control_c, 10, 7, 62
14, 55712, Control_c, 10, 7, 62
14, 55713, Control_c, 10, 7, 62
14, 55714, Control_c, 10, 7, 63
14, 55715, Control_c, 10, 7, 63
14, 55716, Control_c, 10, 7, 64
14, 55717, Control_c, 10, 7, 64
14, 55718, Control_c, 10, 7, 64
14, 55719, Control_c, 10, 7, 65
14, 55720, Control_c, 10, 7, 65
14, 55721, Control_c, 10, 7, 66
14, 55722, Control_c, 10, 7, 66
14, 55723, Control_c, 10, 7, 66
14, 55724, Control_c, 10, 7, 67
14, 55725, Control_c, 10, 7, 67
14, 55726, Control_c, 10, 7, 68
14, 55727, Control_c, 10, 7, 68
14, 55728, Control_c, 10, 7, 68
14, 55729, Control_c, 10, 7, 69
14, 55730, Control_c, 10, 7, 69
14, 55731, Control_c, 10, 7, 69
14, 55732, Control_c, 10, 7, 70
14, 55733, Control_c, 10, 7, 70
14, 55734, Control_c, 10, 7, 71
14, 55735, Control_c, 10, 7, 71
14, 55736, Control_c, 10, 7, 71
14, 55737, Control_c, 10, 7, 72
14, 55738, Control_c, 10, 7, 72
14, 55739, Control_c, 10, 7, 73
14, 55740, Control_c, 10, 7, 73
14, 55741, Control_c, 10, 7, 73
14, 55742, Control_c, 10, 7, 74
14, 55743, Control_c, 10, 7, 74
14, 55744, Control_c, 10, 7, 75
14, 55745, Control_c, 10, 7, 75
14, 55746, Control_c, 10, 7, 75
14, 55747, Control_c, 10, 7, 76
14, 55748, Control_c, 10, 7, 76
14, 55749, Control_c, 10, 7, 76
14, 55750, Control_c, 10, 7, 77
14, 55751, Control_c, 10, 7, 77
14, 55752, Control_c, 10, 7, 78
14, 55753, Control_c, 10, 7, 78
14, 55754, Control_c, 10, 7, 78
14, 55755, Control_c, 10, 7, 79
14, 55756, Control_c, 10, 7, 79
14, 55757, Control_c, 10, 7, 80
14, 55758, Control_c, 10, 7, 80
14, 55759, Control_c, 10, 7, 80
14, 55760, Control_c, 10, 7, 81
14, 55761, Control_c, 10, 7, 81
14, 55762, Control_c, 10, 7, 82
14, 55763, Control_c, 10, 7, 82
14, 55764, Control_c, 10, 7, 82
14, 55765, Control_c, 10, 7, 83
14, 55766, Control_c, 10, 7, 83
14, 55767, Control_c, 10, 7, 83
14, 55768, Control_c, 10, 7, 84
14, 55769, Control_c, 10, 7, 84
14, 55770, Control_c, 10, 7, 85
14, 55771, Control_c, 10, 7, 85
14, 55772, Control_c, 10, 7, 85
14, 55773, Control_c, 10, 7, 86
14, 55774, Control_c, 10, 7, 86
14, 55775, Control_c, 10, 7, 87
14, 55776, Control_c, 10, 7, 87
14, 55777, Control_c, 10, 7, 87
14, 55778, Control_c, 10, 7, 88
14, 55779, Control_c, 10, 7, 88
14, 55780, Control_c, 10, 7, 89
14, 55781, Control_c, 10, 7, 89
14, 55782, Control_c, 10, 7, 89
14, 55783, Control_c, 10, 7, 90
14, 55784, Control_c, 10, 7, 90
14, 55785, Control_c, 10, 7, 90
14, 55786, Control_c, 10, 7, 91
14, 55787, Control_c, 10, 7, 91
14, 55788, Control_c, 10, 7, 92
14, 55789, Control_c, 10, 7, 92
14, 55790, Control_c, 10, 7, 92
14, 55791, Control_c, 10, 7, 93
14, 55792, Control_c, 10, 7, 93
14, 55793, Control_c, 10, 7, 94
14, 55794, Control_c, 10, 7, 94
14, 55795, Control_c, 10, 7, 94
14, 55796, Control_c, 10, 7, 95
14, 55797, Control_c, 10, 7, 95
14, 55798, Control_c, 10, 7, 96
14, 55799, Control_c, 10, 7, 96
14, 55800, Control_c, 10, 7, 96
14, 55801, Control_c, 10, 7, 97
14, 55802, Control_c, 10, 7, 97
14, 55803, Control_c, 10, 7, 97
14, 55804, Control_c, 10, 7, 98
14, 55805, Control_c, 10, 7, 98
14, 55806, Control_c, 10, 7, 99
14, 55807, Control_c, 10, 7, 99
14, 55808, Control_c, 10, 7, 99
14, 55809, Control_c, 10, 7, 100
14, 55810, Control_c, 10, 7, 100
14, 55811, Control_c, 10, 7, 101
14, 55812, Control_c, 10, 7, 101
14, 55813, Control_c, 10, 7, 101
14, 55814, Control_c, 10, 7, 102
14, 55815, Control_c, 10, 7, 102
14, 55816, Control_c, 10, 7, 103
14, 55817, Control_c, 10, 7, 103
14, 55818, Control_c, 10, 7, 103
14, 55819, Control_c, 10, 7, 104
14, 55820, Control_c, 10, 7, 104
14, 55821, Control_c, 10, 7, 104
14, 55822, Control_c, 10, 7, 105
14, 55823, Control_c, 10, 7, 105
14, 55824, Note_off_c, 10, 53, 64
14, 55824, Note_off_c, 10, 29, 64
14, 55824, Note_off_c, 10, 41, 64
14, 55824, Control_c, 10, 7, 54
14, 55824, Note_on_c, 10, 43, 127
14, 55824, Note_on_c, 10, 31, 127
14, 55824, Note_on_c, 10, 55, 127
14, 55825, Control_c, 10, 7, 55
14, 55826, Control_c, 10, 7, 55
14, 55827, Control_c, 10, 7, 56
14, 55828, Control_c, 10, 7, 57
14, 55829, Control_c, 10, 7, 57
14, 55830, Control_c, 10, 7, 57
14, 55831, Control_c, 10, 7, 58
14, 55832, Control_c, 10, 7, 58
14, 55833, Control_c, 10, 7, 58
14, 55834, Control_c, 10, 7, 59
14, 55835, Control_c, 10, 7, 59
14, 55836, Control_c, 10, 7, 59
14, 55837, Control_c, 10, 7, 60
14, 55838, Control_c, 10, 7, 60
14, 55839, Control_c, 10, 7, 61
14, 55840, Control_c, 10, 7, 61
14, 55841, Control_c, 10, 7, 61
14, 55842, Control_c, 10, 7, 62
14, 55843, Control_c, 10, 7, 62
14, 55844, Control_c, 10, 7, 62
14, 55845, Control_c, 10, 7, 63
14, 55846, Control_c, 10, 7, 63
14, 55847, Control_c, 10, 7, 63
14, 55848, Control_c, 10, 7, 63
14, 55849, Control_c, 10, 7, 64
14, 55850, Control_c, 10, 7, 64
14, 55851, Control_c, 10, 7, 65
14, 55852, Control_c, 10, 7, 65
14, 55853, Control_c, 10, 7, 65
14, 55854, Control_c, 10, 7, 66
14, 55855, Control_c, 10, 7, 66
14, 55856, Control_c, 10, 7, 66
14, 55857, Control_c, 10, 7, 67
14, 55858, Control_c, 10, 7, 67
14, 55859, Control_c, 10, 7, 68
14, 55860, Control_c, 10, 7, 68
14, 55861, Control_c, 10, 7, 68
14, 55862, Control_c, 10, 7, 69
14, 55863, Control_c, 10, 7, 69
14, 55864, Control_c, 10, 7, 69
14, 55865, Control_c, 10, 7, 70
14, 55866, Control_c, 10, 7, 70
14, 55867, Control_c, 10, 7, 71
14, 55868, Control_c, 10, 7, 71
14, 55869, Control_c, 10, 7, 71
14, 55870, Control_c, 10, 7, 72
14, 55871, Control_c, 10, 7, 72
14, 55872, Control_c, 10, 7, 73
14, 55873, Control_c, 10, 7, 73
14, 55874, Control_c, 10, 7, 73
14, 55875, Control_c, 10, 7, 74
14, 55876, Control_c, 10, 7, 74
14, 55877, Control_c, 10, 7, 74
14, 55878, Control_c, 10, 7, 75
14, 55879, Control_c, 10, 7, 75
14, 55880, Control_c, 10, 7, 76
14, 55881, Control_c, 10, 7, 76
14, 55882, Control_c, 10, 7, 76
14, 55883, Control_c, 10, 7, 77
14, 55884, Control_c, 10, 7, 77
14, 55885, Control_c, 10, 7, 77
14, 55886, Control_c, 10, 7, 78
14, 55887, Control_c, 10, 7, 78
14, 55888, Control_c, 10, 7, 79
14, 55889, Control_c, 10, 7, 79
14, 55890, Control_c, 10, 7, 79
14, 55891, Control_c, 10, 7, 80
14, 55892, Control_c, 10, 7, 80
14, 55893, Control_c, 10, 7, 80
14, 55894, Control_c, 10, 7, 81
14, 55895, Control_c, 10, 7, 81
14, 55896, Control_c, 10, 7, 82
14, 55897, Control_c, 10, 7, 82
14, 55898, Control_c, 10, 7, 82
14, 55899, Control_c, 10, 7, 83
14, 55900, Control_c, 10, 7, 83
14, 55901, Control_c, 10, 7, 84
14, 55902, Control_c, 10, 7, 84
14, 55903, Control_c, 10, 7, 84
14, 55904, Control_c, 10, 7, 85
14, 55905, Control_c, 10, 7, 85
14, 55906, Control_c, 10, 7, 85
14, 55907, Control_c, 10, 7, 86
14, 55908, Control_c, 10, 7, 86
14, 55909, Control_c, 10, 7, 87
14, 55910, Control_c, 10, 7, 87
14, 55911, Control_c, 10, 7, 87
14, 55912, Control_c, 10, 7, 88
14, 55913, Control_c, 10, 7, 88
14, 55914, Control_c, 10, 7, 88
14, 55915, Control_c, 10, 7, 89
14, 55916, Control_c, 10, 7, 89
14, 55917, Control_c, 10, 7, 90
14, 55918, Control_c, 10, 7, 90
14, 55919, Control_c, 10, 7, 90
14, 55920, Control_c, 10, 7, 91
14, 55921, Control_c, 10, 7, 91
14, 55922, Control_c, 10, 7, 92
14, 55923, Control_c, 10, 7, 92
14, 55924, Control_c, 10, 7, 92
14, 55925, Control_c, 10, 7, 93
14, 55926, Control_c, 10, 7, 93
14, 55927, Control_c, 10, 7, 93
14, 55928, Control_c, 10, 7, 94
14, 55929, Control_c, 10, 7, 94
14, 55930, Control_c, 10, 7, 95
14, 55931, Control_c, 10, 7, 95
14, 55932, Control_c, 10, 7, 95
14, 55933, Control_c, 10, 7, 96
14, 55934, Control_c, 10, 7, 96
14, 55935, Control_c, 10, 7, 96
14, 55936, Control_c, 10, 7, 97
14, 55937, Control_c, 10, 7, 97
14, 55938, Control_c, 10, 7, 98
14, 55939, Control_c, 10, 7, 98
14, 55940, Control_c, 10, 7, 98
14, 55941, Control_c, 10, 7, 99
14, 55942, Control_c, 10, 7, 99
14, 55943, Control_c, 10, 7, 99
14, 55944, Control_c, 10, 7, 100
14, 55945, Control_c, 10, 7, 100
14, 55946, Control_c, 10, 7, 101
14, 55947, Control_c, 10, 7, 101
14, 55948, Control_c, 10, 7, 101
14, 55949, Control_c, 10, 7, 102
14, 55950, Control_c, 10, 7, 102
14, 55951, Control_c, 10, 7, 103
14, 55952, Control_c, 10, 7, 103
14, 55953, Control_c, 10, 7, 103
14, 55954, Control_c, 10, 7, 104
14, 55955, Control_c, 10, 7, 104
14, 55956, Control_c, 10, 7, 104
14, 55957, Control_c, 10, 7, 105
14, 55958, Control_c, 10, 7, 105
14, 55959, Control_c, 10, 7, 106
14, 55960, Control_c, 10, 7, 106
14, 55961, Control_c, 10, 7, 106
14, 55962, Control_c, 10, 7, 107
14, 55963, Control_c, 10, 7, 107
14, 55964, Control_c, 10, 7, 107
14, 55965, Control_c, 10, 7, 108
14, 55966, Control_c, 10, 7, 108
14, 55967, Control_c, 10, 7, 109
14, 55968, Note_off_c, 10, 55, 64
14, 55968, Note_off_c, 10, 31, 64
14, 55968, Note_off_c, 10, 43, 64
14, 55968, Control_c, 10, 7, 108
14, 55968, Note_on_c, 10, 39, 127
14, 55968, Note_on_c, 10, 27, 127
14, 55968, Note_on_c, 10, 51, 127
14, 55969, Control_c, 10, 7, 108
14, 55970, Control_c, 10, 7, 107
14, 55971, Control_c, 10, 7, 107
14, 55972, Control_c, 10, 7, 106
14, 55973, Control_c, 10, 7, 106
14, 55974, Control_c, 10, 7, 105
14, 55975, Control_c, 10, 7, 105
14, 55976, Control_c, 10, 7, 105
14, 55977, Control_c, 10, 7, 104
14, 55978, Control_c, 10, 7, 104
14, 55979, Control_c, 10, 7, 103
14, 55980, Control_c, 10, 7, 103
14, 55981, Control_c, 10, 7, 102
14, 55982, Control_c, 10, 7, 102
14, 55983, Control_c, 10, 7, 101
14, 55984, Control_c, 10, 7, 101
14, 55985, Control_c, 10, 7, 100
14, 55986, Control_c, 10, 7, 100
14, 55987, Control_c, 10, 7, 99
14, 55988, Control_c, 10, 7, 99
14, 55989, Control_c, 10, 7, 98
14, 55990, Control_c, 10, 7, 98
14, 55991, Control_c, 10, 7, 97
14, 55992, Control_c, 10, 7, 97
14, 55993, Control_c, 10, 7, 96
14, 55994, Control_c, 10, 7, 96
14, 55995, Control_c, 10, 7, 95
14, 55996, Control_c, 10, 7, 95
14, 55997, Control_c, 10, 7, 94
14, 55998, Control_c, 10, 7, 94
14, 55999, Control_c, 10, 7, 93
14, 56000, Control_c, 10, 7, 93
14, 56001, Control_c, 10, 7, 92
14, 56002, Control_c, 10, 7, 92
14, 56003, Control_c, 10, 7, 91
14, 56004, Control_c, 10, 7, 91
14, 56005, Control_c, 10, 7, 90
14, 56006, Control_c, 10, 7, 90
14, 56007, Control_c, 10, 7, 89
14, 56008, Control_c, 10, 7, 89
14, 56009, Control_c, 10, 7, 88
14, 56010, Control_c, 10, 7, 88
14, 56011, Control_c, 10, 7, 87
14, 56012, Control_c, 10, 7, 87
14, 56013, Control_c, 10, 7, 86
14, 56014, Control_c, 10, 7, 86
14, 56015, Control_c, 10, 7, 85
14, 56016, Control_c, 10, 7, 85
14, 56017, Control_c, 10, 7, 84
14, 56018, Control_c, 10, 7, 84
14, 56019, Control_c, 10, 7, 83
14, 56020, Control_c, 10, 7, 83
14, 56021, Control_c, 10, 7, 82
14, 56022, Control_c, 10, 7, 82
14, 56023, Control_c, 10, 7, 81
14, 56024, Control_c, 10, 7, 81
14, 56025, Control_c, 10, 7, 80
14, 56026, Control_c, 10, 7, 80
14, 56027, Control_c, 10, 7, 79
14, 56028, Control_c, 10, 7, 79
14, 56029, Control_c, 10, 7, 78
14, 56030, Control_c, 10, 7, 78
14, 56031, Control_c, 10, 7, 77
14, 56032, Control_c, 10, 7, 77
14, 56033, Control_c, 10, 7, 76
14, 56034, Control_c, 10, 7, 76
14, 56035, Control_c, 10, 7, 75
14, 56036, Control_c, 10, 7, 75
14, 56037, Control_c, 10, 7, 74
14, 56038, Control_c, 10, 7, 74
14, 56039, Control_c, 10, 7, 73
14, 56040, Control_c, 10, 7, 73
14, 56041, Control_c, 10, 7, 72
14, 56042, Control_c, 10, 7, 72
14, 56043, Control_c, 10, 7, 71
14, 56044, Control_c, 10, 7, 71
14, 56045, Control_c, 10, 7, 70
14, 56046, Control_c, 10, 7, 70
14, 56047, Control_c, 10, 7, 69
14, 56048, Control_c, 10, 7, 69
14, 56049, Control_c, 10, 7, 68
14, 56050, Control_c, 10, 7, 68
14, 56051, Control_c, 10, 7, 67
14, 56052, Control_c, 10, 7, 67
14, 56053, Control_c, 10, 7, 66
14, 56054, Control_c, 10, 7, 66
14, 56055, Control_c, 10, 7, 65
14, 56056, Control_c, 10, 7, 65
14, 56057, Control_c, 10, 7, 64
14, 56058, Control_c, 10, 7, 64
14, 56059, Control_c, 10, 7, 63
14, 56060, Control_c, 10, 7, 63
14, 56061, Control_c, 10, 7, 62
14, 56062, Control_c, 10, 7, 62
14, 56063, Control_c, 10, 7, 61
14, 56064, Control_c, 10, 7, 61
14, 56112, Note_off_c, 10, 51, 64
14, 56112, Note_off_c, 10, 27, 64
14, 56112, Note_off_c, 10, 39, 64
14, 56112, Control_c, 10, 7, 102
14, 56112, Note_on_c, 10, 39, 127
14, 56112, Note_on_c, 10, 27, 127
14, 56112, Note_on_c, 10, 51, 127
14, 56113, Control_c, 10, 7, 102
14, 56114, Control_c, 10, 7, 101
14, 56115, Control_c, 10, 7, 100
14, 56116, Control_c, 10, 7, 99
14, 56117, Control_c, 10, 7, 98
14, 56118, Control_c, 10, 7, 97
14, 56119, Control_c, 10, 7, 96
14, 56120, Control_c, 10, 7, 95
14, 56121, Control_c, 10, 7, 95
14, 56122, Control_c, 10, 7, 94
14, 56123, Control_c, 10, 7, 93
14, 56124, Control_c, 10, 7, 92
14, 56125, Control_c, 10, 7, 91
14, 56126, Control_c, 10, 7, 90
14, 56127, Control_c, 10, 7, 89
14, 56128, Control_c, 10, 7, 88
14, 56129, Control_c, 10, 7, 87
14, 56130, Control_c, 10, 7, 87
14, 56131, Control_c, 10, 7, 86
14, 56132, Control_c, 10, 7, 85
14, 56133, Control_c, 10, 7, 84
14, 56134, Control_c, 10, 7, 83
14, 56135, Control_c, 10, 7, 82
14, 56136, Control_c, 10, 7, 81
14, 56137, Control_c, 10, 7, 80
14, 56138, Control_c, 10, 7, 80
14, 56139, Control_c, 10, 7, 79
14, 56140, Control_c, 10, 7, 78
14, 56141, Control_c, 10, 7, 77
14, 56142, Control_c, 10, 7, 76
14, 56143, Control_c, 10, 7, 75
14, 56144, Control_c, 10, 7, 74
14, 56145, Control_c, 10, 7, 73
14, 56146, Control_c, 10, 7, 73
14, 56147, Control_c, 10, 7, 72
14, 56148, Control_c, 10, 7, 71
14, 56149, Control_c, 10, 7, 70
14, 56150, Control_c, 10, 7, 69
14, 56151, Control_c, 10, 7, 68
14, 56152, Control_c, 10, 7, 67
14, 56153, Control_c, 10, 7, 66
14, 56154, Control_c, 10, 7, 66
14, 56155, Control_c, 10, 7, 65
14, 56156, Control_c, 10, 7, 64
14, 56157, Control_c, 10, 7, 63
14, 56158, Control_c, 10, 7, 62
14, 56159, Control_c, 10, 7, 61
14, 56160, Note_off_c, 10, 51, 64
14, 56160, Note_off_c, 10, 27, 64
14, 56160, Note_off_c, 10, 39, 64
14, 56160, Control_c, 10, 7, 102
14, 56160, Note_on_c, 10, 39, 127
14, 56160, Note_on_c, 10, 27, 127
14, 56160, Note_on_c, 10, 51, 127
14, 56161, Control_c, 10, 7, 102
14, 56162, Control_c, 10, 7, 101
14, 56163, Control_c, 10, 7, 100
14, 56164, Control_c, 10, 7, 99
14, 56165, Control_c, 10, 7, 98
14, 56166, Control_c, 10, 7, 97
14, 56167, Control_c, 10, 7, 96
14, 56168, Control_c, 10, 7, 96
14, 56169, Control_c, 10, 7, 95
14, 56170, Control_c, 10, 7, 94
14, 56171, Control_c, 10, 7, 93
14, 56172, Control_c, 10, 7, 92
14, 56173, Control_c, 10, 7, 91
14, 56174, Control_c, 10, 7, 91
14, 56175, Control_c, 10, 7, 90
14, 56176, Control_c, 10, 7, 89
14, 56177, Control_c, 10, 7, 88
14, 56178, Control_c, 10, 7, 87
14, 56179, Control_c, 10, 7, 86
14, 56180, Control_c, 10, 7, 85
14, 56181, Control_c, 10, 7, 85
14, 56182, Control_c, 10, 7, 84
14, 56183, Control_c, 10, 7, 83
14, 56184, Control_c, 10, 7, 82
14, 56185, Control_c, 10, 7, 81
14, 56186, Control_c, 10, 7, 80
14, 56187, Control_c, 10, 7, 80
14, 56188, Control_c, 10, 7, 79
14, 56189, Control_c, 10, 7, 78
14, 56190, Control_c, 10, 7, 77
14, 56191, Control_c, 10, 7, 76
14, 56192, Control_c, 10, 7, 75
14, 56193, Control_c, 10, 7, 74
14, 56194, Control_c, 10, 7, 74
14, 56195, Control_c, 10, 7, 73
14, 56196, Control_c, 10, 7, 72
14, 56197, Control_c, 10, 7, 71
14, 56198, Control_c, 10, 7, 70
14, 56199, Control_c, 10, 7, 69
14, 56200, Control_c, 10, 7, 68
14, 56201, Control_c, 10, 7, 68
14, 56202, Control_c, 10, 7, 67
14, 56203, Control_c, 10, 7, 66
14, 56204, Control_c, 10, 7, 65
14, 56205, Control_c, 10, 7, 64
14, 56206, Control_c, 10, 7, 102
14, 56207, Control_c, 10, 7, 102
14, 56208, Note_off_c, 10, 51, 64
14, 56208, Note_off_c, 10, 27, 64
14, 56208, Note_off_c, 10, 39, 64
14, 56208, Control_c, 10, 7, 101
14, 56208, Note_on_c, 10, 39, 127
14, 56208, Note_on_c, 10, 27, 127
14, 56208, Note_on_c, 10, 51, 127
14, 56209, Control_c, 10, 7, 100
14, 56210, Control_c, 10, 7, 99
14, 56211, Control_c, 10, 7, 98
14, 56212, Control_c, 10, 7, 97
14, 56213, Control_c, 10, 7, 97
14, 56214, Control_c, 10, 7, 96
14, 56215, Control_c, 10, 7, 95
14, 56216, Control_c, 10, 7, 94
14, 56217, Control_c, 10, 7, 93
14, 56218, Control_c, 10, 7, 93
14, 56219, Control_c, 10, 7, 92
14, 56220, Control_c, 10, 7, 91
14, 56221, Control_c, 10, 7, 90
14, 56222, Control_c, 10, 7, 89
14, 56223, Control_c, 10, 7, 88
14, 56224, Control_c, 10, 7, 88
14, 56225, Control_c, 10, 7, 87
14, 56226, Control_c, 10, 7, 86
14, 56227, Control_c, 10, 7, 85
14, 56228, Control_c, 10, 7, 84
14, 56229, Control_c, 10, 7, 84
14, 56230, Control_c, 10, 7, 83
14, 56231, Control_c, 10, 7, 82
14, 56232, Control_c, 10, 7, 81
14, 56233, Control_c, 10, 7, 80
14, 56234, Control_c, 10, 7, 79
14, 56235, Control_c, 10, 7, 79
14, 56236, Control_c, 10, 7, 78
14, 56237, Control_c, 10, 7, 77
14, 56238, Control_c, 10, 7, 76
14, 56239, Control_c, 10, 7, 75
14, 56240, Control_c, 10, 7, 75
14, 56241, Control_c, 10, 7, 74
14, 56242, Control_c, 10, 7, 73
14, 56243, Control_c, 10, 7, 72
14, 56244, Control_c, 10, 7, 71
14, 56245, Control_c, 10, 7, 70
14, 56246, Control_c, 10, 7, 70
14, 56247, Control_c, 10, 7, 69
14, 56248, Control_c, 10, 7, 68
14, 56249, Control_c, 10, 7, 67
14, 56250, Control_c, 10, 7, 66
14, 56251, Control_c, 10, 7, 66
14, 56252, Control_c, 10, 7, 65
14, 56253, Control_c, 10, 7, 64
14, 56254, Control_c, 10, 7, 63
14, 56255, Control_c, 10, 7, 62
14, 56256, Note_off_c, 10, 51, 64
14, 56256, Note_off_c, 10, 27, 64
14, 56256, Note_off_c, 10, 39, 64
14, 56256, Control_c, 10, 7, 102
14, 56256, Note_on_c, 10, 39, 127
14, 56256, Note_on_c, 10, 27, 127
14, 56256, Note_on_c, 10, 51, 127
14, 56257, Control_c, 10, 7, 102
14, 56258, Control_c, 10, 7, 101
14, 56259, Control_c, 10, 7, 100
14, 56260, Control_c, 10, 7, 99
14, 56261, Control_c, 10, 7, 98
14, 56262, Control_c, 10, 7, 97
14, 56263, Control_c, 10, 7, 96
14, 56264, Control_c, 10, 7, 95
14, 56265, Control_c, 10, 7, 94
14, 56266, Control_c, 10, 7, 94
14, 56267, Control_c, 10, 7, 93
14, 56268, Control_c, 10, 7, 92
14, 56269, Control_c, 10, 7, 91
14, 56270, Control_c, 10, 7, 90
14, 56271, Control_c, 10, 7, 89
14, 56272, Control_c, 10, 7, 88
14, 56273, Control_c, 10, 7, 87
14, 56274, Control_c, 10, 7, 86
14, 56275, Control_c, 10, 7, 86
14, 56276, Control_c, 10, 7, 85
14, 56277, Control_c, 10, 7, 84
14, 56278, Control_c, 10, 7, 83
14, 56279, Control_c, 10, 7, 82
14, 56280, Control_c, 10, 7, 81
14, 56281, Control_c, 10, 7, 80
14, 56282, Control_c, 10, 7, 79
14, 56283, Control_c, 10, 7, 78
14, 56284, Control_c, 10, 7, 78
14, 56285, Control_c, 10, 7, 77
14, 56286, Control_c, 10, 7, 76
14, 56287, Control_c, 10, 7, 75
14, 56288, Control_c, 10, 7, 74
14, 56289, Control_c, 10, 7, 73
14, 56290, Control_c, 10, 7, 72
14, 56291, Control_c, 10, 7, 71
14, 56292, Control_c, 10, 7, 70
14, 56293, Control_c, 10, 7, 69
14, 56294, Control_c, 10, 7, 69
14, 56295, Control_c, 10, 7, 68
14, 56296, Control_c, 10, 7, 67
14, 56297, Control_c, 10, 7, 66
14, 56298, Control_c, 10, 7, 65
14, 56299, Control_c, 10, 7, 64
14, 56300, Control_c, 10, 7, 63
14, 56301, Control_c, 10, 7, 62
14, 56302, Control_c, 10, 7, 61
14, 56303, Control_c, 10, 7, 61
14, 56304, Note_off_c, 10, 51, 64
14, 56304, Note_off_c, 10, 27, 64
14, 56304, Note_off_c, 10, 39, 64
14, 56304, Note_on_c, 10, 39, 127
14, 56304, Note_on_c, 10, 27, 127
14, 56304, Note_on_c, 10, 51, 127
14, 56305, Control_c, 10, 7, 103
14, 56306, Control_c, 10, 7, 102
14, 56307, Control_c, 10, 7, 101
14, 56308, Control_c, 10, 7, 100
14, 56309, Control_c, 10, 7, 99
14, 56310, Control_c, 10, 7, 99
14, 56311, Control_c, 10, 7, 98
14, 56312, Control_c, 10, 7, 97
14, 56313, Control_c, 10, 7, 96
14, 56314, Control_c, 10, 7, 95
14, 56315, Control_c, 10, 7, 94
14, 56316, Control_c, 10, 7, 93
14, 56317, Control_c, 10, 7, 93
14, 56318, Control_c, 10, 7, 92
14, 56319, Control_c, 10, 7, 91
14, 56320, Control_c, 10, 7, 90
14, 56321, Control_c, 10, 7, 89
14, 56322, Control_c, 10, 7, 88
14, 56323, Control_c, 10, 7, 87
14, 56324, Control_c, 10, 7, 87
14, 56325, Control_c, 10, 7, 86
14, 56326, Control_c, 10, 7, 85
14, 56327, Control_c, 10, 7, 84
14, 56328, Control_c, 10, 7, 83
14, 56329, Control_c, 10, 7, 82
14, 56330, Control_c, 10, 7, 81
14, 56331, Control_c, 10, 7, 81
14, 56332, Control_c, 10, 7, 80
14, 56333, Control_c, 10, 7, 79
14, 56334, Control_c, 10, 7, 78
14, 56335, Control_c, 10, 7, 77
14, 56336, Control_c, 10, 7, 76
14, 56337, Control_c, 10, 7, 75
14, 56338, Control_c, 10, 7, 75
14, 56339, Control_c, 10, 7, 74
14, 56340, Control_c, 10, 7, 73
14, 56341, Control_c, 10, 7, 72
14, 56342, Control_c, 10, 7, 71
14, 56343, Control_c, 10, 7, 70
14, 56344, Control_c, 10, 7, 69
14, 56345, Control_c, 10, 7, 69
14, 56346, Control_c, 10, 7, 68
14, 56347, Control_c, 10, 7, 67
14, 56348, Control_c, 10, 7, 66
14, 56349, Control_c, 10, 7, 65
14, 56350, Control_c, 10, 7, 64
14, 56351, Control_c, 10, 7, 64
14, 56352, Note_off_c, 10, 51, 64
14, 56352, Note_off_c, 10, 27, 64
14, 56352, Note_off_c, 10, 39, 64
14, 56352, Note_on_c, 10, 39, 127
14, 56352, Note_on_c, 10, 27, 127
14, 56352, Note_on_c, 10, 51, 127
14, 56353, Control_c, 10, 7, 104
14, 56354, Control_c, 10, 7, 103
14, 56355, Control_c, 10, 7, 102
14, 56356, Control_c, 10, 7, 101
14, 56357, Control_c, 10, 7, 100
14, 56358, Control_c, 10, 7, 99
14, 56359, Control_c, 10, 7, 98
14, 56360, Control_c, 10, 7, 98
14, 56361, Control_c, 10, 7, 97
14, 56362, Control_c, 10, 7, 96
14, 56363, Control_c, 10, 7, 95
14, 56364, Control_c, 10, 7, 94
14, 56365, Control_c, 10, 7, 93
14, 56366, Control_c, 10, 7, 93
14, 56367, Control_c, 10, 7, 92
14, 56368, Control_c, 10, 7, 91
14, 56369, Control_c, 10, 7, 90
14, 56370, Control_c, 10, 7, 89
14, 56371, Control_c, 10, 7, 88
14, 56372, Control_c, 10, 7, 87
14, 56373, Control_c, 10, 7, 87
14, 56374, Control_c, 10, 7, 86
14, 56375, Control_c, 10, 7, 85
14, 56376, Control_c, 10, 7, 84
14, 56377, Control_c, 10, 7, 83
14, 56378, Control_c, 10, 7, 82
14, 56379, Control_c, 10, 7, 82
14, 56380, Control_c, 10, 7, 81
14, 56381, Control_c, 10, 7, 80
14, 56382, Control_c, 10, 7, 79
14, 56383, Control_c, 10, 7, 78
14, 56384, Control_c, 10, 7, 77
14, 56385, Control_c, 10, 7, 76
14, 56386, Control_c, 10, 7, 76
14, 56387, Control_c, 10, 7, 75
14, 56388, Control_c, 10, 7, 74
14, 56389, Control_c, 10, 7, 73
14, 56390, Control_c, 10, 7, 72
14, 56391, Control_c, 10, 7, 71
14, 56392, Control_c, 10, 7, 71
14, 56393, Control_c, 10, 7, 70
14, 56394, Control_c, 10, 7, 69
14, 56395, Control_c, 10, 7, 68
14, 56396, Control_c, 10, 7, 67
14, 56397, Control_c, 10, 7, 66
14, 56398, Control_c, 10, 7, 65
14, 56399, Control_c, 10, 7, 102
14, 56400, Note_off_c, 10, 51, 64
14, 56400, Note_off_c, 10, 27, 64
14, 56400, Note_off_c, 10, 39, 64
14, 56400, Control_c, 10, 7, 102
14, 56400, Note_on_c, 10, 39, 127
14, 56400, Note_on_c, 10, 27, 127
14, 56400, Note_on_c, 10, 51, 127
14, 56401, Control_c, 10, 7, 101
14, 56402, Control_c, 10, 7, 100
14, 56403, Control_c, 10, 7, 99
14, 56404, Control_c, 10, 7, 98
14, 56405, Control_c, 10, 7, 97
14, 56406, Control_c, 10, 7, 96
14, 56407, Control_c, 10, 7, 96
14, 56408, Control_c, 10, 7, 95
14, 56409, Control_c, 10, 7, 94
14, 56410, Control_c, 10, 7, 93
14, 56411, Control_c, 10, 7, 92
14, 56412, Control_c, 10, 7, 91
14, 56413, Control_c, 10, 7, 90
14, 56414, Control_c, 10, 7, 89
14, 56415, Control_c, 10, 7, 89
14, 56416, Control_c, 10, 7, 88
14, 56417, Control_c, 10, 7, 87
14, 56418, Control_c, 10, 7, 86
14, 56419, Control_c, 10, 7, 85
14, 56420, Control_c, 10, 7, 84
14, 56421, Control_c, 10, 7, 83
14, 56422, Control_c, 10, 7, 83
14, 56423, Control_c, 10, 7, 82
14, 56424, Control_c, 10, 7, 81
14, 56425, Control_c, 10, 7, 80
14, 56426, Control_c, 10, 7, 79
14, 56427, Control_c, 10, 7, 78
14, 56428, Control_c, 10, 7, 77
14, 56429, Control_c, 10, 7, 77
14, 56430, Control_c, 10, 7, 76
14, 56431, Control_c, 10, 7, 75
14, 56432, Control_c, 10, 7, 74
14, 56433, Control_c, 10, 7, 73
14, 56434, Control_c, 10, 7, 72
14, 56435, Control_c, 10, 7, 71
14, 56436, Control_c, 10, 7, 71
14, 56437, Control_c, 10, 7, 70
14, 56438, Control_c, 10, 7, 69
14, 56439, Control_c, 10, 7, 68
14, 56440, Control_c, 10, 7, 67
14, 56441, Control_c, 10, 7, 66
14, 56442, Control_c, 10, 7, 65
14, 56443, Control_c, 10, 7, 65
14, 56444, Control_c, 10, 7, 64
14, 56445, Control_c, 10, 7, 63
14, 56448, Note_off_c, 10, 51, 64
14, 56448, Note_off_c, 10, 27, 64
14, 56448, Note_off_c, 10, 39, 64
14, 56448, Control_c, 10, 7, 113
14, 56448, Note_on_c, 10, 39, 127
14, 56448, Note_on_c, 10, 27, 127
14, 56448, Note_on_c, 10, 51, 127
14, 56449, Control_c, 10, 7, 113
14, 56450, Control_c, 10, 7, 112
14, 56451, Control_c, 10, 7, 112
14, 56452, Control_c, 10, 7, 112
14, 56453, Control_c, 10, 7, 111
14, 56454, Control_c, 10, 7, 111
14, 56455, Control_c, 10, 7, 110
14, 56456, Control_c, 10, 7, 110
14, 56457, Control_c, 10, 7, 110
14, 56458, Control_c, 10, 7, 109
14, 56459, Control_c, 10, 7, 109
14, 56460, Control_c, 10, 7, 109
14, 56461, Control_c, 10, 7, 108
14, 56462, Control_c, 10, 7, 108
14, 56463, Control_c, 10, 7, 108
14, 56464, Control_c, 10, 7, 107
14, 56465, Control_c, 10, 7, 107
14, 56466, Control_c, 10, 7, 107
14, 56467, Control_c, 10, 7, 106
14, 56468, Control_c, 10, 7, 106
14, 56469, Control_c, 10, 7, 106
14, 56470, Control_c, 10, 7, 105
14, 56471, Control_c, 10, 7, 105
14, 56472, Control_c, 10, 7, 104
14, 56473, Control_c, 10, 7, 104
14, 56474, Control_c, 10, 7, 104
14, 56475, Control_c, 10, 7, 103
14, 56476, Control_c, 10, 7, 103
14, 56477, Control_c, 10, 7, 103
14, 56478, Control_c, 10, 7, 102
14, 56479, Control_c, 10, 7, 102
14, 56480, Control_c, 10, 7, 102
14, 56481, Control_c, 10, 7, 101
14, 56482, Control_c, 10, 7, 101
14, 56483, Control_c, 10, 7, 101
14, 56484, Control_c, 10, 7, 100
14, 56485, Control_c, 10, 7, 100
14, 56486, Control_c, 10, 7, 100
14, 56487, Control_c, 10, 7, 99
14, 56488, Control_c, 10, 7, 99
14, 56489, Control_c, 10, 7, 98
14, 56490, Control_c, 10, 7, 98
14, 56491, Control_c, 10, 7, 98
14, 56492, Control_c, 10, 7, 97
14, 56493, Control_c, 10, 7, 97
14, 56494, Control_c, 10, 7, 97
14, 56495, Control_c, 10, 7, 96
14, 56496, Control_c, 10, 7, 96
14, 56497, Control_c, 10, 7, 96
14, 56498, Control_c, 10, 7, 95
14, 56499, Control_c, 10, 7, 95
14, 56500, Control_c, 10, 7, 95
14, 56501, Control_c, 10, 7, 94
14, 56502, Control_c, 10, 7, 94
14, 56503, Control_c, 10, 7, 94
14, 56504, Control_c, 10, 7, 93
14, 56505, Control_c, 10, 7, 93
14, 56506, Control_c, 10, 7, 92
14, 56507, Control_c, 10, 7, 92
14, 56508, Control_c, 10, 7, 92
14, 56509, Control_c, 10, 7, 91
14, 56510, Control_c, 10, 7, 91
14, 56511, Control_c, 10, 7, 91
14, 56512, Control_c, 10, 7, 90
14, 56513, Control_c, 10, 7, 90
14, 56514, Control_c, 10, 7, 90
14, 56515, Control_c, 10, 7, 89
14, 56516, Control_c, 10, 7, 89
14, 56517, Control_c, 10, 7, 89
14, 56518, Control_c, 10, 7, 88
14, 56519, Control_c, 10, 7, 88
14, 56520, Control_c, 10, 7, 88
14, 56521, Control_c, 10, 7, 87
14, 56522, Control_c, 10, 7, 87
14, 56523, Control_c, 10, 7, 86
14, 56524, Control_c, 10, 7, 86
14, 56525, Control_c, 10, 7, 86
14, 56526, Control_c, 10, 7, 85
14, 56527, Control_c, 10, 7, 85
14, 56528, Control_c, 10, 7, 85
14, 56529, Control_c, 10, 7, 84
14, 56530, Control_c, 10, 7, 84
14, 56531, Control_c, 10, 7, 84
14, 56532, Control_c, 10, 7, 83
14, 56533, Control_c, 10, 7, 83
14, 56534, Control_c, 10, 7, 83
14, 56535, Control_c, 10, 7, 82
14, 56536, Control_c, 10, 7, 82
14, 56537, Control_c, 10, 7, 82
14, 56538, Control_c, 10, 7, 81
14, 56539, Control_c, 10, 7, 81
14, 56540, Control_c, 10, 7, 80
14, 56541, Control_c, 10, 7, 80
14, 56542, Control_c, 10, 7, 80
14, 56543, Control_c, 10, 7, 79
14, 56544, Control_c, 10, 7, 79
14, 56545, Control_c, 10, 7, 79
14, 56546, Control_c, 10, 7, 78
14, 56547, Control_c, 10, 7, 78
14, 56548, Control_c, 10, 7, 78
14, 56549, Control_c, 10, 7, 77
14, 56550, Control_c, 10, 7, 77
14, 56551, Control_c, 10, 7, 77
14, 56552, Control_c, 10, 7, 76
14, 56553, Control_c, 10, 7, 76
14, 56554, Control_c, 10, 7, 76
14, 56555, Control_c, 10, 7, 75
14, 56556, Control_c, 10, 7, 75
14, 56557, Control_c, 10, 7, 74
14, 56558, Control_c, 10, 7, 74
14, 56559, Control_c, 10, 7, 74
14, 56560, Control_c, 10, 7, 73
14, 56561, Control_c, 10, 7, 73
14, 56562, Control_c, 10, 7, 73
14, 56563, Control_c, 10, 7, 72
14, 56564, Control_c, 10, 7, 72
14, 56565, Control_c, 10, 7, 72
14, 56566, Control_c, 10, 7, 71
14, 56567, Control_c, 10, 7, 71
14, 56568, Control_c, 10, 7, 71
14, 56569, Control_c, 10, 7, 70
14, 56570, Control_c, 10, 7, 70
14, 56571, Control_c, 10, 7, 70
14, 56572, Control_c, 10, 7, 69
14, 56573, Control_c, 10, 7, 69
14, 56574, Control_c, 10, 7, 68
14, 56575, Control_c, 10, 7, 68
14, 56576, Control_c, 10, 7, 68
14, 56577, Control_c, 10, 7, 67
14, 56578, Control_c, 10, 7, 67
14, 56579, Control_c, 10, 7, 67
14, 56580, Control_c, 10, 7, 66
14, 56581, Control_c, 10, 7, 66
14, 56582, Control_c, 10, 7, 66
14, 56583, Control_c, 10, 7, 65
14, 56584, Control_c, 10, 7, 65
14, 56585, Control_c, 10, 7, 65
14, 56586, Control_c, 10, 7, 64
14, 56587, Control_c, 10, 7, 64
14, 56588, Control_c, 10, 7, 64
14, 56589, Control_c, 10, 7, 63
14, 56590, Control_c, 10, 7, 111
14, 56591, Control_c, 10, 7, 111
14, 56592, Note_off_c, 10, 51, 64
14, 56592, Note_off_c, 10, 27, 64
14, 56592, Note_off_c, 10, 39, 64
14, 56592, Control_c, 10, 7, 110
14, 56592, Note_on_c, 10, 39, 127
14, 56592, Note_on_c, 10, 51, 127
14, 56592, Note_on_c, 10, 27, 127
14, 56593, Control_c, 10, 7, 110
14, 56594, Control_c, 10, 7, 110
14, 56595, Control_c, 10, 7, 109
14, 56596, Control_c, 10, 7, 109
14, 56597, Control_c, 10, 7, 109
14, 56598, Control_c, 10, 7, 109
14, 56599, Control_c, 10, 7, 108
14, 56600, Control_c, 10, 7, 108
14, 56601, Control_c, 10, 7, 108
14, 56602, Control_c, 10, 7, 107
14, 56603, Control_c, 10, 7, 107
14, 56604, Control_c, 10, 7, 107
14, 56605, Control_c, 10, 7, 106
14, 56606, Control_c, 10, 7, 106
14, 56607, Control_c, 10, 7, 106
14, 56608, Control_c, 10, 7, 105
14, 56609, Control_c, 10, 7, 105
14, 56610, Control_c, 10, 7, 105
14, 56611, Control_c, 10, 7, 104
14, 56612, Control_c, 10, 7, 104
14, 56613, Control_c, 10, 7, 104
14, 56614, Control_c, 10, 7, 103
14, 56615, Control_c, 10, 7, 103
14, 56616, Control_c, 10, 7, 103
14, 56617, Control_c, 10, 7, 102
14, 56618, Control_c, 10, 7, 102
14, 56619, Control_c, 10, 7, 102
14, 56620, Control_c, 10, 7, 101
14, 56621, Control_c, 10, 7, 101
14, 56622, Control_c, 10, 7, 101
14, 56623, Control_c, 10, 7, 100
14, 56624, Control_c, 10, 7, 100
14, 56625, Control_c, 10, 7, 100
14, 56626, Control_c, 10, 7, 99
14, 56627, Control_c, 10, 7, 99
14, 56628, Control_c, 10, 7, 99
14, 56629, Control_c, 10, 7, 98
14, 56630, Control_c, 10, 7, 98
14, 56631, Control_c, 10, 7, 98
14, 56632, Control_c, 10, 7, 97
14, 56633, Control_c, 10, 7, 97
14, 56634, Control_c, 10, 7, 97
14, 56635, Control_c, 10, 7, 96
14, 56636, Control_c, 10, 7, 96
14, 56637, Control_c, 10, 7, 96
14, 56638, Control_c, 10, 7, 95
14, 56639, Control_c, 10, 7, 95
14, 56640, Control_c, 10, 7, 95
14, 56641, Control_c, 10, 7, 94
14, 56642, Control_c, 10, 7, 94
14, 56643, Control_c, 10, 7, 94
14, 56644, Control_c, 10, 7, 93
14, 56645, Control_c, 10, 7, 93
14, 56646, Control_c, 10, 7, 93
14, 56647, Control_c, 10, 7, 92
14, 56648, Control_c, 10, 7, 92
14, 56649, Control_c, 10, 7, 92
14, 56650, Control_c, 10, 7, 91
14, 56651, Control_c, 10, 7, 91
14, 56652, Control_c, 10, 7, 91
14, 56653, Control_c, 10, 7, 90
14, 56654, Control_c, 10, 7, 90
14, 56655, Control_c, 10, 7, 90
14, 56656, Control_c, 10, 7, 89
14, 56657, Control_c, 10, 7, 89
14, 56658, Control_c, 10, 7, 89
14, 56659, Control_c, 10, 7, 88
14, 56660, Control_c, 10, 7, 88
14, 56661, Control_c, 10, 7, 88
14, 56662, Control_c, 10, 7, 87
14, 56663, Control_c, 10, 7, 87
14, 56664, Control_c, 10, 7, 87
14, 56665, Control_c, 10, 7, 86
14, 56666, Control_c, 10, 7, 86
14, 56667, Control_c, 10, 7, 86
14, 56668, Control_c, 10, 7, 85
14, 56669, Control_c, 10, 7, 85
14, 56670, Control_c, 10, 7, 85
14, 56671, Control_c, 10, 7, 84
14, 56672, Control_c, 10, 7, 84
14, 56673, Control_c, 10, 7, 84
14, 56674, Control_c, 10, 7, 83
14, 56675, Control_c, 10, 7, 83
14, 56676, Control_c, 10, 7, 83
14, 56677, Control_c, 10, 7, 82
14, 56678, Control_c, 10, 7, 82
14, 56679, Control_c, 10, 7, 82
14, 56680, Control_c, 10, 7, 81
14, 56681, Control_c, 10, 7, 81
14, 56682, Control_c, 10, 7, 81
14, 56683, Control_c, 10, 7, 80
14, 56684, Control_c, 10, 7, 80
14, 56685, Control_c, 10, 7, 80
14, 56686, Control_c, 10, 7, 79
14, 56687, Control_c, 10, 7, 79
14, 56688, Control_c, 10, 7, 79
14, 56689, Control_c, 10, 7, 78
14, 56690, Control_c, 10, 7, 78
14, 56691, Control_c, 10, 7, 78
14, 56692, Control_c, 10, 7, 77
14, 56693, Control_c, 10, 7, 77
14, 56694, Control_c, 10, 7, 77
14, 56695, Control_c, 10, 7, 76
14, 56696, Control_c, 10, 7, 76
14, 56697, Control_c, 10, 7, 76
14, 56698, Control_c, 10, 7, 75
14, 56699, Control_c, 10, 7, 75
14, 56700, Control_c, 10, 7, 75
14, 56701, Control_c, 10, 7, 74
14, 56702, Control_c, 10, 7, 74
14, 56703, Control_c, 10, 7, 74
14, 56704, Control_c, 10, 7, 73
14, 56705, Control_c, 10, 7, 73
14, 56706, Control_c, 10, 7, 73
14, 56707, Control_c, 10, 7, 72
14, 56708, Control_c, 10, 7, 72
14, 56709, Control_c, 10, 7, 72
14, 56710, Control_c, 10, 7, 71
14, 56711, Control_c, 10, 7, 71
14, 56712, Control_c, 10, 7, 71
14, 56713, Control_c, 10, 7, 70
14, 56714, Control_c, 10, 7, 70
14, 56715, Control_c, 10, 7, 70
14, 56716, Control_c, 10, 7, 69
14, 56717, Control_c, 10, 7, 69
14, 56718, Control_c, 10, 7, 69
14, 56719, Control_c, 10, 7, 68
14, 56720, Control_c, 10, 7, 68
14, 56721, Control_c, 10, 7, 68
14, 56722, Control_c, 10, 7, 67
14, 56723, Control_c, 10, 7, 67
14, 56724, Control_c, 10, 7, 67
14, 56725, Control_c, 10, 7, 66
14, 56726, Control_c, 10, 7, 66
14, 56727, Control_c, 10, 7, 66
14, 56728, Control_c, 10, 7, 65
14, 56729, Control_c, 10, 7, 65
14, 56730, Control_c, 10, 7, 65
14, 56731, Control_c, 10, 7, 64
14, 56732, Control_c, 10, 7, 64
14, 56733, Control_c, 10, 7, 64
14, 56734, Control_c, 10, 7, 63
14, 56735, Control_c, 10, 7, 63
14, 56736, Note_off_c, 10, 27, 64
14, 56736, Note_off_c, 10, 51, 64
14, 56736, Note_off_c, 10, 39, 64
14, 56736, Control_c, 10, 7, 64
14, 56736, Note_on_c, 10, 39, 127
14, 56736, Note_on_c, 10, 51, 127
14, 56736, Note_on_c, 10, 27, 127
14, 56737, Control_c, 10, 7, 64
14, 56738, Control_c, 10, 7, 65
14, 56739, Control_c, 10, 7, 65
14, 56740, Control_c, 10, 7, 66
14, 56741, Control_c, 10, 7, 66
14, 56742, Control_c, 10, 7, 67
14, 56743, Control_c, 10, 7, 67
14, 56744, Control_c, 10, 7, 68
14, 56745, Control_c, 10, 7, 68
14, 56746, Control_c, 10, 7, 69
14, 56747, Control_c, 10, 7, 69
14, 56748, Control_c, 10, 7, 70
14, 56749, Control_c, 10, 7, 70
14, 56750, Control_c, 10, 7, 71
14, 56751, Control_c, 10, 7, 71
14, 56752, Control_c, 10, 7, 72
14, 56753, Control_c, 10, 7, 72
14, 56754, Control_c, 10, 7, 73
14, 56755, Control_c, 10, 7, 73
14, 56756, Control_c, 10, 7, 74
14, 56757, Control_c, 10, 7, 74
14, 56758, Control_c, 10, 7, 75
14, 56759, Control_c, 10, 7, 75
14, 56760, Control_c, 10, 7, 76
14, 56761, Control_c, 10, 7, 76
14, 56762, Control_c, 10, 7, 77
14, 56763, Control_c, 10, 7, 77
14, 56764, Control_c, 10, 7, 78
14, 56765, Control_c, 10, 7, 78
14, 56766, Control_c, 10, 7, 79
14, 56767, Control_c, 10, 7, 79
14, 56768, Control_c, 10, 7, 80
14, 56769, Control_c, 10, 7, 80
14, 56770, Control_c, 10, 7, 81
14, 56771, Control_c, 10, 7, 81
14, 56772, Control_c, 10, 7, 82
14, 56773, Control_c, 10, 7, 82
14, 56774, Control_c, 10, 7, 83
14, 56775, Control_c, 10, 7, 83
14, 56776, Control_c, 10, 7, 84
14, 56777, Control_c, 10, 7, 84
14, 56778, Control_c, 10, 7, 85
14, 56779, Control_c, 10, 7, 85
14, 56780, Control_c, 10, 7, 86
14, 56781, Control_c, 10, 7, 86
14, 56782, Control_c, 10, 7, 87
14, 56783, Control_c, 10, 7, 87
14, 56784, Control_c, 10, 7, 88
14, 56785, Control_c, 10, 7, 88
14, 56786, Control_c, 10, 7, 89
14, 56787, Control_c, 10, 7, 89
14, 56788, Control_c, 10, 7, 90
14, 56789, Control_c, 10, 7, 90
14, 56790, Control_c, 10, 7, 91
14, 56791, Control_c, 10, 7, 91
14, 56792, Control_c, 10, 7, 92
14, 56793, Control_c, 10, 7, 92
14, 56794, Control_c, 10, 7, 93
14, 56795, Control_c, 10, 7, 93
14, 56796, Control_c, 10, 7, 94
14, 56797, Control_c, 10, 7, 94
14, 56798, Control_c, 10, 7, 95
14, 56799, Control_c, 10, 7, 95
14, 56800, Control_c, 10, 7, 96
14, 56801, Control_c, 10, 7, 96
14, 56802, Control_c, 10, 7, 97
14, 56803, Control_c, 10, 7, 97
14, 56804, Control_c, 10, 7, 98
14, 56805, Control_c, 10, 7, 98
14, 56806, Control_c, 10, 7, 99
14, 56807, Control_c, 10, 7, 99
14, 56808, Control_c, 10, 7, 100
14, 56809, Control_c, 10, 7, 100
14, 56810, Control_c, 10, 7, 101
14, 56811, Control_c, 10, 7, 101
14, 56812, Control_c, 10, 7, 102
14, 56813, Control_c, 10, 7, 102
14, 56814, Control_c, 10, 7, 103
14, 56815, Control_c, 10, 7, 103
14, 56816, Control_c, 10, 7, 104
14, 56817, Control_c, 10, 7, 104
14, 56818, Control_c, 10, 7, 105
14, 56819, Control_c, 10, 7, 105
14, 56820, Control_c, 10, 7, 106
14, 56821, Control_c, 10, 7, 106
14, 56822, Control_c, 10, 7, 107
14, 56823, Control_c, 10, 7, 107
14, 56824, Control_c, 10, 7, 108
14, 56825, Control_c, 10, 7, 108
14, 56826, Control_c, 10, 7, 109
14, 56827, Control_c, 10, 7, 109
14, 56828, Control_c, 10, 7, 110
14, 56829, Control_c, 10, 7, 110
14, 56830, Control_c, 10, 7, 111
14, 56831, Control_c, 10, 7, 111
14, 56832, Note_off_c, 10, 27, 64
14, 56832, Note_off_c, 10, 51, 64
14, 56832, Note_off_c, 10, 39, 64
14, 56832, Control_c, 10, 7, 112
14, 56832, Note_on_c, 10, 39, 127
14, 56832, Note_on_c, 10, 51, 127
14, 56832, Note_on_c, 10, 27, 127
14, 56833, Control_c, 10, 7, 64
14, 56834, Control_c, 10, 7, 65
14, 56835, Control_c, 10, 7, 66
14, 56836, Control_c, 10, 7, 67
14, 56837, Control_c, 10, 7, 68
14, 56838, Control_c, 10, 7, 69
14, 56839, Control_c, 10, 7, 69
14, 56840, Control_c, 10, 7, 70
14, 56841, Control_c, 10, 7, 71
14, 56842, Control_c, 10, 7, 72
14, 56843, Control_c, 10, 7, 73
14, 56844, Control_c, 10, 7, 74
14, 56845, Control_c, 10, 7, 75
14, 56846, Control_c, 10, 7, 76
14, 56847, Control_c, 10, 7, 77
14, 56848, Control_c, 10, 7, 78
14, 56849, Control_c, 10, 7, 79
14, 56850, Control_c, 10, 7, 80
14, 56851, Control_c, 10, 7, 81
14, 56852, Control_c, 10, 7, 82
14, 56853, Control_c, 10, 7, 83
14, 56854, Control_c, 10, 7, 85
14, 56855, Control_c, 10, 7, 86
14, 56856, Control_c, 10, 7, 87
14, 56857, Control_c, 10, 7, 88
14, 56858, Control_c, 10, 7, 89
14, 56859, Control_c, 10, 7, 90
14, 56860, Control_c, 10, 7, 91
14, 56861, Control_c, 10, 7, 92
14, 56862, Control_c, 10, 7, 93
14, 56863, Control_c, 10, 7, 94
14, 56864, Control_c, 10, 7, 95
14, 56865, Control_c, 10, 7, 96
14, 56866, Control_c, 10, 7, 97
14, 56867, Control_c, 10, 7, 98
14, 56868, Control_c, 10, 7, 99
14, 56869, Control_c, 10, 7, 100
14, 56870, Control_c, 10, 7, 102
14, 56871, Control_c, 10, 7, 103
14, 56872, Control_c, 10, 7, 104
14, 56873, Control_c, 10, 7, 105
14, 56874, Control_c, 10, 7, 106
14, 56875, Control_c, 10, 7, 107
14, 56876, Control_c, 10, 7, 108
14, 56877, Control_c, 10, 7, 109
14, 56878, Control_c, 10, 7, 110
14, 56879, Control_c, 10, 7, 111
14, 56880, Note_off_c, 10, 27, 64
14, 56880, Note_off_c, 10, 51, 64
14, 56880, Note_off_c, 10, 39, 64
14, 56880, Control_c, 10, 7, 65
14, 56880, Note_on_c, 10, 39, 127
14, 56880, Note_on_c, 10, 51, 127
14, 56880, Note_on_c, 10, 27, 127
14, 56881, Control_c, 10, 7, 66
14, 56882, Control_c, 10, 7, 67
14, 56883, Control_c, 10, 7, 67
14, 56884, Control_c, 10, 7, 68
14, 56885, Control_c, 10, 7, 69
14, 56886, Control_c, 10, 7, 70
14, 56887, Control_c, 10, 7, 71
14, 56888, Control_c, 10, 7, 72
14, 56889, Control_c, 10, 7, 73
14, 56890, Control_c, 10, 7, 74
14, 56891, Control_c, 10, 7, 75
14, 56892, Control_c, 10, 7, 76
14, 56893, Control_c, 10, 7, 77
14, 56894, Control_c, 10, 7, 78
14, 56895, Control_c, 10, 7, 79
14, 56896, Control_c, 10, 7, 80
14, 56897, Control_c, 10, 7, 81
14, 56898, Control_c, 10, 7, 82
14, 56899, Control_c, 10, 7, 83
14, 56900, Control_c, 10, 7, 84
14, 56901, Control_c, 10, 7, 85
14, 56902, Control_c, 10, 7, 86
14, 56903, Control_c, 10, 7, 87
14, 56904, Control_c, 10, 7, 88
14, 56905, Control_c, 10, 7, 89
14, 56906, Control_c, 10, 7, 89
14, 56907, Control_c, 10, 7, 90
14, 56908, Control_c, 10, 7, 91
14, 56909, Control_c, 10, 7, 92
14, 56910, Control_c, 10, 7, 93
14, 56911, Control_c, 10, 7, 94
14, 56912, Control_c, 10, 7, 95
14, 56913, Control_c, 10, 7, 96
14, 56914, Control_c, 10, 7, 97
14, 56915, Control_c, 10, 7, 98
14, 56916, Control_c, 10, 7, 99
14, 56917, Control_c, 10, 7, 100
14, 56918, Control_c, 10, 7, 101
14, 56919, Control_c, 10, 7, 102
14, 56920, Control_c, 10, 7, 103
14, 56921, Control_c, 10, 7, 104
14, 56922, Control_c, 10, 7, 105
14, 56923, Control_c, 10, 7, 106
14, 56924, Control_c, 10, 7, 107
14, 56925, Control_c, 10, 7, 108
14, 56926, Control_c, 10, 7, 109
14, 56927, Control_c, 10, 7, 110
14, 56928, Note_off_c, 10, 27, 64
14, 56928, Note_off_c, 10, 51, 64
14, 56928, Note_off_c, 10, 39, 64
14, 56928, Control_c, 10, 7, 64
14, 56928, Note_on_c, 10, 39, 127
14, 56928, Note_on_c, 10, 51, 127
14, 56928, Note_on_c, 10, 27, 127
14, 56929, Control_c, 10, 7, 65
14, 56930, Control_c, 10, 7, 65
14, 56931, Control_c, 10, 7, 66
14, 56932, Control_c, 10, 7, 67
14, 56933, Control_c, 10, 7, 68
14, 56934, Control_c, 10, 7, 69
14, 56935, Control_c, 10, 7, 70
14, 56936, Control_c, 10, 7, 70
14, 56937, Control_c, 10, 7, 71
14, 56938, Control_c, 10, 7, 72
14, 56939, Control_c, 10, 7, 73
14, 56940, Control_c, 10, 7, 74
14, 56941, Control_c, 10, 7, 75
14, 56942, Control_c, 10, 7, 76
14, 56943, Control_c, 10, 7, 77
14, 56944, Control_c, 10, 7, 78
14, 56945, Control_c, 10, 7, 79
14, 56946, Control_c, 10, 7, 80
14, 56947, Control_c, 10, 7, 81
14, 56948, Control_c, 10, 7, 82
14, 56949, Control_c, 10, 7, 83
14, 56950, Control_c, 10, 7, 84
14, 56951, Control_c, 10, 7, 85
14, 56952, Control_c, 10, 7, 86
14, 56953, Control_c, 10, 7, 88
14, 56954, Control_c, 10, 7, 89
14, 56955, Control_c, 10, 7, 90
14, 56956, Control_c, 10, 7, 91
14, 56957, Control_c, 10, 7, 92
14, 56958, Control_c, 10, 7, 93
14, 56959, Control_c, 10, 7, 94
14, 56960, Control_c, 10, 7, 95
14, 56961, Control_c, 10, 7, 96
14, 56962, Control_c, 10, 7, 97
14, 56963, Control_c, 10, 7, 98
14, 56964, Control_c, 10, 7, 99
14, 56965, Control_c, 10, 7, 100
14, 56966, Control_c, 10, 7, 101
14, 56967, Control_c, 10, 7, 102
14, 56968, Control_c, 10, 7, 103
14, 56969, Control_c, 10, 7, 104
14, 56970, Control_c, 10, 7, 105
14, 56971, Control_c, 10, 7, 106
14, 56972, Control_c, 10, 7, 107
14, 56973, Control_c, 10, 7, 108
14, 56974, Control_c, 10, 7, 109
14, 56975, Control_c, 10, 7, 110
14, 56976, Note_off_c, 10, 27, 64
14, 56976, Note_off_c, 10, 51, 64
14, 56976, Note_off_c, 10, 39, 64
14, 56976, Control_c, 10, 7, 66
14, 56976, Note_on_c, 10, 39, 127
14, 56976, Note_on_c, 10, 51, 127
14, 56976, Note_on_c, 10, 27, 127
14, 56977, Control_c, 10, 7, 67
14, 56978, Control_c, 10, 7, 68
14, 56979, Control_c, 10, 7, 69
14, 56980, Control_c, 10, 7, 69
14, 56981, Control_c, 10, 7, 70
14, 56982, Control_c, 10, 7, 71
14, 56983, Control_c, 10, 7, 72
14, 56984, Control_c, 10, 7, 73
14, 56985, Control_c, 10, 7, 74
14, 56986, Control_c, 10, 7, 75
14, 56987, Control_c, 10, 7, 76
14, 56988, Control_c, 10, 7, 77
14, 56989, Control_c, 10, 7, 77
14, 56990, Control_c, 10, 7, 78
14, 56991, Control_c, 10, 7, 79
14, 56992, Control_c, 10, 7, 80
14, 56993, Control_c, 10, 7, 81
14, 56994, Control_c, 10, 7, 82
14, 56995, Control_c, 10, 7, 83
14, 56996, Control_c, 10, 7, 84
14, 56997, Control_c, 10, 7, 84
14, 56998, Control_c, 10, 7, 85
14, 56999, Control_c, 10, 7, 86
14, 57000, Control_c, 10, 7, 87
14, 57001, Control_c, 10, 7, 88
14, 57002, Control_c, 10, 7, 89
14, 57003, Control_c, 10, 7, 90
14, 57004, Control_c, 10, 7, 91
14, 57005, Control_c, 10, 7, 91
14, 57006, Control_c, 10, 7, 92
14, 57007, Control_c, 10, 7, 93
14, 57008, Control_c, 10, 7, 94
14, 57009, Control_c, 10, 7, 95
14, 57010, Control_c, 10, 7, 96
14, 57011, Control_c, 10, 7, 97
14, 57012, Control_c, 10, 7, 98
14, 57013, Control_c, 10, 7, 98
14, 57014, Control_c, 10, 7, 99
14, 57015, Control_c, 10, 7, 100
14, 57016, Control_c, 10, 7, 101
14, 57017, Control_c, 10, 7, 102
14, 57018, Control_c, 10, 7, 103
14, 57019, Control_c, 10, 7, 104
14, 57020, Control_c, 10, 7, 104
14, 57021, Control_c, 10, 7, 105
14, 57022, Control_c, 10, 7, 106
14, 57023, Control_c, 10, 7, 107
14, 57024, Note_off_c, 10, 27, 64
14, 57024, Note_off_c, 10, 51, 64
14, 57024, Note_off_c, 10, 39, 64
14, 57024, Control_c, 10, 7, 67
14, 57024, Note_on_c, 10, 39, 127
14, 57024, Note_on_c, 10, 51, 127
14, 57024, Note_on_c, 10, 27, 127
14, 57025, Control_c, 10, 7, 68
14, 57026, Control_c, 10, 7, 69
14, 57027, Control_c, 10, 7, 70
14, 57028, Control_c, 10, 7, 71
14, 57029, Control_c, 10, 7, 72
14, 57030, Control_c, 10, 7, 73
14, 57031, Control_c, 10, 7, 74
14, 57032, Control_c, 10, 7, 75
14, 57033, Control_c, 10, 7, 75
14, 57034, Control_c, 10, 7, 76
14, 57035, Control_c, 10, 7, 77
14, 57036, Control_c, 10, 7, 78
14, 57037, Control_c, 10, 7, 79
14, 57038, Control_c, 10, 7, 80
14, 57039, Control_c, 10, 7, 81
14, 57040, Control_c, 10, 7, 82
14, 57041, Control_c, 10, 7, 83
14, 57042, Control_c, 10, 7, 84
14, 57043, Control_c, 10, 7, 85
14, 57044, Control_c, 10, 7, 86
14, 57045, Control_c, 10, 7, 87
14, 57046, Control_c, 10, 7, 88
14, 57047, Control_c, 10, 7, 89
14, 57048, Control_c, 10, 7, 90
14, 57049, Control_c, 10, 7, 90
14, 57050, Control_c, 10, 7, 91
14, 57051, Control_c, 10, 7, 92
14, 57052, Control_c, 10, 7, 93
14, 57053, Control_c, 10, 7, 94
14, 57054, Control_c, 10, 7, 95
14, 57055, Control_c, 10, 7, 96
14, 57056, Control_c, 10, 7, 97
14, 57057, Control_c, 10, 7, 98
14, 57058, Control_c, 10, 7, 99
14, 57059, Control_c, 10, 7, 100
14, 57060, Control_c, 10, 7, 101
14, 57061, Control_c, 10, 7, 102
14, 57062, Control_c, 10, 7, 103
14, 57063, Control_c, 10, 7, 104
14, 57064, Control_c, 10, 7, 105
14, 57065, Control_c, 10, 7, 106
14, 57066, Control_c, 10, 7, 106
14, 57067, Control_c, 10, 7, 107
14, 57068, Control_c, 10, 7, 108
14, 57069, Control_c, 10, 7, 109
14, 57070, Control_c, 10, 7, 110
14, 57071, Control_c, 10, 7, 111
14, 57072, Note_off_c, 10, 27, 64
14, 57072, Note_off_c, 10, 51, 64
14, 57072, Note_off_c, 10, 39, 64
14, 57072, Control_c, 10, 7, 61
14, 57072, Note_on_c, 10, 39, 127
14, 57072, Note_on_c, 10, 51, 127
14, 57072, Note_on_c, 10, 27, 127
14, 57073, Control_c, 10, 7, 62
14, 57074, Control_c, 10, 7, 63
14, 57075, Control_c, 10, 7, 64
14, 57076, Control_c, 10, 7, 65
14, 57077, Control_c, 10, 7, 66
14, 57078, Control_c, 10, 7, 67
14, 57079, Control_c, 10, 7, 68
14, 57080, Control_c, 10, 7, 70
14, 57081, Control_c, 10, 7, 71
14, 57082, Control_c, 10, 7, 72
14, 57083, Control_c, 10, 7, 73
14, 57084, Control_c, 10, 7, 74
14, 57085, Control_c, 10, 7, 75
14, 57086, Control_c, 10, 7, 76
14, 57087, Control_c, 10, 7, 78
14, 57088, Control_c, 10, 7, 79
14, 57089, Control_c, 10, 7, 80
14, 57090, Control_c, 10, 7, 81
14, 57091, Control_c, 10, 7, 82
14, 57092, Control_c, 10, 7, 83
14, 57093, Control_c, 10, 7, 84
14, 57094, Control_c, 10, 7, 85
14, 57095, Control_c, 10, 7, 87
14, 57096, Control_c, 10, 7, 88
14, 57097, Control_c, 10, 7, 89
14, 57098, Control_c, 10, 7, 90
14, 57099, Control_c, 10, 7, 91
14, 57100, Control_c, 10, 7, 92
14, 57101, Control_c, 10, 7, 93
14, 57102, Control_c, 10, 7, 95
14, 57103, Control_c, 10, 7, 96
14, 57104, Control_c, 10, 7, 97
14, 57105, Control_c, 10, 7, 98
14, 57106, Control_c, 10, 7, 99
14, 57107, Control_c, 10, 7, 100
14, 57108, Control_c, 10, 7, 101
14, 57109, Control_c, 10, 7, 102
14, 57110, Control_c, 10, 7, 104
14, 57111, Control_c, 10, 7, 105
14, 57112, Control_c, 10, 7, 106
14, 57113, Control_c, 10, 7, 107
14, 57114, Control_c, 10, 7, 108
14, 57115, Control_c, 10, 7, 110
14, 57116, Control_c, 10, 7, 111
14, 57117, Control_c, 10, 7, 112
14, 57118, Control_c, 10, 7, 113
14, 57119, Control_c, 10, 7, 114
14, 57120, Note_off_c, 10, 27, 64
14, 57120, Note_off_c, 10, 51, 64
14, 57120, Note_off_c, 10, 39, 64
14, 57120, Control_c, 10, 7, 65
14, 57120, Note_on_c, 10, 39, 127
14, 57120, Note_on_c, 10, 51, 127
14, 57120, Note_on_c, 10, 27, 127
14, 57121, Control_c, 10, 7, 66
14, 57122, Control_c, 10, 7, 67
14, 57123, Control_c, 10, 7, 68
14, 57124, Control_c, 10, 7, 70
14, 57125, Control_c, 10, 7, 71
14, 57126, Control_c, 10, 7, 72
14, 57127, Control_c, 10, 7, 73
14, 57128, Control_c, 10, 7, 74
14, 57129, Control_c, 10, 7, 75
14, 57130, Control_c, 10, 7, 76
14, 57131, Control_c, 10, 7, 77
14, 57132, Control_c, 10, 7, 78
14, 57133, Control_c, 10, 7, 79
14, 57134, Control_c, 10, 7, 80
14, 57135, Control_c, 10, 7, 81
14, 57136, Control_c, 10, 7, 82
14, 57137, Control_c, 10, 7, 83
14, 57138, Control_c, 10, 7, 84
14, 57139, Control_c, 10, 7, 85
14, 57140, Control_c, 10, 7, 86
14, 57141, Control_c, 10, 7, 88
14, 57142, Control_c, 10, 7, 89
14, 57143, Control_c, 10, 7, 90
14, 57144, Control_c, 10, 7, 91
14, 57145, Control_c, 10, 7, 92
14, 57146, Control_c, 10, 7, 93
14, 57147, Control_c, 10, 7, 94
14, 57148, Control_c, 10, 7, 95
14, 57149, Control_c, 10, 7, 96
14, 57150, Control_c, 10, 7, 97
14, 57151, Control_c, 10, 7, 98
14, 57152, Control_c, 10, 7, 99
14, 57153, Control_c, 10, 7, 100
14, 57154, Control_c, 10, 7, 101
14, 57155, Control_c, 10, 7, 102
14, 57156, Control_c, 10, 7, 103
14, 57157, Control_c, 10, 7, 105
14, 57158, Control_c, 10, 7, 106
14, 57159, Control_c, 10, 7, 107
14, 57160, Control_c, 10, 7, 108
14, 57161, Control_c, 10, 7, 109
14, 57162, Control_c, 10, 7, 109
14, 57163, Control_c, 10, 7, 110
14, 57164, Control_c, 10, 7, 112
14, 57165, Control_c, 10, 7, 113
14, 57166, Control_c, 10, 7, 114
14, 57167, Control_c, 10, 7, 115
14, 57168, Note_off_c, 10, 27, 64
14, 57168, Note_off_c, 10, 51, 64
14, 57168, Note_off_c, 10, 39, 64
14, 57168, Control_c, 10, 7, 67
14, 57168, Note_on_c, 10, 39, 127
14, 57168, Note_on_c, 10, 51, 127
14, 57168, Note_on_c, 10, 27, 127
14, 57169, Control_c, 10, 7, 68
14, 57170, Control_c, 10, 7, 69
14, 57171, Control_c, 10, 7, 70
14, 57172, Control_c, 10, 7, 71
14, 57173, Control_c, 10, 7, 71
14, 57174, Control_c, 10, 7, 72
14, 57175, Control_c, 10, 7, 73
14, 57176, Control_c, 10, 7, 74
14, 57177, Control_c, 10, 7, 75
14, 57178, Control_c, 10, 7, 76
14, 57179, Control_c, 10, 7, 77
14, 57180, Control_c, 10, 7, 78
14, 57181, Control_c, 10, 7, 79
14, 57182, Control_c, 10, 7, 80
14, 57183, Control_c, 10, 7, 81
14, 57184, Control_c, 10, 7, 82
14, 57185, Control_c, 10, 7, 83
14, 57186, Control_c, 10, 7, 84
14, 57187, Control_c, 10, 7, 85
14, 57188, Control_c, 10, 7, 86
14, 57189, Control_c, 10, 7, 87
14, 57190, Control_c, 10, 7, 88
14, 57191, Control_c, 10, 7, 89
14, 57192, Control_c, 10, 7, 90
14, 57193, Control_c, 10, 7, 91
14, 57194, Control_c, 10, 7, 92
14, 57195, Control_c, 10, 7, 93
14, 57196, Control_c, 10, 7, 94
14, 57197, Control_c, 10, 7, 95
14, 57198, Control_c, 10, 7, 96
14, 57199, Control_c, 10, 7, 97
14, 57200, Control_c, 10, 7, 98
14, 57201, Control_c, 10, 7, 99
14, 57202, Control_c, 10, 7, 100
14, 57203, Control_c, 10, 7, 101
14, 57204, Control_c, 10, 7, 102
14, 57205, Control_c, 10, 7, 103
14, 57206, Control_c, 10, 7, 104
14, 57207, Control_c, 10, 7, 104
14, 57208, Control_c, 10, 7, 105
14, 57209, Control_c, 10, 7, 106
14, 57210, Control_c, 10, 7, 107
14, 57211, Control_c, 10, 7, 108
14, 57212, Control_c, 10, 7, 109
14, 57213, Control_c, 10, 7, 110
14, 57214, Control_c, 10, 7, 111
14, 57215, Control_c, 10, 7, 112
14, 57216, Note_off_c, 10, 27, 64
14, 57216, Note_off_c, 10, 51, 64
14, 57216, Note_off_c, 10, 39, 64
14, 57216, Control_c, 10, 7, 50
14, 57216, Note_on_c, 10, 41, 127
14, 57216, Note_on_c, 10, 29, 127
14, 57216, Note_on_c, 10, 53, 127
14, 57218, Control_c, 10, 7, 50
14, 57219, Control_c, 10, 7, 51
14, 57220, Control_c, 10, 7, 51
14, 57221, Control_c, 10, 7, 52
14, 57222, Control_c, 10, 7, 52
14, 57223, Control_c, 10, 7, 52
14, 57224, Control_c, 10, 7, 53
14, 57225, Control_c, 10, 7, 53
14, 57226, Control_c, 10, 7, 54
14, 57227, Control_c, 10, 7, 54
14, 57228, Control_c, 10, 7, 54
14, 57229, Control_c, 10, 7, 55
14, 57230, Control_c, 10, 7, 55
14, 57231, Control_c, 10, 7, 55
14, 57232, Control_c, 10, 7, 56
14, 57233, Control_c, 10, 7, 56
14, 57234, Control_c, 10, 7, 57
14, 57235, Control_c, 10, 7, 57
14, 57236, Control_c, 10, 7, 57
14, 57237, Control_c, 10, 7, 58
14, 57238, Control_c, 10, 7, 58
14, 57239, Control_c, 10, 7, 59
14, 57240, Control_c, 10, 7, 59
14, 57241, Control_c, 10, 7, 59
14, 57242, Control_c, 10, 7, 60
14, 57243, Control_c, 10, 7, 60
14, 57244, Control_c, 10, 7, 61
14, 57245, Control_c, 10, 7, 61
14, 57246, Control_c, 10, 7, 61
14, 57247, Control_c, 10, 7, 62
14, 57248, Control_c, 10, 7, 62
14, 57249, Control_c, 10, 7, 62
14, 57250, Control_c, 10, 7, 63
14, 57251, Control_c, 10, 7, 63
14, 57252, Control_c, 10, 7, 64
14, 57253, Control_c, 10, 7, 64
14, 57254, Control_c, 10, 7, 64
14, 57255, Control_c, 10, 7, 65
14, 57256, Control_c, 10, 7, 65
14, 57257, Control_c, 10, 7, 66
14, 57258, Control_c, 10, 7, 66
14, 57259, Control_c, 10, 7, 66
14, 57260, Control_c, 10, 7, 67
14, 57261, Control_c, 10, 7, 67
14, 57262, Control_c, 10, 7, 68
14, 57263, Control_c, 10, 7, 68
14, 57264, Control_c, 10, 7, 68
14, 57265, Control_c, 10, 7, 69
14, 57266, Control_c, 10, 7, 69
14, 57267, Control_c, 10, 7, 69
14, 57268, Control_c, 10, 7, 70
14, 57269, Control_c, 10, 7, 70
14, 57270, Control_c, 10, 7, 71
14, 57271, Control_c, 10, 7, 71
14, 57272, Control_c, 10, 7, 71
14, 57273, Control_c, 10, 7, 72
14, 57274, Control_c, 10, 7, 72
14, 57275, Control_c, 10, 7, 73
14, 57276, Control_c, 10, 7, 73
14, 57277, Control_c, 10, 7, 73
14, 57278, Control_c, 10, 7, 74
14, 57279, Control_c, 10, 7, 74
14, 57280, Control_c, 10, 7, 75
14, 57281, Control_c, 10, 7, 75
14, 57282, Control_c, 10, 7, 75
14, 57283, Control_c, 10, 7, 76
14, 57284, Control_c, 10, 7, 76
14, 57285, Control_c, 10, 7, 76
14, 57286, Control_c, 10, 7, 77
14, 57287, Control_c, 10, 7, 77
14, 57288, Control_c, 10, 7, 78
14, 57289, Control_c, 10, 7, 78
14, 57290, Control_c, 10, 7, 78
14, 57291, Control_c, 10, 7, 79
14, 57292, Control_c, 10, 7, 79
14, 57293, Control_c, 10, 7, 80
14, 57294, Control_c, 10, 7, 80
14, 57295, Control_c, 10, 7, 80
14, 57296, Control_c, 10, 7, 81
14, 57297, Control_c, 10, 7, 81
14, 57298, Control_c, 10, 7, 82
14, 57299, Control_c, 10, 7, 82
14, 57300, Control_c, 10, 7, 82
14, 57301, Control_c, 10, 7, 83
14, 57302, Control_c, 10, 7, 83
14, 57303, Control_c, 10, 7, 83
14, 57304, Control_c, 10, 7, 84
14, 57305, Control_c, 10, 7, 84
14, 57306, Control_c, 10, 7, 85
14, 57307, Control_c, 10, 7, 85
14, 57308, Control_c, 10, 7, 85
14, 57309, Control_c, 10, 7, 86
14, 57310, Control_c, 10, 7, 86
14, 57311, Control_c, 10, 7, 87
14, 57312, Control_c, 10, 7, 87
14, 57313, Control_c, 10, 7, 87
14, 57314, Control_c, 10, 7, 88
14, 57315, Control_c, 10, 7, 88
14, 57316, Control_c, 10, 7, 89
14, 57317, Control_c, 10, 7, 89
14, 57318, Control_c, 10, 7, 89
14, 57319, Control_c, 10, 7, 90
14, 57320, Control_c, 10, 7, 90
14, 57321, Control_c, 10, 7, 90
14, 57322, Control_c, 10, 7, 91
14, 57323, Control_c, 10, 7, 91
14, 57324, Control_c, 10, 7, 92
14, 57325, Control_c, 10, 7, 92
14, 57326, Control_c, 10, 7, 92
14, 57327, Control_c, 10, 7, 93
14, 57328, Control_c, 10, 7, 93
14, 57329, Control_c, 10, 7, 94
14, 57330, Control_c, 10, 7, 94
14, 57331, Control_c, 10, 7, 94
14, 57332, Control_c, 10, 7, 95
14, 57333, Control_c, 10, 7, 95
14, 57334, Control_c, 10, 7, 96
14, 57335, Control_c, 10, 7, 96
14, 57336, Control_c, 10, 7, 96
14, 57337, Control_c, 10, 7, 97
14, 57338, Control_c, 10, 7, 97
14, 57339, Control_c, 10, 7, 97
14, 57340, Control_c, 10, 7, 98
14, 57341, Control_c, 10, 7, 98
14, 57342, Control_c, 10, 7, 99
14, 57343, Control_c, 10, 7, 99
14, 57344, Control_c, 10, 7, 99
14, 57345, Control_c, 10, 7, 100
14, 57346, Control_c, 10, 7, 100
14, 57347, Control_c, 10, 7, 101
14, 57348, Control_c, 10, 7, 101
14, 57349, Control_c, 10, 7, 101
14, 57350, Control_c, 10, 7, 102
14, 57351, Control_c, 10, 7, 102
14, 57352, Control_c, 10, 7, 103
14, 57353, Control_c, 10, 7, 103
14, 57354, Control_c, 10, 7, 103
14, 57355, Control_c, 10, 7, 104
14, 57356, Control_c, 10, 7, 104
14, 57357, Control_c, 10, 7, 104
14, 57358, Control_c, 10, 7, 105
14, 57359, Control_c, 10, 7, 105
14, 57360, Note_off_c, 10, 53, 64
14, 57360, Note_off_c, 10, 29, 64
14, 57360, Note_off_c, 10, 41, 64
14, 57360, Control_c, 10, 7, 54
14, 57360, Note_on_c, 10, 43, 127
14, 57360, Note_on_c, 10, 31, 127
14, 57360, Note_on_c, 10, 55, 127
14, 57361, Control_c, 10, 7, 55
14, 57362, Control_c, 10, 7, 55
14, 57363, Control_c, 10, 7, 56
14, 57364, Control_c, 10, 7, 57
14, 57365, Control_c, 10, 7, 57
14, 57366, Control_c, 10, 7, 57
14, 57367, Control_c, 10, 7, 58
14, 57368, Control_c, 10, 7, 58
14, 57369, Control_c, 10, 7, 58
14, 57370, Control_c, 10, 7, 59
14, 57371, Control_c, 10, 7, 59
14, 57372, Control_c, 10, 7, 59
14, 57373, Control_c, 10, 7, 60
14, 57374, Control_c, 10, 7, 60
14, 57375, Control_c, 10, 7, 61
14, 57376, Control_c, 10, 7, 61
14, 57377, Control_c, 10, 7, 61
14, 57378, Control_c, 10, 7, 62
14, 57379, Control_c, 10, 7, 62
14, 57380, Control_c, 10, 7, 62
14, 57381, Control_c, 10, 7, 63
14, 57382, Control_c, 10, 7, 63
14, 57383, Control_c, 10, 7, 63
14, 57384, Control_c, 10, 7, 63
14, 57385, Control_c, 10, 7, 64
14, 57386, Control_c, 10, 7, 64
14, 57387, Control_c, 10, 7, 65
14, 57388, Control_c, 10, 7, 65
14, 57389, Control_c, 10, 7, 65
14, 57390, Control_c, 10, 7, 66
14, 57391, Control_c, 10, 7, 66
14, 57392, Control_c, 10, 7, 66
14, 57393, Control_c, 10, 7, 67
14, 57394, Control_c, 10, 7, 67
14, 57395, Control_c, 10, 7, 68
14, 57396, Control_c, 10, 7, 68
14, 57397, Control_c, 10, 7, 68
14, 57398, Control_c, 10, 7, 69
14, 57399, Control_c, 10, 7, 69
14, 57400, Control_c, 10, 7, 69
14, 57401, Control_c, 10, 7, 70
14, 57402, Control_c, 10, 7, 70
14, 57403, Control_c, 10, 7, 71
14, 57404, Control_c, 10, 7, 71
14, 57405, Control_c, 10, 7, 71
14, 57406, Control_c, 10, 7, 72
14, 57407, Control_c, 10, 7, 72
14, 57408, Control_c, 10, 7, 73
14, 57409, Control_c, 10, 7, 73
14, 57410, Control_c, 10, 7, 73
14, 57411, Control_c, 10, 7, 74
14, 57412, Control_c, 10, 7, 74
14, 57413, Control_c, 10, 7, 74
14, 57414, Control_c, 10, 7, 75
14, 57415, Control_c, 10, 7, 75
14, 57416, Control_c, 10, 7, 76
14, 57417, Control_c, 10, 7, 76
14, 57418, Control_c, 10, 7, 76
14, 57419, Control_c, 10, 7, 77
14, 57420, Control_c, 10, 7, 77
14, 57421, Control_c, 10, 7, 77
14, 57422, Control_c, 10, 7, 78
14, 57423, Control_c, 10, 7, 78
14, 57424, Control_c, 10, 7, 79
14, 57425, Control_c, 10, 7, 79
14, 57426, Control_c, 10, 7, 79
14, 57427, Control_c, 10, 7, 80
14, 57428, Control_c, 10, 7, 80
14, 57429, Control_c, 10, 7, 80
14, 57430, Control_c, 10, 7, 81
14, 57431, Control_c, 10, 7, 81
14, 57432, Control_c, 10, 7, 82
14, 57433, Control_c, 10, 7, 82
14, 57434, Control_c, 10, 7, 82
14, 57435, Control_c, 10, 7, 83
14, 57436, Control_c, 10, 7, 83
14, 57437, Control_c, 10, 7, 84
14, 57438, Control_c, 10, 7, 84
14, 57439, Control_c, 10, 7, 84
14, 57440, Control_c, 10, 7, 85
14, 57441, Control_c, 10, 7, 85
14, 57442, Control_c, 10, 7, 85
14, 57443, Control_c, 10, 7, 86
14, 57444, Control_c, 10, 7, 86
14, 57445, Control_c, 10, 7, 87
14, 57446, Control_c, 10, 7, 87
14, 57447, Control_c, 10, 7, 87
14, 57448, Control_c, 10, 7, 88
14, 57449, Control_c, 10, 7, 88
14, 57450, Control_c, 10, 7, 88
14, 57451, Control_c, 10, 7, 89
14, 57452, Control_c, 10, 7, 89
14, 57453, Control_c, 10, 7, 90
14, 57454, Control_c, 10, 7, 90
14, 57455, Control_c, 10, 7, 90
14, 57456, Control_c, 10, 7, 91
14, 57457, Control_c, 10, 7, 91
14, 57458, Control_c, 10, 7, 92
14, 57459, Control_c, 10, 7, 92
14, 57460, Control_c, 10, 7, 92
14, 57461, Control_c, 10, 7, 93
14, 57462, Control_c, 10, 7, 93
14, 57463, Control_c, 10, 7, 93
14, 57464, Control_c, 10, 7, 94
14, 57465, Control_c, 10, 7, 94
14, 57466, Control_c, 10, 7, 95
14, 57467, Control_c, 10, 7, 95
14, 57468, Control_c, 10, 7, 95
14, 57469, Control_c, 10, 7, 96
14, 57470, Control_c, 10, 7, 96
14, 57471, Control_c, 10, 7, 96
14, 57472, Control_c, 10, 7, 97
14, 57473, Control_c, 10, 7, 97
14, 57474, Control_c, 10, 7, 98
14, 57475, Control_c, 10, 7, 98
14, 57476, Control_c, 10, 7, 98
14, 57477, Control_c, 10, 7, 99
14, 57478, Control_c, 10, 7, 99
14, 57479, Control_c, 10, 7, 99
14, 57480, Control_c, 10, 7, 100
14, 57481, Control_c, 10, 7, 100
14, 57482, Control_c, 10, 7, 101
14, 57483, Control_c, 10, 7, 101
14, 57484, Control_c, 10, 7, 101
14, 57485, Control_c, 10, 7, 102
14, 57486, Control_c, 10, 7, 102
14, 57487, Control_c, 10, 7, 103
14, 57488, Control_c, 10, 7, 103
14, 57489, Control_c, 10, 7, 103
14, 57490, Control_c, 10, 7, 104
14, 57491, Control_c, 10, 7, 104
14, 57492, Control_c, 10, 7, 104
14, 57493, Control_c, 10, 7, 105
14, 57494, Control_c, 10, 7, 105
14, 57495, Control_c, 10, 7, 106
14, 57496, Control_c, 10, 7, 106
14, 57497, Control_c, 10, 7, 106
14, 57498, Control_c, 10, 7, 107
14, 57499, Control_c, 10, 7, 107
14, 57500, Control_c, 10, 7, 107
14, 57501, Control_c, 10, 7, 108
14, 57502, Control_c, 10, 7, 108
14, 57503, Control_c, 10, 7, 109
14, 57504, Note_off_c, 10, 55, 64
14, 57504, Note_off_c, 10, 31, 64
14, 57504, Note_off_c, 10, 43, 64
14, 57504, Control_c, 10, 7, 108
14, 57504, Note_on_c, 10, 39, 127
14, 57504, Note_on_c, 10, 27, 127
14, 57504, Note_on_c, 10, 51, 127
14, 57505, Control_c, 10, 7, 108
14, 57506, Control_c, 10, 7, 107
14, 57507, Control_c, 10, 7, 107
14, 57508, Control_c, 10, 7, 106
14, 57509, Control_c, 10, 7, 106
14, 57510, Control_c, 10, 7, 105
14, 57511, Control_c, 10, 7, 105
14, 57512, Control_c, 10, 7, 105
14, 57513, Control_c, 10, 7, 104
14, 57514, Control_c, 10, 7, 104
14, 57515, Control_c, 10, 7, 103
14, 57516, Control_c, 10, 7, 103
14, 57517, Control_c, 10, 7, 102
14, 57518, Control_c, 10, 7, 102
14, 57519, Control_c, 10, 7, 101
14, 57520, Control_c, 10, 7, 101
14, 57521, Control_c, 10, 7, 100
14, 57522, Control_c, 10, 7, 100
14, 57523, Control_c, 10, 7, 99
14, 57524, Control_c, 10, 7, 99
14, 57525, Control_c, 10, 7, 98
14, 57526, Control_c, 10, 7, 98
14, 57527, Control_c, 10, 7, 97
14, 57528, Control_c, 10, 7, 97
14, 57529, Control_c, 10, 7, 96
14, 57530, Control_c, 10, 7, 96
14, 57531, Control_c, 10, 7, 95
14, 57532, Control_c, 10, 7, 95
14, 57533, Control_c, 10, 7, 94
14, 57534, Control_c, 10, 7, 94
14, 57535, Control_c, 10, 7, 93
14, 57536, Control_c, 10, 7, 93
14, 57537, Control_c, 10, 7, 92
14, 57538, Control_c, 10, 7, 92
14, 57539, Control_c, 10, 7, 91
14, 57540, Control_c, 10, 7, 91
14, 57541, Control_c, 10, 7, 90
14, 57542, Control_c, 10, 7, 90
14, 57543, Control_c, 10, 7, 89
14, 57544, Control_c, 10, 7, 89
14, 57545, Control_c, 10, 7, 88
14, 57546, Control_c, 10, 7, 88
14, 57547, Control_c, 10, 7, 87
14, 57548, Control_c, 10, 7, 87
14, 57549, Control_c, 10, 7, 86
14, 57550, Control_c, 10, 7, 86
14, 57551, Control_c, 10, 7, 85
14, 57552, Control_c, 10, 7, 85
14, 57553, Control_c, 10, 7, 84
14, 57554, Control_c, 10, 7, 84
14, 57555, Control_c, 10, 7, 83
14, 57556, Control_c, 10, 7, 83
14, 57557, Control_c, 10, 7, 82
14, 57558, Control_c, 10, 7, 82
14, 57559, Control_c, 10, 7, 81
14, 57560, Control_c, 10, 7, 81
14, 57561, Control_c, 10, 7, 80
14, 57562, Control_c, 10, 7, 80
14, 57563, Control_c, 10, 7, 79
14, 57564, Control_c, 10, 7, 79
14, 57565, Control_c, 10, 7, 78
14, 57566, Control_c, 10, 7, 78
14, 57567, Control_c, 10, 7, 77
14, 57568, Control_c, 10, 7, 77
14, 57569, Control_c, 10, 7, 76
14, 57570, Control_c, 10, 7, 76
14, 57571, Control_c, 10, 7, 75
14, 57572, Control_c, 10, 7, 75
14, 57573, Control_c, 10, 7, 74
14, 57574, Control_c, 10, 7, 74
14, 57575, Control_c, 10, 7, 73
14, 57576, Control_c, 10, 7, 73
14, 57577, Control_c, 10, 7, 72
14, 57578, Control_c, 10, 7, 72
14, 57579, Control_c, 10, 7, 71
14, 57580, Control_c, 10, 7, 71
14, 57581, Control_c, 10, 7, 70
14, 57582, Control_c, 10, 7, 70
14, 57583, Control_c, 10, 7, 69
14, 57584, Control_c, 10, 7, 69
14, 57585, Control_c, 10, 7, 68
14, 57586, Control_c, 10, 7, 68
14, 57587, Control_c, 10, 7, 67
14, 57588, Control_c, 10, 7, 67
14, 57589, Control_c, 10, 7, 66
14, 57590, Control_c, 10, 7, 66
14, 57591, Control_c, 10, 7, 65
14, 57592, Control_c, 10, 7, 65
14, 57593, Control_c, 10, 7, 64
14, 57594, Control_c, 10, 7, 64
14, 57595, Control_c, 10, 7, 63
14, 57596, Control_c, 10, 7, 63
14, 57597, Control_c, 10, 7, 62
14, 57598, Control_c, 10, 7, 62
14, 57599, Control_c, 10, 7, 61
14, 57600, Control_c, 10, 7, 61
14, 57648, Note_off_c, 10, 51, 64
14, 57648, Note_off_c, 10, 27, 64
14, 57648, Note_off_c, 10, 39, 64
14, 57648, Control_c, 10, 7, 102
14, 57648, Note_on_c, 10, 39, 127
14, 57648, Note_on_c, 10, 27, 127
14, 57648, Note_on_c, 10, 51, 127
14, 57649, Control_c, 10, 7, 102
14, 57650, Control_c, 10, 7, 101
14, 57651, Control_c, 10, 7, 100
14, 57652, Control_c, 10, 7, 99
14, 57653, Control_c, 10, 7, 98
14, 57654, Control_c, 10, 7, 97
14, 57655, Control_c, 10, 7, 96
14, 57656, Control_c, 10, 7, 95
14, 57657, Control_c, 10, 7, 95
14, 57658, Control_c, 10, 7, 94
14, 57659, Control_c, 10, 7, 93
14, 57660, Control_c, 10, 7, 92
14, 57661, Control_c, 10, 7, 91
14, 57662, Control_c, 10, 7, 90
14, 57663, Control_c, 10, 7, 89
14, 57664, Control_c, 10, 7, 88
14, 57665, Control_c, 10, 7, 87
14, 57666, Control_c, 10, 7, 87
14, 57667, Control_c, 10, 7, 86
14, 57668, Control_c, 10, 7, 85
14, 57669, Control_c, 10, 7, 84
14, 57670, Control_c, 10, 7, 83
14, 57671, Control_c, 10, 7, 82
14, 57672, Control_c, 10, 7, 81
14, 57673, Control_c, 10, 7, 80
14, 57674, Control_c, 10, 7, 80
14, 57675, Control_c, 10, 7, 79
14, 57676, Control_c, 10, 7, 78
14, 57677, Control_c, 10, 7, 77
14, 57678, Control_c, 10, 7, 76
14, 57679, Control_c, 10, 7, 75
14, 57680, Control_c, 10, 7, 74
14, 57681, Control_c, 10, 7, 73
14, 57682, Control_c, 10, 7, 73
14, 57683, Control_c, 10, 7, 72
14, 57684, Control_c, 10, 7, 71
14, 57685, Control_c, 10, 7, 70
14, 57686, Control_c, 10, 7, 69
14, 57687, Control_c, 10, 7, 68
14, 57688, Control_c, 10, 7, 67
14, 57689, Control_c, 10, 7, 66
14, 57690, Control_c, 10, 7, 66
14, 57691, Control_c, 10, 7, 65
14, 57692, Control_c, 10, 7, 64
14, 57693, Control_c, 10, 7, 63
14, 57694, Control_c, 10, 7, 62
14, 57695, Control_c, 10, 7, 61
14, 57696, Note_off_c, 10, 51, 64
14, 57696, Note_off_c, 10, 27, 64
14, 57696, Note_off_c, 10, 39, 64
14, 57696, Control_c, 10, 7, 102
14, 57696, Note_on_c, 10, 39, 127
14, 57696, Note_on_c, 10, 27, 127
14, 57696, Note_on_c, 10, 51, 127
14, 57697, Control_c, 10, 7, 102
14, 57698, Control_c, 10, 7, 101
14, 57699, Control_c, 10, 7, 100
14, 57700, Control_c, 10, 7, 99
14, 57701, Control_c, 10, 7, 98
14, 57702, Control_c, 10, 7, 97
14, 57703, Control_c, 10, 7, 96
14, 57704, Control_c, 10, 7, 96
14, 57705, Control_c, 10, 7, 95
14, 57706, Control_c, 10, 7, 94
14, 57707, Control_c, 10, 7, 93
14, 57708, Control_c, 10, 7, 92
14, 57709, Control_c, 10, 7, 91
14, 57710, Control_c, 10, 7, 91
14, 57711, Control_c, 10, 7, 90
14, 57712, Control_c, 10, 7, 89
14, 57713, Control_c, 10, 7, 88
14, 57714, Control_c, 10, 7, 87
14, 57715, Control_c, 10, 7, 86
14, 57716, Control_c, 10, 7, 85
14, 57717, Control_c, 10, 7, 85
14, 57718, Control_c, 10, 7, 84
14, 57719, Control_c, 10, 7, 83
14, 57720, Control_c, 10, 7, 82
14, 57721, Control_c, 10, 7, 81
14, 57722, Control_c, 10, 7, 80
14, 57723, Control_c, 10, 7, 80
14, 57724, Control_c, 10, 7, 79
14, 57725, Control_c, 10, 7, 78
14, 57726, Control_c, 10, 7, 77
14, 57727, Control_c, 10, 7, 76
14, 57728, Control_c, 10, 7, 75
14, 57729, Control_c, 10, 7, 74
14, 57730, Control_c, 10, 7, 74
14, 57731, Control_c, 10, 7, 73
14, 57732, Control_c, 10, 7, 72
14, 57733, Control_c, 10, 7, 71
14, 57734, Control_c, 10, 7, 70
14, 57735, Control_c, 10, 7, 69
14, 57736, Control_c, 10, 7, 68
14, 57737, Control_c, 10, 7, 68
14, 57738, Control_c, 10, 7, 67
14, 57739, Control_c, 10, 7, 66
14, 57740, Control_c, 10, 7, 65
14, 57741, Control_c, 10, 7, 64
14, 57742, Control_c, 10, 7, 102
14, 57743, Control_c, 10, 7, 102
14, 57744, Note_off_c, 10, 51, 64
14, 57744, Note_off_c, 10, 27, 64
14, 57744, Note_off_c, 10, 39, 64
14, 57744, Control_c, 10, 7, 101
14, 57744, Note_on_c, 10, 39, 127
14, 57744, Note_on_c, 10, 27, 127
14, 57744, Note_on_c, 10, 51, 127
14, 57745, Control_c, 10, 7, 100
14, 57746, Control_c, 10, 7, 99
14, 57747, Control_c, 10, 7, 98
14, 57748, Control_c, 10, 7, 97
14, 57749, Control_c, 10, 7, 97
14, 57750, Control_c, 10, 7, 96
14, 57751, Control_c, 10, 7, 95
14, 57752, Control_c, 10, 7, 94
14, 57753, Control_c, 10, 7, 93
14, 57754, Control_c, 10, 7, 93
14, 57755, Control_c, 10, 7, 92
14, 57756, Control_c, 10, 7, 91
14, 57757, Control_c, 10, 7, 90
14, 57758, Control_c, 10, 7, 89
14, 57759, Control_c, 10, 7, 88
14, 57760, Control_c, 10, 7, 88
14, 57761, Control_c, 10, 7, 87
14, 57762, Control_c, 10, 7, 86
14, 57763, Control_c, 10, 7, 85
14, 57764, Control_c, 10, 7, 84
14, 57765, Control_c, 10, 7, 84
14, 57766, Control_c, 10, 7, 83
14, 57767, Control_c, 10, 7, 82
14, 57768, Control_c, 10, 7, 81
14, 57769, Control_c, 10, 7, 80
14, 57770, Control_c, 10, 7, 79
14, 57771, Control_c, 10, 7, 79
14, 57772, Control_c, 10, 7, 78
14, 57773, Control_c, 10, 7, 77
14, 57774, Control_c, 10, 7, 76
14, 57775, Control_c, 10, 7, 75
14, 57776, Control_c, 10, 7, 75
14, 57777, Control_c, 10, 7, 74
14, 57778, Control_c, 10, 7, 73
14, 57779, Control_c, 10, 7, 72
14, 57780, Control_c, 10, 7, 71
14, 57781, Control_c, 10, 7, 70
14, 57782, Control_c, 10, 7, 70
14, 57783, Control_c, 10, 7, 69
14, 57784, Control_c, 10, 7, 68
14, 57785, Control_c, 10, 7, 67
14, 57786, Control_c, 10, 7, 66
14, 57787, Control_c, 10, 7, 66
14, 57788, Control_c, 10, 7, 65
14, 57789, Control_c, 10, 7, 64
14, 57790, Control_c, 10, 7, 63
14, 57791, Control_c, 10, 7, 62
14, 57792, Note_off_c, 10, 51, 64
14, 57792, Note_off_c, 10, 27, 64
14, 57792, Note_off_c, 10, 39, 64
14, 57792, Control_c, 10, 7, 102
14, 57792, Note_on_c, 10, 39, 127
14, 57792, Note_on_c, 10, 27, 127
14, 57792, Note_on_c, 10, 51, 127
14, 57793, Control_c, 10, 7, 102
14, 57794, Control_c, 10, 7, 101
14, 57795, Control_c, 10, 7, 100
14, 57796, Control_c, 10, 7, 99
14, 57797, Control_c, 10, 7, 98
14, 57798, Control_c, 10, 7, 97
14, 57799, Control_c, 10, 7, 96
14, 57800, Control_c, 10, 7, 95
14, 57801, Control_c, 10, 7, 94
14, 57802, Control_c, 10, 7, 94
14, 57803, Control_c, 10, 7, 93
14, 57804, Control_c, 10, 7, 92
14, 57805, Control_c, 10, 7, 91
14, 57806, Control_c, 10, 7, 90
14, 57807, Control_c, 10, 7, 89
14, 57808, Control_c, 10, 7, 88
14, 57809, Control_c, 10, 7, 87
14, 57810, Control_c, 10, 7, 86
14, 57811, Control_c, 10, 7, 86
14, 57812, Control_c, 10, 7, 85
14, 57813, Control_c, 10, 7, 84
14, 57814, Control_c, 10, 7, 83
14, 57815, Control_c, 10, 7, 82
14, 57816, Control_c, 10, 7, 81
14, 57817, Control_c, 10, 7, 80
14, 57818, Control_c, 10, 7, 79
14, 57819, Control_c, 10, 7, 78
14, 57820, Control_c, 10, 7, 78
14, 57821, Control_c, 10, 7, 77
14, 57822, Control_c, 10, 7, 76
14, 57823, Control_c, 10, 7, 75
14, 57824, Control_c, 10, 7, 74
14, 57825, Control_c, 10, 7, 73
14, 57826, Control_c, 10, 7, 72
14, 57827, Control_c, 10, 7, 71
14, 57828, Control_c, 10, 7, 70
14, 57829, Control_c, 10, 7, 69
14, 57830, Control_c, 10, 7, 69
14, 57831, Control_c, 10, 7, 68
14, 57832, Control_c, 10, 7, 67
14, 57833, Control_c, 10, 7, 66
14, 57834, Control_c, 10, 7, 65
14, 57835, Control_c, 10, 7, 64
14, 57836, Control_c, 10, 7, 63
14, 57837, Control_c, 10, 7, 62
14, 57838, Control_c, 10, 7, 61
14, 57839, Control_c, 10, 7, 61
14, 57840, Note_off_c, 10, 51, 64
14, 57840, Note_off_c, 10, 27, 64
14, 57840, Note_off_c, 10, 39, 64
14, 57840, Note_on_c, 10, 39, 127
14, 57840, Note_on_c, 10, 27, 127
14, 57840, Note_on_c, 10, 51, 127
14, 57841, Control_c, 10, 7, 103
14, 57842, Control_c, 10, 7, 102
14, 57843, Control_c, 10, 7, 101
14, 57844, Control_c, 10, 7, 100
14, 57845, Control_c, 10, 7, 99
14, 57846, Control_c, 10, 7, 99
14, 57847, Control_c, 10, 7, 98
14, 57848, Control_c, 10, 7, 97
14, 57849, Control_c, 10, 7, 96
14, 57850, Control_c, 10, 7, 95
14, 57851, Control_c, 10, 7, 94
14, 57852, Control_c, 10, 7, 93
14, 57853, Control_c, 10, 7, 93
14, 57854, Control_c, 10, 7, 92
14, 57855, Control_c, 10, 7, 91
14, 57856, Control_c, 10, 7, 90
14, 57857, Control_c, 10, 7, 89
14, 57858, Control_c, 10, 7, 88
14, 57859, Control_c, 10, 7, 87
14, 57860, Control_c, 10, 7, 87
14, 57861, Control_c, 10, 7, 86
14, 57862, Control_c, 10, 7, 85
14, 57863, Control_c, 10, 7, 84
14, 57864, Control_c, 10, 7, 83
14, 57865, Control_c, 10, 7, 82
14, 57866, Control_c, 10, 7, 81
14, 57867, Control_c, 10, 7, 81
14, 57868, Control_c, 10, 7, 80
14, 57869, Control_c, 10, 7, 79
14, 57870, Control_c, 10, 7, 78
14, 57871, Control_c, 10, 7, 77
14, 57872, Control_c, 10, 7, 76
14, 57873, Control_c, 10, 7, 75
14, 57874, Control_c, 10, 7, 75
14, 57875, Control_c, 10, 7, 74
14, 57876, Control_c, 10, 7, 73
14, 57877, Control_c, 10, 7, 72
14, 57878, Control_c, 10, 7, 71
14, 57879, Control_c, 10, 7, 70
14, 57880, Control_c, 10, 7, 69
14, 57881, Control_c, 10, 7, 69
14, 57882, Control_c, 10, 7, 68
14, 57883, Control_c, 10, 7, 67
14, 57884, Control_c, 10, 7, 66
14, 57885, Control_c, 10, 7, 65
14, 57886, Control_c, 10, 7, 64
14, 57887, Control_c, 10, 7, 64
14, 57888, Note_off_c, 10, 51, 64
14, 57888, Note_off_c, 10, 27, 64
14, 57888, Note_off_c, 10, 39, 64
14, 57888, Note_on_c, 10, 39, 127
14, 57888, Note_on_c, 10, 27, 127
14, 57888, Note_on_c, 10, 51, 127
14, 57889, Control_c, 10, 7, 104
14, 57890, Control_c, 10, 7, 103
14, 57891, Control_c, 10, 7, 102
14, 57892, Control_c, 10, 7, 101
14, 57893, Control_c, 10, 7, 100
14, 57894, Control_c, 10, 7, 99
14, 57895, Control_c, 10, 7, 98
14, 57896, Control_c, 10, 7, 98
14, 57897, Control_c, 10, 7, 97
14, 57898, Control_c, 10, 7, 96
14, 57899, Control_c, 10, 7, 95
14, 57900, Control_c, 10, 7, 94
14, 57901, Control_c, 10, 7, 93
14, 57902, Control_c, 10, 7, 93
14, 57903, Control_c, 10, 7, 92
14, 57904, Control_c, 10, 7, 91
14, 57905, Control_c, 10, 7, 90
14, 57906, Control_c, 10, 7, 89
14, 57907, Control_c, 10, 7, 88
14, 57908, Control_c, 10, 7, 87
14, 57909, Control_c, 10, 7, 87
14, 57910, Control_c, 10, 7, 86
14, 57911, Control_c, 10, 7, 85
14, 57912, Control_c, 10, 7, 84
14, 57913, Control_c, 10, 7, 83
14, 57914, Control_c, 10, 7, 82
14, 57915, Control_c, 10, 7, 82
14, 57916, Control_c, 10, 7, 81
14, 57917, Control_c, 10, 7, 80
14, 57918, Control_c, 10, 7, 79
14, 57919, Control_c, 10, 7, 78
14, 57920, Control_c, 10, 7, 77
14, 57921, Control_c, 10, 7, 76
14, 57922, Control_c, 10, 7, 76
14, 57923, Control_c, 10, 7, 75
14, 57924, Control_c, 10, 7, 74
14, 57925, Control_c, 10, 7, 73
14, 57926, Control_c, 10, 7, 72
14, 57927, Control_c, 10, 7, 71
14, 57928, Control_c, 10, 7, 71
14, 57929, Control_c, 10, 7, 70
14, 57930, Control_c, 10, 7, 69
14, 57931, Control_c, 10, 7, 68
14, 57932, Control_c, 10, 7, 67
14, 57933, Control_c, 10, 7, 66
14, 57934, Control_c, 10, 7, 65
14, 57935, Control_c, 10, 7, 102
14, 57936, Note_off_c, 10, 51, 64
14, 57936, Note_off_c, 10, 27, 64
14, 57936, Note_off_c, 10, 39, 64
14, 57936, Control_c, 10, 7, 102
14, 57936, Note_on_c, 10, 39, 127
14, 57936, Note_on_c, 10, 27, 127
14, 57936, Note_on_c, 10, 51, 127
14, 57937, Control_c, 10, 7, 101
14, 57938, Control_c, 10, 7, 100
14, 57939, Control_c, 10, 7, 99
14, 57940, Control_c, 10, 7, 98
14, 57941, Control_c, 10, 7, 97
14, 57942, Control_c, 10, 7, 96
14, 57943, Control_c, 10, 7, 96
14, 57944, Control_c, 10, 7, 95
14, 57945, Control_c, 10, 7, 94
14, 57946, Control_c, 10, 7, 93
14, 57947, Control_c, 10, 7, 92
14, 57948, Control_c, 10, 7, 91
14, 57949, Control_c, 10, 7, 90
14, 57950, Control_c, 10, 7, 89
14, 57951, Control_c, 10, 7, 89
14, 57952, Control_c, 10, 7, 88
14, 57953, Control_c, 10, 7, 87
14, 57954, Control_c, 10, 7, 86
14, 57955, Control_c, 10, 7, 85
14, 57956, Control_c, 10, 7, 84
14, 57957, Control_c, 10, 7, 83
14, 57958, Control_c, 10, 7, 83
14, 57959, Control_c, 10, 7, 82
14, 57960, Control_c, 10, 7, 81
14, 57961, Control_c, 10, 7, 80
14, 57962, Control_c, 10, 7, 79
14, 57963, Control_c, 10, 7, 78
14, 57964, Control_c, 10, 7, 77
14, 57965, Control_c, 10, 7, 77
14, 57966, Control_c, 10, 7, 76
14, 57967, Control_c, 10, 7, 75
14, 57968, Control_c, 10, 7, 74
14, 57969, Control_c, 10, 7, 73
14, 57970, Control_c, 10, 7, 72
14, 57971, Control_c, 10, 7, 71
14, 57972, Control_c, 10, 7, 71
14, 57973, Control_c, 10, 7, 70
14, 57974, Control_c, 10, 7, 69
14, 57975, Control_c, 10, 7, 68
14, 57976, Control_c, 10, 7, 67
14, 57977, Control_c, 10, 7, 66
14, 57978, Control_c, 10, 7, 65
14, 57979, Control_c, 10, 7, 65
14, 57980, Control_c, 10, 7, 64
14, 57981, Control_c, 10, 7, 63
14, 57984, Note_off_c, 10, 51, 64
14, 57984, Note_off_c, 10, 27, 64
14, 57984, Note_off_c, 10, 39, 64
14, 57984, Control_c, 10, 7, 113
14, 57984, Note_on_c, 10, 39, 127
14, 57984, Note_on_c, 10, 27, 127
14, 57984, Note_on_c, 10, 51, 127
14, 57985, Control_c, 10, 7, 113
14, 57986, Control_c, 10, 7, 112
14, 57987, Control_c, 10, 7, 112
14, 57988, Control_c, 10, 7, 112
14, 57989, Control_c, 10, 7, 111
14, 57990, Control_c, 10, 7, 111
14, 57991, Control_c, 10, 7, 110
14, 57992, Control_c, 10, 7, 110
14, 57993, Control_c, 10, 7, 110
14, 57994, Control_c, 10, 7, 109
14, 57995, Control_c, 10, 7, 109
14, 57996, Control_c, 10, 7, 109
14, 57997, Control_c, 10, 7, 108
14, 57998, Control_c, 10, 7, 108
14, 57999, Control_c, 10, 7, 108
14, 58000, Control_c, 10, 7, 107
14, 58001, Control_c, 10, 7, 107
14, 58002, Control_c, 10, 7, 107
14, 58003, Control_c, 10, 7, 106
14, 58004, Control_c, 10, 7, 106
14, 58005, Control_c, 10, 7, 106
14, 58006, Control_c, 10, 7, 105
14, 58007, Control_c, 10, 7, 105
14, 58008, Control_c, 10, 7, 104
14, 58009, Control_c, 10, 7, 104
14, 58010, Control_c, 10, 7, 104
14, 58011, Control_c, 10, 7, 103
14, 58012, Control_c, 10, 7, 103
14, 58013, Control_c, 10, 7, 103
14, 58014, Control_c, 10, 7, 102
14, 58015, Control_c, 10, 7, 102
14, 58016, Control_c, 10, 7, 102
14, 58017, Control_c, 10, 7, 101
14, 58018, Control_c, 10, 7, 101
14, 58019, Control_c, 10, 7, 101
14, 58020, Control_c, 10, 7, 100
14, 58021, Control_c, 10, 7, 100
14, 58022, Control_c, 10, 7, 100
14, 58023, Control_c, 10, 7, 99
14, 58024, Control_c, 10, 7, 99
14, 58025, Control_c, 10, 7, 98
14, 58026, Control_c, 10, 7, 98
14, 58027, Control_c, 10, 7, 98
14, 58028, Control_c, 10, 7, 97
14, 58029, Control_c, 10, 7, 97
14, 58030, Control_c, 10, 7, 97
14, 58031, Control_c, 10, 7, 96
14, 58032, Control_c, 10, 7, 96
14, 58033, Control_c, 10, 7, 96
14, 58034, Control_c, 10, 7, 95
14, 58035, Control_c, 10, 7, 95
14, 58036, Control_c, 10, 7, 95
14, 58037, Control_c, 10, 7, 94
14, 58038, Control_c, 10, 7, 94
14, 58039, Control_c, 10, 7, 94
14, 58040, Control_c, 10, 7, 93
14, 58041, Control_c, 10, 7, 93
14, 58042, Control_c, 10, 7, 92
14, 58043, Control_c, 10, 7, 92
14, 58044, Control_c, 10, 7, 92
14, 58045, Control_c, 10, 7, 91
14, 58046, Control_c, 10, 7, 91
14, 58047, Control_c, 10, 7, 91
14, 58048, Control_c, 10, 7, 90
14, 58049, Control_c, 10, 7, 90
14, 58050, Control_c, 10, 7, 90
14, 58051, Control_c, 10, 7, 89
14, 58052, Control_c, 10, 7, 89
14, 58053, Control_c, 10, 7, 89
14, 58054, Control_c, 10, 7, 88
14, 58055, Control_c, 10, 7, 88
14, 58056, Control_c, 10, 7, 88
14, 58057, Control_c, 10, 7, 87
14, 58058, Control_c, 10, 7, 87
14, 58059, Control_c, 10, 7, 86
14, 58060, Control_c, 10, 7, 86
14, 58061, Control_c, 10, 7, 86
14, 58062, Control_c, 10, 7, 85
14, 58063, Control_c, 10, 7, 85
14, 58064, Control_c, 10, 7, 85
14, 58065, Control_c, 10, 7, 84
14, 58066, Control_c, 10, 7, 84
14, 58067, Control_c, 10, 7, 84
14, 58068, Control_c, 10, 7, 83
14, 58069, Control_c, 10, 7, 83
14, 58070, Control_c, 10, 7, 83
14, 58071, Control_c, 10, 7, 82
14, 58072, Control_c, 10, 7, 82
14, 58073, Control_c, 10, 7, 82
14, 58074, Control_c, 10, 7, 81
14, 58075, Control_c, 10, 7, 81
14, 58076, Control_c, 10, 7, 80
14, 58077, Control_c, 10, 7, 80
14, 58078, Control_c, 10, 7, 80
14, 58079, Control_c, 10, 7, 79
14, 58080, Control_c, 10, 7, 79
14, 58081, Control_c, 10, 7, 79
14, 58082, Control_c, 10, 7, 78
14, 58083, Control_c, 10, 7, 78
14, 58084, Control_c, 10, 7, 78
14, 58085, Control_c, 10, 7, 77
14, 58086, Control_c, 10, 7, 77
14, 58087, Control_c, 10, 7, 77
14, 58088, Control_c, 10, 7, 76
14, 58089, Control_c, 10, 7, 76
14, 58090, Control_c, 10, 7, 76
14, 58091, Control_c, 10, 7, 75
14, 58092, Control_c, 10, 7, 75
14, 58093, Control_c, 10, 7, 74
14, 58094, Control_c, 10, 7, 74
14, 58095, Control_c, 10, 7, 74
14, 58096, Control_c, 10, 7, 73
14, 58097, Control_c, 10, 7, 73
14, 58098, Control_c, 10, 7, 73
14, 58099, Control_c, 10, 7, 72
14, 58100, Control_c, 10, 7, 72
14, 58101, Control_c, 10, 7, 72
14, 58102, Control_c, 10, 7, 71
14, 58103, Control_c, 10, 7, 71
14, 58104, Control_c, 10, 7, 71
14, 58105, Control_c, 10, 7, 70
14, 58106, Control_c, 10, 7, 70
14, 58107, Control_c, 10, 7, 70
14, 58108, Control_c, 10, 7, 69
14, 58109, Control_c, 10, 7, 69
14, 58110, Control_c, 10, 7, 68
14, 58111, Control_c, 10, 7, 68
14, 58112, Control_c, 10, 7, 68
14, 58113, Control_c, 10, 7, 67
14, 58114, Control_c, 10, 7, 67
14, 58115, Control_c, 10, 7, 67
14, 58116, Control_c, 10, 7, 66
14, 58117, Control_c, 10, 7, 66
14, 58118, Control_c, 10, 7, 66
14, 58119, Control_c, 10, 7, 65
14, 58120, Control_c, 10, 7, 65
14, 58121, Control_c, 10, 7, 65
14, 58122, Control_c, 10, 7, 64
14, 58123, Control_c, 10, 7, 64
14, 58124, Control_c, 10, 7, 64
14, 58125, Control_c, 10, 7, 63
14, 58126, Control_c, 10, 7, 111
14, 58127, Control_c, 10, 7, 111
14, 58128, Note_off_c, 10, 51, 64
14, 58128, Note_off_c, 10, 27, 64
14, 58128, Note_off_c, 10, 39, 64
14, 58128, Control_c, 10, 7, 110
14, 58128, Note_on_c, 10, 39, 127
14, 58128, Note_on_c, 10, 51, 127
14, 58128, Note_on_c, 10, 27, 127
14, 58129, Control_c, 10, 7, 110
14, 58130, Control_c, 10, 7, 110
14, 58131, Control_c, 10, 7, 109
14, 58132, Control_c, 10, 7, 109
14, 58133, Control_c, 10, 7, 109
14, 58134, Control_c, 10, 7, 109
14, 58135, Control_c, 10, 7, 108
14, 58136, Control_c, 10, 7, 108
14, 58137, Control_c, 10, 7, 108
14, 58138, Control_c, 10, 7, 107
14, 58139, Control_c, 10, 7, 107
14, 58140, Control_c, 10, 7, 107
14, 58141, Control_c, 10, 7, 106
14, 58142, Control_c, 10, 7, 106
14, 58143, Control_c, 10, 7, 106
14, 58144, Control_c, 10, 7, 105
14, 58145, Control_c, 10, 7, 105
14, 58146, Control_c, 10, 7, 105
14, 58147, Control_c, 10, 7, 104
14, 58148, Control_c, 10, 7, 104
14, 58149, Control_c, 10, 7, 104
14, 58150, Control_c, 10, 7, 103
14, 58151, Control_c, 10, 7, 103
14, 58152, Control_c, 10, 7, 103
14, 58153, Control_c, 10, 7, 102
14, 58154, Control_c, 10, 7, 102
14, 58155, Control_c, 10, 7, 102
14, 58156, Control_c, 10, 7, 101
14, 58157, Control_c, 10, 7, 101
14, 58158, Control_c, 10, 7, 101
14, 58159, Control_c, 10, 7, 100
14, 58160, Control_c, 10, 7, 100
14, 58161, Control_c, 10, 7, 100
14, 58162, Control_c, 10, 7, 99
14, 58163, Control_c, 10, 7, 99
14, 58164, Control_c, 10, 7, 99
14, 58165, Control_c, 10, 7, 98
14, 58166, Control_c, 10, 7, 98
14, 58167, Control_c, 10, 7, 98
14, 58168, Control_c, 10, 7, 97
14, 58169, Control_c, 10, 7, 97
14, 58170, Control_c, 10, 7, 97
14, 58171, Control_c, 10, 7, 96
14, 58172, Control_c, 10, 7, 96
14, 58173, Control_c, 10, 7, 96
14, 58174, Control_c, 10, 7, 95
14, 58175, Control_c, 10, 7, 95
14, 58176, Control_c, 10, 7, 95
14, 58177, Control_c, 10, 7, 94
14, 58178, Control_c, 10, 7, 94
14, 58179, Control_c, 10, 7, 94
14, 58180, Control_c, 10, 7, 93
14, 58181, Control_c, 10, 7, 93
14, 58182, Control_c, 10, 7, 93
14, 58183, Control_c, 10, 7, 92
14, 58184, Control_c, 10, 7, 92
14, 58185, Control_c, 10, 7, 92
14, 58186, Control_c, 10, 7, 91
14, 58187, Control_c, 10, 7, 91
14, 58188, Control_c, 10, 7, 91
14, 58189, Control_c, 10, 7, 90
14, 58190, Control_c, 10, 7, 90
14, 58191, Control_c, 10, 7, 90
14, 58192, Control_c, 10, 7, 89
14, 58193, Control_c, 10, 7, 89
14, 58194, Control_c, 10, 7, 89
14, 58195, Control_c, 10, 7, 88
14, 58196, Control_c, 10, 7, 88
14, 58197, Control_c, 10, 7, 88
14, 58198, Control_c, 10, 7, 87
14, 58199, Control_c, 10, 7, 87
14, 58200, Control_c, 10, 7, 87
14, 58201, Control_c, 10, 7, 86
14, 58202, Control_c, 10, 7, 86
14, 58203, Control_c, 10, 7, 86
14, 58204, Control_c, 10, 7, 85
14, 58205, Control_c, 10, 7, 85
14, 58206, Control_c, 10, 7, 85
14, 58207, Control_c, 10, 7, 84
14, 58208, Control_c, 10, 7, 84
14, 58209, Control_c, 10, 7, 84
14, 58210, Control_c, 10, 7, 83
14, 58211, Control_c, 10, 7, 83
14, 58212, Control_c, 10, 7, 83
14, 58213, Control_c, 10, 7, 82
14, 58214, Control_c, 10, 7, 82
14, 58215, Control_c, 10, 7, 82
14, 58216, Control_c, 10, 7, 81
14, 58217, Control_c, 10, 7, 81
14, 58218, Control_c, 10, 7, 81
14, 58219, Control_c, 10, 7, 80
14, 58220, Control_c, 10, 7, 80
14, 58221, Control_c, 10, 7, 80
14, 58222, Control_c, 10, 7, 79
14, 58223, Control_c, 10, 7, 79
14, 58224, Control_c, 10, 7, 79
14, 58225, Control_c, 10, 7, 78
14, 58226, Control_c, 10, 7, 78
14, 58227, Control_c, 10, 7, 78
14, 58228, Control_c, 10, 7, 77
14, 58229, Control_c, 10, 7, 77
14, 58230, Control_c, 10, 7, 77
14, 58231, Control_c, 10, 7, 76
14, 58232, Control_c, 10, 7, 76
14, 58233, Control_c, 10, 7, 76
14, 58234, Control_c, 10, 7, 75
14, 58235, Control_c, 10, 7, 75
14, 58236, Control_c, 10, 7, 75
14, 58237, Control_c, 10, 7, 74
14, 58238, Control_c, 10, 7, 74
14, 58239, Control_c, 10, 7, 74
14, 58240, Control_c, 10, 7, 73
14, 58241, Control_c, 10, 7, 73
14, 58242, Control_c, 10, 7, 73
14, 58243, Control_c, 10, 7, 72
14, 58244, Control_c, 10, 7, 72
14, 58245, Control_c, 10, 7, 72
14, 58246, Control_c, 10, 7, 71
14, 58247, Control_c, 10, 7, 71
14, 58248, Control_c, 10, 7, 71
14, 58249, Control_c, 10, 7, 70
14, 58250, Control_c, 10, 7, 70
14, 58251, Control_c, 10, 7, 70
14, 58252, Control_c, 10, 7, 69
14, 58253, Control_c, 10, 7, 69
14, 58254, Control_c, 10, 7, 69
14, 58255, Control_c, 10, 7, 68
14, 58256, Control_c, 10, 7, 68
14, 58257, Control_c, 10, 7, 68
14, 58258, Control_c, 10, 7, 67
14, 58259, Control_c, 10, 7, 67
14, 58260, Control_c, 10, 7, 67
14, 58261, Control_c, 10, 7, 66
14, 58262, Control_c, 10, 7, 66
14, 58263, Control_c, 10, 7, 66
14, 58264, Control_c, 10, 7, 65
14, 58265, Control_c, 10, 7, 65
14, 58266, Control_c, 10, 7, 65
14, 58267, Control_c, 10, 7, 64
14, 58268, Control_c, 10, 7, 64
14, 58269, Control_c, 10, 7, 64
14, 58270, Control_c, 10, 7, 63
14, 58271, Control_c, 10, 7, 63
14, 58272, Note_off_c, 10, 27, 64
14, 58272, Note_off_c, 10, 51, 64
14, 58272, Note_off_c, 10, 39, 64
14, 58272, Control_c, 10, 7, 64
14, 58272, Note_on_c, 10, 39, 127
14, 58272, Note_on_c, 10, 51, 127
14, 58272, Note_on_c, 10, 27, 127
14, 58273, Control_c, 10, 7, 64
14, 58274, Control_c, 10, 7, 65
14, 58275, Control_c, 10, 7, 65
14, 58276, Control_c, 10, 7, 66
14, 58277, Control_c, 10, 7, 66
14, 58278, Control_c, 10, 7, 67
14, 58279, Control_c, 10, 7, 67
14, 58280, Control_c, 10, 7, 68
14, 58281, Control_c, 10, 7, 68
14, 58282, Control_c, 10, 7, 69
14, 58283, Control_c, 10, 7, 69
14, 58284, Control_c, 10, 7, 70
14, 58285, Control_c, 10, 7, 70
14, 58286, Control_c, 10, 7, 71
14, 58287, Control_c, 10, 7, 71
14, 58288, Control_c, 10, 7, 72
14, 58289, Control_c, 10, 7, 72
14, 58290, Control_c, 10, 7, 73
14, 58291, Control_c, 10, 7, 73
14, 58292, Control_c, 10, 7, 74
14, 58293, Control_c, 10, 7, 74
14, 58294, Control_c, 10, 7, 75
14, 58295, Control_c, 10, 7, 75
14, 58296, Control_c, 10, 7, 76
14, 58297, Control_c, 10, 7, 76
14, 58298, Control_c, 10, 7, 77
14, 58299, Control_c, 10, 7, 77
14, 58300, Control_c, 10, 7, 78
14, 58301, Control_c, 10, 7, 78
14, 58302, Control_c, 10, 7, 79
14, 58303, Control_c, 10, 7, 79
14, 58304, Control_c, 10, 7, 80
14, 58305, Control_c, 10, 7, 80
14, 58306, Control_c, 10, 7, 81
14, 58307, Control_c, 10, 7, 81
14, 58308, Control_c, 10, 7, 82
14, 58309, Control_c, 10, 7, 82
14, 58310, Control_c, 10, 7, 83
14, 58311, Control_c, 10, 7, 83
14, 58312, Control_c, 10, 7, 84
14, 58313, Control_c, 10, 7, 84
14, 58314, Control_c, 10, 7, 85
14, 58315, Control_c, 10, 7, 85
14, 58316, Control_c, 10, 7, 86
14, 58317, Control_c, 10, 7, 86
14, 58318, Control_c, 10, 7, 87
14, 58319, Control_c, 10, 7, 87
14, 58320, Control_c, 10, 7, 88
14, 58321, Control_c, 10, 7, 88
14, 58322, Control_c, 10, 7, 89
14, 58323, Control_c, 10, 7, 89
14, 58324, Control_c, 10, 7, 90
14, 58325, Control_c, 10, 7, 90
14, 58326, Control_c, 10, 7, 91
14, 58327, Control_c, 10, 7, 91
14, 58328, Control_c, 10, 7, 92
14, 58329, Control_c, 10, 7, 92
14, 58330, Control_c, 10, 7, 93
14, 58331, Control_c, 10, 7, 93
14, 58332, Control_c, 10, 7, 94
14, 58333, Control_c, 10, 7, 94
14, 58334, Control_c, 10, 7, 95
14, 58335, Control_c, 10, 7, 95
14, 58336, Control_c, 10, 7, 96
14, 58337, Control_c, 10, 7, 96
14, 58338, Control_c, 10, 7, 97
14, 58339, Control_c, 10, 7, 97
14, 58340, Control_c, 10, 7, 98
14, 58341, Control_c, 10, 7, 98
14, 58342, Control_c, 10, 7, 99
14, 58343, Control_c, 10, 7, 99
14, 58344, Control_c, 10, 7, 100
14, 58345, Control_c, 10, 7, 100
14, 58346, Control_c, 10, 7, 101
14, 58347, Control_c, 10, 7, 101
14, 58348, Control_c, 10, 7, 102
14, 58349, Control_c, 10, 7, 102
14, 58350, Control_c, 10, 7, 103
14, 58351, Control_c, 10, 7, 103
14, 58352, Control_c, 10, 7, 104
14, 58353, Control_c, 10, 7, 104
14, 58354, Control_c, 10, 7, 105
14, 58355, Control_c, 10, 7, 105
14, 58356, Control_c, 10, 7, 106
14, 58357, Control_c, 10, 7, 106
14, 58358, Control_c, 10, 7, 107
14, 58359, Control_c, 10, 7, 107
14, 58360, Control_c, 10, 7, 108
14, 58361, Control_c, 10, 7, 108
14, 58362, Control_c, 10, 7, 109
14, 58363, Control_c, 10, 7, 109
14, 58364, Control_c, 10, 7, 110
14, 58365, Control_c, 10, 7, 110
14, 58366, Control_c, 10, 7, 111
14, 58367, Control_c, 10, 7, 111
14, 58368, Note_off_c, 10, 27, 64
14, 58368, Note_off_c, 10, 51, 64
14, 58368, Note_off_c, 10, 39, 64
14, 58368, Control_c, 10, 7, 112
14, 58368, Note_on_c, 10, 39, 127
14, 58368, Note_on_c, 10, 51, 127
14, 58368, Note_on_c, 10, 27, 127
14, 58369, Control_c, 10, 7, 64
14, 58370, Control_c, 10, 7, 65
14, 58371, Control_c, 10, 7, 66
14, 58372, Control_c, 10, 7, 67
14, 58373, Control_c, 10, 7, 68
14, 58374, Control_c, 10, 7, 69
14, 58375, Control_c, 10, 7, 69
14, 58376, Control_c, 10, 7, 70
14, 58377, Control_c, 10, 7, 71
14, 58378, Control_c, 10, 7, 72
14, 58379, Control_c, 10, 7, 73
14, 58380, Control_c, 10, 7, 74
14, 58381, Control_c, 10, 7, 75
14, 58382, Control_c, 10, 7, 76
14, 58383, Control_c, 10, 7, 77
14, 58384, Control_c, 10, 7, 78
14, 58385, Control_c, 10, 7, 79
14, 58386, Control_c, 10, 7, 80
14, 58387, Control_c, 10, 7, 81
14, 58388, Control_c, 10, 7, 82
14, 58389, Control_c, 10, 7, 83
14, 58390, Control_c, 10, 7, 85
14, 58391, Control_c, 10, 7, 86
14, 58392, Control_c, 10, 7, 87
14, 58393, Control_c, 10, 7, 88
14, 58394, Control_c, 10, 7, 89
14, 58395, Control_c, 10, 7, 90
14, 58396, Control_c, 10, 7, 91
14, 58397, Control_c, 10, 7, 92
14, 58398, Control_c, 10, 7, 93
14, 58399, Control_c, 10, 7, 94
14, 58400, Control_c, 10, 7, 95
14, 58401, Control_c, 10, 7, 96
14, 58402, Control_c, 10, 7, 97
14, 58403, Control_c, 10, 7, 98
14, 58404, Control_c, 10, 7, 99
14, 58405, Control_c, 10, 7, 100
14, 58406, Control_c, 10, 7, 102
14, 58407, Control_c, 10, 7, 103
14, 58408, Control_c, 10, 7, 104
14, 58409, Control_c, 10, 7, 105
14, 58410, Control_c, 10, 7, 106
14, 58411, Control_c, 10, 7, 107
14, 58412, Control_c, 10, 7, 108
14, 58413, Control_c, 10, 7, 109
14, 58414, Control_c, 10, 7, 110
14, 58415, Control_c, 10, 7, 111
14, 58416, Note_off_c, 10, 27, 64
14, 58416, Note_off_c, 10, 51, 64
14, 58416, Note_off_c, 10, 39, 64
14, 58416, Control_c, 10, 7, 65
14, 58416, Note_on_c, 10, 39, 127
14, 58416, Note_on_c, 10, 51, 127
14, 58416, Note_on_c, 10, 27, 127
14, 58417, Control_c, 10, 7, 66
14, 58418, Control_c, 10, 7, 67
14, 58419, Control_c, 10, 7, 67
14, 58420, Control_c, 10, 7, 68
14, 58421, Control_c, 10, 7, 69
14, 58422, Control_c, 10, 7, 70
14, 58423, Control_c, 10, 7, 71
14, 58424, Control_c, 10, 7, 72
14, 58425, Control_c, 10, 7, 73
14, 58426, Control_c, 10, 7, 74
14, 58427, Control_c, 10, 7, 75
14, 58428, Control_c, 10, 7, 76
14, 58429, Control_c, 10, 7, 77
14, 58430, Control_c, 10, 7, 78
14, 58431, Control_c, 10, 7, 79
14, 58432, Control_c, 10, 7, 80
14, 58433, Control_c, 10, 7, 81
14, 58434, Control_c, 10, 7, 82
14, 58435, Control_c, 10, 7, 83
14, 58436, Control_c, 10, 7, 84
14, 58437, Control_c, 10, 7, 85
14, 58438, Control_c, 10, 7, 86
14, 58439, Control_c, 10, 7, 87
14, 58440, Control_c, 10, 7, 88
14, 58441, Control_c, 10, 7, 89
14, 58442, Control_c, 10, 7, 89
14, 58443, Control_c, 10, 7, 90
14, 58444, Control_c, 10, 7, 91
14, 58445, Control_c, 10, 7, 92
14, 58446, Control_c, 10, 7, 93
14, 58447, Control_c, 10, 7, 94
14, 58448, Control_c, 10, 7, 95
14, 58449, Control_c, 10, 7, 96
14, 58450, Control_c, 10, 7, 97
14, 58451, Control_c, 10, 7, 98
14, 58452, Control_c, 10, 7, 99
14, 58453, Control_c, 10, 7, 100
14, 58454, Control_c, 10, 7, 101
14, 58455, Control_c, 10, 7, 102
14, 58456, Control_c, 10, 7, 103
14, 58457, Control_c, 10, 7, 104
14, 58458, Control_c, 10, 7, 105
14, 58459, Control_c, 10, 7, 106
14, 58460, Control_c, 10, 7, 107
14, 58461, Control_c, 10, 7, 108
14, 58462, Control_c, 10, 7, 109
14, 58463, Control_c, 10, 7, 110
14, 58464, Note_off_c, 10, 27, 64
14, 58464, Note_off_c, 10, 51, 64
14, 58464, Note_off_c, 10, 39, 64
14, 58464, Control_c, 10, 7, 64
14, 58464, Note_on_c, 10, 39, 127
14, 58464, Note_on_c, 10, 51, 127
14, 58464, Note_on_c, 10, 27, 127
14, 58465, Control_c, 10, 7, 65
14, 58466, Control_c, 10, 7, 65
14, 58467, Control_c, 10, 7, 66
14, 58468, Control_c, 10, 7, 67
14, 58469, Control_c, 10, 7, 68
14, 58470, Control_c, 10, 7, 69
14, 58471, Control_c, 10, 7, 70
14, 58472, Control_c, 10, 7, 70
14, 58473, Control_c, 10, 7, 71
14, 58474, Control_c, 10, 7, 72
14, 58475, Control_c, 10, 7, 73
14, 58476, Control_c, 10, 7, 74
14, 58477, Control_c, 10, 7, 75
14, 58478, Control_c, 10, 7, 76
14, 58479, Control_c, 10, 7, 77
14, 58480, Control_c, 10, 7, 78
14, 58481, Control_c, 10, 7, 79
14, 58482, Control_c, 10, 7, 80
14, 58483, Control_c, 10, 7, 81
14, 58484, Control_c, 10, 7, 82
14, 58485, Control_c, 10, 7, 83
14, 58486, Control_c, 10, 7, 84
14, 58487, Control_c, 10, 7, 85
14, 58488, Control_c, 10, 7, 86
14, 58489, Control_c, 10, 7, 88
14, 58490, Control_c, 10, 7, 89
14, 58491, Control_c, 10, 7, 90
14, 58492, Control_c, 10, 7, 91
14, 58493, Control_c, 10, 7, 92
14, 58494, Control_c, 10, 7, 93
14, 58495, Control_c, 10, 7, 94
14, 58496, Control_c, 10, 7, 95
14, 58497, Control_c, 10, 7, 96
14, 58498, Control_c, 10, 7, 97
14, 58499, Control_c, 10, 7, 98
14, 58500, Control_c, 10, 7, 99
14, 58501, Control_c, 10, 7, 100
14, 58502, Control_c, 10, 7, 101
14, 58503, Control_c, 10, 7, 102
14, 58504, Control_c, 10, 7, 103
14, 58505, Control_c, 10, 7, 104
14, 58506, Control_c, 10, 7, 105
14, 58507, Control_c, 10, 7, 106
14, 58508, Control_c, 10, 7, 107
14, 58509, Control_c, 10, 7, 108
14, 58510, Control_c, 10, 7, 109
14, 58511, Control_c, 10, 7, 110
14, 58512, Note_off_c, 10, 27, 64
14, 58512, Note_off_c, 10, 51, 64
14, 58512, Note_off_c, 10, 39, 64
14, 58512, Control_c, 10, 7, 66
14, 58512, Note_on_c, 10, 39, 127
14, 58512, Note_on_c, 10, 51, 127
14, 58512, Note_on_c, 10, 27, 127
14, 58513, Control_c, 10, 7, 67
14, 58514, Control_c, 10, 7, 68
14, 58515, Control_c, 10, 7, 69
14, 58516, Control_c, 10, 7, 69
14, 58517, Control_c, 10, 7, 70
14, 58518, Control_c, 10, 7, 71
14, 58519, Control_c, 10, 7, 72
14, 58520, Control_c, 10, 7, 73
14, 58521, Control_c, 10, 7, 74
14, 58522, Control_c, 10, 7, 75
14, 58523, Control_c, 10, 7, 76
14, 58524, Control_c, 10, 7, 77
14, 58525, Control_c, 10, 7, 77
14, 58526, Control_c, 10, 7, 78
14, 58527, Control_c, 10, 7, 79
14, 58528, Control_c, 10, 7, 80
14, 58529, Control_c, 10, 7, 81
14, 58530, Control_c, 10, 7, 82
14, 58531, Control_c, 10, 7, 83
14, 58532, Control_c, 10, 7, 84
14, 58533, Control_c, 10, 7, 84
14, 58534, Control_c, 10, 7, 85
14, 58535, Control_c, 10, 7, 86
14, 58536, Control_c, 10, 7, 87
14, 58537, Control_c, 10, 7, 88
14, 58538, Control_c, 10, 7, 89
14, 58539, Control_c, 10, 7, 90
14, 58540, Control_c, 10, 7, 91
14, 58541, Control_c, 10, 7, 91
14, 58542, Control_c, 10, 7, 92
14, 58543, Control_c, 10, 7, 93
14, 58544, Control_c, 10, 7, 94
14, 58545, Control_c, 10, 7, 95
14, 58546, Control_c, 10, 7, 96
14, 58547, Control_c, 10, 7, 97
14, 58548, Control_c, 10, 7, 98
14, 58549, Control_c, 10, 7, 98
14, 58550, Control_c, 10, 7, 99
14, 58551, Control_c, 10, 7, 100
14, 58552, Control_c, 10, 7, 101
14, 58553, Control_c, 10, 7, 102
14, 58554, Control_c, 10, 7, 103
14, 58555, Control_c, 10, 7, 104
14, 58556, Control_c, 10, 7, 104
14, 58557, Control_c, 10, 7, 105
14, 58558, Control_c, 10, 7, 106
14, 58559, Control_c, 10, 7, 107
14, 58560, Note_off_c, 10, 27, 64
14, 58560, Note_off_c, 10, 51, 64
14, 58560, Note_off_c, 10, 39, 64
14, 58560, Control_c, 10, 7, 67
14, 58560, Note_on_c, 10, 39, 127
14, 58560, Note_on_c, 10, 51, 127
14, 58560, Note_on_c, 10, 27, 127
14, 58561, Control_c, 10, 7, 68
14, 58562, Control_c, 10, 7, 69
14, 58563, Control_c, 10, 7, 70
14, 58564, Control_c, 10, 7, 71
14, 58565, Control_c, 10, 7, 72
14, 58566, Control_c, 10, 7, 73
14, 58567, Control_c, 10, 7, 74
14, 58568, Control_c, 10, 7, 75
14, 58569, Control_c, 10, 7, 75
14, 58570, Control_c, 10, 7, 76
14, 58571, Control_c, 10, 7, 77
14, 58572, Control_c, 10, 7, 78
14, 58573, Control_c, 10, 7, 79
14, 58574, Control_c, 10, 7, 80
14, 58575, Control_c, 10, 7, 81
14, 58576, Control_c, 10, 7, 82
14, 58577, Control_c, 10, 7, 83
14, 58578, Control_c, 10, 7, 84
14, 58579, Control_c, 10, 7, 85
14, 58580, Control_c, 10, 7, 86
14, 58581, Control_c, 10, 7, 87
14, 58582, Control_c, 10, 7, 88
14, 58583, Control_c, 10, 7, 89
14, 58584, Control_c, 10, 7, 90
14, 58585, Control_c, 10, 7, 90
14, 58586, Control_c, 10, 7, 91
14, 58587, Control_c, 10, 7, 92
14, 58588, Control_c, 10, 7, 93
14, 58589, Control_c, 10, 7, 94
14, 58590, Control_c, 10, 7, 95
14, 58591, Control_c, 10, 7, 96
14, 58592, Control_c, 10, 7, 97
14, 58593, Control_c, 10, 7, 98
14, 58594, Control_c, 10, 7, 99
14, 58595, Control_c, 10, 7, 100
14, 58596, Control_c, 10, 7, 101
14, 58597, Control_c, 10, 7, 102
14, 58598, Control_c, 10, 7, 103
14, 58599, Control_c, 10, 7, 104
14, 58600, Control_c, 10, 7, 105
14, 58601, Control_c, 10, 7, 106
14, 58602, Control_c, 10, 7, 106
14, 58603, Control_c, 10, 7, 107
14, 58604, Control_c, 10, 7, 108
14, 58605, Control_c, 10, 7, 109
14, 58606, Control_c, 10, 7, 110
14, 58607, Control_c, 10, 7, 111
14, 58608, Note_off_c, 10, 27, 64
14, 58608, Note_off_c, 10, 51, 64
14, 58608, Note_off_c, 10, 39, 64
14, 58608, Control_c, 10, 7, 61
14, 58608, Note_on_c, 10, 39, 127
14, 58608, Note_on_c, 10, 51, 127
14, 58608, Note_on_c, 10, 27, 127
14, 58609, Control_c, 10, 7, 62
14, 58610, Control_c, 10, 7, 63
14, 58611, Control_c, 10, 7, 64
14, 58612, Control_c, 10, 7, 65
14, 58613, Control_c, 10, 7, 66
14, 58614, Control_c, 10, 7, 67
14, 58615, Control_c, 10, 7, 68
14, 58616, Control_c, 10, 7, 70
14, 58617, Control_c, 10, 7, 71
14, 58618, Control_c, 10, 7, 72
14, 58619, Control_c, 10, 7, 73
14, 58620, Control_c, 10, 7, 74
14, 58621, Control_c, 10, 7, 75
14, 58622, Control_c, 10, 7, 76
14, 58623, Control_c, 10, 7, 78
14, 58624, Control_c, 10, 7, 79
14, 58625, Control_c, 10, 7, 80
14, 58626, Control_c, 10, 7, 81
14, 58627, Control_c, 10, 7, 82
14, 58628, Control_c, 10, 7, 83
14, 58629, Control_c, 10, 7, 84
14, 58630, Control_c, 10, 7, 85
14, 58631, Control_c, 10, 7, 87
14, 58632, Control_c, 10, 7, 88
14, 58633, Control_c, 10, 7, 89
14, 58634, Control_c, 10, 7, 90
14, 58635, Control_c, 10, 7, 91
14, 58636, Control_c, 10, 7, 92
14, 58637, Control_c, 10, 7, 93
14, 58638, Control_c, 10, 7, 95
14, 58639, Control_c, 10, 7, 96
14, 58640, Control_c, 10, 7, 97
14, 58641, Control_c, 10, 7, 98
14, 58642, Control_c, 10, 7, 99
14, 58643, Control_c, 10, 7, 100
14, 58644, Control_c, 10, 7, 101
14, 58645, Control_c, 10, 7, 102
14, 58646, Control_c, 10, 7, 104
14, 58647, Control_c, 10, 7, 105
14, 58648, Control_c, 10, 7, 106
14, 58649, Control_c, 10, 7, 107
14, 58650, Control_c, 10, 7, 108
14, 58651, Control_c, 10, 7, 110
14, 58652, Control_c, 10, 7, 111
14, 58653, Control_c, 10, 7, 112
14, 58654, Control_c, 10, 7, 113
14, 58655, Control_c, 10, 7, 114
14, 58656, Note_off_c, 10, 27, 64
14, 58656, Note_off_c, 10, 51, 64
14, 58656, Note_off_c, 10, 39, 64
14, 58656, Control_c, 10, 7, 65
14, 58656, Note_on_c, 10, 39, 127
14, 58656, Note_on_c, 10, 51, 127
14, 58656, Note_on_c, 10, 27, 127
14, 58657, Control_c, 10, 7, 66
14, 58658, Control_c, 10, 7, 67
14, 58659, Control_c, 10, 7, 68
14, 58660, Control_c, 10, 7, 70
14, 58661, Control_c, 10, 7, 71
14, 58662, Control_c, 10, 7, 72
14, 58663, Control_c, 10, 7, 73
14, 58664, Control_c, 10, 7, 74
14, 58665, Control_c, 10, 7, 75
14, 58666, Control_c, 10, 7, 76
14, 58667, Control_c, 10, 7, 77
14, 58668, Control_c, 10, 7, 78
14, 58669, Control_c, 10, 7, 79
14, 58670, Control_c, 10, 7, 80
14, 58671, Control_c, 10, 7, 81
14, 58672, Control_c, 10, 7, 82
14, 58673, Control_c, 10, 7, 83
14, 58674, Control_c, 10, 7, 84
14, 58675, Control_c, 10, 7, 85
14, 58676, Control_c, 10, 7, 86
14, 58677, Control_c, 10, 7, 88
14, 58678, Control_c, 10, 7, 89
14, 58679, Control_c, 10, 7, 90
14, 58680, Control_c, 10, 7, 91
14, 58681, Control_c, 10, 7, 92
14, 58682, Control_c, 10, 7, 93
14, 58683, Control_c, 10, 7, 94
14, 58684, Control_c, 10, 7, 95
14, 58685, Control_c, 10, 7, 96
14, 58686, Control_c, 10, 7, 97
14, 58687, Control_c, 10, 7, 98
14, 58688, Control_c, 10, 7, 99
14, 58689, Control_c, 10, 7, 100
14, 58690, Control_c, 10, 7, 101
14, 58691, Control_c, 10, 7, 102
14, 58692, Control_c, 10, 7, 103
14, 58693, Control_c, 10, 7, 105
14, 58694, Control_c, 10, 7, 106
14, 58695, Control_c, 10, 7, 107
14, 58696, Control_c, 10, 7, 108
14, 58697, Control_c, 10, 7, 109
14, 58698, Control_c, 10, 7, 109
14, 58699, Control_c, 10, 7, 110
14, 58700, Control_c, 10, 7, 112
14, 58701, Control_c, 10, 7, 113
14, 58702, Control_c, 10, 7, 114
14, 58703, Control_c, 10, 7, 115
14, 58704, Note_off_c, 10, 27, 64
14, 58704, Note_off_c, 10, 51, 64
14, 58704, Note_off_c, 10, 39, 64
14, 58704, Control_c, 10, 7, 67
14, 58704, Note_on_c, 10, 39, 127
14, 58704, Note_on_c, 10, 51, 127
14, 58704, Note_on_c, 10, 27, 127
14, 58705, Control_c, 10, 7, 68
14, 58706, Control_c, 10, 7, 69
14, 58707, Control_c, 10, 7, 70
14, 58708, Control_c, 10, 7, 71
14, 58709, Control_c, 10, 7, 71
14, 58710, Control_c, 10, 7, 72
14, 58711, Control_c, 10, 7, 73
14, 58712, Control_c, 10, 7, 74
14, 58713, Control_c, 10, 7, 75
14, 58714, Control_c, 10, 7, 76
14, 58715, Control_c, 10, 7, 77
14, 58716, Control_c, 10, 7, 78
14, 58717, Control_c, 10, 7, 79
14, 58718, Control_c, 10, 7, 80
14, 58719, Control_c, 10, 7, 81
14, 58720, Control_c, 10, 7, 82
14, 58721, Control_c, 10, 7, 83
14, 58722, Control_c, 10, 7, 84
14, 58723, Control_c, 10, 7, 85
14, 58724, Control_c, 10, 7, 86
14, 58725, Control_c, 10, 7, 87
14, 58726, Control_c, 10, 7, 88
14, 58727, Control_c, 10, 7, 89
14, 58728, Control_c, 10, 7, 90
14, 58729, Control_c, 10, 7, 91
14, 58730, Control_c, 10, 7, 92
14, 58731, Control_c, 10, 7, 93
14, 58732, Control_c, 10, 7, 94
14, 58733, Control_c, 10, 7, 95
14, 58734, Control_c, 10, 7, 96
14, 58735, Control_c, 10, 7, 97
14, 58736, Control_c, 10, 7, 98
14, 58737, Control_c, 10, 7, 99
14, 58738, Control_c, 10, 7, 100
14, 58739, Control_c, 10, 7, 101
14, 58740, Control_c, 10, 7, 102
14, 58741, Control_c, 10, 7, 103
14, 58742, Control_c, 10, 7, 104
14, 58743, Control_c, 10, 7, 104
14, 58744, Control_c, 10, 7, 105
14, 58745, Control_c, 10, 7, 106
14, 58746, Control_c, 10, 7, 107
14, 58747, Control_c, 10, 7, 108
14, 58748, Control_c, 10, 7, 109
14, 58749, Control_c, 10, 7, 110
14, 58750, Control_c, 10, 7, 111
14, 58751, Control_c, 10, 7, 112
14, 58752, Note_off_c, 10, 27, 64
14, 58752, Note_off_c, 10, 51, 64
14, 58752, Note_off_c, 10, 39, 64
14, 58752, Control_c, 10, 7, 50
14, 58752, Note_on_c, 10, 41, 127
14, 58752, Note_on_c, 10, 29, 127
14, 58752, Note_on_c, 10, 53, 127
14, 58754, Control_c, 10, 7, 50
14, 58755, Control_c, 10, 7, 51
14, 58756, Control_c, 10, 7, 51
14, 58757, Control_c, 10, 7, 52
14, 58758, Control_c, 10, 7, 52
14, 58759, Control_c, 10, 7, 52
14, 58760, Control_c, 10, 7, 53
14, 58761, Control_c, 10, 7, 53
14, 58762, Control_c, 10, 7, 54
14, 58763, Control_c, 10, 7, 54
14, 58764, Control_c, 10, 7, 54
14, 58765, Control_c, 10, 7, 55
14, 58766, Control_c, 10, 7, 55
14, 58767, Control_c, 10, 7, 55
14, 58768, Control_c, 10, 7, 56
14, 58769, Control_c, 10, 7, 56
14, 58770, Control_c, 10, 7, 57
14, 58771, Control_c, 10, 7, 57
14, 58772, Control_c, 10, 7, 57
14, 58773, Control_c, 10, 7, 58
14, 58774, Control_c, 10, 7, 58
14, 58775, Control_c, 10, 7, 59
14, 58776, Control_c, 10, 7, 59
14, 58777, Control_c, 10, 7, 59
14, 58778, Control_c, 10, 7, 60
14, 58779, Control_c, 10, 7, 60
14, 58780, Control_c, 10, 7, 61
14, 58781, Control_c, 10, 7, 61
14, 58782, Control_c, 10, 7, 61
14, 58783, Control_c, 10, 7, 62
14, 58784, Control_c, 10, 7, 62
14, 58785, Control_c, 10, 7, 62
14, 58786, Control_c, 10, 7, 63
14, 58787, Control_c, 10, 7, 63
14, 58788, Control_c, 10, 7, 64
14, 58789, Control_c, 10, 7, 64
14, 58790, Control_c, 10, 7, 64
14, 58791, Control_c, 10, 7, 65
14, 58792, Control_c, 10, 7, 65
14, 58793, Control_c, 10, 7, 66
14, 58794, Control_c, 10, 7, 66
14, 58795, Control_c, 10, 7, 66
14, 58796, Control_c, 10, 7, 67
14, 58797, Control_c, 10, 7, 67
14, 58798, Control_c, 10, 7, 68
14, 58799, Control_c, 10, 7, 68
14, 58800, Control_c, 10, 7, 68
14, 58801, Control_c, 10, 7, 69
14, 58802, Control_c, 10, 7, 69
14, 58803, Control_c, 10, 7, 69
14, 58804, Control_c, 10, 7, 70
14, 58805, Control_c, 10, 7, 70
14, 58806, Control_c, 10, 7, 71
14, 58807, Control_c, 10, 7, 71
14, 58808, Control_c, 10, 7, 71
14, 58809, Control_c, 10, 7, 72
14, 58810, Control_c, 10, 7, 72
14, 58811, Control_c, 10, 7, 73
14, 58812, Control_c, 10, 7, 73
14, 58813, Control_c, 10, 7, 73
14, 58814, Control_c, 10, 7, 74
14, 58815, Control_c, 10, 7, 74
14, 58816, Control_c, 10, 7, 75
14, 58817, Control_c, 10, 7, 75
14, 58818, Control_c, 10, 7, 75
14, 58819, Control_c, 10, 7, 76
14, 58820, Control_c, 10, 7, 76
14, 58821, Control_c, 10, 7, 76
14, 58822, Control_c, 10, 7, 77
14, 58823, Control_c, 10, 7, 77
14, 58824, Control_c, 10, 7, 78
14, 58825, Control_c, 10, 7, 78
14, 58826, Control_c, 10, 7, 78
14, 58827, Control_c, 10, 7, 79
14, 58828, Control_c, 10, 7, 79
14, 58829, Control_c, 10, 7, 80
14, 58830, Control_c, 10, 7, 80
14, 58831, Control_c, 10, 7, 80
14, 58832, Control_c, 10, 7, 81
14, 58833, Control_c, 10, 7, 81
14, 58834, Control_c, 10, 7, 82
14, 58835, Control_c, 10, 7, 82
14, 58836, Control_c, 10, 7, 82
14, 58837, Control_c, 10, 7, 83
14, 58838, Control_c, 10, 7, 83
14, 58839, Control_c, 10, 7, 83
14, 58840, Control_c, 10, 7, 84
14, 58841, Control_c, 10, 7, 84
14, 58842, Control_c, 10, 7, 85
14, 58843, Control_c, 10, 7, 85
14, 58844, Control_c, 10, 7, 85
14, 58845, Control_c, 10, 7, 86
14, 58846, Control_c, 10, 7, 86
14, 58847, Control_c, 10, 7, 87
14, 58848, Control_c, 10, 7, 87
14, 58849, Control_c, 10, 7, 87
14, 58850, Control_c, 10, 7, 88
14, 58851, Control_c, 10, 7, 88
14, 58852, Control_c, 10, 7, 89
14, 58853, Control_c, 10, 7, 89
14, 58854, Control_c, 10, 7, 89
14, 58855, Control_c, 10, 7, 90
14, 58856, Control_c, 10, 7, 90
14, 58857, Control_c, 10, 7, 90
14, 58858, Control_c, 10, 7, 91
14, 58859, Control_c, 10, 7, 91
14, 58860, Control_c, 10, 7, 92
14, 58861, Control_c, 10, 7, 92
14, 58862, Control_c, 10, 7, 92
14, 58863, Control_c, 10, 7, 93
14, 58864, Control_c, 10, 7, 93
14, 58865, Control_c, 10, 7, 94
14, 58866, Control_c, 10, 7, 94
14, 58867, Control_c, 10, 7, 94
14, 58868, Control_c, 10, 7, 95
14, 58869, Control_c, 10, 7, 95
14, 58870, Control_c, 10, 7, 96
14, 58871, Control_c, 10, 7, 96
14, 58872, Control_c, 10, 7, 96
14, 58873, Control_c, 10, 7, 97
14, 58874, Control_c, 10, 7, 97
14, 58875, Control_c, 10, 7, 97
14, 58876, Control_c, 10, 7, 98
14, 58877, Control_c, 10, 7, 98
14, 58878, Control_c, 10, 7, 99
14, 58879, Control_c, 10, 7, 99
14, 58880, Control_c, 10, 7, 99
14, 58881, Control_c, 10, 7, 100
14, 58882, Control_c, 10, 7, 100
14, 58883, Control_c, 10, 7, 101
14, 58884, Control_c, 10, 7, 101
14, 58885, Control_c, 10, 7, 101
14, 58886, Control_c, 10, 7, 102
14, 58887, Control_c, 10, 7, 102
14, 58888, Control_c, 10, 7, 103
14, 58889, Control_c, 10, 7, 103
14, 58890, Control_c, 10, 7, 103
14, 58891, Control_c, 10, 7, 104
14, 58892, Control_c, 10, 7, 104
14, 58893, Control_c, 10, 7, 104
14, 58894, Control_c, 10, 7, 105
14, 58895, Control_c, 10, 7, 105
14, 58896, Note_off_c, 10, 53, 64
14, 58896, Note_off_c, 10, 29, 64
14, 58896, Note_off_c, 10, 41, 64
14, 58896, Control_c, 10, 7, 54
14, 58896, Note_on_c, 10, 43, 127
14, 58896, Note_on_c, 10, 31, 127
14, 58896, Note_on_c, 10, 55, 127
14, 58897, Control_c, 10, 7, 55
14, 58898, Control_c, 10, 7, 55
14, 58899, Control_c, 10, 7, 56
14, 58900, Control_c, 10, 7, 57
14, 58901, Control_c, 10, 7, 57
14, 58902, Control_c, 10, 7, 57
14, 58903, Control_c, 10, 7, 58
14, 58904, Control_c, 10, 7, 58
14, 58905, Control_c, 10, 7, 58
14, 58906, Control_c, 10, 7, 59
14, 58907, Control_c, 10, 7, 59
14, 58908, Control_c, 10, 7, 59
14, 58909, Control_c, 10, 7, 60
14, 58910, Control_c, 10, 7, 60
14, 58911, Control_c, 10, 7, 61
14, 58912, Control_c, 10, 7, 61
14, 58913, Control_c, 10, 7, 61
14, 58914, Control_c, 10, 7, 62
14, 58915, Control_c, 10, 7, 62
14, 58916, Control_c, 10, 7, 62
14, 58917, Control_c, 10, 7, 63
14, 58918, Control_c, 10, 7, 63
14, 58919, Control_c, 10, 7, 63
14, 58920, Control_c, 10, 7, 63
14, 58921, Control_c, 10, 7, 64
14, 58922, Control_c, 10, 7, 64
14, 58923, Control_c, 10, 7, 65
14, 58924, Control_c, 10, 7, 65
14, 58925, Control_c, 10, 7, 65
14, 58926, Control_c, 10, 7, 66
14, 58927, Control_c, 10, 7, 66
14, 58928, Control_c, 10, 7, 66
14, 58929, Control_c, 10, 7, 67
14, 58930, Control_c, 10, 7, 67
14, 58931, Control_c, 10, 7, 68
14, 58932, Control_c, 10, 7, 68
14, 58933, Control_c, 10, 7, 68
14, 58934, Control_c, 10, 7, 69
14, 58935, Control_c, 10, 7, 69
14, 58936, Control_c, 10, 7, 69
14, 58937, Control_c, 10, 7, 70
14, 58938, Control_c, 10, 7, 70
14, 58939, Control_c, 10, 7, 71
14, 58940, Control_c, 10, 7, 71
14, 58941, Control_c, 10, 7, 71
14, 58942, Control_c, 10, 7, 72
14, 58943, Control_c, 10, 7, 72
14, 58944, Control_c, 10, 7, 73
14, 58945, Control_c, 10, 7, 73
14, 58946, Control_c, 10, 7, 73
14, 58947, Control_c, 10, 7, 74
14, 58948, Control_c, 10, 7, 74
14, 58949, Control_c, 10, 7, 74
14, 58950, Control_c, 10, 7, 75
14, 58951, Control_c, 10, 7, 75
14, 58952, Control_c, 10, 7, 76
14, 58953, Control_c, 10, 7, 76
14, 58954, Control_c, 10, 7, 76
14, 58955, Control_c, 10, 7, 77
14, 58956, Control_c, 10, 7, 77
14, 58957, Control_c, 10, 7, 77
14, 58958, Control_c, 10, 7, 78
14, 58959, Control_c, 10, 7, 78
14, 58960, Control_c, 10, 7, 79
14, 58961, Control_c, 10, 7, 79
14, 58962, Control_c, 10, 7, 79
14, 58963, Control_c, 10, 7, 80
14, 58964, Control_c, 10, 7, 80
14, 58965, Control_c, 10, 7, 80
14, 58966, Control_c, 10, 7, 81
14, 58967, Control_c, 10, 7, 81
14, 58968, Control_c, 10, 7, 82
14, 58969, Control_c, 10, 7, 82
14, 58970, Control_c, 10, 7, 82
14, 58971, Control_c, 10, 7, 83
14, 58972, Control_c, 10, 7, 83
14, 58973, Control_c, 10, 7, 84
14, 58974, Control_c, 10, 7, 84
14, 58975, Control_c, 10, 7, 84
14, 58976, Control_c, 10, 7, 85
14, 58977, Control_c, 10, 7, 85
14, 58978, Control_c, 10, 7, 85
14, 58979, Control_c, 10, 7, 86
14, 58980, Control_c, 10, 7, 86
14, 58981, Control_c, 10, 7, 87
14, 58982, Control_c, 10, 7, 87
14, 58983, Control_c, 10, 7, 87
14, 58984, Control_c, 10, 7, 88
14, 58985, Control_c, 10, 7, 88
14, 58986, Control_c, 10, 7, 88
14, 58987, Control_c, 10, 7, 89
14, 58988, Control_c, 10, 7, 89
14, 58989, Control_c, 10, 7, 90
14, 58990, Control_c, 10, 7, 90
14, 58991, Control_c, 10, 7, 90
14, 58992, Control_c, 10, 7, 91
14, 58993, Control_c, 10, 7, 91
14, 58994, Control_c, 10, 7, 92
14, 58995, Control_c, 10, 7, 92
14, 58996, Control_c, 10, 7, 92
14, 58997, Control_c, 10, 7, 93
14, 58998, Control_c, 10, 7, 93
14, 58999, Control_c, 10, 7, 93
14, 59000, Control_c, 10, 7, 94
14, 59001, Control_c, 10, 7, 94
14, 59002, Control_c, 10, 7, 95
14, 59003, Control_c, 10, 7, 95
14, 59004, Control_c, 10, 7, 95
14, 59005, Control_c, 10, 7, 96
14, 59006, Control_c, 10, 7, 96
14, 59007, Control_c, 10, 7, 96
14, 59008, Control_c, 10, 7, 97
14, 59009, Control_c, 10, 7, 97
14, 59010, Control_c, 10, 7, 98
14, 59011, Control_c, 10, 7, 98
14, 59012, Control_c, 10, 7, 98
14, 59013, Control_c, 10, 7, 99
14, 59014, Control_c, 10, 7, 99
14, 59015, Control_c, 10, 7, 99
14, 59016, Control_c, 10, 7, 100
14, 59017, Control_c, 10, 7, 100
14, 59018, Control_c, 10, 7, 101
14, 59019, Control_c, 10, 7, 101
14, 59020, Control_c, 10, 7, 101
14, 59021, Control_c, 10, 7, 102
14, 59022, Control_c, 10, 7, 102
14, 59023, Control_c, 10, 7, 103
14, 59024, Control_c, 10, 7, 103
14, 59025, Control_c, 10, 7, 103
14, 59026, Control_c, 10, 7, 104
14, 59027, Control_c, 10, 7, 104
14, 59028, Control_c, 10, 7, 104
14, 59029, Control_c, 10, 7, 105
14, 59030, Control_c, 10, 7, 105
14, 59031, Control_c, 10, 7, 106
14, 59032, Control_c, 10, 7, 106
14, 59033, Control_c, 10, 7, 106
14, 59034, Control_c, 10, 7, 107
14, 59035, Control_c, 10, 7, 107
14, 59036, Control_c, 10, 7, 107
14, 59037, Control_c, 10, 7, 108
14, 59038, Control_c, 10, 7, 108
14, 59039, Control_c, 10, 7, 109
14, 59040, Note_off_c, 10, 55, 64
14, 59040, Note_off_c, 10, 31, 64
14, 59040, Note_off_c, 10, 43, 64
14, 59040, Control_c, 10, 7, 108
14, 59040, Note_on_c, 10, 39, 127
14, 59040, Note_on_c, 10, 27, 127
14, 59040, Note_on_c, 10, 51, 127
14, 59041, Control_c, 10, 7, 108
14, 59042, Control_c, 10, 7, 107
14, 59043, Control_c, 10, 7, 107
14, 59044, Control_c, 10, 7, 106
14, 59045, Control_c, 10, 7, 106
14, 59046, Control_c, 10, 7, 105
14, 59047, Control_c, 10, 7, 105
14, 59048, Control_c, 10, 7, 105
14, 59049, Control_c, 10, 7, 104
14, 59050, Control_c, 10, 7, 104
14, 59051, Control_c, 10, 7, 103
14, 59052, Control_c, 10, 7, 103
14, 59053, Control_c, 10, 7, 102
14, 59054, Control_c, 10, 7, 102
14, 59055, Control_c, 10, 7, 101
14, 59056, Control_c, 10, 7, 101
14, 59057, Control_c, 10, 7, 100
14, 59058, Control_c, 10, 7, 100
14, 59059, Control_c, 10, 7, 99
14, 59060, Control_c, 10, 7, 99
14, 59061, Control_c, 10, 7, 98
14, 59062, Control_c, 10, 7, 98
14, 59063, Control_c, 10, 7, 97
14, 59064, Control_c, 10, 7, 97
14, 59065, Control_c, 10, 7, 96
14, 59066, Control_c, 10, 7, 96
14, 59067, Control_c, 10, 7, 95
14, 59068, Control_c, 10, 7, 95
14, 59069, Control_c, 10, 7, 94
14, 59070, Control_c, 10, 7, 94
14, 59071, Control_c, 10, 7, 93
14, 59072, Control_c, 10, 7, 93
14, 59073, Control_c, 10, 7, 92
14, 59074, Control_c, 10, 7, 92
14, 59075, Control_c, 10, 7, 91
14, 59076, Control_c, 10, 7, 91
14, 59077, Control_c, 10, 7, 90
14, 59078, Control_c, 10, 7, 90
14, 59079, Control_c, 10, 7, 89
14, 59080, Control_c, 10, 7, 89
14, 59081, Control_c, 10, 7, 88
14, 59082, Control_c, 10, 7, 88
14, 59083, Control_c, 10, 7, 87
14, 59084, Control_c, 10, 7, 87
14, 59085, Control_c, 10, 7, 86
14, 59086, Control_c, 10, 7, 86
14, 59087, Control_c, 10, 7, 85
14, 59088, Control_c, 10, 7, 85
14, 59089, Control_c, 10, 7, 84
14, 59090, Control_c, 10, 7, 84
14, 59091, Control_c, 10, 7, 83
14, 59092, Control_c, 10, 7, 83
14, 59093, Control_c, 10, 7, 82
14, 59094, Control_c, 10, 7, 82
14, 59095, Control_c, 10, 7, 81
14, 59096, Control_c, 10, 7, 81
14, 59097, Control_c, 10, 7, 80
14, 59098, Control_c, 10, 7, 80
14, 59099, Control_c, 10, 7, 79
14, 59100, Control_c, 10, 7, 79
14, 59101, Control_c, 10, 7, 78
14, 59102, Control_c, 10, 7, 78
14, 59103, Control_c, 10, 7, 77
14, 59104, Control_c, 10, 7, 77
14, 59105, Control_c, 10, 7, 76
14, 59106, Control_c, 10, 7, 76
14, 59107, Control_c, 10, 7, 75
14, 59108, Control_c, 10, 7, 75
14, 59109, Control_c, 10, 7, 74
14, 59110, Control_c, 10, 7, 74
14, 59111, Control_c, 10, 7, 73
14, 59112, Control_c, 10, 7, 73
14, 59113, Control_c, 10, 7, 72
14, 59114, Control_c, 10, 7, 72
14, 59115, Control_c, 10, 7, 71
14, 59116, Control_c, 10, 7, 71
14, 59117, Control_c, 10, 7, 70
14, 59118, Control_c, 10, 7, 70
14, 59119, Control_c, 10, 7, 69
14, 59120, Control_c, 10, 7, 69
14, 59121, Control_c, 10, 7, 68
14, 59122, Control_c, 10, 7, 68
14, 59123, Control_c, 10, 7, 67
14, 59124, Control_c, 10, 7, 67
14, 59125, Control_c, 10, 7, 66
14, 59126, Control_c, 10, 7, 66
14, 59127, Control_c, 10, 7, 65
14, 59128, Control_c, 10, 7, 65
14, 59129, Control_c, 10, 7, 64
14, 59130, Control_c, 10, 7, 64
14, 59131, Control_c, 10, 7, 63
14, 59132, Control_c, 10, 7, 63
14, 59133, Control_c, 10, 7, 62
14, 59134, Control_c, 10, 7, 62
14, 59135, Control_c, 10, 7, 61
14, 59136, Control_c, 10, 7, 61
14, 59184, Note_off_c, 10, 51, 64
14, 59184, Note_off_c, 10, 27, 64
14, 59184, Note_off_c, 10, 39, 64
14, 59184, Control_c, 10, 7, 102
14, 59184, Note_on_c, 10, 39, 127
14, 59184, Note_on_c, 10, 27, 127
14, 59184, Note_on_c, 10, 51, 127
14, 59185, Control_c, 10, 7, 102
14, 59186, Control_c, 10, 7, 101
14, 59187, Control_c, 10, 7, 100
14, 59188, Control_c, 10, 7, 99
14, 59189, Control_c, 10, 7, 98
14, 59190, Control_c, 10, 7, 97
14, 59191, Control_c, 10, 7, 96
14, 59192, Control_c, 10, 7, 95
14, 59193, Control_c, 10, 7, 95
14, 59194, Control_c, 10, 7, 94
14, 59195, Control_c, 10, 7, 93
14, 59196, Control_c, 10, 7, 92
14, 59197, Control_c, 10, 7, 91
14, 59198, Control_c, 10, 7, 90
14, 59199, Control_c, 10, 7, 89
14, 59200, Control_c, 10, 7, 88
14, 59201, Control_c, 10, 7, 87
14, 59202, Control_c, 10, 7, 87
14, 59203, Control_c, 10, 7, 86
14, 59204, Control_c, 10, 7, 85
14, 59205, Control_c, 10, 7, 84
14, 59206, Control_c, 10, 7, 83
14, 59207, Control_c, 10, 7, 82
14, 59208, Control_c, 10, 7, 81
14, 59209, Control_c, 10, 7, 80
14, 59210, Control_c, 10, 7, 80
14, 59211, Control_c, 10, 7, 79
14, 59212, Control_c, 10, 7, 78
14, 59213, Control_c, 10, 7, 77
14, 59214, Control_c, 10, 7, 76
14, 59215, Control_c, 10, 7, 75
14, 59216, Control_c, 10, 7, 74
14, 59217, Control_c, 10, 7, 73
14, 59218, Control_c, 10, 7, 73
14, 59219, Control_c, 10, 7, 72
14, 59220, Control_c, 10, 7, 71
14, 59221, Control_c, 10, 7, 70
14, 59222, Control_c, 10, 7, 69
14, 59223, Control_c, 10, 7, 68
14, 59224, Control_c, 10, 7, 67
14, 59225, Control_c, 10, 7, 66
14, 59226, Control_c, 10, 7, 66
14, 59227, Control_c, 10, 7, 65
14, 59228, Control_c, 10, 7, 64
14, 59229, Control_c, 10, 7, 63
14, 59230, Control_c, 10, 7, 62
14, 59231, Control_c, 10, 7, 61
14, 59232, Note_off_c, 10, 51, 64
14, 59232, Note_off_c, 10, 27, 64
14, 59232, Note_off_c, 10, 39, 64
14, 59232, Control_c, 10, 7, 102
14, 59232, Note_on_c, 10, 39, 127
14, 59232, Note_on_c, 10, 27, 127
14, 59232, Note_on_c, 10, 51, 127
14, 59233, Control_c, 10, 7, 102
14, 59234, Control_c, 10, 7, 101
14, 59235, Control_c, 10, 7, 100
14, 59236, Control_c, 10, 7, 99
14, 59237, Control_c, 10, 7, 98
14, 59238, Control_c, 10, 7, 97
14, 59239, Control_c, 10, 7, 96
14, 59240, Control_c, 10, 7, 96
14, 59241, Control_c, 10, 7, 95
14, 59242, Control_c, 10, 7, 94
14, 59243, Control_c, 10, 7, 93
14, 59244, Control_c, 10, 7, 92
14, 59245, Control_c, 10, 7, 91
14, 59246, Control_c, 10, 7, 91
14, 59247, Control_c, 10, 7, 90
14, 59248, Control_c, 10, 7, 89
14, 59249, Control_c, 10, 7, 88
14, 59250, Control_c, 10, 7, 87
14, 59251, Control_c, 10, 7, 86
14, 59252, Control_c, 10, 7, 85
14, 59253, Control_c, 10, 7, 85
14, 59254, Control_c, 10, 7, 84
14, 59255, Control_c, 10, 7, 83
14, 59256, Control_c, 10, 7, 82
14, 59257, Control_c, 10, 7, 81
14, 59258, Control_c, 10, 7, 80
14, 59259, Control_c, 10, 7, 80
14, 59260, Control_c, 10, 7, 79
14, 59261, Control_c, 10, 7, 78
14, 59262, Control_c, 10, 7, 77
14, 59263, Control_c, 10, 7, 76
14, 59264, Control_c, 10, 7, 75
14, 59265, Control_c, 10, 7, 74
14, 59266, Control_c, 10, 7, 74
14, 59267, Control_c, 10, 7, 73
14, 59268, Control_c, 10, 7, 72
14, 59269, Control_c, 10, 7, 71
14, 59270, Control_c, 10, 7, 70
14, 59271, Control_c, 10, 7, 69
14, 59272, Control_c, 10, 7, 68
14, 59273, Control_c, 10, 7, 68
14, 59274, Control_c, 10, 7, 67
14, 59275, Control_c, 10, 7, 66
14, 59276, Control_c, 10, 7, 65
14, 59277, Control_c, 10, 7, 64
14, 59278, Control_c, 10, 7, 102
14, 59279, Control_c, 10, 7, 102
14, 59280, Note_off_c, 10, 51, 64
14, 59280, Note_off_c, 10, 27, 64
14, 59280, Note_off_c, 10, 39, 64
14, 59280, Control_c, 10, 7, 101
14, 59280, Note_on_c, 10, 39, 127
14, 59280, Note_on_c, 10, 27, 127
14, 59280, Note_on_c, 10, 51, 127
14, 59281, Control_c, 10, 7, 100
14, 59282, Control_c, 10, 7, 99
14, 59283, Control_c, 10, 7, 98
14, 59284, Control_c, 10, 7, 97
14, 59285, Control_c, 10, 7, 97
14, 59286, Control_c, 10, 7, 96
14, 59287, Control_c, 10, 7, 95
14, 59288, Control_c, 10, 7, 94
14, 59289, Control_c, 10, 7, 93
14, 59290, Control_c, 10, 7, 93
14, 59291, Control_c, 10, 7, 92
14, 59292, Control_c, 10, 7, 91
14, 59293, Control_c, 10, 7, 90
14, 59294, Control_c, 10, 7, 89
14, 59295, Control_c, 10, 7, 88
14, 59296, Control_c, 10, 7, 88
14, 59297, Control_c, 10, 7, 87
14, 59298, Control_c, 10, 7, 86
14, 59299, Control_c, 10, 7, 85
14, 59300, Control_c, 10, 7, 84
14, 59301, Control_c, 10, 7, 84
14, 59302, Control_c, 10, 7, 83
14, 59303, Control_c, 10, 7, 82
14, 59304, Control_c, 10, 7, 81
14, 59305, Control_c, 10, 7, 80
14, 59306, Control_c, 10, 7, 79
14, 59307, Control_c, 10, 7, 79
14, 59308, Control_c, 10, 7, 78
14, 59309, Control_c, 10, 7, 77
14, 59310, Control_c, 10, 7, 76
14, 59311, Control_c, 10, 7, 75
14, 59312, Control_c, 10, 7, 75
14, 59313, Control_c, 10, 7, 74
14, 59314, Control_c, 10, 7, 73
14, 59315, Control_c, 10, 7, 72
14, 59316, Control_c, 10, 7, 71
14, 59317, Control_c, 10, 7, 70
14, 59318, Control_c, 10, 7, 70
14, 59319, Control_c, 10, 7, 69
14, 59320, Control_c, 10, 7, 68
14, 59321, Control_c, 10, 7, 67
14, 59322, Control_c, 10, 7, 66
14, 59323, Control_c, 10, 7, 66
14, 59324, Control_c, 10, 7, 65
14, 59325, Control_c, 10, 7, 64
14, 59326, Control_c, 10, 7, 63
14, 59327, Control_c, 10, 7, 62
14, 59328, Note_off_c, 10, 51, 64
14, 59328, Note_off_c, 10, 27, 64
14, 59328, Note_off_c, 10, 39, 64
14, 59328, Control_c, 10, 7, 102
14, 59328, Note_on_c, 10, 39, 127
14, 59328, Note_on_c, 10, 27, 127
14, 59328, Note_on_c, 10, 51, 127
14, 59329, Control_c, 10, 7, 102
14, 59330, Control_c, 10, 7, 101
14, 59331, Control_c, 10, 7, 100
14, 59332, Control_c, 10, 7, 99
14, 59333, Control_c, 10, 7, 98
14, 59334, Control_c, 10, 7, 97
14, 59335, Control_c, 10, 7, 96
14, 59336, Control_c, 10, 7, 95
14, 59337, Control_c, 10, 7, 94
14, 59338, Control_c, 10, 7, 94
14, 59339, Control_c, 10, 7, 93
14, 59340, Control_c, 10, 7, 92
14, 59341, Control_c, 10, 7, 91
14, 59342, Control_c, 10, 7, 90
14, 59343, Control_c, 10, 7, 89
14, 59344, Control_c, 10, 7, 88
14, 59345, Control_c, 10, 7, 87
14, 59346, Control_c, 10, 7, 86
14, 59347, Control_c, 10, 7, 86
14, 59348, Control_c, 10, 7, 85
14, 59349, Control_c, 10, 7, 84
14, 59350, Control_c, 10, 7, 83
14, 59351, Control_c, 10, 7, 82
14, 59352, Control_c, 10, 7, 81
14, 59353, Control_c, 10, 7, 80
14, 59354, Control_c, 10, 7, 79
14, 59355, Control_c, 10, 7, 78
14, 59356, Control_c, 10, 7, 78
14, 59357, Control_c, 10, 7, 77
14, 59358, Control_c, 10, 7, 76
14, 59359, Control_c, 10, 7, 75
14, 59360, Control_c, 10, 7, 74
14, 59361, Control_c, 10, 7, 73
14, 59362, Control_c, 10, 7, 72
14, 59363, Control_c, 10, 7, 71
14, 59364, Control_c, 10, 7, 70
14, 59365, Control_c, 10, 7, 69
14, 59366, Control_c, 10, 7, 69
14, 59367, Control_c, 10, 7, 68
14, 59368, Control_c, 10, 7, 67
14, 59369, Control_c, 10, 7, 66
14, 59370, Control_c, 10, 7, 65
14, 59371, Control_c, 10, 7, 64
14, 59372, Control_c, 10, 7, 63
14, 59373, Control_c, 10, 7, 62
14, 59374, Control_c, 10, 7, 61
14, 59375, Control_c, 10, 7, 61
14, 59376, Note_off_c, 10, 51, 64
14, 59376, Note_off_c, 10, 27, 64
14, 59376, Note_off_c, 10, 39, 64
14, 59376, Note_on_c, 10, 39, 127
14, 59376, Note_on_c, 10, 27, 127
14, 59376, Note_on_c, 10, 51, 127
14, 59377, Control_c, 10, 7, 103
14, 59378, Control_c, 10, 7, 102
14, 59379, Control_c, 10, 7, 101
14, 59380, Control_c, 10, 7, 100
14, 59381, Control_c, 10, 7, 99
14, 59382, Control_c, 10, 7, 99
14, 59383, Control_c, 10, 7, 98
14, 59384, Control_c, 10, 7, 97
14, 59385, Control_c, 10, 7, 96
14, 59386, Control_c, 10, 7, 95
14, 59387, Control_c, 10, 7, 94
14, 59388, Control_c, 10, 7, 93
14, 59389, Control_c, 10, 7, 93
14, 59390, Control_c, 10, 7, 92
14, 59391, Control_c, 10, 7, 91
14, 59392, Control_c, 10, 7, 90
14, 59393, Control_c, 10, 7, 89
14, 59394, Control_c, 10, 7, 88
14, 59395, Control_c, 10, 7, 87
14, 59396, Control_c, 10, 7, 87
14, 59397, Control_c, 10, 7, 86
14, 59398, Control_c, 10, 7, 85
14, 59399, Control_c, 10, 7, 84
14, 59400, Control_c, 10, 7, 83
14, 59401, Control_c, 10, 7, 82
14, 59402, Control_c, 10, 7, 81
14, 59403, Control_c, 10, 7, 81
14, 59404, Control_c, 10, 7, 80
14, 59405, Control_c, 10, 7, 79
14, 59406, Control_c, 10, 7, 78
14, 59407, Control_c, 10, 7, 77
14, 59408, Control_c, 10, 7, 76
14, 59409, Control_c, 10, 7, 75
14, 59410, Control_c, 10, 7, 75
14, 59411, Control_c, 10, 7, 74
14, 59412, Control_c, 10, 7, 73
14, 59413, Control_c, 10, 7, 72
14, 59414, Control_c, 10, 7, 71
14, 59415, Control_c, 10, 7, 70
14, 59416, Control_c, 10, 7, 69
14, 59417, Control_c, 10, 7, 69
14, 59418, Control_c, 10, 7, 68
14, 59419, Control_c, 10, 7, 67
14, 59420, Control_c, 10, 7, 66
14, 59421, Control_c, 10, 7, 65
14, 59422, Control_c, 10, 7, 64
14, 59423, Control_c, 10, 7, 64
14, 59424, Note_off_c, 10, 51, 64
14, 59424, Note_off_c, 10, 27, 64
14, 59424, Note_off_c, 10, 39, 64
14, 59424, Note_on_c, 10, 39, 127
14, 59424, Note_on_c, 10, 27, 127
14, 59424, Note_on_c, 10, 51, 127
14, 59425, Control_c, 10, 7, 104
14, 59426, Control_c, 10, 7, 103
14, 59427, Control_c, 10, 7, 102
14, 59428, Control_c, 10, 7, 101
14, 59429, Control_c, 10, 7, 100
14, 59430, Control_c, 10, 7, 99
14, 59431, Control_c, 10, 7, 98
14, 59432, Control_c, 10, 7, 98
14, 59433, Control_c, 10, 7, 97
14, 59434, Control_c, 10, 7, 96
14, 59435, Control_c, 10, 7, 95
14, 59436, Control_c, 10, 7, 94
14, 59437, Control_c, 10, 7, 93
14, 59438, Control_c, 10, 7, 93
14, 59439, Control_c, 10, 7, 92
14, 59440, Control_c, 10, 7, 91
14, 59441, Control_c, 10, 7, 90
14, 59442, Control_c, 10, 7, 89
14, 59443, Control_c, 10, 7, 88
14, 59444, Control_c, 10, 7, 87
14, 59445, Control_c, 10, 7, 87
14, 59446, Control_c, 10, 7, 86
14, 59447, Control_c, 10, 7, 85
14, 59448, Control_c, 10, 7, 84
14, 59449, Control_c, 10, 7, 83
14, 59450, Control_c, 10, 7, 82
14, 59451, Control_c, 10, 7, 82
14, 59452, Control_c, 10, 7, 81
14, 59453, Control_c, 10, 7, 80
14, 59454, Control_c, 10, 7, 79
14, 59455, Control_c, 10, 7, 78
14, 59456, Control_c, 10, 7, 77
14, 59457, Control_c, 10, 7, 76
14, 59458, Control_c, 10, 7, 76
14, 59459, Control_c, 10, 7, 75
14, 59460, Control_c, 10, 7, 74
14, 59461, Control_c, 10, 7, 73
14, 59462, Control_c, 10, 7, 72
14, 59463, Control_c, 10, 7, 71
14, 59464, Control_c, 10, 7, 71
14, 59465, Control_c, 10, 7, 70
14, 59466, Control_c, 10, 7, 69
14, 59467, Control_c, 10, 7, 68
14, 59468, Control_c, 10, 7, 67
14, 59469, Control_c, 10, 7, 66
14, 59470, Control_c, 10, 7, 65
14, 59471, Control_c, 10, 7, 102
14, 59472, Note_off_c, 10, 51, 64
14, 59472, Note_off_c, 10, 27, 64
14, 59472, Note_off_c, 10, 39, 64
14, 59472, Control_c, 10, 7, 102
14, 59472, Note_on_c, 10, 39, 127
14, 59472, Note_on_c, 10, 27, 127
14, 59472, Note_on_c, 10, 51, 127
14, 59473, Control_c, 10, 7, 101
14, 59474, Control_c, 10, 7, 100
14, 59475, Control_c, 10, 7, 99
14, 59476, Control_c, 10, 7, 98
14, 59477, Control_c, 10, 7, 97
14, 59478, Control_c, 10, 7, 96
14, 59479, Control_c, 10, 7, 96
14, 59480, Control_c, 10, 7, 95
14, 59481, Control_c, 10, 7, 94
14, 59482, Control_c, 10, 7, 93
14, 59483, Control_c, 10, 7, 92
14, 59484, Control_c, 10, 7, 91
14, 59485, Control_c, 10, 7, 90
14, 59486, Control_c, 10, 7, 89
14, 59487, Control_c, 10, 7, 89
14, 59488, Control_c, 10, 7, 88
14, 59489, Control_c, 10, 7, 87
14, 59490, Control_c, 10, 7, 86
14, 59491, Control_c, 10, 7, 85
14, 59492, Control_c, 10, 7, 84
14, 59493, Control_c, 10, 7, 83
14, 59494, Control_c, 10, 7, 83
14, 59495, Control_c, 10, 7, 82
14, 59496, Control_c, 10, 7, 81
14, 59497, Control_c, 10, 7, 80
14, 59498, Control_c, 10, 7, 79
14, 59499, Control_c, 10, 7, 78
14, 59500, Control_c, 10, 7, 77
14, 59501, Control_c, 10, 7, 77
14, 59502, Control_c, 10, 7, 76
14, 59503, Control_c, 10, 7, 75
14, 59504, Control_c, 10, 7, 74
14, 59505, Control_c, 10, 7, 73
14, 59506, Control_c, 10, 7, 72
14, 59507, Control_c, 10, 7, 71
14, 59508, Control_c, 10, 7, 71
14, 59509, Control_c, 10, 7, 70
14, 59510, Control_c, 10, 7, 69
14, 59511, Control_c, 10, 7, 68
14, 59512, Control_c, 10, 7, 67
14, 59513, Control_c, 10, 7, 66
14, 59514, Control_c, 10, 7, 65
14, 59515, Control_c, 10, 7, 65
14, 59516, Control_c, 10, 7, 64
14, 59517, Control_c, 10, 7, 63
14, 59520, Note_off_c, 10, 51, 64
14, 59520, Note_off_c, 10, 27, 64
14, 59520, Note_off_c, 10, 39, 64
14, 59520, Control_c, 10, 7, 113
14, 59520, Note_on_c, 10, 39, 127
14, 59520, Note_on_c, 10, 27, 127
14, 59520, Note_on_c, 10, 51, 127
14, 59521, Control_c, 10, 7, 113
14, 59522, Control_c, 10, 7, 112
14, 59523, Control_c, 10, 7, 112
14, 59524, Control_c, 10, 7, 112
14, 59525, Control_c, 10, 7, 111
14, 59526, Control_c, 10, 7, 111
14, 59527, Control_c, 10, 7, 110
14, 59528, Control_c, 10, 7, 110
14, 59529, Control_c, 10, 7, 110
14, 59530, Control_c, 10, 7, 109
14, 59531, Control_c, 10, 7, 109
14, 59532, Control_c, 10, 7, 109
14, 59533, Control_c, 10, 7, 108
14, 59534, Control_c, 10, 7, 108
14, 59535, Control_c, 10, 7, 108
14, 59536, Control_c, 10, 7, 107
14, 59537, Control_c, 10, 7, 107
14, 59538, Control_c, 10, 7, 107
14, 59539, Control_c, 10, 7, 106
14, 59540, Control_c, 10, 7, 106
14, 59541, Control_c, 10, 7, 106
14, 59542, Control_c, 10, 7, 105
14, 59543, Control_c, 10, 7, 105
14, 59544, Control_c, 10, 7, 104
14, 59545, Control_c, 10, 7, 104
14, 59546, Control_c, 10, 7, 104
14, 59547, Control_c, 10, 7, 103
14, 59548, Control_c, 10, 7, 103
14, 59549, Control_c, 10, 7, 103
14, 59550, Control_c, 10, 7, 102
14, 59551, Control_c, 10, 7, 102
14, 59552, Control_c, 10, 7, 102
14, 59553, Control_c, 10, 7, 101
14, 59554, Control_c, 10, 7, 101
14, 59555, Control_c, 10, 7, 101
14, 59556, Control_c, 10, 7, 100
14, 59557, Control_c, 10, 7, 100
14, 59558, Control_c, 10, 7, 100
14, 59559, Control_c, 10, 7, 99
14, 59560, Control_c, 10, 7, 99
14, 59561, Control_c, 10, 7, 98
14, 59562, Control_c, 10, 7, 98
14, 59563, Control_c, 10, 7, 98
14, 59564, Control_c, 10, 7, 97
14, 59565, Control_c, 10, 7, 97
14, 59566, Control_c, 10, 7, 97
14, 59567, Control_c, 10, 7, 96
14, 59568, Control_c, 10, 7, 96
14, 59569, Control_c, 10, 7, 96
14, 59570, Control_c, 10, 7, 95
14, 59571, Control_c, 10, 7, 95
14, 59572, Control_c, 10, 7, 95
14, 59573, Control_c, 10, 7, 94
14, 59574, Control_c, 10, 7, 94
14, 59575, Control_c, 10, 7, 94
14, 59576, Control_c, 10, 7, 93
14, 59577, Control_c, 10, 7, 93
14, 59578, Control_c, 10, 7, 92
14, 59579, Control_c, 10, 7, 92
14, 59580, Control_c, 10, 7, 92
14, 59581, Control_c, 10, 7, 91
14, 59582, Control_c, 10, 7, 91
14, 59583, Control_c, 10, 7, 91
14, 59584, Control_c, 10, 7, 90
14, 59585, Control_c, 10, 7, 90
14, 59586, Control_c, 10, 7, 90
14, 59587, Control_c, 10, 7, 89
14, 59588, Control_c, 10, 7, 89
14, 59589, Control_c, 10, 7, 89
14, 59590, Control_c, 10, 7, 88
14, 59591, Control_c, 10, 7, 88
14, 59592, Control_c, 10, 7, 88
14, 59593, Control_c, 10, 7, 87
14, 59594, Control_c, 10, 7, 87
14, 59595, Control_c, 10, 7, 86
14, 59596, Control_c, 10, 7, 86
14, 59597, Control_c, 10, 7, 86
14, 59598, Control_c, 10, 7, 85
14, 59599, Control_c, 10, 7, 85
14, 59600, Control_c, 10, 7, 85
14, 59601, Control_c, 10, 7, 84
14, 59602, Control_c, 10, 7, 84
14, 59603, Control_c, 10, 7, 84
14, 59604, Control_c, 10, 7, 83
14, 59605, Control_c, 10, 7, 83
14, 59606, Control_c, 10, 7, 83
14, 59607, Control_c, 10, 7, 82
14, 59608, Control_c, 10, 7, 82
14, 59609, Control_c, 10, 7, 82
14, 59610, Control_c, 10, 7, 81
14, 59611, Control_c, 10, 7, 81
14, 59612, Control_c, 10, 7, 80
14, 59613, Control_c, 10, 7, 80
14, 59614, Control_c, 10, 7, 80
14, 59615, Control_c, 10, 7, 79
14, 59616, Control_c, 10, 7, 79
14, 59617, Control_c, 10, 7, 79
14, 59618, Control_c, 10, 7, 78
14, 59619, Control_c, 10, 7, 78
14, 59620, Control_c, 10, 7, 78
14, 59621, Control_c, 10, 7, 77
14, 59622, Control_c, 10, 7, 77
14, 59623, Control_c, 10, 7, 77
14, 59624, Control_c, 10, 7, 76
14, 59625, Control_c, 10, 7, 76
14, 59626, Control_c, 10, 7, 76
14, 59627, Control_c, 10, 7, 75
14, 59628, Control_c, 10, 7, 75
14, 59629, Control_c, 10, 7, 74
14, 59630, Control_c, 10, 7, 74
14, 59631, Control_c, 10, 7, 74
14, 59632, Control_c, 10, 7, 73
14, 59633, Control_c, 10, 7, 73
14, 59634, Control_c, 10, 7, 73
14, 59635, Control_c, 10, 7, 72
14, 59636, Control_c, 10, 7, 72
14, 59637, Control_c, 10, 7, 72
14, 59638, Control_c, 10, 7, 71
14, 59639, Control_c, 10, 7, 71
14, 59640, Control_c, 10, 7, 71
14, 59641, Control_c, 10, 7, 70
14, 59642, Control_c, 10, 7, 70
14, 59643, Control_c, 10, 7, 70
14, 59644, Control_c, 10, 7, 69
14, 59645, Control_c, 10, 7, 69
14, 59646, Control_c, 10, 7, 68
14, 59647, Control_c, 10, 7, 68
14, 59648, Control_c, 10, 7, 68
14, 59649, Control_c, 10, 7, 67
14, 59650, Control_c, 10, 7, 67
14, 59651, Control_c, 10, 7, 67
14, 59652, Control_c, 10, 7, 66
14, 59653, Control_c, 10, 7, 66
14, 59654, Control_c, 10, 7, 66
14, 59655, Control_c, 10, 7, 65
14, 59656, Control_c, 10, 7, 65
14, 59657, Control_c, 10, 7, 65
14, 59658, Control_c, 10, 7, 64
14, 59659, Control_c, 10, 7, 64
14, 59660, Control_c, 10, 7, 64
14, 59661, Control_c, 10, 7, 63
14, 59662, Control_c, 10, 7, 111
14, 59663, Control_c, 10, 7, 111
14, 59664, Note_off_c, 10, 51, 64
14, 59664, Note_off_c, 10, 27, 64
14, 59664, Note_off_c, 10, 39, 64
14, 59664, Control_c, 10, 7, 110
14, 59664, Note_on_c, 10, 39, 127
14, 59664, Note_on_c, 10, 51, 127
14, 59664, Note_on_c, 10, 27, 127
14, 59665, Control_c, 10, 7, 110
14, 59666, Control_c, 10, 7, 110
14, 59667, Control_c, 10, 7, 109
14, 59668, Control_c, 10, 7, 109
14, 59669, Control_c, 10, 7, 109
14, 59670, Control_c, 10, 7, 109
14, 59671, Control_c, 10, 7, 108
14, 59672, Control_c, 10, 7, 108
14, 59673, Control_c, 10, 7, 108
14, 59674, Control_c, 10, 7, 107
14, 59675, Control_c, 10, 7, 107
14, 59676, Control_c, 10, 7, 107
14, 59677, Control_c, 10, 7, 106
14, 59678, Control_c, 10, 7, 106
14, 59679, Control_c, 10, 7, 106
14, 59680, Control_c, 10, 7, 105
14, 59681, Control_c, 10, 7, 105
14, 59682, Control_c, 10, 7, 105
14, 59683, Control_c, 10, 7, 104
14, 59684, Control_c, 10, 7, 104
14, 59685, Control_c, 10, 7, 104
14, 59686, Control_c, 10, 7, 103
14, 59687, Control_c, 10, 7, 103
14, 59688, Control_c, 10, 7, 103
14, 59689, Control_c, 10, 7, 102
14, 59690, Control_c, 10, 7, 102
14, 59691, Control_c, 10, 7, 102
14, 59692, Control_c, 10, 7, 101
14, 59693, Control_c, 10, 7, 101
14, 59694, Control_c, 10, 7, 101
14, 59695, Control_c, 10, 7, 100
14, 59696, Control_c, 10, 7, 100
14, 59697, Control_c, 10, 7, 100
14, 59698, Control_c, 10, 7, 99
14, 59699, Control_c, 10, 7, 99
14, 59700, Control_c, 10, 7, 99
14, 59701, Control_c, 10, 7, 98
14, 59702, Control_c, 10, 7, 98
14, 59703, Control_c, 10, 7, 98
14, 59704, Control_c, 10, 7, 97
14, 59705, Control_c, 10, 7, 97
14, 59706, Control_c, 10, 7, 97
14, 59707, Control_c, 10, 7, 96
14, 59708, Control_c, 10, 7, 96
14, 59709, Control_c, 10, 7, 96
14, 59710, Control_c, 10, 7, 95
14, 59711, Control_c, 10, 7, 95
14, 59712, Control_c, 10, 7, 95
14, 59713, Control_c, 10, 7, 94
14, 59714, Control_c, 10, 7, 94
14, 59715, Control_c, 10, 7, 94
14, 59716, Control_c, 10, 7, 93
14, 59717, Control_c, 10, 7, 93
14, 59718, Control_c, 10, 7, 93
14, 59719, Control_c, 10, 7, 92
14, 59720, Control_c, 10, 7, 92
14, 59721, Control_c, 10, 7, 92
14, 59722, Control_c, 10, 7, 91
14, 59723, Control_c, 10, 7, 91
14, 59724, Control_c, 10, 7, 91
14, 59725, Control_c, 10, 7, 90
14, 59726, Control_c, 10, 7, 90
14, 59727, Control_c, 10, 7, 90
14, 59728, Control_c, 10, 7, 89
14, 59729, Control_c, 10, 7, 89
14, 59730, Control_c, 10, 7, 89
14, 59731, Control_c, 10, 7, 88
14, 59732, Control_c, 10, 7, 88
14, 59733, Control_c, 10, 7, 88
14, 59734, Control_c, 10, 7, 87
14, 59735, Control_c, 10, 7, 87
14, 59736, Control_c, 10, 7, 87
14, 59737, Control_c, 10, 7, 86
14, 59738, Control_c, 10, 7, 86
14, 59739, Control_c, 10, 7, 86
14, 59740, Control_c, 10, 7, 85
14, 59741, Control_c, 10, 7, 85
14, 59742, Control_c, 10, 7, 85
14, 59743, Control_c, 10, 7, 84
14, 59744, Control_c, 10, 7, 84
14, 59745, Control_c, 10, 7, 84
14, 59746, Control_c, 10, 7, 83
14, 59747, Control_c, 10, 7, 83
14, 59748, Control_c, 10, 7, 83
14, 59749, Control_c, 10, 7, 82
14, 59750, Control_c, 10, 7, 82
14, 59751, Control_c, 10, 7, 82
14, 59752, Control_c, 10, 7, 81
14, 59753, Control_c, 10, 7, 81
14, 59754, Control_c, 10, 7, 81
14, 59755, Control_c, 10, 7, 80
14, 59756, Control_c, 10, 7, 80
14, 59757, Control_c, 10, 7, 80
14, 59758, Control_c, 10, 7, 79
14, 59759, Control_c, 10, 7, 79
14, 59760, Control_c, 10, 7, 79
14, 59761, Control_c, 10, 7, 78
14, 59762, Control_c, 10, 7, 78
14, 59763, Control_c, 10, 7, 78
14, 59764, Control_c, 10, 7, 77
14, 59765, Control_c, 10, 7, 77
14, 59766, Control_c, 10, 7, 77
14, 59767, Control_c, 10, 7, 76
14, 59768, Control_c, 10, 7, 76
14, 59769, Control_c, 10, 7, 76
14, 59770, Control_c, 10, 7, 75
14, 59771, Control_c, 10, 7, 75
14, 59772, Control_c, 10, 7, 75
14, 59773, Control_c, 10, 7, 74
14, 59774, Control_c, 10, 7, 74
14, 59775, Control_c, 10, 7, 74
14, 59776, Control_c, 10, 7, 73
14, 59777, Control_c, 10, 7, 73
14, 59778, Control_c, 10, 7, 73
14, 59779, Control_c, 10, 7, 72
14, 59780, Control_c, 10, 7, 72
14, 59781, Control_c, 10, 7, 72
14, 59782, Control_c, 10, 7, 71
14, 59783, Control_c, 10, 7, 71
14, 59784, Control_c, 10, 7, 71
14, 59785, Control_c, 10, 7, 70
14, 59786, Control_c, 10, 7, 70
14, 59787, Control_c, 10, 7, 70
14, 59788, Control_c, 10, 7, 69
14, 59789, Control_c, 10, 7, 69
14, 59790, Control_c, 10, 7, 69
14, 59791, Control_c, 10, 7, 68
14, 59792, Control_c, 10, 7, 68
14, 59793, Control_c, 10, 7, 68
14, 59794, Control_c, 10, 7, 67
14, 59795, Control_c, 10, 7, 67
14, 59796, Control_c, 10, 7, 67
14, 59797, Control_c, 10, 7, 66
14, 59798, Control_c, 10, 7, 66
14, 59799, Control_c, 10, 7, 66
14, 59800, Control_c, 10, 7, 65
14, 59801, Control_c, 10, 7, 65
14, 59802, Control_c, 10, 7, 65
14, 59803, Control_c, 10, 7, 64
14, 59804, Control_c, 10, 7, 64
14, 59805, Control_c, 10, 7, 64
14, 59806, Control_c, 10, 7, 63
14, 59807, Control_c, 10, 7, 63
14, 59808, Note_off_c, 10, 27, 64
14, 59808, Note_off_c, 10, 51, 64
14, 59808, Note_off_c, 10, 39, 64
14, 59808, Control_c, 10, 7, 64
14, 59808, Note_on_c, 10, 39, 127
14, 59808, Note_on_c, 10, 51, 127
14, 59808, Note_on_c, 10, 27, 127
14, 59809, Control_c, 10, 7, 64
14, 59810, Control_c, 10, 7, 65
14, 59811, Control_c, 10, 7, 65
14, 59812, Control_c, 10, 7, 66
14, 59813, Control_c, 10, 7, 66
14, 59814, Control_c, 10, 7, 67
14, 59815, Control_c, 10, 7, 67
14, 59816, Control_c, 10, 7, 68
14, 59817, Control_c, 10, 7, 68
14, 59818, Control_c, 10, 7, 69
14, 59819, Control_c, 10, 7, 69
14, 59820, Control_c, 10, 7, 70
14, 59821, Control_c, 10, 7, 70
14, 59822, Control_c, 10, 7, 71
14, 59823, Control_c, 10, 7, 71
14, 59824, Control_c, 10, 7, 72
14, 59825, Control_c, 10, 7, 72
14, 59826, Control_c, 10, 7, 73
14, 59827, Control_c, 10, 7, 73
14, 59828, Control_c, 10, 7, 74
14, 59829, Control_c, 10, 7, 74
14, 59830, Control_c, 10, 7, 75
14, 59831, Control_c, 10, 7, 75
14, 59832, Control_c, 10, 7, 76
14, 59833, Control_c, 10, 7, 76
14, 59834, Control_c, 10, 7, 77
14, 59835, Control_c, 10, 7, 77
14, 59836, Control_c, 10, 7, 78
14, 59837, Control_c, 10, 7, 78
14, 59838, Control_c, 10, 7, 79
14, 59839, Control_c, 10, 7, 79
14, 59840, Control_c, 10, 7, 80
14, 59841, Control_c, 10, 7, 80
14, 59842, Control_c, 10, 7, 81
14, 59843, Control_c, 10, 7, 81
14, 59844, Control_c, 10, 7, 82
14, 59845, Control_c, 10, 7, 82
14, 59846, Control_c, 10, 7, 83
14, 59847, Control_c, 10, 7, 83
14, 59848, Control_c, 10, 7, 84
14, 59849, Control_c, 10, 7, 84
14, 59850, Control_c, 10, 7, 85
14, 59851, Control_c, 10, 7, 85
14, 59852, Control_c, 10, 7, 86
14, 59853, Control_c, 10, 7, 86
14, 59854, Control_c, 10, 7, 87
14, 59855, Control_c, 10, 7, 87
14, 59856, Control_c, 10, 7, 88
14, 59857, Control_c, 10, 7, 88
14, 59858, Control_c, 10, 7, 89
14, 59859, Control_c, 10, 7, 89
14, 59860, Control_c, 10, 7, 90
14, 59861, Control_c, 10, 7, 90
14, 59862, Control_c, 10, 7, 91
14, 59863, Control_c, 10, 7, 91
14, 59864, Control_c, 10, 7, 92
14, 59865, Control_c, 10, 7, 92
14, 59866, Control_c, 10, 7, 93
14, 59867, Control_c, 10, 7, 93
14, 59868, Control_c, 10, 7, 94
14, 59869, Control_c, 10, 7, 94
14, 59870, Control_c, 10, 7, 95
14, 59871, Control_c, 10, 7, 95
14, 59872, Control_c, 10, 7, 96
14, 59873, Control_c, 10, 7, 96
14, 59874, Control_c, 10, 7, 97
14, 59875, Control_c, 10, 7, 97
14, 59876, Control_c, 10, 7, 98
14, 59877, Control_c, 10, 7, 98
14, 59878, Control_c, 10, 7, 99
14, 59879, Control_c, 10, 7, 99
14, 59880, Control_c, 10, 7, 100
14, 59881, Control_c, 10, 7, 100
14, 59882, Control_c, 10, 7, 101
14, 59883, Control_c, 10, 7, 101
14, 59884, Control_c, 10, 7, 102
14, 59885, Control_c, 10, 7, 102
14, 59886, Control_c, 10, 7, 103
14, 59887, Control_c, 10, 7, 103
14, 59888, Control_c, 10, 7, 104
14, 59889, Control_c, 10, 7, 104
14, 59890, Control_c, 10, 7, 105
14, 59891, Control_c, 10, 7, 105
14, 59892, Control_c, 10, 7, 106
14, 59893, Control_c, 10, 7, 106
14, 59894, Control_c, 10, 7, 107
14, 59895, Control_c, 10, 7, 107
14, 59896, Control_c, 10, 7, 108
14, 59897, Control_c, 10, 7, 108
14, 59898, Control_c, 10, 7, 109
14, 59899, Control_c, 10, 7, 109
14, 59900, Control_c, 10, 7, 110
14, 59901, Control_c, 10, 7, 110
14, 59902, Control_c, 10, 7, 111
14, 59903, Control_c, 10, 7, 111
14, 59904, Note_off_c, 10, 27, 64
14, 59904, Note_off_c, 10, 51, 64
14, 59904, Note_off_c, 10, 39, 64
14, 59904, Control_c, 10, 7, 112
14, 59904, Note_on_c, 10, 39, 127
14, 59904, Note_on_c, 10, 51, 127
14, 59904, Note_on_c, 10, 27, 127
14, 59905, Control_c, 10, 7, 64
14, 59906, Control_c, 10, 7, 65
14, 59907, Control_c, 10, 7, 66
14, 59908, Control_c, 10, 7, 67
14, 59909, Control_c, 10, 7, 68
14, 59910, Control_c, 10, 7, 69
14, 59911, Control_c, 10, 7, 69
14, 59912, Control_c, 10, 7, 70
14, 59913, Control_c, 10, 7, 71
14, 59914, Control_c, 10, 7, 72
14, 59915, Control_c, 10, 7, 73
14, 59916, Control_c, 10, 7, 74
14, 59917, Control_c, 10, 7, 75
14, 59918, Control_c, 10, 7, 76
14, 59919, Control_c, 10, 7, 77
14, 59920, Control_c, 10, 7, 78
14, 59921, Control_c, 10, 7, 79
14, 59922, Control_c, 10, 7, 80
14, 59923, Control_c, 10, 7, 81
14, 59924, Control_c, 10, 7, 82
14, 59925, Control_c, 10, 7, 83
14, 59926, Control_c, 10, 7, 85
14, 59927, Control_c, 10, 7, 86
14, 59928, Control_c, 10, 7, 87
14, 59929, Control_c, 10, 7, 88
14, 59930, Control_c, 10, 7, 89
14, 59931, Control_c, 10, 7, 90
14, 59932, Control_c, 10, 7, 91
14, 59933, Control_c, 10, 7, 92
14, 59934, Control_c, 10, 7, 93
14, 59935, Control_c, 10, 7, 94
14, 59936, Control_c, 10, 7, 95
14, 59937, Control_c, 10, 7, 96
14, 59938, Control_c, 10, 7, 97
14, 59939, Control_c, 10, 7, 98
14, 59940, Control_c, 10, 7, 99
14, 59941, Control_c, 10, 7, 100
14, 59942, Control_c, 10, 7, 102
14, 59943, Control_c, 10, 7, 103
14, 59944, Control_c, 10, 7, 104
14, 59945, Control_c, 10, 7, 105
14, 59946, Control_c, 10, 7, 106
14, 59947, Control_c, 10, 7, 107
14, 59948, Control_c, 10, 7, 108
14, 59949, Control_c, 10, 7, 109
14, 59950, Control_c, 10, 7, 110
14, 59951, Control_c, 10, 7, 111
14, 59952, Note_off_c, 10, 27, 64
14, 59952, Note_off_c, 10, 51, 64
14, 59952, Note_off_c, 10, 39, 64
14, 59952, Control_c, 10, 7, 65
14, 59952, Note_on_c, 10, 39, 127
14, 59952, Note_on_c, 10, 51, 127
14, 59952, Note_on_c, 10, 27, 127
14, 59953, Control_c, 10, 7, 66
14, 59954, Control_c, 10, 7, 67
14, 59955, Control_c, 10, 7, 67
14, 59956, Control_c, 10, 7, 68
14, 59957, Control_c, 10, 7, 69
14, 59958, Control_c, 10, 7, 70
14, 59959, Control_c, 10, 7, 71
14, 59960, Control_c, 10, 7, 72
14, 59961, Control_c, 10, 7, 73
14, 59962, Control_c, 10, 7, 74
14, 59963, Control_c, 10, 7, 75
14, 59964, Control_c, 10, 7, 76
14, 59965, Control_c, 10, 7, 77
14, 59966, Control_c, 10, 7, 78
14, 59967, Control_c, 10, 7, 79
14, 59968, Control_c, 10, 7, 80
14, 59969, Control_c, 10, 7, 81
14, 59970, Control_c, 10, 7, 82
14, 59971, Control_c, 10, 7, 83
14, 59972, Control_c, 10, 7, 84
14, 59973, Control_c, 10, 7, 85
14, 59974, Control_c, 10, 7, 86
14, 59975, Control_c, 10, 7, 87
14, 59976, Control_c, 10, 7, 88
14, 59977, Control_c, 10, 7, 89
14, 59978, Control_c, 10, 7, 89
14, 59979, Control_c, 10, 7, 90
14, 59980, Control_c, 10, 7, 91
14, 59981, Control_c, 10, 7, 92
14, 59982, Control_c, 10, 7, 93
14, 59983, Control_c, 10, 7, 94
14, 59984, Control_c, 10, 7, 95
14, 59985, Control_c, 10, 7, 96
14, 59986, Control_c, 10, 7, 97
14, 59987, Control_c, 10, 7, 98
14, 59988, Control_c, 10, 7, 99
14, 59989, Control_c, 10, 7, 100
14, 59990, Control_c, 10, 7, 101
14, 59991, Control_c, 10, 7, 102
14, 59992, Control_c, 10, 7, 103
14, 59993, Control_c, 10, 7, 104
14, 59994, Control_c, 10, 7, 105
14, 59995, Control_c, 10, 7, 106
14, 59996, Control_c, 10, 7, 107
14, 59997, Control_c, 10, 7, 108
14, 59998, Control_c, 10, 7, 109
14, 59999, Control_c, 10, 7, 110
14, 60000, Note_off_c, 10, 27, 64
14, 60000, Note_off_c, 10, 51, 64
14, 60000, Note_off_c, 10, 39, 64
14, 60000, Control_c, 10, 7, 64
14, 60000, Note_on_c, 10, 39, 127
14, 60000, Note_on_c, 10, 51, 127
14, 60000, Note_on_c, 10, 27, 127
14, 60001, Control_c, 10, 7, 65
14, 60002, Control_c, 10, 7, 65
14, 60003, Control_c, 10, 7, 66
14, 60004, Control_c, 10, 7, 67
14, 60005, Control_c, 10, 7, 68
14, 60006, Control_c, 10, 7, 69
14, 60007, Control_c, 10, 7, 70
14, 60008, Control_c, 10, 7, 70
14, 60009, Control_c, 10, 7, 71
14, 60010, Control_c, 10, 7, 72
14, 60011, Control_c, 10, 7, 73
14, 60012, Control_c, 10, 7, 74
14, 60013, Control_c, 10, 7, 75
14, 60014, Control_c, 10, 7, 76
14, 60015, Control_c, 10, 7, 77
14, 60016, Control_c, 10, 7, 78
14, 60017, Control_c, 10, 7, 79
14, 60018, Control_c, 10, 7, 80
14, 60019, Control_c, 10, 7, 81
14, 60020, Control_c, 10, 7, 82
14, 60021, Control_c, 10, 7, 83
14, 60022, Control_c, 10, 7, 84
14, 60023, Control_c, 10, 7, 85
14, 60024, Control_c, 10, 7, 86
14, 60025, Control_c, 10, 7, 88
14, 60026, Control_c, 10, 7, 89
14, 60027, Control_c, 10, 7, 90
14, 60028, Control_c, 10, 7, 91
14, 60029, Control_c, 10, 7, 92
14, 60030, Control_c, 10, 7, 93
14, 60031, Control_c, 10, 7, 94
14, 60032, Control_c, 10, 7, 95
14, 60033, Control_c, 10, 7, 96
14, 60034, Control_c, 10, 7, 97
14, 60035, Control_c, 10, 7, 98
14, 60036, Control_c, 10, 7, 99
14, 60037, Control_c, 10, 7, 100
14, 60038, Control_c, 10, 7, 101
14, 60039, Control_c, 10, 7, 102
14, 60040, Control_c, 10, 7, 103
14, 60041, Control_c, 10, 7, 104
14, 60042, Control_c, 10, 7, 105
14, 60043, Control_c, 10, 7, 106
14, 60044, Control_c, 10, 7, 107
14, 60045, Control_c, 10, 7, 108
14, 60046, Control_c, 10, 7, 109
14, 60047, Control_c, 10, 7, 110
14, 60048, Note_off_c, 10, 27, 64
14, 60048, Note_off_c, 10, 51, 64
14, 60048, Note_off_c, 10, 39, 64
14, 60048, Control_c, 10, 7, 66
14, 60048, Note_on_c, 10, 39, 127
14, 60048, Note_on_c, 10, 51, 127
14, 60048, Note_on_c, 10, 27, 127
14, 60049, Control_c, 10, 7, 67
14, 60050, Control_c, 10, 7, 68
14, 60051, Control_c, 10, 7, 69
14, 60052, Control_c, 10, 7, 69
14, 60053, Control_c, 10, 7, 70
14, 60054, Control_c, 10, 7, 71
14, 60055, Control_c, 10, 7, 72
14, 60056, Control_c, 10, 7, 73
14, 60057, Control_c, 10, 7, 74
14, 60058, Control_c, 10, 7, 75
14, 60059, Control_c, 10, 7, 76
14, 60060, Control_c, 10, 7, 77
14, 60061, Control_c, 10, 7, 77
14, 60062, Control_c, 10, 7, 78
14, 60063, Control_c, 10, 7, 79
14, 60064, Control_c, 10, 7, 80
14, 60065, Control_c, 10, 7, 81
14, 60066, Control_c, 10, 7, 82
14, 60067, Control_c, 10, 7, 83
14, 60068, Control_c, 10, 7, 84
14, 60069, Control_c, 10, 7, 84
14, 60070, Control_c, 10, 7, 85
14, 60071, Control_c, 10, 7, 86
14, 60072, Control_c, 10, 7, 87
14, 60073, Control_c, 10, 7, 88
14, 60074, Control_c, 10, 7, 89
14, 60075, Control_c, 10, 7, 90
14, 60076, Control_c, 10, 7, 91
14, 60077, Control_c, 10, 7, 91
14, 60078, Control_c, 10, 7, 92
14, 60079, Control_c, 10, 7, 93
14, 60080, Control_c, 10, 7, 94
14, 60081, Control_c, 10, 7, 95
14, 60082, Control_c, 10, 7, 96
14, 60083, Control_c, 10, 7, 97
14, 60084, Control_c, 10, 7, 98
14, 60085, Control_c, 10, 7, 98
14, 60086, Control_c, 10, 7, 99
14, 60087, Control_c, 10, 7, 100
14, 60088, Control_c, 10, 7, 101
14, 60089, Control_c, 10, 7, 102
14, 60090, Control_c, 10, 7, 103
14, 60091, Control_c, 10, 7, 104
14, 60092, Control_c, 10, 7, 104
14, 60093, Control_c, 10, 7, 105
14, 60094, Control_c, 10, 7, 106
14, 60095, Control_c, 10, 7, 107
14, 60096, Note_off_c, 10, 27, 64
14, 60096, Note_off_c, 10, 51, 64
14, 60096, Note_off_c, 10, 39, 64
14, 60096, Control_c, 10, 7, 67
14, 60096, Note_on_c, 10, 39, 127
14, 60096, Note_on_c, 10, 51, 127
14, 60096, Note_on_c, 10, 27, 127
14, 60097, Control_c, 10, 7, 68
14, 60098, Control_c, 10, 7, 69
14, 60099, Control_c, 10, 7, 70
14, 60100, Control_c, 10, 7, 71
14, 60101, Control_c, 10, 7, 72
14, 60102, Control_c, 10, 7, 73
14, 60103, Control_c, 10, 7, 74
14, 60104, Control_c, 10, 7, 75
14, 60105, Control_c, 10, 7, 75
14, 60106, Control_c, 10, 7, 76
14, 60107, Control_c, 10, 7, 77
14, 60108, Control_c, 10, 7, 78
14, 60109, Control_c, 10, 7, 79
14, 60110, Control_c, 10, 7, 80
14, 60111, Control_c, 10, 7, 81
14, 60112, Control_c, 10, 7, 82
14, 60113, Control_c, 10, 7, 83
14, 60114, Control_c, 10, 7, 84
14, 60115, Control_c, 10, 7, 85
14, 60116, Control_c, 10, 7, 86
14, 60117, Control_c, 10, 7, 87
14, 60118, Control_c, 10, 7, 88
14, 60119, Control_c, 10, 7, 89
14, 60120, Control_c, 10, 7, 90
14, 60121, Control_c, 10, 7, 90
14, 60122, Control_c, 10, 7, 91
14, 60123, Control_c, 10, 7, 92
14, 60124, Control_c, 10, 7, 93
14, 60125, Control_c, 10, 7, 94
14, 60126, Control_c, 10, 7, 95
14, 60127, Control_c, 10, 7, 96
14, 60128, Control_c, 10, 7, 97
14, 60129, Control_c, 10, 7, 98
14, 60130, Control_c, 10, 7, 99
14, 60131, Control_c, 10, 7, 100
14, 60132, Control_c, 10, 7, 101
14, 60133, Control_c, 10, 7, 102
14, 60134, Control_c, 10, 7, 103
14, 60135, Control_c, 10, 7, 104
14, 60136, Control_c, 10, 7, 105
14, 60137, Control_c, 10, 7, 106
14, 60138, Control_c, 10, 7, 106
14, 60139, Control_c, 10, 7, 107
14, 60140, Control_c, 10, 7, 108
14, 60141, Control_c, 10, 7, 109
14, 60142, Control_c, 10, 7, 110
14, 60143, Control_c, 10, 7, 111
14, 60144, Note_off_c, 10, 27, 64
14, 60144, Note_off_c, 10, 51, 64
14, 60144, Note_off_c, 10, 39, 64
14, 60144, Control_c, 10, 7, 61
14, 60144, Note_on_c, 10, 39, 127
14, 60144, Note_on_c, 10, 51, 127
14, 60144, Note_on_c, 10, 27, 127
14, 60145, Control_c, 10, 7, 62
14, 60146, Control_c, 10, 7, 63
14, 60147, Control_c, 10, 7, 64
14, 60148, Control_c, 10, 7, 65
14, 60149, Control_c, 10, 7, 66
14, 60150, Control_c, 10, 7, 67
14, 60151, Control_c, 10, 7, 68
14, 60152, Control_c, 10, 7, 70
14, 60153, Control_c, 10, 7, 71
14, 60154, Control_c, 10, 7, 72
14, 60155, Control_c, 10, 7, 73
14, 60156, Control_c, 10, 7, 74
14, 60157, Control_c, 10, 7, 75
14, 60158, Control_c, 10, 7, 76
14, 60159, Control_c, 10, 7, 78
14, 60160, Control_c, 10, 7, 79
14, 60161, Control_c, 10, 7, 80
14, 60162, Control_c, 10, 7, 81
14, 60163, Control_c, 10, 7, 82
14, 60164, Control_c, 10, 7, 83
14, 60165, Control_c, 10, 7, 84
14, 60166, Control_c, 10, 7, 85
14, 60167, Control_c, 10, 7, 87
14, 60168, Control_c, 10, 7, 88
14, 60169, Control_c, 10, 7, 89
14, 60170, Control_c, 10, 7, 90
14, 60171, Control_c, 10, 7, 91
14, 60172, Control_c, 10, 7, 92
14, 60173, Control_c, 10, 7, 93
14, 60174, Control_c, 10, 7, 95
14, 60175, Control_c, 10, 7, 96
14, 60176, Control_c, 10, 7, 97
14, 60177, Control_c, 10, 7, 98
14, 60178, Control_c, 10, 7, 99
14, 60179, Control_c, 10, 7, 100
14, 60180, Control_c, 10, 7, 101
14, 60181, Control_c, 10, 7, 102
14, 60182, Control_c, 10, 7, 104
14, 60183, Control_c, 10, 7, 105
14, 60184, Control_c, 10, 7, 106
14, 60185, Control_c, 10, 7, 107
14, 60186, Control_c, 10, 7, 108
14, 60187, Control_c, 10, 7, 110
14, 60188, Control_c, 10, 7, 111
14, 60189, Control_c, 10, 7, 112
14, 60190, Control_c, 10, 7, 113
14, 60191, Control_c, 10, 7, 114
14, 60192, Note_off_c, 10, 27, 64
14, 60192, Note_off_c, 10, 51, 64
14, 60192, Note_off_c, 10, 39, 64
14, 60192, Control_c, 10, 7, 65
14, 60192, Note_on_c, 10, 39, 127
14, 60192, Note_on_c, 10, 51, 127
14, 60192, Note_on_c, 10, 27, 127
14, 60193, Control_c, 10, 7, 66
14, 60194, Control_c, 10, 7, 67
14, 60195, Control_c, 10, 7, 68
14, 60196, Control_c, 10, 7, 70
14, 60197, Control_c, 10, 7, 71
14, 60198, Control_c, 10, 7, 72
14, 60199, Control_c, 10, 7, 73
14, 60200, Control_c, 10, 7, 74
14, 60201, Control_c, 10, 7, 75
14, 60202, Control_c, 10, 7, 76
14, 60203, Control_c, 10, 7, 77
14, 60204, Control_c, 10, 7, 78
14, 60205, Control_c, 10, 7, 79
14, 60206, Control_c, 10, 7, 80
14, 60207, Control_c, 10, 7, 81
14, 60208, Control_c, 10, 7, 82
14, 60209, Control_c, 10, 7, 83
14, 60210, Control_c, 10, 7, 84
14, 60211, Control_c, 10, 7, 85
14, 60212, Control_c, 10, 7, 86
14, 60213, Control_c, 10, 7, 88
14, 60214, Control_c, 10, 7, 89
14, 60215, Control_c, 10, 7, 90
14, 60216, Control_c, 10, 7, 91
14, 60217, Control_c, 10, 7, 92
14, 60218, Control_c, 10, 7, 93
14, 60219, Control_c, 10, 7, 94
14, 60220, Control_c, 10, 7, 95
14, 60221, Control_c, 10, 7, 96
14, 60222, Control_c, 10, 7, 97
14, 60223, Control_c, 10, 7, 98
14, 60224, Control_c, 10, 7, 99
14, 60225, Control_c, 10, 7, 100
14, 60226, Control_c, 10, 7, 101
14, 60227, Control_c, 10, 7, 102
14, 60228, Control_c, 10, 7, 103
14, 60229, Control_c, 10, 7, 105
14, 60230, Control_c, 10, 7, 106
14, 60231, Control_c, 10, 7, 107
14, 60232, Control_c, 10, 7, 108
14, 60233, Control_c, 10, 7, 109
14, 60234, Control_c, 10, 7, 109
14, 60235, Control_c, 10, 7, 110
14, 60236, Control_c, 10, 7, 112
14, 60237, Control_c, 10, 7, 113
14, 60238, Control_c, 10, 7, 114
14, 60239, Control_c, 10, 7, 115
14, 60240, Note_off_c, 10, 27, 64
14, 60240, Note_off_c, 10, 51, 64
14, 60240, Note_off_c, 10, 39, 64
14, 60240, Control_c, 10, 7, 67
14, 60240, Note_on_c, 10, 39, 127
14, 60240, Note_on_c, 10, 51, 127
14, 60240, Note_on_c, 10, 27, 127
14, 60241, Control_c, 10, 7, 68
14, 60242, Control_c, 10, 7, 69
14, 60243, Control_c, 10, 7, 70
14, 60244, Control_c, 10, 7, 71
14, 60245, Control_c, 10, 7, 71
14, 60246, Control_c, 10, 7, 72
14, 60247, Control_c, 10, 7, 73
14, 60248, Control_c, 10, 7, 74
14, 60249, Control_c, 10, 7, 75
14, 60250, Control_c, 10, 7, 76
14, 60251, Control_c, 10, 7, 77
14, 60252, Control_c, 10, 7, 78
14, 60253, Control_c, 10, 7, 79
14, 60254, Control_c, 10, 7, 80
14, 60255, Control_c, 10, 7, 81
14, 60256, Control_c, 10, 7, 82
14, 60257, Control_c, 10, 7, 83
14, 60258, Control_c, 10, 7, 84
14, 60259, Control_c, 10, 7, 85
14, 60260, Control_c, 10, 7, 86
14, 60261, Control_c, 10, 7, 87
14, 60262, Control_c, 10, 7, 88
14, 60263, Control_c, 10, 7, 89
14, 60264, Control_c, 10, 7, 90
14, 60265, Control_c, 10, 7, 91
14, 60266, Control_c, 10, 7, 92
14, 60267, Control_c, 10, 7, 93
14, 60268, Control_c, 10, 7, 94
14, 60269, Control_c, 10, 7, 95
14, 60270, Control_c, 10, 7, 96
14, 60271, Control_c, 10, 7, 97
14, 60272, Control_c, 10, 7, 98
14, 60273, Control_c, 10, 7, 99
14, 60274, Control_c, 10, 7, 100
14, 60275, Control_c, 10, 7, 101
14, 60276, Control_c, 10, 7, 102
14, 60277, Control_c, 10, 7, 103
14, 60278, Control_c, 10, 7, 104
14, 60279, Control_c, 10, 7, 104
14, 60280, Control_c, 10, 7, 105
14, 60281, Control_c, 10, 7, 106
14, 60282, Control_c, 10, 7, 107
14, 60283, Control_c, 10, 7, 108
14, 60284, Control_c, 10, 7, 109
14, 60285, Control_c, 10, 7, 110
14, 60286, Control_c, 10, 7, 111
14, 60287, Control_c, 10, 7, 112
14, 60288, Note_off_c, 10, 27, 64
14, 60288, Note_off_c, 10, 51, 64
14, 60288, Note_off_c, 10, 39, 64
14, 60288, Control_c, 10, 7, 50
14, 60288, Note_on_c, 10, 41, 127
14, 60288, Note_on_c, 10, 29, 127
14, 60288, Note_on_c, 10, 53, 127
14, 60290, Control_c, 10, 7, 50
14, 60291, Control_c, 10, 7, 51
14, 60292, Control_c, 10, 7, 51
14, 60293, Control_c, 10, 7, 52
14, 60294, Control_c, 10, 7, 52
14, 60295, Control_c, 10, 7, 52
14, 60296, Control_c, 10, 7, 53
14, 60297, Control_c, 10, 7, 53
14, 60298, Control_c, 10, 7, 54
14, 60299, Control_c, 10, 7, 54
14, 60300, Control_c, 10, 7, 54
14, 60301, Control_c, 10, 7, 55
14, 60302, Control_c, 10, 7, 55
14, 60303, Control_c, 10, 7, 55
14, 60304, Control_c, 10, 7, 56
14, 60305, Control_c, 10, 7, 56
14, 60306, Control_c, 10, 7, 57
14, 60307, Control_c, 10, 7, 57
14, 60308, Control_c, 10, 7, 57
14, 60309, Control_c, 10, 7, 58
14, 60310, Control_c, 10, 7, 58
14, 60311, Control_c, 10, 7, 59
14, 60312, Control_c, 10, 7, 59
14, 60313, Control_c, 10, 7, 59
14, 60314, Control_c, 10, 7, 60
14, 60315, Control_c, 10, 7, 60
14, 60316, Control_c, 10, 7, 61
14, 60317, Control_c, 10, 7, 61
14, 60318, Control_c, 10, 7, 61
14, 60319, Control_c, 10, 7, 62
14, 60320, Control_c, 10, 7, 62
14, 60321, Control_c, 10, 7, 62
14, 60322, Control_c, 10, 7, 63
14, 60323, Control_c, 10, 7, 63
14, 60324, Control_c, 10, 7, 64
14, 60325, Control_c, 10, 7, 64
14, 60326, Control_c, 10, 7, 64
14, 60327, Control_c, 10, 7, 65
14, 60328, Control_c, 10, 7, 65
14, 60329, Control_c, 10, 7, 66
14, 60330, Control_c, 10, 7, 66
14, 60331, Control_c, 10, 7, 66
14, 60332, Control_c, 10, 7, 67
14, 60333, Control_c, 10, 7, 67
14, 60334, Control_c, 10, 7, 68
14, 60335, Control_c, 10, 7, 68
14, 60336, Control_c, 10, 7, 68
14, 60337, Control_c, 10, 7, 69
14, 60338, Control_c, 10, 7, 69
14, 60339, Control_c, 10, 7, 69
14, 60340, Control_c, 10, 7, 70
14, 60341, Control_c, 10, 7, 70
14, 60342, Control_c, 10, 7, 71
14, 60343, Control_c, 10, 7, 71
14, 60344, Control_c, 10, 7, 71
14, 60345, Control_c, 10, 7, 72
14, 60346, Control_c, 10, 7, 72
14, 60347, Control_c, 10, 7, 73
14, 60348, Control_c, 10, 7, 73
14, 60349, Control_c, 10, 7, 73
14, 60350, Control_c, 10, 7, 74
14, 60351, Control_c, 10, 7, 74
14, 60352, Control_c, 10, 7, 75
14, 60353, Control_c, 10, 7, 75
14, 60354, Control_c, 10, 7, 75
14, 60355, Control_c, 10, 7, 76
14, 60356, Control_c, 10, 7, 76
14, 60357, Control_c, 10, 7, 76
14, 60358, Control_c, 10, 7, 77
14, 60359, Control_c, 10, 7, 77
14, 60360, Control_c, 10, 7, 78
14, 60361, Control_c, 10, 7, 78
14, 60362, Control_c, 10, 7, 78
14, 60363, Control_c, 10, 7, 79
14, 60364, Control_c, 10, 7, 79
14, 60365, Control_c, 10, 7, 80
14, 60366, Control_c, 10, 7, 80
14, 60367, Control_c, 10, 7, 80
14, 60368, Control_c, 10, 7, 81
14, 60369, Control_c, 10, 7, 81
14, 60370, Control_c, 10, 7, 82
14, 60371, Control_c, 10, 7, 82
14, 60372, Control_c, 10, 7, 82
14, 60373, Control_c, 10, 7, 83
14, 60374, Control_c, 10, 7, 83
14, 60375, Control_c, 10, 7, 83
14, 60376, Control_c, 10, 7, 84
14, 60377, Control_c, 10, 7, 84
14, 60378, Control_c, 10, 7, 85
14, 60379, Control_c, 10, 7, 85
14, 60380, Control_c, 10, 7, 85
14, 60381, Control_c, 10, 7, 86
14, 60382, Control_c, 10, 7, 86
14, 60383, Control_c, 10, 7, 87
14, 60384, Control_c, 10, 7, 87
14, 60385, Control_c, 10, 7, 87
14, 60386, Control_c, 10, 7, 88
14, 60387, Control_c, 10, 7, 88
14, 60388, Control_c, 10, 7, 89
14, 60389, Control_c, 10, 7, 89
14, 60390, Control_c, 10, 7, 89
14, 60391, Control_c, 10, 7, 90
14, 60392, Control_c, 10, 7, 90
14, 60393, Control_c, 10, 7, 90
14, 60394, Control_c, 10, 7, 91
14, 60395, Control_c, 10, 7, 91
14, 60396, Control_c, 10, 7, 92
14, 60397, Control_c, 10, 7, 92
14, 60398, Control_c, 10, 7, 92
14, 60399, Control_c, 10, 7, 93
14, 60400, Control_c, 10, 7, 93
14, 60401, Control_c, 10, 7, 94
14, 60402, Control_c, 10, 7, 94
14, 60403, Control_c, 10, 7, 94
14, 60404, Control_c, 10, 7, 95
14, 60405, Control_c, 10, 7, 95
14, 60406, Control_c, 10, 7, 96
14, 60407, Control_c, 10, 7, 96
14, 60408, Control_c, 10, 7, 96
14, 60409, Control_c, 10, 7, 97
14, 60410, Control_c, 10, 7, 97
14, 60411, Control_c, 10, 7, 97
14, 60412, Control_c, 10, 7, 98
14, 60413, Control_c, 10, 7, 98
14, 60414, Control_c, 10, 7, 99
14, 60415, Control_c, 10, 7, 99
14, 60416, Control_c, 10, 7, 99
14, 60417, Control_c, 10, 7, 100
14, 60418, Control_c, 10, 7, 100
14, 60419, Control_c, 10, 7, 101
14, 60420, Control_c, 10, 7, 101
14, 60421, Control_c, 10, 7, 101
14, 60422, Control_c, 10, 7, 102
14, 60423, Control_c, 10, 7, 102
14, 60424, Control_c, 10, 7, 103
14, 60425, Control_c, 10, 7, 103
14, 60426, Control_c, 10, 7, 103
14, 60427, Control_c, 10, 7, 104
14, 60428, Control_c, 10, 7, 104
14, 60429, Control_c, 10, 7, 104
14, 60430, Control_c, 10, 7, 105
14, 60431, Control_c, 10, 7, 105
14, 60432, Note_off_c, 10, 53, 64
14, 60432, Note_off_c, 10, 29, 64
14, 60432, Note_off_c, 10, 41, 64
14, 60432, Control_c, 10, 7, 54
14, 60432, Note_on_c, 10, 43, 127
14, 60432, Note_on_c, 10, 31, 127
14, 60432, Note_on_c, 10, 55, 127
14, 60433, Control_c, 10, 7, 55
14, 60434, Control_c, 10, 7, 55
14, 60435, Control_c, 10, 7, 56
14, 60436, Control_c, 10, 7, 57
14, 60437, Control_c, 10, 7, 57
14, 60438, Control_c, 10, 7, 57
14, 60439, Control_c, 10, 7, 58
14, 60440, Control_c, 10, 7, 58
14, 60441, Control_c, 10, 7, 58
14, 60442, Control_c, 10, 7, 59
14, 60443, Control_c, 10, 7, 59
14, 60444, Control_c, 10, 7, 59
14, 60445, Control_c, 10, 7, 60
14, 60446, Control_c, 10, 7, 60
14, 60447, Control_c, 10, 7, 61
14, 60448, Control_c, 10, 7, 61
14, 60449, Control_c, 10, 7, 61
14, 60450, Control_c, 10, 7, 62
14, 60451, Control_c, 10, 7, 62
14, 60452, Control_c, 10, 7, 62
14, 60453, Control_c, 10, 7, 63
14, 60454, Control_c, 10, 7, 63
14, 60455, Control_c, 10, 7, 63
14, 60456, Control_c, 10, 7, 63
14, 60457, Control_c, 10, 7, 64
14, 60458, Control_c, 10, 7, 64
14, 60459, Control_c, 10, 7, 65
14, 60460, Control_c, 10, 7, 65
14, 60461, Control_c, 10, 7, 65
14, 60462, Control_c, 10, 7, 66
14, 60463, Control_c, 10, 7, 66
14, 60464, Control_c, 10, 7, 66
14, 60465, Control_c, 10, 7, 67
14, 60466, Control_c, 10, 7, 67
14, 60467, Control_c, 10, 7, 68
14, 60468, Control_c, 10, 7, 68
14, 60469, Control_c, 10, 7, 68
14, 60470, Control_c, 10, 7, 69
14, 60471, Control_c, 10, 7, 69
14, 60472, Control_c, 10, 7, 69
14, 60473, Control_c, 10, 7, 70
14, 60474, Control_c, 10, 7, 70
14, 60475, Control_c, 10, 7, 71
14, 60476, Control_c, 10, 7, 71
14, 60477, Control_c, 10, 7, 71
14, 60478, Control_c, 10, 7, 72
14, 60479, Control_c, 10, 7, 72
14, 60480, Control_c, 10, 7, 73
14, 60481, Control_c, 10, 7, 73
14, 60482, Control_c, 10, 7, 73
14, 60483, Control_c, 10, 7, 74
14, 60484, Control_c, 10, 7, 74
14, 60485, Control_c, 10, 7, 74
14, 60486, Control_c, 10, 7, 75
14, 60487, Control_c, 10, 7, 75
14, 60488, Control_c, 10, 7, 76
14, 60489, Control_c, 10, 7, 76
14, 60490, Control_c, 10, 7, 76
14, 60491, Control_c, 10, 7, 77
14, 60492, Control_c, 10, 7, 77
14, 60493, Control_c, 10, 7, 77
14, 60494, Control_c, 10, 7, 78
14, 60495, Control_c, 10, 7, 78
14, 60496, Control_c, 10, 7, 79
14, 60497, Control_c, 10, 7, 79
14, 60498, Control_c, 10, 7, 79
14, 60499, Control_c, 10, 7, 80
14, 60500, Control_c, 10, 7, 80
14, 60501, Control_c, 10, 7, 80
14, 60502, Control_c, 10, 7, 81
14, 60503, Control_c, 10, 7, 81
14, 60504, Control_c, 10, 7, 82
14, 60505, Control_c, 10, 7, 82
14, 60506, Control_c, 10, 7, 82
14, 60507, Control_c, 10, 7, 83
14, 60508, Control_c, 10, 7, 83
14, 60509, Control_c, 10, 7, 84
14, 60510, Control_c, 10, 7, 84
14, 60511, Control_c, 10, 7, 84
14, 60512, Control_c, 10, 7, 85
14, 60513, Control_c, 10, 7, 85
14, 60514, Control_c, 10, 7, 85
14, 60515, Control_c, 10, 7, 86
14, 60516, Control_c, 10, 7, 86
14, 60517, Control_c, 10, 7, 87
14, 60518, Control_c, 10, 7, 87
14, 60519, Control_c, 10, 7, 87
14, 60520, Control_c, 10, 7, 88
14, 60521, Control_c, 10, 7, 88
14, 60522, Control_c, 10, 7, 88
14, 60523, Control_c, 10, 7, 89
14, 60524, Control_c, 10, 7, 89
14, 60525, Control_c, 10, 7, 90
14, 60526, Control_c, 10, 7, 90
14, 60527, Control_c, 10, 7, 90
14, 60528, Control_c, 10, 7, 91
14, 60529, Control_c, 10, 7, 91
14, 60530, Control_c, 10, 7, 92
14, 60531, Control_c, 10, 7, 92
14, 60532, Control_c, 10, 7, 92
14, 60533, Control_c, 10, 7, 93
14, 60534, Control_c, 10, 7, 93
14, 60535, Control_c, 10, 7, 93
14, 60536, Control_c, 10, 7, 94
14, 60537, Control_c, 10, 7, 94
14, 60538, Control_c, 10, 7, 95
14, 60539, Control_c, 10, 7, 95
14, 60540, Control_c, 10, 7, 95
14, 60541, Control_c, 10, 7, 96
14, 60542, Control_c, 10, 7, 96
14, 60543, Control_c, 10, 7, 96
14, 60544, Control_c, 10, 7, 97
14, 60545, Control_c, 10, 7, 97
14, 60546, Control_c, 10, 7, 98
14, 60547, Control_c, 10, 7, 98
14, 60548, Control_c, 10, 7, 98
14, 60549, Control_c, 10, 7, 99
14, 60550, Control_c, 10, 7, 99
14, 60551, Control_c, 10, 7, 99
14, 60552, Control_c, 10, 7, 100
14, 60553, Control_c, 10, 7, 100
14, 60554, Control_c, 10, 7, 101
14, 60555, Control_c, 10, 7, 101
14, 60556, Control_c, 10, 7, 101
14, 60557, Control_c, 10, 7, 102
14, 60558, Control_c, 10, 7, 102
14, 60559, Control_c, 10, 7, 103
14, 60560, Control_c, 10, 7, 103
14, 60561, Control_c, 10, 7, 103
14, 60562, Control_c, 10, 7, 104
14, 60563, Control_c, 10, 7, 104
14, 60564, Control_c, 10, 7, 104
14, 60565, Control_c, 10, 7, 105
14, 60566, Control_c, 10, 7, 105
14, 60567, Control_c, 10, 7, 106
14, 60568, Control_c, 10, 7, 106
14, 60569, Control_c, 10, 7, 106
14, 60570, Control_c, 10, 7, 107
14, 60571, Control_c, 10, 7, 107
14, 60572, Control_c, 10, 7, 107
14, 60573, Control_c, 10, 7, 108
14, 60574, Control_c, 10, 7, 108
14, 60575, Control_c, 10, 7, 109
14, 60576, Note_off_c, 10, 55, 64
14, 60576, Note_off_c, 10, 31, 64
14, 60576, Note_off_c, 10, 43, 64
14, 60576, Control_c, 10, 7, 108
14, 60576, Note_on_c, 10, 39, 127
14, 60576, Note_on_c, 10, 27, 127
14, 60576, Note_on_c, 10, 51, 127
14, 60577, Control_c, 10, 7, 108
14, 60578, Control_c, 10, 7, 107
14, 60579, Control_c, 10, 7, 107
14, 60580, Control_c, 10, 7, 106
14, 60581, Control_c, 10, 7, 106
14, 60582, Control_c, 10, 7, 105
14, 60583, Control_c, 10, 7, 105
14, 60584, Control_c, 10, 7, 105
14, 60585, Control_c, 10, 7, 104
14, 60586, Control_c, 10, 7, 104
14, 60587, Control_c, 10, 7, 103
14, 60588, Control_c, 10, 7, 103
14, 60589, Control_c, 10, 7, 102
14, 60590, Control_c, 10, 7, 102
14, 60591, Control_c, 10, 7, 101
14, 60592, Control_c, 10, 7, 101
14, 60593, Control_c, 10, 7, 100
14, 60594, Control_c, 10, 7, 100
14, 60595, Control_c, 10, 7, 99
14, 60596, Control_c, 10, 7, 99
14, 60597, Control_c, 10, 7, 98
14, 60598, Control_c, 10, 7, 98
14, 60599, Control_c, 10, 7, 97
14, 60600, Control_c, 10, 7, 97
14, 60601, Control_c, 10, 7, 96
14, 60602, Control_c, 10, 7, 96
14, 60603, Control_c, 10, 7, 95
14, 60604, Control_c, 10, 7, 95
14, 60605, Control_c, 10, 7, 94
14, 60606, Control_c, 10, 7, 94
14, 60607, Control_c, 10, 7, 93
14, 60608, Control_c, 10, 7, 93
14, 60609, Control_c, 10, 7, 92
14, 60610, Control_c, 10, 7, 92
14, 60611, Control_c, 10, 7, 91
14, 60612, Control_c, 10, 7, 91
14, 60613, Control_c, 10, 7, 90
14, 60614, Control_c, 10, 7, 90
14, 60615, Control_c, 10, 7, 89
14, 60616, Control_c, 10, 7, 89
14, 60617, Control_c, 10, 7, 88
14, 60618, Control_c, 10, 7, 88
14, 60619, Control_c, 10, 7, 87
14, 60620, Control_c, 10, 7, 87
14, 60621, Control_c, 10, 7, 86
14, 60622, Control_c, 10, 7, 86
14, 60623, Control_c, 10, 7, 85
14, 60624, Control_c, 10, 7, 85
14, 60625, Control_c, 10, 7, 84
14, 60626, Control_c, 10, 7, 84
14, 60627, Control_c, 10, 7, 83
14, 60628, Control_c, 10, 7, 83
14, 60629, Control_c, 10, 7, 82
14, 60630, Control_c, 10, 7, 82
14, 60631, Control_c, 10, 7, 81
14, 60632, Control_c, 10, 7, 81
14, 60633, Control_c, 10, 7, 80
14, 60634, Control_c, 10, 7, 80
14, 60635, Control_c, 10, 7, 79
14, 60636, Control_c, 10, 7, 79
14, 60637, Control_c, 10, 7, 78
14, 60638, Control_c, 10, 7, 78
14, 60639, Control_c, 10, 7, 77
14, 60640, Control_c, 10, 7, 77
14, 60641, Control_c, 10, 7, 76
14, 60642, Control_c, 10, 7, 76
14, 60643, Control_c, 10, 7, 75
14, 60644, Control_c, 10, 7, 75
14, 60645, Control_c, 10, 7, 74
14, 60646, Control_c, 10, 7, 74
14, 60647, Control_c, 10, 7, 73
14, 60648, Control_c, 10, 7, 73
14, 60649, Control_c, 10, 7, 72
14, 60650, Control_c, 10, 7, 72
14, 60651, Control_c, 10, 7, 71
14, 60652, Control_c, 10, 7, 71
14, 60653, Control_c, 10, 7, 70
14, 60654, Control_c, 10, 7, 70
14, 60655, Control_c, 10, 7, 69
14, 60656, Control_c, 10, 7, 69
14, 60657, Control_c, 10, 7, 68
14, 60658, Control_c, 10, 7, 68
14, 60659, Control_c, 10, 7, 67
14, 60660, Control_c, 10, 7, 67
14, 60661, Control_c, 10, 7, 66
14, 60662, Control_c, 10, 7, 66
14, 60663, Control_c, 10, 7, 65
14, 60664, Control_c, 10, 7, 65
14, 60665, Control_c, 10, 7, 64
14, 60666, Control_c, 10, 7, 64
14, 60667, Control_c, 10, 7, 63
14, 60668, Control_c, 10, 7, 63
14, 60669, Control_c, 10, 7, 62
14, 60670, Control_c, 10, 7, 62
14, 60671, Control_c, 10, 7, 61
14, 60672, Control_c, 10, 7, 61
14, 60720, Note_off_c, 10, 51, 64
14, 60720, Note_off_c, 10, 27, 64
14, 60720, Note_off_c, 10, 39, 64
14, 60720, Control_c, 10, 7, 102
14, 60720, Note_on_c, 10, 39, 127
14, 60720, Note_on_c, 10, 27, 127
14, 60720, Note_on_c, 10, 51, 127
14, 60721, Control_c, 10, 7, 102
14, 60722, Control_c, 10, 7, 101
14, 60723, Control_c, 10, 7, 100
14, 60724, Control_c, 10, 7, 99
14, 60725, Control_c, 10, 7, 98
14, 60726, Control_c, 10, 7, 97
14, 60727, Control_c, 10, 7, 96
14, 60728, Control_c, 10, 7, 95
14, 60729, Control_c, 10, 7, 95
14, 60730, Control_c, 10, 7, 94
14, 60731, Control_c, 10, 7, 93
14, 60732, Control_c, 10, 7, 92
14, 60733, Control_c, 10, 7, 91
14, 60734, Control_c, 10, 7, 90
14, 60735, Control_c, 10, 7, 89
14, 60736, Control_c, 10, 7, 88
14, 60737, Control_c, 10, 7, 87
14, 60738, Control_c, 10, 7, 87
14, 60739, Control_c, 10, 7, 86
14, 60740, Control_c, 10, 7, 85
14, 60741, Control_c, 10, 7, 84
14, 60742, Control_c, 10, 7, 83
14, 60743, Control_c, 10, 7, 82
14, 60744, Control_c, 10, 7, 81
14, 60745, Control_c, 10, 7, 80
14, 60746, Control_c, 10, 7, 80
14, 60747, Control_c, 10, 7, 79
14, 60748, Control_c, 10, 7, 78
14, 60749, Control_c, 10, 7, 77
14, 60750, Control_c, 10, 7, 76
14, 60751, Control_c, 10, 7, 75
14, 60752, Control_c, 10, 7, 74
14, 60753, Control_c, 10, 7, 73
14, 60754, Control_c, 10, 7, 73
14, 60755, Control_c, 10, 7, 72
14, 60756, Control_c, 10, 7, 71
14, 60757, Control_c, 10, 7, 70
14, 60758, Control_c, 10, 7, 69
14, 60759, Control_c, 10, 7, 68
14, 60760, Control_c, 10, 7, 67
14, 60761, Control_c, 10, 7, 66
14, 60762, Control_c, 10, 7, 66
14, 60763, Control_c, 10, 7, 65
14, 60764, Control_c, 10, 7, 64
14, 60765, Control_c, 10, 7, 63
14, 60766, Control_c, 10, 7, 62
14, 60767, Control_c, 10, 7, 61
14, 60768, Note_off_c, 10, 51, 64
14, 60768, Note_off_c, 10, 27, 64
14, 60768, Note_off_c, 10, 39, 64
14, 60768, Control_c, 10, 7, 102
14, 60768, Note_on_c, 10, 39, 127
14, 60768, Note_on_c, 10, 27, 127
14, 60768, Note_on_c, 10, 51, 127
14, 60769, Control_c, 10, 7, 102
14, 60770, Control_c, 10, 7, 101
14, 60771, Control_c, 10, 7, 100
14, 60772, Control_c, 10, 7, 99
14, 60773, Control_c, 10, 7, 98
14, 60774, Control_c, 10, 7, 97
14, 60775, Control_c, 10, 7, 96
14, 60776, Control_c, 10, 7, 96
14, 60777, Control_c, 10, 7, 95
14, 60778, Control_c, 10, 7, 94
14, 60779, Control_c, 10, 7, 93
14, 60780, Control_c, 10, 7, 92
14, 60781, Control_c, 10, 7, 91
14, 60782, Control_c, 10, 7, 91
14, 60783, Control_c, 10, 7, 90
14, 60784, Control_c, 10, 7, 89
14, 60785, Control_c, 10, 7, 88
14, 60786, Control_c, 10, 7, 87
14, 60787, Control_c, 10, 7, 86
14, 60788, Control_c, 10, 7, 85
14, 60789, Control_c, 10, 7, 85
14, 60790, Control_c, 10, 7, 84
14, 60791, Control_c, 10, 7, 83
14, 60792, Control_c, 10, 7, 82
14, 60793, Control_c, 10, 7, 81
14, 60794, Control_c, 10, 7, 80
14, 60795, Control_c, 10, 7, 80
14, 60796, Control_c, 10, 7, 79
14, 60797, Control_c, 10, 7, 78
14, 60798, Control_c, 10, 7, 77
14, 60799, Control_c, 10, 7, 76
14, 60800, Control_c, 10, 7, 75
14, 60801, Control_c, 10, 7, 74
14, 60802, Control_c, 10, 7, 74
14, 60803, Control_c, 10, 7, 73
14, 60804, Control_c, 10, 7, 72
14, 60805, Control_c, 10, 7, 71
14, 60806, Control_c, 10, 7, 70
14, 60807, Control_c, 10, 7, 69
14, 60808, Control_c, 10, 7, 68
14, 60809, Control_c, 10, 7, 68
14, 60810, Control_c, 10, 7, 67
14, 60811, Control_c, 10, 7, 66
14, 60812, Control_c, 10, 7, 65
14, 60813, Control_c, 10, 7, 64
14, 60814, Control_c, 10, 7, 102
14, 60815, Control_c, 10, 7, 102
14, 60816, Note_off_c, 10, 51, 64
14, 60816, Note_off_c, 10, 27, 64
14, 60816, Note_off_c, 10, 39, 64
14, 60816, Control_c, 10, 7, 101
14, 60816, Note_on_c, 10, 39, 127
14, 60816, Note_on_c, 10, 27, 127
14, 60816, Note_on_c, 10, 51, 127
14, 60817, Control_c, 10, 7, 100
14, 60818, Control_c, 10, 7, 99
14, 60819, Control_c, 10, 7, 98
14, 60820, Control_c, 10, 7, 97
14, 60821, Control_c, 10, 7, 97
14, 60822, Control_c, 10, 7, 96
14, 60823, Control_c, 10, 7, 95
14, 60824, Control_c, 10, 7, 94
14, 60825, Control_c, 10, 7, 93
14, 60826, Control_c, 10, 7, 93
14, 60827, Control_c, 10, 7, 92
14, 60828, Control_c, 10, 7, 91
14, 60829, Control_c, 10, 7, 90
14, 60830, Control_c, 10, 7, 89
14, 60831, Control_c, 10, 7, 88
14, 60832, Control_c, 10, 7, 88
14, 60833, Control_c, 10, 7, 87
14, 60834, Control_c, 10, 7, 86
14, 60835, Control_c, 10, 7, 85
14, 60836, Control_c, 10, 7, 84
14, 60837, Control_c, 10, 7, 84
14, 60838, Control_c, 10, 7, 83
14, 60839, Control_c, 10, 7, 82
14, 60840, Control_c, 10, 7, 81
14, 60841, Control_c, 10, 7, 80
14, 60842, Control_c, 10, 7, 79
14, 60843, Control_c, 10, 7, 79
14, 60844, Control_c, 10, 7, 78
14, 60845, Control_c, 10, 7, 77
14, 60846, Control_c, 10, 7, 76
14, 60847, Control_c, 10, 7, 75
14, 60848, Control_c, 10, 7, 75
14, 60849, Control_c, 10, 7, 74
14, 60850, Control_c, 10, 7, 73
14, 60851, Control_c, 10, 7, 72
14, 60852, Control_c, 10, 7, 71
14, 60853, Control_c, 10, 7, 70
14, 60854, Control_c, 10, 7, 70
14, 60855, Control_c, 10, 7, 69
14, 60856, Control_c, 10, 7, 68
14, 60857, Control_c, 10, 7, 67
14, 60858, Control_c, 10, 7, 66
14, 60859, Control_c, 10, 7, 66
14, 60860, Control_c, 10, 7, 65
14, 60861, Control_c, 10, 7, 64
14, 60862, Control_c, 10, 7, 63
14, 60863, Control_c, 10, 7, 62
14, 60864, Note_off_c, 10, 51, 64
14, 60864, Note_off_c, 10, 27, 64
14, 60864, Note_off_c, 10, 39, 64
14, 60864, Control_c, 10, 7, 102
14, 60864, Note_on_c, 10, 39, 127
14, 60864, Note_on_c, 10, 27, 127
14, 60864, Note_on_c, 10, 51, 127
14, 60865, Control_c, 10, 7, 102
14, 60866, Control_c, 10, 7, 101
14, 60867, Control_c, 10, 7, 100
14, 60868, Control_c, 10, 7, 99
14, 60869, Control_c, 10, 7, 98
14, 60870, Control_c, 10, 7, 97
14, 60871, Control_c, 10, 7, 96
14, 60872, Control_c, 10, 7, 95
14, 60873, Control_c, 10, 7, 94
14, 60874, Control_c, 10, 7, 94
14, 60875, Control_c, 10, 7, 93
14, 60876, Control_c, 10, 7, 92
14, 60877, Control_c, 10, 7, 91
14, 60878, Control_c, 10, 7, 90
14, 60879, Control_c, 10, 7, 89
14, 60880, Control_c, 10, 7, 88
14, 60881, Control_c, 10, 7, 87
14, 60882, Control_c, 10, 7, 86
14, 60883, Control_c, 10, 7, 86
14, 60884, Control_c, 10, 7, 85
14, 60885, Control_c, 10, 7, 84
14, 60886, Control_c, 10, 7, 83
14, 60887, Control_c, 10, 7, 82
14, 60888, Control_c, 10, 7, 81
14, 60889, Control_c, 10, 7, 80
14, 60890, Control_c, 10, 7, 79
14, 60891, Control_c, 10, 7, 78
14, 60892, Control_c, 10, 7, 78
14, 60893, Control_c, 10, 7, 77
14, 60894, Control_c, 10, 7, 76
14, 60895, Control_c, 10, 7, 75
14, 60896, Control_c, 10, 7, 74
14, 60897, Control_c, 10, 7, 73
14, 60898, Control_c, 10, 7, 72
14, 60899, Control_c, 10, 7, 71
14, 60900, Control_c, 10, 7, 70
14, 60901, Control_c, 10, 7, 69
14, 60902, Control_c, 10, 7, 69
14, 60903, Control_c, 10, 7, 68
14, 60904, Control_c, 10, 7, 67
14, 60905, Control_c, 10, 7, 66
14, 60906, Control_c, 10, 7, 65
14, 60907, Control_c, 10, 7, 64
14, 60908, Control_c, 10, 7, 63
14, 60909, Control_c, 10, 7, 62
14, 60910, Control_c, 10, 7, 61
14, 60911, Control_c, 10, 7, 61
14, 60912, Note_off_c, 10, 51, 64
14, 60912, Note_off_c, 10, 27, 64
14, 60912, Note_off_c, 10, 39, 64
14, 60912, Note_on_c, 10, 39, 127
14, 60912, Note_on_c, 10, 27, 127
14, 60912, Note_on_c, 10, 51, 127
14, 60913, Control_c, 10, 7, 103
14, 60914, Control_c, 10, 7, 102
14, 60915, Control_c, 10, 7, 101
14, 60916, Control_c, 10, 7, 100
14, 60917, Control_c, 10, 7, 99
14, 60918, Control_c, 10, 7, 99
14, 60919, Control_c, 10, 7, 98
14, 60920, Control_c, 10, 7, 97
14, 60921, Control_c, 10, 7, 96
14, 60922, Control_c, 10, 7, 95
14, 60923, Control_c, 10, 7, 94
14, 60924, Control_c, 10, 7, 93
14, 60925, Control_c, 10, 7, 93
14, 60926, Control_c, 10, 7, 92
14, 60927, Control_c, 10, 7, 91
14, 60928, Control_c, 10, 7, 90
14, 60929, Control_c, 10, 7, 89
14, 60930, Control_c, 10, 7, 88
14, 60931, Control_c, 10, 7, 87
14, 60932, Control_c, 10, 7, 87
14, 60933, Control_c, 10, 7, 86
14, 60934, Control_c, 10, 7, 85
14, 60935, Control_c, 10, 7, 84
14, 60936, Control_c, 10, 7, 83
14, 60937, Control_c, 10, 7, 82
14, 60938, Control_c, 10, 7, 81
14, 60939, Control_c, 10, 7, 81
14, 60940, Control_c, 10, 7, 80
14, 60941, Control_c, 10, 7, 79
14, 60942, Control_c, 10, 7, 78
14, 60943, Control_c, 10, 7, 77
14, 60944, Control_c, 10, 7, 76
14, 60945, Control_c, 10, 7, 75
14, 60946, Control_c, 10, 7, 75
14, 60947, Control_c, 10, 7, 74
14, 60948, Control_c, 10, 7, 73
14, 60949, Control_c, 10, 7, 72
14, 60950, Control_c, 10, 7, 71
14, 60951, Control_c, 10, 7, 70
14, 60952, Control_c, 10, 7, 69
14, 60953, Control_c, 10, 7, 69
14, 60954, Control_c, 10, 7, 68
14, 60955, Control_c, 10, 7, 67
14, 60956, Control_c, 10, 7, 66
14, 60957, Control_c, 10, 7, 65
14, 60958, Control_c, 10, 7, 64
14, 60959, Control_c, 10, 7, 64
14, 60960, Note_off_c, 10, 51, 64
14, 60960, Note_off_c, 10, 27, 64
14, 60960, Note_off_c, 10, 39, 64
14, 60960, Note_on_c, 10, 39, 127
14, 60960, Note_on_c, 10, 27, 127
14, 60960, Note_on_c, 10, 51, 127
14, 60961, Control_c, 10, 7, 104
14, 60962, Control_c, 10, 7, 103
14, 60963, Control_c, 10, 7, 102
14, 60964, Control_c, 10, 7, 101
14, 60965, Control_c, 10, 7, 100
14, 60966, Control_c, 10, 7, 99
14, 60967, Control_c, 10, 7, 98
14, 60968, Control_c, 10, 7, 98
14, 60969, Control_c, 10, 7, 97
14, 60970, Control_c, 10, 7, 96
14, 60971, Control_c, 10, 7, 95
14, 60972, Control_c, 10, 7, 94
14, 60973, Control_c, 10, 7, 93
14, 60974, Control_c, 10, 7, 93
14, 60975, Control_c, 10, 7, 92
14, 60976, Control_c, 10, 7, 91
14, 60977, Control_c, 10, 7, 90
14, 60978, Control_c, 10, 7, 89
14, 60979, Control_c, 10, 7, 88
14, 60980, Control_c, 10, 7, 87
14, 60981, Control_c, 10, 7, 87
14, 60982, Control_c, 10, 7, 86
14, 60983, Control_c, 10, 7, 85
14, 60984, Control_c, 10, 7, 84
14, 60985, Control_c, 10, 7, 83
14, 60986, Control_c, 10, 7, 82
14, 60987, Control_c, 10, 7, 82
14, 60988, Control_c, 10, 7, 81
14, 60989, Control_c, 10, 7, 80
14, 60990, Control_c, 10, 7, 79
14, 60991, Control_c, 10, 7, 78
14, 60992, Control_c, 10, 7, 77
14, 60993, Control_c, 10, 7, 76
14, 60994, Control_c, 10, 7, 76
14, 60995, Control_c, 10, 7, 75
14, 60996, Control_c, 10, 7, 74
14, 60997, Control_c, 10, 7, 73
14, 60998, Control_c, 10, 7, 72
14, 60999, Control_c, 10, 7, 71
14, 61000, Control_c, 10, 7, 71
14, 61001, Control_c, 10, 7, 70
14, 61002, Control_c, 10, 7, 69
14, 61003, Control_c, 10, 7, 68
14, 61004, Control_c, 10, 7, 67
14, 61005, Control_c, 10, 7, 66
14, 61006, Control_c, 10, 7, 65
14, 61007, Control_c, 10, 7, 102
14, 61008, Note_off_c, 10, 51, 64
14, 61008, Note_off_c, 10, 27, 64
14, 61008, Note_off_c, 10, 39, 64
14, 61008, Control_c, 10, 7, 102
14, 61008, Note_on_c, 10, 39, 127
14, 61008, Note_on_c, 10, 27, 127
14, 61008, Note_on_c, 10, 51, 127
14, 61009, Control_c, 10, 7, 101
14, 61010, Control_c, 10, 7, 100
14, 61011, Control_c, 10, 7, 99
14, 61012, Control_c, 10, 7, 98
14, 61013, Control_c, 10, 7, 97
14, 61014, Control_c, 10, 7, 96
14, 61015, Control_c, 10, 7, 96
14, 61016, Control_c, 10, 7, 95
14, 61017, Control_c, 10, 7, 94
14, 61018, Control_c, 10, 7, 93
14, 61019, Control_c, 10, 7, 92
14, 61020, Control_c, 10, 7, 91
14, 61021, Control_c, 10, 7, 90
14, 61022, Control_c, 10, 7, 89
14, 61023, Control_c, 10, 7, 89
14, 61024, Control_c, 10, 7, 88
14, 61025, Control_c, 10, 7, 87
14, 61026, Control_c, 10, 7, 86
14, 61027, Control_c, 10, 7, 85
14, 61028, Control_c, 10, 7, 84
14, 61029, Control_c, 10, 7, 83
14, 61030, Control_c, 10, 7, 83
14, 61031, Control_c, 10, 7, 82
14, 61032, Control_c, 10, 7, 81
14, 61033, Control_c, 10, 7, 80
14, 61034, Control_c, 10, 7, 79
14, 61035, Control_c, 10, 7, 78
14, 61036, Control_c, 10, 7, 77
14, 61037, Control_c, 10, 7, 77
14, 61038, Control_c, 10, 7, 76
14, 61039, Control_c, 10, 7, 75
14, 61040, Control_c, 10, 7, 74
14, 61041, Control_c, 10, 7, 73
14, 61042, Control_c, 10, 7, 72
14, 61043, Control_c, 10, 7, 71
14, 61044, Control_c, 10, 7, 71
14, 61045, Control_c, 10, 7, 70
14, 61046, Control_c, 10, 7, 69
14, 61047, Control_c, 10, 7, 68
14, 61048, Control_c, 10, 7, 67
14, 61049, Control_c, 10, 7, 66
14, 61050, Control_c, 10, 7, 65
14, 61051, Control_c, 10, 7, 65
14, 61052, Control_c, 10, 7, 64
14, 61053, Control_c, 10, 7, 63
14, 61056, Note_off_c, 10, 51, 64
14, 61056, Note_off_c, 10, 27, 64
14, 61056, Note_off_c, 10, 39, 64
14, 61056, Control_c, 10, 7, 113
14, 61056, Note_on_c, 10, 39, 127
14, 61056, Note_on_c, 10, 27, 127
14, 61056, Note_on_c, 10, 51, 127
14, 61057, Control_c, 10, 7, 113
14, 61058, Control_c, 10, 7, 112
14, 61059, Control_c, 10, 7, 112
14, 61060, Control_c, 10, 7, 112
14, 61061, Control_c, 10, 7, 111
14, 61062, Control_c, 10, 7, 111
14, 61063, Control_c, 10, 7, 110
14, 61064, Control_c, 10, 7, 110
14, 61065, Control_c, 10, 7, 110
14, 61066, Control_c, 10, 7, 109
14, 61067, Control_c, 10, 7, 109
14, 61068, Control_c, 10, 7, 109
14, 61069, Control_c, 10, 7, 108
14, 61070, Control_c, 10, 7, 108
14, 61071, Control_c, 10, 7, 108
14, 61072, Control_c, 10, 7, 107
14, 61073, Control_c, 10, 7, 107
14, 61074, Control_c, 10, 7, 107
14, 61075, Control_c, 10, 7, 106
14, 61076, Control_c, 10, 7, 106
14, 61077, Control_c, 10, 7, 106
14, 61078, Control_c, 10, 7, 105
14, 61079, Control_c, 10, 7, 105
14, 61080, Control_c, 10, 7, 104
14, 61081, Control_c, 10, 7, 104
14, 61082, Control_c, 10, 7, 104
14, 61083, Control_c, 10, 7, 103
14, 61084, Control_c, 10, 7, 103
14, 61085, Control_c, 10, 7, 103
14, 61086, Control_c, 10, 7, 102
14, 61087, Control_c, 10, 7, 102
14, 61088, Control_c, 10, 7, 102
14, 61089, Control_c, 10, 7, 101
14, 61090, Control_c, 10, 7, 101
14, 61091, Control_c, 10, 7, 101
14, 61092, Control_c, 10, 7, 100
14, 61093, Control_c, 10, 7, 100
14, 61094, Control_c, 10, 7, 100
14, 61095, Control_c, 10, 7, 99
14, 61096, Control_c, 10, 7, 99
14, 61097, Control_c, 10, 7, 98
14, 61098, Control_c, 10, 7, 98
14, 61099, Control_c, 10, 7, 98
14, 61100, Control_c, 10, 7, 97
14, 61101, Control_c, 10, 7, 97
14, 61102, Control_c, 10, 7, 97
14, 61103, Control_c, 10, 7, 96
14, 61104, Control_c, 10, 7, 96
14, 61105, Control_c, 10, 7, 96
14, 61106, Control_c, 10, 7, 95
14, 61107, Control_c, 10, 7, 95
14, 61108, Control_c, 10, 7, 95
14, 61109, Control_c, 10, 7, 94
14, 61110, Control_c, 10, 7, 94
14, 61111, Control_c, 10, 7, 94
14, 61112, Control_c, 10, 7, 93
14, 61113, Control_c, 10, 7, 93
14, 61114, Control_c, 10, 7, 92
14, 61115, Control_c, 10, 7, 92
14, 61116, Control_c, 10, 7, 92
14, 61117, Control_c, 10, 7, 91
14, 61118, Control_c, 10, 7, 91
14, 61119, Control_c, 10, 7, 91
14, 61120, Control_c, 10, 7, 90
14, 61121, Control_c, 10, 7, 90
14, 61122, Control_c, 10, 7, 90
14, 61123, Control_c, 10, 7, 89
14, 61124, Control_c, 10, 7, 89
14, 61125, Control_c, 10, 7, 89
14, 61126, Control_c, 10, 7, 88
14, 61127, Control_c, 10, 7, 88
14, 61128, Control_c, 10, 7, 88
14, 61129, Control_c, 10, 7, 87
14, 61130, Control_c, 10, 7, 87
14, 61131, Control_c, 10, 7, 86
14, 61132, Control_c, 10, 7, 86
14, 61133, Control_c, 10, 7, 86
14, 61134, Control_c, 10, 7, 85
14, 61135, Control_c, 10, 7, 85
14, 61136, Control_c, 10, 7, 85
14, 61137, Control_c, 10, 7, 84
14, 61138, Control_c, 10, 7, 84
14, 61139, Control_c, 10, 7, 84
14, 61140, Control_c, 10, 7, 83
14, 61141, Control_c, 10, 7, 83
14, 61142, Control_c, 10, 7, 83
14, 61143, Control_c, 10, 7, 82
14, 61144, Control_c, 10, 7, 82
14, 61145, Control_c, 10, 7, 82
14, 61146, Control_c, 10, 7, 81
14, 61147, Control_c, 10, 7, 81
14, 61148, Control_c, 10, 7, 80
14, 61149, Control_c, 10, 7, 80
14, 61150, Control_c, 10, 7, 80
14, 61151, Control_c, 10, 7, 79
14, 61152, Control_c, 10, 7, 79
14, 61153, Control_c, 10, 7, 79
14, 61154, Control_c, 10, 7, 78
14, 61155, Control_c, 10, 7, 78
14, 61156, Control_c, 10, 7, 78
14, 61157, Control_c, 10, 7, 77
14, 61158, Control_c, 10, 7, 77
14, 61159, Control_c, 10, 7, 77
14, 61160, Control_c, 10, 7, 76
14, 61161, Control_c, 10, 7, 76
14, 61162, Control_c, 10, 7, 76
14, 61163, Control_c, 10, 7, 75
14, 61164, Control_c, 10, 7, 75
14, 61165, Control_c, 10, 7, 74
14, 61166, Control_c, 10, 7, 74
14, 61167, Control_c, 10, 7, 74
14, 61168, Control_c, 10, 7, 73
14, 61169, Control_c, 10, 7, 73
14, 61170, Control_c, 10, 7, 73
14, 61171, Control_c, 10, 7, 72
14, 61172, Control_c, 10, 7, 72
14, 61173, Control_c, 10, 7, 72
14, 61174, Control_c, 10, 7, 71
14, 61175, Control_c, 10, 7, 71
14, 61176, Control_c, 10, 7, 71
14, 61177, Control_c, 10, 7, 70
14, 61178, Control_c, 10, 7, 70
14, 61179, Control_c, 10, 7, 70
14, 61180, Control_c, 10, 7, 69
14, 61181, Control_c, 10, 7, 69
14, 61182, Control_c, 10, 7, 68
14, 61183, Control_c, 10, 7, 68
14, 61184, Control_c, 10, 7, 68
14, 61185, Control_c, 10, 7, 67
14, 61186, Control_c, 10, 7, 67
14, 61187, Control_c, 10, 7, 67
14, 61188, Control_c, 10, 7, 66
14, 61189, Control_c, 10, 7, 66
14, 61190, Control_c, 10, 7, 66
14, 61191, Control_c, 10, 7, 65
14, 61192, Control_c, 10, 7, 65
14, 61193, Control_c, 10, 7, 65
14, 61194, Control_c, 10, 7, 64
14, 61195, Control_c, 10, 7, 64
14, 61196, Control_c, 10, 7, 64
14, 61197, Control_c, 10, 7, 63
14, 61198, Control_c, 10, 7, 111
14, 61199, Control_c, 10, 7, 111
14, 61200, Note_off_c, 10, 51, 64
14, 61200, Note_off_c, 10, 27, 64
14, 61200, Note_off_c, 10, 39, 64
14, 61200, Control_c, 10, 7, 110
14, 61200, Note_on_c, 10, 39, 127
14, 61200, Note_on_c, 10, 51, 127
14, 61200, Note_on_c, 10, 27, 127
14, 61201, Control_c, 10, 7, 110
14, 61202, Control_c, 10, 7, 110
14, 61203, Control_c, 10, 7, 109
14, 61204, Control_c, 10, 7, 109
14, 61205, Control_c, 10, 7, 109
14, 61206, Control_c, 10, 7, 109
14, 61207, Control_c, 10, 7, 108
14, 61208, Control_c, 10, 7, 108
14, 61209, Control_c, 10, 7, 108
14, 61210, Control_c, 10, 7, 107
14, 61211, Control_c, 10, 7, 107
14, 61212, Control_c, 10, 7, 107
14, 61213, Control_c, 10, 7, 106
14, 61214, Control_c, 10, 7, 106
14, 61215, Control_c, 10, 7, 106
14, 61216, Control_c, 10, 7, 105
14, 61217, Control_c, 10, 7, 105
14, 61218, Control_c, 10, 7, 105
14, 61219, Control_c, 10, 7, 104
14, 61220, Control_c, 10, 7, 104
14, 61221, Control_c, 10, 7, 104
14, 61222, Control_c, 10, 7, 103
14, 61223, Control_c, 10, 7, 103
14, 61224, Control_c, 10, 7, 103
14, 61225, Control_c, 10, 7, 102
14, 61226, Control_c, 10, 7, 102
14, 61227, Control_c, 10, 7, 102
14, 61228, Control_c, 10, 7, 101
14, 61229, Control_c, 10, 7, 101
14, 61230, Control_c, 10, 7, 101
14, 61231, Control_c, 10, 7, 100
14, 61232, Control_c, 10, 7, 100
14, 61233, Control_c, 10, 7, 100
14, 61234, Control_c, 10, 7, 99
14, 61235, Control_c, 10, 7, 99
14, 61236, Control_c, 10, 7, 99
14, 61237, Control_c, 10, 7, 98
14, 61238, Control_c, 10, 7, 98
14, 61239, Control_c, 10, 7, 98
14, 61240, Control_c, 10, 7, 97
14, 61241, Control_c, 10, 7, 97
14, 61242, Control_c, 10, 7, 97
14, 61243, Control_c, 10, 7, 96
14, 61244, Control_c, 10, 7, 96
14, 61245, Control_c, 10, 7, 96
14, 61246, Control_c, 10, 7, 95
14, 61247, Control_c, 10, 7, 95
14, 61248, Control_c, 10, 7, 95
14, 61249, Control_c, 10, 7, 94
14, 61250, Control_c, 10, 7, 94
14, 61251, Control_c, 10, 7, 94
14, 61252, Control_c, 10, 7, 93
14, 61253, Control_c, 10, 7, 93
14, 61254, Control_c, 10, 7, 93
14, 61255, Control_c, 10, 7, 92
14, 61256, Control_c, 10, 7, 92
14, 61257, Control_c, 10, 7, 92
14, 61258, Control_c, 10, 7, 91
14, 61259, Control_c, 10, 7, 91
14, 61260, Control_c, 10, 7, 91
14, 61261, Control_c, 10, 7, 90
14, 61262, Control_c, 10, 7, 90
14, 61263, Control_c, 10, 7, 90
14, 61264, Control_c, 10, 7, 89
14, 61265, Control_c, 10, 7, 89
14, 61266, Control_c, 10, 7, 89
14, 61267, Control_c, 10, 7, 88
14, 61268, Control_c, 10, 7, 88
14, 61269, Control_c, 10, 7, 88
14, 61270, Control_c, 10, 7, 87
14, 61271, Control_c, 10, 7, 87
14, 61272, Control_c, 10, 7, 87
14, 61273, Control_c, 10, 7, 86
14, 61274, Control_c, 10, 7, 86
14, 61275, Control_c, 10, 7, 86
14, 61276, Control_c, 10, 7, 85
14, 61277, Control_c, 10, 7, 85
14, 61278, Control_c, 10, 7, 85
14, 61279, Control_c, 10, 7, 84
14, 61280, Control_c, 10, 7, 84
14, 61281, Control_c, 10, 7, 84
14, 61282, Control_c, 10, 7, 83
14, 61283, Control_c, 10, 7, 83
14, 61284, Control_c, 10, 7, 83
14, 61285, Control_c, 10, 7, 82
14, 61286, Control_c, 10, 7, 82
14, 61287, Control_c, 10, 7, 82
14, 61288, Control_c, 10, 7, 81
14, 61289, Control_c, 10, 7, 81
14, 61290, Control_c, 10, 7, 81
14, 61291, Control_c, 10, 7, 80
14, 61292, Control_c, 10, 7, 80
14, 61293, Control_c, 10, 7, 80
14, 61294, Control_c, 10, 7, 79
14, 61295, Control_c, 10, 7, 79
14, 61296, Control_c, 10, 7, 79
14, 61297, Control_c, 10, 7, 78
14, 61298, Control_c, 10, 7, 78
14, 61299, Control_c, 10, 7, 78
14, 61300, Control_c, 10, 7, 77
14, 61301, Control_c, 10, 7, 77
14, 61302, Control_c, 10, 7, 77
14, 61303, Control_c, 10, 7, 76
14, 61304, Control_c, 10, 7, 76
14, 61305, Control_c, 10, 7, 76
14, 61306, Control_c, 10, 7, 75
14, 61307, Control_c, 10, 7, 75
14, 61308, Control_c, 10, 7, 75
14, 61309, Control_c, 10, 7, 74
14, 61310, Control_c, 10, 7, 74
14, 61311, Control_c, 10, 7, 74
14, 61312, Control_c, 10, 7, 73
14, 61313, Control_c, 10, 7, 73
14, 61314, Control_c, 10, 7, 73
14, 61315, Control_c, 10, 7, 72
14, 61316, Control_c, 10, 7, 72
14, 61317, Control_c, 10, 7, 72
14, 61318, Control_c, 10, 7, 71
14, 61319, Control_c, 10, 7, 71
14, 61320, Control_c, 10, 7, 71
14, 61321, Control_c, 10, 7, 70
14, 61322, Control_c, 10, 7, 70
14, 61323, Control_c, 10, 7, 70
14, 61324, Control_c, 10, 7, 69
14, 61325, Control_c, 10, 7, 69
14, 61326, Control_c, 10, 7, 69
14, 61327, Control_c, 10, 7, 68
14, 61328, Control_c, 10, 7, 68
14, 61329, Control_c, 10, 7, 68
14, 61330, Control_c, 10, 7, 67
14, 61331, Control_c, 10, 7, 67
14, 61332, Control_c, 10, 7, 67
14, 61333, Control_c, 10, 7, 66
14, 61334, Control_c, 10, 7, 66
14, 61335, Control_c, 10, 7, 66
14, 61336, Control_c, 10, 7, 65
14, 61337, Control_c, 10, 7, 65
14, 61338, Control_c, 10, 7, 65
14, 61339, Control_c, 10, 7, 64
14, 61340, Control_c, 10, 7, 64
14, 61341, Control_c, 10, 7, 64
14, 61342, Control_c, 10, 7, 63
14, 61343, Control_c, 10, 7, 63
14, 61344, Note_off_c, 10, 27, 64
14, 61344, Note_off_c, 10, 51, 64
14, 61344, Note_off_c, 10, 39, 64
14, 61344, Control_c, 10, 7, 64
14, 61344, Note_on_c, 10, 39, 127
14, 61344, Note_on_c, 10, 51, 127
14, 61344, Note_on_c, 10, 27, 127
14, 61345, Control_c, 10, 7, 64
14, 61346, Control_c, 10, 7, 65
14, 61347, Control_c, 10, 7, 65
14, 61348, Control_c, 10, 7, 66
14, 61349, Control_c, 10, 7, 66
14, 61350, Control_c, 10, 7, 67
14, 61351, Control_c, 10, 7, 67
14, 61352, Control_c, 10, 7, 68
14, 61353, Control_c, 10, 7, 68
14, 61354, Control_c, 10, 7, 69
14, 61355, Control_c, 10, 7, 69
14, 61356, Control_c, 10, 7, 70
14, 61357, Control_c, 10, 7, 70
14, 61358, Control_c, 10, 7, 71
14, 61359, Control_c, 10, 7, 71
14, 61360, Control_c, 10, 7, 72
14, 61361, Control_c, 10, 7, 72
14, 61362, Control_c, 10, 7, 73
14, 61363, Control_c, 10, 7, 73
14, 61364, Control_c, 10, 7, 74
14, 61365, Control_c, 10, 7, 74
14, 61366, Control_c, 10, 7, 75
14, 61367, Control_c, 10, 7, 75
14, 61368, Control_c, 10, 7, 76
14, 61369, Control_c, 10, 7, 76
14, 61370, Control_c, 10, 7, 77
14, 61371, Control_c, 10, 7, 77
14, 61372, Control_c, 10, 7, 78
14, 61373, Control_c, 10, 7, 78
14, 61374, Control_c, 10, 7, 79
14, 61375, Control_c, 10, 7, 79
14, 61376, Control_c, 10, 7, 80
14, 61377, Control_c, 10, 7, 80
14, 61378, Control_c, 10, 7, 81
14, 61379, Control_c, 10, 7, 81
14, 61380, Control_c, 10, 7, 82
14, 61381, Control_c, 10, 7, 82
14, 61382, Control_c, 10, 7, 83
14, 61383, Control_c, 10, 7, 83
14, 61384, Control_c, 10, 7, 84
14, 61385, Control_c, 10, 7, 84
14, 61386, Control_c, 10, 7, 85
14, 61387, Control_c, 10, 7, 85
14, 61388, Control_c, 10, 7, 86
14, 61389, Control_c, 10, 7, 86
14, 61390, Control_c, 10, 7, 87
14, 61391, Control_c, 10, 7, 87
14, 61392, Control_c, 10, 7, 88
14, 61393, Control_c, 10, 7, 88
14, 61394, Control_c, 10, 7, 89
14, 61395, Control_c, 10, 7, 89
14, 61396, Control_c, 10, 7, 90
14, 61397, Control_c, 10, 7, 90
14, 61398, Control_c, 10, 7, 91
14, 61399, Control_c, 10, 7, 91
14, 61400, Control_c, 10, 7, 92
14, 61401, Control_c, 10, 7, 92
14, 61402, Control_c, 10, 7, 93
14, 61403, Control_c, 10, 7, 93
14, 61404, Control_c, 10, 7, 94
14, 61405, Control_c, 10, 7, 94
14, 61406, Control_c, 10, 7, 95
14, 61407, Control_c, 10, 7, 95
14, 61408, Control_c, 10, 7, 96
14, 61409, Control_c, 10, 7, 96
14, 61410, Control_c, 10, 7, 97
14, 61411, Control_c, 10, 7, 97
14, 61412, Control_c, 10, 7, 98
14, 61413, Control_c, 10, 7, 98
14, 61414, Control_c, 10, 7, 99
14, 61415, Control_c, 10, 7, 99
14, 61416, Control_c, 10, 7, 100
14, 61417, Control_c, 10, 7, 100
14, 61418, Control_c, 10, 7, 101
14, 61419, Control_c, 10, 7, 101
14, 61420, Control_c, 10, 7, 102
14, 61421, Control_c, 10, 7, 102
14, 61422, Control_c, 10, 7, 103
14, 61423, Control_c, 10, 7, 103
14, 61424, Control_c, 10, 7, 104
14, 61425, Control_c, 10, 7, 104
14, 61426, Control_c, 10, 7, 105
14, 61427, Control_c, 10, 7, 105
14, 61428, Control_c, 10, 7, 106
14, 61429, Control_c, 10, 7, 106
14, 61430, Control_c, 10, 7, 107
14, 61431, Control_c, 10, 7, 107
14, 61432, Control_c, 10, 7, 108
14, 61433, Control_c, 10, 7, 108
14, 61434, Control_c, 10, 7, 109
14, 61435, Control_c, 10, 7, 109
14, 61436, Control_c, 10, 7, 110
14, 61437, Control_c, 10, 7, 110
14, 61438, Control_c, 10, 7, 111
14, 61439, Control_c, 10, 7, 111
14, 61440, Note_off_c, 10, 27, 64
14, 61440, Note_off_c, 10, 51, 64
14, 61440, Note_off_c, 10, 39, 64
14, 61440, Control_c, 10, 7, 112
14, 61440, Note_on_c, 10, 39, 127
14, 61440, Note_on_c, 10, 51, 127
14, 61440, Note_on_c, 10, 27, 127
14, 61441, Control_c, 10, 7, 64
14, 61442, Control_c, 10, 7, 65
14, 61443, Control_c, 10, 7, 66
14, 61444, Control_c, 10, 7, 67
14, 61445, Control_c, 10, 7, 68
14, 61446, Control_c, 10, 7, 69
14, 61447, Control_c, 10, 7, 69
14, 61448, Control_c, 10, 7, 70
14, 61449, Control_c, 10, 7, 71
14, 61450, Control_c, 10, 7, 72
14, 61451, Control_c, 10, 7, 73
14, 61452, Control_c, 10, 7, 74
14, 61453, Control_c, 10, 7, 75
14, 61454, Control_c, 10, 7, 76
14, 61455, Control_c, 10, 7, 77
14, 61456, Control_c, 10, 7, 78
14, 61457, Control_c, 10, 7, 79
14, 61458, Control_c, 10, 7, 80
14, 61459, Control_c, 10, 7, 81
14, 61460, Control_c, 10, 7, 82
14, 61461, Control_c, 10, 7, 83
14, 61462, Control_c, 10, 7, 85
14, 61463, Control_c, 10, 7, 86
14, 61464, Control_c, 10, 7, 87
14, 61465, Control_c, 10, 7, 88
14, 61466, Control_c, 10, 7, 89
14, 61467, Control_c, 10, 7, 90
14, 61468, Control_c, 10, 7, 91
14, 61469, Control_c, 10, 7, 92
14, 61470, Control_c, 10, 7, 93
14, 61471, Control_c, 10, 7, 94
14, 61472, Control_c, 10, 7, 95
14, 61473, Control_c, 10, 7, 96
14, 61474, Control_c, 10, 7, 97
14, 61475, Control_c, 10, 7, 98
14, 61476, Control_c, 10, 7, 99
14, 61477, Control_c, 10, 7, 100
14, 61478, Control_c, 10, 7, 102
14, 61479, Control_c, 10, 7, 103
14, 61480, Control_c, 10, 7, 104
14, 61481, Control_c, 10, 7, 105
14, 61482, Control_c, 10, 7, 106
14, 61483, Control_c, 10, 7, 107
14, 61484, Control_c, 10, 7, 108
14, 61485, Control_c, 10, 7, 109
14, 61486, Control_c, 10, 7, 110
14, 61487, Control_c, 10, 7, 111
14, 61488, Note_off_c, 10, 27, 64
14, 61488, Note_off_c, 10, 51, 64
14, 61488, Note_off_c, 10, 39, 64
14, 61488, Control_c, 10, 7, 65
14, 61488, Note_on_c, 10, 39, 127
14, 61488, Note_on_c, 10, 51, 127
14, 61488, Note_on_c, 10, 27, 127
14, 61489, Control_c, 10, 7, 66
14, 61490, Control_c, 10, 7, 67
14, 61491, Control_c, 10, 7, 67
14, 61492, Control_c, 10, 7, 68
14, 61493, Control_c, 10, 7, 69
14, 61494, Control_c, 10, 7, 70
14, 61495, Control_c, 10, 7, 71
14, 61496, Control_c, 10, 7, 72
14, 61497, Control_c, 10, 7, 73
14, 61498, Control_c, 10, 7, 74
14, 61499, Control_c, 10, 7, 75
14, 61500, Control_c, 10, 7, 76
14, 61501, Control_c, 10, 7, 77
14, 61502, Control_c, 10, 7, 78
14, 61503, Control_c, 10, 7, 79
14, 61504, Control_c, 10, 7, 80
14, 61505, Control_c, 10, 7, 81
14, 61506, Control_c, 10, 7, 82
14, 61507, Control_c, 10, 7, 83
14, 61508, Control_c, 10, 7, 84
14, 61509, Control_c, 10, 7, 85
14, 61510, Control_c, 10, 7, 86
14, 61511, Control_c, 10, 7, 87
14, 61512, Control_c, 10, 7, 88
14, 61513, Control_c, 10, 7, 89
14, 61514, Control_c, 10, 7, 89
14, 61515, Control_c, 10, 7, 90
14, 61516, Control_c, 10, 7, 91
14, 61517, Control_c, 10, 7, 92
14, 61518, Control_c, 10, 7, 93
14, 61519, Control_c, 10, 7, 94
14, 61520, Control_c, 10, 7, 95
14, 61521, Control_c, 10, 7, 96
14, 61522, Control_c, 10, 7, 97
14, 61523, Control_c, 10, 7, 98
14, 61524, Control_c, 10, 7, 99
14, 61525, Control_c, 10, 7, 100
14, 61526, Control_c, 10, 7, 101
14, 61527, Control_c, 10, 7, 102
14, 61528, Control_c, 10, 7, 103
14, 61529, Control_c, 10, 7, 104
14, 61530, Control_c, 10, 7, 105
14, 61531, Control_c, 10, 7, 106
14, 61532, Control_c, 10, 7, 107
14, 61533, Control_c, 10, 7, 108
14, 61534, Control_c, 10, 7, 109
14, 61535, Control_c, 10, 7, 110
14, 61536, Note_off_c, 10, 27, 64
14, 61536, Note_off_c, 10, 51, 64
14, 61536, Note_off_c, 10, 39, 64
14, 61536, Control_c, 10, 7, 64
14, 61536, Note_on_c, 10, 39, 127
14, 61536, Note_on_c, 10, 51, 127
14, 61536, Note_on_c, 10, 27, 127
14, 61537, Control_c, 10, 7, 65
14, 61538, Control_c, 10, 7, 65
14, 61539, Control_c, 10, 7, 66
14, 61540, Control_c, 10, 7, 67
14, 61541, Control_c, 10, 7, 68
14, 61542, Control_c, 10, 7, 69
14, 61543, Control_c, 10, 7, 70
14, 61544, Control_c, 10, 7, 70
14, 61545, Control_c, 10, 7, 71
14, 61546, Control_c, 10, 7, 72
14, 61547, Control_c, 10, 7, 73
14, 61548, Control_c, 10, 7, 74
14, 61549, Control_c, 10, 7, 75
14, 61550, Control_c, 10, 7, 76
14, 61551, Control_c, 10, 7, 77
14, 61552, Control_c, 10, 7, 78
14, 61553, Control_c, 10, 7, 79
14, 61554, Control_c, 10, 7, 80
14, 61555, Control_c, 10, 7, 81
14, 61556, Control_c, 10, 7, 82
14, 61557, Control_c, 10, 7, 83
14, 61558, Control_c, 10, 7, 84
14, 61559, Control_c, 10, 7, 85
14, 61560, Control_c, 10, 7, 86
14, 61561, Control_c, 10, 7, 88
14, 61562, Control_c, 10, 7, 89
14, 61563, Control_c, 10, 7, 90
14, 61564, Control_c, 10, 7, 91
14, 61565, Control_c, 10, 7, 92
14, 61566, Control_c, 10, 7, 93
14, 61567, Control_c, 10, 7, 94
14, 61568, Control_c, 10, 7, 95
14, 61569, Control_c, 10, 7, 96
14, 61570, Control_c, 10, 7, 97
14, 61571, Control_c, 10, 7, 98
14, 61572, Control_c, 10, 7, 99
14, 61573, Control_c, 10, 7, 100
14, 61574, Control_c, 10, 7, 101
14, 61575, Control_c, 10, 7, 102
14, 61576, Control_c, 10, 7, 103
14, 61577, Control_c, 10, 7, 104
14, 61578, Control_c, 10, 7, 105
14, 61579, Control_c, 10, 7, 106
14, 61580, Control_c, 10, 7, 107
14, 61581, Control_c, 10, 7, 108
14, 61582, Control_c, 10, 7, 109
14, 61583, Control_c, 10, 7, 110
14, 61584, Note_off_c, 10, 27, 64
14, 61584, Note_off_c, 10, 51, 64
14, 61584, Note_off_c, 10, 39, 64
14, 61584, Control_c, 10, 7, 66
14, 61584, Note_on_c, 10, 39, 127
14, 61584, Note_on_c, 10, 51, 127
14, 61584, Note_on_c, 10, 27, 127
14, 61585, Control_c, 10, 7, 67
14, 61586, Control_c, 10, 7, 68
14, 61587, Control_c, 10, 7, 69
14, 61588, Control_c, 10, 7, 69
14, 61589, Control_c, 10, 7, 70
14, 61590, Control_c, 10, 7, 71
14, 61591, Control_c, 10, 7, 72
14, 61592, Control_c, 10, 7, 73
14, 61593, Control_c, 10, 7, 74
14, 61594, Control_c, 10, 7, 75
14, 61595, Control_c, 10, 7, 76
14, 61596, Control_c, 10, 7, 77
14, 61597, Control_c, 10, 7, 77
14, 61598, Control_c, 10, 7, 78
14, 61599, Control_c, 10, 7, 79
14, 61600, Control_c, 10, 7, 80
14, 61601, Control_c, 10, 7, 81
14, 61602, Control_c, 10, 7, 82
14, 61603, Control_c, 10, 7, 83
14, 61604, Control_c, 10, 7, 84
14, 61605, Control_c, 10, 7, 84
14, 61606, Control_c, 10, 7, 85
14, 61607, Control_c, 10, 7, 86
14, 61608, Control_c, 10, 7, 87
14, 61609, Control_c, 10, 7, 88
14, 61610, Control_c, 10, 7, 89
14, 61611, Control_c, 10, 7, 90
14, 61612, Control_c, 10, 7, 91
14, 61613, Control_c, 10, 7, 91
14, 61614, Control_c, 10, 7, 92
14, 61615, Control_c, 10, 7, 93
14, 61616, Control_c, 10, 7, 94
14, 61617, Control_c, 10, 7, 95
14, 61618, Control_c, 10, 7, 96
14, 61619, Control_c, 10, 7, 97
14, 61620, Control_c, 10, 7, 98
14, 61621, Control_c, 10, 7, 98
14, 61622, Control_c, 10, 7, 99
14, 61623, Control_c, 10, 7, 100
14, 61624, Control_c, 10, 7, 101
14, 61625, Control_c, 10, 7, 102
14, 61626, Control_c, 10, 7, 103
14, 61627, Control_c, 10, 7, 104
14, 61628, Control_c, 10, 7, 104
14, 61629, Control_c, 10, 7, 105
14, 61630, Control_c, 10, 7, 106
14, 61631, Control_c, 10, 7, 107
14, 61632, Note_off_c, 10, 27, 64
14, 61632, Note_off_c, 10, 51, 64
14, 61632, Note_off_c, 10, 39, 64
14, 61632, Control_c, 10, 7, 67
14, 61632, Note_on_c, 10, 39, 127
14, 61632, Note_on_c, 10, 51, 127
14, 61632, Note_on_c, 10, 27, 127
14, 61633, Control_c, 10, 7, 68
14, 61634, Control_c, 10, 7, 69
14, 61635, Control_c, 10, 7, 70
14, 61636, Control_c, 10, 7, 71
14, 61637, Control_c, 10, 7, 72
14, 61638, Control_c, 10, 7, 73
14, 61639, Control_c, 10, 7, 74
14, 61640, Control_c, 10, 7, 75
14, 61641, Control_c, 10, 7, 75
14, 61642, Control_c, 10, 7, 76
14, 61643, Control_c, 10, 7, 77
14, 61644, Control_c, 10, 7, 78
14, 61645, Control_c, 10, 7, 79
14, 61646, Control_c, 10, 7, 80
14, 61647, Control_c, 10, 7, 81
14, 61648, Control_c, 10, 7, 82
14, 61649, Control_c, 10, 7, 83
14, 61650, Control_c, 10, 7, 84
14, 61651, Control_c, 10, 7, 85
14, 61652, Control_c, 10, 7, 86
14, 61653, Control_c, 10, 7, 87
14, 61654, Control_c, 10, 7, 88
14, 61655, Control_c, 10, 7, 89
14, 61656, Control_c, 10, 7, 90
14, 61657, Control_c, 10, 7, 90
14, 61658, Control_c, 10, 7, 91
14, 61659, Control_c, 10, 7, 92
14, 61660, Control_c, 10, 7, 93
14, 61661, Control_c, 10, 7, 94
14, 61662, Control_c, 10, 7, 95
14, 61663, Control_c, 10, 7, 96
14, 61664, Control_c, 10, 7, 97
14, 61665, Control_c, 10, 7, 98
14, 61666, Control_c, 10, 7, 99
14, 61667, Control_c, 10, 7, 100
14, 61668, Control_c, 10, 7, 101
14, 61669, Control_c, 10, 7, 102
14, 61670, Control_c, 10, 7, 103
14, 61671, Control_c, 10, 7, 104
14, 61672, Control_c, 10, 7, 105
14, 61673, Control_c, 10, 7, 106
14, 61674, Control_c, 10, 7, 106
14, 61675, Control_c, 10, 7, 107
14, 61676, Control_c, 10, 7, 108
14, 61677, Control_c, 10, 7, 109
14, 61678, Control_c, 10, 7, 110
14, 61679, Control_c, 10, 7, 111
14, 61680, Note_off_c, 10, 27, 64
14, 61680, Note_off_c, 10, 51, 64
14, 61680, Note_off_c, 10, 39, 64
14, 61680, Control_c, 10, 7, 61
14, 61680, Note_on_c, 10, 39, 127
14, 61680, Note_on_c, 10, 51, 127
14, 61680, Note_on_c, 10, 27, 127
14, 61681, Control_c, 10, 7, 62
14, 61682, Control_c, 10, 7, 63
14, 61683, Control_c, 10, 7, 64
14, 61684, Control_c, 10, 7, 65
14, 61685, Control_c, 10, 7, 66
14, 61686, Control_c, 10, 7, 67
14, 61687, Control_c, 10, 7, 68
14, 61688, Control_c, 10, 7, 70
14, 61689, Control_c, 10, 7, 71
14, 61690, Control_c, 10, 7, 72
14, 61691, Control_c, 10, 7, 73
14, 61692, Control_c, 10, 7, 74
14, 61693, Control_c, 10, 7, 75
14, 61694, Control_c, 10, 7, 76
14, 61695, Control_c, 10, 7, 78
14, 61696, Control_c, 10, 7, 79
14, 61697, Control_c, 10, 7, 80
14, 61698, Control_c, 10, 7, 81
14, 61699, Control_c, 10, 7, 82
14, 61700, Control_c, 10, 7, 83
14, 61701, Control_c, 10, 7, 84
14, 61702, Control_c, 10, 7, 85
14, 61703, Control_c, 10, 7, 87
14, 61704, Control_c, 10, 7, 88
14, 61705, Control_c, 10, 7, 89
14, 61706, Control_c, 10, 7, 90
14, 61707, Control_c, 10, 7, 91
14, 61708, Control_c, 10, 7, 92
14, 61709, Control_c, 10, 7, 93
14, 61710, Control_c, 10, 7, 95
14, 61711, Control_c, 10, 7, 96
14, 61712, Control_c, 10, 7, 97
14, 61713, Control_c, 10, 7, 98
14, 61714, Control_c, 10, 7, 99
14, 61715, Control_c, 10, 7, 100
14, 61716, Control_c, 10, 7, 101
14, 61717, Control_c, 10, 7, 102
14, 61718, Control_c, 10, 7, 104
14, 61719, Control_c, 10, 7, 105
14, 61720, Control_c, 10, 7, 106
14, 61721, Control_c, 10, 7, 107
14, 61722, Control_c, 10, 7, 108
14, 61723, Control_c, 10, 7, 110
14, 61724, Control_c, 10, 7, 111
14, 61725, Control_c, 10, 7, 112
14, 61726, Control_c, 10, 7, 113
14, 61727, Control_c, 10, 7, 114
14, 61728, Note_off_c, 10, 27, 64
14, 61728, Note_off_c, 10, 51, 64
14, 61728, Note_off_c, 10, 39, 64
14, 61728, Control_c, 10, 7, 65
14, 61728, Note_on_c, 10, 39, 127
14, 61728, Note_on_c, 10, 51, 127
14, 61728, Note_on_c, 10, 27, 127
14, 61729, Control_c, 10, 7, 66
14, 61730, Control_c, 10, 7, 67
14, 61731, Control_c, 10, 7, 68
14, 61732, Control_c, 10, 7, 70
14, 61733, Control_c, 10, 7, 71
14, 61734, Control_c, 10, 7, 72
14, 61735, Control_c, 10, 7, 73
14, 61736, Control_c, 10, 7, 74
14, 61737, Control_c, 10, 7, 75
14, 61738, Control_c, 10, 7, 76
14, 61739, Control_c, 10, 7, 77
14, 61740, Control_c, 10, 7, 78
14, 61741, Control_c, 10, 7, 79
14, 61742, Control_c, 10, 7, 80
14, 61743, Control_c, 10, 7, 81
14, 61744, Control_c, 10, 7, 82
14, 61745, Control_c, 10, 7, 83
14, 61746, Control_c, 10, 7, 84
14, 61747, Control_c, 10, 7, 85
14, 61748, Control_c, 10, 7, 86
14, 61749, Control_c, 10, 7, 88
14, 61750, Control_c, 10, 7, 89
14, 61751, Control_c, 10, 7, 90
14, 61752, Control_c, 10, 7, 91
14, 61753, Control_c, 10, 7, 92
14, 61754, Control_c, 10, 7, 93
14, 61755, Control_c, 10, 7, 94
14, 61756, Control_c, 10, 7, 95
14, 61757, Control_c, 10, 7, 96
14, 61758, Control_c, 10, 7, 97
14, 61759, Control_c, 10, 7, 98
14, 61760, Control_c, 10, 7, 99
14, 61761, Control_c, 10, 7, 100
14, 61762, Control_c, 10, 7, 101
14, 61763, Control_c, 10, 7, 102
14, 61764, Control_c, 10, 7, 103
14, 61765, Control_c, 10, 7, 105
14, 61766, Control_c, 10, 7, 106
14, 61767, Control_c, 10, 7, 107
14, 61768, Control_c, 10, 7, 108
14, 61769, Control_c, 10, 7, 109
14, 61770, Control_c, 10, 7, 109
14, 61771, Control_c, 10, 7, 110
14, 61772, Control_c, 10, 7, 112
14, 61773, Control_c, 10, 7, 113
14, 61774, Control_c, 10, 7, 114
14, 61775, Control_c, 10, 7, 115
14, 61776, Note_off_c, 10, 27, 64
14, 61776, Note_off_c, 10, 51, 64
14, 61776, Note_off_c, 10, 39, 64
14, 61776, Control_c, 10, 7, 67
14, 61776, Note_on_c, 10, 39, 127
14, 61776, Note_on_c, 10, 51, 127
14, 61776, Note_on_c, 10, 27, 127
14, 61777, Control_c, 10, 7, 68
14, 61778, Control_c, 10, 7, 69
14, 61779, Control_c, 10, 7, 70
14, 61780, Control_c, 10, 7, 71
14, 61781, Control_c, 10, 7, 71
14, 61782, Control_c, 10, 7, 72
14, 61783, Control_c, 10, 7, 73
14, 61784, Control_c, 10, 7, 74
14, 61785, Control_c, 10, 7, 75
14, 61786, Control_c, 10, 7, 76
14, 61787, Control_c, 10, 7, 77
14, 61788, Control_c, 10, 7, 78
14, 61789, Control_c, 10, 7, 79
14, 61790, Control_c, 10, 7, 80
14, 61791, Control_c, 10, 7, 81
14, 61792, Control_c, 10, 7, 82
14, 61793, Control_c, 10, 7, 83
14, 61794, Control_c, 10, 7, 84
14, 61795, Control_c, 10, 7, 85
14, 61796, Control_c, 10, 7, 86
14, 61797, Control_c, 10, 7, 87
14, 61798, Control_c, 10, 7, 88
14, 61799, Control_c, 10, 7, 89
14, 61800, Control_c, 10, 7, 90
14, 61801, Control_c, 10, 7, 91
14, 61802, Control_c, 10, 7, 92
14, 61803, Control_c, 10, 7, 93
14, 61804, Control_c, 10, 7, 94
14, 61805, Control_c, 10, 7, 95
14, 61806, Control_c, 10, 7, 96
14, 61807, Control_c, 10, 7, 97
14, 61808, Control_c, 10, 7, 98
14, 61809, Control_c, 10, 7, 99
14, 61810, Control_c, 10, 7, 100
14, 61811, Control_c, 10, 7, 101
14, 61812, Control_c, 10, 7, 102
14, 61813, Control_c, 10, 7, 103
14, 61814, Control_c, 10, 7, 104
14, 61815, Control_c, 10, 7, 104
14, 61816, Control_c, 10, 7, 105
14, 61817, Control_c, 10, 7, 106
14, 61818, Control_c, 10, 7, 107
14, 61819, Control_c, 10, 7, 108
14, 61820, Control_c, 10, 7, 109
14, 61821, Control_c, 10, 7, 110
14, 61822, Control_c, 10, 7, 111
14, 61823, Control_c, 10, 7, 112
14, 61824, Note_off_c, 10, 27, 64
14, 61824, Note_off_c, 10, 51, 64
14, 61824, Note_off_c, 10, 39, 64
14, 63396, Control_c, 10, 101, 0
14, 63396, Control_c, 10, 100, 0
14, 63396, Control_c, 10, 6, 12
14, 63396, Control_c, 10, 10, 64
14, 63396, Control_c, 10, 7, 112
14, 63396, Pitch_bend_c, 10, 8192
14, 63396, Program_c, 10, 81
14, 63396, Control_c, 10, 1, 49
14, 63397, Control_c, 10, 101, 0
14, 63397, Control_c, 10, 100, 0
14, 63397, Control_c, 10, 6, 12
14, 63397, Control_c, 10, 10, 64
14, 63397, Control_c, 10, 7, 112
14, 63397, Pitch_bend_c, 10, 8192
14, 63397, Program_c, 10, 81
14, 63397, Control_c, 10, 1, 49
14, 63397, End_track
15, 0, Start_track
15, 0, Title_t, "rise fall"
15, 0, Control_c, 11, 10, 64
15, 0, Control_c, 11, 7, 112
15, 0, Pitch_bend_c, 11, 2294
15, 0, Control_c, 11, 101, 0
15, 0, Control_c, 11, 100, 0
15, 0, Control_c, 11, 6, 12
15, 0, Control_c, 11, 10, 64
15, 0, Control_c, 11, 7, 112
15, 0, Pitch_bend_c, 11, 2294
15, 0, Program_c, 11, 79
15, 0, Control_c, 11, 1, 49
15, 0, Pitch_bend_c, 11, 16383
15, 0, Control_c, 11, 7, 112
15, 0, Control_c, 11, 101, 0
15, 0, Control_c, 11, 100, 0
15, 0, Control_c, 11, 6, 12
15, 0, Control_c, 11, 10, 64
15, 0, Control_c, 11, 7, 112
15, 0, Pitch_bend_c, 11, 16383
15, 0, Program_c, 11, 79
15, 0, Control_c, 11, 1, 49
15, 0, Control_c, 11, 101, 0
15, 0, Control_c, 11, 100, 0
15, 0, Control_c, 11, 6, 12
15, 0, Control_c, 11, 10, 64
15, 0, Control_c, 11, 7, 112
15, 0, Pitch_bend_c, 11, 16383
15, 0, Program_c, 11, 79
15, 0, Control_c, 11, 1, 49
15, 2304, Note_on_c, 11, 83, 127
15, 2304, Pitch_bend_c, 11, 8124
15, 2305, Pitch_bend_c, 11, 8056
15, 2306, Pitch_bend_c, 11, 7988
15, 2307, Pitch_bend_c, 11, 7919
15, 2308, Pitch_bend_c, 11, 7851
15, 2309, Pitch_bend_c, 11, 7783
15, 2310, Pitch_bend_c, 11, 7715
15, 2311, Pitch_bend_c, 11, 7646
15, 2312, Pitch_bend_c, 11, 7585
15, 2313, Pitch_bend_c, 11, 7517
15, 2314, Pitch_bend_c, 11, 7455
15, 2315, Pitch_bend_c, 11, 7387
15, 2316, Pitch_bend_c, 11, 7326
15, 2317, Pitch_bend_c, 11, 7264
15, 2318, Pitch_bend_c, 11, 7203
15, 2319, Pitch_bend_c, 11, 7134
15, 2320, Pitch_bend_c, 11, 7073
15, 2321, Pitch_bend_c, 11, 7011
15, 2322, Pitch_bend_c, 11, 6957
15, 2323, Pitch_bend_c, 11, 6895
15, 2324, Pitch_bend_c, 11, 6834
15, 2325, Pitch_bend_c, 11, 6773
15, 2326, Pitch_bend_c, 11, 6711
15, 2327, Pitch_bend_c, 11, 6656
15, 2328, Pitch_bend_c, 11, 6595
15, 2329, Pitch_bend_c, 11, 6540
15, 2330, Pitch_bend_c, 11, 6486
15, 2331, Pitch_bend_c, 11, 6424
15, 2332, Pitch_bend_c, 11, 6370
15, 2333, Pitch_bend_c, 11, 6315
15, 2334, Pitch_bend_c, 11, 6261
15, 2335, Pitch_bend_c, 11, 6199
15, 2336, Pitch_bend_c, 11, 6144
15, 2337, Pitch_bend_c, 11, 6097
15, 2338, Pitch_bend_c, 11, 6042
15, 2339, Pitch_bend_c, 11, 5987
15, 2340, Pitch_bend_c, 11, 5933
15, 2341, Pitch_bend_c, 11, 5878
15, 2342, Pitch_bend_c, 11, 5830
15, 2343, Pitch_bend_c, 11, 5776
15, 2344, Pitch_bend_c, 11, 5721
15, 2345, Pitch_bend_c, 11, 5673
15, 2346, Pitch_bend_c, 11, 5626
15, 2347, Pitch_bend_c, 11, 5571
15, 2348, Pitch_bend_c, 11, 5523
15, 2349, Pitch_bend_c, 11, 5475
15, 2350, Pitch_bend_c, 11, 5421
15, 2351, Pitch_bend_c, 11, 5373
15, 2352, Pitch_bend_c, 11, 5325
15, 2353, Pitch_bend_c, 11, 5278
15, 2354, Pitch_bend_c, 11, 5230
15, 2355, Pitch_bend_c, 11, 5182
15, 2356, Pitch_bend_c, 11, 5134
15, 2357, Pitch_bend_c, 11, 5086
15, 2358, Pitch_bend_c, 11, 5045
15, 2359, Pitch_bend_c, 11, 4998
15, 2360, Pitch_bend_c, 11, 4950
15, 2361, Pitch_bend_c, 11, 4902
15, 2362, Pitch_bend_c, 11, 4861
15, 2363, Pitch_bend_c, 11, 4813
15, 2364, Pitch_bend_c, 11, 4772
15, 2365, Pitch_bend_c, 11, 4725
15, 2366, Pitch_bend_c, 11, 4684
15, 2367, Pitch_bend_c, 11, 4643
15, 2368, Pitch_bend_c, 11, 4595
15, 2369, Pitch_bend_c, 11, 4554
15, 2370, Pitch_bend_c, 11, 4513
15, 2371, Pitch_bend_c, 11, 4472
15, 2372, Pitch_bend_c, 11, 4431
15, 2373, Pitch_bend_c, 11, 4383
15, 2374, Pitch_bend_c, 11, 4342
15, 2375, Pitch_bend_c, 11, 4301
15, 2376, Pitch_bend_c, 11, 4267
15, 2377, Pitch_bend_c, 11, 4226
15, 2378, Pitch_bend_c, 11, 4185
15, 2379, Pitch_bend_c, 11, 4144
15, 2380, Pitch_bend_c, 11, 4103
15, 2381, Pitch_bend_c, 11, 4069
15, 2382, Pitch_bend_c, 11, 4028
15, 2383, Pitch_bend_c, 11, 3987
15, 2384, Pitch_bend_c, 11, 3953
15, 2385, Pitch_bend_c, 11, 3912
15, 2386, Pitch_bend_c, 11, 3878
15, 2387, Pitch_bend_c, 11, 3837
15, 2388, Pitch_bend_c, 11, 3803
15, 2389, Pitch_bend_c, 11, 3769
15, 2390, Pitch_bend_c, 11, 3728
15, 2391, Pitch_bend_c, 11, 3694
15, 2392, Pitch_bend_c, 11, 3660
15, 2393, Pitch_bend_c, 11, 3619
15, 2394, Pitch_bend_c, 11, 3584
15, 2395, Pitch_bend_c, 11, 3550
15, 2396, Pitch_bend_c, 11, 3516
15, 2397, Pitch_bend_c, 11, 3482
15, 2398, Pitch_bend_c, 11, 3448
15, 2399, Pitch_bend_c, 11, 3414
15, 2400, Pitch_bend_c, 11, 3380
15, 2401, Pitch_bend_c, 11, 3346
15, 2402, Pitch_bend_c, 11, 3311
15, 2403, Pitch_bend_c, 11, 3277
15, 2404, Pitch_bend_c, 11, 3243
15, 2405, Pitch_bend_c, 11, 3216
15, 2406, Pitch_bend_c, 11, 3182
15, 2407, Pitch_bend_c, 11, 3148
15, 2408, Pitch_bend_c, 11, 3120
15, 2409, Pitch_bend_c, 11, 3086
15, 2410, Pitch_bend_c, 11, 3059
15, 2411, Pitch_bend_c, 11, 3025
15, 2412, Pitch_bend_c, 11, 2991
15, 2413, Pitch_bend_c, 11, 2963
15, 2414, Pitch_bend_c, 11, 2929
15, 2415, Pitch_bend_c, 11, 2902
15, 2416, Pitch_bend_c, 11, 2875
15, 2417, Pitch_bend_c, 11, 2840
15, 2418, Pitch_bend_c, 11, 2813
15, 2419, Pitch_bend_c, 11, 2786
15, 2420, Pitch_bend_c, 11, 2752
15, 2421, Pitch_bend_c, 11, 2724
15, 2422, Pitch_bend_c, 11, 2697
15, 2423, Pitch_bend_c, 11, 2670
15, 2424, Pitch_bend_c, 11, 2642
15, 2425, Pitch_bend_c, 11, 2615
15, 2426, Pitch_bend_c, 11, 2588
15, 2427, Pitch_bend_c, 11, 2560
15, 2428, Pitch_bend_c, 11, 2533
15, 2429, Pitch_bend_c, 11, 2506
15, 2430, Pitch_bend_c, 11, 2479
15, 2431, Pitch_bend_c, 11, 2451
15, 2432, Pitch_bend_c, 11, 2424
15, 2433, Pitch_bend_c, 11, 2397
15, 2434, Pitch_bend_c, 11, 2369
15, 2435, Pitch_bend_c, 11, 2342
15, 2436, Pitch_bend_c, 11, 2322
15, 2437, Pitch_bend_c, 11, 2294
15, 2438, Pitch_bend_c, 11, 2267
15, 2439, Pitch_bend_c, 11, 2240
15, 2440, Pitch_bend_c, 11, 2219
15, 2441, Pitch_bend_c, 11, 2192
15, 2442, Pitch_bend_c, 11, 2171
15, 2443, Pitch_bend_c, 11, 2144
15, 2444, Pitch_bend_c, 11, 2124
15, 2445, Pitch_bend_c, 11, 2096
15, 2446, Pitch_bend_c, 11, 2076
15, 2447, Pitch_bend_c, 11, 2048
15, 2448, Note_off_c, 11, 83, 64
15, 2448, Note_on_c, 11, 74, 127
15, 2448, Pitch_bend_c, 11, 8124
15, 2449, Pitch_bend_c, 11, 8056
15, 2450, Pitch_bend_c, 11, 7988
15, 2451, Pitch_bend_c, 11, 7919
15, 2452, Pitch_bend_c, 11, 7851
15, 2453, Pitch_bend_c, 11, 7783
15, 2454, Pitch_bend_c, 11, 7715
15, 2455, Pitch_bend_c, 11, 7646
15, 2456, Pitch_bend_c, 11, 7585
15, 2457, Pitch_bend_c, 11, 7517
15, 2458, Pitch_bend_c, 11, 7455
15, 2459, Pitch_bend_c, 11, 7387
15, 2460, Pitch_bend_c, 11, 7326
15, 2461, Pitch_bend_c, 11, 7264
15, 2462, Pitch_bend_c, 11, 7203
15, 2463, Pitch_bend_c, 11, 7134
15, 2464, Pitch_bend_c, 11, 7073
15, 2465, Pitch_bend_c, 11, 7011
15, 2466, Pitch_bend_c, 11, 6957
15, 2467, Pitch_bend_c, 11, 6895
15, 2468, Pitch_bend_c, 11, 6834
15, 2469, Pitch_bend_c, 11, 6773
15, 2470, Pitch_bend_c, 11, 6711
15, 2471, Pitch_bend_c, 11, 6656
15, 2472, Pitch_bend_c, 11, 6595
15, 2473, Pitch_bend_c, 11, 6540
15, 2474, Pitch_bend_c, 11, 6486
15, 2475, Pitch_bend_c, 11, 6424
15, 2476, Pitch_bend_c, 11, 6370
15, 2477, Pitch_bend_c, 11, 6315
15, 2478, Pitch_bend_c, 11, 6261
15, 2479, Pitch_bend_c, 11, 6199
15, 2480, Pitch_bend_c, 11, 6144
15, 2481, Pitch_bend_c, 11, 6097
15, 2482, Pitch_bend_c, 11, 6042
15, 2483, Pitch_bend_c, 11, 5987
15, 2484, Pitch_bend_c, 11, 5933
15, 2485, Pitch_bend_c, 11, 5878
15, 2486, Pitch_bend_c, 11, 5830
15, 2487, Pitch_bend_c, 11, 5776
15, 2488, Pitch_bend_c, 11, 5721
15, 2489, Pitch_bend_c, 11, 5673
15, 2490, Pitch_bend_c, 11, 5626
15, 2491, Pitch_bend_c, 11, 5571
15, 2492, Pitch_bend_c, 11, 5523
15, 2493, Pitch_bend_c, 11, 5475
15, 2494, Pitch_bend_c, 11, 5421
15, 2495, Pitch_bend_c, 11, 5373
15, 2496, Pitch_bend_c, 11, 5325
15, 2497, Pitch_bend_c, 11, 5278
15, 2498, Pitch_bend_c, 11, 5230
15, 2499, Pitch_bend_c, 11, 5182
15, 2500, Pitch_bend_c, 11, 5134
15, 2501, Pitch_bend_c, 11, 5086
15, 2502, Pitch_bend_c, 11, 5045
15, 2503, Pitch_bend_c, 11, 4998
15, 2504, Pitch_bend_c, 11, 4950
15, 2505, Pitch_bend_c, 11, 4902
15, 2506, Pitch_bend_c, 11, 4861
15, 2507, Pitch_bend_c, 11, 4813
15, 2508, Pitch_bend_c, 11, 4772
15, 2509, Pitch_bend_c, 11, 4725
15, 2510, Pitch_bend_c, 11, 4684
15, 2511, Pitch_bend_c, 11, 4643
15, 2512, Pitch_bend_c, 11, 4595
15, 2513, Pitch_bend_c, 11, 4554
15, 2514, Pitch_bend_c, 11, 4513
15, 2515, Pitch_bend_c, 11, 4472
15, 2516, Pitch_bend_c, 11, 4431
15, 2517, Pitch_bend_c, 11, 4383
15, 2518, Pitch_bend_c, 11, 4342
15, 2519, Pitch_bend_c, 11, 4301
15, 2520, Pitch_bend_c, 11, 4267
15, 2521, Pitch_bend_c, 11, 4226
15, 2522, Pitch_bend_c, 11, 4185
15, 2523, Pitch_bend_c, 11, 4144
15, 2524, Pitch_bend_c, 11, 4103
15, 2525, Pitch_bend_c, 11, 4069
15, 2526, Pitch_bend_c, 11, 4028
15, 2527, Pitch_bend_c, 11, 3987
15, 2528, Pitch_bend_c, 11, 3953
15, 2529, Pitch_bend_c, 11, 3912
15, 2530, Pitch_bend_c, 11, 3878
15, 2531, Pitch_bend_c, 11, 3837
15, 2532, Pitch_bend_c, 11, 3803
15, 2533, Pitch_bend_c, 11, 3769
15, 2534, Pitch_bend_c, 11, 3728
15, 2535, Pitch_bend_c, 11, 3694
15, 2536, Pitch_bend_c, 11, 3660
15, 2537, Pitch_bend_c, 11, 3619
15, 2538, Pitch_bend_c, 11, 3584
15, 2539, Pitch_bend_c, 11, 3550
15, 2540, Pitch_bend_c, 11, 3516
15, 2541, Pitch_bend_c, 11, 3482
15, 2542, Pitch_bend_c, 11, 3448
15, 2543, Pitch_bend_c, 11, 3414
15, 2544, Pitch_bend_c, 11, 3380
15, 2545, Pitch_bend_c, 11, 3346
15, 2546, Pitch_bend_c, 11, 3311
15, 2547, Pitch_bend_c, 11, 3277
15, 2548, Pitch_bend_c, 11, 3243
15, 2549, Pitch_bend_c, 11, 3216
15, 2550, Pitch_bend_c, 11, 3182
15, 2551, Pitch_bend_c, 11, 3148
15, 2552, Pitch_bend_c, 11, 3120
15, 2553, Pitch_bend_c, 11, 3086
15, 2554, Pitch_bend_c, 11, 3059
15, 2555, Pitch_bend_c, 11, 3025
15, 2556, Pitch_bend_c, 11, 2991
15, 2557, Pitch_bend_c, 11, 2963
15, 2558, Pitch_bend_c, 11, 2929
15, 2559, Pitch_bend_c, 11, 2902
15, 2560, Pitch_bend_c, 11, 2875
15, 2561, Pitch_bend_c, 11, 2840
15, 2562, Pitch_bend_c, 11, 2813
15, 2563, Pitch_bend_c, 11, 2786
15, 2564, Pitch_bend_c, 11, 2752
15, 2565, Pitch_bend_c, 11, 2724
15, 2566, Pitch_bend_c, 11, 2697
15, 2567, Pitch_bend_c, 11, 2670
15, 2568, Pitch_bend_c, 11, 2642
15, 2569, Pitch_bend_c, 11, 2615
15, 2570, Pitch_bend_c, 11, 2588
15, 2571, Pitch_bend_c, 11, 2560
15, 2572, Pitch_bend_c, 11, 2533
15, 2573, Pitch_bend_c, 11, 2506
15, 2574, Pitch_bend_c, 11, 2479
15, 2575, Pitch_bend_c, 11, 2451
15, 2576, Pitch_bend_c, 11, 2424
15, 2577, Pitch_bend_c, 11, 2397
15, 2578, Pitch_bend_c, 11, 2369
15, 2579, Pitch_bend_c, 11, 2342
15, 2580, Pitch_bend_c, 11, 2322
15, 2581, Pitch_bend_c, 11, 2294
15, 2582, Pitch_bend_c, 11, 2267
15, 2583, Pitch_bend_c, 11, 2240
15, 2584, Pitch_bend_c, 11, 2219
15, 2585, Pitch_bend_c, 11, 2192
15, 2586, Pitch_bend_c, 11, 2171
15, 2587, Pitch_bend_c, 11, 2144
15, 2588, Pitch_bend_c, 11, 2124
15, 2589, Pitch_bend_c, 11, 2096
15, 2590, Pitch_bend_c, 11, 2076
15, 2591, Pitch_bend_c, 11, 2048
15, 2592, Note_off_c, 11, 74, 64
15, 2592, Note_on_c, 11, 65, 127
15, 2592, Pitch_bend_c, 11, 8124
15, 2593, Pitch_bend_c, 11, 8056
15, 2594, Pitch_bend_c, 11, 7988
15, 2595, Pitch_bend_c, 11, 7919
15, 2596, Pitch_bend_c, 11, 7851
15, 2597, Pitch_bend_c, 11, 7783
15, 2598, Pitch_bend_c, 11, 7715
15, 2599, Pitch_bend_c, 11, 7646
15, 2600, Pitch_bend_c, 11, 7585
15, 2601, Pitch_bend_c, 11, 7517
15, 2602, Pitch_bend_c, 11, 7455
15, 2603, Pitch_bend_c, 11, 7387
15, 2604, Pitch_bend_c, 11, 7326
15, 2605, Pitch_bend_c, 11, 7264
15, 2606, Pitch_bend_c, 11, 7203
15, 2607, Pitch_bend_c, 11, 7134
15, 2608, Pitch_bend_c, 11, 7073
15, 2609, Pitch_bend_c, 11, 7011
15, 2610, Pitch_bend_c, 11, 6957
15, 2611, Pitch_bend_c, 11, 6895
15, 2612, Pitch_bend_c, 11, 6834
15, 2613, Pitch_bend_c, 11, 6773
15, 2614, Pitch_bend_c, 11, 6711
15, 2615, Pitch_bend_c, 11, 6656
15, 2616, Pitch_bend_c, 11, 6595
15, 2617, Pitch_bend_c, 11, 6540
15, 2618, Pitch_bend_c, 11, 6486
15, 2619, Pitch_bend_c, 11, 6424
15, 2620, Pitch_bend_c, 11, 6370
15, 2621, Pitch_bend_c, 11, 6315
15, 2622, Pitch_bend_c, 11, 6261
15, 2623, Pitch_bend_c, 11, 6199
15, 2624, Pitch_bend_c, 11, 6144
15, 2625, Pitch_bend_c, 11, 6097
15, 2626, Pitch_bend_c, 11, 6042
15, 2627, Pitch_bend_c, 11, 5987
15, 2628, Pitch_bend_c, 11, 5933
15, 2629, Pitch_bend_c, 11, 5878
15, 2630, Pitch_bend_c, 11, 5830
15, 2631, Pitch_bend_c, 11, 5776
15, 2632, Pitch_bend_c, 11, 5721
15, 2633, Pitch_bend_c, 11, 5673
15, 2634, Pitch_bend_c, 11, 5626
15, 2635, Pitch_bend_c, 11, 5571
15, 2636, Pitch_bend_c, 11, 5523
15, 2637, Pitch_bend_c, 11, 5475
15, 2638, Pitch_bend_c, 11, 5421
15, 2639, Pitch_bend_c, 11, 5373
15, 2640, Pitch_bend_c, 11, 5325
15, 2641, Pitch_bend_c, 11, 5278
15, 2642, Pitch_bend_c, 11, 5230
15, 2643, Pitch_bend_c, 11, 5182
15, 2644, Pitch_bend_c, 11, 5134
15, 2645, Pitch_bend_c, 11, 5086
15, 2646, Pitch_bend_c, 11, 5045
15, 2647, Pitch_bend_c, 11, 4998
15, 2648, Pitch_bend_c, 11, 4950
15, 2649, Pitch_bend_c, 11, 4902
15, 2650, Pitch_bend_c, 11, 4861
15, 2651, Pitch_bend_c, 11, 4813
15, 2652, Pitch_bend_c, 11, 4772
15, 2653, Pitch_bend_c, 11, 4725
15, 2654, Pitch_bend_c, 11, 4684
15, 2655, Pitch_bend_c, 11, 4643
15, 2656, Pitch_bend_c, 11, 4595
15, 2657, Pitch_bend_c, 11, 4554
15, 2658, Pitch_bend_c, 11, 4513
15, 2659, Pitch_bend_c, 11, 4472
15, 2660, Pitch_bend_c, 11, 4431
15, 2661, Pitch_bend_c, 11, 4383
15, 2662, Pitch_bend_c, 11, 4342
15, 2663, Pitch_bend_c, 11, 4301
15, 2664, Pitch_bend_c, 11, 4267
15, 2665, Pitch_bend_c, 11, 4226
15, 2666, Pitch_bend_c, 11, 4185
15, 2667, Pitch_bend_c, 11, 4144
15, 2668, Pitch_bend_c, 11, 4103
15, 2669, Pitch_bend_c, 11, 4069
15, 2670, Pitch_bend_c, 11, 4028
15, 2671, Pitch_bend_c, 11, 3987
15, 2672, Pitch_bend_c, 11, 3953
15, 2673, Pitch_bend_c, 11, 3912
15, 2674, Pitch_bend_c, 11, 3878
15, 2675, Pitch_bend_c, 11, 3837
15, 2676, Pitch_bend_c, 11, 3803
15, 2677, Pitch_bend_c, 11, 3769
15, 2678, Pitch_bend_c, 11, 3728
15, 2679, Pitch_bend_c, 11, 3694
15, 2680, Pitch_bend_c, 11, 3660
15, 2681, Pitch_bend_c, 11, 3619
15, 2682, Pitch_bend_c, 11, 3584
15, 2683, Pitch_bend_c, 11, 3550
15, 2684, Pitch_bend_c, 11, 3516
15, 2685, Pitch_bend_c, 11, 3482
15, 2686, Pitch_bend_c, 11, 3448
15, 2687, Pitch_bend_c, 11, 3414
15, 2688, Pitch_bend_c, 11, 3380
15, 2689, Pitch_bend_c, 11, 3346
15, 2690, Pitch_bend_c, 11, 3311
15, 2691, Pitch_bend_c, 11, 3277
15, 2692, Pitch_bend_c, 11, 3243
15, 2693, Pitch_bend_c, 11, 3216
15, 2694, Pitch_bend_c, 11, 3182
15, 2695, Pitch_bend_c, 11, 3148
15, 2696, Pitch_bend_c, 11, 3120
15, 2697, Pitch_bend_c, 11, 3086
15, 2698, Pitch_bend_c, 11, 3059
15, 2699, Pitch_bend_c, 11, 3025
15, 2700, Pitch_bend_c, 11, 2991
15, 2701, Pitch_bend_c, 11, 2963
15, 2702, Pitch_bend_c, 11, 2929
15, 2703, Pitch_bend_c, 11, 2902
15, 2704, Pitch_bend_c, 11, 2875
15, 2705, Pitch_bend_c, 11, 2840
15, 2706, Pitch_bend_c, 11, 2813
15, 2707, Pitch_bend_c, 11, 2786
15, 2708, Pitch_bend_c, 11, 2752
15, 2709, Pitch_bend_c, 11, 2724
15, 2710, Pitch_bend_c, 11, 2697
15, 2711, Pitch_bend_c, 11, 2670
15, 2712, Pitch_bend_c, 11, 2642
15, 2713, Pitch_bend_c, 11, 2615
15, 2714, Pitch_bend_c, 11, 2588
15, 2715, Pitch_bend_c, 11, 2560
15, 2716, Pitch_bend_c, 11, 2533
15, 2717, Pitch_bend_c, 11, 2506
15, 2718, Pitch_bend_c, 11, 2479
15, 2719, Pitch_bend_c, 11, 2451
15, 2720, Pitch_bend_c, 11, 2424
15, 2721, Pitch_bend_c, 11, 2397
15, 2722, Pitch_bend_c, 11, 2369
15, 2723, Pitch_bend_c, 11, 2342
15, 2724, Pitch_bend_c, 11, 2322
15, 2725, Pitch_bend_c, 11, 2294
15, 2726, Pitch_bend_c, 11, 2267
15, 2727, Pitch_bend_c, 11, 2240
15, 2728, Pitch_bend_c, 11, 2219
15, 2729, Pitch_bend_c, 11, 2192
15, 2730, Pitch_bend_c, 11, 2171
15, 2731, Pitch_bend_c, 11, 2144
15, 2732, Pitch_bend_c, 11, 2124
15, 2733, Pitch_bend_c, 11, 2096
15, 2734, Pitch_bend_c, 11, 2076
15, 2735, Pitch_bend_c, 11, 2048
15, 2736, Note_off_c, 11, 65, 64
15, 2736, Note_on_c, 11, 56, 127
15, 2736, Pitch_bend_c, 11, 8124
15, 2737, Pitch_bend_c, 11, 8056
15, 2738, Pitch_bend_c, 11, 7988
15, 2739, Pitch_bend_c, 11, 7919
15, 2740, Pitch_bend_c, 11, 7851
15, 2741, Pitch_bend_c, 11, 7783
15, 2742, Pitch_bend_c, 11, 7715
15, 2743, Pitch_bend_c, 11, 7646
15, 2744, Pitch_bend_c, 11, 7585
15, 2745, Pitch_bend_c, 11, 7517
15, 2746, Pitch_bend_c, 11, 7455
15, 2747, Pitch_bend_c, 11, 7387
15, 2748, Pitch_bend_c, 11, 7326
15, 2749, Pitch_bend_c, 11, 7264
15, 2750, Pitch_bend_c, 11, 7203
15, 2751, Pitch_bend_c, 11, 7134
15, 2752, Pitch_bend_c, 11, 7073
15, 2753, Pitch_bend_c, 11, 7011
15, 2754, Pitch_bend_c, 11, 6957
15, 2755, Pitch_bend_c, 11, 6895
15, 2756, Pitch_bend_c, 11, 6834
15, 2757, Pitch_bend_c, 11, 6773
15, 2758, Pitch_bend_c, 11, 6711
15, 2759, Pitch_bend_c, 11, 6656
15, 2760, Pitch_bend_c, 11, 6595
15, 2761, Pitch_bend_c, 11, 6540
15, 2762, Pitch_bend_c, 11, 6486
15, 2763, Pitch_bend_c, 11, 6424
15, 2764, Pitch_bend_c, 11, 6370
15, 2765, Pitch_bend_c, 11, 6315
15, 2766, Pitch_bend_c, 11, 6261
15, 2767, Pitch_bend_c, 11, 6199
15, 2768, Pitch_bend_c, 11, 6144
15, 2769, Pitch_bend_c, 11, 6097
15, 2770, Pitch_bend_c, 11, 6042
15, 2771, Pitch_bend_c, 11, 5987
15, 2772, Pitch_bend_c, 11, 5933
15, 2773, Pitch_bend_c, 11, 5878
15, 2774, Pitch_bend_c, 11, 5830
15, 2775, Pitch_bend_c, 11, 5776
15, 2776, Pitch_bend_c, 11, 5721
15, 2777, Pitch_bend_c, 11, 5673
15, 2778, Pitch_bend_c, 11, 5626
15, 2779, Pitch_bend_c, 11, 5571
15, 2780, Pitch_bend_c, 11, 5523
15, 2781, Pitch_bend_c, 11, 5475
15, 2782, Pitch_bend_c, 11, 5421
15, 2783, Pitch_bend_c, 11, 5373
15, 2784, Pitch_bend_c, 11, 5325
15, 2785, Pitch_bend_c, 11, 5278
15, 2786, Pitch_bend_c, 11, 5230
15, 2787, Pitch_bend_c, 11, 5182
15, 2788, Pitch_bend_c, 11, 5134
15, 2789, Pitch_bend_c, 11, 5086
15, 2790, Pitch_bend_c, 11, 5045
15, 2791, Pitch_bend_c, 11, 4998
15, 2792, Pitch_bend_c, 11, 4950
15, 2793, Pitch_bend_c, 11, 4902
15, 2794, Pitch_bend_c, 11, 4861
15, 2795, Pitch_bend_c, 11, 4813
15, 2796, Pitch_bend_c, 11, 4772
15, 2797, Pitch_bend_c, 11, 4725
15, 2798, Pitch_bend_c, 11, 4684
15, 2799, Pitch_bend_c, 11, 4643
15, 2800, Pitch_bend_c, 11, 4595
15, 2801, Pitch_bend_c, 11, 4554
15, 2802, Pitch_bend_c, 11, 4513
15, 2803, Pitch_bend_c, 11, 4472
15, 2804, Pitch_bend_c, 11, 4431
15, 2805, Pitch_bend_c, 11, 4383
15, 2806, Pitch_bend_c, 11, 4342
15, 2807, Pitch_bend_c, 11, 4301
15, 2808, Pitch_bend_c, 11, 4267
15, 2809, Pitch_bend_c, 11, 4226
15, 2810, Pitch_bend_c, 11, 4185
15, 2811, Pitch_bend_c, 11, 4144
15, 2812, Pitch_bend_c, 11, 4103
15, 2813, Pitch_bend_c, 11, 4069
15, 2814, Pitch_bend_c, 11, 4028
15, 2815, Pitch_bend_c, 11, 3987
15, 2816, Pitch_bend_c, 11, 3953
15, 2817, Pitch_bend_c, 11, 3912
15, 2818, Pitch_bend_c, 11, 3878
15, 2819, Pitch_bend_c, 11, 3837
15, 2820, Pitch_bend_c, 11, 3803
15, 2821, Pitch_bend_c, 11, 3769
15, 2822, Pitch_bend_c, 11, 3728
15, 2823, Pitch_bend_c, 11, 3694
15, 2824, Pitch_bend_c, 11, 3660
15, 2825, Pitch_bend_c, 11, 3619
15, 2826, Pitch_bend_c, 11, 3584
15, 2827, Pitch_bend_c, 11, 3550
15, 2828, Pitch_bend_c, 11, 3516
15, 2829, Pitch_bend_c, 11, 3482
15, 2830, Pitch_bend_c, 11, 3448
15, 2831, Pitch_bend_c, 11, 3414
15, 2832, Pitch_bend_c, 11, 3380
15, 2833, Pitch_bend_c, 11, 3346
15, 2834, Pitch_bend_c, 11, 3311
15, 2835, Pitch_bend_c, 11, 3277
15, 2836, Pitch_bend_c, 11, 3243
15, 2837, Pitch_bend_c, 11, 3216
15, 2838, Pitch_bend_c, 11, 3182
15, 2839, Pitch_bend_c, 11, 3148
15, 2840, Pitch_bend_c, 11, 3120
15, 2841, Pitch_bend_c, 11, 3086
15, 2842, Pitch_bend_c, 11, 3059
15, 2843, Pitch_bend_c, 11, 3025
15, 2844, Pitch_bend_c, 11, 2991
15, 2845, Pitch_bend_c, 11, 2963
15, 2846, Pitch_bend_c, 11, 2929
15, 2847, Pitch_bend_c, 11, 2902
15, 2848, Pitch_bend_c, 11, 2875
15, 2849, Pitch_bend_c, 11, 2840
15, 2850, Pitch_bend_c, 11, 2813
15, 2851, Pitch_bend_c, 11, 2786
15, 2852, Pitch_bend_c, 11, 2752
15, 2853, Pitch_bend_c, 11, 2724
15, 2854, Pitch_bend_c, 11, 2697
15, 2855, Pitch_bend_c, 11, 2670
15, 2856, Pitch_bend_c, 11, 2642
15, 2857, Pitch_bend_c, 11, 2615
15, 2858, Pitch_bend_c, 11, 2588
15, 2859, Pitch_bend_c, 11, 2560
15, 2860, Pitch_bend_c, 11, 2533
15, 2861, Pitch_bend_c, 11, 2506
15, 2862, Pitch_bend_c, 11, 2479
15, 2863, Pitch_bend_c, 11, 2451
15, 2864, Pitch_bend_c, 11, 2424
15, 2865, Pitch_bend_c, 11, 2397
15, 2866, Pitch_bend_c, 11, 2369
15, 2867, Pitch_bend_c, 11, 2342
15, 2868, Pitch_bend_c, 11, 2322
15, 2869, Pitch_bend_c, 11, 2294
15, 2870, Pitch_bend_c, 11, 2267
15, 2871, Pitch_bend_c, 11, 2240
15, 2872, Pitch_bend_c, 11, 2219
15, 2873, Pitch_bend_c, 11, 2192
15, 2874, Pitch_bend_c, 11, 2171
15, 2875, Pitch_bend_c, 11, 2144
15, 2876, Pitch_bend_c, 11, 2124
15, 2877, Pitch_bend_c, 11, 2096
15, 2878, Pitch_bend_c, 11, 2076
15, 2879, Pitch_bend_c, 11, 2048
15, 2880, Note_off_c, 11, 56, 64
15, 2880, Note_on_c, 11, 46, 127
15, 2880, Pitch_bend_c, 11, 8124
15, 2881, Pitch_bend_c, 11, 8056
15, 2882, Pitch_bend_c, 11, 7988
15, 2883, Pitch_bend_c, 11, 7919
15, 2884, Pitch_bend_c, 11, 7851
15, 2885, Pitch_bend_c, 11, 7783
15, 2886, Pitch_bend_c, 11, 7715
15, 2887, Pitch_bend_c, 11, 7646
15, 2888, Pitch_bend_c, 11, 7585
15, 2889, Pitch_bend_c, 11, 7517
15, 2890, Pitch_bend_c, 11, 7455
15, 2891, Pitch_bend_c, 11, 7387
15, 2892, Pitch_bend_c, 11, 7326
15, 2893, Pitch_bend_c, 11, 7264
15, 2894, Pitch_bend_c, 11, 7203
15, 2895, Pitch_bend_c, 11, 7134
15, 2896, Pitch_bend_c, 11, 7073
15, 2897, Pitch_bend_c, 11, 7011
15, 2898, Pitch_bend_c, 11, 6957
15, 2899, Pitch_bend_c, 11, 6895
15, 2900, Pitch_bend_c, 11, 6834
15, 2901, Pitch_bend_c, 11, 6773
15, 2902, Pitch_bend_c, 11, 6711
15, 2903, Pitch_bend_c, 11, 6656
15, 2904, Pitch_bend_c, 11, 6595
15, 2905, Pitch_bend_c, 11, 6540
15, 2906, Pitch_bend_c, 11, 6486
15, 2907, Pitch_bend_c, 11, 6424
15, 2908, Pitch_bend_c, 11, 6370
15, 2909, Pitch_bend_c, 11, 6315
15, 2910, Pitch_bend_c, 11, 6261
15, 2911, Pitch_bend_c, 11, 6199
15, 2912, Pitch_bend_c, 11, 6144
15, 2913, Pitch_bend_c, 11, 6097
15, 2914, Pitch_bend_c, 11, 6042
15, 2915, Pitch_bend_c, 11, 5987
15, 2916, Pitch_bend_c, 11, 5933
15, 2917, Pitch_bend_c, 11, 5878
15, 2918, Pitch_bend_c, 11, 5830
15, 2919, Pitch_bend_c, 11, 5776
15, 2920, Pitch_bend_c, 11, 5721
15, 2921, Pitch_bend_c, 11, 5673
15, 2922, Pitch_bend_c, 11, 5626
15, 2923, Pitch_bend_c, 11, 5571
15, 2924, Pitch_bend_c, 11, 5523
15, 2925, Pitch_bend_c, 11, 5475
15, 2926, Pitch_bend_c, 11, 5421
15, 2927, Pitch_bend_c, 11, 5373
15, 2928, Pitch_bend_c, 11, 5325
15, 2929, Pitch_bend_c, 11, 5278
15, 2930, Pitch_bend_c, 11, 5230
15, 2931, Pitch_bend_c, 11, 5182
15, 2932, Pitch_bend_c, 11, 5134
15, 2933, Pitch_bend_c, 11, 5086
15, 2934, Pitch_bend_c, 11, 5045
15, 2935, Pitch_bend_c, 11, 4998
15, 2936, Pitch_bend_c, 11, 4950
15, 2937, Pitch_bend_c, 11, 4902
15, 2938, Pitch_bend_c, 11, 4861
15, 2939, Pitch_bend_c, 11, 4813
15, 2940, Pitch_bend_c, 11, 4772
15, 2941, Pitch_bend_c, 11, 4725
15, 2942, Pitch_bend_c, 11, 4684
15, 2943, Pitch_bend_c, 11, 4643
15, 2944, Pitch_bend_c, 11, 4595
15, 2945, Pitch_bend_c, 11, 4554
15, 2946, Pitch_bend_c, 11, 4513
15, 2947, Pitch_bend_c, 11, 4472
15, 2948, Pitch_bend_c, 11, 4431
15, 2949, Pitch_bend_c, 11, 4383
15, 2950, Pitch_bend_c, 11, 4342
15, 2951, Pitch_bend_c, 11, 4301
15, 2952, Pitch_bend_c, 11, 4267
15, 2953, Pitch_bend_c, 11, 4226
15, 2954, Pitch_bend_c, 11, 4185
15, 2955, Pitch_bend_c, 11, 4144
15, 2956, Pitch_bend_c, 11, 4103
15, 2957, Pitch_bend_c, 11, 4069
15, 2958, Pitch_bend_c, 11, 4028
15, 2959, Pitch_bend_c, 11, 3987
15, 2960, Pitch_bend_c, 11, 3953
15, 2961, Pitch_bend_c, 11, 3912
15, 2962, Pitch_bend_c, 11, 3878
15, 2963, Pitch_bend_c, 11, 3837
15, 2964, Pitch_bend_c, 11, 3803
15, 2965, Pitch_bend_c, 11, 3769
15, 2966, Pitch_bend_c, 11, 3728
15, 2967, Pitch_bend_c, 11, 3694
15, 2968, Pitch_bend_c, 11, 3660
15, 2969, Pitch_bend_c, 11, 3619
15, 2970, Pitch_bend_c, 11, 3584
15, 2971, Pitch_bend_c, 11, 3550
15, 2972, Pitch_bend_c, 11, 3516
15, 2973, Pitch_bend_c, 11, 3482
15, 2974, Pitch_bend_c, 11, 3448
15, 2975, Pitch_bend_c, 11, 3414
15, 2976, Pitch_bend_c, 11, 3380
15, 2977, Pitch_bend_c, 11, 3346
15, 2978, Pitch_bend_c, 11, 3311
15, 2979, Pitch_bend_c, 11, 3277
15, 2980, Pitch_bend_c, 11, 3243
15, 2981, Pitch_bend_c, 11, 3216
15, 2982, Pitch_bend_c, 11, 3182
15, 2983, Pitch_bend_c, 11, 3148
15, 2984, Pitch_bend_c, 11, 3120
15, 2985, Pitch_bend_c, 11, 3086
15, 2986, Pitch_bend_c, 11, 3059
15, 2987, Pitch_bend_c, 11, 3025
15, 2988, Pitch_bend_c, 11, 2991
15, 2989, Pitch_bend_c, 11, 2963
15, 2990, Pitch_bend_c, 11, 2929
15, 2991, Pitch_bend_c, 11, 2902
15, 2992, Pitch_bend_c, 11, 2875
15, 2993, Pitch_bend_c, 11, 2840
15, 2994, Pitch_bend_c, 11, 2813
15, 2995, Pitch_bend_c, 11, 2786
15, 2996, Pitch_bend_c, 11, 2752
15, 2997, Pitch_bend_c, 11, 2724
15, 2998, Pitch_bend_c, 11, 2697
15, 2999, Pitch_bend_c, 11, 2670
15, 3000, Pitch_bend_c, 11, 2642
15, 3001, Pitch_bend_c, 11, 2615
15, 3002, Pitch_bend_c, 11, 2588
15, 3003, Pitch_bend_c, 11, 2560
15, 3004, Pitch_bend_c, 11, 2533
15, 3005, Pitch_bend_c, 11, 2506
15, 3006, Pitch_bend_c, 11, 2479
15, 3007, Pitch_bend_c, 11, 2451
15, 3008, Pitch_bend_c, 11, 2424
15, 3009, Pitch_bend_c, 11, 2397
15, 3010, Pitch_bend_c, 11, 2369
15, 3011, Pitch_bend_c, 11, 2342
15, 3012, Pitch_bend_c, 11, 2322
15, 3013, Pitch_bend_c, 11, 2294
15, 3014, Pitch_bend_c, 11, 2267
15, 3015, Pitch_bend_c, 11, 2240
15, 3016, Pitch_bend_c, 11, 2219
15, 3017, Pitch_bend_c, 11, 2192
15, 3018, Pitch_bend_c, 11, 2171
15, 3019, Pitch_bend_c, 11, 2144
15, 3020, Pitch_bend_c, 11, 2124
15, 3021, Pitch_bend_c, 11, 2096
15, 3022, Pitch_bend_c, 11, 2076
15, 3023, Pitch_bend_c, 11, 2048
15, 3024, Note_off_c, 11, 46, 64
15, 3024, Note_on_c, 11, 39, 127
15, 3024, Pitch_bend_c, 11, 8124
15, 3025, Pitch_bend_c, 11, 8056
15, 3026, Pitch_bend_c, 11, 7988
15, 3027, Pitch_bend_c, 11, 7919
15, 3028, Pitch_bend_c, 11, 7851
15, 3029, Pitch_bend_c, 11, 7783
15, 3030, Pitch_bend_c, 11, 7715
15, 3031, Pitch_bend_c, 11, 7646
15, 3032, Pitch_bend_c, 11, 7585
15, 3033, Pitch_bend_c, 11, 7517
15, 3034, Pitch_bend_c, 11, 7455
15, 3035, Pitch_bend_c, 11, 7387
15, 3036, Pitch_bend_c, 11, 7326
15, 3037, Pitch_bend_c, 11, 7264
15, 3038, Pitch_bend_c, 11, 7203
15, 3039, Pitch_bend_c, 11, 7134
15, 3040, Pitch_bend_c, 11, 7073
15, 3041, Pitch_bend_c, 11, 7011
15, 3042, Pitch_bend_c, 11, 6957
15, 3043, Pitch_bend_c, 11, 6895
15, 3044, Pitch_bend_c, 11, 6834
15, 3045, Pitch_bend_c, 11, 6773
15, 3046, Pitch_bend_c, 11, 6711
15, 3047, Pitch_bend_c, 11, 6656
15, 3048, Pitch_bend_c, 11, 6595
15, 3049, Pitch_bend_c, 11, 6540
15, 3050, Pitch_bend_c, 11, 6486
15, 3051, Pitch_bend_c, 11, 6424
15, 3052, Pitch_bend_c, 11, 6370
15, 3053, Pitch_bend_c, 11, 6315
15, 3054, Pitch_bend_c, 11, 6261
15, 3055, Pitch_bend_c, 11, 6199
15, 3056, Pitch_bend_c, 11, 6144
15, 3057, Pitch_bend_c, 11, 6097
15, 3058, Pitch_bend_c, 11, 6042
15, 3059, Pitch_bend_c, 11, 5987
15, 3060, Pitch_bend_c, 11, 5933
15, 3061, Pitch_bend_c, 11, 5878
15, 3062, Pitch_bend_c, 11, 5830
15, 3063, Pitch_bend_c, 11, 5776
15, 3064, Pitch_bend_c, 11, 5721
15, 3065, Pitch_bend_c, 11, 5673
15, 3066, Pitch_bend_c, 11, 5626
15, 3067, Pitch_bend_c, 11, 5571
15, 3068, Pitch_bend_c, 11, 5523
15, 3069, Pitch_bend_c, 11, 5475
15, 3070, Pitch_bend_c, 11, 5421
15, 3071, Pitch_bend_c, 11, 5373
15, 3072, Note_off_c, 11, 39, 64
15, 20736, Note_on_c, 11, 83, 127
15, 20736, Pitch_bend_c, 11, 8124
15, 20737, Pitch_bend_c, 11, 8056
15, 20738, Pitch_bend_c, 11, 7988
15, 20739, Pitch_bend_c, 11, 7919
15, 20740, Pitch_bend_c, 11, 7851
15, 20741, Pitch_bend_c, 11, 7783
15, 20742, Pitch_bend_c, 11, 7715
15, 20743, Pitch_bend_c, 11, 7646
15, 20744, Pitch_bend_c, 11, 7585
15, 20745, Pitch_bend_c, 11, 7517
15, 20746, Pitch_bend_c, 11, 7455
15, 20747, Pitch_bend_c, 11, 7387
15, 20748, Pitch_bend_c, 11, 7326
15, 20749, Pitch_bend_c, 11, 7264
15, 20750, Pitch_bend_c, 11, 7203
15, 20751, Pitch_bend_c, 11, 7134
15, 20752, Pitch_bend_c, 11, 7073
15, 20753, Pitch_bend_c, 11, 7011
15, 20754, Pitch_bend_c, 11, 6957
15, 20755, Pitch_bend_c, 11, 6895
15, 20756, Pitch_bend_c, 11, 6834
15, 20757, Pitch_bend_c, 11, 6773
15, 20758, Pitch_bend_c, 11, 6711
15, 20759, Pitch_bend_c, 11, 6656
15, 20760, Pitch_bend_c, 11, 6595
15, 20761, Pitch_bend_c, 11, 6540
15, 20762, Pitch_bend_c, 11, 6486
15, 20763, Pitch_bend_c, 11, 6424
15, 20764, Pitch_bend_c, 11, 6370
15, 20765, Pitch_bend_c, 11, 6315
15, 20766, Pitch_bend_c, 11, 6261
15, 20767, Pitch_bend_c, 11, 6199
15, 20768, Pitch_bend_c, 11, 6144
15, 20769, Pitch_bend_c, 11, 6097
15, 20770, Pitch_bend_c, 11, 6042
15, 20771, Pitch_bend_c, 11, 5987
15, 20772, Pitch_bend_c, 11, 5933
15, 20773, Pitch_bend_c, 11, 5878
15, 20774, Pitch_bend_c, 11, 5830
15, 20775, Pitch_bend_c, 11, 5776
15, 20776, Pitch_bend_c, 11, 5721
15, 20777, Pitch_bend_c, 11, 5673
15, 20778, Pitch_bend_c, 11, 5626
15, 20779, Pitch_bend_c, 11, 5571
15, 20780, Pitch_bend_c, 11, 5523
15, 20781, Pitch_bend_c, 11, 5475
15, 20782, Pitch_bend_c, 11, 5421
15, 20783, Pitch_bend_c, 11, 5373
15, 20784, Pitch_bend_c, 11, 5325
15, 20785, Pitch_bend_c, 11, 5278
15, 20786, Pitch_bend_c, 11, 5230
15, 20787, Pitch_bend_c, 11, 5182
15, 20788, Pitch_bend_c, 11, 5134
15, 20789, Pitch_bend_c, 11, 5086
15, 20790, Pitch_bend_c, 11, 5045
15, 20791, Pitch_bend_c, 11, 4998
15, 20792, Pitch_bend_c, 11, 4950
15, 20793, Pitch_bend_c, 11, 4902
15, 20794, Pitch_bend_c, 11, 4861
15, 20795, Pitch_bend_c, 11, 4813
15, 20796, Pitch_bend_c, 11, 4772
15, 20797, Pitch_bend_c, 11, 4725
15, 20798, Pitch_bend_c, 11, 4684
15, 20799, Pitch_bend_c, 11, 4643
15, 20800, Pitch_bend_c, 11, 4595
15, 20801, Pitch_bend_c, 11, 4554
15, 20802, Pitch_bend_c, 11, 4513
15, 20803, Pitch_bend_c, 11, 4472
15, 20804, Pitch_bend_c, 11, 4431
15, 20805, Pitch_bend_c, 11, 4383
15, 20806, Pitch_bend_c, 11, 4342
15, 20807, Pitch_bend_c, 11, 4301
15, 20808, Pitch_bend_c, 11, 4267
15, 20809, Pitch_bend_c, 11, 4226
15, 20810, Pitch_bend_c, 11, 4185
15, 20811, Pitch_bend_c, 11, 4144
15, 20812, Pitch_bend_c, 11, 4103
15, 20813, Pitch_bend_c, 11, 4069
15, 20814, Pitch_bend_c, 11, 4028
15, 20815, Pitch_bend_c, 11, 3987
15, 20816, Pitch_bend_c, 11, 3953
15, 20817, Pitch_bend_c, 11, 3912
15, 20818, Pitch_bend_c, 11, 3878
15, 20819, Pitch_bend_c, 11, 3837
15, 20820, Pitch_bend_c, 11, 3803
15, 20821, Pitch_bend_c, 11, 3769
15, 20822, Pitch_bend_c, 11, 3728
15, 20823, Pitch_bend_c, 11, 3694
15, 20824, Pitch_bend_c, 11, 3660
15, 20825, Pitch_bend_c, 11, 3619
15, 20826, Pitch_bend_c, 11, 3584
15, 20827, Pitch_bend_c, 11, 3550
15, 20828, Pitch_bend_c, 11, 3516
15, 20829, Pitch_bend_c, 11, 3482
15, 20830, Pitch_bend_c, 11, 3448
15, 20831, Pitch_bend_c, 11, 3414
15, 20832, Pitch_bend_c, 11, 3380
15, 20833, Pitch_bend_c, 11, 3346
15, 20834, Pitch_bend_c, 11, 3311
15, 20835, Pitch_bend_c, 11, 3277
15, 20836, Pitch_bend_c, 11, 3243
15, 20837, Pitch_bend_c, 11, 3216
15, 20838, Pitch_bend_c, 11, 3182
15, 20839, Pitch_bend_c, 11, 3148
15, 20840, Pitch_bend_c, 11, 3120
15, 20841, Pitch_bend_c, 11, 3086
15, 20842, Pitch_bend_c, 11, 3059
15, 20843, Pitch_bend_c, 11, 3025
15, 20844, Pitch_bend_c, 11, 2991
15, 20845, Pitch_bend_c, 11, 2963
15, 20846, Pitch_bend_c, 11, 2929
15, 20847, Pitch_bend_c, 11, 2902
15, 20848, Pitch_bend_c, 11, 2875
15, 20849, Pitch_bend_c, 11, 2840
15, 20850, Pitch_bend_c, 11, 2813
15, 20851, Pitch_bend_c, 11, 2786
15, 20852, Pitch_bend_c, 11, 2752
15, 20853, Pitch_bend_c, 11, 2724
15, 20854, Pitch_bend_c, 11, 2697
15, 20855, Pitch_bend_c, 11, 2670
15, 20856, Pitch_bend_c, 11, 2642
15, 20857, Pitch_bend_c, 11, 2615
15, 20858, Pitch_bend_c, 11, 2588
15, 20859, Pitch_bend_c, 11, 2560
15, 20860, Pitch_bend_c, 11, 2533
15, 20861, Pitch_bend_c, 11, 2506
15, 20862, Pitch_bend_c, 11, 2479
15, 20863, Pitch_bend_c, 11, 2451
15, 20864, Pitch_bend_c, 11, 2424
15, 20865, Pitch_bend_c, 11, 2397
15, 20866, Pitch_bend_c, 11, 2369
15, 20867, Pitch_bend_c, 11, 2342
15, 20868, Pitch_bend_c, 11, 2322
15, 20869, Pitch_bend_c, 11, 2294
15, 20870, Pitch_bend_c, 11, 2267
15, 20871, Pitch_bend_c, 11, 2240
15, 20872, Pitch_bend_c, 11, 2219
15, 20873, Pitch_bend_c, 11, 2192
15, 20874, Pitch_bend_c, 11, 2171
15, 20875, Pitch_bend_c, 11, 2144
15, 20876, Pitch_bend_c, 11, 2124
15, 20877, Pitch_bend_c, 11, 2096
15, 20878, Pitch_bend_c, 11, 2076
15, 20879, Pitch_bend_c, 11, 2048
15, 20880, Note_off_c, 11, 83, 64
15, 20880, Note_on_c, 11, 74, 127
15, 20880, Pitch_bend_c, 11, 8124
15, 20881, Pitch_bend_c, 11, 8056
15, 20882, Pitch_bend_c, 11, 7988
15, 20883, Pitch_bend_c, 11, 7919
15, 20884, Pitch_bend_c, 11, 7851
15, 20885, Pitch_bend_c, 11, 7783
15, 20886, Pitch_bend_c, 11, 7715
15, 20887, Pitch_bend_c, 11, 7646
15, 20888, Pitch_bend_c, 11, 7585
15, 20889, Pitch_bend_c, 11, 7517
15, 20890, Pitch_bend_c, 11, 7455
15, 20891, Pitch_bend_c, 11, 7387
15, 20892, Pitch_bend_c, 11, 7326
15, 20893, Pitch_bend_c, 11, 7264
15, 20894, Pitch_bend_c, 11, 7203
15, 20895, Pitch_bend_c, 11, 7134
15, 20896, Pitch_bend_c, 11, 7073
15, 20897, Pitch_bend_c, 11, 7011
15, 20898, Pitch_bend_c, 11, 6957
15, 20899, Pitch_bend_c, 11, 6895
15, 20900, Pitch_bend_c, 11, 6834
15, 20901, Pitch_bend_c, 11, 6773
15, 20902, Pitch_bend_c, 11, 6711
15, 20903, Pitch_bend_c, 11, 6656
15, 20904, Pitch_bend_c, 11, 6595
15, 20905, Pitch_bend_c, 11, 6540
15, 20906, Pitch_bend_c, 11, 6486
15, 20907, Pitch_bend_c, 11, 6424
15, 20908, Pitch_bend_c, 11, 6370
15, 20909, Pitch_bend_c, 11, 6315
15, 20910, Pitch_bend_c, 11, 6261
15, 20911, Pitch_bend_c, 11, 6199
15, 20912, Pitch_bend_c, 11, 6144
15, 20913, Pitch_bend_c, 11, 6097
15, 20914, Pitch_bend_c, 11, 6042
15, 20915, Pitch_bend_c, 11, 5987
15, 20916, Pitch_bend_c, 11, 5933
15, 20917, Pitch_bend_c, 11, 5878
15, 20918, Pitch_bend_c, 11, 5830
15, 20919, Pitch_bend_c, 11, 5776
15, 20920, Pitch_bend_c, 11, 5721
15, 20921, Pitch_bend_c, 11, 5673
15, 20922, Pitch_bend_c, 11, 5626
15, 20923, Pitch_bend_c, 11, 5571
15, 20924, Pitch_bend_c, 11, 5523
15, 20925, Pitch_bend_c, 11, 5475
15, 20926, Pitch_bend_c, 11, 5421
15, 20927, Pitch_bend_c, 11, 5373
15, 20928, Pitch_bend_c, 11, 5325
15, 20929, Pitch_bend_c, 11, 5278
15, 20930, Pitch_bend_c, 11, 5230
15, 20931, Pitch_bend_c, 11, 5182
15, 20932, Pitch_bend_c, 11, 5134
15, 20933, Pitch_bend_c, 11, 5086
15, 20934, Pitch_bend_c, 11, 5045
15, 20935, Pitch_bend_c, 11, 4998
15, 20936, Pitch_bend_c, 11, 4950
15, 20937, Pitch_bend_c, 11, 4902
15, 20938, Pitch_bend_c, 11, 4861
15, 20939, Pitch_bend_c, 11, 4813
15, 20940, Pitch_bend_c, 11, 4772
15, 20941, Pitch_bend_c, 11, 4725
15, 20942, Pitch_bend_c, 11, 4684
15, 20943, Pitch_bend_c, 11, 4643
15, 20944, Pitch_bend_c, 11, 4595
15, 20945, Pitch_bend_c, 11, 4554
15, 20946, Pitch_bend_c, 11, 4513
15, 20947, Pitch_bend_c, 11, 4472
15, 20948, Pitch_bend_c, 11, 4431
15, 20949, Pitch_bend_c, 11, 4383
15, 20950, Pitch_bend_c, 11, 4342
15, 20951, Pitch_bend_c, 11, 4301
15, 20952, Pitch_bend_c, 11, 4267
15, 20953, Pitch_bend_c, 11, 4226
15, 20954, Pitch_bend_c, 11, 4185
15, 20955, Pitch_bend_c, 11, 4144
15, 20956, Pitch_bend_c, 11, 4103
15, 20957, Pitch_bend_c, 11, 4069
15, 20958, Pitch_bend_c, 11, 4028
15, 20959, Pitch_bend_c, 11, 3987
15, 20960, Pitch_bend_c, 11, 3953
15, 20961, Pitch_bend_c, 11, 3912
15, 20962, Pitch_bend_c, 11, 3878
15, 20963, Pitch_bend_c, 11, 3837
15, 20964, Pitch_bend_c, 11, 3803
15, 20965, Pitch_bend_c, 11, 3769
15, 20966, Pitch_bend_c, 11, 3728
15, 20967, Pitch_bend_c, 11, 3694
15, 20968, Pitch_bend_c, 11, 3660
15, 20969, Pitch_bend_c, 11, 3619
15, 20970, Pitch_bend_c, 11, 3584
15, 20971, Pitch_bend_c, 11, 3550
15, 20972, Pitch_bend_c, 11, 3516
15, 20973, Pitch_bend_c, 11, 3482
15, 20974, Pitch_bend_c, 11, 3448
15, 20975, Pitch_bend_c, 11, 3414
15, 20976, Pitch_bend_c, 11, 3380
15, 20977, Pitch_bend_c, 11, 3346
15, 20978, Pitch_bend_c, 11, 3311
15, 20979, Pitch_bend_c, 11, 3277
15, 20980, Pitch_bend_c, 11, 3243
15, 20981, Pitch_bend_c, 11, 3216
15, 20982, Pitch_bend_c, 11, 3182
15, 20983, Pitch_bend_c, 11, 3148
15, 20984, Pitch_bend_c, 11, 3120
15, 20985, Pitch_bend_c, 11, 3086
15, 20986, Pitch_bend_c, 11, 3059
15, 20987, Pitch_bend_c, 11, 3025
15, 20988, Pitch_bend_c, 11, 2991
15, 20989, Pitch_bend_c, 11, 2963
15, 20990, Pitch_bend_c, 11, 2929
15, 20991, Pitch_bend_c, 11, 2902
15, 20992, Pitch_bend_c, 11, 2875
15, 20993, Pitch_bend_c, 11, 2840
15, 20994, Pitch_bend_c, 11, 2813
15, 20995, Pitch_bend_c, 11, 2786
15, 20996, Pitch_bend_c, 11, 2752
15, 20997, Pitch_bend_c, 11, 2724
15, 20998, Pitch_bend_c, 11, 2697
15, 20999, Pitch_bend_c, 11, 2670
15, 21000, Pitch_bend_c, 11, 2642
15, 21001, Pitch_bend_c, 11, 2615
15, 21002, Pitch_bend_c, 11, 2588
15, 21003, Pitch_bend_c, 11, 2560
15, 21004, Pitch_bend_c, 11, 2533
15, 21005, Pitch_bend_c, 11, 2506
15, 21006, Pitch_bend_c, 11, 2479
15, 21007, Pitch_bend_c, 11, 2451
15, 21008, Pitch_bend_c, 11, 2424
15, 21009, Pitch_bend_c, 11, 2397
15, 21010, Pitch_bend_c, 11, 2369
15, 21011, Pitch_bend_c, 11, 2342
15, 21012, Pitch_bend_c, 11, 2322
15, 21013, Pitch_bend_c, 11, 2294
15, 21014, Pitch_bend_c, 11, 2267
15, 21015, Pitch_bend_c, 11, 2240
15, 21016, Pitch_bend_c, 11, 2219
15, 21017, Pitch_bend_c, 11, 2192
15, 21018, Pitch_bend_c, 11, 2171
15, 21019, Pitch_bend_c, 11, 2144
15, 21020, Pitch_bend_c, 11, 2124
15, 21021, Pitch_bend_c, 11, 2096
15, 21022, Pitch_bend_c, 11, 2076
15, 21023, Pitch_bend_c, 11, 2048
15, 21024, Note_off_c, 11, 74, 64
15, 21024, Note_on_c, 11, 65, 127
15, 21024, Pitch_bend_c, 11, 8124
15, 21025, Pitch_bend_c, 11, 8056
15, 21026, Pitch_bend_c, 11, 7988
15, 21027, Pitch_bend_c, 11, 7919
15, 21028, Pitch_bend_c, 11, 7851
15, 21029, Pitch_bend_c, 11, 7783
15, 21030, Pitch_bend_c, 11, 7715
15, 21031, Pitch_bend_c, 11, 7646
15, 21032, Pitch_bend_c, 11, 7585
15, 21033, Pitch_bend_c, 11, 7517
15, 21034, Pitch_bend_c, 11, 7455
15, 21035, Pitch_bend_c, 11, 7387
15, 21036, Pitch_bend_c, 11, 7326
15, 21037, Pitch_bend_c, 11, 7264
15, 21038, Pitch_bend_c, 11, 7203
15, 21039, Pitch_bend_c, 11, 7134
15, 21040, Pitch_bend_c, 11, 7073
15, 21041, Pitch_bend_c, 11, 7011
15, 21042, Pitch_bend_c, 11, 6957
15, 21043, Pitch_bend_c, 11, 6895
15, 21044, Pitch_bend_c, 11, 6834
15, 21045, Pitch_bend_c, 11, 6773
15, 21046, Pitch_bend_c, 11, 6711
15, 21047, Pitch_bend_c, 11, 6656
15, 21048, Pitch_bend_c, 11, 6595
15, 21049, Pitch_bend_c, 11, 6540
15, 21050, Pitch_bend_c, 11, 6486
15, 21051, Pitch_bend_c, 11, 6424
15, 21052, Pitch_bend_c, 11, 6370
15, 21053, Pitch_bend_c, 11, 6315
15, 21054, Pitch_bend_c, 11, 6261
15, 21055, Pitch_bend_c, 11, 6199
15, 21056, Pitch_bend_c, 11, 6144
15, 21057, Pitch_bend_c, 11, 6097
15, 21058, Pitch_bend_c, 11, 6042
15, 21059, Pitch_bend_c, 11, 5987
15, 21060, Pitch_bend_c, 11, 5933
15, 21061, Pitch_bend_c, 11, 5878
15, 21062, Pitch_bend_c, 11, 5830
15, 21063, Pitch_bend_c, 11, 5776
15, 21064, Pitch_bend_c, 11, 5721
15, 21065, Pitch_bend_c, 11, 5673
15, 21066, Pitch_bend_c, 11, 5626
15, 21067, Pitch_bend_c, 11, 5571
15, 21068, Pitch_bend_c, 11, 5523
15, 21069, Pitch_bend_c, 11, 5475
15, 21070, Pitch_bend_c, 11, 5421
15, 21071, Pitch_bend_c, 11, 5373
15, 21072, Pitch_bend_c, 11, 5325
15, 21073, Pitch_bend_c, 11, 5278
15, 21074, Pitch_bend_c, 11, 5230
15, 21075, Pitch_bend_c, 11, 5182
15, 21076, Pitch_bend_c, 11, 5134
15, 21077, Pitch_bend_c, 11, 5086
15, 21078, Pitch_bend_c, 11, 5045
15, 21079, Pitch_bend_c, 11, 4998
15, 21080, Pitch_bend_c, 11, 4950
15, 21081, Pitch_bend_c, 11, 4902
15, 21082, Pitch_bend_c, 11, 4861
15, 21083, Pitch_bend_c, 11, 4813
15, 21084, Pitch_bend_c, 11, 4772
15, 21085, Pitch_bend_c, 11, 4725
15, 21086, Pitch_bend_c, 11, 4684
15, 21087, Pitch_bend_c, 11, 4643
15, 21088, Pitch_bend_c, 11, 4595
15, 21089, Pitch_bend_c, 11, 4554
15, 21090, Pitch_bend_c, 11, 4513
15, 21091, Pitch_bend_c, 11, 4472
15, 21092, Pitch_bend_c, 11, 4431
15, 21093, Pitch_bend_c, 11, 4383
15, 21094, Pitch_bend_c, 11, 4342
15, 21095, Pitch_bend_c, 11, 4301
15, 21096, Pitch_bend_c, 11, 4267
15, 21097, Pitch_bend_c, 11, 4226
15, 21098, Pitch_bend_c, 11, 4185
15, 21099, Pitch_bend_c, 11, 4144
15, 21100, Pitch_bend_c, 11, 4103
15, 21101, Pitch_bend_c, 11, 4069
15, 21102, Pitch_bend_c, 11, 4028
15, 21103, Pitch_bend_c, 11, 3987
15, 21104, Pitch_bend_c, 11, 3953
15, 21105, Pitch_bend_c, 11, 3912
15, 21106, Pitch_bend_c, 11, 3878
15, 21107, Pitch_bend_c, 11, 3837
15, 21108, Pitch_bend_c, 11, 3803
15, 21109, Pitch_bend_c, 11, 3769
15, 21110, Pitch_bend_c, 11, 3728
15, 21111, Pitch_bend_c, 11, 3694
15, 21112, Pitch_bend_c, 11, 3660
15, 21113, Pitch_bend_c, 11, 3619
15, 21114, Pitch_bend_c, 11, 3584
15, 21115, Pitch_bend_c, 11, 3550
15, 21116, Pitch_bend_c, 11, 3516
15, 21117, Pitch_bend_c, 11, 3482
15, 21118, Pitch_bend_c, 11, 3448
15, 21119, Pitch_bend_c, 11, 3414
15, 21120, Pitch_bend_c, 11, 3380
15, 21121, Pitch_bend_c, 11, 3346
15, 21122, Pitch_bend_c, 11, 3311
15, 21123, Pitch_bend_c, 11, 3277
15, 21124, Pitch_bend_c, 11, 3243
15, 21125, Pitch_bend_c, 11, 3216
15, 21126, Pitch_bend_c, 11, 3182
15, 21127, Pitch_bend_c, 11, 3148
15, 21128, Pitch_bend_c, 11, 3120
15, 21129, Pitch_bend_c, 11, 3086
15, 21130, Pitch_bend_c, 11, 3059
15, 21131, Pitch_bend_c, 11, 3025
15, 21132, Pitch_bend_c, 11, 2991
15, 21133, Pitch_bend_c, 11, 2963
15, 21134, Pitch_bend_c, 11, 2929
15, 21135, Pitch_bend_c, 11, 2902
15, 21136, Pitch_bend_c, 11, 2875
15, 21137, Pitch_bend_c, 11, 2840
15, 21138, Pitch_bend_c, 11, 2813
15, 21139, Pitch_bend_c, 11, 2786
15, 21140, Pitch_bend_c, 11, 2752
15, 21141, Pitch_bend_c, 11, 2724
15, 21142, Pitch_bend_c, 11, 2697
15, 21143, Pitch_bend_c, 11, 2670
15, 21144, Pitch_bend_c, 11, 2642
15, 21145, Pitch_bend_c, 11, 2615
15, 21146, Pitch_bend_c, 11, 2588
15, 21147, Pitch_bend_c, 11, 2560
15, 21148, Pitch_bend_c, 11, 2533
15, 21149, Pitch_bend_c, 11, 2506
15, 21150, Pitch_bend_c, 11, 2479
15, 21151, Pitch_bend_c, 11, 2451
15, 21152, Pitch_bend_c, 11, 2424
15, 21153, Pitch_bend_c, 11, 2397
15, 21154, Pitch_bend_c, 11, 2369
15, 21155, Pitch_bend_c, 11, 2342
15, 21156, Pitch_bend_c, 11, 2322
15, 21157, Pitch_bend_c, 11, 2294
15, 21158, Pitch_bend_c, 11, 2267
15, 21159, Pitch_bend_c, 11, 2240
15, 21160, Pitch_bend_c, 11, 2219
15, 21161, Pitch_bend_c, 11, 2192
15, 21162, Pitch_bend_c, 11, 2171
15, 21163, Pitch_bend_c, 11, 2144
15, 21164, Pitch_bend_c, 11, 2124
15, 21165, Pitch_bend_c, 11, 2096
15, 21166, Pitch_bend_c, 11, 2076
15, 21167, Pitch_bend_c, 11, 2048
15, 21168, Note_off_c, 11, 65, 64
15, 21168, Note_on_c, 11, 56, 127
15, 21168, Pitch_bend_c, 11, 8124
15, 21169, Pitch_bend_c, 11, 8056
15, 21170, Pitch_bend_c, 11, 7988
15, 21171, Pitch_bend_c, 11, 7919
15, 21172, Pitch_bend_c, 11, 7851
15, 21173, Pitch_bend_c, 11, 7783
15, 21174, Pitch_bend_c, 11, 7715
15, 21175, Pitch_bend_c, 11, 7646
15, 21176, Pitch_bend_c, 11, 7585
15, 21177, Pitch_bend_c, 11, 7517
15, 21178, Pitch_bend_c, 11, 7455
15, 21179, Pitch_bend_c, 11, 7387
15, 21180, Pitch_bend_c, 11, 7326
15, 21181, Pitch_bend_c, 11, 7264
15, 21182, Pitch_bend_c, 11, 7203
15, 21183, Pitch_bend_c, 11, 7134
15, 21184, Pitch_bend_c, 11, 7073
15, 21185, Pitch_bend_c, 11, 7011
15, 21186, Pitch_bend_c, 11, 6957
15, 21187, Pitch_bend_c, 11, 6895
15, 21188, Pitch_bend_c, 11, 6834
15, 21189, Pitch_bend_c, 11, 6773
15, 21190, Pitch_bend_c, 11, 6711
15, 21191, Pitch_bend_c, 11, 6656
15, 21192, Pitch_bend_c, 11, 6595
15, 21193, Pitch_bend_c, 11, 6540
15, 21194, Pitch_bend_c, 11, 6486
15, 21195, Pitch_bend_c, 11, 6424
15, 21196, Pitch_bend_c, 11, 6370
15, 21197, Pitch_bend_c, 11, 6315
15, 21198, Pitch_bend_c, 11, 6261
15, 21199, Pitch_bend_c, 11, 6199
15, 21200, Pitch_bend_c, 11, 6144
15, 21201, Pitch_bend_c, 11, 6097
15, 21202, Pitch_bend_c, 11, 6042
15, 21203, Pitch_bend_c, 11, 5987
15, 21204, Pitch_bend_c, 11, 5933
15, 21205, Pitch_bend_c, 11, 5878
15, 21206, Pitch_bend_c, 11, 5830
15, 21207, Pitch_bend_c, 11, 5776
15, 21208, Pitch_bend_c, 11, 5721
15, 21209, Pitch_bend_c, 11, 5673
15, 21210, Pitch_bend_c, 11, 5626
15, 21211, Pitch_bend_c, 11, 5571
15, 21212, Pitch_bend_c, 11, 5523
15, 21213, Pitch_bend_c, 11, 5475
15, 21214, Pitch_bend_c, 11, 5421
15, 21215, Pitch_bend_c, 11, 5373
15, 21216, Pitch_bend_c, 11, 5325
15, 21217, Pitch_bend_c, 11, 5278
15, 21218, Pitch_bend_c, 11, 5230
15, 21219, Pitch_bend_c, 11, 5182
15, 21220, Pitch_bend_c, 11, 5134
15, 21221, Pitch_bend_c, 11, 5086
15, 21222, Pitch_bend_c, 11, 5045
15, 21223, Pitch_bend_c, 11, 4998
15, 21224, Pitch_bend_c, 11, 4950
15, 21225, Pitch_bend_c, 11, 4902
15, 21226, Pitch_bend_c, 11, 4861
15, 21227, Pitch_bend_c, 11, 4813
15, 21228, Pitch_bend_c, 11, 4772
15, 21229, Pitch_bend_c, 11, 4725
15, 21230, Pitch_bend_c, 11, 4684
15, 21231, Pitch_bend_c, 11, 4643
15, 21232, Pitch_bend_c, 11, 4595
15, 21233, Pitch_bend_c, 11, 4554
15, 21234, Pitch_bend_c, 11, 4513
15, 21235, Pitch_bend_c, 11, 4472
15, 21236, Pitch_bend_c, 11, 4431
15, 21237, Pitch_bend_c, 11, 4383
15, 21238, Pitch_bend_c, 11, 4342
15, 21239, Pitch_bend_c, 11, 4301
15, 21240, Pitch_bend_c, 11, 4267
15, 21241, Pitch_bend_c, 11, 4226
15, 21242, Pitch_bend_c, 11, 4185
15, 21243, Pitch_bend_c, 11, 4144
15, 21244, Pitch_bend_c, 11, 4103
15, 21245, Pitch_bend_c, 11, 4069
15, 21246, Pitch_bend_c, 11, 4028
15, 21247, Pitch_bend_c, 11, 3987
15, 21248, Pitch_bend_c, 11, 3953
15, 21249, Pitch_bend_c, 11, 3912
15, 21250, Pitch_bend_c, 11, 3878
15, 21251, Pitch_bend_c, 11, 3837
15, 21252, Pitch_bend_c, 11, 3803
15, 21253, Pitch_bend_c, 11, 3769
15, 21254, Pitch_bend_c, 11, 3728
15, 21255, Pitch_bend_c, 11, 3694
15, 21256, Pitch_bend_c, 11, 3660
15, 21257, Pitch_bend_c, 11, 3619
15, 21258, Pitch_bend_c, 11, 3584
15, 21259, Pitch_bend_c, 11, 3550
15, 21260, Pitch_bend_c, 11, 3516
15, 21261, Pitch_bend_c, 11, 3482
15, 21262, Pitch_bend_c, 11, 3448
15, 21263, Pitch_bend_c, 11, 3414
15, 21264, Pitch_bend_c, 11, 3380
15, 21265, Pitch_bend_c, 11, 3346
15, 21266, Pitch_bend_c, 11, 3311
15, 21267, Pitch_bend_c, 11, 3277
15, 21268, Pitch_bend_c, 11, 3243
15, 21269, Pitch_bend_c, 11, 3216
15, 21270, Pitch_bend_c, 11, 3182
15, 21271, Pitch_bend_c, 11, 3148
15, 21272, Pitch_bend_c, 11, 3120
15, 21273, Pitch_bend_c, 11, 3086
15, 21274, Pitch_bend_c, 11, 3059
15, 21275, Pitch_bend_c, 11, 3025
15, 21276, Pitch_bend_c, 11, 2991
15, 21277, Pitch_bend_c, 11, 2963
15, 21278, Pitch_bend_c, 11, 2929
15, 21279, Pitch_bend_c, 11, 2902
15, 21280, Pitch_bend_c, 11, 2875
15, 21281, Pitch_bend_c, 11, 2840
15, 21282, Pitch_bend_c, 11, 2813
15, 21283, Pitch_bend_c, 11, 2786
15, 21284, Pitch_bend_c, 11, 2752
15, 21285, Pitch_bend_c, 11, 2724
15, 21286, Pitch_bend_c, 11, 2697
15, 21287, Pitch_bend_c, 11, 2670
15, 21288, Pitch_bend_c, 11, 2642
15, 21289, Pitch_bend_c, 11, 2615
15, 21290, Pitch_bend_c, 11, 2588
15, 21291, Pitch_bend_c, 11, 2560
15, 21292, Pitch_bend_c, 11, 2533
15, 21293, Pitch_bend_c, 11, 2506
15, 21294, Pitch_bend_c, 11, 2479
15, 21295, Pitch_bend_c, 11, 2451
15, 21296, Pitch_bend_c, 11, 2424
15, 21297, Pitch_bend_c, 11, 2397
15, 21298, Pitch_bend_c, 11, 2369
15, 21299, Pitch_bend_c, 11, 2342
15, 21300, Pitch_bend_c, 11, 2322
15, 21301, Pitch_bend_c, 11, 2294
15, 21302, Pitch_bend_c, 11, 2267
15, 21303, Pitch_bend_c, 11, 2240
15, 21304, Pitch_bend_c, 11, 2219
15, 21305, Pitch_bend_c, 11, 2192
15, 21306, Pitch_bend_c, 11, 2171
15, 21307, Pitch_bend_c, 11, 2144
15, 21308, Pitch_bend_c, 11, 2124
15, 21309, Pitch_bend_c, 11, 2096
15, 21310, Pitch_bend_c, 11, 2076
15, 21311, Pitch_bend_c, 11, 2048
15, 21312, Note_off_c, 11, 56, 64
15, 21312, Note_on_c, 11, 46, 127
15, 21312, Pitch_bend_c, 11, 8124
15, 21313, Pitch_bend_c, 11, 8056
15, 21314, Pitch_bend_c, 11, 7988
15, 21315, Pitch_bend_c, 11, 7919
15, 21316, Pitch_bend_c, 11, 7851
15, 21317, Pitch_bend_c, 11, 7783
15, 21318, Pitch_bend_c, 11, 7715
15, 21319, Pitch_bend_c, 11, 7646
15, 21320, Pitch_bend_c, 11, 7585
15, 21321, Pitch_bend_c, 11, 7517
15, 21322, Pitch_bend_c, 11, 7455
15, 21323, Pitch_bend_c, 11, 7387
15, 21324, Pitch_bend_c, 11, 7326
15, 21325, Pitch_bend_c, 11, 7264
15, 21326, Pitch_bend_c, 11, 7203
15, 21327, Pitch_bend_c, 11, 7134
15, 21328, Pitch_bend_c, 11, 7073
15, 21329, Pitch_bend_c, 11, 7011
15, 21330, Pitch_bend_c, 11, 6957
15, 21331, Pitch_bend_c, 11, 6895
15, 21332, Pitch_bend_c, 11, 6834
15, 21333, Pitch_bend_c, 11, 6773
15, 21334, Pitch_bend_c, 11, 6711
15, 21335, Pitch_bend_c, 11, 6656
15, 21336, Pitch_bend_c, 11, 6595
15, 21337, Pitch_bend_c, 11, 6540
15, 21338, Pitch_bend_c, 11, 6486
15, 21339, Pitch_bend_c, 11, 6424
15, 21340, Pitch_bend_c, 11, 6370
15, 21341, Pitch_bend_c, 11, 6315
15, 21342, Pitch_bend_c, 11, 6261
15, 21343, Pitch_bend_c, 11, 6199
15, 21344, Pitch_bend_c, 11, 6144
15, 21345, Pitch_bend_c, 11, 6097
15, 21346, Pitch_bend_c, 11, 6042
15, 21347, Pitch_bend_c, 11, 5987
15, 21348, Pitch_bend_c, 11, 5933
15, 21349, Pitch_bend_c, 11, 5878
15, 21350, Pitch_bend_c, 11, 5830
15, 21351, Pitch_bend_c, 11, 5776
15, 21352, Pitch_bend_c, 11, 5721
15, 21353, Pitch_bend_c, 11, 5673
15, 21354, Pitch_bend_c, 11, 5626
15, 21355, Pitch_bend_c, 11, 5571
15, 21356, Pitch_bend_c, 11, 5523
15, 21357, Pitch_bend_c, 11, 5475
15, 21358, Pitch_bend_c, 11, 5421
15, 21359, Pitch_bend_c, 11, 5373
15, 21360, Pitch_bend_c, 11, 5325
15, 21361, Pitch_bend_c, 11, 5278
15, 21362, Pitch_bend_c, 11, 5230
15, 21363, Pitch_bend_c, 11, 5182
15, 21364, Pitch_bend_c, 11, 5134
15, 21365, Pitch_bend_c, 11, 5086
15, 21366, Pitch_bend_c, 11, 5045
15, 21367, Pitch_bend_c, 11, 4998
15, 21368, Pitch_bend_c, 11, 4950
15, 21369, Pitch_bend_c, 11, 4902
15, 21370, Pitch_bend_c, 11, 4861
15, 21371, Pitch_bend_c, 11, 4813
15, 21372, Pitch_bend_c, 11, 4772
15, 21373, Pitch_bend_c, 11, 4725
15, 21374, Pitch_bend_c, 11, 4684
15, 21375, Pitch_bend_c, 11, 4643
15, 21376, Pitch_bend_c, 11, 4595
15, 21377, Pitch_bend_c, 11, 4554
15, 21378, Pitch_bend_c, 11, 4513
15, 21379, Pitch_bend_c, 11, 4472
15, 21380, Pitch_bend_c, 11, 4431
15, 21381, Pitch_bend_c, 11, 4383
15, 21382, Pitch_bend_c, 11, 4342
15, 21383, Pitch_bend_c, 11, 4301
15, 21384, Pitch_bend_c, 11, 4267
15, 21385, Pitch_bend_c, 11, 4226
15, 21386, Pitch_bend_c, 11, 4185
15, 21387, Pitch_bend_c, 11, 4144
15, 21388, Pitch_bend_c, 11, 4103
15, 21389, Pitch_bend_c, 11, 4069
15, 21390, Pitch_bend_c, 11, 4028
15, 21391, Pitch_bend_c, 11, 3987
15, 21392, Pitch_bend_c, 11, 3953
15, 21393, Pitch_bend_c, 11, 3912
15, 21394, Pitch_bend_c, 11, 3878
15, 21395, Pitch_bend_c, 11, 3837
15, 21396, Pitch_bend_c, 11, 3803
15, 21397, Pitch_bend_c, 11, 3769
15, 21398, Pitch_bend_c, 11, 3728
15, 21399, Pitch_bend_c, 11, 3694
15, 21400, Pitch_bend_c, 11, 3660
15, 21401, Pitch_bend_c, 11, 3619
15, 21402, Pitch_bend_c, 11, 3584
15, 21403, Pitch_bend_c, 11, 3550
15, 21404, Pitch_bend_c, 11, 3516
15, 21405, Pitch_bend_c, 11, 3482
15, 21406, Pitch_bend_c, 11, 3448
15, 21407, Pitch_bend_c, 11, 3414
15, 21408, Pitch_bend_c, 11, 3380
15, 21409, Pitch_bend_c, 11, 3346
15, 21410, Pitch_bend_c, 11, 3311
15, 21411, Pitch_bend_c, 11, 3277
15, 21412, Pitch_bend_c, 11, 3243
15, 21413, Pitch_bend_c, 11, 3216
15, 21414, Pitch_bend_c, 11, 3182
15, 21415, Pitch_bend_c, 11, 3148
15, 21416, Pitch_bend_c, 11, 3120
15, 21417, Pitch_bend_c, 11, 3086
15, 21418, Pitch_bend_c, 11, 3059
15, 21419, Pitch_bend_c, 11, 3025
15, 21420, Pitch_bend_c, 11, 2991
15, 21421, Pitch_bend_c, 11, 2963
15, 21422, Pitch_bend_c, 11, 2929
15, 21423, Pitch_bend_c, 11, 2902
15, 21424, Pitch_bend_c, 11, 2875
15, 21425, Pitch_bend_c, 11, 2840
15, 21426, Pitch_bend_c, 11, 2813
15, 21427, Pitch_bend_c, 11, 2786
15, 21428, Pitch_bend_c, 11, 2752
15, 21429, Pitch_bend_c, 11, 2724
15, 21430, Pitch_bend_c, 11, 2697
15, 21431, Pitch_bend_c, 11, 2670
15, 21432, Pitch_bend_c, 11, 2642
15, 21433, Pitch_bend_c, 11, 2615
15, 21434, Pitch_bend_c, 11, 2588
15, 21435, Pitch_bend_c, 11, 2560
15, 21436, Pitch_bend_c, 11, 2533
15, 21437, Pitch_bend_c, 11, 2506
15, 21438, Pitch_bend_c, 11, 2479
15, 21439, Pitch_bend_c, 11, 2451
15, 21440, Pitch_bend_c, 11, 2424
15, 21441, Pitch_bend_c, 11, 2397
15, 21442, Pitch_bend_c, 11, 2369
15, 21443, Pitch_bend_c, 11, 2342
15, 21444, Pitch_bend_c, 11, 2322
15, 21445, Pitch_bend_c, 11, 2294
15, 21446, Pitch_bend_c, 11, 2267
15, 21447, Pitch_bend_c, 11, 2240
15, 21448, Pitch_bend_c, 11, 2219
15, 21449, Pitch_bend_c, 11, 2192
15, 21450, Pitch_bend_c, 11, 2171
15, 21451, Pitch_bend_c, 11, 2144
15, 21452, Pitch_bend_c, 11, 2124
15, 21453, Pitch_bend_c, 11, 2096
15, 21454, Pitch_bend_c, 11, 2076
15, 21455, Pitch_bend_c, 11, 2048
15, 21456, Note_off_c, 11, 46, 64
15, 21456, Note_on_c, 11, 39, 127
15, 21456, Pitch_bend_c, 11, 8124
15, 21457, Pitch_bend_c, 11, 8056
15, 21458, Pitch_bend_c, 11, 7988
15, 21459, Pitch_bend_c, 11, 7919
15, 21460, Pitch_bend_c, 11, 7851
15, 21461, Pitch_bend_c, 11, 7783
15, 21462, Pitch_bend_c, 11, 7715
15, 21463, Pitch_bend_c, 11, 7646
15, 21464, Pitch_bend_c, 11, 7585
15, 21465, Pitch_bend_c, 11, 7517
15, 21466, Pitch_bend_c, 11, 7455
15, 21467, Pitch_bend_c, 11, 7387
15, 21468, Pitch_bend_c, 11, 7326
15, 21469, Pitch_bend_c, 11, 7264
15, 21470, Pitch_bend_c, 11, 7203
15, 21471, Pitch_bend_c, 11, 7134
15, 21472, Pitch_bend_c, 11, 7073
15, 21473, Pitch_bend_c, 11, 7011
15, 21474, Pitch_bend_c, 11, 6957
15, 21475, Pitch_bend_c, 11, 6895
15, 21476, Pitch_bend_c, 11, 6834
15, 21477, Pitch_bend_c, 11, 6773
15, 21478, Pitch_bend_c, 11, 6711
15, 21479, Pitch_bend_c, 11, 6656
15, 21480, Pitch_bend_c, 11, 6595
15, 21481, Pitch_bend_c, 11, 6540
15, 21482, Pitch_bend_c, 11, 6486
15, 21483, Pitch_bend_c, 11, 6424
15, 21484, Pitch_bend_c, 11, 6370
15, 21485, Pitch_bend_c, 11, 6315
15, 21486, Pitch_bend_c, 11, 6261
15, 21487, Pitch_bend_c, 11, 6199
15, 21488, Pitch_bend_c, 11, 6144
15, 21489, Pitch_bend_c, 11, 6097
15, 21490, Pitch_bend_c, 11, 6042
15, 21491, Pitch_bend_c, 11, 5987
15, 21492, Pitch_bend_c, 11, 5933
15, 21493, Pitch_bend_c, 11, 5878
15, 21494, Pitch_bend_c, 11, 5830
15, 21495, Pitch_bend_c, 11, 5776
15, 21496, Pitch_bend_c, 11, 5721
15, 21497, Pitch_bend_c, 11, 5673
15, 21498, Pitch_bend_c, 11, 5626
15, 21499, Pitch_bend_c, 11, 5571
15, 21500, Pitch_bend_c, 11, 5523
15, 21501, Pitch_bend_c, 11, 5475
15, 21502, Pitch_bend_c, 11, 5421
15, 21503, Pitch_bend_c, 11, 5373
15, 21504, Note_off_c, 11, 39, 64
15, 23808, Note_on_c, 11, 72, 127
15, 23808, Pitch_bend_c, 11, 16322
15, 23809, Pitch_bend_c, 11, 16267
15, 23810, Pitch_bend_c, 11, 16206
15, 23811, Pitch_bend_c, 11, 16151
15, 23812, Pitch_bend_c, 11, 16090
15, 23813, Pitch_bend_c, 11, 16029
15, 23814, Pitch_bend_c, 11, 15974
15, 23815, Pitch_bend_c, 11, 15912
15, 23816, Pitch_bend_c, 11, 15858
15, 23817, Pitch_bend_c, 11, 15796
15, 23818, Pitch_bend_c, 11, 15735
15, 23819, Pitch_bend_c, 11, 15680
15, 23820, Pitch_bend_c, 11, 15619
15, 23821, Pitch_bend_c, 11, 15557
15, 23822, Pitch_bend_c, 11, 15503
15, 23823, Pitch_bend_c, 11, 15441
15, 23824, Pitch_bend_c, 11, 15387
15, 23825, Pitch_bend_c, 11, 15325
15, 23826, Pitch_bend_c, 11, 15271
15, 23827, Pitch_bend_c, 11, 15209
15, 23828, Pitch_bend_c, 11, 15148
15, 23829, Pitch_bend_c, 11, 15093
15, 23830, Pitch_bend_c, 11, 15032
15, 23831, Pitch_bend_c, 11, 14977
15, 23832, Pitch_bend_c, 11, 14916
15, 23833, Pitch_bend_c, 11, 14854
15, 23834, Pitch_bend_c, 11, 14800
15, 23835, Pitch_bend_c, 11, 14738
15, 23836, Pitch_bend_c, 11, 14684
15, 23837, Pitch_bend_c, 11, 14622
15, 23838, Pitch_bend_c, 11, 14568
15, 23839, Pitch_bend_c, 11, 14506
15, 23840, Pitch_bend_c, 11, 14452
15, 23841, Pitch_bend_c, 11, 14390
15, 23842, Pitch_bend_c, 11, 14329
15, 23843, Pitch_bend_c, 11, 14274
15, 23844, Pitch_bend_c, 11, 14213
15, 23845, Pitch_bend_c, 11, 14158
15, 23846, Pitch_bend_c, 11, 14097
15, 23847, Pitch_bend_c, 11, 14042
15, 23848, Pitch_bend_c, 11, 13981
15, 23849, Pitch_bend_c, 11, 13926
15, 23850, Pitch_bend_c, 11, 13864
15, 23851, Pitch_bend_c, 11, 13810
15, 23852, Pitch_bend_c, 11, 13748
15, 23853, Pitch_bend_c, 11, 13694
15, 23854, Pitch_bend_c, 11, 13632
15, 23855, Pitch_bend_c, 11, 13571
15, 23856, Pitch_bend_c, 11, 13516
15, 23857, Pitch_bend_c, 11, 13455
15, 23858, Pitch_bend_c, 11, 13400
15, 23859, Pitch_bend_c, 11, 13339
15, 23860, Pitch_bend_c, 11, 13284
15, 23861, Pitch_bend_c, 11, 13223
15, 23862, Pitch_bend_c, 11, 13168
15, 23863, Pitch_bend_c, 11, 13107
15, 23864, Pitch_bend_c, 11, 13052
15, 23865, Pitch_bend_c, 11, 12991
15, 23866, Pitch_bend_c, 11, 12936
15, 23867, Pitch_bend_c, 11, 12875
15, 23868, Pitch_bend_c, 11, 12820
15, 23869, Pitch_bend_c, 11, 12759
15, 23870, Pitch_bend_c, 11, 12704
15, 23871, Pitch_bend_c, 11, 12642
15, 23872, Pitch_bend_c, 11, 12588
15, 23873, Pitch_bend_c, 11, 12526
15, 23874, Pitch_bend_c, 11, 12472
15, 23875, Pitch_bend_c, 11, 12410
15, 23876, Pitch_bend_c, 11, 12356
15, 23877, Pitch_bend_c, 11, 12294
15, 23878, Pitch_bend_c, 11, 12240
15, 23879, Pitch_bend_c, 11, 12178
15, 23880, Pitch_bend_c, 11, 12124
15, 23881, Pitch_bend_c, 11, 12062
15, 23882, Pitch_bend_c, 11, 12008
15, 23883, Pitch_bend_c, 11, 11946
15, 23884, Pitch_bend_c, 11, 11892
15, 23885, Pitch_bend_c, 11, 11830
15, 23886, Pitch_bend_c, 11, 11776
15, 23887, Pitch_bend_c, 11, 11721
15, 23888, Pitch_bend_c, 11, 11659
15, 23889, Pitch_bend_c, 11, 11605
15, 23890, Pitch_bend_c, 11, 11543
15, 23891, Pitch_bend_c, 11, 11489
15, 23892, Pitch_bend_c, 11, 11427
15, 23893, Pitch_bend_c, 11, 11373
15, 23894, Pitch_bend_c, 11, 11311
15, 23895, Pitch_bend_c, 11, 11257
15, 23896, Pitch_bend_c, 11, 11202
15, 23897, Pitch_bend_c, 11, 11141
15, 23898, Pitch_bend_c, 11, 11086
15, 23899, Pitch_bend_c, 11, 11025
15, 23900, Pitch_bend_c, 11, 10970
15, 23901, Pitch_bend_c, 11, 10909
15, 23902, Pitch_bend_c, 11, 10854
15, 23903, Pitch_bend_c, 11, 10792
15, 23904, Pitch_bend_c, 11, 10738
15, 23905, Pitch_bend_c, 11, 10683
15, 23906, Pitch_bend_c, 11, 10622
15, 23907, Pitch_bend_c, 11, 10567
15, 23908, Pitch_bend_c, 11, 10506
15, 23909, Pitch_bend_c, 11, 10451
15, 23910, Pitch_bend_c, 11, 10397
15, 23911, Pitch_bend_c, 11, 10335
15, 23912, Pitch_bend_c, 11, 10280
15, 23913, Pitch_bend_c, 11, 10219
15, 23914, Pitch_bend_c, 11, 10164
15, 23915, Pitch_bend_c, 11, 10110
15, 23916, Pitch_bend_c, 11, 10048
15, 23917, Pitch_bend_c, 11, 9994
15, 23918, Pitch_bend_c, 11, 9932
15, 23919, Pitch_bend_c, 11, 9878
15, 23920, Pitch_bend_c, 11, 9816
15, 23921, Pitch_bend_c, 11, 9762
15, 23922, Pitch_bend_c, 11, 9707
15, 23923, Pitch_bend_c, 11, 9646
15, 23924, Pitch_bend_c, 11, 9591
15, 23925, Pitch_bend_c, 11, 9536
15, 23926, Pitch_bend_c, 11, 9475
15, 23927, Pitch_bend_c, 11, 9420
15, 23928, Pitch_bend_c, 11, 9359
15, 23929, Pitch_bend_c, 11, 9304
15, 23930, Pitch_bend_c, 11, 9250
15, 23931, Pitch_bend_c, 11, 9188
15, 23932, Pitch_bend_c, 11, 9134
15, 23933, Pitch_bend_c, 11, 9079
15, 23934, Pitch_bend_c, 11, 9018
15, 23935, Pitch_bend_c, 11, 8963
15, 23936, Pitch_bend_c, 11, 8901
15, 23937, Pitch_bend_c, 11, 8847
15, 23938, Pitch_bend_c, 11, 8792
15, 23939, Pitch_bend_c, 11, 8731
15, 23940, Pitch_bend_c, 11, 8676
15, 23941, Pitch_bend_c, 11, 8622
15, 23942, Pitch_bend_c, 11, 8560
15, 23943, Pitch_bend_c, 11, 8506
15, 23944, Pitch_bend_c, 11, 8451
15, 23945, Pitch_bend_c, 11, 8389
15, 23946, Pitch_bend_c, 11, 8335
15, 23947, Pitch_bend_c, 11, 8280
15, 23948, Pitch_bend_c, 11, 8219
15, 23949, Pitch_bend_c, 11, 8165
15, 23950, Pitch_bend_c, 11, 8111
15, 23951, Pitch_bend_c, 11, 8049
15, 23952, Pitch_bend_c, 11, 7995
15, 23953, Pitch_bend_c, 11, 7940
15, 23954, Pitch_bend_c, 11, 7878
15, 23955, Pitch_bend_c, 11, 7824
15, 23956, Pitch_bend_c, 11, 7769
15, 23957, Pitch_bend_c, 11, 7708
15, 23958, Pitch_bend_c, 11, 7653
15, 23959, Pitch_bend_c, 11, 7599
15, 23960, Pitch_bend_c, 11, 7537
15, 23961, Pitch_bend_c, 11, 7483
15, 23962, Pitch_bend_c, 11, 7428
15, 23963, Pitch_bend_c, 11, 7366
15, 23964, Pitch_bend_c, 11, 7312
15, 23965, Pitch_bend_c, 11, 7257
15, 23966, Pitch_bend_c, 11, 7203
15, 23967, Pitch_bend_c, 11, 7141
15, 23968, Pitch_bend_c, 11, 7087
15, 23969, Pitch_bend_c, 11, 7032
15, 23970, Pitch_bend_c, 11, 6971
15, 23971, Pitch_bend_c, 11, 6916
15, 23972, Pitch_bend_c, 11, 6861
15, 23973, Pitch_bend_c, 11, 6807
15, 23974, Pitch_bend_c, 11, 6745
15, 23975, Pitch_bend_c, 11, 6691
15, 23976, Pitch_bend_c, 11, 6636
15, 23977, Pitch_bend_c, 11, 6575
15, 23978, Pitch_bend_c, 11, 6520
15, 23979, Pitch_bend_c, 11, 6465
15, 23980, Pitch_bend_c, 11, 6411
15, 23981, Pitch_bend_c, 11, 6349
15, 23982, Pitch_bend_c, 11, 6295
15, 23983, Pitch_bend_c, 11, 6240
15, 23984, Pitch_bend_c, 11, 6179
15, 23985, Pitch_bend_c, 11, 6124
15, 23986, Pitch_bend_c, 11, 6069
15, 23987, Pitch_bend_c, 11, 6015
15, 23988, Pitch_bend_c, 11, 5953
15, 23989, Pitch_bend_c, 11, 5899
15, 23990, Pitch_bend_c, 11, 5844
15, 23991, Pitch_bend_c, 11, 5790
15, 23992, Pitch_bend_c, 11, 5728
15, 23993, Pitch_bend_c, 11, 5673
15, 23994, Pitch_bend_c, 11, 5619
15, 23995, Pitch_bend_c, 11, 5564
15, 23996, Pitch_bend_c, 11, 5503
15, 23997, Pitch_bend_c, 11, 5448
15, 23998, Pitch_bend_c, 11, 5394
15, 23999, Pitch_bend_c, 11, 5339
15, 24000, Pitch_bend_c, 11, 5278
15, 24001, Pitch_bend_c, 11, 5223
15, 24002, Pitch_bend_c, 11, 5168
15, 24003, Pitch_bend_c, 11, 5114
15, 24004, Pitch_bend_c, 11, 5052
15, 24005, Pitch_bend_c, 11, 4998
15, 24006, Pitch_bend_c, 11, 4943
15, 24007, Pitch_bend_c, 11, 4888
15, 24008, Pitch_bend_c, 11, 4834
15, 24009, Pitch_bend_c, 11, 4772
15, 24010, Pitch_bend_c, 11, 4718
15, 24011, Pitch_bend_c, 11, 4663
15, 24012, Pitch_bend_c, 11, 4608
15, 24013, Pitch_bend_c, 11, 4554
15, 24014, Pitch_bend_c, 11, 4492
15, 24015, Pitch_bend_c, 11, 4438
15, 24016, Pitch_bend_c, 11, 4383
15, 24017, Pitch_bend_c, 11, 4329
15, 24018, Pitch_bend_c, 11, 4267
15, 24019, Pitch_bend_c, 11, 4213
15, 24020, Pitch_bend_c, 11, 4158
15, 24021, Pitch_bend_c, 11, 4103
15, 24022, Pitch_bend_c, 11, 4049
15, 24023, Pitch_bend_c, 11, 3994
15, 24024, Pitch_bend_c, 11, 3933
15, 24025, Pitch_bend_c, 11, 3878
15, 24026, Pitch_bend_c, 11, 3823
15, 24027, Pitch_bend_c, 11, 3769
15, 24028, Pitch_bend_c, 11, 3714
15, 24029, Pitch_bend_c, 11, 3653
15, 24030, Pitch_bend_c, 11, 3598
15, 24031, Pitch_bend_c, 11, 3544
15, 24032, Pitch_bend_c, 11, 3489
15, 24033, Pitch_bend_c, 11, 3434
15, 24034, Pitch_bend_c, 11, 3380
15, 24035, Pitch_bend_c, 11, 3318
15, 24036, Pitch_bend_c, 11, 3264
15, 24037, Pitch_bend_c, 11, 3209
15, 24038, Pitch_bend_c, 11, 3154
15, 24039, Pitch_bend_c, 11, 3100
15, 24040, Pitch_bend_c, 11, 3045
15, 24041, Pitch_bend_c, 11, 2984
15, 24042, Pitch_bend_c, 11, 2929
15, 24043, Pitch_bend_c, 11, 2875
15, 24044, Pitch_bend_c, 11, 2820
15, 24045, Pitch_bend_c, 11, 2765
15, 24046, Pitch_bend_c, 11, 2711
15, 24047, Pitch_bend_c, 11, 2656
15, 24048, Pitch_bend_c, 11, 2595
15, 24049, Pitch_bend_c, 11, 2540
15, 24050, Pitch_bend_c, 11, 2485
15, 24051, Pitch_bend_c, 11, 2431
15, 24052, Pitch_bend_c, 11, 2376
15, 24053, Pitch_bend_c, 11, 2322
15, 24054, Pitch_bend_c, 11, 2267
15, 24055, Pitch_bend_c, 11, 2206
15, 24056, Pitch_bend_c, 11, 2151
15, 24057, Pitch_bend_c, 11, 2096
15, 24058, Pitch_bend_c, 11, 2042
15, 24059, Pitch_bend_c, 11, 1987
15, 24060, Pitch_bend_c, 11, 1932
15, 24061, Pitch_bend_c, 11, 1878
15, 24062, Pitch_bend_c, 11, 1823
15, 24063, Pitch_bend_c, 11, 1769
15, 24064, Pitch_bend_c, 11, 1707
15, 24065, Pitch_bend_c, 11, 1653
15, 24066, Pitch_bend_c, 11, 1598
15, 24067, Pitch_bend_c, 11, 1543
15, 24068, Pitch_bend_c, 11, 1489
15, 24069, Pitch_bend_c, 11, 1434
15, 24070, Pitch_bend_c, 11, 1379
15, 24071, Pitch_bend_c, 11, 1325
15, 24072, Pitch_bend_c, 11, 1270
15, 24073, Pitch_bend_c, 11, 1216
15, 24074, Pitch_bend_c, 11, 1154
15, 24075, Pitch_bend_c, 11, 1100
15, 24076, Pitch_bend_c, 11, 1045
15, 24077, Pitch_bend_c, 11, 990
15, 24078, Pitch_bend_c, 11, 936
15, 24079, Pitch_bend_c, 11, 881
15, 24080, Pitch_bend_c, 11, 827
15, 24081, Pitch_bend_c, 11, 772
15, 24082, Pitch_bend_c, 11, 717
15, 24083, Pitch_bend_c, 11, 663
15, 24084, Pitch_bend_c, 11, 608
15, 24085, Pitch_bend_c, 11, 553
15, 24086, Pitch_bend_c, 11, 499
15, 24087, Pitch_bend_c, 11, 437
15, 24088, Pitch_bend_c, 11, 383
15, 24089, Pitch_bend_c, 11, 328
15, 24090, Pitch_bend_c, 11, 274
15, 24091, Pitch_bend_c, 11, 219
15, 24092, Pitch_bend_c, 11, 164
15, 24093, Pitch_bend_c, 11, 110
15, 24094, Pitch_bend_c, 11, 55
15, 24095, Pitch_bend_c, 11, 0
15, 24096, Pitch_bend_c, 11, 35
15, 24097, Pitch_bend_c, 11, 69
15, 24098, Pitch_bend_c, 11, 103
15, 24099, Pitch_bend_c, 11, 137
15, 24100, Pitch_bend_c, 11, 171
15, 24101, Pitch_bend_c, 11, 205
15, 24102, Pitch_bend_c, 11, 239
15, 24103, Pitch_bend_c, 11, 274
15, 24104, Pitch_bend_c, 11, 308
15, 24105, Pitch_bend_c, 11, 342
15, 24106, Pitch_bend_c, 11, 376
15, 24107, Pitch_bend_c, 11, 410
15, 24108, Pitch_bend_c, 11, 444
15, 24109, Pitch_bend_c, 11, 478
15, 24110, Pitch_bend_c, 11, 512
15, 24111, Pitch_bend_c, 11, 547
15, 24112, Pitch_bend_c, 11, 581
15, 24113, Pitch_bend_c, 11, 615
15, 24114, Pitch_bend_c, 11, 649
15, 24115, Pitch_bend_c, 11, 683
15, 24116, Pitch_bend_c, 11, 717
15, 24117, Pitch_bend_c, 11, 751
15, 24118, Pitch_bend_c, 11, 786
15, 24119, Pitch_bend_c, 11, 820
15, 24120, Pitch_bend_c, 11, 854
15, 24121, Pitch_bend_c, 11, 888
15, 24122, Pitch_bend_c, 11, 922
15, 24123, Pitch_bend_c, 11, 956
15, 24124, Pitch_bend_c, 11, 990
15, 24125, Pitch_bend_c, 11, 1024
15, 24126, Pitch_bend_c, 11, 1059
15, 24127, Pitch_bend_c, 11, 1093
15, 24128, Pitch_bend_c, 11, 1127
15, 24129, Pitch_bend_c, 11, 1161
15, 24130, Pitch_bend_c, 11, 1195
15, 24131, Pitch_bend_c, 11, 1229
15, 24132, Pitch_bend_c, 11, 1263
15, 24133, Pitch_bend_c, 11, 1298
15, 24134, Pitch_bend_c, 11, 1332
15, 24135, Pitch_bend_c, 11, 1366
15, 24136, Pitch_bend_c, 11, 1400
15, 24137, Pitch_bend_c, 11, 1434
15, 24138, Pitch_bend_c, 11, 1468
15, 24139, Pitch_bend_c, 11, 1502
15, 24140, Pitch_bend_c, 11, 1536
15, 24141, Pitch_bend_c, 11, 1571
15, 24142, Pitch_bend_c, 11, 1605
15, 24143, Pitch_bend_c, 11, 1639
15, 24144, Pitch_bend_c, 11, 1673
15, 24145, Pitch_bend_c, 11, 1707
15, 24146, Pitch_bend_c, 11, 1741
15, 24147, Pitch_bend_c, 11, 1775
15, 24148, Pitch_bend_c, 11, 1810
15, 24149, Pitch_bend_c, 11, 1844
15, 24150, Pitch_bend_c, 11, 1878
15, 24151, Pitch_bend_c, 11, 1912
15, 24152, Pitch_bend_c, 11, 1946
15, 24153, Pitch_bend_c, 11, 1980
15, 24154, Pitch_bend_c, 11, 2014
15, 24155, Pitch_bend_c, 11, 2048
15, 24156, Pitch_bend_c, 11, 2083
15, 24157, Pitch_bend_c, 11, 2117
15, 24158, Pitch_bend_c, 11, 2151
15, 24159, Pitch_bend_c, 11, 2185
15, 24160, Pitch_bend_c, 11, 2219
15, 24161, Pitch_bend_c, 11, 2253
15, 24162, Pitch_bend_c, 11, 2287
15, 24163, Pitch_bend_c, 11, 2322
15, 24164, Pitch_bend_c, 11, 2356
15, 24165, Pitch_bend_c, 11, 2390
15, 24166, Pitch_bend_c, 11, 2424
15, 24167, Pitch_bend_c, 11, 2458
15, 24168, Pitch_bend_c, 11, 2492
15, 24169, Pitch_bend_c, 11, 2526
15, 24170, Pitch_bend_c, 11, 2560
15, 24171, Pitch_bend_c, 11, 2595
15, 24172, Pitch_bend_c, 11, 2629
15, 24173, Pitch_bend_c, 11, 2663
15, 24174, Pitch_bend_c, 11, 2697
15, 24175, Pitch_bend_c, 11, 2731
15, 24176, Pitch_bend_c, 11, 2765
15, 24177, Pitch_bend_c, 11, 2799
15, 24178, Pitch_bend_c, 11, 2834
15, 24179, Pitch_bend_c, 11, 2868
15, 24180, Pitch_bend_c, 11, 2902
15, 24181, Pitch_bend_c, 11, 2936
15, 24182, Pitch_bend_c, 11, 2970
15, 24183, Pitch_bend_c, 11, 3004
15, 24184, Pitch_bend_c, 11, 3038
15, 24185, Pitch_bend_c, 11, 3072
15, 24186, Pitch_bend_c, 11, 3107
15, 24187, Pitch_bend_c, 11, 3141
15, 24188, Pitch_bend_c, 11, 3175
15, 24189, Pitch_bend_c, 11, 3209
15, 24190, Pitch_bend_c, 11, 3243
15, 24191, Pitch_bend_c, 11, 3277
15, 24192, Pitch_bend_c, 11, 3311
15, 24193, Pitch_bend_c, 11, 3346
15, 24194, Pitch_bend_c, 11, 3380
15, 24195, Pitch_bend_c, 11, 3414
15, 24196, Pitch_bend_c, 11, 3448
15, 24197, Pitch_bend_c, 11, 3482
15, 24198, Pitch_bend_c, 11, 3516
15, 24199, Pitch_bend_c, 11, 3550
15, 24200, Pitch_bend_c, 11, 3584
15, 24201, Pitch_bend_c, 11, 3619
15, 24202, Pitch_bend_c, 11, 3653
15, 24203, Pitch_bend_c, 11, 3687
15, 24204, Pitch_bend_c, 11, 3721
15, 24205, Pitch_bend_c, 11, 3755
15, 24206, Pitch_bend_c, 11, 3789
15, 24207, Pitch_bend_c, 11, 3823
15, 24208, Pitch_bend_c, 11, 3858
15, 24209, Pitch_bend_c, 11, 3892
15, 24210, Pitch_bend_c, 11, 3926
15, 24211, Pitch_bend_c, 11, 3960
15, 24212, Pitch_bend_c, 11, 3994
15, 24213, Pitch_bend_c, 11, 4028
15, 24214, Pitch_bend_c, 11, 4062
15, 24215, Pitch_bend_c, 11, 4096
15, 24216, Pitch_bend_c, 11, 4131
15, 24217, Pitch_bend_c, 11, 4165
15, 24218, Pitch_bend_c, 11, 4199
15, 24219, Pitch_bend_c, 11, 4233
15, 24220, Pitch_bend_c, 11, 4267
15, 24221, Pitch_bend_c, 11, 4301
15, 24222, Pitch_bend_c, 11, 4335
15, 24223, Pitch_bend_c, 11, 4370
15, 24224, Pitch_bend_c, 11, 4404
15, 24225, Pitch_bend_c, 11, 4438
15, 24226, Pitch_bend_c, 11, 4472
15, 24227, Pitch_bend_c, 11, 4506
15, 24228, Pitch_bend_c, 11, 4540
15, 24229, Pitch_bend_c, 11, 4574
15, 24230, Pitch_bend_c, 11, 4608
15, 24231, Pitch_bend_c, 11, 4643
15, 24232, Pitch_bend_c, 11, 4677
15, 24233, Pitch_bend_c, 11, 4711
15, 24234, Pitch_bend_c, 11, 4745
15, 24235, Pitch_bend_c, 11, 4779
15, 24236, Pitch_bend_c, 11, 4813
15, 24237, Pitch_bend_c, 11, 4847
15, 24238, Pitch_bend_c, 11, 4882
15, 24239, Pitch_bend_c, 11, 4916
15, 24240, Pitch_bend_c, 11, 4950
15, 24241, Pitch_bend_c, 11, 4984
15, 24242, Pitch_bend_c, 11, 5018
15, 24243, Pitch_bend_c, 11, 5052
15, 24244, Pitch_bend_c, 11, 5086
15, 24245, Pitch_bend_c, 11, 5120
15, 24246, Pitch_bend_c, 11, 5155
15, 24247, Pitch_bend_c, 11, 5189
15, 24248, Pitch_bend_c, 11, 5223
15, 24249, Pitch_bend_c, 11, 5257
15, 24250, Pitch_bend_c, 11, 5291
15, 24251, Pitch_bend_c, 11, 5325
15, 24252, Pitch_bend_c, 11, 5359
15, 24253, Pitch_bend_c, 11, 5394
15, 24254, Pitch_bend_c, 11, 5428
15, 24255, Pitch_bend_c, 11, 5462
15, 24256, Pitch_bend_c, 11, 5496
15, 24257, Pitch_bend_c, 11, 5530
15, 24258, Pitch_bend_c, 11, 5564
15, 24259, Pitch_bend_c, 11, 5598
15, 24260, Pitch_bend_c, 11, 5632
15, 24261, Pitch_bend_c, 11, 5667
15, 24262, Pitch_bend_c, 11, 5701
15, 24263, Pitch_bend_c, 11, 5735
15, 24264, Pitch_bend_c, 11, 5769
15, 24265, Pitch_bend_c, 11, 5803
15, 24266, Pitch_bend_c, 11, 5837
15, 24267, Pitch_bend_c, 11, 5871
15, 24268, Pitch_bend_c, 11, 5906
15, 24269, Pitch_bend_c, 11, 5940
15, 24270, Pitch_bend_c, 11, 5974
15, 24271, Pitch_bend_c, 11, 6008
15, 24272, Pitch_bend_c, 11, 6042
15, 24273, Pitch_bend_c, 11, 6076
15, 24274, Pitch_bend_c, 11, 6110
15, 24275, Pitch_bend_c, 11, 6144
15, 24276, Pitch_bend_c, 11, 6179
15, 24277, Pitch_bend_c, 11, 6213
15, 24278, Pitch_bend_c, 11, 6247
15, 24279, Pitch_bend_c, 11, 6281
15, 24280, Pitch_bend_c, 11, 6315
15, 24281, Pitch_bend_c, 11, 6349
15, 24282, Pitch_bend_c, 11, 6383
15, 24283, Pitch_bend_c, 11, 6418
15, 24284, Pitch_bend_c, 11, 6452
15, 24285, Pitch_bend_c, 11, 6486
15, 24286, Pitch_bend_c, 11, 6520
15, 24287, Pitch_bend_c, 11, 6554
15, 24288, Pitch_bend_c, 11, 6588
15, 24289, Pitch_bend_c, 11, 6622
15, 24290, Pitch_bend_c, 11, 6656
15, 24291, Pitch_bend_c, 11, 6691
15, 24292, Pitch_bend_c, 11, 6725
15, 24293, Pitch_bend_c, 11, 6759
15, 24294, Pitch_bend_c, 11, 6793
15, 24295, Pitch_bend_c, 11, 6827
15, 24296, Pitch_bend_c, 11, 6861
15, 24297, Pitch_bend_c, 11, 6895
15, 24298, Pitch_bend_c, 11, 6930
15, 24299, Pitch_bend_c, 11, 6964
15, 24300, Pitch_bend_c, 11, 6998
15, 24301, Pitch_bend_c, 11, 7032
15, 24302, Pitch_bend_c, 11, 7066
15, 24303, Pitch_bend_c, 11, 7100
15, 24304, Pitch_bend_c, 11, 7134
15, 24305, Pitch_bend_c, 11, 7168
15, 24306, Pitch_bend_c, 11, 7203
15, 24307, Pitch_bend_c, 11, 7237
15, 24308, Pitch_bend_c, 11, 7271
15, 24309, Pitch_bend_c, 11, 7305
15, 24310, Pitch_bend_c, 11, 7339
15, 24311, Pitch_bend_c, 11, 7373
15, 24312, Pitch_bend_c, 11, 7407
15, 24313, Pitch_bend_c, 11, 7442
15, 24314, Pitch_bend_c, 11, 7476
15, 24315, Pitch_bend_c, 11, 7510
15, 24316, Pitch_bend_c, 11, 7544
15, 24317, Pitch_bend_c, 11, 7578
15, 24318, Pitch_bend_c, 11, 7612
15, 24319, Pitch_bend_c, 11, 7646
15, 24320, Pitch_bend_c, 11, 7680
15, 24321, Pitch_bend_c, 11, 7715
15, 24322, Pitch_bend_c, 11, 7749
15, 24323, Pitch_bend_c, 11, 7783
15, 24324, Pitch_bend_c, 11, 7817
15, 24325, Pitch_bend_c, 11, 7851
15, 24326, Pitch_bend_c, 11, 7885
15, 24327, Pitch_bend_c, 11, 7919
15, 24328, Pitch_bend_c, 11, 7954
15, 24329, Pitch_bend_c, 11, 7988
15, 24330, Pitch_bend_c, 11, 8022
15, 24331, Pitch_bend_c, 11, 8056
15, 24332, Pitch_bend_c, 11, 8090
15, 24333, Pitch_bend_c, 11, 8124
15, 24334, Pitch_bend_c, 11, 8158
15, 24335, Pitch_bend_c, 11, 8192
15, 24336, Pitch_bend_c, 11, 8226
15, 24337, Pitch_bend_c, 11, 8260
15, 24338, Pitch_bend_c, 11, 8294
15, 24339, Pitch_bend_c, 11, 8328
15, 24340, Pitch_bend_c, 11, 8362
15, 24341, Pitch_bend_c, 11, 8396
15, 24342, Pitch_bend_c, 11, 8430
15, 24343, Pitch_bend_c, 11, 8465
15, 24344, Pitch_bend_c, 11, 8499
15, 24345, Pitch_bend_c, 11, 8533
15, 24346, Pitch_bend_c, 11, 8567
15, 24347, Pitch_bend_c, 11, 8601
15, 24348, Pitch_bend_c, 11, 8635
15, 24349, Pitch_bend_c, 11, 8669
15, 24350, Pitch_bend_c, 11, 8704
15, 24351, Pitch_bend_c, 11, 8738
15, 24352, Pitch_bend_c, 11, 8772
15, 24353, Pitch_bend_c, 11, 8806
15, 24354, Pitch_bend_c, 11, 8840
15, 24355, Pitch_bend_c, 11, 8874
15, 24356, Pitch_bend_c, 11, 8908
15, 24357, Pitch_bend_c, 11, 8942
15, 24358, Pitch_bend_c, 11, 8977
15, 24359, Pitch_bend_c, 11, 9011
15, 24360, Pitch_bend_c, 11, 9045
15, 24361, Pitch_bend_c, 11, 9079
15, 24362, Pitch_bend_c, 11, 9113
15, 24363, Pitch_bend_c, 11, 9147
15, 24364, Pitch_bend_c, 11, 9181
15, 24365, Pitch_bend_c, 11, 9216
15, 24366, Pitch_bend_c, 11, 9250
15, 24367, Pitch_bend_c, 11, 9284
15, 24368, Pitch_bend_c, 11, 9318
15, 24369, Pitch_bend_c, 11, 9352
15, 24370, Pitch_bend_c, 11, 9386
15, 24371, Pitch_bend_c, 11, 9420
15, 24372, Pitch_bend_c, 11, 9454
15, 24373, Pitch_bend_c, 11, 9489
15, 24374, Pitch_bend_c, 11, 9523
15, 24375, Pitch_bend_c, 11, 9557
15, 24376, Pitch_bend_c, 11, 9591
15, 24377, Pitch_bend_c, 11, 9625
15, 24378, Pitch_bend_c, 11, 9659
15, 24379, Pitch_bend_c, 11, 9693
15, 24380, Pitch_bend_c, 11, 9728
15, 24381, Pitch_bend_c, 11, 9762
15, 24382, Pitch_bend_c, 11, 9796
15, 24383, Pitch_bend_c, 11, 9830
15, 24384, Pitch_bend_c, 11, 9864
15, 24385, Pitch_bend_c, 11, 9898
15, 24386, Pitch_bend_c, 11, 9932
15, 24387, Pitch_bend_c, 11, 9966
15, 24388, Pitch_bend_c, 11, 10001
15, 24389, Pitch_bend_c, 11, 10035
15, 24390, Pitch_bend_c, 11, 10069
15, 24391, Pitch_bend_c, 11, 10103
15, 24392, Pitch_bend_c, 11, 10137
15, 24393, Pitch_bend_c, 11, 10171
15, 24394, Pitch_bend_c, 11, 10205
15, 24395, Pitch_bend_c, 11, 10240
15, 24396, Pitch_bend_c, 11, 10274
15, 24397, Pitch_bend_c, 11, 10308
15, 24398, Pitch_bend_c, 11, 10342
15, 24399, Pitch_bend_c, 11, 10376
15, 24400, Pitch_bend_c, 11, 10410
15, 24401, Pitch_bend_c, 11, 10444
15, 24402, Pitch_bend_c, 11, 10478
15, 24403, Pitch_bend_c, 11, 10513
15, 24404, Pitch_bend_c, 11, 10547
15, 24405, Pitch_bend_c, 11, 10581
15, 24406, Pitch_bend_c, 11, 10615
15, 24407, Pitch_bend_c, 11, 10649
15, 24408, Pitch_bend_c, 11, 10683
15, 24409, Pitch_bend_c, 11, 10717
15, 24410, Pitch_bend_c, 11, 10752
15, 24411, Pitch_bend_c, 11, 10786
15, 24412, Pitch_bend_c, 11, 10820
15, 24413, Pitch_bend_c, 11, 10854
15, 24414, Pitch_bend_c, 11, 10888
15, 24415, Pitch_bend_c, 11, 10922
15, 24416, Pitch_bend_c, 11, 10956
15, 24417, Pitch_bend_c, 11, 10990
15, 24418, Pitch_bend_c, 11, 11025
15, 24419, Pitch_bend_c, 11, 11059
15, 24420, Pitch_bend_c, 11, 11093
15, 24421, Pitch_bend_c, 11, 11127
15, 24422, Pitch_bend_c, 11, 11161
15, 24423, Pitch_bend_c, 11, 11195
15, 24424, Pitch_bend_c, 11, 11229
15, 24425, Pitch_bend_c, 11, 11264
15, 24426, Pitch_bend_c, 11, 11298
15, 24427, Pitch_bend_c, 11, 11332
15, 24428, Pitch_bend_c, 11, 11366
15, 24429, Pitch_bend_c, 11, 11400
15, 24430, Pitch_bend_c, 11, 11434
15, 24431, Pitch_bend_c, 11, 11468
15, 24432, Pitch_bend_c, 11, 11502
15, 24433, Pitch_bend_c, 11, 11537
15, 24434, Pitch_bend_c, 11, 11571
15, 24435, Pitch_bend_c, 11, 11605
15, 24436, Pitch_bend_c, 11, 11639
15, 24437, Pitch_bend_c, 11, 11673
15, 24438, Pitch_bend_c, 11, 11707
15, 24439, Pitch_bend_c, 11, 11741
15, 24440, Pitch_bend_c, 11, 11776
15, 24441, Pitch_bend_c, 11, 11810
15, 24442, Pitch_bend_c, 11, 11844
15, 24443, Pitch_bend_c, 11, 11878
15, 24444, Pitch_bend_c, 11, 11912
15, 24445, Pitch_bend_c, 11, 11946
15, 24446, Pitch_bend_c, 11, 11980
15, 24447, Pitch_bend_c, 11, 12014
15, 24448, Pitch_bend_c, 11, 12049
15, 24449, Pitch_bend_c, 11, 12083
15, 24450, Pitch_bend_c, 11, 12117
15, 24451, Pitch_bend_c, 11, 12151
15, 24452, Pitch_bend_c, 11, 12185
15, 24453, Pitch_bend_c, 11, 12219
15, 24454, Pitch_bend_c, 11, 12253
15, 24455, Pitch_bend_c, 11, 12288
15, 24456, Pitch_bend_c, 11, 12322
15, 24457, Pitch_bend_c, 11, 12356
15, 24458, Pitch_bend_c, 11, 12390
15, 24459, Pitch_bend_c, 11, 12424
15, 24460, Pitch_bend_c, 11, 12458
15, 24461, Pitch_bend_c, 11, 12492
15, 24462, Pitch_bend_c, 11, 12526
15, 24463, Pitch_bend_c, 11, 12561
15, 24464, Pitch_bend_c, 11, 12595
15, 24465, Pitch_bend_c, 11, 12629
15, 24466, Pitch_bend_c, 11, 12663
15, 24467, Pitch_bend_c, 11, 12697
15, 24468, Pitch_bend_c, 11, 12731
15, 24469, Pitch_bend_c, 11, 12765
15, 24470, Pitch_bend_c, 11, 12800
15, 24471, Pitch_bend_c, 11, 12834
15, 24472, Pitch_bend_c, 11, 12868
15, 24473, Pitch_bend_c, 11, 12902
15, 24474, Pitch_bend_c, 11, 12936
15, 24475, Pitch_bend_c, 11, 12970
15, 24476, Pitch_bend_c, 11, 13004
15, 24477, Pitch_bend_c, 11, 13038
15, 24478, Pitch_bend_c, 11, 13073
15, 24479, Pitch_bend_c, 11, 13107
15, 24480, Pitch_bend_c, 11, 13141
15, 24481, Pitch_bend_c, 11, 13175
15, 24482, Pitch_bend_c, 11, 13209
15, 24483, Pitch_bend_c, 11, 13243
15, 24484, Pitch_bend_c, 11, 13277
15, 24485, Pitch_bend_c, 11, 13312
15, 24486, Pitch_bend_c, 11, 13346
15, 24487, Pitch_bend_c, 11, 13380
15, 24488, Pitch_bend_c, 11, 13414
15, 24489, Pitch_bend_c, 11, 13448
15, 24490, Pitch_bend_c, 11, 13482
15, 24491, Pitch_bend_c, 11, 13516
15, 24492, Pitch_bend_c, 11, 13550
15, 24493, Pitch_bend_c, 11, 13585
15, 24494, Pitch_bend_c, 11, 13619
15, 24495, Pitch_bend_c, 11, 13653
15, 24496, Pitch_bend_c, 11, 13687
15, 24497, Pitch_bend_c, 11, 13721
15, 24498, Pitch_bend_c, 11, 13755
15, 24499, Pitch_bend_c, 11, 13789
15, 24500, Pitch_bend_c, 11, 13824
15, 24501, Pitch_bend_c, 11, 13858
15, 24502, Pitch_bend_c, 11, 13892
15, 24503, Pitch_bend_c, 11, 13926
15, 24504, Pitch_bend_c, 11, 13960
15, 24505, Pitch_bend_c, 11, 13994
15, 24506, Pitch_bend_c, 11, 14028
15, 24507, Pitch_bend_c, 11, 14062
15, 24508, Pitch_bend_c, 11, 14097
15, 24509, Pitch_bend_c, 11, 14131
15, 24510, Pitch_bend_c, 11, 14165
15, 24511, Pitch_bend_c, 11, 14199
15, 24512, Pitch_bend_c, 11, 14233
15, 24513, Pitch_bend_c, 11, 14267
15, 24514, Pitch_bend_c, 11, 14301
15, 24515, Pitch_bend_c, 11, 14336
15, 24516, Pitch_bend_c, 11, 14370
15, 24517, Pitch_bend_c, 11, 14404
15, 24518, Pitch_bend_c, 11, 14438
15, 24519, Pitch_bend_c, 11, 14472
15, 24520, Pitch_bend_c, 11, 14506
15, 24521, Pitch_bend_c, 11, 14540
15, 24522, Pitch_bend_c, 11, 14574
15, 24523, Pitch_bend_c, 11, 14609
15, 24524, Pitch_bend_c, 11, 14643
15, 24525, Pitch_bend_c, 11, 14677
15, 24526, Pitch_bend_c, 11, 14711
15, 24527, Pitch_bend_c, 11, 14745
15, 24528, Pitch_bend_c, 11, 14779
15, 24529, Pitch_bend_c, 11, 14813
15, 24530, Pitch_bend_c, 11, 14848
15, 24531, Pitch_bend_c, 11, 14882
15, 24532, Pitch_bend_c, 11, 14916
15, 24533, Pitch_bend_c, 11, 14950
15, 24534, Pitch_bend_c, 11, 14984
15, 24535, Pitch_bend_c, 11, 15018
15, 24536, Pitch_bend_c, 11, 15052
15, 24537, Pitch_bend_c, 11, 15086
15, 24538, Pitch_bend_c, 11, 15121
15, 24539, Pitch_bend_c, 11, 15155
15, 24540, Pitch_bend_c, 11, 15189
15, 24541, Pitch_bend_c, 11, 15223
15, 24542, Pitch_bend_c, 11, 15257
15, 24543, Pitch_bend_c, 11, 15291
15, 24544, Pitch_bend_c, 11, 15325
15, 24545, Pitch_bend_c, 11, 15360
15, 24546, Pitch_bend_c, 11, 15394
15, 24547, Pitch_bend_c, 11, 15428
15, 24548, Pitch_bend_c, 11, 15462
15, 24549, Pitch_bend_c, 11, 15496
15, 24550, Pitch_bend_c, 11, 15530
15, 24551, Pitch_bend_c, 11, 15564
15, 24552, Pitch_bend_c, 11, 15598
15, 24553, Pitch_bend_c, 11, 15633
15, 24554, Pitch_bend_c, 11, 15667
15, 24555, Pitch_bend_c, 11, 15701
15, 24556, Pitch_bend_c, 11, 15735
15, 24557, Pitch_bend_c, 11, 15769
15, 24558, Pitch_bend_c, 11, 15803
15, 24559, Pitch_bend_c, 11, 15837
15, 24560, Pitch_bend_c, 11, 15872
15, 24561, Pitch_bend_c, 11, 15906
15, 24562, Pitch_bend_c, 11, 15940
15, 24563, Pitch_bend_c, 11, 15974
15, 24564, Pitch_bend_c, 11, 16008
15, 24565, Pitch_bend_c, 11, 16042
15, 24566, Pitch_bend_c, 11, 16076
15, 24567, Pitch_bend_c, 11, 16110
15, 24568, Pitch_bend_c, 11, 16145
15, 24569, Pitch_bend_c, 11, 16179
15, 24570, Pitch_bend_c, 11, 16213
15, 24571, Pitch_bend_c, 11, 16247
15, 24572, Pitch_bend_c, 11, 16281
15, 24573, Pitch_bend_c, 11, 16315
15, 24574, Pitch_bend_c, 11, 16349
15, 24575, Pitch_bend_c, 11, 16383
15, 24576, Note_off_c, 11, 72, 64
15, 36480, Note_on_c, 11, 62, 92
15, 36481, Pitch_bend_c, 11, 0
15, 36482, Pitch_bend_c, 11, 82
15, 36483, Pitch_bend_c, 11, 171
15, 36484, Pitch_bend_c, 11, 260
15, 36485, Pitch_bend_c, 11, 342
15, 36486, Pitch_bend_c, 11, 431
15, 36487, Pitch_bend_c, 11, 519
15, 36488, Pitch_bend_c, 11, 601
15, 36489, Pitch_bend_c, 11, 690
15, 36490, Pitch_bend_c, 11, 779
15, 36491, Pitch_bend_c, 11, 861
15, 36492, Pitch_bend_c, 11, 949
15, 36493, Pitch_bend_c, 11, 1038
15, 36494, Pitch_bend_c, 11, 1127
15, 36495, Pitch_bend_c, 11, 1209
15, 36496, Pitch_bend_c, 11, 1298
15, 36497, Pitch_bend_c, 11, 1386
15, 36498, Pitch_bend_c, 11, 1468
15, 36499, Pitch_bend_c, 11, 1557
15, 36500, Pitch_bend_c, 11, 1646
15, 36501, Pitch_bend_c, 11, 1728
15, 36502, Pitch_bend_c, 11, 1816
15, 36503, Pitch_bend_c, 11, 1905
15, 36504, Pitch_bend_c, 11, 1994
15, 36505, Pitch_bend_c, 11, 2076
15, 36506, Pitch_bend_c, 11, 2165
15, 36507, Pitch_bend_c, 11, 2253
15, 36508, Pitch_bend_c, 11, 2335
15, 36509, Pitch_bend_c, 11, 2424
15, 36510, Pitch_bend_c, 11, 2513
15, 36511, Pitch_bend_c, 11, 2595
15, 36512, Pitch_bend_c, 11, 2683
15, 36513, Pitch_bend_c, 11, 2772
15, 36514, Pitch_bend_c, 11, 2861
15, 36515, Pitch_bend_c, 11, 2943
15, 36516, Pitch_bend_c, 11, 3032
15, 36517, Pitch_bend_c, 11, 3120
15, 36518, Pitch_bend_c, 11, 3202
15, 36519, Pitch_bend_c, 11, 3291
15, 36520, Pitch_bend_c, 11, 3380
15, 36521, Pitch_bend_c, 11, 3462
15, 36522, Pitch_bend_c, 11, 3550
15, 36523, Pitch_bend_c, 11, 3639
15, 36524, Pitch_bend_c, 11, 3728
15, 36525, Pitch_bend_c, 11, 3810
15, 36526, Pitch_bend_c, 11, 3899
15, 36527, Pitch_bend_c, 11, 3987
15, 36528, Pitch_bend_c, 11, 4069
15, 36529, Pitch_bend_c, 11, 4158
15, 36530, Pitch_bend_c, 11, 4247
15, 36531, Pitch_bend_c, 11, 4329
15, 36532, Pitch_bend_c, 11, 4417
15, 36533, Pitch_bend_c, 11, 4506
15, 36534, Pitch_bend_c, 11, 4595
15, 36535, Pitch_bend_c, 11, 4677
15, 36536, Pitch_bend_c, 11, 4766
15, 36537, Pitch_bend_c, 11, 4854
15, 36538, Pitch_bend_c, 11, 4936
15, 36539, Pitch_bend_c, 11, 5025
15, 36540, Pitch_bend_c, 11, 5114
15, 36541, Pitch_bend_c, 11, 5196
15, 36542, Pitch_bend_c, 11, 5284
15, 36543, Pitch_bend_c, 11, 5373
15, 36544, Pitch_bend_c, 11, 5462
15, 36545, Pitch_bend_c, 11, 5544
15, 36546, Pitch_bend_c, 11, 5632
15, 36547, Pitch_bend_c, 11, 5721
15, 36548, Pitch_bend_c, 11, 5803
15, 36549, Pitch_bend_c, 11, 5892
15, 36550, Pitch_bend_c, 11, 5981
15, 36551, Pitch_bend_c, 11, 6063
15, 36552, Pitch_bend_c, 11, 6151
15, 36553, Pitch_bend_c, 11, 6240
15, 36554, Pitch_bend_c, 11, 6322
15, 36555, Pitch_bend_c, 11, 6411
15, 36556, Pitch_bend_c, 11, 6499
15, 36557, Pitch_bend_c, 11, 6588
15, 36558, Pitch_bend_c, 11, 6670
15, 36559, Pitch_bend_c, 11, 6759
15, 36560, Pitch_bend_c, 11, 6848
15, 36561, Pitch_bend_c, 11, 6930
15, 36562, Pitch_bend_c, 11, 7018
15, 36563, Pitch_bend_c, 11, 7107
15, 36564, Pitch_bend_c, 11, 7189
15, 36565, Pitch_bend_c, 11, 7278
15, 36566, Pitch_bend_c, 11, 7366
15, 36567, Pitch_bend_c, 11, 7455
15, 36568, Pitch_bend_c, 11, 7537
15, 36569, Pitch_bend_c, 11, 7626
15, 36570, Pitch_bend_c, 11, 7715
15, 36571, Pitch_bend_c, 11, 7797
15, 36572, Pitch_bend_c, 11, 7885
15, 36573, Pitch_bend_c, 11, 7974
15, 36574, Pitch_bend_c, 11, 8056
15, 36575, Pitch_bend_c, 11, 8145
15, 36576, Pitch_bend_c, 11, 8232
15, 36577, Pitch_bend_c, 11, 8321
15, 36578, Pitch_bend_c, 11, 8403
15, 36579, Pitch_bend_c, 11, 8492
15, 36580, Pitch_bend_c, 11, 8581
15, 36581, Pitch_bend_c, 11, 8663
15, 36582, Pitch_bend_c, 11, 8751
15, 36583, Pitch_bend_c, 11, 8840
15, 36584, Pitch_bend_c, 11, 8922
15, 36585, Pitch_bend_c, 11, 9011
15, 36586, Pitch_bend_c, 11, 9099
15, 36587, Pitch_bend_c, 11, 9188
15, 36588, Pitch_bend_c, 11, 9270
15, 36589, Pitch_bend_c, 11, 9359
15, 36590, Pitch_bend_c, 11, 9448
15, 36591, Pitch_bend_c, 11, 9530
15, 36592, Pitch_bend_c, 11, 9618
15, 36593, Pitch_bend_c, 11, 9707
15, 36594, Pitch_bend_c, 11, 9789
15, 36595, Pitch_bend_c, 11, 9878
15, 36596, Pitch_bend_c, 11, 9966
15, 36597, Pitch_bend_c, 11, 10055
15, 36598, Pitch_bend_c, 11, 10137
15, 36599, Pitch_bend_c, 11, 10226
15, 36600, Pitch_bend_c, 11, 10315
15, 36601, Pitch_bend_c, 11, 10397
15, 36602, Pitch_bend_c, 11, 10485
15, 36603, Pitch_bend_c, 11, 10574
15, 36604, Pitch_bend_c, 11, 10656
15, 36605, Pitch_bend_c, 11, 10745
15, 36606, Pitch_bend_c, 11, 10833
15, 36607, Pitch_bend_c, 11, 10922
15, 36608, Pitch_bend_c, 11, 11004
15, 36609, Pitch_bend_c, 11, 11093
15, 36610, Pitch_bend_c, 11, 11182
15, 36611, Pitch_bend_c, 11, 11264
15, 36612, Pitch_bend_c, 11, 11352
15, 36613, Pitch_bend_c, 11, 11441
15, 36614, Pitch_bend_c, 11, 11523
15, 36615, Pitch_bend_c, 11, 11612
15, 36616, Pitch_bend_c, 11, 11700
15, 36617, Pitch_bend_c, 11, 11782
15, 36618, Pitch_bend_c, 11, 11871
15, 36619, Pitch_bend_c, 11, 11960
15, 36620, Pitch_bend_c, 11, 12049
15, 36621, Pitch_bend_c, 11, 12130
15, 36622, Pitch_bend_c, 11, 12219
15, 36623, Pitch_bend_c, 11, 12308
15, 36624, Pitch_bend_c, 11, 12390
15, 36625, Pitch_bend_c, 11, 12479
15, 36626, Pitch_bend_c, 11, 12567
15, 36627, Pitch_bend_c, 11, 12649
15, 36628, Pitch_bend_c, 11, 12738
15, 36629, Pitch_bend_c, 11, 12827
15, 36630, Pitch_bend_c, 11, 12916
15, 36631, Pitch_bend_c, 11, 12997
15, 36632, Pitch_bend_c, 11, 13086
15, 36633, Pitch_bend_c, 11, 13175
15, 36634, Pitch_bend_c, 11, 13257
15, 36635, Pitch_bend_c, 11, 13346
15, 36636, Pitch_bend_c, 11, 13434
15, 36637, Pitch_bend_c, 11, 13516
15, 36638, Pitch_bend_c, 11, 13605
15, 36639, Pitch_bend_c, 11, 13694
15, 36640, Pitch_bend_c, 11, 13783
15, 36641, Pitch_bend_c, 11, 13864
15, 36642, Pitch_bend_c, 11, 13953
15, 36643, Pitch_bend_c, 11, 14042
15, 36644, Pitch_bend_c, 11, 14124
15, 36645, Pitch_bend_c, 11, 14213
15, 36646, Pitch_bend_c, 11, 14301
15, 36647, Pitch_bend_c, 11, 14383
15, 36648, Pitch_bend_c, 11, 14472
15, 36649, Pitch_bend_c, 11, 14561
15, 36650, Pitch_bend_c, 11, 14650
15, 36651, Pitch_bend_c, 11, 14731
15, 36652, Pitch_bend_c, 11, 14820
15, 36653, Pitch_bend_c, 11, 14909
15, 36654, Pitch_bend_c, 11, 14991
15, 36655, Pitch_bend_c, 11, 15080
15, 36656, Pitch_bend_c, 11, 15168
15, 36657, Pitch_bend_c, 11, 15250
15, 36658, Pitch_bend_c, 11, 15339
15, 36659, Pitch_bend_c, 11, 15428
15, 36660, Pitch_bend_c, 11, 15517
15, 36661, Pitch_bend_c, 11, 15598
15, 36662, Pitch_bend_c, 11, 15687
15, 36663, Pitch_bend_c, 11, 15776
15, 36664, Pitch_bend_c, 11, 15858
15, 36665, Pitch_bend_c, 11, 15947
15, 36666, Pitch_bend_c, 11, 16035
15, 36667, Pitch_bend_c, 11, 16117
15, 36668, Pitch_bend_c, 11, 16206
15, 36669, Pitch_bend_c, 11, 16295
15, 36670, Pitch_bend_c, 11, 16383
15, 36671, Pitch_bend_c, 11, 16383
15, 36672, Note_off_c, 11, 62, 64
15, 36672, Pitch_bend_c, 11, 424
15, 36672, Note_on_c, 11, 86, 92
15, 36673, Pitch_bend_c, 11, 82
15, 36674, Pitch_bend_c, 11, 171
15, 36675, Pitch_bend_c, 11, 253
15, 36676, Pitch_bend_c, 11, 342
15, 36677, Pitch_bend_c, 11, 424
15, 36678, Pitch_bend_c, 11, 512
15, 36679, Pitch_bend_c, 11, 594
15, 36680, Pitch_bend_c, 11, 683
15, 36681, Pitch_bend_c, 11, 772
15, 36682, Pitch_bend_c, 11, 854
15, 36683, Pitch_bend_c, 11, 943
15, 36684, Pitch_bend_c, 11, 1024
15, 36685, Pitch_bend_c, 11, 1113
15, 36686, Pitch_bend_c, 11, 1195
15, 36687, Pitch_bend_c, 11, 1284
15, 36688, Pitch_bend_c, 11, 1373
15, 36689, Pitch_bend_c, 11, 1455
15, 36690, Pitch_bend_c, 11, 1543
15, 36691, Pitch_bend_c, 11, 1625
15, 36692, Pitch_bend_c, 11, 1714
15, 36693, Pitch_bend_c, 11, 1796
15, 36694, Pitch_bend_c, 11, 1885
15, 36695, Pitch_bend_c, 11, 1973
15, 36696, Pitch_bend_c, 11, 2055
15, 36697, Pitch_bend_c, 11, 2144
15, 36698, Pitch_bend_c, 11, 2226
15, 36699, Pitch_bend_c, 11, 2315
15, 36700, Pitch_bend_c, 11, 2397
15, 36701, Pitch_bend_c, 11, 2485
15, 36702, Pitch_bend_c, 11, 2567
15, 36703, Pitch_bend_c, 11, 2656
15, 36704, Pitch_bend_c, 11, 2745
15, 36705, Pitch_bend_c, 11, 2827
15, 36706, Pitch_bend_c, 11, 2915
15, 36707, Pitch_bend_c, 11, 2997
15, 36708, Pitch_bend_c, 11, 3086
15, 36709, Pitch_bend_c, 11, 3168
15, 36710, Pitch_bend_c, 11, 3257
15, 36711, Pitch_bend_c, 11, 3346
15, 36712, Pitch_bend_c, 11, 3427
15, 36713, Pitch_bend_c, 11, 3516
15, 36714, Pitch_bend_c, 11, 3598
15, 36715, Pitch_bend_c, 11, 3687
15, 36716, Pitch_bend_c, 11, 3769
15, 36717, Pitch_bend_c, 11, 3858
15, 36718, Pitch_bend_c, 11, 3946
15, 36719, Pitch_bend_c, 11, 4028
15, 36720, Pitch_bend_c, 11, 4117
15, 36721, Pitch_bend_c, 11, 4199
15, 36722, Pitch_bend_c, 11, 4288
15, 36723, Pitch_bend_c, 11, 4370
15, 36724, Pitch_bend_c, 11, 4458
15, 36725, Pitch_bend_c, 11, 4540
15, 36726, Pitch_bend_c, 11, 4629
15, 36727, Pitch_bend_c, 11, 4718
15, 36728, Pitch_bend_c, 11, 4800
15, 36729, Pitch_bend_c, 11, 4888
15, 36730, Pitch_bend_c, 11, 4970
15, 36731, Pitch_bend_c, 11, 5059
15, 36732, Pitch_bend_c, 11, 5141
15, 36733, Pitch_bend_c, 11, 5230
15, 36734, Pitch_bend_c, 11, 5318
15, 36735, Pitch_bend_c, 11, 5400
15, 36736, Pitch_bend_c, 11, 5489
15, 36737, Pitch_bend_c, 11, 5571
15, 36738, Pitch_bend_c, 11, 5660
15, 36739, Pitch_bend_c, 11, 5742
15, 36740, Pitch_bend_c, 11, 5830
15, 36741, Pitch_bend_c, 11, 5919
15, 36742, Pitch_bend_c, 11, 6001
15, 36743, Pitch_bend_c, 11, 6090
15, 36744, Pitch_bend_c, 11, 6172
15, 36745, Pitch_bend_c, 11, 6261
15, 36746, Pitch_bend_c, 11, 6342
15, 36747, Pitch_bend_c, 11, 6431
15, 36748, Pitch_bend_c, 11, 6513
15, 36749, Pitch_bend_c, 11, 6602
15, 36750, Pitch_bend_c, 11, 6691
15, 36751, Pitch_bend_c, 11, 6773
15, 36752, Pitch_bend_c, 11, 6861
15, 36753, Pitch_bend_c, 11, 6943
15, 36754, Pitch_bend_c, 11, 7032
15, 36755, Pitch_bend_c, 11, 7114
15, 36756, Pitch_bend_c, 11, 7203
15, 36757, Pitch_bend_c, 11, 7291
15, 36758, Pitch_bend_c, 11, 7373
15, 36759, Pitch_bend_c, 11, 7462
15, 36760, Pitch_bend_c, 11, 7544
15, 36761, Pitch_bend_c, 11, 7633
15, 36762, Pitch_bend_c, 11, 7715
15, 36763, Pitch_bend_c, 11, 7803
15, 36764, Pitch_bend_c, 11, 7892
15, 36765, Pitch_bend_c, 11, 7974
15, 36766, Pitch_bend_c, 11, 8063
15, 36767, Pitch_bend_c, 11, 8145
15, 36768, Pitch_bend_c, 11, 8232
15, 36769, Pitch_bend_c, 11, 8314
15, 36770, Pitch_bend_c, 11, 8403
15, 36771, Pitch_bend_c, 11, 8485
15, 36772, Pitch_bend_c, 11, 8574
15, 36773, Pitch_bend_c, 11, 8663
15, 36774, Pitch_bend_c, 11, 8744
15, 36775, Pitch_bend_c, 11, 8833
15, 36776, Pitch_bend_c, 11, 8915
15, 36777, Pitch_bend_c, 11, 9004
15, 36778, Pitch_bend_c, 11, 9086
15, 36779, Pitch_bend_c, 11, 9175
15, 36780, Pitch_bend_c, 11, 9263
15, 36781, Pitch_bend_c, 11, 9345
15, 36782, Pitch_bend_c, 11, 9434
15, 36783, Pitch_bend_c, 11, 9516
15, 36784, Pitch_bend_c, 11, 9605
15, 36785, Pitch_bend_c, 11, 9687
15, 36786, Pitch_bend_c, 11, 9775
15, 36787, Pitch_bend_c, 11, 9864
15, 36788, Pitch_bend_c, 11, 9946
15, 36789, Pitch_bend_c, 11, 10035
15, 36790, Pitch_bend_c, 11, 10117
15, 36791, Pitch_bend_c, 11, 10205
15, 36792, Pitch_bend_c, 11, 10287
15, 36793, Pitch_bend_c, 11, 10376
15, 36794, Pitch_bend_c, 11, 10458
15, 36795, Pitch_bend_c, 11, 10547
15, 36796, Pitch_bend_c, 11, 10635
15, 36797, Pitch_bend_c, 11, 10717
15, 36798, Pitch_bend_c, 11, 10806
15, 36799, Pitch_bend_c, 11, 10888
15, 36800, Pitch_bend_c, 11, 10977
15, 36801, Pitch_bend_c, 11, 11059
15, 36802, Pitch_bend_c, 11, 11147
15, 36803, Pitch_bend_c, 11, 11236
15, 36804, Pitch_bend_c, 11, 11318
15, 36805, Pitch_bend_c, 11, 11407
15, 36806, Pitch_bend_c, 11, 11489
15, 36807, Pitch_bend_c, 11, 11578
15, 36808, Pitch_bend_c, 11, 11659
15, 36809, Pitch_bend_c, 11, 11748
15, 36810, Pitch_bend_c, 11, 11837
15, 36811, Pitch_bend_c, 11, 11919
15, 36812, Pitch_bend_c, 11, 12008
15, 36813, Pitch_bend_c, 11, 12090
15, 36814, Pitch_bend_c, 11, 12178
15, 36815, Pitch_bend_c, 11, 12260
15, 36816, Pitch_bend_c, 11, 12349
15, 36817, Pitch_bend_c, 11, 12431
15, 36818, Pitch_bend_c, 11, 12520
15, 36819, Pitch_bend_c, 11, 12608
15, 36820, Pitch_bend_c, 11, 12690
15, 36821, Pitch_bend_c, 11, 12779
15, 36822, Pitch_bend_c, 11, 12861
15, 36823, Pitch_bend_c, 11, 12950
15, 36824, Pitch_bend_c, 11, 13032
15, 36825, Pitch_bend_c, 11, 13120
15, 36826, Pitch_bend_c, 11, 13209
15, 36827, Pitch_bend_c, 11, 13291
15, 36828, Pitch_bend_c, 11, 13380
15, 36829, Pitch_bend_c, 11, 13462
15, 36830, Pitch_bend_c, 11, 13550
15, 36831, Pitch_bend_c, 11, 13632
15, 36832, Pitch_bend_c, 11, 13721
15, 36833, Pitch_bend_c, 11, 13810
15, 36834, Pitch_bend_c, 11, 13892
15, 36835, Pitch_bend_c, 11, 13981
15, 36836, Pitch_bend_c, 11, 14062
15, 36837, Pitch_bend_c, 11, 14151
15, 36838, Pitch_bend_c, 11, 14233
15, 36839, Pitch_bend_c, 11, 14704
15, 36840, Pitch_bend_c, 11, 14820
15, 36841, Pitch_bend_c, 11, 14936
15, 36842, Pitch_bend_c, 11, 15052
15, 36843, Pitch_bend_c, 11, 15168
15, 36844, Pitch_bend_c, 11, 15291
15, 36845, Pitch_bend_c, 11, 15407
15, 36846, Pitch_bend_c, 11, 15523
15, 36847, Pitch_bend_c, 11, 15639
15, 36848, Pitch_bend_c, 11, 15762
15, 36849, Pitch_bend_c, 11, 15878
15, 36850, Pitch_bend_c, 11, 15994
15, 36851, Pitch_bend_c, 11, 16110
15, 36852, Pitch_bend_c, 11, 16233
15, 36853, Pitch_bend_c, 11, 16349
15, 36854, Pitch_bend_c, 11, 16383
15, 36855, Pitch_bend_c, 11, 16383
15, 36856, Pitch_bend_c, 11, 16383
15, 36857, Pitch_bend_c, 11, 16383
15, 36858, Pitch_bend_c, 11, 16383
15, 36859, Pitch_bend_c, 11, 16383
15, 36860, Pitch_bend_c, 11, 16383
15, 36861, Pitch_bend_c, 11, 16383
15, 36862, Pitch_bend_c, 11, 16383
15, 36863, Pitch_bend_c, 11, 16383
15, 36864, Note_off_c, 11, 86, 64
15, 36864, Pitch_bend_c, 11, 8403
15, 36865, Pitch_bend_c, 11, 8335
15, 36866, Pitch_bend_c, 11, 8267
15, 36867, Pitch_bend_c, 11, 8192
15, 36868, Pitch_bend_c, 11, 8403
15, 36871, Pitch_bend_c, 11, 8192
15, 42240, Note_on_c, 11, 72, 127
15, 42240, Pitch_bend_c, 11, 16322
15, 42241, Pitch_bend_c, 11, 16267
15, 42242, Pitch_bend_c, 11, 16206
15, 42243, Pitch_bend_c, 11, 16151
15, 42244, Pitch_bend_c, 11, 16090
15, 42245, Pitch_bend_c, 11, 16029
15, 42246, Pitch_bend_c, 11, 15974
15, 42247, Pitch_bend_c, 11, 15912
15, 42248, Pitch_bend_c, 11, 15858
15, 42249, Pitch_bend_c, 11, 15796
15, 42250, Pitch_bend_c, 11, 15735
15, 42251, Pitch_bend_c, 11, 15680
15, 42252, Pitch_bend_c, 11, 15619
15, 42253, Pitch_bend_c, 11, 15557
15, 42254, Pitch_bend_c, 11, 15503
15, 42255, Pitch_bend_c, 11, 15441
15, 42256, Pitch_bend_c, 11, 15387
15, 42257, Pitch_bend_c, 11, 15325
15, 42258, Pitch_bend_c, 11, 15271
15, 42259, Pitch_bend_c, 11, 15209
15, 42260, Pitch_bend_c, 11, 15148
15, 42261, Pitch_bend_c, 11, 15093
15, 42262, Pitch_bend_c, 11, 15032
15, 42263, Pitch_bend_c, 11, 14977
15, 42264, Pitch_bend_c, 11, 14916
15, 42265, Pitch_bend_c, 11, 14854
15, 42266, Pitch_bend_c, 11, 14800
15, 42267, Pitch_bend_c, 11, 14738
15, 42268, Pitch_bend_c, 11, 14684
15, 42269, Pitch_bend_c, 11, 14622
15, 42270, Pitch_bend_c, 11, 14568
15, 42271, Pitch_bend_c, 11, 14506
15, 42272, Pitch_bend_c, 11, 14452
15, 42273, Pitch_bend_c, 11, 14390
15, 42274, Pitch_bend_c, 11, 14329
15, 42275, Pitch_bend_c, 11, 14274
15, 42276, Pitch_bend_c, 11, 14213
15, 42277, Pitch_bend_c, 11, 14158
15, 42278, Pitch_bend_c, 11, 14097
15, 42279, Pitch_bend_c, 11, 14042
15, 42280, Pitch_bend_c, 11, 13981
15, 42281, Pitch_bend_c, 11, 13926
15, 42282, Pitch_bend_c, 11, 13864
15, 42283, Pitch_bend_c, 11, 13810
15, 42284, Pitch_bend_c, 11, 13748
15, 42285, Pitch_bend_c, 11, 13694
15, 42286, Pitch_bend_c, 11, 13632
15, 42287, Pitch_bend_c, 11, 13571
15, 42288, Pitch_bend_c, 11, 13516
15, 42289, Pitch_bend_c, 11, 13455
15, 42290, Pitch_bend_c, 11, 13400
15, 42291, Pitch_bend_c, 11, 13339
15, 42292, Pitch_bend_c, 11, 13284
15, 42293, Pitch_bend_c, 11, 13223
15, 42294, Pitch_bend_c, 11, 13168
15, 42295, Pitch_bend_c, 11, 13107
15, 42296, Pitch_bend_c, 11, 13052
15, 42297, Pitch_bend_c, 11, 12991
15, 42298, Pitch_bend_c, 11, 12936
15, 42299, Pitch_bend_c, 11, 12875
15, 42300, Pitch_bend_c, 11, 12820
15, 42301, Pitch_bend_c, 11, 12759
15, 42302, Pitch_bend_c, 11, 12704
15, 42303, Pitch_bend_c, 11, 12642
15, 42304, Pitch_bend_c, 11, 12588
15, 42305, Pitch_bend_c, 11, 12526
15, 42306, Pitch_bend_c, 11, 12472
15, 42307, Pitch_bend_c, 11, 12410
15, 42308, Pitch_bend_c, 11, 12356
15, 42309, Pitch_bend_c, 11, 12294
15, 42310, Pitch_bend_c, 11, 12240
15, 42311, Pitch_bend_c, 11, 12178
15, 42312, Pitch_bend_c, 11, 12124
15, 42313, Pitch_bend_c, 11, 12062
15, 42314, Pitch_bend_c, 11, 12008
15, 42315, Pitch_bend_c, 11, 11946
15, 42316, Pitch_bend_c, 11, 11892
15, 42317, Pitch_bend_c, 11, 11830
15, 42318, Pitch_bend_c, 11, 11776
15, 42319, Pitch_bend_c, 11, 11721
15, 42320, Pitch_bend_c, 11, 11659
15, 42321, Pitch_bend_c, 11, 11605
15, 42322, Pitch_bend_c, 11, 11543
15, 42323, Pitch_bend_c, 11, 11489
15, 42324, Pitch_bend_c, 11, 11427
15, 42325, Pitch_bend_c, 11, 11373
15, 42326, Pitch_bend_c, 11, 11311
15, 42327, Pitch_bend_c, 11, 11257
15, 42328, Pitch_bend_c, 11, 11202
15, 42329, Pitch_bend_c, 11, 11141
15, 42330, Pitch_bend_c, 11, 11086
15, 42331, Pitch_bend_c, 11, 11025
15, 42332, Pitch_bend_c, 11, 10970
15, 42333, Pitch_bend_c, 11, 10909
15, 42334, Pitch_bend_c, 11, 10854
15, 42335, Pitch_bend_c, 11, 10792
15, 42336, Pitch_bend_c, 11, 10738
15, 42337, Pitch_bend_c, 11, 10683
15, 42338, Pitch_bend_c, 11, 10622
15, 42339, Pitch_bend_c, 11, 10567
15, 42340, Pitch_bend_c, 11, 10506
15, 42341, Pitch_bend_c, 11, 10451
15, 42342, Pitch_bend_c, 11, 10397
15, 42343, Pitch_bend_c, 11, 10335
15, 42344, Pitch_bend_c, 11, 10280
15, 42345, Pitch_bend_c, 11, 10219
15, 42346, Pitch_bend_c, 11, 10164
15, 42347, Pitch_bend_c, 11, 10110
15, 42348, Pitch_bend_c, 11, 10048
15, 42349, Pitch_bend_c, 11, 9994
15, 42350, Pitch_bend_c, 11, 9932
15, 42351, Pitch_bend_c, 11, 9878
15, 42352, Pitch_bend_c, 11, 9816
15, 42353, Pitch_bend_c, 11, 9762
15, 42354, Pitch_bend_c, 11, 9707
15, 42355, Pitch_bend_c, 11, 9646
15, 42356, Pitch_bend_c, 11, 9591
15, 42357, Pitch_bend_c, 11, 9536
15, 42358, Pitch_bend_c, 11, 9475
15, 42359, Pitch_bend_c, 11, 9420
15, 42360, Pitch_bend_c, 11, 9359
15, 42361, Pitch_bend_c, 11, 9304
15, 42362, Pitch_bend_c, 11, 9250
15, 42363, Pitch_bend_c, 11, 9188
15, 42364, Pitch_bend_c, 11, 9134
15, 42365, Pitch_bend_c, 11, 9079
15, 42366, Pitch_bend_c, 11, 9018
15, 42367, Pitch_bend_c, 11, 8963
15, 42368, Pitch_bend_c, 11, 8901
15, 42369, Pitch_bend_c, 11, 8847
15, 42370, Pitch_bend_c, 11, 8792
15, 42371, Pitch_bend_c, 11, 8731
15, 42372, Pitch_bend_c, 11, 8676
15, 42373, Pitch_bend_c, 11, 8622
15, 42374, Pitch_bend_c, 11, 8560
15, 42375, Pitch_bend_c, 11, 8506
15, 42376, Pitch_bend_c, 11, 8451
15, 42377, Pitch_bend_c, 11, 8389
15, 42378, Pitch_bend_c, 11, 8335
15, 42379, Pitch_bend_c, 11, 8280
15, 42380, Pitch_bend_c, 11, 8219
15, 42381, Pitch_bend_c, 11, 8165
15, 42382, Pitch_bend_c, 11, 8111
15, 42383, Pitch_bend_c, 11, 8049
15, 42384, Pitch_bend_c, 11, 7995
15, 42385, Pitch_bend_c, 11, 7940
15, 42386, Pitch_bend_c, 11, 7878
15, 42387, Pitch_bend_c, 11, 7824
15, 42388, Pitch_bend_c, 11, 7769
15, 42389, Pitch_bend_c, 11, 7708
15, 42390, Pitch_bend_c, 11, 7653
15, 42391, Pitch_bend_c, 11, 7599
15, 42392, Pitch_bend_c, 11, 7537
15, 42393, Pitch_bend_c, 11, 7483
15, 42394, Pitch_bend_c, 11, 7428
15, 42395, Pitch_bend_c, 11, 7366
15, 42396, Pitch_bend_c, 11, 7312
15, 42397, Pitch_bend_c, 11, 7257
15, 42398, Pitch_bend_c, 11, 7203
15, 42399, Pitch_bend_c, 11, 7141
15, 42400, Pitch_bend_c, 11, 7087
15, 42401, Pitch_bend_c, 11, 7032
15, 42402, Pitch_bend_c, 11, 6971
15, 42403, Pitch_bend_c, 11, 6916
15, 42404, Pitch_bend_c, 11, 6861
15, 42405, Pitch_bend_c, 11, 6807
15, 42406, Pitch_bend_c, 11, 6745
15, 42407, Pitch_bend_c, 11, 6691
15, 42408, Pitch_bend_c, 11, 6636
15, 42409, Pitch_bend_c, 11, 6575
15, 42410, Pitch_bend_c, 11, 6520
15, 42411, Pitch_bend_c, 11, 6465
15, 42412, Pitch_bend_c, 11, 6411
15, 42413, Pitch_bend_c, 11, 6349
15, 42414, Pitch_bend_c, 11, 6295
15, 42415, Pitch_bend_c, 11, 6240
15, 42416, Pitch_bend_c, 11, 6179
15, 42417, Pitch_bend_c, 11, 6124
15, 42418, Pitch_bend_c, 11, 6069
15, 42419, Pitch_bend_c, 11, 6015
15, 42420, Pitch_bend_c, 11, 5953
15, 42421, Pitch_bend_c, 11, 5899
15, 42422, Pitch_bend_c, 11, 5844
15, 42423, Pitch_bend_c, 11, 5790
15, 42424, Pitch_bend_c, 11, 5728
15, 42425, Pitch_bend_c, 11, 5673
15, 42426, Pitch_bend_c, 11, 5619
15, 42427, Pitch_bend_c, 11, 5564
15, 42428, Pitch_bend_c, 11, 5503
15, 42429, Pitch_bend_c, 11, 5448
15, 42430, Pitch_bend_c, 11, 5394
15, 42431, Pitch_bend_c, 11, 5339
15, 42432, Pitch_bend_c, 11, 5278
15, 42433, Pitch_bend_c, 11, 5223
15, 42434, Pitch_bend_c, 11, 5168
15, 42435, Pitch_bend_c, 11, 5114
15, 42436, Pitch_bend_c, 11, 5052
15, 42437, Pitch_bend_c, 11, 4998
15, 42438, Pitch_bend_c, 11, 4943
15, 42439, Pitch_bend_c, 11, 4888
15, 42440, Pitch_bend_c, 11, 4834
15, 42441, Pitch_bend_c, 11, 4772
15, 42442, Pitch_bend_c, 11, 4718
15, 42443, Pitch_bend_c, 11, 4663
15, 42444, Pitch_bend_c, 11, 4608
15, 42445, Pitch_bend_c, 11, 4554
15, 42446, Pitch_bend_c, 11, 4492
15, 42447, Pitch_bend_c, 11, 4438
15, 42448, Pitch_bend_c, 11, 4383
15, 42449, Pitch_bend_c, 11, 4329
15, 42450, Pitch_bend_c, 11, 4267
15, 42451, Pitch_bend_c, 11, 4213
15, 42452, Pitch_bend_c, 11, 4158
15, 42453, Pitch_bend_c, 11, 4103
15, 42454, Pitch_bend_c, 11, 4049
15, 42455, Pitch_bend_c, 11, 3994
15, 42456, Pitch_bend_c, 11, 3933
15, 42457, Pitch_bend_c, 11, 3878
15, 42458, Pitch_bend_c, 11, 3823
15, 42459, Pitch_bend_c, 11, 3769
15, 42460, Pitch_bend_c, 11, 3714
15, 42461, Pitch_bend_c, 11, 3653
15, 42462, Pitch_bend_c, 11, 3598
15, 42463, Pitch_bend_c, 11, 3544
15, 42464, Pitch_bend_c, 11, 3489
15, 42465, Pitch_bend_c, 11, 3434
15, 42466, Pitch_bend_c, 11, 3380
15, 42467, Pitch_bend_c, 11, 3318
15, 42468, Pitch_bend_c, 11, 3264
15, 42469, Pitch_bend_c, 11, 3209
15, 42470, Pitch_bend_c, 11, 3154
15, 42471, Pitch_bend_c, 11, 3100
15, 42472, Pitch_bend_c, 11, 3045
15, 42473, Pitch_bend_c, 11, 2984
15, 42474, Pitch_bend_c, 11, 2929
15, 42475, Pitch_bend_c, 11, 2875
15, 42476, Pitch_bend_c, 11, 2820
15, 42477, Pitch_bend_c, 11, 2765
15, 42478, Pitch_bend_c, 11, 2711
15, 42479, Pitch_bend_c, 11, 2656
15, 42480, Pitch_bend_c, 11, 2595
15, 42481, Pitch_bend_c, 11, 2540
15, 42482, Pitch_bend_c, 11, 2485
15, 42483, Pitch_bend_c, 11, 2431
15, 42484, Pitch_bend_c, 11, 2376
15, 42485, Pitch_bend_c, 11, 2322
15, 42486, Pitch_bend_c, 11, 2267
15, 42487, Pitch_bend_c, 11, 2206
15, 42488, Pitch_bend_c, 11, 2151
15, 42489, Pitch_bend_c, 11, 2096
15, 42490, Pitch_bend_c, 11, 2042
15, 42491, Pitch_bend_c, 11, 1987
15, 42492, Pitch_bend_c, 11, 1932
15, 42493, Pitch_bend_c, 11, 1878
15, 42494, Pitch_bend_c, 11, 1823
15, 42495, Pitch_bend_c, 11, 1769
15, 42496, Pitch_bend_c, 11, 1707
15, 42497, Pitch_bend_c, 11, 1653
15, 42498, Pitch_bend_c, 11, 1598
15, 42499, Pitch_bend_c, 11, 1543
15, 42500, Pitch_bend_c, 11, 1489
15, 42501, Pitch_bend_c, 11, 1434
15, 42502, Pitch_bend_c, 11, 1379
15, 42503, Pitch_bend_c, 11, 1325
15, 42504, Pitch_bend_c, 11, 1270
15, 42505, Pitch_bend_c, 11, 1216
15, 42506, Pitch_bend_c, 11, 1154
15, 42507, Pitch_bend_c, 11, 1100
15, 42508, Pitch_bend_c, 11, 1045
15, 42509, Pitch_bend_c, 11, 990
15, 42510, Pitch_bend_c, 11, 936
15, 42511, Pitch_bend_c, 11, 881
15, 42512, Pitch_bend_c, 11, 827
15, 42513, Pitch_bend_c, 11, 772
15, 42514, Pitch_bend_c, 11, 717
15, 42515, Pitch_bend_c, 11, 663
15, 42516, Pitch_bend_c, 11, 608
15, 42517, Pitch_bend_c, 11, 553
15, 42518, Pitch_bend_c, 11, 499
15, 42519, Pitch_bend_c, 11, 437
15, 42520, Pitch_bend_c, 11, 383
15, 42521, Pitch_bend_c, 11, 328
15, 42522, Pitch_bend_c, 11, 274
15, 42523, Pitch_bend_c, 11, 219
15, 42524, Pitch_bend_c, 11, 164
15, 42525, Pitch_bend_c, 11, 110
15, 42526, Pitch_bend_c, 11, 55
15, 42527, Pitch_bend_c, 11, 0
15, 42528, Pitch_bend_c, 11, 35
15, 42529, Pitch_bend_c, 11, 69
15, 42530, Pitch_bend_c, 11, 103
15, 42531, Pitch_bend_c, 11, 137
15, 42532, Pitch_bend_c, 11, 171
15, 42533, Pitch_bend_c, 11, 205
15, 42534, Pitch_bend_c, 11, 239
15, 42535, Pitch_bend_c, 11, 274
15, 42536, Pitch_bend_c, 11, 308
15, 42537, Pitch_bend_c, 11, 342
15, 42538, Pitch_bend_c, 11, 376
15, 42539, Pitch_bend_c, 11, 410
15, 42540, Pitch_bend_c, 11, 444
15, 42541, Pitch_bend_c, 11, 478
15, 42542, Pitch_bend_c, 11, 512
15, 42543, Pitch_bend_c, 11, 547
15, 42544, Pitch_bend_c, 11, 581
15, 42545, Pitch_bend_c, 11, 615
15, 42546, Pitch_bend_c, 11, 649
15, 42547, Pitch_bend_c, 11, 683
15, 42548, Pitch_bend_c, 11, 717
15, 42549, Pitch_bend_c, 11, 751
15, 42550, Pitch_bend_c, 11, 786
15, 42551, Pitch_bend_c, 11, 820
15, 42552, Pitch_bend_c, 11, 854
15, 42553, Pitch_bend_c, 11, 888
15, 42554, Pitch_bend_c, 11, 922
15, 42555, Pitch_bend_c, 11, 956
15, 42556, Pitch_bend_c, 11, 990
15, 42557, Pitch_bend_c, 11, 1024
15, 42558, Pitch_bend_c, 11, 1059
15, 42559, Pitch_bend_c, 11, 1093
15, 42560, Pitch_bend_c, 11, 1127
15, 42561, Pitch_bend_c, 11, 1161
15, 42562, Pitch_bend_c, 11, 1195
15, 42563, Pitch_bend_c, 11, 1229
15, 42564, Pitch_bend_c, 11, 1263
15, 42565, Pitch_bend_c, 11, 1298
15, 42566, Pitch_bend_c, 11, 1332
15, 42567, Pitch_bend_c, 11, 1366
15, 42568, Pitch_bend_c, 11, 1400
15, 42569, Pitch_bend_c, 11, 1434
15, 42570, Pitch_bend_c, 11, 1468
15, 42571, Pitch_bend_c, 11, 1502
15, 42572, Pitch_bend_c, 11, 1536
15, 42573, Pitch_bend_c, 11, 1571
15, 42574, Pitch_bend_c, 11, 1605
15, 42575, Pitch_bend_c, 11, 1639
15, 42576, Pitch_bend_c, 11, 1673
15, 42577, Pitch_bend_c, 11, 1707
15, 42578, Pitch_bend_c, 11, 1741
15, 42579, Pitch_bend_c, 11, 1775
15, 42580, Pitch_bend_c, 11, 1810
15, 42581, Pitch_bend_c, 11, 1844
15, 42582, Pitch_bend_c, 11, 1878
15, 42583, Pitch_bend_c, 11, 1912
15, 42584, Pitch_bend_c, 11, 1946
15, 42585, Pitch_bend_c, 11, 1980
15, 42586, Pitch_bend_c, 11, 2014
15, 42587, Pitch_bend_c, 11, 2048
15, 42588, Pitch_bend_c, 11, 2083
15, 42589, Pitch_bend_c, 11, 2117
15, 42590, Pitch_bend_c, 11, 2151
15, 42591, Pitch_bend_c, 11, 2185
15, 42592, Pitch_bend_c, 11, 2219
15, 42593, Pitch_bend_c, 11, 2253
15, 42594, Pitch_bend_c, 11, 2287
15, 42595, Pitch_bend_c, 11, 2322
15, 42596, Pitch_bend_c, 11, 2356
15, 42597, Pitch_bend_c, 11, 2390
15, 42598, Pitch_bend_c, 11, 2424
15, 42599, Pitch_bend_c, 11, 2458
15, 42600, Pitch_bend_c, 11, 2492
15, 42601, Pitch_bend_c, 11, 2526
15, 42602, Pitch_bend_c, 11, 2560
15, 42603, Pitch_bend_c, 11, 2595
15, 42604, Pitch_bend_c, 11, 2629
15, 42605, Pitch_bend_c, 11, 2663
15, 42606, Pitch_bend_c, 11, 2697
15, 42607, Pitch_bend_c, 11, 2731
15, 42608, Pitch_bend_c, 11, 2765
15, 42609, Pitch_bend_c, 11, 2799
15, 42610, Pitch_bend_c, 11, 2834
15, 42611, Pitch_bend_c, 11, 2868
15, 42612, Pitch_bend_c, 11, 2902
15, 42613, Pitch_bend_c, 11, 2936
15, 42614, Pitch_bend_c, 11, 2970
15, 42615, Pitch_bend_c, 11, 3004
15, 42616, Pitch_bend_c, 11, 3038
15, 42617, Pitch_bend_c, 11, 3072
15, 42618, Pitch_bend_c, 11, 3107
15, 42619, Pitch_bend_c, 11, 3141
15, 42620, Pitch_bend_c, 11, 3175
15, 42621, Pitch_bend_c, 11, 3209
15, 42622, Pitch_bend_c, 11, 3243
15, 42623, Pitch_bend_c, 11, 3277
15, 42624, Pitch_bend_c, 11, 3311
15, 42625, Pitch_bend_c, 11, 3346
15, 42626, Pitch_bend_c, 11, 3380
15, 42627, Pitch_bend_c, 11, 3414
15, 42628, Pitch_bend_c, 11, 3448
15, 42629, Pitch_bend_c, 11, 3482
15, 42630, Pitch_bend_c, 11, 3516
15, 42631, Pitch_bend_c, 11, 3550
15, 42632, Pitch_bend_c, 11, 3584
15, 42633, Pitch_bend_c, 11, 3619
15, 42634, Pitch_bend_c, 11, 3653
15, 42635, Pitch_bend_c, 11, 3687
15, 42636, Pitch_bend_c, 11, 3721
15, 42637, Pitch_bend_c, 11, 3755
15, 42638, Pitch_bend_c, 11, 3789
15, 42639, Pitch_bend_c, 11, 3823
15, 42640, Pitch_bend_c, 11, 3858
15, 42641, Pitch_bend_c, 11, 3892
15, 42642, Pitch_bend_c, 11, 3926
15, 42643, Pitch_bend_c, 11, 3960
15, 42644, Pitch_bend_c, 11, 3994
15, 42645, Pitch_bend_c, 11, 4028
15, 42646, Pitch_bend_c, 11, 4062
15, 42647, Pitch_bend_c, 11, 4096
15, 42648, Pitch_bend_c, 11, 4131
15, 42649, Pitch_bend_c, 11, 4165
15, 42650, Pitch_bend_c, 11, 4199
15, 42651, Pitch_bend_c, 11, 4233
15, 42652, Pitch_bend_c, 11, 4267
15, 42653, Pitch_bend_c, 11, 4301
15, 42654, Pitch_bend_c, 11, 4335
15, 42655, Pitch_bend_c, 11, 4370
15, 42656, Pitch_bend_c, 11, 4404
15, 42657, Pitch_bend_c, 11, 4438
15, 42658, Pitch_bend_c, 11, 4472
15, 42659, Pitch_bend_c, 11, 4506
15, 42660, Pitch_bend_c, 11, 4540
15, 42661, Pitch_bend_c, 11, 4574
15, 42662, Pitch_bend_c, 11, 4608
15, 42663, Pitch_bend_c, 11, 4643
15, 42664, Pitch_bend_c, 11, 4677
15, 42665, Pitch_bend_c, 11, 4711
15, 42666, Pitch_bend_c, 11, 4745
15, 42667, Pitch_bend_c, 11, 4779
15, 42668, Pitch_bend_c, 11, 4813
15, 42669, Pitch_bend_c, 11, 4847
15, 42670, Pitch_bend_c, 11, 4882
15, 42671, Pitch_bend_c, 11, 4916
15, 42672, Pitch_bend_c, 11, 4950
15, 42673, Pitch_bend_c, 11, 4984
15, 42674, Pitch_bend_c, 11, 5018
15, 42675, Pitch_bend_c, 11, 5052
15, 42676, Pitch_bend_c, 11, 5086
15, 42677, Pitch_bend_c, 11, 5120
15, 42678, Pitch_bend_c, 11, 5155
15, 42679, Pitch_bend_c, 11, 5189
15, 42680, Pitch_bend_c, 11, 5223
15, 42681, Pitch_bend_c, 11, 5257
15, 42682, Pitch_bend_c, 11, 5291
15, 42683, Pitch_bend_c, 11, 5325
15, 42684, Pitch_bend_c, 11, 5359
15, 42685, Pitch_bend_c, 11, 5394
15, 42686, Pitch_bend_c, 11, 5428
15, 42687, Pitch_bend_c, 11, 5462
15, 42688, Pitch_bend_c, 11, 5496
15, 42689, Pitch_bend_c, 11, 5530
15, 42690, Pitch_bend_c, 11, 5564
15, 42691, Pitch_bend_c, 11, 5598
15, 42692, Pitch_bend_c, 11, 5632
15, 42693, Pitch_bend_c, 11, 5667
15, 42694, Pitch_bend_c, 11, 5701
15, 42695, Pitch_bend_c, 11, 5735
15, 42696, Pitch_bend_c, 11, 5769
15, 42697, Pitch_bend_c, 11, 5803
15, 42698, Pitch_bend_c, 11, 5837
15, 42699, Pitch_bend_c, 11, 5871
15, 42700, Pitch_bend_c, 11, 5906
15, 42701, Pitch_bend_c, 11, 5940
15, 42702, Pitch_bend_c, 11, 5974
15, 42703, Pitch_bend_c, 11, 6008
15, 42704, Pitch_bend_c, 11, 6042
15, 42705, Pitch_bend_c, 11, 6076
15, 42706, Pitch_bend_c, 11, 6110
15, 42707, Pitch_bend_c, 11, 6144
15, 42708, Pitch_bend_c, 11, 6179
15, 42709, Pitch_bend_c, 11, 6213
15, 42710, Pitch_bend_c, 11, 6247
15, 42711, Pitch_bend_c, 11, 6281
15, 42712, Pitch_bend_c, 11, 6315
15, 42713, Pitch_bend_c, 11, 6349
15, 42714, Pitch_bend_c, 11, 6383
15, 42715, Pitch_bend_c, 11, 6418
15, 42716, Pitch_bend_c, 11, 6452
15, 42717, Pitch_bend_c, 11, 6486
15, 42718, Pitch_bend_c, 11, 6520
15, 42719, Pitch_bend_c, 11, 6554
15, 42720, Pitch_bend_c, 11, 6588
15, 42721, Pitch_bend_c, 11, 6622
15, 42722, Pitch_bend_c, 11, 6656
15, 42723, Pitch_bend_c, 11, 6691
15, 42724, Pitch_bend_c, 11, 6725
15, 42725, Pitch_bend_c, 11, 6759
15, 42726, Pitch_bend_c, 11, 6793
15, 42727, Pitch_bend_c, 11, 6827
15, 42728, Pitch_bend_c, 11, 6861
15, 42729, Pitch_bend_c, 11, 6895
15, 42730, Pitch_bend_c, 11, 6930
15, 42731, Pitch_bend_c, 11, 6964
15, 42732, Pitch_bend_c, 11, 6998
15, 42733, Pitch_bend_c, 11, 7032
15, 42734, Pitch_bend_c, 11, 7066
15, 42735, Pitch_bend_c, 11, 7100
15, 42736, Pitch_bend_c, 11, 7134
15, 42737, Pitch_bend_c, 11, 7168
15, 42738, Pitch_bend_c, 11, 7203
15, 42739, Pitch_bend_c, 11, 7237
15, 42740, Pitch_bend_c, 11, 7271
15, 42741, Pitch_bend_c, 11, 7305
15, 42742, Pitch_bend_c, 11, 7339
15, 42743, Pitch_bend_c, 11, 7373
15, 42744, Pitch_bend_c, 11, 7407
15, 42745, Pitch_bend_c, 11, 7442
15, 42746, Pitch_bend_c, 11, 7476
15, 42747, Pitch_bend_c, 11, 7510
15, 42748, Pitch_bend_c, 11, 7544
15, 42749, Pitch_bend_c, 11, 7578
15, 42750, Pitch_bend_c, 11, 7612
15, 42751, Pitch_bend_c, 11, 7646
15, 42752, Pitch_bend_c, 11, 7680
15, 42753, Pitch_bend_c, 11, 7715
15, 42754, Pitch_bend_c, 11, 7749
15, 42755, Pitch_bend_c, 11, 7783
15, 42756, Pitch_bend_c, 11, 7817
15, 42757, Pitch_bend_c, 11, 7851
15, 42758, Pitch_bend_c, 11, 7885
15, 42759, Pitch_bend_c, 11, 7919
15, 42760, Pitch_bend_c, 11, 7954
15, 42761, Pitch_bend_c, 11, 7988
15, 42762, Pitch_bend_c, 11, 8022
15, 42763, Pitch_bend_c, 11, 8056
15, 42764, Pitch_bend_c, 11, 8090
15, 42765, Pitch_bend_c, 11, 8124
15, 42766, Pitch_bend_c, 11, 8158
15, 42767, Pitch_bend_c, 11, 8192
15, 42768, Pitch_bend_c, 11, 8226
15, 42769, Pitch_bend_c, 11, 8260
15, 42770, Pitch_bend_c, 11, 8294
15, 42771, Pitch_bend_c, 11, 8328
15, 42772, Pitch_bend_c, 11, 8362
15, 42773, Pitch_bend_c, 11, 8396
15, 42774, Pitch_bend_c, 11, 8430
15, 42775, Pitch_bend_c, 11, 8465
15, 42776, Pitch_bend_c, 11, 8499
15, 42777, Pitch_bend_c, 11, 8533
15, 42778, Pitch_bend_c, 11, 8567
15, 42779, Pitch_bend_c, 11, 8601
15, 42780, Pitch_bend_c, 11, 8635
15, 42781, Pitch_bend_c, 11, 8669
15, 42782, Pitch_bend_c, 11, 8704
15, 42783, Pitch_bend_c, 11, 8738
15, 42784, Pitch_bend_c, 11, 8772
15, 42785, Pitch_bend_c, 11, 8806
15, 42786, Pitch_bend_c, 11, 8840
15, 42787, Pitch_bend_c, 11, 8874
15, 42788, Pitch_bend_c, 11, 8908
15, 42789, Pitch_bend_c, 11, 8942
15, 42790, Pitch_bend_c, 11, 8977
15, 42791, Pitch_bend_c, 11, 9011
15, 42792, Pitch_bend_c, 11, 9045
15, 42793, Pitch_bend_c, 11, 9079
15, 42794, Pitch_bend_c, 11, 9113
15, 42795, Pitch_bend_c, 11, 9147
15, 42796, Pitch_bend_c, 11, 9181
15, 42797, Pitch_bend_c, 11, 9216
15, 42798, Pitch_bend_c, 11, 9250
15, 42799, Pitch_bend_c, 11, 9284
15, 42800, Pitch_bend_c, 11, 9318
15, 42801, Pitch_bend_c, 11, 9352
15, 42802, Pitch_bend_c, 11, 9386
15, 42803, Pitch_bend_c, 11, 9420
15, 42804, Pitch_bend_c, 11, 9454
15, 42805, Pitch_bend_c, 11, 9489
15, 42806, Pitch_bend_c, 11, 9523
15, 42807, Pitch_bend_c, 11, 9557
15, 42808, Pitch_bend_c, 11, 9591
15, 42809, Pitch_bend_c, 11, 9625
15, 42810, Pitch_bend_c, 11, 9659
15, 42811, Pitch_bend_c, 11, 9693
15, 42812, Pitch_bend_c, 11, 9728
15, 42813, Pitch_bend_c, 11, 9762
15, 42814, Pitch_bend_c, 11, 9796
15, 42815, Pitch_bend_c, 11, 9830
15, 42816, Pitch_bend_c, 11, 9864
15, 42817, Pitch_bend_c, 11, 9898
15, 42818, Pitch_bend_c, 11, 9932
15, 42819, Pitch_bend_c, 11, 9966
15, 42820, Pitch_bend_c, 11, 10001
15, 42821, Pitch_bend_c, 11, 10035
15, 42822, Pitch_bend_c, 11, 10069
15, 42823, Pitch_bend_c, 11, 10103
15, 42824, Pitch_bend_c, 11, 10137
15, 42825, Pitch_bend_c, 11, 10171
15, 42826, Pitch_bend_c, 11, 10205
15, 42827, Pitch_bend_c, 11, 10240
15, 42828, Pitch_bend_c, 11, 10274
15, 42829, Pitch_bend_c, 11, 10308
15, 42830, Pitch_bend_c, 11, 10342
15, 42831, Pitch_bend_c, 11, 10376
15, 42832, Pitch_bend_c, 11, 10410
15, 42833, Pitch_bend_c, 11, 10444
15, 42834, Pitch_bend_c, 11, 10478
15, 42835, Pitch_bend_c, 11, 10513
15, 42836, Pitch_bend_c, 11, 10547
15, 42837, Pitch_bend_c, 11, 10581
15, 42838, Pitch_bend_c, 11, 10615
15, 42839, Pitch_bend_c, 11, 10649
15, 42840, Pitch_bend_c, 11, 10683
15, 42841, Pitch_bend_c, 11, 10717
15, 42842, Pitch_bend_c, 11, 10752
15, 42843, Pitch_bend_c, 11, 10786
15, 42844, Pitch_bend_c, 11, 10820
15, 42845, Pitch_bend_c, 11, 10854
15, 42846, Pitch_bend_c, 11, 10888
15, 42847, Pitch_bend_c, 11, 10922
15, 42848, Pitch_bend_c, 11, 10956
15, 42849, Pitch_bend_c, 11, 10990
15, 42850, Pitch_bend_c, 11, 11025
15, 42851, Pitch_bend_c, 11, 11059
15, 42852, Pitch_bend_c, 11, 11093
15, 42853, Pitch_bend_c, 11, 11127
15, 42854, Pitch_bend_c, 11, 11161
15, 42855, Pitch_bend_c, 11, 11195
15, 42856, Pitch_bend_c, 11, 11229
15, 42857, Pitch_bend_c, 11, 11264
15, 42858, Pitch_bend_c, 11, 11298
15, 42859, Pitch_bend_c, 11, 11332
15, 42860, Pitch_bend_c, 11, 11366
15, 42861, Pitch_bend_c, 11, 11400
15, 42862, Pitch_bend_c, 11, 11434
15, 42863, Pitch_bend_c, 11, 11468
15, 42864, Pitch_bend_c, 11, 11502
15, 42865, Pitch_bend_c, 11, 11537
15, 42866, Pitch_bend_c, 11, 11571
15, 42867, Pitch_bend_c, 11, 11605
15, 42868, Pitch_bend_c, 11, 11639
15, 42869, Pitch_bend_c, 11, 11673
15, 42870, Pitch_bend_c, 11, 11707
15, 42871, Pitch_bend_c, 11, 11741
15, 42872, Pitch_bend_c, 11, 11776
15, 42873, Pitch_bend_c, 11, 11810
15, 42874, Pitch_bend_c, 11, 11844
15, 42875, Pitch_bend_c, 11, 11878
15, 42876, Pitch_bend_c, 11, 11912
15, 42877, Pitch_bend_c, 11, 11946
15, 42878, Pitch_bend_c, 11, 11980
15, 42879, Pitch_bend_c, 11, 12014
15, 42880, Pitch_bend_c, 11, 12049
15, 42881, Pitch_bend_c, 11, 12083
15, 42882, Pitch_bend_c, 11, 12117
15, 42883, Pitch_bend_c, 11, 12151
15, 42884, Pitch_bend_c, 11, 12185
15, 42885, Pitch_bend_c, 11, 12219
15, 42886, Pitch_bend_c, 11, 12253
15, 42887, Pitch_bend_c, 11, 12288
15, 42888, Pitch_bend_c, 11, 12322
15, 42889, Pitch_bend_c, 11, 12356
15, 42890, Pitch_bend_c, 11, 12390
15, 42891, Pitch_bend_c, 11, 12424
15, 42892, Pitch_bend_c, 11, 12458
15, 42893, Pitch_bend_c, 11, 12492
15, 42894, Pitch_bend_c, 11, 12526
15, 42895, Pitch_bend_c, 11, 12561
15, 42896, Pitch_bend_c, 11, 12595
15, 42897, Pitch_bend_c, 11, 12629
15, 42898, Pitch_bend_c, 11, 12663
15, 42899, Pitch_bend_c, 11, 12697
15, 42900, Pitch_bend_c, 11, 12731
15, 42901, Pitch_bend_c, 11, 12765
15, 42902, Pitch_bend_c, 11, 12800
15, 42903, Pitch_bend_c, 11, 12834
15, 42904, Pitch_bend_c, 11, 12868
15, 42905, Pitch_bend_c, 11, 12902
15, 42906, Pitch_bend_c, 11, 12936
15, 42907, Pitch_bend_c, 11, 12970
15, 42908, Pitch_bend_c, 11, 13004
15, 42909, Pitch_bend_c, 11, 13038
15, 42910, Pitch_bend_c, 11, 13073
15, 42911, Pitch_bend_c, 11, 13107
15, 42912, Pitch_bend_c, 11, 13141
15, 42913, Pitch_bend_c, 11, 13175
15, 42914, Pitch_bend_c, 11, 13209
15, 42915, Pitch_bend_c, 11, 13243
15, 42916, Pitch_bend_c, 11, 13277
15, 42917, Pitch_bend_c, 11, 13312
15, 42918, Pitch_bend_c, 11, 13346
15, 42919, Pitch_bend_c, 11, 13380
15, 42920, Pitch_bend_c, 11, 13414
15, 42921, Pitch_bend_c, 11, 13448
15, 42922, Pitch_bend_c, 11, 13482
15, 42923, Pitch_bend_c, 11, 13516
15, 42924, Pitch_bend_c, 11, 13550
15, 42925, Pitch_bend_c, 11, 13585
15, 42926, Pitch_bend_c, 11, 13619
15, 42927, Pitch_bend_c, 11, 13653
15, 42928, Pitch_bend_c, 11, 13687
15, 42929, Pitch_bend_c, 11, 13721
15, 42930, Pitch_bend_c, 11, 13755
15, 42931, Pitch_bend_c, 11, 13789
15, 42932, Pitch_bend_c, 11, 13824
15, 42933, Pitch_bend_c, 11, 13858
15, 42934, Pitch_bend_c, 11, 13892
15, 42935, Pitch_bend_c, 11, 13926
15, 42936, Pitch_bend_c, 11, 13960
15, 42937, Pitch_bend_c, 11, 13994
15, 42938, Pitch_bend_c, 11, 14028
15, 42939, Pitch_bend_c, 11, 14062
15, 42940, Pitch_bend_c, 11, 14097
15, 42941, Pitch_bend_c, 11, 14131
15, 42942, Pitch_bend_c, 11, 14165
15, 42943, Pitch_bend_c, 11, 14199
15, 42944, Pitch_bend_c, 11, 14233
15, 42945, Pitch_bend_c, 11, 14267
15, 42946, Pitch_bend_c, 11, 14301
15, 42947, Pitch_bend_c, 11, 14336
15, 42948, Pitch_bend_c, 11, 14370
15, 42949, Pitch_bend_c, 11, 14404
15, 42950, Pitch_bend_c, 11, 14438
15, 42951, Pitch_bend_c, 11, 14472
15, 42952, Pitch_bend_c, 11, 14506
15, 42953, Pitch_bend_c, 11, 14540
15, 42954, Pitch_bend_c, 11, 14574
15, 42955, Pitch_bend_c, 11, 14609
15, 42956, Pitch_bend_c, 11, 14643
15, 42957, Pitch_bend_c, 11, 14677
15, 42958, Pitch_bend_c, 11, 14711
15, 42959, Pitch_bend_c, 11, 14745
15, 42960, Pitch_bend_c, 11, 14779
15, 42961, Pitch_bend_c, 11, 14813
15, 42962, Pitch_bend_c, 11, 14848
15, 42963, Pitch_bend_c, 11, 14882
15, 42964, Pitch_bend_c, 11, 14916
15, 42965, Pitch_bend_c, 11, 14950
15, 42966, Pitch_bend_c, 11, 14984
15, 42967, Pitch_bend_c, 11, 15018
15, 42968, Pitch_bend_c, 11, 15052
15, 42969, Pitch_bend_c, 11, 15086
15, 42970, Pitch_bend_c, 11, 15121
15, 42971, Pitch_bend_c, 11, 15155
15, 42972, Pitch_bend_c, 11, 15189
15, 42973, Pitch_bend_c, 11, 15223
15, 42974, Pitch_bend_c, 11, 15257
15, 42975, Pitch_bend_c, 11, 15291
15, 42976, Pitch_bend_c, 11, 15325
15, 42977, Pitch_bend_c, 11, 15360
15, 42978, Pitch_bend_c, 11, 15394
15, 42979, Pitch_bend_c, 11, 15428
15, 42980, Pitch_bend_c, 11, 15462
15, 42981, Pitch_bend_c, 11, 15496
15, 42982, Pitch_bend_c, 11, 15530
15, 42983, Pitch_bend_c, 11, 15564
15, 42984, Pitch_bend_c, 11, 15598
15, 42985, Pitch_bend_c, 11, 15633
15, 42986, Pitch_bend_c, 11, 15667
15, 42987, Pitch_bend_c, 11, 15701
15, 42988, Pitch_bend_c, 11, 15735
15, 42989, Pitch_bend_c, 11, 15769
15, 42990, Pitch_bend_c, 11, 15803
15, 42991, Pitch_bend_c, 11, 15837
15, 42992, Pitch_bend_c, 11, 15872
15, 42993, Pitch_bend_c, 11, 15906
15, 42994, Pitch_bend_c, 11, 15940
15, 42995, Pitch_bend_c, 11, 15974
15, 42996, Pitch_bend_c, 11, 16008
15, 42997, Pitch_bend_c, 11, 16042
15, 42998, Pitch_bend_c, 11, 16076
15, 42999, Pitch_bend_c, 11, 16110
15, 43000, Pitch_bend_c, 11, 16145
15, 43001, Pitch_bend_c, 11, 16179
15, 43002, Pitch_bend_c, 11, 16213
15, 43003, Pitch_bend_c, 11, 16247
15, 43004, Pitch_bend_c, 11, 16281
15, 43005, Pitch_bend_c, 11, 16315
15, 43006, Pitch_bend_c, 11, 16349
15, 43007, Pitch_bend_c, 11, 16383
15, 43008, Note_off_c, 11, 72, 64
15, 48768, Note_on_c, 11, 83, 127
15, 48768, Pitch_bend_c, 11, 8124
15, 48768, Control_c, 11, 7, 112
15, 48769, Pitch_bend_c, 11, 8056
15, 48769, Control_c, 11, 7, 112
15, 48770, Pitch_bend_c, 11, 7988
15, 48770, Control_c, 11, 7, 112
15, 48771, Pitch_bend_c, 11, 7919
15, 48771, Control_c, 11, 7, 112
15, 48772, Pitch_bend_c, 11, 7851
15, 48772, Control_c, 11, 7, 112
15, 48773, Pitch_bend_c, 11, 7783
15, 48773, Control_c, 11, 7, 112
15, 48774, Pitch_bend_c, 11, 7715
15, 48774, Control_c, 11, 7, 112
15, 48775, Pitch_bend_c, 11, 7646
15, 48775, Control_c, 11, 7, 112
15, 48776, Pitch_bend_c, 11, 7585
15, 48776, Control_c, 11, 7, 112
15, 48777, Pitch_bend_c, 11, 7517
15, 48777, Control_c, 11, 7, 112
15, 48778, Pitch_bend_c, 11, 7455
15, 48778, Control_c, 11, 7, 112
15, 48779, Pitch_bend_c, 11, 7387
15, 48779, Control_c, 11, 7, 112
15, 48780, Pitch_bend_c, 11, 7326
15, 48780, Control_c, 11, 7, 112
15, 48781, Pitch_bend_c, 11, 7264
15, 48781, Control_c, 11, 7, 112
15, 48782, Pitch_bend_c, 11, 7203
15, 48782, Control_c, 11, 7, 112
15, 48783, Pitch_bend_c, 11, 7134
15, 48783, Control_c, 11, 7, 112
15, 48784, Pitch_bend_c, 11, 7073
15, 48784, Control_c, 11, 7, 112
15, 48785, Pitch_bend_c, 11, 7011
15, 48785, Control_c, 11, 7, 112
15, 48786, Pitch_bend_c, 11, 6957
15, 48786, Control_c, 11, 7, 112
15, 48787, Pitch_bend_c, 11, 6895
15, 48787, Control_c, 11, 7, 112
15, 48788, Pitch_bend_c, 11, 6834
15, 48788, Control_c, 11, 7, 112
15, 48789, Pitch_bend_c, 11, 6773
15, 48789, Control_c, 11, 7, 112
15, 48790, Pitch_bend_c, 11, 6711
15, 48790, Control_c, 11, 7, 112
15, 48791, Pitch_bend_c, 11, 6656
15, 48791, Control_c, 11, 7, 112
15, 48792, Pitch_bend_c, 11, 6595
15, 48792, Control_c, 11, 7, 112
15, 48793, Pitch_bend_c, 11, 6540
15, 48793, Control_c, 11, 7, 112
15, 48794, Pitch_bend_c, 11, 6486
15, 48794, Control_c, 11, 7, 112
15, 48795, Pitch_bend_c, 11, 6424
15, 48795, Control_c, 11, 7, 112
15, 48796, Pitch_bend_c, 11, 6370
15, 48796, Control_c, 11, 7, 112
15, 48797, Pitch_bend_c, 11, 6315
15, 48797, Control_c, 11, 7, 112
15, 48798, Pitch_bend_c, 11, 6261
15, 48798, Control_c, 11, 7, 112
15, 48799, Pitch_bend_c, 11, 6199
15, 48799, Control_c, 11, 7, 112
15, 48800, Pitch_bend_c, 11, 6144
15, 48800, Control_c, 11, 7, 112
15, 48801, Pitch_bend_c, 11, 6097
15, 48801, Control_c, 11, 7, 112
15, 48802, Pitch_bend_c, 11, 6042
15, 48802, Control_c, 11, 7, 112
15, 48803, Pitch_bend_c, 11, 5987
15, 48803, Control_c, 11, 7, 112
15, 48804, Pitch_bend_c, 11, 5933
15, 48804, Control_c, 11, 7, 112
15, 48805, Pitch_bend_c, 11, 5878
15, 48805, Control_c, 11, 7, 112
15, 48806, Pitch_bend_c, 11, 5830
15, 48806, Control_c, 11, 7, 112
15, 48807, Pitch_bend_c, 11, 5776
15, 48807, Control_c, 11, 7, 112
15, 48808, Pitch_bend_c, 11, 5721
15, 48808, Control_c, 11, 7, 111
15, 48809, Pitch_bend_c, 11, 5673
15, 48809, Control_c, 11, 7, 111
15, 48810, Pitch_bend_c, 11, 5626
15, 48810, Control_c, 11, 7, 111
15, 48811, Pitch_bend_c, 11, 5571
15, 48811, Control_c, 11, 7, 111
15, 48812, Pitch_bend_c, 11, 5523
15, 48812, Control_c, 11, 7, 111
15, 48813, Pitch_bend_c, 11, 5475
15, 48813, Control_c, 11, 7, 111
15, 48814, Pitch_bend_c, 11, 5421
15, 48814, Control_c, 11, 7, 111
15, 48815, Pitch_bend_c, 11, 5373
15, 48815, Control_c, 11, 7, 111
15, 48816, Pitch_bend_c, 11, 5325
15, 48816, Control_c, 11, 7, 111
15, 48817, Pitch_bend_c, 11, 5278
15, 48817, Control_c, 11, 7, 111
15, 48818, Pitch_bend_c, 11, 5230
15, 48818, Control_c, 11, 7, 111
15, 48819, Pitch_bend_c, 11, 5182
15, 48819, Control_c, 11, 7, 111
15, 48820, Pitch_bend_c, 11, 5134
15, 48820, Control_c, 11, 7, 111
15, 48821, Pitch_bend_c, 11, 5086
15, 48821, Control_c, 11, 7, 111
15, 48822, Pitch_bend_c, 11, 5045
15, 48822, Control_c, 11, 7, 111
15, 48823, Pitch_bend_c, 11, 4998
15, 48823, Control_c, 11, 7, 111
15, 48824, Pitch_bend_c, 11, 4950
15, 48824, Control_c, 11, 7, 111
15, 48825, Pitch_bend_c, 11, 4902
15, 48825, Control_c, 11, 7, 111
15, 48826, Pitch_bend_c, 11, 4861
15, 48826, Control_c, 11, 7, 111
15, 48827, Pitch_bend_c, 11, 4813
15, 48827, Control_c, 11, 7, 111
15, 48828, Pitch_bend_c, 11, 4772
15, 48828, Control_c, 11, 7, 111
15, 48829, Pitch_bend_c, 11, 4725
15, 48829, Control_c, 11, 7, 111
15, 48830, Pitch_bend_c, 11, 4684
15, 48830, Control_c, 11, 7, 111
15, 48831, Pitch_bend_c, 11, 4643
15, 48831, Control_c, 11, 7, 111
15, 48832, Pitch_bend_c, 11, 4595
15, 48832, Control_c, 11, 7, 111
15, 48833, Pitch_bend_c, 11, 4554
15, 48833, Control_c, 11, 7, 111
15, 48834, Pitch_bend_c, 11, 4513
15, 48834, Control_c, 11, 7, 111
15, 48835, Pitch_bend_c, 11, 4472
15, 48835, Control_c, 11, 7, 111
15, 48836, Pitch_bend_c, 11, 4431
15, 48836, Control_c, 11, 7, 111
15, 48837, Pitch_bend_c, 11, 4383
15, 48837, Control_c, 11, 7, 111
15, 48838, Pitch_bend_c, 11, 4342
15, 48838, Control_c, 11, 7, 111
15, 48839, Pitch_bend_c, 11, 4301
15, 48839, Control_c, 11, 7, 111
15, 48840, Pitch_bend_c, 11, 4267
15, 48840, Control_c, 11, 7, 111
15, 48841, Pitch_bend_c, 11, 4226
15, 48841, Control_c, 11, 7, 111
15, 48842, Pitch_bend_c, 11, 4185
15, 48842, Control_c, 11, 7, 111
15, 48843, Pitch_bend_c, 11, 4144
15, 48843, Control_c, 11, 7, 111
15, 48844, Pitch_bend_c, 11, 4103
15, 48844, Control_c, 11, 7, 111
15, 48845, Pitch_bend_c, 11, 4069
15, 48845, Control_c, 11, 7, 111
15, 48846, Pitch_bend_c, 11, 4028
15, 48846, Control_c, 11, 7, 111
15, 48847, Pitch_bend_c, 11, 3987
15, 48847, Control_c, 11, 7, 111
15, 48848, Pitch_bend_c, 11, 3953
15, 48848, Control_c, 11, 7, 111
15, 48849, Pitch_bend_c, 11, 3912
15, 48849, Control_c, 11, 7, 111
15, 48850, Pitch_bend_c, 11, 3878
15, 48850, Control_c, 11, 7, 111
15, 48851, Pitch_bend_c, 11, 3837
15, 48851, Control_c, 11, 7, 111
15, 48852, Pitch_bend_c, 11, 3803
15, 48852, Control_c, 11, 7, 111
15, 48853, Pitch_bend_c, 11, 3769
15, 48853, Control_c, 11, 7, 111
15, 48854, Pitch_bend_c, 11, 3728
15, 48854, Control_c, 11, 7, 110
15, 48855, Pitch_bend_c, 11, 3694
15, 48855, Control_c, 11, 7, 110
15, 48856, Pitch_bend_c, 11, 3660
15, 48856, Control_c, 11, 7, 110
15, 48857, Pitch_bend_c, 11, 3619
15, 48857, Control_c, 11, 7, 110
15, 48858, Pitch_bend_c, 11, 3584
15, 48858, Control_c, 11, 7, 110
15, 48859, Pitch_bend_c, 11, 3550
15, 48859, Control_c, 11, 7, 110
15, 48860, Pitch_bend_c, 11, 3516
15, 48860, Control_c, 11, 7, 110
15, 48861, Pitch_bend_c, 11, 3482
15, 48861, Control_c, 11, 7, 110
15, 48862, Pitch_bend_c, 11, 3448
15, 48862, Control_c, 11, 7, 110
15, 48863, Pitch_bend_c, 11, 3414
15, 48863, Control_c, 11, 7, 110
15, 48864, Note_off_c, 11, 83, 64
15, 48864, Note_on_c, 11, 78, 127
15, 48864, Control_c, 11, 7, 110
15, 48864, Pitch_bend_c, 11, 8124
15, 48865, Pitch_bend_c, 11, 8056
15, 48865, Control_c, 11, 7, 110
15, 48866, Pitch_bend_c, 11, 7988
15, 48866, Control_c, 11, 7, 110
15, 48867, Pitch_bend_c, 11, 7919
15, 48867, Control_c, 11, 7, 110
15, 48868, Pitch_bend_c, 11, 7851
15, 48868, Control_c, 11, 7, 110
15, 48869, Pitch_bend_c, 11, 7783
15, 48869, Control_c, 11, 7, 110
15, 48870, Pitch_bend_c, 11, 7715
15, 48870, Control_c, 11, 7, 110
15, 48871, Pitch_bend_c, 11, 7646
15, 48871, Control_c, 11, 7, 110
15, 48872, Pitch_bend_c, 11, 7585
15, 48872, Control_c, 11, 7, 110
15, 48873, Pitch_bend_c, 11, 7517
15, 48873, Control_c, 11, 7, 110
15, 48874, Pitch_bend_c, 11, 7455
15, 48874, Control_c, 11, 7, 110
15, 48875, Pitch_bend_c, 11, 7387
15, 48875, Control_c, 11, 7, 110
15, 48876, Pitch_bend_c, 11, 7326
15, 48876, Control_c, 11, 7, 110
15, 48877, Pitch_bend_c, 11, 7264
15, 48877, Control_c, 11, 7, 110
15, 48878, Pitch_bend_c, 11, 7203
15, 48878, Control_c, 11, 7, 110
15, 48879, Pitch_bend_c, 11, 7134
15, 48879, Control_c, 11, 7, 110
15, 48880, Pitch_bend_c, 11, 7073
15, 48880, Control_c, 11, 7, 110
15, 48881, Pitch_bend_c, 11, 7011
15, 48881, Control_c, 11, 7, 110
15, 48882, Pitch_bend_c, 11, 6957
15, 48882, Control_c, 11, 7, 110
15, 48883, Pitch_bend_c, 11, 6895
15, 48883, Control_c, 11, 7, 110
15, 48884, Pitch_bend_c, 11, 6834
15, 48884, Control_c, 11, 7, 110
15, 48885, Pitch_bend_c, 11, 6773
15, 48885, Control_c, 11, 7, 110
15, 48886, Pitch_bend_c, 11, 6711
15, 48886, Control_c, 11, 7, 110
15, 48887, Pitch_bend_c, 11, 6656
15, 48887, Control_c, 11, 7, 110
15, 48888, Pitch_bend_c, 11, 6595
15, 48888, Control_c, 11, 7, 110
15, 48889, Pitch_bend_c, 11, 6540
15, 48889, Control_c, 11, 7, 110
15, 48890, Pitch_bend_c, 11, 6486
15, 48890, Control_c, 11, 7, 110
15, 48891, Pitch_bend_c, 11, 6424
15, 48891, Control_c, 11, 7, 110
15, 48892, Pitch_bend_c, 11, 6370
15, 48892, Control_c, 11, 7, 109
15, 48893, Pitch_bend_c, 11, 6315
15, 48893, Control_c, 11, 7, 109
15, 48894, Pitch_bend_c, 11, 6261
15, 48894, Control_c, 11, 7, 109
15, 48895, Pitch_bend_c, 11, 6199
15, 48895, Control_c, 11, 7, 109
15, 48896, Pitch_bend_c, 11, 6144
15, 48896, Control_c, 11, 7, 109
15, 48897, Pitch_bend_c, 11, 6097
15, 48897, Control_c, 11, 7, 109
15, 48898, Pitch_bend_c, 11, 6042
15, 48898, Control_c, 11, 7, 109
15, 48899, Pitch_bend_c, 11, 5987
15, 48899, Control_c, 11, 7, 109
15, 48900, Pitch_bend_c, 11, 5933
15, 48900, Control_c, 11, 7, 109
15, 48901, Pitch_bend_c, 11, 5878
15, 48901, Control_c, 11, 7, 109
15, 48902, Pitch_bend_c, 11, 5830
15, 48902, Control_c, 11, 7, 109
15, 48903, Pitch_bend_c, 11, 5776
15, 48903, Control_c, 11, 7, 109
15, 48904, Pitch_bend_c, 11, 5721
15, 48904, Control_c, 11, 7, 109
15, 48905, Pitch_bend_c, 11, 5673
15, 48905, Control_c, 11, 7, 109
15, 48906, Pitch_bend_c, 11, 5626
15, 48906, Control_c, 11, 7, 109
15, 48907, Pitch_bend_c, 11, 5571
15, 48907, Control_c, 11, 7, 109
15, 48908, Pitch_bend_c, 11, 5523
15, 48908, Control_c, 11, 7, 109
15, 48909, Pitch_bend_c, 11, 5475
15, 48909, Control_c, 11, 7, 109
15, 48910, Pitch_bend_c, 11, 5421
15, 48910, Control_c, 11, 7, 109
15, 48911, Pitch_bend_c, 11, 5373
15, 48911, Control_c, 11, 7, 109
15, 48912, Pitch_bend_c, 11, 5325
15, 48912, Control_c, 11, 7, 109
15, 48913, Pitch_bend_c, 11, 5278
15, 48913, Control_c, 11, 7, 109
15, 48914, Pitch_bend_c, 11, 5230
15, 48914, Control_c, 11, 7, 109
15, 48915, Pitch_bend_c, 11, 5182
15, 48915, Control_c, 11, 7, 109
15, 48916, Pitch_bend_c, 11, 5134
15, 48916, Control_c, 11, 7, 109
15, 48917, Pitch_bend_c, 11, 5086
15, 48917, Control_c, 11, 7, 109
15, 48918, Pitch_bend_c, 11, 5045
15, 48918, Control_c, 11, 7, 109
15, 48919, Pitch_bend_c, 11, 4998
15, 48919, Control_c, 11, 7, 109
15, 48920, Pitch_bend_c, 11, 4950
15, 48920, Control_c, 11, 7, 109
15, 48921, Pitch_bend_c, 11, 4902
15, 48921, Control_c, 11, 7, 109
15, 48922, Pitch_bend_c, 11, 4861
15, 48922, Control_c, 11, 7, 109
15, 48923, Pitch_bend_c, 11, 4813
15, 48923, Control_c, 11, 7, 109
15, 48924, Pitch_bend_c, 11, 4772
15, 48924, Control_c, 11, 7, 108
15, 48925, Pitch_bend_c, 11, 4725
15, 48925, Control_c, 11, 7, 108
15, 48926, Pitch_bend_c, 11, 4684
15, 48926, Control_c, 11, 7, 108
15, 48927, Pitch_bend_c, 11, 4643
15, 48927, Control_c, 11, 7, 108
15, 48928, Pitch_bend_c, 11, 4595
15, 48928, Control_c, 11, 7, 108
15, 48929, Pitch_bend_c, 11, 4554
15, 48929, Control_c, 11, 7, 108
15, 48930, Pitch_bend_c, 11, 4513
15, 48930, Control_c, 11, 7, 108
15, 48931, Pitch_bend_c, 11, 4472
15, 48931, Control_c, 11, 7, 108
15, 48932, Pitch_bend_c, 11, 4431
15, 48932, Control_c, 11, 7, 108
15, 48933, Pitch_bend_c, 11, 4383
15, 48933, Control_c, 11, 7, 108
15, 48934, Pitch_bend_c, 11, 4342
15, 48934, Control_c, 11, 7, 108
15, 48935, Pitch_bend_c, 11, 4301
15, 48935, Control_c, 11, 7, 108
15, 48936, Pitch_bend_c, 11, 4267
15, 48936, Control_c, 11, 7, 108
15, 48937, Pitch_bend_c, 11, 4226
15, 48937, Control_c, 11, 7, 108
15, 48938, Pitch_bend_c, 11, 4185
15, 48938, Control_c, 11, 7, 108
15, 48939, Pitch_bend_c, 11, 4144
15, 48939, Control_c, 11, 7, 108
15, 48940, Pitch_bend_c, 11, 4103
15, 48940, Control_c, 11, 7, 108
15, 48941, Pitch_bend_c, 11, 4069
15, 48941, Control_c, 11, 7, 108
15, 48942, Pitch_bend_c, 11, 4028
15, 48942, Control_c, 11, 7, 108
15, 48943, Pitch_bend_c, 11, 3987
15, 48943, Control_c, 11, 7, 108
15, 48944, Pitch_bend_c, 11, 3953
15, 48944, Control_c, 11, 7, 108
15, 48945, Pitch_bend_c, 11, 3912
15, 48945, Control_c, 11, 7, 108
15, 48946, Pitch_bend_c, 11, 3878
15, 48946, Control_c, 11, 7, 108
15, 48947, Pitch_bend_c, 11, 3837
15, 48947, Control_c, 11, 7, 108
15, 48948, Pitch_bend_c, 11, 3803
15, 48948, Control_c, 11, 7, 108
15, 48949, Pitch_bend_c, 11, 3769
15, 48949, Control_c, 11, 7, 108
15, 48950, Pitch_bend_c, 11, 3728
15, 48950, Control_c, 11, 7, 108
15, 48951, Pitch_bend_c, 11, 3694
15, 48951, Control_c, 11, 7, 108
15, 48952, Pitch_bend_c, 11, 3660
15, 48952, Control_c, 11, 7, 107
15, 48953, Pitch_bend_c, 11, 3619
15, 48953, Control_c, 11, 7, 107
15, 48954, Pitch_bend_c, 11, 3584
15, 48954, Control_c, 11, 7, 107
15, 48955, Pitch_bend_c, 11, 3550
15, 48955, Control_c, 11, 7, 107
15, 48956, Pitch_bend_c, 11, 3516
15, 48956, Control_c, 11, 7, 107
15, 48957, Pitch_bend_c, 11, 3482
15, 48957, Control_c, 11, 7, 107
15, 48958, Pitch_bend_c, 11, 3448
15, 48958, Control_c, 11, 7, 107
15, 48959, Pitch_bend_c, 11, 3414
15, 48959, Control_c, 11, 7, 107
15, 48960, Note_off_c, 11, 78, 64
15, 48960, Note_on_c, 11, 74, 127
15, 48960, Control_c, 11, 7, 107
15, 48960, Pitch_bend_c, 11, 8124
15, 48961, Pitch_bend_c, 11, 8056
15, 48961, Control_c, 11, 7, 107
15, 48962, Pitch_bend_c, 11, 7988
15, 48962, Control_c, 11, 7, 107
15, 48963, Pitch_bend_c, 11, 7919
15, 48963, Control_c, 11, 7, 107
15, 48964, Pitch_bend_c, 11, 7851
15, 48964, Control_c, 11, 7, 107
15, 48965, Pitch_bend_c, 11, 7783
15, 48965, Control_c, 11, 7, 107
15, 48966, Pitch_bend_c, 11, 7715
15, 48966, Control_c, 11, 7, 107
15, 48967, Pitch_bend_c, 11, 7646
15, 48967, Control_c, 11, 7, 107
15, 48968, Pitch_bend_c, 11, 7585
15, 48968, Control_c, 11, 7, 107
15, 48969, Pitch_bend_c, 11, 7517
15, 48969, Control_c, 11, 7, 107
15, 48970, Pitch_bend_c, 11, 7455
15, 48970, Control_c, 11, 7, 107
15, 48971, Pitch_bend_c, 11, 7387
15, 48971, Control_c, 11, 7, 107
15, 48972, Pitch_bend_c, 11, 7326
15, 48972, Control_c, 11, 7, 107
15, 48973, Pitch_bend_c, 11, 7264
15, 48973, Control_c, 11, 7, 107
15, 48974, Pitch_bend_c, 11, 7203
15, 48974, Control_c, 11, 7, 107
15, 48975, Pitch_bend_c, 11, 7134
15, 48975, Control_c, 11, 7, 107
15, 48976, Pitch_bend_c, 11, 7073
15, 48976, Control_c, 11, 7, 107
15, 48977, Pitch_bend_c, 11, 7011
15, 48977, Control_c, 11, 7, 106
15, 48978, Pitch_bend_c, 11, 6957
15, 48978, Control_c, 11, 7, 106
15, 48979, Pitch_bend_c, 11, 6895
15, 48979, Control_c, 11, 7, 106
15, 48980, Pitch_bend_c, 11, 6834
15, 48980, Control_c, 11, 7, 106
15, 48981, Pitch_bend_c, 11, 6773
15, 48981, Control_c, 11, 7, 106
15, 48982, Pitch_bend_c, 11, 6711
15, 48982, Control_c, 11, 7, 106
15, 48983, Pitch_bend_c, 11, 6656
15, 48983, Control_c, 11, 7, 106
15, 48984, Pitch_bend_c, 11, 6595
15, 48984, Control_c, 11, 7, 106
15, 48985, Pitch_bend_c, 11, 6540
15, 48985, Control_c, 11, 7, 106
15, 48986, Pitch_bend_c, 11, 6486
15, 48986, Control_c, 11, 7, 106
15, 48987, Pitch_bend_c, 11, 6424
15, 48987, Control_c, 11, 7, 106
15, 48988, Pitch_bend_c, 11, 6370
15, 48988, Control_c, 11, 7, 106
15, 48989, Pitch_bend_c, 11, 6315
15, 48989, Control_c, 11, 7, 106
15, 48990, Pitch_bend_c, 11, 6261
15, 48990, Control_c, 11, 7, 106
15, 48991, Pitch_bend_c, 11, 6199
15, 48991, Control_c, 11, 7, 106
15, 48992, Pitch_bend_c, 11, 6144
15, 48992, Control_c, 11, 7, 106
15, 48993, Pitch_bend_c, 11, 6097
15, 48993, Control_c, 11, 7, 106
15, 48994, Pitch_bend_c, 11, 6042
15, 48994, Control_c, 11, 7, 106
15, 48995, Pitch_bend_c, 11, 5987
15, 48995, Control_c, 11, 7, 106
15, 48996, Pitch_bend_c, 11, 5933
15, 48996, Control_c, 11, 7, 106
15, 48997, Pitch_bend_c, 11, 5878
15, 48997, Control_c, 11, 7, 106
15, 48998, Pitch_bend_c, 11, 5830
15, 48998, Control_c, 11, 7, 106
15, 48999, Pitch_bend_c, 11, 5776
15, 48999, Control_c, 11, 7, 106
15, 49000, Pitch_bend_c, 11, 5721
15, 49000, Control_c, 11, 7, 105
15, 49001, Pitch_bend_c, 11, 5673
15, 49001, Control_c, 11, 7, 105
15, 49002, Pitch_bend_c, 11, 5626
15, 49002, Control_c, 11, 7, 105
15, 49003, Pitch_bend_c, 11, 5571
15, 49003, Control_c, 11, 7, 105
15, 49004, Pitch_bend_c, 11, 5523
15, 49004, Control_c, 11, 7, 105
15, 49005, Pitch_bend_c, 11, 5475
15, 49005, Control_c, 11, 7, 105
15, 49006, Pitch_bend_c, 11, 5421
15, 49006, Control_c, 11, 7, 105
15, 49007, Pitch_bend_c, 11, 5373
15, 49007, Control_c, 11, 7, 105
15, 49008, Pitch_bend_c, 11, 5325
15, 49008, Control_c, 11, 7, 105
15, 49009, Pitch_bend_c, 11, 5278
15, 49009, Control_c, 11, 7, 105
15, 49010, Pitch_bend_c, 11, 5230
15, 49010, Control_c, 11, 7, 105
15, 49011, Pitch_bend_c, 11, 5182
15, 49011, Control_c, 11, 7, 105
15, 49012, Pitch_bend_c, 11, 5134
15, 49012, Control_c, 11, 7, 105
15, 49013, Pitch_bend_c, 11, 5086
15, 49013, Control_c, 11, 7, 105
15, 49014, Pitch_bend_c, 11, 5045
15, 49014, Control_c, 11, 7, 105
15, 49015, Pitch_bend_c, 11, 4998
15, 49015, Control_c, 11, 7, 105
15, 49016, Pitch_bend_c, 11, 4950
15, 49016, Control_c, 11, 7, 105
15, 49017, Pitch_bend_c, 11, 4902
15, 49017, Control_c, 11, 7, 105
15, 49018, Pitch_bend_c, 11, 4861
15, 49018, Control_c, 11, 7, 105
15, 49019, Pitch_bend_c, 11, 4813
15, 49019, Control_c, 11, 7, 105
15, 49020, Pitch_bend_c, 11, 4772
15, 49020, Control_c, 11, 7, 104
15, 49021, Pitch_bend_c, 11, 4725
15, 49021, Control_c, 11, 7, 104
15, 49022, Pitch_bend_c, 11, 4684
15, 49022, Control_c, 11, 7, 104
15, 49023, Pitch_bend_c, 11, 4643
15, 49023, Control_c, 11, 7, 104
15, 49024, Pitch_bend_c, 11, 4595
15, 49024, Control_c, 11, 7, 104
15, 49025, Pitch_bend_c, 11, 4554
15, 49025, Control_c, 11, 7, 104
15, 49026, Pitch_bend_c, 11, 4513
15, 49026, Control_c, 11, 7, 104
15, 49027, Pitch_bend_c, 11, 4472
15, 49027, Control_c, 11, 7, 104
15, 49028, Pitch_bend_c, 11, 4431
15, 49028, Control_c, 11, 7, 104
15, 49029, Pitch_bend_c, 11, 4383
15, 49029, Control_c, 11, 7, 104
15, 49030, Pitch_bend_c, 11, 4342
15, 49030, Control_c, 11, 7, 104
15, 49031, Pitch_bend_c, 11, 4301
15, 49031, Control_c, 11, 7, 104
15, 49032, Pitch_bend_c, 11, 4267
15, 49032, Control_c, 11, 7, 104
15, 49033, Pitch_bend_c, 11, 4226
15, 49033, Control_c, 11, 7, 104
15, 49034, Pitch_bend_c, 11, 4185
15, 49034, Control_c, 11, 7, 104
15, 49035, Pitch_bend_c, 11, 4144
15, 49035, Control_c, 11, 7, 104
15, 49036, Pitch_bend_c, 11, 4103
15, 49036, Control_c, 11, 7, 104
15, 49037, Pitch_bend_c, 11, 4069
15, 49037, Control_c, 11, 7, 104
15, 49038, Pitch_bend_c, 11, 4028
15, 49038, Control_c, 11, 7, 104
15, 49039, Pitch_bend_c, 11, 3987
15, 49039, Control_c, 11, 7, 103
15, 49040, Pitch_bend_c, 11, 3953
15, 49040, Control_c, 11, 7, 103
15, 49041, Pitch_bend_c, 11, 3912
15, 49041, Control_c, 11, 7, 103
15, 49042, Pitch_bend_c, 11, 3878
15, 49042, Control_c, 11, 7, 103
15, 49043, Pitch_bend_c, 11, 3837
15, 49043, Control_c, 11, 7, 103
15, 49044, Pitch_bend_c, 11, 3803
15, 49044, Control_c, 11, 7, 103
15, 49045, Pitch_bend_c, 11, 3769
15, 49045, Control_c, 11, 7, 103
15, 49046, Pitch_bend_c, 11, 3728
15, 49046, Control_c, 11, 7, 103
15, 49047, Pitch_bend_c, 11, 3694
15, 49047, Control_c, 11, 7, 103
15, 49048, Pitch_bend_c, 11, 3660
15, 49048, Control_c, 11, 7, 103
15, 49049, Pitch_bend_c, 11, 3619
15, 49049, Control_c, 11, 7, 103
15, 49050, Pitch_bend_c, 11, 3584
15, 49050, Control_c, 11, 7, 103
15, 49051, Pitch_bend_c, 11, 3550
15, 49051, Control_c, 11, 7, 103
15, 49052, Pitch_bend_c, 11, 3516
15, 49052, Control_c, 11, 7, 103
15, 49053, Pitch_bend_c, 11, 3482
15, 49053, Control_c, 11, 7, 103
15, 49054, Pitch_bend_c, 11, 3448
15, 49054, Control_c, 11, 7, 103
15, 49055, Pitch_bend_c, 11, 3414
15, 49055, Control_c, 11, 7, 103
15, 49056, Note_off_c, 11, 74, 64
15, 49056, Note_on_c, 11, 65, 127
15, 49056, Control_c, 11, 7, 102
15, 49056, Pitch_bend_c, 11, 8124
15, 49057, Pitch_bend_c, 11, 8056
15, 49057, Control_c, 11, 7, 102
15, 49058, Pitch_bend_c, 11, 7988
15, 49058, Control_c, 11, 7, 102
15, 49059, Pitch_bend_c, 11, 7919
15, 49059, Control_c, 11, 7, 102
15, 49060, Pitch_bend_c, 11, 7851
15, 49060, Control_c, 11, 7, 102
15, 49061, Pitch_bend_c, 11, 7783
15, 49061, Control_c, 11, 7, 102
15, 49062, Pitch_bend_c, 11, 7715
15, 49062, Control_c, 11, 7, 102
15, 49063, Pitch_bend_c, 11, 7646
15, 49063, Control_c, 11, 7, 102
15, 49064, Pitch_bend_c, 11, 7585
15, 49064, Control_c, 11, 7, 102
15, 49065, Pitch_bend_c, 11, 7517
15, 49065, Control_c, 11, 7, 102
15, 49066, Pitch_bend_c, 11, 7455
15, 49066, Control_c, 11, 7, 102
15, 49067, Pitch_bend_c, 11, 7387
15, 49067, Control_c, 11, 7, 102
15, 49068, Pitch_bend_c, 11, 7326
15, 49068, Control_c, 11, 7, 102
15, 49069, Pitch_bend_c, 11, 7264
15, 49069, Control_c, 11, 7, 102
15, 49070, Pitch_bend_c, 11, 7203
15, 49070, Control_c, 11, 7, 102
15, 49071, Pitch_bend_c, 11, 7134
15, 49071, Control_c, 11, 7, 102
15, 49072, Pitch_bend_c, 11, 7073
15, 49072, Control_c, 11, 7, 102
15, 49073, Pitch_bend_c, 11, 7011
15, 49073, Control_c, 11, 7, 101
15, 49074, Pitch_bend_c, 11, 6957
15, 49074, Control_c, 11, 7, 101
15, 49075, Pitch_bend_c, 11, 6895
15, 49075, Control_c, 11, 7, 101
15, 49076, Pitch_bend_c, 11, 6834
15, 49076, Control_c, 11, 7, 101
15, 49077, Pitch_bend_c, 11, 6773
15, 49077, Control_c, 11, 7, 101
15, 49078, Pitch_bend_c, 11, 6711
15, 49078, Control_c, 11, 7, 101
15, 49079, Pitch_bend_c, 11, 6656
15, 49079, Control_c, 11, 7, 101
15, 49080, Pitch_bend_c, 11, 6595
15, 49080, Control_c, 11, 7, 101
15, 49081, Pitch_bend_c, 11, 6540
15, 49081, Control_c, 11, 7, 101
15, 49082, Pitch_bend_c, 11, 6486
15, 49082, Control_c, 11, 7, 101
15, 49083, Pitch_bend_c, 11, 6424
15, 49083, Control_c, 11, 7, 101
15, 49084, Pitch_bend_c, 11, 6370
15, 49084, Control_c, 11, 7, 101
15, 49085, Pitch_bend_c, 11, 6315
15, 49085, Control_c, 11, 7, 101
15, 49086, Pitch_bend_c, 11, 6261
15, 49086, Control_c, 11, 7, 101
15, 49087, Pitch_bend_c, 11, 6199
15, 49087, Control_c, 11, 7, 101
15, 49088, Pitch_bend_c, 11, 6144
15, 49088, Control_c, 11, 7, 100
15, 49089, Pitch_bend_c, 11, 6097
15, 49089, Control_c, 11, 7, 100
15, 49090, Pitch_bend_c, 11, 6042
15, 49090, Control_c, 11, 7, 100
15, 49091, Pitch_bend_c, 11, 5987
15, 49091, Control_c, 11, 7, 100
15, 49092, Pitch_bend_c, 11, 5933
15, 49092, Control_c, 11, 7, 100
15, 49093, Pitch_bend_c, 11, 5878
15, 49093, Control_c, 11, 7, 100
15, 49094, Pitch_bend_c, 11, 5830
15, 49094, Control_c, 11, 7, 100
15, 49095, Pitch_bend_c, 11, 5776
15, 49095, Control_c, 11, 7, 100
15, 49096, Pitch_bend_c, 11, 5721
15, 49096, Control_c, 11, 7, 100
15, 49097, Pitch_bend_c, 11, 5673
15, 49097, Control_c, 11, 7, 100
15, 49098, Pitch_bend_c, 11, 5626
15, 49098, Control_c, 11, 7, 100
15, 49099, Pitch_bend_c, 11, 5571
15, 49099, Control_c, 11, 7, 100
15, 49100, Pitch_bend_c, 11, 5523
15, 49100, Control_c, 11, 7, 100
15, 49101, Pitch_bend_c, 11, 5475
15, 49101, Control_c, 11, 7, 100
15, 49102, Pitch_bend_c, 11, 5421
15, 49102, Control_c, 11, 7, 99
15, 49103, Pitch_bend_c, 11, 5373
15, 49103, Control_c, 11, 7, 99
15, 49104, Note_off_c, 11, 65, 64
15, 49104, Note_on_c, 11, 64, 127
15, 49104, Control_c, 11, 7, 99
15, 49104, Pitch_bend_c, 11, 8124
15, 49105, Pitch_bend_c, 11, 8056
15, 49105, Control_c, 11, 7, 99
15, 49106, Pitch_bend_c, 11, 7988
15, 49106, Control_c, 11, 7, 99
15, 49107, Pitch_bend_c, 11, 7919
15, 49107, Control_c, 11, 7, 99
15, 49108, Pitch_bend_c, 11, 7851
15, 49108, Control_c, 11, 7, 99
15, 49109, Pitch_bend_c, 11, 7783
15, 49109, Control_c, 11, 7, 99
15, 49110, Pitch_bend_c, 11, 7715
15, 49110, Control_c, 11, 7, 99
15, 49111, Pitch_bend_c, 11, 7646
15, 49111, Control_c, 11, 7, 99
15, 49112, Pitch_bend_c, 11, 7585
15, 49112, Control_c, 11, 7, 99
15, 49113, Pitch_bend_c, 11, 7517
15, 49113, Control_c, 11, 7, 99
15, 49114, Pitch_bend_c, 11, 7455
15, 49114, Control_c, 11, 7, 99
15, 49115, Pitch_bend_c, 11, 7387
15, 49115, Control_c, 11, 7, 98
15, 49116, Pitch_bend_c, 11, 7326
15, 49116, Control_c, 11, 7, 98
15, 49117, Pitch_bend_c, 11, 7264
15, 49117, Control_c, 11, 7, 98
15, 49118, Pitch_bend_c, 11, 7203
15, 49118, Control_c, 11, 7, 98
15, 49119, Pitch_bend_c, 11, 7134
15, 49119, Control_c, 11, 7, 98
15, 49120, Pitch_bend_c, 11, 7073
15, 49120, Control_c, 11, 7, 98
15, 49121, Pitch_bend_c, 11, 7011
15, 49121, Control_c, 11, 7, 98
15, 49122, Pitch_bend_c, 11, 6957
15, 49122, Control_c, 11, 7, 98
15, 49123, Pitch_bend_c, 11, 6895
15, 49123, Control_c, 11, 7, 98
15, 49124, Pitch_bend_c, 11, 6834
15, 49124, Control_c, 11, 7, 98
15, 49125, Pitch_bend_c, 11, 6773
15, 49125, Control_c, 11, 7, 98
15, 49126, Pitch_bend_c, 11, 6711
15, 49126, Control_c, 11, 7, 98
15, 49127, Pitch_bend_c, 11, 6656
15, 49127, Control_c, 11, 7, 97
15, 49128, Pitch_bend_c, 11, 6595
15, 49128, Control_c, 11, 7, 97
15, 49129, Pitch_bend_c, 11, 6540
15, 49129, Control_c, 11, 7, 97
15, 49130, Pitch_bend_c, 11, 6486
15, 49130, Control_c, 11, 7, 97
15, 49131, Pitch_bend_c, 11, 6424
15, 49131, Control_c, 11, 7, 97
15, 49132, Pitch_bend_c, 11, 6370
15, 49132, Control_c, 11, 7, 97
15, 49133, Pitch_bend_c, 11, 6315
15, 49133, Control_c, 11, 7, 97
15, 49134, Pitch_bend_c, 11, 6261
15, 49134, Control_c, 11, 7, 97
15, 49135, Pitch_bend_c, 11, 6199
15, 49135, Control_c, 11, 7, 97
15, 49136, Pitch_bend_c, 11, 6144
15, 49136, Control_c, 11, 7, 97
15, 49137, Pitch_bend_c, 11, 6097
15, 49137, Control_c, 11, 7, 97
15, 49138, Pitch_bend_c, 11, 6042
15, 49138, Control_c, 11, 7, 97
15, 49139, Pitch_bend_c, 11, 5987
15, 49139, Control_c, 11, 7, 96
15, 49140, Pitch_bend_c, 11, 5933
15, 49140, Control_c, 11, 7, 96
15, 49141, Pitch_bend_c, 11, 5878
15, 49141, Control_c, 11, 7, 96
15, 49142, Pitch_bend_c, 11, 5830
15, 49142, Control_c, 11, 7, 96
15, 49143, Pitch_bend_c, 11, 5776
15, 49143, Control_c, 11, 7, 96
15, 49144, Pitch_bend_c, 11, 5721
15, 49144, Control_c, 11, 7, 96
15, 49145, Pitch_bend_c, 11, 5673
15, 49145, Control_c, 11, 7, 96
15, 49146, Pitch_bend_c, 11, 5626
15, 49146, Control_c, 11, 7, 96
15, 49147, Pitch_bend_c, 11, 5571
15, 49147, Control_c, 11, 7, 96
15, 49148, Pitch_bend_c, 11, 5523
15, 49148, Control_c, 11, 7, 96
15, 49149, Pitch_bend_c, 11, 5475
15, 49149, Control_c, 11, 7, 96
15, 49150, Pitch_bend_c, 11, 5421
15, 49150, Control_c, 11, 7, 95
15, 49151, Pitch_bend_c, 11, 5373
15, 49151, Control_c, 11, 7, 95
15, 49152, Pitch_bend_c, 11, 5325
15, 49152, Control_c, 11, 7, 95
15, 49153, Pitch_bend_c, 11, 5278
15, 49153, Control_c, 11, 7, 95
15, 49154, Pitch_bend_c, 11, 5230
15, 49154, Control_c, 11, 7, 95
15, 49155, Pitch_bend_c, 11, 5182
15, 49155, Control_c, 11, 7, 95
15, 49156, Pitch_bend_c, 11, 5134
15, 49156, Control_c, 11, 7, 95
15, 49157, Pitch_bend_c, 11, 5086
15, 49157, Control_c, 11, 7, 95
15, 49158, Pitch_bend_c, 11, 5045
15, 49158, Control_c, 11, 7, 95
15, 49159, Pitch_bend_c, 11, 4998
15, 49159, Control_c, 11, 7, 95
15, 49160, Pitch_bend_c, 11, 4950
15, 49160, Control_c, 11, 7, 95
15, 49161, Pitch_bend_c, 11, 4902
15, 49161, Control_c, 11, 7, 94
15, 49162, Pitch_bend_c, 11, 4861
15, 49162, Control_c, 11, 7, 94
15, 49163, Pitch_bend_c, 11, 4813
15, 49163, Control_c, 11, 7, 94
15, 49164, Pitch_bend_c, 11, 4772
15, 49164, Control_c, 11, 7, 94
15, 49165, Pitch_bend_c, 11, 4725
15, 49165, Control_c, 11, 7, 94
15, 49166, Pitch_bend_c, 11, 4684
15, 49166, Control_c, 11, 7, 94
15, 49167, Pitch_bend_c, 11, 4643
15, 49167, Control_c, 11, 7, 94
15, 49168, Pitch_bend_c, 11, 4595
15, 49168, Control_c, 11, 7, 94
15, 49169, Pitch_bend_c, 11, 4554
15, 49169, Control_c, 11, 7, 94
15, 49170, Pitch_bend_c, 11, 4513
15, 49170, Control_c, 11, 7, 94
15, 49171, Pitch_bend_c, 11, 4472
15, 49171, Control_c, 11, 7, 93
15, 49172, Pitch_bend_c, 11, 4431
15, 49172, Control_c, 11, 7, 93
15, 49173, Pitch_bend_c, 11, 4383
15, 49173, Control_c, 11, 7, 93
15, 49174, Pitch_bend_c, 11, 4342
15, 49174, Control_c, 11, 7, 93
15, 49175, Pitch_bend_c, 11, 4301
15, 49175, Control_c, 11, 7, 93
15, 49176, Pitch_bend_c, 11, 4267
15, 49176, Control_c, 11, 7, 93
15, 49177, Pitch_bend_c, 11, 4226
15, 49177, Control_c, 11, 7, 93
15, 49178, Pitch_bend_c, 11, 4185
15, 49178, Control_c, 11, 7, 93
15, 49179, Pitch_bend_c, 11, 4144
15, 49179, Control_c, 11, 7, 93
15, 49180, Pitch_bend_c, 11, 4103
15, 49180, Control_c, 11, 7, 93
15, 49181, Pitch_bend_c, 11, 4069
15, 49181, Control_c, 11, 7, 92
15, 49182, Pitch_bend_c, 11, 4028
15, 49182, Control_c, 11, 7, 92
15, 49183, Pitch_bend_c, 11, 3987
15, 49183, Control_c, 11, 7, 92
15, 49184, Pitch_bend_c, 11, 3953
15, 49184, Control_c, 11, 7, 92
15, 49185, Pitch_bend_c, 11, 3912
15, 49185, Control_c, 11, 7, 92
15, 49186, Pitch_bend_c, 11, 3878
15, 49186, Control_c, 11, 7, 92
15, 49187, Pitch_bend_c, 11, 3837
15, 49187, Control_c, 11, 7, 92
15, 49188, Pitch_bend_c, 11, 3803
15, 49188, Control_c, 11, 7, 92
15, 49189, Pitch_bend_c, 11, 3769
15, 49189, Control_c, 11, 7, 92
15, 49190, Pitch_bend_c, 11, 3728
15, 49190, Control_c, 11, 7, 91
15, 49191, Pitch_bend_c, 11, 3694
15, 49191, Control_c, 11, 7, 91
15, 49192, Pitch_bend_c, 11, 3660
15, 49192, Control_c, 11, 7, 91
15, 49193, Pitch_bend_c, 11, 3619
15, 49193, Control_c, 11, 7, 91
15, 49194, Pitch_bend_c, 11, 3584
15, 49194, Control_c, 11, 7, 91
15, 49195, Pitch_bend_c, 11, 3550
15, 49195, Control_c, 11, 7, 91
15, 49196, Pitch_bend_c, 11, 3516
15, 49196, Control_c, 11, 7, 91
15, 49197, Pitch_bend_c, 11, 3482
15, 49197, Control_c, 11, 7, 91
15, 49198, Pitch_bend_c, 11, 3448
15, 49198, Control_c, 11, 7, 91
15, 49199, Pitch_bend_c, 11, 3414
15, 49199, Control_c, 11, 7, 90
15, 49200, Note_off_c, 11, 64, 64
15, 49200, Note_on_c, 11, 55, 127
15, 49200, Control_c, 11, 7, 90
15, 49200, Pitch_bend_c, 11, 8124
15, 49201, Pitch_bend_c, 11, 8056
15, 49201, Control_c, 11, 7, 90
15, 49202, Pitch_bend_c, 11, 7988
15, 49202, Control_c, 11, 7, 90
15, 49203, Pitch_bend_c, 11, 7919
15, 49203, Control_c, 11, 7, 90
15, 49204, Pitch_bend_c, 11, 7851
15, 49204, Control_c, 11, 7, 90
15, 49205, Pitch_bend_c, 11, 7783
15, 49205, Control_c, 11, 7, 90
15, 49206, Pitch_bend_c, 11, 7715
15, 49206, Control_c, 11, 7, 90
15, 49207, Pitch_bend_c, 11, 7646
15, 49207, Control_c, 11, 7, 90
15, 49208, Pitch_bend_c, 11, 7585
15, 49208, Control_c, 11, 7, 89
15, 49209, Pitch_bend_c, 11, 7517
15, 49209, Control_c, 11, 7, 89
15, 49210, Pitch_bend_c, 11, 7455
15, 49210, Control_c, 11, 7, 89
15, 49211, Pitch_bend_c, 11, 7387
15, 49211, Control_c, 11, 7, 89
15, 49212, Pitch_bend_c, 11, 7326
15, 49212, Control_c, 11, 7, 89
15, 49213, Pitch_bend_c, 11, 7264
15, 49213, Control_c, 11, 7, 89
15, 49214, Pitch_bend_c, 11, 7203
15, 49214, Control_c, 11, 7, 89
15, 49215, Pitch_bend_c, 11, 7134
15, 49215, Control_c, 11, 7, 89
15, 49216, Pitch_bend_c, 11, 7073
15, 49216, Control_c, 11, 7, 88
15, 49217, Pitch_bend_c, 11, 7011
15, 49217, Control_c, 11, 7, 88
15, 49218, Pitch_bend_c, 11, 6957
15, 49218, Control_c, 11, 7, 88
15, 49219, Pitch_bend_c, 11, 6895
15, 49219, Control_c, 11, 7, 88
15, 49220, Pitch_bend_c, 11, 6834
15, 49220, Control_c, 11, 7, 88
15, 49221, Pitch_bend_c, 11, 6773
15, 49221, Control_c, 11, 7, 88
15, 49222, Pitch_bend_c, 11, 6711
15, 49222, Control_c, 11, 7, 88
15, 49223, Pitch_bend_c, 11, 6656
15, 49223, Control_c, 11, 7, 88
15, 49224, Pitch_bend_c, 11, 6595
15, 49224, Control_c, 11, 7, 87
15, 49225, Pitch_bend_c, 11, 6540
15, 49225, Control_c, 11, 7, 87
15, 49226, Pitch_bend_c, 11, 6486
15, 49226, Control_c, 11, 7, 87
15, 49227, Pitch_bend_c, 11, 6424
15, 49227, Control_c, 11, 7, 87
15, 49228, Pitch_bend_c, 11, 6370
15, 49228, Control_c, 11, 7, 87
15, 49229, Pitch_bend_c, 11, 6315
15, 49229, Control_c, 11, 7, 87
15, 49230, Pitch_bend_c, 11, 6261
15, 49230, Control_c, 11, 7, 87
15, 49231, Pitch_bend_c, 11, 6199
15, 49231, Control_c, 11, 7, 87
15, 49232, Pitch_bend_c, 11, 6144
15, 49232, Control_c, 11, 7, 86
15, 49233, Pitch_bend_c, 11, 6097
15, 49233, Control_c, 11, 7, 86
15, 49234, Pitch_bend_c, 11, 6042
15, 49234, Control_c, 11, 7, 86
15, 49235, Pitch_bend_c, 11, 5987
15, 49235, Control_c, 11, 7, 86
15, 49236, Pitch_bend_c, 11, 5933
15, 49236, Control_c, 11, 7, 86
15, 49237, Pitch_bend_c, 11, 5878
15, 49237, Control_c, 11, 7, 86
15, 49238, Pitch_bend_c, 11, 5830
15, 49238, Control_c, 11, 7, 86
15, 49239, Pitch_bend_c, 11, 5776
15, 49239, Control_c, 11, 7, 85
15, 49240, Pitch_bend_c, 11, 5721
15, 49240, Control_c, 11, 7, 85
15, 49241, Pitch_bend_c, 11, 5673
15, 49241, Control_c, 11, 7, 85
15, 49242, Pitch_bend_c, 11, 5626
15, 49242, Control_c, 11, 7, 85
15, 49243, Pitch_bend_c, 11, 5571
15, 49243, Control_c, 11, 7, 85
15, 49244, Pitch_bend_c, 11, 5523
15, 49244, Control_c, 11, 7, 85
15, 49245, Pitch_bend_c, 11, 5475
15, 49245, Control_c, 11, 7, 85
15, 49246, Pitch_bend_c, 11, 5421
15, 49246, Control_c, 11, 7, 85
15, 49247, Pitch_bend_c, 11, 5373
15, 49247, Control_c, 11, 7, 84
15, 49248, Pitch_bend_c, 11, 5325
15, 49248, Control_c, 11, 7, 84
15, 49249, Pitch_bend_c, 11, 5278
15, 49249, Control_c, 11, 7, 84
15, 49250, Pitch_bend_c, 11, 5230
15, 49250, Control_c, 11, 7, 84
15, 49251, Pitch_bend_c, 11, 5182
15, 49251, Control_c, 11, 7, 84
15, 49252, Pitch_bend_c, 11, 5134
15, 49252, Control_c, 11, 7, 84
15, 49253, Pitch_bend_c, 11, 5086
15, 49253, Control_c, 11, 7, 84
15, 49254, Pitch_bend_c, 11, 5045
15, 49254, Control_c, 11, 7, 83
15, 49255, Pitch_bend_c, 11, 4998
15, 49255, Control_c, 11, 7, 83
15, 49256, Pitch_bend_c, 11, 4950
15, 49256, Control_c, 11, 7, 83
15, 49257, Pitch_bend_c, 11, 4902
15, 49257, Control_c, 11, 7, 83
15, 49258, Pitch_bend_c, 11, 4861
15, 49258, Control_c, 11, 7, 83
15, 49259, Pitch_bend_c, 11, 4813
15, 49259, Control_c, 11, 7, 83
15, 49260, Pitch_bend_c, 11, 4772
15, 49260, Control_c, 11, 7, 82
15, 49261, Pitch_bend_c, 11, 4725
15, 49261, Control_c, 11, 7, 82
15, 49262, Pitch_bend_c, 11, 4684
15, 49262, Control_c, 11, 7, 82
15, 49263, Pitch_bend_c, 11, 4643
15, 49263, Control_c, 11, 7, 82
15, 49264, Pitch_bend_c, 11, 4595
15, 49264, Control_c, 11, 7, 82
15, 49265, Pitch_bend_c, 11, 4554
15, 49265, Control_c, 11, 7, 82
15, 49266, Pitch_bend_c, 11, 4513
15, 49266, Control_c, 11, 7, 82
15, 49267, Pitch_bend_c, 11, 4472
15, 49267, Control_c, 11, 7, 81
15, 49268, Pitch_bend_c, 11, 4431
15, 49268, Control_c, 11, 7, 81
15, 49269, Pitch_bend_c, 11, 4383
15, 49269, Control_c, 11, 7, 81
15, 49270, Pitch_bend_c, 11, 4342
15, 49270, Control_c, 11, 7, 81
15, 49271, Pitch_bend_c, 11, 4301
15, 49271, Control_c, 11, 7, 81
15, 49272, Pitch_bend_c, 11, 4267
15, 49272, Control_c, 11, 7, 81
15, 49273, Pitch_bend_c, 11, 4226
15, 49273, Control_c, 11, 7, 80
15, 49274, Pitch_bend_c, 11, 4185
15, 49274, Control_c, 11, 7, 80
15, 49275, Pitch_bend_c, 11, 4144
15, 49275, Control_c, 11, 7, 80
15, 49276, Pitch_bend_c, 11, 4103
15, 49276, Control_c, 11, 7, 80
15, 49277, Pitch_bend_c, 11, 4069
15, 49277, Control_c, 11, 7, 80
15, 49278, Pitch_bend_c, 11, 4028
15, 49278, Control_c, 11, 7, 80
15, 49279, Pitch_bend_c, 11, 3987
15, 49279, Control_c, 11, 7, 80
15, 49280, Pitch_bend_c, 11, 3953
15, 49280, Control_c, 11, 7, 79
15, 49281, Pitch_bend_c, 11, 3912
15, 49281, Control_c, 11, 7, 79
15, 49282, Pitch_bend_c, 11, 3878
15, 49282, Control_c, 11, 7, 79
15, 49283, Pitch_bend_c, 11, 3837
15, 49283, Control_c, 11, 7, 79
15, 49284, Pitch_bend_c, 11, 3803
15, 49284, Control_c, 11, 7, 79
15, 49285, Pitch_bend_c, 11, 3769
15, 49285, Control_c, 11, 7, 79
15, 49286, Pitch_bend_c, 11, 3728
15, 49286, Control_c, 11, 7, 78
15, 49287, Pitch_bend_c, 11, 3694
15, 49287, Control_c, 11, 7, 78
15, 49288, Pitch_bend_c, 11, 3660
15, 49288, Control_c, 11, 7, 78
15, 49289, Pitch_bend_c, 11, 3619
15, 49289, Control_c, 11, 7, 78
15, 49290, Pitch_bend_c, 11, 3584
15, 49290, Control_c, 11, 7, 78
15, 49291, Pitch_bend_c, 11, 3550
15, 49291, Control_c, 11, 7, 78
15, 49292, Pitch_bend_c, 11, 3516
15, 49292, Control_c, 11, 7, 77
15, 49293, Pitch_bend_c, 11, 3482
15, 49293, Control_c, 11, 7, 77
15, 49294, Pitch_bend_c, 11, 3448
15, 49294, Control_c, 11, 7, 77
15, 49295, Pitch_bend_c, 11, 3414
15, 49295, Control_c, 11, 7, 77
15, 49296, Note_off_c, 11, 55, 64
15, 49296, Note_on_c, 11, 52, 127
15, 49296, Control_c, 11, 7, 77
15, 49296, Pitch_bend_c, 11, 8124
15, 49297, Pitch_bend_c, 11, 8056
15, 49297, Control_c, 11, 7, 76
15, 49298, Pitch_bend_c, 11, 7988
15, 49298, Control_c, 11, 7, 76
15, 49299, Pitch_bend_c, 11, 7919
15, 49299, Control_c, 11, 7, 76
15, 49300, Pitch_bend_c, 11, 7851
15, 49300, Control_c, 11, 7, 76
15, 49301, Pitch_bend_c, 11, 7783
15, 49301, Control_c, 11, 7, 76
15, 49302, Pitch_bend_c, 11, 7715
15, 49302, Control_c, 11, 7, 76
15, 49303, Pitch_bend_c, 11, 7646
15, 49303, Control_c, 11, 7, 75
15, 49304, Pitch_bend_c, 11, 7585
15, 49304, Control_c, 11, 7, 75
15, 49305, Pitch_bend_c, 11, 7517
15, 49305, Control_c, 11, 7, 75
15, 49306, Pitch_bend_c, 11, 7455
15, 49306, Control_c, 11, 7, 75
15, 49307, Pitch_bend_c, 11, 7387
15, 49307, Control_c, 11, 7, 75
15, 49308, Pitch_bend_c, 11, 7326
15, 49308, Control_c, 11, 7, 74
15, 49309, Pitch_bend_c, 11, 7264
15, 49309, Control_c, 11, 7, 74
15, 49310, Pitch_bend_c, 11, 7203
15, 49310, Control_c, 11, 7, 74
15, 49311, Pitch_bend_c, 11, 7134
15, 49311, Control_c, 11, 7, 74
15, 49312, Pitch_bend_c, 11, 7073
15, 49312, Control_c, 11, 7, 74
15, 49313, Pitch_bend_c, 11, 7011
15, 49313, Control_c, 11, 7, 74
15, 49314, Pitch_bend_c, 11, 6957
15, 49314, Control_c, 11, 7, 73
15, 49315, Pitch_bend_c, 11, 6895
15, 49315, Control_c, 11, 7, 73
15, 49316, Pitch_bend_c, 11, 6834
15, 49316, Control_c, 11, 7, 73
15, 49317, Pitch_bend_c, 11, 6773
15, 49317, Control_c, 11, 7, 73
15, 49318, Pitch_bend_c, 11, 6711
15, 49318, Control_c, 11, 7, 73
15, 49319, Pitch_bend_c, 11, 6656
15, 49319, Control_c, 11, 7, 72
15, 49320, Pitch_bend_c, 11, 6595
15, 49320, Control_c, 11, 7, 72
15, 49321, Pitch_bend_c, 11, 6540
15, 49321, Control_c, 11, 7, 72
15, 49322, Pitch_bend_c, 11, 6486
15, 49322, Control_c, 11, 7, 72
15, 49323, Pitch_bend_c, 11, 6424
15, 49323, Control_c, 11, 7, 72
15, 49324, Pitch_bend_c, 11, 6370
15, 49324, Control_c, 11, 7, 71
15, 49325, Pitch_bend_c, 11, 6315
15, 49325, Control_c, 11, 7, 71
15, 49326, Pitch_bend_c, 11, 6261
15, 49326, Control_c, 11, 7, 71
15, 49327, Pitch_bend_c, 11, 6199
15, 49327, Control_c, 11, 7, 71
15, 49328, Pitch_bend_c, 11, 6144
15, 49328, Control_c, 11, 7, 71
15, 49329, Pitch_bend_c, 11, 6097
15, 49329, Control_c, 11, 7, 70
15, 49330, Pitch_bend_c, 11, 6042
15, 49330, Control_c, 11, 7, 70
15, 49331, Pitch_bend_c, 11, 5987
15, 49331, Control_c, 11, 7, 70
15, 49332, Pitch_bend_c, 11, 5933
15, 49332, Control_c, 11, 7, 70
15, 49333, Pitch_bend_c, 11, 5878
15, 49333, Control_c, 11, 7, 70
15, 49334, Pitch_bend_c, 11, 5830
15, 49334, Control_c, 11, 7, 69
15, 49335, Pitch_bend_c, 11, 5776
15, 49335, Control_c, 11, 7, 69
15, 49336, Pitch_bend_c, 11, 5721
15, 49336, Control_c, 11, 7, 69
15, 49337, Pitch_bend_c, 11, 5673
15, 49337, Control_c, 11, 7, 69
15, 49338, Pitch_bend_c, 11, 5626
15, 49338, Control_c, 11, 7, 69
15, 49339, Pitch_bend_c, 11, 5571
15, 49339, Control_c, 11, 7, 68
15, 49340, Pitch_bend_c, 11, 5523
15, 49340, Control_c, 11, 7, 68
15, 49341, Pitch_bend_c, 11, 5475
15, 49341, Control_c, 11, 7, 68
15, 49342, Pitch_bend_c, 11, 5421
15, 49342, Control_c, 11, 7, 68
15, 49343, Pitch_bend_c, 11, 5373
15, 49343, Control_c, 11, 7, 67
15, 49344, Pitch_bend_c, 11, 5325
15, 49344, Control_c, 11, 7, 67
15, 49345, Pitch_bend_c, 11, 5278
15, 49345, Control_c, 11, 7, 67
15, 49346, Pitch_bend_c, 11, 5230
15, 49346, Control_c, 11, 7, 67
15, 49347, Pitch_bend_c, 11, 5182
15, 49347, Control_c, 11, 7, 67
15, 49348, Pitch_bend_c, 11, 5134
15, 49348, Control_c, 11, 7, 66
15, 49349, Pitch_bend_c, 11, 5086
15, 49349, Control_c, 11, 7, 66
15, 49350, Pitch_bend_c, 11, 5045
15, 49350, Control_c, 11, 7, 66
15, 49351, Pitch_bend_c, 11, 4998
15, 49351, Control_c, 11, 7, 66
15, 49352, Pitch_bend_c, 11, 4950
15, 49352, Control_c, 11, 7, 65
15, 49353, Pitch_bend_c, 11, 4902
15, 49353, Control_c, 11, 7, 65
15, 49354, Pitch_bend_c, 11, 4861
15, 49354, Control_c, 11, 7, 65
15, 49355, Pitch_bend_c, 11, 4813
15, 49355, Control_c, 11, 7, 65
15, 49356, Pitch_bend_c, 11, 4772
15, 49356, Control_c, 11, 7, 65
15, 49357, Pitch_bend_c, 11, 4725
15, 49357, Control_c, 11, 7, 64
15, 49358, Pitch_bend_c, 11, 4684
15, 49358, Control_c, 11, 7, 64
15, 49359, Pitch_bend_c, 11, 4643
15, 49359, Control_c, 11, 7, 64
15, 49360, Pitch_bend_c, 11, 4595
15, 49360, Control_c, 11, 7, 64
15, 49361, Pitch_bend_c, 11, 4554
15, 49361, Control_c, 11, 7, 63
15, 49362, Pitch_bend_c, 11, 4513
15, 49362, Control_c, 11, 7, 63
15, 49363, Pitch_bend_c, 11, 4472
15, 49363, Control_c, 11, 7, 63
15, 49364, Pitch_bend_c, 11, 4431
15, 49364, Control_c, 11, 7, 63
15, 49365, Pitch_bend_c, 11, 4383
15, 49365, Control_c, 11, 7, 62
15, 49366, Pitch_bend_c, 11, 4342
15, 49366, Control_c, 11, 7, 62
15, 49367, Pitch_bend_c, 11, 4301
15, 49367, Control_c, 11, 7, 62
15, 49368, Pitch_bend_c, 11, 4267
15, 49368, Control_c, 11, 7, 62
15, 49369, Pitch_bend_c, 11, 4226
15, 49369, Control_c, 11, 7, 62
15, 49370, Pitch_bend_c, 11, 4185
15, 49370, Control_c, 11, 7, 61
15, 49371, Pitch_bend_c, 11, 4144
15, 49371, Control_c, 11, 7, 61
15, 49372, Pitch_bend_c, 11, 4103
15, 49372, Control_c, 11, 7, 61
15, 49373, Pitch_bend_c, 11, 4069
15, 49373, Control_c, 11, 7, 61
15, 49374, Pitch_bend_c, 11, 4028
15, 49374, Control_c, 11, 7, 60
15, 49375, Pitch_bend_c, 11, 3987
15, 49375, Control_c, 11, 7, 60
15, 49376, Pitch_bend_c, 11, 3953
15, 49376, Control_c, 11, 7, 60
15, 49377, Pitch_bend_c, 11, 3912
15, 49377, Control_c, 11, 7, 60
15, 49378, Pitch_bend_c, 11, 3878
15, 49378, Control_c, 11, 7, 59
15, 49379, Pitch_bend_c, 11, 3837
15, 49379, Control_c, 11, 7, 59
15, 49380, Pitch_bend_c, 11, 3803
15, 49380, Control_c, 11, 7, 59
15, 49381, Pitch_bend_c, 11, 3769
15, 49381, Control_c, 11, 7, 59
15, 49382, Pitch_bend_c, 11, 3728
15, 49382, Control_c, 11, 7, 58
15, 49383, Pitch_bend_c, 11, 3694
15, 49383, Control_c, 11, 7, 58
15, 49384, Pitch_bend_c, 11, 3660
15, 49384, Control_c, 11, 7, 58
15, 49385, Pitch_bend_c, 11, 3619
15, 49385, Control_c, 11, 7, 57
15, 49386, Pitch_bend_c, 11, 3584
15, 49386, Control_c, 11, 7, 57
15, 49387, Pitch_bend_c, 11, 3550
15, 49387, Control_c, 11, 7, 57
15, 49388, Pitch_bend_c, 11, 3516
15, 49388, Control_c, 11, 7, 57
15, 49389, Pitch_bend_c, 11, 3482
15, 49389, Control_c, 11, 7, 56
15, 49390, Pitch_bend_c, 11, 3448
15, 49390, Control_c, 11, 7, 56
15, 49391, Pitch_bend_c, 11, 3414
15, 49391, Control_c, 11, 7, 56
15, 49392, Note_off_c, 11, 52, 64
15, 49392, Note_on_c, 11, 50, 127
15, 49392, Control_c, 11, 7, 56
15, 49392, Pitch_bend_c, 11, 8124
15, 49393, Pitch_bend_c, 11, 8056
15, 49393, Control_c, 11, 7, 55
15, 49394, Pitch_bend_c, 11, 7988
15, 49394, Control_c, 11, 7, 55
15, 49395, Pitch_bend_c, 11, 7919
15, 49395, Control_c, 11, 7, 55
15, 49396, Pitch_bend_c, 11, 7851
15, 49396, Control_c, 11, 7, 55
15, 49397, Pitch_bend_c, 11, 7783
15, 49397, Control_c, 11, 7, 54
15, 49398, Pitch_bend_c, 11, 7715
15, 49398, Control_c, 11, 7, 54
15, 49399, Pitch_bend_c, 11, 7646
15, 49399, Control_c, 11, 7, 54
15, 49400, Pitch_bend_c, 11, 7585
15, 49400, Control_c, 11, 7, 53
15, 49401, Pitch_bend_c, 11, 7517
15, 49401, Control_c, 11, 7, 53
15, 49402, Pitch_bend_c, 11, 7455
15, 49402, Control_c, 11, 7, 53
15, 49403, Pitch_bend_c, 11, 7387
15, 49403, Control_c, 11, 7, 53
15, 49404, Pitch_bend_c, 11, 7326
15, 49404, Control_c, 11, 7, 52
15, 49405, Pitch_bend_c, 11, 7264
15, 49405, Control_c, 11, 7, 52
15, 49406, Pitch_bend_c, 11, 7203
15, 49406, Control_c, 11, 7, 52
15, 49407, Pitch_bend_c, 11, 7134
15, 49407, Control_c, 11, 7, 51
15, 49408, Pitch_bend_c, 11, 7073
15, 49408, Control_c, 11, 7, 51
15, 49409, Pitch_bend_c, 11, 7011
15, 49409, Control_c, 11, 7, 51
15, 49410, Pitch_bend_c, 11, 6957
15, 49410, Control_c, 11, 7, 51
15, 49411, Pitch_bend_c, 11, 6895
15, 49411, Control_c, 11, 7, 50
15, 49412, Pitch_bend_c, 11, 6834
15, 49412, Control_c, 11, 7, 50
15, 49413, Pitch_bend_c, 11, 6773
15, 49413, Control_c, 11, 7, 50
15, 49414, Pitch_bend_c, 11, 6711
15, 49414, Control_c, 11, 7, 49
15, 49415, Pitch_bend_c, 11, 6656
15, 49415, Control_c, 11, 7, 49
15, 49416, Pitch_bend_c, 11, 6595
15, 49416, Control_c, 11, 7, 49
15, 49417, Pitch_bend_c, 11, 6540
15, 49417, Control_c, 11, 7, 48
15, 49418, Pitch_bend_c, 11, 6486
15, 49418, Control_c, 11, 7, 48
15, 49419, Pitch_bend_c, 11, 6424
15, 49419, Control_c, 11, 7, 48
15, 49420, Pitch_bend_c, 11, 6370
15, 49420, Control_c, 11, 7, 48
15, 49421, Pitch_bend_c, 11, 6315
15, 49421, Control_c, 11, 7, 47
15, 49422, Pitch_bend_c, 11, 6261
15, 49422, Control_c, 11, 7, 47
15, 49423, Pitch_bend_c, 11, 6199
15, 49423, Control_c, 11, 7, 47
15, 49424, Pitch_bend_c, 11, 6144
15, 49424, Control_c, 11, 7, 46
15, 49425, Pitch_bend_c, 11, 6097
15, 49425, Control_c, 11, 7, 46
15, 49426, Pitch_bend_c, 11, 6042
15, 49426, Control_c, 11, 7, 46
15, 49427, Pitch_bend_c, 11, 5987
15, 49427, Control_c, 11, 7, 45
15, 49428, Pitch_bend_c, 11, 5933
15, 49428, Control_c, 11, 7, 45
15, 49429, Pitch_bend_c, 11, 5878
15, 49429, Control_c, 11, 7, 45
15, 49430, Pitch_bend_c, 11, 5830
15, 49430, Control_c, 11, 7, 44
15, 49431, Pitch_bend_c, 11, 5776
15, 49431, Control_c, 11, 7, 44
15, 49432, Pitch_bend_c, 11, 5721
15, 49432, Control_c, 11, 7, 44
15, 49433, Pitch_bend_c, 11, 5673
15, 49433, Control_c, 11, 7, 43
15, 49434, Pitch_bend_c, 11, 5626
15, 49434, Control_c, 11, 7, 43
15, 49435, Pitch_bend_c, 11, 5571
15, 49435, Control_c, 11, 7, 43
15, 49436, Pitch_bend_c, 11, 5523
15, 49436, Control_c, 11, 7, 42
15, 49437, Pitch_bend_c, 11, 5475
15, 49437, Control_c, 11, 7, 42
15, 49438, Pitch_bend_c, 11, 5421
15, 49438, Control_c, 11, 7, 42
15, 49439, Pitch_bend_c, 11, 5373
15, 49439, Control_c, 11, 7, 42
15, 49440, Note_off_c, 11, 50, 64
15, 49440, Note_on_c, 11, 48, 127
15, 49440, Pitch_bend_c, 11, 8124
15, 49441, Pitch_bend_c, 11, 8056
15, 49442, Pitch_bend_c, 11, 7988
15, 49443, Pitch_bend_c, 11, 7919
15, 49444, Pitch_bend_c, 11, 7851
15, 49445, Pitch_bend_c, 11, 7783
15, 49446, Pitch_bend_c, 11, 7715
15, 49447, Pitch_bend_c, 11, 7646
15, 49448, Pitch_bend_c, 11, 7585
15, 49449, Pitch_bend_c, 11, 7517
15, 49450, Pitch_bend_c, 11, 7455
15, 49451, Pitch_bend_c, 11, 7387
15, 49452, Pitch_bend_c, 11, 7326
15, 49453, Pitch_bend_c, 11, 7264
15, 49454, Pitch_bend_c, 11, 7203
15, 49455, Pitch_bend_c, 11, 7134
15, 49456, Pitch_bend_c, 11, 7073
15, 49457, Pitch_bend_c, 11, 7011
15, 49458, Pitch_bend_c, 11, 6957
15, 49459, Pitch_bend_c, 11, 6895
15, 49460, Pitch_bend_c, 11, 6834
15, 49461, Pitch_bend_c, 11, 6773
15, 49462, Pitch_bend_c, 11, 6711
15, 49463, Pitch_bend_c, 11, 6656
15, 49464, Pitch_bend_c, 11, 6595
15, 49465, Pitch_bend_c, 11, 6540
15, 49466, Pitch_bend_c, 11, 6486
15, 49467, Pitch_bend_c, 11, 6424
15, 49468, Pitch_bend_c, 11, 6370
15, 49469, Pitch_bend_c, 11, 6315
15, 49470, Pitch_bend_c, 11, 6261
15, 49471, Pitch_bend_c, 11, 6199
15, 49472, Pitch_bend_c, 11, 6144
15, 49473, Pitch_bend_c, 11, 6097
15, 49474, Pitch_bend_c, 11, 6042
15, 49475, Pitch_bend_c, 11, 5987
15, 49476, Pitch_bend_c, 11, 5933
15, 49477, Pitch_bend_c, 11, 5878
15, 49478, Pitch_bend_c, 11, 5830
15, 49479, Pitch_bend_c, 11, 5776
15, 49480, Pitch_bend_c, 11, 5721
15, 49481, Pitch_bend_c, 11, 5673
15, 49482, Pitch_bend_c, 11, 5626
15, 49483, Pitch_bend_c, 11, 5571
15, 49484, Pitch_bend_c, 11, 5523
15, 49485, Pitch_bend_c, 11, 5475
15, 49486, Pitch_bend_c, 11, 5421
15, 49487, Pitch_bend_c, 11, 5373
15, 49488, Note_off_c, 11, 48, 64
15, 49488, Note_on_c, 11, 47, 127
15, 49488, Pitch_bend_c, 11, 8124
15, 49489, Pitch_bend_c, 11, 8056
15, 49490, Pitch_bend_c, 11, 7988
15, 49491, Pitch_bend_c, 11, 7919
15, 49492, Pitch_bend_c, 11, 7851
15, 49493, Pitch_bend_c, 11, 7783
15, 49494, Pitch_bend_c, 11, 7715
15, 49495, Pitch_bend_c, 11, 7646
15, 49496, Pitch_bend_c, 11, 7585
15, 49497, Pitch_bend_c, 11, 7517
15, 49498, Pitch_bend_c, 11, 7455
15, 49499, Pitch_bend_c, 11, 7387
15, 49500, Pitch_bend_c, 11, 7326
15, 49501, Pitch_bend_c, 11, 7264
15, 49502, Pitch_bend_c, 11, 7203
15, 49503, Pitch_bend_c, 11, 7134
15, 49504, Pitch_bend_c, 11, 7073
15, 49505, Pitch_bend_c, 11, 7011
15, 49506, Pitch_bend_c, 11, 6957
15, 49507, Pitch_bend_c, 11, 6895
15, 49508, Pitch_bend_c, 11, 6834
15, 49509, Pitch_bend_c, 11, 6773
15, 49510, Pitch_bend_c, 11, 6711
15, 49511, Pitch_bend_c, 11, 6656
15, 49512, Pitch_bend_c, 11, 6595
15, 49513, Pitch_bend_c, 11, 6540
15, 49514, Pitch_bend_c, 11, 6486
15, 49515, Pitch_bend_c, 11, 6424
15, 49516, Pitch_bend_c, 11, 6370
15, 49517, Pitch_bend_c, 11, 6315
15, 49518, Pitch_bend_c, 11, 6261
15, 49519, Pitch_bend_c, 11, 6199
15, 49520, Pitch_bend_c, 11, 6144
15, 49521, Pitch_bend_c, 11, 6097
15, 49522, Pitch_bend_c, 11, 6042
15, 49523, Pitch_bend_c, 11, 5987
15, 49524, Pitch_bend_c, 11, 5933
15, 49525, Pitch_bend_c, 11, 5878
15, 49526, Pitch_bend_c, 11, 5830
15, 49527, Pitch_bend_c, 11, 5776
15, 49528, Pitch_bend_c, 11, 5721
15, 49529, Pitch_bend_c, 11, 5673
15, 49530, Pitch_bend_c, 11, 5626
15, 49531, Pitch_bend_c, 11, 5571
15, 49532, Pitch_bend_c, 11, 5523
15, 49533, Pitch_bend_c, 11, 5475
15, 49534, Pitch_bend_c, 11, 5421
15, 49535, Pitch_bend_c, 11, 5373
15, 49536, Note_off_c, 11, 47, 64
15, 49920, Control_c, 11, 7, 108
15, 54912, Note_on_c, 11, 83, 127
15, 54912, Pitch_bend_c, 11, 8124
15, 54913, Pitch_bend_c, 11, 8056
15, 54914, Pitch_bend_c, 11, 7988
15, 54915, Pitch_bend_c, 11, 7919
15, 54916, Pitch_bend_c, 11, 7851
15, 54917, Pitch_bend_c, 11, 7783
15, 54918, Pitch_bend_c, 11, 7715
15, 54919, Pitch_bend_c, 11, 7646
15, 54920, Pitch_bend_c, 11, 7585
15, 54921, Pitch_bend_c, 11, 7517
15, 54922, Pitch_bend_c, 11, 7455
15, 54923, Pitch_bend_c, 11, 7387
15, 54924, Pitch_bend_c, 11, 7326
15, 54925, Pitch_bend_c, 11, 7264
15, 54926, Pitch_bend_c, 11, 7203
15, 54927, Pitch_bend_c, 11, 7134
15, 54928, Pitch_bend_c, 11, 7073
15, 54929, Pitch_bend_c, 11, 7011
15, 54930, Pitch_bend_c, 11, 6957
15, 54931, Pitch_bend_c, 11, 6895
15, 54932, Pitch_bend_c, 11, 6834
15, 54933, Pitch_bend_c, 11, 6773
15, 54934, Pitch_bend_c, 11, 6711
15, 54935, Pitch_bend_c, 11, 6656
15, 54936, Pitch_bend_c, 11, 6595
15, 54937, Pitch_bend_c, 11, 6540
15, 54938, Pitch_bend_c, 11, 6486
15, 54939, Pitch_bend_c, 11, 6424
15, 54940, Pitch_bend_c, 11, 6370
15, 54941, Pitch_bend_c, 11, 6315
15, 54942, Pitch_bend_c, 11, 6261
15, 54943, Pitch_bend_c, 11, 6199
15, 54944, Pitch_bend_c, 11, 6144
15, 54945, Pitch_bend_c, 11, 6097
15, 54946, Pitch_bend_c, 11, 6042
15, 54947, Pitch_bend_c, 11, 5987
15, 54948, Pitch_bend_c, 11, 5933
15, 54949, Pitch_bend_c, 11, 5878
15, 54950, Pitch_bend_c, 11, 5830
15, 54951, Pitch_bend_c, 11, 5776
15, 54952, Pitch_bend_c, 11, 5721
15, 54953, Pitch_bend_c, 11, 5673
15, 54954, Pitch_bend_c, 11, 5626
15, 54955, Pitch_bend_c, 11, 5571
15, 54956, Pitch_bend_c, 11, 5523
15, 54957, Pitch_bend_c, 11, 5475
15, 54958, Pitch_bend_c, 11, 5421
15, 54959, Pitch_bend_c, 11, 5373
15, 54960, Pitch_bend_c, 11, 5325
15, 54961, Pitch_bend_c, 11, 5278
15, 54962, Pitch_bend_c, 11, 5230
15, 54963, Pitch_bend_c, 11, 5182
15, 54964, Pitch_bend_c, 11, 5134
15, 54965, Pitch_bend_c, 11, 5086
15, 54966, Pitch_bend_c, 11, 5045
15, 54967, Pitch_bend_c, 11, 4998
15, 54968, Pitch_bend_c, 11, 4950
15, 54969, Pitch_bend_c, 11, 4902
15, 54970, Pitch_bend_c, 11, 4861
15, 54971, Pitch_bend_c, 11, 4813
15, 54972, Pitch_bend_c, 11, 4772
15, 54973, Pitch_bend_c, 11, 4725
15, 54974, Pitch_bend_c, 11, 4684
15, 54975, Pitch_bend_c, 11, 4643
15, 54976, Pitch_bend_c, 11, 4595
15, 54977, Pitch_bend_c, 11, 4554
15, 54978, Pitch_bend_c, 11, 4513
15, 54979, Pitch_bend_c, 11, 4472
15, 54980, Pitch_bend_c, 11, 4431
15, 54981, Pitch_bend_c, 11, 4383
15, 54982, Pitch_bend_c, 11, 4342
15, 54983, Pitch_bend_c, 11, 4301
15, 54984, Pitch_bend_c, 11, 4267
15, 54985, Pitch_bend_c, 11, 4226
15, 54986, Pitch_bend_c, 11, 4185
15, 54987, Pitch_bend_c, 11, 4144
15, 54988, Pitch_bend_c, 11, 4103
15, 54989, Pitch_bend_c, 11, 4069
15, 54990, Pitch_bend_c, 11, 4028
15, 54991, Pitch_bend_c, 11, 3987
15, 54992, Pitch_bend_c, 11, 3953
15, 54993, Pitch_bend_c, 11, 3912
15, 54994, Pitch_bend_c, 11, 3878
15, 54995, Pitch_bend_c, 11, 3837
15, 54996, Pitch_bend_c, 11, 3803
15, 54997, Pitch_bend_c, 11, 3769
15, 54998, Pitch_bend_c, 11, 3728
15, 54999, Pitch_bend_c, 11, 3694
15, 55000, Pitch_bend_c, 11, 3660
15, 55001, Pitch_bend_c, 11, 3619
15, 55002, Pitch_bend_c, 11, 3584
15, 55003, Pitch_bend_c, 11, 3550
15, 55004, Pitch_bend_c, 11, 3516
15, 55005, Pitch_bend_c, 11, 3482
15, 55006, Pitch_bend_c, 11, 3448
15, 55007, Pitch_bend_c, 11, 3414
15, 55008, Pitch_bend_c, 11, 3380
15, 55009, Pitch_bend_c, 11, 3346
15, 55010, Pitch_bend_c, 11, 3311
15, 55011, Pitch_bend_c, 11, 3277
15, 55012, Pitch_bend_c, 11, 3243
15, 55013, Pitch_bend_c, 11, 3216
15, 55014, Pitch_bend_c, 11, 3182
15, 55015, Pitch_bend_c, 11, 3148
15, 55016, Pitch_bend_c, 11, 3120
15, 55017, Pitch_bend_c, 11, 3086
15, 55018, Pitch_bend_c, 11, 3059
15, 55019, Pitch_bend_c, 11, 3025
15, 55020, Pitch_bend_c, 11, 2991
15, 55021, Pitch_bend_c, 11, 2963
15, 55022, Pitch_bend_c, 11, 2929
15, 55023, Pitch_bend_c, 11, 2902
15, 55024, Pitch_bend_c, 11, 2875
15, 55025, Pitch_bend_c, 11, 2840
15, 55026, Pitch_bend_c, 11, 2813
15, 55027, Pitch_bend_c, 11, 2786
15, 55028, Pitch_bend_c, 11, 2752
15, 55029, Pitch_bend_c, 11, 2724
15, 55030, Pitch_bend_c, 11, 2697
15, 55031, Pitch_bend_c, 11, 2670
15, 55032, Pitch_bend_c, 11, 2642
15, 55033, Pitch_bend_c, 11, 2615
15, 55034, Pitch_bend_c, 11, 2588
15, 55035, Pitch_bend_c, 11, 2560
15, 55036, Pitch_bend_c, 11, 2533
15, 55037, Pitch_bend_c, 11, 2506
15, 55038, Pitch_bend_c, 11, 2479
15, 55039, Pitch_bend_c, 11, 2451
15, 55040, Pitch_bend_c, 11, 2424
15, 55041, Pitch_bend_c, 11, 2397
15, 55042, Pitch_bend_c, 11, 2369
15, 55043, Pitch_bend_c, 11, 2342
15, 55044, Pitch_bend_c, 11, 2322
15, 55045, Pitch_bend_c, 11, 2294
15, 55046, Pitch_bend_c, 11, 2267
15, 55047, Pitch_bend_c, 11, 2240
15, 55048, Pitch_bend_c, 11, 2219
15, 55049, Pitch_bend_c, 11, 2192
15, 55050, Pitch_bend_c, 11, 2171
15, 55051, Pitch_bend_c, 11, 2144
15, 55052, Pitch_bend_c, 11, 2124
15, 55053, Pitch_bend_c, 11, 2096
15, 55054, Pitch_bend_c, 11, 2076
15, 55055, Pitch_bend_c, 11, 2048
15, 55056, Note_off_c, 11, 83, 64
15, 55056, Note_on_c, 11, 74, 127
15, 55056, Pitch_bend_c, 11, 8124
15, 55057, Pitch_bend_c, 11, 8056
15, 55058, Pitch_bend_c, 11, 7988
15, 55059, Pitch_bend_c, 11, 7919
15, 55060, Pitch_bend_c, 11, 7851
15, 55061, Pitch_bend_c, 11, 7783
15, 55062, Pitch_bend_c, 11, 7715
15, 55063, Pitch_bend_c, 11, 7646
15, 55064, Pitch_bend_c, 11, 7585
15, 55065, Pitch_bend_c, 11, 7517
15, 55066, Pitch_bend_c, 11, 7455
15, 55067, Pitch_bend_c, 11, 7387
15, 55068, Pitch_bend_c, 11, 7326
15, 55069, Pitch_bend_c, 11, 7264
15, 55070, Pitch_bend_c, 11, 7203
15, 55071, Pitch_bend_c, 11, 7134
15, 55072, Pitch_bend_c, 11, 7073
15, 55073, Pitch_bend_c, 11, 7011
15, 55074, Pitch_bend_c, 11, 6957
15, 55075, Pitch_bend_c, 11, 6895
15, 55076, Pitch_bend_c, 11, 6834
15, 55077, Pitch_bend_c, 11, 6773
15, 55078, Pitch_bend_c, 11, 6711
15, 55079, Pitch_bend_c, 11, 6656
15, 55080, Pitch_bend_c, 11, 6595
15, 55081, Pitch_bend_c, 11, 6540
15, 55082, Pitch_bend_c, 11, 6486
15, 55083, Pitch_bend_c, 11, 6424
15, 55084, Pitch_bend_c, 11, 6370
15, 55085, Pitch_bend_c, 11, 6315
15, 55086, Pitch_bend_c, 11, 6261
15, 55087, Pitch_bend_c, 11, 6199
15, 55088, Pitch_bend_c, 11, 6144
15, 55089, Pitch_bend_c, 11, 6097
15, 55090, Pitch_bend_c, 11, 6042
15, 55091, Pitch_bend_c, 11, 5987
15, 55092, Pitch_bend_c, 11, 5933
15, 55093, Pitch_bend_c, 11, 5878
15, 55094, Pitch_bend_c, 11, 5830
15, 55095, Pitch_bend_c, 11, 5776
15, 55096, Pitch_bend_c, 11, 5721
15, 55097, Pitch_bend_c, 11, 5673
15, 55098, Pitch_bend_c, 11, 5626
15, 55099, Pitch_bend_c, 11, 5571
15, 55100, Pitch_bend_c, 11, 5523
15, 55101, Pitch_bend_c, 11, 5475
15, 55102, Pitch_bend_c, 11, 5421
15, 55103, Pitch_bend_c, 11, 5373
15, 55104, Pitch_bend_c, 11, 5325
15, 55105, Pitch_bend_c, 11, 5278
15, 55106, Pitch_bend_c, 11, 5230
15, 55107, Pitch_bend_c, 11, 5182
15, 55108, Pitch_bend_c, 11, 5134
15, 55109, Pitch_bend_c, 11, 5086
15, 55110, Pitch_bend_c, 11, 5045
15, 55111, Pitch_bend_c, 11, 4998
15, 55112, Pitch_bend_c, 11, 4950
15, 55113, Pitch_bend_c, 11, 4902
15, 55114, Pitch_bend_c, 11, 4861
15, 55115, Pitch_bend_c, 11, 4813
15, 55116, Pitch_bend_c, 11, 4772
15, 55117, Pitch_bend_c, 11, 4725
15, 55118, Pitch_bend_c, 11, 4684
15, 55119, Pitch_bend_c, 11, 4643
15, 55120, Pitch_bend_c, 11, 4595
15, 55121, Pitch_bend_c, 11, 4554
15, 55122, Pitch_bend_c, 11, 4513
15, 55123, Pitch_bend_c, 11, 4472
15, 55124, Pitch_bend_c, 11, 4431
15, 55125, Pitch_bend_c, 11, 4383
15, 55126, Pitch_bend_c, 11, 4342
15, 55127, Pitch_bend_c, 11, 4301
15, 55128, Pitch_bend_c, 11, 4267
15, 55129, Pitch_bend_c, 11, 4226
15, 55130, Pitch_bend_c, 11, 4185
15, 55131, Pitch_bend_c, 11, 4144
15, 55132, Pitch_bend_c, 11, 4103
15, 55133, Pitch_bend_c, 11, 4069
15, 55134, Pitch_bend_c, 11, 4028
15, 55135, Pitch_bend_c, 11, 3987
15, 55136, Pitch_bend_c, 11, 3953
15, 55137, Pitch_bend_c, 11, 3912
15, 55138, Pitch_bend_c, 11, 3878
15, 55139, Pitch_bend_c, 11, 3837
15, 55140, Pitch_bend_c, 11, 3803
15, 55141, Pitch_bend_c, 11, 3769
15, 55142, Pitch_bend_c, 11, 3728
15, 55143, Pitch_bend_c, 11, 3694
15, 55144, Pitch_bend_c, 11, 3660
15, 55145, Pitch_bend_c, 11, 3619
15, 55146, Pitch_bend_c, 11, 3584
15, 55147, Pitch_bend_c, 11, 3550
15, 55148, Pitch_bend_c, 11, 3516
15, 55149, Pitch_bend_c, 11, 3482
15, 55150, Pitch_bend_c, 11, 3448
15, 55151, Pitch_bend_c, 11, 3414
15, 55152, Pitch_bend_c, 11, 3380
15, 55153, Pitch_bend_c, 11, 3346
15, 55154, Pitch_bend_c, 11, 3311
15, 55155, Pitch_bend_c, 11, 3277
15, 55156, Pitch_bend_c, 11, 3243
15, 55157, Pitch_bend_c, 11, 3216
15, 55158, Pitch_bend_c, 11, 3182
15, 55159, Pitch_bend_c, 11, 3148
15, 55160, Pitch_bend_c, 11, 3120
15, 55161, Pitch_bend_c, 11, 3086
15, 55162, Pitch_bend_c, 11, 3059
15, 55163, Pitch_bend_c, 11, 3025
15, 55164, Pitch_bend_c, 11, 2991
15, 55165, Pitch_bend_c, 11, 2963
15, 55166, Pitch_bend_c, 11, 2929
15, 55167, Pitch_bend_c, 11, 2902
15, 55168, Pitch_bend_c, 11, 2875
15, 55169, Pitch_bend_c, 11, 2840
15, 55170, Pitch_bend_c, 11, 2813
15, 55171, Pitch_bend_c, 11, 2786
15, 55172, Pitch_bend_c, 11, 2752
15, 55173, Pitch_bend_c, 11, 2724
15, 55174, Pitch_bend_c, 11, 2697
15, 55175, Pitch_bend_c, 11, 2670
15, 55176, Pitch_bend_c, 11, 2642
15, 55177, Pitch_bend_c, 11, 2615
15, 55178, Pitch_bend_c, 11, 2588
15, 55179, Pitch_bend_c, 11, 2560
15, 55180, Pitch_bend_c, 11, 2533
15, 55181, Pitch_bend_c, 11, 2506
15, 55182, Pitch_bend_c, 11, 2479
15, 55183, Pitch_bend_c, 11, 2451
15, 55184, Pitch_bend_c, 11, 2424
15, 55185, Pitch_bend_c, 11, 2397
15, 55186, Pitch_bend_c, 11, 2369
15, 55187, Pitch_bend_c, 11, 2342
15, 55188, Pitch_bend_c, 11, 2322
15, 55189, Pitch_bend_c, 11, 2294
15, 55190, Pitch_bend_c, 11, 2267
15, 55191, Pitch_bend_c, 11, 2240
15, 55192, Pitch_bend_c, 11, 2219
15, 55193, Pitch_bend_c, 11, 2192
15, 55194, Pitch_bend_c, 11, 2171
15, 55195, Pitch_bend_c, 11, 2144
15, 55196, Pitch_bend_c, 11, 2124
15, 55197, Pitch_bend_c, 11, 2096
15, 55198, Pitch_bend_c, 11, 2076
15, 55199, Pitch_bend_c, 11, 2048
15, 55200, Note_off_c, 11, 74, 64
15, 55200, Note_on_c, 11, 65, 127
15, 55200, Pitch_bend_c, 11, 8124
15, 55201, Pitch_bend_c, 11, 8056
15, 55202, Pitch_bend_c, 11, 7988
15, 55203, Pitch_bend_c, 11, 7919
15, 55204, Pitch_bend_c, 11, 7851
15, 55205, Pitch_bend_c, 11, 7783
15, 55206, Pitch_bend_c, 11, 7715
15, 55207, Pitch_bend_c, 11, 7646
15, 55208, Pitch_bend_c, 11, 7585
15, 55209, Pitch_bend_c, 11, 7517
15, 55210, Pitch_bend_c, 11, 7455
15, 55211, Pitch_bend_c, 11, 7387
15, 55212, Pitch_bend_c, 11, 7326
15, 55213, Pitch_bend_c, 11, 7264
15, 55214, Pitch_bend_c, 11, 7203
15, 55215, Pitch_bend_c, 11, 7134
15, 55216, Pitch_bend_c, 11, 7073
15, 55217, Pitch_bend_c, 11, 7011
15, 55218, Pitch_bend_c, 11, 6957
15, 55219, Pitch_bend_c, 11, 6895
15, 55220, Pitch_bend_c, 11, 6834
15, 55221, Pitch_bend_c, 11, 6773
15, 55222, Pitch_bend_c, 11, 6711
15, 55223, Pitch_bend_c, 11, 6656
15, 55224, Pitch_bend_c, 11, 6595
15, 55225, Pitch_bend_c, 11, 6540
15, 55226, Pitch_bend_c, 11, 6486
15, 55227, Pitch_bend_c, 11, 6424
15, 55228, Pitch_bend_c, 11, 6370
15, 55229, Pitch_bend_c, 11, 6315
15, 55230, Pitch_bend_c, 11, 6261
15, 55231, Pitch_bend_c, 11, 6199
15, 55232, Pitch_bend_c, 11, 6144
15, 55233, Pitch_bend_c, 11, 6097
15, 55234, Pitch_bend_c, 11, 6042
15, 55235, Pitch_bend_c, 11, 5987
15, 55236, Pitch_bend_c, 11, 5933
15, 55237, Pitch_bend_c, 11, 5878
15, 55238, Pitch_bend_c, 11, 5830
15, 55239, Pitch_bend_c, 11, 5776
15, 55240, Pitch_bend_c, 11, 5721
15, 55241, Pitch_bend_c, 11, 5673
15, 55242, Pitch_bend_c, 11, 5626
15, 55243, Pitch_bend_c, 11, 5571
15, 55244, Pitch_bend_c, 11, 5523
15, 55245, Pitch_bend_c, 11, 5475
15, 55246, Pitch_bend_c, 11, 5421
15, 55247, Pitch_bend_c, 11, 5373
15, 55248, Pitch_bend_c, 11, 5325
15, 55249, Pitch_bend_c, 11, 5278
15, 55250, Pitch_bend_c, 11, 5230
15, 55251, Pitch_bend_c, 11, 5182
15, 55252, Pitch_bend_c, 11, 5134
15, 55253, Pitch_bend_c, 11, 5086
15, 55254, Pitch_bend_c, 11, 5045
15, 55255, Pitch_bend_c, 11, 4998
15, 55256, Pitch_bend_c, 11, 4950
15, 55257, Pitch_bend_c, 11, 4902
15, 55258, Pitch_bend_c, 11, 4861
15, 55259, Pitch_bend_c, 11, 4813
15, 55260, Pitch_bend_c, 11, 4772
15, 55261, Pitch_bend_c, 11, 4725
15, 55262, Pitch_bend_c, 11, 4684
15, 55263, Pitch_bend_c, 11, 4643
15, 55264, Pitch_bend_c, 11, 4595
15, 55265, Pitch_bend_c, 11, 4554
15, 55266, Pitch_bend_c, 11, 4513
15, 55267, Pitch_bend_c, 11, 4472
15, 55268, Pitch_bend_c, 11, 4431
15, 55269, Pitch_bend_c, 11, 4383
15, 55270, Pitch_bend_c, 11, 4342
15, 55271, Pitch_bend_c, 11, 4301
15, 55272, Pitch_bend_c, 11, 4267
15, 55273, Pitch_bend_c, 11, 4226
15, 55274, Pitch_bend_c, 11, 4185
15, 55275, Pitch_bend_c, 11, 4144
15, 55276, Pitch_bend_c, 11, 4103
15, 55277, Pitch_bend_c, 11, 4069
15, 55278, Pitch_bend_c, 11, 4028
15, 55279, Pitch_bend_c, 11, 3987
15, 55280, Pitch_bend_c, 11, 3953
15, 55281, Pitch_bend_c, 11, 3912
15, 55282, Pitch_bend_c, 11, 3878
15, 55283, Pitch_bend_c, 11, 3837
15, 55284, Pitch_bend_c, 11, 3803
15, 55285, Pitch_bend_c, 11, 3769
15, 55286, Pitch_bend_c, 11, 3728
15, 55287, Pitch_bend_c, 11, 3694
15, 55288, Pitch_bend_c, 11, 3660
15, 55289, Pitch_bend_c, 11, 3619
15, 55290, Pitch_bend_c, 11, 3584
15, 55291, Pitch_bend_c, 11, 3550
15, 55292, Pitch_bend_c, 11, 3516
15, 55293, Pitch_bend_c, 11, 3482
15, 55294, Pitch_bend_c, 11, 3448
15, 55295, Pitch_bend_c, 11, 3414
15, 55296, Pitch_bend_c, 11, 3380
15, 55297, Pitch_bend_c, 11, 3346
15, 55298, Pitch_bend_c, 11, 3311
15, 55299, Pitch_bend_c, 11, 3277
15, 55300, Pitch_bend_c, 11, 3243
15, 55301, Pitch_bend_c, 11, 3216
15, 55302, Pitch_bend_c, 11, 3182
15, 55303, Pitch_bend_c, 11, 3148
15, 55304, Pitch_bend_c, 11, 3120
15, 55305, Pitch_bend_c, 11, 3086
15, 55306, Pitch_bend_c, 11, 3059
15, 55307, Pitch_bend_c, 11, 3025
15, 55308, Pitch_bend_c, 11, 2991
15, 55309, Pitch_bend_c, 11, 2963
15, 55310, Pitch_bend_c, 11, 2929
15, 55311, Pitch_bend_c, 11, 2902
15, 55312, Pitch_bend_c, 11, 2875
15, 55313, Pitch_bend_c, 11, 2840
15, 55314, Pitch_bend_c, 11, 2813
15, 55315, Pitch_bend_c, 11, 2786
15, 55316, Pitch_bend_c, 11, 2752
15, 55317, Pitch_bend_c, 11, 2724
15, 55318, Pitch_bend_c, 11, 2697
15, 55319, Pitch_bend_c, 11, 2670
15, 55320, Pitch_bend_c, 11, 2642
15, 55321, Pitch_bend_c, 11, 2615
15, 55322, Pitch_bend_c, 11, 2588
15, 55323, Pitch_bend_c, 11, 2560
15, 55324, Pitch_bend_c, 11, 2533
15, 55325, Pitch_bend_c, 11, 2506
15, 55326, Pitch_bend_c, 11, 2479
15, 55327, Pitch_bend_c, 11, 2451
15, 55328, Pitch_bend_c, 11, 2424
15, 55329, Pitch_bend_c, 11, 2397
15, 55330, Pitch_bend_c, 11, 2369
15, 55331, Pitch_bend_c, 11, 2342
15, 55332, Pitch_bend_c, 11, 2322
15, 55333, Pitch_bend_c, 11, 2294
15, 55334, Pitch_bend_c, 11, 2267
15, 55335, Pitch_bend_c, 11, 2240
15, 55336, Pitch_bend_c, 11, 2219
15, 55337, Pitch_bend_c, 11, 2192
15, 55338, Pitch_bend_c, 11, 2171
15, 55339, Pitch_bend_c, 11, 2144
15, 55340, Pitch_bend_c, 11, 2124
15, 55341, Pitch_bend_c, 11, 2096
15, 55342, Pitch_bend_c, 11, 2076
15, 55343, Pitch_bend_c, 11, 2048
15, 55344, Note_off_c, 11, 65, 64
15, 55344, Note_on_c, 11, 56, 127
15, 55344, Pitch_bend_c, 11, 8124
15, 55345, Pitch_bend_c, 11, 8056
15, 55346, Pitch_bend_c, 11, 7988
15, 55347, Pitch_bend_c, 11, 7919
15, 55348, Pitch_bend_c, 11, 7851
15, 55349, Pitch_bend_c, 11, 7783
15, 55350, Pitch_bend_c, 11, 7715
15, 55351, Pitch_bend_c, 11, 7646
15, 55352, Pitch_bend_c, 11, 7585
15, 55353, Pitch_bend_c, 11, 7517
15, 55354, Pitch_bend_c, 11, 7455
15, 55355, Pitch_bend_c, 11, 7387
15, 55356, Pitch_bend_c, 11, 7326
15, 55357, Pitch_bend_c, 11, 7264
15, 55358, Pitch_bend_c, 11, 7203
15, 55359, Pitch_bend_c, 11, 7134
15, 55360, Pitch_bend_c, 11, 7073
15, 55361, Pitch_bend_c, 11, 7011
15, 55362, Pitch_bend_c, 11, 6957
15, 55363, Pitch_bend_c, 11, 6895
15, 55364, Pitch_bend_c, 11, 6834
15, 55365, Pitch_bend_c, 11, 6773
15, 55366, Pitch_bend_c, 11, 6711
15, 55367, Pitch_bend_c, 11, 6656
15, 55368, Pitch_bend_c, 11, 6595
15, 55369, Pitch_bend_c, 11, 6540
15, 55370, Pitch_bend_c, 11, 6486
15, 55371, Pitch_bend_c, 11, 6424
15, 55372, Pitch_bend_c, 11, 6370
15, 55373, Pitch_bend_c, 11, 6315
15, 55374, Pitch_bend_c, 11, 6261
15, 55375, Pitch_bend_c, 11, 6199
15, 55376, Pitch_bend_c, 11, 6144
15, 55377, Pitch_bend_c, 11, 6097
15, 55378, Pitch_bend_c, 11, 6042
15, 55379, Pitch_bend_c, 11, 5987
15, 55380, Pitch_bend_c, 11, 5933
15, 55381, Pitch_bend_c, 11, 5878
15, 55382, Pitch_bend_c, 11, 5830
15, 55383, Pitch_bend_c, 11, 5776
15, 55384, Pitch_bend_c, 11, 5721
15, 55385, Pitch_bend_c, 11, 5673
15, 55386, Pitch_bend_c, 11, 5626
15, 55387, Pitch_bend_c, 11, 5571
15, 55388, Pitch_bend_c, 11, 5523
15, 55389, Pitch_bend_c, 11, 5475
15, 55390, Pitch_bend_c, 11, 5421
15, 55391, Pitch_bend_c, 11, 5373
15, 55392, Pitch_bend_c, 11, 5325
15, 55393, Pitch_bend_c, 11, 5278
15, 55394, Pitch_bend_c, 11, 5230
15, 55395, Pitch_bend_c, 11, 5182
15, 55396, Pitch_bend_c, 11, 5134
15, 55397, Pitch_bend_c, 11, 5086
15, 55398, Pitch_bend_c, 11, 5045
15, 55399, Pitch_bend_c, 11, 4998
15, 55400, Pitch_bend_c, 11, 4950
15, 55401, Pitch_bend_c, 11, 4902
15, 55402, Pitch_bend_c, 11, 4861
15, 55403, Pitch_bend_c, 11, 4813
15, 55404, Pitch_bend_c, 11, 4772
15, 55405, Pitch_bend_c, 11, 4725
15, 55406, Pitch_bend_c, 11, 4684
15, 55407, Pitch_bend_c, 11, 4643
15, 55408, Pitch_bend_c, 11, 4595
15, 55409, Pitch_bend_c, 11, 4554
15, 55410, Pitch_bend_c, 11, 4513
15, 55411, Pitch_bend_c, 11, 4472
15, 55412, Pitch_bend_c, 11, 4431
15, 55413, Pitch_bend_c, 11, 4383
15, 55414, Pitch_bend_c, 11, 4342
15, 55415, Pitch_bend_c, 11, 4301
15, 55416, Pitch_bend_c, 11, 4267
15, 55417, Pitch_bend_c, 11, 4226
15, 55418, Pitch_bend_c, 11, 4185
15, 55419, Pitch_bend_c, 11, 4144
15, 55420, Pitch_bend_c, 11, 4103
15, 55421, Pitch_bend_c, 11, 4069
15, 55422, Pitch_bend_c, 11, 4028
15, 55423, Pitch_bend_c, 11, 3987
15, 55424, Pitch_bend_c, 11, 3953
15, 55425, Pitch_bend_c, 11, 3912
15, 55426, Pitch_bend_c, 11, 3878
15, 55427, Pitch_bend_c, 11, 3837
15, 55428, Pitch_bend_c, 11, 3803
15, 55429, Pitch_bend_c, 11, 3769
15, 55430, Pitch_bend_c, 11, 3728
15, 55431, Pitch_bend_c, 11, 3694
15, 55432, Pitch_bend_c, 11, 3660
15, 55433, Pitch_bend_c, 11, 3619
15, 55434, Pitch_bend_c, 11, 3584
15, 55435, Pitch_bend_c, 11, 3550
15, 55436, Pitch_bend_c, 11, 3516
15, 55437, Pitch_bend_c, 11, 3482
15, 55438, Pitch_bend_c, 11, 3448
15, 55439, Pitch_bend_c, 11, 3414
15, 55440, Pitch_bend_c, 11, 3380
15, 55441, Pitch_bend_c, 11, 3346
15, 55442, Pitch_bend_c, 11, 3311
15, 55443, Pitch_bend_c, 11, 3277
15, 55444, Pitch_bend_c, 11, 3243
15, 55445, Pitch_bend_c, 11, 3216
15, 55446, Pitch_bend_c, 11, 3182
15, 55447, Pitch_bend_c, 11, 3148
15, 55448, Pitch_bend_c, 11, 3120
15, 55449, Pitch_bend_c, 11, 3086
15, 55450, Pitch_bend_c, 11, 3059
15, 55451, Pitch_bend_c, 11, 3025
15, 55452, Pitch_bend_c, 11, 2991
15, 55453, Pitch_bend_c, 11, 2963
15, 55454, Pitch_bend_c, 11, 2929
15, 55455, Pitch_bend_c, 11, 2902
15, 55456, Pitch_bend_c, 11, 2875
15, 55457, Pitch_bend_c, 11, 2840
15, 55458, Pitch_bend_c, 11, 2813
15, 55459, Pitch_bend_c, 11, 2786
15, 55460, Pitch_bend_c, 11, 2752
15, 55461, Pitch_bend_c, 11, 2724
15, 55462, Pitch_bend_c, 11, 2697
15, 55463, Pitch_bend_c, 11, 2670
15, 55464, Pitch_bend_c, 11, 2642
15, 55465, Pitch_bend_c, 11, 2615
15, 55466, Pitch_bend_c, 11, 2588
15, 55467, Pitch_bend_c, 11, 2560
15, 55468, Pitch_bend_c, 11, 2533
15, 55469, Pitch_bend_c, 11, 2506
15, 55470, Pitch_bend_c, 11, 2479
15, 55471, Pitch_bend_c, 11, 2451
15, 55472, Pitch_bend_c, 11, 2424
15, 55473, Pitch_bend_c, 11, 2397
15, 55474, Pitch_bend_c, 11, 2369
15, 55475, Pitch_bend_c, 11, 2342
15, 55476, Pitch_bend_c, 11, 2322
15, 55477, Pitch_bend_c, 11, 2294
15, 55478, Pitch_bend_c, 11, 2267
15, 55479, Pitch_bend_c, 11, 2240
15, 55480, Pitch_bend_c, 11, 2219
15, 55481, Pitch_bend_c, 11, 2192
15, 55482, Pitch_bend_c, 11, 2171
15, 55483, Pitch_bend_c, 11, 2144
15, 55484, Pitch_bend_c, 11, 2124
15, 55485, Pitch_bend_c, 11, 2096
15, 55486, Pitch_bend_c, 11, 2076
15, 55487, Pitch_bend_c, 11, 2048
15, 55488, Note_off_c, 11, 56, 64
15, 55488, Note_on_c, 11, 46, 127
15, 55488, Pitch_bend_c, 11, 8124
15, 55489, Pitch_bend_c, 11, 8056
15, 55490, Pitch_bend_c, 11, 7988
15, 55491, Pitch_bend_c, 11, 7919
15, 55492, Pitch_bend_c, 11, 7851
15, 55493, Pitch_bend_c, 11, 7783
15, 55494, Pitch_bend_c, 11, 7715
15, 55495, Pitch_bend_c, 11, 7646
15, 55496, Pitch_bend_c, 11, 7585
15, 55497, Pitch_bend_c, 11, 7517
15, 55498, Pitch_bend_c, 11, 7455
15, 55499, Pitch_bend_c, 11, 7387
15, 55500, Pitch_bend_c, 11, 7326
15, 55501, Pitch_bend_c, 11, 7264
15, 55502, Pitch_bend_c, 11, 7203
15, 55503, Pitch_bend_c, 11, 7134
15, 55504, Pitch_bend_c, 11, 7073
15, 55505, Pitch_bend_c, 11, 7011
15, 55506, Pitch_bend_c, 11, 6957
15, 55507, Pitch_bend_c, 11, 6895
15, 55508, Pitch_bend_c, 11, 6834
15, 55509, Pitch_bend_c, 11, 6773
15, 55510, Pitch_bend_c, 11, 6711
15, 55511, Pitch_bend_c, 11, 6656
15, 55512, Pitch_bend_c, 11, 6595
15, 55513, Pitch_bend_c, 11, 6540
15, 55514, Pitch_bend_c, 11, 6486
15, 55515, Pitch_bend_c, 11, 6424
15, 55516, Pitch_bend_c, 11, 6370
15, 55517, Pitch_bend_c, 11, 6315
15, 55518, Pitch_bend_c, 11, 6261
15, 55519, Pitch_bend_c, 11, 6199
15, 55520, Pitch_bend_c, 11, 6144
15, 55521, Pitch_bend_c, 11, 6097
15, 55522, Pitch_bend_c, 11, 6042
15, 55523, Pitch_bend_c, 11, 5987
15, 55524, Pitch_bend_c, 11, 5933
15, 55525, Pitch_bend_c, 11, 5878
15, 55526, Pitch_bend_c, 11, 5830
15, 55527, Pitch_bend_c, 11, 5776
15, 55528, Pitch_bend_c, 11, 5721
15, 55529, Pitch_bend_c, 11, 5673
15, 55530, Pitch_bend_c, 11, 5626
15, 55531, Pitch_bend_c, 11, 5571
15, 55532, Pitch_bend_c, 11, 5523
15, 55533, Pitch_bend_c, 11, 5475
15, 55534, Pitch_bend_c, 11, 5421
15, 55535, Pitch_bend_c, 11, 5373
15, 55536, Pitch_bend_c, 11, 5325
15, 55537, Pitch_bend_c, 11, 5278
15, 55538, Pitch_bend_c, 11, 5230
15, 55539, Pitch_bend_c, 11, 5182
15, 55540, Pitch_bend_c, 11, 5134
15, 55541, Pitch_bend_c, 11, 5086
15, 55542, Pitch_bend_c, 11, 5045
15, 55543, Pitch_bend_c, 11, 4998
15, 55544, Pitch_bend_c, 11, 4950
15, 55545, Pitch_bend_c, 11, 4902
15, 55546, Pitch_bend_c, 11, 4861
15, 55547, Pitch_bend_c, 11, 4813
15, 55548, Pitch_bend_c, 11, 4772
15, 55549, Pitch_bend_c, 11, 4725
15, 55550, Pitch_bend_c, 11, 4684
15, 55551, Pitch_bend_c, 11, 4643
15, 55552, Pitch_bend_c, 11, 4595
15, 55553, Pitch_bend_c, 11, 4554
15, 55554, Pitch_bend_c, 11, 4513
15, 55555, Pitch_bend_c, 11, 4472
15, 55556, Pitch_bend_c, 11, 4431
15, 55557, Pitch_bend_c, 11, 4383
15, 55558, Pitch_bend_c, 11, 4342
15, 55559, Pitch_bend_c, 11, 4301
15, 55560, Pitch_bend_c, 11, 4267
15, 55561, Pitch_bend_c, 11, 4226
15, 55562, Pitch_bend_c, 11, 4185
15, 55563, Pitch_bend_c, 11, 4144
15, 55564, Pitch_bend_c, 11, 4103
15, 55565, Pitch_bend_c, 11, 4069
15, 55566, Pitch_bend_c, 11, 4028
15, 55567, Pitch_bend_c, 11, 3987
15, 55568, Pitch_bend_c, 11, 3953
15, 55569, Pitch_bend_c, 11, 3912
15, 55570, Pitch_bend_c, 11, 3878
15, 55571, Pitch_bend_c, 11, 3837
15, 55572, Pitch_bend_c, 11, 3803
15, 55573, Pitch_bend_c, 11, 3769
15, 55574, Pitch_bend_c, 11, 3728
15, 55575, Pitch_bend_c, 11, 3694
15, 55576, Pitch_bend_c, 11, 3660
15, 55577, Pitch_bend_c, 11, 3619
15, 55578, Pitch_bend_c, 11, 3584
15, 55579, Pitch_bend_c, 11, 3550
15, 55580, Pitch_bend_c, 11, 3516
15, 55581, Pitch_bend_c, 11, 3482
15, 55582, Pitch_bend_c, 11, 3448
15, 55583, Pitch_bend_c, 11, 3414
15, 55584, Pitch_bend_c, 11, 3380
15, 55585, Pitch_bend_c, 11, 3346
15, 55586, Pitch_bend_c, 11, 3311
15, 55587, Pitch_bend_c, 11, 3277
15, 55588, Pitch_bend_c, 11, 3243
15, 55589, Pitch_bend_c, 11, 3216
15, 55590, Pitch_bend_c, 11, 3182
15, 55591, Pitch_bend_c, 11, 3148
15, 55592, Pitch_bend_c, 11, 3120
15, 55593, Pitch_bend_c, 11, 3086
15, 55594, Pitch_bend_c, 11, 3059
15, 55595, Pitch_bend_c, 11, 3025
15, 55596, Pitch_bend_c, 11, 2991
15, 55597, Pitch_bend_c, 11, 2963
15, 55598, Pitch_bend_c, 11, 2929
15, 55599, Pitch_bend_c, 11, 2902
15, 55600, Pitch_bend_c, 11, 2875
15, 55601, Pitch_bend_c, 11, 2840
15, 55602, Pitch_bend_c, 11, 2813
15, 55603, Pitch_bend_c, 11, 2786
15, 55604, Pitch_bend_c, 11, 2752
15, 55605, Pitch_bend_c, 11, 2724
15, 55606, Pitch_bend_c, 11, 2697
15, 55607, Pitch_bend_c, 11, 2670
15, 55608, Pitch_bend_c, 11, 2642
15, 55609, Pitch_bend_c, 11, 2615
15, 55610, Pitch_bend_c, 11, 2588
15, 55611, Pitch_bend_c, 11, 2560
15, 55612, Pitch_bend_c, 11, 2533
15, 55613, Pitch_bend_c, 11, 2506
15, 55614, Pitch_bend_c, 11, 2479
15, 55615, Pitch_bend_c, 11, 2451
15, 55616, Pitch_bend_c, 11, 2424
15, 55617, Pitch_bend_c, 11, 2397
15, 55618, Pitch_bend_c, 11, 2369
15, 55619, Pitch_bend_c, 11, 2342
15, 55620, Pitch_bend_c, 11, 2322
15, 55621, Pitch_bend_c, 11, 2294
15, 55622, Pitch_bend_c, 11, 2267
15, 55623, Pitch_bend_c, 11, 2240
15, 55624, Pitch_bend_c, 11, 2219
15, 55625, Pitch_bend_c, 11, 2192
15, 55626, Pitch_bend_c, 11, 2171
15, 55627, Pitch_bend_c, 11, 2144
15, 55628, Pitch_bend_c, 11, 2124
15, 55629, Pitch_bend_c, 11, 2096
15, 55630, Pitch_bend_c, 11, 2076
15, 55631, Pitch_bend_c, 11, 2048
15, 55632, Note_off_c, 11, 46, 64
15, 55632, Note_on_c, 11, 39, 127
15, 55632, Pitch_bend_c, 11, 8124
15, 55633, Pitch_bend_c, 11, 8056
15, 55634, Pitch_bend_c, 11, 7988
15, 55635, Pitch_bend_c, 11, 7919
15, 55636, Pitch_bend_c, 11, 7851
15, 55637, Pitch_bend_c, 11, 7783
15, 55638, Pitch_bend_c, 11, 7715
15, 55639, Pitch_bend_c, 11, 7646
15, 55640, Pitch_bend_c, 11, 7585
15, 55641, Pitch_bend_c, 11, 7517
15, 55642, Pitch_bend_c, 11, 7455
15, 55643, Pitch_bend_c, 11, 7387
15, 55644, Pitch_bend_c, 11, 7326
15, 55645, Pitch_bend_c, 11, 7264
15, 55646, Pitch_bend_c, 11, 7203
15, 55647, Pitch_bend_c, 11, 7134
15, 55648, Pitch_bend_c, 11, 7073
15, 55649, Pitch_bend_c, 11, 7011
15, 55650, Pitch_bend_c, 11, 6957
15, 55651, Pitch_bend_c, 11, 6895
15, 55652, Pitch_bend_c, 11, 6834
15, 55653, Pitch_bend_c, 11, 6773
15, 55654, Pitch_bend_c, 11, 6711
15, 55655, Pitch_bend_c, 11, 6656
15, 55656, Pitch_bend_c, 11, 6595
15, 55657, Pitch_bend_c, 11, 6540
15, 55658, Pitch_bend_c, 11, 6486
15, 55659, Pitch_bend_c, 11, 6424
15, 55660, Pitch_bend_c, 11, 6370
15, 55661, Pitch_bend_c, 11, 6315
15, 55662, Pitch_bend_c, 11, 6261
15, 55663, Pitch_bend_c, 11, 6199
15, 55664, Pitch_bend_c, 11, 6144
15, 55665, Pitch_bend_c, 11, 6097
15, 55666, Pitch_bend_c, 11, 6042
15, 55667, Pitch_bend_c, 11, 5987
15, 55668, Pitch_bend_c, 11, 5933
15, 55669, Pitch_bend_c, 11, 5878
15, 55670, Pitch_bend_c, 11, 5830
15, 55671, Pitch_bend_c, 11, 5776
15, 55672, Pitch_bend_c, 11, 5721
15, 55673, Pitch_bend_c, 11, 5673
15, 55674, Pitch_bend_c, 11, 5626
15, 55675, Pitch_bend_c, 11, 5571
15, 55676, Pitch_bend_c, 11, 5523
15, 55677, Pitch_bend_c, 11, 5475
15, 55678, Pitch_bend_c, 11, 5421
15, 55679, Pitch_bend_c, 11, 5373
15, 55680, Note_off_c, 11, 39, 64
15, 63396, Control_c, 11, 101, 0
15, 63396, Control_c, 11, 100, 0
15, 63396, Control_c, 11, 6, 12
15, 63396, Control_c, 11, 10, 64
15, 63396, Control_c, 11, 7, 108
15, 63396, Pitch_bend_c, 11, 5373
15, 63396, Program_c, 11, 79
15, 63396, Control_c, 11, 1, 49
15, 63396, Pitch_bend_c, 11, 16383
15, 63396, Control_c, 11, 7, 112
15, 63397, Control_c, 11, 101, 0
15, 63397, Control_c, 11, 100, 0
15, 63397, Control_c, 11, 6, 12
15, 63397, Control_c, 11, 10, 64
15, 63397, Control_c, 11, 7, 108
15, 63397, Pitch_bend_c, 11, 5373
15, 63397, Program_c, 11, 79
15, 63397, Control_c, 11, 1, 49
15, 63397, End_track
16, 0, Start_track
16, 0, Title_t, "weird sfx thing"
16, 0, Control_c, 13, 10, 64
16, 0, Control_c, 13, 7, 112
16, 0, Pitch_bend_c, 13, 8192
16, 0, Control_c, 13, 101, 0
16, 0, Control_c, 13, 100, 0
16, 0, Control_c, 13, 6, 12
16, 0, Control_c, 13, 10, 64
16, 0, Control_c, 13, 7, 112
16, 0, Pitch_bend_c, 13, 8192
16, 0, Program_c, 13, 84
16, 0, Control_c, 13, 1, 49
16, 0, Pitch_bend_c, 13, 8192
16, 0, Control_c, 13, 7, 112
16, 0, Control_c, 13, 101, 0
16, 0, Control_c, 13, 100, 0
16, 0, Control_c, 13, 6, 12
16, 0, Control_c, 13, 10, 64
16, 0, Control_c, 13, 7, 112
16, 0, Pitch_bend_c, 13, 8192
16, 0, Program_c, 13, 84
16, 0, Control_c, 13, 1, 49
16, 0, Control_c, 13, 101, 0
16, 0, Control_c, 13, 100, 0
16, 0, Control_c, 13, 6, 12
16, 0, Control_c, 13, 10, 64
16, 0, Control_c, 13, 7, 112
16, 0, Pitch_bend_c, 13, 8192
16, 0, Program_c, 13, 84
16, 0, Control_c, 13, 1, 49
16, 49200, Note_on_c, 13, 81, 127
16, 49200, Control_c, 13, 7, 25
16, 49200, Control_c, 13, 7, 25
16, 49200, Pitch_bend_c, 13, 7612
16, 49201, Control_c, 13, 7, 31
16, 49201, Control_c, 13, 7, 31
16, 49201, Pitch_bend_c, 13, 7708
16, 49202, Control_c, 13, 7, 35
16, 49202, Control_c, 13, 7, 35
16, 49202, Pitch_bend_c, 13, 7790
16, 49203, Control_c, 13, 7, 39
16, 49203, Control_c, 13, 7, 39
16, 49203, Pitch_bend_c, 13, 7865
16, 49204, Control_c, 13, 7, 42
16, 49204, Control_c, 13, 7, 42
16, 49204, Pitch_bend_c, 13, 7926
16, 49205, Control_c, 13, 7, 44
16, 49205, Control_c, 13, 7, 44
16, 49205, Pitch_bend_c, 13, 7988
16, 49206, Control_c, 13, 7, 46
16, 49206, Control_c, 13, 7, 46
16, 49206, Pitch_bend_c, 13, 8035
16, 49207, Control_c, 13, 7, 47
16, 49207, Control_c, 13, 7, 47
16, 49207, Pitch_bend_c, 13, 8083
16, 49208, Control_c, 13, 7, 49
16, 49208, Control_c, 13, 7, 49
16, 49208, Pitch_bend_c, 13, 8124
16, 49209, Control_c, 13, 7, 49
16, 49209, Control_c, 13, 7, 49
16, 49209, Pitch_bend_c, 13, 8158
16, 49210, Control_c, 13, 7, 50
16, 49210, Control_c, 13, 7, 50
16, 49210, Pitch_bend_c, 13, 8192
16, 49211, Control_c, 13, 7, 51
16, 49211, Control_c, 13, 7, 51
16, 49211, Pitch_bend_c, 13, 8226
16, 49212, Control_c, 13, 7, 51
16, 49212, Control_c, 13, 7, 51
16, 49212, Pitch_bend_c, 13, 8246
16, 49213, Control_c, 13, 7, 52
16, 49213, Control_c, 13, 7, 52
16, 49213, Pitch_bend_c, 13, 8273
16, 49214, Control_c, 13, 7, 52
16, 49214, Control_c, 13, 7, 52
16, 49214, Pitch_bend_c, 13, 8294
16, 49215, Control_c, 13, 7, 52
16, 49215, Control_c, 13, 7, 52
16, 49215, Pitch_bend_c, 13, 8308
16, 49216, Control_c, 13, 7, 52
16, 49216, Control_c, 13, 7, 52
16, 49216, Pitch_bend_c, 13, 8328
16, 49217, Control_c, 13, 7, 52
16, 49217, Control_c, 13, 7, 52
16, 49217, Pitch_bend_c, 13, 8342
16, 49218, Control_c, 13, 7, 53
16, 49218, Control_c, 13, 7, 53
16, 49218, Pitch_bend_c, 13, 8355
16, 49219, Control_c, 13, 7, 53
16, 49219, Control_c, 13, 7, 53
16, 49219, Pitch_bend_c, 13, 8362
16, 49220, Control_c, 13, 7, 53
16, 49220, Control_c, 13, 7, 53
16, 49220, Pitch_bend_c, 13, 8376
16, 49221, Control_c, 13, 7, 53
16, 49221, Control_c, 13, 7, 53
16, 49221, Pitch_bend_c, 13, 8383
16, 49222, Control_c, 13, 7, 53
16, 49222, Control_c, 13, 7, 53
16, 49222, Pitch_bend_c, 13, 8396
16, 49223, Control_c, 13, 7, 53
16, 49223, Control_c, 13, 7, 53
16, 49223, Pitch_bend_c, 13, 8403
16, 49224, Control_c, 13, 7, 53
16, 49224, Control_c, 13, 7, 53
16, 49224, Pitch_bend_c, 13, 8410
16, 49225, Control_c, 13, 7, 53
16, 49225, Control_c, 13, 7, 53
16, 49225, Pitch_bend_c, 13, 8410
16, 49226, Control_c, 13, 7, 53
16, 49226, Control_c, 13, 7, 53
16, 49226, Pitch_bend_c, 13, 8417
16, 49227, Control_c, 13, 7, 53
16, 49227, Control_c, 13, 7, 53
16, 49227, Pitch_bend_c, 13, 8424
16, 49228, Control_c, 13, 7, 52
16, 49228, Control_c, 13, 7, 52
16, 49228, Pitch_bend_c, 13, 8424
16, 49229, Control_c, 13, 7, 52
16, 49229, Control_c, 13, 7, 52
16, 49229, Pitch_bend_c, 13, 8430
16, 49230, Control_c, 13, 7, 52
16, 49230, Control_c, 13, 7, 52
16, 49230, Pitch_bend_c, 13, 8430
16, 49231, Control_c, 13, 7, 52
16, 49231, Control_c, 13, 7, 52
16, 49231, Pitch_bend_c, 13, 8437
16, 49232, Control_c, 13, 7, 52
16, 49232, Control_c, 13, 7, 52
16, 49232, Pitch_bend_c, 13, 8437
16, 49233, Control_c, 13, 7, 51
16, 49233, Control_c, 13, 7, 51
16, 49233, Pitch_bend_c, 13, 8444
16, 49234, Control_c, 13, 7, 51
16, 49234, Control_c, 13, 7, 51
16, 49234, Pitch_bend_c, 13, 8444
16, 49235, Control_c, 13, 7, 50
16, 49235, Control_c, 13, 7, 50
16, 49235, Pitch_bend_c, 13, 8444
16, 49236, Control_c, 13, 7, 50
16, 49236, Control_c, 13, 7, 50
16, 49236, Pitch_bend_c, 13, 8444
16, 49237, Control_c, 13, 7, 49
16, 49237, Control_c, 13, 7, 49
16, 49237, Pitch_bend_c, 13, 8451
16, 49238, Control_c, 13, 7, 48
16, 49238, Control_c, 13, 7, 48
16, 49238, Pitch_bend_c, 13, 8451
16, 49239, Control_c, 13, 7, 47
16, 49239, Control_c, 13, 7, 47
16, 49239, Pitch_bend_c, 13, 8451
16, 49240, Control_c, 13, 7, 45
16, 49240, Control_c, 13, 7, 45
16, 49240, Pitch_bend_c, 13, 8451
16, 49241, Control_c, 13, 7, 43
16, 49241, Control_c, 13, 7, 43
16, 49241, Pitch_bend_c, 13, 8451
16, 49242, Control_c, 13, 7, 41
16, 49242, Control_c, 13, 7, 41
16, 49242, Pitch_bend_c, 13, 8451
16, 49243, Control_c, 13, 7, 38
16, 49243, Control_c, 13, 7, 38
16, 49243, Pitch_bend_c, 13, 8458
16, 49244, Control_c, 13, 7, 34
16, 49244, Control_c, 13, 7, 34
16, 49245, Control_c, 13, 7, 30
16, 49245, Control_c, 13, 7, 30
16, 49245, Pitch_bend_c, 13, 8458
16, 49246, Control_c, 13, 7, 25
16, 49246, Control_c, 13, 7, 25
16, 49247, Control_c, 13, 7, 18
16, 49247, Control_c, 13, 7, 18
16, 49247, Pitch_bend_c, 13, 8458
16, 49248, Control_c, 13, 7, 25
16, 49248, Pitch_bend_c, 13, 7612
16, 49249, Pitch_bend_c, 13, 7708
16, 49249, Control_c, 13, 7, 31
16, 49250, Pitch_bend_c, 13, 7790
16, 49250, Control_c, 13, 7, 35
16, 49251, Pitch_bend_c, 13, 7865
16, 49251, Control_c, 13, 7, 39
16, 49252, Pitch_bend_c, 13, 7926
16, 49252, Control_c, 13, 7, 42
16, 49253, Pitch_bend_c, 13, 7988
16, 49253, Control_c, 13, 7, 44
16, 49254, Pitch_bend_c, 13, 8035
16, 49254, Control_c, 13, 7, 46
16, 49255, Pitch_bend_c, 13, 8083
16, 49255, Control_c, 13, 7, 47
16, 49256, Pitch_bend_c, 13, 8124
16, 49256, Control_c, 13, 7, 49
16, 49257, Pitch_bend_c, 13, 8158
16, 49257, Control_c, 13, 7, 49
16, 49258, Pitch_bend_c, 13, 8192
16, 49258, Control_c, 13, 7, 50
16, 49259, Pitch_bend_c, 13, 8226
16, 49259, Control_c, 13, 7, 51
16, 49260, Pitch_bend_c, 13, 8246
16, 49260, Control_c, 13, 7, 51
16, 49261, Pitch_bend_c, 13, 8273
16, 49261, Control_c, 13, 7, 52
16, 49262, Pitch_bend_c, 13, 8294
16, 49262, Control_c, 13, 7, 52
16, 49263, Pitch_bend_c, 13, 8308
16, 49263, Control_c, 13, 7, 52
16, 49264, Pitch_bend_c, 13, 8328
16, 49264, Control_c, 13, 7, 52
16, 49265, Pitch_bend_c, 13, 8342
16, 49265, Control_c, 13, 7, 52
16, 49266, Pitch_bend_c, 13, 8355
16, 49266, Control_c, 13, 7, 53
16, 49267, Pitch_bend_c, 13, 8362
16, 49267, Control_c, 13, 7, 53
16, 49268, Pitch_bend_c, 13, 8376
16, 49268, Control_c, 13, 7, 53
16, 49269, Pitch_bend_c, 13, 8383
16, 49269, Control_c, 13, 7, 53
16, 49270, Pitch_bend_c, 13, 8396
16, 49270, Control_c, 13, 7, 53
16, 49271, Pitch_bend_c, 13, 8403
16, 49271, Control_c, 13, 7, 53
16, 49272, Pitch_bend_c, 13, 8410
16, 49272, Control_c, 13, 7, 53
16, 49273, Pitch_bend_c, 13, 8410
16, 49273, Control_c, 13, 7, 53
16, 49274, Pitch_bend_c, 13, 8417
16, 49274, Control_c, 13, 7, 53
16, 49275, Pitch_bend_c, 13, 8424
16, 49275, Control_c, 13, 7, 53
16, 49276, Pitch_bend_c, 13, 8424
16, 49276, Control_c, 13, 7, 52
16, 49277, Pitch_bend_c, 13, 8430
16, 49277, Control_c, 13, 7, 52
16, 49278, Pitch_bend_c, 13, 8430
16, 49278, Control_c, 13, 7, 52
16, 49279, Pitch_bend_c, 13, 8437
16, 49279, Control_c, 13, 7, 52
16, 49280, Pitch_bend_c, 13, 8437
16, 49280, Control_c, 13, 7, 52
16, 49281, Pitch_bend_c, 13, 8444
16, 49281, Control_c, 13, 7, 51
16, 49282, Pitch_bend_c, 13, 8444
16, 49282, Control_c, 13, 7, 51
16, 49283, Pitch_bend_c, 13, 8444
16, 49283, Control_c, 13, 7, 50
16, 49284, Pitch_bend_c, 13, 8444
16, 49284, Control_c, 13, 7, 50
16, 49285, Pitch_bend_c, 13, 8451
16, 49285, Control_c, 13, 7, 49
16, 49286, Pitch_bend_c, 13, 8451
16, 49286, Control_c, 13, 7, 48
16, 49287, Pitch_bend_c, 13, 8451
16, 49287, Control_c, 13, 7, 47
16, 49288, Pitch_bend_c, 13, 8451
16, 49288, Control_c, 13, 7, 45
16, 49289, Pitch_bend_c, 13, 8451
16, 49289, Control_c, 13, 7, 43
16, 49290, Pitch_bend_c, 13, 8451
16, 49290, Control_c, 13, 7, 41
16, 49291, Pitch_bend_c, 13, 8458
16, 49291, Control_c, 13, 7, 38
16, 49292, Control_c, 13, 7, 34
16, 49293, Pitch_bend_c, 13, 8458
16, 49293, Control_c, 13, 7, 30
16, 49294, Control_c, 13, 7, 25
16, 49295, Pitch_bend_c, 13, 8458
16, 49295, Control_c, 13, 7, 18
16, 49296, Pitch_bend_c, 13, 7612
16, 49296, Control_c, 13, 7, 25
16, 49297, Pitch_bend_c, 13, 7708
16, 49297, Control_c, 13, 7, 31
16, 49298, Pitch_bend_c, 13, 7790
16, 49298, Control_c, 13, 7, 35
16, 49299, Pitch_bend_c, 13, 7865
16, 49299, Control_c, 13, 7, 39
16, 49300, Pitch_bend_c, 13, 7926
16, 49300, Control_c, 13, 7, 42
16, 49301, Pitch_bend_c, 13, 7988
16, 49301, Control_c, 13, 7, 44
16, 49302, Pitch_bend_c, 13, 8035
16, 49302, Control_c, 13, 7, 46
16, 49303, Pitch_bend_c, 13, 8083
16, 49303, Control_c, 13, 7, 47
16, 49304, Pitch_bend_c, 13, 8124
16, 49304, Control_c, 13, 7, 49
16, 49305, Pitch_bend_c, 13, 8158
16, 49305, Control_c, 13, 7, 49
16, 49306, Pitch_bend_c, 13, 8192
16, 49306, Control_c, 13, 7, 50
16, 49307, Pitch_bend_c, 13, 8226
16, 49307, Control_c, 13, 7, 51
16, 49308, Pitch_bend_c, 13, 8246
16, 49308, Control_c, 13, 7, 51
16, 49309, Pitch_bend_c, 13, 8273
16, 49309, Control_c, 13, 7, 52
16, 49310, Pitch_bend_c, 13, 8294
16, 49310, Control_c, 13, 7, 52
16, 49311, Pitch_bend_c, 13, 8308
16, 49311, Control_c, 13, 7, 52
16, 49312, Pitch_bend_c, 13, 8328
16, 49312, Control_c, 13, 7, 52
16, 49313, Pitch_bend_c, 13, 8342
16, 49313, Control_c, 13, 7, 52
16, 49314, Pitch_bend_c, 13, 8355
16, 49314, Control_c, 13, 7, 53
16, 49315, Pitch_bend_c, 13, 8362
16, 49315, Control_c, 13, 7, 53
16, 49316, Pitch_bend_c, 13, 8376
16, 49316, Control_c, 13, 7, 53
16, 49317, Pitch_bend_c, 13, 8383
16, 49317, Control_c, 13, 7, 53
16, 49318, Pitch_bend_c, 13, 8396
16, 49318, Control_c, 13, 7, 53
16, 49319, Pitch_bend_c, 13, 8403
16, 49319, Control_c, 13, 7, 53
16, 49320, Pitch_bend_c, 13, 8410
16, 49320, Control_c, 13, 7, 53
16, 49321, Pitch_bend_c, 13, 8410
16, 49321, Control_c, 13, 7, 53
16, 49322, Pitch_bend_c, 13, 8417
16, 49322, Control_c, 13, 7, 53
16, 49323, Pitch_bend_c, 13, 8424
16, 49323, Control_c, 13, 7, 53
16, 49324, Pitch_bend_c, 13, 8424
16, 49324, Control_c, 13, 7, 52
16, 49325, Pitch_bend_c, 13, 8430
16, 49325, Control_c, 13, 7, 52
16, 49326, Pitch_bend_c, 13, 8430
16, 49326, Control_c, 13, 7, 52
16, 49327, Pitch_bend_c, 13, 8437
16, 49327, Control_c, 13, 7, 52
16, 49328, Pitch_bend_c, 13, 8437
16, 49328, Control_c, 13, 7, 52
16, 49329, Pitch_bend_c, 13, 8444
16, 49329, Control_c, 13, 7, 51
16, 49330, Pitch_bend_c, 13, 8444
16, 49330, Control_c, 13, 7, 51
16, 49331, Pitch_bend_c, 13, 8444
16, 49331, Control_c, 13, 7, 50
16, 49332, Pitch_bend_c, 13, 8444
16, 49332, Control_c, 13, 7, 50
16, 49333, Pitch_bend_c, 13, 8451
16, 49333, Control_c, 13, 7, 49
16, 49334, Pitch_bend_c, 13, 8451
16, 49334, Control_c, 13, 7, 48
16, 49335, Pitch_bend_c, 13, 8451
16, 49335, Control_c, 13, 7, 47
16, 49336, Pitch_bend_c, 13, 8451
16, 49336, Control_c, 13, 7, 45
16, 49337, Pitch_bend_c, 13, 8451
16, 49337, Control_c, 13, 7, 43
16, 49338, Pitch_bend_c, 13, 8451
16, 49338, Control_c, 13, 7, 41
16, 49339, Pitch_bend_c, 13, 8458
16, 49339, Control_c, 13, 7, 38
16, 49340, Control_c, 13, 7, 34
16, 49341, Pitch_bend_c, 13, 8458
16, 49341, Control_c, 13, 7, 30
16, 49342, Control_c, 13, 7, 25
16, 49343, Pitch_bend_c, 13, 8458
16, 49343, Control_c, 13, 7, 18
16, 49344, Pitch_bend_c, 13, 7612
16, 49344, Control_c, 13, 7, 25
16, 49345, Pitch_bend_c, 13, 7708
16, 49345, Control_c, 13, 7, 31
16, 49346, Pitch_bend_c, 13, 7790
16, 49346, Control_c, 13, 7, 35
16, 49347, Pitch_bend_c, 13, 7865
16, 49347, Control_c, 13, 7, 39
16, 49348, Pitch_bend_c, 13, 7926
16, 49348, Control_c, 13, 7, 42
16, 49349, Pitch_bend_c, 13, 7988
16, 49349, Control_c, 13, 7, 44
16, 49350, Pitch_bend_c, 13, 8035
16, 49350, Control_c, 13, 7, 46
16, 49351, Pitch_bend_c, 13, 8083
16, 49351, Control_c, 13, 7, 47
16, 49352, Pitch_bend_c, 13, 8124
16, 49352, Control_c, 13, 7, 49
16, 49353, Pitch_bend_c, 13, 8158
16, 49353, Control_c, 13, 7, 49
16, 49354, Pitch_bend_c, 13, 8192
16, 49354, Control_c, 13, 7, 50
16, 49355, Pitch_bend_c, 13, 8226
16, 49355, Control_c, 13, 7, 51
16, 49356, Pitch_bend_c, 13, 8246
16, 49356, Control_c, 13, 7, 51
16, 49357, Pitch_bend_c, 13, 8273
16, 49357, Control_c, 13, 7, 52
16, 49358, Pitch_bend_c, 13, 8294
16, 49358, Control_c, 13, 7, 52
16, 49359, Pitch_bend_c, 13, 8308
16, 49359, Control_c, 13, 7, 52
16, 49360, Pitch_bend_c, 13, 8328
16, 49360, Control_c, 13, 7, 52
16, 49361, Pitch_bend_c, 13, 8342
16, 49361, Control_c, 13, 7, 52
16, 49362, Pitch_bend_c, 13, 8355
16, 49362, Control_c, 13, 7, 53
16, 49363, Pitch_bend_c, 13, 8362
16, 49363, Control_c, 13, 7, 53
16, 49364, Pitch_bend_c, 13, 8376
16, 49364, Control_c, 13, 7, 53
16, 49365, Pitch_bend_c, 13, 8383
16, 49365, Control_c, 13, 7, 53
16, 49366, Pitch_bend_c, 13, 8396
16, 49366, Control_c, 13, 7, 53
16, 49367, Pitch_bend_c, 13, 8403
16, 49367, Control_c, 13, 7, 53
16, 49368, Pitch_bend_c, 13, 8410
16, 49368, Control_c, 13, 7, 53
16, 49369, Pitch_bend_c, 13, 8410
16, 49369, Control_c, 13, 7, 53
16, 49370, Pitch_bend_c, 13, 8417
16, 49370, Control_c, 13, 7, 53
16, 49371, Pitch_bend_c, 13, 8424
16, 49371, Control_c, 13, 7, 53
16, 49372, Pitch_bend_c, 13, 8424
16, 49372, Control_c, 13, 7, 52
16, 49373, Pitch_bend_c, 13, 8430
16, 49373, Control_c, 13, 7, 52
16, 49374, Pitch_bend_c, 13, 8430
16, 49374, Control_c, 13, 7, 52
16, 49375, Pitch_bend_c, 13, 8437
16, 49375, Control_c, 13, 7, 52
16, 49376, Pitch_bend_c, 13, 8437
16, 49376, Control_c, 13, 7, 52
16, 49377, Pitch_bend_c, 13, 8444
16, 49377, Control_c, 13, 7, 51
16, 49378, Pitch_bend_c, 13, 8444
16, 49378, Control_c, 13, 7, 51
16, 49379, Pitch_bend_c, 13, 8444
16, 49379, Control_c, 13, 7, 50
16, 49380, Pitch_bend_c, 13, 8444
16, 49380, Control_c, 13, 7, 50
16, 49381, Pitch_bend_c, 13, 8451
16, 49381, Control_c, 13, 7, 49
16, 49382, Pitch_bend_c, 13, 8451
16, 49382, Control_c, 13, 7, 48
16, 49383, Pitch_bend_c, 13, 8451
16, 49383, Control_c, 13, 7, 47
16, 49384, Pitch_bend_c, 13, 8451
16, 49384, Control_c, 13, 7, 45
16, 49385, Pitch_bend_c, 13, 8451
16, 49385, Control_c, 13, 7, 43
16, 49386, Pitch_bend_c, 13, 8451
16, 49386, Control_c, 13, 7, 41
16, 49387, Pitch_bend_c, 13, 8458
16, 49387, Control_c, 13, 7, 38
16, 49388, Control_c, 13, 7, 34
16, 49389, Pitch_bend_c, 13, 8458
16, 49389, Control_c, 13, 7, 30
16, 49390, Control_c, 13, 7, 25
16, 49391, Pitch_bend_c, 13, 8458
16, 49391, Control_c, 13, 7, 18
16, 49392, Control_c, 13, 7, 25
16, 49392, Pitch_bend_c, 13, 7612
16, 49393, Control_c, 13, 7, 31
16, 49393, Pitch_bend_c, 13, 7708
16, 49394, Control_c, 13, 7, 35
16, 49394, Pitch_bend_c, 13, 7790
16, 49395, Control_c, 13, 7, 39
16, 49395, Pitch_bend_c, 13, 7865
16, 49396, Control_c, 13, 7, 42
16, 49396, Pitch_bend_c, 13, 7926
16, 49397, Control_c, 13, 7, 44
16, 49397, Pitch_bend_c, 13, 7988
16, 49398, Control_c, 13, 7, 46
16, 49398, Pitch_bend_c, 13, 8035
16, 49399, Control_c, 13, 7, 47
16, 49399, Pitch_bend_c, 13, 8083
16, 49400, Control_c, 13, 7, 49
16, 49400, Pitch_bend_c, 13, 8124
16, 49401, Control_c, 13, 7, 49
16, 49401, Pitch_bend_c, 13, 8158
16, 49402, Control_c, 13, 7, 50
16, 49402, Pitch_bend_c, 13, 8192
16, 49403, Control_c, 13, 7, 51
16, 49403, Pitch_bend_c, 13, 8226
16, 49404, Control_c, 13, 7, 51
16, 49404, Pitch_bend_c, 13, 8246
16, 49405, Control_c, 13, 7, 52
16, 49405, Pitch_bend_c, 13, 8273
16, 49406, Control_c, 13, 7, 52
16, 49406, Pitch_bend_c, 13, 8294
16, 49407, Control_c, 13, 7, 52
16, 49407, Pitch_bend_c, 13, 8308
16, 49408, Control_c, 13, 7, 52
16, 49408, Pitch_bend_c, 13, 8328
16, 49409, Control_c, 13, 7, 52
16, 49409, Pitch_bend_c, 13, 8342
16, 49410, Control_c, 13, 7, 53
16, 49410, Pitch_bend_c, 13, 8355
16, 49411, Control_c, 13, 7, 53
16, 49411, Pitch_bend_c, 13, 8362
16, 49412, Control_c, 13, 7, 53
16, 49412, Pitch_bend_c, 13, 8376
16, 49413, Control_c, 13, 7, 53
16, 49413, Pitch_bend_c, 13, 8383
16, 49414, Control_c, 13, 7, 53
16, 49414, Pitch_bend_c, 13, 8396
16, 49415, Control_c, 13, 7, 53
16, 49415, Pitch_bend_c, 13, 8403
16, 49416, Control_c, 13, 7, 53
16, 49416, Pitch_bend_c, 13, 8410
16, 49417, Control_c, 13, 7, 53
16, 49417, Pitch_bend_c, 13, 8410
16, 49418, Control_c, 13, 7, 53
16, 49418, Pitch_bend_c, 13, 8417
16, 49419, Control_c, 13, 7, 53
16, 49419, Pitch_bend_c, 13, 8424
16, 49420, Control_c, 13, 7, 52
16, 49420, Pitch_bend_c, 13, 8424
16, 49421, Control_c, 13, 7, 52
16, 49421, Pitch_bend_c, 13, 8430
16, 49422, Control_c, 13, 7, 52
16, 49422, Pitch_bend_c, 13, 8430
16, 49423, Control_c, 13, 7, 52
16, 49423, Pitch_bend_c, 13, 8437
16, 49424, Control_c, 13, 7, 52
16, 49424, Pitch_bend_c, 13, 8437
16, 49425, Control_c, 13, 7, 51
16, 49425, Pitch_bend_c, 13, 8444
16, 49426, Control_c, 13, 7, 51
16, 49426, Pitch_bend_c, 13, 8444
16, 49427, Control_c, 13, 7, 50
16, 49427, Pitch_bend_c, 13, 8444
16, 49428, Control_c, 13, 7, 50
16, 49428, Pitch_bend_c, 13, 8444
16, 49429, Control_c, 13, 7, 49
16, 49429, Pitch_bend_c, 13, 8451
16, 49430, Control_c, 13, 7, 48
16, 49430, Pitch_bend_c, 13, 8451
16, 49431, Control_c, 13, 7, 47
16, 49431, Pitch_bend_c, 13, 8451
16, 49432, Control_c, 13, 7, 45
16, 49432, Pitch_bend_c, 13, 8451
16, 49433, Control_c, 13, 7, 43
16, 49433, Pitch_bend_c, 13, 8451
16, 49434, Control_c, 13, 7, 41
16, 49434, Pitch_bend_c, 13, 8451
16, 49435, Control_c, 13, 7, 38
16, 49435, Pitch_bend_c, 13, 8458
16, 49436, Control_c, 13, 7, 34
16, 49437, Control_c, 13, 7, 30
16, 49437, Pitch_bend_c, 13, 8458
16, 49438, Control_c, 13, 7, 25
16, 49439, Control_c, 13, 7, 18
16, 49439, Pitch_bend_c, 13, 8458
16, 49440, Pitch_bend_c, 13, 7612
16, 49440, Control_c, 13, 7, 25
16, 49441, Pitch_bend_c, 13, 7708
16, 49441, Control_c, 13, 7, 31
16, 49442, Pitch_bend_c, 13, 7790
16, 49442, Control_c, 13, 7, 35
16, 49443, Pitch_bend_c, 13, 7865
16, 49443, Control_c, 13, 7, 39
16, 49444, Pitch_bend_c, 13, 7926
16, 49444, Control_c, 13, 7, 42
16, 49445, Pitch_bend_c, 13, 7988
16, 49445, Control_c, 13, 7, 44
16, 49446, Pitch_bend_c, 13, 8035
16, 49446, Control_c, 13, 7, 46
16, 49447, Pitch_bend_c, 13, 8083
16, 49447, Control_c, 13, 7, 47
16, 49448, Pitch_bend_c, 13, 8124
16, 49448, Control_c, 13, 7, 49
16, 49449, Pitch_bend_c, 13, 8158
16, 49449, Control_c, 13, 7, 49
16, 49450, Pitch_bend_c, 13, 8192
16, 49450, Control_c, 13, 7, 50
16, 49451, Pitch_bend_c, 13, 8226
16, 49451, Control_c, 13, 7, 51
16, 49452, Pitch_bend_c, 13, 8246
16, 49452, Control_c, 13, 7, 51
16, 49453, Pitch_bend_c, 13, 8273
16, 49453, Control_c, 13, 7, 52
16, 49454, Pitch_bend_c, 13, 8294
16, 49454, Control_c, 13, 7, 52
16, 49455, Pitch_bend_c, 13, 8308
16, 49455, Control_c, 13, 7, 52
16, 49456, Pitch_bend_c, 13, 8328
16, 49456, Control_c, 13, 7, 52
16, 49457, Pitch_bend_c, 13, 8342
16, 49457, Control_c, 13, 7, 52
16, 49458, Pitch_bend_c, 13, 8355
16, 49458, Control_c, 13, 7, 53
16, 49459, Pitch_bend_c, 13, 8362
16, 49459, Control_c, 13, 7, 53
16, 49460, Pitch_bend_c, 13, 8376
16, 49460, Control_c, 13, 7, 53
16, 49461, Pitch_bend_c, 13, 8383
16, 49461, Control_c, 13, 7, 53
16, 49462, Pitch_bend_c, 13, 8396
16, 49462, Control_c, 13, 7, 53
16, 49463, Pitch_bend_c, 13, 8403
16, 49463, Control_c, 13, 7, 53
16, 49464, Pitch_bend_c, 13, 8410
16, 49464, Control_c, 13, 7, 53
16, 49465, Pitch_bend_c, 13, 8410
16, 49465, Control_c, 13, 7, 53
16, 49466, Pitch_bend_c, 13, 8417
16, 49466, Control_c, 13, 7, 53
16, 49467, Pitch_bend_c, 13, 8424
16, 49467, Control_c, 13, 7, 53
16, 49468, Pitch_bend_c, 13, 8424
16, 49468, Control_c, 13, 7, 52
16, 49469, Pitch_bend_c, 13, 8430
16, 49469, Control_c, 13, 7, 52
16, 49470, Pitch_bend_c, 13, 8430
16, 49470, Control_c, 13, 7, 52
16, 49471, Pitch_bend_c, 13, 8437
16, 49471, Control_c, 13, 7, 52
16, 49472, Pitch_bend_c, 13, 8437
16, 49472, Control_c, 13, 7, 52
16, 49473, Pitch_bend_c, 13, 8444
16, 49473, Control_c, 13, 7, 51
16, 49474, Pitch_bend_c, 13, 8444
16, 49474, Control_c, 13, 7, 51
16, 49475, Pitch_bend_c, 13, 8444
16, 49475, Control_c, 13, 7, 50
16, 49476, Pitch_bend_c, 13, 8444
16, 49476, Control_c, 13, 7, 50
16, 49477, Pitch_bend_c, 13, 8451
16, 49477, Control_c, 13, 7, 49
16, 49478, Pitch_bend_c, 13, 8451
16, 49478, Control_c, 13, 7, 48
16, 49479, Pitch_bend_c, 13, 8451
16, 49479, Control_c, 13, 7, 47
16, 49480, Pitch_bend_c, 13, 8451
16, 49480, Control_c, 13, 7, 45
16, 49481, Pitch_bend_c, 13, 8451
16, 49481, Control_c, 13, 7, 43
16, 49482, Pitch_bend_c, 13, 8451
16, 49482, Control_c, 13, 7, 41
16, 49483, Pitch_bend_c, 13, 8458
16, 49483, Control_c, 13, 7, 38
16, 49484, Control_c, 13, 7, 34
16, 49485, Pitch_bend_c, 13, 8458
16, 49485, Control_c, 13, 7, 30
16, 49486, Control_c, 13, 7, 25
16, 49487, Pitch_bend_c, 13, 8458
16, 49487, Control_c, 13, 7, 18
16, 49488, Pitch_bend_c, 13, 7612
16, 49488, Control_c, 13, 7, 25
16, 49489, Control_c, 13, 7, 31
16, 49489, Pitch_bend_c, 13, 7708
16, 49490, Control_c, 13, 7, 35
16, 49490, Pitch_bend_c, 13, 7790
16, 49491, Control_c, 13, 7, 39
16, 49491, Pitch_bend_c, 13, 7865
16, 49492, Control_c, 13, 7, 42
16, 49492, Pitch_bend_c, 13, 7926
16, 49493, Control_c, 13, 7, 44
16, 49493, Pitch_bend_c, 13, 7988
16, 49494, Control_c, 13, 7, 46
16, 49494, Pitch_bend_c, 13, 8035
16, 49495, Control_c, 13, 7, 47
16, 49495, Pitch_bend_c, 13, 8083
16, 49496, Control_c, 13, 7, 49
16, 49496, Pitch_bend_c, 13, 8124
16, 49497, Control_c, 13, 7, 49
16, 49497, Pitch_bend_c, 13, 8158
16, 49498, Control_c, 13, 7, 50
16, 49498, Pitch_bend_c, 13, 8192
16, 49499, Control_c, 13, 7, 51
16, 49499, Pitch_bend_c, 13, 8226
16, 49500, Control_c, 13, 7, 51
16, 49500, Pitch_bend_c, 13, 8246
16, 49501, Control_c, 13, 7, 52
16, 49501, Pitch_bend_c, 13, 8273
16, 49502, Control_c, 13, 7, 52
16, 49502, Pitch_bend_c, 13, 8294
16, 49503, Control_c, 13, 7, 52
16, 49503, Pitch_bend_c, 13, 8308
16, 49504, Control_c, 13, 7, 52
16, 49504, Pitch_bend_c, 13, 8328
16, 49505, Control_c, 13, 7, 52
16, 49505, Pitch_bend_c, 13, 8342
16, 49506, Control_c, 13, 7, 53
16, 49506, Pitch_bend_c, 13, 8355
16, 49507, Control_c, 13, 7, 53
16, 49507, Pitch_bend_c, 13, 8362
16, 49508, Control_c, 13, 7, 53
16, 49508, Pitch_bend_c, 13, 8376
16, 49509, Control_c, 13, 7, 53
16, 49509, Pitch_bend_c, 13, 8383
16, 49510, Control_c, 13, 7, 53
16, 49510, Pitch_bend_c, 13, 8396
16, 49511, Control_c, 13, 7, 53
16, 49511, Pitch_bend_c, 13, 8403
16, 49512, Control_c, 13, 7, 53
16, 49512, Pitch_bend_c, 13, 8410
16, 49513, Control_c, 13, 7, 53
16, 49513, Pitch_bend_c, 13, 8410
16, 49514, Control_c, 13, 7, 53
16, 49514, Pitch_bend_c, 13, 8417
16, 49515, Control_c, 13, 7, 53
16, 49515, Pitch_bend_c, 13, 8424
16, 49516, Control_c, 13, 7, 52
16, 49516, Pitch_bend_c, 13, 8424
16, 49517, Control_c, 13, 7, 52
16, 49517, Pitch_bend_c, 13, 8430
16, 49518, Control_c, 13, 7, 52
16, 49518, Pitch_bend_c, 13, 8430
16, 49519, Control_c, 13, 7, 52
16, 49519, Pitch_bend_c, 13, 8437
16, 49520, Control_c, 13, 7, 52
16, 49520, Pitch_bend_c, 13, 8437
16, 49521, Control_c, 13, 7, 51
16, 49521, Pitch_bend_c, 13, 8444
16, 49522, Control_c, 13, 7, 51
16, 49522, Pitch_bend_c, 13, 8444
16, 49523, Control_c, 13, 7, 50
16, 49523, Pitch_bend_c, 13, 8444
16, 49524, Control_c, 13, 7, 50
16, 49524, Pitch_bend_c, 13, 8444
16, 49525, Control_c, 13, 7, 49
16, 49525, Pitch_bend_c, 13, 8451
16, 49526, Control_c, 13, 7, 48
16, 49526, Pitch_bend_c, 13, 8451
16, 49527, Control_c, 13, 7, 47
16, 49527, Pitch_bend_c, 13, 8451
16, 49528, Control_c, 13, 7, 45
16, 49528, Pitch_bend_c, 13, 8451
16, 49529, Control_c, 13, 7, 43
16, 49529, Pitch_bend_c, 13, 8451
16, 49530, Control_c, 13, 7, 41
16, 49530, Pitch_bend_c, 13, 8451
16, 49531, Control_c, 13, 7, 38
16, 49531, Pitch_bend_c, 13, 8458
16, 49532, Control_c, 13, 7, 34
16, 49533, Control_c, 13, 7, 30
16, 49533, Pitch_bend_c, 13, 8458
16, 49534, Control_c, 13, 7, 25
16, 49535, Control_c, 13, 7, 18
16, 49535, Pitch_bend_c, 13, 8458
16, 49536, Note_off_c, 13, 81, 64
16, 63396, Control_c, 13, 101, 0
16, 63396, Control_c, 13, 100, 0
16, 63396, Control_c, 13, 6, 12
16, 63396, Control_c, 13, 10, 64
16, 63396, Control_c, 13, 7, 18
16, 63396, Pitch_bend_c, 13, 8458
16, 63396, Program_c, 13, 84
16, 63396, Control_c, 13, 1, 49
16, 63396, Pitch_bend_c, 13, 8192
16, 63396, Control_c, 13, 7, 112
16, 63397, Control_c, 13, 101, 0
16, 63397, Control_c, 13, 100, 0
16, 63397, Control_c, 13, 6, 12
16, 63397, Control_c, 13, 10, 64
16, 63397, Control_c, 13, 7, 18
16, 63397, Pitch_bend_c, 13, 8458
16, 63397, Program_c, 13, 84
16, 63397, Control_c, 13, 1, 49
16, 63397, End_track
0, 0, End_of_file
