<!--
  - Copyright (C) 2025 Jacob Wysko
  -
  - This program is free software: you can redistribute it and/or modify
  - it under the terms of the GNU General Public License as published by
  - the Free Software Foundation, either version 3 of the License, or
  - (at your option) any later version.
  -
  - This program is distributed in the hope that it will be useful,
  - but WITHOUT ANY WARRANTY; without even the implied warranty of
  - MERCHANTABILITY or FITNESS FOR A PARTICULAR PURPOSE. See the
  - GNU General Public License for more details.
  -
  - You should have received a copy of the GNU General Public License
  - along with this program. If not, see https://www.gnu.org/licenses/.
  -->

<svg xmlns="http://www.w3.org/2000/svg" height="24px" viewBox="0 -960 960 960" width="24px" fill="#e8eaed"><path d="M120-40q-33 0-56.5-23.5T40-120v-720q0-33 23.5-56.5T120-920h720q33 0 56.5 23.5T920-840v720q0 33-23.5 56.5T840-40H120Zm440-120h240v-240h-80v102L594-424l-57 57 127 127H560v80Zm-344 0 504-504v104h80v-240H560v80h104L160-216l56 56Zm151-377 56-56-207-207-56 56 207 207Z"/></svg>