# Blender 4.3.0
# www.blender.org

o AccordionKeyWhiteBack.005
v -3.050000 -1.902343 -0.025000
v -3.050000 -2.261148 -0.025000
v 0.000000 -1.902343 -0.025000
v 0.000000 -2.261148 -0.025000
v 0.000000 -1.902343 -0.225000
v 0.000000 -2.261148 -0.225000
v -3.050000 -1.902343 -0.225000
v -3.050000 -2.261148 -0.225000
v -6.000000 -1.548750 -0.025000
v -6.000000 -2.451250 -0.025000
v -3.050000 -1.548750 -0.025000
v -3.050000 -2.451250 -0.025000
v -3.050000 -1.548750 -0.225000
v -3.050000 -2.451250 -0.225000
v -6.000000 -1.548750 -0.225000
v -6.000000 -2.451250 -0.225000
vn -0.0000 -0.0000 1.0000
vn 1.0000 -0.0000 -0.0000
vn -0.0000 -0.0000 -1.0000
vn -1.0000 -0.0000 -0.0000
vn -0.0000 1.0000 -0.0000
vn -0.0000 -1.0000 -0.0000
vt 0.499996 1.002453
vt 0.499996 0.384069
vt 0.991305 1.002453
vt 0.991305 0.384069
vt 0.235059 0.091096
vt 0.235059 0.034599
vt 0.435291 0.091096
vt 0.435291 0.034599
vt 0.500859 0.154434
vt 0.500859 0.131732
vt 0.998500 0.154434
vt 0.998500 0.131732
vt 0.017536 0.091264
vt 0.017536 0.034767
vt 0.215276 0.091264
vt 0.215276 0.034767
vt 0.501014 0.247297
vt 0.501014 0.195404
vt 0.990212 0.247297
vt 0.990212 0.195404
vt 0.500864 0.338798
vt 0.500864 0.289195
vt 0.990767 0.338798
vt 0.990767 0.289195
vt 0.004814 1.002453
vt 0.004814 0.384069
vt 0.496124 1.002453
vt 0.496124 0.384069
vt 0.005677 0.154434
vt 0.005677 0.131732
vt 0.503319 0.154434
vt 0.503319 0.131732
vt 0.005832 0.247297
vt 0.005832 0.195404
vt 0.495031 0.247297
vt 0.495031 0.195404
vt 0.005682 0.338798
vt 0.005682 0.289195
vt 0.495586 0.338798
vt 0.495586 0.289195
s 1
f 1/1/1 2/2/1 3/3/1
f 2/2/1 4/4/1 3/3/1
f 3/5/2 4/6/2 5/7/2
f 4/6/2 6/8/2 5/7/2
f 5/9/3 6/10/3 7/11/3
f 6/10/3 8/12/3 7/11/3
f 7/13/4 8/14/4 1/15/4
f 8/14/4 2/16/4 1/15/4
f 7/17/5 1/18/5 5/19/5
f 1/18/5 3/20/5 5/19/5
f 2/21/6 8/22/6 4/23/6
f 8/22/6 6/24/6 4/23/6
f 9/25/1 10/26/1 11/27/1
f 10/26/1 12/28/1 11/27/1
f 11/5/2 12/6/2 13/7/2
f 12/6/2 14/8/2 13/7/2
f 13/29/3 14/30/3 15/31/3
f 14/30/3 16/32/3 15/31/3
f 15/13/4 16/14/4 9/15/4
f 16/14/4 10/16/4 9/15/4
f 15/33/5 9/34/5 13/35/5
f 9/34/5 11/36/5 13/35/5
f 10/37/6 16/38/6 12/39/6
f 16/38/6 14/40/6 12/39/6
