# Blender 4.3.0
# www.blender.org
o PianoWhiteKeyBack.001
v -2.500500 0.000000 0.000000
v -2.500500 0.000000 3.588750
v -3.499500 0.000000 0.000000
v -3.499500 0.000000 3.588750
v -3.499500 0.971429 -0.000000
v -3.499500 0.971429 3.588750
v -2.500500 0.971429 -0.000000
v -2.500500 0.971429 3.588750
v -2.500500 0.000000 3.588750
v -2.500500 0.000000 5.518700
v -3.499500 0.000000 3.588750
v -3.499500 0.000000 5.518700
v -3.499500 0.800000 3.588750
v -3.499500 0.800000 5.518700
v -2.500500 0.800000 3.588750
v -2.500500 0.800000 5.518700
v -2.500500 0.800000 3.588750
v -2.500500 0.800000 5.698136
v -3.499500 0.800000 3.588750
v -3.499500 0.800000 5.698136
v -3.499500 0.971429 3.588750
v -3.499500 0.971429 5.698136
v -2.500500 0.971429 3.588750
v -2.500500 0.971429 5.698136
vn -0.0000 -1.0000 -0.0000
vn -1.0000 -0.0000 -0.0000
vn -0.0000 1.0000 -0.0000
vn 1.0000 -0.0000 -0.0000
vn -0.0000 -0.0000 -1.0000
vn -0.0000 -0.0000 1.0000
vt 0.170592 0.252435
vt 0.170592 0.123678
vt 0.196344 0.252435
vt 0.196344 0.123678
vt 0.089297 0.252432
vt 0.089297 0.126469
vt 0.123287 0.252432
vt 0.123287 0.126469
vt 0.082620 0.252446
vt 0.082620 0.126483
vt 0.007043 0.252446
vt 0.007043 0.126483
vt 0.129290 0.251623
vt 0.129290 0.126920
vt 0.162940 0.251623
vt 0.162940 0.126920
vt 0.200103 0.073476
vt 0.200103 0.010976
vt 0.246426 0.073476
vt 0.246426 0.010976
vt 0.169899 0.125623
vt 0.169899 0.005681
vt 0.195911 0.125623
vt 0.195911 0.005681
vt 0.089761 0.130632
vt 0.089761 0.014466
vt 0.117752 0.130632
vt 0.117752 0.014466
vt 0.135487 0.130453
vt 0.135487 0.014288
vt 0.163478 0.130453
vt 0.163478 0.014288
vt 0.200073 0.010647
vt 0.200073 0.123422
vt 0.246396 0.010647
vt 0.246396 0.123422
vt 0.201834 0.249275
vt 0.201834 0.138260
vt 0.246930 0.249275
vt 0.246930 0.138260
vt 0.117752 0.006594
vt 0.123751 0.130632
vt 0.123751 0.006594
vt 0.082303 0.130646
vt 0.082303 0.006608
vt 0.006726 0.130646
vt 0.006726 0.006608
vt 0.129488 0.130453
vt 0.129488 0.006415
vt 0.135487 0.006415
vt 0.200073 0.134451
vt 0.246396 0.134451
s 1
f 1/1/1 2/2/1 3/3/1
f 2/2/1 4/4/1 3/3/1
f 3/5/2 4/6/2 5/7/2
f 4/6/2 6/8/2 5/7/2
f 5/9/3 6/10/3 7/11/3
f 6/10/3 8/12/3 7/11/3
f 7/13/4 8/14/4 1/15/4
f 8/14/4 2/16/4 1/15/4
f 7/17/5 1/18/5 5/19/5
f 1/18/5 3/20/5 5/19/5
f 9/21/1 10/22/1 11/23/1
f 10/22/1 12/24/1 11/23/1
f 11/25/2 12/26/2 13/27/2
f 12/26/2 14/28/2 13/27/2
f 15/29/4 16/30/4 9/31/4
f 16/30/4 10/32/4 9/31/4
f 10/33/6 16/34/6 12/35/6
f 16/34/6 14/36/6 12/35/6
f 17/37/1 18/38/1 19/39/1
f 18/38/1 20/40/1 19/39/1
f 19/27/2 20/41/2 21/42/2
f 20/41/2 22/43/2 21/42/2
f 21/44/3 22/45/3 23/46/3
f 22/45/3 24/47/3 23/46/3
f 23/48/4 24/49/4 17/29/4
f 24/49/4 18/50/4 17/29/4
f 18/34/6 24/51/6 20/36/6
f 24/51/6 22/52/6 20/36/6
