# created by: Biturn ver 0.88
# http://mirex.mypage.sk
# ------------------------------------
# 48 vertices, 58 polygons, 174 points, 1 materials


# vertexs: 48
v -26.566435 -0.400000 5.742000
v -26.566435 -1.450000 5.742000
v 25.538206 -0.400000 5.742000
v 25.538206 -1.450000 5.742000
v 25.538206 -0.400000 0.000000
v 25.538206 -1.450000 0.000000
v -26.566435 -0.400000 -0.000000
v -26.566435 -1.450000 -0.000000
v -26.566435 1.579121 -0.000000
v -26.566435 -1.450000 -0.000000
v 25.538206 1.579121 0.000000
v 25.538206 -1.450000 0.000000
v 25.538206 1.579121 -5.991998
v 25.538206 -1.450000 -5.991998
v -26.566435 1.579121 -5.991997
v -26.566435 -1.450000 -5.991997
v 25.538206 1.579121 0.000001
v 25.538206 -1.450000 0.000001
v 27.562609 1.579121 0.000001
v 27.562609 -1.450000 0.000001
v 27.562609 1.579121 -5.991998
v 27.562609 -1.450000 -5.991998
v 25.538206 1.579121 -5.991998
v 25.538206 -1.450000 -5.991998
v 25.538208 -0.028022 5.742000
v 25.538208 -1.450000 5.742000
v 27.562609 -0.028022 5.742000
v 27.562609 -1.450000 5.742000
v 27.562609 1.579121 0.000001
v 27.562609 -1.450000 0.000001
v 25.538208 1.579121 0.000001
v 25.538208 -1.450000 0.000001
v -28.591423 1.579121 0.000001
v -28.591423 -1.450000 0.000001
v -26.566435 1.579121 0.000001
v -26.566435 -1.450000 0.000001
v -26.566435 1.579121 -5.991997
v -26.566435 -1.450000 -5.991997
v -28.591423 1.579121 -5.991998
v -28.591423 -1.450000 -5.991998
v -28.591421 -0.028022 5.742000
v -28.591421 -1.450000 5.742000
v -26.566435 -0.028022 5.742000
v -26.566435 -1.450000 5.742000
v -26.566435 1.579121 0.000001
v -26.566435 -1.450000 0.000001
v -28.591421 1.579121 0.000001
v -28.591421 -1.450000 0.000001

# normals: 174
vn 0.000000 0.000000 1.000000
vn 0.000000 0.000000 1.000000
vn 0.000000 0.000000 1.000000
vn 0.000000 0.000000 1.000000
vn 0.000000 0.000000 1.000000
vn 0.000000 0.000000 1.000000
vn 1.000000 0.000000 0.000000
vn 1.000000 0.000000 0.000000
vn 1.000000 0.000000 0.000000
vn 1.000000 0.000000 0.000000
vn 1.000000 0.000000 0.000000
vn 1.000000 0.000000 0.000000
vn -1.000000 0.000000 0.000000
vn -1.000000 0.000000 0.000000
vn -1.000000 0.000000 0.000000
vn -1.000000 0.000000 0.000000
vn -1.000000 0.000000 0.000000
vn -1.000000 0.000000 0.000000
vn 0.000000 1.000000 0.000000
vn 0.000000 1.000000 0.000000
vn 0.000000 1.000000 0.000000
vn 0.000000 1.000000 0.000000
vn 0.000000 1.000000 0.000000
vn 0.000000 1.000000 0.000000
vn 0.000000 -1.000000 0.000000
vn 0.000000 -1.000000 0.000000
vn 0.000000 -1.000000 0.000000
vn 0.000000 -1.000000 0.000000
vn 0.000000 -1.000000 0.000000
vn 0.000000 -1.000000 0.000000
vn -0.000000 0.000000 1.000000
vn -0.000000 0.000000 1.000000
vn -0.000000 0.000000 1.000000
vn -0.000000 0.000000 1.000000
vn -0.000000 0.000000 1.000000
vn -0.000000 0.000000 1.000000
vn -0.000000 0.000000 -1.000000
vn -0.000000 0.000000 -1.000000
vn -0.000000 0.000000 -1.000000
vn -0.000000 0.000000 -1.000000
vn -0.000000 0.000000 -1.000000
vn -0.000000 0.000000 -1.000000
vn 0.000000 1.000000 0.000000
vn 0.000000 1.000000 0.000000
vn 0.000000 1.000000 0.000000
vn 0.000000 1.000000 0.000000
vn 0.000000 1.000000 0.000000
vn 0.000000 1.000000 0.000000
vn 0.000000 -1.000000 0.000000
vn 0.000000 -1.000000 0.000000
vn 0.000000 -1.000000 0.000000
vn 0.000000 -1.000000 0.000000
vn 0.000000 -1.000000 0.000000
vn 0.000000 -1.000000 0.000000
vn 0.000000 0.000000 1.000000
vn 0.000000 0.000000 1.000000
vn 0.000000 0.000000 1.000000
vn 0.000000 0.000000 1.000000
vn 0.000000 0.000000 1.000000
vn 0.000000 0.000000 1.000000
vn 1.000000 0.000000 0.000000
vn 1.000000 0.000000 0.000000
vn 1.000000 0.000000 0.000000
vn 1.000000 0.000000 0.000000
vn 1.000000 0.000000 0.000000
vn 1.000000 0.000000 0.000000
vn 0.000000 0.000000 -1.000000
vn 0.000000 0.000000 -1.000000
vn 0.000000 0.000000 -1.000000
vn 0.000000 0.000000 -1.000000
vn 0.000000 0.000000 -1.000000
vn 0.000000 0.000000 -1.000000
vn 0.000000 1.000000 0.000000
vn 0.000000 1.000000 0.000000
vn 0.000000 1.000000 0.000000
vn 0.000000 1.000000 0.000000
vn 0.000000 1.000000 0.000000
vn 0.000000 1.000000 0.000000
vn 0.000000 -1.000000 0.000000
vn 0.000000 -1.000000 0.000000
vn 0.000000 -1.000000 0.000000
vn 0.000000 -1.000000 0.000000
vn 0.000000 -1.000000 0.000000
vn 0.000000 -1.000000 0.000000
vn 0.000000 0.000000 1.000000
vn 0.000000 0.000000 1.000000
vn 0.000000 0.000000 1.000000
vn 0.000000 0.000000 1.000000
vn 0.000000 0.000000 1.000000
vn 0.000000 0.000000 1.000000
vn 1.000000 0.000000 0.000000
vn 1.000000 0.000000 0.000000
vn 1.000000 0.000000 0.000000
vn 1.000000 0.000000 0.000000
vn 1.000000 0.000000 0.000000
vn 1.000000 0.000000 0.000000
vn -1.000000 0.000000 0.000000
vn -1.000000 0.000000 0.000000
vn -1.000000 0.000000 0.000000
vn -1.000000 0.000000 0.000000
vn -1.000000 0.000000 0.000000
vn -1.000000 0.000000 0.000000
vn 0.000000 0.962991 0.269534
vn 0.000000 0.962991 0.269534
vn 0.000000 0.962991 0.269534
vn 0.000000 0.962991 0.269534
vn 0.000000 0.962991 0.269534
vn 0.000000 0.962991 0.269534
vn 0.000000 -1.000000 0.000000
vn 0.000000 -1.000000 0.000000
vn 0.000000 -1.000000 0.000000
vn 0.000000 -1.000000 0.000000
vn 0.000000 -1.000000 0.000000
vn 0.000000 -1.000000 0.000000
vn 0.000000 0.000000 1.000000
vn 0.000000 0.000000 1.000000
vn 0.000000 0.000000 1.000000
vn 0.000000 0.000000 1.000000
vn 0.000000 0.000000 1.000000
vn 0.000000 0.000000 1.000000
vn 0.000000 0.000000 -1.000000
vn 0.000000 0.000000 -1.000000
vn 0.000000 0.000000 -1.000000
vn 0.000000 0.000000 -1.000000
vn 0.000000 0.000000 -1.000000
vn 0.000000 0.000000 -1.000000
vn -1.000000 0.000000 0.000000
vn -1.000000 0.000000 0.000000
vn -1.000000 0.000000 0.000000
vn -1.000000 0.000000 0.000000
vn -1.000000 0.000000 0.000000
vn -1.000000 0.000000 0.000000
vn 0.000000 1.000000 0.000000
vn 0.000000 1.000000 0.000000
vn 0.000000 1.000000 0.000000
vn 0.000000 1.000000 0.000000
vn 0.000000 1.000000 0.000000
vn 0.000000 1.000000 0.000000
vn 0.000000 -1.000000 0.000000
vn 0.000000 -1.000000 0.000000
vn 0.000000 -1.000000 0.000000
vn 0.000000 -1.000000 0.000000
vn 0.000000 -1.000000 0.000000
vn 0.000000 -1.000000 0.000000
vn 0.000000 0.000000 1.000000
vn 0.000000 0.000000 1.000000
vn 0.000000 0.000000 1.000000
vn 0.000000 0.000000 1.000000
vn 0.000000 0.000000 1.000000
vn 0.000000 0.000000 1.000000
vn 1.000000 0.000000 0.000000
vn 1.000000 0.000000 0.000000
vn 1.000000 0.000000 0.000000
vn 1.000000 0.000000 0.000000
vn 1.000000 0.000000 0.000000
vn 1.000000 0.000000 0.000000
vn -1.000000 0.000000 0.000000
vn -1.000000 0.000000 0.000000
vn -1.000000 0.000000 0.000000
vn -1.000000 0.000000 0.000000
vn -1.000000 0.000000 0.000000
vn -1.000000 0.000000 0.000000
vn 0.000000 0.962991 0.269534
vn 0.000000 0.962991 0.269534
vn 0.000000 0.962991 0.269534
vn 0.000000 0.962991 0.269534
vn 0.000000 0.962991 0.269534
vn 0.000000 0.962991 0.269534
vn 0.000000 -1.000000 0.000000
vn 0.000000 -1.000000 0.000000
vn 0.000000 -1.000000 0.000000
vn 0.000000 -1.000000 0.000000
vn 0.000000 -1.000000 0.000000
vn 0.000000 -1.000000 0.000000

# texture coords: 174
vt 0.039846 0.468031
vt 0.039846 0.449576
vt 0.955629 0.468031
vt 0.039846 0.449576
vt 0.955629 0.449576
vt 0.955629 0.468031
vt 0.232062 0.413413
vt 0.232062 0.401984
vt 0.169562 0.413413
vt 0.232062 0.401984
vt 0.169562 0.401984
vt 0.169562 0.413413
vt 0.169766 0.387638
vt 0.169766 0.399067
vt 0.232266 0.387638
vt 0.169766 0.399067
vt 0.232266 0.399067
vt 0.232266 0.387638
vt 0.040826 0.613694
vt 0.040826 0.512773
vt 0.956606 0.613694
vt 0.040826 0.512773
vt 0.956606 0.512773
vt 0.956606 0.613694
vt 0.040360 0.990780
vt 0.040360 0.889860
vt 0.956142 0.990780
vt 0.040360 0.889860
vt 0.956142 0.889860
vt 0.956142 0.990780
vt 0.039846 0.502816
vt 0.039846 0.449576
vt 0.955629 0.502816
vt 0.039846 0.449576
vt 0.955629 0.449576
vt 0.955629 0.502816
vt 0.039867 0.780020
vt 0.039867 0.726781
vt 0.955651 0.780020
vt 0.039867 0.726781
vt 0.955651 0.726781
vt 0.955651 0.780020
vt 0.040826 0.719008
vt 0.040826 0.613694
vt 0.956606 0.719008
vt 0.040826 0.613694
vt 0.956606 0.613694
vt 0.956606 0.719008
vt 0.040360 0.889860
vt 0.040360 0.784546
vt 0.956142 0.889860
vt 0.040360 0.784546
vt 0.956142 0.784546
vt 0.956142 0.889860
vt 0.955629 0.502816
vt 0.955629 0.449576
vt 0.991209 0.502816
vt 0.955629 0.449576
vt 0.991209 0.449576
vt 0.991209 0.502816
vt 0.087295 0.440640
vt 0.087295 0.400925
vt 0.165857 0.440640
vt 0.087295 0.400925
vt 0.165857 0.400925
vt 0.165857 0.440640
vt 0.004286 0.780020
vt 0.004286 0.726781
vt 0.039867 0.780020
vt 0.004286 0.726781
vt 0.039867 0.726781
vt 0.039867 0.780020
vt 0.956606 0.719008
vt 0.956606 0.613694
vt 0.992186 0.719008
vt 0.956606 0.613694
vt 0.992186 0.613694
vt 0.992186 0.719008
vt 0.956142 0.889860
vt 0.956142 0.784546
vt 0.991722 0.889860
vt 0.956142 0.784546
vt 0.991722 0.784546
vt 0.991722 0.889860
vt 0.955629 0.474569
vt 0.955629 0.449576
vt 0.991209 0.474569
vt 0.955629 0.449576
vt 0.991209 0.449576
vt 0.991209 0.474569
vt 0.012011 0.419569
vt 0.012011 0.400925
vt 0.087295 0.440640
vt 0.012011 0.400925
vt 0.087295 0.400925
vt 0.087295 0.440640
vt 0.169562 0.434955
vt 0.169562 0.401984
vt 0.232062 0.417462
vt 0.169562 0.401984
vt 0.232062 0.401984
vt 0.232062 0.417462
vt 0.956606 0.613694
vt 0.956606 0.512773
vt 0.992186 0.613694
vt 0.956606 0.512773
vt 0.992186 0.512773
vt 0.992186 0.613694
vt 0.956142 0.990780
vt 0.956142 0.889860
vt 0.991722 0.990780
vt 0.956142 0.889860
vt 0.991722 0.889860
vt 0.991722 0.990780
vt 0.004255 0.502816
vt 0.004255 0.449576
vt 0.039846 0.502816
vt 0.004255 0.449576
vt 0.039846 0.449576
vt 0.039846 0.502816
vt 0.955651 0.780020
vt 0.955651 0.726781
vt 0.991241 0.780020
vt 0.955651 0.726781
vt 0.991241 0.726781
vt 0.991241 0.780020
vt 0.165626 0.358253
vt 0.165626 0.397968
vt 0.087064 0.358253
vt 0.165626 0.397968
vt 0.087064 0.397968
vt 0.087064 0.358253
vt 0.005236 0.719008
vt 0.005236 0.613694
vt 0.040826 0.719008
vt 0.005236 0.613694
vt 0.040826 0.613694
vt 0.040826 0.719008
vt 0.004769 0.889860
vt 0.004769 0.784546
vt 0.040360 0.889860
vt 0.004769 0.784546
vt 0.040360 0.784546
vt 0.040360 0.889860
vt 0.004255 0.474569
vt 0.004255 0.449576
vt 0.039846 0.474569
vt 0.004255 0.449576
vt 0.039846 0.449576
vt 0.039846 0.474569
vt 0.232266 0.383589
vt 0.232266 0.399067
vt 0.169766 0.366096
vt 0.232266 0.399067
vt 0.169766 0.399067
vt 0.169766 0.366096
vt 0.087064 0.358253
vt 0.087064 0.397968
vt 0.011780 0.379324
vt 0.087064 0.397968
vt 0.011780 0.397968
vt 0.011780 0.379324
vt 0.005236 0.613694
vt 0.005236 0.512773
vt 0.040826 0.613694
vt 0.005236 0.512773
vt 0.040826 0.512773
vt 0.040826 0.613694
vt 0.004769 0.990780
vt 0.004769 0.889860
vt 0.040360 0.990780
vt 0.004769 0.889860
vt 0.040360 0.889860
vt 0.040360 0.990780

# polygons: 58

f 1/1/1 2/2/2 3/3/3
f 2/4/4 4/5/5 3/6/6
f 3/7/7 4/8/8 5/9/9
f 4/10/10 6/11/11 5/12/12
f 7/13/13 8/14/14 1/15/15
f 8/16/16 2/17/17 1/18/18
f 7/19/19 1/20/20 5/21/21
f 1/22/22 3/23/23 5/24/24
f 2/25/25 8/26/26 4/27/27
f 8/28/28 6/29/29 4/30/30
f 9/31/31 10/32/32 11/33/33
f 10/34/34 12/35/35 11/36/36
f 13/37/37 14/38/38 15/39/39
f 14/40/40 16/41/41 15/42/42
f 15/43/43 9/44/44 13/45/45
f 9/46/46 11/47/47 13/48/48
f 10/49/49 16/50/50 12/51/51
f 16/52/52 14/53/53 12/54/54
f 17/55/55 18/56/56 19/57/57
f 18/58/58 20/59/59 19/60/60
f 19/61/61 20/62/62 21/63/63
f 20/64/64 22/65/65 21/66/66
f 21/67/67 22/68/68 23/69/69
f 22/70/70 24/71/71 23/72/72
f 23/73/73 17/74/74 21/75/75
f 17/76/76 19/77/77 21/78/78
f 18/79/79 24/80/80 20/81/81
f 24/82/82 22/83/83 20/84/84
f 25/85/85 26/86/86 27/87/87
f 26/88/88 28/89/89 27/90/90
f 27/91/91 28/92/92 29/93/93
f 28/94/94 30/95/95 29/96/96
f 31/97/97 32/98/98 25/99/99
f 32/100/100 26/101/101 25/102/102
f 31/103/103 25/104/104 29/105/105
f 25/106/106 27/107/107 29/108/108
f 26/109/109 32/110/110 28/111/111
f 32/112/112 30/113/113 28/114/114
f 33/115/115 34/116/116 35/117/117
f 34/118/118 36/119/119 35/120/120
f 37/121/121 38/122/122 39/123/123
f 38/124/124 40/125/125 39/126/126
f 39/127/127 40/128/128 33/129/129
f 40/130/130 34/131/131 33/132/132
f 39/133/133 33/134/134 37/135/135
f 33/136/136 35/137/137 37/138/138
f 34/139/139 40/140/140 36/141/141
f 40/142/142 38/143/143 36/144/144
f 41/145/145 42/146/146 43/147/147
f 42/148/148 44/149/149 43/150/150
f 43/151/151 44/152/152 45/153/153
f 44/154/154 46/155/155 45/156/156
f 47/157/157 48/158/158 41/159/159
f 48/160/160 42/161/161 41/162/162
f 47/163/163 41/164/164 45/165/165
f 41/166/166 43/167/167 45/168/168
f 42/169/169 48/170/170 44/171/171
f 48/172/172 46/173/173 44/174/174

# object end 'Converted object 0'
