# Blender 4.3.0
# www.blender.org
o PianoKeyA#
v 2.364993 1.283986 3.302249
v 2.327770 0.000000 3.545250
v 3.035007 1.283986 3.302249
v 3.072230 0.000000 3.545250
v 3.035007 1.283986 -0.000000
v 3.072230 0.000000 0.000000
v 2.364993 1.283986 -0.000000
v 2.327770 0.000000 0.000000
v 2.480202 1.532298 2.800515
v 2.364993 1.283986 3.302249
v 2.919798 1.532298 2.800515
v 3.035007 1.283986 3.302249
v 2.919798 1.532298 -0.000000
v 3.035007 1.283986 -0.000000
v 2.480202 1.532298 -0.000000
v 2.364993 1.283986 -0.000000
vn -0.0000 0.1860 0.9826
vn 0.9996 0.0290 -0.0000
vn -0.0000 -0.0000 -1.0000
vn -0.9996 0.0290 -0.0000
vn -0.0000 -1.0000 -0.0000
vn -0.0000 0.9885 0.1514
vn -0.0000 0.8962 0.4436
vn -0.0000 0.9531 0.3028
vn 0.9071 0.4209 -0.0000
vn -0.9071 0.4209 -0.0000
vn -0.0000 1.0000 -0.0000
vt 0.568728 0.054613
vt 0.567463 0.008600
vt 0.591505 0.054613
vt 0.592770 0.008600
vt 0.607919 0.054920
vt 0.653016 0.051743
vt 0.607919 0.252218
vt 0.653016 0.252218
vt 0.677021 0.200747
vt 0.675839 0.157761
vt 0.698299 0.200747
vt 0.699481 0.157761
vt 0.552518 0.252034
vt 0.507422 0.252034
vt 0.552518 0.054736
vt 0.507422 0.051559
vt 0.716548 0.253182
vt 0.716548 0.005682
vt 0.747169 0.253182
vt 0.747169 0.005682
vt 0.572640 0.075571
vt 0.568740 0.054750
vt 0.587522 0.075571
vt 0.591422 0.054750
vt 0.588104 0.075214
vt 0.588104 0.252218
vt 0.680680 0.219635
vt 0.694640 0.219635
vt 0.572334 0.252034
vt 0.572334 0.075030
vt 0.572640 0.252218
vt 0.587522 0.252218
s 1
f 1/1/1 2/2/1 3/3/1
f 2/2/1 4/4/1 3/3/1
f 3/5/2 4/6/2 5/7/2
f 4/6/2 6/8/2 5/7/2
f 5/9/3 6/10/3 7/11/3
f 6/10/3 8/12/3 7/11/3
f 7/13/4 8/14/4 1/15/4
f 8/14/4 2/16/4 1/15/4
f 2/17/5 8/18/5 4/19/5
f 8/18/5 6/20/5 4/19/5
f 9/21/6 10/22/7 11/23/8
f 10/22/7 12/24/7 11/23/8
f 11/25/9 12/5/9 13/26/9
f 12/5/9 14/7/9 13/26/9
f 13/27/3 14/9/3 15/28/3
f 14/9/3 16/11/3 15/28/3
f 15/29/10 16/13/10 9/30/10
f 16/13/10 10/15/10 9/30/10
f 15/31/11 9/21/6 13/32/11
f 9/21/6 11/23/8 13/32/11
