<?xml version="1.0" encoding="UTF-8" standalone="no"?>
<svg xmlns:dc="http://purl.org/dc/elements/1.1/" xmlns:cc="http://creativecommons.org/ns#"
    xmlns:rdf="http://www.w3.org/1999/02/22-rdf-syntax-ns#" xmlns="http://www.w3.org/2000/svg"
    xmlns:sodipodi="http://sodipodi.sourceforge.net/DTD/sodipodi-0.dtd"
    xmlns:inkscape="http://www.inkscape.org/namespaces/inkscape" width="114.86254mm" height="35.179512mm"
    viewBox="0 0 114.86254 35.179512" version="1.1" id="svg8" inkscape:version="1.0.1 (3bc2e813f5, 2020-09-07)"
    sodipodi:docname="svg.svg">
  <defs id="defs2" />
  <sodipodi:namedview id="base" pagecolor="#ffffff" bordercolor="#666666" borderopacity="1.0" inkscape:pageopacity="0.0"
      inkscape:pageshadow="2" inkscape:zoom="2.383601" inkscape:cx="209.28516" inkscape:cy="78.728336"
      inkscape:document-units="mm" inkscape:current-layer="layer1" inkscape:document-rotation="0" showgrid="false"
      fit-margin-top="5" fit-margin-left="5" fit-margin-right="5" fit-margin-bottom="5" inkscape:window-width="1920"
      inkscape:window-height="1009" inkscape:window-x="1912" inkscape:window-y="-8" inkscape:window-maximized="1" />
  <metadata id="metadata5">
    <rdf:RDF>
      <cc:Work rdf:about="">
        <dc:format>image/svg+xml</dc:format>
        <dc:type rdf:resource="http://purl.org/dc/dcmitype/StillImage" />
        <dc:title></dc:title>
      </cc:Work>
    </rdf:RDF>
  </metadata>
  <g inkscape:label="Layer 1" inkscape:groupmode="layer" id="layer1" transform="translate(-41.239783,-86.730808)">
    <path style="fill:#000000;stroke-width:0.0328172"
        d="m 51.671041,116.76934 -0.459443,-0.13746 -0.345398,-0.28251 -0.345398,-0.28253 -0.223829,-0.46281 c -0.20245,-0.41863 -0.228129,-0.49497 -0.268886,-0.79951 -0.02479,-0.18518 -0.04553,-0.38743 -0.0461,-0.44944 -6.64e-4,-0.0677 -0.02819,-0.14166 -0.06916,-0.18526 -0.03746,-0.0399 -0.09406,-0.15635 -0.125759,-0.2588 -0.05169,-0.16704 -0.05307,-0.21049 -0.01342,-0.4202 0.0448,-0.23692 0.121467,-0.40127 0.172481,-0.36974 0.01537,0.009 0.03587,-0.004 0.04557,-0.0286 0.0097,-0.0252 0.06306,-0.056 0.11857,-0.0681 0.05552,-0.0122 0.118598,-0.0542 0.140173,-0.0934 0.02158,-0.0391 0.09422,-0.29292 0.161424,-0.56394 0.09083,-0.36631 0.120701,-0.55225 0.116381,-0.72451 -0.0052,-0.20579 0.0041,-0.24468 0.08244,-0.34746 0.0699,-0.0916 0.129603,-0.28658 0.287151,-0.93754 0.109394,-0.45199 0.198897,-0.83074 0.198897,-0.84165 0,-0.0109 -0.02097,-0.0198 -0.04661,-0.0198 -0.04752,0 -0.103522,-0.17265 -0.07236,-0.22307 0.0094,-0.0152 0.02655,-0.11477 0.03804,-0.22113 0.01148,-0.10635 0.03937,-0.23083 0.06194,-0.27661 0.02259,-0.0458 0.05968,-0.2309 0.08243,-0.41139 0.04882,-0.38733 0.09345,-0.53477 0.169123,-0.55879 0.04152,-0.0132 0.06087,-0.0727 0.07733,-0.23806 0.01208,-0.12128 0.04335,-0.29686 0.06952,-0.3902 0.04101,-0.14635 0.06112,-0.1727 0.145877,-0.19132 0.07142,-0.0157 0.103694,-0.0456 0.117981,-0.10923 0.01082,-0.0481 0.03222,-0.13932 0.04758,-0.20249 0.683927,-3.04097 1.527972,-6.3082 2.121251,-8.827018 0.188579,-0.8016 0.193492,-1.02351 0.0313,-1.41461 -0.09628,-0.23219 -0.133514,-0.2809 -0.386521,-0.5057 -0.182246,-0.16193 -0.737238,-0.54735 -1.589941,-1.10416 -0.720483,-0.47048 -1.334494,-0.8602 -1.364472,-0.86607 -0.02998,-0.005 -0.08166,0.009 -0.114859,0.0336 -0.05278,0.0387 -0.06536,0.0353 -0.100217,-0.0271 -0.02193,-0.0392 -0.04038,-0.0532 -0.04103,-0.0312 -7.49e-4,0.0244 -0.06645,0.002 -0.167542,-0.0579 -0.163684,-0.0964 -0.16795,-0.0972 -0.263324,-0.0409 -0.07964,0.0471 -0.107056,0.0498 -0.153591,0.0159 -0.09561,-0.0697 -0.205008,-0.13306 -0.630945,-0.36537 -0.405298,-0.22106 -0.643324,-0.40307 -0.606024,-0.46343 0.01055,-0.0171 0.0012,-0.031 -0.02067,-0.031 -0.02192,0 -0.329222,-0.16053 -0.682896,-0.35673 -0.608339,-0.33747 -1.465203,-0.75907 -1.542752,-0.75907 -0.01957,0 -0.03557,-0.0118 -0.03557,-0.0263 0,-0.0144 0.126394,-0.0507 0.28088,-0.0805 0.206965,-0.0399 0.304117,-0.0453 0.369194,-0.0202 0.271997,0.10421 2.065173,0.40485 2.123929,0.35608 0.05548,-0.0461 0.115949,-0.0193 0.69977,0.30876 0.276707,0.15551 0.513239,0.28275 0.525633,0.28275 0.0496,0 0.14185,0.14455 0.158763,0.24877 0.01321,0.0814 0.04769,0.1282 0.130524,0.17707 0.06191,0.0365 0.139453,0.0664 0.172309,0.0664 0.08128,0 0.132874,0.0697 0.155689,0.21031 l 0.01911,0.1177 c 0.948669,0.48254 1.897338,0.96509 2.846008,1.44762 l 0.353052,0.31284 0.353052,0.31282 0.199649,0.43248 0.19965,0.43247 0.02159,0.45012 c 0.01901,0.39645 0.01185,0.50397 -0.06007,0.90201 -0.04491,0.24854 -0.09615,0.51096 -0.113865,0.58317 -0.0177,0.0722 -0.04038,0.18295 -0.05037,0.24613 -0.01001,0.0631 -0.03101,0.19607 -0.0467,0.29535 -0.01569,0.0993 -0.09131,0.52594 -0.16803,0.94814 -0.105593,0.581068 -0.130853,0.781498 -0.103934,0.824588 0.01955,0.0314 0.04538,0.10926 0.05737,0.17318 0.01697,0.0905 0.04473,0.12529 0.125309,0.15714 0.131462,0.052 0.308771,0.23271 0.336449,0.34299 0.101841,0.40576 -0.262416,0.75407 -0.468171,0.44768 -0.112439,-0.16744 -0.130858,-0.37001 -0.04873,-0.536 0.06369,-0.12873 0.06443,-0.13999 0.01186,-0.18037 -0.11898,-0.0914 -0.147866,-0.0421 -0.223975,0.38246 -0.04045,0.22557 -0.0913,0.50757 -0.113009,0.62662 -0.03347,0.18351 -0.0316,0.24099 0.01226,0.3774 0.02846,0.0885 0.05624,0.19784 0.06174,0.24297 0.0055,0.0452 0.02466,0.0747 0.04259,0.0656 0.01792,-0.009 0.02854,-0.0341 0.02357,-0.0557 -0.01302,-0.0567 0.122545,-0.12329 0.16484,-0.0809 0.02114,0.0212 0.06208,0.0226 0.111186,0.004 0.06369,-0.0242 0.09849,-0.0113 0.192738,0.0714 0.06325,0.0555 0.115011,0.11509 0.115011,0.13232 0,0.0173 -0.01121,0.0244 -0.02491,0.0159 -0.0137,-0.008 -0.05378,0.0439 -0.08907,0.11652 -0.115154,0.23675 -0.405502,0.36345 -0.544535,0.23763 -0.05171,-0.0468 -0.06376,-0.0439 -0.140567,0.0328 -0.04619,0.0462 -0.09944,0.0841 -0.11831,0.0841 -0.06109,0 -0.03633,0.095 0.03466,0.13304 0.05824,0.0312 0.08347,0.023 0.162077,-0.0522 0.06142,-0.0588 0.130288,-0.0899 0.202392,-0.0914 0.17344,-0.004 0.222905,0.0289 0.222905,0.14591 0,0.0799 -0.03097,0.13312 -0.131268,0.22571 -0.0722,0.0667 -0.131271,0.1516 -0.131271,0.18877 0,0.14097 -0.245626,0.50121 -0.340851,0.4999 -0.02011,-2.8e-4 -0.05833,-0.0143 -0.08493,-0.0311 -0.07391,-0.0468 -0.161358,0.0695 -0.198115,0.26329 -0.01744,0.0919 -0.04028,0.18106 -0.05076,0.19801 -0.01128,0.0183 0.0556,0.0265 0.164137,0.0201 0.160646,-0.009 0.198754,-0.0258 0.309766,-0.1343 0.154049,-0.15042 0.32954,-0.19988 0.482479,-0.13597 0.224581,0.0938 0.165597,0.37128 -0.115734,0.54438 -0.0981,0.0603 -0.167083,0.1292 -0.179652,0.17929 -0.01122,0.0447 -0.03859,0.0813 -0.0608,0.0813 -0.02548,0 -0.04154,0.0541 -0.0435,0.14638 -0.0017,0.0805 -0.0212,0.16816 -0.04329,0.19478 -0.05426,0.0654 -0.214793,0.0973 -0.289219,0.0574 -0.04742,-0.0253 -0.06108,-0.0205 -0.06304,0.0225 -0.0013,0.0301 -0.03405,0.21727 -0.07259,0.41582 -0.226869,1.16863 -0.803333,4.19344 -0.825556,4.33188 -0.01449,0.0902 -0.04209,0.22315 -0.06135,0.29536 -0.01925,0.0722 -0.03536,0.19217 -0.03579,0.26661 -3.72e-4,0.0745 -0.02338,0.19938 -0.05098,0.27764 -0.04937,0.13992 -0.104123,0.43117 -0.196904,1.04738 -0.02582,0.17147 -0.06881,0.38234 -0.09554,0.4686 -0.02673,0.0863 -0.05872,0.26846 -0.07107,0.40487 -0.0128,0.14125 -0.03917,0.25446 -0.06126,0.26292 -0.02133,0.008 -0.08029,-8.2e-4 -0.131035,-0.0201 -0.05074,-0.0193 -0.09621,-0.031 -0.101054,-0.0259 -0.0048,0.005 -0.04376,0.20111 -0.08649,0.43574 -0.104368,0.57321 -0.08393,0.73793 0.11272,0.90849 0.07664,0.0665 0.148281,0.11079 0.159196,0.0985 0.01092,-0.0124 0.238674,-0.91588 0.506132,-2.00787 0.476267,-1.94454 0.591399,-2.34059 1.051885,-3.61845 l 0.09178,-0.25468 -0.0734,-0.58918 -0.0734,-0.58917 0.239504,-0.55633 0.239503,-0.55632 0.492258,-0.18267 c 0.471502,-0.17496 0.52861,-0.18745 0.639939,-0.13991 0.0441,0.0188 0.393183,0.14036 0.47585,0.16567 0.01805,0.005 0.06974,0.0251 0.114859,0.0436 0.04513,0.0184 0.170652,0.0661 0.278949,0.10609 0.172974,0.0637 0.26337,0.13705 0.743893,0.60325 l 0.54699,0.53068 0.376603,0.68917 0.376598,0.68917 0.08774,0.45944 c 0.04825,0.25269 0.110575,0.59244 0.138484,0.75499 l 0.05076,0.29556 -0.151403,0.56356 c -0.08327,0.30996 -0.151398,0.58522 -0.151398,0.6117 0,0.0265 -0.07753,0.096 -0.17229,0.15467 -0.09476,0.0586 -0.295356,0.18657 -0.445769,0.28439 l -0.273476,0.17788 -0.284417,-0.0496 c -0.642132,-0.11199 -0.994451,-0.209 -1.089378,-0.29994 -0.125517,-0.12026 -0.206038,-0.0871 -0.300668,0.12374 -0.04169,0.0929 -0.430219,0.93223 -0.863407,1.8652 l -0.787614,1.69632 -0.311761,0.27047 c -0.171472,0.14875 -0.385604,0.31907 -0.475853,0.37847 -0.176366,0.1161 -0.747249,0.31223 -0.89466,0.30738 -0.04942,-0.002 -0.296606,-0.0648 -0.549297,-0.14041 z m 2.143675,-12.92163 c 0.08282,-0.10145 0.07183,-0.16036 -0.02993,-0.16036 -0.07271,0 -0.08246,0.0207 -0.108178,0.22972 -0.01528,0.12425 -0.01181,0.13787 0.02187,0.0858 0.02202,-0.0339 0.07433,-0.10385 0.116234,-0.15521 z"
        id="path845"
        sodipodi:nodetypes="scccsscssssssssssssssssssssssccsssssssssssssssssssssssssccccccsssssssssssssssssssssssssssssssssscssssssssscssscsscssssscsssssscccccsssssscccsscsssscsssscsssssssss" />
    <g aria-label="midis2jam2" id="text26"
        style="font-size:14.5406px;line-height:1.25;font-family:'Tw Cen MT Condensed Extra Bold';-inkscape-font-specification:'Tw Cen MT Condensed Extra Bold, ';fill:#000000;fill-opacity:1;stroke:#000000;stroke-width:0.364;stroke-linecap:butt;stroke-linejoin:miter;stroke-miterlimit:4;stroke-dasharray:none;stroke-opacity:1">
      <g id="g880" style="opacity:1">
        <path
            style="color:#000000;font-style:normal;font-variant:normal;font-weight:600;font-stretch:normal;font-size:medium;line-height:1.25;font-family:Poppins;-inkscape-font-specification:'Poppins Semi-Bold';font-variant-ligatures:normal;font-variant-position:normal;font-variant-caps:normal;font-variant-numeric:normal;font-variant-alternates:normal;font-variant-east-asian:normal;font-feature-settings:normal;font-variation-settings:normal;text-indent:0;text-align:start;text-decoration:none;text-decoration-line:none;text-decoration-style:solid;text-decoration-color:#000000;letter-spacing:normal;word-spacing:normal;text-transform:none;writing-mode:lr-tb;direction:ltr;text-orientation:mixed;dominant-baseline:auto;baseline-shift:baseline;text-anchor:start;white-space:normal;shape-padding:0;shape-margin:0;inline-size:0;clip-rule:nonzero;display:inline;overflow:visible;visibility:visible;isolation:auto;mix-blend-mode:normal;color-interpolation:sRGB;color-interpolation-filters:linearRGB;solid-color:#000000;solid-opacity:1;vector-effect:none;fill:#000000;fill-opacity:1;fill-rule:nonzero;stroke:none;stroke-width:0.364;stroke-linecap:butt;stroke-linejoin:miter;stroke-miterlimit:4;stroke-dasharray:none;stroke-dashoffset:0;stroke-opacity:1.0;color-rendering:auto;image-rendering:auto;shape-rendering:auto;text-rendering:auto;enable-background:accumulate;stop-color:#000000;stop-opacity:1;"
            d="m 75.498331,102.11778 c 0.988761,0 1.783647,0.30535 2.384658,0.91606 0.610705,0.60101 0.916058,1.44436 0.916058,2.53006 v 4.7257 h -2.035684 v -4.44943 c 0,-0.63009 -0.159947,-1.10993 -0.47984,-1.43952 -0.319893,-0.33928 -0.756111,-0.50892 -1.308654,-0.50892 -0.552543,0 -0.993608,0.16964 -1.323195,0.50892 -0.319893,0.32959 -0.479839,0.80943 -0.479839,1.43952 v 4.44943 h -2.035684 v -4.44943 c 0,-0.63009 -0.159947,-1.10993 -0.47984,-1.43952 -0.319893,-0.33928 -0.756111,-0.50892 -1.308654,-0.50892 -0.562237,0 -1.008148,0.16964 -1.337735,0.50892 -0.319893,0.32959 -0.47984,0.80943 -0.47984,1.43952 v 4.44943 h -2.035684 v -8.0555 h 2.035684 v 0.97422 c 0.261731,-0.33928 0.596164,-0.60586 1.003301,-0.79973 0.416831,-0.19387 0.872436,-0.29081 1.366817,-0.29081 0.630093,0 1.192329,0.13571 1.686709,0.40714 0.494381,0.26173 0.877283,0.63978 1.148708,1.13416 0.261731,-0.4653 0.639786,-0.83851 1.134166,-1.11962 0.504075,-0.28112 1.046924,-0.42168 1.628548,-0.42168 z"
            id="path882" />
        <path
            style="color:#000000;font-style:normal;font-variant:normal;font-weight:600;font-stretch:normal;font-size:medium;line-height:1.25;font-family:Poppins;-inkscape-font-specification:'Poppins Semi-Bold';font-variant-ligatures:normal;font-variant-position:normal;font-variant-caps:normal;font-variant-numeric:normal;font-variant-alternates:normal;font-variant-east-asian:normal;font-feature-settings:normal;font-variation-settings:normal;text-indent:0;text-align:start;text-decoration:none;text-decoration-line:none;text-decoration-style:solid;text-decoration-color:#000000;letter-spacing:normal;word-spacing:normal;text-transform:none;writing-mode:lr-tb;direction:ltr;text-orientation:mixed;dominant-baseline:auto;baseline-shift:baseline;text-anchor:start;white-space:normal;shape-padding:0;shape-margin:0;inline-size:0;clip-rule:nonzero;display:inline;overflow:visible;visibility:visible;isolation:auto;mix-blend-mode:normal;color-interpolation:sRGB;color-interpolation-filters:linearRGB;solid-color:#000000;solid-opacity:1;vector-effect:none;fill:#000000;fill-opacity:1;fill-rule:nonzero;stroke:none;stroke-width:0.364;stroke-linecap:butt;stroke-linejoin:miter;stroke-miterlimit:4;stroke-dasharray:none;stroke-dashoffset:0;stroke-opacity:1.0;color-rendering:auto;image-rendering:auto;shape-rendering:auto;text-rendering:auto;enable-background:accumulate;stop-color:#000000;stop-opacity:1;"
            d="M 69.900391 101.93555 C 69.382219 101.93555 68.89881 102.03866 68.457031 102.24414 L 68.455078 102.24414 C 68.155728 102.38669 67.940346 102.61886 67.712891 102.83789 L 67.712891 102.05273 L 65.3125 102.05273 L 65.3125 110.4707 L 67.712891 110.4707 L 67.712891 105.83984 C 67.712891 105.24055 67.861103 104.81534 68.140625 104.52734 C 68.434172 104.22516 68.822029 104.07422 69.347656 104.07422 C 69.862948 104.07422 70.239425 104.22417 70.523438 104.52539 L 70.525391 104.52734 C 70.804913 104.81534 70.955078 105.24055 70.955078 105.83984 L 70.955078 110.4707 L 73.353516 110.4707 L 73.353516 105.83984 C 73.353516 105.24055 73.503681 104.81534 73.783203 104.52734 C 74.077205 104.22539 74.460055 104.07422 74.974609 104.07422 C 75.489901 104.07422 75.866378 104.22417 76.150391 104.52539 L 76.152344 104.52734 C 76.431866 104.81534 76.582031 105.24055 76.582031 105.83984 L 76.582031 110.4707 L 78.980469 110.4707 L 78.980469 105.56445 C 78.980469 104.44463 78.659522 103.54373 78.009766 102.9043 C 77.374089 102.26013 76.522603 101.93555 75.498047 101.93555 C 74.8871 101.93555 74.311331 102.08524 73.78125 102.38086 L 73.779297 102.38086 C 73.327735 102.63763 73.004666 103.00666 72.734375 103.41406 C 72.457055 102.98677 72.128145 102.60628 71.673828 102.36523 C 71.150855 102.07811 70.556617 101.93555 69.900391 101.93555 z M 69.900391 102.29883 C 70.50435 102.29883 71.034213 102.42787 71.5 102.68359 L 71.5 102.68555 L 71.501953 102.68555 C 71.966627 102.93155 72.320661 103.2807 72.576172 103.74609 L 72.734375 104.0332 L 72.894531 103.74805 C 73.139934 103.31177 73.490115 102.96387 73.958984 102.69727 L 73.958984 102.69922 C 74.437053 102.4326 74.945745 102.29883 75.498047 102.29883 C 76.449337 102.29883 77.187894 102.58697 77.753906 103.16211 L 77.755859 103.16406 C 78.327514 103.72664 78.617188 104.51288 78.617188 105.56445 L 78.617188 110.10742 L 76.945312 110.10742 L 76.945312 105.83984 C 76.945312 105.17994 76.775174 104.6465 76.416016 104.27539 C 76.060241 103.89806 75.564403 103.70898 74.974609 103.70898 C 74.384815 103.70898 73.88649 103.8977 73.521484 104.27344 C 73.161221 104.64462 72.990234 105.17895 72.990234 105.83984 L 72.990234 110.10742 L 71.318359 110.10742 L 71.318359 105.83984 C 71.318359 105.17994 71.148221 104.6465 70.789062 104.27539 C 70.433288 103.89806 69.93745 103.70898 69.347656 103.70898 C 68.74881 103.70898 68.244533 103.89706 67.878906 104.27344 C 67.518642 104.64462 67.347656 105.17895 67.347656 105.83984 L 67.347656 110.10742 L 65.675781 110.10742 L 65.675781 102.41602 L 67.347656 102.41602 L 67.347656 103.74219 L 67.673828 103.32031 C 67.917364 103.00462 68.226993 102.75676 68.609375 102.57422 C 69.001258 102.39195 69.429801 102.29883 69.900391 102.29883 z "
            id="path884" />
      </g>
      <g id="g886" style="opacity:1">
        <path
            style="color:#000000;font-style:normal;font-variant:normal;font-weight:600;font-stretch:normal;font-size:medium;line-height:1.25;font-family:Poppins;-inkscape-font-specification:'Poppins Semi-Bold';font-variant-ligatures:normal;font-variant-position:normal;font-variant-caps:normal;font-variant-numeric:normal;font-variant-alternates:normal;font-variant-east-asian:normal;font-feature-settings:normal;font-variation-settings:normal;text-indent:0;text-align:start;text-decoration:none;text-decoration-line:none;text-decoration-style:solid;text-decoration-color:#000000;letter-spacing:normal;word-spacing:normal;text-transform:none;writing-mode:lr-tb;direction:ltr;text-orientation:mixed;dominant-baseline:auto;baseline-shift:baseline;text-anchor:start;white-space:normal;shape-padding:0;shape-margin:0;inline-size:0;clip-rule:nonzero;display:inline;overflow:visible;visibility:visible;isolation:auto;mix-blend-mode:normal;color-interpolation:sRGB;color-interpolation-filters:linearRGB;solid-color:#000000;solid-opacity:1;vector-effect:none;fill:#000000;fill-opacity:1;fill-rule:nonzero;stroke:none;stroke-width:0.364;stroke-linecap:butt;stroke-linejoin:miter;stroke-miterlimit:4;stroke-dasharray:none;stroke-dashoffset:0;stroke-opacity:1.0;color-rendering:auto;image-rendering:auto;shape-rendering:auto;text-rendering:auto;enable-background:accumulate;stop-color:#000000;stop-opacity:1;"
            d="m 81.765306,101.27442 c -0.358668,0 -0.659174,-0.11148 -0.901517,-0.33443 -0.23265,-0.23265 -0.348975,-0.51861 -0.348975,-0.85789 0,-0.339284 0.116325,-0.620404 0.348975,-0.843359 0.242343,-0.23265 0.542849,-0.348975 0.901517,-0.348975 0.358668,0 0.654327,0.116325 0.886976,0.348975 0.242343,0.222955 0.363515,0.504075 0.363515,0.843359 0,0.33928 -0.121172,0.62524 -0.363515,0.85789 -0.232649,0.22295 -0.528308,0.33443 -0.886976,0.33443 z m 1.003301,0.95968 v 8.0555 h -2.035684 v -8.0555 z"
            id="path888" />
        <path
            style="color:#000000;font-style:normal;font-variant:normal;font-weight:600;font-stretch:normal;font-size:medium;line-height:1.25;font-family:Poppins;-inkscape-font-specification:'Poppins Semi-Bold';font-variant-ligatures:normal;font-variant-position:normal;font-variant-caps:normal;font-variant-numeric:normal;font-variant-alternates:normal;font-variant-east-asian:normal;font-feature-settings:normal;font-variation-settings:normal;text-indent:0;text-align:start;text-decoration:none;text-decoration-line:none;text-decoration-style:solid;text-decoration-color:#000000;letter-spacing:normal;word-spacing:normal;text-transform:none;writing-mode:lr-tb;direction:ltr;text-orientation:mixed;dominant-baseline:auto;baseline-shift:baseline;text-anchor:start;white-space:normal;shape-padding:0;shape-margin:0;inline-size:0;clip-rule:nonzero;display:inline;overflow:visible;visibility:visible;isolation:auto;mix-blend-mode:normal;color-interpolation:sRGB;color-interpolation-filters:linearRGB;solid-color:#000000;solid-opacity:1;vector-effect:none;fill:#000000;fill-opacity:1;fill-rule:nonzero;stroke:none;stroke-width:0.364;stroke-linecap:butt;stroke-linejoin:miter;stroke-miterlimit:4;stroke-dasharray:none;stroke-dashoffset:0;stroke-opacity:1.0;color-rendering:auto;image-rendering:auto;shape-rendering:auto;text-rendering:auto;enable-background:accumulate;stop-color:#000000;stop-opacity:1;"
            d="M 81.765625 98.707031 C 81.367606 98.707031 81.012983 98.843708 80.738281 99.107422 C 80.472334 99.362287 80.332031 99.701148 80.332031 100.08203 C 80.332031 100.46291 80.470445 100.80443 80.734375 101.06836 L 80.738281 101.07227 L 80.740234 101.07422 C 81.015502 101.32746 81.369246 101.45703 81.765625 101.45703 C 82.162004 101.45703 82.510962 101.32755 82.777344 101.07227 L 82.779297 101.07031 C 83.053526 100.80706 83.197266 100.46464 83.197266 100.08203 C 83.197266 99.700059 83.050683 99.361384 82.775391 99.107422 C 82.510208 98.844655 82.161398 98.707031 81.765625 98.707031 z M 81.765625 99.072266 C 82.084942 99.072266 82.323855 99.167605 82.523438 99.367188 L 82.525391 99.369141 L 82.529297 99.373047 C 82.737787 99.564858 82.833984 99.78608 82.833984 100.08203 C 82.833984 100.37798 82.735849 100.60656 82.525391 100.80859 C 82.326474 100.99922 82.086582 101.0918 81.765625 101.0918 C 81.447056 101.0918 81.200619 100.99836 80.992188 100.80859 C 80.791774 100.60756 80.697266 100.37903 80.697266 100.08203 C 80.697266 99.784347 80.790881 99.56214 80.990234 99.371094 L 80.990234 99.369141 C 81.200219 99.167555 81.446308 99.072266 81.765625 99.072266 z M 80.550781 102.05273 L 80.550781 110.4707 L 82.951172 110.4707 L 82.951172 102.05273 L 82.769531 102.05273 L 80.550781 102.05273 z M 80.914062 102.41602 L 82.585938 102.41602 L 82.585938 110.10742 L 80.914062 110.10742 L 80.914062 102.41602 z "
            id="path890" />
      </g>
      <g id="g892" style="opacity:1">
        <path
            style="color:#000000;font-style:normal;font-variant:normal;font-weight:600;font-stretch:normal;font-size:medium;line-height:1.25;font-family:Poppins;-inkscape-font-specification:'Poppins Semi-Bold';font-variant-ligatures:normal;font-variant-position:normal;font-variant-caps:normal;font-variant-numeric:normal;font-variant-alternates:normal;font-variant-east-asian:normal;font-feature-settings:normal;font-variation-settings:normal;text-indent:0;text-align:start;text-decoration:none;text-decoration-line:none;text-decoration-style:solid;text-decoration-color:#000000;letter-spacing:normal;word-spacing:normal;text-transform:none;writing-mode:lr-tb;direction:ltr;text-orientation:mixed;dominant-baseline:auto;baseline-shift:baseline;text-anchor:start;white-space:normal;shape-padding:0;shape-margin:0;inline-size:0;clip-rule:nonzero;display:inline;overflow:visible;visibility:visible;isolation:auto;mix-blend-mode:normal;color-interpolation:sRGB;color-interpolation-filters:linearRGB;solid-color:#000000;solid-opacity:1;vector-effect:none;fill:#000000;fill-opacity:1;fill-rule:nonzero;stroke:none;stroke-width:0.364;stroke-linecap:butt;stroke-linejoin:miter;stroke-miterlimit:4;stroke-dasharray:none;stroke-dashoffset:0;stroke-opacity:1.0;color-rendering:auto;image-rendering:auto;shape-rendering:auto;text-rendering:auto;enable-background:accumulate;stop-color:#000000;stop-opacity:1;"
            d="m 84.251748,106.23277 c 0,-0.81427 0.159946,-1.53646 0.479839,-2.16655 0.329587,-0.63009 0.775499,-1.11478 1.337736,-1.45406 0.562236,-0.33928 1.187482,-0.50892 1.875737,-0.50892 0.523461,0 1.022689,0.11632 1.497682,0.34897 0.474993,0.22296 0.853048,0.52347 1.134167,0.90152 v -3.824177 h 2.064765 V 110.2896 h -2.064765 v -1.19233 c -0.252037,0.39744 -0.605859,0.71733 -1.061464,0.95968 -0.455605,0.24234 -0.983914,0.36351 -1.584926,0.36351 -0.678561,0 -1.29896,-0.17449 -1.861196,-0.52346 -0.562237,-0.34897 -1.008149,-0.83851 -1.337736,-1.4686 -0.319893,-0.63979 -0.479839,-1.37166 -0.479839,-2.19563 z m 6.339701,0.0291 c 0,-0.49438 -0.09694,-0.91606 -0.290812,-1.26503 -0.193875,-0.35867 -0.455605,-0.63009 -0.785192,-0.81428 -0.329587,-0.19387 -0.683409,-0.29081 -1.061464,-0.29081 -0.378055,0 -0.72703,0.0921 -1.046923,0.27627 -0.319893,0.18419 -0.581624,0.45561 -0.785193,0.81428 -0.193875,0.34897 -0.290812,0.7658 -0.290812,1.25049 0,0.48469 0.09694,0.91121 0.290812,1.27957 0.203569,0.35867 0.4653,0.63494 0.785193,0.82882 0.329587,0.19387 0.678561,0.29081 1.046923,0.29081 0.378055,0 0.731877,-0.0921 1.061464,-0.27627 0.329587,-0.19388 0.591317,-0.46531 0.785192,-0.81428 0.193875,-0.35867 0.290812,-0.78519 0.290812,-1.27957 z"
            id="path894" />
        <path
            style="color:#000000;font-style:normal;font-variant:normal;font-weight:600;font-stretch:normal;font-size:medium;line-height:1.25;font-family:Poppins;-inkscape-font-specification:'Poppins Semi-Bold';font-variant-ligatures:normal;font-variant-position:normal;font-variant-caps:normal;font-variant-numeric:normal;font-variant-alternates:normal;font-variant-east-asian:normal;font-feature-settings:normal;font-variation-settings:normal;text-indent:0;text-align:start;text-decoration:none;text-decoration-line:none;text-decoration-style:solid;text-decoration-color:#000000;letter-spacing:normal;word-spacing:normal;text-transform:none;writing-mode:lr-tb;direction:ltr;text-orientation:mixed;dominant-baseline:auto;baseline-shift:baseline;text-anchor:start;white-space:normal;shape-padding:0;shape-margin:0;inline-size:0;clip-rule:nonzero;display:inline;overflow:visible;visibility:visible;isolation:auto;mix-blend-mode:normal;color-interpolation:sRGB;color-interpolation-filters:linearRGB;solid-color:#000000;solid-opacity:1;vector-effect:none;fill:#000000;fill-opacity:1;fill-rule:nonzero;stroke:none;stroke-width:0.364;stroke-linecap:butt;stroke-linejoin:miter;stroke-miterlimit:4;stroke-dasharray:none;stroke-dashoffset:0;stroke-opacity:1.0;color-rendering:auto;image-rendering:auto;shape-rendering:auto;text-rendering:auto;enable-background:accumulate;stop-color:#000000;stop-opacity:1;"
            d="M 90.394531 99.347656 L 90.394531 102.98438 C 90.136439 102.72512 89.884046 102.45886 89.523438 102.28906 C 89.024726 102.0448 88.495736 101.92188 87.945312 101.92188 C 87.227151 101.92188 86.564973 102.10078 85.974609 102.45703 C 85.38317 102.81393 84.913382 103.32655 84.570312 103.98242 L 84.568359 103.98438 C 84.234141 104.64269 84.070312 105.39432 84.070312 106.23242 C 84.070312 107.07994 84.23449 107.84203 84.568359 108.50977 L 84.570312 108.51172 L 84.570312 108.51367 C 84.913204 109.1692 85.382258 109.68433 85.972656 110.05078 C 86.562766 110.41706 87.219926 110.60156 87.929688 110.60156 C 88.555162 110.60156 89.116663 110.47472 89.601562 110.2168 C 89.93839 110.03763 90.15962 109.76366 90.394531 109.5 L 90.394531 110.4707 L 92.824219 110.4707 L 92.824219 99.347656 L 90.394531 99.347656 z M 90.759766 99.710938 L 92.458984 99.710938 L 92.458984 110.10742 L 90.759766 110.10742 L 90.759766 108.4707 L 90.423828 109 C 90.189393 109.36968 89.861159 109.66698 89.429688 109.89648 C 89.003376 110.12324 88.506237 110.23828 87.929688 110.23828 C 87.282326 110.23828 86.700378 110.07386 86.166016 109.74219 C 85.633128 109.41143 85.210581 108.95034 84.894531 108.34766 L 84.894531 108.3457 C 84.894069 108.34482 84.89304 108.34463 84.892578 108.34375 C 84.58785 107.73276 84.433594 107.03127 84.433594 106.23242 C 84.433594 105.44198 84.588965 104.75031 84.894531 104.14844 C 85.210481 103.54544 85.631812 103.08876 86.164062 102.76758 C 86.698171 102.44527 87.286963 102.28516 87.945312 102.28516 C 88.441811 102.28516 88.912006 102.3942 89.363281 102.61523 L 89.363281 102.61719 L 89.365234 102.61719 C 89.816911 102.8292 90.169587 103.11048 90.431641 103.46289 L 90.759766 103.9043 L 90.759766 99.710938 z M 88.453125 103.70898 C 88.045514 103.70898 87.663167 103.81012 87.316406 104.00977 C 86.96671 104.21111 86.680059 104.50995 86.462891 104.89258 L 86.462891 104.89453 C 86.251644 105.27477 86.148438 105.72347 86.148438 106.23242 C 86.148438 106.74138 86.25174 107.20018 86.460938 107.59766 L 86.462891 107.59961 L 86.462891 107.60156 C 86.679711 107.98358 86.964698 108.2853 87.3125 108.49609 L 87.314453 108.49805 C 87.66958 108.70694 88.052833 108.81445 88.453125 108.81445 C 88.860736 108.81445 89.24806 108.71231 89.603516 108.51367 L 89.605469 108.51367 L 89.607422 108.51172 C 89.964699 108.30155 90.250796 108.00364 90.458984 107.62891 L 90.460938 107.62891 C 90.671446 107.23947 90.773438 106.77989 90.773438 106.26172 C 90.773438 105.74355 90.670578 105.28907 90.458984 104.9082 C 90.251368 104.52515 89.96377 104.22624 89.605469 104.02539 C 89.250125 103.81675 88.861647 103.70898 88.453125 103.70898 z M 88.453125 104.07422 C 88.800069 104.07422 89.120453 104.16139 89.423828 104.33984 L 89.425781 104.33984 L 89.425781 104.3418 C 89.724718 104.50886 89.961068 104.75181 90.140625 105.08398 L 90.140625 105.08594 C 90.31678 105.40302 90.410156 105.79113 90.410156 106.26172 C 90.410156 106.73231 90.317866 107.12718 90.140625 107.45508 C 89.961633 107.77677 89.726116 108.02003 89.425781 108.19727 C 89.122062 108.36699 88.801625 108.44922 88.453125 108.44922 C 88.116693 108.44922 87.804046 108.36244 87.5 108.18359 C 87.210985 108.00788 86.9724 107.75885 86.783203 107.42773 L 86.783203 107.42578 C 86.6052 107.08689 86.513672 106.69213 86.513672 106.23242 C 86.513672 105.772 86.604747 105.38802 86.78125 105.07031 C 86.970967 104.73698 87.20873 104.49275 87.498047 104.32617 C 87.791073 104.15746 88.104625 104.07422 88.453125 104.07422 z "
            id="path896" />
      </g>
      <g id="g898" style="opacity:1">
        <path
            style="color:#000000;font-style:normal;font-variant:normal;font-weight:600;font-stretch:normal;font-size:medium;line-height:1.25;font-family:Poppins;-inkscape-font-specification:'Poppins Semi-Bold';font-variant-ligatures:normal;font-variant-position:normal;font-variant-caps:normal;font-variant-numeric:normal;font-variant-alternates:normal;font-variant-east-asian:normal;font-feature-settings:normal;font-variation-settings:normal;text-indent:0;text-align:start;text-decoration:none;text-decoration-line:none;text-decoration-style:solid;text-decoration-color:#000000;letter-spacing:normal;word-spacing:normal;text-transform:none;writing-mode:lr-tb;direction:ltr;text-orientation:mixed;dominant-baseline:auto;baseline-shift:baseline;text-anchor:start;white-space:normal;shape-padding:0;shape-margin:0;inline-size:0;clip-rule:nonzero;display:inline;overflow:visible;visibility:visible;isolation:auto;mix-blend-mode:normal;color-interpolation:sRGB;color-interpolation-filters:linearRGB;solid-color:#000000;solid-opacity:1;vector-effect:none;fill:#000000;fill-opacity:1;fill-rule:nonzero;stroke:none;stroke-width:0.364;stroke-linecap:butt;stroke-linejoin:miter;stroke-miterlimit:4;stroke-dasharray:none;stroke-dashoffset:0;stroke-opacity:1.0;color-rendering:auto;image-rendering:auto;shape-rendering:auto;text-rendering:auto;enable-background:accumulate;stop-color:#000000;stop-opacity:1;"
            d="m 95.66611,101.27442 c -0.358668,0 -0.659174,-0.11148 -0.901517,-0.33443 -0.232649,-0.23265 -0.348974,-0.51861 -0.348974,-0.85789 0,-0.339284 0.116325,-0.620404 0.348974,-0.843359 0.242343,-0.23265 0.542849,-0.348975 0.901517,-0.348975 0.358669,0 0.654328,0.116325 0.886977,0.348975 0.242343,0.222955 0.363515,0.504075 0.363515,0.843359 0,0.33928 -0.121172,0.62524 -0.363515,0.85789 -0.232649,0.22295 -0.528308,0.33443 -0.886977,0.33443 z m 1.003302,0.95968 v 8.0555 h -2.035684 v -8.0555 z"
            id="path900" />
        <path
            style="color:#000000;font-style:normal;font-variant:normal;font-weight:600;font-stretch:normal;font-size:medium;line-height:1.25;font-family:Poppins;-inkscape-font-specification:'Poppins Semi-Bold';font-variant-ligatures:normal;font-variant-position:normal;font-variant-caps:normal;font-variant-numeric:normal;font-variant-alternates:normal;font-variant-east-asian:normal;font-feature-settings:normal;font-variation-settings:normal;text-indent:0;text-align:start;text-decoration:none;text-decoration-line:none;text-decoration-style:solid;text-decoration-color:#000000;letter-spacing:normal;word-spacing:normal;text-transform:none;writing-mode:lr-tb;direction:ltr;text-orientation:mixed;dominant-baseline:auto;baseline-shift:baseline;text-anchor:start;white-space:normal;shape-padding:0;shape-margin:0;inline-size:0;clip-rule:nonzero;display:inline;overflow:visible;visibility:visible;isolation:auto;mix-blend-mode:normal;color-interpolation:sRGB;color-interpolation-filters:linearRGB;solid-color:#000000;solid-opacity:1;vector-effect:none;fill:#000000;fill-opacity:1;fill-rule:nonzero;stroke:none;stroke-width:0.364;stroke-linecap:butt;stroke-linejoin:miter;stroke-miterlimit:4;stroke-dasharray:none;stroke-dashoffset:0;stroke-opacity:1.0;color-rendering:auto;image-rendering:auto;shape-rendering:auto;text-rendering:auto;enable-background:accumulate;stop-color:#000000;stop-opacity:1;"
            d="M 95.666016 98.707031 C 95.267996 98.707031 94.913374 98.843708 94.638672 99.107422 C 94.372726 99.362287 94.234375 99.701148 94.234375 100.08203 C 94.234375 100.46291 94.372789 100.80443 94.636719 101.06836 L 94.638672 101.07227 L 94.640625 101.07422 C 94.915892 101.32746 95.269636 101.45703 95.666016 101.45703 C 96.062396 101.45703 96.413306 101.32755 96.679688 101.07227 L 96.679688 101.07031 C 96.953916 100.80706 97.097656 100.46464 97.097656 100.08203 C 97.097656 99.700059 96.951074 99.361384 96.675781 99.107422 C 96.410598 98.844655 96.061789 98.707031 95.666016 98.707031 z M 95.666016 99.072266 C 95.985333 99.072266 96.224246 99.167605 96.423828 99.367188 L 96.427734 99.369141 L 96.429688 99.373047 C 96.638178 99.564858 96.734375 99.78608 96.734375 100.08203 C 96.734375 100.37798 96.638192 100.60656 96.427734 100.80859 C 96.228818 100.99922 95.986973 101.0918 95.666016 101.0918 C 95.34603 101.0918 95.099643 101.00008 94.890625 100.80859 C 94.690598 100.60769 94.597656 100.37875 94.597656 100.08203 C 94.597656 99.784347 94.691272 99.56214 94.890625 99.371094 L 94.890625 99.369141 C 95.10061 99.167555 95.346699 99.072266 95.666016 99.072266 z M 94.451172 102.05273 L 94.451172 110.4707 L 96.851562 110.4707 L 96.851562 102.05273 L 96.669922 102.05273 L 94.451172 102.05273 z M 94.816406 102.41602 L 96.488281 102.41602 L 96.488281 110.10742 L 94.816406 110.10742 L 94.816406 102.41602 z "
            id="path902" />
      </g>
      <g id="g904" style="opacity:1">
        <path
            style="color:#000000;font-style:normal;font-variant:normal;font-weight:600;font-stretch:normal;font-size:medium;line-height:1.25;font-family:Poppins;-inkscape-font-specification:'Poppins Semi-Bold';font-variant-ligatures:normal;font-variant-position:normal;font-variant-caps:normal;font-variant-numeric:normal;font-variant-alternates:normal;font-variant-east-asian:normal;font-feature-settings:normal;font-variation-settings:normal;text-indent:0;text-align:start;text-decoration:none;text-decoration-line:none;text-decoration-style:solid;text-decoration-color:#000000;letter-spacing:normal;word-spacing:normal;text-transform:none;writing-mode:lr-tb;direction:ltr;text-orientation:mixed;dominant-baseline:auto;baseline-shift:baseline;text-anchor:start;white-space:normal;shape-padding:0;shape-margin:0;inline-size:0;clip-rule:nonzero;display:inline;overflow:visible;visibility:visible;isolation:auto;mix-blend-mode:normal;color-interpolation:sRGB;color-interpolation-filters:linearRGB;solid-color:#000000;solid-opacity:1;vector-effect:none;fill:#000000;fill-opacity:1;fill-rule:nonzero;stroke:none;stroke-width:0.364;stroke-linecap:butt;stroke-linejoin:miter;stroke-miterlimit:4;stroke-dasharray:none;stroke-dashoffset:0;stroke-opacity:1.0;color-rendering:auto;image-rendering:auto;shape-rendering:auto;text-rendering:auto;enable-background:accumulate;stop-color:#000000;stop-opacity:1;"
            d="m 101.75862,110.42046 c -0.65917,0 -1.25049,-0.11632 -1.773954,-0.34897 -0.523462,-0.24235 -0.940293,-0.56709 -1.250492,-0.97422 -0.300505,-0.40714 -0.465299,-0.8579 -0.49438,-1.35228 h 2.050226 c 0.0388,0.3102 0.18905,0.56708 0.45076,0.77065 0.27142,0.20357 0.60585,0.30536 1.0033,0.30536 0.38775,0 0.68825,-0.0776 0.90152,-0.23265 0.22295,-0.1551 0.33443,-0.35382 0.33443,-0.59617 0,-0.26173 -0.13571,-0.4556 -0.40714,-0.58162 -0.26173,-0.13571 -0.6834,-0.28112 -1.26503,-0.43622 -0.60101,-0.14541 -1.09539,-0.29566 -1.483141,-0.45076 -0.378055,-0.1551 -0.707642,-0.3926 -0.988761,-0.71249 -0.271424,-0.31989 -0.407136,-0.75126 -0.407136,-1.29411 0,-0.44591 0.126018,-0.85305 0.378055,-1.22141 0.261731,-0.36836 0.630093,-0.65917 1.105086,-0.87244 0.484687,-0.21326 1.051767,-0.31989 1.701247,-0.31989 0.95968,0 1.72549,0.24234 2.29742,0.72703 0.57193,0.47499 0.88697,1.11963 0.94514,1.9339 h -1.94844 c -0.0291,-0.31989 -0.16478,-0.57193 -0.40714,-0.75611 -0.23265,-0.19387 -0.54769,-0.29081 -0.94514,-0.29081 -0.36836,0 -0.65432,0.0678 -0.85789,0.20356 -0.19388,0.13571 -0.29082,0.32474 -0.29082,0.56709 0,0.27142 0.13571,0.47983 0.40714,0.62524 0.27143,0.13571 0.6931,0.27627 1.26503,0.42168 0.58163,0.14541 1.06147,0.29566 1.43952,0.45076 0.37805,0.1551 0.70279,0.39744 0.97422,0.72703 0.28112,0.31989 0.42653,0.74642 0.43622,1.27957 0,0.4653 -0.13087,0.88213 -0.3926,1.25049 -0.25203,0.36837 -0.62039,0.65918 -1.10508,0.87244 -0.47499,0.20357 -1.03238,0.30535 -1.67217,0.30535 z"
            id="path906" />
        <path
            style="color:#000000;font-style:normal;font-variant:normal;font-weight:600;font-stretch:normal;font-size:medium;line-height:1.25;font-family:Poppins;-inkscape-font-specification:'Poppins Semi-Bold';font-variant-ligatures:normal;font-variant-position:normal;font-variant-caps:normal;font-variant-numeric:normal;font-variant-alternates:normal;font-variant-east-asian:normal;font-feature-settings:normal;font-variation-settings:normal;text-indent:0;text-align:start;text-decoration:none;text-decoration-line:none;text-decoration-style:solid;text-decoration-color:#000000;letter-spacing:normal;word-spacing:normal;text-transform:none;writing-mode:lr-tb;direction:ltr;text-orientation:mixed;dominant-baseline:auto;baseline-shift:baseline;text-anchor:start;white-space:normal;shape-padding:0;shape-margin:0;inline-size:0;clip-rule:nonzero;display:inline;overflow:visible;visibility:visible;isolation:auto;mix-blend-mode:normal;color-interpolation:sRGB;color-interpolation-filters:linearRGB;solid-color:#000000;solid-opacity:1;vector-effect:none;fill:#000000;fill-opacity:1;fill-rule:nonzero;stroke:none;stroke-width:0.364;stroke-linecap:butt;stroke-linejoin:miter;stroke-miterlimit:4;stroke-dasharray:none;stroke-dashoffset:0;stroke-opacity:1.0;color-rendering:auto;image-rendering:auto;shape-rendering:auto;text-rendering:auto;enable-background:accumulate;stop-color:#000000;stop-opacity:1;"
            d="M 101.61328 101.92188 C 100.94388 101.92188 100.35 102.03053 99.837891 102.25586 L 99.837891 102.25781 C 99.338573 102.482 98.940438 102.79224 98.658203 103.18945 L 98.658203 103.19141 L 98.65625 103.19336 C 98.384887 103.58997 98.246094 104.03738 98.246094 104.51758 C 98.246094 105.09076 98.392983 105.57107 98.697266 105.92969 L 98.699219 105.93164 C 98.997414 106.27097 99.351809 106.52564 99.755859 106.69141 L 99.757812 106.69336 C 100.15651 106.85284 100.65696 107.00393 101.26172 107.15039 C 101.83714 107.30384 102.25031 107.44887 102.48828 107.57227 L 102.49219 107.57422 L 102.49609 107.57617 C 102.72387 107.68193 102.79883 107.79338 102.79883 107.99219 C 102.79883 108.17872 102.72749 108.30973 102.54102 108.43945 L 102.53906 108.44141 C 102.36823 108.56565 102.10762 108.63867 101.74414 108.63867 C 101.3785 108.63867 101.08861 108.54642 100.85156 108.36914 L 100.84961 108.36914 C 100.62143 108.19085 100.50374 107.98677 100.4707 107.72266 L 100.45117 107.5625 L 98.046875 107.5625 L 98.058594 107.75586 C 98.089661 108.284 98.268149 108.77188 98.587891 109.20508 L 98.587891 109.20703 L 98.589844 109.20703 C 98.919402 109.63957 99.361918 109.98342 99.908203 110.23633 L 99.910156 110.23633 L 99.910156 110.23828 C 100.45953 110.48244 101.07723 110.60156 101.75781 110.60156 C 102.4169 110.60156 102.99977 110.49842 103.50195 110.2832 L 103.50391 110.28125 C 104.01238 110.05752 104.41014 109.74634 104.68359 109.34766 C 104.96628 108.9498 105.11133 108.49161 105.11133 107.99219 L 105.11133 107.99023 L 105.11133 107.98828 C 105.1011 107.42547 104.94256 106.95212 104.63086 106.5957 C 104.34232 106.24603 103.99283 105.98253 103.58789 105.81641 C 103.19799 105.65645 102.71044 105.50427 102.12305 105.35742 L 102.12305 105.35938 C 101.56026 105.21629 101.14972 105.07715 100.90039 104.95312 C 100.67051 104.82998 100.58789 104.69903 100.58789 104.48828 C 100.58789 104.29519 100.64983 104.17848 100.80078 104.07227 C 100.96223 103.96513 101.20953 103.89844 101.55469 103.89844 C 101.92254 103.89844 102.18932 103.9872 102.38281 104.14844 L 102.38672 104.15039 L 102.39062 104.15234 C 102.59536 104.30793 102.70134 104.50362 102.72656 104.78125 L 102.74023 104.94531 L 105.05078 104.94531 L 105.03711 104.75195 C 104.97615 103.89855 104.63539 103.19703 104.02734 102.69141 C 103.41711 102.17426 102.6036 101.92187 101.61328 101.92188 z M 101.61328 102.28516 C 102.54232 102.28516 103.25934 102.51652 103.79297 102.96875 L 103.79492 102.9707 C 104.27195 103.36688 104.48344 103.92693 104.57812 104.58203 L 102.99805 104.58203 C 102.93179 104.3066 102.83675 104.03978 102.61133 103.86719 C 102.34003 103.64326 101.97936 103.53516 101.55469 103.53516 C 101.16398 103.53516 100.84143 103.60572 100.5957 103.76953 L 100.59375 103.77148 C 100.35818 103.93638 100.22461 104.1974 100.22461 104.48828 C 100.22461 104.82037 100.41359 105.10577 100.72656 105.27344 L 100.73047 105.27539 L 100.73242 105.27539 C 101.02633 105.42234 101.45484 105.56389 102.0332 105.71094 L 102.03516 105.71094 C 102.61101 105.8549 103.08301 106.00406 103.44922 106.1543 C 103.79954 106.29802 104.09759 106.51973 104.35156 106.82812 L 104.35352 106.83008 L 104.35547 106.83203 C 104.6038 107.11462 104.73661 107.49343 104.74609 107.99414 C 104.74611 107.9949 104.74608 107.99534 104.74609 107.99609 C 104.74536 108.42558 104.62675 108.79891 104.38672 109.13672 L 104.38672 109.13867 L 104.38477 109.14062 C 104.15468 109.47692 103.81787 109.74502 103.35938 109.94727 C 102.91158 110.13918 102.3783 110.23828 101.75781 110.23828 C 101.12005 110.23828 100.55615 110.12543 100.05859 109.9043 C 99.559273 109.67267 99.169214 109.36735 98.878906 108.98633 C 98.641918 108.66458 98.547361 108.30448 98.492188 107.92773 L 100.20312 107.92773 C 100.27934 108.20441 100.38804 108.4728 100.62891 108.66016 L 100.63086 108.66016 L 100.63086 108.66211 C 100.93639 108.89127 101.31562 109.00391 101.74414 109.00391 C 102.15541 109.00391 102.49446 108.92157 102.75 108.73633 L 102.75195 108.73633 C 103.00992 108.55588 103.16211 108.28942 103.16211 107.99219 C 103.16211 107.66755 102.96547 107.39238 102.65039 107.24609 C 102.36491 107.09875 101.94066 106.95488 101.35547 106.79883 L 101.35352 106.79883 L 101.35156 106.79688 C 100.75696 106.65302 100.27019 106.50562 99.894531 106.35547 L 99.892578 106.35547 C 99.541984 106.21137 99.237845 105.99229 98.974609 105.69336 C 98.736044 105.41219 98.611328 105.03009 98.611328 104.51758 C 98.611328 104.10595 98.724321 103.73855 98.957031 103.39844 C 99.19788 103.06033 99.535435 102.79169 99.984375 102.58984 C 100.44163 102.38865 100.98372 102.28516 101.61328 102.28516 z "
            id="path908" />
      </g>
      <g id="g910" style="opacity:1">
        <path
            style="color:#000000;font-style:normal;font-variant:normal;font-weight:600;font-stretch:normal;font-size:medium;line-height:1.25;font-family:Poppins;-inkscape-font-specification:'Poppins Semi-Bold';font-variant-ligatures:normal;font-variant-position:normal;font-variant-caps:normal;font-variant-numeric:normal;font-variant-alternates:normal;font-variant-east-asian:normal;font-feature-settings:normal;font-variation-settings:normal;text-indent:0;text-align:start;text-decoration:none;text-decoration-line:none;text-decoration-style:solid;text-decoration-color:#000000;letter-spacing:normal;word-spacing:normal;text-transform:none;writing-mode:lr-tb;direction:ltr;text-orientation:mixed;dominant-baseline:auto;baseline-shift:baseline;text-anchor:start;white-space:normal;shape-padding:0;shape-margin:0;inline-size:0;clip-rule:nonzero;display:inline;overflow:visible;visibility:visible;isolation:auto;mix-blend-mode:normal;color-interpolation:sRGB;color-interpolation-filters:linearRGB;solid-color:#000000;solid-opacity:1;vector-effect:none;fill:#000000;fill-opacity:1;fill-rule:nonzero;stroke:none;stroke-width:0.364;stroke-linecap:butt;stroke-linejoin:miter;stroke-miterlimit:4;stroke-dasharray:none;stroke-dashoffset:0;stroke-opacity:1.0;color-rendering:auto;image-rendering:auto;shape-rendering:auto;text-rendering:auto;enable-background:accumulate;stop-color:#000000;stop-opacity:1;"
            d="m 107.00775,107.99218 c 0.9306,-0.7755 1.67217,-1.42013 2.22471,-1.9339 0.55255,-0.52346 1.013,-1.06631 1.38136,-1.62855 0.36836,-0.56223 0.55254,-1.11477 0.55254,-1.65762 0,-0.49438 -0.11632,-0.88213 -0.34897,-1.16325 -0.23265,-0.28112 -0.59132,-0.42168 -1.07601,-0.42168 -0.48469,0 -0.85789,0.16479 -1.11962,0.49438 -0.26173,0.31989 -0.39745,0.76096 -0.40714,1.3232 h -1.97752 c 0.0388,-1.16325 0.38293,-2.04538 1.03238,-2.64639 0.65917,-0.601013 1.49284,-0.90152 2.50099,-0.90152 1.10508,0 1.95328,0.29566 2.5446,0.88698 0.59132,0.58162 0.88698,1.35227 0.88698,2.31195 0,0.75611 -0.20357,1.4783 -0.61071,2.16655 -0.40713,0.68825 -0.87243,1.28927 -1.3959,1.80304 -0.52346,0.50407 -1.20687,1.11478 -2.05022,1.83211 h 4.28948 v 1.68671 h -7.18306 v -1.51222 z"
            id="path912" />
        <path
            style="color:#000000;font-style:normal;font-variant:normal;font-weight:600;font-stretch:normal;font-size:medium;line-height:1.25;font-family:Poppins;-inkscape-font-specification:'Poppins Semi-Bold';font-variant-ligatures:normal;font-variant-position:normal;font-variant-caps:normal;font-variant-numeric:normal;font-variant-alternates:normal;font-variant-east-asian:normal;font-feature-settings:normal;font-variation-settings:normal;text-indent:0;text-align:start;text-decoration:none;text-decoration-line:none;text-decoration-style:solid;text-decoration-color:#000000;letter-spacing:normal;word-spacing:normal;text-transform:none;writing-mode:lr-tb;direction:ltr;text-orientation:mixed;dominant-baseline:auto;baseline-shift:baseline;text-anchor:start;white-space:normal;shape-padding:0;shape-margin:0;inline-size:0;clip-rule:nonzero;display:inline;overflow:visible;visibility:visible;isolation:auto;mix-blend-mode:normal;color-interpolation:sRGB;color-interpolation-filters:linearRGB;solid-color:#000000;solid-opacity:1;vector-effect:none;fill:#000000;fill-opacity:1;fill-rule:nonzero;stroke:none;stroke-width:0.364;stroke-linecap:butt;stroke-linejoin:miter;stroke-miterlimit:4;stroke-dasharray:none;stroke-dashoffset:0;stroke-opacity:1.0;color-rendering:auto;image-rendering:auto;shape-rendering:auto;text-rendering:auto;enable-background:accumulate;stop-color:#000000;stop-opacity:1;"
            d="M 109.76953 99.275391 C 108.72521 99.275391 107.83979 99.592472 107.14648 100.22461 C 106.4554 100.86415 106.09458 101.80202 106.05469 102.99805 L 106.04883 103.1875 L 108.39258 103.1875 L 108.39648 103.00781 C 108.4057 102.47321 108.53238 102.07718 108.76172 101.79688 L 108.76367 101.79492 C 108.99137 101.50818 109.29875 101.36914 109.74219 101.36914 C 110.19169 101.36914 110.48466 101.49131 110.67773 101.72461 C 110.87697 101.96536 110.98438 102.30565 110.98438 102.77148 C 110.98438 103.27316 110.81458 103.7903 110.46094 104.33008 C 110.10125 104.87908 109.65101 105.41081 109.10742 105.92578 C 108.55884 106.43582 107.81918 107.07776 106.89062 107.85156 L 106.89062 107.85352 L 106.07031 108.54688 L 106.07031 110.32617 L 113.61719 110.32617 L 113.61719 108.27539 L 109.62109 108.27539 C 110.27362 107.71191 110.88641 107.17557 111.32227 106.75586 C 111.85789 106.23015 112.33361 105.61465 112.74805 104.91406 C 113.17006 104.20067 113.38477 103.44503 113.38477 102.65625 C 113.38477 101.65919 113.07036 100.83156 112.44336 100.21484 C 111.81195 99.583439 110.90707 99.275391 109.76953 99.275391 z M 109.76953 99.638672 C 110.84215 99.638672 111.63431 99.921421 112.18555 100.47266 L 112.1875 100.47266 C 112.74314 101.01918 113.01953 101.73395 113.01953 102.65625 C 113.01953 103.3797 112.82782 104.06735 112.43555 104.73047 C 112.03599 105.40592 111.57923 105.99253 111.06836 106.49414 C 110.54901 106.99426 109.86883 107.60262 109.02734 108.31836 L 108.65039 108.63867 L 113.25195 108.63867 L 113.25195 109.96289 L 106.43359 109.96289 L 106.43359 108.7168 L 107.125 108.13086 L 107.125 108.13281 C 108.05718 107.356 108.79906 106.70877 109.35547 106.19141 L 109.35742 106.19141 L 109.35742 106.18945 C 109.91893 105.65751 110.38859 105.10477 110.76562 104.5293 C 111.1487 103.9446 111.34766 103.3555 111.34766 102.77148 C 111.34766 102.24856 111.22309 101.81368 110.95703 101.49219 C 110.6848 101.16324 110.26206 101.00586 109.74219 101.00586 C 109.21723 101.00586 108.77621 101.19534 108.48047 101.56641 C 108.4801 101.56685 108.48083 101.56791 108.48047 101.56836 C 108.22389 101.88263 108.12824 102.33009 108.08984 102.82227 L 106.45508 102.82227 C 106.52533 101.80102 106.82387 101.01848 107.39258 100.49219 C 108.01762 99.922298 108.79754 99.638672 109.76953 99.638672 z "
            id="path914" />
      </g>
      <g id="g916" style="opacity:1">
        <path
            style="color:#000000;font-style:normal;font-variant:normal;font-weight:600;font-stretch:normal;font-size:medium;line-height:1.25;font-family:Poppins;-inkscape-font-specification:'Poppins Semi-Bold';font-variant-ligatures:normal;font-variant-position:normal;font-variant-caps:normal;font-variant-numeric:normal;font-variant-alternates:normal;font-variant-east-asian:normal;font-feature-settings:normal;font-variation-settings:normal;text-indent:0;text-align:start;text-decoration:none;text-decoration-line:none;text-decoration-style:solid;text-decoration-color:#000000;letter-spacing:normal;word-spacing:normal;text-transform:none;writing-mode:lr-tb;direction:ltr;text-orientation:mixed;dominant-baseline:auto;baseline-shift:baseline;text-anchor:start;white-space:normal;shape-padding:0;shape-margin:0;inline-size:0;clip-rule:nonzero;display:inline;overflow:visible;visibility:visible;isolation:auto;mix-blend-mode:normal;color-interpolation:sRGB;color-interpolation-filters:linearRGB;solid-color:#000000;solid-opacity:1;vector-effect:none;fill:#000000;fill-opacity:1;fill-rule:nonzero;stroke:none;stroke-width:0.364;stroke-linecap:butt;stroke-linejoin:miter;stroke-miterlimit:4;stroke-dasharray:none;stroke-dashoffset:0;stroke-opacity:1.0;color-rendering:auto;image-rendering:auto;shape-rendering:auto;text-rendering:auto;enable-background:accumulate;stop-color:#000000;stop-opacity:1;"
            d="m 115.97929,101.27442 c -0.36836,0 -0.67371,-0.11148 -0.91606,-0.33443 -0.23265,-0.23265 -0.34897,-0.51861 -0.34897,-0.85789 0,-0.339284 0.11632,-0.620404 0.34897,-0.843359 0.24235,-0.23265 0.5477,-0.348975 0.91606,-0.348975 0.35867,0 0.65433,0.116325 0.88698,0.348975 0.23265,0.222955 0.34897,0.504075 0.34897,0.843359 0,0.33928 -0.11632,0.62524 -0.34897,0.85789 -0.23265,0.22295 -0.52831,0.33443 -0.88698,0.33443 z m 1.0033,10.33837 c 0,0.89183 -0.22295,1.53161 -0.66886,1.91936 -0.43622,0.39744 -1.06631,0.59616 -1.89028,0.59616 h -0.90152 v -1.73033 h 0.58162 c 0.3102,0 0.52831,-0.063 0.65433,-0.18902 0.12602,-0.11633 0.18903,-0.3102 0.18903,-0.58163 v -9.39323 h 2.03568 z"
            id="path918" />
        <path
            style="color:#000000;font-style:normal;font-variant:normal;font-weight:600;font-stretch:normal;font-size:medium;line-height:1.25;font-family:Poppins;-inkscape-font-specification:'Poppins Semi-Bold';font-variant-ligatures:normal;font-variant-position:normal;font-variant-caps:normal;font-variant-numeric:normal;font-variant-alternates:normal;font-variant-east-asian:normal;font-feature-settings:normal;font-variation-settings:normal;text-indent:0;text-align:start;text-decoration:none;text-decoration-line:none;text-decoration-style:solid;text-decoration-color:#000000;letter-spacing:normal;word-spacing:normal;text-transform:none;writing-mode:lr-tb;direction:ltr;text-orientation:mixed;dominant-baseline:auto;baseline-shift:baseline;text-anchor:start;white-space:normal;shape-padding:0;shape-margin:0;inline-size:0;clip-rule:nonzero;display:inline;overflow:visible;visibility:visible;isolation:auto;mix-blend-mode:normal;color-interpolation:sRGB;color-interpolation-filters:linearRGB;solid-color:#000000;solid-opacity:1;vector-effect:none;fill:#000000;fill-opacity:1;fill-rule:nonzero;stroke:none;stroke-width:0.364;stroke-linecap:butt;stroke-linejoin:miter;stroke-miterlimit:4;stroke-dasharray:none;stroke-dashoffset:0;stroke-opacity:1.0;color-rendering:auto;image-rendering:auto;shape-rendering:auto;text-rendering:auto;enable-background:accumulate;stop-color:#000000;stop-opacity:1;"
            d="M 115.97852 98.707031 C 115.57184 98.707031 115.21308 98.842869 114.9375 99.107422 C 114.67156 99.362287 114.5332 99.701148 114.5332 100.08203 C 114.5332 100.46291 114.66967 100.80443 114.93359 101.06836 L 114.9375 101.07227 L 114.93945 101.07422 C 115.21561 101.32828 115.57344 101.45703 115.97852 101.45703 C 116.37489 101.45703 116.7258 101.32754 116.99219 101.07227 L 116.99414 101.07031 L 116.99414 101.06836 C 117.25807 100.80443 117.39648 100.46291 117.39648 100.08203 C 117.39648 99.70207 117.25883 99.364029 116.99414 99.109375 C 116.72842 98.843659 116.37653 98.707031 115.97852 98.707031 z M 115.97852 99.072266 C 116.29783 99.072266 116.53869 99.167604 116.73828 99.367188 L 116.73828 99.369141 L 116.74023 99.371094 C 116.93958 99.562139 117.0332 99.784346 117.0332 100.08203 C 117.0332 100.37971 116.93965 100.60918 116.73828 100.81055 C 116.53971 100.99999 116.29848 101.0918 115.97852 101.0918 C 115.6493 101.0918 115.39906 100.99762 115.19141 100.80859 C 114.991 100.60756 114.89648 100.37903 114.89648 100.08203 C 114.89648 99.784346 114.9901 99.562139 115.18945 99.371094 L 115.18945 99.369141 C 115.39857 99.168394 115.64847 99.072266 115.97852 99.072266 z M 114.76562 102.05273 L 114.76562 111.62695 C 114.76562 111.87021 114.70894 112.0077 114.63477 112.07617 L 114.63086 112.07812 L 114.62891 112.08008 C 114.55568 112.1533 114.38907 112.2168 114.10352 112.2168 L 113.33984 112.2168 L 113.33984 114.31055 L 114.42383 114.31055 C 115.27706 114.31055 115.95716 114.10188 116.43555 113.66602 C 116.93155 113.23273 117.16406 112.53361 117.16406 111.61328 L 117.16406 102.05273 L 114.76562 102.05273 z M 115.12891 102.41602 L 116.80078 102.41602 L 116.80078 111.61328 C 116.80078 112.47478 116.58713 113.05212 116.19336 113.39453 L 116.19336 113.39648 L 116.19141 113.39844 C 115.79736 113.75746 115.21853 113.94727 114.42383 113.94727 L 113.70312 113.94727 L 113.70312 112.58008 L 114.10352 112.58008 C 114.43584 112.58008 114.70204 112.51558 114.88086 112.33984 C 115.05776 112.17564 115.12891 111.92582 115.12891 111.62695 L 115.12891 102.41602 z "
            id="path920" />
      </g>
      <g id="g922" style="opacity:1">
        <path
            style="color:#000000;font-style:normal;font-variant:normal;font-weight:600;font-stretch:normal;font-size:medium;line-height:1.25;font-family:Poppins;-inkscape-font-specification:'Poppins Semi-Bold';font-variant-ligatures:normal;font-variant-position:normal;font-variant-caps:normal;font-variant-numeric:normal;font-variant-alternates:normal;font-variant-east-asian:normal;font-feature-settings:normal;font-variation-settings:normal;text-indent:0;text-align:start;text-decoration:none;text-decoration-line:none;text-decoration-style:solid;text-decoration-color:#000000;letter-spacing:normal;word-spacing:normal;text-transform:none;writing-mode:lr-tb;direction:ltr;text-orientation:mixed;dominant-baseline:auto;baseline-shift:baseline;text-anchor:start;white-space:normal;shape-padding:0;shape-margin:0;inline-size:0;clip-rule:nonzero;display:inline;overflow:visible;visibility:visible;isolation:auto;mix-blend-mode:normal;color-interpolation:sRGB;color-interpolation-filters:linearRGB;solid-color:#000000;solid-opacity:1;vector-effect:none;fill:#000000;fill-opacity:1;fill-rule:nonzero;stroke:none;stroke-width:0.364;stroke-linecap:butt;stroke-linejoin:miter;stroke-miterlimit:4;stroke-dasharray:none;stroke-dashoffset:0;stroke-opacity:1.0;color-rendering:auto;image-rendering:auto;shape-rendering:auto;text-rendering:auto;enable-background:accumulate;stop-color:#000000;stop-opacity:1;"
            d="m 118.46573,106.23277 c 0,-0.81427 0.15995,-1.53646 0.47984,-2.16655 0.32959,-0.63009 0.77065,-1.11478 1.3232,-1.45406 0.56223,-0.33928 1.18748,-0.50892 1.87573,-0.50892 0.60101,0 1.12448,0.12117 1.57039,0.36351 0.45561,0.24235 0.81912,0.5477 1.09054,0.91606 v -1.14871 h 2.05023 v 8.0555 h -2.05023 v -1.17779 c -0.26173,0.37805 -0.62524,0.6931 -1.09054,0.94514 -0.45561,0.24234 -0.98392,0.36351 -1.58493,0.36351 -0.67856,0 -1.29896,-0.17449 -1.86119,-0.52346 -0.55255,-0.34897 -0.99361,-0.83851 -1.3232,-1.4686 -0.31989,-0.63979 -0.47984,-1.37166 -0.47984,-2.19563 z m 6.3397,0.0291 c 0,-0.49438 -0.0969,-0.91606 -0.29081,-1.26503 -0.19387,-0.35867 -0.4556,-0.63009 -0.78519,-0.81428 -0.32959,-0.19387 -0.68341,-0.29081 -1.06146,-0.29081 -0.37806,0 -0.72704,0.0921 -1.04693,0.27627 -0.31989,0.18419 -0.58162,0.45561 -0.78519,0.81428 -0.19387,0.34897 -0.29081,0.7658 -0.29081,1.25049 0,0.48469 0.0969,0.91121 0.29081,1.27957 0.20357,0.35867 0.4653,0.63494 0.78519,0.82882 0.32959,0.19387 0.67856,0.29081 1.04693,0.29081 0.37805,0 0.73187,-0.0921 1.06146,-0.27627 0.32959,-0.19388 0.59132,-0.46531 0.78519,-0.81428 0.19387,-0.35867 0.29081,-0.78519 0.29081,-1.27957 z"
            id="path924" />
        <path
            style="color:#000000;font-style:normal;font-variant:normal;font-weight:600;font-stretch:normal;font-size:medium;line-height:1.25;font-family:Poppins;-inkscape-font-specification:'Poppins Semi-Bold';font-variant-ligatures:normal;font-variant-position:normal;font-variant-caps:normal;font-variant-numeric:normal;font-variant-alternates:normal;font-variant-east-asian:normal;font-feature-settings:normal;font-variation-settings:normal;text-indent:0;text-align:start;text-decoration:none;text-decoration-line:none;text-decoration-style:solid;text-decoration-color:#000000;letter-spacing:normal;word-spacing:normal;text-transform:none;writing-mode:lr-tb;direction:ltr;text-orientation:mixed;dominant-baseline:auto;baseline-shift:baseline;text-anchor:start;white-space:normal;shape-padding:0;shape-margin:0;inline-size:0;clip-rule:nonzero;display:inline;overflow:visible;visibility:visible;isolation:auto;mix-blend-mode:normal;color-interpolation:sRGB;color-interpolation-filters:linearRGB;solid-color:#000000;solid-opacity:1;vector-effect:none;fill:#000000;fill-opacity:1;fill-rule:nonzero;stroke:none;stroke-width:0.364;stroke-linecap:butt;stroke-linejoin:miter;stroke-miterlimit:4;stroke-dasharray:none;stroke-dashoffset:0;stroke-opacity:1.0;color-rendering:auto;image-rendering:auto;shape-rendering:auto;text-rendering:auto;enable-background:accumulate;stop-color:#000000;stop-opacity:1;"
            d="M 122.14453 101.92188 C 121.42637 101.92188 120.76419 102.10078 120.17383 102.45703 C 119.59222 102.81416 119.12789 103.3272 118.78516 103.98242 L 118.7832 103.98242 L 118.7832 103.98438 C 118.44898 104.64269 118.2832 105.39432 118.2832 106.23242 C 118.2832 107.07994 118.44933 107.84203 118.7832 108.50977 L 118.7832 108.51172 L 118.78516 108.51367 C 119.12771 109.16855 119.59133 109.68412 120.17188 110.05078 C 120.76198 110.41706 121.4211 110.60156 122.13086 110.60156 C 122.75633 110.60156 123.31588 110.47472 123.80078 110.2168 C 124.14698 110.02927 124.38021 109.76286 124.62305 109.50391 L 124.62305 110.4707 L 127.03711 110.4707 L 127.03711 102.05273 L 124.62305 102.05273 L 124.62305 103 C 124.37745 102.748 124.14265 102.48761 123.80273 102.30664 L 123.80078 102.30664 C 123.32508 102.0485 122.76931 101.92188 122.14453 101.92188 z M 122.14453 102.28516 C 122.72108 102.28516 123.21314 102.40099 123.62891 102.62695 C 124.06399 102.85838 124.40432 103.14568 124.6582 103.49023 L 124.98828 103.9375 L 124.98828 102.41602 L 126.67383 102.41602 L 126.67383 110.10742 L 124.98828 110.10742 L 124.98828 108.5293 L 124.65625 109.00781 C 124.41248 109.35993 124.07326 109.65579 123.62891 109.89648 C 123.20259 110.12324 122.70741 110.23828 122.13086 110.23828 C 121.4835 110.23828 120.89959 110.07386 120.36523 109.74219 C 119.84069 109.4109 119.42404 108.94906 119.10742 108.34375 C 118.80258 107.73268 118.64844 107.03142 118.64844 106.23242 C 118.64844 105.44269 118.8024 104.75189 119.10742 104.15039 L 119.10742 104.14844 C 119.42378 103.54417 119.8402 103.08876 120.36328 102.76758 C 120.89739 102.44527 121.48618 102.28516 122.14453 102.28516 z M 122.66797 103.70898 C 122.26035 103.70898 121.87606 103.81012 121.5293 104.00977 C 121.1796 104.21111 120.8949 104.50995 120.67773 104.89258 L 120.67578 104.89453 C 120.46454 105.27477 120.36328 105.72347 120.36328 106.23242 C 120.36328 106.74138 120.46463 107.20018 120.67383 107.59766 L 120.67578 107.59961 L 120.67773 107.60156 C 120.89455 107.98358 121.17954 108.2853 121.52734 108.49609 L 121.52734 108.49805 L 121.5293 108.49805 C 121.88442 108.70694 122.26767 108.81445 122.66797 108.81445 C 123.07558 108.81445 123.4629 108.71231 123.81836 108.51367 L 123.82031 108.51367 L 123.82227 108.51172 C 124.17954 108.30155 124.46564 108.00365 124.67383 107.62891 C 124.88434 107.23947 124.98828 106.77989 124.98828 106.26172 C 124.98828 105.74426 124.88483 105.2907 124.67383 104.91016 L 124.67383 104.9082 C 124.46616 104.52454 124.17901 104.22647 123.82031 104.02539 C 123.46497 103.81675 123.07649 103.70898 122.66797 103.70898 z M 122.66797 104.07422 C 123.01491 104.07422 123.33334 104.16139 123.63672 104.33984 L 123.63867 104.33984 L 123.64062 104.3418 C 123.93956 104.50886 124.17591 104.75181 124.35547 105.08398 L 124.35547 105.08594 C 124.53162 105.40302 124.62305 105.79113 124.62305 106.26172 C 124.62305 106.73231 124.53271 107.12718 124.35547 107.45508 C 124.17648 107.77677 123.93901 108.02003 123.63867 108.19727 C 123.63787 108.19774 123.63752 108.19875 123.63672 108.19922 C 123.33415 108.36749 123.01499 108.44922 122.66797 108.44922 C 122.33153 108.44922 122.01694 108.36244 121.71289 108.18359 C 121.42195 108.00671 121.18395 107.75631 120.99414 107.42188 C 120.81736 107.08377 120.72656 106.69053 120.72656 106.23242 C 120.72656 105.77274 120.81819 105.38967 120.99414 105.07227 L 120.99414 105.07031 C 121.18398 104.73631 121.42124 104.49297 121.71094 104.32617 C 122.00396 104.15746 122.31946 104.07422 122.66797 104.07422 z "
            id="path926" />
      </g>
      <g id="g928" style="opacity:1">
        <path
            style="color:#000000;font-style:normal;font-variant:normal;font-weight:600;font-stretch:normal;font-size:medium;line-height:1.25;font-family:Poppins;-inkscape-font-specification:'Poppins Semi-Bold';font-variant-ligatures:normal;font-variant-position:normal;font-variant-caps:normal;font-variant-numeric:normal;font-variant-alternates:normal;font-variant-east-asian:normal;font-feature-settings:normal;font-variation-settings:normal;text-indent:0;text-align:start;text-decoration:none;text-decoration-line:none;text-decoration-style:solid;text-decoration-color:#000000;letter-spacing:normal;word-spacing:normal;text-transform:none;writing-mode:lr-tb;direction:ltr;text-orientation:mixed;dominant-baseline:auto;baseline-shift:baseline;text-anchor:start;white-space:normal;shape-padding:0;shape-margin:0;inline-size:0;clip-rule:nonzero;display:inline;overflow:visible;visibility:visible;isolation:auto;mix-blend-mode:normal;color-interpolation:sRGB;color-interpolation-filters:linearRGB;solid-color:#000000;solid-opacity:1;vector-effect:none;fill:#000000;fill-opacity:1;fill-rule:nonzero;stroke:none;stroke-width:0.364;stroke-linecap:butt;stroke-linejoin:miter;stroke-miterlimit:4;stroke-dasharray:none;stroke-dashoffset:0;stroke-opacity:1.0;color-rendering:auto;image-rendering:auto;shape-rendering:auto;text-rendering:auto;enable-background:accumulate;stop-color:#000000;stop-opacity:1;"
            d="m 138.85164,102.11778 c 0.98877,0 1.78365,0.30535 2.38466,0.91606 0.61071,0.60101 0.91606,1.44436 0.91606,2.53006 v 4.7257 h -2.03568 v -4.44943 c 0,-0.63009 -0.15995,-1.10993 -0.47984,-1.43952 -0.31989,-0.33928 -0.75611,-0.50892 -1.30866,-0.50892 -0.55254,0 -0.9936,0.16964 -1.32319,0.50892 -0.31989,0.32959 -0.47984,0.80943 -0.47984,1.43952 v 4.44943 h -2.03569 v -4.44943 c 0,-0.63009 -0.15995,-1.10993 -0.47984,-1.43952 -0.31989,-0.33928 -0.75611,-0.50892 -1.30865,-0.50892 -0.56223,0 -1.00814,0.16964 -1.33773,0.50892 -0.31989,0.32959 -0.47984,0.80943 -0.47984,1.43952 v 4.44943 h -2.03569 v -8.0555 h 2.03569 v 0.97422 c 0.26173,-0.33928 0.59616,-0.60586 1.0033,-0.79973 0.41683,-0.19387 0.87243,-0.29081 1.36681,-0.29081 0.63009,0 1.19233,0.13571 1.68671,0.40714 0.49438,0.26173 0.87728,0.63978 1.14871,1.13416 0.26173,-0.4653 0.63979,-0.83851 1.13417,-1.11962 0.50407,-0.28112 1.04692,-0.42168 1.62854,-0.42168 z"
            id="path930" />
        <path
            style="color:#000000;font-style:normal;font-variant:normal;font-weight:600;font-stretch:normal;font-size:medium;line-height:1.25;font-family:Poppins;-inkscape-font-specification:'Poppins Semi-Bold';font-variant-ligatures:normal;font-variant-position:normal;font-variant-caps:normal;font-variant-numeric:normal;font-variant-alternates:normal;font-variant-east-asian:normal;font-feature-settings:normal;font-variation-settings:normal;text-indent:0;text-align:start;text-decoration:none;text-decoration-line:none;text-decoration-style:solid;text-decoration-color:#000000;letter-spacing:normal;word-spacing:normal;text-transform:none;writing-mode:lr-tb;direction:ltr;text-orientation:mixed;dominant-baseline:auto;baseline-shift:baseline;text-anchor:start;white-space:normal;shape-padding:0;shape-margin:0;inline-size:0;clip-rule:nonzero;display:inline;overflow:visible;visibility:visible;isolation:auto;mix-blend-mode:normal;color-interpolation:sRGB;color-interpolation-filters:linearRGB;solid-color:#000000;solid-opacity:1;vector-effect:none;fill:#000000;fill-opacity:1;fill-rule:nonzero;stroke:none;stroke-width:0.364;stroke-linecap:butt;stroke-linejoin:miter;stroke-miterlimit:4;stroke-dasharray:none;stroke-dashoffset:0;stroke-opacity:1.0;color-rendering:auto;image-rendering:auto;shape-rendering:auto;text-rendering:auto;enable-background:accumulate;stop-color:#000000;stop-opacity:1;"
            d="M 133.25391 101.93555 C 132.73574 101.93555 132.25232 102.03866 131.81055 102.24414 L 131.80859 102.24414 C 131.50876 102.38692 131.29215 102.61839 131.06445 102.83789 L 131.06445 102.05273 L 128.66602 102.05273 L 128.66602 110.4707 L 131.06445 110.4707 L 131.06445 105.83984 C 131.06445 105.24055 131.21462 104.81534 131.49414 104.52734 C 131.78769 104.22516 132.17555 104.07422 132.70117 104.07422 C 133.21646 104.07422 133.59294 104.22417 133.87695 104.52539 L 133.87891 104.52734 C 134.15843 104.81534 134.30664 105.24055 134.30664 105.83984 L 134.30664 110.4707 L 136.70703 110.4707 L 136.70703 105.83984 C 136.70703 105.24055 136.85524 104.81534 137.13477 104.52734 C 137.42893 104.22452 137.81284 104.07422 138.32812 104.07422 C 138.84342 104.07422 139.21989 104.22417 139.50391 104.52539 L 139.50586 104.52734 C 139.78538 104.81534 139.93555 105.24055 139.93555 105.83984 L 139.93555 110.4707 L 142.33398 110.4707 L 142.33398 105.56445 C 142.33398 104.44574 142.0137 103.54557 141.36523 102.90625 C 140.72923 102.25998 139.8778 101.93555 138.85156 101.93555 C 138.24062 101.93555 137.66485 102.08524 137.13477 102.38086 L 137.13281 102.38086 C 136.68125 102.63763 136.35818 103.00666 136.08789 103.41406 C 135.81057 102.98677 135.48166 102.60628 135.02734 102.36523 C 134.50437 102.07811 133.91013 101.93555 133.25391 101.93555 z M 133.25391 102.29883 C 133.85787 102.29883 134.38773 102.42787 134.85352 102.68359 L 134.85352 102.68555 L 134.85547 102.68555 C 135.32014 102.93155 135.67417 103.2807 135.92969 103.74609 L 136.08789 104.0332 L 136.24805 103.74805 C 136.49345 103.31177 136.84363 102.96387 137.3125 102.69727 L 137.3125 102.69922 C 137.79057 102.4326 138.29927 102.29883 138.85156 102.29883 C 139.80286 102.29883 140.54141 102.58697 141.10742 103.16211 L 141.10938 103.16406 C 141.68103 103.72664 141.9707 104.51288 141.9707 105.56445 L 141.9707 110.10742 L 140.29883 110.10742 L 140.29883 105.83984 C 140.29883 105.17994 140.12869 104.6465 139.76953 104.27539 C 139.41376 103.89806 138.91792 103.70898 138.32812 103.70898 C 137.73833 103.70898 137.24001 103.8977 136.875 104.27344 C 136.51474 104.64462 136.34375 105.17895 136.34375 105.83984 L 136.34375 110.10742 L 134.67188 110.10742 L 134.67188 105.83984 C 134.67188 105.17994 134.50174 104.6465 134.14258 104.27539 C 133.7868 103.89806 133.29096 103.70898 132.70117 103.70898 C 132.10233 103.70898 131.59805 103.89706 131.23242 104.27344 C 130.87216 104.64462 130.70117 105.17895 130.70117 105.83984 L 130.70117 110.10742 L 129.0293 110.10742 L 129.0293 102.41602 L 130.70117 102.41602 L 130.70117 103.74219 L 131.02734 103.32031 C 131.27087 103.00462 131.58051 102.75676 131.96289 102.57422 C 132.35477 102.39195 132.78332 102.29883 133.25391 102.29883 z "
            id="path932" />
      </g>
      <g id="g934" style="opacity:1">
        <path
            style="color:#000000;font-style:normal;font-variant:normal;font-weight:600;font-stretch:normal;font-size:medium;line-height:1.25;font-family:Poppins;-inkscape-font-specification:'Poppins Semi-Bold';font-variant-ligatures:normal;font-variant-position:normal;font-variant-caps:normal;font-variant-numeric:normal;font-variant-alternates:normal;font-variant-east-asian:normal;font-feature-settings:normal;font-variation-settings:normal;text-indent:0;text-align:start;text-decoration:none;text-decoration-line:none;text-decoration-style:solid;text-decoration-color:#000000;letter-spacing:normal;word-spacing:normal;text-transform:none;writing-mode:lr-tb;direction:ltr;text-orientation:mixed;dominant-baseline:auto;baseline-shift:baseline;text-anchor:start;white-space:normal;shape-padding:0;shape-margin:0;inline-size:0;clip-rule:nonzero;display:inline;overflow:visible;visibility:visible;isolation:auto;mix-blend-mode:normal;color-interpolation:sRGB;color-interpolation-filters:linearRGB;solid-color:#000000;solid-opacity:1;vector-effect:none;fill:#000000;fill-opacity:1;fill-rule:nonzero;stroke:none;stroke-width:0.364;stroke-linecap:butt;stroke-linejoin:miter;stroke-miterlimit:4;stroke-dasharray:none;stroke-dashoffset:0;stroke-opacity:1.0;color-rendering:auto;image-rendering:auto;shape-rendering:auto;text-rendering:auto;enable-background:accumulate;stop-color:#000000;stop-opacity:1;"
            d="m 144.49338,107.99218 c 0.93059,-0.7755 1.67216,-1.42013 2.22471,-1.9339 0.55254,-0.52346 1.01299,-1.06631 1.38136,-1.62855 0.36836,-0.56223 0.55254,-1.11477 0.55254,-1.65762 0,-0.49438 -0.11633,-0.88213 -0.34898,-1.16325 -0.23265,-0.28112 -0.59131,-0.42168 -1.076,-0.42168 -0.48469,0 -0.8579,0.16479 -1.11963,0.49438 -0.26173,0.31989 -0.39744,0.76096 -0.40713,1.3232 h -1.97752 c 0.0388,-1.16325 0.38293,-2.04538 1.03238,-2.64639 0.65917,-0.601013 1.49283,-0.90152 2.50098,-0.90152 1.10509,0 1.95329,0.29566 2.54461,0.88698 0.59131,0.58162 0.88697,1.35227 0.88697,2.31195 0,0.75611 -0.20357,1.4783 -0.6107,2.16655 -0.40714,0.68825 -0.87244,1.28927 -1.3959,1.80304 -0.52346,0.50407 -1.20687,1.11478 -2.05022,1.83211 h 4.28947 v 1.68671 h -7.18305 v -1.51222 z"
            id="path936" />
        <path
            style="color:#000000;font-style:normal;font-variant:normal;font-weight:600;font-stretch:normal;font-size:medium;line-height:1.25;font-family:Poppins;-inkscape-font-specification:'Poppins Semi-Bold';font-variant-ligatures:normal;font-variant-position:normal;font-variant-caps:normal;font-variant-numeric:normal;font-variant-alternates:normal;font-variant-east-asian:normal;font-feature-settings:normal;font-variation-settings:normal;text-indent:0;text-align:start;text-decoration:none;text-decoration-line:none;text-decoration-style:solid;text-decoration-color:#000000;letter-spacing:normal;word-spacing:normal;text-transform:none;writing-mode:lr-tb;direction:ltr;text-orientation:mixed;dominant-baseline:auto;baseline-shift:baseline;text-anchor:start;white-space:normal;shape-padding:0;shape-margin:0;inline-size:0;clip-rule:nonzero;display:inline;overflow:visible;visibility:visible;isolation:auto;mix-blend-mode:normal;color-interpolation:sRGB;color-interpolation-filters:linearRGB;solid-color:#000000;solid-opacity:1;vector-effect:none;fill:#000000;fill-opacity:1;fill-rule:nonzero;stroke:none;stroke-width:0.364;stroke-linecap:butt;stroke-linejoin:miter;stroke-miterlimit:4;stroke-dasharray:none;stroke-dashoffset:0;stroke-opacity:1.0;color-rendering:auto;image-rendering:auto;shape-rendering:auto;text-rendering:auto;enable-background:accumulate;stop-color:#000000;stop-opacity:1;"
            d="M 147.25586 99.275391 C 146.21155 99.275391 145.32612 99.592472 144.63281 100.22461 L 144.63086 100.22461 C 143.93977 100.86415 143.58091 101.80202 143.54102 102.99805 L 143.53516 103.1875 L 145.87891 103.1875 L 145.88281 103.00781 C 145.89203 102.47321 146.01871 102.07718 146.24805 101.79688 L 146.25 101.79492 C 146.47771 101.50818 146.78313 101.36914 147.22656 101.36914 C 147.67606 101.36914 147.96904 101.49132 148.16211 101.72461 C 148.36135 101.96536 148.4707 102.30565 148.4707 102.77148 C 148.4707 103.27316 148.30091 103.7903 147.94727 104.33008 C 147.58757 104.87908 147.13733 105.41081 146.59375 105.92578 C 146.04508 106.43595 145.30597 107.07738 144.37695 107.85156 L 144.37695 107.85352 L 144.375 107.85352 L 143.55469 108.54688 L 143.55469 110.32617 L 151.10156 110.32617 L 151.10156 108.27539 L 147.10547 108.27539 C 147.75799 107.71191 148.37078 107.17557 148.80664 106.75586 L 148.80859 106.75586 C 149.34421 106.23015 149.81994 105.61465 150.23438 104.91406 C 150.65638 104.20067 150.86914 103.44503 150.86914 102.65625 C 150.86914 101.65919 150.55473 100.83156 149.92773 100.21484 C 149.29638 99.584226 148.39271 99.275391 147.25586 99.275391 z M 147.25586 99.638672 C 148.32848 99.638672 149.12064 99.921421 149.67188 100.47266 L 149.67383 100.47266 C 150.22946 101.01918 150.50586 101.73395 150.50586 102.65625 C 150.50586 103.3797 150.31219 104.06735 149.91992 104.73047 C 149.52008 105.40638 149.06403 105.99426 148.55273 106.49609 C 148.03358 106.99593 147.35431 107.60334 146.51367 108.31836 L 146.13672 108.63867 L 150.73828 108.63867 L 150.73828 109.96289 L 143.91992 109.96289 L 143.91992 108.7168 L 144.60938 108.13281 C 145.54154 107.356 146.28538 106.70877 146.8418 106.19141 L 146.84375 106.18945 C 147.40525 105.65751 147.87492 105.10477 148.25195 104.5293 C 148.63503 103.9446 148.83398 103.3555 148.83398 102.77148 C 148.83398 102.24855 148.70942 101.81368 148.44336 101.49219 C 148.17113 101.16324 147.74644 101.00586 147.22656 101.00586 C 146.7016 101.00586 146.26254 101.19535 145.9668 101.56641 C 145.96643 101.56685 145.96716 101.56791 145.9668 101.56836 C 145.71021 101.88265 145.6126 102.33005 145.57422 102.82227 L 143.93945 102.82227 C 144.0097 101.801 144.31018 101.01848 144.87891 100.49219 C 145.50372 99.923128 146.28459 99.638672 147.25586 99.638672 z "
            id="path938" />
      </g>
    </g>
  </g>
</svg>
