# created by: Biturn ver 0.88
# http://mirex.mypage.sk
# ------------------------------------
# 8 vertices, 12 polygons, 36 points, 1 materials


mtllib object_2.mtl

#-- object 'Converted object 0' --
# 8 vertices, 12 polygons, 36 points

g Converted object 0

# vertexs: 8
v -3.000000 0.451250 -0.025000
v -3.000000 -0.451250 -0.025000
v 0.000000 0.451250 -0.025000
v 0.000000 -0.451250 -0.025000
v 0.000000 0.451250 -0.225000
v 0.000000 -0.451250 -0.225000
v -3.000000 0.451250 -0.225000
v -3.000000 -0.451250 -0.225000

# normals: 36
vn 0.000000 0.000000 1.000000
vn 0.000000 0.000000 1.000000
vn 0.000000 0.000000 1.000000
vn 0.000000 0.000000 1.000000
vn 0.000000 0.000000 1.000000
vn 0.000000 0.000000 1.000000
vn 1.000000 0.000000 0.000000
vn 1.000000 0.000000 0.000000
vn 1.000000 0.000000 0.000000
vn 1.000000 0.000000 0.000000
vn 1.000000 0.000000 0.000000
vn 1.000000 0.000000 0.000000
vn 0.000000 0.000000 -1.000000
vn 0.000000 0.000000 -1.000000
vn 0.000000 0.000000 -1.000000
vn 0.000000 0.000000 -1.000000
vn 0.000000 0.000000 -1.000000
vn 0.000000 0.000000 -1.000000
vn -1.000000 0.000000 0.000000
vn -1.000000 0.000000 0.000000
vn -1.000000 0.000000 0.000000
vn -1.000000 0.000000 0.000000
vn -1.000000 0.000000 0.000000
vn -1.000000 0.000000 0.000000
vn 0.000000 1.000000 0.000000
vn 0.000000 1.000000 0.000000
vn 0.000000 1.000000 0.000000
vn 0.000000 1.000000 0.000000
vn 0.000000 1.000000 0.000000
vn 0.000000 1.000000 0.000000
vn 0.000000 -1.000000 0.000000
vn 0.000000 -1.000000 0.000000
vn 0.000000 -1.000000 0.000000
vn 0.000000 -1.000000 0.000000
vn 0.000000 -1.000000 0.000000
vn 0.000000 -1.000000 0.000000

# texture coords: 36
vt 0.499996 1.002453
vt 0.499996 0.384069
vt 0.991305 1.002453
vt 0.499996 0.384069
vt 0.991305 0.384069
vt 0.991305 1.002453
vt 0.235059 0.091096
vt 0.235059 0.034599
vt 0.435291 0.091096
vt 0.235059 0.034599
vt 0.435291 0.034599
vt 0.435291 0.091096
vt 0.500859 0.154434
vt 0.500859 0.131732
vt 0.998500 0.154434
vt 0.500859 0.131732
vt 0.998500 0.131732
vt 0.998500 0.154434
vt 0.017536 0.091264
vt 0.017536 0.034767
vt 0.215276 0.091264
vt 0.017536 0.034767
vt 0.215276 0.034767
vt 0.215276 0.091264
vt 0.501014 0.247297
vt 0.501014 0.195404
vt 0.990212 0.247297
vt 0.501014 0.195404
vt 0.990212 0.195404
vt 0.990212 0.247297
vt 0.500864 0.338798
vt 0.500864 0.289195
vt 0.990767 0.338798
vt 0.500864 0.289195
vt 0.990767 0.289195
vt 0.990767 0.338798

# polygons: 12
usemtl Material01
f 1/1/1 2/2/2 3/3/3
f 2/4/4 4/5/5 3/6/6
f 3/7/7 4/8/8 5/9/9
f 4/10/10 6/11/11 5/12/12
f 5/13/13 6/14/14 7/15/15
f 6/16/16 8/17/17 7/18/18
f 7/19/19 8/20/20 1/21/21
f 8/22/22 2/23/23 1/24/24
f 7/25/25 1/26/26 5/27/27
f 1/28/28 3/29/29 5/30/30
f 2/31/31 8/32/32 4/33/33
f 8/34/34 6/35/35 4/36/36

# object end 'Converted object 0'
