# created by: Biturn ver 0.88
# http://mirex.mypage.sk
# ------------------------------------
# 38 vertices, 72 polygons, 216 points, 2 materials


mtllib object_42.mtl

#-- object 'Converted object 0(m1)' --
# 38 vertices, 72 polygons, 216 points

g Converted object 0(m1)

# vertexs: 38
v 1.426458 -4.359094 -0.359579
v 1.586745 -4.322088 -0.359579
v 1.496956 -4.664454 -0.311448
v 1.657243 -4.627449 -0.311448
v 1.548564 -4.887995 -0.179951
v 1.708851 -4.850988 -0.179951
v 1.567454 -4.969815 -0.000324
v 1.727741 -4.932810 -0.000324
v 1.548564 -4.887995 0.179304
v 1.708851 -4.850988 0.179304
v 1.496956 -4.664454 0.310801
v 1.657243 -4.627449 0.310801
v 1.426458 -4.359094 0.358932
v 1.586745 -4.322088 0.358932
v 1.355960 -4.053734 0.310801
v 1.516247 -4.016728 0.310801
v 1.304352 -3.830194 0.179304
v 1.464639 -3.793188 0.179304
v 1.285462 -3.748372 -0.000324
v 1.445748 -3.711367 -0.000324
v 1.304352 -3.830194 -0.179951
v 1.464639 -3.793188 -0.179951
v 1.355960 -4.053734 -0.311448
v 1.516247 -4.016728 -0.311448
v 1.586745 -4.322088 -0.000324
v 1.426458 -4.359094 -0.000324
v 1.072661 -3.519732 0.138306
v 1.232935 -3.482730 0.138306
v 1.053767 -3.437893 -0.000324
v 1.214041 -3.400891 -0.000324
v 1.232935 -3.482730 -0.138990
v 1.072661 -3.519732 -0.138990
v 0.657372 -2.222340 0.101591
v 0.817646 -2.185338 0.101591
v 0.638478 -2.140502 -0.000326
v 0.798752 -2.103500 -0.000326
v 0.817646 -2.185338 -0.102272
v 0.657372 -2.222340 -0.102272

# normals: 216
vn -0.974370 -0.224951 0.000000
vn -0.974370 -0.224950 -0.000000
vn -0.974370 -0.224951 0.000000
vn 0.974370 0.224951 0.000000
vn 0.974370 0.224951 -0.000000
vn 0.974370 0.224951 -0.000000
vn -0.000000 0.000000 -1.000000
vn -0.000000 0.000000 -1.000000
vn 0.074260 -0.321653 -0.943941
vn -0.000000 0.000000 -1.000000
vn 0.074259 -0.321653 -0.943941
vn 0.074260 -0.321653 -0.943941
vn -0.974370 -0.224950 -0.000000
vn -0.974370 -0.224950 -0.000000
vn -0.974370 -0.224951 0.000000
vn 0.974370 0.224951 -0.000000
vn 0.974370 0.224951 -0.000000
vn 0.974370 0.224951 0.000000
vn 0.074260 -0.321653 -0.943941
vn 0.074259 -0.321653 -0.943941
vn 0.165541 -0.717027 -0.677103
vn 0.074260 -0.321653 -0.943941
vn 0.165541 -0.717027 -0.677103
vn 0.165545 -0.717027 -0.677102
vn -0.974370 -0.224950 -0.000000
vn -0.974370 -0.224951 0.000000
vn -0.974370 -0.224951 0.000000
vn 0.974370 0.224951 0.000000
vn 0.974370 0.224951 -0.000000
vn 0.974370 0.224951 0.000000
vn 0.165545 -0.717027 -0.677102
vn 0.165541 -0.717027 -0.677103
vn 0.224953 -0.974370 0.000000
vn 0.165541 -0.717027 -0.677103
vn 0.224947 -0.974371 0.000000
vn 0.224953 -0.974370 0.000000
vn -0.974370 -0.224951 0.000000
vn -0.974370 -0.224950 0.000000
vn -0.974370 -0.224951 0.000000
vn 0.974370 0.224951 0.000000
vn 0.974370 0.224951 -0.000000
vn 0.974370 0.224951 -0.000000
vn 0.224953 -0.974370 0.000000
vn 0.224947 -0.974371 0.000000
vn 0.165541 -0.717027 0.677103
vn 0.224953 -0.974370 0.000000
vn 0.165541 -0.717027 0.677103
vn 0.165545 -0.717027 0.677102
vn -0.974370 -0.224950 0.000000
vn -0.974370 -0.224950 0.000000
vn -0.974370 -0.224951 0.000000
vn 0.974370 0.224951 -0.000000
vn 0.974370 0.224951 -0.000000
vn 0.974370 0.224951 0.000000
vn 0.165545 -0.717027 0.677102
vn 0.165541 -0.717027 0.677103
vn 0.074260 -0.321653 0.943941
vn 0.165541 -0.717027 0.677103
vn 0.074259 -0.321653 0.943941
vn 0.074260 -0.321653 0.943941
vn -0.974370 -0.224950 0.000000
vn -0.974370 -0.224951 0.000000
vn -0.974370 -0.224951 0.000000
vn 0.974370 0.224951 0.000000
vn 0.974370 0.224951 -0.000000
vn 0.974370 0.224951 0.000000
vn 0.074260 -0.321653 0.943941
vn 0.074259 -0.321653 0.943941
vn -0.000000 0.000000 1.000000
vn 0.074260 -0.321653 0.943941
vn -0.000000 0.000000 1.000000
vn -0.000000 0.000000 1.000000
vn -0.974370 -0.224951 0.000000
vn -0.974370 -0.224951 -0.000001
vn -0.974370 -0.224951 0.000000
vn 0.974370 0.224951 0.000000
vn 0.974370 0.224951 -0.000000
vn 0.974370 0.224951 -0.000000
vn -0.000000 0.000000 1.000000
vn -0.000000 0.000000 1.000000
vn -0.074261 0.321653 0.943941
vn -0.000000 0.000000 1.000000
vn -0.074261 0.321653 0.943941
vn -0.074261 0.321653 0.943941
vn -0.974370 -0.224951 -0.000001
vn -0.974370 -0.224951 -0.000001
vn -0.974370 -0.224951 0.000000
vn 0.974370 0.224951 -0.000000
vn 0.974370 0.224951 -0.000000
vn 0.974370 0.224952 -0.000001
vn -0.074261 0.321653 0.943941
vn -0.074261 0.321653 0.943941
vn 0.114956 0.414172 0.902910
vn -0.074261 0.321653 0.943941
vn 0.114956 0.414172 0.902910
vn -0.737458 -0.258817 0.623834
vn -0.974370 -0.224951 -0.000001
vn -0.974370 -0.224951 0.000000
vn -0.974370 -0.224951 0.000000
vn 0.974370 0.224952 -0.000001
vn 0.974370 0.224951 -0.000000
vn 0.974370 0.224952 0.000000
vn -0.398403 0.175012 0.900358
vn 0.434448 0.600764 0.671073
vn -0.861030 0.508402 -0.012492
vn 0.434448 0.600764 0.671073
vn 0.719161 0.694687 -0.014791
vn -0.861030 0.508402 -0.012492
vn -0.974370 -0.224951 0.000000
vn -0.974370 -0.224951 0.000001
vn -0.974370 -0.224951 0.000000
vn 0.974370 0.224952 0.000000
vn 0.974370 0.224951 -0.000000
vn 0.974370 0.224952 0.000001
vn -0.861030 0.508402 -0.012492
vn 0.719161 0.694687 -0.014791
vn 0.152483 0.481297 -0.863193
vn -0.861030 0.508402 -0.012492
vn 0.152483 0.481297 -0.863193
vn -0.806396 0.065283 -0.587761
vn -0.974370 -0.224951 0.000001
vn -0.974370 -0.224951 0.000001
vn -0.974370 -0.224951 0.000000
vn 0.974370 0.224952 0.000001
vn 0.974370 0.224951 -0.000000
vn 0.974370 0.224951 0.000000
vn -0.332024 0.037218 -0.942536
vn 0.316216 0.552802 -0.770984
vn -0.074261 0.321653 -0.943941
vn 0.316216 0.552802 -0.770984
vn -0.074261 0.321653 -0.943941
vn -0.074261 0.321653 -0.943941
vn -0.974370 -0.224951 0.000001
vn -0.974370 -0.224951 0.000000
vn -0.974370 -0.224951 0.000000
vn 0.974370 0.224951 0.000000
vn 0.974370 0.224951 -0.000000
vn 0.974370 0.224951 0.000000
vn -0.074261 0.321653 -0.943941
vn -0.074261 0.321653 -0.943941
vn -0.000000 0.000000 -1.000000
vn -0.074261 0.321653 -0.943941
vn -0.000000 0.000000 -1.000000
vn -0.000000 0.000000 -1.000000
vn -0.698250 -0.246679 0.672009
vn -0.737458 -0.258817 0.623834
vn 0.114956 0.414172 0.902910
vn -0.698250 -0.246679 0.672009
vn 0.114956 0.414172 0.902910
vn 0.539472 0.362064 0.760184
vn -0.887652 -0.459977 -0.022264
vn -0.794484 -0.601550 0.083262
vn -0.737458 -0.258817 0.623834
vn -0.887652 -0.459977 -0.022264
vn -0.737458 -0.258817 0.623834
vn -0.698250 -0.246679 0.672009
vn 0.539472 0.362064 0.760184
vn 0.114956 0.414172 0.902910
vn 0.794459 0.601579 0.083290
vn 0.539472 0.362064 0.760184
vn 0.794459 0.601579 0.083290
vn 0.887648 0.459986 -0.022235
vn 0.887648 0.459986 -0.022235
vn 0.794459 0.601579 0.083290
vn 0.316216 0.552802 -0.770984
vn 0.887648 0.459986 -0.022235
vn 0.316216 0.552802 -0.770984
vn 0.579461 0.325136 -0.747337
vn 0.579461 0.325136 -0.747337
vn 0.316216 0.552802 -0.770984
vn -0.332024 0.037218 -0.942536
vn 0.579461 0.325136 -0.747337
vn -0.332024 0.037218 -0.942536
vn -0.666846 -0.347793 -0.659057
vn -0.666846 -0.347793 -0.659057
vn -0.332024 0.037218 -0.942536
vn -0.794484 -0.601550 0.083262
vn -0.666846 -0.347793 -0.659057
vn -0.794484 -0.601550 0.083262
vn -0.887652 -0.459977 -0.022264
vn -0.398403 0.175012 0.900358
vn -0.698250 -0.246679 0.672009
vn 0.539472 0.362064 0.760184
vn -0.398403 0.175012 0.900358
vn 0.539472 0.362064 0.760184
vn 0.434448 0.600764 0.671073
vn -0.861030 0.508402 -0.012492
vn -0.887652 -0.459977 -0.022264
vn -0.698250 -0.246679 0.672009
vn -0.861030 0.508402 -0.012492
vn -0.698250 -0.246679 0.672009
vn -0.398403 0.175012 0.900358
vn 0.434448 0.600764 0.671073
vn 0.539472 0.362064 0.760184
vn 0.887648 0.459986 -0.022235
vn 0.434448 0.600764 0.671073
vn 0.887648 0.459986 -0.022235
vn 0.719161 0.694687 -0.014791
vn 0.719161 0.694687 -0.014791
vn 0.887648 0.459986 -0.022235
vn 0.579461 0.325136 -0.747337
vn 0.719161 0.694687 -0.014791
vn 0.579461 0.325136 -0.747337
vn 0.152483 0.481297 -0.863193
vn 0.152483 0.481297 -0.863193
vn 0.579461 0.325136 -0.747337
vn -0.666846 -0.347793 -0.659057
vn 0.152483 0.481297 -0.863193
vn -0.666846 -0.347793 -0.659057
vn -0.806396 0.065283 -0.587761
vn -0.806396 0.065283 -0.587761
vn -0.666846 -0.347793 -0.659057
vn -0.887652 -0.459977 -0.022264
vn -0.806396 0.065283 -0.587761
vn -0.887652 -0.459977 -0.022264
vn -0.861030 0.508402 -0.012492

# texture coords: 216
vt 0.845799 0.714528
vt 0.845595 0.707293
vt 0.844275 0.714318
vt 0.891127 0.714527
vt 0.889602 0.714317
vt 0.890923 0.707291
vt 0.845799 0.714528
vt 0.891127 0.714527
vt 0.845595 0.707293
vt 0.891127 0.714527
vt 0.890923 0.707291
vt 0.845595 0.707293
vt 0.845595 0.707293
vt 0.845037 0.701940
vt 0.844275 0.714318
vt 0.890923 0.707291
vt 0.889602 0.714317
vt 0.890365 0.701938
vt 0.845595 0.707293
vt 0.890923 0.707291
vt 0.890365 0.701938
vt 0.845595 0.707293
vt 0.890365 0.701938
vt 0.845037 0.701940
vt 0.845037 0.701940
vt 0.844275 0.699904
vt 0.844275 0.714318
vt 0.890365 0.701938
vt 0.889602 0.714317
vt 0.889602 0.699902
vt 0.845037 0.701940
vt 0.890365 0.701938
vt 0.844275 0.699904
vt 0.890365 0.701938
vt 0.889602 0.699902
vt 0.844275 0.699904
vt 0.844275 0.699904
vt 0.843513 0.701730
vt 0.844275 0.714318
vt 0.889602 0.699902
vt 0.889602 0.714317
vt 0.888840 0.701728
vt 0.844275 0.699904
vt 0.889602 0.699902
vt 0.888840 0.701728
vt 0.844275 0.699904
vt 0.888840 0.701728
vt 0.843513 0.701730
vt 0.843513 0.701730
vt 0.842955 0.706929
vt 0.844275 0.714318
vt 0.888840 0.701728
vt 0.889602 0.714317
vt 0.888282 0.706928
vt 0.843513 0.701730
vt 0.888840 0.701728
vt 0.842955 0.706929
vt 0.888840 0.701728
vt 0.888282 0.706928
vt 0.842955 0.706929
vt 0.842955 0.706929
vt 0.842750 0.714108
vt 0.844275 0.714318
vt 0.888282 0.706928
vt 0.889602 0.714317
vt 0.888078 0.714107
vt 0.842955 0.706929
vt 0.888282 0.706928
vt 0.888078 0.714107
vt 0.842955 0.706929
vt 0.888078 0.714107
vt 0.842750 0.714108
vt 0.842750 0.714108
vt 0.842955 0.721344
vt 0.844275 0.714318
vt 0.888078 0.714107
vt 0.889602 0.714317
vt 0.888282 0.721342
vt 0.842750 0.714108
vt 0.888078 0.714107
vt 0.842955 0.721344
vt 0.888078 0.714107
vt 0.888282 0.721342
vt 0.842955 0.721344
vt 0.842955 0.721344
vt 0.843513 0.726696
vt 0.844275 0.714318
vt 0.888282 0.721342
vt 0.889602 0.714317
vt 0.888840 0.726695
vt 0.842955 0.721344
vt 0.888282 0.721342
vt 0.888840 0.726695
vt 0.842955 0.721344
vt 0.888840 0.726695
vt 0.843513 0.726696
vt 0.843513 0.726696
vt 0.844275 0.728733
vt 0.844275 0.714318
vt 0.888840 0.726695
vt 0.889602 0.714317
vt 0.889602 0.728731
vt 0.769802 0.766120
vt 0.815126 0.766119
vt 0.770234 0.768111
vt 0.815126 0.766119
vt 0.815558 0.768110
vt 0.770234 0.768111
vt 0.844275 0.728733
vt 0.845037 0.726906
vt 0.844275 0.714318
vt 0.889602 0.728731
vt 0.889602 0.714317
vt 0.890365 0.726905
vt 0.770234 0.768111
vt 0.815558 0.768110
vt 0.815991 0.766238
vt 0.770234 0.768111
vt 0.815991 0.766238
vt 0.770667 0.766239
vt 0.845037 0.726906
vt 0.845595 0.721707
vt 0.844275 0.714318
vt 0.890365 0.726905
vt 0.889602 0.714317
vt 0.890923 0.721706
vt 0.845037 0.726906
vt 0.890365 0.726905
vt 0.845595 0.721707
vt 0.890365 0.726905
vt 0.890923 0.721706
vt 0.845595 0.721707
vt 0.845595 0.721707
vt 0.845799 0.714528
vt 0.844275 0.714318
vt 0.890923 0.721706
vt 0.889602 0.714317
vt 0.891127 0.714527
vt 0.845595 0.721707
vt 0.890923 0.721706
vt 0.891127 0.714527
vt 0.845595 0.721707
vt 0.891127 0.714527
vt 0.845799 0.714528
vt 0.800726 0.734877
vt 0.843513 0.726696
vt 0.888840 0.726695
vt 0.800726 0.734877
vt 0.888840 0.726695
vt 0.846050 0.734876
vt 0.801314 0.736890
vt 0.844275 0.728733
vt 0.843513 0.726696
vt 0.801314 0.736890
vt 0.843513 0.726696
vt 0.800726 0.734877
vt 0.846050 0.734876
vt 0.888840 0.726695
vt 0.889602 0.728731
vt 0.846050 0.734876
vt 0.889602 0.728731
vt 0.846638 0.736888
vt 0.846638 0.736888
vt 0.889602 0.728731
vt 0.890365 0.726905
vt 0.846638 0.736888
vt 0.890365 0.726905
vt 0.847226 0.735038
vt 0.847226 0.735038
vt 0.890365 0.726905
vt 0.845037 0.726906
vt 0.847226 0.735038
vt 0.845037 0.726906
vt 0.801902 0.735039
vt 0.801902 0.735039
vt 0.845037 0.726906
vt 0.844275 0.728733
vt 0.801902 0.735039
vt 0.844275 0.728733
vt 0.801314 0.736890
vt 0.769802 0.766120
vt 0.800726 0.734877
vt 0.846050 0.734876
vt 0.769802 0.766120
vt 0.846050 0.734876
vt 0.815126 0.766119
vt 0.770234 0.768111
vt 0.801314 0.736890
vt 0.800726 0.734877
vt 0.770234 0.768111
vt 0.800726 0.734877
vt 0.769802 0.766120
vt 0.815126 0.766119
vt 0.846050 0.734876
vt 0.846638 0.736888
vt 0.815126 0.766119
vt 0.846638 0.736888
vt 0.815558 0.768110
vt 0.815558 0.768110
vt 0.846638 0.736888
vt 0.847226 0.735038
vt 0.815558 0.768110
vt 0.847226 0.735038
vt 0.815991 0.766238
vt 0.815991 0.766238
vt 0.847226 0.735038
vt 0.801902 0.735039
vt 0.815991 0.766238
vt 0.801902 0.735039
vt 0.770667 0.766239
vt 0.770667 0.766239
vt 0.801902 0.735039
vt 0.801314 0.736890
vt 0.770667 0.766239
vt 0.801314 0.736890
vt 0.770234 0.768111

# polygons: 72
usemtl Material01_1
f 1/1/1 3/2/2 26/3/3
f 2/4/4 25/5/5 4/6/6
f 1/7/7 2/8/8 3/9/9
f 2/10/10 4/11/11 3/12/12
f 3/13/13 5/14/14 26/15/15
f 4/16/16 25/17/17 6/18/18
f 3/19/19 4/20/20 6/21/21
f 3/22/22 6/23/23 5/24/24
f 5/25/25 7/26/26 26/27/27
f 6/28/28 25/29/29 8/30/30
f 5/31/31 6/32/32 7/33/33
f 6/34/34 8/35/35 7/36/36
f 7/37/37 9/38/38 26/39/39
f 8/40/40 25/41/41 10/42/42
f 7/43/43 8/44/44 10/45/45
f 7/46/46 10/47/47 9/48/48
f 9/49/49 11/50/50 26/51/51
f 10/52/52 25/53/53 12/54/54
f 9/55/55 10/56/56 11/57/57
f 10/58/58 12/59/59 11/60/60
f 11/61/61 13/62/62 26/63/63
f 12/64/64 25/65/65 14/66/66
f 11/67/67 12/68/68 14/69/69
f 11/70/70 14/71/71 13/72/72
f 13/73/73 15/74/74 26/75/75
f 14/76/76 25/77/77 16/78/78
f 13/79/79 14/80/80 15/81/81
f 14/82/82 16/83/83 15/84/84
f 15/85/85 17/86/86 26/87/87
f 16/88/88 25/89/89 18/90/90
f 15/91/91 16/92/92 18/93/93
f 15/94/94 18/95/95 17/96/96
f 17/97/97 19/98/98 26/99/99
f 18/100/100 25/101/101 20/102/102
f 33/103/103 34/104/104 35/105/105
f 34/106/106 36/107/107 35/108/108
f 19/109/109 21/110/110 26/111/111
f 20/112/112 25/113/113 22/114/114
f 35/115/115 36/116/116 37/117/117
f 35/118/118 37/119/119 38/120/120
f 21/121/121 23/122/122 26/123/123
f 22/124/124 25/125/125 24/126/126
f 21/127/127 22/128/128 23/129/129
f 22/130/130 24/131/131 23/132/132
f 23/133/133 1/134/134 26/135/135
f 24/136/136 25/137/137 2/138/138
f 23/139/139 24/140/140 2/141/141
f 23/142/142 2/143/143 1/144/144
f 27/145/145 17/146/146 18/147/147
f 27/148/148 18/149/149 28/150/150
f 29/151/151 19/152/152 17/153/153
f 29/154/154 17/155/155 27/156/156
f 28/157/157 18/158/158 20/159/159
f 28/160/160 20/161/161 30/162/162
f 30/163/163 20/164/164 22/165/165
f 30/166/166 22/167/167 31/168/168
f 31/169/169 22/170/170 21/171/171
f 31/172/172 21/173/173 32/174/174
f 32/175/175 21/176/176 19/177/177
f 32/178/178 19/179/179 29/180/180
f 33/181/181 27/182/182 28/183/183
f 33/184/184 28/185/185 34/186/186
f 35/187/187 29/188/188 27/189/189
f 35/190/190 27/191/191 33/192/192
f 34/193/193 28/194/194 30/195/195
f 34/196/196 30/197/197 36/198/198
f 36/199/199 30/200/200 31/201/201
f 36/202/202 31/203/203 37/204/204
f 37/205/205 31/206/206 32/207/207
f 37/208/208 32/209/209 38/210/210
f 38/211/211 32/212/212 29/213/213
f 38/214/214 29/215/215 35/216/216

# object end 'Converted object 0(m1)'
