# created by: Biturn ver 0.88
# http://mirex.mypage.sk
# ------------------------------------
# 36 vertices, 60 polygons, 180 points, 1 materials


mtllib object_59.mtl

#-- object 'Converted object 0' --
# 36 vertices, 60 polygons, 180 points

g Converted object 0

# vertexs: 36
v 0.144411 -0.001785 0.546875
v 0.044411 9.550098 0.546875
v -0.005589 18.688917 0.546875
v -0.005589 27.827534 0.546875
v 0.044411 36.966385 0.546875
v 0.144411 46.105221 0.546875
v 0.074448 -0.001785 0.668054
v -0.025552 9.550098 0.668054
v -0.075552 18.688917 0.668054
v -0.075552 27.827534 0.668054
v -0.025552 36.966385 0.668054
v 0.074448 46.105221 0.668054
v -0.065478 -0.001785 0.668054
v -0.165478 9.550098 0.668054
v -0.215478 18.688917 0.668054
v -0.215478 27.827534 0.668054
v -0.165478 36.966385 0.668054
v -0.065478 46.105221 0.668054
v -0.135440 -0.001785 0.546875
v -0.235440 9.550098 0.546875
v -0.285440 18.688917 0.546875
v -0.285440 27.827534 0.546875
v -0.235440 36.966385 0.546875
v -0.135440 46.105221 0.546875
v -0.065478 -0.002537 0.425696
v -0.165478 9.550098 0.425696
v -0.215478 18.688917 0.425696
v -0.215478 27.827534 0.425696
v -0.165478 36.966385 0.425696
v -0.065478 46.105221 0.425696
v 0.074448 -0.002537 0.425696
v -0.025552 9.550098 0.425696
v -0.075552 18.688917 0.425696
v -0.075552 27.827534 0.425696
v -0.025552 36.966385 0.425696
v 0.074448 46.105221 0.425696

# normals: 180
vn 0.999945 0.010469 -0.000024
vn 0.999968 0.007970 -0.000006
vn 0.499983 0.005234 0.866019
vn 0.999968 0.007970 -0.000006
vn 0.499989 0.003985 0.866022
vn 0.499983 0.005234 0.866019
vn 0.999968 0.007970 -0.000006
vn 0.999996 0.002736 0.000000
vn 0.499998 0.001368 0.866025
vn 0.999968 0.007970 -0.000006
vn 0.499998 0.001368 0.866025
vn 0.499989 0.003985 0.866022
vn 0.999996 0.002736 0.000000
vn 0.999996 -0.002736 -0.000000
vn 0.499998 0.001368 0.866025
vn 0.999996 -0.002736 -0.000000
vn 0.499998 -0.001368 0.866025
vn 0.499998 0.001368 0.866025
vn 0.999996 -0.002736 -0.000000
vn 0.999966 -0.008206 0.000000
vn 0.499989 -0.004103 0.866022
vn 0.999996 -0.002736 -0.000000
vn 0.499989 -0.004103 0.866022
vn 0.499998 -0.001368 0.866025
vn 0.999966 -0.008206 0.000000
vn 0.999940 -0.010942 0.000000
vn 0.499989 -0.004103 0.866022
vn 0.999940 -0.010942 0.000000
vn 0.499981 -0.005471 0.866019
vn 0.499989 -0.004103 0.866022
vn 0.499983 0.005234 0.866019
vn 0.499989 0.003985 0.866022
vn -0.499989 -0.003985 0.866022
vn 0.499983 0.005234 0.866019
vn -0.499989 -0.003985 0.866022
vn -0.499983 -0.005234 0.866019
vn 0.499989 0.003985 0.866022
vn 0.499998 0.001368 0.866025
vn -0.499989 -0.003985 0.866022
vn 0.499998 0.001368 0.866025
vn -0.499998 -0.001368 0.866025
vn -0.499989 -0.003985 0.866022
vn 0.499998 0.001368 0.866025
vn 0.499998 -0.001368 0.866025
vn -0.499998 0.001368 0.866025
vn 0.499998 0.001368 0.866025
vn -0.499998 0.001368 0.866025
vn -0.499998 -0.001368 0.866025
vn 0.499998 -0.001368 0.866025
vn 0.499989 -0.004103 0.866022
vn -0.499998 0.001368 0.866025
vn 0.499989 -0.004103 0.866022
vn -0.499989 0.004103 0.866022
vn -0.499998 0.001368 0.866025
vn 0.499989 -0.004103 0.866022
vn 0.499981 -0.005471 0.866019
vn -0.499981 0.005471 0.866019
vn 0.499989 -0.004103 0.866022
vn -0.499981 0.005471 0.866019
vn -0.499989 0.004103 0.866022
vn -0.499983 -0.005234 0.866019
vn -0.499989 -0.003985 0.866022
vn -0.999945 -0.010468 0.000012
vn -0.499989 -0.003985 0.866022
vn -0.999968 -0.007970 0.000000
vn -0.999945 -0.010468 0.000012
vn -0.499989 -0.003985 0.866022
vn -0.499998 -0.001368 0.866025
vn -0.999996 -0.002736 0.000000
vn -0.499989 -0.003985 0.866022
vn -0.999996 -0.002736 0.000000
vn -0.999968 -0.007970 0.000000
vn -0.499998 -0.001368 0.866025
vn -0.499998 0.001368 0.866025
vn -0.999996 -0.002736 0.000000
vn -0.499998 0.001368 0.866025
vn -0.999996 0.002736 -0.000000
vn -0.999996 -0.002736 0.000000
vn -0.499998 0.001368 0.866025
vn -0.499989 0.004103 0.866022
vn -0.999966 0.008206 0.000000
vn -0.499998 0.001368 0.866025
vn -0.999966 0.008206 0.000000
vn -0.999996 0.002736 -0.000000
vn -0.499989 0.004103 0.866022
vn -0.499981 0.005471 0.866019
vn -0.999966 0.008206 0.000000
vn -0.499981 0.005471 0.866019
vn -0.999940 0.010942 0.000000
vn -0.999966 0.008206 0.000000
vn -0.999945 -0.010468 0.000012
vn -0.999968 -0.007970 0.000000
vn -0.499995 -0.003985 -0.866019
vn -0.999945 -0.010468 0.000012
vn -0.499995 -0.003985 -0.866019
vn -0.500004 -0.005234 -0.866007
vn -0.999968 -0.007970 0.000000
vn -0.999996 -0.002736 0.000000
vn -0.499995 -0.003985 -0.866019
vn -0.999996 -0.002736 0.000000
vn -0.499998 -0.001368 -0.866025
vn -0.499995 -0.003985 -0.866019
vn -0.999996 -0.002736 0.000000
vn -0.999996 0.002736 -0.000000
vn -0.499998 0.001368 -0.866025
vn -0.999996 -0.002736 0.000000
vn -0.499998 0.001368 -0.866025
vn -0.499998 -0.001368 -0.866025
vn -0.999996 0.002736 -0.000000
vn -0.999966 0.008206 0.000000
vn -0.499998 0.001368 -0.866025
vn -0.999966 0.008206 0.000000
vn -0.499989 0.004103 -0.866022
vn -0.499998 0.001368 -0.866025
vn -0.999966 0.008206 0.000000
vn -0.999940 0.010942 0.000000
vn -0.499981 0.005471 -0.866019
vn -0.999966 0.008206 0.000000
vn -0.499981 0.005471 -0.866019
vn -0.499989 0.004103 -0.866022
vn -0.500004 -0.005234 -0.866007
vn -0.499995 -0.003985 -0.866019
vn 0.499972 0.005234 -0.866026
vn -0.499995 -0.003985 -0.866019
vn 0.499989 0.003985 -0.866022
vn 0.499972 0.005234 -0.866026
vn -0.499995 -0.003985 -0.866019
vn -0.499998 -0.001368 -0.866025
vn 0.499998 0.001368 -0.866025
vn -0.499995 -0.003985 -0.866019
vn 0.499998 0.001368 -0.866025
vn 0.499989 0.003985 -0.866022
vn -0.499998 -0.001368 -0.866025
vn -0.499998 0.001368 -0.866025
vn 0.499998 0.001368 -0.866025
vn -0.499998 0.001368 -0.866025
vn 0.499998 -0.001368 -0.866025
vn 0.499998 0.001368 -0.866025
vn -0.499998 0.001368 -0.866025
vn -0.499989 0.004103 -0.866022
vn 0.499989 -0.004103 -0.866022
vn -0.499998 0.001368 -0.866025
vn 0.499989 -0.004103 -0.866022
vn 0.499998 -0.001368 -0.866025
vn -0.499989 0.004103 -0.866022
vn -0.499981 0.005471 -0.866019
vn 0.499989 -0.004103 -0.866022
vn -0.499981 0.005471 -0.866019
vn 0.499981 -0.005471 -0.866019
vn 0.499989 -0.004103 -0.866022
vn 0.499972 0.005234 -0.866026
vn 0.499989 0.003985 -0.866022
vn 0.999968 0.007970 -0.000006
vn 0.499972 0.005234 -0.866026
vn 0.999968 0.007970 -0.000006
vn 0.999945 0.010469 -0.000024
vn 0.499989 0.003985 -0.866022
vn 0.499998 0.001368 -0.866025
vn 0.999968 0.007970 -0.000006
vn 0.499998 0.001368 -0.866025
vn 0.999996 0.002736 0.000000
vn 0.999968 0.007970 -0.000006
vn 0.499998 0.001368 -0.866025
vn 0.499998 -0.001368 -0.866025
vn 0.999996 -0.002736 -0.000000
vn 0.499998 0.001368 -0.866025
vn 0.999996 -0.002736 -0.000000
vn 0.999996 0.002736 0.000000
vn 0.499998 -0.001368 -0.866025
vn 0.499989 -0.004103 -0.866022
vn 0.999996 -0.002736 -0.000000
vn 0.499989 -0.004103 -0.866022
vn 0.999966 -0.008206 0.000000
vn 0.999996 -0.002736 -0.000000
vn 0.499989 -0.004103 -0.866022
vn 0.499981 -0.005471 -0.866019
vn 0.999940 -0.010942 0.000000
vn 0.499989 -0.004103 -0.866022
vn 0.999940 -0.010942 0.000000
vn 0.999966 -0.008206 0.000000

# texture coords: 180
vt 0.071551 0.968026
vt 0.071551 0.973803
vt 0.081379 0.968026
vt 0.071551 0.973803
vt 0.081379 0.973803
vt 0.081379 0.968026
vt 0.071551 0.973803
vt 0.071551 0.979581
vt 0.081379 0.979581
vt 0.071551 0.973803
vt 0.081379 0.979581
vt 0.081379 0.973803
vt 0.071551 0.979581
vt 0.071551 0.985358
vt 0.081379 0.979581
vt 0.071551 0.985358
vt 0.081379 0.985358
vt 0.081379 0.979581
vt 0.071551 0.985358
vt 0.071551 0.991135
vt 0.081379 0.991135
vt 0.071551 0.985358
vt 0.081379 0.991135
vt 0.081379 0.985358
vt 0.071551 0.991135
vt 0.071551 0.996912
vt 0.081379 0.991135
vt 0.071551 0.996912
vt 0.081379 0.996912
vt 0.081379 0.991135
vt 0.081379 0.968026
vt 0.081379 0.973803
vt 0.091207 0.973803
vt 0.081379 0.968026
vt 0.091207 0.973803
vt 0.091207 0.968026
vt 0.081379 0.973803
vt 0.081379 0.979581
vt 0.091207 0.973803
vt 0.081379 0.979581
vt 0.091207 0.979581
vt 0.091207 0.973803
vt 0.081379 0.979581
vt 0.081379 0.985358
vt 0.091207 0.985358
vt 0.081379 0.979581
vt 0.091207 0.985358
vt 0.091207 0.979581
vt 0.081379 0.985358
vt 0.081379 0.991135
vt 0.091207 0.985358
vt 0.081379 0.991135
vt 0.091207 0.991135
vt 0.091207 0.985358
vt 0.081379 0.991135
vt 0.081379 0.996912
vt 0.091207 0.996912
vt 0.081379 0.991135
vt 0.091207 0.996912
vt 0.091207 0.991135
vt 0.091207 0.968026
vt 0.091207 0.973803
vt 0.101035 0.968026
vt 0.091207 0.973803
vt 0.101035 0.973803
vt 0.101035 0.968026
vt 0.091207 0.973803
vt 0.091207 0.979581
vt 0.101035 0.979581
vt 0.091207 0.973803
vt 0.101035 0.979581
vt 0.101035 0.973803
vt 0.091207 0.979581
vt 0.091207 0.985358
vt 0.101035 0.979581
vt 0.091207 0.985358
vt 0.101035 0.985358
vt 0.101035 0.979581
vt 0.091207 0.985358
vt 0.091207 0.991135
vt 0.101035 0.991135
vt 0.091207 0.985358
vt 0.101035 0.991135
vt 0.101035 0.985358
vt 0.091207 0.991135
vt 0.091207 0.996912
vt 0.101035 0.991135
vt 0.091207 0.996912
vt 0.101035 0.996912
vt 0.101035 0.991135
vt 0.101035 0.968026
vt 0.101035 0.973803
vt 0.110863 0.973803
vt 0.101035 0.968026
vt 0.110863 0.973803
vt 0.110863 0.968026
vt 0.101035 0.973803
vt 0.101035 0.979581
vt 0.110863 0.973803
vt 0.101035 0.979581
vt 0.110863 0.979581
vt 0.110863 0.973803
vt 0.101035 0.979581
vt 0.101035 0.985358
vt 0.110863 0.985358
vt 0.101035 0.979581
vt 0.110863 0.985358
vt 0.110863 0.979581
vt 0.101035 0.985358
vt 0.101035 0.991135
vt 0.110863 0.985358
vt 0.101035 0.991135
vt 0.110863 0.991135
vt 0.110863 0.985358
vt 0.101035 0.991135
vt 0.101035 0.996912
vt 0.110863 0.996912
vt 0.101035 0.991135
vt 0.110863 0.996912
vt 0.110863 0.991135
vt 0.110863 0.968026
vt 0.110863 0.973803
vt 0.120690 0.968026
vt 0.110863 0.973803
vt 0.120690 0.973803
vt 0.120690 0.968026
vt 0.110863 0.973803
vt 0.110863 0.979581
vt 0.120690 0.979581
vt 0.110863 0.973803
vt 0.120690 0.979581
vt 0.120690 0.973803
vt 0.110863 0.979581
vt 0.110863 0.985358
vt 0.120690 0.979581
vt 0.110863 0.985358
vt 0.120690 0.985358
vt 0.120690 0.979581
vt 0.110863 0.985358
vt 0.110863 0.991135
vt 0.120690 0.991135
vt 0.110863 0.985358
vt 0.120690 0.991135
vt 0.120690 0.985358
vt 0.110863 0.991135
vt 0.110863 0.996912
vt 0.120690 0.991135
vt 0.110863 0.996912
vt 0.120690 0.996912
vt 0.120690 0.991135
vt 0.120690 0.968026
vt 0.120690 0.973803
vt 0.130518 0.973803
vt 0.120690 0.968026
vt 0.130518 0.973803
vt 0.130518 0.968026
vt 0.120690 0.973803
vt 0.120690 0.979581
vt 0.130518 0.973803
vt 0.120690 0.979581
vt 0.130518 0.979581
vt 0.130518 0.973803
vt 0.120690 0.979581
vt 0.120690 0.985358
vt 0.130518 0.985358
vt 0.120690 0.979581
vt 0.130518 0.985358
vt 0.130518 0.979581
vt 0.120690 0.985358
vt 0.120690 0.991135
vt 0.130518 0.985358
vt 0.120690 0.991135
vt 0.130518 0.991135
vt 0.130518 0.985358
vt 0.120690 0.991135
vt 0.120690 0.996912
vt 0.130518 0.996912
vt 0.120690 0.991135
vt 0.130518 0.996912
vt 0.130518 0.991135

# polygons: 60
usemtl WhiteKey1
f 1/1/1 2/2/2 7/3/3
f 2/4/4 8/5/5 7/6/6
f 2/7/7 3/8/8 9/9/9
f 2/10/10 9/11/11 8/12/12
f 3/13/13 4/14/14 9/15/15
f 4/16/16 10/17/17 9/18/18
f 4/19/19 5/20/20 11/21/21
f 4/22/22 11/23/23 10/24/24
f 5/25/25 6/26/26 11/27/27
f 6/28/28 12/29/29 11/30/30
f 7/31/31 8/32/32 14/33/33
f 7/34/34 14/35/35 13/36/36
f 8/37/37 9/38/38 14/39/39
f 9/40/40 15/41/41 14/42/42
f 9/43/43 10/44/44 16/45/45
f 9/46/46 16/47/47 15/48/48
f 10/49/49 11/50/50 16/51/51
f 11/52/52 17/53/53 16/54/54
f 11/55/55 12/56/56 18/57/57
f 11/58/58 18/59/59 17/60/60
f 13/61/61 14/62/62 19/63/63
f 14/64/64 20/65/65 19/66/66
f 14/67/67 15/68/68 21/69/69
f 14/70/70 21/71/71 20/72/72
f 15/73/73 16/74/74 21/75/75
f 16/76/76 22/77/77 21/78/78
f 16/79/79 17/80/80 23/81/81
f 16/82/82 23/83/83 22/84/84
f 17/85/85 18/86/86 23/87/87
f 18/88/88 24/89/89 23/90/90
f 19/91/91 20/92/92 26/93/93
f 19/94/94 26/95/95 25/96/96
f 20/97/97 21/98/98 26/99/99
f 21/100/100 27/101/101 26/102/102
f 21/103/103 22/104/104 28/105/105
f 21/106/106 28/107/107 27/108/108
f 22/109/109 23/110/110 28/111/111
f 23/112/112 29/113/113 28/114/114
f 23/115/115 24/116/116 30/117/117
f 23/118/118 30/119/119 29/120/120
f 25/121/121 26/122/122 31/123/123
f 26/124/124 32/125/125 31/126/126
f 26/127/127 27/128/128 33/129/129
f 26/130/130 33/131/131 32/132/132
f 27/133/133 28/134/134 33/135/135
f 28/136/136 34/137/137 33/138/138
f 28/139/139 29/140/140 35/141/141
f 28/142/142 35/143/143 34/144/144
f 29/145/145 30/146/146 35/147/147
f 30/148/148 36/149/149 35/150/150
f 31/151/151 32/152/152 2/153/153
f 31/154/154 2/155/155 1/156/156
f 32/157/157 33/158/158 2/159/159
f 33/160/160 3/161/161 2/162/162
f 33/163/163 34/164/164 4/165/165
f 33/166/166 4/167/167 3/168/168
f 34/169/169 35/170/170 4/171/171
f 35/172/172 5/173/173 4/174/174
f 35/175/175 36/176/176 6/177/177
f 35/178/178 6/179/179 5/180/180

# object end 'Converted object 0'
