# created by: Biturn ver 0.88
# http://mirex.mypage.sk
# ------------------------------------
# 16 vertices, 28 polygons, 84 points, 1 materials


mtllib object_65.mtl

#-- object 'Converted object 0' --
# 16 vertices, 28 polygons, 84 points

g Converted object 0

# vertexs: 16
v -1.375000 0.000000 2.200000
v -1.375000 -1.100000 2.058974
v 1.375000 0.000000 2.200000
v 1.375000 -1.100000 2.058974
v 0.935000 0.000000 -2.200000
v 0.935000 -0.592308 -2.284615
v -0.935000 0.000000 -2.200000
v -0.935000 -0.592308 -2.284615
v -1.155000 -0.110000 2.185894
v -1.155000 -0.990000 2.073047
v 1.155000 -0.110000 2.185894
v 1.155000 -0.990000 2.073047
v -0.725553 -0.074347 -2.111927
v -0.725553 -0.524934 -2.169711
v 0.725553 -0.074347 -2.111927
v 0.725553 -0.524934 -2.169711

# normals: 84
vn 0.000000 -0.127200 0.991877
vn 0.000000 -0.127200 0.991877
vn 0.000000 -0.127200 0.991877
vn 0.000000 -0.127200 0.991877
vn 0.000000 -0.127200 0.991877
vn 0.000000 -0.127200 0.991877
vn 0.994956 0.012756 -0.099496
vn 0.994965 0.013459 -0.099315
vn 0.994965 0.013459 -0.099315
vn 0.994965 0.013459 -0.099315
vn 0.994973 0.014162 -0.099134
vn 0.994965 0.013459 -0.099315
vn 0.000000 0.141421 -0.989950
vn 0.000000 0.141421 -0.989950
vn 0.000000 0.141421 -0.989950
vn 0.000000 0.141421 -0.989950
vn 0.000000 0.141421 -0.989950
vn 0.000000 0.141421 -0.989950
vn -0.994937 0.014213 -0.099494
vn -0.994957 0.013472 -0.099398
vn -0.994957 0.013472 -0.099398
vn -0.994957 0.013472 -0.099398
vn -0.994976 0.012731 -0.099302
vn -0.994957 0.013472 -0.099398
vn 0.000000 1.000000 0.000000
vn 0.000000 1.000000 0.000000
vn 0.000000 1.000000 0.000000
vn 0.000000 1.000000 0.000000
vn 0.000000 1.000000 0.000000
vn 0.000000 1.000000 0.000000
vn 0.000000 -0.993238 -0.116093
vn 0.000000 -0.993238 -0.116093
vn 0.000000 -0.993238 -0.116093
vn 0.000000 -0.993238 -0.116093
vn 0.000000 -0.993238 -0.116093
vn 0.000000 -0.993238 -0.116093
vn 0.000054 -0.127184 0.991879
vn 0.000005 -0.127183 0.991879
vn 0.000054 -0.127087 0.991892
vn 0.000054 -0.127184 0.991879
vn 0.000054 -0.127087 0.991892
vn 0.000049 -0.127000 0.991903
vn 0.000000 -0.127193 0.991878
vn -0.000044 -0.127184 0.991879
vn 0.000005 -0.127183 0.991879
vn 0.000000 -0.127193 0.991878
vn 0.000005 -0.127183 0.991879
vn 0.000054 -0.127184 0.991879
vn 0.000049 -0.127000 0.991903
vn 0.000054 -0.127087 0.991892
vn -0.000044 -0.126990 0.991904
vn 0.000049 -0.127000 0.991903
vn -0.000044 -0.126990 0.991904
vn -0.000044 -0.127087 0.991892
vn -0.000044 -0.127087 0.991892
vn -0.000044 -0.126990 0.991904
vn -0.000044 -0.127184 0.991879
vn -0.000044 -0.127087 0.991892
vn -0.000044 -0.127184 0.991879
vn 0.000000 -0.127193 0.991878
vn 0.885722 -0.456420 0.084717
vn 0.442861 -0.895834 0.036820
vn 0.890588 0.433478 0.137660
vn 0.885722 -0.456420 0.084717
vn 0.890588 0.433478 0.137660
vn 0.445294 0.884057 0.141977
vn -0.442861 -0.895834 0.036820
vn -0.885722 -0.456420 0.084717
vn 0.442861 -0.895834 0.036820
vn -0.442861 -0.895834 0.036820
vn 0.442861 -0.895834 0.036820
vn 0.885722 -0.456420 0.084717
vn 0.445294 0.884057 0.141977
vn 0.890588 0.433478 0.137660
vn -0.445294 0.884057 0.141977
vn 0.445294 0.884057 0.141977
vn -0.445294 0.884057 0.141977
vn -0.890588 0.433478 0.137660
vn -0.890588 0.433478 0.137660
vn -0.445294 0.884057 0.141977
vn -0.885722 -0.456420 0.084717
vn -0.890588 0.433478 0.137660
vn -0.885722 -0.456420 0.084717
vn -0.442861 -0.895834 0.036820

# texture coords: 84
vt 0.244559 0.946141
vt 0.244672 0.803065
vt 0.772088 0.945045
vt 0.244672 0.803065
vt 0.772201 0.801968
vt 0.772088 0.945045
vt 0.999723 0.365718
vt 1.000000 0.016425
vt 0.848402 0.982161
vt 1.000000 0.016425
vt 0.848568 0.795296
vt 0.848402 0.982161
vt 0.848402 0.982161
vt 0.848568 0.795296
vt 0.168591 0.983575
vt 0.848568 0.795296
vt 0.168757 0.796709
vt 0.168591 0.983575
vt 0.168591 0.983575
vt 0.168757 0.796709
vt 0.000000 0.367797
vt 0.168757 0.796709
vt 0.000277 0.018504
vt 0.000000 0.367797
vt 0.168591 0.983575
vt 0.000000 0.367797
vt 0.848402 0.982161
vt 0.000000 0.367797
vt 0.999723 0.365718
vt 0.848402 0.982161
vt 0.000277 0.018504
vt 0.168757 0.796709
vt 1.000000 0.016425
vt 0.168757 0.796709
vt 0.848568 0.795296
vt 1.000000 0.016425
vt 0.080006 0.332702
vt 0.000000 0.367797
vt 0.000277 0.018504
vt 0.080006 0.332702
vt 0.000277 0.018504
vt 0.080227 0.053271
vt 0.919773 0.330956
vt 0.999723 0.365718
vt 0.000000 0.367797
vt 0.919773 0.330956
vt 0.000000 0.367797
vt 0.080006 0.332702
vt 0.080227 0.053271
vt 0.000277 0.018504
vt 1.000000 0.016425
vt 0.080227 0.053271
vt 1.000000 0.016425
vt 0.919994 0.051525
vt 0.919994 0.051525
vt 1.000000 0.016425
vt 0.999723 0.365718
vt 0.919994 0.051525
vt 0.999723 0.365718
vt 0.919773 0.330956
vt 0.244559 0.946141
vt 0.080006 0.332702
vt 0.080227 0.053271
vt 0.244559 0.946141
vt 0.080227 0.053271
vt 0.244672 0.803065
vt 0.772088 0.945045
vt 0.919773 0.330956
vt 0.080006 0.332702
vt 0.772088 0.945045
vt 0.080006 0.332702
vt 0.244559 0.946141
vt 0.244672 0.803065
vt 0.080227 0.053271
vt 0.919994 0.051525
vt 0.244672 0.803065
vt 0.919994 0.051525
vt 0.772201 0.801968
vt 0.772201 0.801968
vt 0.919994 0.051525
vt 0.919773 0.330956
vt 0.772201 0.801968
vt 0.919773 0.330956
vt 0.772088 0.945045

# polygons: 28
usemtl DrumShell
f 13/1/1 14/2/2 15/3/3
f 14/4/4 16/5/5 15/6/6
f 3/7/7 4/8/8 5/9/9
f 4/10/10 6/11/11 5/12/12
f 5/13/13 6/14/14 7/15/15
f 6/16/16 8/17/17 7/18/18
f 7/19/19 8/20/20 1/21/21
f 8/22/22 2/23/23 1/24/24
f 7/25/25 1/26/26 5/27/27
f 1/28/28 3/29/29 5/30/30
f 2/31/31 8/32/32 4/33/33
f 8/34/34 6/35/35 4/36/36
f 9/37/37 1/38/38 2/39/39
f 9/40/40 2/41/41 10/42/42
f 11/43/43 3/44/44 1/45/45
f 11/46/46 1/47/47 9/48/48
f 10/49/49 2/50/50 4/51/51
f 10/52/52 4/53/53 12/54/54
f 12/55/55 4/56/56 3/57/57
f 12/58/58 3/59/59 11/60/60
f 13/61/61 9/62/62 10/63/63
f 13/64/64 10/65/65 14/66/66
f 15/67/67 11/68/68 9/69/69
f 15/70/70 9/71/71 13/72/72
f 14/73/73 10/74/74 12/75/75
f 14/76/76 12/77/77 16/78/78
f 16/79/79 12/80/80 11/81/81
f 16/82/82 11/83/83 15/84/84

# object end 'Converted object 0'
