# Wavefront OBJ exported by MilkShape 3D



v 0.499500 -0.000000 -0.000000
v 0.499500 -0.000000 3.588750
v -0.499500 -0.000000 -0.000000
v -0.499500 -0.000000 3.588750
v -0.499500 0.971429 -0.000000
v -0.499500 0.971429 3.588750
v 0.499500 0.971429 -0.000000
v 0.499500 0.971429 3.588750
# 8 vertices

vt 0.170592 0.252435
vt 0.170592 0.123678
vt 0.196344 0.252435
vt 0.196344 0.123678
vt 0.089297 0.252432
vt 0.089297 0.126469
vt 0.123287 0.252432
vt 0.123287 0.126469
vt 0.082620 0.252446
vt 0.082620 0.126483
vt 0.007043 0.252446
vt 0.007043 0.126483
vt 0.129290 0.251623
vt 0.129290 0.126920
vt 0.162940 0.251623
vt 0.162940 0.126920
vt 0.200103 0.073476
vt 0.200103 0.010976
vt 0.246426 0.073476
vt 0.246426 0.010976
# 20 texture coordinates

vn 0.000000 -1.000000 0.000000
vn -1.000000 0.000000 0.000000
vn 0.000000 1.000000 0.000000
vn 1.000000 0.000000 0.000000
vn 0.000000 0.000000 -1.000000
# 5 normals

g Duplicate03
usemtl WhiteKey1
s 5
f 1/1/1 2/2/1 3/3/1
f 2/2/1 4/4/1 3/3/1
s 2
f 3/5/2 4/6/2 5/7/2
f 4/6/2 6/8/2 5/7/2
s 4
f 5/9/3 6/10/3 7/11/3
f 6/10/3 8/12/3 7/11/3
s 3
f 7/13/4 8/14/4 1/15/4
f 8/14/4 2/16/4 1/15/4
s 7
f 7/17/5 1/18/5 5/19/5
f 1/18/5 3/20/5 5/19/5
# 10 triangles in group

# 10 triangles total

