# created by: Biturn ver 0.88
# http://mirex.mypage.sk
# ------------------------------------
# 8 vertices, 10 polygons, 30 points, 1 materials


mtllib object_170.mtl

#-- object 'Converted object 0' --
# 8 vertices, 10 polygons, 30 points

g Converted object 0

# vertexs: 8
v 0.499500 -0.000000 -0.000000
v 0.499500 -0.000000 3.588750
v -0.499500 -0.000000 -0.000000
v -0.499500 -0.000000 3.588750
v -0.499500 0.971429 -0.000000
v -0.499500 0.971429 3.588750
v 0.499500 0.971429 -0.000000
v 0.499500 0.971429 3.588750

# normals: 30
vn 0.000000 -1.000000 0.000000
vn 0.000000 -1.000000 0.000000
vn 0.000000 -1.000000 0.000000
vn 0.000000 -1.000000 0.000000
vn 0.000000 -1.000000 0.000000
vn 0.000000 -1.000000 0.000000
vn -1.000000 0.000000 0.000000
vn -1.000000 0.000000 0.000000
vn -1.000000 0.000000 0.000000
vn -1.000000 0.000000 0.000000
vn -1.000000 0.000000 0.000000
vn -1.000000 0.000000 0.000000
vn 0.000000 1.000000 0.000000
vn 0.000000 1.000000 0.000000
vn 0.000000 1.000000 0.000000
vn 0.000000 1.000000 0.000000
vn 0.000000 1.000000 0.000000
vn 0.000000 1.000000 0.000000
vn 1.000000 0.000000 0.000000
vn 1.000000 0.000000 0.000000
vn 1.000000 0.000000 0.000000
vn 1.000000 0.000000 0.000000
vn 1.000000 0.000000 0.000000
vn 1.000000 0.000000 0.000000
vn 0.000000 0.000000 -1.000000
vn 0.000000 0.000000 -1.000000
vn 0.000000 0.000000 -1.000000
vn 0.000000 0.000000 -1.000000
vn 0.000000 0.000000 -1.000000
vn 0.000000 0.000000 -1.000000

# texture coords: 30
vt 0.420200 0.252078
vt 0.420200 0.123320
vt 0.445951 0.252078
vt 0.420200 0.123320
vt 0.445951 0.123320
vt 0.445951 0.252078
vt 0.338791 0.252074
vt 0.338791 0.126111
vt 0.372781 0.252074
vt 0.338791 0.126111
vt 0.372781 0.126111
vt 0.372781 0.252074
vt 0.332215 0.252088
vt 0.332215 0.126125
vt 0.256638 0.252088
vt 0.332215 0.126125
vt 0.256638 0.126125
vt 0.256638 0.252088
vt 0.379360 0.251266
vt 0.379360 0.126563
vt 0.413010 0.251266
vt 0.379360 0.126563
vt 0.413010 0.126563
vt 0.413010 0.251266
vt 0.450173 0.073119
vt 0.450173 0.010618
vt 0.496496 0.073119
vt 0.450173 0.010618
vt 0.496496 0.010618
vt 0.496496 0.073119

# polygons: 10
usemtl WhiteKey1
f 1/1/1 2/2/2 3/3/3
f 2/4/4 4/5/5 3/6/6
f 3/7/7 4/8/8 5/9/9
f 4/10/10 6/11/11 5/12/12
f 5/13/13 6/14/14 7/15/15
f 6/16/16 8/17/17 7/18/18
f 7/19/19 8/20/20 1/21/21
f 8/22/22 2/23/23 1/24/24
f 7/25/25 1/26/26 5/27/27
f 1/28/28 3/29/29 5/30/30

# object end 'Converted object 0'
