# created by: Biturn ver 0.88
# http://mirex.mypage.sk
# ------------------------------------
# 8 vertices, 12 polygons, 36 points, 1 materials


mtllib object_276.mtl

#-- object 'Converted object 0' --
# 8 vertices, 12 polygons, 36 points

g Converted object 0

# vertexs: 8
v -0.900000 0.744445 13.000000
v -0.900000 -0.003489 13.000000
v 0.900000 0.744445 13.000000
v 0.900000 -0.003489 13.000000
v 0.900000 0.744445 0.000000
v 0.900000 -0.003489 0.000000
v -0.900000 0.744445 0.000000
v -0.900000 -0.003489 0.000000

# normals: 36
vn 0.000000 0.000000 1.000000
vn 0.000000 0.000000 1.000000
vn 0.000000 0.000000 1.000000
vn 0.000000 0.000000 1.000000
vn 0.000000 0.000000 1.000000
vn 0.000000 0.000000 1.000000
vn 1.000000 0.000000 0.000000
vn 1.000000 0.000000 0.000000
vn 1.000000 0.000000 0.000000
vn 1.000000 0.000000 0.000000
vn 1.000000 0.000000 0.000000
vn 1.000000 0.000000 0.000000
vn 0.000000 0.000000 -1.000000
vn 0.000000 0.000000 -1.000000
vn 0.000000 0.000000 -1.000000
vn 0.000000 0.000000 -1.000000
vn 0.000000 0.000000 -1.000000
vn 0.000000 0.000000 -1.000000
vn -1.000000 0.000000 0.000000
vn -1.000000 0.000000 0.000000
vn -1.000000 0.000000 0.000000
vn -1.000000 0.000000 0.000000
vn -1.000000 0.000000 0.000000
vn -1.000000 0.000000 0.000000
vn 0.000000 1.000000 0.000000
vn 0.000000 1.000000 0.000000
vn 0.000000 1.000000 0.000000
vn 0.000000 1.000000 0.000000
vn 0.000000 1.000000 0.000000
vn 0.000000 1.000000 0.000000
vn 0.000000 -1.000000 0.000000
vn 0.000000 -1.000000 0.000000
vn 0.000000 -1.000000 0.000000
vn 0.000000 -1.000000 0.000000
vn 0.000000 -1.000000 0.000000
vn 0.000000 -1.000000 0.000000

# texture coords: 36
vt 0.018001 0.044452
vt 0.018001 0.009204
vt 0.106117 0.044452
vt 0.018001 0.009204
vt 0.106117 0.009204
vt 0.106117 0.044452
vt 0.220859 0.051179
vt 0.230650 0.051179
vt 0.220859 0.958275
vt 0.230650 0.051179
vt 0.230650 0.958275
vt 0.220859 0.958275
vt 0.110139 0.996814
vt 0.110139 0.966536
vt 0.216196 0.996814
vt 0.110139 0.966536
vt 0.216196 0.966536
vt 0.216196 0.996814
vt 0.230649 0.958307
vt 0.220858 0.958307
vt 0.230649 0.051211
vt 0.220858 0.958307
vt 0.220858 0.051211
vt 0.230649 0.051211
vt 0.018000 0.960895
vt 0.018000 0.044452
vt 0.106117 0.960896
vt 0.018001 0.044452
vt 0.106117 0.044452
vt 0.106117 0.960895
vt 0.216196 0.033948
vt 0.216196 0.966536
vt 0.110139 0.033948
vt 0.216196 0.966536
vt 0.110139 0.966536
vt 0.110139 0.033948

# polygons: 12
usemtl WhiteKey1
f 1/1/1 2/2/2 3/3/3
f 2/4/4 4/5/5 3/6/6
f 3/7/7 4/8/8 5/9/9
f 4/10/10 6/11/11 5/12/12
f 5/13/13 6/14/14 7/15/15
f 6/16/16 8/17/17 7/18/18
f 7/19/19 8/20/20 1/21/21
f 8/22/22 2/23/23 1/24/24
f 7/25/25 1/26/26 5/27/27
f 1/28/28 3/29/29 5/30/30
f 2/31/31 8/32/32 4/33/33
f 8/34/34 6/35/35 4/36/36

# object end 'Converted object 0'
