# created by: Biturn ver 0.88
# http://mirex.mypage.sk
# ------------------------------------
# 60 vertices, 72 polygons, 216 points, 1 materials




#-- object 'Converted object 0' --
# 60 vertices, 72 polygons, 216 points

g Converted object 0

# vertexs: 60
v -0.000000 -0.002746 3.925317
v -0.000000 0.017045 0.357994
v 0.000000 -0.167776 -0.001395
v -0.455625 -0.122588 3.902023
v -0.125000 -0.015834 0.351604
v 0.000000 -0.167776 -0.001395
v -0.789166 -0.450000 3.838380
v -0.216506 -0.105659 0.334143
v 0.000000 -0.167776 -0.001395
v -0.911250 -0.897254 3.751442
v -0.250000 -0.228362 0.310292
v 0.000000 -0.167776 -0.001395
v -0.789166 -1.344508 3.664505
v -0.216506 -0.351066 0.286441
v 0.000000 -0.167776 -0.001395
v -0.455625 -1.671921 3.600863
v -0.125000 -0.440890 0.268981
v 0.000000 -0.167776 -0.001395
v -0.000000 -1.791762 3.577568
v -0.000000 -0.473769 0.262590
v 0.000000 -0.167776 -0.001395
v 0.455625 -1.671921 3.600863
v 0.125000 -0.440890 0.268981
v 0.000000 -0.167776 -0.001395
v 0.789166 -1.344508 3.664505
v 0.216506 -0.351066 0.286441
v 0.000000 -0.167776 -0.001395
v 0.911250 -0.897254 3.751442
v 0.250000 -0.228362 0.310292
v 0.000000 -0.167776 -0.001395
v 0.789166 -0.450000 3.838380
v 0.216506 -0.105659 0.334143
v 0.000000 -0.167776 -0.001395
v 0.455625 -0.122588 3.902023
v 0.125000 -0.015834 0.351604
v 0.000000 -0.167776 -0.001395
v -0.000000 -0.378889 1.084687
v -0.000000 -0.002746 3.925317
v -0.000000 -0.378889 1.084687
v -0.455625 -0.122588 3.902023
v -0.000000 -0.378889 1.084687
v -0.789166 -0.450000 3.838380
v -0.000000 -0.378889 1.084687
v -0.911250 -0.897254 3.751442
v -0.000000 -0.378889 1.084687
v -0.789166 -1.344508 3.664505
v -0.000000 -0.378889 1.084687
v -0.455625 -1.671921 3.600863
v -0.000000 -0.378889 1.084687
v -0.000000 -1.791762 3.577568
v -0.000000 -0.378889 1.084687
v 0.455625 -1.671921 3.600863
v -0.000000 -0.378889 1.084687
v 0.789166 -1.344508 3.664505
v -0.000000 -0.378889 1.084687
v 0.911250 -0.897254 3.751442
v -0.000000 -0.378889 1.084687
v 0.789166 -0.450000 3.838380
v -0.000000 -0.378889 1.084687
v 0.455625 -0.122588 3.902023

# normals: 216
vn -0.000000 0.999985 0.005548
vn 0.000000 0.972241 -0.233983
vn -0.470283 0.864389 -0.177948
vn -0.000000 0.999985 0.005548
vn -0.470283 0.864389 -0.177948
vn -0.491335 0.870751 -0.019573
vn 0.000000 0.972241 -0.233983
vn 0.000000 0.889296 -0.457332
vn -0.470283 0.864389 -0.177948
vn 0.000000 0.889296 -0.457332
vn 0.000000 0.000000 0.000000
vn -0.470283 0.864389 -0.177948
vn -0.491335 0.870751 -0.019573
vn -0.470283 0.864389 -0.177948
vn -0.851017 0.517677 -0.088203
vn -0.470283 0.864389 -0.177948
vn -0.787851 0.525732 -0.320775
vn -0.851017 0.517677 -0.088203
vn -0.470283 0.864389 -0.177948
vn 0.000000 0.000000 0.000000
vn -0.680431 0.503667 -0.532291
vn -0.470283 0.864389 -0.177948
vn -0.680431 0.503667 -0.532291
vn -0.787851 0.525732 -0.320775
vn -0.851017 0.517677 -0.088203
vn -0.787851 0.525732 -0.320775
vn -0.940566 0.064801 -0.333372
vn -0.851017 0.517677 -0.088203
vn -0.940566 0.064801 -0.333372
vn -0.982671 0.035369 -0.181955
vn -0.787851 0.525732 -0.320775
vn -0.680431 0.503667 -0.532291
vn -0.940566 0.064801 -0.333372
vn -0.680431 0.503667 -0.532291
vn 0.000000 0.000000 0.000000
vn -0.940566 0.064801 -0.333372
vn -0.982671 0.035369 -0.181955
vn -0.940566 0.064801 -0.333372
vn -0.851018 -0.446940 -0.275706
vn -0.940566 0.064801 -0.333372
vn -0.787851 -0.367286 -0.494360
vn -0.851018 -0.446940 -0.275706
vn -0.940566 0.064801 -0.333372
vn 0.000000 0.000000 0.000000
vn -0.680431 -0.267592 -0.682208
vn -0.940566 0.064801 -0.333372
vn -0.680431 -0.267592 -0.682208
vn -0.787851 -0.367286 -0.494360
vn -0.851018 -0.446940 -0.275706
vn -0.787851 -0.367286 -0.494360
vn -0.470283 -0.734787 -0.488796
vn -0.851018 -0.446940 -0.275706
vn -0.470283 -0.734787 -0.488796
vn -0.491335 -0.800014 -0.344337
vn -0.787851 -0.367286 -0.494360
vn -0.680431 -0.267592 -0.682208
vn -0.470283 -0.734787 -0.488796
vn -0.680431 -0.267592 -0.682208
vn 0.000000 0.000000 0.000000
vn -0.470283 -0.734787 -0.488796
vn -0.491335 -0.800014 -0.344337
vn -0.470283 -0.734787 -0.488796
vn -0.000000 -0.929248 -0.369457
vn -0.470283 -0.734787 -0.488796
vn 0.000000 -0.813795 -0.581153
vn -0.000000 -0.929248 -0.369457
vn -0.470283 -0.734787 -0.488796
vn 0.000000 0.000000 0.000000
vn 0.000000 -0.653221 -0.757167
vn -0.470283 -0.734787 -0.488796
vn 0.000000 -0.653221 -0.757167
vn 0.000000 -0.813795 -0.581153
vn -0.000000 -0.929248 -0.369457
vn 0.000000 -0.813795 -0.581153
vn 0.470283 -0.734787 -0.488796
vn -0.000000 -0.929248 -0.369457
vn 0.470283 -0.734787 -0.488796
vn 0.491335 -0.800014 -0.344337
vn 0.000000 -0.813795 -0.581153
vn 0.000000 -0.653221 -0.757167
vn 0.470283 -0.734787 -0.488796
vn 0.000000 -0.653221 -0.757167
vn 0.000000 0.000000 0.000000
vn 0.470283 -0.734787 -0.488796
vn 0.491335 -0.800014 -0.344337
vn 0.470283 -0.734787 -0.488796
vn 0.851018 -0.446940 -0.275706
vn 0.470283 -0.734787 -0.488796
vn 0.787851 -0.367286 -0.494360
vn 0.851018 -0.446940 -0.275706
vn 0.470283 -0.734787 -0.488796
vn 0.000000 0.000000 0.000000
vn 0.680431 -0.267592 -0.682208
vn 0.470283 -0.734787 -0.488796
vn 0.680431 -0.267592 -0.682208
vn 0.787851 -0.367286 -0.494360
vn 0.851018 -0.446940 -0.275706
vn 0.787851 -0.367286 -0.494360
vn 0.940566 0.064801 -0.333372
vn 0.851018 -0.446940 -0.275706
vn 0.940566 0.064801 -0.333372
vn 0.982671 0.035369 -0.181955
vn 0.787851 -0.367286 -0.494360
vn 0.680431 -0.267592 -0.682208
vn 0.940566 0.064801 -0.333372
vn 0.680431 -0.267592 -0.682208
vn 0.000000 0.000000 0.000000
vn 0.940566 0.064801 -0.333372
vn 0.982671 0.035369 -0.181955
vn 0.940566 0.064801 -0.333372
vn 0.851017 0.517677 -0.088203
vn 0.940566 0.064801 -0.333372
vn 0.787851 0.525733 -0.320775
vn 0.851017 0.517677 -0.088203
vn 0.940566 0.064801 -0.333372
vn 0.000000 0.000000 0.000000
vn 0.680431 0.503667 -0.532291
vn 0.940566 0.064801 -0.333372
vn 0.680431 0.503667 -0.532291
vn 0.787851 0.525733 -0.320775
vn 0.851017 0.517677 -0.088203
vn 0.787851 0.525733 -0.320775
vn 0.470283 0.864389 -0.177948
vn 0.851017 0.517677 -0.088203
vn 0.470283 0.864389 -0.177948
vn 0.491335 0.870751 -0.019573
vn 0.787851 0.525733 -0.320775
vn 0.680431 0.503667 -0.532291
vn 0.470283 0.864389 -0.177948
vn 0.680431 0.503667 -0.532291
vn 0.000000 0.000000 0.000000
vn 0.470283 0.864389 -0.177948
vn 0.491335 0.870751 -0.019573
vn 0.470283 0.864389 -0.177948
vn -0.000000 0.999985 0.005548
vn 0.470283 0.864389 -0.177948
vn 0.000000 0.972241 -0.233983
vn -0.000000 0.999985 0.005548
vn 0.470283 0.864389 -0.177948
vn 0.000000 0.000000 0.000000
vn 0.000000 0.889296 -0.457332
vn 0.470283 0.864389 -0.177948
vn 0.000000 0.889296 -0.457332
vn 0.000000 0.972241 -0.233983
vn 0.000000 0.000000 0.000000
vn 0.000000 -0.991347 0.131269
vn 0.474043 -0.866661 0.155506
vn 0.000000 -0.991347 0.131269
vn 0.474043 -0.866661 0.155506
vn 0.474043 -0.866661 0.155506
vn 0.474043 -0.866661 0.155506
vn 0.474043 -0.866661 0.155506
vn 0.821066 -0.526014 0.221721
vn 0.474043 -0.866661 0.155506
vn 0.821066 -0.526014 0.221721
vn 0.000000 0.000000 0.000000
vn 0.000000 0.000000 0.000000
vn 0.821066 -0.526014 0.221721
vn 0.948085 -0.060680 0.312173
vn 0.821066 -0.526014 0.221721
vn 0.948085 -0.060680 0.312173
vn 0.948085 -0.060680 0.312173
vn 0.948085 -0.060680 0.312173
vn 0.948085 -0.060680 0.312173
vn 0.821066 0.404653 0.402624
vn 0.948085 -0.060680 0.312173
vn 0.821066 0.404653 0.402624
vn 0.000000 0.000000 0.000000
vn 0.000000 0.000000 0.000000
vn 0.821066 0.404653 0.402624
vn 0.474043 0.745301 0.468840
vn 0.821066 0.404653 0.402624
vn 0.474043 0.745301 0.468840
vn 0.474043 0.745301 0.468840
vn 0.474043 0.745301 0.468840
vn 0.474043 0.745301 0.468840
vn 0.000000 0.869986 0.493076
vn 0.474043 0.745301 0.468840
vn 0.000000 0.869986 0.493076
vn 0.000000 0.000000 0.000000
vn 0.000000 0.000000 0.000000
vn 0.000000 0.869986 0.493076
vn -0.474043 0.745301 0.468840
vn 0.000000 0.869986 0.493076
vn -0.474043 0.745301 0.468840
vn -0.474043 0.745301 0.468840
vn -0.474043 0.745301 0.468840
vn -0.474043 0.745301 0.468840
vn -0.821066 0.404653 0.402624
vn -0.474043 0.745301 0.468840
vn -0.821066 0.404653 0.402624
vn 0.000000 0.000000 0.000000
vn 0.000000 0.000000 0.000000
vn -0.821066 0.404653 0.402624
vn -0.948085 -0.060680 0.312173
vn -0.821066 0.404653 0.402624
vn -0.948085 -0.060680 0.312173
vn -0.948085 -0.060680 0.312173
vn -0.948085 -0.060680 0.312173
vn -0.948085 -0.060680 0.312173
vn -0.821066 -0.526014 0.221721
vn -0.948085 -0.060680 0.312173
vn -0.821066 -0.526014 0.221721
vn 0.000000 0.000000 0.000000
vn 0.000000 0.000000 0.000000
vn -0.821066 -0.526014 0.221721
vn -0.474043 -0.866661 0.155506
vn -0.821066 -0.526014 0.221721
vn -0.474043 -0.866661 0.155506
vn -0.474043 -0.866661 0.155506
vn -0.474043 -0.866661 0.155506
vn -0.474043 -0.866661 0.155506
vn 0.000000 -0.991347 0.131269
vn -0.474043 -0.866661 0.155506
vn 0.000000 -0.991347 0.131269
vn 0.000000 0.000000 0.000000

# texture coords: 216
vt 0.000000 0.166667
vt 0.000000 0.250000
vt 0.083333 0.250000
vt 0.000000 0.166667
vt 0.083333 0.250000
vt 0.083333 0.166667
vt 0.000000 0.250000
vt 0.000000 0.333333
vt 0.083333 0.250000
vt 0.000000 0.333333
vt 0.083333 0.333333
vt 0.083333 0.250000
vt 0.083333 0.166667
vt 0.083333 0.250000
vt 0.166667 0.166667
vt 0.083333 0.250000
vt 0.166667 0.250000
vt 0.166667 0.166667
vt 0.083333 0.250000
vt 0.083333 0.333333
vt 0.166667 0.333333
vt 0.083333 0.250000
vt 0.166667 0.333333
vt 0.166667 0.250000
vt 0.166667 0.166667
vt 0.166667 0.250000
vt 0.250000 0.250000
vt 0.166667 0.166667
vt 0.250000 0.250000
vt 0.250000 0.166667
vt 0.166667 0.250000
vt 0.166667 0.333333
vt 0.250000 0.250000
vt 0.166667 0.333333
vt 0.250000 0.333333
vt 0.250000 0.250000
vt 0.250000 0.166667
vt 0.250000 0.250000
vt 0.333333 0.166667
vt 0.250000 0.250000
vt 0.333333 0.250000
vt 0.333333 0.166667
vt 0.250000 0.250000
vt 0.250000 0.333333
vt 0.333333 0.333333
vt 0.250000 0.250000
vt 0.333333 0.333333
vt 0.333333 0.250000
vt 0.333333 0.166667
vt 0.333333 0.250000
vt 0.416667 0.250000
vt 0.333333 0.166667
vt 0.416667 0.250000
vt 0.416667 0.166667
vt 0.333333 0.250000
vt 0.333333 0.333333
vt 0.416667 0.250000
vt 0.333333 0.333333
vt 0.416667 0.333333
vt 0.416667 0.250000
vt 0.416667 0.166667
vt 0.416667 0.250000
vt 0.500000 0.166667
vt 0.416667 0.250000
vt 0.500000 0.250000
vt 0.500000 0.166667
vt 0.416667 0.250000
vt 0.416667 0.333333
vt 0.500000 0.333333
vt 0.416667 0.250000
vt 0.500000 0.333333
vt 0.500000 0.250000
vt 0.500000 0.166667
vt 0.500000 0.250000
vt 0.583333 0.250000
vt 0.500000 0.166667
vt 0.583333 0.250000
vt 0.583333 0.166667
vt 0.500000 0.250000
vt 0.500000 0.333333
vt 0.583333 0.250000
vt 0.500000 0.333333
vt 0.583333 0.333333
vt 0.583333 0.250000
vt 0.583333 0.166667
vt 0.583333 0.250000
vt 0.666667 0.166667
vt 0.583333 0.250000
vt 0.666667 0.250000
vt 0.666667 0.166667
vt 0.583333 0.250000
vt 0.583333 0.333333
vt 0.666667 0.333333
vt 0.583333 0.250000
vt 0.666667 0.333333
vt 0.666667 0.250000
vt 0.666667 0.166667
vt 0.666667 0.250000
vt 0.750000 0.250000
vt 0.666667 0.166667
vt 0.750000 0.250000
vt 0.750000 0.166667
vt 0.666667 0.250000
vt 0.666667 0.333333
vt 0.750000 0.250000
vt 0.666667 0.333333
vt 0.750000 0.333333
vt 0.750000 0.250000
vt 0.750000 0.166667
vt 0.750000 0.250000
vt 0.833333 0.166667
vt 0.750000 0.250000
vt 0.833333 0.250000
vt 0.833333 0.166667
vt 0.750000 0.250000
vt 0.750000 0.333333
vt 0.833333 0.333333
vt 0.750000 0.250000
vt 0.833333 0.333333
vt 0.833333 0.250000
vt 0.833333 0.166667
vt 0.833333 0.250000
vt 0.916667 0.250000
vt 0.833333 0.166667
vt 0.916667 0.250000
vt 0.916667 0.166667
vt 0.833333 0.250000
vt 0.833333 0.333333
vt 0.916667 0.250000
vt 0.833333 0.333333
vt 0.916667 0.333333
vt 0.916667 0.250000
vt 0.916667 0.166667
vt 0.916667 0.250000
vt 1.000000 0.166667
vt 0.916667 0.250000
vt 1.000000 0.250000
vt 1.000000 0.166667
vt 0.916667 0.250000
vt 0.916667 0.333333
vt 1.000000 0.333333
vt 0.916667 0.250000
vt 1.000000 0.333333
vt 1.000000 0.250000
vt 0.000000 0.083333
vt 0.000000 0.166667
vt 0.083333 0.083333
vt 0.000000 0.166667
vt 0.083333 0.166667
vt 0.083333 0.083333
vt 0.083333 0.083333
vt 0.083333 0.166667
vt 0.166667 0.166667
vt 0.083333 0.083333
vt 0.166667 0.166667
vt 0.166667 0.083333
vt 0.166667 0.083333
vt 0.166667 0.166667
vt 0.250000 0.083333
vt 0.166667 0.166667
vt 0.250000 0.166667
vt 0.250000 0.083333
vt 0.250000 0.083333
vt 0.250000 0.166667
vt 0.333333 0.166667
vt 0.250000 0.083333
vt 0.333333 0.166667
vt 0.333333 0.083333
vt 0.333333 0.083333
vt 0.333333 0.166667
vt 0.416667 0.083333
vt 0.333333 0.166667
vt 0.416667 0.166667
vt 0.416667 0.083333
vt 0.416667 0.083333
vt 0.416667 0.166667
vt 0.500000 0.166667
vt 0.416667 0.083333
vt 0.500000 0.166667
vt 0.500000 0.083333
vt 0.500000 0.083333
vt 0.500000 0.166667
vt 0.583333 0.083333
vt 0.500000 0.166667
vt 0.583333 0.166667
vt 0.583333 0.083333
vt 0.583333 0.083333
vt 0.583333 0.166667
vt 0.666667 0.166667
vt 0.583333 0.083333
vt 0.666667 0.166667
vt 0.666667 0.083333
vt 0.666667 0.083333
vt 0.666667 0.166667
vt 0.750000 0.083333
vt 0.666667 0.166667
vt 0.750000 0.166667
vt 0.750000 0.083333
vt 0.750000 0.083333
vt 0.750000 0.166667
vt 0.833333 0.166667
vt 0.750000 0.083333
vt 0.833333 0.166667
vt 0.833333 0.083333
vt 0.833333 0.083333
vt 0.833333 0.166667
vt 0.916667 0.083333
vt 0.833333 0.166667
vt 0.916667 0.166667
vt 0.916667 0.083333
vt 0.916667 0.083333
vt 0.916667 0.166667
vt 1.000000 0.166667
vt 0.916667 0.083333
vt 1.000000 0.166667
vt 1.000000 0.083333

# polygons: 72

f 1/1/1 2/2/2 5/3/3
f 1/4/4 5/5/5 4/6/6
f 2/7/7 3/8/8 5/9/9
f 3/10/10 6/11/11 5/12/12
f 4/13/13 5/14/14 7/15/15
f 5/16/16 8/17/17 7/18/18
f 5/19/19 6/20/20 9/21/21
f 5/22/22 9/23/23 8/24/24
f 7/25/25 8/26/26 11/27/27
f 7/28/28 11/29/29 10/30/30
f 8/31/31 9/32/32 11/33/33
f 9/34/34 12/35/35 11/36/36
f 10/37/37 11/38/38 13/39/39
f 11/40/40 14/41/41 13/42/42
f 11/43/43 12/44/44 15/45/45
f 11/46/46 15/47/47 14/48/48
f 13/49/49 14/50/50 17/51/51
f 13/52/52 17/53/53 16/54/54
f 14/55/55 15/56/56 17/57/57
f 15/58/58 18/59/59 17/60/60
f 16/61/61 17/62/62 19/63/63
f 17/64/64 20/65/65 19/66/66
f 17/67/67 18/68/68 21/69/69
f 17/70/70 21/71/71 20/72/72
f 19/73/73 20/74/74 23/75/75
f 19/76/76 23/77/77 22/78/78
f 20/79/79 21/80/80 23/81/81
f 21/82/82 24/83/83 23/84/84
f 22/85/85 23/86/86 25/87/87
f 23/88/88 26/89/89 25/90/90
f 23/91/91 24/92/92 27/93/93
f 23/94/94 27/95/95 26/96/96
f 25/97/97 26/98/98 29/99/99
f 25/100/100 29/101/101 28/102/102
f 26/103/103 27/104/104 29/105/105
f 27/106/106 30/107/107 29/108/108
f 28/109/109 29/110/110 31/111/111
f 29/112/112 32/113/113 31/114/114
f 29/115/115 30/116/116 33/117/117
f 29/118/118 33/119/119 32/120/120
f 31/121/121 32/122/122 35/123/123
f 31/124/124 35/125/125 34/126/126
f 32/127/127 33/128/128 35/129/129
f 33/130/130 36/131/131 35/132/132
f 34/133/133 35/134/134 1/135/135
f 35/136/136 2/137/137 1/138/138
f 35/139/139 36/140/140 3/141/141
f 35/142/142 3/143/143 2/144/144
f 37/145/145 38/146/146 39/147/147
f 38/148/148 40/149/149 39/150/150
f 39/151/151 40/152/152 42/153/153
f 39/154/154 42/155/155 41/156/156
f 41/157/157 42/158/158 43/159/159
f 42/160/160 44/161/161 43/162/162
f 43/163/163 44/164/164 46/165/165
f 43/166/166 46/167/167 45/168/168
f 45/169/169 46/170/170 47/171/171
f 46/172/172 48/173/173 47/174/174
f 47/175/175 48/176/176 50/177/177
f 47/178/178 50/179/179 49/180/180
f 49/181/181 50/182/182 51/183/183
f 50/184/184 52/185/185 51/186/186
f 51/187/187 52/188/188 54/189/189
f 51/190/190 54/191/191 53/192/192
f 53/193/193 54/194/194 55/195/195
f 54/196/196 56/197/197 55/198/198
f 55/199/199 56/200/200 58/201/201
f 55/202/202 58/203/203 57/204/204
f 57/205/205 58/206/206 59/207/207
f 58/208/208 60/209/209 59/210/210
f 59/211/211 60/212/212 38/213/213
f 59/214/214 38/215/215 37/216/216

# object end 'Converted object 0'
