# created by: Biturn ver 0.88
# http://mirex.mypage.sk
# ------------------------------------
# 40 vertices, 60 polygons, 180 points, 2 materials




#-- object 'Converted object 0(m1)' --
# 40 vertices, 60 polygons, 180 points

g Converted object 0(m1)

# vertexs: 40
v -0.818839 -3.640268 1.307540
v -0.781953 -3.640268 1.238168
v -0.781953 -3.816340 1.238168
v -0.818839 -3.816340 1.307540
v -0.818839 -3.640268 1.307540
v -1.029071 -3.608811 1.049823
v -0.938428 -3.608811 0.993183
v -0.938428 -3.848335 0.993183
v -1.029071 -3.848335 1.049823
v -1.029071 -3.608811 1.049823
v -1.190833 -3.608811 0.520726
v -1.084014 -3.608811 0.516995
v -1.084014 -3.848335 0.516995
v -1.190833 -3.848335 0.520726
v -1.190833 -3.608811 0.520726
v -1.066373 -3.608811 -0.018367
v -0.972000 -3.608811 0.031812
v -0.972000 -3.848335 0.031812
v -1.066373 -3.848335 -0.018367
v -1.066373 -3.608811 -0.018367
v -0.198964 -3.731774 1.535505
v -0.243876 -3.731774 1.619971
v -0.269678 -3.929810 1.497906
v -0.314589 -3.929810 1.582372
v -0.448731 -4.035183 1.402702
v -0.493643 -4.035183 1.487167
v -0.652343 -3.998587 1.294439
v -0.697255 -3.998587 1.378905
v -0.785242 -3.837147 1.223776
v -0.830153 -3.837147 1.308242
v -0.785242 -3.626401 1.223776
v -0.830153 -3.626401 1.308242
v -0.652343 -3.464961 1.294439
v -0.697255 -3.464961 1.378905
v -0.448731 -3.428364 1.402702
v -0.493643 -3.428364 1.487167
v -0.269678 -3.533738 1.497906
v -0.314589 -3.533738 1.582372
v -0.546128 -3.731774 1.459260
v -0.501217 -3.731774 1.374794

# normals: 180
vn 0.090113 0.994778 0.047913
vn 0.438537 0.881147 -0.176821
vn 0.036836 0.998714 0.034840
vn 0.438537 0.881147 -0.176821
vn 0.028549 0.998548 0.045688
vn 0.036836 0.998714 0.034840
vn 0.438537 0.881147 -0.176821
vn 0.654345 -0.680866 -0.329019
vn 0.243175 -0.965197 -0.096237
vn 0.842763 0.000000 -0.538285
vn 0.926037 0.000000 -0.377432
vn 0.907898 0.000000 -0.419190
vn 0.654345 -0.680866 -0.329019
vn -0.276294 -0.895737 0.348307
vn 0.243175 -0.965197 -0.096237
vn -0.276294 -0.895737 0.348307
vn 0.025602 -0.998832 0.040971
vn 0.243175 -0.965197 -0.096237
vn -0.276294 -0.895737 0.348307
vn -0.774881 0.000000 0.632107
vn -0.774881 0.000000 0.632107
vn -0.774881 0.000000 0.632107
vn -0.910970 0.000000 0.412472
vn -0.882103 0.000000 0.471056
vn 0.036836 0.998714 0.034840
vn 0.028549 0.998548 0.045688
vn 0.000000 1.000000 0.000000
vn 0.036836 0.998714 0.034840
vn 0.000000 1.000000 0.000000
vn 0.000000 1.000000 0.000000
vn 0.907898 0.000000 -0.419190
vn 0.926037 0.000000 -0.377432
vn 0.999391 0.000000 -0.034900
vn 0.926037 0.000000 -0.377432
vn 0.999391 0.000000 -0.034900
vn 0.999391 0.000000 -0.034900
vn 0.243175 -0.965197 -0.096237
vn 0.025602 -0.998832 0.040971
vn 0.000000 -1.000000 0.000000
vn 0.243175 -0.965197 -0.096237
vn 0.000000 -1.000000 0.000000
vn 0.000000 -1.000000 0.000000
vn -0.882103 0.000000 0.471056
vn -0.910970 0.000000 0.412472
vn -0.999391 0.000000 0.034899
vn -0.910970 0.000000 0.412472
vn -0.999391 0.000000 0.034899
vn -0.999391 0.000000 0.034899
vn 0.000000 1.000000 0.000000
vn 0.000000 1.000000 0.000000
vn 0.000000 1.000000 0.000000
vn 0.000000 1.000000 0.000000
vn 0.000000 1.000000 0.000000
vn 0.000000 1.000000 0.000000
vn 0.999391 0.000000 -0.034900
vn 0.999391 0.000000 -0.034900
vn 0.974370 0.000000 0.224951
vn 0.999391 0.000000 -0.034900
vn 0.974370 0.000000 0.224951
vn 0.974370 0.000000 0.224951
vn 0.000000 -1.000000 0.000000
vn 0.000000 -1.000000 0.000000
vn 0.000000 -1.000000 0.000000
vn 0.000000 -1.000000 0.000000
vn 0.000000 -1.000000 0.000000
vn 0.000000 -1.000000 0.000000
vn -0.999391 0.000000 0.034899
vn -0.999391 0.000000 0.034899
vn -0.974370 0.000000 -0.224951
vn -0.999391 0.000000 0.034899
vn -0.974370 0.000000 -0.224951
vn -0.974370 0.000000 -0.224951
vn 0.469471 0.000000 -0.882948
vn 0.469471 0.000000 -0.882948
vn 0.469472 0.000000 -0.882948
vn -0.469472 0.000000 0.882948
vn -0.469471 0.000000 0.882948
vn -0.469471 0.000000 0.882948
vn 0.875033 0.133595 0.465263
vn 0.875033 -0.133595 0.465263
vn 0.653254 -0.672766 0.347341
vn 0.875033 -0.133595 0.465263
vn 0.653254 -0.672766 0.347340
vn 0.653254 -0.672766 0.347341
vn 0.469471 0.000000 -0.882948
vn 0.469472 -0.000000 -0.882948
vn 0.469472 0.000000 -0.882948
vn -0.469471 0.000000 0.882948
vn -0.469471 0.000000 0.882948
vn -0.469471 0.000001 0.882948
vn 0.653254 -0.672766 0.347341
vn 0.653254 -0.672766 0.347340
vn 0.141469 -0.987081 0.075220
vn 0.653254 -0.672766 0.347341
vn 0.141469 -0.987081 0.075220
vn 0.141468 -0.987081 0.075220
vn 0.469472 -0.000000 -0.882948
vn 0.469472 0.000000 -0.882947
vn 0.469472 0.000000 -0.882948
vn -0.469471 0.000001 0.882948
vn -0.469471 0.000000 0.882948
vn -0.469471 0.000001 0.882948
vn 0.141468 -0.987081 0.075220
vn 0.141469 -0.987081 0.075220
vn -0.414674 -0.882854 -0.220487
vn 0.141469 -0.987081 0.075220
vn -0.414674 -0.882854 -0.220487
vn -0.414674 -0.882854 -0.220487
vn 0.469472 0.000000 -0.882947
vn 0.469472 0.000000 -0.882947
vn 0.469472 0.000000 -0.882948
vn -0.469471 0.000001 0.882948
vn -0.469471 0.000000 0.882948
vn -0.469472 0.000001 0.882948
vn -0.414674 -0.882854 -0.220487
vn -0.414674 -0.882854 -0.220487
vn -0.645803 -0.681929 -0.343381
vn -0.414674 -0.882854 -0.220487
vn -0.645803 -0.681929 -0.343381
vn -0.645804 -0.681930 -0.343380
vn 0.469472 0.000000 -0.882947
vn 0.469472 -0.000000 -0.882947
vn 0.469472 0.000000 -0.882948
vn -0.469472 0.000001 0.882948
vn -0.469471 0.000000 0.882948
vn -0.469472 -0.000001 0.882948
vn -0.882948 0.000000 -0.469471
vn -0.882948 0.000000 -0.469471
vn -0.882948 0.000000 -0.469471
vn -0.882948 0.000000 -0.469471
vn -0.882948 0.000000 -0.469471
vn -0.882948 0.000000 -0.469471
vn 0.469472 -0.000000 -0.882947
vn 0.469472 -0.000000 -0.882947
vn 0.469472 0.000000 -0.882948
vn -0.469472 -0.000001 0.882948
vn -0.469471 0.000000 0.882948
vn -0.469471 -0.000001 0.882948
vn -0.645805 0.681927 -0.343381
vn -0.645806 0.681927 -0.343381
vn -0.414675 0.882853 -0.220487
vn -0.645805 0.681927 -0.343381
vn -0.414675 0.882853 -0.220487
vn -0.414675 0.882853 -0.220488
vn 0.469472 -0.000000 -0.882947
vn 0.469472 0.000000 -0.882948
vn 0.469472 0.000000 -0.882948
vn -0.469471 -0.000001 0.882948
vn -0.469471 0.000000 0.882948
vn -0.469471 -0.000001 0.882948
vn -0.414675 0.882853 -0.220488
vn -0.414675 0.882853 -0.220487
vn 0.141469 0.987081 0.075220
vn -0.414675 0.882853 -0.220487
vn 0.141468 0.987081 0.075220
vn 0.141469 0.987081 0.075220
vn 0.469472 0.000000 -0.882948
vn 0.469471 -0.000000 -0.882948
vn 0.469472 0.000000 -0.882948
vn -0.469471 -0.000001 0.882948
vn -0.469471 0.000000 0.882948
vn -0.469471 -0.000000 0.882948
vn 0.141469 0.987081 0.075220
vn 0.141468 0.987081 0.075220
vn 0.653254 0.672766 0.347341
vn 0.141469 0.987081 0.075220
vn 0.653254 0.672766 0.347341
vn 0.653254 0.672766 0.347340
vn 0.469471 -0.000000 -0.882948
vn 0.469471 0.000000 -0.882948
vn 0.469472 0.000000 -0.882948
vn -0.469471 -0.000000 0.882948
vn -0.469471 0.000000 0.882948
vn -0.469472 0.000000 0.882948
vn 0.653254 0.672766 0.347340
vn 0.653254 0.672766 0.347341
vn 0.875033 0.133595 0.465263
vn 0.653254 0.672766 0.347341
vn 0.875033 -0.133595 0.465263
vn 0.875033 0.133595 0.465263

# texture coords: 180
vt 0.525868 0.732644
vt 0.526201 0.732690
vt 0.441929 0.733446
vt 0.526201 0.732690
vt 0.457047 0.733499
vt 0.441929 0.733446
vt 0.526201 0.732690
vt 0.526201 0.728641
vt 0.457047 0.727991
vt 0.526201 0.732690
vt 0.457047 0.727991
vt 0.457047 0.733499
vt 0.526201 0.728641
vt 0.525868 0.728595
vt 0.457047 0.727991
vt 0.525868 0.728595
vt 0.441929 0.727937
vt 0.457047 0.727991
vt 0.525868 0.728595
vt 0.525868 0.732644
vt 0.441929 0.733446
vt 0.525868 0.728595
vt 0.441929 0.733446
vt 0.441929 0.727937
vt 0.441929 0.733446
vt 0.457047 0.733499
vt 0.361523 0.733708
vt 0.441929 0.733446
vt 0.361523 0.733708
vt 0.335791 0.733678
vt 0.457047 0.733499
vt 0.457047 0.727991
vt 0.361523 0.733708
vt 0.457047 0.727991
vt 0.361523 0.728200
vt 0.361523 0.733708
vt 0.457047 0.727991
vt 0.441929 0.727937
vt 0.335791 0.728170
vt 0.457047 0.727991
vt 0.335791 0.728170
vt 0.361523 0.728200
vt 0.441929 0.727937
vt 0.441929 0.733446
vt 0.335791 0.728170
vt 0.441929 0.733446
vt 0.335791 0.733678
vt 0.335791 0.728170
vt 0.335791 0.733678
vt 0.361523 0.733708
vt 0.298602 0.733991
vt 0.361523 0.733708
vt 0.328053 0.733990
vt 0.298602 0.733991
vt 0.361523 0.733708
vt 0.361523 0.728200
vt 0.328053 0.728482
vt 0.361523 0.733708
vt 0.328053 0.728482
vt 0.328053 0.733990
vt 0.361523 0.728200
vt 0.335791 0.728170
vt 0.328053 0.728482
vt 0.335791 0.728170
vt 0.298602 0.728483
vt 0.328053 0.728482
vt 0.335791 0.728170
vt 0.335791 0.733678
vt 0.298602 0.733991
vt 0.335791 0.728170
vt 0.298602 0.733991
vt 0.298602 0.728483
vt 0.706546 0.730587
vt 0.684479 0.726033
vt 0.612222 0.730590
vt 0.706140 0.730531
vt 0.611816 0.730534
vt 0.684073 0.725977
vt 0.706546 0.730587
vt 0.706140 0.730531
vt 0.684479 0.726033
vt 0.706140 0.730531
vt 0.684073 0.725977
vt 0.684479 0.726033
vt 0.684479 0.726033
vt 0.628601 0.723611
vt 0.612222 0.730590
vt 0.684073 0.725977
vt 0.611816 0.730534
vt 0.628196 0.723556
vt 0.684479 0.726033
vt 0.684073 0.725977
vt 0.628196 0.723556
vt 0.684479 0.726033
vt 0.628196 0.723556
vt 0.628601 0.723611
vt 0.628601 0.723611
vt 0.565060 0.724455
vt 0.612222 0.730590
vt 0.628196 0.723556
vt 0.611816 0.730534
vt 0.564654 0.724399
vt 0.628601 0.723611
vt 0.628196 0.723556
vt 0.565060 0.724455
vt 0.628196 0.723556
vt 0.564654 0.724399
vt 0.565060 0.724455
vt 0.565060 0.724455
vt 0.523587 0.728169
vt 0.612222 0.730590
vt 0.564654 0.724399
vt 0.611816 0.730534
vt 0.523181 0.728113
vt 0.565060 0.724455
vt 0.564654 0.724399
vt 0.523181 0.728113
vt 0.565060 0.724455
vt 0.523181 0.728113
vt 0.523587 0.728169
vt 0.523587 0.728169
vt 0.523587 0.733016
vt 0.612222 0.730590
vt 0.523181 0.728113
vt 0.611816 0.730534
vt 0.523181 0.732960
vt 0.523587 0.728169
vt 0.523181 0.728113
vt 0.523587 0.733016
vt 0.523181 0.728113
vt 0.523181 0.732960
vt 0.523587 0.733016
vt 0.523587 0.733016
vt 0.565060 0.736727
vt 0.612222 0.730590
vt 0.523181 0.732960
vt 0.611816 0.730534
vt 0.564654 0.736671
vt 0.523587 0.733016
vt 0.523181 0.732960
vt 0.564654 0.736671
vt 0.523587 0.733016
vt 0.564654 0.736671
vt 0.565060 0.736727
vt 0.565060 0.736727
vt 0.628601 0.737567
vt 0.612222 0.730590
vt 0.564654 0.736671
vt 0.611816 0.730534
vt 0.628196 0.737511
vt 0.565060 0.736727
vt 0.564654 0.736671
vt 0.628601 0.737567
vt 0.564654 0.736671
vt 0.628196 0.737511
vt 0.628601 0.737567
vt 0.628601 0.737567
vt 0.684479 0.735142
vt 0.612222 0.730590
vt 0.628196 0.737511
vt 0.611816 0.730534
vt 0.684073 0.735086
vt 0.628601 0.737567
vt 0.628196 0.737511
vt 0.684073 0.735086
vt 0.628601 0.737567
vt 0.684073 0.735086
vt 0.684479 0.735142
vt 0.684479 0.735142
vt 0.706546 0.730587
vt 0.612222 0.730590
vt 0.684073 0.735086
vt 0.611816 0.730534
vt 0.706140 0.730531
vt 0.684479 0.735142
vt 0.684073 0.735086
vt 0.706546 0.730587
vt 0.684073 0.735086
vt 0.706140 0.730531
vt 0.706546 0.730587

# polygons: 60

f 1/1/1 2/2/2 6/3/3
f 2/4/4 7/5/5 6/6/6
f 2/7/7 3/8/8 8/9/9
f 2/10/10 8/11/11 7/12/12
f 3/13/13 4/14/14 8/15/15
f 4/16/16 9/17/17 8/18/18
f 4/19/19 5/20/20 10/21/21
f 4/22/22 10/23/23 9/24/24
f 6/25/25 7/26/26 12/27/27
f 6/28/28 12/29/29 11/30/30
f 7/31/31 8/32/32 12/33/33
f 8/34/34 13/35/35 12/36/36
f 8/37/37 9/38/38 14/39/39
f 8/40/40 14/41/41 13/42/42
f 9/43/43 10/44/44 14/45/45
f 10/46/46 15/47/47 14/48/48
f 11/49/49 12/50/50 16/51/51
f 12/52/52 17/53/53 16/54/54
f 12/55/55 13/56/56 18/57/57
f 12/58/58 18/59/59 17/60/60
f 13/61/61 14/62/62 18/63/63
f 14/64/64 19/65/65 18/66/66
f 14/67/67 15/68/68 20/69/69
f 14/70/70 20/71/71 19/72/72
f 21/73/73 23/74/74 40/75/75
f 22/76/76 39/77/77 24/78/78
f 21/79/79 22/80/80 23/81/81
f 22/82/82 24/83/83 23/84/84
f 23/85/85 25/86/86 40/87/87
f 24/88/88 39/89/89 26/90/90
f 23/91/91 24/92/92 26/93/93
f 23/94/94 26/95/95 25/96/96
f 25/97/97 27/98/98 40/99/99
f 26/100/100 39/101/101 28/102/102
f 25/103/103 26/104/104 27/105/105
f 26/106/106 28/107/107 27/108/108
f 27/109/109 29/110/110 40/111/111
f 28/112/112 39/113/113 30/114/114
f 27/115/115 28/116/116 30/117/117
f 27/118/118 30/119/119 29/120/120
f 29/121/121 31/122/122 40/123/123
f 30/124/124 39/125/125 32/126/126
f 29/127/127 30/128/128 31/129/129
f 30/130/130 32/131/131 31/132/132
f 31/133/133 33/134/134 40/135/135
f 32/136/136 39/137/137 34/138/138
f 31/139/139 32/140/140 34/141/141
f 31/142/142 34/143/143 33/144/144
f 33/145/145 35/146/146 40/147/147
f 34/148/148 39/149/149 36/150/150
f 33/151/151 34/152/152 35/153/153
f 34/154/154 36/155/155 35/156/156
f 35/157/157 37/158/158 40/159/159
f 36/160/160 39/161/161 38/162/162
f 35/163/163 36/164/164 38/165/165
f 35/166/166 38/167/167 37/168/168
f 37/169/169 21/170/170 40/171/171
f 38/172/172 39/173/173 22/174/174
f 37/175/175 38/176/176 21/177/177
f 38/178/178 22/179/179 21/180/180

# object end 'Converted object 0(m1)'
