# created by: Biturn ver 0.88
# http://mirex.mypage.sk
# ------------------------------------
# 40 vertices, 60 polygons, 180 points, 2 materials




#-- object 'Converted object 0(m1)' --
# 40 vertices, 60 polygons, 180 points

g Converted object 0(m1)

# vertexs: 40
v -1.011479 -16.387568 -1.004827
v -0.924126 -16.387568 -0.926174
v -0.924126 -16.627092 -0.926174
v -1.011479 -16.627092 -1.004827
v -1.011479 -16.387568 -1.004827
v -0.803043 -16.387568 -1.142989
v -0.729070 -16.387568 -1.051640
v -0.729070 -16.627092 -1.051640
v -0.803043 -16.627092 -1.142989
v -0.803043 -16.387568 -1.142989
v -0.529961 -16.387568 -1.253688
v -0.482150 -16.387568 -1.146305
v -0.482150 -16.627092 -1.146305
v -0.529961 -16.627092 -1.253688
v -0.529961 -16.387568 -1.253688
v -0.002037 -16.387568 -1.083133
v -0.002037 -16.387568 -0.965588
v -0.002037 -16.627092 -0.965588
v -0.002037 -16.627092 -1.083133
v -0.002037 -16.387568 -1.083133
v -1.109561 -16.512049 -0.710009
v -1.215920 -16.512049 -0.805776
v -1.100638 -16.781454 -0.709989
v -1.206997 -16.781454 -0.805754
v -1.073896 -17.071617 -0.745790
v -1.180254 -17.071617 -0.841557
v -0.910220 -17.061831 -0.918708
v -1.016579 -17.061831 -1.014473
v -0.902044 -16.655397 -0.925739
v -1.008402 -16.655397 -1.021505
v -0.902044 -16.368704 -0.925739
v -1.008402 -16.368704 -1.021505
v -0.910220 -15.989744 -0.918708
v -1.016579 -15.989744 -1.014473
v -1.073895 -15.986626 -0.743640
v -1.180254 -15.986626 -0.839407
v -1.100638 -16.242647 -0.709989
v -1.206997 -16.242647 -0.805754
v -1.086984 -16.512049 -0.936991
v -0.980626 -16.512049 -0.841226

# normals: 180
vn 0.000000 1.000000 0.000000
vn 0.000000 1.000000 0.000000
vn 0.000000 1.000000 0.000000
vn 0.000000 1.000000 0.000000
vn 0.000000 1.000000 0.000000
vn 0.000000 1.000000 0.000000
vn 0.540979 0.000000 0.841036
vn 0.540979 0.000000 0.841036
vn 0.451861 0.000000 0.892088
vn 0.540979 0.000000 0.841036
vn 0.451861 0.000000 0.892088
vn 0.451861 0.000000 0.892088
vn 0.000000 -1.000000 0.000000
vn 0.000000 -1.000000 0.000000
vn 0.000000 -1.000000 0.000000
vn 0.000000 -1.000000 0.000000
vn 0.000000 -1.000000 0.000000
vn 0.000000 -1.000000 0.000000
vn -0.552497 0.000000 -0.833515
vn -0.552497 0.000000 -0.833515
vn -0.466422 0.000000 -0.884562
vn -0.552497 0.000000 -0.833515
vn -0.466422 0.000000 -0.884562
vn -0.466422 0.000000 -0.884562
vn 0.000000 1.000000 0.000000
vn 0.000000 1.000000 0.000000
vn 0.000000 1.000000 0.000000
vn 0.000000 1.000000 0.000000
vn 0.000000 1.000000 0.000000
vn 0.000000 1.000000 0.000000
vn 0.451861 0.000000 0.892088
vn 0.451861 0.000000 0.892088
vn 0.003049 0.000000 0.999995
vn 0.451861 0.000000 0.892088
vn 0.003049 0.000000 0.999995
vn 0.003049 0.000000 0.999995
vn 0.000000 -1.000000 0.000000
vn 0.000000 -1.000000 0.000000
vn 0.000000 -1.000000 0.000000
vn 0.000000 -1.000000 0.000000
vn 0.000000 -1.000000 0.000000
vn 0.000000 -1.000000 0.000000
vn -0.466422 0.000000 -0.884562
vn -0.466422 0.000000 -0.884562
vn -0.036313 0.000000 -0.999340
vn -0.466422 0.000000 -0.884562
vn -0.036313 0.000000 -0.999340
vn -0.036313 0.000000 -0.999340
vn 0.000000 1.000000 0.000000
vn 0.000000 1.000000 0.000000
vn 0.000000 1.000000 0.000000
vn 0.000000 1.000000 0.000000
vn 0.000000 1.000000 0.000000
vn 0.000000 1.000000 0.000000
vn 0.003049 0.000000 0.999995
vn 0.003049 0.000000 0.999995
vn -0.352277 0.000000 0.935896
vn 0.003049 0.000000 0.999995
vn -0.352277 0.000000 0.935896
vn -0.352277 0.000000 0.935896
vn 0.000000 -1.000000 0.000000
vn 0.000000 -1.000000 0.000000
vn 0.000000 -1.000000 0.000000
vn 0.000000 -1.000000 0.000000
vn 0.000000 -1.000000 0.000000
vn 0.000000 -1.000000 0.000000
vn -0.036313 0.000000 -0.999340
vn -0.036313 0.000000 -0.999340
vn 0.307423 0.000000 -0.951573
vn -0.036313 0.000000 -0.999340
vn 0.307423 0.000000 -0.951573
vn 0.307423 0.000000 -0.951573
vn -0.157963 0.006011 0.987427
vn -0.266519 -0.074817 0.960922
vn 0.730243 -0.000490 0.683187
vn -0.972138 -0.006259 0.234326
vn -0.730242 0.000490 -0.683188
vn -0.996960 -0.066012 0.041394
vn -0.157963 0.006011 0.987427
vn -0.972138 -0.006259 0.234326
vn -0.266519 -0.074817 0.960922
vn -0.972138 -0.006259 0.234326
vn -0.996960 -0.066012 0.041394
vn -0.266519 -0.074817 0.960922
vn -0.266519 -0.074817 0.960922
vn 0.336242 -0.465535 0.818669
vn 0.730243 -0.000490 0.683187
vn -0.996960 -0.066012 0.041394
vn -0.730242 0.000490 -0.683188
vn -0.768374 -0.639781 0.016770
vn -0.266519 -0.074817 0.960922
vn -0.996960 -0.066012 0.041394
vn -0.768374 -0.639781 0.016770
vn -0.266519 -0.074817 0.960922
vn -0.768374 -0.639781 0.016770
vn 0.336242 -0.465535 0.818669
vn 0.336242 -0.465535 0.818669
vn 0.809665 -0.584757 -0.050014
vn 0.730243 -0.000490 0.683187
vn -0.768374 -0.639781 0.016770
vn -0.730242 0.000490 -0.683188
vn -0.304850 -0.408709 -0.860246
vn 0.336242 -0.465535 0.818669
vn -0.768374 -0.639781 0.016770
vn 0.809665 -0.584757 -0.050014
vn -0.768374 -0.639781 0.016770
vn -0.304850 -0.408709 -0.860246
vn 0.809665 -0.584757 -0.050014
vn 0.809665 -0.584757 -0.050014
vn 0.998884 -0.020828 -0.042383
vn 0.730243 -0.000490 0.683187
vn -0.304850 -0.408709 -0.860246
vn -0.730242 0.000490 -0.683188
vn 0.269760 -0.022081 -0.962674
vn 0.809665 -0.584757 -0.050014
vn -0.304850 -0.408709 -0.860246
vn 0.269760 -0.022081 -0.962674
vn 0.809665 -0.584757 -0.050014
vn 0.269760 -0.022081 -0.962674
vn 0.998884 -0.020828 -0.042383
vn 0.999016 0.000000 -0.044340
vn 0.931987 0.000000 -0.362491
vn 0.732337 0.000000 0.680942
vn 0.269258 0.000000 -0.963068
vn -0.732337 0.000000 -0.680942
vn -0.044341 0.000000 -0.999016
vn 0.999016 0.000000 -0.044340
vn 0.269258 0.000000 -0.963068
vn 0.931987 0.000000 -0.362491
vn 0.269258 0.000000 -0.963068
vn -0.044341 0.000000 -0.999016
vn 0.931987 0.000000 -0.362491
vn 0.931978 0.026816 -0.361520
vn 0.871555 0.421558 0.250362
vn 0.730243 -0.000490 0.683187
vn -0.042628 0.017615 -0.998936
vn -0.730242 0.000490 -0.683188
vn -0.029771 0.580825 -0.813484
vn 0.931978 0.026816 -0.361520
vn -0.042628 0.017615 -0.998936
vn -0.029771 0.580825 -0.813484
vn 0.931978 0.026816 -0.361520
vn -0.029771 0.580825 -0.813484
vn 0.871555 0.421558 0.250362
vn 0.871555 0.421558 0.250362
vn 0.048048 0.641754 0.765404
vn 0.730243 -0.000490 0.683187
vn -0.029771 0.580825 -0.813484
vn -0.730242 0.000490 -0.683188
vn -0.851492 0.461163 -0.249582
vn 0.871555 0.421558 0.250362
vn -0.029771 0.580825 -0.813484
vn 0.048048 0.641754 0.765404
vn -0.029771 0.580825 -0.813484
vn -0.851492 0.461163 -0.249582
vn 0.048048 0.641754 0.765404
vn 0.048048 0.641754 0.765404
vn 0.046159 0.060705 0.997088
vn 0.730243 -0.000490 0.683187
vn -0.851492 0.461163 -0.249582
vn -0.730242 0.000490 -0.683188
vn -0.929528 0.087836 0.358137
vn 0.048048 0.641754 0.765404
vn -0.851492 0.461163 -0.249582
vn -0.929528 0.087836 0.358137
vn 0.048048 0.641754 0.765404
vn -0.929528 0.087836 0.358137
vn 0.046159 0.060705 0.997088
vn 0.046159 0.060705 0.997088
vn -0.157963 0.006011 0.987427
vn 0.730243 -0.000490 0.683187
vn -0.929528 0.087836 0.358137
vn -0.730242 0.000490 -0.683188
vn -0.972138 -0.006259 0.234326
vn 0.046159 0.060705 0.997088
vn -0.929528 0.087836 0.358137
vn -0.157963 0.006011 0.987427
vn -0.929528 0.087836 0.358137
vn -0.972138 -0.006259 0.234326
vn -0.157963 0.006011 0.987427

# texture coords: 180
vt 0.214778 0.440330
vt 0.246356 0.440314
vt 0.246432 0.440459
vt 0.246356 0.440314
vt 0.276490 0.440434
vt 0.246432 0.440459
vt 0.246356 0.440314
vt 0.246356 0.434806
vt 0.276490 0.434925
vt 0.246356 0.440314
vt 0.276490 0.434925
vt 0.276490 0.440434
vt 0.246356 0.434806
vt 0.214778 0.434821
vt 0.276490 0.434925
vt 0.214778 0.434821
vt 0.246432 0.434951
vt 0.276490 0.434925
vt 0.214778 0.434821
vt 0.214778 0.440330
vt 0.246432 0.440459
vt 0.214778 0.434821
vt 0.246432 0.440459
vt 0.246432 0.434951
vt 0.246432 0.440459
vt 0.276490 0.440434
vt 0.323242 0.440552
vt 0.246432 0.440459
vt 0.323242 0.440552
vt 0.297332 0.440594
vt 0.276490 0.440434
vt 0.276490 0.434925
vt 0.323242 0.440552
vt 0.276490 0.434925
vt 0.323242 0.435044
vt 0.323242 0.440552
vt 0.276490 0.434925
vt 0.246432 0.434951
vt 0.297332 0.435085
vt 0.276490 0.434925
vt 0.297332 0.435085
vt 0.323242 0.435044
vt 0.246432 0.434951
vt 0.246432 0.440459
vt 0.297332 0.435085
vt 0.246432 0.440459
vt 0.297332 0.440594
vt 0.297332 0.435085
vt 0.297332 0.440594
vt 0.323242 0.440552
vt 0.447299 0.440657
vt 0.323242 0.440552
vt 0.463061 0.440597
vt 0.447299 0.440657
vt 0.323242 0.440552
vt 0.323242 0.435044
vt 0.463061 0.435088
vt 0.323242 0.440552
vt 0.463061 0.435088
vt 0.463061 0.440597
vt 0.323242 0.435044
vt 0.297332 0.435085
vt 0.463061 0.435088
vt 0.297332 0.435085
vt 0.447299 0.435148
vt 0.463061 0.435088
vt 0.297332 0.435085
vt 0.297332 0.440594
vt 0.447299 0.440657
vt 0.297332 0.435085
vt 0.447299 0.440657
vt 0.447299 0.435148
vt 0.230699 0.437289
vt 0.232850 0.431096
vt 0.244144 0.437392
vt 0.192252 0.437307
vt 0.205697 0.437411
vt 0.194403 0.431114
vt 0.230699 0.437289
vt 0.192252 0.437307
vt 0.232850 0.431096
vt 0.192252 0.437307
vt 0.194403 0.431114
vt 0.232850 0.431096
vt 0.232850 0.431096
vt 0.234488 0.424448
vt 0.244144 0.437392
vt 0.194403 0.431114
vt 0.205697 0.437411
vt 0.196040 0.424467
vt 0.232850 0.431096
vt 0.194403 0.431114
vt 0.196040 0.424467
vt 0.232850 0.431096
vt 0.196040 0.424467
vt 0.234488 0.424448
vt 0.234488 0.424448
vt 0.250704 0.424808
vt 0.244144 0.437392
vt 0.196040 0.424467
vt 0.205697 0.437411
vt 0.212257 0.424827
vt 0.234488 0.424448
vt 0.196040 0.424467
vt 0.250704 0.424808
vt 0.196040 0.424467
vt 0.212257 0.424827
vt 0.250704 0.424808
vt 0.250704 0.424808
vt 0.251730 0.434161
vt 0.244144 0.437392
vt 0.212257 0.424827
vt 0.205697 0.437411
vt 0.213283 0.434180
vt 0.250704 0.424808
vt 0.212257 0.424827
vt 0.213283 0.434180
vt 0.250704 0.424808
vt 0.213283 0.434180
vt 0.251730 0.434161
vt 0.251730 0.434161
vt 0.251730 0.440754
vt 0.244144 0.437392
vt 0.213283 0.434180
vt 0.205697 0.437411
vt 0.213283 0.440773
vt 0.251730 0.434161
vt 0.213283 0.434180
vt 0.251730 0.440754
vt 0.213283 0.434180
vt 0.213283 0.440773
vt 0.251730 0.440754
vt 0.251730 0.440754
vt 0.250704 0.449463
vt 0.244144 0.437392
vt 0.213283 0.440773
vt 0.205697 0.437411
vt 0.212257 0.449482
vt 0.251730 0.440754
vt 0.213283 0.440773
vt 0.212257 0.449482
vt 0.251730 0.440754
vt 0.212257 0.449482
vt 0.250704 0.449463
vt 0.250704 0.449463
vt 0.234776 0.449399
vt 0.244144 0.437392
vt 0.212257 0.449482
vt 0.205697 0.437411
vt 0.196328 0.449418
vt 0.250704 0.449463
vt 0.212257 0.449482
vt 0.234776 0.449399
vt 0.212257 0.449482
vt 0.196328 0.449418
vt 0.234776 0.449399
vt 0.234776 0.449399
vt 0.232850 0.443487
vt 0.244144 0.437392
vt 0.196328 0.449418
vt 0.205697 0.437411
vt 0.194403 0.443505
vt 0.234776 0.449399
vt 0.196328 0.449418
vt 0.194403 0.443505
vt 0.234776 0.449399
vt 0.194403 0.443505
vt 0.232850 0.443487
vt 0.232850 0.443487
vt 0.230699 0.437289
vt 0.244144 0.437392
vt 0.194403 0.443505
vt 0.205697 0.437411
vt 0.192252 0.437307
vt 0.232850 0.443487
vt 0.194403 0.443505
vt 0.230699 0.437289
vt 0.194403 0.443505
vt 0.192252 0.437307
vt 0.230699 0.437289

# polygons: 60

f 1/1/1 2/2/2 6/3/3
f 2/4/4 7/5/5 6/6/6
f 2/7/7 3/8/8 8/9/9
f 2/10/10 8/11/11 7/12/12
f 3/13/13 4/14/14 8/15/15
f 4/16/16 9/17/17 8/18/18
f 4/19/19 5/20/20 10/21/21
f 4/22/22 10/23/23 9/24/24
f 6/25/25 7/26/26 12/27/27
f 6/28/28 12/29/29 11/30/30
f 7/31/31 8/32/32 12/33/33
f 8/34/34 13/35/35 12/36/36
f 8/37/37 9/38/38 14/39/39
f 8/40/40 14/41/41 13/42/42
f 9/43/43 10/44/44 14/45/45
f 10/46/46 15/47/47 14/48/48
f 11/49/49 12/50/50 16/51/51
f 12/52/52 17/53/53 16/54/54
f 12/55/55 13/56/56 18/57/57
f 12/58/58 18/59/59 17/60/60
f 13/61/61 14/62/62 18/63/63
f 14/64/64 19/65/65 18/66/66
f 14/67/67 15/68/68 20/69/69
f 14/70/70 20/71/71 19/72/72
f 21/73/73 23/74/74 40/75/75
f 22/76/76 39/77/77 24/78/78
f 21/79/79 22/80/80 23/81/81
f 22/82/82 24/83/83 23/84/84
f 23/85/85 25/86/86 40/87/87
f 24/88/88 39/89/89 26/90/90
f 23/91/91 24/92/92 26/93/93
f 23/94/94 26/95/95 25/96/96
f 25/97/97 27/98/98 40/99/99
f 26/100/100 39/101/101 28/102/102
f 25/103/103 26/104/104 27/105/105
f 26/106/106 28/107/107 27/108/108
f 27/109/109 29/110/110 40/111/111
f 28/112/112 39/113/113 30/114/114
f 27/115/115 28/116/116 30/117/117
f 27/118/118 30/119/119 29/120/120
f 29/121/121 31/122/122 40/123/123
f 30/124/124 39/125/125 32/126/126
f 29/127/127 30/128/128 31/129/129
f 30/130/130 32/131/131 31/132/132
f 31/133/133 33/134/134 40/135/135
f 32/136/136 39/137/137 34/138/138
f 31/139/139 32/140/140 34/141/141
f 31/142/142 34/143/143 33/144/144
f 33/145/145 35/146/146 40/147/147
f 34/148/148 39/149/149 36/150/150
f 33/151/151 34/152/152 35/153/153
f 34/154/154 36/155/155 35/156/156
f 35/157/157 37/158/158 40/159/159
f 36/160/160 39/161/161 38/162/162
f 35/163/163 36/164/164 38/165/165
f 35/166/166 38/167/167 37/168/168
f 37/169/169 21/170/170 40/171/171
f 38/172/172 39/173/173 22/174/174
f 37/175/175 38/176/176 21/177/177
f 38/178/178 22/179/179 21/180/180

# object end 'Converted object 0(m1)'
