# Blender 5.2.2 LTS
# www.blender.org
o Bass_Bass.004
v -1.936388 -14.363636 -0.000001
v -1.683185 -14.363636 -0.944967
v -0.046455 -14.363636 -0.000001
v 0.254485 31.141500 -1.893434
v 1.021269 31.141500 -1.893434
v 0.357205 31.074917 -2.271045
v -1.098841 20.029324 0.000001
v -0.957848 20.029324 -0.526191
v -0.991422 -14.363636 -1.636731
v 0.637922 30.961651 -2.913413
v -0.572648 20.029324 -0.911391
v -0.046455 -14.363636 -1.889934
v 1.021269 30.961651 -2.913413
v -0.046455 20.029324 -1.052384
v 0.898511 -14.363636 -1.636731
v 1.404706 30.961651 -2.913413
v 0.479738 20.029324 -0.911391
v 1.590275 -14.363636 -0.944967
v 1.685393 31.074917 -2.271045
v 0.864938 20.029324 -0.526191
v 1.843478 -14.363636 -0.000001
v 1.788113 31.141500 -1.893434
v 1.005931 20.029324 0.000001
v -2.137045 20.846863 -1.129905
v -2.366705 21.026714 -0.109926
v -1.509607 20.846863 -1.129905
v -0.652508 20.846863 -1.129905
v 0.204590 20.846863 -1.129905
v 0.832028 20.846863 -1.129905
v 1.061688 21.026714 -0.109926
v -1.819896 22.398706 -1.403536
v -2.113027 22.578556 -0.383557
v -1.019104 22.398706 -1.403536
v 0.074740 22.398706 -1.403536
v 1.168662 22.398706 -1.403536
v 1.969453 22.398706 -1.403536
v 2.262583 22.578556 -0.383557
v -1.407057 24.666735 -1.803451
v -1.658398 24.846584 -0.783471
v -0.720487 24.666735 -1.803451
v 0.217372 24.666735 -1.803451
v 1.155230 24.666735 -1.803451
v 1.841853 24.666735 -1.803451
v 2.093141 24.846584 -0.783471
v -0.843848 27.717657 -2.341410
v -0.986811 27.897507 -1.321431
v -0.453318 27.717657 -2.341410
v 0.080105 27.717657 -2.341410
v 0.613564 27.717657 -2.341410
v 1.004128 27.717657 -2.341410
v 1.147057 27.897507 -1.321431
v -0.549373 28.799000 -2.532079
v -0.771127 28.978849 -1.512100
v 0.056519 28.799000 -2.532079
v 0.883976 28.799000 -2.532079
v 1.711622 28.799000 -2.532079
v 2.317515 28.799000 -2.532079
v 2.539174 28.978849 -1.512100
v -0.340452 29.918959 -2.729559
v -0.551105 30.098808 -1.709579
v 0.235149 29.918959 -2.729559
v 1.021230 29.918959 -2.729559
v 1.807485 29.918959 -2.729559
v 2.383086 29.918959 -2.729559
v 2.593682 30.098808 -1.709579
v -1.098070 19.554157 0.398991
v -1.104507 19.308342 0.398992
v 0.968738 19.554157 0.398991
v 0.975175 19.308340 0.398992
v 0.968738 19.554157 0.000002
v 0.975175 19.308340 0.000002
v -1.098070 19.554157 0.000002
v -1.104507 19.308342 0.000002
v 7.127055 -12.251929 -2.509139
v 6.246784 -16.809120 -2.509140
v -0.006279 -19.518597 -2.509140
v 7.127055 -12.251929 -0.259139
v -0.006279 -19.518597 -0.259140
v 6.246784 -16.809120 -0.259140
v 6.309051 -19.894030 -2.509140
v 6.309051 -19.894030 -0.259140
v 8.230137 -23.324314 -2.509140
v 8.230137 -23.324314 -0.259140
v 8.586045 -25.733490 -2.509140
v 8.586045 -25.733490 -0.259140
v 8.108136 -28.075684 -2.509141
v 8.108136 -28.075684 -0.259141
v 6.401617 -29.746218 -2.509141
v 6.401617 -29.746218 -0.259141
v 4.051503 -30.662176 -2.509141
v 4.051503 -30.662176 -0.259141
v 0.343404 -31.008991 -2.509141
v 0.343404 -31.008991 -0.259141
v -2.827961 -30.471104 -2.509141
v -2.827961 -30.471104 -0.259141
v -5.201765 -29.528549 -2.509141
v -5.201765 -29.528549 -0.259141
v -6.615139 -28.267982 -2.509141
v -6.615139 -28.267982 -0.259141
v -7.733585 -26.744493 -2.509140
v -7.733585 -26.744493 -0.259140
v -8.508221 -25.024658 -2.509140
v -8.508221 -25.024658 -0.259140
v -8.905191 -23.183655 -2.509140
v -8.905191 -23.183655 -0.259140
v -8.631963 -21.551929 -2.509140
v -8.631963 -21.551929 -0.259140
v -6.859378 -17.914059 -2.509140
v -6.859378 -17.914059 -0.259140
v -6.049169 -15.824633 -2.509140
v -6.049169 -15.824633 -0.259140
v -6.056968 -14.028529 -2.509139
v -6.056968 -14.028529 -0.259139
v -7.485524 -9.263627 -2.509139
v -7.485524 -9.263627 -0.259139
v -7.316450 -6.791035 -2.509139
v -7.316450 -6.791035 -0.259138
v -6.141457 -4.859087 -2.509139
v -6.141457 -4.859087 -0.259139
v -4.659804 -4.901233 -2.509139
v -4.659804 -4.901233 -0.259139
v -2.665523 -9.701233 -2.509139
v -2.665523 -9.701233 -0.259139
v -1.602904 -9.736866 -2.509139
v -1.602904 -9.736866 -0.259139
v 1.327054 -12.657701 -2.509139
v 1.327054 -12.657701 -0.259139
v 2.582564 -13.663627 -2.509139
v 2.582564 -13.663627 -0.259139
v 3.508208 -13.595197 -2.509139
v 3.508208 -13.595197 -0.259139
v 4.982296 -11.591299 -2.509139
v 4.982296 -11.591299 -0.259139
v 6.163716 -10.980724 -2.509139
v 6.163716 -10.980724 -0.259139
v -2.674232 -18.030497 -0.000002
v -2.674232 -19.057524 -0.000002
v 2.217660 -18.030497 -0.000002
v 2.217660 -19.057524 -0.000002
v 2.217660 -18.030497 -0.250002
v 2.217660 -19.057524 -0.250002
v -2.674232 -18.030497 -0.250002
v -2.674232 -19.057524 -0.250002
v -2.674232 -22.814280 -0.000002
v -2.674232 -23.841307 -0.000002
v 2.217660 -22.814280 -0.000002
v 2.217660 -23.841307 -0.000002
v 2.217660 -22.814280 -0.250002
v 2.217660 -23.841307 -0.250002
v -2.674232 -22.814280 -0.250002
v -2.674232 -23.841307 -0.250002
v -2.205233 -26.493288 0.510099
v -2.205233 -26.689365 0.510099
v 1.637904 -26.493288 0.510099
v 1.637904 -26.689365 0.510099
v 1.637904 -26.493288 -0.250002
v 1.637904 -26.689365 -0.250002
v -2.205233 -26.493288 -0.250002
v -2.205233 -26.689365 -0.250002
v -2.342488 -26.306065 -0.129905
v -2.342488 -28.982534 -0.129906
v 1.814375 -26.306065 -0.129905
v 1.814375 -28.982534 -0.129906
v 1.814375 -26.306065 -0.250002
v 1.814375 -28.982534 -0.250003
v -2.342488 -26.306065 -0.250002
v -2.342488 -28.982534 -0.250003
v 7.557509 -24.957586 0.246746
v 7.146452 -24.957586 0.246746
v 7.479004 -25.199200 0.246746
v 7.877221 -24.957586 -0.269230
v 7.598615 -24.957586 -0.084754
v 7.512259 -25.223362 -0.084754
v 7.737657 -25.387121 -0.269230
v 7.273476 -25.348526 0.246746
v 7.372272 -25.652590 -0.269230
v 7.286178 -25.387619 -0.084754
v 7.019428 -25.348526 0.246746
v 7.006726 -25.387619 -0.084754
v 6.920632 -25.652590 -0.269230
v 6.813899 -25.199200 0.246746
v 6.555247 -25.387121 -0.269230
v 6.780643 -25.223362 -0.084754
v 6.735394 -24.957586 0.246746
v 6.694288 -24.957586 -0.084754
v 6.415683 -24.957586 -0.269230
v 6.813899 -24.715973 0.246746
v 6.555247 -24.528051 -0.269230
v 6.780643 -24.691811 -0.084754
v 7.019428 -24.566647 0.246746
v 7.006726 -24.527554 -0.084754
v 6.920632 -24.262583 -0.269230
v 7.273476 -24.566647 0.246746
v 7.372272 -24.262583 -0.269230
v 7.286178 -24.527554 -0.084754
v 7.479004 -24.715973 0.246746
v 7.512259 -24.691811 -0.084754
v 7.737657 -24.528051 -0.269230
v 6.969275 -27.222294 0.246746
v 6.558218 -27.222294 0.246746
v 6.890770 -27.463907 0.246746
v 7.288987 -27.222294 -0.269230
v 7.010381 -27.222294 -0.084754
v 6.924025 -27.488070 -0.084754
v 7.149422 -27.651829 -0.269231
v 6.685241 -27.613234 0.246746
v 6.784038 -27.917297 -0.269231
v 6.697944 -27.652327 -0.084755
v 6.431193 -27.613234 0.246746
v 6.418491 -27.652327 -0.084755
v 6.332397 -27.917297 -0.269231
v 6.225665 -27.463907 0.246746
v 5.967013 -27.651829 -0.269231
v 6.192409 -27.488070 -0.084754
v 6.147160 -27.222294 0.246746
v 6.106054 -27.222294 -0.084754
v 5.827448 -27.222294 -0.269230
v 6.225665 -26.980680 0.246746
v 5.967013 -26.792759 -0.269230
v 6.192409 -26.956518 -0.084754
v 6.431193 -26.831354 0.246746
v 6.418491 -26.792261 -0.084754
v 6.332397 -26.527290 -0.269230
v 6.685241 -26.831354 0.246746
v 6.784038 -26.527290 -0.269230
v 6.697944 -26.792261 -0.084754
v 6.890770 -26.980680 0.246746
v 6.924025 -26.956518 -0.084754
v 7.149422 -26.792759 -0.269230
v 5.469275 -28.869352 0.246745
v 5.058218 -28.869352 0.246745
v 5.390770 -29.110966 0.246745
v 5.788987 -28.869352 -0.269231
v 5.510381 -28.869352 -0.084755
v 5.424025 -29.135128 -0.084755
v 5.649422 -29.298887 -0.269231
v 5.185241 -29.260292 0.246745
v 5.284038 -29.564356 -0.269231
v 5.197944 -29.299385 -0.084755
v 4.931193 -29.260292 0.246745
v 4.918491 -29.299385 -0.084755
v 4.832397 -29.564356 -0.269231
v 4.725665 -29.110966 0.246745
v 4.467013 -29.298887 -0.269231
v 4.692409 -29.135128 -0.084755
v 4.647160 -28.869352 0.246745
v 4.606054 -28.869352 -0.084755
v 4.327448 -28.869352 -0.269231
v 4.725665 -28.627739 0.246745
v 4.467013 -28.439817 -0.269231
v 4.692409 -28.603577 -0.084755
v 4.931193 -28.478413 0.246745
v 4.918491 -28.439320 -0.084755
v 4.832397 -28.174349 -0.269231
v 5.185241 -28.478413 0.246745
v 5.284038 -28.174349 -0.269231
v 5.197944 -28.439320 -0.084755
v 5.390770 -28.627739 0.246745
v 5.424025 -28.603577 -0.084755
v 5.649422 -28.439817 -0.269231
v 0.665456 29.192156 -2.863114
v 0.494404 28.900387 -2.811666
v 0.323351 29.192156 -2.863114
v 0.665456 29.555847 -1.000178
v 0.323351 29.555847 -1.000178
v 0.494404 29.264076 -0.948731
v 0.152298 28.900387 -2.811666
v 0.152298 29.264076 -0.948731
v -0.018754 29.192156 -2.863114
v -0.018754 29.555847 -1.000178
v 0.152298 29.483931 -2.914561
v 0.152298 29.847620 -1.051626
v 0.494404 29.483931 -2.914561
v 0.494404 29.847620 -1.051626
v 0.139140 26.756054 -2.433564
v -0.031912 26.464279 -2.382117
v -0.202965 26.756054 -2.433564
v 0.139140 27.119743 -0.570629
v -0.202965 27.119743 -0.570629
v -0.031912 26.827965 -0.519182
v -0.374017 26.464279 -2.382117
v -0.374017 26.827965 -0.519182
v -0.545070 26.756054 -2.433564
v -0.545070 27.119743 -0.570629
v -0.374017 27.047825 -2.485011
v -0.374017 27.411514 -0.622076
v -0.031912 27.047825 -2.485011
v -0.031912 27.411514 -0.622076
v -0.387175 24.345867 -2.008582
v -0.558228 24.054092 -1.957136
v -0.729281 24.345867 -2.008582
v -0.387175 24.709558 -0.145647
v -0.729281 24.709558 -0.145647
v -0.558228 24.417782 -0.094201
v -0.900333 24.054092 -1.957136
v -0.900333 24.417782 -0.094201
v -1.071386 24.345867 -2.008582
v -1.071386 24.709558 -0.145647
v -0.900333 24.637638 -2.060030
v -0.900333 25.001326 -0.197095
v -0.558228 24.637638 -2.060030
v -0.558228 25.001326 -0.197095
v -0.834544 21.832012 -1.565323
v -1.005596 21.540241 -1.513876
v -1.176649 21.832012 -1.565323
v -0.834544 22.195702 0.297612
v -1.176649 22.195702 0.297612
v -1.005596 21.903934 0.349060
v -1.347702 21.540241 -1.513876
v -1.347702 21.903934 0.349060
v -1.518754 21.832012 -1.565323
v -1.518754 22.195702 0.297612
v -1.347702 22.123781 -1.616770
v -1.347702 22.487471 0.246165
v -1.005596 22.123781 -1.616770
v -1.005596 22.487471 0.246165
v -0.717013 19.495726 0.546640
v -0.784891 19.506580 0.660333
v -0.852769 19.495686 0.546234
v -0.659636 21.969158 0.096904
v -0.759826 22.060768 0.096718
v -0.696164 22.030033 0.212633
v -0.920646 19.506540 0.659927
v -0.796350 22.121645 0.212448
v -0.988524 19.495649 0.545828
v -0.860017 22.152378 0.096534
v -0.920646 19.484793 0.432133
v -0.823495 22.091497 -0.019197
v -0.784891 19.484833 0.432539
v -0.723304 21.999889 -0.019011
v -0.166554 19.496698 0.558074
v -0.234442 19.507570 0.671971
v -0.302330 19.496696 0.558075
v -0.193858 24.479330 -0.346247
v -0.286457 24.578630 -0.346247
v -0.225322 24.542816 -0.230425
v -0.370217 19.507570 0.671970
v -0.317921 24.642115 -0.230425
v -0.438105 19.496698 0.558073
v -0.379057 24.677931 -0.346247
v -0.370217 19.485825 0.444175
v -0.347589 24.614449 -0.462070
v -0.234442 19.485825 0.444177
v -0.254990 24.515150 -0.462070
v 0.361464 19.496738 0.555337
v 0.283877 19.509165 0.685506
v 0.206291 19.496738 0.555337
v 0.331424 26.855606 -0.765658
v 0.238036 26.979527 -0.765658
v 0.303243 26.931513 -0.633291
v 0.128705 19.509165 0.685506
v 0.209858 27.055443 -0.633290
v 0.051119 19.496738 0.555337
v 0.144649 27.103447 -0.765658
v 0.128705 19.484314 0.425169
v 0.172826 27.027538 -0.898027
v 0.283877 19.484314 0.425169
v 0.266214 26.903608 -0.898027
v 0.838730 19.496159 0.543070
v 0.770842 19.507030 0.656937
v 0.702955 19.496155 0.543009
v 0.848512 29.382305 -1.187420
v 0.761352 29.486410 -1.187448
v 0.820466 29.447392 -1.071612
v 0.635067 19.507025 0.656875
v 0.733317 29.551504 -1.071639
v 0.567179 19.496149 0.542949
v 0.674199 29.590523 -1.187476
v 0.635067 19.485279 0.429082
v 0.702231 29.525423 -1.303286
v 0.770842 19.485283 0.429144
v 0.789393 29.421322 -1.303256
v -1.725062 -28.396248 -0.180688
v -1.793724 -28.442719 -0.071215
v -1.862386 -28.396248 -0.180688
v -1.725062 -26.570309 0.585175
v -1.862386 -26.570309 0.585175
v -1.793724 -26.616777 0.694646
v -1.931048 -28.442719 -0.071215
v -1.931048 -26.616777 0.694646
v -1.999710 -28.396248 -0.180688
v -1.999710 -26.570309 0.585175
v -1.931048 -28.349775 -0.290161
v -1.931048 -26.523834 0.475700
v -1.793724 -28.349775 -0.290161
v -1.793724 -26.523834 0.475700
v -0.712867 -28.396248 -0.180688
v -0.781529 -28.442719 -0.071215
v -0.850191 -28.396248 -0.180688
v -0.712867 -26.570309 0.585175
v -0.850191 -26.570309 0.585175
v -0.781529 -26.616777 0.694646
v -0.918853 -28.442719 -0.071215
v -0.918853 -26.616777 0.694646
v -0.987515 -28.396248 -0.180688
v -0.987515 -26.570309 0.585175
v -0.918853 -28.349775 -0.290161
v -0.918853 -26.523834 0.475700
v -0.781529 -28.349775 -0.290161
v -0.781529 -26.523834 0.475700
v 0.482255 -28.396248 -0.180688
v 0.413593 -28.442719 -0.071215
v 0.344931 -28.396248 -0.180688
v 0.482255 -26.570309 0.585175
v 0.344931 -26.570309 0.585175
v 0.413593 -26.616777 0.694646
v 0.276269 -28.442719 -0.071215
v 0.276269 -26.616777 0.694646
v 0.207607 -28.396248 -0.180688
v 0.207607 -26.570309 0.585175
v 0.276269 -28.349775 -0.290161
v 0.276269 -26.523834 0.475700
v 0.413593 -28.349775 -0.290161
v 0.413593 -26.523834 0.475700
v 1.506646 -28.396248 -0.180688
v 1.437983 -28.442719 -0.071215
v 1.369321 -28.396248 -0.180688
v 1.506646 -26.570309 0.585175
v 1.369321 -26.570309 0.585175
v 1.437983 -26.616777 0.694646
v 1.300659 -28.442719 -0.071215
v 1.300659 -26.616777 0.694646
v 1.231997 -28.396248 -0.180688
v 1.231997 -26.570309 0.585175
v 1.300659 -28.349775 -0.290161
v 1.300659 -26.523834 0.475700
v 1.437983 -28.349775 -0.290161
v 1.437983 -26.523834 0.475700
vn 0.0001 -0.4473 0.8944
vn -0.0000 -1.0000 -0.0000
vn -0.0000 0.9848 -0.1737
vn -0.9657 0.0235 -0.2587
vn -0.8658 0.0243 -0.4999
vn -0.0000 0.9848 -0.1736
vn -0.4999 0.0243 -0.8658
vn -0.0000 0.0243 -0.9997
vn 0.4999 0.0243 -0.8658
vn 0.8658 0.0243 -0.4999
vn -0.0002 -0.7071 0.7072
vn 0.9657 0.0235 -0.2587
vn -0.4247 -0.8336 -0.3533
vn -0.3657 -0.7725 -0.5191
vn -0.5693 -0.8192 -0.0697
vn -0.6183 -0.7860 -0.0006
vn -0.1785 -0.5570 -0.8111
vn -0.2677 -0.4423 -0.8560
vn -0.0839 -0.2107 -0.9739
vn 0.0021 -0.1831 -0.9831
vn 0.0859 -0.1753 -0.9808
vn 0.3132 -0.3063 -0.8989
vn 0.6315 -0.3180 -0.7071
vn 0.8975 -0.2212 -0.3814
vn 0.9687 -0.0955 -0.2291
vn 0.9627 -0.0822 -0.2579
vn -0.9528 0.1260 -0.2762
vn -0.9580 0.1530 -0.2427
vn -0.9550 0.1286 -0.2673
vn -0.9514 0.1234 -0.2822
vn -0.0000 -0.1736 -0.9848
vn 0.8919 -0.4210 -0.1649
vn 0.7833 -0.6180 -0.0674
vn 0.7871 -0.6096 -0.0943
vn 0.9539 -0.1986 -0.2252
vn -0.9534 0.1324 -0.2712
vn -0.9611 0.1535 -0.2296
vn 0.9596 0.0923 -0.2659
vn 0.9593 0.1627 -0.2309
vn -0.9626 0.1818 -0.2009
vn -0.9630 0.1880 -0.1929
vn 0.9804 -0.1223 -0.1546
vn 0.8565 -0.5138 -0.0484
vn -0.9612 0.1730 -0.2148
vn -0.9618 0.1460 -0.2315
vn 0.8045 -0.5916 -0.0533
vn 0.9306 -0.3392 -0.1374
vn -0.8802 0.3739 -0.2922
vn -0.8595 0.4332 -0.2713
vn 0.9642 0.1366 -0.2272
vn 0.8488 0.4306 -0.3068
vn -0.7539 0.5697 -0.3271
vn -0.7783 0.5470 -0.3082
vn -0.7003 0.5849 -0.4092
vn 0.7293 0.5825 -0.3589
vn 0.7003 0.5850 -0.4091
vn 0.7710 0.5698 -0.2844
vn -0.0000 0.1736 0.9848
vn -0.0000 0.1417 0.9899
vn -0.0000 0.0731 0.9973
vn -0.0000 0.0366 0.9993
vn -0.0000 -0.4472 0.8944
vn -0.0000 -0.7072 0.7071
vn -0.6588 0.6763 0.3296
vn -0.4100 -0.3994 0.8200
vn 0.4063 0.4172 0.8129
vn 0.6743 -0.6569 0.3374
vn 0.6978 0.7163 -0.0000
vn 0.7163 -0.6978 -0.0000
vn -0.6978 0.7163 -0.0000
vn -0.7163 -0.6978 -0.0000
vn -0.0000 -0.0000 -1.0000
vn -0.0000 -0.0000 1.0000
vn 0.9739 0.2268 -0.0000
vn 0.9739 0.2269 -0.0000
vn 0.9964 -0.0852 -0.0000
vn 0.9650 0.2622 -0.0000
vn 0.9465 0.3227 -0.0000
vn 0.9996 -0.0273 -0.0000
vn 0.8782 -0.4783 -0.0000
vn 0.5423 -0.8402 -0.0000
vn 0.2304 -0.9731 -0.0000
vn -0.0374 -0.9993 -0.0000
vn -0.2696 -0.9630 -0.0000
vn -0.5254 -0.8509 -0.0000
vn -0.7399 -0.6727 -0.0000
vn -0.8637 -0.5040 -0.0000
vn -0.9499 -0.3125 -0.0000
vn -0.9997 -0.0232 -0.0000
vn -0.9524 0.3047 -0.0000
vn -0.9165 0.4001 -0.0000
vn -0.9833 0.1818 -0.0000
vn -0.9891 -0.1473 -0.0000
vn -0.9938 -0.1113 -0.0000
vn -0.9531 0.3025 -0.0000
vn -0.4777 0.8785 -0.0000
vn -0.4776 0.8786 -0.0000
vn 0.5669 0.8238 -0.0000
vn 0.5690 0.8223 -0.0000
vn 0.3974 0.9176 -0.0000
vn 0.6666 0.7454 -0.0000
vn 0.2963 0.9551 -0.0000
vn -0.4840 0.8751 -0.0000
vn -0.6494 0.7604 -0.0000
vn -0.6494 0.7605 -0.0000
vn 0.2208 0.9753 -0.0000
vn -0.6667 0.6667 0.3334
vn -0.4083 -0.4083 0.8165
vn 0.4083 0.4083 0.8165
vn 0.6667 -0.6667 0.3334
vn 0.7071 0.7071 -0.0000
vn 0.7071 -0.7071 -0.0000
vn -0.7071 0.7071 -0.0000
vn -0.7071 -0.7071 -0.0000
vn -0.6667 0.6666 0.3334
vn 0.6667 -0.6666 0.3334
vn 0.8371 0.0001 0.5470
vn 0.5224 -0.3795 0.7636
vn 0.5521 -0.0000 0.8338
vn 0.8460 -0.0000 0.5332
vn 0.6844 -0.4972 0.5332
vn 0.4466 -0.3245 0.8338
vn 0.2587 -0.7961 0.5471
vn 0.1706 -0.5251 0.8338
vn 0.2614 -0.8046 0.5332
vn -0.1995 -0.6141 0.7636
vn -0.2614 -0.8046 0.5332
vn -0.1706 -0.5251 0.8338
vn -0.6772 -0.4921 0.5470
vn -0.4466 -0.3245 0.8338
vn -0.6844 -0.4973 0.5332
vn -0.6457 -0.0000 0.7636
vn -0.8460 -0.0000 0.5332
vn -0.5521 -0.0000 0.8338
vn -0.6772 0.4921 0.5470
vn -0.4466 0.3245 0.8338
vn -0.6844 0.4973 0.5332
vn -0.1995 0.6141 0.7636
vn -0.2614 0.8046 0.5332
vn -0.1706 0.5251 0.8338
vn 0.2587 0.7961 0.5471
vn 0.1706 0.5251 0.8338
vn 0.2614 0.8046 0.5332
vn 0.5224 0.3795 0.7636
vn 0.6844 0.4972 0.5332
vn 0.4466 0.3245 0.8338
vn 0.6547 -0.1313 -0.7444
vn 0.4360 -0.8286 -0.3512
vn 0.8660 0.0868 0.4924
vn 0.3248 -0.4220 0.8464
vn -0.3300 -0.6933 -0.6407
vn -0.4300 -0.6449 0.6318
vn -0.8660 -0.0868 -0.4924
vn -0.6547 0.1313 0.7444
vn -0.3273 0.4206 -0.8462
vn -0.4360 0.8286 0.3512
vn 0.4301 0.6449 -0.6318
vn 0.3299 0.6933 0.6407
vn 0.3248 -0.4219 0.8464
vn -0.3299 -0.6933 -0.6407
vn 0.6546 -0.1313 -0.7444
vn -0.4360 0.8286 0.3511
vn -0.0000 0.1737 0.9848
vn 0.6445 -0.7611 0.0735
vn 0.5070 -0.4041 0.7613
vn -0.0000 -0.9955 0.0950
vn 0.9593 0.2608 -0.1080
vn 0.6649 0.7268 -0.1725
vn 0.7917 0.5325 0.2995
vn -0.3397 -0.6693 0.6608
vn -0.0705 0.6139 0.7862
vn -0.8866 -0.4523 0.0967
vn -0.2902 0.9532 -0.0851
vn -0.3160 -0.8179 -0.4808
vn -0.1901 0.3146 -0.9300
vn 0.3837 -0.6261 -0.6788
vn 0.6848 0.3946 -0.6127
vn 0.6535 -0.7535 0.0719
vn 0.5260 -0.3938 0.7538
vn 0.9611 0.2519 -0.1135
vn 0.7204 0.6718 -0.1725
vn 0.8246 0.4949 0.2742
vn -0.3366 -0.6741 0.6574
vn -0.0314 0.5865 0.8093
vn -0.8753 -0.4718 0.1060
vn -0.2704 0.9602 -0.0705
vn -0.3141 -0.8222 -0.4746
vn -0.1785 0.2725 -0.9455
vn 0.3826 -0.6229 -0.6823
vn 0.7112 0.3633 -0.6019
vn 0.6531 -0.7539 0.0719
vn 0.5408 -0.3990 0.7405
vn 0.9696 0.2150 -0.1164
vn 0.7866 0.5928 -0.1725
vn 0.8662 0.4321 0.2510
vn -0.3366 -0.6743 0.6573
vn 0.0195 0.5556 0.8312
vn -0.8768 -0.4675 0.1125
vn -0.2224 0.9732 -0.0577
vn -0.3144 -0.8218 -0.4753
vn -0.1585 0.2360 -0.9587
vn 0.3790 -0.6264 -0.6811
vn 0.7443 0.3118 -0.5906
vn 0.6515 -0.7552 0.0722
vn 0.5306 -0.4004 0.7471
vn 0.9663 0.2304 -0.1145
vn 0.7553 0.6323 -0.1725
vn 0.8467 0.4618 0.2644
vn -0.3363 -0.6751 0.6566
vn -0.0077 0.5686 0.8226
vn -0.8759 -0.4700 0.1091
vn -0.2467 0.9669 -0.0647
vn -0.3146 -0.8211 -0.4762
vn -0.1650 0.2577 -0.9520
vn 0.3823 -0.6232 -0.6822
vn 0.7289 0.3375 -0.5956
vn 0.6548 -0.6957 -0.2954
vn 0.4337 -0.7516 0.4970
vn -0.0000 -0.9205 -0.3908
vn 0.8660 0.4603 0.1954
vn -0.0000 0.9205 0.3908
vn 0.3268 0.4755 0.8167
vn -0.3274 -0.9169 0.2283
vn -0.4323 0.1699 0.8856
vn -0.8660 -0.4603 -0.1954
vn -0.6548 0.6957 0.2954
vn -0.3274 -0.4757 -0.8164
vn -0.4337 0.7515 -0.4971
vn 0.4323 -0.1700 -0.8856
vn 0.3279 0.9168 -0.2280
vn -0.0000 -0.9205 -0.3907
vn 0.3268 0.4755 0.8168
vn -0.8660 -0.4602 -0.1954
vn -0.4337 0.7516 -0.4970
vn 0.4337 -0.7515 0.4971
vt 0.622373 0.732646
vt 0.630440 0.732646
vt 0.682583 0.732646
vt 0.692170 0.007791
vt 0.716598 0.007791
vt 0.695442 0.008852
vt 0.649055 0.184798
vt 0.653547 0.184798
vt 0.652478 0.732646
vt 0.702745 0.013931
vt 0.668035 0.170658
vt 0.713737 0.013931
vt 0.683123 0.170658
vt 0.712688 0.732646
vt 0.724731 0.013931
vt 0.698210 0.170658
vt 0.734726 0.732646
vt 0.737756 0.008852
vt 0.711618 0.184798
vt 0.742792 0.732646
vt 0.741029 0.007791
vt 0.716110 0.184798
vt 0.623180 0.158938
vt 0.608664 0.168910
vt 0.641171 0.158938
vt 0.665746 0.158938
vt 0.690321 0.158938
vt 0.708311 0.158938
vt 0.717886 0.168910
vt 0.632274 0.136690
vt 0.616745 0.144191
vt 0.655234 0.136690
vt 0.686597 0.136690
vt 0.717963 0.136690
vt 0.740923 0.136690
vt 0.756144 0.144191
vt 0.644111 0.104176
vt 0.631229 0.108063
vt 0.663796 0.104176
vt 0.690687 0.104176
vt 0.717578 0.104176
vt 0.737265 0.104176
vt 0.750746 0.108063
vt 0.660259 0.060437
vt 0.652624 0.059465
vt 0.671457 0.060437
vt 0.686751 0.060437
vt 0.702047 0.060437
vt 0.713245 0.060437
vt 0.720606 0.059465
vt 0.668703 0.044935
vt 0.659496 0.042240
vt 0.686075 0.044935
vt 0.709800 0.044935
vt 0.733531 0.044935
vt 0.750903 0.044935
vt 0.383880 0.960565
vt 0.339529 0.943340
vt 0.334976 0.940475
vt 0.764956 0.042240
vt 0.674693 0.028879
vt 0.666505 0.024400
vt 0.691197 0.028879
vt 0.713736 0.028879
vt 0.736279 0.028879
vt 0.752783 0.028879
vt 0.766693 0.024400
vt 0.335522 0.995014
vt 0.311094 0.995014
vt 0.285429 0.978405
vt 0.385616 0.978405
vt 0.359952 0.995014
vt 0.278420 0.960565
vt 0.271548 0.943340
vt 0.250153 0.894742
vt 0.369670 0.894742
vt 0.235669 0.858614
vt 0.375068 0.858614
vt 0.227588 0.833895
vt 0.336810 0.833895
vt 0.267979 0.818007
vt 0.335033 0.818007
vt 0.241297 0.270159
vt 0.361716 0.270159
vt 0.268004 0.810438
vt 0.267799 0.806523
vt 0.333849 0.810438
vt 0.334054 0.806523
vt 0.867011 0.734047
vt 0.844296 0.792846
vt 0.682935 0.827805
vt 0.530041 0.303797
vt 0.302786 0.188045
vt 0.501997 0.231205
vt 0.911118 0.699008
vt 0.883074 0.771600
vt 0.845903 0.832649
vt 0.503981 0.182065
vt 0.885057 0.820740
vt 0.895476 0.876909
vt 0.565183 0.127424
vt 0.946260 0.875381
vt 0.904661 0.907993
vt 0.576522 0.089048
vt 0.957598 0.913757
vt 0.892328 0.938213
vt 0.561297 0.051739
vt 0.942373 0.951066
vt 0.848291 0.959768
vt 0.506930 0.025129
vt 0.888007 0.977676
vt 0.787646 0.971586
vt 0.432060 0.010538
vt 0.813136 0.992267
vt 0.691958 0.976061
vt 0.313927 0.005014
vt 0.695003 0.997791
vt 0.610121 0.969121
vt 0.212893 0.013582
vt 0.593969 0.989223
vt 0.548865 0.956959
vt 0.137268 0.028596
vt 0.518344 0.974209
vt 0.512392 0.940695
vt 0.092240 0.048676
vt 0.473316 0.954129
vt 0.483531 0.921038
vt 0.056609 0.072943
vt 0.437685 0.929861
vt 0.463541 0.898848
vt 0.031930 0.100339
vt 0.413006 0.902466
vt 0.453297 0.875094
vt 0.019283 0.129664
vt 0.400360 0.873141
vt 0.460348 0.854040
vt 0.027988 0.155656
vt 0.409064 0.847149
vt 0.506090 0.807103
vt 0.084459 0.213604
vt 0.465535 0.789201
vt 0.526997 0.780144
vt 0.110271 0.246887
vt 0.491347 0.755918
vt 0.526796 0.756969
vt 0.110023 0.275497
vt 0.491099 0.727308
vt 0.489932 0.695490
vt 0.064511 0.351398
vt 0.445588 0.651407
vt 0.494295 0.663587
vt 0.069898 0.390784
vt 0.450974 0.612021
vt 0.524616 0.638660
vt 0.107331 0.421558
vt 0.488407 0.581247
vt 0.562850 0.639204
vt 0.154534 0.420887
vt 0.535610 0.581919
vt 0.614313 0.701136
vt 0.218068 0.344427
vt 0.599144 0.658378
vt 0.641734 0.701596
vt 0.251921 0.343859
vt 0.632997 0.658946
vt 0.717342 0.739282
vt 0.345264 0.297333
vt 0.726340 0.705472
vt 0.749740 0.752261
vt 0.385262 0.281310
vt 0.766338 0.721495
vt 0.773626 0.751378
vt 0.414751 0.282400
vt 0.795828 0.720405
vt 0.811665 0.725523
vt 0.461713 0.314320
vt 0.842789 0.688485
vt 0.842152 0.717645
vt 0.499351 0.324046
vt 0.880427 0.678759
vt 0.217790 0.211749
vt 0.217790 0.195390
vt 0.373637 0.211749
vt 0.373637 0.195390
vt 0.217790 0.135548
vt 0.217790 0.119189
vt 0.373637 0.135548
vt 0.373637 0.119189
vt 0.232732 0.076945
vt 0.232732 0.073822
vt 0.355167 0.076945
vt 0.355167 0.073822
vt 0.228359 0.079927
vt 0.228359 0.037294
vt 0.360789 0.079927
vt 0.360789 0.037294
vt 0.187932 0.756436
vt 0.125759 0.756436
vt 0.176058 0.738164
vt 0.236290 0.756436
vt 0.194150 0.756436
vt 0.181089 0.736336
vt 0.215180 0.723952
vt 0.144972 0.726871
vt 0.159915 0.703875
vt 0.146893 0.723914
vt 0.106547 0.726871
vt 0.104625 0.723914
vt 0.091604 0.703875
vt 0.075460 0.738164
vt 0.036338 0.723952
vt 0.070430 0.736336
vt 0.063586 0.756436
vt 0.057369 0.756436
vt 0.015229 0.756436
vt 0.075460 0.774708
vt 0.036338 0.788919
vt 0.070430 0.776535
vt 0.106547 0.786000
vt 0.104625 0.788957
vt 0.091604 0.808995
vt 0.144972 0.786000
vt 0.159915 0.808995
vt 0.146893 0.788957
vt 0.176058 0.774708
vt 0.181089 0.776535
vt 0.215180 0.788919
vt 0.188586 0.756462
vt 0.126413 0.756462
vt 0.176712 0.738190
vt 0.236943 0.756462
vt 0.194803 0.756462
vt 0.181742 0.736362
vt 0.215833 0.723978
vt 0.145625 0.726897
vt 0.160568 0.703902
vt 0.147546 0.723940
vt 0.107200 0.726897
vt 0.105279 0.723940
vt 0.092257 0.703902
vt 0.076113 0.738190
vt 0.036992 0.723978
vt 0.071083 0.736362
vt 0.064239 0.756462
vt 0.058022 0.756462
vt 0.015883 0.756462
vt 0.076113 0.774734
vt 0.036992 0.788945
vt 0.071083 0.776561
vt 0.107200 0.786027
vt 0.105279 0.788983
vt 0.092257 0.809022
vt 0.145625 0.786027
vt 0.160568 0.809022
vt 0.147546 0.788983
vt 0.176712 0.774734
vt 0.181742 0.776561
vt 0.215833 0.788945
vt 0.188077 0.756768
vt 0.125903 0.756768
vt 0.176203 0.738496
vt 0.236434 0.756768
vt 0.194294 0.756768
vt 0.181232 0.736668
vt 0.215324 0.724284
vt 0.145116 0.727203
vt 0.160059 0.704208
vt 0.147037 0.724246
vt 0.106691 0.727203
vt 0.104769 0.724246
vt 0.091748 0.704208
vt 0.075604 0.738496
vt 0.036482 0.724284
vt 0.070574 0.736668
vt 0.063730 0.756768
vt 0.057513 0.756768
vt 0.015373 0.756768
vt 0.075604 0.775040
vt 0.036482 0.789252
vt 0.070574 0.776867
vt 0.106691 0.786333
vt 0.104769 0.789289
vt 0.091748 0.809328
vt 0.145116 0.786333
vt 0.160059 0.809328
vt 0.147037 0.789289
vt 0.176203 0.775040
vt 0.181232 0.776867
vt 0.215324 0.789252
vt 0.895371 0.622224
vt 0.874780 0.604663
vt 0.854190 0.622224
vt 0.895371 0.644113
vt 0.854190 0.644113
vt 0.874780 0.626552
vt 0.833600 0.604663
vt 0.833600 0.626552
vt 0.813009 0.622224
vt 0.813009 0.644113
vt 0.833600 0.639785
vt 0.833600 0.661675
vt 0.874780 0.639785
vt 0.874780 0.661675
vt 0.898128 0.559786
vt 0.877538 0.542224
vt 0.856947 0.559786
vt 0.898128 0.581675
vt 0.856947 0.581675
vt 0.877538 0.564114
vt 0.836357 0.542224
vt 0.836357 0.564114
vt 0.815766 0.559786
vt 0.815766 0.581675
vt 0.836357 0.577346
vt 0.836357 0.599236
vt 0.877538 0.577346
vt 0.877538 0.599236
vt 0.903015 0.497830
vt 0.882425 0.480269
vt 0.861834 0.497830
vt 0.903015 0.519720
vt 0.861834 0.519720
vt 0.882425 0.502159
vt 0.841243 0.480269
vt 0.841243 0.502159
vt 0.820653 0.497830
vt 0.820653 0.519720
vt 0.841243 0.515391
vt 0.841243 0.537281
vt 0.882425 0.515391
vt 0.882425 0.537281
vt 0.904526 0.435893
vt 0.883936 0.418333
vt 0.863345 0.435893
vt 0.904526 0.457783
vt 0.863345 0.457783
vt 0.883936 0.440222
vt 0.842754 0.418333
vt 0.842754 0.440222
vt 0.822164 0.435893
vt 0.822164 0.457783
vt 0.842754 0.453454
vt 0.842754 0.475344
vt 0.883936 0.453454
vt 0.883936 0.475344
vt 0.442917 0.442571
vt 0.440826 0.442571
vt 0.438736 0.442571
vt 0.446024 0.464511
vt 0.441842 0.464520
vt 0.443933 0.464594
vt 0.436645 0.442571
vt 0.439751 0.464603
vt 0.434555 0.442571
vt 0.437661 0.464529
vt 0.439751 0.464446
vt 0.443933 0.464437
vt 0.479119 0.442571
vt 0.477028 0.442571
vt 0.474937 0.442571
vt 0.479119 0.485995
vt 0.474937 0.485995
vt 0.477028 0.486074
vt 0.472847 0.442571
vt 0.472847 0.486074
vt 0.470756 0.442571
vt 0.470756 0.485995
vt 0.472847 0.485917
vt 0.477028 0.485917
vt 0.514962 0.442571
vt 0.512572 0.442571
vt 0.510183 0.442571
vt 0.514962 0.506586
vt 0.510183 0.506586
vt 0.512572 0.506676
vt 0.507793 0.442571
vt 0.507793 0.506676
vt 0.505404 0.442571
vt 0.505404 0.506586
vt 0.507793 0.506496
vt 0.512572 0.506496
vt 0.549905 0.442571
vt 0.547815 0.442571
vt 0.545723 0.442571
vt 0.551704 0.527470
vt 0.547522 0.527471
vt 0.549613 0.527549
vt 0.543633 0.442571
vt 0.545431 0.527550
vt 0.541541 0.442571
vt 0.543340 0.527472
vt 0.545431 0.527393
vt 0.549613 0.527392
vt 0.442654 0.374621
vt 0.440539 0.373905
vt 0.438425 0.374621
vt 0.442654 0.437135
vt 0.438425 0.437135
vt 0.440539 0.436419
vt 0.436310 0.373905
vt 0.436310 0.436419
vt 0.434195 0.374621
vt 0.434195 0.437135
vt 0.436310 0.375336
vt 0.436310 0.437850
vt 0.440539 0.375336
vt 0.440539 0.437850
vt 0.485431 0.374621
vt 0.483316 0.373905
vt 0.481201 0.374621
vt 0.485431 0.437135
vt 0.481201 0.437135
vt 0.483316 0.436419
vt 0.479087 0.373905
vt 0.479087 0.436419
vt 0.476972 0.374621
vt 0.476972 0.437135
vt 0.479087 0.375336
vt 0.479087 0.437850
vt 0.483316 0.375336
vt 0.483316 0.437850
vt 0.518078 0.374621
vt 0.515963 0.373905
vt 0.513849 0.374621
vt 0.518078 0.437135
vt 0.513849 0.437135
vt 0.515963 0.436419
vt 0.511734 0.373905
vt 0.511734 0.436419
vt 0.509620 0.374621
vt 0.509620 0.437135
vt 0.511734 0.375336
vt 0.511734 0.437850
vt 0.515963 0.375336
vt 0.515963 0.437850
vt 0.552013 0.374621
vt 0.549898 0.373905
vt 0.547783 0.374621
vt 0.552013 0.437135
vt 0.547783 0.437135
vt 0.549898 0.436419
vt 0.545669 0.373905
vt 0.545669 0.436419
vt 0.543554 0.374621
vt 0.543554 0.437135
vt 0.545669 0.375336
vt 0.545669 0.437850
vt 0.549898 0.375336
vt 0.549898 0.437850
s 1
f 1/1/1 2/2/2 3/3/2
f 4/4/3 5/5/3 6/6/3
f 1/1/4 7/7/4 2/2/5
f 7/7/4 8/8/5 2/2/5
f 2/2/2 9/9/2 3/3/2
f 6/6/3 5/5/3 10/10/6
f 2/2/5 8/8/5 11/11/7
f 2/2/5 11/11/7 9/9/7
f 9/9/2 12/3/2 3/3/2
f 10/10/6 5/5/3 13/12/6
f 9/9/7 11/11/7 12/3/8
f 11/11/7 14/13/8 12/3/8
f 12/3/2 15/14/2 3/3/2
f 13/12/6 5/5/3 16/15/6
f 12/3/8 14/13/8 17/16/9
f 12/3/8 17/16/9 15/14/9
f 15/14/2 18/17/2 3/3/2
f 16/15/6 5/5/3 19/18/3
f 15/14/9 17/16/9 18/17/10
f 17/16/9 20/19/10 18/17/10
f 18/17/2 21/20/11 3/3/2
f 19/18/3 5/5/3 22/21/3
f 18/17/10 20/19/10 23/22/12
f 18/17/10 23/22/12 21/20/12
f 24/23/13 8/8/14 7/7/15
f 24/23/13 7/7/15 25/24/16
f 26/25/17 11/11/18 8/8/14
f 26/25/17 8/8/14 24/23/13
f 27/26/19 14/13/20 11/11/18
f 27/26/19 11/11/18 26/25/17
f 28/27/21 17/16/22 14/13/20
f 28/27/21 14/13/20 27/26/19
f 29/28/23 20/19/24 17/16/22
f 29/28/23 17/16/22 28/27/21
f 30/29/25 23/22/26 20/19/24
f 30/29/25 20/19/24 29/28/23
f 31/30/27 24/23/28 25/24/29
f 31/30/27 25/24/29 32/31/30
f 33/32/31 26/25/31 24/23/31
f 33/32/31 24/23/31 31/30/31
f 34/33/31 27/26/31 26/25/31
f 34/33/31 26/25/31 33/32/31
f 35/34/31 28/27/31 27/26/31
f 35/34/31 27/26/31 34/33/31
f 36/35/31 29/28/31 28/27/31
f 36/35/31 28/27/31 35/34/31
f 37/36/32 30/29/33 29/28/34
f 37/36/32 29/28/34 36/35/35
f 38/37/36 31/30/27 32/31/30
f 38/37/36 32/31/30 39/38/37
f 40/39/31 33/32/31 31/30/31
f 40/39/31 31/30/31 38/37/31
f 41/40/31 34/33/31 33/32/31
f 41/40/31 33/32/31 40/39/31
f 42/41/31 35/34/31 34/33/31
f 42/41/31 34/33/31 41/40/31
f 43/42/31 36/35/31 35/34/31
f 43/42/31 35/34/31 42/41/31
f 44/43/38 37/36/32 36/35/35
f 44/43/38 36/35/35 43/42/39
f 45/44/40 38/37/36 39/38/37
f 45/44/40 39/38/37 46/45/41
f 47/46/31 40/39/31 38/37/31
f 47/46/31 38/37/31 45/44/31
f 48/47/31 41/40/31 40/39/31
f 48/47/31 40/39/31 47/46/31
f 49/48/31 42/41/31 41/40/31
f 49/48/31 41/40/31 48/47/31
f 50/49/31 43/42/31 42/41/31
f 50/49/31 42/41/31 49/48/31
f 51/50/42 44/43/38 43/42/39
f 51/50/42 43/42/39 50/49/43
f 52/51/44 45/44/40 46/45/41
f 52/51/44 46/45/41 53/52/45
f 54/53/31 47/46/31 45/44/31
f 54/53/31 45/44/31 52/51/31
f 55/54/31 48/47/31 47/46/31
f 55/54/31 47/46/31 54/53/31
f 56/55/31 49/48/31 48/47/31
f 56/55/31 48/47/31 55/54/31
f 57/56/31 50/49/31 49/48/31
f 57/56/31 49/48/31 56/55/31
f 58/57/46 51/58/42 50/59/43
f 58/60/46 50/49/43 57/56/47
f 59/61/48 52/51/44 53/52/45
f 59/61/48 53/52/45 60/62/49
f 61/63/31 54/53/31 52/51/31
f 61/63/31 52/51/31 59/61/31
f 62/64/31 55/54/31 54/53/31
f 62/64/31 54/53/31 61/63/31
f 63/65/31 56/55/31 55/54/31
f 63/65/31 55/54/31 62/64/31
f 64/66/31 57/56/31 56/55/31
f 64/66/31 56/55/31 63/65/31
f 65/67/50 58/60/46 57/56/47
f 65/67/50 57/56/47 64/66/51
f 6/6/52 59/61/48 60/62/49
f 6/6/52 60/62/49 4/4/53
f 10/10/31 61/63/31 59/61/31
f 10/10/54 59/61/48 6/6/52
f 13/12/31 62/64/31 61/63/31
f 13/12/31 61/63/31 10/10/31
f 16/15/31 63/65/31 62/64/31
f 16/15/31 62/64/31 13/12/31
f 16/15/31 64/66/31 63/65/31
f 19/18/55 64/66/51 16/15/56
f 22/21/57 65/67/50 64/66/51
f 22/21/57 64/66/51 19/18/55
f 5/68/58 4/69/58 60/70/58
f 65/71/58 22/72/58 5/68/58
f 60/70/58 65/71/58 5/68/58
f 65/71/58 60/70/58 58/57/58
f 58/57/58 60/70/58 53/73/58
f 53/73/58 46/74/58 58/57/58
f 58/57/58 46/74/58 51/58/58
f 46/74/58 39/75/58 51/58/58
f 51/58/58 39/75/58 44/76/58
f 44/76/58 39/75/58 32/77/58
f 44/76/58 32/77/58 37/78/58
f 32/77/58 25/79/59 30/80/59
f 30/80/59 37/78/58 32/77/58
f 25/79/59 7/81/60 30/80/59
f 30/80/59 7/81/60 23/82/61
f 7/81/60 1/83/62 23/82/61
f 23/82/61 1/83/62 21/84/63
f 66/85/64 67/86/65 68/87/66
f 67/86/65 69/88/67 68/87/66
f 68/87/66 69/88/67 70/87/68
f 69/88/67 71/88/69 70/87/68
f 72/85/70 73/86/71 66/85/64
f 73/86/71 67/86/65 66/85/64
f 72/85/70 66/85/64 70/87/68
f 66/85/64 68/87/66 70/87/68
f 67/86/65 73/86/71 69/88/67
f 73/86/71 71/88/69 69/88/67
f 74/89/72 75/90/72 76/91/72
f 77/92/73 78/93/73 79/94/73
f 74/89/74 77/95/75 75/90/76
f 77/95/75 79/96/76 75/90/76
f 75/90/72 80/97/72 76/91/72
f 79/94/73 78/93/73 81/98/73
f 75/90/76 79/96/76 81/99/77
f 75/90/76 81/99/77 80/97/77
f 80/97/72 82/100/72 76/91/72
f 81/98/73 78/93/73 83/101/73
f 80/97/77 81/99/77 82/100/78
f 81/99/77 83/102/78 82/100/78
f 82/100/72 84/103/72 76/91/72
f 83/101/73 78/93/73 85/104/73
f 82/100/78 83/102/78 85/105/79
f 82/100/78 85/105/79 84/103/79
f 84/103/72 86/106/72 76/91/72
f 85/104/73 78/93/73 87/107/73
f 84/103/79 85/105/79 86/106/80
f 85/105/79 87/108/80 86/106/80
f 86/106/72 88/109/72 76/91/72
f 87/107/73 78/93/73 89/110/73
f 86/106/80 87/108/80 89/111/81
f 86/106/80 89/111/81 88/109/81
f 88/109/72 90/112/72 76/91/72
f 89/110/73 78/93/73 91/113/73
f 88/109/81 89/111/81 90/112/82
f 89/111/81 91/114/82 90/112/82
f 90/112/72 92/115/72 76/91/72
f 91/113/73 78/93/73 93/116/73
f 90/112/82 91/114/82 93/117/83
f 90/112/82 93/117/83 92/115/83
f 92/115/72 94/118/72 76/91/72
f 93/116/73 78/93/73 95/119/73
f 92/115/83 93/117/83 94/118/84
f 93/117/83 95/120/84 94/118/84
f 94/118/72 96/121/72 76/91/72
f 95/119/73 78/93/73 97/122/73
f 94/118/84 95/120/84 97/123/85
f 94/118/84 97/123/85 96/121/85
f 96/121/72 98/124/72 76/91/72
f 97/122/73 78/93/73 99/125/73
f 96/121/85 97/123/85 98/124/86
f 97/123/85 99/126/86 98/124/86
f 98/124/72 100/127/72 76/91/72
f 99/125/73 78/93/73 101/128/73
f 98/124/86 99/126/86 101/129/87
f 98/124/86 101/129/87 100/127/87
f 100/127/72 102/130/72 76/91/72
f 101/128/73 78/93/73 103/131/73
f 100/127/87 101/129/87 102/130/88
f 101/129/87 103/132/88 102/130/88
f 102/130/72 104/133/72 76/91/72
f 103/131/73 78/93/73 105/134/73
f 102/130/88 103/132/88 105/135/89
f 102/130/88 105/135/89 104/133/89
f 104/133/72 106/136/72 76/91/72
f 105/134/73 78/93/73 107/137/73
f 104/133/89 105/135/89 106/136/90
f 105/135/89 107/138/90 106/136/90
f 106/136/72 108/139/72 76/91/72
f 107/137/73 78/93/73 109/140/73
f 106/136/90 107/138/90 109/141/91
f 106/136/90 109/141/91 108/139/91
f 108/139/72 110/142/72 76/91/72
f 109/140/73 78/93/73 111/143/73
f 108/139/91 109/141/91 110/142/92
f 109/141/91 111/144/92 110/142/92
f 110/142/72 112/145/72 76/91/72
f 111/143/73 78/93/73 113/146/73
f 110/142/92 111/144/92 113/147/93
f 110/142/92 113/147/93 112/145/93
f 112/145/72 114/148/72 76/91/72
f 113/146/73 78/93/73 115/149/73
f 112/145/93 113/147/93 114/148/94
f 113/147/93 115/150/94 114/148/94
f 114/148/72 116/151/72 76/91/72
f 115/149/73 78/93/73 117/152/73
f 114/148/94 115/150/94 117/153/95
f 114/148/94 117/153/95 116/151/95
f 116/151/72 118/154/72 76/91/72
f 117/152/73 78/93/73 119/155/73
f 116/151/95 117/153/95 118/154/96
f 117/153/95 119/156/97 118/154/96
f 118/154/72 120/157/72 76/91/72
f 119/155/73 78/93/73 121/158/73
f 118/154/96 119/156/97 121/159/98
f 118/154/96 121/159/98 120/157/98
f 120/157/72 122/160/72 76/91/72
f 121/158/73 78/93/73 123/161/73
f 120/157/98 121/159/98 122/160/99
f 121/159/98 123/162/99 122/160/99
f 122/160/72 124/163/72 76/91/72
f 123/161/73 78/93/73 125/164/73
f 122/160/99 123/162/99 125/165/100
f 122/160/99 125/165/100 124/163/100
f 124/163/72 126/166/72 76/91/72
f 125/164/73 78/93/73 127/167/73
f 124/163/100 125/165/100 126/166/101
f 125/165/100 127/168/101 126/166/101
f 126/166/72 128/169/72 76/91/72
f 127/167/73 78/93/73 129/170/73
f 126/166/101 127/168/101 129/171/102
f 126/166/101 129/171/102 128/169/102
f 128/169/72 130/172/72 76/91/72
f 129/170/73 78/93/73 131/173/73
f 128/169/102 129/171/102 130/172/103
f 129/171/102 131/174/103 130/172/103
f 130/172/72 132/175/72 76/91/72
f 131/173/73 78/93/73 133/176/73
f 130/172/103 131/174/103 133/177/104
f 130/172/103 133/177/104 132/175/105
f 132/175/72 134/178/72 76/91/72
f 133/176/73 78/93/73 135/179/73
f 132/175/105 133/177/104 134/178/106
f 133/177/104 135/180/106 134/178/106
f 134/178/72 74/89/72 76/91/72
f 135/179/73 78/93/73 77/92/73
f 134/178/106 135/180/106 77/95/75
f 134/178/106 77/95/75 74/89/74
f 136/181/107 137/182/108 138/183/109
f 137/182/108 139/184/110 138/183/109
f 138/183/109 139/184/110 140/183/111
f 139/184/110 141/184/112 140/183/111
f 142/181/113 143/182/114 136/181/107
f 143/182/114 137/182/108 136/181/107
f 142/181/113 136/181/107 140/183/111
f 136/181/107 138/183/109 140/183/111
f 137/182/108 143/182/114 139/184/110
f 143/182/114 141/184/112 139/184/110
f 144/185/107 145/186/108 146/187/109
f 145/186/108 147/188/110 146/187/109
f 146/187/109 147/188/110 148/187/111
f 147/188/110 149/188/112 148/187/111
f 150/185/113 151/186/114 144/185/107
f 151/186/114 145/186/108 144/185/107
f 150/185/113 144/185/107 148/187/111
f 144/185/107 146/187/109 148/187/111
f 145/186/108 151/186/114 147/188/110
f 151/186/114 149/188/112 147/188/110
f 152/189/115 153/190/108 154/191/109
f 153/190/108 155/192/116 154/191/109
f 154/191/109 155/192/116 156/191/111
f 155/192/116 157/192/112 156/191/111
f 158/189/113 159/190/114 152/189/115
f 159/190/114 153/190/108 152/189/115
f 158/189/113 152/189/115 156/191/111
f 152/189/115 154/191/109 156/191/111
f 153/190/108 159/190/114 155/192/116
f 159/190/114 157/192/112 155/192/116
f 160/193/115 161/194/108 162/195/109
f 161/194/108 163/196/116 162/195/109
f 162/195/109 163/196/116 164/195/111
f 163/196/116 165/196/112 164/195/111
f 166/193/113 167/194/114 160/193/115
f 167/194/114 161/194/108 160/193/115
f 166/193/113 160/193/115 164/195/111
f 160/193/115 162/195/109 164/195/111
f 161/194/108 167/194/114 163/196/116
f 167/194/114 165/196/112 163/196/116
f 168/197/117 169/198/73 170/199/118
f 171/200/119 172/201/120 173/202/121
f 171/200/119 173/202/121 174/203/122
f 172/201/120 168/197/117 173/202/121
f 168/197/117 170/199/118 173/202/121
f 170/199/118 169/198/73 175/204/123
f 174/203/122 173/202/121 176/205/124
f 173/202/121 177/206/125 176/205/124
f 173/202/121 170/199/118 175/204/123
f 173/202/121 175/204/123 177/206/125
f 175/204/123 169/198/73 178/207/126
f 176/205/124 177/206/125 179/208/127
f 176/205/124 179/208/127 180/209/128
f 177/206/125 175/204/123 179/208/127
f 175/204/123 178/207/126 179/208/127
f 178/207/126 169/198/73 181/210/129
f 180/209/128 179/208/127 182/211/130
f 179/208/127 183/212/131 182/211/130
f 179/208/127 178/207/126 181/210/129
f 179/208/127 181/210/129 183/212/131
f 181/210/129 169/198/73 184/213/132
f 182/211/130 183/212/131 185/214/133
f 182/211/130 185/214/133 186/215/134
f 183/212/131 181/210/129 185/214/133
f 181/210/129 184/213/132 185/214/133
f 184/213/132 169/198/73 187/216/135
f 186/215/134 185/214/133 188/217/136
f 185/214/133 189/218/137 188/217/136
f 185/214/133 184/213/132 187/216/135
f 185/214/133 187/216/135 189/218/137
f 187/216/135 169/198/73 190/219/138
f 188/217/136 189/218/137 191/220/139
f 188/217/136 191/220/139 192/221/140
f 189/218/137 187/216/135 191/220/139
f 187/216/135 190/219/138 191/220/139
f 190/219/138 169/198/73 193/222/141
f 192/221/140 191/220/139 194/223/142
f 191/220/139 195/224/143 194/223/142
f 191/220/139 190/219/138 193/222/141
f 191/220/139 193/222/141 195/224/143
f 193/222/141 169/198/73 196/225/144
f 194/223/142 195/224/143 197/226/145
f 194/223/142 197/226/145 198/227/146
f 195/224/143 193/222/141 197/226/145
f 193/222/141 196/225/144 197/226/145
f 196/225/144 169/198/73 168/197/117
f 198/227/146 197/226/145 171/200/119
f 197/226/145 172/201/120 171/200/119
f 197/226/145 196/225/144 168/197/117
f 197/226/145 168/197/117 172/201/120
f 199/228/117 200/229/73 201/230/118
f 202/231/119 203/232/120 204/233/121
f 202/231/119 204/233/121 205/234/122
f 203/232/120 199/228/117 204/233/121
f 199/228/117 201/230/118 204/233/121
f 201/230/118 200/229/73 206/235/123
f 205/234/122 204/233/121 207/236/124
f 204/233/121 208/237/125 207/236/124
f 204/233/121 201/230/118 206/235/123
f 204/233/121 206/235/123 208/237/125
f 206/235/123 200/229/73 209/238/126
f 207/236/124 208/237/125 210/239/127
f 207/236/124 210/239/127 211/240/128
f 208/237/125 206/235/123 210/239/127
f 206/235/123 209/238/126 210/239/127
f 209/238/126 200/229/73 212/241/129
f 211/240/128 210/239/127 213/242/130
f 210/239/127 214/243/131 213/242/130
f 210/239/127 209/238/126 212/241/129
f 210/239/127 212/241/129 214/243/131
f 212/241/129 200/229/73 215/244/132
f 213/242/130 214/243/131 216/245/133
f 213/242/130 216/245/133 217/246/134
f 214/243/131 212/241/129 216/245/133
f 212/241/129 215/244/132 216/245/133
f 215/244/132 200/229/73 218/247/135
f 217/246/134 216/245/133 219/248/136
f 216/245/133 220/249/137 219/248/136
f 216/245/133 215/244/132 218/247/135
f 216/245/133 218/247/135 220/249/137
f 218/247/135 200/229/73 221/250/138
f 219/248/136 220/249/137 222/251/139
f 219/248/136 222/251/139 223/252/140
f 220/249/137 218/247/135 222/251/139
f 218/247/135 221/250/138 222/251/139
f 221/250/138 200/229/73 224/253/141
f 223/252/140 222/251/139 225/254/142
f 222/251/139 226/255/143 225/254/142
f 222/251/139 221/250/138 224/253/141
f 222/251/139 224/253/141 226/255/143
f 224/253/141 200/229/73 227/256/144
f 225/254/142 226/255/143 228/257/145
f 225/254/142 228/257/145 229/258/146
f 226/255/143 224/253/141 228/257/145
f 224/253/141 227/256/144 228/257/145
f 227/256/144 200/229/73 199/228/117
f 229/258/146 228/257/145 202/231/119
f 228/257/145 203/232/120 202/231/119
f 228/257/145 227/256/144 199/228/117
f 228/257/145 199/228/117 203/232/120
f 230/259/117 231/260/73 232/261/118
f 233/262/119 234/263/120 235/264/121
f 233/262/119 235/264/121 236/265/122
f 234/263/120 230/259/117 235/264/121
f 230/259/117 232/261/118 235/264/121
f 232/261/118 231/260/73 237/266/123
f 236/265/122 235/264/121 238/267/124
f 235/264/121 239/268/125 238/267/124
f 235/264/121 232/261/118 237/266/123
f 235/264/121 237/266/123 239/268/125
f 237/266/123 231/260/73 240/269/126
f 238/267/124 239/268/125 241/270/127
f 238/267/124 241/270/127 242/271/128
f 239/268/125 237/266/123 241/270/127
f 237/266/123 240/269/126 241/270/127
f 240/269/126 231/260/73 243/272/129
f 242/271/128 241/270/127 244/273/130
f 241/270/127 245/274/131 244/273/130
f 241/270/127 240/269/126 243/272/129
f 241/270/127 243/272/129 245/274/131
f 243/272/129 231/260/73 246/275/132
f 244/273/130 245/274/131 247/276/133
f 244/273/130 247/276/133 248/277/134
f 245/274/131 243/272/129 247/276/133
f 243/272/129 246/275/132 247/276/133
f 246/275/132 231/260/73 249/278/135
f 248/277/134 247/276/133 250/279/136
f 247/276/133 251/280/137 250/279/136
f 247/276/133 246/275/132 249/278/135
f 247/276/133 249/278/135 251/280/137
f 249/278/135 231/260/73 252/281/138
f 250/279/136 251/280/137 253/282/139
f 250/279/136 253/282/139 254/283/140
f 251/280/137 249/278/135 253/282/139
f 249/278/135 252/281/138 253/282/139
f 252/281/138 231/260/73 255/284/141
f 254/283/140 253/282/139 256/285/142
f 253/282/139 257/286/143 256/285/142
f 253/282/139 252/281/138 255/284/141
f 253/282/139 255/284/141 257/286/143
f 255/284/141 231/260/73 258/287/144
f 256/285/142 257/286/143 259/288/145
f 256/285/142 259/288/145 260/289/146
f 257/286/143 255/284/141 259/288/145
f 255/284/141 258/287/144 259/288/145
f 258/287/144 231/260/73 230/259/117
f 260/289/146 259/288/145 233/262/119
f 259/288/145 234/263/120 233/262/119
f 259/288/145 258/287/144 230/259/117
f 259/288/145 230/259/117 234/263/120
f 261/290/147 262/291/148 263/292/31
f 264/293/149 265/294/58 266/295/150
f 261/290/147 264/293/149 262/291/148
f 264/293/149 266/295/150 262/291/148
f 262/291/148 267/296/151 263/292/31
f 266/295/150 265/294/58 268/297/152
f 262/291/148 266/295/150 268/297/152
f 262/291/148 268/297/152 267/296/151
f 267/296/151 269/298/153 263/292/31
f 268/297/152 265/294/58 270/299/154
f 267/296/151 268/297/152 269/298/153
f 268/297/152 270/299/154 269/298/153
f 269/298/153 271/300/155 263/292/31
f 270/299/154 265/294/58 272/301/156
f 269/298/153 270/299/154 272/301/156
f 269/298/153 272/301/156 271/300/155
f 271/300/155 273/302/157 263/292/31
f 272/301/156 265/294/58 274/303/158
f 271/300/155 272/301/156 273/302/157
f 272/301/156 274/303/158 273/302/157
f 273/302/157 261/290/147 263/292/31
f 274/303/158 265/294/58 264/293/149
f 273/302/157 274/303/158 264/293/149
f 273/302/157 264/293/149 261/290/147
f 275/304/147 276/305/148 277/306/31
f 278/307/149 279/308/58 280/309/159
f 275/304/147 278/307/149 276/305/148
f 278/307/149 280/309/159 276/305/148
f 276/305/148 281/310/160 277/306/31
f 280/309/159 279/308/58 282/311/152
f 276/305/148 280/309/159 282/311/152
f 276/305/148 282/311/152 281/310/160
f 281/310/160 283/312/153 277/306/31
f 282/311/152 279/308/58 284/313/154
f 281/310/160 282/311/152 283/312/153
f 282/311/152 284/313/154 283/312/153
f 283/312/153 285/314/155 277/306/31
f 284/313/154 279/308/58 286/315/156
f 283/312/153 284/313/154 286/315/156
f 283/312/153 286/315/156 285/314/155
f 285/314/155 287/316/157 277/306/31
f 286/315/156 279/308/58 288/317/158
f 285/314/155 286/315/156 287/316/157
f 286/315/156 288/317/158 287/316/157
f 287/316/157 275/304/147 277/306/31
f 288/317/158 279/308/58 278/307/149
f 287/316/157 288/317/158 278/307/149
f 287/316/157 278/307/149 275/304/147
f 289/318/161 290/319/148 291/320/31
f 292/321/149 293/322/58 294/323/150
f 289/318/161 292/321/149 290/319/148
f 292/321/149 294/323/150 290/319/148
f 290/319/148 295/324/160 291/320/31
f 294/323/150 293/322/58 296/325/152
f 290/319/148 294/323/150 296/325/152
f 290/319/148 296/325/152 295/324/160
f 295/324/160 297/326/153 291/320/31
f 296/325/152 293/322/58 298/327/154
f 295/324/160 296/325/152 297/326/153
f 296/325/152 298/327/154 297/326/153
f 297/326/153 299/328/155 291/320/31
f 298/327/154 293/322/58 300/329/162
f 297/326/153 298/327/154 300/329/162
f 297/326/153 300/329/162 299/328/155
f 299/328/155 301/330/157 291/320/31
f 300/329/162 293/322/58 302/331/158
f 299/328/155 300/329/162 301/330/157
f 300/329/162 302/331/158 301/330/157
f 301/330/157 289/318/161 291/320/31
f 302/331/158 293/322/58 292/321/149
f 301/330/157 302/331/158 292/321/149
f 301/330/157 292/321/149 289/318/161
f 303/332/147 304/333/148 305/334/31
f 306/335/149 307/336/163 308/337/150
f 303/332/147 306/335/149 304/333/148
f 306/335/149 308/337/150 304/333/148
f 304/333/148 309/338/160 305/334/31
f 308/337/150 307/336/163 310/339/152
f 304/333/148 308/337/150 310/339/152
f 304/333/148 310/339/152 309/338/160
f 309/338/160 311/340/153 305/334/31
f 310/339/152 307/336/163 312/341/154
f 309/338/160 310/339/152 311/340/153
f 310/339/152 312/341/154 311/340/153
f 311/340/153 313/342/155 305/334/31
f 312/341/154 307/336/163 314/343/156
f 311/340/153 312/341/154 314/343/156
f 311/340/153 314/343/156 313/342/155
f 313/342/155 315/344/157 305/334/31
f 314/343/156 307/336/163 316/345/158
f 313/342/155 314/343/156 315/344/157
f 314/343/156 316/345/158 315/344/157
f 315/344/157 303/332/147 305/334/31
f 316/345/158 307/336/163 306/335/149
f 315/344/157 316/345/158 306/335/149
f 315/344/157 306/335/149 303/332/147
f 317/346/164 318/347/165 319/348/166
f 320/349/167 321/350/168 322/351/169
f 317/346/164 320/349/167 318/347/165
f 320/349/167 322/351/169 318/347/165
f 318/347/165 323/352/170 319/348/166
f 322/351/169 321/350/168 324/353/171
f 318/347/165 322/351/169 324/353/171
f 318/347/165 324/353/171 323/352/170
f 323/352/170 325/354/172 319/348/166
f 324/353/171 321/350/168 326/355/173
f 323/352/170 324/353/171 325/354/172
f 324/353/171 326/355/173 325/354/172
f 325/354/172 327/352/174 319/348/166
f 326/355/173 321/350/168 328/356/175
f 325/354/172 326/355/173 328/356/175
f 325/354/172 328/356/175 327/352/174
f 327/352/174 329/347/176 319/348/166
f 328/356/175 321/350/168 330/357/177
f 327/352/174 328/356/175 329/347/176
f 328/356/175 330/357/177 329/347/176
f 329/347/176 317/346/164 319/348/166
f 330/357/177 321/350/168 320/349/167
f 329/347/176 330/357/177 320/349/167
f 329/347/176 320/349/167 317/346/164
f 331/358/178 332/359/179 333/360/166
f 334/361/180 335/362/181 336/363/182
f 331/358/178 334/361/180 332/359/179
f 334/361/180 336/363/182 332/359/179
f 332/359/179 337/364/183 333/360/166
f 336/363/182 335/362/181 338/365/184
f 332/359/179 336/363/182 338/365/184
f 332/359/179 338/365/184 337/364/183
f 337/364/183 339/366/185 333/360/166
f 338/365/184 335/362/181 340/367/186
f 337/364/183 338/365/184 339/366/185
f 338/365/184 340/367/186 339/366/185
f 339/366/185 341/364/187 333/360/166
f 340/367/186 335/362/181 342/368/188
f 339/366/185 340/367/186 342/368/188
f 339/366/185 342/368/188 341/364/187
f 341/364/187 343/359/189 333/360/166
f 342/368/188 335/362/181 344/369/190
f 341/364/187 342/368/188 343/359/189
f 342/368/188 344/369/190 343/359/189
f 343/359/189 331/358/178 333/360/166
f 344/369/190 335/362/181 334/361/180
f 343/359/189 344/369/190 334/361/180
f 343/359/189 334/361/180 331/358/178
f 345/370/191 346/371/192 347/372/166
f 348/373/193 349/374/194 350/375/195
f 345/370/191 348/373/193 346/371/192
f 348/373/193 350/375/195 346/371/192
f 346/371/192 351/376/196 347/372/166
f 350/375/195 349/374/194 352/377/197
f 346/371/192 350/375/195 352/377/197
f 346/371/192 352/377/197 351/376/196
f 351/376/196 353/378/198 347/372/166
f 352/377/197 349/374/194 354/379/199
f 351/376/196 352/377/197 353/378/198
f 352/377/197 354/379/199 353/378/198
f 353/378/198 355/376/200 347/372/166
f 354/379/199 349/374/194 356/380/201
f 353/378/198 354/379/199 356/380/201
f 353/378/198 356/380/201 355/376/200
f 355/376/200 357/371/202 347/372/166
f 356/380/201 349/374/194 358/381/203
f 355/376/200 356/380/201 357/371/202
f 356/380/201 358/381/203 357/371/202
f 357/371/202 345/370/191 347/372/166
f 358/381/203 349/374/194 348/373/193
f 357/371/202 358/381/203 348/373/193
f 357/371/202 348/373/193 345/370/191
f 359/382/204 360/383/205 361/384/166
f 362/385/206 363/386/207 364/387/208
f 359/382/204 362/385/206 360/383/205
f 362/385/206 364/387/208 360/383/205
f 360/383/205 365/388/209 361/384/166
f 364/387/208 363/386/207 366/389/210
f 360/383/205 364/387/208 366/389/210
f 360/383/205 366/389/210 365/388/209
f 365/388/209 367/390/211 361/384/166
f 366/389/210 363/386/207 368/391/212
f 365/388/209 366/389/210 367/390/211
f 366/389/210 368/391/212 367/390/211
f 367/390/211 369/388/213 361/384/166
f 368/391/212 363/386/207 370/392/214
f 367/390/211 368/391/212 370/392/214
f 367/390/211 370/392/214 369/388/213
f 369/388/213 371/383/215 361/384/166
f 370/392/214 363/386/207 372/393/216
f 369/388/213 370/392/214 371/383/215
f 370/392/214 372/393/216 371/383/215
f 371/383/215 359/382/204 361/384/166
f 372/393/216 363/386/207 362/385/206
f 371/383/215 372/393/216 362/385/206
f 371/383/215 362/385/206 359/382/204
f 373/394/217 374/395/218 375/396/219
f 376/397/220 377/398/221 378/399/222
f 373/394/217 376/397/220 374/395/218
f 376/397/220 378/399/222 374/395/218
f 374/395/218 379/400/223 375/396/219
f 378/399/222 377/398/221 380/401/224
f 374/395/218 378/399/222 380/401/224
f 374/395/218 380/401/224 379/400/223
f 379/400/223 381/402/225 375/396/219
f 380/401/224 377/398/221 382/403/226
f 379/400/223 380/401/224 381/402/225
f 380/401/224 382/403/226 381/402/225
f 381/402/225 383/404/227 375/396/219
f 382/403/226 377/398/221 384/405/228
f 381/402/225 382/403/226 384/405/228
f 381/402/225 384/405/228 383/404/227
f 383/404/227 385/406/229 375/396/219
f 384/405/228 377/398/221 386/407/230
f 383/404/227 384/405/228 385/406/229
f 384/405/228 386/407/230 385/406/229
f 385/406/229 373/394/217 375/396/219
f 386/407/230 377/398/221 376/397/220
f 385/406/229 386/407/230 376/397/220
f 385/406/229 376/397/220 373/394/217
f 387/408/217 388/409/218 389/410/231
f 390/411/220 391/412/221 392/413/232
f 387/408/217 390/411/220 388/409/218
f 390/411/220 392/413/232 388/409/218
f 388/409/218 393/414/223 389/410/231
f 392/413/232 391/412/221 394/415/224
f 388/409/218 392/413/232 394/415/224
f 388/409/218 394/415/224 393/414/223
f 393/414/223 395/416/225 389/410/231
f 394/415/224 391/412/221 396/417/226
f 393/414/223 394/415/224 395/416/225
f 394/415/224 396/417/226 395/416/225
f 395/416/225 397/418/227 389/410/231
f 396/417/226 391/412/221 398/419/228
f 395/416/225 396/417/226 398/419/228
f 395/416/225 398/419/228 397/418/227
f 397/418/227 399/420/229 389/410/231
f 398/419/228 391/412/221 400/421/230
f 397/418/227 398/419/228 399/420/229
f 398/419/228 400/421/230 399/420/229
f 399/420/229 387/408/217 389/410/231
f 400/421/230 391/412/221 390/411/220
f 399/420/229 400/421/230 390/411/220
f 399/420/229 390/411/220 387/408/217
f 401/422/217 402/423/218 403/424/231
f 404/425/220 405/426/221 406/427/232
f 401/422/217 404/425/220 402/423/218
f 404/425/220 406/427/232 402/423/218
f 402/423/218 407/428/223 403/424/231
f 406/427/232 405/426/221 408/429/224
f 402/423/218 406/427/232 408/429/224
f 402/423/218 408/429/224 407/428/223
f 407/428/223 409/430/233 403/424/231
f 408/429/224 405/426/221 410/431/226
f 407/428/223 408/429/224 409/430/233
f 408/429/224 410/431/226 409/430/233
f 409/430/233 411/432/227 403/424/231
f 410/431/226 405/426/221 412/433/234
f 409/430/233 410/431/226 412/433/234
f 409/430/233 412/433/234 411/432/227
f 411/432/227 413/434/229 403/424/231
f 412/433/234 405/426/221 414/435/230
f 411/432/227 412/433/234 413/434/229
f 412/433/234 414/435/230 413/434/229
f 413/434/229 401/422/217 403/424/231
f 414/435/230 405/426/221 404/425/220
f 413/434/229 414/435/230 404/425/220
f 413/434/229 404/425/220 401/422/217
f 415/436/217 416/437/235 417/438/219
f 418/439/220 419/440/221 420/441/232
f 415/436/217 418/439/220 416/437/235
f 418/439/220 420/441/232 416/437/235
f 416/437/235 421/442/223 417/438/219
f 420/441/232 419/440/221 422/443/224
f 416/437/235 420/441/232 422/443/224
f 416/437/235 422/443/224 421/442/223
f 421/442/223 423/444/225 417/438/219
f 422/443/224 419/440/221 424/445/226
f 421/442/223 422/443/224 423/444/225
f 422/443/224 424/445/226 423/444/225
f 423/444/225 425/446/227 417/438/219
f 424/445/226 419/440/221 426/447/228
f 423/444/225 424/445/226 426/447/228
f 423/444/225 426/447/228 425/446/227
f 425/446/227 427/448/229 417/438/219
f 426/447/228 419/440/221 428/449/230
f 425/446/227 426/447/228 427/448/229
f 426/447/228 428/449/230 427/448/229
f 427/448/229 415/436/217 417/438/219
f 428/449/230 419/440/221 418/439/220
f 427/448/229 428/449/230 418/439/220
f 427/448/229 418/439/220 415/436/217
