# Blender v3.1.2 OBJ File: ''
# www.blender.org
mtllib Beater.mtl
o Cylinder.002_Cylinder.010
v 0.000000 0.273300 -0.629575
v 0.000000 0.273299 -9.770942
v 0.342399 0.415126 -0.629575
v 0.342399 0.415126 -9.770942
v 0.484225 0.757525 -0.629575
v 0.484225 0.757524 -9.770942
v 0.342399 1.099924 -0.629575
v 0.342399 1.099923 -9.770942
v -0.000000 1.241750 -0.629575
v -0.000000 1.241749 -9.770942
v -0.342399 1.099924 -0.629575
v -0.342399 1.099923 -9.770942
v -0.484225 0.757525 -0.629575
v -0.484225 0.757524 -9.770942
v -0.342399 0.415126 -0.629575
v -0.342399 0.415126 -9.770942
v -0.000000 -0.737657 -8.305017
v 1.294866 0.009934 -8.305017
v 1.495182 0.757525 -8.305017
v 0.747591 2.052390 -8.305017
v -0.000000 2.252706 -8.305017
v -0.747591 2.052390 -8.305017
v -1.294866 1.505115 -8.305017
v -1.495182 0.757525 -8.305017
v -1.495182 0.757524 -10.462186
v -1.294866 0.009934 -8.305017
v -1.294866 0.009934 -10.462186
v -0.747591 -0.537341 -8.305017
v -0.000000 0.757524 -10.462184
v -0.000000 2.252202 -10.462184
v -0.747339 2.051953 -10.462184
v -1.294429 1.504863 -10.462184
v -0.747339 -0.536905 -10.462184
v 0.000000 -0.737153 -10.462184
v 0.747339 -0.536905 -10.462184
v 1.294429 0.010186 -10.462184
v 1.494677 0.757524 -10.462184
v 1.294429 1.504863 -10.462184
v 0.747339 2.051953 -10.462184
v -0.000000 0.757525 -8.305345
v 0.747339 -0.536905 -8.305345
v 1.294429 1.504864 -8.305345
v 0.000000 0.757525 -0.629575
v -0.001593 1.241089 -9.770942
v -0.000798 0.757524 -9.770942
v -0.342399 0.415126 -9.769314
v -0.342897 0.416328 -9.770942
v -0.342867 1.098793 -9.770942
v -0.342399 1.099923 -9.769272
vt 0.227074 0.299893
vt 0.227076 0.785480
vt 0.193364 0.785480
vt 0.193354 0.299893
vt 0.159651 0.785480
vt 0.159634 0.299893
vt 0.125939 0.785480
vt 0.125914 0.299893
vt 0.092226 0.785481
vt 0.092194 0.299894
vt 0.361954 0.299894
vt 0.361926 0.785481
vt 0.361769 0.785481
vt 0.328213 0.785480
vt 0.328213 0.785313
vt 0.328234 0.299894
vt 0.328102 0.785480
vt 0.294501 0.785480
vt 0.294514 0.299893
vt 0.709818 0.309616
vt 0.780800 0.345648
vt 0.679604 0.345207
vt 0.260907 0.785480
vt 0.260789 0.785317
vt 0.260794 0.299893
vt 0.260789 0.785480
vt 0.452331 0.353660
vt 0.501132 0.343553
vt 0.480918 0.367954
vt 0.685742 0.034132
vt 0.685742 0.257473
vt 0.645676 0.257473
vt 0.645676 0.034132
vt 0.605610 0.257473
vt 0.605610 0.034132
vt 0.565544 0.257473
vt 0.565544 0.034132
vt 0.525478 0.257473
vt 0.525478 0.034132
vt 0.485412 0.257473
vt 0.485412 0.034132
vt 0.445346 0.257473
vt 0.445346 0.034132
vt 0.926138 0.034132
vt 0.926138 0.257473
vt 0.886072 0.257473
vt 0.886072 0.034132
vt 0.846006 0.257473
vt 0.846006 0.034132
vt 0.805940 0.257473
vt 0.805940 0.034132
vt 0.765874 0.257473
vt 0.765874 0.034132
vt 0.725808 0.257473
vt 0.725808 0.034132
vt 0.689812 0.622342
vt 0.471061 0.651649
vt 0.529675 0.702411
vt 0.471061 0.593035
vt 0.529621 0.542247
vt 0.631178 0.512930
vt 0.748426 0.512966
vt 0.849949 0.542273
vt 0.908563 0.593035
vt 0.908563 0.651649
vt 0.849949 0.702410
vt 0.748426 0.731718
vt 0.631198 0.731718
vt 0.696050 0.864117
vt 0.856086 0.944236
vt 0.754526 0.973511
vt 0.637298 0.973475
vt 0.535811 0.944135
vt 0.477261 0.893355
vt 0.477334 0.834741
vt 0.536013 0.783998
vt 0.637593 0.754759
vt 0.754802 0.754759
vt 0.856288 0.784099
vt 0.914765 0.834888
vt 0.914765 0.893493
vt 0.521346 0.367954
vt 0.549933 0.353660
vt 0.452331 0.333446
vt 0.480918 0.319152
vt 0.549933 0.333446
vt 0.521346 0.319152
vt 0.708571 0.381055
vt 0.781515 0.295133
vt 0.852696 0.310240
vt 0.852797 0.310366
vt 0.780086 0.396095
vt 0.851549 0.381561
vt 0.851449 0.381679
vt 0.779752 0.396162
vt 0.881663 0.346088
vn 0.3827 -0.9239 0.0000
vn 0.9239 -0.3827 0.0000
vn 0.9239 0.3827 -0.0000
vn 0.3827 0.9239 -0.0000
vn -0.3827 0.9239 -0.0000
vn -0.9239 0.3827 -0.0000
vn 0.0000 0.0000 -1.0000
vn -0.9239 -0.3827 0.0000
vn -0.3827 -0.9239 0.0000
vn 0.0000 0.0000 1.0000
vn 0.2591 -0.9658 -0.0001
vn 0.7069 -0.7073 -0.0001
vn 0.9659 -0.2588 -0.0002
vn 0.9658 0.2591 -0.0001
vn 0.7073 0.7069 -0.0001
vn 0.2588 0.9659 -0.0002
vn -0.2588 0.9659 -0.0002
vn -0.7071 0.7071 -0.0002
vn -0.9658 0.2591 -0.0001
vn -0.9659 -0.2588 0.0000
vn -0.7069 -0.7073 -0.0001
vn -0.2588 -0.9659 -0.0002
vn 0.0001 -0.0000 1.0000
vn 0.0000 -0.0002 1.0000
vn 0.0001 -0.0002 1.0000
vn 0.0002 -0.0001 1.0000
vn 0.0002 0.0000 1.0000
vn 0.0002 0.0001 1.0000
vn 0.0001 0.0002 1.0000
vn 0.0002 0.0002 1.0000
vn -0.0003 -0.0001 1.0000
vn -0.0002 0.0002 1.0000
vn 0.0001 -0.0003 1.0000
vn -0.9238 -0.3829 0.0000
vn -0.9238 0.3829 0.0000

s 1
f 1/1/1 2/2/1 4/3/1 3/4/1
f 3/4/2 4/3/2 6/5/2 5/6/2
f 5/6/3 6/5/3 8/7/3 7/8/3
f 7/8/4 8/7/4 10/9/4 9/10/4
f 9/11/5 10/12/5 44/13/5 12/14/5 49/15/5 11/16/5
f 11/16/6 49/15/6 48/17/6 14/18/6 13/19/6
f 4/20/7 45/21/7 6/22/7
f 13/19/8 14/18/8 47/23/8 46/24/8 15/25/8
f 15/25/9 46/24/9 16/26/9 2/2/9 1/1/9
f 1/27/10 43/28/10 15/29/10
f 17/30/11 34/31/11 35/32/11 41/33/11
f 41/33/12 35/32/12 36/34/12 18/35/12
f 18/35/13 36/34/13 37/36/13 19/37/13
f 19/37/14 37/36/14 38/38/14 42/39/14
f 42/39/15 38/38/15 39/40/15 20/41/15
f 20/41/16 39/40/16 30/42/16 21/43/16
f 21/44/17 30/45/17 31/46/17 22/47/17
f 22/47/18 31/46/18 32/48/18 23/49/18
f 23/49/19 32/48/19 25/50/19 24/51/19
f 24/51/20 25/50/20 27/52/20 26/53/20
f 26/53/21 27/52/21 33/54/21 28/55/21
f 28/55/22 33/54/22 34/31/22 17/30/22
f 29/56/7 31/57/7 30/58/7
f 29/56/7 32/59/7 31/57/7
f 29/56/7 25/60/7 32/59/7
f 29/56/7 27/61/7 25/60/7
f 29/56/7 33/62/7 27/61/7
f 29/56/7 34/63/7 33/62/7
f 29/56/7 35/64/7 34/63/7
f 29/56/7 36/65/7 35/64/7
f 29/56/7 37/66/7 36/65/7
f 29/56/7 38/67/7 37/66/7
f 29/56/7 39/68/7 38/67/7
f 29/56/7 30/58/7 39/68/7
f 40/69/23 21/70/24 22/71/25
f 40/69/23 22/71/25 23/72/26
f 40/69/23 23/72/26 24/73/27
f 40/69/23 24/73/27 26/74/28
f 40/69/23 26/74/28 28/75/29
f 40/69/23 28/75/29 17/76/30
f 40/69/23 17/76/30 41/77/10
f 40/69/23 41/77/10 18/78/31
f 40/69/23 18/78/31 19/79/32
f 40/69/23 19/79/32 42/80/10
f 40/69/23 42/80/10 20/81/33
f 40/69/23 20/81/33 21/70/24
f 13/82/10 43/28/10 11/83/10
f 43/28/10 3/84/10 5/85/10
f 9/86/10 43/28/10 7/87/10
f 15/29/10 43/28/10 13/82/10
f 7/87/10 43/28/10 5/85/10
f 11/83/10 43/28/10 9/86/10
f 3/84/10 43/28/10 1/27/10
f 6/22/7 45/21/7 8/88/7
f 45/21/7 2/89/7 16/90/7 47/91/7
f 44/92/7 45/21/7 48/93/7 12/94/7
f 8/88/7 45/21/7 44/92/7 10/95/7
f 46/24/8 47/23/8 16/26/34
f 47/91/7 14/96/7 45/21/7
f 48/17/6 49/15/6 12/14/35
f 45/21/7 4/20/7 2/89/7
f 48/93/7 45/21/7 14/96/7
