# Blender v3.1.2 OBJ File: ''
# www.blender.org
mtllib BirdWings.mtl
o wings_Plane.008
v 0.823694 2.355725 -3.102466
v 0.823694 1.717219 -3.393342
v 0.823694 2.268030 -2.233719
v 0.823694 1.550289 -2.567544
v 0.823694 2.460720 -5.000886
v 0.823694 1.956017 -4.083082
v 0.823694 2.443419 -3.971214
v 0.823694 1.719743 -3.946841
v 0.823694 1.100847 -1.156567
v 0.823694 1.542793 -1.428290
v 0.823694 1.582486 -3.803058
v 0.823694 1.753796 -3.752934
v 0.823694 1.155005 -2.325081
v 0.823694 1.519839 -2.548344
v 0.823694 0.746683 -1.620692
v 0.823694 0.869063 -1.538907
v 0.823694 0.670150 -1.458043
v 0.823694 1.169578 0.315491
v 0.823693 1.285899 1.759269
v 0.823694 1.136342 -0.217798
v 0.823694 1.306731 0.854380
v 0.823694 1.990295 0.202171
v 0.823694 0.694260 0.396412
v 0.823694 0.652252 -0.021002
v 0.823694 0.334914 -0.037898
v 0.823694 0.467434 0.054132
v 0.823693 1.067881 1.857649
v 0.823694 0.911196 0.923786
v 0.823694 2.092642 -0.496224
v 0.823694 0.264231 0.130204
v 0.823693 1.618126 1.609352
v 0.823693 0.990257 1.892677
v 0.823694 1.909465 0.748616
v 0.823694 0.299674 1.396505
v 0.617430 0.299674 1.396505
v 0.617431 1.909465 0.748616
v 0.617430 0.990257 1.892677
v 0.617430 1.618126 1.609352
v 0.617430 0.264231 0.130204
v 0.617431 2.092642 -0.496224
v 0.617430 0.911196 0.923786
v 0.617430 1.067881 1.857649
v 0.617431 0.467434 0.054132
v 0.617430 0.334914 -0.037898
v 0.617431 0.652252 -0.021002
v 0.617431 0.694260 0.396412
v 0.617430 1.990295 0.202171
v 0.617430 1.306731 0.854380
v 0.617431 1.136342 -0.217798
v 0.617430 1.285899 1.759269
v 0.617430 1.169578 0.315491
v 0.617431 0.670150 -1.458043
v 0.617431 0.869063 -1.538907
v 0.617431 0.746683 -1.620692
v 0.617431 1.519839 -2.548344
v 0.617431 1.155005 -2.325081
v 0.617431 1.753796 -3.752934
v 0.617431 1.582486 -3.803058
v 0.617431 1.542793 -1.428290
v 0.617431 1.100847 -1.156567
v 0.617431 1.719743 -3.946841
v 0.617431 2.443419 -3.971214
v 0.617431 1.956017 -4.083082
v 0.617431 2.460720 -5.000886
v 0.617431 1.550289 -2.567544
v 0.617431 2.268030 -2.233719
v 0.617431 1.717219 -3.393342
v 0.617431 2.355725 -3.102466
v -1.173934 2.355725 -3.102466
v -1.173934 1.717219 -3.393342
v -1.173934 2.268030 -2.233719
v -1.173934 1.550289 -2.567544
v -1.173934 2.460720 -5.000887
v -1.173934 1.956017 -4.083082
v -1.173934 2.443419 -3.971214
v -1.173934 1.719743 -3.946841
v -1.173934 1.100847 -1.156567
v -1.173934 1.542793 -1.428290
v -1.173934 1.582486 -3.803058
v -1.173934 1.753796 -3.752934
v -1.173934 1.155005 -2.325081
v -1.173934 1.519839 -2.548344
v -1.173934 0.746683 -1.620692
v -1.173934 0.869063 -1.538907
v -1.173934 0.670150 -1.458043
v -1.173935 1.169578 0.315491
v -1.173934 1.285899 1.759269
v -1.173934 1.136342 -0.217798
v -1.173935 1.306731 0.854380
v -1.173935 1.990295 0.202171
v -1.173935 0.694260 0.396412
v -1.173934 0.652252 -0.021002
v -1.173934 0.334914 -0.037898
v -1.173934 0.467434 0.054131
v -1.173934 1.067881 1.857649
v -1.173935 0.911196 0.923786
v -1.173934 2.092642 -0.496225
v -1.173934 0.264230 0.130203
v -1.173934 1.618126 1.609352
v -1.173934 0.990257 1.892676
v -1.173935 1.909464 0.748616
v -1.173935 0.299674 1.396505
v -0.967671 0.299674 1.396505
v -0.967671 1.909464 0.748616
v -0.967671 0.990257 1.892676
v -0.967671 1.618126 1.609352
v -0.967671 0.264230 0.130203
v -0.967671 2.092642 -0.496224
v -0.967671 0.911196 0.923786
v -0.967671 1.067881 1.857649
v -0.967671 0.467434 0.054131
v -0.967671 0.334914 -0.037898
v -0.967671 0.652252 -0.021002
v -0.967671 0.694260 0.396412
v -0.967671 1.990295 0.202171
v -0.967671 1.306731 0.854380
v -0.967671 1.136342 -0.217798
v -0.967671 1.285899 1.759269
v -0.967671 1.169578 0.315491
v -0.967671 0.670150 -1.458043
v -0.967671 0.869063 -1.538907
v -0.967671 0.746683 -1.620692
v -0.967671 1.519839 -2.548344
v -0.967671 1.155005 -2.325081
v -0.967671 1.753796 -3.752934
v -0.967671 1.582486 -3.803058
v -0.967671 1.542793 -1.428290
v -0.967671 1.100847 -1.156567
v -0.967671 1.719743 -3.946841
v -0.967671 2.443419 -3.971214
v -0.967671 1.956017 -4.083082
v -0.967671 2.460720 -5.000887
v -0.967671 1.550289 -2.567544
v -0.967671 2.268030 -2.233719
v -0.967671 1.717219 -3.393342
v -0.967671 2.355725 -3.102466
vt 0.591870 0.944166
vt 0.636323 0.848591
vt 0.746286 0.870820
vt 0.707553 0.955843
vt 0.360505 0.920811
vt 0.484619 0.847593
vt 0.838132 0.902618
vt 0.960347 0.969824
vt 0.823236 0.967521
vt 0.794170 0.875690
vt 0.800844 0.852879
vt 0.819990 0.871156
vt 0.323429 0.793470
vt 0.448436 0.788743
vt 0.633766 0.844536
vt 0.604036 0.795955
vt 0.499349 0.757879
vt 0.488581 0.731391
vt 0.510239 0.741583
vt 0.297224 0.729008
vt 0.171415 0.763489
vt 0.180658 0.816159
vt 0.060162 0.813385
vt 0.047062 0.784354
vt 0.194741 0.896419
vt 0.252416 0.797896
vt 0.267506 0.907183
vt 0.241641 0.734602
vt 0.287219 0.704398
vt 0.277089 0.677339
vt 0.299474 0.686751
vt 0.108468 0.682059
vt 0.042398 0.774017
vt 0.080125 0.857624
vt 0.180658 0.816159
vt 0.060162 0.813385
vt 0.080125 0.857624
vt 0.194741 0.896419
vt 0.171415 0.763489
vt 0.287219 0.704398
vt 0.277089 0.677339
vt 0.108468 0.682059
vt 0.252416 0.797896
vt 0.241641 0.734602
vt 0.042398 0.774017
vt 0.047062 0.784354
vt 0.299474 0.686751
vt 0.323429 0.793470
vt 0.297224 0.729008
vt 0.267506 0.907183
vt 0.360505 0.920811
vt 0.499349 0.757879
vt 0.488581 0.731391
vt 0.510239 0.741583
vt 0.484619 0.847593
vt 0.633766 0.844536
vt 0.604036 0.795955
vt 0.448436 0.788743
vt 0.794170 0.875690
vt 0.800844 0.852879
vt 0.819990 0.871156
vt 0.707553 0.955843
vt 0.823236 0.967521
vt 0.838132 0.902618
vt 0.746286 0.870820
vt 0.960347 0.969824
vt 0.591870 0.944166
vt 0.636323 0.848591
vt 0.591870 0.944166
vt 0.707553 0.955843
vt 0.746286 0.870820
vt 0.636323 0.848591
vt 0.360505 0.920811
vt 0.484619 0.847593
vt 0.838132 0.902618
vt 0.823236 0.967521
vt 0.960347 0.969824
vt 0.794170 0.875690
vt 0.819990 0.871156
vt 0.800844 0.852879
vt 0.448436 0.788743
vt 0.323429 0.793470
vt 0.633766 0.844536
vt 0.604036 0.795955
vt 0.499349 0.757879
vt 0.510239 0.741583
vt 0.488581 0.731391
vt 0.297224 0.729008
vt 0.171415 0.763489
vt 0.047062 0.784354
vt 0.060162 0.813385
vt 0.180658 0.816159
vt 0.194741 0.896419
vt 0.267506 0.907183
vt 0.252416 0.797896
vt 0.241641 0.734602
vt 0.287219 0.704398
vt 0.299474 0.686751
vt 0.277089 0.677339
vt 0.108468 0.682059
vt 0.042398 0.774017
vt 0.080125 0.857624
vt 0.180658 0.816159
vt 0.194741 0.896419
vt 0.080125 0.857624
vt 0.060162 0.813385
vt 0.171415 0.763489
vt 0.108468 0.682059
vt 0.277089 0.677339
vt 0.287219 0.704398
vt 0.241641 0.734602
vt 0.252416 0.797896
vt 0.047062 0.784354
vt 0.042398 0.774017
vt 0.299474 0.686751
vt 0.297224 0.729008
vt 0.323429 0.793470
vt 0.267506 0.907183
vt 0.360505 0.920811
vt 0.488581 0.731391
vt 0.499349 0.757879
vt 0.510239 0.741583
vt 0.484619 0.847593
vt 0.448436 0.788743
vt 0.604036 0.795955
vt 0.633766 0.844536
vt 0.800844 0.852879
vt 0.794170 0.875690
vt 0.819990 0.871156
vt 0.707553 0.955843
vt 0.746286 0.870820
vt 0.838132 0.902618
vt 0.823236 0.967521
vt 0.960347 0.969824
vt 0.636323 0.848591
vt 0.591870 0.944166
vn 1.0000 -0.0000 -0.0000
vn -1.0000 -0.0000 -0.0000
vn 0.0000 0.5704 -0.8214
vn 0.0000 0.9949 0.1004
vn -0.0000 0.9472 0.3206
vn 0.0000 0.5556 -0.8314
vn -0.0000 -0.9950 0.1001
vn 0.0000 -0.9450 -0.3272
vn 0.0000 0.4113 0.9115
vn 0.0000 -0.9996 0.0280
vn 0.0000 -0.9989 -0.0463
vn 0.0000 -1.0000 -0.0066
vn 0.0000 0.9893 0.1457
vn 0.0000 0.9892 0.1463
vn 0.0000 0.9999 0.0168
vn 0.0000 0.9817 0.1907
vn 0.0000 -0.9606 -0.2778
vn 0.0000 -0.9802 -0.1981
vn 0.0000 0.9998 -0.0205
vn 0.0000 0.8907 -0.4545
vn -0.0000 -0.9993 0.0378
vn 0.0000 -0.9248 0.3804
vn 0.0000 0.9849 -0.1730
vn 0.0000 0.9801 -0.1983
vn 0.0000 -0.9218 -0.3876
vn 0.0000 -0.7233 -0.6905
vn 0.0000 -0.5835 0.8121
vn -0.0000 -0.9999 -0.0125
vn 0.0000 0.9894 0.1450
vn 0.0000 -0.8763 -0.4819
vn 0.0000 -0.9048 -0.4258

s 1
f 3/1/1 4/2/1 2/3/1 1/4/1
f 29/5/1 10/6/1 4/2/1 3/1/1
f 6/7/1 5/8/1 7/9/1
f 1/4/1 2/3/1 6/7/1 7/9/1
f 12/10/1 11/11/1 8/12/1
f 29/5/1 20/13/1 9/14/1 10/6/1
f 14/15/1 13/16/1 11/11/1 12/10/1
f 10/6/1 9/14/1 13/16/1 14/15/1
f 16/17/1 17/18/1 15/19/1
f 20/13/1 24/20/1 17/18/1 16/17/1
f 28/21/1 21/22/1 19/23/1 27/24/1
f 33/25/1 21/22/1 18/26/1 22/27/1
f 22/27/1 18/26/1 20/13/1 29/5/1
f 18/26/1 23/28/1 24/20/1 20/13/1
f 26/29/1 30/30/1 25/31/1
f 34/32/1 28/21/1 27/24/1 32/33/1
f 21/22/1 28/21/1 23/28/1 18/26/1
f 28/21/1 34/32/1 30/30/1 26/29/1
f 21/22/1 33/25/1 31/34/1 19/23/1
f 48/35/2 50/36/2 38/37/2 36/38/2
f 41/39/2 43/40/2 39/41/2 35/42/2
f 48/35/2 51/43/2 46/44/2 41/39/2
f 35/42/2 37/45/2 42/46/2 41/39/2
f 43/40/2 44/47/2 39/41/2
f 51/43/2 49/48/2 45/49/2 46/44/2
f 47/50/2 40/51/2 49/48/2 51/43/2
f 36/38/2 47/50/2 51/43/2 48/35/2
f 41/39/2 42/46/2 50/36/2 48/35/2
f 49/48/2 53/52/2 52/53/2 45/49/2
f 53/52/2 54/54/2 52/53/2
f 59/55/2 55/56/2 56/57/2 60/58/2
f 55/56/2 57/59/2 58/60/2 56/57/2
f 40/51/2 59/55/2 60/58/2 49/48/2
f 57/59/2 61/61/2 58/60/2
f 68/62/2 62/63/2 63/64/2 67/65/2
f 63/64/2 62/63/2 64/66/2
f 40/51/2 66/67/2 65/68/2 59/55/2
f 66/67/2 68/62/2 67/65/2 65/68/2
f 44/47/3 43/40/3 26/29/3 25/31/3
f 66/67/4 40/51/4 29/5/4 3/1/4
f 36/38/5 38/37/5 31/34/5 33/25/5
f 54/54/6 53/52/6 16/17/6 15/19/6
f 46/44/7 45/49/7 24/20/7 23/28/7
f 67/65/8 63/64/8 6/7/8 2/3/8
f 42/46/9 37/45/9 32/33/9 27/24/9
f 68/62/4 66/67/4 3/1/4 1/4/4
f 35/42/10 39/41/10 30/30/10 34/32/10
f 60/58/11 56/57/11 13/16/11 9/14/11
f 59/55/12 65/68/12 4/2/12 10/6/12
f 47/50/13 36/38/14 33/25/14 22/27/13
f 38/37/9 50/36/9 19/23/9 31/34/9
f 64/66/15 62/63/15 7/9/15 5/8/15
f 57/59/16 55/56/16 14/15/16 12/10/16
f 50/36/9 42/46/9 27/24/9 19/23/9
f 56/57/17 58/60/17 11/11/17 13/16/17
f 65/68/18 67/65/18 2/3/18 4/2/18
f 55/56/19 59/55/19 10/6/19 14/15/19
f 62/63/4 68/62/4 1/4/4 7/9/4
f 43/40/20 41/39/20 28/21/20 26/29/20
f 49/48/21 60/58/21 9/14/21 20/13/21
f 41/39/22 46/44/22 23/28/22 28/21/22
f 61/61/23 57/59/23 12/10/23 8/12/23
f 53/52/24 49/48/24 20/13/24 16/17/24
f 39/41/25 44/47/25 25/31/25 30/30/25
f 58/60/26 61/61/26 8/12/26 11/11/26
f 37/45/27 35/42/27 34/32/27 32/33/27
f 45/49/28 52/53/28 17/18/28 24/20/28
f 40/51/29 47/50/13 22/27/13 29/5/29
f 63/64/30 64/66/30 5/8/30 6/7/30
f 52/53/31 54/54/31 15/19/31 17/18/31
f 71/69/2 69/70/2 70/71/2 72/72/2
f 97/73/2 71/69/2 72/72/2 78/74/2
f 74/75/2 75/76/2 73/77/2
f 69/70/2 75/76/2 74/75/2 70/71/2
f 80/78/2 76/79/2 79/80/2
f 97/73/2 78/74/2 77/81/2 88/82/2
f 82/83/2 80/78/2 79/80/2 81/84/2
f 78/74/2 82/83/2 81/84/2 77/81/2
f 84/85/2 83/86/2 85/87/2
f 88/82/2 84/85/2 85/87/2 92/88/2
f 96/89/2 95/90/2 87/91/2 89/92/2
f 101/93/2 90/94/2 86/95/2 89/92/2
f 90/94/2 97/73/2 88/82/2 86/95/2
f 86/95/2 88/82/2 92/88/2 91/96/2
f 94/97/2 93/98/2 98/99/2
f 102/100/2 100/101/2 95/90/2 96/89/2
f 89/92/2 86/95/2 91/96/2 96/89/2
f 96/89/2 94/97/2 98/99/2 102/100/2
f 89/92/2 87/91/2 99/102/2 101/93/2
f 116/103/1 104/104/1 106/105/1 118/106/1
f 109/107/1 103/108/1 107/109/1 111/110/1
f 116/103/1 109/107/1 114/111/1 119/112/1
f 103/108/1 109/107/1 110/113/1 105/114/1
f 111/110/1 107/109/1 112/115/1
f 119/112/1 114/111/1 113/116/1 117/117/1
f 115/118/1 119/112/1 117/117/1 108/119/1
f 104/104/1 116/103/1 119/112/1 115/118/1
f 109/107/1 116/103/1 118/106/1 110/113/1
f 117/117/1 113/116/1 120/120/1 121/121/1
f 121/121/1 120/120/1 122/122/1
f 127/123/1 128/124/1 124/125/1 123/126/1
f 123/126/1 124/125/1 126/127/1 125/128/1
f 108/119/1 117/117/1 128/124/1 127/123/1
f 125/128/1 126/127/1 129/129/1
f 136/130/1 135/131/1 131/132/1 130/133/1
f 131/132/1 132/134/1 130/133/1
f 108/119/1 127/123/1 133/135/1 134/136/1
f 134/136/1 133/135/1 135/131/1 136/130/1
f 112/115/3 93/98/3 94/97/3 111/110/3
f 134/136/4 71/69/4 97/73/4 108/119/4
f 104/104/5 101/93/5 99/102/5 106/105/5
f 122/122/6 83/86/6 84/85/6 121/121/6
f 114/111/7 91/96/7 92/88/7 113/116/7
f 135/131/8 70/71/8 74/75/8 131/132/8
f 110/113/9 95/90/9 100/101/9 105/114/9
f 136/130/4 69/70/4 71/69/4 134/136/4
f 103/108/10 102/100/10 98/99/10 107/109/10
f 128/124/11 77/81/11 81/84/11 124/125/11
f 127/123/12 78/74/12 72/72/12 133/135/12
f 115/118/13 90/94/13 101/93/14 104/104/14
f 106/105/9 99/102/9 87/91/9 118/106/9
f 132/134/15 73/77/15 75/76/15 130/133/15
f 125/128/16 80/78/16 82/83/16 123/126/16
f 118/106/9 87/91/9 95/90/9 110/113/9
f 124/125/17 81/84/17 79/80/17 126/127/17
f 133/135/18 72/72/18 70/71/18 135/131/18
f 123/126/19 82/83/19 78/74/19 127/123/19
f 130/133/4 75/76/4 69/70/4 136/130/4
f 111/110/20 94/97/20 96/89/20 109/107/20
f 117/117/21 88/82/21 77/81/21 128/124/21
f 109/107/22 96/89/22 91/96/22 114/111/22
f 129/129/23 76/79/23 80/78/23 125/128/23
f 121/121/24 84/85/24 88/82/24 117/117/24
f 107/109/25 98/99/25 93/98/25 112/115/25
f 126/127/26 79/80/26 76/79/26 129/129/26
f 105/114/27 100/101/27 102/100/27 103/108/27
f 113/116/28 92/88/28 85/87/28 120/120/28
f 108/119/29 97/73/29 90/94/13 115/118/13
f 131/132/30 74/75/30 73/77/30 132/134/30
f 120/120/31 85/87/31 83/86/31 122/122/31
