# Blender v3.1.2 OBJ File: ''
# www.blender.org
mtllib Bird.mtl
o body_Circle.019
v 0.617431 3.695020 2.237506
v 0.617430 1.981498 3.226809
v 0.617430 1.716415 2.237506
v 0.617430 2.705717 3.951030
v 0.617431 3.695020 4.216113
v 0.617431 4.684323 3.951030
v 0.617431 5.408545 3.226810
v 0.617431 5.673626 2.237507
v 0.617431 5.408544 1.248204
v 0.617431 4.684324 0.523984
v 0.617431 3.695022 0.258901
v 0.617431 2.705719 0.523982
v 0.617431 1.981498 1.248202
v 0.617430 0.424313 1.832064
v 0.617431 1.201120 0.438302
v 0.617431 2.301260 -0.281982
v 0.617430 -0.603070 0.684623
v 0.617431 0.557529 -0.511338
v 0.617431 1.860390 -1.109596
v 0.617430 -1.055257 -1.173490
v 0.617431 -0.719647 -2.152953
v 0.617431 1.213848 -3.208645
v 0.617431 0.524399 -3.490485
v 0.617431 1.232710 -6.434797
v -0.967672 3.695020 2.237506
v -0.967672 1.716415 2.237506
v -0.967672 1.981498 3.226809
v -0.967672 2.705717 3.951030
v -0.967672 3.695020 4.216113
v -0.967672 4.684323 3.951030
v -0.967672 5.408545 3.226810
v -0.967671 5.673626 2.237507
v -0.967671 5.408544 1.248204
v -0.967671 4.684324 0.523984
v -0.967672 3.695022 0.258901
v -0.967672 2.705719 0.523982
v -0.967672 1.981498 1.248202
v -0.967672 1.201120 0.438301
v -0.967672 0.424313 1.832064
v -0.967672 2.301260 -0.281982
v -0.967672 0.557529 -0.511338
v -0.967672 -0.603070 0.684623
v -0.967672 1.860391 -1.109596
v -0.967672 -0.719647 -2.152953
v -0.967672 -1.055257 -1.173490
v -0.967671 1.213848 -3.208645
v -0.967671 1.232710 -6.434797
v -0.967672 0.524399 -3.490485
v 0.371144 -2.878385 -1.009265
v 0.560694 -2.878385 -0.630165
v 0.560694 -3.010409 -1.134840
v 0.371144 -3.342651 -1.239086
v 0.577870 -1.545299 -1.226578
v 0.371144 -1.545299 -1.588459
v 0.371144 -0.675262 -1.200554
v 0.603656 -0.675262 -0.735531
v 0.371144 -1.545299 -1.226578
v 0.371144 -0.675262 -0.735531
v 0.555332 -3.044757 -0.558950
v 0.371144 -3.044757 -0.927327
v 0.555332 -3.035809 -0.955657
v 0.371144 -2.878385 -0.630165
v 0.371144 -3.032762 -0.371081
v 0.560694 -3.032763 -0.371081
v 0.371144 -3.137923 -0.518365
v 0.555332 -3.137923 -0.518365
v 0.621323 -3.415904 -0.404590
v 0.371144 -3.044757 -0.558950
v 0.683773 -3.425999 -0.223898
v 0.564235 -3.425999 -0.223898
v 0.538351 -3.616054 -0.497952
v 0.370269 -2.878385 -1.009265
v 0.370269 -3.342651 -1.239086
v 0.180720 -3.010409 -1.134840
v 0.180720 -2.878385 -0.630165
v 0.163543 -1.545299 -1.226578
v 0.137758 -0.675262 -0.735531
v 0.370269 -0.675262 -1.200554
v 0.370269 -1.545299 -1.588459
v 0.370269 -1.545299 -1.226578
v 0.370269 -0.675262 -0.735531
v 0.186081 -3.044757 -0.558950
v 0.186081 -3.035809 -0.955657
v 0.370269 -3.044757 -0.927327
v 0.370269 -2.878385 -0.630165
v 0.180720 -3.032763 -0.371081
v 0.370269 -3.032762 -0.371081
v 0.370269 -3.137923 -0.518365
v 0.120090 -3.415904 -0.404590
v 0.186081 -3.137923 -0.518365
v 0.370269 -3.044757 -0.558950
v 0.057640 -3.425999 -0.223898
v 0.203062 -3.616054 -0.497952
v 0.177178 -3.425999 -0.223898
v -0.720269 -2.878385 -1.009265
v -0.720269 -3.342651 -1.239086
v -0.909819 -3.010409 -1.134840
v -0.909819 -2.878385 -0.630165
v -0.926995 -1.545299 -1.226578
v -0.952780 -0.675262 -0.735531
v -0.720268 -0.675262 -1.200554
v -0.720269 -1.545299 -1.588459
v -0.720269 -1.545299 -1.226578
v -0.720268 -0.675262 -0.735531
v -0.904457 -3.044757 -0.558950
v -0.904457 -3.035809 -0.955657
v -0.720269 -3.044757 -0.927327
v -0.720269 -2.878385 -0.630165
v -0.909819 -3.032763 -0.371081
v -0.720269 -3.032762 -0.371081
v -0.720269 -3.137923 -0.518365
v -0.970448 -3.415904 -0.404590
v -0.904457 -3.137923 -0.518365
v -0.720269 -3.044757 -0.558950
v -1.032898 -3.425999 -0.223898
v -0.887476 -3.616054 -0.497952
v -0.913360 -3.425999 -0.223898
v -0.720511 -2.878385 -1.009265
v -0.530961 -2.878385 -0.630165
v -0.530961 -3.010409 -1.134840
v -0.720511 -3.342651 -1.239086
v -0.513785 -1.545299 -1.226578
v -0.720511 -1.545299 -1.588459
v -0.720511 -0.675262 -1.200554
v -0.487999 -0.675262 -0.735531
v -0.720511 -1.545299 -1.226578
v -0.720511 -0.675262 -0.735531
v -0.536323 -3.044757 -0.558950
v -0.720511 -3.044757 -0.927327
v -0.536323 -3.035809 -0.955657
v -0.720511 -2.878385 -0.630165
v -0.720511 -3.032762 -0.371081
v -0.530961 -3.032763 -0.371081
v -0.720511 -3.137923 -0.518365
v -0.536323 -3.137923 -0.518365
v -0.470332 -3.415904 -0.404590
v -0.720511 -3.044757 -0.558950
v -0.407882 -3.425999 -0.223898
v -0.527420 -3.425999 -0.223898
v -0.553304 -3.616054 -0.497952
vt 0.582120 0.479428
vt 0.478059 0.482108
vt 0.490661 0.429719
vt 0.493341 0.533779
vt 0.532410 0.570887
vt 0.584799 0.583488
vt 0.636470 0.568207
vt 0.673578 0.529137
vt 0.686180 0.476748
vt 0.670898 0.425077
vt 0.631829 0.387970
vt 0.579440 0.375368
vt 0.527769 0.390649
vt 0.441121 0.378516
vt 0.512044 0.333607
vt 0.580993 0.327952
vt 0.422459 0.299666
vt 0.506153 0.273542
vt 0.581406 0.278620
vt 0.448239 0.202416
vt 0.488360 0.165573
vt 0.604256 0.165351
vt 0.579468 0.135002
vt 0.686180 0.016700
vt 0.879240 0.120760
vt 0.787781 0.170469
vt 0.775180 0.118080
vt 0.790461 0.066409
vt 0.829531 0.029301
vt 0.881920 0.016700
vt 0.933591 0.031981
vt 0.970699 0.071051
vt 0.983300 0.123440
vt 0.968019 0.175111
vt 0.928949 0.212219
vt 0.876560 0.224820
vt 0.824889 0.209539
vt 0.809164 0.266581
vt 0.738241 0.221672
vt 0.878113 0.272236
vt 0.803273 0.326646
vt 0.719580 0.300523
vt 0.878527 0.321568
vt 0.785480 0.434615
vt 0.745360 0.397772
vt 0.901376 0.434837
vt 0.983300 0.583488
vt 0.876588 0.465186
vt 0.366931 0.371545
vt 0.367618 0.422820
vt 0.279709 0.426788
vt 0.273236 0.369934
vt 0.201556 0.016700
vt 0.290118 0.041743
vt 0.243533 0.135116
vt 0.200759 0.120766
vt 0.030433 0.382048
vt 0.025389 0.301672
vt 0.127580 0.298855
vt 0.114779 0.369248
vt 0.225614 0.647552
vt 0.146593 0.596223
vt 0.193201 0.537636
vt 0.269765 0.575654
vt 0.389059 0.260722
vt 0.372186 0.328567
vt 0.261395 0.305025
vt 0.292806 0.260651
vt 0.016700 0.171027
vt 0.046005 0.094335
vt 0.121377 0.151779
vt 0.101729 0.192209
vt 0.105531 0.557947
vt 0.160954 0.507932
vt 0.356185 0.102880
vt 0.276707 0.167055
vt 0.051820 0.468121
vt 0.126040 0.438539
vt 0.112253 0.036347
vt 0.157000 0.126740
vt 0.018168 0.245501
vt 0.106463 0.243665
vt 0.388401 0.182082
vt 0.294245 0.210894
vt 0.377039 0.540269
vt 0.298273 0.548722
vt 0.389059 0.695723
vt 0.321806 0.634756
vt 0.759633 0.719781
vt 0.768959 0.722673
vt 0.759514 0.723910
vt 0.754770 0.726935
vt 0.763699 0.686266
vt 0.753818 0.686020
vt 0.759067 0.665977
vt 0.769065 0.664043
vt 0.768433 0.686513
vt 0.773512 0.665182
vt 0.769627 0.726249
vt 0.761802 0.728226
vt 0.754840 0.727042
vt 0.761934 0.724965
vt 0.773395 0.721732
vt 0.771305 0.725431
vt 0.771283 0.725471
vt 0.771369 0.725442
vt 0.771326 0.725466
vt 0.771316 0.725450
vt 0.773512 0.726116
vt 0.771312 0.725454
vt 0.771313 0.725457
vt 0.771312 0.725455
vt 0.771310 0.725451
vt 0.699649 0.672135
vt 0.696354 0.664437
vt 0.700376 0.668228
vt 0.708308 0.671745
vt 0.698012 0.704130
vt 0.705547 0.728825
vt 0.692562 0.726743
vt 0.687767 0.703395
vt 0.702874 0.703910
vt 0.710945 0.726944
vt 0.709757 0.669704
vt 0.703126 0.667912
vt 0.696748 0.664043
vt 0.704074 0.664942
vt 0.710945 0.672318
vt 0.710070 0.670004
vt 0.710443 0.670203
vt 0.710517 0.670150
vt 0.710230 0.669567
vt 0.710082 0.669868
vt 0.710846 0.670349
vt 0.710257 0.669672
vt 0.710460 0.669034
vt 0.710269 0.669672
vt 0.710339 0.669624
vt 0.722827 0.672135
vt 0.719532 0.664437
vt 0.723554 0.668228
vt 0.731485 0.671746
vt 0.721190 0.704130
vt 0.728724 0.728825
vt 0.715740 0.726743
vt 0.710945 0.703395
vt 0.726051 0.703910
vt 0.734123 0.726944
vt 0.732935 0.669704
vt 0.726304 0.667912
vt 0.719926 0.664043
vt 0.727252 0.664942
vt 0.734123 0.672318
vt 0.733247 0.670005
vt 0.733620 0.670203
vt 0.733694 0.670150
vt 0.733411 0.669573
vt 0.733261 0.669869
vt 0.734023 0.670349
vt 0.733423 0.669668
vt 0.733669 0.668933
vt 0.733423 0.669668
vt 0.733523 0.669618
vt 0.733639 0.669033
vt 0.739938 0.719780
vt 0.749265 0.722672
vt 0.739820 0.723909
vt 0.735076 0.726934
vt 0.744004 0.686265
vt 0.734123 0.686019
vt 0.739373 0.665976
vt 0.749371 0.664043
vt 0.748738 0.686512
vt 0.753818 0.665183
vt 0.749933 0.726248
vt 0.742108 0.728226
vt 0.735146 0.727041
vt 0.742240 0.724964
vt 0.753701 0.721731
vt 0.751611 0.725430
vt 0.751589 0.725470
vt 0.751675 0.725440
vt 0.751632 0.725465
vt 0.751622 0.725448
vt 0.753818 0.726115
vt 0.751619 0.725453
vt 0.751619 0.725456
vt 0.751618 0.725453
vn 1.0000 -0.0000 0.0000
vn -1.0000 0.0000 -0.0000
vn 0.0000 0.8826 -0.4702
vn 0.0000 0.9659 0.2588
vn 0.0000 -0.2994 0.9541
vn 0.0000 -0.7322 -0.6811
vn 0.0000 -0.2588 -0.9659
vn 0.0000 -0.2588 0.9659
vn 0.0000 -0.9460 -0.3241
vn 0.0000 0.9659 -0.2588
vn 0.0000 0.8938 -0.4485
vn 0.0000 -0.9716 0.2365
vn 0.0000 0.2588 0.9659
vn 0.0000 -0.9659 0.2588
vn 0.0000 0.7071 -0.7071
vn 0.0000 0.9557 -0.2944
vn 0.0000 -0.7450 0.6671
vn 0.0000 0.7071 0.7071
vn 0.0000 -0.9723 -0.2339
vn 0.0000 0.2588 -0.9659
vn 0.0000 1.0000 0.0058
vn 0.0000 -0.7071 0.7071
vn 0.1223 0.7705 -0.6256
vn 0.8618 0.2185 -0.4578
vn 0.0000 -0.4915 0.8709
vn 0.1025 -0.9211 0.3757
vn 0.8624 -0.2089 -0.4612
vn 0.8735 -0.4850 -0.0426
vn 0.9989 -0.0474 0.0065
vn 0.0000 0.4084 0.9128
vn 0.0000 0.8591 0.5119
vn 0.0000 -0.3788 -0.9255
vn 0.9991 -0.0320 -0.0265
vn 0.0000 -0.3994 -0.9168
vn 0.0000 -0.8217 0.5699
vn -0.8367 -0.5475 0.0131
vn 0.9535 0.1725 -0.2471
vn 0.0000 0.3505 0.9365
vn -0.8508 0.4660 -0.2428
vn 0.9166 -0.2263 -0.3295
vn -0.1223 0.7705 -0.6256
vn -0.8618 0.2185 -0.4578
vn -0.1025 -0.9211 0.3757
vn -0.8624 -0.2089 -0.4612
vn -0.8735 -0.4850 -0.0426
vn -0.9989 -0.0474 0.0065
vn -0.9991 -0.0320 -0.0265
vn 0.8367 -0.5475 0.0131
vn -0.9535 0.1725 -0.2471
vn 0.8508 0.4660 -0.2428
vn -0.9166 -0.2263 -0.3295
usemtl Default_OBJ.037
s 1
f 1/1/1 2/2/1 3/3/1
f 1/1/1 4/4/1 2/2/1
f 1/1/1 5/5/1 4/4/1
f 1/1/1 6/6/1 5/5/1
f 1/1/1 7/7/1 6/6/1
f 1/1/1 8/8/1 7/7/1
f 1/1/1 9/9/1 8/8/1
f 1/1/1 10/10/1 9/9/1
f 1/1/1 11/11/1 10/10/1
f 1/1/1 12/12/1 11/11/1
f 1/1/1 13/13/1 12/12/1
f 1/1/1 3/3/1 13/13/1
f 3/3/1 14/14/1 15/15/1 13/13/1
f 13/13/1 15/15/1 16/16/1 12/12/1
f 14/14/1 17/17/1 18/18/1 15/15/1
f 15/15/1 18/18/1 19/19/1 16/16/1
f 17/17/1 20/20/1 21/21/1 18/18/1
f 18/18/1 21/21/1 22/22/1 19/19/1
f 21/21/1 23/23/1 24/24/1 22/22/1
f 25/25/2 26/26/2 27/27/2
f 25/25/2 27/27/2 28/28/2
f 25/25/2 28/28/2 29/29/2
f 25/25/2 29/29/2 30/30/2
f 25/25/2 30/30/2 31/31/2
f 25/25/2 31/31/2 32/32/2
f 25/25/2 32/32/2 33/33/2
f 25/25/2 33/33/2 34/34/2
f 25/25/2 34/34/2 35/35/2
f 25/25/2 35/35/2 36/36/2
f 25/25/2 36/36/2 37/37/2
f 25/25/2 37/37/2 26/26/2
f 26/26/2 37/37/2 38/38/2 39/39/2
f 37/37/2 36/36/2 40/40/2 38/38/2
f 39/39/2 38/38/2 41/41/2 42/42/2
f 38/38/2 40/40/2 43/43/2 41/41/2
f 42/42/2 41/41/2 44/44/2 45/45/2
f 41/41/2 43/43/2 46/46/2 44/44/2
f 44/44/2 46/46/2 47/47/2 48/48/2
f 16/49/3 19/50/3 43/51/3 40/52/3
f 7/53/4 8/54/4 32/55/4 31/56/4
f 14/57/5 3/58/5 26/59/5 39/60/5
f 23/61/6 21/62/6 44/63/6 48/64/6
f 11/65/7 12/66/7 36/67/7 35/68/7
f 4/69/8 5/70/8 29/71/8 28/72/8
f 21/62/9 20/73/9 45/74/9 44/63/9
f 8/54/10 9/75/10 33/76/10 32/55/10
f 12/66/11 16/49/11 40/52/11 36/67/11
f 20/73/12 17/77/12 42/78/12 45/74/12
f 5/70/13 6/79/13 30/80/13 29/71/13
f 3/58/14 2/81/14 27/82/14 26/59/14
f 9/75/15 10/83/15 34/84/15 33/76/15
f 19/50/16 22/85/16 46/86/16 43/51/16
f 17/77/17 14/57/17 39/60/17 42/78/17
f 6/79/18 7/53/18 31/56/18 30/80/18
f 24/87/19 23/61/19 48/64/19 47/88/19
f 10/83/20 11/65/20 35/68/20 34/84/20
f 22/85/21 24/87/21 47/88/21 46/86/21
f 2/81/22 4/69/22 28/72/22 27/82/22
f 49/89/23 50/90/23 51/91/23 52/92/23
f 53/93/24 54/94/24 55/95/24 56/96/24
f 57/97/25 53/93/25 56/96/25 58/98/25
f 59/99/26 60/100/26 52/101/26 61/102/26
f 54/94/27 53/93/27 50/90/27 49/89/27
f 52/92/28 51/91/28 61/102/28
f 50/90/29 59/99/29 61/102/29 51/91/29
f 53/93/30 57/97/30 62/103/30 50/90/30
f 50/90/31 62/103/31 63/104/31 64/105/31
f 65/106/32 66/107/32 67/108/32
f 62/103/2 68/109/2 65/106/2 63/104/2
f 59/99/33 50/90/33 64/105/33 66/107/33
f 68/109/34 59/99/34 66/107/34 65/106/34
f 69/110/35 70/111/35 71/112/35
f 63/104/36 65/106/36 67/108/36 70/111/36
f 66/107/37 64/105/37 69/110/37 67/113/37
f 64/105/38 63/104/38 70/111/38 69/110/38
f 70/111/39 67/108/39 71/112/39
f 67/113/40 69/110/40 71/112/40
f 72/114/41 73/115/41 74/116/41 75/117/41
f 76/118/42 77/119/42 78/120/42 79/121/42
f 80/122/25 81/123/25 77/119/25 76/118/25
f 82/124/43 83/125/43 73/126/43 84/127/43
f 79/121/44 72/114/44 75/117/44 76/118/44
f 73/126/45 83/125/45 74/116/45
f 75/117/46 74/116/46 83/125/46 82/124/46
f 76/118/30 75/117/30 85/128/30 80/122/30
f 75/117/31 86/129/31 87/130/31 85/128/31
f 88/131/32 89/132/32 90/133/32
f 85/128/1 87/130/1 88/131/1 91/134/1
f 82/124/47 90/133/47 86/129/47 75/117/47
f 91/134/34 88/131/34 90/133/34 82/124/34
f 92/135/35 93/136/35 94/137/35
f 87/130/48 94/137/48 89/138/48 88/131/48
f 90/133/49 89/132/49 92/135/49 86/129/49
f 86/129/38 92/135/38 94/137/38 87/130/38
f 94/137/50 93/136/50 89/138/50
f 89/132/51 93/136/51 92/135/51
f 95/139/41 96/140/41 97/141/41 98/142/41
f 99/143/42 100/144/42 101/145/42 102/146/42
f 103/147/25 104/148/25 100/144/25 99/143/25
f 105/149/43 106/150/43 96/151/43 107/152/43
f 102/146/44 95/139/44 98/142/44 99/143/44
f 96/151/45 106/150/45 97/141/45
f 98/142/46 97/141/46 106/150/46 105/149/46
f 99/143/30 98/142/30 108/153/30 103/147/30
f 98/142/31 109/154/31 110/155/31 108/153/31
f 111/156/32 112/157/32 113/158/32
f 108/153/1 110/155/1 111/156/1 114/159/1
f 105/149/47 113/158/47 109/154/47 98/142/47
f 114/159/34 111/156/34 113/158/34 105/149/34
f 115/160/35 116/161/35 117/162/35
f 110/155/48 117/162/48 112/163/48 111/156/48
f 113/158/49 112/157/49 115/160/49 109/154/49
f 109/154/38 115/160/38 117/162/38 110/155/38
f 117/162/50 116/161/50 112/163/50
f 112/157/51 116/164/51 115/160/51
f 118/165/23 119/166/23 120/167/23 121/168/23
f 122/169/24 123/170/24 124/171/24 125/172/24
f 126/173/25 122/169/25 125/172/25 127/174/25
f 128/175/26 129/176/26 121/177/26 130/178/26
f 123/170/27 122/169/27 119/166/27 118/165/27
f 121/168/28 120/167/28 130/178/28
f 119/166/29 128/175/29 130/178/29 120/167/29
f 122/169/30 126/173/30 131/179/30 119/166/30
f 119/166/31 131/179/31 132/180/31 133/181/31
f 134/182/32 135/183/32 136/184/32
f 131/179/2 137/185/2 134/182/2 132/180/2
f 128/175/33 119/166/33 133/181/33 135/183/33
f 137/185/34 128/175/34 135/183/34 134/182/34
f 138/186/35 139/187/35 140/188/35
f 132/180/36 134/182/36 136/184/36 139/187/36
f 135/183/37 133/181/37 138/186/37 136/184/37
f 133/181/38 132/180/38 139/187/38 138/186/38
f 139/187/39 136/184/39 140/188/39
f 136/184/40 138/186/40 140/188/40
o Cylinder_Cylinder.011
v 0.139937 -3.044224 -0.778400
v 1.336989 -3.044224 -0.778400
v 1.336989 -3.219049 -1.081206
v 0.139937 -3.219049 -1.081206
v 1.336989 -3.568698 -1.081207
v 0.139937 -3.568699 -1.081207
v 1.336989 -3.743524 -0.778401
v 0.139937 -3.743524 -0.778401
v 1.336989 -3.568698 -0.475595
v 0.139937 -3.568699 -0.475595
v 1.336989 -3.219049 -0.778401
v 1.336989 -3.568698 -0.778401
v 1.336989 -3.219049 -0.475595
v 0.139937 -3.219049 -0.475596
v -1.643500 -3.044224 -0.778401
v -1.643500 -3.219049 -0.778402
v -1.643500 -3.219049 -0.475596
v -0.579268 -3.219049 -0.475596
v -0.579268 -3.044224 -0.778400
v -0.579268 -3.568699 -0.475596
v 0.139937 -67.392197 -0.475595
v 0.139937 -67.567024 -0.778401
v -0.579268 -3.743524 -0.778401
v -0.579268 -67.567024 -0.778401
v -0.579268 -67.392197 -0.475595
v -0.579268 -3.219049 -1.081206
v -0.579268 -3.568699 -1.081207
v -1.643500 -3.219049 -1.081208
v -1.643500 -3.568699 -1.081207
v -1.643500 -3.743524 -0.778402
v -1.643500 -3.568699 -0.475596
v -0.579268 -67.392197 -1.081206
v 0.139937 -67.392197 -1.081206
v -1.643500 -3.568699 -0.778402
vt 1.000000 0.910560
vt 1.000000 1.000000
vt 0.833333 1.000000
vt 0.833333 0.910560
vt 0.666667 1.000000
vt 0.666667 0.910560
vt 0.500000 1.000000
vt 0.500000 0.910560
vt 0.333333 1.000000
vt 0.333333 0.910560
vt 0.457846 0.370000
vt 0.250000 0.370000
vt 0.250000 0.130000
vt 0.457846 0.130000
vt 0.166667 1.000000
vt 0.166667 0.910560
vt -0.000000 1.000000
vt -0.000000 0.910560
vt 0.750000 0.490000
vt 0.750000 0.370000
vt 0.542154 0.370000
vt 0.166667 0.856823
vt -0.000000 0.856823
vt 0.333333 0.856823
vt 0.333333 0.910560
vt 0.500000 0.910560
vt 0.500000 0.856823
vt 0.500000 0.856823
vt 0.333333 0.856823
vt 0.833333 0.856823
vt 0.666667 0.856823
vt 1.000000 0.856823
vt 1.000000 0.500000
vt 0.833333 0.500000
vt 0.666667 0.500000
vt 0.500000 0.500000
vt 0.333333 0.500000
vt 0.166667 0.500000
vt -0.000000 0.500000
vt 0.666667 0.856823
vt 0.666667 0.910560
vt 0.250000 0.010000
vt 0.042154 0.130000
vt 0.042154 0.370000
vt 0.250000 0.490000
vt 0.750000 0.010000
vt 0.750000 0.130000
vt 0.957846 0.130000
vt 0.957846 0.370000
vt 0.542154 0.130000
vn 0.0000 0.8660 -0.5000
vn 0.0000 0.0000 -1.0000
vn 0.0000 -0.8660 -0.5000
vn 0.0000 -0.8660 0.5000
vn 1.0000 0.0000 0.0000
vn -0.0000 0.0000 1.0000
vn -0.0000 0.8660 0.5000
vn -1.0000 0.0000 0.0000
usemtl Default_OBJ.036
s 1
f 141/189/52 142/190/52 143/191/52 144/192/52
f 144/192/53 143/191/53 145/193/53 146/194/53
f 146/194/54 145/193/54 147/195/54 148/196/54
f 148/196/55 147/195/55 149/197/55 150/198/55
f 143/199/56 151/200/56 152/201/56 145/202/56
f 150/198/57 149/197/57 153/203/57 154/204/57
f 154/204/58 153/203/58 142/205/58 141/206/58
f 155/207/59 156/208/59 157/209/59
f 158/210/58 154/204/58 141/206/58 159/211/58
f 160/212/57 150/198/57 154/204/57 158/210/57
f 148/196/56 150/198/56 161/213/56 162/214/56
f 160/212/59 163/215/59 164/216/59 165/217/59
f 166/218/53 144/192/53 146/194/53 167/219/53
f 159/220/52 141/189/52 144/192/52 166/218/52
f 155/221/52 159/220/52 166/218/52 168/222/52
f 168/222/53 166/218/53 167/219/53 169/223/53
f 169/223/54 167/219/54 163/215/54 170/224/54
f 170/224/55 163/215/55 160/212/55 171/225/55
f 171/225/57 160/212/57 158/210/57 157/226/57
f 157/226/58 158/210/58 159/211/58 155/227/58
f 164/216/55 162/214/55 161/213/55 165/217/55
f 172/228/54 173/229/54 162/214/54 164/216/54
f 150/198/57 160/212/57 165/217/57 161/213/57
f 167/219/53 146/194/53 173/229/53 172/228/53
f 163/215/59 167/219/59 172/228/59 164/216/59
f 146/194/56 148/196/56 162/214/56 173/229/56
f 147/230/56 152/201/56 149/231/56
f 149/231/56 152/201/56 151/200/56 153/232/56
f 145/202/56 152/201/56 147/230/56
f 151/200/56 143/199/56 142/233/56
f 153/232/56 151/200/56 142/233/56
f 170/234/59 174/235/59 169/236/59
f 169/236/59 174/235/59 156/208/59 168/237/59
f 171/238/59 174/235/59 170/234/59
f 168/237/59 156/208/59 155/207/59
f 157/209/59 156/208/59 174/235/59 171/238/59
