# Blender v3.1.2 OBJ File: ''
# www.blender.org
mtllib DrumSet_BassDrumBeaterHolder.mtl
o Converted_object_0(m0).001_Converted_object_0(m0).002
v -1.403435 5.159824 1.315488
v -1.403435 5.230405 1.098263
v -1.403435 5.529389 1.315488
v -1.725765 5.159824 1.315488
v -1.725765 5.529389 1.315488
v -1.725765 5.230405 1.098263
v -1.403435 5.415188 0.964011
v -1.725765 5.415188 0.964011
v -1.403435 5.643592 0.964011
v -1.725765 5.643592 0.964011
v -1.403435 5.828375 1.098263
v -1.725765 5.828375 1.098263
v -1.403435 5.898955 1.315488
v -1.725765 5.898955 1.315488
v -1.403435 5.828372 1.532713
v -1.725765 5.828372 1.532713
v -1.403435 5.643589 1.666965
v -1.725765 5.643589 1.666965
v -1.403435 5.415184 1.666965
v -1.725765 5.415184 1.666965
v -1.403435 5.230402 1.532713
v -1.725765 5.230402 1.532713
v 1.696565 5.159824 1.315488
v 1.696565 5.230405 1.098263
v 1.696565 5.529389 1.315488
v 1.374235 5.159824 1.315488
v 1.374235 5.529389 1.315488
v 1.374235 5.230405 1.098263
v 1.696565 5.415188 0.964011
v 1.374235 5.415188 0.964011
v 1.696565 5.643592 0.964011
v 1.374235 5.643592 0.964011
v 1.696565 5.828375 1.098263
v 1.374235 5.828375 1.098263
v 1.696565 5.898955 1.315488
v 1.374235 5.898955 1.315488
v 1.696565 5.828372 1.532713
v 1.374235 5.828372 1.532713
v 1.696565 5.643589 1.666965
v 1.374235 5.643589 1.666965
v 1.696565 5.415184 1.666965
v 1.374235 5.415184 1.666965
v 1.696565 5.230402 1.532713
v 1.374235 5.230402 1.532713
v -1.701847 5.486698 1.580786
v -1.701847 -0.003869 1.745197
v -1.420107 5.486698 1.580786
v -1.420107 -0.003869 1.745197
v -1.420107 5.486698 1.042172
v -1.420107 -0.003869 0.877754
v -1.701847 5.486698 1.042172
v -1.701847 -0.003869 0.877754
v 1.397158 5.486698 1.580786
v 1.397158 -0.003869 1.745197
v 1.678897 5.486698 1.580786
v 1.678897 -0.003869 1.745197
v 1.678897 5.486698 1.042172
v 1.678897 -0.003869 0.877754
v 1.397158 5.486698 1.042172
v 1.397158 -0.003869 0.877754
v -0.950211 0.468595 9.096956
v -0.950211 0.003479 9.096956
v 0.950211 0.468595 9.096956
v 0.950211 0.003479 9.096956
v 1.787990 0.468599 0.684064
v 1.787990 0.003483 0.684064
v -1.787990 0.468599 0.684064
v -1.787990 0.003483 0.684064
v -0.180271 5.213015 -0.012185
v -0.180271 0.756634 1.435776
v 0.180271 5.213015 -0.012185
v 0.180271 0.756634 1.435776
v 0.180271 5.124726 -0.283916
v 0.180271 0.668344 1.164046
v -0.180271 5.124726 -0.283916
v -0.180271 0.668344 1.164046
vt 0.000000 1.000000
vt 0.000000 1.000000
vt 0.000000 1.000000
vt 0.000000 1.000000
vt 0.000000 1.000000
vt 0.000000 1.000000
vt 0.000000 0.000000
vt 0.100000 0.000000
vt 0.100000 1.000000
vt 0.000000 1.000000
vt 0.000000 1.000000
vt 0.200000 1.000000
vt 0.200000 0.000000
vt 0.000000 1.000000
vt 0.000000 1.000000
vt 0.300000 0.000000
vt 0.300000 1.000000
vt 0.000000 1.000000
vt 0.000000 1.000000
vt 0.400000 1.000000
vt 0.400000 0.000000
vt 0.000000 1.000000
vt 0.000000 1.000000
vt 0.500000 0.000000
vt 0.500000 1.000000
vt 0.000000 1.000000
vt 0.000000 1.000000
vt 0.600000 1.000000
vt 0.600000 0.000000
vt 0.000000 1.000000
vt 0.000000 1.000000
vt 0.700000 0.000000
vt 0.700000 1.000000
vt 0.000000 1.000000
vt 0.000000 1.000000
vt 0.800000 1.000000
vt 0.800000 0.000000
vt 0.000000 1.000000
vt 0.000000 1.000000
vt 0.900000 0.000000
vt 0.900000 1.000000
vt 1.000000 1.000000
vt 1.000000 0.000000
vt 0.000000 1.000000
vt 0.000000 1.000000
vt 0.000000 1.000000
vt 0.000000 1.000000
vt 0.000000 1.000000
vt 0.000000 1.000000
vt 0.000000 0.000000
vt 0.100000 0.000000
vt 0.100000 1.000000
vt 0.000000 1.000000
vt 0.000000 1.000000
vt 0.200000 1.000000
vt 0.200000 0.000000
vt 0.000000 1.000000
vt 0.000000 1.000000
vt 0.300000 0.000000
vt 0.300000 1.000000
vt 0.000000 1.000000
vt 0.000000 1.000000
vt 0.400000 1.000000
vt 0.400000 0.000000
vt 0.000000 1.000000
vt 0.000000 1.000000
vt 0.500000 0.000000
vt 0.500000 1.000000
vt 0.000000 1.000000
vt 0.000000 1.000000
vt 0.600000 1.000000
vt 0.600000 0.000000
vt 0.000000 1.000000
vt 0.000000 1.000000
vt 0.700000 0.000000
vt 0.700000 1.000000
vt 0.000000 1.000000
vt 0.000000 1.000000
vt 0.800000 1.000000
vt 0.800000 0.000000
vt 0.000000 1.000000
vt 0.000000 1.000000
vt 0.900000 0.000000
vt 0.900000 1.000000
vt 1.000000 1.000000
vt 1.000000 0.000000
vt 0.000000 1.000000
vt 0.000000 0.000000
vt 1.000000 1.000000
vt 1.000000 0.000000
vt 0.000000 1.000000
vt 0.000000 0.000000
vt 1.000000 1.000000
vt 1.000000 0.000000
vt 0.000000 1.000000
vt 0.000000 0.000000
vt 1.000000 1.000000
vt 1.000000 0.000000
vt 0.000000 1.000000
vt 0.000000 0.000000
vt 1.000000 1.000000
vt 1.000000 0.000000
vt 0.000000 0.000000
vt 1.000000 0.000000
vt 0.000000 1.000000
vt 1.000000 1.000000
vt 0.000000 1.000000
vt 0.000000 0.000000
vt 1.000000 1.000000
vt 1.000000 0.000000
vt 0.000000 1.000000
vt 0.000000 0.000000
vt 1.000000 1.000000
vt 1.000000 0.000000
vt 0.000000 1.000000
vt 0.000000 0.000000
vt 1.000000 1.000000
vt 1.000000 0.000000
vt 0.000000 1.000000
vt 0.000000 0.000000
vt 1.000000 1.000000
vt 1.000000 0.000000
vt 0.000000 0.000000
vt 1.000000 0.000000
vt 0.000000 1.000000
vt 1.000000 1.000000
vt 0.000000 1.000000
vt 0.000000 0.000000
vt 1.000000 1.000000
vt 1.000000 0.000000
vt 0.000000 1.000000
vt 0.000000 0.000000
vt 1.000000 1.000000
vt 1.000000 0.000000
vt 0.000000 1.000000
vt 0.000000 0.000000
vt 1.000000 1.000000
vt 1.000000 0.000000
vt 0.000000 1.000000
vt 0.000000 0.000000
vt 1.000000 1.000000
vt 1.000000 0.000000
vt 0.000000 0.000000
vt 1.000000 0.000000
vt 0.000000 1.000000
vt 1.000000 1.000000
vt 0.000000 1.000000
vt 0.000000 0.000000
vt 1.000000 1.000000
vt 1.000000 0.000000
vt 0.000000 1.000000
vt 0.000000 0.000000
vt 1.000000 1.000000
vt 1.000000 0.000000
vt 0.000000 1.000000
vt 0.000000 0.000000
vt 1.000000 1.000000
vt 1.000000 0.000000
vt 0.000000 1.000000
vt 0.000000 0.000000
vt 1.000000 1.000000
vt 1.000000 0.000000
vt 0.000000 0.000000
vt 1.000000 0.000000
vt 0.000000 1.000000
vt 1.000000 1.000000
vn 1.0000 -0.0000 0.0000
vn -1.0000 -0.0000 0.0000
vn 0.0000 -1.0000 -0.0000
vn 0.0000 -0.8090 -0.5878
vn 0.0000 -0.3090 -0.9511
vn 0.0000 0.3090 -0.9511
vn 0.0000 0.8090 -0.5878
vn 0.0000 1.0000 0.0000
vn 0.0000 0.8090 0.5878
vn 0.0000 0.3090 0.9511
vn 0.0000 -0.3090 0.9511
vn 0.0000 -0.8090 0.5878
vn 0.0000 0.0299 0.9996
vn 0.0000 0.0299 -0.9996
vn 0.0000 0.0000 1.0000
vn 0.9951 0.0000 0.0991
vn 0.0000 0.0000 -1.0000
vn -0.9951 0.0000 0.0991
vn 0.0000 0.9511 -0.3090
vn 0.0000 -0.9511 0.3090
usemtl Material.012
s 1
f 1/1/1 2/2/1 3/3/1
f 4/4/2 5/5/2 6/6/2
f 1/7/3 4/4/3 2/8/4
f 4/4/3 6/9/4 2/8/4
f 2/2/1 7/10/1 3/3/1
f 6/6/2 5/5/2 8/11/2
f 2/8/4 6/9/4 8/12/5
f 2/8/4 8/12/5 7/13/5
f 7/10/1 9/14/1 3/3/1
f 8/11/2 5/5/2 10/15/2
f 7/13/5 8/12/5 9/16/6
f 8/12/5 10/17/6 9/16/6
f 9/14/1 11/18/1 3/3/1
f 10/15/2 5/5/2 12/19/2
f 9/16/6 10/17/6 12/20/7
f 9/16/6 12/20/7 11/21/7
f 11/18/1 13/22/1 3/3/1
f 12/19/2 5/5/2 14/23/2
f 11/21/7 12/20/7 13/24/8
f 12/20/7 14/25/8 13/24/8
f 13/22/1 15/26/1 3/3/1
f 14/23/2 5/5/2 16/27/2
f 13/24/8 14/25/8 16/28/9
f 13/24/8 16/28/9 15/29/9
f 15/26/1 17/30/1 3/3/1
f 16/27/2 5/5/2 18/31/2
f 15/29/9 16/28/9 17/32/10
f 16/28/9 18/33/10 17/32/10
f 17/30/1 19/34/1 3/3/1
f 18/31/2 5/5/2 20/35/2
f 17/32/10 18/33/10 20/36/11
f 17/32/10 20/36/11 19/37/11
f 19/34/1 21/38/1 3/3/1
f 20/35/2 5/5/2 22/39/2
f 19/37/11 20/36/11 21/40/12
f 20/36/11 22/41/12 21/40/12
f 21/38/1 1/1/1 3/3/1
f 22/39/2 5/5/2 4/4/2
f 21/40/12 22/41/12 4/42/3
f 21/40/12 4/42/3 1/43/3
f 23/44/1 24/45/1 25/46/1
f 26/47/2 27/48/2 28/49/2
f 23/50/3 26/47/3 24/51/4
f 26/47/3 28/52/4 24/51/4
f 24/45/1 29/53/1 25/46/1
f 28/49/2 27/48/2 30/54/2
f 24/51/4 28/52/4 30/55/5
f 24/51/4 30/55/5 29/56/5
f 29/53/1 31/57/1 25/46/1
f 30/54/2 27/48/2 32/58/2
f 29/56/5 30/55/5 31/59/6
f 30/55/5 32/60/6 31/59/6
f 31/57/1 33/61/1 25/46/1
f 32/58/2 27/48/2 34/62/2
f 31/59/6 32/60/6 34/63/7
f 31/59/6 34/63/7 33/64/7
f 33/61/1 35/65/1 25/46/1
f 34/62/2 27/48/2 36/66/2
f 33/64/7 34/63/7 35/67/8
f 34/63/7 36/68/8 35/67/8
f 35/65/1 37/69/1 25/46/1
f 36/66/2 27/48/2 38/70/2
f 35/67/8 36/68/8 38/71/9
f 35/67/8 38/71/9 37/72/9
f 37/69/1 39/73/1 25/46/1
f 38/70/2 27/48/2 40/74/2
f 37/72/9 38/71/9 39/75/10
f 38/71/9 40/76/10 39/75/10
f 39/73/1 41/77/1 25/46/1
f 40/74/2 27/48/2 42/78/2
f 39/75/10 40/76/10 42/79/11
f 39/75/10 42/79/11 41/80/11
f 41/77/1 43/81/1 25/46/1
f 42/78/2 27/48/2 44/82/2
f 41/80/11 42/79/11 43/83/12
f 42/79/11 44/84/12 43/83/12
f 43/81/1 23/44/1 25/46/1
f 44/82/2 27/48/2 26/47/2
f 43/83/12 44/84/12 26/85/3
f 43/83/12 26/85/3 23/86/3
f 45/87/13 46/88/13 47/89/13
f 46/88/13 48/90/13 47/89/13
f 47/91/1 48/92/1 49/93/1
f 48/92/1 50/94/1 49/93/1
f 49/95/14 50/96/14 51/97/14
f 50/96/14 52/98/14 51/97/14
f 51/99/2 52/100/2 45/101/2
f 52/100/2 46/102/2 45/101/2
f 51/99/8 45/103/8 49/93/8
f 45/103/8 47/104/8 49/93/8
f 46/105/3 52/100/3 48/106/3
f 52/100/3 50/94/3 48/106/3
f 53/107/13 54/108/13 55/109/13
f 54/108/13 56/110/13 55/109/13
f 55/111/1 56/112/1 57/113/1
f 56/112/1 58/114/1 57/113/1
f 57/115/14 58/116/14 59/117/14
f 58/116/14 60/118/14 59/117/14
f 59/119/2 60/120/2 53/121/2
f 60/120/2 54/122/2 53/121/2
f 59/119/8 53/123/8 57/113/8
f 53/123/8 55/124/8 57/113/8
f 54/125/3 60/120/3 56/126/3
f 60/120/3 58/114/3 56/126/3
f 61/127/15 62/128/15 63/129/15
f 62/128/15 64/130/15 63/129/15
f 63/131/16 64/132/16 65/133/16
f 64/132/16 66/134/16 65/133/16
f 65/135/17 66/136/17 67/137/17
f 66/136/17 68/138/17 67/137/17
f 67/139/18 68/140/18 61/141/18
f 68/140/18 62/142/18 61/141/18
f 67/139/8 61/143/8 65/133/8
f 61/143/8 63/144/8 65/133/8
f 62/145/3 68/140/3 64/146/3
f 68/140/3 66/134/3 64/146/3
f 69/147/10 70/148/10 71/149/10
f 70/148/10 72/150/10 71/149/10
f 71/151/1 72/152/1 73/153/1
f 72/152/1 74/154/1 73/153/1
f 73/155/5 74/156/5 75/157/5
f 74/156/5 76/158/5 75/157/5
f 75/159/2 76/160/2 69/161/2
f 76/160/2 70/162/2 69/161/2
f 75/159/19 69/163/19 73/153/19
f 69/163/19 71/164/19 73/153/19
f 70/165/20 76/160/20 72/166/20
f 76/160/20 74/154/20 72/166/20
o Converted_object_0(m1).001_Converted_object_0(m1).002
v -0.623434 0.819472 8.607917
v -0.769671 0.440070 8.963454
v 0.623434 0.819472 8.607917
v 0.769671 0.440070 8.963454
v 0.769671 0.819472 7.687387
v 0.950211 0.440070 7.560422
v -0.769671 0.819472 7.687387
v -0.950211 0.440070 7.560422
vt 0.000000 1.000000
vt 0.000000 0.000000
vt 1.000000 1.000000
vt 1.000000 0.000000
vt 0.000000 1.000000
vt 0.000000 0.000000
vt 1.000000 1.000000
vt 1.000000 0.000000
vt 0.000000 1.000000
vt 0.000000 0.000000
vt 1.000000 1.000000
vt 1.000000 0.000000
vt 0.000000 1.000000
vt 0.000000 0.000000
vt 1.000000 1.000000
vt 1.000000 0.000000
vt 0.000000 0.000000
vt 1.000000 0.000000
vt 0.000000 1.000000
vt 1.000000 1.000000
vn -0.4201 0.8407 0.3416
vn -0.5802 -0.2943 0.7595
vn 0.4074 0.8447 0.3471
vn 0.5749 -0.2956 0.7630
vn 0.4699 0.7617 -0.4461
vn 0.7070 -0.3775 -0.5980
vn -0.4789 0.7600 -0.4393
vn -0.7125 -0.3751 -0.5930
usemtl Material.013
s 1
f 77/167/21 78/168/22 79/169/23
f 78/168/22 80/170/24 79/169/23
f 79/171/23 80/172/24 81/173/25
f 80/172/24 82/174/26 81/173/25
f 81/175/25 82/176/26 83/177/27
f 82/176/26 84/178/28 83/177/27
f 83/179/27 84/180/28 77/181/21
f 84/180/28 78/182/22 77/181/21
f 83/179/27 77/183/21 81/173/25
f 77/183/21 79/184/23 81/173/25
f 78/185/22 84/180/28 80/186/24
f 84/180/28 82/174/26 80/186/24
