# Blender v3.1.2 OBJ File: 'guiro-idontwannamodeltherigdesbecausethatmighttakesomanyfaces.blend'
# www.blender.org
mtllib DrumSet_Guiro.mtl
o Circle
v -4.093344 0.000000 -1.625062
v -4.093344 -1.149092 -1.149092
v -4.093344 -1.625062 0.000000
v -4.093344 -1.149092 1.149092
v -4.093344 0.000000 1.625062
v -4.093344 1.149092 1.149093
v -4.093344 1.625062 -0.000000
v -4.093344 1.149093 -1.149092
v 4.019445 0.000000 -1.625062
v 4.019445 -1.149092 -1.149092
v 4.019445 -1.625062 0.000000
v 4.019445 -1.149092 1.149092
v 4.019445 0.000000 1.625062
v 4.019445 1.149092 1.149093
v 4.019445 1.625062 -0.000000
v 4.019445 1.149093 -1.149092
v 6.399881 -0.000000 -1.170234
v 6.399881 -0.827480 -0.827480
v 6.399881 -1.170234 0.000000
v 6.399881 -0.827480 0.827480
v 6.399881 0.000000 1.170234
v 6.399881 0.827480 0.827480
v 6.399881 1.170234 -0.000000
v 6.399881 0.827480 -0.827480
v 7.714789 0.000000 -0.634189
v 7.714789 -0.448439 -0.448439
v 7.714789 -0.634189 0.000000
v 7.714789 -0.448439 0.448439
v 7.714789 0.000000 0.634189
v 7.714789 0.448439 0.448439
v 7.714789 0.634189 0.000000
v 7.714789 0.448439 -0.448439
v -5.372986 -0.000000 -1.249192
v -5.372986 -0.883312 -0.883313
v -5.372986 -1.249193 0.000000
v -5.372986 -0.883312 0.883313
v -5.372986 0.000000 1.249192
v -5.372986 0.883312 0.883313
v -5.372986 1.249192 -0.000000
v -5.372986 0.883313 -0.883312
v -7.254663 0.000000 -0.525645
v -7.254663 -0.371687 -0.371687
v -7.254663 -0.525645 0.000000
v -7.254663 -0.371687 0.371687
v -7.254663 0.000000 0.525645
v -7.254663 0.371687 0.371687
v -7.254663 0.525645 0.000000
v -7.254663 0.371687 -0.371687
v -9.272367 0.000000 -0.525645
v -9.272367 -0.371687 -0.371687
v -9.272367 -0.525645 0.000000
v -9.272367 -0.371687 0.371687
v -9.272367 0.000000 0.525645
v -9.272367 0.371687 0.371687
v -9.272367 0.525645 0.000000
v -9.272367 0.371687 -0.371687
v -11.426096 0.000000 -1.102458
v -11.426096 -0.779556 -0.779556
v -11.426096 -1.102458 0.000000
v -11.426096 -0.779556 0.779556
v -11.426096 0.000000 1.102458
v -11.426096 0.779556 0.779556
v -11.426096 1.102458 -0.000000
v -11.426096 0.779556 -0.779556
v -11.766158 0.000000 -1.102458
v -11.766158 -0.779556 -0.779556
v -11.766158 -1.102458 0.000000
v -11.766158 -0.779556 0.779556
v -11.766158 0.000000 1.102458
v -11.766158 0.779556 0.779556
v -11.766158 1.102458 -0.000000
v -11.766158 0.779556 -0.779556
v 7.714789 0.000000 -0.000000
v -11.766158 0.000000 0.000000
vt 0.695470 0.271349
vt 0.805445 0.271349
vt 0.791824 0.728454
vt 0.686061 0.728454
vt 0.086219 0.271349
vt 0.202859 0.271349
vt 0.215857 0.728454
vt 0.101712 0.728454
vt 0.404127 0.271349
vt 0.498915 0.271349
vt 0.500257 0.728454
vt 0.410640 0.728454
vt 0.594805 0.271349
vt 0.590560 0.728454
vt 0.930464 0.271349
vt 0.913239 0.728454
vt 0.306855 0.271349
vt 0.317391 0.728454
vt 0.499956 0.882415
vt 0.441071 0.882415
vt 0.618609 0.882415
vt 0.558932 0.882415
vt 0.743080 0.882415
vt 0.679742 0.882415
vt 0.381775 0.882415
vt 0.321630 0.882415
vt 0.261194 0.882415
vt 0.423685 0.904673
vt 0.418134 0.904673
vt 0.500534 0.904673
vt 0.471591 0.904673
vt 0.556078 0.904673
vt 0.529502 0.904673
vt 0.580440 0.904673
vt 0.576129 0.904673
vt 0.444824 0.904673
vt 0.668927 0.249205
vt 0.762300 0.249205
vt 0.140969 0.249205
vt 0.232310 0.249205
vt 0.407847 0.249205
vt 0.493591 0.249205
vt 0.580039 0.249205
vt 0.864531 0.249205
vt 0.321221 0.249205
vt 0.663643 0.177970
vt 0.712662 0.177970
vt 0.332329 0.177970
vt 0.387019 0.177970
vt 0.443300 0.177970
vt 0.500088 0.177970
vt 0.556415 0.177970
vt 0.611302 0.177970
vt 0.280915 0.177970
vt 0.451586 0.103501
vt 0.500163 0.103501
vt 0.548194 0.103501
vt 0.596097 0.103501
vt 0.644697 0.103501
vt 0.695310 0.103501
vt 0.351913 0.103501
vt 0.402217 0.103501
vt 0.300064 0.103501
vt 0.583969 0.052731
vt 0.641467 0.052731
vt 0.245764 0.052731
vt 0.352131 0.052731
vt 0.460873 0.052731
vt 0.500554 0.052731
vt 0.539720 0.052731
vt 0.736314 0.052731
vt 0.414729 0.052731
vt 0.421932 0.031666
vt 0.463215 0.031666
vt 0.499267 0.031666
vt 0.534767 0.031666
vt 0.574274 0.031666
vt 0.624771 0.031666
vt 0.280347 0.031666
vt 0.368660 0.031666
vt 0.711280 0.031666
vt 0.501268 0.914691
vt 0.499093 0.002466
vn 0.0000 -0.3827 0.9239
vn -0.0000 -0.9239 -0.3827
vn 0.0000 0.9239 -0.3827
vn 0.0000 0.3827 0.9239
vn -0.0000 -0.9239 0.3827
vn 0.0000 -0.3827 -0.9239
vn 0.0000 0.3827 -0.9239
vn 0.0000 0.9239 0.3827
vn 0.1738 0.9098 -0.3769
vn 0.1738 0.3769 0.9098
vn 0.1738 -0.9098 0.3769
vn 0.1738 -0.3769 -0.9098
vn 0.1738 0.3769 -0.9098
vn 0.1738 0.9098 0.3769
vn 0.1738 -0.3769 0.9098
vn 0.1738 -0.9098 -0.3769
vn 0.3525 -0.8646 -0.3581
vn 0.3525 0.8646 -0.3581
vn 0.3525 0.3581 0.8646
vn 0.3525 -0.8646 0.3581
vn 0.3525 -0.3581 -0.8646
vn 0.3525 0.3581 -0.8646
vn 0.3525 0.8646 0.3581
vn 0.3525 -0.3581 0.8646
vn -0.2619 -0.3693 0.8916
vn -0.2619 -0.8916 -0.3693
vn -0.2619 0.8916 -0.3693
vn -0.2619 0.3693 0.8916
vn -0.2619 -0.8916 0.3693
vn -0.2619 -0.3693 -0.8916
vn -0.2619 0.3693 -0.8916
vn -0.2619 0.8916 0.3693
vn -0.3348 -0.8706 0.3606
vn -0.3348 -0.3606 -0.8706
vn -0.3348 0.3606 -0.8706
vn -0.3348 0.8706 0.3606
vn -0.3348 -0.3606 0.8706
vn -0.3348 -0.8706 -0.3606
vn -0.3348 0.8706 -0.3606
vn -0.3348 0.3606 0.8706
vn 0.2402 -0.3715 0.8968
vn 0.2402 -0.8968 -0.3715
vn 0.2402 0.8968 -0.3715
vn 0.2402 0.3715 0.8968
vn 0.2402 -0.8968 0.3715
vn 0.2402 -0.3715 -0.8968
vn 0.2402 0.3715 -0.8968
vn 0.2402 0.8968 0.3715
vn 1.0000 0.0000 0.0000
vn -1.0000 -0.0000 0.0000
usemtl Material.001
s off
f 5/1/1 4/2/1 12/3/1 13/4/1
f 3/5/2 2/6/2 10/7/2 11/8/2
f 8/9/3 7/10/3 15/11/3 16/12/3
f 6/13/4 5/1/4 13/4/4 14/14/4
f 4/2/5 3/15/5 11/16/5 12/3/5
f 2/6/6 1/17/6 9/18/6 10/7/6
f 1/17/7 8/9/7 16/12/7 9/18/7
f 7/10/8 6/13/8 14/14/8 15/11/8
f 16/12/9 15/11/9 23/19/9 24/20/9
f 14/14/10 13/4/10 21/21/10 22/22/10
f 12/3/11 11/16/11 19/23/11 20/24/11
f 10/7/12 9/18/12 17/25/12 18/26/12
f 9/18/13 16/12/13 24/20/13 17/25/13
f 15/11/14 14/14/14 22/22/14 23/19/14
f 13/4/15 12/3/15 20/24/15 21/21/15
f 11/8/16 10/7/16 18/26/16 19/27/16
f 19/27/17 18/26/17 26/28/17 27/29/17
f 24/20/18 23/19/18 31/30/18 32/31/18
f 22/22/19 21/21/19 29/32/19 30/33/19
f 20/24/20 19/23/20 27/34/20 28/35/20
f 18/26/21 17/25/21 25/36/21 26/28/21
f 17/25/22 24/20/22 32/31/22 25/36/22
f 23/19/23 22/22/23 30/33/23 31/30/23
f 21/21/24 20/24/24 28/35/24 29/32/24
f 4/2/25 5/1/25 37/37/25 36/38/25
f 2/6/26 3/5/26 35/39/26 34/40/26
f 7/10/27 8/9/27 40/41/27 39/42/27
f 5/1/28 6/13/28 38/43/28 37/37/28
f 3/15/29 4/2/29 36/38/29 35/44/29
f 1/17/30 2/6/30 34/40/30 33/45/30
f 8/9/31 1/17/31 33/45/31 40/41/31
f 6/13/32 7/10/32 39/42/32 38/43/32
f 35/44/33 36/38/33 44/46/33 43/47/33
f 33/45/34 34/40/34 42/48/34 41/49/34
f 40/41/35 33/45/35 41/49/35 48/50/35
f 38/43/36 39/42/36 47/51/36 46/52/36
f 36/38/37 37/37/37 45/53/37 44/46/37
f 34/40/38 35/39/38 43/54/38 42/48/38
f 39/42/39 40/41/39 48/50/39 47/51/39
f 37/37/40 38/43/40 46/52/40 45/53/40
f 47/51/3 48/50/3 56/55/3 55/56/3
f 45/53/4 46/52/4 54/57/4 53/58/4
f 43/47/5 44/46/5 52/59/5 51/60/5
f 41/49/6 42/48/6 50/61/6 49/62/6
f 48/50/7 41/49/7 49/62/7 56/55/7
f 46/52/8 47/51/8 55/56/8 54/57/8
f 44/46/1 45/53/1 53/58/1 52/59/1
f 42/48/2 43/54/2 51/63/2 50/61/2
f 52/59/41 53/58/41 61/64/41 60/65/41
f 50/61/42 51/63/42 59/66/42 58/67/42
f 55/56/43 56/55/43 64/68/43 63/69/43
f 53/58/44 54/57/44 62/70/44 61/64/44
f 51/60/45 52/59/45 60/65/45 59/71/45
f 49/62/46 50/61/46 58/67/46 57/72/46
f 56/55/47 49/62/47 57/72/47 64/68/47
f 54/57/48 55/56/48 63/69/48 62/70/48
f 64/68/7 57/72/7 65/73/7 72/74/7
f 62/70/8 63/69/8 71/75/8 70/76/8
f 60/65/1 61/64/1 69/77/1 68/78/1
f 58/67/2 59/66/2 67/79/2 66/80/2
f 63/69/3 64/68/3 72/74/3 71/75/3
f 61/64/4 62/70/4 70/76/4 69/77/4
f 59/71/5 60/65/5 68/78/5 67/81/5
f 57/72/6 58/67/6 66/80/6 65/73/6
f 26/28/49 73/82/49 27/29/49
f 30/33/49 73/82/49 31/30/49
f 27/34/49 73/82/49 28/35/49
f 66/80/50 67/79/50 74/83/50
f 31/30/49 73/82/49 32/31/49
f 32/31/49 73/82/49 25/36/49
f 28/35/49 73/82/49 29/32/49
f 73/82/49 30/33/49 29/32/49
f 73/82/49 26/28/49 25/36/49
f 71/75/50 74/83/50 70/76/50
f 65/73/50 74/83/50 72/74/50
f 69/77/50 74/83/50 68/78/50
f 72/74/50 74/83/50 71/75/50
f 68/78/50 74/83/50 67/81/50
f 74/83/50 65/73/50 66/80/50
f 70/76/50 74/83/50 69/77/50
