# Blender v3.1.2 OBJ File: 'surdo.blend'
# www.blender.org
mtllib DrumSet_Cuica.mtl
o DrumSet_Tom
v 5.014806 -9.997043 -0.000003
v 5.014806 0.004683 -0.000001
v -0.002876 0.004683 -0.000001
v 4.632860 0.004683 1.920183
v 3.545161 0.004682 3.548038
v 1.768442 -9.997044 4.276340
v 1.917308 0.004682 4.635735
v -0.002876 -9.997044 4.628676
v -0.002876 0.004682 5.017683
v -3.550913 0.004682 3.548038
v -5.020558 -9.997043 -0.000003
v -3.550913 -9.997042 -3.548040
v -1.923061 0.004684 -4.635735
v -0.002876 -9.997042 -5.017684
v -0.002876 0.004684 -5.017682
v 1.917308 0.004684 -4.635735
v 3.545161 0.004684 -3.548038
v 4.273466 -9.997043 -1.771321
v 4.632860 0.004683 -1.920185
v 4.273466 -9.997043 1.771316
v 3.270093 -9.997044 3.272968
v -1.774195 -9.997044 4.276340
v -1.923061 0.004682 4.635735
v -3.275845 -9.997044 3.272969
v -4.279215 -9.997043 1.771316
v -4.638609 0.004683 1.920183
v -5.020558 0.004683 -0.000001
v -4.279215 -9.997043 -1.771321
v -4.638609 0.004683 -1.920185
v -3.550913 0.004684 -3.548038
v -1.774195 -9.997042 -4.276342
v 1.768442 -9.997042 -4.276342
v 3.270093 -9.997042 -3.272971
v 1.917308 -9.997044 4.635734
v -0.002876 -9.997044 5.017682
v 4.632860 -9.997043 1.920181
v 3.545161 -9.997044 3.548036
v 1.917308 -9.997042 -4.635736
v 3.545161 -9.997042 -3.548040
v 4.625801 -9.997043 -0.000003
v 4.632860 -9.997043 -1.920187
v -3.550913 -9.997044 3.548036
v -4.638609 -9.997043 1.920181
v -1.923061 -9.997044 4.635734
v -4.631553 -9.997043 -0.000003
v -4.638609 -9.997043 -1.920187
v -3.275845 -9.997042 -3.272972
v -1.923061 -9.997042 -4.635736
v -0.002876 -9.997042 -4.628678
v 4.625801 -0.510817 -0.000003
v -0.002876 -0.510817 -0.000003
v 1.768442 -0.510818 4.276340
v -0.002876 -0.510818 4.628676
v -4.631553 -0.510817 -0.000003
v -3.275845 -0.510816 -3.272971
v -0.002876 -0.510816 -4.628678
v 4.273466 -0.510817 -1.771321
v 3.270093 -0.510817 3.272969
v -1.774195 -0.510818 4.276340
v -3.275845 -0.510817 3.272969
v -4.279215 -0.510817 1.771316
v -4.279215 -0.510817 -1.771321
v -1.774195 -0.510816 -4.276342
v 1.768442 -0.510816 -4.276342
v 3.270093 -0.510816 -3.272971
v 4.273466 -0.510817 1.771316
v 0.000000 -0.499991 -0.218535
v 0.189257 -0.499991 -0.109268
v 0.189257 -0.499991 0.109268
v -0.000000 -0.499991 0.218536
v -0.189257 -0.499991 0.109268
v -0.189257 -0.499991 -0.109268
vt 0.516205 0.512670
vt 0.500564 0.517697
vt 0.484923 0.512670
vt 0.484923 0.502614
vt 0.500564 0.497586
vt 0.516205 0.502614
vt -0.001324 0.464857
vt -0.126501 0.464857
vt -0.126501 0.483467
vt -0.001324 0.483467
vt 0.996783 0.749612
vt 0.499777 0.749612
vt 0.958951 0.654607
vt 1.375626 0.464857
vt 1.250448 0.464857
vt 1.250448 0.483467
vt 1.375626 0.483467
vt 0.851213 0.574065
vt 0.123854 0.464857
vt 0.123854 0.483467
vt 0.689973 0.520248
vt 0.874917 0.464857
vt 0.749739 0.464857
vt 0.749739 0.483467
vt 0.874917 0.483467
vt 0.499777 0.501351
vt 0.499385 0.464857
vt 0.374208 0.464857
vt 0.374208 0.483467
vt 0.499385 0.483467
vt 0.309582 0.520248
vt 1.125272 0.464857
vt 1.125272 0.483467
vt 0.148341 0.574065
vt 0.624562 0.464857
vt 0.624562 0.483467
vt 0.040604 0.654607
vt 0.002771 0.749612
vt 1.500803 0.464857
vt 1.500803 0.483467
vt 0.040604 0.844618
vt 1.000094 0.464857
vt 1.000094 0.483467
vt 0.148341 0.925160
vt -0.376856 0.464857
vt -0.502033 0.464857
vt -0.502033 0.483467
vt -0.376856 0.483467
vt 0.309582 0.978976
vt 0.249031 0.464857
vt 0.249031 0.483467
vt 0.499777 0.997874
vt -0.251678 0.464857
vt -0.251678 0.483467
vt 0.689973 0.978976
vt 0.851213 0.925160
vt 0.958951 0.844618
vt 0.000322 0.002069
vt 0.000322 0.497609
vt 0.250124 0.002069
vt 0.250124 0.497609
vt 0.499926 0.497609
vt 0.499926 0.002069
vt 0.749728 0.002069
vt 0.749728 0.497609
vt 0.999531 0.497609
vt 0.999531 0.002069
vt 0.000322 0.002069
vt 0.000322 0.497609
vt 0.250124 0.002069
vt 0.250124 0.497609
vt 0.499926 0.497609
vt 0.499926 0.002069
vt 0.749728 0.002069
vt 0.749728 0.497609
vt 0.999531 0.497609
vt 0.999531 0.002069
vt 0.000322 0.002069
vt 0.000322 0.497609
vt 0.250124 0.002069
vt 0.250124 0.497609
vt 0.499926 0.497609
vt 0.499926 0.002069
vt 0.749728 0.002069
vt 0.749728 0.497609
vt 0.999531 0.497609
vt 0.999531 0.002069
vt 0.000322 0.002069
vt 0.000322 0.497609
vt 0.250124 0.002069
vt 0.250124 0.497609
vt 0.499926 0.497609
vt 0.499926 0.002069
vt 0.749728 0.002069
vt 0.749728 0.497609
vt 0.999531 0.497609
vt 0.999531 0.002069
vt 0.499777 0.520598
vt 0.324327 0.538030
vt 0.309582 0.520248
vt 0.499777 0.501351
vt 0.175587 0.587675
vt 0.076202 0.661972
vt 0.040604 0.654607
vt 0.148341 0.574065
vt 0.175587 0.911550
vt 0.324327 0.961194
vt 0.309582 0.978976
vt 0.148341 0.925160
vt 0.041302 0.749612
vt 0.076202 0.837252
vt 0.040604 0.844618
vt 0.002771 0.749612
vt 0.923353 0.661972
vt 0.823967 0.587675
vt 0.851213 0.574065
vt 0.958951 0.654607
vt 0.675228 0.538030
vt 0.689973 0.520248
vt 0.958252 0.749612
vt 0.996783 0.749612
vt 0.923353 0.837252
vt 0.958951 0.844618
vt 0.823967 0.911550
vt 0.851213 0.925160
vt 0.675228 0.961194
vt 0.689973 0.978976
vt 0.499777 0.978627
vt 0.499777 0.997874
vt 0.549357 0.478566
vt 0.545072 0.477679
vt 0.551676 0.472736
vt 0.541792 0.476039
vt 0.540017 0.473896
vt 0.540017 0.471577
vt 0.541792 0.469434
vt 0.545072 0.467794
vt 0.549357 0.466906
vt 0.553996 0.466906
vt 0.558281 0.467794
vt 0.561561 0.469434
vt 0.563336 0.471577
vt 0.563336 0.473896
vt 0.561561 0.476039
vt 0.558281 0.477679
vt 0.553996 0.478566
vn -0.0000 1.0000 -0.0000
vn 0.6571 -0.7538 -0.0000
vn 0.6071 -0.7538 0.2515
vn 0.6894 -0.6657 0.2856
vn 0.7462 -0.6657 -0.0000
vn 0.7462 0.6657 0.0000
vn 0.6894 0.6657 0.2856
vn -0.2515 -0.7538 0.6071
vn -0.4647 -0.7538 0.4647
vn -0.5276 -0.6657 0.5276
vn -0.2856 -0.6657 0.6894
vn 0.5276 0.6657 0.5276
vn 0.6071 -0.7538 -0.2515
vn 0.6894 -0.6657 -0.2856
vn 0.2856 0.6657 0.6894
vn -0.6071 -0.7538 -0.2515
vn -0.4647 -0.7538 -0.4647
vn -0.5276 -0.6657 -0.5276
vn -0.6894 -0.6657 -0.2856
vn 0.0000 0.6657 0.7462
vn -0.0000 -0.7538 -0.6571
vn 0.2515 -0.7538 -0.6071
vn 0.2856 -0.6657 -0.6894
vn -0.0000 -0.6657 -0.7462
vn -0.2856 0.6657 0.6894
vn -0.6071 -0.7538 0.2515
vn -0.6894 -0.6657 0.2856
vn -0.5276 0.6657 0.5276
vn -0.2515 -0.7538 -0.6071
vn -0.2856 -0.6657 -0.6894
vn -0.6894 0.6657 0.2856
vn -0.7462 0.6657 0.0000
vn -0.0000 -0.7538 0.6571
vn -0.0000 -0.6657 0.7462
vn -0.6894 0.6657 -0.2856
vn -0.6571 -0.7538 0.0000
vn -0.7462 -0.6657 -0.0000
vn -0.5276 0.6657 -0.5276
vn 0.2515 -0.7538 0.6071
vn 0.2856 -0.6657 0.6894
vn -0.2856 0.6657 -0.6894
vn 0.4647 -0.7538 -0.4647
vn 0.5276 -0.6657 -0.5276
vn 0.0000 0.6657 -0.7462
vn 0.4647 -0.7538 0.4647
vn 0.5276 -0.6657 0.5276
vn 0.2856 0.6657 -0.6894
vn 0.5276 0.6657 -0.5276
vn 0.6894 0.6657 -0.2856
vn -0.0000 -1.0000 -0.0000
usemtl Default_OBJ
s off
f 68/1/1 67/2/1 72/3/1 71/4/1 70/5/1 69/6/1
s 1
f 45/7/2 28/8/3 62/9/4 54/10/5
f 2/11/6 3/12/1 4/13/7
f 32/14/8 33/15/9 65/16/10 64/17/11
f 4/13/7 3/12/1 5/18/12
f 25/19/13 45/7/2 54/10/5 61/20/14
f 5/18/12 3/12/1 7/21/15
f 20/22/16 21/23/17 58/24/18 66/25/19
f 7/21/15 3/12/1 9/26/20
f 8/27/21 22/28/22 59/29/23 53/30/24
f 9/26/20 3/12/1 23/31/25
f 33/15/9 18/32/26 57/33/27 65/16/10
f 23/31/25 3/12/1 10/34/28
f 6/35/29 8/27/21 53/30/24 52/36/30
f 10/34/28 3/12/1 26/37/31
f 21/23/17 6/35/29 52/36/30 58/24/18
f 26/37/31 3/12/1 27/38/32
f 49/39/33 32/14/8 64/17/11 56/40/34
f 27/38/32 3/12/1 29/41/35
f 40/42/36 20/22/16 66/25/19 50/43/37
f 29/41/35 3/12/1 30/44/38
f 31/45/39 49/46/33 56/47/34 63/48/40
f 30/44/38 3/12/1 13/49/41
f 22/28/22 24/50/42 60/51/43 59/29/23
f 13/49/41 3/12/1 15/52/44
f 47/53/45 31/45/39 63/48/40 55/54/46
f 15/52/44 3/12/1 16/55/47
f 24/50/42 25/19/13 61/20/14 60/51/43
f 16/55/47 3/12/1 17/56/48
f 28/8/3 47/53/45 55/54/46 62/9/4
f 17/56/48 3/12/1 19/57/49
f 18/32/26 40/42/36 50/43/37 57/33/27
f 19/57/49 3/12/1 2/11/6
f 1/58/5 2/59/6 36/60/4
f 2/59/6 4/61/7 36/60/4
f 36/60/4 4/61/7 5/62/12
f 36/60/4 5/62/12 37/63/46
f 37/63/46 5/62/12 34/64/40
f 5/62/12 7/65/15 34/64/40
f 34/64/40 7/65/15 9/66/20
f 34/64/40 9/66/20 35/67/34
f 35/68/34 9/69/20 44/70/11
f 9/69/20 23/71/25 44/70/11
f 44/70/11 23/71/25 10/72/28
f 44/70/11 10/72/28 42/73/10
f 42/73/10 10/72/28 43/74/27
f 10/72/28 26/75/31 43/74/27
f 43/74/27 26/75/31 27/76/32
f 43/74/27 27/76/32 11/77/37
f 11/78/37 27/79/32 46/80/19
f 27/79/32 29/81/35 46/80/19
f 46/80/19 29/81/35 30/82/38
f 46/80/19 30/82/38 12/83/18
f 12/83/18 30/82/38 48/84/30
f 30/82/38 13/85/41 48/84/30
f 48/84/30 13/85/41 15/86/44
f 48/84/30 15/86/44 14/87/24
f 14/88/24 15/89/44 38/90/23
f 15/89/44 16/91/47 38/90/23
f 38/90/23 16/91/47 17/92/48
f 38/90/23 17/92/48 39/93/43
f 39/93/43 17/92/48 41/94/14
f 17/92/48 19/95/49 41/94/14
f 41/94/14 19/95/49 2/96/6
f 41/94/14 2/96/6 1/97/5
f 8/98/21 6/99/29 34/100/40 35/101/34
f 21/102/17 20/103/16 36/104/4 37/105/46
f 33/106/9 32/107/8 38/108/23 39/109/43
f 40/110/36 18/111/26 41/112/14 1/113/5
f 25/114/13 24/115/42 42/116/10 43/117/27
f 24/115/42 22/118/22 44/119/11 42/116/10
f 20/103/16 40/110/36 1/113/5 36/104/4
f 6/99/29 21/102/17 37/105/46 34/100/40
f 22/118/22 8/98/21 35/101/34 44/119/11
f 45/120/2 25/114/13 43/117/27 11/121/37
f 28/122/3 45/120/2 11/121/37 46/123/19
f 47/124/45 28/122/3 46/123/19 12/125/18
f 31/126/39 47/124/45 12/125/18 48/127/30
f 49/128/33 31/126/39 48/127/30 14/129/24
f 32/107/8 49/128/33 14/129/24 38/108/23
f 18/111/26 33/106/9 39/109/43 41/112/14
f 50/130/37 66/131/19 51/132/50
f 66/131/19 58/133/18 51/132/50
f 58/133/18 52/134/30 51/132/50
f 52/134/30 53/135/24 51/132/50
f 53/135/24 59/136/23 51/132/50
f 59/136/23 60/137/43 51/132/50
f 60/137/43 61/138/14 51/132/50
f 61/138/14 54/139/5 51/132/50
f 54/139/5 62/140/4 51/132/50
f 62/140/4 55/141/46 51/132/50
f 55/141/46 63/142/40 51/132/50
f 63/142/40 56/143/34 51/132/50
f 56/143/34 64/144/11 51/132/50
f 64/144/11 65/145/10 51/132/50
f 65/145/10 57/146/27 51/132/50
f 57/146/27 50/130/37 51/132/50
o DrumSet_Tom.001
v 0.000000 -9.560227 -0.218536
v 0.000000 -0.499991 -0.218535
v 0.189257 -9.560227 -0.109268
v 0.189257 -0.499991 -0.109268
v 0.189257 -9.560227 0.109268
v 0.189257 -0.499991 0.109268
v -0.000000 -9.560227 0.218535
v -0.000000 -0.499991 0.218536
v -0.189257 -9.560227 0.109268
v -0.189257 -0.499991 0.109268
v -0.189257 -9.560227 -0.109268
v -0.189257 -0.499991 -0.109268
v -0.000000 -9.560227 -0.000389
v -0.188586 -9.560227 -0.109656
vt 0.518479 0.191660
vt 0.518480 0.776706
vt 0.378105 0.776706
vt 0.378105 0.191660
vt 0.239338 0.776706
vt 0.239339 0.191660
vt 0.100475 0.776706
vt 0.100476 0.191660
vt 0.943476 0.191660
vt 0.943476 0.776706
vt 0.802899 0.776706
vt 0.802899 0.191660
vt 0.660637 0.776706
vt 0.660636 0.191660
vt 0.660217 0.191660
vt 0.434784 0.512367
vt 0.434784 0.562488
vt 0.391455 0.537383
vt 0.434784 0.612787
vt 0.478267 0.587682
vt 0.478267 0.537472
vt 0.391300 0.587682
vt 0.391300 0.537472
vn 0.5000 0.0000 -0.8660
vn 1.0000 0.0000 0.0000
vn 0.5000 -0.0000 0.8660
vn -0.5000 -0.0000 0.8660
vn -1.0000 0.0000 0.0000
vn -0.5000 0.0000 -0.8660
vn 0.0000 -1.0000 0.0000
usemtl Material.001
s off
f 73/147/51 74/148/51 76/149/51 75/150/51
f 75/150/52 76/149/52 78/151/52 77/152/52
f 77/152/53 78/151/53 80/153/53 79/154/53
f 79/155/54 80/156/54 82/157/54 81/158/54
f 81/158/55 82/157/55 84/159/55 83/160/55
f 83/160/56 84/159/56 74/148/56 73/147/56 86/161/56
f 73/162/57 85/163/57 86/164/57
f 79/165/57 85/163/57 77/166/57
f 77/166/57 85/163/57 75/167/57
f 86/164/57 85/163/57 81/168/57 83/169/57
f 75/167/57 85/163/57 73/162/57
f 81/168/57 85/163/57 79/165/57
