# created by: Biturn ver 0.88
# http://mirex.mypage.sk
# ------------------------------------
# 46 vertices, 88 polygons, 264 points, 2 materials




#-- object 'Converted object 0(m1)' --
# 46 vertices, 88 polygons, 264 points

g Converted object 0(m1)

# vertexs: 46
v -0.183434 -0.101043 -0.205865
v 0.185796 -0.101043 -0.205865
v -0.183434 -0.191196 -0.127495
v 0.185796 -0.191196 -0.127495
v -0.183434 -0.230087 -0.014548
v 0.185796 -0.230087 -0.014548
v -0.183434 -0.207294 0.102712
v 0.185796 -0.207294 0.102712
v -0.183434 -0.128925 0.192866
v 0.185796 -0.128925 0.192866
v -0.183434 -0.015977 0.231757
v 0.185796 -0.015977 0.231757
v -0.183434 0.101283 0.208964
v 0.185796 0.101283 0.208964
v -0.183434 0.278169 0.119076
v 0.185796 0.278169 0.119076
v -0.183434 0.230327 0.017647
v 0.185796 0.230327 0.017647
v -0.183434 0.207534 -0.099613
v 0.185796 0.207534 -0.099613
v -0.183434 0.129165 -0.189767
v 0.185796 0.129165 -0.189767
v -0.183434 0.016218 -0.228657
v 0.185796 0.016218 -0.228657
v 0.185796 0.000120 0.001550
v -0.183434 0.000120 0.001550
v -0.107831 0.402948 0.032682
v 0.110179 0.402948 0.032682
v 0.110179 0.375226 -0.027499
v -0.107831 0.375226 -0.027499
v -0.107805 0.832768 -0.176933
v 0.110152 0.832768 -0.176933
v 0.110152 0.805028 -0.237151
v -0.107805 0.805028 -0.237151
v -0.191889 1.275287 -0.385020
v 0.194236 1.275287 -0.385020
v 0.194236 1.241445 -0.457749
v -0.191889 1.241445 -0.457749
v -0.191911 1.490702 -0.568102
v 0.194258 1.490702 -0.568102
v 0.194258 1.439192 -0.629591
v -0.191911 1.439192 -0.629591
v -0.125509 1.593774 -0.727617
v 0.127856 1.593774 -0.727617
v 0.127856 1.514790 -0.741610
v -0.125509 1.514790 -0.741610

# normals: 264
vn -1.000000 0.000000 0.000000
vn -1.000000 0.000000 0.000000
vn -1.000000 0.000000 0.000000
vn 1.000000 0.000000 0.000000
vn 1.000000 0.000000 0.000000
vn 1.000000 0.000000 0.000000
vn 0.000000 -0.438371 -0.898794
vn 0.000000 -0.438371 -0.898794
vn 0.000000 -0.829038 -0.559192
vn 0.000000 -0.438371 -0.898794
vn 0.000000 -0.829038 -0.559192
vn 0.000000 -0.829038 -0.559192
vn -1.000000 0.000000 0.000000
vn -1.000000 0.000000 0.000000
vn -1.000000 0.000000 0.000000
vn 1.000000 0.000000 0.000000
vn 1.000000 0.000000 0.000000
vn 1.000000 0.000000 0.000000
vn 0.000000 -0.829038 -0.559192
vn 0.000000 -0.829038 -0.559192
vn 0.000000 -0.997564 -0.069755
vn 0.000000 -0.829038 -0.559192
vn 0.000000 -0.997564 -0.069755
vn 0.000000 -0.997564 -0.069755
vn -1.000000 0.000000 0.000000
vn -1.000000 0.000000 0.000000
vn -1.000000 0.000000 0.000000
vn 1.000000 0.000000 0.000000
vn 1.000000 0.000000 0.000000
vn 1.000000 0.000000 0.000000
vn 0.000000 -0.997564 -0.069755
vn 0.000000 -0.997564 -0.069755
vn 0.000000 -0.898794 0.438371
vn 0.000000 -0.997564 -0.069755
vn 0.000000 -0.898794 0.438371
vn 0.000000 -0.898794 0.438371
vn -1.000000 0.000000 0.000000
vn -1.000000 0.000000 0.000000
vn -1.000000 0.000000 0.000000
vn 1.000000 0.000000 0.000000
vn 1.000000 0.000000 0.000000
vn 1.000000 0.000000 0.000000
vn 0.000000 -0.898794 0.438371
vn 0.000000 -0.898794 0.438371
vn 0.000000 -0.559194 0.829037
vn 0.000000 -0.898794 0.438371
vn 0.000000 -0.559194 0.829037
vn 0.000000 -0.559194 0.829037
vn -1.000000 0.000000 0.000000
vn -1.000000 0.000000 0.000000
vn -1.000000 0.000000 0.000000
vn 1.000000 0.000000 0.000000
vn 1.000000 0.000000 0.000000
vn 1.000000 0.000000 0.000000
vn 0.000000 -0.559194 0.829037
vn 0.000000 -0.559194 0.829037
vn 0.000000 -0.069758 0.997564
vn 0.000000 -0.559194 0.829037
vn 0.000000 -0.069758 0.997564
vn 0.000000 -0.069758 0.997564
vn -1.000000 0.000000 0.000000
vn -1.000000 0.000000 0.000000
vn -1.000000 0.000000 0.000000
vn 1.000000 0.000000 0.000000
vn 1.000000 0.000000 0.000000
vn 1.000000 0.000000 0.000000
vn 0.000000 -0.069758 0.997564
vn 0.000000 -0.069758 0.997564
vn 0.000000 0.325060 0.945693
vn 0.000000 -0.069758 0.997564
vn 0.000000 0.325060 0.945693
vn 0.000000 0.325060 0.945693
vn -1.000000 0.000000 0.000000
vn -0.933493 0.341659 0.108902
vn -1.000000 0.000000 0.000000
vn 1.000000 0.000000 0.000000
vn 1.000000 0.000000 0.000000
vn 0.806419 0.431076 0.404799
vn 0.000000 0.325060 0.945693
vn 0.000000 0.325060 0.945693
vn 0.000000 0.453032 0.891494
vn 0.000000 0.325060 0.945693
vn 0.000000 0.453032 0.891494
vn 0.000000 0.453032 0.891494
vn -0.933493 0.341659 0.108902
vn -0.808027 -0.052653 -0.586788
vn -1.000000 0.000000 0.000000
vn 0.806419 0.431076 0.404799
vn 1.000000 0.000000 0.000000
vn 0.935342 0.127988 -0.329780
vn 0.000000 0.174445 -0.984667
vn 0.000000 0.174445 -0.984667
vn 0.000000 0.174445 -0.984667
vn 0.000000 0.174445 -0.984667
vn 0.000000 0.174445 -0.984667
vn 0.000000 0.174445 -0.984667
vn -0.808027 -0.052653 -0.586788
vn -1.000000 0.000000 0.000000
vn -1.000000 0.000000 0.000000
vn 0.935342 0.127988 -0.329780
vn 1.000000 0.000000 0.000000
vn 1.000000 0.000000 0.000000
vn 0.000000 0.981627 -0.190811
vn 0.000000 0.981627 -0.190811
vn 0.000000 0.898794 -0.438372
vn 0.000000 0.981627 -0.190811
vn 0.000000 0.898794 -0.438372
vn 0.000000 0.898794 -0.438372
vn -1.000000 0.000000 0.000000
vn -1.000000 0.000000 0.000000
vn -1.000000 0.000000 0.000000
vn 1.000000 0.000000 0.000000
vn 1.000000 0.000000 0.000000
vn 1.000000 0.000000 0.000000
vn 0.000000 0.898794 -0.438372
vn 0.000000 0.898794 -0.438372
vn 0.000000 0.559192 -0.829038
vn 0.000000 0.898794 -0.438372
vn 0.000000 0.559192 -0.829038
vn 0.000000 0.559192 -0.829038
vn -1.000000 0.000000 0.000000
vn -1.000000 0.000000 0.000000
vn -1.000000 0.000000 0.000000
vn 1.000000 0.000000 0.000000
vn 1.000000 0.000000 0.000000
vn 1.000000 0.000000 0.000000
vn 0.000000 0.559192 -0.829038
vn 0.000000 0.559192 -0.829038
vn 0.000000 0.069757 -0.997564
vn 0.000000 0.559192 -0.829038
vn 0.000000 0.069757 -0.997564
vn 0.000000 0.069757 -0.997564
vn -1.000000 0.000000 0.000000
vn -1.000000 0.000000 0.000000
vn -1.000000 0.000000 0.000000
vn 1.000000 0.000000 0.000000
vn 1.000000 0.000000 0.000000
vn 1.000000 0.000000 0.000000
vn 0.000000 0.069757 -0.997564
vn 0.000000 0.069757 -0.997564
vn 0.000000 -0.438371 -0.898794
vn 0.000000 0.069757 -0.997564
vn 0.000000 -0.438371 -0.898794
vn 0.000000 -0.438371 -0.898794
vn -0.684480 0.470193 0.557140
vn -0.933493 0.341659 0.108902
vn 0.806419 0.431076 0.404799
vn -0.684480 0.470193 0.557140
vn 0.806419 0.431076 0.404799
vn 0.658665 0.534637 0.529455
vn 0.658665 0.534637 0.529455
vn 0.806419 0.431076 0.404799
vn 0.935342 0.127988 -0.329780
vn 0.658665 0.534637 0.529455
vn 0.935342 0.127988 -0.329780
vn 0.686983 -0.148496 -0.711339
vn 0.686983 -0.148496 -0.711339
vn 0.935342 0.127988 -0.329780
vn -0.808027 -0.052653 -0.586788
vn 0.686983 -0.148496 -0.711339
vn -0.808027 -0.052653 -0.586788
vn -0.662086 -0.085065 -0.744585
vn -0.662086 -0.085065 -0.744585
vn -0.808027 -0.052653 -0.586788
vn -0.933493 0.341659 0.108902
vn -0.662086 -0.085065 -0.744585
vn -0.933493 0.341659 0.108902
vn -0.684480 0.470193 0.557140
vn -0.702035 0.235013 0.672247
vn -0.684480 0.470193 0.557140
vn 0.658665 0.534637 0.529455
vn -0.702035 0.235013 0.672247
vn 0.658665 0.534637 0.529455
vn 0.705091 0.268190 0.656445
vn 0.705091 0.268190 0.656445
vn 0.658665 0.534637 0.529455
vn 0.686983 -0.148496 -0.711339
vn 0.705091 0.268190 0.656445
vn 0.686983 -0.148496 -0.711339
vn 0.700432 -0.385580 -0.600602
vn 0.700432 -0.385580 -0.600602
vn 0.686983 -0.148496 -0.711339
vn -0.662086 -0.085065 -0.744585
vn 0.700432 -0.385580 -0.600602
vn -0.662086 -0.085065 -0.744585
vn -0.704207 -0.352529 -0.616292
vn -0.704207 -0.352529 -0.616292
vn -0.662086 -0.085065 -0.744585
vn -0.684480 0.470193 0.557140
vn -0.704207 -0.352529 -0.616292
vn -0.684480 0.470193 0.557140
vn -0.702035 0.235013 0.672247
vn -0.709437 0.319578 0.628147
vn -0.702035 0.235013 0.672247
vn 0.705091 0.268190 0.656445
vn -0.709437 0.319578 0.628147
vn 0.705091 0.268190 0.656445
vn 0.711526 0.338399 0.615806
vn 0.711526 0.338399 0.615806
vn 0.705091 0.268190 0.656445
vn 0.700432 -0.385580 -0.600602
vn 0.711526 0.338399 0.615806
vn 0.700432 -0.385580 -0.600602
vn 0.704948 -0.404250 -0.582779
vn 0.704948 -0.404250 -0.582779
vn 0.700432 -0.385580 -0.600602
vn -0.704207 -0.352529 -0.616292
vn 0.704948 -0.404250 -0.582779
vn -0.704207 -0.352529 -0.616292
vn -0.696025 -0.485108 -0.529358
vn -0.696025 -0.485108 -0.529358
vn -0.704207 -0.352529 -0.616292
vn -0.702035 0.235013 0.672247
vn -0.696025 -0.485108 -0.529358
vn -0.702035 0.235013 0.672247
vn -0.709437 0.319578 0.628147
vn -0.695658 0.626839 0.350903
vn -0.709437 0.319578 0.628147
vn 0.711526 0.338399 0.615806
vn -0.695658 0.626839 0.350903
vn 0.711526 0.338399 0.615806
vn 0.692814 0.610700 0.383477
vn 0.692814 0.610700 0.383477
vn 0.711526 0.338399 0.615806
vn 0.704948 -0.404250 -0.582779
vn 0.692814 0.610700 0.383477
vn 0.704948 -0.404250 -0.582779
vn 0.650897 -0.414284 -0.636162
vn 0.650897 -0.414284 -0.636162
vn 0.704948 -0.404250 -0.582779
vn -0.696025 -0.485108 -0.529358
vn 0.650897 -0.414284 -0.636162
vn -0.696025 -0.485108 -0.529358
vn -0.702965 -0.477887 -0.526749
vn -0.702965 -0.477887 -0.526749
vn -0.696025 -0.485108 -0.529358
vn -0.709437 0.319578 0.628147
vn -0.702965 -0.477887 -0.526749
vn -0.709437 0.319578 0.628147
vn -0.695658 0.626839 0.350903
vn -0.443242 0.825672 0.349002
vn -0.695658 0.626839 0.350903
vn 0.692814 0.610700 0.383477
vn -0.443242 0.825672 0.349002
vn 0.692814 0.610700 0.383477
vn 0.835952 0.544785 -0.066288
vn 0.835952 0.544785 -0.066288
vn 0.692814 0.610700 0.383477
vn 0.650897 -0.414284 -0.636162
vn 0.835952 0.544785 -0.066288
vn 0.650897 -0.414284 -0.636162
vn 0.366673 -0.655781 -0.659925
vn 0.366673 -0.655781 -0.659925
vn 0.650897 -0.414284 -0.636162
vn -0.702965 -0.477887 -0.526749
vn 0.366673 -0.655781 -0.659925
vn -0.702965 -0.477887 -0.526749
vn -0.820523 -0.187934 -0.539836
vn -0.820523 -0.187934 -0.539836
vn -0.702965 -0.477887 -0.526749
vn -0.695658 0.626839 0.350903
vn -0.820523 -0.187934 -0.539836
vn -0.695658 0.626839 0.350903
vn -0.443242 0.825672 0.349002

# texture coords: 264
vt 0.000000 1.000000
vt 0.000000 1.000000
vt 0.000000 1.000000
vt 0.000000 1.000000
vt 0.000000 1.000000
vt 0.000000 1.000000
vt 0.000000 0.000000
vt 0.000000 1.000000
vt 0.083333 0.000000
vt 0.000000 1.000000
vt 0.083333 1.000000
vt 0.083333 0.000000
vt 0.000000 1.000000
vt 0.000000 1.000000
vt 0.000000 1.000000
vt 0.000000 1.000000
vt 0.000000 1.000000
vt 0.000000 1.000000
vt 0.083333 0.000000
vt 0.083333 1.000000
vt 0.166667 1.000000
vt 0.083333 0.000000
vt 0.166667 1.000000
vt 0.166667 0.000000
vt 0.000000 1.000000
vt 0.000000 1.000000
vt 0.000000 1.000000
vt 0.000000 1.000000
vt 0.000000 1.000000
vt 0.000000 1.000000
vt 0.166667 0.000000
vt 0.166667 1.000000
vt 0.250000 0.000000
vt 0.166667 1.000000
vt 0.250000 1.000000
vt 0.250000 0.000000
vt 0.000000 1.000000
vt 0.000000 1.000000
vt 0.000000 1.000000
vt 0.000000 1.000000
vt 0.000000 1.000000
vt 0.000000 1.000000
vt 0.250000 0.000000
vt 0.250000 1.000000
vt 0.333333 1.000000
vt 0.250000 0.000000
vt 0.333333 1.000000
vt 0.333333 0.000000
vt 0.000000 1.000000
vt 0.000000 1.000000
vt 0.000000 1.000000
vt 0.000000 1.000000
vt 0.000000 1.000000
vt 0.000000 1.000000
vt 0.333333 0.000000
vt 0.333333 1.000000
vt 0.416667 0.000000
vt 0.333333 1.000000
vt 0.416667 1.000000
vt 0.416667 0.000000
vt 0.000000 1.000000
vt 0.000000 1.000000
vt 0.000000 1.000000
vt 0.000000 1.000000
vt 0.000000 1.000000
vt 0.000000 1.000000
vt 0.416667 0.000000
vt 0.416667 1.000000
vt 0.500000 1.000000
vt 0.416667 0.000000
vt 0.500000 1.000000
vt 0.500000 0.000000
vt 0.000000 1.000000
vt 0.000000 1.000000
vt 0.000000 1.000000
vt 0.000000 1.000000
vt 0.000000 1.000000
vt 0.000000 1.000000
vt 0.500000 0.000000
vt 0.500000 1.000000
vt 0.583333 0.000000
vt 0.500000 1.000000
vt 0.583333 1.000000
vt 0.583333 0.000000
vt 0.000000 1.000000
vt 0.000000 1.000000
vt 0.000000 1.000000
vt 0.000000 1.000000
vt 0.000000 1.000000
vt 0.000000 1.000000
vt 0.583333 0.000000
vt 0.583333 1.000000
vt 0.666667 1.000000
vt 0.583333 0.000000
vt 0.666667 1.000000
vt 0.666667 0.000000
vt 0.000000 1.000000
vt 0.000000 1.000000
vt 0.000000 1.000000
vt 0.000000 1.000000
vt 0.000000 1.000000
vt 0.000000 1.000000
vt 0.666667 0.000000
vt 0.666667 1.000000
vt 0.750000 0.000000
vt 0.666667 1.000000
vt 0.750000 1.000000
vt 0.750000 0.000000
vt 0.000000 1.000000
vt 0.000000 1.000000
vt 0.000000 1.000000
vt 0.000000 1.000000
vt 0.000000 1.000000
vt 0.000000 1.000000
vt 0.750000 0.000000
vt 0.750000 1.000000
vt 0.833333 1.000000
vt 0.750000 0.000000
vt 0.833333 1.000000
vt 0.833333 0.000000
vt 0.000000 1.000000
vt 0.000000 1.000000
vt 0.000000 1.000000
vt 0.000000 1.000000
vt 0.000000 1.000000
vt 0.000000 1.000000
vt 0.833333 0.000000
vt 0.833333 1.000000
vt 0.916667 0.000000
vt 0.833333 1.000000
vt 0.916667 1.000000
vt 0.916667 0.000000
vt 0.000000 1.000000
vt 0.000000 1.000000
vt 0.000000 1.000000
vt 0.000000 1.000000
vt 0.000000 1.000000
vt 0.000000 1.000000
vt 0.916667 0.000000
vt 0.916667 1.000000
vt 1.000000 1.000000
vt 0.916667 0.000000
vt 1.000000 1.000000
vt 1.000000 0.000000
vt 0.000000 1.000000
vt 0.000000 1.000000
vt 0.000000 1.000000
vt 0.000000 1.000000
vt 0.000000 1.000000
vt 0.000000 1.000000
vt 0.000000 1.000000
vt 0.000000 1.000000
vt 0.000000 1.000000
vt 0.000000 1.000000
vt 0.000000 1.000000
vt 0.000000 1.000000
vt 0.000000 1.000000
vt 0.000000 1.000000
vt 0.000000 1.000000
vt 0.000000 1.000000
vt 0.000000 1.000000
vt 0.000000 1.000000
vt 0.000000 1.000000
vt 0.000000 1.000000
vt 0.000000 1.000000
vt 0.000000 1.000000
vt 0.000000 1.000000
vt 0.000000 1.000000
vt 0.000000 1.000000
vt 0.000000 1.000000
vt 0.000000 1.000000
vt 0.000000 1.000000
vt 0.000000 1.000000
vt 0.000000 1.000000
vt 0.000000 1.000000
vt 0.000000 1.000000
vt 0.000000 1.000000
vt 0.000000 1.000000
vt 0.000000 1.000000
vt 0.000000 1.000000
vt 0.000000 1.000000
vt 0.000000 1.000000
vt 0.000000 1.000000
vt 0.000000 1.000000
vt 0.000000 1.000000
vt 0.000000 1.000000
vt 0.000000 1.000000
vt 0.000000 1.000000
vt 0.000000 1.000000
vt 0.000000 1.000000
vt 0.000000 1.000000
vt 0.000000 1.000000
vt 0.000000 1.000000
vt 0.000000 1.000000
vt 0.000000 1.000000
vt 0.000000 1.000000
vt 0.000000 1.000000
vt 0.000000 1.000000
vt 0.000000 1.000000
vt 0.000000 1.000000
vt 0.000000 1.000000
vt 0.000000 1.000000
vt 0.000000 1.000000
vt 0.000000 1.000000
vt 0.000000 1.000000
vt 0.000000 1.000000
vt 0.000000 1.000000
vt 0.000000 1.000000
vt 0.000000 1.000000
vt 0.000000 1.000000
vt 0.000000 1.000000
vt 0.000000 1.000000
vt 0.000000 1.000000
vt 0.000000 1.000000
vt 0.000000 1.000000
vt 0.000000 1.000000
vt 0.000000 1.000000
vt 0.000000 1.000000
vt 0.000000 1.000000
vt 0.000000 1.000000
vt 0.000000 1.000000
vt 0.000000 1.000000
vt 0.000000 1.000000
vt 0.000000 1.000000
vt 0.000000 1.000000
vt 0.000000 1.000000
vt 0.000000 1.000000
vt 0.000000 1.000000
vt 0.000000 1.000000
vt 0.000000 1.000000
vt 0.000000 1.000000
vt 0.000000 1.000000
vt 0.000000 1.000000
vt 0.000000 1.000000
vt 0.000000 1.000000
vt 0.000000 1.000000
vt 0.000000 1.000000
vt 0.000000 1.000000
vt 0.000000 1.000000
vt 0.000000 1.000000
vt 0.000000 1.000000
vt 0.000000 1.000000
vt 0.000000 1.000000
vt 0.000000 1.000000
vt 0.000000 1.000000
vt 0.000000 1.000000
vt 0.000000 1.000000
vt 0.000000 1.000000
vt 0.000000 1.000000
vt 0.000000 1.000000
vt 0.000000 1.000000
vt 0.000000 1.000000
vt 0.000000 1.000000
vt 0.000000 1.000000
vt 0.000000 1.000000
vt 0.000000 1.000000
vt 0.000000 1.000000
vt 0.000000 1.000000
vt 0.000000 1.000000
vt 0.000000 1.000000
vt 0.000000 1.000000
vt 0.000000 1.000000
vt 0.000000 1.000000
vt 0.000000 1.000000

# polygons: 88

f 1/1/1 3/2/2 26/3/3
f 2/4/4 25/5/5 4/6/6
f 1/7/7 2/8/8 3/9/9
f 2/10/10 4/11/11 3/12/12
f 3/13/13 5/14/14 26/15/15
f 4/16/16 25/17/17 6/18/18
f 3/19/19 4/20/20 6/21/21
f 3/22/22 6/23/23 5/24/24
f 5/25/25 7/26/26 26/27/27
f 6/28/28 25/29/29 8/30/30
f 5/31/31 6/32/32 7/33/33
f 6/34/34 8/35/35 7/36/36
f 7/37/37 9/38/38 26/39/39
f 8/40/40 25/41/41 10/42/42
f 7/43/43 8/44/44 10/45/45
f 7/46/46 10/47/47 9/48/48
f 9/49/49 11/50/50 26/51/51
f 10/52/52 25/53/53 12/54/54
f 9/55/55 10/56/56 11/57/57
f 10/58/58 12/59/59 11/60/60
f 11/61/61 13/62/62 26/63/63
f 12/64/64 25/65/65 14/66/66
f 11/67/67 12/68/68 14/69/69
f 11/70/70 14/71/71 13/72/72
f 13/73/73 15/74/74 26/75/75
f 14/76/76 25/77/77 16/78/78
f 13/79/79 14/80/80 15/81/81
f 14/82/82 16/83/83 15/84/84
f 15/85/85 17/86/86 26/87/87
f 16/88/88 25/89/89 18/90/90
f 43/91/91 44/92/92 45/93/93
f 43/94/94 45/95/95 46/96/96
f 17/97/97 19/98/98 26/99/99
f 18/100/100 25/101/101 20/102/102
f 17/103/103 18/104/104 19/105/105
f 18/106/106 20/107/107 19/108/108
f 19/109/109 21/110/110 26/111/111
f 20/112/112 25/113/113 22/114/114
f 19/115/115 20/116/116 22/117/117
f 19/118/118 22/119/119 21/120/120
f 21/121/121 23/122/122 26/123/123
f 22/124/124 25/125/125 24/126/126
f 21/127/127 22/128/128 23/129/129
f 22/130/130 24/131/131 23/132/132
f 23/133/133 1/134/134 26/135/135
f 24/136/136 25/137/137 2/138/138
f 23/139/139 24/140/140 2/141/141
f 23/142/142 2/143/143 1/144/144
f 27/145/145 15/146/146 16/147/147
f 27/148/148 16/149/149 28/150/150
f 28/151/151 16/152/152 18/153/153
f 28/154/154 18/155/155 29/156/156
f 29/157/157 18/158/158 17/159/159
f 29/160/160 17/161/161 30/162/162
f 30/163/163 17/164/164 15/165/165
f 30/166/166 15/167/167 27/168/168
f 31/169/169 27/170/170 28/171/171
f 31/172/172 28/173/173 32/174/174
f 32/175/175 28/176/176 29/177/177
f 32/178/178 29/179/179 33/180/180
f 33/181/181 29/182/182 30/183/183
f 33/184/184 30/185/185 34/186/186
f 34/187/187 30/188/188 27/189/189
f 34/190/190 27/191/191 31/192/192
f 35/193/193 31/194/194 32/195/195
f 35/196/196 32/197/197 36/198/198
f 36/199/199 32/200/200 33/201/201
f 36/202/202 33/203/203 37/204/204
f 37/205/205 33/206/206 34/207/207
f 37/208/208 34/209/209 38/210/210
f 38/211/211 34/212/212 31/213/213
f 38/214/214 31/215/215 35/216/216
f 39/217/217 35/218/218 36/219/219
f 39/220/220 36/221/221 40/222/222
f 40/223/223 36/224/224 37/225/225
f 40/226/226 37/227/227 41/228/228
f 41/229/229 37/230/230 38/231/231
f 41/232/232 38/233/233 42/234/234
f 42/235/235 38/236/236 35/237/237
f 42/238/238 35/239/239 39/240/240
f 43/241/241 39/242/242 40/243/243
f 43/244/244 40/245/245 44/246/246
f 44/247/247 40/248/248 41/249/249
f 44/250/250 41/251/251 45/252/252
f 45/253/253 41/254/254 42/255/255
f 45/256/256 42/257/257 46/258/258
f 46/259/259 42/260/260 39/261/261
f 46/262/262 39/263/263 43/264/264

# object end 'Converted object 0(m1)'
