# Blender 5.2.2 LTS
# www.blender.org
o Cube.003
v -1.828080 -0.264796 0.471824
v -1.980444 -0.264796 0.471798
v -2.121199 -0.264796 0.413466
v -2.228918 -0.264796 0.305710
v -2.287200 -0.264796 0.164934
v -2.287174 -0.264796 0.012571
v -2.228842 -0.264796 -0.128185
v -2.121086 -0.264796 -0.235903
v -1.980310 -0.264796 -0.294186
v -1.827947 -0.264796 -0.294160
v -1.687191 -0.264796 -0.235828
v -1.579472 -0.264796 -0.128072
v -1.521190 -0.264796 0.012704
v -1.521216 -0.264796 0.165067
v -1.579548 -0.264796 0.305823
v -1.687304 -0.264796 0.413541
v -1.349557 -0.264796 -0.925957
v -1.202381 -0.264796 -0.864223
v -1.256808 -0.264796 -1.040668
v -1.133964 -0.264796 -0.944825
v -1.138209 -0.264796 -1.128498
v -1.046023 -0.264796 -1.003510
v -1.000033 -0.264796 -1.180336
v -0.945335 -0.264796 -1.035755
v -0.844762 -0.264796 -1.207598
v -0.835047 -0.264796 -1.055544
v 0.501607 -0.264796 -1.232544
v 0.554281 -0.264796 -1.091829
v 0.598019 -0.264796 -1.181638
v 0.614963 -0.264796 -1.110574
v -0.174332 -0.264796 -1.213616
v -0.143050 -0.264796 -1.067254
v 0.287691 -0.264796 -1.340987
v -0.052800 -0.264796 -1.305129
v -0.015157 -0.264795 -1.773273
v -0.202943 -0.264795 -1.772166
v -0.004320 -0.264795 -2.067820
v -0.177403 -0.264795 -2.106625
v 0.410824 -0.264795 -3.177669
v 0.237531 -0.264795 -3.250018
v 0.404453 -0.264795 -3.317815
v 0.353168 -0.264795 -3.342098
v 0.272807 -0.264795 -3.303490
v 0.413863 -0.264795 -3.243037
v -0.127871 -0.264796 -1.538648
v 0.075339 -0.264796 -1.553894
v 0.163286 -0.264796 -1.435391
v -0.050642 -0.264796 -1.385060
v -0.165407 -0.264796 -1.655407
v 0.017124 -0.264796 -1.659600
v -0.212655 -0.264795 -1.945390
v -0.029685 -0.264795 -1.918289
v -0.089544 -0.264796 -1.252561
v 0.394648 -0.264796 -1.286765
v -1.980443 0.266109 0.471797
v -1.828079 0.266109 0.471824
v -2.121198 0.266109 0.413466
v -2.228917 0.266109 0.305710
v -2.287200 0.266109 0.164934
v -2.287174 0.266109 0.012570
v -2.228842 0.266109 -0.128185
v -2.121086 0.266109 -0.235904
v -1.980310 0.266109 -0.294186
v -1.827947 0.266109 -0.294160
v -1.687191 0.266109 -0.235829
v -1.579472 0.266109 -0.128072
v -1.521190 0.266109 0.012703
v -1.521216 0.266109 0.165067
v -1.579548 0.266109 0.305822
v -1.687304 0.266109 0.413541
v -1.202381 0.266109 -0.864223
v -1.349557 0.266109 -0.925957
v -1.133964 0.266109 -0.944825
v -1.256808 0.266109 -1.040668
v -1.046023 0.266109 -1.003510
v -1.138209 0.266109 -1.128498
v -0.945335 0.266109 -1.035755
v -1.000032 0.266109 -1.180337
v -0.835046 0.266109 -1.055545
v -0.844762 0.266109 -1.207598
v 0.554281 0.266109 -1.091829
v 0.501607 0.266109 -1.232544
v -0.174332 0.266109 -1.213616
v -0.143050 0.266109 -1.067255
v 0.614963 0.266109 -1.110574
v 0.598019 0.266109 -1.181638
v -0.052800 0.266109 -1.305130
v 0.287691 0.266109 -1.340987
v -0.089543 0.266109 -1.252562
v 0.394649 0.266109 -1.286766
v -0.202943 0.266109 -1.772166
v -0.015157 0.266109 -1.773273
v -0.165407 0.266109 -1.655407
v 0.163286 0.266109 -1.435391
v -0.177403 0.266109 -2.106626
v -0.004320 0.266109 -2.067820
v -0.212655 0.266109 -1.945390
v -0.029685 0.266109 -1.918289
v 0.237531 0.266110 -3.250018
v 0.410825 0.266110 -3.177669
v 0.353169 0.266110 -3.342098
v 0.404453 0.266110 -3.317815
v 0.272807 0.266110 -3.303491
v 0.413863 0.266110 -3.243037
v -0.050642 0.266109 -1.385061
v -0.127871 0.266109 -1.538648
v 0.017125 0.266109 -1.659601
v 0.075340 0.266109 -1.553895
v -0.779444 -0.229832 -1.056995
v 0.498527 -0.229832 -1.090375
v -0.142899 -0.229832 -1.067258
v -0.779444 0.231145 -1.056995
v 0.498527 0.231145 -1.090375
v -0.142898 0.231145 -1.067259
v -0.778638 -0.229832 -1.007001
v 0.500328 -0.229832 -1.040407
v -0.141595 -0.229832 -1.017275
v -0.778638 0.231145 -1.007001
v 0.500328 0.231145 -1.040408
v -0.141595 0.231145 -1.017276
v -0.513553 -0.264796 0.461521
v -0.523606 -0.264796 0.664937
v 1.408050 -0.264795 0.538672
v 1.400427 -0.264796 0.403618
v 1.500985 -0.264795 0.303143
v 1.443381 -0.264796 0.310478
v 1.443724 -0.264796 0.383644
v 1.544391 -0.264796 0.419592
v 1.423938 -0.264796 0.399264
v 1.489011 -0.264796 0.521838
v 1.540650 -0.264796 0.486613
v 1.436943 -0.264796 0.394628
v -1.426564 -0.264796 0.432897
v -1.431686 -0.264795 0.645758
v -1.669740 -0.264796 0.447269
v -1.613080 -0.264795 0.641508
v -1.878240 -0.264796 0.508913
v -1.879416 -0.264796 0.637243
v -2.100192 -0.264796 0.457410
v -2.146150 -0.264796 0.601613
v -2.274693 -0.264796 0.278663
v -2.435432 -0.264796 0.369506
v -2.307962 -0.264796 0.017623
v -2.469045 -0.264796 -0.013950
v -2.191891 -0.264796 -0.208864
v -2.369330 -0.264796 -0.265702
v -2.198353 -0.264796 0.381245
v -2.311395 -0.264796 0.512175
v -2.308564 -0.264796 0.146569
v -2.485872 -0.264796 0.184765
v -2.270052 -0.264796 -0.101413
v -2.419550 -0.264796 -0.138640
v -1.989307 -0.264796 0.500178
v -2.024213 -0.264796 0.628177
v -1.768688 -0.264796 0.489483
v -1.749788 -0.264795 0.641920
v -1.437632 -0.264796 0.317371
v -1.564600 -0.264796 0.347029
v -1.437943 -0.264796 0.144485
v -1.485860 -0.264796 0.147888
v -1.437788 -0.264796 0.230928
v -1.512662 -0.264796 0.247018
v -1.439517 -0.264796 -0.026412
v -1.493351 -0.264796 -0.022589
v -1.438730 -0.264796 0.059036
v -1.479471 -0.264796 0.061810
v -1.768515 -0.264796 -1.485013
v -1.890351 -0.264795 -1.527650
v -1.595277 -0.264796 -1.563103
v -1.843091 -0.264795 -1.678858
v -1.613026 -0.264796 -1.825345
v -1.813093 -0.264795 -1.820977
v -1.596258 -0.264796 -1.707195
v -1.818462 -0.264795 -1.748943
v -1.694242 -0.264795 -2.502715
v -1.812149 -0.264795 -2.523985
v -1.298481 -0.264795 -3.277099
v -1.439756 -0.264795 -3.334472
v -1.463237 -0.264795 -2.897602
v -1.675155 -0.264795 -2.979774
v -1.780947 -0.264795 -2.676765
v -1.660180 -0.264795 -2.607283
v -1.352711 -0.264795 -3.098986
v -1.547804 -0.264795 -3.185532
v -1.318503 -0.264795 -3.336201
v -1.380645 -0.264795 -3.361438
v -1.556929 -0.264795 -2.747286
v -1.740220 -0.264795 -2.830263
v -1.702478 -0.264795 -2.414954
v -1.812272 -0.264795 -2.432958
v -1.812682 -0.264795 -2.126967
v -1.647712 -0.264795 -2.124233
v -1.681114 -0.264795 -2.277348
v -1.812477 -0.264795 -2.279963
v 1.400427 0.266109 0.403618
v -0.513553 0.266109 0.461521
v -0.523605 0.266109 0.664936
v 1.408050 0.266109 0.538672
v 1.423938 0.266109 0.399264
v 1.443724 0.266109 0.383644
v 1.544391 0.266109 0.419591
v 1.540651 0.266109 0.486613
v 1.489011 0.266109 0.521838
v 1.500985 0.266109 0.303143
v 1.436944 0.266109 0.394628
v 1.443382 0.266109 0.310478
v -1.426564 0.266109 0.432897
v -1.431685 0.266109 0.645758
v -1.669739 0.266109 0.447269
v -1.613080 0.266109 0.641508
v -1.878239 0.266109 0.508913
v -1.879415 0.266109 0.637242
v -1.768687 0.266109 0.489483
v -1.749788 0.266109 0.641919
v -2.100192 0.266109 0.457410
v -2.146150 0.266109 0.601613
v -1.989307 0.266109 0.500178
v -2.024213 0.266109 0.628177
v -2.274693 0.266109 0.278663
v -2.435432 0.266109 0.369506
v -2.198353 0.266109 0.381244
v -2.311395 0.266109 0.512175
v -2.307962 0.266109 0.017623
v -2.469045 0.266109 -0.013950
v -2.308564 0.266109 0.146569
v -2.485872 0.266109 0.184765
v -2.191890 0.266109 -0.208864
v -2.369329 0.266109 -0.265702
v -2.270052 0.266109 -0.101413
v -2.419550 0.266109 -0.138640
v -1.437632 0.266109 0.317371
v -1.564600 0.266109 0.347028
v -1.437943 0.266109 0.144484
v -1.485860 0.266109 0.147887
v -1.437787 0.266109 0.230928
v -1.512661 0.266109 0.247017
v -1.439517 0.266109 -0.026412
v -1.493351 0.266109 -0.022589
v -1.438730 0.266109 0.059036
v -1.479471 0.266109 0.061810
v -1.768515 0.266109 -1.485013
v -1.890350 0.266109 -1.527651
v -1.595277 0.266109 -1.563103
v -1.843091 0.266109 -1.678858
v -1.613026 0.266109 -1.825346
v -1.813093 0.266109 -1.820977
v -1.596258 0.266109 -1.707195
v -1.818462 0.266109 -1.748944
v -1.694242 0.266109 -2.502715
v -1.812149 0.266110 -2.523986
v -1.702478 0.266109 -2.414954
v -1.812682 0.266109 -2.126968
v -1.298480 0.266109 -3.277099
v -1.439755 0.266110 -3.334472
v -1.352711 0.266109 -3.098986
v -1.780947 0.266110 -2.676765
v -1.556929 0.266109 -2.747287
v -1.463236 0.266109 -2.897602
v -1.547803 0.266110 -3.185532
v -1.675155 0.266110 -2.979774
v -1.740220 0.266110 -2.830263
v -1.660180 0.266109 -2.607283
v -1.318503 0.266110 -3.336201
v -1.380645 0.266110 -3.361438
v -1.681114 0.266109 -2.277349
v -1.812271 0.266110 -2.432958
v -1.812477 0.266109 -2.279963
v -1.647712 0.266109 -2.124233
v -0.513526 -0.211705 0.411521
v 1.344297 -0.211705 0.355293
v -1.373046 -0.211705 0.384550
v 1.344297 0.218327 0.355293
v -0.513526 0.218327 0.411521
v -1.373046 0.218327 0.384550
v -0.513553 -0.211705 0.461521
v 1.345809 -0.211705 0.405270
v -1.374613 -0.211705 0.434526
v 1.345809 0.218327 0.405270
v -0.513553 0.218327 0.461521
v -1.374613 0.218327 0.434526
vn -0.0000 1.0000 -0.0000
vn -0.0000 -1.0000 -0.0000
vn 0.6919 -0.0000 0.7220
vn 0.4778 -0.0000 0.8785
vn -0.4342 -0.0000 -0.9008
vn -0.6652 -0.0000 -0.7467
vn 0.2632 -0.0000 0.9647
vn -0.2413 -0.0000 -0.9704
vn 0.0913 -0.0000 0.9958
vn -0.0971 -0.0000 -0.9953
vn -0.0261 -0.0000 -0.9997
vn -0.7903 -0.0000 0.6127
vn -0.9727 -0.0000 0.2319
vn -0.4596 -0.0000 0.8881
vn -0.2951 -0.0000 -0.9555
vn -0.1666 -0.0000 -0.9860
vn 0.2180 -0.0000 0.9759
vn 0.6409 -0.0000 0.7676
vn 0.9497 -0.0000 0.3132
vn -0.4522 -0.0000 0.8919
vn 0.9520 -0.0000 -0.3061
vn 0.9832 -0.0000 -0.1825
vn -0.7109 -0.0000 0.7033
vn -0.5305 -0.0000 0.8477
vn 0.9968 -0.0000 0.0795
vn 0.9606 -0.0000 0.2780
vn -0.9994 -0.0000 -0.0341
vn -0.9823 -0.0000 0.1872
vn 0.8935 -0.0000 0.4490
vn -0.9796 -0.0000 -0.2008
vn -0.9656 -0.0000 -0.2600
vn -0.1949 -0.0000 -0.9808
vn 0.1953 -0.0000 -0.9808
vn 0.0028 -0.0000 1.0000
vn -0.4280 -0.0000 0.9038
vn 0.5557 -0.0000 -0.8314
vn 0.6577 -0.0000 0.7533
vn 0.8316 -0.0000 -0.5554
vn -0.9992 -0.0000 0.0394
vn 0.9808 -0.0000 -0.1949
vn 0.9808 -0.0000 0.1953
vn -0.9922 -0.0000 0.1249
vn 0.8314 -0.0000 0.5557
vn 0.5554 -0.0000 0.8316
vn 0.9760 -0.0000 -0.2177
vn 0.9255 -0.0000 -0.3788
vn 0.1949 -0.0000 0.9808
vn -0.9249 -0.0000 0.3802
vn -0.8414 -0.0000 0.5404
vn 0.4451 -0.0000 0.8955
vn -0.7072 -0.0000 0.7070
vn -0.8316 -0.0000 0.5554
vn -0.9808 -0.0000 0.1949
vn -0.9808 -0.0000 -0.1953
vn -0.8314 -0.0000 -0.5557
vn -0.5554 -0.0000 -0.8316
vn 0.7875 -0.0000 0.6163
vn -0.7773 -0.0000 -0.6292
vn -0.7918 -0.0000 -0.6108
vn -0.0161 -0.0000 -0.9999
vn -0.0360 -0.0000 -0.9994
vn 0.0161 -0.0000 0.9999
vn 0.0360 -0.0000 0.9994
vn -0.9999 -0.0000 0.0161
vn 0.9994 -0.0000 -0.0360
vn 0.9995 -0.0000 -0.0302
vn 0.9792 -0.0000 0.2028
vn 0.7142 -0.0000 -0.7000
vn 0.9024 -0.0000 -0.4308
vn -1.0000 -0.0000 -0.0013
vn -0.9993 -0.0000 -0.0379
vn -0.6254 -0.0000 0.7803
vn -0.3479 -0.0000 0.9375
vn 0.9215 -0.0000 0.3883
vn 0.9999 -0.0000 -0.0155
vn 0.9924 -0.0000 -0.1229
vn 0.9878 -0.0000 0.1559
vn -0.9736 -0.0000 -0.2284
vn -0.9949 -0.0000 -0.1012
vn -0.9959 -0.0000 0.0909
vn -0.8818 -0.0000 0.4716
vn 0.8274 -0.0000 0.5617
vn 0.8630 -0.0000 0.5052
vn -0.8304 -0.0000 -0.5571
vn -0.8859 -0.0000 -0.4639
vn 0.8922 -0.0000 0.4516
vn 0.8895 -0.0000 0.4570
vn -0.9297 -0.0000 -0.3683
vn -0.9734 -0.0000 -0.2291
vn -0.9444 -0.0000 -0.3287
vn 0.4917 -0.0000 -0.8708
vn 0.8892 -0.0000 0.4575
vn -0.6331 -0.0000 -0.7740
vn 0.7277 -0.0000 -0.6859
vn -0.0211 -0.0000 -0.9998
vn -0.9325 -0.0000 -0.3612
vn -0.0485 -0.0000 -0.9988
vn 0.2214 -0.0000 -0.9752
vn -0.1381 -0.0000 0.9904
vn 0.9830 -0.0000 -0.1834
vn -0.5500 -0.0000 -0.8351
vn -0.2854 -0.0000 -0.9584
vn -0.0493 -0.0000 0.9988
vn -0.0165 -0.0000 0.9999
vn -0.1065 -0.0000 -0.9943
vn 0.0005 -0.0000 -1.0000
vn 0.9918 -0.0000 -0.1279
vn 0.9864 -0.0000 -0.1644
vn 0.9954 -0.0000 -0.0954
vn 0.9988 -0.0000 -0.0486
vn -0.7996 -0.0000 -0.6005
vn 0.0221 -0.0000 0.9998
vn 0.1347 -0.0000 0.9909
vn -0.2597 -0.0000 -0.9657
vn 1.0000 -0.0000 -0.0018
vn 1.0000 -0.0000 -0.0055
vn -0.9318 -0.0000 -0.3630
vn 0.8708 -0.0000 0.4916
vn 0.9887 -0.0000 -0.1500
vn 0.3911 -0.0000 0.9204
vn -0.9857 -0.0000 -0.1683
vn 0.9370 -0.0000 -0.3493
vn -0.6289 -0.0000 -0.7775
vn -0.0708 -0.0000 -0.9975
vn -1.0000 -0.0000 0.0047
vn -0.9626 -0.0000 -0.2708
vn 1.0000 -0.0000 -0.0092
vn -0.1263 -0.0000 -0.9920
vn -0.9990 -0.0000 0.0444
vn -0.9867 -0.0000 0.1623
vn 0.7426 -0.0000 0.6697
vn 0.0313 -0.0000 -0.9995
vn -0.9451 -0.0000 -0.3267
vn -0.0223 -0.0000 0.9998
vn 0.4109 -0.0000 0.9117
vn -0.9491 -0.0000 -0.3150
vn -0.0102 -0.0000 0.9999
vn 0.9973 -0.0000 -0.0738
vn -0.9788 -0.0000 -0.2047
vn 1.0000 -0.0000 -0.0068
vn -0.0303 -0.0000 -0.9995
vn 0.0314 -0.0000 -0.9995
vn 0.0302 -0.0000 0.9995
vn -0.0313 -0.0000 0.9995
vn -0.9995 -0.0000 -0.0313
vt 0.000000 0.000000
s 1
f 11/1/1 18/1/1 17/1/1 10/1/1
f 18/1/1 20/1/1 19/1/1 17/1/1
f 20/1/1 22/1/1 21/1/1 19/1/1
f 22/1/1 24/1/1 23/1/1 21/1/1
f 24/1/1 26/1/1 25/1/1 23/1/1
f 32/1/1 28/1/1 27/1/1 31/1/1
f 28/1/1 30/1/1 29/1/1 27/1/1
f 26/1/1 32/1/1 31/1/1 25/1/1
f 54/1/1 33/1/1 34/1/1 53/1/1
f 50/1/1 35/1/1 36/1/1 49/1/1
f 52/1/1 37/1/1 38/1/1 51/1/1
f 37/1/1 39/1/1 40/1/1 38/1/1
f 44/1/1 41/1/1 42/1/1 43/1/1
f 39/1/1 44/1/1 43/1/1 40/1/1
f 47/1/1 46/1/1 45/1/1 48/1/1
f 33/1/1 47/1/1 48/1/1 34/1/1
f 46/1/1 50/1/1 49/1/1 45/1/1
f 35/1/1 52/1/1 51/1/1 36/1/1
f 27/1/1 54/1/1 53/1/1 31/1/1
f 15/1/1 11/1/1 7/1/1
f 65/1/2 64/1/2 72/1/2 71/1/2
f 71/1/2 72/1/2 74/1/2 73/1/2
f 73/1/2 74/1/2 76/1/2 75/1/2
f 75/1/2 76/1/2 78/1/2 77/1/2
f 77/1/2 78/1/2 80/1/2 79/1/2
f 84/1/2 83/1/2 82/1/2 81/1/2
f 81/1/2 82/1/2 86/1/2 85/1/2
f 79/1/2 80/1/2 83/1/2 84/1/2
f 90/1/2 89/1/2 87/1/2 88/1/2
f 107/1/2 93/1/2 91/1/2 92/1/2
f 98/1/2 97/1/2 95/1/2 96/1/2
f 96/1/2 95/1/2 99/1/2 100/1/2
f 104/1/2 103/1/2 101/1/2 102/1/2
f 100/1/2 99/1/2 103/1/2 104/1/2
f 94/1/2 105/1/2 106/1/2 108/1/2
f 88/1/2 87/1/2 105/1/2 94/1/2
f 108/1/2 106/1/2 93/1/2 107/1/2
f 92/1/2 91/1/2 97/1/2 98/1/2
f 82/1/2 83/1/2 89/1/2 90/1/2
f 63/1/2 67/1/2 56/1/2
f 19/1/3 21/1/4 76/1/4 74/1/3
f 22/1/5 20/1/6 73/1/6 75/1/5
f 21/1/4 23/1/7 78/1/7 76/1/4
f 24/1/8 22/1/5 75/1/5 77/1/8
f 23/1/7 25/1/9 80/1/9 78/1/7
f 26/1/10 24/1/8 77/1/8 79/1/10
f 32/1/11 26/1/10 79/1/10 84/1/11
f 29/1/12 30/1/13 85/1/13 86/1/12
f 27/1/14 29/1/12 86/1/12 82/1/14
f 30/1/15 28/1/16 81/1/16 85/1/15
f 25/1/9 31/1/17 83/1/17 80/1/9
f 28/1/16 32/1/11 84/1/11 81/1/16
f 53/1/18 34/1/19 87/1/19 89/1/18
f 54/1/20 27/1/14 82/1/14 90/1/20
f 49/1/21 36/1/22 91/1/22 93/1/21
f 47/1/23 33/1/24 88/1/24 94/1/23
f 51/1/25 38/1/26 95/1/26 97/1/25
f 52/1/27 35/1/28 92/1/28 98/1/27
f 38/1/26 40/1/29 99/1/29 95/1/26
f 39/1/30 37/1/31 96/1/31 100/1/30
f 1/1/32 2/1/33 55/1/33 56/1/32
f 42/1/34 41/1/35 102/1/35 101/1/34
f 2/1/33 3/1/36 57/1/36 55/1/33
f 43/1/37 42/1/34 101/1/34 103/1/37
f 3/1/36 4/1/38 58/1/38 57/1/36
f 44/1/39 39/1/30 100/1/30 104/1/39
f 4/1/38 5/1/40 59/1/40 58/1/38
f 40/1/29 43/1/37 103/1/37 99/1/29
f 5/1/40 6/1/41 60/1/41 59/1/40
f 41/1/42 44/1/39 104/1/39 102/1/42
f 6/1/41 7/1/43 61/1/43 60/1/41
f 7/1/43 8/1/44 62/1/44 61/1/43
f 48/1/45 45/1/46 106/1/46 105/1/45
f 8/1/44 9/1/47 63/1/47 62/1/44
f 50/1/48 46/1/49 108/1/49 107/1/48
f 9/1/47 10/1/50 64/1/50 63/1/47
f 46/1/49 47/1/23 94/1/23 108/1/49
f 11/1/51 12/1/52 66/1/52 65/1/51
f 34/1/19 48/1/45 105/1/45 87/1/19
f 12/1/52 13/1/53 67/1/53 66/1/52
f 13/1/53 14/1/54 68/1/54 67/1/53
f 45/1/46 49/1/21 93/1/21 106/1/46
f 14/1/54 15/1/55 69/1/55 68/1/54
f 35/1/28 50/1/48 107/1/48 92/1/28
f 15/1/55 16/1/56 70/1/56 69/1/55
f 16/1/56 1/1/32 56/1/32 70/1/56
f 36/1/22 51/1/25 97/1/25 91/1/22
f 37/1/31 52/1/27 98/1/27 96/1/31
f 10/1/50 17/1/57 72/1/57 64/1/50
f 18/1/58 11/1/59 65/1/59 71/1/58
f 31/1/17 53/1/18 89/1/18 83/1/17
f 33/1/24 54/1/20 90/1/20 88/1/24
f 17/1/57 19/1/3 74/1/3 72/1/57
f 20/1/6 18/1/58 71/1/58 73/1/6
f 111/1/60 109/1/60 112/1/60 114/1/60
f 110/1/61 111/1/61 114/1/61 113/1/61
f 117/1/62 120/1/62 118/1/62 115/1/62
f 116/1/63 119/1/63 120/1/63 117/1/63
f 109/1/2 111/1/2 117/1/2 115/1/2
f 111/1/2 110/1/2 116/1/2 117/1/2
f 114/1/1 112/1/1 118/1/1 120/1/1
f 113/1/1 114/1/1 120/1/1 119/1/1
f 112/1/64 109/1/64 115/1/64 118/1/64
f 110/1/65 113/1/65 119/1/65 116/1/65
f 121/1/2 124/1/2 123/1/2 122/1/2
f 132/1/2 127/1/2 128/1/2 131/1/2
f 129/1/2 132/1/2 131/1/2 130/1/2
f 124/1/2 129/1/2 130/1/2 123/1/2
f 127/1/2 126/1/2 125/1/2 128/1/2
f 122/1/2 134/1/2 133/1/2 121/1/2
f 134/1/2 136/1/2 135/1/2 133/1/2
f 156/1/2 138/1/2 137/1/2 155/1/2
f 154/1/2 140/1/2 139/1/2 153/1/2
f 148/1/2 142/1/2 141/1/2 147/1/2
f 150/1/2 144/1/2 143/1/2 149/1/2
f 152/1/2 146/1/2 145/1/2 151/1/2
f 140/1/2 148/1/2 147/1/2 139/1/2
f 142/1/2 150/1/2 149/1/2 141/1/2
f 144/1/2 152/1/2 151/1/2 143/1/2
f 138/1/2 154/1/2 153/1/2 137/1/2
f 136/1/2 156/1/2 155/1/2 135/1/2
f 135/1/2 158/1/2 157/1/2 133/1/2
f 162/1/2 160/1/2 159/1/2 161/1/2
f 158/1/2 162/1/2 161/1/2 157/1/2
f 166/1/2 164/1/2 163/1/2 165/1/2
f 160/1/2 166/1/2 165/1/2 159/1/2
f 146/1/2 168/1/2 167/1/2 145/1/2
f 168/1/2 170/1/2 169/1/2 167/1/2
f 174/1/2 172/1/2 171/1/2 173/1/2
f 170/1/2 174/1/2 173/1/2 169/1/2
f 190/1/2 176/1/2 175/1/2 189/1/2
f 184/1/2 178/1/2 177/1/2 183/1/2
f 188/1/2 180/1/2 179/1/2 187/1/2
f 176/1/2 181/1/2 182/1/2 175/1/2
f 180/1/2 184/1/2 183/1/2 179/1/2
f 178/1/2 186/1/2 185/1/2 177/1/2
f 181/1/2 188/1/2 187/1/2 182/1/2
f 194/1/2 190/1/2 189/1/2 193/1/2
f 172/1/2 191/1/2 192/1/2 171/1/2
f 191/1/2 194/1/2 193/1/2 192/1/2
f 196/1/1 197/1/1 198/1/1 195/1/1
f 205/1/1 202/1/1 201/1/1 200/1/1
f 199/1/1 203/1/1 202/1/1 205/1/1
f 195/1/1 198/1/1 203/1/1 199/1/1
f 200/1/1 201/1/1 204/1/1 206/1/1
f 197/1/1 196/1/1 207/1/1 208/1/1
f 208/1/1 207/1/1 209/1/1 210/1/1
f 214/1/1 213/1/1 211/1/1 212/1/1
f 218/1/1 217/1/1 215/1/1 216/1/1
f 222/1/1 221/1/1 219/1/1 220/1/1
f 226/1/1 225/1/1 223/1/1 224/1/1
f 230/1/1 229/1/1 227/1/1 228/1/1
f 216/1/1 215/1/1 221/1/1 222/1/1
f 220/1/1 219/1/1 225/1/1 226/1/1
f 224/1/1 223/1/1 229/1/1 230/1/1
f 212/1/1 211/1/1 217/1/1 218/1/1
f 210/1/1 209/1/1 213/1/1 214/1/1
f 209/1/1 207/1/1 231/1/1 232/1/1
f 236/1/1 235/1/1 233/1/1 234/1/1
f 232/1/1 231/1/1 235/1/1 236/1/1
f 240/1/1 239/1/1 237/1/1 238/1/1
f 234/1/1 233/1/1 239/1/1 240/1/1
f 228/1/1 227/1/1 241/1/1 242/1/1
f 242/1/1 241/1/1 243/1/1 244/1/1
f 248/1/1 247/1/1 245/1/1 246/1/1
f 244/1/1 243/1/1 247/1/1 248/1/1
f 266/1/1 251/1/1 249/1/1 250/1/1
f 259/1/1 255/1/1 253/1/1 254/1/1
f 261/1/1 257/1/1 258/1/1 260/1/1
f 250/1/1 249/1/1 262/1/1 256/1/1
f 260/1/1 258/1/1 255/1/1 259/1/1
f 254/1/1 253/1/1 263/1/1 264/1/1
f 256/1/1 262/1/1 257/1/1 261/1/1
f 267/1/1 265/1/1 251/1/1 266/1/1
f 246/1/1 245/1/1 268/1/1 252/1/1
f 252/1/1 268/1/1 265/1/1 267/1/1
f 189/1/66 175/1/67 249/1/67 251/1/66
f 147/1/68 141/1/69 219/1/69 221/1/68
f 191/1/70 172/1/71 246/1/71 252/1/70
f 148/1/72 140/1/73 216/1/73 222/1/72
f 183/1/74 177/1/75 253/1/75 255/1/74
f 149/1/76 143/1/77 223/1/77 225/1/76
f 181/1/78 176/1/79 250/1/79 256/1/78
f 150/1/80 142/1/81 220/1/81 226/1/80
f 187/1/82 179/1/83 258/1/83 257/1/82
f 184/1/84 180/1/85 260/1/85 259/1/84
f 151/1/86 145/1/87 227/1/87 229/1/86
f 152/1/88 144/1/89 224/1/89 230/1/88
f 188/1/90 181/1/78 256/1/78 261/1/90
f 139/1/91 147/1/68 221/1/68 215/1/91
f 175/1/67 182/1/92 262/1/92 249/1/67
f 142/1/81 148/1/72 222/1/72 220/1/81
f 179/1/83 183/1/74 255/1/74 258/1/83
f 141/1/69 149/1/76 225/1/76 219/1/69
f 178/1/93 184/1/84 259/1/84 254/1/93
f 144/1/89 150/1/80 226/1/80 224/1/89
f 185/1/94 186/1/95 264/1/95 263/1/94
f 143/1/77 151/1/86 229/1/86 223/1/77
f 177/1/75 185/1/94 263/1/94 253/1/75
f 146/1/96 152/1/88 230/1/88 228/1/96
f 186/1/95 178/1/93 254/1/93 264/1/95
f 182/1/92 187/1/82 257/1/82 262/1/92
f 137/1/97 153/1/98 217/1/98 211/1/97
f 180/1/85 188/1/90 261/1/90 260/1/85
f 140/1/73 154/1/99 218/1/99 216/1/73
f 193/1/100 189/1/66 251/1/66 265/1/100
f 135/1/101 155/1/102 213/1/102 209/1/101
f 176/1/79 190/1/70 266/1/70 250/1/79
f 138/1/103 156/1/104 214/1/104 212/1/103
f 124/1/105 121/1/106 196/1/106 195/1/105
f 194/1/70 191/1/70 252/1/70 267/1/70
f 171/1/107 192/1/108 268/1/108 245/1/107
f 133/1/109 157/1/110 231/1/110 207/1/109
f 158/1/111 135/1/101 209/1/101 232/1/111
f 122/1/112 123/1/113 198/1/113 197/1/112
f 192/1/108 193/1/100 265/1/100 268/1/108
f 129/1/114 124/1/105 195/1/105 199/1/114
f 190/1/70 194/1/70 267/1/70 266/1/70
f 161/1/115 159/1/116 233/1/116 235/1/115
f 162/1/117 158/1/111 232/1/111 236/1/117
f 131/1/118 128/1/119 201/1/119 202/1/118
f 157/1/110 161/1/115 235/1/115 231/1/110
f 123/1/113 130/1/120 203/1/120 198/1/113
f 160/1/121 162/1/117 236/1/117 234/1/121
f 128/1/119 125/1/122 204/1/122 201/1/119
f 132/1/123 129/1/114 199/1/114 205/1/123
f 163/1/124 164/1/124 238/1/124 237/1/124
f 126/1/125 127/1/126 200/1/126 206/1/125
f 165/1/127 163/1/127 237/1/127 239/1/127
f 125/1/128 126/1/128 206/1/128 204/1/128
f 166/1/129 160/1/121 234/1/121 240/1/129
f 159/1/116 165/1/127 239/1/127 233/1/116
f 130/1/120 131/1/118 202/1/118 203/1/120
f 164/1/130 166/1/129 240/1/129 238/1/130
f 127/1/126 132/1/123 205/1/123 200/1/126
f 145/1/87 167/1/131 241/1/131 227/1/87
f 121/1/106 133/1/132 207/1/132 196/1/106
f 168/1/133 146/1/96 228/1/96 242/1/133
f 134/1/134 122/1/112 197/1/112 208/1/134
f 167/1/131 169/1/135 243/1/135 241/1/131
f 170/1/136 168/1/133 242/1/133 244/1/136
f 136/1/137 134/1/134 208/1/134 210/1/137
f 173/1/138 171/1/107 245/1/107 247/1/138
f 155/1/102 137/1/97 211/1/97 213/1/102
f 174/1/139 170/1/136 244/1/136 248/1/139
f 156/1/104 136/1/137 210/1/137 214/1/104
f 169/1/140 173/1/138 247/1/138 243/1/140
f 172/1/71 174/1/139 248/1/139 246/1/71
f 153/1/98 139/1/91 215/1/91 217/1/98
f 154/1/99 138/1/103 212/1/103 218/1/99
f 270/1/141 269/1/141 273/1/141 272/1/141
f 269/1/142 271/1/142 274/1/142 273/1/142
f 276/1/143 278/1/143 279/1/143 275/1/143
f 275/1/144 279/1/144 280/1/144 277/1/144
f 269/1/2 270/1/2 276/1/2 275/1/2
f 271/1/2 269/1/2 275/1/2 277/1/2
f 272/1/1 273/1/1 279/1/1 278/1/1
f 273/1/1 274/1/1 280/1/1 279/1/1
f 270/1/66 272/1/66 278/1/66 276/1/66
f 274/1/145 271/1/145 277/1/145 280/1/145
f 3/1/1 2/1/1 1/1/1
f 1/1/1 16/1/1 15/1/1
f 15/1/1 14/1/1 13/1/1
f 13/1/1 12/1/1 11/1/1
f 11/1/1 10/1/1 9/1/1
f 9/1/1 8/1/1 7/1/1
f 7/1/1 6/1/1 5/1/1
f 5/1/1 4/1/1 3/1/1
f 3/1/1 1/1/1 15/1/1
f 15/1/1 13/1/1 11/1/1
f 11/1/1 9/1/1 7/1/1
f 7/1/1 5/1/1 3/1/1
f 3/1/1 15/1/1 7/1/1
f 56/1/2 55/1/2 57/1/2
f 57/1/2 58/1/2 59/1/2
f 59/1/2 60/1/2 61/1/2
f 61/1/2 62/1/2 59/1/2
f 62/1/2 63/1/2 59/1/2
f 63/1/2 64/1/2 65/1/2
f 65/1/2 66/1/2 67/1/2
f 67/1/2 68/1/2 69/1/2
f 69/1/2 70/1/2 56/1/2
f 56/1/2 57/1/2 59/1/2
f 63/1/2 65/1/2 67/1/2
f 67/1/2 69/1/2 56/1/2
f 56/1/2 59/1/2 63/1/2
