# Blender v3.1.2 OBJ File: ''
# www.blender.org
mtllib HelicopterRotorCap.mtl
o Plane.005_Plane.010
v 42.679424 37.078434 -4.875611
v 39.878624 37.078434 -5.479243
v 37.151245 37.078434 -4.601604
v 35.228081 37.078434 -2.477857
v 34.624451 37.078434 0.322944
v 35.502090 37.078434 3.050324
v 37.625839 37.078434 4.973485
v 40.426636 37.078434 5.577116
v 43.154015 37.078434 4.699478
v 45.077179 37.078434 2.575731
v 45.680809 37.078434 -0.225066
v 44.803173 37.078434 -2.952449
v 39.918655 37.842163 -4.671582
v 42.310265 37.842163 -4.156139
v 37.589745 37.842163 -3.922164
v 35.947552 37.842163 -2.108695
v 35.432114 37.842163 0.282913
v 36.181530 37.842163 2.611825
v 37.994999 37.842163 4.254013
v 40.386604 37.842163 4.769456
v 42.715519 37.842163 4.020041
v 44.357704 37.842163 2.206570
v 44.873150 37.842163 -0.185036
v 44.123734 37.842163 -2.513950
v 39.990150 38.668079 -3.229155
v 40.064278 39.064129 -1.733637
v 40.967403 39.064129 -1.538996
v 41.650967 38.668079 -2.871215
v 38.372875 38.668079 -2.708732
v 39.184826 39.064129 -1.450642
v 37.232483 38.668079 -1.449395
v 38.564701 39.064129 -0.765831
v 36.874542 38.668079 0.211420
v 38.370060 39.064129 0.137291
v 37.394962 38.668079 1.828695
v 38.653057 39.064129 1.016743
v 38.654297 38.668079 2.969088
v 39.337864 39.064129 1.636871
v 40.315113 38.668079 3.327028
v 40.240990 39.064129 1.831514
v 41.932388 38.668079 2.806608
v 41.120438 39.064129 1.548516
v 43.072784 38.668079 1.547272
v 41.740566 39.064129 0.863708
v 43.430725 38.668079 -0.113539
v 41.935207 39.064129 -0.039414
v 42.910301 38.668079 -1.730820
v 41.652214 39.064129 -0.918866
v 40.749672 33.611759 -1.114554
v 40.749672 37.763535 -1.114554
v 41.458805 33.611759 -0.015779
v 41.458805 37.763535 -0.015779
v 40.861805 33.611759 1.147739
v 40.861805 37.763535 1.147738
v 39.555668 33.611759 1.212478
v 39.555668 37.763535 1.212477
v 38.846539 33.611759 0.113702
v 38.846539 37.763535 0.113702
v 39.443539 33.611759 -1.049813
v 39.443539 37.763535 -1.049814
vt 0.122532 0.212544
vt 0.134493 0.167902
vt 0.118153 0.196204
vt 0.178739 0.196204
vt 0.167616 0.205893
vt 0.170212 0.196204
vt 0.126667 0.182251
vt 0.122928 0.196204
vt 0.167174 0.224506
vt 0.175001 0.210157
vt 0.179135 0.212544
vt 0.134493 0.224506
vt 0.150834 0.224110
vt 0.150834 0.228884
vt 0.167174 0.167902
vt 0.175001 0.182251
vt 0.164786 0.172037
vt 0.122532 0.179864
vt 0.164786 0.220371
vt 0.126667 0.210157
vt 0.136881 0.220371
vt 0.179135 0.179864
vt 0.150834 0.163524
vt 0.136881 0.172037
vt 0.183514 0.196204
vt 0.150834 0.168298
vt 0.134051 0.205893
vt 0.141144 0.212986
vt 0.150834 0.176825
vt 0.134051 0.186515
vt 0.131455 0.196204
vt 0.167616 0.186515
vt 0.160523 0.179421
vt 0.156102 0.205330
vt 0.150834 0.206742
vt 0.159960 0.190935
vt 0.141144 0.179421
vt 0.160523 0.212986
vt 0.145565 0.205330
vt 0.141708 0.201473
vt 0.140296 0.196204
vt 0.141708 0.190935
vt 0.145565 0.187078
vt 0.150834 0.185666
vt 0.156102 0.187078
vt 0.161371 0.196204
vt 0.159960 0.201473
vt 0.150834 0.215583
vt 0.086453 0.128613
vt 0.091491 0.116292
vt 0.091491 0.128613
vt 0.092844 0.161703
vt 0.097882 0.151298
vt 0.097882 0.161703
vt 0.092844 0.151298
vt 0.097882 0.128592
vt 0.092844 0.128592
vt 0.097882 0.116292
vt 0.104957 0.149389
vt 0.104957 0.126683
vt 0.109325 0.128608
vt 0.086453 0.161704
vt 0.091491 0.151319
vt 0.091491 0.161704
vt 0.086453 0.151319
vt 0.099235 0.128608
vt 0.101420 0.116292
vt 0.103604 0.126683
vt 0.086453 0.116292
vt 0.092844 0.116292
vt 0.107141 0.116292
vt 0.109325 0.151314
vt 0.107141 0.161704
vt 0.103604 0.149389
vt 0.101420 0.161704
vt 0.099235 0.151314
vn -0.5127 -0.3255 -0.7944
vn -0.7944 -0.3255 0.5127
vn -0.8413 -0.3255 -0.4316
vn 0.5410 0.7939 0.2776
vn 0.3970 0.9176 -0.0197
vn 0.3537 0.9176 0.1815
vn -0.6074 0.7939 0.0301
vn -0.5410 0.7939 -0.2776
vn 0.7944 -0.3255 -0.5127
vn 0.6074 0.7939 -0.0301
vn 0.9444 -0.3255 -0.0468
vn -0.0468 -0.3255 -0.9444
vn 0.2776 0.7939 -0.5410
vn 0.4316 -0.3255 -0.8413
vn 0.0468 -0.3255 0.9444
vn 0.3298 0.7939 0.5109
vn 0.0301 0.7939 0.6074
vn -0.9444 -0.3255 0.0468
vn 0.5109 0.7939 -0.3298
vn -0.3298 0.7939 -0.5109
vn -0.0301 0.7939 -0.6074
vn 0.5127 -0.3255 0.7944
vn -0.4316 -0.3255 0.8412
vn -0.5109 0.7939 0.3298
vn 0.8412 -0.3255 0.4316
vn -0.2776 0.7939 0.5410
vn -0.2156 0.9176 -0.3340
vn -0.0197 0.9176 -0.3970
vn -0.1815 0.9176 0.3537
vn -0.3970 0.9176 0.0197
vn -0.3537 0.9176 -0.1815
vn 0.2156 0.9176 0.3340
vn 0.0197 0.9176 0.3970
vn 0.1260 0.9887 -0.0813
vn 0.0684 0.9887 -0.1334
vn 0.0813 0.9887 0.1260
vn -0.3340 0.9176 0.2156
vn 0.3340 0.9176 -0.2156
vn -0.0074 0.9887 -0.1497
vn -0.0813 0.9887 -0.1260
vn -0.1334 0.9887 -0.0684
vn -0.1497 0.9887 0.0074
vn -0.1260 0.9887 0.0813
vn -0.0684 0.9887 0.1334
vn 0.0074 0.9887 0.1497
vn 0.1334 0.9887 0.0684
vn 0.1497 0.9887 -0.0074
vn 0.1815 0.9176 -0.3537
vn 0.8402 0.0000 -0.5423
vn 0.8897 0.0000 0.4565
vn 0.0495 0.0000 0.9988
vn -0.8402 0.0000 0.5423
vn 0.0000 1.0000 -0.0000
vn -0.8897 -0.0000 -0.4565
vn -0.0495 -0.0000 -0.9988
vn 0.0000 -1.0000 0.0000

s 1
f 3/1/1 6/2/2 4/3/3
f 22/4/4 45/5/5 43/6/6
f 4/3/3 17/7/7 16/8/8
f 12/9/9 23/10/10 11/11/11
f 2/12/12 14/13/13 1/14/14
f 8/15/15 21/16/16 20/17/17
f 6/2/2 17/7/7 5/18/18
f 1/14/14 24/19/19 12/9/9
f 2/12/12 15/20/20 13/21/21
f 9/22/22 22/4/4 21/16/16
f 7/23/23 18/24/24 6/2/2
f 3/1/1 16/8/8 15/20/20
f 10/25/25 23/10/10 22/4/4
f 8/15/15 19/26/26 7/23/23
f 13/21/21 29/27/27 25/28/28
f 20/17/17 37/29/29 19/26/26
f 16/8/8 33/30/30 31/31/31
f 24/19/19 45/5/5 23/10/10
f 20/17/17 41/32/32 39/33/33
f 18/24/24 33/30/30 17/7/7
f 48/34/34 27/35/35 42/36/36
f 21/16/16 43/6/6 41/32/32
f 19/26/26 35/37/37 18/24/24
f 15/20/20 31/31/31 29/27/27
f 14/13/13 47/38/38 24/19/19
f 27/35/35 25/28/28 26/39/39
f 30/40/40 25/28/28 29/27/27
f 32/41/41 29/27/27 31/31/31
f 34/42/42 31/31/31 33/30/30
f 34/42/42 35/37/37 36/43/43
f 36/43/43 37/29/29 38/44/44
f 38/44/44 39/33/33 40/45/45
f 42/36/36 39/33/33 41/32/32
f 44/46/46 41/32/32 43/6/6
f 46/47/47 43/6/6 45/5/5
f 46/47/47 47/38/38 48/34/34
f 48/34/34 28/48/48 27/35/35
f 13/21/21 28/48/48 14/13/13
f 3/1/1 2/12/12 7/23/23
f 2/12/12 1/14/14 8/15/15
f 7/23/23 2/12/12 8/15/15
f 1/14/14 12/9/9 9/22/22
f 12/9/9 11/11/11 10/25/25
f 9/22/22 12/9/9 10/25/25
f 9/22/22 8/15/15 1/14/14
f 7/23/23 6/2/2 3/1/1
f 6/2/2 5/18/18 4/3/3
f 22/4/4 23/10/10 45/5/5
f 4/3/3 5/18/18 17/7/7
f 12/9/9 24/19/19 23/10/10
f 2/12/12 13/21/21 14/13/13
f 8/15/15 9/22/22 21/16/16
f 6/2/2 18/24/24 17/7/7
f 1/14/14 14/13/13 24/19/19
f 2/12/12 3/1/1 15/20/20
f 9/22/22 10/25/25 22/4/4
f 7/23/23 19/26/26 18/24/24
f 3/1/1 4/3/3 16/8/8
f 10/25/25 11/11/11 23/10/10
f 8/15/15 20/17/17 19/26/26
f 13/21/21 15/20/20 29/27/27
f 20/17/17 39/33/33 37/29/29
f 16/8/8 17/7/7 33/30/30
f 24/19/19 47/38/38 45/5/5
f 20/17/17 21/16/16 41/32/32
f 18/24/24 35/37/37 33/30/30
f 27/35/35 26/39/39 40/45/45
f 26/39/39 30/40/40 38/44/44
f 30/40/40 32/41/41 36/43/43
f 32/41/41 34/42/42 36/43/43
f 36/43/43 38/44/44 30/40/40
f 38/44/44 40/45/45 26/39/39
f 40/45/45 42/36/36 27/35/35
f 42/36/36 44/46/46 48/34/34
f 44/46/46 46/47/47 48/34/34
f 21/16/16 22/4/4 43/6/6
f 19/26/26 37/29/29 35/37/37
f 15/20/20 16/8/8 31/31/31
f 14/13/13 28/48/48 47/38/38
f 27/35/35 28/48/48 25/28/28
f 30/40/40 26/39/39 25/28/28
f 32/41/41 30/40/40 29/27/27
f 34/42/42 32/41/41 31/31/31
f 34/42/42 33/30/30 35/37/37
f 36/43/43 35/37/37 37/29/29
f 38/44/44 37/29/29 39/33/33
f 42/36/36 40/45/45 39/33/33
f 44/46/46 42/36/36 41/32/32
f 46/47/47 44/46/46 43/6/6
f 46/47/47 45/5/5 47/38/38
f 48/34/34 47/38/38 28/48/48
f 13/21/21 25/28/28 28/48/48
f 50/49/49 51/50/49 49/51/49
f 52/52/50 53/53/50 51/54/50
f 54/55/51 55/56/51 53/53/51
f 56/57/52 57/58/52 55/56/52
f 56/59/53 54/60/53 50/61/53
f 58/62/54 59/63/54 57/64/54
f 60/65/55 49/51/55 59/63/55
f 55/66/56 57/67/56 59/68/56
f 50/49/49 52/69/49 51/50/49
f 52/52/50 54/55/50 53/53/50
f 54/55/51 56/57/51 55/56/51
f 56/57/52 58/70/52 57/58/52
f 54/60/53 52/71/53 50/61/53
f 50/61/53 60/72/53 56/59/53
f 60/72/53 58/73/53 56/59/53
f 58/62/54 60/65/54 59/63/54
f 60/65/55 50/49/55 49/51/55
f 59/68/56 49/74/56 55/66/56
f 49/74/56 51/75/56 53/76/56
f 55/66/56 49/74/56 53/76/56
