# Blender v3.1.2 OBJ File: ''
# www.blender.org
mtllib MutedTriangle.mtl
o Converted_object_0(m1).001_Converted_object_0(m1).039
v -1.001081 1.906599 2.112538
v -2.077218 1.281865 2.519573
v -1.445279 0.786035 2.464725
v -0.567936 1.713041 2.042494
v -1.919126 0.241807 2.014215
v -2.135446 0.450251 1.181427
v -2.661992 0.087125 1.666445
v -2.825023 0.146640 0.821230
v -2.825023 0.146640 0.821230
v -2.661992 0.087125 1.666445
v -3.135840 0.732980 1.857384
v -3.292566 0.679404 0.837634
v -2.708261 1.444337 2.392502
v -1.511191 2.129463 2.121023
v -2.708261 1.444337 2.392502
v -2.090257 0.792194 0.484799
v -2.227983 0.480437 0.307687
v -1.970769 0.178534 0.660107
v -1.833058 0.490259 0.837202
v -1.835335 1.360241 0.533646
v -2.038344 0.925704 0.364814
v -1.737426 0.661182 0.712631
v -1.521731 1.122871 0.892013
v -1.859771 1.601251 0.400016
v -1.513019 1.306602 0.673676
v -1.253592 1.781528 0.873794
v -1.612707 2.053550 0.590600
v -1.046956 2.060989 0.141309
v -0.790348 1.824167 0.540769
v -0.606783 2.270858 0.699872
v -0.863392 2.507674 0.300408
v -1.098214 0.817176 -0.262510
v -1.808071 0.997757 -0.130378
v -2.220241 0.514830 -0.248351
v -1.329463 0.394984 -0.248068
v -1.329463 0.394984 -0.248068
v -2.220241 0.514830 -0.248351
v -2.551805 0.637354 -0.644091
v -1.130366 0.283142 -0.847884
v -2.211351 1.128060 -0.795428
v -0.899132 0.705300 -0.862325
v -0.899132 0.705300 -0.862325
v -2.211351 1.128060 -0.795428
v -1.091013 1.630546 -0.492770
v -1.735245 1.820133 -0.499292
v -1.237046 1.153774 -0.592281
v -1.237046 1.153774 -0.592281
v -1.808071 0.997757 -0.130378
v -1.087281 1.223350 -1.096492
v -1.740003 1.961165 -1.011785
v -0.932123 1.729911 -0.990764
v -0.932123 1.729911 -0.990764
v -1.740003 1.961165 -1.011785
v -0.946071 1.724349 -0.560318
v -1.735245 1.820133 -0.499292
v -0.796552 1.792775 -1.065201
v -1.798960 2.789822 -0.776789
v -0.630842 2.333786 -0.952284
v -0.630842 2.333786 -0.952284
v -1.798960 2.789822 -0.776789
v -1.625329 2.583556 -0.319025
v -0.788256 2.239585 -0.452779
v -0.946071 1.724349 -0.560318
v -1.022508 2.572408 -0.481299
v -1.625329 2.583556 -0.319025
v -0.872741 2.641993 -0.985511
v -1.826874 3.133688 -0.172234
v -0.726706 3.118767 -0.885998
v -0.726706 3.118767 -0.885998
v -1.826874 3.133688 -0.172234
v -1.399389 2.943251 0.077866
v -0.876476 3.049176 -0.381790
v -1.022508 2.572408 -0.481299
v -1.458602 0.872860 -0.113534
v -1.612534 0.510886 -0.324466
v -1.612534 0.510886 -0.324466
v -1.276861 0.219575 -0.034695
v -1.122943 0.581517 0.176219
v -1.122943 0.581517 0.176219
v -1.098942 1.359964 -0.262361
v -1.229952 0.887891 -0.398470
v -1.229952 0.887891 -0.398470
v -0.718402 0.749225 -0.374140
v -0.579207 1.250793 -0.229527
v -0.579207 1.250793 -0.229527
v -0.862323 1.373160 -0.366584
v -0.353692 1.235062 -0.431169
v -0.180255 1.755257 -0.251668
v -0.180255 1.755257 -0.251668
v -0.697147 1.868570 -0.195634
v -0.862323 1.373160 -0.366584
v -0.421898 2.061934 -0.442346
v 0.082594 1.927685 -0.347649
v 0.198688 2.409079 -0.232218
v 0.198688 2.409079 -0.232218
v -0.305807 2.543320 -0.326917
v -0.421898 2.061934 -0.442346
v -2.227983 0.480437 0.307687
v -1.970769 0.178534 0.660107
v -1.833058 0.490259 0.837202
v -1.833058 0.490259 0.837202
v -2.038344 0.925704 0.364814
v -1.737426 0.661182 0.712631
v -1.521731 1.122871 0.892013
v -1.521731 1.122871 0.892013
v -1.859771 1.601251 0.400016
v -1.513019 1.306602 0.673676
v -1.253592 1.781528 0.873794
v -1.253592 1.781528 0.873794
v -1.046956 2.060989 0.141309
v -0.790348 1.824167 0.540769
v -0.606783 2.270858 0.699872
v -0.606783 2.270858 0.699872
v -0.602479 2.658855 -0.159739
v -0.632079 3.146470 -0.249013
v -0.113134 3.065531 -0.421416
v -0.083532 2.577916 -0.332139
v -0.601701 2.320182 0.290765
v -0.263642 2.153734 0.811420
v -0.730457 2.406306 0.804155
v -0.493376 2.800713 0.352596
v -0.634127 2.685098 1.751573
v -0.038393 3.220450 0.372509
v -0.038393 3.220450 0.372509
v -0.634127 2.685098 1.751573
v -0.167311 2.432530 1.758850
v -0.044019 2.806581 0.098370
v -0.263642 2.153734 0.811420
v -0.601701 2.320182 0.290765
v -0.602479 2.658855 -0.159739
v -0.632079 3.146470 -0.249013
v -0.113134 3.065531 -0.421416
v -0.113134 3.065531 -0.421416
v -0.730457 2.406306 0.804155
v -2.282069 1.933357 -0.055857
v -1.770625 1.731961 -0.158665
v -1.511191 2.129463 2.121023
v -1.801911 2.363964 1.788065
v -1.826874 3.133688 -0.172234
v -1.898520 2.621511 1.261621
v -0.730457 2.406306 0.804155
v -1.898520 2.621511 1.261621
v -1.801911 2.363964 1.788065
v -2.078053 1.812252 1.904304
v -1.554385 1.195652 0.659610
v -2.304615 0.695817 2.121430
vt 0.719050 0.905874
vt 0.633668 0.962396
vt 0.610958 0.962396
vt 0.716403 0.900095
vt 0.481281 0.962396
vt 0.440041 0.916248
vt 0.426832 0.962396
vt 0.335413 0.920643
vt 0.335413 0.105289
vt 0.426832 0.063687
vt 0.481412 0.063687
vt 0.396264 0.111087
vt 0.610632 0.063687
vt 0.716992 0.908962
vt 0.610958 0.962396
vt 0.359565 0.636344
vt 0.309175 0.636344
vt 0.310152 0.606828
vt 0.360538 0.606828
vt 0.446758 0.570769
vt 0.379009 0.570769
vt 0.379974 0.541173
vt 0.450850 0.541173
vt 0.484071 0.539572
vt 0.486319 0.509767
vt 0.562016 0.509767
vt 0.556803 0.539572
vt 0.586177 0.559420
vt 0.587143 0.529754
vt 0.653850 0.529754
vt 0.652885 0.559420
vt 0.359617 0.750576
vt 0.367596 0.791519
vt 0.311916 0.818332
vt 0.309471 0.750576
vt 0.309472 0.275355
vt 0.311917 0.207757
vt 0.311917 0.207757
vt 0.309472 0.275355
vt 0.367597 0.234518
vt 0.360100 0.275355
vt 0.359617 0.750576
vt 0.367596 0.791519
vt 0.447850 0.703741
vt 0.463933 0.752948
vt 0.379300 0.703741
vt 0.379301 0.322191
vt 0.367597 0.234518
vt 0.379301 0.322191
vt 0.463935 0.273089
vt 0.448333 0.322191
vt 0.447850 0.703741
vt 0.463933 0.752948
vt 0.482912 0.353387
vt 0.463935 0.273089
vt 0.482912 0.353387
vt 0.576616 0.279879
vt 0.557044 0.353387
vt 0.556562 0.672544
vt 0.576615 0.746157
vt 0.576615 0.746157
vt 0.556562 0.672544
vt 0.482910 0.672544
vt 0.586470 0.333539
vt 0.576616 0.279879
vt 0.586470 0.333539
vt 0.647841 0.251664
vt 0.653418 0.333539
vt 0.652934 0.692392
vt 0.647357 0.774321
vt 0.647357 0.774321
vt 0.652934 0.692392
vt 0.586468 0.692392
vt 0.359617 0.700425
vt 0.309471 0.700425
vt 0.309472 0.325506
vt 0.309472 0.325506
vt 0.360100 0.325506
vt 0.359617 0.700425
vt 0.447850 0.645362
vt 0.379300 0.645362
vt 0.379301 0.380569
vt 0.379301 0.380569
vt 0.448333 0.380569
vt 0.447850 0.645362
vt 0.482912 0.411765
vt 0.482912 0.411765
vt 0.557044 0.411765
vt 0.556562 0.614166
vt 0.556562 0.614166
vt 0.482910 0.614166
vt 0.586470 0.391917
vt 0.586470 0.391917
vt 0.653418 0.391917
vt 0.652934 0.634014
vt 0.652934 0.634014
vt 0.586468 0.634014
vt 0.309472 0.389587
vt 0.309472 0.389587
vt 0.360100 0.389587
vt 0.359565 0.636344
vt 0.379301 0.455162
vt 0.379301 0.455162
vt 0.448333 0.455162
vt 0.446758 0.570769
vt 0.482912 0.486359
vt 0.482912 0.486359
vt 0.557044 0.486359
vt 0.556803 0.539572
vt 0.586470 0.466511
vt 0.586470 0.466511
vt 0.653418 0.466511
vt 0.652885 0.559420
vt 0.759890 0.706180
vt 0.759942 0.676578
vt 0.827128 0.676578
vt 0.827077 0.706180
vt 0.741301 0.238111
vt 0.688390 0.205070
vt 0.688390 0.205070
vt 0.741301 0.238111
vt 0.788065 0.166556
vt 0.816540 0.221151
vt 0.816056 0.804833
vt 0.787581 0.859428
vt 0.787581 0.859428
vt 0.816056 0.804833
vt 0.688390 0.820966
vt 0.741300 0.787873
vt 0.760230 0.319935
vt 0.760230 0.319935
vt 0.827658 0.319935
vt 0.827077 0.706180
vt 0.688390 0.820966
vt 0.506590 0.209765
vt 0.485260 0.796907
vt 0.717475 0.117075
vt 0.703040 0.135330
vt 0.647663 0.251431
vt 0.686431 0.167052
vt 0.688696 0.204786
vt 0.686126 0.167441
vt 0.702862 0.135045
vt 0.643141 0.109475
vt 0.519247 0.861607
vt 0.531860 0.960669
vt 0.541632 0.940939
vt 0.553449 0.960538
vt 0.564738 0.937239
vt 0.552575 0.924789
vt 0.532474 0.918349
vt 0.517215 0.939636
vn 0.2201 0.2818 0.9339
vn -0.0959 -0.0017 0.9954
vn 0.4139 -0.4859 0.7698
vn 0.8061 -0.3022 0.5087
vn 0.2805 -0.8917 0.3554
vn 0.5525 -0.7697 -0.3199
vn 0.1087 -0.9310 0.3484
vn 0.5611 -0.8173 -0.1314
vn -0.7104 -0.6948 -0.1118
vn -0.7859 -0.6087 0.1087
vn -0.8487 -0.1838 0.4959
vn -0.9920 -0.0653 -0.1076
vn -0.7755 0.3251 0.5412
vn 0.1302 0.3565 0.9252
vn -0.0608 0.4577 0.8870
vn -0.5481 0.7853 0.2880
vn -0.9171 0.3985 0.0117
vn -0.8016 0.0146 0.5976
vn -0.5507 0.8079 0.2100
vn -0.9110 0.4105 0.0388
vn -0.7259 0.0734 0.6839
vn -0.8848 0.4636 0.0467
vn -0.6168 0.0052 0.7871
vn -0.4997 0.8345 0.2322
vn -0.9210 0.3886 -0.0283
vn -0.8012 0.1205 0.5861
vn -0.5614 0.8114 0.1625
vn 0.5473 0.8062 0.2248
vn 0.1329 0.2744 0.9524
vn 0.6318 -0.6061 0.4831
vn 0.1702 0.8712 0.4605
vn 0.6241 -0.7756 0.0942
vn -0.0595 -0.9666 -0.2494
vn -0.6203 -0.3967 -0.6767
vn 0.3256 -0.7489 -0.5771
vn -0.5397 -0.0941 -0.8366
vn 0.6265 -0.3609 -0.6909
vn 0.4358 0.9000 0.0106
vn 0.3067 0.9518 0.0005
vn 0.2059 0.7510 0.6274
vn 0.6484 0.2978 0.7007
vn -0.4381 -0.0877 0.8946
vn -0.5119 -0.8077 -0.2926
vn 0.0746 -0.9691 -0.2351
vn 0.2497 -0.4579 -0.8532
vn -0.4513 -0.0981 -0.8869
vn 0.5012 0.0385 -0.8645
vn 0.3364 0.8984 0.2824
vn 0.2601 0.9316 0.2540
vn -0.6039 -0.7406 -0.2946
vn -0.1362 -0.9555 -0.2617
vn 0.1480 -0.4251 -0.8929
vn -0.5689 0.2735 -0.7756
vn 0.3531 0.0965 -0.9306
vn 0.4528 0.8416 0.2944
vn 0.3846 0.8874 0.2540
vn 0.8840 -0.0064 0.4674
vn 0.2196 0.6290 0.7458
vn -0.5361 -0.0317 0.8436
vn -0.3637 -0.8913 -0.2706
vn -0.1169 -0.9213 -0.3708
vn -0.1448 -0.3077 -0.9404
vn -0.7934 0.5354 -0.2897
vn 0.0148 0.2086 -0.9779
vn 0.3310 0.9093 0.2521
vn 0.2033 0.9058 0.3718
vn 0.4303 0.2202 0.8754
vn 0.1627 0.6889 0.7064
vn 0.0051 -0.2136 0.9769
vn -0.0561 0.9465 -0.3178
vn -0.1432 0.5432 -0.8273
vn -0.4831 -0.7482 -0.4547
vn 0.3362 -0.9392 0.0693
vn 0.7488 -0.5414 0.3823
vn 0.4252 0.7879 0.4454
vn -0.4790 0.8298 0.2863
vn -0.8698 0.3699 -0.3265
vn -0.3346 -0.8827 -0.3300
vn 0.5979 -0.7909 -0.1301
vn 0.9538 -0.2982 0.0364
vn 0.2429 0.8742 0.4205
vn -0.3723 -0.8925 -0.2546
vn 0.5576 -0.8118 -0.1733
vn 0.9399 -0.3411 0.0125
vn 0.3304 0.8366 0.4369
vn -0.3083 0.8779 0.3663
vn -0.8570 0.4211 -0.2972
vn -0.1960 -0.8554 -0.4795
vn 0.6618 -0.7045 -0.2564
vn 0.9507 -0.2035 -0.2339
vn 0.2197 0.8610 0.4588
vn -0.3450 0.3529 0.8697
vn -0.9562 0.2861 0.0623
vn -0.3776 -0.8252 -0.4201
vn 0.1938 -0.9716 0.1357
vn 0.5939 -0.5794 0.5581
vn 0.3286 0.8243 0.4611
vn -0.3145 -0.8819 -0.3511
vn 0.2650 -0.9561 0.1247
vn 0.6827 -0.5189 0.5145
vn 0.2922 0.9101 0.2939
vn -0.3957 -0.8526 -0.3414
vn 0.0905 -0.9889 0.1176
vn 0.5903 -0.5653 0.5762
vn 0.3898 0.8791 0.2744
vn -0.2520 -0.9080 -0.3347
vn 0.3409 -0.9240 0.1732
vn 0.6988 -0.4770 0.5331
vn 0.2705 0.9079 0.3202
vn -0.3420 -0.5057 -0.7920
vn -0.3360 -0.1893 -0.9226
vn 0.5212 -0.5940 -0.6128
vn -0.9931 -0.0964 -0.0664
vn -0.4760 -0.8790 0.0281
vn -0.9542 0.2598 -0.1482
vn -0.8733 0.4719 0.1209
vn -0.4551 0.8896 -0.0394
vn -0.5145 0.8465 0.1367
vn 0.9941 0.0831 0.0691
vn 0.2938 0.5304 0.7952
vn 0.8082 0.0623 0.5856
vn 0.9627 -0.2692 -0.0272
vn 0.8043 -0.5515 -0.2210
vn 0.3637 -0.8324 -0.4182
vn -0.9795 0.0642 0.1908
vn -0.5989 0.7823 0.1713
vn 0.0863 0.9763 -0.1986
vn 0.9930 0.0463 -0.1090
vn 0.4708 0.8737 0.1222
vn -0.8810 0.3970 -0.2574
vn 0.9764 -0.1739 -0.1281
vn -0.3685 0.6865 0.6269
vn -0.5747 0.6501 0.4971
vn 0.2958 0.8948 0.3344
vn 0.3024 0.8842 0.3561
vn 0.2990 0.8897 0.3450
vn -0.8518 0.4914 0.1816
vn 0.3071 0.8759 0.3721
vn -0.6666 0.7122 0.2201
vn 0.7380 -0.5779 -0.3483
vn -0.2903 -0.4559 0.8414
usemtl Default_OBJ.030
s 1
f 1/1/1 2/2/2 3/3/3
f 1/1/1 3/3/3 4/4/4
f 4/4/4 3/3/3 5/5/5
f 4/4/4 5/5/5 6/6/6
f 6/6/6 5/5/5 7/7/7
f 6/6/6 7/7/7 8/8/8
f 9/9/9 10/10/10 11/11/11
f 9/9/9 11/11/11 12/12/12
f 12/12/12 11/11/11 13/13/13
f 14/14/14 15/15/15 2/2/2
f 14/14/14 2/2/2 1/1/1
f 16/16/16 17/17/17 18/18/18
f 18/18/18 19/19/18 16/16/16
f 20/20/19 21/21/20 22/22/21
f 22/22/21 23/23/21 20/20/19
f 24/24/22 25/25/23 26/26/23
f 26/26/23 27/27/24 24/24/22
f 28/28/25 29/29/26 30/30/26
f 30/30/26 31/31/27 28/28/25
f 32/32/28 33/33/29 34/34/30
f 32/32/28 34/34/30 35/35/31
f 36/36/32 37/37/33 38/38/34
f 36/36/32 38/38/34 39/39/35
f 39/39/35 38/38/34 40/40/36
f 39/39/35 40/40/36 41/41/37
f 42/42/38 43/43/39 33/33/29
f 42/42/38 33/33/29 32/32/28
f 44/44/40 45/45/41 33/33/29
f 44/44/40 33/33/29 46/46/42
f 47/47/43 48/48/44 40/40/36
f 47/47/43 40/40/36 49/49/45
f 49/49/45 40/40/36 50/50/46
f 49/49/45 50/50/46 51/51/47
f 52/52/48 53/53/49 45/45/41
f 52/52/48 45/45/41 44/44/40
f 54/54/50 55/55/51 50/50/46
f 54/54/50 50/50/46 56/56/52
f 56/56/52 50/50/46 57/57/53
f 56/56/52 57/57/53 58/58/54
f 59/59/55 60/60/56 61/61/57
f 59/59/55 61/61/57 62/62/58
f 62/62/58 61/61/57 45/45/41
f 62/62/58 45/45/41 63/63/59
f 64/64/60 65/65/61 57/57/53
f 64/64/60 57/57/53 66/66/62
f 66/66/62 57/57/53 67/67/63
f 66/66/62 67/67/63 68/68/64
f 69/69/65 70/70/66 71/71/67
f 69/69/65 71/71/67 72/72/68
f 72/72/68 71/71/67 61/61/57
f 72/72/68 61/61/57 73/73/69
f 74/74/70 32/32/28 35/35/31
f 74/74/70 35/35/31 75/75/71
f 76/76/72 36/36/32 39/39/35
f 76/76/72 39/39/35 77/77/73
f 77/77/73 39/39/35 41/41/37
f 77/77/73 41/41/37 78/78/74
f 79/79/75 42/42/38 32/32/28
f 79/79/75 32/32/28 74/74/70
f 80/80/76 44/44/40 46/46/42
f 80/80/76 46/46/42 81/81/77
f 82/82/78 47/47/43 49/49/45
f 82/82/78 49/49/45 83/83/79
f 83/83/79 49/49/45 51/51/47
f 83/83/79 51/51/47 84/84/80
f 85/85/81 52/52/48 44/44/40
f 85/85/81 44/44/40 80/80/76
f 86/86/82 54/54/50 56/56/52
f 86/86/82 56/56/52 87/87/83
f 87/87/83 56/56/52 58/58/54
f 87/87/83 58/58/54 88/88/84
f 89/89/85 59/59/55 62/62/58
f 89/89/85 62/62/58 90/90/86
f 90/90/86 62/62/58 63/63/59
f 90/90/86 63/63/59 91/91/87
f 92/92/88 64/64/60 66/66/62
f 92/92/88 66/66/62 93/93/89
f 93/93/89 66/66/62 68/68/64
f 93/93/89 68/68/64 94/94/90
f 95/95/91 69/69/65 72/72/68
f 95/95/91 72/72/68 96/96/92
f 96/96/92 72/72/68 73/73/69
f 96/96/92 73/73/69 97/97/93
f 16/16/16 74/74/70 75/75/71
f 16/16/16 75/75/71 17/17/17
f 98/98/94 76/76/72 77/77/73
f 98/98/94 77/77/73 99/99/95
f 99/99/95 77/77/73 78/78/74
f 99/99/95 78/78/74 100/100/96
f 101/101/97 79/79/75 74/74/70
f 101/101/97 74/74/70 16/16/16
f 20/20/19 80/80/76 81/81/77
f 20/20/19 81/81/77 21/21/20
f 102/102/98 82/82/78 83/83/79
f 102/102/98 83/83/79 103/103/99
f 103/103/99 83/83/79 84/84/80
f 103/103/99 84/84/80 104/104/100
f 105/105/101 85/85/81 80/80/76
f 105/105/101 80/80/76 20/20/19
f 106/106/102 86/86/82 87/87/83
f 106/106/102 87/87/83 107/107/103
f 107/107/103 87/87/83 88/88/84
f 107/107/103 88/88/84 108/108/104
f 109/109/105 89/89/85 90/90/86
f 109/109/105 90/90/86 27/27/24
f 27/27/24 90/90/86 91/91/87
f 27/27/24 91/91/87 24/24/22
f 110/110/106 92/92/88 93/93/89
f 110/110/106 93/93/89 111/111/107
f 111/111/107 93/93/89 94/94/90
f 111/111/107 94/94/90 112/112/108
f 113/113/109 95/95/91 96/96/92
f 113/113/109 96/96/92 31/31/27
f 31/31/27 96/96/92 97/97/93
f 31/31/27 97/97/93 28/28/25
f 114/114/110 115/115/111 116/116/111
f 116/116/111 117/117/112 114/114/110
f 118/118/113 119/119/114 120/120/115
f 118/118/113 120/120/115 121/121/116
f 121/121/116 120/120/115 122/122/117
f 121/121/116 122/122/117 123/123/118
f 124/124/119 125/125/120 126/126/121
f 124/124/119 126/126/121 127/127/122
f 127/127/122 126/126/121 128/128/123
f 127/127/122 128/128/123 129/129/124
f 130/130/125 118/118/113 121/121/116
f 130/130/125 121/121/116 131/131/126
f 131/131/126 121/121/116 123/123/118
f 131/131/126 123/123/118 132/132/127
f 133/133/128 124/124/119 127/127/122
f 133/133/128 127/127/122 117/117/112
f 117/117/112 127/127/122 129/129/124
f 117/117/112 129/129/124 114/114/110
f 128/128/123 71/71/67 70/70/66
f 128/128/123 70/70/66 134/134/129
f 4/4/4 126/126/121 125/125/120
f 1/1/1 125/125/120 14/14/14
f 135/135/130 40/40/36 38/38/34
f 135/135/130 50/50/46 40/40/36
f 135/135/130 57/57/53 50/50/46
f 135/135/130 67/67/63 57/57/53
f 33/33/29 136/136/131 34/34/30
f 45/45/41 136/136/131 33/33/29
f 45/45/41 61/61/57 136/136/131
f 61/61/57 71/71/67 136/136/131
f 125/125/120 1/1/1 4/4/4
f 137/137/132 122/122/117 138/138/133
f 120/120/115 138/138/133 122/122/117
f 139/139/134 140/140/135 141/141/136
f 67/67/63 135/135/130 142/142/137
f 141/141/136 140/140/135 143/143/138
f 142/142/137 12/12/12 138/138/133
f 135/135/130 12/12/12 142/142/137
f 135/135/130 38/38/34 12/12/12
f 12/12/12 144/144/139 138/138/133
f 144/144/139 137/137/132 138/138/133
f 137/137/132 144/144/139 13/13/13
f 144/144/139 12/12/12 13/13/13
f 9/9/9 12/12/12 38/38/34
f 38/38/34 37/37/33 9/9/9
f 71/71/67 145/145/140 136/136/131
f 145/145/140 34/34/30 136/136/131
f 145/145/140 8/8/8 34/34/30
f 145/145/140 6/6/6 8/8/8
f 145/145/140 4/4/4 6/6/6
f 126/126/121 145/145/140 128/128/123
f 71/71/67 128/128/123 145/145/140
f 126/126/121 4/4/4 145/145/140
f 7/146/7 146/147/141 11/148/11
f 146/147/141 13/149/13 11/148/11
f 146/147/141 2/150/2 13/149/13
f 146/147/141 3/151/3 2/150/2
f 146/147/141 5/152/5 3/151/3
f 146/147/141 7/146/7 5/152/5
