# Blender 4.3.0
# www.blender.org
mtllib PistolCasing.mtl
o Cylinder
v -0.000000 0.344246 -0.561985
v 0.000000 0.344246 0.561985
v 0.221277 0.263708 -0.561985
v 0.221277 0.263708 0.561985
v 0.339016 0.059778 -0.561985
v 0.339016 0.059778 0.561985
v 0.298126 -0.172123 -0.561985
v 0.298126 -0.172123 0.561985
v 0.117739 -0.323486 -0.561985
v 0.117739 -0.323486 0.561985
v -0.117739 -0.323486 -0.561985
v -0.117739 -0.323486 0.561985
v -0.298126 -0.172123 -0.561985
v -0.298126 -0.172123 0.561985
v -0.339016 0.059778 -0.561985
v -0.339016 0.059778 0.561985
v -0.221277 0.263708 -0.561985
v -0.221277 0.263708 0.561985
vn -0.0000 1.0000 -0.0000
vn 0.6428 0.7660 -0.0000
vn 0.9848 0.1736 -0.0000
vn 0.8660 -0.5000 -0.0000
vn 0.3420 -0.9397 -0.0000
vn -0.3420 -0.9397 -0.0000
vn -0.8660 -0.5000 -0.0000
vn -0.9848 0.1736 -0.0000
vn -0.0000 -0.0000 1.0000
vn -0.6428 0.7660 -0.0000
vn -0.0000 -0.0000 -1.0000
vt 1.000000 0.500000
vt 1.000000 1.000000
vt 0.888889 1.000000
vt 0.888889 0.500000
vt 0.777778 1.000000
vt 0.777778 0.500000
vt 0.666667 1.000000
vt 0.666667 0.500000
vt 0.555556 1.000000
vt 0.555556 0.500000
vt 0.444444 1.000000
vt 0.444444 0.500000
vt 0.333333 1.000000
vt 0.333333 0.500000
vt 0.222222 1.000000
vt 0.222222 0.500000
vt 0.486354 0.291676
vt 0.250000 0.490000
vt 0.167915 0.024474
vt 0.111111 1.000000
vt 0.111111 0.500000
vt 0.000000 1.000000
vt 0.000000 0.500000
vt 0.542154 0.130000
vt 0.513646 0.291676
vt 0.904269 0.433851
vt 0.404269 0.433851
vt 0.095731 0.433851
vt 0.013646 0.291676
vt 0.042154 0.130000
vt 0.332085 0.024474
vt 0.457846 0.130000
vt 0.595731 0.433851
vt 0.750000 0.490000
vt 0.986354 0.291676
vt 0.667915 0.024474
vt 0.957846 0.130000
vt 0.832085 0.024474
s 1
f 1/1/1 2/2/1 4/3/2 3/4/2
f 3/4/2 4/3/2 6/5/3 5/6/3
f 5/6/3 6/5/3 8/7/4 7/8/4
f 7/8/4 8/7/4 10/9/5 9/10/5
f 9/10/5 10/9/5 12/11/6 11/12/6
f 11/12/6 12/11/6 14/13/7 13/14/7
f 13/14/7 14/13/7 16/15/8 15/16/8
f 6/17/9 2/18/9 12/19/9
f 15/16/8 16/15/8 18/20/10 17/21/10
f 17/21/10 18/20/10 2/22/1 1/23/1
f 13/24/11 15/25/11 3/26/11
f 6/17/9 4/27/9 2/18/9
f 2/18/9 18/28/9 16/29/9
f 16/29/9 14/30/9 2/18/9
f 14/30/9 12/19/9 2/18/9
f 12/19/9 10/31/9 8/32/9
f 8/32/9 6/17/9 12/19/9
f 17/33/11 1/34/11 15/25/11
f 1/34/11 3/26/11 15/25/11
f 3/26/11 5/35/11 11/36/11
f 5/35/11 7/37/11 11/36/11
f 7/37/11 9/38/11 11/36/11
f 11/36/11 13/24/11 3/26/11
