# Blender v3.1.2 OBJ File: ''
# www.blender.org
mtllib Taiko.mtl
o Converted_object_0(m0).001_Converted_object_0(m0).049
v 15.300745 -28.656162 -0.000010
v 16.106300 -22.967274 -0.000008
v 13.250189 -28.656166 7.652768
v 13.947821 -22.967278 8.055548
v 16.509077 -17.278385 -0.000006
v 14.296637 -17.278389 8.256938
v 16.509077 -11.589497 -0.000004
v 14.296637 -11.589499 8.256940
v 16.106300 -5.900609 -0.000002
v 13.947821 -5.900611 8.055553
v 15.300745 -0.211721 -0.000000
v 13.250189 -0.211723 7.652778
v 8.050745 -22.967278 13.952623
v 7.647967 -28.656166 13.254990
v 8.252133 -17.278389 14.301441
v 8.252133 -11.589501 14.301443
v 8.050745 -5.900613 13.952629
v 7.647967 -0.211725 13.254999
v -0.004810 -28.656166 15.305546
v -0.004810 -22.967278 16.111103
v -0.004810 -17.278389 16.513884
v -0.004810 -11.589502 16.513884
v -0.004810 -5.900615 16.111107
v -0.004810 -0.211725 15.305555
v -8.060366 -22.967278 13.952623
v -7.657588 -28.656166 13.254990
v -8.261754 -17.278389 14.301441
v -8.261754 -11.589501 14.301443
v -8.060366 -5.900613 13.952629
v -7.657588 -0.211725 13.254999
v -13.259809 -28.656166 7.652768
v -13.957441 -22.967278 8.055548
v -14.306257 -17.278389 8.256938
v -14.306257 -11.589499 8.256940
v -13.957441 -5.900611 8.055553
v -13.259809 -0.211723 7.652778
v -16.115921 -22.967274 -0.000008
v -15.310366 -28.656162 -0.000010
v -16.518698 -17.278385 -0.000006
v -16.518698 -11.589497 -0.000004
v -16.115921 -5.900609 -0.000002
v -15.310366 -0.211721 -0.000000
v -13.259809 -28.656158 -7.652788
v -13.957441 -22.967270 -8.055563
v -14.306257 -17.278381 -8.256949
v -14.306257 -11.589495 -8.256948
v -13.957441 -5.900607 -8.055557
v -13.259809 -0.211719 -7.652778
v -8.060366 -22.967270 -13.952639
v -7.657588 -28.656158 -13.255009
v -8.261754 -17.278381 -14.301453
v -8.261754 -11.589493 -14.301451
v -8.060366 -5.900605 -13.952633
v -7.657588 -0.211717 -13.254999
v -0.004810 -28.656158 -15.305565
v -0.004810 -22.967270 -16.111118
v -0.004810 -17.278381 -16.513891
v -0.004810 -11.589491 -16.513891
v -0.004810 -5.900603 -16.111115
v -0.004810 -0.211717 -15.305555
v 8.050745 -22.967270 -13.952639
v 7.647967 -28.656158 -13.255009
v 8.252133 -17.278381 -14.301453
v 8.252133 -11.589493 -14.301451
v 8.050745 -5.900605 -13.952633
v 7.647967 -0.211717 -13.254999
v 13.250189 -28.656158 -7.652788
v 13.947821 -22.967270 -8.055563
v 14.296637 -17.278381 -8.256949
v 14.296637 -11.589495 -8.256948
v 13.947821 -5.900607 -8.055557
v 13.250189 -0.211719 -7.652778
vt 0.500000 0.000000
vt 0.500000 0.200000
vt 0.333333 0.000000
vt 0.333333 0.200000
vt 0.500000 0.400000
vt 0.333333 0.400000
vt 0.500000 0.600000
vt 0.333333 0.600000
vt 0.500000 0.800000
vt 0.333333 0.800000
vt 0.500000 1.000000
vt 0.333333 1.000000
vt 0.166667 0.200000
vt 0.166667 0.000000
vt 0.166667 0.400000
vt 0.166667 0.600000
vt 0.166667 0.800000
vt 0.166667 1.000000
vt -0.000000 0.000000
vt -0.000000 0.200000
vt -0.000000 0.400000
vt -0.000000 0.600000
vt -0.000000 0.800000
vt -0.000000 1.000000
vt 1.000000 0.000000
vt 1.000000 0.200000
vt 0.833334 0.200000
vt 0.833334 0.000000
vt 1.000000 0.400000
vt 0.833334 0.400000
vt 1.000000 0.600000
vt 0.833334 0.600000
vt 1.000000 0.800000
vt 0.833334 0.800000
vt 1.000000 1.000000
vt 0.833334 1.000000
vt 0.666667 0.000000
vt 0.666667 0.200000
vt 0.666667 0.400000
vt 0.666667 0.600000
vt 0.666667 0.800000
vt 0.666667 1.000000
vt 0.500000 0.200000
vt 0.500000 0.000000
vt 0.500000 0.400000
vt 0.500000 0.600000
vt 0.500000 0.800000
vt 0.500000 1.000000
vt 0.333333 0.000000
vt 0.333333 0.200000
vt 0.333333 0.400000
vt 0.333333 0.600000
vt 0.333333 0.800000
vt 0.333333 1.000000
vt 0.166667 0.200000
vt 0.166667 0.000000
vt 0.166667 0.400000
vt 0.166667 0.600000
vt 0.166667 0.800000
vt 0.166667 1.000000
vt 0.000000 0.000000
vt 0.000000 0.200000
vt 0.000000 0.400000
vt 0.000000 0.600000
vt 0.000000 0.800000
vt 0.000000 1.000000
vt 1.000000 0.000000
vt 1.000000 0.200000
vt 0.833333 0.200000
vt 0.833333 0.000000
vt 1.000000 0.400000
vt 0.833333 0.400000
vt 1.000000 0.600000
vt 0.833333 0.600000
vt 1.000000 0.800000
vt 0.833333 0.800000
vt 1.000000 1.000000
vt 0.833333 1.000000
vt 0.666667 0.000000
vt 0.666667 0.200000
vt 0.666667 0.400000
vt 0.666667 0.600000
vt 0.666667 0.800000
vt 0.666667 1.000000
vn 0.9901 -0.1402 -0.0000
vn 0.9945 -0.1049 -0.0000
vn 0.8575 -0.1402 0.4951
vn 0.8612 -0.1049 0.4972
vn 0.9994 -0.0351 -0.0000
vn 0.8655 -0.0356 0.4997
vn 0.9994 0.0351 0.0000
vn 0.8655 0.0351 0.4997
vn 0.9945 0.1049 0.0000
vn 0.8612 0.1056 0.4972
vn 0.9901 0.1402 0.0000
vn 0.8575 0.1402 0.4951
vn 0.4972 -0.1058 0.8612
vn 0.4951 -0.1402 0.8575
vn 0.4997 -0.0351 0.8655
vn 0.4997 0.0357 0.8655
vn 0.4972 0.1053 0.8612
vn 0.4951 0.1402 0.8575
vn 0.0000 -0.1402 0.9901
vn 0.0000 -0.1055 0.9944
vn 0.0000 -0.0351 0.9994
vn 0.0000 0.0351 0.9994
vn 0.0000 0.1049 0.9945
vn 0.0000 0.1402 0.9901
vn -0.4972 -0.1056 0.8612
vn -0.4951 -0.1402 0.8575
vn -0.4997 -0.0351 0.8655
vn -0.4997 0.0357 0.8655
vn -0.4972 0.1049 0.8612
vn -0.4951 0.1402 0.8575
vn -0.8575 -0.1402 0.4951
vn -0.8612 -0.1049 0.4972
vn -0.8655 -0.0351 0.4997
vn -0.8655 0.0351 0.4997
vn -0.8612 0.1058 0.4972
vn -0.8575 0.1402 0.4951
vn -0.9945 -0.1049 -0.0000
vn -0.9901 -0.1402 -0.0000
vn -0.9994 -0.0351 -0.0000
vn -0.9994 0.0351 0.0000
vn -0.9945 0.1049 0.0000
vn -0.9901 0.1402 0.0000
vn -0.8575 -0.1402 -0.4951
vn -0.8612 -0.1049 -0.4972
vn -0.8655 -0.0357 -0.4997
vn -0.8655 0.0351 -0.4997
vn -0.8612 0.1057 -0.4972
vn -0.8575 0.1402 -0.4951
vn -0.4972 -0.1056 -0.8612
vn -0.4951 -0.1402 -0.8575
vn -0.4997 -0.0351 -0.8655
vn -0.4997 0.0357 -0.8655
vn -0.4972 0.1053 -0.8612
vn -0.4951 0.1402 -0.8575
vn 0.0000 -0.1402 -0.9901
vn -0.0000 -0.1056 -0.9944
vn 0.0000 -0.0351 -0.9994
vn 0.0000 0.0351 -0.9994
vn 0.0000 0.1049 -0.9945
vn 0.0000 0.1402 -0.9901
vn 0.4972 -0.1057 -0.8612
vn 0.4951 -0.1402 -0.8575
vn 0.4997 -0.0351 -0.8655
vn 0.4997 0.0356 -0.8655
vn 0.4972 0.1049 -0.8612
vn 0.4951 0.1402 -0.8575
vn 0.8575 -0.1402 -0.4951
vn 0.8612 -0.1056 -0.4972
vn 0.8655 -0.0351 -0.4997
vn 0.8655 0.0351 -0.4997
vn 0.8612 0.1055 -0.4972
vn 0.8575 0.1402 -0.4951
usemtl Default_OBJ.034
s 1
f 1/1/1 2/2/2 3/3/3
f 2/2/2 4/4/4 3/3/3
f 2/2/2 5/5/5 6/6/6
f 2/2/2 6/6/6 4/4/4
f 5/5/5 7/7/7 6/6/6
f 7/7/7 8/8/8 6/6/6
f 7/7/7 9/9/9 10/10/10
f 7/7/7 10/10/10 8/8/8
f 9/9/9 11/11/11 10/10/10
f 11/11/11 12/12/12 10/10/10
f 3/3/3 4/4/4 13/13/13
f 3/3/3 13/13/13 14/14/14
f 4/4/4 6/6/6 13/13/13
f 6/6/6 15/15/15 13/13/13
f 6/6/6 8/8/8 16/16/16
f 6/6/6 16/16/16 15/15/15
f 8/8/8 10/10/10 16/16/16
f 10/10/10 17/17/17 16/16/16
f 10/10/10 12/12/12 18/18/18
f 10/10/10 18/18/18 17/17/17
f 14/14/14 13/13/13 19/19/19
f 13/13/13 20/20/20 19/19/19
f 13/13/13 15/15/15 21/21/21
f 13/13/13 21/21/21 20/20/20
f 15/15/15 16/16/16 21/21/21
f 16/16/16 22/22/22 21/21/21
f 16/16/16 17/17/17 23/23/23
f 16/16/16 23/23/23 22/22/22
f 17/17/17 18/18/18 23/23/23
f 18/18/18 24/24/24 23/23/23
f 19/25/19 20/26/20 25/27/25
f 19/25/19 25/27/25 26/28/26
f 20/26/20 21/29/21 25/27/25
f 21/29/21 27/30/27 25/27/25
f 21/29/21 22/31/22 28/32/28
f 21/29/21 28/32/28 27/30/27
f 22/31/22 23/33/23 28/32/28
f 23/33/23 29/34/29 28/32/28
f 23/33/23 24/35/24 30/36/30
f 23/33/23 30/36/30 29/34/29
f 26/28/26 25/27/25 31/37/31
f 25/27/25 32/38/32 31/37/31
f 25/27/25 27/30/27 33/39/33
f 25/27/25 33/39/33 32/38/32
f 27/30/27 28/32/28 33/39/33
f 28/32/28 34/40/34 33/39/33
f 28/32/28 29/34/29 35/41/35
f 28/32/28 35/41/35 34/40/34
f 29/34/29 30/36/30 35/41/35
f 30/36/30 36/42/36 35/41/35
f 31/37/31 32/38/32 37/43/37
f 31/37/31 37/43/37 38/44/38
f 32/38/32 33/39/33 37/43/37
f 33/39/33 39/45/39 37/43/37
f 33/39/33 34/40/34 40/46/40
f 33/39/33 40/46/40 39/45/39
f 34/40/34 35/41/35 40/46/40
f 35/41/35 41/47/41 40/46/40
f 35/41/35 36/42/36 42/48/42
f 35/41/35 42/48/42 41/47/41
f 38/44/38 37/43/37 43/49/43
f 37/43/37 44/50/44 43/49/43
f 37/43/37 39/45/39 45/51/45
f 37/43/37 45/51/45 44/50/44
f 39/45/39 40/46/40 45/51/45
f 40/46/40 46/52/46 45/51/45
f 40/46/40 41/47/41 47/53/47
f 40/46/40 47/53/47 46/52/46
f 41/47/41 42/48/42 47/53/47
f 42/48/42 48/54/48 47/53/47
f 43/49/43 44/50/44 49/55/49
f 43/49/43 49/55/49 50/56/50
f 44/50/44 45/51/45 49/55/49
f 45/51/45 51/57/51 49/55/49
f 45/51/45 46/52/46 52/58/52
f 45/51/45 52/58/52 51/57/51
f 46/52/46 47/53/47 52/58/52
f 47/53/47 53/59/53 52/58/52
f 47/53/47 48/54/48 54/60/54
f 47/53/47 54/60/54 53/59/53
f 50/56/50 49/55/49 55/61/55
f 49/55/49 56/62/56 55/61/55
f 49/55/49 51/57/51 57/63/57
f 49/55/49 57/63/57 56/62/56
f 51/57/51 52/58/52 57/63/57
f 52/58/52 58/64/58 57/63/57
f 52/58/52 53/59/53 59/65/59
f 52/58/52 59/65/59 58/64/58
f 53/59/53 54/60/54 59/65/59
f 54/60/54 60/66/60 59/65/59
f 55/67/55 56/68/56 61/69/61
f 55/67/55 61/69/61 62/70/62
f 56/68/56 57/71/57 61/69/61
f 57/71/57 63/72/63 61/69/61
f 57/71/57 58/73/58 64/74/64
f 57/71/57 64/74/64 63/72/63
f 58/73/58 59/75/59 64/74/64
f 59/75/59 65/76/65 64/74/64
f 59/75/59 60/77/60 66/78/66
f 59/75/59 66/78/66 65/76/65
f 62/70/62 61/69/61 67/79/67
f 61/69/61 68/80/68 67/79/67
f 61/69/61 63/72/63 69/81/69
f 61/69/61 69/81/69 68/80/68
f 63/72/63 64/74/64 69/81/69
f 64/74/64 70/82/70 69/81/69
f 64/74/64 65/76/65 71/83/71
f 64/74/64 71/83/71 70/82/70
f 65/76/65 66/78/66 71/83/71
f 66/78/66 72/84/72 71/83/71
f 67/79/67 68/80/68 2/2/2
f 67/79/67 2/2/2 1/1/1
f 68/80/68 69/81/69 2/2/2
f 69/81/69 5/5/5 2/2/2
f 69/81/69 70/82/70 7/7/7
f 69/81/69 7/7/7 5/5/5
f 70/82/70 71/83/71 7/7/7
f 71/83/71 9/9/9 7/7/7
f 71/83/71 72/84/72 11/11/11
f 71/83/71 11/11/11 9/9/9
o Converted_object_0(m1).001_Converted_object_0(m1).042
v 15.777778 0.010502 0.000000
v 0.000000 0.010502 0.000000
v 13.663956 0.010500 7.888889
v 16.662256 -4.433942 -0.000002
v 15.935555 -2.211721 -0.000000
v 13.800595 -2.211723 7.967778
v 14.005554 -4.433944 8.086109
v 7.888889 0.010498 13.663956
v 8.414439 -4.433947 14.574234
v 7.967778 -2.211725 13.800595
v 0.000000 0.010496 15.777778
v 0.000000 -2.211727 15.935555
v 0.000000 -4.433948 16.172222
v -7.888889 0.010498 13.663956
v -8.166972 -4.433947 14.145608
v -7.967778 -2.211725 13.800595
v -13.663956 0.010500 7.888889
v -13.800595 -2.211723 7.967778
v -14.429936 -4.433944 8.331126
v -15.777778 0.010502 0.000000
v -16.172222 -4.433942 -0.000002
v -15.935555 -2.211721 -0.000000
v -13.663956 0.010504 -7.888889
v -13.800595 -2.211719 -7.967780
v -14.287066 -4.433939 -8.248644
v -7.888889 0.010506 -13.663956
v -8.331128 -4.433937 -14.429938
v -7.967778 -2.211717 -13.800595
v 0.000000 0.010508 -15.777778
v 0.000000 -2.211715 -15.935555
v 0.000000 -4.433936 -16.172222
v 7.888889 0.010506 -13.663956
v 8.331128 -4.433937 -14.429938
v 7.967778 -2.211717 -13.800595
v 13.663956 0.010504 -7.888889
v 13.800595 -2.211719 -7.967780
v 14.005554 -4.433939 -8.086113
v 15.777778 -28.980492 -0.003115
v 0.000000 -28.980492 -0.003115
v 13.663956 -28.980488 -7.892004
v 16.662256 -24.536041 -0.003113
v 15.935555 -26.758266 -0.003113
v 13.800595 -26.758263 -7.970891
v 14.005554 -24.536037 -8.089224
v 7.888889 -28.980488 -13.667070
v 8.414439 -24.536037 -14.577349
v 7.967778 -26.758263 -13.803710
v 0.000000 -28.980488 -15.780892
v 0.000000 -26.758263 -15.938670
v 0.000000 -24.536037 -16.175335
v -7.888889 -28.980488 -13.667070
v -8.166972 -24.536037 -14.148723
v -7.967778 -26.758263 -13.803710
v -13.663956 -28.980488 -7.892004
v -13.800595 -26.758263 -7.970891
v -14.429936 -24.536037 -8.334240
v -15.777778 -28.980492 -0.003115
v -16.172222 -24.536041 -0.003113
v -15.935555 -26.758266 -0.003113
v -13.663956 -28.980495 7.885774
v -13.800595 -26.758270 7.964664
v -14.287066 -24.536045 8.245529
v -7.888889 -28.980495 13.660841
v -8.331128 -24.536045 14.426822
v -7.967778 -26.758270 13.797480
v 0.000000 -28.980495 15.774664
v 0.000000 -26.758270 15.932440
v 0.000000 -24.536045 16.169109
v 7.888889 -28.980495 13.660841
v 8.331128 -24.536045 14.426822
v 7.967778 -26.758270 13.797480
v 13.663956 -28.980495 7.885774
v 13.800595 -26.758270 7.964664
v 14.005554 -24.536045 8.083000
vt 0.111237 0.888545
vt 0.402394 0.597388
vt 0.298028 0.997321
vt 0.978696 0.003206
vt 0.978696 0.095656
vt 0.744455 0.095656
vt 0.744455 0.003206
vt 0.978696 0.188106
vt 0.744455 0.188106
vt 0.512785 0.998936
vt 0.510026 0.003206
vt 0.510026 0.095656
vt 0.510026 0.188106
vt 0.697962 0.892956
vt 0.978696 0.003206
vt 0.978696 0.095656
vt 0.744455 0.095656
vt 0.744455 0.003206
vt 0.978696 0.188106
vt 0.744455 0.188106
vt 0.803942 0.707779
vt 0.510026 0.003206
vt 0.510026 0.095656
vt 0.510026 0.188106
vt 0.802327 0.493022
vt 0.978696 0.003206
vt 0.978696 0.095656
vt 0.744455 0.095656
vt 0.744455 0.003206
vt 0.978696 0.188106
vt 0.744455 0.188106
vt 0.693551 0.306231
vt 0.510026 0.003206
vt 0.510026 0.095656
vt 0.510026 0.188106
vt 0.506759 0.197454
vt 0.978696 0.003206
vt 0.978696 0.095656
vt 0.744455 0.095656
vt 0.744455 0.003206
vt 0.978696 0.188106
vt 0.744455 0.188106
vt 0.292003 0.195840
vt 0.510026 0.003206
vt 0.510026 0.095656
vt 0.510026 0.188106
vt 0.106826 0.301820
vt 0.978696 0.003206
vt 0.978696 0.095656
vt 0.744455 0.095656
vt 0.744455 0.003206
vt 0.978696 0.188106
vt 0.744455 0.188106
vt 0.000846 0.486997
vt 0.510026 0.003206
vt 0.510026 0.095656
vt 0.510026 0.188106
vt 0.002460 0.701754
vt 0.978696 0.003206
vt 0.978696 0.095656
vt 0.744455 0.095656
vt 0.744455 0.003206
vt 0.978696 0.188106
vt 0.744455 0.188106
vt 0.510026 0.003206
vt 0.510026 0.095656
vt 0.510026 0.188106
vt 0.111237 0.888545
vt 0.402394 0.597388
vt 0.298028 0.997321
vt 0.978696 0.003206
vt 0.978696 0.095656
vt 0.744455 0.095656
vt 0.744455 0.003206
vt 0.978696 0.188106
vt 0.744455 0.188106
vt 0.512785 0.998936
vt 0.510026 0.003206
vt 0.510026 0.095656
vt 0.510026 0.188106
vt 0.697962 0.892956
vt 0.978696 0.003206
vt 0.978696 0.095656
vt 0.744455 0.095656
vt 0.744455 0.003206
vt 0.978696 0.188106
vt 0.744455 0.188106
vt 0.803942 0.707779
vt 0.510026 0.003206
vt 0.510026 0.095656
vt 0.510026 0.188106
vt 0.802327 0.493022
vt 0.978696 0.003206
vt 0.978696 0.095656
vt 0.744455 0.095656
vt 0.744455 0.003206
vt 0.978696 0.188106
vt 0.744455 0.188106
vt 0.693551 0.306231
vt 0.510026 0.003206
vt 0.510026 0.095656
vt 0.510026 0.188106
vt 0.506759 0.197454
vt 0.978696 0.003206
vt 0.978696 0.095656
vt 0.744455 0.095656
vt 0.744455 0.003206
vt 0.978696 0.188106
vt 0.744455 0.188106
vt 0.292003 0.195840
vt 0.510026 0.003206
vt 0.510026 0.095656
vt 0.510026 0.188106
vt 0.106826 0.301820
vt 0.978696 0.003206
vt 0.978696 0.095656
vt 0.744455 0.095656
vt 0.744455 0.003206
vt 0.978696 0.188106
vt 0.744455 0.188106
vt 0.000846 0.486997
vt 0.510026 0.003206
vt 0.510026 0.095656
vt 0.510026 0.188106
vt 0.002460 0.701754
vt 0.978696 0.003206
vt 0.978696 0.095656
vt 0.744455 0.095656
vt 0.744455 0.003206
vt 0.978696 0.188106
vt 0.744455 0.188106
vt 0.510026 0.003206
vt 0.510026 0.095656
vt 0.510026 0.188106
vn 0.7338 0.6794 0.0000
vn 0.0000 1.0000 0.0000
vn 0.6355 0.6794 0.3669
vn 0.9609 0.2770 0.0000
vn 0.9806 0.1962 0.0000
vn 0.8628 0.1094 0.4935
vn 0.8657 0.1059 0.4893
vn 0.3669 0.6794 0.6355
vn 0.4721 0.3295 0.8177
vn 0.4865 0.2304 0.8427
vn -0.0000 0.6794 0.7338
vn -0.0120 0.1035 0.9946
vn -0.0272 0.1059 0.9940
vn -0.3669 0.6794 0.6355
vn -0.4875 0.1823 0.8539
vn -0.4961 0.1249 0.8592
vn -0.6355 0.6794 0.3669
vn -0.8537 0.1815 0.4881
vn -0.8273 0.3108 0.4680
vn -0.7338 0.6794 0.0000
vn -0.9908 0.1355 -0.0016
vn -0.9961 0.0886 0.0000
vn -0.6355 0.6794 -0.3669
vn -0.8612 0.1579 -0.4831
vn -0.8523 0.2450 -0.4621
vn -0.3669 0.6794 -0.6355
vn -0.4760 0.2884 -0.8308
vn -0.4903 0.1962 -0.8492
vn -0.0000 0.6794 -0.7338
vn -0.0000 0.1064 -0.9943
vn 0.0000 0.1059 -0.9944
vn 0.3669 0.6794 -0.6355
vn 0.4804 0.2770 -0.8321
vn 0.4903 0.1962 -0.8492
vn 0.6355 0.6794 -0.3669
vn 0.8611 0.1064 -0.4972
vn 0.8612 0.1059 -0.4972
vn 0.7338 -0.6794 -0.0000
vn 0.0000 -1.0000 -0.0000
vn 0.6355 -0.6794 -0.3669
vn 0.9609 -0.2770 -0.0000
vn 0.9806 -0.1962 -0.0000
vn 0.8628 -0.1094 -0.4935
vn 0.8657 -0.1059 -0.4893
vn 0.3669 -0.6794 -0.6355
vn 0.4721 -0.3295 -0.8177
vn 0.4865 -0.2304 -0.8427
vn 0.0000 -0.6794 -0.7338
vn -0.0120 -0.1035 -0.9946
vn -0.0272 -0.1059 -0.9940
vn -0.3669 -0.6794 -0.6355
vn -0.4875 -0.1823 -0.8539
vn -0.4961 -0.1249 -0.8592
vn -0.6355 -0.6794 -0.3669
vn -0.8537 -0.1815 -0.4881
vn -0.8273 -0.3108 -0.4680
vn -0.7338 -0.6794 -0.0000
vn -0.9908 -0.1355 0.0016
vn -0.9961 -0.0886 0.0000
vn -0.6355 -0.6794 0.3669
vn -0.8612 -0.1579 0.4831
vn -0.8523 -0.2450 0.4621
vn -0.3669 -0.6794 0.6355
vn -0.4760 -0.2884 0.8308
vn -0.4903 -0.1962 0.8492
vn 0.0000 -0.6794 0.7338
vn 0.0000 -0.1064 0.9943
vn 0.0000 -0.1059 0.9944
vn 0.3669 -0.6794 0.6355
vn 0.4804 -0.2770 0.8321
vn 0.4903 -0.1962 0.8492
vn 0.6355 -0.6794 0.3669
vn 0.8611 -0.1064 0.4972
vn 0.8612 -0.1059 0.4972
usemtl Default_OBJ.035
s 1
f 73/85/73 74/86/74 75/87/75
f 76/88/76 77/89/77 78/90/78
f 76/88/76 78/90/78 79/91/79
f 77/89/77 73/92/73 78/90/78
f 73/92/73 75/93/75 78/90/78
f 75/87/75 74/86/74 80/94/80
f 79/91/79 78/90/78 81/95/81
f 78/90/78 82/96/82 81/95/81
f 78/90/78 75/93/75 80/97/80
f 78/90/78 80/97/80 82/96/82
f 80/94/80 74/86/74 83/98/83
f 81/99/81 82/100/82 84/101/84
f 81/99/81 84/101/84 85/102/85
f 82/100/82 80/103/80 84/101/84
f 80/103/80 83/104/83 84/101/84
f 83/98/83 74/86/74 86/105/86
f 85/102/85 84/101/84 87/106/87
f 84/101/84 88/107/88 87/106/87
f 84/101/84 83/104/83 86/108/86
f 84/101/84 86/108/86 88/107/88
f 86/105/86 74/86/74 89/109/89
f 87/110/87 88/111/88 90/112/90
f 87/110/87 90/112/90 91/113/91
f 88/111/88 86/114/86 90/112/90
f 86/114/86 89/115/89 90/112/90
f 89/109/89 74/86/74 92/116/92
f 91/113/91 90/112/90 93/117/93
f 90/112/90 94/118/94 93/117/93
f 90/112/90 89/115/89 92/119/92
f 90/112/90 92/119/92 94/118/94
f 92/116/92 74/86/74 95/120/95
f 93/121/93 94/122/94 96/123/96
f 93/121/93 96/123/96 97/124/97
f 94/122/94 92/125/92 96/123/96
f 92/125/92 95/126/95 96/123/96
f 95/120/95 74/86/74 98/127/98
f 97/124/97 96/123/96 99/128/99
f 96/123/96 100/129/100 99/128/99
f 96/123/96 95/126/95 98/130/98
f 96/123/96 98/130/98 100/129/100
f 98/127/98 74/86/74 101/131/101
f 99/132/99 100/133/100 102/134/102
f 99/132/99 102/134/102 103/135/103
f 100/133/100 98/136/98 102/134/102
f 98/136/98 101/137/101 102/134/102
f 101/131/101 74/86/74 104/138/104
f 103/135/103 102/134/102 105/139/105
f 102/134/102 106/140/106 105/139/105
f 102/134/102 101/137/101 104/141/104
f 102/134/102 104/141/104 106/140/106
f 104/138/104 74/86/74 107/142/107
f 105/143/105 106/144/106 108/145/108
f 105/143/105 108/145/108 109/146/109
f 106/144/106 104/147/104 108/145/108
f 104/147/104 107/148/107 108/145/108
f 107/142/107 74/86/74 73/85/73
f 109/146/109 108/145/108 76/149/76
f 108/145/108 77/150/77 76/149/76
f 108/145/108 107/148/107 73/151/73
f 108/145/108 73/151/73 77/150/77
f 110/152/110 111/153/111 112/154/112
f 113/155/113 114/156/114 115/157/115
f 113/155/113 115/157/115 116/158/116
f 114/156/114 110/159/110 115/157/115
f 110/159/110 112/160/112 115/157/115
f 112/154/112 111/153/111 117/161/117
f 116/158/116 115/157/115 118/162/118
f 115/157/115 119/163/119 118/162/118
f 115/157/115 112/160/112 117/164/117
f 115/157/115 117/164/117 119/163/119
f 117/161/117 111/153/111 120/165/120
f 118/166/118 119/167/119 121/168/121
f 118/166/118 121/168/121 122/169/122
f 119/167/119 117/170/117 121/168/121
f 117/170/117 120/171/120 121/168/121
f 120/165/120 111/153/111 123/172/123
f 122/169/122 121/168/121 124/173/124
f 121/168/121 125/174/125 124/173/124
f 121/168/121 120/171/120 123/175/123
f 121/168/121 123/175/123 125/174/125
f 123/172/123 111/153/111 126/176/126
f 124/177/124 125/178/125 127/179/127
f 124/177/124 127/179/127 128/180/128
f 125/178/125 123/181/123 127/179/127
f 123/181/123 126/182/126 127/179/127
f 126/176/126 111/153/111 129/183/129
f 128/180/128 127/179/127 130/184/130
f 127/179/127 131/185/131 130/184/130
f 127/179/127 126/182/126 129/186/129
f 127/179/127 129/186/129 131/185/131
f 129/183/129 111/153/111 132/187/132
f 130/188/130 131/189/131 133/190/133
f 130/188/130 133/190/133 134/191/134
f 131/189/131 129/192/129 133/190/133
f 129/192/129 132/193/132 133/190/133
f 132/187/132 111/153/111 135/194/135
f 134/191/134 133/190/133 136/195/136
f 133/190/133 137/196/137 136/195/136
f 133/190/133 132/193/132 135/197/135
f 133/190/133 135/197/135 137/196/137
f 135/194/135 111/153/111 138/198/138
f 136/199/136 137/200/137 139/201/139
f 136/199/136 139/201/139 140/202/140
f 137/200/137 135/203/135 139/201/139
f 135/203/135 138/204/138 139/201/139
f 138/198/138 111/153/111 141/205/141
f 140/202/140 139/201/139 142/206/142
f 139/201/139 143/207/143 142/206/142
f 139/201/139 138/204/138 141/208/141
f 139/201/139 141/208/141 143/207/143
f 141/205/141 111/153/111 144/209/144
f 142/210/142 143/211/143 145/212/145
f 142/210/142 145/212/145 146/213/146
f 143/211/143 141/214/141 145/212/145
f 141/214/141 144/215/144 145/212/145
f 144/209/144 111/153/111 110/152/110
f 146/213/146 145/212/145 113/216/113
f 145/212/145 114/217/114 113/216/113
f 145/212/145 144/215/144 110/218/110
f 145/212/145 110/218/110 114/217/114
