# Blender 4.0.1
# www.blender.org
mtllib TinkleBell.mtl
o Bell_Shell_Cylinder.002
v 0.000009 -0.418764 -1.012560
v 0.000009 1.962006 -0.852100
v 0.506290 -0.418764 -0.876902
v 0.426060 1.962006 -0.737940
v 0.876914 -0.418764 -0.506279
v 0.737952 1.962006 -0.426049
v 1.012571 -0.418764 0.000002
v 0.852112 1.962006 0.000002
v 0.876914 -0.418764 0.506283
v 0.737952 1.962006 0.426053
v 0.506290 -0.418764 0.876906
v 0.426060 1.962006 0.737944
v 0.000009 -0.418764 1.012564
v 0.000009 1.962006 0.852104
v -0.506271 -0.418764 0.876906
v -0.426042 1.962006 0.737944
v -0.876895 -0.418764 0.506283
v -0.737933 1.962006 0.426053
v -1.012553 -0.418764 0.000002
v -0.852093 1.962006 0.000002
v -0.876895 -0.418764 -0.506279
v -0.737933 1.962006 -0.426049
v -0.506272 -0.418764 -0.876902
v -0.426042 1.962006 -0.737940
v 0.611465 -0.424242 -1.059071
v 0.000009 -0.424242 -1.222910
v 1.059082 -0.424242 -0.611454
v 1.222921 -0.424242 0.000002
v 1.059082 -0.424242 0.611458
v 0.611465 -0.424242 1.059075
v 0.000009 -0.424242 1.222914
v -0.611447 -0.424242 1.059075
v -1.059064 -0.424242 0.611458
v -1.222903 -0.424242 0.000002
v -1.059064 -0.424242 -0.611454
v -0.611447 -0.424242 -1.059071
v 0.000009 2.578694 0.000002
v 0.000009 -0.929198 -1.796878
v 0.898449 -0.929198 -1.556142
v 1.556153 -0.929198 -0.898438
v 1.796890 -0.929198 0.000002
v 1.556153 -0.929198 0.898442
v 0.898449 -0.929198 1.556146
v 0.000009 -0.929198 1.796882
v -0.898431 -0.929198 1.556146
v -1.556135 -0.929198 0.898442
v -1.796871 -0.929198 0.000002
v -1.556135 -0.929198 -0.898438
v -0.898431 -0.929198 -1.556142
v 0.000009 2.282456 0.000002
vn -0.0000 -0.5362 -0.8441
vn 0.4312 0.5063 -0.7468
vn 0.4220 -0.5362 -0.7310
vn 0.7468 0.5063 -0.4312
vn 0.7310 -0.5362 -0.4220
vn 0.8624 0.5063 -0.0000
vn 0.8441 -0.5362 -0.0000
vn 0.7468 0.5063 0.4312
vn 0.7310 -0.5362 0.4220
vn 0.4312 0.5063 0.7468
vn 0.4220 -0.5362 0.7310
vn -0.0000 0.5063 0.8624
vn -0.0000 -0.5362 0.8441
vn -0.4312 0.5063 0.7468
vn -0.4220 -0.5362 0.7310
vn -0.7468 0.5063 0.4312
vn -0.7310 -0.5363 0.4220
vn -0.8624 0.5063 -0.0000
vn -0.8441 -0.5362 -0.0000
vn -0.7468 0.5063 -0.4312
vn -0.7310 -0.5362 -0.4220
vn -0.4312 0.5063 -0.7468
vn -0.4220 -0.5362 -0.7310
vn -0.0000 0.5063 -0.8624
vn -0.0000 0.4956 -0.8686
vn 0.4343 0.4956 -0.7522
vn 0.7522 0.4956 -0.4343
vn 0.8686 0.4956 -0.0000
vn 0.7522 0.4956 0.4343
vn 0.4343 0.4956 0.7522
vn -0.0000 0.4956 0.8686
vn -0.4343 0.4956 0.7522
vn -0.7522 0.4956 0.4343
vn -0.8686 0.4956 -0.0000
vn -0.7522 0.4956 -0.4343
vn -0.4343 0.4956 -0.7522
vn -0.0000 1.0000 -0.0000
vn -0.3790 -0.6523 0.6564
vn -0.6564 -0.6523 0.3790
vn -0.7580 -0.6523 -0.0000
vn -0.6564 -0.6523 -0.3790
vn -0.3790 -0.6523 -0.6564
vn -0.0000 -0.6523 -0.7580
vn 0.3790 -0.6523 -0.6564
vn 0.6564 -0.6523 -0.3790
vn 0.7580 -0.6523 -0.0000
vn 0.6564 -0.6523 0.3790
vn 0.3790 -0.6523 0.6564
vn -0.0000 -0.6523 0.7580
vn -0.0000 -1.0000 -0.0000
vt 1.000000 0.500000
vt 0.916667 1.000000
vt 0.916667 0.500000
vt 0.833333 1.000000
vt 0.833333 0.500000
vt 0.750000 1.000000
vt 0.750000 0.500000
vt 0.666667 1.000000
vt 0.666667 0.500000
vt 0.583333 1.000000
vt 0.583333 0.500000
vt 0.500000 1.000000
vt 0.500000 0.500000
vt 0.416667 1.000000
vt 0.416667 0.500000
vt 0.333333 1.000000
vt 0.333333 0.500000
vt 0.250000 1.000000
vt 0.250000 0.500000
vt 0.166667 1.000000
vt 0.166667 0.500000
vt 0.083333 1.000000
vt 0.083333 0.500000
vt 0.000000 1.000000
vt 0.000000 0.500000
vt 0.250000 0.437017
vt 0.370000 0.457846
vt 0.250000 0.490000
vt 0.343508 0.411961
vt 0.457846 0.370000
vt 0.411961 0.343508
vt 0.490000 0.250000
vt 0.437017 0.250000
vt 0.457846 0.130000
vt 0.411961 0.156492
vt 0.370000 0.042154
vt 0.343508 0.088039
vt 0.250000 0.010000
vt 0.250000 0.062983
vt 0.130000 0.042154
vt 0.156492 0.088039
vt 0.042154 0.130000
vt 0.088039 0.156492
vt 0.010000 0.250000
vt 0.062983 0.250000
vt 0.042154 0.370000
vt 0.088039 0.343508
vt 0.130000 0.457846
vt 0.156491 0.411961
vt 0.250000 0.250000
vt 0.840877 0.407404
vt 0.750000 0.490000
vt 0.870000 0.457846
vt 0.907404 0.340877
vt 0.957846 0.370000
vt 0.931754 0.250000
vt 0.990000 0.250000
vt 0.907404 0.159123
vt 0.957846 0.130000
vt 0.840877 0.092596
vt 0.870000 0.042154
vt 0.750000 0.068246
vt 0.750000 0.010000
vt 0.659123 0.092596
vt 0.630000 0.042154
vt 0.592596 0.159123
vt 0.542154 0.130000
vt 0.568246 0.250000
vt 0.510000 0.250000
vt 0.592596 0.340877
vt 0.542154 0.370000
vt 0.659123 0.407404
vt 0.630000 0.457846
vt 0.750000 0.431754
vt 0.750000 0.250000
vt 1.000000 1.000000
s 1
usemtl Material.001
f 38/1/1 25/2/2 39/3/3
f 39/3/3 27/4/4 40/5/5
f 40/5/5 28/6/6 41/7/7
f 41/7/7 29/8/8 42/9/9
f 42/9/9 30/10/10 43/11/11
f 43/11/11 31/12/12 44/13/13
f 44/13/13 32/14/14 45/15/15
f 45/15/15 33/16/16 46/17/17
f 46/17/17 34/18/18 47/19/19
f 47/19/19 35/20/20 48/21/21
f 48/21/21 36/22/22 49/23/23
f 49/23/23 26/24/24 38/25/1
f 2/26/25 25/27/2 26/28/24
f 4/29/26 27/30/4 25/27/2
f 6/31/27 28/32/6 27/30/4
f 8/33/28 29/34/8 28/32/6
f 10/35/29 30/36/10 29/34/8
f 12/37/30 31/38/12 30/36/10
f 14/39/31 32/40/14 31/38/12
f 16/41/32 33/42/16 32/40/14
f 18/43/33 34/44/18 33/42/16
f 20/45/34 35/46/20 34/44/18
f 22/47/35 36/48/22 35/46/20
f 24/49/36 26/28/24 36/48/22
f 4/29/26 2/26/25 37/50/37
f 2/26/25 24/49/36 37/50/37
f 24/49/36 22/47/35 37/50/37
f 22/47/35 20/45/34 37/50/37
f 20/45/34 18/43/33 37/50/37
f 18/43/33 16/41/32 37/50/37
f 16/41/32 14/39/31 37/50/37
f 14/39/31 12/37/30 37/50/37
f 12/37/30 10/35/29 37/50/37
f 10/35/29 8/33/28 37/50/37
f 8/33/28 6/31/27 37/50/37
f 6/31/27 4/29/26 37/50/37
f 3/51/38 38/52/1 39/53/3
f 5/54/39 39/53/3 40/55/5
f 7/56/40 40/55/5 41/57/7
f 9/58/41 41/57/7 42/59/9
f 11/60/42 42/59/9 43/61/11
f 13/62/43 43/61/11 44/63/13
f 15/64/44 44/63/13 45/65/15
f 17/66/45 45/65/15 46/67/17
f 19/68/46 46/67/17 47/69/19
f 21/70/47 47/69/19 48/71/21
f 23/72/48 48/71/21 49/73/23
f 1/74/49 49/73/23 38/52/1
f 1/74/49 3/51/38 50/75/50
f 3/51/38 5/54/39 50/75/50
f 5/54/39 7/56/40 50/75/50
f 7/56/40 9/58/41 50/75/50
f 9/58/41 11/60/42 50/75/50
f 11/60/42 13/62/43 50/75/50
f 13/62/43 15/64/44 50/75/50
f 15/64/44 17/66/45 50/75/50
f 17/66/45 19/68/46 50/75/50
f 19/68/46 21/70/47 50/75/50
f 21/70/47 23/72/48 50/75/50
f 23/72/48 1/74/49 50/75/50
f 38/1/1 26/76/24 25/2/2
f 39/3/3 25/2/2 27/4/4
f 40/5/5 27/4/4 28/6/6
f 41/7/7 28/6/6 29/8/8
f 42/9/9 29/8/8 30/10/10
f 43/11/11 30/10/10 31/12/12
f 44/13/13 31/12/12 32/14/14
f 45/15/15 32/14/14 33/16/16
f 46/17/17 33/16/16 34/18/18
f 47/19/19 34/18/18 35/20/20
f 48/21/21 35/20/20 36/22/22
f 49/23/23 36/22/22 26/24/24
f 2/26/25 4/29/26 25/27/2
f 4/29/26 6/31/27 27/30/4
f 6/31/27 8/33/28 28/32/6
f 8/33/28 10/35/29 29/34/8
f 10/35/29 12/37/30 30/36/10
f 12/37/30 14/39/31 31/38/12
f 14/39/31 16/41/32 32/40/14
f 16/41/32 18/43/33 33/42/16
f 18/43/33 20/45/34 34/44/18
f 20/45/34 22/47/35 35/46/20
f 22/47/35 24/49/36 36/48/22
f 24/49/36 2/26/25 26/28/24
f 3/51/38 1/74/49 38/52/1
f 5/54/39 3/51/38 39/53/3
f 7/56/40 5/54/39 40/55/5
f 9/58/41 7/56/40 41/57/7
f 11/60/42 9/58/41 42/59/9
f 13/62/43 11/60/42 43/61/11
f 15/64/44 13/62/43 44/63/13
f 17/66/45 15/64/44 45/65/15
f 19/68/46 17/66/45 46/67/17
f 21/70/47 19/68/46 47/69/19
f 23/72/48 21/70/47 48/71/21
f 1/74/49 23/72/48 49/73/23
o Handle_Cylinder.005
v 0.091359 2.373234 -0.158220
v 0.000009 2.373234 -0.182697
v 0.158232 2.373234 -0.091348
v 0.182709 2.373234 0.000002
v 0.158232 2.373234 0.091352
v 0.091359 2.373234 0.158224
v 0.000009 2.373234 0.182701
v -0.091340 2.373234 0.158224
v -0.158213 2.373234 0.091352
v -0.182690 2.373234 0.000002
v -0.158213 2.373234 -0.091348
v -0.091340 2.373234 -0.158220
v 0.058384 6.232495 -0.101107
v 0.000009 6.232495 -0.116748
v 0.101118 6.232495 -0.058373
v 0.116759 6.232495 0.000002
v 0.101118 6.232495 0.058377
v 0.058384 6.232495 0.101111
v 0.000009 6.232495 0.116752
v -0.058366 6.232495 0.101111
v -0.101099 6.232495 0.058377
v -0.116741 6.232495 0.000002
v -0.101099 6.232495 -0.058373
v -0.058366 6.232495 -0.101107
v 0.119415 6.038127 -0.206814
v 0.000009 6.038127 -0.238808
v 0.206825 6.038127 -0.119403
v 0.238820 6.038127 0.000002
v 0.206825 6.038127 0.119407
v 0.119415 6.038127 0.206818
v 0.000009 6.038127 0.238813
v -0.119396 6.038127 0.206818
v -0.206807 6.038127 0.119407
v -0.238801 6.038127 0.000002
v -0.206807 6.038127 -0.119403
v -0.119396 6.038127 -0.206814
v 0.097654 6.161205 -0.169123
v 0.000009 6.161205 -0.195287
v 0.169135 6.161205 -0.097643
v 0.195298 6.161205 0.000002
v 0.169135 6.161205 0.097647
v 0.097654 6.161205 0.169127
v 0.000009 6.161205 0.195291
v -0.097635 6.161205 0.169127
v -0.169116 6.161205 0.097647
v -0.195280 6.161205 0.000002
v -0.169116 6.161205 -0.097643
v -0.097635 6.161205 -0.169123
v 0.000009 6.263365 0.000002
vn 0.4938 0.1571 -0.8553
vn 0.4999 -0.0153 -0.8659
vn -0.0000 -0.0153 -0.9999
vn 0.8553 0.1571 -0.4938
vn 0.8659 -0.0153 -0.4999
vn 0.9876 0.1571 -0.0000
vn 0.9999 -0.0153 -0.0000
vn 0.8553 0.1571 0.4938
vn 0.8659 -0.0153 0.4999
vn 0.4938 0.1571 0.8553
vn 0.4999 -0.0153 0.8659
vn -0.0000 0.1571 0.9876
vn -0.0000 -0.0153 0.9999
vn -0.4938 0.1571 0.8553
vn -0.4999 -0.0153 0.8659
vn -0.8553 0.1571 0.4938
vn -0.8659 -0.0153 0.4999
vn -0.9876 0.1571 -0.0000
vn -0.9999 -0.0153 -0.0000
vn -0.8553 0.1571 -0.4938
vn -0.8659 -0.0153 -0.4999
vn -0.4938 0.1571 -0.8553
vn -0.4999 -0.0153 -0.8659
vn -0.0000 0.1571 -0.9876
vn 0.4222 0.5358 -0.7312
vn 0.7312 0.5358 -0.4222
vn 0.8443 0.5358 -0.0000
vn 0.7312 0.5358 0.4222
vn 0.4222 0.5358 0.7312
vn -0.0000 0.5358 0.8443
vn -0.4222 0.5358 0.7312
vn -0.7312 0.5358 0.4222
vn -0.8443 0.5358 -0.0000
vn -0.7312 0.5358 -0.4222
vn -0.4222 0.5358 -0.7312
vn -0.0000 0.5358 -0.8443
vn 0.2534 0.8621 -0.4389
vn 0.4389 0.8621 -0.2534
vn 0.5068 0.8621 -0.0000
vn 0.4389 0.8621 0.2534
vn 0.2534 0.8621 0.4389
vn -0.0000 0.8621 0.5068
vn -0.2534 0.8621 0.4389
vn -0.4389 0.8621 0.2534
vn -0.5068 0.8621 -0.0000
vn -0.4389 0.8621 -0.2534
vn -0.2534 0.8621 -0.4389
vn -0.0000 0.8621 -0.5068
vn -0.0000 1.0000 -0.0000
vt 0.916667 1.000000
vt 1.000000 1.000000
vt 0.833333 1.000000
vt 0.750000 1.000000
vt 0.666667 1.000000
vt 0.583333 1.000000
vt 0.500000 1.000000
vt 0.416667 1.000000
vt 0.333333 1.000000
vt 0.250000 1.000000
vt 0.166667 1.000000
vt 0.083333 1.000000
vt 0.770869 1.000000
vt 0.745846 1.000000
vt 0.695148 1.000000
vt 0.635974 1.000000
vt 0.573417 1.000000
vt 0.509917 1.000000
vt 0.447360 1.000000
vt 0.388185 1.000000
vt 0.337488 1.000000
vt 0.312464 1.000000
vt 0.402757 1.000000
vt 0.680576 1.000000
vt 0.664781 1.000000
vt 0.671690 1.000000
vt 0.646834 1.000000
vt 0.608509 1.000000
vt 0.564485 1.000000
vt 0.518848 1.000000
vt 0.474824 1.000000
vt 0.436499 1.000000
vt 0.411643 1.000000
vt 0.418552 1.000000
vt 0.485718 1.000000
vt 0.597616 1.000000
vt 0.541667 1.000000
s 1
usemtl Material.002
f 75/77/51 51/77/52 52/78/53
f 77/79/54 53/79/55 51/77/52
f 78/80/56 54/80/57 53/79/55
f 79/81/58 55/81/59 54/80/57
f 80/82/60 56/82/61 55/81/59
f 81/83/62 57/83/63 56/82/61
f 82/84/64 58/84/65 57/83/63
f 83/85/66 59/85/67 58/84/65
f 84/86/68 60/86/69 59/85/67
f 85/87/70 61/87/71 60/86/69
f 86/88/72 62/88/73 61/87/71
f 76/78/74 52/78/53 62/88/73
f 87/89/75 75/77/51 76/78/74
f 89/90/76 77/79/54 75/77/51
f 90/91/77 78/80/56 77/79/54
f 91/92/78 79/81/58 78/80/56
f 92/93/79 80/82/60 79/81/58
f 93/94/80 81/83/62 80/82/60
f 94/95/81 82/84/64 81/83/62
f 95/96/82 83/85/66 82/84/64
f 96/97/83 84/86/68 83/85/66
f 97/98/84 85/87/70 84/86/68
f 98/99/85 86/88/72 85/87/70
f 88/100/86 76/78/74 86/88/72
f 63/101/87 87/89/75 88/100/86
f 65/102/88 89/90/76 87/89/75
f 66/103/89 90/91/77 89/90/76
f 67/104/90 91/92/78 90/91/77
f 68/105/91 92/93/79 91/92/78
f 69/106/92 93/94/80 92/93/79
f 70/107/93 94/95/81 93/94/80
f 71/108/94 95/96/82 94/95/81
f 72/109/95 96/97/83 95/96/82
f 73/110/96 97/98/84 96/97/83
f 74/111/97 98/99/85 97/98/84
f 64/112/98 88/100/86 98/99/85
f 69/106/92 99/113/99 70/107/93
f 68/105/91 99/113/99 69/106/92
f 67/104/90 99/113/99 68/105/91
f 66/103/89 99/113/99 67/104/90
f 65/102/88 99/113/99 66/103/89
f 63/101/87 99/113/99 65/102/88
f 64/112/98 99/113/99 63/101/87
f 74/111/97 99/113/99 64/112/98
f 73/110/96 99/113/99 74/111/97
f 72/109/95 99/113/99 73/110/96
f 71/108/94 99/113/99 72/109/95
f 70/107/93 99/113/99 71/108/94
f 75/77/51 52/78/53 76/78/74
f 77/79/54 51/77/52 75/77/51
f 78/80/56 53/79/55 77/79/54
f 79/81/58 54/80/57 78/80/56
f 80/82/60 55/81/59 79/81/58
f 81/83/62 56/82/61 80/82/60
f 82/84/64 57/83/63 81/83/62
f 83/85/66 58/84/65 82/84/64
f 84/86/68 59/85/67 83/85/66
f 85/87/70 60/86/69 84/86/68
f 86/88/72 61/87/71 85/87/70
f 76/78/74 62/88/73 86/88/72
f 87/89/75 76/78/74 88/100/86
f 89/90/76 75/77/51 87/89/75
f 90/91/77 77/79/54 89/90/76
f 91/92/78 78/80/56 90/91/77
f 92/93/79 79/81/58 91/92/78
f 93/94/80 80/82/60 92/93/79
f 94/95/81 81/83/62 93/94/80
f 95/96/82 82/84/64 94/95/81
f 96/97/83 83/85/66 95/96/82
f 97/98/84 84/86/68 96/97/83
f 98/99/85 85/87/70 97/98/84
f 88/100/86 86/88/72 98/99/85
f 63/101/87 88/100/86 64/112/98
f 65/102/88 87/89/75 63/101/87
f 66/103/89 89/90/76 65/102/88
f 67/104/90 90/91/77 66/103/89
f 68/105/91 91/92/78 67/104/90
f 69/106/92 92/93/79 68/105/91
f 70/107/93 93/94/80 69/106/92
f 71/108/94 94/95/81 70/107/93
f 72/109/95 95/96/82 71/108/94
f 73/110/96 96/97/83 72/109/95
f 74/111/97 97/98/84 73/110/96
f 64/112/98 98/99/85 74/111/97
