# Blender v3.1.2 OBJ File: ''
# www.blender.org
mtllib WoodBlockHigh.mtl
o WoodBlockHigh
v 1.443281 -0.947888 0.810087
v 1.716218 -0.797888 0.810087
v 1.453057 -0.947888 2.301352
v 1.727846 -0.797888 2.301352
v 1.716218 -0.153572 0.810087
v 1.443281 -0.003572 0.810087
v 1.727846 -0.153572 2.301352
v 1.453057 -0.003572 2.301352
v 1.259147 -0.797888 2.770105
v 1.188086 -0.947888 2.537524
v 1.188086 -0.003572 2.537524
v 1.259147 -0.153572 2.770105
v -1.150349 -0.947888 2.544533
v -1.218477 -0.797888 2.778802
v -1.218477 -0.153572 2.778802
v -1.150349 -0.003572 2.544533
v -1.710703 -0.797888 2.332770
v -1.437766 -0.947888 2.332770
v -1.437766 -0.003572 2.332770
v -1.710703 -0.153572 2.332770
v -1.447542 -0.947888 0.841505
v -1.722331 -0.797888 0.841505
v -1.722331 -0.153572 0.841505
v -1.447542 -0.003572 0.841505
v -1.270678 -0.797888 0.372752
v -1.199617 -0.947888 0.605333
v -1.199617 -0.003572 0.605333
v -1.270678 -0.153572 0.372752
v 1.138819 -0.947888 0.598323
v 1.206947 -0.797888 0.364054
v 1.206947 -0.153572 0.364054
v 1.138819 -0.003572 0.598323
v 1.716218 -0.797888 0.810087
v 1.716218 -0.153572 0.810087
v 1.727846 -0.153572 2.301352
v 1.727846 -0.797888 2.301352
v 1.259147 -0.797888 2.770105
v 1.259147 -0.153572 2.770105
v -1.218477 -0.153572 2.778802
v -1.218477 -0.797888 2.778802
v -1.710703 -0.797888 2.332770
v -1.710703 -0.153572 2.332770
v -1.722331 -0.153572 0.841505
v -1.722331 -0.797888 0.841505
v -1.270678 -0.797888 0.372752
v -1.270678 -0.153572 0.372752
v 1.206947 -0.153572 0.364054
v 1.206947 -0.797888 0.364054
v 1.443281 -0.947888 0.810087
v 1.453057 -0.947888 2.301352
v -0.005765 -0.947888 1.571429
v 1.443281 -0.003572 0.810087
v -0.005765 -0.003572 1.571429
v 1.453057 -0.003572 2.301352
v 1.188086 -0.947888 2.537524
v 1.188086 -0.003572 2.537524
v -1.150349 -0.947888 2.544533
v -1.150349 -0.003572 2.544533
v -1.437766 -0.947888 2.332770
v -1.437766 -0.003572 2.332770
v -1.447542 -0.947888 0.841505
v -1.447542 -0.003572 0.841505
v -1.199617 -0.947888 0.605333
v -1.199617 -0.003572 0.605333
v 1.138819 -0.947888 0.598323
v 1.138819 -0.003572 0.598323
vt 0.915475 0.667597
vt 0.993971 0.745821
vt 0.915971 0.102017
vt 0.995000 0.180237
vt 0.993971 0.824604
vt 0.915475 0.903945
vt 0.995000 0.259020
vt 0.915971 0.338365
vt 0.859475 0.003422
vt 0.839399 0.012991
vt 0.839399 0.249339
vt 0.859475 0.082205
vt 0.166857 0.015121
vt 0.146900 0.005196
vt 0.146900 0.083979
vt 0.166857 0.251468
vt 0.006029 0.175361
vt 0.084525 0.096020
vt 0.084525 0.332368
vt 0.006029 0.254144
vt 0.084029 0.661600
vt 0.005000 0.740945
vt 0.005000 0.819728
vt 0.084029 0.897948
vt 0.135623 0.917795
vt 0.155699 0.750661
vt 0.155699 0.987009
vt 0.135623 0.996578
vt 0.828241 0.748532
vt 0.848198 0.916021
vt 0.848198 0.994804
vt 0.828241 0.984880
vt 0.993971 0.745821
vt 0.993971 0.824604
vt 0.995000 0.259020
vt 0.995000 0.180237
vt 0.859475 0.003422
vt 0.859475 0.082205
vt 0.146900 0.083979
vt 0.146900 0.005196
vt 0.006029 0.175361
vt 0.006029 0.254144
vt 0.005000 0.819728
vt 0.005000 0.740945
vt 0.135623 0.917795
vt 0.135623 0.996578
vt 0.848198 0.994804
vt 0.848198 0.916021
vt 0.915475 0.667597
vt 0.915971 0.102017
vt 0.497549 0.381826
vt 0.915475 0.903945
vt 0.497549 0.618174
vt 0.915971 0.338365
vt 0.839399 0.012991
vt 0.839399 0.249339
vt 0.166857 0.015121
vt 0.166857 0.251468
vt 0.084525 0.096020
vt 0.084525 0.332368
vt 0.084029 0.661600
vt 0.084029 0.897948
vt 0.155699 0.750661
vt 0.155699 0.987009
vt 0.828241 0.748532
vt 0.828241 0.984880
vn 0.4494 -0.8177 -0.3599
vn 0.4613 -0.8685 -0.1816
vn 0.4545 -0.8523 0.2588
vn 0.4730 -0.8665 0.1593
vn 0.4741 0.8627 -0.1762
vn 0.4432 0.8461 -0.2961
vn 0.4669 0.8692 0.1628
vn 0.4589 0.8407 0.2874
vn 0.1911 -0.8460 0.4978
vn 0.1972 -0.8502 0.4881
vn 0.2165 0.8446 0.4897
vn 0.1947 0.8503 0.4889
vn -0.1983 -0.8422 0.5014
vn -0.1817 -0.8513 0.4922
vn -0.1750 0.8434 0.5080
vn -0.1666 0.8517 0.4969
vn -0.4629 -0.8683 0.1780
vn -0.4523 -0.8231 0.3435
vn -0.4460 0.8475 0.2877
vn -0.4744 0.8631 0.1731
vn -0.4578 -0.8532 -0.2500
vn -0.4733 -0.8670 -0.1559
vn -0.4688 0.8689 -0.1586
vn -0.4613 0.8450 -0.2706
vn -0.1959 -0.8470 -0.4941
vn -0.2085 -0.8497 -0.4843
vn -0.2232 0.8453 -0.4854
vn -0.1984 0.8502 -0.4877
vn 0.1924 -0.8416 -0.5047
vn 0.1782 -0.8514 -0.4933
vn 0.1703 0.8425 -0.5110
vn 0.1581 0.8518 -0.4994
vn 0.9091 -0.0000 -0.4166
vn 0.9254 -0.0000 0.3791
vn 0.3843 -0.0000 0.9232
vn -0.3582 -0.0000 0.9336
vn -0.9126 -0.0000 0.4089
vn -0.9288 0.0000 -0.3705
vn -0.3929 0.0000 -0.9196
vn 0.3503 0.0000 -0.9366
vn 0.0000 -1.0000 -0.0000
vn -0.0000 1.0000 0.0000

s 1
f 1/1/1 2/2/2 3/3/3
f 2/2/2 4/4/4 3/3/3
f 5/5/5 6/6/6 7/7/7
f 6/6/6 8/8/8 7/7/7
f 3/3/3 4/4/4 9/9/9
f 3/3/3 9/9/9 10/10/10
f 7/7/7 8/8/8 11/11/11
f 7/7/7 11/11/11 12/12/12
f 10/10/10 9/9/9 13/13/13
f 9/9/9 14/14/14 13/13/13
f 12/12/12 11/11/11 15/15/15
f 11/11/11 16/16/16 15/15/15
f 13/13/13 14/14/14 17/17/17
f 13/13/13 17/17/17 18/18/18
f 15/15/15 16/16/16 19/19/19
f 15/15/15 19/19/19 20/20/20
f 18/18/18 17/17/17 21/21/21
f 17/17/17 22/22/22 21/21/21
f 20/20/20 19/19/19 23/23/23
f 19/19/19 24/24/24 23/23/23
f 21/21/21 22/22/22 25/25/25
f 21/21/21 25/25/25 26/26/26
f 23/23/23 24/24/24 27/27/27
f 23/23/23 27/27/27 28/28/28
f 26/26/26 25/25/25 29/29/29
f 25/25/25 30/30/30 29/29/29
f 28/28/28 27/27/27 31/31/31
f 27/27/27 32/32/32 31/31/31
f 29/29/29 30/30/30 2/2/2
f 29/29/29 2/2/2 1/1/1
f 31/31/31 32/32/32 6/6/6
f 31/31/31 6/6/6 5/5/5
f 33/33/33 34/34/33 35/35/34
f 33/33/33 35/35/34 36/36/34
f 36/36/34 35/35/34 37/37/35
f 35/35/34 38/38/35 37/37/35
f 37/37/35 38/38/35 39/39/36
f 37/37/35 39/39/36 40/40/36
f 40/40/36 39/39/36 41/41/37
f 39/39/36 42/42/37 41/41/37
f 41/41/37 42/42/37 43/43/38
f 41/41/37 43/43/38 44/44/38
f 44/44/38 43/43/38 45/45/39
f 43/43/38 46/46/39 45/45/39
f 45/45/39 46/46/39 47/47/40
f 45/45/39 47/47/40 48/48/40
f 48/48/40 47/47/40 33/33/33
f 47/47/40 34/34/33 33/33/33
f 49/49/41 50/50/41 51/51/41
f 52/52/42 53/53/42 54/54/42
f 50/50/41 55/55/41 51/51/41
f 54/54/42 53/53/42 56/56/42
f 55/55/41 57/57/41 51/51/41
f 56/56/42 53/53/42 58/58/42
f 57/57/41 59/59/41 51/51/41
f 58/58/42 53/53/42 60/60/42
f 59/59/41 61/61/41 51/51/41
f 60/60/42 53/53/42 62/62/42
f 61/61/41 63/63/41 51/51/41
f 62/62/42 53/53/42 64/64/42
f 63/63/41 65/65/41 51/51/41
f 64/64/42 53/53/42 66/66/42
f 65/65/41 49/49/41 51/51/41
f 66/66/42 53/53/42 52/52/42
