# created by: Biturn ver 0.88
# http://mirex.mypage.sk
# ------------------------------------
# 102 vertices, 108 polygons, 324 points, 1 materials




#-- object 'Converted object 0' --
# 102 vertices, 108 polygons, 324 points

g Converted object 0

# vertexs: 102
v 0.052361 12.000184 -2.008403
v -0.052361 12.000184 -2.008403
v 0.052954 12.136127 -2.515756
v -0.052954 12.136127 -2.515756
v 0.054575 12.507532 -2.887164
v -0.054575 12.507532 -2.887164
v 0.056788 13.014880 -3.023109
v -0.056788 13.014880 -3.023109
v 0.130819 29.981384 -3.023132
v -0.130819 29.981384 -3.023132
v 0.135247 30.996084 -2.008423
v -0.135247 30.996084 -2.008423
v 0.130819 29.981384 -3.023132
v 0.133033 30.488758 -2.887146
v -0.130819 29.981384 -3.023132
v -0.133033 30.488758 -2.887146
v 0.134654 30.860153 -2.515747
v -0.134654 30.860153 -2.515747
v 0.135247 30.996084 1.991577
v 0.134654 30.860153 2.498962
v -0.135247 30.996084 1.991577
v -0.134654 30.860153 2.498962
v 0.133033 30.488758 2.870361
v -0.133033 30.488758 2.870361
v 0.130819 29.981384 3.006287
v -0.130819 29.981384 3.006287
v 0.056788 13.014855 3.006287
v 0.054575 12.507536 2.870361
v -0.056788 13.014855 3.006287
v -0.054575 12.507536 2.870361
v 0.052954 12.136141 2.498962
v -0.052954 12.136141 2.498962
v 0.052361 12.000155 1.991577
v -0.052361 12.000155 1.991577
v 0.488603 13.991770 -0.008403
v 0.052361 12.000184 -2.008403
v 0.493348 14.127631 -0.515757
v 0.052954 12.136127 -2.515756
v 0.506310 14.498814 -0.887164
v 0.054575 12.507532 -2.887164
v 0.524016 15.005857 -1.023109
v 0.056788 13.014880 -3.023109
v 0.976546 27.964624 -1.023132
v 0.130819 29.981384 -3.023132
v 1.011959 28.978716 -0.008423
v 0.135247 30.996084 -2.008423
v 0.976546 27.964624 -1.023132
v 0.994254 28.471701 -0.887146
v 0.130819 29.981384 -3.023132
v 0.133033 30.488758 -2.887146
v 1.007215 28.842875 -0.515747
v 0.134654 30.860153 -2.515747
v 1.011959 28.978716 -0.008423
v 1.007215 28.842875 0.498962
v 0.135247 30.996084 1.991577
v 0.134654 30.860153 2.498962
v 0.994254 28.471701 0.870361
v 0.133033 30.488758 2.870361
v 0.976546 27.964624 1.006287
v 0.130819 29.981384 3.006287
v 0.524015 15.005833 1.006287
v 0.506310 14.498817 0.870361
v 0.056788 13.014855 3.006287
v 0.054575 12.507536 2.870361
v 0.493348 14.127645 0.498962
v 0.052954 12.136141 2.498962
v 0.488602 13.991741 -0.008423
v 0.052361 12.000155 1.991577
v -0.052361 12.000184 -2.008403
v -0.488603 13.991770 -0.008403
v -0.052954 12.136127 -2.515756
v -0.493348 14.127631 -0.515757
v -0.054575 12.507532 -2.887164
v -0.506310 14.498814 -0.887164
v -0.056788 13.014880 -3.023109
v -0.524016 15.005857 -1.023109
v -0.130819 29.981384 -3.023132
v -0.976546 27.964624 -1.023132
v -0.135247 30.996084 -2.008423
v -1.011959 28.978716 -0.008423
v -0.130819 29.981384 -3.023132
v -0.133033 30.488758 -2.887146
v -0.976546 27.964624 -1.023132
v -0.994254 28.471701 -0.887146
v -0.134654 30.860153 -2.515747
v -1.007215 28.842875 -0.515747
v -0.135247 30.996084 1.991577
v -0.134654 30.860153 2.498962
v -1.011959 28.978716 -0.008423
v -1.007215 28.842875 0.498962
v -0.133033 30.488758 2.870361
v -0.994254 28.471701 0.870361
v -0.130819 29.981384 3.006287
v -0.976546 27.964624 1.006287
v -0.056788 13.014855 3.006287
v -0.054575 12.507536 2.870361
v -0.524015 15.005833 1.006287
v -0.506310 14.498817 0.870361
v -0.052954 12.136141 2.498962
v -0.493348 14.127645 0.498962
v -0.052361 12.000155 1.991577
v -0.488602 13.991741 -0.008423

# normals: 324
vn 0.000000 0.996215 0.086920
vn 0.000000 0.984774 0.173840
vn 0.000000 0.866037 0.499980
vn 0.000000 0.984774 0.173840
vn 0.000000 0.866037 0.499980
vn 0.000000 0.866037 0.499980
vn 0.000000 0.866037 0.499980
vn 0.000000 0.866037 0.499980
vn 0.000000 0.499982 0.866036
vn 0.000000 0.866037 0.499980
vn 0.000000 0.499982 0.866036
vn 0.000000 0.499982 0.866036
vn 0.000000 0.499982 0.866036
vn 0.000000 0.499982 0.866036
vn 0.000000 0.173837 0.984774
vn 0.000000 0.499982 0.866036
vn 0.000000 0.086919 0.996215
vn 0.000000 0.173837 0.984774
vn 0.000000 -0.130517 0.991446
vn 0.000000 -0.130517 0.991446
vn 0.000000 -0.499994 0.866029
vn 0.000000 -0.130517 0.991446
vn 0.000000 -0.499994 0.866029
vn 0.000000 -0.499994 0.866029
vn 0.000000 -0.499994 0.866029
vn 0.000000 -0.499994 0.866029
vn 0.000000 -0.866012 0.500023
vn 0.000000 -0.499994 0.866029
vn 0.000000 -0.866012 0.500023
vn 0.000000 -0.866012 0.500023
vn 0.000000 -0.866012 0.500023
vn 0.000000 -0.866012 0.500023
vn 0.000000 -0.991441 0.130552
vn 0.000000 -0.866012 0.500023
vn 0.000000 -0.991441 0.130552
vn 0.000000 -0.991441 0.130552
vn 0.000000 -0.996214 -0.086938
vn 0.000000 -0.984769 -0.173868
vn 0.000000 -0.866027 -0.499997
vn 0.000000 -0.984769 -0.173868
vn 0.000000 -0.866027 -0.499997
vn 0.000000 -0.866027 -0.499997
vn 0.000000 -0.866027 -0.499997
vn 0.000000 -0.866027 -0.499997
vn 0.000000 -0.500003 -0.866024
vn 0.000000 -0.866027 -0.499997
vn 0.000000 -0.500003 -0.866024
vn 0.000000 -0.500003 -0.866024
vn 0.000000 -0.500003 -0.866024
vn 0.000000 -0.500003 -0.866024
vn 0.000000 -0.173870 -0.984769
vn 0.000000 -0.500003 -0.866024
vn 0.000000 -0.086936 -0.996214
vn 0.000000 -0.173870 -0.984769
vn 0.000000 0.258883 -0.965909
vn 0.000000 0.258883 -0.965909
vn 0.000000 0.500031 -0.866008
vn 0.000000 0.258883 -0.965909
vn 0.000000 0.500031 -0.866008
vn 0.000000 0.500031 -0.866008
vn 0.000000 0.500031 -0.866008
vn 0.000000 0.500031 -0.866008
vn 0.000000 0.866030 -0.499993
vn 0.000000 0.500031 -0.866008
vn 0.000000 0.866030 -0.499993
vn 0.000000 0.866030 -0.499993
vn 0.000000 0.866030 -0.499993
vn 0.000000 0.866030 -0.499993
vn 0.000000 0.991446 -0.130521
vn 0.000000 0.866030 -0.499993
vn 0.000000 0.991446 -0.130521
vn 0.000000 0.991446 -0.130521
vn 0.000000 0.086919 0.996215
vn 0.000000 -0.130517 0.991446
vn 0.000000 -0.130517 0.991446
vn 0.000000 0.086919 0.996215
vn 0.000000 -0.130517 0.991446
vn 0.000000 0.173837 0.984774
vn 0.000000 -0.000001 -1.000000
vn 0.000000 -0.173870 -0.984769
vn 0.000000 -0.086936 -0.996214
vn 0.000000 -0.000001 -1.000000
vn 0.000000 -0.086936 -0.996214
vn 0.000000 -0.000001 -1.000000
vn 0.000000 0.086919 0.996215
vn 0.000000 0.086919 0.996215
vn 0.000000 0.173837 0.984774
vn 0.000000 0.086919 0.996215
vn 0.000000 0.173837 0.984774
vn 0.000000 0.173837 0.984774
vn 0.000000 0.258883 -0.965909
vn 0.000000 -0.000001 -1.000000
vn 0.000000 -0.000001 -1.000000
vn 0.000000 0.258883 -0.965909
vn 0.000000 -0.000001 -1.000000
vn 0.000000 0.258883 -0.965909
vn 0.000000 0.996215 0.086920
vn 0.000000 0.991446 -0.130521
vn 0.000000 0.991446 -0.130521
vn 0.000000 0.996215 0.086920
vn 0.000000 0.991446 -0.130521
vn 0.000000 0.984774 0.173840
vn 0.000000 -0.991441 0.130552
vn 0.000000 -0.984769 -0.173868
vn 0.000000 -0.996214 -0.086938
vn 0.000000 -0.991441 0.130552
vn 0.000000 -0.996214 -0.086938
vn 0.000000 -0.991441 0.130552
vn 0.932308 0.358602 0.046966
vn 0.936175 0.346304 0.060419
vn 0.953519 0.259176 0.153718
vn 0.936175 0.346304 0.060419
vn 0.952828 0.264420 0.148996
vn 0.953519 0.259176 0.153718
vn 0.953519 0.259176 0.153718
vn 0.952828 0.264420 0.148996
vn 0.952246 0.134134 0.274290
vn 0.953519 0.259176 0.153718
vn 0.952246 0.134134 0.274290
vn 0.950749 0.124465 0.283876
vn 0.950749 0.124465 0.283876
vn 0.952246 0.134134 0.274290
vn 0.932237 0.036304 0.360023
vn 0.952246 0.134134 0.274290
vn 0.947077 0.015079 0.320652
vn 0.932237 0.036304 0.360023
vn 0.969140 -0.040816 0.243110
vn 0.979234 -0.028113 0.200776
vn 0.986982 -0.091706 0.132123
vn 0.969140 -0.040816 0.243110
vn 0.986982 -0.091706 0.132123
vn 0.987338 -0.101743 0.121708
vn 0.987338 -0.101743 0.121708
vn 0.986982 -0.091706 0.132123
vn 0.986491 -0.147524 0.071216
vn 0.986982 -0.091706 0.132123
vn 0.986957 -0.141903 0.076025
vn 0.986491 -0.147524 0.071216
vn 0.986491 -0.147524 0.071216
vn 0.986957 -0.141903 0.076025
vn 0.970605 -0.239410 -0.024661
vn 0.986491 -0.147524 0.071216
vn 0.970605 -0.239410 -0.024661
vn 0.957817 -0.278996 -0.068903
vn -0.029668 -0.427127 -0.903705
vn 0.983740 -0.174709 -0.041625
vn 0.986491 -0.147528 -0.071212
vn 0.983740 -0.174709 -0.041625
vn 0.986957 -0.141907 -0.076021
vn 0.986491 -0.147528 -0.071212
vn 0.986491 -0.147528 -0.071212
vn 0.986957 -0.141907 -0.076021
vn 0.986982 -0.091707 -0.132122
vn 0.986491 -0.147528 -0.071212
vn 0.986982 -0.091707 -0.132122
vn 0.987338 -0.101745 -0.121706
vn 0.987338 -0.101745 -0.121706
vn 0.986982 -0.091707 -0.132122
vn 0.983310 -0.053513 -0.173892
vn 0.986982 -0.091707 -0.132122
vn 0.966042 -0.030226 -0.256611
vn 0.983310 -0.053513 -0.173892
vn 0.941101 0.070246 -0.330749
vn 0.944702 0.081043 -0.317758
vn 0.952248 0.134150 -0.274275
vn 0.941101 0.070246 -0.330749
vn 0.952248 0.134150 -0.274275
vn 0.950751 0.124481 -0.283861
vn 0.950751 0.124481 -0.283861
vn 0.952248 0.134150 -0.274275
vn 0.953519 0.259172 -0.153723
vn 0.952248 0.134150 -0.274275
vn 0.952829 0.264416 -0.149000
vn 0.953519 0.259172 -0.153723
vn 0.953519 0.259172 -0.153723
vn 0.952829 0.264416 -0.149000
vn 0.936176 0.346298 -0.060424
vn 0.953519 0.259172 -0.153723
vn 0.936176 0.346298 -0.060424
vn 0.943720 0.317179 -0.093753
vn 0.947077 0.015079 0.320652
vn 0.979234 -0.028113 0.200776
vn 0.969140 -0.040816 0.243110
vn 0.947077 0.015079 0.320652
vn 0.969140 -0.040816 0.243110
vn 0.932237 0.036304 0.360023
vn 0.955140 -0.019227 -0.295531
vn 0.983310 -0.053513 -0.173892
vn 0.966042 -0.030226 -0.256611
vn 0.955140 -0.019227 -0.295531
vn 0.966042 -0.030226 -0.256611
vn 0.919572 -0.004013 -0.392900
vn 0.947077 0.015079 0.320652
vn 0.947077 0.015079 0.320652
vn 0.932237 0.036304 0.360023
vn 0.947077 0.015079 0.320652
vn 0.932237 0.036304 0.360023
vn 0.932237 0.036304 0.360023
vn 0.941101 0.070246 -0.330749
vn 0.955140 -0.019227 -0.295531
vn 0.919572 -0.004013 -0.392900
vn 0.941101 0.070246 -0.330749
vn 0.919572 -0.004013 -0.392900
vn 0.944702 0.081043 -0.317758
vn 0.932308 0.358602 0.046966
vn 0.943720 0.317179 -0.093753
vn 0.936176 0.346298 -0.060424
vn 0.932308 0.358602 0.046966
vn 0.936176 0.346298 -0.060424
vn 0.936175 0.346304 0.060419
vn 0.970605 -0.239410 -0.024661
vn -0.029668 -0.427127 -0.903705
vn 0.957817 -0.278996 -0.068903
vn -0.931419 0.361295 0.043861
vn -0.943328 0.319291 0.090477
vn -0.953519 0.259179 0.153715
vn -0.943328 0.319291 0.090477
vn -0.953841 0.254470 0.159475
vn -0.953519 0.259179 0.153715
vn -0.953519 0.259179 0.153715
vn -0.953841 0.254470 0.159475
vn -0.952243 0.134128 0.274305
vn -0.953519 0.259179 0.153715
vn -0.952243 0.134128 0.274305
vn -0.953265 0.143245 0.266019
vn -0.953265 0.143245 0.266019
vn -0.952243 0.134128 0.274305
vn -0.934933 0.045507 0.351894
vn -0.952243 0.134128 0.274305
vn -0.950637 0.006610 0.310236
vn -0.934933 0.045507 0.351894
vn -0.972349 -0.041340 0.229844
vn -0.983056 -0.055063 0.174840
vn -0.986981 -0.091702 0.132132
vn -0.972349 -0.041340 0.229844
vn -0.986981 -0.091702 0.132132
vn -0.986593 -0.082234 0.140964
vn -0.986593 -0.082234 0.140964
vn -0.986981 -0.091702 0.132132
vn -0.986491 -0.147526 0.071214
vn -0.986981 -0.091702 0.132132
vn -0.986139 -0.152554 0.065239
vn -0.986491 -0.147526 0.071214
vn -0.986491 -0.147526 0.071214
vn -0.986139 -0.152554 0.065239
vn -0.992171 -0.070064 -0.103379
vn -0.986491 -0.147526 0.071214
vn -0.992171 -0.070064 -0.103379
vn -0.981048 -0.192475 0.022322
vn -0.982529 -0.030921 -0.183521
vn -0.980380 -0.018381 -0.196256
vn -0.986491 -0.147530 -0.071210
vn -0.980380 -0.018381 -0.196256
vn -0.986139 -0.152558 -0.065235
vn -0.986491 -0.147530 -0.071210
vn -0.986491 -0.147530 -0.071210
vn -0.986139 -0.152558 -0.065235
vn -0.986981 -0.091703 -0.132131
vn -0.986491 -0.147530 -0.071210
vn -0.986981 -0.091703 -0.132131
vn -0.986594 -0.082235 -0.140963
vn -0.986594 -0.082235 -0.140963
vn -0.986981 -0.091703 -0.132131
vn -0.982049 -0.043537 -0.183534
vn -0.986981 -0.091703 -0.132131
vn -0.963051 -0.037549 -0.266689
vn -0.982049 -0.043537 -0.183534
vn -0.941090 0.070227 -0.330784
vn -0.939132 0.058016 -0.338623
vn -0.952245 0.134143 -0.274290
vn -0.941090 0.070227 -0.330784
vn -0.952245 0.134143 -0.274290
vn -0.953267 0.143260 -0.266005
vn -0.953267 0.143260 -0.266005
vn -0.952245 0.134143 -0.274290
vn -0.953519 0.259175 -0.153719
vn -0.952245 0.134143 -0.274290
vn -0.953842 0.254465 -0.159479
vn -0.953519 0.259175 -0.153719
vn -0.953519 0.259175 -0.153719
vn -0.953842 0.254465 -0.159479
vn -0.936177 0.346297 -0.060425
vn -0.953519 0.259175 -0.153719
vn -0.936177 0.346297 -0.060425
vn -0.931421 0.361291 -0.043865
vn -0.950637 0.006610 0.310236
vn -0.983056 -0.055063 0.174840
vn -0.972349 -0.041340 0.229844
vn -0.950637 0.006610 0.310236
vn -0.972349 -0.041340 0.229844
vn -0.934933 0.045507 0.351894
vn -0.946715 -0.018089 -0.321565
vn -0.982049 -0.043537 -0.183534
vn -0.963051 -0.037549 -0.266689
vn -0.946715 -0.018089 -0.321565
vn -0.963051 -0.037549 -0.266689
vn -0.908695 -0.031733 -0.416253
vn -0.950637 0.006610 0.310236
vn -0.950637 0.006610 0.310236
vn -0.934933 0.045507 0.351894
vn -0.950637 0.006610 0.310236
vn -0.934933 0.045507 0.351894
vn -0.934933 0.045507 0.351894
vn -0.941090 0.070227 -0.330784
vn -0.946715 -0.018089 -0.321565
vn -0.908695 -0.031733 -0.416253
vn -0.941090 0.070227 -0.330784
vn -0.908695 -0.031733 -0.416253
vn -0.939132 0.058016 -0.338623
vn -0.931419 0.361295 0.043861
vn -0.931421 0.361291 -0.043865
vn -0.936177 0.346297 -0.060425
vn -0.931419 0.361295 0.043861
vn -0.936177 0.346297 -0.060425
vn -0.943328 0.319291 0.090477
vn -0.992171 -0.070064 -0.103379
vn -0.980380 -0.018381 -0.196256
vn -0.982529 -0.030921 -0.183521
vn -0.992171 -0.070064 -0.103379
vn -0.982529 -0.030921 -0.183521
vn -0.981048 -0.192475 0.022322
vn 0.976840 -0.213971 -0.000002
vn 0.957817 -0.278996 -0.068903
vn 0.976840 -0.213971 -0.000002

# texture coords: 324
vt 0.543301 0.895968
vt 0.453552 0.895968
vt 0.543301 0.890921
vt 0.453552 0.895968
vt 0.453552 0.890921
vt 0.543301 0.890921
vt 0.543301 0.890921
vt 0.453552 0.890921
vt 0.453552 0.877130
vt 0.543301 0.890921
vt 0.453552 0.877130
vt 0.543301 0.877130
vt 0.543301 0.877130
vt 0.453552 0.877130
vt 0.543301 0.858291
vt 0.453552 0.877130
vt 0.453552 0.858291
vt 0.543301 0.858291
vt 0.543301 0.042645
vt 0.453552 0.042645
vt 0.453552 0.023808
vt 0.543301 0.042645
vt 0.453552 0.023808
vt 0.543301 0.023808
vt 0.543301 0.023808
vt 0.453552 0.023808
vt 0.543301 0.010017
vt 0.453552 0.023808
vt 0.453552 0.010017
vt 0.543301 0.010017
vt 0.543301 0.010017
vt 0.453552 0.010017
vt 0.453552 0.004968
vt 0.543301 0.010017
vt 0.453552 0.004968
vt 0.543301 0.004968
vt 0.543301 0.004969
vt 0.453552 0.004969
vt 0.543301 0.010017
vt 0.453552 0.004969
vt 0.453552 0.010017
vt 0.543301 0.010017
vt 0.543301 0.010017
vt 0.453552 0.010017
vt 0.453552 0.023807
vt 0.543301 0.010017
vt 0.453552 0.023807
vt 0.543301 0.023807
vt 0.543301 0.023807
vt 0.453552 0.023807
vt 0.543301 0.042646
vt 0.453552 0.023807
vt 0.453552 0.042646
vt 0.543301 0.042646
vt 0.543301 0.858291
vt 0.453552 0.858291
vt 0.453552 0.877130
vt 0.543301 0.858291
vt 0.453552 0.877130
vt 0.543301 0.877130
vt 0.543301 0.877130
vt 0.453552 0.877130
vt 0.543301 0.890921
vt 0.453552 0.877130
vt 0.453552 0.890921
vt 0.543301 0.890921
vt 0.543301 0.890921
vt 0.453552 0.890921
vt 0.453552 0.895968
vt 0.543301 0.890921
vt 0.453552 0.895968
vt 0.543301 0.895968
vt 0.453552 0.858291
vt 0.453552 0.042645
vt 0.543301 0.042645
vt 0.453552 0.858291
vt 0.543301 0.042645
vt 0.543301 0.858291
vt 0.543301 0.858291
vt 0.543301 0.042646
vt 0.453552 0.042646
vt 0.543301 0.858291
vt 0.453552 0.042646
vt 0.453552 0.858291
vt 0.453552 0.858291
vt 0.453552 0.858291
vt 0.543301 0.858291
vt 0.453552 0.858291
vt 0.543301 0.858291
vt 0.543301 0.858291
vt 0.543301 0.858291
vt 0.543301 0.858291
vt 0.453552 0.858291
vt 0.543301 0.858291
vt 0.453552 0.858291
vt 0.453552 0.858291
vt 0.543281 0.897647
vt 0.543281 0.996647
vt 0.453572 0.996647
vt 0.543281 0.897647
vt 0.453572 0.996647
vt 0.453572 0.897647
vt 0.453572 0.897647
vt 0.453572 0.996646
vt 0.543281 0.996646
vt 0.453572 0.897647
vt 0.543281 0.996646
vt 0.543281 0.897647
vt 1.000081 0.821706
vt 0.543301 0.895968
vt 1.000081 0.816659
vt 0.543301 0.895968
vt 0.543301 0.890921
vt 1.000081 0.816659
vt 1.000081 0.816659
vt 0.543301 0.890921
vt 0.543301 0.877130
vt 1.000081 0.816659
vt 0.543301 0.877130
vt 1.000081 0.802868
vt 1.000081 0.802868
vt 0.543301 0.877130
vt 1.000081 0.784029
vt 0.543301 0.877130
vt 0.543301 0.858291
vt 1.000081 0.784029
vt 1.000081 0.116907
vt 0.543301 0.042645
vt 0.543301 0.023808
vt 1.000081 0.116907
vt 0.543301 0.023808
vt 1.000081 0.098070
vt 1.000081 0.098070
vt 0.543301 0.023808
vt 1.000081 0.084279
vt 0.543301 0.023808
vt 0.543301 0.010017
vt 1.000081 0.084279
vt 1.000081 0.084279
vt 0.543301 0.010017
vt 0.543301 0.004968
vt 1.000081 0.084279
vt 0.543301 0.004968
vt 1.000081 0.079230
vt 1.000081 0.079231
vt 0.543301 0.004969
vt 1.000081 0.084279
vt 0.543301 0.004969
vt 0.543301 0.010017
vt 1.000081 0.084279
vt 1.000081 0.084279
vt 0.543301 0.010017
vt 0.543301 0.023807
vt 1.000081 0.084279
vt 0.543301 0.023807
vt 1.000081 0.098069
vt 1.000081 0.098069
vt 0.543301 0.023807
vt 1.000081 0.116908
vt 0.543301 0.023807
vt 0.543301 0.042646
vt 1.000081 0.116908
vt 1.000081 0.784029
vt 0.543301 0.858291
vt 0.543301 0.877130
vt 1.000081 0.784029
vt 0.543301 0.877130
vt 1.000081 0.802868
vt 1.000081 0.802868
vt 0.543301 0.877130
vt 1.000081 0.816659
vt 0.543301 0.877130
vt 0.543301 0.890921
vt 1.000081 0.816659
vt 1.000081 0.816659
vt 0.543301 0.890921
vt 0.543301 0.895968
vt 1.000081 0.816659
vt 0.543301 0.895968
vt 1.000081 0.821706
vt 0.543301 0.858291
vt 0.543301 0.042645
vt 1.000081 0.116907
vt 0.543301 0.858291
vt 1.000081 0.116907
vt 1.000081 0.784029
vt 1.000081 0.784029
vt 1.000081 0.116908
vt 0.543301 0.042646
vt 1.000081 0.784029
vt 0.543301 0.042646
vt 0.543301 0.858291
vt 0.543301 0.858291
vt 0.543301 0.858291
vt 1.000081 0.784029
vt 0.543301 0.858291
vt 1.000081 0.784029
vt 1.000081 0.784029
vt 1.000081 0.784029
vt 1.000081 0.784029
vt 0.543301 0.858291
vt 1.000081 0.784029
vt 0.543301 0.858291
vt 0.543301 0.858291
vt 1.000081 0.821706
vt 1.000081 0.821706
vt 0.543301 0.895968
vt 1.000000 0.947147
vt 0.543281 0.996647
vt 0.543281 0.897647
vt 0.543301 0.004968
vt 1.000081 0.079231
vt 1.000081 0.079230
vt 0.453552 0.895968
vt -0.000081 0.821706
vt 0.453552 0.890921
vt -0.000081 0.821706
vt -0.000081 0.816659
vt 0.453552 0.890921
vt 0.453552 0.890921
vt -0.000081 0.816659
vt -0.000081 0.802868
vt 0.453552 0.890921
vt -0.000081 0.802868
vt 0.453552 0.877130
vt 0.453552 0.877130
vt -0.000081 0.802868
vt 0.453552 0.858291
vt -0.000081 0.802868
vt -0.000081 0.784029
vt 0.453552 0.858291
vt 0.453552 0.042645
vt -0.000081 0.116907
vt -0.000081 0.098070
vt 0.453552 0.042645
vt -0.000081 0.098070
vt 0.453552 0.023808
vt 0.453552 0.023808
vt -0.000081 0.098070
vt 0.453552 0.010017
vt -0.000081 0.098070
vt -0.000081 0.084279
vt 0.453552 0.010017
vt 0.453552 0.010017
vt -0.000081 0.084279
vt -0.000081 0.079230
vt 0.453552 0.010017
vt -0.000081 0.079230
vt 0.453552 0.004968
vt 0.453552 0.004969
vt -0.000081 0.079231
vt 0.453552 0.010017
vt -0.000081 0.079231
vt -0.000081 0.084279
vt 0.453552 0.010017
vt 0.453552 0.010017
vt -0.000081 0.084279
vt -0.000081 0.098069
vt 0.453552 0.010017
vt -0.000081 0.098069
vt 0.453552 0.023807
vt 0.453552 0.023807
vt -0.000081 0.098069
vt 0.453552 0.042646
vt -0.000081 0.098069
vt -0.000081 0.116908
vt 0.453552 0.042646
vt 0.453552 0.858291
vt -0.000081 0.784029
vt -0.000081 0.802868
vt 0.453552 0.858291
vt -0.000081 0.802868
vt 0.453552 0.877130
vt 0.453552 0.877130
vt -0.000081 0.802868
vt 0.453552 0.890921
vt -0.000081 0.802868
vt -0.000081 0.816659
vt 0.453552 0.890921
vt 0.453552 0.890921
vt -0.000081 0.816659
vt -0.000081 0.821706
vt 0.453552 0.890921
vt -0.000081 0.821706
vt 0.453552 0.895968
vt -0.000081 0.784029
vt -0.000081 0.116907
vt 0.453552 0.042645
vt -0.000081 0.784029
vt 0.453552 0.042645
vt 0.453552 0.858291
vt 0.453552 0.858291
vt 0.453552 0.042646
vt -0.000081 0.116908
vt 0.453552 0.858291
vt -0.000081 0.116908
vt -0.000081 0.784029
vt -0.000081 0.784029
vt -0.000081 0.784029
vt 0.453552 0.858291
vt -0.000081 0.784029
vt 0.453552 0.858291
vt 0.453552 0.858291
vt 0.453552 0.858291
vt 0.453552 0.858291
vt -0.000081 0.784029
vt 0.453552 0.858291
vt -0.000081 0.784029
vt -0.000081 0.784029
vt 0.453572 0.897647
vt 0.453572 0.996647
vt 0.000000 0.947147
vt 0.453552 0.895968
vt -0.000081 0.821706
vt -0.000081 0.821706
vt -0.000081 0.079230
vt -0.000081 0.079231
vt 0.453552 0.004969
vt 0.000000 0.947147
vt 0.453572 0.996646
vt 0.453572 0.897647
vt 0.543281 0.996646
vt 1.000000 0.947147
vt 0.543281 0.897647

# polygons: 108
usemtl black
f 19/1/1 21/2/2 20/3/3
f 21/4/4 22/5/5 20/6/6
f 20/7/7 22/8/8 24/9/9
f 20/10/10 24/11/11 23/12/12
f 23/13/13 24/14/14 25/15/15
f 24/16/16 26/17/17 25/18/18
f 27/19/19 29/20/20 30/21/21
f 27/22/22 30/23/23 28/24/24
f 28/25/25 30/26/26 31/27/27
f 30/28/28 32/29/29 31/30/30
f 31/31/31 32/32/32 34/33/33
f 31/34/34 34/35/35 33/36/36
f 1/37/37 2/38/38 3/39/39
f 2/40/40 4/41/41 3/42/42
f 3/43/43 4/44/44 6/45/45
f 3/46/46 6/47/47 5/48/48
f 5/49/49 6/50/50 7/51/51
f 6/52/52 8/53/53 7/54/54
f 13/55/55 15/56/56 16/57/57
f 13/58/58 16/59/59 14/60/60
f 14/61/61 16/62/62 17/63/63
f 16/64/64 18/65/65 17/66/66
f 17/67/67 18/68/68 12/69/69
f 17/70/70 12/71/71 11/72/72
f 26/73/73 29/74/74 27/75/75
f 26/76/76 27/77/77 25/78/78
f 9/79/79 7/80/80 8/81/81
f 9/82/82 8/83/83 10/84/84
f 26/85/85 26/86/86 25/87/87
f 26/88/88 25/89/89 25/90/90
f 13/91/91 9/92/92 10/93/93
f 13/94/94 10/95/95 15/96/96
f 19/97/97 11/98/98 12/99/99
f 19/100/100 12/101/101 21/102/102
f 34/103/103 2/104/104 1/105/105
f 34/106/106 1/107/107 33/108/108
f 53/109/109 55/110/110 54/111/111
f 55/112/112 56/113/113 54/114/114
f 54/115/115 56/116/116 58/117/117
f 54/118/118 58/119/119 57/120/120
f 57/121/121 58/122/122 59/123/123
f 58/124/124 60/125/125 59/126/126
f 61/127/127 63/128/128 64/129/129
f 61/130/130 64/131/131 62/132/132
f 62/133/133 64/134/134 65/135/135
f 64/136/136 66/137/137 65/138/138
f 65/139/139 66/140/140 68/141/141
f 65/142/142 68/143/143 67/144/144
f 35/145/145 36/146/146 37/147/147
f 36/148/148 38/149/149 37/150/150
f 37/151/151 38/152/152 40/153/153
f 37/154/154 40/155/155 39/156/156
f 39/157/157 40/158/158 41/159/159
f 40/160/160 42/161/161 41/162/162
f 47/163/163 49/164/164 50/165/165
f 47/166/166 50/167/167 48/168/168
f 48/169/169 50/170/170 51/171/171
f 50/172/172 52/173/173 51/174/174
f 51/175/175 52/176/176 46/177/177
f 51/178/178 46/179/179 45/180/180
f 60/181/181 63/182/182 61/183/183
f 60/184/184 61/185/185 59/186/186
f 43/187/187 41/188/188 42/189/189
f 43/190/190 42/191/191 44/192/192
f 60/193/193 60/194/194 59/195/195
f 60/196/196 59/197/197 59/198/198
f 47/199/199 43/200/200 44/201/201
f 47/202/202 44/203/203 49/204/204
f 53/205/205 45/206/206 46/207/207
f 53/208/208 46/209/209 55/210/210
f 68/211/211 35/212/212 67/213/213
f 87/214/214 89/215/215 88/216/216
f 89/217/217 90/218/218 88/219/219
f 88/220/220 90/221/221 92/222/222
f 88/223/223 92/224/224 91/225/225
f 91/226/226 92/227/227 93/228/228
f 92/229/229 94/230/230 93/231/231
f 95/232/232 97/233/233 98/234/234
f 95/235/235 98/236/236 96/237/237
f 96/238/238 98/239/239 99/240/240
f 98/241/241 100/242/242 99/243/243
f 99/244/244 100/245/245 102/246/246
f 99/247/247 102/248/248 101/249/249
f 69/250/250 70/251/251 71/252/252
f 70/253/253 72/254/254 71/255/255
f 71/256/256 72/257/257 74/258/258
f 71/259/259 74/260/260 73/261/261
f 73/262/262 74/263/263 75/264/264
f 74/265/265 76/266/266 75/267/267
f 81/268/268 83/269/269 84/270/270
f 81/271/271 84/272/272 82/273/273
f 82/274/274 84/275/275 85/276/276
f 84/277/277 86/278/278 85/279/279
f 85/280/280 86/281/281 80/282/282
f 85/283/283 80/284/284 79/285/285
f 94/286/286 97/287/287 95/288/288
f 94/289/289 95/290/290 93/291/291
f 77/292/292 75/293/293 76/294/294
f 77/295/295 76/296/296 78/297/297
f 94/298/298 94/299/299 93/300/300
f 94/301/301 93/302/302 93/303/303
f 81/304/304 77/305/305 78/306/306
f 81/307/307 78/308/308 83/309/309
f 87/310/310 79/311/311 80/312/312
f 87/313/313 80/314/314 89/315/315
f 102/316/316 70/317/317 69/318/318
f 102/319/319 69/320/320 101/321/321
f 1/322/322 67/323/323 33/324/324

# object end 'Converted object 0'
