# created by: Biturn ver 0.88
# http://mirex.mypage.sk
# ------------------------------------
# 8 vertices, 12 polygons, 36 points, 1 materials




#-- object 'Converted object 0' --
# 8 vertices, 12 polygons, 36 points

g Converted object 0

# vertexs: 8
v -2.542858 0.220063 0.384091
v -2.542858 -0.220063 0.384091
v 0.000000 0.220063 0.384091
v 0.000000 -0.220063 0.384091
v 0.000000 0.349169 -0.225000
v 0.000000 -0.349169 -0.225000
v -3.000000 0.349169 -0.225000
v -3.000000 -0.349169 -0.225000

# normals: 36
vn 0.000000 0.000000 1.000000
vn 0.000000 0.000000 1.000000
vn 0.000000 0.000000 1.000000
vn 0.000000 0.000000 1.000000
vn 0.000000 0.000000 1.000000
vn 0.000000 0.000000 1.000000
vn 1.000000 0.000000 0.000000
vn 1.000000 0.000000 0.000000
vn 1.000000 0.000000 0.000000
vn 1.000000 0.000000 0.000000
vn 1.000000 0.000000 0.000000
vn 1.000000 0.000000 0.000000
vn 0.000000 0.000000 -1.000000
vn 0.000000 0.000000 -1.000000
vn 0.000000 0.000000 -1.000000
vn 0.000000 0.000000 -1.000000
vn 0.000000 0.000000 -1.000000
vn 0.000000 0.000000 -1.000000
vn -0.799796 0.000000 0.600272
vn -0.799796 0.000000 0.600272
vn -0.799796 0.000000 0.600272
vn -0.799796 0.000000 0.600272
vn -0.799796 0.000000 0.600272
vn -0.799796 0.000000 0.600272
vn 0.000000 0.978265 0.207357
vn 0.000000 0.978265 0.207357
vn 0.000000 0.978265 0.207357
vn 0.000000 0.978265 0.207357
vn 0.000000 0.978265 0.207357
vn 0.000000 0.978265 0.207357
vn 0.000000 -0.978265 0.207357
vn 0.000000 -0.978265 0.207357
vn 0.000000 -0.978265 0.207357
vn 0.000000 -0.978265 0.207357
vn 0.000000 -0.978265 0.207357
vn 0.000000 -0.978265 0.207357

# texture coords: 36
vt 0.271806 0.743837
vt 0.271806 0.628968
vt 0.995016 0.743837
vt 0.271806 0.628968
vt 0.995016 0.628968
vt 0.995016 0.743837
vt 0.154562 0.852688
vt 0.154562 0.899922
vt 0.032055 0.838832
vt 0.154562 0.899922
vt 0.032055 0.913777
vt 0.032055 0.838832
vt 0.002308 0.339215
vt 0.002308 0.071032
vt 0.997266 0.339215
vt 0.002308 0.071032
vt 0.997266 0.071032
vt 0.997266 0.339215
vt 0.027076 0.725502
vt 0.027076 0.650485
vt 0.272054 0.711633
vt 0.027076 0.650485
vt 0.272054 0.664354
vt 0.272054 0.711633
vt 0.191496 0.962195
vt 0.313669 0.766947
vt 0.993257 0.962195
vt 0.313669 0.766947
vt 0.993257 0.766947
vt 0.993257 0.962195
vt 0.326524 0.621367
vt 0.206187 0.384141
vt 0.995899 0.621367
vt 0.206187 0.384141
vt 0.995899 0.384141
vt 0.995899 0.621367

# polygons: 12
usemtl Material01
f 1/1/1 2/2/2 3/3/3
f 2/4/4 4/5/5 3/6/6
f 3/7/7 4/8/8 5/9/9
f 4/10/10 6/11/11 5/12/12
f 5/13/13 6/14/14 7/15/15
f 6/16/16 8/17/17 7/18/18
f 7/19/19 8/20/20 1/21/21
f 8/22/22 2/23/23 1/24/24
f 7/25/25 1/26/26 5/27/27
f 1/28/28 3/29/29 5/30/30
f 2/31/31 8/32/32 4/33/33
f 8/34/34 6/35/35 4/36/36

# object end 'Converted object 0'
