# created by: Biturn ver 0.88
# http://mirex.mypage.sk
# ------------------------------------
# 26 vertices, 48 polygons, 144 points, 2 materials




#-- object 'Converted object 0(m1)' --
# 26 vertices, 48 polygons, 144 points

g Converted object 0(m1)

# vertexs: 26
v -2.015297 -19.022154 -0.897058
v -1.875271 -18.934660 -0.897058
v -1.998085 -19.049702 -0.776875
v -1.858060 -18.962206 -0.776875
v -1.998085 -19.049702 -0.448529
v -1.858060 -18.962206 -0.448529
v -1.998085 -19.049702 0.000001
v -1.858060 -18.962206 0.000001
v -1.998085 -19.049702 0.448530
v -1.858060 -18.962206 0.448530
v -1.998085 -19.049702 0.776876
v -1.858060 -18.962206 0.776876
v -2.015297 -19.022154 0.897060
v -1.875271 -18.934660 0.897060
v -2.252981 -18.641783 0.776876
v -2.112957 -18.554281 0.776876
v -2.426978 -18.363331 0.448530
v -2.286952 -18.275833 0.448530
v -2.490664 -18.261412 0.000001
v -2.350641 -18.173910 0.000001
v -2.426978 -18.363331 -0.448529
v -2.286952 -18.275833 -0.448529
v -2.252981 -18.641783 -0.776875
v -2.112957 -18.554281 -0.776875
v -1.994931 -18.743166 0.000001
v -2.134956 -18.830664 0.000001

# normals: 144
vn -0.848053 -0.529911 -0.000005
vn -0.848054 -0.529910 -0.000004
vn -0.848049 -0.529917 -0.000000
vn 0.848056 0.529906 0.000005
vn 0.848051 0.529914 0.000000
vn 0.848056 0.529906 0.000004
vn 0.264452 -0.423232 -0.866568
vn 0.264455 -0.423236 -0.866565
vn 0.525302 -0.840678 -0.131598
vn 0.264455 -0.423236 -0.866565
vn 0.525305 -0.840677 -0.131593
vn 0.525302 -0.840678 -0.131598
vn -0.848054 -0.529910 -0.000004
vn -0.848047 -0.529920 0.000000
vn -0.848049 -0.529917 -0.000000
vn 0.848056 0.529906 0.000004
vn 0.848051 0.529914 0.000000
vn 0.848049 0.529917 0.000000
vn 0.525302 -0.840678 -0.131598
vn 0.525305 -0.840677 -0.131593
vn 0.529914 -0.848052 0.000000
vn 0.525302 -0.840678 -0.131598
vn 0.529914 -0.848052 0.000000
vn 0.529914 -0.848052 0.000000
vn -0.848047 -0.529920 0.000000
vn -0.848047 -0.529920 0.000000
vn -0.848049 -0.529917 -0.000000
vn 0.848049 0.529917 0.000000
vn 0.848051 0.529914 0.000000
vn 0.848049 0.529917 0.000000
vn 0.529914 -0.848052 0.000000
vn 0.529914 -0.848052 0.000000
vn 0.529913 -0.848052 0.000000
vn 0.529914 -0.848052 0.000000
vn 0.529914 -0.848052 0.000000
vn 0.529913 -0.848052 0.000000
vn -0.848047 -0.529920 0.000000
vn -0.848047 -0.529920 0.000000
vn -0.848049 -0.529917 -0.000000
vn 0.848049 0.529917 0.000000
vn 0.848051 0.529914 0.000000
vn 0.848049 0.529917 0.000000
vn 0.529913 -0.848052 0.000000
vn 0.529914 -0.848052 0.000000
vn 0.529914 -0.848052 0.000000
vn 0.529913 -0.848052 0.000000
vn 0.529914 -0.848052 0.000000
vn 0.529914 -0.848052 0.000000
vn -0.848047 -0.529920 0.000000
vn -0.848054 -0.529910 0.000004
vn -0.848049 -0.529917 -0.000000
vn 0.848049 0.529917 0.000000
vn 0.848051 0.529914 0.000000
vn 0.848056 0.529906 -0.000004
vn 0.529914 -0.848052 0.000000
vn 0.529914 -0.848052 0.000000
vn 0.525302 -0.840678 0.131597
vn 0.529914 -0.848052 0.000000
vn 0.525305 -0.840677 0.131593
vn 0.525302 -0.840678 0.131597
vn -0.848054 -0.529910 0.000004
vn -0.848053 -0.529911 0.000005
vn -0.848049 -0.529917 -0.000000
vn 0.848056 0.529906 -0.000004
vn 0.848051 0.529914 0.000000
vn 0.848056 0.529906 -0.000005
vn 0.525302 -0.840678 0.131597
vn 0.525305 -0.840677 0.131593
vn 0.264455 -0.423236 0.866565
vn 0.525302 -0.840678 0.131597
vn 0.264455 -0.423236 0.866565
vn 0.264452 -0.423232 0.866568
vn -0.848053 -0.529911 0.000005
vn -0.848047 -0.529922 0.000001
vn -0.848049 -0.529917 -0.000000
vn 0.848056 0.529906 -0.000005
vn 0.848051 0.529914 0.000000
vn 0.848048 0.529919 -0.000003
vn 0.264452 -0.423232 0.866568
vn 0.264455 -0.423236 0.866565
vn -0.264964 0.424023 0.866024
vn 0.264455 -0.423236 0.866565
vn -0.264971 0.424020 0.866024
vn -0.264964 0.424023 0.866024
vn -0.848047 -0.529922 0.000001
vn -0.848048 -0.529920 -0.000000
vn -0.848049 -0.529917 -0.000000
vn 0.848048 0.529919 -0.000003
vn 0.848051 0.529914 0.000000
vn 0.848048 0.529920 -0.000002
vn -0.264964 0.424023 0.866024
vn -0.264971 0.424020 0.866024
vn -0.458934 0.734426 0.499998
vn -0.264964 0.424023 0.866024
vn -0.458934 0.734426 0.499998
vn -0.458924 0.734433 0.499997
vn -0.848048 -0.529920 -0.000000
vn -0.848048 -0.529919 -0.000000
vn -0.848049 -0.529917 -0.000000
vn 0.848048 0.529920 -0.000002
vn 0.848051 0.529914 0.000000
vn 0.848049 0.529919 -0.000000
vn -0.458924 0.734433 0.499997
vn -0.458934 0.734426 0.499998
vn -0.529931 0.848041 0.000000
vn -0.458934 0.734426 0.499998
vn -0.529944 0.848033 0.000000
vn -0.529931 0.848041 0.000000
vn -0.848048 -0.529919 -0.000000
vn -0.848048 -0.529920 0.000000
vn -0.848049 -0.529917 -0.000000
vn 0.848049 0.529919 -0.000000
vn 0.848051 0.529914 0.000000
vn 0.848048 0.529920 0.000002
vn -0.529931 0.848041 0.000000
vn -0.529944 0.848033 0.000000
vn -0.458934 0.734426 -0.499998
vn -0.529931 0.848041 0.000000
vn -0.458934 0.734426 -0.499998
vn -0.458924 0.734433 -0.499997
vn -0.848048 -0.529920 0.000000
vn -0.848047 -0.529922 -0.000001
vn -0.848049 -0.529917 -0.000000
vn 0.848048 0.529920 0.000002
vn 0.848051 0.529914 0.000000
vn 0.848048 0.529919 0.000003
vn -0.458924 0.734433 -0.499997
vn -0.458934 0.734426 -0.499998
vn -0.264964 0.424023 -0.866024
vn -0.458934 0.734426 -0.499998
vn -0.264971 0.424020 -0.866024
vn -0.264964 0.424023 -0.866024
vn -0.848047 -0.529922 -0.000001
vn -0.848053 -0.529911 -0.000005
vn -0.848049 -0.529917 -0.000000
vn 0.848048 0.529919 0.000003
vn 0.848051 0.529914 0.000000
vn 0.848056 0.529906 0.000005
vn -0.264964 0.424023 -0.866024
vn -0.264971 0.424020 -0.866024
vn 0.264455 -0.423236 -0.866565
vn -0.264964 0.424023 -0.866024
vn 0.264455 -0.423236 -0.866565
vn 0.264452 -0.423232 -0.866568

# texture coords: 144
vt 0.046524 0.380091
vt 0.046014 0.379274
vt 0.042718 0.384760
vt 0.092020 0.380089
vt 0.088214 0.384758
vt 0.091510 0.379272
vt 0.046524 0.380091
vt 0.092020 0.380089
vt 0.046014 0.379274
vt 0.092020 0.380089
vt 0.091510 0.379272
vt 0.046014 0.379274
vt 0.046014 0.379274
vt 0.044621 0.379082
vt 0.042718 0.384760
vt 0.091510 0.379272
vt 0.088214 0.384758
vt 0.090117 0.379080
vt 0.046014 0.379274
vt 0.091510 0.379272
vt 0.090117 0.379080
vt 0.046014 0.379274
vt 0.090117 0.379080
vt 0.044621 0.379082
vt 0.044621 0.379082
vt 0.042718 0.378820
vt 0.042718 0.384760
vt 0.090117 0.379080
vt 0.088214 0.384758
vt 0.088214 0.378818
vt 0.044621 0.379082
vt 0.090117 0.379080
vt 0.042718 0.378820
vt 0.090117 0.379080
vt 0.088214 0.378818
vt 0.042718 0.378820
vt 0.042718 0.378820
vt 0.040815 0.378558
vt 0.042718 0.384760
vt 0.088214 0.378818
vt 0.088214 0.384758
vt 0.086310 0.378556
vt 0.042718 0.378820
vt 0.088214 0.378818
vt 0.086310 0.378556
vt 0.042718 0.378820
vt 0.086310 0.378556
vt 0.040815 0.378558
vt 0.040815 0.378558
vt 0.039421 0.378366
vt 0.042718 0.384760
vt 0.086310 0.378556
vt 0.088214 0.384758
vt 0.084917 0.378364
vt 0.040815 0.378558
vt 0.086310 0.378556
vt 0.039421 0.378366
vt 0.086310 0.378556
vt 0.084917 0.378364
vt 0.039421 0.378366
vt 0.039421 0.378366
vt 0.038911 0.379043
vt 0.042718 0.384760
vt 0.084917 0.378364
vt 0.088214 0.384758
vt 0.084407 0.379041
vt 0.039421 0.378366
vt 0.084917 0.378364
vt 0.084407 0.379041
vt 0.039421 0.378366
vt 0.084407 0.379041
vt 0.038911 0.379043
vt 0.038911 0.379043
vt 0.039421 0.389428
vt 0.042718 0.384760
vt 0.084407 0.379041
vt 0.088214 0.384758
vt 0.084917 0.389426
vt 0.038911 0.379043
vt 0.084407 0.379041
vt 0.039421 0.389428
vt 0.084407 0.379041
vt 0.084917 0.389426
vt 0.039421 0.389428
vt 0.039421 0.389428
vt 0.040815 0.397171
vt 0.042718 0.384760
vt 0.084917 0.389426
vt 0.088214 0.384758
vt 0.086310 0.397169
vt 0.039421 0.389428
vt 0.084917 0.389426
vt 0.086310 0.397169
vt 0.039421 0.389428
vt 0.086310 0.397169
vt 0.040815 0.397171
vt 0.040815 0.397171
vt 0.042718 0.400197
vt 0.042718 0.384760
vt 0.086310 0.397169
vt 0.088214 0.384758
vt 0.088214 0.400195
vt 0.040815 0.397171
vt 0.086310 0.397169
vt 0.042718 0.400197
vt 0.086310 0.397169
vt 0.088214 0.400195
vt 0.042718 0.400197
vt 0.042718 0.400197
vt 0.044621 0.397695
vt 0.042718 0.384760
vt 0.088214 0.400195
vt 0.088214 0.384758
vt 0.090117 0.397693
vt 0.042718 0.400197
vt 0.088214 0.400195
vt 0.090117 0.397693
vt 0.042718 0.400197
vt 0.090117 0.397693
vt 0.044621 0.397695
vt 0.044621 0.397695
vt 0.046014 0.390336
vt 0.042718 0.384760
vt 0.090117 0.397693
vt 0.088214 0.384758
vt 0.091510 0.390334
vt 0.044621 0.397695
vt 0.090117 0.397693
vt 0.046014 0.390336
vt 0.090117 0.397693
vt 0.091510 0.390334
vt 0.046014 0.390336
vt 0.046014 0.390336
vt 0.046524 0.380091
vt 0.042718 0.384760
vt 0.091510 0.390334
vt 0.088214 0.384758
vt 0.092020 0.380089
vt 0.046014 0.390336
vt 0.091510 0.390334
vt 0.092020 0.380089
vt 0.046014 0.390336
vt 0.092020 0.380089
vt 0.046524 0.380091

# polygons: 48

f 1/1/1 3/2/2 26/3/3
f 2/4/4 25/5/5 4/6/6
f 1/7/7 2/8/8 3/9/9
f 2/10/10 4/11/11 3/12/12
f 3/13/13 5/14/14 26/15/15
f 4/16/16 25/17/17 6/18/18
f 3/19/19 4/20/20 6/21/21
f 3/22/22 6/23/23 5/24/24
f 5/25/25 7/26/26 26/27/27
f 6/28/28 25/29/29 8/30/30
f 5/31/31 6/32/32 7/33/33
f 6/34/34 8/35/35 7/36/36
f 7/37/37 9/38/38 26/39/39
f 8/40/40 25/41/41 10/42/42
f 7/43/43 8/44/44 10/45/45
f 7/46/46 10/47/47 9/48/48
f 9/49/49 11/50/50 26/51/51
f 10/52/52 25/53/53 12/54/54
f 9/55/55 10/56/56 11/57/57
f 10/58/58 12/59/59 11/60/60
f 11/61/61 13/62/62 26/63/63
f 12/64/64 25/65/65 14/66/66
f 11/67/67 12/68/68 14/69/69
f 11/70/70 14/71/71 13/72/72
f 13/73/73 15/74/74 26/75/75
f 14/76/76 25/77/77 16/78/78
f 13/79/79 14/80/80 15/81/81
f 14/82/82 16/83/83 15/84/84
f 15/85/85 17/86/86 26/87/87
f 16/88/88 25/89/89 18/90/90
f 15/91/91 16/92/92 18/93/93
f 15/94/94 18/95/95 17/96/96
f 17/97/97 19/98/98 26/99/99
f 18/100/100 25/101/101 20/102/102
f 17/103/103 18/104/104 19/105/105
f 18/106/106 20/107/107 19/108/108
f 19/109/109 21/110/110 26/111/111
f 20/112/112 25/113/113 22/114/114
f 19/115/115 20/116/116 22/117/117
f 19/118/118 22/119/119 21/120/120
f 21/121/121 23/122/122 26/123/123
f 22/124/124 25/125/125 24/126/126
f 21/127/127 22/128/128 23/129/129
f 22/130/130 24/131/131 23/132/132
f 23/133/133 1/134/134 26/135/135
f 24/136/136 25/137/137 2/138/138
f 23/139/139 24/140/140 2/141/141
f 23/142/142 2/143/143 1/144/144

# object end 'Converted object 0(m1)'
