# created by: Biturn ver 0.88
# http://mirex.mypage.sk
# ------------------------------------
# 38 vertices, 72 polygons, 216 points, 2 materials




#-- object 'Converted object 0(m1)' --
# 38 vertices, 72 polygons, 216 points

g Converted object 0(m1)

# vertexs: 38
v 1.704042 -3.084397 -0.919579
v 1.861357 -3.036301 -0.919579
v 1.795669 -3.384096 -0.871448
v 1.952984 -3.336000 -0.871448
v 1.862745 -3.603491 -0.739951
v 2.020060 -3.555395 -0.739951
v 1.887296 -3.683794 -0.560324
v 2.044611 -3.635699 -0.560324
v 1.862745 -3.603491 -0.380696
v 2.020060 -3.555395 -0.380696
v 1.795669 -3.384096 -0.249199
v 1.952984 -3.336000 -0.249199
v 1.704042 -3.084397 -0.201068
v 1.861357 -3.036301 -0.201068
v 1.612415 -2.784698 -0.249199
v 1.769730 -2.736602 -0.249199
v 1.545339 -2.565303 -0.380696
v 1.702654 -2.517208 -0.380696
v 1.520788 -2.484998 -0.560324
v 1.678102 -2.436902 -0.560324
v 1.545339 -2.565303 -0.739951
v 1.702654 -2.517208 -0.739951
v 1.612415 -2.784698 -0.871448
v 1.769730 -2.736602 -0.871448
v 1.861357 -3.036301 -0.560324
v 1.704042 -3.084397 -0.560324
v 1.057990 -2.343472 -0.208361
v 1.215292 -2.295381 -0.208361
v 1.033434 -2.263152 -0.346990
v 1.190736 -2.215060 -0.346990
v 1.215292 -2.295381 -0.485656
v 1.057990 -2.343472 -0.485656
v 0.654437 -1.486454 -0.071743
v 0.811739 -1.438362 -0.071743
v 0.629880 -1.406133 -0.173659
v 0.787182 -1.358040 -0.173659
v 0.811739 -1.438362 -0.275605
v 0.654437 -1.486454 -0.275605

# normals: 216
vn -0.956305 -0.292371 0.000000
vn -0.956305 -0.292371 0.000000
vn -0.956305 -0.292372 0.000000
vn 0.956305 0.292371 0.000000
vn 0.956305 0.292372 -0.000000
vn 0.956305 0.292371 -0.000001
vn 0.000000 -0.000000 -1.000000
vn 0.000000 -0.000000 -1.000000
vn 0.096516 -0.315690 -0.943941
vn 0.000000 -0.000000 -1.000000
vn 0.096516 -0.315690 -0.943941
vn 0.096516 -0.315690 -0.943941
vn -0.956305 -0.292371 0.000000
vn -0.956305 -0.292371 0.000001
vn -0.956305 -0.292372 0.000000
vn 0.956305 0.292371 -0.000001
vn 0.956305 0.292372 -0.000000
vn 0.956305 0.292372 -0.000001
vn 0.096516 -0.315690 -0.943941
vn 0.096516 -0.315690 -0.943941
vn 0.215152 -0.703735 -0.677102
vn 0.096516 -0.315690 -0.943941
vn 0.215152 -0.703735 -0.677102
vn 0.215153 -0.703735 -0.677102
vn -0.956305 -0.292371 0.000001
vn -0.956305 -0.292371 0.000000
vn -0.956305 -0.292372 0.000000
vn 0.956305 0.292372 -0.000001
vn 0.956305 0.292372 -0.000000
vn 0.956305 0.292371 0.000000
vn 0.215153 -0.703735 -0.677102
vn 0.215152 -0.703735 -0.677102
vn 0.292370 -0.956305 -0.000000
vn 0.215152 -0.703735 -0.677102
vn 0.292368 -0.956306 -0.000000
vn 0.292370 -0.956305 -0.000000
vn -0.956305 -0.292371 0.000000
vn -0.956305 -0.292371 -0.000001
vn -0.956305 -0.292372 0.000000
vn 0.956305 0.292371 0.000000
vn 0.956305 0.292372 -0.000000
vn 0.956305 0.292372 0.000001
vn 0.292370 -0.956305 -0.000000
vn 0.292368 -0.956306 -0.000000
vn 0.215152 -0.703735 0.677102
vn 0.292370 -0.956305 -0.000000
vn 0.215152 -0.703735 0.677102
vn 0.215153 -0.703735 0.677101
vn -0.956305 -0.292371 -0.000001
vn -0.956305 -0.292371 -0.000000
vn -0.956305 -0.292372 0.000000
vn 0.956305 0.292372 0.000001
vn 0.956305 0.292372 -0.000000
vn 0.956305 0.292371 0.000001
vn 0.215153 -0.703735 0.677101
vn 0.215152 -0.703735 0.677102
vn 0.096516 -0.315690 0.943941
vn 0.215152 -0.703735 0.677102
vn 0.096516 -0.315690 0.943941
vn 0.096516 -0.315690 0.943941
vn -0.956305 -0.292371 -0.000000
vn -0.956305 -0.292371 0.000000
vn -0.956305 -0.292372 0.000000
vn 0.956305 0.292371 0.000001
vn 0.956305 0.292372 -0.000000
vn 0.956305 0.292371 0.000000
vn 0.096516 -0.315690 0.943941
vn 0.096516 -0.315690 0.943941
vn 0.000000 -0.000000 1.000000
vn 0.096516 -0.315690 0.943941
vn 0.000000 -0.000000 1.000000
vn 0.000000 -0.000000 1.000000
vn -0.956305 -0.292371 0.000000
vn -0.956305 -0.292372 0.000000
vn -0.956305 -0.292372 0.000000
vn 0.956305 0.292371 0.000000
vn 0.956305 0.292372 -0.000000
vn 0.956305 0.292372 0.000001
vn 0.000000 -0.000000 1.000000
vn 0.000000 -0.000000 1.000000
vn -0.096515 0.315690 0.943941
vn 0.000000 -0.000000 1.000000
vn -0.096515 0.315690 0.943941
vn -0.096515 0.315690 0.943941
vn -0.956305 -0.292372 0.000000
vn -0.956305 -0.292372 -0.000001
vn -0.956305 -0.292372 0.000000
vn 0.956305 0.292372 0.000001
vn 0.956305 0.292372 -0.000000
vn 0.956305 0.292372 0.000001
vn -0.096515 0.315690 0.943941
vn -0.096515 0.315690 0.943941
vn 0.112259 0.236011 0.965244
vn -0.096515 0.315690 0.943941
vn 0.112259 0.236011 0.965244
vn -0.468994 -0.719329 0.512456
vn -0.956305 -0.292372 -0.000001
vn -0.956305 -0.292372 0.000000
vn -0.956305 -0.292372 0.000000
vn 0.956305 0.292372 0.000001
vn 0.956305 0.292372 -0.000000
vn 0.956305 0.292372 -0.000000
vn -0.384988 0.019206 0.922722
vn 0.395846 0.608174 0.688062
vn -0.905643 0.423888 -0.011390
vn 0.395846 0.608174 0.688062
vn 0.626397 0.778556 -0.038435
vn -0.905643 0.423888 -0.011390
vn -0.956305 -0.292372 0.000000
vn -0.956305 -0.292372 0.000001
vn -0.956305 -0.292372 0.000000
vn 0.956305 0.292372 -0.000000
vn 0.956305 0.292372 -0.000000
vn 0.956305 0.292372 -0.000001
vn -0.905643 0.423888 -0.011390
vn 0.626397 0.778556 -0.038435
vn 0.073554 0.570016 -0.818335
vn -0.905643 0.423888 -0.011390
vn 0.073554 0.570016 -0.818335
vn -0.832112 0.023720 -0.554101
vn -0.956305 -0.292372 0.000001
vn -0.956305 -0.292372 -0.000000
vn -0.956305 -0.292372 0.000000
vn 0.956305 0.292372 -0.000001
vn 0.956305 0.292372 -0.000000
vn 0.956305 0.292372 -0.000001
vn -0.300401 0.294545 -0.907195
vn -0.014338 0.694281 -0.719561
vn -0.096515 0.315690 -0.943941
vn -0.014338 0.694281 -0.719561
vn -0.096515 0.315690 -0.943941
vn -0.096515 0.315690 -0.943941
vn -0.956305 -0.292372 -0.000000
vn -0.956305 -0.292371 0.000000
vn -0.956305 -0.292372 0.000000
vn 0.956305 0.292372 -0.000001
vn 0.956305 0.292372 -0.000000
vn 0.956305 0.292371 0.000000
vn -0.096515 0.315690 -0.943941
vn -0.096515 0.315690 -0.943941
vn 0.000000 -0.000000 -1.000000
vn -0.096515 0.315690 -0.943941
vn 0.000000 -0.000000 -1.000000
vn 0.000000 -0.000000 -1.000000
vn -0.506311 -0.652239 0.564122
vn -0.468994 -0.719329 0.512456
vn 0.112259 0.236011 0.965244
vn -0.506311 -0.652239 0.564122
vn 0.112259 0.236011 0.965244
vn 0.480629 0.300877 0.823692
vn -0.715896 -0.698166 -0.007497
vn -0.324398 -0.925484 0.195566
vn -0.468994 -0.719329 0.512456
vn -0.715896 -0.698166 -0.007497
vn -0.468994 -0.719329 0.512456
vn -0.506311 -0.652239 0.564122
vn 0.480629 0.300877 0.823692
vn 0.112259 0.236011 0.965244
vn 0.442447 0.890580 0.105392
vn 0.480629 0.300877 0.823692
vn 0.442447 0.890580 0.105392
vn 0.686734 0.722960 -0.075664
vn 0.686734 0.722960 -0.075664
vn 0.442447 0.890580 0.105392
vn -0.014338 0.694281 -0.719561
vn 0.686734 0.722960 -0.075664
vn -0.014338 0.694281 -0.719561
vn 0.317555 0.645357 -0.694746
vn 0.317555 0.645357 -0.694746
vn -0.014338 0.694281 -0.719561
vn -0.300401 0.294545 -0.907195
vn 0.317555 0.645357 -0.694746
vn -0.300401 0.294545 -0.907195
vn -0.586103 -0.454054 -0.671058
vn -0.586103 -0.454054 -0.671058
vn -0.300401 0.294545 -0.907195
vn -0.324398 -0.925484 0.195566
vn -0.586103 -0.454054 -0.671058
vn -0.324398 -0.925484 0.195566
vn -0.715896 -0.698166 -0.007497
vn -0.384988 0.019206 0.922722
vn -0.506311 -0.652239 0.564122
vn 0.480629 0.300877 0.823692
vn -0.384988 0.019206 0.922722
vn 0.480629 0.300877 0.823692
vn 0.395846 0.608174 0.688062
vn -0.905643 0.423888 -0.011390
vn -0.715896 -0.698166 -0.007497
vn -0.506311 -0.652239 0.564122
vn -0.905643 0.423888 -0.011390
vn -0.506311 -0.652239 0.564122
vn -0.384988 0.019206 0.922722
vn 0.395846 0.608174 0.688062
vn 0.480629 0.300877 0.823692
vn 0.686734 0.722960 -0.075664
vn 0.395846 0.608174 0.688062
vn 0.686734 0.722960 -0.075664
vn 0.626397 0.778556 -0.038435
vn 0.626397 0.778556 -0.038435
vn 0.686734 0.722960 -0.075664
vn 0.317555 0.645357 -0.694746
vn 0.626397 0.778556 -0.038435
vn 0.317555 0.645357 -0.694746
vn 0.073554 0.570016 -0.818335
vn 0.073554 0.570016 -0.818335
vn 0.317555 0.645357 -0.694746
vn -0.586103 -0.454054 -0.671058
vn 0.073554 0.570016 -0.818335
vn -0.586103 -0.454054 -0.671058
vn -0.832112 0.023720 -0.554101
vn -0.832112 0.023720 -0.554101
vn -0.586103 -0.454054 -0.671058
vn -0.715896 -0.698166 -0.007497
vn -0.832112 0.023720 -0.554101
vn -0.715896 -0.698166 -0.007497
vn -0.905643 0.423888 -0.011390

# texture coords: 216
vt 0.915761 0.741622
vt 0.915557 0.734387
vt 0.914237 0.741412
vt 0.961089 0.741620
vt 0.959564 0.741411
vt 0.960884 0.734385
vt 0.915761 0.741622
vt 0.961089 0.741620
vt 0.915557 0.734387
vt 0.961089 0.741620
vt 0.960884 0.734385
vt 0.915557 0.734387
vt 0.915557 0.734387
vt 0.914999 0.729034
vt 0.914237 0.741412
vt 0.960884 0.734385
vt 0.959564 0.741411
vt 0.960326 0.729032
vt 0.915557 0.734387
vt 0.960884 0.734385
vt 0.960326 0.729032
vt 0.915557 0.734387
vt 0.960326 0.729032
vt 0.914999 0.729034
vt 0.914999 0.729034
vt 0.914237 0.726998
vt 0.914237 0.741412
vt 0.960326 0.729032
vt 0.959564 0.741411
vt 0.959564 0.726996
vt 0.914999 0.729034
vt 0.960326 0.729032
vt 0.914237 0.726998
vt 0.960326 0.729032
vt 0.959564 0.726996
vt 0.914237 0.726998
vt 0.914237 0.726998
vt 0.913475 0.728824
vt 0.914237 0.741412
vt 0.959564 0.726996
vt 0.959564 0.741411
vt 0.958802 0.728822
vt 0.914237 0.726998
vt 0.959564 0.726996
vt 0.958802 0.728822
vt 0.914237 0.726998
vt 0.958802 0.728822
vt 0.913475 0.728824
vt 0.913475 0.728824
vt 0.912917 0.734023
vt 0.914237 0.741412
vt 0.958802 0.728822
vt 0.959564 0.741411
vt 0.958244 0.734022
vt 0.913475 0.728824
vt 0.958802 0.728822
vt 0.912917 0.734023
vt 0.958802 0.728822
vt 0.958244 0.734022
vt 0.912917 0.734023
vt 0.912917 0.734023
vt 0.912713 0.741202
vt 0.914237 0.741412
vt 0.958244 0.734022
vt 0.959564 0.741411
vt 0.958040 0.741201
vt 0.912917 0.734023
vt 0.958244 0.734022
vt 0.958040 0.741201
vt 0.912917 0.734023
vt 0.958040 0.741201
vt 0.912713 0.741202
vt 0.912713 0.741202
vt 0.912917 0.748438
vt 0.914237 0.741412
vt 0.958040 0.741201
vt 0.959564 0.741411
vt 0.958244 0.748436
vt 0.912713 0.741202
vt 0.958040 0.741201
vt 0.912917 0.748438
vt 0.958040 0.741201
vt 0.958244 0.748436
vt 0.912917 0.748438
vt 0.912917 0.748438
vt 0.913475 0.753790
vt 0.914237 0.741412
vt 0.958244 0.748436
vt 0.959564 0.741411
vt 0.958802 0.753789
vt 0.912917 0.748438
vt 0.958244 0.748436
vt 0.958802 0.753789
vt 0.912917 0.748438
vt 0.958802 0.753789
vt 0.913475 0.753790
vt 0.913475 0.753790
vt 0.914237 0.755827
vt 0.914237 0.741412
vt 0.958802 0.753789
vt 0.959564 0.741411
vt 0.959564 0.755825
vt 0.764322 0.783332
vt 0.809646 0.783330
vt 0.764754 0.785323
vt 0.809646 0.783330
vt 0.810078 0.785321
vt 0.764754 0.785323
vt 0.914237 0.755827
vt 0.914999 0.754000
vt 0.914237 0.741412
vt 0.959564 0.755825
vt 0.959564 0.741411
vt 0.960326 0.753999
vt 0.764754 0.785323
vt 0.810078 0.785321
vt 0.810511 0.783449
vt 0.764754 0.785323
vt 0.810511 0.783449
vt 0.765187 0.783451
vt 0.914999 0.754000
vt 0.915557 0.748801
vt 0.914237 0.741412
vt 0.960326 0.753999
vt 0.959564 0.741411
vt 0.960884 0.748800
vt 0.914999 0.754000
vt 0.960326 0.753999
vt 0.915557 0.748801
vt 0.960326 0.753999
vt 0.960884 0.748800
vt 0.915557 0.748801
vt 0.915557 0.748801
vt 0.915761 0.741622
vt 0.914237 0.741412
vt 0.960884 0.748800
vt 0.959564 0.741411
vt 0.961089 0.741620
vt 0.915557 0.748801
vt 0.960884 0.748800
vt 0.961089 0.741620
vt 0.915557 0.748801
vt 0.961089 0.741620
vt 0.915761 0.741622
vt 0.802197 0.761849
vt 0.913475 0.753790
vt 0.958802 0.753789
vt 0.802197 0.761849
vt 0.958802 0.753789
vt 0.847521 0.761847
vt 0.802785 0.763861
vt 0.914237 0.755827
vt 0.913475 0.753790
vt 0.802785 0.763861
vt 0.913475 0.753790
vt 0.802197 0.761849
vt 0.847521 0.761847
vt 0.958802 0.753789
vt 0.959564 0.755825
vt 0.847521 0.761847
vt 0.959564 0.755825
vt 0.848109 0.763860
vt 0.848109 0.763860
vt 0.959564 0.755825
vt 0.960326 0.753999
vt 0.848109 0.763860
vt 0.960326 0.753999
vt 0.848697 0.762009
vt 0.848697 0.762009
vt 0.960326 0.753999
vt 0.914999 0.754000
vt 0.848697 0.762009
vt 0.914999 0.754000
vt 0.803373 0.762011
vt 0.803373 0.762011
vt 0.914999 0.754000
vt 0.914237 0.755827
vt 0.803373 0.762011
vt 0.914237 0.755827
vt 0.802785 0.763861
vt 0.764322 0.783332
vt 0.802197 0.761849
vt 0.847521 0.761847
vt 0.764322 0.783332
vt 0.847521 0.761847
vt 0.809646 0.783330
vt 0.764754 0.785323
vt 0.802785 0.763861
vt 0.802197 0.761849
vt 0.764754 0.785323
vt 0.802197 0.761849
vt 0.764322 0.783332
vt 0.809646 0.783330
vt 0.847521 0.761847
vt 0.848109 0.763860
vt 0.809646 0.783330
vt 0.848109 0.763860
vt 0.810078 0.785321
vt 0.810078 0.785321
vt 0.848109 0.763860
vt 0.848697 0.762009
vt 0.810078 0.785321
vt 0.848697 0.762009
vt 0.810511 0.783449
vt 0.810511 0.783449
vt 0.848697 0.762009
vt 0.803373 0.762011
vt 0.810511 0.783449
vt 0.803373 0.762011
vt 0.765187 0.783451
vt 0.765187 0.783451
vt 0.803373 0.762011
vt 0.802785 0.763861
vt 0.765187 0.783451
vt 0.802785 0.763861
vt 0.764754 0.785323

# polygons: 72
usemtl Material01_1
f 1/1/1 3/2/2 26/3/3
f 2/4/4 25/5/5 4/6/6
f 1/7/7 2/8/8 3/9/9
f 2/10/10 4/11/11 3/12/12
f 3/13/13 5/14/14 26/15/15
f 4/16/16 25/17/17 6/18/18
f 3/19/19 4/20/20 6/21/21
f 3/22/22 6/23/23 5/24/24
f 5/25/25 7/26/26 26/27/27
f 6/28/28 25/29/29 8/30/30
f 5/31/31 6/32/32 7/33/33
f 6/34/34 8/35/35 7/36/36
f 7/37/37 9/38/38 26/39/39
f 8/40/40 25/41/41 10/42/42
f 7/43/43 8/44/44 10/45/45
f 7/46/46 10/47/47 9/48/48
f 9/49/49 11/50/50 26/51/51
f 10/52/52 25/53/53 12/54/54
f 9/55/55 10/56/56 11/57/57
f 10/58/58 12/59/59 11/60/60
f 11/61/61 13/62/62 26/63/63
f 12/64/64 25/65/65 14/66/66
f 11/67/67 12/68/68 14/69/69
f 11/70/70 14/71/71 13/72/72
f 13/73/73 15/74/74 26/75/75
f 14/76/76 25/77/77 16/78/78
f 13/79/79 14/80/80 15/81/81
f 14/82/82 16/83/83 15/84/84
f 15/85/85 17/86/86 26/87/87
f 16/88/88 25/89/89 18/90/90
f 15/91/91 16/92/92 18/93/93
f 15/94/94 18/95/95 17/96/96
f 17/97/97 19/98/98 26/99/99
f 18/100/100 25/101/101 20/102/102
f 33/103/103 34/104/104 35/105/105
f 34/106/106 36/107/107 35/108/108
f 19/109/109 21/110/110 26/111/111
f 20/112/112 25/113/113 22/114/114
f 35/115/115 36/116/116 37/117/117
f 35/118/118 37/119/119 38/120/120
f 21/121/121 23/122/122 26/123/123
f 22/124/124 25/125/125 24/126/126
f 21/127/127 22/128/128 23/129/129
f 22/130/130 24/131/131 23/132/132
f 23/133/133 1/134/134 26/135/135
f 24/136/136 25/137/137 2/138/138
f 23/139/139 24/140/140 2/141/141
f 23/142/142 2/143/143 1/144/144
f 27/145/145 17/146/146 18/147/147
f 27/148/148 18/149/149 28/150/150
f 29/151/151 19/152/152 17/153/153
f 29/154/154 17/155/155 27/156/156
f 28/157/157 18/158/158 20/159/159
f 28/160/160 20/161/161 30/162/162
f 30/163/163 20/164/164 22/165/165
f 30/166/166 22/167/167 31/168/168
f 31/169/169 22/170/170 21/171/171
f 31/172/172 21/173/173 32/174/174
f 32/175/175 21/176/176 19/177/177
f 32/178/178 19/179/179 29/180/180
f 33/181/181 27/182/182 28/183/183
f 33/184/184 28/185/185 34/186/186
f 35/187/187 29/188/188 27/189/189
f 35/190/190 27/191/191 33/192/192
f 34/193/193 28/194/194 30/195/195
f 34/196/196 30/197/197 36/198/198
f 36/199/199 30/200/200 31/201/201
f 36/202/202 31/203/203 37/204/204
f 37/205/205 31/206/206 32/207/207
f 37/208/208 32/209/209 38/210/210
f 38/211/211 32/212/212 29/213/213
f 38/214/214 29/215/215 35/216/216

# object end 'Converted object 0(m1)'
