# created by: Biturn ver 0.88
# http://mirex.mypage.sk
# ------------------------------------
# 40 vertices, 60 polygons, 180 points, 2 materials




#-- object 'Converted object 0(m1)' --
# 40 vertices, 60 polygons, 180 points

g Converted object 0(m1)

# vertexs: 40
v -1.075763 -15.770523 1.565870
v -1.033445 -15.770523 1.449600
v -1.033445 -15.530994 1.449600
v -1.075763 -15.530994 1.565870
v -1.075763 -15.770523 1.565870
v -0.813763 -15.770523 1.591275
v -0.790154 -15.770523 1.469818
v -0.790154 -15.530994 1.469818
v -0.813763 -15.530994 1.591275
v -0.813763 -15.770523 1.591275
v -0.505250 -15.770523 1.559208
v -0.513880 -15.770523 1.435777
v -0.513880 -15.530994 1.435777
v -0.505250 -15.530994 1.559208
v -0.505250 -15.770523 1.559208
v 0.041968 -15.770523 1.404686
v -0.016120 -15.770523 1.295437
v -0.016120 -15.530994 1.295437
v 0.041968 -15.530994 1.404686
v 0.041968 -15.770523 1.404686
v -1.995745 -15.646042 1.080643
v -2.047270 -15.646042 1.222210
v -1.877228 -15.376637 1.123780
v -1.928753 -15.376637 1.265347
v -1.577132 -15.233288 1.233006
v -1.628658 -15.233288 1.374573
v -1.235876 -15.283073 1.357213
v -1.287402 -15.283073 1.498780
v -1.013137 -15.502693 1.438284
v -1.064663 -15.502693 1.579850
v -1.013137 -15.789387 1.438284
v -1.064663 -15.789387 1.579850
v -1.235876 -16.009007 1.357213
v -1.287402 -16.009007 1.498780
v -1.577132 -16.058788 1.233006
v -1.628658 -16.058788 1.374573
v -1.877228 -15.915443 1.123780
v -1.928753 -15.915443 1.265347
v -1.540691 -15.646042 1.406590
v -1.489165 -15.646042 1.265024

# normals: 180
vn 0.000000 -1.000000 0.000000
vn 0.000000 -1.000000 0.000000
vn 0.000000 -1.000000 0.000000
vn 0.000000 -1.000000 0.000000
vn 0.000000 -1.000000 0.000000
vn 0.000000 -1.000000 0.000000
vn 0.082814 0.000000 -0.996565
vn 0.082814 0.000000 -0.996565
vn -0.019841 0.000000 -0.999803
vn 0.082814 0.000000 -0.996565
vn -0.019841 0.000000 -0.999803
vn -0.019841 0.000000 -0.999803
vn 0.000000 1.000000 0.000000
vn 0.000000 1.000000 0.000000
vn 0.000000 1.000000 0.000000
vn 0.000000 1.000000 0.000000
vn 0.000000 1.000000 0.000000
vn 0.000000 1.000000 0.000000
vn -0.096514 0.000000 0.995332
vn -0.096514 0.000000 0.995332
vn 0.003452 0.000000 0.999994
vn -0.096514 0.000000 0.995332
vn 0.003452 0.000000 0.999994
vn 0.003452 0.000000 0.999994
vn 0.000000 -1.000000 0.000000
vn 0.000000 -1.000000 0.000000
vn 0.000000 -1.000000 0.000000
vn 0.000000 -1.000000 0.000000
vn 0.000000 -1.000000 0.000000
vn 0.000000 -1.000000 0.000000
vn -0.019841 0.000000 -0.999803
vn -0.019841 0.000000 -0.999803
vn -0.197397 0.000000 -0.980324
vn -0.019841 0.000000 -0.999803
vn -0.197397 0.000000 -0.980324
vn -0.197397 0.000000 -0.980324
vn 0.000000 1.000000 0.000000
vn 0.000000 1.000000 0.000000
vn 0.000000 1.000000 0.000000
vn 0.000000 1.000000 0.000000
vn 0.000000 1.000000 0.000000
vn 0.000000 1.000000 0.000000
vn 0.003452 0.000000 0.999994
vn 0.003452 0.000000 0.999994
vn 0.188260 0.000000 0.982119
vn 0.003452 0.000000 0.999994
vn 0.188260 0.000000 0.982119
vn 0.188260 0.000000 0.982119
vn 0.000000 -1.000000 0.000000
vn 0.000000 -1.000000 0.000000
vn 0.000000 -1.000000 0.000000
vn 0.000000 -1.000000 0.000000
vn 0.000000 -1.000000 0.000000
vn 0.000000 -1.000000 0.000000
vn -0.197397 0.000000 -0.980324
vn -0.197397 0.000000 -0.980324
vn -0.271364 0.000000 -0.962477
vn -0.197397 0.000000 -0.980324
vn -0.271364 0.000000 -0.962477
vn -0.271364 0.000000 -0.962477
vn 0.000000 1.000000 0.000000
vn 0.000000 1.000000 0.000000
vn 0.000000 1.000000 0.000000
vn 0.000000 1.000000 0.000000
vn 0.000000 1.000000 0.000000
vn 0.000000 1.000000 0.000000
vn 0.188260 0.000000 0.982119
vn 0.188260 0.000000 0.982119
vn 0.271751 0.000000 0.962368
vn 0.188260 0.000000 0.982119
vn 0.271751 0.000000 0.962368
vn 0.271751 0.000000 0.962368
vn 0.342022 -0.000000 -0.939692
vn 0.342021 -0.000000 -0.939692
vn 0.342020 0.000000 -0.939693
vn -0.342021 -0.000000 0.939692
vn -0.342020 -0.000000 0.939693
vn -0.342020 0.000000 0.939692
vn -0.928456 -0.154189 -0.337928
vn -0.928457 0.154183 -0.337928
vn -0.659149 0.712718 -0.239909
vn -0.928457 0.154183 -0.337928
vn -0.659149 0.712718 -0.239909
vn -0.659149 0.712718 -0.239909
vn 0.342021 -0.000000 -0.939692
vn 0.342020 -0.000001 -0.939693
vn 0.342020 0.000000 -0.939693
vn -0.342020 0.000000 0.939692
vn -0.342020 -0.000000 0.939693
vn -0.342021 0.000000 0.939692
vn -0.659149 0.712718 -0.239909
vn -0.659149 0.712718 -0.239909
vn -0.133766 0.989816 -0.048686
vn -0.659149 0.712718 -0.239909
vn -0.133766 0.989816 -0.048686
vn -0.133766 0.989816 -0.048687
vn 0.342020 -0.000001 -0.939693
vn 0.342019 -0.000001 -0.939693
vn 0.342020 0.000000 -0.939693
vn -0.342021 0.000000 0.939692
vn -0.342020 -0.000000 0.939693
vn -0.342020 -0.000001 0.939693
vn -0.133766 0.989816 -0.048687
vn -0.133766 0.989816 -0.048686
vn 0.401749 0.904000 0.146226
vn -0.133766 0.989816 -0.048686
vn 0.401749 0.904000 0.146226
vn 0.401749 0.904000 0.146226
vn 0.342019 -0.000001 -0.939693
vn 0.342019 -0.000000 -0.939693
vn 0.342020 0.000000 -0.939693
vn -0.342020 -0.000001 0.939693
vn -0.342020 -0.000000 0.939693
vn -0.342019 -0.000001 0.939693
vn 0.401749 0.904000 0.146226
vn 0.401749 0.904000 0.146226
vn 0.638659 0.733539 0.232454
vn 0.401749 0.904000 0.146226
vn 0.638659 0.733539 0.232454
vn 0.638661 0.733538 0.232453
vn 0.342019 -0.000000 -0.939693
vn 0.342019 0.000000 -0.939693
vn 0.342020 0.000000 -0.939693
vn -0.342019 -0.000001 0.939693
vn -0.342020 -0.000000 0.939693
vn -0.342019 0.000001 0.939693
vn 0.939693 0.000000 0.342019
vn 0.939693 0.000000 0.342019
vn 0.939693 0.000000 0.342019
vn 0.939693 0.000000 0.342019
vn 0.939693 0.000000 0.342019
vn 0.939693 0.000000 0.342019
vn 0.342019 0.000000 -0.939693
vn 0.342019 0.000001 -0.939693
vn 0.342020 0.000000 -0.939693
vn -0.342019 0.000001 0.939693
vn -0.342020 -0.000000 0.939693
vn -0.342020 0.000001 0.939693
vn 0.638659 -0.733539 0.232454
vn 0.638659 -0.733539 0.232453
vn 0.401745 -0.904002 0.146224
vn 0.638659 -0.733539 0.232454
vn 0.401745 -0.904002 0.146224
vn 0.401745 -0.904002 0.146225
vn 0.342019 0.000001 -0.939693
vn 0.342020 0.000001 -0.939693
vn 0.342020 0.000000 -0.939693
vn -0.342020 0.000001 0.939693
vn -0.342020 -0.000000 0.939693
vn -0.342021 -0.000000 0.939692
vn 0.401745 -0.904002 0.146225
vn 0.401745 -0.904002 0.146224
vn -0.133766 -0.989816 -0.048686
vn 0.401745 -0.904002 0.146224
vn -0.133766 -0.989816 -0.048687
vn -0.133766 -0.989816 -0.048686
vn 0.342020 0.000001 -0.939693
vn 0.342021 0.000000 -0.939692
vn 0.342020 0.000000 -0.939693
vn -0.342021 -0.000000 0.939692
vn -0.342020 -0.000000 0.939693
vn -0.342020 -0.000000 0.939692
vn -0.133766 -0.989816 -0.048686
vn -0.133766 -0.989816 -0.048687
vn -0.659144 -0.712723 -0.239907
vn -0.133766 -0.989816 -0.048686
vn -0.659144 -0.712723 -0.239907
vn -0.659144 -0.712723 -0.239907
vn 0.342021 0.000000 -0.939692
vn 0.342022 -0.000000 -0.939692
vn 0.342020 0.000000 -0.939693
vn -0.342020 -0.000000 0.939692
vn -0.342020 -0.000000 0.939693
vn -0.342021 -0.000000 0.939692
vn -0.659144 -0.712723 -0.239907
vn -0.659144 -0.712723 -0.239907
vn -0.928456 -0.154189 -0.337928
vn -0.659144 -0.712723 -0.239907
vn -0.928457 0.154183 -0.337928
vn -0.928456 -0.154189 -0.337928

# texture coords: 180
vt 0.295256 0.453698
vt 0.320944 0.453746
vt 0.355095 0.453611
vt 0.320944 0.453746
vt 0.376958 0.453667
vt 0.355095 0.453611
vt 0.320944 0.453746
vt 0.320944 0.459254
vt 0.376958 0.459175
vt 0.320944 0.453746
vt 0.376958 0.459175
vt 0.376958 0.453667
vt 0.320944 0.459254
vt 0.295256 0.459207
vt 0.376958 0.459175
vt 0.295256 0.459207
vt 0.355095 0.459120
vt 0.376958 0.459175
vt 0.295256 0.459207
vt 0.295256 0.453698
vt 0.355095 0.453611
vt 0.295256 0.459207
vt 0.355095 0.453611
vt 0.355095 0.459120
vt 0.355095 0.453611
vt 0.376958 0.453667
vt 0.448153 0.453606
vt 0.355095 0.453611
vt 0.448153 0.453606
vt 0.433806 0.453541
vt 0.376958 0.453667
vt 0.376958 0.459175
vt 0.448153 0.453606
vt 0.376958 0.459175
vt 0.448153 0.459115
vt 0.448153 0.453606
vt 0.376958 0.459175
vt 0.355095 0.459120
vt 0.433806 0.459049
vt 0.376958 0.459175
vt 0.433806 0.459049
vt 0.448153 0.459115
vt 0.355095 0.459120
vt 0.355095 0.453611
vt 0.433806 0.459049
vt 0.355095 0.453611
vt 0.433806 0.453541
vt 0.433806 0.459049
vt 0.433806 0.453541
vt 0.448153 0.453606
vt 0.586416 0.453465
vt 0.448153 0.453606
vt 0.586941 0.453537
vt 0.586416 0.453465
vt 0.448153 0.453606
vt 0.448153 0.459115
vt 0.586941 0.459046
vt 0.448153 0.453606
vt 0.586941 0.459046
vt 0.586941 0.453537
vt 0.448153 0.459115
vt 0.433806 0.459049
vt 0.586941 0.459046
vt 0.433806 0.459049
vt 0.586416 0.458974
vt 0.586941 0.459046
vt 0.433806 0.459049
vt 0.433806 0.453541
vt 0.586416 0.453465
vt 0.433806 0.459049
vt 0.586416 0.453465
vt 0.586416 0.458974
vt 0.137854 0.457069
vt 0.160710 0.463209
vt 0.235548 0.456831
vt 0.106578 0.457011
vt 0.204272 0.456774
vt 0.129434 0.463151
vt 0.137854 0.457069
vt 0.106578 0.457011
vt 0.160710 0.463209
vt 0.106578 0.457011
vt 0.129434 0.463151
vt 0.160710 0.463209
vt 0.160710 0.463209
vt 0.218584 0.466365
vt 0.235548 0.456831
vt 0.129434 0.463151
vt 0.204272 0.456774
vt 0.187307 0.466307
vt 0.160710 0.463209
vt 0.129434 0.463151
vt 0.187307 0.466307
vt 0.160710 0.463209
vt 0.187307 0.466307
vt 0.218584 0.466365
vt 0.218584 0.466365
vt 0.284395 0.465060
vt 0.235548 0.456831
vt 0.187307 0.466307
vt 0.204272 0.456774
vt 0.253119 0.465002
vt 0.218584 0.466365
vt 0.187307 0.466307
vt 0.284395 0.465060
vt 0.187307 0.466307
vt 0.253119 0.465002
vt 0.284395 0.465060
vt 0.284395 0.465060
vt 0.327350 0.459905
vt 0.235548 0.456831
vt 0.253119 0.465002
vt 0.204272 0.456774
vt 0.296074 0.459847
vt 0.284395 0.465060
vt 0.253119 0.465002
vt 0.296074 0.459847
vt 0.284395 0.465060
vt 0.296074 0.459847
vt 0.327350 0.459905
vt 0.327350 0.459905
vt 0.327350 0.453312
vt 0.235548 0.456831
vt 0.296074 0.459847
vt 0.204272 0.456774
vt 0.296074 0.453254
vt 0.327350 0.459905
vt 0.296074 0.459847
vt 0.327350 0.453312
vt 0.296074 0.459847
vt 0.296074 0.453254
vt 0.327350 0.453312
vt 0.327350 0.453312
vt 0.284395 0.448366
vt 0.235548 0.456831
vt 0.296074 0.453254
vt 0.204272 0.456774
vt 0.253119 0.448308
vt 0.327350 0.453312
vt 0.296074 0.453254
vt 0.253119 0.448308
vt 0.327350 0.453312
vt 0.253119 0.448308
vt 0.284395 0.448366
vt 0.284395 0.448366
vt 0.218584 0.447381
vt 0.235548 0.456831
vt 0.253119 0.448308
vt 0.204272 0.456774
vt 0.187307 0.447323
vt 0.284395 0.448366
vt 0.253119 0.448308
vt 0.218584 0.447381
vt 0.253119 0.448308
vt 0.187307 0.447323
vt 0.218584 0.447381
vt 0.218584 0.447381
vt 0.160710 0.450818
vt 0.235548 0.456831
vt 0.187307 0.447323
vt 0.204272 0.456774
vt 0.129434 0.450760
vt 0.218584 0.447381
vt 0.187307 0.447323
vt 0.129434 0.450760
vt 0.218584 0.447381
vt 0.129434 0.450760
vt 0.160710 0.450818
vt 0.160710 0.450818
vt 0.137854 0.457069
vt 0.235548 0.456831
vt 0.129434 0.450760
vt 0.204272 0.456774
vt 0.106578 0.457011
vt 0.160710 0.450818
vt 0.129434 0.450760
vt 0.137854 0.457069
vt 0.129434 0.450760
vt 0.106578 0.457011
vt 0.137854 0.457069

# polygons: 60
usemtl Material01_1
f 1/1/1 2/2/2 6/3/3
f 2/4/4 7/5/5 6/6/6
f 2/7/7 3/8/8 8/9/9
f 2/10/10 8/11/11 7/12/12
f 3/13/13 4/14/14 8/15/15
f 4/16/16 9/17/17 8/18/18
f 4/19/19 5/20/20 10/21/21
f 4/22/22 10/23/23 9/24/24
f 6/25/25 7/26/26 12/27/27
f 6/28/28 12/29/29 11/30/30
f 7/31/31 8/32/32 12/33/33
f 8/34/34 13/35/35 12/36/36
f 8/37/37 9/38/38 14/39/39
f 8/40/40 14/41/41 13/42/42
f 9/43/43 10/44/44 14/45/45
f 10/46/46 15/47/47 14/48/48
f 11/49/49 12/50/50 16/51/51
f 12/52/52 17/53/53 16/54/54
f 12/55/55 13/56/56 18/57/57
f 12/58/58 18/59/59 17/60/60
f 13/61/61 14/62/62 18/63/63
f 14/64/64 19/65/65 18/66/66
f 14/67/67 15/68/68 20/69/69
f 14/70/70 20/71/71 19/72/72
f 21/73/73 23/74/74 40/75/75
f 22/76/76 39/77/77 24/78/78
f 21/79/79 22/80/80 23/81/81
f 22/82/82 24/83/83 23/84/84
f 23/85/85 25/86/86 40/87/87
f 24/88/88 39/89/89 26/90/90
f 23/91/91 24/92/92 26/93/93
f 23/94/94 26/95/95 25/96/96
f 25/97/97 27/98/98 40/99/99
f 26/100/100 39/101/101 28/102/102
f 25/103/103 26/104/104 27/105/105
f 26/106/106 28/107/107 27/108/108
f 27/109/109 29/110/110 40/111/111
f 28/112/112 39/113/113 30/114/114
f 27/115/115 28/116/116 30/117/117
f 27/118/118 30/119/119 29/120/120
f 29/121/121 31/122/122 40/123/123
f 30/124/124 39/125/125 32/126/126
f 29/127/127 30/128/128 31/129/129
f 30/130/130 32/131/131 31/132/132
f 31/133/133 33/134/134 40/135/135
f 32/136/136 39/137/137 34/138/138
f 31/139/139 32/140/140 34/141/141
f 31/142/142 34/143/143 33/144/144
f 33/145/145 35/146/146 40/147/147
f 34/148/148 39/149/149 36/150/150
f 33/151/151 34/152/152 35/153/153
f 34/154/154 36/155/155 35/156/156
f 35/157/157 37/158/158 40/159/159
f 36/160/160 39/161/161 38/162/162
f 35/163/163 36/164/164 38/165/165
f 35/166/166 38/167/167 37/168/168
f 37/169/169 21/170/170 40/171/171
f 38/172/172 39/173/173 22/174/174
f 37/175/175 38/176/176 21/177/177
f 38/178/178 22/179/179 21/180/180

# object end 'Converted object 0(m1)'
