# created by: Biturn ver 0.88
# http://mirex.mypage.sk
# ------------------------------------
# 40 vertices, 60 polygons, 180 points, 2 materials




#-- object 'Converted object 0(m1)' --
# 40 vertices, 60 polygons, 180 points

g Converted object 0(m1)

# vertexs: 40
v -0.320275 -12.458996 -1.179701
v -0.289132 -12.458996 -1.083853
v -0.289132 -12.698521 -1.083853
v -0.320275 -12.698521 -1.179701
v -0.320275 -12.458996 -1.179701
v -0.106282 -12.458996 -1.192934
v -0.090516 -12.458996 -1.093395
v -0.090516 -12.698521 -1.093395
v -0.106282 -12.698521 -1.192934
v -0.106282 -12.458996 -1.192934
v 0.340189 -12.458996 -1.043120
v 0.261868 -12.458996 -0.979697
v 0.261868 -12.698521 -0.979697
v 0.340189 -12.698521 -1.043120
v 0.340189 -12.458996 -1.043120
v 0.449008 -12.458996 -0.781197
v 0.398617 -12.458996 -0.693919
v 0.398617 -12.698521 -0.693919
v 0.449008 -12.698521 -0.781197
v 0.449008 -12.458996 -0.781197
v -0.519487 -12.583477 -1.002843
v -0.557405 -12.583477 -1.119545
v -0.512870 -12.852882 -0.999003
v -0.550788 -12.852882 -1.115704
v -0.477666 -13.143045 -1.014121
v -0.515583 -13.143045 -1.130823
v -0.282008 -13.133259 -1.072348
v -0.319927 -13.133259 -1.189050
v -0.272923 -12.726826 -1.074064
v -0.310841 -12.726826 -1.190765
v -0.272923 -12.440132 -1.074064
v -0.310841 -12.440132 -1.190765
v -0.282008 -12.061172 -1.072348
v -0.319927 -12.061172 -1.189050
v -0.478587 -12.058054 -1.012525
v -0.516505 -12.058054 -1.129227
v -0.512870 -12.314075 -0.999003
v -0.550788 -12.314075 -1.115704
v -0.405419 -12.583477 -1.161701
v -0.367500 -12.583477 -1.045000

# normals: 180
vn 0.000000 1.000000 0.000000
vn 0.000000 1.000000 0.000000
vn 0.000000 1.000000 0.000000
vn 0.000000 1.000000 0.000000
vn 0.000000 1.000000 0.000000
vn 0.000000 1.000000 0.000000
vn 0.047983 0.000000 0.998848
vn 0.047983 0.000000 0.998848
vn -0.131670 0.000000 0.991294
vn 0.047983 0.000000 0.998848
vn -0.131670 0.000000 0.991294
vn -0.131670 0.000000 0.991294
vn 0.000000 -1.000000 0.000000
vn 0.000000 -1.000000 0.000000
vn 0.000000 -1.000000 0.000000
vn 0.000000 -1.000000 0.000000
vn 0.000000 -1.000000 0.000000
vn 0.000000 -1.000000 0.000000
vn -0.061719 0.000000 -0.998094
vn -0.061719 0.000000 -0.998094
vn 0.130619 0.000000 -0.991433
vn -0.061719 0.000000 -0.998094
vn 0.130619 0.000000 -0.991433
vn 0.130619 0.000000 -0.991433
vn 0.000000 1.000000 0.000000
vn 0.000000 1.000000 0.000000
vn 0.000000 1.000000 0.000000
vn 0.000000 1.000000 0.000000
vn 0.000000 1.000000 0.000000
vn 0.000000 1.000000 0.000000
vn -0.131670 0.000000 0.991294
vn -0.131670 0.000000 0.991294
vn -0.658102 0.000000 0.752929
vn -0.131670 0.000000 0.991294
vn -0.658102 0.000000 0.752929
vn -0.658102 0.000000 0.752929
vn 0.000000 -1.000000 0.000000
vn 0.000000 -1.000000 0.000000
vn 0.000000 -1.000000 0.000000
vn 0.000000 -1.000000 0.000000
vn 0.000000 -1.000000 0.000000
vn 0.000000 -1.000000 0.000000
vn 0.130619 0.000000 -0.991433
vn 0.130619 0.000000 -0.991433
vn 0.681924 0.000000 -0.731423
vn 0.130619 0.000000 -0.991433
vn 0.681924 0.000000 -0.731423
vn 0.681924 0.000000 -0.731423
vn 0.000000 1.000000 0.000000
vn 0.000000 1.000000 0.000000
vn 0.000000 1.000000 0.000000
vn 0.000000 1.000000 0.000000
vn 0.000000 1.000000 0.000000
vn 0.000000 1.000000 0.000000
vn -0.658102 0.000000 0.752929
vn -0.658102 0.000000 0.752929
vn -0.902044 0.000000 0.431643
vn -0.658102 0.000000 0.752929
vn -0.902044 0.000000 0.431643
vn -0.902044 0.000000 0.431643
vn 0.000000 -1.000000 0.000000
vn 0.000000 -1.000000 0.000000
vn 0.000000 -1.000000 0.000000
vn 0.000000 -1.000000 0.000000
vn 0.000000 -1.000000 0.000000
vn 0.000000 -1.000000 0.000000
vn 0.681924 0.000000 -0.731423
vn 0.681924 0.000000 -0.731423
vn 0.923473 0.000000 -0.383664
vn 0.681924 0.000000 -0.731423
vn 0.923473 0.000000 -0.383664
vn 0.923473 0.000000 -0.383664
vn -0.630513 0.005153 0.776162
vn -0.712213 -0.064291 0.699013
vn 0.290816 -0.000420 0.956779
vn -0.959063 -0.005366 -0.283143
vn -0.290814 0.000420 -0.956779
vn -0.884949 -0.056727 -0.462221
vn -0.630513 0.005153 0.776162
vn -0.959063 -0.005366 -0.283143
vn -0.712213 -0.064291 0.699013
vn -0.959063 -0.005366 -0.283143
vn -0.884949 -0.056727 -0.462221
vn -0.712213 -0.064291 0.699013
vn -0.712213 -0.064291 0.699013
vn -0.117280 -0.458301 0.881025
vn 0.290816 -0.000420 0.956779
vn -0.884949 -0.056727 -0.462221
vn -0.290814 0.000420 -0.956779
vn -0.677474 -0.633686 -0.373457
vn -0.712213 -0.064291 0.699013
vn -0.884949 -0.056727 -0.462221
vn -0.677474 -0.633686 -0.373457
vn -0.712213 -0.064291 0.699013
vn -0.677474 -0.633686 -0.373457
vn -0.117280 -0.458301 0.881025
vn -0.117280 -0.458301 0.881025
vn 0.729366 -0.581728 0.360026
vn 0.290816 -0.000420 0.956779
vn -0.677474 -0.633686 -0.373457
vn -0.290814 0.000420 -0.956779
vn 0.168633 -0.407180 -0.897646
vn -0.117280 -0.458301 0.881025
vn -0.677474 -0.633686 -0.373457
vn 0.729366 -0.581728 0.360026
vn -0.677474 -0.633686 -0.373457
vn 0.168633 -0.407180 -0.897646
vn 0.729366 -0.581728 0.360026
vn 0.729366 -0.581728 0.360026
vn 0.886323 -0.017859 0.462723
vn 0.290816 -0.000420 0.956779
vn 0.168633 -0.407180 -0.897646
vn -0.290814 0.000420 -0.956779
vn 0.715028 -0.018934 -0.698840
vn 0.729366 -0.581728 0.360026
vn 0.168633 -0.407180 -0.897646
vn 0.715028 -0.018934 -0.698840
vn 0.729366 -0.581728 0.360026
vn 0.715028 -0.018934 -0.698840
vn 0.886323 -0.017859 0.462723
vn 0.887344 0.000000 0.461108
vn 0.988370 0.000000 0.152067
vn 0.293752 0.000000 0.955882
vn 0.714719 0.000000 -0.699412
vn -0.293752 0.000000 -0.955882
vn 0.461108 0.000000 -0.887344
vn 0.887344 0.000000 0.461108
vn 0.714719 0.000000 -0.699412
vn 0.988370 0.000000 0.152067
vn 0.714719 0.000000 -0.699412
vn 0.461108 0.000000 -0.887344
vn 0.988370 0.000000 0.152067
vn 0.987978 0.022994 0.152876
vn 0.630785 0.419761 0.652619
vn 0.290816 -0.000420 0.956779
vn 0.462615 0.015104 -0.886431
vn -0.290814 0.000420 -0.956779
vn 0.382350 0.579022 -0.720098
vn 0.987978 0.022994 0.152876
vn 0.462615 0.015104 -0.886431
vn 0.382350 0.579022 -0.720098
vn 0.987978 0.022994 0.152876
vn 0.382350 0.579022 -0.720098
vn 0.630785 0.419761 0.652619
vn 0.630785 0.419761 0.652619
vn -0.344570 0.633667 0.692631
vn 0.290816 -0.000420 0.956779
vn 0.382350 0.579022 -0.720098
vn -0.290814 0.000420 -0.956779
vn -0.615435 0.454295 -0.644093
vn 0.630785 0.419761 0.652619
vn 0.382350 0.579022 -0.720098
vn -0.344570 0.633667 0.692631
vn 0.382350 0.579022 -0.720098
vn -0.615435 0.454295 -0.644093
vn -0.344570 0.633667 0.692631
vn -0.344570 0.633667 0.692631
vn -0.459572 0.052204 0.886605
vn 0.290816 -0.000420 0.956779
vn -0.615435 0.454295 -0.644093
vn -0.290814 0.000420 -0.956779
vn -0.985175 0.075506 -0.154045
vn -0.344570 0.633667 0.692631
vn -0.615435 0.454295 -0.644093
vn -0.985175 0.075506 -0.154045
vn -0.344570 0.633667 0.692631
vn -0.985175 0.075506 -0.154045
vn -0.459572 0.052204 0.886605
vn -0.459572 0.052204 0.886605
vn -0.630513 0.005153 0.776162
vn 0.290816 -0.000420 0.956779
vn -0.985175 0.075506 -0.154045
vn -0.290814 0.000420 -0.956779
vn -0.959063 -0.005366 -0.283143
vn -0.459572 0.052204 0.886605
vn -0.985175 0.075506 -0.154045
vn -0.630513 0.005153 0.776162
vn -0.985175 0.075506 -0.154045
vn -0.959063 -0.005366 -0.283143
vn -0.630513 0.005153 0.776162

# texture coords: 180
vt 0.357734 0.530962
vt 0.378085 0.530922
vt 0.407478 0.531030
vt 0.378085 0.530922
vt 0.424622 0.530984
vt 0.407478 0.531030
vt 0.378085 0.530922
vt 0.378085 0.525414
vt 0.424622 0.525475
vt 0.378085 0.530922
vt 0.424622 0.525475
vt 0.424622 0.530984
vt 0.378085 0.525414
vt 0.357734 0.525454
vt 0.424622 0.525475
vt 0.357734 0.525454
vt 0.407478 0.525521
vt 0.424622 0.525475
vt 0.357734 0.525454
vt 0.357734 0.530962
vt 0.407478 0.531030
vt 0.357734 0.525454
vt 0.407478 0.531030
vt 0.407478 0.525521
vt 0.407478 0.531030
vt 0.424622 0.530984
vt 0.524704 0.531026
vt 0.407478 0.531030
vt 0.524704 0.531026
vt 0.535055 0.531080
vt 0.424622 0.530984
vt 0.424622 0.525475
vt 0.524704 0.531026
vt 0.424622 0.525475
vt 0.524704 0.525517
vt 0.524704 0.531026
vt 0.424622 0.525475
vt 0.407478 0.525521
vt 0.535055 0.525572
vt 0.424622 0.525475
vt 0.535055 0.525572
vt 0.524704 0.525517
vt 0.407478 0.525521
vt 0.407478 0.531030
vt 0.535055 0.525572
vt 0.407478 0.531030
vt 0.535055 0.531080
vt 0.535055 0.525572
vt 0.535055 0.531080
vt 0.524704 0.531026
vt 0.596375 0.530978
vt 0.524704 0.531026
vt 0.595948 0.530919
vt 0.596375 0.530978
vt 0.524704 0.531026
vt 0.524704 0.525517
vt 0.595948 0.525410
vt 0.524704 0.531026
vt 0.595948 0.525410
vt 0.595948 0.530919
vt 0.524704 0.525517
vt 0.535055 0.525572
vt 0.595948 0.525410
vt 0.535055 0.525572
vt 0.596375 0.525469
vt 0.595948 0.525410
vt 0.535055 0.525572
vt 0.535055 0.531080
vt 0.596375 0.530978
vt 0.535055 0.525572
vt 0.596375 0.530978
vt 0.596375 0.525469
vt 0.333491 0.527953
vt 0.335598 0.521757
vt 0.364428 0.528017
vt 0.308713 0.528001
vt 0.339650 0.528066
vt 0.310821 0.521806
vt 0.333491 0.527953
vt 0.308713 0.528001
vt 0.335598 0.521757
vt 0.308713 0.528001
vt 0.310821 0.521806
vt 0.335598 0.521757
vt 0.335598 0.521757
vt 0.342046 0.515102
vt 0.364428 0.528017
vt 0.310821 0.521806
vt 0.339650 0.528066
vt 0.317269 0.515150
vt 0.335598 0.521757
vt 0.310821 0.521806
vt 0.317269 0.515150
vt 0.335598 0.521757
vt 0.317269 0.515150
vt 0.342046 0.515102
vt 0.342046 0.515102
vt 0.381343 0.515412
vt 0.364428 0.528017
vt 0.317269 0.515150
vt 0.339650 0.528066
vt 0.356565 0.515461
vt 0.342046 0.515102
vt 0.317269 0.515150
vt 0.381343 0.515412
vt 0.317269 0.515150
vt 0.356565 0.515461
vt 0.381343 0.515412
vt 0.381343 0.515412
vt 0.383300 0.524762
vt 0.364428 0.528017
vt 0.356565 0.515461
vt 0.339650 0.528066
vt 0.358522 0.524811
vt 0.381343 0.515412
vt 0.356565 0.515461
vt 0.358522 0.524811
vt 0.381343 0.515412
vt 0.358522 0.524811
vt 0.383300 0.524762
vt 0.383300 0.524762
vt 0.383300 0.531356
vt 0.364428 0.528017
vt 0.358522 0.524811
vt 0.339650 0.528066
vt 0.358522 0.531404
vt 0.383300 0.524762
vt 0.358522 0.524811
vt 0.383300 0.531356
vt 0.358522 0.524811
vt 0.358522 0.531404
vt 0.383300 0.531356
vt 0.383300 0.531356
vt 0.381343 0.540067
vt 0.364428 0.528017
vt 0.358522 0.531404
vt 0.339650 0.528066
vt 0.356565 0.540116
vt 0.383300 0.531356
vt 0.358522 0.531404
vt 0.356565 0.540116
vt 0.383300 0.531356
vt 0.356565 0.540116
vt 0.381343 0.540067
vt 0.381343 0.540067
vt 0.342039 0.540053
vt 0.364428 0.528017
vt 0.356565 0.540116
vt 0.339650 0.528066
vt 0.317261 0.540101
vt 0.381343 0.540067
vt 0.356565 0.540116
vt 0.342039 0.540053
vt 0.356565 0.540116
vt 0.317261 0.540101
vt 0.342039 0.540053
vt 0.342039 0.540053
vt 0.335598 0.534148
vt 0.364428 0.528017
vt 0.317261 0.540101
vt 0.339650 0.528066
vt 0.310821 0.534197
vt 0.342039 0.540053
vt 0.317261 0.540101
vt 0.310821 0.534197
vt 0.342039 0.540053
vt 0.310821 0.534197
vt 0.335598 0.534148
vt 0.335598 0.534148
vt 0.333491 0.527953
vt 0.364428 0.528017
vt 0.310821 0.534197
vt 0.339650 0.528066
vt 0.308713 0.528001
vt 0.335598 0.534148
vt 0.310821 0.534197
vt 0.333491 0.527953
vt 0.310821 0.534197
vt 0.308713 0.528001
vt 0.333491 0.527953

# polygons: 60
usemtl Material01_1
f 1/1/1 2/2/2 6/3/3
f 2/4/4 7/5/5 6/6/6
f 2/7/7 3/8/8 8/9/9
f 2/10/10 8/11/11 7/12/12
f 3/13/13 4/14/14 8/15/15
f 4/16/16 9/17/17 8/18/18
f 4/19/19 5/20/20 10/21/21
f 4/22/22 10/23/23 9/24/24
f 6/25/25 7/26/26 12/27/27
f 6/28/28 12/29/29 11/30/30
f 7/31/31 8/32/32 12/33/33
f 8/34/34 13/35/35 12/36/36
f 8/37/37 9/38/38 14/39/39
f 8/40/40 14/41/41 13/42/42
f 9/43/43 10/44/44 14/45/45
f 10/46/46 15/47/47 14/48/48
f 11/49/49 12/50/50 16/51/51
f 12/52/52 17/53/53 16/54/54
f 12/55/55 13/56/56 18/57/57
f 12/58/58 18/59/59 17/60/60
f 13/61/61 14/62/62 18/63/63
f 14/64/64 19/65/65 18/66/66
f 14/67/67 15/68/68 20/69/69
f 14/70/70 20/71/71 19/72/72
f 21/73/73 23/74/74 40/75/75
f 22/76/76 39/77/77 24/78/78
f 21/79/79 22/80/80 23/81/81
f 22/82/82 24/83/83 23/84/84
f 23/85/85 25/86/86 40/87/87
f 24/88/88 39/89/89 26/90/90
f 23/91/91 24/92/92 26/93/93
f 23/94/94 26/95/95 25/96/96
f 25/97/97 27/98/98 40/99/99
f 26/100/100 39/101/101 28/102/102
f 25/103/103 26/104/104 27/105/105
f 26/106/106 28/107/107 27/108/108
f 27/109/109 29/110/110 40/111/111
f 28/112/112 39/113/113 30/114/114
f 27/115/115 28/116/116 30/117/117
f 27/118/118 30/119/119 29/120/120
f 29/121/121 31/122/122 40/123/123
f 30/124/124 39/125/125 32/126/126
f 29/127/127 30/128/128 31/129/129
f 30/130/130 32/131/131 31/132/132
f 31/133/133 33/134/134 40/135/135
f 32/136/136 39/137/137 34/138/138
f 31/139/139 32/140/140 34/141/141
f 31/142/142 34/143/143 33/144/144
f 33/145/145 35/146/146 40/147/147
f 34/148/148 39/149/149 36/150/150
f 33/151/151 34/152/152 35/153/153
f 34/154/154 36/155/155 35/156/156
f 35/157/157 37/158/158 40/159/159
f 36/160/160 39/161/161 38/162/162
f 35/163/163 36/164/164 38/165/165
f 35/166/166 38/167/167 37/168/168
f 37/169/169 21/170/170 40/171/171
f 38/172/172 39/173/173 22/174/174
f 37/175/175 38/176/176 21/177/177
f 38/178/178 22/179/179 21/180/180

# object end 'Converted object 0(m1)'
