# created by: Biturn ver 0.88
# http://mirex.mypage.sk
# ------------------------------------
# 26 vertices, 48 polygons, 144 points, 2 materials


mtllib object_41.mtl

#-- object 'Converted object 0(m1)' --
# 26 vertices, 48 polygons, 144 points

g Converted object 0(m1)

# vertexs: 26
v -2.012299 -19.163921 -0.897058
v -1.880431 -19.263288 -0.897058
v -2.282231 -19.522133 -0.776875
v -2.150363 -19.621498 -0.776875
v -2.479834 -19.784359 -0.448529
v -2.347967 -19.883726 -0.448529
v -2.552160 -19.880339 0.000001
v -2.420292 -19.979706 0.000001
v -2.479834 -19.784359 0.448530
v -2.347967 -19.883726 0.448530
v -2.282231 -19.522133 0.776876
v -2.150363 -19.621498 0.776876
v -2.012299 -19.163921 0.897060
v -1.880431 -19.263288 0.897060
v -1.997605 -19.144421 0.776876
v -1.865740 -19.243792 0.776876
v -1.997605 -19.144421 0.448530
v -1.865740 -19.243792 0.448530
v -1.997605 -19.144421 0.000001
v -1.865740 -19.243792 0.000001
v -1.997605 -19.144421 -0.448529
v -1.865740 -19.243792 -0.448529
v -1.997605 -19.144421 -0.776875
v -1.865740 -19.243792 -0.776875
v -2.030885 -19.462944 0.000001
v -2.162750 -19.363575 0.000001

# normals: 144
vn -0.798638 0.601812 -0.000003
vn -0.798635 0.601816 -0.000002
vn -0.798635 0.601815 -0.000000
vn 0.798636 -0.601815 0.000002
vn 0.798635 -0.601816 0.000000
vn 0.798634 -0.601817 0.000001
vn 0.316749 0.420350 -0.850280
vn 0.316763 0.420350 -0.850275
vn -0.300903 -0.399323 -0.866025
vn 0.316763 0.420350 -0.850275
vn -0.300901 -0.399324 -0.866025
vn -0.300903 -0.399323 -0.866025
vn -0.798635 0.601816 -0.000002
vn -0.798634 0.601817 -0.000001
vn -0.798635 0.601815 -0.000000
vn 0.798634 -0.601817 0.000001
vn 0.798635 -0.601816 0.000000
vn 0.798635 -0.601815 -0.000000
vn -0.300903 -0.399323 -0.866025
vn -0.300901 -0.399324 -0.866025
vn -0.521180 -0.691647 -0.499996
vn -0.300903 -0.399323 -0.866025
vn -0.521180 -0.691647 -0.499996
vn -0.521182 -0.691646 -0.499995
vn -0.798634 0.601817 -0.000001
vn -0.798635 0.601816 -0.000000
vn -0.798635 0.601815 -0.000000
vn 0.798635 -0.601815 -0.000000
vn 0.798635 -0.601816 0.000000
vn 0.798636 -0.601815 0.000000
vn -0.521182 -0.691646 -0.499995
vn -0.521180 -0.691647 -0.499996
vn -0.601806 -0.798642 0.000000
vn -0.521180 -0.691647 -0.499996
vn -0.601806 -0.798643 0.000000
vn -0.601806 -0.798642 0.000000
vn -0.798635 0.601816 -0.000000
vn -0.798634 0.601816 0.000001
vn -0.798635 0.601815 -0.000000
vn 0.798636 -0.601815 0.000000
vn 0.798635 -0.601816 0.000000
vn 0.798635 -0.601815 0.000000
vn -0.601806 -0.798642 0.000000
vn -0.601806 -0.798643 0.000000
vn -0.521180 -0.691647 0.499996
vn -0.601806 -0.798642 0.000000
vn -0.521180 -0.691647 0.499996
vn -0.521182 -0.691646 0.499995
vn -0.798634 0.601816 0.000001
vn -0.798635 0.601816 0.000002
vn -0.798635 0.601815 -0.000000
vn 0.798635 -0.601815 0.000000
vn 0.798635 -0.601816 0.000000
vn 0.798634 -0.601817 -0.000001
vn -0.521182 -0.691646 0.499995
vn -0.521180 -0.691647 0.499996
vn -0.300903 -0.399323 0.866025
vn -0.521180 -0.691647 0.499996
vn -0.300901 -0.399324 0.866025
vn -0.300903 -0.399323 0.866025
vn -0.798635 0.601816 0.000002
vn -0.798638 0.601812 0.000003
vn -0.798635 0.601815 -0.000000
vn 0.798634 -0.601817 -0.000001
vn 0.798635 -0.601816 0.000000
vn 0.798636 -0.601815 -0.000002
vn -0.300903 -0.399323 0.866025
vn -0.300901 -0.399324 0.866025
vn 0.316763 0.420350 0.850275
vn -0.300903 -0.399323 0.866025
vn 0.316763 0.420350 0.850275
vn 0.316749 0.420350 0.850280
vn -0.798638 0.601812 0.000003
vn -0.798637 0.601813 0.000002
vn -0.798635 0.601815 -0.000000
vn 0.798636 -0.601815 -0.000002
vn 0.798635 -0.601816 0.000000
vn 0.798635 -0.601815 -0.000002
vn 0.316749 0.420350 0.850280
vn 0.316763 0.420350 0.850275
vn 0.598804 0.794623 0.100042
vn 0.316763 0.420350 0.850275
vn 0.598810 0.794619 0.100032
vn 0.598804 0.794623 0.100042
vn -0.798637 0.601813 0.000002
vn -0.798634 0.601817 0.000000
vn -0.798635 0.601815 -0.000000
vn 0.798635 -0.601815 -0.000002
vn 0.798635 -0.601816 0.000000
vn 0.798633 -0.601819 0.000000
vn 0.598804 0.794623 0.100042
vn 0.598810 0.794619 0.100032
vn 0.601829 0.798625 0.000000
vn 0.598804 0.794623 0.100042
vn 0.601829 0.798625 0.000000
vn 0.601829 0.798625 0.000000
vn -0.798634 0.601817 0.000000
vn -0.798634 0.601817 0.000000
vn -0.798635 0.601815 -0.000000
vn 0.798633 -0.601819 0.000000
vn 0.798635 -0.601816 0.000000
vn 0.798633 -0.601819 0.000000
vn 0.601829 0.798625 0.000000
vn 0.601829 0.798625 0.000000
vn 0.601829 0.798625 0.000000
vn 0.601829 0.798625 0.000000
vn 0.601829 0.798625 0.000000
vn 0.601829 0.798625 0.000000
vn -0.798634 0.601817 0.000000
vn -0.798634 0.601817 0.000000
vn -0.798635 0.601815 -0.000000
vn 0.798633 -0.601819 0.000000
vn 0.798635 -0.601816 0.000000
vn 0.798633 -0.601819 0.000000
vn 0.601829 0.798625 0.000000
vn 0.601829 0.798625 0.000000
vn 0.601829 0.798625 0.000000
vn 0.601829 0.798625 0.000000
vn 0.601829 0.798625 0.000000
vn 0.601829 0.798625 0.000000
vn -0.798634 0.601817 0.000000
vn -0.798637 0.601813 -0.000002
vn -0.798635 0.601815 -0.000000
vn 0.798633 -0.601819 0.000000
vn 0.798635 -0.601816 0.000000
vn 0.798635 -0.601815 0.000002
vn 0.601829 0.798625 0.000000
vn 0.601829 0.798625 0.000000
vn 0.598804 0.794623 -0.100042
vn 0.601829 0.798625 0.000000
vn 0.598810 0.794619 -0.100033
vn 0.598804 0.794623 -0.100042
vn -0.798637 0.601813 -0.000002
vn -0.798638 0.601812 -0.000003
vn -0.798635 0.601815 -0.000000
vn 0.798635 -0.601815 0.000002
vn 0.798635 -0.601816 0.000000
vn 0.798636 -0.601815 0.000002
vn 0.598804 0.794623 -0.100042
vn 0.598810 0.794619 -0.100033
vn 0.316763 0.420350 -0.850275
vn 0.598804 0.794623 -0.100042
vn 0.316763 0.420350 -0.850275
vn 0.316749 0.420350 -0.850280

# texture coords: 144
vt 0.046524 0.376682
vt 0.046014 0.366297
vt 0.042718 0.370409
vt 0.092020 0.376681
vt 0.088214 0.370407
vt 0.091510 0.366295
vt 0.046524 0.376682
vt 0.092020 0.376681
vt 0.046014 0.366297
vt 0.092020 0.376681
vt 0.091510 0.366295
vt 0.046014 0.366297
vt 0.046014 0.366297
vt 0.044621 0.358554
vt 0.042718 0.370409
vt 0.091510 0.366295
vt 0.088214 0.370407
vt 0.090117 0.358553
vt 0.046014 0.366297
vt 0.091510 0.366295
vt 0.090117 0.358553
vt 0.046014 0.366297
vt 0.090117 0.358553
vt 0.044621 0.358554
vt 0.044621 0.358554
vt 0.042718 0.355528
vt 0.042718 0.370409
vt 0.090117 0.358553
vt 0.088214 0.370407
vt 0.088214 0.355527
vt 0.044621 0.358554
vt 0.090117 0.358553
vt 0.042718 0.355528
vt 0.090117 0.358553
vt 0.088214 0.355527
vt 0.042718 0.355528
vt 0.042718 0.355528
vt 0.040815 0.358030
vt 0.042718 0.370409
vt 0.088214 0.355527
vt 0.088214 0.370407
vt 0.086310 0.358029
vt 0.042718 0.355528
vt 0.088214 0.355527
vt 0.086310 0.358029
vt 0.042718 0.355528
vt 0.086310 0.358029
vt 0.040815 0.358030
vt 0.040815 0.358030
vt 0.039421 0.365389
vt 0.042718 0.370409
vt 0.086310 0.358029
vt 0.088214 0.370407
vt 0.084917 0.365388
vt 0.040815 0.358030
vt 0.086310 0.358029
vt 0.039421 0.365389
vt 0.086310 0.358029
vt 0.084917 0.365388
vt 0.039421 0.365389
vt 0.039421 0.365389
vt 0.038911 0.375634
vt 0.042718 0.370409
vt 0.084917 0.365388
vt 0.088214 0.370407
vt 0.084407 0.375633
vt 0.039421 0.365389
vt 0.084917 0.365388
vt 0.084407 0.375633
vt 0.039421 0.365389
vt 0.084407 0.375633
vt 0.038911 0.375634
vt 0.038911 0.375634
vt 0.039421 0.376266
vt 0.042718 0.370409
vt 0.084407 0.375633
vt 0.088214 0.370407
vt 0.084917 0.376264
vt 0.038911 0.375634
vt 0.084407 0.375633
vt 0.039421 0.376266
vt 0.084407 0.375633
vt 0.084917 0.376264
vt 0.039421 0.376266
vt 0.039421 0.376266
vt 0.040815 0.376458
vt 0.042718 0.370409
vt 0.084917 0.376264
vt 0.088214 0.370407
vt 0.086310 0.376456
vt 0.039421 0.376266
vt 0.084917 0.376264
vt 0.086310 0.376456
vt 0.039421 0.376266
vt 0.086310 0.376456
vt 0.040815 0.376458
vt 0.040815 0.376458
vt 0.042718 0.376720
vt 0.042718 0.370409
vt 0.086310 0.376456
vt 0.088214 0.370407
vt 0.088214 0.376718
vt 0.040815 0.376458
vt 0.086310 0.376456
vt 0.042718 0.376720
vt 0.086310 0.376456
vt 0.088214 0.376718
vt 0.042718 0.376720
vt 0.042718 0.376720
vt 0.044621 0.376982
vt 0.042718 0.370409
vt 0.088214 0.376718
vt 0.088214 0.370407
vt 0.090117 0.376980
vt 0.042718 0.376720
vt 0.088214 0.376718
vt 0.090117 0.376980
vt 0.042718 0.376720
vt 0.090117 0.376980
vt 0.044621 0.376982
vt 0.044621 0.376982
vt 0.046014 0.377173
vt 0.042718 0.370409
vt 0.090117 0.376980
vt 0.088214 0.370407
vt 0.091510 0.377172
vt 0.044621 0.376982
vt 0.090117 0.376980
vt 0.046014 0.377173
vt 0.090117 0.376980
vt 0.091510 0.377172
vt 0.046014 0.377173
vt 0.046014 0.377173
vt 0.046524 0.376682
vt 0.042718 0.370409
vt 0.091510 0.377172
vt 0.088214 0.370407
vt 0.092020 0.376681
vt 0.046014 0.377173
vt 0.091510 0.377172
vt 0.092020 0.376681
vt 0.046014 0.377173
vt 0.092020 0.376681
vt 0.046524 0.376682

# polygons: 48
usemtl Material01_1
f 1/1/1 3/2/2 26/3/3
f 2/4/4 25/5/5 4/6/6
f 1/7/7 2/8/8 3/9/9
f 2/10/10 4/11/11 3/12/12
f 3/13/13 5/14/14 26/15/15
f 4/16/16 25/17/17 6/18/18
f 3/19/19 4/20/20 6/21/21
f 3/22/22 6/23/23 5/24/24
f 5/25/25 7/26/26 26/27/27
f 6/28/28 25/29/29 8/30/30
f 5/31/31 6/32/32 7/33/33
f 6/34/34 8/35/35 7/36/36
f 7/37/37 9/38/38 26/39/39
f 8/40/40 25/41/41 10/42/42
f 7/43/43 8/44/44 10/45/45
f 7/46/46 10/47/47 9/48/48
f 9/49/49 11/50/50 26/51/51
f 10/52/52 25/53/53 12/54/54
f 9/55/55 10/56/56 11/57/57
f 10/58/58 12/59/59 11/60/60
f 11/61/61 13/62/62 26/63/63
f 12/64/64 25/65/65 14/66/66
f 11/67/67 12/68/68 14/69/69
f 11/70/70 14/71/71 13/72/72
f 13/73/73 15/74/74 26/75/75
f 14/76/76 25/77/77 16/78/78
f 13/79/79 14/80/80 15/81/81
f 14/82/82 16/83/83 15/84/84
f 15/85/85 17/86/86 26/87/87
f 16/88/88 25/89/89 18/90/90
f 15/91/91 16/92/92 18/93/93
f 15/94/94 18/95/95 17/96/96
f 17/97/97 19/98/98 26/99/99
f 18/100/100 25/101/101 20/102/102
f 17/103/103 18/104/104 19/105/105
f 18/106/106 20/107/107 19/108/108
f 19/109/109 21/110/110 26/111/111
f 20/112/112 25/113/113 22/114/114
f 19/115/115 20/116/116 22/117/117
f 19/118/118 22/119/119 21/120/120
f 21/121/121 23/122/122 26/123/123
f 22/124/124 25/125/125 24/126/126
f 21/127/127 22/128/128 23/129/129
f 22/130/130 24/131/131 23/132/132
f 23/133/133 1/134/134 26/135/135
f 24/136/136 25/137/137 2/138/138
f 23/139/139 24/140/140 2/141/141
f 23/142/142 2/143/143 1/144/144

# object end 'Converted object 0(m1)'
