# Blender 4.1.1
# www.blender.org
o hand_right
v -9.799313 -20.865717 -4.625692
v -9.855285 -20.565626 -3.398583
v -9.965631 -21.636356 -4.723123
v -10.568161 -22.019855 -4.145979
v -11.149247 -21.807556 -5.256068
v -10.502973 -22.223585 -4.960487
v -10.984843 -22.699038 -4.400244
v -11.636765 -22.443933 -4.593196
v -11.081087 -20.815918 -5.226675
v -10.496215 -20.661585 -4.953497
v -10.618766 -20.172052 -4.005889
v -10.170133 -20.396912 -3.685204
v -13.159353 -23.659992 -0.106167
v -13.627886 -23.235434 -0.299634
v -13.143468 -22.680191 0.825032
v -13.130494 -22.172176 0.842186
v -11.375877 -21.290461 1.179289
v -11.985760 -20.060555 1.004098
v -11.915598 -19.581436 0.848996
v -11.903212 -23.173185 -2.900065
v -12.052909 -22.826929 -2.413935
v -12.431108 -23.019384 -1.816939
v -12.463091 -23.409050 -1.816827
v -12.887557 -23.354429 -2.114751
v -12.557597 -22.810318 -2.560172
v -12.409688 -23.145145 -3.055823
v -12.897137 -22.977495 -2.041304
v -12.948531 -22.103432 -1.331304
v -12.961578 -22.611450 -1.348286
v -12.844015 -21.920309 -2.204050
v -13.431443 -22.581886 -1.584654
v -13.417192 -22.042107 -1.567528
v -12.380054 -21.968721 -1.951416
v -12.379318 -21.644003 -0.795724
v -12.888835 -21.705410 -0.665783
v -12.849939 -20.953951 -1.929644
v -12.980936 -21.138639 -0.722301
v -12.400098 -21.045191 -1.985410
v -12.466685 -21.104038 -0.848123
v -12.540044 -20.656511 -1.087554
v -13.063255 -20.572044 -1.094730
v -12.737659 -20.591459 -2.532260
v -12.993134 -20.093195 -1.250705
v -12.225070 -20.627607 -2.452326
v -12.469877 -20.177429 -1.242767
v -12.912761 -23.525280 -1.168936
v -13.338584 -23.469814 -1.473620
v -13.345138 -23.091568 -1.407593
v -12.910072 -23.145121 -1.115905
v -13.083494 -22.638823 -0.445453
v -13.594856 -22.611494 -0.584252
v -13.581071 -22.071739 -0.566026
v -13.070520 -22.130808 -0.428298
v -11.995232 -21.496424 0.086862
v -12.497886 -21.553679 0.248146
v -12.589607 -20.986689 0.193254
v -12.083744 -20.956564 0.035313
v -12.355268 -20.386295 -0.169266
v -12.877743 -20.295052 -0.155178
v -12.807579 -19.815926 -0.310285
v -12.285928 -19.906969 -0.324101
v -13.157579 -23.279125 -0.057350
v -13.654829 -22.652859 0.686232
v -11.878528 -21.347723 1.340573
v -11.970251 -20.780733 1.285682
v -11.463226 -20.750486 1.127012
v -12.508232 -19.969311 1.018186
v -12.438069 -19.490185 0.863081
v -11.377265 -20.664177 -0.513084
v -10.983822 -20.531981 -2.521394
v -11.110083 -20.541800 -1.564674
v -10.399945 -19.858912 -2.958050
v -11.318428 -20.113974 -1.706179
v -10.678329 -19.891237 -1.679970
v -10.469982 -20.319069 -1.538468
v -9.988750 -20.078434 -2.704113
v -10.927094 -20.455084 -0.269766
v -10.565805 -20.709164 -2.420485
v -12.289682 -21.615654 -3.100797
v -12.038501 -21.781582 -2.616954
v -11.140282 -20.131985 -3.942724
v -11.700876 -20.256754 -3.620207
v -11.057948 -20.576817 -4.374271
v -10.824310 -21.519175 -3.262619
v -13.629543 -23.616274 -0.348067
v -13.641044 -22.113106 0.704458
v -11.139024 -20.027510 -0.407174
v -11.589193 -20.236599 -0.650491
v -10.508819 -21.476486 -4.963161
vn 0.9479 0.1438 -0.2844
vn 0.9234 -0.2106 0.3210
vn 0.8875 -0.4309 -0.1631
vn 0.6954 -0.5918 0.4076
vn -0.4412 -0.2256 -0.8686
vn 0.3538 -0.6780 -0.6443
vn 0.2106 -0.8945 -0.3943
vn -0.6163 -0.4114 -0.6715
vn -0.5990 0.5339 -0.5968
vn 0.2750 0.6955 -0.6638
vn 0.2446 0.8760 -0.4158
vn 0.5927 0.7505 -0.2923
vn 0.3386 -0.6633 0.6673
vn -0.7278 0.5541 0.4042
vn 0.7755 -0.4284 0.4637
vn 0.7534 0.3748 0.5403
vn 0.8428 -0.4113 0.3472
vn 0.7877 -0.5067 0.3502
vn 0.9475 0.3042 0.0988
vn 0.7060 -0.6330 0.3177
vn 0.8816 -0.0910 0.4632
vn 0.7382 0.4152 0.5317
vn 0.6112 -0.7638 0.2074
vn -0.4948 -0.7345 -0.4644
vn -0.9203 0.0392 -0.3893
vn -0.7533 -0.4607 -0.4693
vn -0.6531 0.7066 -0.2722
vn 0.6704 0.5989 0.4381
vn 0.6383 -0.6374 0.4316
vn -0.8588 0.2659 -0.4378
vn -0.8556 -0.3355 -0.3942
vn -0.8073 0.4798 -0.3436
vn 0.7910 0.0628 0.6086
vn 0.6719 -0.7393 -0.0450
vn -0.5260 -0.8281 0.1937
vn -0.9814 0.1629 -0.1016
vn -0.6379 0.7663 0.0767
vn 0.8940 0.2443 0.3755
vn 0.3491 0.9306 -0.1102
vn 0.4445 -0.8517 0.2774
vn -0.7153 -0.6601 0.2294
vn -0.7201 0.4857 -0.4955
vn -0.3491 0.8887 -0.2972
vn 0.3385 0.9175 0.2089
vn 0.5606 0.7835 -0.2679
vn 0.5380 -0.8355 0.1118
vn -0.7377 -0.4910 -0.4634
vn -0.7596 0.5666 -0.3194
vn 0.6175 0.6904 0.3770
vn 0.7107 -0.7024 0.0390
vn -0.9079 -0.4049 -0.1080
vn -0.8639 0.4974 -0.0791
vn 0.7400 0.6669 0.0880
vn 0.7965 -0.5317 -0.2879
vn -0.7086 -0.5420 0.4518
vn -0.8432 0.4122 0.3451
vn 0.6213 0.6634 -0.4170
vn 0.5615 -0.8225 0.0906
vn -0.5947 -0.7199 0.3579
vn -0.5699 0.8174 -0.0838
vn 0.9057 0.2805 -0.3178
vn 0.3513 0.4578 0.8167
vn -0.7391 -0.5319 0.4133
vn -0.4675 -0.4307 0.7719
vn -0.6009 0.4157 0.6827
vn 0.6838 0.6901 0.2371
vn -0.7043 -0.1556 0.6926
vn -0.6180 0.6760 0.4013
vn -0.4336 -0.7973 0.4199
vn -0.7196 0.5403 0.4362
vn -0.3774 -0.9248 -0.0488
vn 0.0807 0.9826 -0.1674
vn -0.8296 0.5269 -0.1848
vn 0.1202 0.9815 0.1493
vn 0.8659 -0.2883 0.4088
vn 0.9567 0.1666 0.2386
vn 0.4662 -0.2974 0.8332
vn 0.4181 -0.8034 0.4240
vn -0.8649 0.0623 -0.4980
vn 0.7018 -0.0343 0.7116
vn -0.3353 0.7738 -0.5374
vn -0.6271 0.5925 -0.5056
vn -0.7258 0.5778 -0.3733
vn 0.5899 -0.4996 0.6344
vn -0.7446 -0.6184 0.2512
vn -0.6128 0.6157 0.4954
vn -0.0059 0.7503 0.6610
vn -0.9404 0.2505 0.2299
vn 0.4232 0.0015 -0.9060
vt 0.610958 0.962396
vt 0.634152 0.962396
vt 0.719534 0.905769
vt 0.716403 0.900095
vt 0.481281 0.962396
vt 0.440041 0.916248
vt 0.426832 0.962396
vt 0.335413 0.920643
vt 0.481412 0.063687
vt 0.426832 0.063687
vt 0.335413 0.105289
vt 0.396264 0.111087
vt 0.610632 0.063687
vt 0.634152 0.063687
vt 0.717475 0.117075
vt 0.719534 0.120163
vt 0.309175 0.636344
vt 0.359565 0.636344
vt 0.379009 0.570769
vt 0.446758 0.570769
vt 0.556803 0.539572
vt 0.484071 0.539572
vt 0.652885 0.559420
vt 0.586177 0.559420
vt 0.311916 0.818332
vt 0.367596 0.791519
vt 0.359617 0.750576
vt 0.309471 0.750576
vt 0.367597 0.234518
vt 0.311917 0.207757
vt 0.309472 0.275355
vt 0.360100 0.275355
vt 0.463933 0.752948
vt 0.447850 0.703741
vt 0.379300 0.703741
vt 0.463935 0.273089
vt 0.379301 0.322191
vt 0.448333 0.322191
vt 0.482910 0.672544
vt 0.576616 0.279879
vt 0.482912 0.353387
vt 0.557044 0.353387
vt 0.576615 0.746157
vt 0.556562 0.672544
vt 0.586468 0.692392
vt 0.647841 0.251664
vt 0.586470 0.333539
vt 0.653418 0.333539
vt 0.647357 0.774321
vt 0.652934 0.692392
vt 0.359617 0.700425
vt 0.309471 0.700425
vt 0.309472 0.325506
vt 0.360100 0.325506
vt 0.447850 0.645362
vt 0.379300 0.645362
vt 0.379301 0.380569
vt 0.448333 0.380569
vt 0.482910 0.614166
vt 0.482912 0.411765
vt 0.557044 0.411765
vt 0.556562 0.614166
vt 0.586468 0.634014
vt 0.586470 0.391917
vt 0.653418 0.391917
vt 0.652934 0.634014
vt 0.309472 0.389587
vt 0.360100 0.389587
vt 0.379301 0.455162
vt 0.448333 0.455162
vt 0.482912 0.486359
vt 0.557044 0.486359
vt 0.586470 0.466511
vt 0.653418 0.466511
vt 0.759890 0.706180
vt 0.827077 0.706180
vt 0.688390 0.820966
vt 0.741300 0.787873
vt 0.788065 0.166556
vt 0.688390 0.205070
vt 0.741301 0.238111
vt 0.816540 0.221151
vt 0.787581 0.859428
vt 0.816056 0.804833
vt 0.760230 0.319935
vt 0.827658 0.319935
vt 0.716403 0.125837
vt 0.506590 0.209765
vt 0.485743 0.796801
vt 0.703040 0.135330
vt 0.686607 0.167336
vt 0.643141 0.109475
vt 0.519247 0.861607
vt 0.827128 0.676578
vt 0.759942 0.676578
vt 0.464738 0.937612
vt 0.497003 0.918722
vt 0.487677 0.944163
vt 0.476028 0.960911
vt 0.497617 0.961041
vt 0.512261 0.940008
vt 0.476902 0.925162
s 1
f 1/1/1 10/2/10 12/3/12
f 2/4/2 1/1/1 12/3/12
f 3/5/3 1/1/1 2/4/2
f 4/6/4 3/5/3 2/4/2
f 6/7/6 3/5/3 4/6/4
f 7/8/7 6/7/6 4/6/4
f 5/9/5 6/10/6 7/11/7
f 8/12/8 5/9/5 7/11/7
f 9/13/9 5/9/5 8/12/8
f 10/14/10 9/13/9 11/15/11
f 12/16/12 10/14/10 11/15/11
f 85/17/85 13/17/13 62/18/62
f 62/18/62 14/18/14 85/17/85
f 63/19/63 15/19/15 16/20/16
f 16/20/16 86/20/86 63/19/63
f 65/21/65 64/22/64 17/22/17
f 17/22/17 66/21/66 65/21/65
f 68/23/68 67/24/67 18/24/18
f 18/24/18 19/23/19 68/23/68
f 20/25/20 21/26/21 22/27/22
f 23/28/23 20/25/20 22/27/22
f 26/25/26 20/25/20 23/28/23
f 24/28/24 26/25/26 23/28/23
f 25/29/25 26/30/26 24/31/24
f 27/32/27 25/29/25 24/31/24
f 21/29/21 25/29/25 27/32/27
f 22/32/22 21/29/21 27/32/27
f 21/26/21 33/33/33 28/34/28
f 29/35/29 21/26/21 28/34/28
f 25/26/25 21/26/21 29/35/29
f 31/35/31 25/26/25 29/35/29
f 30/36/30 25/29/25 31/37/31
f 32/38/32 30/36/30 31/37/31
f 33/36/33 30/36/30 32/38/32
f 28/38/28 33/36/33 32/38/32
f 30/33/30 33/33/33 34/39/34
f 35/39/35 30/33/30 34/39/34
f 36/40/36 30/36/30 35/41/35
f 37/42/37 36/40/36 35/41/35
f 38/40/38 36/40/36 37/42/37
f 39/42/39 38/40/38 37/42/37
f 33/33/33 38/43/38 39/44/39
f 34/39/34 33/33/33 39/44/39
f 36/43/36 38/43/38 40/45/40
f 41/45/41 36/43/36 40/45/40
f 42/46/42 36/40/36 41/47/41
f 43/48/43 42/46/42 41/47/41
f 44/46/44 42/46/42 43/48/43
f 45/48/45 44/46/44 43/48/43
f 38/43/38 44/49/44 45/50/45
f 40/45/40 38/43/38 45/50/45
f 23/28/23 22/27/22 49/51/49
f 46/52/46 23/28/23 49/51/49
f 24/28/24 23/28/23 46/52/46
f 47/52/47 24/28/24 46/52/46
f 27/32/27 24/31/24 47/53/47
f 48/54/48 27/32/27 47/53/47
f 22/32/22 27/32/27 48/54/48
f 49/54/49 22/32/22 48/54/48
f 29/35/29 28/34/28 53/55/53
f 50/56/50 29/35/29 53/55/53
f 31/35/31 29/35/29 50/56/50
f 51/56/51 31/35/31 50/56/50
f 32/38/32 31/37/31 51/57/51
f 52/58/52 32/38/32 51/57/51
f 28/38/28 32/38/32 52/58/52
f 53/58/53 28/38/28 52/58/52
f 35/39/35 34/39/34 54/59/54
f 55/59/55 35/39/35 54/59/54
f 37/42/37 35/41/35 55/60/55
f 56/61/56 37/42/37 55/60/55
f 39/42/39 37/42/37 56/61/56
f 57/61/57 39/42/39 56/61/56
f 34/39/34 39/44/39 57/62/57
f 54/59/54 34/39/34 57/62/57
f 41/45/41 40/45/40 58/63/58
f 59/63/59 41/45/41 58/63/58
f 43/48/43 41/47/41 59/64/59
f 60/65/60 43/48/43 59/64/59
f 45/48/45 43/48/43 60/65/60
f 61/65/61 45/48/45 60/65/60
f 40/45/40 45/50/45 61/66/61
f 58/63/58 40/45/40 61/66/61
f 46/52/46 49/51/49 62/18/62
f 13/17/13 46/52/46 62/18/62
f 47/52/47 46/52/46 13/17/13
f 85/17/85 47/52/47 13/17/13
f 48/54/48 47/53/47 85/67/85
f 14/68/14 48/54/48 85/67/85
f 49/54/49 48/54/48 14/68/14
f 62/68/62 49/54/49 14/68/14
f 50/56/50 53/55/53 16/20/16
f 15/19/15 50/56/50 16/20/16
f 51/56/51 50/56/50 15/19/15
f 63/19/63 51/56/51 15/19/15
f 52/58/52 51/57/51 63/69/63
f 86/70/86 52/58/52 63/69/63
f 53/58/53 52/58/52 86/70/86
f 16/70/16 53/58/53 86/70/86
f 55/59/55 54/59/54 17/22/17
f 64/22/64 55/59/55 17/22/17
f 56/61/56 55/60/55 64/71/64
f 65/72/65 56/61/56 64/71/64
f 57/61/57 56/61/56 65/72/65
f 66/72/66 57/61/57 65/72/65
f 54/59/54 57/62/57 66/21/66
f 17/22/17 54/59/54 66/21/66
f 59/63/59 58/63/58 18/24/18
f 67/24/67 59/63/59 18/24/18
f 60/65/60 59/64/59 67/73/67
f 68/74/68 60/65/60 67/73/67
f 61/65/61 60/65/60 68/74/68
f 19/74/19 61/65/61 68/74/68
f 58/63/58 61/66/61 19/23/19
f 18/24/18 58/63/58 19/23/19
f 69/75/69 77/76/77 87/76/87
f 70/77/70 78/77/78 71/78/71
f 73/78/73 70/77/70 71/78/71
f 72/79/72 70/80/70 73/81/73
f 74/82/74 72/79/72 73/81/73
f 76/79/76 72/79/72 74/82/74
f 75/82/75 76/79/76 74/82/74
f 78/77/78 76/83/76 75/84/75
f 71/78/71 78/77/78 75/84/75
f 73/78/73 71/78/71 69/75/69
f 88/75/88 73/78/73 69/75/69
f 74/82/74 73/81/73 88/85/88
f 87/86/87 74/82/74 88/85/88
f 75/82/75 74/82/74 87/86/87
f 77/86/77 75/82/75 87/86/87
f 71/78/71 75/84/75 77/76/77
f 69/75/69 71/78/71 77/76/77
f 42/46/42 44/46/44 78/80/78
f 70/80/70 42/46/42 78/80/78
f 72/79/72 76/79/76 2/87/2
f 11/15/11 72/79/72 12/16/12
f 26/30/26 25/29/25 79/88/79
f 25/29/25 30/36/30 79/88/79
f 30/36/30 36/40/36 79/88/79
f 36/40/36 42/46/42 79/88/79
f 20/25/20 80/89/80 21/26/21
f 21/26/21 80/89/80 33/33/33
f 80/89/80 38/43/38 33/33/33
f 80/89/80 44/49/44 38/43/38
f 2/87/2 12/16/12 72/79/72
f 81/90/81 72/79/72 11/15/11
f 72/79/72 81/90/81 70/80/70
f 70/80/70 82/91/82 42/46/42
f 82/91/82 79/88/79 42/46/42
f 81/90/81 82/91/82 70/80/70
f 81/90/81 8/12/8 82/91/82
f 82/91/82 8/12/8 79/88/79
f 8/12/8 26/30/26 79/88/79
f 81/90/81 83/92/83 8/12/8
f 81/90/81 11/15/11 83/92/83
f 9/13/9 83/92/83 11/15/11
f 9/13/9 8/12/8 83/92/83
f 26/30/26 8/12/8 7/11/7
f 7/8/7 20/25/20 26/25/26
f 80/89/80 84/93/84 44/49/44
f 80/89/80 20/25/20 84/93/84
f 20/25/20 7/8/7 84/93/84
f 7/8/7 4/6/4 84/93/84
f 4/6/4 2/4/2 84/93/84
f 78/77/78 84/93/84 76/83/76
f 84/93/84 78/77/78 44/49/44
f 84/93/84 2/4/2 76/83/76
f 3/5/3 1/1/1 2/4/2
f 4/6/4 3/5/3 2/4/2
f 5/9/5 6/10/6 7/11/7
f 8/12/8 5/9/5 7/11/7
f 9/13/9 5/9/5 8/12/8
f 10/14/10 9/13/9 11/15/11
f 12/16/12 10/14/10 11/15/11
f 20/25/20 21/26/21 22/27/22
f 23/28/23 20/25/20 22/27/22
f 29/35/29 21/26/21 28/34/28
f 30/36/30 25/29/25 31/37/31
f 32/38/32 30/36/30 31/37/31
f 33/36/33 30/36/30 32/38/32
f 38/40/38 36/40/36 37/42/37
f 39/42/39 38/40/38 37/42/37
f 44/46/44 42/46/42 43/48/43
f 45/48/45 44/46/44 43/48/43
f 24/28/24 23/28/23 46/52/46
f 48/54/48 27/32/27 47/53/47
f 32/38/32 31/37/31 51/57/51
f 52/58/52 32/38/32 51/57/51
f 35/39/35 34/39/34 54/59/54
f 56/61/56 37/42/37 55/60/55
f 39/42/39 37/42/37 56/61/56
f 54/59/54 34/39/34 57/62/57
f 41/45/41 40/45/40 58/63/58
f 59/63/59 41/45/41 58/63/58
f 45/48/45 43/48/43 60/65/60
f 58/63/58 40/45/40 61/66/61
f 15/19/15 50/56/50 16/20/16
f 52/58/52 51/57/51 63/69/63
f 56/61/56 55/60/55 64/71/64
f 65/72/65 56/61/56 64/71/64
f 59/63/59 58/63/58 18/24/18
f 68/74/68 60/65/60 67/73/67
f 58/63/58 61/66/61 19/23/19
f 18/24/18 58/63/58 19/23/19
f 87/94/87 88/95/88 69/75/69
f 74/82/74 72/79/72 73/81/73
f 42/46/42 44/46/44 78/80/78
f 11/15/11 72/79/72 12/16/12
f 26/30/26 25/29/25 79/88/79
f 25/29/25 30/36/30 79/88/79
f 30/36/30 36/40/36 79/88/79
f 36/40/36 42/46/42 79/88/79
f 20/25/20 80/89/80 21/26/21
f 81/90/81 72/79/72 11/15/11
f 82/91/82 79/88/79 42/46/42
f 81/90/81 8/12/8 82/91/82
f 82/91/82 8/12/8 79/88/79
f 8/12/8 26/30/26 79/88/79
f 81/90/81 83/92/83 8/12/8
f 81/90/81 11/15/11 83/92/83
f 9/13/9 83/92/83 11/15/11
f 9/13/9 8/12/8 83/92/83
f 26/30/26 8/12/8 7/11/7
f 80/89/80 20/25/20 84/93/84
f 4/6/4 2/4/2 84/93/84
f 84/93/84 2/4/2 76/83/76
f 9/96/9 1/97/1 89/98/89
f 5/99/5 89/98/89 6/100/6
f 1/97/1 3/101/3 6/100/6
f 89/98/89 1/97/1 6/100/6
f 9/96/9 10/102/10 1/97/1
f 9/96/9 89/98/89 5/99/5
