# Blender v3.1.2 OBJ File: ''
# www.blender.org
mtllib BirdBeak_Closed.mtl
o beak_closed_Circle.020
v 0.379665 1.981498 3.226809
v 0.379665 2.705718 3.951029
v 0.379665 3.695021 4.216112
v -0.729907 1.981498 3.226809
v -0.729907 2.705718 3.951029
v -0.729906 3.695021 4.216112
v 0.379665 1.869289 5.399767
v -0.729907 1.869289 5.399767
v 0.379665 1.869289 5.399767
v -0.729907 1.869289 5.399767
vt 0.848536 0.667705
vt 0.879188 0.701858
vt 0.853171 0.715485
vt 0.899810 0.678738
vt 0.871011 0.706359
vt 0.895175 0.722015
vt 0.877335 0.731141
vt 0.848536 0.758762
vt 0.869158 0.735642
vt 0.899810 0.769795
vn 1.0000 -0.0000 0.0000
vn 0.0000 0.5440 0.8391
vn -1.0000 0.0000 -0.0000
vn -0.0000 -0.8660 -0.5000
vn 0.0000 0.8660 0.5000
vn 0.0000 -0.9987 -0.0516

s 1
f 3/1/1 7/2/1 2/3/1
f 6/4/2 8/5/2 7/2/2 3/1/2
f 5/6/3 8/5/3 6/4/3
f 2/3/4 7/2/4 8/5/4 5/6/4
f 2/3/1 9/7/1 1/8/1
f 5/6/5 10/9/5 9/7/5 2/3/5
f 4/10/3 10/9/3 5/6/3
f 1/8/6 9/7/6 10/9/6 4/10/6
