# created by: Biturn ver 0.88
# http://mirex.mypage.sk
# ------------------------------------
# 26 vertices, 48 polygons, 144 points, 1 materials


mtllib object_62.mtl

#-- object 'Converted object 0' --
# 26 vertices, 48 polygons, 144 points

g Converted object 0

# vertexs: 26
v 1.202703 -0.219497 -1.288038
v 1.202703 0.239963 -1.288038
v 1.041571 -0.219497 0.343615
v 1.041571 0.239963 0.343615
v 0.601351 0.113837 0.011105
v 0.601351 0.573296 0.011105
v 0.000000 0.235049 -0.085338
v 0.000000 0.694508 -0.085338
v -0.601351 0.113837 0.011105
v -0.601351 0.573296 0.011105
v -1.041571 -0.219497 0.343615
v -1.041571 0.239963 0.343615
v -1.202703 -0.219497 -1.288038
v -1.202703 0.239963 -1.288038
v -1.041571 -0.219497 -1.889392
v -1.041571 0.239963 -1.889392
v -0.601351 -0.219497 -2.329609
v -0.601351 0.239963 -2.329609
v -0.000000 -0.219497 -2.490741
v -0.000000 0.239963 -2.490741
v 0.601351 -0.219497 -2.329609
v 0.601351 0.239963 -2.329609
v 1.041571 -0.219497 -1.889392
v 1.041571 0.239963 -1.889392
v 0.000000 0.542993 -1.288038
v 0.000000 0.235049 -1.288038

# normals: 144
vn -0.353374 -0.935008 0.029770
vn -0.546633 -0.829017 0.117998
vn 0.000000 -0.985302 0.170821
vn 0.244270 0.969488 -0.020623
vn -0.000000 0.985656 -0.168764
vn 0.514331 0.840105 -0.172301
vn 0.996666 0.000000 -0.081591
vn 0.996666 0.000000 -0.081591
vn 0.401112 0.000000 0.916029
vn 0.996666 0.000000 -0.081591
vn 0.401112 0.000000 0.916029
vn 0.401112 0.000000 0.916029
vn -0.546633 -0.829017 0.117998
vn -0.474868 -0.869054 0.138724
vn 0.000000 -0.985302 0.170821
vn 0.514331 0.840105 -0.172301
vn -0.000000 0.985656 -0.168764
vn 0.494524 0.832932 -0.248335
vn 0.401112 0.000000 0.916029
vn 0.401112 0.000000 0.916029
vn -0.392145 0.000000 0.919903
vn 0.401112 0.000000 0.916029
vn -0.392145 0.000000 0.919903
vn -0.392145 0.000000 0.919903
vn -0.474868 -0.869054 0.138724
vn 0.000000 -1.000000 0.000000
vn 0.000000 -0.985302 0.170821
vn 0.494524 0.832932 -0.248335
vn -0.000000 0.985656 -0.168764
vn 0.000000 0.992158 -0.124991
vn -0.392145 0.000000 0.919903
vn -0.392145 0.000000 0.919903
vn 0.000000 0.000000 1.000000
vn -0.392145 0.000000 0.919903
vn 0.000000 0.000000 1.000000
vn 0.000000 0.000000 1.000000
vn 0.000000 -1.000000 0.000000
vn 0.474868 -0.869054 0.138724
vn 0.000000 -0.985302 0.170821
vn 0.000000 0.992158 -0.124991
vn -0.000000 0.985656 -0.168764
vn -0.494524 0.832932 -0.248335
vn 0.000000 0.000000 1.000000
vn 0.000000 0.000000 1.000000
vn 0.392145 0.000000 0.919903
vn 0.000000 0.000000 1.000000
vn 0.392145 0.000000 0.919903
vn 0.392145 0.000000 0.919903
vn 0.474868 -0.869054 0.138724
vn 0.546633 -0.829017 0.117998
vn 0.000000 -0.985302 0.170821
vn -0.494524 0.832932 -0.248335
vn -0.000000 0.985656 -0.168764
vn -0.514331 0.840105 -0.172301
vn 0.392145 0.000000 0.919903
vn 0.392145 0.000000 0.919903
vn -0.401112 0.000000 0.916029
vn 0.392145 0.000000 0.919903
vn -0.401112 0.000000 0.916029
vn -0.401112 0.000000 0.916029
vn 0.546633 -0.829017 0.117998
vn 0.353374 -0.935008 0.029770
vn 0.000000 -0.985302 0.170821
vn -0.514331 0.840105 -0.172301
vn -0.000000 0.985656 -0.168764
vn -0.244270 0.969488 -0.020623
vn -0.401112 0.000000 0.916029
vn -0.401112 0.000000 0.916029
vn -0.996666 0.000000 -0.081591
vn -0.401112 0.000000 0.916029
vn -0.996666 0.000000 -0.081591
vn -0.996666 0.000000 -0.081591
vn 0.353374 -0.935008 0.029770
vn 0.306166 -0.935423 0.176766
vn 0.000000 -0.985302 0.170821
vn -0.244270 0.969488 -0.020623
vn -0.000000 0.985656 -0.168764
vn -0.211589 0.969694 -0.122161
vn -0.996666 0.000000 -0.081591
vn -0.996666 0.000000 -0.081591
vn -0.866025 0.000000 -0.500001
vn -0.996666 0.000000 -0.081591
vn -0.866025 0.000000 -0.500001
vn -0.866025 0.000000 -0.500001
vn 0.306166 -0.935423 0.176766
vn 0.176765 -0.935423 0.306167
vn 0.000000 -0.985302 0.170821
vn -0.211589 0.969694 -0.122161
vn -0.000000 0.985656 -0.168764
vn -0.122161 0.969694 -0.211589
vn -0.866025 0.000000 -0.500001
vn -0.866025 0.000000 -0.500001
vn -0.499999 0.000000 -0.866026
vn -0.866025 0.000000 -0.500001
vn -0.499999 0.000000 -0.866026
vn -0.499999 0.000000 -0.866026
vn 0.176765 -0.935423 0.306167
vn 0.000000 -0.935423 0.353530
vn 0.000000 -0.985302 0.170821
vn -0.122161 0.969694 -0.211589
vn -0.000000 0.985656 -0.168764
vn 0.000000 0.969694 -0.244322
vn -0.499999 0.000000 -0.866026
vn -0.499999 0.000000 -0.866026
vn 0.000000 0.000000 -1.000000
vn -0.499999 0.000000 -0.866026
vn 0.000000 0.000000 -1.000000
vn 0.000000 0.000000 -1.000000
vn 0.000000 -0.935423 0.353530
vn -0.176765 -0.935423 0.306167
vn 0.000000 -0.985302 0.170821
vn 0.000000 0.969694 -0.244322
vn -0.000000 0.985656 -0.168764
vn 0.122161 0.969694 -0.211589
vn 0.000000 0.000000 -1.000000
vn 0.000000 0.000000 -1.000000
vn 0.499999 0.000000 -0.866026
vn 0.000000 0.000000 -1.000000
vn 0.499999 0.000000 -0.866026
vn 0.499999 0.000000 -0.866026
vn -0.176765 -0.935423 0.306167
vn -0.306166 -0.935423 0.176766
vn 0.000000 -0.985302 0.170821
vn 0.122161 0.969694 -0.211589
vn -0.000000 0.985656 -0.168764
vn 0.211589 0.969694 -0.122161
vn 0.499999 0.000000 -0.866026
vn 0.499999 0.000000 -0.866026
vn 0.866025 0.000000 -0.500001
vn 0.499999 0.000000 -0.866026
vn 0.866025 0.000000 -0.500001
vn 0.866025 0.000000 -0.500001
vn -0.306166 -0.935423 0.176766
vn -0.353374 -0.935008 0.029770
vn 0.000000 -0.985302 0.170821
vn 0.211589 0.969694 -0.122161
vn -0.000000 0.985656 -0.168764
vn 0.244270 0.969488 -0.020623
vn 0.866025 0.000000 -0.500001
vn 0.866025 0.000000 -0.500001
vn 0.996666 0.000000 -0.081591
vn 0.866025 0.000000 -0.500001
vn 0.996666 0.000000 -0.081591
vn 0.996666 0.000000 -0.081591

# texture coords: 144
vt 0.956413 0.603871
vt 0.780133 0.501628
vt 0.838155 0.687492
vt 0.956413 0.649048
vt 0.838155 0.732670
vt 0.780133 0.546806
vt 0.956413 0.603871
vt 0.956413 0.649048
vt 0.780133 0.501628
vt 0.956413 0.649048
vt 0.780133 0.546806
vt 0.780133 0.501628
vt 0.780133 0.501628
vt 0.769542 0.555355
vt 0.838155 0.687492
vt 0.780133 0.546806
vt 0.838155 0.732670
vt 0.769542 0.600532
vt 0.780133 0.501628
vt 0.780133 0.546806
vt 0.769542 0.600532
vt 0.780133 0.501628
vt 0.769542 0.600532
vt 0.769542 0.555355
vt 0.769542 0.555355
vt 0.719896 0.603871
vt 0.838155 0.687492
vt 0.769542 0.600532
vt 0.838155 0.732670
vt 0.719896 0.649048
vt 0.769542 0.555355
vt 0.769542 0.600532
vt 0.719896 0.603871
vt 0.769542 0.600532
vt 0.719896 0.649048
vt 0.719896 0.603871
vt 0.719896 0.603871
vt 0.651284 0.638976
vt 0.838155 0.687492
vt 0.719896 0.649048
vt 0.838155 0.732670
vt 0.651284 0.684153
vt 0.719896 0.603871
vt 0.719896 0.649048
vt 0.651284 0.684153
vt 0.719896 0.603871
vt 0.651284 0.684153
vt 0.651284 0.638976
vt 0.651284 0.638976
vt 0.575303 0.646465
vt 0.838155 0.687492
vt 0.651284 0.684153
vt 0.838155 0.732670
vt 0.575303 0.691642
vt 0.651284 0.638976
vt 0.651284 0.684153
vt 0.575303 0.646465
vt 0.651284 0.684153
vt 0.575303 0.691642
vt 0.575303 0.646465
vt 0.575303 0.646465
vt 0.719896 0.771114
vt 0.838155 0.687492
vt 0.575303 0.691642
vt 0.838155 0.732670
vt 0.719896 0.816291
vt 0.575303 0.646465
vt 0.575303 0.691642
vt 0.719896 0.816291
vt 0.575303 0.646465
vt 0.719896 0.816291
vt 0.719896 0.771114
vt 0.719896 0.771114
vt 0.794869 0.801721
vt 0.838155 0.687492
vt 0.719896 0.816291
vt 0.838155 0.732670
vt 0.794869 0.846899
vt 0.719896 0.771114
vt 0.719896 0.816291
vt 0.794869 0.801721
vt 0.719896 0.816291
vt 0.794869 0.846899
vt 0.794869 0.801721
vt 0.794869 0.801721
vt 0.881440 0.801721
vt 0.838155 0.687492
vt 0.794869 0.846899
vt 0.838155 0.732670
vt 0.881440 0.846899
vt 0.794869 0.801721
vt 0.794869 0.846899
vt 0.881440 0.846899
vt 0.794869 0.801721
vt 0.881440 0.846899
vt 0.881440 0.801721
vt 0.881440 0.801721
vt 0.956413 0.771114
vt 0.838155 0.687492
vt 0.881440 0.846899
vt 0.838155 0.732670
vt 0.956413 0.816291
vt 0.881440 0.801721
vt 0.881440 0.846899
vt 0.956413 0.771114
vt 0.881440 0.846899
vt 0.956413 0.816291
vt 0.956413 0.771114
vt 0.956413 0.771114
vt 0.999699 0.718100
vt 0.838155 0.687492
vt 0.956413 0.816291
vt 0.838155 0.732670
vt 0.999699 0.763277
vt 0.956413 0.771114
vt 0.956413 0.816291
vt 0.999699 0.763277
vt 0.956413 0.771114
vt 0.999699 0.763277
vt 0.999699 0.718100
vt 0.999699 0.718100
vt 0.999699 0.656885
vt 0.838155 0.687492
vt 0.999699 0.763277
vt 0.838155 0.732670
vt 0.999699 0.702062
vt 0.999699 0.718100
vt 0.999699 0.763277
vt 0.999699 0.656885
vt 0.999699 0.763277
vt 0.999699 0.702062
vt 0.999699 0.656885
vt 0.999699 0.656885
vt 0.956413 0.603871
vt 0.838155 0.687492
vt 0.999699 0.702062
vt 0.838155 0.732670
vt 0.956413 0.649048
vt 0.999699 0.656885
vt 0.999699 0.702062
vt 0.956413 0.649048
vt 0.999699 0.656885
vt 0.956413 0.649048
vt 0.956413 0.603871

# polygons: 48
usemtl DrumShell
f 1/1/1 3/2/2 26/3/3
f 2/4/4 25/5/5 4/6/6
f 1/7/7 2/8/8 3/9/9
f 2/10/10 4/11/11 3/12/12
f 3/13/13 5/14/14 26/15/15
f 4/16/16 25/17/17 6/18/18
f 3/19/19 4/20/20 6/21/21
f 3/22/22 6/23/23 5/24/24
f 5/25/25 7/26/26 26/27/27
f 6/28/28 25/29/29 8/30/30
f 5/31/31 6/32/32 7/33/33
f 6/34/34 8/35/35 7/36/36
f 7/37/37 9/38/38 26/39/39
f 8/40/40 25/41/41 10/42/42
f 7/43/43 8/44/44 10/45/45
f 7/46/46 10/47/47 9/48/48
f 9/49/49 11/50/50 26/51/51
f 10/52/52 25/53/53 12/54/54
f 9/55/55 10/56/56 11/57/57
f 10/58/58 12/59/59 11/60/60
f 11/61/61 13/62/62 26/63/63
f 12/64/64 25/65/65 14/66/66
f 11/67/67 12/68/68 14/69/69
f 11/70/70 14/71/71 13/72/72
f 13/73/73 15/74/74 26/75/75
f 14/76/76 25/77/77 16/78/78
f 13/79/79 14/80/80 15/81/81
f 14/82/82 16/83/83 15/84/84
f 15/85/85 17/86/86 26/87/87
f 16/88/88 25/89/89 18/90/90
f 15/91/91 16/92/92 18/93/93
f 15/94/94 18/95/95 17/96/96
f 17/97/97 19/98/98 26/99/99
f 18/100/100 25/101/101 20/102/102
f 17/103/103 18/104/104 19/105/105
f 18/106/106 20/107/107 19/108/108
f 19/109/109 21/110/110 26/111/111
f 20/112/112 25/113/113 22/114/114
f 19/115/115 20/116/116 22/117/117
f 19/118/118 22/119/119 21/120/120
f 21/121/121 23/122/122 26/123/123
f 22/124/124 25/125/125 24/126/126
f 21/127/127 22/128/128 23/129/129
f 22/130/130 24/131/131 23/132/132
f 23/133/133 1/134/134 26/135/135
f 24/136/136 25/137/137 2/138/138
f 23/139/139 24/140/140 2/141/141
f 23/142/142 2/143/143 1/144/144

# object end 'Converted object 0'
