# Blender v3.1.2 OBJ File: ''
# www.blender.org
mtllib ClarinetRightHand10.mtl
o ClarinetRightHand11_RecorderHandLeft0.034
v -0.879142 -12.226582 -1.513352
v -0.805585 -12.495728 -1.102725
v -0.497970 -13.021624 -1.400779
v -0.571519 -12.752471 -1.811410
v -1.000721 -13.967942 -2.833544
v -0.804123 -15.311659 -3.286067
v -1.596185 -15.236614 -3.409388
v -0.563700 -14.103412 -2.689860
v -0.953603 -15.966629 -2.764201
v -1.307856 -15.807921 -1.968526
v -1.528066 -16.449142 -2.398288
v -1.759891 -16.385799 -1.569581
v -2.254751 -16.180393 -2.677254
v -2.434754 -16.188084 -1.659971
v -2.225971 -15.419575 -3.306166
v -1.525726 -13.809354 -2.929309
v 0.314158 -15.164861 0.413802
v 0.391087 -15.568357 0.916653
v 0.208866 -15.534196 0.419530
v 0.496370 -15.199059 0.910927
v 0.187599 -13.852099 1.350111
v -0.003913 -14.380730 1.812905
v 0.262954 -14.354929 1.355065
v -0.083977 -13.846482 1.807640
v 0.665814 -13.478008 0.470626
v 0.398170 -12.898948 0.936966
v 0.459524 -13.472198 0.959865
v 0.607385 -12.932071 0.448818
v -0.024564 -12.540313 1.169835
v -0.339045 -12.037649 1.615052
v -0.252033 -12.537456 1.649156
v -0.111576 -12.040512 1.135729
v -1.244943 -15.104633 0.183994
v -1.519525 -15.757098 -0.044446
v -1.292283 -15.159385 -0.134549
v -1.280434 -15.522270 0.170198
v -1.971236 -15.751159 0.233903
v -1.310155 -15.524589 0.728293
v -1.887512 -15.159182 0.382760
v -1.274665 -15.106988 0.742090
v -1.291798 -14.057067 0.055126
v -1.527591 -14.056030 -0.411786
v -1.189885 -14.552502 0.107053
v -1.432636 -14.543173 0.578736
v -1.907402 -14.063808 -0.039973
v -1.540918 -14.016781 0.523564
v -1.346595 -13.667194 -0.021968
v -1.407102 -13.659114 0.505496
v -2.239484 -13.339751 -0.372890
v -1.536099 -13.096925 0.491158
v -1.754326 -13.317899 -0.588265
v -1.469447 -13.131789 -0.035625
v -1.342331 -12.971372 0.029377
v -1.585085 -12.962034 0.501060
v -2.286170 -12.725670 -0.781166
v -1.687000 -12.466598 0.449133
v -1.807905 -12.876414 -0.954659
v -1.444244 -12.475940 -0.022550
v -0.559739 -15.067232 0.590889
v -0.689438 -15.494211 0.599738
v -0.598547 -15.493784 1.122465
v -0.468858 -15.066840 1.113616
v -0.684786 -13.959298 0.715009
v -0.678863 -14.464388 0.773234
v -1.190954 -14.444911 0.910660
v -1.197246 -13.908262 0.848797
v -0.371286 -13.605621 0.515775
v -0.860442 -13.556731 0.716477
v -0.851448 -12.987357 0.623547
v -0.362721 -13.063373 0.427273
v -0.675272 -12.726996 0.826551
v -1.174570 -12.706309 1.004809
v -1.196856 -12.206923 0.911760
v -0.697558 -12.227618 0.733503
v 0.272614 -12.545014 -0.400129
v 0.403546 -12.692411 -1.059257
v 0.269280 -12.231482 -0.785226
v 0.406877 -13.005946 -0.674158
v -1.549856 -13.190161 -1.539932
v -1.061753 -13.384310 -1.463631
v -1.346859 -12.954506 -2.482198
v -0.858752 -13.148650 -2.405909
v -2.301727 -14.494083 -0.949692
v -1.769894 -14.380057 -0.819855
v -1.886724 -13.593784 -2.658053
v -2.088041 -13.321164 -2.170244
v -1.920597 -14.719024 -2.873922
v -1.678875 -14.659361 -1.424773
v -1.510857 -15.802284 -2.933559
vt 0.000000 0.000000
vt 0.000000 0.000000
vt 0.000000 0.000000
vt 0.000000 0.000000
vt 0.719050 0.905874
vt 0.610958 0.962396
vt 0.633668 0.962396
vt 0.716403 0.900095
vt 0.481281 0.962396
vt 0.440041 0.916248
vt 0.426832 0.962396
vt 0.335413 0.920643
vt 0.335413 0.105289
vt 0.481412 0.063687
vt 0.426832 0.063687
vt 0.396264 0.111087
vt 0.610632 0.063687
vt 0.716992 0.908962
vt 0.610958 0.962396
vt 0.359565 0.636344
vt 0.310152 0.606828
vt 0.309175 0.636344
vt 0.360538 0.606828
vt 0.446758 0.570769
vt 0.379974 0.541173
vt 0.379009 0.570769
vt 0.450850 0.541173
vt 0.484071 0.539572
vt 0.562016 0.509767
vt 0.486319 0.509767
vt 0.556803 0.539572
vt 0.586177 0.559420
vt 0.653850 0.529754
vt 0.587143 0.529754
vt 0.652885 0.559420
vt 0.359617 0.750576
vt 0.311916 0.818332
vt 0.367596 0.791519
vt 0.309471 0.750576
vt 0.309472 0.275355
vt 0.311917 0.207757
vt 0.311917 0.207757
vt 0.309472 0.275355
vt 0.367597 0.234518
vt 0.360100 0.275355
vt 0.359617 0.750576
vt 0.367596 0.791519
vt 0.447850 0.703741
vt 0.463933 0.752948
vt 0.379300 0.703741
vt 0.379301 0.322191
vt 0.367597 0.234518
vt 0.379301 0.322191
vt 0.463935 0.273089
vt 0.448333 0.322191
vt 0.447850 0.703741
vt 0.463933 0.752948
vt 0.482912 0.353387
vt 0.463935 0.273089
vt 0.482912 0.353387
vt 0.576616 0.279879
vt 0.557044 0.353387
vt 0.556562 0.672544
vt 0.576615 0.746157
vt 0.576615 0.746157
vt 0.556562 0.672544
vt 0.482910 0.672544
vt 0.586470 0.333539
vt 0.576616 0.279879
vt 0.586470 0.333539
vt 0.647841 0.251664
vt 0.653418 0.333539
vt 0.652934 0.692392
vt 0.647357 0.774321
vt 0.647357 0.774321
vt 0.652934 0.692392
vt 0.586468 0.692392
vt 0.359617 0.700425
vt 0.309471 0.700425
vt 0.309472 0.325506
vt 0.309472 0.325506
vt 0.360100 0.325506
vt 0.359617 0.700425
vt 0.447850 0.645362
vt 0.379300 0.645362
vt 0.379301 0.380569
vt 0.379301 0.380569
vt 0.448333 0.380569
vt 0.447850 0.645362
vt 0.482912 0.411765
vt 0.482912 0.411765
vt 0.557044 0.411765
vt 0.556562 0.614166
vt 0.556562 0.614166
vt 0.482910 0.614166
vt 0.586470 0.391917
vt 0.586470 0.391917
vt 0.653418 0.391917
vt 0.652934 0.634014
vt 0.652934 0.634014
vt 0.586468 0.634014
vt 0.309472 0.389587
vt 0.309472 0.389587
vt 0.360100 0.389587
vt 0.359565 0.636344
vt 0.379301 0.455162
vt 0.379301 0.455162
vt 0.448333 0.455162
vt 0.446758 0.570769
vt 0.482912 0.486359
vt 0.482912 0.486359
vt 0.557044 0.486359
vt 0.556803 0.539572
vt 0.586470 0.466511
vt 0.586470 0.466511
vt 0.653418 0.466511
vt 0.652885 0.559420
vt 0.759890 0.706180
vt 0.827128 0.676578
vt 0.759942 0.676578
vt 0.827077 0.706180
vt 0.741301 0.238111
vt 0.688390 0.205070
vt 0.688390 0.205070
vt 0.741301 0.238111
vt 0.788065 0.166556
vt 0.816540 0.221151
vt 0.816056 0.804833
vt 0.787581 0.859428
vt 0.787581 0.859428
vt 0.816056 0.804833
vt 0.688390 0.820966
vt 0.741300 0.787873
vt 0.760230 0.319935
vt 0.760230 0.319935
vt 0.827658 0.319935
vt 0.827077 0.706180
vt 0.688390 0.820966
vt 0.506590 0.209765
vt 0.485260 0.796907
vt 0.717475 0.117075
vt 0.703040 0.135330
vt 0.647663 0.251431
vt 0.688696 0.204786
vt 0.686431 0.167052
vt 0.686126 0.167441
vt 0.702862 0.135045
vt 0.643141 0.109475
vt 0.519247 0.861607
vt 0.531860 0.960669
vt 0.553449 0.960538
vt 0.541632 0.940939
vt 0.564738 0.937239
vt 0.552575 0.924789
vt 0.532474 0.918349
vt 0.517215 0.939636
vn 0.0932 0.9930 -0.0726
vn -0.2134 0.4019 0.8905
vn 0.6203 -0.7508 0.2269
vn 0.8047 0.3040 -0.5099
vn 0.3275 0.3683 -0.8701
vn 0.6501 -0.2176 -0.7280
vn 0.0035 -0.1143 -0.9934
vn 0.9606 0.2237 -0.1649
vn 0.7126 -0.6605 -0.2364
vn 0.8079 -0.2565 0.5305
vn 0.3075 -0.9368 -0.1668
vn 0.3705 -0.8910 0.2624
vn -0.5867 -0.6626 -0.4655
vn -0.8287 -0.5569 0.0555
vn -0.6878 -0.0894 -0.7203
vn -0.1289 0.3656 -0.9218
vn 0.5048 0.5040 -0.7009
vn 0.6016 -0.6873 0.4070
vn 0.2838 -0.6316 -0.7214
vn 0.8225 0.4177 0.3860
vn 0.7279 0.6534 -0.2080
vn 0.2101 -0.5512 0.8075
vn 0.8498 -0.4901 -0.1940
vn 0.0619 0.6050 0.7938
vn 0.7300 -0.5173 -0.4466
vn 0.2922 0.6810 0.6714
vn 0.4157 -0.5247 0.7429
vn 0.6299 0.5920 -0.5027
vn 0.8575 -0.4672 -0.2156
vn 0.0754 0.6587 0.7486
vn 0.2747 -0.4702 0.8387
vn 0.6515 0.6979 -0.2975
vn 0.0527 0.8246 -0.5632
vn 0.6912 -0.7109 0.1297
vn 0.9389 -0.1617 -0.3039
vn 0.6113 -0.6257 -0.4845
vn -0.5437 -0.6233 0.5620
vn -0.2981 -0.6906 0.6590
vn -0.6453 0.1723 0.7443
vn -0.3860 0.7042 0.5959
vn 0.5421 0.7238 -0.4270
vn 0.9079 0.1450 -0.3933
vn 0.8925 -0.3415 -0.2947
vn -0.3526 -0.6126 0.7074
vn -0.7457 0.0940 0.6596
vn -0.6732 0.6300 0.3871
vn 0.7441 -0.5113 -0.4300
vn -0.3052 -0.6582 0.6882
vn -0.8929 0.0407 0.4483
vn -0.5369 0.6069 0.5861
vn 0.9592 0.0325 -0.2808
vn 0.1407 0.8347 -0.5325
vn 0.7258 -0.6046 -0.3282
vn -0.4316 -0.7223 0.5403
vn -0.6630 0.7417 -0.1010
vn -0.7843 0.5443 0.2977
vn 0.5572 0.6639 -0.4988
vn 0.2594 0.7622 -0.5931
vn 0.0946 0.8023 -0.5893
vn 0.1666 -0.8295 -0.5331
vn -0.1553 -0.6023 0.7830
vn -0.0102 0.6810 0.7322
vn 0.4802 0.6614 -0.5762
vn 0.4915 -0.7935 -0.3590
vn -0.4762 -0.5845 0.6570
vn -0.4678 0.7793 0.4169
vn 0.2939 -0.9072 -0.3009
vn -0.1253 -0.5072 0.8527
vn -0.1481 0.8386 0.5242
vn 0.1562 0.5778 -0.8011
vn 0.5486 -0.7982 -0.2488
vn -0.4173 -0.5259 0.7411
vn -0.5262 0.7688 0.3634
vn 0.4070 0.6410 -0.6507
vn 0.2623 0.1431 0.9543
vn 0.8593 -0.0319 -0.5106
vn 0.4591 0.8792 0.1273
vn 0.5505 -0.7395 0.3873
vn -0.1743 0.9847 -0.0045
vn 0.6063 -0.4627 0.6468
vn -0.2693 0.7482 -0.6064
vn 0.7934 0.2438 -0.5577
vn -0.9910 0.0300 0.1303
vn 0.9783 0.0764 -0.1927
vn -0.6808 0.4171 -0.6021
vn -0.5671 0.6820 -0.4619
vn -0.9463 0.2818 -0.1584
vn 0.9287 -0.0351 0.3693
vn 0.0551 -0.6360 -0.7697
usemtl Default_OBJ.052
s 1
f 1/1/1 2/2/2 3/3/3 4/4/4
f 5/5/5 6/6/6 7/7/7
f 5/5/5 8/8/8 6/6/6
f 8/8/8 9/9/9 6/6/6
f 8/8/8 10/10/10 9/9/9
f 10/10/10 11/11/11 9/9/9
f 10/10/10 12/12/12 11/11/11
f 12/13/12 13/14/13 11/15/11
f 12/13/12 14/16/14 13/14/13
f 14/16/14 15/17/15 13/14/13
f 16/18/16 7/7/7 15/19/15
f 16/18/16 5/5/5 7/7/7
f 17/20/17 18/21/18 19/22/19
f 18/21/18 17/20/17 20/23/20
f 21/24/21 22/25/22 23/26/23
f 22/25/22 21/24/21 24/27/24
f 25/28/25 26/29/26 27/30/27
f 26/29/26 25/28/25 28/31/28
f 29/32/29 30/33/30 31/34/31
f 30/33/30 29/32/29 32/35/32
f 33/36/33 34/37/34 35/38/35
f 33/36/33 36/39/36 34/37/34
f 36/40/36 37/41/37 34/42/34
f 36/40/36 38/43/38 37/41/37
f 38/43/38 39/44/39 37/41/37
f 38/43/38 40/45/40 39/44/39
f 40/46/40 35/38/35 39/47/39
f 40/46/40 33/36/33 35/38/35
f 41/48/41 35/38/35 42/49/42
f 41/48/41 43/50/43 35/38/35
f 43/51/43 39/44/39 35/52/35
f 43/51/43 44/53/44 39/44/39
f 44/53/44 45/54/45 39/44/39
f 44/53/44 46/55/46 45/54/45
f 46/56/46 42/49/42 45/57/45
f 46/56/46 41/48/41 42/49/42
f 47/58/47 45/54/45 42/59/42
f 47/58/47 48/60/48 45/54/45
f 48/60/48 49/61/49 45/54/45
f 48/60/48 50/62/50 49/61/49
f 50/63/50 51/64/51 49/65/49
f 50/63/50 52/66/52 51/64/51
f 52/66/52 42/49/42 51/64/51
f 52/66/52 47/67/47 42/49/42
f 53/68/53 49/61/49 51/69/51
f 53/68/53 54/70/54 49/61/49
f 54/70/54 55/71/55 49/61/49
f 54/70/54 56/72/56 55/71/55
f 56/73/56 57/74/57 55/75/55
f 56/73/56 58/76/58 57/74/57
f 58/76/58 51/64/51 57/74/57
f 58/76/58 53/77/53 51/64/51
f 59/78/59 36/39/36 33/36/33
f 59/78/59 60/79/60 36/39/36
f 60/80/60 38/43/38 36/40/36
f 60/80/60 61/81/61 38/43/38
f 61/81/61 40/45/40 38/43/38
f 61/81/61 62/82/62 40/45/40
f 62/83/62 33/36/33 40/46/40
f 62/83/62 59/78/59 33/36/33
f 63/84/63 43/50/43 41/48/41
f 63/84/63 64/85/64 43/50/43
f 64/86/64 44/53/44 43/51/43
f 64/86/64 65/87/65 44/53/44
f 65/87/65 46/55/46 44/53/44
f 65/87/65 66/88/66 46/55/46
f 66/89/66 41/48/41 46/56/46
f 66/89/66 63/84/63 41/48/41
f 67/90/67 48/60/48 47/58/47
f 67/90/67 68/91/68 48/60/48
f 68/91/68 50/62/50 48/60/48
f 68/91/68 69/92/69 50/62/50
f 69/93/69 52/66/52 50/63/50
f 69/93/69 70/94/70 52/66/52
f 70/94/70 47/67/47 52/66/52
f 70/94/70 67/95/67 47/67/47
f 71/96/71 54/70/54 53/68/53
f 71/96/71 72/97/72 54/70/54
f 72/97/72 56/72/56 54/70/54
f 72/97/72 73/98/73 56/72/56
f 73/99/73 58/76/58 56/73/56
f 73/99/73 74/100/74 58/76/58
f 74/100/74 53/77/53 58/76/58
f 74/100/74 71/101/71 53/77/53
f 17/20/17 60/79/60 59/78/59
f 17/20/17 19/22/19 60/79/60
f 19/102/19 61/81/61 60/80/60
f 19/102/19 18/103/18 61/81/61
f 18/103/18 62/82/62 61/81/61
f 18/103/18 20/104/20 62/82/62
f 20/105/20 59/78/59 62/83/62
f 20/105/20 17/20/17 59/78/59
f 21/24/21 64/85/64 63/84/63
f 21/24/21 23/26/23 64/85/64
f 23/106/23 65/87/65 64/86/64
f 23/106/23 22/107/22 65/87/65
f 22/107/22 66/88/66 65/87/65
f 22/107/22 24/108/24 66/88/66
f 24/109/24 63/84/63 66/89/66
f 24/109/24 21/24/21 63/84/63
f 25/110/25 68/91/68 67/90/67
f 25/110/25 27/111/27 68/91/68
f 27/111/27 69/92/69 68/91/68
f 27/111/27 26/112/26 69/92/69
f 26/113/26 70/94/70 69/93/69
f 26/113/26 28/31/28 70/94/70
f 28/31/28 67/95/67 70/94/70
f 28/31/28 25/28/25 67/95/67
f 29/114/29 72/97/72 71/96/71
f 29/114/29 31/115/31 72/97/72
f 31/115/31 73/98/73 72/97/72
f 31/115/31 30/116/30 73/98/73
f 30/117/30 74/100/74 73/99/73
f 30/117/30 32/35/32 74/100/74
f 32/35/32 71/101/71 74/100/74
f 32/35/32 29/32/29 71/101/71
f 75/118/75 76/119/76 77/120/77
f 76/119/76 75/118/75 78/121/78
f 2/122/2 79/123/79 80/124/80
f 2/122/2 1/125/1 79/123/79
f 1/125/1 81/126/81 79/123/79
f 1/125/1 4/127/4 81/126/81
f 4/128/4 82/129/82 81/130/81
f 4/128/4 3/131/3 82/129/82
f 3/131/3 80/132/80 82/129/82
f 3/131/3 2/133/2 80/132/80
f 75/134/75 1/125/1 2/122/2
f 75/134/75 77/135/77 1/125/1
f 77/135/77 4/127/4 1/125/1
f 77/135/77 76/136/76 4/127/4
f 76/137/76 3/131/3 4/128/4
f 76/137/76 78/121/78 3/131/3
f 78/121/78 2/133/2 3/131/3
f 78/121/78 75/118/75 2/133/2
f 80/132/80 55/75/55 57/74/57
f 80/132/80 79/138/79 55/75/55
f 8/8/8 81/130/81 82/129/82
f 5/5/5 16/18/16 81/130/81
f 83/139/83 37/41/37 39/44/39
f 83/139/83 39/44/39 45/54/45
f 83/139/83 45/54/45 49/61/49
f 83/139/83 49/61/49 55/71/55
f 35/38/35 34/37/34 84/140/84
f 42/49/42 35/38/35 84/140/84
f 42/49/42 84/140/84 51/64/51
f 51/64/51 84/140/84 57/74/57
f 81/130/81 8/8/8 5/5/5
f 16/141/16 85/142/85 81/126/81
f 79/123/79 81/126/81 85/142/85
f 55/143/55 79/144/79 86/145/86
f 55/71/55 86/146/86 83/139/83
f 79/144/79 85/147/85 86/145/86
f 86/146/86 85/142/85 14/16/14
f 83/139/83 86/146/86 14/16/14
f 83/139/83 14/16/14 37/41/37
f 14/16/14 85/142/85 87/148/87
f 87/148/87 85/142/85 16/141/16
f 16/141/16 15/17/15 87/148/87
f 87/148/87 15/17/15 14/16/14
f 12/13/12 37/41/37 14/16/14
f 37/41/37 12/13/12 34/42/34
f 57/74/57 84/140/84 88/149/88
f 88/149/88 84/140/84 34/37/34
f 88/149/88 34/37/34 12/12/12
f 88/149/88 12/12/12 10/10/10
f 88/149/88 10/10/10 8/8/8
f 82/129/82 80/132/80 88/149/88
f 57/74/57 88/149/88 80/132/80
f 82/129/82 88/149/88 8/8/8
f 11/150/11 13/151/13 89/152/89
f 89/152/89 13/151/13 15/153/15
f 89/152/89 15/153/15 7/154/7
f 89/152/89 7/154/7 6/155/6
f 89/152/89 6/155/6 9/156/9
f 89/152/89 9/156/9 11/150/11
