# Blender v2.92.0 OBJ File: 'clarinet new.blend'
# www.blender.org
mtllib ClarinetHorn.mtl
o ClarinetHorn_Cylinder.002
v 0.732955 -2.854179 0.423170
v 0.846344 -2.854179 -0.000001
v 1.000342 -3.600748 -0.000001
v 0.866322 -3.600748 0.500169
v 1.057271 -3.881824 0.610414
v 1.220832 -3.881824 -0.000001
v -0.423170 -2.854179 -0.732955
v -0.732953 -2.854179 -0.423172
v 0.423172 -2.854179 -0.732955
v 0.000001 -2.854179 -0.846343
v -0.732953 -2.854179 0.423170
v -0.423170 -2.854179 0.732953
v 0.423173 -2.854179 0.732953
v 0.732955 -2.854179 -0.423172
v -0.530505 0.000002 -0.000000
v -0.846341 -2.854179 -0.000001
v 0.000000 0.000002 0.530505
v 0.000001 -2.854179 0.846341
v 0.000001 -3.881824 1.220829
v -0.610414 -3.881824 1.057269
v -0.679965 -4.014961 1.177735
v 0.000001 -4.014961 1.359931
v -0.866320 -3.600748 -0.500171
v -0.500170 -3.600748 -0.866321
v -0.610415 -3.881824 -1.057271
v -1.057270 -3.881824 -0.610416
v 0.000001 -3.600748 -1.000342
v 0.500171 -3.600748 -0.866322
v 0.610416 -3.881824 -1.057272
v 0.000001 -3.881824 -1.220832
v -0.500169 -3.600748 0.866320
v -0.866319 -3.600748 0.500170
v -1.057269 -3.881824 0.610415
v 0.500172 -3.600748 0.866320
v 0.610416 -3.881824 1.057269
v 0.866322 -3.600748 -0.500171
v 1.057271 -3.881824 -0.610416
v -1.000340 -3.600748 -0.000001
v -1.220830 -3.881824 -0.000001
v 0.000001 -3.600748 1.000340
v -0.679965 -4.239630 1.177735
v 0.000001 -4.239630 1.359931
v 1.177737 -4.014961 0.679965
v 1.359933 -4.014961 -0.000001
v -0.679966 -4.014961 -1.177737
v -1.177735 -4.014961 -0.679966
v 0.679967 -4.014961 -1.177737
v 0.000001 -4.014961 -1.359933
v -1.177735 -4.014961 0.679965
v 0.679967 -4.014961 1.177735
v 1.177737 -4.014961 -0.679967
v -1.359931 -4.014961 -0.000001
v 0.579415 -4.239630 -1.003575
v 1.003575 -4.239630 -0.579415
v 0.478881 -2.011587 -0.276482
v 0.276482 -2.011587 -0.478881
v 1.177737 -4.239630 0.679965
v 1.359933 -4.239630 -0.000001
v -0.679966 -4.239630 -1.177737
v -1.177735 -4.239630 -0.679966
v 0.679967 -4.239630 -1.177737
v 0.000001 -4.239630 -1.359933
v -1.177735 -4.239630 0.679965
v 0.679967 -4.239630 1.177735
v 1.177737 -4.239630 -0.679967
v -1.359931 -4.239630 -0.000001
v 0.000001 -4.239630 -1.158828
v 1.158829 -4.239630 -0.000001
v 1.003575 -4.239630 0.579413
v 0.579415 -4.239630 1.003573
v 0.000001 -4.239630 1.158826
v -0.579412 -4.239630 1.003573
v -1.003573 -4.239630 0.579413
v -1.158826 -4.239630 -0.000001
v -1.003573 -4.239630 -0.579414
v -0.579413 -4.239630 -1.003575
v -0.276481 -2.011587 -0.478881
v 0.000001 -2.011587 -0.552964
v 0.000001 1.985668 0.000000
v -0.552962 -2.011587 -0.000001
v -0.478879 -2.011587 0.276480
v 0.000001 -2.011587 0.552962
v 0.276482 -2.011587 0.478879
v 0.552964 -2.011587 -0.000001
v -0.478879 -2.011587 -0.276482
v -0.276480 -2.011587 0.478879
v 0.478881 -2.011587 0.276480
v -0.459431 -0.000000 0.265253
v -0.459431 0.000000 -0.265252
v 0.459431 0.000000 -0.265252
v 0.265252 0.000000 -0.459431
v -0.265253 0.000000 -0.459431
v 0.000000 0.000000 -0.530505
v 0.530505 0.000000 -0.000000
v 0.459431 -0.000000 0.265252
v 0.265253 -0.000000 0.459431
v -0.265252 -0.000000 0.459431
vt 0.424198 0.277789
vt 0.448859 0.277789
vt 0.448859 0.428580
vt 0.424198 0.428580
vt 0.424198 0.457375
vt 0.448859 0.457375
vt 0.448859 0.470869
vt 0.424198 0.470869
vt 0.284054 0.277789
vt 0.307323 0.277789
vt 0.307323 0.440203
vt 0.284054 0.440203
vt 0.350216 0.277789
vt 0.374877 0.277789
vt 0.374877 0.428580
vt 0.350216 0.428580
vt 0.214244 0.277789
vt 0.237514 0.277789
vt 0.237514 0.440203
vt 0.214244 0.440203
vt 0.473520 0.277789
vt 0.473520 0.428580
vt 0.330593 0.277789
vt 0.330593 0.440203
vt 0.399538 0.277789
vt 0.399538 0.428580
vt 0.260784 0.277789
vt 0.260784 0.440203
vt 0.498181 0.277789
vt 0.498181 0.428580
vt 0.190975 0.277789
vt 0.190975 0.440203
vt 0.190975 0.483340
vt 0.214244 0.483340
vt 0.214244 0.490759
vt 0.190975 0.490759
vt 0.284054 0.469575
vt 0.307323 0.469575
vt 0.307323 0.483340
vt 0.284054 0.483340
vt 0.350216 0.457375
vt 0.374877 0.457375
vt 0.374877 0.470869
vt 0.350216 0.470869
vt 0.214244 0.469575
vt 0.237514 0.469575
vt 0.237514 0.483340
vt 0.473520 0.457375
vt 0.473520 0.470869
vt 0.330593 0.469575
vt 0.330593 0.483340
vt 0.399538 0.457375
vt 0.399538 0.470869
vt 0.260784 0.469575
vt 0.260784 0.483340
vt 0.498180 0.457375
vt 0.498180 0.470869
vt 0.190975 0.469575
vt 0.214244 0.499416
vt 0.190975 0.499416
vt 0.448859 0.478143
vt 0.424198 0.478143
vt 0.307323 0.490759
vt 0.284054 0.490759
vt 0.374877 0.478143
vt 0.350216 0.478143
vt 0.237514 0.490759
vt 0.473520 0.478143
vt 0.330593 0.490759
vt 0.399538 0.478143
vt 0.260784 0.490759
vt 0.498180 0.478143
vt 0.209109 0.258166
vt 0.227243 0.258166
vt 0.227243 0.169280
vt 0.209109 0.169280
vt 0.448859 0.486630
vt 0.424198 0.486630
vt 0.307323 0.499416
vt 0.284054 0.499416
vt 0.374877 0.486630
vt 0.350216 0.486630
vt 0.237514 0.499416
vt 0.473520 0.486630
vt 0.330593 0.499416
vt 0.399538 0.486630
vt 0.260784 0.499416
vt 0.498180 0.486630
vt 0.374877 0.494226
vt 0.350216 0.494226
vt 0.399538 0.494226
vt 0.424198 0.494226
vt 0.448859 0.494226
vt 0.473520 0.494226
vt 0.498180 0.494226
vt 0.214244 0.507164
vt 0.190975 0.507164
vt 0.237514 0.507164
vt 0.260784 0.507164
vt 0.284054 0.507164
vt 0.307323 0.507164
vt 0.330593 0.507164
vt 0.390452 0.169280
vt 0.190975 0.169280
vt 0.289335 0.009811
vt 0.336049 0.258166
vt 0.354184 0.258166
vt 0.354184 0.169280
vt 0.336049 0.169280
vt 0.281646 0.258166
vt 0.299781 0.258166
vt 0.299781 0.169280
vt 0.281646 0.169280
vt 0.245378 0.258166
vt 0.245378 0.169280
vt 0.372318 0.258166
vt 0.372318 0.169280
vt 0.317915 0.258166
vt 0.317915 0.169280
vt 0.263512 0.258166
vt 0.263512 0.169280
vt 0.390452 0.258166
vt 0.190975 0.258166
vt 0.408587 0.258166
vt 0.408587 0.169280
vn 0.9967 0.0698 0.0409
vn 0.8305 0.1115 0.5457
vn 0.8552 0.1574 0.4938
vn 0.9875 0.1574 -0.0000
vn 0.9000 0.4359 0.0000
vn 0.7794 0.4359 0.4500
vn 0.6370 0.6774 0.3678
vn 0.7356 0.6774 0.0000
vn -0.8441 0.0673 -0.5319
vn -0.4464 0.1115 -0.8879
vn -0.4938 0.1574 -0.8552
vn -0.8552 0.1574 -0.4938
vn 0.0409 0.0698 -0.9967
vn 0.5457 0.1115 -0.8305
vn 0.4938 0.1574 -0.8552
vn -0.0000 0.1574 -0.9875
vn -0.5338 0.0697 0.8428
vn -0.8308 0.1077 0.5461
vn -0.8552 0.1574 0.4938
vn -0.4938 0.1574 0.8552
vn 0.4464 0.1115 0.8879
vn 0.4938 0.1574 0.8552
vn 0.8879 0.1115 -0.4464
vn 0.8552 0.1574 -0.4938
vn -0.9922 0.1110 0.0569
vn -0.9875 0.1574 0.0000
vn -0.0574 0.1115 0.9921
vn -0.0000 0.1574 0.9875
vn -0.0000 0.6774 0.7356
vn -0.3678 0.6774 0.6370
vn -0.4643 0.3711 0.8042
vn 0.0000 0.3711 0.9286
vn -0.7794 0.4359 -0.4500
vn -0.4500 0.4359 -0.7794
vn -0.3678 0.6774 -0.6370
vn -0.6370 0.6774 -0.3678
vn -0.0000 0.4359 -0.9000
vn 0.4500 0.4359 -0.7794
vn 0.3678 0.6774 -0.6370
vn -0.0000 0.6774 -0.7356
vn -0.4500 0.4359 0.7794
vn -0.7794 0.4359 0.4500
vn -0.6370 0.6774 0.3678
vn 0.4500 0.4359 0.7794
vn 0.3678 0.6774 0.6370
vn 0.7794 0.4359 -0.4500
vn 0.6370 0.6774 -0.3678
vn -0.9000 0.4359 0.0000
vn -0.7356 0.6774 0.0000
vn -0.0000 0.4359 0.9000
vn -0.3786 -0.6532 0.6557
vn 0.0000 -0.6532 0.7572
vn 0.8042 0.3711 0.4643
vn 0.9286 0.3711 -0.0000
vn -0.4643 0.3711 -0.8042
vn -0.8042 0.3711 -0.4643
vn 0.4643 0.3711 -0.8042
vn 0.0000 0.3711 -0.9286
vn -0.8042 0.3711 0.4643
vn 0.4643 0.3711 0.8042
vn 0.8042 0.3711 -0.4643
vn -0.9286 0.3711 -0.0000
vn -0.2677 -0.8446 0.4637
vn -0.8357 -0.2624 0.4825
vn -0.8481 -0.2022 0.4897
vn -0.4897 -0.2022 0.8481
vn 0.6557 -0.6532 0.3786
vn 0.7572 -0.6532 0.0000
vn -0.3786 -0.6532 -0.6557
vn -0.6557 -0.6532 -0.3786
vn 0.3786 -0.6532 -0.6557
vn 0.0000 -0.6532 -0.7572
vn -0.6557 -0.6532 0.3786
vn 0.3786 -0.6532 0.6557
vn 0.6557 -0.6532 -0.3786
vn -0.7572 -0.6532 -0.0000
vn -0.0000 -0.6789 0.7343
vn 0.0000 -1.0000 0.0000
vn 0.4637 -0.8446 -0.2677
vn 0.5355 -0.8446 0.0000
vn 0.4897 -0.2022 0.8481
vn -0.0000 -0.2022 0.9793
vn 0.9793 -0.2022 0.0000
vn 0.8481 -0.2022 -0.4897
vn -0.4825 -0.2624 -0.8357
vn 0.0000 -0.2624 -0.9650
vn 0.0000 -0.2022 -0.9793
vn -0.4897 -0.2022 -0.8481
vn -0.9650 -0.2624 -0.0000
vn -0.9793 -0.2022 0.0000
vn 0.8357 -0.2624 0.4825
vn 0.8481 -0.2022 0.4897
vn 0.4825 -0.2624 -0.8357
vn 0.4897 -0.2022 -0.8481
vn -0.8357 -0.2624 -0.4825
vn -0.8481 -0.2022 -0.4897
vn 0.4825 -0.2624 0.8357


f 94/1/1 95/2/2 1/3/3 2/4/4
f 3/5/5 4/6/6 5/7/7 6/8/8
f 89/9/9 92/10/10 7/11/11 8/12/12
f 93/13/13 91/14/14 9/15/15 10/16/16
f 97/17/17 88/18/18 11/19/19 12/20/20
f 95/2/2 96/21/21 13/22/22 1/3/3
f 92/10/10 93/23/13 10/24/16 7/11/11
f 91/14/14 90/25/23 14/26/24 9/15/15
f 88/18/18 15/27/25 16/28/26 11/19/19
f 96/21/21 17/29/27 18/30/28 13/22/22
f 90/25/23 94/1/1 2/4/4 14/26/24
f 15/27/25 89/9/9 8/12/12 16/28/26
f 17/31/27 97/17/17 12/20/20 18/32/28
f 19/33/29 20/34/30 21/35/31 22/36/32
f 23/37/33 24/38/34 25/39/35 26/40/36
f 27/41/37 28/42/38 29/43/39 30/44/40
f 31/45/41 32/46/42 33/47/43 20/34/30
f 4/6/6 34/48/44 35/49/45 5/7/7
f 24/38/34 27/50/37 30/51/40 25/39/35
f 28/42/38 36/52/46 37/53/47 29/43/39
f 32/46/42 38/54/48 39/55/49 33/47/43
f 34/48/44 40/56/50 19/57/29 35/49/45
f 36/52/46 3/5/5 6/8/8 37/53/47
f 38/54/48 23/37/33 26/40/36 39/55/49
f 40/58/50 31/45/41 20/34/30 19/33/29
f 22/36/32 21/35/31 41/59/51 42/60/52
f 6/8/8 5/7/7 43/61/53 44/62/54
f 26/40/36 25/39/35 45/63/55 46/64/56
f 30/44/40 29/43/39 47/65/57 48/66/58
f 20/34/30 33/47/43 49/67/59 21/35/31
f 5/7/7 35/49/45 50/68/60 43/61/53
f 25/39/35 30/51/40 48/69/58 45/63/55
f 29/43/39 37/53/47 51/70/61 47/65/57
f 33/47/43 39/55/49 52/71/62 49/67/59
f 35/49/45 19/57/29 22/72/32 50/68/60
f 37/53/47 6/8/8 44/62/54 51/70/61
f 39/55/49 26/40/36 46/64/56 52/71/62
f 53/73/63 54/74/64 55/75/65 56/76/66
f 44/62/54 43/61/53 57/77/67 58/78/68
f 46/64/56 45/63/55 59/79/69 60/80/70
f 48/66/58 47/65/57 61/81/71 62/82/72
f 21/35/31 49/67/59 63/83/73 41/59/51
f 43/61/53 50/68/60 64/84/74 57/77/67
f 45/63/55 48/69/58 62/85/72 59/79/69
f 47/65/57 51/70/61 65/86/75 61/81/71
f 49/67/59 52/71/62 66/87/76 63/83/73
f 50/68/60 22/72/32 42/88/52 64/84/74
f 51/70/61 44/62/54 58/78/68 65/86/75
f 52/71/62 46/64/56 60/80/70 66/87/76
f 53/89/63 67/90/77 62/82/72 61/81/71
f 54/91/78 53/89/63 61/81/71 65/86/75
f 68/92/78 54/91/78 65/86/75 58/78/68
f 69/93/78 68/92/78 58/78/68 57/77/67
f 70/94/78 69/93/78 57/77/67 64/84/74
f 71/95/78 70/94/78 64/84/74 42/88/52
f 72/96/78 71/97/78 42/60/52 41/59/51
f 73/98/79 72/96/78 41/59/51 63/83/73
f 74/99/80 73/98/79 63/83/73 66/87/76
f 75/100/78 74/99/80 66/87/76 60/80/70
f 76/101/78 75/100/78 60/80/70 59/79/69
f 67/102/78 76/101/78 59/79/69 62/85/72
f 77/103/81 78/104/82 79/105/78
f 73/106/79 74/107/80 80/108/83 81/109/84
f 70/110/85 71/111/86 82/112/87 83/113/88
f 54/74/64 68/114/89 84/115/90 55/75/65
f 74/107/80 75/116/91 85/117/92 80/108/83
f 71/111/86 72/118/93 86/119/94 82/112/87
f 68/114/89 69/120/95 87/121/96 84/115/90
f 75/116/91 76/122/97 77/103/81 85/117/92
f 67/123/77 53/73/63 56/76/66 78/104/82
f 72/118/93 73/106/79 81/109/84 86/119/94
f 69/120/95 70/110/85 83/113/88 87/121/96
f 76/122/97 67/124/77 78/125/82 77/103/81
f 56/76/66 55/75/65 79/105/78
f 81/109/84 80/108/83 79/105/78
f 83/113/88 82/112/87 79/105/78
f 55/75/65 84/115/90 79/105/78
f 80/108/83 85/117/92 79/105/78
f 82/112/87 86/119/94 79/105/78
f 84/115/90 87/121/96 79/105/78
f 85/117/92 77/103/81 79/105/78
f 78/104/82 56/76/66 79/105/78
f 86/119/94 81/109/84 79/105/78
f 87/121/96 83/113/88 79/105/78
f 18/32/28 12/20/20 31/45/41 40/58/50
f 16/28/26 8/12/12 23/37/33 38/54/48
f 14/26/24 2/4/4 3/5/5 36/52/46
f 13/22/22 18/30/28 40/56/50 34/48/44
f 11/19/19 16/28/26 38/54/48 32/46/42
f 9/15/15 14/26/24 36/52/46 28/42/38
f 7/11/11 10/24/16 27/50/37 24/38/34
f 1/3/3 13/22/22 34/48/44 4/6/6
f 12/20/20 11/19/19 32/46/42 31/45/41
f 10/16/16 9/15/15 28/42/38 27/41/37
f 8/12/12 7/11/11 24/38/34 23/37/33
f 2/4/4 1/3/3 4/6/6 3/5/5
