# created by: Biturn ver 0.88
# http://mirex.mypage.sk
# ------------------------------------
# 66 vertices, 64 polygons, 192 points, 1 materials




#-- object 'Converted object 0' --
# 66 vertices, 64 polygons, 192 points

g Converted object 0

# vertexs: 66
v 5.014806 -9.997043 -0.000001
v 4.632860 -9.997043 1.920183
v -0.002876 -9.997043 -0.000001
v 5.014806 0.004683 -0.000001
v -0.002876 0.004683 -0.000001
v 4.632860 0.004683 1.920183
v 3.545161 -9.997043 3.548038
v 3.545161 0.004683 3.548038
v 1.917308 -9.997043 4.635735
v 1.917308 0.004683 4.635735
v -0.002876 -9.997043 5.017683
v -0.002876 0.004683 5.017683
v -1.923061 -9.997043 4.635735
v -1.923061 0.004683 4.635735
v -3.550913 -9.997043 3.548038
v -3.550913 0.004683 3.548038
v -4.638609 -9.997043 1.920183
v -4.638609 0.004683 1.920183
v -5.020558 -9.997043 -0.000001
v -5.020558 0.004683 -0.000001
v -4.638609 -9.997043 -1.920185
v -4.638609 0.004683 -1.920185
v -3.550913 -9.997043 -3.548038
v -3.550913 0.004683 -3.548038
v -1.923061 -9.997043 -4.635735
v -1.923061 0.004683 -4.635735
v -0.002876 -9.997043 -5.017682
v -0.002876 0.004683 -5.017682
v 1.917308 -9.997043 -4.635735
v 1.917308 0.004683 -4.635735
v 3.545161 -9.997043 -3.548038
v 3.545161 0.004683 -3.548038
v 4.632860 -9.997043 -1.920185
v 4.632860 0.004683 -1.920185
v 5.014806 -9.997043 -0.000001
v 5.014806 0.004683 -0.000001
v 4.632860 -9.997043 1.920183
v 4.632860 0.004683 1.920183
v 3.545161 0.004683 3.548038
v 3.545161 -9.997043 3.548038
v 1.917308 -9.997043 4.635735
v 1.917308 0.004683 4.635735
v -0.002876 0.004683 5.017683
v -0.002876 -9.997043 5.017683
v -1.923061 -9.997043 4.635735
v -1.923061 0.004683 4.635735
v -3.550913 0.004683 3.548038
v -3.550913 -9.997043 3.548038
v -4.638609 -9.997043 1.920183
v -4.638609 0.004683 1.920183
v -5.020558 0.004683 -0.000001
v -5.020558 -9.997043 -0.000001
v -4.638609 -9.997043 -1.920185
v -4.638609 0.004683 -1.920185
v -3.550913 0.004683 -3.548038
v -3.550913 -9.997043 -3.548038
v -1.923061 -9.997043 -4.635735
v -1.923061 0.004683 -4.635735
v -0.002876 0.004683 -5.017682
v -0.002876 -9.997043 -5.017682
v 1.917308 -9.997043 -4.635735
v 1.917308 0.004683 -4.635735
v 3.545161 0.004683 -3.548038
v 3.545161 -9.997043 -3.548038
v 4.632860 -9.997043 -1.920185
v 4.632860 0.004683 -1.920185

# normals: 192
vn 0.000000 -1.000000 0.000000
vn 0.000000 -1.000000 0.000000
vn 0.000000 -1.000000 0.000000
vn 0.000000 1.000000 0.000000
vn 0.000000 1.000000 0.000000
vn 0.000000 1.000000 0.000000
vn 0.000000 -1.000000 0.000000
vn 0.000000 -1.000000 0.000000
vn 0.000000 -1.000000 0.000000
vn 0.000000 1.000000 0.000000
vn 0.000000 1.000000 0.000000
vn 0.000000 1.000000 0.000000
vn 0.000000 -1.000000 0.000000
vn 0.000000 -1.000000 0.000000
vn 0.000000 -1.000000 0.000000
vn 0.000000 1.000000 0.000000
vn 0.000000 1.000000 0.000000
vn 0.000000 1.000000 0.000000
vn 0.000000 -1.000000 0.000000
vn 0.000000 -1.000000 0.000000
vn 0.000000 -1.000000 0.000000
vn 0.000000 1.000000 0.000000
vn 0.000000 1.000000 0.000000
vn 0.000000 1.000000 0.000000
vn 0.000000 -1.000000 0.000000
vn 0.000000 -1.000000 0.000000
vn 0.000000 -1.000000 0.000000
vn 0.000000 1.000000 0.000000
vn 0.000000 1.000000 0.000000
vn 0.000000 1.000000 0.000000
vn 0.000000 -1.000000 0.000000
vn 0.000000 -1.000000 0.000000
vn 0.000000 -1.000000 0.000000
vn 0.000000 1.000000 0.000000
vn 0.000000 1.000000 0.000000
vn 0.000000 1.000000 0.000000
vn 0.000000 -1.000000 0.000000
vn 0.000000 -1.000000 0.000000
vn 0.000000 -1.000000 0.000000
vn 0.000000 1.000000 0.000000
vn 0.000000 1.000000 0.000000
vn 0.000000 1.000000 0.000000
vn 0.000000 -1.000000 0.000000
vn 0.000000 -1.000000 0.000000
vn 0.000000 -1.000000 0.000000
vn 0.000000 1.000000 0.000000
vn 0.000000 1.000000 0.000000
vn 0.000000 1.000000 0.000000
vn 0.000000 -1.000000 0.000000
vn 0.000000 -1.000000 0.000000
vn 0.000000 -1.000000 0.000000
vn 0.000000 1.000000 0.000000
vn 0.000000 1.000000 0.000000
vn 0.000000 1.000000 0.000000
vn 0.000000 -1.000000 0.000000
vn 0.000000 -1.000000 0.000000
vn 0.000000 -1.000000 0.000000
vn 0.000000 1.000000 0.000000
vn 0.000000 1.000000 0.000000
vn 0.000000 1.000000 0.000000
vn 0.000000 -1.000000 0.000000
vn 0.000000 -1.000000 0.000000
vn 0.000000 -1.000000 0.000000
vn 0.000000 1.000000 0.000000
vn 0.000000 1.000000 0.000000
vn 0.000000 1.000000 0.000000
vn 0.000000 -1.000000 0.000000
vn 0.000000 -1.000000 0.000000
vn 0.000000 -1.000000 0.000000
vn 0.000000 1.000000 0.000000
vn 0.000000 1.000000 0.000000
vn 0.000000 1.000000 0.000000
vn 0.000000 -1.000000 0.000000
vn 0.000000 -1.000000 0.000000
vn 0.000000 -1.000000 0.000000
vn 0.000000 1.000000 0.000000
vn 0.000000 1.000000 0.000000
vn 0.000000 1.000000 0.000000
vn 0.000000 -1.000000 0.000000
vn 0.000000 -1.000000 0.000000
vn 0.000000 -1.000000 0.000000
vn 0.000000 1.000000 0.000000
vn 0.000000 1.000000 0.000000
vn 0.000000 1.000000 0.000000
vn 0.000000 -1.000000 0.000000
vn 0.000000 -1.000000 0.000000
vn 0.000000 -1.000000 0.000000
vn 0.000000 1.000000 0.000000
vn 0.000000 1.000000 0.000000
vn 0.000000 1.000000 0.000000
vn 0.000000 -1.000000 0.000000
vn 0.000000 -1.000000 0.000000
vn 0.000000 -1.000000 0.000000
vn 0.000000 1.000000 0.000000
vn 0.000000 1.000000 0.000000
vn 0.000000 1.000000 0.000000
vn 1.000000 0.000000 0.000000
vn 1.000000 0.000000 0.000000
vn 0.923880 0.000000 0.382683
vn 1.000000 0.000000 0.000000
vn 0.923880 0.000000 0.382683
vn 0.923880 0.000000 0.382683
vn 0.923880 0.000000 0.382683
vn 0.923880 0.000000 0.382683
vn 0.707107 0.000000 0.707107
vn 0.923880 0.000000 0.382683
vn 0.707107 0.000000 0.707107
vn 0.707107 0.000000 0.707107
vn 0.707107 0.000000 0.707107
vn 0.707107 0.000000 0.707107
vn 0.382683 0.000000 0.923880
vn 0.707107 0.000000 0.707107
vn 0.382683 0.000000 0.923880
vn 0.382683 0.000000 0.923880
vn 0.382683 0.000000 0.923880
vn 0.382683 0.000000 0.923880
vn 0.000000 0.000000 1.000000
vn 0.382683 0.000000 0.923880
vn 0.000000 0.000000 1.000000
vn 0.000000 0.000000 1.000000
vn 0.000000 0.000000 1.000000
vn 0.000000 0.000000 1.000000
vn -0.382683 0.000000 0.923880
vn 0.000000 0.000000 1.000000
vn -0.382683 0.000000 0.923880
vn -0.382683 0.000000 0.923880
vn -0.382683 0.000000 0.923880
vn -0.382683 0.000000 0.923880
vn -0.707107 0.000000 0.707107
vn -0.382683 0.000000 0.923880
vn -0.707107 0.000000 0.707107
vn -0.707107 0.000000 0.707107
vn -0.707107 0.000000 0.707107
vn -0.707107 0.000000 0.707107
vn -0.923880 0.000000 0.382683
vn -0.707107 0.000000 0.707107
vn -0.923880 0.000000 0.382683
vn -0.923880 0.000000 0.382683
vn -0.923880 0.000000 0.382683
vn -0.923880 0.000000 0.382683
vn -1.000000 0.000000 0.000000
vn -0.923880 0.000000 0.382683
vn -1.000000 0.000000 0.000000
vn -1.000000 0.000000 0.000000
vn -1.000000 0.000000 0.000000
vn -1.000000 0.000000 0.000000
vn -0.923880 0.000000 -0.382684
vn -1.000000 0.000000 0.000000
vn -0.923880 0.000000 -0.382684
vn -0.923880 0.000000 -0.382684
vn -0.923880 0.000000 -0.382684
vn -0.923880 0.000000 -0.382684
vn -0.707107 0.000000 -0.707107
vn -0.923880 0.000000 -0.382684
vn -0.707107 0.000000 -0.707107
vn -0.707107 0.000000 -0.707107
vn -0.707107 0.000000 -0.707107
vn -0.707107 0.000000 -0.707107
vn -0.382683 0.000000 -0.923880
vn -0.707107 0.000000 -0.707107
vn -0.382683 0.000000 -0.923880
vn -0.382683 0.000000 -0.923880
vn -0.382683 0.000000 -0.923880
vn -0.382683 0.000000 -0.923880
vn 0.000000 0.000000 -1.000000
vn -0.382683 0.000000 -0.923880
vn 0.000000 0.000000 -1.000000
vn 0.000000 0.000000 -1.000000
vn 0.000000 0.000000 -1.000000
vn 0.000000 0.000000 -1.000000
vn 0.382683 0.000000 -0.923880
vn 0.000000 0.000000 -1.000000
vn 0.382683 0.000000 -0.923880
vn 0.382683 0.000000 -0.923880
vn 0.382683 0.000000 -0.923880
vn 0.382683 0.000000 -0.923880
vn 0.707106 0.000000 -0.707107
vn 0.382683 0.000000 -0.923880
vn 0.707106 0.000000 -0.707107
vn 0.707106 0.000000 -0.707107
vn 0.707106 0.000000 -0.707107
vn 0.707106 0.000000 -0.707107
vn 0.923880 0.000000 -0.382683
vn 0.707106 0.000000 -0.707107
vn 0.923880 0.000000 -0.382683
vn 0.923880 0.000000 -0.382683
vn 0.923880 0.000000 -0.382683
vn 0.923880 0.000000 -0.382683
vn 1.000000 0.000000 0.000000
vn 0.923880 0.000000 -0.382683
vn 1.000000 0.000000 0.000000
vn 1.000000 0.000000 0.000000

# texture coords: 192
vt 0.002771 0.749612
vt 0.040604 0.654607
vt 0.499777 0.749612
vt 0.996783 0.749612
vt 0.499777 0.749612
vt 0.958951 0.654607
vt 0.040604 0.654607
vt 0.148341 0.574065
vt 0.499777 0.749612
vt 0.958951 0.654607
vt 0.499777 0.749612
vt 0.851213 0.574065
vt 0.148341 0.574065
vt 0.309582 0.520248
vt 0.499777 0.749612
vt 0.851213 0.574065
vt 0.499777 0.749612
vt 0.689973 0.520248
vt 0.309582 0.520248
vt 0.499777 0.501351
vt 0.499777 0.749612
vt 0.689973 0.520248
vt 0.499777 0.749612
vt 0.499777 0.501351
vt 0.499777 0.501351
vt 0.689973 0.520248
vt 0.499777 0.749612
vt 0.499777 0.501351
vt 0.499777 0.749612
vt 0.309582 0.520248
vt 0.689973 0.520248
vt 0.851213 0.574065
vt 0.499777 0.749612
vt 0.309582 0.520248
vt 0.499777 0.749612
vt 0.148341 0.574065
vt 0.851213 0.574065
vt 0.958951 0.654607
vt 0.499777 0.749612
vt 0.148341 0.574065
vt 0.499777 0.749612
vt 0.040604 0.654607
vt 0.958951 0.654607
vt 0.996783 0.749612
vt 0.499777 0.749612
vt 0.040604 0.654607
vt 0.499777 0.749612
vt 0.002771 0.749612
vt 0.996783 0.749612
vt 0.958951 0.844618
vt 0.499777 0.749612
vt 0.002771 0.749612
vt 0.499777 0.749612
vt 0.040604 0.844618
vt 0.958951 0.844618
vt 0.851213 0.925160
vt 0.499777 0.749612
vt 0.040604 0.844618
vt 0.499777 0.749612
vt 0.148341 0.925160
vt 0.851213 0.925160
vt 0.689973 0.978976
vt 0.499777 0.749612
vt 0.148341 0.925160
vt 0.499777 0.749612
vt 0.309582 0.978976
vt 0.689973 0.978976
vt 0.499777 0.997874
vt 0.499777 0.749612
vt 0.309582 0.978976
vt 0.499777 0.749612
vt 0.499777 0.997874
vt 0.499777 0.997874
vt 0.309582 0.978976
vt 0.499777 0.749612
vt 0.499777 0.997874
vt 0.499777 0.749612
vt 0.689973 0.978976
vt 0.309582 0.978976
vt 0.148341 0.925160
vt 0.499777 0.749612
vt 0.689973 0.978976
vt 0.499777 0.749612
vt 0.851213 0.925160
vt 0.148341 0.925160
vt 0.040604 0.844618
vt 0.499777 0.749612
vt 0.851213 0.925160
vt 0.499777 0.749612
vt 0.958951 0.844618
vt 0.040604 0.844618
vt 0.002771 0.749612
vt 0.499777 0.749612
vt 0.958951 0.844618
vt 0.499777 0.749612
vt 0.996783 0.749612
vt 0.000322 0.002069
vt 0.000322 0.497609
vt 0.250124 0.002069
vt 0.000322 0.497609
vt 0.250124 0.497609
vt 0.250124 0.002069
vt 0.250124 0.002069
vt 0.250124 0.497609
vt 0.499926 0.497609
vt 0.250124 0.002069
vt 0.499926 0.497609
vt 0.499926 0.002069
vt 0.499926 0.002069
vt 0.499926 0.497609
vt 0.749728 0.002069
vt 0.499926 0.497609
vt 0.749728 0.497609
vt 0.749728 0.002069
vt 0.749728 0.002069
vt 0.749728 0.497609
vt 0.999531 0.497609
vt 0.749728 0.002069
vt 0.999531 0.497609
vt 0.999531 0.002069
vt 0.000322 0.002069
vt 0.000322 0.497609
vt 0.250124 0.002069
vt 0.000322 0.497609
vt 0.250124 0.497609
vt 0.250124 0.002069
vt 0.250124 0.002069
vt 0.250124 0.497609
vt 0.499926 0.497609
vt 0.250124 0.002069
vt 0.499926 0.497609
vt 0.499926 0.002069
vt 0.499926 0.002069
vt 0.499926 0.497609
vt 0.749728 0.002069
vt 0.499926 0.497609
vt 0.749728 0.497609
vt 0.749728 0.002069
vt 0.749728 0.002069
vt 0.749728 0.497609
vt 0.999531 0.497609
vt 0.749728 0.002069
vt 0.999531 0.497609
vt 0.999531 0.002069
vt 0.000322 0.002069
vt 0.000322 0.497609
vt 0.250124 0.002069
vt 0.000322 0.497609
vt 0.250124 0.497609
vt 0.250124 0.002069
vt 0.250124 0.002069
vt 0.250124 0.497609
vt 0.499926 0.497609
vt 0.250124 0.002069
vt 0.499926 0.497609
vt 0.499926 0.002069
vt 0.499926 0.002069
vt 0.499926 0.497609
vt 0.749728 0.002069
vt 0.499926 0.497609
vt 0.749728 0.497609
vt 0.749728 0.002069
vt 0.749728 0.002069
vt 0.749728 0.497609
vt 0.999531 0.497609
vt 0.749728 0.002069
vt 0.999531 0.497609
vt 0.999531 0.002069
vt 0.000322 0.002069
vt 0.000322 0.497609
vt 0.250124 0.002069
vt 0.000322 0.497609
vt 0.250124 0.497609
vt 0.250124 0.002069
vt 0.250124 0.002069
vt 0.250124 0.497609
vt 0.499926 0.497609
vt 0.250124 0.002069
vt 0.499926 0.497609
vt 0.499926 0.002069
vt 0.499926 0.002069
vt 0.499926 0.497609
vt 0.749728 0.002069
vt 0.499926 0.497609
vt 0.749728 0.497609
vt 0.749728 0.002069
vt 0.749728 0.002069
vt 0.749728 0.497609
vt 0.999531 0.497609
vt 0.749728 0.002069
vt 0.999531 0.497609
vt 0.999531 0.002069

# polygons: 64
usemtl DrumShell
f 1/1/1 2/2/2 3/3/3
f 4/4/4 5/5/5 6/6/6
f 2/7/7 7/8/8 3/9/9
f 6/10/10 5/11/11 8/12/12
f 7/13/13 9/14/14 3/15/15
f 8/16/16 5/17/17 10/18/18
f 9/19/19 11/20/20 3/21/21
f 10/22/22 5/23/23 12/24/24
f 11/25/25 13/26/26 3/27/27
f 12/28/28 5/29/29 14/30/30
f 13/31/31 15/32/32 3/33/33
f 14/34/34 5/35/35 16/36/36
f 15/37/37 17/38/38 3/39/39
f 16/40/40 5/41/41 18/42/42
f 17/43/43 19/44/44 3/45/45
f 18/46/46 5/47/47 20/48/48
f 19/49/49 21/50/50 3/51/51
f 20/52/52 5/53/53 22/54/54
f 21/55/55 23/56/56 3/57/57
f 22/58/58 5/59/59 24/60/60
f 23/61/61 25/62/62 3/63/63
f 24/64/64 5/65/65 26/66/66
f 25/67/67 27/68/68 3/69/69
f 26/70/70 5/71/71 28/72/72
f 27/73/73 29/74/74 3/75/75
f 28/76/76 5/77/77 30/78/78
f 29/79/79 31/80/80 3/81/81
f 30/82/82 5/83/83 32/84/84
f 31/85/85 33/86/86 3/87/87
f 32/88/88 5/89/89 34/90/90
f 33/91/91 1/92/92 3/93/93
f 34/94/94 5/95/95 4/96/96
f 35/97/97 36/98/98 37/99/99
f 36/100/100 38/101/101 37/102/102
f 37/103/103 38/104/104 39/105/105
f 37/106/106 39/107/107 40/108/108
f 40/109/109 39/110/110 41/111/111
f 39/112/112 42/113/113 41/114/114
f 41/115/115 42/116/116 43/117/117
f 41/118/118 43/119/119 44/120/120
f 44/121/121 43/122/122 45/123/123
f 43/124/124 46/125/125 45/126/126
f 45/127/127 46/128/128 47/129/129
f 45/130/130 47/131/131 48/132/132
f 48/133/133 47/134/134 49/135/135
f 47/136/136 50/137/137 49/138/138
f 49/139/139 50/140/140 51/141/141
f 49/142/142 51/143/143 52/144/144
f 52/145/145 51/146/146 53/147/147
f 51/148/148 54/149/149 53/150/150
f 53/151/151 54/152/152 55/153/153
f 53/154/154 55/155/155 56/156/156
f 56/157/157 55/158/158 57/159/159
f 55/160/160 58/161/161 57/162/162
f 57/163/163 58/164/164 59/165/165
f 57/166/166 59/167/167 60/168/168
f 60/169/169 59/170/170 61/171/171
f 59/172/172 62/173/173 61/174/174
f 61/175/175 62/176/176 63/177/177
f 61/178/178 63/179/179 64/180/180
f 64/181/181 63/182/182 65/183/183
f 63/184/184 66/185/185 65/186/186
f 65/187/187 66/188/188 36/189/189
f 65/190/190 36/191/191 35/192/192

# object end 'Converted object 0'
