# created by: Biturn ver 0.88
# http://mirex.mypage.sk
# ------------------------------------
# 66 vertices, 64 polygons, 192 points, 1 materials




#-- object 'Converted object 0' --
# 66 vertices, 64 polygons, 192 points

g Converted object 0

# vertexs: 66
v 11.023496 11.050783 -18.086172
v 10.184048 6.830601 -18.086172
v -0.004373 11.050783 -18.086172
v 11.023496 11.050783 -0.016892
v -0.004373 11.050783 -0.016892
v 10.184048 6.830601 -0.016892
v 7.793509 3.252899 -18.086172
v 7.793509 3.252899 -0.016892
v 4.215809 0.862364 -18.086172
v 4.215809 0.862364 -0.016892
v -0.004373 0.022913 -18.086172
v -0.004373 0.022913 -0.016892
v -4.224557 0.862364 -18.086172
v -4.224557 0.862364 -0.016892
v -7.802254 3.252899 -18.086172
v -7.802254 3.252899 -0.016892
v -10.192792 6.830601 -18.086172
v -10.192792 6.830601 -0.016892
v -11.032242 11.050783 -18.086172
v -11.032242 11.050783 -0.016892
v -10.192792 15.270964 -18.086172
v -10.192792 15.270964 -0.016892
v -7.802254 18.848663 -18.086172
v -7.802254 18.848663 -0.016892
v -4.224557 21.239206 -18.086172
v -4.224557 21.239206 -0.016892
v -0.004373 22.078646 -18.086172
v -0.004373 22.078646 -0.016892
v 4.215809 21.239206 -18.086172
v 4.215809 21.239206 -0.016892
v 7.793509 18.848663 -18.086172
v 7.793509 18.848663 -0.016892
v 10.184048 15.270964 -18.086172
v 10.184048 15.270964 -0.016892
v 11.023496 11.050783 -18.086172
v 11.023496 11.050783 -0.016892
v 10.184048 6.830601 -18.086172
v 10.184048 6.830601 -0.016892
v 7.793509 3.252899 -0.016892
v 7.793509 3.252899 -18.086172
v 4.215809 0.862364 -18.086172
v 4.215809 0.862364 -0.016892
v -0.004373 0.022913 -0.016892
v -0.004373 0.022913 -18.086172
v -4.224557 0.862364 -18.086172
v -4.224557 0.862364 -0.016892
v -7.802254 3.252899 -0.016892
v -7.802254 3.252899 -18.086172
v -10.192792 6.830601 -18.086172
v -10.192792 6.830601 -0.016892
v -11.032242 11.050783 -0.016892
v -11.032242 11.050783 -18.086172
v -10.192792 15.270964 -18.086172
v -10.192792 15.270964 -0.016892
v -7.802254 18.848663 -0.016892
v -7.802254 18.848663 -18.086172
v -4.224557 21.239206 -18.086172
v -4.224557 21.239206 -0.016892
v -0.004373 22.078646 -0.016892
v -0.004373 22.078646 -18.086172
v 4.215809 21.239206 -18.086172
v 4.215809 21.239206 -0.016892
v 7.793509 18.848663 -0.016892
v 7.793509 18.848663 -18.086172
v 10.184048 15.270964 -18.086172
v 10.184048 15.270964 -0.016892

# normals: 192
vn 0.000000 0.000000 -1.000000
vn 0.000000 0.000000 -1.000000
vn 0.000000 0.000000 -1.000000
vn 0.000000 0.000000 1.000000
vn 0.000000 0.000000 1.000000
vn 0.000000 0.000000 1.000000
vn 0.000000 0.000000 -1.000000
vn 0.000000 0.000000 -1.000000
vn 0.000000 0.000000 -1.000000
vn 0.000000 0.000000 1.000000
vn 0.000000 0.000000 1.000000
vn 0.000000 0.000000 1.000000
vn 0.000000 0.000000 -1.000000
vn 0.000000 0.000000 -1.000000
vn 0.000000 0.000000 -1.000000
vn 0.000000 0.000000 1.000000
vn 0.000000 0.000000 1.000000
vn 0.000000 0.000000 1.000000
vn 0.000000 0.000000 -1.000000
vn 0.000000 0.000000 -1.000000
vn 0.000000 0.000000 -1.000000
vn 0.000000 0.000000 1.000000
vn 0.000000 0.000000 1.000000
vn 0.000000 0.000000 1.000000
vn 0.000000 0.000000 -1.000000
vn 0.000000 0.000000 -1.000000
vn 0.000000 0.000000 -1.000000
vn 0.000000 0.000000 1.000000
vn 0.000000 0.000000 1.000000
vn 0.000000 0.000000 1.000000
vn 0.000000 0.000000 -1.000000
vn 0.000000 0.000000 -1.000000
vn 0.000000 0.000000 -1.000000
vn 0.000000 0.000000 1.000000
vn 0.000000 0.000000 1.000000
vn 0.000000 0.000000 1.000000
vn 0.000000 0.000000 -1.000000
vn 0.000000 0.000000 -1.000000
vn 0.000000 0.000000 -1.000000
vn 0.000000 0.000000 1.000000
vn 0.000000 0.000000 1.000000
vn 0.000000 0.000000 1.000000
vn 0.000000 0.000000 -1.000000
vn 0.000000 0.000000 -1.000000
vn 0.000000 0.000000 -1.000000
vn 0.000000 0.000000 1.000000
vn 0.000000 0.000000 1.000000
vn 0.000000 0.000000 1.000000
vn 0.000000 0.000000 -1.000000
vn 0.000000 0.000000 -1.000000
vn 0.000000 0.000000 -1.000000
vn 0.000000 0.000000 1.000000
vn 0.000000 0.000000 1.000000
vn 0.000000 0.000000 1.000000
vn 0.000000 0.000000 -1.000000
vn 0.000000 0.000000 -1.000000
vn 0.000000 0.000000 -1.000000
vn 0.000000 0.000000 1.000000
vn 0.000000 0.000000 1.000000
vn 0.000000 0.000000 1.000000
vn 0.000000 0.000000 -1.000000
vn 0.000000 0.000000 -1.000000
vn 0.000000 0.000000 -1.000000
vn 0.000000 0.000000 1.000000
vn 0.000000 0.000000 1.000000
vn 0.000000 0.000000 1.000000
vn 0.000000 0.000000 -1.000000
vn 0.000000 0.000000 -1.000000
vn 0.000000 0.000000 -1.000000
vn 0.000000 0.000000 1.000000
vn 0.000000 0.000000 1.000000
vn 0.000000 0.000000 1.000000
vn 0.000000 0.000000 -1.000000
vn 0.000000 0.000000 -1.000000
vn 0.000000 0.000000 -1.000000
vn 0.000000 0.000000 1.000000
vn 0.000000 0.000000 1.000000
vn 0.000000 0.000000 1.000000
vn 0.000000 0.000000 -1.000000
vn 0.000000 0.000000 -1.000000
vn 0.000000 0.000000 -1.000000
vn 0.000000 0.000000 1.000000
vn 0.000000 0.000000 1.000000
vn 0.000000 0.000000 1.000000
vn 0.000000 0.000000 -1.000000
vn 0.000000 0.000000 -1.000000
vn 0.000000 0.000000 -1.000000
vn 0.000000 0.000000 1.000000
vn 0.000000 0.000000 1.000000
vn 0.000000 0.000000 1.000000
vn 0.000000 0.000000 -1.000000
vn 0.000000 0.000000 -1.000000
vn 0.000000 0.000000 -1.000000
vn 0.000000 0.000000 1.000000
vn 0.000000 0.000000 1.000000
vn 0.000000 0.000000 1.000000
vn 1.000000 0.000000 0.000000
vn 1.000000 0.000000 0.000000
vn 0.923880 -0.382683 0.000000
vn 1.000000 0.000000 0.000000
vn 0.923880 -0.382683 0.000000
vn 0.923880 -0.382683 0.000000
vn 0.923880 -0.382683 0.000000
vn 0.923880 -0.382683 0.000000
vn 0.707107 -0.707107 0.000000
vn 0.923880 -0.382683 0.000000
vn 0.707107 -0.707107 0.000000
vn 0.707107 -0.707107 0.000000
vn 0.707107 -0.707107 0.000000
vn 0.707107 -0.707107 0.000000
vn 0.382683 -0.923880 0.000000
vn 0.707107 -0.707107 0.000000
vn 0.382683 -0.923880 0.000000
vn 0.382683 -0.923880 0.000000
vn 0.382683 -0.923880 0.000000
vn 0.382683 -0.923880 0.000000
vn 0.000000 -1.000000 0.000000
vn 0.382683 -0.923880 0.000000
vn 0.000000 -1.000000 0.000000
vn 0.000000 -1.000000 0.000000
vn 0.000000 -1.000000 0.000000
vn 0.000000 -1.000000 0.000000
vn -0.382683 -0.923880 0.000000
vn 0.000000 -1.000000 0.000000
vn -0.382683 -0.923880 0.000000
vn -0.382683 -0.923880 0.000000
vn -0.382683 -0.923880 0.000000
vn -0.382683 -0.923880 0.000000
vn -0.707107 -0.707107 0.000000
vn -0.382683 -0.923880 0.000000
vn -0.707107 -0.707107 0.000000
vn -0.707107 -0.707107 0.000000
vn -0.707107 -0.707107 0.000000
vn -0.707107 -0.707107 0.000000
vn -0.923880 -0.382683 0.000000
vn -0.707107 -0.707107 0.000000
vn -0.923880 -0.382683 0.000000
vn -0.923880 -0.382683 0.000000
vn -0.923880 -0.382683 0.000000
vn -0.923880 -0.382683 0.000000
vn -1.000000 0.000000 0.000000
vn -0.923880 -0.382683 0.000000
vn -1.000000 0.000000 0.000000
vn -1.000000 0.000000 0.000000
vn -1.000000 0.000000 0.000000
vn -1.000000 0.000000 0.000000
vn -0.923880 0.382683 0.000000
vn -1.000000 0.000000 0.000000
vn -0.923880 0.382683 0.000000
vn -0.923880 0.382683 0.000000
vn -0.923880 0.382683 0.000000
vn -0.923880 0.382683 0.000000
vn -0.707107 0.707106 0.000000
vn -0.923880 0.382683 0.000000
vn -0.707107 0.707106 0.000000
vn -0.707107 0.707106 0.000000
vn -0.707107 0.707106 0.000000
vn -0.707107 0.707106 0.000000
vn -0.382683 0.923880 0.000000
vn -0.707107 0.707106 0.000000
vn -0.382683 0.923880 0.000000
vn -0.382683 0.923880 0.000000
vn -0.382683 0.923880 0.000000
vn -0.382683 0.923880 0.000000
vn 0.000000 1.000000 0.000000
vn -0.382683 0.923880 0.000000
vn 0.000000 1.000000 0.000000
vn 0.000000 1.000000 0.000000
vn 0.000000 1.000000 0.000000
vn 0.000000 1.000000 0.000000
vn 0.382683 0.923880 0.000000
vn 0.000000 1.000000 0.000000
vn 0.382683 0.923880 0.000000
vn 0.382683 0.923880 0.000000
vn 0.382683 0.923880 0.000000
vn 0.382683 0.923880 0.000000
vn 0.707107 0.707106 0.000000
vn 0.382683 0.923880 0.000000
vn 0.707107 0.707106 0.000000
vn 0.707107 0.707106 0.000000
vn 0.707107 0.707106 0.000000
vn 0.707107 0.707106 0.000000
vn 0.923880 0.382683 0.000000
vn 0.707107 0.707106 0.000000
vn 0.923880 0.382683 0.000000
vn 0.923880 0.382683 0.000000
vn 0.923880 0.382683 0.000000
vn 0.923880 0.382683 0.000000
vn 1.000000 0.000000 0.000000
vn 0.923880 0.382683 0.000000
vn 1.000000 0.000000 0.000000
vn 1.000000 0.000000 0.000000

# texture coords: 192
vt -0.002302 0.749295
vt 0.035941 0.653394
vt 0.500102 0.749295
vt 1.002505 0.749295
vt 0.500102 0.749295
vt 0.964262 0.653394
vt 0.035941 0.653394
vt 0.144849 0.572093
vt 0.500102 0.749295
vt 0.964262 0.653394
vt 0.500102 0.749295
vt 0.855354 0.572093
vt 0.144849 0.572093
vt 0.307840 0.517769
vt 0.500102 0.749295
vt 0.855354 0.572093
vt 0.500102 0.749295
vt 0.692363 0.517769
vt 0.307840 0.517769
vt 0.500102 0.498694
vt 0.500102 0.749295
vt 0.692363 0.517769
vt 0.500102 0.749295
vt 0.500102 0.498694
vt 0.500102 0.498694
vt 0.692363 0.517769
vt 0.500102 0.749295
vt 0.500102 0.498694
vt 0.500102 0.749295
vt 0.307840 0.517769
vt 0.692363 0.517769
vt 0.855354 0.572093
vt 0.500102 0.749295
vt 0.307840 0.517769
vt 0.500102 0.749295
vt 0.144848 0.572093
vt 0.855354 0.572093
vt 0.964262 0.653394
vt 0.500102 0.749295
vt 0.144848 0.572093
vt 0.500102 0.749295
vt 0.035941 0.653394
vt 0.964262 0.653394
vt 1.002505 0.749295
vt 0.500102 0.749295
vt 0.035941 0.653394
vt 0.500102 0.749295
vt -0.002302 0.749295
vt 1.002505 0.749295
vt 0.964262 0.845196
vt 0.500102 0.749295
vt -0.002302 0.749295
vt 0.500102 0.749295
vt 0.035941 0.845196
vt 0.964262 0.845196
vt 0.855354 0.926497
vt 0.500102 0.749295
vt 0.035941 0.845196
vt 0.500102 0.749295
vt 0.144848 0.926497
vt 0.855354 0.926497
vt 0.692363 0.980821
vt 0.500102 0.749295
vt 0.144848 0.926497
vt 0.500102 0.749295
vt 0.307840 0.980821
vt 0.692363 0.980821
vt 0.500102 0.999897
vt 0.500102 0.749295
vt 0.307840 0.980821
vt 0.500102 0.749295
vt 0.500102 0.999897
vt 0.500102 0.999897
vt 0.307840 0.980821
vt 0.500102 0.749295
vt 0.500102 0.999897
vt 0.500102 0.749295
vt 0.692363 0.980821
vt 0.307840 0.980821
vt 0.144849 0.926497
vt 0.500102 0.749295
vt 0.692363 0.980821
vt 0.500102 0.749295
vt 0.855354 0.926497
vt 0.144849 0.926497
vt 0.035941 0.845196
vt 0.500102 0.749295
vt 0.855354 0.926497
vt 0.500102 0.749295
vt 0.964262 0.845196
vt 0.035941 0.845196
vt -0.002302 0.749295
vt 0.500102 0.749295
vt 0.964262 0.845196
vt 0.500102 0.749295
vt 1.002505 0.749295
vt 0.002345 0.001879
vt 0.002345 0.496032
vt 0.250348 0.001879
vt 0.002345 0.496032
vt 0.250348 0.496032
vt 0.250348 0.001879
vt 0.250348 0.001879
vt 0.250348 0.496032
vt 0.498350 0.496032
vt 0.250348 0.001879
vt 0.498350 0.496032
vt 0.498350 0.001879
vt 0.498350 0.001879
vt 0.498350 0.496032
vt 0.746353 0.001879
vt 0.498350 0.496032
vt 0.746353 0.496032
vt 0.746353 0.001879
vt 0.746353 0.001879
vt 0.746353 0.496032
vt 0.994355 0.496032
vt 0.746353 0.001879
vt 0.994355 0.496032
vt 0.994355 0.001879
vt 0.002345 0.001879
vt 0.002345 0.496032
vt 0.250348 0.001879
vt 0.002345 0.496032
vt 0.250348 0.496032
vt 0.250348 0.001879
vt 0.250348 0.001879
vt 0.250348 0.496032
vt 0.498350 0.496032
vt 0.250348 0.001879
vt 0.498350 0.496032
vt 0.498350 0.001879
vt 0.498350 0.001879
vt 0.498350 0.496032
vt 0.746353 0.001879
vt 0.498350 0.496032
vt 0.746353 0.496032
vt 0.746353 0.001879
vt 0.746353 0.001879
vt 0.746353 0.496032
vt 0.994355 0.496032
vt 0.746353 0.001879
vt 0.994355 0.496032
vt 0.994355 0.001879
vt 0.002345 0.001879
vt 0.002345 0.496032
vt 0.250348 0.001879
vt 0.002345 0.496032
vt 0.250348 0.496032
vt 0.250348 0.001879
vt 0.250348 0.001879
vt 0.250348 0.496032
vt 0.498350 0.496032
vt 0.250348 0.001879
vt 0.498350 0.496032
vt 0.498350 0.001879
vt 0.498350 0.001879
vt 0.498350 0.496032
vt 0.746353 0.001879
vt 0.498350 0.496032
vt 0.746353 0.496032
vt 0.746353 0.001879
vt 0.746353 0.001879
vt 0.746353 0.496032
vt 0.994355 0.496032
vt 0.746353 0.001879
vt 0.994355 0.496032
vt 0.994355 0.001879
vt 0.002345 0.001879
vt 0.002345 0.496032
vt 0.250348 0.001879
vt 0.002345 0.496032
vt 0.250348 0.496032
vt 0.250348 0.001879
vt 0.250348 0.001879
vt 0.250348 0.496032
vt 0.498350 0.496032
vt 0.250348 0.001879
vt 0.498350 0.496032
vt 0.498350 0.001879
vt 0.498350 0.001879
vt 0.498350 0.496032
vt 0.746353 0.001879
vt 0.498350 0.496032
vt 0.746353 0.496032
vt 0.746353 0.001879
vt 0.746353 0.001879
vt 0.746353 0.496032
vt 0.994355 0.496032
vt 0.746353 0.001879
vt 0.994355 0.496032
vt 0.994355 0.001879

# polygons: 64
usemtl DrumShell
f 1/1/1 2/2/2 3/3/3
f 4/4/4 5/5/5 6/6/6
f 2/7/7 7/8/8 3/9/9
f 6/10/10 5/11/11 8/12/12
f 7/13/13 9/14/14 3/15/15
f 8/16/16 5/17/17 10/18/18
f 9/19/19 11/20/20 3/21/21
f 10/22/22 5/23/23 12/24/24
f 11/25/25 13/26/26 3/27/27
f 12/28/28 5/29/29 14/30/30
f 13/31/31 15/32/32 3/33/33
f 14/34/34 5/35/35 16/36/36
f 15/37/37 17/38/38 3/39/39
f 16/40/40 5/41/41 18/42/42
f 17/43/43 19/44/44 3/45/45
f 18/46/46 5/47/47 20/48/48
f 19/49/49 21/50/50 3/51/51
f 20/52/52 5/53/53 22/54/54
f 21/55/55 23/56/56 3/57/57
f 22/58/58 5/59/59 24/60/60
f 23/61/61 25/62/62 3/63/63
f 24/64/64 5/65/65 26/66/66
f 25/67/67 27/68/68 3/69/69
f 26/70/70 5/71/71 28/72/72
f 27/73/73 29/74/74 3/75/75
f 28/76/76 5/77/77 30/78/78
f 29/79/79 31/80/80 3/81/81
f 30/82/82 5/83/83 32/84/84
f 31/85/85 33/86/86 3/87/87
f 32/88/88 5/89/89 34/90/90
f 33/91/91 1/92/92 3/93/93
f 34/94/94 5/95/95 4/96/96
f 35/97/97 36/98/98 37/99/99
f 36/100/100 38/101/101 37/102/102
f 37/103/103 38/104/104 39/105/105
f 37/106/106 39/107/107 40/108/108
f 40/109/109 39/110/110 41/111/111
f 39/112/112 42/113/113 41/114/114
f 41/115/115 42/116/116 43/117/117
f 41/118/118 43/119/119 44/120/120
f 44/121/121 43/122/122 45/123/123
f 43/124/124 46/125/125 45/126/126
f 45/127/127 46/128/128 47/129/129
f 45/130/130 47/131/131 48/132/132
f 48/133/133 47/134/134 49/135/135
f 47/136/136 50/137/137 49/138/138
f 49/139/139 50/140/140 51/141/141
f 49/142/142 51/143/143 52/144/144
f 52/145/145 51/146/146 53/147/147
f 51/148/148 54/149/149 53/150/150
f 53/151/151 54/152/152 55/153/153
f 53/154/154 55/155/155 56/156/156
f 56/157/157 55/158/158 57/159/159
f 55/160/160 58/161/161 57/162/162
f 57/163/163 58/164/164 59/165/165
f 57/166/166 59/167/167 60/168/168
f 60/169/169 59/170/170 61/171/171
f 59/172/172 62/173/173 61/174/174
f 61/175/175 62/176/176 63/177/177
f 61/178/178 63/179/179 64/180/180
f 64/181/181 63/182/182 65/183/183
f 63/184/184 66/185/185 65/186/186
f 65/187/187 66/188/188 36/189/189
f 65/190/190 36/191/191 35/192/192

# object end 'Converted object 0'
