# Blender 4.0.1
# www.blender.org
o SynthDrum
v 10.395722 11.058790 -1.657072
v 10.973319 11.058790 -1.307919
v 10.973319 11.058790 -0.958767
v 9.287017 11.058790 -0.342437
v 5.197360 2.054960 -1.657070
v 5.486158 1.554747 -1.307917
v 5.486158 1.554747 -0.958764
v 4.643006 3.015128 -0.342433
v -5.199368 2.054960 -1.657070
v -5.488166 1.554747 -1.307917
v -5.488166 1.554747 -0.958764
v -4.645015 3.015128 -0.342433
v -10.397732 11.058790 -1.657072
v -10.975327 11.058790 -1.307919
v -10.975327 11.058790 -0.958767
v -9.289026 11.058790 -0.342437
v -5.199368 20.062620 -1.657074
v -5.488166 20.562834 -1.307922
v -5.488166 20.562834 -0.958769
v -4.645015 19.102453 -0.342439
v 5.197360 20.062620 -1.657074
v 5.486158 20.562834 -1.307922
v 5.486158 20.562834 -0.958769
v 4.643006 19.102453 -0.342439
v -0.001004 11.058790 -1.657072
v 9.287017 11.058790 0.073510
v 4.643006 3.015128 0.073512
v -4.645015 3.015128 0.073512
v -9.289026 11.058790 0.073510
v -4.645015 19.102453 0.073506
v 4.643006 19.102453 0.073506
v -0.001004 11.058790 0.073510
vn -0.0000 -0.0000 -1.0000
vn 0.5173 -0.0000 -0.8558
vn 0.2587 -0.4480 -0.8558
vn 1.0000 -0.0000 -0.0000
vn 0.5000 -0.8660 -0.0000
vn 0.3513 0.1138 0.9293
vn 0.3474 0.1139 0.9308
vn 0.0768 -0.3607 0.9295
vn 0.3679 0.1126 0.9230
vn 0.0719 -0.3524 0.9331
vn 0.0745 -0.3569 0.9312
vn 0.2586 -0.4480 -0.8558
vn -0.2587 -0.4480 -0.8558
vn -0.2586 -0.4480 -0.8558
vn -0.5000 -0.8660 -0.0000
vn 0.2718 -0.2430 0.9312
vn 0.2693 -0.2385 0.9331
vn -0.2815 -0.2623 0.9230
vn 0.2739 -0.2469 0.9295
vn -0.2723 -0.2439 0.9308
vn -0.2742 -0.2473 0.9293
vn -0.5173 -0.0000 -0.8558
vn -1.0000 -0.0000 -0.0000
vn -0.0771 -0.3611 0.9293
vn -0.0751 -0.3578 0.9308
vn -0.3508 0.1138 0.9295
vn -0.0864 -0.3749 0.9230
vn -0.3411 0.1140 0.9331
vn -0.3463 0.1139 0.9312
vn -0.2587 0.4480 -0.8558
vn -0.5000 0.8660 -0.0000
vn -0.3463 -0.1139 0.9312
vn -0.3411 -0.1140 0.9331
vn -0.0864 0.3749 0.9230
vn -0.3508 -0.1138 0.9295
vn -0.0751 0.3578 0.9308
vn -0.0771 0.3611 0.9293
vn -0.2586 0.4480 -0.8558
vn 0.2586 0.4480 -0.8558
vn 0.5000 0.8660 -0.0000
vn -0.2742 0.2474 0.9293
vn -0.2723 0.2439 0.9308
vn 0.2739 0.2469 0.9295
vn -0.2815 0.2623 0.9230
vn 0.2693 0.2385 0.9331
vn 0.2718 0.2430 0.9312
vn 0.2587 0.4480 -0.8558
vn 0.0745 0.3569 0.9312
vn 0.0719 0.3524 0.9331
vn 0.3679 -0.1126 0.9230
vn 0.0768 0.3607 0.9295
vn 0.3474 -0.1139 0.9308
vn 0.3513 -0.1138 0.9293
vn -0.0000 -0.0000 1.0000
vn 1.0000 -0.0000 0.0005
vn 0.5000 -0.8660 -0.0009
vn 1.0000 -0.0000 0.0009
vn 0.5000 -0.8660 -0.0005
vn -0.5000 -0.8660 0.0009
vn -0.5000 -0.8660 0.0005
vn -1.0000 -0.0000 -0.0009
vn -1.0000 -0.0000 -0.0005
vn -0.5000 0.8660 0.0009
vn -0.5000 0.8660 0.0005
vn 0.5000 0.8660 -0.0009
vn 0.5000 0.8660 -0.0005
vn 1.0000 -0.0000 -0.0002
vt 0.986461 0.088870
vt 0.942054 0.011953
vt 0.897646 0.088870
vt 0.991396 0.088870
vt 0.944521 0.007680
vt 0.983495 0.088870
vt 0.940570 0.014522
vt 0.853238 0.011953
vt 0.850771 0.007680
vt 0.854721 0.014522
vt 0.808830 0.088870
vt 0.803896 0.088870
vt 0.811796 0.088870
vt 0.853238 0.165787
vt 0.850771 0.170060
vt 0.854721 0.163218
vt 0.942054 0.165787
vt 0.944521 0.170060
vt 0.940570 0.163218
vt 0.916588 0.581969
vt 0.481617 0.581969
vt 0.699103 0.205273
vt 0.960085 0.581969
vt 0.720851 0.167603
vt 0.264131 0.205273
vt 0.242382 0.167603
vt 0.046645 0.581969
vt 0.003147 0.581969
vt 0.264131 0.958666
vt 0.242382 0.996336
vt 0.699103 0.958666
vt 0.720851 0.996336
s 0
f 1/1/1 5/2/1 25/3/1
f 1/1/2 2/4/2 6/5/3
f 1/1/2 6/5/3 5/2/3
f 2/4/4 3/4/4 6/5/5
f 3/4/4 7/5/5 6/5/5
f 3/4/6 4/6/7 8/7/8
f 3/4/9 8/7/10 7/5/11
f 5/2/1 9/8/1 25/3/1
f 5/2/12 6/5/12 9/8/13
f 6/5/12 10/9/14 9/8/14
f 6/5/5 7/5/5 11/9/15
f 6/5/5 11/9/15 10/9/15
f 7/5/16 8/7/17 11/9/18
f 8/7/19 12/10/20 11/9/21
f 9/8/1 13/11/1 25/3/1
f 9/8/13 10/9/13 14/12/22
f 9/8/13 14/12/22 13/11/22
f 10/9/15 11/9/15 14/12/23
f 11/9/15 15/12/23 14/12/23
f 11/9/24 12/10/25 16/13/26
f 11/9/27 16/13/28 15/12/29
f 13/11/1 17/14/1 25/3/1
f 13/11/22 14/12/22 17/14/30
f 14/12/22 18/15/30 17/14/30
f 14/12/23 15/12/23 19/15/31
f 14/12/23 19/15/31 18/15/31
f 15/12/32 16/13/33 19/15/34
f 16/13/35 20/16/36 19/15/37
f 17/14/1 21/17/1 25/3/1
f 17/14/38 18/15/38 22/18/39
f 17/14/30 22/18/39 21/17/39
f 18/15/31 19/15/31 22/18/40
f 19/15/31 23/18/40 22/18/40
f 19/15/41 20/16/42 24/19/43
f 19/15/44 24/19/45 23/18/46
f 21/17/1 1/1/1 25/3/1
f 21/17/47 22/18/47 1/1/2
f 22/18/47 2/4/2 1/1/2
f 22/18/40 23/18/40 3/4/4
f 22/18/40 3/4/4 2/4/4
f 23/18/48 24/19/49 3/4/50
f 24/19/51 4/6/52 3/4/53
f 26/20/54 32/21/54 27/22/54
f 4/23/4 26/20/55 8/24/56
f 26/20/57 27/22/5 8/24/58
f 27/22/54 32/21/54 28/25/54
f 8/24/58 27/22/5 28/25/59
f 8/24/56 28/25/60 12/26/15
f 28/25/54 32/21/54 29/27/54
f 12/26/15 28/25/60 16/28/61
f 28/25/59 29/27/23 16/28/62
f 29/27/54 32/21/54 30/29/54
f 16/28/62 29/27/23 30/29/63
f 16/28/61 30/29/64 20/30/31
f 30/29/54 32/21/54 31/31/54
f 20/30/31 30/29/64 24/32/65
f 30/29/63 31/31/40 24/32/66
f 31/31/54 32/21/54 26/20/54
f 24/32/66 31/31/40 26/20/57
f 24/32/65 26/20/55 4/23/67
