# Blender v3.1.2 OBJ File: 'surdo.blend'
# www.blender.org
mtllib Hand_Cuica.mtl
o hand_right
v -0.430771 -11.251575 0.073231
v -1.005986 -11.263345 -0.226798
v 0.143737 -10.226358 -0.768542
v -0.533541 -11.270978 0.825772
v -0.882457 -10.495518 1.172365
v -1.183011 -11.263344 1.343504
v -1.433531 -10.551353 1.755596
v -1.785805 -11.252044 0.847384
v -2.085231 -10.466493 1.469313
v -1.617958 -11.236715 -0.050459
v -0.849385 -10.372439 -0.848285
v -0.296984 -10.321029 -0.801799
v 0.695148 -7.602583 1.462172
v 0.571230 -7.432005 1.141119
v 0.514589 -6.958519 1.398018
v 0.855469 -6.193520 1.506280
v 0.919503 -6.703301 1.246458
v 0.764537 -6.561605 1.393406
v 0.840470 -6.452104 0.864716
v 1.023433 -6.921759 0.621214
v 1.091408 -6.837063 0.124485
v -1.092519 -8.931031 1.919527
v -1.198750 -8.430858 1.544082
v -0.828959 -7.944000 2.030853
v -1.557692 -8.813805 2.128645
v -1.631744 -8.409398 1.753034
v -1.237402 -7.673877 2.222062
v -1.399105 -7.634434 1.869779
v -0.985608 -7.846543 1.680192
v -1.603945 -7.797167 1.049666
v -0.867598 -7.211723 1.750934
v -1.295349 -6.954104 1.922816
v -1.412516 -6.794006 1.419146
v -0.994203 -7.059708 1.277111
v -2.150210 -7.759844 0.853925
v -1.215805 -6.802980 1.046555
v -1.538350 -6.391638 0.949640
v -1.391457 -6.402835 0.393229
v -1.326615 -7.779309 0.256494
v -1.051635 -6.788457 0.522522
v -1.624026 -7.611296 0.150272
v -0.866245 -7.037564 0.336738
v -1.267993 -6.716817 0.219998
v -1.684348 -8.062126 -0.447191
v -1.120404 -6.702484 -0.268116
v -1.236525 -8.191187 -0.296342
v -0.736736 -7.012167 -0.151496
v -0.327560 -7.606847 1.858064
v -0.501573 -7.146683 2.093568
v -0.638743 -7.069009 1.732962
v -0.438587 -7.433880 1.541283
v -0.140789 -6.684351 1.762437
v -0.477734 -6.321559 1.943203
v -0.591453 -6.166613 1.436145
v -0.252575 -6.529761 1.290658
v -0.472254 -6.361093 1.258998
v -0.711785 -5.884275 1.219453
v -0.546747 -5.862705 0.669003
v -0.327344 -6.288190 0.749126
v -0.219893 -6.694484 0.492498
v -0.333317 -6.177760 0.528748
v -0.233345 -6.127548 0.033985
v -0.135730 -6.606107 0.003470
v 0.675314 -6.004906 1.030066
v 0.739962 -6.483613 0.829850
v 0.701554 -6.000913 1.470553
v 0.983288 -6.387161 0.697854
v 1.055612 -6.312992 0.199130
v 0.455684 -7.332112 0.212906
v 0.747686 -7.588550 0.522081
v 0.219664 -8.345905 -0.060851
v -0.291565 -9.528467 -1.341680
v -0.378346 -9.003130 -0.505041
v -0.099030 -8.087965 -0.424695
v 0.382654 -8.290315 -0.841778
v 0.227013 -9.488350 -1.292221
v 0.681468 -8.541995 -0.517264
v 1.218917 -7.551261 0.235500
v 0.122261 -9.068892 -0.400214
v -1.929399 -8.829008 0.604209
v -1.582967 -8.506528 0.902021
v -1.224594 -10.068475 -0.773482
v -1.456254 -9.527884 -0.675810
v -1.273720 -10.499008 -0.325941
v -0.707362 -9.607747 0.689294
v 0.644183 -7.139599 1.716242
v 0.798115 -5.939507 0.902771
v 0.926913 -7.294824 -0.073674
v -0.212257 -14.319912 -0.092850
v -0.384612 -11.785213 0.039007
v -0.504113 -11.805056 0.837355
v -1.191010 -11.796982 1.384924
v -1.831815 -11.785682 0.860392
v -1.653520 -11.770353 -0.093394
v -0.212280 -17.015690 -0.078955
v -0.395238 -14.341424 0.879313
v -1.224156 -14.331681 1.540093
v -2.009190 -14.320381 0.907753
v -1.791247 -14.305053 -0.258304
v -0.437708 -17.015688 0.857037
v -1.191223 -17.015688 1.562038
v -1.986990 -17.015688 0.884256
v -1.778004 -17.015688 -0.233843
v -1.039590 -17.015688 0.647211
v -0.388387 -11.267161 0.428335
v -0.350594 -11.801020 0.417014
v -0.209980 -14.336554 0.372063
v -0.259620 -17.015688 0.369423
v -0.858276 -11.267161 1.084637
v -0.205564 -10.756619 0.012062
v -0.847561 -11.801019 1.111141
v -0.809698 -14.336553 1.209702
v -0.836124 -17.015688 1.174639
v -0.315811 -11.265253 0.229615
v -0.273833 -11.799001 0.206843
v -0.117349 -14.334118 0.118440
v -0.170575 -17.015690 0.125616
v -1.512801 -11.263345 1.096993
v -1.539806 -11.796982 1.124208
v -1.645066 -14.331681 1.225472
v -1.639159 -17.015688 1.189798
v -1.751933 -11.263345 0.365113
v -1.792720 -11.796983 0.350150
v -1.950270 -14.331681 0.291376
v -1.932548 -17.015688 0.291858
v -0.952255 -11.263345 -0.044680
v -0.946954 -11.796983 -0.083258
v -0.929641 -14.331682 -0.231643
v -0.951425 -17.015688 -0.210916
vt 0.610958 0.962396
vt 0.634152 0.962396
vt 0.719534 0.905769
vt 0.440041 0.916248
vt 0.481281 0.962396
vt 0.598842 0.931246
vt 0.716403 0.900095
vt 0.426832 0.962396
vt 0.454057 0.962396
vt 0.335413 0.920643
vt 0.359565 0.636344
vt 0.359565 0.636344
vt 0.309175 0.636344
vt 0.379009 0.570769
vt 0.379009 0.570769
vt 0.446758 0.570769
vt 0.446758 0.570769
vt 0.556803 0.539572
vt 0.484071 0.539572
vt 0.484071 0.539572
vt 0.652885 0.559420
vt 0.586177 0.559420
vt 0.586177 0.559420
vt 0.652885 0.559420
vt 0.367597 0.234518
vt 0.311917 0.207757
vt 0.309472 0.275355
vt 0.367597 0.234518
vt 0.360100 0.275355
vt 0.360100 0.275355
vt 0.379300 0.703741
vt 0.367596 0.791519
vt 0.447850 0.703741
vt 0.463935 0.273089
vt 0.379301 0.322191
vt 0.463935 0.273089
vt 0.448333 0.322191
vt 0.463933 0.752948
vt 0.463933 0.752948
vt 0.482910 0.672544
vt 0.482910 0.672544
vt 0.557044 0.353387
vt 0.576616 0.279879
vt 0.482912 0.353387
vt 0.556562 0.672544
vt 0.586468 0.692392
vt 0.576615 0.746157
vt 0.586468 0.692392
vt 0.653418 0.333539
vt 0.647841 0.251664
vt 0.586470 0.333539
vt 0.309471 0.700425
vt 0.309471 0.750576
vt 0.309471 0.700425
vt 0.360100 0.325506
vt 0.360100 0.325506
vt 0.379300 0.703741
vt 0.379300 0.645362
vt 0.379300 0.645362
vt 0.448333 0.322191
vt 0.448333 0.380569
vt 0.482910 0.614166
vt 0.482910 0.614166
vt 0.482912 0.411765
vt 0.557044 0.411765
vt 0.557044 0.353387
vt 0.557044 0.411765
vt 0.556562 0.614166
vt 0.586468 0.634014
vt 0.586470 0.391917
vt 0.653418 0.391917
vt 0.653418 0.333539
vt 0.653418 0.391917
vt 0.359617 0.700425
vt 0.309175 0.636344
vt 0.309472 0.325506
vt 0.309472 0.389587
vt 0.360100 0.389587
vt 0.360100 0.389587
vt 0.447850 0.645362
vt 0.448333 0.455162
vt 0.379301 0.455162
vt 0.448333 0.380569
vt 0.448333 0.455162
vt 0.482912 0.486359
vt 0.557044 0.486359
vt 0.556803 0.539572
vt 0.586468 0.634014
vt 0.653418 0.466511
vt 0.653418 0.466511
vt 0.827077 0.706180
vt 0.759890 0.706180
vt 0.759890 0.706180
vt 0.827077 0.706180
vt 0.816540 0.221151
vt 0.788065 0.166556
vt 0.741301 0.238111
vt 0.741300 0.787873
vt 0.827658 0.319935
vt 0.760230 0.319935
vt 0.827658 0.319935
vt 0.816540 0.221151
vt 0.741300 0.787873
vt 0.816056 0.804833
vt 0.688390 0.205070
vt 0.688390 0.205070
vt 0.717475 0.117075
vt 0.719534 0.120163
vt 0.506590 0.209765
vt 0.716403 0.125837
vt 0.703040 0.135330
vt 0.396264 0.111087
vt 0.686607 0.167336
vt 0.643141 0.109475
vt 0.335413 0.105289
vt 0.311916 0.818332
vt 0.311916 0.818332
vt 0.485743 0.796801
vt 0.519247 0.861607
vt 0.647357 0.774321
vt 0.578539 0.962396
vt 0.481412 0.063687
vt 0.454122 0.063687
vt 0.426832 0.063687
vt 0.610632 0.063687
vt 0.546022 0.063687
vt 0.634152 0.063687
vt 0.310152 0.606828
vt 0.562016 0.509767
vt 0.359617 0.750576
vt 0.309471 0.750576
vt 0.367596 0.791519
vt 0.576616 0.279879
vt 0.576615 0.746157
vt 0.647841 0.251664
vt 0.652934 0.692392
vt 0.379301 0.380569
vt 0.652934 0.634014
vt 0.557044 0.486359
vt 0.586470 0.466511
vt 0.688390 0.820966
vt 0.688390 0.820966
vt 0.788065 0.166556
vt 0.787581 0.859428
vt 0.480870 0.928167
vt 0.497003 0.918722
vt 0.497003 0.918722
vt 0.480870 0.928167
vt 0.481412 0.063687
vt 0.454122 0.063687
vt 0.546120 0.962396
vt 0.481281 0.962396
vt 0.546120 0.962396
vt 0.464738 0.937612
vt 0.476902 0.925162
vt 0.426832 0.962396
vt 0.454057 0.962396
vt 0.610632 0.063687
vt 0.546022 0.063687
vt 0.481412 0.063687
vt 0.454122 0.063687
vt 0.481281 0.962396
vt 0.546120 0.962396
vt 0.610632 0.063687
vt 0.546022 0.063687
vt 0.497003 0.918722
vt 0.480870 0.928167
vt 0.426832 0.962396
vt 0.454057 0.962396
vt 0.426832 0.962396
vt 0.454057 0.962396
vt 0.481412 0.063687
vt 0.454122 0.063687
vt 0.481281 0.962396
vt 0.546120 0.962396
vt 0.610632 0.063687
vt 0.546022 0.063687
vt 0.497003 0.918722
vt 0.480870 0.928167
vt 0.476028 0.960911
vt 0.487677 0.944163
vt 0.497617 0.961041
vt 0.486822 0.960976
vt 0.500817 0.924043
vt 0.504632 0.929365
vt 0.512261 0.940008
vt 0.504939 0.950524
vt 0.464738 0.937612
vt 0.470383 0.949261
vt 0.578539 0.962396
vt 0.578539 0.962396
vt 0.578539 0.962396
vt 0.610958 0.962396
vt 0.610958 0.962396
vt 0.610958 0.962396
vt 0.426832 0.063687
vt 0.426832 0.063687
vt 0.426832 0.063687
vt 0.464738 0.937612
vt 0.464738 0.937612
vn 0.6879 -0.3393 -0.6417
vn 0.0008 -0.8573 -0.5148
vn 0.1768 -0.6096 -0.7727
vn 0.7641 0.0874 0.6392
vn 0.8160 0.0530 0.5756
vn 0.9547 -0.1055 0.2783
vn 0.8804 -0.3845 -0.2776
vn 0.1153 -0.1683 0.9790
vn 0.6233 -0.0090 0.7820
vn 0.1567 -0.3636 0.9183
vn 0.3508 -0.2033 -0.9141
vn 0.3323 0.8648 -0.3766
vn 0.7206 0.3299 0.6098
vn 0.7031 0.4067 0.5833
vn 0.7140 -0.6993 0.0344
vn 0.3252 -0.2459 -0.9131
vn 0.2856 0.8280 -0.4825
vn 0.6380 0.6295 -0.4435
vn 0.4404 0.4986 0.7466
vn 0.4759 -0.6966 0.5369
vn 0.6609 0.6244 -0.4163
vn 0.4939 0.4509 0.7435
vn 0.4718 -0.7016 0.5340
vn 0.6254 -0.5224 -0.5797
vn -0.9184 0.0736 0.3886
vn -0.4478 -0.0281 0.8937
vn -0.3463 0.3180 0.8826
vn 0.8331 -0.1444 -0.5339
vn -0.7949 0.5457 -0.2653
vn 0.2027 -0.1072 -0.9733
vn 0.6941 -0.5096 0.5085
vn 0.3576 -0.1008 -0.9284
vn -0.9841 0.1775 -0.0091
vn -0.4197 0.2601 0.8696
vn 0.9593 0.0186 -0.2818
vn -0.6396 0.6844 -0.3501
vn 0.2709 -0.3640 0.8912
vn -0.7537 0.4978 0.4291
vn -0.4051 0.4858 -0.7745
vn -0.8837 0.3379 -0.3240
vn 0.7676 -0.3428 -0.5416
vn -0.7201 0.5192 0.4603
vn 0.2643 -0.4475 0.8543
vn -0.3571 0.5229 -0.7740
vn -0.5987 0.2278 -0.7679
vn 0.0526 0.5363 0.8424
vn 0.3722 -0.8529 0.3662
vn -0.2094 -0.2713 -0.9395
vn -0.4043 0.8469 -0.3454
vn 0.4614 -0.6784 0.5717
vn -0.0582 0.4984 0.8650
vn -0.3792 0.8537 -0.3569
vn -0.0054 -0.6233 0.7820
vn -0.3271 0.7103 0.6233
vn -0.0104 0.7541 -0.6567
vn 0.2724 -0.6016 -0.7509
vn -0.0381 -0.6981 0.7150
vn -0.2817 0.6747 0.6822
vn 0.2298 -0.4972 -0.8367
vn 0.6640 -0.4199 -0.6187
vn -0.0527 0.8205 -0.5692
vn 0.7130 -0.6996 0.0464
vn -0.0580 -0.4287 -0.9016
vn 0.6465 -0.5134 -0.5643
vn 0.3661 0.8456 -0.3885
vn -0.5577 0.7773 0.2910
vn 0.0466 0.0619 0.9970
vn 0.9341 0.1347 0.3307
vn 0.2150 0.4643 -0.8592
vn -0.3008 0.0525 -0.9522
vn -0.8216 0.5654 -0.0731
vn 0.9336 -0.3584 -0.0008
vn -0.2291 -0.3424 0.9112
vn -0.5023 0.4567 -0.7343
vn 0.6315 -0.3832 0.6741
vn -0.2372 -0.4755 -0.8472
vn -0.9949 -0.0249 -0.0978
vn -0.6396 -0.1813 -0.7470
vn -0.8794 -0.2791 0.3857
vn -0.5749 -0.0130 -0.8181
vn -0.8510 -0.0844 -0.5184
vn 0.8526 -0.0803 0.5163
vn 0.9574 0.2885 -0.0100
vn 0.8592 0.2419 0.4508
vn 0.8273 0.4561 -0.3280
vn 0.9965 -0.0670 0.0504
vn -0.9490 -0.1620 0.2704
vn -0.6204 -0.2378 0.7473
vn -0.7218 -0.0180 -0.6918
vn -0.9819 -0.0277 -0.1873
vn 0.7581 -0.4323 0.4882
vn 0.9066 -0.2208 0.3597
vn 0.6939 -0.2140 -0.6876
vn 0.0790 -0.6437 -0.7612
vn 0.5752 0.0855 -0.8135
vn 0.1137 0.0689 -0.9911
vn -0.9259 0.0779 0.3696
vn -0.6318 0.0650 0.7724
vn 0.9393 0.0010 0.3431
vn 0.8106 0.0508 0.5834
vn 0.9379 0.0525 0.3430
vn 0.0157 0.0688 0.9975
vn 0.6230 0.0455 0.7809
vn -0.5847 0.0905 -0.8062
vn -0.9795 0.0750 -0.1870
vn -0.9287 0.0299 0.3697
vn -0.6352 0.0241 0.7720
vn 0.8122 0.0131 0.5833
vn 0.9392 0.0141 0.3432
vn -0.5883 0.0365 -0.8078
vn -0.9818 0.0294 -0.1875
vn 0.6276 0.0351 -0.7777
vn 0.1096 0.0263 -0.9936
vn 0.0228 0.0284 0.9993
vn 0.6385 0.0155 0.7694
vn 0.0375 -0.5663 0.8233
vn 0.4482 -0.7274 0.5196
vn -0.7278 -0.6221 0.2887
vn -0.4522 -0.7073 0.5433
vn 0.6112 -0.6576 0.4404
vn 0.6583 -0.7133 0.2404
vn -0.4726 -0.5962 -0.6490
vn -0.7125 -0.6884 -0.1361
vn 0.5323 -0.5897 -0.6074
vn 0.0763 -0.6936 -0.7163
vn -0.0000 -1.0000 -0.0000
vn 0.7488 -0.6627 0.0128
vn 0.9993 0.0247 -0.0288
vn 0.9924 0.0774 -0.0961
usemtl Default_OBJ.001
s 1
f 1/1/1 2/2/2 12/3/3
f 5/4/4 4/5/5 110/6/6 3/7/7
f 6/8/8 109/9/9 4/5/5 5/4/4
f 7/10/10 6/8/8 5/4/4
f 14/11/11 15/12/12 86/13/13
f 16/14/14 17/15/15 65/16/16
f 65/16/16 64/17/17 16/14/14
f 87/18/18 66/19/19 18/20/20
f 68/21/21 67/22/22 20/23/23
f 20/23/23 21/24/24 68/21/21
f 26/25/25 25/26/26 27/27/27
f 23/28/28 26/25/25 28/29/29
f 29/30/30 23/28/28 28/29/29
f 31/31/31 23/32/28 34/33/32
f 35/34/33 26/25/25 32/35/34
f 30/36/35 35/34/33 33/37/36
f 35/38/33 30/39/35 36/40/37
f 37/41/38 35/38/33 36/40/37
f 38/42/39 41/43/40 37/44/38
f 36/40/37 30/39/35 40/45/41
f 43/46/42 41/47/40 42/48/43
f 45/49/44 44/50/45 43/51/42
f 49/52/46 27/53/27 48/54/47
f 51/55/48 29/30/30 50/56/49
f 32/57/34 31/31/31 52/58/50
f 53/59/51 32/57/34 52/58/50
f 34/60/32 33/37/36 54/61/52
f 37/41/38 36/40/37 56/62/53
f 57/63/54 37/41/38 56/62/53
f 38/42/39 37/44/38 57/64/54
f 58/65/55 38/42/39 57/64/54
f 40/66/41 38/42/39 58/65/55
f 59/67/56 40/66/41 58/65/55
f 36/40/37 40/45/41 59/68/56
f 43/46/42 42/48/43 60/69/57
f 45/49/44 43/51/42 61/70/58
f 63/71/59 47/72/60 62/73/61
f 48/54/47 51/74/48 14/11/11
f 13/75/62 48/54/47 14/11/11
f 86/13/13 49/52/46 13/75/62
f 50/56/49 49/76/46 86/77/13
f 15/78/12 50/56/49 86/77/13
f 14/79/11 51/55/48 15/78/12
f 52/58/50 55/80/63 65/16/16
f 53/59/51 52/58/50 17/15/15
f 16/14/14 53/59/51 17/15/15
f 64/81/17 54/61/52 16/82/14
f 55/83/63 54/61/52 64/81/17
f 65/84/16 55/83/63 64/81/17
f 57/63/54 56/62/53 18/20/20
f 66/19/19 57/63/54 18/20/20
f 58/65/55 57/64/54 66/85/19
f 59/67/56 58/65/55 87/86/18
f 56/62/53 59/68/56 19/87/64
f 67/22/22 61/88/58 20/23/23
f 21/89/24 63/71/59 68/90/21
f 20/23/23 60/69/57 21/24/24
f 88/91/65 69/92/66 70/93/67
f 70/93/67 78/94/68 88/91/65
f 75/95/69 72/96/70 74/97/71
f 69/92/66 74/98/71 70/93/67
f 88/99/65 75/95/69 69/100/66
f 78/101/68 77/102/72 88/99/65
f 71/103/73 77/104/72 78/94/68
f 70/93/67 71/103/73 78/94/68
f 73/105/74 44/50/45 79/106/75
f 11/107/76 72/96/70 12/108/3
f 35/34/33 41/43/40 80/109/77
f 41/43/40 44/50/45 80/109/77
f 3/110/7 12/108/3 72/96/70
f 82/111/78 72/96/70 11/107/76
f 82/111/78 9/112/79 83/113/80
f 82/111/78 84/114/81 9/112/79
f 25/26/26 9/112/79 7/115/10
f 7/10/10 22/116/82 25/117/26
f 81/118/83 85/119/84 46/120/85
f 81/118/83 22/116/82 85/119/84
f 5/4/4 3/7/7 85/119/84
f 3/7/7 1/1/1 12/3/3
f 110/6/6 114/121/86 1/1/1 3/7/7
f 8/122/87 118/123/88 6/124/8 7/115/10
f 9/112/79 8/122/87 7/115/10
f 10/125/89 122/126/90 8/122/87 9/112/79
f 2/127/2 10/125/89 11/107/76
f 12/108/3 2/127/2 11/107/76
f 86/128/13 13/75/62 14/11/11
f 18/20/20 19/87/64 87/129/18
f 22/116/82 23/32/28 29/130/30
f 24/131/91 22/116/82 29/130/30
f 25/117/26 22/116/82 24/131/91
f 27/53/27 25/117/26 24/131/91
f 28/29/29 26/25/25 27/27/27
f 23/32/28 30/39/35 34/33/32
f 26/132/25 23/32/28 31/31/31
f 32/57/34 26/132/25 31/31/31
f 33/37/36 35/34/33 32/35/34
f 34/60/32 30/36/35 33/37/36
f 41/43/40 35/34/33 37/44/38
f 39/133/92 41/43/40 38/42/39
f 40/66/41 39/133/92 38/42/39
f 30/39/35 39/134/92 40/45/41
f 41/47/40 39/134/92 42/48/43
f 44/50/45 41/43/40 43/51/42
f 46/135/85 44/50/45 45/49/44
f 47/72/60 46/135/85 45/49/44
f 39/134/92 46/120/85 47/136/60
f 42/48/43 39/134/92 47/136/60
f 24/131/91 29/130/30 51/74/48
f 48/54/47 24/131/91 51/74/48
f 27/53/27 24/131/91 48/54/47
f 28/29/29 27/27/27 49/76/46
f 50/56/49 28/29/29 49/76/46
f 29/30/30 28/29/29 50/56/49
f 31/31/31 34/33/32 55/80/63
f 52/58/50 31/31/31 55/80/63
f 33/37/36 32/35/34 53/137/51
f 54/61/52 33/37/36 53/137/51
f 55/83/63 34/60/32 54/61/52
f 56/62/53 36/40/37 59/68/56
f 61/88/58 43/46/42 60/69/57
f 62/73/61 45/49/44 61/70/58
f 47/72/60 45/49/44 62/73/61
f 42/48/43 47/136/60 63/138/59
f 60/69/57 42/48/43 63/138/59
f 49/52/46 48/54/47 13/75/62
f 51/55/48 50/56/49 15/78/12
f 17/15/15 52/58/50 65/16/16
f 54/61/52 53/137/51 16/82/14
f 87/86/18 58/65/55 66/85/19
f 19/139/64 59/67/56 87/86/18
f 18/20/20 56/62/53 19/87/64
f 61/88/58 60/69/57 20/23/23
f 62/73/61 61/70/58 67/140/22
f 68/90/21 62/73/61 67/140/22
f 63/71/59 62/73/61 68/90/21
f 60/69/57 63/138/59 21/24/24
f 73/141/74 79/142/75 71/103/73
f 74/98/71 73/141/74 71/103/73
f 72/96/70 73/105/74 74/97/71
f 76/143/93 72/96/70 75/95/69
f 77/102/72 76/143/93 75/95/69
f 79/142/75 76/144/93 77/104/72
f 71/103/73 79/142/75 77/104/72
f 74/98/71 71/103/73 70/93/67
f 75/95/69 74/97/71 69/100/66
f 77/102/72 75/95/69 88/99/65
f 44/50/45 46/135/85 79/106/75
f 72/96/70 76/143/93 3/110/7
f 25/26/26 26/25/25 80/109/77
f 26/25/25 35/34/33 80/109/77
f 22/116/82 81/118/83 23/32/28
f 23/32/28 81/118/83 30/39/35
f 81/118/83 39/134/92 30/39/35
f 81/118/83 46/120/85 39/134/92
f 72/96/70 82/111/78 73/105/74
f 73/105/74 83/113/80 44/50/45
f 83/113/80 80/109/77 44/50/45
f 82/111/78 83/113/80 73/105/74
f 83/113/80 9/112/79 80/109/77
f 9/112/79 25/26/26 80/109/77
f 82/111/78 11/107/76 84/114/81
f 10/125/89 84/114/81 11/107/76
f 10/125/89 9/112/79 84/114/81
f 22/116/82 7/10/10 85/119/84
f 7/10/10 5/4/4 85/119/84
f 79/142/75 85/119/84 76/144/93
f 85/119/84 79/142/75 46/120/85
f 85/119/84 3/7/7 76/144/93
f 126/145/94 1/146/1 90/147/95 127/148/96
f 118/123/88 8/122/87 93/149/97 119/150/98
f 105/151/99 4/5/5 91/152/100 106/153/101
f 10/154/89 2/155/2 1/146/1 126/145/94
f 109/9/9 6/8/8 92/156/102 111/157/103
f 122/126/90 10/125/89 94/158/104 123/159/105
f 119/150/98 93/149/97 98/160/106 120/161/107
f 106/153/101 91/152/100 96/162/108 107/163/109
f 123/159/105 94/158/104 99/164/110 124/165/111
f 127/148/96 90/147/95 89/166/112 128/167/113
f 111/157/103 92/156/102 97/168/114 112/169/115
f 112/169/115 97/168/114 101/170/116 113/171/117
f 120/161/107 98/160/106 102/172/118 121/173/119
f 107/163/109 96/162/108 100/174/120 108/175/121
f 124/165/111 99/164/110 103/176/122 125/177/123
f 128/167/113 89/166/112 95/178/124 129/179/125
f 102/180/118 104/181/126 101/182/116 121/183/119
f 117/184/127 108/185/121 100/186/120 113/187/117
f 104/181/126 95/178/124 101/182/116
f 103/188/122 104/181/126 102/180/118 125/189/123
f 103/188/122 129/179/125 95/178/124 104/181/126
f 116/190/128 107/163/109 108/175/121 117/191/127
f 115/192/129 106/153/101 107/163/109 116/190/128
f 114/121/86 105/151/99 106/153/101 115/192/129
f 1/1/1 114/121/86 115/192/129 90/193/95
f 90/193/95 115/192/129 116/190/128 89/194/112
f 89/194/112 116/190/128 117/191/127 95/195/124
f 95/178/124 117/184/127 113/187/117 101/182/116
f 96/162/108 112/169/115 113/171/117 100/174/120
f 91/152/100 111/157/103 112/169/115 96/162/108
f 4/5/5 109/9/9 111/157/103 91/152/100
f 4/5/5 105/151/99 114/121/86 110/6/6
f 97/196/114 120/161/107 121/173/119 101/197/116
f 92/198/102 119/150/98 120/161/107 97/196/114
f 6/124/8 118/123/88 119/150/98 92/198/102
f 98/160/106 124/165/111 125/177/123 102/172/118
f 93/149/97 123/159/105 124/165/111 98/160/106
f 8/122/87 122/126/90 123/159/105 93/149/97
f 99/199/110 128/167/113 129/179/125 103/188/122
f 94/200/104 127/148/96 128/167/113 99/199/110
f 10/154/89 126/145/94 127/148/96 94/200/104
