# Blender 3.5.1
# www.blender.org
mtllib KalimbaProng.mtl
o Plane.001
v -0.082602 0.006195 0.000000
v 0.082602 0.006195 0.000000
v -0.082602 0.006195 2.354162
v 0.082602 0.006195 2.354162
v -0.061975 0.006195 0.000000
v 0.061975 0.006195 0.000000
v -0.061975 0.006195 2.371590
v 0.061975 0.006195 2.371590
v -0.082602 -0.006195 0.000000
v 0.082602 -0.006195 0.000000
v -0.082602 -0.006195 2.354162
v 0.082602 -0.006195 2.354162
v -0.061975 -0.006195 0.000000
v 0.061975 -0.006195 0.000000
v -0.061975 -0.006195 2.371590
v 0.061975 -0.006195 2.371590
vn -0.0000 1.0000 -0.0000
vn -0.0000 -1.0000 -0.0000
vn 0.6454 -0.0000 0.7639
vn -1.0000 -0.0000 -0.0000
vn 1.0000 -0.0000 -0.0000
vn -0.6454 -0.0000 0.7639
vn -0.0000 -0.0000 1.0000
vt 0.915110 0.455523
vt 0.834067 0.229655
vt 0.826292 0.250116
vt 0.915110 0.455523
vt 0.921549 0.437435
vt 0.877487 0.332782
vt 0.914002 0.458439
vt 0.916218 0.452607
vt 0.869711 0.353243
vt 0.913773 0.457896
vt 0.833097 0.232210
vt 0.827263 0.247562
vt 0.876837 0.336100
vt 0.920578 0.439990
vt 0.871003 0.351451
vt 0.914744 0.455341
vt 0.870032 0.354006
vt 0.915338 0.456066
vt 0.877808 0.333545
vt 0.915338 0.456066
vt 0.913452 0.457133
vt 0.914230 0.458982
vt 0.921777 0.437978
vt 0.921227 0.436672
vt 0.914002 0.458439
vt 0.916446 0.453151
vt 0.871003 0.351452
vt 0.876837 0.336100
vt 0.914744 0.455341
vt 0.920806 0.440533
vt 0.920578 0.439990
vt 0.914972 0.455884
s 0
usemtl Material.002
f 5/11/1 3/6/1 7/13/1
f 6/12/1 4/9/1 2/3/1
f 5/11/1 8/15/1 6/12/1
f 13/27/2 11/21/2 9/17/2
f 12/24/2 14/28/2 10/19/2
f 16/31/2 13/27/2 14/28/2
f 16/32/3 4/10/3 8/16/3
f 9/18/4 3/7/4 1/1/4
f 12/26/5 2/4/5 4/8/5
f 11/23/6 7/14/6 3/5/6
f 15/30/7 8/16/7 7/14/7
f 5/11/1 1/2/1 3/6/1
f 6/12/1 8/15/1 4/9/1
f 5/11/1 7/13/1 8/15/1
f 13/27/2 15/29/2 11/21/2
f 12/24/2 16/31/2 14/28/2
f 16/31/2 15/29/2 13/27/2
f 16/32/3 12/25/3 4/10/3
f 9/18/4 11/22/4 3/7/4
f 12/26/5 10/20/5 2/4/5
f 11/23/6 15/30/6 7/14/6
f 15/30/7 16/32/7 8/16/7
