# created by: Biturn ver 0.88
# http://mirex.mypage.sk
# ------------------------------------
# 13 vertices, 12 polygons, 36 points, 1 materials




#-- object 'Converted object 0' --
# 13 vertices, 12 polygons, 36 points

g Converted object 0

# vertexs: 13
v 0.876344 -0.001789 -0.000005
v 0.758936 -0.001789 0.438167
v 0.438172 -0.001789 0.758932
v 0.000000 -0.001789 0.876339
v -0.438172 -0.001789 0.758932
v -0.758936 -0.001789 0.438167
v -0.876344 -0.001789 -0.000005
v -0.758936 -0.001789 -0.438177
v -0.438172 -0.001789 -0.758941
v -0.000000 -0.001789 -0.876349
v 0.438172 -0.001789 -0.758941
v 0.758936 -0.001789 -0.438177
v 0.000000 -0.001789 -0.000005

# normals: 36
vn 0.000000 1.000000 0.000000
vn 0.000000 1.000000 0.000000
vn 0.000000 1.000000 0.000000
vn 0.000000 1.000000 0.000000
vn 0.000000 1.000000 0.000000
vn 0.000000 1.000000 0.000000
vn 0.000000 1.000000 0.000000
vn 0.000000 1.000000 0.000000
vn 0.000000 1.000000 0.000000
vn 0.000000 1.000000 0.000000
vn 0.000000 1.000000 0.000000
vn 0.000000 1.000000 0.000000
vn 0.000000 1.000000 0.000000
vn 0.000000 1.000000 0.000000
vn 0.000000 1.000000 0.000000
vn 0.000000 1.000000 0.000000
vn 0.000000 1.000000 0.000000
vn 0.000000 1.000000 0.000000
vn 0.000000 1.000000 0.000000
vn 0.000000 1.000000 0.000000
vn 0.000000 1.000000 0.000000
vn 0.000000 1.000000 0.000000
vn 0.000000 1.000000 0.000000
vn 0.000000 1.000000 0.000000
vn 0.000000 1.000000 0.000000
vn 0.000000 1.000000 0.000000
vn 0.000000 1.000000 0.000000
vn 0.000000 1.000000 0.000000
vn 0.000000 1.000000 0.000000
vn 0.000000 1.000000 0.000000
vn 0.000000 1.000000 0.000000
vn 0.000000 1.000000 0.000000
vn 0.000000 1.000000 0.000000
vn 0.000000 1.000000 0.000000
vn 0.000000 1.000000 0.000000
vn 0.000000 1.000000 0.000000

# texture coords: 36
vt 0.970959 0.180820
vt 0.877509 0.180820
vt 0.958439 0.135955
vt 0.958439 0.135955
vt 0.877509 0.180820
vt 0.924234 0.103112
vt 0.924234 0.103112
vt 0.877509 0.180820
vt 0.877509 0.091091
vt 0.877509 0.091091
vt 0.877509 0.180820
vt 0.830785 0.103112
vt 0.830785 0.103112
vt 0.877509 0.180820
vt 0.796580 0.135955
vt 0.796580 0.135955
vt 0.877509 0.180820
vt 0.784060 0.180820
vt 0.784060 0.180820
vt 0.877509 0.180820
vt 0.796580 0.225685
vt 0.796580 0.225685
vt 0.877509 0.180820
vt 0.830785 0.258529
vt 0.830785 0.258529
vt 0.877509 0.180820
vt 0.877509 0.270550
vt 0.877509 0.270550
vt 0.877509 0.180820
vt 0.924234 0.258529
vt 0.924234 0.258529
vt 0.877509 0.180820
vt 0.958439 0.225685
vt 0.958439 0.225685
vt 0.877509 0.180820
vt 0.970959 0.180820

# polygons: 12
usemtl WhiteKey1
f 1/1/1 13/2/2 2/3/3
f 2/4/4 13/5/5 3/6/6
f 3/7/7 13/8/8 4/9/9
f 4/10/10 13/11/11 5/12/12
f 5/13/13 13/14/14 6/15/15
f 6/16/16 13/17/17 7/18/18
f 7/19/19 13/20/20 8/21/21
f 8/22/22 13/23/23 9/24/24
f 9/25/25 13/26/26 10/27/27
f 10/28/28 13/29/29 11/30/30
f 11/31/31 13/32/32 12/33/33
f 12/34/34 13/35/35 1/36/36

# object end 'Converted object 0'
