# created by: Biturn ver 0.88
# http://mirex.mypage.sk
# ------------------------------------
# 49 vertices, 84 polygons, 252 points, 1 materials


mtllib MusicBoxPoint.mtl

#-- object 'Converted object 0' --
# 49 vertices, 84 polygons, 252 points

g Converted object 0

# vertexs: 49
v 0.000000 3.349152 0.000000
v 0.484778 -0.001408 0.000000
v 0.419830 -0.001408 0.030267
v 0.242389 -0.001408 0.052423
v 0.000000 -0.001408 0.060533
v -0.242389 -0.001408 0.052423
v -0.419830 -0.001408 0.030267
v -0.484778 -0.001408 0.000000
v -0.419830 -0.001408 -0.030267
v -0.242389 -0.001408 -0.052423
v -0.000000 -0.001408 -0.060533
v 0.242389 -0.001408 -0.052423
v 0.419830 -0.001408 -0.030267
v 0.486982 3.001325 0.000000
v 0.421739 3.001325 0.028884
v 0.243491 3.001325 0.050029
v 0.000000 3.001325 0.057768
v -0.243491 3.001325 0.050029
v -0.421739 3.001325 0.028884
v -0.486982 3.001325 0.000000
v -0.421739 3.001325 -0.028884
v -0.243491 3.001325 -0.050029
v -0.000000 3.001325 -0.057768
v 0.243491 3.001325 -0.050029
v 0.421739 3.001325 -0.028884
v 0.421739 3.175238 0.000000
v 0.365236 3.175238 0.025014
v 0.210869 3.175238 0.043326
v 0.000000 3.175238 0.050029
v -0.210869 3.175238 0.043326
v -0.365236 3.175238 0.025014
v -0.421739 3.175238 0.000000
v -0.365236 3.175238 -0.025014
v -0.210869 3.175238 -0.043326
v -0.000000 3.175238 -0.050029
v 0.210869 3.175238 -0.043326
v 0.365236 3.175238 -0.025014
v 0.243491 3.302552 0.000000
v 0.210869 3.302552 0.014442
v 0.121745 3.302552 0.025014
v 0.000000 3.302552 0.028884
v -0.121745 3.302552 0.025014
v -0.210869 3.302552 0.014442
v -0.243491 3.302552 0.000000
v -0.210869 3.302552 -0.014442
v -0.121745 3.302552 -0.025014
v -0.000000 3.302552 -0.028884
v 0.121745 3.302552 -0.025014
v 0.210869 3.302552 -0.014442

# normals: 252
vn 0.000000 1.000000 0.000000
vn 0.194200 0.601116 0.775207
vn 0.421026 0.907048 0.000000
vn 0.000000 1.000000 0.000000
vn 0.069868 0.330387 0.941256
vn 0.194200 0.601116 0.775207
vn 0.000000 1.000000 0.000000
vn 0.000000 0.352032 0.935988
vn 0.069868 0.330387 0.941256
vn 0.000000 1.000000 0.000000
vn -0.069868 0.330387 0.941256
vn 0.000000 0.352032 0.935988
vn 0.000000 1.000000 0.000000
vn -0.194200 0.601116 0.775207
vn -0.069868 0.330387 0.941256
vn 0.000000 1.000000 0.000000
vn -0.421026 0.907048 0.000000
vn -0.194200 0.601116 0.775207
vn 0.000000 1.000000 0.000000
vn -0.194200 0.601116 -0.775207
vn -0.421026 0.907048 0.000000
vn 0.000000 1.000000 0.000000
vn -0.069868 0.330387 -0.941256
vn -0.194200 0.601116 -0.775207
vn 0.000000 1.000000 0.000000
vn 0.000000 0.352032 -0.935988
vn -0.069868 0.330387 -0.941256
vn 0.000000 1.000000 0.000000
vn 0.069868 0.330387 -0.941256
vn 0.000000 0.352032 -0.935988
vn 0.000000 1.000000 0.000000
vn 0.194200 0.601116 -0.775207
vn 0.069868 0.330387 -0.941256
vn 0.000000 1.000000 0.000000
vn 0.421026 0.907048 0.000000
vn 0.194200 0.601116 -0.775207
vn 1.000000 -0.000734 0.000000
vn 0.983420 0.181343 0.000000
vn 0.270381 0.000248 0.962753
vn 0.983420 0.181343 0.000000
vn 0.263526 0.053430 0.963172
vn 0.270381 0.000248 0.962753
vn 0.270381 0.000248 0.962753
vn 0.263526 0.053430 0.963172
vn 0.075794 0.026562 0.996770
vn 0.270381 0.000248 0.962753
vn 0.075794 0.026562 0.996770
vn 0.078754 0.000766 0.996894
vn 0.078754 0.000766 0.996894
vn 0.075794 0.026562 0.996770
vn -0.000000 0.000853 1.000000
vn 0.075794 0.026562 0.996770
vn 0.000000 0.022695 0.999742
vn -0.000000 0.000853 1.000000
vn -0.000000 0.000853 1.000000
vn 0.000000 0.022695 0.999742
vn -0.075794 0.026562 0.996770
vn -0.000000 0.000853 1.000000
vn -0.075794 0.026562 0.996770
vn -0.078754 0.000766 0.996894
vn -0.078754 0.000766 0.996894
vn -0.075794 0.026562 0.996770
vn -0.270381 0.000248 0.962753
vn -0.075794 0.026562 0.996770
vn -0.263526 0.053430 0.963172
vn -0.270381 0.000248 0.962753
vn -0.270381 0.000248 0.962753
vn -0.263526 0.053430 0.963172
vn -0.983420 0.181343 0.000000
vn -0.270381 0.000248 0.962753
vn -0.983420 0.181343 0.000000
vn -1.000000 -0.000734 0.000000
vn -1.000000 -0.000734 0.000000
vn -0.983420 0.181343 0.000000
vn -0.270381 0.000248 -0.962753
vn -0.983420 0.181343 0.000000
vn -0.263526 0.053430 -0.963172
vn -0.270381 0.000248 -0.962753
vn -0.270381 0.000248 -0.962753
vn -0.263526 0.053430 -0.963172
vn -0.075794 0.026562 -0.996770
vn -0.270381 0.000248 -0.962753
vn -0.075794 0.026562 -0.996770
vn -0.078754 0.000766 -0.996894
vn -0.078754 0.000766 -0.996894
vn -0.075794 0.026562 -0.996770
vn 0.000000 0.000853 -1.000000
vn -0.075794 0.026562 -0.996770
vn 0.000000 0.022695 -0.999742
vn 0.000000 0.000853 -1.000000
vn 0.000000 0.000853 -1.000000
vn 0.000000 0.022695 -0.999742
vn 0.075794 0.026562 -0.996770
vn 0.000000 0.000853 -1.000000
vn 0.075794 0.026562 -0.996770
vn 0.078754 0.000766 -0.996894
vn 0.078754 0.000766 -0.996894
vn 0.075794 0.026562 -0.996770
vn 0.270381 0.000248 -0.962753
vn 0.075794 0.026562 -0.996770
vn 0.263526 0.053430 -0.963172
vn 0.270381 0.000248 -0.962753
vn 0.270381 0.000248 -0.962753
vn 0.263526 0.053430 -0.963172
vn 0.983420 0.181343 0.000000
vn 0.270381 0.000248 -0.962753
vn 0.983420 0.181343 0.000000
vn 1.000000 -0.000734 0.000000
vn 0.983420 0.181343 0.000000
vn 0.760104 0.649801 0.000000
vn 0.252503 0.236699 0.938198
vn 0.983420 0.181343 0.000000
vn 0.252503 0.236699 0.938198
vn 0.263526 0.053430 0.963172
vn 0.263526 0.053430 0.963172
vn 0.252503 0.236699 0.938198
vn 0.075794 0.026562 0.996770
vn 0.252503 0.236699 0.938198
vn 0.074163 0.122500 0.989694
vn 0.075794 0.026562 0.996770
vn 0.075794 0.026562 0.996770
vn 0.074163 0.122500 0.989694
vn 0.000000 0.104336 0.994542
vn 0.075794 0.026562 0.996770
vn 0.000000 0.104336 0.994542
vn 0.000000 0.022695 0.999742
vn 0.000000 0.022695 0.999742
vn 0.000000 0.104336 0.994542
vn -0.075794 0.026562 0.996770
vn 0.000000 0.104336 0.994542
vn -0.074163 0.122500 0.989694
vn -0.075794 0.026562 0.996770
vn -0.075794 0.026562 0.996770
vn -0.074163 0.122500 0.989694
vn -0.252503 0.236699 0.938198
vn -0.075794 0.026562 0.996770
vn -0.252503 0.236699 0.938198
vn -0.263526 0.053430 0.963172
vn -0.263526 0.053430 0.963172
vn -0.252503 0.236699 0.938198
vn -0.983420 0.181343 0.000000
vn -0.252503 0.236699 0.938198
vn -0.760104 0.649801 0.000000
vn -0.983420 0.181343 0.000000
vn -0.983420 0.181343 0.000000
vn -0.760104 0.649801 0.000000
vn -0.252503 0.236699 -0.938198
vn -0.983420 0.181343 0.000000
vn -0.252503 0.236699 -0.938198
vn -0.263526 0.053430 -0.963172
vn -0.263526 0.053430 -0.963172
vn -0.252503 0.236699 -0.938198
vn -0.075794 0.026562 -0.996770
vn -0.252503 0.236699 -0.938198
vn -0.074163 0.122500 -0.989694
vn -0.075794 0.026562 -0.996770
vn -0.075794 0.026562 -0.996770
vn -0.074163 0.122500 -0.989694
vn -0.000000 0.104336 -0.994542
vn -0.075794 0.026562 -0.996770
vn -0.000000 0.104336 -0.994542
vn 0.000000 0.022695 -0.999742
vn 0.000000 0.022695 -0.999742
vn -0.000000 0.104336 -0.994542
vn 0.075794 0.026562 -0.996770
vn -0.000000 0.104336 -0.994542
vn 0.074163 0.122500 -0.989694
vn 0.075794 0.026562 -0.996770
vn 0.075794 0.026562 -0.996770
vn 0.074163 0.122500 -0.989694
vn 0.252503 0.236699 -0.938198
vn 0.075794 0.026562 -0.996770
vn 0.252503 0.236699 -0.938198
vn 0.263526 0.053430 -0.963172
vn 0.263526 0.053430 -0.963172
vn 0.252503 0.236699 -0.938198
vn 0.983420 0.181343 0.000000
vn 0.252503 0.236699 -0.938198
vn 0.760104 0.649801 0.000000
vn 0.983420 0.181343 0.000000
vn 0.760104 0.649801 0.000000
vn 0.421026 0.907048 0.000000
vn 0.252503 0.236699 0.938198
vn 0.421026 0.907048 0.000000
vn 0.194200 0.601116 0.775207
vn 0.252503 0.236699 0.938198
vn 0.252503 0.236699 0.938198
vn 0.194200 0.601116 0.775207
vn 0.069868 0.330387 0.941256
vn 0.252503 0.236699 0.938198
vn 0.069868 0.330387 0.941256
vn 0.074163 0.122500 0.989694
vn 0.074163 0.122500 0.989694
vn 0.069868 0.330387 0.941256
vn 0.000000 0.104336 0.994542
vn 0.069868 0.330387 0.941256
vn 0.000000 0.352032 0.935988
vn 0.000000 0.104336 0.994542
vn 0.000000 0.104336 0.994542
vn 0.000000 0.352032 0.935988
vn -0.069868 0.330387 0.941256
vn 0.000000 0.104336 0.994542
vn -0.069868 0.330387 0.941256
vn -0.074163 0.122500 0.989694
vn -0.074163 0.122500 0.989694
vn -0.069868 0.330387 0.941256
vn -0.252503 0.236699 0.938198
vn -0.069868 0.330387 0.941256
vn -0.194200 0.601116 0.775207
vn -0.252503 0.236699 0.938198
vn -0.252503 0.236699 0.938198
vn -0.194200 0.601116 0.775207
vn -0.421026 0.907048 0.000000
vn -0.252503 0.236699 0.938198
vn -0.421026 0.907048 0.000000
vn -0.760104 0.649801 0.000000
vn -0.760104 0.649801 0.000000
vn -0.421026 0.907048 0.000000
vn -0.252503 0.236699 -0.938198
vn -0.421026 0.907048 0.000000
vn -0.194200 0.601116 -0.775207
vn -0.252503 0.236699 -0.938198
vn -0.252503 0.236699 -0.938198
vn -0.194200 0.601116 -0.775207
vn -0.069868 0.330387 -0.941256
vn -0.252503 0.236699 -0.938198
vn -0.069868 0.330387 -0.941256
vn -0.074163 0.122500 -0.989694
vn -0.074163 0.122500 -0.989694
vn -0.069868 0.330387 -0.941256
vn -0.000000 0.104336 -0.994542
vn -0.069868 0.330387 -0.941256
vn 0.000000 0.352032 -0.935988
vn -0.000000 0.104336 -0.994542
vn -0.000000 0.104336 -0.994542
vn 0.000000 0.352032 -0.935988
vn 0.069868 0.330387 -0.941256
vn -0.000000 0.104336 -0.994542
vn 0.069868 0.330387 -0.941256
vn 0.074163 0.122500 -0.989694
vn 0.074163 0.122500 -0.989694
vn 0.069868 0.330387 -0.941256
vn 0.252503 0.236699 -0.938198
vn 0.069868 0.330387 -0.941256
vn 0.194200 0.601116 -0.775207
vn 0.252503 0.236699 -0.938198
vn 0.252503 0.236699 -0.938198
vn 0.194200 0.601116 -0.775207
vn 0.421026 0.907048 0.000000
vn 0.252503 0.236699 -0.938198
vn 0.421026 0.907048 0.000000
vn 0.760104 0.649801 0.000000

# texture coords: 252
vt 0.000000 1.000000
vt 0.083333 0.833333
vt 0.000000 0.833333
vt 0.083333 1.000000
vt 0.166667 0.833333
vt 0.083333 0.833333
vt 0.166667 1.000000
vt 0.250000 0.833333
vt 0.166667 0.833333
vt 0.250000 1.000000
vt 0.333333 0.833333
vt 0.250000 0.833333
vt 0.333333 1.000000
vt 0.416667 0.833333
vt 0.333333 0.833333
vt 0.416667 1.000000
vt 0.500000 0.833333
vt 0.416667 0.833333
vt 0.500000 1.000000
vt 0.583333 0.833333
vt 0.500000 0.833333
vt 0.583333 1.000000
vt 0.666667 0.833333
vt 0.583333 0.833333
vt 0.666667 1.000000
vt 0.750000 0.833333
vt 0.666667 0.833333
vt 0.750000 1.000000
vt 0.833333 0.833333
vt 0.750000 0.833333
vt 0.833333 1.000000
vt 0.916667 0.833333
vt 0.833333 0.833333
vt 0.916667 1.000000
vt 1.000000 0.833333
vt 0.916667 0.833333
vt 0.000000 0.333333
vt 0.000000 0.500000
vt 0.083333 0.333333
vt 0.000000 0.500000
vt 0.083333 0.500000
vt 0.083333 0.333333
vt 0.083333 0.333333
vt 0.083333 0.500000
vt 0.166667 0.500000
vt 0.083333 0.333333
vt 0.166667 0.500000
vt 0.166667 0.333333
vt 0.166667 0.333333
vt 0.166667 0.500000
vt 0.250000 0.333333
vt 0.166667 0.500000
vt 0.250000 0.500000
vt 0.250000 0.333333
vt 0.250000 0.333333
vt 0.250000 0.500000
vt 0.333333 0.500000
vt 0.250000 0.333333
vt 0.333333 0.500000
vt 0.333333 0.333333
vt 0.333333 0.333333
vt 0.333333 0.500000
vt 0.416667 0.333333
vt 0.333333 0.500000
vt 0.416667 0.500000
vt 0.416667 0.333333
vt 0.416667 0.333333
vt 0.416667 0.500000
vt 0.500000 0.500000
vt 0.416667 0.333333
vt 0.500000 0.500000
vt 0.500000 0.333333
vt 0.500000 0.333333
vt 0.500000 0.500000
vt 0.583333 0.333333
vt 0.500000 0.500000
vt 0.583333 0.500000
vt 0.583333 0.333333
vt 0.583333 0.333333
vt 0.583333 0.500000
vt 0.666667 0.500000
vt 0.583333 0.333333
vt 0.666667 0.500000
vt 0.666667 0.333333
vt 0.666667 0.333333
vt 0.666667 0.500000
vt 0.750000 0.333333
vt 0.666667 0.500000
vt 0.750000 0.500000
vt 0.750000 0.333333
vt 0.750000 0.333333
vt 0.750000 0.500000
vt 0.833333 0.500000
vt 0.750000 0.333333
vt 0.833333 0.500000
vt 0.833333 0.333333
vt 0.833333 0.333333
vt 0.833333 0.500000
vt 0.916667 0.333333
vt 0.833333 0.500000
vt 0.916667 0.500000
vt 0.916667 0.333333
vt 0.916667 0.333333
vt 0.916667 0.500000
vt 1.000000 0.500000
vt 0.916667 0.333333
vt 1.000000 0.500000
vt 1.000000 0.333333
vt 0.000000 0.500000
vt 0.000000 0.666667
vt 0.083333 0.666667
vt 0.000000 0.500000
vt 0.083333 0.666667
vt 0.083333 0.500000
vt 0.083333 0.500000
vt 0.083333 0.666667
vt 0.166667 0.500000
vt 0.083333 0.666667
vt 0.166667 0.666667
vt 0.166667 0.500000
vt 0.166667 0.500000
vt 0.166667 0.666667
vt 0.250000 0.666667
vt 0.166667 0.500000
vt 0.250000 0.666667
vt 0.250000 0.500000
vt 0.250000 0.500000
vt 0.250000 0.666667
vt 0.333333 0.500000
vt 0.250000 0.666667
vt 0.333333 0.666667
vt 0.333333 0.500000
vt 0.333333 0.500000
vt 0.333333 0.666667
vt 0.416667 0.666667
vt 0.333333 0.500000
vt 0.416667 0.666667
vt 0.416667 0.500000
vt 0.416667 0.500000
vt 0.416667 0.666667
vt 0.500000 0.500000
vt 0.416667 0.666667
vt 0.500000 0.666667
vt 0.500000 0.500000
vt 0.500000 0.500000
vt 0.500000 0.666667
vt 0.583333 0.666667
vt 0.500000 0.500000
vt 0.583333 0.666667
vt 0.583333 0.500000
vt 0.583333 0.500000
vt 0.583333 0.666667
vt 0.666667 0.500000
vt 0.583333 0.666667
vt 0.666667 0.666667
vt 0.666667 0.500000
vt 0.666667 0.500000
vt 0.666667 0.666667
vt 0.750000 0.666667
vt 0.666667 0.500000
vt 0.750000 0.666667
vt 0.750000 0.500000
vt 0.750000 0.500000
vt 0.750000 0.666667
vt 0.833333 0.500000
vt 0.750000 0.666667
vt 0.833333 0.666667
vt 0.833333 0.500000
vt 0.833333 0.500000
vt 0.833333 0.666667
vt 0.916667 0.666667
vt 0.833333 0.500000
vt 0.916667 0.666667
vt 0.916667 0.500000
vt 0.916667 0.500000
vt 0.916667 0.666667
vt 1.000000 0.500000
vt 0.916667 0.666667
vt 1.000000 0.666667
vt 1.000000 0.500000
vt 0.000000 0.666667
vt 0.000000 0.833333
vt 0.083333 0.666667
vt 0.000000 0.833333
vt 0.083333 0.833333
vt 0.083333 0.666667
vt 0.083333 0.666667
vt 0.083333 0.833333
vt 0.166667 0.833333
vt 0.083333 0.666667
vt 0.166667 0.833333
vt 0.166667 0.666667
vt 0.166667 0.666667
vt 0.166667 0.833333
vt 0.250000 0.666667
vt 0.166667 0.833333
vt 0.250000 0.833333
vt 0.250000 0.666667
vt 0.250000 0.666667
vt 0.250000 0.833333
vt 0.333333 0.833333
vt 0.250000 0.666667
vt 0.333333 0.833333
vt 0.333333 0.666667
vt 0.333333 0.666667
vt 0.333333 0.833333
vt 0.416667 0.666667
vt 0.333333 0.833333
vt 0.416667 0.833333
vt 0.416667 0.666667
vt 0.416667 0.666667
vt 0.416667 0.833333
vt 0.500000 0.833333
vt 0.416667 0.666667
vt 0.500000 0.833333
vt 0.500000 0.666667
vt 0.500000 0.666667
vt 0.500000 0.833333
vt 0.583333 0.666667
vt 0.500000 0.833333
vt 0.583333 0.833333
vt 0.583333 0.666667
vt 0.583333 0.666667
vt 0.583333 0.833333
vt 0.666667 0.833333
vt 0.583333 0.666667
vt 0.666667 0.833333
vt 0.666667 0.666667
vt 0.666667 0.666667
vt 0.666667 0.833333
vt 0.750000 0.666667
vt 0.666667 0.833333
vt 0.750000 0.833333
vt 0.750000 0.666667
vt 0.750000 0.666667
vt 0.750000 0.833333
vt 0.833333 0.833333
vt 0.750000 0.666667
vt 0.833333 0.833333
vt 0.833333 0.666667
vt 0.833333 0.666667
vt 0.833333 0.833333
vt 0.916667 0.666667
vt 0.833333 0.833333
vt 0.916667 0.833333
vt 0.916667 0.666667
vt 0.916667 0.666667
vt 0.916667 0.833333
vt 1.000000 0.833333
vt 0.916667 0.666667
vt 1.000000 0.833333
vt 1.000000 0.666667

# polygons: 84

f 1/1/1 39/2/2 38/3/3
f 1/4/4 40/5/5 39/6/6
f 1/7/7 41/8/8 40/9/9
f 1/10/10 42/11/11 41/12/12
f 1/13/13 43/14/14 42/15/15
f 1/16/16 44/17/17 43/18/18
f 1/19/19 45/20/20 44/21/21
f 1/22/22 46/23/23 45/24/24
f 1/25/25 47/26/26 46/27/27
f 1/28/28 48/29/29 47/30/30
f 1/31/31 49/32/32 48/33/33
f 1/34/34 38/35/35 49/36/36
f 2/37/37 14/38/38 3/39/39
f 14/40/40 15/41/41 3/42/42
f 3/43/43 15/44/44 16/45/45
f 3/46/46 16/47/47 4/48/48
f 4/49/49 16/50/50 5/51/51
f 16/52/52 17/53/53 5/54/54
f 5/55/55 17/56/56 18/57/57
f 5/58/58 18/59/59 6/60/60
f 6/61/61 18/62/62 7/63/63
f 18/64/64 19/65/65 7/66/66
f 7/67/67 19/68/68 20/69/69
f 7/70/70 20/71/71 8/72/72
f 8/73/73 20/74/74 9/75/75
f 20/76/76 21/77/77 9/78/78
f 9/79/79 21/80/80 22/81/81
f 9/82/82 22/83/83 10/84/84
f 10/85/85 22/86/86 11/87/87
f 22/88/88 23/89/89 11/90/90
f 11/91/91 23/92/92 24/93/93
f 11/94/94 24/95/95 12/96/96
f 12/97/97 24/98/98 13/99/99
f 24/100/100 25/101/101 13/102/102
f 13/103/103 25/104/104 14/105/105
f 13/106/106 14/107/107 2/108/108
f 14/109/109 26/110/110 27/111/111
f 14/112/112 27/113/113 15/114/114
f 15/115/115 27/116/116 16/117/117
f 27/118/118 28/119/119 16/120/120
f 16/121/121 28/122/122 29/123/123
f 16/124/124 29/125/125 17/126/126
f 17/127/127 29/128/128 18/129/129
f 29/130/130 30/131/131 18/132/132
f 18/133/133 30/134/134 31/135/135
f 18/136/136 31/137/137 19/138/138
f 19/139/139 31/140/140 20/141/141
f 31/142/142 32/143/143 20/144/144
f 20/145/145 32/146/146 33/147/147
f 20/148/148 33/149/149 21/150/150
f 21/151/151 33/152/152 22/153/153
f 33/154/154 34/155/155 22/156/156
f 22/157/157 34/158/158 35/159/159
f 22/160/160 35/161/161 23/162/162
f 23/163/163 35/164/164 24/165/165
f 35/166/166 36/167/167 24/168/168
f 24/169/169 36/170/170 37/171/171
f 24/172/172 37/173/173 25/174/174
f 25/175/175 37/176/176 14/177/177
f 37/178/178 26/179/179 14/180/180
f 26/181/181 38/182/182 27/183/183
f 38/184/184 39/185/185 27/186/186
f 27/187/187 39/188/188 40/189/189
f 27/190/190 40/191/191 28/192/192
f 28/193/193 40/194/194 29/195/195
f 40/196/196 41/197/197 29/198/198
f 29/199/199 41/200/200 42/201/201
f 29/202/202 42/203/203 30/204/204
f 30/205/205 42/206/206 31/207/207
f 42/208/208 43/209/209 31/210/210
f 31/211/211 43/212/212 44/213/213
f 31/214/214 44/215/215 32/216/216
f 32/217/217 44/218/218 33/219/219
f 44/220/220 45/221/221 33/222/222
f 33/223/223 45/224/224 46/225/225
f 33/226/226 46/227/227 34/228/228
f 34/229/229 46/230/230 35/231/231
f 46/232/232 47/233/233 35/234/234
f 35/235/235 47/236/236 48/237/237
f 35/238/238 48/239/239 36/240/240
f 36/241/241 48/242/242 37/243/243
f 48/244/244 49/245/245 37/246/246
f 37/247/247 49/248/248 38/249/249
f 37/250/250 38/251/251 26/252/252

# object end 'Converted object 0'
