# created by: Biturn ver 0.88
# http://mirex.mypage.sk
# ------------------------------------
# 16 vertices, 18 polygons, 54 points, 1 materials




#-- object 'Converted object 0' --
# 16 vertices, 18 polygons, 54 points

g Converted object 0

# vertexs: 16
v 0.499500 -0.000000 3.588750
v 0.499500 -0.000000 5.518700
v -0.499500 -0.000000 3.588750
v -0.499500 -0.000000 5.518700
v -0.499500 0.800000 3.588750
v -0.499500 0.800000 5.518700
v 0.499500 0.800000 3.588750
v 0.499500 0.800000 5.518700
v 0.499500 0.800000 3.588750
v 0.499500 0.800000 5.698136
v -0.499500 0.800000 3.588750
v -0.499500 0.800000 5.698136
v -0.499500 0.971429 3.588750
v -0.499500 0.971429 5.698136
v 0.499500 0.971429 3.588750
v 0.499500 0.971429 5.698136

# normals: 54
vn 0.000000 -1.000000 0.000000
vn 0.000000 -1.000000 0.000000
vn 0.000000 -1.000000 0.000000
vn 0.000000 -1.000000 0.000000
vn 0.000000 -1.000000 0.000000
vn 0.000000 -1.000000 0.000000
vn -1.000000 0.000000 0.000000
vn -1.000000 0.000000 0.000000
vn -1.000000 0.000000 0.000000
vn -1.000000 0.000000 0.000000
vn -1.000000 0.000000 0.000000
vn -1.000000 0.000000 0.000000
vn 1.000000 0.000000 0.000000
vn 1.000000 0.000000 0.000000
vn 1.000000 0.000000 0.000000
vn 1.000000 0.000000 0.000000
vn 1.000000 0.000000 0.000000
vn 1.000000 0.000000 0.000000
vn 0.000000 0.000000 1.000000
vn 0.000000 0.000000 1.000000
vn 0.000000 0.000000 1.000000
vn 0.000000 0.000000 1.000000
vn 0.000000 0.000000 1.000000
vn 0.000000 0.000000 1.000000
vn 0.000000 -1.000000 0.000000
vn 0.000000 -1.000000 0.000000
vn 0.000000 -1.000000 0.000000
vn 0.000000 -1.000000 0.000000
vn 0.000000 -1.000000 0.000000
vn 0.000000 -1.000000 0.000000
vn -1.000000 0.000000 0.000000
vn -1.000000 0.000000 0.000000
vn -1.000000 0.000000 0.000000
vn -1.000000 0.000000 0.000000
vn -1.000000 0.000000 0.000000
vn -1.000000 0.000000 0.000000
vn 0.000000 1.000000 0.000000
vn 0.000000 1.000000 0.000000
vn 0.000000 1.000000 0.000000
vn 0.000000 1.000000 0.000000
vn 0.000000 1.000000 0.000000
vn 0.000000 1.000000 0.000000
vn 1.000000 0.000000 0.000000
vn 1.000000 0.000000 0.000000
vn 1.000000 0.000000 0.000000
vn 1.000000 0.000000 0.000000
vn 1.000000 0.000000 0.000000
vn 1.000000 0.000000 0.000000
vn 0.000000 0.000000 1.000000
vn 0.000000 0.000000 1.000000
vn 0.000000 0.000000 1.000000
vn 0.000000 0.000000 1.000000
vn 0.000000 0.000000 1.000000
vn 0.000000 0.000000 1.000000

# texture coords: 54
vt 0.419566 0.125808
vt 0.419566 0.005866
vt 0.445578 0.125808
vt 0.419566 0.005866
vt 0.445578 0.005866
vt 0.445578 0.125808
vt 0.339427 0.130817
vt 0.339427 0.014651
vt 0.367419 0.130817
vt 0.339427 0.014651
vt 0.367419 0.014651
vt 0.367419 0.130817
vt 0.385153 0.130638
vt 0.385153 0.014473
vt 0.413145 0.130638
vt 0.385153 0.014473
vt 0.413145 0.014473
vt 0.413145 0.130638
vt 0.449739 0.010832
vt 0.449739 0.123607
vt 0.496063 0.010832
vt 0.449739 0.123607
vt 0.496063 0.123607
vt 0.496063 0.010832
vt 0.451501 0.249460
vt 0.451501 0.138445
vt 0.496596 0.249460
vt 0.451501 0.138445
vt 0.496596 0.138445
vt 0.496596 0.249460
vt 0.367419 0.130817
vt 0.367419 0.006779
vt 0.373417 0.130817
vt 0.367419 0.006779
vt 0.373417 0.006779
vt 0.373417 0.130817
vt 0.331970 0.130831
vt 0.331970 0.006793
vt 0.256393 0.130831
vt 0.331970 0.006793
vt 0.256393 0.006793
vt 0.256393 0.130831
vt 0.379155 0.130638
vt 0.379155 0.006600
vt 0.385153 0.130638
vt 0.379155 0.006600
vt 0.385153 0.006600
vt 0.385153 0.130638
vt 0.449739 0.123607
vt 0.449739 0.134636
vt 0.496063 0.123607
vt 0.449739 0.134636
vt 0.496063 0.134636
vt 0.496063 0.123607

# polygons: 18

f 1/1/1 2/2/2 3/3/3
f 2/4/4 4/5/5 3/6/6
f 3/7/7 4/8/8 5/9/9
f 4/10/10 6/11/11 5/12/12
f 7/13/13 8/14/14 1/15/15
f 8/16/16 2/17/17 1/18/18
f 2/19/19 8/20/20 4/21/21
f 8/22/22 6/23/23 4/24/24
f 9/25/25 10/26/26 11/27/27
f 10/28/28 12/29/29 11/30/30
f 11/31/31 12/32/32 13/33/33
f 12/34/34 14/35/35 13/36/36
f 13/37/37 14/38/38 15/39/39
f 14/40/40 16/41/41 15/42/42
f 15/43/43 16/44/44 9/45/45
f 16/46/46 10/47/47 9/48/48
f 10/49/49 16/50/50 12/51/51
f 16/52/52 14/53/53 12/54/54

# object end 'Converted object 0'
