# Wavefront OBJ exported by MilkShape 3D



v 0.499500 -0.000000 3.588750
v 0.499500 -0.000000 5.518700
v -0.499500 -0.000000 3.588750
v -0.499500 -0.000000 5.518700
v -0.499500 0.800000 3.588750
v -0.499500 0.800000 5.518700
v 0.499500 0.800000 3.588750
v 0.499500 0.800000 5.518700
v 0.499500 0.800000 3.588750
v 0.499500 0.800000 5.698136
v -0.499500 0.800000 3.588750
v -0.499500 0.800000 5.698136
v -0.499500 0.971429 3.588750
v -0.499500 0.971429 5.698136
v 0.499500 0.971429 3.588750
v 0.499500 0.971429 5.698136
# 16 vertices

vt 0.169899 0.125623
vt 0.169899 0.005681
vt 0.195911 0.125623
vt 0.195911 0.005681
vt 0.089761 0.130632
vt 0.089761 0.014466
vt 0.117752 0.130632
vt 0.117752 0.014466
vt 0.135487 0.130453
vt 0.135487 0.014288
vt 0.163478 0.130453
vt 0.163478 0.014288
vt 0.200073 0.010647
vt 0.200073 0.123422
vt 0.246396 0.010647
vt 0.246396 0.123422
vt 0.201834 0.249275
vt 0.201834 0.138260
vt 0.246930 0.249275
vt 0.246930 0.138260
vt 0.117752 0.006594
vt 0.123751 0.130632
vt 0.123751 0.006594
vt 0.082303 0.130646
vt 0.082303 0.006608
vt 0.006726 0.130646
vt 0.006726 0.006608
vt 0.129488 0.130453
vt 0.129488 0.006415
vt 0.135487 0.006415
vt 0.200073 0.134451
vt 0.246396 0.134451
# 32 texture coordinates

vn 0.000000 -1.000000 0.000000
vn -1.000000 0.000000 0.000000
vn 1.000000 0.000000 0.000000
vn 0.000000 0.000000 1.000000
vn 0.000000 1.000000 0.000000
# 5 normals

g Box01


f 1/1/1 2/2/1 3/3/1
f 2/2/1 4/4/1 3/3/1

f 3/5/2 4/6/2 5/7/2
f 4/6/2 6/8/2 5/7/2

f 7/9/3 8/10/3 1/11/3
f 8/10/3 2/12/3 1/11/3

f 2/13/4 8/14/4 4/15/4
f 8/14/4 6/16/4 4/15/4
# 8 triangles in group

g Duplicate01


f 9/17/1 10/18/1 11/19/1
f 10/18/1 12/20/1 11/19/1

f 11/7/2 12/21/2 13/22/2
f 12/21/2 14/23/2 13/22/2

f 13/24/5 14/25/5 15/26/5
f 14/25/5 16/27/5 15/26/5

f 15/28/3 16/29/3 9/9/3
f 16/29/3 10/30/3 9/9/3

f 10/14/4 16/31/4 12/16/4
f 16/31/4 14/32/4 12/16/4
# 10 triangles in group

# 18 triangles total

