# created by: Biturn ver 0.88
# http://mirex.mypage.sk
# ------------------------------------
# 16 vertices, 18 polygons, 54 points, 1 materials


mtllib object_171.mtl

#-- object 'Converted object 0' --
# 16 vertices, 18 polygons, 54 points

g Converted object 0

# vertexs: 16
v 0.499500 -0.000000 3.588750
v 0.499500 -0.000000 5.518700
v -0.499500 -0.000000 3.588750
v -0.499500 -0.000000 5.518700
v -0.499500 0.800000 3.588750
v -0.499500 0.800000 5.518700
v 0.499500 0.800000 3.588750
v 0.499500 0.800000 5.518700
v 0.499500 0.800000 3.588750
v 0.499500 0.800000 5.698136
v -0.499500 0.800000 3.588750
v -0.499500 0.800000 5.698136
v -0.499500 0.971429 3.588750
v -0.499500 0.971429 5.698136
v 0.499500 0.971429 3.588750
v 0.499500 0.971429 5.698136

# normals: 54
vn 0.000000 -1.000000 0.000000
vn 0.000000 -1.000000 0.000000
vn 0.000000 -1.000000 0.000000
vn 0.000000 -1.000000 0.000000
vn 0.000000 -1.000000 0.000000
vn 0.000000 -1.000000 0.000000
vn -1.000000 0.000000 0.000000
vn -1.000000 0.000000 0.000000
vn -1.000000 0.000000 0.000000
vn -1.000000 0.000000 0.000000
vn -1.000000 0.000000 0.000000
vn -1.000000 0.000000 0.000000
vn 1.000000 0.000000 0.000000
vn 1.000000 0.000000 0.000000
vn 1.000000 0.000000 0.000000
vn 1.000000 0.000000 0.000000
vn 1.000000 0.000000 0.000000
vn 1.000000 0.000000 0.000000
vn 0.000000 0.000000 1.000000
vn 0.000000 0.000000 1.000000
vn 0.000000 0.000000 1.000000
vn 0.000000 0.000000 1.000000
vn 0.000000 0.000000 1.000000
vn 0.000000 0.000000 1.000000
vn 0.000000 -1.000000 0.000000
vn 0.000000 -1.000000 0.000000
vn 0.000000 -1.000000 0.000000
vn 0.000000 -1.000000 0.000000
vn 0.000000 -1.000000 0.000000
vn 0.000000 -1.000000 0.000000
vn -1.000000 0.000000 0.000000
vn -1.000000 0.000000 0.000000
vn -1.000000 0.000000 0.000000
vn -1.000000 0.000000 0.000000
vn -1.000000 0.000000 0.000000
vn -1.000000 0.000000 0.000000
vn 0.000000 1.000000 0.000000
vn 0.000000 1.000000 0.000000
vn 0.000000 1.000000 0.000000
vn 0.000000 1.000000 0.000000
vn 0.000000 1.000000 0.000000
vn 0.000000 1.000000 0.000000
vn 1.000000 0.000000 0.000000
vn 1.000000 0.000000 0.000000
vn 1.000000 0.000000 0.000000
vn 1.000000 0.000000 0.000000
vn 1.000000 0.000000 0.000000
vn 1.000000 0.000000 0.000000
vn 0.000000 0.000000 1.000000
vn 0.000000 0.000000 1.000000
vn 0.000000 0.000000 1.000000
vn 0.000000 0.000000 1.000000
vn 0.000000 0.000000 1.000000
vn 0.000000 0.000000 1.000000

# texture coords: 54
vt 0.169899 0.125623
vt 0.169899 0.005681
vt 0.195911 0.125623
vt 0.169899 0.005681
vt 0.195911 0.005681
vt 0.195911 0.125623
vt 0.089761 0.130632
vt 0.089761 0.014466
vt 0.117752 0.130632
vt 0.089761 0.014466
vt 0.117752 0.014466
vt 0.117752 0.130632
vt 0.135487 0.130453
vt 0.135487 0.014288
vt 0.163478 0.130453
vt 0.135487 0.014288
vt 0.163478 0.014288
vt 0.163478 0.130453
vt 0.200073 0.010647
vt 0.200073 0.123422
vt 0.246396 0.010647
vt 0.200073 0.123422
vt 0.246396 0.123422
vt 0.246396 0.010647
vt 0.201834 0.249275
vt 0.201834 0.138260
vt 0.246930 0.249275
vt 0.201834 0.138260
vt 0.246930 0.138260
vt 0.246930 0.249275
vt 0.117752 0.130632
vt 0.117752 0.006594
vt 0.123751 0.130632
vt 0.117752 0.006594
vt 0.123751 0.006594
vt 0.123751 0.130632
vt 0.082303 0.130646
vt 0.082303 0.006608
vt 0.006726 0.130646
vt 0.082303 0.006608
vt 0.006726 0.006608
vt 0.006726 0.130646
vt 0.129488 0.130453
vt 0.129488 0.006415
vt 0.135487 0.130453
vt 0.129488 0.006415
vt 0.135487 0.006415
vt 0.135487 0.130453
vt 0.200073 0.123422
vt 0.200073 0.134451
vt 0.246396 0.123422
vt 0.200073 0.134451
vt 0.246396 0.134451
vt 0.246396 0.123422

# polygons: 18
usemtl WhiteKey1
f 1/1/1 2/2/2 3/3/3
f 2/4/4 4/5/5 3/6/6
f 3/7/7 4/8/8 5/9/9
f 4/10/10 6/11/11 5/12/12
f 7/13/13 8/14/14 1/15/15
f 8/16/16 2/17/17 1/18/18
f 2/19/19 8/20/20 4/21/21
f 8/22/22 6/23/23 4/24/24
f 9/25/25 10/26/26 11/27/27
f 10/28/28 12/29/29 11/30/30
f 11/31/31 12/32/32 13/33/33
f 12/34/34 14/35/35 13/36/36
f 13/37/37 14/38/38 15/39/39
f 14/40/40 16/41/41 15/42/42
f 15/43/43 16/44/44 9/45/45
f 16/46/46 10/47/47 9/48/48
f 10/49/49 16/50/50 12/51/51
f 16/52/52 14/53/53 12/54/54

# object end 'Converted object 0'
