# created by: Biturn ver 0.88
# http://mirex.mypage.sk
# ------------------------------------
# 16 vertices, 20 polygons, 60 points, 1 materials




#-- object 'Converted object 0' --
# 16 vertices, 20 polygons, 60 points

g Converted object 0

# vertexs: 16
v -0.335007 1.283986 3.302249
v -0.372230 0.000000 3.545250
v 0.335007 1.283986 3.302249
v 0.372230 0.000000 3.545250
v 0.335007 1.283986 0.000000
v 0.372230 0.000000 0.000000
v -0.335007 1.283986 0.000000
v -0.372230 0.000000 0.000000
v -0.219798 1.532298 2.800515
v -0.335007 1.283986 3.302249
v 0.219798 1.532298 2.800515
v 0.335007 1.283986 3.302249
v 0.219798 1.532298 0.000000
v 0.335007 1.283986 0.000000
v -0.219798 1.532298 0.000000
v -0.335007 1.283986 0.000000

# normals: 60
vn 0.000000 0.185954 0.982558
vn 0.000000 0.185954 0.982558
vn 0.000000 0.185954 0.982558
vn 0.000000 0.185954 0.982558
vn 0.000000 0.185954 0.982558
vn 0.000000 0.185954 0.982558
vn 0.999580 0.028978 0.000000
vn 0.999580 0.028978 0.000000
vn 0.999580 0.028978 0.000000
vn 0.999580 0.028978 0.000000
vn 0.999580 0.028978 0.000000
vn 0.999580 0.028978 0.000000
vn 0.000000 0.000000 -1.000000
vn 0.000000 0.000000 -1.000000
vn 0.000000 0.000000 -1.000000
vn 0.000000 0.000000 -1.000000
vn 0.000000 0.000000 -1.000000
vn 0.000000 0.000000 -1.000000
vn -0.999580 0.028978 0.000000
vn -0.999580 0.028978 0.000000
vn -0.999580 0.028978 0.000000
vn -0.999580 0.028978 0.000000
vn -0.999580 0.028978 0.000000
vn -0.999580 0.028978 0.000000
vn 0.000000 -1.000000 0.000000
vn 0.000000 -1.000000 0.000000
vn 0.000000 -1.000000 0.000000
vn 0.000000 -1.000000 0.000000
vn 0.000000 -1.000000 0.000000
vn 0.000000 -1.000000 0.000000
vn 0.000000 0.988475 0.151385
vn 0.000000 0.896245 0.443559
vn 0.000000 0.953064 0.302769
vn 0.000000 0.896245 0.443559
vn 0.000000 0.896245 0.443559
vn 0.000000 0.953064 0.302769
vn 0.907119 0.420874 0.000000
vn 0.907119 0.420874 0.000000
vn 0.907119 0.420874 0.000000
vn 0.907119 0.420874 0.000000
vn 0.907119 0.420874 0.000000
vn 0.907119 0.420874 0.000000
vn 0.000000 0.000000 -1.000000
vn 0.000000 0.000000 -1.000000
vn 0.000000 0.000000 -1.000000
vn 0.000000 0.000000 -1.000000
vn 0.000000 0.000000 -1.000000
vn 0.000000 0.000000 -1.000000
vn -0.907119 0.420874 0.000000
vn -0.907119 0.420874 0.000000
vn -0.907119 0.420874 0.000000
vn -0.907119 0.420874 0.000000
vn -0.907119 0.420874 0.000000
vn -0.907119 0.420874 0.000000
vn 0.000000 1.000000 0.000000
vn 0.000000 0.988475 0.151385
vn 0.000000 1.000000 0.000000
vn 0.000000 0.988475 0.151385
vn 0.000000 0.953064 0.302769
vn 0.000000 1.000000 0.000000

# texture coords: 60
vt 0.568728 0.054613
vt 0.567463 0.008600
vt 0.591505 0.054613
vt 0.567463 0.008600
vt 0.592770 0.008600
vt 0.591505 0.054613
vt 0.607919 0.054920
vt 0.653016 0.051743
vt 0.607919 0.252218
vt 0.653016 0.051743
vt 0.653016 0.252218
vt 0.607919 0.252218
vt 0.677021 0.200747
vt 0.675839 0.157761
vt 0.698299 0.200747
vt 0.675839 0.157761
vt 0.699481 0.157761
vt 0.698299 0.200747
vt 0.552518 0.252034
vt 0.507422 0.252034
vt 0.552518 0.054736
vt 0.507422 0.252034
vt 0.507422 0.051559
vt 0.552518 0.054736
vt 0.716548 0.253182
vt 0.716548 0.005682
vt 0.747169 0.253182
vt 0.716548 0.005682
vt 0.747169 0.005682
vt 0.747169 0.253182
vt 0.572640 0.075571
vt 0.568740 0.054750
vt 0.587522 0.075571
vt 0.568740 0.054750
vt 0.591422 0.054750
vt 0.587522 0.075571
vt 0.588104 0.075214
vt 0.607919 0.054920
vt 0.588104 0.252218
vt 0.607919 0.054920
vt 0.607919 0.252218
vt 0.588104 0.252218
vt 0.680680 0.219635
vt 0.677021 0.200747
vt 0.694640 0.219635
vt 0.677021 0.200747
vt 0.698299 0.200747
vt 0.694640 0.219635
vt 0.572334 0.252034
vt 0.552518 0.252034
vt 0.572334 0.075030
vt 0.552518 0.252034
vt 0.552518 0.054736
vt 0.572334 0.075030
vt 0.572640 0.252218
vt 0.572640 0.075571
vt 0.587522 0.252218
vt 0.572640 0.075571
vt 0.587522 0.075571
vt 0.587522 0.252218

# polygons: 20
usemtl WhiteKey1
f 1/1/1 2/2/2 3/3/3
f 2/4/4 4/5/5 3/6/6
f 3/7/7 4/8/8 5/9/9
f 4/10/10 6/11/11 5/12/12
f 5/13/13 6/14/14 7/15/15
f 6/16/16 8/17/17 7/18/18
f 7/19/19 8/20/20 1/21/21
f 8/22/22 2/23/23 1/24/24
f 2/25/25 8/26/26 4/27/27
f 8/28/28 6/29/29 4/30/30
f 9/31/31 10/32/32 11/33/33
f 10/34/34 12/35/35 11/36/36
f 11/37/37 12/38/38 13/39/39
f 12/40/40 14/41/41 13/42/42
f 13/43/43 14/44/44 15/45/45
f 14/46/46 16/47/47 15/48/48
f 15/49/49 16/50/50 9/51/51
f 16/52/52 10/53/53 9/54/54
f 15/55/55 9/56/56 13/57/57
f 9/58/58 11/59/59 13/60/60

# object end 'Converted object 0'
