# created by: Biturn ver 0.88
# http://mirex.mypage.sk
# ------------------------------------
# 16 vertices, 20 polygons, 60 points, 1 materials




#-- object 'Converted object 0' --
# 16 vertices, 20 polygons, 60 points

g Converted object 0

# vertexs: 16
v -0.335007 1.283986 3.302249
v -0.372230 0.000000 3.545250
v 0.335007 1.283986 3.302249
v 0.372230 0.000000 3.545250
v 0.335007 1.283986 0.000000
v 0.372230 0.000000 0.000000
v -0.335007 1.283986 0.000000
v -0.372230 0.000000 0.000000
v -0.219798 1.532298 2.800515
v -0.335007 1.283986 3.302249
v 0.219798 1.532298 2.800515
v 0.335007 1.283986 3.302249
v 0.219798 1.532298 0.000000
v 0.335007 1.283986 0.000000
v -0.219798 1.532298 0.000000
v -0.335007 1.283986 0.000000

# normals: 60
vn 0.000000 0.185954 0.982558
vn 0.000000 0.185954 0.982558
vn 0.000000 0.185954 0.982558
vn 0.000000 0.185954 0.982558
vn 0.000000 0.185954 0.982558
vn 0.000000 0.185954 0.982558
vn 0.999580 0.028978 0.000000
vn 0.999580 0.028978 0.000000
vn 0.999580 0.028978 0.000000
vn 0.999580 0.028978 0.000000
vn 0.999580 0.028978 0.000000
vn 0.999580 0.028978 0.000000
vn 0.000000 0.000000 -1.000000
vn 0.000000 0.000000 -1.000000
vn 0.000000 0.000000 -1.000000
vn 0.000000 0.000000 -1.000000
vn 0.000000 0.000000 -1.000000
vn 0.000000 0.000000 -1.000000
vn -0.999580 0.028978 0.000000
vn -0.999580 0.028978 0.000000
vn -0.999580 0.028978 0.000000
vn -0.999580 0.028978 0.000000
vn -0.999580 0.028978 0.000000
vn -0.999580 0.028978 0.000000
vn 0.000000 -1.000000 0.000000
vn 0.000000 -1.000000 0.000000
vn 0.000000 -1.000000 0.000000
vn 0.000000 -1.000000 0.000000
vn 0.000000 -1.000000 0.000000
vn 0.000000 -1.000000 0.000000
vn 0.000000 0.988475 0.151385
vn 0.000000 0.896245 0.443559
vn 0.000000 0.953064 0.302769
vn 0.000000 0.896245 0.443559
vn 0.000000 0.896245 0.443559
vn 0.000000 0.953064 0.302769
vn 0.907119 0.420874 0.000000
vn 0.907119 0.420874 0.000000
vn 0.907119 0.420874 0.000000
vn 0.907119 0.420874 0.000000
vn 0.907119 0.420874 0.000000
vn 0.907119 0.420874 0.000000
vn 0.000000 0.000000 -1.000000
vn 0.000000 0.000000 -1.000000
vn 0.000000 0.000000 -1.000000
vn 0.000000 0.000000 -1.000000
vn 0.000000 0.000000 -1.000000
vn 0.000000 0.000000 -1.000000
vn -0.907119 0.420874 0.000000
vn -0.907119 0.420874 0.000000
vn -0.907119 0.420874 0.000000
vn -0.907119 0.420874 0.000000
vn -0.907119 0.420874 0.000000
vn -0.907119 0.420874 0.000000
vn 0.000000 1.000000 0.000000
vn 0.000000 0.988475 0.151385
vn 0.000000 1.000000 0.000000
vn 0.000000 0.988475 0.151385
vn 0.000000 0.953064 0.302769
vn 0.000000 1.000000 0.000000

# texture coords: 60
vt 0.814684 0.054464
vt 0.813418 0.008451
vt 0.837460 0.054464
vt 0.813418 0.008451
vt 0.838726 0.008451
vt 0.837460 0.054464
vt 0.853874 0.054771
vt 0.898971 0.051594
vt 0.853874 0.252069
vt 0.898971 0.051594
vt 0.898971 0.252069
vt 0.853874 0.252069
vt 0.922976 0.200598
vt 0.921794 0.157612
vt 0.944255 0.200598
vt 0.921794 0.157612
vt 0.945437 0.157612
vt 0.944255 0.200598
vt 0.798474 0.251885
vt 0.753377 0.251885
vt 0.798474 0.054587
vt 0.753377 0.251885
vt 0.753377 0.051410
vt 0.798474 0.054587
vt 0.962503 0.253033
vt 0.962503 0.005533
vt 0.993124 0.253033
vt 0.962503 0.005533
vt 0.993124 0.005533
vt 0.993124 0.253033
vt 0.818596 0.075422
vt 0.814695 0.054601
vt 0.833478 0.075422
vt 0.814695 0.054601
vt 0.837378 0.054601
vt 0.833478 0.075422
vt 0.834059 0.075065
vt 0.853874 0.054771
vt 0.834059 0.252069
vt 0.853874 0.054771
vt 0.853874 0.252069
vt 0.834059 0.252069
vt 0.926635 0.219486
vt 0.922976 0.200598
vt 0.940596 0.219486
vt 0.922976 0.200598
vt 0.944255 0.200598
vt 0.940596 0.219486
vt 0.818289 0.251885
vt 0.798474 0.251885
vt 0.818289 0.074881
vt 0.798474 0.251885
vt 0.798474 0.054587
vt 0.818289 0.074881
vt 0.818596 0.252069
vt 0.818596 0.075422
vt 0.833478 0.252069
vt 0.818596 0.075422
vt 0.833478 0.075422
vt 0.833478 0.252069

# polygons: 20

f 1/1/1 2/2/2 3/3/3
f 2/4/4 4/5/5 3/6/6
f 3/7/7 4/8/8 5/9/9
f 4/10/10 6/11/11 5/12/12
f 5/13/13 6/14/14 7/15/15
f 6/16/16 8/17/17 7/18/18
f 7/19/19 8/20/20 1/21/21
f 8/22/22 2/23/23 1/24/24
f 2/25/25 8/26/26 4/27/27
f 8/28/28 6/29/29 4/30/30
f 9/31/31 10/32/32 11/33/33
f 10/34/34 12/35/35 11/36/36
f 11/37/37 12/38/38 13/39/39
f 12/40/40 14/41/41 13/42/42
f 13/43/43 14/44/44 15/45/45
f 14/46/46 16/47/47 15/48/48
f 15/49/49 16/50/50 9/51/51
f 16/52/52 10/53/53 9/54/54
f 15/55/55 9/56/56 13/57/57
f 9/58/58 11/59/59 13/60/60

# object end 'Converted object 0'
