# Blender v3.1.2 OBJ File: ''
# www.blender.org
mtllib PistolBlast.mtl
o Sphere_Sphere.002
v 0.000000 1.039456 4.068844
v 0.000000 1.358114 2.954247
v 0.000000 1.358114 1.135354
v 0.000000 0.562549 0.130377
v 0.215278 0.519728 5.256311
v 0.397782 0.960332 4.068844
v 0.519728 1.254734 2.954247
v 0.562549 1.358114 1.961343
v 0.519728 1.254734 1.135354
v 0.397782 0.960331 0.515090
v 0.215278 0.519727 0.130377
v 0.397782 0.397783 5.256311
v 0.735006 0.735006 4.068844
v 0.960331 0.960332 2.954247
v 1.039455 1.039455 1.961343
v 0.960331 0.960331 1.135354
v 0.735006 0.735006 0.515091
v 0.397782 0.397782 0.130377
v 0.519728 0.215279 5.256311
v 0.960331 0.397783 4.068845
v 1.254733 0.519728 2.954248
v 1.358114 0.562549 1.961343
v 1.254733 0.519728 1.135355
v 0.960331 0.397782 0.515091
v 0.519728 0.215278 0.130377
v 0.562549 0.000001 5.256311
v 1.039455 0.000000 4.068845
v 1.358114 0.000000 2.954248
v 1.470012 0.000000 1.961343
v 1.358114 -0.000000 1.135355
v 1.039455 -0.000000 0.515091
v 0.562549 -0.000000 0.130377
v 0.519727 -0.215278 5.256311
v 0.960331 -0.397782 4.068846
v 1.254733 -0.519727 2.954248
v 1.358114 -0.562549 1.961344
v 1.254733 -0.519728 1.135355
v 0.960331 -0.397782 0.515091
v 0.519727 -0.215278 0.130377
v 0.397782 -0.397782 5.256312
v 0.735005 -0.735005 4.068846
v 0.960331 -0.960331 2.954248
v 1.039455 -1.039455 1.961344
v 0.960331 -0.960331 1.135355
v 0.735005 -0.735006 0.515091
v 0.397782 -0.397782 0.130377
v 0.215278 -0.519727 5.256312
v 0.397782 -0.960331 4.068846
v 0.519727 -1.254733 2.954248
v 0.562549 -1.358113 1.961344
v 0.519727 -1.254733 1.135355
v 0.397782 -0.960331 0.515091
v 0.215278 -0.519728 0.130377
v -0.000000 -0.562548 5.256312
v -0.000000 -1.039454 4.068846
v -0.000000 -1.358113 2.954248
v -0.000000 -1.470011 1.961344
v -0.000000 -1.358114 1.135355
v -0.000000 -1.039455 0.515091
v -0.000000 -0.562549 0.130377
v -0.215278 -0.519727 5.256313
v -0.397783 -0.960330 4.068846
v -0.519728 -1.254733 2.954248
v -0.562550 -1.358113 1.961344
v -0.519728 -1.254733 1.135355
v -0.397783 -0.960331 0.515091
v -0.215278 -0.519728 0.130377
v -0.397782 -0.397781 5.256311
v -0.735006 -0.735005 4.068846
v -0.960332 -0.960330 2.954248
v -1.039456 -1.039454 1.961344
v -0.960332 -0.960331 1.135355
v -0.735006 -0.735005 0.515091
v -0.397782 -0.397782 0.130377
v -0.519728 -0.215277 5.256311
v -0.960331 -0.397781 4.068845
v -1.254733 -0.519727 2.954248
v -1.358114 -0.562548 1.961344
v -1.254733 -0.519727 1.135355
v -0.960331 -0.397782 0.515091
v -0.519728 -0.215278 0.130377
v -0.562549 0.000001 5.256311
v -1.039455 0.000001 4.068845
v -1.358114 0.000001 2.954248
v -1.470011 0.000001 1.961343
v -1.358114 0.000001 1.135355
v -1.039455 0.000000 0.515091
v -0.562549 0.000000 0.130377
v -0.519727 0.215279 5.256311
v -0.960331 0.397783 4.068845
v -1.254733 0.519728 2.954248
v -1.358113 0.562550 1.961343
v -1.254733 0.519728 1.135355
v -0.960331 0.397783 0.515091
v -0.519727 0.215278 0.130377
v -0.397782 0.397783 5.256311
v -0.735005 0.735007 4.068845
v -0.960331 0.960332 2.954247
v -1.039454 1.039456 1.961343
v -0.960331 0.960332 1.135354
v -0.735005 0.735006 0.515091
v -0.397782 0.397782 0.130377
v -0.215278 0.519728 5.256311
v -0.397782 0.960332 4.068844
v -0.519727 1.254734 2.954247
v -0.562548 1.358114 1.961343
v -0.519727 1.254733 1.135355
v -0.397782 0.960331 0.515090
v -0.215278 0.519727 0.130377
v -0.000000 0.000001 6.467012
v 0.000000 0.562550 5.256311
v 0.000001 1.470011 1.961343
v 0.000001 1.039455 0.515091
v -0.000000 -0.000000 0.000000
vt 0.158027 0.536926
vt 0.223921 0.535745
vt 0.220131 0.561284
vt 0.281021 0.534070
vt 0.340749 0.532584
vt 0.336956 0.586715
vt 0.276618 0.576480
vt 0.413035 0.530916
vt 0.506641 0.529034
vt 0.505719 0.592910
vt 0.410491 0.592372
vt 0.629362 0.531746
vt 0.774368 0.525626
vt 0.774687 0.561042
vt 0.630099 0.604389
vt 0.935296 0.529093
vt 0.778807 0.594495
vt 0.636163 0.676094
vt 0.264443 0.619787
vt 0.209971 0.585948
vt 0.405367 0.656700
vt 0.327041 0.643299
vt 0.506528 0.659681
vt 0.242762 0.664471
vt 0.192842 0.608217
vt 0.397618 0.727467
vt 0.309676 0.705167
vt 0.648001 0.753033
vt 0.509768 0.730565
vt 0.786763 0.624573
vt 0.798516 0.651405
vt 0.167803 0.625520
vt 0.281848 0.776362
vt 0.207772 0.710516
vt 0.516920 0.806492
vt 0.387236 0.809348
vt 0.666725 0.838419
vt 0.204803 0.364113
vt 0.257512 0.279447
vt 0.281787 0.356518
vt 0.232247 0.409609
vt 0.339561 0.225223
vt 0.444724 0.224839
vt 0.439207 0.315192
vt 0.350067 0.320810
vt 0.561957 0.270124
vt 0.718237 0.231723
vt 0.700807 0.306536
vt 0.548464 0.334483
vt 0.178250 0.459195
vt 0.196463 0.475635
vt 0.847206 0.538495
vt 0.169371 0.556866
vt 0.249760 0.456472
vt 0.209348 0.498816
vt 0.357721 0.401895
vt 0.297062 0.424314
vt 0.539355 0.400032
vt 0.437045 0.395534
vt 0.687630 0.381017
vt 0.362764 0.475039
vt 0.305985 0.487198
vt 0.534083 0.466497
vt 0.436717 0.469522
vt 0.678654 0.454337
vt 0.217120 0.525602
vt 0.259892 0.503621
vt 0.220080 0.554127
vt 0.309942 0.548061
vt 0.263994 0.551015
vt 0.437590 0.540305
vt 0.365563 0.544632
vt 0.673895 0.525678
vt 0.532519 0.533802
vt 0.439531 0.610627
vt 0.366357 0.614143
vt 0.673465 0.594158
vt 0.534628 0.600524
vt 0.262503 0.599033
vt 0.218305 0.583065
vt 0.309447 0.609314
vt 0.255064 0.648229
vt 0.211583 0.611151
vt 0.365290 0.686953
vt 0.304343 0.673469
vt 0.540723 0.665045
vt 0.442807 0.683093
vt 0.677577 0.658760
vt 0.550863 0.727971
vt 0.448159 0.760371
vt 0.686539 0.718249
vt 0.199386 0.636678
vt 0.293735 0.743749
vt 0.240363 0.699181
vt 0.362484 0.767093
vt 0.180873 0.656762
vt 0.275481 0.824785
vt 0.215470 0.751952
vt 0.456935 0.844972
vt 0.358143 0.859841
vt 0.700554 0.771457
vt 0.565309 0.789723
vt 0.682883 0.205705
vt 0.810896 0.401383
vt 0.796070 0.427648
vt 0.659454 0.298254
vt 0.174566 0.450797
vt 0.213894 0.367392
vt 0.247138 0.408286
vt 0.197338 0.465778
vt 0.286604 0.293840
vt 0.395792 0.247933
vt 0.404481 0.332691
vt 0.314108 0.362572
vt 0.532684 0.242750
vt 0.520711 0.324606
vt 0.267432 0.450144
vt 0.212852 0.486586
vt 0.410222 0.404556
vt 0.330420 0.422879
vt 0.643546 0.379749
vt 0.513558 0.398466
vt 0.785015 0.457364
vt 0.777831 0.490333
vt 0.221551 0.510456
vt 0.338752 0.478686
vt 0.278142 0.492073
vt 0.509164 0.465924
vt 0.412991 0.469335
vt 0.633704 0.457278
vn 0.0000 -0.0000 -1.0000
vn -0.0000 0.4599 -0.8880
vn 0.1760 0.4249 -0.8880
vn -0.0000 0.7854 -0.6190
vn -0.0000 0.9558 -0.2941
vn 0.3658 0.8830 -0.2941
vn 0.3006 0.7256 -0.6190
vn 0.0000 0.9999 -0.0110
vn -0.0000 0.9814 0.1922
vn 0.3756 0.9067 0.1922
vn 0.3827 0.9238 -0.0110
vn -0.0000 0.9467 0.3223
vn -0.0000 0.9183 0.3960
vn 0.3514 0.8484 0.3960
vn 0.3623 0.8746 0.3223
vn 0.0000 -0.0000 1.0000
vn 0.6493 0.6493 0.3960
vn 0.6694 0.6694 0.3223
vn 0.5554 0.5554 -0.6190
vn 0.3252 0.3252 -0.8880
vn 0.7071 0.7071 -0.0110
vn 0.6758 0.6758 -0.2941
vn 0.6939 0.6939 0.1922
vn 0.7256 0.3006 -0.6190
vn 0.4249 0.1760 -0.8880
vn 0.9238 0.3827 -0.0110
vn 0.8830 0.3658 -0.2941
vn 0.8746 0.3623 0.3223
vn 0.9067 0.3756 0.1922
vn 0.8484 0.3514 0.3960
vn 0.9183 0.0000 0.3960
vn 0.4599 -0.0000 -0.8880
vn 0.9558 -0.0000 -0.2941
vn 0.7854 -0.0000 -0.6190
vn 0.9814 -0.0000 0.1922
vn 0.9999 -0.0000 -0.0110
vn 0.9467 0.0000 0.3223
vn 0.8830 -0.3658 -0.2941
vn 0.7256 -0.3006 -0.6190
vn 0.9067 -0.3756 0.1922
vn 0.9238 -0.3827 -0.0110
vn 0.8484 -0.3514 0.3960
vn 0.8746 -0.3623 0.3223
vn 0.4249 -0.1760 -0.8880
vn 0.5554 -0.5554 -0.6190
vn 0.3252 -0.3252 -0.8880
vn 0.7071 -0.7071 -0.0110
vn 0.6758 -0.6758 -0.2941
vn 0.6694 -0.6694 0.3223
vn 0.6939 -0.6939 0.1922
vn 0.6493 -0.6493 0.3960
vn 0.3827 -0.9238 -0.0110
vn 0.3658 -0.8830 -0.2941
vn 0.3623 -0.8746 0.3223
vn 0.3756 -0.9067 0.1922
vn 0.3514 -0.8484 0.3960
vn 0.1760 -0.4249 -0.8880
vn 0.3006 -0.7256 -0.6190
vn -0.0000 -0.4599 -0.8880
vn -0.0000 -0.9558 -0.2941
vn -0.0000 -0.7854 -0.6190
vn -0.0000 -0.9814 0.1922
vn -0.0000 -0.9999 -0.0110
vn 0.0000 -0.9183 0.3960
vn -0.0000 -0.9467 0.3223
vn -0.3756 -0.9067 0.1922
vn -0.3827 -0.9238 -0.0110
vn -0.3514 -0.8484 0.3960
vn -0.3623 -0.8746 0.3223
vn -0.3006 -0.7256 -0.6190
vn -0.1760 -0.4249 -0.8880
vn -0.3658 -0.8830 -0.2941
vn -0.5554 -0.5554 -0.6190
vn -0.3252 -0.3252 -0.8880
vn -0.7071 -0.7071 -0.0110
vn -0.6758 -0.6758 -0.2941
vn -0.6694 -0.6694 0.3223
vn -0.6939 -0.6939 0.1922
vn -0.6493 -0.6493 0.3960
vn -0.8746 -0.3623 0.3223
vn -0.9067 -0.3756 0.1922
vn -0.8484 -0.3514 0.3960
vn -0.4249 -0.1760 -0.8880
vn -0.8830 -0.3658 -0.2941
vn -0.7256 -0.3006 -0.6190
vn -0.9238 -0.3827 -0.0110
vn -0.4599 0.0000 -0.8880
vn -0.9558 0.0000 -0.2941
vn -0.7854 0.0000 -0.6190
vn -0.9814 0.0000 0.1922
vn -0.9999 0.0000 -0.0110
vn -0.9183 0.0000 0.3960
vn -0.9467 0.0000 0.3223
vn -0.8484 0.3514 0.3960
vn -0.8746 0.3623 0.3223
vn -0.7256 0.3006 -0.6190
vn -0.4249 0.1760 -0.8880
vn -0.9238 0.3827 -0.0110
vn -0.8830 0.3658 -0.2941
vn -0.9067 0.3756 0.1922
vn -0.5554 0.5554 -0.6190
vn -0.3252 0.3252 -0.8880
vn -0.7071 0.7071 -0.0110
vn -0.6758 0.6758 -0.2941
vn -0.6694 0.6694 0.3223
vn -0.6939 0.6939 0.1922
vn -0.6493 0.6493 0.3960
vn -0.3514 0.8484 0.3960
vn -0.1760 0.4249 -0.8880
vn -0.3658 0.8830 -0.2941
vn -0.3006 0.7256 -0.6190
vn -0.3756 0.9067 0.1922
vn -0.3827 0.9238 -0.0110
vn -0.3623 0.8746 0.3223

s 1
f 114/1/1 4/2/2 11/3/3
f 113/4/4 3/5/5 9/6/6 10/7/7
f 112/8/8 2/9/9 7/10/10 8/11/11
f 1/12/12 111/13/13 5/14/14 6/15/15
f 4/2/2 113/4/4 10/7/7 11/3/3
f 3/5/5 112/8/8 8/11/11 9/6/6
f 2/9/9 1/12/12 6/15/15 7/10/10
f 111/13/13 110/16/16 5/14/14
f 6/15/15 5/14/14 12/17/17 13/18/18
f 11/3/3 10/7/7 17/19/19 18/20/20
f 9/6/6 8/11/11 15/21/21 16/22/22
f 7/10/10 6/15/15 13/18/18 14/23/23
f 5/14/14 110/16/16 12/17/17
f 114/1/1 11/3/3 18/20/20
f 10/7/7 9/6/6 16/22/22 17/19/19
f 8/11/11 7/10/10 14/23/23 15/21/21
f 18/20/20 17/19/19 24/24/24 25/25/25
f 16/22/22 15/21/21 22/26/26 23/27/27
f 14/23/23 13/18/18 20/28/28 21/29/29
f 12/17/17 110/16/16 19/30/30
f 114/1/1 18/20/20 25/25/25
f 17/19/19 16/22/22 23/27/27 24/24/24
f 15/21/21 14/23/23 21/29/29 22/26/26
f 13/18/18 12/17/17 19/30/30 20/28/28
f 19/30/30 110/16/16 26/31/31
f 114/1/1 25/25/25 32/32/32
f 24/24/24 23/27/27 30/33/33 31/34/34
f 22/26/26 21/29/29 28/35/35 29/36/36
f 20/28/28 19/30/30 26/31/31 27/37/37
f 25/25/25 24/24/24 31/34/34 32/32/32
f 23/27/27 22/26/26 29/36/36 30/33/33
f 21/29/29 20/28/28 27/37/37 28/35/35
f 31/38/34 30/39/33 37/40/38 38/41/39
f 29/42/36 28/43/35 35/44/40 36/45/41
f 27/46/37 26/47/31 33/48/42 34/49/43
f 32/50/32 31/38/34 38/41/39 39/51/44
f 30/39/33 29/42/36 36/45/41 37/40/38
f 28/43/35 27/46/37 34/49/43 35/44/40
f 26/47/31 110/52/16 33/48/42
f 114/53/1 32/50/32 39/51/44
f 39/51/44 38/41/39 45/54/45 46/55/46
f 37/40/38 36/45/41 43/56/47 44/57/48
f 35/44/40 34/49/43 41/58/49 42/59/50
f 33/48/42 110/52/16 40/60/51
f 114/53/1 39/51/44 46/55/46
f 38/41/39 37/40/38 44/57/48 45/54/45
f 36/45/41 35/44/40 42/59/50 43/56/47
f 34/49/43 33/48/42 40/60/51 41/58/49
f 44/57/48 43/56/47 50/61/52 51/62/53
f 42/59/50 41/58/49 48/63/54 49/64/55
f 40/60/51 110/52/16 47/65/56
f 114/53/1 46/55/46 53/66/57
f 45/54/45 44/57/48 51/62/53 52/67/58
f 43/56/47 42/59/50 49/64/55 50/61/52
f 41/58/49 40/60/51 47/65/56 48/63/54
f 46/55/46 45/54/45 52/67/58 53/66/57
f 114/53/1 53/66/57 60/68/59
f 52/67/58 51/62/53 58/69/60 59/70/61
f 50/61/52 49/64/55 56/71/62 57/72/63
f 48/63/54 47/65/56 54/73/64 55/74/65
f 53/66/57 52/67/58 59/70/61 60/68/59
f 51/62/53 50/61/52 57/72/63 58/69/60
f 49/64/55 48/63/54 55/74/65 56/71/62
f 47/65/56 110/52/16 54/73/64
f 57/72/63 56/71/62 63/75/66 64/76/67
f 55/74/65 54/73/64 61/77/68 62/78/69
f 60/68/59 59/70/61 66/79/70 67/80/71
f 58/69/60 57/72/63 64/76/67 65/81/72
f 56/71/62 55/74/65 62/78/69 63/75/66
f 54/73/64 110/52/16 61/77/68
f 114/53/1 60/68/59 67/80/71
f 59/70/61 58/69/60 65/81/72 66/79/70
f 67/80/71 66/79/70 73/82/73 74/83/74
f 65/81/72 64/76/67 71/84/75 72/85/76
f 63/75/66 62/78/69 69/86/77 70/87/78
f 61/77/68 110/52/16 68/88/79
f 114/53/1 67/80/71 74/83/74
f 66/79/70 65/81/72 72/85/76 73/82/73
f 64/76/67 63/75/66 70/87/78 71/84/75
f 62/78/69 61/77/68 68/88/79 69/86/77
f 70/87/78 69/86/77 76/89/80 77/90/81
f 68/88/79 110/52/16 75/91/82
f 114/53/1 74/83/74 81/92/83
f 73/82/73 72/85/76 79/93/84 80/94/85
f 71/84/75 70/87/78 77/90/81 78/95/86
f 69/86/77 68/88/79 75/91/82 76/89/80
f 74/83/74 73/82/73 80/94/85 81/92/83
f 72/85/76 71/84/75 78/95/86 79/93/84
f 114/53/1 81/92/83 88/96/87
f 80/94/85 79/93/84 86/97/88 87/98/89
f 78/95/86 77/90/81 84/99/90 85/100/91
f 76/89/80 75/91/82 82/101/92 83/102/93
f 81/92/83 80/94/85 87/98/89 88/96/87
f 79/93/84 78/95/86 85/100/91 86/97/88
f 77/90/81 76/89/80 83/102/93 84/99/90
f 75/91/82 110/52/16 82/101/92
f 83/103/93 82/104/92 89/105/94 90/106/95
f 88/107/87 87/108/89 94/109/96 95/110/97
f 86/111/88 85/112/91 92/113/98 93/114/99
f 84/115/90 83/103/93 90/106/95 91/116/100
f 82/104/92 110/16/16 89/105/94
f 114/1/1 88/107/87 95/110/97
f 87/108/89 86/111/88 93/114/99 94/109/96
f 85/112/91 84/115/90 91/116/100 92/113/98
f 95/110/97 94/109/96 101/117/101 102/118/102
f 93/114/99 92/113/98 99/119/103 100/120/104
f 91/116/100 90/106/95 97/121/105 98/122/106
f 89/105/94 110/16/16 96/123/107
f 114/1/1 95/110/97 102/118/102
f 94/109/96 93/114/99 100/120/104 101/117/101
f 92/113/98 91/116/100 98/122/106 99/119/103
f 90/106/95 89/105/94 96/123/107 97/121/105
f 96/123/107 110/16/16 103/124/108
f 114/1/1 102/118/102 109/125/109
f 101/117/101 100/120/104 107/126/110 108/127/111
f 99/119/103 98/122/106 105/128/112 106/129/113
f 97/121/105 96/123/107 103/124/108 104/130/114
f 102/118/102 101/117/101 108/127/111 109/125/109
f 100/120/104 99/119/103 106/129/113 107/126/110
f 98/122/106 97/121/105 104/130/114 105/128/112
f 108/127/111 107/126/110 3/5/5 113/4/4
f 106/129/113 105/128/112 2/9/9 112/8/8
f 104/130/114 103/124/108 111/13/13 1/12/12
f 109/125/109 108/127/111 113/4/4 4/2/2
f 107/126/110 106/129/113 112/8/8 3/5/5
f 105/128/112 104/130/114 1/12/12 2/9/9
f 103/124/108 110/16/16 111/13/13
f 114/1/1 109/125/109 4/2/2
