# created by: Biturn ver 0.88
# http://mirex.mypage.sk
# ------------------------------------
# 28 vertices, 46 polygons, 138 points, 1 materials




#-- object 'Converted object 0' --
# 28 vertices, 46 polygons, 138 points

g Converted object 0

# vertexs: 28
v -0.750000 65.567635 -1.000000
v -0.750000 -0.001288 -1.000000
v 0.750000 65.567635 -1.000000
v 0.750000 -0.001288 -1.000000
v 0.750000 66.008812 -1.970588
v 0.750000 -0.000469 -2.000765
v -0.750000 66.008812 -1.970588
v -0.750000 -0.000469 -2.000765
v -0.640000 67.000916 -0.646209
v -0.640000 65.996658 -0.426774
v 0.640000 67.000916 -0.646209
v 0.640000 65.996658 -0.426774
v -0.512000 67.008881 1.022548
v -0.512000 66.007843 1.657799
v 0.512000 67.008881 1.022548
v 0.512000 66.007843 1.657799
v 0.750000 -0.001288 -1.000000
v -0.750000 -0.001288 -1.000000
v -0.750000 -0.000469 -2.000765
v 0.750000 -0.000469 -2.000765
v 0.640000 -1.435857 -0.646209
v 0.640000 -0.431600 -0.426774
v -0.640000 -1.435857 -0.646209
v -0.640000 -0.431600 -0.426774
v 0.512000 -1.443822 1.022548
v 0.512000 -0.442785 1.657799
v -0.512000 -1.443822 1.022548
v -0.512000 -0.442785 1.657799

# normals: 138
vn 0.000000 -0.447661 0.894203
vn 0.000000 0.000000 1.000000
vn 0.000000 -0.447661 0.894203
vn 0.000000 0.000000 1.000000
vn 0.000000 0.000000 1.000000
vn 0.000000 -0.447661 0.894203
vn 0.996241 0.078858 0.035845
vn 1.000000 0.000000 0.000000
vn 0.998423 0.043292 0.035753
vn 1.000000 0.000000 0.000000
vn 1.000000 0.000000 0.000000
vn 0.998423 0.043292 0.035753
vn 0.000000 0.447673 -0.894197
vn 0.000000 -0.446740 -0.894664
vn 0.000000 0.447673 -0.894197
vn 0.000000 -0.446740 -0.894664
vn 0.000000 -0.894093 -0.447881
vn 0.000000 0.447673 -0.894197
vn -0.999285 0.034428 0.015649
vn -1.000000 0.000000 0.000000
vn -0.998476 0.026156 0.048605
vn -1.000000 0.000000 0.000000
vn -1.000000 0.000000 0.000000
vn -0.998476 0.026156 0.048605
vn 0.000000 0.535811 0.844338
vn 0.000000 -0.479410 0.877591
vn 0.000000 0.535811 0.844338
vn 0.000000 -0.479410 0.877591
vn 0.000000 -0.479410 0.877591
vn 0.000000 0.535811 0.844338
vn 0.000000 -1.000000 -0.000818
vn 0.000000 -0.894093 -0.447881
vn 0.000000 -1.000000 -0.000818
vn 0.000000 -0.894093 -0.447881
vn 0.000000 -0.446740 -0.894664
vn 0.000000 -1.000000 -0.000818
vn -0.995099 0.040414 0.090253
vn -0.999285 0.034428 0.015649
vn -0.998476 0.026156 0.048605
vn -0.995099 0.040414 0.090253
vn -0.998476 0.026156 0.048605
vn -0.994512 0.030352 0.100122
vn 0.000000 0.907488 -0.420079
vn 0.000000 0.447673 -0.894197
vn 0.000000 0.447673 -0.894197
vn 0.000000 0.907488 -0.420079
vn 0.000000 0.447673 -0.894197
vn 0.000000 0.977153 -0.212538
vn 0.000000 -0.907532 0.419983
vn 0.000000 -0.447661 0.894203
vn 0.000000 -0.447661 0.894203
vn 0.000000 -0.907532 0.419983
vn 0.000000 -0.447661 0.894203
vn 0.000000 -0.977096 0.212799
vn 0.995741 0.062160 0.068095
vn 0.996241 0.078858 0.035845
vn 0.998423 0.043292 0.035753
vn 0.995741 0.062160 0.068095
vn 0.998423 0.043292 0.035753
vn 0.997247 0.025757 0.069529
vn -0.997251 0.027714 0.068718
vn -0.995099 0.040414 0.090253
vn -0.994512 0.030352 0.100122
vn -0.997251 0.027714 0.068718
vn -0.994512 0.030352 0.100122
vn -0.997384 0.038732 0.061035
vn 0.000000 0.999989 -0.004773
vn 0.000000 0.907488 -0.420079
vn 0.000000 0.977153 -0.212538
vn 0.000000 0.999989 -0.004773
vn 0.000000 0.977153 -0.212538
vn 0.000000 0.999989 -0.004773
vn 0.000000 -0.479410 0.877591
vn 0.000000 -0.907532 0.419983
vn 0.000000 -0.977096 0.212799
vn 0.000000 -0.479410 0.877591
vn 0.000000 -0.977096 0.212799
vn 0.000000 -0.479410 0.877591
vn 0.997160 0.030858 0.068698
vn 0.995741 0.062160 0.068095
vn 0.997247 0.025757 0.069529
vn 0.997160 0.030858 0.068698
vn 0.997247 0.025757 0.069529
vn 0.995924 0.048331 0.076160
vn 0.000000 -0.535811 0.844338
vn 0.000000 0.479410 0.877591
vn 0.000000 -0.535811 0.844338
vn 0.000000 0.479410 0.877591
vn 0.000000 0.479410 0.877591
vn 0.000000 -0.535811 0.844338
vn 0.995880 -0.043002 0.079830
vn 0.997072 -0.076469 -0.000063
vn 0.995085 -0.056193 0.081536
vn 0.995880 -0.043002 0.079830
vn 0.995085 -0.056193 0.081536
vn 0.994515 -0.030347 0.100100
vn 0.000000 -0.851778 -0.523904
vn 0.000000 -0.686332 -0.727288
vn 0.000000 -0.686332 -0.727288
vn 0.000000 -0.851778 -0.523904
vn 0.000000 -0.686332 -0.727288
vn 0.000000 -0.964380 -0.264522
vn 0.000000 0.907119 0.420874
vn 0.000000 0.799737 0.600350
vn 0.000000 0.799737 0.600350
vn 0.000000 0.907119 0.420874
vn 0.000000 0.799737 0.600350
vn 0.000000 0.976999 0.213246
vn -0.994803 -0.092505 0.042549
vn -0.968781 -0.247918 -0.000203
vn -0.990681 -0.132137 0.033041
vn -0.994803 -0.092505 0.042549
vn -0.990681 -0.132137 0.033041
vn -0.997381 -0.025364 0.067731
vn 0.997251 -0.027714 0.068718
vn 0.995880 -0.043002 0.079830
vn 0.994515 -0.030347 0.100100
vn 0.997251 -0.027714 0.068718
vn 0.994515 -0.030347 0.100100
vn 0.997384 -0.038732 0.061035
vn 0.000000 -0.999989 -0.004773
vn 0.000000 -0.851778 -0.523904
vn 0.000000 -0.964380 -0.264522
vn 0.000000 -0.999989 -0.004773
vn 0.000000 -0.964380 -0.264522
vn 0.000000 -0.999989 -0.004773
vn 0.000000 0.479410 0.877591
vn 0.000000 0.907119 0.420874
vn 0.000000 0.976999 0.213246
vn 0.000000 0.479410 0.877591
vn 0.000000 0.976999 0.213246
vn 0.000000 0.479410 0.877591
vn -0.997160 -0.030858 0.068698
vn -0.994803 -0.092505 0.042549
vn -0.997381 -0.025364 0.067731
vn -0.997160 -0.030858 0.068698
vn -0.997381 -0.025364 0.067731
vn -0.995924 -0.048331 0.076160

# texture coords: 138
vt 0.543009 0.990092
vt 0.543009 0.539329
vt 0.708000 0.990092
vt 0.543009 0.539329
vt 0.708000 0.539329
vt 0.708000 0.990092
vt 0.293140 0.460680
vt 0.293140 0.009917
vt 0.399899 0.463713
vt 0.293140 0.009917
vt 0.403219 0.009923
vt 0.399899 0.463713
vt 0.543009 0.470588
vt 0.543009 0.016798
vt 0.708000 0.470588
vt 0.543009 0.016798
vt 0.708000 0.016798
vt 0.708000 0.470588
vt 0.004118 0.993125
vt 0.000798 0.539334
vt 0.110876 0.990092
vt 0.000798 0.539334
vt 0.110876 0.539329
vt 0.110876 0.990092
vt 0.569188 1.000000
vt 0.569188 0.993118
vt 0.681822 1.000000
vt 0.569188 0.993118
vt 0.681822 0.993118
vt 0.681822 1.000000
vt 0.804018 0.238008
vt 0.804018 0.141464
vt 0.948723 0.238008
vt 0.804018 0.141464
vt 0.948723 0.141464
vt 0.948723 0.238008
vt 0.149791 0.999945
vt 0.004118 0.993125
vt 0.110876 0.990092
vt 0.149791 0.999945
vt 0.110876 0.990092
vt 0.173928 0.993041
vt 0.938112 0.760790
vt 0.948723 0.888553
vt 0.804018 0.888553
vt 0.938112 0.760790
vt 0.804018 0.888553
vt 0.814630 0.760790
vt 0.814630 0.293307
vt 0.804018 0.238008
vt 0.948723 0.238008
vt 0.814630 0.293307
vt 0.948723 0.238008
vt 0.938112 0.293307
vt 0.230089 0.463630
vt 0.293140 0.460680
vt 0.399899 0.463713
vt 0.230089 0.463630
vt 0.399899 0.463713
vt 0.254226 0.470533
vt 0.333345 1.000000
vt 0.149791 0.999945
vt 0.173928 0.993041
vt 0.333345 1.000000
vt 0.173928 0.993041
vt 0.403219 0.993118
vt 0.925763 0.599805
vt 0.938112 0.760790
vt 0.814630 0.760790
vt 0.925763 0.599805
vt 0.814630 0.760790
vt 0.826978 0.599805
vt 0.826978 0.494405
vt 0.814630 0.293307
vt 0.938112 0.293307
vt 0.826978 0.494405
vt 0.938112 0.293307
vt 0.925763 0.494405
vt 0.000798 0.463706
vt 0.230089 0.463630
vt 0.254226 0.470533
vt 0.000798 0.463706
vt 0.254226 0.470533
vt 0.070672 0.470588
vt 0.681822 0.529412
vt 0.681822 0.536294
vt 0.569188 0.529412
vt 0.681822 0.536294
vt 0.569188 0.536294
vt 0.569188 0.529412
vt 0.254226 0.000055
vt 0.403219 0.009923
vt 0.293140 0.009917
vt 0.254226 0.000055
vt 0.293140 0.009917
vt 0.230089 0.006959
vt 0.695901 0.006930
vt 0.708000 0.016798
vt 0.543009 0.016798
vt 0.695901 0.006930
vt 0.543009 0.016798
vt 0.555108 0.006930
vt 0.938112 0.739621
vt 0.948723 0.794920
vt 0.804018 0.794920
vt 0.938112 0.739621
vt 0.804018 0.794920
vt 0.814630 0.739621
vt 0.173928 0.536370
vt 0.110876 0.539329
vt 0.000798 0.539334
vt 0.173928 0.536370
vt 0.000798 0.539334
vt 0.149791 0.529467
vt 0.070672 0.000000
vt 0.254226 0.000055
vt 0.230089 0.006959
vt 0.070672 0.000000
vt 0.230089 0.006959
vt 0.000798 0.006882
vt 0.826978 0.433123
vt 0.814630 0.272138
vt 0.938112 0.272138
vt 0.826978 0.433123
vt 0.938112 0.272138
vt 0.925763 0.433123
vt 0.925763 0.538523
vt 0.938112 0.739621
vt 0.814630 0.739621
vt 0.925763 0.538523
vt 0.814630 0.739621
vt 0.826978 0.538523
vt 0.403219 0.536294
vt 0.173928 0.536370
vt 0.149791 0.529467
vt 0.403219 0.536294
vt 0.149791 0.529467
vt 0.333345 0.529412

# polygons: 46

f 1/1/1 2/2/2 3/3/3
f 2/4/4 4/5/5 3/6/6
f 3/7/7 4/8/8 5/9/9
f 4/10/10 6/11/11 5/12/12
f 5/13/13 6/14/14 7/15/15
f 6/16/16 8/17/17 7/18/18
f 7/19/19 8/20/20 1/21/21
f 8/22/22 2/23/23 1/24/24
f 13/25/25 14/26/26 15/27/27
f 14/28/28 16/29/29 15/30/30
f 2/31/31 8/32/32 4/33/33
f 8/34/34 6/35/35 4/36/36
f 9/37/37 7/38/38 1/39/39
f 9/40/40 1/41/41 10/42/42
f 11/43/43 5/44/44 7/45/45
f 11/46/46 7/47/47 9/48/48
f 10/49/49 1/50/50 3/51/51
f 10/52/52 3/53/53 12/54/54
f 12/55/55 3/56/56 5/57/57
f 12/58/58 5/59/59 11/60/60
f 13/61/61 9/62/62 10/63/63
f 13/64/64 10/65/65 14/66/66
f 15/67/67 11/68/68 9/69/69
f 15/70/70 9/71/71 13/72/72
f 14/73/73 10/74/74 12/75/75
f 14/76/76 12/77/77 16/78/78
f 16/79/79 12/80/80 11/81/81
f 16/82/82 11/83/83 15/84/84
f 25/85/85 26/86/86 27/87/87
f 26/88/88 28/89/89 27/90/90
f 21/91/91 20/92/92 17/93/93
f 21/94/94 17/95/95 22/96/96
f 23/97/97 19/98/98 20/99/99
f 23/100/100 20/101/101 21/102/102
f 22/103/103 17/104/104 18/105/105
f 22/106/106 18/107/107 24/108/108
f 24/109/109 18/110/110 19/111/111
f 24/112/112 19/113/113 23/114/114
f 25/115/115 21/116/116 22/117/117
f 25/118/118 22/119/119 26/120/120
f 27/121/121 23/122/122 21/123/123
f 27/124/124 21/125/125 25/126/126
f 26/127/127 22/128/128 24/129/129
f 26/130/130 24/131/131 28/132/132
f 28/133/133 24/134/134 23/135/135
f 28/136/136 23/137/137 27/138/138

# object end 'Converted object 0'
