# Blender v3.1.2 OBJ File: ''
# www.blender.org
mtllib ShamisenString.mtl
o BassString.001_BassString.006
v 0.144411 -44.917126 0.546868
v 0.144411 -0.000000 0.546875
v 0.074448 -44.917126 0.668047
v 0.074448 -0.000000 0.668054
v -0.065478 -0.000000 0.668054
v -0.065478 -44.917126 0.668047
v -0.135440 -44.917126 0.546868
v -0.135440 -0.000000 0.546875
v -0.065478 -0.000000 0.425696
v -0.065478 -44.917858 0.425689
v 0.074448 -44.917858 0.425689
v 0.074448 -0.000000 0.425696
vt 0.138673 0.967678
vt 0.138673 0.997168
vt 0.148324 0.967678
vt 0.148324 0.997168
vt 0.157975 0.997168
vt 0.157975 0.967678
vt 0.167626 0.967678
vt 0.167626 0.997168
vt 0.177277 0.997168
vt 0.177277 0.967678
vt 0.186928 0.967678
vt 0.186928 0.997168
vt 0.196579 0.997168
vt 0.196579 0.967678
vn 1.0000 0.0000 0.0002
vn 1.0000 0.0000 -0.0000
vn 0.5000 -0.0000 0.8660
vn -0.5000 -0.0000 0.8660
vn -1.0000 0.0000 0.0001
vn -1.0000 -0.0000 -0.0000
vn -0.5000 0.0000 -0.8660
vn -0.4998 0.0000 -0.8662
vn 0.4999 0.0000 -0.8661
vn 0.5000 0.0000 -0.8660

s 1
f 1/1/1 2/2/2 3/3/3
f 2/2/2 4/4/3 3/3/3
f 3/3/3 4/4/3 5/5/4
f 3/3/3 5/5/4 6/6/4
f 6/6/4 5/5/4 7/7/5
f 5/5/4 8/8/6 7/7/5
f 7/7/5 8/8/6 9/9/7
f 7/7/5 9/9/7 10/10/8
f 10/10/8 9/9/7 11/11/9
f 9/9/7 12/12/10 11/11/9
f 11/11/9 12/12/10 2/13/2
f 11/11/9 2/13/2 1/14/1
