# Wavefront OBJ exported by MilkShape 3D



v 149.379974 -0.000005 0.000000
v 149.379974 39.931816 0.000000
v 146.430679 39.931816 0.000000
v 146.430679 -0.000002 0.000000
v -149.371429 -0.000005 0.000000
v -149.371429 39.931816 0.000000
v -146.430847 39.931816 0.000000
v -146.430847 -0.000002 0.000000
v -146.729965 -0.000005 -29.169060
v -146.729965 39.931816 -29.169060
v -143.617203 39.931816 -27.657558
v -143.617203 -0.000002 -27.657558
v -138.216583 -0.000005 -57.233818
v -138.216583 39.931816 -57.233818
v -135.284470 39.931816 -55.126945
v -135.284470 -0.000002 -55.126945
v -124.391670 -0.000005 -83.098457
v -124.391670 39.931816 -83.098457
v -121.752808 39.931816 -80.442894
v -121.752808 -0.000002 -80.442894
v -105.786438 -0.000005 -105.769012
v -105.786438 39.931816 -105.769012
v -103.542267 39.931816 -102.632492
v -103.542267 -0.000002 -102.632492
v -83.115868 -0.000005 -124.374237
v -83.115868 39.931816 -124.374237
v -81.352646 39.931816 -120.843048
v -81.352646 -0.000002 -120.843048
v -57.251244 -0.000005 -138.199158
v -57.251244 39.931816 -138.199158
v -56.036705 39.931816 -134.374680
v -56.036705 -0.000002 -134.374680
v -29.186457 -0.000005 -146.712509
v -29.186457 39.931816 -146.712509
v -28.567295 39.931816 -142.707458
v -28.567295 -0.000002 -142.707458
v -0.000065 -0.000005 -149.587143
v -0.000065 39.931816 -149.587143
v -0.000065 39.931816 -145.521072
v -0.000065 -0.000002 -145.521072
v 29.186321 -0.000005 -146.712509
v 29.186321 39.931816 -146.712509
v 28.567160 39.931816 -142.707458
v 28.567160 -0.000002 -142.707458
v 57.251072 -0.000005 -138.199158
v 57.251072 39.931816 -138.199158
v 56.036537 39.931816 -134.374680
v 56.036537 -0.000002 -134.374680
v 83.115723 -0.000005 -124.374237
v 83.115723 39.931816 -124.374237
v 81.352493 39.931816 -120.843048
v 81.352493 -0.000002 -120.843048
v 105.786255 -0.000005 -105.769012
v 105.786255 39.931816 -105.769012
v 103.542091 39.931816 -102.632492
v 103.542091 -0.000002 -102.632492
v 124.391479 -0.000005 -83.098457
v 124.391479 39.931816 -83.098457
v 121.752617 39.931816 -80.442894
v 121.752617 -0.000002 -80.442894
v 138.216415 -0.000005 -57.233818
v 138.216415 39.931816 -57.233818
v 135.284286 39.931816 -55.126945
v 135.284286 -0.000002 -55.126945
v 146.729782 -0.000005 -29.169060
v 146.729782 39.931816 -29.169060
v 143.617050 39.931816 -27.657558
v 143.617050 -0.000002 -27.657558
v 149.373917 -0.000002 0.000000
v 146.503754 -0.000002 30.051647
v 138.003510 -0.000002 58.073174
v 124.199867 -0.000002 83.897995
v 105.623291 -0.000002 106.533600
v 82.987686 -0.000002 125.110199
v 57.162880 -0.000002 138.913803
v 29.141361 -0.000002 147.414032
v -0.000065 -0.000002 150.284271
v -29.141493 -0.000002 147.414032
v -57.163033 -0.000002 138.913803
v -82.987823 -0.000002 125.110199
v -105.623489 -0.000002 106.533600
v -124.200043 -0.000002 83.897995
v -138.003662 -0.000002 58.073174
v -146.503922 -0.000002 30.051647
v -149.374115 -0.000002 0.000000
v -146.503922 -0.000002 -28.231216
v -138.003662 -0.000002 -56.252739
v -124.200043 -0.000002 -82.077545
v -105.623489 -0.000002 -104.713150
v -82.987823 -0.000002 -123.289734
v -57.163033 -0.000002 -137.093353
v -29.141493 -0.000002 -145.593597
v -0.000065 -0.000002 -148.463806
v 29.141361 -0.000002 -145.593597
v 57.162880 -0.000002 -137.093353
v 82.987686 -0.000002 -123.289734
v 105.623291 -0.000002 -104.713150
v 124.199867 -0.000002 -82.077545
v 138.003510 -0.000002 -56.252739
v 146.503754 -0.000002 -28.231216
v -0.000065 -0.000002 0.000000
# 101 vertices

vt 0.056618 0.884491
vt 0.056618 0.992970
vt 0.091818 0.884491
vt 0.091818 0.992970
vt 0.048017 0.428989
vt 0.070517 0.428989
vt 0.078731 0.512390
vt 0.056663 0.516780
vt 0.052099 0.992970
vt 0.052099 0.884491
vt 0.086550 0.992970
vt 0.086550 0.884491
vt 0.129809 0.992970
vt 0.129809 0.884491
vt 0.082271 0.601197
vt 0.103058 0.592586
vt 0.123750 0.884491
vt 0.123750 0.992970
vt 0.171692 0.884491
vt 0.171692 0.992970
vt 0.142563 0.666496
vt 0.123855 0.678996
vt 0.164843 0.992970
vt 0.164843 0.884491
vt 0.219030 0.992970
vt 0.219030 0.884491
vt 0.179819 0.747187
vt 0.195729 0.731277
vt 0.211522 0.884491
vt 0.211522 0.992970
vt 0.273925 0.884491
vt 0.273925 0.992970
vt 0.260510 0.784442
vt 0.248010 0.803150
vt 0.266188 0.992970
vt 0.266188 0.884491
vt 0.338687 0.992970
vt 0.338687 0.884491
vt 0.325809 0.844735
vt 0.334419 0.823947
vt 0.331752 0.884491
vt 0.331752 0.992970
vt 0.414383 0.884491
vt 0.414383 0.992970
vt 0.414616 0.848275
vt 0.410226 0.870342
vt 0.410042 0.992970
vt 0.410042 0.884491
vt 0.498017 0.992970
vt 0.498017 0.884491
vt 0.498017 0.878989
vt 0.498017 0.856489
vt 0.581650 0.884491
vt 0.581650 0.992970
vt 0.581418 0.848275
vt 0.585807 0.870342
vt 0.585991 0.992970
vt 0.585991 0.884491
vt 0.657347 0.992970
vt 0.657347 0.884491
vt 0.670224 0.844735
vt 0.661614 0.823947
vt 0.664282 0.884491
vt 0.664282 0.992970
vt 0.722108 0.884491
vt 0.722108 0.992970
vt 0.735523 0.784442
vt 0.748023 0.803150
vt 0.729845 0.992970
vt 0.729845 0.884491
vt 0.777003 0.992970
vt 0.777003 0.884491
vt 0.816215 0.747187
vt 0.800305 0.731277
vt 0.784512 0.884491
vt 0.784512 0.992970
vt 0.824342 0.884491
vt 0.824342 0.992970
vt 0.853470 0.666496
vt 0.872178 0.678996
vt 0.831190 0.992970
vt 0.831190 0.884491
vt 0.866225 0.992970
vt 0.866225 0.884491
vt 0.913762 0.601197
vt 0.892975 0.592586
vt 0.872283 0.884491
vt 0.872283 0.992970
vt 0.904216 0.884491
vt 0.904216 0.992970
vt 0.917302 0.512390
vt 0.939370 0.516780
vt 0.909483 0.992970
vt 0.909483 0.884491
vt 0.939415 0.992970
vt 0.939415 0.884491
vt 0.948017 0.428989
vt 0.925517 0.428989
vt 0.943934 0.884491
vt 0.943934 0.992970
vt 0.911961 0.427116
vt 0.496004 0.427116
vt 0.903969 0.345967
vt 0.880298 0.267936
vt 0.841860 0.196022
vt 0.790130 0.132989
vt 0.727097 0.081260
vt 0.655184 0.042821
vt 0.577153 0.019151
vt 0.496004 0.011158
vt 0.414854 0.019151
vt 0.336823 0.042821
vt 0.264910 0.081260
vt 0.201877 0.132989
vt 0.150147 0.196022
vt 0.111709 0.267936
vt 0.088038 0.345967
vt 0.080046 0.427116
vt 0.088038 0.508265
vt 0.111709 0.586296
vt 0.150147 0.658210
vt 0.201877 0.721242
vt 0.264910 0.772972
vt 0.336823 0.811410
vt 0.414854 0.835081
vt 0.496004 0.843073
vt 0.577153 0.835081
vt 0.655184 0.811410
vt 0.727097 0.772972
vt 0.790130 0.721242
vt 0.841860 0.658210
vt 0.880298 0.586296
vt 0.903969 0.508265
# 133 texture coordinates

vn -0.995925 0.000000 -0.090188
vn -0.981545 0.000000 -0.191233
vn 0.000000 1.000000 0.000000
vn 0.994865 0.000000 0.101209
vn 0.980471 0.000000 0.196663
vn -0.923879 0.000000 -0.382684
vn 0.923880 0.000000 0.382683
vn -0.831470 0.000000 -0.555570
vn 0.831469 0.000000 0.555570
vn -0.707107 0.000000 -0.707107
vn 0.707107 0.000000 0.707107
vn -0.555570 0.000000 -0.831470
vn 0.555570 0.000000 0.831470
vn -0.382683 0.000000 -0.923880
vn 0.382684 0.000000 0.923880
vn -0.195091 0.000000 -0.980785
vn 0.195091 0.000000 0.980785
vn 0.000000 0.000000 -1.000000
vn -0.000000 0.000000 1.000000
vn 0.195091 0.000000 -0.980785
vn -0.195091 0.000000 0.980785
vn 0.382683 0.000000 -0.923880
vn -0.382684 0.000000 0.923880
vn 0.555570 0.000000 -0.831470
vn -0.555570 0.000000 0.831470
vn 0.707107 0.000000 -0.707107
vn -0.707107 0.000000 0.707107
vn 0.831470 0.000000 -0.555570
vn -0.831470 0.000000 0.555570
vn 0.923879 0.000000 -0.382684
vn -0.923879 0.000000 0.382684
vn 0.981516 0.000000 -0.191378
vn -0.980471 0.000000 0.196663
vn 0.995898 0.000000 -0.090484
vn -0.994865 0.000000 0.101209
# 35 normals

g Cylinder03
usemtl Skin
s 1
f 5/1/1 6/2/1 9/3/2
f 6/2/1 10/4/2 9/3/2
s 3
f 6/5/3 7/6/3 11/7/3
f 6/5/3 11/7/3 10/8/3
s 1
f 7/9/4 8/10/4 11/11/5
f 8/10/4 12/12/5 11/11/5
f 9/3/2 10/4/2 14/13/6
f 9/3/2 14/13/6 13/14/6
s 3
f 10/8/3 11/7/3 14/15/3
f 11/7/3 15/16/3 14/15/3
s 1
f 11/11/5 12/12/5 16/17/7
f 11/11/5 16/17/7 15/18/7
f 13/14/6 14/13/6 17/19/8
f 14/13/6 18/20/8 17/19/8
s 3
f 14/15/3 15/16/3 19/21/3
f 14/15/3 19/21/3 18/22/3
s 1
f 15/18/7 16/17/7 19/23/9
f 16/17/7 20/24/9 19/23/9
f 17/19/8 18/20/8 22/25/10
f 17/19/8 22/25/10 21/26/10
s 3
f 18/22/3 19/21/3 22/27/3
f 19/21/3 23/28/3 22/27/3
s 1
f 19/23/9 20/24/9 24/29/11
f 19/23/9 24/29/11 23/30/11
f 21/26/10 22/25/10 25/31/12
f 22/25/10 26/32/12 25/31/12
s 3
f 22/27/3 23/28/3 27/33/3
f 22/27/3 27/33/3 26/34/3
s 1
f 23/30/11 24/29/11 27/35/13
f 24/29/11 28/36/13 27/35/13
f 25/31/12 26/32/12 30/37/14
f 25/31/12 30/37/14 29/38/14
s 3
f 26/34/3 27/33/3 30/39/3
f 27/33/3 31/40/3 30/39/3
s 1
f 27/35/13 28/36/13 32/41/15
f 27/35/13 32/41/15 31/42/15
f 29/38/14 30/37/14 33/43/16
f 30/37/14 34/44/16 33/43/16
s 3
f 30/39/3 31/40/3 35/45/3
f 30/39/3 35/45/3 34/46/3
s 1
f 31/42/15 32/41/15 35/47/17
f 32/41/15 36/48/17 35/47/17
f 33/43/16 34/44/16 38/49/18
f 33/43/16 38/49/18 37/50/18
s 3
f 34/46/3 35/45/3 38/51/3
f 35/45/3 39/52/3 38/51/3
s 1
f 35/47/17 36/48/17 40/50/19
f 35/47/17 40/50/19 39/49/19
f 37/50/18 38/49/18 41/53/20
f 38/49/18 42/54/20 41/53/20
s 3
f 38/51/3 39/52/3 43/55/3
f 38/51/3 43/55/3 42/56/3
s 1
f 39/49/19 40/50/19 43/57/21
f 40/50/19 44/58/21 43/57/21
f 41/53/20 42/54/20 46/59/22
f 41/53/20 46/59/22 45/60/22
s 3
f 42/56/3 43/55/3 46/61/3
f 43/55/3 47/62/3 46/61/3
s 1
f 43/57/21 44/58/21 48/63/23
f 43/57/21 48/63/23 47/64/23
f 45/60/22 46/59/22 49/65/24
f 46/59/22 50/66/24 49/65/24
s 3
f 46/61/3 47/62/3 51/67/3
f 46/61/3 51/67/3 50/68/3
s 1
f 47/64/23 48/63/23 51/69/25
f 48/63/23 52/70/25 51/69/25
f 49/65/24 50/66/24 54/71/26
f 49/65/24 54/71/26 53/72/26
s 3
f 50/68/3 51/67/3 54/73/3
f 51/67/3 55/74/3 54/73/3
s 1
f 51/69/25 52/70/25 56/75/27
f 51/69/25 56/75/27 55/76/27
f 53/72/26 54/71/26 57/77/28
f 54/71/26 58/78/28 57/77/28
s 3
f 54/73/3 55/74/3 59/79/3
f 54/73/3 59/79/3 58/80/3
s 1
f 55/76/27 56/75/27 59/81/29
f 56/75/27 60/82/29 59/81/29
f 57/77/28 58/78/28 62/83/30
f 57/77/28 62/83/30 61/84/30
s 3
f 58/80/3 59/79/3 62/85/3
f 59/79/3 63/86/3 62/85/3
s 1
f 59/81/29 60/82/29 64/87/31
f 59/81/29 64/87/31 63/88/31
f 61/84/30 62/83/30 65/89/32
f 62/83/30 66/90/32 65/89/32
s 3
f 62/85/3 63/86/3 67/91/3
f 62/85/3 67/91/3 66/92/3
s 1
f 63/88/31 64/87/31 67/93/33
f 64/87/31 68/94/33 67/93/33
f 65/89/32 66/90/32 2/95/34
f 65/89/32 2/95/34 1/96/34
s 3
f 66/92/3 67/91/3 2/97/3
f 67/91/3 3/98/3 2/97/3
s 1
f 67/93/33 68/94/33 4/99/35
f 67/93/33 4/99/35 3/100/35
s 2
f 4/99/19 1/96/19 3/100/19
f 2/95/19 3/100/19 1/96/19
f 7/9/19 6/2/19 8/10/19
f 8/10/19 6/2/19 5/1/19
# 100 triangles in group

g Regroup03
usemtl Skin
s 3
f 69/101/3 101/102/3 70/103/3
f 70/103/3 101/102/3 71/104/3
f 71/104/3 101/102/3 72/105/3
f 72/105/3 101/102/3 73/106/3
f 73/106/3 101/102/3 74/107/3
f 74/107/3 101/102/3 75/108/3
f 75/108/3 101/102/3 76/109/3
f 76/109/3 101/102/3 77/110/3
f 77/110/3 101/102/3 78/111/3
f 78/111/3 101/102/3 79/112/3
f 79/112/3 101/102/3 80/113/3
f 80/113/3 101/102/3 81/114/3
f 81/114/3 101/102/3 82/115/3
f 82/115/3 101/102/3 83/116/3
f 83/116/3 101/102/3 84/117/3
f 84/117/3 101/102/3 85/118/3
f 85/118/3 101/102/3 86/119/3
f 86/119/3 101/102/3 87/120/3
f 87/120/3 101/102/3 88/121/3
f 88/121/3 101/102/3 89/122/3
f 89/122/3 101/102/3 90/123/3
f 90/123/3 101/102/3 91/124/3
f 91/124/3 101/102/3 92/125/3
f 92/125/3 101/102/3 93/126/3
f 93/126/3 101/102/3 94/127/3
f 94/127/3 101/102/3 95/128/3
f 95/128/3 101/102/3 96/129/3
f 96/129/3 101/102/3 97/130/3
f 97/130/3 101/102/3 98/131/3
f 98/131/3 101/102/3 99/132/3
f 99/132/3 101/102/3 100/133/3
f 100/133/3 101/102/3 69/101/3
# 32 triangles in group

# 132 triangles total

