# created by: Biturn ver 0.88
# http://mirex.mypage.sk
# ------------------------------------
# 16 vertices, 28 polygons, 84 points, 1 materials


mtllib StageStringHolder.mtl

#-- object 'Converted object 0' --
# 16 vertices, 28 polygons, 84 points

g Converted object 0

# vertexs: 16
v -0.750000 65.567635 -1.000000
v -0.750000 0.000000 -1.000000
v 0.750000 65.567635 -1.000000
v 0.750000 0.000000 -1.000000
v 0.750000 66.008812 -1.970588
v 0.750000 0.000000 -2.000000
v -0.750000 66.008812 -1.970588
v -0.750000 0.000000 -2.000000
v -0.640000 67.000916 -0.646209
v -0.640000 65.996658 -0.426774
v 0.640000 67.000916 -0.646209
v 0.640000 65.996658 -0.426774
v -0.512000 67.008881 1.022548
v -0.512000 66.007843 1.657799
v 0.512000 67.008881 1.022548
v 0.512000 66.007843 1.657799

# normals: 84
vn 0.000000 -0.447661 0.894203
vn 0.000000 0.000000 1.000000
vn 0.000000 -0.447661 0.894203
vn 0.000000 0.000000 1.000000
vn 0.000000 0.000000 1.000000
vn 0.000000 -0.447661 0.894203
vn 0.996241 0.078858 0.035845
vn 1.000000 0.000000 0.000000
vn 0.998423 0.043292 0.035753
vn 1.000000 0.000000 0.000000
vn 1.000000 0.000000 0.000000
vn 0.998423 0.043292 0.035753
vn 0.000000 0.447668 -0.894200
vn 0.000000 0.000446 -1.000000
vn 0.000000 0.447668 -0.894200
vn 0.000000 0.000446 -1.000000
vn 0.000000 0.000446 -1.000000
vn 0.000000 0.447668 -0.894200
vn -0.999285 0.034428 0.015649
vn -1.000000 0.000000 0.000000
vn -0.998476 0.026156 0.048605
vn -1.000000 0.000000 0.000000
vn -1.000000 0.000000 0.000000
vn -0.998476 0.026156 0.048605
vn 0.000000 0.535811 0.844338
vn 0.000000 -0.479410 0.877591
vn 0.000000 0.535811 0.844338
vn 0.000000 -0.479410 0.877591
vn 0.000000 -0.479410 0.877591
vn 0.000000 0.535811 0.844338
vn 0.000000 -1.000000 0.000000
vn 0.000000 -1.000000 0.000000
vn 0.000000 -1.000000 0.000000
vn 0.000000 -1.000000 0.000000
vn 0.000000 -1.000000 0.000000
vn 0.000000 -1.000000 0.000000
vn -0.995099 0.040414 0.090253
vn -0.999285 0.034428 0.015649
vn -0.998476 0.026156 0.048605
vn -0.995099 0.040414 0.090253
vn -0.998476 0.026156 0.048605
vn -0.994512 0.030352 0.100122
vn 0.000000 0.907488 -0.420079
vn 0.000000 0.447668 -0.894200
vn 0.000000 0.447668 -0.894200
vn 0.000000 0.907488 -0.420079
vn 0.000000 0.447668 -0.894200
vn 0.000000 0.977153 -0.212538
vn 0.000000 -0.907532 0.419983
vn 0.000000 -0.447661 0.894203
vn 0.000000 -0.447661 0.894203
vn 0.000000 -0.907532 0.419983
vn 0.000000 -0.447661 0.894203
vn 0.000000 -0.977096 0.212799
vn 0.995741 0.062160 0.068095
vn 0.996241 0.078858 0.035845
vn 0.998423 0.043292 0.035753
vn 0.995741 0.062160 0.068095
vn 0.998423 0.043292 0.035753
vn 0.997247 0.025757 0.069529
vn -0.997251 0.027714 0.068718
vn -0.995099 0.040414 0.090253
vn -0.994512 0.030352 0.100122
vn -0.997251 0.027714 0.068718
vn -0.994512 0.030352 0.100122
vn -0.997384 0.038732 0.061035
vn 0.000000 0.999989 -0.004773
vn 0.000000 0.907488 -0.420079
vn 0.000000 0.977153 -0.212538
vn 0.000000 0.999989 -0.004773
vn 0.000000 0.977153 -0.212538
vn 0.000000 0.999989 -0.004773
vn 0.000000 -0.479410 0.877591
vn 0.000000 -0.907532 0.419983
vn 0.000000 -0.977096 0.212799
vn 0.000000 -0.479410 0.877591
vn 0.000000 -0.977096 0.212799
vn 0.000000 -0.479410 0.877591
vn 0.997160 0.030858 0.068698
vn 0.995741 0.062160 0.068095
vn 0.997247 0.025757 0.069529
vn 0.997160 0.030858 0.068698
vn 0.997247 0.025757 0.069529
vn 0.995924 0.048331 0.076160

# texture coords: 84
vt 0.000000 1.000000
vt 0.000000 0.000000
vt 1.000000 1.000000
vt 0.000000 0.000000
vt 1.000000 0.000000
vt 1.000000 1.000000
vt 0.000000 1.000000
vt 0.000000 0.000000
vt 1.000000 1.000000
vt 0.000000 0.000000
vt 1.000000 0.000000
vt 1.000000 1.000000
vt 0.000000 1.000000
vt 0.000000 0.000000
vt 1.000000 1.000000
vt 0.000000 0.000000
vt 1.000000 0.000000
vt 1.000000 1.000000
vt 0.000000 1.000000
vt 0.000000 0.000000
vt 1.000000 1.000000
vt 0.000000 0.000000
vt 1.000000 0.000000
vt 1.000000 1.000000
vt 0.000000 1.000000
vt 0.000000 0.000000
vt 1.000000 1.000000
vt 0.000000 0.000000
vt 1.000000 0.000000
vt 1.000000 1.000000
vt 0.000000 1.000000
vt 0.000000 0.000000
vt 1.000000 1.000000
vt 0.000000 0.000000
vt 1.000000 0.000000
vt 1.000000 1.000000
vt 0.000000 1.000000
vt 0.000000 1.000000
vt 0.000000 1.000000
vt 0.000000 1.000000
vt 0.000000 1.000000
vt 0.000000 1.000000
vt 0.000000 1.000000
vt 0.000000 1.000000
vt 0.000000 1.000000
vt 0.000000 1.000000
vt 0.000000 1.000000
vt 0.000000 1.000000
vt 0.000000 1.000000
vt 0.000000 1.000000
vt 0.000000 1.000000
vt 0.000000 1.000000
vt 0.000000 1.000000
vt 0.000000 1.000000
vt 0.000000 1.000000
vt 0.000000 1.000000
vt 0.000000 1.000000
vt 0.000000 1.000000
vt 0.000000 1.000000
vt 0.000000 1.000000
vt 0.000000 1.000000
vt 0.000000 1.000000
vt 0.000000 1.000000
vt 0.000000 1.000000
vt 0.000000 1.000000
vt 0.000000 1.000000
vt 0.000000 1.000000
vt 0.000000 1.000000
vt 0.000000 1.000000
vt 0.000000 1.000000
vt 0.000000 1.000000
vt 0.000000 1.000000
vt 0.000000 1.000000
vt 0.000000 1.000000
vt 0.000000 1.000000
vt 0.000000 1.000000
vt 0.000000 1.000000
vt 0.000000 1.000000
vt 0.000000 1.000000
vt 0.000000 1.000000
vt 0.000000 1.000000
vt 0.000000 1.000000
vt 0.000000 1.000000
vt 0.000000 1.000000

# polygons: 28

f 1/1/1 2/2/2 3/3/3
f 2/4/4 4/5/5 3/6/6
f 3/7/7 4/8/8 5/9/9
f 4/10/10 6/11/11 5/12/12
f 5/13/13 6/14/14 7/15/15
f 6/16/16 8/17/17 7/18/18
f 7/19/19 8/20/20 1/21/21
f 8/22/22 2/23/23 1/24/24
f 13/25/25 14/26/26 15/27/27
f 14/28/28 16/29/29 15/30/30
f 2/31/31 8/32/32 4/33/33
f 8/34/34 6/35/35 4/36/36
f 9/37/37 7/38/38 1/39/39
f 9/40/40 1/41/41 10/42/42
f 11/43/43 5/44/44 7/45/45
f 11/46/46 7/47/47 9/48/48
f 10/49/49 1/50/50 3/51/51
f 10/52/52 3/53/53 12/54/54
f 12/55/55 3/56/56 5/57/57
f 12/58/58 5/59/59 11/60/60
f 13/61/61 9/62/62 10/63/63
f 13/64/64 10/65/65 14/66/66
f 15/67/67 11/68/68 9/69/69
f 15/70/70 9/71/71 13/72/72
f 14/73/73 10/74/74 12/75/75
f 14/76/76 12/77/77 16/78/78
f 16/79/79 12/80/80 11/81/81
f 16/82/82 11/83/83 15/84/84

# object end 'Converted object 0'
