# created by: Biturn ver 0.88
# http://mirex.mypage.sk
# ------------------------------------
# 78 vertices, 72 polygons, 216 points, 1 materials




#-- object 'Converted object 0' --
# 78 vertices, 72 polygons, 216 points

g Converted object 0

# vertexs: 78
v 0.000000 0.381758 0.002097
v 0.000000 0.314562 -0.165987
v 0.000000 0.206305 -0.303023
v 0.000000 -0.003038 -0.389206
v 0.000000 -0.247508 -0.318871
v 0.000000 -0.264581 -0.172735
v 0.000000 -0.407178 0.003271
v 0.000000 -0.300383 0.273644
v 0.000000 -0.185354 0.313214
v 0.000000 0.003595 0.388597
v 0.000000 0.203350 0.360478
v 0.000000 0.302709 0.173418
v 0.338335 0.001336 0.000333
v 0.000000 0.381758 0.002097
v 0.000000 0.314562 -0.165987
v 0.000000 0.206305 -0.303023
v 0.000000 -0.003038 -0.389206
v 0.000000 -0.247508 -0.318871
v 0.000000 -0.264581 -0.172735
v 0.000000 -0.407178 0.003271
v 0.000000 -0.300383 0.273644
v 0.000000 -0.185354 0.313214
v 0.000000 0.003595 0.388597
v 0.000000 0.203350 0.360478
v 0.000000 0.302709 0.173418
v -0.325805 0.001336 0.000333
v 0.002097 0.381758 0.000000
v -0.165987 0.314562 -0.000000
v -0.303023 0.206305 -0.000000
v -0.389206 -0.003038 -0.000000
v -0.318871 -0.247508 -0.000000
v -0.172735 -0.264581 -0.000000
v 0.003271 -0.407178 0.000000
v 0.273644 -0.300383 0.000000
v 0.313214 -0.185354 0.000000
v 0.388597 0.003595 0.000000
v 0.360478 0.203350 0.000000
v 0.173418 0.302709 0.000000
v 0.000333 0.001336 -0.338335
v 0.002097 0.381758 0.000000
v -0.165987 0.314562 -0.000000
v -0.303023 0.206305 -0.000000
v -0.389206 -0.003038 -0.000000
v -0.318871 -0.247508 -0.000000
v -0.172735 -0.264581 -0.000000
v 0.003271 -0.407178 0.000000
v 0.273644 -0.300383 0.000000
v 0.313214 -0.185354 0.000000
v 0.388597 0.003595 0.000000
v 0.360478 0.203350 0.000000
v 0.173418 0.302709 0.000000
v 0.000333 0.001336 0.325805
v 0.002097 0.000000 0.381758
v -0.165987 0.000000 0.314562
v -0.303023 0.000000 0.206305
v -0.389206 0.000000 -0.003038
v -0.318871 0.000000 -0.247508
v -0.172735 -0.000000 -0.264581
v 0.003271 -0.000000 -0.407178
v 0.273644 -0.000000 -0.300383
v 0.313214 -0.000000 -0.185354
v 0.388597 -0.000000 0.003595
v 0.360478 -0.000000 0.203350
v 0.173418 0.000000 0.302709
v 0.000333 0.338335 0.001336
v 0.002097 0.000000 0.381758
v -0.165987 0.000000 0.314562
v -0.303023 0.000000 0.206305
v -0.389206 0.000000 -0.003038
v -0.318871 0.000000 -0.247508
v -0.172735 -0.000000 -0.264581
v 0.003271 -0.000000 -0.407178
v 0.273644 -0.000000 -0.300383
v 0.313214 -0.000000 -0.185354
v 0.388597 -0.000000 0.003595
v 0.360478 -0.000000 0.203350
v 0.173418 0.000000 0.302709
v 0.000333 -0.325805 0.001336

# normals: 216
vn 0.747144 0.664401 0.018629
vn 0.999208 0.021365 0.033556
vn 0.723315 0.597572 -0.346011
vn 0.723315 0.597572 -0.346011
vn 0.999208 0.021365 0.033556
vn 0.733923 0.410104 -0.541453
vn 0.733923 0.410104 -0.541453
vn 0.999208 0.021365 0.033556
vn 0.754190 0.039091 -0.655492
vn 0.754190 0.039091 -0.655492
vn 0.999208 0.021365 0.033556
vn 0.757169 -0.516511 -0.399889
vn 0.757169 -0.516511 -0.399889
vn 0.999208 0.021365 0.033556
vn 0.677755 -0.679529 -0.280870
vn 0.677755 -0.679529 -0.280870
vn 0.999208 0.021365 0.033556
vn 0.764574 -0.634060 -0.115731
vn 0.764574 -0.634060 -0.115731
vn 0.999208 0.021365 0.033556
vn 0.768064 -0.438695 0.466503
vn 0.768064 -0.438695 0.466503
vn 0.999208 0.021365 0.033556
vn 0.727064 -0.238908 0.643663
vn 0.727064 -0.238908 0.643663
vn 0.999208 0.021365 0.033556
vn 0.751133 -0.082151 0.655020
vn 0.751133 -0.082151 0.655020
vn 0.999208 0.021365 0.033556
vn 0.771485 0.372386 0.515886
vn 0.771485 0.372386 0.515886
vn 0.999208 0.021365 0.033556
vn 0.715881 0.625564 0.310136
vn 0.715881 0.625564 0.310136
vn 0.999208 0.021365 0.033556
vn 0.747144 0.664401 0.018629
vn -0.736188 0.585676 -0.339134
vn -0.999280 0.020267 0.032083
vn -0.759439 0.650322 0.018282
vn -0.746549 0.401746 -0.530344
vn -0.999280 0.020267 0.032083
vn -0.736188 0.585676 -0.339134
vn -0.766293 0.038344 -0.641346
vn -0.999280 0.020267 0.032083
vn -0.746549 0.401746 -0.530344
vn -0.769055 -0.506088 -0.390423
vn -0.999280 0.020267 0.032083
vn -0.766293 0.038344 -0.641346
vn -0.691462 -0.667709 -0.275763
vn -0.999280 0.020267 0.032083
vn -0.769055 -0.506088 -0.390423
vn -0.776328 -0.619968 -0.113819
vn -0.999280 0.020267 0.032083
vn -0.691462 -0.667709 -0.275763
vn -0.779768 -0.428765 0.456204
vn -0.999280 0.020267 0.032083
vn -0.776328 -0.619968 -0.113819
vn -0.739852 -0.234104 0.630726
vn -0.999280 0.020267 0.032083
vn -0.779768 -0.428765 0.456204
vn -0.763315 -0.080500 0.640991
vn -0.999280 0.020267 0.032083
vn -0.739852 -0.234104 0.630726
vn -0.783078 0.364248 0.504095
vn -0.999280 0.020267 0.032083
vn -0.763315 -0.080500 0.640991
vn -0.728915 0.613363 0.304087
vn -0.999280 0.020267 0.032083
vn -0.783078 0.364248 0.504095
vn -0.759439 0.650322 0.018282
vn -0.999280 0.020267 0.032083
vn -0.728915 0.613363 0.304087
vn 0.018629 0.664401 -0.747144
vn 0.033556 0.021365 -0.999208
vn -0.346011 0.597572 -0.723315
vn -0.346011 0.597572 -0.723315
vn 0.033556 0.021365 -0.999208
vn -0.541453 0.410104 -0.733923
vn -0.541453 0.410104 -0.733923
vn 0.033556 0.021365 -0.999208
vn -0.655492 0.039091 -0.754190
vn -0.655492 0.039091 -0.754190
vn 0.033556 0.021365 -0.999208
vn -0.399889 -0.516511 -0.757169
vn -0.399889 -0.516511 -0.757169
vn 0.033556 0.021365 -0.999208
vn -0.280870 -0.679529 -0.677755
vn -0.280870 -0.679529 -0.677755
vn 0.033556 0.021365 -0.999208
vn -0.115731 -0.634060 -0.764574
vn -0.115731 -0.634060 -0.764574
vn 0.033556 0.021365 -0.999208
vn 0.466503 -0.438695 -0.768064
vn 0.466503 -0.438695 -0.768064
vn 0.033556 0.021365 -0.999208
vn 0.643663 -0.238908 -0.727064
vn 0.643663 -0.238908 -0.727064
vn 0.033556 0.021365 -0.999208
vn 0.655020 -0.082151 -0.751133
vn 0.655020 -0.082151 -0.751133
vn 0.033556 0.021365 -0.999208
vn 0.515886 0.372386 -0.771485
vn 0.515886 0.372386 -0.771485
vn 0.033556 0.021365 -0.999208
vn 0.310136 0.625564 -0.715881
vn 0.310136 0.625564 -0.715881
vn 0.033556 0.021365 -0.999208
vn 0.018629 0.664401 -0.747144
vn -0.339134 0.585676 0.736188
vn 0.032083 0.020267 0.999280
vn 0.018282 0.650322 0.759439
vn -0.530344 0.401746 0.746549
vn 0.032083 0.020267 0.999280
vn -0.339134 0.585676 0.736188
vn -0.641346 0.038344 0.766293
vn 0.032083 0.020267 0.999280
vn -0.530344 0.401746 0.746549
vn -0.390423 -0.506088 0.769055
vn 0.032083 0.020267 0.999280
vn -0.641346 0.038344 0.766293
vn -0.275763 -0.667709 0.691462
vn 0.032083 0.020267 0.999280
vn -0.390423 -0.506088 0.769055
vn -0.113819 -0.619968 0.776328
vn 0.032083 0.020267 0.999280
vn -0.275763 -0.667709 0.691462
vn 0.456204 -0.428765 0.779768
vn 0.032083 0.020267 0.999280
vn -0.113819 -0.619968 0.776328
vn 0.630726 -0.234104 0.739852
vn 0.032083 0.020267 0.999280
vn 0.456204 -0.428765 0.779768
vn 0.640991 -0.080500 0.763315
vn 0.032083 0.020267 0.999280
vn 0.630726 -0.234104 0.739852
vn 0.504095 0.364248 0.783078
vn 0.032083 0.020267 0.999280
vn 0.640991 -0.080500 0.763315
vn 0.304087 0.613363 0.728915
vn 0.032083 0.020267 0.999280
vn 0.504095 0.364248 0.783078
vn 0.018282 0.650322 0.759439
vn 0.032083 0.020267 0.999280
vn 0.304087 0.613363 0.728915
vn 0.018629 0.747144 0.664401
vn 0.033556 0.999208 0.021365
vn -0.346011 0.723315 0.597572
vn -0.346011 0.723315 0.597572
vn 0.033556 0.999208 0.021365
vn -0.541453 0.733923 0.410104
vn -0.541453 0.733923 0.410104
vn 0.033556 0.999208 0.021365
vn -0.655492 0.754190 0.039091
vn -0.655492 0.754190 0.039091
vn 0.033556 0.999208 0.021365
vn -0.399889 0.757169 -0.516511
vn -0.399889 0.757169 -0.516511
vn 0.033556 0.999208 0.021365
vn -0.280870 0.677755 -0.679529
vn -0.280870 0.677755 -0.679529
vn 0.033556 0.999208 0.021365
vn -0.115731 0.764574 -0.634060
vn -0.115731 0.764574 -0.634060
vn 0.033556 0.999208 0.021365
vn 0.466503 0.768064 -0.438695
vn 0.466503 0.768064 -0.438695
vn 0.033556 0.999208 0.021365
vn 0.643663 0.727064 -0.238908
vn 0.643663 0.727064 -0.238908
vn 0.033556 0.999208 0.021365
vn 0.655020 0.751133 -0.082151
vn 0.655020 0.751133 -0.082151
vn 0.033556 0.999208 0.021365
vn 0.515886 0.771485 0.372386
vn 0.515886 0.771485 0.372386
vn 0.033556 0.999208 0.021365
vn 0.310136 0.715881 0.625564
vn 0.310136 0.715881 0.625564
vn 0.033556 0.999208 0.021365
vn 0.018629 0.747144 0.664401
vn -0.339134 -0.736188 0.585676
vn 0.032083 -0.999280 0.020267
vn 0.018282 -0.759439 0.650322
vn -0.530344 -0.746549 0.401746
vn 0.032083 -0.999280 0.020267
vn -0.339134 -0.736188 0.585676
vn -0.641346 -0.766293 0.038344
vn 0.032083 -0.999280 0.020267
vn -0.530344 -0.746549 0.401746
vn -0.390423 -0.769055 -0.506088
vn 0.032083 -0.999280 0.020267
vn -0.641346 -0.766293 0.038344
vn -0.275763 -0.691462 -0.667709
vn 0.032083 -0.999280 0.020267
vn -0.390423 -0.769055 -0.506088
vn -0.113819 -0.776328 -0.619968
vn 0.032083 -0.999280 0.020267
vn -0.275763 -0.691462 -0.667709
vn 0.456204 -0.779768 -0.428765
vn 0.032083 -0.999280 0.020267
vn -0.113819 -0.776328 -0.619968
vn 0.630726 -0.739852 -0.234104
vn 0.032083 -0.999280 0.020267
vn 0.456204 -0.779768 -0.428765
vn 0.640991 -0.763315 -0.080500
vn 0.032083 -0.999280 0.020267
vn 0.630726 -0.739852 -0.234104
vn 0.504095 -0.783078 0.364248
vn 0.032083 -0.999280 0.020267
vn 0.640991 -0.763315 -0.080500
vn 0.304087 -0.728915 0.613363
vn 0.032083 -0.999280 0.020267
vn 0.504095 -0.783078 0.364248
vn 0.018282 -0.759439 0.650322
vn 0.032083 -0.999280 0.020267
vn 0.304087 -0.728915 0.613363

# texture coords: 216
vt 0.859802 0.508431
vt 0.544876 0.508431
vt 0.839552 0.338300
vt 0.839552 0.338300
vt 0.544876 0.508431
vt 0.725229 0.203534
vt 0.725229 0.203534
vt 0.544876 0.508431
vt 0.481973 0.106925
vt 0.481973 0.106925
vt 0.544876 0.508431
vt 0.203567 0.197884
vt 0.203567 0.197884
vt 0.544876 0.508431
vt 0.253608 0.351929
vt 0.253608 0.351929
vt 0.544876 0.508431
vt 0.058277 0.522147
vt 0.058277 0.522147
vt 0.544876 0.508431
vt 0.185142 0.858303
vt 0.185142 0.858303
vt 0.544876 0.508431
vt 0.353719 0.863186
vt 0.353719 0.863186
vt 0.544876 0.508431
vt 0.548284 0.910024
vt 0.548284 0.910024
vt 0.544876 0.508431
vt 0.745673 0.874659
vt 0.745673 0.874659
vt 0.544876 0.508431
vt 0.802829 0.696094
vt 0.802829 0.696094
vt 0.544876 0.508431
vt 0.859802 0.508431
vt 0.839552 0.338300
vt 0.544876 0.508431
vt 0.859802 0.508431
vt 0.725229 0.203534
vt 0.544876 0.508431
vt 0.839552 0.338300
vt 0.481973 0.106925
vt 0.544876 0.508431
vt 0.725229 0.203534
vt 0.203567 0.197884
vt 0.544876 0.508431
vt 0.481973 0.106925
vt 0.253608 0.351929
vt 0.544876 0.508431
vt 0.203567 0.197884
vt 0.058277 0.522147
vt 0.544876 0.508431
vt 0.253608 0.351929
vt 0.185142 0.858303
vt 0.544876 0.508431
vt 0.058277 0.522147
vt 0.353719 0.863186
vt 0.544876 0.508431
vt 0.185142 0.858303
vt 0.548284 0.910024
vt 0.544876 0.508431
vt 0.353719 0.863186
vt 0.745673 0.874659
vt 0.544876 0.508431
vt 0.548284 0.910024
vt 0.802829 0.696094
vt 0.544876 0.508431
vt 0.745673 0.874659
vt 0.859802 0.508431
vt 0.544876 0.508431
vt 0.802829 0.696094
vt 0.859802 0.508431
vt 0.544876 0.508431
vt 0.839552 0.338300
vt 0.839552 0.338300
vt 0.544876 0.508431
vt 0.725229 0.203534
vt 0.725229 0.203534
vt 0.544876 0.508431
vt 0.481973 0.106925
vt 0.481973 0.106925
vt 0.544876 0.508431
vt 0.203567 0.197884
vt 0.203567 0.197884
vt 0.544876 0.508431
vt 0.253608 0.351929
vt 0.253608 0.351929
vt 0.544876 0.508431
vt 0.058277 0.522147
vt 0.058277 0.522147
vt 0.544876 0.508431
vt 0.185142 0.858303
vt 0.185142 0.858303
vt 0.544876 0.508431
vt 0.353719 0.863186
vt 0.353719 0.863186
vt 0.544876 0.508431
vt 0.548284 0.910024
vt 0.548284 0.910024
vt 0.544876 0.508431
vt 0.745673 0.874659
vt 0.745673 0.874659
vt 0.544876 0.508431
vt 0.802829 0.696094
vt 0.802829 0.696094
vt 0.544876 0.508431
vt 0.859802 0.508431
vt 0.839552 0.338300
vt 0.544876 0.508431
vt 0.859802 0.508431
vt 0.725229 0.203534
vt 0.544876 0.508431
vt 0.839552 0.338300
vt 0.481973 0.106925
vt 0.544876 0.508431
vt 0.725229 0.203534
vt 0.203567 0.197884
vt 0.544876 0.508431
vt 0.481973 0.106925
vt 0.253608 0.351929
vt 0.544876 0.508431
vt 0.203567 0.197884
vt 0.058277 0.522147
vt 0.544876 0.508431
vt 0.253608 0.351929
vt 0.185142 0.858303
vt 0.544876 0.508431
vt 0.058277 0.522147
vt 0.353719 0.863186
vt 0.544876 0.508431
vt 0.185142 0.858303
vt 0.548284 0.910024
vt 0.544876 0.508431
vt 0.353719 0.863186
vt 0.745673 0.874659
vt 0.544876 0.508431
vt 0.548284 0.910024
vt 0.802829 0.696094
vt 0.544876 0.508431
vt 0.745673 0.874659
vt 0.859802 0.508431
vt 0.544876 0.508431
vt 0.802829 0.696094
vt 0.859802 0.508431
vt 0.544876 0.508431
vt 0.839552 0.338300
vt 0.839552 0.338300
vt 0.544876 0.508431
vt 0.725229 0.203534
vt 0.725229 0.203534
vt 0.544876 0.508431
vt 0.481973 0.106925
vt 0.481973 0.106925
vt 0.544876 0.508431
vt 0.203567 0.197884
vt 0.203567 0.197884
vt 0.544876 0.508431
vt 0.253608 0.351929
vt 0.253608 0.351929
vt 0.544876 0.508431
vt 0.058277 0.522147
vt 0.058277 0.522147
vt 0.544876 0.508431
vt 0.185142 0.858303
vt 0.185142 0.858303
vt 0.544876 0.508431
vt 0.353719 0.863186
vt 0.353719 0.863186
vt 0.544876 0.508431
vt 0.548284 0.910024
vt 0.548284 0.910024
vt 0.544876 0.508431
vt 0.745673 0.874659
vt 0.745673 0.874659
vt 0.544876 0.508431
vt 0.802829 0.696094
vt 0.802829 0.696094
vt 0.544876 0.508431
vt 0.859802 0.508431
vt 0.839552 0.338300
vt 0.544876 0.508431
vt 0.859802 0.508431
vt 0.725229 0.203534
vt 0.544876 0.508431
vt 0.839552 0.338300
vt 0.481973 0.106925
vt 0.544876 0.508431
vt 0.725229 0.203534
vt 0.203567 0.197884
vt 0.544876 0.508431
vt 0.481973 0.106925
vt 0.253608 0.351929
vt 0.544876 0.508431
vt 0.203567 0.197884
vt 0.058277 0.522147
vt 0.544876 0.508431
vt 0.253608 0.351929
vt 0.185142 0.858303
vt 0.544876 0.508431
vt 0.058277 0.522147
vt 0.353719 0.863186
vt 0.544876 0.508431
vt 0.185142 0.858303
vt 0.548284 0.910024
vt 0.544876 0.508431
vt 0.353719 0.863186
vt 0.745673 0.874659
vt 0.544876 0.508431
vt 0.548284 0.910024
vt 0.802829 0.696094
vt 0.544876 0.508431
vt 0.745673 0.874659
vt 0.859802 0.508431
vt 0.544876 0.508431
vt 0.802829 0.696094

# polygons: 72

f 1/1/1 13/2/2 2/3/3
f 2/4/4 13/5/5 3/6/6
f 3/7/7 13/8/8 4/9/9
f 4/10/10 13/11/11 5/12/12
f 5/13/13 13/14/14 6/15/15
f 6/16/16 13/17/17 7/18/18
f 7/19/19 13/20/20 8/21/21
f 8/22/22 13/23/23 9/24/24
f 9/25/25 13/26/26 10/27/27
f 10/28/28 13/29/29 11/30/30
f 11/31/31 13/32/32 12/33/33
f 12/34/34 13/35/35 1/36/36
f 15/37/37 26/38/38 14/39/39
f 16/40/40 26/41/41 15/42/42
f 17/43/43 26/44/44 16/45/45
f 18/46/46 26/47/47 17/48/48
f 19/49/49 26/50/50 18/51/51
f 20/52/52 26/53/53 19/54/54
f 21/55/55 26/56/56 20/57/57
f 22/58/58 26/59/59 21/60/60
f 23/61/61 26/62/62 22/63/63
f 24/64/64 26/65/65 23/66/66
f 25/67/67 26/68/68 24/69/69
f 14/70/70 26/71/71 25/72/72
f 27/73/73 39/74/74 28/75/75
f 28/76/76 39/77/77 29/78/78
f 29/79/79 39/80/80 30/81/81
f 30/82/82 39/83/83 31/84/84
f 31/85/85 39/86/86 32/87/87
f 32/88/88 39/89/89 33/90/90
f 33/91/91 39/92/92 34/93/93
f 34/94/94 39/95/95 35/96/96
f 35/97/97 39/98/98 36/99/99
f 36/100/100 39/101/101 37/102/102
f 37/103/103 39/104/104 38/105/105
f 38/106/106 39/107/107 27/108/108
f 41/109/109 52/110/110 40/111/111
f 42/112/112 52/113/113 41/114/114
f 43/115/115 52/116/116 42/117/117
f 44/118/118 52/119/119 43/120/120
f 45/121/121 52/122/122 44/123/123
f 46/124/124 52/125/125 45/126/126
f 47/127/127 52/128/128 46/129/129
f 48/130/130 52/131/131 47/132/132
f 49/133/133 52/134/134 48/135/135
f 50/136/136 52/137/137 49/138/138
f 51/139/139 52/140/140 50/141/141
f 40/142/142 52/143/143 51/144/144
f 53/145/145 65/146/146 54/147/147
f 54/148/148 65/149/149 55/150/150
f 55/151/151 65/152/152 56/153/153
f 56/154/154 65/155/155 57/156/156
f 57/157/157 65/158/158 58/159/159
f 58/160/160 65/161/161 59/162/162
f 59/163/163 65/164/164 60/165/165
f 60/166/166 65/167/167 61/168/168
f 61/169/169 65/170/170 62/171/171
f 62/172/172 65/173/173 63/174/174
f 63/175/175 65/176/176 64/177/177
f 64/178/178 65/179/179 53/180/180
f 67/181/181 78/182/182 66/183/183
f 68/184/184 78/185/185 67/186/186
f 69/187/187 78/188/188 68/189/189
f 70/190/190 78/191/191 69/192/192
f 71/193/193 78/194/194 70/195/195
f 72/196/196 78/197/197 71/198/198
f 73/199/199 78/200/200 72/201/201
f 74/202/202 78/203/203 73/204/204
f 75/205/205 78/206/206 74/207/207
f 76/208/208 78/209/209 75/210/210
f 77/211/211 78/212/212 76/213/213
f 66/214/214 78/215/215 77/216/216

# object end 'Converted object 0'
