# Blender v3.1.2 OBJ File: ''
# www.blender.org
mtllib SteamCloud.mtl
o SteamCloud
v 0.000000 0.381758 0.002097
v 0.338335 0.001336 0.000333
v 0.000000 0.314562 -0.165987
v 0.000000 0.206305 -0.303023
v 0.000000 -0.003038 -0.389206
v 0.000000 -0.247508 -0.318871
v 0.000000 -0.264581 -0.172735
v 0.000000 -0.407178 0.003271
v 0.000000 -0.300383 0.273644
v 0.000000 -0.185354 0.313214
v 0.000000 0.003595 0.388597
v 0.000000 0.203350 0.360478
v 0.000000 0.302709 0.173418
v 0.000000 0.314562 -0.165987
v -0.325805 0.001336 0.000333
v 0.000000 0.381758 0.002097
v 0.000000 0.206305 -0.303023
v 0.000000 -0.003038 -0.389206
v 0.000000 -0.247508 -0.318871
v 0.000000 -0.264581 -0.172735
v 0.000000 -0.407178 0.003271
v 0.000000 -0.300383 0.273644
v 0.000000 -0.185354 0.313214
v 0.000000 0.003595 0.388597
v 0.000000 0.203350 0.360478
v 0.000000 0.302709 0.173418
v 0.002097 0.381758 0.000000
v 0.000333 0.001336 -0.338335
v -0.165987 0.314562 0.000000
v -0.303023 0.206305 0.000000
v -0.389206 -0.003038 -0.000000
v -0.318871 -0.247508 -0.000000
v -0.172735 -0.264581 -0.000000
v 0.003271 -0.407178 -0.000000
v 0.273644 -0.300383 -0.000000
v 0.313214 -0.185354 -0.000000
v 0.388597 0.003595 0.000000
v 0.360478 0.203350 0.000000
v 0.173418 0.302709 0.000000
v -0.165987 0.314562 0.000000
v 0.000333 0.001336 0.325805
v 0.002097 0.381758 0.000000
v -0.303023 0.206305 0.000000
v -0.389206 -0.003038 -0.000000
v -0.318871 -0.247508 -0.000000
v -0.172735 -0.264581 -0.000000
v 0.003271 -0.407178 -0.000000
v 0.273644 -0.300383 -0.000000
v 0.313214 -0.185354 -0.000000
v 0.388597 0.003595 0.000000
v 0.360478 0.203350 0.000000
v 0.173418 0.302709 0.000000
v 0.002097 -0.000000 0.381758
v 0.000333 0.338335 0.001336
v -0.165987 -0.000000 0.314562
v -0.303023 -0.000000 0.206305
v -0.389206 0.000000 -0.003038
v -0.318871 0.000000 -0.247508
v -0.172735 0.000000 -0.264581
v 0.003271 0.000000 -0.407178
v 0.273644 0.000000 -0.300383
v 0.313214 0.000000 -0.185354
v 0.388597 -0.000000 0.003595
v 0.360478 -0.000000 0.203350
v 0.173418 -0.000000 0.302709
v -0.165987 -0.000000 0.314562
v 0.000333 -0.325805 0.001336
v 0.002097 -0.000000 0.381758
v -0.303023 -0.000000 0.206305
v -0.389206 0.000000 -0.003038
v -0.318871 0.000000 -0.247508
v -0.172735 0.000000 -0.264581
v 0.003271 0.000000 -0.407178
v 0.273644 0.000000 -0.300383
v 0.313214 0.000000 -0.185354
v 0.388597 -0.000000 0.003595
v 0.360478 -0.000000 0.203350
v 0.173418 -0.000000 0.302709
vt 0.859802 0.508431
vt 0.544876 0.508431
vt 0.839552 0.338300
vt 0.725229 0.203534
vt 0.481973 0.106925
vt 0.203567 0.197884
vt 0.253608 0.351929
vt 0.058277 0.522147
vt 0.185142 0.858303
vt 0.353719 0.863186
vt 0.548284 0.910024
vt 0.745673 0.874659
vt 0.802829 0.696094
vt 0.839552 0.338300
vt 0.544876 0.508431
vt 0.859802 0.508431
vt 0.725229 0.203534
vt 0.481973 0.106925
vt 0.203567 0.197884
vt 0.253608 0.351929
vt 0.058277 0.522147
vt 0.185142 0.858303
vt 0.353719 0.863186
vt 0.548284 0.910024
vt 0.745673 0.874659
vt 0.802829 0.696094
vt 0.859802 0.508431
vt 0.544876 0.508431
vt 0.839552 0.338300
vt 0.725229 0.203534
vt 0.481973 0.106925
vt 0.203567 0.197884
vt 0.253608 0.351929
vt 0.058277 0.522147
vt 0.185142 0.858303
vt 0.353719 0.863186
vt 0.548284 0.910024
vt 0.745673 0.874659
vt 0.802829 0.696094
vt 0.839552 0.338300
vt 0.544876 0.508431
vt 0.859802 0.508431
vt 0.725229 0.203534
vt 0.481973 0.106925
vt 0.203567 0.197884
vt 0.253608 0.351929
vt 0.058277 0.522147
vt 0.185142 0.858303
vt 0.353719 0.863186
vt 0.548284 0.910024
vt 0.745673 0.874659
vt 0.802829 0.696094
vt 0.859802 0.508431
vt 0.544876 0.508431
vt 0.839552 0.338300
vt 0.725229 0.203534
vt 0.481973 0.106925
vt 0.203567 0.197884
vt 0.253608 0.351929
vt 0.058277 0.522147
vt 0.185142 0.858303
vt 0.353719 0.863186
vt 0.548284 0.910024
vt 0.745673 0.874659
vt 0.802829 0.696094
vt 0.839552 0.338300
vt 0.544876 0.508431
vt 0.859802 0.508431
vt 0.725229 0.203534
vt 0.481973 0.106925
vt 0.203567 0.197884
vt 0.253608 0.351929
vt 0.058277 0.522147
vt 0.185142 0.858303
vt 0.353719 0.863186
vt 0.548284 0.910024
vt 0.745673 0.874659
vt 0.802829 0.696094
vn 0.7472 0.6644 0.0152
vn 0.9999 0.0084 -0.0106
vn 0.7233 0.5984 -0.3444
vn 0.7340 0.4062 -0.5443
vn 0.7545 0.0306 -0.6556
vn 0.7629 -0.4760 -0.4375
vn 0.6763 -0.6861 -0.2680
vn 0.7675 -0.6362 -0.0789
vn 0.7685 -0.4474 0.4574
vn 0.7269 -0.2376 0.6443
vn 0.7519 -0.0703 0.6556
vn 0.7724 0.3556 0.5262
vn 0.7159 0.6253 0.3106
vn -0.7362 0.5865 -0.3376
vn -0.9999 0.0084 -0.0106
vn -0.7595 0.6504 0.0148
vn -0.7467 0.3978 -0.5331
vn -0.7666 0.0299 -0.6415
vn -0.7748 -0.4653 -0.4281
vn -0.6900 -0.6743 -0.2629
vn -0.7792 -0.6220 -0.0769
vn -0.7802 -0.4374 0.4471
vn -0.7397 -0.2329 0.6313
vn -0.7640 -0.0686 0.6415
vn -0.7840 0.3475 0.5144
vn -0.7289 0.6131 0.3046
vn 0.0152 0.6644 -0.7472
vn -0.0106 0.0084 -0.9999
vn -0.3444 0.5984 -0.7233
vn -0.5443 0.4062 -0.7340
vn -0.6556 0.0306 -0.7545
vn -0.4375 -0.4760 -0.7629
vn -0.2680 -0.6861 -0.6763
vn -0.0789 -0.6362 -0.7675
vn 0.4574 -0.4474 -0.7685
vn 0.6443 -0.2376 -0.7269
vn 0.6556 -0.0703 -0.7519
vn 0.5262 0.3556 -0.7724
vn 0.3106 0.6253 -0.7159
vn -0.3376 0.5865 0.7362
vn -0.0106 0.0084 0.9999
vn 0.0148 0.6504 0.7595
vn -0.5331 0.3978 0.7467
vn -0.6415 0.0299 0.7666
vn -0.4281 -0.4653 0.7748
vn -0.2629 -0.6743 0.6900
vn -0.0769 -0.6220 0.7792
vn 0.4471 -0.4374 0.7802
vn 0.6313 -0.2329 0.7397
vn 0.6415 -0.0686 0.7640
vn 0.5144 0.3475 0.7840
vn 0.3046 0.6131 0.7289
vn 0.0152 0.7472 0.6644
vn -0.0106 0.9999 0.0084
vn -0.3444 0.7233 0.5984
vn -0.5443 0.7340 0.4062
vn -0.6556 0.7545 0.0306
vn -0.4375 0.7629 -0.4760
vn -0.2680 0.6763 -0.6861
vn -0.0789 0.7675 -0.6362
vn 0.4574 0.7685 -0.4474
vn 0.6443 0.7269 -0.2376
vn 0.6556 0.7519 -0.0703
vn 0.5262 0.7724 0.3556
vn 0.3106 0.7159 0.6253
vn -0.3376 -0.7362 0.5865
vn -0.0106 -0.9999 0.0084
vn 0.0148 -0.7595 0.6504
vn -0.5331 -0.7467 0.3978
vn -0.6415 -0.7666 0.0299
vn -0.4281 -0.7748 -0.4653
vn -0.2629 -0.6900 -0.6743
vn -0.0769 -0.7792 -0.6220
vn 0.4471 -0.7802 -0.4374
vn 0.6313 -0.7397 -0.2329
vn 0.6415 -0.7640 -0.0686
vn 0.5144 -0.7840 0.3475
vn 0.3046 -0.7289 0.6131
usemtl Default_OBJ.003
s 1
f 1/1/1 2/2/2 3/3/3
f 3/3/3 2/2/2 4/4/4
f 4/4/4 2/2/2 5/5/5
f 5/5/5 2/2/2 6/6/6
f 6/6/6 2/2/2 7/7/7
f 7/7/7 2/2/2 8/8/8
f 8/8/8 2/2/2 9/9/9
f 9/9/9 2/2/2 10/10/10
f 10/10/10 2/2/2 11/11/11
f 11/11/11 2/2/2 12/12/12
f 12/12/12 2/2/2 13/13/13
f 13/13/13 2/2/2 1/1/1
f 14/14/14 15/15/15 16/16/16
f 17/17/17 15/15/15 14/14/14
f 18/18/18 15/15/15 17/17/17
f 19/19/19 15/15/15 18/18/18
f 20/20/20 15/15/15 19/19/19
f 21/21/21 15/15/15 20/20/20
f 22/22/22 15/15/15 21/21/21
f 23/23/23 15/15/15 22/22/22
f 24/24/24 15/15/15 23/23/23
f 25/25/25 15/15/15 24/24/24
f 26/26/26 15/15/15 25/25/25
f 16/16/16 15/15/15 26/26/26
f 27/27/27 28/28/28 29/29/29
f 29/29/29 28/28/28 30/30/30
f 30/30/30 28/28/28 31/31/31
f 31/31/31 28/28/28 32/32/32
f 32/32/32 28/28/28 33/33/33
f 33/33/33 28/28/28 34/34/34
f 34/34/34 28/28/28 35/35/35
f 35/35/35 28/28/28 36/36/36
f 36/36/36 28/28/28 37/37/37
f 37/37/37 28/28/28 38/38/38
f 38/38/38 28/28/28 39/39/39
f 39/39/39 28/28/28 27/27/27
f 40/40/40 41/41/41 42/42/42
f 43/43/43 41/41/41 40/40/40
f 44/44/44 41/41/41 43/43/43
f 45/45/45 41/41/41 44/44/44
f 46/46/46 41/41/41 45/45/45
f 47/47/47 41/41/41 46/46/46
f 48/48/48 41/41/41 47/47/47
f 49/49/49 41/41/41 48/48/48
f 50/50/50 41/41/41 49/49/49
f 51/51/51 41/41/41 50/50/50
f 52/52/52 41/41/41 51/51/51
f 42/42/42 41/41/41 52/52/52
f 53/53/53 54/54/54 55/55/55
f 55/55/55 54/54/54 56/56/56
f 56/56/56 54/54/54 57/57/57
f 57/57/57 54/54/54 58/58/58
f 58/58/58 54/54/54 59/59/59
f 59/59/59 54/54/54 60/60/60
f 60/60/60 54/54/54 61/61/61
f 61/61/61 54/54/54 62/62/62
f 62/62/62 54/54/54 63/63/63
f 63/63/63 54/54/54 64/64/64
f 64/64/64 54/54/54 65/65/65
f 65/65/65 54/54/54 53/53/53
f 66/66/66 67/67/67 68/68/68
f 69/69/69 67/67/67 66/66/66
f 70/70/70 67/67/67 69/69/69
f 71/71/71 67/67/67 70/70/70
f 72/72/72 67/67/67 71/71/71
f 73/73/73 67/67/67 72/72/72
f 74/74/74 67/67/67 73/73/73
f 75/75/75 67/67/67 74/74/74
f 76/76/76 67/67/67 75/75/75
f 77/77/77 67/67/67 76/76/76
f 78/78/78 67/67/67 77/77/77
f 68/68/68 67/67/67 78/78/78
