# created by: Biturn ver 0.88
# http://mirex.mypage.sk
# ------------------------------------
# 50 vertices, 96 polygons, 288 points, 1 materials


mtllib TaikoStick.mtl

#-- object 'Converted object 0' --
# 50 vertices, 96 polygons, 288 points

g Converted object 0

# vertexs: 50
v 1.000000 -0.000000 -10.807613
v 1.000000 -0.000000 -4.140945
v 1.000000 -0.000000 2.525723
v 1.000000 -0.000000 9.192387
v 0.866025 -0.500000 -10.807613
v 0.866025 -0.500000 -4.140945
v 0.866025 -0.500000 2.525723
v 0.866025 -0.500000 9.192387
v 0.500000 -0.866026 -10.807613
v 0.500000 -0.866026 -4.140945
v 0.500000 -0.866026 2.525723
v 0.500000 -0.866026 9.192387
v 0.000000 -1.000000 -10.807613
v 0.000000 -1.000000 -4.140945
v 0.000000 -1.000000 2.525723
v 0.000000 -1.000000 9.192387
v -0.500000 -0.866026 -10.807613
v -0.500000 -0.866026 -4.140945
v -0.500000 -0.866026 2.525723
v -0.500000 -0.866026 9.192387
v -0.866025 -0.500000 -10.807613
v -0.866025 -0.500000 -4.140945
v -0.866025 -0.500000 2.525723
v -0.866025 -0.500000 9.192387
v -1.000000 -0.000000 -10.807613
v -1.000000 -0.000000 -4.140945
v -1.000000 -0.000000 2.525723
v -1.000000 -0.000000 9.192387
v -0.866025 0.500000 -10.807613
v -0.866025 0.500000 -4.140945
v -0.866025 0.500000 2.525723
v -0.866025 0.500000 9.192387
v -0.500000 0.866025 -10.807613
v -0.500000 0.866025 -4.140945
v -0.500000 0.866025 2.525723
v -0.500000 0.866025 9.192387
v 0.000000 1.000000 -10.807613
v 0.000000 1.000000 -4.140945
v 0.000000 1.000000 2.525723
v 0.000000 1.000000 9.192387
v 0.500000 0.866025 -10.807613
v 0.500000 0.866025 -4.140945
v 0.500000 0.866025 2.525723
v 0.500000 0.866025 9.192387
v 0.866025 0.500000 -10.807613
v 0.866025 0.500000 -4.140945
v 0.866025 0.500000 2.525723
v 0.866025 0.500000 9.192387
v 0.000000 -0.000000 9.192387
v 0.000000 -0.000000 -10.807613

# normals: 288
vn 0.000000 0.000000 -1.000000
vn 0.000000 0.000000 -1.000000
vn 0.000000 0.000000 -1.000000
vn 0.000000 0.000000 1.000000
vn 0.000000 0.000000 1.000000
vn 0.000000 0.000000 1.000000
vn 1.000000 -0.000000 0.000000
vn 1.000000 -0.000000 0.000000
vn 0.866025 -0.500000 0.000000
vn 1.000000 -0.000000 0.000000
vn 0.866025 -0.500000 0.000000
vn 0.866025 -0.500000 0.000000
vn 1.000000 -0.000000 0.000000
vn 1.000000 -0.000000 0.000000
vn 0.866025 -0.500000 0.000000
vn 1.000000 -0.000000 0.000000
vn 0.866025 -0.500000 0.000000
vn 0.866025 -0.500000 0.000000
vn 1.000000 -0.000000 0.000000
vn 1.000000 -0.000000 0.000000
vn 0.866025 -0.500000 0.000000
vn 1.000000 -0.000000 0.000000
vn 0.866025 -0.500000 0.000000
vn 0.866025 -0.500000 0.000000
vn 0.000000 0.000000 -1.000000
vn 0.000000 0.000000 -1.000000
vn 0.000000 0.000000 -1.000000
vn 0.000000 0.000000 1.000000
vn 0.000000 0.000000 1.000000
vn 0.000000 0.000000 1.000000
vn 0.866025 -0.500000 0.000000
vn 0.866025 -0.500000 0.000000
vn 0.500000 -0.866025 0.000000
vn 0.866025 -0.500000 0.000000
vn 0.500000 -0.866025 0.000000
vn 0.500000 -0.866025 0.000000
vn 0.866025 -0.500000 0.000000
vn 0.866025 -0.500000 0.000000
vn 0.500000 -0.866025 0.000000
vn 0.866025 -0.500000 0.000000
vn 0.500000 -0.866025 0.000000
vn 0.500000 -0.866025 0.000000
vn 0.866025 -0.500000 0.000000
vn 0.866025 -0.500000 0.000000
vn 0.500000 -0.866025 0.000000
vn 0.866025 -0.500000 0.000000
vn 0.500000 -0.866025 0.000000
vn 0.500000 -0.866025 0.000000
vn 0.000000 0.000000 -1.000000
vn 0.000000 0.000000 -1.000000
vn 0.000000 0.000000 -1.000000
vn 0.000000 0.000000 1.000000
vn 0.000000 0.000000 1.000000
vn 0.000000 0.000000 1.000000
vn 0.500000 -0.866025 0.000000
vn 0.500000 -0.866025 0.000000
vn 0.000000 -1.000000 0.000000
vn 0.500000 -0.866025 0.000000
vn 0.000000 -1.000000 0.000000
vn 0.000000 -1.000000 0.000000
vn 0.500000 -0.866025 0.000000
vn 0.500000 -0.866025 0.000000
vn -0.000000 -1.000000 0.000000
vn 0.500000 -0.866025 0.000000
vn -0.000000 -1.000000 0.000000
vn 0.000000 -1.000000 0.000000
vn 0.500000 -0.866025 0.000000
vn 0.500000 -0.866025 0.000000
vn -0.000000 -1.000000 0.000000
vn 0.500000 -0.866025 0.000000
vn 0.000000 -1.000000 0.000000
vn -0.000000 -1.000000 0.000000
vn 0.000000 0.000000 -1.000000
vn 0.000000 0.000000 -1.000000
vn 0.000000 0.000000 -1.000000
vn 0.000000 0.000000 1.000000
vn 0.000000 0.000000 1.000000
vn 0.000000 0.000000 1.000000
vn 0.000000 -1.000000 0.000000
vn 0.000000 -1.000000 0.000000
vn -0.500000 -0.866025 0.000000
vn 0.000000 -1.000000 0.000000
vn -0.500000 -0.866025 0.000000
vn -0.500000 -0.866025 0.000000
vn 0.000000 -1.000000 0.000000
vn -0.000000 -1.000000 0.000000
vn -0.500000 -0.866025 0.000000
vn -0.000000 -1.000000 0.000000
vn -0.500000 -0.866025 0.000000
vn -0.500000 -0.866025 0.000000
vn -0.000000 -1.000000 0.000000
vn 0.000000 -1.000000 0.000000
vn -0.500000 -0.866025 0.000000
vn -0.000000 -1.000000 0.000000
vn -0.500000 -0.866025 0.000000
vn -0.500000 -0.866025 0.000000
vn 0.000000 0.000000 -1.000000
vn 0.000000 0.000000 -1.000000
vn 0.000000 0.000000 -1.000000
vn 0.000000 0.000000 1.000000
vn 0.000000 0.000000 1.000000
vn 0.000000 0.000000 1.000000
vn -0.500000 -0.866025 0.000000
vn -0.500000 -0.866025 0.000000
vn -0.866025 -0.500000 0.000000
vn -0.500000 -0.866025 0.000000
vn -0.866025 -0.500000 0.000000
vn -0.866025 -0.500000 0.000000
vn -0.500000 -0.866025 0.000000
vn -0.500000 -0.866025 0.000000
vn -0.866025 -0.500000 0.000000
vn -0.500000 -0.866025 0.000000
vn -0.866025 -0.500000 0.000000
vn -0.866025 -0.500000 0.000000
vn -0.500000 -0.866025 0.000000
vn -0.500000 -0.866025 0.000000
vn -0.866025 -0.500000 0.000000
vn -0.500000 -0.866025 0.000000
vn -0.866025 -0.500000 0.000000
vn -0.866025 -0.500000 0.000000
vn 0.000000 0.000000 -1.000000
vn 0.000000 0.000000 -1.000000
vn 0.000000 0.000000 -1.000000
vn 0.000000 0.000000 1.000000
vn 0.000000 0.000000 1.000000
vn 0.000000 0.000000 1.000000
vn -0.866025 -0.500000 0.000000
vn -0.866025 -0.500000 0.000000
vn -1.000000 -0.000000 0.000000
vn -0.866025 -0.500000 0.000000
vn -1.000000 -0.000000 0.000000
vn -1.000000 -0.000000 0.000000
vn -0.866025 -0.500000 0.000000
vn -0.866025 -0.500000 0.000000
vn -1.000000 -0.000000 0.000000
vn -0.866025 -0.500000 0.000000
vn -1.000000 -0.000000 0.000000
vn -1.000000 -0.000000 0.000000
vn -0.866025 -0.500000 0.000000
vn -0.866025 -0.500000 0.000000
vn -1.000000 -0.000000 0.000000
vn -0.866025 -0.500000 0.000000
vn -1.000000 -0.000000 0.000000
vn -1.000000 -0.000000 0.000000
vn 0.000000 0.000000 -1.000000
vn 0.000000 0.000000 -1.000000
vn 0.000000 0.000000 -1.000000
vn 0.000000 0.000000 1.000000
vn 0.000000 0.000000 1.000000
vn 0.000000 0.000000 1.000000
vn -1.000000 -0.000000 0.000000
vn -1.000000 -0.000000 0.000000
vn -0.866025 0.500000 0.000000
vn -1.000000 -0.000000 0.000000
vn -0.866025 0.500000 0.000000
vn -0.866025 0.500000 0.000000
vn -1.000000 -0.000000 0.000000
vn -1.000000 -0.000000 0.000000
vn -0.866025 0.500000 0.000000
vn -1.000000 -0.000000 0.000000
vn -0.866025 0.500000 0.000000
vn -0.866025 0.500000 0.000000
vn -1.000000 -0.000000 0.000000
vn -1.000000 -0.000000 0.000000
vn -0.866025 0.500000 0.000000
vn -1.000000 -0.000000 0.000000
vn -0.866025 0.500000 0.000000
vn -0.866025 0.500000 0.000000
vn 0.000000 0.000000 -1.000000
vn 0.000000 0.000000 -1.000000
vn 0.000000 0.000000 -1.000000
vn 0.000000 0.000000 1.000000
vn 0.000000 0.000000 1.000000
vn 0.000000 0.000000 1.000000
vn -0.866025 0.500000 0.000000
vn -0.866025 0.500000 0.000000
vn -0.500000 0.866025 0.000000
vn -0.866025 0.500000 0.000000
vn -0.500000 0.866025 0.000000
vn -0.500000 0.866025 0.000000
vn -0.866025 0.500000 0.000000
vn -0.866025 0.500000 0.000000
vn -0.500000 0.866025 0.000000
vn -0.866025 0.500000 0.000000
vn -0.500000 0.866025 0.000000
vn -0.500000 0.866025 0.000000
vn -0.866025 0.500000 0.000000
vn -0.866025 0.500000 0.000000
vn -0.500000 0.866025 0.000000
vn -0.866025 0.500000 0.000000
vn -0.500000 0.866025 0.000000
vn -0.500000 0.866025 0.000000
vn 0.000000 0.000000 -1.000000
vn 0.000000 0.000000 -1.000000
vn 0.000000 0.000000 -1.000000
vn 0.000000 0.000000 1.000000
vn 0.000000 0.000000 1.000000
vn 0.000000 0.000000 1.000000
vn -0.500000 0.866025 0.000000
vn -0.500000 0.866025 0.000000
vn 0.000000 1.000000 0.000000
vn -0.500000 0.866025 0.000000
vn 0.000000 1.000000 0.000000
vn 0.000000 1.000000 0.000000
vn -0.500000 0.866025 0.000000
vn -0.500000 0.866025 0.000000
vn -0.000000 1.000000 0.000000
vn -0.500000 0.866025 0.000000
vn -0.000000 1.000000 0.000000
vn 0.000000 1.000000 0.000000
vn -0.500000 0.866025 0.000000
vn -0.500000 0.866025 0.000000
vn -0.000000 1.000000 0.000000
vn -0.500000 0.866025 0.000000
vn 0.000000 1.000000 0.000000
vn -0.000000 1.000000 0.000000
vn 0.000000 0.000000 -1.000000
vn 0.000000 0.000000 -1.000000
vn 0.000000 0.000000 -1.000000
vn 0.000000 0.000000 1.000000
vn 0.000000 0.000000 1.000000
vn 0.000000 0.000000 1.000000
vn 0.000000 1.000000 0.000000
vn 0.000000 1.000000 0.000000
vn 0.500000 0.866025 0.000000
vn 0.000000 1.000000 0.000000
vn 0.500000 0.866025 0.000000
vn 0.500000 0.866025 0.000000
vn 0.000000 1.000000 0.000000
vn -0.000000 1.000000 0.000000
vn 0.500000 0.866025 0.000000
vn -0.000000 1.000000 0.000000
vn 0.500000 0.866025 0.000000
vn 0.500000 0.866025 0.000000
vn -0.000000 1.000000 0.000000
vn 0.000000 1.000000 0.000000
vn 0.500000 0.866025 0.000000
vn -0.000000 1.000000 0.000000
vn 0.500000 0.866025 0.000000
vn 0.500000 0.866025 0.000000
vn 0.000000 0.000000 -1.000000
vn 0.000000 0.000000 -1.000000
vn 0.000000 0.000000 -1.000000
vn 0.000000 0.000000 1.000000
vn 0.000000 0.000000 1.000000
vn 0.000000 0.000000 1.000000
vn 0.500000 0.866025 0.000000
vn 0.500000 0.866025 0.000000
vn 0.866025 0.500000 0.000000
vn 0.500000 0.866025 0.000000
vn 0.866025 0.500000 0.000000
vn 0.866025 0.500000 0.000000
vn 0.500000 0.866025 0.000000
vn 0.500000 0.866025 0.000000
vn 0.866025 0.500000 0.000000
vn 0.500000 0.866025 0.000000
vn 0.866025 0.500000 0.000000
vn 0.866025 0.500000 0.000000
vn 0.500000 0.866025 0.000000
vn 0.500000 0.866025 0.000000
vn 0.866025 0.500000 0.000000
vn 0.500000 0.866025 0.000000
vn 0.866025 0.500000 0.000000
vn 0.866025 0.500000 0.000000
vn 0.000000 0.000000 -1.000000
vn 0.000000 0.000000 -1.000000
vn 0.000000 0.000000 -1.000000
vn 0.000000 0.000000 1.000000
vn 0.000000 0.000000 1.000000
vn 0.000000 0.000000 1.000000
vn 0.866025 0.500000 0.000000
vn 0.866025 0.500000 0.000000
vn 1.000000 -0.000000 0.000000
vn 0.866025 0.500000 0.000000
vn 1.000000 -0.000000 0.000000
vn 1.000000 -0.000000 0.000000
vn 0.866025 0.500000 0.000000
vn 0.866025 0.500000 0.000000
vn 1.000000 -0.000000 0.000000
vn 0.866025 0.500000 0.000000
vn 1.000000 -0.000000 0.000000
vn 1.000000 -0.000000 0.000000
vn 0.866025 0.500000 0.000000
vn 0.866025 0.500000 0.000000
vn 1.000000 -0.000000 0.000000
vn 0.866025 0.500000 0.000000
vn 1.000000 -0.000000 0.000000
vn 1.000000 -0.000000 0.000000

# texture coords: 288
vt 0.346154 0.165146
vt 0.366765 0.242069
vt 0.500000 0.165146
vt 0.653846 0.167453
vt 0.500000 0.167453
vt 0.633235 0.244377
vt 0.254867 0.328710
vt 0.254867 0.550248
vt 0.174098 0.328710
vt 0.254867 0.550248
vt 0.174098 0.550248
vt 0.174098 0.328710
vt 0.254867 0.550248
vt 0.254867 0.771786
vt 0.174098 0.771786
vt 0.254867 0.550248
vt 0.174098 0.771786
vt 0.174098 0.550248
vt 0.254867 0.771786
vt 0.254867 0.993325
vt 0.174098 0.771786
vt 0.254867 0.993325
vt 0.174098 0.993325
vt 0.174098 0.771786
vt 0.366765 0.242069
vt 0.423077 0.298380
vt 0.500000 0.165146
vt 0.633235 0.244377
vt 0.500000 0.167453
vt 0.576923 0.300688
vt 0.174098 0.328710
vt 0.174098 0.550248
vt 0.093329 0.550248
vt 0.174098 0.328710
vt 0.093329 0.550248
vt 0.093329 0.328710
vt 0.174098 0.550248
vt 0.174098 0.771786
vt 0.093329 0.550248
vt 0.174098 0.771786
vt 0.093329 0.771786
vt 0.093329 0.550248
vt 0.174098 0.771786
vt 0.174098 0.993325
vt 0.093329 0.993325
vt 0.174098 0.771786
vt 0.093329 0.993325
vt 0.093329 0.771786
vt 0.423077 0.298380
vt 0.500000 0.318992
vt 0.500000 0.165146
vt 0.576923 0.300688
vt 0.500000 0.167453
vt 0.500000 0.321300
vt 0.093329 0.328710
vt 0.093329 0.550248
vt 0.012560 0.328710
vt 0.093329 0.550248
vt 0.012560 0.550248
vt 0.012560 0.328710
vt 0.093329 0.550248
vt 0.093329 0.771786
vt 0.012560 0.771786
vt 0.093329 0.550248
vt 0.012560 0.771786
vt 0.012560 0.550248
vt 0.093329 0.771786
vt 0.093329 0.993325
vt 0.012560 0.771786
vt 0.093329 0.993325
vt 0.012560 0.993325
vt 0.012560 0.771786
vt 0.500000 0.318992
vt 0.576923 0.298380
vt 0.500000 0.165146
vt 0.500000 0.321300
vt 0.500000 0.167453
vt 0.423077 0.300688
vt 0.981791 0.328710
vt 0.981791 0.550248
vt 0.901021 0.550248
vt 0.981791 0.328710
vt 0.901021 0.550248
vt 0.901021 0.328710
vt 0.981791 0.550248
vt 0.981791 0.771786
vt 0.901021 0.550248
vt 0.981791 0.771786
vt 0.901021 0.771786
vt 0.901021 0.550248
vt 0.981791 0.771786
vt 0.981791 0.993325
vt 0.901021 0.993325
vt 0.981791 0.771786
vt 0.901021 0.993325
vt 0.901021 0.771786
vt 0.576923 0.298380
vt 0.633235 0.242069
vt 0.500000 0.165146
vt 0.423077 0.300688
vt 0.500000 0.167453
vt 0.366765 0.244377
vt 0.901021 0.328710
vt 0.901021 0.550248
vt 0.820252 0.328710
vt 0.901021 0.550248
vt 0.820252 0.550248
vt 0.820252 0.328710
vt 0.901021 0.550248
vt 0.901021 0.771786
vt 0.820252 0.771786
vt 0.901021 0.550248
vt 0.820252 0.771786
vt 0.820252 0.550248
vt 0.901021 0.771786
vt 0.901021 0.993325
vt 0.820252 0.771786
vt 0.901021 0.993325
vt 0.820252 0.993325
vt 0.820252 0.771786
vt 0.633235 0.242069
vt 0.653846 0.165146
vt 0.500000 0.165146
vt 0.366765 0.244377
vt 0.500000 0.167453
vt 0.346154 0.167453
vt 0.820252 0.328710
vt 0.820252 0.550248
vt 0.739483 0.550248
vt 0.820252 0.328710
vt 0.739483 0.550248
vt 0.739483 0.328710
vt 0.820252 0.550248
vt 0.820252 0.771786
vt 0.739483 0.550248
vt 0.820252 0.771786
vt 0.739483 0.771786
vt 0.739483 0.550248
vt 0.820252 0.771786
vt 0.820252 0.993325
vt 0.739483 0.993325
vt 0.820252 0.771786
vt 0.739483 0.993325
vt 0.739483 0.771786
vt 0.653846 0.165146
vt 0.633235 0.088223
vt 0.500000 0.165146
vt 0.346154 0.167453
vt 0.500000 0.167453
vt 0.366765 0.090530
vt 0.739483 0.328710
vt 0.739483 0.550248
vt 0.658714 0.328710
vt 0.739483 0.550248
vt 0.658714 0.550248
vt 0.658714 0.328710
vt 0.739483 0.550248
vt 0.739483 0.771786
vt 0.658714 0.771786
vt 0.739483 0.550248
vt 0.658714 0.771786
vt 0.658714 0.550248
vt 0.739483 0.771786
vt 0.739483 0.993325
vt 0.658714 0.771786
vt 0.739483 0.993325
vt 0.658714 0.993325
vt 0.658714 0.771786
vt 0.633235 0.088223
vt 0.576923 0.031911
vt 0.500000 0.165146
vt 0.366765 0.090530
vt 0.500000 0.167453
vt 0.423077 0.034219
vt 0.658714 0.328710
vt 0.658714 0.550248
vt 0.577944 0.550248
vt 0.658714 0.328710
vt 0.577944 0.550248
vt 0.577944 0.328710
vt 0.658714 0.550248
vt 0.658714 0.771786
vt 0.577944 0.550248
vt 0.658714 0.771786
vt 0.577944 0.771786
vt 0.577944 0.550248
vt 0.658714 0.771786
vt 0.658714 0.993325
vt 0.577944 0.993325
vt 0.658714 0.771786
vt 0.577944 0.993325
vt 0.577944 0.771786
vt 0.576923 0.031911
vt 0.500000 0.011299
vt 0.500000 0.165146
vt 0.423077 0.034219
vt 0.500000 0.167453
vt 0.500000 0.013607
vt 0.577944 0.328710
vt 0.577944 0.550248
vt 0.497175 0.328710
vt 0.577944 0.550248
vt 0.497175 0.550248
vt 0.497175 0.328710
vt 0.577944 0.550248
vt 0.577944 0.771786
vt 0.497175 0.771786
vt 0.577944 0.550248
vt 0.497175 0.771786
vt 0.497175 0.550248
vt 0.577944 0.771786
vt 0.577944 0.993325
vt 0.497175 0.771786
vt 0.577944 0.993325
vt 0.497175 0.993325
vt 0.497175 0.771786
vt 0.500000 0.011299
vt 0.423077 0.031911
vt 0.500000 0.165146
vt 0.500000 0.013607
vt 0.500000 0.167453
vt 0.576923 0.034219
vt 0.497175 0.328710
vt 0.497175 0.550248
vt 0.416406 0.550248
vt 0.497175 0.328710
vt 0.416406 0.550248
vt 0.416406 0.328710
vt 0.497175 0.550248
vt 0.497175 0.771786
vt 0.416406 0.550248
vt 0.497175 0.771786
vt 0.416406 0.771786
vt 0.416406 0.550248
vt 0.497175 0.771786
vt 0.497175 0.993325
vt 0.416406 0.993325
vt 0.497175 0.771786
vt 0.416406 0.993325
vt 0.416406 0.771786
vt 0.423077 0.031911
vt 0.366765 0.088223
vt 0.500000 0.165146
vt 0.576923 0.034219
vt 0.500000 0.167453
vt 0.633235 0.090530
vt 0.416406 0.328710
vt 0.416406 0.550248
vt 0.335637 0.328710
vt 0.416406 0.550248
vt 0.335637 0.550248
vt 0.335637 0.328710
vt 0.416406 0.550248
vt 0.416406 0.771786
vt 0.335637 0.771786
vt 0.416406 0.550248
vt 0.335637 0.771786
vt 0.335637 0.550248
vt 0.416406 0.771786
vt 0.416406 0.993325
vt 0.335637 0.771786
vt 0.416406 0.993325
vt 0.335637 0.993325
vt 0.335637 0.771786
vt 0.366765 0.088223
vt 0.346154 0.165146
vt 0.500000 0.165146
vt 0.633235 0.090530
vt 0.500000 0.167453
vt 0.653846 0.167453
vt 0.335637 0.328710
vt 0.335637 0.550248
vt 0.254867 0.550248
vt 0.335637 0.328710
vt 0.254867 0.550248
vt 0.254867 0.328710
vt 0.335637 0.550248
vt 0.335637 0.771786
vt 0.254867 0.550248
vt 0.335637 0.771786
vt 0.254867 0.771786
vt 0.254867 0.550248
vt 0.335637 0.771786
vt 0.335637 0.993325
vt 0.254867 0.993325
vt 0.335637 0.771786
vt 0.254867 0.993325
vt 0.254867 0.771786

# polygons: 96

f 1/1/1 5/2/2 50/3/3
f 4/4/4 49/5/5 8/6/6
f 1/7/7 2/8/8 5/9/9
f 2/10/10 6/11/11 5/12/12
f 2/13/13 3/14/14 7/15/15
f 2/16/16 7/17/17 6/18/18
f 3/19/19 4/20/20 7/21/21
f 4/22/22 8/23/23 7/24/24
f 5/25/25 9/26/26 50/27/27
f 8/28/28 49/29/29 12/30/30
f 5/31/31 6/32/32 10/33/33
f 5/34/34 10/35/35 9/36/36
f 6/37/37 7/38/38 10/39/39
f 7/40/40 11/41/41 10/42/42
f 7/43/43 8/44/44 12/45/45
f 7/46/46 12/47/47 11/48/48
f 9/49/49 13/50/50 50/51/51
f 12/52/52 49/53/53 16/54/54
f 9/55/55 10/56/56 13/57/57
f 10/58/58 14/59/59 13/60/60
f 10/61/61 11/62/62 15/63/63
f 10/64/64 15/65/65 14/66/66
f 11/67/67 12/68/68 15/69/69
f 12/70/70 16/71/71 15/72/72
f 13/73/73 17/74/74 50/75/75
f 16/76/76 49/77/77 20/78/78
f 13/79/79 14/80/80 18/81/81
f 13/82/82 18/83/83 17/84/84
f 14/85/85 15/86/86 18/87/87
f 15/88/88 19/89/89 18/90/90
f 15/91/91 16/92/92 20/93/93
f 15/94/94 20/95/95 19/96/96
f 17/97/97 21/98/98 50/99/99
f 20/100/100 49/101/101 24/102/102
f 17/103/103 18/104/104 21/105/105
f 18/106/106 22/107/107 21/108/108
f 18/109/109 19/110/110 23/111/111
f 18/112/112 23/113/113 22/114/114
f 19/115/115 20/116/116 23/117/117
f 20/118/118 24/119/119 23/120/120
f 21/121/121 25/122/122 50/123/123
f 24/124/124 49/125/125 28/126/126
f 21/127/127 22/128/128 26/129/129
f 21/130/130 26/131/131 25/132/132
f 22/133/133 23/134/134 26/135/135
f 23/136/136 27/137/137 26/138/138
f 23/139/139 24/140/140 28/141/141
f 23/142/142 28/143/143 27/144/144
f 25/145/145 29/146/146 50/147/147
f 28/148/148 49/149/149 32/150/150
f 25/151/151 26/152/152 29/153/153
f 26/154/154 30/155/155 29/156/156
f 26/157/157 27/158/158 31/159/159
f 26/160/160 31/161/161 30/162/162
f 27/163/163 28/164/164 31/165/165
f 28/166/166 32/167/167 31/168/168
f 29/169/169 33/170/170 50/171/171
f 32/172/172 49/173/173 36/174/174
f 29/175/175 30/176/176 34/177/177
f 29/178/178 34/179/179 33/180/180
f 30/181/181 31/182/182 34/183/183
f 31/184/184 35/185/185 34/186/186
f 31/187/187 32/188/188 36/189/189
f 31/190/190 36/191/191 35/192/192
f 33/193/193 37/194/194 50/195/195
f 36/196/196 49/197/197 40/198/198
f 33/199/199 34/200/200 37/201/201
f 34/202/202 38/203/203 37/204/204
f 34/205/205 35/206/206 39/207/207
f 34/208/208 39/209/209 38/210/210
f 35/211/211 36/212/212 39/213/213
f 36/214/214 40/215/215 39/216/216
f 37/217/217 41/218/218 50/219/219
f 40/220/220 49/221/221 44/222/222
f 37/223/223 38/224/224 42/225/225
f 37/226/226 42/227/227 41/228/228
f 38/229/229 39/230/230 42/231/231
f 39/232/232 43/233/233 42/234/234
f 39/235/235 40/236/236 44/237/237
f 39/238/238 44/239/239 43/240/240
f 41/241/241 45/242/242 50/243/243
f 44/244/244 49/245/245 48/246/246
f 41/247/247 42/248/248 45/249/249
f 42/250/250 46/251/251 45/252/252
f 42/253/253 43/254/254 47/255/255
f 42/256/256 47/257/257 46/258/258
f 43/259/259 44/260/260 47/261/261
f 44/262/262 48/263/263 47/264/264
f 45/265/265 1/266/266 50/267/267
f 48/268/268 49/269/269 4/270/270
f 45/271/271 46/272/272 2/273/273
f 45/274/274 2/275/275 1/276/276
f 46/277/277 47/278/278 2/279/279
f 47/280/280 3/281/281 2/282/282
f 47/283/283 48/284/284 4/285/285
f 47/286/286 4/287/287 3/288/288

# object end 'Converted object 0'
