# created by: Biturn ver 0.88
# http://mirex.mypage.sk
# ------------------------------------
# 8 vertices, 10 polygons, 30 points, 1 materials


mtllib TelePhoneKey.mtl

#-- object 'Converted object 0' --
# 8 vertices, 10 polygons, 30 points

g Converted object 0

# vertexs: 8
v -0.450000 0.600000 0.450000
v -0.450000 0.000000 0.450000
v 0.450000 0.600000 0.450000
v 0.450000 0.000000 0.450000
v 0.450000 0.600000 -0.450000
v 0.450000 0.000000 -0.450000
v -0.450000 0.600000 -0.450000
v -0.450000 0.000000 -0.450000

# normals: 30
vn 0.000000 0.000000 1.000000
vn 0.000000 0.000000 1.000000
vn 0.000000 0.000000 1.000000
vn 0.000000 0.000000 1.000000
vn 0.000000 0.000000 1.000000
vn 0.000000 0.000000 1.000000
vn 1.000000 0.000000 0.000000
vn 1.000000 0.000000 0.000000
vn 1.000000 0.000000 0.000000
vn 1.000000 0.000000 0.000000
vn 1.000000 0.000000 0.000000
vn 1.000000 0.000000 0.000000
vn 0.000000 0.000000 -1.000000
vn 0.000000 0.000000 -1.000000
vn 0.000000 0.000000 -1.000000
vn 0.000000 0.000000 -1.000000
vn 0.000000 0.000000 -1.000000
vn 0.000000 0.000000 -1.000000
vn -1.000000 0.000000 0.000000
vn -1.000000 0.000000 0.000000
vn -1.000000 0.000000 0.000000
vn -1.000000 0.000000 0.000000
vn -1.000000 0.000000 0.000000
vn -1.000000 0.000000 0.000000
vn 0.000000 1.000000 0.000000
vn 0.000000 1.000000 0.000000
vn 0.000000 1.000000 0.000000
vn 0.000000 1.000000 0.000000
vn 0.000000 1.000000 0.000000
vn 0.000000 1.000000 0.000000

# texture coords: 30
vt 0.106004 0.796197
vt 0.003440 0.796197
vt 0.106004 0.180812
vt 0.003440 0.796197
vt 0.003440 0.180812
vt 0.106004 0.180812
vt 0.105856 0.796781
vt 0.003292 0.796781
vt 0.105856 0.181396
vt 0.003292 0.796781
vt 0.003292 0.181396
vt 0.105856 0.181396
vt 0.105856 0.795946
vt 0.003292 0.795946
vt 0.105856 0.180561
vt 0.003292 0.795946
vt 0.003292 0.180561
vt 0.105856 0.180561
vt 0.105859 0.797207
vt 0.003295 0.797207
vt 0.105859 0.181822
vt 0.003295 0.797207
vt 0.003295 0.181822
vt 0.105859 0.181822
vt 0.135054 0.932556
vt 0.135054 0.091402
vt 0.976207 0.932556
vt 0.135054 0.091402
vt 0.976207 0.091402
vt 0.976207 0.932556

# polygons: 10

f 1/1/1 2/2/2 3/3/3
f 2/4/4 4/5/5 3/6/6
f 3/7/7 4/8/8 5/9/9
f 4/10/10 6/11/11 5/12/12
f 5/13/13 6/14/14 7/15/15
f 6/16/16 8/17/17 7/18/18
f 7/19/19 8/20/20 1/21/21
f 8/22/22 2/23/23 1/24/24
f 7/25/25 1/26/26 5/27/27
f 1/28/28 3/29/29 5/30/30

# object end 'Converted object 0'
