# created by: Biturn ver 0.88
# http://mirex.mypage.sk
# ------------------------------------
# 25 vertices, 36 polygons, 108 points, 1 materials


mtllib object_237.mtl

#-- object 'Converted object 0' --
# 25 vertices, 36 polygons, 108 points

g Converted object 0

# vertexs: 25
v 15.895626 28.709112 0.000000
v 12.875456 29.650778 0.000000
v 13.765430 28.709112 7.950000
v 11.149999 29.650778 6.439499
v 7.945627 28.709112 13.769803
v 6.435957 29.650778 11.153540
v -0.004373 28.709112 15.900000
v -0.003542 29.650778 12.878999
v -7.954373 28.709112 13.769803
v -6.443042 29.650778 11.153540
v -13.774177 28.709112 7.950000
v -11.157083 29.650778 6.439499
v -15.904373 28.709112 0.000000
v -12.882542 29.650778 0.000000
v -13.774177 28.709112 -7.950000
v -11.157083 29.650778 -6.439499
v -7.954373 28.709112 -13.769803
v -6.443042 29.650778 -11.153540
v -0.004373 28.709112 -15.900000
v -0.003542 29.650778 -12.878999
v 7.945627 28.709112 -13.769803
v 6.435957 29.650778 -11.153540
v 13.765430 28.709112 -7.950000
v 11.149999 29.650778 -6.439499
v -0.003542 29.650778 0.000000

# normals: 108
vn 0.200259 0.979743 -0.000000
vn 0.000000 1.000000 0.000000
vn 0.130166 0.988640 0.075150
vn 0.297659 0.954672 0.000000
vn 0.200259 0.979743 -0.000000
vn 0.257773 0.954675 0.148822
vn 0.200259 0.979743 -0.000000
vn 0.130166 0.988640 0.075150
vn 0.257773 0.954675 0.148822
vn 0.130166 0.988640 0.075150
vn 0.000000 1.000000 0.000000
vn 0.100120 0.979748 0.173406
vn 0.257773 0.954675 0.148822
vn 0.130166 0.988640 0.075150
vn 0.100120 0.979748 0.173406
vn 0.257773 0.954675 0.148822
vn 0.100120 0.979748 0.173406
vn 0.148815 0.954684 0.257746
vn 0.100120 0.979748 0.173406
vn 0.000000 1.000000 0.000000
vn 0.000003 0.988645 0.150268
vn 0.148815 0.954684 0.257746
vn 0.100120 0.979748 0.173406
vn 0.000005 0.954695 0.297585
vn 0.100120 0.979748 0.173406
vn 0.000003 0.988645 0.150268
vn 0.000005 0.954695 0.297585
vn 0.000003 0.988645 0.150268
vn 0.000000 1.000000 0.000000
vn -0.100089 0.979759 0.173365
vn 0.000005 0.954695 0.297585
vn 0.000003 0.988645 0.150268
vn -0.100089 0.979759 0.173365
vn 0.000005 0.954695 0.297585
vn -0.100089 0.979759 0.173365
vn -0.148770 0.954707 0.257686
vn -0.100089 0.979759 0.173365
vn 0.000000 1.000000 0.000000
vn -0.130107 0.988650 0.075119
vn -0.148770 0.954707 0.257686
vn -0.100089 0.979759 0.173365
vn -0.257659 0.954715 0.148762
vn -0.100089 0.979759 0.173365
vn -0.130107 0.988650 0.075119
vn -0.257659 0.954715 0.148762
vn -0.130107 0.988650 0.075119
vn 0.000000 1.000000 0.000000
vn -0.200157 0.979764 0.000000
vn -0.257659 0.954715 0.148762
vn -0.130107 0.988650 0.075119
vn -0.200157 0.979764 0.000000
vn -0.257659 0.954715 0.148762
vn -0.200157 0.979764 0.000000
vn -0.297510 0.954719 0.000000
vn -0.200157 0.979764 0.000000
vn 0.000000 1.000000 0.000000
vn -0.130107 0.988650 -0.075119
vn -0.297510 0.954719 0.000000
vn -0.200157 0.979764 0.000000
vn -0.257659 0.954715 -0.148762
vn -0.200157 0.979764 0.000000
vn -0.130107 0.988650 -0.075119
vn -0.257659 0.954715 -0.148762
vn -0.130107 0.988650 -0.075119
vn 0.000000 1.000000 0.000000
vn -0.100089 0.979759 -0.173365
vn -0.257659 0.954715 -0.148762
vn -0.130107 0.988650 -0.075119
vn -0.100089 0.979759 -0.173365
vn -0.257659 0.954715 -0.148762
vn -0.100089 0.979759 -0.173365
vn -0.148770 0.954707 -0.257686
vn -0.100089 0.979759 -0.173365
vn 0.000000 1.000000 0.000000
vn 0.000003 0.988645 -0.150268
vn -0.148770 0.954707 -0.257686
vn -0.100089 0.979759 -0.173365
vn 0.000005 0.954695 -0.297585
vn -0.100089 0.979759 -0.173365
vn 0.000003 0.988645 -0.150268
vn 0.000005 0.954695 -0.297585
vn 0.000003 0.988645 -0.150268
vn 0.000000 1.000000 0.000000
vn 0.100120 0.979748 -0.173406
vn 0.000005 0.954695 -0.297585
vn 0.000003 0.988645 -0.150268
vn 0.100120 0.979748 -0.173406
vn 0.000005 0.954695 -0.297585
vn 0.100120 0.979748 -0.173406
vn 0.148815 0.954684 -0.257746
vn 0.100120 0.979748 -0.173406
vn 0.000000 1.000000 0.000000
vn 0.130166 0.988640 -0.075150
vn 0.148815 0.954684 -0.257746
vn 0.100120 0.979748 -0.173406
vn 0.257773 0.954675 -0.148822
vn 0.100120 0.979748 -0.173406
vn 0.130166 0.988640 -0.075150
vn 0.257773 0.954675 -0.148822
vn 0.130166 0.988640 -0.075150
vn 0.000000 1.000000 0.000000
vn 0.200259 0.979743 -0.000000
vn 0.257773 0.954675 -0.148822
vn 0.130166 0.988640 -0.075150
vn 0.200259 0.979743 -0.000000
vn 0.257773 0.954675 -0.148822
vn 0.200259 0.979743 -0.000000
vn 0.297659 0.954672 0.000000

# texture coords: 108
vt 0.905026 0.498333
vt 0.500026 0.498333
vt 0.850766 0.295833
vt 1.000000 0.498333
vt 0.905026 0.498333
vt 0.933013 0.248333
vt 0.905026 0.498333
vt 0.850766 0.295833
vt 0.933013 0.248333
vt 0.850766 0.295833
vt 0.500026 0.498333
vt 0.702526 0.147593
vt 0.933013 0.248333
vt 0.850766 0.295833
vt 0.702526 0.147593
vt 0.933013 0.248333
vt 0.702526 0.147593
vt 0.750000 0.065321
vt 0.702526 0.147593
vt 0.500026 0.498333
vt 0.500026 0.093333
vt 0.750000 0.065321
vt 0.702526 0.147593
vt 0.500000 -0.001667
vt 0.702526 0.147593
vt 0.500026 0.093333
vt 0.500000 -0.001667
vt 0.500026 0.093333
vt 0.500026 0.498333
vt 0.297526 0.147593
vt 0.500000 -0.001667
vt 0.500026 0.093333
vt 0.297526 0.147593
vt 0.500000 -0.001667
vt 0.297526 0.147593
vt 0.250000 0.065321
vt 0.297526 0.147593
vt 0.500026 0.498333
vt 0.149286 0.295833
vt 0.250000 0.065321
vt 0.297526 0.147593
vt 0.066987 0.248333
vt 0.297526 0.147593
vt 0.149286 0.295833
vt 0.066987 0.248333
vt 0.149286 0.295833
vt 0.500026 0.498333
vt 0.095026 0.498333
vt 0.066987 0.248333
vt 0.149286 0.295833
vt 0.095026 0.498333
vt 0.066987 0.248333
vt 0.095026 0.498333
vt 0.000000 0.498333
vt 0.095026 0.498333
vt 0.500026 0.498333
vt 0.149286 0.700834
vt 0.000000 0.498333
vt 0.095026 0.498333
vt 0.066987 0.748334
vt 0.095026 0.498333
vt 0.149286 0.700834
vt 0.066987 0.748334
vt 0.149286 0.700834
vt 0.500026 0.498333
vt 0.297526 0.849074
vt 0.066987 0.748334
vt 0.149286 0.700834
vt 0.297526 0.849074
vt 0.066987 0.748334
vt 0.297526 0.849074
vt 0.250000 0.931346
vt 0.297526 0.849074
vt 0.500026 0.498333
vt 0.500026 0.903334
vt 0.250000 0.931346
vt 0.297526 0.849074
vt 0.500000 0.998334
vt 0.297526 0.849074
vt 0.500026 0.903334
vt 0.500000 0.998334
vt 0.500026 0.903334
vt 0.500026 0.498333
vt 0.702526 0.849074
vt 0.500000 0.998334
vt 0.500026 0.903334
vt 0.702526 0.849074
vt 0.500000 0.998334
vt 0.702526 0.849074
vt 0.750000 0.931346
vt 0.702526 0.849074
vt 0.500026 0.498333
vt 0.850766 0.700834
vt 0.750000 0.931346
vt 0.702526 0.849074
vt 0.933013 0.748334
vt 0.702526 0.849074
vt 0.850766 0.700834
vt 0.933013 0.748334
vt 0.850766 0.700834
vt 0.500026 0.498333
vt 0.905026 0.498333
vt 0.933013 0.748334
vt 0.850766 0.700834
vt 0.905026 0.498333
vt 0.933013 0.748334
vt 0.905026 0.498333
vt 1.000000 0.498333

# polygons: 36
usemtl DrumShell
f 2/1/1 25/2/2 4/3/3
f 1/4/4 2/5/5 3/6/6
f 2/7/7 4/8/8 3/9/9
f 4/10/10 25/11/11 6/12/12
f 3/13/13 4/14/14 6/15/15
f 3/16/16 6/17/17 5/18/18
f 6/19/19 25/20/20 8/21/21
f 5/22/22 6/23/23 7/24/24
f 6/25/25 8/26/26 7/27/27
f 8/28/28 25/29/29 10/30/30
f 7/31/31 8/32/32 10/33/33
f 7/34/34 10/35/35 9/36/36
f 10/37/37 25/38/38 12/39/39
f 9/40/40 10/41/41 11/42/42
f 10/43/43 12/44/44 11/45/45
f 12/46/46 25/47/47 14/48/48
f 11/49/49 12/50/50 14/51/51
f 11/52/52 14/53/53 13/54/54
f 14/55/55 25/56/56 16/57/57
f 13/58/58 14/59/59 15/60/60
f 14/61/61 16/62/62 15/63/63
f 16/64/64 25/65/65 18/66/66
f 15/67/67 16/68/68 18/69/69
f 15/70/70 18/71/71 17/72/72
f 18/73/73 25/74/74 20/75/75
f 17/76/76 18/77/77 19/78/78
f 18/79/79 20/80/80 19/81/81
f 20/82/82 25/83/83 22/84/84
f 19/85/85 20/86/86 22/87/87
f 19/88/88 22/89/89 21/90/90
f 22/91/91 25/92/92 24/93/93
f 21/94/94 22/95/95 23/96/96
f 22/97/97 24/98/98 23/99/99
f 24/100/100 25/101/101 2/102/102
f 23/103/103 24/104/104 2/105/105
f 23/106/106 2/107/107 1/108/108

# object end 'Converted object 0'
