# Blender v3.1.2 OBJ File: 'TinklebellV2.blend'
# www.blender.org
mtllib TinkleBellBell.mtl
o Bell_Cylinder.001
v 0.000009 0.000001 -0.105011
v 0.090953 0.000001 -0.052504
v 0.090953 0.000001 0.052508
v 0.000009 0.000001 0.105015
v -0.090935 0.000001 0.052508
v -0.090935 0.000001 -0.052504
v 0.269107 -3.288327 -0.155362
v 0.000009 -3.288327 -0.310725
v 0.269107 -3.288327 0.155366
v 0.000009 -3.288327 0.310729
v -0.269089 -3.288327 0.155366
v -0.269089 -3.288327 -0.155362
v 0.090953 -2.848603 -0.052504
v 0.000009 -2.848603 -0.105011
v 0.090953 -2.848603 0.052508
v 0.000009 -2.848603 0.105015
v -0.090935 -2.848603 0.052508
v -0.090935 -2.848603 -0.052504
v 0.269107 -2.966707 -0.155362
v 0.000009 -2.966707 -0.310725
v 0.269107 -2.966707 0.155366
v 0.000009 -2.966707 0.310729
v -0.269089 -2.966707 0.155366
v -0.269089 -2.966707 -0.155362
v 0.000009 -3.437041 0.000002
vt 0.833333 1.000000
vt 1.000000 1.000000
vt 0.833333 1.000000
vt 0.666667 1.000000
vt 0.666667 1.000000
vt 0.500000 1.000000
vt 0.500000 1.000000
vt 0.333333 1.000000
vt 0.333333 1.000000
vt 0.166667 1.000000
vt 0.166667 1.000000
vt 1.000000 1.000000
vt 0.833333 1.000000
vt 0.666667 1.000000
vt 0.500000 1.000000
vt 0.333333 1.000000
vt 0.166667 1.000000
vt 1.000000 1.000000
vt 0.833333 1.000000
vt 0.666667 1.000000
vt 0.500000 1.000000
vt 0.333333 1.000000
vt 0.166667 1.000000
vt 1.000000 1.000000
vt 0.583333 1.000000
vn 0.7017 0.5861 -0.4051
vn 0.0000 0.0000 -1.0000
vn 0.8660 0.0000 -0.5000
vn 0.7017 0.5861 0.4051
vn 0.8660 0.0000 0.5000
vn 0.0000 0.5861 0.8102
vn -0.0000 0.0000 1.0000
vn -0.7017 0.5861 0.4051
vn -0.8660 0.0000 0.5000
vn -0.7017 0.5861 -0.4051
vn -0.8660 0.0000 -0.5000
vn -0.0000 0.5861 -0.8102
vn 0.7768 0.4422 -0.4485
vn 0.7768 0.4422 0.4485
vn -0.0000 0.4422 0.8969
vn -0.7768 0.4422 0.4485
vn -0.7768 0.4422 -0.4485
vn 0.0000 0.4422 -0.8969
vn 0.7653 -0.4681 -0.4418
vn 0.7653 -0.4681 0.4418
vn -0.0000 -0.4681 0.8837
vn -0.7653 -0.4681 0.4418
vn -0.7653 -0.4681 -0.4418
vn 0.0000 -0.4681 -0.8837
vn 0.0000 -1.0000 -0.0000
usemtl Material.002
s 1
f 13/1/1 1/2/2 2/3/3
f 15/4/4 2/3/3 3/5/5
f 16/6/6 3/5/5 4/7/7
f 17/8/8 4/7/7 5/9/9
f 18/10/10 5/9/9 6/11/11
f 14/12/12 6/11/11 1/2/2
f 19/13/13 14/12/12 13/1/1
f 21/14/14 13/1/1 15/4/4
f 22/15/15 15/4/4 16/6/6
f 23/16/16 16/6/6 17/8/8
f 24/17/17 17/8/8 18/10/10
f 20/18/18 18/10/10 14/12/12
f 7/19/19 20/18/18 19/13/13
f 9/20/20 19/13/13 21/14/14
f 10/21/21 21/14/14 22/15/15
f 11/22/22 22/15/15 23/16/16
f 12/23/23 23/16/16 24/17/17
f 8/24/24 24/17/17 20/18/18
f 12/23/23 8/24/24 25/25/25
f 8/24/24 7/19/19 25/25/25
f 7/19/19 9/20/20 25/25/25
f 9/20/20 10/21/21 25/25/25
f 10/21/21 11/22/22 25/25/25
f 11/22/22 12/23/23 25/25/25
f 13/1/1 14/12/12 1/2/2
f 15/4/4 13/1/1 2/3/3
f 16/6/6 15/4/4 3/5/5
f 17/8/8 16/6/6 4/7/7
f 18/10/10 17/8/8 5/9/9
f 14/12/12 18/10/10 6/11/11
f 19/13/13 20/18/18 14/12/12
f 21/14/14 19/13/13 13/1/1
f 22/15/15 21/14/14 15/4/4
f 23/16/16 22/15/15 16/6/6
f 24/17/17 23/16/16 17/8/8
f 20/18/18 24/17/17 18/10/10
f 7/19/19 8/24/24 20/18/18
f 9/20/20 7/19/19 19/13/13
f 10/21/21 9/20/20 21/14/14
f 11/22/22 10/21/21 22/15/15
f 12/23/23 11/22/22 23/16/16
f 8/24/24 12/23/23 24/17/17
