# Blender 3.4.1
# www.blender.org
mtllib TromboneHorn.mtl
o Converted_object_0(m0)_Converted_object_0(m0).001
v -0.000000 -0.649128 -0.000006
v -0.324558 -0.562156 0.000006
v -0.000000 -1.110205 1.815212
v -0.555105 -0.961489 1.815209
v -0.000000 -1.808440 2.831859
v -0.904207 -1.566136 2.831866
v -0.000000 -3.759590 3.895510
v -1.879781 -3.255875 3.895510
v -0.562152 -0.324540 0.000003
v -0.961470 -0.555123 1.815213
v -1.566133 -0.904193 2.831860
v -3.255877 -1.879943 3.895502
v -0.649117 0.000000 0.000002
v -1.110210 -0.000004 1.815212
v -1.808415 0.000025 2.831869
v -3.759562 0.000035 3.895516
v -0.562152 0.324554 -0.000004
v -0.961470 0.555078 1.815214
v -1.566133 0.904185 2.831864
v -3.255877 1.879807 3.895519
v -0.324558 0.562135 -0.000005
v -0.555105 0.961492 1.815208
v -0.904207 1.566139 2.831856
v -1.879781 3.255866 3.895512
v -0.000000 0.649148 -0.000001
v -0.000000 1.110235 1.815215
v -0.000000 1.808452 2.831863
v -0.000000 3.759584 3.895513
v 0.324559 0.562135 -0.000005
v 0.555106 0.961492 1.815208
v 0.904208 1.566139 2.831856
v 1.879782 3.255866 3.895512
v 0.562152 0.324554 -0.000004
v 0.961471 0.555078 1.815214
v 1.566135 0.904185 2.831864
v 3.255879 1.879807 3.895519
v 0.649118 0.000000 0.000002
v 1.110211 -0.000004 1.815212
v 1.808416 0.000025 2.831869
v 3.759564 0.000035 3.895516
v 0.562152 -0.324540 0.000003
v 0.961471 -0.555123 1.815213
v 1.566135 -0.904193 2.831860
v 3.255879 -1.879943 3.895502
v 0.324559 -0.562156 0.000006
v 0.555106 -0.961489 1.815209
v 0.904208 -1.566136 2.831866
v 1.879782 -3.255875 3.895510
v -0.000000 -3.759590 3.895510
v -0.000000 -3.759529 3.953149
v -1.879781 -3.255875 3.895510
v -1.879781 -3.255857 3.953149
v -3.255877 -1.879773 3.953149
v -3.255877 -1.879943 3.895502
v -3.759562 0.000035 3.895516
v -3.759562 -0.000061 3.953148
v -3.255877 1.879715 3.953142
v -3.255877 1.879807 3.895519
v -1.879781 3.255866 3.895512
v -1.879781 3.255884 3.953145
v -0.000000 3.759750 3.953147
v -0.000000 3.759584 3.895513
v 1.879782 3.255866 3.895512
v 1.879782 3.255884 3.953145
v 3.255879 1.879715 3.953142
v 3.255879 1.879807 3.895519
v 3.759564 0.000035 3.895516
v 3.759564 -0.000061 3.953148
v 3.255879 -1.879773 3.953149
v 3.255879 -1.879943 3.895502
v 1.879782 -3.255875 3.895510
v 1.879782 -3.255857 3.953149
v -0.000000 -3.759529 3.953149
v -0.000000 -1.725917 2.886504
v -0.862967 -1.494723 2.886504
v -1.879781 -3.255857 3.953149
v -0.000000 -0.917256 1.624685
v -0.458616 -0.794325 1.624697
v -0.000000 -0.541626 -0.164899
v -0.270808 -0.469070 -0.164895
v -0.000000 0.000009 -3.079325
v -3.255877 -1.879773 3.953149
v -1.494704 -0.862961 2.886506
v -0.794347 -0.458625 1.624693
v -0.469054 -0.270824 -0.164899
v -0.000000 0.000008 -3.079333
v -1.725935 0.000028 2.886502
v -3.759562 -0.000061 3.953148
v -0.917232 0.000019 1.624694
v -0.541616 -0.000013 -0.164890
v -3.255877 1.879715 3.953142
v -1.494704 0.862964 2.886503
v -0.794347 0.458586 1.624693
v -0.469054 0.270795 -0.164907
v -0.000000 0.000008 -3.079331
v -0.862967 1.494722 2.886503
v -1.879781 3.255884 3.953145
v -0.458616 0.794351 1.624694
v -0.270808 0.469045 -0.164898
v -0.000000 3.759750 3.953147
v -0.000000 1.725921 2.886508
v -0.000000 0.917234 1.624690
v -0.000000 0.541613 -0.164898
v -0.000000 0.000008 -3.079331
v 0.862968 1.494722 2.886503
v 1.879782 3.255884 3.953145
v 0.458617 0.794351 1.624694
v 0.270809 0.469045 -0.164898
v 3.255879 1.879715 3.953142
v 1.494705 0.862964 2.886503
v 0.794347 0.458586 1.624693
v 0.469054 0.270795 -0.164907
v -0.000000 0.000008 -3.079331
v 1.725936 0.000028 2.886502
v 3.759564 -0.000061 3.953148
v 0.917233 0.000019 1.624694
v 0.541617 -0.000013 -0.164890
v 3.255879 -1.879773 3.953149
v 1.494705 -0.862961 2.886506
v 0.794347 -0.458625 1.624693
v 0.469054 -0.270824 -0.164899
v -0.000000 0.000008 -3.079333
v 0.862968 -1.494723 2.886504
v 1.879782 -3.255857 3.953149
v 0.458617 -0.794325 1.624697
v 0.270809 -0.469070 -0.164895
vn -0.0000 -0.9699 -0.2436
vn -0.0000 -0.9106 -0.4132
vn -0.4553 -0.7886 -0.4133
vn -0.4850 -0.8399 -0.2437
vn -0.0000 -0.6685 -0.7437
vn -0.3343 -0.5789 -0.7437
vn -0.0000 -0.4786 -0.8780
vn -0.2393 -0.4145 -0.8780
vn -0.8399 -0.4849 -0.2437
vn -0.7886 -0.4553 -0.4133
vn -0.5789 -0.3342 -0.7437
vn -0.4145 -0.2393 -0.8780
vn -0.9106 -0.0000 -0.4133
vn -0.9698 -0.0000 -0.2437
vn -0.6685 -0.0000 -0.7437
vn -0.4786 -0.0000 -0.8780
vn -0.8399 0.4849 -0.2439
vn -0.7886 0.4552 -0.4134
vn -0.5790 0.3343 -0.7437
vn -0.4145 0.2393 -0.8780
vn -0.4553 0.7886 -0.4133
vn -0.4850 0.8399 -0.2437
vn -0.3343 0.5789 -0.7437
vn -0.2393 0.4145 -0.8780
vn -0.0000 0.9699 -0.2437
vn -0.0000 0.9106 -0.4133
vn -0.0000 0.6685 -0.7437
vn -0.0000 0.4786 -0.8780
vn 0.4553 0.7886 -0.4133
vn 0.4850 0.8399 -0.2437
vn 0.3343 0.5789 -0.7437
vn 0.2393 0.4145 -0.8780
vn 0.8399 0.4850 -0.2438
vn 0.7886 0.4553 -0.4133
vn 0.5789 0.3343 -0.7437
vn 0.4145 0.2393 -0.8780
vn 0.9106 -0.0000 -0.4133
vn 0.9698 -0.0000 -0.2437
vn 0.6685 -0.0000 -0.7437
vn 0.4786 -0.0000 -0.8780
vn 0.8399 -0.4849 -0.2437
vn 0.7886 -0.4553 -0.4133
vn 0.5789 -0.3342 -0.7437
vn 0.4145 -0.2393 -0.8780
vn 0.4553 -0.7886 -0.4133
vn 0.4850 -0.8399 -0.2437
vn 0.3343 -0.5789 -0.7437
vn 0.2393 -0.4145 -0.8780
vn -0.0000 -1.0000 0.0011
vn -0.5000 -0.8660 0.0012
vn -0.5000 -0.8660 0.0003
vn -0.8660 -0.5000 0.0008
vn -0.8658 -0.5004 0.0015
vn -1.0000 -0.0000 0.0004
vn -1.0000 -0.0003 -0.0000
vn -0.8660 0.5001 0.0003
vn -0.8661 0.4999 0.0008
vn -0.5001 0.8660 -0.0003
vn -0.5000 0.8660 -0.0003
vn -0.0000 1.0000 -0.0017
vn -0.0000 1.0000 -0.0029
vn 0.5001 0.8660 -0.0003
vn 0.5000 0.8660 -0.0003
vn 0.8660 0.5001 0.0003
vn 0.8659 0.5002 0.0008
vn 1.0000 -0.0000 0.0004
vn 1.0000 -0.0000 -0.0000
vn 0.8661 -0.4999 0.0009
vn 0.8658 -0.5004 0.0015
vn 0.5000 -0.8660 0.0008
vn 0.5000 -0.8660 0.0003
vn -0.0000 0.4645 0.8856
vn -0.0000 0.6740 0.7387
vn 0.3370 0.5838 0.7387
vn 0.2322 0.4023 0.8856
vn -0.0000 0.9252 0.3795
vn 0.4626 0.8012 0.3795
vn -0.0000 0.9812 0.1931
vn 0.7164 0.6558 0.2382
vn -0.0011 0.7773 0.6291
vn 0.4023 0.2322 0.8856
vn 0.5837 0.3370 0.7387
vn 0.8012 0.4627 0.3794
vn 0.8498 0.4905 0.1931
vn -0.7800 -0.4792 0.4024
vn 0.6741 -0.0000 0.7386
vn 0.4645 -0.0000 0.8856
vn 0.9252 -0.0001 0.3794
vn 0.9842 -0.0486 0.1703
vn 0.4023 -0.2322 0.8856
vn 0.5837 -0.3371 0.7387
vn 0.8013 -0.4626 0.3794
vn 0.8498 -0.4906 0.1929
vn -0.4161 0.2922 0.8611
vn 0.3370 -0.5838 0.7387
vn 0.2323 -0.4022 0.8856
vn 0.4626 -0.8013 0.3794
vn 0.4872 -0.8567 0.1693
vn -0.0000 -0.4645 0.8856
vn -0.0000 -0.6741 0.7387
vn -0.0000 -0.9252 0.3795
vn -0.0000 -0.9812 0.1928
vn 0.0005 -0.9790 0.2038
vn -0.3370 -0.5838 0.7387
vn -0.2323 -0.4022 0.8856
vn -0.4626 -0.8013 0.3794
vn -0.4984 -0.8502 0.1693
vn -0.4023 -0.2322 0.8856
vn -0.5837 -0.3371 0.7387
vn -0.8013 -0.4626 0.3794
vn -0.8498 -0.4906 0.1928
vn 0.3487 0.2544 0.9021
vn -0.6741 -0.0000 0.7387
vn -0.4645 -0.0000 0.8856
vn -0.9252 -0.0001 0.3794
vn -0.9881 -0.0311 0.1504
vn -0.4023 0.2322 0.8856
vn -0.5837 0.3370 0.7387
vn -0.8013 0.4626 0.3794
vn -0.8498 0.4906 0.1928
vn -0.5216 0.3356 0.7844
vn -0.3370 0.5838 0.7387
vn -0.2322 0.4023 0.8856
vn -0.4626 0.8013 0.3794
vn -0.7220 0.6853 0.0950
vt 0.000000 0.600000
vt 1.000000 0.600000
vt 0.083333 0.600000
vt 0.000000 0.650000
vt 1.000000 0.650000
vt 0.083333 0.650000
vt 0.000000 0.700000
vt 1.000000 0.700000
vt 0.083333 0.700000
vt 0.000000 0.750000
vt 1.000000 0.750000
vt 0.083333 0.750000
vt 0.166667 0.600000
vt 0.166667 0.650000
vt 0.166667 0.700000
vt 0.166667 0.750000
vt 0.250000 0.600000
vt 0.250000 0.650000
vt 0.250000 0.700000
vt 0.250000 0.750000
vt 0.333333 0.600000
vt 0.333333 0.650000
vt 0.333333 0.700000
vt 0.333333 0.750000
vt 0.416667 0.600000
vt 0.416667 0.650000
vt 0.416667 0.700000
vt 0.416667 0.750000
vt 0.500000 0.600000
vt 0.500000 0.650000
vt 0.500000 0.700000
vt 0.500000 0.750000
vt 0.583333 0.600000
vt 0.583333 0.650000
vt 0.583333 0.700000
vt 0.583333 0.750000
vt 0.666667 0.600000
vt 0.666667 0.650000
vt 0.666667 0.700000
vt 0.666667 0.750000
vt 0.750000 0.600000
vt 0.750000 0.650000
vt 0.750000 0.700000
vt 0.750000 0.750000
vt 0.833333 0.600000
vt 0.833333 0.650000
vt 0.833333 0.700000
vt 0.833333 0.750000
vt 0.916667 0.600000
vt 0.916667 0.650000
vt 0.916667 0.700000
vt 0.916667 0.750000
vt 0.000000 0.750000
vt 1.000000 0.750000
vt 0.000000 0.800000
vt 1.000000 0.800000
vt 0.083333 0.750000
vt 0.083333 0.800000
vt 0.166667 0.800000
vt 0.166667 0.750000
vt 0.250000 0.750000
vt 0.250000 0.800000
vt 0.333333 0.800000
vt 0.333333 0.750000
vt 0.416667 0.750000
vt 0.416667 0.800000
vt 0.500000 0.800000
vt 0.500000 0.750000
vt 0.583333 0.750000
vt 0.583333 0.800000
vt 0.666667 0.800000
vt 0.666667 0.750000
vt 0.750000 0.750000
vt 0.750000 0.800000
vt 0.833333 0.800000
vt 0.833333 0.750000
vt 0.916667 0.750000
vt 0.916667 0.800000
vt 0.000000 0.800000
vt 1.000000 0.800000
vt 0.000000 0.850000
vt 1.000000 0.850000
vt 0.083333 0.850000
vt 0.083333 0.800000
vt 0.000000 0.900000
vt 1.000000 0.900000
vt 0.083333 0.900000
vt 0.000000 0.950000
vt 1.000000 0.950000
vt 0.083333 0.950000
vt 0.000000 1.000000
vt 1.000000 1.000000
vt 0.166667 0.800000
vt 0.166667 0.850000
vt 0.166667 0.900000
vt 0.166667 0.950000
vt 0.166667 1.000000
vt 0.250000 0.850000
vt 0.250000 0.800000
vt 0.250000 0.900000
vt 0.250000 0.950000
vt 0.333333 0.800000
vt 0.333333 0.850000
vt 0.333333 0.900000
vt 0.333333 0.950000
vt 0.333333 1.000000
vt 0.416667 0.850000
vt 0.416667 0.800000
vt 0.416667 0.900000
vt 0.416667 0.950000
vt 0.500000 0.800000
vt 0.500000 0.850000
vt 0.500000 0.900000
vt 0.500000 0.950000
vt 0.500000 1.000000
vt 0.583333 0.850000
vt 0.583333 0.800000
vt 0.583333 0.900000
vt 0.583333 0.950000
vt 0.666667 0.800000
vt 0.666667 0.850000
vt 0.666667 0.900000
vt 0.666667 0.950000
vt 0.666667 1.000000
vt 0.750000 0.850000
vt 0.750000 0.800000
vt 0.750000 0.900000
vt 0.750000 0.950000
vt 0.833333 0.800000
vt 0.833333 0.850000
vt 0.833333 0.900000
vt 0.833333 0.950000
vt 0.833333 1.000000
vt 0.916667 0.850000
vt 0.916667 0.800000
vt 0.916667 0.900000
vt 0.916667 0.950000
s 1
usemtl Default_OBJ.001
f 1/1/1 3/4/2 4/6/3
f 1/1/1 4/6/3 2/3/4
f 3/4/2 5/7/5 4/6/3
f 5/7/5 6/9/6 4/6/3
f 5/7/5 7/10/7 8/12/8
f 5/7/5 8/12/8 6/9/6
f 2/3/4 4/6/3 9/13/9
f 4/6/3 10/14/10 9/13/9
f 4/6/3 6/9/6 11/15/11
f 4/6/3 11/15/11 10/14/10
f 6/9/6 8/12/8 11/15/11
f 8/12/8 12/16/12 11/15/11
f 9/13/9 10/14/10 14/18/13
f 9/13/9 14/18/13 13/17/14
f 10/14/10 11/15/11 14/18/13
f 11/15/11 15/19/15 14/18/13
f 11/15/11 12/16/12 16/20/16
f 11/15/11 16/20/16 15/19/15
f 13/17/14 14/18/13 17/21/17
f 14/18/13 18/22/18 17/21/17
f 14/18/13 15/19/15 19/23/19
f 14/18/13 19/23/19 18/22/18
f 15/19/15 16/20/16 19/23/19
f 16/20/16 20/24/20 19/23/19
f 17/21/17 18/22/18 22/26/21
f 17/21/17 22/26/21 21/25/22
f 18/22/18 19/23/19 22/26/21
f 19/23/19 23/27/23 22/26/21
f 19/23/19 20/24/20 24/28/24
f 19/23/19 24/28/24 23/27/23
f 21/25/22 22/26/21 25/29/25
f 22/26/21 26/30/26 25/29/25
f 22/26/21 23/27/23 27/31/27
f 22/26/21 27/31/27 26/30/26
f 23/27/23 24/28/24 27/31/27
f 24/28/24 28/32/28 27/31/27
f 25/29/25 26/30/26 30/34/29
f 25/29/25 30/34/29 29/33/30
f 26/30/26 27/31/27 30/34/29
f 27/31/27 31/35/31 30/34/29
f 27/31/27 28/32/28 32/36/32
f 27/31/27 32/36/32 31/35/31
f 29/33/30 30/34/29 33/37/33
f 30/34/29 34/38/34 33/37/33
f 30/34/29 31/35/31 35/39/35
f 30/34/29 35/39/35 34/38/34
f 31/35/31 32/36/32 35/39/35
f 32/36/32 36/40/36 35/39/35
f 33/37/33 34/38/34 38/42/37
f 33/37/33 38/42/37 37/41/38
f 34/38/34 35/39/35 38/42/37
f 35/39/35 39/43/39 38/42/37
f 35/39/35 36/40/36 40/44/40
f 35/39/35 40/44/40 39/43/39
f 37/41/38 38/42/37 41/45/41
f 38/42/37 42/46/42 41/45/41
f 38/42/37 39/43/39 43/47/43
f 38/42/37 43/47/43 42/46/42
f 39/43/39 40/44/40 43/47/43
f 40/44/40 44/48/44 43/47/43
f 41/45/41 42/46/42 46/50/45
f 41/45/41 46/50/45 45/49/46
f 42/46/42 43/47/43 46/50/45
f 43/47/43 47/51/47 46/50/45
f 43/47/43 44/48/44 48/52/48
f 43/47/43 48/52/48 47/51/47
f 45/49/46 46/50/45 1/2/1
f 46/50/45 3/5/2 1/2/1
f 46/50/45 47/51/47 5/8/5
f 46/50/45 5/8/5 3/5/2
f 47/51/47 48/52/48 5/8/5
f 48/52/48 7/11/7 5/8/5
f 49/53/49 50/55/49 51/57/50
f 50/55/49 52/58/51 51/57/50
f 51/57/50 52/58/51 53/59/52
f 51/57/50 53/59/52 54/60/53
f 54/60/53 53/59/52 55/61/54
f 53/59/52 56/62/55 55/61/54
f 55/61/54 56/62/55 57/63/56
f 55/61/54 57/63/56 58/64/57
f 58/64/57 57/63/56 59/65/58
f 57/63/56 60/66/59 59/65/58
f 59/65/58 60/66/59 61/67/60
f 59/65/58 61/67/60 62/68/61
f 62/68/61 61/67/60 63/69/62
f 61/67/60 64/70/63 63/69/62
f 63/69/62 64/70/63 65/71/64
f 63/69/62 65/71/64 66/72/65
f 66/72/65 65/71/64 67/73/66
f 65/71/64 68/74/67 67/73/66
f 67/73/66 68/74/67 69/75/68
f 67/73/66 69/75/68 70/76/69
f 70/76/69 69/75/68 71/77/70
f 69/75/68 72/78/71 71/77/70
f 71/77/70 72/78/71 50/56/49
f 71/77/70 50/56/49 49/54/49
f 73/79/72 74/81/73 75/83/74
f 73/79/72 75/83/74 76/84/75
f 74/81/73 77/85/76 75/83/74
f 77/85/76 78/87/77 75/83/74
f 77/85/76 79/88/78 80/90/79
f 77/85/76 80/90/79 78/87/77
f 79/88/78 81/91/80 80/90/79
f 76/84/75 75/83/74 82/93/81
f 75/83/74 83/94/82 82/93/81
f 75/83/74 78/87/77 84/95/83
f 75/83/74 84/95/83 83/94/82
f 78/87/77 80/90/79 84/95/83
f 80/90/79 85/96/84 84/95/83
f 80/90/79 86/97/85 85/96/84
f 82/93/81 83/94/82 87/98/86
f 82/93/81 87/98/86 88/99/87
f 83/94/82 84/95/83 87/98/86
f 84/95/83 89/100/88 87/98/86
f 84/95/83 85/96/84 90/101/89
f 84/95/83 90/101/89 89/100/88
f 85/96/84 86/97/85 90/101/89
f 88/99/87 87/98/86 91/102/90
f 87/98/86 92/103/91 91/102/90
f 87/98/86 89/100/88 93/104/92
f 87/98/86 93/104/92 92/103/91
f 89/100/88 90/101/89 93/104/92
f 90/101/89 94/105/93 93/104/92
f 90/101/89 95/106/94 94/105/93
f 91/102/90 92/103/91 96/107/95
f 91/102/90 96/107/95 97/108/96
f 92/103/91 93/104/92 96/107/95
f 93/104/92 98/109/97 96/107/95
f 93/104/92 94/105/93 99/110/98
f 93/104/92 99/110/98 98/109/97
f 94/105/93 95/106/94 99/110/98
f 97/108/96 96/107/95 100/111/99
f 96/107/95 101/112/100 100/111/99
f 96/107/95 98/109/97 102/113/101
f 96/107/95 102/113/101 101/112/100
f 98/109/97 99/110/98 102/113/101
f 99/110/98 103/114/102 102/113/101
f 99/110/98 104/115/103 103/114/102
f 100/111/99 101/112/100 105/116/104
f 100/111/99 105/116/104 106/117/105
f 101/112/100 102/113/101 105/116/104
f 102/113/101 107/118/106 105/116/104
f 102/113/101 103/114/102 108/119/107
f 102/113/101 108/119/107 107/118/106
f 103/114/102 104/115/103 108/119/107
f 106/117/105 105/116/104 109/120/108
f 105/116/104 110/121/109 109/120/108
f 105/116/104 107/118/106 111/122/110
f 105/116/104 111/122/110 110/121/109
f 107/118/106 108/119/107 111/122/110
f 108/119/107 112/123/111 111/122/110
f 108/119/107 113/124/112 112/123/111
f 109/120/108 110/121/109 114/125/113
f 109/120/108 114/125/113 115/126/114
f 110/121/109 111/122/110 114/125/113
f 111/122/110 116/127/115 114/125/113
f 111/122/110 112/123/111 117/128/116
f 111/122/110 117/128/116 116/127/115
f 112/123/111 113/124/112 117/128/116
f 115/126/114 114/125/113 118/129/117
f 114/125/113 119/130/118 118/129/117
f 114/125/113 116/127/115 120/131/119
f 114/125/113 120/131/119 119/130/118
f 116/127/115 117/128/116 120/131/119
f 117/128/116 121/132/120 120/131/119
f 117/128/116 122/133/121 121/132/120
f 118/129/117 119/130/118 123/134/122
f 118/129/117 123/134/122 124/135/123
f 119/130/118 120/131/119 123/134/122
f 120/131/119 125/136/124 123/134/122
f 120/131/119 121/132/120 126/137/125
f 120/131/119 126/137/125 125/136/124
f 121/132/120 122/133/121 126/137/125
f 124/135/123 123/134/122 73/80/72
f 123/134/122 74/82/73 73/80/72
f 123/134/122 125/136/124 77/86/76
f 123/134/122 77/86/76 74/82/73
f 125/136/124 126/137/125 77/86/76
f 126/137/125 79/89/78 77/86/76
f 126/137/125 81/92/80 79/89/78
