# Blender 4.3.0
# www.blender.org
mtllib TurntableStylus.mtl
o Cylinder.003
v -0.004375 -0.000000 0.548676
v 0.503119 -0.000000 0.179961
v -0.004375 1.295910 0.548676
v -0.511868 -0.000000 0.179961
v -0.318022 -0.000000 -0.416633
v -0.511868 1.295910 0.179961
v -0.318022 1.295910 -0.416633
v 0.309274 1.295910 -0.416633
v 0.503119 1.295910 0.179961
v 0.309274 -0.000000 -0.416633
vn -0.0000 -0.0000 1.0000
vn 0.9511 -0.0000 0.3090
vn -0.9511 -0.0000 0.3090
vn -0.5878 -0.0000 -0.8090
vn -0.0000 1.0000 -0.0000
vn 0.5878 -0.0000 -0.8090
vt 0.833333 0.255208
vt 0.416716 0.902140
vt 0.390950 0.918884
vt 0.375027 0.875049
vt 0.390950 0.831214
vt 0.416716 0.847958
s 1
usemtl Material
f 1/1/1 2/1/2 9/1/2 3/1/1
f 4/1/3 1/1/1 3/1/1 6/1/3
f 5/1/4 4/1/3 6/1/3 7/1/4
f 8/2/5 7/3/5 6/4/5
f 10/1/6 5/1/4 7/1/4 8/1/6
f 2/1/2 10/1/6 8/1/6 9/1/2
f 3/5/5 9/6/5 6/4/5
f 9/6/5 8/2/5 6/4/5
o Cylinder.005
v -8.257814 1.171028 6.921866
v -8.136585 0.946776 6.990758
v -8.312033 0.946776 6.793401
v -7.109396 1.410602 5.902415
v -5.951440 1.524437 4.881683
v -7.177512 1.183433 5.786285
v -7.002465 1.183354 5.983999
v -5.857845 1.295833 4.975023
v -4.703695 1.309038 3.968277
v -6.031972 1.296001 4.776499
v -4.876719 1.309219 3.768791
v -3.715647 1.253627 2.766876
v -4.787235 1.537787 3.866165
v -3.620351 1.481927 2.859232
v -2.451754 1.378892 1.861269
v -3.543665 1.253495 2.967261
v -2.379416 1.150829 1.973013
v -1.212351 1.022232 0.983972
v -2.550517 1.150886 1.771875
v -1.382713 1.022208 0.782207
v -0.216546 0.876870 -0.199576
v -1.281796 1.249979 0.869775
v -0.114297 1.104475 -0.113129
v -0.046800 0.876970 0.002706
vn 0.5172 0.4942 0.6988
vn -0.6324 0.4945 -0.5963
vn 0.5452 0.4985 0.6740
vn -0.6000 0.4994 -0.6250
vn 0.1152 -0.9880 -0.1024
vn 0.0548 -0.9973 -0.0490
vn 0.5662 0.4995 0.6557
vn 0.0061 -1.0000 -0.0062
vn -0.5722 0.5007 -0.6495
vn -0.0278 -0.9993 0.0232
vn -0.5518 0.5003 -0.6672
vn 0.5797 0.4992 0.6441
vn 0.5879 0.4986 0.6370
vn -0.5368 0.4992 -0.6802
vn -0.0511 -0.9978 0.0432
vn 0.5919 0.4982 0.6336
vn -0.0639 -0.9965 0.0541
vn -0.5279 0.4983 -0.6877
vn -0.5215 0.4976 -0.6931
vn -0.0725 -0.9955 0.0613
vn 0.5940 0.4979 0.6318
vt 0.783854 0.307292
s 0
usemtl Material
f 11/7/7 12/7/7 17/7/7 14/7/7
f 13/7/8 11/7/8 14/7/8 16/7/8
f 14/7/9 17/7/9 18/7/9 15/7/9
f 16/7/10 14/7/10 15/7/10 20/7/10
f 12/7/11 13/7/11 16/7/11 17/7/11
f 17/7/12 16/7/12 20/7/12 18/7/12
f 15/7/13 18/7/13 19/7/13 23/7/13
f 18/7/14 20/7/14 21/7/14 19/7/14
f 20/7/15 15/7/15 23/7/15 21/7/15
f 19/7/16 21/7/16 22/7/16 26/7/16
f 21/7/17 23/7/17 24/7/17 22/7/17
f 23/7/18 19/7/18 26/7/18 24/7/18
f 24/7/19 26/7/19 27/7/19 25/7/19
f 22/7/20 24/7/20 25/7/20 29/7/20
f 26/7/21 22/7/21 29/7/21 27/7/21
f 25/7/22 27/7/22 28/7/22 32/7/22
f 27/7/23 29/7/23 30/7/23 28/7/23
f 29/7/24 25/7/24 32/7/24 30/7/24
f 30/7/25 32/7/25 33/7/25 31/7/25
f 28/7/26 30/7/26 31/7/26 34/7/26
f 32/7/27 28/7/27 34/7/27 33/7/27
o Cylinder.006
v -8.660182 0.640332 6.926093
v -8.758227 0.792792 6.809299
v -8.774950 0.792792 7.026504
v -8.415227 0.640332 7.218020
v -8.529952 0.792792 7.318481
v -8.317231 0.792792 7.334859
v -8.774950 1.112958 7.026504
v -8.758227 1.112958 6.809299
v -8.660182 1.265418 6.926093
v -8.309651 0.792792 6.416669
v -8.211656 0.640332 6.533507
v -8.096931 0.792792 6.433046
v -7.966701 0.640332 6.825435
v -7.868655 0.792792 6.942229
v -7.851932 0.792792 6.725024
v -8.309651 1.112958 6.416669
v -8.096931 1.112958 6.433046
v -8.211656 1.265418 6.533507
v -7.851932 1.112958 6.725024
v -7.868655 1.112958 6.942229
v -7.966701 1.265418 6.825435
v -8.317231 1.112958 7.334859
v -8.529952 1.112958 7.318481
v -8.415227 1.265418 7.218020
vn 0.3156 -0.0000 0.9489
vn 0.8941 -0.0000 0.4478
vn -0.3156 -0.0000 -0.9489
vn -0.8941 -0.0000 -0.4478
vn -0.0000 -1.0000 -0.0000
vn 0.9521 -0.0000 -0.3057
vn 0.4571 -0.0000 -0.8894
vn -0.0000 1.0000 -0.0000
vn -0.6540 -0.7549 -0.0503
vn -0.6808 -0.6844 0.2609
vn -0.6329 -0.6844 -0.3621
vn -0.0496 -0.7628 0.6447
vn 0.2647 -0.6880 0.6758
vn -0.3650 -0.6880 0.6273
vn -0.6808 0.6844 0.2609
vn -0.6540 0.7549 -0.0503
vn -0.6329 0.6844 -0.3621
vn -0.2647 -0.6880 -0.6758
vn 0.3650 -0.6880 -0.6273
vn 0.0496 -0.7628 -0.6447
vn 0.6540 -0.7549 0.0503
vn 0.6808 -0.6844 -0.2609
vn 0.6329 -0.6844 0.3621
vn -0.2647 0.6880 -0.6758
vn 0.0496 0.7628 -0.6447
vn 0.3650 0.6880 -0.6273
vn 0.6808 0.6844 -0.2609
vn 0.6540 0.7549 0.0503
vn 0.6329 0.6844 0.3621
vn 0.2647 0.6880 0.6758
vn -0.0496 0.7628 0.6447
vn -0.3650 0.6880 0.6273
vn -0.9521 -0.0000 0.3057
vn -0.4571 -0.0000 0.8894
vt 0.645833 0.609375
vt 0.765625 0.401042
s 1
usemtl Material
f 40/8/28 48/8/29 54/8/29 56/8/28
f 44/8/30 36/8/31 42/8/31 50/8/30
f 38/8/32 35/8/32 45/8/32 47/8/32
f 49/8/33 46/8/34 51/8/34 53/8/33
f 55/9/35 52/9/35 43/9/35 58/9/35
f 35/8/36 37/8/37 36/8/38
f 38/8/39 40/8/40 39/8/41
f 41/9/42 43/9/43 42/9/44
f 44/8/45 46/8/46 45/8/47
f 47/8/48 49/8/49 48/8/50
f 50/9/51 52/9/52 51/9/53
f 53/9/54 55/9/55 54/9/56
f 56/9/57 58/9/58 57/9/59
f 38/8/39 39/8/41 37/8/37 35/8/36
f 36/8/31 37/8/60 41/8/60 42/8/31
f 35/8/36 36/8/38 44/8/45 45/8/47
f 45/8/47 46/8/46 49/8/49 47/8/48
f 50/8/30 51/8/34 46/8/34 44/8/30
f 55/9/55 53/9/54 51/9/53 52/9/52
f 52/9/52 50/9/51 42/9/44 43/9/43
f 58/9/58 56/9/57 54/9/56 55/9/55
f 53/8/33 54/8/29 48/8/29 49/8/33
f 43/9/43 41/9/42 57/9/59 58/9/58
f 56/8/28 57/8/61 39/8/61 40/8/28
f 47/8/48 48/8/50 40/8/40 38/8/39
f 37/8/60 39/8/61 57/8/61 41/8/60
o Cylinder.007
v -8.465901 0.945252 7.104454
v -8.531940 0.945331 6.989989
v -8.465901 0.518364 7.028224
v -8.399884 0.945252 6.990108
vn -0.8628 -0.0889 0.4977
vn 0.8626 -0.0889 0.4980
vn 0.0008 -0.0891 -0.9960
vt 0.854167 0.265625
s 0
usemtl 
f 59/10/62 60/10/62 61/10/62
f 62/10/63 59/10/63 61/10/63
f 60/10/64 62/10/64 61/10/64
