# created by: Biturn ver 0.88
# http://mirex.mypage.sk
# ------------------------------------
# 50 vertices, 96 polygons, 288 points, 1 materials


mtllib ViolinFinger.mtl

#-- object 'Converted object 0' --
# 50 vertices, 96 polygons, 288 points

g Converted object 0

# vertexs: 50
v 0.000511 -0.001844 0.266398
v 0.000511 -0.001844 0.061139
v 0.097465 -0.001844 0.069452
v 0.084476 -0.050321 0.069452
v 0.048988 -0.085809 0.069452
v 0.000511 -0.098798 0.069452
v -0.047966 -0.085809 0.069452
v -0.083454 -0.050321 0.069452
v -0.096443 -0.001844 0.069452
v -0.083454 0.046633 0.069452
v -0.047966 0.082121 0.069452
v 0.000511 0.095110 0.069452
v 0.048988 0.082121 0.069452
v 0.084476 0.046633 0.069452
v 0.157386 -0.001844 0.082361
v 0.136369 -0.080282 0.082361
v 0.078948 -0.137702 0.082361
v 0.000511 -0.158719 0.082361
v -0.077927 -0.137702 0.082361
v -0.135347 -0.080282 0.082361
v -0.156365 -0.001844 0.082361
v -0.135347 0.076594 0.082361
v -0.077927 0.134014 0.082361
v 0.000511 0.155031 0.082361
v 0.078948 0.134014 0.082361
v 0.136369 0.076594 0.082361
v 0.157386 -0.001844 0.152421
v 0.136369 -0.080282 0.152421
v 0.078948 -0.137702 0.152421
v 0.000511 -0.158719 0.152421
v -0.077927 -0.137702 0.152421
v -0.135347 -0.080282 0.152421
v -0.156365 -0.001844 0.152421
v -0.135347 0.076594 0.152421
v -0.077927 0.134014 0.152421
v 0.000511 0.155031 0.152421
v 0.078948 0.134014 0.152421
v 0.136369 0.076594 0.152421
v 0.097465 -0.001844 0.234895
v 0.084476 -0.050321 0.234895
v 0.048988 -0.085809 0.234895
v 0.000511 -0.098798 0.234895
v -0.047966 -0.085809 0.234895
v -0.083454 -0.050321 0.234895
v -0.096443 -0.001844 0.234895
v -0.083454 0.046633 0.234895
v -0.047966 0.082121 0.234895
v 0.000511 0.095110 0.234895
v 0.048988 0.082121 0.234895
v 0.084476 0.046633 0.234895

# normals: 288
vn 0.000000 -0.000000 -1.000000
vn 0.169145 0.000000 -0.985591
vn 0.128410 -0.074138 -0.988946
vn 0.000000 -0.000000 1.000000
vn 0.579720 -0.334702 0.742899
vn 0.585214 0.000000 0.810879
vn 0.000000 -0.000000 -1.000000
vn 0.128410 -0.074138 -0.988946
vn 0.084572 -0.146484 -0.985591
vn 0.000000 -0.000000 1.000000
vn 0.292607 -0.506810 0.810879
vn 0.579720 -0.334702 0.742899
vn 0.000000 -0.000000 -1.000000
vn 0.084572 -0.146484 -0.985591
vn 0.000000 -0.148275 -0.988946
vn 0.000000 -0.000000 1.000000
vn 0.000000 -0.669403 0.742899
vn 0.292607 -0.506810 0.810879
vn 0.000000 -0.000000 -1.000000
vn 0.000000 -0.148275 -0.988946
vn -0.084572 -0.146484 -0.985591
vn 0.000000 -0.000000 1.000000
vn -0.292607 -0.506810 0.810879
vn 0.000000 -0.669403 0.742899
vn 0.000000 -0.000000 -1.000000
vn -0.084572 -0.146484 -0.985591
vn -0.128410 -0.074138 -0.988946
vn 0.000000 -0.000000 1.000000
vn -0.579720 -0.334702 0.742899
vn -0.292607 -0.506810 0.810879
vn 0.000000 -0.000000 -1.000000
vn -0.128410 -0.074138 -0.988946
vn -0.169145 0.000000 -0.985591
vn 0.000000 -0.000000 1.000000
vn -0.585214 0.000000 0.810879
vn -0.579720 -0.334702 0.742899
vn 0.000000 -0.000000 -1.000000
vn -0.169145 0.000000 -0.985591
vn -0.128410 0.074138 -0.988946
vn 0.000000 -0.000000 1.000000
vn -0.579720 0.334702 0.742899
vn -0.585214 0.000000 0.810879
vn 0.000000 -0.000000 -1.000000
vn -0.128410 0.074138 -0.988946
vn -0.084572 0.146484 -0.985591
vn 0.000000 -0.000000 1.000000
vn -0.292607 0.506810 0.810879
vn -0.579720 0.334702 0.742899
vn 0.000000 -0.000000 -1.000000
vn -0.084572 0.146484 -0.985591
vn 0.000000 0.148275 -0.988946
vn 0.000000 -0.000000 1.000000
vn -0.000000 0.669403 0.742899
vn -0.292607 0.506810 0.810879
vn 0.000000 -0.000000 -1.000000
vn 0.000000 0.148275 -0.988946
vn 0.084572 0.146484 -0.985591
vn 0.000000 -0.000000 1.000000
vn 0.292607 0.506810 0.810879
vn -0.000000 0.669403 0.742899
vn 0.000000 -0.000000 -1.000000
vn 0.084572 0.146484 -0.985591
vn 0.128410 0.074138 -0.988946
vn 0.000000 -0.000000 1.000000
vn 0.579720 0.334702 0.742899
vn 0.292607 0.506810 0.810879
vn 0.000000 -0.000000 -1.000000
vn 0.128410 0.074138 -0.988946
vn 0.169145 0.000000 -0.985591
vn 0.000000 -0.000000 1.000000
vn 0.585214 0.000000 0.810879
vn 0.579720 0.334702 0.742899
vn 0.169145 0.000000 -0.985591
vn 0.210602 0.000000 -0.977572
vn 0.182386 -0.105301 -0.977572
vn 0.169145 0.000000 -0.985591
vn 0.182386 -0.105301 -0.977572
vn 0.128410 -0.074138 -0.988946
vn 0.128410 -0.074138 -0.988946
vn 0.182386 -0.105301 -0.977572
vn 0.084572 -0.146484 -0.985591
vn 0.182386 -0.105301 -0.977572
vn 0.105301 -0.182386 -0.977572
vn 0.084572 -0.146484 -0.985591
vn 0.084572 -0.146484 -0.985591
vn 0.105301 -0.182386 -0.977572
vn 0.000000 -0.210602 -0.977572
vn 0.084572 -0.146484 -0.985591
vn 0.000000 -0.210602 -0.977572
vn 0.000000 -0.148275 -0.988946
vn 0.000000 -0.148275 -0.988946
vn 0.000000 -0.210602 -0.977572
vn -0.084572 -0.146484 -0.985591
vn 0.000000 -0.210602 -0.977572
vn -0.105301 -0.182386 -0.977572
vn -0.084572 -0.146484 -0.985591
vn -0.084572 -0.146484 -0.985591
vn -0.105301 -0.182386 -0.977572
vn -0.182386 -0.105301 -0.977572
vn -0.084572 -0.146484 -0.985591
vn -0.182386 -0.105301 -0.977572
vn -0.128410 -0.074138 -0.988946
vn -0.128410 -0.074138 -0.988946
vn -0.182386 -0.105301 -0.977572
vn -0.169145 0.000000 -0.985591
vn -0.182386 -0.105301 -0.977572
vn -0.210602 0.000000 -0.977572
vn -0.169145 0.000000 -0.985591
vn -0.169145 0.000000 -0.985591
vn -0.210602 0.000000 -0.977572
vn -0.182386 0.105301 -0.977572
vn -0.169145 0.000000 -0.985591
vn -0.182386 0.105301 -0.977572
vn -0.128410 0.074138 -0.988946
vn -0.128410 0.074138 -0.988946
vn -0.182386 0.105301 -0.977572
vn -0.084572 0.146484 -0.985591
vn -0.182386 0.105301 -0.977572
vn -0.105301 0.182386 -0.977572
vn -0.084572 0.146484 -0.985591
vn -0.084572 0.146484 -0.985591
vn -0.105301 0.182386 -0.977572
vn 0.000000 0.210602 -0.977572
vn -0.084572 0.146484 -0.985591
vn 0.000000 0.210602 -0.977572
vn 0.000000 0.148275 -0.988946
vn 0.000000 0.148275 -0.988946
vn 0.000000 0.210602 -0.977572
vn 0.084572 0.146484 -0.985591
vn 0.000000 0.210602 -0.977572
vn 0.105301 0.182386 -0.977572
vn 0.084572 0.146484 -0.985591
vn 0.084572 0.146484 -0.985591
vn 0.105301 0.182386 -0.977572
vn 0.182386 0.105301 -0.977572
vn 0.084572 0.146484 -0.985591
vn 0.182386 0.105301 -0.977572
vn 0.128410 0.074138 -0.988946
vn 0.128410 0.074138 -0.988946
vn 0.182386 0.105301 -0.977572
vn 0.169145 0.000000 -0.985591
vn 0.182386 0.105301 -0.977572
vn 0.210602 0.000000 -0.977572
vn 0.169145 0.000000 -0.985591
vn 1.000000 0.000000 0.000000
vn 0.950467 -0.000000 0.310825
vn 0.866025 -0.500000 0.000000
vn 0.950467 -0.000000 0.310825
vn 0.823129 -0.475234 0.310825
vn 0.866025 -0.500000 0.000000
vn 0.866025 -0.500000 0.000000
vn 0.823129 -0.475234 0.310825
vn 0.475234 -0.823129 0.310825
vn 0.866025 -0.500000 0.000000
vn 0.475234 -0.823129 0.310825
vn 0.500000 -0.866025 0.000000
vn 0.500000 -0.866025 0.000000
vn 0.475234 -0.823129 0.310825
vn 0.000000 -1.000000 0.000000
vn 0.475234 -0.823129 0.310825
vn 0.000000 -0.950467 0.310825
vn 0.000000 -1.000000 0.000000
vn 0.000000 -1.000000 0.000000
vn 0.000000 -0.950467 0.310825
vn -0.475233 -0.823129 0.310825
vn 0.000000 -1.000000 0.000000
vn -0.475233 -0.823129 0.310825
vn -0.500000 -0.866025 0.000000
vn -0.500000 -0.866025 0.000000
vn -0.475233 -0.823129 0.310825
vn -0.866025 -0.500000 0.000000
vn -0.475233 -0.823129 0.310825
vn -0.823129 -0.475233 0.310825
vn -0.866025 -0.500000 0.000000
vn -0.866025 -0.500000 0.000000
vn -0.823129 -0.475233 0.310825
vn -0.950467 -0.000000 0.310825
vn -0.866025 -0.500000 0.000000
vn -0.950467 -0.000000 0.310825
vn -1.000000 0.000000 0.000000
vn -1.000000 0.000000 0.000000
vn -0.950467 -0.000000 0.310825
vn -0.866025 0.500000 0.000000
vn -0.950467 -0.000000 0.310825
vn -0.823129 0.475233 0.310825
vn -0.866025 0.500000 0.000000
vn -0.866025 0.500000 0.000000
vn -0.823129 0.475233 0.310825
vn -0.475234 0.823129 0.310825
vn -0.866025 0.500000 0.000000
vn -0.475234 0.823129 0.310825
vn -0.500000 0.866025 0.000000
vn -0.500000 0.866025 0.000000
vn -0.475234 0.823129 0.310825
vn 0.000000 1.000000 0.000000
vn -0.475234 0.823129 0.310825
vn 0.000000 0.950467 0.310825
vn 0.000000 1.000000 0.000000
vn 0.000000 1.000000 0.000000
vn 0.000000 0.950467 0.310825
vn 0.475233 0.823129 0.310825
vn 0.000000 1.000000 0.000000
vn 0.475233 0.823129 0.310825
vn 0.500000 0.866025 0.000000
vn 0.500000 0.866025 0.000000
vn 0.475233 0.823129 0.310825
vn 0.866025 0.500000 0.000000
vn 0.475233 0.823129 0.310825
vn 0.823129 0.475233 0.310825
vn 0.866025 0.500000 0.000000
vn 0.866025 0.500000 0.000000
vn 0.823129 0.475233 0.310825
vn 0.950467 -0.000000 0.310825
vn 0.866025 0.500000 0.000000
vn 0.950467 -0.000000 0.310825
vn 1.000000 0.000000 0.000000
vn 0.950467 -0.000000 0.310825
vn 0.585214 0.000000 0.810879
vn 0.579720 -0.334702 0.742899
vn 0.950467 -0.000000 0.310825
vn 0.579720 -0.334702 0.742899
vn 0.823129 -0.475234 0.310825
vn 0.823129 -0.475234 0.310825
vn 0.579720 -0.334702 0.742899
vn 0.475234 -0.823129 0.310825
vn 0.579720 -0.334702 0.742899
vn 0.292607 -0.506810 0.810879
vn 0.475234 -0.823129 0.310825
vn 0.475234 -0.823129 0.310825
vn 0.292607 -0.506810 0.810879
vn 0.000000 -0.669403 0.742899
vn 0.475234 -0.823129 0.310825
vn 0.000000 -0.669403 0.742899
vn 0.000000 -0.950467 0.310825
vn 0.000000 -0.950467 0.310825
vn 0.000000 -0.669403 0.742899
vn -0.475233 -0.823129 0.310825
vn 0.000000 -0.669403 0.742899
vn -0.292607 -0.506810 0.810879
vn -0.475233 -0.823129 0.310825
vn -0.475233 -0.823129 0.310825
vn -0.292607 -0.506810 0.810879
vn -0.579720 -0.334702 0.742899
vn -0.475233 -0.823129 0.310825
vn -0.579720 -0.334702 0.742899
vn -0.823129 -0.475233 0.310825
vn -0.823129 -0.475233 0.310825
vn -0.579720 -0.334702 0.742899
vn -0.950467 -0.000000 0.310825
vn -0.579720 -0.334702 0.742899
vn -0.585214 0.000000 0.810879
vn -0.950467 -0.000000 0.310825
vn -0.950467 -0.000000 0.310825
vn -0.585214 0.000000 0.810879
vn -0.579720 0.334702 0.742899
vn -0.950467 -0.000000 0.310825
vn -0.579720 0.334702 0.742899
vn -0.823129 0.475233 0.310825
vn -0.823129 0.475233 0.310825
vn -0.579720 0.334702 0.742899
vn -0.475234 0.823129 0.310825
vn -0.579720 0.334702 0.742899
vn -0.292607 0.506810 0.810879
vn -0.475234 0.823129 0.310825
vn -0.475234 0.823129 0.310825
vn -0.292607 0.506810 0.810879
vn -0.000000 0.669403 0.742899
vn -0.475234 0.823129 0.310825
vn -0.000000 0.669403 0.742899
vn 0.000000 0.950467 0.310825
vn 0.000000 0.950467 0.310825
vn -0.000000 0.669403 0.742899
vn 0.475233 0.823129 0.310825
vn -0.000000 0.669403 0.742899
vn 0.292607 0.506810 0.810879
vn 0.475233 0.823129 0.310825
vn 0.475233 0.823129 0.310825
vn 0.292607 0.506810 0.810879
vn 0.579720 0.334702 0.742899
vn 0.475233 0.823129 0.310825
vn 0.579720 0.334702 0.742899
vn 0.823129 0.475233 0.310825
vn 0.823129 0.475233 0.310825
vn 0.579720 0.334702 0.742899
vn 0.950467 -0.000000 0.310825
vn 0.579720 0.334702 0.742899
vn 0.585214 0.000000 0.810879
vn 0.950467 -0.000000 0.310825

# texture coords: 288
vt 0.865486 0.575301
vt 0.878339 0.575301
vt 0.876617 0.572087
vt 0.865486 0.575301
vt 0.876617 0.572087
vt 0.878339 0.575301
vt 0.865486 0.575301
vt 0.876617 0.572087
vt 0.871912 0.569735
vt 0.865486 0.575301
vt 0.871912 0.569735
vt 0.876617 0.572087
vt 0.865486 0.575301
vt 0.871912 0.569735
vt 0.865486 0.568874
vt 0.865486 0.575301
vt 0.865486 0.568874
vt 0.871912 0.569735
vt 0.865486 0.575301
vt 0.865486 0.568874
vt 0.859059 0.569735
vt 0.865486 0.575301
vt 0.859059 0.569735
vt 0.865486 0.568874
vt 0.865486 0.575301
vt 0.859059 0.569735
vt 0.854354 0.572087
vt 0.865486 0.575301
vt 0.854354 0.572087
vt 0.859059 0.569735
vt 0.865486 0.575301
vt 0.854354 0.572087
vt 0.852632 0.575301
vt 0.865486 0.575301
vt 0.852632 0.575301
vt 0.854354 0.572087
vt 0.865486 0.575301
vt 0.852632 0.575301
vt 0.854354 0.578514
vt 0.865486 0.575301
vt 0.854354 0.578514
vt 0.852632 0.575301
vt 0.865486 0.575301
vt 0.854354 0.578514
vt 0.859059 0.580866
vt 0.865486 0.575301
vt 0.859059 0.580866
vt 0.854354 0.578514
vt 0.865486 0.575301
vt 0.859059 0.580866
vt 0.865486 0.581727
vt 0.865486 0.575301
vt 0.865486 0.581727
vt 0.859059 0.580866
vt 0.865486 0.575301
vt 0.865486 0.581727
vt 0.871912 0.580866
vt 0.865486 0.575301
vt 0.871912 0.580866
vt 0.865486 0.581727
vt 0.865486 0.575301
vt 0.871912 0.580866
vt 0.876617 0.578514
vt 0.865486 0.575301
vt 0.876617 0.578514
vt 0.871912 0.580866
vt 0.865486 0.575301
vt 0.876617 0.578514
vt 0.878339 0.575301
vt 0.865486 0.575301
vt 0.878339 0.575301
vt 0.876617 0.578514
vt 0.878339 0.575301
vt 0.886283 0.575301
vt 0.883496 0.570101
vt 0.878339 0.575301
vt 0.883496 0.570101
vt 0.876617 0.572087
vt 0.876617 0.572087
vt 0.883496 0.570101
vt 0.871912 0.569735
vt 0.883496 0.570101
vt 0.875884 0.566295
vt 0.871912 0.569735
vt 0.871912 0.569735
vt 0.875884 0.566295
vt 0.865486 0.564902
vt 0.871912 0.569735
vt 0.865486 0.564902
vt 0.865486 0.568874
vt 0.865486 0.568874
vt 0.865486 0.564902
vt 0.859059 0.569735
vt 0.865486 0.564902
vt 0.855087 0.566295
vt 0.859059 0.569735
vt 0.859059 0.569735
vt 0.855087 0.566295
vt 0.847475 0.570101
vt 0.859059 0.569735
vt 0.847475 0.570101
vt 0.854354 0.572087
vt 0.854354 0.572087
vt 0.847475 0.570101
vt 0.852632 0.575301
vt 0.847475 0.570101
vt 0.844689 0.575301
vt 0.852632 0.575301
vt 0.852632 0.575301
vt 0.844689 0.575301
vt 0.847475 0.580500
vt 0.852632 0.575301
vt 0.847475 0.580500
vt 0.854354 0.578514
vt 0.854354 0.578514
vt 0.847475 0.580500
vt 0.859059 0.580866
vt 0.847475 0.580500
vt 0.855087 0.584306
vt 0.859059 0.580866
vt 0.859059 0.580866
vt 0.855087 0.584306
vt 0.865486 0.585699
vt 0.859059 0.580866
vt 0.865486 0.585699
vt 0.865486 0.581727
vt 0.865486 0.581727
vt 0.865486 0.585699
vt 0.871912 0.580866
vt 0.865486 0.585699
vt 0.875884 0.584306
vt 0.871912 0.580866
vt 0.871912 0.580866
vt 0.875884 0.584306
vt 0.883496 0.580500
vt 0.871912 0.580866
vt 0.883496 0.580500
vt 0.876617 0.578514
vt 0.876617 0.578514
vt 0.883496 0.580500
vt 0.878339 0.575301
vt 0.883496 0.580500
vt 0.886283 0.575301
vt 0.878339 0.575301
vt 0.886283 0.575301
vt 0.886283 0.575301
vt 0.883496 0.570101
vt 0.886283 0.575301
vt 0.883496 0.570101
vt 0.883496 0.570101
vt 0.883496 0.570101
vt 0.883496 0.570101
vt 0.875884 0.566295
vt 0.883496 0.570101
vt 0.875884 0.566295
vt 0.875884 0.566295
vt 0.875884 0.566295
vt 0.875884 0.566295
vt 0.865486 0.564902
vt 0.875884 0.566295
vt 0.865486 0.564902
vt 0.865486 0.564902
vt 0.865486 0.564902
vt 0.865486 0.564902
vt 0.855087 0.566295
vt 0.865486 0.564902
vt 0.855087 0.566295
vt 0.855087 0.566295
vt 0.855087 0.566295
vt 0.855087 0.566295
vt 0.847475 0.570101
vt 0.855087 0.566295
vt 0.847475 0.570101
vt 0.847475 0.570101
vt 0.847475 0.570101
vt 0.847475 0.570101
vt 0.844689 0.575301
vt 0.847475 0.570101
vt 0.844689 0.575301
vt 0.844689 0.575301
vt 0.844689 0.575301
vt 0.844689 0.575301
vt 0.847475 0.580500
vt 0.844689 0.575301
vt 0.847475 0.580500
vt 0.847475 0.580500
vt 0.847475 0.580500
vt 0.847475 0.580500
vt 0.855087 0.584306
vt 0.847475 0.580500
vt 0.855087 0.584306
vt 0.855087 0.584306
vt 0.855087 0.584306
vt 0.855087 0.584306
vt 0.865486 0.585699
vt 0.855087 0.584306
vt 0.865486 0.585699
vt 0.865486 0.585699
vt 0.865486 0.585699
vt 0.865486 0.585699
vt 0.875884 0.584306
vt 0.865486 0.585699
vt 0.875884 0.584306
vt 0.875884 0.584306
vt 0.875884 0.584306
vt 0.875884 0.584306
vt 0.883496 0.580500
vt 0.875884 0.584306
vt 0.883496 0.580500
vt 0.883496 0.580500
vt 0.883496 0.580500
vt 0.883496 0.580500
vt 0.886283 0.575301
vt 0.883496 0.580500
vt 0.886283 0.575301
vt 0.886283 0.575301
vt 0.886283 0.575301
vt 0.878339 0.575301
vt 0.876617 0.572087
vt 0.886283 0.575301
vt 0.876617 0.572087
vt 0.883496 0.570101
vt 0.883496 0.570101
vt 0.876617 0.572087
vt 0.875884 0.566295
vt 0.876617 0.572087
vt 0.871912 0.569735
vt 0.875884 0.566295
vt 0.875884 0.566295
vt 0.871912 0.569735
vt 0.865486 0.568874
vt 0.875884 0.566295
vt 0.865486 0.568874
vt 0.865486 0.564902
vt 0.865486 0.564902
vt 0.865486 0.568874
vt 0.855087 0.566295
vt 0.865486 0.568874
vt 0.859059 0.569735
vt 0.855087 0.566295
vt 0.855087 0.566295
vt 0.859059 0.569735
vt 0.854354 0.572087
vt 0.855087 0.566295
vt 0.854354 0.572087
vt 0.847475 0.570101
vt 0.847475 0.570101
vt 0.854354 0.572087
vt 0.844689 0.575301
vt 0.854354 0.572087
vt 0.852632 0.575301
vt 0.844689 0.575301
vt 0.844689 0.575301
vt 0.852632 0.575301
vt 0.854354 0.578514
vt 0.844689 0.575301
vt 0.854354 0.578514
vt 0.847475 0.580500
vt 0.847475 0.580500
vt 0.854354 0.578514
vt 0.855087 0.584306
vt 0.854354 0.578514
vt 0.859059 0.580866
vt 0.855087 0.584306
vt 0.855087 0.584306
vt 0.859059 0.580866
vt 0.865486 0.581727
vt 0.855087 0.584306
vt 0.865486 0.581727
vt 0.865486 0.585699
vt 0.865486 0.585699
vt 0.865486 0.581727
vt 0.875884 0.584306
vt 0.865486 0.581727
vt 0.871912 0.580866
vt 0.875884 0.584306
vt 0.875884 0.584306
vt 0.871912 0.580866
vt 0.876617 0.578514
vt 0.875884 0.584306
vt 0.876617 0.578514
vt 0.883496 0.580500
vt 0.883496 0.580500
vt 0.876617 0.578514
vt 0.886283 0.575301
vt 0.876617 0.578514
vt 0.878339 0.575301
vt 0.886283 0.575301

# polygons: 96

f 2/1/1 3/2/2 4/3/3
f 1/4/4 40/5/5 39/6/6
f 2/7/7 4/8/8 5/9/9
f 1/10/10 41/11/11 40/12/12
f 2/13/13 5/14/14 6/15/15
f 1/16/16 42/17/17 41/18/18
f 2/19/19 6/20/20 7/21/21
f 1/22/22 43/23/23 42/24/24
f 2/25/25 7/26/26 8/27/27
f 1/28/28 44/29/29 43/30/30
f 2/31/31 8/32/32 9/33/33
f 1/34/34 45/35/35 44/36/36
f 2/37/37 9/38/38 10/39/39
f 1/40/40 46/41/41 45/42/42
f 2/43/43 10/44/44 11/45/45
f 1/46/46 47/47/47 46/48/48
f 2/49/49 11/50/50 12/51/51
f 1/52/52 48/53/53 47/54/54
f 2/55/55 12/56/56 13/57/57
f 1/58/58 49/59/59 48/60/60
f 2/61/61 13/62/62 14/63/63
f 1/64/64 50/65/65 49/66/66
f 2/67/67 14/68/68 3/69/69
f 1/70/70 39/71/71 50/72/72
f 3/73/73 15/74/74 16/75/75
f 3/76/76 16/77/77 4/78/78
f 4/79/79 16/80/80 5/81/81
f 16/82/82 17/83/83 5/84/84
f 5/85/85 17/86/86 18/87/87
f 5/88/88 18/89/89 6/90/90
f 6/91/91 18/92/92 7/93/93
f 18/94/94 19/95/95 7/96/96
f 7/97/97 19/98/98 20/99/99
f 7/100/100 20/101/101 8/102/102
f 8/103/103 20/104/104 9/105/105
f 20/106/106 21/107/107 9/108/108
f 9/109/109 21/110/110 22/111/111
f 9/112/112 22/113/113 10/114/114
f 10/115/115 22/116/116 11/117/117
f 22/118/118 23/119/119 11/120/120
f 11/121/121 23/122/122 24/123/123
f 11/124/124 24/125/125 12/126/126
f 12/127/127 24/128/128 13/129/129
f 24/130/130 25/131/131 13/132/132
f 13/133/133 25/134/134 26/135/135
f 13/136/136 26/137/137 14/138/138
f 14/139/139 26/140/140 3/141/141
f 26/142/142 15/143/143 3/144/144
f 15/145/145 27/146/146 16/147/147
f 27/148/148 28/149/149 16/150/150
f 16/151/151 28/152/152 29/153/153
f 16/154/154 29/155/155 17/156/156
f 17/157/157 29/158/158 18/159/159
f 29/160/160 30/161/161 18/162/162
f 18/163/163 30/164/164 31/165/165
f 18/166/166 31/167/167 19/168/168
f 19/169/169 31/170/170 20/171/171
f 31/172/172 32/173/173 20/174/174
f 20/175/175 32/176/176 33/177/177
f 20/178/178 33/179/179 21/180/180
f 21/181/181 33/182/182 22/183/183
f 33/184/184 34/185/185 22/186/186
f 22/187/187 34/188/188 35/189/189
f 22/190/190 35/191/191 23/192/192
f 23/193/193 35/194/194 24/195/195
f 35/196/196 36/197/197 24/198/198
f 24/199/199 36/200/200 37/201/201
f 24/202/202 37/203/203 25/204/204
f 25/205/205 37/206/206 26/207/207
f 37/208/208 38/209/209 26/210/210
f 26/211/211 38/212/212 27/213/213
f 26/214/214 27/215/215 15/216/216
f 27/217/217 39/218/218 40/219/219
f 27/220/220 40/221/221 28/222/222
f 28/223/223 40/224/224 29/225/225
f 40/226/226 41/227/227 29/228/228
f 29/229/229 41/230/230 42/231/231
f 29/232/232 42/233/233 30/234/234
f 30/235/235 42/236/236 31/237/237
f 42/238/238 43/239/239 31/240/240
f 31/241/241 43/242/242 44/243/243
f 31/244/244 44/245/245 32/246/246
f 32/247/247 44/248/248 33/249/249
f 44/250/250 45/251/251 33/252/252
f 33/253/253 45/254/254 46/255/255
f 33/256/256 46/257/257 34/258/258
f 34/259/259 46/260/260 35/261/261
f 46/262/262 47/263/263 35/264/264
f 35/265/265 47/266/266 48/267/267
f 35/268/268 48/269/269 36/270/270
f 36/271/271 48/272/272 37/273/273
f 48/274/274 49/275/275 37/276/276
f 37/277/277 49/278/278 50/279/279
f 37/280/280 50/281/281 38/282/282
f 38/283/283 50/284/284 27/285/285
f 50/286/286 39/287/287 27/288/288

# object end 'Converted object 0'
